<svg width="24" height="24" viewBox="0 0 24 24" fill="none" xmlns="http://www.w3.org/2000/svg">
<path fill-rule="evenodd" clip-rule="evenodd" d="M12 4C14.1217 4 16.1566 4.84285 17.6569 6.34315C19.1572 7.84344 20 9.87827 20 12C20 14.1217 19.1572 16.1566 17.6569 17.6569C16.1566 19.1571 14.1217 20 12 20C9.87828 20 7.84345 19.1571 6.34316 17.6569C4.84287 16.1566 4.00001 14.1217 4.00001 12C4.00001 9.87827 4.84287 7.84344 6.34316 6.34315C7.84345 4.84285 9.87828 4 12 4ZM3.20001 5.4C3.27721 5.29084 3.37551 5.19826 3.48911 5.12775C3.60271 5.05724 3.72929 5.01022 3.86138 4.98948C3.99346 4.96875 4.12836 4.9747 4.2581 5.00701C4.38784 5.03931 4.50979 5.09731 4.61673 5.17756C4.72366 5.25781 4.81342 5.3587 4.88069 5.47424C4.94796 5.58979 4.99138 5.71765 5.00838 5.85027C5.02537 5.98289 5.0156 6.11757 4.97964 6.24634C4.94368 6.37512 4.88226 6.49537 4.79901 6.6C3.62811 8.15649 2.99653 10.0523 3.00001 12C3.00001 14.027 3.67001 15.895 4.79901 17.4C4.95814 17.6122 5.02647 17.8789 4.98896 18.1414C4.95145 18.404 4.81118 18.6409 4.59901 18.8C4.38684 18.9591 4.12014 19.0275 3.85759 18.99C3.59504 18.9524 3.35814 18.8122 3.19901 18.6C1.76847 16.6973 0.996536 14.3805 1.00001 12C1.00001 9.525 1.81901 7.238 3.20001 5.4ZM19.4 5.2C19.6122 5.04087 19.8789 4.97254 20.1414 5.01005C20.404 5.04756 20.6409 5.18783 20.8 5.4C22.2309 7.30256 23.0032 9.61941 23 12C23 14.475 22.181 16.762 20.8 18.6C20.7228 18.7092 20.6245 18.8017 20.5109 18.8723C20.3973 18.9428 20.2707 18.9898 20.1386 19.0105C20.0066 19.0313 19.8717 19.0253 19.7419 18.993C19.6122 18.9607 19.4902 18.9027 19.3833 18.8224C19.2764 18.7422 19.1866 18.6413 19.1193 18.5258C19.0521 18.4102 19.0086 18.2823 18.9916 18.1497C18.9747 18.0171 18.9844 17.8824 19.0204 17.7537C19.0563 17.6249 19.1178 17.5046 19.201 17.4C20.3719 15.8435 21.0035 13.9477 21 12C21 9.973 20.33 8.105 19.201 6.6C19.0419 6.38783 18.9736 6.12113 19.0111 5.85858C19.0486 5.59603 19.1878 5.35913 19.4 5.2ZM12 6C10.4087 6 8.88259 6.63214 7.75737 7.75736C6.63215 8.88258 6.00001 10.4087 6.00001 12C6.00001 13.5913 6.63215 15.1174 7.75737 16.2426C8.88259 17.3679 10.4087 18 12 18C13.5913 18 15.1174 17.3679 16.2427 16.2426C17.3679 15.1174 18 13.5913 18 12C18 10.4087 17.3679 8.88258 16.2427 7.75736C15.1174 6.63214 13.5913 6 12 6ZM14 8C14.5304 8 15.0392 8.21071 15.4142 8.58579C15.7893 8.96086 16 9.46957 16 10V14C16 14.5304 15.7893 15.0391 15.4142 15.4142C15.0392 15.7893 14.5304 16 14 16H12C11.7348 16 11.4804 15.8946 11.2929 15.7071C11.1054 15.5196 11 15.2652 11 15V13H10V15C10 15.2652 9.89465 15.5196 9.70712 15.7071C9.51958 15.8946 9.26523 16 9.00001 16C8.7348 16 8.48044 15.8946 8.29291 15.7071C8.10537 15.5196 8.00001 15.2652 8.00001 15V11C8.00001 10.2044 8.31608 9.44129 8.87869 8.87868C9.4413 8.31607 10.2044 8 11 8H14ZM14 13H13V14H14V13ZM11 10C10.7551 10 10.5187 10.09 10.3356 10.2527C10.1526 10.4155 10.0357 10.6397 10.007 10.883L10 11H11V10ZM14 10H13V11H14V10Z" fill="currentColor"/>
</svg>
