<svg width="24" height="24" viewBox="0 0 24 24" fill="none" xmlns="http://www.w3.org/2000/svg">
<path d="M12 2C17.523 2 22 6.477 22 12C22.0036 14.3074 21.2058 16.5445 19.743 18.329L20.707 19.293C20.8863 19.473 20.9905 19.7144 20.9982 19.9684C21.006 20.2223 20.9168 20.4697 20.7488 20.6603C20.5807 20.8508 20.3464 20.9703 20.0935 20.9944C19.8406 21.0185 19.588 20.9454 19.387 20.79L19.293 20.707L18.328 19.744C16.5436 21.2062 14.307 22.0036 12 22C6.477 22 2 17.523 2 12C2 9.6 2.846 7.396 4.256 5.672L3.293 4.707C3.11365 4.52704 3.00953 4.28556 3.00177 4.03161C2.99402 3.77766 3.08322 3.53028 3.25125 3.33972C3.41928 3.14915 3.65355 3.02969 3.90647 3.0056C4.1594 2.9815 4.41201 3.05459 4.613 3.21L4.707 3.293L5.672 4.256C7.45637 2.79377 9.69304 1.99637 12 2ZM5.68 7.095C4.48593 8.63423 3.89454 10.5563 4.01677 12.5005C4.139 14.4448 4.96646 16.2776 6.3439 17.6552C7.72134 19.0327 9.55411 19.8603 11.4983 19.9827C13.4426 20.1051 15.3647 19.5139 16.904 18.32L5.68 7.095ZM12 4C10.151 4 8.45 4.627 7.094 5.68L9.424 8.01C9.80601 8.04937 10.1686 8.19789 10.4685 8.43781C10.7683 8.67774 10.9928 8.99893 11.115 9.363L11.159 9.515L11.236 9.822L13 11.586V9C13 8.75506 13.09 8.51866 13.2527 8.33562C13.4155 8.15259 13.6397 8.03565 13.883 8.007L14 8H16C16.7652 7.99995 17.5015 8.29232 18.0583 8.81728C18.615 9.34224 18.9501 10.0601 18.995 10.824L19 11V13C19.0003 13.5556 18.8462 14.1004 18.5551 14.5735C18.2639 15.0467 17.8471 15.4298 17.351 15.68L17.175 15.761L18.32 16.906C19.2381 15.7235 19.8059 14.307 19.959 12.8178C20.112 11.3285 19.8441 9.82619 19.1857 8.48164C18.5273 7.1371 17.5048 6.00429 16.2345 5.21202C14.9642 4.41976 13.4971 3.99983 12 4ZM6.526 10.774L9.752 14H7.78L7.47 15.242C7.40568 15.4994 7.24176 15.7207 7.01427 15.8572C6.78679 15.9937 6.51439 16.0343 6.257 15.97C5.99961 15.9057 5.77831 15.7418 5.64178 15.5143C5.50525 15.2868 5.46468 15.0144 5.529 14.757L6.526 10.774ZM10.376 14.624L11.726 15.974C11.4705 16.0332 11.2019 15.9897 10.9782 15.8527C10.7545 15.7158 10.5935 15.4965 10.53 15.242L10.376 14.624ZM16 10H15V13.586L15.414 14H16C16.2652 14 16.5196 13.8946 16.7071 13.7071C16.8946 13.5196 17 13.2652 17 13V11C17 10.7348 16.8946 10.4804 16.7071 10.2929C16.5196 10.1054 16.2652 10 16 10Z" fill="currentColor"/>
</svg>
