<svg width="24" height="24" viewBox="0 0 24 24" fill="none" xmlns="http://www.w3.org/2000/svg">
<path fill-rule="evenodd" clip-rule="evenodd" d="M3.293 3.293C3.46519 3.12082 3.69429 3.01739 3.93732 3.00211C4.18034 2.98683 4.4206 3.06075 4.613 3.21L4.707 3.293L5.414 4H19C19.7652 3.99996 20.5015 4.29232 21.0583 4.81728C21.615 5.34224 21.9501 6.06011 21.995 6.824L22 7V17C22 17.91 21.595 18.724 20.956 19.274L20.805 19.396L20.769 19.36C20.9272 19.5494 21.0099 19.7907 21.0009 20.0373C20.992 20.284 20.8922 20.5186 20.7207 20.6961C20.5491 20.8736 20.318 20.9813 20.0718 20.9987C19.8256 21.016 19.5817 20.9417 19.387 20.79L19.293 20.707L3.293 4.707C3.10553 4.51947 3.00021 4.26516 3.00021 4C3.00021 3.73483 3.10553 3.48053 3.293 3.293ZM2.076 6.325L4 8.248V17C4 17.2652 4.10536 17.5196 4.29289 17.7071C4.48043 17.8946 4.73478 18 5 18H13.752L15.752 20H5C4.20435 20 3.44129 19.6839 2.87868 19.1213C2.31607 18.5587 2 17.7956 2 17V7C2 6.768 2.026 6.542 2.076 6.325ZM19 6H7.414L9.424 8.01C9.83296 8.05202 10.219 8.21905 10.5297 8.48835C10.8403 8.75765 11.0604 9.11613 11.16 9.515L11.236 9.822L13.239 11.825C13.5376 11.1224 14.0929 10.56 14.7917 10.2525C15.4905 9.94502 16.2802 9.91551 17 10.17V9C17 8.73478 17.1054 8.48043 17.2929 8.29289C17.4804 8.10536 17.7348 8 18 8C18.2652 8 18.5196 8.10536 18.7071 8.29289C18.8946 8.48043 19 8.73478 19 9V15C19 15.2652 18.8946 15.5196 18.7071 15.7071C18.5196 15.8946 18.2652 16 18 16H17.414L19.351 17.937C19.5417 17.8655 19.7061 17.7375 19.8221 17.57C19.938 17.4026 20.0001 17.2037 20 17V7C20 6.73478 19.8946 6.48043 19.7071 6.29289C19.5196 6.10536 19.2652 6 19 6ZM6.526 10.774L9.752 14H7.78L7.47 15.242C7.40568 15.4994 7.24176 15.7207 7.01427 15.8572C6.78679 15.9937 6.51439 16.0343 6.257 15.97C5.99961 15.9057 5.77831 15.7418 5.64178 15.5143C5.50525 15.2868 5.46468 15.0144 5.529 14.757L6.526 10.774ZM10.376 14.624L11.726 15.974C11.4705 16.0332 11.2019 15.9897 10.9782 15.8527C10.7545 15.7158 10.5935 15.4965 10.53 15.242L10.376 14.624ZM16 12C15.7451 12.0003 15.5 12.0979 15.3146 12.2728C15.1293 12.4478 15.0178 12.687 15.0028 12.9414C14.9879 13.1958 15.0707 13.4464 15.2343 13.6418C15.3979 13.8373 15.6299 13.9629 15.883 13.993L16 14H17V13C17 12.7348 16.8946 12.4804 16.7071 12.2929C16.5196 12.1054 16.2652 12 16 12Z" fill="currentColor"/>
</svg>
