<svg width="24" height="24" viewBox="0 0 24 24" fill="none" xmlns="http://www.w3.org/2000/svg">
<path fill-rule="evenodd" clip-rule="evenodd" d="M19 6C19.7956 6 20.5587 6.31607 21.1213 6.87868C21.6839 7.44129 22 8.20435 22 9V15C22 15.7956 21.6839 16.5587 21.1213 17.1213C20.5587 17.6839 19.7956 18 19 18H5C4.20435 18 3.44129 17.6839 2.87868 17.1213C2.31607 16.5587 2 15.7956 2 15V9C2 8.20435 2.31607 7.44129 2.87868 6.87868C3.44129 6.31607 4.20435 6 5 6H19ZM19 8H5C4.75507 8.00003 4.51866 8.08996 4.33563 8.25272C4.15259 8.41547 4.03566 8.63975 4.007 8.883L4 9V15C4.00003 15.2449 4.08996 15.4813 4.25272 15.6644C4.41547 15.8474 4.63975 15.9643 4.883 15.993L5 16V14C5.00003 13.7551 5.08996 13.5187 5.25272 13.3356C5.41547 13.1526 5.63975 13.0357 5.883 13.007L6 13H18C18.2449 13 18.4813 13.09 18.6644 13.2527C18.8474 13.4155 18.9643 13.6397 18.993 13.883L19 14V16C19.2449 16 19.4813 15.91 19.6644 15.7473C19.8474 15.5845 19.9643 15.3603 19.993 15.117L20 15V9C20 8.75507 19.91 8.51866 19.7473 8.33563C19.5845 8.15259 19.3603 8.03566 19.117 8.007L19 8ZM17 15H7V16H17V15ZM17 9C17.2652 9 17.5196 9.10536 17.7071 9.29289C17.8946 9.48043 18 9.73478 18 10C18 10.2652 17.8946 10.5196 17.7071 10.7071C17.5196 10.8946 17.2652 11 17 11C16.7348 11 16.4804 10.8946 16.2929 10.7071C16.1054 10.5196 16 10.2652 16 10C16 9.73478 16.1054 9.48043 16.2929 9.29289C16.4804 9.10536 16.7348 9 17 9Z" fill="currentColor"/>
</svg>
