<svg width="24" height="24" viewBox="0 0 24 24" fill="none" xmlns="http://www.w3.org/2000/svg">
<path fill-rule="evenodd" clip-rule="evenodd" d="M18.0002 4C18.7959 4 19.5589 4.31607 20.1215 4.87868C20.6842 5.44129 21.0002 6.20435 21.0002 7V12C21.0002 12.7956 20.6842 13.5587 20.1215 14.1213C19.5589 14.6839 18.7959 15 18.0002 15H6.00023C5.20458 15 4.44152 14.6839 3.87891 14.1213C3.3163 13.5587 3.00023 12.7956 3.00023 12V7C3.00023 6.20435 3.3163 5.44129 3.87891 4.87868C4.44152 4.31607 5.20458 4 6.00023 4H18.0002ZM18.0002 6H6.00023C5.7553 6.00003 5.51889 6.08996 5.33586 6.25272C5.15282 6.41547 5.03589 6.63975 5.00723 6.883L5.00023 7V12C5.00026 12.2449 5.09019 12.4813 5.25294 12.6644C5.4157 12.8474 5.63998 12.9643 5.88323 12.993L6.00023 13V11C6.00026 10.7551 6.09019 10.5187 6.25294 10.3356C6.4157 10.1526 6.63998 10.0357 6.88323 10.007L7.00023 10H17.0002C17.2452 10 17.4816 10.09 17.6646 10.2527C17.8476 10.4155 17.9646 10.6397 17.9932 10.883L18.0002 11V13C18.2452 13 18.4816 12.91 18.6646 12.7473C18.8476 12.5845 18.9646 12.3603 18.9932 12.117L19.0002 12V7C19.0002 6.75507 18.9103 6.51866 18.7475 6.33563C18.5848 6.15259 18.3605 6.03566 18.1172 6.007L18.0002 6ZM16.0002 12H8.00023V13H16.0002V12ZM16.0002 7C16.2654 7 16.5198 7.10536 16.7073 7.29289C16.8949 7.48043 17.0002 7.73478 17.0002 8C17.0002 8.26522 16.8949 8.51957 16.7073 8.70711C16.5198 8.89464 16.2654 9 16.0002 9C15.735 9 15.4807 8.89464 15.2931 8.70711C15.1056 8.51957 15.0002 8.26522 15.0002 8C15.0002 7.73478 15.1056 7.48043 15.2931 7.29289C15.4807 7.10536 15.735 7 16.0002 7ZM10.0002 16C10.2654 16 10.5198 16.1054 10.7073 16.2929C10.8949 16.4804 11.0002 16.7348 11.0002 17V18.172C10.9998 18.9672 10.6836 19.7298 10.1212 20.292L9.70723 20.707C9.51863 20.8892 9.26603 20.99 9.00383 20.9877C8.74163 20.9854 8.49082 20.8802 8.30541 20.6948C8.12 20.5094 8.01483 20.2586 8.01256 19.9964C8.01028 19.7342 8.11107 19.4816 8.29323 19.293L8.70723 18.879C8.89478 18.6915 9.00017 18.4372 9.00023 18.172V17C9.00023 16.7348 9.10559 16.4804 9.29312 16.2929C9.48066 16.1054 9.73501 16 10.0002 16ZM13.0002 17C13.0002 16.7348 13.1056 16.4804 13.2931 16.2929C13.4807 16.1054 13.735 16 14.0002 16C14.2654 16 14.5198 16.1054 14.7073 16.2929C14.8949 16.4804 15.0002 16.7348 15.0002 17V18.172C15.0003 18.4372 15.1057 18.6915 15.2932 18.879L15.7072 19.293C15.8027 19.3852 15.8789 19.4956 15.9313 19.6176C15.9837 19.7396 16.0113 19.8708 16.0125 20.0036C16.0136 20.1364 15.9883 20.2681 15.9381 20.391C15.8878 20.5138 15.8135 20.6255 15.7196 20.7194C15.6257 20.8133 15.5141 20.8875 15.3912 20.9378C15.2683 20.9881 15.1366 21.0134 15.0038 21.0123C14.871 21.0111 14.7398 20.9835 14.6178 20.9311C14.4958 20.8787 14.3855 20.8025 14.2932 20.707L13.8792 20.293C13.3166 19.7305 13.0004 18.9676 13.0002 18.172V17ZM6.00023 16C6.26545 16 6.5198 16.1054 6.70734 16.2929C6.89487 16.4804 7.00023 16.7348 7.00023 17V17.613C7.00012 18.0328 6.86794 18.4418 6.62242 18.7823C6.3769 19.1228 6.03048 19.3774 5.63223 19.51L4.31623 19.949C4.06454 20.0328 3.78986 20.0132 3.55263 19.8945C3.3154 19.7758 3.13504 19.5677 3.05123 19.316C2.96742 19.0643 2.98703 18.7896 3.10574 18.5524C3.22445 18.3152 3.43254 18.1348 3.68423 18.051L5.00023 17.613V17C5.00023 16.7348 5.10559 16.4804 5.29312 16.2929C5.48066 16.1054 5.73501 16 6.00023 16ZM17.0002 17C17.0002 16.7348 17.1056 16.4804 17.2931 16.2929C17.4807 16.1054 17.735 16 18.0002 16C18.2654 16 18.5198 16.1054 18.7073 16.2929C18.8949 16.4804 19.0002 16.7348 19.0002 17V17.613L20.3162 18.051C20.5679 18.1348 20.776 18.3152 20.8947 18.5524C21.0134 18.7896 21.033 19.0643 20.9492 19.316C20.8654 19.5677 20.6851 19.7758 20.4478 19.8945C20.2106 20.0132 19.9359 20.0328 19.6842 19.949L18.3682 19.509C17.9703 19.3765 17.6241 19.1222 17.3786 18.7821C17.1331 18.4421 17.0008 18.0334 17.0002 17.614V17Z" fill="currentColor"/>
</svg>
