<svg width="24" height="24" viewBox="0 0 24 24" fill="none" xmlns="http://www.w3.org/2000/svg">
<path fill-rule="evenodd" clip-rule="evenodd" d="M13 19C13.2652 19 13.5196 19.1054 13.7071 19.2929C13.8946 19.4804 14 19.7348 14 20V21C14 21.2652 13.8946 21.5196 13.7071 21.7071C13.5196 21.8946 13.2652 22 13 22H11C10.7348 22 10.4804 21.8946 10.2929 21.7071C10.1054 21.5196 10 21.2652 10 21V20C10 19.7348 10.1054 19.4804 10.2929 19.2929C10.4804 19.1054 10.7348 19 11 19H13ZM12 2C14.1217 2 16.1566 2.84285 17.6569 4.34315C19.1571 5.84344 20 7.87827 20 10C20 12.856 18.569 15.106 16.926 16.612C16.1632 17.3141 15.3022 17.9013 14.37 18.355C13.552 18.747 12.71 19 12 19L11.759 18.99C11.103 18.942 10.357 18.703 9.63 18.355C8.69782 17.9013 7.83676 17.3141 7.074 16.612C5.431 15.106 4 12.856 4 10C4 7.87827 4.84285 5.84344 6.34315 4.34315C7.84344 2.84285 9.87827 2 12 2ZM12 4.82C11.337 6.01 10.5 8.008 10.5 10.5C10.5 12.992 11.337 14.99 12 16.181C12.663 14.991 13.5 12.992 13.5 10.501C13.5 8.008 12.663 6.01 12 4.819V4.82ZM9.988 4.346C8.82106 4.76167 7.81132 5.52824 7.09731 6.54053C6.3833 7.55282 6 8.76124 6 10C6 12.144 7.069 13.894 8.426 15.138C8.83209 15.5103 9.27162 15.8444 9.739 16.136C8.92911 14.3671 8.50667 12.4455 8.5 10.5C8.5 7.9 9.27 5.77 9.988 4.346ZM14.012 4.346C14.73 5.769 15.5 7.9 15.5 10.5C15.5 12.8 14.897 14.734 14.26 16.136C14.7278 15.8445 15.1677 15.5104 15.574 15.138C16.931 13.894 18 12.144 18 10C18 8.76124 17.6167 7.55282 16.9027 6.54053C16.1887 5.52824 15.1789 4.76167 14.012 4.346Z" fill="currentColor"/>
</svg>
