<svg width="24" height="24" viewBox="0 0 24 24" fill="none" xmlns="http://www.w3.org/2000/svg">
<path fill-rule="evenodd" clip-rule="evenodd" d="M11.9996 2.065C12.9916 2.065 13.8986 2.508 14.6776 3.228C16.1376 4.577 17.4496 6.925 18.5206 9.271C19.6096 11.656 20.5146 14.185 21.1206 16.02C21.7926 18.053 20.9136 20.218 19.1166 21.296C18.1855 21.8571 17.0868 22.0729 16.0126 21.9058C14.9385 21.7388 13.9573 21.1994 13.2406 20.382C12.8258 19.9073 12.4122 19.4316 11.9996 18.955C11.5756 19.445 11.1516 19.932 10.7576 20.382C10.041 21.1991 9.05993 21.7383 7.986 21.9054C6.91207 22.0725 5.81359 21.8568 4.88259 21.296C3.08559 20.218 2.20659 18.053 2.87859 16.02C3.48459 14.185 4.38959 11.656 5.47859 9.271C6.54959 6.925 7.85959 4.577 9.31959 3.228C10.0996 2.508 11.0066 2.065 11.9986 2.065H11.9996ZM13.3156 17.419C13.9456 16.674 14.4856 16.018 14.7996 15.599C15.7396 14.346 15.9806 12.749 15.5136 11.419C15.0276 10.035 13.7866 8.999 11.9996 8.999C10.2126 8.999 8.97159 10.035 8.48559 11.419C8.01859 12.749 8.25859 14.346 9.19959 15.599C9.51259 16.018 10.0526 16.674 10.6836 17.419C10.2036 17.975 9.71159 18.539 9.25359 19.065C8.84566 19.5295 8.28732 19.8358 7.67633 19.9301C7.06534 20.0244 6.44064 19.9009 5.91159 19.581C4.87759 18.961 4.41359 17.749 4.77759 16.647C5.37259 14.847 6.25159 12.393 7.29759 10.102C8.36059 7.772 9.53559 5.752 10.6776 4.697C11.1936 4.221 11.6386 4.065 11.9996 4.065C12.3596 4.065 12.8046 4.221 13.3216 4.697C14.4636 5.752 15.6376 7.773 16.7016 10.102C17.7476 12.393 18.6266 14.847 19.2216 16.647C19.5856 17.749 19.1216 18.96 18.0876 19.581C17.5586 19.9006 16.9342 20.024 16.3234 19.9297C15.7126 19.8354 15.1545 19.5293 14.7466 19.065C14.2866 18.54 13.7956 17.975 13.3156 17.419ZM11.9996 15.877C11.5877 15.3945 11.1876 14.902 10.7996 14.4C10.2396 13.654 10.1366 12.751 10.3726 12.082C10.5896 11.464 11.0986 11 11.9996 11C12.8996 11 13.4096 11.464 13.6266 12.082C13.8616 12.752 13.7586 13.654 13.1996 14.4C12.8118 14.9022 12.4117 15.3946 11.9996 15.877Z" fill="currentColor"/>
</svg>
