<svg width="24" height="24" viewBox="0 0 24 24" fill="none" xmlns="http://www.w3.org/2000/svg">
<path fill-rule="evenodd" clip-rule="evenodd" d="M12 4C10.1972 3.99922 8.44707 4.60736 7.03322 5.72581C5.61936 6.84427 4.62472 8.40748 4.21054 10.162C3.79636 11.9165 3.98693 13.7595 4.75134 15.3922C5.51576 17.0249 6.80921 18.3515 8.422 19.157C8.65924 19.2758 8.83956 19.484 8.92329 19.7358C9.00703 19.9875 8.98732 20.2623 8.8685 20.4995C8.74968 20.7367 8.54149 20.9171 8.28972 21.0008C8.03796 21.0845 7.76324 21.0648 7.526 20.946C5.86503 20.1151 4.46827 18.838 3.49225 17.258C2.51622 15.6779 1.99951 13.8572 2 12C2 6.477 6.477 2 12 2C17.523 2 22 6.477 22 12C22.0005 13.8572 21.4838 15.6779 20.5078 17.258C19.5317 18.838 18.135 20.1151 16.474 20.946C16.3565 21.0048 16.2286 21.04 16.0976 21.0494C15.9665 21.0588 15.8349 21.0423 15.7103 21.0008C15.5856 20.9593 15.4703 20.8937 15.371 20.8077C15.2717 20.7217 15.1903 20.617 15.1315 20.4995C15.0727 20.382 15.0375 20.2541 15.0281 20.1231C15.0187 19.992 15.0352 19.8604 15.0767 19.7358C15.1182 19.6111 15.1838 19.4958 15.2698 19.3965C15.3558 19.2972 15.4605 19.2158 15.578 19.157C17.1908 18.3515 18.4842 17.0249 19.2487 15.3922C20.0131 13.7595 20.2036 11.9165 19.7895 10.162C19.3753 8.40748 18.3806 6.84427 16.9668 5.72581C15.5529 4.60736 13.8028 3.99922 12 4ZM12 8C11.0984 7.99938 10.2231 8.30336 9.51598 8.86261C8.80884 9.42187 8.31137 10.2036 8.10425 11.0811C7.89714 11.9585 7.99251 12.8802 8.37492 13.6966C8.75732 14.5131 9.40433 15.1764 10.211 15.579C10.442 15.7012 10.6159 15.909 10.6957 16.1578C10.7754 16.4067 10.7545 16.6769 10.6376 16.9105C10.5206 17.1442 10.3168 17.3228 10.0698 17.4081C9.82283 17.4934 9.55225 17.4787 9.316 17.367C8.10732 16.7623 7.13819 15.7673 6.5656 14.5431C5.99301 13.3188 5.8505 11.9372 6.16116 10.6219C6.47182 9.30655 7.21745 8.13465 8.27727 7.29599C9.33708 6.45733 10.649 6.00105 12.0005 6.00105C13.352 6.00105 14.6639 6.45733 15.7237 7.29599C16.7835 8.13465 17.5292 9.30655 17.8398 10.6219C18.1505 11.9372 18.008 13.3188 17.4354 14.5431C16.8628 15.7673 15.8937 16.7623 14.685 17.367C14.4482 17.4834 14.175 17.5015 13.9249 17.4173C13.6748 17.3331 13.4681 17.1535 13.3499 16.9175C13.2317 16.6816 13.2115 16.4086 13.2937 16.1578C13.376 15.9071 13.554 15.699 13.789 15.579C14.5957 15.1764 15.2427 14.5131 15.6251 13.6966C16.0075 12.8802 16.1029 11.9585 15.8957 11.0811C15.6886 10.2036 15.1912 9.42187 14.484 8.86261C13.7769 8.30336 12.9016 7.99938 12 8ZM10 12C10 11.4696 10.2107 10.9609 10.5858 10.5858C10.9609 10.2107 11.4696 10 12 10C12.5304 10 13.0391 10.2107 13.4142 10.5858C13.7893 10.9609 14 11.4696 14 12C14 12.5304 13.7893 13.0391 13.4142 13.4142C13.0391 13.7893 12.5304 14 12 14C11.4696 14 10.9609 13.7893 10.5858 13.4142C10.2107 13.0391 10 12.5304 10 12Z" fill="currentColor"/>
</svg>
