<svg width="24" height="24" viewBox="0 0 24 24" fill="none" xmlns="http://www.w3.org/2000/svg">
<path fill-rule="evenodd" clip-rule="evenodd" d="M19.7107 2.837C20.4437 2.984 21.0167 3.557 21.1637 4.29C21.2686 4.81521 21.2536 5.35733 21.1198 5.87592C20.9859 6.39452 20.7367 6.87619 20.3907 7.285L17.6397 10.537L19.5837 17.668C19.6417 17.8806 19.6425 18.1048 19.586 18.3178C19.5294 18.5309 19.4175 18.7252 19.2617 18.881L17.9597 20.183C17.8491 20.2935 17.7144 20.3769 17.5662 20.4265C17.4179 20.4761 17.2602 20.4906 17.1054 20.4689C16.9506 20.4472 16.8029 20.3898 16.674 20.3013C16.5452 20.2129 16.4386 20.0957 16.3627 19.959L13.4207 14.663L10.5627 17.044L10.7727 18.097C10.8133 18.2989 10.8035 18.5077 10.744 18.7048C10.6845 18.9019 10.5772 19.0813 10.4317 19.227L8.76769 20.89C8.65449 21.003 8.51606 21.0876 8.3638 21.1366C8.21154 21.1857 8.0498 21.1979 7.89191 21.1722C7.73401 21.1465 7.58448 21.0837 7.45561 20.9889C7.32675 20.8941 7.22224 20.7701 7.15069 20.627L5.89069 18.11L3.37469 16.85C3.23161 16.7785 3.10758 16.6739 3.01279 16.5451C2.91801 16.4162 2.85519 16.2667 2.82951 16.1088C2.80383 15.9509 2.81602 15.7892 2.86508 15.6369C2.91414 15.4846 2.99866 15.3462 3.11169 15.233L4.77569 13.569C4.92128 13.4236 5.1005 13.3165 5.29745 13.257C5.49439 13.1975 5.70298 13.1875 5.90469 13.228L6.95769 13.438L9.33869 10.581L4.04269 7.638C3.90603 7.56211 3.78884 7.45553 3.70037 7.32665C3.61189 7.19777 3.55454 7.05012 3.53283 6.89531C3.51111 6.7405 3.52563 6.58276 3.57524 6.43452C3.62484 6.28627 3.70818 6.15157 3.81869 6.041L5.12069 4.739C5.27654 4.58315 5.47083 4.47129 5.68385 4.41474C5.89688 4.35819 6.12107 4.35897 6.33369 4.417L13.4637 6.361L16.7167 3.61C17.1255 3.26399 17.6072 3.01476 18.1258 2.88091C18.6444 2.74706 19.1865 2.73205 19.7117 2.837H19.7107ZM19.2187 4.782C19.0033 4.75324 18.7843 4.76988 18.5757 4.83084C18.3672 4.89181 18.1737 4.99576 18.0077 5.136L14.3577 8.225C14.2326 8.33074 14.0837 8.40447 13.9238 8.43983C13.7638 8.47519 13.5977 8.47114 13.4397 8.428L6.22669 6.46L6.15969 6.526L11.3547 9.412C11.4846 9.48419 11.5971 9.58418 11.6839 9.70483C11.7708 9.82548 11.8299 9.96381 11.8571 10.11C11.8844 10.2561 11.879 10.4064 11.8414 10.5503C11.8038 10.6941 11.7349 10.8279 11.6397 10.942L8.11569 15.17C7.99933 15.3097 7.84743 15.4154 7.676 15.4759C7.50457 15.5365 7.31997 15.5496 7.14169 15.514L5.90469 15.267L5.49669 15.675L7.05369 16.454C7.26661 16.5604 7.43925 16.7331 7.54569 16.946L8.32569 18.503L8.73269 18.095L8.48569 16.858C8.45006 16.6797 8.46321 16.4951 8.52376 16.3237C8.5843 16.1523 8.69 16.0004 8.82969 15.884L13.0587 12.36C13.1728 12.2648 13.3066 12.1959 13.4504 12.1583C13.5942 12.1207 13.7446 12.1153 13.8907 12.1426C14.0369 12.1698 14.1752 12.2289 14.2959 12.3158C14.4165 12.4026 14.5165 12.5151 14.5887 12.645L17.4737 17.84L17.5397 17.773L15.5727 10.56C15.5297 10.4019 15.5258 10.2357 15.5613 10.0758C15.5969 9.91588 15.6708 9.767 15.7767 9.642L18.8647 5.992C19.1497 5.655 19.2767 5.216 19.2187 4.782Z" fill="currentColor"/>
</svg>
