<svg width="24" height="24" viewBox="0 0 24 24" fill="none" xmlns="http://www.w3.org/2000/svg">
<path fill-rule="evenodd" clip-rule="evenodd" d="M6.50004 4C5.34856 3.99799 4.24011 4.43748 3.40285 5.228C2.56559 6.01852 2.06323 7.09992 1.99916 8.24963C1.9351 9.39933 2.31421 10.5299 3.05845 11.4085C3.8027 12.2872 4.85546 12.8471 6.00004 12.973V17.5C6.00004 18.163 6.26344 18.7989 6.73228 19.2678C7.20112 19.7366 7.837 20 8.50004 20C9.16309 20 9.79897 19.7366 10.2678 19.2678C10.7367 18.7989 11 18.163 11 17.5V8.5C11 7.30652 10.5259 6.16193 9.68202 5.31802C8.83811 4.47411 7.69352 4 6.50004 4ZM4.00005 8.5C4.00005 7.83696 4.26344 7.20107 4.73228 6.73223C5.20112 6.26339 5.837 6 6.50004 6C7.16309 6 7.79897 6.26339 8.26781 6.73223C8.73665 7.20107 9.00004 7.83696 9.00004 8.5V17.5C9.00004 17.6326 8.94737 17.7598 8.8536 17.8536C8.75983 17.9473 8.63265 18 8.50004 18C8.36744 18 8.24026 17.9473 8.14649 17.8536C8.05272 17.7598 8.00004 17.6326 8.00004 17.5V11.965C8.00006 11.8217 7.96927 11.68 7.90975 11.5496C7.85023 11.4192 7.76338 11.3032 7.65508 11.2093C7.54677 11.1154 7.41955 11.0459 7.28204 11.0054C7.14452 10.965 6.99992 10.9546 6.85804 10.975C6.50312 11.0264 6.1413 11.0007 5.79714 10.8999C5.45298 10.7991 5.13455 10.6254 4.86345 10.3906C4.59235 10.1559 4.37493 9.8655 4.22596 9.53929C4.07698 9.21307 3.99994 8.85862 4.00005 8.5ZM17.5 4C16.3066 4 15.162 4.47411 14.3181 5.31802C13.4742 6.16193 13 7.30652 13 8.5V17.5C13 18.163 13.2634 18.7989 13.7323 19.2678C14.2011 19.7366 14.837 20 15.5 20C16.1631 20 16.799 19.7366 17.2678 19.2678C17.7367 18.7989 18 18.163 18 17.5V12.973C19.1446 12.8471 20.1974 12.2872 20.9416 11.4085C21.6859 10.5299 22.065 9.39933 22.0009 8.24963C21.9369 7.09992 21.4345 6.01852 20.5972 5.228C19.76 4.43748 18.6515 3.99799 17.5 4ZM15 8.5C15.0002 7.99027 15.1562 7.49277 15.447 7.07418C15.7379 6.65559 16.1498 6.33591 16.6274 6.15799C17.1051 5.98008 17.6258 5.95243 18.1196 6.07875C18.6134 6.20507 19.0568 6.47932 19.3904 6.86475C19.724 7.25017 19.9318 7.72836 19.9859 8.2352C20.04 8.74205 19.938 9.25333 19.6933 9.70053C19.4487 10.1477 19.0733 10.5095 18.6173 10.7372C18.1613 10.965 17.6465 11.048 17.142 10.975C17.0002 10.9546 16.8556 10.965 16.7181 11.0054C16.5805 11.0459 16.4533 11.1154 16.345 11.2093C16.2367 11.3032 16.1499 11.4192 16.0903 11.5496C16.0308 11.68 16 11.8217 16 11.965V17.5C16 17.6326 15.9474 17.7598 15.8536 17.8536C15.7598 17.9473 15.6327 18 15.5 18C15.3674 18 15.2403 17.9473 15.1465 17.8536C15.0527 17.7598 15 17.6326 15 17.5V8.5Z" fill="currentColor"/>
</svg>
