<svg width="24" height="24" viewBox="0 0 24 24" fill="none" xmlns="http://www.w3.org/2000/svg">
<path d="M11.9998 4C13.1817 4 14.352 4.23279 15.4439 4.68508C16.5359 5.13737 17.528 5.80031 18.3637 6.63604C19.1995 7.47176 19.8624 8.46392 20.3147 9.55585C20.767 10.6478 20.9998 11.8181 20.9998 13C20.9998 14.1819 20.767 15.3522 20.3147 16.4441C19.8624 17.5361 19.1995 18.5282 18.3637 19.364C17.528 20.1997 16.5359 20.8626 15.4439 21.3149C14.352 21.7672 13.1817 22 11.9998 22C9.61283 22 7.32364 21.0518 5.63582 19.364C3.94799 17.6761 2.99978 15.3869 2.99978 13C2.99978 10.613 3.94799 8.32386 5.63582 6.63604C7.32364 4.94821 9.61283 4 11.9998 4ZM11.9998 6C11.0805 6 10.1703 6.18106 9.32099 6.53284C8.47171 6.88462 7.70004 7.40024 7.05003 8.05025C6.40002 8.70026 5.8844 9.47193 5.53262 10.3212C5.18084 11.1705 4.99978 12.0807 4.99978 13C4.99978 13.9193 5.18084 14.8295 5.53262 15.6788C5.8844 16.5281 6.40002 17.2997 7.05003 17.9497C7.70004 18.5998 8.47171 19.1154 9.32099 19.4672C10.1703 19.8189 11.0805 20 11.9998 20C13.8563 20 15.6368 19.2625 16.9495 17.9497C18.2623 16.637 18.9998 14.8565 18.9998 13C18.9998 11.1435 18.2623 9.363 16.9495 8.05025C15.6368 6.7375 13.8563 6 11.9998 6ZM11.9998 8C12.2447 8.00003 12.4811 8.08995 12.6641 8.25271C12.8472 8.41547 12.9641 8.63975 12.9928 8.883L12.9998 9V12.586L14.8128 14.398C14.994 14.5775 15.0998 14.8196 15.1085 15.0745C15.1171 15.3295 15.028 15.5782 14.8593 15.7696C14.6906 15.961 14.4552 16.0807 14.2012 16.1042C13.9471 16.1277 13.6937 16.0532 13.4928 15.896L13.3978 15.812L11.2928 13.707C11.1336 13.5482 11.0328 13.3403 11.0068 13.117L10.9998 12.987V9C10.9998 8.73478 11.1051 8.48043 11.2927 8.29289C11.4802 8.10535 11.7346 8 11.9998 8ZM16.6338 2.97C16.6996 2.85631 16.7872 2.75671 16.8915 2.67688C16.9959 2.59705 17.1149 2.53857 17.2419 2.50476C17.3688 2.47096 17.5012 2.4625 17.6314 2.47987C17.7616 2.49724 17.8871 2.5401 18.0008 2.606C19.2483 3.32829 20.3562 4.26852 21.2718 5.382C21.4314 5.58764 21.5046 5.84744 21.4757 6.10618C21.4469 6.36492 21.3182 6.6022 21.1172 6.76758C20.9161 6.93297 20.6585 7.01342 20.399 6.99183C20.1396 6.97025 19.8988 6.84833 19.7278 6.652C18.9639 5.72333 18.0396 4.93924 16.9988 4.337C16.7693 4.20422 16.6019 3.98573 16.5335 3.72957C16.465 3.47341 16.5011 3.19955 16.6338 2.97ZM5.99978 2.607C6.11344 2.5412 6.23894 2.49844 6.36913 2.48115C6.49931 2.46387 6.63163 2.47239 6.75852 2.50624C6.88541 2.54008 7.00439 2.59859 7.10867 2.67842C7.21295 2.75825 7.30048 2.85784 7.36628 2.9715C7.43207 3.08516 7.47483 3.21066 7.49212 3.34085C7.50941 3.47103 7.50088 3.60335 7.46704 3.73024C7.43319 3.85713 7.37468 3.97611 7.29485 4.08039C7.21502 4.18467 7.11544 4.2722 7.00178 4.338C5.96089 4.94054 5.03658 5.72497 4.27278 6.654C4.19079 6.75959 4.08846 6.84768 3.97184 6.91304C3.85522 6.97841 3.72667 7.01972 3.59381 7.03455C3.46095 7.04938 3.32646 7.03741 3.1983 6.99936C3.07014 6.96131 2.95091 6.89795 2.84766 6.81302C2.74441 6.7281 2.65924 6.62333 2.59718 6.50492C2.53512 6.38651 2.49744 6.25685 2.48635 6.12362C2.47527 5.99039 2.49101 5.8563 2.53265 5.72926C2.57429 5.60222 2.64098 5.48482 2.72878 5.384C3.64424 4.27014 4.75213 3.32957 5.99978 2.607Z" fill="currentColor"/>
</svg>
