<svg width="24" height="24" viewBox="0 0 24 24" fill="none" xmlns="http://www.w3.org/2000/svg">
<path fill-rule="evenodd" clip-rule="evenodd" d="M5.99991 3C5.73469 3 5.48034 3.10536 5.2928 3.29289C5.10527 3.48043 4.99991 3.73478 4.99991 4C4.99991 4.26522 5.10527 4.51957 5.2928 4.70711C5.48034 4.89464 5.73469 5 5.99991 5H17.9999C18.2651 5 18.5195 4.89464 18.707 4.70711C18.8946 4.51957 18.9999 4.26522 18.9999 4C18.9999 3.73478 18.8946 3.48043 18.707 3.29289C18.5195 3.10536 18.2651 3 17.9999 3H5.99991ZM4.17991 6C3.88949 6.00011 3.60258 6.06347 3.33912 6.18567C3.07566 6.30787 2.84198 6.48598 2.65431 6.70762C2.46665 6.92926 2.3295 7.18911 2.25241 7.46911C2.17532 7.74911 2.16014 8.04254 2.20791 8.329L3.87391 18.329C3.95179 18.796 4.19281 19.2202 4.55409 19.5262C4.91536 19.8322 5.37347 20.0001 5.84691 20H18.1529C18.6263 20.0001 19.0845 19.8322 19.4457 19.5262C19.807 19.2202 20.048 18.796 20.1259 18.329L21.7919 8.329C21.8397 8.04254 21.8245 7.74911 21.7474 7.46911C21.6703 7.18911 21.5332 6.92926 21.3455 6.70762C21.1578 6.48598 20.9242 6.30787 20.6607 6.18567C20.3972 6.06347 20.1103 6.00011 19.8199 6H4.17991ZM4.17991 8H19.8199L18.1529 18H5.84691L4.17991 8Z" fill="currentColor"/>
</svg>
