<svg width="24" height="24" viewBox="0 0 24 24" fill="none" xmlns="http://www.w3.org/2000/svg">
<path d="M8.70301 16.95C8.79598 16.8571 8.86974 16.7468 8.92007 16.6254C8.97039 16.504 8.99629 16.3739 8.99629 16.2425C8.99629 16.1111 8.97039 15.981 8.92007 15.8596C8.86974 15.7382 8.79598 15.6279 8.70301 15.535L6.16701 13H15C15.2652 13 15.5196 12.8946 15.7071 12.7071C15.8946 12.5196 16 12.2652 16 12C16 11.7348 15.8946 11.4804 15.7071 11.2929C15.5196 11.1054 15.2652 11 15 11H6.16701L8.70301 8.464C8.89051 8.27636 8.9958 8.02192 8.99571 7.75665C8.99561 7.49138 8.89015 7.23701 8.70251 7.0495C8.51487 6.86199 8.26042 6.7567 7.99515 6.7568C7.72988 6.75689 7.47551 6.86236 7.28801 7.05L3.04601 11.293C2.85853 11.4805 2.75322 11.7348 2.75322 12C2.75322 12.2652 2.85853 12.5195 3.04601 12.707L7.28801 16.95C7.38088 17.043 7.49117 17.1167 7.61257 17.1671C7.73396 17.2174 7.86409 17.2433 7.99551 17.2433C8.12692 17.2433 8.25705 17.2174 8.37845 17.1671C8.49984 17.1167 8.61013 17.043 8.70301 16.95ZM21 6C21 5.73478 20.8946 5.48043 20.7071 5.29289C20.5196 5.10536 20.2652 5 20 5C19.7348 5 19.4804 5.10536 19.2929 5.29289C19.1054 5.48043 19 5.73478 19 6V18C19 18.2652 19.1054 18.5196 19.2929 18.7071C19.4804 18.8946 19.7348 19 20 19C20.2652 19 20.5196 18.8946 20.7071 18.7071C20.8946 18.5196 21 18.2652 21 18V6Z" fill="currentColor"/>
</svg>
