<svg width="24" height="24" viewBox="0 0 24 24" fill="none" xmlns="http://www.w3.org/2000/svg">
<path d="M12 2C12.797 2 13.625 2.382 14.351 2.886C15.104 3.408 15.865 4.143 16.543 5.027C17.897 6.791 19 9.25 19 12C19 14.75 17.897 17.209 16.543 18.973C15.865 19.857 15.104 20.592 14.351 21.114C13.625 21.618 12.797 22 12 22C11.203 22 10.375 21.618 9.649 21.114C8.896 20.592 8.135 19.857 7.457 18.973C6.103 17.209 5 14.75 5 12C5 9.25 6.103 6.791 7.457 5.027C8.135 4.143 8.896 3.408 9.649 2.886C10.375 2.382 11.203 2 12 2ZM12 19C11.498 19 11.025 19.123 10.609 19.341L10.789 19.471C11.375 19.878 11.797 20 12 20C12.203 20 12.625 19.878 13.211 19.471L13.391 19.341C12.9618 19.1162 12.4845 18.9992 12 19ZM14.85 6.109C14.0135 6.69053 13.0188 7.00151 12 7C11.0648 7.00134 10.1482 6.73935 9.355 6.244L9.15 6.11L9.043 6.246C7.897 7.738 7 9.78 7 12C7 14.103 7.805 16.046 8.864 17.515L9.044 17.755L9.15 17.892C9.98638 17.3101 10.9811 16.9988 12 17C12.97 17 13.878 17.277 14.644 17.756L14.85 17.892L14.957 17.755C16.103 16.262 17 14.22 17 12C17 9.897 16.195 7.954 15.136 6.485L14.956 6.245L14.85 6.109ZM12 8C12.2652 8 12.5196 8.10536 12.7071 8.29289C12.8946 8.48043 13 8.73478 13 9C13.2549 9.00028 13.5 9.09788 13.6854 9.27285C13.8707 9.44782 13.9822 9.68695 13.9972 9.94139C14.0121 10.1958 13.9293 10.4464 13.7657 10.6418C13.6021 10.8373 13.3701 10.9629 13.117 10.993L13 11V13C13.2652 13 13.5196 13.1054 13.7071 13.2929C13.8946 13.4804 14 13.7348 14 14C14 14.2652 13.8946 14.5196 13.7071 14.7071C13.5196 14.8946 13.2652 15 13 15C13 15.2652 12.8946 15.5196 12.7071 15.7071C12.5196 15.8946 12.2652 16 12 16C11.7348 16 11.4804 15.8946 11.2929 15.7071C11.1054 15.5196 11 15.2652 11 15C10.7451 14.9997 10.5 14.9021 10.3146 14.7272C10.1293 14.5522 10.0178 14.313 10.0028 14.0586C9.98789 13.8042 10.0707 13.5536 10.2343 13.3582C10.3979 13.1627 10.6299 13.0371 10.883 13.007L11 13V11C10.7348 11 10.4804 10.8946 10.2929 10.7071C10.1054 10.5196 10 10.2652 10 10C10 9.73478 10.1054 9.48043 10.2929 9.29289C10.4804 9.10536 10.7348 9 11 9C11 8.73478 11.1054 8.48043 11.2929 8.29289C11.4804 8.10536 11.7348 8 12 8ZM12 4C11.797 4 11.375 4.122 10.789 4.529L10.609 4.659C11.025 4.877 11.498 5 12 5C12.502 5 12.975 4.877 13.391 4.66L13.211 4.529C12.625 4.122 12.203 4 12 4Z" fill="currentColor"/>
</svg>
