<svg width="24" height="24" viewBox="0 0 24 24" fill="none" xmlns="http://www.w3.org/2000/svg">
<path fill-rule="evenodd" clip-rule="evenodd" d="M12.215 4.62999C12.0555 4.4704 11.866 4.34381 11.6576 4.25744C11.4491 4.17107 11.2257 4.12661 11 4.12661C10.7743 4.12661 10.5509 4.17107 10.3424 4.25744C10.134 4.34381 9.94454 4.4704 9.785 4.62999L9.63 4.78399C9.28514 5.12918 9.08326 5.59181 9.06472 6.0794C9.04619 6.56699 9.21235 7.04361 9.53 7.41399L10.493 8.53799L12.117 7.14999C12.877 6.49899 12.923 5.33699 12.215 4.62999ZM11.795 10.057L13.416 8.66999C13.7965 8.34482 14.1075 7.94616 14.3302 7.49791C14.5529 7.04967 14.6828 6.56106 14.7122 6.06139C14.7415 5.56172 14.6696 5.06128 14.5009 4.59005C14.3322 4.11882 14.07 3.68651 13.7302 3.31905C13.3903 2.95158 12.9798 2.65651 12.5231 2.45154C12.0665 2.24657 11.5732 2.13591 11.0727 2.12619C10.5723 2.11647 10.075 2.2079 9.6108 2.39499C9.14655 2.58209 8.72486 2.86099 8.371 3.21499L8.216 3.36999C7.51469 4.0714 7.10397 5.01168 7.06596 6.00282C7.02795 6.99397 7.36546 7.96294 8.011 8.71599L8.933 9.79199C8.48023 10.1743 8.04543 10.5774 7.63 11C7.012 11.631 6.369 12.388 5.875 13.214C5.384 14.032 5 14.988 5 16C5 19.616 8.014 22 11 22C12.406 22 14.03 21.711 15.633 20.399C16.1021 20.0112 16.5319 19.5781 16.916 19.106L18.241 20.651C18.4146 20.849 18.6593 20.9705 18.922 20.9892C19.1846 21.0079 19.4441 20.9222 19.644 20.7508C19.8438 20.5793 19.968 20.336 19.9896 20.0735C20.0111 19.8111 19.9283 19.5507 19.759 19.349L18.093 17.406C18.742 16.307 19.36 14.966 19.942 13.336C19.9861 13.2123 20.0055 13.0811 19.9989 12.9499C19.9923 12.8188 19.96 12.6902 19.9037 12.5715C19.8474 12.4528 19.7683 12.3464 19.6709 12.2583C19.5735 12.1702 19.4597 12.1021 19.336 12.058C19.2123 12.0139 19.0811 11.9945 18.9499 12.0011C18.8188 12.0077 18.6902 12.04 18.5715 12.0963C18.4528 12.1526 18.3464 12.2317 18.2583 12.3291C18.1702 12.4265 18.1021 12.5403 18.058 12.664C17.615 13.905 17.162 14.934 16.708 15.789L11.794 10.057H11.795ZM15.59 17.559L10.235 11.31C9.8259 11.6548 9.43314 12.0185 9.058 12.4C8.504 12.965 7.976 13.596 7.591 14.24C7.2 14.892 7 15.487 7 16C7 18.384 8.986 20 11 20C12.094 20 13.22 19.789 14.367 18.851C14.8237 18.4696 15.2342 18.0359 15.59 17.559Z" fill="currentColor"/>
</svg>
