<svg width="24" height="24" viewBox="0 0 24 24" fill="none" xmlns="http://www.w3.org/2000/svg">
<path d="M18.447 4.106C18.684 4.22465 18.8642 4.43254 18.948 4.68399C19.0319 4.93544 19.0124 5.20988 18.894 5.447L17.72 7.797C19.042 8.7178 20.1218 9.94471 20.867 11.3731C21.6123 12.8014 22.001 14.3889 22 16V17C22 17.5304 21.7893 18.0391 21.4142 18.4142C21.0391 18.7893 20.5304 19 20 19H4C3.46957 19 2.96086 18.7893 2.58579 18.4142C2.21072 18.0391 2 17.5304 2 17V16C1.99876 14.3887 2.38736 12.801 3.13264 11.3725C3.87792 9.94389 4.95776 8.71683 6.28 7.796L5.106 5.447C4.99703 5.21109 4.98416 4.94202 5.07014 4.69679C5.15612 4.45156 5.33418 4.24943 5.56661 4.13321C5.79904 4.017 6.06758 3.99583 6.31535 4.07419C6.56312 4.15254 6.77066 4.32427 6.894 4.553L8.028 6.82C9.28181 6.27733 10.6338 5.99822 12 6C13.411 6 14.755 6.292 15.972 6.82L17.106 4.553C17.2247 4.31599 17.4325 4.13577 17.684 4.05196C17.9354 3.96814 18.2099 3.98758 18.447 4.106ZM12 8C9.87827 8 7.84344 8.84286 6.34315 10.3431C4.84286 11.8434 4 13.8783 4 16V17H20V16C20 13.8783 19.1571 11.8434 17.6569 10.3431C16.1566 8.84286 14.1217 8 12 8ZM8.5 12C8.89783 12 9.27936 12.158 9.56066 12.4393C9.84197 12.7206 10 13.1022 10 13.5C10 13.8978 9.84197 14.2794 9.56066 14.5607C9.27936 14.842 8.89783 15 8.5 15C8.10218 15 7.72065 14.842 7.43934 14.5607C7.15804 14.2794 7 13.8978 7 13.5C7 13.1022 7.15804 12.7206 7.43934 12.4393C7.72065 12.158 8.10218 12 8.5 12ZM15.5 12C15.8978 12 16.2794 12.158 16.5607 12.4393C16.842 12.7206 17 13.1022 17 13.5C17 13.8978 16.842 14.2794 16.5607 14.5607C16.2794 14.842 15.8978 15 15.5 15C15.1022 15 14.7206 14.842 14.4393 14.5607C14.158 14.2794 14 13.8978 14 13.5C14 13.1022 14.158 12.7206 14.4393 12.4393C14.7206 12.158 15.1022 12 15.5 12Z" fill="currentColor"/>
</svg>
