<svg width="24" height="24" viewBox="0 0 24 24" fill="none" xmlns="http://www.w3.org/2000/svg">
<path d="M12 3C13.33 3 14.584 3.324 15.687 3.899L16.293 3.293C16.3853 3.19749 16.4956 3.12131 16.6176 3.0689C16.7396 3.01649 16.8708 2.9889 17.0036 2.98775C17.1364 2.9866 17.2681 3.0119 17.391 3.06218C17.5139 3.11246 17.6255 3.18671 17.7194 3.28061C17.8133 3.3745 17.8875 3.48615 17.9378 3.60905C17.9881 3.73194 18.0134 3.86362 18.0123 3.9964C18.0111 4.12918 17.9835 4.2604 17.9311 4.38241C17.8787 4.50441 17.8025 4.61475 17.707 4.707L17.357 5.057C18.1901 5.80649 18.8561 6.72305 19.3115 7.74701C19.7668 8.77096 20.0015 9.87935 20 11V19C20 19.7957 19.6839 20.5587 19.1213 21.1213C18.5587 21.6839 17.7957 22 17 22H7C6.20436 22 5.44129 21.6839 4.87868 21.1213C4.31608 20.5587 4 19.7957 4 19V11C3.99882 9.87945 4.23365 8.7712 4.6892 7.74742C5.14475 6.72365 5.81081 5.80728 6.644 5.058L6.293 4.708C6.10536 4.52049 5.9999 4.26612 5.9998 4.00085C5.99971 3.73558 6.105 3.48114 6.2925 3.2935C6.48001 3.10586 6.73438 3.00039 6.99965 3.0003C7.26492 3.0002 7.51936 3.10549 7.707 3.293L8.313 3.899C9.45163 3.30669 10.7165 2.99827 12 3ZM18 14H6V19C6 19.2652 6.10536 19.5196 6.2929 19.7071C6.48043 19.8946 6.73479 20 7 20H17C17.2652 20 17.5196 19.8946 17.7071 19.7071C17.8946 19.5196 18 19.2652 18 19V14ZM12 5C10.4476 4.99994 8.95564 5.60157 7.83753 6.67847C6.71942 7.75537 6.06222 9.22371 6.004 10.775L6 11V12H18V11C18 9.4087 17.3679 7.88258 16.2426 6.75736C15.1174 5.63214 13.5913 5 12 5ZM9 8C9.26522 8 9.51957 8.10536 9.70711 8.29289C9.89465 8.48043 10 8.73478 10 9C10 9.26522 9.89465 9.51957 9.70711 9.70711C9.51957 9.89464 9.26522 10 9 10C8.73479 10 8.48043 9.89464 8.2929 9.70711C8.10536 9.51957 8 9.26522 8 9C8 8.73478 8.10536 8.48043 8.2929 8.29289C8.48043 8.10536 8.73479 8 9 8ZM15 8C15.2652 8 15.5196 8.10536 15.7071 8.29289C15.8946 8.48043 16 8.73478 16 9C16 9.26522 15.8946 9.51957 15.7071 9.70711C15.5196 9.89464 15.2652 10 15 10C14.7348 10 14.4804 9.89464 14.2929 9.70711C14.1054 9.51957 14 9.26522 14 9C14 8.73478 14.1054 8.48043 14.2929 8.29289C14.4804 8.10536 14.7348 8 15 8Z" fill="currentColor"/>
</svg>
