<svg width="24" height="24" viewBox="0 0 24 24" fill="none" xmlns="http://www.w3.org/2000/svg">
<path fill-rule="evenodd" clip-rule="evenodd" d="M21.43 8.667C21.8081 9.73751 22.0009 10.8647 22 12C22 17.523 17.523 22 12 22C6.477 22 2 17.523 2 12C2 10.833 2.2 9.71 2.57 8.667C2.61095 8.53971 2.67701 8.42194 2.76427 8.32063C2.85153 8.21932 2.95823 8.13654 3.07804 8.07718C3.19785 8.01783 3.32835 7.9831 3.46182 7.97506C3.59529 7.96702 3.72901 7.98583 3.85508 8.03037C3.98116 8.07492 4.09702 8.14429 4.19581 8.23439C4.2946 8.32449 4.37432 8.43349 4.43025 8.55494C4.48619 8.67639 4.51719 8.80782 4.52144 8.94146C4.5257 9.07511 4.5031 9.20824 4.455 9.333C4.02974 10.5394 3.9 11.8303 4.07664 13.0972C4.25329 14.3642 4.73118 15.5703 5.47022 16.6144C6.20926 17.6585 7.18791 18.5102 8.32408 19.098C9.46025 19.6858 10.7208 19.9925 12 19.9925C13.2792 19.9925 14.5398 19.6858 15.6759 19.098C16.8121 18.5102 17.7907 17.6585 18.5298 16.6144C19.2688 15.5703 19.7467 14.3642 19.9234 13.0972C20.1 11.8303 19.9703 10.5394 19.545 9.333C19.5013 9.20916 19.4824 9.07793 19.4893 8.94678C19.4963 8.81564 19.5291 8.68715 19.5857 8.56866C19.6424 8.45018 19.7218 8.34401 19.8195 8.25622C19.9172 8.16842 20.0312 8.10073 20.155 8.057C20.4051 7.96868 20.68 7.98333 20.9193 8.09773C21.1586 8.21213 21.3417 8.4169 21.43 8.667ZM15.396 15.338C15.483 15.4365 15.5497 15.5511 15.5924 15.6754C15.635 15.7996 15.6528 15.9311 15.6446 16.0622C15.6364 16.1934 15.6025 16.3216 15.5447 16.4396C15.487 16.5576 15.4065 16.6631 15.308 16.75C14.3952 17.557 13.2184 18.0017 12 18C10.7816 18.0017 9.60481 17.557 8.692 16.75C8.49309 16.5744 8.37207 16.327 8.35557 16.0622C8.33906 15.7974 8.42843 15.5369 8.604 15.338C8.77957 15.1391 9.02697 15.0181 9.29177 15.0016C9.55658 14.9851 9.81709 15.0744 10.016 15.25C10.546 15.718 11.239 16 12 16C12.761 16 13.455 15.718 13.984 15.25C14.0825 15.163 14.1971 15.0963 14.3214 15.0536C14.4456 15.011 14.5771 14.9932 14.7082 15.0014C14.8394 15.0096 14.9676 15.0435 15.0856 15.1013C15.2036 15.159 15.3091 15.2395 15.396 15.338ZM8.5 10C9.587 10 10.457 10.68 10.894 11.552C11.0086 11.7801 11.0316 12.0435 10.9583 12.288C10.885 12.5326 10.721 12.7399 10.4998 12.8674C10.2785 12.9948 10.017 13.0329 9.7686 12.9737C9.52024 12.9145 9.30393 12.7626 9.164 12.549L9.106 12.448C8.944 12.124 8.696 12 8.5 12C8.33 12 8.118 12.095 7.959 12.336L7.894 12.448C7.77396 12.683 7.5659 12.861 7.31517 12.9433C7.06444 13.0255 6.79137 13.0053 6.55546 12.8871C6.31955 12.7689 6.13992 12.5622 6.05573 12.3121C5.97154 12.062 5.98961 11.7888 6.106 11.552C6.542 10.68 7.413 10 8.5 10ZM15.5 10C16.587 10 17.457 10.68 17.894 11.552C18.0086 11.7801 18.0316 12.0435 17.9583 12.288C17.885 12.5326 17.721 12.7399 17.4998 12.8674C17.2785 12.9948 17.017 13.0329 16.7686 12.9737C16.5202 12.9145 16.3039 12.7626 16.164 12.549L16.106 12.448C15.944 12.124 15.696 12 15.5 12C15.33 12 15.118 12.095 14.959 12.336L14.894 12.448C14.8358 12.5664 14.7547 12.6722 14.6554 12.7591C14.5562 12.8461 14.4407 12.9126 14.3156 12.9547C14.1905 12.9968 14.0583 13.0137 13.9267 13.0045C13.795 12.9953 13.6665 12.9601 13.5485 12.901C13.4305 12.8418 13.3254 12.7599 13.2392 12.66C13.153 12.56 13.0875 12.444 13.0463 12.3186C13.0052 12.1932 12.9893 12.0609 12.9995 11.9294C13.0098 11.7978 13.046 11.6695 13.106 11.552C13.543 10.68 14.413 10 15.5 10ZM12 2C14.536 2 16.862 2.228 18.58 2.61C19.432 2.799 20.19 3.038 20.758 3.336C21.041 3.486 21.327 3.674 21.553 3.92C21.783 4.17 22 4.536 22 5C22 5.464 21.784 5.83 21.553 6.08C21.323 6.31836 21.0542 6.51584 20.758 6.664C20.189 6.962 19.432 7.201 18.581 7.39C16.862 7.772 14.536 8 12 8C9.464 8 7.138 7.772 5.42 7.39C4.568 7.201 3.81 6.962 3.242 6.664C2.94579 6.51584 2.67695 6.31836 2.447 6.08C2.217 5.83 2 5.464 2 5C2 4.536 2.216 4.17 2.447 3.92C2.673 3.674 2.959 3.485 3.242 3.336C3.811 3.038 4.568 2.799 5.419 2.61C7.138 2.228 9.464 2 12 2ZM12 4C9.565 4 7.391 4.22 5.853 4.562L5.421 4.664C4.316 4.947 4.461 5.129 5.853 5.438C7.391 5.78 9.565 6 12 6C14.435 6 16.609 5.78 18.147 5.438L18.579 5.336C19.684 5.053 19.539 4.871 18.147 4.562C16.609 4.22 14.435 4 12 4Z" fill="currentColor"/>
</svg>
