<svg width="24" height="24" viewBox="0 0 24 24" fill="none" xmlns="http://www.w3.org/2000/svg">
<path d="M12 2C17.523 2 22 6.477 22 12C22 17.523 17.523 22 12 22C6.477 22 2 17.523 2 12C2 6.477 6.477 2 12 2ZM12 4C9.87827 4 7.84344 4.84285 6.34315 6.34315C4.84285 7.84344 4 9.87827 4 12C4 14.1217 4.84285 16.1566 6.34315 17.6569C7.84344 19.1571 9.87827 20 12 20C14.1217 20 16.1566 19.1571 17.6569 17.6569C19.1571 16.1566 20 14.1217 20 12C20 9.87827 19.1571 7.84344 17.6569 6.34315C16.1566 4.84285 14.1217 4 12 4ZM12 13C13.268 13 14.427 13.473 15.308 14.25C15.5069 14.4256 15.6279 14.673 15.6444 14.9378C15.6609 15.2026 15.5716 15.4631 15.396 15.662C15.2204 15.8609 14.973 15.9819 14.7082 15.9984C14.4434 16.0149 14.1829 15.9256 13.984 15.75C13.4368 15.2655 12.7308 14.9987 12 15C11.239 15 10.545 15.282 10.016 15.75C9.91751 15.8369 9.80287 15.9035 9.67863 15.9461C9.5544 15.9886 9.42299 16.0063 9.29192 15.9981C9.16085 15.9899 9.03268 15.9559 8.91474 15.8982C8.79679 15.8404 8.69137 15.76 8.6045 15.6615C8.51763 15.563 8.45101 15.4484 8.40845 15.3241C8.36588 15.1999 8.3482 15.0685 8.35642 14.9374C8.36464 14.8064 8.39859 14.6782 8.45634 14.5602C8.51409 14.4423 8.59451 14.3369 8.693 14.25C9.6056 13.4433 10.782 12.9987 12 13ZM8.34 8.06L8.447 8.106L10.447 9.106C10.6753 9.22 10.8514 9.41697 10.9392 9.65658C11.027 9.89619 11.0199 10.1603 10.9193 10.3948C10.8187 10.6294 10.6323 10.8166 10.3982 10.9181C10.1641 11.0197 9.89996 11.0278 9.66 10.941L9.553 10.894L7.553 9.894C7.33441 9.78394 7.16378 9.59755 7.0734 9.37011C6.98303 9.14268 6.97919 8.89001 7.06261 8.65993C7.14604 8.42986 7.31094 8.23837 7.52608 8.12173C7.74123 8.00508 7.99167 7.97138 8.23 8.027L8.34 8.059V8.06ZM15.553 8.106C15.781 7.99276 16.0436 7.97076 16.2873 8.04447C16.531 8.11819 16.7374 8.28206 16.8644 8.5027C16.9914 8.72333 17.0295 8.98411 16.9709 9.23185C16.9123 9.4796 16.7614 9.69567 16.549 9.836L16.447 9.894L14.447 10.894C14.219 11.0072 13.9564 11.0292 13.7127 10.9555C13.469 10.8818 13.2626 10.7179 13.1356 10.4973C13.0086 10.2767 12.9705 10.0159 13.0291 9.76815C13.0877 9.5204 13.2386 9.30433 13.451 9.164L13.553 9.106L15.553 8.106Z" fill="currentColor"/>
</svg>
