<svg width="24" height="24" viewBox="0 0 24 24" fill="none" xmlns="http://www.w3.org/2000/svg">
<path fill-rule="evenodd" clip-rule="evenodd" d="M19.0002 4.741V8C19.3941 8 19.7842 8.0776 20.1482 8.22836C20.5122 8.37913 20.8429 8.6001 21.1215 8.87868C21.4001 9.15726 21.621 9.48797 21.7718 9.85195C21.9226 10.2159 22.0002 10.606 22.0002 11C22.0002 11.394 21.9226 11.7841 21.7718 12.1481C21.621 12.512 21.4001 12.8427 21.1215 13.1213C20.8429 13.3999 20.5122 13.6209 20.1482 13.7716C19.7842 13.9224 19.3941 14 19.0002 14V17C19.0002 18.648 17.1192 19.589 15.8002 18.6L13.7402 17.054C12.639 16.2284 11.3569 15.6771 10.0002 15.446V18.29C10.0003 18.9437 9.76407 19.5755 9.33507 20.0688C8.90608 20.5621 8.31322 20.8837 7.66579 20.9743C7.01836 21.0649 6.35999 20.9184 5.81205 20.5619C5.26412 20.2053 4.86354 19.6627 4.68417 19.034L3.11417 13.538C2.54919 12.8708 2.18151 12.0592 2.05246 11.1945C1.92341 10.3298 2.03811 9.44624 2.38366 8.64314C2.72921 7.84004 3.29192 7.14924 4.00853 6.6484C4.72513 6.14755 5.56724 5.85652 6.44017 5.808L9.45817 5.64C10.9348 5.55783 12.3708 5.12634 13.6482 4.381L15.9922 3.013C17.3262 2.236 19.0002 3.197 19.0002 4.741ZM5.63417 15.078L6.60717 18.485C6.654 18.6499 6.75892 18.7923 6.90255 18.8859C7.04618 18.9795 7.21883 19.018 7.38861 18.9942C7.55839 18.9704 7.71383 18.8861 7.82624 18.7566C7.93865 18.6272 8.00043 18.4614 8.00017 18.29V15.28L6.44017 15.193C6.1687 15.1779 5.89903 15.1395 5.63417 15.078ZM17.0002 4.741L14.6552 6.11C13.2305 6.94044 11.642 7.45028 10.0002 7.604V13.423C11.7872 13.669 13.4882 14.366 14.9402 15.454L17.0002 17V4.741ZM8.00017 7.724L6.55017 7.804C5.87562 7.84125 5.23954 8.13002 4.76749 8.61332C4.29544 9.09662 4.02173 9.73933 4.00038 10.4146C3.97903 11.0898 4.2116 11.7485 4.65217 12.2607C5.09275 12.7728 5.70932 13.1012 6.38017 13.181L6.55017 13.196L8.00017 13.276V7.724ZM19.0002 10V12C19.2551 11.9997 19.5002 11.9021 19.6855 11.7272C19.8709 11.5522 19.9824 11.313 19.9973 11.0586C20.0123 10.8042 19.9295 10.5536 19.7659 10.3582C19.6023 10.1627 19.3703 10.0371 19.1172 10.007L19.0002 10Z" fill="currentColor"/>
</svg>
