<svg width="24" height="24" viewBox="0 0 24 24" fill="none" xmlns="http://www.w3.org/2000/svg">
<path d="M20 8C20.5046 7.99984 20.9906 8.19041 21.3605 8.5335C21.7305 8.87659 21.9572 9.34685 21.995 9.85L22 10V19C22.0002 19.5046 21.8096 19.9906 21.4665 20.3606C21.1234 20.7305 20.6532 20.9572 20.15 20.995L20 21H10C9.49542 21.0002 9.00943 20.8096 8.63945 20.4665C8.26947 20.1234 8.04284 19.6532 8.005 19.15L8 19V10C7.99984 9.49543 8.19041 9.00944 8.5335 8.63945C8.87659 8.26947 9.34685 8.04285 9.85 8.005L10 8H20ZM20 10H10V19H20V10ZM10.94 3.658C10.985 3.78144 11.0051 3.91253 10.9994 4.04377C10.9937 4.17502 10.9622 4.30385 10.9066 4.4229C10.8511 4.54196 10.7726 4.6489 10.6758 4.73763C10.5789 4.82635 10.4655 4.89512 10.342 4.94C8.463 5.623 7.082 6.982 6.08 8.456C5.078 9.93 4.496 11.464 4.205 12.391C3.974 13.126 3.257 13.192 2.972 13.151C2.688 13.111 2 12.844 2 12.056V7C2 6.73479 2.10536 6.48043 2.29289 6.2929C2.48043 6.10536 2.73478 6 3 6C3.26522 6 3.51957 6.10536 3.70711 6.2929C3.89464 6.48043 4 6.73479 4 7V7.995C4.134 7.775 4.275 7.553 4.426 7.331C5.576 5.638 7.261 3.931 9.658 3.06C9.78144 3.01505 9.91253 2.99486 10.0438 3.00059C10.175 3.00632 10.3038 3.03785 10.4229 3.09339C10.542 3.14892 10.6489 3.22737 10.7376 3.32425C10.8264 3.42113 10.8951 3.53454 10.94 3.658Z" fill="currentColor"/>
</svg>
