<svg width="24" height="24" viewBox="0 0 24 24" fill="none" xmlns="http://www.w3.org/2000/svg">
<path d="M13.0642 6.685L13.8092 6.379C14.4142 6.139 15.1962 5.894 16.1192 6.049C18.0102 6.367 19.3142 7.388 20.0912 8.742C20.3912 9.264 20.1492 9.952 19.5892 10.171C19.1095 10.3587 18.6994 10.6899 18.415 11.1194C18.1306 11.549 17.9858 12.0558 18.0003 12.5708C18.0149 13.0857 18.1881 13.5836 18.4963 13.9964C18.8045 14.4092 19.2326 14.7167 19.7222 14.877C20.2402 15.047 20.5322 15.622 20.3622 16.14C19.9202 17.482 19.2842 18.721 18.5312 19.721C17.7872 20.709 16.8792 21.529 15.8682 21.93C15.1962 22.196 14.4782 22.09 13.7902 21.917L13.3822 21.807L12.7972 21.644L12.4782 21.565C12.3217 21.5256 12.1615 21.5032 12.0002 21.498C11.8702 21.498 11.7152 21.522 11.5222 21.565L11.2022 21.645L10.4152 21.863C9.6672 22.066 8.8712 22.223 8.13221 21.93C6.85921 21.426 5.73621 20.25 4.88721 18.863C3.96807 17.3356 3.36166 15.6408 3.1032 13.877C2.8762 12.323 2.9992 10.578 3.7182 9.102C4.4582 7.581 5.81421 6.397 7.88121 6.049C8.72121 5.908 9.4432 6.097 10.0212 6.314L10.3522 6.444L10.9362 6.685C11.3362 6.842 11.6512 6.934 12.0002 6.934C12.3482 6.934 12.6642 6.842 13.0642 6.685ZM10.1902 8.542L9.84221 8.399C9.11121 8.093 8.70421 7.939 8.2122 8.021C6.8202 8.256 5.9912 9.003 5.5162 9.978C5.0202 10.996 4.8962 12.31 5.0822 13.588C5.3102 15.146 5.8712 16.638 6.5932 17.82C7.3312 19.025 8.16421 19.792 8.86821 20.07C9.1082 20.165 9.4532 20.09 9.7732 19.992L10.2162 19.846L10.3382 19.808L10.7712 19.688C11.1572 19.588 11.5922 19.498 12.0002 19.498C12.4072 19.498 12.8432 19.588 13.2292 19.688L13.6622 19.808L13.7842 19.846L14.2272 19.992C14.5472 20.09 14.8922 20.165 15.1322 20.07C15.6792 19.854 16.3152 19.338 16.9322 18.518C17.3922 17.908 17.8122 17.166 18.1552 16.341C17.4967 15.9394 16.9526 15.3751 16.5752 14.7024C16.1978 14.0298 15.9998 13.2713 16.0002 12.5C16.0002 11.053 16.6822 9.768 17.7402 8.945C17.2672 8.495 16.6332 8.164 15.7882 8.021C15.3452 7.947 14.9712 8.064 14.3682 8.312L14.1582 8.399C13.6172 8.626 12.8822 8.934 12.0002 8.934C11.2952 8.934 10.6832 8.737 10.1902 8.542ZM11.7682 2.768C12.7442 1.791 14.2432 1.707 14.5962 2.061C14.9502 2.414 14.8662 3.913 13.8892 4.889C12.9132 5.865 11.4142 5.949 11.0612 5.596C10.7072 5.243 10.7912 3.744 11.7682 2.768Z" fill="currentColor"/>
</svg>
