<svg width="24" height="24" viewBox="0 0 24 24" fill="none" xmlns="http://www.w3.org/2000/svg">
<path d="M5 6C5 5.73478 5.10536 5.48043 5.29289 5.29289C5.48043 5.10536 5.73478 5 6 5H14C14.2652 5 14.5196 5.10536 14.7071 5.29289C14.8946 5.48043 15 5.73478 15 6C15 6.26522 14.8946 6.51957 14.7071 6.70711C14.5196 6.89464 14.2652 7 14 7H8.414L18.364 16.95C18.5462 17.1386 18.647 17.3912 18.6447 17.6534C18.6424 17.9156 18.5372 18.1664 18.3518 18.3518C18.1664 18.5372 17.9156 18.6424 17.6534 18.6447C17.3912 18.647 17.1386 18.5462 16.95 18.364L7 8.414V14C7 14.2652 6.89464 14.5196 6.70711 14.7071C6.51957 14.8946 6.26522 15 6 15C5.73478 15 5.48043 14.8946 5.29289 14.7071C5.10536 14.5196 5 14.2652 5 14V6Z" fill="currentColor"/>
</svg>
