<svg width="24" height="24" viewBox="0 0 24 24" fill="none" xmlns="http://www.w3.org/2000/svg">
<path d="M12 2C17.523 2 22 6.477 22 12C22 17.523 17.523 22 12 22C6.477 22 2 17.523 2 12C2 6.477 6.477 2 12 2ZM12 4C9.87827 4 7.84344 4.84285 6.34315 6.34315C4.84285 7.84344 4 9.87827 4 12C4 14.1217 4.84285 16.1566 6.34315 17.6569C7.84344 19.1571 9.87827 20 12 20C14.1217 20 16.1566 19.1571 17.6569 17.6569C19.1571 16.1566 20 14.1217 20 12C20 9.87827 19.1571 7.84344 17.6569 6.34315C16.1566 4.84285 14.1217 4 12 4ZM8.293 8.293C8.46519 8.12082 8.69429 8.01739 8.93732 8.00211C9.18035 7.98683 9.4206 8.06075 9.613 8.21L9.707 8.293L14.003 12.589V10.003C14.0035 9.74821 14.1013 9.50322 14.2764 9.31808C14.4514 9.13293 14.6905 9.02159 14.9449 9.00679C15.1993 8.99198 15.4497 9.07483 15.645 9.23842C15.8404 9.402 15.9659 9.63399 15.996 9.887L16.003 10.003V15.003C16.0032 15.2481 15.9134 15.4848 15.7506 15.668C15.5878 15.8512 15.3634 15.9683 15.12 15.997L15.003 16.003H10.003C9.74812 16.0027 9.50297 15.9051 9.31763 15.7302C9.1323 15.5552 9.02076 15.316 9.00583 15.0616C8.99089 14.8072 9.07367 14.5566 9.23726 14.3612C9.40086 14.1657 9.6329 14.0401 9.886 14.01L10.003 14.003H12.589L8.293 9.707C8.10553 9.51947 8.00021 9.26516 8.00021 9C8.00021 8.73484 8.10553 8.48053 8.293 8.293Z" fill="currentColor"/>
</svg>
