<svg width="24" height="24" viewBox="0 0 24 24" fill="none" xmlns="http://www.w3.org/2000/svg">
<path fill-rule="evenodd" clip-rule="evenodd" d="M12 5C12.2652 5.00006 12.5195 5.10545 12.707 5.293L17.707 10.293C17.8892 10.4816 17.99 10.7342 17.9877 10.9964C17.9854 11.2586 17.8802 11.5094 17.6948 11.6948C17.5094 11.8802 17.2586 11.9854 16.9964 11.9877C16.7342 11.99 16.4816 11.8892 16.293 11.707L12 7.414L7.70701 11.707C7.51841 11.8892 7.26581 11.99 7.00361 11.9877C6.74141 11.9854 6.4906 11.8802 6.30519 11.6948C6.11978 11.5094 6.01461 11.2586 6.01234 10.9964C6.01006 10.7342 6.11085 10.4816 6.29301 10.293L11.293 5.293C11.4805 5.10545 11.7348 5.00006 12 5ZM12 11C12.2652 11.0001 12.5195 11.1055 12.707 11.293L17.707 16.293C17.8892 16.4816 17.99 16.7342 17.9877 16.9964C17.9854 17.2586 17.8802 17.5094 17.6948 17.6948C17.5094 17.8802 17.2586 17.9854 16.9964 17.9877C16.7342 17.99 16.4816 17.8892 16.293 17.707L12 13.414L7.70701 17.707C7.51841 17.8892 7.26581 17.99 7.00361 17.9877C6.74141 17.9854 6.4906 17.8802 6.30519 17.6948C6.11978 17.5094 6.01461 17.2586 6.01234 16.9964C6.01006 16.7342 6.11085 16.4816 6.29301 16.293L11.293 11.293C11.4805 11.1055 11.7348 11.0001 12 11Z" fill="currentColor"/>
</svg>
