<svg width="24" height="24" viewBox="0 0 24 24" fill="none" xmlns="http://www.w3.org/2000/svg">
<path fill-rule="evenodd" clip-rule="evenodd" d="M6.29303 6.29299C6.48056 6.10552 6.73487 6.0002 7.00003 6.0002C7.26519 6.0002 7.5195 6.10552 7.70703 6.29299L12 10.586L16.293 6.29299C16.3853 6.19748 16.4956 6.1213 16.6176 6.06889C16.7396 6.01648 16.8709 5.98889 17.0036 5.98774C17.1364 5.98659 17.2681 6.01189 17.391 6.06217C17.5139 6.11245 17.6255 6.1867 17.7194 6.28059C17.8133 6.37449 17.8876 6.48614 17.9379 6.60904C17.9881 6.73193 18.0134 6.86361 18.0123 6.99639C18.0111 7.12917 17.9835 7.26039 17.9311 7.38239C17.8787 7.5044 17.8025 7.61474 17.707 7.70699L12.707 12.707C12.5195 12.8945 12.2652 12.9998 12 12.9998C11.7349 12.9998 11.4806 12.8945 11.293 12.707L6.29303 7.70699C6.10556 7.51946 6.00024 7.26515 6.00024 6.99999C6.00024 6.73483 6.10556 6.48052 6.29303 6.29299ZM6.29303 12.293C6.48056 12.1055 6.73487 12.0002 7.00003 12.0002C7.26519 12.0002 7.5195 12.1055 7.70703 12.293L12 16.586L16.293 12.293C16.4816 12.1108 16.7342 12.01 16.9964 12.0123C17.2586 12.0146 17.5094 12.1198 17.6948 12.3052C17.8803 12.4906 17.9854 12.7414 17.9877 13.0036C17.99 13.2658 17.8892 13.5184 17.707 13.707L12.707 18.707C12.5195 18.8945 12.2652 18.9998 12 18.9998C11.7349 18.9998 11.4806 18.8945 11.293 18.707L6.29303 13.707C6.10556 13.5195 6.00024 13.2652 6.00024 13C6.00024 12.7348 6.10556 12.4805 6.29303 12.293Z" fill="currentColor"/>
</svg>
