<svg width="24" height="24" viewBox="0 0 24 24" fill="none" xmlns="http://www.w3.org/2000/svg">
<path d="M8.414 17L18.364 7.05C18.5462 6.8614 18.647 6.60879 18.6447 6.3466C18.6424 6.0844 18.5372 5.83359 18.3518 5.64818C18.1664 5.46277 17.9156 5.3576 17.6534 5.35532C17.3912 5.35305 17.1386 5.45384 16.95 5.636L7 15.586V10C7 9.73478 6.89464 9.48043 6.70711 9.29289C6.51957 9.10535 6.26522 9 6 9C5.73478 9 5.48043 9.10535 5.29289 9.29289C5.10536 9.48043 5 9.73478 5 10V18C5 18.2652 5.10536 18.5196 5.29289 18.7071C5.48043 18.8946 5.73478 19 6 19H14C14.2652 19 14.5196 18.8946 14.7071 18.7071C14.8946 18.5196 15 18.2652 15 18C15 17.7348 14.8946 17.4804 14.7071 17.2929C14.5196 17.1054 14.2652 17 14 17H8.414Z" fill="currentColor"/>
</svg>
