<svg width="24" height="24" viewBox="0 0 24 24" fill="none" xmlns="http://www.w3.org/2000/svg">
<path d="M12 2C17.523 2 22 6.477 22 12C22 17.523 17.523 22 12 22C6.477 22 2 17.523 2 12C2 6.477 6.477 2 12 2ZM12 4C9.87827 4 7.84344 4.84285 6.34315 6.34315C4.84285 7.84344 4 9.87827 4 12C4 14.1217 4.84285 16.1566 6.34315 17.6569C7.84344 19.1571 9.87827 20 12 20C14.1217 20 16.1566 19.1571 17.6569 17.6569C19.1571 16.1566 20 14.1217 20 12C20 9.87827 19.1571 7.84344 17.6569 6.34315C16.1566 4.84285 14.1217 4 12 4ZM14.293 8.293C14.473 8.11365 14.7144 8.00953 14.9684 8.00177C15.2223 7.99402 15.4697 8.08321 15.6603 8.25125C15.8508 8.41928 15.9703 8.65355 15.9944 8.90647C16.0185 9.1594 15.9454 9.41201 15.79 9.613L15.707 9.707L11.411 14.003H13.997C14.2518 14.0035 14.4968 14.1013 14.6819 14.2764C14.8671 14.4514 14.9784 14.6905 14.9932 14.9449C15.008 15.1993 14.9252 15.4497 14.7616 15.645C14.598 15.8404 14.366 15.9659 14.113 15.996L13.997 16.003H8.997C8.75189 16.0032 8.51525 15.9134 8.332 15.7506C8.14876 15.5878 8.03168 15.3634 8.003 15.12L7.997 15.003V10.003C7.99728 9.74812 8.09488 9.50297 8.26985 9.31763C8.44482 9.1323 8.68395 9.02076 8.93839 9.00583C9.19284 8.99089 9.44338 9.07367 9.63883 9.23726C9.83429 9.40086 9.9599 9.6329 9.99 9.886L9.997 10.003V12.589L14.293 8.293Z" fill="currentColor"/>
</svg>
