<svg width="24" height="24" viewBox="0 0 24 24" fill="none" xmlns="http://www.w3.org/2000/svg">
<path fill-rule="evenodd" clip-rule="evenodd" d="M11.707 6.293C11.8945 6.48053 11.9998 6.73484 11.9998 7C11.9998 7.26516 11.8945 7.51947 11.707 7.707L7.414 12L11.707 16.293C11.8892 16.4816 11.99 16.7342 11.9877 16.9964C11.9854 17.2586 11.8802 17.5094 11.6948 17.6948C11.5094 17.8802 11.2586 17.9854 10.9964 17.9877C10.7342 17.99 10.4816 17.8892 10.293 17.707L5.293 12.707C5.10553 12.5195 5.00021 12.2652 5.00021 12C5.00021 11.7348 5.10553 11.4805 5.293 11.293L10.293 6.293C10.4805 6.10553 10.7348 6.00021 11 6.00021C11.2652 6.00021 11.5195 6.10553 11.707 6.293ZM17.707 6.293C17.8945 6.48053 17.9998 6.73484 17.9998 7C17.9998 7.26516 17.8945 7.51947 17.707 7.707L13.414 12L17.707 16.293C17.8892 16.4816 17.99 16.7342 17.9877 16.9964C17.9854 17.2586 17.8802 17.5094 17.6948 17.6948C17.5094 17.8802 17.2586 17.9854 16.9964 17.9877C16.7342 17.99 16.4816 17.8892 16.293 17.707L11.293 12.707C11.1055 12.5195 11.0002 12.2652 11.0002 12C11.0002 11.7348 11.1055 11.4805 11.293 11.293L16.293 6.293C16.4805 6.10553 16.7348 6.00021 17 6.00021C17.2652 6.00021 17.5195 6.10553 17.707 6.293Z" fill="currentColor"/>
</svg>
