<svg width="24" height="24" viewBox="0 0 24 24" fill="none" xmlns="http://www.w3.org/2000/svg">
<path d="M18 5C18.2652 5 18.5196 5.10536 18.7071 5.29289C18.8946 5.48043 19 5.73478 19 6V14C19 14.2652 18.8946 14.5196 18.7071 14.7071C18.5196 14.8946 18.2652 15 18 15C17.7348 15 17.4804 14.8946 17.2929 14.7071C17.1054 14.5196 17 14.2652 17 14V8.414L7.05 18.364C6.8614 18.5462 6.60879 18.647 6.3466 18.6447C6.0844 18.6424 5.83359 18.5372 5.64818 18.3518C5.46277 18.1664 5.3576 17.9156 5.35532 17.6534C5.35305 17.3912 5.45384 17.1386 5.636 16.95L15.586 7H10C9.73478 7 9.48043 6.89464 9.29289 6.70711C9.10535 6.51957 9 6.26522 9 6C9 5.73478 9.10535 5.48043 9.29289 5.29289C9.48043 5.10536 9.73478 5 10 5H18Z" fill="currentColor"/>
</svg>
