<svg width="24" height="24" viewBox="0 0 24 24" fill="none" xmlns="http://www.w3.org/2000/svg">
<path d="M11 17.243L7.05 13.293C6.95775 13.1975 6.84741 13.1213 6.7254 13.0689C6.6034 13.0165 6.47218 12.9889 6.3394 12.9877C6.20662 12.9866 6.07494 13.0119 5.95205 13.0622C5.82915 13.1125 5.7175 13.1867 5.6236 13.2806C5.52971 13.3745 5.45546 13.4861 5.40518 13.609C5.3549 13.7319 5.3296 13.8636 5.33075 13.9964C5.3319 14.1292 5.35949 14.2604 5.4119 14.3824C5.46431 14.5044 5.54049 14.6148 5.636 14.707L11.293 20.364C11.4805 20.5515 11.7348 20.6568 12 20.6568C12.2652 20.6568 12.5195 20.5515 12.707 20.364L18.364 14.707C18.5462 14.5184 18.647 14.2658 18.6447 14.0036C18.6424 13.7414 18.5372 13.4906 18.3518 13.3052C18.1664 13.1198 17.9156 13.0146 17.6534 13.0123C17.3912 13.01 17.1386 13.1108 16.95 13.293L13 17.243V4C13 3.73478 12.8946 3.48043 12.7071 3.29289C12.5196 3.10536 12.2652 3 12 3C11.7348 3 11.4804 3.10536 11.2929 3.29289C11.1054 3.48043 11 3.73478 11 4V17.243Z" fill="currentColor"/>
</svg>
