<svg width="24" height="24" viewBox="0 0 24 24" fill="none" xmlns="http://www.w3.org/2000/svg">
<path d="M12 2C17.523 2 22 6.477 22 12C22 17.523 17.523 22 12 22C6.477 22 2 17.523 2 12C2 6.477 6.477 2 12 2ZM12 4C9.87827 4 7.84344 4.84285 6.34315 6.34315C4.84285 7.84344 4 9.87827 4 12C4 14.1217 4.84285 16.1566 6.34315 17.6569C7.84344 19.1571 9.87827 20 12 20C14.1217 20 16.1566 19.1571 17.6569 17.6569C19.1571 16.1566 20 14.1217 20 12C20 9.87827 19.1571 7.84344 17.6569 6.34315C16.1566 4.84285 14.1217 4 12 4ZM13.997 7.997C14.2519 7.99728 14.497 8.09488 14.6824 8.26985C14.8677 8.44482 14.9792 8.68395 14.9942 8.93839C15.0091 9.19284 14.9263 9.44338 14.7627 9.63883C14.5991 9.83429 14.3671 9.9599 14.114 9.99L13.997 9.997H11.411L15.707 14.293C15.8863 14.473 15.9905 14.7144 15.9982 14.9684C16.006 15.2223 15.9168 15.4697 15.7488 15.6603C15.5807 15.8508 15.3464 15.9703 15.0935 15.9944C14.8406 16.0185 14.588 15.9454 14.387 15.79L14.293 15.707L9.997 11.411V13.997C9.99647 14.2518 9.89869 14.4968 9.72364 14.6819C9.54859 14.8671 9.30947 14.9784 9.05511 14.9932C8.80074 15.008 8.55032 14.9252 8.35497 14.7616C8.15963 14.598 8.03409 14.366 8.004 14.113L7.997 13.997V8.997C7.99679 8.75189 8.0866 8.51525 8.24938 8.332C8.41217 8.14876 8.63658 8.03168 8.88 8.003L8.997 7.997H13.997Z" fill="currentColor"/>
</svg>
