<svg width="24" height="24" viewBox="0 0 24 24" fill="none" xmlns="http://www.w3.org/2000/svg">
<path d="M12 2C17.523 2 22 6.477 22 12C22 17.523 17.523 22 12 22C6.477 22 2 17.523 2 12C2 6.477 6.477 2 12 2ZM12 4C9.87827 4 7.84344 4.84285 6.34315 6.34315C4.84285 7.84344 4 9.87827 4 12C4 14.1217 4.84285 16.1566 6.34315 17.6569C7.84344 19.1571 9.87827 20 12 20C14.1217 20 16.1566 19.1571 17.6569 17.6569C19.1571 16.1566 20 14.1217 20 12C20 9.87827 19.1571 7.84344 17.6569 6.34315C16.1566 4.84285 14.1217 4 12 4ZM12 6.757C12.2451 6.75706 12.4816 6.84713 12.6647 7.01009C12.8477 7.17305 12.9646 7.39757 12.993 7.641L13 7.757V13.833L14.828 12.005C15.0075 11.8237 15.2496 11.718 15.5045 11.7093C15.7595 11.7007 16.0082 11.7898 16.1996 11.9585C16.391 12.1271 16.5107 12.3626 16.5342 12.6166C16.5577 12.8707 16.4832 13.1241 16.326 13.325L16.242 13.419L12.707 16.954C12.5348 17.1262 12.3057 17.2296 12.0627 17.2449C11.8197 17.2602 11.5794 17.1863 11.387 17.037L11.293 16.954L7.757 13.419C7.57575 13.2395 7.46997 12.9974 7.46132 12.7425C7.45267 12.4875 7.5418 12.2388 7.71047 12.0474C7.87913 11.856 8.11458 11.7363 8.36862 11.7128C8.62266 11.6893 8.87608 11.7638 9.077 11.921L9.171 12.005L11.001 13.833V7.757C11.001 7.49178 11.1064 7.23743 11.2939 7.04989C11.4814 6.86236 11.7358 6.757 12.001 6.757H12Z" fill="currentColor"/>
</svg>
