<svg width="24" height="24" viewBox="0 0 24 24" fill="none" xmlns="http://www.w3.org/2000/svg">
<path d="M5 17C5.53043 17 6.03914 17.2107 6.41421 17.5858C6.78929 17.9609 7 18.4696 7 19V20C7 20.2652 6.89464 20.5196 6.70711 20.7071C6.51957 20.8946 6.26522 21 6 21C5.73478 21 5.48043 20.8946 5.29289 20.7071C5.10536 20.5196 5 20.2652 5 20V19H4C3.73478 19 3.48043 18.8946 3.29289 18.7071C3.10536 18.5196 3 18.2652 3 18C3 17.7348 3.10536 17.4804 3.29289 17.2929C3.48043 17.1054 3.73478 17 4 17H5ZM20 17C20.2549 17.0003 20.5 17.0979 20.6854 17.2728C20.8707 17.4478 20.9822 17.687 20.9972 17.9414C21.0121 18.1958 20.9293 18.4464 20.7657 18.6418C20.6021 18.8373 20.3701 18.9629 20.117 18.993L20 19H19V20C18.9997 20.2549 18.9021 20.5 18.7272 20.6854C18.5522 20.8707 18.313 20.9822 18.0586 20.9972C17.8042 21.0121 17.5536 20.9293 17.3582 20.7657C17.1627 20.6021 17.0371 20.3701 17.007 20.117L17 20V19C16.9998 18.4954 17.1904 18.0094 17.5335 17.6395C17.8766 17.2695 18.3468 17.0428 18.85 17.005L19 17H20ZM16 6C16.5304 6 17.0391 6.21071 17.4142 6.58579C17.7893 6.96086 18 7.46957 18 8V16C18 16.5304 17.7893 17.0391 17.4142 17.4142C17.0391 17.7893 16.5304 18 16 18H8C7.46957 18 6.96086 17.7893 6.58579 17.4142C6.21071 17.0391 6 16.5304 6 16V8C6 7.46957 6.21071 6.96086 6.58579 6.58579C6.96086 6.21071 7.46957 6 8 6H16ZM16 8H8V16H16V8ZM6 3C6.26522 3 6.51957 3.10536 6.70711 3.29289C6.89464 3.48043 7 3.73478 7 4V5C7 5.53043 6.78929 6.03914 6.41421 6.41421C6.03914 6.78929 5.53043 7 5 7H4C3.73478 7 3.48043 6.89464 3.29289 6.70711C3.10536 6.51957 3 6.26522 3 6C3 5.73478 3.10536 5.48043 3.29289 5.29289C3.48043 5.10536 3.73478 5 4 5H5V4C5 3.73478 5.10536 3.48043 5.29289 3.29289C5.48043 3.10536 5.73478 3 6 3ZM18 3C18.2449 3.00003 18.4813 3.08996 18.6644 3.25272C18.8474 3.41547 18.9643 3.63975 18.993 3.883L19 4V5H20C20.2549 5.00028 20.5 5.09788 20.6854 5.27285C20.8707 5.44782 20.9822 5.68695 20.9972 5.94139C21.0121 6.19584 20.9293 6.44638 20.7657 6.64183C20.6021 6.83729 20.3701 6.9629 20.117 6.993L20 7H19C18.4954 7.00016 18.0094 6.80959 17.6395 6.4665C17.2695 6.12341 17.0428 5.65316 17.005 5.15L17 5V4C17 3.73478 17.1054 3.48043 17.2929 3.29289C17.4804 3.10536 17.7348 3 18 3Z" fill="currentColor"/>
</svg>
