<svg width="24" height="24" viewBox="0 0 24 24" fill="none" xmlns="http://www.w3.org/2000/svg">
<path d="M12.0002 3C12.2654 3 12.5198 3.10536 12.7073 3.29289C12.8949 3.48043 13.0002 3.73478 13.0002 4V10.624L19.3002 8.577C19.4259 8.53334 19.5591 8.5152 19.6918 8.52364C19.8246 8.53209 19.9544 8.56695 20.0736 8.62619C20.1927 8.68543 20.2988 8.76784 20.3857 8.86862C20.4726 8.96939 20.5385 9.08649 20.5796 9.21306C20.6206 9.33963 20.636 9.47312 20.6248 9.60571C20.6136 9.73829 20.5761 9.86732 20.5144 9.98522C20.4527 10.1031 20.3681 10.2075 20.2656 10.2923C20.163 10.3771 20.0446 10.4406 19.9172 10.479L13.6172 12.526L18.0992 18.693C18.1764 18.7992 18.232 18.9196 18.2627 19.0473C18.2933 19.1751 18.2986 19.3075 18.278 19.4373C18.2575 19.567 18.2117 19.6914 18.1431 19.8034C18.0745 19.9154 17.9845 20.0128 17.8782 20.09C17.772 20.1672 17.6516 20.2228 17.5239 20.2534C17.3962 20.2841 17.2637 20.2893 17.134 20.2688C17.0042 20.2483 16.8798 20.2024 16.7678 20.1338C16.6558 20.0652 16.5584 19.9752 16.4812 19.869L12.0002 13.7L7.51922 19.87C7.442 19.9763 7.3446 20.0664 7.23258 20.135C7.12056 20.2037 6.99612 20.2496 6.86635 20.2702C6.73658 20.2908 6.60403 20.2856 6.47626 20.2549C6.3485 20.2242 6.22803 20.1687 6.12172 20.0915C6.01542 20.0143 5.92536 19.9169 5.8567 19.8049C5.78803 19.6928 5.74211 19.5684 5.72154 19.4386C5.70097 19.3089 5.70617 19.1763 5.73682 19.0485C5.76748 18.9208 5.823 18.8003 5.90022 18.694L10.3802 12.526L4.08122 10.479C3.95633 10.4384 3.84068 10.3735 3.74085 10.2882C3.64102 10.2028 3.55898 10.0987 3.49941 9.98161C3.37911 9.74522 3.35764 9.47072 3.43972 9.2185C3.52181 8.96628 3.70072 8.757 3.93711 8.63669C4.1735 8.51639 4.448 8.49492 4.70022 8.577L11.0002 10.624V4C11.0002 3.73478 11.1056 3.48043 11.2931 3.29289C11.4807 3.10536 11.735 3 12.0002 3Z" fill="currentColor"/>
</svg>
