<svg width="24" height="24" viewBox="0 0 24 24" fill="none" xmlns="http://www.w3.org/2000/svg">
<path d="M5.63602 10.586C5.311 10.261 5.05318 9.87512 4.87727 9.45046C4.70137 9.0258 4.61084 8.57065 4.61084 8.111C4.61084 7.65135 4.70137 7.1962 4.87727 6.77154C5.05318 6.34688 5.311 5.96102 5.63602 5.636C5.96104 5.31098 6.3469 5.05316 6.77156 4.87726C7.19622 4.70136 7.65137 4.61082 8.11102 4.61082C8.57067 4.61082 9.02582 4.70136 9.45048 4.87726C9.87514 5.05316 10.261 5.31098 10.586 5.636L18.364 13.414C19.0204 14.0704 19.3892 14.9607 19.3892 15.889C19.3892 16.8173 19.0204 17.7076 18.364 18.364C18.039 18.689 17.6531 18.9468 17.2285 19.1227C16.8038 19.2986 16.3487 19.3892 15.889 19.3892C14.9607 19.3892 14.0704 19.0204 13.414 18.364L9.34802 14.298C9.23193 14.1819 9.13984 14.0441 9.07702 13.8924C9.01419 13.7407 8.98185 13.5782 8.98185 13.414C8.98185 13.2498 9.01419 13.0873 9.07702 12.9356C9.13984 12.7839 9.23193 12.6461 9.34802 12.53C9.46411 12.4139 9.60192 12.3218 9.7536 12.259C9.90528 12.1962 10.0678 12.1638 10.232 12.1638C10.3962 12.1638 10.5588 12.1962 10.7104 12.259C10.8621 12.3218 10.9999 12.4139 11.116 12.53L14.828 16.243C15.0157 16.4306 15.2702 16.5361 15.5355 16.5361C15.8009 16.5361 16.0554 16.4306 16.243 16.243C16.4307 16.0554 16.5361 15.8009 16.5361 15.5355C16.5361 15.2701 16.4307 15.0156 16.243 14.828L12.53 11.116C11.9186 10.5158 11.095 10.1812 10.2382 10.1852C9.38143 10.1891 8.56088 10.5312 7.95504 11.137C7.34921 11.7429 7.00711 12.5634 7.00317 13.4202C6.99923 14.277 7.33378 15.1006 7.93402 15.712L12 19.778C12.5095 20.2943 13.1161 20.7048 13.7848 20.9858C14.4536 21.2667 15.1713 21.4126 15.8967 21.415C16.622 21.4175 17.3407 21.2764 18.0113 20.9999C18.6819 20.7234 19.2913 20.3171 19.8042 19.8041C20.3171 19.2912 20.7235 18.6819 20.9999 18.0113C21.2764 17.3407 21.4175 16.622 21.415 15.8966C21.4126 15.1713 21.2667 14.4535 20.9858 13.7848C20.7048 13.116 20.2944 12.5095 19.778 12L12 4.222C11.4906 3.70566 10.884 3.2952 10.2152 3.01425C9.54648 2.73329 8.82875 2.5874 8.10339 2.58497C7.37802 2.58254 6.65934 2.72362 5.98872 3.00009C5.3181 3.27655 4.70879 3.68294 4.19587 4.19585C3.68296 4.70877 3.27657 5.31808 3.00011 5.9887C2.72364 6.65932 2.58256 7.378 2.58499 8.10337C2.58742 8.82873 2.73331 9.54646 3.01426 10.2152C3.29522 10.884 3.70568 11.4905 4.22202 12L4.57502 12.353C4.6672 12.4486 4.77749 12.5248 4.89946 12.5773C5.02142 12.6298 5.15262 12.6575 5.2854 12.6587C5.41818 12.66 5.54987 12.6348 5.6728 12.5846C5.79573 12.5344 5.90744 12.4602 6.00139 12.3664C6.09535 12.2726 6.16968 12.161 6.22005 12.0381C6.27042 11.9153 6.29581 11.7836 6.29476 11.6508C6.2937 11.518 6.26621 11.3868 6.21388 11.2648C6.16156 11.1427 6.08546 11.0323 5.99002 10.94L5.63602 10.586Z" fill="currentColor"/>
</svg>
