<svg width="24" height="24" viewBox="0 0 24 24" fill="none" xmlns="http://www.w3.org/2000/svg">
<path d="M19 4C19.7652 3.99996 20.5015 4.29233 21.0583 4.81728C21.615 5.34224 21.9501 6.06011 21.995 6.824L22 7V17C22 17.7652 21.7077 18.5015 21.1827 19.0583C20.6578 19.615 19.9399 19.9501 19.176 19.995L19 20H5C4.23479 20 3.49849 19.7077 2.94174 19.1827C2.38499 18.6578 2.04989 17.9399 2.005 17.176L2 17V7C1.99996 6.23479 2.29233 5.49849 2.81728 4.94174C3.34224 4.38499 4.06011 4.04989 4.824 4.005L5 4H19ZM6.22 6H5C4.75507 6.00003 4.51866 6.08996 4.33563 6.25272C4.15259 6.41547 4.03566 6.63975 4.007 6.883L4 7V17C4.00003 17.2449 4.08996 17.4813 4.25272 17.6644C4.41547 17.8474 4.63975 17.9643 4.883 17.993L5 18H19C19.2449 18 19.4813 17.91 19.6644 17.7473C19.8474 17.5845 19.9643 17.3603 19.993 17.117L20 17V7C20 6.75507 19.91 6.51866 19.7473 6.33563C19.5845 6.15259 19.3603 6.03566 19.117 6.007L19 6H17.78L16.97 9.243C16.9204 9.44036 16.8118 9.6179 16.6587 9.75191C16.5056 9.88593 16.3152 9.97003 16.113 9.993L16 10H8C7.79648 9.99992 7.59782 9.93775 7.43057 9.82178C7.26332 9.70581 7.13544 9.54157 7.064 9.351L7.03 9.243L6.22 6ZM8.5 12C8.89782 12 9.27936 12.158 9.56066 12.4393C9.84196 12.7206 10 13.1022 10 13.5C10 13.8978 9.84196 14.2794 9.56066 14.5607C9.27936 14.842 8.89782 15 8.5 15C8.10218 15 7.72064 14.842 7.43934 14.5607C7.15804 14.2794 7 13.8978 7 13.5C7 13.1022 7.15804 12.7206 7.43934 12.4393C7.72064 12.158 8.10218 12 8.5 12ZM15.5 12C15.8978 12 16.2794 12.158 16.5607 12.4393C16.842 12.7206 17 13.1022 17 13.5C17 13.8978 16.842 14.2794 16.5607 14.5607C16.2794 14.842 15.8978 15 15.5 15C15.1022 15 14.7206 14.842 14.4393 14.5607C14.158 14.2794 14 13.8978 14 13.5C14 13.1022 14.158 12.7206 14.4393 12.4393C14.7206 12.158 15.1022 12 15.5 12ZM15.72 6H8.28L8.78 8H15.22L15.72 6Z" fill="currentColor"/>
</svg>
