<svg width="24" height="24" viewBox="0 0 24 24" fill="none" xmlns="http://www.w3.org/2000/svg">
<path fill-rule="evenodd" clip-rule="evenodd" d="M16.3161 12.873C16.4414 12.6558 16.6192 12.4734 16.8332 12.3426C17.0472 12.2118 17.2905 12.1368 17.541 12.1244C17.7915 12.1119 18.0411 12.1625 18.267 12.2715C18.4929 12.3804 18.6878 12.5442 18.8341 12.748L18.9141 12.873L22.0481 18.301C22.1743 18.5194 22.2435 18.7662 22.2491 19.0184C22.2547 19.2706 22.1966 19.5202 22.0801 19.744C21.9637 19.9678 21.7927 20.1586 21.5829 20.2988C21.3731 20.439 21.1314 20.524 20.8801 20.546L20.7491 20.551H14.4801C14.2279 20.551 13.9799 20.4875 13.7588 20.3663C13.5377 20.245 13.3507 20.07 13.2152 19.8574C13.0796 19.6448 12.9998 19.4015 12.9832 19.1499C12.9666 18.8983 13.0137 18.6466 13.1201 18.418L13.1811 18.301L16.3161 12.873ZM10.8161 3.347C10.9414 3.12976 11.1192 2.94741 11.3332 2.81663C11.5472 2.68585 11.7905 2.61081 12.041 2.59837C12.2915 2.58594 12.5411 2.63651 12.767 2.74545C12.9929 2.8544 13.1878 3.01824 13.3341 3.222L13.4141 3.347L15.9271 7.699C16.0452 7.90368 16.1133 8.13338 16.1258 8.36937C16.1383 8.60536 16.0949 8.84098 15.9991 9.057L15.9271 9.199L9.80606 19.8C9.68661 20.0069 9.51949 20.1822 9.31859 20.3114C9.11769 20.4407 8.88884 20.5201 8.65106 20.543L8.50606 20.55H3.48106C3.22893 20.55 2.98085 20.4865 2.75977 20.3653C2.53869 20.244 2.35173 20.069 2.21617 19.8564C2.08062 19.6438 2.00084 19.4005 1.98422 19.1489C1.9676 18.8973 2.01466 18.6456 2.12106 18.417L2.18206 18.3L10.8161 3.347ZM17.6151 14.623L15.3471 18.551H19.8831L17.6151 14.623ZM12.1151 5.097L4.34706 18.55H8.21706L14.0501 8.45L12.1151 5.097Z" fill="currentColor"/>
</svg>
