<svg width="24" height="24" viewBox="0 0 24 24" fill="none" xmlns="http://www.w3.org/2000/svg">
<path fill-rule="evenodd" clip-rule="evenodd" d="M6.77816 2.025C6.9106 1.99482 7.0478 1.99193 7.18138 2.01651C7.31497 2.0411 7.44215 2.09264 7.55516 2.168C8.74616 2.962 10.3972 3.452 12.2732 3.726C14.1352 3.999 16.1332 4.048 17.9582 4.022C18.4697 4.01408 18.965 4.20142 19.3433 4.54586C19.7215 4.89031 19.9543 5.36597 19.9942 5.876L20.0002 6.029V8.97C19.9998 9.23642 19.9465 9.50011 19.8433 9.74573C19.7401 9.99136 19.5891 10.214 19.3991 10.4008C19.2091 10.5875 18.9839 10.7346 18.7365 10.8336C18.4891 10.9325 18.2245 10.9812 17.9582 10.977C17.5262 10.9707 17.0942 10.9693 16.6622 10.973L16.0002 10.983V21C16.0001 21.2449 15.9102 21.4813 15.7474 21.6644C15.5847 21.8474 15.3604 21.9643 15.1172 21.993L15.0002 22H12.0002C11.7552 22 11.5188 21.91 11.3358 21.7473C11.1528 21.5845 11.0358 21.3603 11.0072 21.117L11.0002 21V11.502C9.65216 11.793 8.46816 12.223 7.55516 12.832C7.44215 12.9074 7.31497 12.9589 7.18138 12.9835C7.0478 13.0081 6.9106 13.0052 6.77816 12.975C6.38716 12.885 6.21916 12.685 6.08416 12.427L5.93716 12.113L5.88016 11.987L5.75416 11.685C5.67945 11.4962 5.61075 11.3051 5.54816 11.112C5.1786 9.94386 4.9937 8.72518 5.00016 7.5C5.00016 5.974 5.27116 4.745 5.54816 3.888C5.64116 3.602 5.73416 3.357 5.81816 3.156L5.93716 2.886C6.11616 2.5 6.32716 2.128 6.77816 2.025ZM14.0002 11.083C13.6652 11.109 13.3312 11.141 13.0002 11.179V20H14.0002V11.083ZM7.47816 4.422C7.15447 5.41565 6.99306 6.45498 7.00016 7.5C7.00016 8.838 7.24716 9.89 7.47816 10.578C8.83216 9.916 10.4042 9.526 11.9832 9.295C13.9982 9 16.1312 8.973 18.0002 9L18.0032 8.636L18.0002 6C16.1302 6.027 13.9992 6 11.9832 5.705C10.4032 5.475 8.83216 5.084 7.47816 4.422Z" fill="currentColor"/>
</svg>
