<svg width="24" height="24" viewBox="0 0 24 24" fill="none" xmlns="http://www.w3.org/2000/svg">
<path fill-rule="evenodd" clip-rule="evenodd" d="M4.66417 11.942C4.78787 11.9861 4.91906 12.0055 5.05024 11.9989C5.18142 11.9923 5.31002 11.96 5.4287 11.9037C5.54737 11.8475 5.6538 11.7684 5.7419 11.6709C5.83001 11.5735 5.89806 11.4597 5.94217 11.336L6.41917 10H9.58117L10.0582 11.336C10.1023 11.4597 10.1703 11.5735 10.2585 11.6709C10.3466 11.7683 10.453 11.8474 10.5717 11.9037C10.6903 11.96 10.8189 11.9923 10.9501 11.9989C11.0813 12.0055 11.2125 11.9861 11.3362 11.942C11.4599 11.8979 11.5737 11.8298 11.6711 11.7417C11.7685 11.6536 11.8476 11.5472 11.9038 11.4285C11.9601 11.3098 11.9925 11.1812 11.999 11.0501C12.0056 10.9189 11.9863 10.7877 11.9422 10.664L9.61017 4.134C9.49139 3.80212 9.27295 3.51505 8.98475 3.31209C8.69655 3.10913 8.35266 3.00019 8.00017 3.00019C7.64767 3.00019 7.30379 3.10913 7.01558 3.31209C6.72738 3.51505 6.50894 3.80212 6.39017 4.134L4.05817 10.664C4.01402 10.7877 3.99468 10.9189 4.00125 11.0501C4.00782 11.1813 4.04016 11.3099 4.09643 11.4285C4.15271 11.5472 4.23181 11.6536 4.32922 11.7417C4.42664 11.8298 4.54045 11.8979 4.66417 11.942ZM8.00017 5.573L8.86717 8H7.13317L8.00017 5.573ZM16.2932 4.293C16.4807 4.10553 16.735 4.00021 17.0002 4.00021C17.2653 4.00021 17.5196 4.10553 17.7072 4.293L20.5362 7.121C20.7238 7.30864 20.8292 7.56314 20.8292 7.8285C20.8292 8.09386 20.7238 8.34836 20.5362 8.536C20.3485 8.72364 20.094 8.82906 19.8287 8.82906C19.5633 8.82906 19.3088 8.72364 19.1212 8.536L18.0002 7.414V20C18.0002 20.2652 17.8948 20.5196 17.7073 20.7071C17.5197 20.8946 17.2654 21 17.0002 21C16.7349 21 16.4806 20.8946 16.2931 20.7071C16.1055 20.5196 16.0002 20.2652 16.0002 20V7.414L14.8792 8.536C14.7863 8.62891 14.676 8.70261 14.5546 8.75289C14.4332 8.80318 14.3031 8.82906 14.1717 8.82906C14.0403 8.82906 13.9102 8.80318 13.7888 8.75289C13.6674 8.70261 13.5571 8.62891 13.4642 8.536C13.3713 8.44309 13.2976 8.33279 13.2473 8.2114C13.197 8.09 13.1711 7.95989 13.1711 7.8285C13.1711 7.6971 13.197 7.567 13.2473 7.4456C13.2976 7.32421 13.3713 7.21391 13.4642 7.121L16.2932 4.293ZM5.00017 13C4.73495 13 4.4806 13.1054 4.29306 13.2929C4.10552 13.4804 4.00017 13.7348 4.00017 14C4.00017 14.2652 4.10552 14.5196 4.29306 14.7071C4.4806 14.8946 4.73495 15 5.00017 15H8.58617L4.46417 19.122C3.77017 19.815 4.26017 21 5.24017 21H11.0002C11.2654 21 11.5197 20.8946 11.7073 20.7071C11.8948 20.5196 12.0002 20.2652 12.0002 20C12.0002 19.7348 11.8948 19.4804 11.7073 19.2929C11.5197 19.1054 11.2654 19 11.0002 19H7.41417L11.5362 14.878C12.2292 14.185 11.7392 13 10.7592 13H5.00017Z" fill="currentColor"/>
</svg>
