<svg width="24" height="24" viewBox="0 0 24 24" fill="none" xmlns="http://www.w3.org/2000/svg">
<path fill-rule="evenodd" clip-rule="evenodd" d="M10.759 13C11.699 13 12.189 14.092 11.614 14.792L11.536 14.878L7.414 19H11C11.2549 19.0003 11.5 19.0979 11.6854 19.2728C11.8707 19.4478 11.9822 19.687 11.9972 19.9414C12.0121 20.1958 11.9293 20.4464 11.7657 20.6418C11.6021 20.8373 11.3701 20.9629 11.117 20.993L11 21H5.241C4.301 21 3.811 19.908 4.386 19.208L4.464 19.122L8.586 15H5C4.74512 14.9997 4.49996 14.9021 4.31463 14.7272C4.12929 14.5522 4.01776 14.313 4.00282 14.0586C3.98789 13.8042 4.07067 13.5536 4.23426 13.3582C4.39785 13.1627 4.6299 13.0371 4.883 13.007L5 13H10.759ZM17 4C17.2652 4 17.5196 4.10536 17.7071 4.29289C17.8946 4.48043 18 4.73478 18 5V17.414L19.121 16.293C19.2138 16.2001 19.3241 16.1264 19.4454 16.0761C19.5667 16.0258 19.6968 15.9998 19.8281 15.9998C19.9595 15.9998 20.0896 16.0256 20.2109 16.0758C20.3323 16.126 20.4426 16.1997 20.5355 16.2925C20.6284 16.3853 20.7021 16.4956 20.7524 16.6169C20.8027 16.7382 20.8287 16.8683 20.8287 16.9996C20.8287 17.131 20.8029 17.2611 20.7527 17.3824C20.7025 17.5038 20.6288 17.6141 20.536 17.707L17.707 20.535C17.5195 20.7225 17.2652 20.8278 17 20.8278C16.7348 20.8278 16.4805 20.7225 16.293 20.535L13.465 17.707C13.2828 17.5184 13.182 17.2658 13.1843 17.0036C13.1866 16.7414 13.2918 16.4906 13.4772 16.3052C13.6626 16.1198 13.9134 16.0146 14.1756 16.0123C14.4378 16.01 14.6904 16.1108 14.879 16.293L16 17.414V5C16 4.73478 16.1054 4.48043 16.2929 4.29289C16.4804 4.10536 16.7348 4 17 4ZM8 3C8.674 3 9.28 3.396 9.556 4.002L9.61 4.135L11.942 10.664C12.028 10.9043 12.0188 11.1684 11.9164 11.4021C11.8139 11.6359 11.626 11.8216 11.3911 11.9213C11.1561 12.021 10.892 12.0271 10.6527 11.9384C10.4134 11.8497 10.2171 11.6728 10.104 11.444L10.058 11.336L9.581 10H6.419L5.942 11.336C5.85716 11.5775 5.68297 11.7772 5.4553 11.8941C5.22762 12.011 4.9638 12.0362 4.71813 11.9644C4.47247 11.8926 4.26367 11.7294 4.13473 11.5083C4.00579 11.2873 3.96651 11.0252 4.025 10.776L4.058 10.664L6.39 4.134C6.50874 3.80208 6.72716 3.51497 7.01537 3.31198C7.30357 3.10898 7.64748 3.00001 8 3ZM8 5.573L7.133 8H8.867L8 5.573Z" fill="currentColor"/>
</svg>
