<svg width="24" height="24" viewBox="0 0 24 24" fill="none" xmlns="http://www.w3.org/2000/svg">
<path d="M12 2C17.523 2 22 6.477 22 12C22 17.523 17.523 22 12 22C6.477 22 2 17.523 2 12C2 6.477 6.477 2 12 2ZM12 4C10.0098 4.00108 8.09137 4.74399 6.61949 6.08364C5.14761 7.42329 4.22793 9.26348 4.04006 11.2448C3.8522 13.2262 4.40963 15.2065 5.60349 16.7989C6.79736 18.3913 8.54193 19.4815 10.4965 19.8566C12.4511 20.2317 14.4753 19.8648 16.1739 18.8275C17.8724 17.7902 19.1233 16.157 19.6823 14.2469C20.2413 12.3368 20.0682 10.2868 19.1969 8.49748C18.3255 6.70811 16.8184 5.3078 14.97 4.57C15.0582 5.17788 14.9576 5.79818 14.682 6.34708C14.4063 6.89599 13.9688 7.34704 13.4285 7.63931C12.8883 7.93157 12.2713 8.05096 11.661 7.98134C11.0507 7.91171 10.4765 7.65644 10.016 7.25C9.82473 7.08188 9.70481 6.84712 9.6807 6.59361C9.65659 6.3401 9.7301 6.08694 9.88623 5.88577C10.0424 5.6846 10.2694 5.55058 10.5209 5.51104C10.7725 5.4715 11.0297 5.52943 11.24 5.673L11.339 5.75C11.4604 5.85703 11.6059 5.93302 11.7631 5.97142C11.9203 6.00983 12.0844 6.00952 12.2415 5.97051C12.3985 5.9315 12.5438 5.85496 12.6647 5.74747C12.7857 5.63997 12.8788 5.50473 12.9359 5.35335C12.9931 5.20197 13.0127 5.03897 12.993 4.87835C12.9733 4.71774 12.915 4.5643 12.8229 4.4312C12.7309 4.29811 12.6079 4.18934 12.4646 4.11424C12.3212 4.03913 12.1618 3.99993 12 4ZM14.64 15.232C14.8436 15.4018 14.9715 15.6455 14.9955 15.9095C15.0195 16.1735 14.9377 16.4363 14.768 16.64C14.096 17.447 13.124 18 12 18C10.876 18 9.904 17.447 9.232 16.64C9.06974 16.4355 8.99388 16.1756 9.02063 15.916C9.04738 15.6563 9.17463 15.4173 9.37518 15.2502C9.57573 15.0831 9.83369 15.001 10.0939 15.0215C10.3542 15.042 10.5961 15.1635 10.768 15.36C11.127 15.79 11.566 16 12 16C12.434 16 12.873 15.79 13.232 15.36C13.4018 15.1564 13.6455 15.0285 13.9095 15.0045C14.1735 14.9805 14.4363 15.0623 14.64 15.232ZM8.5 10C8.89782 10 9.27936 10.158 9.56066 10.4393C9.84196 10.7206 10 11.1022 10 11.5C10 11.8978 9.84196 12.2794 9.56066 12.5607C9.27936 12.842 8.89782 13 8.5 13C8.10218 13 7.72064 12.842 7.43934 12.5607C7.15804 12.2794 7 11.8978 7 11.5C7 11.1022 7.15804 10.7206 7.43934 10.4393C7.72064 10.158 8.10218 10 8.5 10ZM15.5 10C15.8978 10 16.2794 10.158 16.5607 10.4393C16.842 10.7206 17 11.1022 17 11.5C17 11.8978 16.842 12.2794 16.5607 12.5607C16.2794 12.842 15.8978 13 15.5 13C15.1022 13 14.7206 12.842 14.4393 12.5607C14.158 12.2794 14 11.8978 14 11.5C14 11.1022 14.158 10.7206 14.4393 10.4393C14.7206 10.158 15.1022 10 15.5 10Z" fill="currentColor"/>
</svg>
