<svg width="24" height="24" viewBox="0 0 24 24" fill="none" xmlns="http://www.w3.org/2000/svg">
<path fill-rule="evenodd" clip-rule="evenodd" d="M7.74586 2.609C8.07701 2.48173 8.44291 2.47799 8.77659 2.59846C9.11026 2.71893 9.38939 2.95555 9.56286 3.265L9.62286 3.382L12.6429 10H17.9999V8.5C17.9998 7.86528 18.2411 7.25429 18.6749 6.79095C19.1087 6.32762 19.7025 6.04663 20.3359 6.005L20.4999 6H20.9999C21.2547 6.00028 21.4999 6.09788 21.6852 6.27285C21.8706 6.44781 21.9821 6.68695 21.997 6.94139C22.012 7.19583 21.9292 7.44638 21.7656 7.64183C21.602 7.83728 21.37 7.96289 21.1169 7.993L20.9999 8H20.4999C20.3828 7.99996 20.2695 8.04097 20.1796 8.11589C20.0897 8.1908 20.0289 8.29488 20.0079 8.41L19.9999 8.5V11C19.9997 13.314 19.1084 15.539 17.5109 17.213C17.9162 17.3923 18.2665 17.6761 18.526 18.0354C18.7856 18.3947 18.9449 18.8165 18.9877 19.2576C19.0306 19.6988 18.9554 20.1434 18.7698 20.5458C18.5843 20.9483 18.2951 21.2943 17.9318 21.5482C17.5686 21.8022 17.1444 21.955 16.7026 21.991C16.2609 22.027 15.8175 21.945 15.4179 21.7532C15.0184 21.5615 14.6769 21.267 14.4286 20.8999C14.1803 20.5328 14.0341 20.1062 14.0049 19.664L13.9999 19.485C12.185 20.127 10.2121 20.1701 8.37086 19.608L7.99986 19.485V19.5C7.99977 19.9502 7.8781 20.392 7.64773 20.7788C7.41735 21.1656 7.08681 21.483 6.691 21.6975C6.29519 21.9119 5.8488 22.0156 5.39898 21.9974C4.94915 21.9792 4.51258 21.84 4.13536 21.5942C3.75814 21.3485 3.45426 21.0055 3.25583 20.6014C3.05739 20.1973 2.97176 19.7471 3.00796 19.2984C3.04417 18.8497 3.20087 18.419 3.46153 18.052C3.72219 17.6849 4.07713 17.3951 4.48886 17.213C3.46774 16.1426 2.72621 14.837 2.32992 13.4117C1.93362 11.9864 1.89477 10.4854 2.21681 9.04153C2.53885 7.59766 3.21184 6.25543 4.17623 5.13363C5.14061 4.01183 6.36666 3.14405 7.74586 2.609ZM5.49986 19C5.36726 19 5.24008 19.0527 5.14631 19.1464C5.05254 19.2402 4.99986 19.3674 4.99986 19.5C4.99986 19.6326 5.05254 19.7598 5.14631 19.8535C5.24008 19.9473 5.36726 20 5.49986 20C5.63247 20 5.75965 19.9473 5.85342 19.8535C5.94718 19.7598 5.99986 19.6326 5.99986 19.5C5.99986 19.3674 5.94718 19.2402 5.85342 19.1464C5.75965 19.0527 5.63247 19 5.49986 19ZM16.4999 19C16.3673 19 16.2401 19.0527 16.1463 19.1464C16.0525 19.2402 15.9999 19.3674 15.9999 19.5C15.9999 19.6326 16.0525 19.7598 16.1463 19.8535C16.2401 19.9473 16.3673 20 16.4999 20C16.6325 20 16.7596 19.9473 16.8534 19.8535C16.9472 19.7598 16.9999 19.6326 16.9999 19.5C16.9999 19.3674 16.9472 19.2402 16.8534 19.1464C16.7596 19.0527 16.6325 19 16.4999 19ZM17.9279 12H4.07186C4.31263 13.6657 5.14547 15.1889 6.41783 16.2906C7.69018 17.3922 9.31685 17.9986 10.9999 17.9986C12.6829 17.9986 14.3096 17.3922 15.5819 16.2906C16.8543 15.1889 17.6871 13.6657 17.9279 12ZM8.01186 4.67C7.01242 5.1418 6.13889 5.84354 5.46276 6.71781C4.78664 7.59208 4.32714 8.61402 4.12186 9.7L4.07186 10H10.4439L8.01186 4.67Z" fill="currentColor"/>
</svg>
