<svg width="24" height="24" viewBox="0 0 24 24" fill="none" xmlns="http://www.w3.org/2000/svg">
<path d="M12 2C12.901 2.00008 13.7757 2.30421 14.4823 2.86317C15.189 3.42213 15.6864 4.20321 15.894 5.08C17.0461 5.28976 18.088 5.89708 18.8383 6.79613C19.5886 7.69519 19.9997 8.82899 20 10V19C20 19.7956 19.6839 20.5587 19.1213 21.1213C18.5587 21.6839 17.7956 22 17 22H7C6.20435 22 5.44129 21.6839 4.87868 21.1213C4.31607 20.5587 4 19.7956 4 19V10C3.99987 8.82889 4.41082 7.69488 5.1612 6.79574C5.91157 5.89661 6.95376 5.2894 8.106 5.08C8.31358 4.20321 8.81097 3.42213 9.51765 2.86317C10.2243 2.30421 11.099 2.00008 12 2ZM15 7H9C8.23479 6.99996 7.49849 7.29233 6.94174 7.81728C6.38499 8.34224 6.04989 9.06011 6.005 9.824L6 10V19C6.00003 19.2449 6.08996 19.4813 6.25272 19.6644C6.41547 19.8474 6.63975 19.9643 6.883 19.993L7 20H8V15C7.99984 14.4954 8.19041 14.0094 8.5335 13.6395C8.87659 13.2695 9.34685 13.0428 9.85 13.005L10 13H14C14.5046 12.9998 14.9906 13.1904 15.3605 13.5335C15.7305 13.8766 15.9572 14.3468 15.995 14.85L16 15V20H17C17.2449 20 17.4813 19.91 17.6644 19.7473C17.8474 19.5845 17.9643 19.3603 17.993 19.117L18 19V10C18 9.23479 17.7077 8.49849 17.1827 7.94174C16.6578 7.38499 15.9399 7.04989 15.176 7.005L15 7ZM14 18H10V20H14V18ZM14 15H10V16H14V15ZM13 9C13.2652 9 13.5196 9.10536 13.7071 9.29289C13.8946 9.48043 14 9.73478 14 10C14 10.2652 13.8946 10.5196 13.7071 10.7071C13.5196 10.8946 13.2652 11 13 11H11C10.7348 11 10.4804 10.8946 10.2929 10.7071C10.1054 10.5196 10 10.2652 10 10C10 9.73478 10.1054 9.48043 10.2929 9.29289C10.4804 9.10536 10.7348 9 11 9H13ZM12 4C11.317 4 10.713 4.343 10.353 4.866L10.268 5H13.732C13.5565 4.69597 13.304 4.4435 13 4.26796C12.6959 4.09243 12.3511 4.00001 12 4Z" fill="currentColor"/>
</svg>
