<svg width="24" height="24" viewBox="0 0 24 24" fill="none" xmlns="http://www.w3.org/2000/svg">
<path d="M12 2C16.43 2 20 5.66 20 10.059C20 12.564 18.882 15.016 17.399 16.829C16.391 18.06 15.114 19.112 13.777 19.639L13.49 19.744L13.894 20.553C13.9654 20.6956 14.0016 20.8533 13.9996 21.0128C13.9976 21.1723 13.9575 21.329 13.8826 21.4698C13.8078 21.6106 13.7003 21.7315 13.5692 21.8224C13.4381 21.9132 13.2872 21.9714 13.129 21.992L13 22H11C10.8405 22.0001 10.6832 21.9619 10.5414 21.8888C10.3997 21.8157 10.2774 21.7098 10.1849 21.5798C10.0924 21.4498 10.0324 21.2996 10.0098 21.1417C9.98716 20.9837 10.0027 20.8227 10.055 20.672L10.105 20.552L10.51 19.744C9.07 19.261 7.681 18.148 6.601 16.828C5.118 15.016 4 12.564 4 10.058C4 5.66 7.57 2 12 2ZM12 4C8.698 4 6 6.74 6 10.059C6 11.995 6.882 14.013 8.149 15.562C9.449 17.15 10.943 18 12 18C13.057 18 14.552 17.15 15.851 15.562C17.118 14.013 18 11.995 18 10.059C18 6.74 15.302 4 12 4ZM13.278 5.181C14.932 5.66 16.198 7.021 16.726 8.701C16.7674 8.82683 16.7834 8.95963 16.773 9.09169C16.7626 9.22374 16.7261 9.35242 16.6656 9.47026C16.6051 9.58809 16.5218 9.69273 16.4205 9.77809C16.3192 9.86346 16.202 9.92784 16.0756 9.96752C15.9492 10.0072 15.8162 10.0214 15.6843 10.0092C15.5524 9.99706 15.4242 9.95882 15.3072 9.89672C15.1902 9.83461 15.0867 9.74988 15.0027 9.64744C14.9188 9.54501 14.856 9.42691 14.818 9.3C14.466 8.177 13.653 7.372 12.722 7.102C12.592 7.06902 12.4699 7.01021 12.3631 6.92909C12.2563 6.84796 12.1669 6.74618 12.1002 6.62979C12.0335 6.5134 11.991 6.38479 11.975 6.25161C11.9591 6.11842 11.9701 5.98339 12.0074 5.85455C12.0447 5.72571 12.1075 5.60569 12.1922 5.50164C12.2768 5.39759 12.3815 5.31163 12.5001 5.24888C12.6186 5.18613 12.7486 5.14787 12.8823 5.13638C13.0159 5.12489 13.1505 5.13941 13.278 5.181Z" fill="currentColor"/>
</svg>
