<svg width="24" height="24" viewBox="0 0 24 24" fill="none" xmlns="http://www.w3.org/2000/svg">
<path d="M12.67 2.217L21.17 6.967C21.4195 7.09157 21.6294 7.28323 21.776 7.52047C21.9226 7.7577 22.0002 8.03112 22 8.31V9.75C22 10.44 21.44 11 20.75 11H20V19H21C21.2652 19 21.5196 19.1054 21.7071 19.2929C21.8946 19.4804 22 19.7348 22 20C22 20.2652 21.8946 20.5196 21.7071 20.7071C21.5196 20.8946 21.2652 21 21 21H3C2.73478 21 2.48043 20.8946 2.29289 20.7071C2.10536 20.5196 2 20.2652 2 20C2 19.7348 2.10536 19.4804 2.29289 19.2929C2.48043 19.1054 2.73478 19 3 19H4V11H3.25C2.56 11 2 10.44 2 9.75V8.31C2 7.788 2.27 7.308 2.706 7.036L11.329 2.217C11.5373 2.1128 11.7671 2.05855 12 2.05855C12.2329 2.05855 12.4617 2.1128 12.67 2.217ZM18 11H6V19H9V13H11V19H13V13H15V19H18V11ZM12 4.118L4 8.618V9H20V8.618L12 4.118ZM12 6C12.2652 6 12.5196 6.10536 12.7071 6.29289C12.8946 6.48043 13 6.73478 13 7C13 7.26522 12.8946 7.51957 12.7071 7.70711C12.5196 7.89464 12.2652 8 12 8C11.7348 8 11.4804 7.89464 11.2929 7.70711C11.1054 7.51957 11 7.26522 11 7C11 6.73478 11.1054 6.48043 11.2929 6.29289C11.4804 6.10536 11.7348 6 12 6Z" fill="currentColor"/>
</svg>
