<svg width="24" height="24" viewBox="0 0 24 24" fill="none" xmlns="http://www.w3.org/2000/svg">
<path fill-rule="evenodd" clip-rule="evenodd" d="M16 5C17.34 5 18.476 5.88 18.86 7.093C19.716 7.28174 20.4863 7.74627 21.0526 8.41525C21.619 9.08422 21.9501 9.92063 21.995 10.796L22 11V13C21.9999 13.9115 21.6886 14.7957 21.1176 15.5061C20.5466 16.2166 19.7501 16.7108 18.86 16.907C18.6672 17.5143 18.2861 18.0445 17.772 18.4208C17.2578 18.7971 16.6372 18.9999 16 19C15.4954 19.0002 15.0094 18.8096 14.6395 18.4665C14.2695 18.1234 14.0428 17.6532 14.005 17.15L14 17V13H10V17C10 17.5304 9.78929 18.0391 9.41421 18.4142C9.03914 18.7893 8.53043 19 8 19C6.66 19 5.524 18.12 5.14 16.907C4.28404 16.7183 3.51372 16.2537 2.94736 15.5848C2.381 14.9158 2.04993 14.0794 2.005 13.204L2 13V11C2.00006 10.0885 2.31135 9.20434 2.88236 8.49385C3.45337 7.78337 4.24985 7.28915 5.14 7.093C5.33278 6.4857 5.71386 5.95552 6.22804 5.57923C6.74223 5.20294 7.36283 5.00007 8 5C8.50458 4.99984 8.99057 5.19041 9.36055 5.5335C9.73053 5.87659 9.95716 6.34684 9.995 6.85L10 7V11H14V7C14 6.46957 14.2107 5.96086 14.5858 5.58579C14.9609 5.21071 15.4696 5 16 5ZM16 7V17C16.2652 17 16.5196 16.8946 16.7071 16.7071C16.8946 16.5196 17 16.2652 17 16V8C17 7.73478 16.8946 7.48043 16.7071 7.29289C16.5196 7.10536 16.2652 7 16 7ZM8 7C7.73478 7 7.48043 7.10536 7.29289 7.29289C7.10536 7.48043 7 7.73478 7 8V16C7 16.2652 7.10536 16.5196 7.29289 16.7071C7.48043 16.8946 7.73478 17 8 17V7ZM5 9.268C4.72075 9.42919 4.48461 9.6555 4.31171 9.92765C4.13881 10.1998 4.03427 10.5097 4.007 10.831L4 11V13C4 13.683 4.343 14.287 4.866 14.647L5 14.732V9.268ZM19 9.268V14.732C19.2792 14.5708 19.5154 14.3445 19.6883 14.0723C19.8612 13.8002 19.9657 13.4903 19.993 13.169L20 13V11C20 10.317 19.657 9.713 19.134 9.353L19 9.268Z" fill="currentColor"/>
</svg>
