<svg width="24" height="24" viewBox="0 0 24 24" fill="none" xmlns="http://www.w3.org/2000/svg">
<path d="M12 9C12.2652 9 12.5196 9.10536 12.7071 9.2929C12.8946 9.48043 13 9.73479 13 10V19H15C15.2652 19 15.5196 19.1054 15.7071 19.2929C15.8946 19.4804 16 19.7348 16 20C16 20.2652 15.8946 20.5196 15.7071 20.7071C15.5196 20.8946 15.2652 21 15 21H9.00001C8.73479 21 8.48044 20.8946 8.2929 20.7071C8.10536 20.5196 8.00001 20.2652 8.00001 20C8.00001 19.7348 8.10536 19.4804 8.2929 19.2929C8.48044 19.1054 8.73479 19 9.00001 19H11V10C11 9.73479 11.1054 9.48043 11.2929 9.2929C11.4804 9.10536 11.7348 9 12 9ZM7.05001 3.636C7.23748 3.82353 7.34279 4.07784 7.34279 4.343C7.34279 4.60817 7.23748 4.86247 7.05001 5.05C6.3989 5.69924 5.88259 6.47081 5.53077 7.32032C5.17896 8.16983 4.99857 9.08052 5.00001 10C5.00001 11.933 5.78201 13.682 7.05001 14.95C7.23216 15.1386 7.33296 15.3912 7.33068 15.6534C7.3284 15.9156 7.22323 16.1664 7.03782 16.3518C6.85242 16.5372 6.6016 16.6424 6.33941 16.6447C6.07721 16.647 5.82461 16.5462 5.63601 16.364C4.79917 15.5291 4.13552 14.5371 3.68316 13.445C3.23079 12.3528 2.99863 11.1821 3.00001 10C2.99863 8.8179 3.23079 7.64717 3.68316 6.55504C4.13552 5.46292 4.79917 4.47092 5.63601 3.636C5.82353 3.44853 6.07784 3.34322 6.34301 3.34322C6.60817 3.34322 6.86248 3.44853 7.05001 3.636ZM18.364 3.636C19.2008 4.47092 19.8645 5.46292 20.3169 6.55504C20.7692 7.64717 21.0014 8.8179 21 10C21.0014 11.1821 20.7692 12.3528 20.3169 13.445C19.8645 14.5371 19.2008 15.5291 18.364 16.364C18.1754 16.5462 17.9228 16.647 17.6606 16.6447C17.3984 16.6424 17.1476 16.5372 16.9622 16.3518C16.7768 16.1664 16.6716 15.9156 16.6693 15.6534C16.6671 15.3912 16.7678 15.1386 16.95 14.95C17.6011 14.3008 18.1174 13.5292 18.4692 12.6797C18.8211 11.8302 19.0014 10.9195 19 10C19.0014 9.08052 18.8211 8.16983 18.4692 7.32032C18.1174 6.47081 17.6011 5.69924 16.95 5.05C16.7678 4.8614 16.6671 4.6088 16.6693 4.3466C16.6716 4.0844 16.7768 3.83359 16.9622 3.64818C17.1476 3.46278 17.3984 3.35761 17.6606 3.35533C17.9228 3.35305 18.1754 3.45384 18.364 3.636ZM9.87901 6.464C9.97198 6.55688 10.0457 6.66716 10.0961 6.78856C10.1464 6.90996 10.1723 7.04009 10.1723 7.1715C10.1723 7.30292 10.1464 7.43304 10.0961 7.55444C10.0457 7.67584 9.97198 7.78613 9.87901 7.879C9.59983 8.15709 9.37844 8.48766 9.22758 8.85168C9.07672 9.21569 8.99938 9.60596 9.00001 10C9.00001 10.829 9.33501 11.577 9.87901 12.121C9.97192 12.2139 10.0456 12.3242 10.0959 12.4456C10.1462 12.567 10.1721 12.6971 10.1721 12.8285C10.1721 12.9599 10.1462 13.09 10.0959 13.2114C10.0456 13.3328 9.97192 13.4431 9.87901 13.536C9.7861 13.6289 9.6758 13.7026 9.5544 13.7529C9.43301 13.8032 9.3029 13.8291 9.17151 13.8291C9.04011 13.8291 8.91 13.8032 8.78861 13.7529C8.66722 13.7026 8.55692 13.6289 8.46401 13.536C7.99917 13.072 7.63055 12.5208 7.37931 11.914C7.12808 11.3072 6.99917 10.6568 7.00001 10C7.00001 8.62 7.56001 7.368 8.46401 6.464C8.55688 6.37103 8.66717 6.29727 8.78857 6.24694C8.90996 6.19662 9.04009 6.17072 9.17151 6.17072C9.30292 6.17072 9.43305 6.19662 9.55445 6.24694C9.67584 6.29727 9.78613 6.37103 9.87901 6.464ZM15.536 6.464C16.0008 6.92796 16.3695 7.47917 16.6207 8.08598C16.8719 8.69279 17.0008 9.34324 17 10C17 11.38 16.44 12.632 15.536 13.536C15.4431 13.6289 15.3328 13.7026 15.2114 13.7529C15.09 13.8032 14.9599 13.8291 14.8285 13.8291C14.6971 13.8291 14.567 13.8032 14.4456 13.7529C14.3242 13.7026 14.2139 13.6289 14.121 13.536C14.0281 13.4431 13.9544 13.3328 13.9041 13.2114C13.8538 13.09 13.8279 12.9599 13.8279 12.8285C13.8279 12.6971 13.8538 12.567 13.9041 12.4456C13.9544 12.3242 14.0281 12.2139 14.121 12.121C14.4002 11.8429 14.6216 11.5123 14.7724 11.1483C14.9233 10.7843 15.0006 10.394 15 10C15 9.171 14.665 8.423 14.121 7.879C13.9334 7.69136 13.8279 7.43687 13.8279 7.1715C13.8279 6.90614 13.9334 6.65164 14.121 6.464C14.3086 6.27636 14.5631 6.17095 14.8285 6.17095C15.0939 6.17095 15.3484 6.27636 15.536 6.464Z" fill="currentColor"/>
</svg>
