<svg width="24" height="24" viewBox="0 0 24 24" fill="none" xmlns="http://www.w3.org/2000/svg">
<path fill-rule="evenodd" clip-rule="evenodd" d="M12 2C17.523 2 22 6.477 22 12C22 17.523 17.523 22 12 22C6.477 22 2 17.523 2 12C2 6.477 6.477 2 12 2ZM12 4C10.3947 3.99752 8.8261 4.48029 7.5 5.385C7.91 5.849 8.277 6.353 8.596 6.888L8.64 6.868C8.87114 6.76057 9.13458 6.74546 9.37649 6.82575C9.6184 6.90604 9.82051 7.07568 9.94155 7.29999C10.0626 7.52431 10.0934 7.78638 10.0277 8.03265C9.96196 8.27891 9.80469 8.4908 9.588 8.625L9.442 8.7C9.698 9.432 9.872 10.202 9.951 11H10C10.2652 11 10.5196 11.1054 10.7071 11.2929C10.8946 11.4804 11 11.7348 11 12C11 12.2652 10.8946 12.5196 10.7071 12.7071C10.5196 12.8946 10.2652 13 10 13H9.95C9.87237 13.7841 9.70184 14.5562 9.442 15.3L9.486 15.32C9.60701 15.3743 9.71601 15.452 9.80668 15.5488C9.89734 15.6456 9.96785 15.7594 10.0141 15.8837C10.0604 16.008 10.0814 16.1402 10.0761 16.2728C10.0707 16.4053 10.0391 16.5354 9.983 16.6555C9.9269 16.7757 9.84745 16.8835 9.7493 16.9727C9.65114 17.0618 9.53623 17.1306 9.41125 17.1749C9.28627 17.2193 9.15372 17.2383 9.02131 17.2309C8.88891 17.2236 8.75929 17.1899 8.64 17.132L8.596 17.112C8.27747 17.6458 7.91024 18.1489 7.499 18.615C8.82538 19.5199 10.3943 20.0027 12 20C13.6053 20.0025 15.1739 19.5197 16.5 18.615C16.09 18.15 15.723 17.647 15.404 17.112L15.36 17.132C15.1204 17.2394 14.8482 17.2483 14.6021 17.1567C14.356 17.0652 14.1559 16.8805 14.0448 16.6426C13.9337 16.4047 13.9207 16.1326 14.0084 15.8852C14.0962 15.6377 14.2778 15.4347 14.514 15.32L14.557 15.3C14.2972 14.5562 14.1267 13.7841 14.049 13H14C13.7348 13 13.4804 12.8946 13.2929 12.7071C13.1054 12.5196 13 12.2652 13 12C13 11.7348 13.1054 11.4804 13.2929 11.2929C13.4804 11.1054 13.7348 11 14 11H14.05C14.1275 10.216 14.2977 9.44394 14.557 8.7L14.514 8.68C14.2736 8.56781 14.0876 8.36472 13.9969 8.11539C13.9062 7.86606 13.9183 7.59092 14.0305 7.3505C14.1427 7.11008 14.3458 6.92408 14.5951 6.8334C14.8444 6.74273 15.1196 6.75481 15.36 6.867L15.404 6.888C15.7219 6.3541 16.0889 5.85093 16.5 5.385C15.1739 4.48029 13.6053 3.99752 12 4ZM18 6.708C17.7151 7.03075 17.4566 7.37586 17.227 7.74C17.4515 7.86123 17.6212 8.06371 17.7013 8.30597C17.7814 8.54823 17.7659 8.81195 17.6579 9.04313C17.5499 9.27432 17.3576 9.45548 17.1204 9.54952C16.8832 9.64356 16.6191 9.64338 16.382 9.549C16.232 10.016 16.124 10.502 16.062 11.002C16.3158 11.0181 16.5539 11.1302 16.7279 11.3156C16.9019 11.501 16.9988 11.7457 16.9988 12C16.9988 12.2543 16.9019 12.499 16.7279 12.6844C16.5539 12.8698 16.3158 12.9819 16.062 12.998C16.124 13.498 16.232 13.984 16.382 14.451C16.6186 14.3588 16.8813 14.36 17.117 14.4544C17.3527 14.5488 17.5437 14.7293 17.6512 14.9593C17.7587 15.1893 17.7747 15.4516 17.6959 15.693C17.6171 15.9343 17.4495 16.1367 17.227 16.259C17.457 16.624 17.716 16.969 18 17.292C19.2914 15.8319 20.0029 13.9492 20 12C20.0029 10.0508 19.2914 8.16808 18 6.708ZM6 6.708C4.70863 8.16808 3.9971 10.0508 4 12C3.9971 13.9492 4.70863 15.8319 6 17.292C6.28496 16.969 6.54346 16.6235 6.773 16.259C6.55051 16.1367 6.38288 15.9343 6.3041 15.693C6.22533 15.4516 6.24131 15.1893 6.34881 14.9593C6.45631 14.7293 6.64728 14.5488 6.88298 14.4544C7.11867 14.36 7.38145 14.3588 7.618 14.451C7.768 13.984 7.876 13.498 7.938 12.998C7.68424 12.9819 7.44612 12.8698 7.2721 12.6844C7.09808 12.499 7.00121 12.2543 7.00121 12C7.00121 11.7457 7.09808 11.501 7.2721 11.3156C7.44612 11.1302 7.68424 11.0181 7.938 11.002C7.876 10.502 7.768 10.016 7.618 9.549C7.38093 9.64338 7.11676 9.64356 6.87956 9.54952C6.64236 9.45548 6.45008 9.27432 6.34209 9.04313C6.23411 8.81195 6.21858 8.54823 6.29868 8.30597C6.37879 8.06371 6.54848 7.86123 6.773 7.74C6.54342 7.37583 6.28492 7.03072 6 6.708Z" fill="currentColor"/>
</svg>
