<svg width="24" height="24" viewBox="0 0 24 24" fill="none" xmlns="http://www.w3.org/2000/svg">
<path d="M12 8.5C12.2917 8.49994 12.577 8.5849 12.8211 8.7445C13.0653 8.9041 13.2576 9.13141 13.3745 9.3986C13.4914 9.6658 13.5279 9.96129 13.4795 10.2489C13.4312 10.5365 13.3 10.8038 13.102 11.018L16.914 19.594C16.9673 19.714 16.9965 19.8434 16.9998 19.9747C17.0031 20.106 16.9806 20.2366 16.9334 20.3592C16.8862 20.4818 16.8154 20.5939 16.7249 20.6891C16.6344 20.7842 16.526 20.8607 16.406 20.914C16.286 20.9673 16.1566 20.9965 16.0253 20.9998C15.894 21.0031 15.7634 20.9806 15.6408 20.9334C15.5182 20.8862 15.4061 20.8154 15.311 20.7249C15.2158 20.6344 15.1393 20.526 15.086 20.406L14.461 19H9.54001L8.91501 20.406C8.8617 20.526 8.78526 20.6344 8.69007 20.7249C8.59488 20.8154 8.4828 20.8862 8.36022 20.9334C8.23765 20.9806 8.10699 21.0031 7.97569 20.9998C7.8444 20.9965 7.71504 20.9673 7.59501 20.914C7.47499 20.8607 7.36663 20.7842 7.27615 20.6891C7.18566 20.5939 7.1148 20.4818 7.06763 20.3592C7.02046 20.2366 6.99789 20.106 7.00122 19.9747C7.00454 19.8434 7.0337 19.714 7.08701 19.594L10.899 11.017C10.7015 10.8028 10.5706 10.5357 10.5223 10.2484C10.4741 9.96101 10.5106 9.66582 10.6273 9.39886C10.7441 9.1319 10.9361 8.90473 11.1799 8.74511C11.4236 8.58548 11.7086 8.50031 12 8.5ZM12 13.462L10.428 17H13.572L12 13.462ZM7.05001 3.636C7.23748 3.82353 7.3428 4.07784 7.3428 4.343C7.3428 4.60817 7.23748 4.86247 7.05001 5.05C6.39838 5.69884 5.88171 6.47034 5.52986 7.31994C5.178 8.16954 4.99792 9.08042 5.00001 10C5.00001 11.277 5.34101 12.471 5.93601 13.5C6.0062 13.6138 6.05286 13.7404 6.07325 13.8725C6.09364 14.0046 6.08734 14.1395 6.05473 14.2691C6.02211 14.3987 5.96384 14.5205 5.88336 14.6272C5.80287 14.7339 5.70181 14.8234 5.58615 14.8904C5.47049 14.9574 5.34257 15.0005 5.20995 15.0172C5.07734 15.0339 4.94272 15.0239 4.81405 14.9877C4.68539 14.9515 4.56529 14.8898 4.46085 14.8064C4.35641 14.723 4.26976 14.6195 4.20601 14.502C3.41405 13.1339 2.99798 11.5808 3.00001 10C2.99798 8.8178 3.22984 7.64688 3.68224 6.55466C4.13464 5.46245 4.79865 4.47052 5.63601 3.636C5.82354 3.44853 6.07785 3.34322 6.34301 3.34322C6.60818 3.34322 6.86249 3.44853 7.05001 3.636ZM18.364 3.636C19.2014 4.47052 19.8654 5.46245 20.3178 6.55466C20.7702 7.64688 21.002 8.8178 21 10C21.0023 11.5807 20.5866 13.1338 19.795 14.502C19.7292 14.6157 19.6417 14.7152 19.5374 14.7951C19.4331 14.8749 19.3141 14.9334 19.1873 14.9673C19.0604 15.0011 18.928 15.0096 18.7979 14.9923C18.6677 14.9751 18.5422 14.9323 18.4285 14.8665C18.3149 14.8007 18.2153 14.7132 18.1354 14.6089C18.0556 14.5046 17.9971 14.3856 17.9633 14.2587C17.9294 14.1319 17.9209 13.9995 17.9382 13.8694C17.9555 13.7392 17.9982 13.6137 18.064 13.5C18.6793 12.4363 19.0023 11.2288 19 10C19.0021 9.08042 18.822 8.16954 18.4702 7.31994C18.1183 6.47034 17.6017 5.69884 16.95 5.05C16.7679 4.8614 16.6671 4.6088 16.6693 4.3466C16.6716 4.0844 16.7768 3.83359 16.9622 3.64818C17.1476 3.46278 17.3984 3.35761 17.6606 3.35533C17.9228 3.35305 18.1754 3.45384 18.364 3.636ZM9.87901 6.464C9.97199 6.55688 10.0457 6.66716 10.0961 6.78856C10.1464 6.90996 10.1723 7.04009 10.1723 7.1715C10.1723 7.30292 10.1464 7.43304 10.0961 7.55444C10.0457 7.67584 9.97199 7.78613 9.87901 7.879C9.59962 8.15692 9.37808 8.48746 9.22721 8.85152C9.07633 9.21557 8.99911 9.60592 9.00001 10C9.00001 10.47 9.10701 10.912 9.29801 11.307L9.40101 11.499C9.46681 11.6127 9.50957 11.7382 9.52686 11.8684C9.54414 11.9985 9.53562 12.1309 9.50177 12.2577C9.46793 12.3846 9.40942 12.5036 9.32959 12.6079C9.24976 12.7122 9.15017 12.7997 9.03651 12.8655C8.92285 12.9313 8.79735 12.9741 8.66716 12.9913C8.53698 13.0086 8.40466 13.0001 8.27777 12.9663C8.15088 12.9324 8.0319 12.8739 7.92762 12.7941C7.82334 12.7142 7.73581 12.6147 7.67001 12.501C7.23012 11.741 6.99898 10.8782 7.00001 10C6.99891 9.3432 7.12768 8.69266 7.37894 8.08582C7.63019 7.47897 7.99895 6.9278 8.46401 6.464C8.55689 6.37103 8.66718 6.29727 8.78857 6.24694C8.90997 6.19662 9.0401 6.17072 9.17151 6.17072C9.30293 6.17072 9.43306 6.19662 9.55445 6.24694C9.67585 6.29727 9.78614 6.37103 9.87901 6.464ZM15.536 6.464C16.0011 6.92776 16.3699 7.47893 16.6212 8.08579C16.8724 8.69264 17.0012 9.34319 17 10C17.0011 10.8782 16.7699 11.741 16.33 12.501C16.2015 12.7203 15.9944 12.8824 15.7506 12.9545C15.5069 13.0265 15.2448 13.003 15.0178 12.8888C14.7907 12.7746 14.6157 12.5782 14.5283 12.3395C14.4408 12.1009 14.4475 11.8379 14.547 11.604L14.599 11.5C14.8629 11.0442 15.0012 10.5267 15 10C15.001 9.60591 14.9238 9.21555 14.7729 8.85148C14.622 8.48742 14.4005 8.15689 14.121 7.879C13.9334 7.69136 13.828 7.43687 13.828 7.1715C13.828 6.90614 13.9334 6.65164 14.121 6.464C14.3087 6.27636 14.5631 6.17095 14.8285 6.17095C15.0939 6.17095 15.3484 6.27636 15.536 6.464Z" fill="currentColor"/>
</svg>
