<svg width="24" height="24" viewBox="0 0 24 24" fill="none" xmlns="http://www.w3.org/2000/svg">
<path d="M10.4641 3.28201C10.643 3.06731 10.865 2.8925 11.1157 2.76887C11.3663 2.64524 11.6401 2.57552 11.9194 2.56421C12.1987 2.55291 12.4772 2.60026 12.7371 2.70323C12.9969 2.80619 13.2323 2.96248 13.4281 3.16201L13.5361 3.28201L17.4691 8.00001H20.4541C20.6639 7.99956 20.8715 8.04345 21.0632 8.1288C21.2549 8.21415 21.4265 8.33904 21.5666 8.49528C21.7067 8.65153 21.8122 8.8356 21.8762 9.03546C21.9402 9.23531 21.9613 9.44644 21.9381 9.655L21.8461 10.421L21.7461 11.161L21.6641 11.715L21.5691 12.31L21.4611 12.935L21.3391 13.583L21.2031 14.244C21.1311 14.577 21.0541 14.911 20.9711 15.243C20.7497 16.121 20.4717 16.9838 20.1391 17.826L19.9181 18.366L19.7041 18.854L19.5021 19.288L19.4081 19.482L19.1591 19.972C18.8391 20.582 18.2351 20.942 17.5961 20.994L17.4361 21H6.55505C6.20543 21.0027 5.86164 20.9104 5.56045 20.7328C5.25925 20.5553 5.01197 20.2992 4.84505 19.992L4.61305 19.542L4.43305 19.172C4.401 19.1039 4.36934 19.0355 4.33805 18.967L4.13805 18.518C3.6815 17.4575 3.31097 16.3619 3.03005 15.242C2.97579 15.0246 2.92379 14.8065 2.87405 14.588L2.73205 13.94L2.60505 13.306L2.49305 12.693L2.39305 12.106L2.30605 11.552L2.23205 11.039L2.14205 10.356L2.07605 9.80001C2.07029 9.74902 2.06462 9.69802 2.05905 9.64701C2.03809 9.4505 2.05648 9.25178 2.11316 9.06246C2.16983 8.87313 2.26365 8.69699 2.38914 8.54432C2.51462 8.39165 2.66927 8.26551 2.84404 8.17325C3.01881 8.081 3.2102 8.02448 3.40705 8.00701L3.54305 8.00001H6.53205L10.4641 3.28201ZM19.8831 10H4.11305L4.17505 10.484L4.25105 11.032L4.34305 11.636L4.45105 12.284C4.49105 12.506 4.53205 12.734 4.57705 12.966L4.72005 13.673C4.79605 14.031 4.88005 14.395 4.97005 14.757C5.22396 15.7678 5.55837 16.7566 5.97005 17.714L6.16605 18.155L6.34805 18.539L6.51105 18.862L6.58305 19H17.4101L17.5641 18.697L17.7411 18.332L17.9351 17.909C18.3021 17.084 18.7221 15.991 19.0301 14.757C19.1551 14.257 19.2661 13.749 19.3651 13.25L19.5051 12.512L19.6251 11.803L19.6781 11.464L19.7731 10.827L19.8501 10.257L19.8831 10ZM9.98605 12.836L10.4861 15.836C10.521 16.0937 10.4542 16.3548 10.2998 16.564C10.1454 16.7732 9.91566 16.9141 9.65918 16.9567C9.40271 16.9994 9.1397 16.9405 8.92593 16.7925C8.71215 16.6445 8.56442 16.4191 8.51405 16.164L8.01405 13.164C7.98812 13.0327 7.98882 12.8975 8.0161 12.7664C8.04339 12.6354 8.09671 12.5112 8.1729 12.4011C8.24909 12.291 8.3466 12.1974 8.45965 12.1257C8.5727 12.054 8.69899 12.0058 8.83103 11.9838C8.96308 11.9619 9.09819 11.9666 9.22835 11.9979C9.35852 12.0291 9.48109 12.0861 9.58881 12.1656C9.69652 12.2451 9.78718 12.3454 9.85542 12.4605C9.92366 12.5757 9.96808 12.7034 9.98605 12.836ZM15.0481 12L15.1641 12.013C15.4061 12.0529 15.625 12.1805 15.7792 12.3713C15.9333 12.5621 16.0119 12.803 16.0001 13.048L15.9871 13.164L15.4871 16.164C15.4446 16.4151 15.308 16.6406 15.105 16.7944C14.9021 16.9483 14.6481 17.0189 14.3948 16.9918C14.1416 16.9648 13.9082 16.8421 13.7423 16.6489C13.5764 16.4557 13.4905 16.2064 13.5021 15.952L13.5151 15.836L14.0151 12.836C14.055 12.5943 14.1822 12.3757 14.3726 12.2216C14.563 12.0675 14.8034 11.9886 15.0481 12ZM12.0001 4.56201L9.13505 8.00001H14.8651L12.0001 4.56201Z" fill="currentColor"/>
</svg>
