<svg width="24" height="24" viewBox="0 0 24 24" fill="none" xmlns="http://www.w3.org/2000/svg">
<path fill-rule="evenodd" clip-rule="evenodd" d="M19.0707 4.929C22.9757 8.834 22.9757 15.166 19.0707 19.071C15.1657 22.976 8.83375 22.976 4.92875 19.071C1.02375 15.166 1.02375 8.834 4.92875 4.929C8.83375 1.024 15.1657 1.024 19.0707 4.929ZM11.9998 13.414L7.09375 18.32C8.43706 19.3649 10.0795 19.9526 11.7808 19.997C11.7284 18.1459 12.3212 16.3341 13.4578 14.872L11.9998 13.414ZM14.8868 16.301C14.1593 17.3226 13.7714 18.5469 13.7778 19.801C14.9164 19.5433 15.9844 19.038 16.9058 18.321L14.8868 16.301ZM9.12675 10.542C7.66491 11.6783 5.85354 12.2711 4.00275 12.219C4.04446 13.8017 4.55618 15.3361 5.47275 16.627L5.67975 16.906L10.5858 12L9.12675 10.542ZM19.8008 13.778C18.6471 13.7724 17.5165 14.1002 16.5448 14.722L16.3008 14.887L18.3207 16.906C19.0377 15.9846 19.543 14.9167 19.8008 13.778ZM18.3207 7.094L13.4128 12L14.8708 13.458C16.3328 12.3214 18.1446 11.7286 19.9958 11.781C19.9541 10.1983 19.4424 8.66388 18.5257 7.373L18.3188 7.094H18.3207ZM12.2188 4.003C12.2678 5.73956 11.7493 7.44475 10.7417 8.86L10.5417 9.128L11.9998 10.586L16.9058 5.68C15.5624 4.6351 13.92 4.04745 12.2188 4.003ZM5.67875 7.094C4.96172 8.01535 4.45642 9.08331 4.19875 10.222C5.35237 10.2277 6.48306 9.89985 7.45475 9.278L7.69875 9.113L5.67875 7.094ZM10.2218 4.199C9.08306 4.45667 8.0151 4.96198 7.09375 5.679L9.11275 7.7C9.84009 6.67839 10.228 5.45306 10.2218 4.199Z" fill="currentColor"/>
</svg>
