<svg width="24" height="24" viewBox="0 0 24 24" fill="none" xmlns="http://www.w3.org/2000/svg">
<path d="M18 6C18.5046 5.99984 18.9906 6.19041 19.3605 6.5335C19.7305 6.87659 19.9572 7.34684 19.995 7.85L20 8V9C20.5046 8.99984 20.9906 9.19041 21.3605 9.5335C21.7305 9.87659 21.9572 10.3468 21.995 10.85L22 11V13C22.0002 13.5046 21.8096 13.9906 21.4665 14.3605C21.1234 14.7305 20.6532 14.9572 20.15 14.995L20 15V16C20.0002 16.5046 19.8096 16.9906 19.4665 17.3605C19.1234 17.7305 18.6532 17.9572 18.15 17.995L18 18H4C3.49542 18.0002 3.00943 17.8096 2.63945 17.4665C2.26947 17.1234 2.04284 16.6532 2.005 16.15L2 16V8C1.99984 7.49542 2.19041 7.00943 2.5335 6.63945C2.87659 6.26947 3.34684 6.04284 3.85 6.005L4 6H18ZM18 8H4V16H18V8ZM6 9C6.26522 9 6.51957 9.10536 6.70711 9.29289C6.89464 9.48043 7 9.73478 7 10V14C7 14.2652 6.89464 14.5196 6.70711 14.7071C6.51957 14.8946 6.26522 15 6 15C5.73478 15 5.48043 14.8946 5.29289 14.7071C5.10536 14.5196 5 14.2652 5 14V10C5 9.73478 5.10536 9.48043 5.29289 9.29289C5.48043 9.10536 5.73478 9 6 9ZM9 9C9.24493 9.00003 9.48134 9.08996 9.66437 9.25272C9.84741 9.41547 9.96434 9.63975 9.993 9.883L10 10V14C9.99972 14.2549 9.90212 14.5 9.72715 14.6854C9.55218 14.8707 9.31305 14.9822 9.05861 14.9972C8.80416 15.0121 8.55362 14.9293 8.35817 14.7657C8.16271 14.6021 8.0371 14.3701 8.007 14.117L8 14V10C8 9.73478 8.10536 9.48043 8.29289 9.29289C8.48043 9.10536 8.73478 9 9 9ZM12 9C12.2652 9 12.5196 9.10536 12.7071 9.29289C12.8946 9.48043 13 9.73478 13 10V14C13 14.2652 12.8946 14.5196 12.7071 14.7071C12.5196 14.8946 12.2652 15 12 15C11.7348 15 11.4804 14.8946 11.2929 14.7071C11.1054 14.5196 11 14.2652 11 14V10C11 9.73478 11.1054 9.48043 11.2929 9.29289C11.4804 9.10536 11.7348 9 12 9ZM15 9C15.2449 9.00003 15.4813 9.08996 15.6644 9.25272C15.8474 9.41547 15.9643 9.63975 15.993 9.883L16 10V14C15.9997 14.2549 15.9021 14.5 15.7272 14.6854C15.5522 14.8707 15.313 14.9822 15.0586 14.9972C14.8042 15.0121 14.5536 14.9293 14.3582 14.7657C14.1627 14.6021 14.0371 14.3701 14.007 14.117L14 14V10C14 9.73478 14.1054 9.48043 14.2929 9.29289C14.4804 9.10536 14.7348 9 15 9Z" fill="currentColor"/>
</svg>
