<svg width="24" height="24" viewBox="0 0 24 24" fill="none" xmlns="http://www.w3.org/2000/svg">
<path d="M8 6C8.26522 6 8.51957 6.10536 8.70711 6.29289C8.89464 6.48043 9 6.73478 9 7C9 7.26522 8.89464 7.51957 8.70711 7.70711C8.51957 7.89464 8.26522 8 8 8H4V16H7C7.26522 16 7.51957 16.1054 7.70711 16.2929C7.89464 16.4804 8 16.7348 8 17C8 17.2652 7.89464 17.5196 7.70711 17.7071C7.51957 17.8946 7.26522 18 7 18H4C3.46957 18 2.96086 17.7893 2.58579 17.4142C2.21071 17.0391 2 16.5304 2 16V8C2 7.46957 2.21071 6.96086 2.58579 6.58579C2.96086 6.21071 3.46957 6 4 6H8ZM18 6C18.5304 6 19.0391 6.21071 19.4142 6.58579C19.7893 6.96086 20 7.46957 20 8V9C20.5304 9 21.0391 9.21071 21.4142 9.58579C21.7893 9.96086 22 10.4696 22 11V13C22 13.5304 21.7893 14.0391 21.4142 14.4142C21.0391 14.7893 20.5304 15 20 15V16C20 16.5304 19.7893 17.0391 19.4142 17.4142C19.0391 17.7893 18.5304 18 18 18H14C13.7348 18 13.4804 17.8946 13.2929 17.7071C13.1054 17.5196 13 17.2652 13 17C13 16.7348 13.1054 16.4804 13.2929 16.2929C13.4804 16.1054 13.7348 16 14 16H18V8H15C14.7348 8 14.4804 7.89464 14.2929 7.70711C14.1054 7.51957 14 7.26522 14 7C14 6.73478 14.1054 6.48043 14.2929 6.29289C14.4804 6.10536 14.7348 6 15 6H18ZM12.515 6.143C12.7423 6.27962 12.906 6.5009 12.9701 6.75819C13.0342 7.01547 12.9935 7.2877 12.857 7.515L10.768 11H12.983C13.768 11 14.253 11.857 13.849 12.53L10.859 17.515C10.7914 17.6276 10.7022 17.7258 10.5966 17.8039C10.4911 17.8821 10.3711 17.9387 10.2437 17.9705C10.1162 18.0023 9.98377 18.0087 9.85385 17.9893C9.72394 17.9699 9.59911 17.9251 9.4865 17.8575C9.37389 17.7899 9.27571 17.7007 9.19755 17.5951C9.1194 17.4896 9.0628 17.3696 9.031 17.2422C8.99919 17.1147 8.9928 16.9823 9.01219 16.8524C9.03158 16.7224 9.07637 16.5976 9.144 16.485L11.233 13H9.019C8.84022 13 8.66464 12.9526 8.51018 12.8626C8.35573 12.7725 8.22795 12.6431 8.13988 12.4875C8.05182 12.3319 8.00663 12.1557 8.00894 11.977C8.01124 11.7982 8.06095 11.6233 8.153 11.47L11.143 6.486C11.2106 6.37326 11.2997 6.27494 11.4053 6.19667C11.5109 6.1184 11.6309 6.06172 11.7584 6.02986C11.8859 5.99801 12.0185 5.9916 12.1485 6.01101C12.2785 6.03043 12.4024 6.07528 12.515 6.143Z" fill="currentColor"/>
</svg>
