<svg width="24" height="24" viewBox="0 0 24 24" fill="none" xmlns="http://www.w3.org/2000/svg">
<path d="M18 6C18.5304 6 19.0391 6.21071 19.4142 6.58579C19.7893 6.96086 20 7.46957 20 8V9C20.5304 9 21.0391 9.21071 21.4142 9.58579C21.7893 9.96086 22 10.4696 22 11V13C22 13.5304 21.7893 14.0391 21.4142 14.4142C21.0391 14.7893 20.5304 15 20 15V16C20 16.5304 19.7893 17.0391 19.4142 17.4142C19.0391 17.7893 18.5304 18 18 18H4C3.46957 18 2.96086 17.7893 2.58579 17.4142C2.21071 17.0391 2 16.5304 2 16V8C2 7.46957 2.21071 6.96086 2.58579 6.58579C2.96086 6.21071 3.46957 6 4 6H18ZM18 8H4V16H18V8ZM6 9C6.24493 9.00003 6.48134 9.08996 6.66437 9.25272C6.84741 9.41547 6.96434 9.63975 6.993 9.883L7 10V14C6.99972 14.2549 6.90212 14.5 6.72715 14.6854C6.55218 14.8707 6.31305 14.9822 6.05861 14.9972C5.80416 15.0121 5.55362 14.9293 5.35817 14.7657C5.16271 14.6021 5.0371 14.3701 5.007 14.117L5 14V10C5 9.73478 5.10536 9.48043 5.29289 9.29289C5.48043 9.10536 5.73478 9 6 9ZM9 9C9.26522 9 9.51957 9.10536 9.70711 9.29289C9.89464 9.48043 10 9.73478 10 10V14C10 14.2652 9.89464 14.5196 9.70711 14.7071C9.51957 14.8946 9.26522 15 9 15C8.73478 15 8.48043 14.8946 8.29289 14.7071C8.10536 14.5196 8 14.2652 8 14V10C8 9.73478 8.10536 9.48043 8.29289 9.29289C8.48043 9.10536 8.73478 9 9 9ZM12 9C12.2449 9.00003 12.4813 9.08996 12.6644 9.25272C12.8474 9.41547 12.9643 9.63975 12.993 9.883L13 10V14C12.9997 14.2549 12.9021 14.5 12.7272 14.6854C12.5522 14.8707 12.313 14.9822 12.0586 14.9972C11.8042 15.0121 11.5536 14.9293 11.3582 14.7657C11.1627 14.6021 11.0371 14.3701 11.007 14.117L11 14V10C11 9.73478 11.1054 9.48043 11.2929 9.29289C11.4804 9.10536 11.7348 9 12 9Z" fill="currentColor"/>
</svg>
