<svg width="24" height="24" viewBox="0 0 24 24" fill="none" xmlns="http://www.w3.org/2000/svg">
<path fill-rule="evenodd" clip-rule="evenodd" d="M12 2C17.523 2 22 6.477 22 12C22.0036 14.542 21.0355 16.9893 19.294 18.841L19.024 19.118C17.1545 20.9676 14.6298 22.0035 12 22C6.477 22 2 17.523 2 12C2 6.477 6.477 2 12 2ZM6.343 12.707C6.01796 13.032 5.76012 13.4179 5.5842 13.8425C5.40829 14.2672 5.31775 14.7223 5.31775 15.182C5.31775 15.6417 5.40829 16.0968 5.5842 16.5215C5.76012 16.9461 6.01796 17.332 6.343 17.657C7.14436 18.4607 8.10804 19.0842 9.16965 19.4857C10.2313 19.8871 11.3663 20.0574 12.499 19.985C11.8393 19.6162 11.2626 19.1155 10.8049 18.514C10.3472 17.9125 10.0184 17.2232 9.83893 16.489C9.65944 15.7548 9.63314 14.9915 9.76168 14.2467C9.89021 13.5019 10.1708 12.7916 10.586 12.16C9.91774 11.7695 9.13892 11.6113 8.37126 11.7103C7.60361 11.8093 6.89036 12.1597 6.343 12.707ZM19.985 11.5C19.6157 12.1592 19.1147 12.7353 18.5132 13.1925C17.9116 13.6498 17.2225 13.9784 16.4885 14.1579C15.7546 14.3374 14.9916 14.364 14.2469 14.2361C13.5023 14.1081 12.7919 13.8283 12.16 13.414C11.7362 14.145 11.5909 15.0046 11.7511 15.8343C11.9112 16.6639 12.366 17.4077 13.0314 17.9285C13.6969 18.4492 14.5282 18.7118 15.372 18.6678C16.2159 18.6238 17.0153 18.2761 17.623 17.689C18.4372 16.8869 19.0695 15.9192 19.477 14.8513C19.8845 13.7835 20.0578 12.6406 19.985 11.5ZM11.293 6.342C10.968 6.01696 10.5821 5.75912 10.1575 5.5832C9.73281 5.40729 9.27766 5.31675 8.818 5.31675C8.35834 5.31675 7.90319 5.40729 7.47853 5.5832C7.05386 5.75912 6.66801 6.01696 6.343 6.342C5.53899 7.14358 4.9154 8.1076 4.51392 9.16957C4.11245 10.2315 3.94235 11.367 4.015 12.5C4.38377 11.8403 4.88452 11.2636 5.48601 10.8059C6.0875 10.3483 6.77684 10.0194 7.51102 9.83993C8.24521 9.66044 9.00851 9.63414 9.75331 9.76268C10.4981 9.89121 11.2084 10.1718 11.84 10.587C12.2307 9.91879 12.3889 9.13993 12.29 8.37223C12.191 7.60453 11.8404 6.89127 11.293 6.344M12 4C11.832 4 11.666 4.005 11.5 4.015C12.1598 4.38369 12.7366 4.88437 13.1944 5.48582C13.6521 6.08727 13.9811 6.77659 14.1606 7.51079C14.3402 8.24498 14.3666 9.0083 14.2382 9.75315C14.1097 10.498 13.8291 11.2084 13.414 11.84C14.1486 12.2669 15.0133 12.4122 15.847 12.2488C16.6808 12.0854 17.4267 11.6245 17.9458 10.952C18.465 10.2794 18.7219 9.44108 18.6688 8.59313C18.6156 7.74519 18.256 6.94548 17.657 6.343C16.9149 5.59903 16.0331 5.00905 15.0623 4.60696C14.0915 4.20487 13.0508 3.9986 12 4Z" fill="currentColor"/>
</svg>
