<svg width="24" height="24" viewBox="0 0 24 24" fill="none" xmlns="http://www.w3.org/2000/svg">
<path fill-rule="evenodd" clip-rule="evenodd" d="M18.5002 2C19.2663 1.99966 20.0115 2.25074 20.6212 2.71473C21.2309 3.17871 21.6716 3.82996 21.8755 4.56852C22.0794 5.30708 22.0353 6.09215 21.75 6.80325C21.4647 7.51434 20.954 8.11218 20.2962 8.505C20.8128 9.73337 21.0503 11.0612 20.9913 12.3925C20.9324 13.7238 20.5786 15.0254 19.9554 16.2033C19.3322 17.3812 18.4552 18.406 17.3877 19.2038C16.3203 20.0015 15.089 20.5522 13.7828 20.8162C12.4765 21.0801 11.128 21.0507 9.83455 20.73C8.5411 20.4094 7.33498 19.8055 6.30332 18.962C5.27166 18.1185 4.44018 17.0564 3.86895 15.8524C3.29771 14.6484 3.00097 13.3326 3.00015 12C3.00015 10.76 3.25015 9.58 3.70415 8.505C3.24721 8.23184 2.85859 7.85805 2.56789 7.41206C2.27718 6.96607 2.09205 6.45964 2.02657 5.93132C1.9611 5.40299 2.017 4.86669 2.19004 4.36323C2.36308 3.85977 2.64869 3.40242 3.02513 3.02598C3.40157 2.64953 3.85892 2.36393 4.36238 2.19089C4.86584 2.01785 5.40214 1.96195 5.93047 2.02742C6.45879 2.0929 6.96522 2.27803 7.41121 2.56874C7.8572 2.85944 8.231 3.24805 8.50415 3.705C9.6105 3.23808 10.7993 2.99801 12.0002 2.999C13.2402 2.999 14.4202 3.249 15.4952 3.703C15.8058 3.18336 16.2461 2.75324 16.7728 2.45473C17.2995 2.15623 17.8947 1.99954 18.5002 2ZM12.0002 5C11.0809 5 10.1706 5.18106 9.32137 5.53284C8.47209 5.88463 7.70042 6.40024 7.05041 7.05025C6.4004 7.70026 5.88478 8.47194 5.533 9.32122C5.18121 10.1705 5.00015 11.0807 5.00015 12C5.00015 12.9193 5.18121 13.8295 5.533 14.6788C5.88478 15.5281 6.4004 16.2997 7.05041 16.9497C7.70042 17.5998 8.47209 18.1154 9.32137 18.4672C10.1706 18.8189 11.0809 19 12.0002 19C13.8567 19 15.6371 18.2625 16.9499 16.9497C18.2627 15.637 19.0002 13.8565 19.0002 12C19.0002 10.1435 18.2627 8.36301 16.9499 7.05025C15.6371 5.7375 13.8567 5 12.0002 5ZM12.0002 12C12.3027 11.9998 12.5983 12.0912 12.848 12.262C13.0978 12.4329 13.29 12.6753 13.3995 12.9574C13.5089 13.2395 13.5305 13.5481 13.4614 13.8427C13.3923 14.1372 13.2357 14.404 13.0122 14.608C13.0367 14.7191 13.0985 14.8185 13.1872 14.8898C13.276 14.9611 13.3863 15 13.5002 15C13.7654 15 14.0197 15.1054 14.2073 15.2929C14.3948 15.4804 14.5002 15.7348 14.5002 16C14.5002 16.2652 14.3948 16.5196 14.2073 16.7071C14.0197 16.8946 13.7654 17 13.5002 17C12.9591 17.0007 12.4326 16.8252 12.0002 16.5C11.5678 16.8252 11.0412 17.0007 10.5002 17C10.2349 17 9.98058 16.8946 9.79305 16.7071C9.60551 16.5196 9.50015 16.2652 9.50015 16C9.50015 15.7348 9.60551 15.4804 9.79305 15.2929C9.98058 15.1054 10.2349 15 10.5002 15C10.614 15 10.7244 14.9611 10.8131 14.8898C10.9018 14.8185 10.9636 14.7191 10.9882 14.608C10.7646 14.404 10.608 14.1372 10.5389 13.8427C10.4698 13.5481 10.4914 13.2395 10.6008 12.9574C10.7103 12.6753 10.9025 12.4329 11.1523 12.262C11.402 12.0912 11.6976 11.9998 12.0002 12ZM9.00015 9C9.24509 9.00003 9.48149 9.08996 9.66453 9.25272C9.84756 9.41548 9.9645 9.63975 9.99315 9.883L10.0002 10V11C9.99987 11.2549 9.90227 11.5 9.7273 11.6854C9.55234 11.8707 9.3132 11.9822 9.05876 11.9972C8.80432 12.0121 8.55377 11.9293 8.35832 11.7657C8.16287 11.6021 8.03726 11.3701 8.00715 11.117L8.00015 11V10C8.00015 9.73478 8.10551 9.48043 8.29305 9.29289C8.48058 9.10536 8.73494 9 9.00015 9ZM15.0002 9C15.2654 9 15.5197 9.10536 15.7073 9.29289C15.8948 9.48043 16.0002 9.73478 16.0002 10V11C16.0002 11.2652 15.8948 11.5196 15.7073 11.7071C15.5197 11.8946 15.2654 12 15.0002 12C14.7349 12 14.4806 11.8946 14.293 11.7071C14.1055 11.5196 14.0002 11.2652 14.0002 11V10C14.0002 9.73478 14.1055 9.48043 14.293 9.29289C14.4806 9.10536 14.7349 9 15.0002 9ZM5.50015 4C5.17667 3.99999 4.86185 4.10456 4.60266 4.2981C4.34346 4.49165 4.15378 4.7638 4.0619 5.07396C3.97002 5.38412 3.98087 5.71567 4.09283 6.01916C4.20479 6.32265 4.41186 6.58182 4.68315 6.758C5.25736 5.95808 5.95823 5.2572 6.75815 4.683C6.62206 4.47328 6.43566 4.30093 6.21595 4.18164C5.99623 4.06235 5.75016 3.99991 5.50015 4ZM18.5002 4C18.2502 4 18.0041 4.06248 17.7844 4.18176C17.5647 4.30104 17.3783 4.47334 17.2422 4.683C18.0421 5.25722 18.7429 5.95809 19.3172 6.758C19.5891 6.58223 19.7969 6.32311 19.9093 6.0194C20.0218 5.7157 20.0328 5.38375 19.9408 5.07324C19.8489 4.76273 19.6588 4.49036 19.3991 4.29689C19.1394 4.10342 18.824 3.99926 18.5002 4Z" fill="currentColor"/>
</svg>
