<svg width="24" height="24" viewBox="0 0 24 24" fill="none" xmlns="http://www.w3.org/2000/svg">
<path fill-rule="evenodd" clip-rule="evenodd" d="M11.9803 13.594C10.6403 15.373 8.42826 16.226 6.32026 15.948C3.93726 15.634 1.77426 13.898 1.02626 10.7C0.983231 10.516 0.993239 10.3235 1.05512 10.1449C1.11701 9.96633 1.22823 9.80894 1.37591 9.69098C1.52359 9.57303 1.70167 9.49934 1.88952 9.47846C2.07737 9.45758 2.26728 9.49036 2.43726 9.573C4.53026 10.589 6.47126 9.509 8.09126 8.218C8.81926 7.638 9.62626 7.355 10.4303 7.45C11.0503 7.523 11.5763 7.811 11.9803 8.211C12.3853 7.811 12.9103 7.523 13.5313 7.45C14.3353 7.355 15.1423 7.638 15.8713 8.218C17.4903 9.509 19.4313 10.589 21.5243 9.573C21.6942 9.49064 21.884 9.45808 22.0717 9.47909C22.2593 9.50011 22.4372 9.57384 22.5848 9.69175C22.7323 9.80965 22.8434 9.96692 22.9052 10.1454C22.9671 10.3238 22.9772 10.5161 22.9343 10.7C22.1873 13.898 20.0243 15.634 17.6413 15.948C15.5333 16.226 13.3213 15.373 11.9813 13.594H11.9803ZM10.6333 12.015C9.79326 13.443 8.15326 14.172 6.58226 13.965C5.48926 13.822 4.38426 13.213 3.64226 11.959C6.02226 12.168 8.05026 10.809 9.33826 9.782C9.75326 9.452 10.0423 9.418 10.1953 9.436C10.8093 9.508 10.9743 10.346 10.9803 10.837C10.9674 11.2529 10.8479 11.6585 10.6333 12.015ZM12.9813 10.837C12.9893 11.204 13.0903 11.611 13.3283 12.015C14.1683 13.443 15.8083 14.172 17.3803 13.965C18.4723 13.822 19.5773 13.213 20.3203 11.959C17.9383 12.168 15.9103 10.809 14.6233 9.782C14.2083 9.452 13.9203 9.418 13.7663 9.436C13.1523 9.508 12.9873 10.346 12.9803 10.837H12.9813Z" fill="currentColor"/>
</svg>
