<svg width="24" height="24" viewBox="0 0 24 24" fill="none" xmlns="http://www.w3.org/2000/svg">
<path fill-rule="evenodd" clip-rule="evenodd" d="M3 5C3 4.46957 3.21071 3.96086 3.58579 3.58579C3.96086 3.21071 4.46957 3 5 3H19C19.5304 3 20.0391 3.21071 20.4142 3.58579C20.7893 3.96086 21 4.46957 21 5V17C21 17.5304 20.7893 18.0391 20.4142 18.4142C20.0391 18.7893 19.5304 19 19 19H17.618L17.894 19.553C17.9576 19.6709 17.9968 19.8003 18.0094 19.9336C18.022 20.067 18.0077 20.2015 17.9673 20.3292C17.9269 20.4569 17.8613 20.5751 17.7743 20.677C17.6874 20.7788 17.5808 20.8622 17.461 20.9221C17.3413 20.982 17.2107 21.0172 17.077 21.0256C16.9433 21.0341 16.8094 21.0156 16.683 20.9713C16.5566 20.927 16.4404 20.8578 16.3413 20.7677C16.2422 20.6776 16.1622 20.5686 16.106 20.447L15.382 19H8.618L7.894 20.447C7.83784 20.5686 7.75783 20.6776 7.65872 20.7677C7.5596 20.8578 7.44341 20.927 7.31703 20.9713C7.19065 21.0156 7.05666 21.0341 6.923 21.0256C6.78934 21.0172 6.65875 20.982 6.53897 20.9221C6.41918 20.8622 6.31265 20.7788 6.22569 20.677C6.13872 20.5751 6.0731 20.4569 6.03272 20.3292C5.99234 20.2015 5.97802 20.067 5.99061 19.9336C6.00319 19.8003 6.04243 19.6709 6.106 19.553L6.382 19H5C4.46957 19 3.96086 18.7893 3.58579 18.4142C3.21071 18.0391 3 17.5304 3 17V5ZM8.022 17C8.008 16.9997 7.994 16.9997 7.98 17H5V5H11V17H8.022ZM13 17H15.978C15.992 16.9997 16.006 16.9997 16.02 17H19V5H13V17ZM9 9C9.26522 9 9.51957 9.10536 9.70711 9.29289C9.89464 9.48043 10 9.73478 10 10V12C10 12.2652 9.89464 12.5196 9.70711 12.7071C9.51957 12.8946 9.26522 13 9 13C8.73478 13 8.48043 12.8946 8.29289 12.7071C8.10536 12.5196 8 12.2652 8 12V10C8 9.73478 8.10536 9.48043 8.29289 9.29289C8.48043 9.10536 8.73478 9 9 9ZM15 9C15.2652 9 15.5196 9.10536 15.7071 9.29289C15.8946 9.48043 16 9.73478 16 10V12C16 12.2652 15.8946 12.5196 15.7071 12.7071C15.5196 12.8946 15.2652 13 15 13C14.7348 13 14.4804 12.8946 14.2929 12.7071C14.1054 12.5196 14 12.2652 14 12V10C14 9.73478 14.1054 9.48043 14.2929 9.29289C14.4804 9.10536 14.7348 9 15 9Z" fill="currentColor"/>
</svg>
