<svg width="24" height="24" viewBox="0 0 24 24" fill="none" xmlns="http://www.w3.org/2000/svg">
<path fill-rule="evenodd" clip-rule="evenodd" d="M8 5C8.81251 4.99995 9.60576 5.24734 10.2742 5.70924C10.9426 6.17114 11.4546 6.82565 11.7419 7.58567C12.0292 8.34569 12.0782 9.17518 11.8824 9.96375C11.6866 10.7523 11.2554 11.4626 10.646 12C11.2554 12.5374 11.6866 13.2477 11.8824 14.0362C12.0782 14.8248 12.0292 15.6543 11.7419 16.4143C11.4546 17.1744 10.9426 17.8289 10.2742 18.2908C9.60576 18.7527 8.81251 19.0001 8 19H4C3.46957 19 2.96086 18.7893 2.58579 18.4142C2.21071 18.0391 2 17.5304 2 17V7C2 6.46957 2.21071 5.96086 2.58579 5.58579C2.96086 5.21071 3.46957 5 4 5H8ZM17.5 9C20.107 9 22 11.368 22 14C22 14.2449 21.91 14.4813 21.7473 14.6644C21.5845 14.8474 21.3603 14.9643 21.117 14.993L21 15H15.14C15.498 16.224 16.493 17 17.5 17C18.58 17 19.192 16.489 19.74 15.85C19.9124 15.6484 20.1578 15.5236 20.4222 15.503C20.6866 15.4824 20.9484 15.5676 21.15 15.74C21.3516 15.9124 21.4764 16.1578 21.497 16.4222C21.5177 16.6866 21.4324 16.9484 21.26 17.15L21.153 17.272L20.924 17.518C20.202 18.26 19.146 19 17.5 19C14.893 19 13 16.632 13 14C13 11.368 14.893 9 17.5 9ZM8 13H4V17H8C8.51898 17.0023 9.01855 16.8028 9.39315 16.4436C9.76776 16.0844 9.98807 15.5937 10.0075 15.0751C10.027 14.5564 9.84412 14.0506 9.49751 13.6643C9.15089 13.278 8.6677 13.0416 8.15 13.005L8 13ZM17.5 11C16.493 11 15.498 11.776 15.14 13H19.86C19.502 11.776 18.507 11 17.5 11ZM8 7H4V11H8C8.53043 11 9.03914 10.7893 9.41421 10.4142C9.78929 10.0391 10 9.53043 10 9C10 8.46957 9.78929 7.96086 9.41421 7.58579C9.03914 7.21071 8.53043 7 8 7ZM19 6C19.2652 6 19.5196 6.10536 19.7071 6.29289C19.8946 6.48043 20 6.73478 20 7C20 7.26522 19.8946 7.51957 19.7071 7.70711C19.5196 7.89464 19.2652 8 19 8H16C15.7348 8 15.4804 7.89464 15.2929 7.70711C15.1054 7.51957 15 7.26522 15 7C15 6.73478 15.1054 6.48043 15.2929 6.29289C15.4804 6.10536 15.7348 6 16 6H19Z" fill="currentColor"/>
</svg>
