<svg width="24" height="24" viewBox="0 0 24 24" fill="none" xmlns="http://www.w3.org/2000/svg">
<path d="M12 1C12.2449 1.00003 12.4813 1.08996 12.6644 1.25272C12.8474 1.41547 12.9643 1.63975 12.993 1.883L13 2V3.697L14.832 6.445C14.874 6.509 14.909 6.577 14.936 6.648L14.97 6.758L15.28 8H16C16.2449 8.00003 16.4813 8.08996 16.6644 8.25272C16.8474 8.41547 16.9643 8.63975 16.993 8.883L17 9V15C17 15.2449 16.91 15.4813 16.7473 15.6644C16.5845 15.8474 16.3603 15.9643 16.117 15.993L16 16V21C16.2549 21.0003 16.5 21.0979 16.6854 21.2728C16.8707 21.4478 16.9822 21.687 16.9972 21.9414C17.0121 22.1958 16.9293 22.4464 16.7657 22.6418C16.6021 22.8373 16.3701 22.9629 16.117 22.993L16 23H8C7.74512 22.9997 7.49997 22.9021 7.31463 22.7272C7.1293 22.5522 7.01777 22.313 7.00283 22.0586C6.98789 21.8042 7.07067 21.5536 7.23426 21.3582C7.39786 21.1627 7.6299 21.0371 7.883 21.007L8 21V16C7.75507 16 7.51866 15.91 7.33563 15.7473C7.15259 15.5845 7.03566 15.3603 7.007 15.117L7 15V9C7.00003 8.75507 7.08996 8.51866 7.25272 8.33563C7.41547 8.15259 7.63975 8.03566 7.883 8.007L8 8H8.72L9.03 6.757C9.04848 6.68319 9.07532 6.61173 9.11 6.544L9.168 6.445L11 3.697V2C11 1.73478 11.1054 1.48043 11.2929 1.29289C11.4804 1.10536 11.7348 1 12 1ZM14 17H10V21H14V17ZM12 5.803L10.928 7.41L10.47 9.242C10.416 9.45843 10.2912 9.6506 10.1155 9.78795C9.9397 9.9253 9.72306 9.99994 9.5 10H9V14C9.26522 14 9.51957 14.1054 9.70711 14.2929C9.89464 14.4804 10 14.7348 10 15H14C14 14.7348 14.1054 14.4804 14.2929 14.2929C14.4804 14.1054 14.7348 14 15 14V10H14.5C14.2771 9.99999 14.0605 9.9255 13.8848 9.78834C13.709 9.65119 13.5842 9.45925 13.53 9.243L13.072 7.411L12 5.803ZM12 9C12.2449 9.00003 12.4813 9.08996 12.6644 9.25272C12.8474 9.41547 12.9643 9.63975 12.993 9.883L13 10V11C13.2549 11.0003 13.5 11.0979 13.6854 11.2728C13.8707 11.4478 13.9822 11.687 13.9972 11.9414C14.0121 12.1958 13.9293 12.4464 13.7657 12.6418C13.6021 12.8373 13.3701 12.9629 13.117 12.993L13 13H12C11.7551 13 11.5187 12.91 11.3356 12.7473C11.1526 12.5845 11.0357 12.3603 11.007 12.117L11 12V10C11 9.73478 11.1054 9.48043 11.2929 9.29289C11.4804 9.10536 11.7348 9 12 9Z" fill="currentColor"/>
</svg>
