<svg width="24" height="24" viewBox="0 0 24 24" fill="none" xmlns="http://www.w3.org/2000/svg">
<path fill-rule="evenodd" clip-rule="evenodd" d="M9.17495 13.415L12.0029 16.244L14.8319 13.416C15.0195 13.2285 15.2738 13.1232 15.5389 13.1232C15.8041 13.1232 16.0584 13.2285 16.2459 13.416L18.0139 15.183C18.1069 15.2759 18.1807 15.3862 18.231 15.5076C18.2813 15.629 18.3072 15.7591 18.3072 15.8905C18.3072 16.0219 18.2813 16.152 18.231 16.2734C18.1807 16.3948 18.1069 16.5051 18.0139 16.598L12.7099 21.9C12.5224 22.0875 12.2681 22.1928 12.0029 22.1928C11.7378 22.1928 11.4835 22.0875 11.2959 21.9L5.99295 16.596C5.80548 16.4085 5.70016 16.1542 5.70016 15.889C5.70016 15.6238 5.80548 15.3695 5.99295 15.182L7.75995 13.414C7.85282 13.321 7.96311 13.2473 8.08451 13.1969C8.20591 13.1466 8.33603 13.1207 8.46745 13.1207C8.59886 13.1207 8.72899 13.1466 8.85039 13.1969C8.97179 13.2473 9.08208 13.321 9.17495 13.414V13.415ZM15.5389 15.537L12.7099 18.365C12.5224 18.5525 12.2681 18.6578 12.0029 18.6578C11.7378 18.6578 11.4835 18.5525 11.2959 18.365L8.46795 15.537L8.11395 15.89L12.0039 19.78L15.8919 15.89L15.5389 15.537ZM20.1319 9.524L21.8999 11.292C22.0874 11.4795 22.1927 11.7338 22.1927 11.999C22.1927 12.2642 22.0874 12.5185 21.8999 12.706L20.1319 14.474C19.9444 14.6615 19.6901 14.7668 19.4249 14.7668C19.1598 14.7668 18.9055 14.6615 18.7179 14.474L16.9499 12.706C16.7625 12.5185 16.6572 12.2642 16.6572 11.999C16.6572 11.7338 16.7625 11.4795 16.9499 11.292L18.7179 9.524C18.9055 9.33653 19.1598 9.23121 19.4249 9.23121C19.6901 9.23121 19.9444 9.33653 20.1319 9.524ZM12.6129 9.441L12.7079 9.524L14.4759 11.292C14.6481 11.4642 14.7516 11.6933 14.7668 11.9363C14.7821 12.1793 14.7082 12.4196 14.5589 12.612L14.4759 12.706L12.7079 14.474C12.5364 14.6453 12.3085 14.7484 12.0666 14.7642C11.8247 14.7801 11.5853 14.7075 11.3929 14.56L11.2929 14.474L9.52595 12.706C9.35377 12.5338 9.25034 12.3047 9.23506 12.0617C9.21978 11.8187 9.2937 11.5784 9.44295 11.386L9.52595 11.292L11.2939 9.524C11.4661 9.35182 11.6952 9.24839 11.9383 9.23311C12.1813 9.21783 12.4215 9.29175 12.6139 9.441H12.6129ZM4.57995 9.234C4.79975 9.23398 5.01343 9.30638 5.18795 9.44L5.28695 9.526L7.05395 11.294C7.22627 11.4661 7.32989 11.6951 7.34535 11.9381C7.36082 12.1812 7.28707 12.4215 7.13795 12.614L7.05395 12.708L5.28695 14.476C5.11476 14.6482 4.88566 14.7516 4.64263 14.7669C4.3996 14.7822 4.15935 14.7083 3.96695 14.559L3.87195 14.476L2.10495 12.708C1.93262 12.5359 1.82901 12.3069 1.81354 12.0639C1.79808 11.8208 1.87182 11.5805 2.02095 11.388L2.10495 11.294L3.86995 9.526C3.96299 9.4332 4.0734 9.35964 4.19489 9.30954C4.31637 9.25943 4.44654 9.23377 4.57795 9.234H4.57995ZM4.57995 11.648L4.22495 12L4.57895 12.354L4.93195 12L4.57895 11.647L4.57995 11.648ZM19.4259 11.645L19.0729 11.999L19.4259 12.352L19.7799 11.999L19.4259 11.645ZM12.0019 11.645L11.6479 11.999L12.0019 12.352L12.3549 11.999L12.0019 11.645ZM12.7089 2.099L18.0119 7.403C18.1994 7.59053 18.3047 7.84484 18.3047 8.11C18.3047 8.37516 18.1994 8.62947 18.0119 8.817L16.2439 10.585C16.0564 10.7725 15.8021 10.8778 15.5369 10.8778C15.2718 10.8778 15.0175 10.7725 14.8299 10.585L12.0019 7.756L9.17295 10.585C8.98542 10.7725 8.73111 10.8778 8.46595 10.8778C8.20078 10.8778 7.94648 10.7725 7.75895 10.585L5.98995 8.817C5.80248 8.62947 5.69716 8.37516 5.69716 8.11C5.69716 7.84484 5.80248 7.59053 5.98995 7.403L11.2939 2.099C11.4815 1.91153 11.7358 1.80621 12.0009 1.80621C12.2661 1.80621 12.5214 1.91153 12.7089 2.099ZM11.9999 4.221L8.10995 8.11L8.46395 8.463L11.2929 5.635C11.4805 5.44753 11.7348 5.34221 11.9999 5.34221C12.2651 5.34221 12.5194 5.44753 12.7069 5.635L15.5349 8.463L15.8889 8.11L11.9999 4.22V4.221Z" fill="currentColor"/>
</svg>
