<svg width="24" height="24" viewBox="0 0 24 24" fill="none" xmlns="http://www.w3.org/2000/svg">
<path fill-rule="evenodd" clip-rule="evenodd" d="M19.778 9.525L21.546 11.293C21.7335 11.4805 21.8388 11.7348 21.8388 12C21.8388 12.2652 21.7335 12.5195 21.546 12.707L12.707 21.546C12.5195 21.7335 12.2652 21.8388 12 21.8388C11.7348 21.8388 11.4805 21.7335 11.293 21.546L9.52499 19.778C9.33752 19.5905 9.23221 19.3362 9.23221 19.071C9.23221 18.8058 9.33752 18.5515 9.52499 18.364L18.364 9.525C18.5515 9.33753 18.8058 9.23222 19.071 9.23222C19.3362 9.23222 19.5905 9.33753 19.778 9.525ZM19.071 11.646L11.646 19.071L12 19.425L19.425 12L19.071 11.646ZM14.828 5.99C15.0001 5.81768 15.2291 5.71406 15.4721 5.6986C15.7152 5.68313 15.9555 5.75688 16.148 5.906L16.243 5.99L18.01 7.757C18.1823 7.92907 18.2859 8.1581 18.3014 8.40113C18.3169 8.64416 18.2431 8.88448 18.094 9.077L18.01 9.172L9.17199 18.01C8.99993 18.1823 8.77089 18.2859 8.52787 18.3014C8.28484 18.3169 8.04452 18.2431 7.85199 18.094L7.75699 18.01L5.98999 16.243C5.81767 16.0709 5.71405 15.8419 5.69859 15.5989C5.68312 15.3558 5.75687 15.1155 5.90599 14.923L5.98999 14.828L14.828 5.99ZM15.536 8.11L8.10999 15.537L8.46299 15.89L15.888 8.465L15.535 8.112L15.536 8.11ZM4.22199 9.526C4.39419 9.35382 4.62329 9.25039 4.86631 9.23511C5.10934 9.21983 5.34959 9.29375 5.54199 9.443L5.63599 9.526L7.40399 11.294C7.57617 11.4662 7.6796 11.6953 7.69488 11.9383C7.71016 12.1813 7.63625 12.4216 7.48699 12.614L7.40399 12.708L5.63599 14.476C5.4638 14.6482 5.2347 14.7516 4.99168 14.7669C4.74865 14.7822 4.5084 14.7083 4.31599 14.559L4.22199 14.476L2.45399 12.708C2.28182 12.5358 2.17839 12.3067 2.16311 12.0637C2.14782 11.8207 2.22174 11.5804 2.37099 11.388L2.45399 11.294L4.22199 9.526ZM4.92899 11.647L4.57499 12L4.92899 12.354L5.28199 12L4.92899 11.647ZM11.293 2.455C11.4652 2.28282 11.6943 2.17939 11.9373 2.16411C12.1803 2.14883 12.4206 2.22275 12.613 2.372L12.707 2.455L14.475 4.223C14.6472 4.39519 14.7506 4.62429 14.7659 4.86732C14.7812 5.11035 14.7072 5.3506 14.558 5.543L14.475 5.637L9.17199 10.94C8.9998 11.1122 8.7707 11.2156 8.52768 11.2309C8.28465 11.2462 8.0444 11.1723 7.85199 11.023L7.75699 10.94L5.98999 9.172C5.81767 8.99994 5.71405 8.7709 5.69859 8.52787C5.68312 8.28484 5.75687 8.04452 5.90599 7.852L5.98999 7.757L11.293 2.455ZM12 4.575L8.10999 8.465L8.46399 8.818L12.354 4.928L12 4.575Z" fill="currentColor"/>
</svg>
