<svg width="24" height="24" viewBox="0 0 24 24" fill="none" xmlns="http://www.w3.org/2000/svg">
<path fill-rule="evenodd" clip-rule="evenodd" d="M18 9C18.7652 8.99996 19.5015 9.29233 20.0583 9.81728C20.615 10.3422 20.9501 11.0601 20.995 11.824L21 12V15C21 15.64 20.621 16.139 20.118 16.367L20 16.414V20C20.0002 20.5046 19.8096 20.9906 19.4665 21.3605C19.1234 21.7305 18.6532 21.9572 18.15 21.995L18 22H6C5.49542 22.0002 5.00943 21.8096 4.63945 21.4665C4.26947 21.1234 4.04284 20.6532 4.005 20.15L4 20V16.415C3.73003 16.321 3.49284 16.1512 3.31676 15.926C3.14067 15.7008 3.03314 15.4297 3.007 15.145L3 15V12C2.99996 11.2348 3.29233 10.4985 3.81728 9.94174C4.34224 9.38499 5.06011 9.04989 5.824 9.005L6 9H18ZM17.933 15.7C17.7779 15.5836 17.5922 15.5148 17.3987 15.502C17.2052 15.4892 17.0121 15.533 16.843 15.628L16.733 15.7L16.467 15.9C15.9763 16.2682 15.3845 16.4771 14.7713 16.4986C14.1582 16.5201 13.5533 16.353 13.038 16.02L12.867 15.9L12.6 15.7C12.4449 15.5836 12.2592 15.5148 12.0657 15.502C11.8722 15.4892 11.6791 15.533 11.51 15.628L11.4 15.7L11.133 15.9C10.6424 16.268 10.0508 16.4768 9.43784 16.4982C8.82492 16.5197 8.22015 16.3528 7.705 16.02L7.533 15.9L7.267 15.7C7.11187 15.5836 6.92623 15.5148 6.7327 15.502C6.53917 15.4892 6.3461 15.533 6.177 15.628L6.067 15.7L6 15.75V20H18V15.75L17.933 15.7ZM18 11H6C5.73478 11 5.48043 11.1054 5.29289 11.2929C5.10536 11.4804 5 11.7348 5 12V14.005C5.5166 13.6599 6.12759 13.4837 6.74862 13.5007C7.36965 13.5177 7.97008 13.7271 8.467 14.1L8.733 14.3C8.9061 14.4298 9.11663 14.5 9.333 14.5C9.54937 14.5 9.7599 14.4298 9.933 14.3L10.2 14.1C10.7193 13.7105 11.3509 13.5 12 13.5C12.6491 13.5 13.2807 13.7105 13.8 14.1L14.067 14.3C14.2401 14.4298 14.4506 14.5 14.667 14.5C14.8834 14.5 15.0939 14.4298 15.267 14.3L15.533 14.1C16.0299 13.7271 16.6304 13.5177 17.2514 13.5007C17.8724 13.4837 18.4834 13.6599 19 14.005V12C19 11.7348 18.8946 11.4804 18.7071 11.2929C18.5196 11.1054 18.2652 11 18 11ZM12.6 2.2C13.0134 2.52294 13.3972 2.88202 13.747 3.273C14.271 3.862 15 4.855 15 6C15 6.79565 14.6839 7.55871 14.1213 8.12132C13.5587 8.68393 12.7956 9 12 9C11.2044 9 10.4413 8.68393 9.87868 8.12132C9.31607 7.55871 9 6.79565 9 6C9 4.855 9.73 3.862 10.253 3.273C10.6028 2.88202 10.9866 2.52294 11.4 2.2C11.5731 2.07018 11.7836 2 12 2C12.2164 2 12.4269 2.07018 12.6 2.2ZM12 4.334C11.9131 4.42088 11.8287 4.51025 11.747 4.602C11.271 5.138 11 5.645 11 6C11 6.26522 11.1054 6.51957 11.2929 6.70711C11.4804 6.89464 11.7348 7 12 7C12.2652 7 12.5196 6.89464 12.7071 6.70711C12.8946 6.51957 13 6.26522 13 6C13 5.645 12.73 5.138 12.253 4.602C12.1713 4.51025 12.0869 4.42088 12 4.334Z" fill="currentColor"/>
</svg>
