<svg width="24" height="24" viewBox="0 0 24 24" fill="none" xmlns="http://www.w3.org/2000/svg">
<path fill-rule="evenodd" clip-rule="evenodd" d="M10.5855 2.807C10.9396 2.4532 11.4134 2.245 11.9135 2.22352C12.4135 2.20205 12.9035 2.36885 13.2865 2.691L13.4135 2.807L21.1915 10.586C21.5452 10.9399 21.7534 11.4134 21.7751 11.9132C21.7967 12.4131 21.6303 12.9029 21.3085 13.286L21.1915 13.414L13.4135 21.192C13.0597 21.5457 12.5861 21.7539 12.0863 21.7755C11.5865 21.7972 11.0967 21.6307 10.7135 21.309L10.5855 21.192L2.80754 13.414C2.4536 13.0601 2.24522 12.5863 2.22355 12.0863C2.20189 11.5862 2.36853 11.0962 2.69054 10.713L2.80754 10.586L10.5855 2.807ZM11.9995 4.222L4.22154 12L11.9995 19.778L19.7775 12L11.9995 4.222ZM12.3855 7.755C12.6405 7.46 13.0245 7.427 13.1835 7.625C13.2675 7.728 13.2635 7.867 13.2355 8.01L13.1955 8.18C13.1775 8.25 13.1605 8.318 13.1515 8.379C13.1415 8.453 13.2075 8.466 13.3215 8.458L13.7145 8.416C13.9275 8.4 14.1725 8.407 14.3975 8.51C14.9725 8.773 14.8745 9.284 14.5885 9.56C14.4505 9.695 14.2355 9.737 14.0115 9.764L13.8765 9.779C13.6825 9.799 13.4905 9.82 13.3435 9.889C12.9925 10.053 12.9925 10.349 13.1515 10.447L13.3515 10.575L13.4785 10.65L13.6665 10.748L13.7905 10.808C14.2055 11.005 14.1735 11.398 13.9505 11.595C13.8973 11.6357 13.8396 11.6702 13.7785 11.698L13.5905 11.785L13.2345 11.935C13.6495 11.835 14.0705 11.777 14.3975 11.796L14.8085 11.827L15.0225 11.852L15.2355 11.887L15.4415 11.933C16.0785 12.1 16.5335 12.477 16.0425 13.385C15.7505 13.9236 15.4182 14.4394 15.0485 14.928L14.7855 15.265L14.5475 15.553L14.1095 16.059C13.7895 16.436 13.3045 16.666 12.8005 16.355C12.2965 16.044 11.6505 15.633 11.2355 14.976C10.9315 14.494 10.9105 14.207 10.9275 14.024L10.9475 13.86C10.9635 13.695 11.1715 13.434 11.4275 13.63C11.5155 13.698 11.5775 13.81 11.6415 13.948L11.6915 14.058C11.7885 14.271 11.9065 14.532 12.1295 14.801C12.3095 14.875 12.4225 14.841 12.3555 14.797L12.3215 14.779C12.1615 14.714 11.8425 14.419 12.1615 13.926C12.2135 13.8398 12.2834 13.7658 12.3665 13.709L12.4545 13.664L12.4495 13.661L12.3215 13.616L12.1815 13.553C11.6895 13.31 11.4755 12.991 11.6105 12.659C11.6845 12.475 11.9085 12.339 12.1305 12.222L12.2405 12.165C12.3435 12.112 12.4405 12.061 12.5135 12.012L12.8175 11.798L12.9875 11.67C13.1115 11.571 13.1905 11.495 13.1835 11.464C13.1685 11.399 13.1205 11.401 13.0475 11.422L12.9875 11.44C12.897 11.4745 12.8014 11.4938 12.7045 11.497C12.4495 11.497 12.2575 11.235 12.3845 10.841C12.4394 10.6959 12.5127 10.5584 12.6025 10.432L12.7975 10.14C12.8435 10.062 12.8575 10.014 12.8075 10.014L12.7685 10.02C12.5135 10.086 12.2895 9.987 12.1295 9.79C11.9695 9.593 11.8425 9.167 11.9065 8.74C11.9705 8.313 12.1295 8.05 12.3855 7.755ZM10.2455 10.381C10.7565 10.348 11.0755 10.906 11.1395 11.301C11.1575 11.407 11.1495 11.524 11.1295 11.664L11.0725 11.978L11.0245 12.235C11.0154 12.2832 11.0071 12.3315 10.9995 12.38L10.9515 12.706C10.9262 12.904 10.9075 13.1028 10.8955 13.302L10.8755 13.785L10.8145 15.532L10.7955 15.854C10.7935 15.8787 10.7912 15.9034 10.7885 15.928C10.7565 16.223 10.6605 16.453 10.3095 16.486C9.98555 16.516 9.79754 16.155 9.76955 15.66L9.76654 15.534C9.76654 15.194 9.69654 15.184 9.58254 15.308L9.51054 15.397L9.32054 15.665C9.06454 16.026 8.29754 15.698 8.45754 15.108C8.51054 14.912 8.64355 14.637 8.80454 14.338L9.29254 13.462L9.45554 13.16C9.55554 12.969 9.63354 12.802 9.67054 12.679C9.74254 12.442 9.66154 12.433 9.53754 12.507L9.43754 12.575L9.27954 12.707L9.09654 12.876C8.80854 13.138 8.50654 13.211 8.17054 13.006C7.83354 12.803 7.72254 12.547 7.75454 12.318C7.78654 12.088 8.07454 11.727 8.20154 11.694C8.24154 11.684 8.25454 11.709 8.25654 11.746L8.25254 11.829C8.24554 11.898 8.23954 11.959 8.29754 11.924L8.36155 11.869L8.88754 11.359L9.14754 11.118C9.54954 10.752 9.99455 10.398 10.2455 10.381ZM13.4705 14.753L13.4475 14.766L13.3595 14.842C13.1945 14.972 12.8575 15.189 12.5075 15.175C12.8585 15.455 13.0895 15.418 13.4125 15.178L13.5025 15.108L13.5715 15.038L13.5615 14.973L13.5385 14.859C13.5205 14.792 13.4985 14.748 13.4705 14.753ZM13.1015 13.965C13.0265 13.844 12.7945 13.851 12.5855 13.982C12.3755 14.113 12.2675 14.318 12.3435 14.439C12.4195 14.56 12.6505 14.553 12.8605 14.422C13.0695 14.291 13.1775 14.086 13.1015 13.965ZM14.5565 12.875C14.0035 12.819 13.6415 12.984 13.3065 13.157C13.2345 13.194 13.1665 13.24 13.0995 13.289L13.0005 13.364C12.8841 13.4622 12.7545 13.5437 12.6155 13.606C12.7945 13.558 12.9755 13.564 13.1035 13.579L13.2285 13.599L13.2655 13.607C13.2895 13.612 13.3155 13.582 13.3425 13.534L13.4565 13.306C13.5455 13.138 13.6545 12.996 13.7905 13.171C13.8762 13.2756 13.9346 13.3997 13.9606 13.5323C13.9866 13.6649 13.9793 13.8019 13.9395 13.931L13.9185 13.991C13.8845 14.079 13.8865 14.121 13.9485 14.21L14.1605 14.49C14.4555 14.183 14.7205 13.86 14.8125 13.663L14.9025 13.469C15.0265 13.188 15.0765 12.929 14.5565 12.876V12.875ZM9.97554 8.01L10.1185 8.019C11.4725 8.145 11.8185 9.367 10.9865 9.692L10.8855 9.726C10.4332 9.85291 10.0041 10.0514 9.61454 10.314L9.48655 10.397C9.32655 10.502 9.19054 10.591 9.06554 10.645C9.10207 10.5734 9.14633 10.506 9.19754 10.444L9.52254 10.035L9.63854 9.874C9.80154 9.634 9.89454 9.409 9.73454 9.299L9.67154 9.266C9.17954 9.076 8.74554 7.971 9.97554 8.01Z" fill="currentColor"/>
</svg>
