<svg width="24" height="24" viewBox="0 0 24 24" fill="none" xmlns="http://www.w3.org/2000/svg">
<path fill-rule="evenodd" clip-rule="evenodd" d="M4.74653 5.105C4.60295 5.20178 4.48876 5.33618 4.41645 5.49351C4.34414 5.65083 4.31649 5.82501 4.33652 5.997L4.65053 9.284C4.72118 10.027 5.06629 10.7171 5.61844 11.2193C6.17059 11.7215 6.89013 11.9999 7.63653 12H8.99953C9.23168 12.0004 9.45648 12.0815 9.63536 12.2295C9.81424 12.3775 9.93606 12.5831 9.97993 12.811C10.0238 13.039 9.98698 13.2751 9.87579 13.4789C9.7646 13.6827 9.58597 13.8415 9.37053 13.928L7.03053 14.865C6.14553 15.219 5.90853 16.185 6.36653 16.797C6.65453 17.181 6.94252 17.528 7.20652 17.793C7.43952 18.026 7.73852 18.278 8.07152 18.533C8.69052 19.008 9.69653 18.747 10.0115 17.799L11.0515 14.684C11.118 14.485 11.2453 14.312 11.4155 14.1894C11.5858 14.0668 11.7902 14.0008 12 14.0008C12.2098 14.0008 12.4143 14.0668 12.5845 14.1894C12.7547 14.312 12.8821 14.485 12.9485 14.684L13.9865 17.799C14.3025 18.747 15.3085 19.009 15.9275 18.534C16.2615 18.278 16.5595 18.026 16.7925 17.793C17.0575 17.528 17.3455 17.181 17.6325 16.797C18.0905 16.185 17.8545 15.219 16.9685 14.865L14.6285 13.928C14.4131 13.8415 14.2344 13.6827 14.1233 13.4789C14.0121 13.2751 13.9752 13.039 14.0191 12.811C14.063 12.5831 14.1848 12.3775 14.3637 12.2295C14.5426 12.0815 14.7674 12.0004 14.9995 12H16.3625C17.1089 11.9999 17.8285 11.7215 18.3806 11.2193C18.9328 10.7171 19.2779 10.027 19.3485 9.284L19.6625 5.997C19.6826 5.82501 19.6549 5.65083 19.5826 5.49351C19.5103 5.33618 19.3961 5.20178 19.2525 5.105C19.1269 5.01682 18.9772 4.96943 18.8237 4.96925C18.6702 4.96907 18.5204 5.01611 18.3945 5.104C15.7495 6.812 14.3445 8.546 12.8945 11.447C12.8116 11.6134 12.6839 11.7534 12.5258 11.8512C12.3677 11.9491 12.1855 12.0009 11.9995 12.0009C11.8136 12.0009 11.6313 11.9491 11.4732 11.8512C11.3152 11.7534 11.1875 11.6134 11.1045 11.447C9.65452 8.546 8.24953 6.812 5.60453 5.104C5.47869 5.01611 5.32886 4.96907 5.17537 4.96925C5.02188 4.96943 4.87216 5.01682 4.74653 5.105ZM2.34652 6.187C2.12952 3.913 4.56653 2.053 6.68953 3.424C9.12953 5 10.6615 6.639 11.9995 8.9C13.3375 6.639 14.8695 5 17.3095 3.424C19.4325 2.053 21.8695 3.914 21.6535 6.187L21.3395 9.474C21.2586 10.3263 20.9602 11.1435 20.4729 11.8474C19.9856 12.5513 19.3258 13.1182 18.5565 13.494C19.8855 14.533 20.3745 16.472 19.2335 17.996C18.9165 18.419 18.5645 18.849 18.2065 19.207C17.8895 19.524 17.5165 19.835 17.1445 20.121C15.2645 21.562 12.7695 20.471 12.0895 18.431L11.9995 18.162L11.9095 18.432C11.2295 20.472 8.73453 21.562 6.85453 20.121C6.48128 19.8394 6.12655 19.5341 5.79253 19.207C5.42261 18.8276 5.07945 18.4229 4.76552 17.996C3.62452 16.472 4.11452 14.533 5.44352 13.494C4.67411 13.1184 4.01404 12.5514 3.52657 11.8475C3.0391 11.1437 2.74055 10.3264 2.65953 9.474L2.34652 6.187Z" fill="currentColor"/>
</svg>
