<svg width="24" height="24" viewBox="0 0 24 24" fill="none" xmlns="http://www.w3.org/2000/svg">
<path d="M17.0684 2.001L17.1844 2.014C17.4459 2.05761 17.6793 2.20323 17.8334 2.41887C17.9876 2.6345 18.0498 2.90251 18.0064 3.164C17.5764 5.744 18.0944 8.58 19.4344 11.594C20.6084 14.237 20.2544 17.018 18.9794 19.658C18.7878 20.0564 18.5769 20.4452 18.3474 20.823L18.1154 21.187C18.0185 21.3329 17.9165 21.4753 17.8094 21.614C17.6536 21.8158 17.4266 21.9505 17.1749 21.9905C16.9231 22.0305 16.6656 21.9729 16.4549 21.8293C16.2442 21.6858 16.0963 21.4673 16.0413 21.2183C15.9864 20.9694 16.0287 20.7088 16.1594 20.49L16.2314 20.386C16.5924 19.883 16.9094 19.346 17.1784 18.788C17.9684 17.152 18.3214 15.491 18.0574 13.905C16.1474 14.374 15.0164 15.212 14.3044 16.255C13.4914 17.445 13.1294 19.041 12.9994 21.045C12.9869 21.302 12.8761 21.5444 12.69 21.7221C12.5039 21.8998 12.2567 21.9993 11.9994 22C11.4694 22 11.0244 21.575 11.0014 21.044C10.8714 19.041 10.5094 17.446 9.69641 16.254C8.98841 15.218 7.86741 14.384 5.97941 13.914C5.71841 15.497 6.07141 17.156 6.85941 18.788C7.07441 19.233 7.31741 19.67 7.59341 20.082L7.80641 20.386C7.96238 20.5958 8.03001 20.8583 7.9948 21.1173C7.9596 21.3764 7.82436 21.6113 7.61806 21.7718C7.41176 21.9324 7.15079 22.0058 6.89105 21.9763C6.63131 21.9468 6.39345 21.8167 6.22841 21.614C6.12137 21.4753 6.0193 21.3329 5.92241 21.187L5.69041 20.823C5.49041 20.495 5.27341 20.103 5.05841 19.658C3.78441 17.018 3.42841 14.237 4.60341 11.594C5.94341 8.58 6.46141 5.744 6.03141 3.164C6.00548 3.03268 6.00618 2.89749 6.03346 2.76644C6.06075 2.63539 6.11406 2.51115 6.19025 2.40109C6.26644 2.29103 6.36396 2.19739 6.47701 2.12572C6.59006 2.05404 6.71635 2.00579 6.84839 1.98383C6.98044 1.96187 7.11555 1.96664 7.24571 1.99786C7.37588 2.02908 7.49845 2.08612 7.60617 2.16559C7.71388 2.24506 7.80454 2.34535 7.87278 2.46051C7.94101 2.57567 7.98544 2.70335 8.00341 2.836C8.48541 5.726 7.96341 8.807 6.60341 12.01C8.80041 12.585 10.3334 13.642 11.3484 15.127C11.6004 15.497 11.8164 15.887 12.0004 16.294C12.1844 15.887 12.4004 15.497 12.6524 15.127C13.6714 13.634 15.2164 12.574 17.4304 12.001C16.0744 8.801 15.5524 5.723 16.0344 2.836C16.0743 2.59414 16.2017 2.37537 16.3923 2.22125C16.583 2.06713 16.8236 1.98939 17.0684 2.001ZM12.0004 8C12.2656 8 12.52 8.10536 12.7075 8.29289C12.8951 8.48043 13.0004 8.73478 13.0004 9C13.0004 9.26522 12.8951 9.51957 12.7075 9.70711C12.52 9.89464 12.2656 10 12.0004 10C11.7352 10 11.4808 9.89464 11.2933 9.70711C11.1058 9.51957 11.0004 9.26522 11.0004 9C11.0004 8.73478 11.1058 8.48043 11.2933 8.29289C11.4808 8.10536 11.7352 8 12.0004 8Z" fill="currentColor"/>
</svg>
