<svg width="24" height="24" viewBox="0 0 24 24" fill="none" xmlns="http://www.w3.org/2000/svg">
<path d="M16.7498 1.272C17.015 1.272 17.2694 1.37736 17.4569 1.5649C17.6445 1.75243 17.7498 2.00679 17.7498 2.272V3.272C17.7498 3.53722 17.6445 3.79157 17.4569 3.97911C17.2694 4.16665 17.015 4.272 16.7498 4.272C16.4846 4.272 16.2303 4.16665 16.0427 3.97911C15.8552 3.79157 15.7498 3.53722 15.7498 3.272V2.272C15.7498 2.00679 15.8552 1.75243 16.0427 1.5649C16.2303 1.37736 16.4846 1.272 16.7498 1.272ZM12.8528 3.522C12.9854 3.29233 13.2039 3.12474 13.46 3.0561C13.7162 2.98747 13.9892 3.0234 14.2188 3.156L15.0848 3.656C15.3126 3.78955 15.4784 4.00779 15.5459 4.26308C15.6134 4.51838 15.5771 4.79001 15.4451 5.0187C15.3131 5.24739 15.0959 5.41456 14.8411 5.48375C14.5863 5.55294 14.3144 5.51852 14.0848 5.388L13.2188 4.888C12.9892 4.75539 12.8216 4.53698 12.7529 4.2808C12.6843 4.02463 12.7202 3.75168 12.8528 3.522ZM20.2808 4.888C20.3955 4.82282 20.4961 4.73561 20.5769 4.63138C20.6577 4.52715 20.7171 4.40797 20.7516 4.2807C20.7862 4.15342 20.7952 4.02057 20.7782 3.88979C20.7612 3.75901 20.7185 3.63289 20.6526 3.51868C20.5867 3.40446 20.4988 3.30443 20.394 3.22432C20.2893 3.14421 20.1697 3.08561 20.0422 3.0519C19.9147 3.0182 19.7818 3.01004 19.6511 3.02791C19.5204 3.04577 19.3946 3.08931 19.2808 3.156L18.4148 3.656C18.3002 3.72119 18.1996 3.8084 18.1188 3.91263C18.038 4.01686 17.9786 4.13604 17.944 4.26331C17.9095 4.39058 17.9004 4.52343 17.9174 4.65421C17.9344 4.78499 17.9771 4.91112 18.0431 5.02533C18.109 5.13954 18.1969 5.23958 18.3017 5.31969C18.4064 5.3998 18.526 5.45839 18.6535 5.4921C18.781 5.52581 18.9139 5.53397 19.0446 5.5161C19.1752 5.49824 19.3011 5.4547 19.4148 5.388L20.2808 4.888ZM16.7748 5.73C17.0045 5.86262 17.1721 6.08103 17.2407 6.3372C17.3094 6.59338 17.2734 6.86632 17.1408 7.096L16.8658 7.572L17.7318 8.072C17.9136 8.17687 18.0577 8.33624 18.1438 8.52755C18.23 8.71886 18.2538 8.93243 18.2118 9.138L18.0908 9.728C19.9648 12.154 20.3648 15.511 18.7668 18.278C16.6248 21.988 11.7868 23.115 7.99983 20.928C4.21183 18.741 2.76883 13.988 4.91083 10.278C6.50883 7.51 9.61583 6.178 12.6538 6.589L13.1038 6.189C13.261 6.04976 13.458 5.96353 13.6669 5.94253C13.8759 5.92153 14.0861 5.96683 14.2678 6.072L15.1338 6.572L15.4088 6.096C15.5414 5.86633 15.7599 5.69874 16.016 5.6301C16.2722 5.56147 16.5452 5.5974 16.7748 5.73ZM13.8918 8.164L13.6238 8.402C13.5082 8.5045 13.3703 8.57879 13.2211 8.61905C13.0719 8.6593 12.9154 8.66442 12.7638 8.634C10.3358 8.149 7.86283 9.165 6.64383 11.277C5.09683 13.957 6.09083 17.517 8.99983 19.196C11.9078 20.876 15.4888 19.956 17.0348 17.277C18.2548 15.165 17.8978 12.516 16.2648 10.655C16.1777 10.556 16.111 10.4406 16.0686 10.3157C16.0262 10.1907 16.0089 10.0586 16.0178 9.927L16.0358 9.795L16.1078 9.443L13.8918 8.164ZM11.9998 10.035C12.265 10.0347 12.5195 10.1398 12.7072 10.3272C12.895 10.5145 13.0006 10.7688 13.0008 11.034C13.0011 11.2992 12.896 11.5537 12.7086 11.7414C12.5213 11.9291 12.267 12.0347 12.0018 12.035C11.6567 12.0345 11.3176 12.1251 11.0187 12.2977C10.7198 12.4704 10.4719 12.7188 10.2998 13.018C10.2346 13.1326 10.1474 13.2333 10.0432 13.3141C9.93898 13.3949 9.8198 13.4543 9.69252 13.4888C9.56525 13.5234 9.4324 13.5324 9.30162 13.5154C9.17084 13.4984 9.04471 13.4557 8.9305 13.3898C8.81629 13.3238 8.71625 13.2359 8.63615 13.1312C8.55604 13.0264 8.49744 12.9068 8.46373 12.7793C8.43002 12.6518 8.42187 12.5189 8.43973 12.3883C8.4576 12.2576 8.50113 12.1318 8.56783 12.018C8.91546 11.4153 9.41565 10.9147 10.0181 10.5666C10.6206 10.2185 11.304 10.0352 11.9998 10.035ZM19.4158 6.156L20.2818 6.656C20.3965 6.72119 20.4971 6.8084 20.5779 6.91263C20.6587 7.01686 20.7181 7.13604 20.7526 7.26331C20.7872 7.39058 20.7962 7.52343 20.7792 7.65421C20.7622 7.78499 20.7195 7.91112 20.6536 8.02533C20.5877 8.13954 20.4998 8.23958 20.395 8.31969C20.2903 8.3998 20.1707 8.45839 20.0432 8.4921C19.9157 8.52581 19.7828 8.53397 19.6521 8.5161C19.5214 8.49824 19.3956 8.4547 19.2818 8.388L18.4158 7.888C18.3012 7.82282 18.2006 7.73561 18.1198 7.63138C18.039 7.52715 17.9796 7.40797 17.945 7.2807C17.9105 7.15342 17.9014 7.02057 17.9184 6.88979C17.9354 6.75901 17.9781 6.63289 18.0441 6.51868C18.11 6.40447 18.1979 6.30443 18.3027 6.22432C18.4074 6.14421 18.527 6.08561 18.6545 6.0519C18.782 6.0182 18.9149 6.01004 19.0456 6.0279C19.1762 6.04577 19.3021 6.08931 19.4158 6.156Z" fill="currentColor"/>
</svg>
