<svg width="24" height="24" viewBox="0 0 24 24" fill="none" xmlns="http://www.w3.org/2000/svg">
<path fill-rule="evenodd" clip-rule="evenodd" d="M17.6573 3.515C18.1723 4.03 18.5173 4.651 18.6933 5.308C19.2443 5.45626 19.7573 5.72069 20.1976 6.08354C20.638 6.44638 20.9957 6.89925 21.2466 7.41173C21.4975 7.92421 21.6358 8.48444 21.6523 9.0548C21.6689 9.62516 21.5632 10.1925 21.3424 10.7186C21.1215 11.2447 20.7907 11.7176 20.3721 12.1053C19.9534 12.493 19.4567 12.7867 18.9152 12.9666C18.3737 13.1465 17.8 13.2085 17.2325 13.1483C16.6651 13.0882 16.1171 12.9074 15.6253 12.618L12.6183 15.625C12.9103 16.117 13.0934 16.6659 13.1552 17.2347C13.217 17.8034 13.1562 18.3789 12.9768 18.9221C12.7974 19.4654 12.5036 19.9639 12.1153 20.384C11.7269 20.8041 11.253 21.136 10.7254 21.3574C10.1979 21.5788 9.629 21.6846 9.05713 21.6675C8.48527 21.6504 7.92372 21.5109 7.41034 21.2584C6.89696 21.0059 6.44369 20.6462 6.08109 20.2037C5.71848 19.7611 5.45498 19.246 5.30834 18.693C4.75734 18.5447 4.24443 18.2803 3.80405 17.9175C3.36368 17.5546 3.00603 17.1017 2.75512 16.5893C2.50421 16.0768 2.36586 15.5166 2.34933 14.9462C2.33281 14.3758 2.43851 13.8085 2.65933 13.2824C2.88015 12.7563 3.21099 12.2834 3.62962 11.8957C4.04825 11.508 4.545 11.2143 5.0865 11.0344C5.628 10.8545 6.20172 10.7925 6.76915 10.8526C7.33657 10.9128 7.88457 11.0936 8.37634 11.383L11.3823 8.375C10.8915 7.53621 10.7226 6.54746 10.9073 5.59329C11.0919 4.63913 11.6175 3.78477 12.3858 3.18967C13.1542 2.59457 14.1129 2.29941 15.0829 2.35927C16.0529 2.41914 16.968 2.82994 17.6573 3.515ZM13.4143 4.929C13.0394 5.30406 12.8288 5.81267 12.8288 6.343C12.8288 6.87333 13.0394 7.38195 13.4143 7.757C13.5073 7.84987 13.5811 7.96016 13.6314 8.08156C13.6817 8.20296 13.7076 8.33309 13.7076 8.4645C13.7076 8.59592 13.6817 8.72604 13.6314 8.84744C13.5811 8.96884 13.5073 9.07913 13.4143 9.172L9.17234 13.414C9.07947 13.507 8.96918 13.5807 8.84778 13.6311C8.72638 13.6814 8.59626 13.7073 8.46484 13.7073C8.33343 13.7073 8.2033 13.6814 8.0819 13.6311C7.9605 13.5807 7.85021 13.507 7.75734 13.414C7.53336 13.1903 7.25948 13.023 6.95822 12.9257C6.65695 12.8285 6.33692 12.8042 6.02442 12.8548C5.71193 12.9054 5.41591 13.0294 5.1607 13.2167C4.90549 13.404 4.69838 13.6492 4.55641 13.9321C4.41444 14.2151 4.34166 14.5277 4.34406 14.8442C4.34645 15.1608 4.42396 15.4722 4.57019 15.753C4.71643 16.0338 4.92722 16.2758 5.18524 16.4592C5.44325 16.6426 5.74112 16.7622 6.05434 16.808L6.23234 16.826C6.458 16.8385 6.67278 16.927 6.84167 17.0772C7.01055 17.2274 7.12359 17.4303 7.16234 17.653L7.17534 17.769C7.19313 18.0853 7.28583 18.3929 7.44578 18.6664C7.60574 18.9399 7.82838 19.1715 8.09537 19.3421C8.36237 19.5126 8.66606 19.6174 8.98145 19.6476C9.29684 19.6778 9.6149 19.6326 9.90942 19.5158C10.2039 19.3991 10.4665 19.214 10.6755 18.9758C10.8845 18.7377 11.0339 18.4533 11.1114 18.1461C11.1889 17.8389 11.1923 17.5177 11.1214 17.2089C11.0505 16.9001 10.9072 16.6126 10.7033 16.37L10.5863 16.243C10.3989 16.0555 10.2936 15.8012 10.2936 15.536C10.2936 15.2708 10.3989 15.0165 10.5863 14.829L14.8293 10.586C15.0015 10.4138 15.2306 10.3104 15.4737 10.2951C15.7167 10.2798 15.9569 10.3537 16.1493 10.503L16.2433 10.586C16.4673 10.8097 16.7412 10.977 17.0425 11.0743C17.3437 11.1715 17.6638 11.1958 17.9763 11.1452C18.2888 11.0946 18.5848 10.9706 18.84 10.7833C19.0952 10.596 19.3023 10.3508 19.4443 10.0679C19.5862 9.78493 19.659 9.47233 19.6566 9.15578C19.6542 8.83923 19.5767 8.52776 19.4305 8.24701C19.2843 7.96625 19.0735 7.72421 18.8154 7.5408C18.5574 7.35739 18.2596 7.23785 17.9463 7.192L17.7693 7.175C17.5435 7.16248 17.3286 7.07379 17.1597 6.92341C16.9908 6.77303 16.8779 6.56984 16.8393 6.347L16.8263 6.232C16.8049 5.84653 16.6723 5.47552 16.4446 5.16375C16.2169 4.85198 15.9038 4.61277 15.5431 4.475C15.1825 4.33723 14.7897 4.30679 14.4121 4.38735C14.0345 4.46791 13.6884 4.65603 13.4153 4.929H13.4143Z" fill="currentColor"/>
</svg>
