<svg width="24" height="24" viewBox="0 0 24 24" fill="none" xmlns="http://www.w3.org/2000/svg">
<path fill-rule="evenodd" clip-rule="evenodd" d="M17 2C17.7652 1.99996 18.5015 2.29233 19.0583 2.81728C19.615 3.34224 19.9501 4.06011 19.995 4.824L20 5V18.018C20 19.2 18.707 19.901 17.725 19.303L17.618 19.231L17 18.782V21.018C17 22.2 15.707 22.901 14.725 22.303L14.618 22.231L10.5 19.236L6.382 22.231C5.426 22.927 4.099 22.293 4.005 21.147L4 21.018V8C4 7.20435 4.31607 6.44129 4.87868 5.87868C5.44129 5.31607 6.20435 5 7 5C6.99996 4.23479 7.29233 3.49849 7.81728 2.94174C8.34224 2.38499 9.06011 2.04989 9.824 2.005L10 2H17ZM14 7H7C6.75507 7.00003 6.51866 7.08996 6.33563 7.25272C6.15259 7.41547 6.03566 7.63975 6.007 7.883L6 8V20.036L9.618 17.406C9.8538 17.2344 10.1345 17.1352 10.4258 17.1207C10.7171 17.1061 11.0063 17.1768 11.258 17.324L11.382 17.405L15 20.036V8C15 7.75507 14.91 7.51866 14.7473 7.33563C14.5845 7.15259 14.3603 7.03566 14.117 7.007L14 7ZM17 4H10C9.73478 4 9.48043 4.10536 9.29289 4.29289C9.10536 4.48043 9 4.73478 9 5H14C14.7956 5 15.5587 5.31607 16.1213 5.87868C16.6839 6.44129 17 7.20435 17 8V16.309L18 17.036V5C18 4.73478 17.8946 4.48043 17.7071 4.29289C17.5196 4.10536 17.2652 4 17 4Z" fill="currentColor"/>
</svg>
