<svg width="24" height="24" viewBox="0 0 24 24" fill="none" xmlns="http://www.w3.org/2000/svg">
<path fill-rule="evenodd" clip-rule="evenodd" d="M5 4C5 4.26522 4.89464 4.51957 4.70711 4.70711C4.51957 4.89464 4.26522 5 4 5C3.73478 5 3.48043 4.89464 3.29289 4.70711C3.10536 4.51957 3 4.26522 3 4C3 3.73478 3.10536 3.48043 3.29289 3.29289C3.48043 3.10536 3.73478 3 4 3C4.26522 3 4.51957 3.10536 4.70711 3.29289C4.89464 3.48043 5 3.73478 5 4ZM9 4C9 4.26522 8.89464 4.51957 8.70711 4.70711C8.51957 4.89464 8.26522 5 8 5C7.73478 5 7.48043 4.89464 7.29289 4.70711C7.10536 4.51957 7 4.26522 7 4C7 3.73478 7.10536 3.48043 7.29289 3.29289C7.48043 3.10536 7.73478 3 8 3C8.26522 3 8.51957 3.10536 8.70711 3.29289C8.89464 3.48043 9 3.73478 9 4ZM16 5C16.2652 5 16.5196 4.89464 16.7071 4.70711C16.8946 4.51957 17 4.26522 17 4C17 3.73478 16.8946 3.48043 16.7071 3.29289C16.5196 3.10536 16.2652 3 16 3C15.7348 3 15.4804 3.10536 15.2929 3.29289C15.1054 3.48043 15 3.73478 15 4C15 4.26522 15.1054 4.51957 15.2929 4.70711C15.4804 4.89464 15.7348 5 16 5ZM21 4C21 4.26522 20.8946 4.51957 20.7071 4.70711C20.5196 4.89464 20.2652 5 20 5C19.7348 5 19.4804 4.89464 19.2929 4.70711C19.1054 4.51957 19 4.26522 19 4C19 3.73478 19.1054 3.48043 19.2929 3.29289C19.4804 3.10536 19.7348 3 20 3C20.2652 3 20.5196 3.10536 20.7071 3.29289C20.8946 3.48043 21 3.73478 21 4ZM5 20C5 20.2652 4.89464 20.5196 4.70711 20.7071C4.51957 20.8946 4.26522 21 4 21C3.73478 21 3.48043 20.8946 3.29289 20.7071C3.10536 20.5196 3 20.2652 3 20C3 19.7348 3.10536 19.4804 3.29289 19.2929C3.48043 19.1054 3.73478 19 4 19C4.26522 19 4.51957 19.1054 4.70711 19.2929C4.89464 19.4804 5 19.7348 5 20ZM9 20C9 20.2652 8.89464 20.5196 8.70711 20.7071C8.51957 20.8946 8.26522 21 8 21C7.73478 21 7.48043 20.8946 7.29289 20.7071C7.10536 20.5196 7 20.2652 7 20C7 19.7348 7.10536 19.4804 7.29289 19.2929C7.48043 19.1054 7.73478 19 8 19C8.26522 19 8.51957 19.1054 8.70711 19.2929C8.89464 19.4804 9 19.7348 9 20ZM16 21C16.2652 21 16.5196 20.8946 16.7071 20.7071C16.8946 20.5196 17 20.2652 17 20C17 19.7348 16.8946 19.4804 16.7071 19.2929C16.5196 19.1054 16.2652 19 16 19C15.7348 19 15.4804 19.1054 15.2929 19.2929C15.1054 19.4804 15 19.7348 15 20C15 20.2652 15.1054 20.5196 15.2929 20.7071C15.4804 20.8946 15.7348 21 16 21ZM21 20C21 20.2652 20.8946 20.5196 20.7071 20.7071C20.5196 20.8946 20.2652 21 20 21C19.7348 21 19.4804 20.8946 19.2929 20.7071C19.1054 20.5196 19 20.2652 19 20C19 19.7348 19.1054 19.4804 19.2929 19.2929C19.4804 19.1054 19.7348 19 20 19C20.2652 19 20.5196 19.1054 20.7071 19.2929C20.8946 19.4804 21 19.7348 21 20ZM4 15C4.26522 15 4.51957 15.1054 4.70711 15.2929C4.89464 15.4804 5 15.7348 5 16C5 16.2652 4.89464 16.5196 4.70711 16.7071C4.51957 16.8946 4.26522 17 4 17C3.73478 17 3.48043 16.8946 3.29289 16.7071C3.10536 16.5196 3 16.2652 3 16C3 15.7348 3.10536 15.4804 3.29289 15.2929C3.48043 15.1054 3.73478 15 4 15ZM4 11C4.26522 11 4.51957 11.1054 4.70711 11.2929C4.89464 11.4804 5 11.7348 5 12C5 12.2652 4.89464 12.5196 4.70711 12.7071C4.51957 12.8946 4.26522 13 4 13C3.73478 13 3.48043 12.8946 3.29289 12.7071C3.10536 12.5196 3 12.2652 3 12C3 11.7348 3.10536 11.4804 3.29289 11.2929C3.48043 11.1054 3.73478 11 4 11ZM5 8C5 7.73478 4.89464 7.48043 4.70711 7.29289C4.51957 7.10536 4.26522 7 4 7C3.73478 7 3.48043 7.10536 3.29289 7.29289C3.10536 7.48043 3 7.73478 3 8C3 8.26522 3.10536 8.51957 3.29289 8.70711C3.48043 8.89464 3.73478 9 4 9C4.26522 9 4.51957 8.89464 4.70711 8.70711C4.89464 8.51957 5 8.26522 5 8ZM21 16C21 15.7348 20.8946 15.4804 20.7071 15.2929C20.5196 15.1054 20.2652 15 20 15C19.7348 15 19.4804 15.1054 19.2929 15.2929C19.1054 15.4804 19 15.7348 19 16C19 16.2652 19.1054 16.5196 19.2929 16.7071C19.4804 16.8946 19.7348 17 20 17C20.2652 17 20.5196 16.8946 20.7071 16.7071C20.8946 16.5196 21 16.2652 21 16ZM21 12C21 11.7348 20.8946 11.4804 20.7071 11.2929C20.5196 11.1054 20.2652 11 20 11C19.7348 11 19.4804 11.1054 19.2929 11.2929C19.1054 11.4804 19 11.7348 19 12C19 12.2652 19.1054 12.5196 19.2929 12.7071C19.4804 12.8946 19.7348 13 20 13C20.2652 13 20.5196 12.8946 20.7071 12.7071C20.8946 12.5196 21 12.2652 21 12ZM20 7C20.2652 7 20.5196 7.10536 20.7071 7.29289C20.8946 7.48043 21 7.73478 21 8C21 8.26522 20.8946 8.51957 20.7071 8.70711C20.5196 8.89464 20.2652 9 20 9C19.7348 9 19.4804 8.89464 19.2929 8.70711C19.1054 8.51957 19 8.26522 19 8C19 7.73478 19.1054 7.48043 19.2929 7.29289C19.4804 7.10536 19.7348 7 20 7ZM8 13C8.26522 13 8.51957 12.8946 8.70711 12.7071C8.89464 12.5196 9 12.2652 9 12C9 11.7348 8.89464 11.4804 8.70711 11.2929C8.51957 11.1054 8.26522 11 8 11C7.73478 11 7.48043 11.1054 7.29289 11.2929C7.10536 11.4804 7 11.7348 7 12C7 12.2652 7.10536 12.5196 7.29289 12.7071C7.48043 12.8946 7.73478 13 8 13ZM16 13C16.2652 13 16.5196 12.8946 16.7071 12.7071C16.8946 12.5196 17 12.2652 17 12C17 11.7348 16.8946 11.4804 16.7071 11.2929C16.5196 11.1054 16.2652 11 16 11C15.7348 11 15.4804 11.1054 15.2929 11.2929C15.1054 11.4804 15 11.7348 15 12C15 12.2652 15.1054 12.5196 15.2929 12.7071C15.4804 12.8946 15.7348 13 16 13ZM13 4C13 3.73478 12.8946 3.48043 12.7071 3.29289C12.5196 3.10536 12.2652 3 12 3C11.7348 3 11.4804 3.10536 11.2929 3.29289C11.1054 3.48043 11 3.73478 11 4V20C11 20.2652 11.1054 20.5196 11.2929 20.7071C11.4804 20.8946 11.7348 21 12 21C12.2652 21 12.5196 20.8946 12.7071 20.7071C12.8946 20.5196 13 20.2652 13 20V4Z" fill="currentColor"/>
</svg>
