<svg width="24" height="24" viewBox="0 0 24 24" fill="none" xmlns="http://www.w3.org/2000/svg">
<path fill-rule="evenodd" clip-rule="evenodd" d="M7 4C7 3.46957 7.21071 2.96086 7.58579 2.58579C7.96086 2.21071 8.46957 2 9 2H15C15.5304 2 16.0391 2.21071 16.4142 2.58579C16.7893 2.96086 17 3.46957 17 4V5C17 5.378 16.895 5.732 16.712 6.034L18.4 7.3C18.8968 7.67259 19.3 8.15572 19.5777 8.71115C19.8554 9.26657 20 9.87902 20 10.5V18C20 19.0609 19.5786 20.0783 18.8284 20.8284C18.0783 21.5786 17.0609 22 16 22H8C6.93913 22 5.92172 21.5786 5.17157 20.8284C4.42143 20.0783 4 19.0609 4 18V10.5C4 9.87902 4.14458 9.26657 4.42229 8.71115C4.7 8.15572 5.10322 7.67259 5.6 7.3L7.288 6.034C7.09911 5.72222 6.99948 5.36454 7 5V4ZM9.667 7C9.45063 7 9.2401 7.07018 9.067 7.2L6.8 8.9C6.55161 9.08629 6.35 9.32786 6.21115 9.60557C6.07229 9.88328 6 10.1895 6 10.5V11H18V10.5C18 10.1895 17.9277 9.88328 17.7889 9.60557C17.65 9.32786 17.4484 9.08629 17.2 8.9L14.933 7.2C14.7599 7.07018 14.5494 7 14.333 7H9.667ZM18 13H6V15H18V13ZM18 17H6V18C6 18.5304 6.21071 19.0391 6.58579 19.4142C6.96086 19.7893 7.46957 20 8 20H16C16.5304 20 17.0391 19.7893 17.4142 19.4142C17.7893 19.0391 18 18.5304 18 18V17ZM15 5V4H9V5H15Z" fill="currentColor"/>
</svg>
