<svg width="24" height="24" viewBox="0 0 24 24" fill="none" xmlns="http://www.w3.org/2000/svg">
<path fill-rule="evenodd" clip-rule="evenodd" d="M19.073 6.493C19.809 6.558 20.528 6.925 20.975 7.672C21.537 8.609 22 9.997 22 12C22 14.003 21.537 15.39 20.975 16.328C20.528 17.075 19.809 17.442 19.073 17.508C18.368 17.57 17.658 17.361 17.073 17.01L14.046 15.194C13.4911 15.7128 12.7596 16.001 12 16C11.2404 16.001 10.5089 15.7128 9.954 15.194L6.927 17.01C6.342 17.361 5.632 17.57 4.927 17.507C4.191 17.442 3.472 17.075 3.025 16.328C2.463 15.391 2 14.003 2 12C2 9.997 2.463 8.61 3.025 7.672C3.472 6.925 4.191 6.558 4.927 6.492C5.632 6.43 6.342 6.639 6.927 6.99L9.954 8.806C10.5089 8.28719 11.2404 7.99901 12 8C12.79 8 13.51 8.306 14.046 8.806L17.073 6.99C17.658 6.639 18.368 6.431 19.073 6.493ZM18.103 8.705L14.971 10.583C14.991 10.719 15 10.859 15 11H16C16.2652 11 16.5196 11.1054 16.7071 11.2929C16.8946 11.4804 17 11.7348 17 12C17 12.2652 16.8946 12.5196 16.7071 12.7071C16.5196 12.8946 16.2652 13 16 13H15C15 13.141 14.99 13.28 14.971 13.417L18.102 15.295C18.397 15.472 18.689 15.534 18.896 15.515C19.074 15.499 19.18 15.433 19.259 15.301C19.614 14.708 20 13.684 20 12C20 10.316 19.614 9.292 19.26 8.7C19.18 8.567 19.074 8.5 18.896 8.485C18.689 8.466 18.397 8.528 18.102 8.705H18.103ZM5.197 8.482L5.103 8.485C4.925 8.5 4.819 8.567 4.74 8.699C4.386 9.292 4 10.316 4 12C4 13.684 4.386 14.708 4.74 15.3C4.82 15.433 4.926 15.5 5.104 15.515C5.282 15.531 5.521 15.488 5.772 15.364L5.898 15.295L9.028 13.417L9.008 13.21L9 13H8C7.74512 12.9997 7.49997 12.9021 7.31463 12.7272C7.1293 12.5522 7.01777 12.313 7.00283 12.0586C6.98789 11.8042 7.07067 11.5536 7.23426 11.3582C7.39786 11.1627 7.6299 11.0371 7.883 11.007L8 11H9L9.007 10.79L9.029 10.583L5.898 8.705C5.68732 8.57258 5.44545 8.49585 5.197 8.482ZM12 10C11.7348 10 11.4804 10.1054 11.2929 10.2929C11.1054 10.4804 11 10.7348 11 11V13C11 13.2652 11.1054 13.5196 11.2929 13.7071C11.4804 13.8946 11.7348 14 12 14C12.2652 14 12.5196 13.8946 12.7071 13.7071C12.8946 13.5196 13 13.2652 13 13V11C13 10.7348 12.8946 10.4804 12.7071 10.2929C12.5196 10.1054 12.2652 10 12 10Z" fill="currentColor"/>
</svg>
