<svg width="24" height="24" viewBox="0 0 24 24" fill="none" xmlns="http://www.w3.org/2000/svg">
<path fill-rule="evenodd" clip-rule="evenodd" d="M13.2501 2.567L19.5441 6.201C19.9241 6.42042 20.2397 6.736 20.4591 7.11604C20.6785 7.49607 20.794 7.92717 20.7941 8.366V15.634C20.794 16.0728 20.6785 16.5039 20.4591 16.884C20.2397 17.264 19.9241 17.5796 19.5441 17.799L13.2501 21.433C12.87 21.6524 12.4389 21.7679 12.0001 21.7679C11.5612 21.7679 11.1301 21.6524 10.7501 21.433L4.45605 17.799C4.07602 17.5796 3.76043 17.264 3.54101 16.884C3.32159 16.5039 3.20607 16.0728 3.20605 15.634V8.366C3.20607 7.92717 3.32159 7.49607 3.54101 7.11604C3.76043 6.736 4.07602 6.42042 4.45605 6.201L10.7501 2.567C11.1301 2.34758 11.5612 2.23206 12.0001 2.23206C12.4389 2.23206 12.87 2.34758 13.2501 2.567ZM5.20605 9.232V15.634C5.20606 15.7218 5.22916 15.808 5.27305 15.884C5.31693 15.96 5.38005 16.0231 5.45605 16.067L11.0001 19.267V12.56L5.20605 9.232ZM18.7941 9.232L13.0001 12.56V19.269L18.5441 16.068C18.6071 16.0316 18.6614 15.9818 18.7032 15.9222C18.745 15.8627 18.7733 15.7947 18.7861 15.723L18.7941 15.635V9.232ZM11.7501 4.3L6.20605 7.5L11.7501 10.701C11.8261 10.7449 11.9123 10.768 12.0001 10.768C12.0878 10.768 12.174 10.7449 12.2501 10.701L17.7941 7.5L12.2501 4.299C12.174 4.25512 12.0878 4.23201 12.0001 4.23201C11.9123 4.23201 11.8261 4.25512 11.7501 4.299V4.3Z" fill="currentColor"/>
</svg>
