<svg width="24" height="24" viewBox="0 0 24 24" fill="none" xmlns="http://www.w3.org/2000/svg">
<path d="M7.99987 3C8.25475 3.00028 8.4999 3.09788 8.68524 3.27285C8.87057 3.44782 8.9821 3.68695 8.99704 3.94139C9.01198 4.19584 8.92919 4.44638 8.7656 4.64183C8.60201 4.83729 8.36996 4.9629 8.11687 4.993L7.99987 5H6.99987C6.75494 5.00003 6.51853 5.08996 6.3355 5.25272C6.15246 5.41547 6.03553 5.63975 6.00687 5.883L5.99987 6V10C5.99987 10.768 5.71087 11.47 5.23587 12C5.66387 12.478 5.93987 13.093 5.99087 13.772L5.99987 14V18C5.9999 18.2449 6.08982 18.4813 6.25258 18.6644C6.41534 18.8474 6.63962 18.9643 6.88287 18.993L6.99987 19H7.99987C8.25475 19.0003 8.4999 19.0979 8.68524 19.2728C8.87057 19.4478 8.9821 19.687 8.99704 19.9414C9.01198 20.1958 8.92919 20.4464 8.7656 20.6418C8.60201 20.8373 8.36996 20.9629 8.11687 20.993L7.99987 21H6.99987C6.23466 21 5.49835 20.7077 4.94161 20.1827C4.38486 19.6578 4.04976 18.9399 4.00487 18.176L3.99987 18V14C3.99984 13.7551 3.90991 13.5187 3.74715 13.3356C3.58439 13.1526 3.36012 13.0357 3.11687 13.007L2.99987 13C2.74499 12.9997 2.49984 12.9021 2.3145 12.7272C2.12916 12.5522 2.01763 12.313 2.0027 12.0586C1.98776 11.8042 2.07054 11.5536 2.23413 11.3582C2.39772 11.1627 2.62977 11.0371 2.88287 11.007L2.99987 11C3.2448 11 3.48121 10.91 3.66424 10.7473C3.84728 10.5845 3.96421 10.3603 3.99287 10.117L3.99987 10V6C3.99983 5.23479 4.29219 4.49849 4.81715 3.94174C5.34211 3.38499 6.05998 3.04989 6.82387 3.005L6.99987 3H7.99987ZM16.9999 3C17.7651 2.99996 18.5014 3.29233 19.0581 3.81728C19.6149 4.34224 19.95 5.06011 19.9949 5.824L19.9999 6V10C19.9999 10.2449 20.0898 10.4813 20.2526 10.6644C20.4153 10.8474 20.6396 10.9643 20.8829 10.993L20.9999 11C21.2547 11.0003 21.4999 11.0979 21.6852 11.2728C21.8706 11.4478 21.9821 11.687 21.997 11.9414C22.012 12.1958 21.9292 12.4464 21.7656 12.6418C21.602 12.8373 21.37 12.9629 21.1169 12.993L20.9999 13C20.7549 13 20.5185 13.09 20.3355 13.2527C20.1525 13.4155 20.0355 13.6397 20.0069 13.883L19.9999 14V18C19.9999 18.7652 19.7075 19.5015 19.1826 20.0583C18.6576 20.615 17.9398 20.9501 17.1759 20.995L16.9999 21H15.9999C15.745 20.9997 15.4998 20.9021 15.3145 20.7272C15.1292 20.5522 15.0176 20.313 15.0027 20.0586C14.9878 19.8042 15.0705 19.5536 15.2341 19.3582C15.3977 19.1627 15.6298 19.0371 15.8829 19.007L15.9999 19H16.9999C17.2448 19 17.4812 18.91 17.6642 18.7473C17.8473 18.5845 17.9642 18.3603 17.9929 18.117L17.9999 18V14C17.9999 13.232 18.2889 12.53 18.7639 12C18.3235 11.5089 18.058 10.8858 18.0089 10.228L17.9999 10V6C17.9998 5.75507 17.9099 5.51866 17.7472 5.33563C17.5844 5.15259 17.3601 5.03566 17.1169 5.007L16.9999 5H15.9999C15.745 4.99972 15.4998 4.90212 15.3145 4.72715C15.1292 4.55218 15.0176 4.31305 15.0027 4.05861C14.9878 3.80416 15.0705 3.55362 15.2341 3.35817C15.3977 3.16271 15.6298 3.0371 15.8829 3.007L15.9999 3H16.9999Z" fill="currentColor"/>
</svg>
