<svg width="24" height="24" viewBox="0 0 24 24" fill="none" xmlns="http://www.w3.org/2000/svg">
<path fill-rule="evenodd" clip-rule="evenodd" d="M9.848 4.53C9.98857 4.3051 10.034 4.03357 9.9744 3.77514C9.91476 3.51672 9.75491 3.29257 9.53 3.152C9.3051 3.01144 9.03357 2.96597 8.77514 3.02561C8.51672 3.08525 8.29257 3.2451 8.152 3.47L3.152 11.47C3.05267 11.6289 3 11.8126 3 12C3 12.1874 3.05267 12.3711 3.152 12.53L8.152 20.53C8.29257 20.7549 8.51672 20.9148 8.77514 20.9744C9.03357 21.034 9.3051 20.9886 9.53 20.848C9.75491 20.7074 9.91476 20.4833 9.9744 20.2249C10.034 19.9664 9.98857 19.6949 9.848 19.47L5.179 12L9.848 4.53ZM14.152 4.53C14.0114 4.3051 13.966 4.03357 14.0256 3.77514C14.0852 3.51672 14.2451 3.29257 14.47 3.152C14.6949 3.01144 14.9664 2.96597 15.2249 3.02561C15.4833 3.08525 15.7074 3.2451 15.848 3.47L20.848 11.47C20.9473 11.6289 21 11.8126 21 12C21 12.1874 20.9473 12.3711 20.848 12.53L15.848 20.53C15.7074 20.7549 15.4833 20.9148 15.2249 20.9744C14.9664 21.034 14.6949 20.9886 14.47 20.848C14.2451 20.7074 14.0852 20.4833 14.0256 20.2249C13.966 19.9664 14.0114 19.6949 14.152 19.47L18.821 12L14.152 4.53Z" fill="currentColor"/>
</svg>
