<svg width="24" height="24" viewBox="0 0 24 24" fill="none" xmlns="http://www.w3.org/2000/svg">
<path fill-rule="evenodd" clip-rule="evenodd" d="M19.8386 4.282C20.6286 5.073 21.0186 5.993 20.9986 7.002C20.9816 7.963 20.5936 8.896 20.0606 9.766C19.3506 10.928 18.2656 12.154 17.0526 13.411L16.3806 14.1L15.6906 14.794L14.4206 16.062L13.6806 16.792C12.3286 18.109 11.0106 19.299 9.76561 20.061C8.89561 20.594 7.96261 20.981 7.00161 21C5.99261 21.02 5.07261 20.63 4.28161 19.839C3.09461 18.652 2.58561 16.495 2.88461 14.194C3.17761 11.938 4.25561 9.391 6.44961 7.074L6.77261 6.742C9.16961 4.352 11.8396 3.191 14.1926 2.885C16.4936 2.586 18.6516 3.095 19.8386 4.282ZM18.4246 5.697C17.8436 5.116 16.4166 4.613 14.4506 4.868C14.0206 4.924 13.5716 5.016 13.1106 5.149C13.3706 5.449 13.7106 5.664 14.1446 5.809C14.2708 5.84925 14.3877 5.91416 14.4886 5.99997C14.5895 6.08577 14.6723 6.19076 14.7323 6.30884C14.7922 6.42692 14.8282 6.55574 14.8379 6.68781C14.8477 6.81989 14.8312 6.95259 14.7893 7.07822C14.7473 7.20384 14.6809 7.31989 14.5937 7.41963C14.5066 7.51936 14.4005 7.60079 14.2817 7.6592C14.1628 7.7176 14.0335 7.75181 13.9013 7.75985C13.7691 7.76788 13.6367 7.74958 13.5116 7.706C12.5016 7.37 11.7236 6.764 11.2036 5.917C10.2944 6.39589 9.44961 6.98829 8.68961 7.68C8.84861 7.917 9.06161 8.18 9.31961 8.438C9.74361 8.861 10.1776 9.164 10.4956 9.301L10.6086 9.345C10.8603 9.4288 11.0684 9.60916 11.1871 9.8464C11.3058 10.0836 11.3254 10.3583 11.2416 10.61C11.1578 10.8617 10.9774 11.0698 10.7402 11.1885C10.503 11.3072 10.2283 11.3268 9.97661 11.243C9.23861 10.997 8.49061 10.436 7.90661 9.852C7.68469 9.63063 7.47694 9.3955 7.28461 9.148C6.64828 9.91571 6.11262 10.7616 5.69061 11.665C5.96161 12.269 6.40661 12.659 7.07361 12.881C7.32189 12.9675 7.5261 13.1483 7.64205 13.3843C7.758 13.6203 7.77635 13.8924 7.69312 14.1418C7.6099 14.3912 7.43181 14.5978 7.19739 14.7169C6.96297 14.836 6.69109 14.8579 6.44061 14.778C5.89403 14.6015 5.38721 14.3199 4.94861 13.949C4.91661 14.119 4.88861 14.287 4.86861 14.452C4.61261 16.419 5.11561 17.845 5.69661 18.426C6.14261 18.872 6.55261 19.009 6.96361 19.001C7.42161 18.992 7.99661 18.8 8.72161 18.356C9.67361 17.774 10.7096 16.871 11.8546 15.776L12.4896 15.159L13.4846 14.172L14.8366 12.817L15.4706 12.171C16.7036 10.901 17.7196 9.761 18.3546 8.723C18.7986 7.998 18.9906 7.423 18.9996 6.965C19.0076 6.555 18.8706 6.144 18.4246 5.697Z" fill="currentColor"/>
</svg>
