<svg width="24" height="24" viewBox="0 0 24 24" fill="none" xmlns="http://www.w3.org/2000/svg">
<path fill-rule="evenodd" clip-rule="evenodd" d="M15 18C15.2549 18.0003 15.5 18.0979 15.6854 18.2728C15.8707 18.4478 15.9822 18.687 15.9972 18.9414C16.0121 19.1958 15.9293 19.4464 15.7657 19.6418C15.6021 19.8373 15.3701 19.9629 15.117 19.993L15 20H12C11.7451 19.9997 11.5 19.9021 11.3146 19.7272C11.1293 19.5522 11.0178 19.313 11.0028 19.0586C10.9879 18.8042 11.0707 18.5536 11.2343 18.3582C11.3979 18.1627 11.6299 18.0371 11.883 18.007L12 18H15ZM13 15C13.2652 15 13.5196 15.1054 13.7071 15.2929C13.8946 15.4804 14 15.7348 14 16C14 16.2652 13.8946 16.5196 13.7071 16.7071C13.5196 16.8946 13.2652 17 13 17H9C8.73478 17 8.48043 16.8946 8.29289 16.7071C8.10536 16.5196 8 16.2652 8 16C8 15.7348 8.10536 15.4804 8.29289 15.2929C8.48043 15.1054 8.73478 15 9 15H13ZM15 3C15.2449 3.00003 15.4813 3.08996 15.6644 3.25272C15.8474 3.41547 15.9643 3.63975 15.993 3.883L16 4V4.454C17.59 4.832 18.85 5.391 19.775 5.913L20 6.043V6C20.0003 5.74512 20.0979 5.49997 20.2728 5.31463C20.4478 5.1293 20.687 5.01777 20.9414 5.00283C21.1958 4.98789 21.4464 5.07067 21.6418 5.23426C21.8373 5.39786 21.9629 5.6299 21.993 5.883L22 6V12.9C22.0001 13.1711 21.9002 13.4326 21.7193 13.6345C21.5385 13.8364 21.2894 13.9644 21.02 13.994L20.9 14H16.045C15.506 14 15.063 13.593 15.006 13.07L15 12.954V12.5C15.0008 11.7191 14.697 10.9687 14.1532 10.4082C13.6095 9.84769 12.8686 9.52132 12.088 9.4984C11.3075 9.47548 10.5487 9.75784 9.97303 10.2855C9.39733 10.8131 9.05006 11.5444 9.005 12.324L9 12.5V12.955C9 13.494 8.593 13.937 8.07 13.994L7.954 14H3.1C2.82894 14.0001 2.56738 13.9002 2.36548 13.7193C2.16358 13.5385 2.03557 13.2894 2.006 13.02L2 12.9V6C2.00028 5.74512 2.09788 5.49997 2.27285 5.31463C2.44782 5.1293 2.68695 5.01777 2.94139 5.00283C3.19584 4.98789 3.44638 5.07067 3.64183 5.23426C3.83729 5.39786 3.9629 5.6299 3.993 5.883L4 6V6.042C5.12941 5.38234 6.3441 4.88099 7.61 4.552L8 4.455V4C8.00028 3.74512 8.09788 3.49997 8.27285 3.31463C8.44782 3.1293 8.68695 3.01777 8.94139 3.00283C9.19584 2.98789 9.44638 3.07067 9.64183 3.23426C9.83729 3.39786 9.9629 3.6299 9.993 3.883L10 4V4.109C11.1698 3.98064 12.3492 3.96523 13.522 4.063L14 4.109V4C14 3.73478 14.1054 3.48043 14.2929 3.29289C14.4804 3.10536 14.7348 3 15 3ZM12 6C8.6 6 6.247 7.022 4.937 7.812L4.643 7.996L4.389 8.167L4.174 8.322L4 8.456V12H7.025C7.14881 10.7666 7.72639 9.62311 8.64567 8.79149C9.56494 7.95986 10.7604 7.49937 12 7.49937C13.2396 7.49937 14.4351 7.95986 15.3543 8.79149C16.2736 9.62311 16.8512 10.7666 16.975 12H20V8.456L19.826 8.322L19.611 8.167L19.357 7.996L19.063 7.812C17.753 7.022 15.4 6 12 6Z" fill="currentColor"/>
</svg>
