<svg width="24" height="24" viewBox="0 0 24 24" fill="none" xmlns="http://www.w3.org/2000/svg">
<path fill-rule="evenodd" clip-rule="evenodd" d="M18 4C18.2449 4.00003 18.4813 4.08996 18.6644 4.25272C18.8474 4.41547 18.9643 4.63975 18.993 4.883L19 5V6.565L19.116 6.666L19.393 6.897C19.443 6.939 19.497 6.981 19.551 7.023C20.084 7.438 20.728 7.855 21.316 8.051C21.4406 8.0925 21.5558 8.15814 21.6551 8.24417C21.7544 8.3302 21.8357 8.43494 21.8945 8.5524C21.9533 8.66987 21.9883 8.79776 21.9977 8.92878C22.007 9.0598 21.9905 9.19138 21.949 9.316C21.9075 9.44062 21.8419 9.55585 21.7558 9.65511C21.6698 9.75437 21.5651 9.83571 21.4476 9.89449C21.3301 9.95327 21.2022 9.98834 21.0712 9.99769C20.9402 10.007 20.8086 9.9905 20.684 9.949C20.1821 9.77383 19.7022 9.54093 19.254 9.255L19 9.091V14H22C22.2549 14.0003 22.5 14.0979 22.6854 14.2728C22.8707 14.4478 22.9822 14.687 22.9972 14.9414C23.0121 15.1958 22.9293 15.4464 22.7657 15.6418C22.6021 15.8373 22.3701 15.9629 22.117 15.993L22 16H19V19C18.9997 19.2549 18.9021 19.5 18.7271 19.6854C18.5522 19.8707 18.313 19.9822 18.0586 19.9972C17.8042 20.0121 17.5536 19.9293 17.3582 19.7657C17.1627 19.6021 17.0371 19.3701 17.007 19.117L17 19V16H6.99999V19C6.99971 19.2549 6.90211 19.5 6.72714 19.6854C6.55217 19.8707 6.31304 19.9822 6.0586 19.9972C5.80415 20.0121 5.55361 19.9293 5.35816 19.7657C5.16271 19.6021 5.03709 19.3701 5.00699 19.117L4.99999 19V16H1.99999C1.74511 15.9997 1.49996 15.9021 1.31462 15.7272C1.12929 15.5522 1.01776 15.313 1.00282 15.0586C0.987882 14.8042 1.07067 14.5536 1.23426 14.3582C1.39785 14.1627 1.62989 14.0371 1.88299 14.007L1.99999 14H4.99999V9.09C4.50399 9.421 3.92199 9.747 3.31599 9.949C3.19137 9.9905 3.05979 10.007 2.92877 9.99769C2.79775 9.98834 2.66986 9.95327 2.55239 9.89449C2.31516 9.77578 2.1348 9.56769 2.05099 9.316C1.96718 9.06431 1.98679 8.78964 2.1055 8.5524C2.22421 8.31517 2.4323 8.13481 2.68399 8.051C3.27199 7.855 3.91599 7.438 4.44899 7.023L4.60699 6.897L4.88399 6.666L4.99999 6.565V5C5.00027 4.74512 5.09787 4.49997 5.27284 4.31463C5.44781 4.1293 5.68694 4.01777 5.94139 4.00283C6.19583 3.98789 6.44637 4.07067 6.64182 4.23426C6.83728 4.39786 6.96289 4.6299 6.99299 4.883L6.99999 5V6.722C7.26266 7.09774 7.57826 7.43354 7.93699 7.719C8.70999 8.338 9.99299 9 12 9C14.007 9 15.29 8.338 16.063 7.72C16.456 7.405 16.727 7.094 16.895 6.869L17 6.722V5C17 4.73478 17.1053 4.48043 17.2929 4.29289C17.4804 4.10536 17.7348 4 18 4ZM17 9.517C16.4844 9.88396 15.9246 10.1847 15.334 10.412L15 10.533V14H17V9.517ZM13 10.953C12.4426 11.0064 11.8818 11.0151 11.323 10.979L11 10.953V14H13V10.953ZM6.99999 9.517V14H8.99999V10.533L8.66599 10.413C8.16547 10.2197 7.6868 9.97402 7.23799 9.68L6.99999 9.517Z" fill="currentColor"/>
</svg>
