<svg width="24" height="24" viewBox="0 0 24 24" fill="none" xmlns="http://www.w3.org/2000/svg">
<path d="M14 3C14.7956 3 15.5587 3.31607 16.1213 3.87868C16.6839 4.44129 17 5.20435 17 6H20C20.5304 6 21.0391 6.21071 21.4142 6.58579C21.7893 6.96086 22 7.46957 22 8V19C22 19.5304 21.7893 20.0391 21.4142 20.4142C21.0391 20.7893 20.5304 21 20 21H4C3.46957 21 2.96086 20.7893 2.58579 20.4142C2.21071 20.0391 2 19.5304 2 19V8C2 7.46957 2.21071 6.96086 2.58579 6.58579C2.96086 6.21071 3.46957 6 4 6H7C7 5.20435 7.31607 4.44129 7.87868 3.87868C8.44129 3.31607 9.20435 3 10 3H14ZM11 12H4V19H20V12H13V13C12.9997 13.2549 12.9021 13.5 12.7272 13.6854C12.5522 13.8707 12.313 13.9822 12.0586 13.9972C11.8042 14.0121 11.5536 13.9293 11.3582 13.7657C11.1627 13.6021 11.0371 13.3701 11.007 13.117L11 13V12ZM20 8H4V10H20V8ZM14 5H10C9.75507 5.00003 9.51866 5.08996 9.33563 5.25272C9.15259 5.41547 9.03566 5.63975 9.007 5.883L9 6H15C15 5.75507 14.91 5.51866 14.7473 5.33563C14.5845 5.15259 14.3603 5.03566 14.117 5.007L14 5Z" fill="currentColor"/>
</svg>
