<svg width="24" height="24" viewBox="0 0 24 24" fill="none" xmlns="http://www.w3.org/2000/svg">
<path fill-rule="evenodd" clip-rule="evenodd" d="M18.417 4C19.39 4 20.412 4.479 20.916 5.467C21.6307 6.87103 22.0022 8.42454 22 10C22 15.523 17.523 20 12 20C6.477 20 2 15.523 2 10C2 8.37 2.39 6.829 3.084 5.467C3.588 4.479 4.61 4 5.584 4H18.417ZM18.417 6H5.583C5.221 6 4.968 6.173 4.866 6.374C4.29445 7.4971 3.99765 8.73983 4 10C5.85652 10 7.63699 10.7375 8.94975 12.0503C10.2625 13.363 11 15.1435 11 17V17.938C11.6641 18.0209 12.3359 18.0209 13 17.938V17C13 15.1435 13.7375 13.363 15.0503 12.0503C16.363 10.7375 18.1435 10 20 10C20.0023 8.73983 19.7055 7.4971 19.134 6.374C19.03 6.173 18.779 6 18.417 6ZM19.747 12.006C18.4663 12.0709 17.2595 12.6254 16.376 13.5548C15.4925 14.4843 14.9999 15.7176 15 17V17.419C16.1583 16.9491 17.1906 16.2149 18.0147 15.2751C18.8387 14.3352 19.4326 13.2158 19.747 12.006ZM4.254 12.006C4.55659 13.1703 5.11727 14.2516 5.89452 15.1697C6.67176 16.0879 7.64564 16.8194 8.744 17.31L9 17.419V17C9.00012 15.7178 8.50765 14.4846 7.62438 13.5551C6.74111 12.6257 5.53453 12.0711 4.254 12.006Z" fill="currentColor"/>
</svg>
