<svg width="24" height="24" viewBox="0 0 24 24" fill="none" xmlns="http://www.w3.org/2000/svg">
<path fill-rule="evenodd" clip-rule="evenodd" d="M7.1 7H4C3.46957 7 2.96086 7.21071 2.58579 7.58579C2.21071 7.96086 2 8.46957 2 9V19C2 19.5304 2.21071 20.0391 2.58579 20.4142C2.96086 20.7893 3.46957 21 4 21H20C20.5304 21 21.0391 20.7893 21.4142 20.4142C21.7893 20.0391 22 19.5304 22 19V9C22 8.46957 21.7893 7.96086 21.4142 7.58579C21.0391 7.21071 20.5304 7 20 7H16.9C16.6685 5.87136 16.0545 4.85723 15.1617 4.12898C14.2689 3.40072 13.1521 3.00299 12 3.00299C10.8479 3.00299 9.73105 3.40072 8.83827 4.12898C7.94549 4.85723 7.33148 5.87136 7.1 7ZM9.17 7H14.83C14.6234 6.41447 14.2403 5.90743 13.7334 5.54879C13.2265 5.19015 12.6209 4.99755 12 4.99755C11.3791 4.99755 10.7735 5.19015 10.2666 5.54879C9.75974 5.90743 9.3766 6.41447 9.17 7ZM20 12V9H4V12H9.17C9.3766 11.4145 9.75974 10.9074 10.2666 10.5488C10.7735 10.1901 11.3791 9.99755 12 9.99755C12.6209 9.99755 13.2265 10.1901 13.7334 10.5488C14.2403 10.9074 14.6234 11.4145 14.83 12H20ZM15 14H20V19H4V14H9C9 14.7957 9.31607 15.5587 9.87868 16.1213C10.4413 16.6839 11.2044 17 12 17C12.7956 17 13.5587 16.6839 14.1213 16.1213C14.6839 15.5587 15 14.7957 15 14ZM12 12C11.7348 12 11.4804 12.1054 11.2929 12.2929C11.1054 12.4804 11 12.7348 11 13V14C11 14.2652 11.1054 14.5196 11.2929 14.7071C11.4804 14.8946 11.7348 15 12 15C12.2652 15 12.5196 14.8946 12.7071 14.7071C12.8946 14.5196 13 14.2652 13 14V13C13 12.7348 12.8946 12.4804 12.7071 12.2929C12.5196 12.1054 12.2652 12 12 12Z" fill="currentColor"/>
</svg>
