<svg width="24" height="24" viewBox="0 0 24 24" fill="none" xmlns="http://www.w3.org/2000/svg">
<path d="M12 19C12.2449 19 12.4813 19.09 12.6644 19.2527C12.8474 19.4155 12.9643 19.6397 12.993 19.883L13 20V21C12.9997 21.2549 12.9021 21.5 12.7272 21.6854C12.5522 21.8707 12.313 21.9822 12.0586 21.9972C11.8042 22.0121 11.5536 21.9293 11.3582 21.7657C11.1627 21.6021 11.0371 21.3701 11.007 21.117L11 21V20C11 19.7348 11.1054 19.4804 11.2929 19.2929C11.4804 19.1054 11.7348 19 12 19ZM16.95 16.95C17.1222 16.7778 17.3513 16.6744 17.5943 16.6591C17.8373 16.6438 18.0776 16.7177 18.27 16.867L18.364 16.95L19.071 17.657C19.2503 17.837 19.3545 18.0784 19.3622 18.3324C19.37 18.5863 19.2808 18.8337 19.1128 19.0243C18.9447 19.2148 18.7104 19.3343 18.4575 19.3584C18.2046 19.3825 17.952 19.3094 17.751 19.154L17.657 19.071L16.95 18.364C16.7625 18.1765 16.6572 17.9222 16.6572 17.657C16.6572 17.3918 16.7625 17.1375 16.95 16.95ZM7.05 16.95C7.23747 17.1375 7.34279 17.3918 7.34279 17.657C7.34279 17.9222 7.23747 18.1765 7.05 18.364L6.343 19.071C6.1544 19.2532 5.9018 19.354 5.6396 19.3517C5.3774 19.3494 5.12659 19.2442 4.94118 19.0588C4.75577 18.8734 4.6506 18.6226 4.64833 18.3604C4.64605 18.0982 4.74684 17.8456 4.929 17.657L5.636 16.95C5.82353 16.7625 6.07784 16.6572 6.343 16.6572C6.60816 16.6572 6.86247 16.7625 7.05 16.95ZM12 6C13.5913 6 15.1174 6.63214 16.2426 7.75736C17.3679 8.88258 18 10.4087 18 12C18 13.5913 17.3679 15.1174 16.2426 16.2426C15.1174 17.3679 13.5913 18 12 18C10.4087 18 8.88258 17.3679 7.75736 16.2426C6.63214 15.1174 6 13.5913 6 12C6 10.4087 6.63214 8.88258 7.75736 7.75736C8.88258 6.63214 10.4087 6 12 6ZM12 8C10.9391 8 9.92172 8.42143 9.17157 9.17157C8.42143 9.92172 8 10.9391 8 12C8 13.0609 8.42143 14.0783 9.17157 14.8284C9.92172 15.5786 10.9391 16 12 16V8ZM4 11C4.26522 11 4.51957 11.1054 4.70711 11.2929C4.89464 11.4804 5 11.7348 5 12C5 12.2652 4.89464 12.5196 4.70711 12.7071C4.51957 12.8946 4.26522 13 4 13H3C2.73478 13 2.48043 12.8946 2.29289 12.7071C2.10536 12.5196 2 12.2652 2 12C2 11.7348 2.10536 11.4804 2.29289 11.2929C2.48043 11.1054 2.73478 11 3 11H4ZM21 11C21.2549 11.0003 21.5 11.0979 21.6854 11.2728C21.8707 11.4478 21.9822 11.687 21.9972 11.9414C22.0121 12.1958 21.9293 12.4464 21.7657 12.6418C21.6021 12.8373 21.3701 12.9629 21.117 12.993L21 13H20C19.7451 12.9997 19.5 12.9021 19.3146 12.7272C19.1293 12.5522 19.0178 12.313 19.0028 12.0586C18.9879 11.8042 19.0707 11.5536 19.2343 11.3582C19.3979 11.1627 19.6299 11.0371 19.883 11.007L20 11H21ZM6.343 4.929L7.05 5.636C7.23216 5.8246 7.33295 6.0772 7.33067 6.3394C7.3284 6.6016 7.22323 6.85241 7.03782 7.03782C6.85241 7.22323 6.6016 7.3284 6.3394 7.33067C6.0772 7.33295 5.8246 7.23216 5.636 7.05L4.929 6.343C4.83132 6.25127 4.75307 6.14085 4.69891 6.01829C4.64474 5.89574 4.61575 5.76354 4.61367 5.62956C4.61159 5.49558 4.63646 5.36255 4.68679 5.23837C4.73713 5.11419 4.81191 5.00139 4.90669 4.90668C5.00148 4.81196 5.11433 4.73726 5.23854 4.68701C5.36276 4.63676 5.49581 4.61199 5.62979 4.61417C5.76376 4.61634 5.89594 4.64542 6.01846 4.69968C6.14098 4.75393 6.25134 4.83126 6.343 4.929ZM17.657 4.929C17.837 4.74965 18.0784 4.64553 18.3324 4.63777C18.5863 4.63002 18.8337 4.71922 19.0243 4.88725C19.2148 5.05528 19.3343 5.28955 19.3584 5.54247C19.3825 5.7954 19.3094 6.04801 19.154 6.249L19.071 6.343L18.364 7.05C18.184 7.22935 17.9426 7.33347 17.6886 7.34123C17.4347 7.34898 17.1873 7.25978 16.9967 7.09175C16.8062 6.92372 16.6867 6.68945 16.6626 6.43653C16.6385 6.1836 16.7116 5.93099 16.867 5.73L16.95 5.636L17.657 4.929ZM12 2C12.2449 2.00003 12.4813 2.08996 12.6644 2.25272C12.8474 2.41547 12.9643 2.63975 12.993 2.883L13 3V4C12.9997 4.25488 12.9021 4.50003 12.7272 4.68537C12.5522 4.8707 12.313 4.98223 12.0586 4.99717C11.8042 5.01211 11.5536 4.92933 11.3582 4.76574C11.1627 4.60214 11.0371 4.3701 11.007 4.117L11 4V3C11 2.73478 11.1054 2.48043 11.2929 2.29289C11.4804 2.10536 11.7348 2 12 2Z" fill="currentColor"/>
</svg>
