<svg width="24" height="24" viewBox="0 0 24 24" fill="none" xmlns="http://www.w3.org/2000/svg">
<path fill-rule="evenodd" clip-rule="evenodd" d="M17.2782 2.613C17.3746 2.37713 17.5574 2.18698 17.7893 2.08135C18.0212 1.97573 18.2847 1.96262 18.5259 2.04469C18.7671 2.12676 18.9679 2.29782 19.0873 2.52295C19.2067 2.74807 19.2356 3.01027 19.1682 3.256L19.1302 3.366L16.5202 9.786L17.1772 9.961C18.2272 10.242 19.1012 11.095 19.2672 12.259C19.4092 13.259 19.5422 14.779 19.3592 16.345C19.1772 17.897 18.6692 19.623 17.4122 20.891C16.9502 21.357 16.2872 21.431 15.8392 21.439C15.3282 21.447 14.7392 21.369 14.1342 21.249C12.9182 21.007 11.4602 20.559 10.0802 20.083L9.66617 19.938L8.85317 19.644L8.07317 19.353L7.33917 19.07L6.36117 18.682L5.53917 18.347L4.72217 18.002C4.56185 17.9343 4.42198 17.8259 4.31639 17.6875C4.21081 17.5492 4.14316 17.3857 4.12013 17.2131C4.0971 17.0406 4.11949 16.8651 4.18509 16.7039C4.25069 16.5427 4.35723 16.4014 4.49417 16.294C5.87117 15.214 7.16417 13.972 8.25517 12.825L8.78417 12.261L9.03417 11.987L9.50617 11.46L9.72617 11.208L10.3202 10.513L10.6572 10.107C11.0098 9.67374 11.473 9.34395 11.9978 9.15258C12.5226 8.96121 13.0894 8.9154 13.6382 9.02L13.8372 9.066L14.5742 9.263L17.2782 2.613ZM10.5002 13.348C9.40569 14.56 8.24421 15.7098 7.02117 16.792C7.59717 17.024 8.17417 17.252 8.75417 17.472C9.28753 17.0922 9.76719 16.6421 10.1802 16.134C10.3552 15.9255 10.5181 15.7071 10.6682 15.48L10.8102 15.248C10.9418 15.0213 11.1571 14.8553 11.4099 14.7858C11.6626 14.7163 11.9326 14.7488 12.1616 14.8764C12.3906 15.0039 12.5604 15.2163 12.6344 15.4678C12.7084 15.7193 12.6806 15.9898 12.5572 16.221C12.3232 16.641 12.0302 17.035 11.7252 17.405C11.4782 17.7056 11.2138 17.9915 10.9332 18.261C11.3952 18.419 11.8572 18.569 12.3052 18.707C12.6782 18.45 13.1152 17.922 13.5112 17.322C13.6702 17.082 13.8212 16.835 13.9632 16.582L14.1672 16.198C14.2848 15.9602 14.4921 15.7789 14.7433 15.694C14.9946 15.609 15.2694 15.6274 15.5072 15.745C15.7449 15.8626 15.9262 16.0699 16.0112 16.3212C16.0961 16.5725 16.0778 16.8472 15.9602 17.085C15.7312 17.547 15.4642 17.994 15.1802 18.424C14.9838 18.7239 14.7722 19.0137 14.5462 19.292L14.9672 19.374C15.3292 19.441 15.7112 19.488 16.0562 19.417C16.8222 18.602 17.2192 17.419 17.3722 16.112C17.4082 15.809 17.4302 15.506 17.4402 15.208L10.5002 13.348ZM13.3192 10.998C13.1165 10.9474 12.9035 10.9562 12.7057 11.0232C12.5078 11.0902 12.3334 11.2127 12.2032 11.376L11.9602 11.669L17.3582 13.115L17.3112 12.723C17.3035 12.6623 17.2955 12.6016 17.2872 12.541C17.2502 12.288 17.0712 12.05 16.7762 11.931L16.6602 11.893L13.3192 10.998ZM5.56517 7.716L5.62917 7.856C5.90186 8.42009 6.33133 8.89365 6.86617 9.22L6.96617 9.278C6.97656 9.28395 6.98519 9.29254 6.99119 9.3029C6.9972 9.31326 7.00036 9.32503 7.00036 9.337C7.00036 9.34897 6.9972 9.36073 6.99119 9.37109C6.98519 9.38145 6.97656 9.39005 6.96617 9.396L6.86617 9.454C6.33141 9.78103 5.90227 10.2553 5.63017 10.82L5.56617 10.959C5.56062 10.9716 5.55152 10.9824 5.53998 10.9899C5.52844 10.9974 5.51495 11.0014 5.50117 11.0014C5.48738 11.0014 5.4739 10.9974 5.46236 10.9899C5.45081 10.9824 5.44171 10.9716 5.43617 10.959L5.37217 10.819C5.09948 10.2549 4.67001 9.78135 4.13517 9.455L4.03517 9.397C4.02478 9.39105 4.01615 9.38246 4.01014 9.3721C4.00414 9.36173 4.00098 9.34997 4.00098 9.338C4.00098 9.32603 4.00414 9.31426 4.01014 9.3039C4.01615 9.29354 4.02478 9.28495 4.03517 9.279L4.13517 9.221C4.66956 8.89382 5.09833 8.41956 5.37017 7.855L5.43417 7.716C5.43971 7.70338 5.44881 7.69265 5.46036 7.68511C5.4719 7.67758 5.48538 7.67356 5.49917 7.67356C5.51295 7.67356 5.52644 7.67758 5.53798 7.68511C5.54952 7.69265 5.55962 7.70338 5.56517 7.716ZM8.39717 2.857C8.43717 2.767 8.56317 2.767 8.60317 2.857L8.70517 3.079C9.13951 3.97697 9.82348 4.73073 10.6752 5.25L10.8322 5.343C10.849 5.35234 10.8631 5.36603 10.8729 5.38265C10.8827 5.39927 10.8879 5.41821 10.8879 5.4375C10.8879 5.45679 10.8827 5.47573 10.8729 5.49235C10.8631 5.50897 10.849 5.52266 10.8322 5.532L10.6742 5.624C9.82234 6.14354 9.13836 6.89766 8.70417 7.796L8.60417 8.018C8.59536 8.03811 8.58087 8.05522 8.56249 8.06723C8.54411 8.07925 8.52263 8.08565 8.50067 8.08565C8.47871 8.08565 8.45723 8.07925 8.43885 8.06723C8.42046 8.05522 8.40598 8.03811 8.39717 8.018L8.29517 7.796C7.86098 6.89766 7.177 6.14354 6.32517 5.624L6.16717 5.532C6.15029 5.52266 6.13622 5.50897 6.12642 5.49235C6.11662 5.47573 6.11145 5.45679 6.11145 5.4375C6.11145 5.41821 6.11662 5.39927 6.12642 5.38265C6.13622 5.36603 6.15029 5.35234 6.16717 5.343L6.32617 5.25C7.17786 4.73073 7.86182 3.97697 8.29617 3.079L8.39617 2.857H8.39717Z" fill="currentColor"/>
</svg>
