<svg width="24" height="24" viewBox="0 0 24 24" fill="none" xmlns="http://www.w3.org/2000/svg">
<path fill-rule="evenodd" clip-rule="evenodd" d="M2.80811 2.80801C3.69311 1.92201 4.81811 1.47801 5.99211 1.60501C7.15311 1.73001 8.21711 2.39801 9.04811 3.45101C9.93611 4.57801 10.7481 6.18301 11.3841 7.62501C11.6951 8.32901 12.5441 8.49902 13.0601 8.10002L13.1531 8.01901L13.7681 7.40401C14.2151 6.95693 14.8148 6.69577 15.4466 6.67314C16.0784 6.6505 16.6953 6.86806 17.1731 7.28201L17.3031 7.40401L21.5461 11.646C21.9932 12.093 22.2543 12.6927 22.277 13.3245C22.2996 13.9563 22.0821 14.5732 21.6681 15.051L21.5461 15.181L15.1821 21.546C14.7351 21.9931 14.1354 22.2543 13.5036 22.2769C12.8718 22.2995 12.2549 22.082 11.7771 21.668L11.6471 21.546L7.40411 17.303C6.95644 16.8553 6.6953 16.2545 6.6734 15.6218C6.6515 14.989 6.87047 14.3716 7.28611 13.894L7.40811 13.764L8.01811 13.153C8.51811 12.653 8.37311 11.714 7.62511 11.384C6.18311 10.748 4.57811 9.93602 3.45111 9.04802C2.39811 8.21702 1.73111 7.15302 1.60511 5.99201C1.47811 4.81801 1.92211 3.69201 2.80811 2.80801ZM19.0701 12L12.0001 19.071L13.0601 20.131C13.1066 20.1776 13.1617 20.2145 13.2225 20.2397C13.2832 20.2649 13.3483 20.2779 13.4141 20.2779C13.4799 20.2779 13.545 20.2649 13.6057 20.2397C13.6665 20.2145 13.7217 20.1776 13.7681 20.131L20.1321 13.768C20.2258 13.6742 20.2785 13.5471 20.2785 13.4145C20.2785 13.2819 20.2258 13.1548 20.1321 13.061L19.0701 12ZM5.77711 3.59301C5.27911 3.53901 4.73411 3.71001 4.22211 4.22201C3.71011 4.73401 3.53911 5.27901 3.59311 5.77701C3.64911 6.28901 3.95811 6.90001 4.68911 7.47702C5.60911 8.20201 7.02111 8.93201 8.43311 9.55502C10.3081 10.382 10.9661 12.845 9.56511 14.427L9.43211 14.568L8.81811 15.182C8.73528 15.2647 8.68411 15.3739 8.67351 15.4905C8.66291 15.6071 8.69356 15.7237 8.76011 15.82L8.81811 15.89L10.5861 17.657L17.6561 10.586L15.8891 8.81801C15.8064 8.73519 15.6972 8.68401 15.5806 8.67342C15.464 8.66282 15.3474 8.69346 15.2511 8.76002L15.1821 8.81801L14.5671 9.43301C12.9961 11.004 10.4071 10.365 9.55511 8.43301C8.93211 7.02101 8.20211 5.60901 7.47711 4.68901C6.90011 3.95801 6.28911 3.64901 5.77711 3.59301Z" fill="currentColor"/>
</svg>
