<svg width="24" height="24" viewBox="0 0 24 24" fill="none" xmlns="http://www.w3.org/2000/svg">
<path fill-rule="evenodd" clip-rule="evenodd" d="M20.8939 20.448C20.8108 20.6139 20.6831 20.7534 20.5252 20.8509C20.3673 20.9484 20.1855 21 19.9999 21H5.4999C4.8679 21 4.5679 20.437 4.2999 19.955C4.01192 19.4365 3.76516 18.8962 3.5619 18.339C3.0619 16.975 2.6449 15.046 3.0139 12.836C3.24123 11.4288 3.72527 10.0753 4.4419 8.843C5.0969 7.734 6.3729 7.423 7.4329 7.706L9.6199 8.292L10.6549 4.428C10.8608 3.65941 11.3637 3.0041 12.0528 2.60624C12.394 2.40924 12.7706 2.28138 13.1613 2.22995C13.5519 2.17852 13.9488 2.20453 14.3294 2.3065C14.71 2.40847 15.0667 2.58441 15.3793 2.82425C15.6919 3.0641 15.9542 3.36317 16.1512 3.70438C16.3482 4.04558 16.476 4.42225 16.5275 4.81288C16.5789 5.2035 16.5529 5.60043 16.4509 5.981L15.4149 9.845L16.7729 10.209C18.4269 10.652 19.2829 12.328 19.0509 13.864C18.9409 14.594 18.8969 15.311 18.9859 15.832C19.0999 16.502 19.5169 17.369 19.9709 18.138C20.3509 18.782 20.7109 19.28 20.7869 19.382C21.0139 19.69 21.0679 20.101 20.8939 20.448ZM13.8119 4.238C13.685 4.20399 13.5526 4.19533 13.4223 4.21251C13.292 4.22969 13.1664 4.27238 13.0527 4.33813C12.9389 4.40388 12.8392 4.49141 12.7593 4.59571C12.6794 4.70002 12.6208 4.81905 12.5869 4.946L11.2929 9.776C11.2589 9.90287 11.2002 10.0218 11.1203 10.126C11.0403 10.2302 10.9406 10.3176 10.8268 10.3833C10.7131 10.4489 10.5875 10.4915 10.4573 10.5086C10.3271 10.5257 10.1948 10.517 10.0679 10.483L6.9159 9.638C6.5329 9.535 6.2699 9.681 6.1649 9.859C5.88576 10.335 5.65045 10.8354 5.4619 11.354L16.9719 14.407C16.9969 14.113 17.0329 13.829 17.0729 13.565C17.1779 12.874 16.7759 12.28 16.2549 12.141L13.9319 11.518C13.805 11.484 13.6861 11.4253 13.5819 11.3454C13.4777 11.2654 13.3903 11.1657 13.3246 11.052C13.259 10.9382 13.2164 10.8126 13.1993 10.6824C13.1822 10.5522 13.1909 10.4199 13.2249 10.293L14.5189 5.463C14.5873 5.20694 14.5513 4.93419 14.4187 4.70468C14.2862 4.47517 14.0679 4.30668 13.8119 4.238ZM17.0839 16.505L4.9659 13.291C4.7059 15.015 5.0329 16.539 5.4399 17.651C5.6479 18.22 5.8739 18.673 6.0449 18.98L6.0569 19H7.7569C7.3799 18.208 6.9939 17.134 6.9869 16.007C6.98183 15.8732 7.0037 15.7397 7.05119 15.6145C7.09869 15.4893 7.17085 15.3749 7.2634 15.2781C7.35595 15.1813 7.46699 15.1041 7.58995 15.051C7.7129 14.998 7.84526 14.9701 7.97918 14.9692C8.11309 14.9683 8.24583 14.9942 8.36952 15.0456C8.49321 15.0969 8.60532 15.1726 8.69921 15.268C8.79311 15.3635 8.86687 15.4769 8.91611 15.6014C8.96536 15.726 8.98909 15.8591 8.9859 15.993C8.9909 16.769 9.2929 17.607 9.6419 18.301C9.7799 18.577 9.9189 18.816 10.0339 19.001H18.1589C17.7559 18.301 17.2989 17.391 17.0839 16.505Z" fill="currentColor"/>
</svg>
