<svg width="24" height="24" viewBox="0 0 24 24" fill="none" xmlns="http://www.w3.org/2000/svg">
<path fill-rule="evenodd" clip-rule="evenodd" d="M16 15C16.7956 15 17.5587 15.3161 18.1213 15.8787C18.6839 16.4413 19 17.2044 19 18C19 18.7956 18.6839 19.5587 18.1213 20.1213C17.5587 20.6839 16.7956 21 16 21C15.2044 21 14.4413 20.6839 13.8787 20.1213C13.3161 19.5587 13 18.7956 13 18C13 17.2044 13.3161 16.4413 13.8787 15.8787C14.4413 15.3161 15.2044 15 16 15ZM7 11C8.06087 11 9.07828 11.4214 9.82843 12.1716C10.5786 12.9217 11 13.9391 11 15C11 16.0609 10.5786 17.0783 9.82843 17.8284C9.07828 18.5786 8.06087 19 7 19C5.93913 19 4.92172 18.5786 4.17157 17.8284C3.42143 17.0783 3 16.0609 3 15C3 13.9391 3.42143 12.9217 4.17157 12.1716C4.92172 11.4214 5.93913 11 7 11ZM16 17C15.7348 17 15.4804 17.1054 15.2929 17.2929C15.1054 17.4804 15 17.7348 15 18C15 18.2652 15.1054 18.5196 15.2929 18.7071C15.4804 18.8946 15.7348 19 16 19C16.2652 19 16.5196 18.8946 16.7071 18.7071C16.8946 18.5196 17 18.2652 17 18C17 17.7348 16.8946 17.4804 16.7071 17.2929C16.5196 17.1054 16.2652 17 16 17ZM7 13C6.46957 13 5.96086 13.2107 5.58579 13.5858C5.21071 13.9609 5 14.4696 5 15C5 15.5304 5.21071 16.0391 5.58579 16.4142C5.96086 16.7893 6.46957 17 7 17C7.53043 17 8.03914 16.7893 8.41421 16.4142C8.78929 16.0391 9 15.5304 9 15C9 14.4696 8.78929 13.9609 8.41421 13.5858C8.03914 13.2107 7.53043 13 7 13ZM16 3C17.3261 3 18.5979 3.52678 19.5355 4.46447C20.4732 5.40215 21 6.67392 21 8C21 9.32608 20.4732 10.5979 19.5355 11.5355C18.5979 12.4732 17.3261 13 16 13C14.6739 13 13.4021 12.4732 12.4645 11.5355C11.5268 10.5979 11 9.32608 11 8C11 6.67392 11.5268 5.40215 12.4645 4.46447C13.4021 3.52678 14.6739 3 16 3ZM16 5C15.2044 5 14.4413 5.31607 13.8787 5.87868C13.3161 6.44129 13 7.20435 13 8C13 8.79565 13.3161 9.55871 13.8787 10.1213C14.4413 10.6839 15.2044 11 16 11C16.7956 11 17.5587 10.6839 18.1213 10.1213C18.6839 9.55871 19 8.79565 19 8C19 7.20435 18.6839 6.44129 18.1213 5.87868C17.5587 5.31607 16.7956 5 16 5Z" fill="currentColor"/>
</svg>
