<svg width="24" height="24" viewBox="0 0 24 24" fill="none" xmlns="http://www.w3.org/2000/svg">
<path fill-rule="evenodd" clip-rule="evenodd" d="M17 3.722V9.219L19.864 9.935C20.1885 10.0162 20.4765 10.2034 20.6823 10.4671C20.8881 10.7307 21 11.0555 21 11.39V19C21.2652 19 21.5196 19.1054 21.7071 19.2929C21.8946 19.4804 22 19.7348 22 20C22 20.2652 21.8946 20.5196 21.7071 20.7071C21.5196 20.8946 21.2652 21 21 21H3C2.73478 21 2.48043 20.8946 2.29289 20.7071C2.10536 20.5196 2 20.2652 2 20C2 19.7348 2.10536 19.4804 2.29289 19.2929C2.48043 19.1054 2.73478 19 3 19V11.31C2.99982 11.0311 3.0774 10.7577 3.22402 10.5205C3.37063 10.2832 3.58048 10.0916 3.83 9.967L7 8.382V6.347C6.99987 6.0416 7.09297 5.74345 7.26684 5.49238C7.44071 5.24131 7.68707 5.04929 7.973 4.942L14.973 2.317C15.2 2.23182 15.4443 2.20293 15.6849 2.23281C15.9255 2.26269 16.1552 2.35045 16.3545 2.48857C16.5538 2.62669 16.7166 2.81105 16.829 3.02587C16.9414 3.24068 17.0001 3.47955 17 3.722ZM15 4.443L9 6.693V19H15V4.443ZM17 11.281V19H19V11.78L17 11.281ZM7 10.618L5 11.618V19H7V10.618Z" fill="currentColor"/>
</svg>
