<svg width="24" height="24" viewBox="0 0 24 24" fill="none" xmlns="http://www.w3.org/2000/svg">
<path fill-rule="evenodd" clip-rule="evenodd" d="M13.026 2.27C13.2409 2.19846 13.4693 2.17652 13.6939 2.20584C13.9185 2.23516 14.1336 2.31498 14.3229 2.4393C14.5123 2.56362 14.6711 2.72921 14.7873 2.92366C14.9035 3.1181 14.9742 3.33634 14.994 3.562L15 3.694V9.18L18.794 9.94C19.1102 10.003 19.3976 10.1662 19.6138 10.4054C19.8299 10.6446 19.9632 10.9471 19.994 11.268L20 11.41V19H21C21.2549 19.0003 21.5 19.0979 21.6854 19.2728C21.8707 19.4478 21.9822 19.687 21.9972 19.9414C22.0121 20.1958 21.9293 20.4464 21.7657 20.6418C21.6021 20.8373 21.3701 20.9629 21.117 20.993L21 21H2.99999C2.74511 20.9997 2.49996 20.9021 2.31462 20.7272C2.12929 20.5522 2.01776 20.313 2.00282 20.0586C1.98788 19.8042 2.07067 19.5536 2.23426 19.3582C2.39785 19.1627 2.62989 19.0371 2.88299 19.007L2.99999 19H3.99999V6.36C3.99999 5.76 4.35599 5.224 4.89799 4.986L5.02599 4.937L13.026 2.27ZM13 4.388L5.99999 6.721V19H13V4.388ZM15 11.221V19H18V11.82L15 11.221Z" fill="currentColor"/>
</svg>
