<svg width="24" height="24" viewBox="0 0 24 24" fill="none" xmlns="http://www.w3.org/2000/svg">
<path fill-rule="evenodd" clip-rule="evenodd" d="M12 3.99999C10.2761 3.99999 8.62279 4.68481 7.40381 5.9038C6.18482 7.12279 5.5 8.77609 5.5 10.5C5.5 12.2239 6.18482 13.8772 7.40381 15.0962C8.62279 16.3152 10.2761 17 12 17C13.7239 17 15.3772 16.3152 16.5962 15.0962C17.8152 13.8772 18.5 12.2239 18.5 10.5C18.5 8.77609 17.8152 7.12279 16.5962 5.9038C15.3772 4.68481 13.7239 3.99999 12 3.99999ZM3.5 10.5C3.50015 9.04026 3.87622 7.60516 4.59199 6.33296C5.30776 5.06075 6.3391 3.99432 7.58665 3.2364C8.8342 2.47848 10.2559 2.05461 11.7148 2.00564C13.1737 1.95667 14.6207 2.28423 15.9162 2.95678C17.2118 3.62934 18.3124 4.6242 19.1118 5.84554C19.9113 7.06688 20.3828 8.47353 20.4808 9.92997C20.5788 11.3864 20.3002 12.8435 19.6716 14.161C19.043 15.4785 18.0857 16.6119 16.892 17.452L15.447 20.342C15.1978 20.8402 14.8148 21.2592 14.341 21.552C13.8671 21.8449 13.3211 22 12.764 22H11.236C10.679 22 10.1329 21.8449 9.65904 21.552C9.18517 21.2592 8.80219 20.8402 8.553 20.342L7.108 17.452C5.99261 16.668 5.08242 15.627 4.45441 14.4169C3.82639 13.2068 3.49903 11.8633 3.5 10.5ZM10 18.763L10.342 19.447C10.425 19.6131 10.5526 19.7528 10.7105 19.8504C10.8684 19.9481 11.0503 19.9999 11.236 20H12.764C12.9497 19.9999 13.1316 19.9481 13.2895 19.8504C13.4474 19.7528 13.575 19.6131 13.658 19.447L14 18.763C13.345 18.9208 12.6737 19.0003 12 19C11.3263 19.0003 10.655 18.9208 10 18.763Z" fill="currentColor"/>
</svg>
