<svg width="24" height="24" viewBox="0 0 24 24" fill="none" xmlns="http://www.w3.org/2000/svg">
<path fill-rule="evenodd" clip-rule="evenodd" d="M9 1C9.26522 1 9.51957 1.10536 9.70711 1.29289C9.89464 1.48043 10 1.73478 10 2V3.133C10.5274 3.26599 11.0395 3.45367 11.528 3.693C12.468 4.146 13.499 4.835 14.458 5.793C14.821 6.157 15.174 6.559 15.506 7H16C16.2082 6.99993 16.4113 7.06487 16.5808 7.18574C16.7504 7.30661 16.878 7.4774 16.9458 7.67427C17.0136 7.87114 17.0183 8.08427 16.9592 8.28393C16.9001 8.48358 16.7801 8.6598 16.616 8.788C17.453 10.454 18 12.511 18 15C18 17.016 17.662 19.03 17.25 21H19C19.2652 21 19.5196 21.1054 19.7071 21.2929C19.8946 21.4804 20 21.7348 20 22C20 22.2652 19.8946 22.5196 19.7071 22.7071C19.5196 22.8946 19.2652 23 19 23H7C6.73478 23 6.48043 22.8946 6.29289 22.7071C6.10536 22.5196 6 22.2652 6 22C6 21.7348 6.10536 21.4804 6.29289 21.2929C6.48043 21.1054 6.73478 21 7 21H8V9C7.73478 9 7.48043 8.89464 7.29289 8.70711C7.10536 8.51957 7 8.26522 7 8C7 7.73478 7.10536 7.48043 7.29289 7.29289C7.48043 7.10536 7.73478 7 8 7V2C8 1.73478 8.10536 1.48043 8.29289 1.29289C8.48043 1.10536 8.73478 1 9 1ZM10 5.218V7H12.83C12.017 6.238 11.056 5.592 10 5.218ZM14.449 9H10V11H15.378C15.125 10.255 14.808 9.59 14.448 9H14.449ZM15.857 13H10V16H15.966C16.036 14.9 15.991 13.906 15.856 13H15.857ZM15.752 18H10V21H15.205C15.358 20.3 15.583 19.185 15.752 18Z" fill="currentColor"/>
</svg>
