<svg width="24" height="24" viewBox="0 0 24 24" fill="none" xmlns="http://www.w3.org/2000/svg">
<path d="M18 3C18.7956 3 19.5587 3.31607 20.1213 3.87868C20.6839 4.44129 21 5.20435 21 6C21.2449 6.00003 21.4813 6.08996 21.6644 6.25272C21.8474 6.41547 21.9643 6.63975 21.993 6.883L22 7V9C22 9.24493 21.91 9.48134 21.7473 9.66437C21.5845 9.84741 21.3603 9.96434 21.117 9.993L21 10V17C21 17.683 20.657 18.287 20.134 18.647L20 18.732V19.5C19.9998 19.8852 19.8514 20.2556 19.5856 20.5344C19.3198 20.8132 18.9569 20.979 18.5721 20.9975C18.1873 21.016 17.8102 20.8858 17.5188 20.6338C17.2274 20.3818 17.0442 20.0274 17.007 19.644L17 19.5V19H7V19.5C6.99981 19.8852 6.85142 20.2556 6.58559 20.5344C6.31976 20.8132 5.95686 20.979 5.57209 20.9975C5.18731 21.016 4.81017 20.8858 4.5188 20.6338C4.22743 20.3818 4.04417 20.0274 4.007 19.644L4 19.5V18.732C3.72075 18.5708 3.48461 18.3445 3.31171 18.0723C3.13881 17.8002 3.03427 17.4903 3.007 17.169L3 17V10C2.75507 9.99997 2.51866 9.91004 2.33563 9.74728C2.15259 9.58453 2.03566 9.36025 2.007 9.117L2 9V7C2 6.73478 2.10536 6.48043 2.29289 6.29289C2.48043 6.10536 2.73478 6 3 6C2.99996 5.23479 3.29233 4.49849 3.81728 3.94174C4.34224 3.38499 5.06011 3.04989 5.824 3.005L6 3H18ZM19 13H5V17H19V13ZM8 14C8.26522 14 8.51957 14.1054 8.70711 14.2929C8.89464 14.4804 9 14.7348 9 15C9 15.2652 8.89464 15.5196 8.70711 15.7071C8.51957 15.8946 8.26522 16 8 16H7C6.73478 16 6.48043 15.8946 6.29289 15.7071C6.10536 15.5196 6 15.2652 6 15C6 14.7348 6.10536 14.4804 6.29289 14.2929C6.48043 14.1054 6.73478 14 7 14H8ZM17 14C17.2549 14.0003 17.5 14.0979 17.6854 14.2728C17.8707 14.4478 17.9822 14.687 17.9972 14.9414C18.0121 15.1958 17.9293 15.4464 17.7657 15.6418C17.6021 15.8373 17.3701 15.9629 17.117 15.993L17 16H16C15.7451 15.9997 15.5 15.9021 15.3146 15.7272C15.1293 15.5522 15.0178 15.313 15.0028 15.0586C14.9879 14.8042 15.0707 14.5536 15.2343 14.3582C15.3979 14.1627 15.6299 14.0371 15.883 14.007L16 14H17ZM9.382 5H6C5.73478 5 5.48043 5.10536 5.29289 5.29289C5.10536 5.48043 5 5.73478 5 6V11H19V6C19 5.73478 18.8946 5.48043 18.7071 5.29289C18.5196 5.10536 18.2652 5 18 5H16.618L14.894 8.447C14.8378 8.56858 14.7578 8.67764 14.6587 8.7677C14.5596 8.85777 14.4434 8.92702 14.317 8.97132C14.1906 9.01563 14.0567 9.0341 13.923 9.02564C13.7893 9.01718 13.6588 8.98196 13.539 8.92207C13.4192 8.86218 13.3126 8.77883 13.2257 8.67699C13.1387 8.57514 13.0731 8.45686 13.0327 8.32917C12.9923 8.20148 12.978 8.06698 12.9906 7.93365C13.0032 7.80032 13.0424 7.67088 13.106 7.553L14.382 5H11.618L9.894 8.447C9.77066 8.67573 9.56312 8.84746 9.31535 8.92582C9.06758 9.00417 8.79904 8.983 8.56661 8.86679C8.33418 8.75057 8.15611 8.54844 8.07014 8.30321C7.98416 8.05798 7.99702 7.78891 8.106 7.553L9.382 5Z" fill="currentColor"/>
</svg>
