<svg width="24" height="24" viewBox="0 0 24 24" fill="none" xmlns="http://www.w3.org/2000/svg">
<path fill-rule="evenodd" clip-rule="evenodd" d="M7.78253 4.016C9.22653 4.278 10.7105 5.016 11.9995 6.148C13.2895 5.016 14.7725 4.278 16.2165 4.016C17.8435 3.72 19.5225 4.02 20.6985 5.196C21.8515 6.35 22.1635 7.987 21.8955 9.583C21.6555 11.014 20.9475 12.489 19.8485 13.778C20.1013 14.7804 20.0372 15.8365 19.6649 16.801C19.2927 17.7654 18.6306 18.5908 17.7699 19.1634C16.9092 19.7361 15.8921 20.0278 14.8587 19.9986C13.8254 19.9693 12.8265 19.6204 11.9995 19C11.1726 19.6208 10.1736 19.97 9.14001 19.9995C8.10642 20.0289 7.08911 19.7372 6.22819 19.1645C5.36726 18.5918 4.70507 17.7663 4.33281 16.8016C3.96054 15.8369 3.89651 14.7806 4.14953 13.778C3.05353 12.489 2.34353 11.014 2.10453 9.583C1.83653 7.987 2.14853 6.35 3.30153 5.196C4.47653 4.02 6.15553 3.72 7.78253 4.016ZM4.71453 6.61C5.29553 6.029 6.23653 5.767 7.42453 5.983C8.44453 6.168 9.56853 6.699 10.5915 7.573C10.5713 7.59104 10.5513 7.60937 10.5315 7.628C10.1685 7.974 9.88653 8.428 9.67153 8.911C9.23953 9.882 8.99953 11.15 8.99953 12.5C8.99953 13.849 9.24053 15.118 9.67153 16.088C9.88653 16.571 10.1685 17.025 10.5315 17.371C10.5755 17.413 10.6215 17.453 10.6695 17.493C10.1382 17.8496 9.50681 18.0269 8.86755 17.9991C8.22829 17.9713 7.61465 17.7399 7.11628 17.3386C6.6179 16.9372 6.2609 16.3871 6.09741 15.7685C5.93391 15.1498 5.9725 14.4951 6.20753 13.9C6.27757 13.7222 6.29521 13.5281 6.25834 13.3406C6.22148 13.1531 6.13167 12.98 5.99953 12.842C4.91053 11.706 4.26953 10.407 4.07553 9.253C3.88153 8.096 4.14553 7.181 4.71553 6.611M13.3305 17.493C13.8618 17.8493 14.493 18.0265 15.1321 17.9987C15.7712 17.9709 16.3846 17.7396 16.8829 17.3384C17.3812 16.9373 17.7382 16.3874 17.9019 15.769C18.0655 15.1506 18.0272 14.4961 17.7925 13.901C17.7217 13.7229 17.7036 13.5282 17.7403 13.3401C17.777 13.152 17.867 12.9784 17.9995 12.84C19.0885 11.705 19.7295 10.406 19.9235 9.252C20.1175 8.095 19.8545 7.18 19.2835 6.61C18.7035 6.029 17.7625 5.767 16.5735 5.983C15.5555 6.168 14.4305 6.699 13.4075 7.573L13.4675 7.628C13.8305 7.974 14.1125 8.428 14.3275 8.911C14.7575 9.881 14.9995 11.15 14.9995 12.499C14.9995 13.848 14.7585 15.117 14.3275 16.087C14.1125 16.57 13.8305 17.024 13.4675 17.37C13.4235 17.412 13.3775 17.452 13.3295 17.492M10.9995 12.5C10.9995 11.364 11.2065 10.383 11.4995 9.724C11.6465 9.394 11.7955 9.187 11.9095 9.078C11.9895 9.002 12.0095 9.002 12.0885 9.078C12.2035 9.188 12.3525 9.393 12.4995 9.724C12.7925 10.384 12.9995 11.364 12.9995 12.5C12.9995 13.636 12.7925 14.617 12.4995 15.276C12.3525 15.606 12.2035 15.812 12.0885 15.922C12.0085 15.997 11.9895 15.997 11.9105 15.922C11.7955 15.812 11.6465 15.606 11.4985 15.276C11.2065 14.616 10.9985 13.636 10.9985 12.5" fill="currentColor"/>
</svg>
