<svg width="24" height="24" viewBox="0 0 24 24" fill="none" xmlns="http://www.w3.org/2000/svg">
<path fill-rule="evenodd" clip-rule="evenodd" d="M12 3C12.2652 3 12.5196 3.10536 12.7071 3.29289C12.8946 3.48043 13 3.73478 13 4V4.055C14.6897 4.24158 16.2914 4.90508 17.618 5.968L17.657 5.928C17.8446 5.74049 18.0991 5.6352 18.3644 5.6353C18.6296 5.63539 18.884 5.74086 19.0715 5.9285C19.259 6.11614 19.3643 6.37058 19.3642 6.63585C19.3641 6.90112 19.2586 7.15549 19.071 7.343L19.031 7.383C20.0945 8.7091 20.7587 10.3105 20.946 12H21C21.2652 12 21.5196 12.1054 21.7071 12.2929C21.8946 12.4804 22 12.7348 22 13C22 13.2652 21.8946 13.5196 21.7071 13.7071C21.5196 13.8946 21.2652 14 21 14H20.945C20.7584 15.6897 20.0949 17.2914 19.032 18.618L19.072 18.657C19.2595 18.8446 19.3648 19.0991 19.3647 19.3644C19.3646 19.6296 19.2591 19.884 19.0715 20.0715C18.8839 20.259 18.6294 20.3643 18.3641 20.3642C18.0989 20.3641 17.8445 20.2586 17.657 20.071L17.617 20.031C17.2227 20.3467 16.8026 20.6287 16.361 20.874C16.2126 20.9565 16.0457 20.9998 15.876 21H8.124C7.95426 20.9998 7.78735 20.9565 7.639 20.874C7.19712 20.6291 6.77664 20.3474 6.382 20.032L6.343 20.072C6.15536 20.2595 5.90092 20.3648 5.63565 20.3647C5.37038 20.3646 5.11601 20.2591 4.9285 20.0715C4.74099 19.8839 4.6357 19.6294 4.6358 19.3641C4.63589 19.0989 4.74136 18.8445 4.929 18.657L4.969 18.617C3.90553 17.2909 3.24134 15.6895 3.054 14H3C2.73478 14 2.48043 13.8946 2.29289 13.7071C2.10536 13.5196 2 13.2652 2 13C2 12.7348 2.10536 12.4804 2.29289 12.2929C2.48043 12.1054 2.73478 12 3 12H3.055C3.24152 10.3103 3.90503 8.70861 4.968 7.382L4.928 7.343C4.74062 7.15523 4.63552 6.90071 4.6358 6.63544C4.63594 6.50409 4.66195 6.37406 4.71234 6.25276C4.76273 6.13146 4.83652 6.02128 4.9295 5.9285C5.02248 5.83572 5.13282 5.76216 5.25422 5.71203C5.37562 5.66189 5.50571 5.63616 5.63706 5.6363C5.90233 5.63658 6.15662 5.74223 6.344 5.93L6.384 5.97C7.70971 4.9063 9.31071 4.24176 11 4.054V4C11 3.73478 11.1054 3.48043 11.2929 3.29289C11.4804 3.10536 11.7348 3 12 3ZM14.216 6.358L14.378 6.646C14.9594 7.71142 15.3924 8.85131 15.665 10.034L15.943 9.874C16.0568 9.80357 16.1837 9.75672 16.3159 9.73621C16.4482 9.71571 16.5833 9.72197 16.7131 9.75463C16.8429 9.78729 16.9648 9.84567 17.0717 9.92633C17.1785 10.007 17.2681 10.1083 17.335 10.2242C17.402 10.3401 17.445 10.4683 17.4615 10.6011C17.478 10.7339 17.4677 10.8687 17.4311 10.9975C17.3945 11.1263 17.3325 11.2464 17.2487 11.3508C17.1648 11.4551 17.0609 11.5416 16.943 11.605L16.077 12.105C16.0437 12.1246 16.0093 12.1423 15.974 12.158C16.0126 12.7715 16.0089 13.387 15.963 14H16.5C16.7652 14 17.0196 14.1054 17.2071 14.2929C17.3946 14.4804 17.5 14.7348 17.5 15C17.5 15.2652 17.3946 15.5196 17.2071 15.7071C17.0196 15.8946 16.7652 16 16.5 16H15.657C15.4144 17.0402 15.0474 18.0475 14.564 19H15.608C16.7544 18.31 17.6791 17.306 18.2727 16.1068C18.8663 14.9077 19.104 13.5636 18.9575 12.2335C18.8111 10.9035 18.2867 9.64334 17.4464 8.60207C16.6061 7.5608 15.4851 6.78205 14.216 6.358ZM9.784 6.358C8.53545 6.77524 7.42979 7.53596 6.59383 8.55289C5.75788 9.56982 5.22549 10.8018 5.05772 12.1075C4.88996 13.4132 5.09361 14.7397 5.64533 15.9349C6.19705 17.1302 7.07449 18.1457 8.177 18.865L8.392 19H9.436C9.01233 18.1651 8.67782 17.288 8.438 16.383L8.343 16H7.5C7.24512 15.9997 6.99997 15.9021 6.81463 15.7272C6.6293 15.5522 6.51777 15.313 6.50283 15.0586C6.48789 14.8042 6.57067 14.5536 6.73426 14.3582C6.89786 14.1627 7.1299 14.0371 7.383 14.007L7.5 14H8.037C7.99134 13.387 7.988 12.7715 8.027 12.158L7.974 12.133L7.923 12.106L7.057 11.606C6.83548 11.4788 6.67104 11.2716 6.59741 11.027C6.52378 10.7824 6.54655 10.5189 6.66104 10.2906C6.77554 10.0622 6.97307 9.88637 7.21313 9.79905C7.45318 9.71173 7.71755 9.71958 7.952 9.821L8.057 9.873L8.335 10.034C8.60764 8.85131 9.04065 7.71142 9.622 6.646L9.784 6.358ZM12 6.596C10.6967 8.47715 9.99887 10.7115 10 13C10 15.572 10.865 17.569 11.624 18.825L11.732 19H12.268C13.4439 17.1337 14.0453 14.963 13.9977 12.7577C13.95 10.5524 13.2554 8.40975 12 6.596Z" fill="currentColor"/>
</svg>
