<svg width="24" height="24" viewBox="0 0 24 24" fill="none" xmlns="http://www.w3.org/2000/svg">
<path d="M18 3C18.5305 3 19.0392 3.21071 19.4143 3.58579C19.7893 3.96086 20 4.46957 20 5V7H20.191C20.4466 7.00001 20.698 7.06533 20.9213 7.18977C21.1445 7.31422 21.3323 7.49364 21.4667 7.71103C21.6012 7.92842 21.6778 8.17656 21.6894 8.4319C21.7011 8.68724 21.6472 8.94131 21.533 9.17L20 12.237V19C20 19.5304 19.7893 20.0391 19.4143 20.4142C19.0392 20.7893 18.5305 21 18 21H6.00004C5.46961 21 4.9609 20.7893 4.58583 20.4142C4.21076 20.0391 4.00004 19.5304 4.00004 19V12.236L2.46704 9.171C2.3526 8.9422 2.29858 8.68793 2.31012 8.43237C2.32165 8.1768 2.39836 7.92843 2.53295 7.71087C2.66753 7.49331 2.85552 7.31379 3.07905 7.18936C3.30258 7.06494 3.55422 6.99975 3.81004 7H4.00004V5C4.00004 4.46957 4.21076 3.96086 4.58583 3.58579C4.9609 3.21071 5.46961 3 6.00004 3H18ZM19.382 9H4.61804L5.89404 11.553C5.97004 11.703 6.00404 11.863 6.00004 12.02V19H18V12.02C17.9969 11.858 18.0333 11.6977 18.106 11.553L19.382 9ZM14.5 11C15.0046 10.9998 15.4906 11.1904 15.8606 11.5335C16.2306 11.8766 16.4572 12.3468 16.495 12.85L16.5 13V15C16.5002 15.5046 16.3096 15.9906 15.9665 16.3605C15.6235 16.7305 15.1532 16.9572 14.65 16.995L14.5 17H13.5C12.9955 17.0002 12.5095 16.8096 12.1395 16.4665C11.7695 16.1234 11.5429 15.6532 11.505 15.15L11.5 15V13C11.4999 12.4954 11.6904 12.0094 12.0335 11.6395C12.3766 11.2695 12.8469 11.0428 13.35 11.005L13.5 11H14.5ZM10.494 11.9L10.5 12.016V16C10.4998 16.2549 10.4022 16.5 10.2272 16.6854C10.0522 16.8707 9.81309 16.9822 9.55865 16.9972C9.30421 17.0121 9.05366 16.9293 8.85821 16.7657C8.66276 16.6021 8.53715 16.3701 8.50704 16.117L8.50004 16V13.5C8.28487 13.4998 8.07548 13.4303 7.90299 13.3017C7.73049 13.173 7.60409 12.9922 7.54254 12.786C7.481 12.5798 7.48761 12.3593 7.56138 12.1572C7.63515 11.955 7.77216 11.7821 7.95204 11.664L8.05204 11.606L9.03804 11.113C9.63904 10.813 10.335 11.172 10.475 11.788L10.494 11.9ZM14.5 13H13.5V15H14.5V13ZM18 5H6.00004V7H18V5Z" fill="currentColor"/>
</svg>
