<svg width="24" height="24" viewBox="0 0 24 24" fill="none" xmlns="http://www.w3.org/2000/svg">
<path d="M16 4C16.5046 3.99984 16.9906 4.19041 17.3605 4.5335C17.7305 4.87659 17.9572 5.34684 17.995 5.85L18 6V8.21L20.094 6.92C20.2746 6.80866 20.4806 6.74514 20.6926 6.73542C20.9046 6.7257 21.1155 6.77009 21.3056 6.86443C21.4957 6.95876 21.6586 7.09993 21.779 7.27463C21.8995 7.44932 21.9734 7.65181 21.994 7.863L22 7.983V16.017C21.9999 16.2292 21.9458 16.4378 21.8428 16.6233C21.7398 16.8088 21.5913 16.9651 21.4112 17.0773C21.2312 17.1895 21.0255 17.2541 20.8136 17.2649C20.6017 17.2757 20.3905 17.2324 20.2 17.139L20.094 17.081L18 15.79V18C18.0002 18.5046 17.8096 18.9906 17.4665 19.3605C17.1234 19.7305 16.6532 19.9572 16.15 19.995L16 20H4C3.49542 20.0002 3.00943 19.8096 2.63945 19.4665C2.26947 19.1234 2.04284 18.6532 2.005 18.15L2 18V6C1.99984 5.49542 2.19041 5.00943 2.5335 4.63945C2.87659 4.26947 3.34684 4.04284 3.85 4.005L4 4H16ZM16 6H4V18H16V6ZM20 9.327L18 10.559V13.442L20 14.674V9.327Z" fill="currentColor"/>
</svg>
