<svg width="24" height="24" viewBox="0 0 24 24" fill="none" xmlns="http://www.w3.org/2000/svg">
<path fill-rule="evenodd" clip-rule="evenodd" d="M2.515 2.515C2.68707 2.34267 2.9161 2.23906 3.15913 2.22359C3.40216 2.20813 3.64248 2.28187 3.835 2.431L3.929 2.515L6.415 5H6.585L8 3.586C8.33202 3.25398 8.77028 3.04937 9.238 3.008L9.414 3H14.586C15.0556 3.00011 15.5101 3.16543 15.87 3.467L16 3.586L17.414 5H20C20.5046 4.99984 20.9906 5.1904 21.3605 5.53349C21.7305 5.87659 21.9572 6.34684 21.995 6.85L22 7V19C22 19.383 21.892 19.74 21.706 20.045L21.606 20.192L21.987 20.572C22.1683 20.7515 22.274 20.9936 22.2827 21.2485C22.2913 21.5035 22.2022 21.7522 22.0335 21.9436C21.8649 22.135 21.6294 22.2547 21.3754 22.2782C21.1213 22.3017 20.8679 22.2272 20.667 22.07L20.573 21.987L2.515 3.93C2.32753 3.74247 2.22221 3.48816 2.22221 3.223C2.22221 2.95783 2.32753 2.70253 2.515 2.515ZM2.107 6.354L4 8.247V19H14.754L16.754 21H4C3.46957 21 2.96086 20.7893 2.58579 20.4142C2.21071 20.0391 2 19.5304 2 19V7C2 6.774 2.038 6.557 2.107 6.354ZM14.586 5H9.414L8 6.414C7.97151 6.44254 7.94216 6.47022 7.912 6.497L9.553 8.14C10.5038 7.60593 11.6032 7.39738 12.6835 7.54612C13.7639 7.69485 14.766 8.19273 15.5371 8.96386C16.3083 9.73499 16.8061 10.7371 16.9549 11.8175C17.1036 12.8978 16.8951 13.9972 16.361 14.948L20 18.586V7H17.414C16.8836 6.99988 16.375 6.7891 16 6.414L14.586 5ZM7.127 11.374L9.13 13.377C9.27409 13.8467 9.53109 14.274 9.87853 14.6215C10.226 14.9689 10.6533 15.2259 11.123 15.37L13.126 17.373C12.2992 17.5644 11.4373 17.5423 10.6215 17.3086C9.80563 17.075 9.06268 16.6375 8.4626 16.0374C7.86251 15.4373 7.42504 14.6944 7.19138 13.8785C6.95772 13.0627 6.93557 12.2008 7.127 11.374ZM12 9.5C11.673 9.5 11.358 9.552 11.064 9.65L14.851 13.437C14.9992 12.9863 15.0384 12.5069 14.9653 12.0382C14.8923 11.5694 14.7091 11.1247 14.4309 10.7404C14.1526 10.3562 13.7872 10.0434 13.3647 9.8278C12.9421 9.61217 12.4744 9.49983 12 9.5Z" fill="currentColor"/>
</svg>
