<svg width="24" height="24" viewBox="0 0 24 24" fill="none" xmlns="http://www.w3.org/2000/svg">
<path d="M14.586 3C15.1164 3.00011 15.625 3.2109 16 3.586L17.414 5H20C20.5304 5 21.0391 5.21071 21.4142 5.58579C21.7893 5.96086 22 6.46957 22 7V19C22 19.5304 21.7893 20.0391 21.4142 20.4142C21.0391 20.7893 20.5304 21 20 21H4C3.46957 21 2.96086 20.7893 2.58579 20.4142C2.21071 20.0391 2 19.5304 2 19V7C2 6.46957 2.21071 5.96086 2.58579 5.58579C2.96086 5.21071 3.46957 5 4 5H6.586L8 3.586C8.37499 3.2109 8.88361 3.00011 9.414 3H14.586ZM14.586 5H9.414L8 6.414C7.62501 6.7891 7.11639 6.99989 6.586 7H4V19H20V7H17.414C16.8836 6.99989 16.375 6.7891 16 6.414L14.586 5ZM8.656 12.5C8.8695 12.5025 9.07661 12.5732 9.24701 12.7019C9.41741 12.8305 9.54216 13.0103 9.603 13.215C9.74208 13.6793 10.013 14.0932 10.3829 14.4064C10.7527 14.7196 11.2056 14.9187 11.6865 14.9793C12.1673 15.04 12.6555 14.9598 13.0916 14.7483C13.5276 14.5368 13.8929 14.2032 14.143 13.788C14.2099 13.6738 14.2988 13.574 14.4046 13.4944C14.5103 13.4148 14.6308 13.357 14.7591 13.3244C14.8874 13.2917 15.0208 13.2848 15.1518 13.3042C15.2827 13.3235 15.4085 13.3686 15.5219 13.4369C15.6353 13.5052 15.734 13.5953 15.8122 13.702C15.8905 13.8088 15.9468 13.93 15.9779 14.0586C16.009 14.1873 16.0142 14.3208 15.9933 14.4515C15.9724 14.5822 15.9257 14.7075 15.856 14.82C15.512 15.3926 15.0448 15.8813 14.4883 16.2508C13.9318 16.6203 13.3 16.8611 12.6388 16.9559C11.9776 17.0507 11.3035 16.9971 10.6656 16.7989C10.0278 16.6006 9.44203 16.2628 8.951 15.81C8.87242 16.0528 8.70397 16.2564 8.48016 16.379C8.25635 16.5017 7.99411 16.5341 7.74717 16.4697C7.50022 16.4053 7.28725 16.2489 7.15187 16.0325C7.01649 15.8162 6.96896 15.5563 7.019 15.306L7.049 15.193L7.693 13.193C7.75852 12.9898 7.88735 12.813 8.06063 12.6883C8.2339 12.5636 8.44253 12.4976 8.656 12.5ZM12 8C13.1302 7.99866 14.2193 8.4236 15.05 9.19C15.1359 8.94285 15.3152 8.73919 15.5494 8.62271C15.7837 8.50623 16.0543 8.48621 16.3032 8.56695C16.5521 8.64768 16.7594 8.82273 16.8807 9.05456C17.002 9.28638 17.0276 9.55651 16.952 9.807L16.307 11.807C16.2414 12.0101 16.1125 12.1869 15.9392 12.3115C15.7659 12.4361 15.5573 12.502 15.3439 12.4996C15.1305 12.4971 14.9234 12.4264 14.7531 12.2978C14.5827 12.1693 14.4579 11.9896 14.397 11.785C14.2579 11.3207 13.987 10.9068 13.6171 10.5936C13.2473 10.2804 12.7944 10.0813 12.3135 10.0207C11.8327 9.95997 11.3445 10.0402 10.9084 10.2517C10.4724 10.4632 10.1071 10.7968 9.857 11.212C9.78924 11.3245 9.69997 11.4226 9.5943 11.5007C9.48863 11.5787 9.36862 11.6352 9.24112 11.6669C9.11363 11.6985 8.98115 11.7048 8.85124 11.6852C8.72133 11.6657 8.59654 11.6208 8.484 11.553C8.37146 11.4852 8.27336 11.396 8.19532 11.2903C8.11727 11.1846 8.06081 11.0646 8.02914 10.9371C7.99748 10.8096 7.99124 10.6771 8.01077 10.5472C8.03031 10.4173 8.07524 10.2925 8.143 10.18C8.54398 9.51546 9.10967 8.96564 9.78536 8.58374C10.461 8.20184 11.2239 8.00077 12 8Z" fill="currentColor"/>
</svg>
