<svg width="24" height="24" viewBox="0 0 24 24" fill="none" xmlns="http://www.w3.org/2000/svg">
<path fill-rule="evenodd" clip-rule="evenodd" d="M20 2C20.2086 2.00008 20.4119 2.06539 20.5816 2.18679C20.7512 2.30818 20.8786 2.47959 20.946 2.677L21.076 3.055C21.224 3.48875 21.4694 3.88283 21.7934 4.20699C22.1174 4.53115 22.5113 4.77677 22.945 4.925L23.323 5.054C23.5202 5.12157 23.6913 5.24908 23.8125 5.41869C23.9337 5.58831 23.9988 5.79155 23.9988 6C23.9988 6.20845 23.9337 6.41169 23.8125 6.58131C23.6913 6.75092 23.5202 6.87843 23.323 6.946L22.945 7.076C22.5112 7.224 22.1172 7.46941 21.793 7.79339C21.4688 8.11738 21.2232 8.51132 21.075 8.945L20.946 9.323C20.8784 9.5202 20.7509 9.69134 20.5813 9.81252C20.4117 9.93369 20.2085 9.99883 20 9.99883C19.7915 9.99883 19.5883 9.93369 19.4187 9.81252C19.2491 9.69134 19.1216 9.5202 19.054 9.323L18.924 8.945C18.776 8.51125 18.5306 8.11717 18.2066 7.79301C17.8826 7.46885 17.4887 7.22323 17.055 7.075L16.677 6.946C16.4798 6.87843 16.3087 6.75092 16.1875 6.58131C16.0663 6.41169 16.0012 6.20845 16.0012 6C16.0012 5.79155 16.0663 5.58831 16.1875 5.41869C16.3087 5.24908 16.4798 5.12157 16.677 5.054L17.055 4.924C17.4888 4.776 17.8828 4.53059 18.207 4.20661C18.5312 3.88262 18.7768 3.48867 18.925 3.055L19.054 2.677C19.1214 2.47959 19.2488 2.30818 19.4184 2.18679C19.5881 2.06539 19.7914 2.00008 20 2ZM20 5.196C19.7634 5.49366 19.4937 5.7634 19.196 6C19.494 6.236 19.763 6.506 20 6.804C20.236 6.506 20.506 6.236 20.804 6C20.5063 5.7634 20.2366 5.49366 20 5.196ZM8 3.586C8.37499 3.2109 8.88361 3.00011 9.414 3H14C14.2652 3 14.5196 3.10536 14.7071 3.29289C14.8946 3.48043 15 3.73478 15 4C15 4.26522 14.8946 4.51957 14.7071 4.70711C14.5196 4.89464 14.2652 5 14 5H9.414L8 6.414C7.62501 6.7891 7.11639 6.99989 6.586 7H4V19H20V13C20 12.7348 20.1054 12.4804 20.2929 12.2929C20.4804 12.1054 20.7348 12 21 12C21.2652 12 21.5196 12.1054 21.7071 12.2929C21.8946 12.4804 22 12.7348 22 13V19C22 19.5304 21.7893 20.0391 21.4142 20.4142C21.0391 20.7893 20.5304 21 20 21H4C3.46957 21 2.96086 20.7893 2.58579 20.4142C2.21071 20.0391 2 19.5304 2 19V7C2 6.46957 2.21071 5.96086 2.58579 5.58579C2.96086 5.21071 3.46957 5 4 5H6.586L8 3.586ZM9 12.5C9 11.7044 9.31607 10.9413 9.87868 10.3787C10.4413 9.81607 11.2044 9.5 12 9.5C12.7956 9.5 13.5587 9.81607 14.1213 10.3787C14.6839 10.9413 15 11.7044 15 12.5C15 13.2956 14.6839 14.0587 14.1213 14.6213C13.5587 15.1839 12.7956 15.5 12 15.5C11.2044 15.5 10.4413 15.1839 9.87868 14.6213C9.31607 14.0587 9 13.2956 9 12.5ZM12 7.5C10.6739 7.5 9.40215 8.02678 8.46447 8.96447C7.52678 9.90215 7 11.1739 7 12.5C7 13.8261 7.52678 15.0979 8.46447 16.0355C9.40215 16.9732 10.6739 17.5 12 17.5C13.3261 17.5 14.5979 16.9732 15.5355 16.0355C16.4732 15.0979 17 13.8261 17 12.5C17 11.1739 16.4732 9.90215 15.5355 8.96447C14.5979 8.02678 13.3261 7.5 12 7.5Z" fill="currentColor"/>
</svg>
