<svg width="24" height="24" viewBox="0 0 24 24" fill="none" xmlns="http://www.w3.org/2000/svg">
<path fill-rule="evenodd" clip-rule="evenodd" d="M14.793 3C15.1394 3.00023 15.4751 3.12036 15.743 3.34L15.853 3.44L17.415 5H20C20.5046 4.99984 20.9906 5.19041 21.3605 5.5335C21.7305 5.87659 21.9572 6.34684 21.995 6.85L22 7V19C22.0002 19.5046 21.8096 19.9906 21.4665 20.3605C21.1234 20.7305 20.6532 20.9572 20.15 20.995L20 21H4C3.49542 21.0002 3.00943 20.8096 2.63945 20.4665C2.26947 20.1234 2.04284 19.6532 2.005 19.15L2 19V7C1.99984 6.49542 2.19041 6.00943 2.5335 5.63945C2.87659 5.26947 3.34684 5.04284 3.85 5.005L4 5H6.586L8.146 3.44C8.3911 3.19442 8.71375 3.0414 9.059 3.007L9.207 3H14.793ZM14.586 5H9.414L7.854 6.56C7.6089 6.80558 7.28625 6.9586 6.941 6.993L6.793 7H4V19H20V7H17.207C16.8606 6.99977 16.5249 6.87963 16.257 6.66L16.147 6.56L14.586 5ZM12 7.5C13.3261 7.5 14.5979 8.02678 15.5355 8.96447C16.4732 9.90215 17 11.1739 17 12.5C17 13.8261 16.4732 15.0979 15.5355 16.0355C14.5979 16.9732 13.3261 17.5 12 17.5C10.6739 17.5 9.40215 16.9732 8.46447 16.0355C7.52678 15.0979 7 13.8261 7 12.5C7 11.1739 7.52678 9.90215 8.46447 8.96447C9.40215 8.02678 10.6739 7.5 12 7.5ZM12 9.5C11.606 9.5 11.2159 9.5776 10.8519 9.72836C10.488 9.87913 10.1573 10.1001 9.87868 10.3787C9.6001 10.6573 9.37913 10.988 9.22836 11.3519C9.0776 11.7159 9 12.106 9 12.5C9 12.894 9.0776 13.2841 9.22836 13.6481C9.37913 14.012 9.6001 14.3427 9.87868 14.6213C10.1573 14.8999 10.488 15.1209 10.8519 15.2716C11.2159 15.4224 11.606 15.5 12 15.5C12.7956 15.5 13.5587 15.1839 14.1213 14.6213C14.6839 14.0587 15 13.2956 15 12.5C15 11.7044 14.6839 10.9413 14.1213 10.3787C13.5587 9.81607 12.7956 9.5 12 9.5Z" fill="currentColor"/>
</svg>
