<svg width="24" height="24" viewBox="0 0 24 24" fill="none" xmlns="http://www.w3.org/2000/svg">
<path fill-rule="evenodd" clip-rule="evenodd" d="M14.824 4.567C14.9711 4.3484 15.0259 4.08058 14.9766 3.82177C14.9274 3.56295 14.7779 3.33403 14.5608 3.18477C14.3437 3.03551 14.0765 2.97796 13.8172 3.02462C13.5579 3.07129 13.3274 3.21841 13.176 3.434L12 5.144L10.824 3.434C10.7502 3.32434 10.6554 3.23038 10.5451 3.15758C10.4348 3.08477 10.3112 3.03456 10.1813 3.00984C10.0515 2.98511 9.91804 2.98638 9.7887 3.01355C9.65935 3.04072 9.53667 3.09327 9.42776 3.16815C9.31884 3.24302 9.22585 3.33875 9.15416 3.44979C9.08247 3.56083 9.03351 3.68498 9.0101 3.81506C8.98669 3.94514 8.98929 4.07857 9.01777 4.20764C9.04625 4.33671 9.10003 4.45885 9.176 4.567L10.786 6.909L2.475 19H2C1.73478 19 1.48043 19.1054 1.29289 19.2929C1.10536 19.4804 1 19.7348 1 20C1 20.2652 1.10536 20.5196 1.29289 20.7071C1.48043 20.8946 1.73478 21 2 21H22C22.2652 21 22.5196 20.8946 22.7071 20.7071C22.8946 20.5196 23 20.2652 23 20C23 19.7348 22.8946 19.4804 22.7071 19.2929C22.5196 19.1054 22.2652 19 22 19H21.526L13.214 6.91L14.824 4.567ZM15.986 19H19.099L12 8.674L4.901 19H8.015L11.17 14.443C11.263 14.3089 11.387 14.1994 11.5316 14.1237C11.6761 14.048 11.8368 14.0085 12 14.0085C12.1632 14.0085 12.3239 14.048 12.4684 14.1237C12.613 14.1994 12.737 14.3089 12.83 14.443L15.986 19ZM10.447 19H13.553L12 16.757L10.447 19Z" fill="currentColor"/>
</svg>
