<svg width="24" height="24" viewBox="0 0 24 24" fill="none" xmlns="http://www.w3.org/2000/svg">
<path fill-rule="evenodd" clip-rule="evenodd" d="M19.9421 15.664C19.9863 15.7877 20.0056 15.9189 19.999 16.0501C19.9925 16.1812 19.9601 16.3099 19.9039 16.4285C19.8476 16.5472 19.7685 16.6536 19.6711 16.7417C19.5737 16.8298 19.4598 16.8979 19.3361 16.942L14.9731 18.5L19.3361 20.058C19.586 20.1471 19.7902 20.3318 19.9038 20.5715C20.0175 20.8112 20.0312 21.0862 19.9421 21.336C19.853 21.5858 19.6683 21.79 19.4286 21.9037C19.189 22.0173 18.914 22.0311 18.6641 21.942L12.0001 19.562L5.33613 21.942C5.0863 22.0311 4.81129 22.0173 4.57162 21.9037C4.33195 21.79 4.14724 21.5858 4.05813 21.336C3.96902 21.0862 3.9828 20.8112 4.09645 20.5715C4.2101 20.3318 4.4143 20.1471 4.66413 20.058L9.02713 18.5L4.66413 16.942C4.54043 16.8979 4.42662 16.8298 4.32922 16.7417C4.23182 16.6536 4.15272 16.5472 4.09645 16.4285C4.04018 16.3098 4.00783 16.1812 4.00125 16.0501C3.99468 15.9189 4.01401 15.7877 4.05813 15.664C4.10225 15.5403 4.17031 15.4265 4.25842 15.3291C4.34652 15.2317 4.45295 15.1526 4.57162 15.0963C4.6903 15.04 4.81889 15.0077 4.95007 15.0011C5.08124 14.9945 5.21243 15.0139 5.33613 15.058L12.0001 17.438L18.6641 15.058C18.7878 15.0139 18.919 14.9945 19.0502 15.0011C19.1814 15.0076 19.31 15.04 19.4287 15.0963C19.5473 15.1525 19.6538 15.2316 19.7419 15.3291C19.83 15.4265 19.898 15.5403 19.9421 15.664ZM12.5521 2.106C12.7176 2.02315 12.9028 1.98784 13.0872 2.00401C13.2715 2.02017 13.4478 2.08718 13.5963 2.19757C13.7449 2.30796 13.8598 2.4574 13.9285 2.62926C13.9971 2.80112 14.0167 2.98866 13.9851 3.171L13.9441 3.349C13.9411 3.36561 13.9385 3.38228 13.9361 3.399L13.9231 3.536C13.9181 3.618 13.9191 3.716 13.9311 3.827C13.9711 4.18 14.1291 4.715 14.7071 5.293L14.8621 5.443L15.5421 6.063L15.8851 6.387C16.6971 7.179 17.5931 8.247 17.9701 9.757C18.4241 11.571 17.9761 13.198 16.7881 14.344C15.6411 15.452 13.9211 16 12.0001 16C8.83113 16 6.00013 13.948 6.00013 10.5C6.00013 7.804 7.78213 5.675 9.34213 4.31C10.1421 3.61 10.9391 3.062 11.5321 2.691C11.8641 2.484 12.2021 2.281 12.5521 2.106ZM12.1641 10.876L12.0001 10.632L11.8361 10.878C11.3441 11.638 11.0001 12.401 11.0001 12.918C11.0001 13.555 11.4861 14.001 12.0001 14.001C12.5141 14.001 13.0001 13.555 13.0001 12.918C13.0001 12.401 12.6561 11.638 12.1641 10.878M12.0791 4.724C11.6441 5.02 11.1501 5.387 10.6591 5.817C9.21913 7.075 8.00013 8.696 8.00013 10.5C8.00013 11.479 8.36613 12.313 9.00013 12.92C9.00013 11.849 9.56213 10.741 10.0461 9.964L10.4711 9.296L10.6601 9.017C11.0241 8.503 11.4841 8 12.0001 8C12.5331 8 12.9841 8.496 13.3421 9.01L13.5281 9.29L13.8431 9.79C14.3491 10.57 15.0001 11.767 15.0001 12.917C15.0001 13.025 14.9951 13.133 14.9841 13.239C15.1381 13.135 15.2771 13.023 15.3991 12.906C16.0241 12.302 16.3271 11.429 16.0291 10.242C15.7921 9.292 15.3061 8.65 14.7141 8.052L14.3811 7.73L14.0321 7.407C13.7911 7.185 13.5421 6.957 13.2921 6.707C12.6241 6.038 12.2611 5.347 12.0791 4.722" fill="currentColor"/>
</svg>
