<svg width="24" height="24" viewBox="0 0 24 24" fill="none" xmlns="http://www.w3.org/2000/svg">
<path fill-rule="evenodd" clip-rule="evenodd" d="M12 9.99999C12.5046 9.99983 12.9906 10.1904 13.3605 10.5335C13.7305 10.8766 13.9572 11.3468 13.995 11.85L14 12V13H19C19.5046 12.9998 19.9906 13.1904 20.3605 13.5335C20.7305 13.8766 20.9572 14.3468 20.995 14.85L21 15V20C21.0002 20.5046 20.8096 20.9906 20.4665 21.3605C20.1234 21.7305 19.6532 21.9571 19.15 21.995L19 22H6C5.49542 22.0002 5.00943 21.8096 4.63945 21.4665C4.26947 21.1234 4.04284 20.6531 4.005 20.15L4 20V12C3.99984 11.4954 4.19041 11.0094 4.5335 10.6394C4.87659 10.2695 5.34684 10.0428 5.85 10.005L6 9.99999H12ZM19 15H14V20H19V15ZM12 12H6V20H12V12ZM16.664 6.08999C17.279 6.37199 17.845 6.87699 18.257 7.44899C18.667 8.01899 19 8.76099 19 9.55599C19 11.123 17.613 12 16.427 12C15.492 12 14.671 11.35 14.281 10.6C14.0507 10.166 13.9592 9.67169 14.019 9.18399C14.079 8.71799 14.282 8.27799 14.616 7.89399L14.766 7.73399C14.992 7.50999 15.153 7.29799 15.228 7.00799L15.258 6.85599C15.2803 6.70219 15.3381 6.55569 15.4268 6.42812C15.5156 6.30056 15.6328 6.19543 15.7693 6.12108C15.9057 6.04673 16.0577 6.00521 16.213 5.99982C16.3683 5.99442 16.5227 6.02529 16.664 6.08999ZM16.642 8.62799C16.4988 8.81552 16.3417 8.99201 16.172 9.15599C16.019 9.30799 15.952 9.47799 16.055 9.67699C16.1191 9.80539 16.2219 9.91036 16.349 9.97699L16.427 9.99999L16.523 9.99299C16.6465 9.97545 16.7627 9.92424 16.859 9.84499C16.9033 9.81084 16.9391 9.76687 16.9636 9.71656C16.988 9.66624 17.0005 9.61094 17 9.55499C17 9.30899 16.887 8.97299 16.642 8.62799ZM9.058 2.08099C9.811 2.40299 10.526 2.99499 11.054 3.68199C11.578 4.36499 12 5.25099 12 6.19399C12 8.03399 10.285 8.99999 8.903 8.99999C7.84 8.99999 6.842 8.29599 6.35 7.40899C6.06432 6.90743 5.94987 6.32643 6.024 5.75399C6.109 5.13199 6.425 4.55499 6.946 4.07199C7.286 3.75799 7.534 3.44799 7.642 3.01499L7.676 2.84599C7.69949 2.69541 7.75709 2.55218 7.8444 2.42726C7.93171 2.30234 8.04641 2.19903 8.17975 2.12522C8.31309 2.05141 8.46154 2.00905 8.61375 2.00139C8.76597 1.99372 8.91792 2.02095 9.058 2.08099ZM9.158 4.54799C8.918 4.93799 8.616 5.25199 8.306 5.53799C8.035 5.79099 7.91 6.09899 8.098 6.43799C8.3 6.80199 8.688 6.99999 8.903 6.99999C9.212 6.99999 9.513 6.89199 9.719 6.72599C9.914 6.56999 10 6.39099 10 6.19399C10 5.83299 9.825 5.36599 9.468 4.89999C9.37242 4.77605 9.26886 4.65847 9.158 4.54799Z" fill="currentColor"/>
</svg>
