<svg width="24" height="24" viewBox="0 0 24 24" fill="none" xmlns="http://www.w3.org/2000/svg">
<path fill-rule="evenodd" clip-rule="evenodd" d="M12.058 2.08001C11.9178 2.01997 11.7658 1.99277 11.6135 2.00049C11.4613 2.00821 11.3128 2.05066 11.1794 2.12457C11.0461 2.19849 10.9314 2.30192 10.8441 2.42696C10.7569 2.552 10.6994 2.69534 10.676 2.84601C10.6494 3.07427 10.5759 3.29455 10.46 3.49301C10.36 3.65801 10.21 3.82701 9.946 4.07301C9.426 4.55501 9.109 5.13201 9.024 5.75401C8.94987 6.32645 9.06432 6.90745 9.35 7.40901C9.842 8.29601 10.84 9.00001 11.903 9.00001C13.285 9.00001 15 8.03401 15 6.19401C15 5.25101 14.578 4.36501 14.054 3.68201C13.526 2.99501 12.811 2.40301 12.058 2.08101M11.306 5.54001C11.616 5.25301 11.918 4.94001 12.159 4.55001C12.267 4.65801 12.371 4.77501 12.468 4.90101C12.825 5.36701 13 5.83401 13 6.19501C13 6.39201 12.914 6.57101 12.72 6.72701C12.4853 6.90588 12.1981 7.0022 11.903 7.00101C11.688 7.00101 11.3 6.80301 11.098 6.43901C11.0231 6.31614 10.9905 6.17216 11.005 6.02901C11.019 5.92101 11.078 5.75201 11.306 5.54001ZM9 10C8.46957 10 7.96086 10.2107 7.58579 10.5858C7.21071 10.9609 7 11.4696 7 12V20C7 20.5304 7.21071 21.0392 7.58579 21.4142C7.96086 21.7893 8.46957 22 9 22H15C15.5304 22 16.0391 21.7893 16.4142 21.4142C16.7893 21.0392 17 20.5304 17 20V12C17 11.4696 16.7893 10.9609 16.4142 10.5858C16.0391 10.2107 15.5304 10 15 10H9ZM9 12H15V20H9V12Z" fill="currentColor"/>
</svg>
