<svg width="24" height="24" viewBox="0 0 24 24" fill="none" xmlns="http://www.w3.org/2000/svg">
<path fill-rule="evenodd" clip-rule="evenodd" d="M17.5221 3.38L20.6201 6.478C20.801 6.65877 20.9326 6.88278 21.0026 7.12875C21.0725 7.37472 21.0784 7.63449 21.0197 7.88338C20.961 8.13227 20.8396 8.36202 20.6671 8.5508C20.4946 8.73958 20.2767 8.88113 20.0341 8.962L17.4841 9.812C17.7536 10.6818 17.7805 11.6088 17.5618 12.4927C17.3431 13.3767 16.8871 14.1842 16.2431 14.828L14.8281 16.242C14.1844 16.8862 13.377 17.3423 12.493 17.5612C11.609 17.7801 10.682 17.7534 9.81209 17.484L8.96209 20.034C8.88122 20.2766 8.73967 20.4945 8.55089 20.667C8.36211 20.8395 8.13236 20.9609 7.88347 21.0196C7.63458 21.0783 7.37481 21.0724 7.12884 21.0025C6.88286 20.9325 6.65885 20.8009 6.47809 20.62L3.38009 17.522C3.19921 17.3412 3.06755 17.1172 2.99761 16.8712C2.92768 16.6253 2.92179 16.3655 2.9805 16.1166C3.03922 15.8677 3.16059 15.638 3.33309 15.4492C3.50559 15.2604 3.72349 15.1189 3.96609 15.038L6.51609 14.188C6.24616 13.3179 6.2191 12.3906 6.43781 11.5062C6.65653 10.6218 7.11271 9.814 7.75709 9.17L9.17209 7.756C9.8159 7.11198 10.6234 6.65601 11.5073 6.43731C12.3913 6.2186 13.3183 6.24547 14.1881 6.515L15.0381 3.965C15.1188 3.72232 15.2603 3.50432 15.449 3.33171C15.6378 3.1591 15.8675 3.03762 16.1164 2.9788C16.3653 2.91998 16.6251 2.92578 16.8711 2.99565C17.1172 3.06552 17.3412 3.19714 17.5221 3.378V3.38ZM7.48709 15.971L5.36609 16.678L7.32009 18.633L8.02709 16.511L7.48709 15.971ZM10.5861 9.171L9.17209 10.585C8.88555 10.8617 8.65701 11.1928 8.49978 11.5588C8.34255 11.9248 8.2598 12.3185 8.25633 12.7168C8.25287 13.1151 8.32878 13.5102 8.47962 13.8789C8.63046 14.2475 8.85322 14.5825 9.1349 14.8642C9.41658 15.1459 9.75153 15.3686 10.1202 15.5195C10.4889 15.6703 10.884 15.7462 11.2823 15.7427C11.6806 15.7393 12.0743 15.6565 12.4403 15.4993C12.8063 15.3421 13.1373 15.1135 13.4141 14.827L14.8281 13.413C15.1104 13.1353 15.335 12.8044 15.4888 12.4395C15.6426 12.0746 15.7227 11.6828 15.7243 11.2868C15.726 10.8908 15.6492 10.4983 15.4985 10.1321C15.3477 9.76594 15.1259 9.43322 14.8459 9.15315C14.5659 8.87309 14.2333 8.65124 13.8671 8.50039C13.5009 8.34954 13.1085 8.27268 12.7125 8.27425C12.3165 8.27581 11.9247 8.35577 11.5597 8.50951C11.1948 8.66325 10.8639 8.88873 10.5861 9.171ZM16.6801 5.365L15.9731 7.486L16.5131 8.026L18.6341 7.319L16.6801 5.365Z" fill="currentColor"/>
</svg>
