<svg width="24" height="24" viewBox="0 0 24 24" fill="none" xmlns="http://www.w3.org/2000/svg">
<path fill-rule="evenodd" clip-rule="evenodd" d="M12 1C12.2652 1 12.5196 1.10536 12.7071 1.29289C12.8946 1.48043 13 1.73478 13 2V4H14.987C15.604 4 16.134 4.577 15.968 5.251C15.912 5.479 15 9.254 15 13C15 14.924 15.241 16.865 15.486 18.336C15.608 19.068 15.73 19.678 15.822 20.103C15.884 20.393 16 20.7 16 21H17C17.2652 21 17.5196 21.1054 17.7071 21.2929C17.8946 21.4804 18 21.7348 18 22C18 22.2652 17.8946 22.5196 17.7071 22.7071C17.5196 22.8946 17.2652 23 17 23H7C6.73478 23 6.48043 22.8946 6.29289 22.7071C6.10536 22.5196 6 22.2652 6 22C6 21.7348 6.10536 21.4804 6.29289 21.2929C6.48043 21.1054 6.73478 21 7 21H8C8 20.7 8.116 20.393 8.178 20.103C8.27 19.678 8.392 19.068 8.514 18.336C8.759 16.865 9 14.924 9 13C9 9.254 8.088 5.48 8.032 5.251C7.866 4.577 8.396 4 9.012 4H11V2C11 1.73478 11.1054 1.48043 11.2929 1.29289C11.4804 1.10536 11.7348 1 12 1ZM10.028 21H13.972C13.7959 20.2261 13.6431 19.4471 13.514 18.664C13.259 17.135 13 15.076 13 13C13 10.257 13.453 7.527 13.758 6H10.242C10.547 7.527 11 10.257 11 13C11 15.076 10.741 17.135 10.486 18.664C10.3569 19.4471 10.2041 20.2261 10.028 21Z" fill="currentColor"/>
</svg>
