<svg width="24" height="24" viewBox="0 0 24 24" fill="none" xmlns="http://www.w3.org/2000/svg">
<path fill-rule="evenodd" clip-rule="evenodd" d="M12.707 4.222C11.5787 3.11192 10.0574 2.49266 8.47459 2.4991C6.89177 2.50555 5.37562 3.13718 4.25638 4.25641C3.13715 5.37565 2.50552 6.8918 2.49907 8.47462C2.49263 10.0574 3.11189 11.5787 4.22197 12.707L11.292 19.779C12.4173 20.9043 13.9435 21.5365 15.535 21.5365C17.1264 21.5365 18.6527 20.9043 19.778 19.779C20.9033 18.6537 21.5355 17.1274 21.5355 15.536C21.5355 13.9446 20.9033 12.4183 19.778 11.293L18.364 9.88C18.353 9.86929 18.342 9.85862 18.331 9.848L12.707 4.222ZM13.787 8.131L11.293 5.636C10.5428 4.88584 9.52537 4.4644 8.46447 4.4644C7.40358 4.4644 6.38614 4.88584 5.63597 5.636C4.88581 6.38617 4.46437 7.40361 4.46437 8.4645C4.46437 9.5254 4.88581 10.5428 5.63597 11.293L8.13097 13.788C8.21073 12.3135 8.83339 10.9207 9.87897 9.878C10.9213 8.83324 12.3133 8.21098 13.787 8.131ZM12.707 18.364C13.4571 19.1142 14.4746 19.5356 15.5355 19.5356C16.5964 19.5356 17.6138 19.1142 18.364 18.364C19.1141 17.6138 19.5356 16.5964 19.5356 15.5355C19.5356 14.4746 19.1141 13.4572 18.364 12.707L16.924 11.267C16.1704 10.5203 15.151 10.1035 14.0901 10.1084C13.0292 10.1133 12.0137 10.5394 11.267 11.293C10.5203 12.0466 10.1035 13.066 10.1084 14.1269C10.1132 15.1878 10.5394 16.2033 11.293 16.95L12.707 18.364Z" fill="currentColor"/>
</svg>
