<svg width="24" height="24" viewBox="0 0 24 24" fill="none" xmlns="http://www.w3.org/2000/svg">
<path d="M12.0003 2C13.7513 2 15.1903 2.592 16.1683 3.159C17.4923 3.926 18.0003 5.369 18.0003 6.657V8.367C18.9078 8.93645 19.7838 9.55469 20.6243 10.219C20.8238 10.387 20.9497 10.6262 20.9753 10.8857C21.001 11.1452 20.9242 11.4044 20.7614 11.6081C20.5987 11.8119 20.3628 11.9439 20.104 11.9762C19.8453 12.0085 19.5841 11.9385 19.3763 11.781C18.9289 11.4287 18.4699 11.0911 18.0003 10.769V17.586C18.0003 18.7567 17.5353 19.8794 16.7075 20.7072C15.8797 21.535 14.757 22 13.5863 22H10.4143C9.24363 22 8.12091 21.535 7.29313 20.7072C6.46534 19.8794 6.0003 18.7567 6.0003 17.586V10.769C5.5333 11.093 5.0703 11.426 4.6253 11.781C4.41816 11.9468 4.15366 12.0234 3.88999 11.9942C3.62631 11.9649 3.38506 11.8321 3.2193 11.625C3.05354 11.4179 2.97685 11.1534 3.0061 10.8897C3.03536 10.626 3.16816 10.3848 3.3753 10.219C4.21617 9.55497 5.09246 8.93706 6.0003 8.368V6.657C6.0003 5.368 6.5083 3.926 7.8323 3.159C8.8103 2.592 10.2503 2 12.0003 2ZM16.0003 11.414L15.8793 11.536L15.7433 11.68C15.3136 12.1708 15.0555 12.7883 15.0083 13.439L15.0003 13.657V17L14.9953 17.15C14.9595 17.6262 14.7545 18.0738 14.4174 18.412C14.0803 18.7502 13.6333 18.9567 13.1573 18.994L13.0003 19H11.0003L10.8503 18.995C10.3741 18.9592 9.92647 18.7542 9.58827 18.4171C9.25006 18.08 9.04363 17.6331 9.0063 17.157L9.0003 17V13.657L8.9933 13.459C8.95051 12.808 8.69668 12.1887 8.2703 11.695L8.1213 11.535L8.0003 11.415V17.585L8.0083 17.777C8.05382 18.3493 8.3018 18.8866 8.70774 19.2926C9.11368 19.6985 9.65101 19.9465 10.2233 19.992L10.4143 20H13.5863L13.7773 19.992C14.3496 19.9465 14.8869 19.6985 15.2929 19.2926C15.6988 18.8866 15.9468 18.3493 15.9923 17.777L16.0003 17.586V11.414ZM12.0003 8C11.4463 8 10.7163 8.192 9.8723 8.547C9.5883 8.667 9.3003 8.801 9.0133 8.945L8.5833 9.168L9.5363 10.121C10.4091 10.9941 10.9281 12.1592 10.9933 13.392L11.0003 13.657V17H13.0003V13.657C13.0001 12.4223 13.4567 11.2311 14.2823 10.313L14.4643 10.121L15.4173 9.168C14.9973 8.9408 14.5668 8.73357 14.1273 8.547C13.2853 8.192 12.5553 8 12.0003 8ZM12.0003 4C10.7033 4 9.6103 4.44 8.8353 4.89C8.3233 5.185 8.0003 5.823 8.0003 6.656V7.216C8.3613 7.031 8.7293 6.857 9.0963 6.702C10.0343 6.308 11.0543 6 12.0003 6C12.9463 6 13.9663 6.308 14.9043 6.703C15.2713 6.858 15.6393 7.032 16.0003 7.216V6.656C16.0003 5.824 15.6773 5.186 15.1653 4.889C14.3903 4.44 13.2973 4 12.0003 4Z" fill="currentColor"/>
</svg>
