<svg width="24" height="24" viewBox="0 0 24 24" fill="none" xmlns="http://www.w3.org/2000/svg">
<path fill-rule="evenodd" clip-rule="evenodd" d="M2 8C2 7.20435 2.31607 6.44129 2.87868 5.87868C3.44129 5.31607 4.20435 5 5 5H19C19.7956 5 20.5587 5.31607 21.1213 5.87868C21.6839 6.44129 22 7.20435 22 8V16C22 16.7956 21.6839 17.5587 21.1213 18.1213C20.5587 18.6839 19.7956 19 19 19H16.828C16.0328 18.9996 15.2702 18.6834 14.708 18.121L12.878 16.293C12.6908 16.1057 12.4368 16.0003 12.172 16H11.828C11.5628 16.0001 11.3085 16.1054 11.121 16.293L9.293 18.12C9.01457 18.3988 8.68395 18.62 8.32003 18.771C7.95611 18.922 7.566 18.9998 7.172 19H5C4.20435 19 3.44129 18.6839 2.87868 18.1213C2.31607 17.5587 2 16.7956 2 16V8ZM5 7C4.73478 7 4.48043 7.10536 4.29289 7.29289C4.10536 7.48043 4 7.73478 4 8V16C4 16.2652 4.10536 16.5196 4.29289 16.7071C4.48043 16.8946 4.73478 17 5 17H7.172C7.43719 16.9999 7.69151 16.8946 7.879 16.707L9.707 14.879C10.2695 14.3164 11.0324 14.0002 11.828 14H12.172C12.9672 14.0004 13.7298 14.3166 14.292 14.879L16.122 16.707C16.3092 16.8943 16.5632 16.9997 16.828 17H19C19.2652 17 19.5196 16.8946 19.7071 16.7071C19.8946 16.5196 20 16.2652 20 16V8C20 7.73478 19.8946 7.48043 19.7071 7.29289C19.5196 7.10536 19.2652 7 19 7H5ZM6 11C6 10.4696 6.21071 9.96086 6.58579 9.58579C6.96086 9.21071 7.46957 9 8 9C8.53043 9 9.03914 9.21071 9.41421 9.58579C9.78929 9.96086 10 10.4696 10 11C10 11.5304 9.78929 12.0391 9.41421 12.4142C9.03914 12.7893 8.53043 13 8 13C7.46957 13 6.96086 12.7893 6.58579 12.4142C6.21071 12.0391 6 11.5304 6 11ZM14 11C14 10.4696 14.2107 9.96086 14.5858 9.58579C14.9609 9.21071 15.4696 9 16 9C16.5304 9 17.0391 9.21071 17.4142 9.58579C17.7893 9.96086 18 10.4696 18 11C18 11.5304 17.7893 12.0391 17.4142 12.4142C17.0391 12.7893 16.5304 13 16 13C15.4696 13 14.9609 12.7893 14.5858 12.4142C14.2107 12.0391 14 11.5304 14 11Z" fill="currentColor"/>
</svg>
