<svg width="24" height="24" viewBox="0 0 24 24" fill="none" xmlns="http://www.w3.org/2000/svg">
<path fill-rule="evenodd" clip-rule="evenodd" d="M17.6569 2.515C17.9221 2.515 18.1764 2.62036 18.364 2.80789C18.5515 2.99543 18.6569 3.24978 18.6569 3.515V3.929L19.0709 3.515C19.1631 3.41949 19.2735 3.34331 19.3955 3.2909C19.5175 3.23849 19.6487 3.2109 19.7815 3.20975C19.9143 3.20859 20.0459 3.2339 20.1688 3.28418C20.2917 3.33446 20.4034 3.40871 20.4973 3.5026C20.5912 3.5965 20.6654 3.70815 20.7157 3.83105C20.766 3.95394 20.7913 4.08562 20.7901 4.2184C20.789 4.35118 20.7614 4.4824 20.709 4.6044C20.6566 4.72641 20.5804 4.83675 20.4849 4.929L20.0709 5.343H20.4849C20.7501 5.343 21.0044 5.44836 21.192 5.63589C21.3795 5.82343 21.4849 6.07778 21.4849 6.343C21.4849 6.60822 21.3795 6.86257 21.192 7.05011C21.0044 7.23764 20.7501 7.343 20.4849 7.343H18.4279C19.7319 9.586 19.0429 12.585 16.6699 13.969L5.65988 20.392C4.32788 21.169 2.83088 19.672 3.60788 18.34L10.0309 7.33C11.4149 4.957 14.4149 4.268 16.6569 5.572V3.515C16.6569 3.24978 16.7622 2.99543 16.9498 2.80789C17.1373 2.62036 17.3917 2.515 17.6569 2.515ZM12.1049 7.862C12.3809 7.55547 12.72 7.31235 13.0989 7.14938C13.4778 6.98641 13.8875 6.90745 14.2999 6.91793C14.7122 6.9284 15.1174 7.02807 15.4875 7.21008C15.8577 7.39209 16.184 7.65211 16.4441 7.97226C16.7042 8.29242 16.8918 8.6651 16.9941 9.06469C17.0964 9.46428 17.1109 9.88128 17.0367 10.287C16.9625 10.6928 16.8012 11.0776 16.5641 11.4151C16.3269 11.7526 16.0195 12.0347 15.6629 12.242L13.5019 13.502L12.7069 12.707C12.6146 12.6115 12.5043 12.5353 12.3823 12.4829C12.2603 12.4305 12.1291 12.4029 11.9963 12.4017C11.8635 12.4006 11.7318 12.4259 11.6089 12.4762C11.486 12.5265 11.3744 12.6007 11.2805 12.6946C11.1866 12.7885 11.1123 12.9001 11.0621 13.023C11.0118 13.1459 10.9865 13.2776 10.9876 13.4104C10.9888 13.5432 11.0164 13.6744 11.0688 13.7964C11.1212 13.9184 11.1974 14.0288 11.2929 14.121L11.7149 14.544L6.29288 17.707L11.0189 9.605L11.9999 10.585C12.1885 10.7672 12.4411 10.868 12.7033 10.8657C12.9655 10.8634 13.2163 10.7582 13.4017 10.5728C13.5871 10.3874 13.6923 10.1366 13.6946 9.8744C13.6968 9.6122 13.596 9.3596 13.4139 9.171L12.1049 7.862Z" fill="currentColor"/>
</svg>
