<svg width="24" height="24" viewBox="0 0 24 24" fill="none" xmlns="http://www.w3.org/2000/svg">
<path fill-rule="evenodd" clip-rule="evenodd" d="M20 5C20.5046 4.99984 20.9906 5.19041 21.3605 5.5335C21.7305 5.87659 21.9572 6.34684 21.995 6.85L22 7V17C22.0002 17.5046 21.8096 17.9906 21.4665 18.3605C21.1234 18.7305 20.6532 18.9572 20.15 18.995L20 19H4C3.49542 19.0002 3.00943 18.8096 2.63945 18.4665C2.26947 18.1234 2.04284 17.6532 2.005 17.15L2 17V7C1.99984 6.49542 2.19041 6.00943 2.5335 5.63945C2.87659 5.26947 3.34684 5.04284 3.85 5.005L4 5H20ZM17.003 7H6.997L7 7.125C7 7.50255 6.92564 7.8764 6.78115 8.22521C6.63667 8.57403 6.4249 8.89096 6.15793 9.15793C5.89096 9.4249 5.57403 9.63667 5.22521 9.78115C4.8764 9.92564 4.50255 10 4.125 10L4 9.997V14.003L4.125 14C4.8875 14 5.61876 14.3029 6.15793 14.8421C6.6971 15.3812 7 16.1125 7 16.875L6.997 17H17.003L17 16.875C17 16.1418 17.2802 15.4362 17.7832 14.9027C18.2862 14.3692 18.974 14.0481 19.706 14.005L19.938 14.001L20 14.003V9.997L19.875 10C19.1418 9.99999 18.4362 9.71983 17.9027 9.21682C17.3692 8.71381 17.0481 8.02597 17.005 7.294L17 7.062L17.003 7ZM19.875 16C19.7495 16 19.6255 16.027 19.5114 16.0791C19.3973 16.1313 19.2957 16.2073 19.2136 16.3022C19.1314 16.397 19.0707 16.5084 19.0354 16.6288C19.0001 16.7492 18.9911 16.8758 19.009 17H20V16.009C19.9586 16.0031 19.9168 16.0001 19.875 16ZM4.125 16C4.08317 16.0001 4.0414 16.0031 4 16.009V17H4.991C5.00892 16.8758 4.99993 16.7492 4.96463 16.6288C4.92934 16.5084 4.86856 16.397 4.78642 16.3022C4.70428 16.2073 4.60271 16.1313 4.48859 16.0791C4.37447 16.027 4.25047 16 4.125 16ZM12 8C13.0609 8 14.0783 8.42143 14.8284 9.17157C15.5786 9.92172 16 10.9391 16 12C16 13.0609 15.5786 14.0783 14.8284 14.8284C14.0783 15.5786 13.0609 16 12 16C10.9391 16 9.92172 15.5786 9.17157 14.8284C8.42143 14.0783 8 13.0609 8 12C8 10.9391 8.42143 9.92172 9.17157 9.17157C9.92172 8.42143 10.9391 8 12 8ZM12 10C11.4696 10 10.9609 10.2107 10.5858 10.5858C10.2107 10.9609 10 11.4696 10 12C10 12.5304 10.2107 13.0391 10.5858 13.4142C10.9609 13.7893 11.4696 14 12 14C12.5304 14 13.0391 13.7893 13.4142 13.4142C13.7893 13.0391 14 12.5304 14 12C14 11.4696 13.7893 10.9609 13.4142 10.5858C13.0391 10.2107 12.5304 10 12 10ZM4.991 7H4V7.991C4.12418 8.00892 4.25076 7.99993 4.37116 7.96463C4.49157 7.92934 4.60297 7.86856 4.69781 7.78642C4.79266 7.70428 4.86873 7.60271 4.92087 7.48859C4.97301 7.37447 5 7.25047 5 7.125L4.998 7.062L4.991 7ZM20 7H19.009C18.9911 7.12418 19.0001 7.25076 19.0354 7.37116C19.0707 7.49157 19.1314 7.60297 19.2136 7.69781C19.2957 7.79266 19.3973 7.86873 19.5114 7.92087C19.6255 7.97301 19.7495 8 19.875 8L19.938 7.998L20 7.99V7Z" fill="currentColor"/>
</svg>
