<svg width="24" height="24" viewBox="0 0 24 24" fill="none" xmlns="http://www.w3.org/2000/svg">
<path fill-rule="evenodd" clip-rule="evenodd" d="M6 4C5.60603 4 5.21593 4.0776 4.85195 4.22836C4.48797 4.37913 4.15726 4.6001 3.87868 4.87868C3.6001 5.15726 3.37913 5.48797 3.22836 5.85195C3.0776 6.21593 3 6.60603 3 7C3 7.39397 3.0776 7.78407 3.22836 8.14805C3.37913 8.51203 3.6001 8.84274 3.87868 9.12132C4.15726 9.3999 4.48797 9.62087 4.85195 9.77164C5.21593 9.9224 5.60603 10 6 10C6.79565 10 7.55871 9.68393 8.12132 9.12132C8.68393 8.55871 9 7.79565 9 7C9 6.20435 8.68393 5.44129 8.12132 4.87868C7.55871 4.31607 6.79565 4 6 4ZM5 7C5 6.73478 5.10536 6.48043 5.29289 6.29289C5.48043 6.10536 5.73478 6 6 6C6.26522 6 6.51957 6.10536 6.70711 6.29289C6.89464 6.48043 7 6.73478 7 7C7 7.26522 6.89464 7.51957 6.70711 7.70711C6.51957 7.89464 6.26522 8 6 8C5.73478 8 5.48043 7.89464 5.29289 7.70711C5.10536 7.51957 5 7.26522 5 7ZM15.5 4C14.3065 4 13.1619 4.47411 12.318 5.31802C11.4741 6.16193 11 7.30653 11 8.5V15.5C11 16.0909 11.1164 16.6761 11.3425 17.2221C11.5687 17.768 11.9002 18.2641 12.318 18.682C13.1619 19.5259 14.3065 20 15.5 20H16.5C17.6935 20 18.8381 19.5259 19.682 18.682C20.5259 17.8381 21 16.6935 21 15.5V15C21 14.7348 20.8946 14.4804 20.7071 14.2929C20.5196 14.1054 20.2652 14 20 14C19.7348 14 19.4804 14.1054 19.2929 14.2929C19.1054 14.4804 19 14.7348 19 15V15.5C19 16.163 18.7366 16.7989 18.2678 17.2678C17.7989 17.7366 17.163 18 16.5 18H15.5C14.837 18 14.2011 17.7366 13.7322 17.2678C13.2634 16.7989 13 16.163 13 15.5V8.5C13 7.83696 13.2634 7.20107 13.7322 6.73223C14.2011 6.26339 14.837 6 15.5 6H16.5C17.163 6 17.7989 6.26339 18.2678 6.73223C18.7366 7.20107 19 7.83696 19 8.5V9C19 9.26522 19.1054 9.51957 19.2929 9.70711C19.4804 9.89464 19.7348 10 20 10C20.2652 10 20.5196 9.89464 20.7071 9.70711C20.8946 9.51957 21 9.26522 21 9V8.5C21 7.30653 20.5259 6.16193 19.682 5.31802C18.8381 4.47411 17.6935 4 16.5 4H15.5Z" fill="currentColor"/>
</svg>
