<svg width="24" height="24" viewBox="0 0 24 24" fill="none" xmlns="http://www.w3.org/2000/svg">
<path fill-rule="evenodd" clip-rule="evenodd" d="M8 3C8 2.73478 8.10536 2.48043 8.29289 2.29289C8.48043 2.10536 8.73478 2 9 2H15C15.2652 2 15.5196 2.10536 15.7071 2.29289C15.8946 2.48043 16 2.73478 16 3V12C15.9999 12.8869 15.7052 13.7486 15.1622 14.4498C14.6192 15.151 13.8586 15.6519 13 15.874V20H14C14.2652 20 14.5196 20.1054 14.7071 20.2929C14.8946 20.4804 15 20.7348 15 21C15 21.2652 14.8946 21.5196 14.7071 21.7071C14.5196 21.8946 14.2652 22 14 22H10C9.73478 22 9.48043 21.8946 9.29289 21.7071C9.10536 21.5196 9 21.2652 9 21C9 20.7348 9.10536 20.4804 9.29289 20.2929C9.48043 20.1054 9.73478 20 10 20H11V15.874C10.1414 15.6519 9.38084 15.151 8.83783 14.4498C8.29482 13.7486 8.00012 12.8869 8 12V3ZM12 14C12.5304 14 13.0391 13.7893 13.4142 13.4142C13.7893 13.0391 14 12.5304 14 12V4H10V12C10 12.5304 10.2107 13.0391 10.5858 13.4142C10.9609 13.7893 11.4696 14 12 14Z" fill="currentColor"/>
</svg>
