<svg width="24" height="24" viewBox="0 0 24 24" fill="none" xmlns="http://www.w3.org/2000/svg">
<path fill-rule="evenodd" clip-rule="evenodd" d="M5 5C5 4.73478 4.89464 4.48043 4.70711 4.29289C4.51957 4.10536 4.26522 4 4 4C3.73478 4 3.48043 4.10536 3.29289 4.29289C3.10536 4.48043 3 4.73478 3 5V19C3 19.2652 3.10536 19.5196 3.29289 19.7071C3.48043 19.8946 3.73478 20 4 20H20C20.2652 20 20.5196 19.8946 20.7071 19.7071C20.8946 19.5196 21 19.2652 21 19C21 18.7348 20.8946 18.4804 20.7071 18.2929C20.5196 18.1054 20.2652 18 20 18H5V5ZM21 11.986C20.9985 11.8547 20.9711 11.7249 20.9195 11.6042C20.8678 11.4834 20.7929 11.3741 20.699 11.2823C20.605 11.1905 20.494 11.1181 20.3721 11.0692C20.2502 11.0204 20.1198 10.996 19.9885 10.9975C19.8572 10.999 19.7274 11.0264 19.6067 11.078C19.4859 11.1297 19.3766 11.2046 19.2848 11.2985C19.193 11.3925 19.1206 11.5035 19.0717 11.6254C19.0229 11.7473 18.9985 11.8777 19 12.009L19.006 12.554L15.268 8.816C15.0805 8.62853 14.8262 8.52321 14.561 8.52321C14.2958 8.52321 14.0415 8.62853 13.854 8.816L11.025 11.644L7.49 8.108C7.39709 8.01509 7.28679 7.94139 7.1654 7.89111C7.044 7.84082 6.91389 7.81494 6.7825 7.81494C6.6511 7.81494 6.521 7.84082 6.3996 7.89111C6.27821 7.94139 6.16791 8.01509 6.075 8.108C5.98209 8.20091 5.90839 8.31121 5.85811 8.4326C5.80782 8.554 5.78194 8.68411 5.78194 8.8155C5.78194 8.9469 5.80782 9.077 5.85811 9.1984C5.90839 9.31979 5.98209 9.43009 6.075 9.523L10.318 13.765C10.5055 13.9525 10.7598 14.0578 11.025 14.0578C11.2902 14.0578 11.5445 13.9525 11.732 13.765L14.561 10.937L19.328 15.705C19.4686 15.846 19.648 15.9418 19.8434 15.9801C20.0387 16.0185 20.2411 15.9977 20.4245 15.9204C20.608 15.843 20.7642 15.7127 20.8731 15.5461C20.982 15.3794 21.0388 15.1841 21.036 14.985L21 11.986Z" fill="currentColor"/>
</svg>
