<svg width="24" height="24" viewBox="0 0 24 24" fill="none" xmlns="http://www.w3.org/2000/svg">
<path fill-rule="evenodd" clip-rule="evenodd" d="M12 2C11.7348 2 11.4804 2.10536 11.2929 2.29289C11.1054 2.48043 11 2.73478 11 3V12C11 12.2652 11.1054 12.5196 11.2929 12.7071C11.4804 12.8946 11.7348 13 12 13H21C21.2652 13 21.5196 12.8946 21.7071 12.7071C21.8946 12.5196 22 12.2652 22 12C22 6.477 17.523 2 12 2ZM13 11V4.062C14.7624 4.28459 16.4007 5.08713 17.6568 6.34324C18.9129 7.59934 19.7154 9.23761 19.938 11H13ZM8.89 4.627C9.13426 4.52357 9.32744 4.32733 9.42702 4.08147C9.5266 3.83561 9.52443 3.56026 9.421 3.316C9.31756 3.07174 9.12133 2.87856 8.87547 2.77898C8.62961 2.6794 8.35426 2.68157 8.11 2.785C6.29853 3.55033 4.75282 4.83263 3.66611 6.4716C2.57939 8.11056 1.99988 10.0335 2 12C2 17.523 6.477 22 12 22C16.145 22 19.699 19.478 21.215 15.89C21.3184 15.6457 21.3206 15.3704 21.221 15.1245C21.1214 14.8787 20.9283 14.6824 20.684 14.579C20.4397 14.4756 20.1644 14.4734 19.9185 14.573C19.6727 14.6726 19.4764 14.8657 19.373 15.11C18.6545 16.8105 17.3701 18.2102 15.7376 19.072C14.105 19.9338 12.2247 20.2046 10.4153 19.8386C8.60592 19.4725 6.97874 18.4921 5.80954 17.0635C4.64034 15.635 4.00105 13.846 4 12C3.99995 10.4264 4.4638 8.88773 5.33354 7.57635C6.20329 6.26497 7.44034 5.23909 8.89 4.627Z" fill="currentColor"/>
</svg>
