<svg width="24" height="24" viewBox="0 0 24 24" fill="none" xmlns="http://www.w3.org/2000/svg">
<path fill-rule="evenodd" clip-rule="evenodd" d="M20 3C20.5046 2.99984 20.9906 3.19041 21.3605 3.5335C21.7305 3.87659 21.9572 4.34684 21.995 4.85L22 5V19C22.0002 19.5046 21.8096 19.9906 21.4665 20.3605C21.1234 20.7305 20.6532 20.9572 20.15 20.995L20 21H4C3.49542 21.0002 3.00943 20.8096 2.63945 20.4665C2.26947 20.1234 2.04284 19.6532 2.005 19.15L2 19V14C1.99984 13.4954 2.19041 13.0094 2.5335 12.6395C2.87659 12.2695 3.34684 12.0428 3.85 12.005L4 12H8V10C7.99984 9.49542 8.19041 9.00943 8.5335 8.63945C8.87659 8.26947 9.34685 8.04284 9.85 8.005L10 8H14V5C13.9998 4.49542 14.1904 4.00943 14.5335 3.63945C14.8766 3.26947 15.3468 3.04284 15.85 3.005L16 3H20ZM20 5H16V19H20V5ZM14 10H10V19H14V10ZM8 14H4V19H8V14Z" fill="currentColor"/>
</svg>
