<svg width="24" height="24" viewBox="0 0 24 24" fill="none" xmlns="http://www.w3.org/2000/svg">
<path fill-rule="evenodd" clip-rule="evenodd" d="M19.4954 3.13301C19.717 2.99971 19.9816 2.95744 20.2337 3.01505C20.4858 3.07267 20.7057 3.22569 20.8474 3.44201L21.8374 4.95201C21.9665 5.14927 22.0217 5.38578 21.9933 5.61979C21.965 5.85381 21.8548 6.07028 21.6824 6.23101L21.6794 6.23501L21.6654 6.24801L21.6084 6.30101L21.3834 6.51601C20.1384 7.7236 18.9311 8.96954 17.7634 10.252C15.5664 12.668 12.9574 15.83 11.2014 18.898C10.7114 19.754 9.5144 19.938 8.8044 19.199L2.3194 12.461C2.22647 12.3644 2.1539 12.2501 2.10602 12.1249C2.05813 11.9997 2.03591 11.8662 2.04067 11.7322C2.04543 11.5982 2.07707 11.4666 2.13371 11.3451C2.19036 11.2236 2.27085 11.1148 2.3704 11.025L4.3304 9.25701C4.50264 9.10172 4.7235 9.01112 4.95518 9.00072C5.18685 8.99032 5.41494 9.06077 5.6004 9.20001L8.9094 11.681C14.0784 6.58401 17.0094 4.62801 19.4954 3.13301ZM19.7054 5.34901C17.4154 6.78101 14.5574 8.85801 9.7074 13.707C9.53721 13.8772 9.31134 13.9803 9.07126 13.9974C8.83117 14.0145 8.59298 13.9444 8.4004 13.8L5.0584 11.294L4.4774 11.818L9.7944 17.344C11.6404 14.274 14.1814 11.218 16.2844 8.90601C17.3918 7.68945 18.534 6.50497 19.7094 5.35401L19.7054 5.34901Z" fill="currentColor"/>
</svg>
