<svg width="24" height="24" viewBox="0 0 24 24" fill="none" xmlns="http://www.w3.org/2000/svg">
<path d="M2.222 11.121C2.39419 10.9488 2.62329 10.8454 2.86632 10.8301C3.10934 10.8148 3.34959 10.8888 3.542 11.038L3.636 11.121L7.878 15.364C8.05735 15.544 8.16147 15.7854 8.16923 16.0394C8.17698 16.2933 8.08778 16.5407 7.91975 16.7313C7.75172 16.9219 7.51745 17.0413 7.26452 17.0654C7.0116 17.0895 6.75899 17.0164 6.558 16.861L6.464 16.778L2.222 12.536C2.12902 12.4431 2.05526 12.3328 2.00494 12.2114C1.95461 12.09 1.92871 11.9599 1.92871 11.8285C1.92871 11.6971 1.95461 11.567 2.00494 11.4456C2.05526 11.3242 2.12902 11.2139 2.222 11.121ZM22.778 5.46501C22.9502 5.6372 23.0536 5.8663 23.0689 6.10932C23.0842 6.35235 23.0103 6.5926 22.861 6.78501L22.778 6.87901L12.949 16.707C12.7585 16.8978 12.5045 17.0119 12.2354 17.0278C11.9662 17.0436 11.7006 16.9601 11.489 16.793L11.393 16.708L7.222 12.536C7.04074 12.3565 6.93497 12.1144 6.92631 11.8595C6.91766 11.6045 7.00679 11.3558 7.17546 11.1644C7.34413 10.973 7.57958 10.8533 7.83362 10.8298C8.08766 10.8063 8.34108 10.8808 8.542 11.038L8.636 11.121L12.171 14.657L21.364 5.46501C21.5515 5.27753 21.8058 5.17222 22.071 5.17222C22.3362 5.17222 22.5905 5.27753 22.778 5.46501ZM17.778 5.46501C17.9502 5.6372 18.0536 5.8663 18.0689 6.10932C18.0842 6.35235 18.0103 6.5926 17.861 6.78501L17.778 6.87901L12.828 11.829C12.648 12.0084 12.4066 12.1125 12.1526 12.1202C11.8987 12.128 11.6513 12.0388 11.4607 11.8708C11.2702 11.7027 11.1507 11.4685 11.1266 11.2155C11.1025 10.9626 11.1756 10.71 11.331 10.509L11.414 10.414L16.364 5.46401C16.5515 5.27653 16.8058 5.17122 17.071 5.17122C17.3362 5.17122 17.5905 5.27753 17.778 5.46501Z" fill="currentColor"/>
</svg>
