<svg width="24" height="24" viewBox="0 0 24 24" fill="none" xmlns="http://www.w3.org/2000/svg">
<path fill-rule="evenodd" clip-rule="evenodd" d="M10.0004 2C12.2224 2 15.7574 3.108 16.9494 6.684C17.3854 7.992 17.3294 9.157 17.1744 10.305L16.9134 12.037C16.7284 13.342 16.5944 14.887 16.8634 17H18.0004C18.2656 17 18.5199 17.1054 18.7075 17.2929C18.895 17.4804 19.0004 17.7348 19.0004 18V21C19.0004 21.2652 18.895 21.5196 18.7075 21.7071C18.5199 21.8946 18.2656 22 18.0004 22H6.00036C5.73515 22 5.48079 21.8946 5.29326 21.7071C5.10572 21.5196 5.00036 21.2652 5.00036 21V18C5.00036 17.7348 5.10572 17.4804 5.29326 17.2929C5.48079 17.1054 5.73515 17 6.00036 17H7.10636C7.33836 15.856 8.00636 14.282 9.67036 12.644C9.85236 12.464 9.96036 12.257 10.0054 12.052C9.66336 12.269 9.32236 12.47 8.99536 12.653L8.51336 12.915L8.06036 13.15L7.64336 13.357L7.10636 13.609L6.81936 13.738C6.77975 13.7555 6.74008 13.7728 6.70036 13.79C6.42686 13.908 6.12418 13.941 5.83169 13.8846C5.5392 13.8283 5.27044 13.6852 5.06036 13.474L3.58336 11.997C3.338 11.7519 3.18518 11.4293 3.1509 11.0841C3.11662 10.739 3.20301 10.3926 3.39536 10.104L6.84636 4.928L6.10636 3.448C6.02997 3.29554 5.99383 3.12608 6.00138 2.95572C6.00893 2.78536 6.05992 2.61976 6.14951 2.47466C6.23909 2.32956 6.3643 2.20978 6.51322 2.1267C6.66214 2.04362 6.82984 2.00001 7.00036 2H10.0004ZM17.0004 19H7.00036V20H17.0004V19ZM10.0004 4H8.61836L8.89436 4.553C8.96306 4.69045 8.99915 4.84188 8.99984 4.99553C9.00054 5.14919 8.96581 5.30094 8.89836 5.439L8.83236 5.555L5.28736 10.873L6.22736 11.813L6.59736 11.64L6.80536 11.54L7.26136 11.313C8.05936 10.904 9.02736 10.353 9.88936 9.709C10.0817 9.56043 10.3216 9.48701 10.5642 9.50247C10.8068 9.51793 11.0354 9.62121 11.2074 9.793C12.4124 10.998 12.2004 12.836 11.1924 13.945L11.0724 14.07C9.98836 15.137 9.46236 16.117 9.21336 16.856L9.16736 17H14.8494C14.6517 15.3482 14.6671 13.6778 14.8954 12.03L14.9724 11.484L15.1424 10.368C15.3204 9.168 15.3864 8.321 15.0524 7.316C14.2424 4.892 11.7774 4 10.0004 4ZM9.00036 7C9.26558 7 9.51993 7.10536 9.70747 7.29289C9.89501 7.48043 10.0004 7.73478 10.0004 8C10.0004 8.26522 9.89501 8.51957 9.70747 8.70711C9.51993 8.89464 9.26558 9 9.00036 9C8.73515 9 8.48079 8.89464 8.29326 8.70711C8.10572 8.51957 8.00036 8.26522 8.00036 8C8.00036 7.73478 8.10572 7.48043 8.29326 7.29289C8.48079 7.10536 8.73515 7 9.00036 7Z" fill="currentColor"/>
</svg>
