<svg width="24" height="24" viewBox="0 0 24 24" fill="none" xmlns="http://www.w3.org/2000/svg">
<path fill-rule="evenodd" clip-rule="evenodd" d="M12.3734 8.09199L13.1824 7.28299C13.0011 6.9063 12.9005 6.49588 12.887 6.07804C12.8735 5.66019 12.9475 5.24415 13.1042 4.85656C13.2609 4.46898 13.4969 4.11841 13.797 3.82733C14.097 3.53625 14.4546 3.31107 14.8468 3.16624C15.239 3.02141 15.6571 2.96011 16.0743 2.98628C16.4915 3.01245 16.8987 3.1255 17.2697 3.3182C17.6407 3.5109 17.9674 3.77898 18.2287 4.10528C18.4901 4.43157 18.6804 4.80887 18.7874 5.21299C19.1895 5.32177 19.5646 5.5131 19.8887 5.7748C20.2128 6.03651 20.4789 6.36285 20.67 6.73303C20.861 7.10322 20.9729 7.50913 20.9984 7.92493C21.024 8.34073 20.9626 8.75729 20.8183 9.14808C20.674 9.53887 20.4499 9.89533 20.1603 10.1947C19.8707 10.4942 19.5218 10.73 19.1361 10.8872C18.7503 11.0443 18.336 11.1195 17.9196 11.1077C17.5031 11.096 17.0937 10.9977 16.7174 10.819L15.9084 11.628L15.9134 11.662C16.0294 12.588 15.9604 13.618 15.7604 14.63C15.3654 16.631 14.4134 18.78 13.0604 20.132C11.6944 21.498 10.0824 22.062 8.46941 21.918C6.88641 21.777 5.40842 20.964 4.22242 19.778C3.03642 18.593 2.22442 17.115 2.08242 15.531C1.93842 13.918 2.50242 12.306 3.86842 10.94C5.22142 9.58699 7.37041 8.63599 9.37041 8.23999C10.3834 8.03999 11.4124 7.97099 12.3394 8.08799L12.3734 8.09199ZM17.9484 7.11299C17.7223 6.84009 17.3971 6.66817 17.0442 6.63507C16.6914 6.60197 16.3398 6.7104 16.0669 6.93649C15.794 7.16259 15.6221 7.48784 15.589 7.84069C15.5559 8.19354 15.6643 8.54508 15.8904 8.81799L15.1534 9.55399C14.9571 9.28204 14.7184 9.04335 14.4464 8.84699L15.1824 8.11099C15.3699 7.92347 15.4752 7.66916 15.4752 7.40399C15.4752 7.13883 15.3699 6.88452 15.1824 6.69699C15.0642 6.57883 14.9775 6.43292 14.9302 6.27262C14.883 6.11231 14.8766 5.9427 14.9118 5.77931C14.947 5.61592 15.0226 5.46396 15.1316 5.3373C15.2407 5.21065 15.3797 5.11334 15.5361 5.05429C15.6924 4.99523 15.8611 4.9763 16.0266 4.99924C16.1922 5.02217 16.3494 5.08623 16.4838 5.18557C16.6182 5.28491 16.7255 5.41635 16.7961 5.56788C16.8666 5.71941 16.898 5.88619 16.8874 6.05299C16.8786 6.19448 16.9 6.33621 16.9502 6.46879C17.0004 6.60138 17.0782 6.72178 17.1784 6.82202C17.2786 6.92226 17.399 7.00004 17.5316 7.0502C17.6642 7.10037 17.8069 7.12177 17.9484 7.11299ZM5.28342 12.353C6.27342 11.363 8.01342 10.547 9.75842 10.203C10.6184 10.033 11.4264 9.98899 12.0884 10.073C12.7654 10.157 13.1894 10.361 13.4144 10.586C13.6394 10.811 13.8434 11.236 13.9284 11.912C14.0124 12.575 13.9684 13.382 13.7984 14.242C13.4534 15.986 12.6374 17.727 11.6464 18.718C10.6704 19.695 9.63041 20.014 8.64742 19.926C7.63442 19.836 6.57242 19.3 5.63742 18.364C4.70042 17.429 4.16542 16.366 4.07441 15.354C3.98641 14.37 4.30642 13.331 5.28342 12.354V12.353Z" fill="currentColor"/>
</svg>
