<svg width="24" height="24" viewBox="0 0 24 24" fill="none" xmlns="http://www.w3.org/2000/svg">
<path fill-rule="evenodd" clip-rule="evenodd" d="M12 2C12.2652 2 12.5196 2.10536 12.7071 2.29289C12.8947 2.48043 13 2.73478 13 3V4.522C13.5309 4.25617 14.1391 4.18791 14.7158 4.32942C15.2924 4.47093 15.7999 4.81298 16.1475 5.29439C16.495 5.7758 16.66 6.36516 16.6128 6.95704C16.5656 7.54892 16.3094 8.10472 15.89 8.525L15.535 8.879L16.242 9.586L16.596 9.232C16.9457 8.88243 17.3911 8.6444 17.8761 8.54799C18.361 8.45158 18.8636 8.50113 19.3204 8.69036C19.7772 8.8796 20.1676 9.20003 20.4423 9.61114C20.7169 10.0223 20.8635 10.5056 20.8635 11C20.8635 11.4944 20.7169 11.9777 20.4423 12.3889C20.1676 12.8 19.7772 13.1204 19.3204 13.3096C18.8636 13.4989 18.361 13.5484 17.8761 13.452C17.3911 13.3556 16.9457 13.1176 16.596 12.768L16.242 12.414L15.535 13.121L15.889 13.475C16.2006 13.7865 16.4243 14.1748 16.5376 14.6006C16.6508 15.0264 16.6495 15.4745 16.5337 15.8997C16.418 16.3248 16.192 16.7118 15.8786 17.0214C15.5652 17.3311 15.1755 17.5524 14.749 17.663C14.6772 17.7437 14.5928 17.8123 14.499 17.866V21C14.499 21.2652 14.3937 21.5196 14.2061 21.7071C14.0186 21.8946 13.7642 22 13.499 22C13.2338 22 12.9794 21.8946 12.7919 21.7071C12.6044 21.5196 12.499 21.2652 12.499 21V18H11.499V21C11.499 21.2652 11.3937 21.5196 11.2061 21.7071C11.0186 21.8946 10.7642 22 10.499 22C10.2338 22 9.97944 21.8946 9.7919 21.7071C9.60437 21.5196 9.49901 21.2652 9.49901 21V17.866C9.40601 17.812 9.32228 17.7435 9.25101 17.663C8.82453 17.5524 8.43484 17.3311 8.12143 17.0214C7.80801 16.7118 7.582 16.3248 7.46628 15.8997C7.35056 15.4745 7.34925 15.0264 7.46246 14.6006C7.57568 14.1748 7.79942 13.7865 8.11101 13.475L8.46401 13.121L7.75701 12.414L7.40401 12.768C7.05435 13.1176 6.60889 13.3556 6.12396 13.452C5.63902 13.5484 5.13639 13.4989 4.67961 13.3096C4.22284 13.1204 3.83243 12.8 3.55775 12.3889C3.28308 11.9777 3.13647 11.4944 3.13647 11C3.13647 10.5056 3.28308 10.0223 3.55775 9.61114C3.83243 9.20003 4.22284 8.8796 4.67961 8.69036C5.13639 8.50113 5.63902 8.45158 6.12396 8.54799C6.60889 8.6444 7.05435 8.88243 7.40401 9.232L7.75701 9.586L8.46401 8.879L8.11101 8.525C7.69043 8.10515 7.43316 7.54922 7.38534 6.95688C7.33752 6.36453 7.50226 5.77453 7.85004 5.29265C8.19782 4.81077 8.70588 4.46853 9.28312 4.32731C9.86037 4.18608 10.469 4.25511 11 4.522V3C11 2.73478 11.1054 2.48043 11.2929 2.29289C11.4804 2.10536 11.7348 2 12 2ZM10.586 6.757L10.232 6.404C10.1377 6.31292 10.0114 6.26252 9.88031 6.26366C9.74921 6.2648 9.6238 6.31739 9.5311 6.41009C9.4384 6.5028 9.38581 6.6282 9.38467 6.7593C9.38353 6.8904 9.43393 7.0167 9.52501 7.111L9.87901 7.465L10.586 6.757ZM11.293 8.879L12 8.172L12.707 8.879L12 9.586L11.293 8.879ZM9.87901 10.293L9.17201 11L9.87901 11.707L10.586 11L9.87901 10.293ZM11.999 12.414L11.293 13.121L12 13.828L12.707 13.121L11.999 12.414ZM14.121 11.707L14.828 11L14.121 10.293L13.414 11L14.121 11.707ZM14.121 14.536L13.414 15.243L13.768 15.596C13.8141 15.6438 13.8693 15.6818 13.9303 15.7081C13.9913 15.7343 14.0569 15.748 14.1233 15.7486C14.1897 15.7492 14.2555 15.7366 14.317 15.7114C14.3784 15.6863 14.4343 15.6491 14.4812 15.6022C14.5282 15.5553 14.5653 15.4994 14.5904 15.438C14.6156 15.3765 14.6282 15.3107 14.6276 15.2443C14.6271 15.1779 14.6133 15.1123 14.5871 15.0513C14.5609 14.9903 14.5228 14.9351 14.475 14.889L14.121 14.536ZM9.87901 14.536L9.52501 14.889C9.47725 14.9351 9.43916 14.9903 9.41296 15.0513C9.38675 15.1123 9.37296 15.1779 9.37238 15.2443C9.37181 15.3107 9.38446 15.3765 9.4096 15.438C9.43474 15.4994 9.47186 15.5553 9.51881 15.6022C9.56576 15.6491 9.62158 15.6863 9.68303 15.7114C9.74448 15.7366 9.81032 15.7492 9.87671 15.7486C9.9431 15.748 10.0087 15.7343 10.0697 15.7081C10.1307 15.6818 10.1859 15.6438 10.232 15.596L10.586 15.243L9.87901 14.536ZM14.121 7.465L13.414 6.757L13.768 6.404C13.8141 6.35624 13.8693 6.31815 13.9303 6.29195C13.9913 6.26574 14.0569 6.25195 14.1233 6.25137C14.1897 6.2508 14.2555 6.26345 14.317 6.28859C14.3784 6.31373 14.4343 6.35086 14.4812 6.3978C14.5282 6.44475 14.5653 6.50058 14.5904 6.56202C14.6156 6.62347 14.6282 6.68931 14.6276 6.7557C14.6271 6.82209 14.6133 6.8877 14.5871 6.9487C14.5609 7.0097 14.5228 7.06488 14.475 7.111L14.121 7.465ZM6.34301 11L5.99001 10.646C5.92003 10.5762 5.83094 10.5287 5.73398 10.5095C5.63703 10.4903 5.53656 10.5003 5.44527 10.5382C5.35398 10.5761 5.27596 10.6401 5.22108 10.7223C5.16619 10.8045 5.1369 10.9012 5.1369 11C5.1369 11.0988 5.16619 11.1955 5.22108 11.2777C5.27596 11.3599 5.35398 11.4239 5.44527 11.4618C5.53656 11.4997 5.63703 11.5097 5.73398 11.4905C5.83094 11.4713 5.92003 11.4238 5.99001 11.354L6.34301 11ZM17.657 11L18.01 11.354C18.0799 11.4239 18.169 11.4716 18.266 11.4909C18.363 11.5102 18.4636 11.5003 18.5549 11.4625C18.6463 11.4246 18.7244 11.3605 18.7793 11.2783C18.8343 11.1961 18.8636 11.0994 18.8636 11.0005C18.8636 10.9016 18.8343 10.8049 18.7793 10.7227C18.7244 10.6405 18.6463 10.5764 18.5549 10.5385C18.4636 10.5007 18.363 10.4908 18.266 10.5101C18.169 10.5294 18.0799 10.5771 18.01 10.647L17.657 11Z" fill="currentColor"/>
</svg>
