<svg width="24" height="24" viewBox="0 0 24 24" fill="none" xmlns="http://www.w3.org/2000/svg">
<path fill-rule="evenodd" clip-rule="evenodd" d="M15 2C15.2652 2 15.5196 2.10536 15.7071 2.29289C15.8946 2.48043 16 2.73478 16 3V4H17C17.7956 4 18.5587 4.31607 19.1213 4.87868C19.6839 5.44129 20 6.20435 20 7V8H21C21.2652 8 21.5196 8.10536 21.7071 8.29289C21.8946 8.48043 22 8.73478 22 9C22 9.26522 21.8946 9.51957 21.7071 9.70711C21.5196 9.89464 21.2652 10 21 10H20V14H21C21.2652 14 21.5196 14.1054 21.7071 14.2929C21.8946 14.4804 22 14.7348 22 15C22 15.2652 21.8946 15.5196 21.7071 15.7071C21.5196 15.8946 21.2652 16 21 16H20V17C20 17.7956 19.6839 18.5587 19.1213 19.1213C18.5587 19.6839 17.7956 20 17 20H16V21C16 21.2652 15.8946 21.5196 15.7071 21.7071C15.5196 21.8946 15.2652 22 15 22C14.7348 22 14.4804 21.8946 14.2929 21.7071C14.1054 21.5196 14 21.2652 14 21V20H10V21C10 21.2652 9.89464 21.5196 9.70711 21.7071C9.51957 21.8946 9.26522 22 9 22C8.73478 22 8.48043 21.8946 8.29289 21.7071C8.10536 21.5196 8 21.2652 8 21V20H7C6.20435 20 5.44129 19.6839 4.87868 19.1213C4.31607 18.5587 4 17.7956 4 17V16H3C2.73478 16 2.48043 15.8946 2.29289 15.7071C2.10536 15.5196 2 15.2652 2 15C2 14.7348 2.10536 14.4804 2.29289 14.2929C2.48043 14.1054 2.73478 14 3 14H4V10H3C2.73478 10 2.48043 9.89464 2.29289 9.70711C2.10536 9.51957 2 9.26522 2 9C2 8.73478 2.10536 8.48043 2.29289 8.29289C2.48043 8.10536 2.73478 8 3 8H4V7C4 6.20435 4.31607 5.44129 4.87868 4.87868C5.44129 4.31607 6.20435 4 7 4H8V3C8 2.73478 8.10536 2.48043 8.29289 2.29289C8.48043 2.10536 8.73478 2 9 2C9.26522 2 9.51957 2.10536 9.70711 2.29289C9.89464 2.48043 10 2.73478 10 3V4H14V3C14 2.73478 14.1054 2.48043 14.2929 2.29289C14.4804 2.10536 14.7348 2 15 2ZM17 6H7C6.73478 6 6.48043 6.10536 6.29289 6.29289C6.10536 6.48043 6 6.73478 6 7V17C6 17.2652 6.10536 17.5196 6.29289 17.7071C6.48043 17.8946 6.73478 18 7 18H17C17.2652 18 17.5196 17.8946 17.7071 17.7071C17.8946 17.5196 18 17.2652 18 17V7C18 6.73478 17.8946 6.48043 17.7071 6.29289C17.5196 6.10536 17.2652 6 17 6ZM14 8C14.5046 7.99984 14.9906 8.19041 15.3605 8.5335C15.7305 8.87659 15.9572 9.34685 15.995 9.85L16 10V14C16.0002 14.5046 15.8096 14.9906 15.4665 15.3605C15.1234 15.7305 14.6532 15.9572 14.15 15.995L14 16H10C9.49542 16.0002 9.00943 15.8096 8.63945 15.4665C8.26947 15.1234 8.04284 14.6532 8.005 14.15L8 14V10C7.99984 9.49542 8.19041 9.00943 8.5335 8.63945C8.87659 8.26947 9.34685 8.04284 9.85 8.005L10 8H14ZM14 10H10V14H14V10Z" fill="currentColor"/>
</svg>
