<svg width="24" height="24" viewBox="0 0 24 24" fill="none" xmlns="http://www.w3.org/2000/svg">
<path fill-rule="evenodd" clip-rule="evenodd" d="M6 3C5.20435 3 4.44129 3.31607 3.87868 3.87868C3.31607 4.44129 3 5.20435 3 6V18C3 18.7956 3.31607 19.5587 3.87868 20.1213C4.44129 20.6839 5.20435 21 6 21H18C18.7956 21 19.5587 20.6839 20.1213 20.1213C20.6839 19.5587 21 18.7956 21 18V13C21 12.7348 20.8946 12.4804 20.7071 12.2929C20.5196 12.1054 20.2652 12 20 12C19.7348 12 19.4804 12.1054 19.2929 12.2929C19.1054 12.4804 19 12.7348 19 13V18C19 18.2652 18.8946 18.5196 18.7071 18.7071C18.5196 18.8946 18.2652 19 18 19H6C5.73478 19 5.48043 18.8946 5.29289 18.7071C5.10536 18.5196 5 18.2652 5 18V6C5 5.73478 5.10536 5.48043 5.29289 5.29289C5.48043 5.10536 5.73478 5 6 5H14C14.2652 5 14.5196 4.89464 14.7071 4.70711C14.8946 4.51957 15 4.26522 15 4C15 3.73478 14.8946 3.48043 14.7071 3.29289C14.5196 3.10536 14.2652 3 14 3H6ZM21.358 6.045C21.5884 5.91391 21.7573 5.6967 21.8276 5.44112C21.8979 5.18554 21.8639 4.9125 21.733 4.682C21.6 4.45333 21.3827 4.28595 21.1276 4.21583C20.8726 4.1457 20.6002 4.17844 20.369 4.307C20.016 4.507 19.675 4.731 19.339 4.957C18.4872 5.53049 17.6651 6.14695 16.876 6.804C15.234 8.17 13.262 10.094 11.637 12.522C11.133 11.8557 10.5463 11.2563 9.891 10.738C9.464 10.405 8.989 10.078 8.476 9.892C8.22696 9.80063 7.95083 9.81194 7.71012 9.92343C7.46942 10.0349 7.28287 10.2375 7.1915 10.4865C7.10013 10.7355 7.11144 11.0107 7.22293 11.2514C7.33442 11.4921 7.53696 11.6786 7.786 11.77C7.811 11.78 8.156 11.92 8.662 12.315C9.24 12.765 10.038 13.554 10.808 14.872C10.8966 15.0237 11.0236 15.1495 11.1762 15.2365C11.3288 15.3236 11.5017 15.3689 11.6774 15.3678C11.8531 15.3668 12.0254 15.3195 12.177 15.2307C12.3286 15.1419 12.4542 15.0148 12.541 14.862C14.125 12.071 16.328 9.862 18.155 8.342C19.065 7.585 19.875 7.006 20.453 6.618C20.748 6.419 21.048 6.224 21.357 6.046L21.358 6.045Z" fill="currentColor"/>
</svg>
