<svg width="24" height="24" viewBox="0 0 24 24" fill="none" xmlns="http://www.w3.org/2000/svg">
<path fill-rule="evenodd" clip-rule="evenodd" d="M12.6 2C13.2081 2.0001 13.7934 2.231 14.2378 2.64605C14.6822 3.0611 14.9524 3.62936 14.994 4.236L15 4.4V5.586C15 5.727 14.985 5.866 14.956 6.003L15.049 6H18.793C19.313 6 19.678 6.275 20.017 6.603L20.354 6.939C20.6166 7.20168 20.7724 7.55244 20.7912 7.92338C20.8101 8.29432 20.6906 8.65906 20.456 8.947L20.354 9.061L18.854 10.561C18.6088 10.8062 18.2861 10.9589 17.941 10.993L17.793 11H16V18C16.1901 17.9999 16.3764 18.0541 16.5368 18.1561C16.6973 18.2581 16.8254 18.4038 16.906 18.576L16.949 18.684L17.72 21H18C18.2549 21.0003 18.5 21.0979 18.6854 21.2728C18.8707 21.4478 18.9822 21.687 18.9972 21.9414C19.0121 22.1958 18.9293 22.4464 18.7657 22.6418C18.6021 22.8373 18.3701 22.9629 18.117 22.993L18 23H6.99999C6.74511 22.9997 6.49996 22.9021 6.31462 22.7272C6.12929 22.5522 6.01776 22.313 6.00282 22.0586C5.98788 21.8042 6.07067 21.5536 6.23426 21.3582C6.39785 21.1627 6.6299 21.0371 6.88299 21.007L6.99999 21H7.27999L8.05099 18.684C8.11112 18.5036 8.22142 18.3442 8.36896 18.2243C8.51649 18.1044 8.69515 18.029 8.88399 18.007L8.99999 18V11H7.20699C6.86057 10.9998 6.5249 10.8796 6.25699 10.66L6.14699 10.56L4.64699 9.06C4.36609 8.77875 4.20831 8.3975 4.20831 8C4.20831 7.6025 4.36609 7.22125 4.64699 6.94L4.98199 6.603C5.28399 6.312 5.60599 6.062 6.03899 6.01L6.20699 6H9.99699L10.044 6.003C10.0242 5.91171 10.0109 5.81915 10.004 5.726L9.99999 5.586V4.4C10.0001 3.79194 10.231 3.20658 10.646 2.7622C11.0611 2.31782 11.6294 2.04755 12.236 2.006L12.4 2H12.6ZM15.28 20H9.71999L9.38699 21H15.613L15.28 20ZM11 14.766V18H14V16.566L11 14.766ZM9.89999 8H6.41499L7.41499 9H9.99999C10.2652 9 10.5196 9.10536 10.7071 9.29289C10.8946 9.48043 11 9.73478 11 10V12.434L14 14.234V10C14 9.73478 14.1054 9.48043 14.2929 9.29289C14.4804 9.10536 14.7348 9 15 9H17.586L18.586 8H15.099L12.794 8.461C12.5999 8.49979 12.4001 8.49979 12.206 8.461L9.89999 8ZM12.6 4H12.4C12.3078 3.99998 12.2184 4.03182 12.147 4.09014C12.0755 4.14845 12.0264 4.22965 12.008 4.32L12 4.4V5.586L12.5 6.086L13 5.586V4.4C13 4.30779 12.9682 4.2184 12.9099 4.14697C12.8515 4.07553 12.7703 4.02644 12.68 4.008L12.6 4Z" fill="currentColor"/>
</svg>
