<svg width="24" height="24" viewBox="0 0 24 24" fill="none" xmlns="http://www.w3.org/2000/svg">
<path fill-rule="evenodd" clip-rule="evenodd" d="M12 2C17.523 2 22 6.477 22 12C22 17.523 17.523 22 12 22C6.477 22 2 17.523 2 12C2 6.477 6.477 2 12 2ZM4.546 9.09C4.1144 10.1955 3.93411 11.3832 4.01819 12.567C4.10228 13.7508 4.44863 14.9011 5.03216 15.9346C5.61569 16.968 6.42178 17.8587 7.39204 18.5421C8.3623 19.2255 9.47242 19.6846 10.642 19.886L10.89 19.924L12.598 16.964C11.6479 17.0788 10.6849 16.9183 9.82335 16.5018C8.96182 16.0852 8.23802 15.43 7.738 14.614L4.546 9.09ZM19.419 9H16C16.628 9.836 17 10.874 17 12C17 12.942 16.74 13.823 16.287 14.575L13.207 19.91C14.4011 19.7279 15.5384 19.2778 16.5337 18.5935C17.5291 17.9092 18.3566 17.0085 18.9542 15.9589C19.5519 14.9092 19.9042 13.7379 19.9846 12.5327C20.0651 11.3276 19.8718 10.1198 19.419 9ZM12 9C11.2044 9 10.4413 9.31607 9.87868 9.87868C9.31607 10.4413 9 11.2044 9 12C9 12.7956 9.31607 13.5587 9.87868 14.1213C10.4413 14.6839 11.2044 15 12 15C12.7956 15 13.5587 14.6839 14.1213 14.1213C14.6839 13.5587 15 12.7956 15 12C15 11.2044 14.6839 10.4413 14.1213 9.87868C13.5587 9.31607 12.7956 9 12 9ZM12 4C10.8302 3.99878 9.67437 4.25469 8.61438 4.7496C7.5544 5.24451 6.61614 5.96634 5.866 6.864L5.694 7.077L7.4 10.034C7.76954 9.17072 8.37463 8.42889 9.14603 7.8934C9.91743 7.35791 10.824 7.05038 11.762 7.006L12 7H18.245C17.4962 6.06303 16.546 5.30678 15.4648 4.78741C14.3837 4.26805 13.1994 3.99892 12 4Z" fill="currentColor"/>
</svg>
