<svg width="24" height="24" viewBox="0 0 24 24" fill="none" xmlns="http://www.w3.org/2000/svg">
<path fill-rule="evenodd" clip-rule="evenodd" d="M12 2C12.2449 2.00003 12.4813 2.08996 12.6644 2.25272C12.8474 2.41547 12.9643 2.63975 12.993 2.883L13 3V4H14C14.2549 4.00028 14.5 4.09788 14.6854 4.27285C14.8707 4.44782 14.9822 4.68695 14.9972 4.94139C15.0121 5.19584 14.9293 5.44638 14.7657 5.64183C14.6021 5.83729 14.3701 5.9629 14.117 5.993L14 6H13V7.5L16.6 10.2C16.7083 10.2813 16.799 10.3838 16.8666 10.5012C16.9342 10.6186 16.9772 10.7485 16.993 10.883L17 11V12.465L19.555 14.168C19.6744 14.2477 19.7752 14.3522 19.8506 14.4744C19.926 14.5966 19.9742 14.7335 19.992 14.876L20 15V20C20.2549 20.0003 20.5 20.0979 20.6854 20.2728C20.8707 20.4478 20.9822 20.687 20.9972 20.9414C21.0121 21.1958 20.9293 21.4464 20.7657 21.6418C20.6021 21.8373 20.3701 21.9629 20.117 21.993L20 22H3.99999C3.74511 21.9997 3.49996 21.9021 3.31462 21.7272C3.12929 21.5522 3.01776 21.313 3.00282 21.0586C2.98788 20.8042 3.07067 20.5536 3.23426 20.3582C3.39785 20.1627 3.62989 20.0371 3.88299 20.007L3.99999 20V15C3.99992 14.8564 4.03078 14.7144 4.09049 14.5838C4.1502 14.4532 4.23734 14.3369 4.34599 14.243L4.44599 14.168L6.99999 12.465V11C6.99996 10.8646 7.02743 10.7306 7.08071 10.6062C7.134 10.4817 7.212 10.3694 7.30999 10.276L7.39999 10.2L11 7.5V6H9.99999C9.74511 5.99972 9.49996 5.90212 9.31462 5.72715C9.12929 5.55218 9.01776 5.31305 9.00282 5.05861C8.98788 4.80416 9.07066 4.55362 9.23426 4.35817C9.39785 4.16271 9.6299 4.0371 9.88299 4.007L9.99999 4H11V3C11 2.73478 11.1053 2.48043 11.2929 2.29289C11.4804 2.10536 11.7348 2 12 2ZM12 9.25L8.99999 11.5V13C9.00006 13.1436 8.9692 13.2856 8.90949 13.4162C8.84979 13.5468 8.76264 13.6631 8.65399 13.757L8.55399 13.832L5.99999 15.535V20H8.99999V17C8.99924 16.2191 9.30301 15.4687 9.84676 14.9082C10.3905 14.3477 11.1314 14.0213 11.912 13.9984C12.6925 13.9755 13.4513 14.2578 14.027 14.7855C14.6027 15.3131 14.9499 16.0444 14.995 16.824L15 17V20H18V15.535L15.445 13.832C15.3256 13.7523 15.2248 13.6478 15.1494 13.5256C15.074 13.4034 15.0257 13.2665 15.008 13.124L15 13V11.5L12 9.25ZM12 16C11.7551 16 11.5187 16.09 11.3356 16.2527C11.1526 16.4155 11.0356 16.6397 11.007 16.883L11 17V20H13V17L12.993 16.883C12.9643 16.6397 12.8474 16.4155 12.6644 16.2527C12.4813 16.09 12.2449 16 12 16Z" fill="currentColor"/>
</svg>
