<svg width="24" height="24" viewBox="0 0 24 24" fill="none" xmlns="http://www.w3.org/2000/svg">
<path fill-rule="evenodd" clip-rule="evenodd" d="M15.586 2.75701C15.9611 2.38206 16.4697 2.17143 17 2.17143C17.5303 2.17143 18.0389 2.38206 18.414 2.75701L21.243 5.58601C21.6179 5.96106 21.8286 6.46968 21.8286 7.00001C21.8286 7.53033 21.6179 8.03895 21.243 8.41401L18.414 11.243C18.0389 11.6179 17.5303 11.8286 17 11.8286C16.4697 11.8286 15.9611 11.6179 15.586 11.243L12.757 8.41401C12.3821 8.03895 12.1714 7.53033 12.1714 7.00001C12.1714 6.46968 12.3821 5.96106 12.757 5.58601L15.586 2.75701ZM17 4.17201L14.172 7.00001L17 9.82801L19.828 7.00001L17 4.17201ZM9 3.00001C9.53043 3.00001 10.0391 3.21072 10.4142 3.58579C10.7893 3.96086 11 4.46957 11 5.00001V9.00001C11 9.53044 10.7893 10.0391 10.4142 10.4142C10.0391 10.7893 9.53043 11 9 11H5C4.46957 11 3.96086 10.7893 3.58579 10.4142C3.21071 10.0391 3 9.53044 3 9.00001V5.00001C3 4.46957 3.21071 3.96086 3.58579 3.58579C3.96086 3.21072 4.46957 3.00001 5 3.00001H9ZM9 5.00001H5V9.00001H9V5.00001ZM21 15C21 14.4696 20.7893 13.9609 20.4142 13.5858C20.0391 13.2107 19.5304 13 19 13H15C14.4696 13 13.9609 13.2107 13.5858 13.5858C13.2107 13.9609 13 14.4696 13 15V19C13 19.5304 13.2107 20.0391 13.5858 20.4142C13.9609 20.7893 14.4696 21 15 21H19C19.5304 21 20.0391 20.7893 20.4142 20.4142C20.7893 20.0391 21 19.5304 21 19V15ZM19 15V19H15V15H19ZM9 13C9.53043 13 10.0391 13.2107 10.4142 13.5858C10.7893 13.9609 11 14.4696 11 15V19C11 19.5304 10.7893 20.0391 10.4142 20.4142C10.0391 20.7893 9.53043 21 9 21H5C4.46957 21 3.96086 20.7893 3.58579 20.4142C3.21071 20.0391 3 19.5304 3 19V15C3 14.4696 3.21071 13.9609 3.58579 13.5858C3.96086 13.2107 4.46957 13 5 13H9ZM9 15H5V19H9V15Z" fill="currentColor"/>
</svg>
