<svg width="24" height="24" viewBox="0 0 24 24" fill="none" xmlns="http://www.w3.org/2000/svg">
<path fill-rule="evenodd" clip-rule="evenodd" d="M7 3C5.93913 3 4.92172 3.42143 4.17157 4.17157C3.42143 4.92172 3 5.93913 3 7C3 8.06087 3.42143 9.07828 4.17157 9.82843C4.92172 10.5786 5.93913 11 7 11C8.06087 11 9.07828 10.5786 9.82843 9.82843C10.5786 9.07828 11 8.06087 11 7C11 5.93913 10.5786 4.92172 9.82843 4.17157C9.07828 3.42143 8.06087 3 7 3ZM5 7C5 6.46957 5.21071 5.96086 5.58579 5.58579C5.96086 5.21071 6.46957 5 7 5C7.53043 5 8.03914 5.21071 8.41421 5.58579C8.78929 5.96086 9 6.46957 9 7C9 7.53043 8.78929 8.03914 8.41421 8.41421C8.03914 8.78929 7.53043 9 7 9C6.46957 9 5.96086 8.78929 5.58579 8.41421C5.21071 8.03914 5 7.53043 5 7ZM7 13C5.93913 13 4.92172 13.4214 4.17157 14.1716C3.42143 14.9217 3 15.9391 3 17C3 18.0609 3.42143 19.0783 4.17157 19.8284C4.92172 20.5786 5.93913 21 7 21C8.06087 21 9.07828 20.5786 9.82843 19.8284C10.5786 19.0783 11 18.0609 11 17C11 15.9391 10.5786 14.9217 9.82843 14.1716C9.07828 13.4214 8.06087 13 7 13ZM5 17C5 16.4696 5.21071 15.9609 5.58579 15.5858C5.96086 15.2107 6.46957 15 7 15C7.53043 15 8.03914 15.2107 8.41421 15.5858C8.78929 15.9609 9 16.4696 9 17C9 17.5304 8.78929 18.0391 8.41421 18.4142C8.03914 18.7893 7.53043 19 7 19C6.46957 19 5.96086 18.7893 5.58579 18.4142C5.21071 18.0391 5 17.5304 5 17ZM13 7C13 5.93913 13.4214 4.92172 14.1716 4.17157C14.9217 3.42143 15.9391 3 17 3C18.0609 3 19.0783 3.42143 19.8284 4.17157C20.5786 4.92172 21 5.93913 21 7C21 8.06087 20.5786 9.07828 19.8284 9.82843C19.0783 10.5786 18.0609 11 17 11C15.9391 11 14.9217 10.5786 14.1716 9.82843C13.4214 9.07828 13 8.06087 13 7ZM17 5C16.4696 5 15.9609 5.21071 15.5858 5.58579C15.2107 5.96086 15 6.46957 15 7C15 7.53043 15.2107 8.03914 15.5858 8.41421C15.9609 8.78929 16.4696 9 17 9C17.5304 9 18.0391 8.78929 18.4142 8.41421C18.7893 8.03914 19 7.53043 19 7C19 6.46957 18.7893 5.96086 18.4142 5.58579C18.0391 5.21071 17.5304 5 17 5ZM17 13C15.9391 13 14.9217 13.4214 14.1716 14.1716C13.4214 14.9217 13 15.9391 13 17C13 18.0609 13.4214 19.0783 14.1716 19.8284C14.9217 20.5786 15.9391 21 17 21C18.0609 21 19.0783 20.5786 19.8284 19.8284C20.5786 19.0783 21 18.0609 21 17C21 15.9391 20.5786 14.9217 19.8284 14.1716C19.0783 13.4214 18.0609 13 17 13ZM15 17C15 16.4696 15.2107 15.9609 15.5858 15.5858C15.9609 15.2107 16.4696 15 17 15C17.5304 15 18.0391 15.2107 18.4142 15.5858C18.7893 15.9609 19 16.4696 19 17C19 17.5304 18.7893 18.0391 18.4142 18.4142C18.0391 18.7893 17.5304 19 17 19C16.4696 19 15.9609 18.7893 15.5858 18.4142C15.2107 18.0391 15 17.5304 15 17Z" fill="currentColor"/>
</svg>
