<svg width="24" height="24" viewBox="0 0 24 24" fill="none" xmlns="http://www.w3.org/2000/svg">
<path d="M15 2C15.683 2 16.287 2.343 16.647 2.866L16.732 3H18C18.5046 2.99984 18.9906 3.19041 19.3605 3.5335C19.7305 3.87659 19.9572 4.34684 19.995 4.85L20 5V17C19.9999 18.2885 19.5025 19.5272 18.6113 20.4578C17.7202 21.3884 16.5042 21.9391 15.217 21.995L15 22H6C5.49542 22.0002 5.00943 21.8096 4.63945 21.4665C4.26947 21.1234 4.04284 20.6532 4.005 20.15L4 20V5C3.99984 4.49542 4.19041 4.00943 4.5335 3.63945C4.87659 3.26947 5.34684 3.04284 5.85 3.005L6 3H7.268C7.42919 2.72075 7.6555 2.48461 7.92765 2.31171C8.1998 2.13881 8.50973 2.03427 8.831 2.007L9 2H15ZM7 5H6V20H15C15.7956 20 16.5587 19.6839 17.1213 19.1213C17.6839 18.5587 18 17.7956 18 17V5H17C17 5.53043 16.7893 6.03914 16.4142 6.41421C16.0391 6.78929 15.5304 7 15 7H9C8.46957 7 7.96086 6.78929 7.58579 6.41421C7.21071 6.03914 7 5.53043 7 5ZM12 14C12.2549 14.0003 12.5 14.0979 12.6854 14.2728C12.8707 14.4478 12.9822 14.687 12.9972 14.9414C13.0121 15.1958 12.9293 15.4464 12.7657 15.6418C12.6021 15.8373 12.3701 15.9629 12.117 15.993L12 16H9C8.74512 15.9997 8.49997 15.9021 8.31463 15.7272C8.1293 15.5522 8.01776 15.313 8.00283 15.0586C7.98789 14.8042 8.07067 14.5536 8.23426 14.3582C8.39785 14.1627 8.6299 14.0371 8.883 14.007L9 14H12ZM15 10C15.2652 10 15.5196 10.1054 15.7071 10.2929C15.8946 10.4804 16 10.7348 16 11C16 11.2652 15.8946 11.5196 15.7071 11.7071C15.5196 11.8946 15.2652 12 15 12H9C8.73478 12 8.48043 11.8946 8.29289 11.7071C8.10536 11.5196 8 11.2652 8 11C8 10.7348 8.10536 10.4804 8.29289 10.2929C8.48043 10.1054 8.73478 10 9 10H15ZM15 4H9V5H15V4Z" fill="currentColor"/>
</svg>
