<svg width="24" height="24" viewBox="0 0 24 24" fill="none" xmlns="http://www.w3.org/2000/svg">
<path fill-rule="evenodd" clip-rule="evenodd" d="M5 11C5 9.14348 5.7375 7.36301 7.05025 6.05025C8.36301 4.7375 10.1435 4 12 4C13.8565 4 15.637 4.7375 16.9497 6.05025C18.2625 7.36301 19 9.14348 19 11C19 13.322 17.728 15.36 16.129 16.996C14.576 18.583 12.822 19.679 12 20.148C11.178 19.678 9.424 18.583 7.871 16.996C6.272 15.361 5 13.322 5 11ZM12 2C9.61305 2 7.32387 2.94821 5.63604 4.63604C3.94821 6.32387 3 8.61305 3 11C3 14.074 4.676 16.59 6.442 18.395C8.218 20.21 10.2 21.428 11.072 21.921C11.652 22.248 12.348 22.248 12.927 21.921C13.8 21.428 15.782 20.211 17.558 18.395C19.324 16.589 21 14.074 21 11C21 8.61305 20.0518 6.32387 18.364 4.63604C16.6761 2.94821 14.3869 2 12 2ZM13 7C13 6.73478 12.8946 6.48043 12.7071 6.29289C12.5196 6.10536 12.2652 6 12 6C11.7348 6 11.4804 6.10536 11.2929 6.29289C11.1054 6.48043 11 6.73478 11 7V12C11.0001 12.2652 11.1055 12.5195 11.293 12.707L13.793 15.207C13.9816 15.3892 14.2342 15.49 14.4964 15.4877C14.7586 15.4854 15.0094 15.3802 15.1948 15.1948C15.3802 15.0094 15.4854 14.7586 15.4877 14.4964C15.49 14.2342 15.3892 13.9816 15.207 13.793L13 11.586V7Z" fill="currentColor"/>
</svg>
