<svg width="24" height="24" viewBox="0 0 24 24" fill="none" xmlns="http://www.w3.org/2000/svg">
<path fill-rule="evenodd" clip-rule="evenodd" d="M5 11C5 9.14348 5.7375 7.36301 7.05025 6.05025C8.36301 4.7375 10.1435 4 12 4C13.8565 4 15.637 4.7375 16.9497 6.05025C18.2625 7.36301 19 9.14348 19 11C19 13.322 17.728 15.36 16.129 16.996C14.576 18.583 12.822 19.679 12 20.148C11.178 19.678 9.424 18.583 7.871 16.996C6.272 15.361 5 13.322 5 11ZM12 2C9.61305 2 7.32387 2.94821 5.63604 4.63604C3.94821 6.32387 3 8.61305 3 11C3 14.074 4.676 16.59 6.442 18.395C8.218 20.21 10.2 21.428 11.072 21.921C11.652 22.248 12.348 22.248 12.927 21.921C13.8 21.428 15.782 20.211 17.558 18.395C19.324 16.589 21 14.074 21 11C21 8.61305 20.0518 6.32387 18.364 4.63604C16.6761 2.94821 14.3869 2 12 2ZM16.494 9.397C16.5868 9.30409 16.6605 9.1938 16.7107 9.07243C16.7609 8.95107 16.7867 8.821 16.7867 8.68965C16.7867 8.5583 16.7607 8.42824 16.7104 8.30691C16.6601 8.18558 16.5864 8.07534 16.4935 7.9825C16.4006 7.88966 16.2903 7.81602 16.1689 7.7658C16.0476 7.71558 15.9175 7.68975 15.7861 7.6898C15.6548 7.68984 15.5247 7.71576 15.4034 7.76607C15.2821 7.81638 15.1718 7.89009 15.079 7.983L10.835 12.227L9.067 10.459C8.87936 10.2715 8.62492 10.1662 8.35965 10.1663C8.09438 10.1664 7.84001 10.2719 7.6525 10.4595C7.46499 10.6471 7.3597 10.9016 7.3598 11.1669C7.35989 11.4321 7.46536 11.6865 7.653 11.874L10.057 14.278C10.1592 14.3802 10.2804 14.4613 10.4139 14.5166C10.5474 14.5719 10.6905 14.6004 10.835 14.6004C10.9795 14.6004 11.1226 14.5719 11.2561 14.5166C11.3896 14.4613 11.5108 14.3802 11.613 14.278L16.494 9.397Z" fill="currentColor"/>
</svg>
