<svg width="24" height="24" viewBox="0 0 24 24" fill="none" xmlns="http://www.w3.org/2000/svg">
<path fill-rule="evenodd" clip-rule="evenodd" d="M3 5C3 4.46957 3.21071 3.96086 3.58579 3.58579C3.96086 3.21071 4.46957 3 5 3H19C19.5304 3 20.0391 3.21071 20.4142 3.58579C20.7893 3.96086 21 4.46957 21 5V19C21 19.5304 20.7893 20.0391 20.4142 20.4142C20.0391 20.7893 19.5304 21 19 21H5C4.46957 21 3.96086 20.7893 3.58579 20.4142C3.21071 20.0391 3 19.5304 3 19V5ZM19 5H5V19H19V5ZM8.464 8.464C8.55687 8.37102 8.66716 8.29727 8.78856 8.24694C8.90996 8.19662 9.04008 8.17071 9.1715 8.17071C9.30292 8.17071 9.43304 8.19662 9.55444 8.24694C9.67584 8.29727 9.78613 8.37102 9.879 8.464L12 10.586L14.121 8.464C14.2139 8.37109 14.3242 8.29739 14.4456 8.24711C14.567 8.19682 14.6971 8.17094 14.8285 8.17094C14.9599 8.17094 15.09 8.19682 15.2114 8.24711C15.3328 8.29739 15.4431 8.37109 15.536 8.464C15.6289 8.55691 15.7026 8.66721 15.7529 8.7886C15.8032 8.91 15.8291 9.04011 15.8291 9.1715C15.8291 9.3029 15.8032 9.433 15.7529 9.5544C15.7026 9.67579 15.6289 9.78609 15.536 9.879L13.414 12L15.536 14.121C15.7236 14.3086 15.8291 14.5631 15.8291 14.8285C15.8291 15.0939 15.7236 15.3484 15.536 15.536C15.3484 15.7236 15.0939 15.8291 14.8285 15.8291C14.5631 15.8291 14.3086 15.7236 14.121 15.536L12 13.414L9.879 15.536C9.78609 15.6289 9.67579 15.7026 9.5544 15.7529C9.433 15.8032 9.3029 15.8291 9.1715 15.8291C9.04011 15.8291 8.91 15.8032 8.7886 15.7529C8.66721 15.7026 8.55691 15.6289 8.464 15.536C8.37109 15.4431 8.29739 15.3328 8.24711 15.2114C8.19682 15.09 8.17094 14.9599 8.17094 14.8285C8.17094 14.6971 8.19682 14.567 8.24711 14.4456C8.29739 14.3242 8.37109 14.2139 8.464 14.121L10.586 12L8.464 9.879C8.37102 9.78613 8.29727 9.67584 8.24694 9.55444C8.19662 9.43304 8.17071 9.30292 8.17071 9.1715C8.17071 9.04008 8.19662 8.90996 8.24694 8.78856C8.29727 8.66716 8.37102 8.55687 8.464 8.464Z" fill="currentColor"/>
</svg>
