<svg width="24" height="24" viewBox="0 0 24 24" fill="none" xmlns="http://www.w3.org/2000/svg">
<path d="M11.1311 13.004C11.2579 12.783 11.4644 12.6188 11.7082 12.5449C11.952 12.471 12.2149 12.493 12.4431 12.6063C12.6713 12.7197 12.8476 12.9158 12.9361 13.1548C13.0245 13.3937 13.0184 13.6574 12.9191 13.892L12.8671 13.996L11.7221 16H13.8271C14.0102 16 14.1904 16.0457 14.3514 16.133C14.5123 16.2203 14.649 16.3463 14.7489 16.4998C14.8488 16.6532 14.9088 16.8292 14.9235 17.0117C14.9382 17.1942 14.9071 17.3775 14.8331 17.545L14.7821 17.645L12.8671 20.996C12.7402 21.217 12.5338 21.3812 12.2899 21.4551C12.0461 21.529 11.7832 21.507 11.555 21.3937C11.3268 21.2803 11.1505 21.0842 11.062 20.8452C10.9736 20.6063 10.9797 20.3426 11.0791 20.108L11.1311 20.004L12.2761 18H10.1711C9.98794 18 9.80772 17.9543 9.64675 17.867C9.48577 17.7797 9.34913 17.6537 9.24921 17.5002C9.14929 17.3468 9.08927 17.1708 9.07457 16.9883C9.05987 16.8058 9.09097 16.6225 9.16505 16.455L9.21605 16.355L11.1311 13.004ZM11.4991 2C12.8215 1.99987 14.1125 2.40298 15.1998 3.15554C16.2872 3.9081 17.1193 4.97433 17.5851 6.212C18.7819 6.54053 19.8475 7.23202 20.6351 8.19125C21.4227 9.15049 21.8935 10.3303 21.9828 11.5682C22.0721 12.8061 21.7754 14.0413 21.1336 15.1036C20.4917 16.1659 19.5364 17.0031 18.399 17.5C18.1578 17.5966 17.8884 17.5956 17.6479 17.497C17.4074 17.3984 17.2148 17.2101 17.1108 16.9719C17.0068 16.7337 16.9996 16.4644 17.0907 16.221C17.1819 15.9776 17.3642 15.7793 17.5991 15.668C18.3903 15.3231 19.0488 14.7317 19.4762 13.9818C19.9037 13.232 20.0773 12.3641 19.971 11.5075C19.8647 10.651 19.4842 9.85176 18.8865 9.22918C18.2887 8.60659 17.5056 8.194 16.6541 8.053C16.4631 8.02143 16.2852 7.93565 16.1416 7.80587C15.998 7.6761 15.8947 7.5078 15.8441 7.321C15.5511 6.22225 14.8531 5.27515 13.8903 4.67012C12.9275 4.06509 11.7713 3.84699 10.6542 4.05969C9.53717 4.27238 8.54206 4.90009 7.86897 5.81661C7.19587 6.73313 6.89472 7.87048 7.02605 9C7.05264 9.24288 6.99029 9.48716 6.85054 9.68758C6.7108 9.888 6.50314 10.031 6.26605 10.09C5.61993 10.2533 5.04652 10.6271 4.63622 11.1522C4.22591 11.6774 4.00203 12.3242 3.99985 12.9906C3.99767 13.6571 4.21732 14.3053 4.62419 14.8331C5.03106 15.361 5.60201 15.7384 6.24705 15.906C6.49653 15.9785 6.70797 16.1453 6.83662 16.3711C6.96526 16.5968 7.00101 16.8637 6.93628 17.1153C6.87156 17.367 6.71145 17.5835 6.48985 17.7191C6.26825 17.8548 6.00257 17.8988 5.74905 17.842C4.74165 17.5813 3.84062 17.013 3.17145 16.2161C2.50228 15.4192 2.0983 14.4335 2.01576 13.3962C1.93323 12.3589 2.17625 11.3217 2.71099 10.429C3.24572 9.53636 4.04554 8.83268 4.99905 8.416C5.02114 6.70669 5.7157 5.07489 6.9323 3.87401C8.1489 2.67313 9.7896 1.99986 11.4991 2Z" fill="currentColor"/>
</svg>
