<svg width="24" height="24" viewBox="0 0 24 24" fill="none" xmlns="http://www.w3.org/2000/svg">
<path fill-rule="evenodd" clip-rule="evenodd" d="M17.0024 9C18.3284 9.0004 19.6001 9.52756 20.5375 10.4655C21.4749 11.4035 22.0013 12.6754 22.0009 14.0015C22.0005 15.3276 21.4733 16.5992 20.5353 17.5366C19.5974 18.474 18.3254 19.0004 16.9994 19H9.49936C8.12367 18.9995 6.77461 18.6207 5.59979 17.9049C4.42496 17.1892 3.46963 16.1641 2.83832 14.9418C2.20701 13.7195 1.92403 12.3471 2.02037 10.9748C2.1167 9.60251 2.58862 8.28313 3.3845 7.16103C4.18037 6.03893 5.26954 5.15735 6.53284 4.61274C7.79614 4.06813 9.1849 3.88147 10.5472 4.07319C11.9094 4.26491 13.1927 4.82761 14.2566 5.69974C15.3206 6.57187 16.1241 7.71982 16.5794 9.018C16.7197 9.00615 16.8615 9.00015 17.0024 9ZM3.99936 11.5C3.99793 10.2092 4.45052 8.95907 5.27791 7.96836C6.1053 6.97764 7.25478 6.30949 8.52514 6.08086C9.79551 5.85222 11.1058 6.07767 12.2267 6.71774C13.3476 7.35781 14.2077 8.37172 14.6564 9.582C13.8275 10.0226 13.1388 10.6867 12.6684 11.499C12.5355 11.7287 12.4993 12.0017 12.5677 12.2581C12.6362 12.5145 12.8037 12.7331 13.0334 12.866C13.263 12.9989 13.5361 13.0351 13.7925 12.9666C14.0488 12.8982 14.2675 12.7307 14.4004 12.501C14.6643 12.0452 15.0433 11.6667 15.4994 11.4033C15.9554 11.1399 16.4727 11.0008 16.9994 11C17.3933 11 17.7834 11.0776 18.1474 11.2284C18.5114 11.3791 18.8421 11.6001 19.1207 11.8787C19.3993 12.1573 19.6202 12.488 19.771 12.8519C19.9218 13.2159 19.9994 13.606 19.9994 14C19.9994 14.394 19.9218 14.7841 19.771 15.148C19.6202 15.512 19.3993 15.8427 19.1207 16.1213C18.8421 16.3999 18.5114 16.6209 18.1474 16.7716C17.7834 16.9224 17.3933 17 16.9994 17H9.49936C8.04067 17 6.64172 16.4205 5.61027 15.3891C4.57882 14.3576 3.99936 12.9587 3.99936 11.5Z" fill="currentColor"/>
</svg>
