<svg width="24" height="24" viewBox="0 0 24 24" fill="none" xmlns="http://www.w3.org/2000/svg">
<path d="M14.4991 19C14.8969 19 15.2784 19.158 15.5597 19.4393C15.841 19.7206 15.9991 20.1022 15.9991 20.5C15.9991 20.8978 15.841 21.2794 15.5597 21.5607C15.2784 21.842 14.8969 22 14.4991 22C14.1012 22 13.7197 21.842 13.4384 21.5607C13.1571 21.2794 12.9991 20.8978 12.9991 20.5C12.9991 20.1022 13.1571 19.7206 13.4384 19.4393C13.7197 19.158 14.1012 19 14.4991 19ZM10.4991 17C10.8969 17 11.2784 17.158 11.5597 17.4393C11.841 17.7206 11.9991 18.1022 11.9991 18.5C11.9991 18.8978 11.841 19.2794 11.5597 19.5607C11.2784 19.842 10.8969 20 10.4991 20C10.1012 20 9.71969 19.842 9.43839 19.5607C9.15709 19.2794 8.99905 18.8978 8.99905 18.5C8.99905 18.1022 9.15709 17.7206 9.43839 17.4393C9.71969 17.158 10.1012 17 10.4991 17ZM14.4991 15C14.8969 15 15.2784 15.158 15.5597 15.4393C15.841 15.7206 15.9991 16.1022 15.9991 16.5C15.9991 16.8978 15.841 17.2794 15.5597 17.5607C15.2784 17.842 14.8969 18 14.4991 18C14.1012 18 13.7197 17.842 13.4384 17.5607C13.1571 17.2794 12.9991 16.8978 12.9991 16.5C12.9991 16.1022 13.1571 15.7206 13.4384 15.4393C13.7197 15.158 14.1012 15 14.4991 15ZM11.4991 2C12.8215 1.99987 14.1125 2.40298 15.1998 3.15554C16.2872 3.9081 17.1193 4.97433 17.5851 6.212C18.6675 6.5092 19.6449 7.104 20.4063 7.92884C21.1677 8.75368 21.6825 9.77551 21.8922 10.8783C22.102 11.981 21.9983 13.1205 21.593 14.1672C21.1876 15.214 20.4968 16.1261 19.5991 16.8C19.3869 16.9594 19.1201 17.028 18.8573 16.9907C18.5946 16.9533 18.3574 16.8132 18.198 16.601C18.0387 16.3888 17.9701 16.122 18.0074 15.8593C18.0447 15.5965 18.1849 15.3594 18.3971 15.2C19.024 14.7299 19.4991 14.0861 19.7634 13.3485C20.0278 12.6108 20.0697 11.8117 19.8839 11.0505C19.6982 10.2892 19.293 9.59924 18.7186 9.0662C18.1443 8.53315 17.426 8.1805 16.6531 8.052C16.4622 8.0205 16.2844 7.93487 16.1408 7.80529C15.9973 7.6757 15.8939 7.50761 15.8431 7.321C15.5487 6.22382 14.8504 5.27854 13.8881 4.67487C12.9258 4.07119 11.7708 3.85379 10.6549 4.06629C9.53899 4.27879 8.54473 4.90547 7.87166 5.82056C7.19859 6.73565 6.89651 7.87144 7.02605 9C7.05264 9.24288 6.99029 9.48716 6.85054 9.68758C6.7108 9.888 6.50314 10.031 6.26605 10.09C5.61993 10.2533 5.04652 10.6271 4.63622 11.1522C4.22591 11.6774 4.00203 12.3242 3.99985 12.9906C3.99767 13.6571 4.21732 14.3053 4.62419 14.8331C5.03106 15.361 5.60201 15.7384 6.24705 15.906C6.49653 15.9785 6.70797 16.1453 6.83662 16.3711C6.96526 16.5968 7.00101 16.8637 6.93628 17.1153C6.87156 17.367 6.71145 17.5835 6.48985 17.7191C6.26825 17.8548 6.00257 17.8988 5.74905 17.842C4.74165 17.5813 3.84062 17.013 3.17145 16.2161C2.50228 15.4192 2.0983 14.4335 2.01576 13.3962C1.93323 12.3589 2.17625 11.3217 2.71099 10.429C3.24572 9.53636 4.04554 8.83268 4.99905 8.416C5.02114 6.70669 5.7157 5.07489 6.9323 3.87401C8.1489 2.67313 9.7896 1.99986 11.4991 2ZM10.4991 13C10.8969 13 11.2784 13.158 11.5597 13.4393C11.841 13.7206 11.9991 14.1022 11.9991 14.5C11.9991 14.8978 11.841 15.2794 11.5597 15.5607C11.2784 15.842 10.8969 16 10.4991 16C10.1012 16 9.71969 15.842 9.43839 15.5607C9.15709 15.2794 8.99905 14.8978 8.99905 14.5C8.99905 14.1022 9.15709 13.7206 9.43839 13.4393C9.71969 13.158 10.1012 13 10.4991 13Z" fill="currentColor"/>
</svg>
