<svg width="24" height="24" viewBox="0 0 24 24" fill="none" xmlns="http://www.w3.org/2000/svg">
<path fill-rule="evenodd" clip-rule="evenodd" d="M4.99937 10.416C5.01743 8.89993 5.56491 7.43788 6.54707 6.28282C7.52923 5.12777 8.88427 4.3524 10.3777 4.09087C11.8712 3.82935 13.4091 4.09812 14.7253 4.8507C16.0415 5.60327 17.0532 6.79229 17.5854 8.212C18.9847 8.5979 20.1967 9.47782 20.997 10.6888C21.7973 11.8998 22.1317 13.3598 21.9381 14.7983C21.7446 16.2369 21.0362 17.5566 19.9443 18.513C18.8524 19.4694 17.4509 19.9977 15.9994 20H6.99937C5.85008 20.0008 4.73562 19.6055 3.84356 18.8809C2.95151 18.1563 2.33632 17.1465 2.10154 16.0214C1.86676 14.8964 2.02673 13.7248 2.55452 12.7038C3.08231 11.6829 3.9457 10.875 4.99937 10.416ZM11.4994 6C10.8662 5.99988 10.2401 6.13339 9.66198 6.39182C9.0839 6.65024 8.56688 7.02775 8.14469 7.49968C7.72251 7.9716 7.40467 8.52731 7.21196 9.13049C7.01926 9.73366 6.95601 10.3707 7.02637 11C7.05305 11.2426 6.99098 11.4867 6.85163 11.687C6.71228 11.8874 6.50509 12.0306 6.26837 12.09C5.5613 12.2712 4.94447 12.7038 4.53328 13.3069C4.12208 13.9099 3.94469 14.6421 4.03429 15.3665C4.12389 16.0909 4.47434 16.7579 5.02008 17.2426C5.56582 17.7273 6.26946 17.9965 6.99937 18H15.9994C17.0044 18.0015 17.9732 17.6246 18.713 16.9443C19.4527 16.2641 19.9093 15.3302 19.9919 14.3286C20.0744 13.3269 19.7769 12.3309 19.1585 11.5387C18.5401 10.7465 17.6461 10.2161 16.6544 10.053C16.4634 10.0214 16.2855 9.93565 16.1419 9.80587C15.9983 9.6761 15.8951 9.5078 15.8444 9.321C15.5851 8.36726 15.0192 7.52534 14.2339 6.92515C13.4487 6.32496 12.4877 5.99985 11.4994 6Z" fill="currentColor"/>
</svg>
