<svg width="24" height="24" viewBox="0 0 24 24" fill="none" xmlns="http://www.w3.org/2000/svg">
<path d="M14.5 16C14.9053 16 15.3045 16.0985 15.6632 16.287C16.0219 16.4756 16.3295 16.7485 16.5593 17.0823C16.7891 17.4161 16.9343 17.8008 16.9824 18.2032C17.0305 18.6056 16.9801 19.0137 16.8354 19.3923C16.6908 19.7709 16.4563 20.1086 16.1521 20.3764C15.8479 20.6442 15.4832 20.834 15.0893 20.9296C14.6955 21.0251 14.2843 21.0234 13.8913 20.9247C13.4982 20.826 13.135 20.6333 12.833 20.363C12.6437 20.1933 12.5261 19.9579 12.5042 19.7047C12.4822 19.4514 12.5575 19.1993 12.7148 18.9996C12.8721 18.7999 13.0996 18.6676 13.3509 18.6296C13.6023 18.5916 13.8587 18.6507 14.068 18.795L14.167 18.873C14.2274 18.927 14.3001 18.9654 14.3787 18.9851C14.4573 19.0047 14.5395 19.005 14.6182 18.9858C14.697 18.9666 14.7699 18.9286 14.8306 18.875C14.8914 18.8215 14.9383 18.7539 14.9671 18.6782C14.996 18.6025 15.0061 18.5209 14.9964 18.4405C14.9868 18.36 14.9577 18.2831 14.9117 18.2164C14.8658 18.1496 14.8043 18.0951 14.7326 18.0574C14.6608 18.0197 14.581 18 14.5 18H7C6.73478 18 6.48043 17.8946 6.29289 17.7071C6.10536 17.5196 6 17.2652 6 17C6 16.7348 6.10536 16.4804 6.29289 16.2929C6.48043 16.1054 6.73478 16 7 16H14.5ZM11.5 2C12.8224 1.99987 14.1134 2.40298 15.2008 3.15554C16.2882 3.9081 17.1203 4.97433 17.586 6.212C18.6682 6.50933 19.6454 7.10414 20.4066 7.9289C21.1678 8.75366 21.6825 9.77533 21.8922 10.8779C22.1019 11.9804 21.9983 13.1197 21.5932 14.1664C21.188 15.213 20.4975 16.1251 19.6 16.799C19.3875 16.9484 19.1253 17.0093 18.8687 16.9688C18.6121 16.9282 18.3814 16.7895 18.2254 16.5818C18.0693 16.3742 18.0002 16.114 18.0326 15.8562C18.065 15.5985 18.1964 15.3635 18.399 15.201C19.026 14.7305 19.5011 14.0862 19.7651 13.3481C20.0291 12.61 20.0704 11.8106 19.884 11.0492C19.6976 10.2878 19.2916 9.59791 18.7165 9.06524C18.1414 8.53257 17.4225 8.18059 16.649 8.053C16.4593 8.02192 16.2825 7.93682 16.14 7.80788C15.9974 7.67895 15.895 7.51164 15.845 7.326C15.5508 6.22856 14.8524 5.28301 13.89 4.67919C12.9275 4.07537 11.7723 3.85797 10.6562 4.07063C9.54006 4.28329 8.54571 4.91028 7.87274 5.82572C7.19977 6.74116 6.898 7.87728 7.028 9.006C7.05498 9.24713 6.99336 9.48984 6.85464 9.68891C6.71592 9.88798 6.50955 10.0298 6.274 10.088C5.68325 10.2354 5.15135 10.559 4.749 11.016C4.66207 11.1145 4.55658 11.1949 4.43857 11.2526C4.32056 11.3103 4.19234 11.3443 4.06123 11.3524C3.79642 11.3689 3.53591 11.2796 3.337 11.104C3.13809 10.9284 3.01707 10.681 3.00057 10.4162C2.98406 10.1514 3.07343 9.89091 3.249 9.692C3.73265 9.14409 4.33028 8.70858 5 8.416C5.02209 6.70669 5.71665 5.07489 6.93325 3.87401C8.14985 2.67313 9.79055 1.99986 11.5 2ZM11 9C11.7956 9 12.5587 9.31607 13.1213 9.87868C13.6839 10.4413 14 11.2044 14 12C14 12.7956 13.6839 13.5587 13.1213 14.1213C12.5587 14.6839 11.7956 15 11 15H3C2.73478 15 2.48043 14.8946 2.29289 14.7071C2.10536 14.5196 2 14.2652 2 14C2 13.7348 2.10536 13.4804 2.29289 13.2929C2.48043 13.1054 2.73478 13 3 13H11C11.1707 13 11.3385 12.9563 11.4875 12.8731C11.6365 12.7899 11.7618 12.67 11.8513 12.5247C11.9408 12.3794 11.9917 12.2136 11.9991 12.0431C12.0064 11.8726 11.97 11.703 11.8933 11.5505C11.8166 11.3981 11.7021 11.2678 11.5608 11.1721C11.4195 11.0764 11.2561 11.0184 11.0861 11.0037C10.916 10.989 10.7451 11.0181 10.5894 11.0882C10.4338 11.1582 10.2987 11.267 10.197 11.404L10.133 11.501C10.0001 11.7305 9.78151 11.8979 9.52524 11.9663C9.26897 12.0346 8.99605 11.9984 8.7665 11.8655C8.53696 11.7326 8.3696 11.514 8.30124 11.2577C8.23288 11.0015 8.26913 10.7285 8.402 10.499C8.66543 10.0431 9.04418 9.66463 9.50022 9.40151C9.95625 9.13839 10.4735 8.99991 11 9Z" fill="currentColor"/>
</svg>
