<svg width="24" height="24" viewBox="0 0 24 24" fill="none" xmlns="http://www.w3.org/2000/svg">
<path fill-rule="evenodd" clip-rule="evenodd" d="M12 5C11.4706 4.99995 10.9506 5.13998 10.4929 5.40588C10.0351 5.67178 9.65584 6.05407 9.39361 6.51394C9.13137 6.97381 8.9955 7.49489 8.99978 8.02425C9.00406 8.55362 9.14834 9.07243 9.41797 9.528C9.51414 9.68995 9.56262 9.87576 9.55783 10.064C9.55303 10.2523 9.49516 10.4354 9.39088 10.5923C9.2866 10.7491 9.14014 10.8733 8.96838 10.9506C8.79661 11.0278 8.60651 11.055 8.41997 11.029C7.93497 10.9605 7.44058 11.0119 6.97999 11.1785C6.5194 11.3451 6.10662 11.622 5.7777 11.985C5.44878 12.3479 5.21372 12.7859 5.09307 13.2606C4.97242 13.7353 4.96984 14.2323 5.08555 14.7083C5.20126 15.1842 5.43175 15.6246 5.75689 15.9909C6.08202 16.3573 6.4919 16.6384 6.95074 16.8098C7.40957 16.9813 7.9034 17.0377 8.38909 16.9743C8.87477 16.9109 9.33754 16.7295 9.73697 16.446C9.90202 16.3286 10.0988 16.264 10.3014 16.2609C10.5039 16.2578 10.7026 16.3162 10.8712 16.4286C11.0398 16.5409 11.1703 16.7017 11.2454 16.8898C11.3205 17.078 11.3368 17.2845 11.292 17.482C11.1051 18.3364 10.8623 19.1775 10.565 20H13.435C13.133 19.19 12.895 18.309 12.708 17.482C12.6632 17.2845 12.6794 17.078 12.7545 16.8898C12.8297 16.7017 12.9602 16.5409 13.1287 16.4286C13.2973 16.3162 13.496 16.2578 13.6986 16.2609C13.9011 16.264 14.0979 16.3286 14.263 16.446C14.6624 16.7295 15.1252 16.9109 15.6109 16.9743C16.0965 17.0377 16.5904 16.9813 17.0492 16.8098C17.508 16.6384 17.9179 16.3573 18.2431 15.9909C18.5682 15.6246 18.7987 15.1842 18.9144 14.7083C19.0301 14.2323 19.0275 13.7353 18.9069 13.2606C18.7862 12.7859 18.5512 12.3479 18.2222 11.985C17.8933 11.622 17.4805 11.3451 17.02 11.1785C16.5594 11.0119 16.065 10.9605 15.58 11.029C15.3936 11.0549 15.2037 11.0276 15.0321 10.9504C14.8605 10.8732 14.7141 10.7491 14.6099 10.5924C14.5056 10.4358 14.4477 10.2529 14.4428 10.0647C14.4378 9.87662 14.4861 9.69093 14.582 9.529C14.8519 9.07341 14.9963 8.55449 15.0008 8.02498C15.0052 7.49546 14.8693 6.97421 14.6071 6.51419C14.3448 6.05416 13.9655 5.67175 13.5076 5.4058C13.0496 5.13985 12.5295 4.99985 12 5ZM6.99997 8C7.00035 7.29788 7.1486 6.60371 7.43506 5.96268C7.72153 5.32166 8.13979 4.74815 8.66262 4.2795C9.18545 3.81086 9.80111 3.45758 10.4695 3.24267C11.138 3.02776 11.8442 2.95603 12.5421 3.03217C13.2401 3.1083 13.9142 3.33058 14.5206 3.68454C15.127 4.03851 15.652 4.51621 16.0615 5.08655C16.471 5.65689 16.7558 6.30708 16.8973 6.99479C17.0389 7.6825 17.034 8.39231 16.883 9.078C18.1653 9.33008 19.2981 10.074 20.0389 11.1506C20.7797 12.2273 21.0697 13.551 20.8469 14.8388C20.6241 16.1265 19.9062 17.2759 18.8468 18.0411C17.7873 18.8063 16.4705 19.1264 15.178 18.933C15.381 19.535 15.608 20.069 15.858 20.485C15.9492 20.6368 15.9984 20.8101 16.0007 20.9871C16.003 21.1642 15.9582 21.3387 15.8709 21.4928C15.7837 21.6469 15.657 21.775 15.504 21.8641C15.351 21.9533 15.1771 22.0001 15 22H8.99997C8.82298 22 8.64916 21.953 8.49627 21.8638C8.34339 21.7746 8.21692 21.6464 8.12977 21.4924C8.04262 21.3383 7.99793 21.1639 8.00025 20.9869C8.00257 20.8099 8.05182 20.6367 8.14297 20.485C8.39297 20.069 8.61897 19.535 8.82197 18.933C7.51512 19.1591 6.17197 18.8568 5.08801 18.0926C4.00405 17.3284 3.26807 16.1649 3.04197 14.858C2.81588 13.5511 3.11818 12.208 3.8824 11.124C4.64661 10.0401 5.81012 9.3041 7.11697 9.078C7.03912 8.72395 6.99989 8.36251 6.99997 8Z" fill="currentColor"/>
</svg>
