<svg width="24" height="24" viewBox="0 0 24 24" fill="none" xmlns="http://www.w3.org/2000/svg">
<path fill-rule="evenodd" clip-rule="evenodd" d="M10.5005 7.49999C10.5005 7.22883 10.5741 6.96276 10.7133 6.73009C10.8526 6.49741 11.0523 6.30683 11.2912 6.17862C11.5302 6.0504 11.7994 5.98936 12.0702 6.00197C12.3411 6.01458 12.6035 6.10038 12.8295 6.25025C13.0555 6.40011 13.2366 6.60842 13.3536 6.85303C13.4706 7.09764 13.5191 7.3694 13.494 7.63939C13.4689 7.90938 13.371 8.16751 13.2109 8.38631C13.0507 8.60512 12.8342 8.77642 12.5845 8.88199C12.0405 9.11199 11.3035 9.62899 11.0725 10.462L11.0625 10.469L2.48847 17.329C1.38147 18.215 2.00847 20 3.42547 20H20.5755C21.9935 20 22.6195 18.215 21.5125 17.329L13.2955 10.756C13.3175 10.745 13.3405 10.734 13.3645 10.724C13.9471 10.4774 14.452 10.0776 14.8255 9.56694C15.199 9.0563 15.4271 8.45398 15.4855 7.82404C15.5439 7.1941 15.4306 6.5601 15.1574 5.98946C14.8842 5.41883 14.4615 4.93291 13.9342 4.58338C13.4068 4.23386 12.7946 4.0338 12.1627 4.00448C11.5307 3.97516 10.9026 4.11768 10.3452 4.41689C9.78776 4.71609 9.32186 5.16079 8.99703 5.70367C8.67221 6.24656 8.5006 6.86735 8.50047 7.49999C8.50047 7.76521 8.60583 8.01956 8.79337 8.2071C8.9809 8.39464 9.23526 8.49999 9.50047 8.49999C9.76569 8.49999 10.02 8.39464 10.2076 8.2071C10.3951 8.01956 10.5005 7.76521 10.5005 7.49999ZM12.0005 12.28L19.1505 18H4.85047L12.0005 12.28Z" fill="currentColor"/>
</svg>
