<svg width="24" height="24" viewBox="0 0 24 24" fill="none" xmlns="http://www.w3.org/2000/svg">
<path d="M14.4861 3.143C14.7414 3.21479 14.9576 3.38501 15.0874 3.61623C15.2172 3.84744 15.2498 4.12073 15.1781 4.376L10.7481 20.164C10.7127 20.2905 10.6526 20.4087 10.5715 20.512C10.4903 20.6152 10.3896 20.7015 10.2751 20.7659C10.1606 20.8302 10.0346 20.8714 9.90419 20.887C9.77378 20.9027 9.64157 20.8925 9.51511 20.857C9.38865 20.8215 9.27041 20.7615 9.16714 20.6804C9.06387 20.5992 8.9776 20.4985 8.91325 20.384C8.8489 20.2695 8.80773 20.1435 8.79209 20.0131C8.77645 19.8827 8.78665 19.7505 8.82211 19.624L13.2521 3.836C13.2875 3.70942 13.3476 3.59107 13.4288 3.48771C13.51 3.38435 13.6108 3.29803 13.7254 3.23366C13.84 3.1693 13.9662 3.12816 14.0967 3.1126C14.2273 3.09705 14.3596 3.10738 14.4861 3.143ZM7.20711 7.05C7.39458 7.23753 7.4999 7.49184 7.4999 7.757C7.4999 8.02217 7.39458 8.27647 7.20711 8.464L3.67211 12L7.20711 15.535C7.30002 15.6278 7.37373 15.7381 7.42404 15.8594C7.47435 15.9807 7.50027 16.1108 7.50031 16.2421C7.50036 16.3735 7.47453 16.5036 7.42431 16.6249C7.37409 16.7463 7.30046 16.8566 7.20761 16.9495C7.11477 17.0424 7.00453 17.1161 6.8832 17.1664C6.76187 17.2167 6.63181 17.2427 6.50046 17.2427C6.36912 17.2428 6.23904 17.2169 6.11768 17.1667C5.99631 17.1165 5.88602 17.0428 5.79311 16.95L1.55011 12.707C1.36264 12.5195 1.25732 12.2652 1.25732 12C1.25732 11.7348 1.36264 11.4805 1.55011 11.293L5.79311 7.05C5.98064 6.86253 6.23495 6.75722 6.50011 6.75722C6.76528 6.75722 7.01958 6.86253 7.20711 7.05ZM16.7931 8.464C16.6976 8.37175 16.6214 8.26141 16.569 8.13941C16.5166 8.0174 16.489 7.88618 16.4879 7.7534C16.4867 7.62062 16.512 7.48894 16.5623 7.36605C16.6126 7.24315 16.6868 7.1315 16.7807 7.03761C16.8746 6.94371 16.9863 6.86946 17.1092 6.81918C17.2321 6.7689 17.3637 6.7436 17.4965 6.74475C17.6293 6.74591 17.7605 6.77349 17.8825 6.8259C18.0045 6.87831 18.1149 6.95449 18.2071 7.05L22.4501 11.293C22.6376 11.4805 22.7429 11.7348 22.7429 12C22.7429 12.2652 22.6376 12.5195 22.4501 12.707L18.2071 16.95C18.0195 17.1375 17.765 17.2428 17.4998 17.2427C17.2345 17.2426 16.9801 17.1371 16.7926 16.9495C16.6051 16.7619 16.4998 16.5074 16.4999 16.2421C16.5 15.9769 16.6055 15.7225 16.7931 15.535L20.3281 12L16.7931 8.464Z" fill="currentColor"/>
</svg>
