<svg width="24" height="24" viewBox="0 0 24 24" fill="none" xmlns="http://www.w3.org/2000/svg">
<path d="M12 3C14.314 3 16.456 3.408 18.058 4.109C18.857 4.459 19.567 4.901 20.09 5.443C20.575 5.943 20.935 6.571 20.992 7.299L21 7.5V17.5C21 18.314 20.619 19.01 20.09 19.557C19.567 20.099 18.857 20.541 18.058 20.891C16.456 21.591 14.314 22 12 22C9.686 22 7.544 21.592 5.942 20.891C5.143 20.541 4.433 20.099 3.91 19.557C3.425 19.057 3.065 18.429 3.008 17.701L3 17.5V7.5C3 6.686 3.381 5.99 3.91 5.443C4.433 4.901 5.143 4.459 5.942 4.109C7.544 3.409 9.686 3 12 3ZM19 15.407C18.6969 15.5886 18.3822 15.7503 18.058 15.891C16.456 16.591 14.314 17 12 17C9.686 17 7.544 16.592 5.942 15.891C5.6178 15.7503 5.30314 15.5887 5 15.407V17.5C5 17.652 5.066 17.876 5.348 18.167C5.634 18.463 6.096 18.775 6.744 19.059C8.038 19.625 9.895 20 12 20C14.105 20 15.962 19.625 17.256 19.059C17.904 18.775 18.366 18.463 18.652 18.167C18.934 17.877 19 17.652 19 17.5V15.407ZM19 10.407C18.6969 10.5886 18.3822 10.7503 18.058 10.891C16.456 11.591 14.314 12 12 12C9.686 12 7.544 11.592 5.942 10.891C5.6178 10.7503 5.30314 10.5887 5 10.407V12.5C5 12.652 5.066 12.876 5.348 13.167C5.634 13.463 6.096 13.775 6.744 14.059C8.038 14.625 9.895 15 12 15C14.105 15 15.962 14.625 17.256 14.059C17.904 13.775 18.366 13.463 18.652 13.167C18.934 12.877 19 12.652 19 12.5V10.407ZM12 5C9.895 5 8.038 5.375 6.744 5.941C6.096 6.225 5.634 6.537 5.348 6.833C5.066 7.123 5 7.348 5 7.5C5 7.652 5.066 7.876 5.348 8.167C5.634 8.463 6.096 8.775 6.744 9.059C8.038 9.625 9.895 10 12 10C14.105 10 15.962 9.625 17.256 9.059C17.904 8.775 18.366 8.463 18.652 8.167C18.934 7.877 19 7.652 19 7.5C19 7.348 18.934 7.124 18.652 6.833C18.366 6.537 17.904 6.225 17.256 5.941C15.962 5.375 14.105 5 12 5Z" fill="currentColor"/>
</svg>
