<svg width="24" height="24" viewBox="0 0 24 24" fill="none" xmlns="http://www.w3.org/2000/svg">
<path fill-rule="evenodd" clip-rule="evenodd" d="M12 5C14.592 5 16.986 5.465 18.77 6.258C19.66 6.654 20.444 7.151 21.017 7.754C21.596 8.36 22 9.122 22 10V14C22 14.878 21.596 15.639 21.017 16.246C20.444 16.849 19.661 17.346 18.77 17.742C16.986 18.535 14.592 19 12 19C9.408 19 7.014 18.535 5.23 17.742C4.34 17.346 3.556 16.849 2.983 16.246C2.404 15.64 2 14.878 2 14V10C2 9.122 2.404 8.361 2.983 7.754C3.556 7.151 4.339 6.654 5.23 6.258C7.014 5.465 9.408 5 12 5ZM20 13.08C19.625 13.326 19.21 13.546 18.77 13.742C16.986 14.535 14.592 15 12 15C9.408 15 7.014 14.535 5.23 13.742C4.8029 13.5547 4.39157 13.3333 4 13.08V14C4 14.227 4.1 14.518 4.432 14.868C4.769 15.222 5.304 15.587 6.042 15.915C7.516 16.57 9.622 17 12 17C14.379 17 16.484 16.57 17.958 15.915C18.696 15.587 19.231 15.222 19.568 14.868C19.901 14.518 20 14.227 20 14V13.08ZM12 7C9.621 7 7.516 7.43 6.042 8.085C5.304 8.413 4.769 8.778 4.432 9.132C4.099 9.482 4 9.773 4 10C4 10.227 4.1 10.518 4.432 10.868C4.769 11.222 5.304 11.587 6.042 11.915C7.516 12.57 9.622 13 12 13C14.379 13 16.484 12.57 17.958 11.915C18.696 11.587 19.231 11.222 19.568 10.868C19.901 10.518 20 10.227 20 10C20 9.773 19.9 9.482 19.568 9.132C19.231 8.778 18.696 8.413 17.958 8.085C16.484 7.431 14.378 7 12 7Z" fill="currentColor"/>
</svg>
