<svg width="24" height="24" viewBox="0 0 24 24" fill="none" xmlns="http://www.w3.org/2000/svg">
<path fill-rule="evenodd" clip-rule="evenodd" d="M12.0001 2C12.9791 1.9997 13.9433 2.23896 14.8085 2.69692C15.6738 3.15487 16.4139 3.81761 16.9642 4.6273C17.5146 5.43699 17.8584 6.36904 17.9657 7.34214C18.0731 8.31524 17.9407 9.29983 17.5801 10.21C18.4528 10.4487 19.2603 10.8816 19.942 11.4764C20.6238 12.0713 21.1622 12.8126 21.517 13.6449C21.8717 14.4772 22.0336 15.379 21.9906 16.2828C21.9476 17.1865 21.7008 18.0688 21.2686 18.8637C20.8363 19.6586 20.23 20.3454 19.4948 20.8728C18.7596 21.4002 17.9147 21.7545 17.0232 21.9092C16.1318 22.0639 15.2169 22.0149 14.347 21.7661C13.4771 21.5172 12.6748 21.0748 12.0001 20.472C11.3253 21.0748 10.523 21.5172 9.65311 21.7661C8.78324 22.0149 7.86834 22.0639 6.97688 21.9092C6.08543 21.7545 5.2405 21.4002 4.50532 20.8728C3.77014 20.3454 3.16376 19.6586 2.73155 18.8637C2.29934 18.0688 2.05249 17.1865 2.00947 16.2828C1.96646 15.379 2.12839 14.4772 2.48316 13.6449C2.83792 12.8126 3.37633 12.0713 4.05809 11.4764C4.73986 10.8816 5.54732 10.4487 6.42005 10.21C6.05945 9.29983 5.92705 8.31524 6.03439 7.34214C6.14173 6.36904 6.48555 5.43699 7.03587 4.6273C7.58618 3.81761 8.32627 3.15487 9.19156 2.69692C10.0568 2.23896 11.021 1.9997 12.0001 2ZM16.0001 12C14.9768 11.9983 13.9921 12.3904 13.2501 13.095C13.7281 13.955 14.0001 14.947 14.0001 16C14.0015 17.0167 13.7433 18.017 13.2501 18.906C13.7245 19.3547 14.3016 19.6805 14.9309 19.8548C15.5603 20.0292 16.2227 20.0468 16.8604 19.9061C17.4981 19.7654 18.0917 19.4707 18.5893 19.0478C19.0869 18.6248 19.4733 18.0865 19.7149 17.4798C19.9565 16.8731 20.0459 16.2165 19.9752 15.5673C19.9046 14.918 19.6761 14.296 19.3096 13.7555C18.9432 13.2149 18.45 12.7723 17.8731 12.4663C17.2962 12.1603 16.6531 12.0002 16.0001 12ZM7.55005 12.025C6.69308 12.1221 5.89043 12.4935 5.26179 13.084C4.63314 13.6744 4.21218 14.4522 4.06165 15.3015C3.91113 16.1507 4.03911 17.0258 4.42652 17.7963C4.81393 18.5669 5.44 19.1916 6.21141 19.5773C6.98281 19.963 7.85821 20.089 8.70709 19.9366C9.55597 19.7842 10.3329 19.3615 10.9219 18.7316C11.511 18.1016 11.8807 17.2982 11.9758 16.441C12.071 15.5838 11.8866 14.7188 11.4501 13.975C9.95113 13.8384 8.55866 13.1422 7.55005 12.025ZM12.0001 4C10.9776 3.99911 9.99361 4.38979 9.25023 5.09179C8.50684 5.79379 8.06051 6.75382 8.00291 7.77465C7.9453 8.79549 8.28081 9.79963 8.9405 10.5808C9.60019 11.362 10.534 11.8609 11.5501 11.975C12.5588 10.858 13.9512 10.1619 15.4501 10.025C15.8068 9.41733 15.9966 8.72621 16.0004 8.02158C16.0042 7.31696 15.8218 6.62383 15.4717 6.01234C15.1216 5.40086 14.6161 4.89272 14.0065 4.53935C13.3968 4.18598 12.7047 3.99992 12.0001 4Z" fill="currentColor"/>
</svg>
