<svg width="24" height="24" viewBox="0 0 24 24" fill="none" xmlns="http://www.w3.org/2000/svg">
<path fill-rule="evenodd" clip-rule="evenodd" d="M20.4769 3.511C20.7555 3.78958 20.9765 4.12032 21.1273 4.48433C21.2781 4.84834 21.3558 5.23849 21.3558 5.6325C21.3558 6.02651 21.2781 6.41666 21.1273 6.78067C20.9765 7.14468 20.7555 7.47542 20.4769 7.754L18.9439 9.287C19.2122 9.84555 19.3004 10.4737 19.1963 11.0845C19.0923 11.6954 18.801 12.2588 18.3629 12.697L17.6479 13.411C17.2728 13.7859 16.7642 13.9966 16.2339 13.9966C15.7036 13.9966 15.1949 13.7859 14.8199 13.411L8.33489 19.896C8.05626 20.1747 7.72544 20.3958 7.36134 20.5466C6.99724 20.6974 6.60699 20.775 6.21289 20.775H4.41289C4.09463 20.775 3.78941 20.6486 3.56436 20.4235C3.33932 20.1985 3.21289 19.8933 3.21289 19.575V17.775C3.21297 17.3808 3.29074 16.9905 3.44173 16.6264C3.59273 16.2623 3.814 15.9315 4.09289 15.653L10.5769 9.168C10.2019 8.79295 9.99132 8.28433 9.99132 7.754C9.99132 7.22367 10.2019 6.71506 10.5769 6.34L11.2909 5.626C11.729 5.18769 12.2924 4.89627 12.9032 4.79201C13.5141 4.68775 14.1422 4.77581 14.7009 5.044L16.2339 3.511C16.5125 3.23237 16.8432 3.01135 17.2072 2.86055C17.5712 2.70976 17.9614 2.63214 18.3554 2.63214C18.7494 2.63214 19.1395 2.70976 19.5036 2.86055C19.8676 3.01135 20.1983 3.23237 20.4769 3.511ZM11.9919 10.582L5.50589 17.068L5.41889 17.167C5.28527 17.3415 5.21287 17.5552 5.21289 17.775V18.775H6.21289L6.34489 18.766C6.56254 18.737 6.7646 18.6372 6.91989 18.482L13.4059 11.997L11.9919 10.582ZM19.0619 4.925C18.8744 4.73753 18.6201 4.63221 18.3549 4.63221C18.0897 4.63221 17.8354 4.73753 17.6479 4.925L15.5339 7.04C15.3445 7.2293 15.0877 7.33564 14.8199 7.33564C14.5521 7.33564 14.2953 7.2293 14.1059 7.04C13.9202 6.85436 13.6684 6.75007 13.4059 6.75007C13.1433 6.75007 12.8915 6.85436 12.7059 7.04L11.9919 7.754L16.2339 11.997L16.9479 11.282C17.1335 11.0963 17.2378 10.8445 17.2378 10.582C17.2378 10.3195 17.1335 10.0677 16.9479 9.882C16.7586 9.6926 16.6522 9.43578 16.6522 9.168C16.6522 8.90022 16.7586 8.6434 16.9479 8.454L19.0629 6.34C19.1559 6.24713 19.2296 6.13684 19.28 6.01544C19.3303 5.89404 19.3562 5.76392 19.3562 5.6325C19.3562 5.50109 19.3303 5.37096 19.28 5.24956C19.2296 5.12816 19.1549 5.01787 19.0619 4.925Z" fill="currentColor"/>
</svg>
