<svg width="24" height="24" viewBox="0 0 24 24" fill="none" xmlns="http://www.w3.org/2000/svg">
<path fill-rule="evenodd" clip-rule="evenodd" d="M4.00008 12C3.99903 10.3747 4.56357 8.79972 5.59685 7.54518C6.63014 6.29064 8.06777 5.43475 9.66313 5.12434C11.2585 4.81392 12.9122 5.06832 14.3405 5.8439C15.7687 6.61948 16.8826 7.8679 17.4911 9.375C17.5918 9.6191 17.7849 9.81347 18.0283 9.91571C18.2718 10.0179 18.5458 10.0198 18.7905 9.92074C19.0353 9.82172 19.231 9.62991 19.3349 9.38717C19.4388 9.14442 19.4424 8.87044 19.3451 8.625C18.8825 7.47168 18.1862 6.4266 17.3 5.55555C16.4138 4.68449 15.3568 4.00633 14.1957 3.56374C13.0346 3.12115 11.7944 2.92372 10.5532 2.98388C9.31206 3.04404 8.09679 3.36048 6.9839 3.91329C5.87101 4.4661 4.88462 5.2433 4.08679 6.19598C3.28897 7.14866 2.697 8.25618 2.34815 9.44883C1.9993 10.6415 1.90111 11.8934 2.05978 13.1259C2.21844 14.3583 2.63052 15.5446 3.27008 16.61L2.49008 19.259C2.43881 19.4328 2.43534 19.6172 2.48005 19.7929C2.52476 19.9685 2.61599 20.1288 2.74413 20.2569C2.87228 20.3851 3.03259 20.4763 3.20822 20.521C3.38384 20.5657 3.56826 20.5623 3.74208 20.511L6.39208 19.731C7.45788 20.3685 8.64472 20.7772 9.87708 20.931C10.1403 20.9639 10.4058 20.8909 10.6152 20.728C10.8246 20.5651 10.9607 20.3257 10.9936 20.0625C11.0265 19.7993 10.9534 19.5338 10.7906 19.3244C10.6277 19.115 10.3883 18.9789 10.1251 18.946C9.09986 18.8184 8.116 18.4638 7.24508 17.908C7.0732 17.798 6.87977 17.7261 6.67778 17.6971C6.47579 17.6682 6.26994 17.6828 6.07408 17.74L4.92208 18.079L5.26108 16.927C5.38108 16.519 5.30808 16.093 5.09308 15.757C4.37708 14.6349 3.99777 13.3311 4.00008 12ZM20.0001 16.5C20 15.7234 19.7416 14.9689 19.2657 14.3552C18.7897 13.7416 18.1231 13.3036 17.3709 13.1104C16.6187 12.9172 15.8237 12.9796 15.1108 13.2879C14.398 13.5961 13.808 14.1327 13.4336 14.8131C13.0592 15.4935 12.9218 16.2791 13.0429 17.0462C13.164 17.8133 13.5369 18.5184 14.1027 19.0503C14.6685 19.5823 15.3952 19.9109 16.1683 19.9846C16.9414 20.0582 17.717 19.8726 18.3731 19.457C18.6432 19.2852 18.9685 19.2226 19.2831 19.282C19.2234 18.9676 19.2856 18.6422 19.4571 18.372C19.8127 17.8125 20.0011 17.163 20.0001 16.5ZM16.5001 11C17.4556 10.9999 18.3947 11.2488 19.2248 11.7221C20.0549 12.1955 20.7474 12.8769 21.234 13.6993C21.7206 14.5217 21.9845 15.4567 21.9998 16.4121C22.0151 17.3675 21.7811 18.3105 21.3211 19.148L21.7071 20.459C21.7581 20.6323 21.7615 20.8161 21.7169 20.9911C21.6723 21.1661 21.5814 21.3259 21.4537 21.4536C21.326 21.5813 21.1662 21.6722 20.9912 21.7168C20.8161 21.7614 20.6323 21.758 20.4591 21.707L19.1491 21.321C18.414 21.7246 17.5964 21.9548 16.7587 21.994C15.9211 22.0332 15.0855 21.8803 14.316 21.547C13.5465 21.2137 12.8634 20.7089 12.3189 20.0712C11.7744 19.4334 11.383 18.6796 11.1745 17.8673C10.966 17.0551 10.946 16.2059 11.1161 15.3847C11.2861 14.5636 11.6417 13.7922 12.1556 13.1295C12.6695 12.4668 13.3281 11.9305 14.0811 11.5614C14.8341 11.1923 15.6615 11.0003 16.5001 11Z" fill="currentColor"/>
</svg>
