<svg width="24" height="24" viewBox="0 0 24 24" fill="none" xmlns="http://www.w3.org/2000/svg">
<path fill-rule="evenodd" clip-rule="evenodd" d="M12 2C12.245 2.00003 12.4814 2.08996 12.6644 2.25272C12.8475 2.41547 12.9644 2.63975 12.993 2.883L13 3V5.17C13.4813 5.3401 13.9112 5.63012 14.2491 6.01265C14.587 6.39518 14.8217 6.85757 14.9312 7.35611C15.0406 7.85464 15.021 8.37285 14.8744 8.86173C14.7277 9.35061 14.4588 9.79401 14.0931 10.15L13.949 10.281L15.783 15.051C16.6039 14.6091 17.3416 14.0278 17.963 13.333C18.0502 13.2338 18.1562 13.1528 18.2749 13.0948C18.3936 13.0367 18.5226 13.0028 18.6544 12.9949C18.7863 12.987 18.9184 13.0053 19.0432 13.0487C19.1679 13.0922 19.2828 13.1599 19.3813 13.2481C19.4797 13.3362 19.5597 13.4429 19.6166 13.5621C19.6735 13.6813 19.7063 13.8106 19.713 13.9426C19.7196 14.0745 19.7001 14.2064 19.6555 14.3308C19.6109 14.4551 19.5421 14.5694 19.453 14.667C18.7137 15.4933 17.8426 16.1914 16.875 16.733L16.505 16.93L17.9331 20.641C18.0232 20.8788 18.0194 21.142 17.9224 21.3771C17.8254 21.6121 17.6425 21.8014 17.4108 21.9064C17.1792 22.0114 16.9163 22.0242 16.6756 21.9422C16.4349 21.8602 16.2344 21.6895 16.115 21.465L16.067 21.359L14.639 17.648C13.0336 18.085 11.3447 18.1166 9.72405 17.74L9.36105 17.648L7.93305 21.359C7.84131 21.5969 7.66215 21.7908 7.43221 21.901C7.20226 22.0112 6.93889 22.0294 6.69597 21.9519C6.45305 21.8744 6.24892 21.707 6.12532 21.4839C6.00173 21.2609 5.968 20.9991 6.03105 20.752L6.06705 20.641L10.051 10.281C9.66235 9.9491 9.3649 9.52339 9.18691 9.04426C9.00892 8.56513 8.9563 8.04848 9.03403 7.5433C9.11177 7.03813 9.31728 6.56119 9.63108 6.15774C9.94488 5.75428 10.3566 5.43769 10.827 5.238L11 5.17V3C11 2.73478 11.1054 2.48043 11.2929 2.29289C11.4805 2.10536 11.7348 2 12 2ZM13.917 15.77L12.082 10.999L12 11L11.918 10.999L10.083 15.769C10.7104 15.9229 11.3541 16.0005 12 16C12.66 16 13.303 15.92 13.917 15.77ZM12 7C11.7348 7 11.4805 7.10536 11.2929 7.29289C11.1054 7.48043 11 7.73478 11 8C11 8.26522 11.1054 8.51957 11.2929 8.70711C11.4805 8.89464 11.7348 9 12 9C12.2653 9 12.5196 8.89464 12.7072 8.70711C12.8947 8.51957 13 8.26522 13 8C13 7.73478 12.8947 7.48043 12.7072 7.29289C12.5196 7.10536 12.2653 7 12 7Z" fill="currentColor"/>
</svg>
