<svg width="24" height="24" viewBox="0 0 24 24" fill="none" xmlns="http://www.w3.org/2000/svg">
<path d="M12 2C17.523 2 22 6.477 22 12C22 17.523 17.523 22 12 22C6.477 22 2 17.523 2 12C2 6.477 6.477 2 12 2ZM12 4C9.87827 4 7.84344 4.84285 6.34315 6.34315C4.84285 7.84344 4 9.87827 4 12C4 14.1217 4.84285 16.1566 6.34315 17.6569C7.84344 19.1571 9.87827 20 12 20C14.1217 20 16.1566 19.1571 17.6569 17.6569C19.1571 16.1566 20 14.1217 20 12C20 9.87827 19.1571 7.84344 17.6569 6.34315C16.1566 4.84285 14.1217 4 12 4ZM16.95 7.05C17.345 7.446 17.347 8.03 17.286 8.56L17.249 8.843C17.089 9.963 16.644 11.618 16.007 12.999C15.697 13.671 15.307 14.35 14.828 14.829C14.35 15.306 13.672 15.697 12.998 16.007C11.618 16.644 9.963 17.089 8.843 17.249L8.561 17.286C8.031 17.346 7.443 17.342 7.051 16.95C6.694 16.593 6.658 16.075 6.7 15.585L6.732 15.295L6.751 15.157C6.911 14.037 7.356 12.382 7.993 11.001C8.303 10.329 8.693 9.65 9.172 9.171C9.65 8.693 10.329 8.303 11.002 7.993C12.382 7.356 14.037 6.911 15.157 6.751L15.439 6.714C15.969 6.654 16.554 6.654 16.949 7.05H16.95ZM15.238 8.762C14.33 8.917 12.915 9.312 11.838 9.809C11.241 10.085 10.815 10.357 10.586 10.586C10.356 10.815 10.085 11.241 9.809 11.838C9.313 12.915 8.917 14.33 8.762 15.238C9.67 15.083 11.085 14.688 12.162 14.191C12.759 13.915 13.185 13.643 13.414 13.414C13.644 13.185 13.916 12.759 14.191 12.162C14.687 11.085 15.084 9.67 15.238 8.762ZM12 11C12.2652 11 12.5196 11.1054 12.7071 11.2929C12.8946 11.4804 13 11.7348 13 12C13 12.2652 12.8946 12.5196 12.7071 12.7071C12.5196 12.8946 12.2652 13 12 13C11.7348 13 11.4804 12.8946 11.2929 12.7071C11.1054 12.5196 11 12.2652 11 12C11 11.7348 11.1054 11.4804 11.2929 11.2929C11.4804 11.1054 11.7348 11 12 11Z" fill="currentColor"/>
</svg>
