<svg width="24" height="24" viewBox="0 0 24 24" fill="none" xmlns="http://www.w3.org/2000/svg">
<path fill-rule="evenodd" clip-rule="evenodd" d="M6.593 16.744C6.66834 16.8516 6.72175 16.973 6.75016 17.1013C6.77858 17.2295 6.78144 17.3621 6.7586 17.4915C6.73575 17.6208 6.68764 17.7444 6.61702 17.8552C6.5464 17.9659 6.45464 18.0617 6.347 18.137C6.22447 18.2158 6.11654 18.3153 6.028 18.431L6.004 18.473L6.039 18.531C6.069 18.571 6.117 18.626 6.199 18.696C6.429 18.892 6.819 19.113 7.389 19.319C8.523 19.728 10.153 20 12 20C13.848 20 15.478 19.728 16.61 19.32C17.18 19.113 17.571 18.892 17.8 18.696C17.8601 18.648 17.9138 18.5925 17.96 18.531L17.996 18.473L17.972 18.433C17.8851 18.3179 17.7789 18.2187 17.658 18.14C17.5474 18.0658 17.4528 17.9702 17.3796 17.8589C17.3065 17.7476 17.2563 17.6228 17.2321 17.4918C17.2078 17.3608 17.21 17.2264 17.2384 17.0962C17.2668 16.9661 17.321 16.843 17.3976 16.7341C17.4743 16.6252 17.572 16.5327 17.6849 16.462C17.7978 16.3914 17.9237 16.344 18.0551 16.3226C18.1866 16.3013 18.321 16.3064 18.4505 16.3377C18.5799 16.3691 18.7018 16.4259 18.809 16.505C19.407 16.926 20 17.579 20 18.473C20 19.226 19.574 19.812 19.1 20.217C18.62 20.627 17.986 20.949 17.29 21.201C15.888 21.706 14.018 22 12 22C9.982 22 8.112 21.706 6.71 21.2C6.014 20.95 5.38 20.626 4.901 20.217C4.426 19.812 4 19.227 4 18.473C4 17.575 4.598 16.92 5.2 16.498C5.30761 16.4227 5.42901 16.3693 5.55726 16.3408C5.68551 16.3124 5.8181 16.3096 5.94747 16.3324C6.07683 16.3552 6.20042 16.4034 6.31118 16.474C6.42194 16.5446 6.51771 16.6364 6.593 16.744ZM12 2C14.1217 2 16.1566 2.84285 17.6569 4.34315C19.1571 5.84344 20 7.87827 20 10C20 12.1217 19.1571 14.1566 17.6569 15.6569C16.1566 17.1571 14.1217 18 12 18C9.87827 18 7.84344 17.1571 6.34315 15.6569C4.84285 14.1566 4 12.1217 4 10C4 7.87827 4.84285 5.84344 6.34315 4.34315C7.84344 2.84285 9.87827 2 12 2ZM12 4C10.4087 4 8.88258 4.63214 7.75736 5.75736C6.63214 6.88258 6 8.4087 6 10C6 11.5913 6.63214 13.1174 7.75736 14.2426C8.88258 15.3679 10.4087 16 12 16C13.5913 16 15.1174 15.3679 16.2426 14.2426C17.3679 13.1174 18 11.5913 18 10C18 8.4087 17.3679 6.88258 16.2426 5.75736C15.1174 4.63214 13.5913 4 12 4ZM12 6C13.0609 6 14.0783 6.42143 14.8284 7.17157C15.5786 7.92172 16 8.93913 16 10C16 11.0609 15.5786 12.0783 14.8284 12.8284C14.0783 13.5786 13.0609 14 12 14C10.9391 14 9.92172 13.5786 9.17157 12.8284C8.42143 12.0783 8 11.0609 8 10C8 8.93913 8.42143 7.92172 9.17157 7.17157C9.92172 6.42143 10.9391 6 12 6ZM12 8C11.4696 8 10.9609 8.21071 10.5858 8.58579C10.2107 8.96086 10 9.46957 10 10C10 10.5304 10.2107 11.0391 10.5858 11.4142C10.9609 11.7893 11.4696 12 12 12C12.5304 12 13.0391 11.7893 13.4142 11.4142C13.7893 11.0391 14 10.5304 14 10C14 9.46957 13.7893 8.96086 13.4142 8.58579C13.0391 8.21071 12.5304 8 12 8Z" fill="currentColor"/>
</svg>
