<svg width="24" height="24" viewBox="0 0 24 24" fill="none" xmlns="http://www.w3.org/2000/svg">
<path fill-rule="evenodd" clip-rule="evenodd" d="M6.59287 16.744C6.66821 16.8516 6.72162 16.973 6.75003 17.1013C6.77845 17.2295 6.78131 17.3621 6.75847 17.4915C6.73562 17.6208 6.68752 17.7444 6.61689 17.8552C6.54627 17.966 6.45451 18.0617 6.34687 18.137C6.22434 18.2158 6.11641 18.3153 6.02787 18.431L6.00387 18.473L6.03887 18.531C6.06887 18.571 6.11687 18.626 6.19887 18.696C6.42887 18.892 6.81887 19.113 7.38887 19.319C8.52287 19.728 10.1529 20 11.9999 20C13.8479 20 15.4779 19.728 16.6099 19.32C16.9489 19.197 17.2239 19.07 17.4399 18.945L17.8689 19.375C18.0774 19.5835 18.3366 19.7341 18.621 19.8122C18.9054 19.8902 19.2051 19.8929 19.4909 19.82C19.3709 19.967 19.2369 20.1 19.0989 20.217C18.6199 20.627 17.9859 20.949 17.2889 21.201C15.8879 21.706 14.0179 22 11.9999 22C9.98187 22 8.11187 21.706 6.70987 21.2C6.01387 20.95 5.37987 20.626 4.90087 20.217C4.42587 19.812 3.99987 19.227 3.99987 18.473C3.99987 17.575 4.59787 16.92 5.19987 16.498C5.30748 16.4227 5.42888 16.3693 5.55713 16.3408C5.68538 16.3124 5.81797 16.3096 5.94734 16.3324C6.0767 16.3553 6.20029 16.4034 6.31105 16.474C6.42181 16.5446 6.51758 16.6364 6.59287 16.744ZM11.9999 2.00001C13.4769 1.99995 14.9252 2.40882 16.1841 3.18131C17.4431 3.95379 18.4636 5.05974 19.1326 6.37661C19.8016 7.69348 20.0929 9.16985 19.9744 10.6421C19.8558 12.1144 19.332 13.5252 18.4609 14.718L18.2749 14.962L19.7779 16.465C19.9572 16.645 20.0613 16.8864 20.0691 17.1404C20.0769 17.3943 19.9877 17.6417 19.8196 17.8323C19.6516 18.0229 19.4173 18.1423 19.1644 18.1664C18.9115 18.1905 18.6589 18.1174 18.4579 17.962L18.3639 17.879L4.22187 3.73701C4.04252 3.55705 3.9384 3.31557 3.93064 3.06162C3.92289 2.80768 4.01209 2.5603 4.18012 2.36973C4.34815 2.17916 4.58242 2.0597 4.83534 2.03561C5.08827 2.01152 5.34088 2.0846 5.54187 2.24001L5.63587 2.32301L7.03787 3.72501C8.44924 2.60548 10.1984 1.9974 11.9999 2.00001ZM4.86787 6.37301L6.38187 7.88801C5.9752 8.96752 5.88834 10.1414 6.1317 11.269C6.37506 12.3966 6.93832 13.4302 7.75402 14.2459C8.56972 15.0616 9.60327 15.6248 10.7309 15.8682C11.8585 16.1115 13.0324 16.0247 14.1119 15.618L15.6269 17.132C14.1216 17.899 12.4121 18.1698 10.7434 17.9055C9.0748 17.6412 7.53266 16.8555 6.33804 15.6608C5.14343 14.4662 4.35767 12.9241 4.09339 11.2554C3.82911 9.58679 4.09987 7.87731 4.86687 6.37201L4.86787 6.37301ZM8.02687 9.53301L12.4669 13.973C11.906 14.0389 11.3375 13.9854 10.7989 13.8158C10.2602 13.6462 9.76352 13.3645 9.34154 12.9892C8.91957 12.6139 8.58185 12.1535 8.3506 11.6383C8.11935 11.1231 7.99982 10.5647 7.99987 10L8.00787 9.76401L8.02687 9.53301ZM11.9999 4.00001C10.729 3.99816 9.49064 4.40171 8.46487 5.15201L9.90487 6.59201C10.6712 6.12047 11.574 5.92105 12.4677 6.02597C13.3613 6.13089 14.1934 6.53403 14.8296 7.17025C15.4658 7.80647 15.869 8.63861 15.9739 9.53222C16.0788 10.4258 15.8794 11.3287 15.4079 12.095L16.8479 13.535C17.5003 12.6402 17.8924 11.5823 17.9807 10.4784C18.069 9.37457 17.8501 8.2678 17.3482 7.28066C16.8463 6.29353 16.081 5.46456 15.137 4.88553C14.1931 4.30651 13.1073 4.00002 11.9999 4.00001ZM11.9999 8.00001C11.7919 8.00001 11.5919 8.03201 11.4039 8.09001L13.9099 10.596C14.0031 10.2965 14.0247 9.97932 13.9728 9.66997C13.9209 9.36063 13.797 9.06781 13.6111 8.81516C13.4253 8.56251 13.1826 8.3571 12.9027 8.2155C12.6228 8.0739 12.3135 8.00009 11.9999 8.00001Z" fill="currentColor"/>
</svg>
