<svg width="24" height="24" viewBox="0 0 24 24" fill="none" xmlns="http://www.w3.org/2000/svg">
<path d="M12 2C17.523 2 22 6.477 22 12C22 17.523 17.523 22 12 22C6.477 22 2 17.523 2 12C2 6.477 6.477 2 12 2ZM12 4C9.87827 4 7.84344 4.84285 6.34315 6.34315C4.84285 7.84344 4 9.87827 4 12C4 14.1217 4.84285 16.1566 6.34315 17.6569C7.84344 19.1571 9.87827 20 12 20C14.1217 20 16.1566 19.1571 17.6569 17.6569C19.1571 16.1566 20 14.1217 20 12C20 9.87827 19.1571 7.84344 17.6569 6.34315C16.1566 4.84285 14.1217 4 12 4ZM10.168 15.445C11.369 13.644 13.778 12.413 16.243 13.03C16.3723 13.06 16.4944 13.1154 16.6021 13.1931C16.7098 13.2708 16.8009 13.3691 16.8702 13.4823C16.9395 13.5956 16.9855 13.7215 17.0056 13.8527C17.0257 13.984 17.0195 14.1179 16.9873 14.2467C16.9551 14.3755 16.8975 14.4966 16.8181 14.6029C16.7386 14.7093 16.6387 14.7987 16.5243 14.866C16.4098 14.9334 16.2831 14.9772 16.1516 14.9951C16.02 15.0129 15.8862 15.0044 15.758 14.97C14.223 14.586 12.631 15.356 11.832 16.555C11.6848 16.7757 11.456 16.9288 11.1959 16.9808C10.9358 17.0327 10.6657 16.9792 10.445 16.832C10.2243 16.6848 10.0712 16.456 10.0192 16.1959C9.9673 15.9358 10.0208 15.6657 10.168 15.445ZM9.5 8C9.89782 8 10.2794 8.15804 10.5607 8.43934C10.842 8.72064 11 9.10218 11 9.5C11 9.89782 10.842 10.2794 10.5607 10.5607C10.2794 10.842 9.89782 11 9.5 11C9.10218 11 8.72064 10.842 8.43934 10.5607C8.15804 10.2794 8 9.89782 8 9.5C8 9.10218 8.15804 8.72064 8.43934 8.43934C8.72064 8.15804 9.10218 8 9.5 8ZM15.5 7C15.8978 7 16.2794 7.15804 16.5607 7.43934C16.842 7.72064 17 8.10218 17 8.5C17 8.89782 16.842 9.27936 16.5607 9.56066C16.2794 9.84196 15.8978 10 15.5 10C15.1022 10 14.7206 9.84196 14.4393 9.56066C14.158 9.27936 14 8.89782 14 8.5C14 8.10218 14.158 7.72064 14.4393 7.43934C14.7206 7.15804 15.1022 7 15.5 7Z" fill="currentColor"/>
</svg>
