<svg width="24" height="24" viewBox="0 0 24 24" fill="none" xmlns="http://www.w3.org/2000/svg">
<path d="M16.107 3C16.869 3 17.526 3.45 17.826 4.099L17.885 4.241L19.975 4.937C20.2514 5.02922 20.495 5.19995 20.6759 5.42832C20.8569 5.6567 20.9674 5.93284 20.994 6.223L21 6.36V17.64C20.9998 17.9313 20.9148 18.2163 20.7553 18.4601C20.5959 18.704 20.3688 18.8961 20.102 19.013L19.974 19.063L17.884 19.759C17.7599 20.0969 17.5421 20.3924 17.256 20.611C16.97 20.8295 16.6276 20.962 16.269 20.993L16.107 21H6C5.49542 21.0002 5.00943 20.8096 4.63945 20.4665C4.26947 20.1234 4.04284 19.6532 4.005 19.15L4 19V5C3.99984 4.49542 4.19041 4.00943 4.5335 3.63945C4.87659 3.26947 5.34684 3.04284 5.85 3.005L6 3H16.107ZM16 5H6V19H16V5ZM18 6.387V17.613L19 17.279V6.721L18 6.387ZM11 13C11.841 13 12.74 13.137 13.469 13.461C14.163 13.77 15 14.404 15 15.5C15.002 15.7652 14.8985 16.0204 14.7124 16.2093C14.5263 16.3982 14.2727 16.5055 14.0075 16.5075C13.7423 16.5095 13.4871 16.406 13.2982 16.2199C13.1093 16.0338 13.002 15.7802 13 15.515L12.95 15.464C12.8608 15.392 12.7618 15.3331 12.656 15.289C12.26 15.113 11.66 15 11 15C10.341 15 9.74 15.113 9.344 15.289C9.23856 15.3332 9.13991 15.3921 9.051 15.464L9 15.515C8.99901 15.6463 8.97217 15.7762 8.92101 15.8971C8.86984 16.0181 8.79536 16.1277 8.7018 16.2199C8.60825 16.3121 8.49746 16.3849 8.37575 16.4342C8.25405 16.4836 8.12382 16.5085 7.9925 16.5075C7.86118 16.5065 7.73134 16.4797 7.61039 16.4285C7.48944 16.3773 7.37975 16.3029 7.28759 16.2093C7.19543 16.1157 7.1226 16.005 7.07325 15.8833C7.02391 15.7616 6.99902 15.6313 7 15.5C7 14.404 7.837 13.77 8.531 13.461C9.26 13.137 10.16 13 11 13ZM11 8C11.5304 8 12.0391 8.21071 12.4142 8.58579C12.7893 8.96086 13 9.46957 13 10C13 10.5304 12.7893 11.0391 12.4142 11.4142C12.0391 11.7893 11.5304 12 11 12C10.4696 12 9.96086 11.7893 9.58579 11.4142C9.21071 11.0391 9 10.5304 9 10C9 9.46957 9.21071 8.96086 9.58579 8.58579C9.96086 8.21071 10.4696 8 11 8Z" fill="currentColor"/>
</svg>
