<svg width="24" height="24" viewBox="0 0 24 24" fill="none" xmlns="http://www.w3.org/2000/svg">
<path fill-rule="evenodd" clip-rule="evenodd" d="M6 7C6 5.67392 6.52678 4.40215 7.46447 3.46447C8.40215 2.52678 9.67392 2 11 2C12.3261 2 13.5979 2.52678 14.5355 3.46447C15.4732 4.40215 16 5.67392 16 7C16 8.32608 15.4732 9.59785 14.5355 10.5355C13.5979 11.4732 12.3261 12 11 12C9.67392 12 8.40215 11.4732 7.46447 10.5355C6.52678 9.59785 6 8.32608 6 7ZM11 4C10.606 4 10.2159 4.0776 9.85195 4.22836C9.48797 4.37913 9.15726 4.6001 8.87868 4.87868C8.6001 5.15726 8.37913 5.48797 8.22836 5.85195C8.0776 6.21593 8 6.60603 8 7C8 7.39397 8.0776 7.78407 8.22836 8.14805C8.37913 8.51203 8.6001 8.84274 8.87868 9.12132C9.15726 9.3999 9.48797 9.62087 9.85195 9.77164C10.2159 9.9224 10.606 10 11 10C11.7956 10 12.5587 9.68393 13.1213 9.12132C13.6839 8.55871 14 7.79565 14 7C14 6.20435 13.6839 5.44129 13.1213 4.87868C12.5587 4.31607 11.7956 4 11 4ZM11 13C13.396 13 15.575 13.694 17.178 14.672C17.978 15.16 18.662 15.736 19.156 16.362C19.642 16.977 20 17.713 20 18.5C20 19.345 19.589 20.011 18.997 20.486C18.437 20.936 17.698 21.234 16.913 21.442C15.335 21.859 13.229 22 11 22C8.771 22 6.665 21.86 5.087 21.442C4.302 21.234 3.563 20.936 3.003 20.486C2.41 20.01 2 19.345 2 18.5C2 17.713 2.358 16.977 2.844 16.361C3.338 15.736 4.021 15.161 4.822 14.671C6.425 13.695 8.605 13 11 13ZM11 15C8.977 15 7.157 15.59 5.864 16.379C5.217 16.773 4.729 17.201 4.414 17.601C4.09 18.011 4 18.321 4 18.5C4 18.622 4.037 18.751 4.255 18.926C4.504 19.126 4.937 19.333 5.599 19.508C6.917 19.858 8.811 20 11 20C13.19 20 15.083 19.857 16.4 19.508C17.063 19.333 17.496 19.126 17.745 18.926C17.963 18.751 18 18.622 18 18.5C18 18.32 17.91 18.011 17.587 17.601C17.271 17.201 16.783 16.773 16.136 16.379C14.843 15.589 13.023 15 11 15ZM21 13C21.2549 13.0003 21.5 13.0979 21.6854 13.2728C21.8707 13.4478 21.9822 13.687 21.9972 13.9414C22.0121 14.1958 21.9293 14.4464 21.7657 14.6418C21.6021 14.8373 21.3701 14.9629 21.117 14.993L21 15H20C19.7451 14.9997 19.5 14.9021 19.3146 14.7272C19.1293 14.5522 19.0178 14.313 19.0028 14.0586C18.9879 13.8042 19.0707 13.5536 19.2343 13.3582C19.3979 13.1627 19.6299 13.0371 19.883 13.007L20 13H21ZM18 11C18 10.7348 18.1054 10.4804 18.2929 10.2929C18.4804 10.1054 18.7348 10 19 10H21C21.2652 10 21.5196 10.1054 21.7071 10.2929C21.8946 10.4804 22 10.7348 22 11C22 11.2652 21.8946 11.5196 21.7071 11.7071C21.5196 11.8946 21.2652 12 21 12H19C18.7348 12 18.4804 11.8946 18.2929 11.7071C18.1054 11.5196 18 11.2652 18 11ZM18 7C17.7348 7 17.4804 7.10536 17.2929 7.29289C17.1054 7.48043 17 7.73478 17 8C17 8.26522 17.1054 8.51957 17.2929 8.70711C17.4804 8.89464 17.7348 9 18 9H21C21.2652 9 21.5196 8.89464 21.7071 8.70711C21.8946 8.51957 22 8.26522 22 8C22 7.73478 21.8946 7.48043 21.7071 7.29289C21.5196 7.10536 21.2652 7 21 7H18Z" fill="currentColor"/>
</svg>
