<svg width="24" height="24" viewBox="0 0 24 24" fill="none" xmlns="http://www.w3.org/2000/svg">
<path d="M4 4C3.73478 4 3.48043 4.10536 3.29289 4.29289C3.10536 4.48043 3 4.73478 3 5C3 5.26522 3.10536 5.51957 3.29289 5.70711C3.48043 5.89464 3.73478 6 4 6H20C20.2652 6 20.5196 5.89464 20.7071 5.70711C20.8946 5.51957 21 5.26522 21 5C21 4.73478 20.8946 4.48043 20.7071 4.29289C20.5196 4.10536 20.2652 4 20 4H4ZM17 8C17.2086 8.00008 17.4119 8.06539 17.5816 8.18679C17.7512 8.30818 17.8786 8.47959 17.946 8.677L18.076 9.055C18.224 9.48875 18.4694 9.88283 18.7934 10.207C19.1174 10.5312 19.5113 10.7768 19.945 10.925L20.323 11.054C20.5202 11.1216 20.6913 11.2491 20.8125 11.4187C20.9337 11.5883 20.9988 11.7915 20.9988 12C20.9988 12.2085 20.9337 12.4117 20.8125 12.5813C20.6913 12.7509 20.5202 12.8784 20.323 12.946L19.945 13.076C19.5112 13.224 19.1172 13.4694 18.793 13.7934C18.4688 14.1174 18.2232 14.5113 18.075 14.945L17.946 15.323C17.8784 15.5202 17.7509 15.6913 17.5813 15.8125C17.4117 15.9337 17.2085 15.9988 17 15.9988C16.7915 15.9988 16.5883 15.9337 16.4187 15.8125C16.2491 15.6913 16.1216 15.5202 16.054 15.323L15.924 14.945C15.776 14.5112 15.5306 14.1172 15.2066 13.793C14.8826 13.4688 14.4887 13.2232 14.055 13.075L13.677 12.946C13.4798 12.8784 13.3087 12.7509 13.1875 12.5813C13.0663 12.4117 13.0012 12.2085 13.0012 12C13.0012 11.7915 13.0663 11.5883 13.1875 11.4187C13.3087 11.2491 13.4798 11.1216 13.677 11.054L14.055 10.924C14.4888 10.776 14.8828 10.5306 15.207 10.2066C15.5312 9.88262 15.7768 9.48868 15.925 9.055L16.054 8.677C16.1214 8.47959 16.2488 8.30818 16.4184 8.18679C16.5881 8.06539 16.7914 8.00008 17 8ZM17 11.196C16.7634 11.4937 16.4937 11.7634 16.196 12C16.494 12.236 16.763 12.506 17 12.804C17.236 12.506 17.506 12.236 17.804 12C17.5063 11.7634 17.2366 11.4937 17 11.196ZM3 19C3 18.7348 3.10536 18.4804 3.29289 18.2929C3.48043 18.1054 3.73478 18 4 18H5C5.26522 18 5.51957 18.1054 5.70711 18.2929C5.89464 18.4804 6 18.7348 6 19C6 19.2652 5.89464 19.5196 5.70711 19.7071C5.51957 19.8946 5.26522 20 5 20H4C3.73478 20 3.48043 19.8946 3.29289 19.7071C3.10536 19.5196 3 19.2652 3 19ZM14 18C13.7348 18 13.4804 18.1054 13.2929 18.2929C13.1054 18.4804 13 18.7348 13 19C13 19.2652 13.1054 19.5196 13.2929 19.7071C13.4804 19.8946 13.7348 20 14 20H15C15.2652 20 15.5196 19.8946 15.7071 19.7071C15.8946 19.5196 16 19.2652 16 19C16 18.7348 15.8946 18.4804 15.7071 18.2929C15.5196 18.1054 15.2652 18 15 18H14ZM8 19C8 18.7348 8.10536 18.4804 8.29289 18.2929C8.48043 18.1054 8.73478 18 9 18H10C10.2652 18 10.5196 18.1054 10.7071 18.2929C10.8946 18.4804 11 18.7348 11 19C11 19.2652 10.8946 19.5196 10.7071 19.7071C10.5196 19.8946 10.2652 20 10 20H9C8.73478 20 8.48043 19.8946 8.29289 19.7071C8.10536 19.5196 8 19.2652 8 19ZM19 18C18.7348 18 18.4804 18.1054 18.2929 18.2929C18.1054 18.4804 18 18.7348 18 19C18 19.2652 18.1054 19.5196 18.2929 19.7071C18.4804 19.8946 18.7348 20 19 20H20C20.2652 20 20.5196 19.8946 20.7071 19.7071C20.8946 19.5196 21 19.2652 21 19C21 18.7348 20.8946 18.4804 20.7071 18.2929C20.5196 18.1054 20.2652 18 20 18H19ZM3 12C3 11.7348 3.10536 11.4804 3.29289 11.2929C3.48043 11.1054 3.73478 11 4 11H10C10.2652 11 10.5196 11.1054 10.7071 11.2929C10.8946 11.4804 11 11.7348 11 12C11 12.2652 10.8946 12.5196 10.7071 12.7071C10.5196 12.8946 10.2652 13 10 13H4C3.73478 13 3.48043 12.8946 3.29289 12.7071C3.10536 12.5196 3 12.2652 3 12Z" fill="currentColor"/>
</svg>
