<svg width="24" height="24" viewBox="0 0 24 24" fill="none" xmlns="http://www.w3.org/2000/svg">
<path fill-rule="evenodd" clip-rule="evenodd" d="M15 14C16.2885 14.0001 17.5272 14.4975 18.4578 15.3887C19.3884 16.2798 19.9391 17.4958 19.995 18.783L20 19V21C19.9997 21.2549 19.9021 21.5 19.7272 21.6854C19.5522 21.8707 19.313 21.9822 19.0586 21.9972C18.8042 22.0121 18.5536 21.9293 18.3582 21.7657C18.1627 21.6021 18.0371 21.3701 18.007 21.117L18 21V19C18 18.2348 17.7077 17.4985 17.1827 16.9417C16.6578 16.385 15.9399 16.0499 15.176 16.005L15 16H7C6.23479 16 5.49849 16.2923 4.94174 16.8173C4.38499 17.3422 4.04989 18.0601 4.005 18.824L4 19V21C3.99972 21.2549 3.90212 21.5 3.72715 21.6854C3.55218 21.8707 3.31305 21.9822 3.05861 21.9972C2.80416 22.0121 2.55362 21.9293 2.35817 21.7657C2.16271 21.6021 2.0371 21.3701 2.007 21.117L2 21V19C2.00007 17.7115 2.49754 16.4728 3.38866 15.5422C4.27978 14.6116 5.49575 14.0609 6.783 14.005L7 14H15ZM21 13C21.2652 13 21.5196 13.1054 21.7071 13.2929C21.8946 13.4804 22 13.7348 22 14C22 14.2652 21.8946 14.5196 21.7071 14.7071C21.5196 14.8946 21.2652 15 21 15H20C19.7348 15 19.4804 14.8946 19.2929 14.7071C19.1054 14.5196 19 14.2652 19 14C19 13.7348 19.1054 13.4804 19.2929 13.2929C19.4804 13.1054 19.7348 13 20 13H21ZM11 2C12.3261 2 13.5979 2.52678 14.5355 3.46447C15.4732 4.40215 16 5.67392 16 7C16 8.32608 15.4732 9.59785 14.5355 10.5355C13.5979 11.4732 12.3261 12 11 12C9.67392 12 8.40215 11.4732 7.46447 10.5355C6.52678 9.59785 6 8.32608 6 7C6 5.67392 6.52678 4.40215 7.46447 3.46447C8.40215 2.52678 9.67392 2 11 2ZM21 10C21.2652 10 21.5196 10.1054 21.7071 10.2929C21.8946 10.4804 22 10.7348 22 11C22 11.2652 21.8946 11.5196 21.7071 11.7071C21.5196 11.8946 21.2652 12 21 12H19C18.7348 12 18.4804 11.8946 18.2929 11.7071C18.1054 11.5196 18 11.2652 18 11C18 10.7348 18.1054 10.4804 18.2929 10.2929C18.4804 10.1054 18.7348 10 19 10H21ZM11 4C10.606 4 10.2159 4.0776 9.85195 4.22836C9.48797 4.37913 9.15726 4.6001 8.87868 4.87868C8.6001 5.15726 8.37913 5.48797 8.22836 5.85195C8.0776 6.21593 8 6.60603 8 7C8 7.39397 8.0776 7.78407 8.22836 8.14805C8.37913 8.51203 8.6001 8.84274 8.87868 9.12132C9.15726 9.3999 9.48797 9.62087 9.85195 9.77164C10.2159 9.9224 10.606 10 11 10C11.7956 10 12.5587 9.68393 13.1213 9.12132C13.6839 8.55871 14 7.79565 14 7C14 6.20435 13.6839 5.44129 13.1213 4.87868C12.5587 4.31607 11.7956 4 11 4ZM21 7C21.2549 7.00028 21.5 7.09788 21.6854 7.27285C21.8707 7.44782 21.9822 7.68695 21.9972 7.94139C22.0121 8.19584 21.9293 8.44638 21.7657 8.64183C21.6021 8.83729 21.3701 8.9629 21.117 8.993L21 9H18C17.7451 8.99972 17.5 8.90212 17.3146 8.72715C17.1293 8.55218 17.0178 8.31305 17.0028 8.05861C16.9879 7.80416 17.0707 7.55362 17.2343 7.35817C17.3979 7.16271 17.6299 7.0371 17.883 7.007L18 7H21Z" fill="currentColor"/>
</svg>
