<svg width="24" height="24" viewBox="0 0 24 24" fill="none" xmlns="http://www.w3.org/2000/svg">
<path d="M11.9997 2C12.5792 1.99992 13.1517 2.12575 13.6778 2.36877C14.2038 2.6118 14.6708 2.96621 15.0464 3.4075C15.4219 3.84879 15.6971 4.36641 15.8529 4.92454C16.0087 5.48267 16.0414 6.06799 15.9487 6.64L16.1547 6.585C16.537 6.47715 16.937 6.44632 17.3314 6.49429C17.7257 6.54226 18.1066 6.66808 18.452 6.86444C18.7973 7.06081 19.1002 7.32381 19.3431 7.63819C19.586 7.95256 19.764 8.31204 19.8669 8.69577C19.9697 9.0795 19.9953 9.47983 19.9422 9.87353C19.889 10.2672 19.7583 10.6465 19.5574 10.9892C19.3565 11.332 19.0896 11.6314 18.772 11.8701C18.4545 12.1089 18.0927 12.2822 17.7077 12.38L15.9997 12.838V13.598L17.8477 16.799C18.0478 17.1403 18.1784 17.5178 18.232 17.9098C18.2856 18.3018 18.2611 18.7005 18.16 19.083C18.0589 19.4655 17.8831 19.8243 17.6428 20.1385C17.4024 20.4528 17.1023 20.7165 16.7597 20.9143C16.417 21.1121 16.0387 21.2402 15.6463 21.2912C15.254 21.3422 14.8554 21.3151 14.4736 21.2114C14.0918 21.1078 13.7343 20.9296 13.4216 20.6872C13.1089 20.4448 12.8472 20.1429 12.6517 19.799L11.9997 18.67L11.3477 19.8C10.947 20.4834 10.2923 20.9806 9.52645 21.1831C8.76057 21.3856 7.94568 21.2769 7.25961 20.8808C6.57355 20.4847 6.07202 19.8333 5.86445 19.0688C5.65689 18.3043 5.76015 17.4887 6.1517 16.8L7.9997 13.6V12.839L6.2917 12.381C5.90666 12.2832 5.54487 12.1099 5.22735 11.8711C4.90982 11.6324 4.64288 11.333 4.44201 10.9902C4.24114 10.6475 4.11035 10.2682 4.05722 9.87453C4.00409 9.48083 4.02969 9.0805 4.13253 8.69677C4.23536 8.31304 4.41339 7.95356 4.65627 7.63919C4.89916 7.32481 5.20206 7.06181 5.54741 6.86544C5.89275 6.66908 6.27366 6.54326 6.66802 6.49529C7.06238 6.44732 7.46235 6.47815 7.8447 6.586L8.0507 6.641C7.95782 6.06892 7.99037 5.48349 8.1461 4.92523C8.30182 4.36698 8.577 3.84923 8.95259 3.40783C9.32818 2.96642 9.7952 2.61191 10.3213 2.36883C10.8475 2.12575 11.4201 1.9999 11.9997 2ZM11.9997 4C11.5993 4.00006 11.2081 4.12029 10.8768 4.34515C10.5455 4.57 10.2893 4.88913 10.1414 5.26121C9.99352 5.63329 9.9607 6.0412 10.0472 6.43215C10.1337 6.82309 10.3356 7.17907 10.6267 7.454C10.7885 7.60681 10.8946 7.80921 10.9284 8.02915C10.9622 8.2491 10.9216 8.47402 10.8132 8.66833C10.7047 8.86263 10.5345 9.01521 10.3296 9.10191C10.1247 9.18861 9.89667 9.20448 9.6817 9.147L7.3267 8.517C7.19865 8.47892 7.06426 8.46688 6.93148 8.48159C6.7987 8.4963 6.67021 8.53747 6.55361 8.60267C6.437 8.66787 6.33464 8.75577 6.25257 8.86118C6.1705 8.96659 6.11039 9.08738 6.07577 9.21641C6.04116 9.34544 6.03275 9.4801 6.05104 9.61244C6.06934 9.74477 6.11396 9.8721 6.18228 9.98691C6.2506 10.1017 6.34123 10.2017 6.44882 10.2809C6.55641 10.36 6.67878 10.4169 6.8087 10.448L9.2587 11.105C9.47114 11.162 9.65888 11.2874 9.79284 11.4618C9.9268 11.6363 9.9995 11.85 9.9997 12.07V13.866C9.99969 14.0415 9.95347 14.214 9.8657 14.366L7.8837 17.8C7.817 17.9138 7.77346 18.0396 7.7556 18.1703C7.73773 18.3009 7.74589 18.4338 7.7796 18.5613C7.81331 18.6888 7.8719 18.8084 7.95201 18.9132C8.03212 19.0179 8.13216 19.1058 8.24637 19.1718C8.36058 19.2377 8.48671 19.2804 8.61749 19.2974C8.74827 19.3144 8.88112 19.3054 9.00839 19.2708C9.13566 19.2363 9.25484 19.1769 9.35907 19.0961C9.4633 19.0153 9.55052 18.9146 9.6157 18.8L10.9427 16.501C11.0305 16.349 11.1567 16.2227 11.3087 16.135C11.4607 16.0472 11.6332 16.001 11.8087 16.001H12.1907C12.3661 16.0012 12.5383 16.0475 12.6901 16.1352C12.8419 16.223 12.968 16.3491 13.0557 16.501L14.3837 18.801C14.5172 19.0288 14.7355 19.1945 14.9908 19.262C15.2461 19.3295 15.5177 19.2933 15.7464 19.1613C15.9751 19.0292 16.1423 18.8121 16.2114 18.5573C16.2806 18.3024 16.2462 18.0306 16.1157 17.801L14.1337 14.367C14.0459 14.215 13.9997 14.0425 13.9997 13.867V12.07C13.9999 11.85 14.0726 11.6363 14.2066 11.4618C14.3405 11.2874 14.5283 11.162 14.7407 11.105L17.1907 10.448C17.4469 10.3793 17.6653 10.2117 17.7979 9.98192C17.9305 9.75219 17.9664 9.4792 17.8977 9.223C17.829 8.9668 17.6614 8.74838 17.4316 8.61579C17.2019 8.48321 16.9289 8.44731 16.6727 8.516L14.3177 9.147C14.1027 9.20448 13.8747 9.18861 13.6698 9.10191C13.4648 9.01521 13.2947 8.86263 13.1862 8.66833C13.0778 8.47402 13.0372 8.2491 13.071 8.02915C13.1048 7.80921 13.2109 7.60681 13.3727 7.454C13.6638 7.17907 13.8657 6.82309 13.9522 6.43215C14.0387 6.0412 14.0059 5.63329 13.858 5.26121C13.7101 4.88913 13.4539 4.57 13.1226 4.34515C12.7913 4.12029 12.4001 4.00006 11.9997 4ZM11.9997 13C12.2649 13 12.5193 13.1054 12.7068 13.2929C12.8943 13.4804 12.9997 13.7348 12.9997 14C12.9997 14.2652 12.8943 14.5196 12.7068 14.7071C12.5193 14.8946 12.2649 15 11.9997 15C11.7345 15 11.4801 14.8946 11.2926 14.7071C11.1051 14.5196 10.9997 14.2652 10.9997 14C10.9997 13.7348 11.1051 13.4804 11.2926 13.2929C11.4801 13.1054 11.7345 13 11.9997 13ZM11.9997 10C12.2649 10 12.5193 10.1054 12.7068 10.2929C12.8943 10.4804 12.9997 10.7348 12.9997 11C12.9997 11.2652 12.8943 11.5196 12.7068 11.7071C12.5193 11.8946 12.2649 12 11.9997 12C11.7345 12 11.4801 11.8946 11.2926 11.7071C11.1051 11.5196 10.9997 11.2652 10.9997 11C10.9997 10.7348 11.1051 10.4804 11.2926 10.2929C11.4801 10.1054 11.7345 10 11.9997 10Z" fill="currentColor"/>
</svg>
