<svg width="24" height="24" viewBox="0 0 24 24" fill="none" xmlns="http://www.w3.org/2000/svg">
<path fill-rule="evenodd" clip-rule="evenodd" d="M6 4C6.55228 4 7 4.44772 7 5V12C7 12.5523 7.44772 13 8 13H16.5858L13.7929 10.2071C13.4024 9.81657 13.4024 9.1834 13.7929 8.79288C14.1834 8.40236 14.8166 8.40236 15.2071 8.79288L19.7071 13.2929C20.0976 13.6834 20.0976 14.3166 19.7071 14.7071L15.2071 19.2071C14.8166 19.5976 14.1834 19.5976 13.7929 19.2071C13.4024 18.8166 13.4024 18.1834 13.7929 17.7929L16.5858 15H8C6.34315 15 5 13.6569 5 12V5C5 4.44772 5.44772 4 6 4Z" fill="currentColor"/>
</svg>
