<svg width="24" height="24" viewBox="0 0 24 24" fill="none" xmlns="http://www.w3.org/2000/svg">
<path fill-rule="evenodd" clip-rule="evenodd" d="M18 4C18.5523 4 19 4.44772 19 5V12C19 13.6569 17.6569 15 16 15H7.41421L10.2071 17.7929C10.5976 18.1834 10.5976 18.8166 10.2071 19.2071C9.81658 19.5976 9.18342 19.5976 8.79289 19.2071L4.29289 14.7071C3.90237 14.3166 3.90237 13.6834 4.29289 13.2929L8.79289 8.79289C9.18342 8.40237 9.81658 8.40237 10.2071 8.79289C10.5976 9.18342 10.5976 9.81658 10.2071 10.2071L7.41421 13H16C16.5523 13 17 12.5523 17 12V5C17 4.44772 17.4477 4 18 4Z" fill="currentColor"/>
</svg>
