<svg width="24" height="24" viewBox="0 0 24 24" fill="none" xmlns="http://www.w3.org/2000/svg">
<path fill-rule="evenodd" clip-rule="evenodd" d="M13.7929 3.79289C14.1834 3.40237 14.8166 3.40237 15.2071 3.79289L19.7071 8.2929C20.0976 8.68342 20.0976 9.31659 19.7071 9.70711L15.2071 14.2071C14.8166 14.5976 14.1834 14.5976 13.7929 14.2071C13.4024 13.8166 13.4024 13.1834 13.7929 12.7929L16.5858 10H8C7.44772 10 7 10.4477 7 11V18C7 18.5523 6.55228 19 6 19C5.44772 19 5 18.5523 5 18V11C5 9.34315 6.34315 8 8 8H16.5858L13.7929 5.20711C13.4024 4.81658 13.4024 4.18342 13.7929 3.79289Z" fill="currentColor"/>
</svg>
