<svg width="24" height="24" viewBox="0 0 24 24" fill="none" xmlns="http://www.w3.org/2000/svg">
<path d="M19 3C19.5046 2.99984 19.9906 3.19041 20.3605 3.5335C20.7305 3.87659 20.9572 4.34684 20.995 4.85L21 5V19C21.0002 19.5046 20.8096 19.9906 20.4665 20.3605C20.1234 20.7305 19.6532 20.9572 19.15 20.995L19 21H5C4.49542 21.0002 4.00943 20.8096 3.63945 20.4665C3.26947 20.1234 3.04284 19.6532 3.005 19.15L3 19V5C2.99984 4.49542 3.19041 4.00943 3.5335 3.63945C3.87659 3.26947 4.34684 3.04284 4.85 3.005L5 3H19ZM19 5H5V19H19V5ZM7.793 13.379L8.5 14.086L9.207 13.379C9.3956 13.1968 9.6482 13.096 9.9104 13.0983C10.1726 13.1006 10.4234 13.2058 10.6088 13.3912C10.7942 13.5766 10.8994 13.8274 10.9017 14.0896C10.904 14.3518 10.8032 14.6044 10.621 14.793L9.914 15.5L10.621 16.207C10.8032 16.3956 10.904 16.6482 10.9017 16.9104C10.8994 17.1726 10.7942 17.4234 10.6088 17.6088C10.4234 17.7942 10.1726 17.8994 9.9104 17.9017C9.6482 17.904 9.3956 17.8032 9.207 17.621L8.5 16.914L7.793 17.621C7.6044 17.8032 7.3518 17.904 7.0896 17.9017C6.8274 17.8994 6.57659 17.7942 6.39118 17.6088C6.20577 17.4234 6.1006 17.1726 6.09833 16.9104C6.09605 16.6482 6.19684 16.3956 6.379 16.207L7.086 15.5L6.379 14.793C6.28349 14.7008 6.20731 14.5904 6.1549 14.4684C6.10249 14.3464 6.0749 14.2152 6.07375 14.0824C6.0726 13.9496 6.0979 13.8179 6.14818 13.695C6.19846 13.5722 6.27271 13.4605 6.3666 13.3666C6.4605 13.2727 6.57215 13.1985 6.69505 13.1482C6.81794 13.0979 6.94962 13.0726 7.0824 13.0737C7.21518 13.0749 7.3464 13.1025 7.4684 13.1549C7.59041 13.2073 7.70075 13.2835 7.793 13.379ZM17 15.75C17.2549 15.7503 17.5 15.8479 17.6854 16.0228C17.8707 16.1978 17.9822 16.437 17.9972 16.6914C18.0121 16.9458 17.9293 17.1964 17.7657 17.3918C17.6021 17.5873 17.3701 17.7129 17.117 17.743L17 17.75H14C13.7451 17.7497 13.5 17.6521 13.3146 17.4772C13.1293 17.3022 13.0178 17.063 13.0028 16.8086C12.9879 16.5542 13.0707 16.3036 13.2343 16.1082C13.3979 15.9127 13.6299 15.7871 13.883 15.757L14 15.75H17ZM17 13.25C17.2652 13.25 17.5196 13.3554 17.7071 13.5429C17.8946 13.7304 18 13.9848 18 14.25C18 14.5152 17.8946 14.7696 17.7071 14.9571C17.5196 15.1446 17.2652 15.25 17 15.25H14C13.7348 15.25 13.4804 15.1446 13.2929 14.9571C13.1054 14.7696 13 14.5152 13 14.25C13 13.9848 13.1054 13.7304 13.2929 13.5429C13.4804 13.3554 13.7348 13.25 14 13.25H17ZM15.5 6.5C15.7652 6.5 16.0196 6.60536 16.2071 6.79289C16.3946 6.98043 16.5 7.23478 16.5 7.5V8H17C17.2652 8 17.5196 8.10536 17.7071 8.29289C17.8946 8.48043 18 8.73478 18 9C18 9.26522 17.8946 9.51957 17.7071 9.70711C17.5196 9.89464 17.2652 10 17 10H16.5V10.5C16.5 10.7652 16.3946 11.0196 16.2071 11.2071C16.0196 11.3946 15.7652 11.5 15.5 11.5C15.2348 11.5 14.9804 11.3946 14.7929 11.2071C14.6054 11.0196 14.5 10.7652 14.5 10.5V10H14C13.7348 10 13.4804 9.89464 13.2929 9.70711C13.1054 9.51957 13 9.26522 13 9C13 8.73478 13.1054 8.48043 13.2929 8.29289C13.4804 8.10536 13.7348 8 14 8H14.5V7.5C14.5 7.23478 14.6054 6.98043 14.7929 6.79289C14.9804 6.60536 15.2348 6.5 15.5 6.5ZM10 8C10.2652 8 10.5196 8.10536 10.7071 8.29289C10.8946 8.48043 11 8.73478 11 9C11 9.26522 10.8946 9.51957 10.7071 9.70711C10.5196 9.89464 10.2652 10 10 10H7C6.73478 10 6.48043 9.89464 6.29289 9.70711C6.10536 9.51957 6 9.26522 6 9C6 8.73478 6.10536 8.48043 6.29289 8.29289C6.48043 8.10536 6.73478 8 7 8H10Z" fill="currentColor"/>
</svg>
