<svg width="24" height="24" viewBox="0 0 24 24" fill="none" xmlns="http://www.w3.org/2000/svg">
<path fill-rule="evenodd" clip-rule="evenodd" d="M9 4C9 3.46957 9.21071 2.96086 9.58579 2.58579C9.96086 2.21071 10.4696 2 11 2H13C13.5304 2 14.0391 2.21071 14.4142 2.58579C14.7893 2.96086 15 3.46957 15 4V7H18C18.5304 7 19.0391 7.21071 19.4142 7.58579C19.7893 7.96086 20 8.46957 20 9V11C20 11.5304 19.7893 12.0391 19.4142 12.4142C19.0391 12.7893 18.5304 13 18 13H15V20C15 20.5304 14.7893 21.0391 14.4142 21.4142C14.0391 21.7893 13.5304 22 13 22H11C10.4696 22 9.96086 21.7893 9.58579 21.4142C9.21071 21.0391 9 20.5304 9 20V13H6C5.46957 13 4.96086 12.7893 4.58579 12.4142C4.21071 12.0391 4 11.5304 4 11V9C4 8.46957 4.21071 7.96086 4.58579 7.58579C4.96086 7.21071 5.46957 7 6 7H9V4ZM13 4H11V8C11 8.26522 10.8946 8.51957 10.7071 8.70711C10.5196 8.89464 10.2652 9 10 9H6V11H10C10.2652 11 10.5196 11.1054 10.7071 11.2929C10.8946 11.4804 11 11.7348 11 12V20H13V12C13 11.7348 13.1054 11.4804 13.2929 11.2929C13.4804 11.1054 13.7348 11 14 11H18V9H14C13.7348 9 13.4804 8.89464 13.2929 8.70711C13.1054 8.51957 13 8.26522 13 8V4Z" fill="currentColor"/>
</svg>
