<svg width="24" height="24" viewBox="0 0 24 24" fill="none" xmlns="http://www.w3.org/2000/svg">
<path fill-rule="evenodd" clip-rule="evenodd" d="M12 4C10.9391 4 9.92172 4.42143 9.17157 5.17157C8.42143 5.92172 8 6.93913 8 8V9.5C8 9.63261 8.05268 9.75979 8.14645 9.85355C8.24021 9.94732 8.36739 10 8.5 10C8.63261 10 8.75979 9.94732 8.85355 9.85355C8.94732 9.75979 9 9.63261 9 9.5V8C9 7.20435 9.31607 6.44129 9.87868 5.87868C10.4413 5.31607 11.2044 5 12 5C12.7956 5 13.5587 5.31607 14.1213 5.87868C14.6839 6.44129 15 7.20435 15 8V19.5C15 19.6326 15.0527 19.7598 15.1464 19.8536C15.2402 19.9473 15.3674 20 15.5 20C15.6326 20 15.7598 19.9473 15.8536 19.8536C15.9473 19.7598 16 19.6326 16 19.5V8C16 6.93913 15.5786 5.92172 14.8284 5.17157C14.0783 4.42143 13.0609 4 12 4ZM6 8C6 6.4087 6.63214 4.88258 7.75736 3.75736C8.88258 2.63214 10.4087 2 12 2C13.5913 2 15.1174 2.63214 16.2426 3.75736C17.3679 4.88258 18 6.4087 18 8V19.5C18 20.163 17.7366 20.7989 17.2678 21.2678C16.7989 21.7366 16.163 22 15.5 22C14.837 22 14.2011 21.7366 13.7322 21.2678C13.2634 20.7989 13 20.163 13 19.5V8C13 7.73478 12.8946 7.48043 12.7071 7.29289C12.5196 7.10536 12.2652 7 12 7C11.7348 7 11.4804 7.10536 11.2929 7.29289C11.1054 7.48043 11 7.73478 11 8V9.5C11 10.163 10.7366 10.7989 10.2678 11.2678C9.79893 11.7366 9.16304 12 8.5 12C7.83696 12 7.20107 11.7366 6.73223 11.2678C6.26339 10.7989 6 10.163 6 9.5V8Z" fill="currentColor"/>
</svg>
