<svg width="24" height="24" viewBox="0 0 24 24" fill="none" xmlns="http://www.w3.org/2000/svg">
<path d="M11.9997 2C13.7586 2.00012 15.4741 2.54589 16.9098 3.56207C18.3455 4.57825 19.4306 6.01478 20.0154 7.67361C20.6003 9.33243 20.6562 11.1319 20.1753 12.8238C19.6944 14.5157 18.7006 16.0167 17.3307 17.12L17.1047 17.297L17.8147 20.137C17.8671 20.3473 17.8733 20.5665 17.8329 20.7795C17.7925 20.9924 17.7064 21.1941 17.5806 21.3706C17.4547 21.5471 17.2921 21.6942 17.104 21.8018C16.9158 21.9094 16.7066 21.975 16.4907 21.994L16.3597 22H7.63967C7.42285 21.9999 7.20863 21.9529 7.01175 21.862C6.81488 21.7712 6.64004 21.6388 6.49927 21.4739C6.3585 21.3089 6.25516 21.1155 6.19636 20.9068C6.13756 20.6981 6.1247 20.4791 6.15867 20.265L6.18467 20.136L6.89467 17.296C5.46879 16.2248 4.41594 14.7323 3.88517 13.0297C3.3544 11.3271 3.3726 9.50074 3.93719 7.80906C4.50179 6.11738 5.58417 4.64614 7.03111 3.60361C8.47806 2.56108 10.2163 2.00007 11.9997 2ZM15.2197 18H8.77967L8.27967 20H15.7197L15.2197 18ZM11.9997 4C10.59 3.99959 9.21847 4.45744 8.09174 5.30453C6.96501 6.15162 6.1442 7.34203 5.75304 8.69631C5.36188 10.0506 5.42157 11.4953 5.92313 12.8127C6.42468 14.1301 7.3409 15.2487 8.53367 16H15.4657C16.6584 15.2487 17.5747 14.1301 18.0762 12.8127C18.5778 11.4953 18.6375 10.0506 18.2463 8.69631C17.8551 7.34203 17.0343 6.15162 15.9076 5.30453C14.7809 4.45744 13.4093 3.99959 11.9997 4ZM16.1097 9.56C16.2404 9.85726 16.4203 10.1304 16.6417 10.368C16.7917 10.527 16.9587 10.668 17.1417 10.79L17.3167 10.897C17.3967 10.942 17.3967 11.057 17.3167 11.103L17.1407 11.21C16.6857 11.5118 16.3279 11.9391 16.1107 12.44C16.1015 12.4617 16.0861 12.4802 16.0664 12.4932C16.0468 12.5063 16.0237 12.5132 16.0002 12.5132C15.9766 12.5132 15.9535 12.5063 15.9339 12.4932C15.9142 12.4802 15.8989 12.4617 15.8897 12.44C15.6699 11.9406 15.3122 11.5143 14.8587 11.211L14.6827 11.103C14.6643 11.0928 14.6491 11.0778 14.6385 11.0597C14.6278 11.0416 14.6222 11.021 14.6222 11C14.6222 10.979 14.6278 10.9584 14.6385 10.9403C14.6491 10.9222 14.6643 10.9072 14.6827 10.897L14.8587 10.79C15.3137 10.4882 15.6714 10.0609 15.8887 9.56C15.8979 9.53829 15.9132 9.51978 15.9329 9.50676C15.9525 9.49374 15.9756 9.48679 15.9992 9.48679C16.0227 9.48679 16.0458 9.49374 16.0654 9.50676C16.0851 9.51978 16.1005 9.53829 16.1097 9.56ZM12.8157 5.6C12.8867 5.442 13.1127 5.442 13.1837 5.6C13.4009 6.096 13.7008 6.55148 14.0707 6.947C14.3987 7.29647 14.778 7.59389 15.1957 7.829C15.2261 7.84602 15.2514 7.87084 15.269 7.9009C15.2866 7.93096 15.2959 7.96516 15.2959 8C15.2959 8.03484 15.2866 8.06905 15.269 8.0991C15.2514 8.12916 15.2261 8.15397 15.1957 8.171C14.7779 8.40639 14.3983 8.70377 14.0697 9.053C13.7003 9.44829 13.4007 9.90343 13.1837 10.399C13.168 10.4347 13.1422 10.4651 13.1095 10.4864C13.0769 10.5077 13.0387 10.5191 12.9997 10.5191C12.9607 10.5191 12.9225 10.5077 12.8898 10.4864C12.8571 10.4651 12.8314 10.4347 12.8157 10.399C12.5984 9.903 12.2985 9.44752 11.9287 9.052C11.6005 8.70324 11.2212 8.4065 10.8037 8.172C10.773 8.15505 10.7475 8.1302 10.7297 8.10004C10.7119 8.06988 10.7026 8.03551 10.7026 8.0005C10.7026 7.96549 10.7119 7.93112 10.7297 7.90096C10.7475 7.8708 10.773 7.84595 10.8037 7.829C11.2214 7.59361 11.6011 7.29623 11.9297 6.947C12.299 6.55171 12.5986 6.09557 12.8157 5.6Z" fill="currentColor"/>
</svg>
