<svg width="24" height="24" viewBox="0 0 24 24" fill="none" xmlns="http://www.w3.org/2000/svg">
<path fill-rule="evenodd" clip-rule="evenodd" d="M10.9998 2.423C11.2778 2.26255 11.5902 2.17134 11.9108 2.15707C12.2314 2.1428 12.5508 2.20588 12.8418 2.341L12.9998 2.423L16.3298 4.345C16.6099 4.50676 16.8465 4.73401 17.0195 5.00728C17.1924 5.28055 17.2965 5.59168 17.3228 5.914L17.3298 6.077V9.923L20.6598 11.845C20.9401 12.0066 21.1769 12.2338 21.35 12.5071C21.5232 12.7804 21.6274 13.0916 21.6538 13.414L21.6598 13.577V17.423C21.6598 17.7462 21.5815 18.0646 21.4316 18.3509C21.2816 18.6372 21.0645 18.8829 20.7988 19.067L20.6598 19.155L17.3298 21.077C17.0519 21.2374 16.7395 21.3287 16.4189 21.3429C16.0983 21.3572 15.7789 21.2941 15.4878 21.159L15.3298 21.077L11.9998 19.155L8.66984 21.077C8.39179 21.2376 8.07915 21.3289 7.75836 21.3432C7.43757 21.3575 7.11806 21.2943 6.82684 21.159L6.66984 21.077L3.33984 19.155C3.05994 18.9933 2.82339 18.7662 2.65045 18.4932C2.47751 18.2201 2.37333 17.9092 2.34684 17.587L2.33984 17.423V13.577C2.33984 13.2538 2.41817 12.9354 2.56812 12.6491C2.71807 12.3628 2.93517 12.1171 3.20084 11.933L3.33984 11.845L6.66984 9.923V6.077C6.66984 5.7538 6.74817 5.43541 6.89812 5.14909C7.04807 4.86277 7.26517 4.61707 7.53084 4.433L7.66984 4.345L10.9998 2.423ZM10.9998 14.733L8.66984 16.077V18.767L10.9998 17.424V14.733ZM12.9998 14.733V17.423L15.3298 18.768V16.078L12.9998 14.733ZM19.6598 14.733L17.3298 16.077V18.768L19.6598 17.423V14.733ZM4.33984 14.732V17.422L6.66984 18.768V16.078L4.33984 14.732ZM16.3298 11.655L13.9998 13L16.3298 14.345L18.6598 13L16.3298 11.655ZM7.66984 11.655L5.33984 13L7.66984 14.345L9.99984 13L7.66984 11.655ZM15.3298 7.232L12.9998 8.577V11.268L15.3298 9.923V7.232ZM8.66984 7.232V9.922L10.9998 11.269V8.579L8.66984 7.232ZM11.9998 4.155L9.66984 5.5L11.9998 6.845L14.3298 5.5L11.9998 4.155Z" fill="currentColor"/>
</svg>
