<svg width="24" height="24" viewBox="0 0 24 24" fill="none" xmlns="http://www.w3.org/2000/svg">
<path fill-rule="evenodd" clip-rule="evenodd" d="M11.5001 2.13401C11.6521 2.04624 11.8245 2.00003 12.0001 2.00003C12.1756 2.00003 12.348 2.04624 12.5001 2.13401L14.5001 3.28901C14.7279 3.42256 14.8936 3.64079 14.9611 3.89609C15.0286 4.15138 14.9924 4.42301 14.8603 4.6517C14.7283 4.88039 14.5112 5.04757 14.2563 5.11675C14.0015 5.18594 13.7296 5.15152 13.5001 5.021L13.0001 4.732V6.00001C13.0001 6.26522 12.8947 6.51958 12.7072 6.70711C12.5196 6.89465 12.2653 7 12.0001 7C11.7348 7 11.4805 6.89465 11.2929 6.70711C11.1054 6.51958 11.0001 6.26522 11.0001 6.00001V4.732L10.5001 5.021C10.2705 5.15152 9.99863 5.18594 9.74379 5.11675C9.48895 5.04757 9.27182 4.88039 9.13978 4.6517C9.00774 4.42301 8.97152 4.15138 9.03902 3.89609C9.10651 3.64079 9.27225 3.42256 9.50005 3.28901L11.5001 2.13401ZM7.07205 5.845C7.20466 6.07468 7.24059 6.34763 7.17195 6.6038C7.10332 6.85998 6.93573 7.07839 6.70605 7.21101L6.20605 7.5L7.30405 8.134C7.4187 8.19919 7.51932 8.2864 7.60012 8.39063C7.68092 8.49486 7.74031 8.61404 7.77486 8.74131C7.80942 8.86859 7.81846 9.00144 7.80146 9.13222C7.78446 9.263 7.74176 9.38912 7.67582 9.50333C7.60988 9.61754 7.522 9.71758 7.41723 9.79769C7.31247 9.8778 7.1929 9.93639 7.0654 9.9701C6.9379 10.0038 6.80499 10.012 6.67433 9.9941C6.54367 9.97624 6.41783 9.9327 6.30405 9.866L5.20605 9.23201V9.809C5.20605 10.0742 5.1007 10.3286 4.91316 10.5161C4.72563 10.7036 4.47127 10.809 4.20605 10.809C3.94084 10.809 3.68648 10.7036 3.49895 10.5161C3.31141 10.3286 3.20605 10.0742 3.20605 9.809V7.5C3.20623 7.32464 3.25253 7.15241 3.34029 7.00059C3.42804 6.84876 3.55419 6.72269 3.70605 6.635L5.70605 5.48001C5.93573 5.3474 6.20868 5.31147 6.46485 5.38011C6.72103 5.44874 6.93944 5.61633 7.07205 5.84601V5.845ZM16.9281 5.845C17.0607 5.61533 17.2791 5.44774 17.5353 5.37911C17.7914 5.31047 18.0644 5.3464 18.2941 5.47901L20.2941 6.634C20.4461 6.72177 20.5723 6.848 20.6601 7.00002C20.7478 7.15203 20.7941 7.32447 20.7941 7.5V9.81001C20.7941 10.0752 20.6887 10.3296 20.5012 10.5171C20.3136 10.7046 20.0593 10.81 19.7941 10.81C19.5288 10.81 19.2745 10.7046 19.0869 10.5171C18.8994 10.3296 18.7941 10.0752 18.7941 9.81001V9.23201L17.6961 9.866C17.4665 9.99652 17.1946 10.0309 16.9398 9.96175C16.6849 9.89257 16.4678 9.72539 16.3358 9.4967C16.2037 9.26801 16.1675 8.99638 16.235 8.74109C16.3025 8.48579 16.4682 8.26756 16.6961 8.134L17.7941 7.5L17.2941 7.21101C17.0644 7.07839 16.8968 6.85998 16.8282 6.6038C16.7595 6.34763 16.7955 6.07468 16.9281 5.845ZM8.53605 10C8.66867 9.77033 8.88708 9.60274 9.14326 9.53411C9.39943 9.46547 9.67238 9.5014 9.90205 9.634L12.0001 10.845L14.0981 9.634C14.3276 9.50349 14.5995 9.46907 14.8543 9.53826C15.1092 9.60744 15.3263 9.77462 15.4583 10.0033C15.5904 10.232 15.6266 10.5036 15.5591 10.7589C15.4916 11.0142 15.3259 11.2325 15.0981 11.366L13.0001 12.577V15C13.0001 15.2652 12.8947 15.5196 12.7072 15.7071C12.5196 15.8946 12.2653 16 12.0001 16C11.7348 16 11.4805 15.8946 11.2929 15.7071C11.1054 15.5196 11.0001 15.2652 11.0001 15V12.577L8.90205 11.366C8.67238 11.2334 8.50479 11.015 8.43616 10.7588C8.36752 10.5026 8.40345 10.2297 8.53605 10ZM4.20605 13.19C4.47127 13.19 4.72563 13.2954 4.91316 13.4829C5.1007 13.6704 5.20605 13.9248 5.20605 14.19V14.768L6.30405 14.134C6.53361 14.0035 6.80548 13.9691 7.06032 14.0383C7.31516 14.1074 7.53229 14.2746 7.66433 14.5033C7.79637 14.732 7.83259 15.0036 7.76509 15.2589C7.6976 15.5142 7.53186 15.7325 7.30405 15.866L6.20605 16.5L6.70605 16.789C6.8207 16.8542 6.92132 16.9414 7.00212 17.0456C7.08292 17.1499 7.14231 17.269 7.17686 17.3963C7.21142 17.5236 7.22046 17.6564 7.20346 17.7872C7.18646 17.918 7.14376 18.0441 7.07782 18.1583C7.01188 18.2725 6.924 18.3726 6.81923 18.4527C6.71447 18.5328 6.5949 18.5914 6.4674 18.6251C6.3399 18.6588 6.20699 18.667 6.07633 18.6491C5.94567 18.6312 5.81983 18.5877 5.70605 18.521L3.70605 17.366C3.55404 17.2782 3.4278 17.152 3.34004 17C3.25227 16.848 3.20606 16.6755 3.20605 16.5V14.19C3.20605 13.9248 3.31141 13.6704 3.49895 13.4829C3.68648 13.2954 3.94084 13.19 4.20605 13.19ZM19.7941 13.19C20.0593 13.19 20.3136 13.2954 20.5012 13.4829C20.6887 13.6704 20.7941 13.9248 20.7941 14.19V16.5C20.7941 16.6755 20.7478 16.848 20.6601 17C20.5723 17.152 20.4461 17.2782 20.2941 17.366L18.2941 18.521C18.1803 18.5877 18.0544 18.6312 17.9238 18.6491C17.7931 18.667 17.6602 18.6588 17.5327 18.6251C17.4052 18.5914 17.2856 18.5328 17.1809 18.4527C17.0761 18.3726 16.9882 18.2725 16.9223 18.1583C16.8563 18.0441 16.8136 17.918 16.7967 17.7872C16.7797 17.6564 16.7887 17.5236 16.8232 17.3963C16.8578 17.269 16.9172 17.1499 16.998 17.0456C17.0788 16.9414 17.1794 16.8542 17.2941 16.789L17.7941 16.5L16.6961 15.866C16.5814 15.8008 16.4808 15.7136 16.4 15.6094C16.3192 15.5052 16.2598 15.386 16.2252 15.2587C16.1907 15.1314 16.1817 14.9986 16.1987 14.8678C16.2156 14.737 16.2583 14.6109 16.3243 14.4967C16.3902 14.3825 16.4781 14.2824 16.5829 14.2023C16.6876 14.1222 16.8072 14.0636 16.9347 14.0299C17.0622 13.9962 17.1951 13.988 17.3258 14.0059C17.4564 14.0238 17.5823 14.0673 17.6961 14.134L18.7941 14.768V14.191C18.7941 13.9258 18.8994 13.6714 19.0869 13.4839C19.2745 13.2964 19.5288 13.191 19.7941 13.191V13.19ZM12.0001 17C12.2653 17 12.5196 17.1054 12.7072 17.2929C12.8947 17.4804 13.0001 17.7348 13.0001 18V19.268L13.5001 18.979C13.6138 18.9123 13.7397 18.8688 13.8703 18.8509C14.001 18.833 14.1339 18.8412 14.2614 18.8749C14.3889 18.9086 14.5085 18.9672 14.6132 19.0473C14.718 19.1274 14.8059 19.2275 14.8718 19.3417C14.9378 19.4559 14.9805 19.582 14.9975 19.7128C15.0145 19.8436 15.0054 19.9764 14.9709 20.1037C14.9363 20.231 14.8769 20.3502 14.7961 20.4544C14.7153 20.5586 14.6147 20.6458 14.5001 20.711L12.5001 21.866C12.348 21.9538 12.1756 22 12.0001 22C11.8245 22 11.6521 21.9538 11.5001 21.866L9.50005 20.711C9.38541 20.6458 9.28479 20.5586 9.20399 20.4544C9.12319 20.3502 9.0638 20.231 9.02924 20.1037C8.99469 19.9764 8.98565 19.8436 9.00265 19.7128C9.01965 19.582 9.06235 19.4559 9.12829 19.3417C9.19423 19.2275 9.28211 19.1274 9.38688 19.0473C9.49164 18.9672 9.61121 18.9086 9.73871 18.8749C9.86621 18.8412 9.99912 18.833 10.1298 18.8509C10.2604 18.8688 10.3863 18.9123 10.5001 18.979L11.0001 19.268V18C11.0001 17.7348 11.1054 17.4804 11.2929 17.2929C11.4805 17.1054 11.7348 17 12.0001 17Z" fill="currentColor"/>
</svg>
