<svg width="24" height="24" viewBox="0 0 24 24" fill="none" xmlns="http://www.w3.org/2000/svg">
<path fill-rule="evenodd" clip-rule="evenodd" d="M12.0003 3C13.2515 3.00002 14.4714 3.39108 15.4895 4.11849C16.5075 4.84591 17.2728 5.8733 17.6783 7.057C18.3815 7.17805 19.0396 7.48498 19.5843 7.94598C20.129 8.40697 20.5405 9.00525 20.7761 9.67881C21.0118 10.3524 21.063 11.0767 20.9244 11.7767C20.7859 12.4767 20.4627 13.127 19.9883 13.66C19.9783 13.718 19.9633 13.777 19.9433 13.834L19.9083 13.919L17.4443 19.257C17.218 19.7475 16.8635 20.1678 16.4182 20.4735C15.9729 20.7792 15.4533 20.9591 14.9143 20.994L14.7203 21H9.28028C8.7401 21 8.20996 20.8541 7.74582 20.5777C7.28168 20.3014 6.90076 19.9049 6.64328 19.43L6.55628 19.257L4.09228 13.919C4.054 13.8367 4.02709 13.7496 4.01228 13.66C3.53786 13.127 3.21464 12.4767 3.07611 11.7767C2.93759 11.0767 2.9888 10.3524 3.22444 9.67881C3.46008 9.00525 3.87157 8.40697 4.41626 7.94598C4.96096 7.48498 5.61903 7.17805 6.32228 7.057C6.72775 5.8733 7.49302 4.84591 8.51107 4.11849C9.52912 3.39108 10.7491 3.00002 12.0003 3ZM17.0003 15H7.00028C6.92328 15 6.95528 15.182 7.05028 15.462L7.14728 15.725L7.33628 16.185L7.55828 16.688L7.86828 17.36L8.37228 18.42C8.45247 18.5933 8.58058 18.74 8.74149 18.8427C8.90239 18.9455 9.08935 19.0001 9.28028 19H14.7203C14.9112 19.0001 15.0982 18.9455 15.2591 18.8427C15.42 18.74 15.5481 18.5933 15.6283 18.42L16.2863 17.029L16.5183 16.519L16.6643 16.185L16.7953 15.871L16.9053 15.589C17.0333 15.237 17.0883 15 17.0003 15ZM12.0003 5C11.0783 5.00019 10.1846 5.31874 9.47032 5.90181C8.75607 6.48487 8.26505 7.29668 8.08028 8.2C8.03336 8.43171 7.90586 8.63931 7.72042 8.78595C7.53497 8.93258 7.30357 9.00878 7.06728 9.001L7.00028 9C6.4813 8.99768 5.98173 9.19719 5.60713 9.55638C5.23252 9.91557 5.01221 10.4063 4.99274 10.9249C4.97326 11.4436 5.15615 11.9494 5.50277 12.3357C5.84939 12.722 6.33258 12.9584 6.85028 12.995L7.00028 13H17.0003C17.5193 13.0023 18.0188 12.8028 18.3934 12.4436C18.768 12.0844 18.9883 11.5937 19.0078 11.0751C19.0273 10.5564 18.8444 10.0506 18.4978 9.66428C18.1512 9.27801 17.668 9.0416 17.1503 9.005L17.0003 9L16.9333 9.001C16.6971 9.00882 16.4658 8.93277 16.2804 8.78633C16.095 8.63989 15.9674 8.43253 15.9203 8.201C15.7357 7.2975 15.2448 6.48546 14.5305 5.90219C13.8162 5.31893 12.9224 5.00024 12.0003 5Z" fill="currentColor"/>
</svg>
