<svg width="24" height="24" viewBox="0 0 24 24" fill="none" xmlns="http://www.w3.org/2000/svg">
<path d="M10 4C11.2885 4.00007 12.5272 4.49754 13.4578 5.38866C14.3884 6.27978 14.9391 7.49575 14.995 8.783L15 9V15C14.9997 15.2549 14.9021 15.5 14.7272 15.6854C14.5522 15.8707 14.313 15.9822 14.0586 15.9972C13.8042 16.0121 13.5536 15.9293 13.3582 15.7657C13.1627 15.6021 13.0371 15.3701 13.007 15.117L13 15V9C13 8.23479 12.7077 7.49849 12.1827 6.94174C11.6578 6.38499 10.9399 6.04989 10.176 6.005L10 6H7V19C6.99972 19.2549 6.90212 19.5 6.72715 19.6854C6.55218 19.8707 6.31305 19.9822 6.05861 19.9972C5.80416 20.0121 5.55362 19.9293 5.35817 19.7657C5.16271 19.6021 5.0371 19.3701 5.007 19.117L5 19V5C5.00003 4.75507 5.08996 4.51866 5.25272 4.33563C5.41547 4.15259 5.63975 4.03566 5.883 4.007L6 4H10ZM18 4C18.2449 4.00003 18.4813 4.08996 18.6644 4.25272C18.8474 4.41547 18.9643 4.63975 18.993 4.883L19 5V19C19 19.2449 18.91 19.4813 18.7473 19.6644C18.5845 19.8474 18.3603 19.9643 18.117 19.993L18 20H14C12.7115 19.9999 11.4728 19.5025 10.5422 18.6113C9.61161 17.7202 9.06092 16.5042 9.005 15.217L9 15V9C9.00028 8.74512 9.09788 8.49997 9.27285 8.31463C9.44782 8.1293 9.68695 8.01776 9.94139 8.00283C10.1958 7.98789 10.4464 8.07067 10.6418 8.23426C10.8373 8.39785 10.9629 8.6299 10.993 8.883L11 9V15C11 15.7652 11.2923 16.5015 11.8173 17.0583C12.3422 17.615 13.0601 17.9501 13.824 17.995L14 18H17V5C17 4.73478 17.1054 4.48043 17.2929 4.29289C17.4804 4.10536 17.7348 4 18 4Z" fill="currentColor"/>
</svg>
