<svg width="24" height="24" viewBox="0 0 24 24" fill="none" xmlns="http://www.w3.org/2000/svg">
<path d="M11.0001 3C11.2653 3 11.5196 3.10536 11.7072 3.29289C11.8947 3.48043 12.0001 3.73478 12.0001 4V7.382L14.5531 6.106C14.789 5.99702 15.058 5.98416 15.3033 6.07014C15.5485 6.15611 15.7506 6.33418 15.8668 6.56661C15.9831 6.79904 16.0042 7.06758 15.9259 7.31535C15.8475 7.56312 15.6758 7.77066 15.4471 7.894L12.0001 9.618V11.382L14.5531 10.106C14.6709 10.0424 14.8004 10.0032 14.9337 9.99061C15.067 9.97802 15.2015 9.99234 15.3292 10.0327C15.4569 10.0731 15.5752 10.1387 15.677 10.2257C15.7789 10.3126 15.8622 10.4192 15.9221 10.539C15.982 10.6588 16.0172 10.7893 16.0257 10.923C16.0342 11.0567 16.0157 11.1906 15.9714 11.317C15.9271 11.4434 15.8578 11.5596 15.7678 11.6587C15.6777 11.7578 15.5686 11.8378 15.4471 11.894L12.0001 13.618V18.836C12.8223 18.588 13.5959 18.2007 14.2871 17.691C15.5161 16.797 16.5991 15.482 17.0301 13.758C17.098 13.5047 17.2627 13.2883 17.4888 13.1553C17.7148 13.0223 17.984 12.9834 18.2384 13.047C18.4928 13.1106 18.7121 13.2716 18.8489 13.4953C18.9858 13.719 19.0293 13.9875 18.9701 14.243C18.4011 16.518 16.9841 18.203 15.4631 19.309C13.9681 20.396 12.2661 21 11.0001 21C10.7348 21 10.4805 20.8946 10.2929 20.7071C10.1054 20.5196 10.0001 20.2652 10.0001 20V14.618L7.44705 15.894C7.32918 15.9576 7.19973 15.9968 7.0664 16.0094C6.93307 16.022 6.79857 16.0077 6.67088 15.9673C6.54319 15.9269 6.42492 15.8613 6.32307 15.7743C6.22122 15.6874 6.13788 15.5808 6.07799 15.461C6.01809 15.3412 5.98287 15.2107 5.97441 15.077C5.96595 14.9433 5.98442 14.8094 6.02873 14.683C6.07304 14.5566 6.14228 14.4404 6.23235 14.3413C6.32242 14.2422 6.43147 14.1622 6.55305 14.106L10.0001 12.382V10.618L7.44705 11.894C7.32918 11.9576 7.19973 11.9968 7.0664 12.0094C6.93307 12.022 6.79857 12.0077 6.67088 11.9673C6.54319 11.9269 6.42492 11.8613 6.32307 11.7743C6.22122 11.6874 6.13788 11.5808 6.07799 11.461C6.01809 11.3412 5.98287 11.2107 5.97441 11.077C5.96595 10.9433 5.98442 10.8094 6.02873 10.683C6.07304 10.5566 6.14228 10.4404 6.23235 10.3413C6.32242 10.2422 6.43147 10.1622 6.55305 10.106L10.0001 8.382V4C10.0001 3.73478 10.1054 3.48043 10.2929 3.29289C10.4805 3.10536 10.7348 3 11.0001 3Z" fill="currentColor"/>
</svg>
