<svg width="24" height="24" viewBox="0 0 24 24" fill="none" xmlns="http://www.w3.org/2000/svg">
<path d="M7.84801 3.47001C7.70744 3.2451 7.48329 3.08525 7.22487 3.02561C6.96644 2.96598 6.69491 3.01144 6.47001 3.15201C6.2451 3.29257 6.08525 3.51672 6.02561 3.77515C5.96598 4.03357 6.01144 4.3051 6.15201 4.53001L10.196 11H7.00001C6.73479 11 6.48044 11.1054 6.2929 11.2929C6.10536 11.4804 6.00001 11.7348 6.00001 12C6.00001 12.2652 6.10536 12.5196 6.2929 12.7071C6.48044 12.8946 6.73479 13 7.00001 13H11V15H7.00001C6.73479 15 6.48044 15.1054 6.2929 15.2929C6.10536 15.4804 6.00001 15.7348 6.00001 16C6.00001 16.2652 6.10536 16.5196 6.2929 16.7071C6.48044 16.8946 6.73479 17 7.00001 17H11V20C11 20.2652 11.1054 20.5196 11.2929 20.7071C11.4804 20.8946 11.7348 21 12 21C12.2652 21 12.5196 20.8946 12.7071 20.7071C12.8946 20.5196 13 20.2652 13 20V17H17C17.2652 17 17.5196 16.8946 17.7071 16.7071C17.8946 16.5196 18 16.2652 18 16C18 15.7348 17.8946 15.4804 17.7071 15.2929C17.5196 15.1054 17.2652 15 17 15H13V13H17C17.2652 13 17.5196 12.8946 17.7071 12.7071C17.8946 12.5196 18 12.2652 18 12C18 11.7348 17.8946 11.4804 17.7071 11.2929C17.5196 11.1054 17.2652 11 17 11H13.804L17.848 4.53001C17.9176 4.41864 17.9646 4.29467 17.9863 4.16515C18.008 4.03563 18.0039 3.9031 17.9744 3.77515C17.9449 3.64719 17.8904 3.5263 17.8142 3.41938C17.7379 3.31246 17.6414 3.22161 17.53 3.15201C17.4186 3.0824 17.2947 3.03542 17.1651 3.01373C17.0356 2.99205 16.9031 2.99608 16.7751 3.02561C16.6472 3.05514 16.5263 3.10958 16.4194 3.18583C16.3125 3.26208 16.2216 3.35864 16.152 3.47001L12 10.113L7.84801 3.47001Z" fill="currentColor"/>
</svg>
