<svg width="24" height="24" viewBox="0 0 24 24" fill="none" xmlns="http://www.w3.org/2000/svg">
<path fill-rule="evenodd" clip-rule="evenodd" d="M13 3C13.2652 3 13.5196 3.10536 13.7071 3.29289C13.8946 3.48043 14 3.73478 14 4V5C14.8125 4.99995 15.6058 5.24734 16.2742 5.70924C16.9426 6.17114 17.4546 6.82565 17.7419 7.58567C18.0291 8.34569 18.0782 9.17518 17.8824 9.96375C17.6866 10.7523 17.2554 11.4626 16.646 12C17.2554 12.5374 17.6866 13.2477 17.8824 14.0362C18.0782 14.8248 18.0291 15.6543 17.7419 16.4143C17.4546 17.1744 16.9426 17.8289 16.2742 18.2908C15.6058 18.7527 14.8125 19 14 19V20C14 20.2652 13.8946 20.5196 13.7071 20.7071C13.5196 20.8946 13.2652 21 13 21C12.7348 21 12.4804 20.8946 12.2929 20.7071C12.1054 20.5196 12 20.2652 12 20V19H10V20C10 20.2652 9.89464 20.5196 9.70711 20.7071C9.51957 20.8946 9.26522 21 9 21C8.73478 21 8.48043 20.8946 8.29289 20.7071C8.10536 20.5196 8 20.2652 8 20V19H6C5.73478 19 5.48043 18.8946 5.29289 18.7071C5.10536 18.5196 5 18.2652 5 18C5 17.7348 5.10536 17.4804 5.29289 17.2929C5.48043 17.1054 5.73478 17 6 17H7V7H6C5.73478 7 5.48043 6.89464 5.29289 6.70711C5.10536 6.51957 5 6.26522 5 6C5 5.73478 5.10536 5.48043 5.29289 5.29289C5.48043 5.10536 5.73478 5 6 5H8V4C8 3.73478 8.10536 3.48043 8.29289 3.29289C8.48043 3.10536 8.73478 3 9 3C9.26522 3 9.51957 3.10536 9.70711 3.29289C9.89464 3.48043 10 3.73478 10 4V5H12V4C12 3.73478 12.1054 3.48043 12.2929 3.29289C12.4804 3.10536 12.7348 3 13 3ZM14 13H9V17H14C14.5304 17 15.0391 16.7893 15.4142 16.4142C15.7893 16.0391 16 15.5304 16 15C16 14.4696 15.7893 13.9609 15.4142 13.5858C15.0391 13.2107 14.5304 13 14 13ZM14 7H9V11H14C14.519 11.0023 15.0185 10.8028 15.3932 10.4436C15.7678 10.0844 15.9881 9.59368 16.0075 9.07506C16.027 8.55644 15.8441 8.05055 15.4975 7.66428C15.1509 7.27801 14.6677 7.0416 14.15 7.005L14 7Z" fill="currentColor"/>
</svg>
