<svg width="24" height="24" viewBox="0 0 24 24" fill="none" xmlns="http://www.w3.org/2000/svg">
<path fill-rule="evenodd" clip-rule="evenodd" d="M12 2C17.523 2 22 6.477 22 12C22 17.523 17.523 22 12 22C6.477 22 2 17.523 2 12C2 6.477 6.477 2 12 2ZM12 4C9.87827 4 7.84344 4.84285 6.34315 6.34315C4.84285 7.84344 4 9.87827 4 12C4 14.1217 4.84285 16.1566 6.34315 17.6569C7.84344 19.1571 9.87827 20 12 20C14.1217 20 16.1566 19.1571 17.6569 17.6569C19.1571 16.1566 20 14.1217 20 12C20 9.87827 19.1571 7.84344 17.6569 6.34315C16.1566 4.84285 14.1217 4 12 4ZM13 6C13.2449 6.00003 13.4813 6.08996 13.6644 6.25272C13.8474 6.41547 13.9643 6.63975 13.993 6.883L14 7V8H14.5C14.9643 8 15.4194 8.12929 15.8143 8.37337C16.2093 8.61746 16.5284 8.9667 16.7361 9.38197C16.9437 9.79723 17.0316 10.2621 16.9899 10.7245C16.9482 11.1869 16.7786 11.6286 16.5 12C16.7703 12.3603 16.9383 12.7869 16.9861 13.2347C17.034 13.6826 16.96 14.1351 16.7719 14.5443C16.5838 14.9536 16.2886 15.3044 15.9176 15.5598C15.5466 15.8151 15.1134 15.9655 14.664 15.995L14.5 16H14V17C13.9997 17.2549 13.9021 17.5 13.7272 17.6854C13.5522 17.8707 13.313 17.9822 13.0586 17.9972C12.8042 18.0121 12.5536 17.9293 12.3582 17.7657C12.1627 17.6021 12.0371 17.3701 12.007 17.117L12 17V16H11V17C10.9997 17.2549 10.9021 17.5 10.7272 17.6854C10.5522 17.8707 10.313 17.9822 10.0586 17.9972C9.80416 18.0121 9.55362 17.9293 9.35817 17.7657C9.16271 17.6021 9.0371 17.3701 9.007 17.117L9 17V16H8C7.74512 15.9997 7.49997 15.9021 7.31463 15.7272C7.1293 15.5522 7.01777 15.313 7.00283 15.0586C6.98789 14.8042 7.07067 14.5536 7.23426 14.3582C7.39786 14.1627 7.6299 14.0371 7.883 14.007L8 14V10C7.74512 9.99972 7.49997 9.90212 7.31463 9.72715C7.1293 9.55218 7.01777 9.31305 7.00283 9.05861C6.98789 8.80416 7.07067 8.55362 7.23426 8.35817C7.39786 8.16271 7.6299 8.0371 7.883 8.007L8 8H9V7C9.00028 6.74512 9.09788 6.49997 9.27285 6.31463C9.44782 6.1293 9.68695 6.01777 9.94139 6.00283C10.1958 5.98789 10.4464 6.07067 10.6418 6.23426C10.8373 6.39786 10.9629 6.6299 10.993 6.883L11 7V8H12V7C12 6.73478 12.1054 6.48043 12.2929 6.29289C12.4804 6.10536 12.7348 6 13 6ZM14.5 13H10V14H14.5C14.6249 14.0002 14.7455 13.9537 14.8378 13.8695C14.9301 13.7853 14.9876 13.6696 14.9989 13.5452C15.0102 13.4207 14.9745 13.2966 14.8988 13.1972C14.8231 13.0977 14.7129 13.0303 14.59 13.008L14.5 13ZM14.5 10H10V11H14.5C14.6326 11 14.7598 10.9473 14.8536 10.8536C14.9473 10.7598 15 10.6326 15 10.5C15 10.3674 14.9473 10.2402 14.8536 10.1464C14.7598 10.0527 14.6326 10 14.5 10Z" fill="currentColor"/>
</svg>
