<svg width="24" height="24" viewBox="0 0 24 24" fill="none" xmlns="http://www.w3.org/2000/svg">
<path fill-rule="evenodd" clip-rule="evenodd" d="M12 3C12.2652 3 12.5196 3.10536 12.7071 3.29289C12.8946 3.48043 13 3.73478 13 4V5H14C14.8125 4.99995 15.6058 5.24734 16.2742 5.70924C16.9426 6.17114 17.4546 6.82565 17.7419 7.58567C18.0291 8.34569 18.0782 9.17518 17.8824 9.96375C17.6866 10.7523 17.2554 11.4626 16.646 12C17.2554 12.5374 17.6866 13.2477 17.8824 14.0362C18.0782 14.8248 18.0291 15.6543 17.7419 16.4143C17.4546 17.1744 16.9426 17.8289 16.2742 18.2908C15.6058 18.7527 14.8125 19 14 19H13V20C13 20.2652 12.8946 20.5196 12.7071 20.7071C12.5196 20.8946 12.2652 21 12 21C11.7348 21 11.4804 20.8946 11.2929 20.7071C11.1054 20.5196 11 20.2652 11 20V19H8.1C7.95555 19 7.81251 18.9715 7.67905 18.9163C7.54559 18.861 7.42433 18.78 7.32218 18.6778C7.22004 18.5757 7.13901 18.4544 7.08373 18.321C7.02845 18.1875 7 18.0445 7 17.9V6.1C7 5.80826 7.11589 5.52847 7.32218 5.32218C7.52847 5.11589 7.80826 5 8.1 5H11V4C11 3.73478 11.1054 3.48043 11.2929 3.29289C11.4804 3.10536 11.7348 3 12 3ZM9 13V17H14C14.5304 17 15.0391 16.7893 15.4142 16.4142C15.7893 16.0391 16 15.5304 16 15C16 14.4696 15.7893 13.9609 15.4142 13.5858C15.0391 13.2107 14.5304 13 14 13H9ZM9 11H14C14.5304 11 15.0391 10.7893 15.4142 10.4142C15.7893 10.0391 16 9.53043 16 9C16 8.46957 15.7893 7.96086 15.4142 7.58579C15.0391 7.21071 14.5304 7 14 7H9V11Z" fill="currentColor"/>
</svg>
