<svg width="24" height="24" viewBox="0 0 24 24" fill="none" xmlns="http://www.w3.org/2000/svg">
<path fill-rule="evenodd" clip-rule="evenodd" d="M12 2C17.523 2 22 6.477 22 12C22 17.523 17.523 22 12 22C6.477 22 2 17.523 2 12C2 6.477 6.477 2 12 2ZM12 4C9.87827 4 7.84344 4.84285 6.34315 6.34315C4.84285 7.84344 4 9.87827 4 12C4 14.1217 4.84285 16.1566 6.34315 17.6569C7.84344 19.1571 9.87827 20 12 20C14.1217 20 16.1566 19.1571 17.6569 17.6569C19.1571 16.1566 20 14.1217 20 12C20 9.87827 19.1571 7.84344 17.6569 6.34315C16.1566 4.84285 14.1217 4 12 4ZM13.5 6C13.9596 6 14.4148 6.09053 14.8394 6.26642C15.264 6.44231 15.6499 6.70012 15.9749 7.02513C16.2999 7.35013 16.5577 7.73597 16.7336 8.16061C16.9095 8.58525 17 9.04037 17 9.5C17 9.95963 16.9095 10.4148 16.7336 10.8394C16.5577 11.264 16.2999 11.6499 15.9749 11.9749C15.6499 12.2999 15.264 12.5577 14.8394 12.7336C14.4148 12.9095 13.9596 13 13.5 13H11V14H13C13.2652 14 13.5196 14.1054 13.7071 14.2929C13.8946 14.4804 14 14.7348 14 15C14 15.2652 13.8946 15.5196 13.7071 15.7071C13.5196 15.8946 13.2652 16 13 16H11V17C11 17.2652 10.8946 17.5196 10.7071 17.7071C10.5196 17.8946 10.2652 18 10 18C9.73478 18 9.48043 17.8946 9.29289 17.7071C9.10536 17.5196 9 17.2652 9 17V16H8.5C8.23478 16 7.98043 15.8946 7.79289 15.7071C7.60536 15.5196 7.5 15.2652 7.5 15C7.5 14.7348 7.60536 14.4804 7.79289 14.2929C7.98043 14.1054 8.23478 14 8.5 14H9V13H8.5C8.23478 13 7.98043 12.8946 7.79289 12.7071C7.60536 12.5196 7.5 12.2652 7.5 12C7.5 11.7348 7.60536 11.4804 7.79289 11.2929C7.98043 11.1054 8.23478 11 8.5 11H9V7C9 6.73478 9.10536 6.48043 9.29289 6.29289C9.48043 6.10536 9.73478 6 10 6H13.5ZM13.5 8H11V11H13.5C13.8978 11 14.2794 10.842 14.5607 10.5607C14.842 10.2794 15 9.89782 15 9.5C15 9.10218 14.842 8.72064 14.5607 8.43934C14.2794 8.15804 13.8978 8 13.5 8Z" fill="currentColor"/>
</svg>
