<svg width="24" height="24" viewBox="0 0 24 24" fill="none" xmlns="http://www.w3.org/2000/svg">
<path d="M8.73 9C9.688 7.187 11.482 6 13.471 6C14.936 6 16.278 6.632 17.273 7.686C17.457 7.86981 17.7054 7.97469 17.9655 7.97838C18.2256 7.98208 18.4768 7.88431 18.666 7.7058C18.8552 7.5273 18.9674 7.28212 18.9787 7.02227C18.9901 6.76243 18.8998 6.50837 18.727 6.314C17.387 4.894 15.533 4 13.471 4C10.292 4 7.644 6.097 6.545 9H5C4.73478 9 4.48043 9.10536 4.29289 9.29289C4.10536 9.48043 4 9.73478 4 10C4 10.2652 4.10536 10.5196 4.29289 10.7071C4.48043 10.8946 4.73478 11 5 11H6.058C5.98095 11.6644 5.98095 12.3356 6.058 13H5C4.73478 13 4.48043 13.1054 4.29289 13.2929C4.10536 13.4804 4 13.7348 4 14C4 14.2652 4.10536 14.5196 4.29289 14.7071C4.48043 14.8946 4.73478 15 5 15H6.545C7.644 17.903 10.292 20 13.471 20C15.533 20 17.388 19.106 18.727 17.686C18.8998 17.4916 18.9901 17.2376 18.9787 16.9777C18.9674 16.7179 18.8552 16.4727 18.666 16.2942C18.4768 16.1157 18.2256 16.0179 17.9655 16.0216C17.7054 16.0253 17.457 16.1302 17.273 16.314C16.278 17.368 14.936 18 13.47 18C11.481 18 9.687 16.813 8.729 15H13C13.2652 15 13.5196 14.8946 13.7071 14.7071C13.8946 14.5196 14 14.2652 14 14C14 13.7348 13.8946 13.4804 13.7071 13.2929C13.5196 13.1054 13.2652 13 13 13H8.075C7.97664 12.337 7.97664 11.663 8.075 11H13C13.2652 11 13.5196 10.8946 13.7071 10.7071C13.8946 10.5196 14 10.2652 14 10C14 9.73478 13.8946 9.48043 13.7071 9.29289C13.5196 9.10536 13.2652 9 13 9H8.73Z" fill="currentColor"/>
</svg>
