<svg width="24" height="24" viewBox="0 0 24 24" fill="none" xmlns="http://www.w3.org/2000/svg">
<path fill-rule="evenodd" clip-rule="evenodd" d="M8.5 3C8.69449 3.0001 8.88473 3.05691 9.04742 3.16348C9.21012 3.27005 9.3382 3.42175 9.416 3.6L11.78 9H15V4C15 3.73478 15.1054 3.48043 15.2929 3.29289C15.4804 3.10536 15.7348 3 16 3C16.2652 3 16.5196 3.10536 16.7071 3.29289C16.8946 3.48043 17 3.73478 17 4V9H19C19.2652 9 19.5196 9.10536 19.7071 9.29289C19.8946 9.48043 20 9.73478 20 10C20 10.2652 19.8946 10.5196 19.7071 10.7071C19.5196 10.8946 19.2652 11 19 11H17V13H19C19.2652 13 19.5196 13.1054 19.7071 13.2929C19.8946 13.4804 20 13.7348 20 14C20 14.2652 19.8946 14.5196 19.7071 14.7071C19.5196 14.8946 19.2652 15 19 15H17V20C17 20.2652 16.8946 20.5196 16.7071 20.7071C16.5196 20.8946 16.2652 21 16 21H15.5C15.3055 20.9999 15.1153 20.9431 14.9526 20.8365C14.7899 20.73 14.6618 20.5783 14.584 20.4L12.22 15H9V20C9 20.2652 8.89464 20.5196 8.70711 20.7071C8.51957 20.8946 8.26522 21 8 21C7.73478 21 7.48043 20.8946 7.29289 20.7071C7.10536 20.5196 7 20.2652 7 20V15H5C4.73478 15 4.48043 14.8946 4.29289 14.7071C4.10536 14.5196 4 14.2652 4 14C4 13.7348 4.10536 13.4804 4.29289 13.2929C4.48043 13.1054 4.73478 13 5 13H7V11H5C4.73478 11 4.48043 10.8946 4.29289 10.7071C4.10536 10.5196 4 10.2652 4 10C4 9.73478 4.10536 9.48043 4.29289 9.29289C4.48043 9.10536 4.73478 9 5 9H7V4C7 3.73478 7.10536 3.48043 7.29289 3.29289C7.48043 3.10536 7.73478 3 8 3H8.5ZM15 15H14.404L15 16.362V15ZM10.471 11H9V13H11.346L10.471 11ZM15 11H12.654L13.529 13H15V11ZM9 7.638V9H9.596L9 7.638Z" fill="currentColor"/>
</svg>
