<svg width="24" height="24" viewBox="0 0 24 24" fill="none" xmlns="http://www.w3.org/2000/svg">
<path d="M12 2C17.523 2 22 6.477 22 12C22 17.523 17.523 22 12 22C6.477 22 2 17.523 2 12C2 6.477 6.477 2 12 2ZM12 4C9.87827 4 7.84344 4.84285 6.34315 6.34315C4.84285 7.84344 4 9.87827 4 12C4 14.1217 4.84285 16.1566 6.34315 17.6569C7.84344 19.1571 9.87827 20 12 20C14.1217 20 16.1566 19.1571 17.6569 17.6569C19.1571 16.1566 20 14.1217 20 12C20 9.87827 19.1571 7.84344 17.6569 6.34315C16.1566 4.84285 14.1217 4 12 4ZM15.423 7.424C15.5287 7.50204 15.618 7.60015 15.6857 7.7127C15.7535 7.82526 15.7984 7.95007 15.8179 8.07999C15.8374 8.20991 15.8311 8.3424 15.7994 8.46989C15.7676 8.59738 15.7111 8.71737 15.633 8.823L14.024 11H15C15.2652 11 15.5196 11.1054 15.7071 11.2929C15.8946 11.4804 16 11.7348 16 12C16 12.2652 15.8946 12.5196 15.7071 12.7071C15.5196 12.8946 15.2652 13 15 13H13V14H15C15.2652 14 15.5196 14.1054 15.7071 14.2929C15.8946 14.4804 16 14.7348 16 15C16 15.2652 15.8946 15.5196 15.7071 15.7071C15.5196 15.8946 15.2652 16 15 16H13V17C13 17.2652 12.8946 17.5196 12.7071 17.7071C12.5196 17.8946 12.2652 18 12 18C11.7348 18 11.4804 17.8946 11.2929 17.7071C11.1054 17.5196 11 17.2652 11 17V16H9C8.73478 16 8.48043 15.8946 8.29289 15.7071C8.10536 15.5196 8 15.2652 8 15C8 14.7348 8.10536 14.4804 8.29289 14.2929C8.48043 14.1054 8.73478 14 9 14H11V13H9C8.73478 13 8.48043 12.8946 8.29289 12.7071C8.10536 12.5196 8 12.2652 8 12C8 11.7348 8.10536 11.4804 8.29289 11.2929C8.48043 11.1054 8.73478 11 9 11H9.976L8.367 8.823C8.28893 8.71735 8.23243 8.59736 8.20073 8.46988C8.16903 8.34239 8.16276 8.20992 8.18226 8.08001C8.20176 7.9501 8.24665 7.8253 8.31438 7.71274C8.38211 7.60019 8.47135 7.50207 8.577 7.424C8.68265 7.34593 8.80264 7.28943 8.93012 7.25773C9.05761 7.22604 9.19008 7.21976 9.31999 7.23926C9.4499 7.25876 9.5747 7.30365 9.68726 7.37138C9.79981 7.43911 9.89793 7.52835 9.976 7.634L12 10.374L14.024 7.634C14.102 7.52832 14.2001 7.43905 14.3127 7.37129C14.4253 7.30354 14.5501 7.25863 14.68 7.23912C14.8099 7.21962 14.9424 7.22591 15.0699 7.25763C15.1974 7.28936 15.3174 7.34589 15.423 7.424Z" fill="currentColor"/>
</svg>
