<svg width="24" height="24" viewBox="0 0 24 24" fill="none" xmlns="http://www.w3.org/2000/svg">
<path fill-rule="evenodd" clip-rule="evenodd" d="M12 2C17.523 2 22 6.477 22 12C22 17.523 17.523 22 12 22C6.477 22 2 17.523 2 12C2 6.477 6.477 2 12 2ZM12 4C9.87827 4 7.84344 4.84285 6.34315 6.34315C4.84285 7.84344 4 9.87827 4 12C4 14.1217 4.84285 16.1566 6.34315 17.6569C7.84344 19.1571 9.87827 20 12 20C14.1217 20 16.1566 19.1571 17.6569 17.6569C19.1571 16.1566 20 14.1217 20 12C20 9.87827 19.1571 7.84344 17.6569 6.34315C16.1566 4.84285 14.1217 4 12 4ZM12.118 6C12.949 6 13.653 6.166 14.275 6.504C14.885 6.834 15.355 7.297 15.765 7.785C15.8536 7.8849 15.9213 8.00152 15.9641 8.128C16.0069 8.25448 16.0239 8.38825 16.0142 8.52141C16.0044 8.65458 15.9681 8.78445 15.9074 8.90336C15.8466 9.02226 15.7627 9.12781 15.6605 9.21376C15.5584 9.29971 15.44 9.36433 15.3125 9.4038C15.1849 9.44327 15.0507 9.4568 14.9179 9.44359C14.785 9.43038 14.6561 9.39069 14.5388 9.32687C14.4216 9.26305 14.3183 9.17639 14.235 9.072C13.902 8.677 13.621 8.424 13.322 8.262C13.035 8.106 12.669 8 12.118 8C11.267 8 10.41 8.483 9.81 9.316L9.686 9.5H12C12.2549 9.50028 12.5 9.59788 12.6854 9.77285C12.8707 9.94782 12.9822 10.187 12.9972 10.4414C13.0121 10.6958 12.9293 10.9464 12.7657 11.1418C12.6021 11.3373 12.3701 11.4629 12.117 11.493L12 11.5H9.023C9.00749 11.6662 8.99982 11.8331 9 12L9.006 12.253L9.023 12.5H12C12.2549 12.5003 12.5 12.5979 12.6854 12.7728C12.8707 12.9478 12.9822 13.187 12.9972 13.4414C13.0121 13.6958 12.9293 13.9464 12.7657 14.1418C12.6021 14.3373 12.3701 14.4629 12.117 14.493L12 14.5H9.686C10.287 15.445 11.206 16 12.118 16C12.668 16 13.035 15.894 13.322 15.738C13.622 15.576 13.902 15.323 14.235 14.928C14.408 14.733 14.6503 14.6132 14.9103 14.5942C15.1703 14.5751 15.4274 14.6584 15.6269 14.8262C15.8264 14.994 15.9525 15.2331 15.9783 15.4925C16.0041 15.752 15.9275 16.0112 15.765 16.215C15.355 16.703 14.885 17.165 14.275 17.496C13.653 17.834 12.949 18 12.118 18C10.033 18 8.373 16.61 7.555 14.713L7.468 14.5H7C6.74512 14.4997 6.49997 14.4021 6.31463 14.2272C6.1293 14.0522 6.01777 13.813 6.00283 13.5586C5.98789 13.3042 6.07067 13.0536 6.23426 12.8582C6.39786 12.6627 6.6299 12.5371 6.883 12.507L7.018 12.5C7.00598 12.3336 6.99997 12.1668 7 12L7.005 11.75L7.018 11.5H7C6.74512 11.4997 6.49997 11.4021 6.31463 11.2272C6.1293 11.0522 6.01777 10.813 6.00283 10.5586C5.98789 10.3042 6.07067 10.0536 6.23426 9.85817C6.39786 9.66271 6.6299 9.5371 6.883 9.507L7 9.5H7.468C8.251 7.495 9.956 6 12.118 6Z" fill="currentColor"/>
</svg>
