<svg width="24" height="24" viewBox="0 0 24 24" fill="none" xmlns="http://www.w3.org/2000/svg">
<path d="M12 2C17.523 2 22 6.477 22 12C22 17.523 17.523 22 12 22C6.477 22 2 17.523 2 12C2 6.477 6.477 2 12 2ZM12 4C9.87827 4 7.84344 4.84285 6.34315 6.34315C4.84285 7.84344 4 9.87827 4 12C4 14.1217 4.84285 16.1566 6.34315 17.6569C7.84344 19.1571 9.87827 20 12 20C14.1217 20 16.1566 19.1571 17.6569 17.6569C19.1571 16.1566 20 14.1217 20 12C20 9.87827 19.1571 7.84344 17.6569 6.34315C16.1566 4.84285 14.1217 4 12 4ZM15 7C15.2652 7 15.5196 7.10536 15.7071 7.29289C15.8946 7.48043 16 7.73478 16 8C16 8.26522 15.8946 8.51957 15.7071 8.70711C15.5196 8.89464 15.2652 9 15 9H13.465C13.644 9.31 13.783 9.645 13.874 10H15C15.2652 10 15.5196 10.1054 15.7071 10.2929C15.8946 10.4804 16 10.7348 16 11C16 11.2652 15.8946 11.5196 15.7071 11.7071C15.5196 11.8946 15.2652 12 15 12H13.874C13.7204 12.5928 13.4331 13.1426 13.034 13.6072C12.635 14.0717 12.1349 14.4387 11.572 14.68L13.6 16.2C13.8122 16.3591 13.9524 16.596 13.9899 16.8586C14.0275 17.1211 13.9591 17.3878 13.8 17.6C13.6409 17.8122 13.404 17.9524 13.1414 17.99C12.8789 18.0275 12.6122 17.9591 12.4 17.8L8.41 14.807C8.23938 14.6816 8.11278 14.5054 8.0483 14.3037C7.98383 14.102 7.98477 13.8851 8.051 13.684C8.185 13.283 8.571 12.995 9.011 13H10C10.3511 13 10.6959 12.9076 11 12.732C11.304 12.5565 11.5565 12.304 11.732 12H9C8.73478 12 8.48043 11.8946 8.29289 11.7071C8.10536 11.5196 8 11.2652 8 11C8 10.7348 8.10536 10.4804 8.29289 10.2929C8.48043 10.1054 8.73478 10 9 10H11.732C11.5565 9.69597 11.304 9.4435 11 9.26796C10.6959 9.09243 10.3511 9.00001 10 9H9C8.73478 9 8.48043 8.89464 8.29289 8.70711C8.10536 8.51957 8 8.26522 8 8C8 7.73478 8.10536 7.48043 8.29289 7.29289C8.48043 7.10536 8.73478 7 9 7H15Z" fill="currentColor"/>
</svg>
