<svg width="24" height="24" viewBox="0 0 24 24" fill="none" xmlns="http://www.w3.org/2000/svg">
<path d="M16.122 5.021C15.7726 4.40726 15.2669 3.89698 14.6564 3.542C14.0459 3.18703 13.3522 3.00002 12.646 3L11.8 3.005C10.7752 3.05581 9.8092 3.49868 9.10186 4.24194C8.39453 4.9852 8.00002 5.97196 8 6.998V11H6C5.73478 11 5.48043 11.1054 5.29289 11.2929C5.10536 11.4804 5 11.7348 5 12C5 12.2652 5.10536 12.5196 5.29289 12.7071C5.48043 12.8946 5.73478 13 6 13H8V16C7.982 16.632 7.837 17.251 7.341 17.685C7.121 17.889 6.817 17.973 6.553 18.105C5.484 18.64 6.083 20.26 7.243 19.97C7.534 19.888 7.803 19.739 8.104 19.69C9.444 19.383 10.747 19.654 12.031 20.058C13.716 20.556 15.819 20.708 17.447 19.894C17.5686 19.8378 17.6776 19.7578 17.7677 19.6587C17.8578 19.5596 17.927 19.4434 17.9713 19.317C18.0156 19.1906 18.0341 19.0567 18.0256 18.923C18.0172 18.7893 17.982 18.6587 17.9221 18.539C17.8622 18.4192 17.7788 18.3126 17.677 18.2257C17.5751 18.1387 17.4569 18.0731 17.3292 18.0327C17.2015 17.9923 17.067 17.978 16.9336 17.9906C16.8003 18.0032 16.6709 18.0424 16.553 18.106C15.173 18.796 13.35 18.376 11.969 17.942C11.2467 17.7299 10.5025 17.6014 9.751 17.559C9.91934 17.0566 10.0035 16.5298 10 16V13H13C13.2652 13 13.5196 12.8946 13.7071 12.7071C13.8946 12.5196 14 12.2652 14 12C14 11.7348 13.8946 11.4804 13.7071 11.2929C13.5196 11.1054 13.2652 11 13 11H10V6.998C10.04 5.91 10.88 5 12 5L12.807 5.006C13.1501 5.03376 13.4802 5.1496 13.7654 5.3423C14.0506 5.53501 14.2812 5.79806 14.435 6.106L15.164 7.549C15.3043 7.76142 15.5204 7.91231 15.7681 7.97092C16.0159 8.02953 16.2767 7.99144 16.4973 7.86442C16.7179 7.73739 16.8818 7.531 16.9555 7.28732C17.0292 7.04364 17.0072 6.78102 16.894 6.553L16.122 5.021Z" fill="currentColor"/>
</svg>
