<svg width="24" height="24" viewBox="0 0 24 24" fill="none" xmlns="http://www.w3.org/2000/svg">
<path d="M12 2C17.523 2 22 6.477 22 12C22 17.523 17.523 22 12 22C6.477 22 2 17.523 2 12C2 6.477 6.477 2 12 2ZM12 4C9.87827 4 7.84344 4.84285 6.34315 6.34315C4.84285 7.84344 4 9.87827 4 12C4 14.1217 4.84285 16.1566 6.34315 17.6569C7.84344 19.1571 9.87827 20 12 20C14.1217 20 16.1566 19.1571 17.6569 17.6569C19.1571 16.1566 20 14.1217 20 12C20 9.87827 19.1571 7.84344 17.6569 6.34315C16.1566 4.84285 14.1217 4 12 4ZM11 6C11.2449 6.00003 11.4813 6.08996 11.6644 6.25272C11.8474 6.41547 11.9643 6.63975 11.993 6.883L12 7V8.132L13.053 7.606C13.281 7.49276 13.5436 7.47076 13.7873 7.54447C14.031 7.61819 14.2374 7.78206 14.3644 8.0027C14.4914 8.22333 14.5295 8.48411 14.4709 8.73185C14.4123 8.9796 14.2614 9.19567 14.049 9.336L13.947 9.394L12 10.368V11.132L13.053 10.606C13.281 10.4928 13.5436 10.4708 13.7873 10.5445C14.031 10.6182 14.2374 10.7821 14.3644 11.0027C14.4914 11.2233 14.5295 11.4841 14.4709 11.7319C14.4123 11.9796 14.2614 12.1957 14.049 12.336L13.947 12.394L12 13.368V15.745C12.2596 15.6419 12.5115 15.5206 12.754 15.382C13.52 14.944 14.222 14.321 14.606 13.552C14.6629 13.4316 14.7434 13.3237 14.8425 13.2348C14.9417 13.1458 15.0577 13.0776 15.1836 13.0341C15.3095 12.9907 15.4429 12.9728 15.5758 12.9815C15.7087 12.9903 15.8386 13.0255 15.9577 13.0851C16.0768 13.1448 16.1828 13.2276 16.2695 13.3288C16.3562 13.4299 16.4218 13.5474 16.4624 13.6743C16.5031 13.8011 16.5179 13.9348 16.5062 14.0675C16.4944 14.2002 16.4563 14.3292 16.394 14.447C15.779 15.679 14.73 16.557 13.746 17.118C12.786 17.668 11.736 18 11 18C10.7551 18 10.5187 17.91 10.3356 17.7473C10.1526 17.5845 10.0357 17.3603 10.007 17.117L10 17V14.368L8.947 14.894C8.71898 15.0072 8.45636 15.0292 8.21268 14.9555C7.969 14.8818 7.76261 14.7179 7.63558 14.4973C7.50856 14.2767 7.47047 14.0159 7.52908 13.7681C7.58769 13.5204 7.73858 13.3043 7.951 13.164L8.053 13.106L10 12.132V11.368L8.947 11.894C8.71898 12.0072 8.45636 12.0292 8.21268 11.9555C7.969 11.8818 7.76261 11.7179 7.63558 11.4973C7.50856 11.2767 7.47047 11.0159 7.52908 10.7681C7.58769 10.5204 7.73858 10.3043 7.951 10.164L8.053 10.106L10 9.132V7C10 6.73478 10.1054 6.48043 10.2929 6.29289C10.4804 6.10536 10.7348 6 11 6Z" fill="currentColor"/>
</svg>
