<svg width="24" height="24" viewBox="0 0 24 24" fill="none" xmlns="http://www.w3.org/2000/svg">
<path d="M12 2C17.523 2 22 6.477 22 12C22 17.523 17.523 22 12 22C6.477 22 2 17.523 2 12C2 6.477 6.477 2 12 2ZM12 4C9.87827 4 7.84344 4.84285 6.34315 6.34315C4.84285 7.84344 4 9.87827 4 12C4 14.1217 4.84285 16.1566 6.34315 17.6569C7.84344 19.1571 9.87827 20 12 20C14.1217 20 16.1566 19.1571 17.6569 17.6569C19.1571 16.1566 20 14.1217 20 12C20 9.87827 19.1571 7.84344 17.6569 6.34315C16.1566 4.84285 14.1217 4 12 4ZM10.25 7C11.3109 7 12.3283 7.42143 13.0784 8.17157C13.8286 8.92172 14.25 9.93913 14.25 11V13C14.25 13.2652 14.1446 13.5196 13.9571 13.7071C13.7696 13.8946 13.5152 14 13.25 14C12.9848 14 12.7304 13.8946 12.5429 13.7071C12.3554 13.5196 12.25 13.2652 12.25 13V11C12.25 10.4696 12.0393 9.96086 11.6642 9.58579C11.2891 9.21071 10.7804 9 10.25 9H9V16C9 16.2652 8.89464 16.5196 8.70711 16.7071C8.51957 16.8946 8.26522 17 8 17C7.73478 17 7.48043 16.8946 7.29289 16.7071C7.10536 16.5196 7 16.2652 7 16V8C7 7.73478 7.10536 7.48043 7.29289 7.29289C7.48043 7.10536 7.73478 7 8 7H10.25ZM16 7C16.2652 7 16.5196 7.10536 16.7071 7.29289C16.8946 7.48043 17 7.73478 17 8V16C17 16.2652 16.8946 16.5196 16.7071 16.7071C16.5196 16.8946 16.2652 17 16 17H13.75C12.6891 17 11.6717 16.5786 10.9216 15.8284C10.1714 15.0783 9.75 14.0609 9.75 13V11C9.75 10.7348 9.85536 10.4804 10.0429 10.2929C10.2304 10.1054 10.4848 10 10.75 10C11.0152 10 11.2696 10.1054 11.4571 10.2929C11.6446 10.4804 11.75 10.7348 11.75 11V13C11.75 13.5304 11.9607 14.0391 12.3358 14.4142C12.7109 14.7893 13.2196 15 13.75 15H15V8C15 7.73478 15.1054 7.48043 15.2929 7.29289C15.4804 7.10536 15.7348 7 16 7Z" fill="currentColor"/>
</svg>
