<svg width="24" height="24" viewBox="0 0 24 24" fill="none" xmlns="http://www.w3.org/2000/svg">
<path d="M7.00006 6C6.73484 6 6.48049 5.89464 6.29295 5.70711C6.10542 5.51957 6.00006 5.26522 6.00006 5C6.00006 4.73478 6.10542 4.48043 6.29295 4.29289C6.48049 4.10536 6.73484 4 7.00006 4H18.0001C18.2653 4 18.5196 4.10536 18.7072 4.29289C18.8947 4.48043 19.0001 4.73478 19.0001 5C19.0001 5.26522 18.8947 5.51957 18.7072 5.70711C18.5196 5.89464 18.2653 6 18.0001 6H13.4721C14.228 6.84302 14.7291 7.88336 14.9171 9H18.0001C18.2653 9 18.5196 9.10536 18.7072 9.29289C18.8947 9.48043 19.0001 9.73478 19.0001 10C19.0001 10.2652 18.8947 10.5196 18.7072 10.7071C18.5196 10.8946 18.2653 11 18.0001 11H14.9171C14.7089 12.2277 14.1242 13.3603 13.244 14.241C12.3638 15.1217 11.2316 15.7071 10.0041 15.916L14.5811 19.186C14.688 19.2623 14.7788 19.3589 14.8483 19.4703C14.9179 19.5817 14.9648 19.7057 14.9865 19.8352C15.0081 19.9648 15.004 20.0973 14.9744 20.2253C14.9449 20.3532 14.8904 20.4741 14.8141 20.581C14.7378 20.6879 14.6412 20.7787 14.5298 20.8483C14.4184 20.9178 14.2944 20.9648 14.1648 20.9864C14.0353 21.0081 13.9027 21.004 13.7748 20.9744C13.6468 20.9448 13.526 20.8903 13.4191 20.814L6.43206 15.823C6.30042 15.7332 6.1924 15.6129 6.11719 15.4724C6.04198 15.3319 6.0018 15.1754 6.00006 15.016C5.99741 14.7706 6.08374 14.5326 6.24306 14.346C6.33797 14.2351 6.45622 14.1466 6.58933 14.0868C6.72245 14.027 6.86714 13.9974 7.01306 14H9.00006C9.88693 13.9999 10.7486 13.7052 11.4498 13.1622C12.151 12.6192 12.652 11.8586 12.8741 11H7.00006C6.73484 11 6.48049 10.8946 6.29295 10.7071C6.10542 10.5196 6.00006 10.2652 6.00006 10C6.00006 9.73478 6.10542 9.48043 6.29295 9.29289C6.48049 9.10536 6.73484 9 7.00006 9H12.8741C12.652 8.14138 12.151 7.38084 11.4498 6.83783C10.7486 6.29482 9.88693 6.00012 9.00006 6H7.00006Z" fill="currentColor"/>
</svg>
