<svg width="24" height="24" viewBox="0 0 24 24" fill="none" xmlns="http://www.w3.org/2000/svg">
<path d="M19 3H5C4.46957 3 3.96086 3.21071 3.58579 3.58579C3.21071 3.96086 3 4.46957 3 5V19C3 19.5304 3.21071 20.0391 3.58579 20.4142C3.96086 20.7893 4.46957 21 5 21H8C8.14771 20.999 8.29336 20.9653 8.4265 20.9014C8.55964 20.8374 8.67695 20.7447 8.77 20.63C8.86776 20.5175 8.93914 20.3846 8.97894 20.241C9.01873 20.0974 9.02593 19.9467 9 19.8C9 19.8 8.73 18.42 8.47 16.8C8.21 15.18 8.06 14.2 8 13.43C9.13525 12.2737 9.96068 10.8498 10.4 9.29C10.796 7.894 10.998 6.45 11 5H13C13 6.91 13.4 10.88 16 13.43C15.88 15.53 15 19.76 15 19.8C14.9714 19.9453 14.9754 20.0951 15.0117 20.2386C15.048 20.3821 15.1157 20.5158 15.21 20.63C15.3052 20.7473 15.4257 20.8416 15.5625 20.9057C15.6994 20.9698 15.8489 21.002 16 21H19C19.5304 21 20.0391 20.7893 20.4142 20.4142C20.7893 20.0391 21 19.5304 21 19V5C21 4.46957 20.7893 3.96086 20.4142 3.58579C20.0391 3.21071 19.5304 3 19 3ZM5 19V14H6C6.07 14.81 6.21 15.86 6.42 17.16C6.53 17.84 6.65 18.48 6.74 19H5ZM6.59 12H5V5H9C8.99624 6.25456 8.82129 7.50274 8.48 8.71C8.1445 9.9514 7.49338 11.0848 6.59 12ZM19 19H17.21C17.45 17.68 17.81 15.55 17.95 14H19V19ZM19 12H17.42C15.34 10 15 6.62 15 5H19V12Z" fill="currentColor"/>
</svg>
