<svg width="24" height="24" viewBox="0 0 24 24" fill="none" xmlns="http://www.w3.org/2000/svg">
<path d="M9 7.84H10C9.99974 7.59384 9.9087 7.35642 9.7443 7.1732C9.5799 6.98998 9.3537 6.87383 9.109 6.847L9 7.84ZM15 7.833L14.886 6.839C14.642 6.86699 14.4169 6.98378 14.2535 7.16709C14.0901 7.35041 13.9999 7.58743 14 7.833H15ZM9 19.84L8.891 20.834C9.03068 20.8493 9.17201 20.835 9.3058 20.7921C9.43958 20.7491 9.56281 20.6784 9.66744 20.5846C9.77208 20.4908 9.85577 20.3761 9.91307 20.2478C9.97038 20.1195 9.99999 19.9805 10 19.84H9ZM15 19.832H14C14.0001 19.9729 14.0299 20.1122 14.0876 20.2408C14.1452 20.3693 14.2294 20.4842 14.3346 20.578C14.4398 20.6718 14.5636 20.7422 14.6979 20.7848C14.8322 20.8274 14.974 20.8411 15.114 20.825L15 19.832ZM3 6V18H5V6H3ZM19 6V18H21V6H19ZM5 6C5 6.19 4.913 6.288 4.918 6.282C4.98139 6.22243 5.05273 6.17195 5.13 6.132C5.424 5.961 5.912 5.77 6.594 5.593C7.944 5.243 9.857 5 12 5V3C9.725 3 7.638 3.257 6.092 3.657C5.327 3.855 4.643 4.102 4.128 4.4C3.85785 4.54973 3.61425 4.74299 3.407 4.972C3.15117 5.25398 3.00653 5.61932 3 6H5ZM12 5C14.143 5 16.056 5.243 17.406 5.593C18.088 5.77 18.576 5.961 18.87 6.131C18.9473 6.17096 19.0186 6.22144 19.082 6.281C19.087 6.289 19 6.19 19 6H21C21 5.56 20.8 5.212 20.593 4.972C20.386 4.74309 20.1428 4.54984 19.873 4.4C19.357 4.102 18.673 3.855 17.908 3.657C16.362 3.257 14.275 3 12 3V5ZM9.109 6.847C7.691 6.692 6.528 6.434 5.746 6.147C5.349 6.001 5.103 5.866 4.976 5.768C4.818 5.648 5 5.716 5 6H3C3 6.664 3.441 7.113 3.762 7.358C4.114 7.627 4.568 7.844 5.055 8.023C6.041 8.386 7.377 8.669 8.891 8.835L9.109 6.847ZM19 6C19 5.685 19.208 5.608 19.032 5.74C18.902 5.837 18.651 5.973 18.252 6.12C17.467 6.411 16.302 6.676 14.886 6.839L15.114 8.826C16.63 8.653 17.964 8.36 18.947 7.996C19.432 7.816 19.881 7.601 20.23 7.341C20.534 7.114 21 6.671 21 6H19ZM8 7.84V16.16H10V7.84H8ZM9.109 17.153C10.0692 17.0498 11.0343 16.9988 12 17V15C10.903 15 9.854 15.06 8.891 15.165L9.109 17.153ZM14 7.833V16.159H16V7.833H14ZM12 17C13.025 17 14.002 17.056 14.891 17.153L15.109 15.165C14.0764 15.0539 13.0386 14.9988 12 15V17ZM8 16.16V19.84H10V16.16H8ZM9.109 18.847C7.691 18.692 6.528 18.434 5.746 18.147C5.349 18.001 5.103 17.866 4.976 17.768C4.818 17.648 5 17.716 5 18H3C3 18.664 3.441 19.113 3.762 19.358C4.114 19.627 4.568 19.844 5.055 20.023C6.041 20.386 7.377 20.668 8.891 20.834L9.109 18.847ZM14 16.159V19.832L16 19.833V16.159H14ZM19 18C19 17.685 19.208 17.608 19.032 17.74C18.902 17.837 18.651 17.973 18.252 18.12C17.467 18.411 16.302 18.677 14.886 18.84L15.114 20.825C16.63 20.652 17.964 20.36 18.947 19.996C19.432 19.816 19.881 19.601 20.23 19.341C20.534 19.114 21 18.671 21 18H19Z" fill="currentColor"/>
</svg>
