<svg width="24" height="24" viewBox="0 0 24 24" fill="none" xmlns="http://www.w3.org/2000/svg">
<path d="M4 14V15C4 15.2652 4.10536 15.5196 4.29289 15.7071C4.48043 15.8946 4.73478 16 5 16H6.5C6.89782 16 7.27936 16.158 7.56066 16.4393C7.84196 16.7206 8 17.1022 8 17.5V18L10.4 16.2L11.6 17.8L8 20.5C7.176 21.118 6 20.53 6 19.5V18H5C4.20435 18 3.44129 17.6839 2.87868 17.1213C2.31607 16.5587 2 15.7956 2 15V13C2 12.7348 2.10536 12.4804 2.29289 12.2929C2.48043 12.1054 2.73478 12 3 12H9C9.26522 12 9.51957 12.1054 9.70711 12.2929C9.89464 12.4804 10 12.7348 10 13C10 13.2652 9.89464 13.5196 9.70711 13.7071C9.51957 13.8946 9.26522 14 9 14H4ZM5 8C4.73478 8 4.48043 8.10536 4.29289 8.29289C4.10536 8.48043 4 8.73478 4 9C4 9.26522 4.10536 9.51957 4.29289 9.70711C4.48043 9.89464 4.73478 10 5 10H7C7.26522 10 7.51957 9.89464 7.70711 9.70711C7.89464 9.51957 8 9.26522 8 9C8 8.73478 7.89464 8.48043 7.70711 8.29289C7.51957 8.10536 7.26522 8 7 8H5ZM11 8C10.7348 8 10.4804 8.10536 10.2929 8.29289C10.1054 8.48043 10 8.73478 10 9C10 9.26522 10.1054 9.51957 10.2929 9.70711C10.4804 9.89464 10.7348 10 11 10H19C19.2652 10 19.5196 9.89464 19.7071 9.70711C19.8946 9.51957 20 9.26522 20 9C20 8.73478 19.8946 8.48043 19.7071 8.29289C19.5196 8.10536 19.2652 8 19 8H11ZM5 3C4.20435 3 3.44129 3.31607 2.87868 3.87868C2.31607 4.44129 2 5.20435 2 6V7H4V6C4 5.73478 4.10536 5.48043 4.29289 5.29289C4.48043 5.10536 4.73478 5 5 5H18C18.2652 5 18.5196 5.10536 18.7071 5.29289C18.8946 5.48043 19 5.73478 19 6V7H21V6C21 5.20435 20.6839 4.44129 20.1213 3.87868C19.5587 3.31607 18.7956 3 18 3H5ZM13 16.5C13 15.9091 13.1164 15.3239 13.3425 14.7779C13.5687 14.232 13.9002 13.7359 14.318 13.318C14.7359 12.9002 15.232 12.5687 15.7779 12.3425C16.3239 12.1164 16.9091 12 17.5 12C18.0909 12 18.6761 12.1164 19.2221 12.3425C19.768 12.5687 20.2641 12.9002 20.682 13.318C21.0998 13.7359 21.4313 14.232 21.6575 14.7779C21.8836 15.3239 22 15.9091 22 16.5C22 17.6935 21.5259 18.8381 20.682 19.682C19.8381 20.5259 18.6935 21 17.5 21C16.3065 21 15.1619 20.5259 14.318 19.682C13.4741 18.8381 13 17.6935 13 16.5ZM15.172 15.586C14.9941 16.0389 14.9522 16.534 15.0515 17.0103C15.1508 17.4867 15.387 17.9238 15.7311 18.2679C16.0752 18.612 16.5123 18.8482 16.9887 18.9475C17.465 19.0468 17.9601 19.0049 18.413 18.827L15.172 15.586ZM16.586 14.172L19.828 17.414C20.0059 16.9611 20.0478 16.466 19.9485 15.9897C19.8492 15.5133 19.613 15.0762 19.2689 14.7321C18.9248 14.388 18.4877 14.1518 18.0113 14.0525C17.535 13.9532 17.0399 13.9951 16.587 14.173" fill="currentColor"/>
</svg>
