<svg width="24" height="24" viewBox="0 0 24 24" fill="none" xmlns="http://www.w3.org/2000/svg">
<path d="M4 15V14H9C9.26522 14 9.51957 13.8946 9.70711 13.7071C9.89464 13.5196 10 13.2652 10 13C10 12.7348 9.89464 12.4804 9.70711 12.2929C9.51957 12.1054 9.26522 12 9 12H3C2.73478 12 2.48043 12.1054 2.29289 12.2929C2.10536 12.4804 2 12.7348 2 13V15C2 15.7956 2.31607 16.5587 2.87868 17.1213C3.44129 17.6839 4.20435 18 5 18H6V19.5C6 20.53 7.176 21.118 8 20.5L11.6 17.8L10.4 16.2L8 18V17.5C8 17.1022 7.84196 16.7206 7.56066 16.4393C7.27936 16.158 6.89782 16 6.5 16H5C4.73478 16 4.48043 15.8946 4.29289 15.7071C4.10536 15.5196 4 15.2652 4 15ZM4 9C4 8.73478 4.10536 8.48043 4.29289 8.29289C4.48043 8.10536 4.73478 8 5 8H7C7.26522 8 7.51957 8.10536 7.70711 8.29289C7.89464 8.48043 8 8.73478 8 9C8 9.26522 7.89464 9.51957 7.70711 9.70711C7.51957 9.89464 7.26522 10 7 10H5C4.73478 10 4.48043 9.89464 4.29289 9.70711C4.10536 9.51957 4 9.26522 4 9ZM10 9C10 8.73478 10.1054 8.48043 10.2929 8.29289C10.4804 8.10536 10.7348 8 11 8H19C19.2652 8 19.5196 8.10536 19.7071 8.29289C19.8946 8.48043 20 8.73478 20 9C20 9.26522 19.8946 9.51957 19.7071 9.70711C19.5196 9.89464 19.2652 10 19 10H11C10.7348 10 10.4804 9.89464 10.2929 9.70711C10.1054 9.51957 10 9.26522 10 9ZM2 6C2 5.20435 2.31607 4.44129 2.87868 3.87868C3.44129 3.31607 4.20435 3 5 3H18C18.7956 3 19.5587 3.31607 20.1213 3.87868C20.6839 4.44129 21 5.20435 21 6V7H19V6C19 5.73478 18.8946 5.48043 18.7071 5.29289C18.5196 5.10536 18.2652 5 18 5H5C4.73478 5 4.48043 5.10536 4.29289 5.29289C4.10536 5.48043 4 5.73478 4 6V7H2V6ZM20.99 13.895C21.1775 13.7074 21.2828 13.4529 21.2827 13.1876C21.2826 12.9224 21.1771 12.668 20.9895 12.4805C20.8019 12.293 20.5474 12.1877 20.2821 12.1878C20.0169 12.1879 19.7625 12.2934 19.575 12.481L15.686 16.37L13.921 14.605C13.8288 14.5095 13.7184 14.4333 13.5964 14.3809C13.4744 14.3285 13.3432 14.3009 13.2104 14.2997C13.0776 14.2986 12.9459 14.3239 12.823 14.3742C12.7001 14.4245 12.5885 14.4987 12.4946 14.5926C12.4007 14.6865 12.3265 14.7982 12.2762 14.921C12.2259 15.0439 12.2006 15.1756 12.2017 15.3084C12.2029 15.4412 12.2305 15.5724 12.2829 15.6944C12.3353 15.8164 12.4115 15.9268 12.507 16.019L14.979 18.491C15.1665 18.6785 15.4208 18.7838 15.686 18.7838C15.9512 18.7838 16.2055 18.6785 16.393 18.491L20.99 13.895Z" fill="currentColor"/>
</svg>
