<svg width="24" height="24" viewBox="0 0 24 24" fill="none" xmlns="http://www.w3.org/2000/svg">
<path d="M12 2C17.523 2 22 6.477 22 12C22 17.523 17.523 22 12 22C6.477 22 2 17.523 2 12C2 6.477 6.477 2 12 2ZM12 4C9.87827 4 7.84344 4.84285 6.34315 6.34315C4.84285 7.84344 4 9.87827 4 12C4 14.1217 4.84285 16.1566 6.34315 17.6569C7.84344 19.1571 9.87827 20 12 20C14.1217 20 16.1566 19.1571 17.6569 17.6569C19.1571 16.1566 20 14.1217 20 12C20 9.87827 19.1571 7.84344 17.6569 6.34315C16.1566 4.84285 14.1217 4 12 4ZM12 6C13.1143 6 14.2065 6.31029 15.1544 6.8961C16.1022 7.4819 16.8682 8.32008 17.3666 9.31672C17.8649 10.3134 18.0758 11.4291 17.9758 12.5388C17.8757 13.6486 17.4686 14.7086 16.8 15.6C16.7212 15.7051 16.6225 15.7936 16.5095 15.8605C16.3965 15.9274 16.2714 15.9714 16.1414 15.9899C16.0114 16.0085 15.879 16.0013 15.7518 15.9687C15.6246 15.9361 15.5051 15.8788 15.4 15.8C15.2949 15.7212 15.2064 15.6225 15.1395 15.5095C15.0726 15.3965 15.0286 15.2714 15.0101 15.1414C14.9915 15.0114 14.9987 14.879 15.0313 14.7518C15.0639 14.6246 15.1212 14.5051 15.2 14.4C15.6874 13.7508 15.9657 12.9686 15.9979 12.1574C16.0302 11.3463 15.8148 10.5445 15.3805 9.8586C14.9462 9.17273 14.3135 8.63524 13.5664 8.31755C12.8193 7.99986 11.9933 7.91701 11.198 8.08C10.9397 8.12854 10.6728 8.07347 10.4548 7.92671C10.2368 7.77995 10.0854 7.55328 10.0332 7.29573C9.98102 7.03818 10.0323 6.77044 10.176 6.55042C10.3197 6.3304 10.5442 6.17578 10.801 6.12C11.1956 6.04 11.5973 5.9998 12 6ZM6.12 10.801C6.17278 10.5411 6.32664 10.3128 6.54775 10.1663C6.76886 10.0199 7.03909 9.96722 7.299 10.02C7.55891 10.0728 7.78721 10.2266 7.93368 10.4477C8.08014 10.6689 8.13278 10.9391 8.08 11.199C8.028 11.457 8 11.725 8 12C8 12.902 8.297 13.731 8.8 14.4C8.95913 14.6122 9.02746 14.8789 8.98995 15.1414C8.95244 15.404 8.81217 15.6409 8.6 15.8C8.38783 15.9591 8.12113 16.0275 7.85858 15.9899C7.59603 15.9524 7.35913 15.8122 7.2 15.6C6.41964 14.5622 5.99841 13.2985 6 12C6 11.59 6.041 11.19 6.12 10.801ZM8.707 7.293L11.482 10.068C11.9073 9.95401 12.3583 9.98353 12.7651 10.152C13.1718 10.3205 13.5117 10.6184 13.7318 10.9997C13.952 11.381 14.0402 11.8243 13.9827 12.2608C13.9252 12.6973 13.7253 13.1027 13.414 13.414C13.1027 13.7253 12.6973 13.9252 12.2608 13.9827C11.8243 14.0402 11.381 13.952 10.9997 13.7318C10.6184 13.5117 10.3205 13.1718 10.152 12.7651C9.98353 12.3583 9.95401 11.9073 10.068 11.482L7.293 8.707C7.11084 8.5184 7.01005 8.2658 7.01233 8.0036C7.0146 7.7414 7.11977 7.49059 7.30518 7.30518C7.49059 7.11977 7.7414 7.0146 8.0036 7.01233C8.2658 7.01005 8.5184 7.11084 8.707 7.293Z" fill="currentColor"/>
</svg>
