<svg width="24" height="24" viewBox="0 0 24 24" fill="none" xmlns="http://www.w3.org/2000/svg">
<path fill-rule="evenodd" clip-rule="evenodd" d="M12 2.00001C14.5401 1.99638 16.9857 2.96289 18.837 4.70201L19.071 4.92901C20.0008 5.8567 20.7382 6.9589 21.2408 8.17235C21.7435 9.3858 22.0015 10.6866 22 12C22 17.523 17.523 22 12 22C6.477 22 2 17.523 2 12C2 6.47701 6.477 2.00001 12 2.00001ZM13 4.06201V5.00001C13 5.26523 12.8946 5.51958 12.7071 5.70712C12.5196 5.89465 12.2652 6.00001 12 6.00001C11.7348 6.00001 11.4804 5.89465 11.2929 5.70712C11.1054 5.51958 11 5.26523 11 5.00001V4.06201C9.57595 4.23939 8.22635 4.79844 7.094 5.68001L7.757 6.34301C7.85251 6.43526 7.92869 6.5456 7.9811 6.66761C8.03351 6.78961 8.0611 6.92083 8.06225 7.05361C8.0634 7.18639 8.0381 7.31807 7.98782 7.44096C7.93754 7.56386 7.86329 7.67551 7.76939 7.7694C7.6755 7.8633 7.56385 7.93755 7.44095 7.98783C7.31806 8.03811 7.18638 8.06341 7.0536 8.06226C6.92082 8.06111 6.7896 8.03352 6.6676 7.98111C6.54559 7.9287 6.43525 7.85252 6.343 7.75701L5.68 7.09401C4.79843 8.22636 4.23938 9.57597 4.062 11H5C5.26522 11 5.51957 11.1054 5.70711 11.2929C5.89464 11.4804 6 11.7348 6 12C6 12.2652 5.89464 12.5196 5.70711 12.7071C5.51957 12.8947 5.26522 13 5 13H4.062C4.30603 14.9331 5.24708 16.7107 6.70857 17.9993C8.17007 19.2879 10.0516 19.9989 12 19.9989C13.9484 19.9989 15.8299 19.2879 17.2914 17.9993C18.7529 16.7107 19.694 14.9331 19.938 13H19C18.7348 13 18.4804 12.8947 18.2929 12.7071C18.1054 12.5196 18 12.2652 18 12C18 11.7348 18.1054 11.4804 18.2929 11.2929C18.4804 11.1054 18.7348 11 19 11H19.938C19.7606 9.57597 19.2016 8.22636 18.32 7.09401L14.708 10.707C15.013 11.3456 15.0825 12.0715 14.9041 12.7563C14.7257 13.4412 14.3109 14.0409 13.7331 14.4495C13.1553 14.8581 12.4516 15.0493 11.7464 14.9892C11.0413 14.9292 10.3801 14.6218 9.87964 14.1214C9.37922 13.6209 9.07182 12.9597 9.01178 12.2546C8.95174 11.5494 9.14291 10.8458 9.55152 10.2679C9.96012 9.69011 10.5599 9.27534 11.2447 9.09693C11.9295 8.91853 12.6554 8.98798 13.294 9.29301L16.906 5.68001C15.7737 4.79844 14.424 4.23939 13 4.06201ZM12 11C11.7348 11 11.4804 11.1054 11.2929 11.2929C11.1054 11.4804 11 11.7348 11 12C11 12.2652 11.1054 12.5196 11.2929 12.7071C11.4804 12.8947 11.7348 13 12 13C12.2652 13 12.5196 12.8947 12.7071 12.7071C12.8946 12.5196 13 12.2652 13 12C13 11.7348 12.8946 11.4804 12.7071 11.2929C12.5196 11.1054 12.2652 11 12 11Z" fill="currentColor"/>
</svg>
