<svg width="24" height="24" viewBox="0 0 24 24" fill="none" xmlns="http://www.w3.org/2000/svg">
<path d="M4 3C4.26522 3 4.51957 3.10536 4.70711 3.29289C4.89464 3.48043 5 3.73478 5 4C5 4.996 5.427 6.063 6.086 7.077C6.37752 6.41445 6.78643 5.81006 7.293 5.293C7.4816 5.11084 7.7342 5.01005 7.9964 5.01233C8.2586 5.0146 8.50941 5.11977 8.69482 5.30518C8.88023 5.49059 8.9854 5.7414 8.98767 6.0036C8.98995 6.2658 8.88916 6.5184 8.707 6.707C8.048 7.367 7.742 8.232 7.561 8.894C7.941 9.279 8.311 9.607 8.634 9.861C9.66532 9.29443 10.8233 8.99823 12 9C13.22 9 14.367 9.312 15.366 9.86C15.689 9.607 16.06 9.28 16.439 8.894C16.258 8.232 15.952 7.366 15.293 6.707C15.1108 6.5184 15.01 6.2658 15.0123 6.0036C15.0146 5.7414 15.1198 5.49059 15.3052 5.30518C15.4906 5.11977 15.7414 5.0146 16.0036 5.01233C16.2658 5.01005 16.5184 5.11084 16.707 5.293C17.2133 5.81027 17.6222 6.41461 17.914 7.077C18.574 6.063 19 4.996 19 4C19 3.73478 19.1054 3.48043 19.2929 3.29289C19.4804 3.10536 19.7348 3 20 3C20.2652 3 20.5196 3.10536 20.7071 3.29289C20.8946 3.48043 21 3.73478 21 4C21 5.814 20.105 7.526 19.113 8.85C18.4918 9.6742 17.7845 10.4298 17.003 11.104C18.2853 12.4108 19.0025 14.1692 19 16C19 17.792 18.325 19.43 17.217 20.667C17.1298 20.7662 17.0238 20.8472 16.9051 20.9052C16.7865 20.9633 16.6575 20.9972 16.5256 21.0051C16.3937 21.013 16.2616 20.9947 16.1369 20.9513C16.0121 20.9078 15.8972 20.8401 15.7988 20.7519C15.7004 20.6638 15.6204 20.5571 15.5634 20.4379C15.5065 20.3187 15.4738 20.1894 15.4671 20.0574C15.4604 19.9255 15.4799 19.7936 15.5246 19.6692C15.5692 19.5449 15.638 19.4306 15.727 19.333C16.3704 18.6136 16.7918 17.7233 16.9404 16.7696C17.089 15.8159 16.9584 14.8396 16.5643 13.9585C16.1702 13.0774 15.5296 12.3293 14.7197 11.8043C13.9097 11.2793 12.9652 10.9999 12 10.9999C11.0348 10.9999 10.0903 11.2793 9.28035 11.8043C8.47043 12.3293 7.82978 13.0774 7.43571 13.9585C7.04165 14.8396 6.91102 15.8159 7.05959 16.7696C7.20817 17.7233 7.62959 18.6136 8.273 19.333C8.36202 19.4306 8.43083 19.5449 8.47544 19.6692C8.52005 19.7936 8.53958 19.9255 8.53291 20.0574C8.52623 20.1894 8.49348 20.3187 8.43655 20.4379C8.37962 20.5571 8.29964 20.6638 8.20121 20.7519C8.10279 20.8401 7.98789 20.9078 7.86314 20.9513C7.73839 20.9947 7.60627 21.013 7.4744 21.0051C7.34253 20.9972 7.21354 20.9633 7.09487 20.9052C6.9762 20.8472 6.8702 20.7662 6.783 20.667C5.63305 19.3847 4.99798 17.7224 5 16C5 14.094 5.762 12.366 6.997 11.104C6.21556 10.4298 5.50823 9.67418 4.887 8.85C3.896 7.526 3 5.814 3 4C3 3.73478 3.10536 3.48043 3.29289 3.29289C3.48043 3.10536 3.73478 3 4 3Z" fill="currentColor"/>
</svg>
