<svg width="24" height="24" viewBox="0 0 24 24" fill="none" xmlns="http://www.w3.org/2000/svg">
<path d="M19 3C19.7652 2.99996 20.5015 3.29233 21.0582 3.81728C21.615 4.34224 21.9501 5.06011 21.995 5.824L22 6V18C22 18.7652 21.7076 19.5015 21.1827 20.0583C20.6577 20.615 19.9399 20.9501 19.176 20.995L19 21H8.10796C7.63186 20.9999 7.16263 20.8865 6.73904 20.6691C6.31545 20.4518 5.94968 20.1367 5.67196 19.75L5.56396 19.59L1.48396 13.06C1.30103 12.7675 1.19689 12.4326 1.18164 12.0879C1.1664 11.7433 1.24057 11.4005 1.39696 11.093L1.48296 10.94L5.56396 4.41C5.81629 4.00619 6.16111 3.66825 6.56992 3.42411C6.97873 3.17998 7.43979 3.03665 7.91496 3.006L8.10796 3H19ZM19 5H8.10796C7.96006 5.00005 7.81402 5.0329 7.68036 5.09619C7.54669 5.15948 7.42872 5.25163 7.33496 5.366L7.25996 5.47L3.17996 12L7.25996 18.53C7.33833 18.6555 7.44356 18.762 7.56806 18.8419C7.69257 18.9218 7.83325 18.973 7.97996 18.992L8.10796 19H19C19.2449 19 19.4813 18.91 19.6643 18.7473C19.8474 18.5845 19.9643 18.3603 19.993 18.117L20 18V6C19.9999 5.75507 19.91 5.51866 19.7472 5.33563C19.5845 5.15259 19.3602 5.03566 19.117 5.007L19 5ZM10.879 8.464L12.999 10.586L15.121 8.464C15.2139 8.37116 15.3242 8.29752 15.4455 8.2473C15.5669 8.19708 15.697 8.17125 15.8283 8.1713C15.9597 8.17134 16.0897 8.19726 16.211 8.24757C16.3324 8.29788 16.4426 8.37159 16.5355 8.4645C16.6283 8.55741 16.7019 8.6677 16.7522 8.78907C16.8024 8.91043 16.8282 9.04051 16.8282 9.17185C16.8281 9.3032 16.8022 9.43326 16.7519 9.55459C16.7016 9.67592 16.6279 9.78616 16.535 9.879L14.415 12L16.535 14.121C16.7226 14.3085 16.8281 14.5629 16.8282 14.8281C16.8283 15.0934 16.723 15.3479 16.5355 15.5355C16.348 15.7231 16.0936 15.8286 15.8283 15.8287C15.563 15.8288 15.3086 15.7235 15.121 15.536L13 13.414L10.879 15.536C10.6913 15.7236 10.4368 15.8291 10.1715 15.8291C9.9061 15.8291 9.6516 15.7236 9.46396 15.536C9.27632 15.3484 9.1709 15.0939 9.1709 14.8285C9.1709 14.5631 9.27632 14.3086 9.46396 14.121L11.586 12L9.46396 9.879C9.27632 9.69136 9.1709 9.43686 9.1709 9.1715C9.1709 8.90614 9.27632 8.65164 9.46396 8.464C9.6516 8.27636 9.9061 8.17094 10.1715 8.17094C10.4368 8.17094 10.6913 8.27636 10.879 8.464Z" fill="currentColor"/>
</svg>
