<svg width="24" height="24" viewBox="0 0 24 24" fill="none" xmlns="http://www.w3.org/2000/svg">
<path fill-rule="evenodd" clip-rule="evenodd" d="M5.40995 3.654C6.14295 3.219 7.01095 3 7.99995 3C9.02995 3 9.89995 3.55 10.4749 3.889C11.1499 4.287 11.5649 4.5 11.9999 4.5C12.4339 4.5 12.8499 4.287 13.5249 3.889C14.1009 3.549 14.9699 3 15.9999 3C16.9899 3 17.8579 3.219 18.5899 3.654C19.3219 4.089 19.8629 4.708 20.2459 5.422C20.9959 6.818 21.1659 8.614 21.0629 10.362C20.9579 12.137 20.5629 13.993 20.0619 15.607C19.5639 17.208 18.9379 18.645 18.3319 19.555C17.6359 20.598 16.6689 21.117 15.6439 20.973C14.7029 20.841 13.9719 20.18 13.6059 19.447C13.2149 18.665 13.0339 17.792 12.6909 16.989C12.6059 16.789 12.3119 15.986 12.0009 16C11.6259 16 11.4239 16.72 11.3089 16.99C10.9659 17.792 10.7859 18.665 10.3949 19.447C10.0279 20.18 9.29695 20.841 8.35695 20.973C7.33095 21.117 6.36395 20.598 5.66795 19.555C5.06195 18.645 4.43595 17.208 3.93795 15.607C3.43695 13.993 3.04195 12.137 2.93795 10.363C2.83395 8.613 3.00395 6.818 3.75395 5.422C4.13695 4.708 4.67795 4.089 5.40995 3.654ZM5.84795 15.014C6.31795 16.524 6.87495 17.76 7.33195 18.445C7.48395 18.673 7.75595 19.037 8.07895 18.992C8.24295 18.969 8.47195 18.82 8.60595 18.552C8.97695 17.81 9.14295 16.967 9.46995 16.202C9.66995 15.733 9.93795 15.216 10.3099 14.803C10.6969 14.375 11.2569 14 11.9999 14C12.7429 14 13.3029 14.375 13.6899 14.803C14.0619 15.216 14.3299 15.733 14.5299 16.203C14.8569 16.967 15.0229 17.81 15.3949 18.553C15.5279 18.82 15.7569 18.969 15.9219 18.993C16.2439 19.037 16.5159 18.673 16.6679 18.445C17.1249 17.76 17.6829 16.525 18.1519 15.014C18.6169 13.516 18.9729 11.822 19.0669 10.244C19.1609 8.643 18.9769 7.286 18.4839 6.368C18.2459 5.925 17.9439 5.596 17.5679 5.373C17.1919 5.15 16.6899 5 15.9999 5C15.6099 5 15.2229 5.21 14.4899 5.641C13.8949 5.993 13.0359 6.5 11.9999 6.5C10.9339 6.5 10.0559 5.963 9.45895 5.611C8.76195 5.201 8.38195 5 7.99995 5C7.31095 5 6.80795 5.15 6.43195 5.373C6.05695 5.596 5.75395 5.925 5.51595 6.368C5.02295 7.286 4.83895 8.643 4.93395 10.245C5.02695 11.822 5.38295 13.516 5.84795 15.014Z" fill="currentColor"/>
</svg>
