<svg width="24" height="24" viewBox="0 0 24 24" fill="none" xmlns="http://www.w3.org/2000/svg">
<path fill-rule="evenodd" clip-rule="evenodd" d="M19.8301 4.82899C19.8751 4.99837 19.8747 5.17657 19.8291 5.34576C19.7834 5.51495 19.6941 5.66917 19.5701 5.79299L17.8041 7.55999C18.3593 8.12408 18.669 8.88467 18.6658 9.67608C18.6627 10.4675 18.347 11.2256 17.7874 11.7853C17.2279 12.345 16.4698 12.6609 15.6784 12.6642C14.887 12.6675 14.1264 12.358 13.5621 11.803L11.7941 13.571C11.6703 13.6949 11.5161 13.7841 11.3469 13.8296C11.1777 13.8751 10.9996 13.8754 10.8303 13.8305C10.661 13.7855 10.5064 13.6969 10.3822 13.5734C10.2579 13.4499 10.1682 13.296 10.1221 13.127L9.08514 9.32899L6.28714 12.127L11.5351 20H14.0001C14.2654 20 14.5197 20.1053 14.7073 20.2929C14.8948 20.4804 15.0001 20.7348 15.0001 21C15.0001 21.2652 14.8948 21.5196 14.7073 21.7071C14.5197 21.8946 14.2654 22 14.0001 22H8.00014C7.73493 22 7.48057 21.8946 7.29304 21.7071C7.1055 21.5196 7.00014 21.2652 7.00014 21C7.00014 20.7348 7.1055 20.4804 7.29304 20.2929C7.48057 20.1053 7.73493 20 8.00014 20H9.13014L4.62214 13.237C4.36559 12.8522 4.25029 12.3905 4.29588 11.9303C4.34146 11.4701 4.5451 11.0399 4.87214 10.713L8.47814 7.10699L7.99814 5.34899C7.95184 5.17891 7.95132 4.99962 7.99663 4.82928C8.04194 4.65893 8.13147 4.50359 8.25614 4.37899L10.3771 2.25699C10.5018 2.13249 10.6572 2.04314 10.8276 1.99801C10.9979 1.95288 11.1772 1.95356 11.3471 1.99999L19.1261 4.11999C19.2952 4.16621 19.4491 4.25604 19.5725 4.38047C19.6958 4.50491 19.7854 4.65958 19.8301 4.82899ZM14.9741 10.389C15.1627 10.5711 15.4153 10.6719 15.6775 10.6697C15.9397 10.6674 16.1906 10.5622 16.376 10.3768C16.5614 10.1914 16.6665 9.94059 16.6688 9.67839C16.6711 9.41619 16.5703 9.16359 16.3881 8.97499L14.9741 10.389ZM11.3811 4.08199L10.0811 5.38199L11.5961 10.938L16.9371 5.59799L11.3811 4.08199Z" fill="currentColor"/>
</svg>
