<svg width="24" height="24" viewBox="0 0 24 24" fill="none" xmlns="http://www.w3.org/2000/svg">
<path fill-rule="evenodd" clip-rule="evenodd" d="M10.5862 2.807C10.9613 2.43206 11.4699 2.22143 12.0002 2.22143C12.5306 2.22143 13.0392 2.43206 13.4142 2.807L21.1922 10.586C21.5672 10.9611 21.7778 11.4697 21.7778 12C21.7778 12.5303 21.5672 13.0389 21.1922 13.414L13.4142 21.192C13.0392 21.5669 12.5306 21.7776 12.0002 21.7776C11.4699 21.7776 10.9613 21.5669 10.5862 21.192L2.80823 13.414C2.43329 13.0389 2.22266 12.5303 2.22266 12C2.22266 11.4697 2.43329 10.9611 2.80823 10.586L10.5862 2.807ZM12.0002 4.222L4.22223 12L12.0002 19.778L19.7782 12L12.0002 4.222Z" fill="currentColor"/>
</svg>
