<svg width="24" height="24" viewBox="0 0 24 24" fill="none" xmlns="http://www.w3.org/2000/svg">
<path fill-rule="evenodd" clip-rule="evenodd" d="M17.9999 2C18.5044 1.99984 18.9904 2.19041 19.3604 2.5335C19.7304 2.87659 19.957 3.34684 19.9949 3.85L19.9999 4V20C20 20.5046 19.8095 20.9906 19.4664 21.3605C19.1233 21.7305 18.653 21.9572 18.1499 21.995L17.9999 22H5.99987C5.49529 22.0002 5.0093 21.8096 4.63932 21.4665C4.26934 21.1234 4.04271 20.6532 4.00487 20.15L3.99987 20V19C3.74499 18.9997 3.49984 18.9021 3.3145 18.7272C3.12916 18.5522 3.01763 18.313 3.0027 18.0586C2.98776 17.8042 3.07054 17.5536 3.23413 17.3582C3.39772 17.1627 3.62977 17.0371 3.88287 17.007L3.99987 17V15C3.74499 14.9997 3.49984 14.9021 3.3145 14.7272C3.12916 14.5522 3.01763 14.313 3.0027 14.0586C2.98776 13.8042 3.07054 13.5536 3.23413 13.3582C3.39772 13.1627 3.62977 13.0371 3.88287 13.007L3.99987 13V11C3.74499 10.9997 3.49984 10.9021 3.3145 10.7272C3.12916 10.5522 3.01763 10.313 3.0027 10.0586C2.98776 9.80416 3.07054 9.55362 3.23413 9.35817C3.39772 9.16271 3.62977 9.0371 3.88287 9.007L3.99987 9V7C3.74499 6.99972 3.49984 6.90212 3.3145 6.72715C3.12916 6.55218 3.01763 6.31305 3.0027 6.05861C2.98776 5.80416 3.07054 5.55362 3.23413 5.35817C3.39772 5.16271 3.62977 5.0371 3.88287 5.007L3.99987 5V4C3.99971 3.49542 4.19028 3.00943 4.53337 2.63945C4.87646 2.26947 5.34671 2.04284 5.84987 2.005L5.99987 2H17.9999ZM17.9999 4H5.99987V20H17.9999V4ZM15.4999 6C15.8728 6.00002 16.2323 6.13892 16.5083 6.38962C16.7843 6.64032 16.9571 6.98484 16.9929 7.356L16.9999 7.5V9.5C16.9999 9.87288 16.8609 10.2324 16.6103 10.5084C16.3596 10.7844 16.015 10.9572 15.6439 10.993L15.4999 11H8.49987C8.12699 11 7.76748 10.8611 7.49145 10.6104C7.21542 10.3597 7.04267 10.0152 7.00687 9.644L6.99987 9.5V7.5C6.99989 7.12712 7.13879 6.76761 7.38949 6.49158C7.64019 6.21555 7.98471 6.0428 8.35587 6.007L8.49987 6H15.4999ZM14.9999 8H8.99987V9H14.9999V8Z" fill="currentColor"/>
</svg>
