<svg width="24" height="24" viewBox="0 0 24 24" fill="none" xmlns="http://www.w3.org/2000/svg">
<path fill-rule="evenodd" clip-rule="evenodd" d="M6.80248 2.02C6.9514 1.98975 7.10527 1.99384 7.25238 2.03196C7.39949 2.07008 7.53598 2.14123 7.65148 2.24L17.4025 10.599C17.8016 10.9411 18.05 11.4265 18.094 11.9503C18.138 12.4741 17.974 12.9942 17.6375 13.398L16.5775 14.67L17.4475 15.106C17.6017 15.1831 17.7333 15.2988 17.8296 15.4418C17.9259 15.5848 17.9836 15.7503 17.9971 15.9221C18.0105 16.094 17.9794 16.2664 17.9065 16.4227C17.8337 16.579 17.7217 16.7138 17.5815 16.814L10.5815 21.814C10.4118 21.9352 10.2084 22.0003 9.99991 22.0002C9.79139 22.0001 9.58811 21.9348 9.41851 21.8135C9.24892 21.6922 9.12149 21.5209 9.05407 21.3235C8.98664 21.1262 8.98259 20.9127 9.04248 20.713L10.2525 16.679C7.88948 15.779 6.50548 13.624 6.01948 11.196C5.9903 11.0501 5.99406 10.8995 6.03049 10.7552C6.06692 10.6109 6.1351 10.4765 6.23006 10.3619C6.32501 10.2473 6.44435 10.1554 6.57936 10.0927C6.71437 10.0301 6.86166 9.99845 7.01048 10C6.53648 9.297 6.15048 8.58 5.87648 7.851C5.22748 6.121 5.21848 4.328 6.10648 2.553C6.17439 2.41713 6.27236 2.29852 6.39296 2.20617C6.51355 2.11381 6.6536 2.05015 6.80248 2.02ZM8.58248 12.582C9.23548 13.861 10.2875 14.738 11.6965 15.019C11.833 15.0463 11.9624 15.1018 12.0763 15.1819C12.1902 15.2621 12.2861 15.3652 12.3578 15.4845C12.4295 15.6039 12.4755 15.737 12.4929 15.8751C12.5102 16.0133 12.4985 16.1536 12.4585 16.287L11.7985 18.487L15.0685 16.152C14.6265 15.931 14.1345 15.746 14.0215 15.205C13.9905 15.0574 13.9933 14.9048 14.0297 14.7584C14.066 14.6121 14.135 14.4759 14.2315 14.36L16.1015 12.118L7.47048 4.72C7.33448 5.518 7.43848 6.32 7.74948 7.149C8.23948 8.458 9.25348 9.839 10.7075 11.293C10.8668 11.4523 10.9677 11.6606 10.9938 11.8844C11.0199 12.1081 10.9697 12.3342 10.8513 12.5258C10.7329 12.7175 10.5532 12.8635 10.3415 12.9403C10.1297 13.0171 9.8982 13.0202 9.68448 12.949L8.58248 12.582Z" fill="currentColor"/>
</svg>
