<svg width="24" height="24" viewBox="0 0 24 24" fill="none" xmlns="http://www.w3.org/2000/svg">
<path fill-rule="evenodd" clip-rule="evenodd" d="M12 4C9.87827 4 7.84344 4.84285 6.34315 6.34315C4.84285 7.84344 4 9.87827 4 12C4 14.1217 4.84285 16.1566 6.34315 17.6569C7.84344 19.1571 9.87827 20 12 20C14.1217 20 16.1566 19.1571 17.6569 17.6569C19.1571 16.1566 20 14.1217 20 12C20 9.87827 19.1571 7.84344 17.6569 6.34315C16.1566 4.84285 14.1217 4 12 4ZM2 12C2 6.477 6.477 2 12 2C17.523 2 22 6.477 22 12C22 17.523 17.523 22 12 22C6.477 22 2 17.523 2 12ZM12 16.586L11.707 16.293C11.5184 16.1108 11.2658 16.01 11.0036 16.0123C10.7414 16.0146 10.4906 16.1198 10.3052 16.3052C10.1198 16.4906 10.0146 16.7414 10.0123 17.0036C10.01 17.2658 10.1108 17.5184 10.293 17.707L11.293 18.707C11.4805 18.8945 11.7348 18.9998 12 18.9998C12.2652 18.9998 12.5195 18.8945 12.707 18.707L13.707 17.707C13.8892 17.5184 13.99 17.2658 13.9877 17.0036C13.9854 16.7414 13.8802 16.4906 13.6948 16.3052C13.5094 16.1198 13.2586 16.0146 12.9964 16.0123C12.7342 16.01 12.4816 16.1108 12.293 16.293L12 16.586ZM7.707 11.707L7.414 12L7.707 12.293C7.80251 12.3852 7.87869 12.4956 7.9311 12.6176C7.98351 12.7396 8.0111 12.8708 8.01225 13.0036C8.0134 13.1364 7.9881 13.2681 7.93782 13.391C7.88754 13.5139 7.81329 13.6255 7.7194 13.7194C7.6255 13.8133 7.51385 13.8875 7.39095 13.9378C7.26806 13.9881 7.13638 14.0134 7.0036 14.0123C6.87082 14.0111 6.7396 13.9835 6.6176 13.9311C6.49559 13.8787 6.38525 13.8025 6.293 13.707L5.293 12.707C5.10553 12.5195 5.00021 12.2652 5.00021 12C5.00021 11.7348 5.10553 11.4805 5.293 11.293L6.293 10.293C6.38525 10.1975 6.49559 10.1213 6.6176 10.0689C6.7396 10.0165 6.87082 9.9889 7.0036 9.98775C7.13638 9.9866 7.26806 10.0119 7.39095 10.0622C7.51385 10.1125 7.6255 10.1867 7.7194 10.2806C7.81329 10.3745 7.88754 10.4861 7.93782 10.609C7.9881 10.7319 8.0134 10.8636 8.01225 10.9964C8.0111 11.1292 7.98351 11.2604 7.9311 11.3824C7.87869 11.5044 7.80251 11.6148 7.707 11.707ZM12 7.414L11.707 7.707C11.6148 7.80251 11.5044 7.87869 11.3824 7.9311C11.2604 7.98351 11.1292 8.0111 10.9964 8.01225C10.8636 8.0134 10.7319 7.9881 10.609 7.93782C10.4861 7.88754 10.3745 7.81329 10.2806 7.7194C10.1867 7.6255 10.1125 7.51385 10.0622 7.39095C10.0119 7.26806 9.9866 7.13638 9.98775 7.0036C9.9889 6.87082 10.0165 6.7396 10.0689 6.6176C10.1213 6.49559 10.1975 6.38525 10.293 6.293L11.293 5.293C11.4805 5.10553 11.7348 5.00021 12 5.00021C12.2652 5.00021 12.5195 5.10553 12.707 5.293L13.707 6.293C13.8892 6.4816 13.99 6.7342 13.9877 6.9964C13.9854 7.2586 13.8802 7.50941 13.6948 7.69482C13.5094 7.88023 13.2586 7.9854 12.9964 7.98767C12.7342 7.98995 12.4816 7.88916 12.293 7.707L12 7.414ZM17.707 10.293L18.707 11.293C18.8945 11.4805 18.9998 11.7348 18.9998 12C18.9998 12.2652 18.8945 12.5195 18.707 12.707L17.707 13.707C17.5184 13.8892 17.2658 13.99 17.0036 13.9877C16.7414 13.9854 16.4906 13.8802 16.3052 13.6948C16.1198 13.5094 16.0146 13.2586 16.0123 12.9964C16.01 12.7342 16.1108 12.4816 16.293 12.293L16.586 12L16.293 11.707C16.1108 11.5184 16.01 11.2658 16.0123 11.0036C16.0146 10.7414 16.1198 10.4906 16.3052 10.3052C16.4906 10.1198 16.7414 10.0146 17.0036 10.0123C17.2658 10.01 17.5184 10.1108 17.707 10.293Z" fill="currentColor"/>
</svg>
