<svg width="24" height="24" viewBox="0 0 24 24" fill="none" xmlns="http://www.w3.org/2000/svg">
<path d="M12 2C17.523 2 22 6.477 22 12C22 17.523 17.523 22 12 22C6.477 22 2 17.523 2 12C2 6.477 6.477 2 12 2ZM12 4C9.87827 4 7.84344 4.84285 6.34315 6.34315C4.84285 7.84344 4 9.87827 4 12C4 14.1217 4.84285 16.1566 6.34315 17.6569C7.84344 19.1571 9.87827 20 12 20C14.1217 20 16.1566 19.1571 17.6569 17.6569C19.1571 16.1566 20 14.1217 20 12C20 9.87827 19.1571 7.84344 17.6569 6.34315C16.1566 4.84285 14.1217 4 12 4ZM12 15.5C12.3978 15.5 12.7794 15.658 13.0607 15.9393C13.342 16.2206 13.5 16.6022 13.5 17C13.5 17.3978 13.342 17.7794 13.0607 18.0607C12.7794 18.342 12.3978 18.5 12 18.5C11.6022 18.5 11.2206 18.342 10.9393 18.0607C10.658 17.7794 10.5 17.3978 10.5 17C10.5 16.6022 10.658 16.2206 10.9393 15.9393C11.2206 15.658 11.6022 15.5 12 15.5ZM17 10.5C17.3978 10.5 17.7794 10.658 18.0607 10.9393C18.342 11.2206 18.5 11.6022 18.5 12C18.5 12.3978 18.342 12.7794 18.0607 13.0607C17.7794 13.342 17.3978 13.5 17 13.5C16.6022 13.5 16.2206 13.342 15.9393 13.0607C15.658 12.7794 15.5 12.3978 15.5 12C15.5 11.6022 15.658 11.2206 15.9393 10.9393C16.2206 10.658 16.6022 10.5 17 10.5ZM7 10.5C7.39782 10.5 7.77936 10.658 8.06066 10.9393C8.34196 11.2206 8.5 11.6022 8.5 12C8.5 12.3978 8.34196 12.7794 8.06066 13.0607C7.77936 13.342 7.39782 13.5 7 13.5C6.60218 13.5 6.22064 13.342 5.93934 13.0607C5.65804 12.7794 5.5 12.3978 5.5 12C5.5 11.6022 5.65804 11.2206 5.93934 10.9393C6.22064 10.658 6.60218 10.5 7 10.5ZM12 5.5C12.197 5.5 12.392 5.5388 12.574 5.61418C12.756 5.68956 12.9214 5.80005 13.0607 5.93934C13.1999 6.07863 13.3104 6.24399 13.3858 6.42597C13.4612 6.60796 13.5 6.80302 13.5 7C13.5 7.19698 13.4612 7.39204 13.3858 7.57403C13.3104 7.75601 13.1999 7.92137 13.0607 8.06066C12.9214 8.19995 12.756 8.31044 12.574 8.38582C12.392 8.4612 12.197 8.5 12 8.5C11.6022 8.5 11.2206 8.34196 10.9393 8.06066C10.658 7.77936 10.5 7.39782 10.5 7C10.5 6.60218 10.658 6.22064 10.9393 5.93934C11.2206 5.65804 11.6022 5.5 12 5.5Z" fill="currentColor"/>
</svg>
