<svg width="24" height="24" viewBox="0 0 24 24" fill="none" xmlns="http://www.w3.org/2000/svg">
<path fill-rule="evenodd" clip-rule="evenodd" d="M11.0004 4C10.7352 4 10.4809 4.10536 10.2933 4.29289C10.1058 4.48043 10.0004 4.73478 10.0004 5C10.0004 5.26522 10.1058 5.51957 10.2933 5.70711C10.4809 5.89464 10.7352 6 11.0004 6C11.2657 6 11.52 5.89464 11.7076 5.70711C11.8951 5.51957 12.0004 5.26522 12.0004 5C12.0004 4.73478 11.8951 4.48043 11.7076 4.29289C11.52 4.10536 11.2657 4 11.0004 4ZM8.00045 5C8.00074 4.45007 8.15218 3.9108 8.43823 3.44112C8.72427 2.97144 9.13392 2.58942 9.62239 2.33681C10.1109 2.0842 10.6594 1.97071 11.208 2.00876C11.7566 2.04681 12.2842 2.23492 12.7331 2.55254C13.1821 2.87016 13.5351 3.30506 13.7535 3.80973C13.972 4.3144 14.0476 4.86941 13.9719 5.41412C13.8963 5.95882 13.6724 6.47226 13.3247 6.89833C12.977 7.32439 12.5189 7.64669 12.0004 7.83V9.28L14.1624 10H16.0004C16.2657 10 16.52 10.1054 16.7076 10.2929C16.8951 10.4804 17.0004 10.7348 17.0004 11C17.0004 11.2652 16.8951 11.5196 16.7076 11.7071C16.52 11.8946 16.2657 12 16.0004 12H14.0004C13.8931 12.0001 13.7864 11.9829 13.6844 11.949L12.0004 11.387V13C12.0004 13.2652 12.1058 13.5196 12.2933 13.7071C12.4809 13.8946 12.7352 14 13.0004 14H15.0004C15.4662 14 15.9255 14.1084 16.3421 14.3167C16.7587 14.525 17.121 14.8274 17.4004 15.2L19.5005 18H20.0005C20.2657 18 20.52 18.1054 20.7076 18.2929C20.8951 18.4804 21.0005 18.7348 21.0005 19C21.0005 19.2652 20.8951 19.5196 20.7076 19.7071C20.52 19.8946 20.2657 20 20.0005 20H19.0004C18.8452 20 18.6921 19.9639 18.5532 19.8944C18.4144 19.825 18.2936 19.7242 18.2004 19.6L15.8004 16.4C15.7073 16.2758 15.5865 16.175 15.4477 16.1056C15.3088 16.0361 15.1557 16 15.0004 16H13.0004C12.2048 16 11.4417 15.6839 10.8791 15.1213C10.3165 14.5587 10.0004 13.7956 10.0004 13V7.829C9.41554 7.62205 8.90914 7.23889 8.55098 6.73226C8.19281 6.22563 8.00048 5.62045 8.00045 5ZM8.27245 11.17C7.55395 11.3742 6.89758 11.7541 6.36255 12.2753C5.82752 12.7965 5.43065 13.4427 5.20774 14.1557C4.98483 14.8686 4.94289 15.6258 5.08571 16.3589C5.22852 17.0921 5.5516 17.7782 6.0258 18.3553C6.49999 18.9325 7.1104 19.3825 7.80195 19.6648C8.4935 19.9471 9.24445 20.0528 9.98707 19.9724C10.7297 19.892 11.4406 19.628 12.0557 19.2043C12.6708 18.7805 13.1708 18.2102 13.5104 17.545L15.2904 18.455C14.7996 19.4159 14.0773 20.2395 13.1886 20.8515C12.2999 21.4634 11.2729 21.8446 10.2002 21.9605C9.1274 22.0764 8.04267 21.9234 7.0438 21.5154C6.04493 21.1073 5.16336 20.457 4.4786 19.6231C3.79385 18.7893 3.32745 17.798 3.12148 16.7389C2.91551 15.6797 2.97645 14.5859 3.2988 13.5562C3.62115 12.5265 4.19478 11.5932 4.96793 10.8406C5.74108 10.0879 6.68944 9.53957 7.72745 9.245L8.27245 11.17Z" fill="currentColor"/>
</svg>
