<svg width="24" height="24" viewBox="0 0 24 24" fill="none" xmlns="http://www.w3.org/2000/svg">
<path fill-rule="evenodd" clip-rule="evenodd" d="M2 12C2 6.477 6.477 2 12 2C17.523 2 22 6.477 22 12C22 17.523 17.523 22 12 22C6.477 22 2 17.523 2 12ZM12 4C10.0591 4.00076 8.18469 4.70708 6.72596 5.98737C5.26723 7.26767 4.32369 9.03461 4.07113 10.959C3.81857 12.8834 4.27422 14.834 5.35319 16.4473C6.43215 18.0606 8.06084 19.2267 9.9358 19.7283C11.8108 20.2298 13.8041 20.0326 15.5445 19.1735C17.2848 18.3143 18.6535 16.8517 19.3955 15.0583C20.1374 13.2648 20.2021 11.2627 19.5774 9.42514C18.9527 7.58753 17.6813 6.03969 16 5.07V12C15.9998 12.8805 15.7091 13.7363 15.1729 14.4348C14.6368 15.1332 13.8852 15.6352 13.0346 15.863C12.1841 16.0907 11.2822 16.0315 10.4687 15.6944C9.65532 15.3573 8.97584 14.7613 8.53567 13.9987C8.09551 13.2361 7.91926 12.3496 8.03426 11.4767C8.14927 10.6037 8.54909 9.79309 9.17173 9.17052C9.79437 8.54794 10.605 8.14821 11.478 8.03331C12.351 7.9184 13.2375 8.09475 14 8.535V4.252C13.3466 4.08416 12.6746 3.99949 12 4ZM14 12C14 11.4696 13.7893 10.9609 13.4142 10.5858C13.0391 10.2107 12.5304 10 12 10C11.4696 10 10.9609 10.2107 10.5858 10.5858C10.2107 10.9609 10 11.4696 10 12C10 12.5304 10.2107 13.0391 10.5858 13.4142C10.9609 13.7893 11.4696 14 12 14C12.5304 14 13.0391 13.7893 13.4142 13.4142C13.7893 13.0391 14 12.5304 14 12Z" fill="currentColor"/>
</svg>
