<svg width="24" height="24" viewBox="0 0 24 24" fill="none" xmlns="http://www.w3.org/2000/svg">
<path d="M20 19C20.2652 19 20.5196 19.1054 20.7071 19.2929C20.8946 19.4804 21 19.7348 21 20C21 20.2652 20.8946 20.5196 20.7071 20.7071C20.5196 20.8946 20.2652 21 20 21H4C3.73478 21 3.48043 20.8946 3.29289 20.7071C3.10536 20.5196 3 20.2652 3 20C3 19.7348 3.10536 19.4804 3.29289 19.2929C3.48043 19.1054 3.73478 19 4 19H20ZM17 8C17.5304 8 18.0391 8.21071 18.4142 8.58579C18.7893 8.96086 19 9.46957 19 10V14C19 14.5304 18.7893 15.0391 18.4142 15.4142C18.0391 15.7893 17.5304 16 17 16H7C6.46957 16 5.96086 15.7893 5.58579 15.4142C5.21071 15.0391 5 14.5304 5 14V10C5 9.46957 5.21071 8.96086 5.58579 8.58579C5.96086 8.21071 6.46957 8 7 8H17ZM17 10H7V14H17V10ZM20 3C20.2549 3.00028 20.5 3.09788 20.6854 3.27285C20.8707 3.44782 20.9822 3.68695 20.9972 3.94139C21.0121 4.19584 20.9293 4.44638 20.7657 4.64183C20.6021 4.83729 20.3701 4.9629 20.117 4.993L20 5H4C3.74512 4.99972 3.49997 4.90212 3.31463 4.72715C3.1293 4.55218 3.01777 4.31305 3.00283 4.05861C2.98789 3.80416 3.07067 3.55362 3.23426 3.35817C3.39786 3.16271 3.6299 3.0371 3.883 3.007L4 3H20Z" fill="currentColor"/>
</svg>
