<svg width="24" height="24" viewBox="0 0 24 24" fill="none" xmlns="http://www.w3.org/2000/svg">
<path d="M4 3C4.26522 3 4.51957 3.10536 4.70711 3.29289C4.89464 3.48043 5 3.73478 5 4V20C5 20.2652 4.89464 20.5196 4.70711 20.7071C4.51957 20.8946 4.26522 21 4 21C3.73478 21 3.48043 20.8946 3.29289 20.7071C3.10536 20.5196 3 20.2652 3 20V4C3 3.73478 3.10536 3.48043 3.29289 3.29289C3.48043 3.10536 3.73478 3 4 3ZM20 3C20.2449 3.00003 20.4813 3.08996 20.6644 3.25272C20.8474 3.41547 20.9643 3.63975 20.993 3.883L21 4V20C20.9997 20.2549 20.9021 20.5 20.7272 20.6854C20.5522 20.8707 20.313 20.9822 20.0586 20.9972C19.8042 21.0121 19.5536 20.9293 19.3582 20.7657C19.1627 20.6021 19.0371 20.3701 19.007 20.117L19 20V4C19 3.73478 19.1054 3.48043 19.2929 3.29289C19.4804 3.10536 19.7348 3 20 3ZM14 5C14.5304 5 15.0391 5.21071 15.4142 5.58579C15.7893 5.96086 16 6.46957 16 7V17C16 17.5304 15.7893 18.0391 15.4142 18.4142C15.0391 18.7893 14.5304 19 14 19H10C9.46957 19 8.96086 18.7893 8.58579 18.4142C8.21071 18.0391 8 17.5304 8 17V7C8 6.46957 8.21071 5.96086 8.58579 5.58579C8.96086 5.21071 9.46957 5 10 5H14ZM14 7H10V17H14V7Z" fill="currentColor"/>
</svg>
