<svg width="24" height="24" viewBox="0 0 24 24" fill="none" xmlns="http://www.w3.org/2000/svg">
<path d="M6 18C6.26522 18 6.51957 18.1054 6.70711 18.2929C6.89464 18.4804 7 18.7348 7 19C7 19.2652 6.89464 19.5196 6.70711 19.7071C6.51957 19.8946 6.26522 20 6 20H4C3.73478 20 3.48043 19.8946 3.29289 19.7071C3.10536 19.5196 3 19.2652 3 19C3 18.7348 3.10536 18.4804 3.29289 18.2929C3.48043 18.1054 3.73478 18 4 18H6ZM13 18C13.2652 18 13.5196 18.1054 13.7071 18.2929C13.8946 18.4804 14 18.7348 14 19C14 19.2652 13.8946 19.5196 13.7071 19.7071C13.5196 19.8946 13.2652 20 13 20H11C10.7348 20 10.4804 19.8946 10.2929 19.7071C10.1054 19.5196 10 19.2652 10 19C10 18.7348 10.1054 18.4804 10.2929 18.2929C10.4804 18.1054 10.7348 18 11 18H13ZM20 18C20.2652 18 20.5196 18.1054 20.7071 18.2929C20.8946 18.4804 21 18.7348 21 19C21 19.2652 20.8946 19.5196 20.7071 19.7071C20.5196 19.8946 20.2652 20 20 20H18C17.7348 20 17.4804 19.8946 17.2929 19.7071C17.1054 19.5196 17 19.2652 17 19C17 18.7348 17.1054 18.4804 17.2929 18.2929C17.4804 18.1054 17.7348 18 18 18H20ZM20 11C20.2549 11.0003 20.5 11.0979 20.6854 11.2728C20.8707 11.4478 20.9822 11.687 20.9972 11.9414C21.0121 12.1958 20.9293 12.4464 20.7657 12.6418C20.6021 12.8373 20.3701 12.9629 20.117 12.993L20 13H4C3.74512 12.9997 3.49997 12.9021 3.31463 12.7272C3.1293 12.5522 3.01777 12.313 3.00283 12.0586C2.98789 11.8042 3.07067 11.5536 3.23426 11.3582C3.39786 11.1627 3.6299 11.0371 3.883 11.007L4 11H20ZM6 4C6.26522 4 6.51957 4.10536 6.70711 4.29289C6.89464 4.48043 7 4.73478 7 5C7 5.26522 6.89464 5.51957 6.70711 5.70711C6.51957 5.89464 6.26522 6 6 6H4C3.73478 6 3.48043 5.89464 3.29289 5.70711C3.10536 5.51957 3 5.26522 3 5C3 4.73478 3.10536 4.48043 3.29289 4.29289C3.48043 4.10536 3.73478 4 4 4H6ZM13 4C13.2549 4.00028 13.5 4.09788 13.6854 4.27285C13.8707 4.44782 13.9822 4.68695 13.9972 4.94139C14.0121 5.19584 13.9293 5.44638 13.7657 5.64183C13.6021 5.83729 13.3701 5.9629 13.117 5.993L13 6H11C10.7451 5.99972 10.5 5.90212 10.3146 5.72715C10.1293 5.55218 10.0178 5.31305 10.0028 5.05861C9.98789 4.80416 10.0707 4.55362 10.2343 4.35817C10.3979 4.16271 10.6299 4.0371 10.883 4.007L11 4H13ZM20 4C20.2549 4.00028 20.5 4.09788 20.6854 4.27285C20.8707 4.44782 20.9822 4.68695 20.9972 4.94139C21.0121 5.19584 20.9293 5.44638 20.7657 5.64183C20.6021 5.83729 20.3701 5.9629 20.117 5.993L20 6H18C17.7451 5.99972 17.5 5.90212 17.3146 5.72715C17.1293 5.55218 17.0178 5.31305 17.0028 5.05861C16.9879 4.80416 17.0707 4.55362 17.2343 4.35817C17.3979 4.16271 17.6299 4.0371 17.883 4.007L18 4H20Z" fill="currentColor"/>
</svg>
