<svg width="24" height="24" viewBox="0 0 24 24" fill="none" xmlns="http://www.w3.org/2000/svg">
<path fill-rule="evenodd" clip-rule="evenodd" d="M15.586 2C16.1164 2.00011 16.625 2.2109 17 2.586L20.414 6C20.7891 6.37499 20.9999 6.88361 21 7.414V16C21 16.5304 20.7893 17.0391 20.4142 17.4142C20.0391 17.7893 19.5304 18 19 18H17V20C17 20.5304 16.7893 21.0391 16.4142 21.4142C16.0391 21.7893 15.5304 22 15 22H6C5.46957 22 4.96086 21.7893 4.58579 21.4142C4.21071 21.0391 4 20.5304 4 20V8C4 7.46957 4.21071 6.96086 4.58579 6.58579C4.96086 6.21071 5.46957 6 6 6H8V4C8 3.46957 8.21071 2.96086 8.58579 2.58579C8.96086 2.21071 9.46957 2 10 2H15.586ZM8 8H6V20H15V18H10C9.46957 18 8.96086 17.7893 8.58579 17.4142C8.21071 17.0391 8 16.5304 8 16V8ZM14 4H10V16H19V9H15.5C15.1271 8.99998 14.7676 8.86108 14.4916 8.61038C14.2156 8.35968 14.0428 8.01516 14.007 7.644L14 7.5V4ZM16 4.414V7H18.586L16 4.414Z" fill="currentColor"/>
</svg>
