<svg width="24" height="24" viewBox="0 0 24 24" fill="none" xmlns="http://www.w3.org/2000/svg">
<path fill-rule="evenodd" clip-rule="evenodd" d="M12 2C17.523 2 22 6.477 22 12C22 17.523 17.523 22 12 22C6.477 22 2 17.523 2 12C2 6.477 6.477 2 12 2ZM12 4C9.87827 4 7.84344 4.84285 6.34315 6.34315C4.84285 7.84344 4 9.87827 4 12C4 14.1217 4.84285 16.1566 6.34315 17.6569C7.84344 19.1571 9.87827 20 12 20C14.1217 20 16.1566 19.1571 17.6569 17.6569C19.1571 16.1566 20 14.1217 20 12C20 9.87827 19.1571 7.84344 17.6569 6.34315C16.1566 4.84285 14.1217 4 12 4ZM11.184 16.551C11.4258 16.4713 11.6889 16.4869 11.9196 16.5945C12.1503 16.7021 12.3313 16.8936 12.4257 17.1301C12.5201 17.3665 12.5207 17.6301 12.4275 17.867C12.3343 18.1039 12.1542 18.2963 11.924 18.405L11.816 18.449L10.316 18.949C10.0742 19.0287 9.81112 19.0131 9.58039 18.9055C9.34966 18.7979 9.16866 18.6064 9.07428 18.3699C8.97991 18.1335 8.97927 17.8699 9.07249 17.633C9.16572 17.3961 9.34579 17.2037 9.576 17.095L9.684 17.051L11.184 16.551ZM16.207 15.793L16.707 16.293C16.8892 16.4816 16.99 16.7342 16.9877 16.9964C16.9854 17.2586 16.8802 17.5094 16.6948 17.6948C16.5094 17.8802 16.2586 17.9854 15.9964 17.9877C15.7342 17.99 15.4816 17.8892 15.293 17.707L14.793 17.207C14.6108 17.0184 14.51 16.7658 14.5123 16.5036C14.5146 16.2414 14.6198 15.9906 14.8052 15.8052C14.9906 15.6198 15.2414 15.5146 15.5036 15.5123C15.7658 15.51 16.0184 15.6108 16.207 15.793ZM12 8C13.0609 8 14.0783 8.42143 14.8284 9.17157C15.5786 9.92172 16 10.9391 16 12C16 13.0609 15.5786 14.0783 14.8284 14.8284C14.0783 15.5786 13.0609 16 12 16C10.9391 16 9.92172 15.5786 9.17157 14.8284C8.42143 14.0783 8 13.0609 8 12C8 10.9391 8.42143 9.92172 9.17157 9.17157C9.92172 8.42143 10.9391 8 12 8ZM6.894 12.553L7.394 13.553C7.45757 13.6709 7.49681 13.8003 7.50939 13.9337C7.52198 14.067 7.50766 14.2015 7.46728 14.3292C7.4269 14.4569 7.36128 14.5751 7.27431 14.677C7.18735 14.7788 7.08082 14.8622 6.96103 14.9221C6.84125 14.982 6.71066 15.0172 6.577 15.0256C6.44334 15.0341 6.30935 15.0156 6.18297 14.9713C6.05659 14.927 5.9404 14.8578 5.84128 14.7677C5.74217 14.6776 5.66216 14.5686 5.606 14.447L5.106 13.447C5.04243 13.3291 5.00319 13.1997 4.99061 13.0663C4.97802 12.933 4.99234 12.7985 5.03272 12.6708C5.0731 12.5431 5.13872 12.4249 5.22569 12.323C5.31265 12.2212 5.41918 12.1378 5.53897 12.0779C5.65875 12.018 5.78934 11.9828 5.923 11.9744C6.05666 11.9659 6.19065 11.9844 6.31703 12.0287C6.44341 12.073 6.5596 12.1422 6.65872 12.2323C6.75783 12.3224 6.83784 12.4314 6.894 12.553ZM16.793 12.793C16.9652 12.6208 17.1943 12.5174 17.4373 12.5021C17.6803 12.4868 17.9206 12.5607 18.113 12.71L18.207 12.793L18.707 13.293C18.8863 13.473 18.9905 13.7144 18.9982 13.9684C19.006 14.2223 18.9168 14.4697 18.7488 14.6603C18.5807 14.8508 18.3464 14.9703 18.0935 14.9944C17.8406 15.0185 17.588 14.9454 17.387 14.79L17.293 14.707L16.793 14.207C16.6055 14.0195 16.5002 13.7652 16.5002 13.5C16.5002 13.2348 16.6055 12.9805 16.793 12.793ZM12 10C11.4696 10 10.9609 10.2107 10.5858 10.5858C10.2107 10.9609 10 11.4696 10 12C10 12.5304 10.2107 13.0391 10.5858 13.4142C10.9609 13.7893 11.4696 14 12 14C12.5304 14 13.0391 13.7893 13.4142 13.4142C13.7893 13.0391 14 12.5304 14 12C14 11.4696 13.7893 10.9609 13.4142 10.5858C13.0391 10.2107 12.5304 10 12 10ZM6.707 8.293L7.207 8.793C7.38916 8.9816 7.48995 9.2342 7.48767 9.4964C7.4854 9.7586 7.38023 10.0094 7.19482 10.1948C7.00941 10.3802 6.7586 10.4854 6.4964 10.4877C6.2342 10.49 5.9816 10.3892 5.793 10.207L5.293 9.707C5.11084 9.5184 5.01005 9.2658 5.01233 9.0036C5.0146 8.7414 5.11977 8.49059 5.30518 8.30518C5.49059 8.11977 5.7414 8.0146 6.0036 8.01233C6.2658 8.01005 6.5184 8.11084 6.707 8.293ZM16.707 6.293C16.8792 6.46519 16.9826 6.69429 16.9979 6.93732C17.0132 7.18035 16.9393 7.4206 16.79 7.613L16.707 7.707L16.207 8.207C16.027 8.38635 15.7856 8.49047 15.5316 8.49823C15.2777 8.50598 15.0303 8.41679 14.8397 8.24875C14.6492 8.08072 14.5297 7.84645 14.5056 7.59353C14.4815 7.3406 14.5546 7.08799 14.71 6.887L14.793 6.793L15.293 6.293C15.4805 6.10553 15.7348 6.00021 16 6.00021C16.2652 6.00021 16.5195 6.10553 16.707 6.293ZM10.051 5.183C10.1286 4.95074 10.2888 4.75504 10.5012 4.63302C10.7135 4.511 10.9632 4.47114 11.203 4.521L11.316 4.551L12.816 5.051C13.0587 5.1312 13.2614 5.30126 13.3826 5.52626C13.5038 5.75127 13.5343 6.01414 13.4677 6.2609C13.4012 6.50765 13.2427 6.71956 13.0247 6.85311C12.8068 6.98665 12.5461 7.0317 12.296 6.979L12.184 6.949L10.684 6.449C10.5594 6.40753 10.4441 6.34191 10.3448 6.25588C10.2456 6.16986 10.1642 6.06511 10.1054 5.94764C10.0466 5.83017 10.0116 5.70226 10.0022 5.57124C9.9929 5.44021 10.0095 5.30762 10.051 5.183Z" fill="currentColor"/>
</svg>
