<svg width="24" height="24" viewBox="0 0 24 24" fill="none" xmlns="http://www.w3.org/2000/svg">
<path d="M17 3C17.5304 3 18.0391 3.21071 18.4142 3.58579C18.7893 3.96086 19 4.46957 19 5V19H20C20.2652 19 20.5196 19.1054 20.7071 19.2929C20.8946 19.4804 21 19.7348 21 20C21 20.2652 20.8946 20.5196 20.7071 20.7071C20.5196 20.8946 20.2652 21 20 21H4C3.73478 21 3.48043 20.8946 3.29289 20.7071C3.10536 20.5196 3 20.2652 3 20C3 19.7348 3.10536 19.4804 3.29289 19.2929C3.48043 19.1054 3.73478 19 4 19H5V5C5 4.46957 5.21071 3.96086 5.58579 3.58579C5.96086 3.21071 6.46957 3 7 3H17ZM17 5H7V19H17V5ZM14.5 11C14.697 11 14.892 11.0388 15.074 11.1142C15.256 11.1896 15.4214 11.3001 15.5607 11.4393C15.6999 11.5786 15.8104 11.744 15.8858 11.926C15.9612 12.108 16 12.303 16 12.5C16 12.697 15.9612 12.892 15.8858 13.074C15.8104 13.256 15.6999 13.4214 15.5607 13.5607C15.4214 13.6999 15.256 13.8104 15.074 13.8858C14.892 13.9612 14.697 14 14.5 14C14.1022 14 13.7206 13.842 13.4393 13.5607C13.158 13.2794 13 12.8978 13 12.5C13 12.1022 13.158 11.7206 13.4393 11.4393C13.7206 11.158 14.1022 11 14.5 11Z" fill="currentColor"/>
</svg>
