<svg width="24" height="24" viewBox="0 0 24 24" fill="none" xmlns="http://www.w3.org/2000/svg">
<path d="M5.5 17C5.89782 17 6.27936 17.158 6.56066 17.4393C6.84196 17.7206 7 18.1022 7 18.5C7 18.8978 6.84196 19.2794 6.56066 19.5607C6.27936 19.842 5.89782 20 5.5 20C5.10218 20 4.72064 19.842 4.43934 19.5607C4.15804 19.2794 4 18.8978 4 18.5C4 18.1022 4.15804 17.7206 4.43934 17.4393C4.72064 17.158 5.10218 17 5.5 17ZM12 17C12.3978 17 12.7794 17.158 13.0607 17.4393C13.342 17.7206 13.5 18.1022 13.5 18.5C13.5 18.8978 13.342 19.2794 13.0607 19.5607C12.7794 19.842 12.3978 20 12 20C11.6022 20 11.2206 19.842 10.9393 19.5607C10.658 19.2794 10.5 18.8978 10.5 18.5C10.5 18.1022 10.658 17.7206 10.9393 17.4393C11.2206 17.158 11.6022 17 12 17ZM18.5 17C18.8978 17 19.2794 17.158 19.5607 17.4393C19.842 17.7206 20 18.1022 20 18.5C20 18.8978 19.842 19.2794 19.5607 19.5607C19.2794 19.842 18.8978 20 18.5 20C18.1022 20 17.7206 19.842 17.4393 19.5607C17.158 19.2794 17 18.8978 17 18.5C17 18.1022 17.158 17.7206 17.4393 17.4393C17.7206 17.158 18.1022 17 18.5 17ZM5.5 10.5C5.89782 10.5 6.27936 10.658 6.56066 10.9393C6.84196 11.2206 7 11.6022 7 12C7 12.3978 6.84196 12.7794 6.56066 13.0607C6.27936 13.342 5.89782 13.5 5.5 13.5C5.10218 13.5 4.72064 13.342 4.43934 13.0607C4.15804 12.7794 4 12.3978 4 12C4 11.6022 4.15804 11.2206 4.43934 10.9393C4.72064 10.658 5.10218 10.5 5.5 10.5ZM12 10.5C12.3978 10.5 12.7794 10.658 13.0607 10.9393C13.342 11.2206 13.5 11.6022 13.5 12C13.5 12.3978 13.342 12.7794 13.0607 13.0607C12.7794 13.342 12.3978 13.5 12 13.5C11.6022 13.5 11.2206 13.342 10.9393 13.0607C10.658 12.7794 10.5 12.3978 10.5 12C10.5 11.6022 10.658 11.2206 10.9393 10.9393C11.2206 10.658 11.6022 10.5 12 10.5ZM18.5 10.5C18.8978 10.5 19.2794 10.658 19.5607 10.9393C19.842 11.2206 20 11.6022 20 12C20 12.3978 19.842 12.7794 19.5607 13.0607C19.2794 13.342 18.8978 13.5 18.5 13.5C18.1022 13.5 17.7206 13.342 17.4393 13.0607C17.158 12.7794 17 12.3978 17 12C17 11.6022 17.158 11.2206 17.4393 10.9393C17.7206 10.658 18.1022 10.5 18.5 10.5ZM5.5 4C5.69698 4 5.89204 4.0388 6.07403 4.11418C6.25601 4.18956 6.42137 4.30005 6.56066 4.43934C6.69995 4.57863 6.81044 4.74399 6.88582 4.92597C6.9612 5.10796 7 5.30302 7 5.5C7 5.69698 6.9612 5.89204 6.88582 6.07403C6.81044 6.25601 6.69995 6.42137 6.56066 6.56066C6.42137 6.69995 6.25601 6.81044 6.07403 6.88582C5.89204 6.9612 5.69698 7 5.5 7C5.10218 7 4.72064 6.84196 4.43934 6.56066C4.15804 6.27936 4 5.89782 4 5.5C4 5.10218 4.15804 4.72064 4.43934 4.43934C4.72064 4.15804 5.10218 4 5.5 4ZM12 4C12.197 4 12.392 4.0388 12.574 4.11418C12.756 4.18956 12.9214 4.30005 13.0607 4.43934C13.1999 4.57863 13.3104 4.74399 13.3858 4.92597C13.4612 5.10796 13.5 5.30302 13.5 5.5C13.5 5.69698 13.4612 5.89204 13.3858 6.07403C13.3104 6.25601 13.1999 6.42137 13.0607 6.56066C12.9214 6.69995 12.756 6.81044 12.574 6.88582C12.392 6.9612 12.197 7 12 7C11.6022 7 11.2206 6.84196 10.9393 6.56066C10.658 6.27936 10.5 5.89782 10.5 5.5C10.5 5.10218 10.658 4.72064 10.9393 4.43934C11.2206 4.15804 11.6022 4 12 4ZM18.5 4C18.697 4 18.892 4.0388 19.074 4.11418C19.256 4.18956 19.4214 4.30005 19.5607 4.43934C19.6999 4.57863 19.8104 4.74399 19.8858 4.92597C19.9612 5.10796 20 5.30302 20 5.5C20 5.69698 19.9612 5.89204 19.8858 6.07403C19.8104 6.25601 19.6999 6.42137 19.5607 6.56066C19.4214 6.69995 19.256 6.81044 19.074 6.88582C18.892 6.9612 18.697 7 18.5 7C18.1022 7 17.7206 6.84196 17.4393 6.56066C17.158 6.27936 17 5.89782 17 5.5C17 5.10218 17.158 4.72064 17.4393 4.43934C17.7206 4.15804 18.1022 4 18.5 4Z" fill="currentColor"/>
</svg>
