<svg width="24" height="24" viewBox="0 0 24 24" fill="none" xmlns="http://www.w3.org/2000/svg">
<path d="M12 7.5C11.6022 7.5 11.2206 7.65804 10.9393 7.93934C10.658 8.22064 10.5 8.60218 10.5 9C10.5 9.39782 10.658 9.77936 10.9393 10.0607C11.2206 10.342 11.6022 10.5 12 10.5C12.3978 10.5 12.7794 10.342 13.0607 10.0607C13.342 9.77936 13.5 9.39782 13.5 9C13.5 8.60218 13.342 8.22064 13.0607 7.93934C12.7794 7.65804 12.3978 7.5 12 7.5ZM4.5 15C4.5 14.6022 4.65804 14.2206 4.93934 13.9393C5.22064 13.658 5.60218 13.5 6 13.5C6.39782 13.5 6.77936 13.658 7.06066 13.9393C7.34196 14.2206 7.5 14.6022 7.5 15C7.5 15.3978 7.34196 15.7794 7.06066 16.0607C6.77936 16.342 6.39782 16.5 6 16.5C5.60218 16.5 5.22064 16.342 4.93934 16.0607C4.65804 15.7794 4.5 15.3978 4.5 15ZM12 13.5C11.6022 13.5 11.2206 13.658 10.9393 13.9393C10.658 14.2206 10.5 14.6022 10.5 15C10.5 15.3978 10.658 15.7794 10.9393 16.0607C11.2206 16.342 11.6022 16.5 12 16.5C12.3978 16.5 12.7794 16.342 13.0607 16.0607C13.342 15.7794 13.5 15.3978 13.5 15C13.5 14.6022 13.342 14.2206 13.0607 13.9393C12.7794 13.658 12.3978 13.5 12 13.5ZM18 13.5C17.6022 13.5 17.2206 13.658 16.9393 13.9393C16.658 14.2206 16.5 14.6022 16.5 15C16.5 15.3978 16.658 15.7794 16.9393 16.0607C17.2206 16.342 17.6022 16.5 18 16.5C18.3978 16.5 18.7794 16.342 19.0607 16.0607C19.342 15.7794 19.5 15.3978 19.5 15C19.5 14.6022 19.342 14.2206 19.0607 13.9393C18.7794 13.658 18.3978 13.5 18 13.5ZM16.5 9C16.5 8.60218 16.658 8.22064 16.9393 7.93934C17.2206 7.65804 17.6022 7.5 18 7.5C18.3978 7.5 18.7794 7.65804 19.0607 7.93934C19.342 8.22064 19.5 8.60218 19.5 9C19.5 9.39782 19.342 9.77936 19.0607 10.0607C18.7794 10.342 18.3978 10.5 18 10.5C17.6022 10.5 17.2206 10.342 16.9393 10.0607C16.658 9.77936 16.5 9.39782 16.5 9ZM6 7.5C5.60218 7.5 5.22064 7.65804 4.93934 7.93934C4.65804 8.22064 4.5 8.60218 4.5 9C4.5 9.39782 4.65804 9.77936 4.93934 10.0607C5.22064 10.342 5.60218 10.5 6 10.5C6.39782 10.5 6.77936 10.342 7.06066 10.0607C7.34196 9.77936 7.5 9.39782 7.5 9C7.5 8.60218 7.34196 8.22064 7.06066 7.93934C6.77936 7.65804 6.39782 7.5 6 7.5Z" fill="currentColor"/>
</svg>
