<svg width="24" height="24" viewBox="0 0 24 24" fill="none" xmlns="http://www.w3.org/2000/svg">
<path fill-rule="evenodd" clip-rule="evenodd" d="M11.5003 4C12.4883 4.00001 13.449 4.32507 14.234 4.92505C15.019 5.52503 15.5849 6.36661 15.8443 7.32C15.9483 7.703 16.2653 7.99 16.6553 8.053C17.469 8.18782 18.2211 8.5708 18.8087 9.14951C19.3963 9.72823 19.7908 10.4744 19.938 11.2859C20.0852 12.0974 19.9781 12.9346 19.6312 13.6829C19.2844 14.4311 18.7147 15.0539 18.0003 15.466C17.8828 15.5297 17.7793 15.6164 17.6959 15.7208C17.6125 15.8253 17.5508 15.9454 17.5146 16.074C17.4784 16.2027 17.4683 16.3373 17.4851 16.4699C17.5018 16.6026 17.5449 16.7305 17.6119 16.8461C17.6789 16.9618 17.7684 17.0629 17.8751 17.1433C17.9818 17.2238 18.1036 17.2821 18.2332 17.3147C18.3628 17.3473 18.4977 17.3536 18.6298 17.3332C18.7619 17.3128 18.8885 17.2662 19.0023 17.196C20.0273 16.6037 20.8543 15.7215 21.3793 14.6604C21.9042 13.5992 22.1035 12.4065 21.9523 11.2324C21.801 10.0582 21.3059 8.95498 20.5292 8.0615C19.7526 7.16802 18.729 6.52419 17.5873 6.211C17.0536 4.79263 16.0413 3.60522 14.7253 2.85391C13.4092 2.1026 11.872 1.8346 10.3793 2.09621C8.88664 2.35782 7.53222 3.1326 6.55008 4.28669C5.56794 5.44079 5.01977 6.90169 5.00029 8.417C4.09731 8.81034 3.33061 9.46161 2.7964 10.2891C2.2622 11.1166 1.98428 12.0834 1.99752 13.0682C2.01077 14.0531 2.31459 15.0121 2.87085 15.8249C3.42712 16.6377 4.21106 17.2681 5.12429 17.637C5.36973 17.7344 5.64371 17.7307 5.88645 17.6268C6.1292 17.5229 6.321 17.3272 6.42002 17.0825C6.51904 16.8377 6.51723 16.5637 6.41499 16.3202C6.31276 16.0768 6.11838 15.8837 5.87429 15.783C5.28753 15.5454 4.79091 15.1284 4.45546 14.5916C4.12 14.0548 3.9629 13.4256 4.00661 12.7941C4.05033 12.1626 4.29262 11.561 4.69884 11.0756C5.10505 10.5901 5.65439 10.2454 6.26829 10.091C6.50538 10.0317 6.71295 9.88854 6.85252 9.68793C6.99209 9.48732 7.05418 9.2429 7.02729 9C6.74029 6.38 8.85129 4 11.5003 4ZM12.0003 11C12.2655 11 12.5199 11.1054 12.7074 11.2929C12.8949 11.4804 13.0003 11.7348 13.0003 12V18.584L14.2933 17.292C14.4811 17.1045 14.7356 16.9993 15.001 16.9994C15.2664 16.9996 15.5208 17.1052 15.7083 17.293C15.8958 17.4808 16.001 17.7353 16.0008 18.0007C16.0007 18.2661 15.8951 18.5205 15.7073 18.708L12.8833 21.527C12.6303 21.779 12.3833 22 12.0003 22C11.6163 22 11.3703 21.78 11.1173 21.527L8.29329 18.707C8.10565 18.5195 8.00018 18.2651 8.00009 17.9999C7.99999 17.7346 8.10528 17.4801 8.29279 17.2925C8.4803 17.1049 8.73466 16.9994 8.99994 16.9993C9.26521 16.9992 9.51965 17.1045 9.70729 17.292L11.0003 18.584V12C11.0003 11.7348 11.1056 11.4804 11.2932 11.2929C11.4807 11.1054 11.7351 11 12.0003 11Z" fill="currentColor"/>
</svg>
