<svg width="24" height="24" viewBox="0 0 24 24" fill="none" xmlns="http://www.w3.org/2000/svg">
<path d="M8 5V7H5V20H19V7H16V5H19C19.5304 5 20.0391 5.21071 20.4142 5.58579C20.7893 5.96086 21 6.46957 21 7V20C21 20.5304 20.7893 21.0391 20.4142 21.4142C20.0391 21.7893 19.5304 22 19 22H5C4.46957 22 3.96086 21.7893 3.58579 21.4142C3.21071 21.0391 3 20.5304 3 20V7C3 6.46957 3.21071 5.96086 3.58579 5.58579C3.96086 5.21071 4.46957 5 5 5H8ZM12 2C12.2652 2 12.5196 2.10536 12.7071 2.29289C12.8946 2.48043 13 2.73478 13 3V13.828L14.828 12C14.9208 11.9071 15.0311 11.8334 15.1524 11.7831C15.2737 11.7328 15.4038 11.7068 15.5351 11.7068C15.6665 11.7068 15.7966 11.7326 15.9179 11.7828C16.0393 11.833 16.1496 11.9067 16.2425 11.9995C16.3354 12.0923 16.4091 12.2026 16.4594 12.3239C16.5097 12.4452 16.5357 12.5753 16.5357 12.7066C16.5357 12.838 16.5099 12.9681 16.4597 13.0894C16.4095 13.2108 16.3358 13.3211 16.243 13.414L12.883 16.773C12.6486 17.0072 12.3308 17.1387 11.9995 17.1387C11.6682 17.1387 11.3504 17.0072 11.116 16.773L7.757 13.414C7.66416 13.3211 7.59052 13.2108 7.5403 13.0894C7.49008 12.9681 7.46425 12.838 7.4643 12.7066C7.46434 12.5753 7.49026 12.4452 7.54057 12.3239C7.59088 12.2026 7.66459 12.0923 7.7575 11.9995C7.85041 11.9067 7.9607 11.833 8.08207 11.7828C8.20343 11.7326 8.3335 11.7068 8.46485 11.7068C8.5962 11.7068 8.72626 11.7328 8.84759 11.7831C8.96892 11.8334 9.07916 11.9071 9.172 12L11 13.828V3C11 2.73478 11.1054 2.48043 11.2929 2.29289C11.4804 2.10536 11.7348 2 12 2Z" fill="currentColor"/>
</svg>
