<svg width="24" height="24" viewBox="0 0 24 24" fill="none" xmlns="http://www.w3.org/2000/svg">
<path fill-rule="evenodd" clip-rule="evenodd" d="M8.465 10.293C8.65252 10.1055 8.90683 10.0002 9.172 10.0002C9.43716 10.0002 9.69147 10.1055 9.879 10.293L12 12.414L14.121 10.293C14.3085 10.1053 14.5629 9.99988 14.8281 9.99979C15.0934 9.99969 15.3479 10.105 15.5355 10.2925C15.7231 10.48 15.8286 10.7344 15.8287 10.9996C15.8288 11.2649 15.7235 11.5193 15.536 11.707L12.707 14.536C12.5195 14.7235 12.2652 14.8288 12 14.8288C11.7348 14.8288 11.4805 14.7235 11.293 14.536L8.465 11.707C8.27753 11.5195 8.17221 11.2652 8.17221 11C8.17221 10.7348 8.27753 10.4805 8.465 10.293Z" fill="currentColor"/>
</svg>
