<svg width="24" height="24" viewBox="0 0 24 24" fill="none" xmlns="http://www.w3.org/2000/svg">
<path fill-rule="evenodd" clip-rule="evenodd" d="M13.6842 4.05099C13.934 3.9739 14.204 3.99765 14.4364 4.11716C14.6689 4.23667 14.8453 4.44245 14.9279 4.69042C15.0105 4.9384 14.9928 5.20887 14.8784 5.44391C14.7641 5.67896 14.5623 5.8599 14.3162 5.94799C14.2369 5.9746 14.1594 6.00634 14.0842 6.04299C14.1492 6.12899 14.2082 6.21899 14.2622 6.31299L14.3382 6.45599L18.6162 5.50599C19.1828 5.37964 19.7746 5.4338 20.3088 5.66087C20.8431 5.88794 21.2928 6.27653 21.595 6.77214C21.8971 7.26775 22.0366 7.84551 21.9938 8.42439C21.951 9.00327 21.728 9.55423 21.3562 9.99999C21.7189 10.4345 21.9403 10.9693 21.9909 11.5329C22.0416 12.0966 21.9189 12.6623 21.6394 13.1544C21.3599 13.6465 20.9369 14.0416 20.4269 14.2869C19.9169 14.5322 19.3441 14.6159 18.7852 14.527L18.6162 14.495L13.3642 13.327C13.3007 13.4718 13.2139 13.6053 13.1072 13.722L13.0002 13.827V19C12.9997 19.2548 12.9019 19.4998 12.7269 19.6849C12.5518 19.8701 12.3127 19.9814 12.0583 19.9962C11.804 20.011 11.5535 19.9282 11.3582 19.7646C11.1628 19.601 11.0373 19.369 11.0072 19.116L11.0002 19V13.828C10.8848 13.7259 10.7869 13.6056 10.7102 13.472L10.6362 13.327L5.38421 14.495C4.81749 14.6216 4.22535 14.5676 3.69091 14.3405C3.15646 14.1134 2.70654 13.7247 2.4043 13.2288C2.10205 12.733 1.96266 12.155 2.00569 11.5759C2.04872 10.9968 2.27201 10.4457 2.64421 9.99999C2.28153 9.56553 2.06009 9.03073 2.00948 8.46706C1.95887 7.90338 2.0815 7.33769 2.36098 6.84557C2.64047 6.35346 3.06349 5.95836 3.57353 5.71309C4.08356 5.46782 4.6563 5.38406 5.21521 5.47299L5.38421 5.50499L9.66221 6.45499C9.73421 6.30999 9.81921 6.17199 9.91621 6.04299C9.84102 6.00633 9.76352 5.9746 9.68421 5.94799C9.43813 5.8599 9.23631 5.67896 9.12199 5.44391C9.00766 5.20887 8.9899 4.9384 9.07252 4.69042C9.15513 4.44245 9.33155 4.23667 9.564 4.11716C9.79646 3.99765 10.0665 3.9739 10.3162 4.05099C10.8975 4.24595 11.4264 4.57163 11.8622 5.00299L12.0002 4.99999L12.1382 5.00299C12.574 4.57163 13.1029 4.24595 13.6842 4.05099ZM19.2202 11H13.9132L13.8282 11.382L19.0502 12.542C19.1522 12.5631 19.2575 12.5636 19.3597 12.5434C19.4619 12.5231 19.559 12.4826 19.6453 12.4243C19.7316 12.3659 19.8053 12.2908 19.8622 12.2035C19.919 12.1161 19.9577 12.0183 19.9761 11.9157C19.9944 11.8132 19.9921 11.708 19.9691 11.6063C19.9462 11.5047 19.9031 11.4087 19.8424 11.324C19.7818 11.2393 19.7047 11.1676 19.6159 11.1132C19.5271 11.0587 19.4282 11.0226 19.3252 11.007L19.2202 11ZM10.0872 11H4.78021C4.67511 11.0006 4.57123 11.0225 4.4748 11.0643C4.37837 11.1061 4.29138 11.167 4.21906 11.2433C4.14674 11.3195 4.09058 11.4096 4.05395 11.5081C4.01731 11.6066 4.00097 11.7115 4.00589 11.8165C4.01081 11.9215 4.0369 12.0244 4.08259 12.1191C4.12828 12.2137 4.19262 12.2981 4.27176 12.3673C4.3509 12.4365 4.4432 12.4889 4.54312 12.5215C4.64304 12.5541 4.74851 12.5662 4.85321 12.557L4.95021 12.542L10.1722 11.382L10.0872 11ZM12.0002 6.99999C11.6462 6.99999 11.3752 7.29999 11.3972 7.64099L11.4102 7.73499L12.0002 10.39L12.5902 7.73499C12.6098 7.64667 12.6094 7.55507 12.5888 7.46695C12.5683 7.37883 12.5282 7.29645 12.4716 7.2259C12.415 7.15534 12.3432 7.09841 12.2616 7.05931C12.18 7.02021 12.0907 6.99994 12.0002 6.99999ZM19.0502 7.45699L14.4742 8.47399L14.3582 8.99999H19.2192C19.3282 8.99899 19.4358 8.97515 19.535 8.93003C19.6342 8.8849 19.7228 8.81948 19.7952 8.73799C19.8676 8.65651 19.9221 8.56075 19.9552 8.45691C19.9883 8.35307 19.9992 8.24344 19.9874 8.1351C19.9755 8.02676 19.9411 7.92211 19.8863 7.82789C19.8315 7.73368 19.7576 7.65199 19.6693 7.5881C19.581 7.52421 19.4803 7.47953 19.3736 7.45695C19.267 7.43437 19.1568 7.43438 19.0502 7.45699ZM4.00021 8.21999C4.00021 8.65099 4.35021 8.99999 4.78021 8.99999H9.64221L9.52521 8.47499L4.95021 7.45699C4.836 7.43149 4.71752 7.43201 4.60354 7.45851C4.48957 7.48501 4.38301 7.53682 4.29178 7.6101C4.20054 7.68338 4.12696 7.77624 4.07649 7.88182C4.02602 7.9874 3.99995 8.10297 4.00021 8.21999Z" fill="currentColor"/>
</svg>
