<svg width="24" height="24" viewBox="0 0 24 24" fill="none" xmlns="http://www.w3.org/2000/svg">
<path fill-rule="evenodd" clip-rule="evenodd" d="M12 3C12.2652 3 12.5196 3.10536 12.7071 3.29289C12.8946 3.48043 13 3.73478 13 4V5H21C21.2652 5 21.5196 5.10536 21.7071 5.29289C21.8946 5.48043 22 5.73478 22 6C22 6.26522 21.8946 6.51957 21.7071 6.70711C21.5196 6.89464 21.2652 7 21 7V16C21.2652 16 21.5196 16.1054 21.7071 16.2929C21.8946 16.4804 22 16.7348 22 17C22 17.2652 21.8946 17.5196 21.7071 17.7071C21.5196 17.8946 21.2652 18 21 18H16.414L17.707 19.293C17.8892 19.4816 17.99 19.7342 17.9877 19.9964C17.9854 20.2586 17.8802 20.5094 17.6948 20.6948C17.5094 20.8802 17.2586 20.9854 16.9964 20.9877C16.7342 20.99 16.4816 20.8892 16.293 20.707L13.586 18H10.414L7.707 20.707C7.5184 20.8892 7.2658 20.99 7.0036 20.9877C6.7414 20.9854 6.49059 20.8802 6.30518 20.6948C6.11977 20.5094 6.0146 20.2586 6.01233 19.9964C6.01005 19.7342 6.11084 19.4816 6.293 19.293L7.586 18H3C2.73478 18 2.48043 17.8946 2.29289 17.7071C2.10536 17.5196 2 17.2652 2 17C2 16.7348 2.10536 16.4804 2.29289 16.2929C2.48043 16.1054 2.73478 16 3 16V7C2.73478 7 2.48043 6.89464 2.29289 6.70711C2.10536 6.51957 2 6.26522 2 6C2 5.73478 2.10536 5.48043 2.29289 5.29289C2.48043 5.10536 2.73478 5 3 5H11V4C11 3.73478 11.1054 3.48043 11.2929 3.29289C11.4804 3.10536 11.7348 3 12 3ZM19 16V7H5V16H19Z" fill="currentColor"/>
</svg>
