<svg width="24" height="24" viewBox="0 0 24 24" fill="none" xmlns="http://www.w3.org/2000/svg">
<path d="M18 2C18.5046 1.99984 18.9906 2.19041 19.3605 2.5335C19.7305 2.87659 19.9572 3.34684 19.995 3.85L20 4V18C20.0002 18.5046 19.8096 18.9906 19.4665 19.3605C19.1234 19.7305 18.6532 19.9572 18.15 19.995L18 20H16.618L16.894 20.553C17.0072 20.781 17.0292 21.0436 16.9555 21.2873C16.8818 21.531 16.7179 21.7374 16.4973 21.8644C16.2767 21.9914 16.0159 22.0295 15.7681 21.9709C15.5204 21.9123 15.3043 21.7614 15.164 21.549L15.106 21.447L14.382 20H9.618L8.894 21.447C8.78 21.6753 8.58303 21.8514 8.34342 21.9392C8.10381 22.027 7.83969 22.0199 7.60516 21.9193C7.37062 21.8187 7.18342 21.6323 7.08188 21.3982C6.98034 21.1641 6.97216 20.9 7.059 20.66L7.106 20.553L7.382 20H6C5.49542 20.0002 5.00943 19.8096 4.63945 19.4665C4.26947 19.1234 4.04284 18.6532 4.005 18.15L4 18V4C3.99984 3.49542 4.19041 3.00943 4.5335 2.63945C4.87659 2.26947 5.34684 2.04284 5.85 2.005L6 2H18ZM18 12H6V18H18V12ZM13 14C13.2549 14.0003 13.5 14.0979 13.6854 14.2728C13.8707 14.4478 13.9822 14.687 13.9972 14.9414C14.0121 15.1958 13.9293 15.4464 13.7657 15.6418C13.6021 15.8373 13.3701 15.9629 13.117 15.993L13 16H11C10.7451 15.9997 10.5 15.9021 10.3146 15.7272C10.1293 15.5522 10.0178 15.313 10.0028 15.0586C9.98789 14.8042 10.0707 14.5536 10.2343 14.3582C10.3979 14.1627 10.6299 14.0371 10.883 14.007L11 14H13ZM18 4H6V10H18V4ZM13 6C13.2652 6 13.5196 6.10536 13.7071 6.29289C13.8946 6.48043 14 6.73478 14 7C14 7.26522 13.8946 7.51957 13.7071 7.70711C13.5196 7.89464 13.2652 8 13 8H11C10.7348 8 10.4804 7.89464 10.2929 7.70711C10.1054 7.51957 10 7.26522 10 7C10 6.73478 10.1054 6.48043 10.2929 6.29289C10.4804 6.10536 10.7348 6 11 6H13Z" fill="currentColor"/>
</svg>
