<svg width="24" height="24" viewBox="0 0 24 24" fill="none" xmlns="http://www.w3.org/2000/svg">
<path fill-rule="evenodd" clip-rule="evenodd" d="M12 2C17.523 2 22 6.477 22 12C22 17.523 17.523 22 12 22C6.477 22 2 17.523 2 12C2 6.477 6.477 2 12 2ZM13.617 13.984C11.068 14.7345 8.83947 16.3085 7.28 18.46C8.64904 19.4632 10.3028 20.0027 12 20C13.0383 20.0017 14.067 19.8003 15.028 19.407C14.7134 17.562 14.2414 15.7474 13.617 13.983V13.984ZM15.595 13.581C16.127 15.124 16.555 16.716 16.869 18.349C18.3361 17.224 19.3686 15.6259 19.791 13.826C18.4173 13.5004 16.9973 13.4175 15.595 13.581ZM12.351 10.912C9.67518 11.8556 6.82287 12.1917 4.001 11.896L4 12C4 13.927 4.682 15.695 5.817 17.076C7.59331 14.7187 10.0681 12.9819 12.889 12.113C12.7177 11.7094 12.5383 11.3094 12.351 10.913V10.912ZM18.488 7.319C17.1929 8.4501 15.7504 9.40042 14.2 10.144C14.434 10.644 14.657 11.149 14.868 11.661C16.568 11.401 18.318 11.455 19.998 11.822C19.9646 10.2023 19.4378 8.63137 18.488 7.319ZM8.574 4.77C7.52882 5.26673 6.60352 5.98376 5.86162 6.87187C5.11972 7.75997 4.5788 8.79811 4.276 9.915C6.6914 10.1589 9.13107 9.88624 11.433 9.115C10.5956 7.59382 9.63965 6.14099 8.574 4.77ZM12 4C11.52 4 11.05 4.042 10.595 4.123C11.5962 5.46815 12.4995 6.88346 13.298 8.358C14.68 7.69985 15.967 6.85826 17.124 5.856C15.6872 4.65431 13.8731 3.99718 12 4Z" fill="currentColor"/>
</svg>
