<svg width="24" height="24" viewBox="0 0 24 24" fill="none" xmlns="http://www.w3.org/2000/svg">
<path fill-rule="evenodd" clip-rule="evenodd" d="M12.185 2.421C12.3322 2.2135 12.5529 2.0699 12.8023 2.01944C13.0517 1.96898 13.3109 2.01546 13.5272 2.14942C13.7434 2.28337 13.9005 2.49473 13.9665 2.74044C14.0324 2.98616 14.0022 3.24777 13.882 3.472L13.815 3.579L13.517 4H16.5C16.8729 4.00002 17.2324 4.13892 17.5084 4.38962C17.7844 4.64032 17.9572 4.98484 17.993 5.356L18 5.5V7L17.997 7.084C18.539 7.274 18.939 7.768 18.994 8.361L19 8.501V10C18.9998 10.2442 18.9104 10.4798 18.7484 10.6625C18.5865 10.8453 18.3634 10.9625 18.121 10.992L18.005 10.999L17.085 20.199C17.038 20.6661 16.8282 21.1017 16.4924 21.4297C16.1566 21.7577 15.7161 21.9571 15.248 21.993L15.095 21.999H8.905C8.43512 21.9992 7.98017 21.834 7.61994 21.5322C7.25972 21.2305 7.01723 20.8116 6.935 20.349L6.915 20.199L5.995 10.999C5.75078 10.9977 5.51546 10.9071 5.33346 10.7443C5.15145 10.5814 5.03533 10.3576 5.007 10.115L5 10V8.5C4.99985 8.18914 5.09628 7.88591 5.27596 7.63225C5.45565 7.37858 5.7097 7.187 6.003 7.084L6.001 7.042L6 5.5C6.00002 5.12712 6.13892 4.76761 6.38962 4.49158C6.64032 4.21555 6.98484 4.0428 7.356 4.007L7.5 4H11.087L11.131 3.913L11.185 3.83L12.185 2.421ZM15.895 12.001H8.105L8.905 20.001H15.095L15.895 12.001ZM17 9H7V10H17V9ZM16 6H8V7H16V6Z" fill="currentColor"/>
</svg>
