<svg width="24" height="24" viewBox="0 0 24 24" fill="none" xmlns="http://www.w3.org/2000/svg">
<path fill-rule="evenodd" clip-rule="evenodd" d="M8.61866 3.5L11.9977 5.45L15.3767 3.5C15.8547 3.224 16.6297 3.224 17.1087 3.5L21.3507 5.95C21.8297 6.225 21.8297 6.673 21.3507 6.95L17.9737 8.9L21.3507 10.85C21.8297 11.125 21.8297 11.573 21.3507 11.85L18.1957 13.67V17C18.1957 17.1755 18.1494 17.348 18.0617 17.5C17.9739 17.652 17.8477 17.7782 17.6957 17.866L12.4997 20.866C12.3476 20.9538 12.1752 21 11.9997 21C11.8241 21 11.6517 20.9538 11.4997 20.866L6.30366 17.866C6.15164 17.7782 6.02541 17.652 5.93764 17.5C5.84987 17.348 5.80366 17.1755 5.80366 17V13.673L2.64366 11.849C2.16566 11.573 2.16566 11.125 2.64366 10.849L6.02166 8.9L2.64366 6.95C2.16566 6.674 2.16566 6.226 2.64366 5.95L6.88666 3.5C7.36466 3.224 8.13966 3.224 8.61866 3.5ZM11.9977 12.348L8.61766 14.298C8.39166 14.429 8.09966 14.498 7.80366 14.505V16.423L11.9997 18.845L16.1957 16.423V14.505C15.9095 14.5042 15.6279 14.4331 15.3757 14.298L11.9977 12.348ZM16.2427 9.9L13.7327 11.35L16.2427 12.799L18.7527 11.349L16.2427 9.9ZM7.75266 9.9L5.24166 11.35L7.75166 12.799L10.2627 11.349L7.75266 9.9ZM11.9997 7.45L9.48966 8.9L11.9997 10.35L14.5097 8.9L11.9997 7.45ZM7.75266 5L5.24166 6.45L7.75166 7.899L10.2627 6.449L7.75266 5ZM16.2427 5L13.7317 6.45L16.2417 7.899L18.7527 6.449L16.2427 5Z" fill="currentColor"/>
</svg>
