<svg width="24" height="24" viewBox="0 0 24 24" fill="none" xmlns="http://www.w3.org/2000/svg">
<path fill-rule="evenodd" clip-rule="evenodd" d="M7.37189 3.071C7.49383 3.11978 7.60496 3.1921 7.69895 3.28383C7.79293 3.37557 7.86793 3.48491 7.91965 3.60563C7.97138 3.72635 7.99881 3.85608 8.0004 3.9874C8.00198 4.11872 7.97769 4.24907 7.92889 4.371L7.10189 6.441C6.80073 7.19398 6.68724 8.00891 6.77121 8.81551C6.85519 9.62212 7.13409 10.3962 7.58389 11.071L8.08189 11.819C8.7118 12.7638 9.10241 13.8477 9.22 14.9771C9.3376 16.1066 9.17866 17.2477 8.75689 18.302L7.92889 20.372C7.88004 20.4939 7.80765 20.6051 7.71585 20.699C7.62406 20.793 7.51466 20.8679 7.3939 20.9196C7.27313 20.9713 7.14337 20.9987 7.01203 21.0002C6.88068 21.0017 6.75032 20.9774 6.62839 20.9285C6.50646 20.8797 6.39534 20.8073 6.30139 20.7155C6.20743 20.6237 6.13247 20.5143 6.0808 20.3935C6.02912 20.2727 6.00174 20.143 6.00021 20.0116C5.99868 19.8803 6.02304 19.7499 6.07189 19.628L6.89989 17.558C7.20105 16.805 7.31454 15.9901 7.23057 15.1835C7.1466 14.3769 6.86769 13.6028 6.41789 12.928L5.91989 12.181C5.28998 11.2362 4.89937 10.1523 4.78178 9.02286C4.66418 7.89342 4.82312 6.75232 5.24489 5.698L6.07189 3.628C6.12067 3.50606 6.19299 3.39493 6.28472 3.30094C6.37646 3.20696 6.4858 3.13196 6.60652 3.08024C6.72724 3.02852 6.85696 3.00108 6.98829 2.99949C7.11961 2.99791 7.24996 3.02221 7.37189 3.071ZM12.3719 3.071C12.4938 3.11978 12.605 3.1921 12.6989 3.28383C12.7929 3.37557 12.8679 3.48491 12.9197 3.60563C12.9714 3.72635 12.9988 3.85608 13.0004 3.9874C13.002 4.11872 12.9777 4.24907 12.9289 4.371L12.1019 6.441C11.8007 7.19398 11.6872 8.00891 11.7712 8.81551C11.8552 9.62212 12.1341 10.3962 12.5839 11.071L13.0819 11.819C13.7118 12.7638 14.1024 13.8477 14.22 14.9771C14.3376 16.1066 14.1787 17.2477 13.7569 18.302L12.9289 20.372C12.8302 20.6183 12.6378 20.8152 12.3939 20.9196C12.15 21.024 11.8746 21.0272 11.6284 20.9285C11.3821 20.8298 11.1852 20.6374 11.0808 20.3935C10.9764 20.1496 10.9732 19.8743 11.0719 19.628L11.8999 17.558C12.2011 16.805 12.3145 15.9901 12.2306 15.1835C12.1466 14.3769 11.8677 13.6028 11.4179 12.928L10.9199 12.181C10.29 11.2362 9.89938 10.1523 9.78178 9.02286C9.66418 7.89342 9.82312 6.75232 10.2449 5.698L11.0719 3.628C11.1207 3.50606 11.193 3.39493 11.2847 3.30094C11.3765 3.20696 11.4858 3.13196 11.6065 3.08024C11.7272 3.02852 11.857 3.00108 11.9883 2.99949C12.1196 2.99791 12.25 3.02221 12.3719 3.071ZM17.3719 3.071C17.4938 3.11978 17.605 3.1921 17.6989 3.28383C17.7929 3.37557 17.8679 3.48491 17.9197 3.60563C17.9714 3.72635 17.9988 3.85608 18.0004 3.9874C18.002 4.11872 17.9777 4.24907 17.9289 4.371L17.1019 6.441C16.8007 7.19398 16.6872 8.00891 16.7712 8.81551C16.8552 9.62212 17.1341 10.3962 17.5839 11.071L18.0819 11.819C18.7118 12.7638 19.1024 13.8477 19.22 14.9771C19.3376 16.1066 19.1787 17.2477 18.7569 18.302L17.9289 20.372C17.88 20.4939 17.8076 20.6051 17.7159 20.699C17.6241 20.793 17.5147 20.8679 17.3939 20.9196C17.2731 20.9713 17.1434 20.9987 17.012 21.0002C16.8807 21.0017 16.7503 20.9774 16.6284 20.9285C16.5065 20.8797 16.3953 20.8073 16.3014 20.7155C16.2074 20.6237 16.1325 20.5143 16.0808 20.3935C16.0291 20.2727 16.0017 20.143 16.0002 20.0116C15.9987 19.8803 16.023 19.7499 16.0719 19.628L16.8999 17.558C17.2011 16.805 17.3145 15.9901 17.2306 15.1835C17.1466 14.3769 16.8677 13.6028 16.4179 12.928L15.9199 12.181C15.29 11.2362 14.8994 10.1523 14.7818 9.02286C14.6642 7.89342 14.8231 6.75232 15.2449 5.698L16.0719 3.628C16.1207 3.50606 16.193 3.39493 16.2847 3.30094C16.3765 3.20696 16.4858 3.13196 16.6065 3.08024C16.7272 3.02852 16.857 3.00108 16.9883 2.99949C17.1196 2.99791 17.25 3.02221 17.3719 3.071Z" fill="currentColor"/>
</svg>
