<svg width="24" height="24" viewBox="0 0 24 24" fill="none" xmlns="http://www.w3.org/2000/svg">
<path fill-rule="evenodd" clip-rule="evenodd" d="M7 9.00001C7 7.67392 7.52678 6.40215 8.46447 5.46447C9.40215 4.52679 10.6739 4.00001 12 4.00001C13.3261 4.00001 14.5979 4.52679 15.5355 5.46447C16.4732 6.40215 17 7.67392 17 9.00001C17 11.098 15.61 12.376 14.472 13.966C13.756 14.968 13.12 16.195 13.002 17.932C12.92 19.15 12.047 20 11 20C10.4696 20 9.96086 19.7893 9.58579 19.4142C9.21071 19.0391 9 18.5304 9 18C9 16.546 10.065 15.528 11.625 14.28C13.023 13.163 14.495 12.142 14.97 10.243C15.289 8.96701 15.02 7.87601 14.364 7.10301C14.0717 6.76087 13.7094 6.48538 13.3016 6.29511C12.8938 6.10484 12.45 6.00421 12 6.00001C11.3349 5.99995 10.6886 6.22093 10.1627 6.62822C9.63687 7.0355 9.26128 7.606 9.095 8.25001C9.03516 8.50451 9.07737 8.77232 9.21258 8.99607C9.3478 9.21983 9.56526 9.38174 9.8184 9.44711C10.0715 9.51249 10.3402 9.47613 10.5668 9.34583C10.7935 9.21553 10.9601 9.00165 11.031 8.75001C11.0865 8.53523 11.2118 8.34498 11.3872 8.20921C11.5626 8.07343 11.7782 7.99984 12 8.00001C12.276 8.00001 12.616 8.13401 12.84 8.39701C13.032 8.62401 13.211 9.03301 13.03 9.75701C12.697 11.091 11.385 11.912 10.375 12.719C8.935 13.872 7 15.454 7 18C7 19.0609 7.42143 20.0783 8.17157 20.8284C8.92172 21.5786 9.93913 22 11 22C13.267 22 14.856 20.157 14.998 18.068C15.083 16.805 15.528 15.928 16.099 15.129C17.506 13.163 19 11.587 19 9.00001C18.9995 8.0318 18.7981 7.07423 18.4086 6.18782C18.0192 5.30141 17.45 4.50543 16.7372 3.8502C16.0244 3.19498 15.1834 2.69474 14.2674 2.38113C13.3514 2.06751 12.3803 1.94732 11.4155 2.02817C10.4507 2.10902 9.5131 2.38914 8.66206 2.85083C7.81102 3.31251 7.06501 3.94573 6.47119 4.71044C5.87736 5.47516 5.44864 6.35475 5.2121 7.29362C4.97557 8.23249 4.93638 9.21022 5.097 10.165C5.14627 10.4214 5.29383 10.6483 5.50816 10.7973C5.7225 10.9463 5.98661 11.0056 6.24408 10.9626C6.50154 10.9195 6.73196 10.7774 6.8861 10.5667C7.04024 10.356 7.10588 10.0934 7.069 9.83501C7.02286 9.55907 6.99978 9.27977 7 9.00001Z" fill="currentColor"/>
</svg>
