<svg width="24" height="24" viewBox="0 0 24 24" fill="none" xmlns="http://www.w3.org/2000/svg">
<path fill-rule="evenodd" clip-rule="evenodd" d="M2 12C2 6.477 6.477 2 12 2C17.523 2 22 6.477 22 12C22 17.523 17.523 22 12 22C6.477 22 2 17.523 2 12ZM4.062 11C4.19349 9.94254 4.53629 8.92232 5.07 8H18.93C19.4637 8.92231 19.8065 9.94253 19.938 11H4.062ZM12 4C13.9492 3.9971 15.8319 4.70863 17.292 6H6.708C8.16808 4.70863 10.0508 3.9971 12 4ZM17.292 18C15.8319 19.2914 13.9492 20.0029 12 20C10.0508 20.0029 8.16808 19.2914 6.708 18H17.292ZM18.93 16H5.07C4.53629 15.0777 4.19349 14.0575 4.062 13H19.938C19.8065 14.0575 19.4637 15.0777 18.93 16Z" fill="currentColor"/>
</svg>
