<svg width="24" height="24" viewBox="0 0 24 24" fill="none" xmlns="http://www.w3.org/2000/svg">
<path fill-rule="evenodd" clip-rule="evenodd" d="M2 12C2 6.477 6.477 2 12 2C17.523 2 22 6.477 22 12C22 17.523 17.523 22 12 22C6.477 22 2 17.523 2 12ZM4 12C3.99905 10.6759 4.32705 9.37231 4.95455 8.20634C5.58204 7.04038 6.48936 6.04856 7.595 5.32C6.62 7.095 6 9.445 6 12C6 14.59 6.673 16.962 7.683 18.736C6.55317 18.0125 5.6236 17.0162 4.97997 15.8391C4.33633 14.6619 3.99932 13.3416 4 12ZM20 12C20 14.79 18.57 17.248 16.405 18.68C17.38 16.905 18 14.555 18 12C18 9.445 17.38 7.094 16.405 5.32C17.5106 6.04856 18.418 7.04038 19.0455 8.20634C19.6729 9.37231 20.001 10.6759 20 12ZM11 19.611C10.52 19.279 9.988 18.711 9.482 17.851C8.62 16.388 8 14.317 8 12C8 9.672 8.587 7.6 9.429 6.14C9.94 5.253 10.49 4.675 11 4.348V19.611ZM13 19.651V4.348C13.51 4.675 14.06 5.253 14.571 6.14C15.413 7.6 16 9.672 16 12C16 14.328 15.413 16.4 14.571 17.86C14.06 18.747 13.51 19.325 13 19.651Z" fill="currentColor"/>
</svg>
