<svg width="24" height="24" viewBox="0 0 24 24" fill="none" xmlns="http://www.w3.org/2000/svg">
<path fill-rule="evenodd" clip-rule="evenodd" d="M12 2C17.523 2 22 6.477 22 12C22 17.523 17.523 22 12 22C6.477 22 2 17.523 2 12C2 6.477 6.477 2 12 2ZM13.482 16.94C12.4956 17.0205 11.5044 17.0205 10.518 16.94C10.611 17.337 10.715 17.705 10.828 18.042C11.079 18.797 11.358 19.335 11.618 19.664C11.745 19.826 11.848 19.912 11.918 19.954L11.969 19.982L11.999 19.99L12.031 19.982L12.082 19.955C12.198 19.8764 12.2995 19.7783 12.382 19.665C12.642 19.335 12.921 18.797 13.172 18.042C13.285 17.705 13.389 17.337 13.482 16.94ZM4.807 15.505C5.71511 17.3641 7.30613 18.8007 9.248 19.515C9.13009 19.2397 9.02399 18.9594 8.93 18.675C8.71186 18.0096 8.53814 17.3304 8.41 16.642C7.1722 16.3914 5.96445 16.0103 4.807 15.505ZM19.194 15.505C18.049 16.005 16.843 16.388 15.589 16.642C15.4614 17.3309 15.2877 18.0104 15.069 18.676C14.973 18.966 14.867 19.248 14.751 19.514C16.6936 18.8001 18.2853 17.3635 19.194 15.504V15.505ZM13.976 10.871C12.6643 11.0439 11.3357 11.0439 10.024 10.871C9.96694 12.2143 10.0141 13.56 10.165 14.896C11.3844 15.0351 12.6156 15.0351 13.835 14.896C13.9459 13.9347 14.001 12.9677 14 12C14 11.616 13.992 11.24 13.976 10.87V10.871ZM4.568 9.032C4.07909 10.2547 3.90044 11.5794 4.048 12.888C5.32153 13.6189 6.69022 14.1698 8.115 14.525C7.99205 13.1776 7.96732 11.823 8.041 10.472C6.82723 10.1404 5.66029 9.65657 4.568 9.032ZM19.432 9.032C18.3397 9.65656 17.1728 10.1404 15.959 10.472C16.0327 11.823 16.008 13.1776 15.885 14.525C17.3094 14.1698 18.6778 13.6189 19.951 12.888C20.0984 11.5798 19.9197 10.2554 19.431 9.033L19.432 9.032ZM12.016 4.012L12.005 4.01L11.985 4.013L11.947 4.028C11.8191 4.10919 11.7072 4.21326 11.617 4.335C11.357 4.665 11.079 5.203 10.827 5.957C10.557 6.765 10.339 7.757 10.194 8.876C11.3922 9.04249 12.6078 9.04249 13.806 8.876C13.661 7.756 13.442 6.765 13.173 5.957C12.921 5.203 12.643 4.664 12.383 4.335C12.3002 4.22199 12.1987 4.12392 12.083 4.045L12.016 4.012ZM9.248 4.486C7.7625 5.03195 6.47168 6.00511 5.538 7.283C6.381 7.767 7.284 8.159 8.233 8.446C8.393 7.282 8.63 6.223 8.93 5.324C9.027 5.033 9.133 4.752 9.248 4.486ZM14.752 4.486C14.867 4.752 14.972 5.033 15.07 5.324C15.37 6.224 15.607 7.282 15.767 8.446C16.7066 8.16191 17.6107 7.77173 18.462 7.283C17.5284 6.00507 16.2375 5.0319 14.752 4.486Z" fill="currentColor"/>
</svg>
