<svg width="24" height="24" viewBox="0 0 24 24" fill="none" xmlns="http://www.w3.org/2000/svg">
<path d="M19 17C19.5499 17.0003 20.0892 17.1517 20.5589 17.4378C21.0286 17.7238 21.4106 18.1335 21.6632 18.6219C21.9158 19.1104 22.0293 19.6589 21.9912 20.2075C21.9532 20.7562 21.7651 21.2838 21.4475 21.7327C21.1298 22.1816 20.6949 22.5346 20.1903 22.7531C19.6856 22.9716 19.1306 23.0471 18.5859 22.9715C18.0412 22.8959 17.5277 22.672 17.1017 22.3243C16.6756 21.9766 16.3533 21.5185 16.17 21H15C14.7348 21 14.4804 20.8946 14.2929 20.7071C14.1054 20.5196 14 20.2652 14 20C14 19.7348 14.1054 19.4804 14.2929 19.2929C14.4804 19.1053 14.7348 19 15 19H16.17C16.377 18.4149 16.7603 17.9084 17.2671 17.5502C17.774 17.192 18.3794 16.9998 19 17ZM19.106 3.55299C19.1622 3.43141 19.2422 3.32235 19.3413 3.23229C19.4404 3.14222 19.5566 3.07298 19.683 3.02867C19.8094 2.98436 19.9433 2.96589 20.077 2.97435C20.2107 2.98281 20.3412 3.01803 20.461 3.07792C20.5808 3.13782 20.6874 3.22116 20.7743 3.32301C20.8613 3.42485 20.9269 3.54313 20.9673 3.67082C21.0077 3.79851 21.022 3.93301 21.0094 4.06634C20.9968 4.19967 20.9576 4.32912 20.894 4.44699L20.52 5.17799L20.044 6.06799L19.632 6.80699L19.278 7.42699L18.885 8.09299L18.602 8.56099L18.149 9.29199L17.828 9.79599L17.492 10.312L17.142 10.836L16.778 11.366L16.401 11.902L16.011 12.44L15.609 12.98C14.113 14.953 12.349 16.935 10.417 18.431C8.494 19.921 6.312 21 4 21C3.73478 21 3.48043 20.8946 3.29289 20.7071C3.10536 20.5196 3 20.2652 3 20C3 19.7348 3.10536 19.4804 3.29289 19.2929C3.48043 19.1053 3.73478 19 4 19C5.688 19 7.444 18.204 9.192 16.85C10.932 15.502 12.575 13.672 14.016 11.77L14.215 11.506L14.605 10.975L14.982 10.445L15.346 9.91999L15.696 9.39999L16.033 8.88999L16.51 8.14099L16.953 7.42399L17.487 6.52599L17.844 5.90699L18.256 5.16799L18.666 4.40599L19.106 3.55299ZM19 19C18.7348 19 18.4804 19.1053 18.2929 19.2929C18.1054 19.4804 18 19.7348 18 20C18 20.2652 18.1054 20.5196 18.2929 20.7071C18.4804 20.8946 18.7348 21 19 21C19.2652 21 19.5196 20.8946 19.7071 20.7071C19.8946 20.5196 20 20.2652 20 20C20 19.7348 19.8946 19.4804 19.7071 19.2929C19.5196 19.1053 19.2652 19 19 19ZM12 19C12.2549 19.0003 12.5 19.0979 12.6854 19.2728C12.8707 19.4478 12.9822 19.6869 12.9972 19.9414C13.0121 20.1958 12.9293 20.4464 12.7657 20.6418C12.6021 20.8373 12.3701 20.9629 12.117 20.993L12 21H11C10.7451 20.9997 10.5 20.9021 10.3146 20.7271C10.1293 20.5522 10.0178 20.313 10.0028 20.0586C9.98789 19.8042 10.0707 19.5536 10.2343 19.3582C10.3979 19.1627 10.6299 19.0371 10.883 19.007L11 19H12Z" fill="currentColor"/>
</svg>
