<svg width="24" height="24" viewBox="0 0 24 24" fill="none" xmlns="http://www.w3.org/2000/svg">
<path fill-rule="evenodd" clip-rule="evenodd" d="M20.447 3.106C20.684 3.22465 20.8642 3.43254 20.948 3.68399C21.0319 3.93544 21.0124 4.20988 20.894 4.447C20.636 4.964 18.603 9.03 15.609 12.979C14.113 14.953 12.349 16.935 10.417 18.431C8.494 19.921 6.312 21 4 21C3.73478 21 3.48043 20.8946 3.29289 20.7071C3.10536 20.5196 3 20.2652 3 20C3 19.7348 3.10536 19.4804 3.29289 19.2929C3.48043 19.1054 3.73478 19 4 19C5.688 19 7.444 18.204 9.192 16.85C10.932 15.502 12.575 13.672 14.016 11.77C16.896 7.972 18.862 4.04 19.106 3.553C19.2246 3.31599 19.4325 3.13577 19.684 3.05196C19.9354 2.96814 20.2099 2.98758 20.447 3.106Z" fill="currentColor"/>
</svg>
