<svg width="24" height="24" viewBox="0 0 24 24" fill="none" xmlns="http://www.w3.org/2000/svg">
<path fill-rule="evenodd" clip-rule="evenodd" d="M13.5829 5.569C15.5059 4.079 17.6879 3 19.9999 3C20.2651 3 20.5195 3.10536 20.707 3.29289C20.8945 3.48043 20.9999 3.73478 20.9999 4C20.9999 4.26522 20.8945 4.51957 20.707 4.70711C20.5195 4.89464 20.2651 5 19.9999 5C18.3119 5 16.5559 5.796 14.8079 7.15C13.0679 8.497 11.4249 10.328 9.9839 12.23C7.1039 16.028 5.1379 19.96 4.8939 20.447C4.83774 20.5686 4.75773 20.6776 4.65862 20.7677C4.55951 20.8578 4.44332 20.927 4.31693 20.9713C4.19055 21.0156 4.05656 21.0341 3.9229 21.0256C3.78925 21.0172 3.65865 20.982 3.53887 20.9221C3.41909 20.8622 3.31255 20.7788 3.22559 20.677C3.13863 20.5751 3.07301 20.4569 3.03263 20.3292C2.99225 20.2015 2.97792 20.067 2.99051 19.9336C3.0031 19.8003 3.04234 19.6709 3.1059 19.553C3.3639 19.036 5.3969 14.97 8.3909 11.021C9.8869 9.047 11.6509 7.065 13.5829 5.569Z" fill="currentColor"/>
</svg>
