<svg width="24" height="24" viewBox="0 0 24 24" fill="none" xmlns="http://www.w3.org/2000/svg">
<path fill-rule="evenodd" clip-rule="evenodd" d="M14.482 5.86C15.848 4.22 17.605 3 20 3C20.2652 3 20.5196 3.10536 20.7071 3.29289C20.8946 3.48043 21 3.73478 21 4C21 4.26522 20.8946 4.51957 20.7071 4.70711C20.5196 4.89464 20.2652 5 20 5C18.395 5 17.152 5.78 16.018 7.14C14.858 8.533 13.908 10.419 12.894 12.447L12.863 12.511C11.886 14.464 10.843 16.551 9.518 18.141C8.152 19.78 6.395 21 4 21C3.73478 21 3.48043 20.8946 3.29289 20.7071C3.10536 20.5196 3 20.2652 3 20C3 19.7348 3.10536 19.4804 3.29289 19.2929C3.48043 19.1054 3.73478 19 4 19C5.605 19 6.848 18.22 7.982 16.86C9.142 15.467 10.092 13.581 11.106 11.553L11.137 11.489C12.114 9.536 13.157 7.45 14.482 5.86Z" fill="currentColor"/>
</svg>
