<svg width="24" height="24" viewBox="0 0 24 24" fill="none" xmlns="http://www.w3.org/2000/svg">
<path fill-rule="evenodd" clip-rule="evenodd" d="M13.8961 3.02999C14.25 2.67604 14.7238 2.46766 15.2238 2.446C15.7239 2.42434 16.2139 2.59097 16.5971 2.91299L16.7241 3.02999L20.9671 7.27299C21.3208 7.62685 21.529 8.10041 21.5506 8.60024C21.5723 9.10006 21.4058 9.58986 21.0841 9.97299L20.9671 10.101L10.6531 20.415C10.3211 20.747 9.88282 20.9516 9.41509 20.993L9.23909 21H4.00609C3.75727 21 3.5172 20.9081 3.33192 20.7421C3.14664 20.576 3.02919 20.3473 3.00209 20.1L2.99609 19.99V14.757C2.99621 14.2874 3.16153 13.8329 3.46309 13.473L3.58309 13.343L13.8961 3.02999ZM12.1701 7.58399L4.99609 14.758V19H9.24009L16.4141 11.826L12.1711 7.58299L12.1701 7.58399ZM15.3101 4.44399L13.5841 6.16999L17.8271 10.413L19.5531 8.68699L15.3101 4.44399Z" fill="currentColor"/>
</svg>
