<svg width="24" height="24" viewBox="0 0 24 24" fill="none" xmlns="http://www.w3.org/2000/svg">
<path fill-rule="evenodd" clip-rule="evenodd" d="M15.844 6.463C15.7538 6.32093 15.6291 6.20394 15.4815 6.12289C15.334 6.04184 15.1684 5.99934 15 5.99934C14.8317 5.99934 14.6661 6.04184 14.5186 6.12289C14.371 6.20394 14.2463 6.32093 14.156 6.463L11.52 10.615L9.79004 8.387C9.69657 8.26656 9.57679 8.16908 9.43987 8.10202C9.30294 8.03497 9.1525 8.00011 9.00004 8.00011C8.84758 8.00011 8.69714 8.03497 8.56021 8.10202C8.42329 8.16908 8.30351 8.26656 8.21004 8.387L1.21004 17.387C1.09535 17.5348 1.02443 17.7118 1.00534 17.898C0.986252 18.0841 1.01976 18.2718 1.10205 18.4398C1.18434 18.6079 1.31212 18.7494 1.47087 18.8485C1.62961 18.9475 1.81295 19 2.00004 19H22C22.1793 19.0001 22.3553 18.952 22.5095 18.8607C22.6638 18.7695 22.7907 18.6384 22.877 18.4813C22.9633 18.3242 23.0057 18.1468 22.9999 17.9677C22.9941 17.7885 22.9403 17.6142 22.844 17.463L15.844 6.463ZM16.489 17H20.179L16.249 10.826L15.561 15.641C15.5549 15.6849 15.5459 15.7283 15.534 15.771L16.489 17ZM14.367 9.863L12.825 12.29L13.835 13.587L14.367 9.863ZM10.871 13.035C10.85 13.0126 10.8299 12.9893 10.811 12.965L9.83704 11.71L8.32604 17H13.956L10.871 13.035ZM6.24604 17L7.52404 12.527L4.04404 17H6.24604Z" fill="currentColor"/>
</svg>
