<svg width="24" height="24" viewBox="0 0 24 24" fill="none" xmlns="http://www.w3.org/2000/svg">
<path fill-rule="evenodd" clip-rule="evenodd" d="M10.6998 3.14699C10.8252 2.92961 11.0031 2.74714 11.2172 2.61631C11.4313 2.48547 11.6749 2.41045 11.9255 2.39812C12.1761 2.38578 12.4259 2.43652 12.6518 2.54569C12.8778 2.65486 13.0727 2.81897 13.2188 3.02299L13.2988 3.14699L21.9328 18.102C22.0588 18.3204 22.1278 18.567 22.1333 18.8191C22.1388 19.0712 22.0806 19.3206 21.9642 19.5443C21.8478 19.768 21.6768 19.9587 21.4672 20.0988C21.2576 20.2389 21.016 20.3239 20.7648 20.346L20.6338 20.352H3.36581C3.11354 20.3521 2.86532 20.2886 2.64411 20.1673C2.4229 20.046 2.23586 19.8709 2.10028 19.6582C1.9647 19.4454 1.88496 19.2019 1.86845 18.9502C1.85194 18.6985 1.89918 18.4466 2.00581 18.218L2.06681 18.102L10.7008 3.14699H10.6998ZM11.9998 4.89699L4.23181 18.352H19.7678L11.9998 4.89699ZM11.9998 8.99999C12.1553 8.99995 12.3087 9.03618 12.4477 9.10579C12.5868 9.1754 12.7077 9.27648 12.8008 9.40099L12.8658 9.49999L16.3298 15.5C16.4126 15.6433 16.4584 15.805 16.4633 15.9704C16.4682 16.1359 16.432 16.2999 16.3578 16.4479C16.2837 16.5959 16.174 16.7232 16.0385 16.8183C15.9031 16.9134 15.7462 16.9735 15.5818 16.993L15.4638 17H8.53581C8.3716 17 8.20992 16.9596 8.06505 16.8823C7.92017 16.805 7.79656 16.6932 7.70513 16.5568C7.61371 16.4204 7.55728 16.2636 7.54082 16.1002C7.52437 15.9368 7.54841 15.7719 7.61081 15.62L7.66981 15.5L11.1338 9.49999C11.2216 9.34798 11.3478 9.22174 11.4998 9.13397C11.6518 9.04621 11.8243 9 11.9998 8.99999ZM11.9998 12L10.2678 15H13.7318L11.9998 12Z" fill="currentColor"/>
</svg>
