<svg width="24" height="24" viewBox="0 0 24 24" fill="none" xmlns="http://www.w3.org/2000/svg">
<path d="M12 2C17.523 2 22 6.477 22 12C22 17.523 17.523 22 12 22C6.477 22 2 17.523 2 12C2 6.477 6.477 2 12 2ZM12 4C9.87827 4 7.84344 4.84285 6.34315 6.34315C4.84285 7.84344 4 9.87827 4 12C4 14.1217 4.84285 16.1566 6.34315 17.6569C7.84344 19.1571 9.87827 20 12 20C14.1217 20 16.1566 19.1571 17.6569 17.6569C19.1571 16.1566 20 14.1217 20 12C20 9.87827 19.1571 7.84344 17.6569 6.34315C16.1566 4.84285 14.1217 4 12 4ZM15.167 12C16.179 12 17 12.82 17 13.833V14C17 15.3261 16.4732 16.5979 15.5355 17.5355C14.5979 18.4732 13.3261 19 12 19C10.6739 19 9.40215 18.4732 8.46447 17.5355C7.52678 16.5979 7 15.3261 7 14V13.833C7 12.821 7.82 12 8.833 12H15.167ZM15 14H9C9 14.7956 9.31607 15.5587 9.87868 16.1213C10.4413 16.6839 11.2044 17 12 17C12.7956 17 13.5587 16.6839 14.1213 16.1213C14.6839 15.5587 15 14.7956 15 14ZM9 7C9.24493 7.00003 9.48134 7.08996 9.66437 7.25272C9.84741 7.41547 9.96434 7.63975 9.993 7.883L10 8V10C9.99972 10.2549 9.90212 10.5 9.72715 10.6854C9.55218 10.8707 9.31305 10.9822 9.05861 10.9972C8.80416 11.0121 8.55362 10.9293 8.35817 10.7657C8.16271 10.6021 8.0371 10.3701 8.007 10.117L8 10V8C8 7.73478 8.10536 7.48043 8.29289 7.29289C8.48043 7.10536 8.73478 7 9 7ZM14.293 7.293C14.473 7.11365 14.7144 7.00953 14.9684 7.00177C15.2223 6.99402 15.4697 7.08322 15.6603 7.25125C15.8508 7.41928 15.9703 7.65355 15.9944 7.90647C16.0185 8.1594 15.9454 8.41201 15.79 8.613L15.707 8.707L15.414 9L15.707 9.293C15.8863 9.47296 15.9905 9.71443 15.9982 9.96838C16.006 10.2223 15.9168 10.4697 15.7488 10.6603C15.5807 10.8508 15.3464 10.9703 15.0935 10.9944C14.8406 11.0185 14.588 10.9454 14.387 10.79L14.293 10.707L13.293 9.707C13.1208 9.53481 13.0174 9.30571 13.0021 9.06268C12.9868 8.81965 13.0607 8.5794 13.21 8.387L13.293 8.293L14.293 7.293Z" fill="currentColor"/>
</svg>
