<svg width="24" height="24" viewBox="0 0 24 24" fill="none" xmlns="http://www.w3.org/2000/svg">
<path d="M11.4999 3C11.7547 3.00028 11.9999 3.09788 12.1852 3.27285C12.3706 3.44782 12.4821 3.68695 12.497 3.94139C12.512 4.19584 12.4292 4.44638 12.2656 4.64183C12.102 4.83729 11.87 4.9629 11.6169 4.993L11.4999 5H5.99987V19H15.9999V12.5C16.0002 12.2451 16.0977 12 16.2727 11.8146C16.4477 11.6293 16.6868 11.5178 16.9413 11.5028C17.1957 11.4879 17.4462 11.5707 17.6417 11.7343C17.8372 11.8979 17.9628 12.1299 17.9929 12.383L17.9999 12.5V19H19.9999C20.2547 19.0003 20.4999 19.0979 20.6852 19.2728C20.8706 19.4478 20.9821 19.687 20.997 19.9414C21.012 20.1958 20.9292 20.4464 20.7656 20.6418C20.602 20.8373 20.37 20.9629 20.1169 20.993L19.9999 21H3.99987C3.74499 20.9997 3.49984 20.9021 3.3145 20.7272C3.12916 20.5522 3.01763 20.313 3.0027 20.0586C2.98776 19.8042 3.07054 19.5536 3.23413 19.3582C3.39772 19.1627 3.62977 19.0371 3.88287 19.007L3.99987 19V5C3.99971 4.49542 4.19028 4.00943 4.53337 3.63945C4.87646 3.26947 5.34671 3.04284 5.84987 3.005L5.99987 3H11.4999ZM13.4999 11C13.6969 11 13.8919 11.0388 14.0739 11.1142C14.2559 11.1896 14.4212 11.3001 14.5605 11.4393C14.6998 11.5786 14.8103 11.744 14.8857 11.926C14.9611 12.108 14.9999 12.303 14.9999 12.5C14.9999 12.697 14.9611 12.892 14.8857 13.074C14.8103 13.256 14.6998 13.4214 14.5605 13.5607C14.4212 13.6999 14.2559 13.8104 14.0739 13.8858C13.8919 13.9612 13.6969 14 13.4999 14C13.102 14 12.7205 13.842 12.4392 13.5607C12.1579 13.2794 11.9999 12.8978 11.9999 12.5C11.9999 12.1022 12.1579 11.7206 12.4392 11.4393C12.7205 11.158 13.102 11 13.4999 11ZM15.7929 4.172C15.9728 3.99265 16.2143 3.88853 16.4683 3.88077C16.7222 3.87302 16.9696 3.96222 17.1601 4.13025C17.3507 4.29828 17.4702 4.53255 17.4943 4.78547C17.5184 5.0384 17.4453 5.29101 17.2899 5.492L17.2069 5.586L16.7939 5.998H19.9999C20.2563 5.99597 20.5037 6.09254 20.691 6.26774C20.8782 6.44294 20.991 6.68339 21.0061 6.93939C21.0211 7.1954 20.9372 7.44738 20.7717 7.64328C20.6062 7.83919 20.3718 7.96402 20.1169 7.992L19.9999 7.998H16.7919L17.2079 8.415C17.3869 8.59512 17.4907 8.83661 17.4981 9.09045C17.5056 9.34429 17.4163 9.59147 17.2482 9.78183C17.0801 9.97218 16.8459 10.0915 16.5931 10.1154C16.3402 10.1394 16.0878 10.0663 15.8869 9.911L15.7919 9.828L13.6719 7.705C13.4998 7.53268 13.3966 7.30351 13.3815 7.06049C13.3664 6.81747 13.4405 6.57729 13.5899 6.385L13.6729 6.291L15.7929 4.172Z" fill="currentColor"/>
</svg>
