<svg width="24" height="24" viewBox="0 0 24 24" fill="none" xmlns="http://www.w3.org/2000/svg">
<path d="M12 3C12.2549 3.00028 12.5 3.09788 12.6854 3.27285C12.8707 3.44782 12.9822 3.68695 12.9972 3.94139C13.0121 4.19584 12.9293 4.44638 12.7657 4.64183C12.6021 4.83729 12.3701 4.9629 12.117 4.993L12 5H7C6.75507 5.00003 6.51866 5.08996 6.33563 5.25272C6.15259 5.41547 6.03566 5.63975 6.007 5.883L6 6V18C6.00003 18.2449 6.08996 18.4813 6.25272 18.6644C6.41547 18.8474 6.63975 18.9643 6.883 18.993L7 19H11.5C11.7549 19.0003 12 19.0979 12.1854 19.2728C12.3707 19.4478 12.4822 19.687 12.4972 19.9414C12.5121 20.1958 12.4293 20.4464 12.2657 20.6418C12.1021 20.8373 11.8701 20.9629 11.617 20.993L11.5 21H7C6.23479 21 5.49849 20.7077 4.94174 20.1827C4.38499 19.6578 4.04989 18.9399 4.005 18.176L4 18V6C3.99996 5.23479 4.29233 4.49849 4.81728 3.94174C5.34224 3.38499 6.06011 3.04989 6.824 3.005L7 3H12ZM14.293 8.464C14.473 8.28465 14.7144 8.18053 14.9684 8.17277C15.2223 8.16502 15.4697 8.25422 15.6603 8.42225C15.8508 8.59028 15.9703 8.82455 15.9944 9.07747C16.0185 9.3304 15.9454 9.58301 15.79 9.784L15.707 9.879L14.586 11H20C20.2549 11.0003 20.5 11.0979 20.6854 11.2728C20.8707 11.4478 20.9822 11.687 20.9972 11.9414C21.0121 12.1958 20.9293 12.4464 20.7657 12.6418C20.6021 12.8373 20.3701 12.9629 20.117 12.993L20 13H14.586L15.707 14.121C15.8883 14.3005 15.994 14.5426 16.0027 14.7975C16.0113 15.0525 15.9222 15.3012 15.7535 15.4926C15.5849 15.684 15.3494 15.8037 15.0954 15.8272C14.8413 15.8507 14.5879 15.7762 14.387 15.619L14.293 15.536L11.464 12.707C11.2918 12.5348 11.1884 12.3057 11.1731 12.0627C11.1578 11.8197 11.2317 11.5794 11.381 11.387L11.464 11.293L14.293 8.464Z" fill="currentColor"/>
</svg>
