<svg width="24" height="24" viewBox="0 0 24 24" fill="none" xmlns="http://www.w3.org/2000/svg">
<path fill-rule="evenodd" clip-rule="evenodd" d="M15.5348 2.80801L21.1918 8.46401C21.3776 8.64974 21.525 8.87025 21.6255 9.11295C21.7261 9.35566 21.7778 9.6158 21.7778 9.87851C21.7778 10.1412 21.7261 10.4014 21.6255 10.6441C21.525 10.8868 21.3776 11.1073 21.1918 11.293L17.6698 14.816L17.6568 14.828L17.6438 14.841L13.4848 19H19.9998C20.265 19 20.5193 19.1054 20.7069 19.2929C20.8944 19.4804 20.9998 19.7348 20.9998 20C20.9998 20.2652 20.8944 20.5196 20.7069 20.7071C20.5193 20.8947 20.265 21 19.9998 21H8.89278C8.49508 20.9997 8.11381 20.8414 7.83278 20.56L2.80678 15.536C2.62097 15.3503 2.47358 15.1298 2.37302 14.8871C2.27246 14.6444 2.2207 14.3842 2.2207 14.1215C2.2207 13.8588 2.27246 13.5987 2.37302 13.356C2.47358 13.1132 2.62097 12.8927 2.80678 12.707L12.7068 2.80701C13.0818 2.43207 13.5904 2.22144 14.1208 2.22144C14.6511 2.22144 15.1597 2.43207 15.5348 2.80701V2.80801ZM15.5348 14.121L10.6568 19H9.09978L4.22178 14.121L9.87878 8.46401L15.5348 14.121ZM16.9498 12.707L11.2928 7.05001L14.1208 4.22201L19.7778 9.87901L16.9498 12.707Z" fill="currentColor"/>
</svg>
