<svg width="24" height="24" viewBox="0 0 24 24" fill="none" xmlns="http://www.w3.org/2000/svg">
<path fill-rule="evenodd" clip-rule="evenodd" d="M18 3.172C18.2652 3.172 18.5196 3.27735 18.7071 3.46489C18.8946 3.65243 19 3.90678 19 4.172V7.414L19.414 7C19.5062 6.90449 19.6166 6.8283 19.7386 6.7759C19.8606 6.72349 19.9918 6.6959 20.1246 6.69475C20.2574 6.69359 20.3891 6.71889 20.512 6.76918C20.6348 6.81946 20.7465 6.89371 20.8404 6.9876C20.9343 7.0815 21.0085 7.19315 21.0588 7.31604C21.1091 7.43894 21.1344 7.57062 21.1333 7.7034C21.1321 7.83618 21.1045 7.9674 21.0521 8.0894C20.9997 8.21141 20.9235 8.32175 20.828 8.414L18.708 10.536C18.6151 10.629 18.5048 10.7027 18.3834 10.7531C18.262 10.8034 18.1319 10.8293 18.0005 10.8293C17.8691 10.8293 17.739 10.8034 17.6176 10.7531C17.4962 10.7027 17.3859 10.629 17.293 10.536L15.172 8.414C15.0765 8.32175 15.0003 8.21141 14.9479 8.0894C14.8955 7.9674 14.8679 7.83618 14.8667 7.7034C14.8656 7.57062 14.8909 7.43894 14.9412 7.31604C14.9915 7.19315 15.0657 7.0815 15.1596 6.9876C15.2535 6.89371 15.3651 6.81946 15.488 6.76918C15.6109 6.71889 15.7426 6.69359 15.8754 6.69475C16.0082 6.6959 16.1394 6.72349 16.2614 6.7759C16.3834 6.8283 16.4938 6.90449 16.586 7L17 7.414V4.172C17 3.90678 17.1054 3.65243 17.2929 3.46489C17.4804 3.27735 17.7348 3.172 18 3.172ZM2 7C2 6.20435 2.31607 5.44129 2.87868 4.87868C3.44129 4.31607 4.20435 4 5 4H8.039C8.48881 4.0001 8.93285 4.10135 9.33824 4.29626C9.74364 4.49116 10.1 4.77474 10.381 5.126L17.481 14H19C19.7956 14 20.5587 14.3161 21.1213 14.8787C21.6839 15.4413 22 16.2043 22 17C22 17.7956 21.6839 18.5587 21.1213 19.1213C20.5587 19.6839 19.7956 20 19 20H15.961C15.5112 19.9999 15.0672 19.8986 14.6618 19.7037C14.2564 19.5088 13.9 19.2253 13.619 18.874L6.519 10H5C4.20435 10 3.44129 9.68393 2.87868 9.12132C2.31607 8.55871 2 7.79565 2 7ZM20 17C20 16.7348 19.8946 16.4804 19.7071 16.2929C19.5196 16.1054 19.2652 16 19 16H17C16.8502 15.9999 16.7023 15.9662 16.5673 15.9012C16.4323 15.8363 16.3136 15.7419 16.22 15.625L8.82 6.375C8.72627 6.25793 8.60741 6.16344 8.47222 6.09853C8.33703 6.03362 8.18897 5.99994 8.039 6H5C4.73478 6 4.48043 6.10535 4.29289 6.29289C4.10536 6.48043 4 6.73478 4 7C4 7.26521 4.10536 7.51957 4.29289 7.7071C4.48043 7.89464 4.73478 8 5 8H6.76C6.98491 8.00005 7.20692 8.05067 7.40962 8.14813C7.61232 8.24558 7.79051 8.38737 7.931 8.563L15.181 17.625C15.2746 17.7419 15.3933 17.8363 15.5283 17.9012C15.6633 17.9662 15.8112 17.9999 15.961 18H19C19.2652 18 19.5196 17.8946 19.7071 17.7071C19.8946 17.5196 20 17.2652 20 17Z" fill="currentColor"/>
</svg>
