<svg width="24" height="24" viewBox="0 0 24 24" fill="none" xmlns="http://www.w3.org/2000/svg">
<path fill-rule="evenodd" clip-rule="evenodd" d="M2 16.172C2 16.9676 2.31607 17.7307 2.87868 18.2933C3.44129 18.8559 4.20435 19.172 5 19.172H8.039C8.48881 19.1719 8.93285 19.0706 9.33824 18.8757C9.74364 18.6808 10.1 18.3972 10.381 18.046L17.481 9.17198H19C19.7956 9.17198 20.5587 8.85591 21.1213 8.2933C21.6839 7.73069 22 6.96763 22 6.17198C22 5.37633 21.6839 4.61327 21.1213 4.05066C20.5587 3.48805 19.7956 3.17198 19 3.17198H15.961C15.5112 3.17208 15.0672 3.27333 14.6618 3.46824C14.2564 3.66315 13.9 3.94672 13.619 4.29798L6.519 13.172H5C4.20435 13.172 3.44129 13.488 2.87868 14.0507C2.31607 14.6133 2 15.3763 2 16.172ZM20 6.17198C20 6.4372 19.8946 6.69155 19.7071 6.87909C19.5196 7.06662 19.2652 7.17198 19 7.17198H17C16.8502 7.17207 16.7023 7.20582 16.5673 7.27073C16.4323 7.33563 16.3136 7.43004 16.22 7.54698L8.82 16.797C8.72627 16.914 8.60741 17.0085 8.47222 17.0734C8.33703 17.1384 8.18897 17.172 8.039 17.172H5C4.73478 17.172 4.48043 17.0666 4.29289 16.8791C4.10536 16.6915 4 16.4372 4 16.172C4 15.9068 4.10536 15.6524 4.29289 15.4649C4.48043 15.2773 4.73478 15.172 5 15.172H6.76C6.98491 15.1719 7.20692 15.1213 7.40962 15.0238C7.61232 14.9264 7.79051 14.7846 7.931 14.609L15.181 5.54698C15.2746 5.43004 15.3933 5.33563 15.5283 5.27073C15.6633 5.20582 15.8112 5.17207 15.961 5.17198H19C19.2652 5.17198 19.5196 5.27734 19.7071 5.46487C19.8946 5.65241 20 5.90676 20 6.17198ZM6 10.828C6.26522 10.828 6.51957 10.7226 6.70711 10.5351C6.89464 10.3475 7 10.0932 7 9.82798V6.58598L7.414 6.99998C7.6026 7.18214 7.8552 7.28293 8.1174 7.28065C8.3796 7.27837 8.63041 7.17321 8.81582 6.9878C9.00123 6.80239 9.1064 6.55158 9.10867 6.28938C9.11095 6.02718 9.01016 5.77458 8.828 5.58598L6.708 3.46498C6.61513 3.372 6.50484 3.29824 6.38344 3.24792C6.26204 3.19759 6.13192 3.17169 6.0005 3.17169C5.86908 3.17169 5.73896 3.19759 5.61756 3.24792C5.49616 3.29824 5.38587 3.372 5.293 3.46498L3.172 5.58498C2.98436 5.77249 2.87889 6.02685 2.8788 6.29212C2.8787 6.55739 2.98399 6.81184 3.1715 6.99948C3.35901 7.18712 3.61338 7.29259 3.87865 7.29268C4.14392 7.29278 4.39836 7.18749 4.586 6.99998L5 6.58598V9.82798C5 10.0932 5.10536 10.3475 5.29289 10.5351C5.48043 10.7226 5.73478 10.828 6 10.828Z" fill="currentColor"/>
</svg>
