<svg width="24" height="24" viewBox="0 0 24 24" fill="none" xmlns="http://www.w3.org/2000/svg">
<path d="M2.00003 12.08C1.99403 11.218 2.91003 10.724 3.61803 11.105L3.71303 11.163L6.39103 12.967C7.36303 13.622 6.76803 15.11 5.65703 14.974L5.54003 14.954L4.47703 14.72C5.01733 16.2149 5.99057 17.5149 7.27267 18.4545C8.55477 19.394 10.0876 19.9304 11.6758 19.9953C13.264 20.0602 14.8355 19.6507 16.19 18.8189C17.5445 17.9871 18.6206 16.7708 19.281 15.325C19.3946 15.0896 19.5957 14.908 19.8415 14.8191C20.0872 14.7302 20.358 14.741 20.5958 14.8492C20.8337 14.9574 21.0198 15.1545 21.1142 15.3981C21.2086 15.6418 21.2039 15.9128 21.101 16.153C19.114 20.523 14.205 22.946 9.41403 21.662C7.30026 21.0957 5.43051 19.8518 4.09137 18.1211C2.75223 16.3904 2.01758 14.2683 2.00003 12.08ZM15.423 7.42401C15.5287 7.50205 15.618 7.60016 15.6857 7.71271C15.7535 7.82527 15.7984 7.95008 15.8179 8.08C15.8374 8.20992 15.8311 8.34241 15.7994 8.4699C15.7677 8.59739 15.7111 8.71738 15.633 8.82301L14.024 11H15C15.2652 11 15.5196 11.1054 15.7071 11.2929C15.8947 11.4804 16 11.7348 16 12C16 12.2652 15.8947 12.5196 15.7071 12.7071C15.5196 12.8947 15.2652 13 15 13H13V14H15C15.2652 14 15.5196 14.1054 15.7071 14.2929C15.8947 14.4804 16 14.7348 16 15C16 15.2652 15.8947 15.5196 15.7071 15.7071C15.5196 15.8947 15.2652 16 15 16H13V17C13 17.2652 12.8947 17.5196 12.7071 17.7071C12.5196 17.8947 12.2652 18 12 18C11.7348 18 11.4805 17.8947 11.2929 17.7071C11.1054 17.5196 11 17.2652 11 17V16H9.00003C8.73481 16 8.48046 15.8947 8.29292 15.7071C8.10539 15.5196 8.00003 15.2652 8.00003 15C8.00003 14.7348 8.10539 14.4804 8.29292 14.2929C8.48046 14.1054 8.73481 14 9.00003 14H11V13H9.00003C8.73481 13 8.48046 12.8947 8.29292 12.7071C8.10539 12.5196 8.00003 12.2652 8.00003 12C8.00003 11.7348 8.10539 11.4804 8.29292 11.2929C8.48046 11.1054 8.73481 11 9.00003 11H9.97603L8.36703 8.82301C8.28896 8.71736 8.23246 8.59737 8.20076 8.46989C8.16906 8.3424 8.16279 8.20993 8.18229 8.08002C8.20179 7.95011 8.24668 7.82531 8.31441 7.71275C8.38214 7.6002 8.47138 7.50208 8.57703 7.42401C8.68268 7.34594 8.80267 7.28944 8.93015 7.25774C9.05763 7.22605 9.19011 7.21977 9.32002 7.23927C9.44993 7.25877 9.57473 7.30366 9.68728 7.37139C9.79984 7.43912 9.89796 7.52836 9.97603 7.63401L12 10.374L14.024 7.63401C14.1021 7.52833 14.2002 7.43906 14.3127 7.3713C14.4253 7.30355 14.5501 7.25864 14.68 7.23913C14.8099 7.21963 14.9424 7.22592 15.0699 7.25764C15.1974 7.28937 15.3174 7.3459 15.423 7.42401ZM2.90303 7.85201C4.89003 3.48201 9.79903 1.06001 14.59 2.34301C16.7037 2.90913 18.5734 4.15279 19.9126 5.88335C21.2517 7.61392 21.9864 9.73589 22.004 11.924C22.011 12.787 21.094 13.282 20.387 12.9L20.291 12.842L17.613 11.038C16.641 10.383 17.236 8.89501 18.347 9.03101L18.464 9.05101L19.527 9.28501C18.9867 7.79016 18.0135 6.49009 16.7314 5.55056C15.4493 4.61103 13.9164 4.07461 12.3283 4.00971C10.7401 3.9448 9.16856 4.35435 7.81408 5.18613C6.45959 6.01791 5.3835 7.23423 4.72303 8.68001C4.6706 8.80247 4.59424 8.91322 4.49841 9.00576C4.40259 9.0983 4.28925 9.17076 4.16504 9.21889C4.04082 9.26702 3.90825 9.28985 3.77509 9.28603C3.64193 9.28222 3.51088 9.25184 3.38963 9.19667C3.26838 9.14151 3.15937 9.06268 3.069 8.9648C2.97864 8.86693 2.90874 8.75199 2.86341 8.62672C2.81808 8.50146 2.79823 8.36841 2.80504 8.23537C2.81184 8.10233 2.84516 7.97199 2.90303 7.85201Z" fill="currentColor"/>
</svg>
