<svg width="24" height="24" viewBox="0 0 24 24" fill="none" xmlns="http://www.w3.org/2000/svg">
<path d="M2.00003 12.08C1.99403 11.218 2.91003 10.724 3.61803 11.105L3.71303 11.163L6.39103 12.967C7.36303 13.622 6.76803 15.11 5.65703 14.974L5.54003 14.954L4.47703 14.72C5.01733 16.2149 5.99057 17.5149 7.27267 18.4545C8.55477 19.394 10.0876 19.9304 11.6758 19.9953C13.264 20.0602 14.8355 19.6507 16.19 18.8189C17.5445 17.9871 18.6206 16.7708 19.281 15.325C19.3946 15.0896 19.5957 14.908 19.8415 14.8191C20.0872 14.7302 20.358 14.741 20.5958 14.8492C20.8337 14.9574 21.0198 15.1545 21.1142 15.3981C21.2086 15.6418 21.2039 15.9128 21.101 16.153C19.114 20.523 14.205 22.946 9.41403 21.662C7.30026 21.0957 5.43051 19.8518 4.09137 18.1211C2.75223 16.3904 2.01758 14.2683 2.00003 12.08ZM12 6.00001C12.2652 6.00001 12.5196 6.10537 12.7071 6.2929C12.8947 6.48044 13 6.73479 13 7.00001V8.00001H14C14.4643 8.00001 14.9194 8.1293 15.3144 8.37338C15.7093 8.61747 16.0285 8.96671 16.2361 9.38198C16.4437 9.79724 16.5316 10.2621 16.4899 10.7245C16.4482 11.1869 16.2786 11.6286 16 12C16.2786 12.3714 16.4482 12.8131 16.4899 13.2755C16.5316 13.7379 16.4437 14.2028 16.2361 14.618C16.0285 15.0333 15.7093 15.3826 15.3144 15.6266C14.9194 15.8707 14.4643 16 14 16H13V17C13 17.2652 12.8947 17.5196 12.7071 17.7071C12.5196 17.8947 12.2652 18 12 18C11.7348 18 11.4805 17.8947 11.2929 17.7071C11.1054 17.5196 11 17.2652 11 17V16H9.10003C8.80829 16 8.5285 15.8841 8.32221 15.6778C8.11592 15.4715 8.00003 15.1917 8.00003 14.9V9.10001C8.00003 8.80827 8.11592 8.52848 8.32221 8.32219C8.5285 8.1159 8.80829 8.00001 9.10003 8.00001H11V7.00001C11 6.73479 11.1054 6.48044 11.2929 6.2929C11.4805 6.10537 11.7348 6.00001 12 6.00001ZM14 13H10V14H14C14.1326 14 14.2598 13.9473 14.3536 13.8536C14.4474 13.7598 14.5 13.6326 14.5 13.5C14.5 13.3674 14.4474 13.2402 14.3536 13.1465C14.2598 13.0527 14.1326 13 14 13ZM2.90303 7.85201C4.89003 3.48201 9.79903 1.06001 14.59 2.34301C16.7037 2.90913 18.5734 4.15279 19.9126 5.88335C21.2517 7.61392 21.9864 9.73589 22.004 11.924C22.011 12.787 21.094 13.282 20.387 12.9L20.291 12.842L17.613 11.038C16.641 10.383 17.236 8.89501 18.347 9.03101L18.464 9.05101L19.527 9.28501C18.9867 7.79016 18.0135 6.49009 16.7314 5.55056C15.4493 4.61103 13.9164 4.07461 12.3283 4.00971C10.7401 3.9448 9.16856 4.35435 7.81408 5.18613C6.45959 6.01791 5.3835 7.23423 4.72303 8.68001C4.6706 8.80247 4.59424 8.91322 4.49841 9.00576C4.40259 9.0983 4.28925 9.17076 4.16504 9.21889C4.04082 9.26702 3.90825 9.28985 3.77509 9.28603C3.64193 9.28222 3.51088 9.25184 3.38963 9.19667C3.26838 9.14151 3.15937 9.06268 3.069 8.9648C2.97864 8.86693 2.90874 8.75199 2.86341 8.62672C2.81808 8.50146 2.79823 8.36841 2.80504 8.23537C2.81184 8.10233 2.84516 7.97199 2.90303 7.85201ZM14 10H10V11H14C14.1326 11 14.2598 10.9473 14.3536 10.8536C14.4474 10.7598 14.5 10.6326 14.5 10.5C14.5 10.3674 14.4474 10.2402 14.3536 10.1465C14.2598 10.0527 14.1326 10 14 10Z" fill="currentColor"/>
</svg>
