<svg width="24" height="24" viewBox="0 0 24 24" fill="none" xmlns="http://www.w3.org/2000/svg">
<path d="M3.71304 11.163L6.39104 12.967C7.39704 13.645 6.72504 15.214 5.54104 14.954L4.47704 14.72C5.01733 16.2149 5.99058 17.5149 7.27268 18.4545C8.55478 19.394 10.0876 19.9304 11.6758 19.9953C13.264 20.0602 14.8355 19.6507 16.19 18.8189C17.5445 17.9871 18.6206 16.7708 19.281 15.325C19.3946 15.0896 19.5957 14.908 19.8415 14.8191C20.0872 14.7302 20.358 14.741 20.5958 14.8492C20.8337 14.9574 21.0198 15.1545 21.1142 15.3981C21.2086 15.6418 21.2039 15.9128 21.101 16.153C19.114 20.523 14.205 22.946 9.41404 21.662C7.30026 21.0957 5.43052 19.8518 4.09138 18.1211C2.75224 16.3904 2.01759 14.2683 2.00004 12.08C1.99304 11.177 2.99604 10.678 3.71304 11.162M12 6.00001C12.245 6.00004 12.4814 6.08997 12.6644 6.25273C12.8474 6.41548 12.9644 6.63976 12.993 6.88301L13 7.00001V8.00001H15C15.2549 8.00029 15.5001 8.09789 15.6854 8.27286C15.8707 8.44783 15.9823 8.68696 15.9972 8.9414C16.0121 9.19585 15.9294 9.44639 15.7658 9.64184C15.6022 9.8373 15.3701 9.96291 15.117 9.99301L15 10H10C9.87509 9.99978 9.75459 10.0463 9.66225 10.1305C9.56992 10.2147 9.51245 10.3304 9.50116 10.4548C9.48987 10.5793 9.52558 10.7034 9.60126 10.8028C9.67693 10.9023 9.78709 10.9697 9.91004 10.992L10 11H14C14.6499 10.9984 15.2749 11.25 15.7425 11.7014C16.21 12.1527 16.4834 12.7684 16.5048 13.418C16.5261 14.0675 16.2936 14.6998 15.8567 15.1809C15.4197 15.662 14.8126 15.954 14.164 15.995L14 16H13V17C12.9998 17.2549 12.9022 17.5 12.7272 17.6854C12.5522 17.8707 12.3131 17.9822 12.0586 17.9972C11.8042 18.0121 11.5537 17.9293 11.3582 17.7657C11.1628 17.6022 11.0371 17.3701 11.007 17.117L11 17V16H9.00004C8.74516 15.9997 8.5 15.9021 8.31467 15.7272C8.12933 15.5522 8.0178 15.3131 8.00286 15.0586C7.98793 14.8042 8.07071 14.5536 8.2343 14.3582C8.39789 14.1627 8.62994 14.0371 8.88304 14.007L9.00004 14H14C14.125 14.0002 14.2455 13.9537 14.3378 13.8695C14.4302 13.7853 14.4876 13.6696 14.4989 13.5452C14.5102 13.4208 14.4745 13.2966 14.3988 13.1972C14.3231 13.0978 14.213 13.0303 14.09 13.008L14 13H10C9.35015 13.0016 8.72519 12.75 8.25762 12.2987C7.79005 11.8473 7.51663 11.2316 7.4953 10.5821C7.47397 9.93252 7.70642 9.3002 8.14338 8.81914C8.58033 8.33807 9.18745 8.04606 9.83604 8.00501L10 8.00001H11V7.00001C11 6.73479 11.1054 6.48044 11.2929 6.2929C11.4805 6.10537 11.7348 6.00001 12 6.00001ZM14.59 2.34301C16.7037 2.90913 18.5734 4.15279 19.9126 5.88335C21.2517 7.61392 21.9864 9.73589 22.004 11.924C22.011 12.827 21.009 13.326 20.292 12.842L17.614 11.038C16.607 10.36 17.279 8.79101 18.464 9.05101L19.527 9.28501C18.9867 7.79016 18.0135 6.49009 16.7314 5.55056C15.4493 4.61103 13.9164 4.07461 12.3283 4.00971C10.7401 3.9448 9.16857 4.35435 7.81408 5.18613C6.45959 6.01791 5.38351 7.23423 4.72304 8.68001C4.67061 8.80247 4.59424 8.91322 4.49842 9.00576C4.4026 9.0983 4.28926 9.17076 4.16504 9.21889C4.04083 9.26702 3.90825 9.28985 3.7751 9.28603C3.64194 9.28222 3.51089 9.25184 3.38964 9.19667C3.26838 9.14151 3.15937 9.06268 3.06901 8.9648C2.97864 8.86693 2.90874 8.75199 2.86342 8.62672C2.81809 8.50146 2.79824 8.36841 2.80505 8.23537C2.81185 8.10233 2.84516 7.97199 2.90304 7.85201C4.89004 3.48201 9.80004 1.06001 14.59 2.34301Z" fill="currentColor"/>
</svg>
