<svg width="24" height="24" viewBox="0 0 24 24" fill="none" xmlns="http://www.w3.org/2000/svg">
<path d="M3.71304 11.163L6.39104 12.967C7.39704 13.645 6.72504 15.214 5.54104 14.954L4.47704 14.72C5.01733 16.2148 5.99058 17.5149 7.27268 18.4544C8.55478 19.394 10.0876 19.9304 11.6758 19.9953C13.264 20.0602 14.8355 19.6507 16.19 18.8189C17.5445 17.9871 18.6206 16.7708 19.281 15.325C19.3946 15.0896 19.5957 14.908 19.8415 14.8191C20.0872 14.7302 20.358 14.741 20.5958 14.8492C20.8337 14.9574 21.0198 15.1545 21.1142 15.3981C21.2086 15.6418 21.2039 15.9128 21.101 16.153C19.114 20.523 14.205 22.946 9.41404 21.662C7.30026 21.0957 5.43052 19.8518 4.09138 18.1211C2.75224 16.3904 2.01759 14.2682 2.00004 12.08C1.99304 11.177 2.99504 10.678 3.71304 11.162V11.163ZM13 5.99999C13.245 6.00003 13.4814 6.08995 13.6644 6.25271C13.8474 6.41547 13.9644 6.63974 13.993 6.88299L14 6.99999V7.99999H14.5C14.9643 7.99999 15.4194 8.12928 15.8144 8.37337C16.2093 8.61745 16.5285 8.9667 16.7361 9.38196C16.9437 9.79722 17.0316 10.2621 16.9899 10.7245C16.9482 11.1869 16.7786 11.6286 16.5 12C16.7703 12.3603 16.9383 12.7869 16.9862 13.2347C17.034 13.6826 16.96 14.1351 16.7719 14.5443C16.5838 14.9536 16.2887 15.3044 15.9176 15.5598C15.5466 15.8151 15.1135 15.9655 14.664 15.995L14.5 16H14V17C13.9998 17.2549 13.9022 17.5 13.7272 17.6854C13.5522 17.8707 13.3131 17.9822 13.0586 17.9972C12.8042 18.0121 12.5537 17.9293 12.3582 17.7657C12.1628 17.6021 12.0371 17.3701 12.007 17.117L12 17V16H11V17C10.9998 17.2549 10.9022 17.5 10.7272 17.6854C10.5522 17.8707 10.3131 17.9822 10.0586 17.9972C9.8042 18.0121 9.55366 17.9293 9.3582 17.7657C9.16275 17.6021 9.03714 17.3701 9.00704 17.117L9.00004 17V16H8.00004C7.74516 15.9997 7.5 15.9021 7.31467 15.7271C7.12933 15.5522 7.0178 15.313 7.00286 15.0586C6.98793 14.8042 7.07071 14.5536 7.2343 14.3582C7.39789 14.1627 7.62994 14.0371 7.88304 14.007L8.00004 14V9.99999C7.74516 9.99971 7.5 9.90212 7.31467 9.72715C7.12933 9.55218 7.0178 9.31304 7.00286 9.0586C6.98793 8.80416 7.07071 8.55362 7.2343 8.35816C7.39789 8.16271 7.62994 8.0371 7.88304 8.00699L8.00004 7.99999H9.00004V6.99999C9.00032 6.74512 9.09792 6.49996 9.27288 6.31463C9.44785 6.12929 9.68699 6.01776 9.94143 6.00282C10.1959 5.98789 10.4464 6.07067 10.6419 6.23426C10.8373 6.39785 10.9629 6.6299 10.993 6.88299L11 6.99999V7.99999H12V6.99999C12 6.73478 12.1054 6.48042 12.2929 6.29289C12.4805 6.10535 12.7348 5.99999 13 5.99999ZM14.5 13H10V14H14.5C14.625 14.0002 14.7455 13.9537 14.8378 13.8695C14.9302 13.7853 14.9876 13.6696 14.9989 13.5452C15.0102 13.4207 14.9745 13.2966 14.8988 13.1972C14.8231 13.0977 14.713 13.0303 14.59 13.008L14.5 13ZM14.59 2.34299C16.7037 2.90911 18.5734 4.15277 19.9126 5.88334C21.2517 7.6139 21.9864 9.73588 22.004 11.924C22.011 12.827 21.009 13.326 20.291 12.842L17.613 11.038C16.607 10.36 17.279 8.79099 18.463 9.05099L19.527 9.28499C18.9867 7.79014 18.0135 6.49007 16.7314 5.55054C15.4493 4.61101 13.9164 4.07459 12.3283 4.00969C10.7401 3.94479 9.16857 4.35433 7.81408 5.18611C6.45959 6.01789 5.38351 7.23422 4.72304 8.68C4.67061 8.80246 4.59424 8.91321 4.49842 9.00575C4.4026 9.09829 4.28926 9.17075 4.16504 9.21888C4.04083 9.26701 3.90825 9.28983 3.7751 9.28602C3.64194 9.2822 3.51089 9.25182 3.38964 9.19666C3.26838 9.1415 3.15937 9.06266 3.06901 8.96479C2.97864 8.86691 2.90874 8.75197 2.86342 8.62671C2.81809 8.50145 2.79824 8.36839 2.80505 8.23535C2.81185 8.10232 2.84517 7.97198 2.90304 7.85199C4.89004 3.482 9.79904 1.05999 14.59 2.34299ZM14.5 9.99999H10V11H14.5C14.6326 11 14.7598 10.9473 14.8536 10.8535C14.9474 10.7598 15 10.6326 15 10.5C15 10.3674 14.9474 10.2402 14.8536 10.1464C14.7598 10.0527 14.6326 9.99999 14.5 9.99999Z" fill="currentColor"/>
</svg>
