<svg width="24" height="24" viewBox="0 0 24 24" fill="none" xmlns="http://www.w3.org/2000/svg">
<path fill-rule="evenodd" clip-rule="evenodd" d="M3.39904 9.17601C3.15774 9.06616 2.96994 8.86498 2.87692 8.6167C2.78391 8.36842 2.79331 8.09337 2.90304 7.85201C4.89004 3.48201 9.79904 1.06001 14.59 2.34301C16.7037 2.90913 18.5734 4.15279 19.9126 5.88335C21.2517 7.61392 21.9864 9.73589 22.004 11.924C22.011 12.827 21.009 13.326 20.291 12.842L17.613 11.038C16.607 10.36 17.279 8.79101 18.463 9.05101L19.527 9.28501C18.9867 7.79016 18.0135 6.49009 16.7314 5.55056C15.4493 4.61103 13.9164 4.07461 12.3283 4.00971C10.7401 3.9448 9.16857 4.35435 7.81408 5.18613C6.45959 6.01791 5.38351 7.23423 4.72304 8.68001C4.61318 8.92131 4.412 9.10911 4.16372 9.20212C3.91545 9.29513 3.64039 9.28574 3.39904 9.17601ZM20.605 14.829C20.8465 14.9387 21.0345 15.1398 21.1277 15.3881C21.221 15.6364 21.2117 15.9115 21.102 16.153C19.114 20.523 14.205 22.946 9.41404 21.662C7.30026 21.0957 5.43052 19.8518 4.09138 18.1211C2.75224 16.3904 2.01759 14.2683 2.00004 12.08C1.99304 11.177 2.99504 10.678 3.71304 11.162L6.39104 12.966C7.39704 13.644 6.72504 15.213 5.54104 14.953L4.47704 14.719C5.01733 16.2139 5.99058 17.5139 7.27268 18.4535C8.55478 19.393 10.0876 19.9294 11.6758 19.9943C13.264 20.0592 14.8355 19.6497 16.19 18.8179C17.5445 17.9861 18.6206 16.7698 19.281 15.324C19.3909 15.0827 19.5921 14.8949 19.8403 14.8019C20.0886 14.7089 20.3637 14.7183 20.605 14.828M12.53 8.50001C11.54 8.50001 10.438 9.42701 10.102 11H13C13.2653 11 13.5196 11.1054 13.7071 11.2929C13.8947 11.4804 14 11.7348 14 12C14 12.2652 13.8947 12.5196 13.7071 12.7071C13.5196 12.8947 13.2653 13 13 13H10.102C10.437 14.573 11.54 15.5 12.53 15.5C13.13 15.5 13.733 15.196 14.22 14.59C14.3005 14.4829 14.4016 14.3931 14.5175 14.3258C14.6333 14.2586 14.7615 14.2153 14.8944 14.1985C15.0273 14.1817 15.1622 14.1918 15.2911 14.2282C15.42 14.2646 15.5403 14.3265 15.6449 14.4103C15.7494 14.494 15.836 14.5979 15.8996 14.7158C15.9632 14.8337 16.0025 14.9632 16.0151 15.0965C16.0277 15.2299 16.0134 15.3644 15.973 15.4921C15.9327 15.6198 15.867 15.7381 15.78 15.84C14.993 16.823 13.853 17.5 12.53 17.5C10.142 17.5 8.45004 15.408 8.07704 13H8.00004C7.73482 13 7.48047 12.8947 7.29293 12.7071C7.10539 12.5196 7.00004 12.2652 7.00004 12C7.00004 11.7348 7.10539 11.4804 7.29293 11.2929C7.48047 11.1054 7.73482 11 8.00004 11H8.07704C8.44904 8.59201 10.142 6.50001 12.53 6.50001C13.853 6.50001 14.993 7.17701 15.78 8.16001C15.9361 8.36773 16.0052 8.62804 15.9726 8.8858C15.9401 9.14357 15.8086 9.37856 15.6058 9.54102C15.4031 9.70348 15.145 9.78066 14.8864 9.7562C14.6277 9.73175 14.3887 9.60759 14.22 9.41001C13.733 8.80401 13.13 8.50001 12.53 8.50001Z" fill="currentColor"/>
</svg>
