<svg width="24" height="24" viewBox="0 0 24 24" fill="none" xmlns="http://www.w3.org/2000/svg">
<path d="M11.4999 3C11.7547 3.00028 11.9999 3.09788 12.1852 3.27285C12.3706 3.44782 12.4821 3.68695 12.497 3.94139C12.512 4.19584 12.4292 4.44638 12.2656 4.64183C12.102 4.83729 11.87 4.9629 11.6169 4.993L11.4999 5H5.99987V19H15.9999V12.5C16.0002 12.2451 16.0977 12 16.2727 11.8146C16.4477 11.6293 16.6868 11.5178 16.9413 11.5028C17.1957 11.4879 17.4462 11.5707 17.6417 11.7343C17.8372 11.8979 17.9628 12.1299 17.9929 12.383L17.9999 12.5V19H19.9999C20.2547 19.0003 20.4999 19.0979 20.6852 19.2728C20.8706 19.4478 20.9821 19.687 20.997 19.9414C21.012 20.1958 20.9292 20.4464 20.7656 20.6418C20.602 20.8373 20.37 20.9629 20.1169 20.993L19.9999 21H3.99987C3.74499 20.9997 3.49984 20.9021 3.3145 20.7272C3.12916 20.5522 3.01763 20.313 3.0027 20.0586C2.98776 19.8042 3.07054 19.5536 3.23413 19.3582C3.39772 19.1627 3.62977 19.0371 3.88287 19.007L3.99987 19V5C3.99971 4.49542 4.19028 4.00943 4.53337 3.63945C4.87646 3.26947 5.34671 3.04284 5.84987 3.005L5.99987 3H11.4999ZM13.4999 11C13.6969 11 13.8919 11.0388 14.0739 11.1142C14.2559 11.1896 14.4212 11.3001 14.5605 11.4393C14.6998 11.5786 14.8103 11.744 14.8857 11.926C14.9611 12.108 14.9999 12.303 14.9999 12.5C14.9999 12.697 14.9611 12.892 14.8857 13.074C14.8103 13.256 14.6998 13.4214 14.5605 13.5607C14.4212 13.6999 14.2559 13.8104 14.0739 13.8858C13.8919 13.9612 13.6969 14 13.4999 14C13.102 14 12.7205 13.842 12.4392 13.5607C12.1579 13.2794 11.9999 12.8978 11.9999 12.5C11.9999 12.1022 12.1579 11.7206 12.4392 11.4393C12.7205 11.158 13.102 11 13.4999 11ZM18.5869 4.172L20.7069 6.292C20.894 6.47949 20.9992 6.73358 20.9992 6.9985C20.9992 7.26342 20.894 7.51751 20.7069 7.705L18.5869 9.828C18.3984 10.0103 18.1459 10.1113 17.8837 10.1092C17.6215 10.1071 17.3706 10.0021 17.185 9.81682C16.9995 9.63154 16.8941 9.3808 16.8917 9.1186C16.8892 8.85641 16.9898 8.60373 17.1719 8.415L17.5879 7.998H14.3799C14.1147 7.998 13.8603 7.89264 13.6728 7.70511C13.4852 7.51757 13.3799 7.26322 13.3799 6.998C13.3799 6.73278 13.4852 6.47843 13.6728 6.29089C13.8603 6.10336 14.1147 5.998 14.3799 5.998H17.5849L17.1729 5.586C16.9907 5.3974 16.8899 5.1448 16.8922 4.8826C16.8945 4.6204 16.9996 4.36959 17.185 4.18418C17.3705 3.99877 17.6213 3.8936 17.8835 3.89133C18.1457 3.88905 18.3983 3.98984 18.5869 4.172Z" fill="currentColor"/>
</svg>
