<svg width="24" height="24" viewBox="0 0 24 24" fill="none" xmlns="http://www.w3.org/2000/svg">
<path fill-rule="evenodd" clip-rule="evenodd" d="M7.65789 10.448C5.97589 10.829 4.59689 11.428 3.70989 12.155C3.22489 12.553 3.04789 12.951 3.00989 13.272C2.96889 13.602 3.06289 13.946 3.28789 14.251C3.73389 14.852 4.68789 15.271 5.84789 14.793C8.54689 13.68 13.8169 11.533 19.4839 11.96C19.0535 11.6575 18.5946 11.3976 18.1139 11.184C14.9369 9.75 11.0149 9.687 7.65789 10.448ZM18.9379 9.362C20.6399 10.13 22.1079 11.283 22.8999 12.916C22.9824 13.086 23.015 13.2759 22.9939 13.4637C22.9729 13.6515 22.8991 13.8295 22.781 13.9771C22.663 14.1247 22.5055 14.2357 22.3269 14.2975C22.1483 14.3592 21.9559 14.3691 21.7719 14.326C15.8149 12.93 9.78889 15.33 6.61189 16.64C4.61789 17.462 2.68189 16.791 1.68089 15.439C1.16069 14.7498 0.925459 13.8869 1.02389 13.029C1.13289 12.132 1.61289 11.287 2.44189 10.607C3.65789 9.61 5.36689 8.915 7.21589 8.497C10.9969 7.639 15.3639 7.747 18.9369 9.361L18.9379 9.362Z" fill="currentColor"/>
</svg>
