<svg width="24" height="24" viewBox="0 0 24 24" fill="none" xmlns="http://www.w3.org/2000/svg">
<path d="M12.55 4.11699L17.668 5.57899C18.2375 5.74156 18.746 6.06903 19.1297 6.52014C19.5134 6.97126 19.755 7.52583 19.824 8.11399C20.451 8.29328 21.0026 8.67194 21.3952 9.19266C21.7878 9.71339 22.0001 10.3478 22 11V12C21.9998 12.8831 21.7075 13.7413 21.1686 14.4409C20.6298 15.1405 19.8747 15.6423 19.021 15.868C18.823 16.5164 18.4952 17.1178 18.0575 17.6356C17.6198 18.1534 17.0814 18.5768 16.475 18.88L13.342 20.447C12.9253 20.6554 12.4659 20.7639 12 20.7639C11.5341 20.7639 11.0747 20.6554 10.658 20.447L7.525 18.88C6.91858 18.5768 6.38016 18.1534 5.94248 17.6356C5.5048 17.1178 5.17699 16.5164 4.979 15.868C4.12527 15.6423 3.37018 15.1405 2.83135 14.4409C2.29253 13.7413 2.00023 12.8831 2 12V11C2 9.62899 2.92 8.47199 4.176 8.11399C4.24523 7.52601 4.48688 6.97165 4.87054 6.52073C5.25419 6.06981 5.76269 5.7425 6.332 5.57999L11.451 4.11799C11.8098 4.01556 12.1902 4.01556 12.549 4.11799L12.55 4.11699ZM12 6.03999L6.882 7.50199C6.65668 7.56645 6.46116 7.70799 6.32957 7.90191C6.19797 8.09583 6.13867 8.3298 6.162 8.56299L6.776 14.707C6.82631 15.2109 7.00335 15.6939 7.29064 16.1109C7.57792 16.5279 7.9661 16.8654 8.419 17.092L11.553 18.658C11.6918 18.7274 11.8448 18.7635 12 18.7635C12.1552 18.7635 12.3082 18.7274 12.447 18.658L15.581 17.092C16.0339 16.8654 16.4221 16.5279 16.7094 16.1109C16.9966 15.6939 17.1737 15.2109 17.224 14.707L17.839 8.56299C17.8621 8.32997 17.8027 8.09623 17.6711 7.90252C17.5395 7.70881 17.3441 7.56742 17.119 7.50299L12 6.03999ZM15 13C15.2549 13.0003 15.5 13.0979 15.6854 13.2728C15.8707 13.4478 15.9822 13.6869 15.9972 13.9414C16.0121 14.1958 15.9293 14.4464 15.7657 14.6418C15.6021 14.8373 15.3701 14.9629 15.117 14.993L15 15H9C8.74512 14.9997 8.49997 14.9021 8.31463 14.7271C8.1293 14.5522 8.01776 14.313 8.00283 14.0586C7.98789 13.8042 8.07067 13.5536 8.23426 13.3582C8.39785 13.1627 8.6299 13.0371 8.883 13.007L9 13H15ZM19.679 10.265L19.359 13.468C19.753 13.103 20 12.58 20 12V11C20.0002 10.8619 19.9716 10.7252 19.9162 10.5987C19.8608 10.4721 19.7797 10.3585 19.678 10.265H19.679ZM4.322 10.265C4.14775 10.4252 4.0361 10.6421 4.007 10.877L4 11V12C4 12.516 4.195 12.986 4.516 13.34L4.642 13.468L4.322 10.265ZM15 9.99999C15.2652 9.99999 15.5196 10.1054 15.7071 10.2929C15.8946 10.4804 16 10.7348 16 11C16 11.2652 15.8946 11.5196 15.7071 11.7071C15.5196 11.8946 15.2652 12 15 12H9C8.73478 12 8.48043 11.8946 8.29289 11.7071C8.10536 11.5196 8 11.2652 8 11C8 10.7348 8.10536 10.4804 8.29289 10.2929C8.48043 10.1054 8.73478 9.99999 9 9.99999H15Z" fill="currentColor"/>
</svg>
