<svg width="24" height="24" viewBox="0 0 24 24" fill="none" xmlns="http://www.w3.org/2000/svg">
<path fill-rule="evenodd" clip-rule="evenodd" d="M7.77502 5.573C6.80502 6.55 6.17802 7.968 5.92502 9.699C5.90443 9.84061 5.85369 9.97615 5.77622 10.0965C5.69876 10.2168 5.59637 10.3191 5.47598 10.3964C5.35559 10.4738 5.22 10.5244 5.07838 10.5448C4.93675 10.5653 4.79238 10.5551 4.65502 10.515C4.37902 10.435 4.20602 10.687 4.11902 10.921C4.00602 11.225 3.97202 11.666 4.10302 12.156C4.21702 12.581 4.62002 13.466 5.19302 13.413C5.41649 13.3922 5.64048 13.4471 5.82894 13.569C6.0174 13.6909 6.15937 13.8726 6.23202 14.085C7.24802 17.057 9.79902 19 12 19C14.201 19 16.752 17.057 17.768 14.085C17.8406 13.8719 17.983 13.6895 18.1721 13.5674C18.3612 13.4453 18.5859 13.3905 18.81 13.412C19.383 13.467 19.787 12.581 19.901 12.156C20.032 11.666 19.998 11.225 19.885 10.921C19.797 10.686 19.624 10.434 19.347 10.515C19.2096 10.5555 19.0651 10.5659 18.9233 10.5457C18.7815 10.5255 18.6457 10.475 18.5251 10.3977C18.4045 10.3204 18.3019 10.2181 18.2242 10.0978C18.1466 9.9774 18.0957 9.84175 18.075 9.7C17.822 7.969 17.195 6.55 16.225 5.574C15.272 4.614 13.91 4 12 4C10.091 4 8.72802 4.615 7.77502 5.573ZM6.35602 4.163C7.72602 2.785 9.62202 2 12 2C14.379 2 16.273 2.785 17.644 4.164C18.8 5.327 19.524 6.854 19.894 8.537C19.949 8.547 20.004 8.56 20.058 8.575C20.927 8.807 21.487 9.491 21.76 10.225C22.033 10.961 22.059 11.83 21.833 12.674C21.516 13.857 20.668 15.024 19.431 15.339C18.079 18.59 15.086 21 12 21C8.91302 21 5.92002 18.588 4.56902 15.338C3.33402 15.021 2.48802 13.855 2.17102 12.674C1.94502 11.83 1.97102 10.961 2.24402 10.224C2.51702 9.491 3.07702 8.807 3.94602 8.574C3.99902 8.56 4.05202 8.548 4.10602 8.538C4.47602 6.854 5.20002 5.327 6.35602 4.163Z" fill="currentColor"/>
</svg>
