<svg width="24" height="24" viewBox="0 0 24 24" fill="none" xmlns="http://www.w3.org/2000/svg">
<path fill-rule="evenodd" clip-rule="evenodd" d="M9.00001 3C9.24495 3.00003 9.48135 3.08996 9.66438 3.25272C9.84742 3.41547 9.96436 3.63975 9.99301 3.883L10 4L10.002 4.562L10.021 5.747L10.066 7.225L10.134 8.792L10.152 9.142L13.486 7.142C13.6292 7.05622 13.7916 7.00763 13.9583 7.00068C14.1251 6.99373 14.2909 7.02862 14.4407 7.10219C14.5906 7.17576 14.7196 7.28566 14.816 7.42186C14.9125 7.55807 14.9733 7.71626 14.993 7.882L15 8V10.132L19.445 7.168C19.587 7.07317 19.7509 7.01627 19.9211 7.00272C20.0913 6.98918 20.2621 7.01944 20.4173 7.09062C20.5725 7.1618 20.7069 7.27153 20.8077 7.40936C20.9085 7.54719 20.9723 7.70853 20.993 7.878L21 8V20C21 20.2449 20.9101 20.4813 20.7473 20.6644C20.5845 20.8474 20.3603 20.9643 20.117 20.993L20 21H4.00001C3.86026 21 3.72205 20.9707 3.59431 20.914C3.46657 20.8573 3.35214 20.7745 3.25838 20.6708C3.16463 20.5672 3.09365 20.445 3.05001 20.3123C3.00636 20.1795 2.99104 20.0391 3.00501 19.9L3.10101 18.924L3.27401 17.068L3.45701 14.931L3.58001 13.365L3.65801 12.274L3.78401 10.3L3.87501 8.6L3.95101 6.75L3.97701 5.83L4.00001 4.34V4.003C4.00001 3.486 4.38601 3.063 4.88301 3.006L5.00001 3H9.00001ZM13 9.766L10.283 11.396L10.372 12.695L10.477 14.103L10.6 15.623L10.743 17.254L10.906 19H19V9.869L14.555 12.832C14.4044 12.9325 14.2294 12.9902 14.0485 12.999C13.8677 13.0078 13.6879 12.9673 13.5282 12.8819C13.3686 12.7965 13.2352 12.6693 13.1421 12.514C13.0491 12.3587 13 12.181 13 12V9.766ZM8.00701 5H5.99301L5.95801 6.54L5.89601 8.19L5.80901 9.93L5.75101 10.916L5.65701 12.351L5.47701 14.767L5.32701 16.557L5.15101 18.493L5.10301 19H8.89701L8.75701 17.507L8.63301 16.097L8.52301 14.767L8.34301 12.351L8.24901 10.916L8.14301 9.022L8.09301 7.93L8.03601 6.336L8.01401 5.442L8.00701 5ZM13 14C13.2652 14 13.5196 14.1054 13.7071 14.2929C13.8947 14.4804 14 14.7348 14 15V16C14 16.2652 13.8947 16.5196 13.7071 16.7071C13.5196 16.8946 13.2652 17 13 17C12.7348 17 12.4804 16.8946 12.2929 16.7071C12.1054 16.5196 12 16.2652 12 16V15C12 14.7348 12.1054 14.4804 12.2929 14.2929C12.4804 14.1054 12.7348 14 13 14ZM17 14C17.2449 14 17.4813 14.09 17.6644 14.2527C17.8474 14.4155 17.9644 14.6397 17.993 14.883L18 15V16C17.9997 16.2549 17.9021 16.5 17.7272 16.6854C17.5522 16.8707 17.3131 16.9822 17.0586 16.9972C16.8042 17.0121 16.5536 16.9293 16.3582 16.7657C16.1627 16.6021 16.0371 16.3701 16.007 16.117L16 16V15C16 14.7348 16.1054 14.4804 16.2929 14.2929C16.4804 14.1054 16.7348 14 17 14Z" fill="currentColor"/>
</svg>
