<svg width="24" height="24" viewBox="0 0 24 24" fill="none" xmlns="http://www.w3.org/2000/svg">
<path d="M6 4C6.39397 4 6.78407 4.0776 7.14805 4.22836C7.51203 4.37913 7.84274 4.6001 8.12132 4.87868C8.3999 5.15726 8.62087 5.48797 8.77164 5.85195C8.9224 6.21593 9 6.60603 9 7C9 7.39397 8.9224 7.78407 8.77164 8.14805C8.62087 8.51203 8.3999 8.84274 8.12132 9.12132C7.84274 9.3999 7.51203 9.62087 7.14805 9.77164C6.78407 9.9224 6.39397 10 6 10C5.20435 10 4.44129 9.68393 3.87868 9.12132C3.31607 8.55871 3 7.79565 3 7C3 6.20435 3.31607 5.44129 3.87868 4.87868C4.44129 4.31607 5.20435 4 6 4ZM6 6C5.73478 6 5.48043 6.10536 5.29289 6.29289C5.10536 6.48043 5 6.73478 5 7C5 7.26522 5.10536 7.51957 5.29289 7.70711C5.48043 7.89464 5.73478 8 6 8C6.26522 8 6.51957 7.89464 6.70711 7.70711C6.89464 7.51957 7 7.26522 7 7C7 6.73478 6.89464 6.48043 6.70711 6.29289C6.51957 6.10536 6.26522 6 6 6ZM13 4C12.4696 4 11.9609 4.21071 11.5858 4.58579C11.2107 4.96086 11 5.46957 11 6V19C11 19.2652 11.1054 19.5196 11.2929 19.7071C11.4804 19.8946 11.7348 20 12 20C12.2652 20 12.5196 19.8946 12.7071 19.7071C12.8946 19.5196 13 19.2652 13 19V13H19C19.2652 13 19.5196 12.8946 19.7071 12.7071C19.8946 12.5196 20 12.2652 20 12C20 11.7348 19.8946 11.4804 19.7071 11.2929C19.5196 11.1054 19.2652 11 19 11H13V6H20C20.2652 6 20.5196 5.89464 20.7071 5.70711C20.8946 5.51957 21 5.26522 21 5C21 4.73478 20.8946 4.48043 20.7071 4.29289C20.5196 4.10536 20.2652 4 20 4H13Z" fill="currentColor"/>
</svg>
