<svg width="24" height="24" viewBox="0 0 24 24" fill="none" xmlns="http://www.w3.org/2000/svg">
<path d="M17.9834 8.051C18.235 8.13496 18.4429 8.3154 18.5614 8.55262C18.6799 8.78985 18.6993 9.06444 18.6154 9.316L18.0884 10.897C17.6903 12.0917 16.9263 13.1309 15.9047 13.8673C14.8831 14.6037 13.6557 15 12.3964 15H9.85442C9.48292 15 9.11878 15.1035 8.80279 15.2988C8.48681 15.4942 8.23147 15.7737 8.06542 16.106L5.89542 20.447C5.83672 20.5645 5.75544 20.6694 5.65623 20.7555C5.55702 20.8416 5.44182 20.9073 5.3172 20.9489C5.19258 20.9905 5.06099 21.0072 4.92994 20.9979C4.79889 20.9887 4.67095 20.9537 4.55342 20.895C4.43588 20.8363 4.33106 20.755 4.24494 20.6558C4.15882 20.5566 4.09308 20.4414 4.05148 20.3168C4.00988 20.1922 3.99323 20.0606 4.00249 19.9295C4.01174 19.7985 4.04672 19.6705 4.10542 19.553L6.27642 15.211C6.60867 14.5466 7.11939 13.9878 7.75135 13.5973C8.38331 13.2067 9.11154 12.9999 9.85442 13H12.3964C13.236 13.0001 14.0543 12.736 14.7354 12.2451C15.4165 11.7542 15.9259 11.0615 16.1914 10.265L16.7184 8.684C16.7599 8.55936 16.8255 8.44411 16.9115 8.34483C16.9976 8.24556 17.1023 8.16421 17.2198 8.10542C17.3372 8.04664 17.4652 8.01158 17.5962 8.00224C17.7272 7.9929 17.8588 8.00947 17.9834 8.051ZM8.00042 4.757C8.26561 4.75706 8.51992 4.86245 8.70742 5.05L10.8284 7.172C11.0106 7.3606 11.1114 7.6132 11.1091 7.8754C11.1068 8.1376 11.0016 8.38841 10.8162 8.57382C10.6308 8.75923 10.38 8.8644 10.1178 8.86667C9.85562 8.86895 9.60302 8.76816 9.41442 8.586L8.00042 7.172L6.58642 8.586C6.49417 8.68151 6.38383 8.75769 6.26182 8.8101C6.13982 8.86251 6.0086 8.8901 5.87582 8.89125C5.74304 8.8924 5.61136 8.8671 5.48846 8.81682C5.36557 8.76654 5.25391 8.69229 5.16002 8.5984C5.06613 8.5045 4.99188 8.39285 4.9416 8.26995C4.89131 8.14706 4.86601 8.01538 4.86717 7.8826C4.86832 7.74982 4.89591 7.6186 4.94832 7.4966C5.00072 7.37459 5.07691 7.26425 5.17242 7.172L7.29242 5.05C7.38537 4.95702 7.49575 4.88328 7.61724 4.833C7.73873 4.78272 7.86894 4.7569 8.00042 4.757ZM18.5004 3C18.8982 3 19.2798 3.15804 19.5611 3.43934C19.8424 3.72064 20.0004 4.10218 20.0004 4.5C20.0004 4.89782 19.8424 5.27936 19.5611 5.56066C19.2798 5.84196 18.8982 6 18.5004 6C18.1026 6 17.7211 5.84196 17.4398 5.56066C17.1585 5.27936 17.0004 4.89782 17.0004 4.5C17.0004 4.10218 17.1585 3.72064 17.4398 3.43934C17.7211 3.15804 18.1026 3 18.5004 3Z" fill="currentColor"/>
</svg>
