<svg width="24" height="24" viewBox="0 0 24 24" fill="none" xmlns="http://www.w3.org/2000/svg">
<path fill-rule="evenodd" clip-rule="evenodd" d="M11.5072 1.95301C12.7752 1.96101 14.1782 2.46401 15.5072 3.79301C15.8222 4.10801 16.0922 4.47801 16.2072 4.91601C16.3222 5.35055 16.2615 5.8129 16.0382 6.20301C15.8542 6.53401 15.5862 6.78601 15.3602 6.97101C14.8282 7.40701 14.1952 7.71901 13.7072 8.20701C13.4383 8.47039 13.2467 8.80241 13.1532 9.16701C13.8902 8.40801 14.8212 7.67701 15.8422 7.23401C16.6552 6.88101 17.5872 6.68601 18.5432 6.88001C19.5192 7.07701 20.3992 7.65401 21.1272 8.62401C21.5952 9.24901 22.0552 10.274 22.0472 11.507C22.0392 12.775 21.5372 14.178 20.2072 15.507C19.8922 15.822 19.5232 16.092 19.0842 16.207C18.6497 16.322 18.1873 16.2613 17.7972 16.038C17.4662 15.854 17.2142 15.586 17.0292 15.36C16.5942 14.828 16.2812 14.195 15.7932 13.707C15.5299 13.4381 15.1979 13.2465 14.8332 13.153C15.5922 13.89 16.3232 14.821 16.7662 15.842C17.1192 16.655 17.3142 17.587 17.1212 18.543C16.9232 19.519 16.3462 20.399 15.3762 21.127C14.7512 21.595 13.7262 22.055 12.4932 22.047C11.2262 22.039 9.82223 21.537 8.49323 20.207C8.17823 19.892 7.90823 19.523 7.79323 19.084C7.67852 18.6493 7.73959 18.187 7.96323 17.797C8.14623 17.466 8.41423 17.214 8.64023 17.029C9.17223 16.594 9.80523 16.281 10.2932 15.793C10.5625 15.5298 10.7545 15.1977 10.8482 14.833C10.1102 15.592 9.17823 16.323 8.15823 16.766C7.34523 17.119 6.41323 17.314 5.45723 17.121C4.48123 16.923 3.60123 16.346 2.87323 15.376C2.40523 14.751 1.94523 13.726 1.95323 12.493C1.96123 11.226 2.46423 9.82201 3.79323 8.49301C4.10823 8.17801 4.47823 7.90801 4.91623 7.79301C5.3509 7.67831 5.81325 7.73938 6.20323 7.96301C6.53423 8.14601 6.78623 8.41401 6.97123 8.64001C7.40723 9.17201 7.71923 9.80501 8.20723 10.293C8.46123 10.547 8.78623 10.754 9.16723 10.848C8.40823 10.11 7.67723 9.17801 7.23423 8.15801C6.88123 7.34501 6.68623 6.41301 6.88023 5.45701C7.07723 4.48101 7.65423 3.60101 8.62423 2.87301C9.24923 2.40501 10.2742 1.94501 11.5072 1.95301ZM9.90323 12.893C8.63323 12.987 7.52823 12.443 6.79323 11.707C6.40723 11.321 6.09523 10.863 5.85723 10.513C5.72103 10.3048 5.57624 10.1022 5.42323 9.90601C5.32623 9.78801 5.31523 9.79901 5.20723 9.90701C4.22323 10.891 3.95723 11.801 3.95323 12.507C3.94772 13.104 4.12958 13.6878 4.47323 14.176C4.95523 14.817 5.43123 15.075 5.85323 15.16C6.29423 15.25 6.80123 15.175 7.36323 14.931C8.32323 14.515 9.25723 13.682 9.90323 12.893ZM12.8932 14.097C12.9872 15.367 12.4432 16.472 11.7072 17.207C11.3212 17.593 10.8632 17.905 10.5132 18.143C10.3082 18.283 10.0992 18.419 9.90623 18.577C9.78823 18.674 9.79923 18.685 9.90723 18.793C10.8912 19.777 11.8022 20.043 12.5072 20.047C13.1043 20.0525 13.688 19.8707 14.1762 19.527C14.8172 19.045 15.0752 18.569 15.1602 18.147C15.2502 17.706 15.1752 17.199 14.9312 16.637C14.5152 15.677 13.6822 14.744 12.8932 14.097ZM14.0972 11.107C15.3672 11.013 16.4722 11.557 17.2072 12.293C17.7472 12.833 18.0972 13.508 18.5772 14.093C18.6742 14.213 18.6852 14.201 18.7932 14.093C19.7772 13.109 20.0432 12.199 20.0472 11.493C20.0522 10.755 19.7702 10.148 19.5272 9.82401C19.0452 9.18301 18.5692 8.92501 18.1472 8.84001C17.7062 8.75001 17.1992 8.82501 16.6372 9.06901C15.6772 9.48501 14.7442 10.318 14.0972 11.107ZM11.1072 9.90301C11.0132 8.63301 11.5572 7.52801 12.2932 6.79301C12.6902 6.39601 13.1632 6.07801 13.5172 5.83701C13.7153 5.70724 13.9078 5.56911 14.0942 5.42301C14.2122 5.32601 14.2012 5.31501 14.0932 5.20701C13.1092 4.22301 12.1992 3.95701 11.4932 3.95301C10.8962 3.9475 10.3125 4.12937 9.82423 4.47301C9.18323 4.95501 8.92523 5.43101 8.84023 5.85301C8.75023 6.29401 8.82523 6.80101 9.06923 7.36301C9.48523 8.32301 10.3182 9.25701 11.1072 9.90301Z" fill="currentColor"/>
</svg>
