<svg width="24" height="24" viewBox="0 0 24 24" fill="none" xmlns="http://www.w3.org/2000/svg">
<path fill-rule="evenodd" clip-rule="evenodd" d="M19.7879 5.62701C20.5649 5.26801 21.4679 5.83101 21.5709 6.74101C21.6629 7.56001 21.8399 9.45901 21.8399 12.032C21.8399 14.636 21.6599 16.55 21.5679 17.351C21.4679 18.217 20.6249 18.723 19.8539 18.369C19.1619 18.051 17.5599 17.269 15.4689 15.961C14.5581 15.3924 13.6676 14.7921 12.7989 14.161C12.7609 15.2268 12.6838 16.2909 12.5679 17.351C12.4679 18.217 11.6249 18.723 10.8539 18.369C10.1619 18.051 8.55988 17.269 6.46888 15.961C4.37788 14.653 2.95288 13.541 2.35188 13.051C1.68188 12.505 1.66588 11.459 2.30988 10.934C2.90688 10.447 4.35088 9.31801 6.42488 8.02101C8.47488 6.73901 10.0849 5.95101 10.7879 5.62701C11.5649 5.26801 12.4679 5.83101 12.5709 6.74101C12.6339 7.30001 12.7359 8.36101 12.7949 9.79501C13.6506 9.17322 14.5278 8.58152 15.4249 8.02101C17.4749 6.73901 19.0849 5.95101 19.7879 5.62701ZM19.9009 11.961C19.9009 10.271 19.8209 8.88801 19.7439 7.94101C18.6189 8.51215 17.5204 9.13413 16.4519 9.80501C15.3484 10.4929 14.2773 11.2314 13.2419 12.018C14.2641 12.7915 15.3208 13.5183 16.4089 14.196C17.4884 14.8747 18.5986 15.5034 19.7359 16.08C19.8159 15.13 19.9009 13.71 19.9009 11.96V11.961ZM10.8989 12.371C10.8178 12.103 10.8178 11.817 10.8989 11.549C10.8912 10.3449 10.8395 9.14138 10.7439 7.94101C9.61888 8.51216 8.52042 9.13414 7.45188 9.80501C6.34842 10.4929 5.27728 11.2314 4.24188 12.018C5.26406 12.7915 6.32081 13.5183 7.40888 14.196C8.48841 14.8747 9.59858 15.5033 10.7359 16.08C10.8089 15.206 10.8869 13.933 10.8989 12.37V12.371Z" fill="currentColor"/>
</svg>
