<svg width="24" height="24" viewBox="0 0 24 24" fill="none" xmlns="http://www.w3.org/2000/svg">
<path d="M17.9074 4.07099C18.4816 3.93018 19.0871 3.99741 19.6164 4.26074C20.1458 4.52407 20.5646 4.96646 20.7987 5.50935C21.0327 6.05225 21.0668 6.66052 20.8948 7.22616C20.7229 7.7918 20.356 8.2782 19.8594 8.59899L19.9534 9.19199L20.0494 9.52699L20.1304 9.84699L20.2224 10.257L20.2844 10.575L20.3144 10.745L20.3724 11.107L20.3984 11.297L20.4454 11.695L20.4654 11.902L20.4944 12.329C20.5094 12.619 20.5144 12.918 20.5064 13.222C20.4634 14.77 20.0594 16.587 18.6424 17.769C18.2454 18.099 17.9014 18.412 17.5854 18.712L17.1284 19.15C16.7054 19.564 16.2844 19.983 15.8284 20.362C14.8854 21.148 13.8484 21.706 12.1704 21.986C12.0586 22.0055 11.9443 22.0055 11.8324 21.986C10.1524 21.706 9.11644 21.148 8.17244 20.362C7.94544 20.172 7.72644 19.973 7.51144 19.769L6.87344 19.15C6.38778 18.6699 5.88304 18.2096 5.36044 17.77C3.94244 16.588 3.53944 14.771 3.49644 13.223C3.46044 11.963 3.65844 10.731 3.87744 9.82699L3.98744 9.40299L4.05144 9.18499L4.12144 8.97899L4.28344 8.53799L4.42844 8.17599L4.51144 7.98099L4.69844 7.56699C4.96644 7.00199 5.30844 6.38899 5.71944 5.87699C6.41944 5.00099 7.81144 3.44899 9.90944 2.68699C12.0434 1.90999 14.7394 2.00999 17.9074 4.07099ZM6.61744 8.19499C6.43744 8.55099 6.28544 8.90799 6.16744 9.20999L5.99444 9.68299C5.97944 9.72599 5.96544 9.76599 5.95444 9.80199C5.72544 10.568 5.45944 11.871 5.49444 13.166C5.53244 14.497 5.87844 15.597 6.64044 16.232C7.01544 16.544 7.34644 16.842 7.64544 17.121L8.07044 17.526L8.26844 17.717C8.65544 18.095 9.03744 18.48 9.45344 18.826C10.1054 19.369 10.7864 19.76 12.0014 19.986C13.2154 19.76 13.8964 19.369 14.5484 18.826C14.8254 18.595 15.0884 18.346 15.3464 18.096L15.9314 17.526L16.3574 17.121C16.6564 16.841 16.9874 16.544 17.3614 16.232C18.1234 15.597 18.4694 14.497 18.5074 13.166C18.5434 11.868 18.2754 10.562 18.0474 9.79699C18.0045 9.65721 17.9718 9.5145 17.9494 9.36999L17.8854 8.92399C17.4804 8.82121 17.1077 8.61833 16.8014 8.33399C15.2304 8.69499 13.6164 8.99999 12.0004 8.99999C10.1874 8.99999 8.37344 8.62799 6.61744 8.19499ZM16.7034 12.02C17.2394 12.129 17.5934 12.667 17.4834 13.201C17.2934 14.126 16.8814 15.033 16.2074 15.707C15.6844 16.23 14.9874 16.336 14.5014 16.33C14.0074 16.324 13.4954 16.203 13.1334 16.009L12.9784 15.919L12.6584 15.724C12.5031 15.6254 12.332 15.5543 12.1524 15.514L12.0004 15.5C11.7424 15.5 11.5034 15.623 11.2774 15.761L11.0114 15.927C10.969 15.9533 10.926 15.9787 10.8824 16.003C10.5114 16.208 9.99244 16.329 9.49644 16.333C9.00844 16.338 8.31444 16.228 7.79344 15.707C7.11844 15.032 6.70744 14.124 6.52044 13.197C6.47197 12.9477 6.52014 12.6894 6.65516 12.4743C6.79018 12.2593 7.00196 12.1037 7.24751 12.039C7.49307 11.9744 7.75402 12.0056 7.97741 12.1263C8.20081 12.247 8.36992 12.4482 8.45044 12.689L8.48044 12.802C8.60044 13.329 8.82044 13.906 9.20744 14.292C9.44744 14.452 9.80744 14.306 10.0564 14.169L10.4234 13.956C10.7734 13.759 11.2144 13.558 11.7574 13.51L11.9974 13.5C12.6434 13.5 13.1664 13.732 13.5664 13.952L13.8424 14.112C14.0464 14.232 14.4344 14.413 14.7034 14.332L14.7984 14.287L14.9314 14.139C15.1914 13.815 15.3634 13.402 15.4744 12.999L15.5244 12.799C15.5507 12.6703 15.602 12.548 15.6755 12.4391C15.749 12.3303 15.8433 12.237 15.9529 12.1645C16.0624 12.0921 16.1852 12.042 16.3142 12.017C16.4431 11.992 16.5757 11.9927 16.7044 12.019L16.7034 12.02ZM10.0004 9.99999C10.2657 9.99999 10.52 10.1054 10.7076 10.2929C10.8951 10.4804 11.0004 10.7348 11.0004 11C11.0004 11.2652 10.8951 11.5196 10.7076 11.7071C10.52 11.8946 10.2657 12 10.0004 12C9.73523 12 9.48087 11.8946 9.29334 11.7071C9.1058 11.5196 9.00044 11.2652 9.00044 11C9.00044 10.7348 9.1058 10.4804 9.29334 10.2929C9.48087 10.1054 9.73523 9.99999 10.0004 9.99999ZM14.0004 9.99999C14.2657 9.99999 14.52 10.1054 14.7076 10.2929C14.8951 10.4804 15.0004 10.7348 15.0004 11C15.0004 11.2652 14.8951 11.5196 14.7076 11.7071C14.52 11.8946 14.2657 12 14.0004 12C13.7352 12 13.4809 11.8946 13.2933 11.7071C13.1058 11.5196 13.0004 11.2652 13.0004 11C13.0004 10.7348 13.1058 10.4804 13.2933 10.2929C13.4809 10.1054 13.7352 9.99999 14.0004 9.99999ZM10.5924 4.56499C9.43444 4.98599 8.52744 5.74799 7.87744 6.43699C9.22744 6.73699 10.6134 6.99999 12.0004 6.99999C13.2334 6.99999 14.7944 6.72799 16.0004 6.46399C16.0064 6.08399 16.0964 5.72299 16.2544 5.40099C13.8264 3.99599 11.9644 4.06599 10.5924 4.56499ZM18.5004 5.99999C18.3678 5.99999 18.2407 6.05267 18.1469 6.14644C18.0531 6.24021 18.0004 6.36739 18.0004 6.49999C18.0004 6.6326 18.0531 6.75978 18.1469 6.85355C18.2407 6.94732 18.3678 6.99999 18.5004 6.99999C18.6331 6.99999 18.7602 6.94732 18.854 6.85355C18.9478 6.75978 19.0004 6.6326 19.0004 6.49999C19.0004 6.36739 18.9478 6.24021 18.854 6.14644C18.7602 6.05267 18.6331 5.99999 18.5004 5.99999Z" fill="currentColor"/>
</svg>
