<svg width="24" height="24" viewBox="0 0 24 24" fill="none" xmlns="http://www.w3.org/2000/svg">
<path fill-rule="evenodd" clip-rule="evenodd" d="M12 2C12.4485 1.99993 12.8914 2.10042 13.2959 2.2941C13.7005 2.48777 14.0564 2.76969 14.3376 3.11911C14.6189 3.46854 14.8181 3.87657 14.9208 4.31318C15.0235 4.74979 15.027 5.20387 14.931 5.642C15.321 5.822 15.693 6.037 16.041 6.283C16.3725 5.98136 16.7674 5.75784 17.1967 5.62888C17.626 5.49991 18.0787 5.46877 18.5216 5.53775C18.9645 5.60673 19.3863 5.77407 19.756 6.02748C20.1257 6.28088 20.4339 6.61391 20.658 7.00209C20.8821 7.39027 21.0164 7.82373 21.051 8.27062C21.0855 8.71751 21.0195 9.16646 20.8578 9.58449C20.6961 10.0025 20.4427 10.379 20.1164 10.6862C19.79 10.9935 19.399 11.2237 18.972 11.36C19.0106 11.7858 19.0106 12.2142 18.972 12.64C19.3992 12.7761 19.7904 13.0062 20.117 13.3133C20.4435 13.6205 20.6971 13.997 20.859 14.415C21.0209 14.8331 21.087 15.2821 21.0526 15.7291C21.0181 16.1761 20.8839 16.6097 20.6598 16.998C20.4357 17.3863 20.1274 17.7194 19.7576 17.9729C19.3879 18.2264 18.966 18.3938 18.523 18.4628C18.08 18.5317 17.6272 18.5005 17.1978 18.3715C16.7685 18.2424 16.3735 18.0188 16.042 17.717C15.85 17.852 15.653 17.977 15.45 18.093L15.14 18.258L15.949 20.684C16.0287 20.9258 16.0131 21.1889 15.9055 21.4196C15.7979 21.6503 15.6064 21.8313 15.3699 21.9257C15.1335 22.0201 14.8699 22.0207 14.633 21.9275C14.3961 21.8343 14.2037 21.6542 14.095 21.424L14.051 21.316L13.243 18.89C12.5229 19.0191 11.7871 19.0353 11.062 18.938L10.757 18.89L9.949 21.316C9.8688 21.5587 9.69874 21.7614 9.47373 21.8826C9.24872 22.0038 8.98585 22.0343 8.7391 21.9677C8.49234 21.9012 8.28044 21.7427 8.14689 21.5247C8.01334 21.3068 7.96829 21.0461 8.021 20.796L8.051 20.684L8.86 18.258C8.54689 18.1008 8.24605 17.9203 7.96 17.718C7.62846 18.0198 7.2335 18.2434 6.80415 18.3725C6.37481 18.5015 5.922 18.5327 5.47901 18.4638C5.03603 18.3948 4.61414 18.2274 4.24435 17.9739C3.87457 17.7204 3.5663 17.3873 3.34221 16.999C3.11812 16.6107 2.9839 16.1771 2.94943 15.7301C2.91496 15.2831 2.98111 14.8341 3.14302 14.416C3.30493 13.998 3.55848 13.6215 3.88503 13.3143C4.21158 13.0072 4.60282 12.7771 5.03 12.641C4.991 12.2149 4.99066 11.7862 5.029 11.36C4.60199 11.2237 4.21095 10.9935 3.88461 10.6862C3.55827 10.379 3.30492 10.0025 3.14319 9.58449C2.98146 9.16646 2.91546 8.71751 2.95003 8.27062C2.9846 7.82373 3.11887 7.39027 3.34297 7.00209C3.56707 6.61391 3.8753 6.28088 4.24502 6.02748C4.61473 5.77407 5.03653 5.60673 5.47941 5.53775C5.9223 5.46877 6.37501 5.49991 6.80428 5.62888C7.23354 5.75784 7.62846 5.98136 7.96 6.283C8.30927 6.03585 8.6805 5.82128 9.069 5.642C8.97301 5.20387 8.97649 4.74979 9.07918 4.31318C9.18186 3.87657 9.38114 3.46854 9.66235 3.11911C9.94355 2.76969 10.2995 2.48777 10.7041 2.2941C11.1086 2.10042 11.5515 1.99993 12 2ZM12 15.162L11.4 16.965C11.7986 17.0127 12.2014 17.0127 12.6 16.965L12 15.162ZM6.804 15C6.73881 14.8854 6.6516 14.7847 6.54737 14.7039C6.44314 14.6231 6.32396 14.5637 6.19669 14.5292C6.06942 14.4946 5.93656 14.4856 5.80578 14.5026C5.675 14.5196 5.54888 14.5623 5.43467 14.6282C5.32046 14.6942 5.22042 14.7821 5.14031 14.8868C5.0602 14.9916 5.00161 15.1112 4.9679 15.2387C4.93419 15.3662 4.92603 15.4991 4.9439 15.6297C4.96176 15.7604 5.0053 15.8862 5.072 16C5.20555 16.2278 5.42378 16.3935 5.67908 16.461C5.93437 16.5285 6.206 16.4923 6.43469 16.3603C6.66338 16.2282 6.83056 16.0111 6.89974 15.7563C6.96893 15.5014 6.93451 15.2296 6.804 15ZM17.196 15C17.1293 15.1138 17.0858 15.2396 17.0679 15.3703C17.05 15.5009 17.0582 15.6338 17.0919 15.7613C17.1256 15.8888 17.1842 16.0084 17.2643 16.1132C17.3444 16.2179 17.4445 16.3058 17.5587 16.3718C17.6729 16.4377 17.799 16.4804 17.9298 16.4974C18.0606 16.5144 18.1934 16.5054 18.3207 16.4708C18.448 16.4363 18.5671 16.3769 18.6714 16.2961C18.7756 16.2153 18.8628 16.1146 18.928 16C19.0585 15.7704 19.0929 15.4986 19.0237 15.2437C18.9546 14.9889 18.7874 14.7718 18.5587 14.6397C18.33 14.5077 18.0584 14.4715 17.8031 14.539C17.5478 14.6065 17.3295 14.7722 17.196 15ZM13.856 7.356C13.3276 7.77379 12.6736 8.00074 12 8C11.299 8 10.654 7.76 10.143 7.356C9.696 7.536 9.28 7.777 8.907 8.071C9.00434 8.73744 8.8736 9.41722 8.536 10C8.20014 10.5838 7.67683 11.037 7.051 11.286C6.98326 11.7596 6.98326 12.2404 7.051 12.714C7.67701 12.9631 8.20073 13.4161 8.53751 13.9997C8.8743 14.5832 9.00447 15.2633 8.907 15.93C9.095 16.077 9.294 16.212 9.502 16.332L11.052 11.684C11.1185 11.485 11.2458 11.312 11.416 11.1894C11.5862 11.0668 11.7907 11.0008 12.0005 11.0008C12.2103 11.0008 12.4148 11.0668 12.585 11.1894C12.7552 11.312 12.8825 11.485 12.949 11.684L14.499 16.332C14.7064 16.212 14.9049 16.0773 15.093 15.929C14.9953 15.2627 15.1257 14.5829 15.463 14C15.7994 13.4158 16.3234 12.9626 16.95 12.714C17.0177 12.2404 17.0177 11.7596 16.95 11.286C16.3234 11.0374 15.7994 10.5842 15.463 10C15.1254 9.41722 14.9946 8.73744 15.092 8.071C14.7164 7.77468 14.3001 7.53389 13.856 7.356ZM5.073 8C5.0063 8.11377 4.96276 8.23961 4.9449 8.37027C4.92703 8.50094 4.93519 8.63385 4.9689 8.76135C5.00261 8.88884 5.0612 9.00842 5.14131 9.11318C5.22142 9.21794 5.32146 9.30582 5.43567 9.37176C5.54988 9.4377 5.676 9.4804 5.80678 9.4974C5.93756 9.5144 6.07042 9.50536 6.19769 9.47081C6.32496 9.43626 6.44414 9.37687 6.54837 9.29607C6.6526 9.21527 6.73981 9.11465 6.805 9C6.93551 8.77044 6.96993 8.49858 6.90074 8.24374C6.83156 7.98889 6.66438 7.77176 6.43569 7.63973C6.207 7.50769 5.93537 7.47147 5.68008 7.53896C5.42478 7.60646 5.20655 7.77219 5.073 8ZM17.563 7.634C17.4483 7.69918 17.3477 7.7864 17.2669 7.89063C17.1861 7.99485 17.1267 8.11403 17.0922 8.24131C17.0576 8.36858 17.0486 8.50143 17.0656 8.63221C17.0826 8.76299 17.1253 8.88912 17.1912 9.00333C17.2572 9.11754 17.3451 9.21758 17.4498 9.29769C17.5546 9.3778 17.6741 9.43639 17.8016 9.4701C17.9291 9.50381 18.0621 9.51196 18.1927 9.4941C18.3234 9.47623 18.4492 9.4327 18.563 9.366C18.7908 9.23245 18.9565 9.01421 19.024 8.75892C19.0915 8.50362 19.0553 8.23199 18.9233 8.00331C18.7912 7.77462 18.5741 7.60744 18.3193 7.53825C18.0644 7.46906 17.7926 7.50348 17.563 7.634ZM12 4C11.7348 4 11.4804 4.10536 11.2929 4.29289C11.1054 4.48043 11 4.73478 11 5C11 5.26522 11.1054 5.51957 11.2929 5.70711C11.4804 5.89464 11.7348 6 12 6C12.2652 6 12.5196 5.89464 12.7071 5.70711C12.8946 5.51957 13 5.26522 13 5C13 4.73478 12.8946 4.48043 12.7071 4.29289C12.5196 4.10536 12.2652 4 12 4Z" fill="currentColor"/>
</svg>
