<svg width="24" height="24" viewBox="0 0 24 24" fill="none" xmlns="http://www.w3.org/2000/svg">
<path fill-rule="evenodd" clip-rule="evenodd" d="M15.0002 2C15.8128 1.99995 16.606 2.24734 17.2745 2.70924C17.9429 3.17114 18.4548 3.82565 18.7421 4.58567C19.0294 5.34569 19.0784 6.17518 18.8827 6.96375C18.6869 7.75232 18.2556 8.46258 17.6462 9C18.3916 9.65582 18.8664 10.5654 18.9784 11.5518C19.0904 12.5383 18.8315 13.5311 18.2522 14.3373C17.6728 15.1435 16.8143 15.7055 15.8437 15.9139C14.873 16.1223 13.8595 15.9623 13.0002 15.465V18C13.0002 18.6684 12.8327 19.3261 12.513 19.9131C12.1933 20.5 11.7316 20.9975 11.1701 21.3601C10.6086 21.7227 9.96519 21.9388 9.29866 21.9886C8.63214 22.0385 7.96375 21.9205 7.35455 21.6456C6.74535 21.3706 6.21478 20.9473 5.8113 20.4144C5.40781 19.8816 5.14429 19.2561 5.04481 18.5952C4.94532 17.9342 5.01304 17.2589 5.24179 16.6309C5.47053 16.0028 5.853 15.4421 6.35425 15C5.92817 14.625 5.58699 14.1635 5.3535 13.6461C5.12001 13.1288 4.99958 12.5676 5.00025 12C4.99958 11.4324 5.12001 10.8712 5.3535 10.3539C5.58699 9.83654 5.92817 9.37498 6.35425 9C5.74487 8.46258 5.3136 7.75232 5.11784 6.96375C4.92208 6.17518 4.9711 5.34569 5.25839 4.58567C5.54568 3.82565 6.0576 3.17114 6.72604 2.70924C7.39449 2.24734 8.18774 1.99995 9.00025 2H15.0002ZM11.0002 16H9.00025C8.60469 16 8.21801 16.1173 7.88911 16.3371C7.56021 16.5568 7.30387 16.8692 7.15249 17.2346C7.00112 17.6001 6.96151 18.0022 7.03868 18.3902C7.11585 18.7781 7.30633 19.1345 7.58604 19.4142C7.86574 19.6939 8.22211 19.8844 8.61007 19.9616C8.99803 20.0387 9.40016 19.9991 9.76562 19.8478C10.1311 19.6964 10.4434 19.44 10.6632 19.1111C10.883 18.7822 11.0002 18.3956 11.0002 18V16ZM11.0002 10H9.00025C8.46982 10 7.96111 10.2107 7.58604 10.5858C7.21096 10.9609 7.00025 11.4696 7.00025 12C7.00025 12.5304 7.21096 13.0391 7.58604 13.4142C7.96111 13.7893 8.46982 14 9.00025 14H11.0002V10ZM15.0002 10C14.4698 10 13.9611 10.2107 13.586 10.5858C13.211 10.9609 13.0002 11.4696 13.0002 12C13.0002 12.5304 13.211 13.0391 13.586 13.4142C13.9611 13.7893 14.4698 14 15.0002 14C15.5307 14 16.0394 13.7893 16.4145 13.4142C16.7895 13.0391 17.0002 12.5304 17.0002 12C17.0002 11.4696 16.7895 10.9609 16.4145 10.5858C16.0394 10.2107 15.5307 10 15.0002 10ZM15.0002 4H13.0002V8H15.0002C15.5192 8.00232 16.0188 7.80281 16.3934 7.44362C16.768 7.08443 16.9883 6.59368 17.0078 6.07506C17.0273 5.55644 16.8444 5.05055 16.4978 4.66428C16.1511 4.27801 15.6679 4.0416 15.1502 4.005L15.0002 4ZM11.0002 4H9.00025C8.46982 4 7.96111 4.21071 7.58604 4.58579C7.21096 4.96086 7.00025 5.46957 7.00025 6C7.00025 6.53043 7.21096 7.03914 7.58604 7.41421C7.96111 7.78929 8.46982 8 9.00025 8H11.0002V4Z" fill="currentColor"/>
</svg>
