<svg width="24" height="24" viewBox="0 0 24 24" fill="none" xmlns="http://www.w3.org/2000/svg">
<path d="M13.586 2C14.1164 2.00011 14.625 2.2109 15 2.586L19.414 7C19.7891 7.37499 19.9999 7.88361 20 8.414V20C20 20.5304 19.7893 21.0391 19.4142 21.4142C19.0391 21.7893 18.5304 22 18 22H6C5.46957 22 4.96086 21.7893 4.58579 21.4142C4.21071 21.0391 4 20.5304 4 20V4C4 3.46957 4.21071 2.96086 4.58579 2.58579C4.96086 2.21071 5.46957 2 6 2H13.586ZM12 4H6V20H18V10H13.5C13.1022 10 12.7206 9.84196 12.4393 9.56066C12.158 9.27936 12 8.89782 12 8.5V4ZM11.654 11.699C11.6892 11.6384 11.7396 11.5881 11.8004 11.5531C11.8611 11.5181 11.9299 11.4997 12 11.4997C12.0701 11.4997 12.1389 11.5181 12.1996 11.5531C12.2604 11.5881 12.3108 11.6384 12.346 11.699L13.24 13.234L14.977 13.61C15.0454 13.6248 15.1087 13.6574 15.1607 13.7044C15.2126 13.7513 15.2512 13.8111 15.2728 13.8777C15.2944 13.9443 15.2981 14.0154 15.2835 14.0839C15.269 14.1524 15.2367 14.2159 15.19 14.268L14.007 15.593L14.185 17.361C14.192 17.4305 14.1806 17.5007 14.152 17.5645C14.1234 17.6282 14.0786 17.6834 14.022 17.7245C13.9655 17.7655 13.8992 17.7911 13.8297 17.7985C13.7602 17.806 13.69 17.7951 13.626 17.767L12 17.051L10.374 17.767C10.31 17.7954 10.2396 17.8064 10.17 17.7991C10.1004 17.7917 10.0339 17.7662 9.97718 17.7251C9.92049 17.684 9.87558 17.6288 9.84694 17.5649C9.81831 17.501 9.80695 17.4307 9.814 17.361L9.994 15.593L8.81 14.268C8.76325 14.2159 8.731 14.1524 8.71647 14.0839C8.70195 14.0154 8.70565 13.9443 8.72721 13.8777C8.74877 13.8111 8.78744 13.7513 8.83934 13.7044C8.89125 13.6574 8.95458 13.6248 9.023 13.61L10.76 13.234L11.654 11.699ZM14 4.414V8H17.586L14 4.414Z" fill="currentColor"/>
</svg>
