<svg width="24" height="24" viewBox="0 0 24 24" fill="none" xmlns="http://www.w3.org/2000/svg">
<path fill-rule="evenodd" clip-rule="evenodd" d="M13.586 2C14.0556 2.00011 14.5101 2.16543 14.87 2.467L15 2.586L19.414 7C19.746 7.33202 19.9506 7.77028 19.992 8.238L20 8.414V12H18V10H13.5C13.1271 9.99998 12.7676 9.86108 12.4916 9.61038C12.2156 9.35968 12.0428 9.01516 12.007 8.644L12 8.5V4H6V20H12V22H6C5.49542 22.0002 5.00943 21.8096 4.63945 21.4665C4.26947 21.1234 4.04284 20.6532 4.005 20.15L4 20V4C3.99984 3.49542 4.19041 3.00943 4.5335 2.63945C4.87659 2.26947 5.34684 2.04284 5.85 2.005L6 2H13.586ZM17.5 13C18.163 13 18.7989 13.2634 19.2678 13.7322C19.7366 14.2011 20 14.837 20 15.5V16C20.2652 16 20.5196 16.1054 20.7071 16.2929C20.8946 16.4804 21 16.7348 21 17V21C21 21.2652 20.8946 21.5196 20.7071 21.7071C20.5196 21.8946 20.2652 22 20 22H15C14.7348 22 14.4804 21.8946 14.2929 21.7071C14.1054 21.5196 14 21.2652 14 21V17C14 16.7348 14.1054 16.4804 14.2929 16.2929C14.4804 16.1054 14.7348 16 15 16V15.5C15 14.837 15.2634 14.2011 15.7322 13.7322C16.2011 13.2634 16.837 13 17.5 13ZM19 18H16V20H19V18ZM17.5 15C17.3674 15 17.2402 15.0527 17.1464 15.1464C17.0527 15.2402 17 15.3674 17 15.5V16H18V15.5C18 15.3674 17.9473 15.2402 17.8536 15.1464C17.7598 15.0527 17.6326 15 17.5 15ZM14 4.414V8H17.586L14 4.414Z" fill="currentColor"/>
</svg>
