<svg width="24" height="24" viewBox="0 0 24 24" fill="none" xmlns="http://www.w3.org/2000/svg">
<path fill-rule="evenodd" clip-rule="evenodd" d="M13.586 2C14.0556 2.00011 14.5101 2.16543 14.87 2.467L15 2.586L19.414 7C19.746 7.33202 19.9506 7.77028 19.992 8.238L20 8.414V20C20.0002 20.5046 19.8096 20.9906 19.4665 21.3605C19.1234 21.7305 18.6532 21.9572 18.15 21.995L18 22H6C5.49542 22.0002 5.00943 21.8096 4.63945 21.4665C4.26947 21.1234 4.04284 20.6532 4.005 20.15L4 20V4C3.99984 3.49542 4.19041 3.00943 4.5335 2.63945C4.87659 2.26947 5.34684 2.04284 5.85 2.005L6 2H13.586ZM13.586 4H6V20H9V17.5C9.00002 17.1271 9.13892 16.7676 9.38962 16.4916C9.64032 16.2156 9.98484 16.0428 10.356 16.007L10.5 16H13.5C13.8729 16 14.2324 16.1389 14.5084 16.3896C14.7844 16.6403 14.9572 16.9848 14.993 17.356L15 17.5V20H18V8.414L13.586 4ZM13 18H11V20H13V18ZM11 13C11.2652 13 11.5196 13.1054 11.7071 13.2929C11.8946 13.4804 12 13.7348 12 14C12 14.2652 11.8946 14.5196 11.7071 14.7071C11.5196 14.8946 11.2652 15 11 15H10C9.73478 15 9.48043 14.8946 9.29289 14.7071C9.10536 14.5196 9 14.2652 9 14C9 13.7348 9.10536 13.4804 9.29289 13.2929C9.48043 13.1054 9.73478 13 10 13H11ZM14 11C14.2652 11 14.5196 11.1054 14.7071 11.2929C14.8946 11.4804 15 11.7348 15 12C15 12.2652 14.8946 12.5196 14.7071 12.7071C14.5196 12.8946 14.2652 13 14 13H13C12.7348 13 12.4804 12.8946 12.2929 12.7071C12.1054 12.5196 12 12.2652 12 12C12 11.7348 12.1054 11.4804 12.2929 11.2929C12.4804 11.1054 12.7348 11 13 11H14ZM11 9C11.2549 9.00028 11.5 9.09788 11.6854 9.27285C11.8707 9.44782 11.9822 9.68695 11.9972 9.94139C12.0121 10.1958 11.9293 10.4464 11.7657 10.6418C11.6021 10.8373 11.3701 10.9629 11.117 10.993L11 11H10C9.74512 10.9997 9.49997 10.9021 9.31463 10.7272C9.1293 10.5522 9.01776 10.313 9.00283 10.0586C8.98789 9.80416 9.07067 9.55362 9.23426 9.35817C9.39785 9.16271 9.6299 9.0371 9.883 9.007L10 9H11ZM14 7C14.2549 7.00028 14.5 7.09788 14.6854 7.27285C14.8707 7.44782 14.9822 7.68695 14.9972 7.94139C15.0121 8.19584 14.9293 8.44638 14.7657 8.64183C14.6021 8.83729 14.3701 8.9629 14.117 8.993L14 9H13C12.7451 8.99972 12.5 8.90212 12.3146 8.72715C12.1293 8.55218 12.0178 8.31305 12.0028 8.05861C11.9879 7.80416 12.0707 7.55362 12.2343 7.35817C12.3979 7.16271 12.6299 7.0371 12.883 7.007L13 7H14Z" fill="currentColor"/>
</svg>
