<svg width="24" height="24" viewBox="0 0 24 24" fill="none" xmlns="http://www.w3.org/2000/svg">
<path fill-rule="evenodd" clip-rule="evenodd" d="M13.5862 2C14.1166 2.00011 14.6252 2.2109 15.0002 2.586L19.4142 7C19.7893 7.37499 20.0001 7.88361 20.0002 8.414V20C20.0002 20.5304 19.7895 21.0391 19.4144 21.4142C19.0394 21.7893 18.5307 22 18.0002 22H13.0002C12.735 22 12.4807 21.8946 12.2931 21.7071C12.1056 21.5196 12.0002 21.2652 12.0002 21C12.0002 20.7348 12.1056 20.4804 12.2931 20.2929C12.4807 20.1054 12.735 20 13.0002 20H18.0002V10H13.5002C13.1024 10 12.7209 9.84196 12.4396 9.56066C12.1583 9.27936 12.0002 8.89782 12.0002 8.5V4H6.00022V8C6.00022 8.26522 5.89486 8.51957 5.70733 8.70711C5.51979 8.89464 5.26544 9 5.00022 9C4.73501 9 4.48065 8.89464 4.29312 8.70711C4.10558 8.51957 4.00022 8.26522 4.00022 8V4C4.00022 3.46957 4.21094 2.96086 4.58601 2.58579C4.96108 2.21071 5.46979 2 6.00022 2H13.5862ZM7.00022 10C7.77006 9.99996 8.52355 10.2221 9.17028 10.6397C9.81701 11.0573 10.3295 11.6526 10.6462 12.3543C10.9629 13.056 11.0705 13.8341 10.9559 14.5954C10.8413 15.3566 10.5095 16.0687 10.0002 16.646V20.838C10.0002 21.0255 9.95234 21.2099 9.86104 21.3737C9.76973 21.5375 9.63808 21.6753 9.47856 21.7739C9.31905 21.8724 9.13698 21.9286 8.94965 21.9371C8.76232 21.9455 8.57594 21.9059 8.40822 21.822L7.00022 21.118L5.59222 21.822C5.4245 21.9059 5.23813 21.9455 5.05079 21.9371C4.86346 21.9286 4.68139 21.8724 4.52188 21.7739C4.36237 21.6753 4.23071 21.5375 4.13941 21.3737C4.04811 21.2099 4.00019 21.0255 4.00022 20.838V16.646C3.49097 16.0687 3.15915 15.3566 3.04456 14.5954C2.92997 13.8341 3.0375 13.056 3.35423 12.3543C3.67096 11.6526 4.18344 11.0573 4.83016 10.6397C5.47689 10.2221 6.23038 9.99996 7.00022 10ZM8.00022 17.874C7.34426 18.0429 6.65619 18.0429 6.00022 17.874V19.382L6.55322 19.106C6.69202 19.0366 6.84506 19.0005 7.00022 19.0005C7.15539 19.0005 7.30842 19.0366 7.44722 19.106L8.00022 19.382V17.874ZM7.00022 12C6.46979 12 5.96108 12.2107 5.58601 12.5858C5.21094 12.9609 5.00022 13.4696 5.00022 14C5.00022 14.5304 5.21094 15.0391 5.58601 15.4142C5.96108 15.7893 6.46979 16 7.00022 16C7.53065 16 8.03936 15.7893 8.41443 15.4142C8.78951 15.0391 9.00022 14.5304 9.00022 14C9.00022 13.4696 8.78951 12.9609 8.41443 12.5858C8.03936 12.2107 7.53065 12 7.00022 12ZM14.0002 4.414V8H17.5862L14.0002 4.414Z" fill="currentColor"/>
</svg>
