<svg width="24" height="24" viewBox="0 0 24 24" fill="none" xmlns="http://www.w3.org/2000/svg">
<path fill-rule="evenodd" clip-rule="evenodd" d="M13.586 2C14.1164 2.00011 14.625 2.2109 15 2.586L19.414 7C19.7891 7.37499 19.9999 7.88361 20 8.414V13H18V10H13.5C13.1022 10 12.7206 9.84196 12.4393 9.56066C12.158 9.27936 12 8.89782 12 8.5V4H6V20H12V22H6C5.46957 22 4.96086 21.7893 4.58579 21.4142C4.21071 21.0391 4 20.5304 4 20V4C4 3.46957 4.21071 2.96086 4.58579 2.58579C4.96086 2.21071 5.46957 2 6 2H13.586ZM17.316 14.051L20.316 15.051C20.5152 15.1173 20.6885 15.2447 20.8112 15.415C20.934 15.5854 21.0001 15.79 21 16V17.671C21.0001 18.7406 20.6058 19.7727 19.8925 20.5698C19.1793 21.3668 18.1971 21.8729 17.134 21.991C17.0449 22.001 16.9551 22.001 16.866 21.991C15.8029 21.8729 14.8207 21.3668 14.1075 20.5698C13.3942 19.7727 12.9999 18.7406 13 17.671V16C12.9999 15.79 13.066 15.5854 13.1888 15.415C13.3115 15.2447 13.4848 15.1173 13.684 15.051L16.684 14.051C16.8891 13.9827 17.1109 13.9827 17.316 14.051ZM17 16.054L15 16.721V17.671C15 18.838 15.855 19.821 17 19.992C18.145 19.822 19 18.838 19 17.672V16.721L17 16.054ZM14 4.414V8H17.586L14 4.414Z" fill="currentColor"/>
</svg>
