<svg width="24" height="24" viewBox="0 0 24 24" fill="none" xmlns="http://www.w3.org/2000/svg">
<path d="M13.586 2C14.1164 2.00011 14.625 2.2109 15 2.586L19.414 7C19.7891 7.37499 19.9999 7.88361 20 8.414V20C20 20.5304 19.7893 21.0391 19.4142 21.4142C19.0391 21.7893 18.5304 22 18 22H6C5.46957 22 4.96086 21.7893 4.58579 21.4142C4.21071 21.0391 4 20.5304 4 20V4C4 3.46957 4.21071 2.96086 4.58579 2.58579C4.96086 2.21071 5.46957 2 6 2H13.586ZM12 4H6V20H18V10H13.5C13.1022 10 12.7206 9.84196 12.4393 9.56066C12.158 9.27936 12 8.89782 12 8.5V4ZM13.59 12.657C13.7775 12.4694 14.0319 12.3639 14.2971 12.3638C14.5624 12.3637 14.8169 12.469 15.0045 12.6565C15.1921 12.844 15.2976 13.0984 15.2977 13.3636C15.2978 13.6289 15.1925 13.8834 15.005 14.071L11.894 17.183C11.7918 17.2852 11.6706 17.3663 11.5371 17.4216C11.4036 17.4769 11.2605 17.5054 11.116 17.5054C10.9715 17.5054 10.8284 17.4769 10.6949 17.4216C10.5614 17.3663 10.4402 17.2852 10.338 17.183L8.995 15.839C8.81284 15.6504 8.71205 15.3978 8.71433 15.1356C8.7166 14.8734 8.82177 14.6226 9.00718 14.4372C9.19259 14.2518 9.4434 14.1466 9.7056 14.1443C9.9678 14.142 10.2204 14.2428 10.409 14.425L11.116 15.132L13.59 12.657ZM14 4.414V8H17.586L14 4.414Z" fill="currentColor"/>
</svg>
