<svg width="24" height="24" viewBox="0 0 24 24" fill="none" xmlns="http://www.w3.org/2000/svg">
<path fill-rule="evenodd" clip-rule="evenodd" d="M13.586 2C14.0556 2.00011 14.5101 2.16543 14.87 2.467L15 2.586L19.414 7C19.746 7.33202 19.9506 7.77028 19.992 8.238L20 8.414V12H18V10H13.5C13.1271 9.99998 12.7676 9.86108 12.4916 9.61038C12.2156 9.35968 12.0428 9.01516 12.007 8.644L12 8.5V4H6V20H11V22H6C5.49542 22.0002 5.00943 21.8096 4.63945 21.4665C4.26947 21.1234 4.04284 20.6532 4.005 20.15L4 20V4C3.99984 3.49542 4.19041 3.00943 4.5335 2.63945C4.87659 2.26947 5.34684 2.04284 5.85 2.005L6 2H13.586ZM16.5 13C17.0909 13 17.6761 13.1164 18.2221 13.3425C18.768 13.5687 19.2641 13.9002 19.682 14.318C20.0998 14.7359 20.4313 15.232 20.6575 15.7779C20.8836 16.3239 21 16.9091 21 17.5C21 18.0909 20.8836 18.6761 20.6575 19.2221C20.4313 19.768 20.0998 20.2641 19.682 20.682C19.2641 21.0998 18.768 21.4313 18.2221 21.6575C17.6761 21.8836 17.0909 22 16.5 22C15.3065 22 14.1619 21.5259 13.318 20.682C12.4741 19.8381 12 18.6935 12 17.5C12 16.3065 12.4741 15.1619 13.318 14.318C14.1619 13.4741 15.3065 13 16.5 13ZM14.172 16.586C13.9941 17.0389 13.9522 17.534 14.0515 18.0103C14.1508 18.4867 14.387 18.9238 14.7311 19.2679C15.0752 19.612 15.5123 19.8482 15.9887 19.9475C16.465 20.0468 16.9601 20.0049 17.413 19.827L14.172 16.586ZM16.5 15C16.178 15 15.87 15.061 15.586 15.172L18.828 18.414C18.9769 18.0349 19.0309 17.6251 18.9854 17.2203C18.9398 16.8156 18.796 16.4281 18.5666 16.0915C18.3371 15.755 18.0289 15.4797 17.6687 15.2894C17.3085 15.0992 16.9073 14.9998 16.5 15ZM14 4.414V8H17.586L14 4.414Z" fill="currentColor"/>
</svg>
