<svg width="24" height="24" viewBox="0 0 24 24" fill="none" xmlns="http://www.w3.org/2000/svg">
<path fill-rule="evenodd" clip-rule="evenodd" d="M13.586 2C14.1164 2.00011 14.625 2.2109 15 2.586L19.414 7C19.7891 7.37499 19.9999 7.88361 20 8.414V20C20 20.5304 19.7893 21.0391 19.4142 21.4142C19.0391 21.7893 18.5304 22 18 22H6C5.46957 22 4.96086 21.7893 4.58579 21.4142C4.21071 21.0391 4 20.5304 4 20V4C4 3.46957 4.21071 2.96086 4.58579 2.58579C4.96086 2.21071 5.46957 2 6 2H13.586ZM12 4H6V20H18V10H13.5C13.1022 10 12.7206 9.84196 12.4393 9.56066C12.158 9.27936 12 8.89782 12 8.5V4ZM12 12C12.5069 11.9998 13.0055 12.1281 13.4494 12.3728C13.8933 12.6175 14.2679 12.9707 14.5383 13.3994C14.8087 13.8281 14.9661 14.3184 14.9958 14.8244C15.0255 15.3304 14.9265 15.8356 14.708 16.293L15.414 17C15.5095 17.0922 15.5857 17.2026 15.6381 17.3246C15.6905 17.4466 15.7181 17.5778 15.7193 17.7106C15.7204 17.8434 15.6951 17.9751 15.6448 18.098C15.5945 18.2208 15.5203 18.3325 15.4264 18.4264C15.3325 18.5203 15.2208 18.5945 15.098 18.6448C14.9751 18.6951 14.8434 18.7204 14.7106 18.7192C14.5778 18.7181 14.4466 18.6905 14.3246 18.6381C14.2026 18.5857 14.0922 18.5095 14 18.414L13.293 17.708C12.8867 17.9017 12.442 18.0015 11.9919 18C11.5418 17.9985 11.0978 17.8957 10.6928 17.6993C10.2878 17.5029 9.93222 17.2178 9.65236 16.8653C9.3725 16.5128 9.17555 16.1018 9.07611 15.6628C8.97667 15.2238 8.97728 14.7681 9.07791 14.3293C9.17853 13.8906 9.37659 13.4802 9.6574 13.1284C9.93821 12.7766 10.2946 12.4925 10.7001 12.2972C11.1056 12.1019 11.5499 12.0003 12 12ZM12 14C11.7348 14 11.4804 14.1054 11.2929 14.2929C11.1054 14.4804 11 14.7348 11 15C11 15.2652 11.1054 15.5196 11.2929 15.7071C11.4804 15.8946 11.7348 16 12 16C12.2652 16 12.5196 15.8946 12.7071 15.7071C12.8946 15.5196 13 15.2652 13 15C13 14.7348 12.8946 14.4804 12.7071 14.2929C12.5196 14.1054 12.2652 14 12 14ZM14 4.414V8H17.586L14 4.414Z" fill="currentColor"/>
</svg>
