<svg width="24" height="24" viewBox="0 0 24 24" fill="none" xmlns="http://www.w3.org/2000/svg">
<path d="M13.586 2C14.1164 2.00011 14.625 2.2109 15 2.586L19.414 7C19.7891 7.37499 19.9999 7.88361 20 8.414V20C20 20.5304 19.7893 21.0391 19.4142 21.4142C19.0391 21.7893 18.5304 22 18 22H6C5.46957 22 4.96086 21.7893 4.58579 21.4142C4.21071 21.0391 4 20.5304 4 20V4C4 3.46957 4.21071 2.96086 4.58579 2.58579C4.96086 2.21071 5.46957 2 6 2H13.586ZM12 4H6V20H18V10H13.5C13.1022 10 12.7206 9.84196 12.4393 9.56066C12.158 9.27936 12 8.89782 12 8.5V4ZM12 17C12.2652 17 12.5196 17.1054 12.7071 17.2929C12.8946 17.4804 13 17.7348 13 18C13 18.2652 12.8946 18.5196 12.7071 18.7071C12.5196 18.8946 12.2652 19 12 19C11.7348 19 11.4804 18.8946 11.2929 18.7071C11.1054 18.5196 11 18.2652 11 18C11 17.7348 11.1054 17.4804 11.2929 17.2929C11.4804 17.1054 11.7348 17 12 17ZM12 11C12.5196 11.0002 13.0262 11.1622 13.4494 11.4637C13.8727 11.7651 14.1915 12.1909 14.3615 12.6819C14.5315 13.1728 14.5444 13.7046 14.3982 14.2032C14.2521 14.7018 13.9542 15.1425 13.546 15.464C13.4474 15.5428 13.3501 15.6231 13.254 15.705C12.847 16.048 12.402 16.422 12 16.422C11.375 16.422 11.14 15.932 11.14 15.578C11.14 15.224 11.351 14.844 11.525 14.63C11.779 14.317 12.09 14.066 12.309 13.893C12.3756 13.8406 12.4279 13.7722 12.4608 13.6941C12.4937 13.616 12.5062 13.5308 12.4971 13.4465C12.4881 13.3623 12.4578 13.2817 12.409 13.2123C12.3603 13.143 12.2947 13.0872 12.2185 13.0502C12.1422 13.0131 12.0578 12.9961 11.9732 13.0006C11.8886 13.0052 11.8065 13.0311 11.7347 13.0761C11.6628 13.1211 11.6036 13.1836 11.5626 13.2577C11.5215 13.3319 11.5 13.4152 11.5 13.5C11.5 13.7652 11.3946 14.0196 11.2071 14.2071C11.0196 14.3946 10.7652 14.5 10.5 14.5C10.2348 14.5 9.98043 14.3946 9.79289 14.2071C9.60536 14.0196 9.5 13.7652 9.5 13.5C9.5 12.837 9.76339 12.2011 10.2322 11.7322C10.7011 11.2634 11.337 11 12 11ZM14 4.414V8H17.586L14 4.414Z" fill="currentColor"/>
</svg>
