<svg width="24" height="24" viewBox="0 0 24 24" fill="none" xmlns="http://www.w3.org/2000/svg">
<path d="M13.586 2C14.0556 2.00011 14.5101 2.16543 14.87 2.467L15 2.586L19.414 7C19.746 7.33202 19.9506 7.77028 19.992 8.238L20 8.414V20C20.0002 20.5046 19.8096 20.9906 19.4665 21.3605C19.1234 21.7305 18.6532 21.9572 18.15 21.995L18 22H6C5.49542 22.0002 5.00943 21.8096 4.63945 21.4665C4.26947 21.1234 4.04284 20.6532 4.005 20.15L4 20V4C3.99984 3.49542 4.19041 3.00943 4.5335 2.63945C4.87659 2.26947 5.34684 2.04284 5.85 2.005L6 2H13.586ZM12 4H6V20H18V10H13.5C13.1022 10 12.7206 9.84196 12.4393 9.56066C12.158 9.27936 12 8.89782 12 8.5V4ZM14.449 11.684C14.4905 11.8086 14.5071 11.9402 14.4978 12.0712C14.4884 12.2023 14.4534 12.3302 14.3946 12.4476C14.3358 12.5651 14.2544 12.6699 14.1552 12.7559C14.0559 12.8419 13.9406 12.9075 13.816 12.949L13 13.22V16C13 16.3956 12.8827 16.7822 12.6629 17.1111C12.4432 17.44 12.1308 17.6964 11.7654 17.8478C11.3999 17.9991 10.9978 18.0387 10.6098 17.9616C10.2219 17.8844 9.86549 17.6939 9.58579 17.4142C9.30608 17.1345 9.1156 16.7781 9.03843 16.3902C8.96126 16.0022 9.00087 15.6001 9.15224 15.2346C9.30362 14.8692 9.55996 14.5568 9.88886 14.3371C10.2178 14.1173 10.6044 14 11 14V12.86C11 12.5451 11.0991 12.2383 11.2833 11.9829C11.4674 11.7275 11.7273 11.5365 12.026 11.437L13.184 11.051C13.3086 11.0095 13.4402 10.9929 13.5712 11.0022C13.7023 11.0116 13.8302 11.0466 13.9476 11.1054C14.0651 11.1642 14.1699 11.2456 14.2559 11.3448C14.3419 11.4441 14.4075 11.5594 14.449 11.684ZM14 4.414V8H17.586L14 4.414Z" fill="currentColor"/>
</svg>
