<svg width="24" height="24" viewBox="0 0 24 24" fill="none" xmlns="http://www.w3.org/2000/svg">
<path d="M20 3C20.5304 3 21.0391 3.21071 21.4142 3.58579C21.7893 3.96086 22 4.46957 22 5V19C22 19.5304 21.7893 20.0391 21.4142 20.4142C21.0391 20.7893 20.5304 21 20 21H4C3.46957 21 2.96086 20.7893 2.58579 20.4142C2.21071 20.0391 2 19.5304 2 19V5C2 4.46957 2.21071 3.96086 2.58579 3.58579C2.96086 3.21071 3.46957 3 4 3H20ZM16 5H8V19H16V5ZM20 17H18V19H20V17ZM6 17H4V19H6V17ZM20 13H18V15H20V13ZM6 13H4V15H6V13ZM20 9H18V11H20V9ZM6 9H4V11H6V9ZM20 5H18V7H20V5ZM6 5H4V7H6V5Z" fill="currentColor"/>
</svg>
