<svg width="24" height="24" viewBox="0 0 24 24" fill="none" xmlns="http://www.w3.org/2000/svg">
<path fill-rule="evenodd" clip-rule="evenodd" d="M5 6C5 6.585 6.3 7.037 6.694 7.185C8.004 7.675 9.88 8 12 8C14.12 8 15.997 7.676 17.306 7.185C17.699 7.037 19 6.585 19 6C19 5.415 17.7 4.963 17.306 4.815C15.996 4.325 14.12 4 12 4C9.88 4 8.003 4.324 6.694 4.815C6.301 4.963 5 5.415 5 6ZM18.547 8.837C18.3697 8.9159 18.1899 8.98927 18.008 9.057C16.422 9.654 14.298 10 12 10C9.703 10 7.578 9.653 5.992 9.058C5.80974 8.98998 5.62965 8.91628 5.452 8.837C6.188 11.05 7.755 12.77 9.665 13.544C10.4 13.84 11 14.558 11 15.468V19.719L13 19.219V15.468C13 14.558 13.6 13.841 14.335 13.544C16.245 12.77 17.812 11.05 18.547 8.837ZM3 6C3 10.264 5.414 13.98 8.915 15.397C8.94534 15.4087 8.97195 15.4284 8.992 15.454C8.99546 15.4585 8.99816 15.4636 9 15.469V19.719C9.00005 20.0229 9.06935 20.3228 9.20264 20.5959C9.33594 20.869 9.52972 21.1082 9.76927 21.2952C10.0088 21.4822 10.2878 21.6122 10.5851 21.6752C10.8824 21.7382 11.1902 21.7327 11.485 21.659L13.485 21.159C13.9175 21.0509 14.3015 20.8014 14.576 20.4501C14.8505 20.0988 14.9997 19.6658 15 19.22V15.47L15.008 15.455C15.028 15.4294 15.0547 15.4097 15.085 15.398C18.587 13.98 21 10.264 21 6C21 5.197 20.563 4.552 20.035 4.084C19.505 3.615 18.797 3.238 18.008 2.942C16.422 2.347 14.298 2 12 2C9.703 2 7.578 2.347 5.992 2.942C5.202 3.238 4.494 3.615 3.965 4.084C3.437 4.552 3 5.197 3 6Z" fill="currentColor"/>
</svg>
