<svg width="24" height="24" viewBox="0 0 24 24" fill="none" xmlns="http://www.w3.org/2000/svg">
<path fill-rule="evenodd" clip-rule="evenodd" d="M12 4C10.1435 4 8.36301 4.7375 7.05025 6.05025C5.7375 7.36301 5 9.14348 5 11V13C5 13.2652 4.89464 13.5196 4.70711 13.7071C4.51957 13.8946 4.26522 14 4 14C3.73478 14 3.48043 13.8946 3.29289 13.7071C3.10536 13.5196 3 13.2652 3 13V11C3 8.61305 3.94821 6.32387 5.63604 4.63604C7.32387 2.94821 9.61305 2 12 2C14.3869 2 16.6761 2.94821 18.364 4.63604C20.0518 6.32387 21 8.61305 21 11V14C20.9862 14.8814 20.9204 15.7613 20.803 16.635C20.614 18.02 20.218 19.876 19.3 21.1C19.1409 21.3122 18.904 21.4524 18.6414 21.49C18.3789 21.5275 18.1122 21.4591 17.9 21.3C17.6878 21.1409 17.5476 20.904 17.51 20.6414C17.4725 20.3789 17.5409 20.1122 17.7 19.9C18.282 19.124 18.636 17.73 18.822 16.365C18.927 15.5808 18.9864 14.7911 19 14V11C19 9.14348 18.2625 7.36301 16.9497 6.05025C15.637 4.7375 13.8565 4 12 4ZM12 8C11.2044 8 10.4413 8.31607 9.87868 8.87868C9.31607 9.44129 9 10.2044 9 11V12C9 12.94 8.696 14.1 8.132 15.158C7.565 16.221 6.683 17.276 5.447 17.894C5.32912 17.9576 5.19968 17.9968 5.06635 18.0094C4.93302 18.022 4.79852 18.0077 4.67083 17.9673C4.54314 17.9269 4.42486 17.8613 4.32301 17.7743C4.22117 17.6874 4.13782 17.5808 4.07793 17.461C4.01804 17.3413 3.98282 17.2107 3.97436 17.077C3.9659 16.9433 3.98437 16.8094 4.02868 16.683C4.07298 16.5566 4.14223 16.4404 4.2323 16.3413C4.32236 16.2422 4.43142 16.1622 4.553 16.106C5.317 15.724 5.935 15.029 6.368 14.216C6.804 13.4 7 12.56 7 12V11C7 9.67392 7.52678 8.40215 8.46447 7.46447C9.40215 6.52678 10.6739 6 12 6C13.3261 6 14.5979 6.52678 15.5355 7.46447C16.4732 8.40215 17 9.67392 17 11V12.117C17 15.041 17.001 18.967 13.64 21.768C13.5396 21.8558 13.4227 21.9226 13.2962 21.9646C13.1696 22.0065 13.0359 22.0227 12.903 22.0123C12.7701 22.0018 12.6406 21.9648 12.5221 21.9036C12.4037 21.8423 12.2987 21.758 12.2133 21.6555C12.128 21.5531 12.064 21.4346 12.0251 21.3071C11.9862 21.1796 11.9732 21.0455 11.9868 20.9129C12.0005 20.7802 12.0405 20.6517 12.1046 20.5347C12.1687 20.4178 12.2555 20.3149 12.36 20.232C14.954 18.07 15 15.064 15 12V11C15 10.2044 14.6839 9.44129 14.1213 8.87868C13.5587 8.31607 12.7956 8 12 8ZM13 11.5C13 11.2348 12.8946 10.9804 12.7071 10.7929C12.5196 10.6054 12.2652 10.5 12 10.5C11.7348 10.5 11.4804 10.6054 11.2929 10.7929C11.1054 10.9804 11 11.2348 11 11.5C11 12.697 10.879 14.202 10.426 15.559C9.976 16.913 9.232 18.016 8.053 18.606C7.93142 18.6622 7.82236 18.7422 7.7323 18.8413C7.64223 18.9404 7.57298 19.0566 7.52868 19.183C7.48437 19.3094 7.4659 19.4433 7.47436 19.577C7.48282 19.7107 7.51804 19.8412 7.57793 19.961C7.63782 20.0808 7.72117 20.1874 7.82301 20.2743C7.92486 20.3613 8.04314 20.4269 8.17083 20.4673C8.29852 20.5077 8.43302 20.522 8.56635 20.5094C8.69968 20.4968 8.82912 20.4576 8.947 20.394C10.768 19.484 11.775 17.838 12.324 16.191C12.871 14.548 13 12.803 13 11.5Z" fill="currentColor"/>
</svg>
