<svg width="24" height="24" viewBox="0 0 24 24" fill="none" xmlns="http://www.w3.org/2000/svg">
<path fill-rule="evenodd" clip-rule="evenodd" d="M9.4997 2C9.828 2 10.1531 2.06466 10.4564 2.1903C10.7597 2.31594 11.0353 2.50009 11.2675 2.73223C11.4996 2.96438 11.6838 3.23998 11.8094 3.54329C11.935 3.84661 11.9997 4.1717 11.9997 4.5V9.105L17.4417 9.71C18.4199 9.81876 19.3237 10.2844 19.9801 11.0177C20.6366 11.7511 20.9996 12.7008 20.9997 13.685V14C20.9997 16.1217 20.1568 18.1566 18.6566 19.6569C17.1563 21.1571 15.1214 22 12.9997 22H12.3257C10.8401 22 9.38387 21.5862 8.12014 20.8052C6.85642 20.0242 5.83513 18.9067 5.1707 17.578L2.3287 11.894C1.9687 11.174 2.2357 10.211 3.0757 9.866C4.1177 9.439 5.1097 9.359 6.1297 9.878C6.4267 10.028 6.7147 10.225 6.9997 10.462V4.5C6.9997 3.83696 7.26309 3.20107 7.73193 2.73223C8.20077 2.26339 8.83665 2 9.4997 2ZM9.4997 4C9.36709 4 9.23991 4.05268 9.14614 4.14645C9.05237 4.24021 8.9997 4.36739 8.9997 4.5V13C8.99979 13.2073 8.93548 13.4095 8.81565 13.5786C8.69583 13.7477 8.5264 13.8754 8.33082 13.9441C8.13524 14.0127 7.92317 14.0189 7.72393 13.9617C7.5247 13.9045 7.34814 13.7869 7.2187 13.625L6.8867 13.218L6.5847 12.864C6.0047 12.207 5.5827 11.844 5.2247 11.661C4.96928 11.5235 4.67307 11.482 4.3897 11.544L6.9597 16.684C7.45807 17.6804 8.22403 18.5184 9.17177 19.1041C10.1195 19.6897 11.2116 20 12.3257 20H12.9997C14.591 20 16.1171 19.3679 17.2423 18.2426C18.3676 17.1174 18.9997 15.5913 18.9997 14V13.685C18.9997 13.1926 18.8181 12.7176 18.4897 12.3507C18.1613 11.9839 17.7091 11.7512 17.2197 11.697L11.7787 11.093C11.2893 11.0388 10.8371 10.8061 10.5087 10.4393C10.1802 10.0724 9.99866 9.59736 9.9987 9.105V4.5C9.9987 4.36739 9.94602 4.24021 9.85225 4.14645C9.75848 4.05268 9.6313 4 9.4987 4H9.4997ZM5.8597 3.798C5.92696 3.91103 5.97127 4.03621 5.99009 4.16638C6.0089 4.29656 6.00185 4.42917 5.96934 4.55661C5.93683 4.68406 5.87949 4.80384 5.80062 4.90909C5.72175 5.01435 5.62288 5.10301 5.5097 5.17C5.03144 5.45283 4.58778 5.79044 4.1877 6.176C4.0977 6.264 4.0077 6.354 3.9247 6.449L3.8037 6.595C3.64677 6.80763 3.41205 6.94949 3.15084 6.98959C2.88964 7.02969 2.62318 6.96476 2.4097 6.809C2.19749 6.65097 2.05576 6.41598 2.01499 6.15455C1.97423 5.89312 2.03768 5.62614 2.1917 5.411C2.3728 5.17175 2.57349 4.94797 2.7917 4.742C3.3049 4.24789 3.87371 3.815 4.4867 3.452C4.5995 3.38476 4.72445 3.3404 4.85439 3.32145C4.98434 3.3025 5.11675 3.30933 5.24406 3.34155C5.37137 3.37377 5.49109 3.43076 5.59638 3.50925C5.70166 3.58773 5.79046 3.68619 5.8577 3.799L5.8597 3.798ZM13.0827 3.398C13.1887 3.15497 13.3869 2.96398 13.6337 2.86703C13.8804 2.77008 14.1556 2.7751 14.3987 2.881C15.3211 3.27939 16.1749 3.82071 16.9287 4.485C17.2447 4.765 17.5577 5.068 17.8077 5.411C17.9639 5.6253 18.0285 5.89287 17.9875 6.15485C17.9464 6.41683 17.803 6.65177 17.5887 6.808C17.1787 7.108 16.6177 7.038 16.2747 6.686L16.0307 6.401L15.8907 6.254L15.7087 6.077C15.0869 5.50837 14.3744 5.04768 13.6007 4.714C13.3577 4.60818 13.1667 4.41025 13.0696 4.16369C12.9725 3.91712 12.9772 3.64109 13.0827 3.398Z" fill="currentColor"/>
</svg>
