<svg width="24" height="24" viewBox="0 0 24 24" fill="none" xmlns="http://www.w3.org/2000/svg">
<path fill-rule="evenodd" clip-rule="evenodd" d="M12 4C9.87827 4 7.84344 4.84285 6.34315 6.34315C4.84285 7.84344 4 9.87827 4 12C4 13.638 4.28 15.208 4.796 16.667C4.8441 16.7918 4.8667 16.9249 4.86244 17.0585C4.85819 17.1922 4.82719 17.3236 4.77125 17.4451C4.71532 17.5665 4.6356 17.6755 4.53681 17.7656C4.43802 17.8557 4.32216 17.9251 4.19608 17.9696C4.07001 18.0142 3.93629 18.033 3.80282 18.0249C3.66935 18.0169 3.53885 17.9822 3.41904 17.9228C3.29923 17.8635 3.19253 17.7807 3.10527 17.6794C3.01801 17.5781 2.95195 17.4603 2.911 17.333C2.32 15.663 2 13.868 2 12C2 6.477 6.477 2 12 2C17.523 2 22 6.477 22 12C22 13.0609 21.5786 14.0783 20.8284 14.8284C20.0783 15.5786 19.0609 16 18 16C17.0647 15.9999 16.1598 15.668 15.4462 15.0634C14.7326 14.4588 14.2566 13.6206 14.103 12.698L13.925 11.63C13.849 11.1744 13.6138 10.7605 13.2613 10.4621C12.9088 10.1636 12.4619 9.99986 12 10C11.4696 10 10.9609 10.2107 10.5858 10.5858C10.2107 10.9609 10 11.4696 10 12C10 13.6602 10.5163 15.2794 11.4774 16.6332C12.4384 17.987 13.7967 19.0084 15.364 19.556C15.4901 19.5976 15.6066 19.6639 15.7068 19.751C15.807 19.8381 15.8888 19.9443 15.9476 20.0634C16.0063 20.1824 16.0407 20.312 16.0488 20.4445C16.0569 20.577 16.0386 20.7099 15.9948 20.8352C15.9511 20.9605 15.8828 21.0759 15.794 21.1746C15.7052 21.2733 15.5976 21.3533 15.4775 21.41C15.3575 21.4666 15.2273 21.4988 15.0947 21.5047C14.9621 21.5105 14.8296 21.4899 14.705 21.444C10.802 20.083 8 16.37 8 12C8 10.9391 8.42143 9.92172 9.17157 9.17157C9.92172 8.42143 10.9391 8 12 8C12.9353 8.00008 13.8402 8.33196 14.5538 8.93659C15.2674 9.54123 15.7434 10.3794 15.897 11.302L16.075 12.37C16.232 13.31 17.046 14 18 14C18.5304 14 19.0391 13.7893 19.4142 13.4142C19.7893 13.0391 20 12.5304 20 12C20 9.87827 19.1571 7.84344 17.6569 6.34315C16.1566 4.84285 14.1217 4 12 4ZM12 7C10.6739 7 9.40215 7.52678 8.46447 8.46447C7.52678 9.40215 7 10.6739 7 12C7 15.285 8.439 18.233 10.724 20.25C10.9229 20.4254 11.044 20.6727 11.0606 20.9374C11.0772 21.2021 10.9879 21.4626 10.8125 21.6615C10.6371 21.8604 10.3898 21.9815 10.1251 21.9981C9.86037 22.0147 9.59991 21.9254 9.401 21.75C8.01631 20.5312 6.90751 19.0311 6.14859 17.3498C5.38967 15.6685 4.9981 13.8447 5 12C5 10.1435 5.7375 8.36301 7.05025 7.05025C8.36301 5.7375 10.1435 5 12 5C13.8565 5 15.637 5.7375 16.9497 7.05025C18.2625 8.36301 19 10.1435 19 12C19 12.2652 18.8946 12.5196 18.7071 12.7071C18.5196 12.8946 18.2652 13 18 13C17.7348 13 17.4804 12.8946 17.2929 12.7071C17.1054 12.5196 17 12.2652 17 12C17 10.6739 16.4732 9.40215 15.5355 8.46447C14.5979 7.52678 13.3261 7 12 7ZM12 11C12.2652 11 12.5196 11.1054 12.7071 11.2929C12.8946 11.4804 13 11.7348 13 12C13 12.7272 13.1586 13.4456 13.4648 14.1052C13.771 14.7648 14.2173 15.3497 14.7728 15.8191C15.3282 16.2884 15.9793 16.631 16.6807 16.8229C17.3822 17.0147 18.117 17.0513 18.834 16.93C19.0956 16.886 19.364 16.9477 19.5802 17.1016C19.7963 17.2554 19.9425 17.4889 19.9865 17.7505C20.0305 18.0121 19.9688 18.2805 19.8149 18.4967C19.6611 18.7128 19.4276 18.859 19.166 18.903C18.1622 19.0726 17.1335 19.0212 16.1517 18.7524C15.1698 18.4836 14.2584 18.0039 13.481 17.3467C12.7035 16.6895 12.0788 15.8706 11.6503 14.9472C11.2218 14.0238 10.9999 13.018 11 12C11 11.7348 11.1054 11.4804 11.2929 11.2929C11.4804 11.1054 11.7348 11 12 11Z" fill="currentColor"/>
</svg>
