<svg width="24" height="24" viewBox="0 0 24 24" fill="none" xmlns="http://www.w3.org/2000/svg">
<path fill-rule="evenodd" clip-rule="evenodd" d="M8.33223 4.888C9.33826 4.36925 10.4429 4.06982 11.5732 4.00946C12.7035 3.9491 13.8337 4.12919 14.8893 4.53785C15.9449 4.9465 16.9017 5.57442 17.6967 6.38014C18.4917 7.18586 19.1068 8.15106 19.5012 9.212C19.5052 9.236 19.5112 9.26 19.5172 9.285C19.7152 10.042 19.6822 11.365 19.1712 12.574C18.6762 13.744 17.7812 14.714 16.2982 15.021C13.3972 15.62 11.4902 13.696 10.9662 11.741C10.8208 11.1738 10.7132 10.5975 10.6442 10.016C10.5632 9.326 10.5642 8.8 10.6262 8.555C10.6792 8.34516 10.6627 8.12379 10.5791 7.92414C10.4956 7.72449 10.3495 7.55734 10.1629 7.44778C9.9762 7.33823 9.75905 7.29218 9.544 7.31657C9.32895 7.34095 9.12761 7.43444 8.97023 7.583C7.97793 8.51804 7.23979 9.69012 6.82523 10.989C6.71249 10.316 6.63704 9.63731 6.59923 8.956C6.53123 7.762 6.57723 6.553 6.80523 5.666C6.85959 5.45518 6.84367 5.23237 6.75988 5.03142C6.67609 4.83047 6.52901 4.66236 6.34097 4.55262C6.15294 4.44287 5.93422 4.39749 5.71804 4.42337C5.50187 4.44925 5.30005 4.54497 5.14323 4.696C2.42323 7.313 1.35223 11.148 2.31923 14.516C3.43523 18.821 7.34623 22 12.0002 22C17.5232 22 22.0002 17.523 22.0002 12C22.0002 6.477 17.5232 2 12.0002 2C10.3492 2 8.78923 2.4 7.41423 3.112C7.29382 3.17005 7.18628 3.25164 7.09795 3.35196C7.00962 3.45229 6.9423 3.5693 6.89997 3.69608C6.85764 3.82287 6.84115 3.95685 6.85149 4.09012C6.86183 4.22338 6.89877 4.35322 6.96015 4.47196C7.02153 4.5907 7.10608 4.69593 7.20883 4.78143C7.31157 4.86693 7.43041 4.93097 7.55832 4.96976C7.68624 5.00854 7.82063 5.02129 7.95355 5.00725C8.08648 4.99321 8.21524 4.95266 8.33223 4.888ZM4.00023 12C4.00023 10.95 4.18823 9.922 4.59623 8.95C4.66323 10.281 4.85623 11.539 5.06123 12.306C5.42823 13.676 5.95823 15.085 7.05123 16.176C7.20909 16.3339 7.41525 16.4344 7.63687 16.4616C7.8585 16.4887 8.08282 16.4409 8.27412 16.3257C8.46541 16.2106 8.61267 16.0347 8.69243 15.8262C8.77219 15.6176 8.77986 15.3884 8.71423 15.175C8.32873 13.9142 8.36738 12.5617 8.82423 11.325C8.89123 11.675 8.96423 11.997 9.03423 12.259C9.75823 14.962 12.5062 17.846 16.7022 16.979C17.4954 16.8214 18.2471 16.5003 18.9092 16.036C18.1148 17.3944 16.9375 18.4884 15.5246 19.1813C14.1117 19.8741 12.5258 20.1351 10.9654 19.9315C9.40501 19.7278 7.93924 19.0687 6.75144 18.0365C5.56363 17.0043 4.7065 15.6448 4.28723 14.128C4.14023 13.417 4.00023 12.732 4.00023 12Z" fill="currentColor"/>
</svg>
