<svg width="24" height="24" viewBox="0 0 24 24" fill="none" xmlns="http://www.w3.org/2000/svg">
<path fill-rule="evenodd" clip-rule="evenodd" d="M20.4846 3.515C20.1546 3.185 19.5496 2.858 18.8746 2.61C18.0158 2.29747 17.1146 2.11675 16.2016 2.074C14.4116 1.989 12.2736 2.419 10.2316 3.994C10.2 4.00578 10.169 4.01913 10.1386 4.034L7.30965 5.45C7.1297 5.53996 6.98106 5.68211 6.88317 5.85787C6.78527 6.03364 6.74267 6.23484 6.76092 6.4352C6.77917 6.63555 6.85743 6.82574 6.98548 6.98092C7.11353 7.1361 7.2854 7.24905 7.47865 7.305C6.83348 8.60034 6.43407 10.0041 6.30065 11.445C6.22565 12.227 6.17165 13.375 6.11565 14.567C6.09265 15.069 6.06865 15.58 6.04265 16.074C5.42565 16.124 4.85465 16.183 4.38865 16.258C3.89865 16.338 3.34665 16.435 2.95065 16.761C2.78165 16.901 2.51465 17.198 2.51465 17.658C2.51465 18.581 3.34665 19.435 3.95665 20.044C4.56565 20.654 5.41965 21.486 6.34265 21.486C6.80265 21.486 7.10065 21.219 7.23965 21.05C7.56565 20.654 7.66265 20.103 7.74265 19.612C7.82549 19.0633 7.88687 18.5115 7.92665 17.958C8.42065 17.932 8.93065 17.908 9.43365 17.885C10.6256 17.829 11.7736 17.775 12.5556 17.7C13.9966 17.5666 15.4003 17.1672 16.6956 16.522C16.7516 16.7153 16.8646 16.8871 17.0197 17.0152C17.1749 17.1432 17.3651 17.2215 17.5655 17.2397C17.7658 17.258 17.967 17.2154 18.1428 17.1175C18.3185 17.0196 18.4607 16.871 18.5506 16.691L19.9646 13.862C19.9807 13.8316 19.9947 13.8002 20.0066 13.768C21.5806 11.727 22.0106 9.589 21.9256 7.799C21.8829 6.88606 21.7022 5.98484 21.3896 5.126C21.1416 4.451 20.8156 3.845 20.4846 3.515ZM9.43465 15.88C8.98265 15.901 8.51765 15.923 8.05165 15.947C8.07565 15.481 8.09765 15.016 8.11865 14.565C8.17165 13.428 8.21965 12.381 8.29165 11.633C8.49165 9.52501 9.34565 7.582 10.5856 6.343C12.4856 4.443 14.4976 3.994 16.1056 4.071C16.8152 4.10363 17.5158 4.2432 18.1836 4.485C18.4846 4.596 18.8137 4.724 19.0686 4.927L19.0706 4.928L19.0716 4.93C19.2746 5.184 19.4016 5.514 19.5136 5.815C19.7136 6.359 19.8886 7.076 19.9276 7.892C20.0046 9.50101 19.5556 11.514 17.6566 13.413C16.4166 14.653 14.4746 15.507 12.3666 15.707C11.6166 15.779 10.5706 15.827 9.43365 15.88H9.43465ZM4.96565 18.192C5.24165 18.155 5.55965 18.122 5.90765 18.09C5.87765 18.44 5.84365 18.757 5.80665 19.032C5.50548 18.774 5.22365 18.4932 4.96565 18.192ZM14.8276 9.171C15.1089 9.4524 15.4904 9.61054 15.8883 9.61063C16.2862 9.61073 16.6678 9.45277 16.9491 9.1715C17.2305 8.89024 17.3887 8.50872 17.3888 8.11086C17.3889 7.713 17.2309 7.3314 16.9496 7.05C16.6683 6.76861 16.2866 6.61052 15.8886 6.61052C15.4907 6.61052 15.109 6.76861 14.8276 7.05C14.5463 7.3314 14.3882 7.71305 14.3882 8.111C14.3882 8.50896 14.5463 8.89061 14.8276 9.172V9.171Z" fill="currentColor"/>
</svg>
