<svg width="24" height="24" viewBox="0 0 24 24" fill="none" xmlns="http://www.w3.org/2000/svg">
<path fill-rule="evenodd" clip-rule="evenodd" d="M11.8786 5.5C10.9236 5.617 10.0186 5.956 9.63658 6.27C7.40858 8.112 6.15058 10.547 5.49758 12.67C5.21626 13.5694 5.02794 14.4952 4.93558 15.433C4.90158 15.816 4.87058 16.217 4.92858 16.6C5.31158 17.034 5.85358 17.349 6.35658 17.619C7.40758 18.184 8.98658 18.77 11.1096 19.006C12.3116 19.14 13.8296 19.216 15.2296 19.104C16.6826 18.987 17.7966 18.682 18.3746 18.219C19.3486 17.44 19.5946 16.531 19.5056 15.735C19.4106 14.879 18.9296 14.155 18.4456 13.832C17.6106 13.276 16.6706 13.22 15.7846 13.452C14.8726 13.692 14.1236 14.212 13.7696 14.638C13.6808 14.7452 13.5706 14.8326 13.446 14.8947C13.3215 14.9568 13.1853 14.9923 13.0463 14.9988C12.9073 15.0053 12.7685 14.9827 12.6387 14.9324C12.5089 14.8822 12.391 14.8054 12.2926 14.707C11.7426 14.157 10.8076 13.997 9.55458 14.832C9.41788 14.9233 9.26078 14.9795 9.09719 14.9956C8.9336 15.0117 8.76857 14.9872 8.61669 14.9243C8.46482 14.8614 8.33079 14.7621 8.22646 14.635C8.12214 14.508 8.05074 14.3572 8.01858 14.196C7.73258 12.762 7.88158 11.238 8.14558 9.981C8.41158 8.722 8.81158 7.639 9.10558 7.053C9.18872 6.88712 9.31637 6.74764 9.47426 6.65016C9.63214 6.55269 9.81403 6.50106 9.99958 6.50106C10.1851 6.50106 10.367 6.55269 10.5249 6.65016C10.6828 6.74764 10.8104 6.88712 10.8936 7.053C11.0966 7.457 11.4676 7.819 11.8996 7.971C12.2346 7.76 12.5256 7.465 12.7616 7.15C13.1956 6.572 13.3406 6.025 13.1476 5.542C12.7556 5.402 12.2816 5.451 11.8786 5.5ZM13.3616 3.536C13.8456 3.629 14.5526 3.871 14.8936 4.553C15.6406 6.047 15.0236 7.467 14.3616 8.35C13.9296 8.926 13.3736 9.468 12.7266 9.8C12.5916 9.87 12.3166 10 11.9996 10C11.4086 10 10.8296 9.731 10.3546 9.395C10.2646 9.701 10.1776 10.037 10.1026 10.393C9.95424 11.0761 9.87385 11.7721 9.86258 12.471C10.9156 12.131 11.9926 12.167 12.9206 12.691C13.6175 12.1425 14.4198 11.7432 15.2776 11.518C16.5776 11.177 18.1376 11.224 19.5546 12.168C20.5696 12.845 21.3386 14.12 21.4936 15.515C21.6556 16.969 21.1506 18.559 19.6236 19.781C18.5456 20.643 16.9026 20.976 15.3906 21.097C13.8256 21.223 12.1726 21.137 10.8896 20.994C8.51158 20.73 6.68558 20.066 5.40958 19.381C4.57258 18.931 3.42758 18.309 3.06458 17.356C2.81958 16.71 2.88358 15.926 2.94358 15.254C3.02358 14.373 3.21958 13.273 3.58658 12.081C4.31858 9.702 5.75158 6.887 8.36258 4.729C9.16558 4.065 10.5096 3.653 11.6346 3.515C12.2146 3.444 12.8246 3.434 13.3616 3.536Z" fill="currentColor"/>
</svg>
