<svg width="24" height="24" viewBox="0 0 24 24" fill="none" xmlns="http://www.w3.org/2000/svg">
<path fill-rule="evenodd" clip-rule="evenodd" d="M4 21C4 21.2652 4.10536 21.5196 4.29289 21.7071C4.48043 21.8947 4.73478 22 5 22C5.26522 22 5.51957 21.8947 5.70711 21.7071C5.89464 21.5196 6 21.2652 6 21V16.657L19.339 10.877C20.544 10.354 20.544 8.64602 19.339 8.12402L6.096 2.38502C5.86774 2.28619 5.61849 2.24568 5.37068 2.26712C5.12286 2.28857 4.88428 2.3713 4.67639 2.50788C4.4685 2.64445 4.29784 2.83058 4.17977 3.04951C4.0617 3.26843 3.99992 3.51329 4 3.76202V21ZM6 4.52302L17.485 9.50002L6 14.477V4.52302Z" fill="currentColor"/>
</svg>
