<svg width="24" height="24" viewBox="0 0 24 24" fill="none" xmlns="http://www.w3.org/2000/svg">
<path fill-rule="evenodd" clip-rule="evenodd" d="M4 21C4 21.2652 4.10536 21.5196 4.29289 21.7071C4.48043 21.8946 4.73478 22 5 22C5.26522 22 5.51957 21.8946 5.70711 21.7071C5.89464 21.5196 6 21.2652 6 21V16.796L17.45 14.153C17.8907 14.0512 18.2838 13.8031 18.5653 13.4491C18.8468 13.0952 19.0001 12.6562 19 12.204V3.62999C19.0001 3.40433 18.9492 3.18157 18.8512 2.9783C18.7532 2.77503 18.6106 2.59649 18.4341 2.45597C18.2575 2.31545 18.0515 2.21658 17.8315 2.16672C17.6114 2.11685 17.3829 2.11729 17.163 2.16799L5.55 4.84699C5.10934 4.94874 4.71617 5.19685 4.43466 5.55082C4.15316 5.90479 3.99994 6.34372 4 6.79599V21ZM6 6.79599L17 4.25699V12.205L6 14.743V6.79599Z" fill="currentColor"/>
</svg>
