<svg width="24" height="24" viewBox="0 0 24 24" fill="none" xmlns="http://www.w3.org/2000/svg">
<path fill-rule="evenodd" clip-rule="evenodd" d="M11.206 4.48997C12.0446 4.99308 12.9822 5.3088 13.9544 5.41548C14.9265 5.52215 15.9102 5.41725 16.838 5.10797L18.418 4.58097L17.11 8.50997C16.9978 8.84638 17.0084 9.21166 17.14 9.54097L18.679 13.387L16.207 14.211C15.553 14.4289 14.8595 14.5027 14.1743 14.4275C13.489 14.3522 12.8282 14.1296 12.237 13.775C11.3045 13.2153 10.251 12.8881 9.1655 12.8211C8.07998 12.7541 6.99427 12.9492 6 13.39V4.98197C6.00012 4.87254 6.03067 4.76529 6.08824 4.67223C6.14581 4.57916 6.22813 4.50394 6.326 4.45497C7.893 3.67197 9.659 3.56197 11.206 4.48997ZM4 6.99997V4.98197C4 4.00197 4.554 3.10497 5.431 2.66597C7.607 1.57797 10.105 1.49697 12.235 2.77497C12.8262 3.12963 13.487 3.35222 14.1723 3.42747C14.8575 3.50273 15.551 3.42888 16.205 3.21097L19.494 2.11497C19.6876 2.05063 19.8953 2.04141 20.0939 2.08835C20.2925 2.13528 20.4741 2.23652 20.6184 2.38075C20.7627 2.52498 20.8641 2.70651 20.9112 2.90504C20.9583 3.10358 20.9492 3.3113 20.885 3.50497L19.065 8.96897L20.889 13.53C20.9447 13.6691 20.9713 13.8182 20.9673 13.968C20.9633 14.1178 20.9287 14.2652 20.8657 14.4011C20.8027 14.5371 20.7126 14.6588 20.6008 14.7586C20.4891 14.8585 20.3582 14.9345 20.216 14.982L16.838 16.108C15.9102 16.4172 14.9265 16.5222 13.9544 16.4155C12.9822 16.3088 12.0446 15.9931 11.206 15.49C10.5165 15.0762 9.73374 14.843 8.93019 14.8121C8.12665 14.7811 7.32828 14.9534 6.609 15.313L6 15.618V21C6 21.2652 5.89464 21.5195 5.70711 21.7071C5.51957 21.8946 5.26522 22 5 22C4.73478 22 4.48043 21.8946 4.29289 21.7071C4.10536 21.5195 4 21.2652 4 21V15V6.99997Z" fill="currentColor"/>
</svg>
