<svg width="24" height="24" viewBox="0 0 24 24" fill="none" xmlns="http://www.w3.org/2000/svg">
<path fill-rule="evenodd" clip-rule="evenodd" d="M7.747 5.59197C8.85023 4.33301 10.0808 3.1916 11.419 2.18597C11.5886 2.06494 11.7917 1.99988 12 1.99988C12.2083 1.99988 12.4114 2.06494 12.581 2.18597C13.9152 3.19635 15.1453 4.33734 16.253 5.59197C18.584 8.25597 20 11.088 20 14C20 16.1217 19.1571 18.1565 17.6569 19.6568C16.1566 21.1571 14.1217 22 12 22C9.87827 22 7.84344 21.1571 6.34315 19.6568C4.84285 18.1565 4 16.1217 4 14C4 11.088 5.415 8.25697 7.747 5.59197ZM12.443 4.63397C12.2973 4.50868 12.1496 4.38566 12 4.26497L11.557 4.63497C10.736 5.33728 9.966 6.0972 9.253 6.90897C7.21 9.24297 6 11.663 6 14C6 15.429 6.5 16.74 7.333 17.77C7.31777 17.6158 7.31009 17.4609 7.31 17.306C7.31 15.633 8.106 14.041 9.405 12.556C10.005 11.871 10.685 11.225 11.423 10.686C11.5927 10.5647 11.796 10.4995 12.0045 10.4995C12.213 10.4995 12.4163 10.5647 12.586 10.686C13.326 11.216 14.006 11.873 14.604 12.556C15.904 14.041 16.699 15.633 16.699 17.306C16.699 17.458 16.692 17.609 16.677 17.758C17.5349 16.6936 18.0019 15.3671 18 14C18 11.662 16.79 9.24297 14.747 6.90897C14.034 6.09685 13.2641 5.33659 12.443 4.63397ZM12.004 12.786C11.619 13.128 11.249 13.486 10.91 13.874C9.9 15.028 9.31 16.208 9.31 17.306C9.31 18.0206 9.59388 18.706 10.0992 19.2113C10.6045 19.7166 11.2899 20.0005 12.0045 20.0005C12.7191 20.0005 13.4045 19.7166 13.9098 19.2113C14.4151 18.706 14.699 18.0206 14.699 17.306C14.699 16.208 14.109 15.028 13.099 13.874C12.909 13.656 11.966 12.753 12.004 12.786Z" fill="currentColor"/>
</svg>
