<svg width="24" height="24" viewBox="0 0 24 24" fill="none" xmlns="http://www.w3.org/2000/svg">
<path d="M18.9 2C19.1917 2 19.4715 2.11589 19.6778 2.32218C19.8841 2.52847 20 2.80826 20 3.1V5C20.0003 6.3249 19.6245 7.62267 18.9165 8.74249C18.2084 9.86231 17.1971 10.7582 16 11.326V20C16 20.5304 15.7893 21.0391 15.4142 21.4142C15.0391 21.7893 14.5304 22 14 22H10C9.46957 22 8.96086 21.7893 8.58579 21.4142C8.21071 21.0391 8 20.5304 8 20V11.326C6.80294 10.7582 5.79161 9.86231 5.08353 8.74249C4.37546 7.62267 3.99973 6.3249 4 5V3.1C4 2.80826 4.11589 2.52847 4.32218 2.32218C4.52847 2.11589 4.80826 2 5.1 2H18.9ZM17.584 7H6.416C6.68688 7.61897 7.08003 8.17683 7.57183 8.64011C8.06364 9.10339 8.64397 9.46254 9.278 9.696C9.48969 9.77346 9.67247 9.91409 9.80161 10.0988C9.93074 10.2836 10 10.5036 10 10.729V20H14V10.73C14 10.26 14.296 9.852 14.722 9.696C15.356 9.46254 15.9364 9.10339 16.4282 8.64011C16.92 8.17683 17.3131 7.61897 17.584 7ZM12 11C12.2652 11 12.5196 11.1054 12.7071 11.2929C12.8946 11.4804 13 11.7348 13 12V14C13 14.2652 12.8946 14.5196 12.7071 14.7071C12.5196 14.8946 12.2652 15 12 15C11.7348 15 11.4804 14.8946 11.2929 14.7071C11.1054 14.5196 11 14.2652 11 14V12C11 11.7348 11.1054 11.4804 11.2929 11.2929C11.4804 11.1054 11.7348 11 12 11ZM18 4H6V5H18V4Z" fill="currentColor"/>
</svg>
