<svg width="24" height="24" viewBox="0 0 24 24" fill="none" xmlns="http://www.w3.org/2000/svg">
<path fill-rule="evenodd" clip-rule="evenodd" d="M4.13907 3C3.96472 2.99992 3.79285 3.04129 3.63762 3.12069C3.4824 3.20009 3.34828 3.31525 3.24631 3.45668C3.14434 3.59811 3.07745 3.76175 3.05116 3.9341C3.02486 4.10646 3.03991 4.2826 3.09507 4.448L4.00007 7.162V18C4.00007 18.7956 4.31614 19.5587 4.87875 20.1213C5.44136 20.6839 6.20442 21 7.00007 21H17.0001C17.7957 21 18.5588 20.6839 19.1214 20.1213C19.684 19.5587 20.0001 18.7956 20.0001 18V4.5C20.0001 4.10218 19.842 3.72064 19.5607 3.43934C19.2794 3.15804 18.8979 3 18.5001 3H4.13907ZM5.99907 16H9.99907C10.2643 16 10.5186 15.8946 10.7062 15.7071C10.8937 15.5196 10.9991 15.2652 10.9991 15C10.9991 14.7348 10.8937 14.4804 10.7062 14.2929C10.5186 14.1054 10.2643 14 9.99907 14H6.00007V13H10.0001C10.2653 13 10.5196 12.8946 10.7072 12.7071C10.8947 12.5196 11.0001 12.2652 11.0001 12C11.0001 11.7348 10.8947 11.4804 10.7072 11.2929C10.5196 11.1054 10.2653 11 10.0001 11H6.00007V10H10.0001C10.2653 10 10.5196 9.89464 10.7072 9.70711C10.8947 9.51957 11.0001 9.26522 11.0001 9C11.0001 8.73478 10.8947 8.48043 10.7072 8.29289C10.5196 8.10536 10.2653 8 10.0001 8H6.00007V7.162C6.00023 6.94722 5.96579 6.73382 5.89807 6.53L5.38707 5H18.0001V18C18.0001 18.2652 17.8947 18.5196 17.7072 18.7071C17.5196 18.8946 17.2653 19 17.0001 19H7.00007C6.73486 19 6.4805 18.8946 6.29297 18.7071C6.10543 18.5196 6.00007 18.2652 6.00007 18L5.99907 16Z" fill="currentColor"/>
</svg>
