<svg width="24" height="24" viewBox="0 0 24 24" fill="none" xmlns="http://www.w3.org/2000/svg">
<path fill-rule="evenodd" clip-rule="evenodd" d="M7.99999 3C7.99999 2.73478 8.10535 2.48043 8.29289 2.29289C8.48042 2.10536 8.73478 2 8.99999 2H15C15.2652 2 15.5196 2.10536 15.7071 2.29289C15.8946 2.48043 16 2.73478 16 3C16 3.26522 15.8946 3.51957 15.7071 3.70711C15.5196 3.89464 15.2652 4 15 4V8.633C15 8.635 15.003 8.641 15.01 8.65C15.023 8.67 15.051 8.698 15.094 8.72C16.5117 9.41844 17.6514 10.5761 18.3275 12.0046C19.0037 13.433 19.1765 15.0483 18.818 16.5875C18.4594 18.1267 17.5905 19.4993 16.3527 20.4819C15.1148 21.4645 13.5809 21.9994 12.0005 21.9994C10.4201 21.9994 8.88615 21.4645 7.64832 20.4819C6.41049 19.4993 5.54161 18.1267 5.18304 16.5875C4.82447 15.0483 4.99732 13.433 5.67347 12.0046C6.34962 10.5761 7.48927 9.41844 8.90699 8.72C8.94037 8.704 8.96924 8.67994 8.99099 8.65C8.9948 8.6448 8.99783 8.63907 8.99999 8.633V4C8.73478 4 8.48042 3.89464 8.29289 3.70711C8.10535 3.51957 7.99999 3.26522 7.99999 3ZM11 4V8.634C11 9.503 10.45 10.187 9.791 10.513C8.73122 11.0365 7.89017 11.9172 7.41599 13H16.584C16.1099 11.9172 15.2688 11.0365 14.209 10.513C13.549 10.187 13 9.503 13 8.634V4H11ZM17 15H6.99999C6.99999 16.3261 7.52678 17.5979 8.46446 18.5355C9.40214 19.4732 10.6739 20 12 20C13.3261 20 14.5978 19.4732 15.5355 18.5355C16.4732 17.5979 17 16.3261 17 15Z" fill="currentColor"/>
</svg>
