<svg width="24" height="24" viewBox="0 0 24 24" fill="none" xmlns="http://www.w3.org/2000/svg">
<path fill-rule="evenodd" clip-rule="evenodd" d="M21.0002 20C21.2551 20.0003 21.5003 20.0979 21.6856 20.2728C21.8709 20.4478 21.9825 20.687 21.9974 20.9414C22.0123 21.1958 21.9295 21.4464 21.766 21.6418C21.6024 21.8373 21.3703 21.9629 21.1172 21.993L21.0002 22H3.00022C2.74534 21.9997 2.50019 21.9021 2.31485 21.7272C2.12951 21.5522 2.01798 21.313 2.00305 21.0586C1.98811 20.8042 2.07089 20.5536 2.23448 20.3582C2.39807 20.1627 2.63012 20.0371 2.88322 20.007L3.00022 20H21.0002ZM7.26222 3.772C7.42983 3.72714 7.60495 3.71766 7.77643 3.74417C7.9479 3.77068 8.11198 3.83261 8.25822 3.926L8.38022 4.015L14.5642 9.106L18.3962 8.414C19.0651 8.29321 19.7537 8.3466 20.396 8.56902C21.0382 8.79145 21.6124 9.17542 22.0632 9.684C22.5202 10.199 22.7142 10.881 22.4882 11.549C22.3167 12.0561 22.0304 12.5166 21.6516 12.8948C21.2727 13.273 20.8116 13.5584 20.3042 13.729L20.0972 13.792L5.02022 17.832C4.82981 17.883 4.6292 17.8818 4.43938 17.8287C4.24957 17.7755 4.07751 17.6724 3.94122 17.53L3.85522 17.428L0.678218 13.182C0.585481 13.0582 0.522416 12.9148 0.493888 12.7627C0.465361 12.6107 0.472132 12.4542 0.513681 12.3052C0.55523 12.1562 0.630445 12.0187 0.733527 11.9034C0.836608 11.7881 0.964801 11.6979 1.10822 11.64L1.22622 11.601L3.49622 10.993C3.67242 10.9458 3.85683 10.9377 4.03649 10.9693C4.21616 11.0009 4.38672 11.0715 4.53622 11.176L4.64622 11.261L5.44222 11.961L7.83722 11.025L3.97022 6.112C3.87303 5.98852 3.80599 5.84406 3.77444 5.69012C3.74289 5.53617 3.7477 5.37699 3.78848 5.22523C3.82926 5.07348 3.90489 4.93333 4.00935 4.81593C4.11381 4.69854 4.24423 4.60714 4.39022 4.549L4.50322 4.512L7.26222 3.772ZM7.40622 5.804L6.47122 6.054L10.2342 10.838C10.6272 11.337 10.4642 12.058 9.92122 12.35L9.80822 12.403L5.60822 14.043C5.45555 14.1027 5.29064 14.1243 5.12775 14.106C4.96485 14.0877 4.80885 14.0301 4.67322 13.938L4.57422 13.861L3.62722 13.028L3.15622 13.155L5.09122 15.742L19.5802 11.86C20.0242 11.741 20.3852 11.423 20.5602 11.002C20.356 10.7743 20.1013 10.5975 19.8165 10.4859C19.5318 10.3742 19.2248 10.3308 18.9202 10.359L18.7532 10.382L14.4692 11.156C14.2205 11.2009 13.9639 11.151 13.7502 11.016L13.6482 10.941L7.40822 5.804H7.40622Z" fill="currentColor"/>
</svg>
