<svg width="24" height="24" viewBox="0 0 24 24" fill="none" xmlns="http://www.w3.org/2000/svg">
<path fill-rule="evenodd" clip-rule="evenodd" d="M22.5671 14.453C22.7453 14.1853 22.8496 13.8752 22.8695 13.5542C22.8893 13.2332 22.824 12.9126 22.6801 12.625L22.6381 12.541C22.3343 11.9331 21.8791 11.4136 21.3164 11.0325C20.7537 10.6514 20.1023 10.4215 19.4251 10.365L15.5451 10.042L10.8881 3.523C10.7724 3.3612 10.6198 3.22934 10.4429 3.13838C10.266 3.04741 10.07 2.99998 9.87108 3H7.01508C6.84795 3.00005 6.68345 3.04156 6.53632 3.12083C6.38918 3.2001 6.26402 3.31464 6.17205 3.45418C6.08008 3.59373 6.02417 3.75391 6.00934 3.92038C5.99451 4.08685 6.02122 4.2544 6.08708 4.408L8.55008 10.155L5.99408 10.439L5.40608 9.557C5.29198 9.38572 5.13735 9.24525 4.95593 9.14809C4.7745 9.05092 4.57189 9.00005 4.36608 9H2.01508C1.85002 8.99997 1.68747 9.04039 1.54164 9.11773C1.39582 9.19507 1.27118 9.30697 1.17862 9.44364C1.08606 9.5803 1.02841 9.73757 1.01071 9.90168C0.993006 10.0658 1.01579 10.2317 1.07708 10.385L3.04708 15.309C3.12872 15.5128 3.26948 15.6876 3.45126 15.8107C3.63304 15.9338 3.84752 15.9998 4.06708 16H19.6761C20.8371 16 21.9231 15.42 22.5671 14.453ZM19.2591 12.358C19.5924 12.3858 19.913 12.4985 20.1904 12.6853C20.4678 12.872 20.6929 13.1267 20.8441 13.425C20.7064 13.6039 20.5295 13.7487 20.327 13.8484C20.1245 13.9481 19.9018 14 19.6761 14H4.67608L3.47608 11H3.96508L4.66508 12.05C4.87408 12.364 5.24108 12.535 5.61608 12.493L10.0961 11.995C10.2528 11.9777 10.4033 11.924 10.5356 11.8381C10.6678 11.7522 10.7781 11.6365 10.8576 11.5003C10.9371 11.3642 10.9837 11.2113 10.9935 11.0539C11.0033 10.8965 10.9761 10.739 10.9141 10.594L8.51608 5H9.48608L14.1841 11.578C14.3561 11.818 14.6261 11.972 14.9221 11.997L19.2591 12.358ZM3.00008 20C2.73486 20 2.48051 20.1054 2.29297 20.2929C2.10544 20.4804 2.00008 20.7348 2.00008 21C2.00008 21.2652 2.10544 21.5196 2.29297 21.7071C2.48051 21.8946 2.73486 22 3.00008 22H21.0001C21.2653 22 21.5197 21.8946 21.7072 21.7071C21.8947 21.5196 22.0001 21.2652 22.0001 21C22.0001 20.7348 21.8947 20.4804 21.7072 20.2929C21.5197 20.1054 21.2653 20 21.0001 20H3.00008Z" fill="currentColor"/>
</svg>
