<svg width="24" height="24" viewBox="0 0 24 24" fill="none" xmlns="http://www.w3.org/2000/svg">
<path fill-rule="evenodd" clip-rule="evenodd" d="M7.047 2.026C6.91205 2.023 6.77789 2.04736 6.65261 2.09759C6.52732 2.14783 6.41351 2.2229 6.31801 2.3183C6.22252 2.4137 6.14733 2.52745 6.09697 2.65268C6.04661 2.77792 6.02213 2.91205 6.025 3.047C6.041 3.753 6.212 4.747 6.692 5.764C6.959 6.33 7.302 6.838 7.732 7.268C8.012 7.548 8.325 7.791 8.665 8H6C5.46957 8 4.96086 8.21072 4.58579 8.58579C4.21071 8.96086 4 9.46957 4 10V12C4.00001 12.3538 4.09387 12.7013 4.27201 13.0069C4.45015 13.3126 4.70618 13.5656 5.014 13.74C5.153 17.405 6.289 19.958 6.851 21.01C7.201 21.666 7.874 22 8.535 22H15.465C16.125 22 16.799 21.666 17.149 21.01C17.711 19.958 18.847 17.405 18.986 13.74C19.2938 13.5656 19.5499 13.3126 19.728 13.0069C19.9061 12.7013 20 12.3538 20 12V10C20 9.46957 19.7893 8.96086 19.4142 8.58579C19.0391 8.21072 18.5304 8 18 8H16.102C16.319 7.773 16.508 7.523 16.665 7.25C16.877 6.883 17.025 6.485 17.115 6.061C17.288 5.263 17.252 4.443 17.094 3.66L16.95 3.09C16.8731 2.85638 16.7128 2.6593 16.4997 2.53643C16.2866 2.41357 16.0357 2.37354 15.795 2.424C15.1233 2.57544 14.4817 2.83841 13.897 3.202C13.241 3.605 12.702 4.114 12.335 4.75C12.285 4.836 12.24 4.923 12.197 5.012C11.9539 4.54052 11.6403 4.10889 11.267 3.732C10.8298 3.30115 10.3213 2.94928 9.764 2.692C8.91325 2.28698 7.98862 2.06033 7.047 2.026ZM8.25 4.25C8.476 4.32 8.697 4.4 8.91 4.5C9.278 4.674 9.596 4.889 9.854 5.147C10.111 5.404 10.326 5.722 10.5 6.09C10.594 6.307 10.68 6.523 10.749 6.75C10.5232 6.68301 10.3026 6.59945 10.089 6.5C9.73981 6.34058 9.42079 6.12203 9.146 5.854C8.87788 5.57892 8.65932 5.25955 8.5 4.91C8.4015 4.69605 8.31796 4.47552 8.25 4.25ZM15.222 4.75L15.228 4.98C15.228 5.208 15.206 5.43 15.161 5.64C15.1173 5.85398 15.0403 6.0598 14.933 6.25C14.748 6.57 14.448 6.854 14.056 7.095L13.777 7.249L13.772 7.021C13.772 6.793 13.794 6.571 13.84 6.36C13.889 6.133 13.964 5.929 14.067 5.75C14.252 5.43 14.552 5.147 14.944 4.905L15.222 4.75ZM7.028 14H16.972C16.798 17.023 15.879 19.125 15.421 20H8.579C8.121 19.125 7.201 17.023 7.028 14ZM18 12H6V10H18V12Z" fill="currentColor"/>
</svg>
