<svg width="24" height="24" viewBox="0 0 24 24" fill="none" xmlns="http://www.w3.org/2000/svg">
<path fill-rule="evenodd" clip-rule="evenodd" d="M15.31 3C16.3558 2.99985 17.3814 3.28793 18.2742 3.83261C19.167 4.37728 19.8924 5.15748 20.3708 6.0875C20.8491 7.01751 21.0619 8.06138 20.9857 9.10442C20.9095 10.1475 20.5474 11.1493 19.939 12C20.7239 13.096 21.0942 14.4352 20.9838 15.7787C20.8734 17.1223 20.2896 18.3831 19.3363 19.3363C18.3831 20.2896 17.1223 20.8734 15.7787 20.9838C14.4352 21.0942 13.096 20.7239 12 19.939C10.9039 20.7239 9.56481 21.0942 8.22123 20.9838C6.87765 20.8734 5.6169 20.2896 4.66364 19.3363C3.71039 18.3831 3.12655 17.1223 3.01618 15.7787C2.90581 14.4352 3.27607 13.096 4.06098 12C3.27607 10.904 2.90581 9.56483 3.01618 8.22125C3.12655 6.87766 3.71039 5.61691 4.66364 4.66366C5.6169 3.7104 6.87765 3.12657 8.22123 3.0162C9.56481 2.90582 10.9039 3.27608 12 4.061C12.965 3.3694 14.1228 2.99828 15.31 3ZM18.478 13.417C17.5414 14.0463 16.4383 14.3816 15.31 14.38H15.216C14.8123 14.9265 14.2759 15.3609 13.6575 15.6423C13.0391 15.9237 12.3592 16.0427 11.682 15.988C11.8183 16.7225 12.1756 17.3979 12.706 17.924C13.3431 18.559 14.1902 18.9393 15.0881 18.9936C15.986 19.0479 16.8727 18.7723 17.5817 18.2187C18.2907 17.6651 18.773 16.8716 18.9381 15.9874C19.1031 15.1031 18.9395 14.1891 18.478 13.417ZM8.01198 11.682C7.27747 11.8183 6.60205 12.1756 6.07598 12.706C5.44103 13.3431 5.06066 14.1903 5.0064 15.0881C4.95213 15.986 5.22769 16.8728 5.78128 17.5817C6.33488 18.2907 7.12837 18.773 8.01261 18.9381C8.89684 19.1031 9.81091 18.9395 10.583 18.478C9.95376 17.5414 9.61844 16.4383 9.61998 15.31V15.216C9.0735 14.8123 8.63903 14.2759 8.35766 13.6575C8.07628 13.0391 7.95731 12.3592 8.01198 11.682ZM12 10C11.4695 10 10.9608 10.2107 10.5858 10.5858C10.2107 10.9609 9.99998 11.4696 9.99998 12C9.99998 12.5304 10.2107 13.0391 10.5858 13.4142C10.9608 13.7893 11.4695 14 12 14C12.5304 14 13.0391 13.7893 13.4142 13.4142C13.7893 13.0391 14 12.5304 14 12C14 11.4696 13.7893 10.9609 13.4142 10.5858C13.0391 10.2107 12.5304 10 12 10ZM15.31 5C14.618 5 13.97 5.19 13.417 5.522C14.025 6.427 14.38 7.518 14.38 8.69V8.784C14.9265 9.18766 15.3609 9.72406 15.6423 10.3425C15.9237 10.9609 16.0427 11.6408 15.988 12.318C16.7223 12.1812 17.3976 11.824 17.924 11.294C18.4385 10.7774 18.7885 10.1199 18.9297 9.40456C19.0709 8.68921 18.997 7.94807 18.7173 7.27469C18.4377 6.60131 17.9648 6.02587 17.3583 5.62103C16.7519 5.21619 16.0391 5.00008 15.31 5ZM8.68998 5C8.03748 4.9999 7.39663 5.17282 6.83274 5.50113C6.26886 5.82945 5.80212 6.30141 5.4801 6.86891C5.15808 7.43641 4.99229 8.07915 4.99965 8.73161C5.00701 9.38406 5.18724 10.0229 5.52198 10.583C6.45857 9.95377 7.56166 9.61846 8.68998 9.62H8.78398C9.18765 9.07352 9.72405 8.63905 10.3424 8.35767C10.9608 8.0763 11.6408 7.95732 12.318 8.012C12.1812 7.27765 11.824 6.60237 11.294 6.076C10.9521 5.73417 10.546 5.46317 10.0992 5.27853C9.65235 5.09389 9.17347 4.99924 8.68998 5Z" fill="currentColor"/>
</svg>
