<svg width="24" height="24" viewBox="0 0 24 24" fill="none" xmlns="http://www.w3.org/2000/svg">
<path fill-rule="evenodd" clip-rule="evenodd" d="M10.5855 2.5C10.9394 2.14606 11.4132 1.93768 11.9133 1.91601C12.4133 1.89435 12.9033 2.06098 13.2865 2.383L13.4135 2.5L15.0405 4.126L15.2145 3.884L15.5295 3.431L15.7345 3.123L15.9405 2.794C16.2485 2.314 16.6175 1.857 17.2665 2.036C17.4574 2.08882 17.6283 2.19714 17.7576 2.34722C17.8868 2.4973 17.9686 2.68239 17.9925 2.879L17.9995 3V9C17.9995 10.377 17.526 11.7121 16.6584 12.7814C15.7908 13.8507 14.582 14.5892 13.2345 14.873L12.9995 14.917V18.917C13.9514 18.7557 14.8503 18.3673 15.6202 17.7849C16.3901 17.2025 17.0084 16.4431 17.4225 15.571C17.4789 15.4524 17.558 15.346 17.6555 15.2579C17.7529 15.1698 17.8668 15.1018 17.9905 15.0578C18.1142 15.0137 18.2454 14.9945 18.3766 15.0011C18.5078 15.0078 18.6364 15.0402 18.755 15.0965C18.8737 15.1528 18.9801 15.232 19.0681 15.3294C19.1562 15.4269 19.2242 15.5407 19.2682 15.6645C19.3123 15.7882 19.3316 15.9194 19.3249 16.0506C19.3183 16.1818 19.2859 16.3104 19.2295 16.429C18.6532 17.6434 17.7804 18.6932 16.6917 19.4816C15.6029 20.2699 14.3332 20.7715 12.9995 20.94C12.9995 21.506 12.5925 22.001 11.9995 22.001C11.4065 22.001 10.9995 21.506 10.9995 20.939C9.66611 20.7707 8.39651 20.2694 7.30775 19.4814C6.21899 18.6934 5.3461 17.644 4.76953 16.43C4.65575 16.1904 4.64182 15.9154 4.73081 15.6655C4.81979 15.4156 5.00441 15.2113 5.24403 15.0975C5.48365 14.9837 5.75866 14.9698 6.00855 15.0588C6.25844 15.1478 6.46275 15.3324 6.57653 15.572C6.97209 16.4047 7.55393 17.1353 8.27702 17.7072C9.00011 18.2791 9.84507 18.6769 10.7465 18.87L10.9995 18.918V14.918C9.64327 14.6884 8.40704 13.9999 7.49776 12.9677C6.58847 11.9356 6.06132 10.6224 6.00453 9.248L5.99953 9V3C5.99946 2.78127 6.07112 2.56855 6.20351 2.39443C6.3359 2.22031 6.52173 2.09441 6.73253 2.036C7.32953 1.871 7.69153 2.248 7.98653 2.685L8.33153 3.227L8.46953 3.431L8.78453 3.884L8.95853 4.126L10.5855 2.5ZM15.9995 6.163C15.4875 6.8 14.8885 7.467 14.2645 7.987C13.6695 8.483 12.8715 9 11.9995 9C11.1275 9 10.3295 8.483 9.73453 7.987C9.21453 7.554 8.71253 7.019 8.26253 6.484L7.99953 6.164V9C7.99951 10.0436 8.40732 11.0458 9.13593 11.7929C9.86454 12.54 10.8563 12.9727 11.8995 12.9988C12.9427 13.0249 13.9548 12.6423 14.7199 11.9326C15.485 11.2229 15.9424 10.2423 15.9945 9.2L15.9995 9V6.163ZM11.9995 3.914L10.2255 5.688L10.6105 6.108C11.0105 6.532 11.5215 7 11.9995 7C12.4775 7 12.9895 6.532 13.3895 6.108L13.7735 5.688L11.9995 3.914Z" fill="currentColor"/>
</svg>
