<svg width="24" height="24" viewBox="0 0 24 24" fill="none" xmlns="http://www.w3.org/2000/svg">
<path fill-rule="evenodd" clip-rule="evenodd" d="M11.4993 2C9.78983 1.99986 8.14913 2.67313 6.93253 3.87401C5.71593 5.07489 5.02137 6.70669 4.99928 8.416C4.20502 8.76309 3.51455 9.31054 2.99549 10.0047C2.47643 10.6989 2.14659 11.516 2.03828 12.376C2.01862 12.5079 2.02552 12.6423 2.05858 12.7715C2.09164 12.9006 2.15019 13.0218 2.23078 13.128C2.31138 13.2342 2.41239 13.3232 2.52789 13.3898C2.64338 13.4564 2.77103 13.4992 2.90331 13.5158C3.03559 13.5323 3.16985 13.5222 3.29818 13.4861C3.42651 13.45 3.54633 13.3886 3.65058 13.3055C3.75484 13.2224 3.84143 13.1193 3.90526 13.0023C3.96909 12.8853 4.00888 12.7566 4.02228 12.624C4.09855 12.0246 4.35378 11.4622 4.75463 11.0102C5.15549 10.5581 5.68335 10.2374 6.26928 10.09C6.50581 10.0304 6.71277 9.88713 6.85192 9.68678C6.99107 9.48642 7.053 9.24247 7.02628 9C6.89674 7.87144 7.19882 6.73565 7.87189 5.82056C8.54496 4.90547 9.53922 4.27879 10.6551 4.06629C11.771 3.85379 12.926 4.07119 13.8883 4.67487C14.8506 5.27854 15.549 6.22382 15.8433 7.321C15.9473 7.703 16.2653 7.989 16.6543 8.053C17.6572 8.21965 18.5591 8.76185 19.1766 9.56945C19.7942 10.377 20.0812 11.3895 19.9793 12.401C19.9644 12.5326 19.9759 12.6658 20.0129 12.793C20.05 12.9201 20.1119 13.0386 20.1952 13.1416C20.2784 13.2446 20.3813 13.3301 20.4978 13.393C20.6143 13.4559 20.7422 13.4951 20.874 13.5082C21.0057 13.5213 21.1388 13.5081 21.2655 13.4694C21.3921 13.4307 21.5098 13.3672 21.6117 13.2826C21.7136 13.198 21.7977 13.094 21.8591 12.9767C21.9204 12.8593 21.9579 12.7309 21.9693 12.599C22.1107 11.1879 21.748 9.77237 20.9453 8.60325C20.1426 7.43413 18.9519 6.58699 17.5843 6.212C17.1186 4.97449 16.2867 3.90837 15.1995 3.15582C14.1123 2.40328 12.8215 2.00008 11.4993 2ZM2.99928 16C2.99928 15.7348 3.10464 15.4804 3.29217 15.2929C3.47971 15.1054 3.73406 15 3.99928 15H19.9993C20.2645 15 20.5189 15.1054 20.7064 15.2929C20.8939 15.4804 20.9993 15.7348 20.9993 16C20.9993 16.2652 20.8939 16.5196 20.7064 16.7071C20.5189 16.8946 20.2645 17 19.9993 17H3.99928C3.73406 17 3.47971 16.8946 3.29217 16.7071C3.10464 16.5196 2.99928 16.2652 2.99928 16ZM6.99928 20C6.99928 19.7348 7.10464 19.4804 7.29217 19.2929C7.47971 19.1054 7.73406 19 7.99928 19H16.9993C17.2645 19 17.5189 19.1054 17.7064 19.2929C17.8939 19.4804 17.9993 19.7348 17.9993 20C17.9993 20.2652 17.8939 20.5196 17.7064 20.7071C17.5189 20.8946 17.2645 21 16.9993 21H7.99928C7.73406 21 7.47971 20.8946 7.29217 20.7071C7.10464 20.5196 6.99928 20.2652 6.99928 20Z" fill="currentColor"/>
</svg>
