<svg width="24" height="24" viewBox="0 0 24 24" fill="none" xmlns="http://www.w3.org/2000/svg">
<path fill-rule="evenodd" clip-rule="evenodd" d="M2 5C2 4.46957 2.21071 3.96086 2.58579 3.58579C2.96086 3.21071 3.46957 3 4 3H9.52C9.81977 3.00004 10.1157 3.06746 10.3859 3.19728C10.6561 3.3271 10.8936 3.51599 11.081 3.75L12.481 5.5H20C20.5304 5.5 21.0391 5.71071 21.4142 6.08579C21.7893 6.46086 22 6.96957 22 7.5V19C22 19.5304 21.7893 20.0391 21.4142 20.4142C21.0391 20.7893 20.5304 21 20 21H4C3.46957 21 2.96086 20.7893 2.58579 20.4142C2.21071 20.0391 2 19.5304 2 19V5ZM9.52 5H4V19H20V7.5H12.48C12.1802 7.49996 11.8843 7.43254 11.6141 7.30272C11.3439 7.1729 11.1064 6.98401 10.919 6.75L9.52 5Z" fill="currentColor"/>
</svg>
