<svg width="24" height="24" viewBox="0 0 24 24" fill="none" xmlns="http://www.w3.org/2000/svg">
<path d="M9.52 3C9.78932 2.99998 10.0559 3.05436 10.3036 3.15987C10.5514 3.26537 10.7754 3.41984 10.962 3.614L11.082 3.751L12.48 5.5H20C20.5046 5.49984 20.9906 5.69041 21.3605 6.0335C21.7305 6.37659 21.9572 6.84684 21.995 7.35L22 7.5V19C22.0002 19.5046 21.8096 19.9906 21.4665 20.3605C21.1234 20.7305 20.6532 20.9572 20.15 20.995L20 21H4C3.49542 21.0002 3.00943 20.8096 2.63945 20.4665C2.26947 20.1234 2.04284 19.6532 2.005 19.15L2 19V5C1.99984 4.49542 2.19041 4.00943 2.5335 3.63945C2.87659 3.26947 3.34684 3.04284 3.85 3.005L4 3H9.52ZM9.52 5H4V19H20V7.5H12.48C12.2107 7.50002 11.9441 7.44564 11.6964 7.34013C11.4486 7.23463 11.2246 7.08016 11.038 6.886L10.918 6.749L9.52 5ZM10.586 10.172L12 11.586L13.414 10.172C13.5068 10.0791 13.6171 10.0054 13.7384 9.95507C13.8597 9.90476 13.9898 9.87884 14.1211 9.8788C14.2525 9.87875 14.3826 9.90458 14.5039 9.9548C14.6253 10.005 14.7356 10.0787 14.8285 10.1715C14.9214 10.2643 14.9951 10.3746 15.0454 10.4959C15.0957 10.6172 15.1217 10.7473 15.1217 10.8786C15.1217 11.01 15.0959 11.1401 15.0457 11.2614C14.9955 11.3828 14.9218 11.4931 14.829 11.586L13.414 13L14.829 14.414C14.9218 14.5069 14.9955 14.6172 15.0457 14.7386C15.0959 14.8599 15.1217 14.99 15.1217 15.1214C15.1217 15.2527 15.0957 15.3828 15.0454 15.5041C14.9951 15.6254 14.9214 15.7357 14.8285 15.8285C14.7356 15.9213 14.6253 15.995 14.5039 16.0452C14.3826 16.0954 14.2525 16.1212 14.1211 16.1212C13.9898 16.1212 13.8597 16.0952 13.7384 16.0449C13.6171 15.9946 13.5068 15.9209 13.414 15.828L12 14.414L10.586 15.828C10.4938 15.9235 10.3834 15.9997 10.2614 16.0521C10.1394 16.1045 10.0082 16.1321 9.8754 16.1333C9.74262 16.1344 9.61094 16.1091 9.48805 16.0588C9.36515 16.0085 9.2535 15.9343 9.15961 15.8404C9.06571 15.7465 8.99146 15.6349 8.94118 15.512C8.8909 15.3891 8.8656 15.2574 8.86675 15.1246C8.8679 14.9918 8.89549 14.8606 8.9479 14.7386C9.00031 14.6166 9.07649 14.5062 9.172 14.414L10.586 13L9.172 11.586C9.07649 11.4938 9.00031 11.3834 8.9479 11.2614C8.89549 11.1394 8.8679 11.0082 8.86675 10.8754C8.8656 10.7426 8.8909 10.6109 8.94118 10.488C8.99146 10.3651 9.06571 10.2535 9.15961 10.1596C9.2535 10.0657 9.36515 9.99146 9.48805 9.94118C9.61094 9.8909 9.74262 9.8656 9.8754 9.86675C10.0082 9.8679 10.1394 9.89549 10.2614 9.9479C10.3834 10.0003 10.4938 10.0765 10.586 10.172Z" fill="currentColor"/>
</svg>
