<svg width="24" height="24" viewBox="0 0 24 24" fill="none" xmlns="http://www.w3.org/2000/svg">
<path d="M18.5 13C19.163 13 19.7989 13.2634 20.2678 13.7322C20.7366 14.2011 21 14.837 21 15.5V16C21.2652 16 21.5196 16.1054 21.7071 16.2929C21.8946 16.4804 22 16.7348 22 17V21C22 21.2652 21.8946 21.5196 21.7071 21.7071C21.5196 21.8946 21.2652 22 21 22H16C15.7348 22 15.4804 21.8946 15.2929 21.7071C15.1054 21.5196 15 21.2652 15 21V17C15 16.7348 15.1054 16.4804 15.2929 16.2929C15.4804 16.1054 15.7348 16 16 16V15.5C16 14.837 16.2634 14.2011 16.7322 13.7322C17.2011 13.2634 17.837 13 18.5 13ZM9.52 3C9.81977 3.00004 10.1157 3.06746 10.3859 3.19728C10.6561 3.3271 10.8936 3.51599 11.081 3.75L12.481 5.5H20C20.5304 5.5 21.0391 5.71071 21.4142 6.08579C21.7893 6.46086 22 6.96957 22 7.5V12H20V7.5H12.48C12.1802 7.49996 11.8843 7.43254 11.6141 7.30272C11.3439 7.1729 11.1064 6.98401 10.919 6.75L9.519 5H4V19H13V21H4C3.46957 21 2.96086 20.7893 2.58579 20.4142C2.21071 20.0391 2 19.5304 2 19V5C2 4.46957 2.21071 3.96086 2.58579 3.58579C2.96086 3.21071 3.46957 3 4 3H9.52ZM20 18H17V20H20V18ZM18.5 15C18.3674 15 18.2402 15.0527 18.1464 15.1464C18.0527 15.2402 18 15.3674 18 15.5V16H19V15.5C19 15.3674 18.9473 15.2402 18.8536 15.1464C18.7598 15.0527 18.6326 15 18.5 15Z" fill="currentColor"/>
</svg>
