<svg width="24" height="24" viewBox="0 0 24 24" fill="none" xmlns="http://www.w3.org/2000/svg">
<path d="M17.5 13C18.0909 13 18.6761 13.1164 19.2221 13.3425C19.768 13.5687 20.2641 13.9002 20.682 14.318C21.0998 14.7359 21.4313 15.232 21.6575 15.7779C21.8836 16.3239 22 16.9091 22 17.5C22 18.0909 21.8836 18.6761 21.6575 19.2221C21.4313 19.768 21.0998 20.2641 20.682 20.682C20.2641 21.0998 19.768 21.4313 19.2221 21.6575C18.6761 21.8836 18.0909 22 17.5 22C16.3065 22 15.1619 21.5259 14.318 20.682C13.4741 19.8381 13 18.6935 13 17.5C13 16.3065 13.4741 15.1619 14.318 14.318C15.1619 13.4741 16.3065 13 17.5 13ZM9.52 3C9.81977 3.00004 10.1157 3.06746 10.3859 3.19728C10.6561 3.3271 10.8936 3.51599 11.081 3.75L12.481 5.5H20C20.5304 5.5 21.0391 5.71071 21.4142 6.08579C21.7893 6.46086 22 6.96957 22 7.5V12H20V7.5H12.48C12.1802 7.49996 11.8843 7.43254 11.6141 7.30272C11.3439 7.1729 11.1064 6.98401 10.919 6.75L9.519 5H4V19H11V21H4C3.46957 21 2.96086 20.7893 2.58579 20.4142C2.21071 20.0391 2 19.5304 2 19V5C2 4.46957 2.21071 3.96086 2.58579 3.58579C2.96086 3.21071 3.46957 3 4 3H9.52ZM15.172 16.586C14.9941 17.0389 14.9522 17.534 15.0515 18.0103C15.1508 18.4867 15.387 18.9238 15.7311 19.2679C16.0752 19.612 16.5123 19.8482 16.9887 19.9475C17.465 20.0468 17.9601 20.0049 18.413 19.827L15.172 16.586ZM17.5 15C17.178 15 16.87 15.061 16.586 15.172L19.828 18.414C19.9769 18.0349 20.0309 17.6251 19.9854 17.2203C19.9398 16.8156 19.796 16.4281 19.5666 16.0915C19.3371 15.755 19.0289 15.4797 18.6687 15.2894C18.3085 15.0992 17.9073 14.9998 17.5 15Z" fill="currentColor"/>
</svg>
