<svg width="24" height="24" viewBox="0 0 24 24" fill="none" xmlns="http://www.w3.org/2000/svg">
<path fill-rule="evenodd" clip-rule="evenodd" d="M5.00042 3C4.46999 3 3.96128 3.21071 3.58621 3.58579C3.21113 3.96086 3.00042 4.46957 3.00042 5V9.129C2.68927 9.26765 2.43454 9.508 2.27807 9.81058C2.1216 10.1132 2.07271 10.46 2.13942 10.794L3.85942 19.392C3.95001 19.8452 4.19477 20.2531 4.55209 20.5462C4.90941 20.8394 5.35723 20.9997 5.81942 21H18.1804C18.6428 21 19.0908 20.8397 19.4484 20.5465C19.8059 20.2534 20.0508 19.8454 20.1414 19.392L21.8614 10.794C21.9279 10.4601 21.8789 10.1135 21.7224 9.81117C21.566 9.50881 21.3114 9.26861 21.0004 9.13V7.5C21.0004 6.96957 20.7897 6.46086 20.4146 6.08579C20.0396 5.71071 19.5309 5.5 19.0004 5.5H12.4804L11.0814 3.75C10.8941 3.51599 10.6565 3.3271 10.3863 3.19728C10.1161 3.06746 9.82019 3.00004 9.52042 3H5.00042ZM19.7804 11H4.22042L5.82042 19H18.1804L19.7804 11ZM5.00042 9H19.0004V7.5H12.4804C12.1807 7.49996 11.8847 7.43254 11.6145 7.30272C11.3443 7.1729 11.1068 6.98401 10.9194 6.75L9.51942 5H5.00042V9Z" fill="currentColor"/>
</svg>
