<svg width="24" height="24" viewBox="0 0 24 24" fill="none" xmlns="http://www.w3.org/2000/svg">
<path d="M9.52 3C9.78932 2.99998 10.0559 3.05436 10.3036 3.15987C10.5514 3.26537 10.7754 3.41984 10.962 3.614L11.082 3.751L12.48 5.5H20C20.5046 5.49984 20.9906 5.69041 21.3605 6.0335C21.7305 6.37659 21.9572 6.84684 21.995 7.35L22 7.5V19C22.0002 19.5046 21.8096 19.9906 21.4665 20.3605C21.1234 20.7305 20.6532 20.9572 20.15 20.995L20 21H4C3.49542 21.0002 3.00943 20.8096 2.63945 20.4665C2.26947 20.1234 2.04284 19.6532 2.005 19.15L2 19V5C1.99984 4.49542 2.19041 4.00943 2.5335 3.63945C2.87659 3.26947 3.34684 3.04284 3.85 3.005L4 3H9.52ZM9.52 5H4V19H20V7.5H12.48C12.2107 7.50002 11.9441 7.44564 11.6964 7.34013C11.4486 7.23463 11.2246 7.08016 11.038 6.886L10.918 6.749L9.52 5ZM14.475 10.232C14.655 10.0527 14.8964 9.94853 15.1504 9.94077C15.4043 9.93302 15.6517 10.0222 15.8423 10.1902C16.0328 10.3583 16.1523 10.5926 16.1764 10.8455C16.2005 11.0984 16.1274 11.351 15.972 11.552L15.889 11.647L11.717 15.819C11.5263 16.0096 11.2723 16.1236 11.0032 16.1393C10.734 16.1549 10.4685 16.0712 10.257 15.904L10.162 15.819L8.111 13.768C7.92975 13.5885 7.82397 13.3464 7.81532 13.0915C7.80667 12.8365 7.8958 12.5878 8.06447 12.3964C8.23313 12.205 8.46858 12.0853 8.72262 12.0618C8.97666 12.0383 9.23008 12.1128 9.431 12.27L9.525 12.354L10.939 13.768L14.475 10.232Z" fill="currentColor"/>
</svg>
