<svg width="24" height="24" viewBox="0 0 24 24" fill="none" xmlns="http://www.w3.org/2000/svg">
<path d="M9.52 3C9.78932 2.99998 10.0559 3.05436 10.3036 3.15987C10.5514 3.26537 10.7754 3.41984 10.962 3.614L11.082 3.751L12.48 5.5H20C20.5046 5.49984 20.9906 5.69041 21.3605 6.0335C21.7305 6.37659 21.9572 6.84684 21.995 7.35L22 7.5V19C22.0002 19.5046 21.8096 19.9906 21.4665 20.3605C21.1234 20.7305 20.6532 20.9572 20.15 20.995L20 21H4C3.49542 21.0002 3.00943 20.8096 2.63945 20.4665C2.26947 20.1234 2.04284 19.6532 2.005 19.15L2 19V5C1.99984 4.49542 2.19041 4.00943 2.5335 3.63945C2.87659 3.26947 3.34684 3.04284 3.85 3.005L4 3H9.52ZM9.52 5H4V19H20V7.5H12.48C12.2107 7.50002 11.9441 7.44564 11.6964 7.34013C11.4486 7.23463 11.2246 7.08016 11.038 6.886L10.918 6.749L9.52 5ZM11.654 10.199C11.6853 10.1449 11.7289 10.0989 11.7813 10.0647C11.8336 10.0304 11.8932 10.009 11.9554 10.002C12.0175 9.99498 12.0804 10.0026 12.139 10.0244C12.1977 10.0461 12.2504 10.0812 12.293 10.127L12.346 10.199L13.24 11.734L14.977 12.11C15.0387 12.1234 15.0963 12.1511 15.1452 12.191C15.194 12.2309 15.2328 12.2818 15.2582 12.3395C15.2837 12.3973 15.2951 12.4602 15.2916 12.5232C15.2881 12.5862 15.2697 12.6475 15.238 12.702L15.191 12.768L14.007 14.093L14.185 15.861C14.1914 15.9243 14.1826 15.9881 14.1594 16.0473C14.1362 16.1065 14.0992 16.1593 14.0515 16.2014C14.0038 16.2434 13.9467 16.2735 13.8851 16.2891C13.8234 16.3046 13.759 16.3053 13.697 16.291L13.627 16.267L12 15.551L10.374 16.267C10.3157 16.2927 10.2522 16.3041 10.1886 16.3003C10.1251 16.2965 10.0633 16.2776 10.0086 16.2451C9.95379 16.2126 9.90757 16.1676 9.87372 16.1136C9.83988 16.0597 9.81941 15.9984 9.814 15.935V15.861L9.994 14.093L8.81 12.768C8.76782 12.721 8.73737 12.6647 8.72114 12.6036C8.70491 12.5426 8.70337 12.4786 8.71664 12.4168C8.7299 12.3551 8.7576 12.2974 8.79747 12.2484C8.83734 12.1994 8.88823 12.1605 8.946 12.135L9.023 12.11L10.76 11.734L11.654 10.199Z" fill="currentColor"/>
</svg>
