<svg width="24" height="24" viewBox="0 0 24 24" fill="none" xmlns="http://www.w3.org/2000/svg">
<path d="M9.52 3C9.81977 3.00004 10.1157 3.06746 10.3859 3.19728C10.6561 3.3271 10.8936 3.51599 11.081 3.75L12.481 5.5H20C20.5304 5.5 21.0391 5.71071 21.4142 6.08579C21.7893 6.46086 22 6.96957 22 7.5V19C22 19.5304 21.7893 20.0391 21.4142 20.4142C21.0391 20.7893 20.5304 21 20 21H4C3.46957 21 2.96086 20.7893 2.58579 20.4142C2.21071 20.0391 2 19.5304 2 19V5C2 4.46957 2.21071 3.96086 2.58579 3.58579C2.96086 3.21071 3.46957 3 4 3H9.52ZM9.52 5H4V19H20V7.5H12.48C12.1802 7.49996 11.8843 7.43254 11.6141 7.30272C11.3439 7.1729 11.1064 6.98401 10.919 6.75L9.52 5ZM12 10C12.4266 10.0001 12.842 10.1367 13.1854 10.3896C13.5289 10.6426 13.7825 10.9988 13.9092 11.4062C14.0358 11.8135 14.0289 12.2507 13.8895 12.6538C13.75 13.057 13.4853 13.405 13.134 13.647L13 13.732V16C12.9997 16.2549 12.9021 16.5 12.7272 16.6854C12.5522 16.8707 12.313 16.9822 12.0586 16.9972C11.8042 17.0121 11.5536 16.9293 11.3582 16.7657C11.1627 16.6021 11.0371 16.3701 11.007 16.117L11 16V13.732C10.6187 13.5119 10.3208 13.1721 10.1523 12.7653C9.98384 12.3586 9.95429 11.9076 10.0682 11.4824C10.1822 11.0571 10.4333 10.6813 10.7825 10.4133C11.1318 10.1453 11.5597 10 12 10Z" fill="currentColor"/>
</svg>
