<svg width="24" height="24" viewBox="0 0 24 24" fill="none" xmlns="http://www.w3.org/2000/svg">
<path fill-rule="evenodd" clip-rule="evenodd" d="M5 4C4.20435 4 3.44129 4.31607 2.87868 4.87868C2.31607 5.44129 2 6.20435 2 7V18C2 18.7956 2.31607 19.5587 2.87868 20.1213C3.44129 20.6839 4.20435 21 5 21H19C19.7956 21 20.5587 20.6839 21.1213 20.1213C21.6839 19.5587 22 18.7956 22 18V7C22 6.20435 21.6839 5.44129 21.1213 4.87868C20.5587 4.31607 19.7956 4 19 4H5ZM4 7C4 6.73478 4.10536 6.48043 4.29289 6.29289C4.48043 6.10536 4.73478 6 5 6H9.646C9.84582 6.00013 10.041 6.06011 10.2064 6.17223C10.3718 6.28434 10.4999 6.44344 10.574 6.629L11.569 9.114C11.7916 9.67066 12.1759 10.1478 12.6723 10.484C13.1687 10.8202 13.7545 10.9999 14.354 11H20V18C20 18.2652 19.8946 18.5196 19.7071 18.7071C19.5196 18.8946 19.2652 19 19 19H5C4.73478 19 4.48043 18.8946 4.29289 18.7071C4.10536 18.5196 4 18.2652 4 18V7ZM20 9H14.354C14.1542 8.99987 13.959 8.93989 13.7936 8.82777C13.6282 8.71566 13.5001 8.55656 13.426 8.371L12.477 6H19C19.2652 6 19.5196 6.10536 19.7071 6.29289C19.8946 6.48043 20 6.73478 20 7V9Z" fill="currentColor"/>
</svg>
