<svg width="24" height="24" viewBox="0 0 24 24" fill="none" xmlns="http://www.w3.org/2000/svg">
<path fill-rule="evenodd" clip-rule="evenodd" d="M5.92595 20.376C5.82029 20.6128 5.62675 20.7994 5.38616 20.8962C5.14558 20.9931 4.87678 20.9927 4.63648 20.8951C4.39618 20.7976 4.20319 20.6104 4.09824 20.3733C3.99328 20.1361 3.98457 19.8675 4.07395 19.624L10.3849 4.08699C10.5154 3.76563 10.7388 3.49049 11.0265 3.29679C11.3142 3.10308 11.6531 2.9996 11.9999 2.9996C12.3468 2.9996 12.6857 3.10308 12.9734 3.29679C13.2611 3.49049 13.4845 3.76563 13.6149 4.08699L19.9269 19.624C19.9786 19.7461 20.0055 19.8772 20.006 20.0098C20.0066 20.1424 19.9807 20.2737 19.93 20.3962C19.8793 20.5187 19.8048 20.6299 19.7107 20.7233C19.6166 20.8168 19.5049 20.8905 19.3821 20.9404C19.2592 20.9902 19.1277 21.0152 18.9951 21.0137C18.8626 21.0123 18.7316 20.9845 18.6099 20.932C18.4882 20.8795 18.3781 20.8033 18.2861 20.7078C18.1941 20.6124 18.122 20.4996 18.0739 20.376L15.8889 15H8.11095L5.92595 20.376ZM8.92295 13H15.0769L11.9999 5.42599L8.92295 13Z" fill="currentColor"/>
</svg>
