<svg width="24" height="24" viewBox="0 0 24 24" fill="none" xmlns="http://www.w3.org/2000/svg">
<path fill-rule="evenodd" clip-rule="evenodd" d="M12 2C17.523 2 22 6.477 22 12C22 17.523 17.523 22 12 22C6.477 22 2 17.523 2 12C2 6.477 6.477 2 12 2ZM13.254 15.427H10.746L9.582 17.03L10.502 19.86C11.4918 20.0477 12.5082 20.0477 13.498 19.86L14.418 17.03L13.254 15.427ZM7.747 17.854H6.547C7.02264 18.297 7.55014 18.6808 8.118 18.997L7.747 17.854ZM17.453 17.854H16.253L15.882 18.997C16.4497 18.681 16.9779 18.2972 17.453 17.854ZM6.47 11.254L4.062 13.004C4.18714 14.0041 4.50139 14.9713 4.988 15.854H7.964L9.128 14.252L8.353 11.866L6.47 11.254ZM17.53 11.254L15.647 11.866L14.872 14.251L16.036 15.854H19.012C19.4987 14.971 19.813 14.0035 19.938 13.003L17.53 11.254ZM12 10.236L10.322 11.455L10.963 13.427H13.037L13.677 11.455L12 10.236ZM4.747 8.621C4.47195 9.21075 4.27043 9.83208 4.147 10.471L5.118 9.764L4.747 8.621ZM19.253 8.621L18.882 9.764L19.854 10.47C19.7306 9.83107 19.5291 9.20974 19.254 8.62L19.253 8.621ZM8.593 4.76C7.68099 5.19037 6.85829 5.78882 6.168 6.524L7.088 9.352L8.972 9.964L11 8.49V6.51L8.593 4.76ZM15.408 4.76L13 6.51V8.49L15.028 9.964L16.913 9.352L17.832 6.524C17.142 5.7889 16.3197 5.19046 15.408 4.76ZM12 4C11.78 4 11.564 4.009 11.35 4.026L11.029 4.058L12 4.764L12.971 4.058C12.6488 4.01919 12.3245 3.99982 12 4Z" fill="currentColor"/>
</svg>
