<svg width="24" height="24" viewBox="0 0 24 24" fill="none" xmlns="http://www.w3.org/2000/svg">
<path d="M12 2C17.523 2 22 6.477 22 12C22 17.523 17.523 22 12 22C6.477 22 2 17.523 2 12C2 6.477 6.477 2 12 2ZM12 4C9.87827 4 7.84344 4.84285 6.34315 6.34315C4.84285 7.84344 4 9.87827 4 12C4 14.1217 4.84285 16.1566 6.34315 17.6569C7.84344 19.1571 9.87827 20 12 20C14.1217 20 16.1566 19.1571 17.6569 17.6569C19.1571 16.1566 20 14.1217 20 12C20 9.87827 19.1571 7.84344 17.6569 6.34315C16.1566 4.84285 14.1217 4 12 4ZM14.829 7.757C15.009 7.57765 15.2504 7.47353 15.5044 7.46577C15.7583 7.45802 16.0057 7.54721 16.1963 7.71525C16.3868 7.88328 16.5063 8.11755 16.5304 8.37047C16.5545 8.6234 16.4814 8.87601 16.326 9.077L16.243 9.172L9.172 16.242C8.99246 16.4233 8.75043 16.529 8.49545 16.5377C8.24047 16.5463 7.99183 16.4572 7.80042 16.2885C7.60901 16.1199 7.4893 15.8844 7.4658 15.6304C7.44229 15.3763 7.51678 15.1229 7.674 14.922L7.757 14.828L14.829 7.757Z" fill="currentColor"/>
</svg>
