<svg width="24" height="24" viewBox="0 0 24 24" fill="none" xmlns="http://www.w3.org/2000/svg">
<path fill-rule="evenodd" clip-rule="evenodd" d="M21.1001 17.032C20.9963 17.1127 20.8777 17.1722 20.751 17.207C20.6243 17.2418 20.492 17.2513 20.3616 17.235C20.2312 17.2187 20.1053 17.1768 19.9911 17.1117C19.8769 17.0467 19.7766 16.9598 19.6961 16.856L17.2021 13.65C16.876 13.2306 16.4263 12.9245 15.9166 12.7748C15.4069 12.6251 14.8631 12.6395 14.3621 12.816L14.8691 13.455L19.0711 17.657C19.2532 17.8456 19.354 18.0982 19.3517 18.3604C19.3495 18.6226 19.2443 18.8734 19.0589 19.0588C18.8735 19.2442 18.6227 19.3494 18.3605 19.3517C18.0983 19.3539 17.8457 19.2532 17.6571 19.071L13.4551 14.869L12.8151 14.362C12.6387 14.8631 12.6244 15.407 12.7743 15.9167C12.9242 16.4264 13.2305 16.8761 13.6501 17.202L16.8571 19.696C17.0598 19.861 17.1898 20.0989 17.2193 20.3586C17.2488 20.6184 17.1755 20.8793 17.0149 21.0856C16.8544 21.292 16.6194 21.4272 16.3604 21.4624C16.1014 21.4976 15.8388 21.43 15.6291 21.274L12.4221 18.78C11.5806 18.1253 10.9967 17.1951 10.773 16.1526C10.5494 15.1102 10.7002 14.0223 11.1991 13.08L4.42206 7.705C4.16367 7.50033 3.9515 7.24332 3.79949 6.95083C3.64747 6.65835 3.55905 6.33703 3.54003 6.00795C3.521 5.67887 3.57181 5.34949 3.68911 5.04144C3.80641 4.73339 3.98754 4.45364 4.22062 4.22056C4.4537 3.98748 4.73346 3.80635 5.04151 3.68905C5.34955 3.57175 5.67893 3.52094 6.00801 3.53997C6.33709 3.55899 6.65842 3.64741 6.9509 3.79943C7.24338 3.95144 7.50039 4.16361 7.70506 4.422L13.0801 11.199C14.0223 10.7001 15.1102 10.5493 16.1527 10.773C17.1951 10.9966 18.1254 11.5805 18.7801 12.422L21.2751 15.629C21.4377 15.8384 21.5106 16.1038 21.4776 16.3669C21.4446 16.63 21.3094 16.8693 21.1001 17.032ZM7.95106 7.952L6.13806 5.665C6.10869 5.62736 6.07166 5.59639 6.02942 5.57414C5.98718 5.55189 5.9407 5.53887 5.89305 5.53594C5.8454 5.53301 5.79767 5.54024 5.75302 5.55715C5.70837 5.57405 5.66783 5.60025 5.63407 5.63401C5.60031 5.66777 5.57411 5.70831 5.55721 5.75296C5.5403 5.79761 5.53307 5.84534 5.536 5.89299C5.53893 5.94064 5.55195 5.98712 5.5742 6.02936C5.59645 6.0716 5.62742 6.10863 5.66506 6.138L7.95106 7.952Z" fill="currentColor"/>
</svg>
