<svg width="24" height="24" viewBox="0 0 24 24" fill="none" xmlns="http://www.w3.org/2000/svg">
<path fill-rule="evenodd" clip-rule="evenodd" d="M18.4103 3.28701C18.4866 3.3939 18.5411 3.51478 18.5707 3.64274C18.6003 3.7707 18.6044 3.90323 18.5827 4.03277C18.5611 4.16231 18.5141 4.28632 18.4446 4.39772C18.375 4.50912 18.2842 4.60572 18.1773 4.68201L16.0763 6.18301C15.7531 6.41351 15.5074 6.73647 15.3714 7.10936C15.2353 7.48225 15.2154 7.88759 15.3143 8.27201L18.6573 4.92901C18.7495 4.8335 18.8599 4.75732 18.9819 4.70491C19.1039 4.6525 19.2351 4.62492 19.3679 4.62376C19.5007 4.62261 19.6323 4.64791 19.7552 4.69819C19.8781 4.74847 19.9898 4.82272 20.0837 4.91662C20.1776 5.01051 20.2518 5.12216 20.3021 5.24506C20.3524 5.36795 20.3777 5.49963 20.3765 5.63241C20.3754 5.76519 20.3478 5.89641 20.2954 6.01842C20.243 6.14042 20.1668 6.25077 20.0713 6.34301L16.7283 9.68601C17.1127 9.78485 17.518 9.76494 17.8909 9.62893C18.2638 9.49291 18.5868 9.24715 18.8173 8.92401L20.3183 6.82301C20.4752 6.61475 20.7073 6.47604 20.9651 6.43646C21.2228 6.39687 21.4859 6.45954 21.6981 6.6111C21.9103 6.76266 22.0549 6.99113 22.1011 7.24778C22.1473 7.50444 22.0914 7.76898 21.9453 7.98501L20.4453 10.087C19.8696 10.8927 19.0133 11.454 18.0448 11.6605C17.0763 11.867 16.0656 11.7038 15.2113 11.203L12.9143 13.5L17.0713 17.657C17.2534 17.8456 17.3542 18.0982 17.352 18.3604C17.3497 18.6226 17.2445 18.8734 17.0591 19.0588C16.8737 19.2442 16.6229 19.3494 16.3607 19.3517C16.0985 19.354 15.8459 19.2532 15.6573 19.071L11.5003 14.914L7.34328 19.071C7.25103 19.1665 7.14069 19.2427 7.01868 19.2951C6.89668 19.3475 6.76546 19.3751 6.63268 19.3763C6.4999 19.3774 6.36822 19.3521 6.24532 19.3018C6.12243 19.2516 6.01078 19.1773 5.91688 19.0834C5.82299 18.9895 5.74874 18.8779 5.69846 18.755C5.64818 18.6321 5.62287 18.5004 5.62403 18.3676C5.62518 18.2348 5.65277 18.1036 5.70518 17.9816C5.75759 17.8596 5.83377 17.7493 5.92928 17.657L10.0863 13.5L8.47628 11.89C8.01328 12.14 7.45928 12.33 6.87028 12.399C6.27215 12.4744 5.66469 12.4097 5.09582 12.2101C4.52695 12.0106 4.01223 11.6815 3.59228 11.249C2.66328 10.319 2.13228 9.15001 2.00028 8.02701C1.87028 6.92201 2.12028 5.73801 2.93028 4.92901C3.73928 4.11901 4.92228 3.86901 6.02728 3.99901C7.15028 4.13201 8.32028 4.66301 9.24928 5.59201C9.6818 6.01197 10.0108 6.52668 10.2104 7.09555C10.41 7.66442 10.4746 8.27188 10.3993 8.87001C10.3317 9.43232 10.1587 9.97685 9.88928 10.475L11.5003 12.085L13.7973 9.78901C13.2967 8.93481 13.1337 7.92431 13.3402 6.95604C13.5467 5.98776 14.1078 5.1317 14.9133 4.55601L17.0153 3.05501C17.231 2.9008 17.4992 2.83861 17.7608 2.88211C18.0224 2.92562 18.256 3.07127 18.4103 3.28701ZM3.98628 7.79301C4.06628 8.47301 4.39728 9.22601 5.00628 9.83401C5.52828 10.356 6.10528 10.474 6.63728 10.412C7.21728 10.344 7.69328 10.064 7.87928 9.87901C8.06528 9.69301 8.34428 9.21701 8.41228 8.63701C8.47528 8.10401 8.35728 7.52701 7.83528 7.00601C7.22528 6.39701 6.47328 6.06601 5.79328 5.98601C5.09528 5.90401 4.59428 6.09201 4.34328 6.34301C4.09328 6.59401 3.90428 7.09401 3.98628 7.79301Z" fill="currentColor"/>
</svg>
