<svg width="24" height="24" viewBox="0 0 24 24" fill="none" xmlns="http://www.w3.org/2000/svg">
<path fill-rule="evenodd" clip-rule="evenodd" d="M18.4101 3.28699C18.4864 3.39388 18.5409 3.51476 18.5705 3.64272C18.6001 3.77068 18.6042 3.90321 18.5825 4.03275C18.5609 4.16229 18.5139 4.2863 18.4444 4.3977C18.3748 4.5091 18.284 4.6057 18.1771 4.68199L16.0761 6.18299C15.7529 6.41349 15.5072 6.73645 15.3712 7.10934C15.2351 7.48223 15.2152 7.88757 15.3141 8.27199L18.6571 4.92899C18.7493 4.83348 18.8597 4.7573 18.9817 4.70489C19.1037 4.65248 19.2349 4.62489 19.3677 4.62374C19.5005 4.62258 19.6321 4.64789 19.755 4.69817C19.8779 4.74845 19.9896 4.8227 20.0835 4.91659C20.1774 5.01049 20.2516 5.12214 20.3019 5.24504C20.3522 5.36793 20.3775 5.49961 20.3763 5.63239C20.3752 5.76517 20.3476 5.89639 20.2952 6.01839C20.2428 6.1404 20.1666 6.25074 20.0711 6.34299L16.7281 9.68599C17.1125 9.78482 17.5178 9.76492 17.8907 9.6289C18.2636 9.49288 18.5866 9.24713 18.8171 8.92399L20.3181 6.82299C20.475 6.61473 20.7071 6.47602 20.9649 6.43643C21.2226 6.39685 21.4857 6.45951 21.6979 6.61108C21.9101 6.76264 22.0547 6.9911 22.1009 7.24776C22.1471 7.50442 22.0911 7.76896 21.9451 7.98499L20.4451 10.087C19.8694 10.8927 19.0131 11.454 18.0446 11.6605C17.0761 11.867 16.0654 11.7038 15.2111 11.203L13.4751 12.939L18.2781 17.743C18.4602 17.9316 18.561 18.1842 18.5587 18.4464C18.5565 18.7086 18.4513 18.9594 18.2659 19.1448C18.0805 19.3302 17.8297 19.4354 17.5675 19.4377C17.3053 19.4399 17.0527 19.3391 16.8641 19.157L12.0611 14.354L7.34307 19.071C7.25082 19.1665 7.14048 19.2427 7.01847 19.2951C6.89647 19.3475 6.76525 19.3751 6.63247 19.3762C6.49969 19.3774 6.36801 19.3521 6.24512 19.3018C6.12222 19.2515 6.01057 19.1773 5.91667 19.0834C5.82278 18.9895 5.74853 18.8778 5.69825 18.7549C5.64797 18.632 5.62267 18.5004 5.62382 18.3676C5.62497 18.2348 5.65256 18.1036 5.70497 17.9816C5.75738 17.8596 5.83356 17.7492 5.92907 17.657L10.6461 12.939L9.08607 11.379L7.67207 12.793C7.48454 12.9805 7.23023 13.0858 6.96507 13.0858C6.69991 13.0858 6.4456 12.9805 6.25807 12.793L4.05307 10.589C3.31104 9.84684 2.82134 8.89002 2.65334 7.85408C2.48535 6.81814 2.64759 5.7556 3.11707 4.81699C3.30507 4.44099 3.52007 4.10199 3.97607 4.02699C4.13243 4.00166 4.29257 4.01383 4.44331 4.06251C4.59404 4.11119 4.73106 4.19499 4.84307 4.30699L9.79007 9.25499L9.79407 9.25799L12.0621 11.526L13.7981 9.78999C13.2975 8.93578 13.1345 7.92529 13.341 6.95701C13.5475 5.98874 14.1086 5.13267 14.9141 4.55699L17.0161 3.05599C17.2318 2.90178 17.5 2.83958 17.7616 2.88309C18.0232 2.9266 18.2568 3.07224 18.4111 3.28799L18.4101 3.28699ZM4.59407 6.88699C4.57061 7.30838 4.63634 7.72998 4.78694 8.12424C4.93755 8.5185 5.16964 8.87655 5.46807 9.17499L6.96507 10.672L7.67207 9.96499L4.59407 6.88699Z" fill="currentColor"/>
</svg>
