<svg width="24" height="24" viewBox="0 0 24 24" fill="none" xmlns="http://www.w3.org/2000/svg">
<path fill-rule="evenodd" clip-rule="evenodd" d="M17 2C17.7956 2 18.5587 2.31607 19.1213 2.87868C19.6839 3.44129 20 4.20435 20 5V7C20 7.79565 19.6839 8.55871 19.1213 9.12132C18.5587 9.68393 17.7956 10 17 10C16.2044 10 15.4413 9.68393 14.8787 9.12132C14.3161 8.55871 14 7.79565 14 7H13V17H14C14 16.2044 14.3161 15.4413 14.8787 14.8787C15.4413 14.3161 16.2044 14 17 14C17.7956 14 18.5587 14.3161 19.1213 14.8787C19.6839 15.4413 20 16.2044 20 17V19C20 19.7956 19.6839 20.5587 19.1213 21.1213C18.5587 21.6839 17.7956 22 17 22C16.2044 22 15.4413 21.6839 14.8787 21.1213C14.3161 20.5587 14 19.7956 14 19H10C10 19.394 9.9224 19.7841 9.77164 20.1481C9.62087 20.512 9.3999 20.8427 9.12132 21.1213C8.84274 21.3999 8.51203 21.6209 8.14805 21.7716C7.78407 21.9224 7.39397 22 7 22C6.60603 22 6.21593 21.9224 5.85195 21.7716C5.48797 21.6209 5.15726 21.3999 4.87868 21.1213C4.6001 20.8427 4.37913 20.512 4.22836 20.1481C4.0776 19.7841 4 19.394 4 19V17C4 16.606 4.0776 16.2159 4.22836 15.8519C4.37913 15.488 4.6001 15.1573 4.87868 14.8787C5.15726 14.6001 5.48797 14.3791 5.85195 14.2284C6.21593 14.0776 6.60603 14 7 14C7.39397 14 7.78407 14.0776 8.14805 14.2284C8.51203 14.3791 8.84274 14.6001 9.12132 14.8787C9.3999 15.1573 9.62087 15.488 9.77164 15.8519C9.9224 16.2159 10 16.606 10 17H11V7H10C10 7.79565 9.68393 8.55871 9.12132 9.12132C8.55871 9.68393 7.79565 10 7 10C6.20435 10 5.44129 9.68393 4.87868 9.12132C4.31607 8.55871 4 7.79565 4 7V5C4 4.20435 4.31607 3.44129 4.87868 2.87868C5.44129 2.31607 6.20435 2 7 2C7.79565 2 8.55871 2.31607 9.12132 2.87868C9.68393 3.44129 10 4.20435 10 5H14C14 4.20435 14.3161 3.44129 14.8787 2.87868C15.4413 2.31607 16.2044 2 17 2ZM17 16C16.7551 16 16.5187 16.09 16.3356 16.2527C16.1526 16.4155 16.0357 16.6397 16.007 16.883L16 17V19C16.0003 19.2549 16.0979 19.5 16.2728 19.6854C16.4478 19.8707 16.687 19.9822 16.9414 19.9972C17.1958 20.0121 17.4464 19.9293 17.6418 19.7657C17.8373 19.6021 17.9629 19.3701 17.993 19.117L18 19V17C18 16.7348 17.8946 16.4804 17.7071 16.2929C17.5196 16.1054 17.2652 16 17 16ZM7 16C6.75507 16 6.51866 16.09 6.33563 16.2527C6.15259 16.4155 6.03566 16.6397 6.007 16.883L6 17V19C6.00028 19.2549 6.09788 19.5 6.27285 19.6854C6.44782 19.8707 6.68695 19.9822 6.94139 19.9972C7.19584 20.0121 7.44638 19.9293 7.64183 19.7657C7.83729 19.6021 7.9629 19.3701 7.993 19.117L8 19V17C8 16.7348 7.89464 16.4804 7.70711 16.2929C7.51957 16.1054 7.26522 16 7 16ZM7 4C6.73478 4 6.48043 4.10536 6.29289 4.29289C6.10536 4.48043 6 4.73478 6 5V7C6 7.26522 6.10536 7.51957 6.29289 7.70711C6.48043 7.89464 6.73478 8 7 8C7.26522 8 7.51957 7.89464 7.70711 7.70711C7.89464 7.51957 8 7.26522 8 7V5C8 4.73478 7.89464 4.48043 7.70711 4.29289C7.51957 4.10536 7.26522 4 7 4ZM17 4C16.7348 4 16.4804 4.10536 16.2929 4.29289C16.1054 4.48043 16 4.73478 16 5V7C16 7.26522 16.1054 7.51957 16.2929 7.70711C16.4804 7.89464 16.7348 8 17 8C17.2652 8 17.5196 7.89464 17.7071 7.70711C17.8946 7.51957 18 7.26522 18 7V5C18 4.73478 17.8946 4.48043 17.7071 4.29289C17.5196 4.10536 17.2652 4 17 4Z" fill="currentColor"/>
</svg>
