<svg width="24" height="24" viewBox="0 0 24 24" fill="none" xmlns="http://www.w3.org/2000/svg">
<path d="M17 2C17.5046 1.99984 17.9906 2.19041 18.3605 2.5335C18.7305 2.87659 18.9572 3.34684 18.995 3.85L19 4V20C19.0002 20.5046 18.8096 20.9906 18.4665 21.3605C18.1234 21.7305 17.6532 21.9572 17.15 21.995L17 22H7C6.49542 22.0002 6.00943 21.8096 5.63945 21.4665C5.26947 21.1234 5.04284 20.6532 5.005 20.15L5 20V4C4.99984 3.49542 5.19041 3.00943 5.5335 2.63945C5.87659 2.26947 6.34684 2.04284 6.85 2.005L7 2H17ZM17 13H7V20H17V13ZM9 14C9.24493 14 9.48134 14.09 9.66437 14.2527C9.84741 14.4155 9.96434 14.6397 9.993 14.883L10 15V17C9.99972 17.2549 9.90212 17.5 9.72715 17.6854C9.55218 17.8707 9.31305 17.9822 9.05861 17.9972C8.80416 18.0121 8.55362 17.9293 8.35817 17.7657C8.16271 17.6021 8.0371 17.3701 8.007 17.117L8 17V15C8 14.7348 8.10536 14.4804 8.29289 14.2929C8.48043 14.1054 8.73478 14 9 14ZM17 4H7V11H17V4ZM9 6C9.26522 6 9.51957 6.10536 9.70711 6.29289C9.89464 6.48043 10 6.73478 10 7V9C10 9.26522 9.89464 9.51957 9.70711 9.70711C9.51957 9.89464 9.26522 10 9 10C8.73478 10 8.48043 9.89464 8.29289 9.70711C8.10536 9.51957 8 9.26522 8 9V7C8 6.73478 8.10536 6.48043 8.29289 6.29289C8.48043 6.10536 8.73478 6 9 6Z" fill="currentColor"/>
</svg>
