<svg width="24" height="24" viewBox="0 0 24 24" fill="none" xmlns="http://www.w3.org/2000/svg">
<path fill-rule="evenodd" clip-rule="evenodd" d="M14.0004 2C14.5308 2 15.0395 2.21071 15.4146 2.58579C15.7897 2.96086 16.0004 3.46957 16.0004 4H17.0004C17.5308 4 18.0395 4.21071 18.4146 4.58579C18.7897 4.96086 19.0004 5.46957 19.0004 6V9.003C19.2705 9.01722 19.535 9.0861 19.7778 9.20549C20.0206 9.32488 20.2366 9.49228 20.4129 9.69757C20.5891 9.90286 20.7218 10.1418 20.803 10.3998C20.8842 10.6579 20.9123 10.9298 20.8854 11.199L20.1754 18.299C20.1012 19.0392 19.7547 19.7254 19.2032 20.2245C18.6516 20.7236 17.9342 21 17.1904 21H6.81037C6.0665 21 5.34916 20.7236 4.79758 20.2245C4.24599 19.7254 3.89951 19.0392 3.82537 18.299L3.11537 11.199C3.08848 10.9298 3.11649 10.6579 3.19771 10.3998C3.27893 10.1418 3.41166 9.90286 3.58788 9.69757C3.7641 9.49228 3.98014 9.32488 4.22292 9.20549C4.46571 9.0861 4.73019 9.01722 5.00037 9.003V5C5.00037 4.46957 5.21108 3.96086 5.58616 3.58579C5.96123 3.21071 6.46994 3 7.00037 3H8.00037C8.5308 3 9.03951 3.21071 9.41458 3.58579C9.78966 3.96086 10.0004 4.46957 10.0004 5H11.0004V4C11.0004 3.46957 11.2111 2.96086 11.5862 2.58579C11.9612 2.21071 12.4699 2 13.0004 2H14.0004ZM6.76037 11H5.10537L5.81537 18.1L5.83437 18.215C5.87909 18.418 5.98595 18.602 6.14008 18.7414C6.2942 18.8808 6.48795 18.9688 6.69437 18.993L6.81037 19H17.1904L17.3074 18.993C17.5138 18.9688 17.7075 18.8808 17.8617 18.7414C18.0158 18.602 18.1226 18.418 18.1674 18.215L18.1854 18.099L18.8954 11H17.2404L17.2214 11.01C17.1881 11.0329 17.1605 11.063 17.1404 11.098C16.6066 11.9839 15.8528 12.7167 14.9521 13.2252C14.0515 13.7337 13.0346 14.0006 12.0004 14C10.9661 14.0006 9.94925 13.7337 9.04861 13.2252C8.14797 12.7167 7.39415 11.9839 6.86037 11.098C6.8407 11.0627 6.81336 11.0323 6.78037 11.009L6.76037 11ZM14.0004 4H13.0004V11.874L13.2624 11.797C13.4354 11.74 13.6024 11.671 13.7634 11.592L14.0004 11.465V4ZM11.0004 7H10.0004V11.465L10.2374 11.592C10.3984 11.671 10.5654 11.74 10.7374 11.797L11.0004 11.874V7ZM17.0004 6H16.0004V9.425L16.1454 9.324C16.3444 9.196 16.5684 9.099 16.8134 9.046L17.0004 9.014V6ZM8.00037 5H7.00037V9.014C7.31937 9.052 7.60737 9.164 7.85537 9.324L8.00037 9.425V5Z" fill="currentColor"/>
</svg>
