<svg width="24" height="24" viewBox="0 0 24 24" fill="none" xmlns="http://www.w3.org/2000/svg">
<path fill-rule="evenodd" clip-rule="evenodd" d="M4 12C4 9.30598 5.902 6.78298 8.445 5.28398C11.029 3.76098 13.785 3.55798 15.39 4.79198C15.862 5.15498 16.123 5.75199 16.336 6.64199C16.388 6.85799 16.434 7.07799 16.482 7.30899L16.497 7.38499C16.539 7.58899 16.583 7.80199 16.631 8.00999C16.736 8.47199 16.875 8.98199 17.105 9.44498C17.45 10.14 17.945 10.73 18.375 11.23L18.493 11.366C18.898 11.836 19.247 12.241 19.523 12.691C19.811 13.159 19.998 13.645 20.03 14.226C20.062 14.815 19.939 15.576 19.486 16.593C18.196 19.497 14.481 20.632 10.754 19.741C7.092 18.865 4 16.144 4 12ZM16.61 3.20698C14.048 1.23698 10.304 1.86699 7.43 3.56099C4.515 5.27899 2 8.35898 2 12C2 17.355 6.037 20.67 10.29 21.686C14.477 22.687 19.462 21.572 21.314 17.406C21.861 16.173 22.08 15.094 22.027 14.117C21.973 13.132 21.647 12.327 21.227 11.643C20.861 11.048 20.407 10.521 20.017 10.071L19.893 9.92699C19.454 9.41699 19.116 8.99899 18.895 8.55499C18.775 8.31099 18.678 7.98999 18.581 7.56499C18.5373 7.37042 18.4956 7.17541 18.456 6.97999L18.44 6.90399C18.392 6.67199 18.34 6.42499 18.281 6.17699C18.051 5.21299 17.662 4.01698 16.61 3.20698ZM10 12C10 11.4696 10.2107 10.9608 10.5858 10.5858C10.9609 10.2107 11.4696 9.99998 12 9.99998C12.5304 9.99998 13.0391 10.2107 13.4142 10.5858C13.7893 10.9608 14 11.4696 14 12C14 12.5304 13.7893 13.0391 13.4142 13.4142C13.0391 13.7893 12.5304 14 12 14C11.4696 14 10.9609 13.7893 10.5858 13.4142C10.2107 13.0391 10 12.5304 10 12ZM12 7.99999C10.9391 7.99999 9.92172 8.42141 9.17157 9.17156C8.42143 9.9217 8 10.9391 8 12C8 13.0609 8.42143 14.0783 9.17157 14.8284C9.92172 15.5786 10.9391 16 12 16C13.0609 16 14.0783 15.5786 14.8284 14.8284C15.5786 14.0783 16 13.0609 16 12C16 10.9391 15.5786 9.9217 14.8284 9.17156C14.0783 8.42141 13.0609 7.99999 12 7.99999Z" fill="currentColor"/>
</svg>
