<svg width="24" height="24" viewBox="0 0 24 24" fill="none" xmlns="http://www.w3.org/2000/svg">
<path d="M10.6248 10.22C10.8317 10.3857 10.9644 10.6268 10.9936 10.8902C11.0229 11.1537 10.9463 11.418 10.7808 11.625L10.5478 11.916C10.2352 12.3066 10.0679 12.7937 10.0745 13.2939C10.081 13.7942 10.2611 14.2767 10.5838 14.659L10.7068 14.793C11.4307 15.5169 11.8622 16.4822 11.9188 17.5043C11.9755 18.5265 11.6532 19.5336 11.0138 20.333L10.7808 20.625C10.6987 20.7276 10.5973 20.813 10.4822 20.8763C10.3671 20.9396 10.2407 20.9797 10.1101 20.9942C9.97956 21.0087 9.84742 20.9973 9.72126 20.9607C9.59509 20.9241 9.47737 20.8631 9.37481 20.781C9.27224 20.6989 9.18685 20.5975 9.12351 20.4824C9.06016 20.3673 9.0201 20.2409 9.00562 20.1103C8.99113 19.9798 9.0025 19.8476 9.03908 19.7215C9.07566 19.5953 9.13673 19.4776 9.21881 19.375L9.45181 19.084C9.76441 18.6934 9.93172 18.2063 9.92515 17.7061C9.91859 17.2058 9.73856 16.7233 9.41581 16.341L9.29281 16.207C8.56896 15.4831 8.13743 14.5178 8.08079 13.4957C8.02415 12.4735 8.34637 11.4664 8.98581 10.667L9.21881 10.375C9.30086 10.2724 9.40232 10.187 9.5174 10.1236C9.63248 10.0602 9.75892 10.0202 9.88949 10.0057C10.0201 9.9912 10.1522 10.0026 10.2784 10.0392C10.4045 10.0758 10.5223 10.1369 10.6248 10.219V10.22ZM13.2188 10.375C13.3775 10.1756 13.6063 10.0443 13.8585 10.0079C14.1107 9.97153 14.3673 10.0328 14.5758 10.1792C14.7844 10.3256 14.9292 10.5461 14.9807 10.7957C15.0322 11.0452 14.9864 11.305 14.8528 11.522L14.7808 11.625L14.5478 11.916C14.2352 12.3066 14.0679 12.7937 14.0745 13.2939C14.081 13.7942 14.2611 14.2767 14.5838 14.659L14.7068 14.793C15.4044 15.4903 15.8314 16.4128 15.9119 17.3959C15.9923 18.3789 15.7208 19.3586 15.1458 20.16L15.0138 20.333L14.7808 20.625C14.6221 20.8244 14.3933 20.9557 14.1411 20.9921C13.8889 21.0285 13.6323 20.9672 13.4238 20.8208C13.2152 20.6744 13.0704 20.4539 13.0189 20.2043C12.9675 19.9548 13.0132 19.695 13.1468 19.478L13.2188 19.375L13.4518 19.084C13.7644 18.6934 13.9317 18.2063 13.9252 17.7061C13.9186 17.2058 13.7386 16.7233 13.4158 16.341L13.2928 16.207C12.5953 15.5097 12.1682 14.5872 12.0878 13.6041C12.0073 12.6211 12.2788 11.6414 12.8538 10.84L12.9858 10.667L13.2188 10.375ZM11.9998 4C15.2278 4 17.5348 4.478 19.0828 4.993L19.4858 5.133L19.8518 5.275C19.9098 5.298 19.9668 5.321 20.0218 5.345L20.3338 5.481C20.3838 5.503 20.4308 5.526 20.4768 5.548L20.7368 5.676C20.7778 5.696 20.8168 5.717 20.8548 5.737C21.7498 6.214 21.9818 7.233 21.6828 8.03L18.9368 15.351C18.8389 15.5925 18.6505 15.7863 18.4118 15.8909C18.1731 15.9956 17.903 16.003 17.659 15.9115C17.415 15.82 17.2163 15.6368 17.1053 15.401C16.9943 15.1652 16.9798 14.8954 17.0648 14.649L19.7718 7.429L19.5618 7.328L19.3198 7.218L19.0428 7.105L18.7308 6.987L18.5608 6.927L18.1958 6.809L17.7938 6.691C17.7224 6.67082 17.6507 6.65149 17.5788 6.633L17.1198 6.52C17.0386 6.5014 16.9573 6.4834 16.8758 6.466L16.3598 6.364C15.1958 6.15 13.7538 6 11.9988 6C9.83981 6 8.15481 6.228 6.88081 6.52L6.42181 6.633C6.34992 6.65149 6.27824 6.67082 6.20681 6.691L5.80481 6.809L5.43881 6.928L5.10881 7.046L4.95781 7.105L4.68081 7.219L4.43781 7.328L4.22781 7.428L6.93581 14.648C6.98486 14.7715 7.00879 14.9036 7.00621 15.0364C7.00364 15.1693 6.9746 15.3004 6.9208 15.4219C6.867 15.5434 6.78951 15.653 6.69287 15.7442C6.59623 15.8354 6.48238 15.9065 6.35796 15.9532C6.23355 15.9999 6.10106 16.0214 5.96826 16.0163C5.83546 16.0113 5.705 15.9798 5.5845 15.9237C5.46401 15.8676 5.3559 15.7881 5.2665 15.6898C5.17709 15.5914 5.10819 15.4763 5.06381 15.351L2.31781 8.031C2.01881 7.233 2.25081 6.214 3.14581 5.737L3.38881 5.613C3.43181 5.591 3.47681 5.57 3.52281 5.548L3.81781 5.413C3.92181 5.368 4.03181 5.321 4.14781 5.275L4.51481 5.134L4.91781 4.993C6.46581 4.478 8.77281 4 11.9998 4Z" fill="currentColor"/>
</svg>
