<svg width="24" height="24" viewBox="0 0 24 24" fill="none" xmlns="http://www.w3.org/2000/svg">
<path d="M4 15C4.26522 15 4.51957 15.1054 4.70711 15.2929C4.89464 15.4804 5 15.7348 5 16V19H8C8.26522 19 8.51957 19.1054 8.70711 19.2929C8.89464 19.4804 9 19.7348 9 20C9 20.2652 8.89464 20.5196 8.70711 20.7071C8.51957 20.8946 8.26522 21 8 21H5C4.46957 21 3.96086 20.7893 3.58579 20.4142C3.21071 20.0391 3 19.5304 3 19V16C3 15.7348 3.10536 15.4804 3.29289 15.2929C3.48043 15.1054 3.73478 15 4 15ZM20 15C20.2449 15 20.4813 15.09 20.6644 15.2527C20.8474 15.4155 20.9643 15.6397 20.993 15.883L21 16V19C21.0002 19.5046 20.8096 19.9906 20.4665 20.3605C20.1234 20.7305 19.6532 20.9572 19.15 20.995L19 21H16C15.7451 20.9997 15.5 20.9021 15.3146 20.7272C15.1293 20.5522 15.0178 20.313 15.0028 20.0586C14.9879 19.8042 15.0707 19.5536 15.2343 19.3582C15.3979 19.1627 15.6299 19.0371 15.883 19.007L16 19H19V16C19 15.7348 19.1054 15.4804 19.2929 15.2929C19.4804 15.1054 19.7348 15 20 15ZM19 3C19.5046 2.99984 19.9906 3.19041 20.3605 3.5335C20.7305 3.87659 20.9572 4.34684 20.995 4.85L21 5V8C20.9997 8.25488 20.9021 8.50003 20.7272 8.68537C20.5522 8.8707 20.313 8.98224 20.0586 8.99717C19.8042 9.01211 19.5536 8.92933 19.3582 8.76574C19.1627 8.60215 19.0371 8.3701 19.007 8.117L19 8V5H16C15.7451 4.99972 15.5 4.90212 15.3146 4.72715C15.1293 4.55218 15.0178 4.31305 15.0028 4.05861C14.9879 3.80416 15.0707 3.55362 15.2343 3.35817C15.3979 3.16271 15.6299 3.0371 15.883 3.007L16 3H19ZM8 3C8.25488 3.00028 8.50003 3.09788 8.68537 3.27285C8.8707 3.44782 8.98224 3.68695 8.99717 3.94139C9.01211 4.19584 8.92933 4.44638 8.76574 4.64183C8.60215 4.83729 8.3701 4.9629 8.117 4.993L8 5H5V8C4.99972 8.25488 4.90212 8.50003 4.72715 8.68537C4.55218 8.8707 4.31305 8.98224 4.05861 8.99717C3.80416 9.01211 3.55362 8.92933 3.35817 8.76574C3.16271 8.60215 3.0371 8.3701 3.007 8.117L3 8V5C2.99984 4.49542 3.19041 4.00943 3.5335 3.63945C3.87659 3.26947 4.34684 3.04284 4.85 3.005L5 3H8Z" fill="currentColor"/>
</svg>
