<svg width="24" height="24" viewBox="0 0 24 24" fill="none" xmlns="http://www.w3.org/2000/svg">
<path fill-rule="evenodd" clip-rule="evenodd" d="M12 2C17.523 2 22 6.477 22 12C22 17.523 17.523 22 12 22C6.477 22 2 17.523 2 12C2 6.477 6.477 2 12 2ZM12 4C9.87827 4 7.84344 4.84285 6.34315 6.34315C4.84285 7.84344 4 9.87827 4 12C4 14.1217 4.84285 16.1566 6.34315 17.6569C7.84344 19.1571 9.87827 20 12 20C14.1217 20 16.1566 19.1571 17.6569 17.6569C19.1571 16.1566 20 14.1217 20 12C20 9.87827 19.1571 7.84344 17.6569 6.34315C16.1566 4.84285 14.1217 4 12 4ZM12.5 14C12.8978 14 13.2794 14.158 13.5607 14.4393C13.842 14.7206 14 15.1022 14 15.5C14 15.8978 13.842 16.2794 13.5607 16.5607C13.2794 16.842 12.8978 17 12.5 17C12.1022 17 11.7206 16.842 11.4393 16.5607C11.158 16.2794 11 15.8978 11 15.5C11 15.1022 11.158 14.7206 11.4393 14.4393C11.7206 14.158 12.1022 14 12.5 14ZM8 11C8.26522 11 8.51957 11.1054 8.70711 11.2929C8.89464 11.4804 9 11.7348 9 12C9 12.2652 8.89464 12.5196 8.70711 12.7071C8.51957 12.8946 8.26522 13 8 13C7.73478 13 7.48043 12.8946 7.29289 12.7071C7.10536 12.5196 7 12.2652 7 12C7 11.7348 7.10536 11.4804 7.29289 11.2929C7.48043 11.1054 7.73478 11 8 11ZM14.5 7C15.163 7 15.7989 7.26339 16.2678 7.73223C16.7366 8.20107 17 8.83696 17 9.5C17 10.163 16.7366 10.7989 16.2678 11.2678C15.7989 11.7366 15.163 12 14.5 12C13.837 12 13.2011 11.7366 12.7322 11.2678C12.2634 10.7989 12 10.163 12 9.5C12 8.83696 12.2634 8.20107 12.7322 7.73223C13.2011 7.26339 13.837 7 14.5 7ZM14.5 9C14.3674 9 14.2402 9.05268 14.1464 9.14645C14.0527 9.24021 14 9.36739 14 9.5C14 9.63261 14.0527 9.75979 14.1464 9.85355C14.2402 9.94732 14.3674 10 14.5 10C14.6326 10 14.7598 9.94732 14.8536 9.85355C14.9473 9.75979 15 9.63261 15 9.5C15 9.36739 14.9473 9.24021 14.8536 9.14645C14.7598 9.05268 14.6326 9 14.5 9Z" fill="currentColor"/>
</svg>
