<svg width="24" height="24" viewBox="0 0 24 24" fill="none" xmlns="http://www.w3.org/2000/svg">
<path fill-rule="evenodd" clip-rule="evenodd" d="M12 4C10.1435 4 8.36301 4.7375 7.05025 6.05025C5.7375 7.36301 5 9.14348 5 11V19.62C4.99997 19.6896 5.01812 19.7581 5.05266 19.8186C5.0872 19.8791 5.13693 19.9295 5.19694 19.9648C5.25694 20.0002 5.32514 20.0193 5.39478 20.0202C5.46442 20.0211 5.53309 20.0038 5.594 19.97L6.537 19.447C7.1383 19.1128 7.81561 18.9394 8.50352 18.9434C9.19142 18.9474 9.86666 19.1288 10.464 19.47L11.008 19.781C11.3101 19.9536 11.6521 20.0444 12 20.0444C12.3479 20.0444 12.6899 19.9536 12.992 19.781L13.536 19.471C14.1333 19.1297 14.8084 18.9481 15.4964 18.9439C16.1843 18.9397 16.8616 19.113 17.463 19.447L18.406 19.97C18.4669 20.0038 18.5356 20.0211 18.6052 20.0202C18.6749 20.0193 18.7431 20.0002 18.8031 19.9648C18.8631 19.9295 18.9128 19.8791 18.9473 19.8186C18.9819 19.7581 19 19.6896 19 19.62V11C19 10.0807 18.8189 9.17049 18.4672 8.32122C18.1154 7.47194 17.5998 6.70026 16.9497 6.05025C16.2997 5.40024 15.5281 4.88463 14.6788 4.53284C13.8295 4.18106 12.9193 4 12 4ZM3 11C3 8.61305 3.94821 6.32387 5.63604 4.63604C7.32387 2.94821 9.61305 2 12 2C14.3869 2 16.6761 2.94821 18.364 4.63604C20.0518 6.32387 21 8.61305 21 11V19.62C21 21.45 19.034 22.607 17.435 21.719L16.492 21.195C16.1912 21.0279 15.8525 20.9412 15.5084 20.9433C15.1644 20.9454 14.8267 21.0362 14.528 21.207L13.985 21.517C13.3805 21.8625 12.6963 22.0443 12 22.0443C11.3037 22.0443 10.6195 21.8625 10.015 21.517L9.472 21.207C9.17331 21.0362 8.83562 20.9454 8.49157 20.9433C8.14753 20.9412 7.80875 21.0279 7.508 21.195L6.566 21.719C4.966 22.607 3 21.45 3 19.62V11ZM10.5 10.5C10.5 10.8978 10.342 11.2794 10.0607 11.5607C9.77936 11.842 9.39782 12 9 12C8.60218 12 8.22064 11.842 7.93934 11.5607C7.65804 11.2794 7.5 10.8978 7.5 10.5C7.5 10.1022 7.65804 9.72064 7.93934 9.43934C8.22064 9.15804 8.60218 9 9 9C9.39782 9 9.77936 9.15804 10.0607 9.43934C10.342 9.72064 10.5 10.1022 10.5 10.5ZM15 12C15.3978 12 15.7794 11.842 16.0607 11.5607C16.342 11.2794 16.5 10.8978 16.5 10.5C16.5 10.1022 16.342 9.72064 16.0607 9.43934C15.7794 9.15804 15.3978 9 15 9C14.6022 9 14.2206 9.15804 13.9393 9.43934C13.658 9.72064 13.5 10.1022 13.5 10.5C13.5 10.8978 13.658 11.2794 13.9393 11.5607C14.2206 11.842 14.6022 12 15 12Z" fill="currentColor"/>
</svg>
