<svg width="24" height="24" viewBox="0 0 24 24" fill="none" xmlns="http://www.w3.org/2000/svg">
<path fill-rule="evenodd" clip-rule="evenodd" d="M19 4C19.7652 3.99996 20.5015 4.29233 21.0583 4.81728C21.615 5.34224 21.9501 6.06011 21.995 6.824L22 7V17C22 17.7652 21.7077 18.5015 21.1827 19.0583C20.6578 19.615 19.9399 19.9501 19.176 19.995L19 20H5C4.23479 20 3.49849 19.7077 2.94174 19.1827C2.38499 18.6578 2.04989 17.9399 2.005 17.176L2 17V7C1.99996 6.23479 2.29233 5.49849 2.81728 4.94174C3.34224 4.38499 4.06011 4.04989 4.824 4.005L5 4H19ZM19 6H5C4.75507 6.00003 4.51866 6.08996 4.33563 6.25272C4.15259 6.41547 4.03566 6.63975 4.007 6.883L4 7V17C4.00003 17.2449 4.08996 17.4813 4.25272 17.6644C4.41547 17.8474 4.63975 17.9643 4.883 17.993L5 18H19C19.2449 18 19.4813 17.91 19.6644 17.7473C19.8474 17.5845 19.9643 17.3603 19.993 17.117L20 17V7C20 6.75507 19.91 6.51866 19.7473 6.33563C19.5845 6.15259 19.3603 6.03566 19.117 6.007L19 6ZM12.354 8.992C12.6839 8.42053 13.2186 7.99584 13.85 7.80402C14.4813 7.61221 15.162 7.66761 15.754 7.959L15.906 8.039L16.499 8.383C16.8078 8.56115 17.0785 8.7984 17.2955 9.08118C17.5126 9.36396 17.6719 9.68674 17.7642 10.0311C17.8565 10.3754 17.88 10.7346 17.8335 11.088C17.787 11.4415 17.6713 11.7823 17.493 12.091C17.1992 12.6 16.7742 13.0208 16.2624 13.3096C15.7505 13.5984 15.1706 13.7446 14.583 13.733L14.378 13.723L15.346 15.4C15.4746 15.621 15.5136 15.8828 15.4551 16.1317C15.3967 16.3806 15.2451 16.5976 15.0315 16.7382C14.818 16.8788 14.5587 16.9322 14.3069 16.8875C14.0552 16.8429 13.8301 16.7035 13.678 16.498L13.614 16.4L12 13.605L10.386 16.4C10.2578 16.6194 10.0508 16.7818 9.80711 16.8541C9.56345 16.9264 9.3014 16.9032 9.07423 16.7892C8.84705 16.6753 8.6718 16.4791 8.58408 16.2405C8.49637 16.002 8.50277 15.739 8.602 15.505L8.654 15.4L9.622 13.723C9.00151 13.774 8.3793 13.6477 7.82782 13.3588C7.27633 13.0698 6.81828 12.6302 6.507 12.091C6.16229 11.4943 6.05749 10.7888 6.21386 10.1176C6.37023 9.44646 6.77605 8.85992 7.349 8.477L7.501 8.383L8.095 8.04C8.66638 7.71037 9.34169 7.61024 9.98413 7.75989C10.6266 7.90955 11.1881 8.2978 11.555 8.846L11.646 8.992L12 9.604L12.354 8.992ZM14.086 9.992L13.386 11.204L14.005 11.561C14.3002 11.7314 14.651 11.7776 14.9803 11.6894C15.3095 11.6013 15.5903 11.3861 15.761 11.091C15.808 11.0097 15.8384 10.92 15.8507 10.8269C15.8629 10.7339 15.8567 10.6393 15.8324 10.5487C15.808 10.458 15.7661 10.3731 15.7089 10.2986C15.6517 10.2242 15.5803 10.1618 15.499 10.115L14.905 9.772C14.8367 9.73256 14.7613 9.70696 14.6832 9.69667C14.605 9.68639 14.5256 9.69161 14.4494 9.71204C14.3732 9.73247 14.3019 9.76771 14.2393 9.81575C14.1768 9.86379 14.1244 9.92368 14.085 9.992M9.913 9.992C9.84198 9.86877 9.72949 9.77478 9.5956 9.7268C9.46171 9.67881 9.31513 9.67994 9.182 9.73L9.094 9.772L8.5 10.115C8.41866 10.1618 8.34734 10.2242 8.29014 10.2986C8.23294 10.3731 8.19097 10.458 8.16664 10.5487C8.1423 10.6393 8.13608 10.7339 8.14832 10.8269C8.16057 10.92 8.19104 11.0097 8.238 11.091C8.39726 11.3667 8.65313 11.5735 8.95608 11.6714C9.25903 11.7693 9.58752 11.7513 9.878 11.621L9.995 11.561L10.613 11.204L9.913 9.992Z" fill="currentColor"/>
</svg>
