<svg width="24" height="24" viewBox="0 0 24 24" fill="none" xmlns="http://www.w3.org/2000/svg">
<path fill-rule="evenodd" clip-rule="evenodd" d="M8.667 2C10.007 2 11.205 2.608 12 3.564C12.4062 3.07409 12.9156 2.6799 13.4917 2.40954C14.0679 2.13919 14.6966 1.99935 15.333 2H15.4C16.0896 2 16.7509 2.27393 17.2385 2.76152C17.7261 3.24912 18 3.91044 18 4.6C18 5.1 17.892 5.573 17.7 6H18C18.7956 6 19.5587 6.31607 20.1213 6.87868C20.6839 7.44129 21 8.20435 21 9V18C21 18.7957 20.6839 19.5587 20.1213 20.1213C19.5587 20.6839 18.7956 21 18 21H6C5.20435 21 4.44129 20.6839 3.87868 20.1213C3.31607 19.5587 3 18.7957 3 18V9C3 8.20435 3.31607 7.44129 3.87868 6.87868C4.44129 6.31607 5.20435 6 6 6H6.3C6.108 5.573 6 5.1 6 4.6C6 3.91044 6.27393 3.24912 6.76152 2.76152C7.24912 2.27393 7.91044 2 8.6 2H8.667ZM19 14H13V19H18C18.2449 19 18.4813 18.91 18.6644 18.7473C18.8474 18.5845 18.9643 18.3603 18.993 18.117L19 18V14ZM11 14H5V18C5 18.2652 5.10536 18.5196 5.29289 18.7071C5.48043 18.8946 5.73478 19 6 19H11V14ZM11 8H6C5.75507 8.00003 5.51866 8.08996 5.33563 8.25272C5.15259 8.41548 5.03566 8.63975 5.007 8.883L5 9V12H11V8ZM18 8H13V12H19V9C19 8.73479 18.8946 8.48043 18.7071 8.2929C18.5196 8.10536 18.2652 8 18 8ZM8.667 4H8.6C8.44087 4 8.28826 4.06322 8.17574 4.17574C8.06321 4.28826 8 4.44087 8 4.6C8 4.97131 8.1475 5.3274 8.41005 5.58995C8.6726 5.8525 9.0287 6 9.4 6H10.976C10.8957 5.44463 10.618 4.93677 10.1938 4.56947C9.76952 4.20216 9.22815 4 8.667 4ZM15.4 4H15.333C14.213 4 13.278 4.788 13.053 5.84L13.023 6H14.6C14.9713 6 15.3274 5.8525 15.5899 5.58995C15.8525 5.3274 16 4.97131 16 4.6C16 4.45771 15.9494 4.32005 15.8572 4.21161C15.7651 4.10317 15.6374 4.03101 15.497 4.008L15.4 4Z" fill="currentColor"/>
</svg>
