<svg width="24" height="24" viewBox="0 0 24 24" fill="none" xmlns="http://www.w3.org/2000/svg">
<path fill-rule="evenodd" clip-rule="evenodd" d="M17.9998 10C18.2447 10 18.4811 10.09 18.6641 10.2527C18.8472 10.4155 18.9641 10.6398 18.9928 10.883L18.9998 11V15.17C19.6599 15.4029 20.2179 15.8593 20.5771 16.4601C20.9363 17.0609 21.0742 17.7684 20.9668 18.4602C20.8595 19.1519 20.5137 19.7844 19.9893 20.2481C19.4649 20.7118 18.7949 20.9777 18.0952 20.9996C17.3955 21.0215 16.7102 20.7981 16.1578 20.3681C15.6055 19.9381 15.2208 19.3285 15.0704 18.6448C14.92 17.9611 15.0133 17.2464 15.3343 16.6242C15.6552 16.0021 16.1835 15.5118 16.8278 15.238L16.9998 15.17V11C16.9998 10.7348 17.1051 10.4804 17.2927 10.2929C17.4802 10.1054 17.7346 10 17.9998 10ZM5.99978 3.00001C6.69178 2.99979 7.36259 3.23881 7.89853 3.67657C8.43448 4.11434 8.8026 4.72392 8.94053 5.40205C9.07846 6.08017 8.97772 6.78512 8.65537 7.39746C8.33302 8.00981 7.80888 8.49188 7.17178 8.76201L6.99978 8.83001V15.172C7.65982 15.4052 8.21756 15.8618 8.5765 16.4628C8.93544 17.0638 9.07298 17.7714 8.96533 18.4631C8.85768 19.1548 8.5116 19.7871 7.98699 20.2506C7.46238 20.7141 6.79225 20.9796 6.09256 21.0012C5.39286 21.0227 4.70764 20.799 4.15546 20.3688C3.60328 19.9385 3.21889 19.3287 3.06881 18.645C2.91873 17.9612 3.0124 17.2465 3.33361 16.6245C3.65482 16.0026 4.18337 15.5125 4.82778 15.239L4.99978 15.17V8.82901C4.33333 8.59236 3.77188 8.12795 3.41445 7.51771C3.05703 6.90747 2.9266 6.1906 3.04618 5.49358C3.16576 4.79655 3.52766 4.16415 4.06804 3.70793C4.60843 3.25171 5.29257 3.00099 5.99978 3.00001ZM17.9998 17C17.7346 17 17.4802 17.1054 17.2927 17.2929C17.1051 17.4804 16.9998 17.7348 16.9998 18C16.9998 18.2652 17.1051 18.5196 17.2927 18.7071C17.4802 18.8947 17.7346 19 17.9998 19C18.265 19 18.5193 18.8947 18.7069 18.7071C18.8944 18.5196 18.9998 18.2652 18.9998 18C18.9998 17.7348 18.8944 17.4804 18.7069 17.2929C18.5193 17.1054 18.265 17 17.9998 17ZM5.99978 17C5.73456 17 5.48021 17.1054 5.29267 17.2929C5.10513 17.4804 4.99978 17.7348 4.99978 18C4.99978 18.2652 5.10513 18.5196 5.29267 18.7071C5.48021 18.8947 5.73456 19 5.99978 19C6.26499 19 6.51935 18.8947 6.70688 18.7071C6.89442 18.5196 6.99978 18.2652 6.99978 18C6.99978 17.7348 6.89442 17.4804 6.70688 17.2929C6.51935 17.1054 6.26499 17 5.99978 17ZM15.1718 3.17201C15.3438 2.99968 15.5729 2.89607 15.8159 2.8806C16.0589 2.86514 16.2993 2.93888 16.4918 3.08801L16.5858 3.17201L17.9998 4.58601L19.4138 3.17201C19.5933 2.99075 19.8353 2.88497 20.0903 2.87632C20.3453 2.86767 20.5939 2.9568 20.7854 3.12547C20.9768 3.29414 21.0965 3.52959 21.12 3.78363C21.1435 4.03767 21.069 4.29109 20.9118 4.49201L20.8278 4.58601L19.4138 6.00001L20.8278 7.41401C21.009 7.59355 21.1148 7.83558 21.1235 8.09055C21.1321 8.34553 21.043 8.59417 20.8743 8.78559C20.7056 8.977 20.4702 9.09671 20.2162 9.12021C19.9621 9.14371 19.7087 9.06923 19.5078 8.91201L19.4138 8.82801L17.9998 7.41401L16.5858 8.82801C16.4062 9.00926 16.1642 9.11504 15.9092 9.12369C15.6543 9.13234 15.4056 9.04321 15.2142 8.87454C15.0228 8.70587 14.9031 8.47042 14.8796 8.21638C14.8561 7.96234 14.9306 7.70893 15.0878 7.50801L15.1718 7.41401L16.5858 6.00001L15.1718 4.58601C14.9843 4.39848 14.879 4.14417 14.879 3.87901C14.879 3.61384 14.9843 3.35953 15.1718 3.17201ZM5.99978 5.00001C5.73456 5.00001 5.48021 5.10536 5.29267 5.2929C5.10513 5.48044 4.99978 5.73479 4.99978 6.00001C4.99978 6.26522 5.10513 6.51958 5.29267 6.70711C5.48021 6.89465 5.73456 7.00001 5.99978 7.00001C6.26499 7.00001 6.51935 6.89465 6.70688 6.70711C6.89442 6.51958 6.99978 6.26522 6.99978 6.00001C6.99978 5.73479 6.89442 5.48044 6.70688 5.2929C6.51935 5.10536 6.26499 5.00001 5.99978 5.00001Z" fill="currentColor"/>
</svg>
