<svg width="24" height="24" viewBox="0 0 24 24" fill="none" xmlns="http://www.w3.org/2000/svg">
<path d="M12 2C17.523 2 22 6.477 22 12C22 17.523 17.523 22 12 22C6.477 22 2 17.523 2 12C2 6.477 6.477 2 12 2ZM12 4C9.87827 4 7.84344 4.84285 6.34315 6.34315C4.84285 7.84344 4 9.87827 4 12C4 14.1217 4.84285 16.1566 6.34315 17.6569C7.84344 19.1571 9.87827 20 12 20C14.1217 20 16.1566 19.1571 17.6569 17.6569C19.1571 16.1566 20 14.1217 20 12C20 9.87827 19.1571 7.84344 17.6569 6.34315C16.1566 4.84285 14.1217 4 12 4ZM9.243 6.212C9.6525 6.35188 10.045 6.53738 10.413 6.765C10.9337 6.64668 11.466 6.5873 12 6.588C12.548 6.588 13.08 6.649 13.586 6.765C13.954 6.5374 14.3465 6.3519 14.756 6.212L15.04 6.12C15.433 6.003 15.87 5.927 16.237 6.11C16.407 6.195 16.549 6.328 16.651 6.488C16.859 6.814 16.934 7.234 16.98 7.611C17.022 7.957 17.037 8.41 16.947 8.881C17.394 9.516 17.667 10.268 17.667 11.088C17.667 12.933 16.352 14.35 14.662 15.064C14.7 15.211 14.727 15.363 14.74 15.519L14.75 15.765L14.721 18.51C14.7197 18.6413 14.6925 18.7711 14.6411 18.8919C14.5896 19.0127 14.5148 19.1222 14.421 19.2142C14.3272 19.3061 14.2163 19.3787 14.0944 19.4277C13.9726 19.4767 13.8423 19.5013 13.711 19.5C13.5797 19.4987 13.4499 19.4715 13.3291 19.4201C13.2083 19.3686 13.0988 19.2938 13.0068 19.2C12.9149 19.1062 12.8423 18.9953 12.7933 18.8734C12.7443 18.7516 12.7197 18.6213 12.721 18.49L12.75 15.75C12.7494 15.5793 12.6901 15.4141 12.582 15.282L12.514 15.209C11.91 14.639 12.218 13.648 13.007 13.49C14.747 13.143 15.667 12.044 15.667 11.088C15.667 10.641 15.485 10.191 15.11 9.782C14.9957 9.65729 14.9147 9.50577 14.8745 9.34147C14.8343 9.17717 14.8362 9.00538 14.88 8.842L14.92 8.719C14.973 8.592 15.002 8.434 15.01 8.263C14.7903 8.36512 14.5824 8.49086 14.39 8.638C14.2619 8.73606 14.1123 8.80233 13.9536 8.83136C13.7949 8.86039 13.6315 8.85136 13.477 8.805C12.9982 8.65957 12.5004 8.58643 12 8.588C11.47 8.588 10.971 8.667 10.521 8.805C10.3665 8.8515 10.2032 8.8607 10.0445 8.83184C9.88582 8.80298 9.73621 8.73689 9.608 8.639C9.41529 8.49145 9.20706 8.36537 8.987 8.263C8.993 8.392 9.011 8.513 9.042 8.619L9.078 8.72C9.227 9.081 9.153 9.496 8.889 9.783C8.514 10.192 8.333 10.641 8.333 11.088C8.333 12.044 9.253 13.143 10.993 13.49C11.744 13.64 12.06 14.547 11.566 15.125L11.486 15.209C11.3616 15.3252 11.2808 15.4805 11.257 15.649L11.25 15.765L11.221 18.51C11.2197 18.6413 11.1925 18.7711 11.1411 18.8919C11.0896 19.0127 11.0148 19.1222 10.921 19.2142C10.8272 19.3061 10.7163 19.3787 10.5944 19.4277C10.4726 19.4767 10.3423 19.5013 10.211 19.5C10.0797 19.4987 9.9499 19.4715 9.82908 19.4201C9.70825 19.3686 9.59875 19.2938 9.50682 19.2C9.41489 19.1062 9.34234 18.9953 9.29329 18.8734C9.24425 18.7516 9.21969 18.6213 9.221 18.49L9.226 18.033C8.838 18.032 8.491 17.963 8.18 17.831C7.79522 17.6621 7.4572 17.4024 7.195 17.074C7.14747 17.0143 7.10404 16.9515 7.065 16.886L6.924 16.652C6.801 16.452 6.664 16.26 6.513 16.212C6.41836 16.1819 6.33064 16.1332 6.25495 16.0689C6.17925 16.0046 6.11709 15.9259 6.07206 15.8373C6.02703 15.7488 6.00004 15.6522 5.99265 15.5532C5.98526 15.4541 5.99762 15.3546 6.02901 15.2603C6.0604 15.1661 6.1102 15.079 6.17551 15.0042C6.24082 14.9294 6.32035 14.8683 6.40947 14.8244C6.4986 14.7806 6.59554 14.7548 6.69468 14.7488C6.79383 14.7427 6.89319 14.7564 6.987 14.789C7.424 14.934 7.702 15.247 7.881 15.479C8.041 15.687 8.179 15.912 8.347 16.114C8.484 16.278 8.612 16.385 8.766 16.45C8.872 16.495 9.022 16.534 9.242 16.533L9.25 15.749C9.25 15.512 9.28 15.283 9.338 15.064C7.648 14.35 6.333 12.933 6.333 11.088C6.333 10.268 6.605 9.518 7.051 8.883C6.97488 8.46353 6.96375 8.03485 7.018 7.612C7.064 7.235 7.138 6.814 7.347 6.488C7.449 6.328 7.591 6.196 7.761 6.11C8.127 5.927 8.565 6.003 8.958 6.12L9.243 6.212Z" fill="currentColor"/>
</svg>
