<svg width="24" height="24" viewBox="0 0 24 24" fill="none" xmlns="http://www.w3.org/2000/svg">
<path d="M17.2551 1.62499C17.432 1.42742 17.6802 1.3082 17.945 1.29358C18.2098 1.27895 18.4695 1.37011 18.6671 1.54699C19.7168 2.48401 20.5565 3.63247 21.1309 4.91696C21.7053 6.20145 22.0015 7.59291 22.0001 8.99999C22.0001 14.091 18.1961 18.294 13.2751 18.92L13.0001 18.95V20H16.0001C16.255 20.0003 16.5002 20.0979 16.6855 20.2728C16.8708 20.4478 16.9824 20.6869 16.9973 20.9414C17.0122 21.1958 16.9295 21.4464 16.7659 21.6418C16.6023 21.8373 16.3702 21.9629 16.1171 21.993L16.0001 22H8.00013C7.74525 21.9997 7.5001 21.9021 7.31476 21.7271C7.12943 21.5522 7.01789 21.313 7.00296 21.0586C6.98802 20.8042 7.0708 20.5536 7.23439 20.3582C7.39798 20.1627 7.63003 20.0371 7.88313 20.007L8.00013 20H11.0001V18.95C9.52679 18.8023 8.10465 18.3292 6.83649 17.5648C5.56832 16.8004 4.48579 15.7638 3.66713 14.53C3.52033 14.3091 3.46731 14.0389 3.51973 13.7789C3.57214 13.5188 3.7257 13.2903 3.94663 13.1435C4.16756 12.9967 4.43775 12.9437 4.69777 12.9961C4.95779 13.0485 5.18633 13.2021 5.33313 13.423C6.03389 14.4801 6.97615 15.3553 8.08205 15.9763C9.18795 16.5972 10.4257 16.946 11.6931 16.994L12.0111 17C13.6304 16.9977 15.2109 16.5042 16.5436 15.5845C17.8764 14.6648 18.8987 13.3623 19.4754 11.8493C20.0521 10.3362 20.1561 8.68369 19.7736 7.11024C19.3911 5.5368 18.5401 4.11647 17.3331 3.03699C17.1356 2.86009 17.0163 2.61195 17.0017 2.34715C16.9871 2.08235 17.0782 1.82259 17.2551 1.62499ZM12.0001 1.99999C13.8566 1.99999 15.6371 2.73749 16.9499 4.05025C18.2626 5.363 19.0001 7.14348 19.0001 8.99999C19.0001 10.8565 18.2626 12.637 16.9499 13.9497C15.6371 15.2625 13.8566 16 12.0001 16C10.1436 16 8.36314 15.2625 7.05038 13.9497C5.73763 12.637 5.00013 10.8565 5.00013 8.99999C5.00013 7.14348 5.73763 5.363 7.05038 4.05025C8.36314 2.73749 10.1436 1.99999 12.0001 1.99999ZM12.0001 3.99999C10.674 3.99999 9.40228 4.52678 8.4646 5.46446C7.52691 6.40214 7.00013 7.67391 7.00013 8.99999C7.00013 10.3261 7.52691 11.5978 8.4646 12.5355C9.40228 13.4732 10.674 14 12.0001 14C13.3262 14 14.598 13.4732 15.5357 12.5355C16.4733 11.5978 17.0001 10.3261 17.0001 8.99999C17.0001 7.67391 16.4733 6.40214 15.5357 5.46446C14.598 4.52678 13.3262 3.99999 12.0001 3.99999Z" fill="currentColor"/>
</svg>
