<svg width="24" height="24" viewBox="0 0 24 24" fill="none" xmlns="http://www.w3.org/2000/svg">
<path fill-rule="evenodd" clip-rule="evenodd" d="M20.25 10.7C20.4782 10.8316 20.6678 11.021 20.7996 11.2491C20.9314 11.4772 21.0008 11.7361 21.0008 11.9995C21.0008 12.263 20.9314 12.5218 20.7996 12.7499C20.6678 12.978 20.4782 13.1674 20.25 13.299L5.25 21.959C5.02197 22.0907 4.76331 22.16 4.50001 22.16C4.23671 22.16 3.97804 22.0907 3.75002 21.959C3.52199 21.8274 3.33263 21.638 3.20098 21.41C3.06932 21.182 3.00001 20.9233 3 20.66V3.34001C2.99983 3.07663 3.06902 2.81784 3.2006 2.58968C3.33218 2.36151 3.52153 2.17202 3.74958 2.04025C3.97764 1.90849 4.23637 1.83909 4.49976 1.83905C4.76315 1.83901 5.0219 1.90832 5.25 2.04001L20.25 10.7ZM18.5 12L15.277 10.139L13.42 11.999L15.277 13.861L18.5 12ZM6.644 18.795L13.384 14.795L12.008 13.416L6.644 18.795ZM12.008 10.584L13.384 9.20401L6.644 5.20501L12.008 10.584ZM5 6.38901V17.61L10.596 12L5 6.38901Z" fill="currentColor"/>
</svg>
