<svg width="24" height="24" viewBox="0 0 24 24" fill="none" xmlns="http://www.w3.org/2000/svg">
<path d="M21 7C21.2549 7.00028 21.5 7.09788 21.6854 7.27285C21.8707 7.44782 21.9822 7.68695 21.9972 7.94139C22.0121 8.19584 21.9293 8.44638 21.7657 8.64183C21.6021 8.83729 21.3701 8.9629 21.117 8.993L21 9V19C21.2549 19.0003 21.5 19.0979 21.6854 19.2728C21.8707 19.4478 21.9822 19.687 21.9972 19.9414C22.0121 20.1958 21.9293 20.4464 21.7657 20.6418C21.6021 20.8373 21.3701 20.9629 21.117 20.993L21 21H2.99999C2.74511 20.9997 2.49996 20.9021 2.31462 20.7272C2.12929 20.5522 2.01776 20.313 2.00282 20.0586C1.98788 19.8042 2.07067 19.5536 2.23426 19.3582C2.39785 19.1627 2.62989 19.0371 2.88299 19.007L2.99999 19V9C2.74511 8.99972 2.49996 8.90212 2.31462 8.72715C2.12929 8.55218 2.01776 8.31305 2.00282 8.05861C1.98788 7.80416 2.07067 7.55362 2.23426 7.35817C2.39785 7.16271 2.62989 7.0371 2.88299 7.007L2.99999 7H21ZM19 9H4.99999V19H6.99999V12C6.99999 11.7348 7.10535 11.4804 7.29288 11.2929C7.48042 11.1054 7.73477 11 7.99999 11C8.26521 11 8.51956 11.1054 8.7071 11.2929C8.89463 11.4804 8.99999 11.7348 8.99999 12V19H11V12C11 11.7348 11.1053 11.4804 11.2929 11.2929C11.4804 11.1054 11.7348 11 12 11C12.2652 11 12.5196 11.1054 12.7071 11.2929C12.8946 11.4804 13 11.7348 13 12V19H15V12C15 11.7348 15.1053 11.4804 15.2929 11.2929C15.4804 11.1054 15.7348 11 16 11C16.2652 11 16.5196 11.1054 16.7071 11.2929C16.8946 11.4804 17 11.7348 17 12V19H19V9ZM18 4C18.2652 4 18.5196 4.10536 18.7071 4.29289C18.8946 4.48043 19 4.73478 19 5C19 5.26522 18.8946 5.51957 18.7071 5.70711C18.5196 5.89464 18.2652 6 18 6H5.99999C5.73477 6 5.48042 5.89464 5.29288 5.70711C5.10535 5.51957 4.99999 5.26522 4.99999 5C4.99999 4.73478 5.10535 4.48043 5.29288 4.29289C5.48042 4.10536 5.73477 4 5.99999 4H18Z" fill="currentColor"/>
</svg>
