<svg width="24" height="24" viewBox="0 0 24 24" fill="none" xmlns="http://www.w3.org/2000/svg">
<path d="M4.455 9.333C5.00724 7.77334 6.02926 6.42314 7.38041 5.4682C8.73156 4.51326 10.3455 4.00051 12 4.00051C13.6545 4.00051 15.2684 4.51326 16.6196 5.4682C17.9707 6.42314 18.9928 7.77334 19.545 9.333C19.6333 9.5831 19.8174 9.78787 20.0567 9.90227C20.296 10.0167 20.5709 10.0313 20.821 9.943C21.0711 9.85468 21.2759 9.67063 21.3903 9.43134C21.5047 9.19204 21.5193 8.9171 21.431 8.667C20.058 4.784 16.356 2 12 2C7.643 2 3.94 4.784 2.568 8.667C2.52427 8.79084 2.50536 8.92207 2.51235 9.05322C2.51934 9.18436 2.55209 9.31285 2.60873 9.43134C2.72313 9.67063 2.9279 9.85468 3.178 9.943C3.4281 10.0313 3.70304 10.0167 3.94234 9.90227C4.06082 9.84562 4.16699 9.7662 4.25478 9.66852C4.34258 9.57085 4.41127 9.45684 4.455 9.333ZM4.455 14.667C4.41127 14.5432 4.34358 14.4292 4.25578 14.3315C4.16799 14.2338 4.06182 14.1544 3.94334 14.0977C3.82485 14.0411 3.69636 14.0083 3.56522 14.0013C3.43407 13.9944 3.30284 14.0133 3.179 14.057C3.05516 14.1007 2.94115 14.1684 2.84348 14.2562C2.7458 14.344 2.66638 14.4502 2.60973 14.5687C2.55309 14.6872 2.52034 14.8156 2.51335 14.9468C2.50636 15.0779 2.52527 15.2092 2.569 15.333C3.942 19.216 7.644 22 12 22C16.356 22 20.058 19.216 21.43 15.333C21.4781 15.2082 21.5007 15.0751 21.4964 14.9415C21.4922 14.8078 21.4612 14.6764 21.4053 14.5549C21.3493 14.4335 21.2696 14.3245 21.1708 14.2344C21.072 14.1443 20.9562 14.0749 20.8301 14.0304C20.704 13.9858 20.5703 13.967 20.4368 13.9751C20.3034 13.9831 20.1729 14.0178 20.053 14.0772C19.9332 14.1365 19.8265 14.2193 19.7393 14.3206C19.652 14.4219 19.5859 14.5397 19.545 14.667C18.9928 16.2267 17.9707 17.5769 16.6196 18.5318C15.2684 19.4867 13.6545 19.9995 12 19.9995C10.3455 19.9995 8.73156 19.4867 7.38041 18.5318C6.02926 17.5769 5.00724 16.2267 4.455 14.667ZM13.5 12C13.5 12.3978 13.342 12.7794 13.0607 13.0607C12.7794 13.342 12.3978 13.5 12 13.5C11.6022 13.5 11.2206 13.342 10.9393 13.0607C10.658 12.7794 10.5 12.3978 10.5 12C10.5 11.6022 10.658 11.2206 10.9393 10.9393C11.2206 10.658 11.6022 10.5 12 10.5C12.3978 10.5 12.7794 10.658 13.0607 10.9393C13.342 11.2206 13.5 11.6022 13.5 12ZM2 12C2 11.7348 2.10536 11.4804 2.29289 11.2929C2.48043 11.1054 2.73478 11 3 11H8C8.26522 11 8.51957 11.1054 8.70711 11.2929C8.89464 11.4804 9 11.7348 9 12C9 12.2652 8.89464 12.5196 8.70711 12.7071C8.51957 12.8946 8.26522 13 8 13H3C2.73478 13 2.48043 12.8946 2.29289 12.7071C2.10536 12.5196 2 12.2652 2 12ZM15 12C15 11.7348 15.1054 11.4804 15.2929 11.2929C15.4804 11.1054 15.7348 11 16 11H21C21.2652 11 21.5196 11.1054 21.7071 11.2929C21.8946 11.4804 22 11.7348 22 12C22 12.2652 21.8946 12.5196 21.7071 12.7071C21.5196 12.8946 21.2652 13 21 13H16C15.7348 13 15.4804 12.8946 15.2929 12.7071C15.1054 12.5196 15 12.2652 15 12Z" fill="currentColor"/>
</svg>
