<svg width="24" height="24" viewBox="0 0 24 24" fill="none" xmlns="http://www.w3.org/2000/svg">
<path d="M6.35603 3.235C6.51686 3.09955 6.71628 3.01823 6.92597 3.00261C7.13565 2.98699 7.34492 3.03787 7.52403 3.148C10.98 5.275 12.874 7.966 13.884 10.928C14.134 11.661 14.329 12.408 14.48 13.164C15.509 11.434 17.153 10.062 19.629 9.072C19.8036 9.00228 19.9943 8.98319 20.1793 9.0169C20.3642 9.05062 20.5359 9.13579 20.6746 9.26264C20.8134 9.38948 20.9136 9.55287 20.9637 9.73405C21.0138 9.91524 21.0119 10.1069 20.958 10.287L20.777 10.891C19.417 15.419 19 16.806 19 20C19 20.2652 18.8947 20.5196 18.7071 20.7071C18.5196 20.8946 18.2653 21 18 21C17.7348 21 17.4805 20.8946 17.2929 20.7071C17.1054 20.5196 17 20.2652 17 20C17 16.945 17.38 15.3 18.37 11.958C17.248 12.702 16.509 13.566 16.013 14.523C15.248 15.997 15 17.805 15 20C15 20.2652 14.8947 20.5196 14.7071 20.7071C14.5196 20.8946 14.2653 21 14 21C13.7348 21 13.4805 20.8946 13.2929 20.7071C13.1054 20.5196 13 20.2652 13 20C13 17.008 12.87 14.153 11.991 11.573C11.401 9.844 10.469 8.222 8.97303 6.771C9.99003 10.631 10 14.355 10 19.745V20C10 20.2652 9.89468 20.5196 9.70714 20.7071C9.51961 20.8946 9.26525 21 9.00003 21C8.73482 21 8.48046 20.8946 8.29293 20.7071C8.10539 20.5196 8.00003 20.2652 8.00003 20C8.00003 17.71 7.99003 15.629 7.42303 13.87C7.09703 12.857 6.58303 11.95 5.74003 11.196C6.66003 14.349 7.00003 16.683 7.00003 20C7.00003 20.2652 6.89468 20.5196 6.70714 20.7071C6.5196 20.8946 6.26525 21 6.00003 21C5.73482 21 5.48046 20.8946 5.29293 20.7071C5.10539 20.5196 5.00003 20.2652 5.00003 20C5.00003 16.136 4.52804 13.745 3.05104 9.316C2.99092 9.13513 2.98375 8.94085 3.03037 8.75604C3.07699 8.57123 3.17545 8.40359 3.31415 8.27287C3.45286 8.14215 3.62604 8.05379 3.81328 8.01821C4.00053 7.98262 4.19404 8.00128 4.37103 8.072C5.76603 8.629 6.82603 9.373 7.62603 10.252C7.35832 8.23426 6.83617 6.25854 6.07203 4.372C5.99373 4.1767 5.97903 3.96168 6.03002 3.75754C6.08101 3.5534 6.1951 3.37054 6.35603 3.235Z" fill="currentColor"/>
</svg>
