<svg width="24" height="24" viewBox="0 0 24 24" fill="none" xmlns="http://www.w3.org/2000/svg">
<path fill-rule="evenodd" clip-rule="evenodd" d="M6.5 3C6.87288 3.00002 7.23239 3.13892 7.50842 3.38962C7.78445 3.64032 7.9572 3.98484 7.993 4.356L8 4.5V6H9V4.5C9.00002 4.12712 9.13892 3.76761 9.38962 3.49158C9.64032 3.21555 9.98484 3.0428 10.356 3.007L10.5 3H13.5C13.8729 3.00002 14.2324 3.13892 14.5084 3.38962C14.7844 3.64032 14.9572 3.98484 14.993 4.356L15 4.5V6H16V4.5C16 4.12712 16.1389 3.76761 16.3896 3.49158C16.6403 3.21555 16.9848 3.0428 17.356 3.007L17.5 3H20.5C20.8729 3.00002 21.2324 3.13892 21.5084 3.38962C21.7844 3.64032 21.9572 3.98484 21.993 4.356L22 4.5V19.5C22 19.8729 21.8611 20.2324 21.6104 20.5084C21.3597 20.7844 21.0152 20.9572 20.644 20.993L20.5 21H3.5C3.12712 21 2.76761 20.8611 2.49158 20.6104C2.21555 20.3597 2.0428 20.0152 2.007 19.644L2 19.5V4.5C2.00002 4.12712 2.13892 3.76761 2.38962 3.49158C2.64032 3.21555 2.98484 3.0428 3.356 3.007L3.5 3H6.5ZM20 16H17V19H20V16ZM15 16H9V19H15V16ZM7 16H4V19H7V16ZM20 12H13V14H20V12ZM11 12H4V14H11V12ZM6 5H4V10H20V5H18V6.5C18 6.89782 17.842 7.27936 17.5607 7.56066C17.2794 7.84196 16.8978 8 16.5 8H14.5C14.1022 8 13.7206 7.84196 13.4393 7.56066C13.158 7.27936 13 6.89782 13 6.5V5H11V6.5C11 6.89782 10.842 7.27936 10.5607 7.56066C10.2794 7.84196 9.89782 8 9.5 8H7.5C7.10218 8 6.72064 7.84196 6.43934 7.56066C6.15804 7.27936 6 6.89782 6 6.5V5Z" fill="currentColor"/>
</svg>
