<svg width="24" height="24" viewBox="0 0 24 24" fill="none" xmlns="http://www.w3.org/2000/svg">
<path fill-rule="evenodd" clip-rule="evenodd" d="M3 5C3 4.46957 3.21071 3.96086 3.58579 3.58579C3.96086 3.21071 4.46957 3 5 3H19C19.5304 3 20.0391 3.21071 20.4142 3.58579C20.7893 3.96086 21 4.46957 21 5V19C21 19.5304 20.7893 20.0391 20.4142 20.4142C20.0391 20.7893 19.5304 21 19 21H5C4.46957 21 3.96086 20.7893 3.58579 20.4142C3.21071 20.0391 3 19.5304 3 19V5ZM19 5H5V19H19V5ZM15.6 7.2C15.8122 7.35913 15.9524 7.59603 15.9899 7.85858C16.0275 8.12113 15.9591 8.38783 15.8 8.6L9.8 16.6C9.72121 16.7051 9.62249 16.7936 9.50949 16.8605C9.39649 16.9274 9.27142 16.9714 9.14142 16.99C9.01142 17.0085 8.87903 17.0013 8.75182 16.9687C8.62461 16.9361 8.50506 16.8788 8.4 16.8C8.29494 16.7212 8.20643 16.6225 8.13953 16.5095C8.07262 16.3965 8.02862 16.2714 8.01005 16.1414C7.99148 16.0114 7.99869 15.879 8.03129 15.7518C8.06388 15.6246 8.12121 15.5051 8.2 15.4L14.2 7.4C14.2788 7.29494 14.3775 7.20643 14.4905 7.13953C14.6035 7.07262 14.7286 7.02862 14.8586 7.01005C14.9886 6.99148 15.121 6.99869 15.2482 7.03129C15.3754 7.06388 15.4949 7.12121 15.6 7.2Z" fill="currentColor"/>
</svg>
