<svg width="24" height="24" viewBox="0 0 24 24" fill="none" xmlns="http://www.w3.org/2000/svg">
<path fill-rule="evenodd" clip-rule="evenodd" d="M5 7.5C5 6.90905 5.1164 6.32389 5.34254 5.77792C5.56869 5.23196 5.90016 4.73588 6.31802 4.31802C6.73588 3.90016 7.23196 3.56869 7.77792 3.34254C8.32389 3.1164 8.90905 3 9.5 3C10.0909 3 10.6761 3.1164 11.2221 3.34254C11.768 3.56869 12.2641 3.90016 12.682 4.31802C13.0998 4.73588 13.4313 5.23196 13.6575 5.77792C13.8836 6.32389 14 6.90905 14 7.5C14 8.69347 13.5259 9.83807 12.682 10.682C11.8381 11.5259 10.6935 12 9.5 12C8.30653 12 7.16193 11.5259 6.31802 10.682C5.47411 9.83807 5 8.69347 5 7.5ZM9.5 5C8.83696 5 8.20107 5.26339 7.73223 5.73223C7.26339 6.20107 7 6.83696 7 7.5C7 8.16304 7.26339 8.79893 7.73223 9.26777C8.20107 9.73661 8.83696 10 9.5 10C10.163 10 10.7989 9.73661 11.2678 9.26777C11.7366 8.79893 12 8.16304 12 7.5C12 6.83696 11.7366 6.20107 11.2678 5.73223C10.7989 5.26339 10.163 5 9.5 5ZM9.5 13C11.493 13 13.305 13.608 14.637 14.466C15.304 14.896 15.875 15.403 16.29 15.956C16.697 16.501 17 17.156 17 17.857C17 18.612 16.65 19.217 16.136 19.654C15.651 20.064 15.019 20.33 14.366 20.513C13.053 20.88 11.316 21 9.5 21C7.684 21 5.947 20.88 4.635 20.513C3.981 20.33 3.349 20.064 2.865 19.654C2.349 19.218 2 18.612 2 17.857C2 17.155 2.303 16.501 2.71 15.957C3.125 15.403 3.696 14.895 4.363 14.467C5.695 13.607 7.507 13 9.5 13ZM9.5 15C7.903 15 6.465 15.492 5.445 16.148C4.935 16.476 4.555 16.83 4.311 17.155C4.061 17.489 4 17.731 4 17.857C4 17.931 4.015 18.007 4.157 18.127C4.33 18.275 4.651 18.441 5.173 18.587C6.213 18.877 7.726 19 9.5 19C11.274 19 12.787 18.877 13.827 18.587C14.349 18.441 14.67 18.275 14.843 18.127C14.985 18.007 15 17.931 15 17.857C15 17.731 14.939 17.489 14.689 17.155C14.445 16.83 14.065 16.476 13.555 16.148C12.535 15.492 11.097 15 9.5 15ZM18 13C19.32 13 20.518 13.436 21.4 14.051C22.222 14.624 23 15.528 23 16.571C23 17.158 22.747 17.644 22.362 17.997C22.005 18.325 21.553 18.525 21.118 18.657C20.248 18.92 19.128 19 18 19H17.797C17.927 18.652 18 18.27 18 17.857C18 17.633 17.978 17.417 17.94 17.207L17.893 17H18C19.081 17 19.96 16.918 20.539 16.743C20.801 16.663 20.936 16.583 20.994 16.537C20.965 16.419 20.809 16.077 20.256 15.692C19.7739 15.3643 19.2261 15.1456 18.6508 15.0513C18.0755 14.957 17.4865 14.9893 16.925 15.146C16.4409 14.5712 15.8732 14.0723 15.241 13.666C16.095 13.2289 17.0406 13.0006 18 13ZM15 9C15 8.20435 15.3161 7.44129 15.8787 6.87868C16.4413 6.31607 17.2044 6 18 6C18.7956 6 19.5587 6.31607 20.1213 6.87868C20.6839 7.44129 21 8.20435 21 9C21 9.79565 20.6839 10.5587 20.1213 11.1213C19.5587 11.6839 18.7956 12 18 12C17.2044 12 16.4413 11.6839 15.8787 11.1213C15.3161 10.5587 15 9.79565 15 9ZM18 8C17.7348 8 17.4804 8.10536 17.2929 8.29289C17.1054 8.48043 17 8.73478 17 9C17 9.26522 17.1054 9.51957 17.2929 9.70711C17.4804 9.89464 17.7348 10 18 10C18.2652 10 18.5196 9.89464 18.7071 9.70711C18.8946 9.51957 19 9.26522 19 9C19 8.73478 18.8946 8.48043 18.7071 8.29289C18.5196 8.10536 18.2652 8 18 8Z" fill="currentColor"/>
</svg>
