<svg width="24" height="24" viewBox="0 0 24 24" fill="none" xmlns="http://www.w3.org/2000/svg">
<path fill-rule="evenodd" clip-rule="evenodd" d="M12 3C14.3869 3 16.6761 3.94821 18.364 5.63604C20.0518 7.32387 21 9.61305 21 12V18C21 18.7956 20.6839 19.5587 20.1213 20.1213C19.5587 20.6839 18.7956 21 18 21H16.618C16.2658 20.9999 15.9199 20.9068 15.6153 20.7302C15.3106 20.5535 15.058 20.2996 14.883 19.994C13.947 20.635 12.916 21 12 21C11.084 21 10.053 20.634 9.117 19.994C8.94198 20.2996 8.68937 20.5535 8.38471 20.7302C8.08006 20.9068 7.73416 20.9999 7.382 21H6C5.20435 21 4.44129 20.6839 3.87868 20.1213C3.31607 19.5587 3 18.7956 3 18V12C3 9.61305 3.94821 7.32387 5.63604 5.63604C7.32387 3.94821 9.61305 3 12 3ZM12 5C10.1435 5 8.36301 5.7375 7.05025 7.05025C5.7375 8.36301 5 10.1435 5 12V18C5 18.2652 5.10536 18.5196 5.29289 18.7071C5.48043 18.8946 5.73478 19 6 19H7.382L7.591 18.582C6.661 17.429 6 15.88 6 14C6 13.21 6.133 12.426 6.373 11.688C6.44003 11.482 6.57211 11.3034 6.74938 11.179C6.92665 11.0546 7.13953 10.991 7.356 10.998C8.1016 11.0187 8.84079 10.8552 9.50814 10.522C10.1755 10.1889 10.7504 9.69633 11.182 9.088C11.2743 8.95678 11.3968 8.84968 11.5391 8.77574C11.6815 8.70181 11.8396 8.66322 12 8.66322C12.1604 8.66322 12.3185 8.70181 12.4609 8.77574C12.6032 8.84968 12.7257 8.95678 12.818 9.088C13.2495 9.6964 13.8244 10.189 14.4918 10.5221C15.1592 10.8553 15.8984 11.0188 16.644 10.998C16.8605 10.991 17.0733 11.0546 17.2506 11.179C17.4279 11.3034 17.56 11.482 17.627 11.688C17.867 12.426 18 13.209 18 14C18 15.88 17.339 17.429 16.409 18.582L16.618 19H18C18.2652 19 18.5196 18.8946 18.7071 18.7071C18.8946 18.5196 19 18.2652 19 18V12C19 10.1435 18.2625 8.36301 16.9497 7.05025C15.637 5.7375 13.8565 5 12 5ZM12 11.19C10.9404 12.2089 9.56585 12.8373 8.102 12.972C8.03486 13.3106 8.0007 13.6548 8 14C8 15.618 8.657 16.872 9.506 17.727C10.386 18.614 11.396 19 12 19C12.605 19 13.613 18.614 14.494 17.727C15.343 16.872 16 15.618 16 14C15.9993 13.6552 15.9651 13.3112 15.898 12.973C14.434 12.8381 13.0594 12.2093 12 11.19Z" fill="currentColor"/>
</svg>
