<svg width="24" height="24" viewBox="0 0 24 24" fill="none" xmlns="http://www.w3.org/2000/svg">
<path fill-rule="evenodd" clip-rule="evenodd" d="M5.84433 4.566C7.44633 3.643 9.61933 3 12.0003 3C14.3813 3 16.5543 3.643 18.1563 4.566C18.9563 5.028 19.6443 5.576 20.1433 6.181C20.6333 6.776 21.0003 7.499 21.0003 8.286C21.0003 9.078 20.6203 9.698 20.0103 10.107C19.4663 10.472 18.7603 10.66 18.0293 10.774C17.4493 10.864 16.7703 10.919 16.0103 10.951L15.2243 10.977L14.3873 10.992L13.5023 10.998H10.4983L9.61333 10.992L8.77633 10.977L7.99033 10.951C7.31461 10.9288 6.64061 10.8697 5.97133 10.774C5.24133 10.66 4.53433 10.472 3.99033 10.107C3.38033 9.697 3.00033 9.077 3.00033 8.286C3.00033 7.499 3.36633 6.776 3.85733 6.181C4.35633 5.577 5.04333 5.028 5.84433 4.566ZM5.40033 7.454C5.21033 7.683 5.00033 7.981 5.00033 8.293C5.00033 8.528 5.44033 8.656 5.81033 8.726L6.04333 8.764L6.27933 8.798C6.65533 8.856 7.08633 8.898 7.57033 8.928L8.17833 8.958L8.83833 8.978L9.55033 8.99L11.1303 9L13.2843 8.999L14.0743 8.994L14.8133 8.985L15.4993 8.969L15.8223 8.958L16.4303 8.928C16.8173 8.904 17.1703 8.872 17.4893 8.831L17.7873 8.789L18.1803 8.74C18.5593 8.683 19.0003 8.57 19.0003 8.286C19.0003 8.126 18.9193 7.84 18.6003 7.454C18.2893 7.077 17.8053 6.672 17.1573 6.299C15.8643 5.553 14.0373 5 12.0003 5C9.96333 5 8.13633 5.553 6.84333 6.3C6.19533 6.672 5.71133 7.077 5.40033 7.454ZM4.33633 11.908C4.82911 11.5795 5.40809 11.4042 6.00033 11.4042C6.59256 11.4042 7.17154 11.5795 7.66433 11.908L8.44533 12.428C8.60966 12.5376 8.80278 12.5961 9.00033 12.5961C9.19787 12.5961 9.391 12.5376 9.55533 12.428L10.3353 11.908C10.8283 11.5791 11.4077 11.4036 12.0003 11.4036C12.593 11.4036 13.1723 11.5791 13.6653 11.908L14.4453 12.428C14.6097 12.5376 14.8028 12.5961 15.0003 12.5961C15.1979 12.5961 15.391 12.5376 15.5553 12.428L16.3353 11.908C16.8283 11.5791 17.4077 11.4036 18.0003 11.4036C18.593 11.4036 19.1723 11.5791 19.6653 11.908L20.5893 12.524C20.6986 12.5969 20.7924 12.6906 20.8655 12.7997C20.9385 12.9089 20.9894 13.0313 21.0151 13.1601C21.0408 13.2889 21.0409 13.4215 21.0154 13.5504C20.9899 13.6792 20.9392 13.8017 20.8663 13.911C20.7934 14.0203 20.6998 14.1141 20.5906 14.1871C20.4815 14.2602 20.359 14.311 20.2302 14.3368C20.1014 14.3625 19.9688 14.3626 19.84 14.3371C19.7111 14.3115 19.5886 14.2609 19.4793 14.188L18.5553 13.572C18.391 13.4624 18.1979 13.4039 18.0003 13.4039C17.8028 13.4039 17.6097 13.4624 17.4453 13.572L16.6653 14.092C16.1723 14.4209 15.593 14.5964 15.0003 14.5964C14.4077 14.5964 13.8283 14.4209 13.3353 14.092L12.5553 13.572C12.391 13.4624 12.1979 13.4039 12.0003 13.4039C11.8028 13.4039 11.6097 13.4624 11.4453 13.572L10.6653 14.092C10.1723 14.4209 9.59297 14.5964 9.00033 14.5964C8.40768 14.5964 7.82832 14.4209 7.33533 14.092L6.55533 13.572C6.391 13.4624 6.19787 13.4039 6.00033 13.4039C5.80278 13.4039 5.60966 13.4624 5.44533 13.572L4.94133 13.918C4.78933 14.018 4.62533 14.121 4.46633 14.205C4.34989 14.2697 4.22171 14.3105 4.08929 14.325C3.95687 14.3395 3.82288 14.3274 3.69521 14.2894C3.56753 14.2514 3.44874 14.1883 3.34579 14.1037C3.24285 14.0192 3.15784 13.9149 3.09575 13.7971C3.03365 13.6792 2.99573 13.5502 2.98422 13.4174C2.9727 13.2847 2.98781 13.1511 3.02866 13.0243C3.06952 12.8975 3.13529 12.7801 3.22213 12.6791C3.30896 12.5781 3.41511 12.4954 3.53433 12.436C3.60633 12.398 3.67233 12.359 3.73833 12.316L4.33633 11.908ZM4.00033 15C3.73511 15 3.48076 15.1054 3.29322 15.2929C3.10568 15.4804 3.00033 15.7348 3.00033 16V17C3.00033 18.0609 3.42175 19.0783 4.1719 19.8284C4.92204 20.5786 5.93946 21 7.00033 21H17.0003C18.0612 21 19.0786 20.5786 19.8288 19.8284C20.5789 19.0783 21.0003 18.0609 21.0003 17V16C21.0003 15.7348 20.895 15.4804 20.7074 15.2929C20.5199 15.1054 20.2655 15 20.0003 15H4.00033ZM7.00033 19C6.46989 19 5.96118 18.7893 5.58611 18.4142C5.21104 18.0391 5.00033 17.5304 5.00033 17H19.0003C19.0003 17.5304 18.7896 18.0391 18.4145 18.4142C18.0395 18.7893 17.5308 19 17.0003 19H7.00033Z" fill="currentColor"/>
</svg>
