<svg width="24" height="24" viewBox="0 0 24 24" fill="none" xmlns="http://www.w3.org/2000/svg">
<path fill-rule="evenodd" clip-rule="evenodd" d="M9.50015 2C8.83711 2 8.20123 2.26339 7.73239 2.73223C7.26355 3.20107 7.00015 3.83696 7.00015 4.5V10.462C6.73266 10.2357 6.44087 10.0399 6.13015 9.878C5.11015 9.36 4.12015 9.44 3.07715 9.866C2.23715 10.211 1.97015 11.174 2.33015 11.894L5.17215 17.578C5.83651 18.9066 6.85764 20.024 8.12117 20.805C9.38471 21.586 10.8407 21.9998 12.3262 22H13.0002C15.033 22.0001 16.9897 21.2264 18.4726 19.8359C19.9555 18.4455 20.8535 16.5426 20.9842 14.514C21.0262 13.844 21.0002 13.17 21.0002 12.5C21.0003 12.095 20.9021 11.6961 20.714 11.3375C20.5258 10.9789 20.2534 10.6714 19.9201 10.4414C19.5868 10.2113 19.2026 10.0658 18.8006 10.0171C18.3985 9.96843 17.9907 10.0182 17.6122 10.162C17.3042 9.67482 16.8373 9.30911 16.2905 9.12686C15.7438 8.9446 15.1508 8.95702 14.6122 9.162C14.3411 8.73344 13.946 8.39752 13.4795 8.19889C13.0129 8.00027 12.4969 7.94833 12.0002 8.05V4.5C12.0002 4.1717 11.9355 3.84661 11.8099 3.54329C11.6842 3.23998 11.5001 2.96438 11.2679 2.73223C11.0358 2.50009 10.7602 2.31594 10.4569 2.1903C10.1535 2.06466 9.82846 2 9.50015 2ZM18.0002 12.5V13C18.0002 13.2652 17.8948 13.5196 17.7073 13.7071C17.5197 13.8946 17.2654 14 17.0002 14C16.7349 14 16.4806 13.8946 16.293 13.7071C16.1055 13.5196 16.0002 13.2652 16.0002 13V11.5C16.0007 11.4343 15.9883 11.3692 15.9636 11.3084C15.939 11.2475 15.9026 11.1921 15.8565 11.1453C15.8105 11.0985 15.7557 11.0612 15.6952 11.0356C15.6347 11.01 15.5698 10.9965 15.5042 10.996C15.4385 10.9955 15.3734 11.0079 15.3125 11.0325C15.2516 11.0572 15.1962 11.0936 15.1494 11.1396C15.1026 11.1857 15.0654 11.2405 15.0397 11.301C15.0141 11.3614 15.0007 11.4263 15.0002 11.492V12C15.0002 12.2652 14.8948 12.5196 14.7073 12.7071C14.5197 12.8946 14.2654 13 14.0002 13C13.7349 13 13.4806 12.8946 13.293 12.7071C13.1055 12.5196 13.0002 12.2652 13.0002 12V10.5C13.0002 10.3674 12.9475 10.2402 12.8537 10.1464C12.7599 10.0527 12.6328 10 12.5002 10C12.3675 10 12.2404 10.0527 12.1466 10.1464C12.0528 10.2402 12.0002 10.3674 12.0002 10.5V12C12.0002 12.2652 11.8948 12.5196 11.7073 12.7071C11.5197 12.8946 11.2654 13 11.0002 13C10.7349 13 10.4806 12.8946 10.293 12.7071C10.1055 12.5196 10.0002 12.2652 10.0002 12V4.5C10.0002 4.36739 9.94748 4.24021 9.85371 4.14645C9.75994 4.05268 9.63276 4 9.50015 4C9.36755 4 9.24037 4.05268 9.1466 4.14645C9.05283 4.24021 9.00015 4.36739 9.00015 4.5V13C8.99999 13.207 8.93558 13.4089 8.8158 13.5778C8.69602 13.7466 8.52679 13.8742 8.33145 13.9427C8.13611 14.0113 7.9243 14.0176 7.72524 13.9607C7.52619 13.9038 7.34971 13.7865 7.22015 13.625C6.29515 12.469 5.70315 11.905 5.22515 11.661C4.96974 11.5235 4.67353 11.482 4.39015 11.544L6.96015 16.684C7.45853 17.6804 8.22449 18.5184 9.17223 19.1041C10.12 19.6897 11.2121 20 12.3262 20H13.0002C14.588 20 16.1111 19.3706 17.2357 18.2497C18.3604 17.1288 18.9949 15.6078 19.0002 14.02V12.5C19.0002 12.3674 18.9475 12.2402 18.8537 12.1464C18.7599 12.0527 18.6328 12 18.5002 12C18.3675 12 18.2404 12.0527 18.1466 12.1464C18.0528 12.2402 18.0002 12.3674 18.0002 12.5Z" fill="currentColor"/>
</svg>
