<svg width="24" height="24" viewBox="0 0 24 24" fill="none" xmlns="http://www.w3.org/2000/svg">
<path d="M9.40164 3.59599C9.66706 3.35307 9.98178 3.17031 10.3243 3.06018C10.6668 2.95005 11.0291 2.91516 11.3864 2.95788C11.7436 3.0006 12.0874 3.11994 12.3943 3.30772C12.7012 3.49551 12.964 3.74734 13.1646 4.04599L13.2546 4.19199L13.9446 5.38899C13.9916 5.32399 14.0426 5.25999 14.0946 5.19899C14.6686 4.52299 15.4986 4.09699 16.4316 3.93999C17.2116 3.80999 17.8156 4.30999 18.0416 4.87699L18.0826 4.99099C18.2876 5.65899 18.6606 6.47099 19.1326 7.33899C20.7106 10.252 20.4876 13.928 18.3726 16.376C17.9526 18.287 16.8276 20.018 14.9726 21.089C13.3567 22.0216 11.4366 22.2743 9.63445 21.7914C7.8323 21.3085 6.29573 20.1296 5.36264 18.514C4.64108 17.2635 3.90905 16.0192 3.16664 14.781C2.98228 14.4741 2.86635 14.131 2.82677 13.7752C2.78719 13.4194 2.82489 13.0592 2.93731 12.7193C3.04972 12.3795 3.23419 12.0678 3.47811 11.8058C3.72204 11.5437 4.01966 11.3374 4.35064 11.201L4.50164 11.145L3.72864 9.80499C3.53961 9.47801 3.42713 9.11245 3.39963 8.73577C3.37213 8.35909 3.43033 7.98107 3.56987 7.63011C3.70941 7.27915 3.92665 6.96436 4.20529 6.7094C4.48392 6.45443 4.8167 6.26591 5.17864 6.15799C4.95243 5.60682 4.9305 4.99299 5.11679 4.42708C5.30308 3.86117 5.68534 3.3804 6.19472 3.07137C6.70409 2.76235 7.30707 2.64539 7.89504 2.74158C8.483 2.83776 9.01729 3.14076 9.40164 3.59599ZM5.64364 8.11999C5.5288 8.18629 5.44501 8.2955 5.41069 8.42359C5.37637 8.55167 5.39434 8.68815 5.46064 8.80299L8.71064 14.433C8.77734 14.5468 8.82087 14.6726 8.83874 14.8033C8.8566 14.9339 8.84845 15.0668 8.81474 15.1943C8.78103 15.3218 8.72244 15.4414 8.64233 15.5462C8.56222 15.6509 8.46218 15.7388 8.34797 15.8048C8.23376 15.8707 8.10763 15.9134 7.97685 15.9304C7.84607 15.9474 7.71322 15.9383 7.58595 15.9038C7.45868 15.8692 7.33949 15.8099 7.23527 15.7291C7.13104 15.6483 7.04382 15.5476 6.97864 15.433L5.72164 13.257C5.6892 13.2018 5.64622 13.1536 5.59515 13.1151C5.54407 13.0765 5.48591 13.0484 5.42397 13.0323C5.36203 13.0163 5.29754 13.0126 5.23417 13.0214C5.1708 13.0303 5.1098 13.0515 5.05464 13.084C4.99949 13.1164 4.95126 13.1594 4.91272 13.2105C4.87417 13.2616 4.84607 13.3197 4.83 13.3817C4.81394 13.4436 4.81023 13.5081 4.81909 13.5715C4.82795 13.6348 4.8492 13.6958 4.88164 13.751C5.63164 15.001 6.36564 16.251 7.09464 17.513C7.76251 18.6695 8.86243 19.5134 10.1525 19.8591C11.4425 20.2047 12.817 20.0237 13.9736 19.356C15.2886 18.596 16.1276 17.319 16.4356 15.876L16.4606 15.296C16.5106 13.967 16.4676 12.792 15.7756 11.516C15.3636 10.756 14.9896 9.97899 14.7236 9.25099C14.2636 9.41899 13.9806 9.69999 13.8456 9.98899C13.5706 10.579 13.8456 11.205 14.1456 11.725C14.2133 11.8376 14.2581 11.9624 14.2775 12.0923C14.2968 12.2223 14.2904 12.3547 14.2586 12.4822C14.2268 12.6096 14.1702 12.7296 14.0921 12.8351C14.0139 12.9407 13.9158 13.0299 13.8031 13.0975C13.6905 13.1651 13.5657 13.2099 13.4358 13.2293C13.3059 13.2487 13.1734 13.2423 13.046 13.2105C12.9185 13.1787 12.7986 13.1221 12.693 13.0439C12.5874 12.9658 12.4983 12.8676 12.4306 12.755C12.0736 12.182 11.7306 11.598 11.3936 11.011L10.3926 9.24299C10.2262 8.94898 10.0585 8.65564 9.88964 8.36299C9.81247 8.26256 9.70006 8.19516 9.57512 8.17441C9.45018 8.15365 9.32202 8.18108 9.21652 8.25116C9.11102 8.32124 9.03605 8.42874 9.00675 8.55196C8.97744 8.67517 8.99599 8.80492 9.05864 8.91499L11.3086 12.812C11.4392 13.0415 11.4736 13.3134 11.4044 13.5683C11.3352 13.8231 11.168 14.0402 10.9393 14.1723C10.7106 14.3043 10.439 14.3405 10.1837 14.273C9.92843 14.2055 9.71019 14.0398 9.57664 13.812L8.76864 12.432L7.13864 9.68999C6.86664 9.23099 6.59564 8.76999 6.32664 8.30299C6.26033 8.18815 6.15113 8.10436 6.02304 8.07004C5.89495 8.03572 5.75848 8.05369 5.64364 8.11999ZM16.3226 6.02699C16.0517 6.11905 15.8092 6.27958 15.6186 6.49299C15.4561 6.68204 15.3574 6.91756 15.3366 7.16599C15.9156 7.27299 16.3366 7.73399 16.4846 8.21499C16.6896 8.88299 17.0626 9.69399 17.5346 10.563C17.7776 11.013 17.9786 11.483 18.1366 11.963C18.2502 10.6905 17.9847 9.4129 17.3736 8.29099C16.9616 7.53199 16.5876 6.75499 16.3226 6.02699ZM10.8396 5.00699C10.7249 5.07312 10.6411 5.18207 10.6066 5.30993C10.5721 5.43779 10.5897 5.57412 10.6556 5.68899L12.3476 8.61099C12.5099 8.38857 12.6994 8.18734 12.9116 8.01199L13.0746 7.88499L11.5226 5.18999C11.4563 5.07515 11.3471 4.99136 11.219 4.95704C11.091 4.92272 10.9545 4.94069 10.8396 5.00699ZM7.24164 4.77499C7.1268 4.84129 7.04301 4.9505 7.00869 5.07859C6.97437 5.20667 6.99234 5.34315 7.05864 5.45799L7.83064 6.79599C8.0824 6.57234 8.37656 6.40163 8.69564 6.29399L7.92464 4.95999C7.85834 4.84515 7.74913 4.76136 7.62104 4.72704C7.49295 4.69272 7.35648 4.71069 7.24164 4.77699V4.77499ZM21.3646 3.99699C21.4877 4.20902 21.5287 4.45889 21.4796 4.69911C21.4306 4.93934 21.295 5.15317 21.0986 5.29999L21.0016 5.36399L20.1616 5.85099C19.9409 5.98162 19.6783 6.02241 19.4283 5.9649C19.1783 5.9074 18.9599 5.75601 18.8184 5.54204C18.6768 5.32807 18.623 5.06789 18.6679 4.81531C18.7128 4.56273 18.853 4.33706 19.0596 4.18499L19.1576 4.12099L19.9976 3.63399C20.1112 3.56805 20.2367 3.52513 20.3669 3.50769C20.4971 3.49025 20.6294 3.49862 20.7563 3.53233C20.8833 3.56603 21.0023 3.62442 21.1067 3.70415C21.2111 3.78387 21.2987 3.88338 21.3646 3.99699ZM18.6326 1.08699C18.8693 1.15034 19.0745 1.29836 19.2092 1.50297C19.344 1.70759 19.3989 1.95454 19.3636 2.19699L19.3396 2.31199L19.2106 2.79499C19.1438 3.04048 18.986 3.25127 18.7692 3.38444C18.5524 3.51762 18.293 3.56316 18.0438 3.5118C17.7947 3.46043 17.5744 3.31602 17.428 3.10797C17.2816 2.89993 17.2199 2.64388 17.2556 2.39199L17.2786 2.27799L17.4086 1.79499C17.4773 1.53899 17.6448 1.32073 17.8743 1.18816C18.1038 1.0556 18.3766 1.01957 18.6326 1.08799V1.08699ZM14.9856 1.08699C15.2224 1.02361 15.4742 1.0494 15.6932 1.15946C15.9122 1.26951 16.0832 1.45618 16.1736 1.68399L16.2106 1.79399L16.3406 2.27799C16.4085 2.52507 16.3788 2.78876 16.2579 3.01464C16.137 3.24053 15.934 3.41138 15.6907 3.49194C15.4475 3.5725 15.1826 3.55663 14.9508 3.4476C14.7189 3.33857 14.5377 3.1447 14.4446 2.90599L14.4086 2.79599L14.2786 2.31199C14.2102 2.05593 14.2463 1.78317 14.3788 1.55366C14.5114 1.32415 14.7296 1.15666 14.9856 1.08799V1.08699Z" fill="currentColor"/>
</svg>
