<svg width="24" height="24" viewBox="0 0 24 24" fill="none" xmlns="http://www.w3.org/2000/svg">
<path fill-rule="evenodd" clip-rule="evenodd" d="M18.0002 6.05V5.5C18.0003 5.12585 17.9164 4.75645 17.7548 4.41903C17.5931 4.08161 17.3578 3.78478 17.0661 3.55042C16.7745 3.31606 16.4339 3.15015 16.0696 3.06493C15.7053 2.9797 15.3265 2.97734 14.9612 3.058C14.8579 2.4804 14.5548 1.95751 14.1049 1.58088C13.655 1.20425 13.0869 0.997864 12.5002 0.997864C11.9134 0.997864 11.3453 1.20425 10.8954 1.58088C10.4455 1.95751 10.1424 2.4804 10.0392 3.058C9.67381 2.97734 9.29501 2.9797 8.9307 3.06493C8.56639 3.15015 8.22585 3.31606 7.9342 3.55042C7.64254 3.78478 7.40721 4.08161 7.24555 4.41903C7.0839 4.75645 7.00003 5.12585 7.00015 5.5V10.462C6.73266 10.2357 6.44087 10.0399 6.13015 9.878C5.11015 9.36 4.12015 9.44 3.07715 9.866C2.23715 10.211 1.97015 11.174 2.33015 11.894L5.17215 17.578C5.83651 18.9066 6.85764 20.024 8.12117 20.805C9.38471 21.586 10.8407 21.9998 12.3262 22H13.0002C15.1219 22 17.1567 21.1571 18.657 19.6569C20.1573 18.1566 21.0002 16.1217 21.0002 14V8.5C21.0002 8.12924 20.9178 7.76311 20.759 7.42812C20.6001 7.09313 20.3687 6.79768 20.0815 6.56316C19.7943 6.32864 19.4586 6.16093 19.0986 6.07218C18.7386 5.98343 18.3634 5.97585 18.0002 6.05ZM10.0002 5.5C10.0002 5.36739 9.94748 5.24022 9.85371 5.14645C9.75994 5.05268 9.63276 5 9.50015 5C9.36755 5 9.24037 5.05268 9.1466 5.14645C9.05283 5.24022 9.00015 5.36739 9.00015 5.5V13C8.99999 13.207 8.93558 13.4089 8.8158 13.5778C8.69602 13.7466 8.52679 13.8742 8.33145 13.9427C8.13611 14.0113 7.9243 14.0176 7.72524 13.9607C7.52619 13.9038 7.34971 13.7865 7.22015 13.625C6.29515 12.469 5.70315 11.905 5.22515 11.661C4.96974 11.5235 4.67353 11.482 4.39015 11.544L6.96015 16.684C7.45853 17.6804 8.22449 18.5184 9.17223 19.1041C10.12 19.6897 11.2121 20 12.3262 20H13.0002C14.5915 20 16.1176 19.3679 17.2428 18.2426C18.368 17.1174 19.0002 15.5913 19.0002 14V8.5C19.0002 8.36739 18.9475 8.24022 18.8537 8.14645C18.7599 8.05268 18.6328 8 18.5002 8C18.3675 8 18.2404 8.05268 18.1466 8.14645C18.0528 8.24022 18.0002 8.36739 18.0002 8.5V11C18.0002 11.2652 17.8948 11.5196 17.7073 11.7071C17.5197 11.8946 17.2654 12 17.0002 12C16.7349 12 16.4806 11.8946 16.293 11.7071C16.1055 11.5196 16.0002 11.2652 16.0002 11V5.5C16.0002 5.36739 15.9475 5.24022 15.8537 5.14645C15.7599 5.05268 15.6328 5 15.5002 5C15.3675 5 15.2404 5.05268 15.1466 5.14645C15.0528 5.24022 15.0002 5.36739 15.0002 5.5V10C15.0002 10.2652 14.8948 10.5196 14.7073 10.7071C14.5197 10.8946 14.2654 11 14.0002 11C13.7349 11 13.4806 10.8946 13.293 10.7071C13.1055 10.5196 13.0002 10.2652 13.0002 10V3.5C13.0002 3.36739 12.9475 3.24022 12.8537 3.14645C12.7599 3.05268 12.6328 3 12.5002 3C12.3675 3 12.2404 3.05268 12.1466 3.14645C12.0528 3.24022 12.0002 3.36739 12.0002 3.5V11C12.0002 11.2652 11.8948 11.5196 11.7073 11.7071C11.5197 11.8946 11.2654 12 11.0002 12C10.7349 12 10.4806 11.8946 10.293 11.7071C10.1055 11.5196 10.0002 11.2652 10.0002 11V5.5Z" fill="currentColor"/>
</svg>
