<svg width="24" height="24" viewBox="0 0 24 24" fill="none" xmlns="http://www.w3.org/2000/svg">
<path fill-rule="evenodd" clip-rule="evenodd" d="M9.99959 4C9.46916 4 8.96045 4.21071 8.58538 4.58579C8.21031 4.96086 7.99959 5.46957 7.99959 6V7.043C6.90981 7.1873 5.89796 7.68673 5.12059 8.464L2.29259 11.293C2.19708 11.3852 2.1209 11.4956 2.06849 11.6176C2.01608 11.7396 1.9885 11.8708 1.98734 12.0036C1.98619 12.1364 2.01149 12.2681 2.06177 12.391C2.11205 12.5139 2.18631 12.6255 2.2802 12.7194C2.37409 12.8133 2.48574 12.8875 2.60864 12.9378C2.73154 12.9881 2.86321 13.0134 2.99599 13.0123C3.12877 13.0111 3.25999 12.9835 3.382 12.9311C3.504 12.8787 3.61435 12.8025 3.70659 12.707L6.53559 9.88C6.93727 9.47772 7.44499 9.19786 7.99959 9.073V12.719L7.37459 13.219C7.16746 13.3848 7.03466 13.626 7.0054 13.8897C6.97614 14.1534 7.05283 14.4179 7.21859 14.625C7.38435 14.8321 7.62561 14.9649 7.88928 14.9942C8.15296 15.0234 8.41746 14.9468 8.62459 14.781L11.5276 12.458C11.912 12.1505 12.3963 11.9955 12.8879 12.0229C13.3794 12.0502 13.8436 12.2578 14.1916 12.606L14.4776 12.892L7.93259 17.8C7.7595 17.9298 7.54896 18 7.33259 18H2.99959C2.73438 18 2.48002 18.1054 2.29249 18.2929C2.10495 18.4804 1.99959 18.7348 1.99959 19C1.99959 19.2652 2.10495 19.5196 2.29249 19.7071C2.48002 19.8946 2.73438 20 2.99959 20H7.33259C7.9817 20 8.6133 19.7895 9.13259 19.4L14.9996 15H19.9996C20.53 15 21.0387 14.7893 21.4138 14.4142C21.7889 14.0391 21.9996 13.5304 21.9996 13V6C21.9996 5.46957 21.7889 4.96086 21.4138 4.58579C21.0387 4.21071 20.53 4 19.9996 4H9.99959ZM9.99959 11.12L10.2786 10.897C11.0472 10.2821 12.0156 9.97224 12.9985 10.0267C13.9813 10.0811 14.9095 10.496 15.6056 11.192L15.8916 11.478C16.3126 11.899 16.5036 12.456 16.4746 13H19.9996V9H9.99959V11.12ZM19.9996 7V6H9.99959V7H19.9996Z" fill="currentColor"/>
</svg>
