<svg width="24" height="24" viewBox="0 0 24 24" fill="none" xmlns="http://www.w3.org/2000/svg">
<path fill-rule="evenodd" clip-rule="evenodd" d="M7.00018 4.5C7.00018 3.83696 7.26357 3.20107 7.73241 2.73223C8.20125 2.26339 8.83714 2 9.50018 2C10.1632 2 10.7991 2.26339 11.2679 2.73223C11.7368 3.20107 12.0002 3.83696 12.0002 4.5V9.105L17.4422 9.71C18.4204 9.81876 19.3242 10.2844 19.9806 11.0177C20.6371 11.7511 21.0001 12.7008 21.0002 13.685V14C21.0002 16.1217 20.1573 18.1566 18.657 19.6569C17.1567 21.1571 15.1219 22 13.0002 22H12.3262C10.8406 22 9.38435 21.5862 8.12062 20.8052C6.8569 20.0242 5.83561 18.9067 5.17118 17.578L2.32918 11.894C1.96918 11.174 2.23618 10.211 3.07618 9.866C4.11918 9.439 5.11018 9.359 6.13118 9.878C6.42718 10.028 6.71518 10.225 7.00018 10.462V4.5ZM9.50018 4C9.36757 4 9.24039 4.05268 9.14662 4.14645C9.05286 4.24021 9.00018 4.36739 9.00018 4.5V13C9.00002 13.207 8.9356 13.4089 8.81582 13.5778C8.69605 13.7466 8.52681 13.8742 8.33147 13.9427C8.13613 14.0113 7.92432 14.0176 7.72527 13.9607C7.52621 13.9038 7.34973 13.7865 7.22018 13.625C6.29518 12.469 5.70318 11.905 5.22518 11.661C4.96976 11.5235 4.67355 11.482 4.39018 11.544L6.96018 16.684C7.45855 17.6804 8.22451 18.5184 9.17225 19.1041C10.12 19.6897 11.2121 20 12.3262 20H13.0002C14.5915 20 16.1176 19.3679 17.2428 18.2426C18.368 17.1174 19.0002 15.5913 19.0002 14V13.685C19.0002 13.1926 18.8186 12.7176 18.4902 12.3507C18.1618 11.9839 17.7096 11.7512 17.2202 11.697L11.7802 11.093C11.2908 11.0388 10.8386 10.8061 10.5102 10.4393C10.1817 10.0724 10.0001 9.59736 10.0002 9.105V4.5C10.0002 4.36739 9.9475 4.24021 9.85373 4.14645C9.75996 4.05268 9.63279 4 9.50018 4Z" fill="currentColor"/>
</svg>
