<svg width="24" height="24" viewBox="0 0 24 24" fill="none" xmlns="http://www.w3.org/2000/svg">
<path fill-rule="evenodd" clip-rule="evenodd" d="M10.124 3.00801C10.3871 3.04097 10.6263 3.17704 10.789 3.38632C10.9518 3.59559 11.0248 3.86093 10.992 4.12401L10.508 8.00001H14.492L15.008 3.87601C15.0214 3.74338 15.0612 3.61476 15.125 3.49772C15.1889 3.38068 15.2754 3.27759 15.3797 3.1945C15.484 3.11141 15.6038 3.05001 15.7321 3.01391C15.8604 2.9778 15.9947 2.96772 16.127 2.98425C16.2593 3.00079 16.3869 3.04361 16.5024 3.11019C16.6179 3.17678 16.7189 3.26578 16.7995 3.37197C16.8801 3.47817 16.9386 3.5994 16.9717 3.72855C17.0048 3.8577 17.0117 3.99216 16.992 4.12401L16.508 8.00001H20C20.2652 8.00001 20.5196 8.10537 20.7071 8.29291C20.8946 8.48044 21 8.7348 21 9.00001C21 9.26523 20.8946 9.51958 20.7071 9.70712C20.5196 9.89466 20.2652 10 20 10H16.258L15.758 14H19.5C19.7652 14 20.0196 14.1054 20.2071 14.2929C20.3946 14.4804 20.5 14.7348 20.5 15C20.5 15.2652 20.3946 15.5196 20.2071 15.7071C20.0196 15.8947 19.7652 16 19.5 16H15.508L14.992 20.124C14.9786 20.2567 14.9388 20.3853 14.875 20.5023C14.8111 20.6193 14.7246 20.7224 14.6203 20.8055C14.516 20.8886 14.3962 20.95 14.2679 20.9861C14.1396 21.0222 14.0053 21.0323 13.873 21.0158C13.7407 20.9992 13.6131 20.9564 13.4976 20.8898C13.3821 20.8232 13.2811 20.7342 13.2005 20.6281C13.1199 20.5219 13.0614 20.4006 13.0283 20.2715C12.9952 20.1423 12.9883 20.0079 13.008 19.876L13.492 16H9.508L8.992 20.124C8.9786 20.2567 8.93881 20.3853 8.87498 20.5023C8.81115 20.6193 8.72456 20.7224 8.6203 20.8055C8.51605 20.8886 8.39623 20.95 8.2679 20.9861C8.13957 21.0222 8.00531 21.0323 7.87303 21.0158C7.74075 20.9992 7.6131 20.9564 7.49761 20.8898C7.38211 20.8232 7.2811 20.7342 7.2005 20.6281C7.11991 20.5219 7.06136 20.4006 7.0283 20.2715C6.99524 20.1423 6.98834 20.0079 7.008 19.876L7.492 16H4.5C4.23478 16 3.98043 15.8947 3.79289 15.7071C3.60536 15.5196 3.5 15.2652 3.5 15C3.5 14.7348 3.60536 14.4804 3.79289 14.2929C3.98043 14.1054 4.23478 14 4.5 14H7.742L8.242 10H5C4.73478 10 4.48043 9.89466 4.29289 9.70712C4.10536 9.51958 4 9.26523 4 9.00001C4 8.7348 4.10536 8.48044 4.29289 8.29291C4.48043 8.10537 4.73478 8.00001 5 8.00001H8.492L9.008 3.87601C9.04096 3.61295 9.17703 3.37374 9.3863 3.21097C9.59558 3.04821 9.86092 2.9752 10.124 3.00801ZM13.742 14L14.242 10H10.258L9.758 14H13.742Z" fill="currentColor"/>
</svg>
