<svg width="24" height="24" viewBox="0 0 24 24" fill="none" xmlns="http://www.w3.org/2000/svg">
<path fill-rule="evenodd" clip-rule="evenodd" d="M15.4998 4C15.8727 4.00002 16.2322 4.13892 16.5082 4.38962C16.7842 4.64032 16.957 4.98484 16.9928 5.356L16.9998 5.5V5.582C18.4318 6.16178 19.6653 7.14359 20.5517 8.40894C21.438 9.67429 21.9392 11.1691 21.9948 12.713L21.9998 13V15C21.9998 15.2479 21.9077 15.487 21.7414 15.6708C21.5751 15.8547 21.3465 15.9702 21.0998 15.995C20.4768 16.057 19.8678 16.105 19.2698 16.135C16.4148 18.889 14.1618 20 11.9388 20C10.7948 20 9.74079 19.704 8.72279 19.307C8.20496 19.1002 7.69308 18.8788 7.18779 18.643L6.12779 18.154C5.95056 18.073 5.77289 17.993 5.59479 17.914C4.95779 17.631 4.54679 17.578 4.26679 17.584L4.11479 17.591L3.61279 17.653C3.53969 17.6604 3.46626 17.6641 3.39279 17.664C3.18811 17.6658 2.98518 17.6263 2.79616 17.5477C2.60714 17.4692 2.43593 17.3533 2.29279 17.207C2.19979 17.114 2.12606 17.0035 2.07582 16.882C2.02558 16.7604 1.99982 16.6301 2 16.4986C2.00019 16.3671 2.02632 16.2368 2.07691 16.1154C2.12749 15.994 2.20153 15.8838 2.29479 15.791L2.38679 15.711L6.00179 12.899C6.02786 10.8378 6.84859 8.86615 8.29284 7.39525C9.73708 5.92436 11.6934 5.06774 13.7538 5.004L14.0848 5C14.1882 4.70742 14.3799 4.45413 14.6333 4.27503C14.8867 4.09593 15.1895 3.99984 15.4998 4ZM7.49979 14.266L5.56279 15.774C5.82079 15.849 6.10079 15.951 6.40579 16.086L6.83879 16.281L8.38779 16.992C8.74879 17.155 9.09779 17.306 9.44879 17.443C10.3528 17.796 11.1438 18 11.9378 18C13.0818 18 14.4158 17.573 16.2298 16.148C13.5258 16.018 10.9328 15.492 8.07579 14.476L7.49979 14.266ZM17.4298 8.076C17.6118 8.526 17.7708 9.001 17.9028 9.49C18.2878 10.918 18.4568 12.553 18.2028 14.174C18.8025 14.1606 19.4017 14.1306 19.9998 14.084V13C20.0004 12.0329 19.767 11.0801 19.3194 10.2228C18.8719 9.36558 18.2236 8.62835 17.4298 8.076ZM13.9998 7C12.5244 6.99987 11.1007 7.54334 10.0007 8.52657C8.90071 9.5098 8.20154 10.8639 8.03679 12.33C10.9388 13.432 13.5008 13.998 16.1778 14.143C16.4458 12.773 16.3248 11.32 15.9718 10.01C15.6278 8.732 15.0888 7.679 14.5748 7.027C14.3837 7.00891 14.1918 6.9999 13.9998 7Z" fill="currentColor"/>
</svg>
