<svg width="24" height="24" viewBox="0 0 24 24" fill="none" xmlns="http://www.w3.org/2000/svg">
<path fill-rule="evenodd" clip-rule="evenodd" d="M5.03 13.701L5.74 8.01101C5.7911 7.60166 5.92606 7.20726 6.13647 6.85243C6.34688 6.49761 6.62821 6.18999 6.96287 5.9488C7.29753 5.70761 7.67834 5.53803 8.0815 5.45066C8.48466 5.36329 8.90151 5.36 9.306 5.44101C10.163 5.61301 11.124 5.96101 12 5.96101C12.876 5.96101 13.837 5.61301 14.694 5.44101C15.0984 5.36016 15.5152 5.36356 15.9182 5.451C16.3212 5.53845 16.7019 5.70805 17.0365 5.94923C17.371 6.1904 17.6523 6.49797 17.8626 6.85272C18.0729 7.20746 18.2079 7.60177 18.259 8.01101L18.971 13.701C20.107 13.985 22 14.535 22 16C22 17.596 19.787 18.122 18.58 18.39C16.862 18.772 14.536 19 12 19C9.464 19 7.138 18.772 5.42 18.39C4.212 18.122 2 17.596 2 16C2 14.535 3.893 13.985 5.03 13.701ZM7.725 8.26001C7.74199 8.1235 7.78695 7.99196 7.85709 7.87362C7.92723 7.75528 8.02103 7.65268 8.13263 7.57224C8.24423 7.49181 8.37122 7.43526 8.50567 7.40614C8.64011 7.37702 8.77912 7.37596 8.914 7.40301C9.913 7.60301 10.974 7.96101 12 7.96101C13.026 7.96101 14.087 7.60301 15.086 7.40301C15.2209 7.37596 15.3599 7.37702 15.4943 7.40614C15.6288 7.43526 15.7558 7.49181 15.8674 7.57224C15.979 7.65268 16.0728 7.75528 16.1429 7.87362C16.213 7.99196 16.258 8.1235 16.275 8.26001L16.906 13.314C15.467 13.113 13.786 13 12 13C10.214 13 8.533 13.113 7.094 13.313L7.725 8.26001ZM5.853 16.439C4.3 16.094 4.3 15.908 5.853 15.563C7.391 15.22 9.565 15 12 15C14.435 15 16.609 15.22 18.147 15.562C19.7 15.907 19.7 16.092 18.147 16.438C16.609 16.78 14.435 17 12 17C9.565 17 7.391 16.781 5.853 16.439Z" fill="currentColor"/>
</svg>
