<svg width="24" height="24" viewBox="0 0 24 24" fill="none" xmlns="http://www.w3.org/2000/svg">
<path d="M5.49951 3C5.10168 3 4.72015 3.15804 4.43885 3.43934C4.15754 3.72064 3.99951 4.10218 3.99951 4.5C3.99951 4.89782 4.15754 5.27936 4.43885 5.56066C4.72015 5.84196 5.10168 6 5.49951 6C5.89733 6 6.27887 5.84196 6.56017 5.56066C6.84147 5.27936 6.99951 4.89782 6.99951 4.5C6.99951 4.10218 6.84147 3.72064 6.56017 3.43934C6.27887 3.15804 5.89733 3 5.49951 3ZM11.9995 3C11.6017 3 11.2202 3.15804 10.9388 3.43934C10.6575 3.72064 10.4995 4.10218 10.4995 4.5C10.4995 4.89782 10.6575 5.27936 10.9388 5.56066C11.2202 5.84196 11.6017 6 11.9995 6C12.3973 6 12.7789 5.84196 13.0602 5.56066C13.3415 5.27936 13.4995 4.89782 13.4995 4.5C13.4995 4.10218 13.3415 3.72064 13.0602 3.43934C12.7789 3.15804 12.3973 3 11.9995 3ZM18.4995 3C18.1017 3 17.7202 3.15804 17.4388 3.43934C17.1575 3.72064 16.9995 4.10218 16.9995 4.5C16.9995 4.89782 17.1575 5.27936 17.4388 5.56066C17.7202 5.84196 18.1017 6 18.4995 6C18.8973 6 19.2789 5.84196 19.5602 5.56066C19.8415 5.27936 19.9995 4.89782 19.9995 4.5C19.9995 4.10218 19.8415 3.72064 19.5602 3.43934C19.2789 3.15804 18.8973 3 18.4995 3ZM5.49951 18C5.10168 18 4.72015 18.158 4.43885 18.4393C4.15754 18.7206 3.99951 19.1022 3.99951 19.5C3.99951 19.8978 4.15754 20.2794 4.43885 20.5607C4.72015 20.842 5.10168 21 5.49951 21C5.89733 21 6.27887 20.842 6.56017 20.5607C6.84147 20.2794 6.99951 19.8978 6.99951 19.5C6.99951 19.1022 6.84147 18.7206 6.56017 18.4393C6.27887 18.158 5.89733 18 5.49951 18ZM11.9995 18C11.6017 18 11.2202 18.158 10.9388 18.4393C10.6575 18.7206 10.4995 19.1022 10.4995 19.5C10.4995 19.8978 10.6575 20.2794 10.9388 20.5607C11.2202 20.842 11.6017 21 11.9995 21C12.3973 21 12.7789 20.842 13.0602 20.5607C13.3415 20.2794 13.4995 19.8978 13.4995 19.5C13.4995 19.1022 13.3415 18.7206 13.0602 18.4393C12.7789 18.158 12.3973 18 11.9995 18ZM18.4995 18C18.1017 18 17.7202 18.158 17.4388 18.4393C17.1575 18.7206 16.9995 19.1022 16.9995 19.5C16.9995 19.8978 17.1575 20.2794 17.4388 20.5607C17.7202 20.842 18.1017 21 18.4995 21C18.8973 21 19.2789 20.842 19.5602 20.5607C19.8415 20.2794 19.9995 19.8978 19.9995 19.5C19.9995 19.1022 19.8415 18.7206 19.5602 18.4393C19.2789 18.158 18.8973 18 18.4995 18ZM4.25751 14.915C3.50529 14.1623 3.07321 13.148 3.05163 12.0841C3.03005 11.0202 3.42064 9.98916 4.14171 9.2066C4.86279 8.42405 5.8585 7.95059 6.9206 7.88525C7.98271 7.81991 9.02895 8.16774 9.84051 8.856L11.9995 10.688L14.1595 8.856C14.7594 8.34704 15.4925 8.02035 16.272 7.91449C17.0516 7.80864 17.8452 7.92803 18.5591 8.25859C19.273 8.58914 19.8775 9.11706 20.3011 9.78001C20.7247 10.443 20.9498 11.2133 20.9498 12C20.9498 12.7867 20.7247 13.557 20.3011 14.22C19.8775 14.8829 19.273 15.4109 18.5591 15.7414C17.8452 16.072 17.0516 16.1914 16.272 16.0855C15.4925 15.9796 14.7594 15.653 14.1595 15.144L11.9995 13.311L9.83951 15.143C9.05016 15.8124 8.03792 16.1605 7.00381 16.118C5.9697 16.0756 4.98937 15.6458 4.25751 14.914V14.915ZM5.67251 10.5C5.28669 10.8878 5.06546 11.4096 5.05495 11.9565C5.04444 12.5034 5.24545 13.0333 5.61608 13.4357C5.9867 13.838 6.49833 14.0818 7.04429 14.1161C7.59025 14.1505 8.12839 13.9727 8.54651 13.62L10.4535 12L8.54651 10.381C8.14007 10.0364 7.6189 9.85724 7.08648 9.8791C6.55406 9.90096 6.04933 10.1222 5.67251 10.499V10.5ZM13.5455 12L15.4525 13.618C15.7613 13.8803 16.1388 14.0488 16.5403 14.1036C16.9418 14.1583 17.3506 14.0969 17.7184 13.9268C18.0861 13.7567 18.3975 13.4848 18.6158 13.1434C18.834 12.802 18.95 12.4052 18.95 12C18.95 11.5948 18.834 11.198 18.6158 10.8566C18.3975 10.5152 18.0861 10.2433 17.7184 10.0732C17.3506 9.90306 16.9418 9.84173 16.5403 9.89645C16.1388 9.95117 15.7613 10.1197 15.4525 10.382L13.5455 12Z" fill="currentColor"/>
</svg>
