<svg width="24" height="24" viewBox="0 0 24 24" fill="none" xmlns="http://www.w3.org/2000/svg">
<path fill-rule="evenodd" clip-rule="evenodd" d="M4.99979 10C4.99979 8.64706 5.34291 7.31622 5.99707 6.13194C6.65122 4.94766 7.59504 3.94862 8.74026 3.22826C9.88548 2.5079 11.1947 2.08975 12.5454 2.01291C13.8962 1.93608 15.2444 2.20306 16.4639 2.7889C17.6834 3.37474 18.7344 4.2603 19.5187 5.36275C20.3029 6.46521 20.7947 7.74855 20.9482 9.09276C21.1016 10.437 20.9116 11.7981 20.396 13.049C19.8804 14.2998 19.0559 15.3994 17.9998 16.245V20.5C17.9998 20.8978 17.8418 21.2794 17.5604 21.5607C17.2791 21.842 16.8976 22 16.4998 22H11.4998C11.102 22 10.7204 21.842 10.4391 21.5607C10.1578 21.2794 9.99979 20.8978 9.99979 20.5V19H8.76579C8.03454 19 7.32845 18.733 6.78024 18.2491C6.23204 17.7651 5.87946 17.0976 5.78879 16.372L5.64879 15.249L4.90179 15.1C4.68418 15.0564 4.47896 14.9651 4.30091 14.8326C4.12286 14.7002 3.97642 14.5298 3.87215 14.3339C3.76789 14.138 3.70839 13.9214 3.69795 13.6997C3.68751 13.4781 3.72639 13.2568 3.81179 13.052L5.00179 10.194C5.00035 10.1293 4.99968 10.0647 4.99979 10ZM12.9998 4C12.1928 3.99996 11.3941 4.16272 10.6515 4.47852C9.90888 4.79432 9.2376 5.25668 8.67781 5.83794C8.11803 6.41919 7.68125 7.10739 7.39362 7.86137C7.10598 8.61534 6.97339 9.41959 7.00379 10.226C7.01179 10.436 6.97679 10.656 6.88879 10.866L5.89179 13.259L6.39379 13.359C6.70248 13.4208 6.9839 13.5782 7.1982 13.8088C7.41249 14.0394 7.54879 14.3316 7.58779 14.644L7.77279 16.124C7.80303 16.366 7.92065 16.5886 8.10352 16.7499C8.2864 16.9112 8.52192 17.0002 8.76579 17H10.4998C10.8976 17 11.2791 17.158 11.5604 17.4393C11.8418 17.7206 11.9998 18.1022 11.9998 18.5V20H15.9998V16.006C15.9998 15.509 16.2438 15.069 16.6088 14.794C17.6144 14.0372 18.3565 12.9834 18.7302 11.7816C19.1039 10.5798 19.0902 9.29099 18.6912 8.09741C18.2921 6.90383 17.5278 5.86596 16.5064 5.13064C15.485 4.39532 14.2583 3.99979 12.9998 4Z" fill="currentColor"/>
</svg>
