<svg width="24" height="24" viewBox="0 0 24 24" fill="none" xmlns="http://www.w3.org/2000/svg">
<path d="M12 2C17.517 2 22 6.445 22 11.943C22 13.305 21.831 14.284 21.574 15.076C20.963 16.958 19.7 18.541 18.272 19.876C17.29 20.794 15.833 20.654 14.958 19.784C13.716 18.549 13.376 16.632 14.723 15.294L15.643 14.379C16.1025 13.9225 16.7213 13.6622 17.3689 13.6529C18.0165 13.6435 18.6425 13.8859 19.115 14.329C19.392 14.589 19.529 14.899 19.672 14.459C19.853 13.899 20 13.132 20 11.943C20 7.562 16.424 4 12 4C7.576 4 4 7.562 4 11.943C4 13.133 4.147 13.898 4.328 14.459C4.471 14.899 4.608 14.589 4.885 14.329C5.35747 13.8859 5.98345 13.6435 6.6311 13.6529C7.27874 13.6622 7.89749 13.9225 8.357 14.379L9.277 15.294C10.624 16.632 10.284 18.549 9.042 19.784C8.167 20.654 6.71 20.794 5.728 19.877C4.29 18.533 3.041 16.969 2.426 15.077C2.17 14.283 2 13.304 2 11.942C2 6.445 6.483 2 12 2ZM17.052 15.798C16.474 16.372 15.262 17.265 16.132 18.131C16.324 18.321 16.623 18.679 16.906 18.415C17.544 17.819 18.169 17.145 18.589 16.578C18.259 16.268 17.563 15.291 17.052 15.798ZM6.948 15.798C6.438 15.291 5.741 16.268 5.411 16.578C5.831 17.145 6.456 17.818 7.094 18.415C7.376 18.679 7.676 18.322 7.868 18.131C8.738 17.265 7.526 16.372 6.948 15.798Z" fill="currentColor"/>
</svg>
