<svg width="24" height="24" viewBox="0 0 24 24" fill="none" xmlns="http://www.w3.org/2000/svg">
<path d="M13 3C13.2449 3.00003 13.4813 3.08996 13.6644 3.25272C13.8474 3.41547 13.9643 3.63975 13.993 3.883L14 4V20C13.9997 20.2549 13.9021 20.5 13.7272 20.6854C13.5522 20.8707 13.313 20.9822 13.0586 20.9972C12.8042 21.0121 12.5536 20.9293 12.3582 20.7657C12.1627 20.6021 12.0371 20.3701 12.007 20.117L12 20V13H5V20C4.99972 20.2549 4.90212 20.5 4.72715 20.6854C4.55218 20.8707 4.31305 20.9822 4.05861 20.9972C3.80416 21.0121 3.55362 20.9293 3.35817 20.7657C3.16271 20.6021 3.0371 20.3701 3.007 20.117L3 20V4C3.00028 3.74512 3.09788 3.49997 3.27285 3.31463C3.44782 3.1293 3.68695 3.01777 3.94139 3.00283C4.19584 2.98789 4.44638 3.07067 4.64183 3.23426C4.83729 3.39786 4.9629 3.6299 4.993 3.883L5 4V11H12V4C12 3.73478 12.1054 3.48043 12.2929 3.29289C12.4804 3.10536 12.7348 3 13 3ZM18.371 12.5C18.8633 12.5015 19.3453 12.641 19.7623 12.9026C20.1793 13.1642 20.5146 13.5375 20.7302 13.98C20.9457 14.4226 21.0329 14.9168 20.9818 15.4064C20.9307 15.896 20.7433 16.3615 20.441 16.75C20.8 17.207 21 17.776 21 18.367C21 19.0648 20.723 19.7341 20.2299 20.2278C19.7367 20.7214 19.0678 20.9992 18.37 21C17.318 21 16.331 20.65 15.886 19.602C15.645 19.033 15.657 18.352 16.322 18.069C16.5477 17.9732 16.8008 17.9636 17.0331 18.0422C17.2654 18.1207 17.4607 18.2819 17.582 18.495L17.634 18.599C17.772 18.925 17.912 18.986 18.175 18.997L18.37 19C18.5372 18.9989 18.6972 18.9318 18.815 18.8132C18.9329 18.6946 18.999 18.5342 18.999 18.367C18.999 17.994 18.714 17.789 18.385 17.755L18.285 17.75C18.0301 17.7497 17.785 17.6521 17.5996 17.4772C17.4143 17.3022 17.3028 17.063 17.2878 16.8086C17.2729 16.5542 17.3557 16.3036 17.5193 16.1082C17.6829 15.9127 17.9149 15.7871 18.168 15.757L18.285 15.75C18.655 15.75 18.999 15.543 18.999 15.133C18.999 14.9658 18.9329 14.8054 18.815 14.6868C18.6972 14.5682 18.5372 14.5011 18.37 14.5L18.176 14.503C17.942 14.513 17.805 14.563 17.68 14.802L17.634 14.901C17.5304 15.1451 17.3341 15.3381 17.0883 15.4375C16.8424 15.5369 16.5671 15.5345 16.323 15.431C15.644 15.143 15.655 14.621 15.76 14.242L15.81 14.09L15.886 13.898C16.331 12.85 17.32 12.5 18.371 12.5Z" fill="currentColor"/>
</svg>
