<svg width="24" height="24" viewBox="0 0 24 24" fill="none" xmlns="http://www.w3.org/2000/svg">
<path d="M13 3C13.2449 3.00003 13.4813 3.08996 13.6644 3.25272C13.8474 3.41547 13.9643 3.63975 13.993 3.883L14 4V20C13.9997 20.2549 13.9021 20.5 13.7272 20.6854C13.5522 20.8707 13.313 20.9822 13.0586 20.9972C12.8042 21.0121 12.5536 20.9293 12.3582 20.7657C12.1627 20.6021 12.0371 20.3701 12.007 20.117L12 20V13H5V20C4.99972 20.2549 4.90212 20.5 4.72715 20.6854C4.55218 20.8707 4.31305 20.9822 4.05861 20.9972C3.80416 21.0121 3.55362 20.9293 3.35817 20.7657C3.16271 20.6021 3.0371 20.3701 3.007 20.117L3 20V4C3.00028 3.74512 3.09788 3.49997 3.27285 3.31463C3.44782 3.1293 3.68695 3.01777 3.94139 3.00283C4.19584 2.98789 4.44638 3.07067 4.64183 3.23426C4.83729 3.39786 4.9629 3.6299 4.993 3.883L5 4V11H12V4C12 3.73478 12.1054 3.48043 12.2929 3.29289C12.4804 3.10536 12.7348 3 13 3ZM19 13.519V20C19 20.2652 18.8946 20.5196 18.7071 20.7071C18.5196 20.8946 18.2652 21 18 21C17.7348 21 17.4804 20.8946 17.2929 20.7071C17.1054 20.5196 17 20.2652 17 20V15.366C16.7751 15.4963 16.5084 15.534 16.2562 15.471C16.0041 15.408 15.7863 15.2493 15.6492 15.0285C15.512 14.8078 15.4662 14.5423 15.5214 14.2883C15.5766 14.0344 15.7286 13.8119 15.945 13.668L17.43 12.678C17.5821 12.5767 17.7588 12.5185 17.9413 12.5097C18.1238 12.5009 18.3053 12.5418 18.4665 12.628C18.6276 12.7142 18.7623 12.8425 18.8563 12.9992C18.9502 13.156 18.9999 13.3353 19 13.518V13.519Z" fill="currentColor"/>
</svg>
