<svg width="24" height="24" viewBox="0 0 24 24" fill="none" xmlns="http://www.w3.org/2000/svg">
<path fill-rule="evenodd" clip-rule="evenodd" d="M5 11C5 9.14348 5.7375 7.36301 7.05025 6.05025C8.36301 4.7375 10.1435 4 12 4C13.8565 4 15.637 4.7375 16.9497 6.05025C18.2625 7.36301 19 9.14348 19 11V13.035C20.696 13.278 22 14.737 22 16.5V16.75C22 17.1768 21.9159 17.5994 21.7526 17.9937C21.5893 18.388 21.3499 18.7463 21.0481 19.0481C20.7463 19.3499 20.388 19.5893 19.9937 19.7526C19.5994 19.9159 19.1768 20 18.75 20C18.2859 20 17.8408 19.8156 17.5126 19.4874C17.1844 19.1592 17 18.7141 17 18.25V11C17 9.67392 16.4732 8.40215 15.5355 7.46447C14.5979 6.52678 13.3261 6 12 6C10.6739 6 9.40215 6.52678 8.46447 7.46447C7.52678 8.40215 7 9.67392 7 11V18.25C7 18.7141 6.81563 19.1592 6.48744 19.4874C6.15925 19.8156 5.71413 20 5.25 20C4.38805 20 3.5614 19.6576 2.9519 19.0481C2.34241 18.4386 2 17.612 2 16.75V16.5C1.99978 15.6582 2.30296 14.8446 2.85395 14.2082C3.40495 13.5718 4.16685 13.1553 5 13.035V11ZM5 15.085C4.70742 15.1884 4.45413 15.3801 4.27503 15.6335C4.09593 15.8869 3.99984 16.1897 4 16.5V16.75C4 17.355 4.43 17.86 5 17.975V15.085ZM19 15.085V17.975C19.57 17.859 20 17.355 20 16.75V16.5C20.0002 16.1897 19.9041 15.8869 19.725 15.6335C19.5459 15.3801 19.2926 15.1884 19 15.085Z" fill="currentColor"/>
</svg>
