<svg width="24" height="24" viewBox="0 0 24 24" fill="none" xmlns="http://www.w3.org/2000/svg">
<path fill-rule="evenodd" clip-rule="evenodd" d="M21.9981 10.393C22.0631 7.501 20.5891 5.023 18.4941 3.801C16.5341 2.66 14.0721 2.653 12.0001 4.339C9.92807 2.653 7.46607 2.659 5.50607 3.801C3.41107 5.022 1.93707 7.501 2.00207 10.393C2.08307 14.003 4.89207 17.187 9.68107 20.031C10.3751 20.443 11.1551 21.001 12.0001 21.001C12.8611 21.001 13.6101 20.453 14.3201 20.031C19.1071 17.187 21.9171 14.002 21.9981 10.393ZM12.8431 6.272C14.3511 4.746 16.0931 4.718 17.4871 5.53C18.9311 6.371 20.0471 8.158 19.9981 10.348C19.9421 12.86 17.9581 15.543 13.2981 18.312C12.8901 18.554 12.4641 18.865 12.0001 18.994C11.5361 18.865 11.1101 18.554 10.7021 18.312C6.04207 15.542 4.05807 12.86 4.00207 10.348C3.95207 8.158 5.06907 6.371 6.51307 5.53C7.74007 4.815 9.23607 4.752 10.6051 5.786L9.24707 7.342C9.08025 7.53296 8.9922 7.78016 9.00074 8.03358C9.00928 8.287 9.11377 8.52771 9.29307 8.707L11.7131 11.127L10.1681 13.445C10.0952 13.5543 10.0445 13.6768 10.019 13.8056C9.99349 13.9345 9.99359 14.0671 10.0193 14.1959C10.0713 14.456 10.2244 14.6848 10.4451 14.832C10.6657 14.9792 10.9358 15.0327 11.1959 14.9808C11.456 14.9288 11.6849 14.7757 11.8321 14.555L13.8321 11.555C13.9603 11.3626 14.018 11.1317 13.9952 10.9017C13.9724 10.6716 13.8706 10.4565 13.7071 10.293L11.3681 7.953L12.7531 6.368C12.7831 6.335 12.8121 6.303 12.8431 6.272Z" fill="currentColor"/>
</svg>
