<svg width="24" height="24" viewBox="0 0 24 24" fill="none" xmlns="http://www.w3.org/2000/svg">
<path fill-rule="evenodd" clip-rule="evenodd" d="M12.0001 4.339C14.0721 2.653 16.5341 2.659 18.4941 3.801C20.5891 5.022 22.0631 7.501 21.9981 10.393C21.9191 13.913 19.2461 17.027 14.6751 19.817L14.3191 20.031C13.9881 20.229 13.6571 20.429 13.3121 20.604C12.9071 20.81 12.4621 21 12.0001 21C11.5371 21 11.0931 20.81 10.6871 20.604C10.4571 20.487 10.2341 20.36 10.0131 20.229L9.68107 20.031C4.89307 17.187 2.08307 14.002 2.00207 10.393C1.93707 7.501 3.41107 5.023 5.50607 3.801C7.46607 2.66 9.92807 2.652 12.0001 4.339ZM9.93007 10.376L8.89407 12.447C8.81108 12.6131 8.68349 12.7528 8.52559 12.8504C8.3677 12.9481 8.18573 12.9999 8.00007 13H4.77607C5.70107 14.646 7.48907 16.348 10.3261 18.085L10.7021 18.312C10.9961 18.487 11.2881 18.666 11.5931 18.821C11.7231 18.887 11.8581 18.955 12.0001 18.994C12.1421 18.954 12.2761 18.887 12.4071 18.821C12.6101 18.718 12.8071 18.603 13.0041 18.487L13.2981 18.312C16.3541 16.496 18.2591 14.718 19.2241 13H15.5351L13.8321 15.555C13.7322 15.7049 13.5937 15.825 13.4312 15.9026C13.2687 15.9803 13.0883 16.0127 12.9089 15.9963C12.7296 15.9799 12.558 15.9154 12.4123 15.8095C12.2666 15.7037 12.1521 15.5605 12.0811 15.395L9.93107 10.375L9.93007 10.376ZM17.4871 5.53C16.0931 4.718 14.3511 4.746 12.8431 6.272C12.7326 6.38321 12.6013 6.47146 12.4566 6.53169C12.3119 6.59192 12.1568 6.62293 12.0001 6.62293C11.8434 6.62293 11.6882 6.59192 11.5435 6.53169C11.3988 6.47146 11.2675 6.38321 11.1571 6.272C9.65007 4.746 7.90707 4.718 6.51307 5.53C5.06907 6.371 3.95307 8.158 4.00207 10.348C4.00507 10.492 4.01407 10.638 4.03007 10.782L4.06007 11H7.38207L9.10607 7.553C9.18654 7.39233 9.30882 7.25631 9.46005 7.15925C9.61128 7.06218 9.78587 7.00766 9.96546 7.00142C10.145 6.99518 10.323 7.03745 10.4806 7.12377C10.6382 7.2101 10.7696 7.3373 10.8611 7.492L10.9191 7.606L13.1921 12.91L14.1681 11.445C14.2478 11.3256 14.3523 11.2248 14.4745 11.1494C14.5966 11.074 14.7336 11.0258 14.8761 11.008L15.0001 11H19.9401C19.9737 10.7842 19.9931 10.5664 19.9981 10.348C20.0481 8.158 18.9311 6.371 17.4871 5.53Z" fill="currentColor"/>
</svg>
