<svg width="24" height="24" viewBox="0 0 24 24" fill="none" xmlns="http://www.w3.org/2000/svg">
<path fill-rule="evenodd" clip-rule="evenodd" d="M6.54604 5.51C5.08604 6.344 3.95204 8.14 4.00204 10.348C4.05804 12.86 6.04204 15.543 10.702 18.311L11 18.489V6.119C9.53704 4.753 7.88104 4.748 6.54604 5.51ZM5.55404 3.774C7.72904 2.532 10.502 2.687 12.674 4.964C12.881 5.179 13 5.47 13 5.774V20C13 20.2652 12.8947 20.5196 12.7071 20.7071C12.5196 20.8946 12.2653 21 12 21C11.537 21 11.093 20.81 10.687 20.604C10.325 20.42 9.94804 20.19 9.68104 20.031C4.89304 17.187 2.08304 14.002 2.00204 10.393C1.93704 7.479 3.43204 4.986 5.55404 3.774Z" fill="currentColor"/>
</svg>
