<svg width="24" height="24" viewBox="0 0 24 24" fill="none" xmlns="http://www.w3.org/2000/svg">
<path fill-rule="evenodd" clip-rule="evenodd" d="M9.514 3.00001C9.72977 3.00301 9.93878 3.07572 10.1098 3.20729C10.2809 3.33886 10.4048 3.52223 10.463 3.73001L14.136 16.79L16.064 11.649C16.1354 11.4584 16.2633 11.2942 16.4306 11.1782C16.5978 11.0623 16.7965 11.0001 17 11H20C20.2652 11 20.5196 11.1054 20.7071 11.2929C20.8946 11.4804 21 11.7348 21 12C21 12.2652 20.8946 12.5196 20.7071 12.7071C20.5196 12.8947 20.2652 13 20 13H17.693L14.936 20.351C14.862 20.5484 14.7276 20.7174 14.5519 20.8338C14.3761 20.9502 14.1681 21.0081 13.9575 20.9992C13.7469 20.9903 13.5445 20.9151 13.3792 20.7844C13.2139 20.6536 13.0941 20.4739 13.037 20.271L9.45 7.51401L7.954 12.298C7.89051 12.5014 7.76372 12.6792 7.59211 12.8055C7.42051 12.9317 7.21306 12.9999 7 13H4C3.73478 13 3.48043 12.8947 3.29289 12.7071C3.10536 12.5196 3 12.2652 3 12C3 11.7348 3.10536 11.4804 3.29289 11.2929C3.48043 11.1054 3.73478 11 4 11H6.265L8.545 3.70201C8.60933 3.49583 8.73869 3.31603 8.91372 3.18949C9.08875 3.06294 9.30005 2.99647 9.516 3.00001H9.514Z" fill="currentColor"/>
</svg>
