<svg width="24" height="24" viewBox="0 0 24 24" fill="none" xmlns="http://www.w3.org/2000/svg">
<path d="M15.9999 16C16.2651 16 16.5194 16.1054 16.707 16.2929C16.8945 16.4804 16.9999 16.7348 16.9999 17V17.268L17.2319 17.134C17.3456 17.0673 17.4715 17.0238 17.6021 17.0059C17.7328 16.988 17.8657 16.9962 17.9932 17.0299C18.1207 17.0636 18.2403 17.1222 18.345 17.2023C18.4498 17.2824 18.5377 17.3825 18.6036 17.4967C18.6696 17.6109 18.7123 17.737 18.7293 17.8678C18.7463 17.9986 18.7372 18.1314 18.7027 18.2587C18.6681 18.386 18.6087 18.5051 18.5279 18.6094C18.4471 18.7136 18.3465 18.8008 18.2319 18.866L17.9999 19L18.2319 19.134C18.4597 19.2676 18.6254 19.4858 18.6929 19.7411C18.7604 19.9964 18.7242 20.268 18.5921 20.4967C18.4601 20.7254 18.243 20.8926 17.9881 20.9617C17.7333 21.0309 17.4614 20.9965 17.2319 20.866L16.9999 20.732V21C16.9999 21.2652 16.8945 21.5196 16.707 21.7071C16.5194 21.8946 16.2651 22 15.9999 22C15.7346 22 15.4803 21.8946 15.2928 21.7071C15.1052 21.5196 14.9999 21.2652 14.9999 21V20.732L14.7679 20.866C14.6541 20.9327 14.5283 20.9762 14.3976 20.9941C14.2669 21.012 14.134 21.0038 14.0065 20.9701C13.879 20.9364 13.7594 20.8778 13.6547 20.7977C13.5499 20.7176 13.462 20.6175 13.3961 20.5033C13.3302 20.3891 13.2875 20.263 13.2705 20.1322C13.2535 20.0014 13.2625 19.8686 13.2971 19.7413C13.3316 19.614 13.391 19.4949 13.4718 19.3906C13.5526 19.2864 13.6532 19.1992 13.7679 19.134L13.9999 19L13.7679 18.866C13.6532 18.8008 13.5526 18.7136 13.4718 18.6094C13.391 18.5051 13.3316 18.386 13.2971 18.2587C13.2625 18.1314 13.2535 17.9986 13.2705 17.8678C13.2875 17.737 13.3302 17.6109 13.3961 17.4967C13.462 17.3825 13.5499 17.2824 13.6547 17.2023C13.7594 17.1222 13.879 17.0636 14.0065 17.0299C14.134 16.9962 14.2669 16.988 14.3976 17.0059C14.5283 17.0238 14.6541 17.0673 14.7679 17.134L14.9999 17.268V17C14.9999 16.7348 15.1052 16.4804 15.2928 16.2929C15.4803 16.1054 15.7346 16 15.9999 16ZM7.99986 16C8.26508 16 8.51943 16.1054 8.70697 16.2929C8.89451 16.4804 8.99986 16.7348 8.99986 17V17.268L9.23186 17.134C9.34563 17.0673 9.47147 17.0238 9.60214 17.0059C9.7328 16.988 9.86571 16.9962 9.99321 17.0299C10.1207 17.0636 10.2403 17.1222 10.345 17.2023C10.4498 17.2824 10.5377 17.3825 10.6036 17.4967C10.6696 17.6109 10.7123 17.737 10.7293 17.8678C10.7463 17.9986 10.7372 18.1314 10.7027 18.2587C10.6681 18.386 10.6087 18.5051 10.5279 18.6094C10.4471 18.7136 10.3465 18.8008 10.2319 18.866L9.99986 19L10.2319 19.134C10.4597 19.2676 10.6254 19.4858 10.6929 19.7411C10.7604 19.9964 10.7242 20.268 10.5921 20.4967C10.4601 20.7254 10.243 20.8926 9.98813 20.9617C9.73328 21.0309 9.46142 20.9965 9.23186 20.866L8.99986 20.732V21C8.99986 21.2652 8.89451 21.5196 8.70697 21.7071C8.51943 21.8946 8.26508 22 7.99986 22C7.73465 22 7.48029 21.8946 7.29276 21.7071C7.10522 21.5196 6.99986 21.2652 6.99986 21V20.732L6.76786 20.866C6.65409 20.9327 6.52825 20.9762 6.39759 20.9941C6.26692 21.012 6.13402 21.0038 6.00652 20.9701C5.87902 20.9364 5.75944 20.8778 5.65468 20.7977C5.54992 20.7176 5.46204 20.6175 5.3961 20.5033C5.33016 20.3891 5.28746 20.263 5.27046 20.1322C5.25346 20.0014 5.2625 19.8686 5.29705 19.7413C5.33161 19.614 5.39099 19.4949 5.4718 19.3906C5.5526 19.2864 5.65322 19.1992 5.76786 19.134L5.99986 19L5.76786 18.866C5.65322 18.8008 5.5526 18.7136 5.4718 18.6094C5.39099 18.5051 5.33161 18.386 5.29705 18.2587C5.2625 18.1314 5.25346 17.9986 5.27046 17.8678C5.28746 17.737 5.33016 17.6109 5.3961 17.4967C5.46204 17.3825 5.54992 17.2824 5.65468 17.2023C5.75944 17.1222 5.87902 17.0636 6.00652 17.0299C6.13402 16.9962 6.26692 16.988 6.39759 17.0059C6.52825 17.0238 6.65409 17.0673 6.76786 17.134L6.99986 17.268V17C6.99986 16.7348 7.10522 16.4804 7.29276 16.2929C7.48029 16.1054 7.73465 16 7.99986 16ZM11.9999 10C12.2651 10 12.5194 10.1054 12.707 10.2929C12.8945 10.4804 12.9999 10.7348 12.9999 11V11.268L13.2319 11.134C13.3456 11.0673 13.4715 11.0238 13.6021 11.0059C13.7328 10.988 13.8657 10.9962 13.9932 11.0299C14.1207 11.0636 14.2403 11.1222 14.345 11.2023C14.4498 11.2824 14.5377 11.3825 14.6036 11.4967C14.6696 11.6109 14.7123 11.737 14.7293 11.8678C14.7463 11.9986 14.7372 12.1314 14.7027 12.2587C14.6681 12.386 14.6087 12.5051 14.5279 12.6094C14.4471 12.7136 14.3465 12.8008 14.2319 12.866L13.9999 13L14.2319 13.134C14.4597 13.2676 14.6254 13.4858 14.6929 13.7411C14.7604 13.9964 14.7242 14.268 14.5921 14.4967C14.4601 14.7254 14.243 14.8926 13.9881 14.9617C13.7333 15.0309 13.4614 14.9965 13.2319 14.866L12.9999 14.732V15C12.9999 15.2652 12.8945 15.5196 12.707 15.7071C12.5194 15.8946 12.2651 16 11.9999 16C11.7346 16 11.4803 15.8946 11.2928 15.7071C11.1052 15.5196 10.9999 15.2652 10.9999 15V14.732L10.7679 14.866C10.6541 14.9327 10.5283 14.9762 10.3976 14.9941C10.2669 15.012 10.134 15.0038 10.0065 14.9701C9.87902 14.9364 9.75945 14.8778 9.65468 14.7977C9.54992 14.7176 9.46204 14.6175 9.3961 14.5033C9.33016 14.3891 9.28746 14.263 9.27046 14.1322C9.25346 14.0014 9.2625 13.8686 9.29705 13.7413C9.33161 13.614 9.39099 13.4949 9.4718 13.3906C9.5526 13.2864 9.65322 13.1992 9.76786 13.134L9.99986 13L9.76786 12.866C9.65322 12.8008 9.5526 12.7136 9.4718 12.6094C9.39099 12.5051 9.33161 12.386 9.29705 12.2587C9.2625 12.1314 9.25346 11.9986 9.27046 11.8678C9.28746 11.737 9.33016 11.6109 9.3961 11.4967C9.46204 11.3825 9.54992 11.2824 9.65468 11.2023C9.75945 11.1222 9.87902 11.0636 10.0065 11.0299C10.134 10.9962 10.2669 10.988 10.3976 11.0059C10.5283 11.0238 10.6541 11.0673 10.7679 11.134L10.9999 11.268V11C10.9999 10.7348 11.1052 10.4804 11.2928 10.2929C11.4803 10.1054 11.7346 10 11.9999 10ZM11.4999 2C12.8223 1.99987 14.1133 2.40298 15.2007 3.15554C16.288 3.9081 17.1201 4.97433 17.5859 6.212C18.5294 6.47084 19.3954 6.95642 20.1083 7.62645C20.8213 8.29648 21.3596 9.13064 21.6765 10.0563C21.9934 10.982 22.0792 11.9711 21.9264 12.9375C21.7736 13.9039 21.3868 14.8182 20.7999 15.601C20.6405 15.8132 20.4033 15.9533 20.1406 15.9907C19.8778 16.028 19.611 15.9594 19.3989 15.8C19.1867 15.6406 19.0465 15.4035 19.0092 15.1407C18.9719 14.878 19.0405 14.6112 19.1999 14.399C19.6118 13.8493 19.8752 13.2028 19.9649 12.5217C20.0545 11.8407 19.9673 11.148 19.7116 10.5105C19.4559 9.8729 19.0404 9.3119 18.505 8.88149C17.9696 8.45109 17.3325 8.16576 16.6549 8.053C16.4639 8.02143 16.286 7.93565 16.1424 7.80587C15.9988 7.6761 15.8955 7.5078 15.8449 7.321C15.5519 6.22225 14.8539 5.27515 13.8911 4.67012C12.9283 4.06509 11.7721 3.84699 10.655 4.05969C9.53799 4.27238 8.54287 4.90009 7.86978 5.81661C7.19669 6.73313 6.89553 7.87048 7.02686 9C7.05345 9.24288 6.9911 9.48716 6.85136 9.68758C6.71161 9.888 6.50396 10.031 6.26686 10.09C5.83483 10.1989 5.43244 10.4025 5.0889 10.6862C4.74535 10.9699 4.46925 11.3265 4.28064 11.7302C4.09203 12.1338 3.99563 12.5744 3.99844 13.0199C4.00124 13.4654 4.10318 13.9048 4.29686 14.306L4.39986 14.499C4.46566 14.6127 4.50842 14.7382 4.52571 14.8683C4.54299 14.9985 4.53447 15.1308 4.50062 15.2577C4.46678 15.3846 4.40827 15.5036 4.32844 15.6079C4.24861 15.7122 4.14902 15.7997 4.03536 15.8655C3.80582 15.9984 3.53289 16.0346 3.27662 15.9663C3.02035 15.8979 2.80174 15.7305 2.66886 15.501C2.31657 14.8913 2.09702 14.2142 2.02458 13.5138C1.95214 12.8134 2.02844 12.1056 2.2485 11.4367C2.46856 10.7679 2.8274 10.1531 3.30154 9.6325C3.77567 9.11194 4.35441 8.69739 4.99986 8.416C5.02195 6.70669 5.71651 5.07489 6.93311 3.87401C8.14971 2.67313 9.79041 1.99986 11.4999 2Z" fill="currentColor"/>
</svg>
