<svg width="24" height="24" viewBox="0 0 24 24" fill="none" xmlns="http://www.w3.org/2000/svg">
<path fill-rule="evenodd" clip-rule="evenodd" d="M11.4991 2C9.78961 1.99986 8.14892 2.67313 6.93232 3.87401C5.71572 5.07489 5.02116 6.70669 4.99906 8.416C4.3537 8.69749 3.77506 9.11211 3.30103 9.63271C2.827 10.1533 2.46826 10.7682 2.2483 11.437C2.02834 12.1058 1.95212 12.8136 2.02463 13.5139C2.09714 14.2143 2.31674 14.8914 2.66906 15.501C2.80579 15.7226 3.02357 15.8822 3.2761 15.9457C3.52863 16.0092 3.79598 15.9718 4.02131 15.8413C4.24665 15.7108 4.41218 15.4975 4.48273 15.2468C4.55327 14.9962 4.52326 14.7279 4.39906 14.499C4.16735 14.0969 4.03201 13.6465 4.00369 13.1833C3.97538 12.7201 4.05484 12.2566 4.23586 11.8292C4.41687 11.4019 4.6945 11.0224 5.04694 10.7204C5.39937 10.4184 5.81702 10.2023 6.26706 10.089C6.50415 10.0302 6.7119 9.88746 6.85182 9.68723C6.99174 9.48701 7.05435 9.24285 7.02806 9C6.89853 7.87144 7.2006 6.73565 7.87367 5.82056C8.54674 4.90547 9.541 4.27879 10.6569 4.06629C11.7728 3.85379 12.9278 4.07119 13.8901 4.67487C14.8524 5.27854 15.5508 6.22382 15.8451 7.321C15.9481 7.704 16.2651 7.991 16.6551 8.054C17.3328 8.16662 17.97 8.45184 18.5055 8.88219C19.041 9.31254 19.4567 9.87352 19.7125 10.5111C19.9683 11.1487 20.0556 11.8414 19.966 12.5225C19.8764 13.2036 19.613 13.8502 19.2011 14.4C19.0417 14.612 18.973 14.8787 19.0103 15.1414C19.0475 15.404 19.1875 15.6411 19.3996 15.8005C19.6116 15.9599 19.8783 16.0285 20.1409 15.9913C20.4036 15.9541 20.6407 15.814 20.8001 15.602C21.387 14.8192 21.7738 13.9049 21.9266 12.9385C22.0794 11.9721 21.9936 10.983 21.6767 10.0573C21.3598 9.13165 20.8215 8.29748 20.1085 7.62745C19.3956 6.95742 18.5296 6.47184 17.5861 6.213C17.1204 4.97498 16.2883 3.90842 15.2007 3.15566C14.1131 2.4029 12.8218 1.99975 11.4991 2ZM7.03106 14.136C7.15793 14.17 7.27685 14.2287 7.38105 14.3086C7.48524 14.3886 7.57266 14.4883 7.63831 14.6021C7.70397 14.7158 7.74657 14.8414 7.76368 14.9716C7.7808 15.1018 7.77209 15.2341 7.73806 15.361L6.18506 21.157C6.11637 21.4132 5.94872 21.6316 5.71899 21.7642C5.48926 21.8968 5.21626 21.9327 4.96006 21.864C4.70387 21.7953 4.48545 21.6277 4.35286 21.3979C4.22027 21.1682 4.18437 20.8952 4.25306 20.639L5.80606 14.844C5.83996 14.717 5.89854 14.598 5.97846 14.4937C6.05838 14.3894 6.15807 14.3019 6.27183 14.2361C6.3856 14.1704 6.51121 14.1277 6.64149 14.1105C6.77176 14.0933 6.90414 14.102 7.03106 14.136ZM17.5311 14.136C17.6579 14.17 17.7769 14.2287 17.881 14.3086C17.9852 14.3886 18.0727 14.4883 18.1383 14.6021C18.204 14.7158 18.2466 14.8414 18.2637 14.9716C18.2808 15.1018 18.2721 15.2341 18.2381 15.361L16.6851 21.157C16.6164 21.4132 16.4487 21.6316 16.219 21.7642C15.9893 21.8968 15.7163 21.9327 15.4601 21.864C15.2039 21.7953 14.9854 21.6277 14.8529 21.3979C14.7203 21.1682 14.6844 20.8952 14.7531 20.639L16.3061 14.844C16.34 14.717 16.3985 14.598 16.4785 14.4937C16.5584 14.3894 16.6581 14.3019 16.7718 14.2361C16.8856 14.1704 17.0112 14.1277 17.1415 14.1105C17.2718 14.0933 17.4041 14.102 17.5311 14.136ZM10.5311 14.136C10.6579 14.17 10.7769 14.2287 10.881 14.3086C10.9852 14.3886 11.0727 14.4883 11.1383 14.6021C11.204 14.7158 11.2466 14.8414 11.2637 14.9716C11.2808 15.1018 11.2721 15.2341 11.2381 15.361L9.68506 21.157C9.61637 21.4132 9.44872 21.6316 9.21899 21.7642C8.98926 21.8968 8.71626 21.9327 8.46006 21.864C8.20387 21.7953 7.98545 21.6277 7.85286 21.3979C7.72027 21.1682 7.68437 20.8952 7.75306 20.639L9.30606 14.844C9.34006 14.7171 9.39872 14.5982 9.47869 14.494C9.55865 14.3898 9.65836 14.3024 9.77212 14.2368C9.88587 14.1711 10.0114 14.1285 10.1417 14.1114C10.2719 14.0943 10.4042 14.103 10.5311 14.137V14.136ZM14.7381 15.361C14.8068 15.1048 14.7709 14.8318 14.6383 14.6021C14.5057 14.3723 14.2873 14.2047 14.0311 14.136C13.7749 14.0673 13.5019 14.1032 13.2721 14.2358C13.0424 14.3684 12.8748 14.5868 12.8061 14.843L11.2531 20.639C11.1844 20.8952 11.2203 21.1682 11.3529 21.3979C11.4854 21.6277 11.7039 21.7953 11.9601 21.864C12.2163 21.9327 12.4893 21.8968 12.719 21.7642C12.9487 21.6316 13.1164 21.4132 13.1851 21.157L14.7381 15.361Z" fill="currentColor"/>
</svg>
