<svg width="24" height="24" viewBox="0 0 24 24" fill="none" xmlns="http://www.w3.org/2000/svg">
<path fill-rule="evenodd" clip-rule="evenodd" d="M4.318 12.31C4.116 12.154 4.04 12.048 4.013 12C4.04 11.952 4.116 11.846 4.318 11.69C4.656 11.43 5.205 11.145 5.962 10.883C7.468 10.363 9.605 10 12 10C14.396 10 16.532 10.363 18.038 10.883C18.795 11.145 19.344 11.429 19.682 11.69C19.867 11.833 19.947 11.934 19.98 11.987C19.944 12.037 19.864 12.132 19.686 12.267C19.344 12.529 18.79 12.817 18.032 13.085C16.524 13.616 14.389 14 12 14C9.605 14 7.468 13.637 5.962 13.117C5.205 12.855 4.656 12.571 4.318 12.31ZM12 8C9.425 8 7.062 8.387 5.31 8.992C4.439 9.293 3.67 9.665 3.096 10.107C2.553 10.527 2 11.16 2 12C2 17.523 6.477 22 12 22C17.523 22 22 17.523 22 12C22 11.16 21.447 10.527 20.904 10.107C20.331 9.665 19.561 9.293 18.69 8.992C16.938 8.387 14.575 8 12 8ZM19.558 14.63C19.286 14.751 18.998 14.865 18.696 14.971C16.946 15.588 14.582 16 12 16C9.425 16 7.062 15.613 5.31 15.008C5.02154 14.9091 4.7373 14.7984 4.458 14.676C5.01255 16.2379 6.03835 17.5891 7.39374 18.543C8.74913 19.4969 10.3672 20.0064 12.0246 20.0012C13.682 19.9961 15.297 19.4765 16.6464 18.5142C17.9958 17.5518 19.0132 16.1943 19.558 14.629" fill="currentColor"/>
</svg>
