<svg width="24" height="24" viewBox="0 0 24 24" fill="none" xmlns="http://www.w3.org/2000/svg">
<path fill-rule="evenodd" clip-rule="evenodd" d="M12 2C12.84 2 13.473 2.553 13.893 3.096C14.335 3.669 14.707 4.439 15.008 5.31C15.613 7.062 16 9.425 16 12C16 14.575 15.613 16.938 15.008 18.69C14.707 19.561 14.335 20.33 13.893 20.904C13.473 21.447 12.84 22 12 22C6.477 22 2 17.523 2 12C2 6.477 6.477 2 12 2ZM12 4.013C11.952 4.04 11.846 4.116 11.69 4.318C11.43 4.656 11.145 5.205 10.883 5.962C10.363 7.468 10 9.605 10 12C10 14.389 10.384 16.524 10.915 18.032C11.182 18.79 11.471 19.344 11.732 19.686L11.797 19.767L11.905 19.887L11.948 19.927L12.013 19.98L12.082 19.929C12.138 19.882 12.215 19.805 12.31 19.682C12.57 19.344 12.855 18.795 13.117 18.038C13.637 16.532 14 14.396 14 12C14 9.605 13.637 7.468 13.117 5.962C12.855 5.205 12.571 4.656 12.31 4.318C12.2394 4.22243 12.1579 4.1355 12.067 4.059L12 4.013ZM9.324 4.458C7.76212 5.01255 6.41094 6.03835 5.45704 7.39374C4.50315 8.74913 3.9936 10.3672 3.99876 12.0246C4.00392 13.682 4.52353 15.297 5.48584 16.6464C6.44816 17.9958 7.8057 19.0132 9.371 19.558C9.249 19.286 9.135 18.998 9.029 18.696C8.412 16.946 8 14.582 8 12C8 9.425 8.387 7.062 8.992 5.31C9.095 5.013 9.205 4.728 9.324 4.458Z" fill="currentColor"/>
</svg>
