<svg width="24" height="24" viewBox="0 0 24 24" fill="none" xmlns="http://www.w3.org/2000/svg">
<path fill-rule="evenodd" clip-rule="evenodd" d="M10.7501 2.56701C11.1301 2.34759 11.5612 2.23207 12.0001 2.23207C12.4389 2.23207 12.87 2.34759 13.2501 2.56701L19.5441 6.20001C19.9241 6.41942 20.2397 6.73501 20.4591 7.11504C20.6785 7.49508 20.794 7.92618 20.7941 8.36501V15.633C20.794 16.0718 20.6785 16.5029 20.4591 16.883C20.2397 17.263 19.9241 17.5786 19.5441 17.798L13.2501 21.432C12.87 21.6514 12.4389 21.7669 12.0001 21.7669C11.5612 21.7669 11.1301 21.6514 10.7501 21.432L4.45605 17.798C4.07602 17.5786 3.76043 17.263 3.54101 16.883C3.32159 16.5029 3.20607 16.0718 3.20605 15.633V8.36601C3.20589 7.92701 3.32133 7.4957 3.54076 7.11548C3.76019 6.73525 4.07587 6.41951 4.45605 6.20001L10.7501 2.56701ZM12.2501 4.29901C12.174 4.25512 12.0878 4.23202 12.0001 4.23202C11.9123 4.23202 11.8261 4.25512 11.7501 4.29901L5.45605 7.93301C5.38005 7.97689 5.31693 8.04001 5.27305 8.11601C5.22916 8.19202 5.20606 8.27824 5.20605 8.36601V15.634C5.20606 15.7218 5.22916 15.808 5.27305 15.884C5.31693 15.96 5.38005 16.0231 5.45605 16.067L11.7501 19.7C11.8261 19.7439 11.9123 19.767 12.0001 19.767C12.0878 19.767 12.174 19.7439 12.2501 19.7L18.5441 16.066C18.6201 16.0221 18.6832 15.959 18.7271 15.883C18.7709 15.807 18.7941 15.7208 18.7941 15.633V8.36601C18.7941 8.27824 18.7709 8.19202 18.7271 8.11601C18.6832 8.04001 18.6201 7.97689 18.5441 7.93301L12.2501 4.29901Z" fill="currentColor"/>
</svg>
