<svg width="24" height="24" viewBox="0 0 24 24" fill="none" xmlns="http://www.w3.org/2000/svg">
<path fill-rule="evenodd" clip-rule="evenodd" d="M5.63633 5.63599C5.08729 6.18503 4.67367 6.85439 4.42824 7.59104C4.1828 8.32768 4.1123 9.11137 4.22232 9.87999L4.64632 12.85C4.67255 13.0339 4.74945 13.2068 4.86843 13.3494C4.9874 13.492 5.14373 13.5987 5.31991 13.6574C5.49609 13.7162 5.68515 13.7247 5.86591 13.6821C6.04667 13.6394 6.21198 13.5473 6.34332 13.416L9.17232 10.587L16.9493 18.365C17.1368 18.5526 17.3912 18.6581 17.6565 18.6582C17.9217 18.6583 18.1762 18.553 18.3638 18.3655C18.5515 18.178 18.6569 17.9236 18.657 17.6583C18.6571 17.3931 18.5518 17.1386 18.3643 16.951L10.5863 9.17299L13.4143 6.34399C13.5456 6.21265 13.6378 6.04734 13.6804 5.86658C13.7231 5.68582 13.7145 5.49676 13.6558 5.32058C13.597 5.1444 13.4903 4.98806 13.3477 4.86909C13.2051 4.75012 13.0322 4.67321 12.8483 4.64699L9.87832 4.22299C9.11002 4.11329 8.32672 4.18395 7.59045 4.42937C6.85418 4.6748 6.18515 5.08725 5.63633 5.63599ZM8.48632 8.44399L10.5863 6.34399L9.59632 6.20199C9.13529 6.13615 8.66526 6.17855 8.22345 6.32583C7.78163 6.47311 7.38018 6.72123 7.05087 7.05054C6.72156 7.37985 6.47344 7.7813 6.32616 8.22311C6.17888 8.66492 6.13648 9.13495 6.20233 9.59599L6.34332 10.586L8.44332 8.48599C8.4569 8.47158 8.47091 8.45757 8.48532 8.44399H8.48632Z" fill="currentColor"/>
</svg>
