<svg width="24" height="24" viewBox="0 0 24 24" fill="none" xmlns="http://www.w3.org/2000/svg">
<path fill-rule="evenodd" clip-rule="evenodd" d="M10.671 2.84301C11.0372 2.51743 11.5101 2.33759 12 2.33759C12.49 2.33759 12.9629 2.51743 13.329 2.84301L17.263 6.34001L17.513 4.83601C17.5346 4.70646 17.5814 4.58242 17.6509 4.47098C17.7204 4.35953 17.8111 4.26286 17.918 4.18648C18.0248 4.11011 18.1456 4.05552 18.2735 4.02584C18.4015 3.99616 18.534 3.99197 18.6635 4.01351C18.7931 4.03505 18.9171 4.08189 19.0286 4.15136C19.14 4.22084 19.2367 4.31158 19.3131 4.41841C19.3895 4.52525 19.444 4.64608 19.4737 4.77401C19.5034 4.90194 19.5076 5.03446 19.486 5.16401L19.0301 7.91001L21.6651 10.253C21.8532 10.4317 21.9645 10.6766 21.9754 10.9358C21.9864 11.1951 21.8961 11.4484 21.7237 11.6424C21.5513 11.8363 21.3103 11.9557 21.0515 11.9752C20.7928 11.9947 20.5366 11.9129 20.337 11.747L19.873 11.335L19.0861 19.199C19.0367 19.6927 18.8056 20.1504 18.4376 20.4832C18.0697 20.8161 17.5912 21.0002 17.095 21H6.90505C6.40908 21 5.93081 20.8157 5.56308 20.4829C5.19535 20.1501 4.9644 19.6925 4.91505 19.199L4.12905 11.335L3.66405 11.747C3.46451 11.9129 3.2083 11.9947 2.94955 11.9752C2.6908 11.9557 2.44977 11.8363 2.27737 11.6424C2.10498 11.4484 2.01472 11.1951 2.02567 10.9358C2.03662 10.6766 2.14792 10.4317 2.33605 10.253L10.671 2.84301ZM5.95705 9.71001C5.97605 9.77201 5.98805 9.83501 5.99505 9.90101L6.90505 19.001H17.095L18.005 9.90101C18.012 9.83501 18.025 9.77101 18.043 9.71101L12 4.33701L5.95705 9.71001Z" fill="currentColor"/>
</svg>
