<svg width="24" height="24" viewBox="0 0 24 24" fill="none" xmlns="http://www.w3.org/2000/svg">
<path fill-rule="evenodd" clip-rule="evenodd" d="M13.2 2.65L20.2 7.9C20.4484 8.08629 20.65 8.32786 20.7889 8.60557C20.9277 8.88328 21 9.18951 21 9.5V19C21 19.5304 20.7893 20.0391 20.4142 20.4142C20.0391 20.7893 19.5304 21 19 21H5C4.46957 21 3.96086 20.7893 3.58579 20.4142C3.21071 20.0391 3 19.5304 3 19V9.5C3 9.18951 3.07229 8.88328 3.21115 8.60557C3.35 8.32786 3.55161 8.08629 3.8 7.9L10.8 2.65C11.1462 2.39036 11.5673 2.25 12 2.25C12.4327 2.25 12.8538 2.39036 13.2 2.65ZM12 4.25L5 9.5V19H19V9.5L12 4.25ZM12 15C12.2652 15 12.5196 15.1054 12.7071 15.2929C12.8946 15.4804 13 15.7348 13 16C13 16.2652 12.8946 16.5196 12.7071 16.7071C12.5196 16.8946 12.2652 17 12 17C11.7348 17 11.4804 16.8946 11.2929 16.7071C11.1054 16.5196 11 16.2652 11 16C11 15.7348 11.1054 15.4804 11.2929 15.2929C11.4804 15.1054 11.7348 15 12 15ZM12 12C13.008 12 13.931 12.374 14.634 12.99C14.7345 13.076 14.8169 13.1811 14.8765 13.2991C14.9361 13.4172 14.9717 13.5459 14.9812 13.6778C14.9907 13.8097 14.974 13.9422 14.9319 14.0676C14.8899 14.193 14.8234 14.3088 14.7363 14.4083C14.6492 14.5078 14.5433 14.5891 14.4246 14.6474C14.3059 14.7057 14.1768 14.7398 14.0448 14.7479C13.9128 14.756 13.7805 14.7378 13.6556 14.6944C13.5306 14.6509 13.4156 14.5832 13.317 14.495C12.953 14.175 12.4847 13.9989 12 14C11.495 14 11.036 14.186 10.683 14.495C10.5844 14.5832 10.4694 14.6509 10.3444 14.6944C10.2195 14.7378 10.0872 14.756 9.95523 14.7479C9.82323 14.7398 9.69414 14.7057 9.57543 14.6474C9.45672 14.5891 9.35075 14.5078 9.26366 14.4083C9.17657 14.3088 9.11008 14.193 9.06805 14.0676C9.02602 13.9422 9.00928 13.8097 9.0188 13.6778C9.02832 13.5459 9.0639 13.4172 9.1235 13.2991C9.1831 13.1811 9.26552 13.076 9.366 12.99C10.0945 12.3509 11.0309 11.999 12 12ZM12 9C13.765 9 15.38 9.654 16.61 10.732C16.8096 10.9068 16.9315 11.1537 16.9491 11.4184C16.9666 11.6831 16.8783 11.9439 16.7035 12.1435C16.5287 12.3431 16.2818 12.465 16.0171 12.4826C15.7524 12.5001 15.4916 12.4118 15.292 12.237C14.3818 11.4378 13.2113 10.998 12 11C10.7887 10.998 9.61824 11.4378 8.708 12.237C8.50842 12.4118 8.24759 12.5001 7.98289 12.4826C7.71818 12.465 7.47128 12.3431 7.2965 12.1435C7.12172 11.9439 7.03338 11.6831 7.05092 11.4184C7.06845 11.1537 7.19042 10.9068 7.39 10.732C8.66506 9.61351 10.3039 8.9978 12 9Z" fill="currentColor"/>
</svg>
