<svg width="24" height="24" viewBox="0 0 24 24" fill="none" xmlns="http://www.w3.org/2000/svg">
<path fill-rule="evenodd" clip-rule="evenodd" d="M12 3C10.16 3 8.455 3.232 7.176 3.631C6.543 3.829 5.958 4.086 5.509 4.417L5.333 4.547C4.28335 5.48406 3.44376 6.63252 2.86934 7.917C2.29491 9.20148 1.99865 10.5929 2 12C2 17.523 6.47701 22 12 22C17.523 22 22 17.523 22 12C22.0014 10.5959 21.7063 9.20737 21.1342 7.92513C20.5621 6.64289 19.7258 5.49585 18.68 4.559L18.491 4.417C18.043 4.086 17.457 3.829 16.824 3.631C15.545 3.231 13.84 3 12 3ZM7.773 5.54C7.279 5.695 6.938 5.859 6.733 6C6.938 6.141 7.279 6.305 7.773 6.46C8.81 6.784 10.305 7 12 7C13.695 7 15.19 6.784 16.227 6.46C16.722 6.305 17.063 6.141 17.267 6C17.063 5.859 16.722 5.695 16.227 5.54C15.19 5.216 13.695 5 12 5C10.305 5 8.81 5.216 7.773 5.54ZM18.609 7.491C18.569 7.523 18.53 7.554 18.491 7.583C18.043 7.914 17.457 8.171 16.824 8.369C15.545 8.769 13.84 9 12 9C10.16 9 8.455 8.768 7.176 8.369C6.543 8.171 5.958 7.914 5.509 7.583C5.46892 7.5533 5.42958 7.52263 5.391 7.491C4.5712 8.6932 4.09481 10.0962 4.01312 11.5491C3.93143 13.0019 4.24754 14.4495 4.92741 15.736C5.60728 17.0225 6.62517 18.0992 7.8715 18.8503C9.11783 19.6013 10.5454 19.9982 12.0005 19.9982C13.4556 19.9982 14.8832 19.6013 16.1295 18.8503C17.3758 18.0992 18.3937 17.0225 19.0736 15.736C19.7535 14.4495 20.0696 13.0019 19.9879 11.5491C19.9062 10.0962 19.4298 8.6932 18.61 7.491H18.609Z" fill="currentColor"/>
</svg>
