<svg width="24" height="24" viewBox="0 0 24 24" fill="none" xmlns="http://www.w3.org/2000/svg">
<path d="M10.772 2.68801C11.1 2.4328 11.4994 2.28614 11.9147 2.26839C12.3299 2.25065 12.7404 2.36272 13.089 2.58901L13.228 2.68901L21.612 9.20901C22.333 9.77001 21.982 10.901 21.113 10.994L20.997 11H20V19C20.0002 19.5046 19.8096 19.9906 19.4665 20.3606C19.1234 20.7305 18.6532 20.9572 18.15 20.995L18 21H6C5.49559 20.9999 5.00985 20.8092 4.64008 20.4662C4.27031 20.1231 4.04383 19.653 4.006 19.15L4 19V11H3.003C2.09 11 1.671 9.89201 2.3 9.28501L2.388 9.20901L10.772 2.68801ZM12 4.26701L5.625 9.22501C5.854 9.41001 6 9.69301 6 10.01V19H9V14C9 13.2044 9.31607 12.4413 9.87868 11.8787C10.4413 11.3161 11.2043 11 12 11C12.7956 11 13.5587 11.3161 14.1213 11.8787C14.6839 12.4413 15 13.2044 15 14V19H18V10.01C18 9.69301 18.146 9.41001 18.375 9.22501L12 4.26701ZM12 13C11.7348 13 11.4804 13.1054 11.2929 13.2929C11.1054 13.4804 11 13.7348 11 14V19H13V14C13 13.7348 12.8946 13.4804 12.7071 13.2929C12.5196 13.1054 12.2652 13 12 13Z" fill="currentColor"/>
</svg>
