<svg width="24" height="24" viewBox="0 0 24 24" fill="none" xmlns="http://www.w3.org/2000/svg">
<path fill-rule="evenodd" clip-rule="evenodd" d="M13.228 2.68799C12.8769 2.41488 12.4448 2.2666 12 2.2666C11.5552 2.2666 11.1231 2.41488 10.772 2.68799L2.38798 9.20799C1.63598 9.79499 2.04998 11 3.00298 11H4.09498L4.91498 19.199C4.96433 19.6925 5.19529 20.1501 5.56302 20.4829C5.93075 20.8157 6.40901 21 6.90498 21H17.095C17.5909 21 18.0692 20.8157 18.4369 20.4829C18.8047 20.1501 19.0356 19.6925 19.085 19.199L19.905 11H20.997C21.949 11 22.365 9.79499 21.612 9.20899L13.228 2.68799ZM5.99598 9.90999C5.98267 9.77716 5.94312 9.64829 5.8796 9.53087C5.81608 9.41345 5.72988 9.30982 5.62598 9.22599L12 4.26699L18.374 9.22499C18.2701 9.30882 18.1839 9.41245 18.1204 9.52987C18.0568 9.64729 18.0173 9.77616 18.004 9.90899L17.095 19H6.90498L5.99598 9.90999ZM10.5 13C10.5 12.6022 10.658 12.2206 10.9393 11.9393C11.2206 11.658 11.6022 11.5 12 11.5C12.3978 11.5 12.7793 11.658 13.0606 11.9393C13.3419 12.2206 13.5 12.6022 13.5 13C13.5 13.3978 13.3419 13.7793 13.0606 14.0606C12.7793 14.342 12.3978 14.5 12 14.5C11.6022 14.5 11.2206 14.342 10.9393 14.0606C10.658 13.7793 10.5 13.3978 10.5 13ZM12 9.49999C11.0717 9.49999 10.1815 9.86874 9.52511 10.5251C8.86873 11.1815 8.49998 12.0717 8.49998 13C8.49998 13.9282 8.86873 14.8185 9.52511 15.4749C10.1815 16.1312 11.0717 16.5 12 16.5C12.9282 16.5 13.8185 16.1312 14.4749 15.4749C15.1312 14.8185 15.5 13.9282 15.5 13C15.5 12.0717 15.1312 11.1815 14.4749 10.5251C13.8185 9.86874 12.9282 9.49999 12 9.49999Z" fill="currentColor"/>
</svg>
