<svg width="24" height="24" viewBox="0 0 24 24" fill="none" xmlns="http://www.w3.org/2000/svg">
<path fill-rule="evenodd" clip-rule="evenodd" d="M5.97252 4.39499C6.3176 4.22245 6.70521 4.1534 7.08863 4.19616C7.47206 4.23892 7.83494 4.39167 8.13352 4.63599L12.9315 8.56199C13.4065 8.28199 13.8945 7.95399 14.4315 7.59399C16.0775 6.48999 17.7585 5.43399 19.6565 4.81499C20.035 4.69634 20.4204 4.60083 20.8105 4.52899L21.1875 6.49299C20.8793 6.5491 20.5747 6.6239 20.2755 6.71699C18.5935 7.26499 17.1035 8.21099 15.6445 9.18999C14.7965 9.75899 13.9355 10.336 13.0905 10.75C12.4505 11.062 11.6265 11.274 10.8245 11.45C10.0065 11.63 9.14052 11.786 8.29952 11.975C7.46652 12.163 6.73152 12.369 6.15752 12.629C5.56852 12.896 5.29152 13.157 5.18252 13.37C4.82452 14.07 5.03852 14.832 5.45052 15.516C5.61552 15.787 5.99252 16 6.55952 16H9.16952C9.37612 15.4145 9.75926 14.9074 10.2661 14.5488C10.773 14.1901 11.3786 13.9975 11.9995 13.9975C12.6204 13.9975 13.2261 14.1901 13.7329 14.5488C14.2398 14.9074 14.6229 15.4145 14.8295 16H20.9995V18H14.8295C14.6229 18.5855 14.2398 19.0926 13.7329 19.4512C13.2261 19.8098 12.6204 20.0024 11.9995 20.0024C11.3786 20.0024 10.773 19.8098 10.2661 19.4512C9.75926 19.0926 9.37612 18.5855 9.16952 18H6.55952C5.55952 18 4.38452 17.62 3.73952 16.55C3.20252 15.661 2.56652 14.092 3.40152 12.46C3.81452 11.652 4.58252 11.147 5.33252 10.807C6.09752 10.461 6.99552 10.219 7.85952 10.024C8.83752 9.80399 9.82752 9.63599 10.8025 9.40399L6.86752 6.18399L5.44752 6.89399C5.32977 6.95629 5.20075 6.99444 5.06806 7.00618C4.93536 7.01793 4.80165 7.00305 4.67478 6.9624C4.54791 6.92176 4.43045 6.85617 4.32928 6.7695C4.22811 6.68283 4.14528 6.57682 4.08565 6.45769C4.02602 6.33856 3.99079 6.20872 3.98203 6.07579C3.97328 5.94286 3.99117 5.80952 4.03467 5.6836C4.07816 5.55769 4.14637 5.44173 4.2353 5.34254C4.32423 5.24335 4.43208 5.16292 4.55252 5.10599L5.97252 4.39499ZM11.9945 18H12.0045C12.2693 17.9987 12.5227 17.8924 12.7093 17.7045C12.8958 17.5165 13.0002 17.2623 12.9995 16.9975C12.9989 16.7327 12.8932 16.479 12.7057 16.292C12.5183 16.105 12.2643 16 11.9995 16C11.7347 16 11.4808 16.105 11.2933 16.292C11.1058 16.479 11.0002 16.7327 10.9995 16.9975C10.9989 17.2623 11.1032 17.5165 11.2898 17.7045C11.4763 17.8924 11.7297 17.9987 11.9945 18Z" fill="currentColor"/>
</svg>
