<svg width="24" height="24" viewBox="0 0 24 24" fill="none" xmlns="http://www.w3.org/2000/svg">
<path fill-rule="evenodd" clip-rule="evenodd" d="M20.255 5.51999L20.342 5.81799L20.431 6.15599L20.475 6.34099L20.564 6.74099L20.649 7.18399L20.73 7.66899C20.756 7.83799 20.78 8.01399 20.804 8.19699L20.869 8.76899C20.949 9.55999 21 10.469 21 11.5C21 12.531 20.95 13.44 20.87 14.231L20.804 14.803C20.781 14.986 20.756 15.163 20.73 15.331L20.65 15.816L20.564 16.259L20.475 16.659L20.386 17.019L20.298 17.336L20.255 17.48C19.924 18.567 18.791 18.985 17.861 18.675L16.681 18.282L16.281 19.215C16.0835 19.676 15.7199 20.046 15.2624 20.2516C14.8049 20.4572 14.2869 20.4834 13.811 20.325L8.715 18.625C8.45269 18.5375 8.21137 18.3966 8.00628 18.2111C7.80119 18.0256 7.63679 17.7997 7.52346 17.5474C7.41013 17.2952 7.35033 17.0222 7.34784 16.7457C7.34535 16.4692 7.40023 16.1952 7.509 15.941L7.778 15.313L7 15.055L5.632 15.511C5.33133 15.6111 5.01118 15.6384 4.69791 15.5905C4.38464 15.5427 4.08723 15.421 3.83019 15.2357C3.57315 15.0503 3.36383 14.8065 3.21949 14.5244C3.07516 14.2423 2.99992 13.9299 3 13.613V9.38799C2.99992 9.07108 3.07516 8.7587 3.21949 8.47657C3.36383 8.19445 3.57315 7.95066 3.83019 7.7653C4.08723 7.57994 4.38464 7.45832 4.69791 7.41045C5.01118 7.36259 5.33133 7.38985 5.632 7.48999L7 7.94599L17.861 4.32599C18.791 4.01599 19.924 4.43299 20.255 5.51999ZM9.682 15.948L9.347 16.728L14.443 18.428L14.778 17.647L9.682 15.948ZM18.388 6.25799L8 9.72099V13.279L18.388 16.742L18.465 16.459L18.545 16.132L18.585 15.952L18.663 15.558C18.6902 15.412 18.7155 15.2656 18.739 15.119L18.809 14.634C18.921 13.787 19 12.747 19 11.5C19 10.254 18.92 9.21299 18.81 8.36599L18.739 7.88099C18.714 7.72699 18.689 7.58099 18.663 7.44099L18.584 7.04799L18.504 6.69899L18.388 6.25799ZM5 9.38799V13.613L6 13.279V9.72099L5 9.38799Z" fill="currentColor"/>
</svg>
