<svg width="24" height="24" viewBox="0 0 24 24" fill="none" xmlns="http://www.w3.org/2000/svg">
<path d="M15 2C15.5304 2 16.0391 2.21071 16.4142 2.58579C16.7893 2.96086 17 3.46957 17 4V9H19C19.5304 9 20.0391 9.21071 20.4142 9.58579C20.7893 9.96086 21 10.4696 21 11V20.9C21 21.0445 20.9715 21.1875 20.9163 21.321C20.861 21.4544 20.78 21.5757 20.6778 21.6778C20.5757 21.78 20.4544 21.861 20.321 21.9163C20.1875 21.9715 20.0445 22 19.9 22H4.1C3.95555 22 3.81251 21.9715 3.67905 21.9163C3.54559 21.861 3.42433 21.78 3.32218 21.6778C3.22004 21.5757 3.13901 21.4544 3.08373 21.321C3.02845 21.1875 3 21.0445 3 20.9V4C3 3.46957 3.21071 2.96086 3.58579 2.58579C3.96086 2.21071 4.46957 2 5 2H15ZM15 4H5V20H7V17C7 16.2044 7.31607 15.4413 7.87868 14.8787C8.44129 14.3161 9.20435 14 10 14C10.7956 14 11.5587 14.3161 12.1213 14.8787C12.6839 15.4413 13 16.2044 13 17V20H15V4ZM19 11H17V20H19V11ZM10 16C9.75507 16 9.51866 16.09 9.33563 16.2527C9.15259 16.4155 9.03566 16.6397 9.007 16.883L9 17V20H11V17C11 16.7348 10.8946 16.4804 10.7071 16.2929C10.5196 16.1054 10.2652 16 10 16ZM10 6C10.2652 6 10.5196 6.10536 10.7071 6.29289C10.8946 6.48043 11 6.73478 11 7V8H12C12.2652 8 12.5196 8.10536 12.7071 8.29289C12.8946 8.48043 13 8.73478 13 9C13 9.26522 12.8946 9.51957 12.7071 9.70711C12.5196 9.89464 12.2652 10 12 10H11V11C11 11.2652 10.8946 11.5196 10.7071 11.7071C10.5196 11.8946 10.2652 12 10 12C9.73478 12 9.48043 11.8946 9.29289 11.7071C9.10536 11.5196 9 11.2652 9 11V10H8C7.73478 10 7.48043 9.89464 7.29289 9.70711C7.10536 9.51957 7 9.26522 7 9C7 8.73478 7.10536 8.48043 7.29289 8.29289C7.48043 8.10536 7.73478 8 8 8H9V7C9 6.73478 9.10536 6.48043 9.29289 6.29289C9.48043 6.10536 9.73478 6 10 6Z" fill="currentColor"/>
</svg>
