<svg width="24" height="24" viewBox="0 0 24 24" fill="none" xmlns="http://www.w3.org/2000/svg">
<path fill-rule="evenodd" clip-rule="evenodd" d="M5 5C5 4.46957 5.21071 3.96086 5.58579 3.58579C5.96086 3.21071 6.46957 3 7 3H17C17.5304 3 18.0391 3.21071 18.4142 3.58579C18.7893 3.96086 19 4.46957 19 5V6H20C20.2652 6 20.5196 6.10536 20.7071 6.29289C20.8946 6.48043 21 6.73478 21 7C21 7.26522 20.8946 7.51957 20.7071 7.70711C20.5196 7.89464 20.2652 8 20 8V19C20.2652 19 20.5196 19.1054 20.7071 19.2929C20.8946 19.4804 21 19.7348 21 20C21 20.2652 20.8946 20.5196 20.7071 20.7071C20.5196 20.8946 20.2652 21 20 21H4C3.73478 21 3.48043 20.8946 3.29289 20.7071C3.10536 20.5196 3 20.2652 3 20C3 19.7348 3.10536 19.4804 3.29289 19.2929C3.48043 19.1054 3.73478 19 4 19V8C3.73478 8 3.48043 7.89464 3.29289 7.70711C3.10536 7.51957 3 7.26522 3 7C3 6.73478 3.10536 6.48043 3.29289 6.29289C3.48043 6.10536 3.73478 6 4 6H5V5ZM17 5V6H7V5H17ZM18 8V19H14.5V16.5C14.5 15.837 14.2366 15.2011 13.7678 14.7322C13.2989 14.2634 12.663 14 12 14C11.337 14 10.7011 14.2634 10.2322 14.7322C9.76339 15.2011 9.5 15.837 9.5 16.5V19H6V8H18ZM12 16C12.1326 16 12.2598 16.0527 12.3536 16.1464C12.4473 16.2402 12.5 16.3674 12.5 16.5V19H11.5V16.5C11.5 16.3674 11.5527 16.2402 11.6464 16.1464C11.7402 16.0527 11.8674 16 12 16ZM8 13C8.26522 13 8.51957 13.1054 8.70711 13.2929C8.89464 13.4804 9 13.7348 9 14V15C9 15.2652 8.89464 15.5196 8.70711 15.7071C8.51957 15.8946 8.26522 16 8 16C7.73478 16 7.48043 15.8946 7.29289 15.7071C7.10536 15.5196 7 15.2652 7 15V14C7 13.7348 7.10536 13.4804 7.29289 13.2929C7.48043 13.1054 7.73478 13 8 13ZM16 13C16.2449 13 16.4813 13.09 16.6644 13.2527C16.8474 13.4155 16.9643 13.6397 16.993 13.883L17 14V15C16.9997 15.2549 16.9021 15.5 16.7272 15.6854C16.5522 15.8707 16.313 15.9822 16.0586 15.9972C15.8042 16.0121 15.5536 15.9293 15.3582 15.7657C15.1627 15.6021 15.0371 15.3701 15.007 15.117L15 15V14C15 13.7348 15.1054 13.4804 15.2929 13.2929C15.4804 13.1054 15.7348 13 16 13ZM8 9C8.24493 9.00003 8.48134 9.08996 8.66437 9.25272C8.84741 9.41547 8.96434 9.63975 8.993 9.883L9 10V11C8.99972 11.2549 8.90212 11.5 8.72715 11.6854C8.55218 11.8707 8.31305 11.9822 8.05861 11.9972C7.80416 12.0121 7.55362 11.9293 7.35817 11.7657C7.16271 11.6021 7.0371 11.3701 7.007 11.117L7 11V10C7 9.73478 7.10536 9.48043 7.29289 9.29289C7.48043 9.10536 7.73478 9 8 9ZM12 9C12.2449 9.00003 12.4813 9.08996 12.6644 9.25272C12.8474 9.41547 12.9643 9.63975 12.993 9.883L13 10V11C12.9997 11.2549 12.9021 11.5 12.7272 11.6854C12.5522 11.8707 12.313 11.9822 12.0586 11.9972C11.8042 12.0121 11.5536 11.9293 11.3582 11.7657C11.1627 11.6021 11.0371 11.3701 11.007 11.117L11 11V10C11 9.73478 11.1054 9.48043 11.2929 9.29289C11.4804 9.10536 11.7348 9 12 9ZM16 9C16.2652 9 16.5196 9.10536 16.7071 9.29289C16.8946 9.48043 17 9.73478 17 10V11C17 11.2652 16.8946 11.5196 16.7071 11.7071C16.5196 11.8946 16.2652 12 16 12C15.7348 12 15.4804 11.8946 15.2929 11.7071C15.1054 11.5196 15 11.2652 15 11V10C15 9.73478 15.1054 9.48043 15.2929 9.29289C15.4804 9.10536 15.7348 9 16 9Z" fill="currentColor"/>
</svg>
