<svg width="24" height="24" viewBox="0 0 24 24" fill="none" xmlns="http://www.w3.org/2000/svg">
<path d="M18 3C18.7652 2.99996 19.5015 3.29233 20.0583 3.81728C20.615 4.34224 20.9501 5.06011 20.995 5.824L21 6V18C21 18.7652 20.7077 19.5015 20.1827 20.0583C19.6578 20.615 18.9399 20.9501 18.176 20.995L18 21H6C5.23479 21 4.49849 20.7077 3.94174 20.1827C3.38499 19.6578 3.04989 18.9399 3.005 18.176L3 18V6C2.99996 5.23479 3.29233 4.49849 3.81728 3.94174C4.34224 3.38499 5.06011 3.04989 5.824 3.005L6 3H18ZM15.293 16.708C14.8893 16.9008 14.4474 17.0006 14 17H5V18C5 18.2652 5.10536 18.5196 5.29289 18.7071C5.48043 18.8946 5.73478 19 6 19H17.586L15.293 16.708ZM18 5H17V14C17 14.386 16.927 14.755 16.794 15.094L16.708 15.294L19 17.585V6C19 5.75507 18.91 5.51866 18.7473 5.33563C18.5845 5.15259 18.3603 5.03566 18.117 5.007L18 5ZM15 5H6C5.75507 5.00003 5.51866 5.08996 5.33563 5.25272C5.15259 5.41547 5.03566 5.63975 5.007 5.883L5 6V15H14C14.2449 15 14.4813 14.91 14.6644 14.7473C14.8474 14.5845 14.9643 14.3603 14.993 14.117L15 14V5ZM9 7C9.24493 7.00003 9.48134 7.08996 9.66437 7.25272C9.84741 7.41547 9.96434 7.63975 9.993 7.883L10 8V8.631L11.445 7.668C11.6573 7.52533 11.9161 7.4694 12.1683 7.51172C12.4206 7.55404 12.647 7.69139 12.8011 7.89553C12.9551 8.09967 13.0251 8.35508 12.9966 8.60925C12.9682 8.86341 12.8434 9.097 12.648 9.262L12.555 9.332L11.178 10.25L12.555 11.168C12.7675 11.3094 12.9179 11.5268 12.9753 11.7755C13.0327 12.0243 12.9929 12.2855 12.8639 12.5058C12.7349 12.7261 12.5265 12.8887 12.2815 12.9603C12.0365 13.0319 11.7733 13.0071 11.546 12.891L11.446 12.832L10 11.868V12C9.99972 12.2549 9.90212 12.5 9.72715 12.6854C9.55218 12.8707 9.31305 12.9822 9.05861 12.9972C8.80416 13.0121 8.55362 12.9293 8.35817 12.7657C8.16271 12.6021 8.0371 12.3701 8.007 12.117L8 12V8C8 7.73478 8.10536 7.48043 8.29289 7.29289C8.48043 7.10536 8.73478 7 9 7Z" fill="currentColor"/>
</svg>
