<svg width="24" height="24" viewBox="0 0 24 24" fill="none" xmlns="http://www.w3.org/2000/svg">
<path d="M18.2426 14.03C18.4999 14.0945 18.721 14.2585 18.8573 14.4859C18.9937 14.7134 19.034 14.9857 18.9696 15.243L18.2796 18H18.9996V17C18.9996 16.7348 19.105 16.4804 19.2925 16.2929C19.48 16.1054 19.7344 16 19.9996 16C20.2648 16 20.5192 16.1054 20.7067 16.2929C20.8943 16.4804 20.9996 16.7348 20.9996 17V18C21.2648 18 21.5192 18.1054 21.7067 18.2929C21.8943 18.4804 21.9996 18.7348 21.9996 19C21.9996 19.2652 21.8943 19.5196 21.7067 19.7071C21.5192 19.8946 21.2648 20 20.9996 20V21C20.9996 21.2652 20.8943 21.5196 20.7067 21.7071C20.5192 21.8946 20.2648 22 19.9996 22C19.7344 22 19.48 21.8946 19.2925 21.7071C19.105 21.5196 18.9996 21.2652 18.9996 21V20H16.9996C16.8477 20 16.6978 19.9653 16.5613 19.8987C16.4248 19.8321 16.3053 19.7352 16.2118 19.6155C16.1183 19.4958 16.0533 19.3564 16.0217 19.2078C15.9901 19.0592 15.9928 18.9054 16.0296 18.758L17.0296 14.758C17.0939 14.5008 17.2576 14.2796 17.4849 14.1431C17.7122 14.0066 17.9854 13.9659 18.2426 14.03ZM13.4996 14C14.1343 13.9999 14.7453 14.2412 15.2087 14.675C15.672 15.1088 15.953 15.7026 15.9946 16.336L15.9996 16.5V16.825C15.9996 17.425 15.8096 18.006 15.4586 18.488L15.3186 18.663L14.1746 20H14.9996C15.2545 20.0003 15.4996 20.0979 15.685 20.2728C15.8703 20.4478 15.9818 20.687 15.9968 20.9414C16.0117 21.1958 15.9289 21.4464 15.7653 21.6418C15.6018 21.8373 15.3697 21.9629 15.1166 21.993L14.9996 22H11.9996C11.8192 22.0001 11.6422 21.9514 11.4873 21.8591C11.3323 21.7668 11.2052 21.6343 11.1194 21.4756C11.0337 21.317 10.9924 21.1381 11 20.9579C11.0076 20.7777 11.0638 20.6029 11.1626 20.452L11.2406 20.349L13.8006 17.362C13.9026 17.2429 13.9685 17.0972 13.9906 16.942L13.9996 16.825V16.5C13.9996 16.3674 13.9469 16.2402 13.8532 16.1464C13.7594 16.0527 13.6322 16 13.4996 16C13.367 16 13.2398 16.0527 13.1461 16.1464C13.0523 16.2402 12.9996 16.3674 12.9996 16.5C12.9996 16.7652 12.8942 17.0196 12.7067 17.2071C12.5192 17.3946 12.2648 17.5 11.9996 17.5C11.7344 17.5 11.48 17.3946 11.2925 17.2071C11.105 17.0196 10.9996 16.7652 10.9996 16.5C10.9996 15.837 11.263 15.2011 11.7318 14.7322C12.2007 14.2634 12.8366 14 13.4996 14ZM11.9996 3C16.1946 3 19.7166 5.87 20.7156 9.75C20.7819 10.0069 20.7435 10.2795 20.6087 10.5081C20.474 10.7366 20.254 10.9022 19.9971 10.9685C19.7402 11.0348 19.4676 10.9964 19.239 10.8616C19.0105 10.7269 18.8449 10.5069 18.7786 10.25C18.4897 9.13314 17.9292 8.10498 17.1471 7.257C16.3649 6.40902 15.3853 5.76749 14.2954 5.38947C13.2054 5.01146 12.039 4.90868 10.8997 5.09029C9.7605 5.27189 8.6838 5.73224 7.76541 6.43039C6.84702 7.12854 6.11541 8.04284 5.63567 9.09198C5.15592 10.1411 4.9429 11.2926 5.01556 12.4439C5.08822 13.5952 5.44431 14.7108 6.05215 15.6913C6.65999 16.6718 7.50073 17.4868 8.49961 18.064C8.71727 18.2024 8.87306 18.4195 8.93442 18.67C8.99578 18.9205 8.95798 19.1851 8.8289 19.4084C8.69982 19.6317 8.48946 19.7965 8.24175 19.8683C7.99404 19.9402 7.72815 19.9136 7.49961 19.794C5.78394 18.8033 4.44309 17.2743 3.68499 15.4439C2.9269 13.6136 2.79392 11.5842 3.30668 9.6706C3.81944 7.75697 4.94929 6.066 6.52101 4.85993C8.09272 3.65386 10.0185 3.00009 11.9996 3ZM11.9996 7C12.2445 7.00003 12.4809 7.08996 12.664 7.25272C12.847 7.41547 12.964 7.63975 12.9926 7.883L12.9996 8V12C12.9996 12.2449 12.9097 12.4813 12.7469 12.6644C12.5841 12.8474 12.3599 12.9643 12.1166 12.993L11.9996 13H9.99961C9.74473 12.9997 9.49957 12.9021 9.31424 12.7272C9.1289 12.5522 9.01737 12.313 9.00243 12.0586C8.9875 11.8042 9.07028 11.5536 9.23387 11.3582C9.39746 11.1627 9.62951 11.0371 9.88261 11.007L9.99961 11H10.9996V8C10.9996 7.73478 11.105 7.48043 11.2925 7.29289C11.48 7.10536 11.7344 7 11.9996 7Z" fill="currentColor"/>
</svg>
