<svg width="24" height="24" viewBox="0 0 24 24" fill="none" xmlns="http://www.w3.org/2000/svg">
<path fill-rule="evenodd" clip-rule="evenodd" d="M13.351 3.064C13.2272 3.01381 13.0947 2.98892 12.9611 2.99079C12.8276 2.99267 12.6958 3.02127 12.5735 3.07492C12.4512 3.12857 12.3408 3.20617 12.249 3.30315C12.1572 3.40013 12.0857 3.51452 12.0388 3.63957C11.9919 3.76462 11.9706 3.89779 11.976 4.03124C11.9814 4.16468 12.0135 4.29569 12.0704 4.41653C12.1272 4.53737 12.2077 4.64559 12.3071 4.73481C12.4065 4.82403 12.5227 4.89244 12.649 4.936L13 5.068V8.236L2.73698 11.036C2.50396 11.1003 2.3021 11.2468 2.16876 11.4484C2.03542 11.65 1.97963 11.8931 2.01172 12.1327C2.0438 12.3723 2.16159 12.5922 2.34327 12.7516C2.52496 12.9111 2.75826 12.9993 2.99998 13V19C2.99998 19.5304 3.2107 20.0391 3.58577 20.4142C3.96084 20.7893 4.46955 21 4.99998 21H19C19.5304 21 20.0391 20.7893 20.4142 20.4142C20.7893 20.0391 21 19.5304 21 19V8C21.2341 7.99977 21.4607 7.91741 21.6403 7.76727C21.8199 7.61714 21.9412 7.40874 21.9829 7.1784C22.0247 6.94805 21.9843 6.71035 21.8689 6.50671C21.7534 6.30307 21.5701 6.14641 21.351 6.064L13.351 3.064ZM19 7.318L15 5.818V19H19V7.318ZM9.99998 16V19H13V10.31L4.99998 12.49V19H7.99998V16C7.99998 15.7348 8.10534 15.4804 8.29288 15.2929C8.48041 15.1054 8.73477 15 8.99998 15C9.2652 15 9.51955 15.1054 9.70709 15.2929C9.89463 15.4804 9.99998 15.7348 9.99998 16ZM15.5 11C15.5 10.7348 15.6053 10.4804 15.7929 10.2929C15.9804 10.1054 16.2348 10 16.5 10H17.5C17.7652 10 18.0196 10.1054 18.2071 10.2929C18.3946 10.4804 18.5 10.7348 18.5 11C18.5 11.2652 18.3946 11.5196 18.2071 11.7071C18.0196 11.8946 17.7652 12 17.5 12H16.5C16.2348 12 15.9804 11.8946 15.7929 11.7071C15.6053 11.5196 15.5 11.2652 15.5 11ZM16.5 14C16.2348 14 15.9804 14.1054 15.7929 14.2929C15.6053 14.4804 15.5 14.7348 15.5 15C15.5 15.2652 15.6053 15.5196 15.7929 15.7071C15.9804 15.8946 16.2348 16 16.5 16H17.5C17.7652 16 18.0196 15.8946 18.2071 15.7071C18.3946 15.5196 18.5 15.2652 18.5 15C18.5 14.7348 18.3946 14.4804 18.2071 14.2929C18.0196 14.1054 17.7652 14 17.5 14H16.5Z" fill="currentColor"/>
</svg>
