<svg width="24" height="24" viewBox="0 0 24 24" fill="none" xmlns="http://www.w3.org/2000/svg">
<path fill-rule="evenodd" clip-rule="evenodd" d="M11.9999 2C13.0001 1.99979 13.9774 2.29956 14.8055 2.86057C15.6335 3.42157 16.2743 4.21803 16.6449 5.147C17.7135 5.42829 18.6413 6.09274 19.2517 7.01383C19.862 7.93491 20.1124 9.0483 19.9549 10.142C19.9201 10.3284 19.8549 10.5078 19.7619 10.673L19.6949 10.793L13.7279 21.023C12.9829 22.299 11.1789 22.344 10.3589 21.16L10.2719 21.023L4.30495 10.793C4.19395 10.603 4.07695 10.361 4.04495 10.142C3.88754 9.0483 4.13786 7.93491 4.74822 7.01383C5.35859 6.09274 6.28639 5.42829 7.35495 5.147C7.72562 4.21803 8.36639 3.42157 9.19443 2.86057C10.0225 2.29956 10.9998 1.99979 11.9999 2ZM16.7579 11.858C15.4899 12.198 13.8469 12.5 11.9999 12.5C10.4958 12.4947 8.99803 12.3053 7.53995 11.936L7.24195 11.858L11.9999 20.015L16.7579 11.858ZM15.4999 7C14.8369 7 14.201 7.26339 13.7322 7.73223C13.2633 8.20107 12.9999 8.83696 12.9999 9.5V10.467C14.6799 10.357 16.1159 9.993 17.1099 9.667L17.5079 9.531L17.8479 9.405L17.9949 9.347C17.956 8.71169 17.6762 8.11516 17.2126 7.67905C16.749 7.24294 16.1364 7.00008 15.4999 7ZM8.49995 7C7.86345 7.00008 7.25094 7.24294 6.78733 7.67905C6.32371 8.11516 6.0439 8.71169 6.00495 9.347L6.31495 9.467L6.68495 9.599C7.67995 9.939 9.20095 10.349 10.9999 10.467V9.5C10.9999 8.83696 10.7366 8.20107 10.2677 7.73223C9.79887 7.26339 9.16299 7 8.49995 7ZM11.9999 4C11.0439 4 10.1899 4.448 9.64095 5.146C10.5829 5.392 11.4049 5.936 11.9999 6.671C12.6035 5.92408 13.4301 5.38973 14.3589 5.146C14.0784 4.7886 13.7202 4.49971 13.3115 4.30116C12.9028 4.10262 12.4543 3.99963 11.9999 4Z" fill="currentColor"/>
</svg>
