<svg width="24" height="24" viewBox="0 0 24 24" fill="none" xmlns="http://www.w3.org/2000/svg">
<path d="M19 3C19.5304 3 20.0391 3.21071 20.4142 3.58579C20.7893 3.96086 21 4.46957 21 5V15C21 15.5304 20.7893 16.0391 20.4142 16.4142C20.0391 16.7893 19.5304 17 19 17H15.032C15.07 17.545 15.137 17.962 15.212 18.28L15.277 18.527L15.343 18.729C15.353 18.759 15.365 18.787 15.375 18.814L15.437 18.955L15.492 19.06L15.537 19.132L15.579 19.188C16.025 19.532 16.003 20.048 15.919 20.304C15.832 20.566 15.537 21 14.958 21H9.042C8.463 21 8.168 20.566 8.082 20.304C7.997 20.048 7.975 19.532 8.421 19.188L8.464 19.132L8.509 19.06L8.563 18.955L8.625 18.815C8.753 18.494 8.903 17.934 8.968 17H5C4.46957 17 3.96086 16.7893 3.58579 16.4142C3.21071 16.0391 3 15.5304 3 15V5C3 4.46957 3.21071 3.96086 3.58579 3.58579C3.96086 3.21071 4.46957 3 5 3H19ZM13.029 17H10.97C10.9396 17.6056 10.8552 18.2073 10.718 18.798L10.666 19H13.332C13.1849 18.4437 13.0902 17.8749 13.049 17.301L13.029 17ZM19 14H5V15H19V14ZM19 5H5V12H19V5Z" fill="currentColor"/>
</svg>
