<svg width="24" height="24" viewBox="0 0 24 24" fill="none" xmlns="http://www.w3.org/2000/svg">
<path fill-rule="evenodd" clip-rule="evenodd" d="M17.3031 3.161L20.8391 6.697C21.0213 6.8856 21.1221 7.13821 21.1198 7.4004C21.1175 7.6626 21.0123 7.91341 20.8269 8.09882C20.6415 8.28423 20.3907 8.3894 20.1285 8.39167C19.8663 8.39395 19.6137 8.29316 19.4251 8.111L18.0101 9.525L19.7771 11.293C19.8726 11.3852 19.9488 11.4956 20.0012 11.6176C20.0536 11.7396 20.0812 11.8708 20.0824 12.0036C20.0835 12.1364 20.0582 12.2681 20.0079 12.391C19.9577 12.5139 19.8834 12.6255 19.7895 12.7194C19.6956 12.8133 19.584 12.8875 19.4611 12.9378C19.3382 12.9881 19.2065 13.0134 19.0737 13.0123C18.9409 13.0111 18.8097 12.9835 18.6877 12.9311C18.5657 12.8787 18.4554 12.8025 18.3631 12.707L17.6571 12L12.0001 17.657C11.4375 18.2194 10.6746 18.5354 9.87912 18.5354C9.08363 18.5354 8.3207 18.2194 7.75812 17.657L4.63612 20.778C4.44752 20.9602 4.19491 21.061 3.93272 21.0587C3.67052 21.0564 3.41971 20.9512 3.2343 20.7658C3.04889 20.5804 2.94372 20.3296 2.94144 20.0674C2.93917 19.8052 3.03996 19.5526 3.22212 19.364L6.34312 16.243C6.06449 15.9644 5.84346 15.6337 5.69267 15.2697C5.54187 14.9057 5.46426 14.5155 5.46426 14.1215C5.46426 13.7275 5.54187 13.3373 5.69267 12.9733C5.84346 12.6093 6.06449 12.2786 6.34312 12L12.0001 6.343L11.2931 5.636C11.1976 5.54375 11.1214 5.43341 11.069 5.31141C11.0166 5.1894 10.989 5.05818 10.9879 4.9254C10.9867 4.79262 11.012 4.66094 11.0623 4.53805C11.1126 4.41515 11.1868 4.3035 11.2807 4.20961C11.3746 4.11571 11.4863 4.04146 11.6092 3.99118C11.7321 3.9409 11.8637 3.9156 11.9965 3.91675C12.1293 3.9179 12.2605 3.94549 12.3825 3.9979C12.5045 4.05031 12.6149 4.12649 12.7071 4.222L14.4751 5.989L15.8891 4.575C15.7936 4.48275 15.7174 4.37241 15.665 4.25041C15.6126 4.1284 15.585 3.99718 15.5839 3.8644C15.5827 3.73162 15.608 3.59994 15.6583 3.47705C15.7086 3.35415 15.7828 3.2425 15.8767 3.14861C15.9706 3.05471 16.0823 2.98046 16.2052 2.93018C16.3281 2.8799 16.4597 2.8546 16.5925 2.85575C16.7253 2.8569 16.8565 2.88449 16.9785 2.9369C17.1005 2.98931 17.2109 3.06549 17.3031 3.161ZM13.4141 7.757L12.0001 9.172L12.7071 9.878C12.8 9.97085 12.8737 10.0811 12.924 10.2024C12.9744 10.3237 13.0003 10.4538 13.0003 10.5851C13.0004 10.7165 12.9745 10.8466 12.9243 10.9679C12.8741 11.0893 12.8005 11.1996 12.7076 11.2925C12.6148 11.3854 12.5045 11.4591 12.3832 11.5094C12.2619 11.5597 12.1318 11.5857 12.0005 11.5857C11.8691 11.5858 11.7391 11.5599 11.6177 11.5097C11.4963 11.4595 11.386 11.3858 11.2931 11.293L10.5861 10.586L9.87912 11.293L10.5861 12C10.6816 12.0922 10.7578 12.2026 10.8102 12.3246C10.8626 12.4466 10.8902 12.5778 10.8914 12.7106C10.8925 12.8434 10.8672 12.9751 10.8169 13.098C10.7667 13.2209 10.6924 13.3325 10.5985 13.4264C10.5046 13.5203 10.393 13.5945 10.2701 13.6448C10.1472 13.6951 10.0155 13.7204 9.88272 13.7193C9.74994 13.7181 9.61872 13.6905 9.49671 13.6381C9.37471 13.5857 9.26437 13.5095 9.17212 13.414L8.46512 12.707L7.75812 13.414C7.66514 13.5069 7.59138 13.6172 7.54106 13.7386C7.49073 13.86 7.46483 13.9901 7.46483 14.1215C7.46483 14.2529 7.49073 14.383 7.54106 14.5044C7.59138 14.6258 7.66514 14.7361 7.75812 14.829L9.17212 16.243C9.35965 16.4305 9.61395 16.5358 9.87912 16.5358C10.1443 16.5358 10.3986 16.4305 10.5861 16.243L16.2431 10.586L13.4141 7.757ZM17.3041 5.989L15.8891 7.404L16.5961 8.111L18.0111 6.697L17.3041 5.989Z" fill="currentColor"/>
</svg>
