<svg width="24" height="24" viewBox="0 0 24 24" fill="none" xmlns="http://www.w3.org/2000/svg">
<path d="M10.611 10.611C10.7535 10.4685 10.9358 10.3724 11.1338 10.3353C11.3319 10.2982 11.5366 10.3218 11.721 10.403L20.56 14.292C20.7492 14.3753 20.9079 14.5152 21.0143 14.6923C21.1207 14.8695 21.1696 15.0753 21.1542 15.2815C21.1389 15.4876 21.0601 15.6839 20.9286 15.8434C20.7971 16.0028 20.6194 16.1176 20.42 16.172L17.082 17.082L16.172 20.42C16.1176 20.6194 16.0028 20.7971 15.8434 20.9286C15.6839 21.0601 15.4876 21.1389 15.2815 21.1542C15.0753 21.1696 14.8695 21.1207 14.6923 21.0143C14.5152 20.9079 14.3753 20.7492 14.292 20.56L10.402 11.72C10.3211 11.5356 10.2978 11.3311 10.3351 11.1332C10.3724 10.9353 10.4686 10.7533 10.611 10.611ZM17 3C17.7956 3 18.5587 3.31607 19.1213 3.87868C19.6839 4.44129 20 5.20435 20 6V9C20 9.26522 19.8946 9.51957 19.7071 9.70711C19.5196 9.89464 19.2652 10 19 10C18.7348 10 18.4804 9.89464 18.2929 9.70711C18.1054 9.51957 18 9.26522 18 9V6C18 5.73478 17.8946 5.48043 17.7071 5.29289C17.5196 5.10536 17.2652 5 17 5H6C5.73478 5 5.48043 5.10536 5.29289 5.29289C5.10536 5.48043 5 5.73478 5 6V17C5 17.2652 5.10536 17.5196 5.29289 17.7071C5.48043 17.8946 5.73478 18 6 18H9C9.26522 18 9.51957 18.1054 9.70711 18.2929C9.89464 18.4804 10 18.7348 10 19C10 19.2652 9.89464 19.5196 9.70711 19.7071C9.51957 19.8946 9.26522 20 9 20H6C5.20435 20 4.44129 19.6839 3.87868 19.1213C3.31607 18.5587 3 17.7956 3 17V6C3 5.20435 3.31607 4.44129 3.87868 3.87868C4.44129 3.31607 5.20435 3 6 3H17ZM13.27 13.269L14.985 17.169L15.303 16.005C15.3487 15.8371 15.4374 15.6841 15.5603 15.5609C15.6832 15.4378 15.8362 15.3489 16.004 15.303L17.169 14.985L13.269 13.269H13.27Z" fill="currentColor"/>
</svg>
