<svg width="24" height="24" viewBox="0 0 24 24" fill="none" xmlns="http://www.w3.org/2000/svg">
<path fill-rule="evenodd" clip-rule="evenodd" d="M4 4C4 3.46957 4.21071 2.96086 4.58579 2.58579C4.96086 2.21071 5.46957 2 6 2H18C18.5304 2 19.0391 2.21071 19.4142 2.58579C19.7893 2.96086 20 3.46957 20 4V20C20 20.5304 19.7893 21.0391 19.4142 21.4142C19.0391 21.7893 18.5304 22 18 22H6C5.46957 22 4.96086 21.7893 4.58579 21.4142C4.21071 21.0391 4 20.5304 4 20V4ZM18 4H6V20H18V4ZM11.548 6.763C11.7355 6.95053 11.8408 7.20484 11.8408 7.47C11.8408 7.73516 11.7355 7.98947 11.548 8.177L9.603 10.12C9.36861 10.3542 9.05083 10.4857 8.7195 10.4857C8.38817 10.4857 8.07039 10.3542 7.836 10.12L6.952 9.236C6.85649 9.14375 6.78031 9.03341 6.7279 8.9114C6.67549 8.7894 6.6479 8.65818 6.64675 8.5254C6.6456 8.39262 6.6709 8.26094 6.72118 8.13805C6.77146 8.01515 6.84571 7.9035 6.93961 7.80961C7.0335 7.71571 7.14515 7.64146 7.26805 7.59118C7.39094 7.5409 7.52262 7.5156 7.6554 7.51675C7.78818 7.5179 7.9194 7.54549 8.0414 7.5979C8.16341 7.65031 8.27375 7.72649 8.366 7.822L8.72 8.176L10.134 6.762C10.3215 6.57453 10.5758 6.46921 10.841 6.46921C11.1062 6.46921 11.3605 6.57553 11.548 6.763ZM13 9C13 8.73478 13.1054 8.48043 13.2929 8.29289C13.4804 8.10536 13.7348 8 14 8H16C16.2652 8 16.5196 8.10536 16.7071 8.29289C16.8946 8.48043 17 8.73478 17 9C17 9.26522 16.8946 9.51957 16.7071 9.70711C16.5196 9.89464 16.2652 10 16 10H14C13.7348 10 13.4804 9.89464 13.2929 9.70711C13.1054 9.51957 13 9.26522 13 9ZM7 13.5C7 13.1022 7.15804 12.7206 7.43934 12.4393C7.72064 12.158 8.10218 12 8.5 12H10.5C10.8978 12 11.2794 12.158 11.5607 12.4393C11.842 12.7206 12 13.1022 12 13.5V15.5C12 15.8978 11.842 16.2794 11.5607 16.5607C11.2794 16.842 10.8978 17 10.5 17H8.5C8.10218 17 7.72064 16.842 7.43934 16.5607C7.15804 16.2794 7 15.8978 7 15.5V13.5ZM9 14V15H10V14H9ZM13 14.5C13 14.2348 13.1054 13.9804 13.2929 13.7929C13.4804 13.6054 13.7348 13.5 14 13.5H16C16.2652 13.5 16.5196 13.6054 16.7071 13.7929C16.8946 13.9804 17 14.2348 17 14.5C17 14.7652 16.8946 15.0196 16.7071 15.2071C16.5196 15.3946 16.2652 15.5 16 15.5H14C13.7348 15.5 13.4804 15.3946 13.2929 15.2071C13.1054 15.0196 13 14.7652 13 14.5Z" fill="currentColor"/>
</svg>
