<svg width="24" height="24" viewBox="0 0 24 24" fill="none" xmlns="http://www.w3.org/2000/svg">
<path fill-rule="evenodd" clip-rule="evenodd" d="M12.868 5C13.386 5.00013 13.8952 5.1344 14.3459 5.38973C14.7966 5.64506 15.1736 6.01275 15.44 6.457L17.607 10.068L20.248 10.398C20.7318 10.4585 21.1768 10.6936 21.4995 11.0591C21.8221 11.4246 22.0001 11.8954 22 12.383V15C22.0002 15.6436 21.7934 16.2702 21.4102 16.7874C21.0271 17.3045 20.4878 17.6848 19.872 17.872C19.6886 18.4772 19.3186 19.009 18.8149 19.3915C18.3113 19.774 17.6996 19.9876 17.0674 20.0018C16.4351 20.016 15.8145 19.83 15.2942 19.4706C14.7739 19.1111 14.3804 18.5964 14.17 18H9.829C9.61812 18.5957 9.22461 19.1095 8.70454 19.4684C8.18448 19.8273 7.5644 20.0129 6.93268 19.9987C6.30096 19.9845 5.68984 19.7713 5.18641 19.3894C4.68298 19.0076 4.31293 18.4765 4.129 17.872C3.51303 17.6849 2.97353 17.3048 2.59016 16.7876C2.2068 16.2705 1.9999 15.6437 2 15V11.193C1.99996 10.9385 2.04849 10.6863 2.143 10.45L3.569 6.886C3.79162 6.32934 4.17592 5.85216 4.67233 5.51599C5.16874 5.17982 5.75448 5.0001 6.354 5H12.868ZM17 16C16.7348 16 16.4804 16.1054 16.2929 16.2929C16.1054 16.4804 16 16.7348 16 17C16 17.2652 16.1054 17.5196 16.2929 17.7071C16.4804 17.8946 16.7348 18 17 18C17.2652 18 17.5196 17.8946 17.7071 17.7071C17.8946 17.5196 18 17.2652 18 17C18 16.7348 17.8946 16.4804 17.7071 16.2929C17.5196 16.1054 17.2652 16 17 16ZM7 16C6.73478 16 6.48043 16.1054 6.29289 16.2929C6.10536 16.4804 6 16.7348 6 17C6 17.2652 6.10536 17.5196 6.29289 17.7071C6.48043 17.8946 6.73478 18 7 18C7.26522 18 7.51957 17.8946 7.70711 17.7071C7.89464 17.5196 8 17.2652 8 17C8 16.7348 7.89464 16.4804 7.70711 16.2929C7.51957 16.1054 7.26522 16 7 16ZM17 11.974V12H4V15C4 15.276 4.112 15.526 4.292 15.707C4.5407 15.1854 4.93477 14.7466 5.42684 14.4436C5.91891 14.1405 6.48803 13.9861 7.06579 13.9988C7.64355 14.0114 8.20535 14.1907 8.68366 14.515C9.16197 14.8394 9.53642 15.2949 9.762 15.827L9.83 16H14.172C14.3699 15.4405 14.7293 14.9523 15.2046 14.597C15.68 14.2417 16.25 14.0353 16.8426 14.004C17.4353 13.9726 18.0239 14.1177 18.5341 14.4208C19.0443 14.7239 19.4531 15.1715 19.709 15.707C19.859 15.556 19.962 15.357 19.992 15.136L20 15V12.383L17.359 12.053C17.2775 12.0426 17.1966 12.0273 17.117 12.007L17 11.974ZM12.868 7H11V10H15.234L13.725 7.486C13.6363 7.3379 13.5107 7.2153 13.3605 7.13014C13.2103 7.04497 13.0406 7.00014 12.868 7ZM9 7H6.354C6.15418 7.00013 5.95898 7.06011 5.79357 7.17223C5.62816 7.28434 5.50013 7.44344 5.426 7.629L4.477 10H9V7Z" fill="currentColor"/>
</svg>
