<svg width="24" height="24" viewBox="0 0 24 24" fill="none" xmlns="http://www.w3.org/2000/svg">
<path d="M12 3C17.344 3 22 6.643 22 11.5C22 16.357 17.344 20 12 20C11.475 20 10.958 19.966 10.454 19.9L7.554 21.832C7.38945 21.9416 7.1961 22 6.99839 21.9997C6.80068 21.9995 6.60749 21.9406 6.44321 21.8306C6.27894 21.7206 6.15097 21.5643 6.07546 21.3816C5.99995 21.1989 5.98031 20.9979 6.019 20.804L6.464 18.583C3.828 17.09 2 14.517 2 11.5C2 6.643 6.656 3 12 3ZM12 5C7.403 5 4 8.073 4 11.5C4 13.835 5.544 15.975 8.017 17.135C8.21942 17.2299 8.38418 17.39 8.48496 17.5896C8.58575 17.7891 8.61674 18.0167 8.573 18.236L8.454 18.829L9.665 18.021C9.87668 17.88 10.1341 17.8249 10.385 17.867C10.905 17.954 11.445 18 12 18C16.597 18 20 14.927 20 11.5C20 8.073 16.597 5 12 5ZM10 7C10.2652 7 10.5196 7.10536 10.7071 7.29289C10.8946 7.48043 11 7.73478 11 8V12.485L11.009 12.368C11.0327 12.1876 11.1053 12.0171 11.219 11.875L13.219 9.375C13.3848 9.16787 13.626 9.03506 13.8897 9.00581C14.1534 8.97655 14.4179 9.05324 14.625 9.219C14.8321 9.38476 14.9649 9.62602 14.9942 9.88969C15.0234 10.1534 14.9468 10.4179 14.781 10.625L13.281 12.5L14.781 14.375C14.8631 14.4776 14.9241 14.5953 14.9607 14.7215C14.9973 14.8476 15.0087 14.9797 14.9942 15.1103C14.9797 15.2409 14.9396 15.3673 14.8763 15.4824C14.813 15.5975 14.7276 15.6989 14.625 15.781C14.5224 15.8631 14.4047 15.9241 14.2785 15.9607C14.1524 15.9973 14.0203 16.0087 13.8897 15.9942C13.7591 15.9797 13.6327 15.9396 13.5176 15.8763C13.4025 15.813 13.3011 15.7276 13.219 15.625L11.219 13.125C11.0802 12.9517 11.0031 12.737 11 12.515V15C11 15.2652 10.8946 15.5196 10.7071 15.7071C10.5196 15.8946 10.2652 16 10 16C9.73478 16 9.48043 15.8946 9.29289 15.7071C9.10536 15.5196 9 15.2652 9 15V8C9 7.73478 9.10536 7.48043 9.29289 7.29289C9.48043 7.10536 9.73478 7 10 7Z" fill="currentColor"/>
</svg>
