<svg width="24" height="24" viewBox="0 0 24 24" fill="none" xmlns="http://www.w3.org/2000/svg">
<path d="M12.0001 2C13.2212 1.99891 14.4006 2.44472 15.3156 3.25335C16.2306 4.06198 16.8181 5.17751 16.9672 6.3895C17.1163 7.60149 16.8167 8.82615 16.125 9.83244C15.4332 10.8387 14.3971 11.5571 13.2121 11.852L13.0001 11.9V15H15.0001C15.255 15.0003 15.5001 15.0979 15.6855 15.2729C15.8708 15.4478 15.9824 15.687 15.9973 15.9414C16.0122 16.1958 15.9294 16.4464 15.7659 16.6418C15.6023 16.8373 15.3702 16.9629 15.1171 16.993L15.0001 17H13.0001V18H15.0001C15.255 18.0003 15.5001 18.0979 15.6855 18.2729C15.8708 18.4478 15.9824 18.687 15.9973 18.9414C16.0122 19.1958 15.9294 19.4464 15.7659 19.6418C15.6023 19.8373 15.3702 19.9629 15.1171 19.993L15.0001 20H13.0001V21C12.9998 21.2549 12.9022 21.5 12.7273 21.6854C12.5523 21.8707 12.3132 21.9822 12.0587 21.9972C11.8043 22.0121 11.5537 21.9293 11.3583 21.7657C11.1628 21.6021 11.0372 21.3701 11.0071 21.117L11.0001 21V11.9C9.78877 11.6491 8.71337 10.9582 7.98163 9.96074C7.24988 8.9633 6.91371 7.73009 7.03803 6.49929C7.16235 5.26848 7.73836 4.12741 8.65479 3.29645C9.57122 2.4655 10.7631 2.00361 12.0001 2ZM12.0001 4C11.6062 4 11.216 4.0776 10.8521 4.22836C10.4881 4.37913 10.1574 4.60011 9.8788 4.87868C9.60022 5.15726 9.37924 5.48797 9.22848 5.85195C9.07771 6.21593 9.00012 6.60604 9.00012 7C9.00012 7.39397 9.07771 7.78408 9.22848 8.14805C9.37924 8.51203 9.60022 8.84275 9.8788 9.12132C10.1574 9.3999 10.4881 9.62088 10.8521 9.77164C11.216 9.9224 11.6062 10 12.0001 10C12.7958 10 13.5588 9.68393 14.1214 9.12132C14.684 8.55871 15.0001 7.79565 15.0001 7C15.0001 6.20435 14.684 5.44129 14.1214 4.87868C13.5588 4.31607 12.7958 4 12.0001 4Z" fill="currentColor"/>
</svg>
