<svg width="24" height="24" viewBox="0 0 24 24" fill="none" xmlns="http://www.w3.org/2000/svg">
<path fill-rule="evenodd" clip-rule="evenodd" d="M4 12C4 9.87827 4.84285 7.84344 6.34315 6.34315C7.84344 4.84285 9.87827 4 12 4C14.1217 4 16.1566 4.84285 17.6569 6.34315C19.1571 7.84344 20 9.87827 20 12C20 14.1217 19.1571 16.1566 17.6569 17.6569C16.1566 19.1571 14.1217 20 12 20C9.87827 20 7.84344 19.1571 6.34315 17.6569C4.84285 16.1566 4 14.1217 4 12ZM12 2C6.477 2 2 6.477 2 12C2 17.523 6.477 22 12 22C17.523 22 22 17.523 22 12C22 6.477 17.523 2 12 2ZM10.5 10.5C10.5001 10.242 10.5667 9.98836 10.6935 9.76363C10.8202 9.5389 11.0028 9.35066 11.2236 9.21711C11.4443 9.08356 11.6958 9.00921 11.9537 9.00125C12.2116 8.99328 12.4672 9.05198 12.6958 9.17165C12.9243 9.29133 13.1182 9.46794 13.2586 9.68443C13.3989 9.90091 13.4811 10.1499 13.4971 10.4075C13.5131 10.665 13.4624 10.9223 13.35 11.1545C13.2375 11.3867 13.067 11.5859 12.855 11.733C12.6995 11.841 12.5779 11.9909 12.5043 12.1652C12.4307 12.3396 12.408 12.5313 12.439 12.718L12.82 15H11.18L11.56 12.718C11.5911 12.5314 11.5686 12.3398 11.4951 12.1654C11.4217 11.991 11.3003 11.8411 11.145 11.733C10.9457 11.595 10.7829 11.4108 10.6705 11.196C10.5582 10.9812 10.4997 10.7424 10.5 10.5ZM12 7C11.3113 6.99988 10.6379 7.20295 10.064 7.58378C9.49018 7.96462 9.04145 8.50628 8.77402 9.14095C8.5066 9.77562 8.43236 10.4751 8.56061 11.1517C8.68886 11.8284 9.01389 12.4522 9.495 12.945L9.014 15.835C8.99003 15.9783 8.99756 16.125 9.03607 16.2651C9.07458 16.4052 9.14314 16.5352 9.23698 16.646C9.33082 16.7569 9.44769 16.846 9.57946 16.9071C9.71124 16.9683 9.85474 17 10 17H14C14.1452 16.9999 14.2886 16.9683 14.4203 16.9072C14.5519 16.8461 14.6688 16.7571 14.7626 16.6464C14.8564 16.5356 14.925 16.4057 14.9636 16.2658C15.0022 16.1259 15.0098 15.9792 14.986 15.836L14.505 12.945C14.9861 12.4522 15.3111 11.8284 15.4394 11.1517C15.5676 10.4751 15.4934 9.77562 15.226 9.14095C14.9585 8.50628 14.5098 7.96462 13.936 7.58378C13.3621 7.20295 12.6887 6.99988 12 7Z" fill="currentColor"/>
</svg>
