<svg width="24" height="24" viewBox="0 0 24 24" fill="none" xmlns="http://www.w3.org/2000/svg">
<path fill-rule="evenodd" clip-rule="evenodd" d="M8 9V21C7.73478 21 7.48043 21.1054 7.29289 21.2929C7.10536 21.4804 7 21.7348 7 22C7 22.2652 7.10536 22.5196 7.29289 22.7071C7.48043 22.8946 7.73478 23 8 23H16C16.2652 23 16.5196 22.8946 16.7071 22.7071C16.8946 22.5196 17 22.2652 17 22C17 21.7348 16.8946 21.4804 16.7071 21.2929C16.5196 21.1054 16.2652 21 16 21V9C16 6.795 15.313 4.88 14.564 3.518C14.2462 2.9285 13.8653 2.37525 13.428 1.868C13.062 1.455 12.588 1 12 1C11.408 1 10.939 1.454 10.572 1.868C10.1347 2.37525 9.75382 2.9285 9.436 3.518C8.687 4.88 8 6.795 8 9ZM10.019 8.433C10.0065 8.62174 10.0002 8.81084 10 9V13.586L12.586 11L10.019 8.433ZM10.49 6.076L14 9.586V9C14 7.205 13.437 5.62 12.811 4.482C12.5803 4.05412 12.3087 3.64957 12 3.274C11.762 3.555 11.473 3.964 11.189 4.482C10.934 4.945 10.69 5.482 10.49 6.076ZM14 12.414L11.414 15L14 17.586V12.414ZM14 20.366C13.9243 20.3223 13.8548 20.2688 13.793 20.207L10 16.414V21H14V20.366Z" fill="currentColor"/>
</svg>
