<svg width="24" height="24" viewBox="0 0 24 24" fill="none" xmlns="http://www.w3.org/2000/svg">
<path fill-rule="evenodd" clip-rule="evenodd" d="M9.00046 2C9.24346 2 9.46546 2.086 9.63846 2.23L9.70146 2.287L9.86746 2.462L10.0255 2.618L10.1715 2.753L10.4475 2.993C10.4825 3.023 10.5175 3.053 10.5555 3.083L10.7955 3.273L10.9255 3.373L11.2115 3.58C11.3115 3.65 11.4175 3.722 11.5285 3.795L11.8765 4.016L12.2555 4.239C13.6355 5.021 15.5825 5.795 18.0845 6.004C18.2637 6.01939 18.4355 6.0828 18.5818 6.18756C18.728 6.29233 18.8433 6.43457 18.9156 6.59934C18.9878 6.7641 19.0144 6.94529 18.9923 7.12385C18.9703 7.30241 18.9006 7.47173 18.7905 7.614C17.4705 9.309 16.7625 11.661 16.3865 13.856L16.2885 14.478C16.2435 14.786 16.2045 15.09 16.1715 15.386L16.1115 15.969L16.0655 16.528L16.0295 17.06L16.0055 17.56L15.9885 18.024L15.9795 18.448L15.9765 19L15.9825 19.438C16.0675 19.49 16.1565 19.535 16.2465 19.572C16.3946 19.6388 16.5585 19.6624 16.7195 19.64C16.8295 19.62 16.9875 19.565 17.1895 19.39L17.2935 19.293C18.1235 18.463 19.0735 18.237 19.9235 18.375C20.5975 18.4929 21.2197 18.8131 21.7075 19.293C21.8896 19.4816 21.9904 19.7342 21.9881 19.9964C21.9859 20.2586 21.8807 20.5094 21.6953 20.6948C21.5099 20.8802 21.2591 20.9854 20.9969 20.9877C20.7347 20.99 20.4821 20.8892 20.2935 20.707C20.1025 20.5235 19.8625 20.3992 19.6025 20.349C19.4005 20.317 19.1365 20.333 18.8165 20.606L18.7075 20.707C18.2095 21.205 17.6545 21.507 17.0625 21.61C16.5364 21.6964 15.9967 21.6337 15.5045 21.429C15.1876 21.2987 14.888 21.1297 14.6125 20.926L14.2575 20.801L13.6765 20.576L13.2325 20.39L12.9015 20.243L12.5445 20.078L12.1635 19.894L11.7605 19.691L11.3385 19.468L10.8985 19.224L10.4435 18.96L9.97446 18.674L9.73546 18.524L9.25046 18.205C8.99964 18.0362 8.75193 17.8629 8.50746 17.685L8.00546 17.31C5.98746 15.762 3.89346 13.648 2.31546 10.832L2.10646 10.448C1.99158 10.2194 1.96871 9.95539 2.04256 9.7104C2.11641 9.46541 2.28136 9.25805 2.50346 9.131C3.84546 8.366 5.04246 7.094 5.98146 5.873L6.28546 5.468C6.33446 5.401 6.38246 5.335 6.42946 5.268L6.70246 4.878L6.95446 4.502L7.18446 4.146L7.39046 3.815L7.57246 3.511L7.79846 3.121L8.04046 2.678L8.10046 2.563C8.17158 2.4162 8.27769 2.28914 8.40946 2.193C8.58082 2.06726 8.78792 1.99963 9.00046 2ZM9.42446 11.744C8.48346 11.904 7.62346 11.957 6.85046 11.937C6.34063 11.9249 5.83217 11.8788 5.32846 11.799C7.34846 14.497 9.87746 16.321 11.8835 17.464C11.2717 16.3652 10.7296 15.2289 10.2605 14.062C9.95278 13.3001 9.67391 12.5269 9.42446 11.744ZM15.5045 9.474C14.0225 10.314 12.6425 10.894 11.3755 11.28C11.5982 11.9662 11.845 12.6442 12.1155 13.313C12.6456 14.6416 13.2817 15.9254 14.0175 17.152C14.1255 15.037 14.4775 12.1 15.5055 9.474H15.5045ZM8.20346 6.228C7.60849 7.08342 6.95103 7.89363 6.23646 8.652C5.87986 9.02788 5.50402 9.38502 5.11046 9.722C5.60046 9.832 6.19946 9.92 6.90146 9.938C7.48346 9.952 8.14146 9.918 8.87346 9.808C8.57697 8.62953 8.35322 7.43394 8.20346 6.228ZM10.1095 5.258C10.2435 6.683 10.4955 8.059 10.8225 9.358C12.0555 8.98 13.4345 8.387 14.9485 7.486C14.6285 7.4 14.3205 7.308 14.0235 7.209C12.6314 6.75162 11.313 6.09379 10.1095 5.258Z" fill="currentColor"/>
</svg>
