<svg width="24" height="24" viewBox="0 0 24 24" fill="none" xmlns="http://www.w3.org/2000/svg">
<path fill-rule="evenodd" clip-rule="evenodd" d="M18.803 5.15797L5.16001 18.801C6.67748 19.1061 8.24405 19.0671 9.74447 18.6869C11.2449 18.3067 12.641 17.5949 13.83 16.604L16.615 14.284L14.737 12.406C14.6209 12.2899 14.5288 12.1521 14.466 12.0004C14.4031 11.8487 14.3708 11.6862 14.3708 11.522C14.3708 11.3578 14.4031 11.1952 14.466 11.0435C14.5288 10.8919 14.6209 10.7541 14.737 10.638L19.51 5.86497L18.803 5.15797ZM17.743 3.38997C18.0243 3.10907 18.4055 2.95129 18.803 2.95129C19.2005 2.95129 19.5818 3.10907 19.863 3.38997L21.278 4.80497C21.5589 5.08622 21.7167 5.46747 21.7167 5.86497C21.7167 6.26248 21.5589 6.64372 21.278 6.92497L16.682 11.522L18.61 13.45C18.7328 13.5728 18.8286 13.7199 18.8914 13.8818C18.9542 14.0438 18.9825 14.217 18.9746 14.3905C18.9667 14.564 18.9227 14.7339 18.8455 14.8895C18.7682 15.045 18.6594 15.1828 18.526 15.294L15.11 18.14C13.4934 19.4872 11.5595 20.3992 9.49161 20.7894C7.42373 21.1797 5.29044 21.0353 3.29401 20.37C3.09417 20.3033 2.91468 20.1866 2.77256 20.0311C2.63044 19.8755 2.5304 19.6863 2.48192 19.4813C2.43344 19.2762 2.43814 19.0622 2.49555 18.8595C2.55297 18.6568 2.66121 18.4721 2.81001 18.323L17.743 3.38997Z" fill="currentColor"/>
</svg>
