<svg width="24" height="24" viewBox="0 0 24 24" fill="none" xmlns="http://www.w3.org/2000/svg">
<path fill-rule="evenodd" clip-rule="evenodd" d="M12 2C12.2449 2.00003 12.4813 2.08996 12.6644 2.25272C12.8474 2.41547 12.9643 2.63975 12.993 2.883L13 3V4H14C14.2449 4.00003 14.4813 4.08996 14.6644 4.25272C14.8474 4.41547 14.9643 4.63975 14.993 4.883L15 5H16C16.252 5.00003 16.4948 5.09523 16.6796 5.26655C16.8645 5.43788 16.9778 5.67269 16.997 5.924C17.693 6.202 18.338 6.538 18.919 6.925C20.726 8.13 22 9.905 22 12C22 14.095 20.726 15.87 18.919 17.075C17.794 17.825 16.426 18.385 14.915 18.702L14.5 18.782V21C14.4997 21.2549 14.4021 21.5 14.2272 21.6854C14.0522 21.8707 13.813 21.9822 13.5586 21.9972C13.3042 22.0121 13.0536 21.9293 12.8582 21.7657C12.6627 21.6021 12.5371 21.3701 12.507 21.117L12.5 21V18.991C12.334 18.997 12.168 19 12 19L11.75 18.998L11.5 18.991V21C11.4997 21.2549 11.4021 21.5 11.2272 21.6854C11.0522 21.8707 10.813 21.9822 10.5586 21.9972C10.3042 22.0121 10.0536 21.9293 9.85817 21.7657C9.66271 21.6021 9.5371 21.3701 9.507 21.117L9.5 21V18.782C7.825 18.485 6.308 17.892 5.081 17.075C3.274 15.87 2 14.095 2 12C2 9.905 3.274 8.13 5.081 6.925C5.68539 6.52588 6.32949 6.19042 7.003 5.924C7.02053 5.69329 7.11752 5.4758 7.27743 5.30859C7.43735 5.14138 7.6503 5.03479 7.88 5.007L8 5H9C9.00003 4.75507 9.08996 4.51866 9.25272 4.33563C9.41547 4.15259 9.63975 4.03566 9.883 4.007L10 4H11V3C11 2.73478 11.1054 2.48043 11.2929 2.29289C11.4804 2.10536 11.7348 2 12 2ZM12 7.16C11.66 7.382 11.182 7.732 10.707 8.207C9.817 9.098 9 10.36 9 12C9 13.64 9.816 14.902 10.707 15.793C11.1011 16.1849 11.5344 16.5355 12 16.839C12.466 16.536 12.8993 16.1854 13.293 15.793C14.183 14.902 15 13.64 15 12C15 10.36 14.184 9.098 13.293 8.207C12.8989 7.81507 12.4656 7.46357 12 7.16ZM8.692 7.457C7.80542 7.70527 6.96177 8.08697 6.19 8.589C4.74 9.556 4 10.781 4 12C4 13.219 4.74 14.444 6.19 15.41C6.96166 15.9127 7.80532 16.2951 8.692 16.544C7.795 15.45 7 13.932 7 12C7 10.068 7.795 8.551 8.692 7.457ZM15.308 7.456C16.205 8.55 17 10.068 17 12C17 13.932 16.205 15.45 15.308 16.544C16.1943 16.2953 17.0376 15.9132 17.809 15.411C19.26 14.444 20 13.219 20 12C20 10.781 19.26 9.556 17.81 8.59C17.0383 8.08729 16.1947 7.70491 15.308 7.456Z" fill="currentColor"/>
</svg>
