<svg width="24" height="24" viewBox="0 0 24 24" fill="none" xmlns="http://www.w3.org/2000/svg">
<path fill-rule="evenodd" clip-rule="evenodd" d="M6.414 14L12 19.587L17.586 14H15C14.455 14 14 13.545 14 13V4H10V13C10 13.2652 9.89464 13.5196 9.7071 13.7071C9.51957 13.8946 9.26521 14 9 14H6.414ZM4.488 14.902C3.417 13.831 4.175 12 5.69 12H8V4C8 3.46957 8.21071 2.96086 8.58578 2.58579C8.96086 2.21071 9.46956 2 10 2H14C14.5304 2 15.0391 2.21071 15.4142 2.58579C15.7893 2.96086 16 3.46957 16 4V12H18.31C19.825 12 20.583 13.831 19.512 14.902L13.061 21.355C12.9217 21.4944 12.7563 21.605 12.5742 21.6804C12.3922 21.7558 12.1971 21.7947 12 21.7947C11.8029 21.7947 11.6078 21.7558 11.4258 21.6804C11.2437 21.605 11.0783 21.4944 10.939 21.355L4.488 14.902Z" fill="currentColor"/>
</svg>
