<svg width="24" height="24" viewBox="0 0 24 24" fill="none" xmlns="http://www.w3.org/2000/svg">
<path fill-rule="evenodd" clip-rule="evenodd" d="M12.528 1.11798C12.6877 1.03255 12.8675 0.992072 13.0484 1.00088C13.2293 1.00968 13.4044 1.06744 13.555 1.16798L19.109 4.87098C19.383 5.05357 19.6077 5.30098 19.7631 5.59126C19.9186 5.88154 19.9999 6.20571 20 6.53498V17C20 17.181 19.9509 17.3587 19.8579 17.514C19.7648 17.6693 19.6314 17.7964 19.4718 17.8819C19.3121 17.9673 19.1323 18.0077 18.9515 17.999C18.7707 17.9902 18.5956 17.9325 18.445 17.832L16 16.202V19C16 19.181 15.9509 19.3587 15.8579 19.514C15.7648 19.6693 15.6314 19.7964 15.4718 19.8819C15.3121 19.9673 15.1323 20.0077 14.9515 19.999C14.7707 19.9902 14.5956 19.9325 14.445 19.832L12 18.202V21C12 21.181 11.9509 21.3587 11.8579 21.514C11.7648 21.6693 11.6314 21.7964 11.4718 21.8819C11.3121 21.9673 11.1323 22.0077 10.9515 21.999C10.7707 21.9902 10.5956 21.9325 10.445 21.832L4.891 18.13C4.61684 17.9473 4.39206 17.6997 4.23662 17.4093C4.08118 17.1188 3.9999 16.7944 4 16.465V5.99998C3.99997 5.81894 4.0491 5.64129 4.14213 5.48598C4.23516 5.33066 4.36861 5.20352 4.52824 5.11811C4.68787 5.0327 4.86769 4.99223 5.04852 5.00101C5.22935 5.0098 5.4044 5.06751 5.555 5.16798L8 6.79798V3.99998C7.99997 3.81894 8.04909 3.64129 8.14213 3.48598C8.23516 3.33066 8.3686 3.20352 8.52823 3.11811C8.68786 3.0327 8.86769 2.99223 9.04852 3.00101C9.22935 3.0098 9.4044 3.06751 9.555 3.16798L12 4.79798V1.99998C11.9999 1.81894 12.049 1.64128 12.142 1.48595C12.235 1.33061 12.3684 1.20344 12.528 1.11798ZM14 6.13098L15.11 6.87098C15.3838 7.05368 15.6083 7.30115 15.7636 7.59142C15.9188 7.88169 16 8.2058 16 8.53498V13.798L18 15.132V6.53498L14 3.86998V6.13098ZM10 8.13098L11.11 8.87098C11.3838 9.05368 11.6083 9.30115 11.7636 9.59142C11.9188 9.88169 12 10.2058 12 10.535V15.798L14 17.131V8.53498L10 5.86998V8.13098ZM6 7.86998V16.466L10 19.132V10.536L6 7.86998Z" fill="currentColor"/>
</svg>
