<svg width="24" height="24" viewBox="0 0 24 24" fill="none" xmlns="http://www.w3.org/2000/svg">
<path fill-rule="evenodd" clip-rule="evenodd" d="M19 3C19.5046 2.99984 19.9906 3.19041 20.3605 3.5335C20.7305 3.87659 20.9572 4.34684 20.995 4.85L21 5V19C21.0002 19.5046 20.8096 19.9906 20.4665 20.3605C20.1234 20.7305 19.6532 20.9572 19.15 20.995L19 21H5C4.49542 21.0002 4.00943 20.8096 3.63945 20.4665C3.26947 20.1234 3.04284 19.6532 3.005 19.15L3 19V5C2.99984 4.49542 3.19041 4.00943 3.5335 3.63945C3.87659 3.26947 4.34684 3.04284 4.85 3.005L5 3H19ZM19 10H5V19H19V10ZM16 15C16.2549 15.0003 16.5 15.0979 16.6854 15.2728C16.8707 15.4478 16.9822 15.687 16.9972 15.9414C17.0121 16.1958 16.9293 16.4464 16.7657 16.6418C16.6021 16.8373 16.3701 16.9629 16.117 16.993L16 17H8C7.74512 16.9997 7.49997 16.9021 7.31463 16.7272C7.1293 16.5522 7.01777 16.313 7.00283 16.0586C6.98789 15.8042 7.07067 15.5536 7.23426 15.3582C7.39786 15.1627 7.6299 15.0371 7.883 15.007L8 15H16ZM16 12C16.2652 12 16.5196 12.1054 16.7071 12.2929C16.8946 12.4804 17 12.7348 17 13C17 13.2652 16.8946 13.5196 16.7071 13.7071C16.5196 13.8946 16.2652 14 16 14H8C7.73478 14 7.48043 13.8946 7.29289 13.7071C7.10536 13.5196 7 13.2652 7 13C7 12.7348 7.10536 12.4804 7.29289 12.2929C7.48043 12.1054 7.73478 12 8 12H16ZM19 5H5V8H19V5Z" fill="currentColor"/>
</svg>
