<svg width="24" height="24" viewBox="0 0 24 24" fill="none" xmlns="http://www.w3.org/2000/svg">
<path fill-rule="evenodd" clip-rule="evenodd" d="M19 3C19.5304 3 20.0391 3.21071 20.4142 3.58579C20.7893 3.96086 21 4.46957 21 5V19C21 19.5304 20.7893 20.0391 20.4142 20.4142C20.0391 20.7893 19.5304 21 19 21H5C4.46957 21 3.96086 20.7893 3.58579 20.4142C3.21071 20.0391 3 19.5304 3 19V5C3 4.46957 3.21071 3.96086 3.58579 3.58579C3.96086 3.21071 4.46957 3 5 3H19ZM19 5H10V19H19V5ZM8 5H5V19H8V5ZM16 15C16.2549 15.0003 16.5 15.0979 16.6854 15.2728C16.8707 15.4478 16.9822 15.687 16.9972 15.9414C17.0121 16.1958 16.9293 16.4464 16.7657 16.6418C16.6021 16.8373 16.3701 16.9629 16.117 16.993L16 17H13C12.7451 16.9997 12.5 16.9021 12.3146 16.7272C12.1293 16.5522 12.0178 16.313 12.0028 16.0586C11.9879 15.8042 12.0707 15.5536 12.2343 15.3582C12.3979 15.1627 12.6299 15.0371 12.883 15.007L13 15H16ZM16 11C16.2652 11 16.5196 11.1054 16.7071 11.2929C16.8946 11.4804 17 11.7348 17 12C17 12.2652 16.8946 12.5196 16.7071 12.7071C16.5196 12.8946 16.2652 13 16 13H13C12.7348 13 12.4804 12.8946 12.2929 12.7071C12.1054 12.5196 12 12.2652 12 12C12 11.7348 12.1054 11.4804 12.2929 11.2929C12.4804 11.1054 12.7348 11 13 11H16ZM16 7C16.2549 7.00028 16.5 7.09788 16.6854 7.27285C16.8707 7.44782 16.9822 7.68695 16.9972 7.94139C17.0121 8.19584 16.9293 8.44638 16.7657 8.64183C16.6021 8.83729 16.3701 8.9629 16.117 8.993L16 9H13C12.7451 8.99972 12.5 8.90212 12.3146 8.72715C12.1293 8.55218 12.0178 8.31305 12.0028 8.05861C11.9879 7.80416 12.0707 7.55362 12.2343 7.35817C12.3979 7.16271 12.6299 7.0371 12.883 7.007L13 7H16Z" fill="currentColor"/>
</svg>
