<svg width="24" height="24" viewBox="0 0 24 24" fill="none" xmlns="http://www.w3.org/2000/svg">
<path d="M19 3C19.5304 3 20.0391 3.21071 20.4142 3.58579C20.7893 3.96086 21 4.46957 21 5V19C21 19.5304 20.7893 20.0391 20.4142 20.4142C20.0391 20.7893 19.5304 21 19 21H5C4.46957 21 3.96086 20.7893 3.58579 20.4142C3.21071 20.0391 3 19.5304 3 19V5C3 4.46957 3.21071 3.96086 3.58579 3.58579C3.96086 3.21071 4.46957 3 5 3H19ZM19 5H16V19H19V5ZM14 5H5V19H14V5ZM7.793 9.172C7.96507 8.99968 8.1941 8.89606 8.43713 8.8806C8.68016 8.86513 8.92048 8.93888 9.113 9.088L9.207 9.172L11.328 11.292C11.5003 11.4641 11.6039 11.6931 11.6194 11.9361C11.6349 12.1792 11.5611 12.4195 11.412 12.612L11.328 12.707L9.208 14.828C9.02846 15.0093 8.78643 15.115 8.53145 15.1237C8.27647 15.1323 8.02783 15.0432 7.83642 14.8745C7.64501 14.7059 7.5253 14.4704 7.5018 14.2164C7.47829 13.9623 7.55278 13.7089 7.71 13.508L7.793 13.414L9.207 12L7.793 10.586C7.60553 10.3985 7.50021 10.1442 7.50021 9.879C7.50021 9.61384 7.60553 9.35953 7.793 9.172Z" fill="currentColor"/>
</svg>
