<svg width="24" height="24" viewBox="0 0 24 24" fill="none" xmlns="http://www.w3.org/2000/svg">
<path d="M19 3C19.5304 3 20.0391 3.21071 20.4142 3.58579C20.7893 3.96086 21 4.46957 21 5V19C21 19.5304 20.7893 20.0391 20.4142 20.4142C20.0391 20.7893 19.5304 21 19 21H5C4.46957 21 3.96086 20.7893 3.58579 20.4142C3.21071 20.0391 3 19.5304 3 19V5C3 4.46957 3.21071 3.96086 3.58579 3.58579C3.96086 3.21071 4.46957 3 5 3H19ZM19 10H5V19H19V10ZM10.586 12.793L12 14.207L13.414 12.793C13.6026 12.6108 13.8552 12.51 14.1174 12.5123C14.3796 12.5146 14.6304 12.6198 14.8158 12.8052C15.0012 12.9906 15.1064 13.2414 15.1087 13.5036C15.111 13.7658 15.0102 14.0184 14.828 14.207L12.708 16.328C12.6151 16.421 12.5048 16.4947 12.3834 16.5451C12.262 16.5954 12.1319 16.6213 12.0005 16.6213C11.8691 16.6213 11.739 16.5954 11.6176 16.5451C11.4962 16.4947 11.3859 16.421 11.293 16.328L9.172 14.208C9.07909 14.1152 9.00538 14.0049 8.95507 13.8836C8.90476 13.7623 8.87884 13.6322 8.8788 13.5009C8.87875 13.3695 8.90458 13.2394 8.9548 13.1181C9.00502 12.9967 9.07866 12.8864 9.1715 12.7935C9.26434 12.7006 9.37458 12.6269 9.49591 12.5766C9.61724 12.5263 9.7473 12.5003 9.87865 12.5003C10.01 12.5003 10.1401 12.5261 10.2614 12.5763C10.3828 12.6265 10.4931 12.7002 10.586 12.793ZM19 5H5V8H19V5Z" fill="currentColor"/>
</svg>
