<svg width="24" height="24" viewBox="0 0 24 24" fill="none" xmlns="http://www.w3.org/2000/svg">
<path d="M19 3C19.5304 3 20.0391 3.21071 20.4142 3.58579C20.7893 3.96086 21 4.46957 21 5V19C21 19.5304 20.7893 20.0391 20.4142 20.4142C20.0391 20.7893 19.5304 21 19 21H5C4.46957 21 3.96086 20.7893 3.58579 20.4142C3.21071 20.0391 3 19.5304 3 19V5C3 4.46957 3.21071 3.96086 3.58579 3.58579C3.96086 3.21071 4.46957 3 5 3H19ZM19 16H5V19H19V16ZM19 5H5V14H19V5ZM9.172 7.793C9.34419 7.62082 9.57329 7.51739 9.81632 7.50211C10.0593 7.48683 10.2996 7.56075 10.492 7.71L10.586 7.793L12 9.207L13.414 7.793C13.5935 7.61175 13.8356 7.50597 14.0905 7.49732C14.3455 7.48867 14.5942 7.5778 14.7856 7.74647C14.977 7.91513 15.0967 8.15058 15.1202 8.40462C15.1437 8.65866 15.0692 8.91208 14.912 9.113L14.828 9.207L12.708 11.328C12.5359 11.5003 12.3069 11.6039 12.0639 11.6194C11.8208 11.6349 11.5805 11.5611 11.388 11.412L11.293 11.328L9.172 9.208C9.07902 9.11513 9.00526 9.00484 8.95494 8.88344C8.90462 8.76204 8.87871 8.63192 8.87871 8.5005C8.87871 8.36908 8.90462 8.23896 8.95494 8.11756C9.00526 7.99616 9.07902 7.88587 9.172 7.793Z" fill="currentColor"/>
</svg>
