<svg width="24" height="24" viewBox="0 0 24 24" fill="none" xmlns="http://www.w3.org/2000/svg">
<path fill-rule="evenodd" clip-rule="evenodd" d="M4.71189 18.141C3.17489 16.451 2.75489 14.313 2.94189 12.403C3.14789 10.296 4.10889 8.27501 5.35989 7.23201C7.03189 5.83901 8.78789 5.26701 10.3119 4.98701C11.054 4.85966 11.8014 4.76523 12.5519 4.70401C12.9559 4.66601 13.3649 4.62801 13.7579 4.53001C14.5859 4.32301 15.4029 3.98701 16.0759 3.45301C16.3839 3.20801 16.6959 2.96001 17.1109 3.00601C17.2601 3.0226 17.4036 3.07257 17.5308 3.1522C17.6581 3.23183 17.7658 3.33909 17.8459 3.46601C21.0459 8.53301 20.5629 13.912 17.8899 17.3C16.5549 18.991 14.6799 20.171 12.4929 20.52C10.5849 20.823 8.49989 20.484 6.39889 19.384C6.21432 19.9578 6.07719 20.5458 5.98889 21.142C5.95137 21.4046 5.81107 21.6415 5.59887 21.8006C5.38668 21.9597 5.11996 22.028 4.85739 21.9905C4.59483 21.953 4.35793 21.8127 4.1988 21.6005C4.03968 21.3883 3.97137 21.1216 4.00889 20.859C4.13289 19.994 4.36889 19.073 4.71189 18.141ZM10.6719 6.95401C11.3759 6.82501 12.0369 6.76301 12.6789 6.70001C13.2029 6.65001 13.7309 6.59801 14.2429 6.47001C15.1053 6.25913 15.9312 5.92002 16.6929 5.46401C18.8709 9.58101 18.2629 13.598 16.3199 16.062C15.2719 17.39 13.8309 18.282 12.1799 18.544C10.6969 18.78 8.97989 18.52 7.14989 17.518C8.26189 15.251 10.0799 13.078 12.4469 11.895C12.6843 11.7765 12.8648 11.5685 12.9488 11.3168C13.0328 11.0651 13.0134 10.7904 12.8949 10.553C12.7763 10.3156 12.5684 10.1351 12.3167 10.0511C12.065 9.96705 11.7903 9.98645 11.5529 10.105C8.94489 11.409 6.94689 13.664 5.64789 16.069C5.00689 15.019 4.81489 13.798 4.93289 12.597C5.10189 10.869 5.89289 9.39201 6.63989 8.76801C7.96789 7.66101 9.3679 7.19401 10.6729 6.95401H10.6719Z" fill="currentColor"/>
</svg>
