<svg width="24" height="24" viewBox="0 0 24 24" fill="none" xmlns="http://www.w3.org/2000/svg">
<path fill-rule="evenodd" clip-rule="evenodd" d="M13.707 8.46503C13.8945 8.65256 13.9998 8.90686 13.9998 9.17203C13.9998 9.43719 13.8945 9.6915 13.707 9.87903L11.586 12L13.707 14.121C13.7999 14.2139 13.8736 14.3241 13.9239 14.4454C13.9742 14.5668 14.0002 14.6968 14.0002 14.8282C14.0002 14.9595 13.9744 15.0896 13.9242 15.211C13.874 15.3323 13.8003 15.4426 13.7075 15.5355C13.6147 15.6284 13.5044 15.7022 13.3831 15.7525C13.2618 15.8028 13.1317 15.8287 13.0004 15.8287C12.869 15.8288 12.7389 15.803 12.6176 15.7527C12.4962 15.7025 12.3859 15.6289 12.293 15.536L9.465 12.707C9.27753 12.5195 9.17221 12.2652 9.17221 12C9.17221 11.7349 9.27753 11.4806 9.465 11.293L12.293 8.46503C12.4805 8.27756 12.7348 8.17224 13 8.17224C13.2652 8.17224 13.5195 8.27756 13.707 8.46503Z" fill="currentColor"/>
</svg>
