<svg width="24" height="24" viewBox="0 0 24 24" fill="none" xmlns="http://www.w3.org/2000/svg">
<path fill-rule="evenodd" clip-rule="evenodd" d="M7.25 4.75C7.25 4.55109 7.32902 4.36032 7.46967 4.21967C7.61032 4.07902 7.80109 4 8 4C8.19891 4 8.38968 4.07902 8.53033 4.21967C8.67098 4.36032 8.75 4.55109 8.75 4.75C8.75 4.833 8.707 5.095 8.572 5.56C8.43 6.052 8.222 6.653 8 7.253C7.778 6.653 7.57 6.052 7.428 5.56C7.293 5.095 7.25 4.833 7.25 4.75ZM8 2C7.27065 2 6.57118 2.28973 6.05546 2.80546C5.53973 3.32118 5.25 4.02065 5.25 4.75C5.25 5.15 5.375 5.662 5.507 6.115C5.648 6.605 5.837 7.161 6.035 7.704C6.43 8.79 6.875 9.88 7.072 10.371C7.14638 10.5563 7.27451 10.715 7.4399 10.8268C7.60529 10.9387 7.80036 10.9984 8 10.9984C8.19964 10.9984 8.39471 10.9387 8.5601 10.8268C8.72548 10.715 8.85362 10.5563 8.928 10.371C9.125 9.881 9.57 8.79 9.965 7.704C10.1581 7.18016 10.3342 6.65022 10.493 6.115C10.625 5.662 10.75 5.15 10.75 4.75C10.75 4.02065 10.4603 3.32118 9.94454 2.80546C9.42882 2.28973 8.72935 2 8 2ZM13.48 6.71C13.5487 6.63631 13.6315 6.57721 13.7235 6.53622C13.8155 6.49523 13.9148 6.47319 14.0155 6.47141C14.1162 6.46963 14.2162 6.48816 14.3096 6.52588C14.403 6.5636 14.4878 6.61974 14.559 6.69096C14.6303 6.76218 14.6864 6.84701 14.7241 6.9404C14.7618 7.03379 14.7804 7.13382 14.7786 7.23452C14.7768 7.33523 14.7548 7.43454 14.7138 7.52654C14.6728 7.61854 14.6137 7.70134 14.54 7.77C14.482 7.829 14.267 7.983 13.843 8.217C13.394 8.464 12.822 8.742 12.241 9.01C12.508 8.428 12.786 7.856 13.033 7.407C13.267 6.984 13.421 6.769 13.48 6.71ZM15.955 5.294C15.4393 4.7783 14.7398 4.48859 14.0105 4.48859C13.2812 4.48859 12.5817 4.7783 12.066 5.294C11.783 5.577 11.51 6.027 11.282 6.441C11.036 6.887 10.777 7.415 10.532 7.938C10.044 8.984 9.588 10.071 9.379 10.557C9.3003 10.7407 9.27845 10.9437 9.31625 11.14C9.35405 11.3362 9.44978 11.5166 9.59109 11.6579C9.73239 11.7992 9.9128 11.8949 10.109 11.9328C10.3053 11.9706 10.5083 11.9487 10.692 11.87C11.569 11.494 12.447 11.12 13.312 10.717C13.834 10.472 14.362 10.213 14.808 9.967C15.222 9.739 15.672 9.466 15.955 9.183C16.4707 8.66728 16.7604 7.96782 16.7604 7.2385C16.7604 6.50918 16.4707 5.80972 15.955 5.294ZM17.25 13.249C17.25 13.0501 17.171 12.8593 17.0303 12.7187C16.8897 12.578 16.6989 12.499 16.5 12.499C16.417 12.499 16.155 12.542 15.69 12.677C15.198 12.819 14.597 13.027 13.997 13.249C14.597 13.471 15.198 13.679 15.69 13.821C16.155 13.956 16.417 13.999 16.5 13.999C16.6989 13.999 16.8897 13.92 17.0303 13.7793C17.171 13.6387 17.25 13.4479 17.25 13.249ZM16.5 10.499C17.2293 10.499 17.9288 10.7887 18.4445 11.3045C18.9603 11.8202 19.25 12.5197 19.25 13.249C19.25 13.9783 18.9603 14.6778 18.4445 15.1935C17.9288 15.7093 17.2293 15.999 16.5 15.999C16.1 15.999 15.588 15.874 15.135 15.742C14.5998 15.5832 14.0698 15.4071 13.546 15.214C12.461 14.82 11.37 14.374 10.879 14.177C10.6934 14.1028 10.5343 13.9747 10.4223 13.8092C10.3102 13.6437 10.2503 13.4484 10.2503 13.2485C10.2503 13.0486 10.3102 12.8533 10.4223 12.6878C10.5343 12.5223 10.6934 12.3942 10.879 12.32C11.369 12.124 12.46 11.679 13.546 11.284C14.0698 11.0909 14.5998 10.9148 15.135 10.756C15.588 10.624 16.1 10.499 16.5 10.499ZM14.54 18.729C14.6725 18.8712 14.7446 19.0592 14.7412 19.2535C14.7377 19.4478 14.659 19.6332 14.5216 19.7706C14.3842 19.908 14.1988 19.9867 14.0045 19.9902C13.8102 19.9936 13.6222 19.9215 13.48 19.789C13.421 19.731 13.267 19.515 13.033 19.091C12.7507 18.5662 12.4866 18.0319 12.241 17.489C12.7836 17.735 13.3175 17.9995 13.842 18.282C14.267 18.516 14.482 18.67 14.541 18.729M15.956 21.204C16.2115 20.9486 16.4142 20.6454 16.5525 20.3117C16.6907 19.9779 16.7619 19.6202 16.7619 19.259C16.7619 18.8978 16.6907 18.5401 16.5525 18.2063C16.4142 17.8726 16.2115 17.5694 15.956 17.314C15.673 17.032 15.223 16.759 14.809 16.531C14.3182 16.2649 13.819 16.0148 13.312 15.781C12.265 15.292 11.179 14.836 10.693 14.628C10.5093 14.5493 10.3063 14.5274 10.11 14.5652C9.9138 14.6031 9.73339 14.6988 9.59209 14.8401C9.45078 14.9814 9.35505 15.1618 9.31725 15.358C9.27945 15.5543 9.3013 15.7573 9.38 15.941C9.588 16.427 10.045 17.513 10.533 18.56C10.778 19.083 11.037 19.61 11.283 20.057C11.511 20.471 11.784 20.921 12.067 21.204C12.5827 21.7197 13.2822 22.0094 14.0115 22.0094C14.7408 22.0094 15.4403 21.7197 15.956 21.204Z" fill="currentColor"/>
</svg>
