<svg width="24" height="24" viewBox="0 0 24 24" fill="none" xmlns="http://www.w3.org/2000/svg">
<path fill-rule="evenodd" clip-rule="evenodd" d="M12 2C17.523 2 22 6.477 22 12C22 17.523 17.523 22 12 22C6.477 22 2 17.523 2 12C2 6.477 6.477 2 12 2ZM14.313 16.434C13.5991 16.807 12.8054 17.0012 12 17C11.2826 17.0011 10.5734 16.8473 9.921 16.549L9.687 16.434L7.504 18.618C8.82932 19.5209 10.3964 20.0026 12 20C13.4983 20.0023 14.9669 19.5819 16.237 18.787L16.497 18.617L14.313 16.434ZM5.383 7.504C4.47977 8.82921 3.99774 10.3963 4 12C4 13.667 4.51 15.215 5.382 16.496L7.566 14.313C7.19299 13.5991 6.99877 12.8054 7 12C7 11.165 7.204 10.379 7.566 9.687L5.383 7.504ZM18.618 7.504L16.434 9.687C16.796 10.379 17 11.166 17 12C17 12.835 16.796 13.621 16.434 14.313L18.618 16.496C19.5209 15.1707 20.0026 13.6036 20 12C20 10.333 19.49 8.785 18.618 7.504ZM12 9C11.2044 9 10.4413 9.31607 9.87868 9.87868C9.31607 10.4413 9 11.2044 9 12C9 12.7956 9.31607 13.5587 9.87868 14.1213C10.4413 14.6839 11.2044 15 12 15C12.7956 15 13.5587 14.6839 14.1213 14.1213C14.6839 13.5587 15 12.7956 15 12C15 11.2044 14.6839 10.4413 14.1213 9.87868C13.5587 9.31607 12.7956 9 12 9ZM12 4C10.5017 3.99761 9.03306 4.41805 7.763 5.213L7.503 5.383L9.687 7.566C10.4009 7.19299 11.1946 6.99877 12 7C12.742 7 13.446 7.162 14.079 7.451L14.313 7.566L16.496 5.382C15.1707 4.47913 13.6036 3.99744 12 4Z" fill="currentColor"/>
</svg>
