<svg width="24" height="24" viewBox="0 0 24 24" fill="none" xmlns="http://www.w3.org/2000/svg">
<path fill-rule="evenodd" clip-rule="evenodd" d="M12 19C12.2449 19 12.4813 19.09 12.6644 19.2527C12.8474 19.4155 12.9643 19.6397 12.993 19.883L13 20V21C12.9997 21.2549 12.9021 21.5 12.7272 21.6854C12.5522 21.8707 12.313 21.9822 12.0586 21.9972C11.8042 22.0121 11.5536 21.9293 11.3582 21.7657C11.1627 21.6021 11.0371 21.3701 11.007 21.117L11 21V20C11 19.7348 11.1054 19.4804 11.2929 19.2929C11.4804 19.1054 11.7348 19 12 19ZM7.05 16.95C7.23747 17.1375 7.34279 17.3918 7.34279 17.657C7.34279 17.9222 7.23747 18.1765 7.05 18.364L6.343 19.071C6.25075 19.1665 6.14041 19.2427 6.0184 19.2951C5.8964 19.3475 5.76518 19.3751 5.6324 19.3763C5.49962 19.3774 5.36794 19.3521 5.24505 19.3018C5.12215 19.2515 5.0105 19.1773 4.9166 19.0834C4.82271 18.9895 4.74846 18.8778 4.69818 18.755C4.6479 18.6321 4.6226 18.5004 4.62375 18.3676C4.6249 18.2348 4.65249 18.1036 4.7049 17.9816C4.75731 17.8596 4.83349 17.7492 4.929 17.657L5.636 16.95C5.82353 16.7625 6.07784 16.6572 6.343 16.6572C6.60816 16.6572 6.86247 16.7625 7.05 16.95ZM18.364 16.95L19.071 17.657C19.2532 17.8456 19.354 18.0982 19.3517 18.3604C19.3494 18.6226 19.2442 18.8734 19.0588 19.0588C18.8734 19.2442 18.6226 19.3494 18.3604 19.3517C18.0982 19.354 17.8456 19.2532 17.657 19.071L16.95 18.364C16.7678 18.1754 16.667 17.9228 16.6693 17.6606C16.6716 17.3984 16.7768 17.1476 16.9622 16.9622C17.1476 16.7768 17.3984 16.6716 17.6606 16.6693C17.9228 16.667 18.1754 16.7678 18.364 16.95ZM12.617 2C13.1046 1.99989 13.5754 2.17789 13.9409 2.50052C14.3064 2.82316 14.5415 3.26821 14.602 3.752L14.982 6.792C16.1297 7.44932 17.028 8.46743 17.5373 9.68802C18.0466 10.9086 18.1383 12.2633 17.7982 13.5414C17.4581 14.8195 16.7053 15.9494 15.6567 16.7555C14.6081 17.5615 13.3226 17.9985 12 17.9985C10.6774 17.9985 9.39189 17.5615 8.34331 16.7555C7.29474 15.9494 6.54187 14.8195 6.20177 13.5414C5.86167 12.2633 5.9534 10.9086 6.4627 9.68802C6.972 8.46743 7.87033 7.44932 9.018 6.792L9.398 3.752C9.45846 3.26821 9.69356 2.82316 10.0591 2.50052C10.4246 2.17789 10.8954 1.99989 11.383 2H12.617ZM12 8C10.9391 8 9.92172 8.42143 9.17157 9.17157C8.42143 9.92172 8 10.9391 8 12C8 13.0609 8.42143 14.0783 9.17157 14.8284C9.92172 15.5786 10.9391 16 12 16C13.0609 16 14.0783 15.5786 14.8284 14.8284C15.5786 14.0783 16 13.0609 16 12C16 10.9391 15.5786 9.92172 14.8284 9.17157C14.0783 8.42143 13.0609 8 12 8ZM4 11C4.26522 11 4.51957 11.1054 4.70711 11.2929C4.89464 11.4804 5 11.7348 5 12C5 12.2652 4.89464 12.5196 4.70711 12.7071C4.51957 12.8946 4.26522 13 4 13H3C2.73478 13 2.48043 12.8946 2.29289 12.7071C2.10536 12.5196 2 12.2652 2 12C2 11.7348 2.10536 11.4804 2.29289 11.2929C2.48043 11.1054 2.73478 11 3 11H4ZM21 11C21.2652 11 21.5196 11.1054 21.7071 11.2929C21.8946 11.4804 22 11.7348 22 12C22 12.2652 21.8946 12.5196 21.7071 12.7071C21.5196 12.8946 21.2652 13 21 13H20C19.7348 13 19.4804 12.8946 19.2929 12.7071C19.1054 12.5196 19 12.2652 19 12C19 11.7348 19.1054 11.4804 19.2929 11.2929C19.4804 11.1054 19.7348 11 20 11H21ZM19.071 4.93C19.2585 5.11753 19.3638 5.37184 19.3638 5.637C19.3638 5.90216 19.2585 6.15647 19.071 6.344L18.364 7.051C18.2718 7.14651 18.1614 7.22269 18.0394 7.2751C17.9174 7.32751 17.7862 7.3551 17.6534 7.35625C17.5206 7.3574 17.3889 7.3321 17.266 7.28182C17.1432 7.23154 17.0315 7.15729 16.9376 7.0634C16.8437 6.9695 16.7695 6.85785 16.7192 6.73495C16.6689 6.61206 16.6436 6.48038 16.6447 6.3476C16.6459 6.21482 16.6735 6.0836 16.7259 5.9616C16.7783 5.83959 16.8545 5.72925 16.95 5.637L17.657 4.93C17.8445 4.74253 18.0988 4.63721 18.364 4.63721C18.6292 4.63721 18.8835 4.74253 19.071 4.93ZM6.343 4.93L7.05 5.637C7.22766 5.82645 7.32463 6.07759 7.32042 6.33727C7.3162 6.59695 7.21112 6.84481 7.02741 7.02839C6.84369 7.21197 6.59576 7.31688 6.33608 7.32091C6.07639 7.32495 5.82533 7.22779 5.636 7.05L4.929 6.343C4.75134 6.15355 4.65437 5.90241 4.65858 5.64273C4.6628 5.38305 4.76788 5.13519 4.95159 4.95161C5.13531 4.76803 5.38324 4.66312 5.64292 4.65909C5.90261 4.65505 6.15368 4.75221 6.343 4.93ZM12.617 4H11.383L11.133 6H12.867L12.617 4Z" fill="currentColor"/>
</svg>
