<svg width="24" height="24" viewBox="0 0 24 24" fill="none" xmlns="http://www.w3.org/2000/svg">
<path fill-rule="evenodd" clip-rule="evenodd" d="M9.65082 4L6.53982 11H9.98682C10.6768 11 11.1628 11.675 10.9448 12.33L9.28882 17.297L16.5868 10H14.0168C13.8446 9.99996 13.6753 9.95591 13.525 9.87204C13.3746 9.78816 13.2482 9.66723 13.1577 9.52075C13.0673 9.37426 13.0157 9.20708 13.008 9.03508C13.0004 8.86308 13.0368 8.69197 13.1138 8.538L15.3828 4H9.65082ZM8.08482 2.6C8.24682 2.235 8.60782 2 9.00782 2H16.9848C17.7348 2 18.2238 2.79 17.8878 3.462L15.6188 8H18.9768C19.8768 8 20.3268 9.088 19.6908 9.724L7.73782 21.677C6.98382 22.431 5.72782 21.655 6.06582 20.644L8.61382 13H5.01582C4.84757 13 4.68198 12.958 4.5341 12.8777C4.38622 12.7974 4.26073 12.6815 4.16903 12.5404C4.07733 12.3994 4.02233 12.2376 4.00902 12.0699C3.99572 11.9022 4.02452 11.7338 4.09282 11.58L8.08482 2.6Z" fill="currentColor"/>
</svg>
