<svg width="24" height="24" viewBox="0 0 24 24" fill="none" xmlns="http://www.w3.org/2000/svg">
<path d="M12 8C12.2652 8 12.5196 7.89464 12.7071 7.70711C12.8946 7.51957 13 7.26522 13 7C13 6.73478 12.8946 6.48043 12.7071 6.29289C12.5196 6.10536 12.2652 6 12 6C11.7348 6 11.4804 6.10536 11.2929 6.29289C11.1054 6.48043 11 6.73478 11 7C11 7.26522 11.1054 7.51957 11.2929 7.70711C11.4804 7.89464 11.7348 8 12 8Z" fill="currentColor"/>
<path fill-rule="evenodd" clip-rule="evenodd" d="M12.832 2.353L15.348 4.03C15.738 4.29 15.984 4.717 16.013 5.185L16.254 9.032C16.4577 9.08529 16.6393 9.20148 16.7731 9.36404C16.9068 9.52659 16.9858 9.72721 16.9989 9.93731C17.012 10.1474 16.9584 10.3563 16.8459 10.5342C16.7333 10.712 16.5675 10.8499 16.372 10.928L16.94 20H19C19.2652 20 19.5196 20.1054 19.7071 20.2929C19.8946 20.4804 20 20.7348 20 21C20 21.2652 19.8946 21.5196 19.7071 21.7071C19.5196 21.8946 19.2652 22 19 22H5.00001C4.73479 22 4.48044 21.8946 4.2929 21.7071C4.10536 21.5196 4.00001 21.2652 4.00001 21C4.00001 20.7348 4.10536 20.4804 4.2929 20.2929C4.48044 20.1054 4.73479 20 5.00001 20H7.06001L7.62801 10.928C7.43253 10.8499 7.2667 10.712 7.15414 10.5342C7.04157 10.3563 6.98801 10.1474 7.00109 9.93731C7.01416 9.72721 7.09321 9.52659 7.22696 9.36404C7.36072 9.20148 7.54236 9.08529 7.74601 9.032L7.98601 5.185C8.00046 4.95416 8.06809 4.7298 8.18363 4.52943C8.29916 4.32907 8.45946 4.15814 8.65201 4.03L11.168 2.353C11.4144 2.18875 11.7039 2.1011 12 2.1011C12.2961 2.1011 12.5856 2.18875 12.832 2.353ZM14.373 11H9.62701L9.06401 20H14.935L14.373 11ZM4.29301 8.293C4.47296 8.11365 4.71444 8.00952 4.96839 8.00177C5.22234 7.99401 5.46972 8.08321 5.66029 8.25124C5.85085 8.41928 5.97031 8.65355 5.99441 8.90647C6.0185 9.15939 5.94542 9.412 5.79001 9.613L5.70701 9.707L4.70701 10.707C4.52705 10.8863 4.28557 10.9905 4.03162 10.9982C3.77767 11.006 3.53029 10.9168 3.33973 10.7487C3.14916 10.5807 3.0297 10.3464 3.00561 10.0935C2.98151 9.8406 3.05459 9.58799 3.21001 9.387L3.29301 9.293L4.29301 8.293ZM18.293 8.293C18.4652 8.12082 18.6943 8.01739 18.9373 8.00211C19.1804 7.98683 19.4206 8.06074 19.613 8.21L19.707 8.293L20.707 9.293C20.8864 9.47295 20.9905 9.71443 20.9982 9.96838C21.006 10.2223 20.9168 10.4697 20.7488 10.6603C20.5807 10.8508 20.3465 10.9703 20.0935 10.9944C19.8406 11.0185 19.588 10.9454 19.387 10.79L19.293 10.707L18.293 9.707C18.1055 9.51947 18.0002 9.26516 18.0002 9C18.0002 8.73483 18.1055 8.48052 18.293 8.293ZM12 4.202L9.96701 5.557L9.75201 9H14.248L14.033 5.557L12 4.202ZM4.70701 4.292L5.70701 5.292C5.89465 5.4795 6.00012 5.73387 6.00021 5.99914C6.0003 6.26441 5.89501 6.51886 5.70751 6.7065C5.52 6.89414 5.26563 6.9996 5.00036 6.9997C4.73509 6.99979 4.48065 6.8945 4.29301 6.707L3.29301 5.707C3.11085 5.51839 3.01005 5.26579 3.01233 5.00359C3.01461 4.7414 3.11978 4.49059 3.30519 4.30518C3.4906 4.11977 3.74141 4.0146 4.00361 4.01232C4.2658 4.01004 4.5184 4.11084 4.70701 4.293V4.292ZM20.707 4.292C20.8 4.38487 20.8737 4.49516 20.9241 4.61656C20.9744 4.73795 21.0003 4.86808 21.0003 4.9995C21.0003 5.13091 20.9744 5.26104 20.9241 5.38244C20.8737 5.50383 20.8 5.61412 20.707 5.707L19.707 6.707C19.6148 6.80251 19.5044 6.87869 19.3824 6.9311C19.2604 6.98351 19.1292 7.01109 18.9964 7.01225C18.8636 7.0134 18.7319 6.9881 18.6091 6.93782C18.4862 6.88754 18.3745 6.81328 18.2806 6.71939C18.1867 6.6255 18.1125 6.51385 18.0622 6.39095C18.0119 6.26805 17.9866 6.13637 17.9878 6.00359C17.9889 5.87082 18.0165 5.7396 18.0689 5.61759C18.1213 5.49559 18.1975 5.38524 18.293 5.293L19.293 4.293C19.4805 4.10552 19.7348 4.00021 20 4.00021C20.2652 4.00021 20.5195 4.10552 20.707 4.293V4.292Z" fill="currentColor"/>
</svg>
