<svg width="24" height="24" viewBox="0 0 24 24" fill="none" xmlns="http://www.w3.org/2000/svg">
<path d="M6.70699 3.29301L8.82799 5.41401C9.01015 5.60261 9.11094 5.85522 9.10866 6.11741C9.10638 6.37961 9.00121 6.63042 8.81581 6.81583C8.6304 7.00124 8.37959 7.10641 8.11739 7.10869C7.85519 7.11096 7.60259 7.01017 7.41399 6.82801L6.99999 6.41401V17.586L7.41399 17.172C7.50623 17.0765 7.61658 17.0003 7.73858 16.9479C7.86059 16.8955 7.99181 16.8679 8.12459 16.8668C8.25737 16.8656 8.38905 16.8909 8.51194 16.9412C8.63484 16.9915 8.74649 17.0657 8.84038 17.1596C8.93428 17.2535 9.00853 17.3652 9.05881 17.4881C9.10909 17.611 9.13439 17.7426 9.13324 17.8754C9.13208 18.0082 9.1045 18.1394 9.05209 18.2614C8.99968 18.3834 8.9235 18.4938 8.82799 18.586L6.70799 20.707C6.61511 20.8 6.50483 20.8737 6.38343 20.9241C6.26203 20.9744 6.1319 21.0003 6.00049 21.0003C5.86907 21.0003 5.73894 20.9744 5.61755 20.9241C5.49615 20.8737 5.38586 20.8 5.29299 20.707L3.17199 18.586C3.07648 18.4938 3.0003 18.3834 2.94789 18.2614C2.89548 18.1394 2.86789 18.0082 2.86674 17.8754C2.86558 17.7426 2.89088 17.611 2.94117 17.4881C2.99145 17.3652 3.0657 17.2535 3.15959 17.1596C3.25349 17.0657 3.36514 16.9915 3.48803 16.9412C3.61093 16.8909 3.74261 16.8656 3.87539 16.8668C4.00817 16.8679 4.13939 16.8955 4.26139 16.9479C4.3834 17.0003 4.49374 17.0765 4.58599 17.172L4.99999 17.586V6.41401L4.58599 6.82801C4.39739 7.01017 4.14478 7.11096 3.88259 7.10869C3.62039 7.10641 3.36958 7.00124 3.18417 6.81583C2.99876 6.63042 2.89359 6.37961 2.89131 6.11741C2.88903 5.85522 2.98983 5.60261 3.17199 5.41401L5.29199 3.29301C5.38486 3.20004 5.49515 3.12628 5.61655 3.07595C5.73794 3.02563 5.86807 2.99973 5.99949 2.99973C6.1309 2.99973 6.26103 3.02563 6.38243 3.07595C6.50383 3.12628 6.61411 3.20004 6.70699 3.29301ZM20 18C20.2549 18.0003 20.5 18.0979 20.6854 18.2729C20.8707 18.4478 20.9822 18.687 20.9972 18.9414C21.0121 19.1958 20.9293 19.4464 20.7657 19.6418C20.6021 19.8373 20.3701 19.9629 20.117 19.993L20 20H12C11.7451 19.9997 11.5 19.9021 11.3146 19.7272C11.1293 19.5522 11.0178 19.3131 11.0028 19.0586C10.9879 18.8042 11.0707 18.5536 11.2343 18.3582C11.3978 18.1627 11.6299 18.0371 11.883 18.007L12 18H20ZM20 11C20.2549 11.0003 20.5 11.0979 20.6854 11.2729C20.8707 11.4478 20.9822 11.687 20.9972 11.9414C21.0121 12.1958 20.9293 12.4464 20.7657 12.6418C20.6021 12.8373 20.3701 12.9629 20.117 12.993L20 13H12C11.7451 12.9997 11.5 12.9021 11.3146 12.7272C11.1293 12.5522 11.0178 12.3131 11.0028 12.0586C10.9879 11.8042 11.0707 11.5536 11.2343 11.3582C11.3978 11.1627 11.6299 11.0371 11.883 11.007L12 11H20ZM20 4.00001C20.2652 4.00001 20.5196 4.10537 20.7071 4.29291C20.8946 4.48044 21 4.7348 21 5.00001C21 5.26523 20.8946 5.51958 20.7071 5.70712C20.5196 5.89465 20.2652 6.00001 20 6.00001H12C11.7348 6.00001 11.4804 5.89465 11.2929 5.70712C11.1053 5.51958 11 5.26523 11 5.00001C11 4.7348 11.1053 4.48044 11.2929 4.29291C11.4804 4.10537 11.7348 4.00001 12 4.00001H20Z" fill="currentColor"/>
</svg>
