<svg width="24" height="24" viewBox="0 0 24 24" fill="none" xmlns="http://www.w3.org/2000/svg">
<path fill-rule="evenodd" clip-rule="evenodd" d="M4 11.5C4 8.073 7.403 5 12 5C16.597 5 20 8.073 20 11.5C20 13.185 19.086 14.813 17.449 16.317C16.079 17.575 14.268 18.681 12.285 19.579C12.2275 19.1486 12.0707 18.7374 11.827 18.378C11.464 17.863 10.907 17.511 10.172 17.382C6.435 16.73 4 14.4 4 11.5ZM12 3C6.656 3 2 6.643 2 11.5C2 15.74 5.549 18.606 9.828 19.352C10.195 19.416 10.287 19.638 10.321 19.987C10.368 20.453 10.266 20.951 10.474 21.387C10.723 21.909 11.337 22.142 11.871 21.928C14.442 20.9 16.934 19.505 18.801 17.79C20.664 16.08 22 13.957 22 11.5C22 6.643 17.344 3 12 3ZM12.268 9.36C12.1364 9.20222 11.9594 9.0888 11.7611 9.03515C11.5628 8.9815 11.3528 8.99023 11.1596 9.06016C10.9664 9.13009 10.7995 9.25781 10.6815 9.42597C10.5635 9.59413 10.5001 9.79456 10.5 10V13C10.5 13.2652 10.6054 13.5196 10.7929 13.7071C10.9804 13.8946 11.2348 14 11.5 14C11.7652 14 12.0196 13.8946 12.2071 13.7071C12.3946 13.5196 12.5 13.2652 12.5 13V12.762L13.232 13.64C13.3636 13.7978 13.5406 13.9112 13.7389 13.9649C13.9372 14.0185 14.1472 14.0098 14.3404 13.9398C14.5336 13.8699 14.7005 13.7422 14.8185 13.574C14.9365 13.4059 14.9999 13.2054 15 13V10C15 9.73478 14.8946 9.48043 14.7071 9.29289C14.5196 9.10536 14.2652 9 14 9C13.7348 9 13.4804 9.10536 13.2929 9.29289C13.1054 9.48043 13 9.73478 13 10V10.238L12.268 9.36ZM7 10C7 9.73478 6.89464 9.48043 6.70711 9.29289C6.51957 9.10536 6.26522 9 6 9C5.73478 9 5.48043 9.10536 5.29289 9.29289C5.10536 9.48043 5 9.73478 5 10V13C5 13.2652 5.10536 13.5196 5.29289 13.7071C5.48043 13.8946 5.73478 14 6 14H7C7.26522 14 7.51957 13.8946 7.70711 13.7071C7.89464 13.5196 8 13.2652 8 13C8 12.7348 7.89464 12.4804 7.70711 12.2929C7.51957 12.1054 7.26522 12 7 12V10ZM9 9C9.26522 9 9.51957 9.10536 9.70711 9.29289C9.89464 9.48043 10 9.73478 10 10V13C10 13.2652 9.89464 13.5196 9.70711 13.7071C9.51957 13.8946 9.26522 14 9 14C8.73478 14 8.48043 13.8946 8.29289 13.7071C8.10536 13.5196 8 13.2652 8 13V10C8 9.73478 8.10536 9.48043 8.29289 9.29289C8.48043 9.10536 8.73478 9 9 9ZM18 11H17.866C17.9543 11.1519 18.0008 11.3244 18.0008 11.5C18.0008 11.6756 17.9543 11.8481 17.866 12H18C18.2652 12 18.5196 12.1054 18.7071 12.2929C18.8946 12.4804 19 12.7348 19 13C19 13.2652 18.8946 13.5196 18.7071 13.7071C18.5196 13.8946 18.2652 14 18 14H16.5C16.2348 14 15.9804 13.8946 15.7929 13.7071C15.6054 13.5196 15.5 13.2652 15.5 13V10C15.5 9.73478 15.6054 9.48043 15.7929 9.29289C15.9804 9.10536 16.2348 9 16.5 9H18C18.2652 9 18.5196 9.10536 18.7071 9.29289C18.8946 9.48043 19 9.73478 19 10C19 10.2652 18.8946 10.5196 18.7071 10.7071C18.5196 10.8946 18.2652 11 18 11Z" fill="currentColor"/>
</svg>
