<svg width="24" height="24" viewBox="0 0 24 24" fill="none" xmlns="http://www.w3.org/2000/svg">
<path fill-rule="evenodd" clip-rule="evenodd" d="M17.6574 6.343C16.9146 5.60009 16.0326 5.01078 15.062 4.60871C14.0914 4.20665 13.051 3.99971 12.0004 3.99971C10.9498 3.99971 9.9095 4.20665 8.93887 4.60871C7.96824 5.01078 7.08631 5.60009 6.34343 6.343C6.15411 6.52079 5.90304 6.61795 5.64336 6.61391C5.38367 6.60988 5.13574 6.50497 4.95203 6.32139C4.76832 6.13781 4.66323 5.88995 4.65902 5.63027C4.6548 5.37059 4.75178 5.11945 4.92943 4.93C8.83443 1.025 15.1664 1.025 19.0714 4.93C22.9764 8.835 22.9764 15.167 19.0714 19.072C18.8828 19.2542 18.6302 19.355 18.368 19.3527C18.1058 19.3504 17.855 19.2452 17.6696 19.0598C17.4842 18.8744 17.379 18.6236 17.3768 18.3614C17.3745 18.0992 17.4753 17.8466 17.6574 17.658C18.4003 16.9151 18.9897 16.0332 19.3917 15.0626C19.7938 14.0919 20.0007 13.0516 20.0007 12.001C20.0007 10.9504 19.7938 9.91007 19.3917 8.93944C18.9897 7.96881 18.4003 7.08588 17.6574 6.343ZM3.17043 7.413C3.35796 7.22553 3.61227 7.12021 3.87743 7.12021C4.1426 7.12021 4.39691 7.22553 4.58443 7.413L16.5874 19.416C16.6829 19.5082 16.7591 19.6186 16.8115 19.7406C16.8639 19.8626 16.8915 19.9938 16.8927 20.1266C16.8938 20.2594 16.8685 20.3911 16.8183 20.514C16.768 20.6369 16.6937 20.7485 16.5998 20.8424C16.5059 20.9363 16.3943 21.0105 16.2714 21.0608C16.1485 21.1111 16.0168 21.1364 15.884 21.1353C15.7513 21.1341 15.62 21.1065 15.498 21.0541C15.376 21.0017 15.2657 20.9255 15.1734 20.83L3.17043 8.827C3.07746 8.73413 3.0037 8.62384 2.95338 8.50244C2.90305 8.38104 2.87715 8.25092 2.87715 8.1195C2.87715 7.98809 2.90305 7.85796 2.95338 7.73656C3.0037 7.61516 3.07746 7.50587 3.17043 7.413ZM2.30743 10.792C2.49496 10.6045 2.74927 10.4992 3.01443 10.4992C3.2796 10.4992 3.53391 10.6045 3.72143 10.792L13.2084 20.279C13.3906 20.4676 13.4914 20.7202 13.4891 20.9824C13.4868 21.2446 13.3817 21.4954 13.1963 21.6808C13.0108 21.8662 12.76 21.9714 12.4978 21.9737C12.2356 21.976 11.983 21.8752 11.7944 21.693L2.30743 12.206C2.11996 12.0185 2.01465 11.7642 2.01465 11.499C2.01465 11.2338 2.11996 10.9795 2.30743 10.792ZM2.80743 15.536C2.90031 15.443 3.0106 15.3693 3.13199 15.3189C3.25339 15.2686 3.38352 15.2427 3.51493 15.2427C3.64635 15.2427 3.77648 15.2686 3.89788 15.3189C4.01927 15.3693 4.12956 15.443 4.22243 15.536L8.46443 19.778C8.55994 19.8702 8.63613 19.9806 8.68854 20.1026C8.74095 20.2246 8.76853 20.3558 8.76969 20.4886C8.77084 20.6214 8.74554 20.7531 8.69526 20.876C8.64498 20.9989 8.57072 21.1105 8.47683 21.2044C8.38294 21.2983 8.27129 21.3725 8.14839 21.4228C8.02549 21.4731 7.89381 21.4984 7.76103 21.4973C7.62825 21.4961 7.49703 21.4685 7.37503 21.4161C7.25303 21.3637 7.14268 21.2875 7.05044 21.192L2.80743 16.95C2.61996 16.7625 2.51465 16.5082 2.51465 16.243C2.51465 15.9778 2.61996 15.7235 2.80743 15.536Z" fill="currentColor"/>
</svg>
