<svg width="24" height="24" viewBox="0 0 24 24" fill="none" xmlns="http://www.w3.org/2000/svg">
<path fill-rule="evenodd" clip-rule="evenodd" d="M1 10C1 8.67392 1.52678 7.40215 2.46447 6.46447C3.40215 5.52678 4.67392 5 6 5H12C13.3261 5 14.5979 5.52678 15.5355 6.46447C16.4732 7.40215 17 8.67392 17 10C17 11.3261 16.4732 12.5979 15.5355 13.5355C14.5979 14.4732 13.3261 15 12 15C11.7348 15 11.4804 14.8946 11.2929 14.7071C11.1054 14.5196 11 14.2652 11 14C11 13.7348 11.1054 13.4804 11.2929 13.2929C11.4804 13.1054 11.7348 13 12 13C12.7956 13 13.5587 12.6839 14.1213 12.1213C14.6839 11.5587 15 10.7956 15 10C15 9.20435 14.6839 8.44129 14.1213 7.87868C13.5587 7.31607 12.7956 7 12 7H6C5.26896 6.9988 4.56264 7.26457 4.01372 7.74739C3.4648 8.23021 3.11107 8.89685 3.01898 9.62206C2.92688 10.3473 3.10276 11.0812 3.51358 11.6859C3.92439 12.2906 4.54186 12.7244 5.25 12.906C5.50165 12.9769 5.71553 13.1435 5.84583 13.3701C5.97613 13.5968 6.01248 13.8655 5.94711 14.1186C5.88173 14.3717 5.71982 14.5892 5.49607 14.7244C5.27231 14.8596 5.0045 14.9018 4.75 14.842C3.67676 14.5645 2.7261 13.9384 2.04734 13.062C1.36857 12.1856 1.00017 11.1085 1 10ZM12 11C11.606 11 11.2159 11.0776 10.8519 11.2284C10.488 11.3791 10.1573 11.6001 9.87868 11.8787C9.6001 12.1573 9.37913 12.488 9.22836 12.8519C9.0776 13.2159 9 13.606 9 14C9 14.394 9.0776 14.7841 9.22836 15.1481C9.37913 15.512 9.6001 15.8427 9.87868 16.1213C10.1573 16.3999 10.488 16.6209 10.8519 16.7716C11.2159 16.9224 11.606 17 12 17H18C18.7304 17.0002 19.4357 16.7341 19.9838 16.2513C20.5319 15.7686 20.8851 15.1025 20.9771 14.378C21.0691 13.6535 20.8937 12.9202 20.4837 12.3158C20.0737 11.7114 19.4572 11.2773 18.75 11.095C18.4931 11.0287 18.2731 10.8631 18.1384 10.6346C18.0036 10.406 17.9652 10.1334 18.0315 9.8765C18.0978 9.61964 18.2634 9.39964 18.4919 9.26489C18.7205 9.13015 18.9931 9.0917 19.25 9.158C20.4259 9.46477 21.45 10.1892 22.1308 11.1958C22.8116 12.2025 23.1026 13.4226 22.9495 14.6282C22.7964 15.8338 22.2096 16.9425 21.2987 17.747C20.3879 18.5515 19.2153 18.9969 18 19H12C10.6739 19 9.40215 18.4732 8.46447 17.5355C7.52678 16.5979 7 15.3261 7 14C7 12.6739 7.52678 11.4021 8.46447 10.4645C9.40215 9.52678 10.6739 9 12 9C12.2652 9 12.5196 9.10536 12.7071 9.29289C12.8946 9.48043 13 9.73478 13 10C13 10.2652 12.8946 10.5196 12.7071 10.7071C12.5196 10.8946 12.2652 11 12 11Z" fill="currentColor"/>
</svg>
