<svg width="24" height="24" viewBox="0 0 24 24" fill="none" xmlns="http://www.w3.org/2000/svg">
<path fill-rule="evenodd" clip-rule="evenodd" d="M11.9999 2C13.0608 2 14.0782 2.42143 14.8283 3.17157C15.5785 3.92172 15.9999 4.93913 15.9999 6V7C15.9999 8.224 16.5349 9.31 17.1559 10.334L17.4459 10.802L17.9579 11.607C18.3809 12.282 18.7759 12.982 18.9699 13.757C19.2319 14.803 19.2449 15.914 18.8949 16.941L18.9749 17.237L19.9149 17.78C20.0624 17.8653 20.1857 17.9868 20.273 18.1331C20.3604 18.2793 20.4089 18.4455 20.414 18.6158C20.4191 18.7861 20.3807 18.9549 20.3022 19.1061C20.2238 19.2574 20.108 19.3861 19.9659 19.48L16.6509 21.67C16.4303 21.8156 16.1804 21.911 15.9189 21.9496C15.6574 21.9882 15.3907 21.969 15.1374 21.8934C14.8841 21.8178 14.6505 21.6877 14.4529 21.512C14.2554 21.3364 14.0987 21.1197 13.9939 20.877C13.5687 20.9583 13.1368 20.9995 12.7039 21H12.2969C11.8789 21 11.4599 20.96 11.0469 20.885C10.8884 21.2502 10.6139 21.553 10.2659 21.7465C9.91787 21.9399 9.51579 22.0132 9.12191 21.955L5.19191 21.373C5.0233 21.3479 4.86389 21.2802 4.72882 21.1762C4.59375 21.0722 4.48751 20.9354 4.42018 20.7788C4.35285 20.6222 4.32667 20.451 4.34412 20.2815C4.36158 20.1119 4.42209 19.9496 4.51991 19.81L5.14291 18.92L4.96891 17.936C4.94603 17.8066 4.94885 17.674 4.97723 17.5458C5.00561 17.4175 5.05898 17.2961 5.13429 17.1885C5.2096 17.0808 5.30539 16.9891 5.41616 16.9185C5.52694 16.8479 5.65055 16.7998 5.77991 16.777L6.03891 16.732C5.75491 15.764 5.78691 14.731 6.02891 13.758C6.22791 12.965 6.56491 12.298 6.88691 11.737L7.15491 11.28C7.57691 10.575 7.99991 9.847 7.99991 9V6C7.99991 4.93913 8.42134 3.92172 9.17148 3.17157C9.92163 2.42143 10.939 2 11.9999 2ZM8.09491 18.18C7.97571 18.3149 7.82231 18.4151 7.65091 18.47L7.52091 18.502L7.11191 18.573L7.18391 18.981C7.21507 19.1583 7.1978 19.3407 7.13391 19.509L7.07891 19.631L9.03691 19.921L8.09491 18.18ZM17.0429 17.755L16.6429 17.862L16.5099 17.888C16.3769 17.9047 16.2419 17.8945 16.1129 17.858L15.9869 17.814L15.8679 19.79L17.5199 18.7L17.4179 18.612C17.3218 18.5182 17.2457 18.4059 17.1939 18.282L17.1499 18.155L17.0429 17.755ZM14.5789 9.723C14.2701 10.0188 13.9431 10.295 13.5999 10.55C13.2139 10.84 12.8309 11.092 12.4999 11.297L12.1289 11.52C11.9049 11.65 11.6789 11.778 11.4489 11.894C11.261 11.988 11.0482 12.0205 10.8408 11.9869C10.6333 11.9534 10.4417 11.8555 10.2929 11.707C10.1668 11.5778 10.0451 11.4444 9.92791 11.307L9.72191 11.059C9.6835 11.0113 9.6455 10.9633 9.60791 10.915C9.43091 11.344 9.21591 11.725 9.01091 12.075L8.85991 12.329C8.47091 12.985 8.14791 13.53 7.96991 14.242C7.87991 14.604 7.82491 14.984 7.83991 15.358C8.04664 15.276 8.27481 15.2655 8.48822 15.328C8.70164 15.3905 8.88806 15.5225 9.01791 15.703L9.08591 15.812L10.6719 18.741C11.0909 18.88 11.5409 18.967 12.0119 18.992L12.2969 19H12.7029C13.0199 19 13.3289 18.972 13.6269 18.919L13.9199 18.857L14.0869 16.087C14.0964 15.9278 14.1438 15.7731 14.2253 15.6359C14.3067 15.4988 14.4198 15.3831 14.555 15.2985C14.6903 15.2139 14.8438 15.163 15.0028 15.1498C15.1618 15.1367 15.3216 15.1618 15.4689 15.223L15.5849 15.28L16.5249 15.823L17.1349 15.659C17.1979 15.188 17.1449 14.703 17.0299 14.242C16.8889 13.678 16.5839 13.159 16.2649 12.662L15.9479 12.173C15.4429 11.385 14.9429 10.588 14.5789 9.723ZM11.3349 8.125C11.1843 8.10941 11.0322 8.12822 10.8899 8.18L10.7859 8.225L10.3859 8.425L10.5219 8.686C10.7249 9.05433 10.9591 9.40461 11.2219 9.733C11.5619 9.532 11.9819 9.263 12.3999 8.95L12.6759 8.736L12.9379 8.516L11.4749 8.15L11.3349 8.125ZM11.9999 4C11.4695 4 10.9608 4.21071 10.5857 4.58579C10.2106 4.96086 9.99991 5.46957 9.99991 6V6.385C10.6149 6.10763 11.3054 6.04562 11.9599 6.209L13.9999 6.719V6C13.9999 5.46957 13.7892 4.96086 13.4141 4.58579C13.0391 4.21071 12.5303 4 11.9999 4Z" fill="currentColor"/>
</svg>
