<svg width="24" height="24" viewBox="0 0 24 24" fill="none" xmlns="http://www.w3.org/2000/svg">
<path fill-rule="evenodd" clip-rule="evenodd" d="M5 6.556C5 5.34767 5.48001 4.18884 6.33442 3.33442C7.18884 2.48001 8.34767 2 9.556 2C10.353 2 11 2.647 11 3.444V10.268C11.304 10.4435 11.5565 10.696 11.732 11C11.9076 11.3041 12 11.6489 12 12V21C12 21.2652 11.8946 21.5196 11.7071 21.7071C11.5196 21.8946 11.2652 22 11 22H5C4.73478 22 4.48043 21.8946 4.29289 21.7071C4.10536 21.5196 4 21.2652 4 21V12C4.00001 11.6489 4.09243 11.3041 4.26796 11C4.4435 10.696 4.69597 10.4435 5 10.268V6.556ZM7 10H9V4.06C8.43252 4.18666 7.92515 4.50294 7.56157 4.95669C7.19799 5.41044 6.99991 5.97455 7 6.556V10ZM6 12V14H10V12H6ZM10 16H6V20H10V16ZM13 14C13 12.9391 13.4214 11.9217 14.1716 11.1716C14.9217 10.4214 15.9391 10 17 10C18.0609 10 19.0783 10.4214 19.8284 11.1716C20.5786 11.9217 21 12.9391 21 14V21C21 21.2652 20.8946 21.5196 20.7071 21.7071C20.5196 21.8946 20.2652 22 20 22H14C13.7348 22 13.4804 21.8946 13.2929 21.7071C13.1054 21.5196 13 21.2652 13 21V14ZM17 12C16.4696 12 15.9609 12.2107 15.5858 12.5858C15.2107 12.9609 15 13.4696 15 14V20H19V14C19 13.4696 18.7893 12.9609 18.4142 12.5858C18.0391 12.2107 17.5304 12 17 12Z" fill="currentColor"/>
</svg>
