<svg width="24" height="24" viewBox="0 0 24 24" fill="none" xmlns="http://www.w3.org/2000/svg">
<path d="M7.23823 17.013C7.41819 16.8337 7.65967 16.7295 7.91362 16.7218C8.16757 16.714 8.41495 16.8032 8.60551 16.9713C8.79608 17.1393 8.91554 17.3736 8.93963 17.6265C8.96373 17.8794 8.89065 18.132 8.73523 18.333L8.65223 18.427L6.35423 20.725C6.13637 20.9425 5.84588 21.072 5.53845 21.0886C5.23101 21.1052 4.92827 21.0078 4.68823 20.815L4.58623 20.725L3.34923 19.487C3.16989 19.307 3.06576 19.0656 3.05801 18.8116C3.05025 18.5577 3.13945 18.3103 3.30748 18.1197C3.47552 17.9292 3.70979 17.8097 3.96271 17.7856C4.21563 17.7615 4.46824 17.8346 4.66923 17.99L4.76323 18.073L5.47023 18.78L7.23823 17.012V17.013ZM20.0002 18C20.2654 18 20.5198 18.1054 20.7073 18.2929C20.8949 18.4804 21.0002 18.7348 21.0002 19C21.0002 19.2652 20.8949 19.5196 20.7073 19.7071C20.5198 19.8947 20.2654 20 20.0002 20H11.0002C10.735 20 10.4807 19.8947 10.2931 19.7071C10.1056 19.5196 10.0002 19.2652 10.0002 19C10.0002 18.7348 10.1056 18.4804 10.2931 18.2929C10.4807 18.1054 10.735 18 11.0002 18H20.0002ZM8.65223 10.012C8.74521 10.1049 8.81897 10.2152 8.86929 10.3366C8.91962 10.458 8.94552 10.5881 8.94552 10.7195C8.94552 10.8509 8.91962 10.9811 8.86929 11.1024C8.81897 11.2238 8.74521 11.3341 8.65223 11.427L6.35423 13.725C6.23816 13.8411 6.10034 13.9332 5.94866 13.9961C5.79699 14.0589 5.63441 14.0912 5.47023 14.0912C5.30605 14.0912 5.14348 14.0589 4.9918 13.9961C4.84012 13.9332 4.70231 13.8411 4.58623 13.725L3.34923 12.487C3.25372 12.3948 3.17754 12.2844 3.12513 12.1624C3.07272 12.0404 3.04514 11.9092 3.04398 11.7764C3.04283 11.6436 3.06813 11.5119 3.11841 11.3891C3.16869 11.2662 3.24295 11.1545 3.33684 11.0606C3.43073 10.9667 3.54238 10.8925 3.66528 10.8422C3.78818 10.7919 3.91986 10.7666 4.05263 10.7678C4.18541 10.7689 4.31663 10.7965 4.43864 10.8489C4.56064 10.9013 4.67099 10.9775 4.76323 11.073L5.47023 11.78L7.23823 10.013C7.42576 9.82554 7.68007 9.72022 7.94523 9.72022C8.2104 9.72022 8.46471 9.82454 8.65223 10.012ZM20.0002 11C20.2551 11.0003 20.5003 11.0979 20.6856 11.2729C20.8709 11.4478 20.9825 11.687 20.9974 11.9414C21.0123 12.1958 20.9296 12.4464 20.766 12.6418C20.6024 12.8373 20.3703 12.9629 20.1172 12.993L20.0002 13H11.0002C10.7454 12.9995 10.5005 12.9017 10.3153 12.7267C10.1302 12.5516 10.0188 12.3125 10.004 12.0581C9.98921 11.8038 10.0721 11.5533 10.2357 11.358C10.3992 11.1626 10.6312 11.0371 10.8842 11.007L11.0002 11H20.0002ZM7.23823 3.01301C7.41819 2.83366 7.65967 2.72953 7.91362 2.72178C8.16757 2.71403 8.41495 2.80322 8.60551 2.97126C8.79608 3.13929 8.91554 3.37356 8.93963 3.62648C8.96373 3.87941 8.89065 4.13202 8.73523 4.33301L8.65223 4.42701L6.35423 6.72501C6.13637 6.94255 5.84588 7.07203 5.53845 7.08864C5.23101 7.10524 4.92827 7.00781 4.68823 6.81501L4.58623 6.72501L3.34923 5.48701C3.16989 5.30705 3.06576 5.06557 3.05801 4.81162C3.05025 4.55767 3.13945 4.31029 3.30748 4.11973C3.47552 3.92916 3.70979 3.8097 3.96271 3.78561C4.21563 3.76152 4.46824 3.8346 4.66923 3.99001L4.76323 4.07301L5.47023 4.78001L7.23823 3.01301ZM20.0002 4.00001C20.2551 4.00029 20.5003 4.09789 20.6856 4.27286C20.8709 4.44783 20.9825 4.68696 20.9974 4.9414C21.0123 5.19584 20.9296 5.44639 20.766 5.64184C20.6024 5.83729 20.3703 5.9629 20.1172 5.99301L20.0002 6.00001H11.0002C10.7454 5.99947 10.5005 5.9017 10.3153 5.72665C10.1302 5.5516 10.0188 5.31248 10.004 5.05812C9.98921 4.80375 10.0721 4.55333 10.2357 4.35798C10.3992 4.16263 10.6312 4.0371 10.8842 4.00701L11.0002 4.00001H20.0002Z" fill="currentColor"/>
</svg>
