<svg width="24" height="24" viewBox="0 0 24 24" fill="none" xmlns="http://www.w3.org/2000/svg">
<path d="M4 4C3.73478 4 3.48043 4.10536 3.29289 4.29289C3.10536 4.48043 3 4.73478 3 5C3 5.26522 3.10536 5.51957 3.29289 5.70711C3.48043 5.89464 3.73478 6 4 6H12C12.2652 6 12.5196 5.89464 12.7071 5.70711C12.8946 5.51957 13 5.26522 13 5C13 4.73478 12.8946 4.48043 12.7071 4.29289C12.5196 4.10536 12.2652 4 12 4H4ZM20.837 5.606C20.969 5.349 20.775 5.05 20.457 5.023L19.892 4.981L19.428 4.955L18.901 4.935L18.316 4.924H17.706L17.151 4.934L16.647 4.952L15.997 4.988L15.487 5.028C15.191 5.054 15.026 5.326 15.155 5.58L15.305 5.869L15.495 6.215L15.723 6.613C15.763 6.683 15.807 6.755 15.852 6.83L16.14 7.297L16.462 7.793L16.772 8.248C16.822 8.32 16.872 8.389 16.92 8.456L17.194 8.831L17.436 9.149L17.642 9.41C17.825 9.636 18.172 9.645 18.346 9.43L18.672 9.015L18.935 8.665L19.227 8.257C19.38 8.04 19.541 7.803 19.707 7.547L19.863 7.304L20.145 6.847L20.389 6.431L20.497 6.241L20.685 5.896L20.837 5.606ZM20.837 15.606C20.969 15.348 20.775 15.05 20.457 15.023L19.892 14.98L19.428 14.955L18.901 14.935L18.316 14.924H17.706L17.151 14.934L16.647 14.952L16.199 14.975L15.641 15.015C15.5897 15.0188 15.5383 15.0228 15.487 15.027C15.191 15.054 15.026 15.326 15.155 15.58L15.305 15.868L15.495 16.214L15.723 16.613C15.763 16.683 15.807 16.755 15.852 16.83L16.14 17.297L16.3 17.545C16.409 17.715 16.516 17.875 16.62 18.027L16.92 18.456L17.194 18.831L17.436 19.149L17.642 19.409C17.825 19.636 18.172 19.645 18.346 19.43L18.672 19.015L18.935 18.665L19.227 18.257C19.38 18.04 19.541 17.802 19.707 17.547L20.008 17.071L20.272 16.634C20.353 16.494 20.428 16.364 20.497 16.24L20.685 15.896L20.837 15.606ZM3 12C3 11.7348 3.10536 11.4804 3.29289 11.2929C3.48043 11.1054 3.73478 11 4 11H12C12.2652 11 12.5196 11.1054 12.7071 11.2929C12.8946 11.4804 13 11.7348 13 12C13 12.2652 12.8946 12.5196 12.7071 12.7071C12.5196 12.8946 12.2652 13 12 13H4C3.73478 13 3.48043 12.8946 3.29289 12.7071C3.10536 12.5196 3 12.2652 3 12ZM4 18C3.73478 18 3.48043 18.1054 3.29289 18.2929C3.10536 18.4804 3 18.7348 3 19C3 19.2652 3.10536 19.5196 3.29289 19.7071C3.48043 19.8946 3.73478 20 4 20H12C12.2652 20 12.5196 19.8946 12.7071 19.7071C12.8946 19.5196 13 19.2652 13 19C13 18.7348 12.8946 18.4804 12.7071 18.2929C12.5196 18.1054 12.2652 18 12 18H4Z" fill="currentColor"/>
</svg>
