<svg width="24" height="24" viewBox="0 0 24 24" fill="none" xmlns="http://www.w3.org/2000/svg">
<path fill-rule="evenodd" clip-rule="evenodd" d="M7 13C7.50458 12.9998 7.99057 13.1904 8.36055 13.5335C8.73053 13.8766 8.95716 14.3468 8.995 14.85L9 15V18C9.00016 18.5046 8.80959 18.9906 8.4665 19.3605C8.12341 19.7305 7.65316 19.9572 7.15 19.995L7 20H4C3.49542 20.0002 3.00943 19.8096 2.63945 19.4665C2.26947 19.1234 2.04284 18.6532 2.005 18.15L2 18V15C1.99984 14.4954 2.19041 14.0094 2.5335 13.6395C2.87659 13.2695 3.34684 13.0428 3.85 13.005L4 13H7ZM16 17C16.2549 17.0003 16.5 17.0979 16.6854 17.2728C16.8707 17.4478 16.9822 17.687 16.9972 17.9414C17.0121 18.1958 16.9293 18.4464 16.7657 18.6418C16.6021 18.8373 16.3701 18.9629 16.117 18.993L16 19H12C11.7451 18.9997 11.5 18.9021 11.3146 18.7272C11.1293 18.5522 11.0178 18.313 11.0028 18.0586C10.9879 17.8042 11.0707 17.5536 11.2343 17.3582C11.3979 17.1627 11.6299 17.0371 11.883 17.007L12 17H16ZM7 15H4V18H7V15ZM20 13C20.2652 13 20.5196 13.1054 20.7071 13.2929C20.8946 13.4804 21 13.7348 21 14C21 14.2652 20.8946 14.5196 20.7071 14.7071C20.5196 14.8946 20.2652 15 20 15H12C11.7348 15 11.4804 14.8946 11.2929 14.7071C11.1054 14.5196 11 14.2652 11 14C11 13.7348 11.1054 13.4804 11.2929 13.2929C11.4804 13.1054 11.7348 13 12 13H20ZM7 3C7.53043 3 8.03914 3.21071 8.41421 3.58579C8.78929 3.96086 9 4.46957 9 5V8C9 8.53043 8.78929 9.03914 8.41421 9.41421C8.03914 9.78929 7.53043 10 7 10H4C3.46957 10 2.96086 9.78929 2.58579 9.41421C2.21071 9.03914 2 8.53043 2 8V5C2 4.46957 2.21071 3.96086 2.58579 3.58579C2.96086 3.21071 3.46957 3 4 3H7ZM16 7C16.2549 7.00028 16.5 7.09788 16.6854 7.27285C16.8707 7.44782 16.9822 7.68695 16.9972 7.94139C17.0121 8.19584 16.9293 8.44638 16.7657 8.64183C16.6021 8.83729 16.3701 8.9629 16.117 8.993L16 9H12C11.7451 8.99972 11.5 8.90212 11.3146 8.72715C11.1293 8.55218 11.0178 8.31305 11.0028 8.05861C10.9879 7.80416 11.0707 7.55362 11.2343 7.35817C11.3979 7.16271 11.6299 7.0371 11.883 7.007L12 7H16ZM7 5H4V8H7V5ZM20 3C20.2549 3.00028 20.5 3.09788 20.6854 3.27285C20.8707 3.44782 20.9822 3.68695 20.9972 3.94139C21.0121 4.19584 20.9293 4.44638 20.7657 4.64183C20.6021 4.83729 20.3701 4.9629 20.117 4.993L20 5H12C11.7451 4.99972 11.5 4.90212 11.3146 4.72715C11.1293 4.55218 11.0178 4.31305 11.0028 4.05861C10.9879 3.80416 11.0707 3.55362 11.2343 3.35817C11.3979 3.16271 11.6299 3.0371 11.883 3.007L12 3H20Z" fill="currentColor"/>
</svg>
