<svg width="24" height="24" viewBox="0 0 24 24" fill="none" xmlns="http://www.w3.org/2000/svg">
<path d="M5.43597 16.72C5.70067 16.7204 5.96031 16.7926 6.18732 16.9287C6.41434 17.0648 6.60026 17.2599 6.72536 17.4931C6.85045 17.7264 6.91006 17.9892 6.89784 18.2536C6.88562 18.5181 6.80204 18.7742 6.65597 18.995C6.80204 19.2157 6.88562 19.4719 6.89784 19.7363C6.91006 20.0007 6.85045 20.2635 6.72536 20.4968C6.60026 20.7301 6.41434 20.9251 6.18732 21.0613C5.96031 21.1974 5.70067 21.2695 5.43597 21.27C4.78597 21.27 4.27297 20.992 4.00897 20.369C3.97257 20.29 3.95241 20.2044 3.94967 20.1175C3.94693 20.0305 3.96168 19.9439 3.99304 19.8628C4.0244 19.7816 4.07173 19.7076 4.13223 19.645C4.19272 19.5825 4.26516 19.5328 4.34523 19.4988C4.42531 19.4648 4.5114 19.4472 4.5984 19.447C4.6854 19.4469 4.77154 19.4643 4.85171 19.498C4.93189 19.5318 5.00447 19.5813 5.06515 19.6437C5.12583 19.706 5.17337 19.7799 5.20497 19.861C5.21872 19.8933 5.24171 19.9209 5.27105 19.9403C5.30039 19.9597 5.3348 19.97 5.36997 19.97C5.47897 19.97 5.59997 19.94 5.59997 19.803C5.59997 19.703 5.52697 19.66 5.44397 19.649L5.39297 19.645C5.22876 19.6452 5.07055 19.5833 4.95014 19.4716C4.82973 19.36 4.75604 19.2069 4.74389 19.0431C4.73173 18.8793 4.782 18.7171 4.8846 18.5888C4.9872 18.4606 5.13453 18.376 5.29697 18.352L5.39297 18.345C5.49497 18.345 5.59997 18.308 5.59997 18.187C5.59997 18.05 5.47997 18.02 5.36997 18.02C5.33486 18.0202 5.30059 18.0308 5.27143 18.0503C5.24227 18.0699 5.2195 18.0976 5.20597 18.13C5.13847 18.2887 5.01068 18.4141 4.85071 18.4786C4.69075 18.5432 4.5117 18.5415 4.35297 18.474C4.19424 18.4065 4.06882 18.2787 4.00431 18.1187C3.93979 17.9588 3.94147 17.7797 4.00897 17.621C4.27297 16.999 4.78597 16.721 5.43597 16.721V16.72ZM20 18C20.2652 18 20.5195 18.1053 20.7071 18.2929C20.8946 18.4804 21 18.7348 21 19C21 19.2652 20.8946 19.5196 20.7071 19.7071C20.5195 19.8946 20.2652 20 20 20H8.99997C8.73475 20 8.4804 19.8946 8.29286 19.7071C8.10533 19.5196 7.99997 19.2652 7.99997 19C7.99997 18.7348 8.10533 18.4804 8.29286 18.2929C8.4804 18.1053 8.73475 18 8.99997 18H20ZM6.07997 9.94498C6.2942 10.0541 6.48015 10.2115 6.62315 10.4048C6.76615 10.5981 6.86229 10.822 6.90398 11.0587C6.94568 11.2955 6.93179 11.5388 6.86341 11.7693C6.79504 11.9998 6.67404 12.2112 6.50997 12.387L5.95597 12.98H6.42597C6.59836 12.98 6.76369 13.0485 6.88559 13.1704C7.00749 13.2923 7.07597 13.4576 7.07597 13.63C7.07597 13.8024 7.00749 13.9677 6.88559 14.0896C6.76369 14.2115 6.59836 14.28 6.42597 14.28H4.57297C4.39943 14.28 4.23297 14.2111 4.11017 14.0885C3.98736 13.9659 3.91823 13.7995 3.91797 13.626C3.91797 13.419 3.94697 13.227 4.09497 13.069L5.55897 11.5C5.66897 11.383 5.64097 11.179 5.49897 11.108C5.36297 11.04 5.24997 11.118 5.22397 11.25L5.21797 11.309C5.21797 11.3943 5.20116 11.4789 5.16849 11.5577C5.13583 11.6366 5.08795 11.7082 5.02759 11.7686C4.96723 11.829 4.89557 11.8768 4.81671 11.9095C4.73785 11.9422 4.65333 11.959 4.56797 11.959C4.17797 11.959 3.91797 11.632 3.91797 11.262C3.91784 11.0076 3.98321 10.7574 4.10779 10.5356C4.23236 10.3138 4.41194 10.1277 4.62924 9.99543C4.84654 9.86312 5.09424 9.78898 5.3485 9.78014C5.60276 9.77131 5.85401 9.82807 6.07997 9.94498ZM20 11C20.2548 11.0003 20.5 11.0979 20.6853 11.2728C20.8707 11.4478 20.9822 11.6869 20.9971 11.9414C21.0121 12.1958 20.9293 12.4464 20.7657 12.6418C20.6021 12.8373 20.3701 12.9629 20.117 12.993L20 13H8.99997C8.74509 12.9997 8.49994 12.9021 8.3146 12.7271C8.12926 12.5522 8.01773 12.313 8.0028 12.0586C7.98786 11.8041 8.07064 11.5536 8.23423 11.3581C8.39782 11.1627 8.62987 11.0371 8.88297 11.007L8.99997 11H20ZM6.14997 3.38998V6.62998C6.14997 6.80237 6.08149 6.9677 5.95959 7.0896C5.83769 7.2115 5.67236 7.27998 5.49997 7.27998C5.32758 7.27998 5.16225 7.2115 5.04035 7.0896C4.91845 6.9677 4.84997 6.80237 4.84997 6.62998V4.52198C4.70371 4.54454 4.55413 4.51652 4.42596 4.44254C4.29779 4.36857 4.1987 4.25307 4.14506 4.11514C4.09143 3.97722 4.08647 3.82512 4.131 3.68399C4.17553 3.54286 4.26689 3.42115 4.38997 3.33898L5.13197 2.84398C5.23061 2.77831 5.34522 2.74062 5.46359 2.73494C5.58195 2.72927 5.69964 2.75581 5.80412 2.81174C5.90859 2.86767 5.99593 2.9509 6.05684 3.05255C6.11774 3.1542 6.14993 3.27048 6.14997 3.38898V3.38998ZM20 3.99998C20.2548 4.00026 20.5 4.09786 20.6853 4.27283C20.8707 4.4478 20.9822 4.68693 20.9971 4.94138C21.0121 5.19582 20.9293 5.44636 20.7657 5.64181C20.6021 5.83727 20.3701 5.96288 20.117 5.99298L20 5.99998H8.99997C8.74509 5.9997 8.49994 5.9021 8.3146 5.72713C8.12926 5.55216 8.01773 5.31303 8.0028 5.05859C7.98786 4.80414 8.07064 4.5536 8.23423 4.35815C8.39782 4.16269 8.62987 4.03708 8.88297 4.00698L8.99997 3.99998H20Z" fill="currentColor"/>
</svg>
