<svg width="24" height="24" viewBox="0 0 24 24" fill="none" xmlns="http://www.w3.org/2000/svg">
<path d="M4 6C3.73478 6 3.48043 5.89464 3.29289 5.70711C3.10536 5.51957 3 5.26522 3 5C3 4.73478 3.10536 4.48043 3.29289 4.29289C3.48043 4.10536 3.73478 4 4 4H12C12.2652 4 12.5196 4.10536 12.7071 4.29289C12.8946 4.48043 13 4.73478 13 5C13 5.26522 12.8946 5.51957 12.7071 5.70711C12.5196 5.89464 12.2652 6 12 6H4ZM20.837 8.394C20.969 8.652 20.775 8.95 20.457 8.977L19.892 9.02L19.428 9.045L18.901 9.065L18.316 9.076H17.706L17.151 9.066L16.647 9.048L16.199 9.025L15.811 9L15.487 8.974C15.191 8.947 15.026 8.675 15.155 8.422L15.305 8.132L15.495 7.787L15.723 7.388C15.763 7.318 15.807 7.246 15.852 7.171L16.14 6.704L16.3 6.456C16.409 6.286 16.516 6.126 16.62 5.974L16.92 5.545L17.194 5.17L17.436 4.852L17.642 4.592C17.825 4.365 18.172 4.356 18.346 4.571L18.672 4.986L18.935 5.336L19.227 5.744C19.38 5.961 19.541 6.199 19.707 6.454L20.008 6.93L20.272 7.367C20.353 7.507 20.428 7.637 20.497 7.761L20.685 8.105L20.837 8.395V8.394ZM20.837 18.394C20.969 18.651 20.775 18.95 20.457 18.977L19.892 19.019L19.428 19.045L18.901 19.065L18.316 19.076H17.706L17.151 19.066L16.647 19.048L16.199 19.025L15.641 18.985C15.5897 18.9808 15.5383 18.9765 15.487 18.972C15.191 18.946 15.026 18.674 15.155 18.42L15.305 18.131L15.495 17.785L15.723 17.387C15.763 17.317 15.807 17.245 15.852 17.17L16.14 16.703L16.462 16.207L16.772 15.752C16.822 15.68 16.872 15.611 16.92 15.544L17.194 15.169L17.436 14.851L17.642 14.59C17.825 14.364 18.172 14.355 18.346 14.57L18.672 14.985L18.935 15.335L19.227 15.743C19.38 15.96 19.541 16.197 19.707 16.453L19.863 16.696L20.145 17.153L20.389 17.569L20.497 17.759L20.685 18.104L20.837 18.394ZM4 20C3.73478 20 3.48043 19.8946 3.29289 19.7071C3.10536 19.5196 3 19.2652 3 19C3 18.7348 3.10536 18.4804 3.29289 18.2929C3.48043 18.1054 3.73478 18 4 18H12C12.2652 18 12.5196 18.1054 12.7071 18.2929C12.8946 18.4804 13 18.7348 13 19C13 19.2652 12.8946 19.5196 12.7071 19.7071C12.5196 19.8946 12.2652 20 12 20H4ZM3 12C3 12.2652 3.10536 12.5196 3.29289 12.7071C3.48043 12.8946 3.73478 13 4 13H12C12.2652 13 12.5196 12.8946 12.7071 12.7071C12.8946 12.5196 13 12.2652 13 12C13 11.7348 12.8946 11.4804 12.7071 11.2929C12.5196 11.1054 12.2652 11 12 11H4C3.73478 11 3.48043 11.1054 3.29289 11.2929C3.10536 11.4804 3 11.7348 3 12Z" fill="currentColor"/>
</svg>
