<svg width="24" height="24" viewBox="0 0 24 24" fill="none" xmlns="http://www.w3.org/2000/svg">
<path d="M4.5 17.5C4.89782 17.5 5.27936 17.658 5.56066 17.9393C5.84196 18.2206 6 18.6022 6 19C6 19.3978 5.84196 19.7794 5.56066 20.0607C5.27936 20.342 4.89782 20.5 4.5 20.5C4.10218 20.5 3.72064 20.342 3.43934 20.0607C3.15804 19.7794 3 19.3978 3 19C3 18.6022 3.15804 18.2206 3.43934 17.9393C3.72064 17.658 4.10218 17.5 4.5 17.5ZM20 18C20.2652 18 20.5196 18.1054 20.7071 18.2929C20.8946 18.4804 21 18.7348 21 19C21 19.2652 20.8946 19.5196 20.7071 19.7071C20.5196 19.8946 20.2652 20 20 20H9C8.73478 20 8.48043 19.8946 8.29289 19.7071C8.10536 19.5196 8 19.2652 8 19C8 18.7348 8.10536 18.4804 8.29289 18.2929C8.48043 18.1054 8.73478 18 9 18H20ZM4.5 10.5C4.89782 10.5 5.27936 10.658 5.56066 10.9393C5.84196 11.2206 6 11.6022 6 12C6 12.3978 5.84196 12.7794 5.56066 13.0607C5.27936 13.342 4.89782 13.5 4.5 13.5C4.10218 13.5 3.72064 13.342 3.43934 13.0607C3.15804 12.7794 3 12.3978 3 12C3 11.6022 3.15804 11.2206 3.43934 10.9393C3.72064 10.658 4.10218 10.5 4.5 10.5ZM20 11C20.2549 11.0003 20.5 11.0979 20.6854 11.2728C20.8707 11.4478 20.9822 11.687 20.9972 11.9414C21.0121 12.1958 20.9293 12.4464 20.7657 12.6418C20.6021 12.8373 20.3701 12.9629 20.117 12.993L20 13H9C8.74512 12.9997 8.49997 12.9021 8.31463 12.7272C8.1293 12.5522 8.01776 12.313 8.00283 12.0586C7.98789 11.8042 8.07067 11.5536 8.23426 11.3582C8.39785 11.1627 8.6299 11.0371 8.883 11.007L9 11H20ZM4.5 3.5C4.89782 3.5 5.27936 3.65804 5.56066 3.93934C5.84196 4.22064 6 4.60218 6 5C6 5.39782 5.84196 5.77936 5.56066 6.06066C5.27936 6.34196 4.89782 6.5 4.5 6.5C4.10218 6.5 3.72064 6.34196 3.43934 6.06066C3.15804 5.77936 3 5.39782 3 5C3 4.60218 3.15804 4.22064 3.43934 3.93934C3.72064 3.65804 4.10218 3.5 4.5 3.5ZM20 4C20.2549 4.00028 20.5 4.09788 20.6854 4.27285C20.8707 4.44782 20.9822 4.68695 20.9972 4.94139C21.0121 5.19584 20.9293 5.44638 20.7657 5.64183C20.6021 5.83729 20.3701 5.9629 20.117 5.993L20 6H9C8.74512 5.99972 8.49997 5.90212 8.31463 5.72715C8.1293 5.55218 8.01776 5.31305 8.00283 5.05861C7.98789 4.80416 8.07067 4.55362 8.23426 4.35817C8.39785 4.16271 8.6299 4.0371 8.883 4.007L9 4H20Z" fill="currentColor"/>
</svg>
