<svg width="24" height="24" viewBox="0 0 24 24" fill="none" xmlns="http://www.w3.org/2000/svg">
<path fill-rule="evenodd" clip-rule="evenodd" d="M16.95 2.58599C17.1375 2.77352 17.2428 3.02783 17.2428 3.29299C17.2428 3.55816 17.1375 3.81246 16.95 3.99999L13.95 6.99999H19C19.5304 6.99999 20.0391 7.21071 20.4142 7.58578C20.7893 7.96085 21 8.46956 21 8.99999V19C21 19.5304 20.7893 20.0391 20.4142 20.4142C20.0391 20.7893 19.5304 21 19 21H5C4.46957 21 3.96086 20.7893 3.58579 20.4142C3.21071 20.0391 3 19.5304 3 19V8.99999C3 8.46956 3.21071 7.96085 3.58579 7.58578C3.96086 7.21071 4.46957 6.99999 5 6.99999H8.636L7.05 5.41399C6.86249 5.22635 6.7572 4.97191 6.7573 4.70664C6.75739 4.44137 6.86286 4.187 7.0505 3.99949C7.23814 3.81198 7.49258 3.7067 7.75785 3.70679C8.02312 3.70688 8.27749 3.81235 8.465 3.99999L10.939 6.47499C11.0328 6.56873 11.1599 6.62139 11.2925 6.62139C11.4251 6.62139 11.5522 6.56873 11.646 6.47499L15.536 2.58499C15.7235 2.39752 15.9778 2.29221 16.243 2.29221C16.5082 2.29221 16.7625 2.39852 16.95 2.58599ZM19 8.99999H5V19H19V8.99999ZM8.98 11.547C9.00105 11.3547 9.06708 11.1701 9.17275 11.008C9.27842 10.846 9.42076 10.7111 9.58824 10.6144C9.75572 10.5176 9.94365 10.4616 10.1368 10.4509C10.3299 10.4403 10.5229 10.4752 10.7 10.553C11.117 10.735 11.911 11.104 12.9 11.676C13.892 12.248 14.608 12.751 14.975 13.022C15.643 13.516 15.645 14.511 14.975 15.006C14.3086 15.4919 13.6159 15.9406 12.9 16.35C11.903 16.926 11.115 17.293 10.7 17.474C10.523 17.552 10.3301 17.5871 10.1369 17.5766C9.94375 17.5661 9.75578 17.5103 9.58826 17.4135C9.42073 17.3168 9.27835 17.182 9.17267 17.02C9.06699 16.8579 9.00098 16.6733 8.98 16.481C8.89223 15.6616 8.8495 14.838 8.852 14.014C8.852 12.874 8.93 12 8.98 11.547ZM10.882 12.853C10.8422 13.6258 10.8422 14.4002 10.882 15.173C11.5704 14.8203 12.2406 14.4332 12.89 14.013C12.241 13.5922 11.5708 13.205 10.882 12.853Z" fill="currentColor"/>
</svg>
