<svg width="24" height="24" viewBox="0 0 24 24" fill="none" xmlns="http://www.w3.org/2000/svg">
<path fill-rule="evenodd" clip-rule="evenodd" d="M3 5C3 4.46957 3.21071 3.96086 3.58579 3.58579C3.96086 3.21071 4.46957 3 5 3H7C7.26522 3 7.51957 3.10536 7.70711 3.29289C7.89464 3.48043 8 3.73478 8 4C8 4.26522 7.89464 4.51957 7.70711 4.70711C7.51957 4.89464 7.26522 5 7 5H5V7C5 7.26522 4.89464 7.51957 4.70711 7.70711C4.51957 7.89464 4.26522 8 4 8C3.73478 8 3.48043 7.89464 3.29289 7.70711C3.10536 7.51957 3 7.26522 3 7V5ZM3 19C3 19.5304 3.21071 20.0391 3.58579 20.4142C3.96086 20.7893 4.46957 21 5 21H7C7.26522 21 7.51957 20.8946 7.70711 20.7071C7.89464 20.5196 8 20.2652 8 20C8 19.7348 7.89464 19.4804 7.70711 19.2929C7.51957 19.1054 7.26522 19 7 19H5V17C5 16.7348 4.89464 16.4804 4.70711 16.2929C4.51957 16.1054 4.26522 16 4 16C3.73478 16 3.48043 16.1054 3.29289 16.2929C3.10536 16.4804 3 16.7348 3 17V19ZM19 3C19.5304 3 20.0391 3.21071 20.4142 3.58579C20.7893 3.96086 21 4.46957 21 5V7C21 7.26522 20.8946 7.51957 20.7071 7.70711C20.5196 7.89464 20.2652 8 20 8C19.7348 8 19.4804 7.89464 19.2929 7.70711C19.1054 7.51957 19 7.26522 19 7V5H17C16.7348 5 16.4804 4.89464 16.2929 4.70711C16.1054 4.51957 16 4.26522 16 4C16 3.73478 16.1054 3.48043 16.2929 3.29289C16.4804 3.10536 16.7348 3 17 3H19ZM21 19C21 19.5304 20.7893 20.0391 20.4142 20.4142C20.0391 20.7893 19.5304 21 19 21H17C16.7348 21 16.4804 20.8946 16.2929 20.7071C16.1054 20.5196 16 20.2652 16 20C16 19.7348 16.1054 19.4804 16.2929 19.2929C16.4804 19.1054 16.7348 19 17 19H19V17C19 16.7348 19.1054 16.4804 19.2929 16.2929C19.4804 16.1054 19.7348 16 20 16C20.2652 16 20.5196 16.1054 20.7071 16.2929C20.8946 16.4804 21 16.7348 21 17V19ZM16.955 8.358C17.0337 8.17431 17.0556 7.97126 17.0178 7.77503C16.9799 7.5788 16.8842 7.39839 16.7429 7.25709C16.6016 7.11578 16.4212 7.02005 16.225 6.98225C16.0287 6.94445 15.8257 6.9663 15.642 7.045L5.742 11.288C5.54838 11.3713 5.38601 11.5136 5.27809 11.6946C5.17017 11.8757 5.12222 12.0862 5.14107 12.2961C5.15992 12.506 5.24462 12.7046 5.38307 12.8635C5.52152 13.0225 5.70664 13.1336 5.912 13.181L9.898 14.101L10.818 18.088C10.8652 18.2937 10.9762 18.4792 11.1352 18.618C11.2943 18.7567 11.4931 18.8416 11.7033 18.8605C11.9135 18.8793 12.1243 18.8312 12.3055 18.723C12.4866 18.6148 12.6289 18.452 12.712 18.258L16.955 8.358ZM10.957 12.293L9.343 11.921L14.132 9.868L12.079 14.658L11.706 13.043C11.664 12.8604 11.5715 12.6932 11.439 12.5606C11.3066 12.428 11.1396 12.3353 10.957 12.293Z" fill="currentColor"/>
</svg>
