<svg width="24" height="24" viewBox="0 0 24 24" fill="none" xmlns="http://www.w3.org/2000/svg">
<path fill-rule="evenodd" clip-rule="evenodd" d="M2 11C2.00016 9.56238 2.3447 8.14571 3.00479 6.86859C3.66489 5.59146 4.62132 4.49105 5.79402 3.65947C6.96672 2.82788 8.32158 2.28933 9.74516 2.08889C11.1687 1.88844 12.6196 2.03194 13.9764 2.50738C15.3331 2.98281 16.5562 3.77634 17.5433 4.82154C18.5304 5.86673 19.2527 7.13318 19.6498 8.51487C20.0469 9.89656 20.1073 11.3533 19.8258 12.7631C19.5443 14.1729 18.9292 15.4947 18.032 16.618L21.707 20.293C21.8892 20.4816 21.99 20.7342 21.9877 20.9964C21.9854 21.2586 21.8802 21.5094 21.6948 21.6948C21.5094 21.8802 21.2586 21.9854 20.9964 21.9877C20.7342 21.99 20.4816 21.8892 20.293 21.707L16.618 18.032C15.2939 19.09 13.6979 19.7526 12.0138 19.9435C10.3297 20.1344 8.62586 19.8459 7.0985 19.1112C5.57113 18.3764 4.28228 17.2253 3.38029 15.7904C2.47831 14.3554 1.99985 12.6949 2 11ZM11 4C9.23459 3.99856 7.53382 4.66422 6.23842 5.86365C4.94303 7.06308 4.14868 8.70769 4.0145 10.468C3.88033 12.2283 4.41625 13.9743 5.51489 15.3562C6.61353 16.7381 8.19376 17.6539 9.939 17.92C8.40098 17.4942 7.06533 16.5337 6.17224 15.2111C5.27916 13.8885 4.88726 12.2907 5.067 10.705C5.23199 9.2389 5.97262 7.89838 7.12596 6.97833C8.27931 6.05829 9.75089 5.63407 11.217 5.799C11.8239 5.86715 12.4115 6.05419 12.9461 6.34945C13.4808 6.6447 13.952 7.04239 14.3329 7.51979C14.7139 7.9972 14.997 8.54497 15.1662 9.13181C15.3354 9.71866 15.3873 10.3331 15.319 10.94C15.2029 11.9728 14.6815 12.9172 13.8694 13.5656C13.0572 14.2141 12.0208 14.5135 10.988 14.398C10.552 14.3504 10.1297 14.2171 9.74528 14.0059C9.36088 13.7948 9.02193 13.5098 8.74787 13.1674C8.47381 12.8249 8.27004 12.4318 8.14822 12.0104C8.02641 11.5891 7.98895 11.1478 8.038 10.712C8.12362 9.95597 8.50595 9.26487 9.10095 8.79064C9.69595 8.3164 10.4549 8.09784 11.211 8.183C12.191 8.293 12.921 9.119 12.994 10.053C13.08 11.158 12.249 12 11 12C10.7938 12.0001 10.5926 11.9365 10.4239 11.8178C10.2553 11.6991 10.1275 11.5312 10.058 11.337L10.024 11.218L10.026 11.236C10.048 11.434 10.116 11.626 10.222 11.796L10.309 11.918C10.531 12.195 10.853 12.372 11.209 12.411C11.7153 12.4677 12.2234 12.321 12.6215 12.0032C13.0197 11.6853 13.2752 11.2223 13.332 10.716C13.3709 10.3701 13.3414 10.0199 13.2449 9.68541C13.1485 9.35093 12.9871 9.03873 12.77 8.76664C12.5529 8.49455 12.2843 8.26789 11.9796 8.09963C11.6748 7.93137 11.3399 7.8248 10.994 7.786C10.5289 7.7337 10.058 7.77353 9.6082 7.90323C9.15845 8.03293 8.73865 8.24995 8.37278 8.54191C8.00691 8.83386 7.70213 9.19503 7.47585 9.60478C7.24958 10.0145 7.10623 10.4648 7.054 10.93C6.98429 11.5439 7.03626 12.1656 7.20693 12.7594C7.3776 13.3532 7.66364 13.9075 8.04868 14.3908C8.43373 14.874 8.91023 15.2766 9.45095 15.5755C9.99168 15.8744 10.586 16.0639 11.2 16.133C12.726 16.305 14.541 15.711 15.892 14.633C17.126 13.649 17.789 12.393 17.976 10.728C17.98 10.697 17.985 10.666 17.991 10.636C17.8977 8.84485 17.1205 7.15783 15.8196 5.92303C14.5188 4.68824 12.7936 3.99988 11 4Z" fill="currentColor"/>
</svg>
