<svg width="24" height="24" viewBox="0 0 24 24" fill="none" xmlns="http://www.w3.org/2000/svg">
<path fill-rule="evenodd" clip-rule="evenodd" d="M12 2C17.523 2 22 6.477 22 12C22 17.523 17.523 22 12 22C6.477 22 2 17.523 2 12C2 6.477 6.477 2 12 2ZM12 4C9.87827 4 7.84344 4.84285 6.34315 6.34315C4.84285 7.84344 4 9.87827 4 12C4 14.1217 4.84285 16.1566 6.34315 17.6569C7.84344 19.1571 9.87827 20 12 20C14.1217 20 16.1566 19.1571 17.6569 17.6569C19.1571 16.1566 20 14.1217 20 12C20 9.87827 19.1571 7.84344 17.6569 6.34315C16.1566 4.84285 14.1217 4 12 4ZM13 16C13.2652 16 13.5196 16.1054 13.7071 16.2929C13.8946 16.4804 14 16.7348 14 17C14 17.2652 13.8946 17.5196 13.7071 17.7071C13.5196 17.8946 13.2652 18 13 18H11C10.7348 18 10.4804 17.8946 10.2929 17.7071C10.1054 17.5196 10 17.2652 10 17C10 16.7348 10.1054 16.4804 10.2929 16.2929C10.4804 16.1054 10.7348 16 11 16H13ZM8.5 11C8.69698 11 8.89204 11.0388 9.07403 11.1142C9.25601 11.1896 9.42137 11.3001 9.56066 11.4393C9.69995 11.5786 9.81044 11.744 9.88582 11.926C9.9612 12.108 10 12.303 10 12.5C10 12.697 9.9612 12.892 9.88582 13.074C9.81044 13.256 9.69995 13.4214 9.56066 13.5607C9.42137 13.6999 9.25601 13.8104 9.07403 13.8858C8.89204 13.9612 8.69698 14 8.5 14C8.10218 14 7.72064 13.842 7.43934 13.5607C7.15804 13.2794 7 12.8978 7 12.5C7 12.1022 7.15804 11.7206 7.43934 11.4393C7.72064 11.158 8.10218 11 8.5 11ZM15.5 11C15.697 11 15.892 11.0388 16.074 11.1142C16.256 11.1896 16.4214 11.3001 16.5607 11.4393C16.6999 11.5786 16.8104 11.744 16.8858 11.926C16.9612 12.108 17 12.303 17 12.5C17 12.697 16.9612 12.892 16.8858 13.074C16.8104 13.256 16.6999 13.4214 16.5607 13.5607C16.4214 13.6999 16.256 13.8104 16.074 13.8858C15.892 13.9612 15.697 14 15.5 14C15.1022 14 14.7206 13.842 14.4393 13.5607C14.158 13.2794 14 12.8978 14 12.5C14 12.1022 14.158 11.7206 14.4393 11.4393C14.7206 11.158 15.1022 11 15.5 11Z" fill="currentColor"/>
</svg>
