<svg width="24" height="24" viewBox="0 0 24 24" fill="none" xmlns="http://www.w3.org/2000/svg">
<path fill-rule="evenodd" clip-rule="evenodd" d="M12 4C12.672 4 13.235 4.44 13.599 4.805C14.013 5.22 14.412 5.783 14.759 6.435C15.207 7.28 15.595 8.325 15.813 9.493C16.4171 9.17844 17.0534 8.93032 17.711 8.753C18.204 8.624 18.684 8.553 19.11 8.563C19.48 8.572 20.044 8.645 20.45 9.051C20.871 9.472 20.962 10.098 20.933 10.668C20.905 11.196 20.77 11.806 20.548 12.437C20.2719 13.2091 19.9068 13.9464 19.46 14.634C19.8879 14.7951 20.2997 14.996 20.69 15.234C21.31 15.62 22 16.203 22 17C22 17.355 21.857 17.642 21.731 17.83C21.32 18.45 20.612 18.855 19.954 19.158C18.926 19.631 17.534 20 16 20C14.45 20 13.04 19.624 12 19.137C10.96 19.624 9.55 20 8 20C6.466 20 5.074 19.631 4.046 19.158C3.388 18.855 2.68 18.45 2.269 17.831C2.09937 17.5866 2.00579 17.2975 2 17C2 16.203 2.69 15.62 3.31 15.235C3.70031 14.9967 4.11212 14.7954 4.54 14.634C4.09319 13.9464 3.72806 13.2091 3.452 12.437C3.23 11.806 3.095 11.197 3.067 10.668C3.037 10.098 3.128 9.472 3.55 9.051C3.956 8.645 4.52 8.571 4.89 8.563C5.316 8.553 5.796 8.624 6.289 8.753C6.94656 8.93033 7.58294 9.17845 8.187 9.493C8.38327 8.42651 8.73892 7.39564 9.242 6.435C9.588 5.783 9.987 5.22 10.402 4.805C10.765 4.44 11.327 4 12 4ZM18.145 16.301C17.5247 16.9485 16.8287 17.5189 16.072 18C17.27 17.988 18.35 17.695 19.117 17.342C19.372 17.224 19.579 17.107 19.737 17C19.257 16.676 18.7 16.46 18.145 16.301ZM5.855 16.301C5.3 16.461 4.744 16.676 4.263 17C4.421 17.107 4.628 17.224 4.883 17.342C5.65 17.695 6.73 17.988 7.928 18C7.17123 17.5186 6.47522 16.9479 5.855 16.3V16.301ZM12.183 6.217C12.013 6.047 11.987 6.047 11.817 6.217C11.575 6.46 11.287 6.849 11.008 7.373C10.3471 8.64837 10.0014 10.0636 10 11.5C10.0015 12.9364 10.3471 14.3516 11.008 15.627C11.287 16.151 11.576 16.541 11.818 16.783C11.987 16.953 12.013 16.953 12.183 16.783C12.425 16.541 12.713 16.151 12.992 15.627C13.6529 14.3516 13.9985 12.9364 14 11.5C13.9986 10.0636 13.6529 8.64837 12.992 7.373C12.713 6.849 12.425 6.46 12.183 6.217ZM5.065 10.565C5.08 10.853 5.161 11.269 5.338 11.773C5.692 12.779 6.381 14.003 7.439 15.061C7.9576 15.5782 8.53601 16.0317 9.162 16.412C8.42862 14.9443 8.03231 13.3314 8.002 11.691C7.202 11.181 6.416 10.853 5.783 10.688C5.54829 10.6235 5.30779 10.5823 5.065 10.565ZM18.935 10.565C18.755 10.575 18.513 10.611 18.217 10.688C17.584 10.853 16.798 11.181 15.998 11.691C15.9676 13.3311 15.5713 14.9437 14.838 16.411C15.4639 16.031 16.0423 15.5778 16.561 15.061C17.619 14.003 18.308 12.779 18.661 11.773C18.839 11.269 18.92 10.853 18.935 10.565Z" fill="currentColor"/>
</svg>
