<svg width="24" height="24" viewBox="0 0 24 24" fill="none" xmlns="http://www.w3.org/2000/svg">
<path fill-rule="evenodd" clip-rule="evenodd" d="M14.1248 19.972C13.9028 20.136 13.6618 20.272 13.3968 20.342C12.6508 20.542 11.8358 20.244 11.1238 20.044C6.35081 18.701 3.15381 16.598 2.23681 13.46C1.50481 10.954 2.20881 8.44399 3.75681 6.88399C5.19081 5.43899 7.31681 4.85299 9.49781 5.79199C10.9178 3.88799 13.0528 3.33199 15.0168 3.86699C17.1368 4.44399 19.0008 6.26599 19.6198 8.80199C19.7418 9.29899 19.8018 9.80599 19.8028 10.321C20.0578 10.451 20.2998 10.613 20.5228 10.801C21.6798 11.78 22.2978 13.443 21.9528 15.172C21.5128 17.378 19.4678 18.927 16.5428 20.033C16.0418 20.223 15.4938 20.458 14.9468 20.362C14.6428 20.308 14.3708 20.152 14.1248 19.972ZM4.15681 12.899C3.62181 11.066 4.15981 9.31799 5.17681 8.29299C6.15281 7.30899 7.59981 6.94299 9.19981 7.87899C9.75881 8.20599 10.4798 8.01199 10.7998 7.45099C11.7178 5.83999 13.1538 5.43299 14.4908 5.79699C15.8848 6.17699 17.2248 7.42099 17.6768 9.27599C17.7318 9.49899 17.7688 9.72699 17.7868 9.96099C17.4204 10.0077 17.0631 10.1091 16.7268 10.262C15.6528 9.21499 14.2308 9.00899 12.9768 9.47099C11.5548 9.99399 10.4048 11.346 10.1368 13.089C9.86381 14.874 10.7068 16.614 12.2758 18.287C12.0778 18.237 11.8728 18.177 11.6658 18.119C7.03481 16.816 4.76581 14.984 4.15681 12.899ZM12.1148 13.392C12.2748 12.342 12.9538 11.611 13.6678 11.347C14.3278 11.105 15.0608 11.232 15.6178 12.037C15.7009 12.1569 15.8069 12.2592 15.9297 12.338C16.0525 12.4167 16.1897 12.4703 16.3334 12.4957C16.477 12.5211 16.6243 12.5177 16.7667 12.4859C16.909 12.454 17.0437 12.3942 17.1628 12.31C17.9628 11.743 18.6948 11.875 19.2308 12.328C19.8128 12.82 20.1988 13.74 19.9908 14.781C19.7658 15.911 18.6228 17.109 15.8358 18.162C15.6588 18.229 15.4828 18.301 15.3008 18.354C15.1478 18.241 15.0068 18.114 14.8628 17.991C12.6048 16.048 11.9398 14.531 12.1148 13.391V13.392Z" fill="currentColor"/>
</svg>
