<svg width="24" height="24" viewBox="0 0 24 24" fill="none" xmlns="http://www.w3.org/2000/svg">
<path d="M8.9995 2C9.79515 2 10.5582 2.31607 11.1208 2.87868C11.6834 3.44129 11.9995 4.20435 11.9995 5V12.956L12.0095 12.977C12.032 13.0146 12.0615 13.0476 12.0965 13.074C12.9123 13.7175 13.5074 14.5991 13.799 15.5963C14.0906 16.5936 14.0644 17.6569 13.7238 18.6385C13.3833 19.6202 12.7454 20.4713 11.8988 21.0737C11.0522 21.6761 10.039 21.9998 9 21.9998C7.96098 21.9998 6.94777 21.6761 6.10119 21.0737C5.25462 20.4713 4.61673 19.6202 4.27618 18.6385C3.93564 17.6569 3.90936 16.5936 4.201 15.5963C4.49264 14.5991 5.08771 13.7175 5.9035 13.074C5.92898 13.054 5.95183 13.0308 5.9715 13.005L5.9995 12.955V5C5.9995 4.20435 6.31557 3.44129 6.87818 2.87868C7.44079 2.31607 8.20385 2 8.9995 2ZM8.9995 4C8.73428 4 8.47993 4.10536 8.29239 4.29289C8.10486 4.48043 7.9995 4.73478 7.9995 5V12.958C7.9995 13.633 7.6625 14.184 7.2555 14.548L7.1425 14.644C6.65918 15.0249 6.30467 15.5452 6.12706 16.1344C5.94944 16.7235 5.95731 17.3531 6.14958 17.9376C6.34186 18.5222 6.70925 19.0335 7.20194 19.4022C7.69462 19.7709 8.28877 19.9792 8.90383 19.9987C9.51888 20.0183 10.1251 19.8483 10.6403 19.5118C11.1554 19.1752 11.5546 18.6883 11.7837 18.1172C12.0128 17.5461 12.0607 16.9183 11.921 16.319C11.7813 15.7197 11.4606 15.1779 11.0025 14.767L10.8565 14.644C10.4005 14.284 9.9995 13.694 9.9995 12.958V5C9.9995 4.73478 9.89414 4.48043 9.70661 4.29289C9.51907 4.10536 9.26472 4 8.9995 4ZM10.9995 17C10.9995 17.5304 10.7888 18.0391 10.4137 18.4142C10.0386 18.7893 9.52993 19 8.9995 19C8.46907 19 7.96036 18.7893 7.58529 18.4142C7.21021 18.0391 6.9995 17.5304 6.9995 17H10.9995ZM16.9995 6C17.2444 6.00003 17.4808 6.08996 17.6639 6.25272C17.8469 6.41547 17.9638 6.63975 17.9925 6.883L17.9995 7V8.268L19.0975 7.634C19.3185 7.50542 19.5803 7.46636 19.8292 7.52485C20.0781 7.58334 20.2951 7.73494 20.4357 7.94849C20.5763 8.16205 20.6297 8.42133 20.585 8.67306C20.5404 8.9248 20.401 9.14986 20.1955 9.302L20.0975 9.366L18.9995 10L20.0975 10.634C20.3179 10.7619 20.4811 10.969 20.5539 11.2132C20.6268 11.4573 20.6036 11.7201 20.4893 11.9478C20.3749 12.1754 20.178 12.3509 19.9386 12.4383C19.6993 12.5257 19.4357 12.5184 19.2015 12.418L19.0975 12.366L17.9995 11.732V13C17.9992 13.2549 17.9016 13.5 17.7267 13.6854C17.5517 13.8707 17.3125 13.9822 17.0581 13.9972C16.8037 14.0121 16.5531 13.9293 16.3577 13.7657C16.1622 13.6021 16.0366 13.3701 16.0065 13.117L15.9995 13V11.732L14.9015 12.366C14.6805 12.4946 14.4187 12.5336 14.1698 12.4751C13.9209 12.4167 13.7039 12.2651 13.5633 12.0515C13.4227 11.838 13.3693 11.5787 13.414 11.3269C13.4586 11.0752 13.598 10.8501 13.8035 10.698L13.9015 10.634L14.9995 10L13.9015 9.366C13.68 9.2388 13.5155 9.03165 13.4419 8.78704C13.3683 8.54244 13.3911 8.27894 13.5055 8.05059C13.62 7.82224 13.8176 7.64637 14.0576 7.55905C14.2977 7.47173 14.5621 7.47958 14.7965 7.581L14.9015 7.634L15.9995 8.268V7C15.9995 6.73478 16.1049 6.48043 16.2924 6.29289C16.4799 6.10536 16.7343 6 16.9995 6Z" fill="currentColor"/>
</svg>
