<svg width="24" height="24" viewBox="0 0 24 24" fill="none" xmlns="http://www.w3.org/2000/svg">
<path fill-rule="evenodd" clip-rule="evenodd" d="M16.6116 3.95599C13.8646 2.73499 10.5616 4.23399 10.2316 7.42899C10.076 8.94768 9.99859 10.4734 9.9996 12C9.9996 13.73 10.0966 15.269 10.2306 16.57C10.5606 19.766 13.8646 21.265 16.6116 20.044L16.8366 19.944C18.3733 19.2609 19.6789 18.1469 20.5952 16.7368C21.5115 15.3267 21.9992 13.6811 21.9992 11.9995C21.9992 10.3178 21.5115 8.67227 20.5952 7.2622C19.6789 5.85212 18.3733 4.73805 16.8366 4.05499L16.6116 3.95499V3.95599ZM12.2206 7.63499C12.3906 5.99299 14.1036 5.02999 15.7996 5.78299L16.0246 5.88299C17.2078 6.4089 18.2131 7.26668 18.9187 8.35239C19.6243 9.43811 19.9998 10.7052 19.9998 12C19.9998 13.2948 19.6243 14.5619 18.9187 15.6476C18.2131 16.7333 17.2078 17.5911 16.0246 18.117L15.7996 18.217C14.1036 18.97 12.3896 18.007 12.2196 16.365C12.0716 14.9147 11.9982 13.4578 11.9996 12C11.9996 10.344 12.0936 8.87399 12.2206 7.63499ZM8.3706 6.92799C8.49685 6.88247 8.61265 6.812 8.7111 6.72079C8.80954 6.62957 8.88862 6.51947 8.94361 6.39705C8.99861 6.27463 9.0284 6.14239 9.03121 6.00821C9.03402 5.87404 9.0098 5.74066 8.95998 5.61605C8.91016 5.49143 8.83576 5.37812 8.74123 5.28286C8.64669 5.1876 8.53394 5.11234 8.40971 5.06157C8.28547 5.01081 8.15229 4.98556 8.0181 4.98735C7.8839 4.98914 7.75144 5.01793 7.6286 5.07199L2.6286 7.07199C2.50235 7.11751 2.38655 7.18798 2.28811 7.27919C2.18966 7.37041 2.11059 7.48051 2.05559 7.60293C2.0006 7.72535 1.9708 7.85759 1.96799 7.99177C1.96518 8.12594 1.98941 8.25932 2.03923 8.38393C2.08905 8.50855 2.16344 8.62186 2.25798 8.71712C2.35252 8.81238 2.46526 8.88764 2.5895 8.93841C2.71373 8.98917 2.84691 9.01442 2.98111 9.01263C3.1153 9.01084 3.24777 8.98205 3.3706 8.92799L8.3706 6.92799ZM8.9276 10.628C8.9764 10.7499 9.0007 10.8803 8.99911 11.0116C8.99753 11.1429 8.97009 11.2726 8.91836 11.3934C8.86664 11.5141 8.79165 11.6234 8.69766 11.7152C8.60367 11.8069 8.49254 11.8792 8.3706 11.928L3.3706 13.928C3.24822 13.9791 3.11688 14.0054 2.98423 14.0053C2.85159 14.0052 2.72029 13.9787 2.59799 13.9274C2.47568 13.876 2.36481 13.8009 2.27183 13.7063C2.17885 13.6117 2.10562 13.4995 2.0564 13.3764C2.00718 13.2532 1.98296 13.1215 1.98515 12.9888C1.98734 12.8562 2.01589 12.7253 2.06914 12.6039C2.12239 12.4824 2.19928 12.3727 2.29533 12.2812C2.39138 12.1897 2.50467 12.1183 2.6286 12.071L7.6286 10.071C7.7506 10.0222 7.881 9.99797 8.01237 9.99963C8.14374 10.0013 8.2735 10.0288 8.39422 10.0806C8.51495 10.1324 8.62428 10.2075 8.71598 10.3016C8.80767 10.3957 8.87992 10.507 8.9286 10.629L8.9276 10.628ZM8.3706 16.928C8.6128 16.8268 8.80549 16.6344 8.90708 16.3923C9.00868 16.1503 9.01103 15.878 8.91363 15.6343C8.81623 15.3905 8.6269 15.1948 8.38648 15.0894C8.14607 14.9841 7.87386 14.9774 7.6286 15.071L2.6286 17.071C2.3864 17.1722 2.19372 17.3646 2.09212 17.6066C1.99053 17.8487 1.98818 18.121 2.08557 18.3647C2.18297 18.6085 2.37231 18.8042 2.61272 18.9095C2.85314 19.0149 3.12535 19.0215 3.3706 18.928L8.3706 16.928Z" fill="currentColor"/>
</svg>
