<svg width="24" height="24" viewBox="0 0 24 24" fill="none" xmlns="http://www.w3.org/2000/svg">
<path d="M14 2C14.5046 1.99984 14.9906 2.19041 15.3605 2.5335C15.7305 2.87659 15.9572 3.34684 15.995 3.85L16 4V6H17C17.5046 5.99984 17.9906 6.19041 18.3605 6.5335C18.7305 6.87659 18.9572 7.34684 18.995 7.85L19 8V19C19 19.5304 18.7893 20.0391 18.4142 20.4142C18.0391 20.7893 17.5304 21 17 21C16.9997 21.2549 16.9021 21.5 16.7272 21.6854C16.5522 21.8707 16.313 21.9822 16.0586 21.9972C15.8042 22.0121 15.5536 21.9293 15.3582 21.7657C15.1627 21.6021 15.0371 21.3701 15.007 21.117L15 21H9C9 21.2652 8.89464 21.5196 8.70711 21.7071C8.51957 21.8946 8.26522 22 8 22C7.73478 22 7.48043 21.8946 7.29289 21.7071C7.10536 21.5196 7 21.2652 7 21C6.49542 21.0002 6.00943 20.8096 5.63945 20.4665C5.26947 20.1234 5.04284 19.6532 5.005 19.15L5 19V8C4.99984 7.49542 5.19041 7.00943 5.5335 6.63945C5.87659 6.26947 6.34684 6.04284 6.85 6.005L7 6H8V4C7.99984 3.49542 8.19041 3.00943 8.5335 2.63945C8.87659 2.26947 9.34685 2.04284 9.85 2.005L10 2H14ZM17 8H7V19H17V8ZM10 10C10.2652 10 10.5196 10.1054 10.7071 10.2929C10.8946 10.4804 11 10.7348 11 11V16C11 16.2652 10.8946 16.5196 10.7071 16.7071C10.5196 16.8946 10.2652 17 10 17C9.73478 17 9.48043 16.8946 9.29289 16.7071C9.10536 16.5196 9 16.2652 9 16V11C9 10.7348 9.10536 10.4804 9.29289 10.2929C9.48043 10.1054 9.73478 10 10 10ZM14 10C14.2652 10 14.5196 10.1054 14.7071 10.2929C14.8946 10.4804 15 10.7348 15 11V16C15 16.2652 14.8946 16.5196 14.7071 16.7071C14.5196 16.8946 14.2652 17 14 17C13.7348 17 13.4804 16.8946 13.2929 16.7071C13.1054 16.5196 13 16.2652 13 16V11C13 10.7348 13.1054 10.4804 13.2929 10.2929C13.4804 10.1054 13.7348 10 14 10ZM14 4H10V6H14V4Z" fill="currentColor"/>
</svg>
