<svg width="24" height="24" viewBox="0 0 24 24" fill="none" xmlns="http://www.w3.org/2000/svg">
<path fill-rule="evenodd" clip-rule="evenodd" d="M10.137 6.74L10.305 8.928L10.555 8.762C10.6919 8.67065 10.8041 8.54692 10.8817 8.40178C10.9594 8.25665 11 8.09459 11 7.93V4C11 3.73478 11.1053 3.48043 11.2928 3.29289C11.4804 3.10536 11.7347 3 12 3C12.2652 3 12.5195 3.10536 12.7071 3.29289C12.8946 3.48043 13 3.73478 13 4V7.93C12.9999 8.09459 13.0405 8.25665 13.1182 8.40178C13.1958 8.54692 13.308 8.67065 13.445 8.762L13.695 8.928L13.863 6.739C13.984 5.166 15.795 4.346 17.057 5.293L17.642 5.731C19.1066 6.82929 20.0826 8.45763 20.361 10.267L21.441 17.286C21.799 19.613 19.458 21.426 17.294 20.499L16.238 20.047C15.2784 19.6356 14.4717 18.9342 13.9309 18.041C13.3902 17.1479 13.1427 16.108 13.223 15.067L13.519 11.21C13.4937 11.196 13.469 11.181 13.445 11.165L12.336 10.425C12.218 10.3463 12.1057 10.2595 12 10.165C11.895 10.26 11.783 10.347 11.664 10.425L10.554 11.165C10.5302 11.181 10.5059 11.196 10.481 11.21L10.778 15.068C10.8582 16.1091 10.6104 17.1491 10.0695 18.0423C9.52865 18.9354 8.72171 19.6368 7.76195 20.048L6.70695 20.499C4.54195 21.427 2.20195 19.613 2.55995 17.286L3.63995 10.266C3.91828 8.45715 4.89395 6.82923 6.35795 5.731L6.94295 5.293C8.20495 4.346 10.016 5.167 10.137 6.74ZM8.14295 6.892L7.55795 7.33C6.51186 8.11452 5.81473 9.27761 5.61595 10.57L4.53595 17.589C4.50869 17.7655 4.52921 17.9462 4.59538 18.1121C4.66156 18.278 4.77096 18.4232 4.91224 18.5325C5.05351 18.6418 5.22148 18.7113 5.3987 18.7337C5.57591 18.7561 5.7559 18.7307 5.91995 18.66L6.97495 18.208C7.55088 17.9613 8.03513 17.5405 8.35974 17.0046C8.68436 16.4688 8.83305 15.8447 8.78495 15.22L8.14295 6.892ZM16.442 7.33L15.857 6.892L15.217 15.22C15.1689 15.8447 15.3175 16.4688 15.6422 17.0046C15.9668 17.5405 16.451 17.9613 17.027 18.208L18.081 18.66C18.245 18.7304 18.4248 18.7557 18.6019 18.7332C18.7789 18.7106 18.9468 18.6411 19.0879 18.5318C19.229 18.4225 19.3383 18.2775 19.4044 18.1117C19.4706 17.9459 19.4911 17.7654 19.464 17.589L18.384 10.57C18.1852 9.27761 17.488 8.11452 16.442 7.33Z" fill="currentColor"/>
</svg>
