<svg width="24" height="24" viewBox="0 0 24 24" fill="none" xmlns="http://www.w3.org/2000/svg">
<path fill-rule="evenodd" clip-rule="evenodd" d="M5.4971 3.99698C5.28995 3.94232 5.07209 3.94294 4.86525 3.99878C4.65842 4.05463 4.46985 4.16374 4.31836 4.31523C4.16686 4.46672 4.05775 4.65529 4.00191 4.86213C3.94607 5.06896 3.94544 5.28683 4.0001 5.49398L5.2641 10.284L2.5801 14.45C2.0721 15.24 2.6041 16.284 3.5421 16.337L8.4881 16.615L11.6201 20.453C11.7555 20.619 11.9322 20.7465 12.1323 20.8229C12.3324 20.8993 12.5491 20.9219 12.7607 20.8884C12.9723 20.8549 13.1714 20.7665 13.3382 20.632C13.505 20.4975 13.6335 20.3217 13.7111 20.122L15.1081 16.522L19.7161 21.13C19.9036 21.3176 20.158 21.4231 20.4233 21.4232C20.6885 21.4233 20.943 21.318 21.1306 21.1305C21.3182 20.943 21.4237 20.6886 21.4238 20.4233C21.4239 20.1581 21.3186 19.9036 21.1311 19.716L16.5231 15.108L20.1221 13.711C20.3218 13.6334 20.4977 13.5048 20.6322 13.3381C20.7666 13.1713 20.8551 12.9722 20.8885 12.7606C20.922 12.549 20.8995 12.3323 20.8231 12.1322C20.7466 11.932 20.6191 11.7554 20.4531 11.62L16.6151 8.48698L16.3371 3.54098C16.3249 3.32722 16.2568 3.12041 16.1397 2.94116C16.0226 2.7619 15.8606 2.61646 15.6698 2.51934C15.479 2.42221 15.2661 2.3768 15.0522 2.38761C14.8384 2.39843 14.6311 2.4651 14.4511 2.58098L10.2871 5.25998L5.4971 3.99698ZM7.2851 10.104L6.2731 6.27098L10.1071 7.28198C10.4391 7.36998 10.7931 7.31398 11.0831 7.12798L14.4161 4.98098L14.6391 8.93998C14.6581 9.28298 14.8211 9.60198 15.0871 9.81998L18.1591 12.327L14.4631 13.762C14.1431 13.886 13.8891 14.14 13.7641 14.46L12.3291 18.157L9.8221 15.085C9.71463 14.9531 9.58088 14.8451 9.42937 14.7678C9.27786 14.6905 9.11192 14.6456 8.9421 14.636L4.9831 14.414L7.1301 11.08C7.22202 10.9369 7.28325 10.7762 7.30993 10.6082C7.33661 10.4402 7.32816 10.2685 7.2851 10.104Z" fill="currentColor"/>
</svg>
