<svg width="24" height="24" viewBox="0 0 24 24" fill="none" xmlns="http://www.w3.org/2000/svg">
<path fill-rule="evenodd" clip-rule="evenodd" d="M8.46401 4.222L20.485 16.242C20.6704 16.4308 20.7742 16.6849 20.7742 16.9495C20.7742 17.2141 20.6704 17.4682 20.485 17.657L17.657 20.485C17.4695 20.6725 17.2152 20.7778 16.95 20.7778C16.6848 20.7778 16.4305 20.6725 16.243 20.485L4.22201 8.465C4.0362 8.27927 3.88881 8.05876 3.78825 7.81605C3.68769 7.57335 3.63593 7.31321 3.63593 7.0505C3.63593 6.78779 3.68769 6.52765 3.78825 6.28495C3.88881 6.04224 4.0362 5.82173 4.22201 5.636L5.63601 4.222C6.01106 3.84706 6.51968 3.63643 7.05001 3.63643C7.58033 3.63643 8.08895 3.84706 8.46401 4.222ZM5.00001 11.5C5.44401 11.5 5.75801 11.769 5.95001 12.132L6.00301 12.244C6.29553 12.9222 6.77614 13.5024 7.38801 13.916L7.59801 14.044C7.95601 14.246 8.21801 14.569 8.21801 14.999C8.21801 15.379 8.01501 15.679 7.71801 15.881L7.60301 15.953C6.96334 16.3205 6.44535 16.8674 6.11301 17.526L6.00801 17.746C5.82101 18.168 5.49601 18.5 5.00001 18.5C4.54801 18.5 4.23901 18.226 4.04601 17.859L3.99201 17.746C3.7002 17.0698 3.21969 16.4921 2.60801 16.082L2.40201 15.956C2.04301 15.754 1.78101 15.43 1.78101 14.999C1.78101 14.616 1.98901 14.319 2.28601 14.116L2.40201 14.044C3.03814 13.6781 3.55331 13.1341 3.88401 12.479L3.99701 12.243C4.18001 11.826 4.51001 11.5 5.00001 11.5ZM10.586 9.172L9.17201 10.586L16.95 18.364L18.364 16.95L10.586 9.172ZM17.431 7.402C17.669 6.921 18.231 6.889 18.513 7.305L18.569 7.401C18.785 7.836 19.143 8.205 19.612 8.441C20.106 8.687 20.113 9.311 19.616 9.557C19.2226 9.75256 18.892 10.0547 18.662 10.429L18.572 10.593C18.332 11.079 17.768 11.111 17.487 10.695L17.431 10.599C17.2352 10.2081 16.9329 9.88055 16.559 9.654L16.389 9.56C15.923 9.328 15.892 8.77 16.292 8.497L16.384 8.443C16.7798 8.24695 17.1117 7.94245 17.341 7.565L17.431 7.402ZM7.05101 5.635L5.63501 7.05L7.75601 9.172L9.17101 7.757L7.05001 5.636L7.05101 5.635ZM13.5 2C13.794 2 14.01 2.167 14.154 2.399L14.214 2.509C14.452 2.986 14.832 3.403 15.324 3.696L15.52 3.803C15.795 3.94 16 4.176 16 4.5C16 4.783 15.843 5 15.62 5.14L15.515 5.2C14.995 5.46 14.583 5.854 14.31 6.315L14.21 6.498C14.07 6.782 13.836 7 13.5 7C13.206 7 12.99 6.833 12.846 6.601L12.786 6.491C12.5375 5.99705 12.1522 5.58499 11.676 5.304L11.48 5.197C11.205 5.06 11 4.823 11 4.499C11 4.217 11.157 4 11.38 3.859L11.485 3.801C12.005 3.539 12.417 3.147 12.69 2.685L12.79 2.502C12.93 2.218 13.164 2 13.5 2Z" fill="currentColor"/>
</svg>
