<svg width="24" height="24" viewBox="0 0 24 24" fill="none" xmlns="http://www.w3.org/2000/svg">
<path fill-rule="evenodd" clip-rule="evenodd" d="M6.7509 5.343C6.56229 5.16084 6.30969 5.06005 6.0475 5.06233C5.7853 5.0646 5.53449 5.16977 5.34908 5.35518C5.16367 5.54059 5.0585 5.7914 5.05622 6.0536C5.05394 6.3158 5.15474 6.5684 5.3369 6.757L7.4579 8.88C7.64554 9.06751 7.89998 9.1728 8.16525 9.1727C8.43052 9.17261 8.68489 9.06714 8.8724 8.8795C9.05991 8.69186 9.16519 8.43742 9.1651 8.17215C9.165 7.90688 9.05954 7.65251 8.8719 7.465L6.7519 5.345L6.7509 5.343ZM11.7009 10.293C11.5123 10.1108 11.2597 10.01 10.9975 10.0123C10.7353 10.0146 10.4845 10.1198 10.2991 10.3052C10.1137 10.4906 10.0085 10.7414 10.0062 11.0036C10.0039 11.2658 10.1047 11.5184 10.2869 11.707L19.4789 20.899C19.6675 21.0812 19.9201 21.182 20.1823 21.1797C20.4445 21.1774 20.6953 21.0722 20.8807 20.8868C21.0661 20.7014 21.1713 20.4506 21.1736 20.1884C21.1758 19.9262 21.0751 19.6736 20.8929 19.485L11.7009 10.293ZM16.6509 5.343C16.8384 5.53053 16.9437 5.78484 16.9437 6.05C16.9437 6.31516 16.8384 6.56947 16.6509 6.757L14.5289 8.88C14.436 8.97284 14.3257 9.04648 14.2043 9.0967C14.083 9.14692 13.9529 9.17275 13.8215 9.1727C13.6902 9.17266 13.5601 9.14674 13.4388 9.09643C13.3175 9.04612 13.2072 8.97241 13.1144 8.8795C12.9269 8.69186 12.8216 8.43742 12.8217 8.17215C12.8218 7.90688 12.9273 7.65251 13.1149 7.465L15.2359 5.345C15.3288 5.25202 15.4391 5.17826 15.5605 5.12794C15.6819 5.07762 15.812 5.05171 15.9434 5.05171C16.0748 5.05171 16.2049 5.07762 16.3263 5.12794C16.4477 5.17826 16.558 5.25202 16.6509 5.345V5.343ZM8.8719 14.536C9.05954 14.3485 9.165 14.0941 9.1651 13.8289C9.16519 13.5636 9.05991 13.3091 8.8724 13.1215C8.68489 12.9339 8.43052 12.8284 8.16525 12.8283C7.89998 12.8282 7.64554 12.9335 7.4579 13.121L5.3369 15.243C5.24139 15.3352 5.1652 15.4456 5.1128 15.5676C5.06039 15.6896 5.0328 15.8208 5.03165 15.9536C5.03049 16.0864 5.05579 16.2181 5.10607 16.341C5.15636 16.4639 5.23061 16.5755 5.3245 16.6694C5.41839 16.7633 5.53005 16.8375 5.65294 16.8878C5.77584 16.9381 5.90752 16.9634 6.0403 16.9622C6.17308 16.9611 6.3043 16.9335 6.4263 16.8811C6.54831 16.8287 6.65865 16.7525 6.7509 16.657L8.8719 14.536ZM18.9939 11C18.9939 11.2652 18.8885 11.5196 18.701 11.7071C18.5135 11.8946 18.2591 12 17.9939 12H14.9939C14.7287 12 14.4743 11.8946 14.2868 11.7071C14.0993 11.5196 13.9939 11.2652 13.9939 11C13.9939 10.7348 14.0993 10.4804 14.2868 10.2929C14.4743 10.1054 14.7287 10 14.9939 10H17.9939C18.2591 10 18.5135 10.1054 18.701 10.2929C18.8885 10.4804 18.9939 10.7348 18.9939 11ZM6.9939 12C7.25911 12 7.51347 11.8946 7.701 11.7071C7.88854 11.5196 7.9939 11.2652 7.9939 11C7.9939 10.7348 7.88854 10.4804 7.701 10.2929C7.51347 10.1054 7.25911 10 6.9939 10H3.9939C3.72868 10 3.47433 10.1054 3.28679 10.2929C3.09925 10.4804 2.9939 10.7348 2.9939 11C2.9939 11.2652 3.09925 11.5196 3.28679 11.7071C3.47433 11.8946 3.72868 12 3.9939 12H6.9939ZM10.9939 19C10.7287 19 10.4743 18.8946 10.2868 18.7071C10.0993 18.5196 9.9939 18.2652 9.9939 18V15C9.9939 14.7348 10.0993 14.4804 10.2868 14.2929C10.4743 14.1054 10.7287 14 10.9939 14C11.2591 14 11.5135 14.1054 11.701 14.2929C11.8885 14.4804 11.9939 14.7348 11.9939 15V18C11.9939 18.2652 11.8885 18.5196 11.701 18.7071C11.5135 18.8946 11.2591 19 10.9939 19ZM9.9939 7C9.9939 7.26522 10.0993 7.51957 10.2868 7.70711C10.4743 7.89464 10.7287 8 10.9939 8C11.2591 8 11.5135 7.89464 11.701 7.70711C11.8885 7.51957 11.9939 7.26522 11.9939 7V4C11.9939 3.73478 11.8885 3.48043 11.701 3.29289C11.5135 3.10536 11.2591 3 10.9939 3C10.7287 3 10.4743 3.10536 10.2868 3.29289C10.0993 3.48043 9.9939 3.73478 9.9939 4V7Z" fill="currentColor"/>
</svg>
