<svg width="24" height="24" viewBox="0 0 24 24" fill="none" xmlns="http://www.w3.org/2000/svg">
<path d="M15.541 4.16002C15.6867 4.25384 15.8055 4.38391 15.8858 4.53747C15.9661 4.69104 16.0051 4.86284 15.999 5.03602L15.986 5.16802L15.268 9.39302C15.2222 9.66321 15.2324 9.93994 15.298 10.206L15.357 10.403L17.167 15.453C18.047 15.627 18.827 15.853 19.434 16.13C19.8 16.297 20.158 16.506 20.438 16.776C20.719 17.047 21 17.459 21 18C21 18.848 20.337 19.37 19.88 19.64C19.357 19.949 18.666 20.193 17.9 20.384C16.352 20.771 14.266 21 12 21C9.734 21 7.648 20.771 6.1 20.384C5.334 20.193 4.643 19.949 4.12 19.64C3.663 19.37 3 18.848 3 18C3 17.46 3.28 17.047 3.562 16.776C3.842 16.506 4.2 16.296 4.566 16.13C5.098 15.887 5.761 15.684 6.508 15.52L6.834 15.452L9.294 8.58602C9.55124 7.8677 10.0086 7.23794 10.612 6.77102L10.818 6.62202L14.44 4.17202C14.6021 4.06235 14.7928 4.00265 14.9885 4.00034C15.1843 3.99803 15.3763 4.0542 15.541 4.16002ZM15.423 16.516C14.44 16.83 13.247 17 12 17C10.753 17 9.56 16.83 8.577 16.516L8.522 16.67C8.46202 16.8379 8.35826 16.9866 8.22148 17.1009C8.08469 17.2152 7.91984 17.2908 7.744 17.32C6.707 17.491 5.908 17.716 5.396 17.95C5.296 17.995 5.45 18.079 5.678 18.166L5.888 18.239L6.214 18.341L6.586 18.444C7.933 18.781 9.848 19 12 19C14.009 19 15.81 18.81 17.137 18.51L17.457 18.433L17.786 18.341L18.002 18.275L18.22 18.203C18.5 18.103 18.717 18.001 18.604 17.95C18.092 17.716 17.294 17.491 16.256 17.32C16.0802 17.2908 15.9153 17.2152 15.7785 17.1009C15.6417 16.9866 15.538 16.8379 15.478 16.67L15.423 16.516ZM13.622 7.14002L11.939 8.28002C11.6384 8.48345 11.3989 8.76483 11.246 9.09402L11.177 9.26202L9.252 14.632C9.972 14.853 10.922 15.002 12 15.002C12.959 15.002 13.816 14.884 14.5 14.704L14.748 14.633L13.474 11.078C13.2715 10.5131 13.1987 9.90988 13.261 9.31302L13.296 9.05902L13.622 7.14002ZM19.222 6.43102C19.6515 7.32551 20.3093 8.09091 21.129 8.65002L21.355 8.79702C21.618 8.95702 21.663 9.00302 21.433 9.15502L21.355 9.20402C20.5099 9.72292 19.8165 10.4556 19.345 11.328L19.116 11.777C19.006 11.968 18.948 11.922 18.778 11.569C18.3485 10.6745 17.6907 9.90913 16.871 9.35002L16.645 9.20402C16.359 9.02802 16.355 8.98202 16.573 8.84202L16.645 8.79702C17.5686 8.2297 18.3091 7.40827 18.778 6.43102C18.948 6.07802 19.005 6.03202 19.116 6.22302L19.183 6.35102L19.222 6.43102ZM7.597 3.66502L7.667 3.78802C7.981 4.36802 8.455 4.86402 9.043 5.23302L9.269 5.36402C9.461 5.46902 9.5 5.50002 9.339 5.59602L9.269 5.63602C8.66877 5.95736 8.16041 6.42648 7.792 6.99902L7.591 7.34302C7.514 7.45902 7.473 7.44902 7.403 7.33502L7.333 7.21302C7.00669 6.6207 6.53266 6.1229 5.957 5.76802L5.617 5.56902C5.546 5.52102 5.54 5.48902 5.61 5.43702L5.73 5.36402C6.3306 5.04282 6.83931 4.57369 7.208 4.00102L7.333 3.78802C7.465 3.54502 7.507 3.51902 7.597 3.66502Z" fill="currentColor"/>
</svg>
