<svg width="24" height="24" viewBox="0 0 24 24" fill="none" xmlns="http://www.w3.org/2000/svg">
<path fill-rule="evenodd" clip-rule="evenodd" d="M12 6.99999C14.035 6.99999 15.925 7.35199 17.344 7.95999C18.051 8.26299 18.688 8.64999 19.162 9.12999C19.64 9.61399 20 10.248 20 11C20 11.752 19.64 12.386 19.162 12.87C18.688 13.35 18.052 13.737 17.344 14.04C17.2306 14.0887 17.1163 14.135 17.001 14.179C17.021 15.564 17.26 16.951 17.495 17.994L17.612 18.484L17.722 18.909C17.964 19.809 17.572 20.906 16.52 21.267C16.41 21.304 16.292 21.343 16.165 21.383L15.758 21.501C14.82 21.758 13.53 22 12 22C10.47 22 9.18 21.758 8.242 21.501L7.835 21.383C7.708 21.343 7.589 21.304 7.48 21.267C6.429 20.906 6.036 19.808 6.278 18.909L6.388 18.485C6.655 17.413 6.976 15.795 6.998 14.179C6.88306 14.135 6.76903 14.0887 6.656 14.04C5.949 13.737 5.312 13.35 4.838 12.87C4.36 12.386 4 11.752 4 11C4 10.248 4.36 9.61399 4.838 9.12999C5.312 8.64999 5.948 8.26299 6.656 7.95999C8.075 7.35199 9.965 6.99999 12 6.99999ZM15.018 14.727C14.082 14.905 13.06 15 12 15C10.94 15 9.918 14.905 8.983 14.727C8.9304 15.7233 8.80608 16.7145 8.611 17.693L8.496 18.253L8.437 18.513L8.323 18.991C8.28852 19.129 8.25285 19.2666 8.216 19.404L8.559 19.512C9.67692 19.8376 10.8356 20.002 12 20C13.444 20 14.636 19.75 15.44 19.512L15.784 19.404L15.732 19.207L15.62 18.76C15.5796 18.5914 15.5409 18.4224 15.504 18.253L15.389 17.693C15.1945 16.7145 15.0705 15.7233 15.018 14.727ZM12 8.99999C10.17 8.99999 8.56 9.31999 7.444 9.79799C6.884 10.038 6.496 10.298 6.262 10.535C6.06 10.739 6.011 10.884 6.002 10.968L6 11C6 11.076 6.032 11.232 6.262 11.465C6.496 11.703 6.885 11.963 7.444 12.202C8.56 12.68 10.17 13 12 13C13.83 13 15.44 12.68 16.556 12.202C17.116 11.962 17.504 11.702 17.738 11.465C17.968 11.232 18 11.076 18 11C18 10.924 17.968 10.768 17.738 10.535C17.504 10.297 17.115 10.037 16.556 9.79799C15.44 9.31999 13.83 8.99999 12 8.99999ZM12 9.99999C13.657 9.99999 15 10.448 15 11C15 11.552 13.657 12 12 12C10.343 12 9 11.552 9 11C9 10.448 10.343 9.99999 12 9.99999ZM9.318 1.67299L9.515 1.28099C9.625 1.06799 9.68 1.04699 9.802 1.26899L9.884 1.43099C10.3533 2.408 11.0942 3.22909 12.018 3.79599C12.28 3.95699 12.326 4.00299 12.095 4.15499L12.018 4.20399C11.173 4.72261 10.4797 5.4549 10.008 6.32699L9.81 6.71899C9.7 6.93199 9.645 6.95299 9.523 6.73099L9.441 6.56899C9.01148 5.67453 8.3537 4.90913 7.534 4.34999L7.176 4.11999C7.038 4.01999 7.046 3.96699 7.23 3.84499L7.307 3.79599C8.15199 3.27733 8.84629 2.54506 9.318 1.67299ZM15.909 3.15699L15.833 3.28699C15.5067 3.87934 15.0327 4.37715 14.457 4.73199L14.231 4.86399C14.046 4.96499 14.018 5.00199 14.116 5.06899L14.231 5.13599C14.8312 5.45733 15.3396 5.92645 15.708 6.49899L15.909 6.84299C15.986 6.95799 16.027 6.94899 16.097 6.83499L16.167 6.71199C16.4934 6.12001 16.9674 5.62256 17.543 5.26799L17.769 5.13599C17.954 5.03499 17.982 4.99799 17.884 4.93099L17.769 4.86399C17.094 4.50438 16.5376 3.957 16.167 3.28799L16.097 3.16499C16.027 3.05099 15.986 3.04199 15.909 3.15699Z" fill="currentColor"/>
</svg>
