<svg width="24" height="24" viewBox="0 0 24 24" fill="none" xmlns="http://www.w3.org/2000/svg">
<path fill-rule="evenodd" clip-rule="evenodd" d="M19 14C19.1871 14 19.3704 14.0525 19.5292 14.1515C19.6879 14.2505 19.8157 14.392 19.898 14.56L19.946 14.677L20.076 15.055C20.2132 15.4572 20.4343 15.8256 20.7246 16.1359C21.0149 16.4463 21.3678 16.6913 21.76 16.855L21.945 16.925L22.323 17.054C22.5102 17.1179 22.6742 17.2358 22.7944 17.3929C22.9146 17.55 22.9854 17.7392 22.9981 17.9366C23.0107 18.134 22.9645 18.3307 22.8654 18.5018C22.7662 18.6729 22.6185 18.8108 22.441 18.898L22.323 18.946L21.945 19.076C21.5428 19.2132 21.1744 19.4343 20.8641 19.7246C20.5537 20.0149 20.3086 20.3678 20.145 20.76L20.075 20.945L19.946 21.323C19.8821 21.5102 19.7642 21.6742 19.6071 21.7944C19.45 21.9146 19.2608 21.9854 19.0634 21.9981C18.866 22.0107 18.6693 21.9645 18.4982 21.8654C18.3271 21.7662 18.1892 21.6185 18.102 21.441L18.054 21.323L17.924 20.945C17.7868 20.5428 17.5657 20.1744 17.2754 19.8641C16.9851 19.5537 16.6322 19.3087 16.24 19.145L16.055 19.075L15.677 18.946C15.4898 18.8821 15.3258 18.7642 15.2056 18.6071C15.0854 18.45 15.0146 18.2608 15.0019 18.0634C14.9893 17.866 15.0355 17.6693 15.1346 17.4982C15.2338 17.3271 15.3815 17.1892 15.559 17.102L15.677 17.054L16.055 16.924C16.4572 16.7868 16.8256 16.5657 17.1359 16.2754C17.4463 15.9851 17.6913 15.6322 17.855 15.24L17.925 15.055L18.054 14.677C18.1214 14.4796 18.2488 14.3082 18.4184 14.1868C18.5881 14.0654 18.7914 14.0001 19 14ZM20 4C20.5046 3.99984 20.9906 4.19041 21.3605 4.5335C21.7305 4.87659 21.9572 5.34684 21.995 5.85L22 6V11C21.9997 11.2549 21.9021 11.5 21.7272 11.6854C21.5522 11.8707 21.313 11.9822 21.0586 11.9972C20.8042 12.0121 20.5536 11.9293 20.3582 11.7657C20.1627 11.6021 20.0371 11.3701 20.007 11.117L20 11V8.635L12.96 14.502C12.7107 14.7096 12.4008 14.8308 12.0768 14.8474C11.7528 14.864 11.4322 14.7751 11.163 14.594L11.04 14.502L4 8.635V18H12C12.2549 18.0003 12.5 18.0979 12.6854 18.2728C12.8707 18.4478 12.9822 18.687 12.9972 18.9414C13.0121 19.1958 12.9293 19.4464 12.7657 19.6418C12.6021 19.8373 12.3701 19.9629 12.117 19.993L12 20H4C3.49542 20.0002 3.00943 19.8096 2.63945 19.4665C2.26947 19.1234 2.04284 18.6532 2.005 18.15L2 18V6C1.99984 5.49542 2.19041 5.00943 2.5335 4.63945C2.87659 4.26947 3.34684 4.04284 3.85 4.005L4 4H20ZM19 17.196C18.7634 17.4937 18.4937 17.7634 18.196 18C18.494 18.236 18.763 18.506 19 18.804C19.236 18.506 19.506 18.237 19.804 18C19.5063 17.7634 19.2366 17.4937 19 17.196ZM20 6H4V6.032L12 12.698L20 6.032V6Z" fill="currentColor"/>
</svg>
