<svg width="24" height="24" viewBox="0 0 24 24" fill="none" xmlns="http://www.w3.org/2000/svg">
<path d="M10.89 2.538C11.1941 2.33503 11.5481 2.21931 11.9134 2.20345C12.2787 2.18758 12.6414 2.27216 12.962 2.448L13.109 2.538L21.109 7.871C21.3596 8.03802 21.5693 8.25948 21.7224 8.51887C21.8754 8.77826 21.968 9.06886 21.993 9.369L22 9.535V19C22.0002 19.5046 21.8096 19.9906 21.4665 20.3606C21.1234 20.7305 20.6532 20.9572 20.15 20.995L20 21H4C3.49542 21.0002 3.00943 20.8096 2.63945 20.4665C2.26947 20.1234 2.04284 19.6532 2.005 19.15L2 19V9.535C2.00001 9.2339 2.06799 8.93669 2.1989 8.66554C2.3298 8.39438 2.52024 8.15629 2.756 7.969L2.891 7.871L10.89 2.538ZM20 10.868L12.832 15.648C12.5856 15.8122 12.2961 15.8999 12 15.8999C11.7039 15.8999 11.4144 15.8122 11.168 15.648L4 10.867V19H20V10.868ZM12 4.202L4.803 9L12 13.798L19.197 9L12 4.202Z" fill="currentColor"/>
</svg>
