<svg width="24" height="24" viewBox="0 0 24 24" fill="none" xmlns="http://www.w3.org/2000/svg">
<path d="M20 4C20.5046 3.99984 20.9906 4.19041 21.3605 4.5335C21.7305 4.87659 21.9572 5.34684 21.995 5.85L22 6V18C22.0002 18.5046 21.8096 18.9906 21.4665 19.3605C21.1234 19.7305 20.6532 19.9572 20.15 19.995L20 20H4C3.49542 20.0002 3.00943 19.8096 2.63945 19.4665C2.26947 19.1234 2.04284 18.6532 2.005 18.15L2 18V17H4V18H20V7.414L13.06 14.354C12.7975 14.6165 12.447 14.7723 12.0763 14.7913C11.7056 14.8103 11.341 14.6912 11.053 14.457L10.939 14.354L4 7.414V8H2V6C1.99984 5.49542 2.19041 5.00943 2.5335 4.63945C2.87659 4.26947 3.34684 4.04284 3.85 4.005L4 4H20ZM6 13C6.26522 13 6.51957 13.1054 6.70711 13.2929C6.89464 13.4804 7 13.7348 7 14C7 14.2652 6.89464 14.5196 6.70711 14.7071C6.51957 14.8946 6.26522 15 6 15H1C0.734784 15 0.48043 14.8946 0.292893 14.7071C0.105357 14.5196 0 14.2652 0 14C0 13.7348 0.105357 13.4804 0.292893 13.2929C0.48043 13.1054 0.734784 13 1 13H6ZM18.586 6H5.414L12 12.586L18.586 6ZM5 10C5.25488 10.0003 5.50003 10.0979 5.68537 10.2728C5.8707 10.4478 5.98223 10.687 5.99717 10.9414C6.01211 11.1958 5.92933 11.4464 5.76574 11.6418C5.60214 11.8373 5.3701 11.9629 5.117 11.993L5 12H2C1.74512 11.9997 1.49997 11.9021 1.31463 11.7272C1.1293 11.5522 1.01777 11.313 1.00283 11.0586C0.987891 10.8042 1.07067 10.5536 1.23426 10.3582C1.39786 10.1627 1.6299 10.0371 1.883 10.007L2 10H5Z" fill="currentColor"/>
</svg>
