<svg width="24" height="24" viewBox="0 0 24 24" fill="none" xmlns="http://www.w3.org/2000/svg">
<path d="M17.5 3C18.6568 3 19.7691 3.44547 20.6061 4.24393C21.4431 5.04239 21.9405 6.13251 21.995 7.288L22 7.5V15C22.0002 15.5046 21.8096 15.9906 21.4665 16.3605C21.1234 16.7305 20.6532 16.9572 20.15 16.995L20 17H17V20C16.9997 20.2549 16.9021 20.5 16.7272 20.6854C16.5522 20.8707 16.313 20.9822 16.0586 20.9972C15.8042 21.0121 15.5536 20.9293 15.3582 20.7657C15.1627 20.6021 15.0371 20.3701 15.007 20.117L15 20V17H4C3.49542 17.0002 3.00943 16.8096 2.63945 16.4665C2.26947 16.1234 2.04284 15.6532 2.005 15.15L2 15V7.5C2 6.34323 2.44547 5.23089 3.24393 4.39388C4.04239 3.55687 5.13251 3.0595 6.288 3.005L6.5 3H17.5ZM17.5 5H10.242C10.673 5.644 10.942 6.404 10.992 7.225L11 7.5V15H20V7.5C20.0001 6.86528 19.7588 6.25429 19.325 5.79095C18.8912 5.32762 18.2973 5.04664 17.664 5.005L17.5 5ZM6.5 5C5.83696 5 5.20107 5.26339 4.73223 5.73223C4.26339 6.20107 4 6.83696 4 7.5V15H9V7.5C9 6.83696 8.73661 6.20107 8.26777 5.73223C7.79893 5.26339 7.16304 5 6.5 5ZM7 8C7.25488 8.00028 7.50003 8.09788 7.68537 8.27285C7.8707 8.44782 7.98223 8.68695 7.99717 8.94139C8.01211 9.19584 7.92933 9.44638 7.76574 9.64183C7.60214 9.83729 7.3701 9.9629 7.117 9.993L7 10H6C5.74512 9.99972 5.49997 9.90212 5.31463 9.72715C5.1293 9.55218 5.01777 9.31305 5.00283 9.05861C4.98789 8.80416 5.07067 8.55362 5.23426 8.35817C5.39786 8.16271 5.6299 8.0371 5.883 8.007L6 8H7Z" fill="currentColor"/>
</svg>
