<svg width="24" height="24" viewBox="0 0 24 24" fill="none" xmlns="http://www.w3.org/2000/svg">
<path fill-rule="evenodd" clip-rule="evenodd" d="M21 9C21 9.26522 20.8946 9.51957 20.7071 9.70711C20.5195 9.89464 20.2652 10 20 10C19.7348 10 19.4804 9.89464 19.2929 9.70711C19.1053 9.51957 19 9.26522 19 9V6.414L15.463 9.951C16.6168 11.4635 17.1528 13.358 16.9623 15.2508C16.7719 17.1437 15.8692 18.8934 14.4372 20.1457C13.0051 21.398 11.1507 22.0594 9.24934 21.9958C7.34801 21.9322 5.5419 21.1485 4.1967 19.8033C2.85151 18.4581 2.06777 16.652 2.00419 14.7506C1.94061 12.8493 2.60194 10.9949 3.85426 9.5628C5.10658 8.13075 6.85631 7.2281 8.74914 7.03764C10.642 6.84719 12.5364 7.38315 14.049 8.537L17.586 5H15C14.7348 5 14.4804 4.89464 14.2929 4.70711C14.1053 4.51957 14 4.26522 14 4C14 3.73478 14.1053 3.48043 14.2929 3.29289C14.4804 3.10536 14.7348 3 15 3H19.75C20.44 3 21 3.56 21 4.25V9ZM9.49997 9C8.04128 9 6.64233 9.57946 5.61088 10.6109C4.57943 11.6424 3.99997 13.0413 3.99997 14.5C3.99997 15.9587 4.57943 17.3576 5.61088 18.3891C6.64233 19.4205 8.04128 20 9.49997 20C10.9587 20 12.3576 19.4205 13.3891 18.3891C14.4205 17.3576 15 15.9587 15 14.5C15 13.0413 14.4205 11.6424 13.3891 10.6109C12.3576 9.57946 10.9587 9 9.49997 9Z" fill="currentColor"/>
</svg>
