<svg width="24" height="24" viewBox="0 0 24 24" fill="none" xmlns="http://www.w3.org/2000/svg">
<path fill-rule="evenodd" clip-rule="evenodd" d="M14.7139 5.343C14.0319 4.293 13.1669 3.47 12.4599 3.113C12.3176 3.03955 12.16 3.00082 11.9999 3C11.8398 2.99982 11.682 3.03824 11.5399 3.112C10.8329 3.47 9.96886 4.292 9.28586 5.343C8.8254 6.04808 8.47693 6.82024 8.25286 7.632C7.53086 7.184 6.74586 6.862 5.81586 6.552C5.68143 6.50729 5.53904 6.49166 5.39811 6.50613C5.25719 6.52061 5.12094 6.56486 4.99841 6.63596C4.87588 6.70706 4.76985 6.80339 4.68735 6.91856C4.60485 7.03372 4.54776 7.16511 4.51986 7.304C4.26286 8.589 4.10686 9.862 4.32786 11.111C4.46312 11.8856 4.74591 12.6271 5.16086 13.295C4.55383 13.5113 3.9771 13.8047 3.44486 14.168C3.25397 14.2954 3.11271 14.4846 3.04479 14.7038C2.97687 14.9231 2.98643 15.159 3.07186 15.372C3.36186 16.095 4.09186 16.875 5.43986 17.526C6.65586 18.113 8.42886 18.624 10.9999 18.908V21C10.9999 21.2652 11.1052 21.5196 11.2928 21.7071C11.4803 21.8946 11.7346 22 11.9999 22C12.2651 22 12.5194 21.8946 12.707 21.7071C12.8945 21.5196 12.9999 21.2652 12.9999 21V18.908C15.5719 18.624 17.3439 18.112 18.5599 17.526C19.9069 16.876 20.6389 16.096 20.9289 15.372C21.0142 15.1589 21.0236 14.9229 20.9555 14.7036C20.8874 14.4844 20.7459 14.2953 20.5549 14.168C20.0226 13.8047 19.4459 13.5113 18.8389 13.295C19.2699 12.596 19.5389 11.872 19.6719 11.111C19.8919 9.861 19.7379 8.589 19.4809 7.304C19.453 7.16499 19.3959 7.03349 19.3133 6.91824C19.2307 6.80298 19.1246 6.7066 19.002 6.63548C18.8793 6.56437 18.7429 6.52015 18.6019 6.50575C18.4608 6.49136 18.3184 6.50713 18.1839 6.552C17.2539 6.862 16.4699 7.184 15.7469 7.632C15.5228 6.82024 15.1743 6.04809 14.7139 5.343ZM12.9999 16.895C15.2939 16.625 16.7659 16.171 17.6899 15.725C17.954 15.6002 18.2069 15.453 18.4459 15.285C17.7629 15 17.3009 15 17.0299 15H16.9999C16.8021 15 16.6088 14.9413 16.4444 14.8314C16.28 14.7215 16.1519 14.5654 16.0762 14.3827C16.0005 14.2 15.9807 13.9989 16.0193 13.805C16.0578 13.611 16.1531 13.4329 16.2929 13.293C17.1619 12.424 17.5539 11.606 17.7029 10.763C17.8049 10.187 17.7979 9.566 17.7129 8.863C16.9089 9.21 16.3099 9.604 15.7069 10.207C15.567 10.3468 15.3888 10.442 15.1949 10.4806C15.0009 10.5192 14.7999 10.4993 14.6172 10.4237C14.4345 10.348 14.2783 10.2199 14.1685 10.0555C14.0586 9.89105 13.9999 9.69775 13.9999 9.5C13.9999 8.339 13.5839 7.275 13.0359 6.432C12.7476 5.98103 12.399 5.57157 11.9999 5.215C11.6007 5.57157 11.2521 5.98103 10.9639 6.432C10.4159 7.275 9.99986 8.34 9.99986 9.5C9.99982 9.69775 9.94115 9.89105 9.83127 10.0555C9.72138 10.2199 9.56522 10.348 9.38252 10.4237C9.19982 10.4993 8.99879 10.5192 8.80483 10.4806C8.61088 10.442 8.43272 10.3468 8.29286 10.207C7.68986 9.604 7.09186 9.21 6.28786 8.862C6.20186 9.566 6.19586 10.187 6.29786 10.764C6.44586 11.606 6.83786 12.424 7.70786 13.294C7.84739 13.434 7.94232 13.6121 7.98066 13.806C8.01899 13.9999 7.99903 14.2008 7.92327 14.3833C7.84752 14.5658 7.71938 14.7218 7.55503 14.8316C7.39068 14.9414 7.19749 15 6.99986 15H6.96986C6.69986 15 6.23686 14.999 5.55386 15.285C5.74486 15.422 5.99186 15.571 6.30986 15.725C7.23386 16.171 8.70586 16.625 10.9999 16.895V14C10.9999 13.7348 11.1052 13.4804 11.2928 13.2929C11.4803 13.1054 11.7346 13 11.9999 13C12.2651 13 12.5194 13.1054 12.707 13.2929C12.8945 13.4804 12.9999 13.7348 12.9999 14V16.895Z" fill="currentColor"/>
</svg>
