<svg width="24" height="24" viewBox="0 0 24 24" fill="none" xmlns="http://www.w3.org/2000/svg">
<path fill-rule="evenodd" clip-rule="evenodd" d="M12 2C17.523 2 22 6.477 22 12C22 17.523 17.523 22 12 22C6.477 22 2 17.523 2 12C2 6.477 6.477 2 12 2ZM14.153 15H9.847L9.104 19.46C10.0275 19.8182 11.0095 20.0013 12 20C12.894 20 13.753 19.853 14.556 19.583L14.896 19.46L14.153 15ZM12 4C10.3157 3.99971 8.67422 4.53104 7.30955 5.51828C5.94489 6.50552 4.92663 7.8983 4.39989 9.49815C3.87315 11.098 3.86479 12.8233 4.37602 14.4281C4.88724 16.033 5.89196 17.4356 7.247 18.436L7.874 14.671C7.92735 14.351 8.05772 14.0488 8.25389 13.7905C8.45005 13.5321 8.70612 13.3253 9 13.188V10.006C9 9.624 9.216 9.274 9.558 9.103L13.538 7.113C13.692 7.03595 13.8631 6.99954 14.0351 7.00722C14.2071 7.01491 14.3743 7.06643 14.5207 7.15691C14.6672 7.24738 14.7882 7.3738 14.872 7.52416C14.9559 7.67452 15 7.84383 15 8.016V13.188C15.2939 13.3253 15.5499 13.5321 15.7461 13.7905C15.9423 14.0488 16.0727 14.351 16.126 14.671L16.753 18.436C18.108 17.4356 19.1128 16.033 19.624 14.4281C20.1352 12.8233 20.1269 11.098 19.6001 9.49815C19.0734 7.8983 18.0551 6.50552 16.6904 5.51828C15.3258 4.53104 13.6843 3.99971 12 4ZM13 9.618L11 10.618V13H13V9.618Z" fill="currentColor"/>
</svg>
