<svg width="24" height="24" viewBox="0 0 24 24" fill="none" xmlns="http://www.w3.org/2000/svg">
<path d="M20 5C20.5046 4.99984 20.9906 5.19041 21.3605 5.5335C21.7305 5.87659 21.9572 6.34684 21.995 6.85L22 7V17C22.0002 17.5046 21.8096 17.9906 21.4665 18.3605C21.1234 18.7305 20.6532 18.9572 20.15 18.995L20 19H4C3.49542 19.0002 3.00943 18.8096 2.63945 18.4665C2.26947 18.1234 2.04284 17.6532 2.005 17.15L2 17V7C1.99984 6.49542 2.19041 6.00943 2.5335 5.63945C2.87659 5.26947 3.34684 5.04284 3.85 5.005L4 5H20ZM20 7H4V17H20V7ZM6.833 9C6.99104 8.99993 7.14685 9.03733 7.28765 9.10912C7.42845 9.18091 7.55023 9.28505 7.643 9.413L7.707 9.514L8.5 10.941L9.293 9.514C9.36972 9.37596 9.47804 9.25804 9.60909 9.16992C9.74015 9.0818 9.89021 9.02597 10.047 9.007L10.167 9H11C11.2449 9.00003 11.4813 9.08996 11.6644 9.25272C11.8474 9.41547 11.9643 9.63975 11.993 9.883L12 10V14C11.9997 14.2549 11.9021 14.5 11.7272 14.6854C11.5522 14.8707 11.313 14.9822 11.0586 14.9972C10.8042 15.0121 10.5536 14.9293 10.3582 14.7657C10.1627 14.6021 10.0371 14.3701 10.007 14.117L10 14V12.36L9.374 13.486C9.29223 13.633 9.17472 13.7569 9.03234 13.8464C8.88997 13.9359 8.72731 13.9881 8.55944 13.998C8.39156 14.008 8.22388 13.9755 8.07191 13.9035C7.91994 13.8314 7.78858 13.7222 7.69 13.586L7.626 13.486L7 12.359V14C6.99972 14.2549 6.90212 14.5 6.72715 14.6854C6.55218 14.8707 6.31305 14.9822 6.05861 14.9972C5.80416 15.0121 5.55362 14.9293 5.35817 14.7657C5.16271 14.6021 5.0371 14.3701 5.007 14.117L5 14V10C5.00003 9.75507 5.08996 9.51866 5.25272 9.33563C5.41547 9.15259 5.63975 9.03566 5.883 9.007L6 9H6.833ZM16 9C16.2652 9 16.5196 9.10536 16.7071 9.29289C16.8946 9.48043 17 9.73478 17 10V11.634C17.2101 11.5129 17.457 11.4722 17.6948 11.5196C17.9327 11.567 18.1452 11.6992 18.2928 11.8916C18.4404 12.084 18.5131 12.3235 18.4973 12.5654C18.4815 12.8074 18.3784 13.0354 18.207 13.207L16.707 14.707C16.5195 14.8945 16.2652 14.9998 16 14.9998C15.7348 14.9998 15.4805 14.8945 15.293 14.707L13.793 13.207C13.6216 13.0354 13.5185 12.8074 13.5027 12.5654C13.4869 12.3235 13.5596 12.084 13.7072 11.8916C13.8548 11.6992 14.0673 11.567 14.3052 11.5196C14.543 11.4722 14.7899 11.5129 15 11.634V10C15 9.73478 15.1054 9.48043 15.2929 9.29289C15.4804 9.10536 15.7348 9 16 9Z" fill="currentColor"/>
</svg>
