<svg width="24" height="24" viewBox="0 0 24 24" fill="none" xmlns="http://www.w3.org/2000/svg">
<path fill-rule="evenodd" clip-rule="evenodd" d="M11.9998 17.978C11.0174 18.6055 9.88431 18.9572 8.71929 18.9963C7.55427 19.0355 6.40015 18.7606 5.37785 18.2005C4.35554 17.6404 3.50266 16.8157 2.90856 15.8128C2.31445 14.8099 2.00098 13.6657 2.00098 12.5C2.00098 11.3343 2.31445 10.1901 2.90856 9.18717C3.50266 8.18425 4.35554 7.35956 5.37785 6.79947C6.40015 6.23938 7.55427 5.96452 8.71929 6.00367C9.88431 6.04282 11.0174 6.39454 11.9998 7.022C12.9822 6.39454 14.1152 6.04282 15.2802 6.00367C16.4453 5.96452 17.5994 6.23938 18.6217 6.79947C19.644 7.35956 20.4969 8.18425 21.091 9.18717C21.6851 10.1901 21.9986 11.3343 21.9986 12.5C21.9986 13.6657 21.6851 14.8099 21.091 15.8128C20.4969 16.8157 19.644 17.6404 18.6217 18.2005C17.5994 18.7606 16.4453 19.0355 15.2802 18.9963C14.1152 18.9572 12.9822 18.6055 11.9998 17.978ZM3.99976 12.5C3.99953 11.7407 4.19143 10.9937 4.5576 10.3285C4.92378 9.66329 5.45232 9.10158 6.09401 8.69564C6.73571 8.2897 7.46969 8.05274 8.22761 8.00682C8.98553 7.9609 9.74275 8.10751 10.4288 8.433C9.50175 9.58558 8.99744 11.0209 8.99976 12.5C8.99976 14.04 9.53476 15.453 10.4288 16.567C9.74275 16.8925 8.98553 17.0391 8.22761 16.9932C7.46969 16.9473 6.73571 16.7103 6.09401 16.3044C5.45232 15.8984 4.92378 15.3367 4.5576 14.6715C4.19143 14.0063 3.99953 13.2593 3.99976 12.5ZM13.5708 8.433C14.2567 8.10796 15.0136 7.9617 15.7712 8.00781C16.5288 8.05393 17.2625 8.29092 17.9039 8.69675C18.5453 9.10258 19.0736 9.66405 19.4397 10.3289C19.8058 10.9938 19.9978 11.7405 19.9978 12.4995C19.9978 13.2585 19.8058 14.0052 19.4397 14.6701C19.0736 15.3349 18.5453 15.8964 17.9039 16.3022C17.2625 16.7081 16.5288 16.9451 15.7712 16.9912C15.0136 17.0373 14.2567 16.891 13.5708 16.566C14.4976 15.4137 15.0019 13.9788 14.9998 12.5C14.9998 10.96 14.4648 9.547 13.5708 8.433ZM11.9998 9.671C12.6248 10.444 12.9998 11.428 12.9998 12.5C13.0014 13.5299 12.6483 14.5289 11.9998 15.329C11.3512 14.5289 10.9981 13.5299 10.9998 12.5C10.9998 11.428 11.3748 10.444 11.9998 9.671Z" fill="currentColor"/>
</svg>
