<svg width="24" height="24" viewBox="0 0 24 24" fill="none" xmlns="http://www.w3.org/2000/svg">
<path d="M16.4322 2.41501C17.4679 2.59343 18.4233 3.08688 19.1683 3.82811C19.9133 4.56933 20.4116 5.52227 20.5952 6.55701C21.0262 8.91801 21.1232 11.239 20.6352 13.665C20.2292 15.688 18.6292 17.197 16.6252 17.558C15.0752 17.836 13.5202 17.982 11.9582 17.978C12.6802 18.122 13.4292 18.148 14.1682 18.164L14.8002 18.176L15.1952 18.178C15.7312 18.185 16.2922 18.226 16.7282 18.518C16.9942 18.696 17.2632 19.028 17.2612 19.503C17.2612 19.932 17.0302 20.235 16.8972 20.381C16.4292 20.894 15.7072 21.165 15.0652 21.375C14.0232 21.714 12.6052 21.975 11.0052 21.982C7.57721 21.998 4.36121 19.719 3.52721 16.232C2.77821 13.099 2.78421 9.58401 3.38221 6.45101C3.57346 5.4435 4.06809 4.51851 4.79981 3.80002C5.53153 3.08152 6.46538 2.60385 7.47621 2.43101C10.4379 1.90481 13.4687 1.8994 16.4322 2.41501ZM7.82221 4.40001C7.21137 4.50263 6.64665 4.79001 6.20412 5.22341C5.7616 5.65681 5.46254 6.21543 5.34721 6.82401C4.79521 9.71401 4.79721 12.941 5.47221 15.766C6.07421 18.28 8.42321 19.993 10.9952 19.981C11.2292 19.981 11.4572 19.973 11.6792 19.961C10.5692 19.7569 9.54178 19.2368 8.72021 18.463C8.20121 17.968 7.60521 17.209 7.92921 16.449C8.13021 15.978 8.63121 15.728 9.12921 15.792C11.5122 16.102 13.8882 16.016 16.2712 15.588C17.4942 15.368 18.4362 14.461 18.6752 13.27C19.1012 11.151 19.0252 9.09301 18.6282 6.91501C18.518 6.2831 18.215 5.70075 17.7608 5.2478C17.3066 4.79485 16.7234 4.49348 16.0912 4.38501C13.355 3.90867 10.5567 3.91374 7.82221 4.40001ZM14.0002 6.00001C14.7959 6.00001 15.5589 6.31608 16.1215 6.87869C16.6841 7.4413 17.0002 8.20436 17.0002 9.00001V13C17.0002 13.2652 16.8949 13.5196 16.7073 13.7071C16.5198 13.8947 16.2654 14 16.0002 14C15.735 14 15.4806 13.8947 15.2931 13.7071C15.1056 13.5196 15.0002 13.2652 15.0002 13V9.00001C15.0002 8.73479 14.8949 8.48044 14.7073 8.2929C14.5198 8.10537 14.2654 8.00001 14.0002 8.00001C13.735 8.00001 13.4806 8.10537 13.2931 8.2929C13.1056 8.48044 13.0002 8.73479 13.0002 9.00001V12C13.0002 12.2652 12.8949 12.5196 12.7073 12.7071C12.5198 12.8947 12.2654 13 12.0002 13C11.735 13 11.4806 12.8947 11.2931 12.7071C11.1056 12.5196 11.0002 12.2652 11.0002 12V9.00001C11.0002 8.73479 10.8949 8.48044 10.7073 8.2929C10.5198 8.10537 10.2654 8.00001 10.0002 8.00001C9.735 8.00001 9.48064 8.10537 9.29311 8.2929C9.10557 8.48044 9.00021 8.73479 9.00021 9.00001V13C9.00021 13.2652 8.89486 13.5196 8.70732 13.7071C8.51978 13.8947 8.26543 14 8.00021 14C7.735 14 7.48064 13.8947 7.29311 13.7071C7.10557 13.5196 7.00021 13.2652 7.00021 13V9.00001C7.00023 8.42089 7.16786 7.85415 7.48288 7.3682C7.7979 6.88225 8.24683 6.49787 8.7755 6.26145C9.30417 6.02503 9.88996 5.94668 10.4622 6.03586C11.0344 6.12503 11.5686 6.37793 12.0002 6.76401C12.5497 6.27113 13.2621 5.99899 14.0002 6.00001Z" fill="currentColor"/>
</svg>
