<svg width="24" height="24" viewBox="0 0 24 24" fill="none" xmlns="http://www.w3.org/2000/svg">
<path fill-rule="evenodd" clip-rule="evenodd" d="M14 5C14.5046 4.99984 14.9906 5.19041 15.3605 5.5335C15.7305 5.87659 15.9571 6.34684 15.995 6.85L16 7V9.697L21.535 18H22C22.2549 18.0003 22.5 18.0979 22.6854 18.2728C22.8707 18.4478 22.9822 18.687 22.9972 18.9414C23.0121 19.1958 22.9293 19.4464 22.7657 19.6418C22.6021 19.8373 22.3701 19.9629 22.117 19.993L22 20H1.99999C1.74511 19.9997 1.49996 19.9021 1.31462 19.7272C1.12929 19.5522 1.01776 19.313 1.00282 19.0586C0.987882 18.8042 1.07067 18.5536 1.23426 18.3582C1.39785 18.1627 1.62989 18.0371 1.88299 18.007L1.99999 18H2.46499L7.99999 9.697V7C7.99983 6.49542 8.1904 6.00943 8.53349 5.63945C8.87658 5.26947 9.34684 5.04284 9.84999 5.005L9.99999 5H14ZM13.55 15H10.45L10.117 18H13.883L13.55 15ZM8.75199 12.174L4.86999 18H8.10599L8.75199 12.174ZM15.248 12.174L15.895 18H19.131L15.248 12.174ZM13.105 11H10.895L10.673 13H13.327L13.105 11ZM14 7H9.99999V9H14V7Z" fill="currentColor"/>
</svg>
