<svg width="24" height="24" viewBox="0 0 24 24" fill="none" xmlns="http://www.w3.org/2000/svg">
<path fill-rule="evenodd" clip-rule="evenodd" d="M9.41997 2C9.77249 2.00011 10.1187 2.09341 10.4236 2.27042C10.7285 2.44744 10.9811 2.70189 11.156 3.008L12 4.484L12.844 3.008C13.0188 2.70189 13.2715 2.44744 13.5763 2.27042C13.8812 2.09341 14.2274 2.00011 14.58 2H19.138C19.4007 1.99991 19.6589 2.06884 19.8866 2.1999C20.1144 2.33096 20.3037 2.51955 20.4357 2.74678C20.5676 2.97402 20.6375 3.23192 20.6385 3.49468C20.6394 3.75744 20.5713 4.01584 20.441 4.244L17.059 10.162C18.0066 11.153 18.6424 12.4004 18.8874 13.7495C19.1323 15.0986 18.9756 16.49 18.4368 17.7508C17.898 19.0117 17.0007 20.0865 15.8564 20.8419C14.7121 21.5973 13.3711 22 12 22C10.6288 22 9.28783 21.5973 8.14352 20.8419C6.9992 20.0865 6.10194 19.0117 5.56311 17.7508C5.02428 16.49 4.86762 15.0986 5.11257 13.7495C5.35752 12.4004 5.99329 11.153 6.94097 10.162L3.55897 4.244C3.42864 4.01584 3.36053 3.75744 3.36146 3.49468C3.36239 3.23192 3.43233 2.97402 3.56427 2.74678C3.69622 2.51955 3.88554 2.33096 4.11328 2.1999C4.34103 2.06884 4.5992 1.99991 4.86197 2H9.41997ZM12 10C10.6739 10 9.40211 10.5268 8.46443 11.4645C7.52675 12.4021 6.99997 13.6739 6.99997 15C6.99997 16.3261 7.52675 17.5979 8.46443 18.5355C9.40211 19.4732 10.6739 20 12 20C13.326 20 14.5978 19.4732 15.5355 18.5355C16.4732 17.5979 17 16.3261 17 15C17 13.6739 16.4732 12.4021 15.5355 11.4645C14.5978 10.5268 13.326 10 12 10ZM12 13C12.5304 13 13.0391 13.2107 13.4142 13.5858C13.7893 13.9609 14 14.4696 14 15C14 15.5304 13.7893 16.0391 13.4142 16.4142C13.0391 16.7893 12.5304 17 12 17C11.4695 17 10.9608 16.7893 10.5858 16.4142C10.2107 16.0391 9.99997 15.5304 9.99997 15C9.99997 14.4696 10.2107 13.9609 10.5858 13.5858C10.9608 13.2107 11.4695 13 12 13ZM18.277 4H14.58L13.152 6.5L14.212 8.357C14.652 8.503 15.072 8.692 15.467 8.917L18.277 4ZM9.41997 4H5.72297L8.53297 8.917C9.50318 8.36284 10.5925 8.05037 11.709 8.006L9.41997 4Z" fill="currentColor"/>
</svg>
