<svg width="24" height="24" viewBox="0 0 24 24" fill="none" xmlns="http://www.w3.org/2000/svg">
<path fill-rule="evenodd" clip-rule="evenodd" d="M2 6C2 5.20435 2.31607 4.44129 2.87868 3.87868C3.44129 3.31607 4.20435 3 5 3H19C19.7956 3 20.5587 3.31607 21.1213 3.87868C21.6839 4.44129 22 5.20435 22 6V16C22 16.7956 21.6839 17.5587 21.1213 18.1213C20.5587 18.6839 19.7956 19 19 19H11.333L8 21.5C7.176 22.118 6 21.53 6 20.5V19H5C4.20435 19 3.44129 18.6839 2.87868 18.1213C2.31607 17.5587 2 16.7956 2 16V6ZM5 5C4.73478 5 4.48043 5.10536 4.29289 5.29289C4.10536 5.48043 4 5.73478 4 6V16C4 16.2652 4.10536 16.5196 4.29289 16.7071C4.48043 16.8946 4.73478 17 5 17H6.5C6.89782 17 7.27936 17.158 7.56066 17.4393C7.84196 17.7206 8 18.1022 8 18.5V19L10.133 17.4C10.4792 17.1404 10.9003 17 11.333 17H19C19.2652 17 19.5196 16.8946 19.7071 16.7071C19.8946 16.5196 20 16.2652 20 16V6C20 5.73478 19.8946 5.48043 19.7071 5.29289C19.5196 5.10536 19.2652 5 19 5H5Z" fill="currentColor"/>
</svg>
