<svg width="24" height="24" viewBox="0 0 24 24" fill="none" xmlns="http://www.w3.org/2000/svg">
<path fill-rule="evenodd" clip-rule="evenodd" d="M8.06995 5.00201C6.47495 4.89201 5.20495 5.81801 4.31695 6.98101C3.42395 8.15101 2.79495 9.70101 2.44695 11.249C2.10095 12.796 2.01395 14.438 2.29295 15.813C2.56495 17.149 3.25695 18.523 4.71295 18.958C6.10195 19.373 7.34795 18.783 8.29995 17.982C9.25395 17.18 10.0799 16.036 10.7459 14.931C11.2679 14.064 11.7139 13.181 12.0639 12.427C12.4139 13.18 12.8599 14.064 13.3809 14.931C14.0469 16.036 14.8729 17.18 15.8269 17.982C16.7789 18.783 18.0249 19.373 19.4139 18.958C20.8699 18.523 21.5619 17.149 21.8339 15.813C22.1139 14.438 22.0259 12.796 21.6799 11.249C21.3319 9.70101 20.7029 8.15001 19.8099 6.98101C18.9229 5.81801 17.6529 4.89101 16.0579 5.00201C14.3239 5.12201 13.0879 6.47101 12.3709 7.49001C12.2646 7.64229 12.1622 7.79735 12.0639 7.95501C11.9655 7.79728 11.8628 7.64222 11.7559 7.49001C11.0389 6.47001 9.80395 5.12301 8.06995 5.00201ZM10.9199 10.027C10.6369 10.742 9.94995 12.375 9.03195 13.9C8.41095 14.932 7.71895 15.858 7.01195 16.452C6.30495 17.047 5.74995 17.18 5.28695 17.042C4.89095 16.924 4.46995 16.482 4.25295 15.415C4.04495 14.388 4.09595 13.04 4.39895 11.687C4.70295 10.334 5.23695 9.07301 5.90695 8.19401C6.58195 7.30901 7.27595 6.95201 7.93095 6.99801C8.69695 7.05101 9.46095 7.70301 10.1189 8.64001C10.4869 9.16301 10.7619 9.69201 10.9189 10.026L10.9199 10.027ZM13.2079 10.027C13.4899 10.742 14.1779 12.375 15.0949 13.9C15.7169 14.932 16.4089 15.858 17.1149 16.452C17.8229 17.047 18.3769 17.18 18.8409 17.042C19.2359 16.924 19.6569 16.482 19.8739 15.415C20.0829 14.388 20.0319 13.04 19.7279 11.687C19.4239 10.334 18.8909 9.07301 18.2199 8.19401C17.5449 7.30901 16.8519 6.95201 16.1959 6.99801C15.4299 7.05101 14.6659 7.70301 14.0079 8.64001C13.7031 9.07892 13.4355 9.54253 13.2079 10.026V10.027Z" fill="currentColor"/>
</svg>
