<svg width="24" height="24" viewBox="0 0 24 24" fill="none" xmlns="http://www.w3.org/2000/svg">
<path fill-rule="evenodd" clip-rule="evenodd" d="M4.93033 12.01C5.19258 11.9729 5.45885 12.0413 5.67071 12.2003C5.88256 12.3593 6.02268 12.5958 6.06033 12.858C6.18582 13.7268 6.50034 14.5574 6.98172 15.2914C7.46309 16.0254 8.0996 16.6449 8.84638 17.1062C9.59316 17.5675 10.432 17.8594 11.3039 17.9613C12.1757 18.0632 13.0593 17.9726 13.8923 17.696L14.1853 17.589L15.6943 19.098C14.9614 19.4803 14.1732 19.7459 13.3583 19.885L13.0003 19.938V21C13 21.2549 12.9024 21.5 12.7275 21.6854C12.5525 21.8707 12.3134 21.9822 12.0589 21.9972C11.8045 22.0121 11.5539 21.9293 11.3585 21.7657C11.163 21.6021 11.0374 21.3701 11.0073 21.117L11.0003 21V19.938C9.26205 19.7187 7.64374 18.9352 6.39371 17.7075C5.14367 16.4799 4.33098 14.876 4.08033 13.142C4.06168 13.0118 4.06888 12.8793 4.10152 12.7519C4.13416 12.6245 4.19161 12.5049 4.27056 12.3997C4.34951 12.2946 4.44842 12.206 4.56163 12.1392C4.67484 12.0723 4.80013 12.0284 4.93033 12.01ZM12.0003 2C13.2888 2.00007 14.5275 2.49754 15.4581 3.38866C16.3887 4.27978 16.9394 5.49575 16.9953 6.783L17.0003 7V12C17.0016 12.8926 16.763 13.7692 16.3093 14.538L16.1723 14.758L16.8913 15.477C17.4449 14.7003 17.8042 13.8022 17.9393 12.858C17.977 12.5954 18.1174 12.3586 18.3297 12.1996C18.542 12.0405 18.8088 11.9723 19.0713 12.01C19.3339 12.0477 19.5707 12.1881 19.7298 12.4004C19.8888 12.6127 19.957 12.8794 19.9193 13.142C19.7381 14.4095 19.2537 15.6146 18.5073 16.655L18.3203 16.905L20.4853 19.071C20.6647 19.251 20.7688 19.4924 20.7766 19.7464C20.7843 20.0003 20.6951 20.2477 20.5271 20.4383C20.359 20.6288 20.1248 20.7483 19.8719 20.7724C19.6189 20.7965 19.3663 20.7234 19.1653 20.568L19.0713 20.485L3.51533 4.93C3.33598 4.75004 3.23185 4.50857 3.2241 4.25462C3.21634 4.00067 3.30554 3.75329 3.47358 3.56272C3.64161 3.37216 3.87588 3.25269 4.1288 3.2286C4.38172 3.20451 4.63434 3.27759 4.83533 3.433L4.92933 3.516L7.15933 5.746C7.43746 4.67384 8.0636 3.72432 8.93954 3.04637C9.81548 2.36842 10.8917 2.00039 11.9993 2H12.0003ZM7.00033 10.404L9.03133 12.435C9.12511 13.0737 9.42228 13.6651 9.87874 14.1216C10.3352 14.578 10.9266 14.8752 11.5653 14.969L13.3983 16.802C12.6531 17.019 11.8676 17.0596 11.104 16.9204C10.3404 16.7813 9.6197 16.4663 8.99893 16.0004C8.37815 15.5344 7.87438 14.9304 7.52748 14.2361C7.18059 13.5417 7.00011 12.7762 7.00033 12V10.404ZM12.0003 4C11.2047 4 10.4416 4.31607 9.87901 4.87868C9.3164 5.44129 9.00033 6.20435 9.00033 7V7.586L14.7083 13.293C14.9012 12.8893 15.001 12.4474 15.0003 12V7C15.0003 6.20435 14.6843 5.44129 14.1216 4.87868C13.559 4.31607 12.796 4 12.0003 4Z" fill="currentColor"/>
</svg>
