<svg width="24" height="24" viewBox="0 0 24 24" fill="none" xmlns="http://www.w3.org/2000/svg">
<path fill-rule="evenodd" clip-rule="evenodd" d="M19.9464 1.67699C19.8791 1.47944 19.7516 1.30792 19.5819 1.18646C19.4121 1.065 19.2086 0.999695 18.9999 0.999695C18.7912 0.999695 18.5877 1.065 18.418 1.18646C18.2483 1.30792 18.1208 1.47944 18.0534 1.67699L17.9244 2.05499C17.7763 2.48885 17.5308 2.883 17.2066 3.20716C16.8824 3.53133 16.4883 3.77689 16.0544 3.92499L15.6774 4.05399C15.4802 4.12156 15.3091 4.24907 15.1879 4.41868C15.0667 4.5883 15.0016 4.79154 15.0016 4.99999C15.0016 5.20844 15.0667 5.41168 15.1879 5.5813C15.3091 5.75091 15.4802 5.87842 15.6774 5.94599L16.0554 6.07599C16.4892 6.22399 16.8833 6.4694 17.2074 6.79338C17.5316 7.11737 17.7772 7.51132 17.9254 7.94499L18.0534 8.32299C18.1208 8.52054 18.2483 8.69206 18.418 8.81352C18.5877 8.93498 18.7912 9.00029 18.9999 9.00029C19.2086 9.00029 19.4121 8.93498 19.5819 8.81352C19.7516 8.69206 19.8791 8.52054 19.9464 8.32299L20.0764 7.94499C20.2244 7.51124 20.4698 7.11716 20.7938 6.793C21.1178 6.46884 21.5117 6.22322 21.9454 6.07499L22.3234 5.94599C22.5206 5.87842 22.6918 5.75091 22.8129 5.5813C22.9341 5.41168 22.9993 5.20844 22.9993 4.99999C22.9993 4.79154 22.9341 4.5883 22.8129 4.41868C22.6918 4.24907 22.5206 4.12156 22.3234 4.05399L21.9454 3.92399C21.5117 3.77599 21.1176 3.53059 20.7934 3.2066C20.4693 2.88261 20.2237 2.48867 20.0754 2.05499L19.9464 1.67699ZM18.1964 4.99999C18.4944 4.76399 18.7634 4.49399 19.0004 4.19599C19.2364 4.49399 19.5064 4.76399 19.8044 4.99999C19.5068 5.23659 19.237 5.50633 19.0004 5.80399C18.7639 5.5063 18.4941 5.23656 18.1964 4.99999ZM12.0004 1.99999C10.6743 1.99999 9.40257 2.52678 8.46489 3.46446C7.52721 4.40214 7.00043 5.67391 7.00043 6.99999V12C7.00043 13.3261 7.52721 14.5978 8.46489 15.5355C9.40257 16.4732 10.6743 17 12.0004 17C13.3265 17 14.5983 16.4732 15.536 15.5355C16.4736 14.5978 17.0004 13.3261 17.0004 12V9.99999C17.0004 9.73477 16.8951 9.48042 16.7075 9.29288C16.52 9.10535 16.2656 8.99999 16.0004 8.99999C15.7352 8.99999 15.4809 9.10535 15.2933 9.29288C15.1058 9.48042 15.0004 9.73477 15.0004 9.99999V12C15.0004 12.7956 14.6844 13.5587 14.1217 14.1213C13.5591 14.6839 12.7961 15 12.0004 15C11.2048 15 10.4417 14.6839 9.8791 14.1213C9.3165 13.5587 9.00043 12.7956 9.00043 12V6.99999C9.00023 6.54203 9.10489 6.09011 9.30637 5.67885C9.50786 5.26759 9.80082 4.90792 10.1628 4.62741C10.5248 4.34689 10.9462 4.15297 11.3947 4.06051C11.8433 3.96805 12.307 3.9795 12.7504 4.09399C12.8786 4.13009 13.0127 4.14023 13.1448 4.12382C13.277 4.1074 13.4045 4.06476 13.5199 3.9984C13.6354 3.93203 13.7364 3.84328 13.8171 3.73735C13.8978 3.63141 13.9565 3.51043 13.9898 3.38151C14.0231 3.25258 14.0303 3.1183 14.011 2.98655C13.9917 2.85479 13.9463 2.72822 13.8774 2.61426C13.8086 2.50029 13.7176 2.40123 13.6099 2.32288C13.5023 2.24453 13.38 2.18847 13.2504 2.15799C12.8484 2.05499 12.4304 1.99999 12.0004 1.99999ZM13.0004 19.938C14.7385 19.7185 16.3566 18.9349 17.6064 17.7073C18.8563 16.4796 19.6688 14.8759 19.9194 13.142C19.9571 12.8794 19.8889 12.6127 19.7299 12.4004C19.5708 12.1881 19.334 12.0477 19.0714 12.01C18.8089 11.9723 18.5421 12.0405 18.3298 12.1995C18.1175 12.3586 17.9771 12.5954 17.9394 12.858C17.7311 14.2844 17.0164 15.5882 15.9259 16.531C14.8354 17.4738 13.442 17.9926 12.0004 17.9926C10.5589 17.9926 9.16548 17.4738 8.07498 16.531C6.98449 15.5882 6.26974 14.2844 6.06143 12.858C6.02376 12.5954 5.88334 12.3586 5.67105 12.1995C5.45876 12.0405 5.19199 11.9723 4.92943 12.01C4.66686 12.0477 4.43001 12.1881 4.27098 12.4004C4.11195 12.6127 4.04376 12.8794 4.08143 13.142C4.33203 14.8759 5.14458 16.4796 6.39441 17.7073C7.64425 18.9349 9.26233 19.7185 11.0004 19.938V21C11.0004 21.2652 11.1058 21.5196 11.2933 21.7071C11.4809 21.8946 11.7352 22 12.0004 22C12.2656 22 12.52 21.8946 12.7075 21.7071C12.8951 21.5196 13.0004 21.2652 13.0004 21V19.938Z" fill="currentColor"/>
</svg>
