<svg width="24" height="24" viewBox="0 0 24 24" fill="none" xmlns="http://www.w3.org/2000/svg">
<path fill-rule="evenodd" clip-rule="evenodd" d="M15.6819 3.28198C16.0359 2.92817 16.5097 2.71997 17.0098 2.6985C17.5099 2.67702 17.9998 2.84383 18.3829 3.16598L18.5109 3.28198L19.2179 3.98998C19.5714 4.34396 19.7794 4.81759 19.8009 5.31742C19.8224 5.81725 19.6557 6.30697 19.3339 6.68998L19.2179 6.81798L18.5109 7.52498C18.4495 7.58573 18.3844 7.64251 18.3159 7.69498C18.4034 8.00866 18.4129 8.33897 18.3437 8.65719C18.2746 8.97542 18.1287 9.27193 17.9189 9.52098L17.8029 9.64598L16.8129 10.636C17.5013 11.2454 18.0524 11.9942 18.4294 12.8328C18.8065 13.6714 19.0009 14.5805 18.9999 15.5C18.9999 17.144 18.3899 18.645 17.3839 19.79L17.1899 20H19.9999C20.2547 20.0003 20.4999 20.0979 20.6852 20.2728C20.8706 20.4478 20.9821 20.6869 20.997 20.9414C21.012 21.1958 20.9292 21.4464 20.7656 21.6418C20.602 21.8373 20.37 21.9629 20.1169 21.993L19.9999 22H3.99987C3.74499 21.9997 3.49984 21.9021 3.3145 21.7271C3.12916 21.5522 3.01763 21.313 3.0027 21.0586C2.98776 20.8041 3.07054 20.5536 3.23413 20.3581C3.39772 20.1627 3.62977 20.0371 3.88287 20.007L3.99987 20H12.4999C13.4027 20.0001 14.2846 19.7286 15.0312 19.2209C15.7777 18.7132 16.3542 17.9927 16.6858 17.153C17.0175 16.3133 17.0889 15.3932 16.8907 14.5124C16.6926 13.6316 16.2341 12.8308 15.5749 12.214L15.3949 12.054L12.1469 15.304C11.7928 15.6581 11.3187 15.8664 10.8184 15.8879C10.3182 15.9094 9.828 15.7424 9.44487 15.42L9.31787 15.303L7.19687 13.182C6.84292 12.8281 6.63454 12.3543 6.61288 11.8542C6.59122 11.3542 6.75785 10.8642 7.07987 10.481L7.19687 10.354L12.8539 4.69698C13.1043 4.44642 13.4169 4.26689 13.7595 4.17676C14.1021 4.08662 14.4625 4.08911 14.8039 4.18398L14.8859 4.08398L14.9749 3.98998L15.6819 3.28198ZM6.48987 13.89L8.60987 16.01C8.70278 16.1028 8.77649 16.2131 8.8268 16.3344C8.87711 16.4557 8.90303 16.5858 8.90307 16.7171C8.90312 16.8485 8.87729 16.9785 8.82707 17.0999C8.77685 17.2213 8.70321 17.3316 8.61037 17.4245C8.51752 17.5174 8.40729 17.5911 8.28596 17.6414C8.16462 17.6917 8.03457 17.7176 7.90322 17.7177C7.77187 17.7177 7.6418 17.6919 7.52043 17.6417C7.39907 17.5915 7.28878 17.5178 7.19587 17.425L5.07387 15.303C4.88649 15.1152 4.78138 14.8607 4.78167 14.5954C4.78195 14.3301 4.8876 14.0759 5.07537 13.8885C5.26314 13.7011 5.51766 13.596 5.78293 13.5963C6.0482 13.5966 6.30249 13.7022 6.48987 13.89ZM14.2679 6.11198L8.60987 11.768L10.7309 13.889L16.3879 8.23198L14.2669 6.11098L14.2679 6.11198ZM17.0959 4.69798L16.3889 5.40498L17.0959 6.11198L17.8029 5.40498L17.0959 4.69798Z" fill="currentColor"/>
</svg>
