<svg width="24" height="24" viewBox="0 0 24 24" fill="none" xmlns="http://www.w3.org/2000/svg">
<path fill-rule="evenodd" clip-rule="evenodd" d="M12.5002 1C11.8371 1 11.2012 1.26339 10.7324 1.73223C10.2635 2.20107 10.0002 2.83696 10.0002 3.5V7.05C9.63689 6.97585 9.26167 6.98342 8.90169 7.07218C8.54171 7.16093 8.20598 7.32864 7.91882 7.56316C7.63165 7.79768 7.40025 8.09313 7.24136 8.42812C7.08247 8.76311 7.00008 9.12924 7.00015 9.5V10.462C6.73266 10.2357 6.44087 10.0399 6.13015 9.878C5.11015 9.36 4.12015 9.44 3.07715 9.866C2.23715 10.211 1.97015 11.174 2.33015 11.894L5.17215 17.578C5.83651 18.9066 6.85764 20.024 8.12117 20.805C9.38471 21.586 10.8407 21.9998 12.3262 22H13.0002C15.1219 22 17.1567 21.1571 18.657 19.6569C20.1573 18.1566 21.0002 16.1217 21.0002 14V11.5C21.0003 11.1259 20.9164 10.7564 20.7548 10.419C20.5931 10.0816 20.3578 9.78477 20.0661 9.55042C19.7745 9.31606 19.4339 9.15015 19.0696 9.06492C18.7053 8.9797 18.3265 8.97733 17.9612 9.058C17.9023 8.72989 17.7784 8.41687 17.5968 8.13734C17.4152 7.85781 17.1795 7.61743 16.9036 7.43034C16.6277 7.24324 16.3172 7.11321 15.9903 7.04789C15.6634 6.98258 15.3268 6.98329 15.0002 7.05V3.5C15.0002 2.83696 14.7368 2.20107 14.2679 1.73223C13.7991 1.26339 13.1632 1 12.5002 1ZM16.0002 9.5C16.0002 9.36739 15.9475 9.24021 15.8537 9.14645C15.7599 9.05268 15.6328 9 15.5002 9C15.3675 9 15.2404 9.05268 15.1466 9.14645C15.0528 9.24021 15.0002 9.36739 15.0002 9.5V11C15.0002 11.2652 14.8948 11.5196 14.7073 11.7071C14.5197 11.8946 14.2654 12 14.0002 12C13.7349 12 13.4806 11.8946 13.293 11.7071C13.1055 11.5196 13.0002 11.2652 13.0002 11V3.5C13.0002 3.36739 12.9475 3.24021 12.8537 3.14645C12.7599 3.05268 12.6328 3 12.5002 3C12.3675 3 12.2404 3.05268 12.1466 3.14645C12.0528 3.24021 12.0002 3.36739 12.0002 3.5V11C12.0002 11.2652 11.8948 11.5196 11.7073 11.7071C11.5197 11.8946 11.2654 12 11.0002 12C10.7349 12 10.4806 11.8946 10.293 11.7071C10.1055 11.5196 10.0002 11.2652 10.0002 11V9.5C10.0002 9.36739 9.94748 9.24021 9.85371 9.14645C9.75994 9.05268 9.63276 9 9.50015 9C9.36755 9 9.24037 9.05268 9.1466 9.14645C9.05283 9.24021 9.00015 9.36739 9.00015 9.5V13C8.99999 13.207 8.93558 13.4089 8.8158 13.5778C8.69602 13.7466 8.52679 13.8742 8.33145 13.9427C8.13611 14.0113 7.9243 14.0176 7.72524 13.9607C7.52619 13.9038 7.34971 13.7865 7.22015 13.625C6.29515 12.469 5.70315 11.905 5.22515 11.661C4.96974 11.5235 4.67353 11.482 4.39015 11.544L6.96015 16.684C7.45853 17.6804 8.22449 18.5184 9.17223 19.1041C10.12 19.6897 11.2121 20 12.3262 20H13.0002C14.5915 20 16.1176 19.3679 17.2428 18.2426C18.368 17.1174 19.0002 15.5913 19.0002 14V11.5C19.0002 11.3674 18.9475 11.2402 18.8537 11.1464C18.7599 11.0527 18.6328 11 18.5002 11C18.3675 11 18.2404 11.0527 18.1466 11.1464C18.0528 11.2402 18.0002 11.3674 18.0002 11.5V12C18.0002 12.2652 17.8948 12.5196 17.7073 12.7071C17.5197 12.8946 17.2654 13 17.0002 13C16.7349 13 16.4806 12.8946 16.293 12.7071C16.1055 12.5196 16.0002 12.2652 16.0002 12V9.5Z" fill="currentColor"/>
</svg>
