<svg width="24" height="24" viewBox="0 0 24 24" fill="none" xmlns="http://www.w3.org/2000/svg">
<path fill-rule="evenodd" clip-rule="evenodd" d="M19 3C19.5304 3 20.0391 3.21071 20.4142 3.58579C20.7893 3.96086 21 4.46957 21 5V19C21 19.5304 20.7893 20.0391 20.4142 20.4142C20.0391 20.7893 19.5304 21 19 21H5C4.46957 21 3.96086 20.7893 3.58579 20.4142C3.21071 20.0391 3 19.5304 3 19V5C3 4.46957 3.21071 3.96086 3.58579 3.58579C3.96086 3.21071 4.46957 3 5 3H19ZM13 14H11V19H13V14ZM7 5H5V19H9V14H8C7.75507 14 7.51866 13.91 7.33563 13.7473C7.15259 13.5845 7.03566 13.3603 7.007 13.117L7 13V5ZM19 5H17V13C17 13.2652 16.8946 13.5196 16.7071 13.7071C16.5196 13.8946 16.2652 14 16 14H15V19H19V5ZM15 5H13V12H15V5ZM11 5H9V12H11V5Z" fill="currentColor"/>
</svg>
