<svg width="24" height="24" viewBox="0 0 24 24" fill="none" xmlns="http://www.w3.org/2000/svg">
<path fill-rule="evenodd" clip-rule="evenodd" d="M14 2C14.7956 1.99284 15.5615 2.30204 16.1292 2.85959C16.6969 3.41713 17.0198 4.17735 17.027 4.973C17.0341 5.76865 16.7249 6.53456 16.1674 7.10223C15.6098 7.6699 14.8496 7.99284 14.054 8L13.836 8.653C14.3514 8.96601 14.7987 9.37926 15.1516 9.86829C15.5044 10.3573 15.7555 10.9122 15.89 11.5H17.209C17.4387 10.9736 17.8427 10.5424 18.353 10.2788C18.8633 10.0152 19.4488 9.93539 20.011 10.0527C20.5733 10.1701 21.078 10.4774 21.4402 10.9231C21.8025 11.3688 22.0003 11.9256 22.0003 12.5C22.0003 13.0744 21.8025 13.6312 21.4402 14.0769C21.078 14.5226 20.5733 14.8299 20.011 14.9473C19.4488 15.0646 18.8633 14.9848 18.353 14.7212C17.8427 14.4576 17.4387 14.0264 17.209 13.5H15.889C15.723 14.2296 15.3772 14.9061 14.883 15.468L15.587 16.172C16.1216 15.9622 16.7123 15.9429 17.2595 16.1173C17.8067 16.2918 18.2772 16.6493 18.5918 17.1299C18.9064 17.6104 19.046 18.1846 18.987 18.7559C18.928 19.3273 18.6741 19.8609 18.268 20.267C17.8618 20.6731 17.3282 20.927 16.7569 20.986C16.1856 21.045 15.6114 20.9054 15.1308 20.5908C14.6503 20.2762 14.2927 19.8057 14.1183 19.2585C13.9439 18.7113 13.9632 18.1207 14.173 17.586L13.239 16.652C12.6882 16.8826 12.097 17.0009 11.5 17C10.8128 17.0007 10.1346 16.8433 9.51797 16.54L8.64697 17.586C8.98029 18.2102 9.08225 18.9321 8.93482 19.6242C8.7874 20.3163 8.40009 20.934 7.84132 21.3681C7.28256 21.8023 6.58832 22.0249 5.88127 21.9968C5.17422 21.9686 4.49989 21.6914 3.97742 21.2142C3.45496 20.737 3.11799 20.0905 3.02607 19.3889C2.93416 18.6872 3.0932 17.9757 3.47511 17.38C3.85701 16.7843 4.43719 16.3428 5.11312 16.1334C5.78905 15.9241 6.51723 15.9604 7.16897 16.236L7.96297 15.282C7.33775 14.4896 6.99842 13.5093 6.99997 12.5C6.99997 11.765 7.17597 11.072 7.48797 10.459L6.61997 9.735C6.10642 9.99233 5.51992 10.065 4.95912 9.94069C4.39831 9.81641 3.8974 9.50281 3.54064 9.05261C3.18388 8.60242 2.99303 8.04311 3.00019 7.46874C3.00736 6.89437 3.21209 6.33998 3.57996 5.89883C3.94783 5.45767 4.4564 5.15665 5.02013 5.04639C5.58387 4.93613 6.16837 5.02337 6.67534 5.29342C7.18232 5.56347 7.58083 5.99987 7.80386 6.52922C8.02689 7.05857 8.06083 7.64857 7.89997 8.2L8.76997 8.924C9.67338 8.2317 10.8064 7.9092 11.939 8.022L12.157 7.368C11.6634 6.98412 11.3022 6.45564 11.1237 5.85642C10.9452 5.2572 10.9584 4.61718 11.1614 4.02582C11.3645 3.43447 11.7472 2.92132 12.2561 2.55811C12.765 2.1949 13.3747 1.99977 14 2ZM5.99997 18C5.73475 18 5.4804 18.1054 5.29286 18.2929C5.10533 18.4804 4.99997 18.7348 4.99997 19C4.99997 19.2652 5.10533 19.5196 5.29286 19.7071C5.4804 19.8946 5.73475 20 5.99997 20C6.26519 20 6.51954 19.8946 6.70708 19.7071C6.89461 19.5196 6.99997 19.2652 6.99997 19C6.99997 18.7348 6.89461 18.4804 6.70708 18.2929C6.51954 18.1054 6.26519 18 5.99997 18ZM16.5 18C16.3674 18 16.2402 18.0527 16.1464 18.1464C16.0526 18.2402 16 18.3674 16 18.5C16 18.6326 16.0526 18.7598 16.1464 18.8536C16.2402 18.9473 16.3674 19 16.5 19C16.6326 19 16.7598 18.9473 16.8535 18.8536C16.9473 18.7598 17 18.6326 17 18.5C17 18.3674 16.9473 18.2402 16.8535 18.1464C16.7598 18.0527 16.6326 18 16.5 18ZM11.5 10C10.8369 10 10.201 10.2634 9.7322 10.7322C9.26336 11.2011 8.99997 11.837 8.99997 12.5C8.99997 13.163 9.26336 13.7989 9.7322 14.2678C10.201 14.7366 10.8369 15 11.5 15C12.163 15 12.7989 14.7366 13.2677 14.2678C13.7366 13.7989 14 13.163 14 12.5C14 11.837 13.7366 11.2011 13.2677 10.7322C12.7989 10.2634 12.163 10 11.5 10ZM19.5 12C19.3674 12 19.2402 12.0527 19.1464 12.1464C19.0526 12.2402 19 12.3674 19 12.5C19 12.6326 19.0526 12.7598 19.1464 12.8536C19.2402 12.9473 19.3674 13 19.5 13C19.6326 13 19.7598 12.9473 19.8535 12.8536C19.9473 12.7598 20 12.6326 20 12.5C20 12.3674 19.9473 12.2402 19.8535 12.1464C19.7598 12.0527 19.6326 12 19.5 12ZM5.49997 7C5.36736 7 5.24019 7.05268 5.14642 7.14645C5.05265 7.24021 4.99997 7.36739 4.99997 7.5C4.99997 7.63261 5.05265 7.75978 5.14642 7.85355C5.24019 7.94732 5.36736 8 5.49997 8C5.63258 8 5.75976 7.94732 5.85352 7.85355C5.94729 7.75978 5.99997 7.63261 5.99997 7.5C5.99997 7.36739 5.94729 7.24021 5.85352 7.14645C5.75976 7.05268 5.63258 7 5.49997 7ZM14 4C13.7348 4 13.4804 4.10536 13.2929 4.29289C13.1053 4.48043 13 4.73478 13 5C13 5.26522 13.1053 5.51957 13.2929 5.70711C13.4804 5.89464 13.7348 6 14 6C14.2652 6 14.5195 5.89464 14.7071 5.70711C14.8946 5.51957 15 5.26522 15 5C15 4.73478 14.8946 4.48043 14.7071 4.29289C14.5195 4.10536 14.2652 4 14 4Z" fill="currentColor"/>
</svg>
