<svg width="24" height="24" viewBox="0 0 24 24" fill="none" xmlns="http://www.w3.org/2000/svg">
<path fill-rule="evenodd" clip-rule="evenodd" d="M19.9599 3.64998C20.1136 3.58021 20.2812 3.54674 20.4499 3.55214C20.6186 3.55755 20.7838 3.6017 20.9327 3.68116C21.0815 3.76063 21.2101 3.87329 21.3085 4.01042C21.4069 4.14756 21.4724 4.30548 21.4999 4.47198L21.5129 4.59198L22.3299 19.786C22.3395 19.9627 22.3064 20.139 22.2333 20.3002C22.1602 20.4613 22.0493 20.6024 21.91 20.7116C21.7708 20.8207 21.6072 20.8946 21.4333 20.9271C21.2594 20.9595 21.0802 20.9496 20.9109 20.898L20.8039 20.858L15.9069 18.791L12.6499 20.774C12.4765 20.8795 12.28 20.9412 12.0773 20.9538C11.8747 20.9663 11.672 20.9293 11.4869 20.846L11.3499 20.774L8.09292 18.791L3.19592 20.858C3.03303 20.9267 2.85598 20.9551 2.67977 20.9408C2.50356 20.9266 2.33338 20.87 2.18365 20.776C2.03393 20.682 1.90906 20.5533 1.81963 20.4008C1.73021 20.2484 1.67885 20.0765 1.66992 19.9V19.786L2.48692 4.59198C2.49602 4.42341 2.5438 4.25919 2.62655 4.11205C2.70931 3.9649 2.82482 3.83878 2.96415 3.74345C3.10347 3.64811 3.26287 3.58613 3.43 3.56229C3.59713 3.53845 3.7675 3.5534 3.92792 3.60598L4.03992 3.64998L9.39992 6.08298L11.9999 7.16598L14.6009 6.08198L19.9599 3.64998ZM14.0559 8.47598L12.4809 9.13298C12.2183 9.24242 11.9262 9.259 11.6529 9.17998L11.5189 9.13298L9.94392 8.47598L9.60192 17.368L11.9999 18.828L14.3979 17.368L14.0559 8.47598ZM19.5859 6.01598L16.0259 7.63198L16.3939 16.825L20.2559 18.456L19.5859 6.01598ZM4.41292 6.01598L3.74492 18.456L7.60592 16.826L7.97392 7.63198L4.41392 6.01498L4.41292 6.01598Z" fill="currentColor"/>
</svg>
