<svg width="24" height="24" viewBox="0 0 24 24" fill="none" xmlns="http://www.w3.org/2000/svg">
<path d="M20 12C20.5304 12 21.0391 12.2107 21.4142 12.5858C21.7893 12.9609 22 13.4696 22 14V18C22 18.5304 21.7893 19.0391 21.4142 19.4142C21.0391 19.7893 20.5304 20 20 20H15C14.4696 20 13.9609 19.7893 13.5858 19.4142C13.2107 19.0391 13 18.5304 13 18V14C13 13.4696 13.2107 12.9609 13.5858 12.5858C13.9609 12.2107 14.4696 12 15 12H20ZM19 4C19.5304 4 20.0391 4.21071 20.4142 4.58579C20.7893 4.96086 21 5.46957 21 6V10C21 10.2652 20.8946 10.5196 20.7071 10.7071C20.5196 10.8946 20.2652 11 20 11C19.7348 11 19.4804 10.8946 19.2929 10.7071C19.1054 10.5196 19 10.2652 19 10V6H4V17H11C11.2652 17 11.5196 17.1054 11.7071 17.2929C11.8946 17.4804 12 17.7348 12 18C12 18.2652 11.8946 18.5196 11.7071 18.7071C11.5196 18.8946 11.2652 19 11 19H4C3.46957 19 2.96086 18.7893 2.58579 18.4142C2.21071 18.0391 2 17.5304 2 17V6C2 5.46957 2.21071 4.96086 2.58579 4.58579C2.96086 4.21071 3.46957 4 4 4H19ZM20 14H15V18H20V14ZM7.087 7.673L9.002 9.588V9.002C9.002 8.73678 9.10736 8.48243 9.29489 8.29489C9.48243 8.10736 9.73678 8.002 10.002 8.002C10.2672 8.002 10.5216 8.10736 10.7091 8.29489C10.8966 8.48243 11.002 8.73678 11.002 9.002V12.002C11.002 12.2672 10.8966 12.5216 10.7091 12.7091C10.5216 12.8966 10.2672 13.002 10.002 13.002H7.002C6.73678 13.002 6.48243 12.8966 6.29489 12.7091C6.10736 12.5216 6.002 12.2672 6.002 12.002C6.002 11.7368 6.10736 11.4824 6.29489 11.2949C6.48243 11.1074 6.73678 11.002 7.002 11.002H7.588L5.673 9.087C5.57749 8.99475 5.50131 8.88441 5.4489 8.7624C5.39649 8.6404 5.3689 8.50918 5.36775 8.3764C5.3666 8.24362 5.3919 8.11194 5.44218 7.98905C5.49246 7.86615 5.56671 7.7545 5.6606 7.6606C5.7545 7.56671 5.86615 7.49246 5.98905 7.44218C6.11194 7.3919 6.24362 7.3666 6.3764 7.36775C6.50918 7.3689 6.6404 7.39649 6.7624 7.4489C6.88441 7.50131 6.99475 7.57749 7.087 7.673Z" fill="currentColor"/>
</svg>
