<svg width="24" height="24" viewBox="0 0 24 24" fill="none" xmlns="http://www.w3.org/2000/svg">
<path fill-rule="evenodd" clip-rule="evenodd" d="M21.778 3.37202C21.8984 3.52124 21.9733 3.7019 21.9938 3.89249C22.0144 4.08308 21.9797 4.27556 21.894 4.44702L19.894 8.44702C19.8199 8.5953 19.7101 8.72283 19.5745 8.81814C19.4388 8.91344 19.2816 8.97354 19.117 8.99302C18.079 9.11202 17.04 9.21302 16 9.29902V10.665C17.2724 10.4923 18.5388 10.2775 19.797 10.021C20.0545 9.97264 20.3207 10.0272 20.5383 10.173C20.7559 10.3189 20.9077 10.5443 20.9609 10.8008C21.0141 11.0573 20.9645 11.3245 20.8227 11.5448C20.681 11.7651 20.4585 11.921 20.203 11.979C19.803 12.061 19.402 12.137 19 12.209V18C19.2652 18 19.5196 18.1054 19.7071 18.2929C19.8947 18.4804 20 18.7348 20 19C20 19.2652 19.8947 19.5196 19.7071 19.7071C19.5196 19.8947 19.2652 20 19 20H14C13.7348 20 13.4804 19.8947 13.2929 19.7071C13.1054 19.5196 13 19.2652 13 19C13 18.7348 13.1054 18.4804 13.2929 18.2929C13.4804 18.1054 13.7348 18 14 18V12.905C13.308 12.964 12.626 13 12 13C11.374 13 10.692 12.963 10 12.905V18C10.2652 18 10.5196 18.1054 10.7071 18.2929C10.8947 18.4804 11 18.7348 11 19C11 19.2652 10.8947 19.5196 10.7071 19.7071C10.5196 19.8947 10.2652 20 10 20H5.00002C4.7348 20 4.48045 19.8947 4.29291 19.7071C4.10537 19.5196 4.00002 19.2652 4.00002 19C4.00002 18.7348 4.10537 18.4804 4.29291 18.2929C4.48045 18.1054 4.7348 18 5.00002 18V12.21C4.5981 12.1382 4.19707 12.0615 3.79702 11.98C3.5371 11.9262 3.30922 11.7713 3.16351 11.5494C3.01779 11.3276 2.96618 11.0569 3.02002 10.797C3.07385 10.5371 3.22874 10.3092 3.45059 10.1635C3.67245 10.0178 3.9431 9.96618 4.20302 10.02C5.46102 10.278 6.72802 10.49 8.00002 10.665V9.29902C6.95981 9.21336 5.92101 9.11135 4.88402 8.99302C4.71943 8.97301 4.56233 8.91271 4.42662 8.81747C4.29091 8.72223 4.18079 8.59499 4.10602 8.44702L2.10602 4.44702C2.02049 4.27552 1.98605 4.08305 2.00679 3.89253C2.02753 3.70201 2.10258 3.52146 2.22301 3.37238C2.34343 3.22329 2.50416 3.11196 2.68606 3.05161C2.86796 2.99127 3.06336 2.98447 3.24902 3.03202L3.71902 3.14902L4.67102 3.37302L5.52702 3.56402L6.16902 3.70102L6.50602 3.77002C6.77102 3.82302 7.04202 3.87702 7.31602 3.92802L8.14602 4.07802C9.53802 4.31802 10.944 4.50002 12 4.50002C13.057 4.50002 14.462 4.31902 15.853 4.07902L16.683 3.92902L17.493 3.76902L18.473 3.56402L19.329 3.37402L19.811 3.26102C20.125 3.18702 20.438 3.11102 20.75 3.03102C20.9359 2.98302 21.1317 2.98956 21.314 3.04985C21.4963 3.11014 21.6574 3.22264 21.778 3.37202ZM17 18V12.541L16.34 12.637L16 12.683V18H17ZM7.00002 12.541V18.001H8.00002V12.683L7.32502 12.589L7.00002 12.541ZM14 10.897V9.43702L13.173 9.47702C12.766 9.49102 12.37 9.50002 12 9.50002C11.63 9.50002 11.234 9.49102 10.827 9.47602L10 9.43802V10.897C10.703 10.96 11.387 11 12 11C12.49 11 13.026 10.975 13.581 10.932L14 10.897ZM18.349 7.06702L19.15 5.46302L17.975 5.71902C16.008 6.13902 14.003 6.50002 12 6.50002C9.99701 6.50002 7.99202 6.13902 6.02502 5.72002L4.85002 5.46202L5.65102 7.06502C7.75802 7.29102 9.88102 7.49902 12 7.49902C13.817 7.49902 15.636 7.34602 17.445 7.16002L18.349 7.06502V7.06702Z" fill="currentColor"/>
</svg>
