<svg width="24" height="24" viewBox="0 0 24 24" fill="none" xmlns="http://www.w3.org/2000/svg">
<path d="M13.194 2C14.2086 2.00029 15.1852 2.38615 15.926 3.07943C16.6668 3.77272 17.1165 4.72162 17.184 5.734L17.269 7.002C17.5332 6.98499 17.7933 7.07345 17.9924 7.24797C18.1915 7.4225 18.3132 7.66884 18.331 7.933L18.665 12.933C18.6828 13.1975 18.5949 13.4583 18.4205 13.658C18.2461 13.8578 17.9995 13.98 17.735 13.998L17.855 15.8C17.9044 16.5399 17.6781 17.2719 17.2198 17.8548C16.7615 18.4378 16.1036 18.8304 15.373 18.957L15.949 20.684C15.999 20.8343 16.0127 20.9944 15.9887 21.151C15.9648 21.3077 15.904 21.4564 15.8113 21.5849C15.7186 21.7134 15.5967 21.8181 15.4557 21.8903C15.3146 21.9624 15.1584 22 15 22H8.99997C8.8416 21.9999 8.68552 21.9621 8.54459 21.8899C8.40366 21.8177 8.2819 21.713 8.18933 21.5845C8.09677 21.456 8.03604 21.3074 8.01216 21.1508C7.98828 20.9942 8.00192 20.8343 8.05197 20.684L8.62697 18.957C7.89621 18.8306 7.23817 18.438 6.77982 17.855C6.32147 17.272 6.09531 16.5399 6.14497 15.8L6.26497 13.998C6.00062 13.98 5.75421 13.8579 5.57984 13.6584C5.40547 13.4589 5.3174 13.1984 5.33497 12.934L5.66897 7.934C5.68643 7.66967 5.80807 7.42306 6.00718 7.24833C6.20629 7.07359 6.4666 6.985 6.73097 7.002L6.81597 5.734C6.88344 4.72162 7.33311 3.77272 8.07393 3.07943C8.81475 2.38615 9.79134 2.00029 10.806 2H13.194ZM13.279 19H10.721L10.388 20H13.613L13.279 19ZM13.194 4H10.807C10.2993 3.99964 9.81051 4.19234 9.43968 4.53903C9.06884 4.88573 8.84373 5.36047 8.80997 5.867L8.13997 15.934C8.13094 16.0705 8.15001 16.2074 8.19602 16.3363C8.24203 16.4651 8.31398 16.5832 8.40744 16.6831C8.50089 16.783 8.61385 16.8627 8.73934 16.9172C8.86482 16.9717 9.00015 16.9999 9.13697 17H14.861C14.9979 17 15.1333 16.9719 15.2589 16.9175C15.3845 16.863 15.4976 16.7834 15.5912 16.6834C15.6847 16.5835 15.7568 16.4654 15.8028 16.3365C15.8489 16.2076 15.868 16.0706 15.859 15.934L15.189 5.867C15.1552 5.36064 14.9302 4.88604 14.5596 4.53937C14.189 4.19271 13.7004 3.99989 13.193 4H13.194ZM11.522 10.053C11.657 9.613 12.247 9.585 12.442 9.965L12.478 10.053L13.602 13.706C13.645 13.8462 13.6568 13.9941 13.6363 14.1393C13.6158 14.2846 13.5637 14.4235 13.4835 14.5463C13.4033 14.6691 13.2972 14.7728 13.1725 14.85C13.0478 14.9272 12.9076 14.976 12.762 14.993L12.646 15H11.354C11.2074 15 11.0626 14.9679 10.9298 14.9057C10.797 14.8436 10.6795 14.753 10.5856 14.6404C10.4917 14.5279 10.4238 14.396 10.3865 14.2542C10.3492 14.1124 10.3436 13.9642 10.37 13.82L10.398 13.706L11.522 10.053ZM10.5 7C10.7652 7 11.0195 7.10536 11.2071 7.29289C11.3946 7.48043 11.5 7.73478 11.5 8C11.5 8.26522 11.3946 8.51957 11.2071 8.70711C11.0195 8.89464 10.7652 9 10.5 9H9.99997C9.73475 9 9.4804 8.89464 9.29286 8.70711C9.10532 8.51957 8.99997 8.26522 8.99997 8C8.99997 7.73478 9.10532 7.48043 9.29286 7.29289C9.4804 7.10536 9.73475 7 9.99997 7H10.5ZM14 7C14.2548 7.00028 14.5 7.09788 14.6853 7.27285C14.8707 7.44782 14.9822 7.68695 14.9971 7.94139C15.0121 8.19584 14.9293 8.44638 14.7657 8.64183C14.6021 8.83729 14.3701 8.9629 14.117 8.993L14 9H13.5C13.2452 8.99947 13.0002 8.90169 12.815 8.72664C12.6299 8.55159 12.5186 8.31247 12.5038 8.05811C12.4889 7.80374 12.5718 7.55332 12.7354 7.35797C12.899 7.16263 13.131 7.03709 13.384 7.007L13.5 7H14Z" fill="currentColor"/>
</svg>
