<svg width="24" height="24" viewBox="0 0 24 24" fill="none" xmlns="http://www.w3.org/2000/svg">
<path fill-rule="evenodd" clip-rule="evenodd" d="M12 4C10.7789 3.99969 9.57391 4.27892 8.47739 4.8163C7.38088 5.35368 6.42193 6.13494 5.67403 7.10022C4.92613 8.0655 4.40913 9.18918 4.16264 10.3852C3.91616 11.5811 3.94672 12.8177 4.252 14H7V8C6.9999 7.78217 7.07093 7.57027 7.20229 7.3965C7.33365 7.22274 7.51815 7.09662 7.72775 7.03731C7.93735 6.97801 8.16058 6.98877 8.36351 7.06795C8.56644 7.14713 8.73796 7.29041 8.852 7.476L12 12.592L15.148 7.476C15.262 7.29041 15.4336 7.14713 15.6365 7.06795C15.8394 6.98877 16.0626 6.97801 16.2722 7.03731C16.4818 7.09662 16.6664 7.22274 16.7977 7.3965C16.9291 7.57027 17.0001 7.78217 17 8V14H19.748C20.0533 12.8177 20.0838 11.5811 19.8374 10.3852C19.5909 9.18918 19.0739 8.0655 18.326 7.10022C17.5781 6.13494 16.6191 5.35368 15.5226 4.8163C14.4261 4.27892 13.2211 3.99969 12 4ZM18.93 16H16C15.7348 16 15.4804 15.8946 15.2929 15.7071C15.1054 15.5196 15 15.2652 15 15V11.533L12.852 15.024C12.7625 15.1696 12.6372 15.2898 12.4881 15.3733C12.3389 15.4567 12.1709 15.5005 12 15.5005C11.8291 15.5005 11.6611 15.4567 11.5119 15.3733C11.3628 15.2898 11.2375 15.1696 11.148 15.024L9 11.533V15C9 15.2652 8.89464 15.5196 8.70711 15.7071C8.51957 15.8946 8.26522 16 8 16H5.07C5.77207 17.2166 6.7822 18.2269 7.99875 18.9291C9.2153 19.6312 10.5953 20.0006 12 20C13.4047 20.0006 14.7847 19.6312 16.0013 18.9291C17.2178 18.2269 18.2279 17.2166 18.93 16ZM2 12C2 6.477 6.477 2 12 2C17.523 2 22 6.477 22 12C22 17.523 17.523 22 12 22C6.477 22 2 17.523 2 12Z" fill="currentColor"/>
</svg>
