<svg width="24" height="24" viewBox="0 0 24 24" fill="none" xmlns="http://www.w3.org/2000/svg">
<path fill-rule="evenodd" clip-rule="evenodd" d="M19.66 4.21602C20.867 4.02202 22 4.94402 22 6.20002V15.8C22 17.056 20.868 17.978 19.66 17.785C17.4567 17.4281 15.2314 17.2236 13 17.173V18.535C13.713 18.584 14.38 18.675 14.914 18.764C15.356 18.837 15.798 18.921 16.234 19.028C16.76 19.158 17.102 19.713 16.97 20.243C16.9055 20.5001 16.7417 20.721 16.5144 20.8573C16.2872 20.9936 16.0151 21.0342 15.758 20.97C15.3704 20.8779 14.9794 20.8002 14.586 20.737C13.7317 20.5891 12.8669 20.5099 12 20.5C11.076 20.5 10.135 20.616 9.414 20.736C9.022 20.802 8.629 20.875 8.243 20.97C7.98648 21.0323 7.71573 20.9907 7.48979 20.8542C7.26385 20.7177 7.10105 20.4974 7.0369 20.2413C6.97275 19.9852 7.01246 19.7142 7.14735 19.4873C7.28225 19.2604 7.5014 19.096 7.757 19.03C8.19634 18.924 8.63968 18.8352 9.086 18.764C9.62 18.674 10.286 18.584 11 18.535V17.173C8.76857 17.2236 6.54328 17.4281 4.34 17.785C3.133 17.978 2 17.055 2 15.8V6.20002C2 4.94402 3.132 4.02202 4.34 4.21602C9.514 5.04502 14.486 5.04502 19.66 4.21602ZM19.983 6.19002H19.976C14.6937 7.05274 9.30634 7.05274 4.024 6.19002H4.013C4.00928 6.19129 4.00588 6.19334 4.003 6.19602L4 6.20002V15.8L4.003 15.804C4.00598 15.8063 4.00937 15.808 4.013 15.809L4.017 15.81H4.024C9.30634 14.9473 14.6937 14.9473 19.976 15.81H19.987C19.9907 15.8087 19.9941 15.8067 19.997 15.804L20 15.801V6.20002L19.997 6.19602C19.994 6.1937 19.9906 6.19199 19.987 6.19102L19.983 6.19002Z" fill="currentColor"/>
</svg>
