<svg width="24" height="24" viewBox="0 0 24 24" fill="none" xmlns="http://www.w3.org/2000/svg">
<path fill-rule="evenodd" clip-rule="evenodd" d="M16 17V5.23603L16.888 3.46003C16.9603 3.31555 16.9968 3.15585 16.9946 2.99432C16.9924 2.83279 16.9514 2.67416 16.8752 2.53172C16.799 2.38929 16.6897 2.26721 16.5566 2.17574C16.4234 2.08427 16.2703 2.02607 16.11 2.00603L12.155 1.51203C12.0521 1.49916 11.9479 1.49916 11.845 1.51203L7.89 2.00603C7.72971 2.02607 7.57656 2.08427 7.44341 2.17574C7.31026 2.26721 7.20099 2.38929 7.12478 2.53172C7.04857 2.67416 7.00763 2.83279 7.00541 2.99432C7.00318 3.15585 7.03974 3.31555 7.112 3.46003L8 5.23603V17H6.25C5.56 17 5 17.56 5 18.25V20H4C3.73478 20 3.48043 20.1054 3.29289 20.2929C3.10536 20.4805 3 20.7348 3 21C3 21.2652 3.10536 21.5196 3.29289 21.7071C3.48043 21.8947 3.73478 22 4 22H20C20.2652 22 20.5196 21.8947 20.7071 21.7071C20.8946 21.5196 21 21.2652 21 21C21 20.7348 20.8946 20.4805 20.7071 20.2929C20.5196 20.1054 20.2652 20 20 20H19V18.25C19 17.56 18.44 17 17.75 17H16ZM12 3.50803L9.527 3.81703L9.789 4.34203C9.92774 4.61962 9.99998 4.92569 10 5.23603V17H14V5.23603C14 4.92569 14.0723 4.61962 14.211 4.34203L14.473 3.81703L12 3.50803ZM17 20V19H7V20H17Z" fill="currentColor"/>
</svg>
