<svg width="24" height="24" viewBox="0 0 24 24" fill="none" xmlns="http://www.w3.org/2000/svg">
<path fill-rule="evenodd" clip-rule="evenodd" d="M12.4765 4.54599C12.4012 4.3785 12.3729 4.19364 12.3948 4.01128C12.4166 3.82893 12.4878 3.65599 12.6006 3.51107C12.7135 3.36616 12.8637 3.25475 13.0351 3.18883C13.2065 3.12292 13.3927 3.10499 13.5735 3.13699C15.7911 3.5284 17.7814 4.7369 19.1516 6.52397C20.5217 8.31103 21.1721 10.5468 20.9745 12.79C20.7768 15.0331 19.7454 17.1207 18.0839 18.6406C16.4224 20.1606 14.2514 21.0024 11.9995 21C7.56554 21 3.88154 17.794 3.13654 13.574C3.10454 13.3931 3.12247 13.207 3.18838 13.0356C3.2543 12.8641 3.36571 12.7139 3.51062 12.6011C3.65554 12.4883 3.82848 12.4171 4.01083 12.3952C4.19319 12.3734 4.37805 12.4016 4.54554 12.477C5.65543 12.9752 6.89057 13.1243 8.08714 12.9044C9.28371 12.6846 10.3852 12.1061 11.2454 11.2459C12.1057 10.3856 12.6841 9.28416 12.904 8.08759C13.1239 6.89102 12.9748 5.65588 12.4765 4.54599ZM14.8805 5.61799C15.1028 6.88374 15.0168 8.18441 14.63 9.40991C14.2431 10.6354 13.5667 11.7497 12.6579 12.6584C11.7492 13.5671 10.635 14.2435 9.40946 14.6304C8.18396 15.0173 6.88329 15.1032 5.61754 14.881C6.27691 16.3391 7.41587 17.5274 8.84477 18.248C10.2737 18.9685 11.9063 19.1779 13.4707 18.8412C15.0352 18.5045 16.4372 17.6421 17.4431 16.3975C18.4491 15.1529 18.9984 13.6013 18.9995 12.001C18.9998 10.6534 18.6113 9.33436 17.8805 8.20214C17.1497 7.06993 16.1087 6.17265 14.8805 5.61799ZM5.56454 7.71599L5.62854 7.85599C5.90139 8.41971 6.33084 8.89291 6.86554 9.21899L6.96554 9.27799C6.97593 9.28394 6.98456 9.29253 6.99056 9.30289C6.99657 9.31325 6.99973 9.32502 6.99973 9.33699C6.99973 9.34896 6.99657 9.36072 6.99056 9.37109C6.98456 9.38145 6.97593 9.39004 6.96554 9.39599L6.86554 9.45399C6.3307 9.78034 5.90123 10.2539 5.62854 10.818L5.56454 10.958C5.55899 10.9706 5.54989 10.9813 5.53835 10.9889C5.52681 10.9964 5.51332 11.0004 5.49954 11.0004C5.48575 11.0004 5.47227 10.9964 5.46073 10.9889C5.44918 10.9813 5.44008 10.9706 5.43454 10.958L5.37054 10.818C5.09785 10.2539 4.66838 9.78034 4.13354 9.45399L4.03354 9.39599C4.02315 9.39004 4.01452 9.38145 4.00851 9.37109C4.00251 9.36072 3.99935 9.34896 3.99935 9.33699C3.99935 9.32502 4.00251 9.31325 4.00851 9.30289C4.01452 9.29253 4.02315 9.28394 4.03354 9.27799L4.13354 9.21899C4.66801 8.89249 5.09712 8.41895 5.36954 7.85499L5.43354 7.71499C5.43908 7.70237 5.44818 7.69164 5.45973 7.6841C5.47127 7.67657 5.48475 7.67256 5.49854 7.67256C5.51232 7.67256 5.52581 7.67657 5.53735 7.6841C5.54889 7.69164 5.55799 7.70237 5.56354 7.71499L5.56454 7.71599ZM8.39654 2.85699C8.43654 2.76699 8.56254 2.76699 8.60254 2.85699L8.70454 3.07899C9.13873 3.97733 9.82271 4.73145 10.6745 5.25099L10.8315 5.34299C10.8484 5.35233 10.8625 5.36602 10.8723 5.38264C10.8821 5.39926 10.8873 5.4182 10.8873 5.43749C10.8873 5.45678 10.8821 5.47572 10.8723 5.49234C10.8625 5.50896 10.8484 5.52265 10.8315 5.53199L10.6735 5.62399C9.75108 6.18697 9.02741 7.02391 8.60354 8.01799C8.59472 8.0381 8.58024 8.05521 8.56186 8.06723C8.54348 8.07924 8.522 8.08564 8.50004 8.08564C8.47808 8.08564 8.4566 8.07924 8.43821 8.06723C8.41983 8.05521 8.40535 8.0381 8.39654 8.01799L8.29454 7.79599C7.86035 6.89765 7.17637 6.14353 6.32454 5.62399L6.16654 5.53199C6.14966 5.52265 6.13559 5.50896 6.12579 5.49234C6.11599 5.47572 6.11082 5.45678 6.11082 5.43749C6.11082 5.4182 6.11599 5.39926 6.12579 5.38264C6.13559 5.36602 6.14966 5.35233 6.16654 5.34299L6.32454 5.25099C7.17637 4.73145 7.86035 3.97733 8.29454 3.07899L8.39654 2.85699Z" fill="currentColor"/>
</svg>
