<svg width="24" height="24" viewBox="0 0 24 24" fill="none" xmlns="http://www.w3.org/2000/svg">
<path fill-rule="evenodd" clip-rule="evenodd" d="M13.44 2.13001C13.2541 2.09633 13.0625 2.11598 12.8873 2.1867C12.7122 2.25742 12.5606 2.37631 12.4502 2.52961C12.3398 2.6829 12.2751 2.86432 12.2636 3.05288C12.252 3.24143 12.2941 3.42939 12.385 3.59501C12.9064 4.54379 13.1058 5.63618 12.9532 6.70799C12.8005 7.7798 12.3042 8.77311 11.5386 9.53864C10.7731 10.3042 9.77979 10.8005 8.70798 10.9532C7.63618 11.1058 6.54379 10.9064 5.595 10.385C5.42939 10.2941 5.24142 10.252 5.05287 10.2636C4.86432 10.2751 4.68289 10.3398 4.5296 10.4502C4.37631 10.5606 4.25742 10.7122 4.1867 10.8873C4.11598 11.0625 4.09632 11.2541 4.13 11.44C4.25522 12.1283 4.47075 12.7971 4.771 13.429C4.87271 13.6446 5.04807 13.8167 5.26549 13.9144C5.4829 14.0121 5.72807 14.029 5.95679 13.9619C6.18552 13.8948 6.38277 13.7483 6.51299 13.5486C6.6432 13.349 6.69782 13.1094 6.667 12.873C7.7857 13.0903 8.94054 13.0312 10.0312 12.7008C11.1219 12.3704 12.1154 11.7787 12.9254 10.9772C13.7355 10.1756 14.3376 9.18834 14.6794 8.10121C15.0213 7.01408 15.0925 5.85993 14.887 4.73901C16.2289 5.4747 17.239 6.69536 17.7106 8.15125C18.1822 9.60715 18.0797 11.1882 17.424 12.571C17.3677 12.6897 17.3352 12.8182 17.3286 12.9494C17.322 13.0806 17.3412 13.2118 17.3853 13.3355C17.4293 13.4593 17.4973 13.5731 17.5854 13.6706C17.6735 13.768 17.7799 13.8472 17.8985 13.9035C18.0171 13.9598 18.1457 13.9923 18.2769 13.9989C18.4081 14.0055 18.5393 13.9863 18.663 13.9422C18.7868 13.8982 18.9006 13.8302 18.9981 13.7421C19.0955 13.654 19.1747 13.5477 19.231 13.429C19.7569 12.32 20.0207 11.1048 20.0018 9.87749C19.983 8.6502 19.6821 7.4437 19.1223 6.35132C18.5626 5.25893 17.7591 4.30995 16.7739 3.5778C15.7888 2.84564 14.6484 2.34992 13.441 2.12901L13.44 2.13001ZM3 16C3 15.7348 3.10536 15.4804 3.29289 15.2929C3.48043 15.1054 3.73478 15 4 15H20C20.2652 15 20.5196 15.1054 20.7071 15.2929C20.8946 15.4804 21 15.7348 21 16C21 16.2652 20.8946 16.5196 20.7071 16.7071C20.5196 16.8946 20.2652 17 20 17H4C3.73478 17 3.48043 16.8946 3.29289 16.7071C3.10536 16.5196 3 16.2652 3 16ZM6 20C6 19.7348 6.10536 19.4804 6.29289 19.2929C6.48043 19.1054 6.73478 19 7 19H17C17.2652 19 17.5196 19.1054 17.7071 19.2929C17.8946 19.4804 18 19.7348 18 20C18 20.2652 17.8946 20.5196 17.7071 20.7071C17.5196 20.8946 17.2652 21 17 21H7C6.73478 21 6.48043 20.8946 6.29289 20.7071C6.10536 20.5196 6 20.2652 6 20Z" fill="currentColor"/>
</svg>
