<svg width="24" height="24" viewBox="0 0 24 24" fill="none" xmlns="http://www.w3.org/2000/svg">
<path fill-rule="evenodd" clip-rule="evenodd" d="M14.9026 4.66999L14.7996 4.42099C14.4646 3.67499 15.1056 2.87599 15.8946 3.01499C17.0897 3.22739 18.2143 3.73043 19.1692 4.4798C20.1241 5.22917 20.88 6.20187 21.3704 7.31222C21.8608 8.42256 22.0707 9.63647 21.9814 10.847C21.8922 12.0576 21.5066 13.2276 20.8586 14.254C21.0421 15.0426 21.0492 15.862 20.8795 16.6536C20.7097 17.4453 20.3672 18.1897 19.8765 18.8337C19.3858 19.4777 18.759 20.0055 18.0408 20.3793C17.3225 20.753 16.5307 20.9636 15.7216 20.996L15.5006 21H6.50065C5.43786 21.0011 4.40898 20.6259 3.59628 19.9411C2.78358 19.2562 2.23951 18.3058 2.06044 17.2582C1.88137 16.2106 2.07886 15.1334 2.61792 14.2175C3.15699 13.3016 4.00284 12.606 5.00565 12.254C4.95547 11.0719 5.25592 9.90133 5.86921 8.88952C6.48249 7.8777 7.38124 7.06979 8.45244 6.56738C9.52364 6.06496 10.7195 5.89047 11.8896 6.06584C13.0597 6.24121 14.1518 6.75861 15.0286 7.55299C15.2965 6.6033 15.2523 5.5927 14.9026 4.66999ZM11.0006 7.99999C10.4292 7.99993 9.86437 8.12231 9.34419 8.35889C8.82401 8.59548 8.36057 8.94077 7.98506 9.37152C7.60955 9.80227 7.33069 10.3085 7.16727 10.8561C7.00384 11.4036 6.95964 11.9799 7.03765 12.546L7.08264 12.81C7.1109 12.9473 7.11027 13.089 7.08079 13.226C7.05132 13.363 6.99364 13.4924 6.91143 13.606C6.82922 13.7195 6.72428 13.8147 6.60329 13.8854C6.4823 13.9562 6.3479 14.001 6.20865 14.017C5.58881 14.0892 5.01838 14.3906 4.60947 14.862C4.20055 15.3334 3.98271 15.9406 3.99875 16.5645C4.01479 17.1883 4.26355 17.7836 4.69615 18.2333C5.12876 18.683 5.71392 18.9547 6.33665 18.995L6.50065 19H15.5006C16.4024 19.0019 17.2702 18.6556 17.9229 18.0334C18.5757 17.4112 18.9631 16.561 19.0043 15.6602C19.0456 14.7593 18.7375 13.8773 18.1444 13.198C17.5513 12.5187 16.7188 12.0945 15.8206 12.014C15.604 11.9941 15.3996 11.9048 15.2378 11.7594C15.076 11.614 14.9655 11.4203 14.9226 11.207C14.7392 10.302 14.2485 9.48837 13.5337 8.90388C12.8189 8.31939 11.924 8.00005 11.0006 7.99999ZM17.1576 5.54499C17.3145 6.88209 17.0569 8.2351 16.4196 9.42099C16.5286 9.65099 16.6236 9.88799 16.7036 10.132C17.891 10.3981 18.9567 11.0505 19.7336 11.987C19.9066 11.457 20.0006 10.891 20.0006 10.303C20.001 9.32702 19.7368 8.36921 19.2362 7.53141C18.7356 6.6936 18.0173 6.00713 17.1576 5.54499Z" fill="currentColor"/>
</svg>
