<svg width="24" height="24" viewBox="0 0 24 24" fill="none" xmlns="http://www.w3.org/2000/svg">
<path fill-rule="evenodd" clip-rule="evenodd" d="M13.5735 3.137C13.3927 3.105 13.2065 3.12292 13.0351 3.18884C12.8637 3.25475 12.7135 3.36616 12.6006 3.51108C12.4878 3.656 12.4166 3.82894 12.3948 4.01129C12.3729 4.19364 12.4012 4.37851 12.4765 4.546C12.9748 5.65589 13.1239 6.89103 12.904 8.08759C12.6841 9.28416 12.1057 10.3856 11.2454 11.2459C10.3852 12.1062 9.28371 12.6846 8.08714 12.9045C6.89057 13.1243 5.65543 12.9752 4.54554 12.477C4.37805 12.4016 4.19319 12.3734 4.01083 12.3952C3.82848 12.4171 3.65554 12.4883 3.51062 12.6011C3.36571 12.7139 3.2543 12.8641 3.18838 13.0356C3.12247 13.207 3.10454 13.3931 3.13654 13.574C3.52794 15.7916 4.73645 17.7819 6.52351 19.152C8.31058 20.5221 10.5463 21.1726 12.7895 20.9749C15.0327 20.7773 17.1203 19.7459 18.6402 18.0843C20.1601 16.4228 21.002 14.2519 20.9995 12C20.9995 7.566 17.7935 3.882 13.5735 3.137ZM14.8805 5.618C16.3388 6.27741 17.5271 7.41645 18.2476 8.84545C18.9682 10.2744 19.1775 11.9072 18.8406 13.4717C18.5038 15.0362 17.6412 16.4382 16.3964 17.444C15.1517 18.4499 13.5999 18.9991 11.9995 19C10.6521 19.0001 9.33329 18.6115 8.20127 17.8807C7.06925 17.1499 6.17213 16.108 5.61754 14.88C6.88329 15.1022 8.18396 15.0163 9.40946 14.6294C10.635 14.2425 11.7492 13.5661 12.6579 12.6574C13.5667 11.7487 14.2431 10.6344 14.63 9.40892C15.0168 8.18342 15.1028 6.88375 14.8805 5.618Z" fill="currentColor"/>
</svg>
