<svg width="24" height="24" viewBox="0 0 24 24" fill="none" xmlns="http://www.w3.org/2000/svg">
<path d="M12.0008 2C12.2458 2.00003 12.4822 2.08996 12.6652 2.25272C12.8483 2.41547 12.9652 2.63975 12.9938 2.883L13.0008 3.01C13.0006 3.26488 12.903 3.51003 12.728 3.69537C12.553 3.8807 12.3139 3.99223 12.0595 4.00717C11.805 4.02211 11.5545 3.93933 11.359 3.77574C11.1636 3.61214 11.0379 3.3801 11.0078 3.127L11.0008 3C11.0008 2.73478 11.1062 2.48043 11.2937 2.29289C11.4813 2.10536 11.7356 2 12.0008 2ZM17.6508 17.65C17.823 17.4778 18.0521 17.3744 18.2952 17.3591C18.5382 17.3438 18.7784 17.4177 18.9708 17.567L19.0718 17.657C19.2512 17.837 19.3553 18.0784 19.3631 18.3324C19.3708 18.5863 19.2816 18.8337 19.1136 19.0243C18.9456 19.2148 18.7113 19.3343 18.4584 19.3584C18.2054 19.3825 17.9528 19.3094 17.7518 19.154L17.6578 19.071C17.5637 18.9783 17.4889 18.868 17.4376 18.7463C17.3863 18.6246 17.3595 18.494 17.3589 18.362C17.3582 18.2299 17.3837 18.099 17.4338 17.9768C17.4839 17.8547 17.5577 17.7436 17.6508 17.65ZM4.93685 17.65C5.1168 17.4707 5.35828 17.3665 5.61223 17.3588C5.86618 17.351 6.11356 17.4402 6.30412 17.6082C6.49469 17.7763 6.61415 18.0106 6.63824 18.2635C6.66234 18.5164 6.58926 18.769 6.43385 18.97L6.35085 19.064C6.17209 19.2458 5.93063 19.3525 5.67585 19.3622C5.42106 19.3719 5.17219 19.2839 4.98012 19.1162C4.78805 18.9485 4.66728 18.7138 4.6425 18.4601C4.61773 18.2063 4.69083 17.9527 4.84685 17.751L4.93685 17.65ZM10.7538 5.11C10.9496 5.07487 11.1514 5.09892 11.3334 5.17907C11.5154 5.25921 11.6694 5.39181 11.7757 5.55992C11.882 5.72803 11.9357 5.92402 11.93 6.12282C11.9244 6.32163 11.8595 6.51423 11.7438 6.676C11.1933 7.4465 10.9341 8.3873 11.0121 9.33103C11.0902 10.2748 11.5005 11.1602 12.1701 11.8298C12.8397 12.4994 13.7251 12.9097 14.6688 12.9877C15.6125 13.0658 16.5534 12.8065 17.3238 12.256C17.4856 12.1403 17.6782 12.0755 17.877 12.0698C18.0758 12.0641 18.2718 12.1179 18.4399 12.2241C18.608 12.3304 18.7406 12.4844 18.8208 12.6664C18.9009 12.8485 18.925 13.0502 18.8898 13.246C18.5748 14.963 17.6297 16.5004 16.2399 17.5568C14.8501 18.6132 13.1159 19.1123 11.3772 18.9563C9.63847 18.8003 8.02074 18.0005 6.84117 16.7136C5.66159 15.4268 5.00526 13.7457 5.00085 12C5.00085 8.56 7.48285 5.699 10.7538 5.11ZM9.09585 7.93C8.50504 8.35212 8.01325 8.89785 7.65469 9.52925C7.29613 10.1607 7.07939 10.8626 7.01954 11.5862C6.9597 12.3099 7.05818 13.0378 7.30815 13.7196C7.55811 14.4013 7.95356 15.0204 8.467 15.5338C8.98044 16.0473 9.59954 16.4427 10.2813 16.6927C10.963 16.9427 11.691 17.0411 12.4146 16.9813C13.1383 16.9215 13.8402 16.7047 14.4716 16.3462C15.103 15.9876 15.6487 15.4958 16.0708 14.905C15.1169 15.078 14.1352 15.0172 13.2098 14.7278C12.2845 14.4385 11.443 13.9292 10.7575 13.2436C10.072 12.558 9.56282 11.7164 9.27361 10.7911C8.98439 9.86566 8.92274 8.88396 9.09585 7.93ZM17.3858 9.167C17.6377 9.08388 17.9122 9.10419 18.149 9.22346C18.3859 9.34273 18.5657 9.55119 18.6488 9.803C18.6978 9.95 18.7418 10.1 18.7798 10.251C18.8172 10.3796 18.8284 10.5144 18.8127 10.6475C18.797 10.7805 18.7548 10.909 18.6884 11.0254C18.6221 11.1418 18.5331 11.2436 18.4266 11.3249C18.3202 11.4062 18.1985 11.4653 18.0687 11.4987C17.939 11.5321 17.8039 11.5391 17.6714 11.5192C17.539 11.4994 17.4118 11.4531 17.2976 11.3832C17.1833 11.3132 17.0843 11.2211 17.0064 11.1121C16.9284 11.0032 16.8731 10.8797 16.8438 10.749C16.8161 10.6416 16.7848 10.5352 16.7498 10.43C16.6667 10.1782 16.687 9.90365 16.8063 9.6668C16.9256 9.42994 17.134 9.25016 17.3858 9.167ZM15.1998 6.826C15.3745 6.62674 15.621 6.50492 15.8854 6.4873C16.1498 6.46967 16.4103 6.55768 16.6098 6.732C16.8438 6.937 17.0638 7.157 17.2688 7.391C17.357 7.48956 17.4248 7.60463 17.4682 7.72955C17.5116 7.85447 17.5298 7.98676 17.5217 8.11877C17.5137 8.25077 17.4795 8.37986 17.4212 8.49857C17.3629 8.61728 17.2817 8.72325 17.1821 8.81034C17.0826 8.89743 16.9668 8.96392 16.8414 9.00595C16.716 9.04798 16.5835 9.06472 16.4516 9.0552C16.3197 9.04568 16.191 9.0101 16.073 8.9505C15.9549 8.8909 15.8498 8.80848 15.7638 8.708C15.6178 8.54079 15.4607 8.38344 15.2938 8.237C15.0943 8.06235 14.9723 7.81558 14.9546 7.55097C14.937 7.28636 15.0252 7.02558 15.1998 6.826ZM12.5328 5.94C12.5988 5.68316 12.764 5.46302 12.9923 5.328C13.2205 5.19298 13.493 5.15413 13.7498 5.22C13.9018 5.26 14.0498 5.304 14.1978 5.352C14.3226 5.39317 14.438 5.45851 14.5375 5.54429C14.637 5.63006 14.7187 5.7346 14.7778 5.85193C14.8369 5.96925 14.8723 6.09707 14.882 6.22809C14.8917 6.3591 14.8755 6.49074 14.8343 6.6155C14.7932 6.74026 14.7278 6.85568 14.6421 6.95519C14.5563 7.05469 14.4517 7.13632 14.3344 7.19543C14.2171 7.25453 14.0893 7.28995 13.9583 7.29966C13.8272 7.30936 13.6956 7.29317 13.5708 7.252C13.4653 7.21708 13.3585 7.18573 13.2508 7.158C12.9942 7.09164 12.7743 6.92606 12.6397 6.69765C12.505 6.46925 12.4666 6.19673 12.5328 5.94ZM4.92985 4.93C5.10191 4.75768 5.33095 4.65406 5.57397 4.6386C5.817 4.62313 6.05732 4.69688 6.24985 4.846L6.34385 4.929C6.52566 5.10776 6.63232 5.34921 6.64203 5.604C6.65174 5.85878 6.56376 6.10765 6.39608 6.29973C6.22839 6.4918 5.99368 6.61257 5.73991 6.63734C5.48615 6.66211 5.23251 6.58902 5.03085 6.433L4.93685 6.35C4.8429 6.25736 4.76817 6.14708 4.71695 6.02549C4.66573 5.9039 4.63903 5.77339 4.63838 5.64145C4.63773 5.50952 4.66314 5.37875 4.71316 5.25666C4.76318 5.13457 4.83681 5.02356 4.92985 4.93ZM17.6578 4.93C17.8378 4.75065 18.0793 4.64653 18.3332 4.63877C18.5872 4.63102 18.8346 4.72022 19.0251 4.88825C19.2157 5.05628 19.3351 5.29055 19.3592 5.54347C19.3833 5.7964 19.3103 6.04901 19.1548 6.25L19.0648 6.35C18.8849 6.52935 18.6434 6.63347 18.3895 6.64123C18.1355 6.64898 17.8881 6.55978 17.6976 6.39175C17.507 6.22372 17.3875 5.98945 17.3634 5.73653C17.3394 5.4836 17.4124 5.23099 17.5678 5.03L17.6578 4.93ZM22.0008 12C22.0008 12.2449 21.9109 12.4813 21.7481 12.6644C21.5854 12.8474 21.3611 12.9643 21.1178 12.993L20.9908 13C20.736 12.9997 20.4908 12.9021 20.3055 12.7272C20.1201 12.5522 20.0086 12.313 19.9937 12.0586C19.9787 11.8042 20.0615 11.5536 20.2251 11.3582C20.3887 11.1627 20.6207 11.0371 20.8738 11.007L21.0008 11C21.2661 11 21.5204 11.1054 21.708 11.2929C21.8955 11.4804 22.0008 11.7348 22.0008 12ZM12.0008 19.99C12.2459 19.9901 12.4825 20.0801 12.6655 20.2431C12.8486 20.4061 12.9654 20.6306 12.9938 20.874L13.0008 21C13.0006 21.2549 12.903 21.5 12.728 21.6854C12.553 21.8707 12.3139 21.9822 12.0595 21.9972C11.805 22.0121 11.5545 21.9293 11.359 21.7657C11.1636 21.6021 11.0379 21.3701 11.0078 21.117L11.0008 20.99C11.0008 20.7248 11.1062 20.4704 11.2937 20.2829C11.4813 20.0954 11.7356 19.99 12.0008 19.99ZM4.01085 12C4.01081 12.2449 3.92089 12.4813 3.75813 12.6644C3.59537 12.8474 3.3711 12.9643 3.12785 12.993L3.00085 13C2.74597 12.9997 2.50081 12.9021 2.31548 12.7272C2.13014 12.5522 2.01861 12.313 2.00367 12.0586C1.98874 11.8042 2.07152 11.5536 2.23511 11.3582C2.3987 11.1627 2.63075 11.0371 2.88385 11.007L3.01085 11C3.27606 11 3.53042 11.1054 3.71795 11.2929C3.90549 11.4804 4.01085 11.7348 4.01085 12Z" fill="currentColor"/>
</svg>
