<svg width="24" height="24" viewBox="0 0 24 24" fill="none" xmlns="http://www.w3.org/2000/svg">
<path fill-rule="evenodd" clip-rule="evenodd" d="M2.2778 8.994C2.08964 8.90482 1.93067 8.76407 1.81934 8.58811C1.70802 8.41215 1.64893 8.20821 1.64893 8C1.64893 7.79178 1.70802 7.58784 1.81934 7.41188C1.93067 7.23592 2.08964 7.09518 2.2778 7.006L11.3578 2.712C11.5583 2.61712 11.7774 2.5679 11.9993 2.5679C12.2212 2.5679 12.4402 2.61712 12.6408 2.712L21.7208 7.006C22.4548 7.352 22.5478 8.308 21.9998 8.809V13C21.9998 13.2652 21.8944 13.5196 21.7069 13.7071C21.5194 13.8946 21.265 14 20.9998 14C20.7346 14 20.4802 13.8946 20.2927 13.7071C20.1052 13.5196 19.9998 13.2652 19.9998 13V9.81L18.9998 10.283V14C18.9998 14.9193 18.8187 15.8295 18.467 16.6788C18.1152 17.5281 17.5996 18.2997 16.9495 18.9497C16.2995 19.5998 15.5279 20.1154 14.6786 20.4672C13.8293 20.8189 12.919 21 11.9998 21C11.0805 21 10.1703 20.8189 9.32101 20.4672C8.47173 20.1154 7.70006 19.5998 7.05005 18.9497C6.40004 18.2997 5.88442 17.5281 5.53264 16.6788C5.18086 15.8295 4.9998 14.9193 4.9998 14V10.281L2.2778 8.994ZM16.9998 9H17.0308L19.1458 8L11.9998 4.62L4.8538 8L6.96879 9H6.99979V9.015L11.9998 11.379L16.9998 9.015V9ZM11.3588 13.288L6.99979 11.228V14C6.99979 15.3261 7.52658 16.5978 8.46426 17.5355C9.40194 18.4732 10.6737 19 11.9998 19C13.3259 19 14.5976 18.4732 15.5353 17.5355C16.473 16.5978 16.9998 15.3261 16.9998 14V11.227L12.6408 13.288C12.4404 13.3827 12.2215 13.4319 11.9998 13.4319C11.7781 13.4319 11.5592 13.3827 11.3588 13.288Z" fill="currentColor"/>
</svg>
