<svg width="24" height="24" viewBox="0 0 24 24" fill="none" xmlns="http://www.w3.org/2000/svg">
<path fill-rule="evenodd" clip-rule="evenodd" d="M11.3003 5.75L14.7993 11.812L15.7013 10.25C16.2783 9.25 17.7213 9.25 18.2993 10.25L22.6293 17.75C22.7609 17.978 22.8302 18.2367 22.8302 18.5C22.8302 18.7633 22.7609 19.022 22.6293 19.25C22.4976 19.478 22.3083 19.6674 22.0802 19.799C21.8522 19.9307 21.5936 20 21.3303 20H17.0003V19.998L16.9283 20H3.07225C2.80886 20.0002 2.55008 19.931 2.32191 19.7994C2.09375 19.6678 1.90426 19.4785 1.77249 19.2504C1.64073 19.0224 1.57133 18.7636 1.57129 18.5002C1.57125 18.2369 1.64056 17.9781 1.77225 17.75L8.70125 5.75C9.27825 4.75 10.7213 4.75 11.2993 5.75M10.0003 12.202L9.05525 12.832L8.93925 12.898C8.80255 12.9648 8.6524 12.9995 8.50025 12.9995C8.3481 12.9995 8.19796 12.9648 8.06125 12.898L7.94525 12.832L7.20625 12.339L3.93825 18H16.0623L12.7943 12.34L12.0543 12.832L11.9393 12.898C11.8025 12.9648 11.6524 12.9995 11.5003 12.9995C11.3481 12.9995 11.198 12.9648 11.0613 12.898L10.9453 12.832L10.0003 12.202ZM17.0003 12L15.9543 13.812L18.2273 17.75L18.2923 17.874L18.3433 18H20.4643L17.0003 12ZM10.0003 7.5L8.20825 10.604L8.50025 10.798L9.44525 10.168C9.60958 10.0584 9.8027 9.99985 10.0003 9.99985C10.1978 9.99985 10.3909 10.0584 10.5553 10.168L11.5003 10.798L11.7923 10.604L10.0003 7.5Z" fill="currentColor"/>
</svg>
