<svg width="24" height="24" viewBox="0 0 24 24" fill="none" xmlns="http://www.w3.org/2000/svg">
<path fill-rule="evenodd" clip-rule="evenodd" d="M3.788 17.291C3.64 17.572 3.512 17.811 3.408 18.001H3C2.73478 18.001 2.48043 18.1064 2.29289 18.2939C2.10536 18.4814 2 18.7358 2 19.001C2 19.2662 2.10536 19.5206 2.29289 19.7081C2.48043 19.8956 2.73478 20.001 3 20.001H21C21.2652 20.001 21.5196 19.8956 21.7071 19.7081C21.8946 19.5206 22 19.2662 22 19.001C22 18.7358 21.8946 18.4814 21.7071 18.2939C21.5196 18.1064 21.2652 18.001 21 18.001H20.591C20.488 17.811 20.361 17.572 20.211 17.291C19.663 16.2549 19.1343 15.2087 18.625 14.153C17.39 11.593 15.971 8.343 15.163 5.482C15.0447 5.05707 14.7909 4.68238 14.4402 4.41488C14.0895 4.14738 13.6611 4.00171 13.22 4C13.066 4 12.91 3.992 12.759 4.03L12 4.22L11.242 4.03C11.092 3.992 10.935 4 10.781 4C9.859 4 9.079 4.624 8.837 5.482C8.029 8.344 6.609 11.593 5.375 14.152C4.86547 15.2084 4.33638 16.2542 3.788 17.291ZM10.762 6.026C10.5206 6.87198 10.2495 7.70917 9.949 8.536L10.726 9.313L11.106 8.554C11.1769 8.41236 11.2804 8.28959 11.408 8.19578C11.5356 8.10197 11.6837 8.03982 11.84 8.01443C11.9963 7.98904 12.1564 8.00115 12.3072 8.04975C12.4579 8.09836 12.5949 8.18207 12.707 8.294L13.726 9.313L14.078 8.609C13.7669 7.75841 13.4868 6.89685 13.238 6.026C13.2356 6.01532 13.2292 6.00599 13.22 6H13.123L12.243 6.22C12.0835 6.25997 11.9165 6.25997 11.757 6.22L10.877 6H10.781C10.78 6 10.766 6.008 10.761 6.025M15.059 11.116L14.893 11.447C14.8221 11.5886 14.7186 11.7114 14.591 11.8052C14.4634 11.899 14.3153 11.9612 14.159 11.9866C14.0027 12.012 13.8426 11.9999 13.6918 11.9512C13.5411 11.9026 13.4041 11.8189 13.292 11.707L12.273 10.688L11.893 11.448C11.8221 11.5896 11.7186 11.7124 11.591 11.8062C11.4634 11.9 11.3153 11.9622 11.159 11.9876C11.0027 12.013 10.8426 12.0009 10.6918 11.9522C10.5411 11.9036 10.4041 11.8199 10.292 11.708L9.162 10.577C8.54605 12.0788 7.88373 13.5612 7.176 15.022C6.69309 16.0232 6.19302 17.016 5.676 18H18.324C17.807 17.0157 17.3069 16.0225 16.824 15.021C16.2015 13.7352 15.6133 12.433 15.06 11.116" fill="currentColor"/>
</svg>
