<svg width="24" height="24" viewBox="0 0 24 24" fill="none" xmlns="http://www.w3.org/2000/svg">
<path fill-rule="evenodd" clip-rule="evenodd" d="M14.927 6.00202C16.83 6.07402 18.689 6.96502 20.075 7.87702L20.874 8.41602L21.191 8.63602L21.515 8.87602C22.274 9.45702 23 10.188 23 11C23 12.07 22.048 13.172 21.131 14.03L20.811 14.323L20.503 14.593L20.086 14.948C18.27 16.496 15.549 18 12 18C8.578 18 5.925 16.601 4.112 15.115L3.787 14.841L3.359 14.469L3.046 14.185C2.09 13.298 1 12.09 1 11.001C1 10.222 1.616 9.55102 2.31 9.00002L2.634 8.75502C2.688 8.71502 2.742 8.67702 2.796 8.63902L3.115 8.42002L3.685 8.03802C5.093 7.07302 7.058 6.07802 9.073 6.00202C9.718 5.97802 10.28 6.18802 10.829 6.44702L11.24 6.64702C11.432 6.74302 11.625 6.83802 11.821 6.92702C11.976 6.99602 12.024 6.99602 12.179 6.92702L12.471 6.79002L13.171 6.44702C13.721 6.18702 14.281 5.97702 14.927 6.00202ZM19.699 12.565C17.537 13.205 14.723 13.5 12 13.5C9.277 13.5 6.463 13.205 4.301 12.565C6.301 14.673 9.067 16 12 16C14.933 16 17.699 14.673 19.7 12.565H19.699ZM14.851 8.00002C14.461 7.98502 14.078 8.16602 13.71 8.36802L13.347 8.57202C13.2329 8.63652 13.1161 8.69624 12.997 8.75102C12.755 8.85902 12.395 9.00102 12 9.00102C11.605 9.00102 11.245 8.85902 11.003 8.75102C10.8824 8.69545 10.7643 8.63473 10.649 8.56902L10.289 8.36602C9.924 8.16402 9.546 7.98502 9.149 8.00002C7.237 8.07202 5.407 9.14202 3.955 10.332C5.818 11.082 8.845 11.499 12 11.499C15.155 11.499 18.182 11.082 20.045 10.332C18.593 9.14202 16.763 8.07202 14.851 8.00002Z" fill="currentColor"/>
</svg>
