<svg width="24" height="24" viewBox="0 0 24 24" fill="none" xmlns="http://www.w3.org/2000/svg">
<path d="M8.46399 6.70701C8.27652 6.51948 8.1712 6.26518 8.1712 6.00001C8.1712 5.73485 8.27652 5.48054 8.46399 5.29301L11.222 2.53501C11.3241 2.43281 11.4454 2.35174 11.5789 2.29643C11.7124 2.24112 11.8555 2.21265 12 2.21265C12.1445 2.21265 12.2876 2.24112 12.4211 2.29643C12.5546 2.35174 12.6758 2.43281 12.778 2.53501L15.535 5.29301C15.6305 5.38526 15.7067 5.4956 15.7591 5.61761C15.8115 5.73961 15.8391 5.87083 15.8402 6.00361C15.8414 6.13639 15.8161 6.26807 15.7658 6.39097C15.7155 6.51386 15.6413 6.62551 15.5474 6.71941C15.4535 6.8133 15.3418 6.88755 15.2189 6.93783C15.096 6.98811 14.9644 7.01342 14.8316 7.01226C14.6988 7.01111 14.5676 6.98352 14.4456 6.93111C14.3236 6.8787 14.2132 6.80252 14.121 6.70701L13 5.58601V11H18.414L17.293 9.87901C17.1053 9.6915 16.9999 9.43714 16.9998 9.17187C16.9997 8.9066 17.105 8.65215 17.2925 8.46451C17.48 8.27687 17.7344 8.1714 17.9996 8.17131C18.2649 8.17121 18.5193 8.2765 18.707 8.46401L21.465 11.222C21.5672 11.3242 21.6483 11.4454 21.7036 11.5789C21.7589 11.7124 21.7874 11.8555 21.7874 12C21.7874 12.1445 21.7589 12.2876 21.7036 12.4211C21.6483 12.5546 21.5672 12.6759 21.465 12.778L18.707 15.536C18.5193 15.7235 18.2649 15.8288 17.9996 15.8287C17.7344 15.8286 17.48 15.7232 17.2925 15.5355C17.105 15.3479 16.9997 15.0934 16.9998 14.8282C16.9999 14.5629 17.1053 14.3085 17.293 14.121L18.414 13H13V18.414L14.121 17.293C14.3096 17.1109 14.5622 17.0101 14.8244 17.0123C15.0866 17.0146 15.3374 17.1198 15.5228 17.3052C15.7082 17.4906 15.8134 17.7414 15.8157 18.0036C15.8179 18.2658 15.7171 18.5184 15.535 18.707L12.778 21.465C12.6758 21.5672 12.5546 21.6483 12.4211 21.7036C12.2876 21.7589 12.1445 21.7874 12 21.7874C11.8555 21.7874 11.7124 21.7589 11.5789 21.7036C11.4454 21.6483 11.3241 21.5672 11.222 21.465L8.46399 18.707C8.37114 18.6141 8.29751 18.5038 8.24729 18.3824C8.19706 18.2611 8.17124 18.131 8.17129 17.9997C8.17133 17.8683 8.19725 17.7383 8.24756 17.6169C8.29786 17.4956 8.37158 17.3854 8.46449 17.2925C8.5574 17.1997 8.66769 17.126 8.78905 17.0758C8.91042 17.0256 9.04049 16.9998 9.17184 16.9998C9.30319 16.9999 9.43324 17.0258 9.55458 17.0761C9.67591 17.1264 9.78614 17.2001 9.87899 17.293L10.999 18.414V13H5.58699L6.70799 14.121C6.8009 14.2139 6.87461 14.3241 6.92492 14.4454C6.97523 14.5668 7.00114 14.6968 7.00119 14.8282C7.00124 14.9595 6.97541 15.0896 6.92519 15.2109C6.87497 15.3323 6.80133 15.4426 6.70849 15.5355C6.61564 15.6284 6.50541 15.7021 6.38408 15.7524C6.26274 15.8028 6.13269 15.8287 6.00134 15.8287C5.86999 15.8288 5.73992 15.8029 5.61855 15.7527C5.49719 15.7025 5.3869 15.6289 5.29399 15.536L2.53599 12.778C2.43379 12.6759 2.35272 12.5546 2.2974 12.4211C2.24209 12.2876 2.21362 12.1445 2.21362 12C2.21362 11.8555 2.24209 11.7124 2.2974 11.5789C2.35272 11.4454 2.43379 11.3242 2.53599 11.222L5.29399 8.46401C5.48176 8.27664 5.73628 8.17153 6.00155 8.17181C6.26682 8.17209 6.52111 8.27774 6.70849 8.46551C6.89586 8.65328 7.00097 8.9078 7.00069 9.17307C7.00041 9.43834 6.89476 9.69264 6.70699 9.88001L5.58599 11H11V5.58701L9.87899 6.70701C9.78611 6.79999 9.67583 6.87375 9.55443 6.92407C9.43303 6.9744 9.3029 7.0003 9.17149 7.0003C9.04007 7.0003 8.90995 6.9744 8.78855 6.92407C8.66715 6.87375 8.55686 6.79999 8.46399 6.70701Z" fill="currentColor"/>
</svg>
