<svg width="24" height="24" viewBox="0 0 24 24" fill="none" xmlns="http://www.w3.org/2000/svg">
<path d="M20.9998 5.17997V17C20.9996 17.8805 20.7089 18.7363 20.1728 19.4347C19.6366 20.1332 18.885 20.6352 18.0345 20.863C17.1839 21.0907 16.282 21.0314 15.4686 20.6944C14.6552 20.3573 13.9757 19.7613 13.5355 18.9987C13.0954 18.2361 12.9191 17.3496 13.0341 16.4766C13.1491 15.6037 13.5489 14.7931 14.1716 14.1705C14.7942 13.5479 15.6049 13.1482 16.4779 13.0333C17.3508 12.9184 18.2373 13.0947 18.9998 13.535V9.18097L8.99985 10.847V18C8.99985 18.06 8.99485 18.117 8.98485 18.174C9.05664 18.9429 8.87207 19.7141 8.4599 20.3672C8.04772 21.0204 7.43109 21.5188 6.70607 21.785C5.98105 22.0511 5.18836 22.0699 4.45151 21.8386C3.71466 21.6072 3.07502 21.1386 2.63226 20.5058C2.1895 19.873 1.96848 19.1115 2.00363 18.34C2.03878 17.5685 2.32813 16.8303 2.8266 16.2404C3.32507 15.6504 4.00467 15.242 4.75951 15.0786C5.51435 14.9152 6.30203 15.006 6.99985 15.337V6.84697C6.99979 6.37353 7.16768 5.91542 7.47366 5.55415C7.77964 5.19287 8.20386 4.95185 8.67085 4.87397L18.6708 3.20797C18.9573 3.1602 19.2507 3.17538 19.5307 3.25247C19.8107 3.32956 20.0706 3.46671 20.2922 3.65438C20.5139 3.84204 20.692 4.07573 20.8142 4.33918C20.9364 4.60264 20.9997 4.88955 20.9998 5.17997ZM5.49985 17C5.10202 17 4.72049 17.158 4.43919 17.4393C4.15788 17.7206 3.99985 18.1021 3.99985 18.5C3.99985 18.8978 4.15788 19.2793 4.43919 19.5606C4.72049 19.8419 5.10202 20 5.49985 20C5.89767 20 6.2792 19.8419 6.56051 19.5606C6.84181 19.2793 6.99985 18.8978 6.99985 18.5C6.99985 18.1021 6.84181 17.7206 6.56051 17.4393C6.2792 17.158 5.89767 17 5.49985 17ZM16.9998 15C16.4694 15 15.9607 15.2107 15.5856 15.5858C15.2106 15.9608 14.9998 16.4695 14.9998 17C14.9998 17.5304 15.2106 18.0391 15.5856 18.4142C15.9607 18.7893 16.4694 19 16.9998 19C17.5303 19 18.039 18.7893 18.4141 18.4142C18.7891 18.0391 18.9998 17.5304 18.9998 17C18.9998 16.4695 18.7891 15.9608 18.4141 15.5858C18.039 15.2107 17.5303 15 16.9998 15ZM18.9998 5.17997L8.99985 6.84697V8.81997L18.9998 7.15297V5.17997Z" fill="currentColor"/>
</svg>
