<svg width="24" height="24" viewBox="0 0 24 24" fill="none" xmlns="http://www.w3.org/2000/svg">
<path fill-rule="evenodd" clip-rule="evenodd" d="M18.633 9.17701L14 10.72V17.5C13.9999 18.5032 13.6646 19.4776 13.0474 20.2684C12.4301 21.0593 11.5663 21.6212 10.5932 21.8649C9.62004 22.1086 8.59337 22.0201 7.67625 21.6135C6.75914 21.207 6.00418 20.5056 5.5313 19.6208C5.05842 18.7361 4.89474 17.7187 5.06627 16.7303C5.2378 15.7418 5.73469 14.8391 6.47801 14.1654C7.22133 13.4917 8.16846 13.0857 9.16894 13.0119C10.1694 12.9381 11.1659 13.2007 12 13.758V6.44201C12 5.81241 12.1981 5.19877 12.5662 4.68799C12.9343 4.1772 13.4537 3.79518 14.051 3.59601L18.026 2.27101C18.2515 2.19592 18.4915 2.17547 18.7265 2.21134C18.9614 2.24722 19.1844 2.33839 19.3772 2.47735C19.5699 2.61632 19.7269 2.79909 19.8352 3.01062C19.9435 3.22215 20 3.45638 20 3.69401V7.27901C20.0002 7.69882 19.8682 8.10804 19.6229 8.44869C19.3776 8.78934 19.0312 9.04415 18.633 9.17701ZM14.683 5.49301L18 4.38701V7.28001L14 8.61401V6.44201C13.9997 6.23188 14.0657 6.027 14.1885 5.85647C14.3113 5.68594 14.4846 5.55842 14.684 5.49201L14.683 5.49301ZM12 17.5C12 18.1631 11.7366 18.7989 11.2678 19.2678C10.7989 19.7366 10.163 20 9.50001 20C8.83697 20 8.20108 19.7366 7.73224 19.2678C7.2634 18.7989 7.00001 18.1631 7.00001 17.5C7.00001 16.837 7.2634 16.2011 7.73224 15.7322C8.20108 15.2634 8.83697 15 9.50001 15C10.163 15 10.7989 15.2634 11.2678 15.7322C11.7366 16.2011 12 16.837 12 17.5Z" fill="currentColor"/>
</svg>
