<svg width="24" height="24" viewBox="0 0 24 24" fill="none" xmlns="http://www.w3.org/2000/svg">
<path fill-rule="evenodd" clip-rule="evenodd" d="M19.0258 2.27C19.2407 2.19845 19.4691 2.17652 19.6937 2.20584C19.9183 2.23516 20.1334 2.31498 20.3228 2.4393C20.5121 2.56362 20.6709 2.72921 20.7871 2.92366C20.9033 3.1181 20.974 3.33634 20.9938 3.562L20.9998 3.694V7.279C20.9997 7.67136 20.8841 8.055 20.6675 8.38217C20.451 8.70935 20.1429 8.96559 19.7818 9.119L19.6318 9.176L14.9998 10.721V17.5L14.9948 17.712C14.9483 18.6939 14.5815 19.6336 13.9506 20.3874C13.3196 21.1412 12.4592 21.6677 11.5008 21.8863C10.5424 22.105 9.53877 22.0038 8.6433 21.5982C7.74784 21.1927 7.00981 20.5051 6.54202 19.6405C6.07424 18.7759 5.90242 17.7819 6.05285 16.8105C6.20327 15.839 6.66766 14.9436 7.37503 14.2609C8.0824 13.5783 8.99383 13.1461 9.97001 13.0304C10.9462 12.9146 11.9334 13.1217 12.7808 13.62L12.9998 13.758V6.44C13 5.84168 13.1791 5.25709 13.5142 4.76135C13.8492 4.26562 14.3248 3.88137 14.8798 3.658L15.0508 3.594L19.0258 2.27ZM10.4998 15C10.0124 15.0001 9.53556 15.1427 9.12809 15.4102C8.72062 15.6777 8.40025 16.0585 8.20639 16.5058C8.01254 16.953 7.95366 17.4472 8.03701 17.9275C8.12036 18.4077 8.34229 18.8532 8.6755 19.2089C9.00871 19.5647 9.43866 19.8153 9.91245 19.9299C10.3862 20.0445 10.8832 20.0181 11.3422 19.854C11.8011 19.6898 12.2021 19.395 12.4957 19.0059C12.7894 18.6168 12.9628 18.1504 12.9948 17.664L12.9998 17.5C12.9998 16.837 12.7364 16.2011 12.2676 15.7322C11.7987 15.2634 11.1629 15 10.4998 15ZM6.99981 1C7.2084 1.00008 7.41175 1.06539 7.58138 1.18679C7.75101 1.30818 7.87843 1.47959 7.94581 1.677L8.07581 2.055C8.22381 2.48875 8.46922 2.88283 8.7932 3.20699C9.11719 3.53115 9.51114 3.77677 9.94481 3.925L10.3228 4.054C10.52 4.12157 10.6912 4.24908 10.8123 4.41869C10.9335 4.58831 10.9986 4.79155 10.9986 5C10.9986 5.20845 10.9335 5.41169 10.8123 5.58131C10.6912 5.75092 10.52 5.87843 10.3228 5.946L9.94481 6.076C9.51106 6.224 9.11698 6.46941 8.79282 6.79339C8.46866 7.11738 8.22304 7.51133 8.07481 7.945L7.94581 8.323C7.87824 8.5202 7.75073 8.69134 7.58112 8.81252C7.4115 8.93369 7.20826 8.99883 6.99981 8.99883C6.79136 8.99883 6.58812 8.93369 6.4185 8.81252C6.24889 8.69134 6.12138 8.5202 6.05381 8.323L5.92381 7.945C5.77581 7.51125 5.5304 7.11717 5.20642 6.79301C4.88243 6.46885 4.48848 6.22323 4.05481 6.075L3.67681 5.946C3.47961 5.87843 3.30847 5.75092 3.18729 5.58131C3.06612 5.41169 3.00098 5.20845 3.00098 5C3.00098 4.79155 3.06612 4.58831 3.18729 4.41869C3.30847 4.24908 3.47961 4.12157 3.67681 4.054L4.05481 3.924C4.48856 3.776 4.88264 3.53059 5.2068 3.20661C5.53096 2.88262 5.77658 2.48867 5.92481 2.055L6.05381 1.677C6.12119 1.47959 6.24861 1.30818 6.41824 1.18679C6.58787 1.06539 6.79122 1.00008 6.99981 1ZM18.9998 4.387L15.6838 5.493C15.5036 5.55306 15.3442 5.66321 15.2243 5.81055C15.1044 5.95789 15.029 6.13634 15.0068 6.325L14.9998 6.441V8.612L18.9998 7.279V4.387ZM6.99981 4.197C6.76317 4.49433 6.49343 4.76373 6.19581 5C6.49381 5.236 6.76381 5.506 6.99981 5.804C7.23581 5.506 7.50581 5.236 7.80381 5C7.50613 4.76342 7.23639 4.49468 6.99981 4.197Z" fill="currentColor"/>
</svg>
