<svg width="24" height="24" viewBox="0 0 24 24" fill="none" xmlns="http://www.w3.org/2000/svg">
<path fill-rule="evenodd" clip-rule="evenodd" d="M3 6C3 5.20435 3.31607 4.44129 3.87868 3.87868C4.44129 3.31607 5.20435 3 6 3H18C18.7956 3 19.5587 3.31607 20.1213 3.87868C20.6839 4.44129 21 5.20435 21 6V18C21 18.7956 20.6839 19.5587 20.1213 20.1213C19.5587 20.6839 18.7956 21 18 21H6C5.20435 21 4.44129 20.6839 3.87868 20.1213C3.31607 19.5587 3 18.7956 3 18V6ZM12 19H18C18.2652 19 18.5196 18.8946 18.7071 18.7071C18.8946 18.5196 19 18.2652 19 18V6C19 5.73478 18.8946 5.48043 18.7071 5.29289C18.5196 5.10536 18.2652 5 18 5H15.465C15.805 5.588 16 6.271 16 7V17C16 17.1978 15.9413 17.391 15.8314 17.5555C15.7215 17.7199 15.5654 17.848 15.3827 17.9237C15.2 17.9993 14.9989 18.0192 14.805 17.9806C14.611 17.942 14.4329 17.8468 14.293 17.707L10.793 14.207C10.6108 14.0184 10.51 13.7658 10.5123 13.5036C10.5146 13.2414 10.6198 12.9906 10.8052 12.8052C10.9906 12.6198 11.2414 12.5146 11.5036 12.5123C11.7658 12.51 12.0184 12.6108 12.207 12.793L14 14.586V7C14 6.46957 13.7893 5.96086 13.4142 5.58579C13.0391 5.21071 12.5304 5 12 5H6C5.73478 5 5.48043 5.10536 5.29289 5.29289C5.10536 5.48043 5 5.73478 5 6V18C5 18.2652 5.10536 18.5196 5.29289 18.7071C5.48043 18.8946 5.73478 19 6 19H8.535C8.1834 18.3922 7.99883 17.7022 8 17V7C8.00004 6.80225 8.05871 6.60895 8.1686 6.44454C8.27848 6.28013 8.43465 6.15199 8.61735 6.07632C8.80005 6.00065 9.00108 5.98085 9.19503 6.01942C9.38898 6.05798 9.56715 6.15319 9.707 6.293L13.207 9.793C13.3892 9.9816 13.49 10.2342 13.4877 10.4964C13.4854 10.7586 13.3802 11.0094 13.1948 11.1948C13.0094 11.3802 12.7586 11.4854 12.4964 11.4877C12.2342 11.49 11.9816 11.3892 11.793 11.207L10 9.414V17C10 17.5304 10.2107 18.0391 10.5858 18.4142C10.9609 18.7893 11.4696 19 12 19Z" fill="currentColor"/>
</svg>
