<svg width="24" height="24" viewBox="0 0 24 24" fill="none" xmlns="http://www.w3.org/2000/svg">
<path d="M10 3C10.2449 3.00003 10.4813 3.08996 10.6644 3.25272C10.8474 3.41547 10.9643 3.63975 10.993 3.883L11 4V20C11 20.2449 10.91 20.4813 10.7473 20.6644C10.5845 20.8474 10.3603 20.9643 10.117 20.993L10 21H6C4.97376 21 3.98677 20.6056 3.24319 19.8983C2.4996 19.191 2.05631 18.225 2.005 17.2L2 17V7C2 5.97376 2.39444 4.98677 3.10172 4.24319C3.80901 3.4996 4.77504 3.05631 5.8 3.005L6 3H10ZM9 5H6C5.49542 4.99984 5.00943 5.19041 4.63945 5.5335C4.26947 5.87659 4.04284 6.34684 4.005 6.85L4 7V17C3.99984 17.5046 4.19041 17.9906 4.5335 18.3605C4.87659 18.7305 5.34684 18.9572 5.85 18.995L6 19H9V5ZM6.5 7C6.89782 7 7.27936 7.15804 7.56066 7.43934C7.84196 7.72064 8 8.10218 8 8.5C8 8.89782 7.84196 9.27936 7.56066 9.56066C7.27936 9.84196 6.89782 10 6.5 10C6.10218 10 5.72064 9.84196 5.43934 9.56066C5.15804 9.27936 5 8.89782 5 8.5C5 8.10218 5.15804 7.72064 5.43934 7.43934C5.72064 7.15804 6.10218 7 6.5 7ZM18 3C19.0262 3 20.0132 3.39444 20.7568 4.10172C21.5004 4.80901 21.9437 5.77504 21.995 6.8L22 7V17C22 18.0262 21.6056 19.0132 20.8983 19.7568C20.191 20.5004 19.225 20.9437 18.2 20.995L18 21H14C13.7551 21 13.5187 20.91 13.3356 20.7473C13.1526 20.5845 13.0357 20.3603 13.007 20.117L13 20V4C13 3.75507 13.09 3.51866 13.2527 3.33563C13.4155 3.15259 13.6397 3.03566 13.883 3.007L14 3H18ZM18 5H15V19H18C18.5046 19.0002 18.9906 18.8096 19.3605 18.4665C19.7305 18.1234 19.9572 17.6532 19.995 17.15L20 17V7C20.0002 6.49542 19.8096 6.00943 19.4665 5.63945C19.1234 5.26947 18.6532 5.04284 18.15 5.005L18 5ZM17.5 14C17.8978 14 18.2794 14.158 18.5607 14.4393C18.842 14.7206 19 15.1022 19 15.5C19 15.8978 18.842 16.2794 18.5607 16.5607C18.2794 16.842 17.8978 17 17.5 17C17.1022 17 16.7206 16.842 16.4393 16.5607C16.158 16.2794 16 15.8978 16 15.5C16 15.1022 16.158 14.7206 16.4393 14.4393C16.7206 14.158 17.1022 14 17.5 14Z" fill="currentColor"/>
</svg>
