<svg width="24" height="24" viewBox="0 0 24 24" fill="none" xmlns="http://www.w3.org/2000/svg">
<path fill-rule="evenodd" clip-rule="evenodd" d="M6 2C5.46957 2 4.96086 2.21071 4.58579 2.58579C4.21071 2.96086 4 3.46957 4 4V20C4 20.5304 4.21071 21.0391 4.58579 21.4142C4.96086 21.7893 5.46957 22 6 22H17C17.7956 22 18.5587 21.6839 19.1213 21.1213C19.6839 20.5587 20 19.7956 20 19V5C20 4.20435 19.6839 3.44129 19.1213 2.87868C18.5587 2.31607 17.7956 2 17 2H6ZM10 4H6V20H17C17.2652 20 17.5196 19.8946 17.7071 19.7071C17.8946 19.5196 18 19.2652 18 19V5C18 4.73478 17.8946 4.48043 17.7071 4.29289C17.5196 4.10536 17.2652 4 17 4H16V12.976C16 13.876 14.912 14.326 14.276 13.69L13 12.414L11.724 13.69C11.088 14.326 10 13.876 10 12.976V4ZM14 4H12V10.586L12.286 10.3C12.4754 10.1107 12.7322 10.0044 13 10.0044C13.2678 10.0044 13.5246 10.1107 13.714 10.3L14 10.586V4Z" fill="currentColor"/>
</svg>
