<svg width="24" height="24" viewBox="0 0 24 24" fill="none" xmlns="http://www.w3.org/2000/svg">
<path fill-rule="evenodd" clip-rule="evenodd" d="M4.99969 8.99999C4.99965 8.03167 5.20052 7.07387 5.5896 6.18714C5.97867 5.30042 6.54749 4.50407 7.26008 3.84843C7.97268 3.19279 8.81355 2.69213 9.72954 2.37809C10.6455 2.06406 11.6167 1.94348 12.5817 2.02399C12.7141 2.03273 12.8434 2.06772 12.9622 2.12694C13.0809 2.18616 13.1867 2.26841 13.2733 2.36892C13.3599 2.46942 13.4257 2.58616 13.4668 2.71234C13.5078 2.83851 13.5234 2.97159 13.5125 3.10384C13.5016 3.23608 13.4645 3.36483 13.4034 3.48259C13.3423 3.60036 13.2583 3.70478 13.1564 3.78977C13.0545 3.87476 12.9367 3.93862 12.8099 3.97763C12.6831 4.01664 12.5497 4.03002 12.4177 4.01699C11.7282 3.95915 11.0343 4.04503 10.3797 4.2692C9.72514 4.49337 9.12423 4.85094 8.61498 5.31931C8.10573 5.78767 7.69922 6.35663 7.42118 6.99019C7.14314 7.62374 6.99962 8.30811 6.99969 8.99999V12.528C6.99965 12.9939 6.89112 13.4533 6.68269 13.87L5.61769 16H18.3817L17.3167 13.87C17.1083 13.4533 16.9998 12.9939 16.9997 12.528V11C16.9997 10.7348 17.105 10.4804 17.2926 10.2929C17.4801 10.1054 17.7345 9.99999 17.9997 9.99999C18.2649 9.99999 18.5193 10.1054 18.7068 10.2929C18.8943 10.4804 18.9997 10.7348 18.9997 11V12.528C18.9995 12.6831 19.0355 12.8362 19.1047 12.975L20.8217 16.408C20.9056 16.5757 20.9452 16.7621 20.9367 16.9494C20.9283 17.1368 20.8721 17.3188 20.7735 17.4783C20.6749 17.6378 20.5372 17.7695 20.3734 17.8608C20.2096 17.9521 20.0252 18 19.8377 18H15.8737C15.6512 18.8582 15.1501 19.6183 14.4489 20.1609C13.7478 20.7035 12.8863 20.9979 11.9997 20.9979C11.1131 20.9979 10.2516 20.7035 9.55042 20.1609C8.84926 19.6183 8.34812 18.8582 8.12569 18H4.16169C3.97416 18 3.78975 17.9521 3.62595 17.8608C3.46216 17.7695 3.32442 17.6378 3.22583 17.4783C3.12724 17.3188 3.07106 17.1368 3.06263 16.9494C3.05421 16.7621 3.09381 16.5757 3.17769 16.408L4.89369 12.975C4.96323 12.8362 4.99952 12.6832 4.99969 12.528V8.99999ZM10.2677 18C10.4432 18.304 10.6957 18.5565 10.9997 18.732C11.3038 18.9075 11.6486 18.9999 11.9997 18.9999C12.3507 18.9999 12.6956 18.9075 12.9996 18.732C13.3037 18.5565 13.5561 18.304 13.7317 18H10.2677ZM17.4997 3.99999C17.3027 3.99999 17.1076 4.03879 16.9257 4.11417C16.7437 4.18956 16.5783 4.30004 16.439 4.43933C16.2997 4.57862 16.1892 4.74398 16.1139 4.92597C16.0385 5.10796 15.9997 5.30301 15.9997 5.49999C15.9997 5.69698 16.0385 5.89203 16.1139 6.07402C16.1892 6.25601 16.2997 6.42137 16.439 6.56065C16.5783 6.69994 16.7437 6.81043 16.9257 6.88581C17.1076 6.96119 17.3027 6.99999 17.4997 6.99999C17.8975 6.99999 18.279 6.84196 18.5603 6.56065C18.8417 6.27935 18.9997 5.89782 18.9997 5.49999C18.9997 5.10217 18.8417 4.72064 18.5603 4.43933C18.279 4.15803 17.8975 3.99999 17.4997 3.99999ZM13.9997 5.49999C13.9997 4.57174 14.3684 3.6815 15.0248 3.02512C15.6812 2.36874 16.5714 1.99999 17.4997 1.99999C18.4279 1.99999 19.3182 2.36874 19.9746 3.02512C20.6309 3.6815 20.9997 4.57174 20.9997 5.49999C20.9997 6.42825 20.6309 7.31849 19.9746 7.97487C19.3182 8.63124 18.4279 8.99999 17.4997 8.99999C16.5714 8.99999 15.6812 8.63124 15.0248 7.97487C14.3684 7.31849 13.9997 6.42825 13.9997 5.49999Z" fill="currentColor"/>
</svg>
