<svg width="24" height="24" viewBox="0 0 24 24" fill="none" xmlns="http://www.w3.org/2000/svg">
<path fill-rule="evenodd" clip-rule="evenodd" d="M5.02464 8.429L7.00164 10.406V12.528C7.00161 12.9939 6.89307 13.4534 6.68464 13.87L5.61964 16H12.5956L15.5116 18.916C15.1268 19.6201 14.5393 20.1923 13.8252 20.5582C13.1112 20.9242 12.3036 21.0671 11.5073 20.9684C10.711 20.8696 9.96281 20.5338 9.35979 20.0045C8.75677 19.4751 8.32678 18.7768 8.12564 18H4.16364C3.97612 18 3.7917 17.9521 3.62791 17.8608C3.46411 17.7695 3.32638 17.6379 3.22778 17.4783C3.12919 17.3188 3.07301 17.1368 3.06459 16.9494C3.05616 16.7621 3.09577 16.5757 3.17964 16.408L4.89564 12.975C4.96518 12.8362 5.00147 12.6832 5.00164 12.528V9C5.00164 8.808 5.00964 8.617 5.02464 8.429ZM12.0016 2C12.9209 2 13.8311 2.18106 14.6804 2.53285C15.5297 2.88463 16.3014 3.40024 16.9514 4.05025C17.6014 4.70026 18.117 5.47194 18.4688 6.32122C18.8206 7.1705 19.0016 8.08075 19.0016 9V12.528C19.0015 12.6831 19.0374 12.8362 19.1066 12.975L20.8236 16.408C20.9075 16.5757 20.9471 16.7621 20.9387 16.9494C20.9303 17.1368 20.8741 17.3188 20.7755 17.4783C20.6769 17.6379 20.5392 17.7695 20.3754 17.8608C20.2116 17.9521 20.0272 18 19.8396 18H19.4136L20.4846 19.071C20.6668 19.2596 20.7676 19.5122 20.7653 19.7744C20.763 20.0366 20.6579 20.2874 20.4725 20.4728C20.2871 20.6582 20.0362 20.7634 19.774 20.7657C19.5118 20.768 19.2592 20.6672 19.0706 20.485L3.51464 4.93C3.41913 4.83775 3.34295 4.72741 3.29054 4.60541C3.23813 4.4834 3.21054 4.35218 3.20939 4.2194C3.20823 4.08662 3.23354 3.95494 3.28382 3.83205C3.3341 3.70915 3.40835 3.5975 3.50224 3.50361C3.59614 3.40971 3.70779 3.33546 3.83069 3.28518C3.95358 3.2349 4.08526 3.2096 4.21804 3.21075C4.35082 3.21191 4.48204 3.23949 4.60404 3.2919C4.72605 3.34431 4.83639 3.42049 4.92864 3.516L6.32164 4.909C6.96952 4.00807 7.82259 3.27433 8.81029 2.76848C9.798 2.26263 10.8919 1.99921 12.0016 2ZM13.7316 18H10.2676C10.4432 18.304 10.6957 18.5565 10.9997 18.732C11.3037 18.9075 11.6486 18.9999 11.9996 18.9999C12.3507 18.9999 12.6956 18.9075 12.9996 18.732C13.3036 18.5565 13.5561 18.304 13.7316 18ZM12.0016 4C11.1537 3.99951 10.3197 4.21477 9.57791 4.62553C8.83616 5.0363 8.21112 5.62905 7.76164 6.348L17.4136 16H18.3836L17.3186 13.87C17.1102 13.4534 17.0017 12.9939 17.0016 12.528V9C17.0016 7.67392 16.4749 6.40215 15.5372 5.46447C14.5995 4.52679 13.3277 4 12.0016 4Z" fill="currentColor"/>
</svg>
