<svg width="24" height="24" viewBox="0 0 24 24" fill="none" xmlns="http://www.w3.org/2000/svg">
<path fill-rule="evenodd" clip-rule="evenodd" d="M16.388 4.05001C16.6112 4.03272 16.8337 4.09082 17.02 4.21501L18.38 5.12201L7.382 5.96701L6.245 4.83001L16.388 4.05001ZM5 6.41401V15.334C5 15.5504 5.07018 15.7609 5.2 15.934L6 17V7.41401L5 6.41401ZM19 18.074L8 18.92V7.92601L19 7.08001V18.074ZM21 18.074C21 18.5779 20.8097 19.0633 20.4673 19.433C20.1248 19.8027 19.6554 20.0295 19.153 20.068L7.624 20.955C7.28861 20.9808 6.95214 20.9215 6.64572 20.7827C6.33931 20.6439 6.07285 20.4301 5.871 20.161L3.6 17.133C3.21053 16.6137 3 15.9821 3 15.333V4.92601C3.00004 4.42208 3.1903 3.93675 3.53274 3.56705C3.87518 3.19736 4.34455 2.97056 4.847 2.93201L16.235 2.05601C16.9039 2.00459 17.5708 2.17887 18.129 2.55101L20.109 3.87101C20.383 4.05359 20.6077 4.30101 20.7631 4.59129C20.9186 4.88157 20.9999 5.20573 21 5.53501V18.074ZM17 9.50001C17 9.23479 16.8946 8.98044 16.7071 8.7929C16.5196 8.60537 16.2652 8.50001 16 8.50001C15.7348 8.50001 15.4804 8.60537 15.2929 8.7929C15.1054 8.98044 15 9.23479 15 9.50001V13.78L12.352 9.47601C12.2625 9.33049 12.1372 9.21034 11.988 9.12701C11.8389 9.04369 11.6708 8.99996 11.5 9.00001H11C10.7348 9.00001 10.4804 9.10537 10.2929 9.2929C10.1054 9.48044 10 9.73479 10 10V17C10 17.2652 10.1054 17.5196 10.2929 17.7071C10.4804 17.8947 10.7348 18 11 18C11.2652 18 11.5196 17.8947 11.7071 17.7071C11.8946 17.5196 12 17.2652 12 17V12.72L14.648 17.024C14.7375 17.1695 14.8628 17.2897 15.012 17.373C15.1611 17.4563 15.3292 17.5001 15.5 17.5H16C16.2652 17.5 16.5196 17.3947 16.7071 17.2071C16.8946 17.0196 17 16.7652 17 16.5V9.50001Z" fill="currentColor"/>
</svg>
