<svg width="24" height="24" viewBox="0 0 24 24" fill="none" xmlns="http://www.w3.org/2000/svg">
<path fill-rule="evenodd" clip-rule="evenodd" d="M5 6C5 5.20435 5.31607 4.44129 5.87868 3.87868C6.44129 3.31607 7.20435 3 8 3C8.79565 3 9.55871 3.31607 10.1213 3.87868C10.6839 4.44129 11 5.20435 11 6V8C11 8.79565 10.6839 9.55871 10.1213 10.1213C9.55871 10.6839 8.79565 11 8 11C7.20435 11 6.44129 10.6839 5.87868 10.1213C5.31607 9.55871 5 8.79565 5 8V6ZM8 5C7.73478 5 7.48043 5.10536 7.29289 5.29289C7.10536 5.48043 7 5.73478 7 6V8C7 8.26522 7.10536 8.51957 7.29289 8.70711C7.48043 8.89464 7.73478 9 8 9C8.26522 9 8.51957 8.89464 8.70711 8.70711C8.89464 8.51957 9 8.26522 9 8V6C9 5.73478 8.89464 5.48043 8.70711 5.29289C8.51957 5.10536 8.26522 5 8 5ZM17.707 4.293C17.5195 4.10553 17.2652 4.00021 17 4.00021C16.7348 4.00021 16.4805 4.10553 16.293 4.293L13.465 7.12C13.2774 7.30751 13.1719 7.56188 13.1718 7.82715C13.1717 8.09242 13.277 8.34686 13.4645 8.5345C13.652 8.72214 13.9064 8.82761 14.1716 8.8277C14.4369 8.8278 14.6914 8.72251 14.879 8.535L16 7.414V20C16 20.2652 16.1054 20.5196 16.2929 20.7071C16.4804 20.8946 16.7348 21 17 21C17.2652 21 17.5196 20.8946 17.7071 20.7071C17.8946 20.5196 18 20.2652 18 20V7.414L19.121 8.536C19.2139 8.62891 19.3242 8.70261 19.4456 8.75289C19.567 8.80318 19.6971 8.82906 19.8285 8.82906C19.9599 8.82906 20.09 8.80318 20.2114 8.75289C20.3328 8.70261 20.4431 8.62891 20.536 8.536C20.6289 8.44309 20.7026 8.33279 20.7529 8.2114C20.8032 8.09 20.8291 7.95989 20.8291 7.8285C20.8291 7.6971 20.8032 7.567 20.7529 7.4456C20.7026 7.32421 20.6289 7.21391 20.536 7.121L17.707 4.293ZM5 15C4.99925 14.2191 5.30302 13.4687 5.84677 12.9082C6.39052 12.3477 7.1314 12.0213 7.91196 11.9984C8.69253 11.9755 9.45128 12.2578 10.027 12.7855C10.6027 13.3131 10.9499 14.0444 10.995 14.824L11 15.01C11 15.418 10.961 15.809 10.893 16.181C10.629 17.614 9.929 18.761 9.323 19.533C9.016 19.923 8.725 20.227 8.508 20.437C8.384 20.557 8.258 20.675 8.123 20.782C7.92411 20.9399 7.67259 21.0162 7.4195 20.9954C7.1664 20.9747 6.93069 20.8584 6.76018 20.6702C6.58968 20.482 6.49716 20.236 6.50139 19.9821C6.50563 19.7282 6.60631 19.4854 6.783 19.303L7.118 19L7.342 18.772C7.56934 18.5296 7.77952 18.2716 7.971 18C7.18039 17.9924 6.42476 17.6729 5.8684 17.1111C5.31205 16.5494 4.99996 15.7907 5 15ZM8 14C7.73478 14 7.48043 14.1054 7.29289 14.2929C7.10536 14.4804 7 14.7348 7 15C7 15.2652 7.10536 15.5196 7.29289 15.7071C7.48043 15.8946 7.73478 16 8 16C8.26522 16 8.51957 15.8946 8.70711 15.7071C8.89464 15.5196 9 15.2652 9 15C9 14.7348 8.89464 14.4804 8.70711 14.2929C8.51957 14.1054 8.26522 14 8 14Z" fill="currentColor"/>
</svg>
