<svg width="24" height="24" viewBox="0 0 24 24" fill="none" xmlns="http://www.w3.org/2000/svg">
<path fill-rule="evenodd" clip-rule="evenodd" d="M14.9 4H9.1C8.83481 4.00006 8.58049 4.10545 8.393 4.293L4.293 8.393C4.20002 8.48596 4.12628 8.59634 4.076 8.71782C4.02572 8.83931 3.9999 8.96952 4 9.101V14.899C3.9999 15.0305 4.02572 15.1607 4.076 15.2822C4.12628 15.4037 4.20002 15.514 4.293 15.607L8.393 19.707C8.48596 19.8 8.59634 19.8737 8.71782 19.924C8.83931 19.9743 8.96952 20.0001 9.101 20H14.899C15.0305 20.0001 15.1607 19.9743 15.2822 19.924C15.4037 19.8737 15.514 19.8 15.607 19.707L19.707 15.607C19.8946 15.4195 19.9999 15.1652 20 14.9V9.1C19.9999 8.83481 19.8946 8.58049 19.707 8.393L15.607 4.293C15.4195 4.10545 15.1652 4.00006 14.9 4ZM9.1 2H14.9C15.6952 2.00044 16.4578 2.3166 17.02 2.879L21.121 6.979C21.3997 7.25763 21.6208 7.58845 21.7716 7.95255C21.9224 8.31665 22 8.7069 22 9.101V14.899C22 15.2931 21.9224 15.6834 21.7716 16.0475C21.6208 16.4116 21.3997 16.7424 21.121 17.021L17.021 21.121C16.7424 21.3997 16.4116 21.6208 16.0475 21.7716C15.6834 21.9224 15.2931 22 14.899 22H9.102C8.7079 22 8.31765 21.9224 7.95355 21.7716C7.58945 21.6208 7.25863 21.3997 6.98 21.121L2.88 17.021C2.6011 16.7425 2.37984 16.4117 2.22884 16.0476C2.07785 15.6835 2.00008 15.2932 2 14.899V9.102C1.99995 8.7079 2.07756 8.31765 2.22838 7.95355C2.3792 7.58945 2.60029 7.25863 2.879 6.98L6.979 2.88C7.25755 2.6011 7.58833 2.37984 7.95243 2.22884C8.31654 2.07785 8.70583 2.00008 9.1 2Z" fill="currentColor"/>
</svg>
