<svg width="24" height="24" viewBox="0 0 24 24" fill="none" xmlns="http://www.w3.org/2000/svg">
<path fill-rule="evenodd" clip-rule="evenodd" d="M12 4.00003C10.3098 3.99853 8.67613 4.60865 7.40067 5.71771C6.12521 6.82676 5.2941 8.35986 5.06082 10.0339C4.82754 11.7079 5.20784 13.4098 6.1315 14.8254C7.05516 16.2409 8.45979 17.2744 10.086 17.735C10.61 17.885 11 18.365 11 18.942V20.75C11 21.44 10.44 22 9.75002 22H6.00002C5.7348 22 5.48045 21.8947 5.29291 21.7071C5.10538 21.5196 5.00002 21.2652 5.00002 21C5.00002 20.7348 5.10538 20.4805 5.29291 20.2929C5.48045 20.1054 5.7348 20 6.00002 20H9.00002V19.488C6.99838 18.7803 5.31136 17.3878 4.23712 15.5566C3.16289 13.7254 2.77062 11.5733 3.12963 9.48083C3.48865 7.38834 4.57583 5.49014 6.19904 4.12171C7.82224 2.75329 9.87696 2.00275 12 2.00275C14.1231 2.00275 16.1778 2.75329 17.801 4.12171C19.4242 5.49014 20.5114 7.38834 20.8704 9.48083C21.2294 11.5733 20.8371 13.7254 19.7629 15.5566C18.6887 17.3878 17.0017 18.7803 15 19.488V20H18C18.2652 20 18.5196 20.1054 18.7071 20.2929C18.8947 20.4805 19 20.7348 19 21C19 21.2652 18.8947 21.5196 18.7071 21.7071C18.5196 21.8947 18.2652 22 18 22H14.25C13.56 22 13 21.44 13 20.75V18.942C13 18.365 13.39 17.884 13.914 17.735C15.5402 17.2744 16.9449 16.2409 17.8685 14.8254C18.7922 13.4098 19.1725 11.7079 18.9392 10.0339C18.7059 8.35986 17.8748 6.82676 16.5994 5.71771C15.3239 4.60865 13.6902 3.99853 12 4.00003Z" fill="currentColor"/>
</svg>
