<svg width="24" height="24" viewBox="0 0 24 24" fill="none" xmlns="http://www.w3.org/2000/svg">
<path fill-rule="evenodd" clip-rule="evenodd" d="M9.99963 2C10.7001 1.9997 11.3884 2.18336 11.9956 2.53259C12.6028 2.88182 13.1076 3.38439 13.4596 3.99L13.5576 4.172L14.1956 3.804C14.9567 3.3644 15.8413 3.18767 16.7128 3.30114C17.5843 3.4146 18.3942 3.81193 19.0173 4.43173C19.6404 5.05154 20.042 5.8593 20.1601 6.7302C20.2782 7.6011 20.1062 8.48665 19.6706 9.25L19.5576 9.436L20.1956 9.804C20.9566 10.2434 21.5517 10.9211 21.8891 11.7325C22.2264 12.5439 22.2872 13.4438 22.062 14.2932C21.8368 15.1426 21.3381 15.8942 20.6431 16.4318C19.9481 16.9695 19.0953 17.2634 18.2166 17.268L17.9996 17.264V18C17.9999 18.8798 17.7101 19.7351 17.1751 20.4335C16.6402 21.1319 15.8899 21.6345 15.0404 21.8634C14.1909 22.0923 13.2897 22.0348 12.4762 21.6997C11.6628 21.3647 10.9825 20.7708 10.5406 20.01L10.4406 19.828L9.80363 20.196C9.04261 20.6356 8.15798 20.8123 7.28647 20.6989C6.41495 20.5854 5.60507 20.1881 4.98197 19.5683C4.35886 18.9485 3.95723 18.1407 3.83914 17.2698C3.72105 16.3989 3.89308 15.5134 4.32863 14.75L4.44163 14.564L3.80363 14.196C3.04264 13.7566 2.44752 13.0789 2.11019 12.2675C1.77286 11.4561 1.7121 10.5562 1.93731 9.70681C2.16251 8.85743 2.66114 8.10585 3.35616 7.56817C4.05118 7.03049 4.90392 6.73663 5.78263 6.732L5.99963 6.736V6C5.99963 4.93913 6.42106 3.92172 7.17121 3.17157C7.92135 2.42143 8.93877 2 9.99963 2ZM14.7016 12.787L14.6336 16.847C14.6312 16.9976 14.5947 17.1457 14.527 17.2802C14.4593 17.4148 14.3621 17.5323 14.2426 17.624L14.1336 17.696L12.1776 18.826C12.362 19.2296 12.6753 19.5605 13.0682 19.7668C13.4611 19.973 13.9113 20.0429 14.3483 19.9654C14.7852 19.8879 15.184 19.6674 15.482 19.3387C15.78 19.0099 15.9603 18.5914 15.9946 18.149L15.9996 18V13.566L14.7016 12.787ZM12.6686 14.734L9.11863 16.704L9.00063 16.76C8.75932 16.8554 8.49039 16.8532 8.25063 16.754L8.13363 16.696L6.17763 15.566L6.08763 15.702C5.86571 16.0706 5.7686 16.501 5.81071 16.9293C5.85283 17.3575 6.03193 17.7607 6.32142 18.0791C6.61091 18.3974 6.99535 18.6139 7.41766 18.6964C7.83996 18.7789 8.27762 18.723 8.66563 18.537L8.80363 18.464L12.6436 16.247L12.6686 14.734ZM15.3566 9.319L14.0326 10.054L17.5146 12.143L17.6216 12.217C17.8251 12.3784 17.9578 12.6125 17.9916 12.87L17.9996 13V15.26L18.1616 15.268C18.5916 15.2757 19.0126 15.1446 19.3622 14.8941C19.7118 14.6436 19.9713 14.2872 20.1023 13.8775C20.2333 13.4679 20.2288 13.027 20.0894 12.6202C19.9501 12.2133 19.6833 11.8622 19.3286 11.619L19.1956 11.536L15.3566 9.319ZM5.99963 8.741C5.55818 8.69808 5.11498 8.80305 4.73967 9.03941C4.36437 9.27577 4.07822 9.63012 3.92621 10.0468C3.77419 10.4635 3.76492 10.9188 3.89985 11.3413C4.03478 11.7639 4.30626 12.1296 4.67163 12.381L4.80363 12.464L8.64363 14.681L9.96663 13.946L6.48563 11.858C6.3564 11.7804 6.24638 11.6747 6.16378 11.5486C6.08118 11.4226 6.02814 11.2794 6.00863 11.13L5.99963 11V8.741ZM12.0136 11.175L11.2916 11.575L11.2776 12.401L11.9856 12.826L12.7076 12.425L12.7216 11.599L12.0136 11.175ZM9.99963 4C9.49506 3.99984 9.00907 4.19041 8.63908 4.5335C8.2691 4.87659 8.04248 5.34684 8.00463 5.85L7.99963 6V10.434L9.29763 11.213L9.36563 7.153L9.37563 7.023C9.41377 6.76603 9.55041 6.53399 9.75663 6.376L9.86563 6.304L11.8226 5.174L11.7546 5.039C11.5822 4.7243 11.3283 4.46179 11.0195 4.27899C10.7107 4.09618 10.3585 3.99982 9.99963 4ZM17.9276 6.268C17.676 5.83196 17.2691 5.50687 16.7882 5.35765C16.3074 5.20843 15.788 5.24605 15.3336 5.463L15.1956 5.536L11.3556 7.753L11.3306 9.266L14.8806 7.296C15.0122 7.22287 15.1586 7.18039 15.3089 7.17173C15.4592 7.16307 15.6095 7.18846 15.7486 7.246L15.8656 7.304L17.8226 8.434C18.2646 7.814 18.3326 6.969 17.9276 6.268Z" fill="currentColor"/>
</svg>
