<svg width="24" height="24" viewBox="0 0 24 24" fill="none" xmlns="http://www.w3.org/2000/svg">
<path fill-rule="evenodd" clip-rule="evenodd" d="M12.2501 4.29899C12.174 4.25511 12.0878 4.232 12.0001 4.232C11.9123 4.232 11.8261 4.25511 11.7501 4.29899L6.20605 7.49999L8.01905 8.54699L13.8171 5.20399L12.2501 4.29899ZM15.8181 6.35899L10.0201 9.70199L11.7501 10.701C11.8261 10.7449 11.9123 10.768 12.0001 10.768C12.0878 10.768 12.174 10.7449 12.2501 10.701L17.7941 7.49999L15.8181 6.35899ZM18.7941 9.23199L13.2501 12.433C13.1694 12.4801 13.0859 12.5222 13.0001 12.559V19.268L18.5441 16.067C18.6201 16.0231 18.6832 15.96 18.7271 15.884C18.7709 15.808 18.7941 15.7218 18.7941 15.634V9.23199ZM11.0001 19.268V12.559C10.9144 12.5217 10.831 12.4796 10.7501 12.433L5.20605 9.23199V15.634C5.20606 15.7218 5.22916 15.808 5.27305 15.884C5.31693 15.96 5.38005 16.0231 5.45605 16.067L11.0001 19.268ZM10.7501 2.56699C11.1301 2.34757 11.5612 2.23206 12.0001 2.23206C12.4389 2.23206 12.87 2.34757 13.2501 2.56699L19.5441 6.20099C19.9241 6.42041 20.2397 6.73599 20.4591 7.11603C20.6785 7.49606 20.794 7.92716 20.7941 8.36599V15.634C20.794 16.0728 20.6785 16.5039 20.4591 16.884C20.2397 17.264 19.9241 17.5796 19.5441 17.799L13.2501 21.433C12.87 21.6524 12.4389 21.7679 12.0001 21.7679C11.5612 21.7679 11.1301 21.6524 10.7501 21.433L4.45605 17.799C4.07602 17.5796 3.76043 17.264 3.54101 16.884C3.32159 16.5039 3.20607 16.0728 3.20605 15.634V8.36599C3.20607 7.92716 3.32159 7.49606 3.54101 7.11603C3.76043 6.73599 4.07602 6.42041 4.45605 6.20099L10.7501 2.56699Z" fill="currentColor"/>
</svg>
