<svg width="24" height="24" viewBox="0 0 24 24" fill="none" xmlns="http://www.w3.org/2000/svg">
<path d="M11.1972 2.749L11.3352 2.822L19.1292 7.322C19.565 7.57366 19.8899 7.98036 20.0391 8.46097C20.1883 8.94158 20.1508 9.46078 19.9342 9.915L19.8612 10.054L13.8612 20.446C13.6095 20.8818 13.2028 21.2067 12.7222 21.3559C12.2416 21.5051 11.7224 21.4677 11.2682 21.251L11.1292 21.178L3.33518 16.678C2.89913 16.4263 2.57405 16.0194 2.42483 15.5386C2.27561 15.0578 2.31323 14.5383 2.53018 14.084L2.60318 13.946L7.10318 6.152L5.37118 5.152C5.14857 5.02526 4.98309 4.81792 4.90886 4.57276C4.83463 4.3276 4.85732 4.06329 4.97223 3.83436C5.08715 3.60543 5.28553 3.42933 5.52647 3.34237C5.76742 3.2554 6.03254 3.26422 6.26718 3.367L6.37118 3.42L8.10318 4.42L8.60318 3.554C8.84071 3.14195 9.21732 2.82803 9.66541 2.66859C10.1135 2.50915 10.6037 2.51461 11.0482 2.684L11.1972 2.749ZM16.4282 12H6.03618L4.33618 14.946L12.1292 19.446L16.4302 12H16.4282ZM20.3032 11.23L20.5002 11L20.5762 11.087L20.7742 11.322L20.9512 11.542L21.1482 11.8L21.3522 12.084C21.6902 12.573 22.0002 13.124 22.0002 13.5C22.0002 13.8978 21.8421 14.2794 21.5608 14.5607C21.2795 14.842 20.898 15 20.5002 15C20.1024 15 19.7208 14.842 19.4395 14.5607C19.1582 14.2794 19.0002 13.8978 19.0002 13.5C19.0002 13.048 19.4462 12.345 19.8522 11.8L20.0492 11.542L20.3032 11.23ZM10.3352 4.554L9.83518 5.42L10.7012 5.92C10.8158 5.98518 10.9164 6.07239 10.9972 6.17662C11.078 6.28085 11.1374 6.40003 11.172 6.5273C11.2065 6.65458 11.2156 6.78743 11.1986 6.91821C11.1816 7.04899 11.1389 7.17511 11.0729 7.28932C11.007 7.40353 10.9191 7.50357 10.8144 7.58368C10.7096 7.66379 10.59 7.72239 10.4625 7.75609C10.335 7.7898 10.2021 7.79796 10.0715 7.78009C9.94079 7.76223 9.81495 7.71869 9.70118 7.652L8.83518 7.152L7.19118 10H17.5832L18.1292 9.054L10.3352 4.554Z" fill="currentColor"/>
</svg>
