<svg width="24" height="24" viewBox="0 0 24 24" fill="none" xmlns="http://www.w3.org/2000/svg">
<path fill-rule="evenodd" clip-rule="evenodd" d="M22.017 3.87401L21.427 5.45501L20.695 7.15201C20.016 8.60701 19.083 10.308 17.967 11.482C16.902 12.602 15.294 13.635 14.007 14.368C14.1769 15.1808 14.1416 16.0231 13.9041 16.8187C13.6667 17.6144 13.2346 18.3383 12.647 18.925C10.377 21.195 7.83999 21.195 5.95299 20.635C4.92108 20.332 3.9513 19.8477 3.08899 19.205L2.22399 18.487C2.17779 18.4482 2.14113 18.3992 2.11683 18.344C2.09253 18.2888 2.08126 18.2287 2.08386 18.1684C2.08647 18.1081 2.1029 18.0492 2.13188 17.9962C2.16085 17.9433 2.20161 17.8977 2.25099 17.863L2.58299 17.626C3.31099 17.096 4.06199 16.444 4.24099 15.546C4.35599 14.621 4.42099 14.116 4.43799 14.033C4.57599 13.344 4.86799 12.562 5.57499 11.853C6.16173 11.2655 6.88565 10.8335 7.68129 10.596C8.47694 10.3586 9.31923 10.3232 10.132 10.493C10.865 9.20601 11.897 7.59801 13.018 6.53301C14.192 5.41701 15.893 4.48301 17.348 3.80501L19.044 3.07201L20.626 2.48301C20.8197 2.41648 21.0283 2.40568 21.2278 2.45185C21.4274 2.49801 21.61 2.59928 21.7549 2.74413C21.8997 2.88898 22.001 3.07159 22.0472 3.27116C22.0933 3.47074 22.0825 3.67927 22.016 3.87301L22.017 3.87401ZM6.98999 13.268C6.63699 13.62 6.48399 14.002 6.39899 14.425C6.28499 15.351 6.21899 15.855 6.20199 15.939C6.02199 16.843 5.49299 17.589 5.05199 18.087C5.51772 18.3504 6.01103 18.5616 6.52299 18.717C7.90699 19.129 9.61299 19.129 11.233 17.51C11.5153 17.2322 11.7397 16.9013 11.8935 16.5364C12.0472 16.1714 12.1272 15.7796 12.1287 15.3836C12.1303 14.9876 12.0534 14.5952 11.9026 14.229C11.7518 13.8628 11.5299 13.5302 11.2498 13.2502C10.9698 12.9702 10.637 12.7484 10.2708 12.5976C9.90464 12.4469 9.51221 12.3701 9.1162 12.3718C8.72018 12.3734 8.32841 12.4535 7.96348 12.6073C7.59856 12.7611 7.2677 12.9857 6.98999 13.268ZM11.98 11.293C12.4571 11.6281 12.8723 12.0436 13.207 12.521C13.598 12.294 14.002 12.048 14.397 11.789L14.367 11.722C14.2025 11.3762 13.9791 11.0615 13.707 10.792C13.4669 10.5507 13.1914 10.3473 12.89 10.189L12.71 10.103C12.452 10.498 12.206 10.901 11.98 11.293ZM19.422 5.07801C19.038 5.23701 18.622 5.41801 18.192 5.61801C16.784 6.27501 15.326 7.09801 14.396 7.98201C14.239 8.13201 14.082 8.29701 13.926 8.47501C14.288 8.67501 14.708 8.96501 15.121 9.37901C15.535 9.79201 15.824 10.212 16.025 10.574C16.203 10.418 16.369 10.261 16.518 10.104C17.402 9.17401 18.225 7.71601 18.882 6.30701C19.082 5.87701 19.262 5.46101 19.422 5.07801Z" fill="currentColor"/>
</svg>
