<svg width="24" height="24" viewBox="0 0 24 24" fill="none" xmlns="http://www.w3.org/2000/svg">
<path fill-rule="evenodd" clip-rule="evenodd" d="M15.993 3C16.397 3 16.746 3.238 16.908 3.582L16.95 3.688C17.258 4.605 18.215 4.997 18.992 5C19.711 5.003 20.112 5.684 19.966 6.258C19.649 7.509 18.983 8.234 18.304 8.621C18.2055 8.67692 18.104 8.72733 18 8.772V11H18.559C18.9245 11.0001 19.2775 11.1337 19.5515 11.3756C19.8255 11.6176 20.0017 11.9513 20.047 12.314L20.883 19H21C21.2652 19 21.5196 19.1054 21.7071 19.2929C21.8946 19.4804 22 19.7348 22 20C22 20.2652 21.8946 20.5196 21.7071 20.7071C21.5196 20.8946 21.2652 21 21 21H14.078C13.7921 21 13.5179 20.8864 13.3157 20.6843C13.1136 20.4821 13 20.2079 13 19.922V18C13 17.7348 12.8946 17.4804 12.7071 17.2929C12.5196 17.1054 12.2652 17 12 17C11.7348 17 11.4804 17.1054 11.2929 17.2929C11.1054 17.4804 11 17.7348 11 18V19.922C11 20.517 10.517 21 9.922 21H3C2.73478 21 2.48043 20.8946 2.29289 20.7071C2.10536 20.5196 2 20.2652 2 20C2 19.7348 2.10536 19.4804 2.29289 19.2929C2.48043 19.1054 2.73478 19 3 19H3.117L3.953 12.314C3.99833 11.9513 4.17454 11.6176 4.44854 11.3756C4.72254 11.1337 5.07546 11.0001 5.441 11H6V8.772C5.89592 8.72739 5.79443 8.67698 5.696 8.621C5.017 8.234 4.351 7.509 4.034 6.258C3.888 5.684 4.289 5.003 5.008 5C5.737 4.997 6.623 4.652 6.985 3.854L7.05 3.688C7.184 3.288 7.562 3 8.007 3H15.993ZM18.117 13H5.883L5.133 19H9V18C9 17.2044 9.31607 16.4413 9.87868 15.8787C10.4413 15.3161 11.2044 15 12 15C12.7956 15 13.5587 15.3161 14.1213 15.8787C14.6839 16.4413 15 17.2044 15 18V19H18.867L18.117 13ZM16 9H8V11H16V9ZM15.354 5H8.646C8.125 5.921 7.3 6.458 6.49 6.74C6.63674 6.87993 6.82335 6.97078 7.024 7H16.978C17.1786 6.97078 17.3653 6.87993 17.512 6.74C16.702 6.458 15.875 5.921 15.354 5Z" fill="currentColor"/>
</svg>
