<svg width="24" height="24" viewBox="0 0 24 24" fill="none" xmlns="http://www.w3.org/2000/svg">
<path d="M10 3C10.5304 3 11.0391 3.21071 11.4142 3.58579C11.7893 3.96086 12 4.46957 12 5V5.636L13.636 4C14.0111 3.62506 14.5197 3.41443 15.05 3.41443C15.5803 3.41443 16.0889 3.62506 16.464 4L20 7.536C20.3749 7.91106 20.5856 8.41967 20.5856 8.95C20.5856 9.48033 20.3749 9.98895 20 10.364L18.364 12H19C19.5304 12 20.0391 12.2107 20.4142 12.5858C20.7893 12.9609 21 13.4696 21 14V19C21 19.5304 20.7893 20.0391 20.4142 20.4142C20.0391 20.7893 19.5304 21 19 21H5C4.46957 21 3.96086 20.7893 3.58579 20.4142C3.21071 20.0391 3 19.5304 3 19V5C3 4.46957 3.21071 3.96086 3.58579 3.58579C3.96086 3.21071 4.46957 3 5 3H10ZM10 5H5V19H10V5ZM19 14H16.364L12 18.364V19H19V14ZM7.5 15C7.89782 15 8.27936 15.158 8.56066 15.4393C8.84196 15.7206 9 16.1022 9 16.5C9 16.8978 8.84196 17.2794 8.56066 17.5607C8.27936 17.842 7.89782 18 7.5 18C7.10218 18 6.72064 17.842 6.43934 17.5607C6.15804 17.2794 6 16.8978 6 16.5C6 16.1022 6.15804 15.7206 6.43934 15.4393C6.72064 15.158 7.10218 15 7.5 15ZM15.05 5.414L12 8.464V15.535L18.586 8.95L15.05 5.414Z" fill="currentColor"/>
</svg>
