<svg width="24" height="24" viewBox="0 0 24 24" fill="none" xmlns="http://www.w3.org/2000/svg">
<path fill-rule="evenodd" clip-rule="evenodd" d="M4 7.50399V16.497C5.653 15.879 8.599 15 12 15C15.401 15 18.347 15.88 20 16.497V7.50399C18.347 8.11999 15.401 8.99999 12 8.99999C8.599 8.99999 5.653 8.12099 4 7.50399ZM2 6.80899C2 5.68899 3.15 5.00399 4.119 5.40199C5.437 5.94499 8.465 6.99999 12 6.99999C15.535 6.99999 18.563 5.94499 19.881 5.40199C20.85 5.00399 22 5.68999 22 6.80999V17.192C22 18.312 20.85 18.997 19.881 18.599C18.563 18.056 15.535 17 12 17C8.465 17 5.437 18.056 4.119 18.598C3.15 18.996 2 18.31 2 17.19V6.80899Z" fill="currentColor"/>
</svg>
