<svg width="24" height="24" viewBox="0 0 24 24" fill="none" xmlns="http://www.w3.org/2000/svg">
<path fill-rule="evenodd" clip-rule="evenodd" d="M5.70262 20C5.29262 18.673 4.66262 15.567 6.37362 12.486C8.24062 9.126 7.82362 5.784 7.37362 4H18.2966C18.7066 5.327 19.3366 8.433 17.6256 11.514C15.7586 14.874 16.1756 18.216 16.6256 20H5.70262ZM4.62562 11.514C2.47862 15.378 3.35062 19.215 3.82562 20.695C4.09162 21.531 4.86762 22 5.64962 22H17.2296C18.3246 22 18.9836 20.915 18.6976 19.984C18.2856 18.642 17.6706 15.552 19.3736 12.486C21.5206 8.622 20.6486 4.785 20.1736 3.305C19.9076 2.469 19.1316 2 18.3496 2H6.76962C5.67462 2 5.01462 3.085 5.30062 4.016C5.71262 5.358 6.32862 8.448 4.62562 11.514ZM8.99962 9C8.99962 8.73478 9.10498 8.48043 9.29252 8.29289C9.48005 8.10536 9.73441 8 9.99962 8H15.9996C16.2648 8 16.5192 8.10536 16.7067 8.29289C16.8943 8.48043 16.9996 8.73478 16.9996 9C16.9996 9.26522 16.8943 9.51957 16.7067 9.70711C16.5192 9.89464 16.2648 10 15.9996 10H9.99962C9.73441 10 9.48005 9.89464 9.29252 9.70711C9.10498 9.51957 8.99962 9.26522 8.99962 9ZM8.99962 12C8.73441 12 8.48005 12.1054 8.29252 12.2929C8.10498 12.4804 7.99962 12.7348 7.99962 13C7.99962 13.2652 8.10498 13.5196 8.29252 13.7071C8.48005 13.8946 8.73441 14 8.99962 14H11.9996C12.2648 14 12.5192 13.8946 12.7067 13.7071C12.8943 13.5196 12.9996 13.2652 12.9996 13C12.9996 12.7348 12.8943 12.4804 12.7067 12.2929C12.5192 12.1054 12.2648 12 11.9996 12H8.99962Z" fill="currentColor"/>
</svg>
