<svg width="24" height="24" viewBox="0 0 24 24" fill="none" xmlns="http://www.w3.org/2000/svg">
<path fill-rule="evenodd" clip-rule="evenodd" d="M17.9999 3C18.2548 3.00028 18.4999 3.09788 18.6852 3.27285C18.8706 3.44782 18.9821 3.68695 18.9971 3.94139C19.012 4.19584 18.9292 4.44638 18.7656 4.64183C18.602 4.83729 18.37 4.9629 18.1169 4.993L17.9999 5H16.9999V19H17.9999C18.2548 19.0003 18.4999 19.0979 18.6852 19.2728C18.8706 19.4478 18.9821 19.687 18.9971 19.9414C19.012 20.1958 18.9292 20.4464 18.7656 20.6418C18.602 20.8373 18.37 20.9629 18.1169 20.993L17.9999 21H9.99988C9.745 20.9997 9.49985 20.9021 9.31451 20.7272C9.12918 20.5522 9.01764 20.313 9.00271 20.0586C8.98777 19.8042 9.07055 19.5536 9.23414 19.3582C9.39773 19.1627 9.62978 19.0371 9.88288 19.007L9.99988 19H10.9999V14H9.49988C8.05833 14.003 6.6732 13.44 5.64261 12.432C4.61202 11.4241 4.01836 10.0518 3.98939 8.61053C3.96043 7.16926 4.49847 5.77424 5.48773 4.72568C6.47698 3.67713 7.83837 3.05888 9.27888 3.004L9.49988 3H17.9999ZM14.9999 5H12.9999V19H14.9999V5ZM10.9999 5H9.49988C8.58738 4.99868 7.71044 5.35379 7.05595 5.98964C6.40147 6.62549 6.02118 7.49181 5.99615 8.40396C5.97111 9.31612 6.3033 10.202 6.92192 10.8728C7.54054 11.5436 8.39668 11.9463 9.30788 11.995L9.49988 12H10.9999V5Z" fill="currentColor"/>
</svg>
