<svg width="24" height="24" viewBox="0 0 24 24" fill="none" xmlns="http://www.w3.org/2000/svg">
<path fill-rule="evenodd" clip-rule="evenodd" d="M3.65608 14.036C3.59951 13.9475 3.55732 13.8507 3.53108 13.749C3.17615 12.8762 2.99575 11.9422 3.00008 11C3.00008 8.61305 3.94829 6.32387 5.63611 4.63604C7.32394 2.94821 9.61313 2 12.0001 2C14.387 2 16.6762 2.94821 18.364 4.63604C20.0519 6.32387 21.0001 8.61305 21.0001 11C21.0044 11.9422 20.824 12.8762 20.4691 13.749C20.4428 13.8507 20.4006 13.9475 20.3441 14.036C19.4961 15.882 17.9591 17.205 16.5301 18.098C15.6731 18.6277 14.7693 19.0776 13.8301 19.442C13.9371 19.602 14.0001 19.794 14.0001 20V21C14.0001 21.2652 13.8947 21.5196 13.7072 21.7071C13.5196 21.8946 13.2653 22 13.0001 22H11.0001C10.7349 22 10.4805 21.8946 10.293 21.7071C10.1054 21.5196 10.0001 21.2652 10.0001 21V20C10.0001 19.794 10.0631 19.602 10.1701 19.442C9.23082 19.0776 8.32702 18.6277 7.47008 18.098C6.04008 17.205 4.50308 15.882 3.65608 14.036ZM12.0001 4C10.2093 3.99992 8.48657 4.68617 7.18635 5.91757C5.88613 7.14896 5.10729 8.83185 5.01008 10.62C5.5946 10.2151 6.28902 9.99875 7.00008 10C7.98008 10 8.86508 10.402 9.50008 11.05C9.82566 10.717 10.2146 10.4526 10.6439 10.2723C11.0733 10.092 11.5344 9.99937 12.0001 10C12.9801 10 13.8651 10.402 14.5001 11.05C14.8257 10.717 15.2146 10.4526 15.6439 10.2723C16.0733 10.092 16.5344 9.99937 17.0001 10C17.7401 10 18.4251 10.23 18.9901 10.62C18.8929 8.83185 18.114 7.14896 16.8138 5.91757C15.5136 4.68617 13.7909 3.99992 12.0001 4ZM15.4701 16.402C16.7131 15.625 17.8531 14.605 18.4851 13.285C18.4315 12.909 18.2373 12.5674 17.9417 12.329C17.6461 12.0906 17.2711 11.9732 16.8923 12.0004C16.5135 12.0277 16.1592 12.1977 15.9008 12.476C15.6424 12.7543 15.4992 13.1202 15.5001 13.5C15.5001 13.7652 15.3947 14.0196 15.2072 14.2071C15.0196 14.3946 14.7653 14.5 14.5001 14.5C14.2349 14.5 13.9805 14.3946 13.793 14.2071C13.6054 14.0196 13.5001 13.7652 13.5001 13.5C13.5001 13.1022 13.342 12.7206 13.0607 12.4393C12.7794 12.158 12.3979 12 12.0001 12C11.6023 12 11.2207 12.158 10.9394 12.4393C10.6581 12.7206 10.5001 13.1022 10.5001 13.5C10.5001 13.7652 10.3947 14.0196 10.2072 14.2071C10.0196 14.3946 9.76529 14.5 9.50008 14.5C9.23486 14.5 8.98051 14.3946 8.79297 14.2071C8.60543 14.0196 8.50008 13.7652 8.50008 13.5C8.50094 13.1202 8.35773 12.7543 8.09934 12.476C7.84096 12.1977 7.48662 12.0277 7.10784 12.0004C6.72906 11.9732 6.35403 12.0906 6.05842 12.329C5.76282 12.5674 5.56864 12.909 5.51508 13.285C6.14708 14.605 7.28708 15.625 8.53008 16.402C9.45708 16.982 10.3931 17.392 11.1011 17.657C11.4541 17.79 11.7461 17.884 11.9471 17.945L12.0001 17.962L12.0531 17.945C12.2541 17.885 12.5461 17.79 12.8991 17.657C13.7951 17.3239 14.6563 16.9036 15.4701 16.402Z" fill="currentColor"/>
</svg>
