<svg width="24" height="24" viewBox="0 0 24 24" fill="none" xmlns="http://www.w3.org/2000/svg">
<path d="M6.11402 3.529C6.24124 3.29932 6.45368 3.12888 6.70549 3.0545C6.95729 2.98011 7.22825 3.00774 7.45985 3.13142C7.69146 3.2551 7.86513 3.46491 7.94337 3.71555C8.02161 3.96618 7.99813 4.23753 7.87802 4.471C6.64081 6.78743 5.99565 9.37388 6.00002 12C6.00002 14.724 6.68002 17.286 7.87802 19.529C7.94227 19.645 7.98281 19.7726 7.99727 19.9045C8.01174 20.0363 7.99984 20.1697 7.96227 20.2968C7.9247 20.424 7.86221 20.5425 7.77843 20.6453C7.69466 20.7481 7.59127 20.8332 7.4743 20.8956C7.35732 20.9581 7.22908 20.9967 7.09706 21.0091C6.96503 21.0216 6.83185 21.0076 6.70526 20.9681C6.57867 20.9286 6.46121 20.8643 6.3597 20.7789C6.2582 20.6936 6.17469 20.5889 6.11402 20.471C4.72194 17.8647 3.99574 14.9547 4.00002 12C4.00002 8.94 4.76502 6.054 6.11402 3.529ZM17.882 3.529C19.2741 6.13529 20.0003 9.04526 19.996 12C19.996 15.06 19.232 17.945 17.882 20.471C17.8214 20.5889 17.7378 20.6936 17.6363 20.7789C17.5348 20.8643 17.4174 20.9286 17.2908 20.9681C17.1642 21.0076 17.031 21.0216 16.899 21.0091C16.767 20.9967 16.6387 20.9581 16.5217 20.8956C16.4048 20.8332 16.3014 20.7481 16.2176 20.6453C16.1338 20.5425 16.0713 20.424 16.0338 20.2968C15.9962 20.1697 15.9843 20.0363 15.9988 19.9045C16.0132 19.7726 16.0538 19.645 16.118 19.529C17.3552 17.2126 18.0004 14.6261 17.996 12C17.996 9.276 17.316 6.714 16.118 4.471C16.0538 4.355 16.0132 4.22737 15.9988 4.09555C15.9843 3.96373 15.9962 3.83035 16.0338 3.70317C16.0713 3.57599 16.1338 3.45755 16.2176 3.35475C16.3014 3.25196 16.4048 3.16684 16.5217 3.10438C16.6387 3.04191 16.767 3.00333 16.899 2.99089C17.031 2.97845 17.1642 2.99239 17.2908 3.03191C17.4174 3.07142 17.5348 3.13572 17.6363 3.22106C17.7378 3.3064 17.8214 3.41108 17.882 3.529Z" fill="currentColor"/>
</svg>
