<svg width="24" height="24" viewBox="0 0 24 24" fill="none" xmlns="http://www.w3.org/2000/svg">
<path fill-rule="evenodd" clip-rule="evenodd" d="M13.4063 4.01501C14.4663 4.19901 15.4563 4.58901 16.3313 5.14201C16.5838 4.80077 16.9181 4.52864 17.3035 4.35077C17.6889 4.1729 18.113 4.09501 18.5364 4.12431C18.9599 4.15361 19.3691 4.28915 19.7263 4.51841C20.0836 4.74767 20.3773 5.06325 20.5803 5.43601C21.062 5.64833 21.46 6.01385 21.7125 6.47573C21.965 6.93762 22.0578 7.46999 21.9765 7.99006C21.8952 8.51013 21.6443 8.98876 21.2629 9.35153C20.8814 9.71429 20.3908 9.94087 19.8673 9.99601C20.1739 11.1941 20.2025 12.4464 19.9509 13.6572C19.6994 14.868 19.1743 16.0052 18.4159 16.982C17.6575 17.9588 16.6858 18.7492 15.575 19.2929C14.4643 19.8366 13.244 20.1192 12.0073 20.119L11.8243 20.117C11.1843 20.6866 10.3571 21.0009 9.50032 21H5.00032C4.33818 21.0001 3.69462 20.7811 3.16995 20.3772C2.64528 19.9733 2.26898 19.4071 2.0997 18.767C1.93042 18.1268 1.97767 17.4487 2.2341 16.8382C2.49052 16.2277 2.9417 15.7193 3.51732 15.392C3.57776 14.7621 3.79661 14.1577 4.1535 13.6352C4.5104 13.1126 4.99373 12.6889 5.55848 12.4034C6.12323 12.1179 6.75104 11.98 7.38344 12.0025C8.01584 12.025 8.63227 12.2072 9.17532 12.532C9.87393 12.305 10.5168 11.9332 11.0621 11.4409C11.6073 10.9487 12.0426 10.347 12.3397 9.67517C12.6367 9.00333 12.7888 8.27642 12.786 7.54185C12.7832 6.80728 12.6255 6.08155 12.3233 5.41201C12.2485 5.24637 12.2202 5.06346 12.2415 4.88294C12.2628 4.70242 12.3329 4.53113 12.4442 4.38747C12.5556 4.24381 12.704 4.13322 12.8735 4.0676C13.0431 4.00197 13.2273 3.98379 13.4063 4.01501ZM7.25032 14C6.78619 14 6.34107 14.1844 6.01289 14.5126C5.6847 14.8408 5.50032 15.2859 5.50032 15.75L5.50332 15.85L5.51132 15.948C5.5361 16.1695 5.48619 16.3929 5.36951 16.5827C5.25284 16.7726 5.07609 16.9181 4.86732 16.996L4.75732 17.029C4.51971 17.0875 4.31179 17.2311 4.17294 17.4326C4.03409 17.6341 3.97394 17.8795 4.00388 18.1224C4.03383 18.3653 4.15178 18.5887 4.33542 18.7504C4.51905 18.9122 4.75562 19.001 5.00032 19H9.50032C9.96432 19 10.3793 18.79 10.6553 18.457C10.8164 18.2624 10.9257 18.0303 10.9732 17.7823C11.0207 17.5342 11.0048 17.2782 10.927 17.0379C10.8492 16.7976 10.7121 16.5808 10.5282 16.4076C10.3444 16.2344 10.1198 16.1103 9.87532 16.047L9.74532 16.02C9.55543 15.9891 9.37847 15.9041 9.23569 15.7751C9.0929 15.6462 8.99035 15.4788 8.94032 15.293C8.83957 14.9219 8.61952 14.5942 8.31411 14.3606C8.00869 14.1269 7.63488 14.0002 7.25032 14ZM14.7103 6.52301C14.9336 8.05863 14.6564 9.62532 13.9197 10.9911C13.1831 12.3569 12.0262 13.4491 10.6203 14.106L10.6653 14.199C11.4367 14.4711 12.0884 15.0048 12.5073 15.7074C12.9262 16.4099 13.0858 17.237 12.9583 18.045C14.2406 17.8426 15.4251 17.2373 16.3404 16.3167C17.2556 15.3962 17.8542 14.2083 18.0493 12.9249C18.2445 11.6416 18.0261 10.3294 17.4258 9.17844C16.8255 8.02747 15.8744 7.09744 14.7103 6.52301ZM18.3613 6.12001C18.2623 6.11997 18.1652 6.1478 18.0812 6.20032C17.9972 6.25284 17.9297 6.32793 17.8863 6.41701C18.3434 6.89757 18.74 7.43221 19.0673 8.00901H19.6113C19.7082 8.00803 19.8013 7.9709 19.8723 7.90489C19.9433 7.83889 19.987 7.74876 19.995 7.65217C20.0031 7.55558 19.9747 7.45947 19.9156 7.38268C19.8564 7.30589 19.7708 7.25394 19.6753 7.23701C19.5073 7.20938 19.3491 7.13931 19.2158 7.03344C19.0824 6.92756 18.9783 6.78939 18.9133 6.63201L18.8713 6.51001C18.841 6.39799 18.7746 6.29909 18.6824 6.22859C18.5902 6.1581 18.4774 6.11994 18.3613 6.12001Z" fill="currentColor"/>
</svg>
