<svg width="24" height="24" viewBox="0 0 24 24" fill="none" xmlns="http://www.w3.org/2000/svg">
<path d="M8 4C8.24493 4.00003 8.48134 4.08996 8.66437 4.25272C8.84741 4.41547 8.96434 4.63975 8.993 4.883L9 5V19C8.99972 19.2549 8.90212 19.5 8.72715 19.6854C8.55218 19.8707 8.31305 19.9822 8.05861 19.9972C7.80416 20.0121 7.55362 19.9293 7.35817 19.7657C7.16271 19.6021 7.0371 19.3701 7.007 19.117L7 19V5C7 4.73478 7.10536 4.48043 7.29289 4.29289C7.48043 4.10536 7.73478 4 8 4ZM16 4C16.2449 4.00003 16.4813 4.08996 16.6644 4.25272C16.8474 4.41547 16.9643 4.63975 16.993 4.883L17 5V19C16.9997 19.2549 16.9021 19.5 16.7272 19.6854C16.5522 19.8707 16.313 19.9822 16.0586 19.9972C15.8042 20.0121 15.5536 19.9293 15.3582 19.7657C15.1627 19.6021 15.0371 19.3701 15.007 19.117L15 19V5C15 4.73478 15.1054 4.48043 15.2929 4.29289C15.4804 4.10536 15.7348 4 16 4Z" fill="currentColor"/>
</svg>
