<svg width="24" height="24" viewBox="0 0 24 24" fill="none" xmlns="http://www.w3.org/2000/svg">
<path fill-rule="evenodd" clip-rule="evenodd" d="M11.097 2.57002C11.1809 2.40245 11.3099 2.26155 11.4693 2.16308C11.6288 2.0646 11.8126 2.01245 12 2.01245C12.1874 2.01245 12.3711 2.0646 12.5306 2.16308C12.6901 2.26155 12.819 2.40245 12.903 2.57002C13.847 4.45402 14.867 5.66602 16.111 6.47702C17.365 7.29402 18.939 7.76402 21.1 8.00502C21.69 8.07102 22.079 8.61902 21.984 9.17802C21.654 11.128 20.319 12.1 19.18 12.555L19 12.624V20H20C20.2652 20 20.5196 20.1054 20.7071 20.2929C20.8946 20.4805 21 20.7348 21 21C21 21.2652 20.8946 21.5196 20.7071 21.7071C20.5196 21.8947 20.2652 22 20 22H3.99998C3.73477 22 3.48041 21.8947 3.29288 21.7071C3.10534 21.5196 2.99998 21.2652 2.99998 21C2.99998 20.7348 3.10534 20.4805 3.29288 20.2929C3.48041 20.1054 3.73477 20 3.99998 20H4.99998V12.624C4.9396 12.602 4.87959 12.579 4.81998 12.555C3.67998 12.1 2.34598 11.127 2.01598 9.17802C1.99294 9.04245 1.99784 8.90359 2.03036 8.76997C2.06288 8.63635 2.12235 8.51078 2.20511 8.40096C2.28788 8.29113 2.3922 8.19936 2.51169 8.13128C2.63117 8.0632 2.76331 8.02024 2.89998 8.00502C5.05998 7.76402 6.63498 7.29402 7.88798 6.47702C9.13298 5.66602 10.152 4.45402 11.097 2.57002ZM7.99998 13H6.99998V20H7.99998V13ZM14 13H9.99998V20H14V13ZM17 13H16V20H17V13ZM12 5.02802C11.148 6.34802 10.17 7.37702 8.97998 8.15202C7.66498 9.01002 6.14998 9.52002 4.37598 9.82002C4.67798 10.247 5.10598 10.517 5.56098 10.699C6.01398 10.879 6.51398 10.99 7.00298 11.001H17.011C17.5006 10.9838 17.9834 10.8816 18.438 10.699C18.893 10.517 19.322 10.247 19.624 9.81902C17.851 9.52002 16.335 9.01102 15.02 8.15302C13.829 7.37802 12.851 6.34802 12 5.02802Z" fill="currentColor"/>
</svg>
