<svg width="24" height="24" viewBox="0 0 24 24" fill="none" xmlns="http://www.w3.org/2000/svg">
<path fill-rule="evenodd" clip-rule="evenodd" d="M13.586 2C14.0556 2.00011 14.5101 2.16543 14.87 2.467L15 2.586L19.414 7C19.746 7.33202 19.9506 7.77028 19.992 8.238L20 8.414V20C20.0002 20.5046 19.8096 20.9906 19.4665 21.3605C19.1234 21.7305 18.6532 21.9572 18.15 21.995L18 22H6C5.49542 22.0002 5.00943 21.8096 4.63945 21.4665C4.26947 21.1234 4.04284 20.6532 4.005 20.15L4 20V4C3.99984 3.49542 4.19041 3.00943 4.5335 2.63945C4.87659 2.26947 5.34684 2.04284 5.85 2.005L6 2H13.586ZM12 4H6V20H18V10H13.5C13.1271 9.99998 12.7676 9.86108 12.4916 9.61038C12.2156 9.35968 12.0428 9.01516 12.007 8.644L12 8.5V4ZM12.988 11.848C13.2277 13.371 14.0241 14.7507 15.223 15.72C16.11 16.437 15.299 17.841 14.235 17.432C12.7964 16.8784 11.2036 16.8784 9.765 17.432C8.7 17.842 7.889 16.437 8.776 15.72C9.97498 14.7508 10.7714 13.371 11.011 11.848C11.189 10.721 12.811 10.722 12.988 11.848ZM11.998 14.152L11.31 15.348H12.69L11.998 14.152ZM14 4.414V8H17.586L14 4.414Z" fill="currentColor"/>
</svg>
