<svg width="24" height="24" viewBox="0 0 24 24" fill="none" xmlns="http://www.w3.org/2000/svg">
<path d="M16.035 3.01499C16.5735 2.47639 17.2967 2.16274 18.0578 2.13767C18.819 2.1126 19.5613 2.37798 20.134 2.87999L20.278 3.01499L20.985 3.72199C21.5233 4.26041 21.8368 4.98337 21.8619 5.74433C21.8869 6.50528 21.6217 7.2473 21.12 7.81999L20.985 7.96399L9.77302 19.177C9.61449 19.3355 9.42245 19.4565 9.21102 19.531L9.04902 19.578L4.59502 20.606C4.43898 20.642 4.27657 20.6401 4.12143 20.6004C3.96628 20.5607 3.82293 20.4844 3.70341 20.3778C3.58389 20.2712 3.49168 20.1375 3.43454 19.9879C3.3774 19.8382 3.35699 19.6771 3.37502 19.518L3.39502 19.405L4.42202 14.95C4.47275 14.7315 4.57185 14.5271 4.71202 14.352L4.82302 14.227L16.035 3.01499ZM15.328 6.54999L6.33802 15.54L5.70202 18.298L8.46002 17.661L17.45 8.67099L15.328 6.54999ZM18.864 4.42899C18.6918 4.25681 18.4627 4.15338 18.2197 4.1381C17.9767 4.12282 17.7364 4.19674 17.544 4.34599L17.45 4.42899L16.742 5.13599L18.864 7.25699L19.571 6.54999C19.7432 6.3778 19.8466 6.1487 19.8619 5.90567C19.8772 5.66264 19.8033 5.42239 19.654 5.22999L19.571 5.13599L18.864 4.42899Z" fill="currentColor"/>
</svg>
