<svg width="24" height="24" viewBox="0 0 24 24" fill="none" xmlns="http://www.w3.org/2000/svg">
<path fill-rule="evenodd" clip-rule="evenodd" d="M19.5708 3.722L20.2778 4.429C20.8402 4.99158 21.1561 5.75451 21.1561 6.55C21.1561 7.34549 20.8402 8.10842 20.2778 8.671L17.3028 11.646L20.4848 14.828C20.6706 15.0137 20.818 15.2342 20.9185 15.4769C21.0191 15.7196 21.0709 15.9798 21.0709 16.2425C21.0709 16.5052 21.0191 16.7653 20.9185 17.0081C20.818 17.2508 20.6706 17.4713 20.4848 17.657L17.6568 20.485C17.4711 20.6708 17.2505 20.8182 17.0078 20.9188C16.7651 21.0193 16.505 21.0711 16.2423 21.0711C15.9796 21.0711 15.7194 21.0193 15.4767 20.9188C15.234 20.8182 15.0135 20.6708 14.8278 20.485L11.6458 17.303L9.28278 19.667C9.05051 19.8993 8.74837 20.049 8.42278 20.093L4.50278 20.623C4.34996 20.6437 4.19444 20.6287 4.04833 20.5794C3.90223 20.5301 3.7695 20.4476 3.66051 20.3385C3.55151 20.2294 3.4692 20.0966 3.41998 19.9505C3.37076 19.8043 3.35598 19.6488 3.37678 19.496L3.90678 15.577C3.95077 15.2514 4.10043 14.9493 4.33278 14.717L6.69678 12.354L3.51478 9.172C3.32898 8.98627 3.18159 8.76576 3.08103 8.52305C2.98047 8.28035 2.92871 8.02021 2.92871 7.7575C2.92871 7.49479 2.98047 7.23465 3.08103 6.99195C3.18159 6.74924 3.32898 6.52873 3.51478 6.343L6.34278 3.515C6.52851 3.3292 6.74903 3.1818 6.99173 3.08124C7.23443 2.98068 7.49457 2.92893 7.75728 2.92893C8.02 2.92893 8.28013 2.98068 8.52284 3.08124C8.76554 3.1818 8.98606 3.3292 9.17178 3.515L12.3538 6.697L15.3278 3.722C15.6064 3.44337 15.9371 3.22235 16.3011 3.07155C16.6651 2.92075 17.0553 2.84314 17.4493 2.84314C17.8433 2.84314 18.2334 2.92075 18.5975 3.07155C18.9615 3.22235 19.2922 3.44337 19.5708 3.722ZM15.8888 13.061L13.0608 15.889L13.4138 16.243L14.1208 15.536C14.3003 15.3547 14.5424 15.249 14.7973 15.2403C15.0523 15.2317 15.301 15.3208 15.4924 15.4895C15.6838 15.6581 15.8035 15.8936 15.827 16.1476C15.8505 16.4017 15.776 16.6551 15.6188 16.856L15.5358 16.95L14.8288 17.657L16.2428 19.071L19.0708 16.243L15.8888 13.061ZM14.6208 7.257L5.86578 16.012L5.53478 18.465L7.98778 18.133L16.7428 9.379L14.6208 7.257ZM7.75678 4.93L4.92978 7.757L6.34378 9.172L7.05078 8.465C7.23033 8.28374 7.47235 8.17797 7.72733 8.16932C7.98231 8.16067 8.23095 8.2498 8.42236 8.41846C8.61378 8.58713 8.73349 8.82258 8.75699 9.07662C8.78049 9.33066 8.70601 9.58408 8.54878 9.785L8.46478 9.879L7.75778 10.586L8.11178 10.939L10.9398 8.111L7.75678 4.93ZM16.7428 5.137L16.0358 5.844L18.1558 7.965L18.8638 7.258C19.0513 7.07047 19.1566 6.81616 19.1566 6.551C19.1566 6.28584 19.0513 6.03153 18.8638 5.844L18.1568 5.137C17.9693 4.94953 17.7149 4.84421 17.4498 4.84421C17.1846 4.84421 16.9303 4.94953 16.7428 5.137Z" fill="currentColor"/>
</svg>
