<svg width="24" height="24" viewBox="0 0 24 24" fill="none" xmlns="http://www.w3.org/2000/svg">
<path fill-rule="evenodd" clip-rule="evenodd" d="M17.2171 13.479L18.2171 14.172C19.3731 14.984 20.5821 15.91 21.5211 17.113C21.6826 17.321 21.7852 17.5686 21.8183 17.8298C21.8513 18.091 21.8136 18.3563 21.7091 18.598C21.37 19.3894 20.861 20.0965 20.2181 20.6692C19.5752 21.2419 18.8143 21.6662 17.9891 21.912L17.6641 21.999C17.3441 22.079 16.9641 22.148 16.5521 22.132L16.3351 22.122L15.9491 22.088L15.8051 22.072L15.4951 22.03L15.3291 22.004L14.9771 21.94C14.8507 21.9147 14.7247 21.8873 14.5991 21.858L14.1971 21.758C12.6091 21.335 10.5141 20.452 8.2801 18.624L9.7021 17.202C11.7321 18.822 13.5871 19.552 14.9121 19.877L15.2591 19.957L15.5791 20.017C15.6291 20.027 15.6791 20.035 15.7271 20.042L16.0011 20.082L16.2441 20.108L16.5441 20.13L16.6261 20.134C16.7391 20.138 16.8661 20.126 17.0181 20.095L17.2531 20.04C17.7811 19.908 18.2754 19.6661 18.7036 19.3301C19.1318 18.9941 19.4843 18.5715 19.7381 18.09C19.0261 17.255 18.1421 16.57 17.1671 15.88L16.4191 15.359L15.1071 16.671C14.9039 16.876 14.6448 17.0165 14.3622 17.075C14.0796 17.1335 13.786 17.1074 13.5181 17L13.2781 16.899L12.9811 16.765L12.6381 16.598C12.1317 16.3416 11.6429 16.0516 11.1751 15.73L12.6171 14.287C13.1301 14.613 13.5991 14.85 13.9431 15.007L15.3001 13.65C15.5491 13.4013 15.8775 13.248 16.2281 13.2167C16.5786 13.1855 16.929 13.2783 17.2181 13.479H17.2171ZM5.4121 2.286C5.64607 2.18497 5.9023 2.1465 6.15563 2.17438C6.40896 2.20225 6.65069 2.29551 6.8571 2.445C7.9671 3.254 8.8381 4.351 9.5851 5.411L10.0191 6.04L10.5261 6.787C10.7103 7.05597 10.8022 7.37749 10.788 7.70318C10.7737 8.02888 10.6541 8.34114 10.4471 8.593L10.3501 8.7L8.9941 10.056C9.1841 10.476 9.4941 11.082 9.9421 11.726L10.1161 11.97L16.0101 6.075C16.1896 5.89375 16.4317 5.78797 16.6866 5.77932C16.9416 5.77067 17.1903 5.8598 17.3817 6.02847C17.5731 6.19714 17.6928 6.43259 17.7163 6.68663C17.7398 6.94067 17.6653 7.19408 17.5081 7.395L17.4251 7.49L3.9901 20.925C3.81055 21.1063 3.56853 21.212 3.31355 21.2207C3.05857 21.2293 2.80993 21.1402 2.61852 20.9715C2.4271 20.8029 2.30739 20.5674 2.28389 20.3134C2.26039 20.0593 2.33487 19.8059 2.4921 19.605L2.5751 19.51L5.8301 16.255C3.7881 13.933 2.7901 11.725 2.3071 10.039L2.2001 9.644L2.1121 9.271L2.0401 8.92L1.9831 8.593C1.97506 8.54172 1.9674 8.49039 1.9601 8.439L1.9221 8.149L1.8951 7.887L1.8781 7.653L1.8681 7.448C1.8551 7.118 1.8971 6.809 1.9551 6.535L2.0161 6.273C2.23651 5.39162 2.65773 4.57315 3.24684 3.88151C3.83596 3.18988 4.57701 2.64382 5.4121 2.286ZM5.9281 4.253C5.47467 4.49036 5.0725 4.81479 4.74459 5.20773C4.41668 5.60067 4.16947 6.05442 4.0171 6.543L3.9411 6.821C3.89038 7.00092 3.86513 7.18707 3.8661 7.374L3.8811 7.631L3.9131 7.958L3.9481 8.212L3.9951 8.494L4.0241 8.645L4.0941 8.966C4.1061 9.022 4.1201 9.078 4.1341 9.136L4.2311 9.493L4.3471 9.871C4.7901 11.234 5.6371 12.978 7.2481 14.838L8.6881 13.397C8.31709 12.9188 7.98153 12.4141 7.6841 11.887L7.4751 11.505L7.3841 11.325L7.2241 10.997L7.0441 10.59C7.02921 10.5538 7.01455 10.5174 7.0001 10.481C6.89279 10.213 6.86686 9.91938 6.92555 9.63675C6.98425 9.35413 7.12496 9.09508 7.3301 8.892L8.6441 7.577L8.5831 7.487C7.7291 6.23 6.9461 5.078 5.9281 4.253Z" fill="currentColor"/>
</svg>
