<svg width="24" height="24" viewBox="0 0 24 24" fill="none" xmlns="http://www.w3.org/2000/svg">
<path fill-rule="evenodd" clip-rule="evenodd" d="M6.85705 2.445C8.12005 3.366 9.07605 4.66 9.89005 5.849L10.528 6.787C10.7262 7.07657 10.8168 7.42628 10.7843 7.77563C10.7518 8.12497 10.5982 8.45196 10.35 8.7L8.99405 10.056L9.13705 10.36C9.48705 11.069 10.091 12.09 11 13C11.6277 13.6182 12.3353 14.1496 13.104 14.58L13.471 14.777L13.798 14.939L13.944 15.006L15.299 13.65C15.5481 13.4013 15.8765 13.248 16.227 13.2167C16.5776 13.1855 16.928 13.2783 17.217 13.479L18.231 14.182C19.383 14.992 20.586 15.915 21.521 17.113C21.6827 17.3209 21.7855 17.5684 21.8187 17.8296C21.852 18.0909 21.8144 18.3562 21.71 18.598C20.873 20.551 18.755 22.214 16.552 22.132L16.252 22.116L16.019 22.096L15.761 22.066L15.48 22.028L15.175 21.977L14.849 21.913L14.503 21.836L14.137 21.742L13.752 21.632L13.35 21.502C11.504 20.876 9.16105 19.646 6.75705 17.242C4.35405 14.839 3.12405 12.496 2.49805 10.65L2.36805 10.248L2.25805 9.863L2.16405 9.497L2.08605 9.151C2.06352 9.04264 2.04251 8.93396 2.02305 8.825L1.97305 8.52L1.93305 8.239L1.90405 7.981L1.88405 7.748L1.86805 7.448C1.78705 5.252 3.46805 3.119 5.41205 2.286C5.64602 2.18497 5.90225 2.1465 6.15558 2.17438C6.40891 2.20225 6.65063 2.29551 6.85705 2.445ZM5.93005 4.253C4.85805 4.813 3.82005 6.093 3.86705 7.374L3.88705 7.702L3.90905 7.907L3.93805 8.137L3.97805 8.39L4.02905 8.667L4.09405 8.965L4.17405 9.285L4.27005 9.624L4.38405 9.982C4.42605 10.104 4.47005 10.229 4.51805 10.357L4.67205 10.749L4.84805 11.156C5.47605 12.538 6.50005 14.156 8.17305 15.828C9.84505 17.5 11.463 18.525 12.845 19.153L13.252 19.329L13.644 19.483C13.772 19.531 13.897 19.575 14.019 19.617L14.377 19.731L14.717 19.827L15.036 19.907L15.334 19.972L15.611 20.023L15.865 20.063L16.095 20.093L16.299 20.113L16.627 20.133C17.891 20.18 19.181 19.148 19.739 18.09C19.027 17.255 18.143 16.57 17.168 15.88L16.42 15.359L16.23 15.558L15.824 16.001L15.609 16.227C15.023 16.824 14.339 17.331 13.519 17L13.293 16.905L13.017 16.781L12.863 16.708L12.525 16.539L12.154 16.339C11.2152 15.8165 10.3516 15.1689 9.58705 14.414C8.83213 13.6494 8.18454 12.7859 7.66205 11.847L7.46205 11.477L7.29205 11.138L7.09605 10.708L7.00005 10.48C6.68905 9.711 7.11705 9.062 7.66405 8.5L7.88805 8.28L8.44504 7.767L8.64505 7.577L8.17205 6.884C7.46905 5.864 6.78205 4.944 5.92905 4.252L5.93005 4.253ZM13.819 3.818C13.9912 3.64583 14.2203 3.54239 14.4634 3.52711C14.7064 3.51183 14.9466 3.58575 15.139 3.735L15.233 3.818L17 5.586L18.768 3.818C18.948 3.63865 19.1895 3.53453 19.4434 3.52677C19.6974 3.51902 19.9448 3.60822 20.1353 3.77625C20.3259 3.94428 20.4454 4.17855 20.4694 4.43148C20.4935 4.6844 20.4205 4.93701 20.265 5.138L20.182 5.232L18.414 7L20.182 8.768C20.3614 8.94796 20.4655 9.18944 20.4733 9.44339C20.481 9.69734 20.3918 9.94472 20.2238 10.1353C20.0558 10.3258 19.8215 10.4453 19.5686 10.4694C19.3156 10.4935 19.063 10.4204 18.862 10.265L18.768 10.182L17 8.414L15.232 10.182C15.0521 10.3614 14.8106 10.4655 14.5567 10.4732C14.3027 10.481 14.0553 10.3918 13.8648 10.2238C13.6742 10.0557 13.5547 9.82145 13.5306 9.56853C13.5066 9.3156 13.5796 9.06299 13.735 8.862L13.818 8.768L15.586 7L13.818 5.232C13.6306 5.04447 13.5253 4.79017 13.5253 4.525C13.5253 4.25984 13.6306 4.00553 13.818 3.818H13.819Z" fill="currentColor"/>
</svg>
