<svg width="24" height="24" viewBox="0 0 24 24" fill="none" xmlns="http://www.w3.org/2000/svg">
<path d="M6.85705 2.445C8.12005 3.366 9.07605 4.66 9.89005 5.849L10.528 6.787C10.7262 7.07657 10.8168 7.42628 10.7843 7.77563C10.7518 8.12497 10.5982 8.45196 10.35 8.7L8.99405 10.056L9.13705 10.36C9.48705 11.069 10.091 12.09 11 13C11.6277 13.6182 12.3353 14.1496 13.104 14.58L13.471 14.777L13.798 14.939L13.944 15.006L15.299 13.65C15.5481 13.4013 15.8765 13.248 16.227 13.2167C16.5776 13.1855 16.928 13.2783 17.217 13.479L18.231 14.182C19.383 14.992 20.586 15.915 21.521 17.113C21.6827 17.3209 21.7855 17.5684 21.8187 17.8296C21.852 18.0909 21.8144 18.3562 21.71 18.598C20.873 20.551 18.755 22.214 16.552 22.132L16.252 22.116L16.019 22.096L15.761 22.066L15.48 22.028L15.175 21.977L14.849 21.913L14.503 21.836L14.137 21.742L13.752 21.632L13.35 21.502C11.504 20.876 9.16105 19.646 6.75705 17.242C4.35405 14.839 3.12405 12.496 2.49805 10.65L2.36805 10.248L2.25805 9.863L2.16405 9.497L2.08605 9.151C2.06352 9.04264 2.04251 8.93396 2.02305 8.825L1.97305 8.52L1.93305 8.239L1.90405 7.981L1.88405 7.748L1.86805 7.448C1.78705 5.252 3.46805 3.119 5.41205 2.286C5.64602 2.18497 5.90225 2.1465 6.15558 2.17438C6.40891 2.20225 6.65063 2.29551 6.85705 2.445ZM5.93005 4.253C4.85805 4.813 3.82005 6.093 3.86705 7.374L3.88705 7.702L3.90905 7.907L3.93805 8.137L3.97805 8.39L4.02905 8.667L4.09405 8.965L4.17405 9.285L4.27005 9.624L4.38405 9.982C4.42605 10.104 4.47005 10.229 4.51805 10.357L4.67205 10.749L4.84805 11.156C5.47605 12.538 6.50005 14.156 8.17305 15.828C9.84505 17.5 11.463 18.525 12.845 19.153L13.252 19.329L13.644 19.483C13.772 19.531 13.897 19.575 14.019 19.617L14.377 19.731L14.717 19.827L15.036 19.907L15.334 19.972L15.611 20.023L15.865 20.063L16.095 20.093L16.299 20.113L16.627 20.133C17.891 20.18 19.181 19.148 19.739 18.09C19.027 17.255 18.143 16.57 17.168 15.88L16.42 15.359L16.23 15.558L15.824 16.001L15.609 16.227C15.023 16.824 14.339 17.331 13.519 17L13.293 16.905L13.017 16.781L12.863 16.708L12.525 16.539L12.154 16.339C11.2152 15.8165 10.3516 15.1689 9.58705 14.414C8.83213 13.6494 8.18454 12.7859 7.66205 11.847L7.46205 11.477L7.29205 11.138L7.09605 10.708L7.00005 10.48C6.68905 9.711 7.11705 9.062 7.66405 8.5L7.88805 8.28L8.44504 7.767L8.64505 7.577L8.17205 6.884C7.46905 5.864 6.78205 4.944 5.92905 4.252L5.93005 4.253ZM14.993 6.04L15.109 6.053C15.837 6.1814 16.5055 6.53694 17.0189 7.06868C17.5324 7.60042 17.8642 8.28104 17.967 9.013C18.0037 9.26618 17.9419 9.52378 17.7944 9.73281C17.647 9.94183 17.425 10.0864 17.1742 10.1367C16.9233 10.1871 16.6628 10.1394 16.446 10.0034C16.2293 9.86753 16.0729 9.65372 16.009 9.406L15.986 9.291C15.9458 9.0041 15.8234 8.73499 15.6335 8.51619C15.4436 8.29738 15.1944 8.13824 14.916 8.058L14.761 8.023C14.5099 7.9785 14.2853 7.83974 14.1331 7.63511C13.981 7.43048 13.9127 7.17544 13.9423 6.92215C13.972 6.66886 14.0973 6.43646 14.2926 6.27248C14.4879 6.10851 14.7385 6.02534 14.993 6.04ZM15 3C16.5913 3 18.1175 3.63214 19.2427 4.75736C20.3679 5.88258 21 7.4087 21 9C20.9998 9.25488 20.9022 9.50003 20.7272 9.68537C20.5522 9.87071 20.3131 9.98224 20.0587 9.99717C19.8042 10.0121 19.5537 9.92933 19.3582 9.76574C19.1628 9.60215 19.0371 9.3701 19.007 9.117L19 9C19.0004 7.98442 18.6143 7.00676 17.92 6.26553C17.2258 5.52429 16.2755 5.07505 15.262 5.009L15 5C14.7348 5 14.4805 4.89464 14.2929 4.70711C14.1054 4.51957 14 4.26522 14 4C14 3.73479 14.1054 3.48043 14.2929 3.2929C14.4805 3.10536 14.7348 3 15 3Z" fill="currentColor"/>
</svg>
