<svg width="24" height="24" viewBox="0 0 24 24" fill="none" xmlns="http://www.w3.org/2000/svg">
<path fill-rule="evenodd" clip-rule="evenodd" d="M5.41202 2.286C5.646 2.18497 5.90222 2.1465 6.15555 2.17438C6.40888 2.20225 6.65061 2.29551 6.85702 2.445C8.12002 3.366 9.07602 4.66 9.89002 5.849L10.528 6.787C10.7121 7.05608 10.8038 7.37766 10.7894 7.70335C10.775 8.02905 10.6552 8.34125 10.448 8.593L10.351 8.7L8.99502 10.056L9.13802 10.36C9.48802 11.069 10.092 12.09 11.001 13C11.6287 13.6182 12.3363 14.1496 13.105 14.58L13.472 14.777L13.799 14.939L13.945 15.006L15.3 13.65C15.549 13.4013 15.8775 13.248 16.228 13.2167C16.5786 13.1855 16.9289 13.2783 17.218 13.479L18.232 14.182C19.384 14.992 20.587 15.915 21.522 17.113C21.6837 17.3209 21.7865 17.5684 21.8197 17.8296C21.853 18.0909 21.8154 18.3562 21.711 18.598C20.874 20.551 18.756 22.214 16.553 22.132L16.253 22.116L16.02 22.096L15.762 22.066L15.481 22.028L15.176 21.977L14.85 21.913L14.504 21.836L14.138 21.742L13.753 21.632L13.351 21.502C11.505 20.876 9.16202 19.646 6.75802 17.242C4.35502 14.839 3.12502 12.496 2.49902 10.65L2.36902 10.248L2.25902 9.863L2.16502 9.497L2.08702 9.151C2.06449 9.04264 2.04349 8.93396 2.02402 8.825L1.97402 8.52L1.93402 8.239L1.90502 7.981L1.88502 7.748L1.86902 7.448C1.78802 5.252 3.46802 3.119 5.41202 2.286ZM5.92902 4.253C4.85702 4.813 3.81902 6.093 3.86602 7.374L3.88602 7.702L3.90802 7.907L3.93702 8.137L3.97702 8.39L4.02802 8.667L4.09302 8.965L4.17302 9.285L4.26902 9.624L4.38302 9.982C4.42502 10.104 4.46902 10.229 4.51702 10.357L4.67102 10.749L4.84702 11.156C5.47502 12.538 6.49902 14.156 8.17202 15.828C9.84402 17.5 11.462 18.525 12.844 19.153L13.251 19.329L13.643 19.483C13.771 19.531 13.896 19.575 14.018 19.617L14.376 19.731L14.716 19.827L15.035 19.907L15.333 19.972L15.61 20.023L15.864 20.063L16.094 20.093L16.298 20.113L16.626 20.133C17.89 20.18 19.18 19.148 19.738 18.09C19.026 17.255 18.142 16.57 17.167 15.88L16.419 15.359L16.229 15.558L15.823 16.001L15.608 16.227C15.022 16.824 14.338 17.331 13.518 17L13.292 16.905L13.016 16.781L12.862 16.708L12.524 16.539L12.153 16.339C11.2141 15.8165 10.3506 15.1689 9.58602 14.414C8.8311 13.6494 8.18352 12.7859 7.66102 11.847L7.46102 11.477L7.29102 11.138L7.09502 10.708L7.00002 10.48C6.68902 9.711 7.11702 9.062 7.66402 8.5L7.88802 8.28L8.44502 7.767L8.64502 7.577L8.17202 6.884C7.46902 5.864 6.78202 4.945 5.92902 4.253ZM20.707 3.293C20.8945 3.48053 20.9998 3.73484 20.9998 4C20.9998 4.26517 20.8945 4.51947 20.707 4.707L17.414 8H19C19.2652 8 19.5196 8.10536 19.7071 8.2929C19.8947 8.48043 20 8.73479 20 9C20 9.26522 19.8947 9.51957 19.7071 9.70711C19.5196 9.89464 19.2652 10 19 10H15C14.7348 10 14.4805 9.89464 14.2929 9.70711C14.1054 9.51957 14 9.26522 14 9V5C14 4.73479 14.1054 4.48043 14.2929 4.2929C14.4805 4.10536 14.7348 4 15 4C15.2652 4 15.5196 4.10536 15.7071 4.2929C15.8947 4.48043 16 4.73479 16 5V6.586L19.293 3.293C19.4806 3.10553 19.7349 3.00022 20 3.00022C20.2652 3.00022 20.5195 3.10553 20.707 3.293Z" fill="currentColor"/>
</svg>
