<svg width="24" height="24" viewBox="0 0 24 24" fill="none" xmlns="http://www.w3.org/2000/svg">
<path d="M20 3C20.5304 3 21.0391 3.21071 21.4142 3.58579C21.7893 3.96086 22 4.46957 22 5V19C22 19.5304 21.7893 20.0391 21.4142 20.4142C21.0391 20.7893 20.5304 21 20 21H4C3.46957 21 2.96086 20.7893 2.58579 20.4142C2.21071 20.0391 2 19.5304 2 19V5C2 4.46957 2.21071 3.96086 2.58579 3.58579C2.96086 3.21071 3.46957 3 4 3H20ZM20 5H4V19H4.929L14.237 9.692C14.3531 9.57589 14.4909 9.48379 14.6426 9.42095C14.7942 9.35811 14.9568 9.32577 15.121 9.32577C15.2852 9.32577 15.4478 9.35811 15.5994 9.42095C15.7511 9.48379 15.8889 9.57589 16.005 9.692L20 13.686V5ZM15.121 11.636L7.757 19H20V16.515L15.121 11.636ZM7.5 7C7.89782 7 8.27936 7.15804 8.56066 7.43934C8.84196 7.72064 9 8.10218 9 8.5C9 8.89782 8.84196 9.27936 8.56066 9.56066C8.27936 9.84196 7.89782 10 7.5 10C7.10218 10 6.72064 9.84196 6.43934 9.56066C6.15804 9.27936 6 8.89782 6 8.5C6 8.10218 6.15804 7.72064 6.43934 7.43934C6.72064 7.15804 7.10218 7 7.5 7Z" fill="currentColor"/>
</svg>
