<svg width="24" height="24" viewBox="0 0 24 24" fill="none" xmlns="http://www.w3.org/2000/svg">
<path d="M20 3C20.5046 2.99984 20.9906 3.19041 21.3605 3.5335C21.7305 3.87659 21.9572 4.34684 21.995 4.85L22 5V19C22.0002 19.5046 21.8096 19.9906 21.4665 20.3605C21.1234 20.7305 20.6532 20.9572 20.15 20.995L20 21H4C3.49542 21.0002 3.00943 20.8096 2.63945 20.4665C2.26947 20.1234 2.04284 19.6532 2.005 19.15L2 19V5C1.99984 4.49542 2.19041 4.00943 2.5335 3.63945C2.87659 3.26947 3.34684 3.04284 3.85 3.005L4 3H20ZM9.879 12.05L4.222 17.707C4.15618 17.7731 4.08146 17.8296 4 17.875V19H20V17.875C19.9185 17.8296 19.8438 17.7731 19.778 17.707L16.95 14.88L16.243 15.587L16.45 15.794C16.5428 15.8869 16.6165 15.9972 16.6667 16.1186C16.7169 16.2399 16.7427 16.37 16.7427 16.5014C16.7427 16.6327 16.7167 16.7628 16.6664 16.8841C16.6161 17.0054 16.5424 17.1157 16.4495 17.2085C16.3566 17.3013 16.2463 17.375 16.1249 17.4252C16.0036 17.4754 15.8735 17.5012 15.7421 17.5012C15.6108 17.5012 15.4807 17.4752 15.3594 17.4249C15.2381 17.3746 15.1278 17.3009 15.035 17.208L9.88 12.05H9.879ZM20 5H4V15.1L8.995 10.106C9.21274 9.88832 9.50316 9.75865 9.8106 9.74186C10.118 9.72506 10.4208 9.82233 10.661 10.015L10.762 10.105L14.828 14.172L16.066 12.934C16.2837 12.7163 16.5742 12.5866 16.8816 12.5699C17.189 12.5531 17.4918 12.6503 17.732 12.843L17.834 12.934L20 15.101V5ZM15.5 7C15.8978 7 16.2794 7.15804 16.5607 7.43934C16.842 7.72064 17 8.10218 17 8.5C17 8.89782 16.842 9.27936 16.5607 9.56066C16.2794 9.84196 15.8978 10 15.5 10C15.1022 10 14.7206 9.84196 14.4393 9.56066C14.158 9.27936 14 8.89782 14 8.5C14 8.10218 14.158 7.72064 14.4393 7.43934C14.7206 7.15804 15.1022 7 15.5 7Z" fill="currentColor"/>
</svg>
