<svg width="24" height="24" viewBox="0 0 24 24" fill="none" xmlns="http://www.w3.org/2000/svg">
<path fill-rule="evenodd" clip-rule="evenodd" d="M3.24076 14.318C2.85476 11.637 3.94576 9.085 5.66176 7.079L5.61376 7.028C5.4316 6.8394 5.33081 6.5868 5.33309 6.3246C5.33537 6.0624 5.44053 5.81159 5.62594 5.62618C5.81135 5.44078 6.06216 5.33561 6.32436 5.33333C6.58656 5.33105 6.83916 5.43184 7.02776 5.614L7.07776 5.662C9.08476 3.946 11.6368 2.855 14.3178 3.242C14.5041 3.27964 14.6758 3.36961 14.8128 3.50137C14.9499 3.63312 15.0465 3.8012 15.0914 3.9859C15.1363 4.17061 15.1277 4.36429 15.0665 4.54425C15.0052 4.72422 14.894 4.883 14.7458 5.002C13.8258 5.772 12.9158 6.552 12.0568 7.389C11.5407 7.88659 11.0501 8.40992 10.5868 8.957L18.6948 16.575C18.7924 16.6667 18.8706 16.7772 18.9247 16.8997C18.9788 17.0222 19.0077 17.1544 19.0098 17.2883C19.0118 17.4223 18.9869 17.5553 18.9366 17.6794C18.8863 17.8036 18.8115 17.9163 18.7168 18.011L18.0098 18.718C17.915 18.8127 17.8022 18.8874 17.678 18.9376C17.5538 18.9879 17.4208 19.0127 17.2869 19.0105C17.153 19.0084 17.0208 18.9793 16.8983 18.9251C16.7758 18.8709 16.6654 18.7927 16.5738 18.695L8.95676 10.587C8.40991 11.0506 7.88659 11.5412 7.38876 12.057C6.52376 12.945 5.72076 13.887 4.92376 14.835C4.79517 14.9618 4.63466 15.0513 4.45927 15.0942C4.28388 15.1371 4.10014 15.1317 3.92757 15.0786C3.75499 15.0255 3.60002 14.9266 3.4791 14.7926C3.35818 14.6585 3.27582 14.4951 3.24076 14.318ZM11.0438 5.59L10.6608 5.957C10.2318 6.375 9.83776 6.781 9.48576 7.173C9.12276 7.584 8.76276 7.999 8.45276 8.453C8.00476 8.751 7.68676 9.023 7.17276 9.486C6.75669 9.8664 6.3512 10.2582 5.95676 10.661L5.58976 11.044C6.07176 9.796 6.81176 8.703 7.75676 7.757C8.68882 6.81274 9.8086 6.07451 11.0438 5.59Z" fill="currentColor"/>
</svg>
