<svg width="24" height="24" viewBox="0 0 24 24" fill="none" xmlns="http://www.w3.org/2000/svg">
<path fill-rule="evenodd" clip-rule="evenodd" d="M18.615 4.212C18.7348 4.30546 18.8318 4.42501 18.8985 4.56155C18.9652 4.69809 18.9999 4.84804 19 5V7.101C19.7974 7.91378 20.3844 8.90891 20.71 10H21C21.2652 10 21.5196 10.1054 21.7071 10.2929C21.8946 10.4804 22 10.7348 22 11V14C21.9999 14.1857 21.9481 14.3676 21.8504 14.5255C21.7528 14.6834 21.6131 14.811 21.447 14.894L19.991 15.623C19.4825 16.4614 18.8044 17.1842 18 17.745V19C18 19.2652 17.8946 19.5196 17.7071 19.7071C17.5196 19.8946 17.2652 20 17 20H14C13.7348 20 13.4804 19.8946 13.2929 19.7071C13.1054 19.5196 13 19.2652 13 19H12C12 19.2652 11.8946 19.5196 11.7071 19.7071C11.5196 19.8946 11.2652 20 11 20H8C7.73478 20 7.48043 19.8946 7.29289 19.7071C7.10536 19.5196 7 19.2652 7 19V17.745C5.6729 16.8201 4.70631 15.4649 4.264 13.909C3.61681 13.745 3.04278 13.37 2.63272 12.8431C2.22267 12.3162 2.00002 11.6676 2 11V10.5C2 10.2348 2.10536 9.98043 2.29289 9.7929C2.48043 9.60536 2.73478 9.5 3 9.5C3.26522 9.5 3.51957 9.60536 3.70711 9.7929C3.89464 9.98043 4 10.2348 4 10.5V11C3.99977 11.0919 4.01222 11.1835 4.037 11.272C4.21699 9.55075 5.02822 7.95719 6.3141 6.79891C7.59999 5.64064 9.26936 4.99977 11 5H13.877L17.757 4.03C17.9044 3.99315 18.0583 3.99038 18.207 4.02192C18.3557 4.05345 18.4952 4.11846 18.615 4.212ZM10 18C10 17.7348 10.1054 17.4804 10.2929 17.2929C10.4804 17.1054 10.7348 17 11 17H14C14.2652 17 14.5196 17.1054 14.7071 17.2929C14.8946 17.4804 15 17.7348 15 18H16V17.197C16.0002 17.0216 16.0465 16.8494 16.1342 16.6976C16.222 16.5458 16.3481 16.4197 16.5 16.332C17.2987 15.8693 17.9547 15.1957 18.396 14.385C18.4937 14.2055 18.6442 14.0603 18.827 13.969L20 13.382V12H19.917C19.6804 11.9999 19.4516 11.916 19.271 11.7631C19.0905 11.6102 18.97 11.3983 18.931 11.165C18.7422 10.0475 18.1786 9.02756 17.333 8.273C17.2282 8.17922 17.1444 8.06439 17.087 7.93602C17.0297 7.80765 17 7.66862 17 7.528V6.28L14.242 6.97C14.1629 6.98984 14.0816 6.99991 14 7H11C9.89873 6.99929 8.82803 7.36218 7.95413 8.03232C7.08024 8.70247 6.45203 9.64239 6.16706 10.7062C5.88208 11.7699 5.95627 12.898 6.37812 13.9153C6.79996 14.9325 7.54586 15.7821 8.5 16.332C8.65187 16.4197 8.77801 16.5458 8.86577 16.6976C8.95353 16.8494 8.99982 17.0216 9 17.197V18H10ZM16 12C16.2652 12 16.5196 11.8946 16.7071 11.7071C16.8946 11.5196 17 11.2652 17 11C17 10.7348 16.8946 10.4804 16.7071 10.2929C16.5196 10.1054 16.2652 10 16 10C15.7348 10 15.4804 10.1054 15.2929 10.2929C15.1054 10.4804 15 10.7348 15 11C15 11.2652 15.1054 11.5196 15.2929 11.7071C15.4804 11.8946 15.7348 12 16 12Z" fill="currentColor"/>
</svg>
