<svg width="24" height="24" viewBox="0 0 24 24" fill="none" xmlns="http://www.w3.org/2000/svg">
<path fill-rule="evenodd" clip-rule="evenodd" d="M16.7355 2.83503C16.395 2.49437 15.9431 2.28799 15.4627 2.25382C14.9823 2.21965 14.5057 2.35998 14.1205 2.64903L11.2075 4.83403C9.99738 5.74181 8.57799 6.32992 7.08048 6.54403L4.90348 6.85403C4.17348 6.95903 3.63848 7.74503 3.99048 8.51603C4.32148 9.23903 5.37548 11.145 8.35048 14.236L4.17248 18.414C4.07697 18.5063 4.00078 18.6166 3.94837 18.7386C3.89597 18.8606 3.86838 18.9918 3.86723 19.1246C3.86607 19.2574 3.89137 19.3891 3.94165 19.512C3.99193 19.6349 4.06619 19.7465 4.16008 19.8404C4.25397 19.9343 4.36563 20.0086 4.48852 20.0588C4.61142 20.1091 4.7431 20.1344 4.87588 20.1333C5.00866 20.1321 5.13988 20.1045 5.26188 20.0521C5.38388 19.9997 5.49423 19.9235 5.58648 19.828L9.76448 15.65C12.8555 18.625 14.7615 19.679 15.4845 20.01C16.2545 20.362 17.0415 19.827 17.1455 19.097L17.4565 16.92C17.6706 15.4225 18.2587 14.0031 19.1665 12.793L21.3505 9.88003C21.6395 9.4948 21.7799 9.0182 21.7457 8.5378C21.7115 8.0574 21.5051 7.60547 21.1645 7.26503L16.7355 2.83503ZM15.3205 4.25003L19.7505 8.68003L17.5665 11.594C16.457 13.073 15.7382 14.8078 15.4765 16.638L15.3335 17.639C14.3535 17.015 12.7305 15.802 10.4645 13.536C8.20048 11.27 6.98648 9.64803 6.36248 8.66803L7.36248 8.52503C9.19308 8.26349 10.9282 7.54467 12.4075 6.43503L15.3205 4.25003Z" fill="currentColor"/>
</svg>
