<svg width="24" height="24" viewBox="0 0 24 24" fill="none" xmlns="http://www.w3.org/2000/svg">
<path fill-rule="evenodd" clip-rule="evenodd" d="M8.86673 2C8.38531 1.99997 7.92003 2.1736 7.55631 2.489C7.1926 2.8044 6.95486 3.24042 6.88673 3.717L6.37173 7.322C6.15779 8.81987 5.56967 10.2396 4.66173 11.45L3.34373 13.208C2.90073 13.798 3.07873 14.733 3.87173 15.028C4.61773 15.306 6.71073 15.908 10.9997 15.991V22C10.9997 22.2652 11.1051 22.5196 11.2926 22.7071C11.4802 22.8946 11.7345 23 11.9997 23C12.265 23 12.5193 22.8946 12.7068 22.7071C12.8944 22.5196 12.9997 22.2652 12.9997 22V15.99C17.2897 15.908 19.3817 15.306 20.1277 15.028C20.9207 14.733 21.0977 13.798 20.6557 13.208L19.3367 11.45C18.4288 10.2396 17.8407 8.81987 17.6267 7.322L17.1127 3.717C17.0446 3.24042 16.8069 2.8044 16.4432 2.489C16.0794 2.1736 15.6142 1.99997 15.1327 2H8.86673ZM8.86673 4H15.1327L15.6477 7.605C15.9087 9.435 16.6277 11.17 17.7377 12.65L18.3437 13.458C17.2087 13.71 15.2037 14 11.9997 14C8.79573 14 6.78973 13.71 5.65573 13.458L6.26273 12.65C7.37238 11.1707 8.0912 9.43561 8.35273 7.605L8.86673 4Z" fill="currentColor"/>
</svg>
