<svg width="24" height="24" viewBox="0 0 24 24" fill="none" xmlns="http://www.w3.org/2000/svg">
<path fill-rule="evenodd" clip-rule="evenodd" d="M16.0005 3.34C16.984 3.90776 17.8354 4.67842 18.4981 5.60074C19.1607 6.52306 19.6194 7.57589 19.8436 8.68922C20.0678 9.80254 20.0524 10.9508 19.7984 12.0577C19.5444 13.1647 19.0576 14.2048 18.3705 15.109C19.1943 15.3225 19.9122 15.8289 20.3898 16.5334C20.8675 17.2379 21.0721 18.0922 20.9655 18.9366C20.8588 19.781 20.4483 20.5577 19.8105 21.1213C19.1728 21.6849 18.3516 21.997 17.5005 21.999C16.9991 21.999 16.5036 21.8913 16.0474 21.6832C15.5913 21.475 15.1852 21.1713 14.8567 20.7926C14.5281 20.4139 14.2848 19.969 14.1431 19.4881C14.0014 19.0071 13.9647 18.5014 14.0355 18.005C12.6654 18.3665 11.2238 18.3572 9.85845 17.978L8.23246 20.794C8.09984 21.0237 7.88143 21.1913 7.62525 21.2599C7.36908 21.3285 7.09613 21.2926 6.86646 21.16L5.13445 20.16C4.90478 20.0274 4.73719 19.809 4.66856 19.5528C4.59992 19.2966 4.63585 19.0237 4.76846 18.794L6.39445 15.978C5.00293 14.6142 4.15697 12.7894 4.01532 10.8461C3.87367 8.90288 4.44608 6.97473 5.62513 5.42354C6.80417 3.87235 8.50879 2.80476 10.4191 2.42115C12.3293 2.03753 14.314 2.36426 16.0005 3.34ZM17.5005 17C17.1026 17 16.7211 17.158 16.4398 17.4393C16.1585 17.7206 16.0005 18.1022 16.0005 18.5C16.0005 18.8978 16.1585 19.2794 16.4398 19.5607C16.7211 19.842 17.1026 20 17.5005 20C17.8983 20 18.2798 19.842 18.5611 19.5607C18.8424 19.2794 19.0005 18.8978 19.0005 18.5C19.0005 18.1022 18.8424 17.7206 18.5611 17.4393C18.2798 17.158 17.8983 17 17.5005 17ZM8.67045 15.273L8.66045 15.419C8.63267 15.8838 8.4971 16.3357 8.26445 16.739C8.45807 16.4036 8.71479 16.1088 9.02046 15.871L9.20945 15.735L9.33146 15.655L8.66945 15.273H8.67045ZM15.0005 5.072C13.8545 4.40966 12.5218 4.1448 11.2097 4.31868C9.89759 4.49256 8.67981 5.09541 7.74597 6.03336C6.81212 6.97131 6.21462 8.19172 6.0465 9.50457C5.87839 10.8174 6.14909 12.149 6.81645 13.292C6.85882 13.1603 6.92803 13.0389 7.01971 12.9354C7.11139 12.8318 7.22356 12.7484 7.34911 12.6904C7.47467 12.6325 7.61089 12.6011 7.74917 12.5985C7.88744 12.5958 8.02476 12.6219 8.15246 12.675L8.26845 12.732L11.7325 14.732C11.8616 14.8066 11.9724 14.9092 12.0568 15.0322C12.1412 15.1552 12.197 15.2956 12.2201 15.4429C12.2432 15.5903 12.233 15.741 12.1903 15.8839C12.1477 16.0268 12.0736 16.1584 11.9735 16.269C13.2968 16.2753 14.5852 15.8439 15.6379 15.0419C16.6907 14.24 17.4487 13.1124 17.7941 11.8349C18.1395 10.5574 18.0528 9.20146 17.5475 7.9783C17.0423 6.75514 16.1468 5.73335 15.0005 5.072Z" fill="currentColor"/>
</svg>
