<svg width="24" height="24" viewBox="0 0 24 24" fill="none" xmlns="http://www.w3.org/2000/svg">
<path fill-rule="evenodd" clip-rule="evenodd" d="M12.5551 2.16801C12.692 2.25936 12.8042 2.38309 12.8819 2.52822C12.9595 2.67336 13.0001 2.83541 13.0001 3.00001V5.80701C13.2441 5.77501 13.4881 5.74801 13.7321 5.72701C14.7771 5.63201 16.2371 5.60701 17.3791 6.07401C18.8521 6.67801 19.9941 8.17701 20.7141 9.32401C21.1741 10.054 21.5901 10.817 21.9231 11.614C21.9862 11.7661 22.0108 11.9313 21.9948 12.0952C21.9789 12.259 21.9228 12.4164 21.8316 12.5534C21.7403 12.6904 21.6167 12.8028 21.4717 12.8807C21.3267 12.9586 21.1647 12.9996 21.0001 13H18.1931C18.2251 13.243 18.2521 13.488 18.2731 13.732C18.3681 14.777 18.3931 16.237 17.9251 17.379C17.3221 18.852 15.8231 19.994 14.6761 20.714C13.9451 21.174 13.1831 21.59 12.3861 21.923C12.234 21.9864 12.0687 22.0112 11.9048 21.9954C11.7408 21.9795 11.5833 21.9235 11.4462 21.8322C11.3091 21.7409 11.1967 21.6172 11.1189 21.472C11.041 21.3268 11.0002 21.1647 11.0001 21V18.193C10.7566 18.2247 10.5126 18.2514 10.2681 18.273C9.22307 18.368 7.76307 18.393 6.62107 17.925C5.14807 17.322 4.00607 15.822 3.28607 14.676C2.82064 13.947 2.41626 13.1807 2.07707 12.385C2.01419 12.233 1.9897 12.0679 2.00577 11.9042C2.02183 11.7404 2.07795 11.5832 2.16917 11.4463C2.26039 11.3095 2.38391 11.1971 2.52882 11.1193C2.67373 11.0415 2.83557 11.0005 3.00007 11H5.80707C5.77536 10.7563 5.74869 10.5119 5.72707 10.267C5.63207 9.22301 5.60707 7.76301 6.07507 6.62101C6.67807 5.14801 8.17707 4.00501 9.32407 3.28501C10.0551 2.82501 10.8171 2.41001 11.6141 2.07701C11.766 2.01342 11.9314 1.98836 12.0954 2.00406C12.2593 2.01977 12.4169 2.07574 12.5541 2.16701L12.5551 2.16801ZM16.1691 13H13.0001V19.385C13.1961 19.275 13.4021 19.153 13.6131 19.021C14.7291 18.319 15.7301 17.461 16.0751 16.621C16.3471 15.956 16.3721 14.916 16.2821 13.912C16.2672 13.7504 16.2496 13.589 16.2291 13.428L16.1691 13ZM11.0001 13H4.61507C4.72507 13.196 4.84707 13.402 4.97907 13.612C5.68107 14.729 6.53907 15.73 7.37907 16.075C8.04407 16.347 9.08407 16.372 10.0881 16.282C10.4251 16.251 10.7381 16.21 11.0001 16.169V13ZM11.0001 4.61501L10.8001 4.72901L10.3871 4.97901C9.27107 5.68001 8.27007 6.53801 7.92507 7.37901C7.65307 8.04301 7.62807 9.08301 7.71807 10.087C7.74807 10.425 7.79007 10.737 7.83107 11H11.0001V4.61501ZM13.9121 7.71801C13.7504 7.73251 13.5891 7.74985 13.4281 7.77001L13.0001 7.83001V11H19.3851C19.2751 10.804 19.1531 10.598 19.0211 10.387C18.3201 9.27101 17.4611 8.27001 16.6211 7.92501C15.9561 7.65301 14.9161 7.62701 13.9131 7.71801H13.9121Z" fill="currentColor"/>
</svg>
