<svg width="24" height="24" viewBox="0 0 24 24" fill="none" xmlns="http://www.w3.org/2000/svg">
<path fill-rule="evenodd" clip-rule="evenodd" d="M12 2C12.2449 2.00003 12.4813 2.08996 12.6644 2.25272C12.8474 2.41547 12.9643 2.63975 12.993 2.883L13 3V7.257C13.7901 6.60506 14.7466 6.18672 15.7617 6.04914C16.7768 5.91155 17.8101 6.06018 18.7453 6.47827C19.6804 6.89637 20.4802 7.56732 21.0546 8.41552C21.6289 9.26372 21.955 10.2555 21.996 11.279L22 11.5V12C22 12.2449 21.91 12.4813 21.7473 12.6644C21.5845 12.8474 21.3603 12.9643 21.117 12.993L21 13H16.743C17.3949 13.7901 17.8133 14.7466 17.9509 15.7617C18.0885 16.7768 17.9398 17.8101 17.5217 18.7453C17.1036 19.6804 16.4327 20.4802 15.5845 21.0546C14.7363 21.6289 13.7445 21.955 12.721 21.996L12.5 22H12C11.7551 22 11.5187 21.91 11.3356 21.7473C11.1526 21.5845 11.0357 21.3603 11.007 21.117L11 21V16.743C10.2099 17.3949 9.2534 17.8133 8.23832 17.9509C7.22324 18.0885 6.1899 17.9398 5.25475 17.5217C4.31959 17.1036 3.51978 16.4327 2.94544 15.5845C2.37109 14.7363 2.04503 13.7445 2.004 12.721L2 12.5V12C2.00003 11.7551 2.08996 11.5187 2.25272 11.3356C2.41547 11.1526 2.63975 11.0357 2.883 11.007L3 11H7.257C6.60506 10.2099 6.18672 9.2534 6.04914 8.23832C5.91155 7.22324 6.06018 6.1899 6.47827 5.25475C6.89637 4.31959 7.56732 3.51978 8.41552 2.94544C9.26372 2.37109 10.2555 2.04503 11.279 2.004L11.5 2H12ZM13 13.035V19.965C13.8331 19.8446 14.5949 19.4281 15.1459 18.7917C15.6969 18.1553 16.0002 17.3418 16.0002 16.5C16.0002 15.6582 15.6969 14.8447 15.1459 14.2083C14.5949 13.5719 13.8331 13.1554 13 13.035ZM10.965 13H4.035C4.15388 13.8343 4.56979 14.5977 5.20632 15.1499C5.84286 15.7022 6.65728 16.0063 7.5 16.0063C8.34272 16.0063 9.15714 15.7022 9.79368 15.1499C10.4302 14.5977 10.8461 13.8343 10.965 13ZM16.5 8C15.6582 7.99978 14.8446 8.30296 14.2082 8.85395C13.5718 9.40495 13.1553 10.1669 13.035 11H19.965C19.8447 10.1669 19.4282 9.40495 18.7918 8.85395C18.1554 8.30296 17.3418 7.99978 16.5 8ZM11 4.035C10.1816 4.152 9.43101 4.55494 8.88126 5.17241C8.33151 5.78989 8.01809 6.58203 7.99653 7.40849C7.97496 8.23494 8.24665 9.04235 8.76345 9.68765C9.28025 10.333 10.0088 10.7745 10.82 10.934L11 10.964V4.035Z" fill="currentColor"/>
</svg>
