<svg width="24" height="24" viewBox="0 0 24 24" fill="none" xmlns="http://www.w3.org/2000/svg">
<path fill-rule="evenodd" clip-rule="evenodd" d="M11.5001 3.00001C11.745 3.00005 11.9814 3.08997 12.1645 3.25273C12.3475 3.41549 12.4644 3.63976 12.4931 3.88301L12.5001 4.00001V11.19L19.4401 9.29801C19.6959 9.22851 19.9688 9.26341 20.1989 9.39504C20.429 9.52668 20.5974 9.74427 20.6671 10C21.1899 11.9167 21.0987 13.9491 20.4062 15.8112C19.7138 17.6733 18.455 19.2715 16.8069 20.3809C15.1587 21.4903 13.2043 22.0551 11.2185 21.9958C9.23267 21.9365 7.3154 21.2561 5.73641 20.0504C4.15741 18.8447 2.99616 17.1743 2.41602 15.2741C1.83587 13.374 1.86603 11.3398 2.50225 9.45776C3.13846 7.57568 4.34872 5.94042 5.96276 4.78202C7.5768 3.62363 9.5134 3.0004 11.5001 3.00001ZM10.5001 5.06601C8.61603 5.32144 6.89926 6.2828 5.69695 7.7557C4.49465 9.2286 3.89653 11.1031 4.02356 13.0002C4.15059 14.8972 4.99329 16.6753 6.38123 17.9747C7.76918 19.2742 9.5988 19.9981 11.5001 20C12.5411 20.0001 13.5708 19.7834 14.5235 19.3639C15.4762 18.9443 16.3311 18.331 17.0339 17.5629C17.7366 16.7949 18.2718 15.889 18.6053 14.9029C18.9388 13.9167 19.0634 12.8719 18.9711 11.835L18.9351 11.509L11.7631 13.465C11.6242 13.5028 11.4787 13.5102 11.3366 13.4866C11.1946 13.463 11.0593 13.409 10.94 13.3283C10.8208 13.2476 10.7203 13.1421 10.6456 13.019C10.5709 12.8959 10.5237 12.7581 10.5071 12.615L10.5001 12.5V5.06601ZM12.5001 14C13.1631 14 13.799 14.2634 14.2679 14.7322C14.7367 15.2011 15.0001 15.837 15.0001 16.5C15.0001 17.1631 14.7367 17.7989 14.2679 18.2678C13.799 18.7366 13.1631 19 12.5001 19C11.8371 19 11.2012 18.7366 10.7323 18.2678C10.2635 17.7989 10.0001 17.1631 10.0001 16.5C10.0001 15.837 10.2635 15.2011 10.7323 14.7322C11.2012 14.2634 11.8371 14 12.5001 14ZM12.5001 16C12.3675 16 12.2403 16.0527 12.1466 16.1465C12.0528 16.2402 12.0001 16.3674 12.0001 16.5C12.0001 16.6326 12.0528 16.7598 12.1466 16.8536C12.2403 16.9473 12.3675 17 12.5001 17C12.6327 17 12.7599 16.9473 12.8537 16.8536C12.9474 16.7598 13.0001 16.6326 13.0001 16.5C13.0001 16.3674 12.9474 16.2402 12.8537 16.1465C12.7599 16.0527 12.6327 16 12.5001 16ZM17.0001 13C17.245 13 17.4814 13.09 17.6645 13.2527C17.8475 13.4155 17.9644 13.6398 17.9931 13.883L18.0001 14.01C17.9998 14.2649 17.9022 14.51 17.7273 14.6954C17.5523 14.8807 17.3132 14.9922 17.0587 15.0072C16.8043 15.0221 16.5537 14.9393 16.3583 14.7757C16.1628 14.6122 16.0372 14.3801 16.0071 14.127L16.0001 14C16.0001 13.7348 16.1055 13.4804 16.293 13.2929C16.4805 13.1054 16.7349 13 17.0001 13ZM7.5001 12C7.89793 12 8.27946 12.158 8.56077 12.4394C8.84207 12.7207 9.0001 13.1022 9.0001 13.5C9.0001 13.8978 8.84207 14.2794 8.56077 14.5607C8.27946 14.842 7.89793 15 7.5001 15C7.10228 15 6.72075 14.842 6.43944 14.5607C6.15814 14.2794 6.0001 13.8978 6.0001 13.5C6.0001 13.1022 6.15814 12.7207 6.43944 12.4394C6.72075 12.158 7.10228 12 7.5001 12ZM15.2941 2.04401C17.4079 2.69623 19.2285 4.06424 20.4431 5.91301C20.5853 6.12963 20.6379 6.393 20.5898 6.64762C20.5417 6.90225 20.3966 7.12826 20.1851 7.27801L20.0841 7.34101L14.4761 10.379C14.3218 10.4626 14.1482 10.5041 13.9727 10.4994C13.7973 10.4947 13.6262 10.4438 13.4766 10.352C13.327 10.2602 13.2043 10.1306 13.1206 9.97634C13.037 9.82205 12.9954 9.64846 13.0001 9.47301L13.0121 9.34801L14.0121 2.84801C14.0339 2.70611 14.086 2.57056 14.1649 2.45059C14.2438 2.33062 14.3476 2.22904 14.4692 2.15276C14.5908 2.07648 14.7275 2.02728 14.8698 2.00852C15.0121 1.98975 15.1569 2.00186 15.2941 2.04401ZM8.0001 8.00001C8.24504 8.00005 8.48144 8.08997 8.66448 8.25273C8.84751 8.41549 8.96445 8.63976 8.9931 8.88301L9.0001 9.01001C8.99982 9.26489 8.90223 9.51005 8.72726 9.69538C8.55229 9.88072 8.31315 9.99225 8.05871 10.0072C7.80427 10.0221 7.55373 9.93934 7.35827 9.77575C7.16282 9.61216 7.03721 9.38011 7.0071 9.12701L7.0001 9.00001C7.0001 8.7348 7.10546 8.48044 7.293 8.29291C7.48053 8.10537 7.73489 8.00001 8.0001 8.00001ZM15.7981 4.38801L15.2951 7.66101L18.1021 6.14001C17.4546 5.41251 16.6722 4.81752 15.7981 4.38801Z" fill="currentColor"/>
</svg>
