<svg width="24" height="24" viewBox="0 0 24 24" fill="none" xmlns="http://www.w3.org/2000/svg">
<path fill-rule="evenodd" clip-rule="evenodd" d="M12.0002 3C14.2252 3 16.2632 3.808 17.8332 5.146C18.7642 4.926 19.6182 4.824 20.3402 4.886C21.1002 4.95 21.9432 5.223 22.3922 6C22.7992 6.704 22.7442 7.49 22.4682 8.204C22.1962 8.906 21.6812 9.631 20.9872 10.367L20.8732 10.487C21.1827 12.2995 20.9296 14.1634 20.148 15.8277C19.3664 17.4921 18.0937 18.8771 16.5013 19.7964C14.9088 20.7157 13.073 21.1252 11.2408 20.9698C9.4086 20.8144 7.66799 20.1014 6.25317 18.927L6.09317 18.967C5.10817 19.2 4.22317 19.284 3.47817 19.167C2.72117 19.049 2.01317 18.702 1.60817 18C1.15817 17.223 1.34417 16.356 1.66817 15.666C1.97617 15.011 2.49117 14.322 3.14717 13.626C2.90874 12.328 2.95869 10.9934 3.29347 9.71689C3.62826 8.44034 4.23968 7.25304 5.08444 6.23911C5.92919 5.22518 6.98659 4.40943 8.18171 3.84967C9.37684 3.28991 10.6804 2.99984 12.0002 3ZM3.34517 17.009C3.20217 16.3 4.34517 15.259 4.75117 14.842C4.92667 14.6617 5.055 14.4409 5.12477 14.1991C5.19454 13.9573 5.20361 13.7021 5.15117 13.456C4.84305 12.0098 5.00079 10.5032 5.60176 9.15225C6.20274 7.80126 7.21608 6.67527 8.49649 5.93575C9.77689 5.19622 11.2586 4.88113 12.7291 5.03568C14.1997 5.19022 15.5835 5.80645 16.6822 6.796C16.8691 6.96498 17.0949 7.08517 17.3395 7.14588C17.5841 7.20659 17.8399 7.20594 18.0842 7.144C18.6472 7 20.1232 6.531 20.6652 7.009C21.0012 7.713 19.6942 8.841 19.2852 9.248C19.2818 9.25133 19.2785 9.25466 19.2752 9.258C18.0392 10.488 15.9942 12.004 13.0002 13.732C10.0082 15.46 7.67417 16.472 5.99017 16.929L5.97517 16.933C5.44817 17.076 3.76617 17.622 3.34517 17.009ZM8.63317 18.139C10.1712 17.525 11.9632 16.64 14.0002 15.464C16.0362 14.289 17.6982 13.18 18.9982 12.154C18.9722 13.3567 18.6367 14.5324 18.024 15.5677C17.4114 16.6029 16.5423 17.4629 15.5006 18.0645C14.4589 18.6661 13.2797 18.9891 12.0768 19.0023C10.8739 19.0156 9.68787 18.7176 8.63317 18.139Z" fill="currentColor"/>
</svg>
