<svg width="24" height="24" viewBox="0 0 24 24" fill="none" xmlns="http://www.w3.org/2000/svg">
<path fill-rule="evenodd" clip-rule="evenodd" d="M17.33 4.05599L20.316 5.05099C20.4406 5.09249 20.5559 5.15813 20.6551 5.24416C20.7544 5.33019 20.8357 5.43493 20.8945 5.55239C20.9533 5.66986 20.9883 5.79775 20.9977 5.92877C21.007 6.05979 20.9905 6.19137 20.949 6.31599C20.9075 6.44062 20.8419 6.55585 20.7558 6.65511C20.6698 6.75436 20.5651 6.8357 20.4476 6.89448C20.3301 6.95326 20.2022 6.98833 20.0712 6.99768C19.9402 7.00704 19.8086 6.99049 19.684 6.94899L18 6.38699V17.5C17.9998 18.2583 17.7534 18.9961 17.2977 19.6023C16.842 20.2085 16.2018 20.6503 15.4734 20.8612C14.7449 21.0721 13.9677 21.0407 13.2586 20.7717C12.5496 20.5028 11.9471 20.0108 11.5418 19.3698C11.1365 18.7288 10.9503 17.9736 11.0113 17.2177C11.0724 16.4618 11.3772 15.7461 11.8801 15.1785C12.383 14.6108 13.0566 14.2218 13.7996 14.0701C14.5426 13.9183 15.3148 14.012 16 14.337V5.01399C16 4.32399 16.675 3.83699 17.33 4.05599ZM14.5 16C14.1022 16 13.7206 16.158 13.4393 16.4393C13.158 16.7206 13 17.1022 13 17.5C13 17.8978 13.158 18.2793 13.4393 18.5607C13.7206 18.842 14.1022 19 14.5 19C14.8978 19 15.2794 18.842 15.5607 18.5607C15.842 18.2793 16 17.8978 16 17.5C16 17.1022 15.842 16.7206 15.5607 16.4393C15.2794 16.158 14.8978 16 14.5 16ZM8 17C8.26522 17 8.51957 17.1053 8.70711 17.2929C8.89464 17.4804 9 17.7348 9 18C9 18.2652 8.89464 18.5196 8.70711 18.7071C8.51957 18.8946 8.26522 19 8 19H4C3.73478 19 3.48043 18.8946 3.29289 18.7071C3.10536 18.5196 3 18.2652 3 18C3 17.7348 3.10536 17.4804 3.29289 17.2929C3.48043 17.1053 3.73478 17 4 17H8ZM10 11C10.2652 11 10.5196 11.1053 10.7071 11.2929C10.8946 11.4804 11 11.7348 11 12C11 12.2652 10.8946 12.5196 10.7071 12.7071C10.5196 12.8946 10.2652 13 10 13H4C3.73478 13 3.48043 12.8946 3.29289 12.7071C3.10536 12.5196 3 12.2652 3 12C3 11.7348 3.10536 11.4804 3.29289 11.2929C3.48043 11.1053 3.73478 11 4 11H10ZM13 4.99999C13.2549 5.00028 13.5 5.09787 13.6854 5.27284C13.8707 5.44781 13.9822 5.68695 13.9972 5.94139C14.0121 6.19583 13.9293 6.44637 13.7657 6.64182C13.6021 6.83728 13.3701 6.96289 13.117 6.99299L13 6.99999H4C3.74512 6.99971 3.49997 6.90211 3.31463 6.72714C3.1293 6.55218 3.01777 6.31304 3.00283 6.0586C2.98789 5.80416 3.07067 5.55361 3.23426 5.35816C3.39786 5.16271 3.6299 5.0371 3.883 5.00699L4 4.99999H13Z" fill="currentColor"/>
</svg>
