<svg width="24" height="24" viewBox="0 0 24 24" fill="none" xmlns="http://www.w3.org/2000/svg">
<path fill-rule="evenodd" clip-rule="evenodd" d="M12 2C17.523 2 22 6.477 22 12C22 17.523 17.523 22 12 22C6.477 22 2 17.523 2 12C2 6.477 6.477 2 12 2ZM12 4C9.87827 4 7.84344 4.84285 6.34315 6.34315C4.84285 7.84344 4 9.87827 4 12C4 14.1217 4.84285 16.1566 6.34315 17.6569C7.84344 19.1571 9.87827 20 12 20C14.1217 20 16.1566 19.1571 17.6569 17.6569C19.1571 16.1566 20 14.1217 20 12C20 9.87827 19.1571 7.84344 17.6569 6.34315C16.1566 4.84285 14.1217 4 12 4ZM8.964 8.65C8.98611 8.46603 9.0508 8.28975 9.15293 8.13515C9.25507 7.98055 9.39184 7.85189 9.55239 7.75938C9.71294 7.66688 9.89285 7.61307 10.0778 7.60225C10.2628 7.59142 10.4478 7.62386 10.618 7.697L10.943 7.84L11.383 8.042L11.732 8.211L12.122 8.407L12.552 8.63L13.014 8.881L13.508 9.161L13.757 9.306L14.226 9.588L14.654 9.856L15.218 10.224L15.682 10.542L16.137 10.87L16.22 10.931C16.855 11.408 16.86 12.36 16.221 12.84L15.938 13.049L15.545 13.325L15.049 13.66L14.662 13.91L14.232 14.18L13.759 14.463C13.677 14.512 13.593 14.561 13.507 14.61L13.009 14.892L12.543 15.145L12.113 15.369L11.723 15.565L11.218 15.807L10.818 15.988L10.616 16.076C10.4458 16.1486 10.2611 16.1805 10.0764 16.1693C9.89178 16.1582 9.71226 16.1042 9.55208 16.0116C9.3919 15.9191 9.25547 15.7905 9.15357 15.6361C9.05167 15.4817 8.98711 15.3057 8.965 15.122L8.911 14.623L8.881 14.289L8.839 13.69L8.815 13.23L8.797 12.724L8.787 12.175V11.596L8.797 11.048L8.815 10.542L8.839 10.082L8.881 9.483L8.952 8.753L8.964 8.65ZM10.848 10.005L10.821 10.472L10.8 10.997L10.788 11.577V12.195L10.8 12.775L10.82 13.3L10.848 13.767L11.264 13.557L11.49 13.439L11.978 13.177L12.508 12.878L13.03 12.569L13.272 12.421L13.716 12.141L14.106 11.886L13.714 11.629L13.27 11.348L12.774 11.048C12.512 10.8929 12.2477 10.7419 11.981 10.595L11.493 10.333L11.051 10.106L10.848 10.005Z" fill="currentColor"/>
</svg>
