<svg width="24" height="24" viewBox="0 0 24 24" fill="none" xmlns="http://www.w3.org/2000/svg">
<path fill-rule="evenodd" clip-rule="evenodd" d="M20 5C20.5304 5 21.0391 5.21071 21.4142 5.58579C21.7893 5.96086 22 6.46957 22 7V17C22 17.5304 21.7893 18.0391 21.4142 18.4142C21.0391 18.7893 20.5304 19 20 19H4C3.46957 19 2.96086 18.7893 2.58579 18.4142C2.21071 18.0391 2 17.5304 2 17V7C2 6.46957 2.21071 5.96086 2.58579 5.58579C2.96086 5.21071 3.46957 5 4 5H20ZM20 7H13V9.17C13.5703 9.3716 14.0663 9.74083 14.4231 10.2293C14.7799 10.7177 14.9808 11.3026 14.9994 11.9071C15.018 12.5117 14.8534 13.1078 14.5273 13.6173C14.2012 14.1267 13.7288 14.5257 13.172 14.762L13 14.83V17H20V16H18C17.4954 16.0002 17.0094 15.8096 16.6395 15.4665C16.2695 15.1234 16.0428 14.6532 16.005 14.15L16 14V10C15.9998 9.49542 16.1904 9.00943 16.5335 8.63945C16.8766 8.26947 17.3468 8.04284 17.85 8.005L18 8H20V7ZM11 7H4V8H6C6.50458 7.99984 6.99057 8.19041 7.36055 8.5335C7.73053 8.87659 7.95716 9.34685 7.995 9.85L8 10V14C8.00016 14.5046 7.80959 14.9906 7.4665 15.3605C7.12341 15.7305 6.65316 15.9572 6.15 15.995L6 16H4V17H11V14.83C10.4297 14.6284 9.93366 14.2592 9.57688 13.7707C9.22009 13.2823 9.01923 12.6974 9.00064 12.0929C8.98204 11.4883 9.14658 10.8922 9.47267 10.3827C9.79876 9.87328 10.2712 9.47427 10.828 9.238L11 9.17V7ZM20 10H18V14H20V10ZM6 10H4V14H6V10ZM12 11C11.7348 11 11.4804 11.1054 11.2929 11.2929C11.1054 11.4804 11 11.7348 11 12C11 12.2652 11.1054 12.5196 11.2929 12.7071C11.4804 12.8946 11.7348 13 12 13C12.2652 13 12.5196 12.8946 12.7071 12.7071C12.8946 12.5196 13 12.2652 13 12C13 11.7348 12.8946 11.4804 12.7071 11.2929C12.5196 11.1054 12.2652 11 12 11Z" fill="currentColor"/>
</svg>
