<svg width="24" height="24" viewBox="0 0 24 24" fill="none" xmlns="http://www.w3.org/2000/svg">
<path fill-rule="evenodd" clip-rule="evenodd" d="M7.57541 5.70803C7.36906 7.79728 7.26827 9.89562 7.27341 11.995C7.27341 14.796 7.44341 16.992 7.57541 18.284C9.48757 17.416 11.3549 16.4524 13.1704 15.397C14.9916 14.3527 16.7591 13.2176 18.4664 11.996C16.7594 10.7733 14.9922 9.63692 13.1714 8.59103C11.3554 7.5372 9.48771 6.575 7.57541 5.70803ZM5.67041 4.76003C5.69722 4.53287 5.7767 4.31512 5.90253 4.1241C6.02835 3.93309 6.19704 3.7741 6.39516 3.65979C6.59328 3.54548 6.81536 3.47902 7.0437 3.46569C7.27204 3.45236 7.50034 3.49254 7.71041 3.58303C8.77241 4.03703 11.1524 5.11603 14.1724 6.85903C17.1934 8.60303 19.3184 10.126 20.2414 10.817C21.0294 11.408 21.0314 12.58 20.2424 13.173C19.3284 13.86 17.2294 15.363 14.1724 17.129C11.1124 18.895 8.76041 19.961 7.70841 20.409C6.80241 20.796 5.78841 20.209 5.67041 19.232C5.53241 18.09 5.27441 15.497 5.27441 11.995C5.27441 8.49503 5.53141 5.90303 5.67041 4.76003Z" fill="currentColor"/>
</svg>
