<svg width="24" height="24" viewBox="0 0 24 24" fill="none" xmlns="http://www.w3.org/2000/svg">
<path fill-rule="evenodd" clip-rule="evenodd" d="M15 20C15.2549 20.0003 15.5 20.0979 15.6854 20.2728C15.8707 20.4478 15.9822 20.687 15.9972 20.9414C16.0121 21.1958 15.9293 21.4464 15.7657 21.6418C15.6021 21.8373 15.3701 21.9629 15.117 21.993L15 22H9C8.74512 21.9997 8.49997 21.9021 8.31463 21.7272C8.1293 21.5522 8.01776 21.313 8.00283 21.0586C7.98789 20.8042 8.07067 20.5536 8.23426 20.3582C8.39785 20.1627 8.6299 20.0371 8.883 20.007L9 20H15ZM15 2C15.2449 2.00003 15.4813 2.08996 15.6644 2.25272C15.8474 2.41547 15.9643 2.63975 15.993 2.883L16 3V6H18C18.5046 5.99984 18.9906 6.19041 19.3605 6.5335C19.7305 6.87659 19.9572 7.34684 19.995 7.85L20 8V13C20.0001 14.5524 19.3984 16.0444 18.3215 17.1625C17.2446 18.2806 15.7763 18.9378 14.225 18.996L14 19H10C8.44762 19.0001 6.95564 18.3984 5.83753 17.3215C4.71942 16.2446 4.06221 14.7763 4.004 13.225L4 13V8C3.99984 7.49542 4.19041 7.00943 4.5335 6.63945C4.87659 6.26947 5.34684 6.04284 5.85 6.005L6 6H8V3C8.00028 2.74512 8.09788 2.49997 8.27285 2.31463C8.44782 2.1293 8.68695 2.01777 8.94139 2.00283C9.19584 1.98789 9.44638 2.07067 9.64183 2.23426C9.83729 2.39786 9.9629 2.6299 9.993 2.883L10 3V6H14V3C14 2.73478 14.1054 2.48043 14.2929 2.29289C14.4804 2.10536 14.7348 2 15 2ZM18 8H6V13C6 14.0262 6.39444 15.0132 7.10172 15.7568C7.80901 16.5004 8.77504 16.9437 9.8 16.995L10 17H14C15.0262 17 16.0132 16.6056 16.7568 15.8983C17.5004 15.191 17.9437 14.225 17.995 13.2L18 13V8Z" fill="currentColor"/>
</svg>
