<svg width="24" height="24" viewBox="0 0 24 24" fill="none" xmlns="http://www.w3.org/2000/svg">
<path fill-rule="evenodd" clip-rule="evenodd" d="M11.9999 2C11.1599 2 10.3499 2.202 9.71792 2.582C9.10492 2.949 8.49992 3.597 8.49992 4.5C8.49992 5.403 9.10492 6.05 9.71792 6.418C10.3499 6.798 11.1599 7 11.9999 7C12.8399 7 13.6499 6.798 14.2819 6.418C14.8949 6.051 15.4999 5.403 15.4999 4.5C15.4999 3.597 14.8949 2.95 14.2819 2.582C13.6499 2.202 12.8409 2 11.9999 2ZM10.7469 4.297C10.5899 4.391 10.5309 4.464 10.5089 4.5C10.5309 4.536 10.5899 4.61 10.7469 4.703C11.0189 4.867 11.4599 5 11.9999 5C12.5399 5 12.9809 4.867 13.2529 4.703C13.4099 4.609 13.4689 4.536 13.4909 4.5C13.4689 4.464 13.4099 4.39 13.2529 4.297C12.9809 4.133 12.5399 4 11.9999 4C11.4599 4 11.0189 4.133 10.7469 4.297ZM11.9999 17C11.1599 17 10.3499 17.202 9.71792 17.582C9.10492 17.949 8.49992 18.596 8.49992 19.5C8.49992 20.404 9.10492 21.05 9.71792 21.418C10.3499 21.798 11.1599 22 11.9999 22C12.8399 22 13.6499 21.798 14.2819 21.418C14.8949 21.051 15.4999 20.404 15.4999 19.5C15.4999 18.596 14.8949 17.95 14.2819 17.582C13.6499 17.202 12.8409 17 11.9999 17ZM10.7469 19.297C10.5899 19.391 10.5309 19.464 10.5089 19.5C10.5309 19.536 10.5899 19.61 10.7469 19.703C11.0189 19.866 11.4599 20 11.9999 20C12.5399 20 12.9809 19.866 13.2529 19.703C13.4099 19.609 13.4689 19.536 13.4909 19.5C13.4689 19.464 13.4099 19.39 13.2529 19.297C12.9809 19.134 12.5399 19 11.9999 19C11.4599 19 11.0189 19.134 10.7469 19.297ZM3.33992 7C2.91992 7.728 2.68992 8.53 2.70292 9.267C2.71492 9.982 2.97292 10.829 3.75492 11.281C4.53692 11.733 5.39992 11.532 6.02492 11.185C6.66992 10.828 7.24992 10.228 7.66992 9.5C8.08992 8.772 8.31992 7.97 8.30692 7.233C8.29492 6.518 8.03692 5.671 7.25492 5.219C6.47292 4.767 5.60992 4.968 4.98492 5.314C4.33992 5.672 3.75991 6.272 3.33992 7ZM4.70192 9.234C4.70492 9.416 4.73891 9.504 4.75891 9.541C4.80191 9.541 4.89492 9.525 5.05392 9.437C5.33191 9.283 5.66792 8.967 5.93792 8.5C6.20792 8.032 6.31292 7.584 6.30792 7.266C6.30392 7.084 6.27092 6.996 6.24992 6.959C6.20792 6.959 6.11491 6.974 5.95591 7.063C5.67792 7.217 5.34192 7.532 5.07192 8C4.80192 8.468 4.69692 8.916 4.70192 9.234ZM16.3299 14.5C15.9099 15.228 15.6799 16.03 15.6929 16.767C15.7049 17.482 15.9629 18.329 16.7449 18.781C17.5279 19.233 18.3909 19.032 19.0149 18.686C19.6599 18.328 20.2399 17.728 20.6599 17C21.0799 16.272 21.3099 15.47 21.2979 14.733C21.2859 14.018 21.0279 13.171 20.2449 12.719C19.4629 12.267 18.5999 12.468 17.9749 12.814C17.3299 13.172 16.7499 13.772 16.3299 14.5ZM17.6929 16.734C17.6959 16.916 17.7289 17.004 17.7499 17.041C17.7919 17.041 17.8849 17.026 18.0449 16.937C18.3219 16.783 18.6579 16.467 18.9279 16C19.1979 15.532 19.3029 15.084 19.2979 14.766C19.2949 14.584 19.2609 14.496 19.2409 14.459C19.1989 14.459 19.1059 14.474 18.9459 14.563C18.6679 14.717 18.3319 15.032 18.0619 15.5C17.7919 15.968 17.6869 16.416 17.6919 16.734H17.6929ZM4.98492 18.686C4.33992 18.328 3.75991 17.728 3.33992 17C2.91992 16.272 2.68992 15.47 2.70292 14.733C2.71492 14.018 2.97292 13.171 3.75492 12.719C4.53692 12.267 5.39992 12.468 6.02492 12.815C6.66992 13.173 7.24992 13.772 7.66992 14.5C8.08992 15.228 8.31992 16.03 8.30692 16.768C8.29492 17.482 8.03692 18.329 7.25492 18.781C6.47292 19.233 5.60992 19.033 4.98492 18.686ZM6.24992 17.04C6.20792 17.04 6.11491 17.025 5.95591 16.936C5.67792 16.782 5.34192 16.467 5.07192 15.999C4.80192 15.531 4.69692 15.083 4.70192 14.765C4.70492 14.583 4.73891 14.495 4.75891 14.458C4.80191 14.458 4.89492 14.474 5.05392 14.562C5.33191 14.716 5.66792 15.032 5.93792 15.499C6.20792 15.967 6.31292 16.415 6.30792 16.733C6.30392 16.915 6.27092 17.003 6.24992 17.04ZM17.9749 11.185C17.3299 10.827 16.7499 10.227 16.3299 9.499C15.9099 8.771 15.6799 7.969 15.6929 7.232C15.7049 6.517 15.9629 5.67 16.7449 5.218C17.5279 4.766 18.3909 4.967 19.0149 5.314C19.6599 5.672 20.2399 6.271 20.6599 6.999C21.0799 7.727 21.3099 8.529 21.2979 9.267C21.2859 9.981 21.0279 10.828 20.2449 11.28C19.4629 11.732 18.5999 11.532 17.9749 11.185ZM19.2409 9.54C19.1989 9.54 19.1059 9.525 18.9459 9.436C18.6679 9.282 18.3319 8.967 18.0619 8.499C17.7919 8.031 17.6869 7.583 17.6919 7.265C17.6959 7.083 17.7289 6.995 17.7499 6.958C17.7919 6.958 17.8849 6.974 18.0449 7.062C18.3219 7.216 18.6579 7.532 18.9279 7.999C19.1979 8.467 19.3029 8.915 19.2979 9.233C19.2949 9.415 19.2609 9.503 19.2409 9.54Z" fill="currentColor"/>
</svg>
