<svg width="24" height="24" viewBox="0 0 24 24" fill="none" xmlns="http://www.w3.org/2000/svg">
<path fill-rule="evenodd" clip-rule="evenodd" d="M6.90686 3.90801C7.00925 3.72305 7.15689 3.56707 7.33596 3.45469C7.51503 3.3423 7.71968 3.27716 7.93076 3.26537C8.14185 3.25358 8.35248 3.29553 8.54295 3.38728C8.73342 3.47903 8.8975 3.6176 9.01986 3.79001L9.09286 3.90701L10.9999 7.34001V6.00001C10.9997 5.49543 11.1903 5.00944 11.5334 4.63946C11.8764 4.26948 12.3467 4.04285 12.8499 4.00501L12.9999 4.00001H18.9999C19.5044 3.99985 19.9904 4.19042 20.3604 4.53351C20.7304 4.8766 20.957 5.34686 20.9949 5.85001L20.9999 6.00001V12C21 12.5046 20.8095 12.9906 20.4664 13.3606C20.1233 13.7305 19.653 13.9572 19.1499 13.995L18.9999 14H16.7929C17.0202 14.8057 17.0606 15.6526 16.911 16.4763C16.7615 17.3 16.4258 18.0786 15.9298 18.7529C15.4337 19.4273 14.7902 19.9794 14.0484 20.3674C13.3065 20.7553 12.4859 20.9688 11.6491 20.9916C10.8123 21.0143 9.9813 20.8458 9.21948 20.4987C8.45766 20.1517 7.78512 19.6353 7.25309 18.989C6.72107 18.3426 6.34361 17.5834 6.14948 16.7691C5.95534 15.9548 5.94966 15.1069 6.13286 14.29L6.20686 14H3.42486C3.21757 14 3.01354 13.9485 2.83113 13.85C2.64872 13.7516 2.49365 13.6093 2.37989 13.4361C2.26613 13.2628 2.19724 13.0639 2.17943 12.8574C2.16162 12.6509 2.19544 12.4432 2.27786 12.253L2.33186 12.143L6.90686 3.90801ZM11.4999 12C11.0402 12 10.5851 12.0905 10.1605 12.2664C9.73583 12.4423 9.34999 12.7001 9.02498 13.0251C8.69998 13.3501 8.44217 13.736 8.26628 14.1606C8.09039 14.5853 7.99986 15.0404 7.99986 15.5C7.99986 15.9596 8.09039 16.4148 8.26628 16.8394C8.44217 17.264 8.69998 17.6499 9.02498 17.9749C9.34999 18.2999 9.73583 18.5577 10.1605 18.7336C10.5851 18.9095 11.0402 19 11.4999 19C12.4281 19 13.3184 18.6313 13.9747 17.9749C14.6311 17.3185 14.9999 16.4283 14.9999 15.5C14.9999 14.5718 14.6311 13.6815 13.9747 13.0251C13.3184 12.3688 12.4281 12 11.4999 12ZM18.9999 6.00001H12.9999V10.207C14.075 10.5123 15.0318 11.1377 15.7429 12H18.9999V6.00001ZM7.99986 6.06001L4.69986 12H7.25686C7.96623 11.1402 8.91996 10.516 9.99186 10.21L10.2659 10.139L7.99986 6.06001Z" fill="currentColor"/>
</svg>
