<svg width="24" height="24" viewBox="0 0 24 24" fill="none" xmlns="http://www.w3.org/2000/svg">
<path fill-rule="evenodd" clip-rule="evenodd" d="M13.586 2C14.0556 2.00011 14.5101 2.16543 14.87 2.467L15 2.586L19.414 7C19.746 7.33202 19.9506 7.77028 19.992 8.238L20 8.414V20C20.0002 20.5046 19.8096 20.9906 19.4665 21.3605C19.1234 21.7305 18.6532 21.9572 18.15 21.995L18 22H6C5.49542 22.0002 5.00943 21.8096 4.63945 21.4665C4.26947 21.1234 4.04284 20.6532 4.005 20.15L4 20V4C3.99984 3.49542 4.19041 3.00943 4.5335 2.63945C4.87659 2.26947 5.34684 2.04284 5.85 2.005L6 2H13.586ZM12 4H6V20H18V10H13.5C13.1271 9.99998 12.7676 9.86108 12.4916 9.61038C12.2156 9.35968 12.0428 9.01516 12.007 8.644L12 8.5V4ZM12.5 11C13.163 11 13.7989 11.2634 14.2678 11.7322C14.7366 12.2011 15 12.837 15 13.5C15 14.163 14.7366 14.7989 14.2678 15.2678C13.7989 15.7366 13.163 16 12.5 16H11V17C11 17.2652 10.8946 17.5196 10.7071 17.7071C10.5196 17.8946 10.2652 18 10 18C9.73478 18 9.48043 17.8946 9.29289 17.7071C9.10536 17.5196 9 17.2652 9 17V12.1C9 11.8083 9.11589 11.5285 9.32218 11.3222C9.52847 11.1159 9.80826 11 10.1 11H12.5ZM12.5 13H11V14H12.5C12.6249 14.0002 12.7455 13.9537 12.8378 13.8695C12.9301 13.7853 12.9876 13.6696 12.9989 13.5452C13.0102 13.4207 12.9745 13.2966 12.8988 13.1972C12.8231 13.0977 12.7129 13.0303 12.59 13.008L12.5 13ZM14 4.414V8H17.586L14 4.414Z" fill="currentColor"/>
</svg>
