<svg width="24" height="24" viewBox="0 0 24 24" fill="none" xmlns="http://www.w3.org/2000/svg">
<path fill-rule="evenodd" clip-rule="evenodd" d="M13.0991 2.99998C13.556 2.99999 14.0004 3.14899 14.3649 3.42437C14.7294 3.69976 14.9942 4.08652 15.1191 4.52598L15.1571 4.68698L16.6081 11.942C16.6768 12.2859 16.8347 12.6058 17.0661 12.8694C17.2974 13.133 17.594 13.3312 17.9261 13.444L18.0841 13.49L19.7801 13.914C20.1306 14.0016 20.4377 14.2129 20.6449 14.5088C20.8522 14.8048 20.9456 15.1656 20.9081 15.525L20.8871 15.664L20.1931 19.133C20.1414 19.3913 20.0392 19.6369 19.8923 19.8557C19.7455 20.0744 19.5568 20.262 19.3373 20.4076C19.1177 20.5532 18.8715 20.654 18.6128 20.7042C18.3542 20.7543 18.0882 20.7529 17.8301 20.7L17.6841 20.664L14.6271 19.79C13.5775 19.4909 12.6547 18.8562 12.0001 17.983C11.3985 18.7856 10.5692 19.3885 9.62009 19.713L9.37409 19.79L6.31709 20.664C6.06371 20.7363 5.79853 20.7579 5.53678 20.7274C5.27504 20.6969 5.0219 20.615 4.79191 20.4864C4.56192 20.3578 4.35961 20.185 4.19661 19.978C4.03361 19.771 3.91313 19.5337 3.84209 19.28L3.80709 19.133L3.11309 15.663C3.04227 15.3087 3.10169 14.9408 3.28045 14.6268C3.45921 14.3128 3.74528 14.0739 4.08609 13.954L4.22009 13.914L5.91609 13.49C6.25627 13.4049 6.5681 13.2319 6.82032 12.9883C7.07254 12.7447 7.25627 12.439 7.35309 12.102L7.39209 11.942L8.84209 4.68698C8.90833 4.35516 9.05382 4.04426 9.26615 3.7808C9.47847 3.51733 9.75135 3.3091 10.0615 3.17385C10.3717 3.03861 10.71 2.98035 11.0475 3.00406C11.3851 3.02776 11.7119 3.13272 12.0001 3.30998C12.3201 3.11398 12.6961 2.99998 13.0991 2.99998ZM17.8061 15.482L17.1511 18.432L18.2321 18.741L18.8321 15.739L17.8061 15.482ZM6.19409 15.482L5.16809 15.739L5.76809 18.741L6.84909 18.431L6.19409 15.482ZM13.0991 4.99998C13.0729 5.00025 13.0479 5.01076 13.0294 5.02927C13.0109 5.04778 13.0004 5.07281 13.0001 5.09898V14.983C13 15.604 13.1926 16.2097 13.5514 16.7166C13.9101 17.2235 14.4174 17.6066 15.0031 17.813L15.2241 17.881L15.9581 14.58C15.2833 13.9985 14.8219 13.2084 14.6471 12.335L13.1971 5.07998C13.1925 5.0574 13.1802 5.0371 13.1623 5.02252C13.1445 5.00794 13.1221 4.99998 13.0991 4.99998ZM10.9011 4.99998C10.8782 5.00021 10.8561 5.00827 10.8384 5.02283C10.8208 5.03739 10.8087 5.05756 10.8041 5.07998L9.35309 12.335C9.17866 13.2083 8.71762 13.9984 8.04309 14.58L8.77609 17.881L8.82409 17.867C9.45087 17.6879 10.0023 17.3096 10.3949 16.7893C10.7875 16.2689 11 15.6348 11.0001 14.983V5.09898C10.9998 5.07264 10.9892 5.04746 10.9705 5.02892C10.9517 5.01038 10.9264 4.99998 10.9001 4.99998H10.9011Z" fill="currentColor"/>
</svg>
