<svg width="24" height="24" viewBox="0 0 24 24" fill="none" xmlns="http://www.w3.org/2000/svg">
<path fill-rule="evenodd" clip-rule="evenodd" d="M14.0004 2.00001C14.2657 1.99484 14.5221 2.09523 14.7133 2.27911C14.9045 2.46299 15.0148 2.71529 15.0199 2.98051C15.0251 3.24572 14.9247 3.50213 14.7408 3.69333C14.557 3.88452 14.3047 3.99484 14.0394 4.00001L13.9964 4.02501L13.9214 4.08401C13.7479 4.24618 13.5999 4.43362 13.4824 4.64001C13.3718 4.8254 13.2762 5.01936 13.1964 5.22001C13.5094 5.33701 13.8034 5.49801 14.0784 5.69301C14.2164 5.79101 14.3504 5.89701 14.4784 6.01301C15.4764 5.29001 16.6544 4.90301 17.8894 5.12201C19.5624 5.41601 20.7544 6.71201 21.4164 8.29201C22.0824 9.88201 22.2804 11.892 21.9164 13.955C21.5524 16.019 20.6794 17.839 19.5094 19.105C18.3474 20.363 16.7834 21.173 15.1114 20.878C14.6785 20.8015 14.2612 20.6538 13.8764 20.441C13.3167 20.8013 12.6661 20.9952 12.0004 21C11.3124 21 10.6804 20.79 10.1244 20.441C9.74444 20.651 9.33144 20.801 8.88944 20.878C7.21744 21.173 5.65345 20.363 4.49145 19.106C3.32145 17.839 2.44745 16.019 2.08445 13.956C1.72045 11.891 1.91845 9.88201 2.58445 8.29201C3.24645 6.71201 4.43845 5.41601 6.11144 5.12201C7.34645 4.90401 8.52444 5.29001 9.52144 6.01201C9.65144 5.89701 9.78444 5.79101 9.92144 5.69201C10.2904 5.43201 10.6934 5.23201 11.1274 5.11501C11.2644 4.59501 11.4984 4.06001 11.7674 3.61001C11.9936 3.22256 12.2783 2.87242 12.6114 2.57201C12.9394 2.28801 13.4144 2.00001 14.0004 2.00001ZM12.0004 7.00001C11.7154 7.00001 11.4014 7.09701 11.0784 7.32501C10.5544 7.69601 10.0284 8.39601 9.63144 9.40701C9.24044 10.407 9.00044 11.644 9.00044 13C9.00044 14.356 9.24044 15.594 9.63144 16.593C10.0284 17.603 10.5544 18.303 11.0784 18.675C11.4004 18.904 11.7114 19 12.0004 19C12.2894 19 12.6004 18.904 12.9224 18.675C13.4464 18.304 13.9724 17.604 14.3694 16.593C14.7614 15.593 15.0004 14.356 15.0004 13C15.0004 11.644 14.7604 10.406 14.3694 9.40701C13.9724 8.39701 13.4464 7.69601 12.9224 7.32501C12.6004 7.09601 12.2854 7.00001 12.0004 7.00001ZM6.45845 7.09101C5.68344 7.22801 4.93144 7.86601 4.42944 9.06401C3.93244 10.252 3.74644 11.864 4.05344 13.608C4.36144 15.351 5.08744 16.803 5.96044 17.748C6.78745 18.644 7.65145 19 8.39545 18.928L8.58544 18.901C8.25684 18.4063 7.98322 17.8771 7.76944 17.323C7.27844 16.07 7.00044 14.582 7.00044 13C7.00044 11.418 7.27844 9.93001 7.77044 8.67701C7.91642 8.30176 8.08851 7.9372 8.28544 7.58601C7.64544 7.14101 7.01545 6.99301 6.45845 7.09101ZM15.7144 7.58601C15.9094 7.92901 16.0814 8.29601 16.2314 8.67601C16.7224 9.93001 17.0004 11.419 17.0004 13C17.0004 14.582 16.7224 16.07 16.2304 17.323C16.0166 17.8771 15.743 18.4062 15.4144 18.901L15.4584 18.909C16.2334 19.046 17.1584 18.703 18.0404 17.749C18.9134 16.803 19.6404 15.351 19.9474 13.608C20.2544 11.864 20.0684 10.251 19.5714 9.06401C19.0684 7.86601 18.3174 7.22801 17.5414 7.09101C16.9854 6.99301 16.3544 7.14101 15.7144 7.58601Z" fill="currentColor"/>
</svg>
