<svg width="24" height="24" viewBox="0 0 24 24" fill="none" xmlns="http://www.w3.org/2000/svg">
<path d="M14 1.99995C14.2652 1.99477 14.5216 2.09517 14.7128 2.27905C14.904 2.46293 15.0143 2.71523 15.0195 2.98045C15.0246 3.24566 14.9242 3.50207 14.7404 3.69326C14.5565 3.88446 14.3042 3.99477 14.039 3.99995C13.876 4.07995 13.742 4.23895 13.632 4.40095L13.482 4.63995C13.3818 4.8077 13.2939 4.98249 13.219 5.16295C13.751 5.30695 14.252 5.54295 14.712 5.85095C15.657 5.23495 16.75 4.92095 17.889 5.12095C19.562 5.41595 20.754 6.71195 21.416 8.29095C22.082 9.88195 22.28 11.8909 21.916 13.9549C21.552 16.0189 20.679 17.8389 19.509 19.1049C18.347 20.3629 16.783 21.1729 15.111 20.8779C14.7412 20.8126 14.3827 20.6951 14.046 20.5289C13.408 20.8378 12.7087 20.9987 12 20.9999C11.274 20.9999 10.585 20.8299 9.95496 20.5299C9.61788 20.6958 9.25897 20.813 8.88896 20.8779C7.21696 21.1729 5.65296 20.3629 4.49096 19.1059C3.32096 17.8389 2.44696 16.0189 2.08396 13.9559C1.71996 11.8909 1.91796 9.88195 2.58396 8.29195C3.24596 6.71195 4.43796 5.41595 6.11096 5.12195C7.24996 4.92095 8.34296 5.23495 9.28796 5.85195C9.84562 5.47308 10.4743 5.21114 11.136 5.08195C11.274 4.57195 11.504 4.04995 11.768 3.61095C11.99 3.23895 12.272 2.86595 12.611 2.57195C12.939 2.28795 13.414 1.99995 14 1.99995ZM12 6.99995C11.292 6.99995 10.595 7.28695 9.96696 7.85195C9.78574 8.01544 9.55098 8.10701 9.30692 8.1094C9.06286 8.11179 8.82635 8.02485 8.64196 7.86495C7.87896 7.20295 7.11896 6.97495 6.45796 7.09095C5.68296 7.22795 4.93096 7.86595 4.42896 9.06395C3.93196 10.2519 3.74596 11.8639 4.05296 13.6079C4.36096 15.3509 5.08696 16.8029 5.95996 17.7479C6.84196 18.7029 7.76696 19.0449 8.54196 18.9079C8.83196 18.8579 9.10596 18.7419 9.36496 18.5599C9.5268 18.4466 9.71861 18.3837 9.91617 18.3792C10.1137 18.3748 10.3082 18.429 10.475 18.5349C10.959 18.8429 11.474 18.9999 12 18.9999C12.527 18.9999 13.04 18.8429 13.525 18.5349C13.6917 18.429 13.8862 18.3748 14.0837 18.3792C14.2813 18.3837 14.4731 18.4466 14.635 18.5599C14.894 18.7419 15.169 18.8579 15.458 18.9089C16.233 19.0459 17.158 18.7029 18.04 17.7489C18.913 16.8029 19.64 15.3509 19.947 13.6079C20.254 11.8639 20.068 10.2509 19.571 9.06395C19.068 7.86595 18.317 7.22795 17.541 7.09095C16.881 6.97395 16.121 7.20295 15.358 7.86495C15.1736 8.02485 14.9371 8.11179 14.693 8.1094C14.4489 8.10701 14.2142 8.01544 14.033 7.85195C13.405 7.28695 12.708 6.99995 12 6.99995ZM16.8 14.3999C16.8787 14.505 16.9361 14.6246 16.9687 14.7518C17.0013 14.879 17.0085 15.0114 16.9899 15.1414C16.9713 15.2714 16.9273 15.3964 16.8604 15.5094C16.7935 15.6224 16.705 15.7212 16.6 15.7999L15.65 16.5119C15.1657 16.8748 14.5669 17.0508 13.9633 17.0078C13.3597 16.9649 12.7919 16.7057 12.364 16.2779C12.2674 16.1815 12.1365 16.1273 12 16.1273C11.8634 16.1273 11.7325 16.1815 11.636 16.2779C11.2079 16.706 10.6399 16.9653 10.0361 17.0083C9.43233 17.0513 8.83329 16.875 8.34896 16.5119L7.39996 15.7999C7.2949 15.7212 7.20639 15.6224 7.13948 15.5094C7.07257 15.3964 7.02858 15.2714 7.01001 15.1414C6.99144 15.0114 6.99865 14.879 7.03124 14.7518C7.06383 14.6246 7.12116 14.505 7.19996 14.3999C7.27875 14.2949 7.37746 14.2064 7.49046 14.1395C7.60346 14.0726 7.72853 14.0286 7.85854 14.01C7.98854 13.9914 8.12092 13.9986 8.24814 14.0312C8.37535 14.0638 8.4949 14.1212 8.59996 14.1999L9.54896 14.9119C9.64814 14.9863 9.77079 15.0223 9.89441 15.0135C10.018 15.0047 10.1343 14.9516 10.222 14.8639C10.6936 14.3925 11.3331 14.1277 12 14.1277C12.6668 14.1277 13.3063 14.3925 13.778 14.8639C13.8656 14.9516 13.9819 15.0047 14.1055 15.0135C14.2291 15.0223 14.3518 14.9863 14.451 14.9119L15.4 14.1999C15.6121 14.0408 15.8788 13.9725 16.1414 14.01C16.4039 14.0475 16.6408 14.1878 16.8 14.3999ZM7.25896 9.03395L9.99096 9.76595C10.182 9.81715 10.3536 9.92386 10.484 10.0726C10.6144 10.2213 10.6977 10.4053 10.7235 10.6014C10.7493 10.7975 10.7164 10.9969 10.6289 11.1742C10.5414 11.3516 10.4033 11.4991 10.232 11.5979L8.49996 12.5979C8.27028 12.7305 7.99733 12.7665 7.74116 12.6978C7.48498 12.6292 7.26657 12.4616 7.13396 12.2319L6.13396 10.4999C6.03502 10.3286 5.98911 10.1319 6.00204 9.93446C6.01497 9.73707 6.08615 9.54795 6.20658 9.39101C6.327 9.23408 6.49127 9.11639 6.6786 9.05283C6.86592 8.98927 7.06789 8.9827 7.25896 9.03395ZM17.793 9.39095C17.9137 9.54794 17.985 9.73725 17.998 9.93486C18.011 10.1325 17.9651 10.3295 17.866 10.5009L16.866 12.2319C16.7333 12.4616 16.5149 12.6292 16.2588 12.6978C16.0026 12.7665 15.7296 12.7305 15.5 12.5979L13.768 11.5979C13.5967 11.4991 13.4585 11.3516 13.371 11.1742C13.2835 10.9969 13.2506 10.7975 13.2764 10.6014C13.3022 10.4053 13.3855 10.2213 13.5159 10.0726C13.6463 9.92386 13.8179 9.81715 14.009 9.76595L16.741 9.03395C16.932 8.98278 17.1338 8.98938 17.3211 9.05292C17.5083 9.11647 17.6725 9.2341 17.793 9.39095Z" fill="currentColor"/>
</svg>
