<svg width="24" height="24" viewBox="0 0 24 24" fill="none" xmlns="http://www.w3.org/2000/svg">
<path fill-rule="evenodd" clip-rule="evenodd" d="M5.56653 10.592C5.64153 9.709 5.67453 8.822 5.72353 7.937C5.81407 6.33376 6.51475 4.82596 7.68179 3.72297C8.84883 2.61997 10.3937 2.00543 11.9995 2.00543C13.6053 2.00543 15.1502 2.61997 16.3173 3.72297C17.4843 4.82596 18.185 6.33376 18.2755 7.937C18.3255 8.847 18.3655 9.755 18.4595 10.661C18.6535 11.078 18.8445 11.519 19.0295 11.977C20.2715 15.05 20.7595 17.75 20.1195 18.009C19.7835 18.144 19.2055 17.584 18.5535 16.578C18.5346 16.686 18.5123 16.7934 18.4865 16.9C18.1808 18.1498 17.5216 19.2851 16.5875 20.17C17.6155 20.52 18.4995 20.997 18.4995 21.5C18.4995 22.009 16.0195 22.003 14.2615 22C13.7125 21.998 13.2495 21.992 12.8795 21.942C12.2954 22.019 11.7037 22.019 11.1195 21.942C10.7495 21.992 10.2875 21.998 9.73753 21.999C7.97953 22.003 5.49953 22.009 5.49953 21.5C5.49953 20.997 6.38353 20.52 7.41153 20.17C6.47747 19.2851 5.81816 18.1498 5.51253 16.9C5.48435 16.7953 5.45867 16.6899 5.43553 16.584C4.78553 17.586 4.20853 18.144 3.87453 18.009C3.23453 17.75 3.72153 15.049 4.96353 11.977C5.15853 11.494 5.36153 11.029 5.56653 10.592ZM7.71953 8.048C7.78205 6.95546 8.26011 5.92821 9.05572 5.17683C9.85132 4.42545 10.9042 4.00686 11.9985 4.00686C13.0929 4.00686 14.1457 4.42545 14.9413 5.17683C15.737 5.92821 16.215 6.95546 16.2775 8.048L16.4425 11H16.4445C16.4445 12.079 16.9705 12.973 17.4365 13.906C17.2006 13.9877 16.9977 14.1443 16.8589 14.3519C16.7201 14.5595 16.6529 14.8067 16.6675 15.056C16.7031 15.6914 16.6089 16.3273 16.3904 16.925C16.172 17.5227 15.8341 18.0696 15.3972 18.5323C14.9603 18.995 14.4337 19.3638 13.8496 19.6161C13.2654 19.8685 12.6359 19.9991 11.9995 20C9.31753 20 7.18253 17.738 7.33153 15.056C7.36453 14.454 6.95653 14.056 6.58653 13.914C6.53953 13.896 7.55553 12.011 7.55553 11L7.72053 8.048H7.71953Z" fill="currentColor"/>
</svg>
