<svg width="24" height="24" viewBox="0 0 24 24" fill="none" xmlns="http://www.w3.org/2000/svg">
<path fill-rule="evenodd" clip-rule="evenodd" d="M14 13C14.2449 13 14.4813 13.09 14.6644 13.2527C14.8474 13.4155 14.9643 13.6397 14.993 13.883L15 14V20C14.9997 20.2549 14.9021 20.5 14.7272 20.6854C14.5522 20.8707 14.313 20.9822 14.0586 20.9972C13.8042 21.0121 13.5536 20.9293 13.3582 20.7657C13.1627 20.6021 13.0371 20.3701 13.007 20.117L13 20V14C13 13.7348 13.1054 13.4804 13.2929 13.2929C13.4804 13.1054 13.7348 13 14 13ZM17 17.5C17.2652 17.5 17.5196 17.6054 17.7071 17.7929C17.8946 17.9804 18 18.2348 18 18.5V20C18 20.2652 17.8946 20.5196 17.7071 20.7071C17.5196 20.8946 17.2652 21 17 21C16.7348 21 16.4804 20.8946 16.2929 20.7071C16.1054 20.5196 16 20.2652 16 20V18.5C16 18.2348 16.1054 17.9804 16.2929 17.7929C16.4804 17.6054 16.7348 17.5 17 17.5ZM20 13C20.2449 13 20.4813 13.09 20.6644 13.2527C20.8474 13.4155 20.9643 13.6397 20.993 13.883L21 14V20C20.9997 20.2549 20.9021 20.5 20.7272 20.6854C20.5522 20.8707 20.313 20.9822 20.0586 20.9972C19.8042 21.0121 19.5536 20.9293 19.3582 20.7657C19.1627 20.6021 19.0371 20.3701 19.007 20.117L19 20V14C19 13.7348 19.1054 13.4804 19.2929 13.2929C19.4804 13.1054 19.7348 13 20 13ZM9 13C9.53043 13 10.0391 13.2107 10.4142 13.5858C10.7893 13.9609 11 14.4696 11 15V19C11 19.5304 10.7893 20.0391 10.4142 20.4142C10.0391 20.7893 9.53043 21 9 21H5C4.46957 21 3.96086 20.7893 3.58579 20.4142C3.21071 20.0391 3 19.5304 3 19V15C3 14.4696 3.21071 13.9609 3.58579 13.5858C3.96086 13.2107 4.46957 13 5 13H9ZM9 15H5V19H9V15ZM17 13C17.2449 13 17.4813 13.09 17.6644 13.2527C17.8474 13.4155 17.9643 13.6397 17.993 13.883L18 14V15.5C17.9997 15.7549 17.9021 16 17.7272 16.1854C17.5522 16.3707 17.313 16.4822 17.0586 16.4972C16.8042 16.5121 16.5536 16.4293 16.3582 16.2657C16.1627 16.1021 16.0371 15.8701 16.007 15.617L16 15.5V14C16 13.7348 16.1054 13.4804 16.2929 13.2929C16.4804 13.1054 16.7348 13 17 13ZM9 3C9.53043 3 10.0391 3.21071 10.4142 3.58579C10.7893 3.96086 11 4.46957 11 5V9C11 9.53043 10.7893 10.0391 10.4142 10.4142C10.0391 10.7893 9.53043 11 9 11H5C4.46957 11 3.96086 10.7893 3.58579 10.4142C3.21071 10.0391 3 9.53043 3 9V5C3 4.46957 3.21071 3.96086 3.58579 3.58579C3.96086 3.21071 4.46957 3 5 3H9ZM19 3C19.5304 3 20.0391 3.21071 20.4142 3.58579C20.7893 3.96086 21 4.46957 21 5V9C21 9.53043 20.7893 10.0391 20.4142 10.4142C20.0391 10.7893 19.5304 11 19 11H15C14.4696 11 13.9609 10.7893 13.5858 10.4142C13.2107 10.0391 13 9.53043 13 9V5C13 4.46957 13.2107 3.96086 13.5858 3.58579C13.9609 3.21071 14.4696 3 15 3H19ZM9 5H5V9H9V5ZM19 5H15V9H19V5Z" fill="currentColor"/>
</svg>
