<svg width="24" height="24" viewBox="0 0 24 24" fill="none" xmlns="http://www.w3.org/2000/svg">
<path fill-rule="evenodd" clip-rule="evenodd" d="M20.262 2.434C20.4459 2.41557 20.6313 2.44819 20.7978 2.52829C20.9644 2.60838 21.1056 2.73285 21.206 2.888L21.284 3.014L21.393 3.216L21.474 3.39L21.557 3.595C21.872 4.433 22.109 5.892 21.015 7.551C20.9328 7.67353 20.8405 7.78894 20.739 7.896C20.752 8.01946 20.7419 8.14428 20.709 8.264C20.5107 8.99312 20.2601 9.70697 19.959 10.4C19.408 11.663 18.631 12.94 17.536 14.036C15.486 16.086 12.794 17.027 10.692 17.466C9.86701 17.639 9.11601 17.737 8.50601 17.793L8.01901 17.831L7.80901 17.844L7.68101 18.907L7.58301 19.813L7.54501 20.225L7.50801 20.743C7.50322 20.8286 7.50055 20.9143 7.50001 21C7.50001 21.2652 7.39465 21.5196 7.20712 21.7071C7.01958 21.8946 6.76523 22 6.50001 22C6.2348 22 5.98044 21.8946 5.79291 21.7071C5.60537 21.5196 5.50001 21.2652 5.50001 21C5.50001 20.896 5.50401 20.775 5.51001 20.64L5.54001 20.203L5.58301 19.714L5.66301 18.942L5.72101 18.44C5.92601 16.708 6.16701 15.014 6.70801 13.35C7.33301 11.43 8.45801 8.971 10.465 6.965C12.038 5.391 13.897 4.354 15.571 3.675L16.023 3.498L16.463 3.338C16.535 3.313 16.607 3.288 16.678 3.265L17.098 3.129L17.5 3.009L17.884 2.902L18.247 2.809L18.587 2.729L18.902 2.659L19.448 2.554L20.025 2.463L20.262 2.434ZM19.76 4.53L19.438 4.592L19.068 4.671L18.653 4.769C18.5789 4.78786 18.5049 4.80719 18.431 4.827L17.961 4.957C17.799 5.005 17.631 5.057 17.46 5.113L16.933 5.293C15.318 5.877 13.425 6.833 11.879 8.379C10.175 10.082 9.17901 12.219 8.61001 13.969C8.44501 14.476 8.31701 14.946 8.22001 15.357L8.11601 15.819L8.58101 15.776C9.15241 15.7152 9.72045 15.6261 10.283 15.509C12.203 15.108 14.462 14.281 16.121 12.621C16.971 11.772 17.605 10.764 18.075 9.716C17.099 10.236 16.057 10.702 15.316 10.949C15.0643 11.0328 14.7896 11.0132 14.5524 10.8945C14.3152 10.7758 14.1348 10.5677 14.051 10.316C13.9672 10.0643 13.9868 9.78963 14.1055 9.5524C14.2242 9.31517 14.4323 9.13481 14.684 9.051C15.358 8.827 16.442 8.338 17.438 7.786C17.932 7.512 18.384 7.234 18.739 6.978L18.965 6.808L19.135 6.667L19.2 6.607L19.295 6.512C19.3132 6.49223 19.3299 6.47117 19.345 6.449C19.872 5.651 19.865 4.969 19.76 4.53ZM5.00001 1C5.18709 1 5.37042 1.05248 5.52916 1.15147C5.68791 1.25046 5.8157 1.392 5.89801 1.56L5.94601 1.677L6.07601 2.055C6.21321 2.45718 6.43429 2.82563 6.72461 3.13594C7.01492 3.44625 7.36785 3.69135 7.76001 3.855L7.94501 3.925L8.32301 4.054C8.51015 4.11797 8.67411 4.236 8.79418 4.39316C8.91424 4.55031 8.98501 4.73954 8.99753 4.93691C9.01005 5.13429 8.96377 5.33094 8.86453 5.50201C8.7653 5.67308 8.61756 5.81089 8.44001 5.898L8.32301 5.946L7.94501 6.076C7.54283 6.2132 7.17438 6.43428 6.86407 6.72459C6.55376 7.01491 6.30866 7.36783 6.14501 7.76L6.07501 7.945L5.94601 8.323C5.88204 8.51014 5.76401 8.6741 5.60685 8.79416C5.4497 8.91423 5.26047 8.98499 5.0631 8.99752C4.86572 9.01004 4.66907 8.96376 4.498 8.86452C4.32693 8.76528 4.18913 8.61755 4.10201 8.44L4.05401 8.323L3.92401 7.945C3.78681 7.54282 3.56573 7.17437 3.27542 6.86406C2.9851 6.55375 2.63218 6.30865 2.24001 6.145L2.05501 6.075L1.67701 5.946C1.48987 5.88203 1.32591 5.764 1.20585 5.60684C1.08579 5.44969 1.01502 5.26046 1.0025 5.06309C0.989972 4.86571 1.03626 4.66906 1.13549 4.49799C1.23473 4.32692 1.38246 4.18911 1.56001 4.102L1.67701 4.054L2.05501 3.924C2.4572 3.7868 2.82564 3.56572 3.13595 3.27541C3.44627 2.98509 3.69136 2.63217 3.85501 2.24L3.92501 2.055L4.05401 1.677C4.12139 1.47959 4.24881 1.30818 4.41844 1.18679C4.58807 1.06539 4.79142 1.00008 5.00001 1ZM5.00001 4.196C4.76343 4.49368 4.49369 4.76342 4.19601 5C4.49401 5.236 4.76401 5.506 5.00001 5.804C5.23601 5.506 5.50601 5.236 5.80401 5C5.50634 4.76342 5.23659 4.49368 5.00001 4.196Z" fill="currentColor"/>
</svg>
