<svg width="24" height="24" viewBox="0 0 24 24" fill="none" xmlns="http://www.w3.org/2000/svg">
<path fill-rule="evenodd" clip-rule="evenodd" d="M16.5 6C17.4183 5.99987 18.2999 6.36065 18.9546 7.00454C19.6093 7.64842 19.9848 8.52383 20 9.442C20.09 10.307 20.077 11.582 19.492 13.056C18.895 14.562 17.728 16.204 15.6 17.8C15.4949 17.8788 15.3754 17.9361 15.2482 17.9687C15.121 18.0013 14.9886 18.0085 14.8586 17.99C14.596 17.9524 14.3591 17.8122 14.2 17.6C14.0409 17.3878 13.9725 17.1211 14.0101 16.8586C14.0476 16.596 14.1878 16.3591 14.4 16.2C15.964 15.027 16.861 13.886 17.373 12.89C16.8559 13.0226 16.3153 13.0352 15.7926 12.927C15.2698 12.8187 14.7787 12.5924 14.3568 12.2653C13.9349 11.9382 13.5933 11.519 13.3581 11.0398C13.123 10.5605 13.0005 10.0338 13 9.5C13 8.57174 13.3687 7.6815 14.0251 7.02513C14.6815 6.36875 15.5717 6 16.5 6ZM7.5 6C8.4183 5.99987 9.29986 6.36065 9.95459 7.00454C10.6093 7.64842 10.9848 8.52383 11 9.442C11.09 10.307 11.077 11.582 10.492 13.056C9.895 14.562 8.728 16.204 6.6 17.8C6.49494 17.8788 6.37539 17.9361 6.24818 17.9687C6.12097 18.0013 5.98858 18.0085 5.85858 17.99C5.59603 17.9524 5.35913 17.8122 5.2 17.6C5.04087 17.3878 4.97254 17.1211 5.01005 16.8586C5.04756 16.596 5.18783 16.3591 5.4 16.2C6.964 15.027 7.861 13.886 8.373 12.89C7.8559 13.0224 7.31538 13.0349 6.79272 12.9265C6.27005 12.8182 5.77904 12.5918 5.35718 12.2648C4.93532 11.9378 4.59374 11.5187 4.35853 11.0395C4.12332 10.5603 4.00069 10.0338 4 9.5C4 8.57174 4.36875 7.6815 5.02513 7.02513C5.6815 6.36875 6.57174 6 7.5 6ZM16.5 8C16.2098 7.99995 15.9258 8.08408 15.6825 8.24219C15.4391 8.4003 15.2469 8.62561 15.129 8.8908C15.0111 9.156 14.9727 9.44968 15.0184 9.73626C15.0642 10.0228 15.192 10.29 15.3865 10.5054C15.581 10.7208 15.8338 10.8751 16.1143 10.9496C16.3948 11.0242 16.6908 11.0158 16.9666 10.9255C17.2424 10.8352 17.4861 10.6668 17.6681 10.4407C17.8501 10.2147 17.9626 9.94071 17.992 9.652L18 9.49C17.9974 9.09391 17.8382 8.71494 17.5571 8.4358C17.2761 8.15665 16.8961 7.99999 16.5 8ZM7.5 8C7.2098 7.99995 6.92581 8.08408 6.68246 8.24219C6.43912 8.4003 6.24686 8.62561 6.129 8.8908C6.01114 9.156 5.97274 9.44968 6.01845 9.73626C6.06415 10.0228 6.19201 10.29 6.38652 10.5054C6.58103 10.7208 6.83384 10.8751 7.1143 10.9496C7.39476 11.0242 7.69083 11.0158 7.96662 10.9255C8.2424 10.8352 8.48607 10.6668 8.66807 10.4407C8.85007 10.2147 8.96259 9.94071 8.992 9.652L9 9.49C8.99736 9.09391 8.83816 8.71494 8.55714 8.4358C8.27612 8.15665 7.8961 7.99999 7.5 8Z" fill="currentColor"/>
</svg>
