<svg width="24" height="24" viewBox="0 0 24 24" fill="none" xmlns="http://www.w3.org/2000/svg">
<path fill-rule="evenodd" clip-rule="evenodd" d="M9.79981 6.4C9.87861 6.50506 9.93593 6.62461 9.96853 6.75182C10.0011 6.87903 10.0083 7.01142 9.98976 7.14142C9.97119 7.27142 9.9272 7.39649 9.86029 7.50949C9.79338 7.62249 9.70487 7.72121 9.59981 7.8C8.03581 8.973 7.13881 10.114 6.62681 11.11C7.33118 10.9287 8.07454 10.9713 8.75357 11.232C9.4326 11.4926 10.0136 11.9583 10.4157 12.5644C10.8178 13.1704 11.0212 13.8867 10.9975 14.6136C10.9737 15.3406 10.7241 16.0421 10.2834 16.6206C9.84256 17.1992 9.23248 17.626 8.53791 17.8419C7.84334 18.0577 7.09878 18.0518 6.40772 17.8249C5.71667 17.5981 5.11345 17.1616 4.68192 16.5761C4.25038 15.9906 4.01197 15.2852 3.99981 14.558C3.87172 13.3299 4.04612 12.0892 4.50781 10.944C5.10481 9.438 6.27181 7.796 8.39981 6.2C8.50487 6.12121 8.62442 6.06388 8.75163 6.03129C8.87884 5.99869 9.01123 5.99148 9.14123 6.01005C9.27124 6.02862 9.39631 6.07262 9.50931 6.13953C9.62231 6.20643 9.72102 6.29494 9.79981 6.4ZM17.3998 6.2C17.5049 6.12121 17.6244 6.06388 17.7516 6.03129C17.8788 5.99869 18.0112 5.99148 18.1412 6.01005C18.2712 6.02862 18.3963 6.07262 18.5093 6.13953C18.6223 6.20643 18.721 6.29494 18.7998 6.4C18.8786 6.50506 18.9359 6.62461 18.9685 6.75182C19.0011 6.87903 19.0083 7.01142 18.9898 7.14142C18.9712 7.27142 18.9272 7.39649 18.8603 7.50949C18.7934 7.62249 18.7049 7.72121 18.5998 7.8C17.0358 8.973 16.1388 10.114 15.6268 11.11C16.3312 10.9287 17.0745 10.9713 17.7536 11.232C18.4326 11.4926 19.0136 11.9583 19.4157 12.5644C19.8178 13.1704 20.0212 13.8867 19.9975 14.6136C19.9737 15.3406 19.7241 16.0421 19.2834 16.6206C18.8426 17.1992 18.2325 17.626 17.5379 17.8419C16.8433 18.0577 16.0988 18.0518 15.4077 17.8249C14.7167 17.5981 14.1135 17.1616 13.6819 16.5761C13.2504 15.9906 13.012 15.2852 12.9998 14.558C12.8718 13.3299 13.0462 12.0892 13.5078 10.944C14.1058 9.438 15.2718 7.796 17.3998 6.2ZM7.49981 13C7.12835 13.0001 6.77013 13.138 6.4945 13.387C6.21888 13.636 6.04545 13.9785 6.00781 14.348L5.99981 14.51C6.00179 14.8062 6.09144 15.0953 6.25745 15.3406C6.42347 15.586 6.65843 15.7767 6.93268 15.8887C7.20694 16.0007 7.50822 16.029 7.79853 15.9699C8.08884 15.9109 8.35518 15.7673 8.56396 15.5571C8.77274 15.347 8.91461 15.0797 8.97168 14.789C9.02875 14.4983 8.99847 14.1972 8.88465 13.9237C8.77083 13.6502 8.57857 13.4165 8.33212 13.2521C8.08567 13.0877 7.79606 13 7.49981 13ZM16.4998 13C16.1284 13.0001 15.7701 13.138 15.4945 13.387C15.2189 13.636 15.0455 13.9785 15.0078 14.348L14.9998 14.51C15.0018 14.8062 15.0914 15.0953 15.2575 15.3406C15.4235 15.586 15.6584 15.7767 15.9327 15.8887C16.2069 16.0007 16.5082 16.029 16.7985 15.9699C17.0888 15.9109 17.3552 15.7673 17.564 15.5571C17.7727 15.347 17.9146 15.0797 17.9717 14.789C18.0288 14.4983 17.9985 14.1972 17.8846 13.9237C17.7708 13.6502 17.5786 13.4165 17.3321 13.2521C17.0857 13.0877 16.7961 13 16.4998 13Z" fill="currentColor"/>
</svg>
