<svg width="24" height="24" viewBox="0 0 24 24" fill="none" xmlns="http://www.w3.org/2000/svg">
<path fill-rule="evenodd" clip-rule="evenodd" d="M7.652 4.38199C7.678 4.37499 7.975 4.31399 8.513 4.98499C9.027 5.62599 9.579 6.74399 10.024 8.40499C10.351 9.62499 10.562 10.92 10.64 12.075C10.6575 12.3359 10.7765 12.5795 10.9714 12.7537C11.1664 12.9279 11.4218 13.0188 11.683 13.007C11.8942 12.9975 12.1058 12.9975 12.317 13.007C12.578 13.0188 12.8333 12.928 13.0282 12.754C13.2232 12.5801 13.3422 12.3367 13.36 12.076C13.438 10.92 13.649 9.62399 13.976 8.40499C14.421 6.74399 14.973 5.62599 15.486 4.98499C16.026 4.31399 16.322 4.37499 16.348 4.38199C16.374 4.38799 16.661 4.48399 16.792 5.33499C16.916 6.14699 16.836 7.39099 16.391 9.05199C16.0571 10.2932 15.6023 11.4986 15.033 12.651C14.9231 12.8709 14.898 13.1236 14.9625 13.3608C15.0271 13.598 15.1768 13.8031 15.383 13.937C16.448 14.629 17 15.565 17 16.5C17 17.357 16.539 18.21 15.643 18.882C14.746 19.554 13.46 20 12 20C10.539 20 9.254 19.555 8.357 18.882C7.461 18.21 7 17.357 7 16.5C7 15.565 7.552 14.629 8.617 13.937C8.82322 13.8031 8.9729 13.598 9.03747 13.3608C9.10203 13.1236 9.07694 12.8709 8.967 12.651C8.39761 11.4983 7.94277 10.2925 7.609 9.05099C7.164 7.39099 7.084 6.14699 7.209 5.33499C7.339 4.48499 7.626 4.38799 7.652 4.38199ZM11.956 7.88699C11.472 6.07999 10.826 4.67199 10.074 3.73399C9.346 2.82699 8.309 2.13499 7.134 2.44999C5.96 2.76399 5.408 3.88199 5.231 5.03199C5.049 6.21999 5.193 7.76199 5.678 9.56899C5.97475 10.6704 6.35691 11.747 6.821 12.789C5.728 13.731 5 15.02 5 16.5C5 18.128 5.882 19.526 7.157 20.482C8.432 21.438 10.147 22 12 22C13.852 22 15.568 21.438 16.843 20.482C18.118 19.526 19 18.128 19 16.5C19 15.018 18.272 13.731 17.18 12.79C17.6438 11.748 18.0256 10.6714 18.322 9.56999C18.807 7.76299 18.951 6.21999 18.769 5.03199C18.592 3.88199 18.04 2.76399 16.866 2.44999C15.691 2.13499 14.654 2.82699 13.926 3.73399C13.174 4.67199 12.528 6.07999 12.044 7.88699L12 8.05399C11.9856 7.99827 11.9709 7.9426 11.956 7.88699ZM10.583 16.993C10.5045 16.767 10.4812 16.5255 10.5151 16.2886C10.549 16.0518 10.639 15.8264 10.7777 15.6315C10.9164 15.4365 11.0997 15.2776 11.3123 15.1679C11.525 15.0582 11.7607 15.0009 12 15.0009C12.2393 15.0009 12.475 15.0582 12.6877 15.1679C12.9003 15.2776 13.0836 15.4365 13.2223 15.6315C13.361 15.8264 13.451 16.0518 13.4849 16.2886C13.5188 16.5255 13.4955 16.767 13.417 16.993C13.4444 16.9976 13.4722 17 13.5 17C13.7652 17 14.0196 17.1053 14.2071 17.2929C14.3946 17.4804 14.5 17.7348 14.5 18C14.5 18.2652 14.3946 18.5196 14.2071 18.7071C14.0196 18.8946 13.7652 19 13.5 19C12.959 19.0007 12.4324 18.8252 12 18.5C11.5676 18.8252 11.041 19.0007 10.5 19C10.2348 19 9.98043 18.8946 9.79289 18.7071C9.60536 18.5196 9.5 18.2652 9.5 18C9.5 17.7348 9.60536 17.4804 9.79289 17.2929C9.98043 17.1053 10.2348 17 10.5 17C10.5278 17 10.5556 16.9976 10.583 16.993Z" fill="currentColor"/>
</svg>
