<svg width="24" height="24" viewBox="0 0 24 24" fill="none" xmlns="http://www.w3.org/2000/svg">
<path d="M4.92901 4.92902C5.11761 4.74686 5.37021 4.64606 5.63241 4.64834C5.8946 4.65062 6.14542 4.75579 6.33083 4.9412C6.51623 5.12661 6.6214 5.37742 6.62368 5.63962C6.62596 5.90181 6.52516 6.15441 6.34301 6.34302C5.59891 7.08499 5.00884 7.96676 4.60674 8.9376C4.20464 9.90844 3.99844 10.9492 4.00001 12C3.99833 13.0508 4.20448 14.0916 4.60658 15.0625C5.00869 16.0334 5.59882 16.9151 6.34301 17.657C6.4422 17.7483 6.5219 17.8587 6.57734 17.9816C6.63277 18.1045 6.66279 18.2373 6.66558 18.3721C6.66837 18.5069 6.64388 18.6408 6.59359 18.7659C6.54329 18.891 6.46823 19.0046 6.3729 19.0999C6.27758 19.1952 6.16396 19.2703 6.03889 19.3206C5.91381 19.3709 5.77986 19.3954 5.64508 19.3926C5.5103 19.3898 5.37748 19.3598 5.25459 19.3043C5.13171 19.2489 5.0213 19.1692 4.93001 19.07C4.00011 18.1426 3.26259 17.0406 2.75977 15.8273C2.25696 14.614 1.99876 13.3134 2.00001 12C1.9985 10.6866 2.25647 9.38578 2.75912 8.17233C3.26176 6.95887 3.99918 5.85667 4.92901 4.92902ZM17.657 4.92902C17.8445 4.74155 18.0988 4.63623 18.364 4.63623C18.6292 4.63623 18.8835 4.74155 19.071 4.92902C20.0008 5.85667 20.7382 6.95887 21.2409 8.17233C21.7435 9.38578 22.0015 10.6866 22 12C22.0015 13.3135 21.7435 14.6143 21.2409 15.8277C20.7382 17.0412 20.0008 18.1434 19.071 19.071C18.8824 19.2532 18.6298 19.354 18.3676 19.3517C18.1054 19.3494 17.8546 19.2442 17.6692 19.0588C17.4838 18.8734 17.3786 18.6226 17.3763 18.3604C17.3741 18.0982 17.4748 17.8456 17.657 17.657C18.4011 16.915 18.9912 16.0333 19.3933 15.0624C19.7954 14.0916 20.0016 13.0508 20 12C20.0017 10.9492 19.7955 9.90839 19.3934 8.93754C18.9913 7.96668 18.4012 7.08493 17.657 6.34302C17.4695 6.15549 17.3642 5.90118 17.3642 5.63602C17.3642 5.37085 17.4695 5.11654 17.657 4.92902ZM9.17201 7.75702C9.26498 7.84989 9.33874 7.96018 9.38907 8.08158C9.43939 8.20297 9.46529 8.3331 9.46529 8.46452C9.46529 8.59593 9.43939 8.72606 9.38907 8.84746C9.33874 8.96886 9.26498 9.07914 9.17201 9.17202C8.79984 9.54284 8.50468 9.98361 8.30354 10.469C8.1024 10.9543 7.99924 11.4746 8.00001 12C8.00001 13.13 8.46701 14.148 9.22001 14.877C9.31851 14.9673 9.39793 15.0763 9.45358 15.1978C9.50923 15.3193 9.53998 15.4506 9.54401 15.5842C9.54804 15.7177 9.52527 15.8507 9.47704 15.9753C9.42882 16.0999 9.35611 16.2136 9.26323 16.3096C9.17034 16.4056 9.05915 16.4821 8.93623 16.5344C8.81331 16.5867 8.68115 16.6139 8.54755 16.6143C8.41395 16.6147 8.28162 16.5884 8.15838 16.5368C8.03514 16.4852 7.92348 16.4095 7.83001 16.314C7.25047 15.755 6.78968 15.0848 6.47524 14.3436C6.16079 13.6023 5.99916 12.8052 6.00001 12C6.00001 10.343 6.67301 8.84202 7.75701 7.75702C7.84988 7.66404 7.96017 7.59028 8.08157 7.53996C8.20296 7.48963 8.33309 7.46373 8.46451 7.46373C8.59592 7.46373 8.72605 7.48963 8.84745 7.53996C8.96885 7.59028 9.07913 7.66404 9.17201 7.75702ZM16.282 7.79702C17.3846 8.91791 18.0017 10.4277 18 12C18.001 12.7881 17.8463 13.5686 17.5447 14.2968C17.2432 15.0249 16.8008 15.6863 16.243 16.243C16.0554 16.4307 15.8009 16.5361 15.5355 16.5361C15.2701 16.5361 15.0156 16.4307 14.828 16.243C14.6404 16.0554 14.535 15.8009 14.535 15.5355C14.535 15.2702 14.6404 15.0157 14.828 14.828C15.2002 14.4572 15.4953 14.0164 15.6965 13.5311C15.8976 13.0457 16.0008 12.5254 16 12C16 10.909 15.564 9.92002 14.855 9.19802C14.6738 9.00789 14.5746 8.7541 14.579 8.49147C14.5833 8.22885 14.6908 7.97848 14.8783 7.79446C15.0657 7.61045 15.318 7.50756 15.5807 7.50804C15.8433 7.50852 16.0952 7.61232 16.282 7.79702ZM12 10.5C12.3978 10.5 12.7794 10.6581 13.0607 10.9394C13.342 11.2207 13.5 11.6022 13.5 12C13.5 12.3978 13.342 12.7794 13.0607 13.0607C12.7794 13.342 12.3978 13.5 12 13.5C11.6022 13.5 11.2207 13.342 10.9393 13.0607C10.658 12.7794 10.5 12.3978 10.5 12C10.5 11.6022 10.658 11.2207 10.9393 10.9394C11.2207 10.6581 11.6022 10.5 12 10.5Z" fill="currentColor"/>
</svg>
