<svg width="24" height="24" viewBox="0 0 24 24" fill="none" xmlns="http://www.w3.org/2000/svg">
<path d="M7.422 3.60998C7.50565 3.37954 7.67103 3.18785 7.88673 3.07133C8.10243 2.95482 8.35342 2.9216 8.592 2.97798L8.704 3.01198L19.66 6.99998H20C20.5046 6.99982 20.9906 7.19039 21.3605 7.53348C21.7305 7.87657 21.9572 8.34683 21.995 8.84998L22 8.99998V19C22.0002 19.5046 21.8096 19.9906 21.4665 20.3605C21.1234 20.7305 20.6532 20.9571 20.15 20.995L20 21H4C3.49542 21.0001 3.00943 20.8096 2.63945 20.4665C2.26947 20.1234 2.04284 19.6531 2.005 19.15L2 19V8.99998C2.00009 8.49558 2.19077 8.00984 2.53384 7.64007C2.8769 7.2703 3.34702 7.04381 3.85 7.00598L4 6.99998H13.813L8.02 4.89098C7.77089 4.80033 7.56797 4.61448 7.45583 4.37427C7.3437 4.13406 7.33153 3.85916 7.422 3.60998ZM19.31 8.99998H4V19H20V8.99998H19.968C19.7992 9.05935 19.6175 9.07213 19.442 9.03698L19.308 8.99998H19.31ZM10 15C10.2549 15.0003 10.5 15.0979 10.6854 15.2728C10.8707 15.4478 10.9822 15.6869 10.9972 15.9414C11.0121 16.1958 10.9293 16.4464 10.7657 16.6418C10.6021 16.8373 10.3701 16.9629 10.117 16.993L10 17H7C6.74512 16.9997 6.49997 16.9021 6.31463 16.7271C6.1293 16.5522 6.01777 16.313 6.00283 16.0586C5.98789 15.8041 6.07067 15.5536 6.23426 15.3582C6.39786 15.1627 6.6299 15.0371 6.883 15.007L7 15H10ZM15 11C15.394 11 15.7841 11.0776 16.1481 11.2283C16.512 11.3791 16.8427 11.6001 17.1213 11.8787C17.3999 12.1572 17.6209 12.488 17.7716 12.8519C17.9224 13.2159 18 13.606 18 14C18 14.394 17.9224 14.7841 17.7716 15.148C17.6209 15.512 17.3999 15.8427 17.1213 16.1213C16.8427 16.3999 16.512 16.6209 16.1481 16.7716C15.7841 16.9224 15.394 17 15 17C14.2044 17 13.4413 16.6839 12.8787 16.1213C12.3161 15.5587 12 14.7956 12 14C12 13.2043 12.3161 12.4413 12.8787 11.8787C13.4413 11.3161 14.2044 11 15 11ZM15 13C14.7348 13 14.4804 13.1053 14.2929 13.2929C14.1054 13.4804 14 13.7348 14 14C14 14.2652 14.1054 14.5196 14.2929 14.7071C14.4804 14.8946 14.7348 15 15 15C15.2652 15 15.5196 14.8946 15.7071 14.7071C15.8946 14.5196 16 14.2652 16 14C16 13.7348 15.8946 13.4804 15.7071 13.2929C15.5196 13.1053 15.2652 13 15 13ZM8 12C8.26522 12 8.51957 12.1053 8.70711 12.2929C8.89464 12.4804 9 12.7348 9 13C9 13.2652 8.89464 13.5196 8.70711 13.7071C8.51957 13.8946 8.26522 14 8 14H7C6.73478 14 6.48043 13.8946 6.29289 13.7071C6.10536 13.5196 6 13.2652 6 13C6 12.7348 6.10536 12.4804 6.29289 12.2929C6.48043 12.1053 6.73478 12 7 12H8Z" fill="currentColor"/>
</svg>
