<svg width="24" height="24" viewBox="0 0 24 24" fill="none" xmlns="http://www.w3.org/2000/svg">
<path d="M16.8679 18.983C16.9947 19.017 17.1137 19.0757 17.2178 19.1556C17.322 19.2356 17.4095 19.3353 17.4751 19.4491C17.5408 19.5628 17.5834 19.6884 17.6005 19.8186C17.6176 19.9488 17.6089 20.0811 17.5749 20.208L17.3159 21.174C17.2472 21.4302 17.0795 21.6486 16.8498 21.7812C16.6201 21.9138 16.3471 21.9497 16.0909 21.881C15.8347 21.8123 15.6162 21.6447 15.4837 21.4149C15.3511 21.1852 15.3152 20.9122 15.3839 20.656L15.6439 19.69C15.7125 19.434 15.88 19.2157 16.1095 19.0832C16.3391 18.9506 16.6118 18.9146 16.8679 18.983ZM9.86786 18.983C9.99473 19.017 10.1137 19.0757 10.2178 19.1556C10.322 19.2356 10.4095 19.3353 10.4751 19.4491C10.5408 19.5628 10.5834 19.6884 10.6005 19.8186C10.6176 19.9488 10.6089 20.0811 10.5749 20.208L10.3159 21.174C10.2472 21.4302 10.0795 21.6486 9.84979 21.7812C9.62006 21.9138 9.34706 21.9497 9.09086 21.881C8.83466 21.8123 8.61625 21.6447 8.48366 21.4149C8.35107 21.1852 8.31517 20.9122 8.38386 20.656L8.64386 19.69C8.71254 19.434 8.88003 19.2157 9.10954 19.0832C9.33905 18.9506 9.6118 18.9146 9.86786 18.983ZM14.0179 16.568C14.2543 16.6316 14.4593 16.7797 14.5938 16.9843C14.7284 17.1888 14.7832 17.4357 14.7479 17.678L14.7249 17.793L14.2069 19.725C14.1403 19.9708 13.9824 20.182 13.7654 20.3154C13.5484 20.4488 13.2887 20.4944 13.0393 20.4428C12.7899 20.3913 12.5695 20.2465 12.4232 20.038C12.2768 19.8296 12.2156 19.5731 12.2519 19.321L12.2749 19.207L12.7929 17.275C12.8269 17.1481 12.8855 17.0292 12.9655 16.925C13.0455 16.8208 13.1452 16.7334 13.2589 16.6678C13.3727 16.6021 13.4982 16.5595 13.6285 16.5424C13.7587 16.5253 13.891 16.534 14.0179 16.568ZM7.01786 16.568C7.14473 16.602 7.26365 16.6607 7.36785 16.7406C7.47204 16.8206 7.55946 16.9203 7.62511 17.0341C7.69076 17.1478 7.73337 17.2734 7.75048 17.4036C7.7676 17.5338 7.75889 17.6661 7.72486 17.793L7.20686 19.725C7.17285 19.8519 7.11419 19.9708 7.03422 20.075C6.95425 20.1791 6.85454 20.2666 6.74079 20.3322C6.62704 20.3979 6.50147 20.4405 6.37125 20.4576C6.24103 20.4747 6.10872 20.466 5.98186 20.432C5.85501 20.398 5.73609 20.3393 5.63191 20.2594C5.52772 20.1794 5.44031 20.0797 5.37466 19.9659C5.30901 19.8522 5.2664 19.7266 5.24928 19.5964C5.23216 19.4662 5.24085 19.3339 5.27486 19.207L5.79286 17.275C5.82686 17.1481 5.88552 17.0292 5.96548 16.925C6.04545 16.8208 6.14516 16.7334 6.25891 16.6678C6.37267 16.6021 6.49824 16.5595 6.62847 16.5424C6.75869 16.5253 6.89101 16.534 7.01786 16.568ZM10.9029 15.119C11.0297 15.153 11.1487 15.2117 11.2528 15.2916C11.357 15.3716 11.4445 15.4713 11.5101 15.5851C11.5758 15.6988 11.6184 15.8244 11.6355 15.9546C11.6526 16.0848 11.6439 16.2171 11.6099 16.344L11.3519 17.31C11.2832 17.5662 11.1155 17.7846 10.8858 17.9172C10.6561 18.0498 10.3831 18.0857 10.1269 18.017C9.87066 17.9483 9.65225 17.7807 9.51966 17.5509C9.38707 17.3212 9.35117 17.0482 9.41986 16.792L9.67786 15.826C9.71186 15.6991 9.77052 15.5802 9.85048 15.476C9.93045 15.3718 10.0302 15.2844 10.1439 15.2188C10.2577 15.1531 10.3832 15.1105 10.5135 15.0934C10.6437 15.0763 10.776 15.085 10.9029 15.119ZM17.9029 15.119C18.0297 15.153 18.1487 15.2117 18.2528 15.2916C18.357 15.3716 18.4445 15.4713 18.5101 15.5851C18.5758 15.6988 18.6184 15.8244 18.6355 15.9546C18.6526 16.0848 18.6439 16.2171 18.6099 16.344L18.3519 17.31C18.2832 17.5662 18.1155 17.7846 17.8858 17.9172C17.6561 18.0498 17.3831 18.0857 17.1269 18.017C16.8707 17.9483 16.6522 17.7807 16.5197 17.5509C16.3871 17.3212 16.3512 17.0482 16.4199 16.792L16.6779 15.826C16.7119 15.6991 16.7705 15.5802 16.8505 15.476C16.9305 15.3718 17.0302 15.2844 17.1439 15.2188C17.2577 15.1531 17.3832 15.1105 17.5135 15.0934C17.6437 15.0763 17.776 15.085 17.9029 15.119ZM11.4999 2C12.8223 1.99987 14.1133 2.40298 15.2007 3.15554C16.288 3.9081 17.1201 4.97433 17.5859 6.212C18.5294 6.47084 19.3954 6.95642 20.1083 7.62645C20.8213 8.29648 21.3596 9.13064 21.6765 10.0563C21.9934 10.982 22.0792 11.9711 21.9264 12.9375C21.7736 13.9039 21.3868 14.8182 20.7999 15.601C20.6405 15.8132 20.4033 15.9533 20.1406 15.9907C19.8778 16.028 19.611 15.9594 19.3989 15.8C19.1867 15.6406 19.0465 15.4035 19.0092 15.1407C18.9719 14.878 19.0405 14.6112 19.1999 14.399C19.6118 13.8493 19.8752 13.2028 19.9649 12.5217C20.0545 11.8407 19.9673 11.148 19.7116 10.5105C19.4559 9.8729 19.0404 9.3119 18.505 8.88149C17.9696 8.45109 17.3325 8.16576 16.6549 8.053C16.4639 8.02143 16.286 7.93565 16.1424 7.80587C15.9988 7.6761 15.8955 7.5078 15.8449 7.321C15.5519 6.22225 14.8539 5.27515 13.8911 4.67012C12.9283 4.06509 11.7721 3.84699 10.655 4.05969C9.53799 4.27238 8.54287 4.90009 7.86978 5.81661C7.19669 6.73313 6.89553 7.87048 7.02686 9C7.05345 9.24288 6.9911 9.48716 6.85136 9.68758C6.71161 9.888 6.50396 10.031 6.26686 10.09C5.83483 10.1989 5.43244 10.4025 5.0889 10.6862C4.74535 10.9699 4.46925 11.3265 4.28064 11.7302C4.09203 12.1338 3.99563 12.5744 3.99844 13.0199C4.00124 13.4654 4.10318 13.9048 4.29686 14.306L4.39986 14.499C4.46566 14.6127 4.50842 14.7382 4.52571 14.8683C4.54299 14.9985 4.53447 15.1308 4.50062 15.2577C4.46678 15.3846 4.40827 15.5036 4.32844 15.6079C4.24861 15.7122 4.14902 15.7997 4.03536 15.8655C3.80582 15.9984 3.53289 16.0346 3.27662 15.9663C3.02035 15.8979 2.80174 15.7305 2.66886 15.501C2.31657 14.8913 2.09702 14.2142 2.02458 13.5138C1.95214 12.8134 2.02844 12.1056 2.2485 11.4367C2.46856 10.7679 2.8274 10.1531 3.30154 9.6325C3.77567 9.11194 4.35441 8.69739 4.99986 8.416C5.02195 6.70669 5.71651 5.07489 6.93311 3.87401C8.14971 2.67313 9.79041 1.99986 11.4999 2Z" fill="currentColor"/>
</svg>
