<svg width="24" height="24" viewBox="0 0 24 24" fill="none" xmlns="http://www.w3.org/2000/svg">
<path d="M11.9995 19C12.2647 19 12.5191 19.1054 12.7066 19.2929C12.8941 19.4804 12.9995 19.7348 12.9995 20V21C12.9995 21.2652 12.8941 21.5196 12.7066 21.7071C12.5191 21.8946 12.2647 22 11.9995 22C11.7343 22 11.4799 21.8946 11.2924 21.7071C11.1048 21.5196 10.9995 21.2652 10.9995 21V20C10.9995 19.7348 11.1048 19.4804 11.2924 19.2929C11.4799 19.1054 11.7343 19 11.9995 19ZM14.9995 17C15.2444 17 15.4808 17.09 15.6639 17.2527C15.8469 17.4155 15.9638 17.6397 15.9925 17.883L15.9995 18V19C15.9992 19.2549 15.9016 19.5 15.7266 19.6854C15.5517 19.8707 15.3125 19.9822 15.0581 19.9972C14.8036 20.0121 14.5531 19.9293 14.3576 19.7657C14.1622 19.6021 14.0366 19.3701 14.0065 19.117L13.9995 19V18C13.9995 17.7348 14.1048 17.4804 14.2924 17.2929C14.4799 17.1054 14.7343 17 14.9995 17ZM8.99948 17C9.2647 17 9.51905 17.1054 9.70659 17.2929C9.89412 17.4804 9.99948 17.7348 9.99948 18V19C9.99948 19.2652 9.89412 19.5196 9.70659 19.7071C9.51905 19.8946 9.2647 20 8.99948 20C8.73426 20 8.47991 19.8946 8.29237 19.7071C8.10484 19.5196 7.99948 19.2652 7.99948 19V18C7.99948 17.7348 8.10484 17.4804 8.29237 17.2929C8.47991 17.1054 8.73426 17 8.99948 17ZM11.9995 15C12.2647 15 12.5191 15.1054 12.7066 15.2929C12.8941 15.4804 12.9995 15.7348 12.9995 16V17C12.9995 17.2652 12.8941 17.5196 12.7066 17.7071C12.5191 17.8946 12.2647 18 11.9995 18C11.7343 18 11.4799 17.8946 11.2924 17.7071C11.1048 17.5196 10.9995 17.2652 10.9995 17V16C10.9995 15.7348 11.1048 15.4804 11.2924 15.2929C11.4799 15.1054 11.7343 15 11.9995 15ZM11.4995 2C12.8219 1.99987 14.1129 2.40298 15.2003 3.15554C16.2877 3.9081 17.1197 4.97433 17.5855 6.212C18.6677 6.50933 19.6449 7.10414 20.4061 7.9289C21.1673 8.75366 21.6819 9.77533 21.8917 10.8779C22.1014 11.9804 21.9978 13.1197 21.5926 14.1664C21.1875 15.213 20.4969 16.1251 19.5995 16.799C19.4948 16.8811 19.3748 16.9414 19.2465 16.9765C19.1183 17.0116 18.9843 17.0208 18.8524 17.0035C18.7205 16.9862 18.5934 16.9427 18.4786 16.8757C18.3637 16.8087 18.2633 16.7194 18.1834 16.6131C18.1034 16.5068 18.0455 16.3857 18.0129 16.2567C17.9804 16.1277 17.9739 15.9936 17.9938 15.8621C18.0138 15.7306 18.0597 15.6044 18.1291 15.4909C18.1984 15.3774 18.2896 15.2788 18.3975 15.201C19.0241 14.7309 19.4989 14.0871 19.763 13.3496C20.0271 12.6121 20.0689 11.8132 19.8832 11.0522C19.6975 10.2911 19.2925 9.60132 18.7183 9.06835C18.1442 8.53538 17.4262 8.18268 16.6535 8.054C16.4624 8.02235 16.2844 7.93642 16.1408 7.80646C15.9972 7.6765 15.894 7.50798 15.8435 7.321C15.5492 6.22382 14.8508 5.27854 13.8885 4.67487C12.9262 4.07119 11.7712 3.85379 10.6553 4.06629C9.53942 4.27879 8.54516 4.90547 7.87209 5.82056C7.19902 6.73565 6.89694 7.87144 7.02648 9C7.05307 9.24288 6.99072 9.48716 6.85097 9.68758C6.71123 9.888 6.50357 10.031 6.26648 10.09C5.68729 10.2362 5.16489 10.5519 4.76612 10.9967C4.36735 11.4415 4.11034 11.9951 4.02798 12.5868C3.94562 13.1784 4.04165 13.7812 4.30379 14.318C4.56592 14.8548 4.98224 15.3012 5.49948 15.6C5.61696 15.6637 5.72047 15.7504 5.80389 15.8548C5.88732 15.9593 5.94895 16.0794 5.98516 16.208C6.02137 16.3367 6.03142 16.4713 6.01471 16.6039C5.99801 16.7366 5.95488 16.8645 5.88789 16.9801C5.8209 17.0958 5.7314 17.1969 5.62468 17.2773C5.51797 17.3578 5.3962 17.4161 5.26657 17.4487C5.13695 17.4813 5.0021 17.4876 4.87001 17.4672C4.73791 17.4468 4.61124 17.4002 4.49748 17.33C3.6962 16.8672 3.03904 16.1912 2.59916 15.3771C2.15928 14.5631 1.95393 13.6429 2.00596 12.719C2.05799 11.7952 2.36537 10.9039 2.89388 10.1444C3.42239 9.38483 4.1513 8.78686 4.99948 8.417C5.02131 6.70752 5.71576 5.07546 6.93238 3.87437C8.14901 2.67327 9.78986 1.99986 11.4995 2ZM8.99948 13C9.2647 13 9.51905 13.1054 9.70659 13.2929C9.89412 13.4804 9.99948 13.7348 9.99948 14V15C9.99948 15.2652 9.89412 15.5196 9.70659 15.7071C9.51905 15.8946 9.2647 16 8.99948 16C8.73426 16 8.47991 15.8946 8.29237 15.7071C8.10484 15.5196 7.99948 15.2652 7.99948 15V14C7.99948 13.7348 8.10484 13.4804 8.29237 13.2929C8.47991 13.1054 8.73426 13 8.99948 13ZM14.9995 13C15.2444 13 15.4808 13.09 15.6639 13.2527C15.8469 13.4155 15.9638 13.6397 15.9925 13.883L15.9995 14V15C15.9992 15.2549 15.9016 15.5 15.7266 15.6854C15.5517 15.8707 15.3125 15.9822 15.0581 15.9972C14.8036 16.0121 14.5531 15.9293 14.3576 15.7657C14.1622 15.6021 14.0366 15.3701 14.0065 15.117L13.9995 15V14C13.9995 13.7348 14.1048 13.4804 14.2924 13.2929C14.4799 13.1054 14.7343 13 14.9995 13Z" fill="currentColor"/>
</svg>
