<svg width="24" height="24" viewBox="0 0 24 24" fill="none" xmlns="http://www.w3.org/2000/svg">
<path d="M12.582 3.48903C14.141 2.29603 15.978 1.59503 17.5 2.47403C19.022 3.35203 19.334 5.29403 19.08 7.24003C19.05 7.48103 19.009 7.72903 18.959 7.98203C19.203 8.06603 19.439 8.15503 19.662 8.24803C21.474 9.00203 23 10.243 23 12C23 13.757 21.474 14.998 19.662 15.752C19.438 15.845 19.203 15.934 18.959 16.018C19.009 16.271 19.049 16.518 19.08 16.76C19.334 18.706 19.022 20.648 17.5 21.526C15.979 22.405 14.14 21.704 12.582 20.512C12.383 20.3593 12.1889 20.2002 12 20.035C11.805 20.205 11.611 20.364 11.418 20.512C9.86 21.704 8.022 22.405 6.5 21.526C4.979 20.648 4.667 18.706 4.92 16.76C4.95277 16.5115 4.99346 16.264 5.042 16.018C4.797 15.934 4.562 15.845 4.338 15.752C2.526 14.998 1 13.757 1 12C1 10.243 2.526 9.00203 4.338 8.24803C4.562 8.15503 4.798 8.06603 5.042 7.98203C4.992 7.72903 4.952 7.48203 4.92 7.24003C4.667 5.29403 4.979 3.35203 6.5 2.47403C8.022 1.59503 9.86 2.29603 11.418 3.48903C11.611 3.63603 11.805 3.79503 12 3.96503C12.195 3.79503 12.39 3.63603 12.582 3.48903ZM6.98 16.537C6.95 16.702 6.925 16.863 6.904 17.018C6.671 18.811 7.11 19.568 7.501 19.794C7.893 20.02 8.768 20.022 10.204 18.924C10.3329 18.825 10.4593 18.7226 10.583 18.617C10.0897 18.0578 9.62547 17.4737 9.192 16.867C8.44951 16.7949 7.71121 16.6847 6.98 16.537ZM17.023 16.537C16.333 16.677 15.595 16.789 14.811 16.867C14.351 17.507 13.886 18.091 13.42 18.617C13.547 18.726 13.674 18.827 13.798 18.923C15.234 20.022 16.11 20.02 16.501 19.794C16.893 19.568 17.331 18.811 17.098 17.018C17.0771 16.8571 17.0521 16.6967 17.023 16.537ZM12 9.00003C11.408 9.00003 10.84 9.01803 10.298 9.05103C9.998 9.50403 9.698 9.98803 9.402 10.501C9.11773 10.9927 8.8486 11.4929 8.595 12.001C8.837 12.487 9.106 12.987 9.402 13.5C9.698 14.013 9.997 14.496 10.298 14.95C11.432 15.0169 12.569 15.0169 13.703 14.95C14.003 14.496 14.303 14.013 14.598 13.5C14.8826 13.0084 15.1521 12.5082 15.406 12C15.1521 11.4919 14.8826 10.9917 14.598 10.5C14.3146 10.008 14.0161 9.52476 13.703 9.05103C13.136 9.01679 12.5681 8.99978 12 9.00003ZM5.56 9.92003C5.40724 9.9746 5.25586 10.0329 5.106 10.095C3.436 10.789 3 11.548 3 12C3 12.452 3.437 13.211 5.106 13.905C5.251 13.965 5.403 14.024 5.56 14.08C5.79794 13.3731 6.07196 12.6789 6.381 12C6.07232 11.3212 5.79763 10.6269 5.56 9.92003ZM18.44 9.92003C18.2024 10.6269 17.9287 11.3212 17.62 12C17.944 12.717 18.218 13.413 18.44 14.08C18.5928 14.0255 18.7442 13.9672 18.894 13.905C20.564 13.211 21 12.452 21 12C21 11.548 20.564 10.79 18.894 10.095C18.7442 10.0328 18.5928 9.97448 18.44 9.92003ZM12 10.5C12.3978 10.5 12.7794 10.6581 13.0607 10.9394C13.342 11.2207 13.5 11.6022 13.5 12C13.5 12.3979 13.342 12.7794 13.0607 13.0607C12.7794 13.342 12.3978 13.5 12 13.5C11.6022 13.5 11.2206 13.342 10.9393 13.0607C10.658 12.7794 10.5 12.3979 10.5 12C10.5 11.6022 10.658 11.2207 10.9393 10.9394C11.2206 10.6581 11.6022 10.5 12 10.5ZM7.5 4.20603C7.109 4.43203 6.67 5.18903 6.903 6.98203C6.923 7.13803 6.949 7.29803 6.979 7.46303C7.668 7.32303 8.407 7.21103 9.191 7.13303C9.62436 6.52624 10.0886 5.94213 10.582 5.38303C10.4583 5.27785 10.3319 5.17581 10.203 5.07703C8.767 3.97803 7.892 3.98003 7.5 4.20603ZM16.5 4.20603C16.109 3.98003 15.233 3.97903 13.797 5.07703C13.6684 5.1758 13.5424 5.27783 13.419 5.38303C13.885 5.90903 14.351 6.49403 14.809 7.13303C15.593 7.21103 16.333 7.32303 17.022 7.46303C17.0511 7.30369 17.0761 7.14364 17.097 6.98303C17.331 5.19003 16.892 4.43203 16.5 4.20603Z" fill="currentColor"/>
</svg>
