<svg width="24" height="24" viewBox="0 0 24 24" fill="none" xmlns="http://www.w3.org/2000/svg">
<path d="M10.625 10.22C10.8319 10.3857 10.9646 10.6268 10.9938 10.8902C11.0231 11.1537 10.9465 11.418 10.781 11.625L10.548 11.916C10.2354 12.3066 10.0681 12.7937 10.0747 13.2939C10.0812 13.7942 10.2612 14.2767 10.584 14.659L10.707 14.793C11.4308 15.5169 11.8624 16.4822 11.919 17.5043C11.9757 18.5265 11.6534 19.5336 11.014 20.333L10.781 20.625C10.6989 20.7276 10.5975 20.813 10.4824 20.8763C10.3673 20.9396 10.2409 20.9797 10.1103 20.9942C9.97975 21.0087 9.84762 20.9973 9.72145 20.9607C9.59529 20.9241 9.47756 20.8631 9.375 20.781C9.27244 20.6989 9.18705 20.5975 9.1237 20.4824C9.06035 20.3673 9.02029 20.2409 9.00581 20.1103C8.99132 19.9798 9.00269 19.8476 9.03927 19.7215C9.07585 19.5953 9.13692 19.4776 9.219 19.375L9.452 19.084C9.76461 18.6934 9.93191 18.2063 9.92535 17.7061C9.91878 17.2058 9.73875 16.7233 9.416 16.341L9.293 16.207C8.56915 15.4831 8.13763 14.5178 8.08099 13.4957C8.02434 12.4735 8.34657 11.4664 8.986 10.667L9.219 10.375C9.30105 10.2724 9.40252 10.187 9.51759 10.1236C9.63267 10.0602 9.75911 10.0202 9.88968 10.0057C10.0202 9.9912 10.1524 10.0026 10.2786 10.0392C10.4047 10.0758 10.5225 10.1369 10.625 10.219V10.22ZM14.625 10.22C14.8319 10.3857 14.9646 10.6268 14.9938 10.8902C15.0231 11.1537 14.9465 11.418 14.781 11.625L14.548 11.916C14.2354 12.3066 14.0681 12.7937 14.0747 13.2939C14.0812 13.7942 14.2612 14.2767 14.584 14.659L14.707 14.793C15.4308 15.5169 15.8624 16.4822 15.919 17.5043C15.9757 18.5265 15.6534 19.5336 15.014 20.333L14.781 20.625C14.6989 20.7276 14.5975 20.813 14.4824 20.8763C14.3673 20.9396 14.2409 20.9797 14.1103 20.9942C13.9797 21.0087 13.8476 20.9973 13.7215 20.9607C13.5953 20.9241 13.4776 20.8631 13.375 20.781C13.2724 20.6989 13.187 20.5975 13.1237 20.4824C13.0604 20.3673 13.0203 20.2409 13.0058 20.1103C12.9913 19.9798 13.0027 19.8476 13.0393 19.7215C13.0759 19.5953 13.1369 19.4776 13.219 19.375L13.452 19.084C13.7646 18.6934 13.9319 18.2063 13.9253 17.7061C13.9188 17.2058 13.7388 16.7233 13.416 16.341L13.293 16.207C12.5692 15.4831 12.1376 14.5178 12.081 13.4957C12.0243 12.4735 12.3466 11.4664 12.986 10.667L13.219 10.375C13.3011 10.2724 13.4025 10.187 13.5176 10.1236C13.6327 10.0602 13.7591 10.0202 13.8897 10.0057C14.0202 9.9912 14.1524 10.0026 14.2786 10.0392C14.4047 10.0758 14.5225 10.1369 14.625 10.219V10.22ZM19 4C19.7652 3.99996 20.5015 4.29233 21.0583 4.81728C21.615 5.34224 21.9501 6.06011 21.995 6.824L22 7V14C22 14.7652 21.7077 15.5015 21.1827 16.0583C20.6578 16.615 19.9399 16.9501 19.176 16.995L19 17H18C17.7451 16.9997 17.5 16.9021 17.3146 16.7272C17.1293 16.5522 17.0178 16.313 17.0028 16.0586C16.9879 15.8042 17.0707 15.5536 17.2343 15.3582C17.3979 15.1627 17.6299 15.0371 17.883 15.007L18 15H19C19.2449 15 19.4813 14.91 19.6644 14.7473C19.8474 14.5845 19.9643 14.3603 19.993 14.117L20 14V7C20 6.75507 19.91 6.51866 19.7473 6.33563C19.5845 6.15259 19.3603 6.03566 19.117 6.007L19 6H5C4.75507 6.00003 4.51866 6.08996 4.33563 6.25272C4.15259 6.41547 4.03566 6.63975 4.007 6.883L4 7V14C4.00003 14.2449 4.08996 14.4813 4.25272 14.6644C4.41547 14.8474 4.63975 14.9643 4.883 14.993L5 15H6C6.25488 15.0003 6.50003 15.0979 6.68537 15.2728C6.8707 15.4478 6.98223 15.687 6.99717 15.9414C7.01211 16.1958 6.92933 16.4464 6.76574 16.6418C6.60214 16.8373 6.3701 16.9629 6.117 16.993L6 17H5C4.23479 17 3.49849 16.7077 2.94174 16.1827C2.38499 15.6578 2.04989 14.9399 2.005 14.176L2 14V7C1.99996 6.23479 2.29233 5.49849 2.81728 4.94174C3.34224 4.38499 4.06011 4.04989 4.824 4.005L5 4H19Z" fill="currentColor"/>
</svg>
