<svg width="24" height="24" viewBox="0 0 24 24" fill="none" xmlns="http://www.w3.org/2000/svg">
<path d="M18.7632 14.214C18.9754 14.0914 19.2252 14.0509 19.4652 14.1003C19.7052 14.1497 19.9187 14.2855 20.0652 14.482L20.1292 14.58L21.5262 17C22.2712 18.29 21.3942 19.893 19.9412 19.995L19.7942 20H13.4142L13.8292 20.414C14.0105 20.5935 14.1162 20.8356 14.1249 21.0905C14.1335 21.3455 14.0444 21.5942 13.8757 21.7856C13.7071 21.977 13.4716 22.0967 13.2176 22.1202C12.9635 22.1437 12.7101 22.0692 12.5092 21.912L12.4142 21.828L10.2992 19.713C10.2204 19.6351 10.1549 19.545 10.1052 19.446C10.0185 19.2736 9.98375 19.0798 10.0052 18.888C10.0267 18.6963 10.1035 18.5149 10.2262 18.366L10.2622 18.326L12.4142 16.172C12.5937 15.9907 12.8358 15.885 13.0907 15.8763C13.3457 15.8677 13.5944 15.9568 13.7858 16.1255C13.9772 16.2941 14.0969 16.5296 14.1204 16.7836C14.1439 17.0376 14.0694 17.2911 13.9122 17.492L13.8292 17.586L13.4142 18H19.7942L18.3972 15.58C18.2646 15.3503 18.2287 15.0774 18.2973 14.8212C18.3659 14.565 18.5335 14.3466 18.7632 14.214ZM8.7032 9.62499L9.4802 12.523C9.54889 12.7792 9.513 13.0522 9.38041 13.2819C9.24782 13.5116 9.0294 13.6793 8.7732 13.748C8.517 13.8167 8.24401 13.7808 8.01428 13.6482C7.78454 13.5156 7.61689 13.2972 7.5482 13.041L7.3962 12.475L4.2062 18H7.0002C7.26542 18 7.51977 18.1053 7.70731 18.2929C7.89484 18.4804 8.0002 18.7348 8.0002 19C8.0002 19.2652 7.89484 19.5196 7.70731 19.7071C7.51977 19.8946 7.26542 20 7.0002 20H4.2062C2.6662 20 1.7042 18.333 2.4742 17L5.6642 11.475L5.0982 11.626C4.84246 11.6931 4.57054 11.6563 4.34191 11.5235C4.11327 11.3907 3.94655 11.1727 3.8782 10.9173C3.80985 10.6619 3.84544 10.3898 3.97718 10.1605C4.10893 9.93127 4.3261 9.76353 4.5812 9.69399L7.4782 8.91799C7.60506 8.88396 7.73738 8.87525 7.8676 8.89237C7.99782 8.90948 8.12339 8.95208 8.23715 9.01774C8.35091 9.08339 8.45061 9.17081 8.53058 9.275C8.61055 9.3792 8.6692 9.49812 8.7032 9.62499ZM13.6452 3.36199L13.7322 3.49999L16.9222 9.02499L17.0742 8.45899C17.1408 8.21315 17.2987 8.00198 17.5157 7.86859C17.7327 7.73519 17.9924 7.68962 18.2418 7.74116C18.4912 7.79271 18.7116 7.93749 18.8579 8.14596C19.0042 8.35443 19.0655 8.61088 19.0292 8.86299L19.0062 8.97699L18.2292 11.875C18.167 12.1102 18.0209 12.3144 17.8184 12.4493C17.616 12.5841 17.3712 12.6402 17.1302 12.607L17.0052 12.582L14.1072 11.806C13.8597 11.7409 13.6467 11.5834 13.5118 11.366C13.3769 11.1486 13.3305 10.8877 13.3821 10.6371C13.4338 10.3865 13.5795 10.1652 13.7893 10.0188C13.9992 9.87236 14.2572 9.81196 14.5102 9.84999L14.6242 9.87399L15.1902 10.025L12.0002 4.49999L10.6032 6.91999C10.4765 7.14259 10.2691 7.30807 10.024 7.3823C9.7788 7.45653 9.5145 7.43385 9.28557 7.31893C9.05664 7.20402 8.88053 7.00563 8.79357 6.76469C8.70661 6.52375 8.71543 6.25862 8.8182 6.02399L8.8712 5.91999L10.2682 3.49999C10.9832 2.26199 12.6932 2.17299 13.5502 3.23499L13.6452 3.36199Z" fill="currentColor"/>
</svg>
