<svg width="24" height="24" viewBox="0 0 24 24" fill="none" xmlns="http://www.w3.org/2000/svg">
<path fill-rule="evenodd" clip-rule="evenodd" d="M4 5C4 4.20435 4.31607 3.44129 4.87868 2.87868C5.44129 2.31607 6.20435 2 7 2H17C17.7956 2 18.5587 2.31607 19.1213 2.87868C19.6839 3.44129 20 4.20435 20 5V19C20 19.7956 19.6839 20.5587 19.1213 21.1213C18.5587 21.6839 17.7956 22 17 22H7C6.20435 22 5.44129 21.6839 4.87868 21.1213C4.31607 20.5587 4 19.7956 4 19V5ZM7 4C6.77508 3.99994 6.5567 4.0757 6.38015 4.21506C6.2036 4.35441 6.07918 4.54921 6.027 4.768L6.8 6.056C7.33893 6.95377 8.10112 7.69671 9.01237 8.21252C9.92362 8.72833 10.9529 8.99943 12 8.99943C13.0471 8.99943 14.0764 8.72833 14.9876 8.21252C15.8989 7.69671 16.6611 6.95377 17.2 6.056L17.973 4.768C17.9208 4.54921 17.7964 4.35441 17.6199 4.21506C17.4433 4.0757 17.2249 3.99994 17 4H7ZM6 19V8.324C7.18297 9.64115 8.76633 10.5326 10.506 10.861C10.4866 11.0688 10.5108 11.2784 10.577 11.4764C10.6432 11.6744 10.75 11.8563 10.8906 12.0106C11.0312 12.1649 11.2024 12.2882 11.3934 12.3726C11.5843 12.4569 11.7908 12.5005 11.9995 12.5005C12.2082 12.5005 12.4147 12.4569 12.6056 12.3726C12.7966 12.2882 12.9678 12.1649 13.1084 12.0106C13.249 11.8563 13.3558 11.6744 13.422 11.4764C13.4882 11.2784 13.5124 11.0688 13.493 10.861C15.233 10.5328 16.8168 9.64134 18 8.324V19C18 19.2652 17.8946 19.5196 17.7071 19.7071C17.5196 19.8946 17.2652 20 17 20H7C6.73478 20 6.48043 19.8946 6.29289 19.7071C6.10536 19.5196 6 19.2652 6 19Z" fill="currentColor"/>
</svg>
