<svg width="24" height="24" viewBox="0 0 24 24" fill="none" xmlns="http://www.w3.org/2000/svg">
<path d="M12 2C17.523 2 22 6.477 22 12C22 17.523 17.523 22 12 22C6.477 22 2 17.523 2 12C2 6.477 6.477 2 12 2ZM12 4C9.87827 4 7.84344 4.84285 6.34315 6.34315C4.84285 7.84344 4 9.87827 4 12C4 14.1217 4.84285 16.1566 6.34315 17.6569C7.84344 19.1571 9.87827 20 12 20C14.1217 20 16.1566 19.1571 17.6569 17.6569C19.1571 16.1566 20 14.1217 20 12C20 9.87827 19.1571 7.84344 17.6569 6.34315C16.1566 4.84285 14.1217 4 12 4ZM15 6C15.1839 6.00011 15.3642 6.05093 15.5211 6.14687C15.678 6.24281 15.8054 6.38017 15.8893 6.54382C15.9732 6.70748 16.0103 6.8911 15.9966 7.0745C15.9829 7.25789 15.9189 7.43396 15.8117 7.58333C15.7044 7.73271 15.558 7.84961 15.3886 7.92117C15.2192 7.99274 15.0333 8.01621 14.8514 7.98899C14.6695 7.96177 14.4987 7.88492 14.3576 7.7669C14.2166 7.64887 14.1109 7.49424 14.052 7.32L12.92 7.094L12.644 9.025C13.959 9.129 15.168 9.548 16.109 10.205C16.301 10.341 16.484 10.487 16.656 10.645C17.0115 10.471 17.4214 10.4445 17.7963 10.5713C18.1712 10.6982 18.4808 10.9681 18.6576 11.3222C18.8344 11.6763 18.8641 12.086 18.7401 12.4619C18.6162 12.8378 18.3487 13.1495 17.996 13.329L18 13.5C18 14.882 17.198 16.032 16.109 16.794C15.017 17.56 13.561 18 12 18C10.44 18 8.983 17.559 7.891 16.794C6.801 16.032 6 14.882 6 13.5L6.004 13.33C5.64795 13.1523 5.37707 12.8404 5.25095 12.463C5.12483 12.0856 5.15381 11.6736 5.3315 11.3175C5.5092 10.9614 5.82105 10.6906 6.19847 10.5644C6.57589 10.4383 6.98795 10.4673 7.344 10.645C7.515 10.487 7.699 10.341 7.891 10.205C8.898 9.501 10.214 9.071 11.637 9.008L12.005 6.429C12.0146 6.36165 12.0378 6.29697 12.0732 6.2389C12.1086 6.18083 12.1555 6.1306 12.211 6.09128C12.2666 6.05197 12.3295 6.02439 12.396 6.01024C12.4626 5.99609 12.5313 5.99567 12.598 6.009L14.248 6.339C14.3419 6.23216 14.4576 6.14664 14.5873 6.08817C14.717 6.0297 14.8577 5.99964 15 6ZM12 11C10.8 11 9.755 11.342 9.038 11.844C8.318 12.35 8 12.95 8 13.5C8 14.05 8.318 14.651 9.038 15.156C9.755 15.658 10.799 16 12 16C13.2 16 14.245 15.658 14.962 15.156C15.682 14.65 16 14.05 16 13.5C16 12.95 15.682 12.349 14.962 11.844C14.245 11.342 13.201 11 12 11ZM10 12C10.2652 12 10.5196 12.1054 10.7071 12.2929C10.8946 12.4804 11 12.7348 11 13C11 13.2652 10.8946 13.5196 10.7071 13.7071C10.5196 13.8946 10.2652 14 10 14C9.73478 14 9.48043 13.8946 9.29289 13.7071C9.10536 13.5196 9 13.2652 9 13C9 12.7348 9.10536 12.4804 9.29289 12.2929C9.48043 12.1054 9.73478 12 10 12ZM14 12C14.2652 12 14.5196 12.1054 14.7071 12.2929C14.8946 12.4804 15 12.7348 15 13C15 13.2652 14.8946 13.5196 14.7071 13.7071C14.5196 13.8946 14.2652 14 14 14C13.7348 14 13.4804 13.8946 13.2929 13.7071C13.1054 13.5196 13 13.2652 13 13C13 12.7348 13.1054 12.4804 13.2929 12.2929C13.4804 12.1054 13.7348 12 14 12Z" fill="currentColor"/>
</svg>
