<svg width="24" height="24" viewBox="0 0 24 24" fill="none" xmlns="http://www.w3.org/2000/svg">
<path d="M2.00003 12.0799C1.99403 11.2179 2.91003 10.7239 3.61803 11.1049L3.71303 11.1629L6.39103 12.9669C7.36303 13.6219 6.76803 15.1099 5.65703 14.9739L5.54003 14.9539L4.47703 14.7199C5.01733 16.2148 5.99057 17.5149 7.27267 18.4544C8.55477 19.3939 10.0876 19.9303 11.6758 19.9953C13.264 20.0602 14.8355 19.6506 16.19 18.8188C17.5445 17.987 18.6206 16.7707 19.281 15.3249C19.3946 15.0896 19.5957 14.908 19.8415 14.8191C20.0872 14.7301 20.358 14.7409 20.5958 14.8492C20.8337 14.9574 21.0198 15.1544 21.1142 15.3981C21.2086 15.6418 21.2039 15.9127 21.101 16.1529C19.114 20.5229 14.205 22.9459 9.41403 21.6619C7.30026 21.0956 5.43051 19.8518 4.09137 18.1211C2.75223 16.3903 2.01758 14.2682 2.00003 12.0799ZM2.90303 7.85195C4.89003 3.48195 9.79903 1.05995 14.59 2.34295C16.7037 2.90907 18.5734 4.15273 19.9126 5.88329C21.2517 7.61386 21.9864 9.73583 22.004 11.9239C22.011 12.7869 21.094 13.2819 20.387 12.8999L20.291 12.8419L17.613 11.0379C16.641 10.3829 17.236 8.89495 18.347 9.03095L18.464 9.05095L19.527 9.28495C18.9867 7.7901 18.0135 6.49003 16.7314 5.55049C15.4493 4.61096 13.9164 4.07455 12.3283 4.00964C10.7401 3.94474 9.16856 4.35429 7.81408 5.18607C6.45959 6.01785 5.3835 7.23417 4.72303 8.67995C4.6706 8.80241 4.59424 8.91316 4.49841 9.0057C4.40259 9.09824 4.28925 9.1707 4.16504 9.21883C4.04082 9.26696 3.90825 9.28979 3.77509 9.28597C3.64193 9.28216 3.51088 9.25178 3.38963 9.19661C3.26838 9.14145 3.15937 9.06262 3.069 8.96474C2.97864 8.86687 2.90874 8.75192 2.86341 8.62666C2.81808 8.5014 2.79823 8.36834 2.80504 8.23531C2.81184 8.10227 2.84516 7.97193 2.90303 7.85195Z" fill="currentColor"/>
</svg>
