<svg width="24" height="24" viewBox="0 0 24 24" fill="none" xmlns="http://www.w3.org/2000/svg">
<path d="M4 9.00003C4.26522 9.00003 4.51957 9.10539 4.70711 9.29292C4.89464 9.48046 5 9.73481 5 10V11C5 12.5913 5.63214 14.1175 6.75736 15.2427C7.88258 16.3679 9.4087 17 11 17H14.586L13.793 16.207C13.6108 16.0184 13.51 15.7658 13.5123 15.5036C13.5146 15.2414 13.6198 14.9906 13.8052 14.8052C13.9906 14.6198 14.2414 14.5146 14.5036 14.5124C14.7658 14.5101 15.0184 14.6109 15.207 14.793L17.707 17.293C17.8578 17.4431 17.9563 17.6377 17.988 17.848L18 18.01C17.9976 18.2738 17.8908 18.5259 17.703 18.711L15.207 21.207C15.0184 21.3892 14.7658 21.49 14.5036 21.4877C14.2414 21.4854 13.9906 21.3803 13.8052 21.1948C13.6198 21.0094 13.5146 20.7586 13.5123 20.4964C13.51 20.2342 13.6108 19.9816 13.793 19.793L14.586 19H11C8.87827 19 6.84344 18.1572 5.34315 16.6569C3.84285 15.1566 3 13.1218 3 11V10C3 9.73481 3.10536 9.48046 3.29289 9.29292C3.48043 9.10539 3.73478 9.00003 4 9.00003ZM19 7.00003C19.1871 7.00003 19.3704 7.05251 19.5292 7.1515C19.6879 7.25049 19.8157 7.39203 19.898 7.56003L19.946 7.67703L20.076 8.05503C20.2132 8.45721 20.4343 8.82566 20.7246 9.13597C21.0149 9.44628 21.3678 9.69138 21.76 9.85503L21.945 9.92503L22.323 10.054C22.5102 10.1179 22.6742 10.2358 22.7944 10.3929C22.9146 10.55 22.9854 10.7392 22.9981 10.9366C23.0107 11.134 22.9645 11.3307 22.8654 11.5018C22.7662 11.6729 22.6185 11.8108 22.441 11.898L22.323 11.946L21.945 12.076C21.5428 12.2132 21.1744 12.4343 20.8641 12.7246C20.5537 13.0149 20.3086 13.3679 20.145 13.76L20.075 13.945L19.946 14.323C19.8821 14.5102 19.7642 14.6743 19.6071 14.7944C19.45 14.9146 19.2608 14.9855 19.0634 14.9981C18.866 15.0107 18.6693 14.9645 18.4982 14.8654C18.3271 14.7662 18.1892 14.6186 18.102 14.441L18.054 14.323L17.924 13.945C17.7868 13.5428 17.5657 13.1744 17.2754 12.8641C16.9851 12.5538 16.6322 12.3087 16.24 12.145L16.055 12.075L15.677 11.946C15.4898 11.8822 15.3258 11.7642 15.2056 11.6071C15.0854 11.45 15.0146 11.2608 15.0019 11.0635C14.9893 10.8661 15.0355 10.6694 15.1346 10.4982C15.2338 10.3271 15.3815 10.1892 15.559 10.102L15.677 10.054L16.055 9.92403C16.4572 9.78683 16.8256 9.56575 17.1359 9.27544C17.4463 8.98512 17.6913 8.6322 17.855 8.24003L17.925 8.05503L18.054 7.67703C18.1214 7.47962 18.2488 7.30822 18.4184 7.18682C18.5881 7.06542 18.7914 7.00011 19 7.00003ZM19 10.196C18.7634 10.4937 18.4937 10.7634 18.196 11C18.494 11.236 18.763 11.506 19 11.804C19.236 11.506 19.506 11.236 19.804 11C19.5063 10.7634 19.2366 10.4937 19 10.196ZM10.207 2.79303C10.3945 2.98056 10.4998 3.23487 10.4998 3.50003C10.4998 3.76519 10.3945 4.0195 10.207 4.20703L9.414 5.00003H13C14.225 5.00003 15.389 5.27603 16.43 5.77003C16.5486 5.8265 16.655 5.90578 16.743 6.00336C16.831 6.10093 16.899 6.21489 16.9429 6.33872C16.9869 6.46254 17.006 6.59382 16.9993 6.72504C16.9925 6.85627 16.96 6.98488 16.9035 7.10353C16.847 7.22218 16.7677 7.32855 16.6702 7.41655C16.5726 7.50456 16.4586 7.57249 16.3348 7.61646C16.0847 7.70526 15.8096 7.69107 15.57 7.57703C14.767 7.19582 13.8889 6.99869 13 7.00003H9.414L10.207 7.79303C10.3892 7.98163 10.49 8.23423 10.4877 8.49643C10.4854 8.75863 10.3802 9.00944 10.1948 9.19485C10.0094 9.38026 9.7586 9.48543 9.4964 9.4877C9.2342 9.48998 8.9816 9.38919 8.793 9.20703L6.293 6.70703C6.10553 6.5195 6.00021 6.26519 6.00021 6.00003C6.00021 5.73487 6.10553 5.48056 6.293 5.29303L8.793 2.79303C8.98053 2.60556 9.23484 2.50024 9.5 2.50024C9.76516 2.50024 10.0195 2.60556 10.207 2.79303Z" fill="currentColor"/>
</svg>
