<svg width="24" height="24" viewBox="0 0 24 24" fill="none" xmlns="http://www.w3.org/2000/svg">
<path fill-rule="evenodd" clip-rule="evenodd" d="M14.0701 19.727C12.3191 20.1961 10.4606 20.0568 8.7991 19.332C7.13756 18.6071 5.77133 17.3396 4.92408 15.737C4.80036 15.5023 4.58846 15.3264 4.33501 15.2479C4.08155 15.1694 3.8073 15.1948 3.57258 15.3185C3.33787 15.4423 3.16191 15.6542 3.08343 15.9076C3.00494 16.1611 3.03036 16.4353 3.15408 16.67C5.28408 20.71 9.99008 22.891 14.5881 21.66C19.9231 20.23 23.0881 14.746 21.6591 9.41203C20.2291 4.07703 14.7461 0.912033 9.41208 2.34103C7.29864 2.90726 5.42914 4.1508 4.09003 5.88113C2.75092 7.61146 2.01607 9.73313 1.99808 11.921C1.99108 12.824 2.99308 13.323 3.71108 12.84L6.38408 11.039C7.39208 10.359 6.71608 8.78803 5.53008 9.05303L4.47208 9.28903C4.93845 7.99473 5.73071 6.84258 6.77234 5.94385C7.81397 5.04513 9.06977 4.43021 10.4184 4.1585C11.7671 3.88679 13.163 3.96747 14.4714 4.39275C15.7798 4.81803 16.9564 5.57353 17.8875 6.58627C18.8187 7.59902 19.4729 8.83478 19.7871 10.1742C20.1012 11.5136 20.0646 12.9114 19.6809 14.2325C19.2971 15.5537 18.5791 16.7535 17.5963 17.7162C16.6134 18.6788 15.3989 19.3718 14.0701 19.728V19.727Z" fill="currentColor"/>
</svg>
