<svg width="24" height="24" viewBox="0 0 24 24" fill="none" xmlns="http://www.w3.org/2000/svg">
<path d="M4 9.00004C4.24493 9.00007 4.48134 9.08999 4.66437 9.25275C4.84741 9.41551 4.96434 9.63979 4.993 9.88304L5 10V11C4.99994 12.5524 5.60157 14.0444 6.67847 15.1625C7.75536 16.2806 9.22371 16.9378 10.775 16.996L11 17H14.586L13.793 16.207C13.6137 16.0271 13.5095 15.7856 13.5018 15.5317C13.494 15.2777 13.5832 15.0303 13.7512 14.8398C13.9193 14.6492 14.1536 14.5297 14.4065 14.5056C14.6594 14.4815 14.912 14.5546 15.113 14.71L15.207 14.793L17.707 17.293C17.8578 17.4431 17.9563 17.6377 17.988 17.848L18 18.01C17.9982 18.2299 17.9236 18.443 17.788 18.616L17.703 18.711L15.207 21.207C15.027 21.3864 14.7856 21.4905 14.5316 21.4983C14.2777 21.506 14.0303 21.4168 13.8397 21.2488C13.6492 21.0808 13.5297 20.8465 13.5056 20.5936C13.4815 20.3406 13.5546 20.088 13.71 19.887L13.793 19.793L14.586 19H11C8.92157 19 6.92474 18.1911 5.4323 16.7446C3.93985 15.298 3.06895 13.3274 3.004 11.25L3 11V10C3 9.73482 3.10536 9.48047 3.29289 9.29293C3.48043 9.10539 3.73478 9.00004 4 9.00004ZM8.793 2.79304C8.97296 2.61369 9.21443 2.50956 9.46838 2.50181C9.72233 2.49405 9.96971 2.58325 10.1603 2.75129C10.3508 2.91932 10.4703 3.15359 10.4944 3.40651C10.5185 3.65943 10.4454 3.91205 10.29 4.11304L10.207 4.20704L9.414 5.00004H13C15.0784 5.00006 17.0753 5.80897 18.5677 7.25551C20.0602 8.70204 20.931 10.6726 20.996 12.75L21 13V14C20.9997 14.2549 20.9021 14.5001 20.7272 14.6854C20.5522 14.8707 20.313 14.9823 20.0586 14.9972C19.8042 15.0121 19.5536 14.9294 19.3582 14.7658C19.1627 14.6022 19.0371 14.3701 19.007 14.117L19 14V13C19.0001 11.4477 18.3984 9.95568 17.3215 8.83757C16.2446 7.71945 14.7763 7.06225 13.225 7.00404L13 7.00004H9.414L10.207 7.79304C10.3863 7.973 10.4905 8.21447 10.4982 8.46842C10.506 8.72237 10.4168 8.96975 10.2488 9.16032C10.0807 9.35088 9.84645 9.47034 9.59353 9.49444C9.3406 9.51853 9.08799 9.44545 8.887 9.29004L8.793 9.20704L6.293 6.70704C6.12082 6.53484 6.01739 6.30574 6.00211 6.06272C5.98683 5.81969 6.06075 5.57944 6.21 5.38704L6.293 5.29304L8.793 2.79304Z" fill="currentColor"/>
</svg>
