<svg width="24" height="24" viewBox="0 0 24 24" fill="none" xmlns="http://www.w3.org/2000/svg">
<path d="M20 9.00004C20.2652 9.00004 20.5196 9.1054 20.7071 9.29293C20.8946 9.48047 21 9.73482 21 10V11C21 13.1218 20.1571 15.1566 18.6569 16.6569C17.1566 18.1572 15.1217 19 13 19H9.414L10.207 19.793C10.3892 19.9816 10.49 20.2342 10.4877 20.4964C10.4854 20.7586 10.3802 21.0095 10.1948 21.1949C10.0094 21.3803 9.7586 21.4854 9.4964 21.4877C9.2342 21.49 8.9816 21.3892 8.793 21.207L6.297 18.711C6.14205 18.5584 6.04126 18.3593 6.01 18.144L6 17.991C6.00163 17.7571 6.08554 17.5313 6.237 17.353L6.293 17.293L8.793 14.793C8.9816 14.6109 9.2342 14.5101 9.4964 14.5124C9.7586 14.5146 10.0094 14.6198 10.1948 14.8052C10.3802 14.9906 10.4854 15.2414 10.4877 15.5036C10.49 15.7658 10.3892 16.0184 10.207 16.207L9.414 17H13C14.5913 17 16.1174 16.3679 17.2426 15.2427C18.3679 14.1175 19 12.5913 19 11V10C19 9.73482 19.1054 9.48047 19.2929 9.29293C19.4804 9.1054 19.7348 9.00004 20 9.00004ZM15.207 2.79304L17.707 5.29304C17.8945 5.48057 17.9998 5.73488 17.9998 6.00004C17.9998 6.26521 17.8945 6.51951 17.707 6.70704L15.207 9.20704C15.1148 9.30255 15.0044 9.37873 14.8824 9.43114C14.7604 9.48355 14.6292 9.51114 14.4964 9.51229C14.3636 9.51345 14.2319 9.48814 14.109 9.43786C13.9861 9.38758 13.8745 9.31333 13.7806 9.21944C13.6867 9.12554 13.6125 9.01389 13.5622 8.891C13.5119 8.7681 13.4866 8.63642 13.4877 8.50364C13.4889 8.37086 13.5165 8.23964 13.5689 8.11764C13.6213 7.99563 13.6975 7.88529 13.793 7.79304L14.586 7.00004H11C9.4087 7.00004 7.88258 7.63218 6.75736 8.7574C5.63214 9.88262 5 11.4087 5 13V14C5 14.2653 4.89464 14.5196 4.70711 14.7071C4.51957 14.8947 4.26522 15 4 15C3.73478 15 3.48043 14.8947 3.29289 14.7071C3.10536 14.5196 3 14.2653 3 14V13C3 10.8783 3.84285 8.84348 5.34315 7.34319C6.84344 5.8429 8.87827 5.00004 11 5.00004H14.586L13.793 4.20704C13.6108 4.01844 13.51 3.76584 13.5123 3.50364C13.5146 3.24144 13.6198 2.99063 13.8052 2.80522C13.9906 2.61981 14.2414 2.51465 14.5036 2.51237C14.7658 2.51009 15.0184 2.61088 15.207 2.79304Z" fill="currentColor"/>
</svg>
