<svg width="24" height="24" viewBox="0 0 24 24" fill="none" xmlns="http://www.w3.org/2000/svg">
<path d="M21.66 9.41196C23.088 14.746 19.923 20.23 14.588 21.659C9.98996 22.891 5.28396 20.709 3.15496 16.669C3.03137 16.4342 3.00608 16.16 3.08466 15.9067C3.16324 15.6533 3.33924 15.4416 3.57396 15.318C3.80868 15.1944 4.08288 15.1691 4.33624 15.2477C4.5896 15.3262 4.80137 15.5022 4.92496 15.737C5.78189 17.3595 7.17051 18.6381 8.85806 19.3585C10.5456 20.0788 12.4295 20.1972 14.194 19.6938C15.9584 19.1903 17.4962 18.0956 18.5495 16.5932C19.6028 15.0907 20.1077 13.2719 19.9794 11.4415C19.8511 9.61109 19.0975 7.88042 17.8449 6.53959C16.5923 5.19877 14.9169 4.32927 13.0994 4.07687C11.282 3.82446 9.433 4.20449 7.86244 5.15324C6.29188 6.10199 5.09518 7.5618 4.47296 9.28796L5.52996 9.05296C6.71596 8.78796 7.39196 10.359 6.38396 11.038L3.71096 12.84C2.99296 13.323 1.99096 12.824 1.99796 11.922C2.01595 9.73406 2.7508 7.61239 4.08991 5.88206C5.42901 4.15173 7.29852 2.90818 9.41196 2.34196C14.746 0.909961 20.23 4.07596 21.659 9.40996M15.6 7.19996C15.8121 7.35909 15.9524 7.59599 15.9899 7.85854C16.0274 8.12109 15.9591 8.38779 15.8 8.59996L14 11H15C15.2652 11 15.5195 11.1053 15.7071 11.2929C15.8946 11.4804 16 11.7347 16 12C16 12.2652 15.8946 12.5195 15.7071 12.7071C15.5195 12.8946 15.2652 13 15 13H13V14H15C15.2652 14 15.5195 14.1053 15.7071 14.2929C15.8946 14.4804 16 14.7347 16 15C16 15.2652 15.8946 15.5195 15.7071 15.7071C15.5195 15.8946 15.2652 16 15 16H13V17C13 17.2652 12.8946 17.5195 12.7071 17.7071C12.5195 17.8946 12.2652 18 12 18C11.7347 18 11.4804 17.8946 11.2929 17.7071C11.1053 17.5195 11 17.2652 11 17V16H8.99996C8.73475 16 8.48039 15.8946 8.29285 15.7071C8.10532 15.5195 7.99996 15.2652 7.99996 15C7.99996 14.7347 8.10532 14.4804 8.29285 14.2929C8.48039 14.1053 8.73475 14 8.99996 14H11V13H8.99996C8.73475 13 8.48039 12.8946 8.29285 12.7071C8.10532 12.5195 7.99996 12.2652 7.99996 12C7.99996 11.7347 8.10532 11.4804 8.29285 11.2929C8.48039 11.1053 8.73475 11 8.99996 11H9.99996L8.19996 8.59996C8.12117 8.4949 8.06384 8.37536 8.03125 8.24814C7.99866 8.12093 7.99144 7.98854 8.01001 7.85854C8.02858 7.72854 8.07258 7.60347 8.13949 7.49047C8.20639 7.37747 8.2949 7.27875 8.39996 7.19996C8.50502 7.12117 8.62457 7.06384 8.75178 7.03125C8.87899 6.99865 9.01138 6.99144 9.14138 7.01001C9.27138 7.02858 9.39646 7.07258 9.50946 7.13949C9.62245 7.20639 9.72117 7.2949 9.79996 7.39996L12 10.333L14.2 7.39996C14.2788 7.2949 14.3775 7.20639 14.4905 7.13949C14.6035 7.07258 14.7285 7.02858 14.8585 7.01001C14.9885 6.99144 15.1209 6.99865 15.2481 7.03125C15.3754 7.06384 15.4949 7.12117 15.6 7.19996Z" fill="currentColor"/>
</svg>
