<svg width="24" height="24" viewBox="0 0 24 24" fill="none" xmlns="http://www.w3.org/2000/svg">
<path d="M16 12C16.7957 12 17.5587 12.3161 18.1214 12.8787C18.684 13.4413 19 14.2044 19 15V21C19 21.2652 18.8947 21.5196 18.7071 21.7071C18.5196 21.8947 18.2652 22 18 22C17.7348 22 17.4805 21.8947 17.2929 21.7071C17.1054 21.5196 17 21.2652 17 21V15C17 14.7348 16.8947 14.4804 16.7071 14.2929C16.5196 14.1054 16.2652 14 16 14H8.00003C7.73481 14 7.48046 14.1054 7.29292 14.2929C7.10539 14.4804 7.00003 14.7348 7.00003 15V21C7.00003 21.2652 6.89467 21.5196 6.70714 21.7071C6.5196 21.8947 6.26525 22 6.00003 22C5.73481 22 5.48046 21.8947 5.29292 21.7071C5.10539 21.5196 5.00003 21.2652 5.00003 21V15C5.00003 14.2044 5.3161 13.4413 5.87871 12.8787C6.44132 12.3161 7.20438 12 8.00003 12H16ZM14 16C14.2549 16.0003 14.5001 16.0979 14.6854 16.2729C14.8707 16.4478 14.9823 16.687 14.9972 16.9414C15.0121 17.1958 14.9294 17.4464 14.7658 17.6418C14.6022 17.8373 14.3701 17.9629 14.117 17.993L14 18H10C9.74515 17.9997 9.5 17.9021 9.31466 17.7272C9.12933 17.5522 9.01779 17.3131 9.00286 17.0586C8.98792 16.8042 9.0707 16.5536 9.23429 16.3582C9.39788 16.1627 9.62993 16.0371 9.88303 16.007L10 16H14ZM12 8.00001C13.06 8.00001 14.047 8.33101 14.857 8.89601C15.0746 9.04771 15.2231 9.27965 15.2697 9.54079C15.3163 9.80194 15.2572 10.0709 15.1055 10.2885C14.9538 10.5061 14.7219 10.6546 14.4607 10.7012C14.1996 10.7478 13.9306 10.6887 13.713 10.537C13.2107 10.1863 12.6126 9.99881 12 10C11.361 10 10.772 10.198 10.287 10.537C10.1795 10.6153 10.0574 10.6714 9.92792 10.702C9.79844 10.7325 9.66416 10.7369 9.53295 10.7149C9.40175 10.6929 9.27625 10.645 9.16381 10.5739C9.05137 10.5027 8.95425 10.4099 8.87813 10.3008C8.80202 10.1917 8.74844 10.0685 8.72054 9.9384C8.69264 9.80832 8.69098 9.67398 8.71564 9.54325C8.74031 9.41252 8.79082 9.28802 8.86421 9.17706C8.93759 9.06609 9.03239 8.97088 9.14303 8.89701C9.98084 8.31211 10.9782 7.99896 12 8.00001ZM12 5.00001C13.918 5.00001 15.681 5.67601 17.06 6.80301C17.164 6.88538 17.2505 6.9876 17.3145 7.10372C17.3786 7.21983 17.4189 7.34753 17.4331 7.47938C17.4474 7.61122 17.4352 7.74458 17.3974 7.8717C17.3596 7.99881 17.2969 8.11714 17.213 8.21979C17.129 8.32244 17.0255 8.40737 16.9084 8.46964C16.7913 8.5319 16.663 8.57026 16.531 8.58247C16.3989 8.59468 16.2658 8.5805 16.1393 8.54077C16.0127 8.50103 15.8954 8.43653 15.794 8.35101C14.724 7.47482 13.383 6.9973 12 7.00001C10.56 7.00001 9.24203 7.50601 8.20803 8.35001C8.1065 8.43458 7.98922 8.49818 7.86296 8.53715C7.7367 8.57612 7.60397 8.58968 7.47244 8.57705C7.34091 8.56441 7.21319 8.52584 7.09665 8.46355C6.98012 8.40127 6.87708 8.3165 6.7935 8.21416C6.70992 8.11181 6.64746 7.99392 6.60971 7.86729C6.57196 7.74066 6.55969 7.60781 6.57359 7.4764C6.5875 7.345 6.6273 7.21766 6.69071 7.10173C6.75413 6.98581 6.83988 6.8836 6.94303 6.80101C8.36977 5.63405 10.1568 4.9976 12 5.00001ZM12 2.00001C14.6493 1.99625 17.2102 2.95221 19.209 4.69101C19.4041 4.86631 19.5224 5.11121 19.5387 5.37295C19.5549 5.6347 19.4676 5.89233 19.2957 6.09035C19.1238 6.28837 18.8809 6.41094 18.6195 6.43164C18.3581 6.45233 18.099 6.36951 17.898 6.20101C16.2629 4.77818 14.1675 3.99623 12 4.00001C9.83116 3.99585 7.73456 4.77941 6.10003 6.20501C5.89979 6.37899 5.63864 6.4663 5.37403 6.44774C5.10941 6.42917 4.86301 6.30625 4.68903 6.10601C4.51505 5.90577 4.42774 5.64462 4.4463 5.38001C4.46487 5.11539 4.58779 4.86899 4.78803 4.69501C6.78707 2.95416 9.34924 1.99672 12 2.00001Z" fill="currentColor"/>
</svg>
