<svg width="24" height="24" viewBox="0 0 24 24" fill="none" xmlns="http://www.w3.org/2000/svg">
<path d="M16 2C16.7652 1.99996 17.5015 2.29233 18.0583 2.81728C18.615 3.34224 18.9501 4.06011 18.995 4.824L19 5V19C19 19.7652 18.7077 20.5015 18.1827 21.0583C17.6578 21.615 16.9399 21.9501 16.176 21.995L16 22H8C7.23479 22 6.49849 21.7077 5.94174 21.1827C5.38499 20.6578 5.04989 19.9399 5.005 19.176L5 19V5C4.99996 4.23479 5.29233 3.49849 5.81728 2.94174C6.34224 2.38499 7.06011 2.04989 7.824 2.005L8 2H16ZM16 4H8C7.75507 4.00003 7.51866 4.08996 7.33563 4.25272C7.15259 4.41547 7.03566 4.63975 7.007 4.883L7 5V19C7.00003 19.2449 7.08996 19.4813 7.25272 19.6644C7.41547 19.8474 7.63975 19.9643 7.883 19.993L8 20H16C16.2449 20 16.4813 19.91 16.6644 19.7473C16.8474 19.5845 16.9643 19.3603 16.993 19.117L17 19V5C17 4.73478 16.8946 4.48043 16.7071 4.29289C16.5196 4.10536 16.2652 4 16 4ZM14 16C14.2549 16.0003 14.5 16.0979 14.6854 16.2728C14.8707 16.4478 14.9822 16.687 14.9972 16.9414C15.0121 17.1958 14.9293 17.4464 14.7657 17.6418C14.6021 17.8373 14.3701 17.9629 14.117 17.993L14 18H13.5C13.2451 17.9997 13 17.9021 12.8146 17.7272C12.6293 17.5522 12.5178 17.313 12.5028 17.0586C12.4879 16.8042 12.5707 16.5536 12.7343 16.3582C12.8979 16.1627 13.1299 16.0371 13.383 16.007L13.5 16H14ZM10.5 16C10.7652 16 11.0196 16.1054 11.2071 16.2929C11.3946 16.4804 11.5 16.7348 11.5 17C11.5 17.2652 11.3946 17.5196 11.2071 17.7071C11.0196 17.8946 10.7652 18 10.5 18H10C9.73478 18 9.48043 17.8946 9.29289 17.7071C9.10536 17.5196 9 17.2652 9 17C9 16.7348 9.10536 16.4804 9.29289 16.2929C9.48043 16.1054 9.73478 16 10 16H10.5ZM14 13C14.2549 13.0003 14.5 13.0979 14.6854 13.2728C14.8707 13.4478 14.9822 13.687 14.9972 13.9414C15.0121 14.1958 14.9293 14.4464 14.7657 14.6418C14.6021 14.8373 14.3701 14.9629 14.117 14.993L14 15H13.5C13.2451 14.9997 13 14.9021 12.8146 14.7272C12.6293 14.5522 12.5178 14.313 12.5028 14.0586C12.4879 13.8042 12.5707 13.5536 12.7343 13.3582C12.8979 13.1627 13.1299 13.0371 13.383 13.007L13.5 13H14ZM10.5 13C10.7652 13 11.0196 13.1054 11.2071 13.2929C11.3946 13.4804 11.5 13.7348 11.5 14C11.5 14.2652 11.3946 14.5196 11.2071 14.7071C11.0196 14.8946 10.7652 15 10.5 15H10C9.73478 15 9.48043 14.8946 9.29289 14.7071C9.10536 14.5196 9 14.2652 9 14C9 13.7348 9.10536 13.4804 9.29289 13.2929C9.48043 13.1054 9.73478 13 10 13H10.5ZM12 5C12.9283 5 13.8185 5.36875 14.4749 6.02513C15.1313 6.6815 15.5 7.57174 15.5 8.5C15.5 9.42826 15.1313 10.3185 14.4749 10.9749C13.8185 11.6313 12.9283 12 12 12C11.0717 12 10.1815 11.6313 9.52513 10.9749C8.86875 10.3185 8.5 9.42826 8.5 8.5C8.5 7.57174 8.86875 6.6815 9.52513 6.02513C10.1815 5.36875 11.0717 5 12 5ZM12 7C11.6022 7 11.2206 7.15804 10.9393 7.43934C10.658 7.72064 10.5 8.10218 10.5 8.5C10.5 8.89782 10.658 9.27936 10.9393 9.56066C11.2206 9.84196 11.6022 10 12 10C12.3978 10 12.7794 9.84196 13.0607 9.56066C13.342 9.27936 13.5 8.89782 13.5 8.5C13.5 8.10218 13.342 7.72064 13.0607 7.43934C12.7794 7.15804 12.3978 7 12 7Z" fill="currentColor"/>
</svg>
