<svg width="24" height="24" viewBox="0 0 24 24" fill="none" xmlns="http://www.w3.org/2000/svg">
<path d="M20 8.99999C20.2449 9.00003 20.4813 9.08995 20.6644 9.25271C20.8474 9.41547 20.9643 9.63974 20.993 9.883L21 9.99999V15C21 16.0262 20.6056 17.0132 19.8983 17.7568C19.191 18.5004 18.225 18.9437 17.2 18.995L17 19H8.107L8.087 19.415L8.053 19.934C8.026 20.28 7.701 20.491 7.422 20.344L7.116 20.18L6.756 19.977L6.558 19.86L6.128 19.597C6.05134 19.5485 5.97501 19.4995 5.899 19.45L5.436 19.14L5.226 18.993L4.849 18.72L4.534 18.48C4.48949 18.4456 4.44515 18.4109 4.401 18.376C4.165 18.188 4.176 17.81 4.424 17.614L4.704 17.397L5.044 17.145L5.444 16.863L5.9 16.558L6.362 16.267L6.778 16.018L7.143 15.813L7.45 15.648C7.725 15.505 8.021 15.684 8.048 16.008L8.073 16.355L8.097 16.77L8.107 17H17C17.5046 17.0002 17.9906 16.8096 18.3605 16.4665C18.7305 16.1234 18.9572 15.6531 18.995 15.15L19 15V9.99999C19 9.73478 19.1054 9.48042 19.2929 9.29289C19.4804 9.10535 19.7348 8.99999 20 8.99999ZM16.578 3.65499L16.884 3.81999L17.244 4.02299L17.442 4.13999L17.872 4.40299L18.101 4.54999L18.564 4.85999L18.774 5.00699L19.151 5.27999L19.466 5.51999L19.599 5.62399C19.835 5.81199 19.824 6.18999 19.576 6.38599L19.296 6.60299L18.956 6.85499L18.556 7.13699L18.1 7.44199L17.638 7.73299L17.222 7.98199L16.857 8.187L16.55 8.35199C16.275 8.495 15.978 8.31599 15.952 7.99199L15.927 7.64499L15.903 7.22999C15.8993 7.15334 15.896 7.07668 15.893 6.99999H7C6.46957 6.99999 5.96086 7.21071 5.58579 7.58578C5.21071 7.96085 5 8.46956 5 8.99999V14C5 14.2652 4.89464 14.5196 4.70711 14.7071C4.51957 14.8946 4.26522 15 4 15C3.73478 15 3.48043 14.8946 3.29289 14.7071C3.10536 14.5196 3 14.2652 3 14V8.99999C3 7.93913 3.42143 6.92171 4.17157 6.17157C4.92172 5.42142 5.93913 4.99999 7 4.99999H15.893L15.913 4.58499L15.935 4.22499L15.947 4.06599C15.974 3.71999 16.299 3.50799 16.578 3.65499Z" fill="currentColor"/>
</svg>
