<svg width="24" height="24" viewBox="0 0 24 24" fill="none" xmlns="http://www.w3.org/2000/svg">
<path d="M15.947 3.06599C15.974 2.71999 16.299 2.50899 16.578 2.65599L16.884 2.81999L17.244 3.02299L17.442 3.13999L17.872 3.40299L18.101 3.54999L18.564 3.85999L18.774 4.00699L19.151 4.27999L19.466 4.51999L19.599 4.62399C19.835 4.81199 19.824 5.18999 19.576 5.38599L19.296 5.60299L18.956 5.85499L18.556 6.13699L18.1 6.44199L17.638 6.73299L17.222 6.98199L16.857 7.18699L16.55 7.35199C16.275 7.495 15.978 7.31599 15.952 6.99199L15.927 6.64499L15.903 6.22999L15.893 5.99999H7C6.49542 5.99984 6.00943 6.1904 5.63945 6.53349C5.26947 6.87658 5.04284 7.34684 5.005 7.84999L5 7.99999V16C4.99984 16.5046 5.19041 16.9906 5.5335 17.3605C5.87659 17.7305 6.34684 17.9572 6.85 17.995L7 18H17C17.5046 18.0002 17.9906 17.8096 18.3605 17.4665C18.7305 17.1234 18.9572 16.6531 18.995 16.15L19 16V11C19.0003 10.7451 19.0979 10.5 19.2728 10.3146C19.4478 10.1293 19.687 10.0178 19.9414 10.0028C20.1958 9.98789 20.4464 10.0707 20.6418 10.2343C20.8373 10.3978 20.9629 10.6299 20.993 10.883L21 11V16C21 17.0262 20.6056 18.0132 19.8983 18.7568C19.191 19.5004 18.225 19.9437 17.2 19.995L17 20H7C5.97376 20 4.98677 19.6056 4.24319 18.8983C3.4996 18.191 3.05631 17.225 3.005 16.2L3 16V7.99999C3 6.97375 3.39444 5.98677 4.10172 5.24318C4.80901 4.4996 5.77504 4.05631 6.8 4.00499L7 3.99999H15.893L15.913 3.58499L15.935 3.22499L15.947 3.06599ZM13 10.019V15C13 15.2652 12.8946 15.5196 12.7071 15.7071C12.5196 15.8946 12.2652 16 12 16C11.7348 16 11.4804 15.8946 11.2929 15.7071C11.1054 15.5196 11 15.2652 11 15V11.866C10.7751 11.9963 10.5084 12.034 10.2562 11.971C10.0041 11.908 9.78634 11.7493 9.64918 11.5285C9.51202 11.3078 9.46619 11.0423 9.52141 10.7883C9.57663 10.5344 9.72856 10.3119 9.945 10.168L11.43 9.178C11.5821 9.07667 11.7588 9.01851 11.9413 9.0097C12.1238 9.0009 12.3053 9.04177 12.4665 9.12798C12.6276 9.21419 12.7623 9.3425 12.8563 9.49923C12.9502 9.65597 12.9999 9.83526 13 10.018V10.019Z" fill="currentColor"/>
</svg>
