<svg width="24" height="24" viewBox="0 0 24 24" fill="none" xmlns="http://www.w3.org/2000/svg">
<path fill-rule="evenodd" clip-rule="evenodd" d="M19 4C19.5046 3.99984 19.9906 4.19041 20.3605 4.5335C20.7305 4.87659 20.9572 5.34684 20.995 5.85L21 6V19C21.0002 19.5046 20.8096 19.9906 20.4665 20.3605C20.1234 20.7305 19.6532 20.9572 19.15 20.995L19 21H5C4.49542 21.0002 4.00943 20.8096 3.63945 20.4665C3.26947 20.1234 3.04284 19.6532 3.005 19.15L3 19V6C2.99984 5.49542 3.19041 5.00943 3.5335 4.63945C3.87659 4.26947 4.34684 4.04284 4.85 4.005L5 4H19ZM8 16H5V19H8V16ZM19 16H10V19H19V16ZM8 11H5V14H8V11ZM19 11H10V14H19V11ZM8 6H5V9H8V6ZM19 6H10V9H19V6Z" fill="currentColor"/>
</svg>
