<svg width="24" height="24" viewBox="0 0 24 24" fill="none" xmlns="http://www.w3.org/2000/svg">
<path d="M12.0003 7C13.5526 6.99994 15.0446 7.60157 16.1627 8.67847C17.2808 9.75537 17.938 11.2237 17.9963 12.775L18.0003 13V20H19.0003C19.2551 20.0003 19.5003 20.0979 19.6856 20.2728C19.871 20.4478 19.9825 20.687 19.9974 20.9414C20.0124 21.1958 19.9296 21.4464 19.766 21.6418C19.6024 21.8373 19.3704 21.9629 19.1173 21.993L19.0003 22H5.00026C4.74538 21.9997 4.50022 21.9021 4.31489 21.7272C4.12955 21.5522 4.01802 21.313 4.00308 21.0586C3.98815 20.8042 4.07093 20.5536 4.23452 20.3582C4.39811 20.1627 4.63016 20.0371 4.88326 20.007L5.00026 20H6.00026V13C6.00026 11.4087 6.6324 9.88258 7.75762 8.75736C8.88283 7.63214 10.409 7 12.0003 7ZM12.0003 9C10.9394 9 9.92198 9.42143 9.17183 10.1716C8.42168 10.9217 8.00026 11.9391 8.00026 13V20H16.0003V13C16.0003 11.9391 15.5788 10.9217 14.8287 10.1716C14.0785 9.42143 13.0611 9 12.0003 9ZM12.5153 11.643C12.7422 11.7796 12.9057 12.0007 12.9699 12.2578C13.034 12.5148 12.9935 12.7868 12.8573 13.014L12.2673 14H13.4823C14.2673 14 14.7523 14.857 14.3483 15.53L12.8583 18.015C12.7217 18.2426 12.5003 18.4065 12.2428 18.4709C11.9853 18.5352 11.7128 18.4946 11.4853 18.358C11.2577 18.2214 11.0937 18 11.0294 17.7425C10.9651 17.4851 11.0057 17.2126 11.1423 16.985L11.7343 16H10.5183C10.3395 16 10.1639 15.9526 10.0094 15.8626C9.85499 15.7725 9.7272 15.6431 9.63914 15.4875C9.55108 15.3319 9.50589 15.1557 9.50819 14.977C9.5105 14.7982 9.56021 14.6233 9.65226 14.47L11.1423 11.985C11.2099 11.8723 11.2991 11.7741 11.4047 11.6959C11.5104 11.6178 11.6304 11.5612 11.7579 11.5294C11.8854 11.4977 12.0179 11.4914 12.1479 11.5108C12.2778 11.5303 12.4027 11.5752 12.5153 11.643ZM5.63626 5.222L6.34326 5.929C6.52105 6.11832 6.6182 6.36939 6.61417 6.62908C6.61014 6.88876 6.50523 7.13669 6.32165 7.32041C6.13806 7.50412 5.89021 7.6092 5.63053 7.61342C5.37084 7.61763 5.11971 7.52066 4.93026 7.343L4.22326 6.636C4.12775 6.54375 4.05156 6.43341 3.99916 6.3114C3.94675 6.1894 3.91916 6.05818 3.91801 5.9254C3.91685 5.79262 3.94215 5.66094 3.99244 5.53805C4.04272 5.41515 4.11697 5.3035 4.21086 5.20961C4.30475 5.11571 4.41641 5.04146 4.5393 4.99118C4.6622 4.9409 4.79388 4.9156 4.92666 4.91675C5.05944 4.9179 5.19066 4.94549 5.31266 4.9979C5.43467 5.05031 5.54401 5.12649 5.63626 5.222ZM19.7783 5.222C19.9504 5.39419 20.0539 5.62329 20.0691 5.86632C20.0844 6.10934 20.0105 6.3496 19.8613 6.542L19.7783 6.636L19.0713 7.343C18.8913 7.52235 18.6498 7.62647 18.3959 7.63423C18.1419 7.64198 17.8945 7.55278 17.704 7.38475C17.5134 7.21672 17.394 6.98245 17.3699 6.72953C17.3458 6.4766 17.4188 6.22399 17.5743 6.023L17.6573 5.929L18.3643 5.222C18.5518 5.03453 18.8061 4.92921 19.0713 4.92921C19.3364 4.92921 19.5907 5.03453 19.7783 5.222ZM12.0003 2C12.2452 2.00003 12.4816 2.08996 12.6646 2.25272C12.8477 2.41547 12.9646 2.63975 12.9933 2.883L13.0003 3V4C13 4.25488 12.9024 4.50003 12.7274 4.68537C12.5524 4.8707 12.3133 4.98223 12.0589 4.99717C11.8044 5.01211 11.5539 4.92933 11.3584 4.76574C11.163 4.60214 11.0374 4.3701 11.0073 4.117L11.0003 4V3C11.0003 2.73478 11.1056 2.48043 11.2932 2.29289C11.4807 2.10536 11.735 2 12.0003 2Z" fill="currentColor"/>
</svg>
