<svg width="24" height="24" viewBox="0 0 24 24" fill="none" xmlns="http://www.w3.org/2000/svg">
<path fill-rule="evenodd" clip-rule="evenodd" d="M19 3C19.5046 2.99984 19.9906 3.19041 20.3605 3.5335C20.7305 3.87659 20.9572 4.34684 20.995 4.85L21 5V15C21.0002 15.5046 20.8096 15.9906 20.4665 16.3605C20.1234 16.7305 19.6532 16.9572 19.15 16.995L19 17H17V19C17.0002 19.5046 16.8096 19.9906 16.4665 20.3605C16.1234 20.7305 15.6532 20.9572 15.15 20.995L15 21H5C4.49542 21.0002 4.00943 20.8096 3.63945 20.4665C3.26947 20.1234 3.04284 19.6532 3.005 19.15L3 19V9C2.99984 8.49542 3.19041 8.00943 3.5335 7.63945C3.87659 7.26947 4.34684 7.04284 4.85 7.005L5 7H7V5C6.99984 4.49542 7.19041 4.00943 7.5335 3.63945C7.87659 3.26947 8.34685 3.04284 8.85 3.005L9 3H19ZM15 9H5V19H15V9ZM19 5H9V7H15L15.15 7.005C15.6262 7.04078 16.0738 7.24576 16.412 7.58286C16.7502 7.91996 16.9567 8.36695 16.994 8.843L17 9V15H19V5Z" fill="currentColor"/>
</svg>
