<svg width="24" height="24" viewBox="0 0 24 24" fill="none" xmlns="http://www.w3.org/2000/svg">
<path d="M5.45998 0.999996C5.67846 0.991312 5.89377 1.05448 6.07293 1.17982C6.2521 1.30516 6.38524 1.48577 6.45198 1.694L6.47998 1.804L6.80698 3.431C9.02031 2.08095 11.6726 1.64655 14.201 2.22C19.589 3.434 22.972 8.786 21.758 14.174C20.544 19.561 15.192 22.944 9.80398 21.731C5.15998 20.684 2.00698 16.565 2.00098 11.998C2.00058 11.7328 2.10556 11.4783 2.29281 11.2905C2.48007 11.1026 2.73426 10.9969 2.99948 10.9965C3.26469 10.9961 3.51921 11.1011 3.70702 11.2883C3.89484 11.4756 4.00058 11.7298 4.00098 11.995C4.00589 13.8817 4.67743 15.7059 5.89697 17.1454C7.11651 18.5849 8.80557 19.5471 10.6658 19.862C12.526 20.1769 14.4376 19.8242 16.063 18.8662C17.6883 17.9082 18.9228 16.4067 19.5484 14.6267C20.174 12.8468 20.1503 10.903 19.4816 9.13883C18.813 7.37464 17.5423 5.90353 15.8941 4.98539C14.2459 4.06726 12.3263 3.76117 10.4743 4.12121C8.6223 4.48124 6.95714 5.48423 5.77298 6.953C5.64337 7.11402 5.46705 7.23092 5.26827 7.28762C5.0695 7.34432 4.85804 7.33803 4.66299 7.26961C4.46793 7.2012 4.29887 7.07402 4.17907 6.90557C4.05926 6.73713 3.9946 6.5357 3.99398 6.329L4.00098 6.209L4.50698 1.884C4.5344 1.64742 4.64535 1.4284 4.81988 1.26635C4.9944 1.10429 5.22202 1.00984 5.45998 0.999996ZM13.762 7.5C14.0272 7.5 14.2815 7.60535 14.4691 7.79289C14.6566 7.98043 14.762 8.23478 14.762 8.5C14.762 8.76521 14.6566 9.01957 14.4691 9.2071C14.2815 9.39464 14.0272 9.5 13.762 9.5H11.262V10.196C11.497 10.153 11.751 10.126 12.012 10.126C13.908 10.126 15.2 11.584 15.2 13.313C15.2 14.0455 14.9478 14.7556 14.4858 15.324C14.0238 15.8923 13.3802 16.2843 12.6632 16.4339C11.9462 16.5835 11.1995 16.4817 10.5488 16.1455C9.89803 15.8093 9.38288 15.2593 9.08998 14.588C8.98713 14.3541 8.97771 14.0897 9.06367 13.8491C9.14962 13.6085 9.32441 13.4099 9.55218 13.2941C9.77994 13.1783 10.0434 13.154 10.2884 13.2264C10.5335 13.2987 10.7416 13.4621 10.87 13.683L10.923 13.787C11.032 14.0372 11.2239 14.2421 11.4663 14.3675C11.7087 14.4928 11.9869 14.5309 12.2541 14.4753C12.5213 14.4197 12.7611 14.2738 12.9334 14.0621C13.1057 13.8504 13.1998 13.5859 13.2 13.313C13.2 12.625 12.741 12.125 12.012 12.125C11.633 12.125 11.242 12.229 10.888 12.377L10.714 12.455C10.5615 12.5322 10.3918 12.5691 10.221 12.5621C10.0503 12.5551 9.88416 12.5045 9.73854 12.415C9.59291 12.3256 9.47264 12.2003 9.38922 12.0511C9.30579 11.902 9.26198 11.7339 9.26198 11.563V8.938C9.26198 8.144 9.90598 7.5 10.7 7.5H13.762Z" fill="currentColor"/>
</svg>
