<svg width="24" height="24" viewBox="0 0 24 24" fill="none" xmlns="http://www.w3.org/2000/svg">
<path d="M6.793 1.79301C6.95355 1.63246 7.16396 1.53133 7.38962 1.50624C7.61528 1.48116 7.84276 1.53362 8.03465 1.65499C8.22654 1.77636 8.37141 1.95942 8.44544 2.17406C8.51948 2.3887 8.51826 2.62215 8.442 2.83601L8.394 2.94701L7.868 4.00001H18C19.0262 4.00001 20.0132 4.39444 20.7568 5.10173C21.5004 5.80902 21.9437 6.77505 21.995 7.80001L22 8.00001V16C22 17.0262 21.6056 18.0132 20.8983 18.7568C20.191 19.5004 19.225 19.9437 18.2 19.995L18 20H6C4.97376 20 3.98677 19.6056 3.24319 18.8983C2.4996 18.191 2.05631 17.225 2.005 16.2L2 16V11C2.00028 10.7451 2.09788 10.5 2.27285 10.3146C2.44782 10.1293 2.68695 10.0178 2.94139 10.0028C3.19584 9.9879 3.44638 10.0707 3.64183 10.2343C3.83729 10.3979 3.9629 10.6299 3.993 10.883L4 11V16C3.99984 16.5046 4.19041 16.9906 4.5335 17.3606C4.87659 17.7305 5.34684 17.9572 5.85 17.995L6 18H18C18.5046 18.0002 18.9906 17.8096 19.3605 17.4665C19.7305 17.1234 19.9572 16.6532 19.995 16.15L20 16V8.00001C20.0002 7.49543 19.8096 7.00944 19.4665 6.63946C19.1234 6.26948 18.6532 6.04285 18.15 6.00501L18 6.00001H5.024C4.164 6.00001 3.714 5.00501 4.234 4.36101L4.31 4.27601L6.793 1.79301ZM15 7.50001C15.663 7.50001 16.2989 7.7634 16.7678 8.23224C17.2366 8.70108 17.5 9.33697 17.5 10V14C17.5 14.663 17.2366 15.2989 16.7678 15.7678C16.2989 16.2366 15.663 16.5 15 16.5C14.337 16.5 13.7011 16.2366 13.2322 15.7678C12.7634 15.2989 12.5 14.663 12.5 14V10C12.5 9.33697 12.7634 8.70108 13.2322 8.23224C13.7011 7.7634 14.337 7.50001 15 7.50001ZM8.78 7.50001C9.29945 7.49987 9.80808 7.64848 10.2458 7.92827C10.6834 8.20805 11.0318 8.60732 11.2497 9.07884C11.4677 9.55037 11.546 10.0744 11.4756 10.5891C11.4051 11.1037 11.1887 11.5874 10.852 11.983C11.1781 12.3641 11.3916 12.8285 11.4686 13.3242C11.5456 13.8199 11.4829 14.3272 11.2877 14.7892C11.0925 15.2513 10.7724 15.6498 10.3634 15.9401C9.9544 16.2305 9.47259 16.4012 8.972 16.433L8.801 16.438H8.5C8.07862 16.4381 7.66536 16.3221 7.30552 16.1029C6.94568 15.8836 6.65315 15.5695 6.46 15.195L6.387 15.039L6.294 14.819C6.19361 14.5841 6.18692 14.3197 6.27531 14.08C6.3637 13.8403 6.54046 13.6436 6.76933 13.5301C6.9982 13.4166 7.26183 13.395 7.50611 13.4698C7.75039 13.5445 7.9568 13.7099 8.083 13.932L8.135 14.037L8.228 14.257C8.265 14.345 8.341 14.407 8.431 14.429L8.5 14.437H8.8C8.93026 14.4366 9.05783 14.3999 9.16836 14.331C9.2789 14.2621 9.36801 14.1637 9.42568 14.0469C9.48335 13.9301 9.50729 13.7996 9.4948 13.6699C9.48231 13.5403 9.4339 13.4166 9.355 13.313L9.278 13.227L9.216 13.17C9.12287 13.0832 9.00581 13.0264 8.88 13.007L8.786 13C8.53112 12.9997 8.28597 12.9021 8.10063 12.7272C7.9153 12.5522 7.80376 12.3131 7.78883 12.0586C7.77389 11.8042 7.85667 11.5536 8.02026 11.3582C8.18386 11.1627 8.4159 11.0371 8.669 11.007L8.786 11C8.90375 11 9.0185 10.9629 9.114 10.894L9.181 10.837L9.287 10.732C9.38251 10.6374 9.44963 10.5179 9.48075 10.3871C9.51187 10.2563 9.50574 10.1195 9.46307 9.99196C9.4204 9.86447 9.34289 9.75148 9.23931 9.66577C9.13573 9.58006 9.01022 9.52506 8.877 9.50701L8.78 9.50001H8.5C8.45386 9.50008 8.40839 9.51098 8.36723 9.53182C8.32607 9.55266 8.29037 9.58286 8.263 9.62001L8.229 9.68001L8.135 9.90001C8.03444 10.1333 7.84886 10.3195 7.61596 10.421C7.38306 10.5224 7.12028 10.5314 6.88099 10.4461C6.6417 10.3608 6.44384 10.1877 6.32757 9.96182C6.21131 9.73595 6.18536 9.47431 6.255 9.23001L6.294 9.12001L6.387 8.89801C6.55159 8.51017 6.81977 8.17513 7.16214 7.9296C7.50451 7.68406 7.90787 7.53751 8.328 7.50601L8.5 7.50001H8.78ZM15 9.50001C14.8674 9.50001 14.7402 9.55268 14.6464 9.64645C14.5527 9.74022 14.5 9.8674 14.5 10V14C14.5 14.1326 14.5527 14.2598 14.6464 14.3536C14.7402 14.4473 14.8674 14.5 15 14.5C15.1326 14.5 15.2598 14.4473 15.3536 14.3536C15.4473 14.2598 15.5 14.1326 15.5 14V10C15.5 9.8674 15.4473 9.74022 15.3536 9.64645C15.2598 9.55268 15.1326 9.50001 15 9.50001Z" fill="currentColor"/>
</svg>
