<svg width="24" height="24" viewBox="0 0 24 24" fill="none" xmlns="http://www.w3.org/2000/svg">
<path d="M8.085 1.68901C8.27757 1.8278 8.41449 2.03055 8.47128 2.26102C8.52808 2.49149 8.50104 2.73465 8.395 2.94701L7.867 4.00001H18C19.0609 4.00001 20.0783 4.42144 20.8284 5.17159C21.5786 5.92173 22 6.93915 22 8.00001V16C22 17.0609 21.5786 18.0783 20.8284 18.8284C20.0783 19.5786 19.0609 20 18 20H6C4.93913 20 3.92172 19.5786 3.17157 18.8284C2.42143 18.0783 2 17.0609 2 16V11C2 10.7348 2.10536 10.4804 2.29289 10.2929C2.48043 10.1054 2.73478 10 3 10C3.26522 10 3.51957 10.1054 3.70711 10.2929C3.89464 10.4804 4 10.7348 4 11V16C4 16.5304 4.21071 17.0392 4.58579 17.4142C4.96086 17.7893 5.46957 18 6 18H18C18.5304 18 19.0391 17.7893 19.4142 17.4142C19.7893 17.0392 20 16.5304 20 16V8.00001C20 7.46958 19.7893 6.96087 19.4142 6.5858C19.0391 6.21073 18.5304 6.00001 18 6.00001H5.024C4.124 6.00001 3.674 4.91201 4.31 4.27601L6.793 1.79301C6.96093 1.62508 7.18315 1.5224 7.41987 1.50335C7.65659 1.48429 7.89237 1.55011 8.085 1.68901ZM15.763 7.50001C16.0179 7.5003 16.263 7.59789 16.4484 7.77286C16.6337 7.94783 16.7452 8.18697 16.7602 8.44141C16.7751 8.69585 16.6923 8.94639 16.5287 9.14185C16.3651 9.3373 16.1331 9.46291 15.88 9.49301L15.763 9.50001H13.263V10.196C13.5104 10.1501 13.7614 10.1263 14.013 10.125C15.909 10.125 17.201 11.584 17.201 13.313C17.201 14.0455 16.9488 14.7556 16.4869 15.324C16.0249 15.8924 15.3812 16.2843 14.6642 16.4339C13.9472 16.5836 13.2005 16.4817 12.5498 16.1455C11.899 15.8094 11.3839 15.2594 11.091 14.588C10.9882 14.3541 10.9787 14.0897 11.0647 13.8491C11.1506 13.6085 11.3254 13.4099 11.5532 13.2941C11.781 13.1783 12.0444 13.1541 12.2895 13.2264C12.5345 13.2987 12.7426 13.4621 12.871 13.683L12.924 13.787C13.0331 14.0373 13.2251 14.2423 13.4676 14.3676C13.7101 14.493 13.9884 14.5309 14.2556 14.4752C14.5228 14.4194 14.7627 14.2734 14.9349 14.0615C15.1071 13.8497 15.201 13.585 15.201 13.312C15.201 12.625 14.741 12.125 14.013 12.125C13.7105 12.1349 13.4114 12.1912 13.126 12.292L12.946 12.357L12.709 12.457C12.5663 12.5282 12.4087 12.5642 12.2493 12.5621C12.0898 12.5599 11.9332 12.5197 11.7925 12.4447C11.6518 12.3698 11.531 12.2623 11.4403 12.1311C11.3496 12 11.2915 11.8491 11.271 11.691L11.263 11.562V9.00001C11.263 8.62713 11.4019 8.26762 11.6526 7.9916C11.9033 7.71557 12.2478 7.54281 12.619 7.50701L12.763 7.50001H15.763ZM9.472 7.61801C9.63161 7.70347 9.76502 7.83064 9.85801 7.98598C9.951 8.14131 10.0001 8.31897 10 8.50001V15.5C10 15.7652 9.89464 16.0196 9.70711 16.2071C9.51957 16.3947 9.26522 16.5 9 16.5C8.73478 16.5 8.48043 16.3947 8.29289 16.2071C8.10536 16.0196 8 15.7652 8 15.5V10.366C7.77513 10.4963 7.50836 10.534 7.25621 10.471C7.00406 10.408 6.78634 10.2493 6.64918 10.0286C6.51202 9.8078 6.46619 9.54231 6.52141 9.28835C6.57663 9.03438 6.72856 8.81189 6.945 8.66802L8.445 7.66802C8.59561 7.56747 8.77071 7.50971 8.95158 7.50091C9.13246 7.4921 9.31233 7.53258 9.472 7.61801Z" fill="currentColor"/>
</svg>
