<svg width="24" height="24" viewBox="0 0 24 24" fill="none" xmlns="http://www.w3.org/2000/svg">
<path fill-rule="evenodd" clip-rule="evenodd" d="M15.915 1.68901C16.1076 1.55011 16.3434 1.48429 16.5801 1.50335C16.8169 1.5224 17.0391 1.62508 17.207 1.79301L19.69 4.27601C20.326 4.91201 19.876 6.00001 18.976 6.00001H6C5.46957 6.00001 4.96086 6.21073 4.58579 6.5858C4.21071 6.96087 4 7.46958 4 8.00001V16C4 16.5304 4.21071 17.0392 4.58579 17.4142C4.96086 17.7893 5.46957 18 6 18H18C18.5304 18 19.0391 17.7893 19.4142 17.4142C19.7893 17.0392 20 16.5304 20 16V11C20 10.7348 20.1054 10.4804 20.2929 10.2929C20.4804 10.1054 20.7348 10 21 10C21.2652 10 21.5196 10.1054 21.7071 10.2929C21.8946 10.4804 22 10.7348 22 11V16C22 17.0609 21.5786 18.0783 20.8284 18.8284C20.0783 19.5786 19.0609 20 18 20H6C4.93913 20 3.92172 19.5786 3.17157 18.8284C2.42143 18.0783 2 17.0609 2 16V8.00001C2 6.93915 2.42143 5.92173 3.17157 5.17159C3.92172 4.42144 4.93913 4.00001 6 4.00001H16.132L15.606 2.94701C15.5 2.73465 15.4729 2.49149 15.5297 2.26102C15.5865 2.03055 15.7234 1.8278 15.916 1.68901M9.473 7.61901C9.63227 7.70452 9.76538 7.8316 9.85818 7.98673C9.95098 8.14186 9.99999 8.31925 10 8.50001V15.5C10 15.7652 9.89464 16.0196 9.70711 16.2071C9.51957 16.3947 9.26522 16.5 9 16.5C8.73478 16.5 8.48043 16.3947 8.29289 16.2071C8.10536 16.0196 8 15.7652 8 15.5V10.366C7.77513 10.4963 7.50836 10.534 7.25621 10.471C7.00406 10.408 6.78634 10.2493 6.64918 10.0286C6.51202 9.8078 6.46619 9.54231 6.52141 9.28835C6.57663 9.03438 6.72856 8.81189 6.945 8.66802L8.445 7.66802C8.59561 7.56747 8.77071 7.50971 8.95158 7.50091C9.13246 7.4921 9.31233 7.53258 9.472 7.61801M11 10.5C11 10.106 11.0776 9.71594 11.2284 9.35196C11.3791 8.98799 11.6001 8.65727 11.8787 8.37869C12.1573 8.10012 12.488 7.87914 12.8519 7.72838C13.2159 7.57761 13.606 7.50001 14 7.50001C14.394 7.50001 14.7841 7.57761 15.1481 7.72838C15.512 7.87914 15.8427 8.10012 16.1213 8.37869C16.3999 8.65727 16.6209 8.98799 16.7716 9.35196C16.9224 9.71594 17 10.106 17 10.5V13.5C17 13.894 16.9224 14.2841 16.7716 14.6481C16.6209 15.012 16.3999 15.3428 16.1213 15.6213C15.8427 15.8999 15.512 16.1209 15.1481 16.2717C14.7841 16.4224 14.394 16.5 14 16.5C13.606 16.5 13.2159 16.4224 12.8519 16.2717C12.488 16.1209 12.1573 15.8999 11.8787 15.6213C11.6001 15.3428 11.3791 15.012 11.2284 14.6481C11.0776 14.2841 11 13.894 11 13.5V10.5ZM14 9.50001C13.7348 9.50001 13.4804 9.60537 13.2929 9.79291C13.1054 9.98044 13 10.2348 13 10.5V13.5C13 13.7652 13.1054 14.0196 13.2929 14.2071C13.4804 14.3947 13.7348 14.5 14 14.5C14.2652 14.5 14.5196 14.3947 14.7071 14.2071C14.8946 14.0196 15 13.7652 15 13.5V10.5C15 10.2348 14.8946 9.98044 14.7071 9.79291C14.5196 9.60537 14.2652 9.50001 14 9.50001Z" fill="currentColor"/>
</svg>
