<svg width="24" height="24" viewBox="0 0 24 24" fill="none" xmlns="http://www.w3.org/2000/svg">
<path d="M5.45998 0.999996C5.67846 0.991312 5.89377 1.05448 6.07293 1.17982C6.2521 1.30516 6.38524 1.48577 6.45198 1.694L6.47998 1.804L6.80698 3.431C9.02031 2.08095 11.6726 1.64655 14.201 2.22C19.589 3.434 22.972 8.786 21.758 14.174C20.544 19.561 15.192 22.944 9.80398 21.731C5.15998 20.684 2.00698 16.565 2.00098 11.998C2.00058 11.7328 2.10556 11.4783 2.29281 11.2905C2.48007 11.1026 2.73426 10.9969 2.99948 10.9965C3.26469 10.9961 3.51921 11.1011 3.70702 11.2883C3.89484 11.4756 4.00058 11.7298 4.00098 11.995C4.00589 13.8817 4.67743 15.7059 5.89697 17.1454C7.11651 18.5849 8.80557 19.5471 10.6658 19.862C12.526 20.1769 14.4376 19.8242 16.063 18.8662C17.6883 17.9082 18.9228 16.4067 19.5484 14.6267C20.174 12.8468 20.1503 10.903 19.4816 9.13883C18.813 7.37464 17.5423 5.90353 15.8941 4.98539C14.2459 4.06726 12.3263 3.76117 10.4743 4.12121C8.6223 4.48124 6.95714 5.48423 5.77298 6.953C5.64337 7.11402 5.46705 7.23092 5.26827 7.28762C5.0695 7.34432 4.85804 7.33803 4.66299 7.26961C4.46793 7.2012 4.29887 7.07402 4.17907 6.90557C4.05926 6.73713 3.9946 6.5357 3.99398 6.329L4.00098 6.209L4.50698 1.884C4.5344 1.64742 4.64535 1.4284 4.81988 1.26635C4.9944 1.10429 5.22202 1.00984 5.45998 0.999996ZM9.47098 7.618C9.63077 7.70331 9.76438 7.83043 9.85756 7.98578C9.95073 8.14112 9.99995 8.31885 9.99998 8.5V15.5C9.99998 15.7652 9.89462 16.0196 9.70708 16.2071C9.51955 16.3946 9.26519 16.5 8.99998 16.5C8.73476 16.5 8.48041 16.3946 8.29287 16.2071C8.10533 16.0196 7.99998 15.7652 7.99998 15.5V10.366C7.77522 10.4938 7.50967 10.5297 7.25907 10.4659C7.00847 10.4022 6.7923 10.2439 6.65593 10.0242C6.51956 9.80447 6.47359 9.54049 6.52767 9.28763C6.58175 9.03477 6.73167 8.81269 6.94598 8.668L8.44598 7.668C8.59648 7.56764 8.77139 7.50999 8.95207 7.50119C9.13275 7.49238 9.31243 7.53275 9.47198 7.618M15.763 7.5C16.0179 7.50028 16.263 7.59787 16.4483 7.77284C16.6337 7.94781 16.7452 8.18695 16.7601 8.44139C16.7751 8.69583 16.6923 8.94638 16.5287 9.14183C16.3651 9.33728 16.1331 9.46289 15.88 9.493L15.763 9.5H13.263V10.196C13.5104 10.1504 13.7614 10.127 14.013 10.126C15.909 10.126 17.201 11.584 17.201 13.313C17.201 14.0455 16.9488 14.7556 16.4868 15.324C16.0248 15.8923 15.3812 16.2843 14.6642 16.4339C13.9472 16.5835 13.2005 16.4817 12.5498 16.1455C11.899 15.8093 11.3839 15.2593 11.091 14.588C10.9881 14.3541 10.9787 14.0897 11.0647 13.8491C11.1506 13.6085 11.3254 13.4099 11.5532 13.2941C11.7809 13.1783 12.0444 13.154 12.2894 13.2264C12.5345 13.2987 12.7426 13.4621 12.871 13.683L12.924 13.787C13.033 14.0372 13.2249 14.2421 13.4673 14.3675C13.7097 14.4928 13.9879 14.5309 14.2551 14.4753C14.5223 14.4197 14.7621 14.2738 14.9344 14.0621C15.1067 13.8504 15.2008 13.5859 15.201 13.313C15.201 12.625 14.742 12.125 14.013 12.125C13.7104 12.1352 13.4113 12.1918 13.126 12.293L12.914 12.37L12.707 12.459C12.5642 12.5298 12.4067 12.5654 12.2474 12.563C12.0881 12.5605 11.9316 12.52 11.7912 12.4449C11.6507 12.3697 11.5302 12.2621 11.4397 12.131C11.3492 11.9999 11.2914 11.849 11.271 11.691L11.263 11.563V9C11.263 8.62711 11.4019 8.2676 11.6526 7.99158C11.9033 7.71555 12.2478 7.54279 12.619 7.507L12.763 7.5H15.763Z" fill="currentColor"/>
</svg>
