<svg width="24" height="24" viewBox="0 0 24 24" fill="none" xmlns="http://www.w3.org/2000/svg">
<path fill-rule="evenodd" clip-rule="evenodd" d="M15.915 1.68901C16.1076 1.55011 16.3434 1.48429 16.5801 1.50335C16.8169 1.5224 17.0391 1.62508 17.207 1.79301L19.69 4.27601C20.326 4.91201 19.876 6.00001 18.976 6.00001H6C5.46957 6.00001 4.96086 6.21073 4.58579 6.5858C4.21071 6.96087 4 7.46958 4 8.00001V16C4 16.5304 4.21071 17.0392 4.58579 17.4142C4.96086 17.7893 5.46957 18 6 18H18C18.5304 18 19.0391 17.7893 19.4142 17.4142C19.7893 17.0392 20 16.5304 20 16V11C20 10.7348 20.1054 10.4804 20.2929 10.2929C20.4804 10.1054 20.7348 10 21 10C21.2652 10 21.5196 10.1054 21.7071 10.2929C21.8946 10.4804 22 10.7348 22 11V16C22 17.0609 21.5786 18.0783 20.8284 18.8284C20.0783 19.5786 19.0609 20 18 20H6C4.93913 20 3.92172 19.5786 3.17157 18.8284C2.42143 18.0783 2 17.0609 2 16V8.00001C2 6.93915 2.42143 5.92173 3.17157 5.17159C3.92172 4.42144 4.93913 4.00001 6 4.00001H16.132L15.606 2.94701C15.5 2.73465 15.4729 2.49149 15.5297 2.26102C15.5865 2.03055 15.7234 1.8278 15.916 1.68901M9.263 9.00001C9.263 8.60219 9.42104 8.22066 9.70234 7.93935C9.98364 7.65805 10.3652 7.50001 10.763 7.50001H13.763C14.0282 7.50001 14.2826 7.60537 14.4701 7.79291C14.6576 7.98044 14.763 8.2348 14.763 8.50001C14.763 8.76523 14.6576 9.01959 14.4701 9.20712C14.2826 9.39466 14.0282 9.50001 13.763 9.50001H11.263V10.196C11.5104 10.1501 11.7614 10.1263 12.013 10.125C13.909 10.125 15.201 11.584 15.201 13.313C15.201 14.0455 14.9488 14.7556 14.4869 15.324C14.0249 15.8924 13.3812 16.2843 12.6642 16.4339C11.9472 16.5836 11.2005 16.4817 10.5498 16.1455C9.89905 15.8094 9.3839 15.2594 9.091 14.588C8.98655 14.3452 8.98248 14.071 9.07965 13.8252C9.17683 13.5794 9.36736 13.3821 9.6096 13.2763C9.85184 13.1706 10.1261 13.1651 10.3724 13.261C10.6187 13.3568 10.817 13.5463 10.924 13.788C11.0331 14.0383 11.2252 14.2434 11.4678 14.3687C11.7104 14.4941 11.9888 14.532 12.2561 14.4761C12.5234 14.4202 12.7633 14.274 12.9354 14.0619C13.1075 13.8499 13.2013 13.5851 13.201 13.312C13.201 12.625 12.741 12.125 12.013 12.125C11.7105 12.1349 11.4114 12.1912 11.126 12.292C10.9838 12.3389 10.8445 12.3943 10.709 12.458C10.5565 12.534 10.387 12.5698 10.2168 12.5619C10.0466 12.554 9.88115 12.5028 9.73628 12.413C9.59141 12.3233 9.47189 12.198 9.38906 12.049C9.30623 11.9001 9.26283 11.7324 9.263 11.562V9.00001Z" fill="currentColor"/>
</svg>
