<svg width="24" height="24" viewBox="0 0 24 24" fill="none" xmlns="http://www.w3.org/2000/svg">
<path d="M17.207 1.79298L19.69 4.27598C20.326 4.91198 19.876 5.99998 18.976 5.99998H6C5.46957 5.99998 4.96086 6.21069 4.58579 6.58577C4.21071 6.96084 4 7.46955 4 7.99998V16C4 16.5304 4.21071 17.0391 4.58579 17.4142C4.96086 17.7893 5.46957 18 6 18H18C18.5304 18 19.0391 17.7893 19.4142 17.4142C19.7893 17.0391 20 16.5304 20 16V11C20 10.7348 20.1054 10.4804 20.2929 10.2929C20.4804 10.1053 20.7348 9.99998 21 9.99998C21.2652 9.99998 21.5196 10.1053 21.7071 10.2929C21.8946 10.4804 22 10.7348 22 11V16C22 17.0608 21.5786 18.0783 20.8284 18.8284C20.0783 19.5786 19.0609 20 18 20H6C4.93913 20 3.92172 19.5786 3.17157 18.8284C2.42143 18.0783 2 17.0608 2 16V7.99998C2 6.93911 2.42143 5.9217 3.17157 5.17155C3.92172 4.42141 4.93913 3.99998 6 3.99998H16.132L15.606 2.94698C15.5004 2.73469 15.4736 2.49178 15.5305 2.26158C15.5874 2.03138 15.7242 1.82889 15.9165 1.69024C16.1089 1.55159 16.3443 1.4858 16.5806 1.50462C16.817 1.52344 17.039 1.62564 17.207 1.79298ZM15 7.49998C15.663 7.49998 16.2989 7.76337 16.7678 8.23221C17.2366 8.70105 17.5 9.33694 17.5 9.99998V14C17.5 14.663 17.2366 15.2989 16.7678 15.7677C16.2989 16.2366 15.663 16.5 15 16.5C14.337 16.5 13.7011 16.2366 13.2322 15.7677C12.7634 15.2989 12.5 14.663 12.5 14V9.99998C12.5 9.33694 12.7634 8.70105 13.2322 8.23221C13.7011 7.76337 14.337 7.49998 15 7.49998ZM8.78 7.49998C9.29945 7.49984 9.80808 7.64846 10.2458 7.92824C10.6834 8.20803 11.0318 8.60729 11.2497 9.07881C11.4677 9.55034 11.546 10.0744 11.4756 10.5891C11.4051 11.1037 11.1887 11.5874 10.852 11.983C11.1781 12.3641 11.3916 12.8285 11.4686 13.3242C11.5456 13.8198 11.4829 14.3271 11.2877 14.7892C11.0925 15.2512 10.7724 15.6498 10.3634 15.9401C9.9544 16.2305 9.47259 16.4011 8.972 16.433L8.801 16.438H8.5C8.07862 16.438 7.66536 16.3221 7.30552 16.1028C6.94568 15.8836 6.65315 15.5695 6.46 15.195L6.387 15.039L6.294 14.819C6.19361 14.5841 6.18692 14.3197 6.27531 14.08C6.3637 13.8403 6.54046 13.6435 6.76933 13.5301C6.9982 13.4166 7.26183 13.395 7.50611 13.4697C7.75039 13.5445 7.9568 13.7099 8.083 13.932L8.135 14.037L8.228 14.257C8.265 14.345 8.341 14.407 8.431 14.429L8.5 14.437H8.8C8.93026 14.4366 9.05783 14.3999 9.16836 14.331C9.2789 14.2621 9.36801 14.1637 9.42568 14.0469C9.48335 13.9301 9.50729 13.7995 9.4948 13.6699C9.48231 13.5402 9.4339 13.4166 9.355 13.313L9.278 13.227L9.216 13.17C9.12287 13.0832 9.00581 13.0264 8.88 13.007L8.786 13C8.53112 12.9997 8.28597 12.9021 8.10063 12.7271C7.9153 12.5522 7.80376 12.313 7.78883 12.0586C7.77389 11.8041 7.85667 11.5536 8.02026 11.3581C8.18386 11.1627 8.4159 11.0371 8.669 11.007L8.786 11C8.90375 10.9999 9.0185 10.9629 9.114 10.894L9.181 10.837L9.287 10.732C9.38251 10.6374 9.44963 10.5179 9.48075 10.3871C9.51187 10.2563 9.50574 10.1194 9.46307 9.99194C9.4204 9.86445 9.34289 9.75145 9.23931 9.66574C9.13573 9.58003 9.01022 9.52504 8.877 9.50698L8.78 9.49998H8.5C8.45386 9.50006 8.40839 9.51095 8.36723 9.53179C8.32607 9.55264 8.29037 9.58284 8.263 9.61998L8.229 9.67998L8.135 9.89998C8.03444 10.1333 7.84886 10.3195 7.61596 10.421C7.38306 10.5224 7.12028 10.5314 6.88099 10.4461C6.6417 10.3608 6.44384 10.1877 6.32757 9.96179C6.21131 9.73593 6.18536 9.47428 6.255 9.22998L6.294 9.11998L6.387 8.89798C6.55159 8.51015 6.81977 8.17511 7.16214 7.92957C7.50451 7.68404 7.90787 7.53749 8.328 7.50598L8.5 7.49998H8.78ZM15 9.49998C14.8674 9.49998 14.7402 9.55266 14.6464 9.64643C14.5527 9.7402 14.5 9.86737 14.5 9.99998V14C14.5 14.1326 14.5527 14.2598 14.6464 14.3535C14.7402 14.4473 14.8674 14.5 15 14.5C15.1326 14.5 15.2598 14.4473 15.3536 14.3535C15.4473 14.2598 15.5 14.1326 15.5 14V9.99998C15.5 9.86737 15.4473 9.7402 15.3536 9.64643C15.2598 9.55266 15.1326 9.49998 15 9.49998Z" fill="currentColor"/>
</svg>
