<svg width="24" height="24" viewBox="0 0 24 24" fill="none" xmlns="http://www.w3.org/2000/svg">
<path d="M18.5408 1C18.7788 1.00985 19.0054 1.1043 19.1799 1.26635C19.3545 1.42841 19.4654 1.64743 19.4928 1.884L19.9998 6.209C20.0251 6.4243 19.9797 6.64197 19.8705 6.82924C19.7613 7.0165 19.5942 7.16321 19.3944 7.24726C19.1946 7.33132 18.9729 7.34817 18.7627 7.29527C18.5524 7.24238 18.3651 7.12261 18.2288 6.954C17.045 5.48499 15.38 4.48167 13.528 4.12127C11.6761 3.76087 9.75639 4.06659 8.10801 4.98443C6.45964 5.90227 5.18869 7.37315 4.5197 9.13724C3.8507 10.9013 3.82671 12.8451 4.45195 14.6252C5.0772 16.4052 6.31145 17.907 7.93666 18.8653C9.56188 19.8235 11.4735 20.1765 13.3337 19.862C15.194 19.5474 16.8832 18.5855 18.103 17.1461C19.3228 15.7068 19.9946 13.8827 19.9998 11.996C20 11.8647 20.026 11.7347 20.0763 11.6134C20.1267 11.4921 20.2005 11.382 20.2934 11.2892C20.3864 11.1964 20.4967 11.1229 20.6181 11.0727C20.7395 11.0226 20.8695 10.9969 21.0008 10.997C21.1322 10.9971 21.2622 11.0231 21.3835 11.0735C21.5047 11.1239 21.6149 11.1976 21.7077 11.2906C21.8004 11.3836 21.874 11.4939 21.9241 11.6152C21.9742 11.7366 22 11.8667 21.9998 11.998C21.9928 16.565 18.8398 20.684 14.1958 21.731C8.80784 22.945 3.45584 19.561 2.24184 14.174C1.02784 8.786 4.41184 3.434 9.79984 2.22C12.3282 1.64666 14.9805 2.08106 17.1938 3.431L17.5208 1.803C17.5678 1.5697 17.6964 1.36078 17.8835 1.21378C18.0706 1.06677 18.3041 0.991331 18.5418 1.001M13.7638 7.501C14.0291 7.501 14.2834 7.60636 14.4709 7.79389C14.6585 7.98143 14.7638 8.23578 14.7638 8.501C14.7638 8.76622 14.6585 9.02057 14.4709 9.20811C14.2834 9.39564 14.0291 9.501 13.7638 9.501H11.2638V10.197C11.4988 10.154 11.7528 10.127 12.0138 10.127C13.9098 10.127 15.2018 11.585 15.2018 13.314C15.2019 14.0465 14.9497 14.7566 14.4877 15.325C14.0257 15.8933 13.3821 16.2853 12.6651 16.4349C11.9481 16.5845 11.2014 16.4827 10.5506 16.1465C9.89989 15.8103 9.38475 15.2603 9.09184 14.589C8.989 14.3551 8.97958 14.0907 9.06553 13.8501C9.15148 13.6095 9.32628 13.4109 9.55404 13.2951C9.7818 13.1793 10.0453 13.1551 10.2903 13.2274C10.5354 13.2997 10.7435 13.4631 10.8718 13.684L10.9248 13.788C11.0339 14.0382 11.2258 14.2431 11.4682 14.3685C11.7106 14.4938 11.9888 14.5319 12.256 14.4763C12.5231 14.4207 12.763 14.2748 12.9353 14.0631C13.1075 13.8514 13.2017 13.5869 13.2018 13.314C13.2018 12.626 12.7428 12.126 12.0138 12.126C11.7113 12.1362 11.4121 12.1928 11.1268 12.294L10.9188 12.369L10.7158 12.456C10.5634 12.5333 10.3937 12.5701 10.2229 12.5631C10.0521 12.5561 9.88603 12.5055 9.7404 12.416C9.59478 12.3266 9.47451 12.2013 9.39108 12.0521C9.30765 11.903 9.26385 11.7349 9.26384 11.564V8.938C9.26384 8.144 9.90784 7.5 10.7018 7.5L13.7638 7.501Z" fill="currentColor"/>
</svg>
