<svg width="24" height="24" viewBox="0 0 24 24" fill="none" xmlns="http://www.w3.org/2000/svg">
<path d="M18.5408 1C18.7788 1.00985 19.0054 1.1043 19.1799 1.26635C19.3545 1.42841 19.4654 1.64743 19.4928 1.884L19.9998 6.209C20.0251 6.4243 19.9797 6.64197 19.8705 6.82924C19.7613 7.0165 19.5942 7.16321 19.3944 7.24726C19.1946 7.33132 18.9729 7.34817 18.7627 7.29527C18.5524 7.24238 18.3651 7.12261 18.2288 6.954C17.045 5.48499 15.38 4.48167 13.528 4.12127C11.6761 3.76087 9.75639 4.06659 8.10801 4.98443C6.45964 5.90227 5.18869 7.37315 4.5197 9.13724C3.8507 10.9013 3.82671 12.8451 4.45195 14.6252C5.0772 16.4052 6.31145 17.907 7.93666 18.8653C9.56188 19.8235 11.4735 20.1765 13.3337 19.862C15.194 19.5474 16.8832 18.5855 18.103 17.1461C19.3228 15.7068 19.9946 13.8827 19.9998 11.996C20 11.8647 20.026 11.7347 20.0763 11.6134C20.1267 11.4921 20.2005 11.382 20.2934 11.2892C20.3864 11.1964 20.4967 11.1229 20.6181 11.0727C20.7395 11.0226 20.8695 10.9969 21.0008 10.997C21.1322 10.9971 21.2622 11.0231 21.3835 11.0735C21.5047 11.1239 21.6149 11.1976 21.7077 11.2906C21.8004 11.3836 21.874 11.4939 21.9241 11.6152C21.9742 11.7366 22 11.8667 21.9998 11.998C21.9928 16.565 18.8398 20.684 14.1958 21.731C8.80784 22.945 3.45584 19.561 2.24184 14.174C1.02784 8.786 4.41184 3.434 9.79984 2.22C12.3282 1.64666 14.9805 2.08106 17.1938 3.431L17.5208 1.803C17.5678 1.5697 17.6964 1.36078 17.8835 1.21378C18.0706 1.06677 18.3041 0.991331 18.5418 1.001M9.47184 7.619C9.6313 7.70437 9.76461 7.83139 9.85759 7.98653C9.95057 8.14167 9.99973 8.31913 9.99984 8.5V15.5C9.99984 15.7652 9.89449 16.0196 9.70695 16.2071C9.51941 16.3946 9.26506 16.5 8.99984 16.5C8.73463 16.5 8.48027 16.3946 8.29274 16.2071C8.1052 16.0196 7.99984 15.7652 7.99984 15.5V10.366C7.77508 10.4938 7.50954 10.5297 7.25893 10.4659C7.00833 10.4022 6.79216 10.2439 6.65579 10.0242C6.51942 9.80447 6.47345 9.54049 6.52753 9.28763C6.58161 9.03477 6.73154 8.81269 6.94584 8.668L8.44584 7.668C8.59635 7.56765 8.77125 7.51 8.95193 7.50119C9.13261 7.49239 9.31229 7.53376 9.47184 7.619ZM15.7628 7.5C16.0177 7.50028 16.2629 7.59788 16.4482 7.77285C16.6335 7.94782 16.7451 8.18695 16.76 8.44139C16.775 8.69584 16.6922 8.94638 16.5286 9.14183C16.365 9.33729 16.1329 9.4629 15.8798 9.493L15.7628 9.5H13.2628V10.196C13.5103 10.1504 13.7613 10.127 14.0128 10.126C15.9088 10.126 17.2008 11.584 17.2008 13.313C17.2009 14.0455 16.9487 14.7556 16.4867 15.324C16.0247 15.8923 15.3811 16.2843 14.6641 16.4339C13.9471 16.5835 13.2004 16.4817 12.5496 16.1455C11.8989 15.8093 11.3837 15.2593 11.0908 14.588C10.988 14.3541 10.9786 14.0897 11.0645 13.8491C11.1505 13.6085 11.3253 13.4099 11.553 13.2941C11.7808 13.1783 12.0443 13.1541 12.2893 13.2264C12.5344 13.2987 12.7425 13.4621 12.8708 13.683L12.9238 13.787C13.0329 14.0372 13.2248 14.2421 13.4672 14.3675C13.7096 14.4928 13.9878 14.5309 14.255 14.4753C14.5221 14.4197 14.762 14.2738 14.9343 14.0621C15.1065 13.8504 15.2007 13.5859 15.2008 13.313C15.2008 12.625 14.7418 12.125 14.0128 12.125C13.6318 12.125 13.2398 12.23 12.8828 12.38L12.7088 12.458C12.5661 12.529 12.4085 12.5648 12.2492 12.5625C12.0898 12.5602 11.9333 12.5199 11.7927 12.4448C11.6521 12.3698 11.5315 12.2622 11.4409 12.1311C11.3503 11.9999 11.2923 11.8491 11.2718 11.691L11.2628 11.563V9C11.2629 8.62712 11.4018 8.26761 11.6525 7.99158C11.9032 7.71555 12.2477 7.5428 12.6188 7.507L12.7628 7.5H15.7628Z" fill="currentColor"/>
</svg>
