<svg width="24" height="24" viewBox="0 0 24 24" fill="none" xmlns="http://www.w3.org/2000/svg">
<path d="M18.5408 1C18.7788 1.00985 19.0054 1.1043 19.1799 1.26635C19.3545 1.42841 19.4654 1.64743 19.4928 1.884L19.9998 6.209C20.0251 6.4243 19.9797 6.64197 19.8705 6.82924C19.7613 7.0165 19.5942 7.16321 19.3944 7.24726C19.1946 7.33132 18.9729 7.34817 18.7627 7.29527C18.5524 7.24238 18.3651 7.12261 18.2288 6.954C17.045 5.48499 15.38 4.48167 13.528 4.12127C11.6761 3.76087 9.75639 4.06659 8.10801 4.98443C6.45964 5.90227 5.18869 7.37315 4.5197 9.13724C3.8507 10.9013 3.82671 12.8451 4.45195 14.6252C5.0772 16.4052 6.31145 17.907 7.93666 18.8653C9.56188 19.8235 11.4735 20.1765 13.3337 19.862C15.194 19.5474 16.8832 18.5855 18.103 17.1461C19.3228 15.7068 19.9946 13.8827 19.9998 11.996C20 11.8647 20.026 11.7347 20.0763 11.6134C20.1267 11.4921 20.2005 11.382 20.2934 11.2892C20.3864 11.1964 20.4967 11.1229 20.6181 11.0727C20.7395 11.0226 20.8695 10.9969 21.0008 10.997C21.1322 10.9971 21.2622 11.0231 21.3835 11.0735C21.5047 11.1239 21.6149 11.1976 21.7077 11.2906C21.8004 11.3836 21.874 11.4939 21.9241 11.6152C21.9742 11.7366 22 11.8667 21.9998 11.998C21.9928 16.565 18.8398 20.684 14.1958 21.731C8.80784 22.945 3.45584 19.561 2.24184 14.174C1.02784 8.786 4.41184 3.434 9.79984 2.22C12.3282 1.64666 14.9805 2.08106 17.1938 3.431L17.5208 1.803C17.5678 1.5697 17.6964 1.36078 17.8835 1.21378C18.0706 1.06677 18.3041 0.991331 18.5418 1.001M9.47184 7.619C9.6313 7.70437 9.76461 7.83139 9.85759 7.98653C9.95057 8.14167 9.99973 8.31913 9.99984 8.5V15.5C9.99984 15.7652 9.89449 16.0196 9.70695 16.2071C9.51941 16.3946 9.26506 16.5 8.99984 16.5C8.73463 16.5 8.48027 16.3946 8.29274 16.2071C8.1052 16.0196 7.99984 15.7652 7.99984 15.5V10.366C7.77508 10.4938 7.50954 10.5297 7.25893 10.4659C7.00833 10.4022 6.79216 10.2439 6.65579 10.0242C6.51942 9.80447 6.47345 9.54049 6.52753 9.28763C6.58161 9.03477 6.73154 8.81269 6.94584 8.668L8.44584 7.668C8.59635 7.56765 8.77125 7.51 8.95193 7.50119C9.13261 7.49239 9.31229 7.53376 9.47184 7.619ZM13.9998 7.5C14.7651 7.49996 15.5014 7.79233 16.0581 8.31728C16.6148 8.84224 16.95 9.56011 16.9948 10.324L16.9998 10.5V13.5C17.0006 14.2809 16.6968 15.0313 16.1531 15.5918C15.6093 16.1523 14.8684 16.4787 14.0879 16.5016C13.3073 16.5245 12.5486 16.2422 11.9729 15.7145C11.3972 15.1869 11.0499 14.4556 11.0048 13.676L10.9998 13.5V10.5C10.9998 9.70435 11.3159 8.94129 11.8785 8.37868C12.4411 7.81607 13.2042 7.5 13.9998 7.5ZM13.9998 9.5C13.7548 9.50006 13.5182 9.59013 13.3352 9.75309C13.1521 9.91605 13.0353 10.1406 13.0068 10.384L12.9998 10.5V13.5C13.0001 13.7549 13.0977 14 13.2727 14.1854C13.4477 14.3707 13.6868 14.4822 13.9412 14.4972C14.1957 14.5121 14.4462 14.4293 14.6417 14.2657C14.8371 14.1021 14.9627 13.8701 14.9928 13.617L14.9998 13.5V10.5C14.9998 10.2348 14.8945 9.98043 14.7069 9.79289C14.5194 9.60536 14.2651 9.5 13.9998 9.5Z" fill="currentColor"/>
</svg>
