<svg width="24" height="24" viewBox="0 0 24 24" fill="none" xmlns="http://www.w3.org/2000/svg">
<path d="M6 13C7.06087 13 8.07828 13.4214 8.82843 14.1716C9.57857 14.9217 10 15.9391 10 17C10 18.0609 9.57857 19.0783 8.82843 19.8284C8.07828 20.5786 7.06087 21 6 21C4.93913 21 3.92172 20.5786 3.17157 19.8284C2.42143 19.0783 2 18.0609 2 17C2 15.9391 2.42143 14.9217 3.17157 14.1716C3.92172 13.4214 4.93913 13 6 13ZM18 13C19.0609 13 20.0783 13.4214 20.8284 14.1716C21.5786 14.9217 22 15.9391 22 17C22 18.0609 21.5786 19.0783 20.8284 19.8284C20.0783 20.5786 19.0609 21 18 21C16.9391 21 15.9217 20.5786 15.1716 19.8284C14.4214 19.0783 14 18.0609 14 17C14 15.9391 14.4214 14.9217 15.1716 14.1716C15.9217 13.4214 16.9391 13 18 13ZM14.038 7.624L16.414 10H18C18.2652 10 18.5196 10.1054 18.7071 10.2929C18.8946 10.4804 19 10.7348 19 11C19 11.2652 18.8946 11.5196 18.7071 11.7071C18.5196 11.8946 18.2652 12 18 12H16.207C15.8093 11.9997 15.428 11.8414 15.147 11.56L13.954 10.369L11.322 12.672L12.639 14.209C12.8719 14.4808 13 14.827 13 15.185V19C13 19.2652 12.8946 19.5196 12.7071 19.7071C12.5196 19.8946 12.2652 20 12 20C11.7348 20 11.4804 19.8946 11.2929 19.7071C11.1054 19.5196 11 19.2652 11 19V15.37L8.563 12.527C8.30582 12.227 8.17743 11.8376 8.2057 11.4435C8.23397 11.0493 8.41664 10.6822 8.714 10.422L11.989 7.555C12.2755 7.30434 12.6466 7.172 13.0271 7.18481C13.4076 7.19763 13.769 7.35463 14.038 7.624ZM6 15C5.46957 15 4.96086 15.2107 4.58579 15.5858C4.21071 15.9609 4 16.4696 4 17C4 17.5304 4.21071 18.0391 4.58579 18.4142C4.96086 18.7893 5.46957 19 6 19C6.53043 19 7.03914 18.7893 7.41421 18.4142C7.78929 18.0391 8 17.5304 8 17C8 16.4696 7.78929 15.9609 7.41421 15.5858C7.03914 15.2107 6.53043 15 6 15ZM18 15C17.4696 15 16.9609 15.2107 16.5858 15.5858C16.2107 15.9609 16 16.4696 16 17C16 17.5304 16.2107 18.0391 16.5858 18.4142C16.9609 18.7893 17.4696 19 18 19C18.5304 19 19.0391 18.7893 19.4142 18.4142C19.7893 18.0391 20 17.5304 20 17C20 16.4696 19.7893 15.9609 19.4142 15.5858C19.0391 15.2107 18.5304 15 18 15ZM16 3C16.5304 3 17.0391 3.21071 17.4142 3.58579C17.7893 3.96086 18 4.46957 18 5C18 5.53043 17.7893 6.03914 17.4142 6.41421C17.0391 6.78929 16.5304 7 16 7C15.4696 7 14.9609 6.78929 14.5858 6.41421C14.2107 6.03914 14 5.53043 14 5C14 4.46957 14.2107 3.96086 14.5858 3.58579C14.9609 3.21071 15.4696 3 16 3Z" fill="currentColor"/>
</svg>
