<svg width="24" height="24" viewBox="0 0 24 24" fill="none" xmlns="http://www.w3.org/2000/svg">
<path fill-rule="evenodd" clip-rule="evenodd" d="M10.293 8.46503C10.1055 8.65256 10.0002 8.90686 10.0002 9.17203C10.0002 9.43719 10.1055 9.6915 10.293 9.87903L12.414 12L10.293 14.121C10.1054 14.3085 9.99991 14.5629 9.99982 14.8282C9.99972 15.0934 10.105 15.3479 10.2925 15.5355C10.48 15.7232 10.7344 15.8286 10.9997 15.8287C11.2649 15.8288 11.5194 15.7235 11.707 15.536L14.536 12.707C14.7235 12.5195 14.8288 12.2652 14.8288 12C14.8288 11.7349 14.7235 11.4806 14.536 11.293L11.707 8.46503C11.5195 8.27756 11.2652 8.17224 11 8.17224C10.7349 8.17224 10.4805 8.27756 10.293 8.46503Z" fill="currentColor"/>
</svg>
