<svg width="24" height="24" viewBox="0 0 24 24" fill="none" xmlns="http://www.w3.org/2000/svg">
<path d="M8.24325 3.03001C8.50051 3.09446 8.72162 3.25847 8.85796 3.48595C8.9943 3.71343 9.03469 3.98575 8.97025 4.24301L4.97025 20.243C4.94026 20.3723 4.88482 20.4944 4.80716 20.6021C4.7295 20.7098 4.63117 20.8009 4.51792 20.8702C4.40466 20.9395 4.27875 20.9855 4.14751 21.0056C4.01628 21.0257 3.88236 21.0195 3.75356 20.9873C3.62476 20.9551 3.50366 20.8976 3.39733 20.8181C3.29099 20.7386 3.20155 20.6387 3.13422 20.5243C3.06689 20.4098 3.02303 20.2832 3.00517 20.1516C2.98732 20.02 2.99585 19.8862 3.03025 19.758L7.03025 3.75801C7.06206 3.63054 7.11867 3.51058 7.19685 3.405C7.27503 3.29942 7.37326 3.21027 7.4859 3.14267C7.59855 3.07506 7.72342 3.03031 7.85337 3.01098C7.98332 2.99165 8.1158 2.99812 8.24325 3.03001ZM16.9703 3.75701L20.9702 19.757C21.0047 19.8852 21.0132 20.019 20.9953 20.1506C20.9775 20.2822 20.9336 20.4088 20.8663 20.5233C20.7989 20.6377 20.7095 20.7376 20.6032 20.8171C20.4968 20.8966 20.3757 20.9541 20.2469 20.9863C20.1181 21.0185 19.9842 21.0247 19.853 21.0046C19.7218 20.9845 19.5958 20.9385 19.4826 20.8692C19.3693 20.7999 19.271 20.7088 19.1933 20.6011C19.1157 20.4934 19.0602 20.3713 19.0303 20.242L15.0303 4.24201C14.9958 4.11378 14.9873 3.97998 15.0052 3.84842C15.023 3.71686 15.0669 3.59018 15.1342 3.47575C15.2016 3.36133 15.291 3.26145 15.3973 3.18196C15.5037 3.10246 15.6248 3.04494 15.7536 3.01274C15.8824 2.98054 16.0163 2.97431 16.1475 2.99441C16.2787 3.01451 16.4047 3.06055 16.5179 3.12983C16.6312 3.19911 16.7295 3.29025 16.8072 3.39793C16.8848 3.50561 16.9403 3.62767 16.9703 3.75701ZM12.0003 17C12.2452 17 12.4816 17.09 12.6646 17.2527C12.8477 17.4155 12.9646 17.6398 12.9933 17.883L13.0003 18V20C13 20.2549 12.9024 20.5 12.7274 20.6854C12.5524 20.8707 12.3133 20.9822 12.0589 20.9972C11.8044 21.0121 11.5539 20.9293 11.3584 20.7657C11.163 20.6022 11.0374 20.3701 11.0073 20.117L11.0003 20V18C11.0003 17.7348 11.1056 17.4804 11.2931 17.2929C11.4807 17.1054 11.735 17 12.0003 17ZM12.0003 10C12.2655 10 12.5198 10.1054 12.7074 10.2929C12.8949 10.4804 13.0003 10.7348 13.0003 11V13C13.0003 13.2652 12.8949 13.5196 12.7074 13.7071C12.5198 13.8946 12.2655 14 12.0003 14C11.735 14 11.4807 13.8946 11.2931 13.7071C11.1056 13.5196 11.0003 13.2652 11.0003 13V11C11.0003 10.7348 11.1056 10.4804 11.2931 10.2929C11.4807 10.1054 11.735 10 12.0003 10ZM12.0003 3.00001C12.2452 3.00004 12.4816 3.08996 12.6646 3.25272C12.8477 3.41548 12.9646 3.63976 12.9933 3.88301L13.0003 4.00001V6.00001C13 6.25489 12.9024 6.50004 12.7274 6.68538C12.5524 6.87071 12.3133 6.98224 12.0589 6.99718C11.8044 7.01212 11.5539 6.92933 11.3584 6.76574C11.163 6.60215 11.0374 6.3701 11.0073 6.11701L11.0003 6.00001V4.00001C11.0003 3.73479 11.1056 3.48044 11.2931 3.2929C11.4807 3.10536 11.735 3.00001 12.0003 3.00001Z" fill="currentColor"/>
</svg>
