<svg width="24" height="24" viewBox="0 0 24 24" fill="none" xmlns="http://www.w3.org/2000/svg">
<path d="M18.4209 2.797L18.8069 2.853C19.4069 2.948 20.0789 3.107 20.4919 3.52C20.9059 3.934 21.0649 4.606 21.1599 5.206L21.2159 5.591C21.3419 6.501 21.3749 7.694 21.1599 9.018C20.7359 11.631 19.3449 14.748 15.8519 17.163C15.8358 17.3415 15.8301 17.5208 15.8349 17.7L15.8519 18.243C15.8619 18.605 15.8559 18.966 15.7559 19.313C15.5659 19.973 14.8889 20.408 14.2559 20.72L13.9459 20.867L13.5459 21.043L13.2729 21.153C12.5659 21.423 11.7129 21.612 11.1549 21.053C10.9019 20.8 10.7849 20.456 10.6909 20.112L10.6449 19.94C10.4849 19.333 10.3039 18.73 10.0779 18.146C10.0154 18.2218 9.94937 18.2946 9.87988 18.364C9.33488 18.908 8.59588 19.182 7.85688 19.394L7.36588 19.529L6.87588 19.659L6.39788 19.779L5.96588 19.879L5.44888 19.989L5.12588 20.052C4.96475 20.0821 4.79872 20.0724 4.64215 20.0239C4.48558 19.9754 4.34319 19.8895 4.22728 19.7736C4.11138 19.6577 4.02546 19.5153 3.97695 19.3587C3.92844 19.2022 3.91881 19.0361 3.94888 18.875L4.05988 18.324L4.18888 17.746L4.31288 17.236L4.53788 16.391C4.76088 15.571 5.03188 14.726 5.63788 14.121L5.73688 14.026L4.97388 13.752L4.20688 13.488C3.75788 13.34 3.28588 13.184 2.95988 12.858C2.36388 12.262 2.61688 11.332 2.91388 10.601L3.07988 10.214L3.21688 9.913C3.53388 9.239 3.98388 8.463 4.69988 8.257C5.04688 8.157 5.40688 8.151 5.76988 8.16L6.31288 8.178C6.49288 8.181 6.67288 8.178 6.84988 8.161C9.26388 4.668 12.3819 3.277 14.9949 2.853C16.1279 2.6662 17.2823 2.64734 18.4209 2.797ZM15.3149 4.827C13.1169 5.184 10.4459 6.361 8.36188 9.496C8.10888 9.876 7.68188 10.057 7.24688 10.126C7.00088 10.166 6.75288 10.176 6.50388 10.176L5.75688 10.165C5.63288 10.165 5.50788 10.165 5.38388 10.171C5.07988 10.575 4.86788 11.055 4.70888 11.532L6.20888 12.077L6.82588 12.31C7.95388 12.752 9.04588 13.287 9.88588 14.127C11.3009 15.542 12.0199 17.393 12.5399 19.284C12.9959 19.124 13.4539 18.92 13.8419 18.629L13.8479 18.256L13.8369 17.51C13.8369 17.262 13.8469 17.014 13.8869 16.766C13.9549 16.331 14.1369 15.904 14.5169 15.651C17.6519 13.567 18.8289 10.896 19.1859 8.698C19.3659 7.588 19.3359 6.596 19.2349 5.865C19.1961 5.56172 19.1315 5.26231 19.0419 4.97C18.7496 4.88067 18.4501 4.81643 18.1469 4.778C17.2055 4.65597 16.2513 4.67181 15.3149 4.827ZM7.05088 15.535C6.70088 15.958 6.53788 16.513 6.40688 17.063L6.29888 17.531L6.24388 17.757L6.93788 17.594C7.48788 17.464 8.04388 17.299 8.46588 16.949C8.65339 16.7614 8.75868 16.5069 8.75859 16.2416C8.75849 15.9764 8.65303 15.722 8.46538 15.5345C8.27774 15.347 8.0233 15.2417 7.75803 15.2418C7.49276 15.2419 7.23839 15.3474 7.05088 15.535ZM12.7079 8.465C12.8936 8.27925 13.114 8.13188 13.3567 8.03133C13.5993 7.93077 13.8594 7.87899 14.122 7.87895C14.3847 7.8789 14.6448 7.93059 14.8874 8.03106C15.1301 8.13153 15.3506 8.27881 15.5364 8.4645C15.7221 8.65019 15.8695 8.87065 15.9701 9.11329C16.0706 9.35593 16.1224 9.616 16.1224 9.87865C16.1225 10.1413 16.0708 10.4014 15.9703 10.6441C15.8699 10.8867 15.7226 11.1072 15.5369 11.293C15.1617 11.6681 14.6529 11.8789 14.1224 11.8789C13.5918 11.8789 13.083 11.6681 12.7079 11.293C12.3327 10.9179 12.122 10.409 12.122 9.8785C12.122 9.34796 12.3327 8.83915 12.7079 8.464V8.465Z" fill="currentColor"/>
</svg>
