<svg width="24" height="24" viewBox="0 0 24 24" fill="none" xmlns="http://www.w3.org/2000/svg">
<path d="M7.433 7.271L9.013 8.377C9.13327 8.44845 9.23718 8.5444 9.31798 8.6586C9.39877 8.77281 9.45466 8.90272 9.482 9.03992C9.50935 9.17712 9.50754 9.31853 9.47671 9.45499C9.44587 9.59145 9.38669 9.71989 9.303 9.832L8.17 11.45C8.0392 11.6364 7.84873 11.7725 7.63006 11.8359C7.41139 11.8994 7.17762 11.8863 6.9674 11.7988C6.75718 11.7114 6.5831 11.5548 6.47393 11.355C6.36476 11.1552 6.32703 10.9241 6.367 10.7C5.89056 10.8331 5.42651 11.0071 4.98 11.22C4.558 11.428 4.288 11.628 4.136 11.791C3.948 11.992 4.046 12.143 4.21 12.288L4.326 12.383C4.656 12.643 5.196 12.922 5.952 13.173C7.454 13.674 9.592 14 12 14C14.408 14 16.546 13.673 18.048 13.173C18.804 12.921 19.344 12.643 19.674 12.383L19.798 12.282C19.955 12.147 20.056 12.007 19.886 11.814C19.756 11.666 19.521 11.481 19.146 11.284C18.395 10.888 17.259 10.534 15.836 10.299C15.5742 10.2556 15.3404 10.1101 15.186 9.8943C15.0315 9.67854 14.9691 9.41027 15.0125 9.1485C15.0559 8.88673 15.2014 8.65291 15.4172 8.49847C15.633 8.34404 15.9012 8.28164 16.163 8.325C17.704 8.581 19.069 8.982 20.077 9.514C21.002 10 22 10.803 22 12C22 12.852 21.481 13.505 20.912 13.953C20.331 14.411 19.552 14.779 18.68 15.07C16.925 15.655 14.563 16 12 16C9.437 16 7.075 15.655 5.32 15.07C4.447 14.78 3.669 14.41 3.088 13.953C2.518 13.505 2 12.853 2 12C2 11.364 2.295 10.832 2.674 10.425C3.048 10.025 3.547 9.696 4.096 9.425C4.661 9.147 5.328 8.905 6.07 8.705C5.92145 8.51617 5.84585 8.28017 5.85703 8.04017C5.86821 7.80018 5.96542 7.57223 6.13089 7.39802C6.29635 7.22382 6.519 7.11501 6.7581 7.09151C6.9972 7.068 7.23678 7.13236 7.433 7.271ZM12 4C12.2652 4 12.5196 4.10536 12.7071 4.29289C12.8946 4.48043 13 4.73478 13 5V13H11V5C11 4.73478 11.1054 4.48043 11.2929 4.29289C11.4804 4.10536 11.7348 4 12 4ZM11 19V17H13V19C13 19.2652 12.8946 19.5196 12.7071 19.7071C12.5196 19.8946 12.2652 20 12 20C11.7348 20 11.4804 19.8946 11.2929 19.7071C11.1054 19.5196 11 19.2652 11 19Z" fill="currentColor"/>
</svg>
