<svg width="24" height="24" viewBox="0 0 24 24" fill="none" xmlns="http://www.w3.org/2000/svg">
<path d="M11.9999 2C12.8519 2 13.5049 2.519 13.9529 3.088C14.4109 3.669 14.7789 4.448 15.0699 5.32C15.6549 7.075 15.9999 9.437 15.9999 12C15.9999 14.563 15.6549 16.925 15.0699 18.68C14.7799 19.553 14.4099 20.331 13.9529 20.912C13.5049 21.482 12.8529 22 11.9999 22C10.8029 22 9.99987 21.002 9.51387 20.077C8.98187 19.069 8.58087 17.704 8.32487 16.163C8.28164 15.9012 8.34417 15.633 8.4987 15.4173C8.65323 15.2017 8.8871 15.0562 9.14887 15.013C9.41064 14.9698 9.67886 15.0323 9.89452 15.1868C10.1102 15.3414 10.2556 15.5752 10.2989 15.837C10.5339 17.259 10.8879 18.395 11.2829 19.145C11.4809 19.521 11.6659 19.755 11.8129 19.885C12.0069 20.055 12.1469 19.955 12.2819 19.798L12.3819 19.674C12.6419 19.344 12.9209 18.804 13.1719 18.048C13.6729 16.546 13.9999 14.408 13.9999 12C13.9999 9.592 13.6729 7.454 13.1729 5.952C12.9209 5.196 12.6429 4.656 12.3829 4.326L12.2869 4.21C12.1419 4.046 11.9909 3.948 11.7899 4.136C11.6269 4.288 11.4269 4.558 11.2199 4.98C11.0061 5.42635 10.8314 5.89043 10.6979 6.367C10.9117 6.32819 11.1323 6.36009 11.3264 6.45787C11.5205 6.55565 11.6774 6.71399 11.7735 6.90892C11.8695 7.10385 11.8994 7.32477 11.8587 7.53823C11.818 7.7517 11.7089 7.94609 11.5479 8.092L11.4489 8.17L9.83187 9.302C9.62271 9.45872 9.36037 9.52705 9.10133 9.49226C8.84229 9.45747 8.60727 9.32235 8.44687 9.116L7.27087 7.433C7.13355 7.23689 7.07115 6.99802 7.095 6.75981C7.11884 6.52159 7.22736 6.29984 7.40083 6.13484C7.5743 5.96985 7.80121 5.87256 8.04032 5.86066C8.27943 5.84876 8.51488 5.92304 8.70387 6.07C8.90487 5.328 9.14687 4.66 9.42487 4.096C9.69587 3.546 10.0249 3.048 10.4249 2.674C10.8309 2.294 11.3629 2 11.9999 2ZM12.9999 11V13H4.99987C4.74499 12.9997 4.49984 12.9021 4.3145 12.7272C4.12916 12.5522 4.01763 12.313 4.0027 12.0586C3.98776 11.8042 4.07054 11.5536 4.23413 11.3582C4.39772 11.1627 4.62977 11.0371 4.88287 11.007L4.99987 11H12.9999ZM18.9999 11H16.9999V13H18.9999C19.2651 13 19.5194 12.8946 19.707 12.7071C19.8945 12.5196 19.9999 12.2652 19.9999 12C19.9999 11.7348 19.8945 11.4804 19.707 11.2929C19.5194 11.1054 19.2651 11 18.9999 11Z" fill="currentColor"/>
</svg>
