<svg width="24" height="24" viewBox="0 0 24 24" fill="none" xmlns="http://www.w3.org/2000/svg">
<path d="M12 9.00004C12.2652 9.00004 12.5196 9.10539 12.7071 9.29293C12.8947 9.48047 13 9.73482 13 10V14H19C19.5304 14 20.0391 14.2108 20.4142 14.5858C20.7893 14.9609 21 15.4696 21 16V19C21 19.5305 20.7893 20.0392 20.4142 20.4143C20.0391 20.7893 19.5304 21 19 21H5.00001C4.46957 21 3.96087 20.7893 3.58579 20.4143C3.21072 20.0392 3.00001 19.5305 3.00001 19V16C3.00001 15.4696 3.21072 14.9609 3.58579 14.5858C3.96087 14.2108 4.46957 14 5.00001 14H11V10C11 9.73482 11.1054 9.48047 11.2929 9.29293C11.4804 9.10539 11.7348 9.00004 12 9.00004ZM19 16H5.00001V19H19V16ZM6.66201 3.95904C6.86071 4.13453 6.9816 4.38173 6.9981 4.64632C7.0146 4.91091 6.92536 5.17122 6.75001 5.37004C5.61987 6.64729 4.99725 8.29458 5.00001 10C5.00001 10.297 5.01801 10.59 5.05401 10.876C5.08025 11.1358 5.00384 11.3956 4.8411 11.5998C4.67837 11.804 4.44221 11.9364 4.18311 11.9688C3.92401 12.0012 3.66251 11.931 3.45451 11.7731C3.24652 11.6153 3.10852 11.3823 3.07001 11.124C3.02344 10.7512 3.00006 10.3758 3.00001 10C2.99722 7.8074 3.79764 5.68968 5.25001 4.04704C5.33691 3.9485 5.44239 3.86806 5.5604 3.81031C5.67841 3.75255 5.80664 3.71862 5.93777 3.71045C6.0689 3.70228 6.20036 3.72002 6.32463 3.76268C6.44889 3.80533 6.56354 3.87206 6.66201 3.95904ZM18.75 4.04704C20.2024 5.68968 21.0028 7.8074 21 10C21 10.38 20.976 10.755 20.93 11.124C20.9166 11.2567 20.8768 11.3853 20.813 11.5023C20.7492 11.6194 20.6626 11.7225 20.5583 11.8056C20.4541 11.8886 20.3342 11.95 20.2059 11.9861C20.0776 12.0223 19.9433 12.0323 19.811 12.0158C19.6788 11.9993 19.5511 11.9564 19.4356 11.8899C19.3201 11.8233 19.2191 11.7343 19.1385 11.6281C19.0579 11.5219 18.9994 11.4006 18.9663 11.2715C18.9332 11.1423 18.9263 11.0079 18.946 10.876C18.981 10.59 19 10.297 19 10C19.0028 8.29458 18.3801 6.64729 17.25 5.37004C17.1631 5.27155 17.0965 5.15691 17.054 5.03267C17.0114 4.90843 16.9937 4.77703 17.0019 4.64596C17.0185 4.38125 17.1396 4.13398 17.3385 3.95854C17.437 3.87167 17.5516 3.80505 17.6759 3.76248C17.8001 3.71992 17.9315 3.70224 18.0626 3.71046C18.3273 3.72705 18.5746 3.84812 18.75 4.04704ZM9.66201 6.60404C9.76054 6.69095 9.84098 6.79642 9.89874 6.91443C9.95649 7.03244 9.99042 7.16067 9.9986 7.2918C10.0068 7.42293 9.98902 7.55439 9.94637 7.67866C9.90371 7.80292 9.83699 7.91757 9.75001 8.01604C9.46747 8.33477 9.25641 8.71028 9.13102 9.11733C9.00562 9.52439 8.9688 9.95357 9.02301 10.376C9.04925 10.6358 8.97284 10.8956 8.8101 11.0998C8.64737 11.304 8.41121 11.4364 8.15211 11.4688C7.893 11.5012 7.63151 11.431 7.42351 11.2731C7.21552 11.1153 7.07752 10.8823 7.03901 10.624C6.94956 9.92036 7.01132 9.20571 7.22016 8.52781C7.42899 7.84991 7.7801 7.22439 8.25001 6.69304C8.42533 6.49449 8.67225 6.37361 8.9366 6.35693C9.20095 6.34024 9.46111 6.42911 9.66001 6.60404H9.66201ZM15.75 6.69204C16.2201 7.22347 16.5713 7.84916 16.7802 8.52725C16.989 9.20534 17.0507 9.9202 16.961 10.624C16.9225 10.8823 16.7845 11.1153 16.5765 11.2731C16.3685 11.431 16.107 11.5012 15.8479 11.4688C15.5888 11.4364 15.3526 11.304 15.1899 11.0998C15.0272 10.8956 14.9508 10.6358 14.977 10.376C15.0314 9.95364 14.9947 9.5245 14.8695 9.11745C14.7442 8.7104 14.5334 8.33485 14.251 8.01604C14.1637 7.91767 14.0967 7.80304 14.0537 7.67873C14.0108 7.55441 13.9928 7.42285 14.0008 7.29156C14.0087 7.16028 14.0425 7.03187 14.1002 6.91367C14.1579 6.79547 14.2383 6.68981 14.3369 6.60274C14.4355 6.51567 14.5503 6.4489 14.6747 6.40626C14.7991 6.36362 14.9307 6.34594 15.062 6.35423C15.1933 6.36253 15.3216 6.39663 15.4396 6.4546C15.5577 6.51257 15.6632 6.59325 15.75 6.69204Z" fill="currentColor"/>
</svg>
