<svg width="24" height="24" viewBox="0 0 24 24" fill="none" xmlns="http://www.w3.org/2000/svg">
<path d="M5.49981 17C5.89763 17 6.27916 17.158 6.56047 17.4393C6.84177 17.7206 6.99981 18.1022 6.99981 18.5C6.99981 18.8978 6.84177 19.2794 6.56047 19.5607C6.27916 19.842 5.89763 20 5.49981 20C5.10198 20 4.72045 19.842 4.43915 19.5607C4.15784 19.2794 3.99981 18.8978 3.99981 18.5C3.99981 18.1022 4.15784 17.7206 4.43915 17.4393C4.72045 17.158 5.10198 17 5.49981 17ZM5.49981 3C14.0598 3 20.9998 9.94 20.9998 18.5C20.9998 18.679 20.9968 18.857 20.9908 19.034C20.9818 19.2991 20.8678 19.5497 20.674 19.7308C20.4802 19.9119 20.2224 20.0085 19.9573 19.9995C19.6922 19.9905 19.4416 19.8765 19.2605 19.6827C19.0794 19.4889 18.9828 19.2311 18.9918 18.966C18.9968 18.811 18.9998 18.656 18.9998 18.5C18.9998 11.044 12.9558 5 5.49981 5C5.34381 5 5.18881 5.003 5.03381 5.008C4.76872 5.01702 4.51092 4.92036 4.3171 4.7393C4.12328 4.55823 4.00933 4.30758 4.00031 4.0425C3.99129 3.77742 4.08795 3.51961 4.26901 3.32579C4.45008 3.13197 4.70072 3.01802 4.96581 3.009C5.14281 3.003 5.32081 3 5.49981 3ZM5.49981 10C6.6638 9.99988 7.81541 10.2388 8.88326 10.702C9.95111 11.1653 10.9124 11.8428 11.7077 12.6928C12.5029 13.5428 13.1151 14.5471 13.5063 15.6434C13.8975 16.7396 14.0593 17.9046 13.9818 19.066C13.9643 19.3307 13.8424 19.5776 13.6428 19.7524C13.4433 19.9271 13.1825 20.0155 12.9178 19.998C12.6531 19.9805 12.4062 19.8586 12.2314 19.659C12.0567 19.4595 11.9683 19.1987 11.9858 18.934C12.0478 18.0092 11.9112 17.0819 11.5854 16.2143C11.2596 15.3466 10.7519 14.5586 10.0965 13.9033C9.44117 13.2479 8.65322 12.7403 7.78556 12.4144C6.91789 12.0886 5.99057 11.952 5.06581 12.014C4.93292 12.0262 4.79893 12.0116 4.67175 11.9712C4.54457 11.9308 4.42677 11.8653 4.32528 11.7787C4.22379 11.692 4.14068 11.5859 4.08082 11.4667C4.02097 11.3474 3.9856 11.2173 3.97679 11.0842C3.96798 10.951 3.98591 10.8175 4.02953 10.6913C4.07314 10.5652 4.14156 10.4491 4.23074 10.3498C4.31993 10.2506 4.42808 10.1702 4.54883 10.1133C4.66957 10.0565 4.80047 10.0244 4.93381 10.019C5.12081 10.006 5.30981 10 5.49981 10Z" fill="currentColor"/>
</svg>
