<svg width="24" height="24" viewBox="0 0 24 24" fill="none" xmlns="http://www.w3.org/2000/svg">
<path fill-rule="evenodd" clip-rule="evenodd" d="M5 3C4.46957 3 3.96086 3.21071 3.58579 3.58579C3.21071 3.96086 3 4.46957 3 5V19C3 19.5304 3.21071 20.0391 3.58579 20.4142C3.96086 20.7893 4.46957 21 5 21H10C10.5304 21 11.0391 20.7893 11.4142 20.4142C11.7893 20.0391 12 19.5304 12 19V12H19C19.5304 12 20.0391 11.7893 20.4142 11.4142C20.7893 11.0391 21 10.5304 21 10V5C21 4.46957 20.7893 3.96086 20.4142 3.58579C20.0391 3.21071 19.5304 3 19 3H5ZM7 5V6C7 6.26522 7.10536 6.51957 7.29289 6.70711C7.48043 6.89464 7.73478 7 8 7C8.26522 7 8.51957 6.89464 8.70711 6.70711C8.89464 6.51957 9 6.26522 9 6V5H11V6C11 6.26522 11.1054 6.51957 11.2929 6.70711C11.4804 6.89464 11.7348 7 12 7C12.2652 7 12.5196 6.89464 12.7071 6.70711C12.8946 6.51957 13 6.26522 13 6V5H15V6C15 6.26522 15.1054 6.51957 15.2929 6.70711C15.4804 6.89464 15.7348 7 16 7C16.2652 7 16.5196 6.89464 16.7071 6.70711C16.8946 6.51957 17 6.26522 17 6V5H19V10H11.5C11.1022 10 10.7206 10.158 10.4393 10.4393C10.158 10.7206 10 11.1022 10 11.5V19H5V17H6C6.26522 17 6.51957 16.8946 6.70711 16.7071C6.89464 16.5196 7 16.2652 7 16C7 15.7348 6.89464 15.4804 6.70711 15.2929C6.51957 15.1054 6.26522 15 6 15H5V13H6C6.26522 13 6.51957 12.8946 6.70711 12.7071C6.89464 12.5196 7 12.2652 7 12C7 11.7348 6.89464 11.4804 6.70711 11.2929C6.51957 11.1054 6.26522 11 6 11H5V9H6C6.26522 9 6.51957 8.89464 6.70711 8.70711C6.89464 8.51957 7 8.26522 7 8C7 7.73478 6.89464 7.48043 6.70711 7.29289C6.51957 7.10536 6.26522 7 6 7H5V5H7Z" fill="currentColor"/>
</svg>
