<svg width="24" height="24" viewBox="0 0 24 24" fill="none" xmlns="http://www.w3.org/2000/svg">
<path fill-rule="evenodd" clip-rule="evenodd" d="M12.9998 2C13.7405 1.99879 14.4556 2.2717 15.0071 2.76617C15.5587 3.26064 15.9079 3.9417 15.9873 4.6782C16.0668 5.4147 15.871 6.15456 15.4375 6.7553C15.0041 7.35604 14.3637 7.77518 13.6398 7.932L13.4688 7.964L14.9047 10.261L16.6287 9.571C16.8659 9.47528 17.1307 9.47403 17.3687 9.56752C17.6067 9.66101 17.7999 9.84213 17.9085 10.0737C18.017 10.3052 18.0328 10.5695 17.9525 10.8123C17.8722 11.0551 17.702 11.2579 17.4767 11.379L17.3708 11.429L15.6477 12.118C15.2393 12.2814 14.7884 12.3056 14.3648 12.1868C13.9413 12.0681 13.5687 11.8129 13.3048 11.461L13.2087 11.321L13.0457 11.061L12.4397 13.485C12.3873 13.6959 12.3008 13.8969 12.1838 14.08L12.0938 14.21L13.7467 15.438C14.141 15.731 14.4137 16.1589 14.5127 16.64L14.5417 16.822L14.8948 20H14.9998C15.2546 20.0003 15.4998 20.0979 15.6851 20.2729C15.8705 20.4478 15.982 20.687 15.9969 20.9414C16.0119 21.1958 15.9291 21.4464 15.7655 21.6418C15.6019 21.8373 15.3698 21.9629 15.1167 21.993L14.9998 22H14.0898C13.8395 22.0001 13.5967 21.9148 13.4014 21.7583C13.2062 21.6017 13.0701 21.3833 13.0157 21.139L12.9958 21.022L12.5538 17.043L9.40375 14.703C9.34771 14.6618 9.2961 14.6149 9.24975 14.563C8.97198 14.3406 8.75855 14.0481 8.63146 13.7157C8.50437 13.3833 8.46823 13.023 8.52675 12.672L8.55975 12.515L9.35375 9.338L7.78375 9.808L6.94875 12.316C6.86855 12.5587 6.69849 12.7614 6.47349 12.8826C6.24848 13.0038 5.98561 13.0343 5.73885 12.9677C5.4921 12.9012 5.28019 12.7427 5.14664 12.5248C5.0131 12.3068 4.96805 12.0461 5.02075 11.796L5.05075 11.684L5.88675 9.176C5.97962 8.89772 6.13258 8.64327 6.33477 8.43071C6.53697 8.21814 6.78346 8.05267 7.05675 7.946L7.20975 7.893L10.6468 6.862C10.2968 6.4199 10.0785 5.88812 10.0169 5.32764C9.95534 4.76716 10.053 4.20067 10.2986 3.69313C10.5442 3.18559 10.9279 2.75755 11.4057 2.45808C11.8834 2.15862 12.4359 1.99986 12.9998 2ZM8.19975 15.4C8.35228 15.1963 8.57673 15.0584 8.82737 15.0145C9.07801 14.9705 9.33599 15.0237 9.54876 15.1633C9.76152 15.3029 9.91307 15.5183 9.97252 15.7658C10.032 16.0132 9.99487 16.274 9.86875 16.495L9.79975 16.6L8.58375 18.222C8.36897 18.5086 8.05876 18.7088 7.70919 18.7866C7.35962 18.8644 6.99376 18.8145 6.67775 18.646L6.55175 18.57L4.62175 17.283C4.43028 17.435 4.18977 17.5116 3.94567 17.4983C3.70156 17.485 3.47078 17.3828 3.29693 17.2109C3.12309 17.039 3.01823 16.8094 3.00216 16.5655C2.9861 16.3216 3.05995 16.0802 3.20975 15.887L3.29275 15.793L3.78675 15.299C3.93614 15.1497 4.12859 15.0509 4.33703 15.0166C4.54548 14.9824 4.75942 15.0143 4.94875 15.108L5.06175 15.172L7.26775 16.643L8.19975 15.4ZM12.9998 4C12.7345 4 12.4802 4.10536 12.2926 4.2929C12.1051 4.48043 11.9998 4.73479 11.9998 5C11.9998 5.26522 12.1051 5.51957 12.2926 5.70711C12.4802 5.89465 12.7345 6 12.9998 6C13.265 6 13.5193 5.89465 13.7069 5.70711C13.8944 5.51957 13.9998 5.26522 13.9998 5C13.9998 4.73479 13.8944 4.48043 13.7069 4.2929C13.5193 4.10536 13.265 4 12.9998 4Z" fill="currentColor"/>
</svg>
