<svg width="24" height="24" viewBox="0 0 24 24" fill="none" xmlns="http://www.w3.org/2000/svg">
<path fill-rule="evenodd" clip-rule="evenodd" d="M11.298 2.19506C11.6926 2.04741 12.1238 2.02816 12.53 2.14006L12.702 2.19506L19.702 4.82006C20.0569 4.95315 20.3667 5.18436 20.5953 5.48676C20.8239 5.78916 20.9618 6.15028 20.993 6.52806L21 6.69306V12.0561C21 13.6765 20.5624 15.2668 19.7336 16.6592C18.9048 18.0517 17.7154 19.1945 16.291 19.9671L16.025 20.1061L12.671 21.7831C12.4863 21.8753 12.2846 21.9284 12.0785 21.939C11.8723 21.9497 11.6662 21.9177 11.473 21.8451L11.329 21.7831L7.975 20.1061C6.52561 19.3813 5.29878 18.2787 4.424 16.9147C3.54923 15.5506 3.05898 13.9756 3.005 12.3561L3 12.0561V6.69306C3.00001 6.31419 3.10763 5.94311 3.31033 5.62303C3.51304 5.30295 3.8025 5.04702 4.145 4.88506L4.298 4.82006L11.298 2.19506ZM12 4.06806L5 6.69306V12.0561C5.00003 13.3111 5.33745 14.543 5.97696 15.6228C6.61646 16.7027 7.53451 17.5908 8.635 18.1941L8.87 18.3171L12 19.8821L15.13 18.3171C16.2527 17.7558 17.2039 16.903 17.8839 15.8479C18.5638 14.7929 18.9476 13.5744 18.995 12.3201L19 12.0561V6.69306L12 4.06806ZM11.508 7.51606C11.7788 7.41471 12.0743 7.39968 12.354 7.47306L12.492 7.51606L15.292 8.56606C15.5376 8.65819 15.7524 8.81747 15.9119 9.02574C16.0714 9.23402 16.1691 9.48292 16.194 9.74406L16.2 9.87706V12.0221C16.2 12.7654 16.0027 13.4953 15.6283 14.1375C15.254 14.7796 14.7159 15.3109 14.069 15.6771L13.879 15.7791L12.537 16.4491C12.3916 16.5218 12.233 16.5643 12.0707 16.574C11.9085 16.5836 11.7459 16.5601 11.593 16.5051L11.463 16.4501L10.122 15.7791C9.45728 15.4467 8.89266 14.9439 8.48577 14.3219C8.07889 13.7 7.84432 12.9813 7.806 12.2391L7.8 12.0221V9.87706C7.80003 9.6148 7.87373 9.35782 8.0127 9.1354C8.15166 8.91299 8.35031 8.73408 8.586 8.61906L8.708 8.56606L11.508 7.51606ZM12 9.46806L9.8 10.2931V12.0231C9.80011 12.4032 9.89873 12.7769 10.0863 13.1076C10.2738 13.4383 10.5438 13.7148 10.87 13.9101L11.016 13.9901L12 14.4821L12.984 13.9901C13.3243 13.8199 13.6146 13.5645 13.8267 13.2487C14.0388 12.9328 14.1653 12.5674 14.194 12.1881L14.2 12.0221V10.2931L12 9.46806Z" fill="currentColor"/>
</svg>
