<svg width="24" height="24" viewBox="0 0 24 24" fill="none" xmlns="http://www.w3.org/2000/svg">
<path fill-rule="evenodd" clip-rule="evenodd" d="M20 3C20.5304 3 21.0391 3.21071 21.4142 3.58579C21.7893 3.96086 22 4.46957 22 5V18C22 18.5304 21.7893 19.0391 21.4142 19.4142C21.0391 19.7893 20.5304 20 20 20H19C19 20.2652 18.8946 20.5196 18.7071 20.7071C18.5196 20.8946 18.2652 21 18 21C17.7348 21 17.4804 20.8946 17.2929 20.7071C17.1054 20.5196 17 20.2652 17 20H7C7 20.2652 6.89464 20.5196 6.70711 20.7071C6.51957 20.8946 6.26522 21 6 21C5.73478 21 5.48043 20.8946 5.29289 20.7071C5.10536 20.5196 5 20.2652 5 20H4C3.46957 20 2.96086 19.7893 2.58579 19.4142C2.21071 19.0391 2 18.5304 2 18V5C2 4.46957 2.21071 3.96086 2.58579 3.58579C2.96086 3.21071 3.46957 3 4 3H20ZM20 5H4V18H20V5ZM12 7C12.2652 7 12.5196 7.10536 12.7071 7.29289C12.8946 7.48043 13 7.73478 13 8V8.126C13.5147 8.25899 13.9977 8.49317 14.4208 8.81488C14.844 9.13659 15.1988 9.53938 15.4646 9.99973C15.7304 10.4601 15.9018 10.9688 15.9688 11.4961C16.0359 12.0234 15.9972 12.5588 15.855 13.071L15.964 13.134C16.0786 13.1992 16.1793 13.2864 16.2601 13.3906C16.3409 13.4949 16.4003 13.614 16.4348 13.7413C16.4694 13.8686 16.4784 14.0014 16.4614 14.1322C16.4444 14.263 16.4017 14.3891 16.3358 14.5033C16.2698 14.6175 16.1819 14.7176 16.0772 14.7977C15.9724 14.8778 15.8528 14.9364 15.7253 14.9701C15.5978 15.0038 15.4649 15.012 15.3343 14.9941C15.2036 14.9762 15.0778 14.9327 14.964 14.866L14.854 14.803C14.482 15.1826 14.038 15.4841 13.5478 15.6896C13.0577 15.8952 12.5315 16.0007 12 16C11.4685 16.0007 10.9423 15.8952 10.4522 15.6896C9.96204 15.4841 9.51795 15.1826 9.146 14.803L9.036 14.866C8.92223 14.9327 8.79639 14.9762 8.66572 14.9941C8.53506 15.012 8.40215 15.0038 8.27465 14.9701C8.14715 14.9364 8.02758 14.8778 7.92282 14.7977C7.81806 14.7176 7.73018 14.6175 7.66424 14.5033C7.5983 14.3891 7.5556 14.263 7.5386 14.1322C7.5216 14.0014 7.53064 13.8686 7.56519 13.7413C7.59974 13.614 7.65913 13.4949 7.73993 13.3906C7.82073 13.2864 7.92135 13.1992 8.036 13.134L8.145 13.071C8.00312 12.5588 7.96464 12.0235 8.03179 11.4962C8.09895 10.969 8.27039 10.4604 8.53614 10.0002C8.80188 9.53987 9.1566 9.1371 9.57962 8.81533C10.0026 8.49356 10.4855 8.25923 11 8.126V8C11 7.73478 11.1054 7.48043 11.2929 7.29289C11.4804 7.10536 11.7348 7 12 7ZM12 10C11.6645 9.99981 11.3343 10.084 11.0399 10.2449C10.7454 10.4058 10.4962 10.6382 10.3151 10.9206C10.1341 11.2031 10.027 11.5266 10.0037 11.8613C9.98044 12.196 10.0418 12.5312 10.182 12.836L10.276 13.014C10.4454 13.3025 10.6844 13.5439 10.9713 13.716C11.2581 13.8882 11.5836 13.9856 11.9179 13.9993C12.2521 14.0131 12.5845 13.9427 12.8845 13.7946C13.1845 13.6466 13.4425 13.4256 13.635 13.152L13.745 12.978C13.9156 12.6736 14.0037 12.3299 14.0003 11.9809C13.997 11.632 13.9024 11.29 13.726 10.9889C13.5496 10.6878 13.2975 10.4381 12.9947 10.2646C12.6919 10.0912 12.349 9.99992 12 10Z" fill="currentColor"/>
</svg>
