<svg width="24" height="24" viewBox="0 0 24 24" fill="none" xmlns="http://www.w3.org/2000/svg">
<path d="M12.702 2.195L19.702 4.82C20.0833 4.96293 20.4119 5.21885 20.6438 5.55355C20.8758 5.88825 21.0001 6.28578 21 6.693V12.056C21 13.7274 20.5346 15.3658 19.6559 16.7877C18.7772 18.2095 17.52 19.3585 16.025 20.106L12.671 21.783C12.4627 21.8872 12.2329 21.9414 12 21.9414C11.7671 21.9414 11.5373 21.8872 11.329 21.783L7.975 20.106C6.48004 19.3585 5.22277 18.2095 4.34407 16.7877C3.46537 15.3658 2.99996 13.7274 3 12.056V6.693C2.99995 6.28578 3.1242 5.88825 3.35615 5.55355C3.5881 5.21885 3.91669 4.96293 4.298 4.82L11.298 2.195C11.7506 2.02533 12.2494 2.02533 12.702 2.195ZM12 4.068L5 6.693V12.056C5.00023 13.3559 5.36239 14.63 6.04592 15.7356C6.72944 16.8413 7.70732 17.7348 8.87 18.316L12 19.883L15.13 18.318C16.293 17.7366 17.2711 16.8428 17.9546 15.7368C18.6382 14.6308 19.0001 13.3562 19 12.056V6.693L12 4.068ZM12 8C12.4269 7.99982 12.8426 8.13623 13.1864 8.38926C13.5302 8.6423 13.784 8.99869 13.9107 9.40631C14.0374 9.81393 14.0304 10.2514 13.8906 10.6547C13.7509 11.0581 13.4857 11.4061 13.134 11.648L13 11.733V15C12.9997 15.2549 12.9021 15.5 12.7272 15.6854C12.5522 15.8707 12.313 15.9822 12.0586 15.9972C11.8042 16.0121 11.5536 15.9293 11.3582 15.7657C11.1627 15.6021 11.0371 15.3701 11.007 15.117L11 15V11.733C10.6182 11.5131 10.3198 11.1733 10.151 10.7663C9.98218 10.3594 9.95247 9.90805 10.0665 9.48248C10.1805 9.05691 10.4318 8.6809 10.7814 8.41283C11.1311 8.14476 11.5594 7.99964 12 8Z" fill="currentColor"/>
</svg>
