<svg width="24" height="24" viewBox="0 0 24 24" fill="none" xmlns="http://www.w3.org/2000/svg">
<path fill-rule="evenodd" clip-rule="evenodd" d="M12.702 2.195C12.2494 2.02533 11.7506 2.02533 11.298 2.195L4.298 4.82C3.91669 4.96293 3.5881 5.21885 3.35615 5.55355C3.1242 5.88825 2.99995 6.28578 3 6.693V12.056C2.99996 13.7274 3.46537 15.3658 4.34407 16.7877C5.22277 18.2095 6.48004 19.3585 7.975 20.106L11.329 21.783C11.5373 21.8872 11.7671 21.9414 12 21.9414C12.2329 21.9414 12.4627 21.8872 12.671 21.783L16.025 20.106C17.52 19.3585 18.7772 18.2095 19.6559 16.7877C20.5346 15.3658 21 13.7274 21 12.056V6.693C21.0001 6.28578 20.8758 5.88825 20.6438 5.55355C20.4119 5.21885 20.0833 4.96293 19.702 4.82L12.702 2.195ZM11 4.443L5 6.693V12.056C5.00023 13.3559 5.36239 14.63 6.04592 15.7356C6.72944 16.8413 7.70732 17.7348 8.87 18.316L11 19.383V4.443ZM13 19.383L15.13 18.317C16.2928 17.7357 17.2708 16.8421 17.9543 15.7362C18.6379 14.6304 19 13.356 19 12.056V6.693L13 4.443V19.383Z" fill="currentColor"/>
</svg>
