<svg width="24" height="24" viewBox="0 0 24 24" fill="none" xmlns="http://www.w3.org/2000/svg">
<path d="M11.298 2.19506C11.6926 2.04741 12.1238 2.02816 12.53 2.14006L12.702 2.19506L19.702 4.82006C20.0569 4.95315 20.3667 5.18436 20.5953 5.48676C20.8239 5.78916 20.9618 6.15028 20.993 6.52806L21 6.69306V12.0561C21 13.6765 20.5624 15.2668 19.7336 16.6592C18.9048 18.0517 17.7154 19.1945 16.291 19.9671L16.025 20.1061L12.671 21.7831C12.4863 21.8753 12.2846 21.9284 12.0785 21.939C11.8723 21.9497 11.6662 21.9177 11.473 21.8451L11.329 21.7831L7.975 20.1061C6.52561 19.3813 5.29878 18.2787 4.424 16.9147C3.54923 15.5506 3.05898 13.9756 3.005 12.3561L3 12.0561V6.69306C3.00001 6.31419 3.10763 5.94311 3.31033 5.62303C3.51304 5.30295 3.8025 5.04702 4.145 4.88506L4.298 4.82006L11.298 2.19506ZM12 4.06806L5 6.69306V12.0561C5.00003 13.3111 5.33745 14.543 5.97696 15.6228C6.61646 16.7027 7.53451 17.5908 8.635 18.1941L8.87 18.3171L12 19.8821L15.13 18.3171C16.2527 17.7558 17.2039 16.903 17.8839 15.8479C18.5638 14.7929 18.9476 13.5744 18.995 12.3201L19 12.0561V6.69306L12 4.06806ZM15.433 8.62906C15.613 8.44971 15.8544 8.34558 16.1084 8.33783C16.3623 8.33007 16.6097 8.41927 16.8003 8.58731C16.9908 8.75534 17.1103 8.98961 17.1344 9.24253C17.1585 9.49545 17.0854 9.74807 16.93 9.94906L16.847 10.0431L11.613 15.2781C11.4223 15.4687 11.1683 15.5827 10.8992 15.5983C10.63 15.614 10.3645 15.5303 10.153 15.3631L10.057 15.2781L7.653 12.8741C7.47175 12.6945 7.36597 12.4525 7.35732 12.1975C7.34867 11.9425 7.4378 11.6939 7.60647 11.5025C7.77513 11.3111 8.01058 11.1914 8.26462 11.1679C8.51866 11.1444 8.77208 11.2188 8.973 11.3761L9.067 11.4591L10.835 13.2271L15.433 8.62906Z" fill="currentColor"/>
</svg>
