<svg width="24" height="24" viewBox="0 0 24 24" fill="none" xmlns="http://www.w3.org/2000/svg">
<path fill-rule="evenodd" clip-rule="evenodd" d="M12.7198 2.03998C12.9277 1.97926 13.1497 1.98768 13.3524 2.06396C13.5551 2.14024 13.7275 2.28027 13.8438 2.46298L20.8438 13.463C20.9401 13.6142 20.9939 13.7885 20.9997 13.9676C21.0055 14.1468 20.963 14.3242 20.8768 14.4813C20.7905 14.6384 20.6636 14.7695 20.5093 14.8607C20.355 14.952 20.179 15.0001 19.9998 15H12.9998C12.7346 15 12.4802 14.8946 12.2927 14.7071C12.1052 14.5196 11.9998 14.2652 11.9998 14V2.99998C11.9998 2.78361 12.07 2.57308 12.1998 2.39998C12.3296 2.22688 12.5121 2.10056 12.7198 2.03998ZM13.9998 6.43398V13H18.1778L13.9998 6.43398ZM3.18981 16.415C3.28236 16.2867 3.40405 16.1821 3.54486 16.11C3.68567 16.0378 3.84159 16.0001 3.99981 16H19.9998C20.1583 15.9999 20.3145 16.0376 20.4555 16.1097C20.5966 16.1819 20.7185 16.2866 20.8111 16.4151C20.9038 16.5436 20.9646 16.6923 20.9886 16.8489C21.0125 17.0056 20.9989 17.1656 20.9488 17.316C20.7375 17.9312 20.446 18.5159 20.0818 19.055C19.5418 19.865 18.5308 21 16.9998 21H6.99981C5.46981 21 4.45781 19.865 3.91781 19.055C3.55444 18.5163 3.26329 17.9324 3.05181 17.318C3.0021 17.1673 2.9886 17.007 3.0124 16.8501C3.03621 16.6932 3.09664 16.5442 3.18881 16.415H3.18981ZM5.61881 18C6.06881 18.654 6.54381 19 6.99981 19H16.9998C17.4568 19 17.9318 18.654 18.3808 18H5.61881ZM9.15181 5.46998C9.26689 5.28585 9.43878 5.14417 9.6415 5.06637C9.84422 4.98857 10.0668 4.97887 10.2755 5.03873C10.4842 5.09859 10.6678 5.22476 10.7985 5.39818C10.9291 5.5716 10.9998 5.78284 10.9998 5.99998V14C10.9998 14.2652 10.8944 14.5196 10.7069 14.7071C10.5194 14.8946 10.265 15 9.99981 15H4.99981C4.8213 15 4.64605 14.9522 4.49225 14.8616C4.33844 14.771 4.21169 14.6409 4.12516 14.4847C4.03863 14.3286 3.99546 14.1522 4.00015 13.9737C4.00483 13.7953 4.0572 13.6214 4.15181 13.47L9.15181 5.46998ZM8.99981 13V9.48698L6.80381 13H8.99981Z" fill="currentColor"/>
</svg>
