<svg width="24" height="24" viewBox="0 0 24 24" fill="none" xmlns="http://www.w3.org/2000/svg">
<path d="M18.5 6C18.9596 6 19.4148 6.09053 19.8394 6.26642C20.264 6.44231 20.6499 6.70012 20.9749 7.02513C21.2999 7.35013 21.5577 7.73597 21.7336 8.16061C21.9095 8.58525 22 9.04037 22 9.5C22 9.95963 21.9095 10.4148 21.7336 10.8394C21.5577 11.264 21.2999 11.6499 20.9749 11.9749C20.6499 12.2999 20.264 12.5577 19.8394 12.7336C19.4148 12.9095 18.9596 13 18.5 13H3C2.73478 13 2.48043 12.8946 2.29289 12.7071C2.10536 12.5196 2 12.2652 2 12C2 11.7348 2.10536 11.4804 2.29289 11.2929C2.48043 11.1054 2.73478 11 3 11H18.5C18.7778 10.9999 19.0502 10.9226 19.2866 10.7767C19.5231 10.6309 19.7144 10.4222 19.8393 10.174C19.9641 9.92584 20.0176 9.64785 19.9937 9.37105C19.9698 9.09425 19.8695 8.82953 19.704 8.60639C19.5385 8.38324 19.3143 8.21045 19.0563 8.10727C18.7983 8.0041 18.5168 7.97459 18.243 8.02204C17.9693 8.06949 17.7141 8.19203 17.5059 8.37601C17.2978 8.55999 17.1448 8.79817 17.064 9.064L17.03 9.199C17.0039 9.3277 16.9526 9.44998 16.8792 9.55888C16.8059 9.66778 16.7117 9.76116 16.6023 9.83368C16.4928 9.9062 16.3701 9.95645 16.2412 9.98156C16.1123 10.0067 15.9797 10.0061 15.851 9.98C15.7223 9.95387 15.6 9.90264 15.4911 9.82925C15.3822 9.75585 15.2888 9.66173 15.2163 9.55225C15.1438 9.44277 15.0935 9.32008 15.0684 9.19118C15.0433 9.06228 15.0439 8.9297 15.07 8.801C15.2312 8.01026 15.6606 7.29951 16.2857 6.78907C16.9108 6.27864 17.693 5.99988 18.5 6ZM11 3C11.7956 3 12.5587 3.31607 13.1213 3.87868C13.6839 4.44129 14 5.20435 14 6C14 6.79565 13.6839 7.55871 13.1213 8.12132C12.5587 8.68393 11.7956 9 11 9H5C4.73478 9 4.48043 8.89464 4.29289 8.70711C4.10536 8.51957 4 8.26522 4 8C4 7.73478 4.10536 7.48043 4.29289 7.29289C4.48043 7.10536 4.73478 7 5 7H11C11.1707 7 11.3385 6.95632 11.4875 6.87311C11.6365 6.78991 11.7618 6.66995 11.8513 6.52466C11.9408 6.37937 11.9917 6.21358 11.9991 6.04307C12.0064 5.87256 11.97 5.70301 11.8933 5.55055C11.8166 5.39809 11.7021 5.2678 11.5608 5.17208C11.4195 5.07636 11.2561 5.0184 11.0861 5.00371C10.916 4.98902 10.7451 5.01809 10.5894 5.08816C10.4338 5.15823 10.2987 5.26696 10.197 5.404L10.133 5.501C10.0001 5.73054 9.78151 5.8979 9.52524 5.96626C9.26897 6.03462 8.99605 5.99837 8.7665 5.8655C8.53696 5.73263 8.3696 5.51401 8.30124 5.25774C8.23288 5.00147 8.26913 4.72854 8.402 4.499C8.66543 4.04314 9.04418 3.66463 9.50022 3.40151C9.95625 3.13839 10.4735 2.99991 11 3ZM5 3C5.26522 3 5.51957 3.10536 5.70711 3.29289C5.89464 3.48043 6 3.73478 6 4C6 4.26522 5.89464 4.51957 5.70711 4.70711C5.51957 4.89464 5.26522 5 5 5C4.73478 5 4.48043 4.89464 4.29289 4.70711C4.10536 4.51957 4 4.26522 4 4C4 3.73478 4.10536 3.48043 4.29289 3.29289C4.48043 3.10536 4.73478 3 5 3ZM17 3C17.2652 3 17.5196 3.10536 17.7071 3.29289C17.8946 3.48043 18 3.73478 18 4C18 4.26522 17.8946 4.51957 17.7071 4.70711C17.5196 4.89464 17.2652 5 17 5C16.7348 5 16.4804 4.89464 16.2929 4.70711C16.1054 4.51957 16 4.26522 16 4C16 3.73478 16.1054 3.48043 16.2929 3.29289C16.4804 3.10536 16.7348 3 17 3ZM9 19C9.26522 19 9.51957 19.1054 9.70711 19.2929C9.89464 19.4804 10 19.7348 10 20C10 20.2652 9.89464 20.5196 9.70711 20.7071C9.51957 20.8946 9.26522 21 9 21C8.73478 21 8.48043 20.8946 8.29289 20.7071C8.10536 20.5196 8 20.2652 8 20C8 19.7348 8.10536 19.4804 8.29289 19.2929C8.48043 19.1054 8.73478 19 9 19ZM14.5 15C14.9053 15 15.3045 15.0985 15.6632 15.287C16.0219 15.4756 16.3295 15.7485 16.5593 16.0823C16.7891 16.4161 16.9343 16.8008 16.9824 17.2032C17.0305 17.6056 16.9801 18.0137 16.8354 18.3923C16.6908 18.7709 16.4563 19.1086 16.1521 19.3764C15.8479 19.6442 15.4832 19.834 15.0893 19.9296C14.6955 20.0251 14.2843 20.0234 13.8913 19.9247C13.4982 19.826 13.135 19.6333 12.833 19.363C12.6437 19.1933 12.5261 18.9579 12.5042 18.7047C12.4822 18.4514 12.5575 18.1993 12.7148 17.9996C12.8721 17.7999 13.0996 17.6676 13.3509 17.6296C13.6023 17.5916 13.8587 17.6507 14.068 17.795L14.167 17.873C14.2274 17.927 14.3001 17.9654 14.3787 17.9851C14.4573 18.0047 14.5395 18.005 14.6182 17.9858C14.697 17.9666 14.7699 17.9286 14.8306 17.875C14.8914 17.8215 14.9383 17.7539 14.9671 17.6782C14.996 17.6025 15.0061 17.5209 14.9964 17.4405C14.9868 17.36 14.9577 17.2831 14.9117 17.2164C14.8658 17.1496 14.8043 17.0951 14.7326 17.0574C14.6608 17.0197 14.581 17 14.5 17H7C6.73478 17 6.48043 16.8946 6.29289 16.7071C6.10536 16.5196 6 16.2652 6 16C6 15.7348 6.10536 15.4804 6.29289 15.2929C6.48043 15.1054 6.73478 15 7 15H14.5ZM21 17C21 17.2652 20.8946 17.5196 20.7071 17.7071C20.5196 17.8946 20.2652 18 20 18C19.7348 18 19.4804 17.8946 19.2929 17.7071C19.1054 17.5196 19 17.2652 19 17C19 16.7348 19.1054 16.4804 19.2929 16.2929C19.4804 16.1054 19.7348 16 20 16C20.2652 16 20.5196 16.1054 20.7071 16.2929C20.8946 16.4804 21 16.7348 21 17Z" fill="currentColor"/>
</svg>
