<svg width="24" height="24" viewBox="0 0 24 24" fill="none" xmlns="http://www.w3.org/2000/svg">
<path fill-rule="evenodd" clip-rule="evenodd" d="M15.586 3C16.1164 3.00011 16.625 3.2109 17 3.586L19.414 6C19.7891 6.37499 19.9999 6.88361 20 7.414V19C20 19.5304 19.7893 20.0391 19.4142 20.4142C19.0391 20.7893 18.5304 21 18 21H5C4.46957 21 3.96086 20.7893 3.58579 20.4142C3.21071 20.0391 3 19.5304 3 19V5C3 4.46957 3.21071 3.96086 3.58579 3.58579C3.96086 3.21071 4.46957 3 5 3H15.586ZM8 5H5V19H7V14C7 13.4696 7.21071 12.9609 7.58579 12.5858C7.96086 12.2107 8.46957 12 9 12H14C14.5304 12 15.0391 12.2107 15.4142 12.5858C15.7893 12.9609 16 13.4696 16 14V19H18V7.414L15.586 5H15V7.5C15 7.89782 14.842 8.27936 14.5607 8.56066C14.2794 8.84196 13.8978 9 13.5 9H9.5C9.10218 9 8.72064 8.84196 8.43934 8.56066C8.15804 8.27936 8 7.89782 8 7.5V5ZM14 14H9V19H14V14ZM13 5H10V7H13V5Z" fill="currentColor"/>
</svg>
