<svg width="24" height="24" viewBox="0 0 24 24" fill="none" xmlns="http://www.w3.org/2000/svg">
<path fill-rule="evenodd" clip-rule="evenodd" d="M12 4C10.1922 4.0002 8.4377 4.61272 7.02256 5.73772C5.60741 6.86272 4.61503 8.43386 4.20716 10.1951C3.79928 11.9563 3.99997 13.8038 4.7765 15.4363C5.55304 17.0689 6.85963 18.3903 8.48333 19.1852C10.107 19.9801 11.9521 20.2016 13.7178 19.8136C15.4835 19.4256 17.0658 18.451 18.2066 17.0486C19.3475 15.6463 19.9798 13.8988 20.0004 12.0911C20.021 10.2834 19.4287 8.52199 18.32 7.094L12.707 12.707C12.5184 12.8892 12.2658 12.99 12.0036 12.9877C11.7414 12.9854 11.4906 12.8802 11.3052 12.6948C11.1198 12.5094 11.0146 12.2586 11.0123 11.9964C11.01 11.7342 11.1108 11.4816 11.293 11.293L17.65 4.936C17.7438 4.84212 17.8552 4.76764 17.9778 4.71682C18.1004 4.66601 18.2318 4.63986 18.3645 4.63986C18.4972 4.63986 18.6286 4.66601 18.7512 4.71682C18.8738 4.76764 18.9852 4.84212 19.079 4.936C20.0066 5.86345 20.7421 6.9648 21.2433 8.17697C21.7446 9.38913 22.0017 10.6883 22 12C22 17.523 17.523 22 12 22C6.477 22 2 17.523 2 12C2 6.477 6.477 2 12 2C12.962 2 13.894 2.136 14.777 2.391C15.0319 2.46446 15.2471 2.63617 15.3754 2.86834C15.5037 3.10051 15.5345 3.37413 15.461 3.629C15.3875 3.88387 15.2158 4.09912 14.9837 4.2274C14.7515 4.35567 14.4779 4.38647 14.223 4.313C13.5004 4.10477 12.752 3.9994 12 4Z" fill="currentColor"/>
</svg>
