<svg width="24" height="24" viewBox="0 0 24 24" fill="none" xmlns="http://www.w3.org/2000/svg">
<path fill-rule="evenodd" clip-rule="evenodd" d="M8.82846 3C8.03322 3.00044 7.27069 3.3166 6.70846 3.879L3.70746 6.879C3.14505 7.44158 2.8291 8.20451 2.8291 9C2.8291 9.79549 3.14505 10.5584 3.70746 11.121L7.19246 14.606C7.13323 15.1722 7.20126 15.7444 7.39158 16.281C7.58189 16.8175 7.88969 17.3047 8.29246 17.707C8.69478 18.1101 9.18212 18.4182 9.71883 18.6086C10.2555 18.7991 10.828 18.8673 11.3945 18.808L12.7935 20.208C12.9811 20.3955 13.2355 20.5008 13.5008 20.5007C13.7661 20.5006 14.0205 20.3951 14.208 20.2075C14.3955 20.0199 14.5008 19.7654 14.5007 19.5001C14.5006 19.2349 14.3951 18.9805 14.2075 18.793L13.3985 17.984C13.5055 17.898 13.6085 17.806 13.7085 17.707L14.0005 17.414L15.2935 18.707C15.4821 18.8892 15.7347 18.99 15.9969 18.9877C16.2591 18.9854 16.5099 18.8802 16.6953 18.6948C16.8807 18.5094 16.9859 18.2586 16.9881 17.9964C16.9904 17.7342 16.8896 17.4816 16.7075 17.293L15.4145 16L16.0005 15.414L17.7935 17.207C17.9821 17.3892 18.2347 17.49 18.4969 17.4877C18.7591 17.4854 19.0099 17.3802 19.1953 17.1948C19.3807 17.0094 19.4859 16.7586 19.4881 16.4964C19.4904 16.2342 19.3896 15.9816 19.2075 15.793L17.4145 14L20.2935 11.121C20.8559 10.5584 21.1718 9.79549 21.1718 9C21.1718 8.20451 20.8559 7.44158 20.2935 6.879L17.2935 3.879C16.731 3.31635 15.968 3.00017 15.1725 3H8.82846ZM18.8785 9.707C19.0659 9.51947 19.1712 9.26516 19.1712 9C19.1712 8.73484 19.0659 8.48053 18.8785 8.293L15.8785 5.293C15.6912 5.1057 15.4373 5.00032 15.1725 5H8.82946C8.56427 5.00006 8.30995 5.10545 8.12246 5.293L5.12246 8.293C4.93499 8.48053 4.82967 8.73484 4.82967 9C4.82967 9.26516 4.93499 9.51947 5.12246 9.707L8.01746 12.601C8.10246 12.495 8.19546 12.391 8.29446 12.293L10.5865 10L9.29346 8.707C9.1113 8.5184 9.01051 8.2658 9.01279 8.0036C9.01507 7.7414 9.12023 7.49059 9.30564 7.30518C9.49105 7.11977 9.74186 7.0146 10.0041 7.01233C10.2663 7.01005 10.5189 7.11084 10.7075 7.293L12.0005 8.586L14.2935 6.293C14.3857 6.19749 14.4961 6.12131 14.6181 6.0689C14.7401 6.01649 14.8713 5.9889 15.0041 5.98775C15.1368 5.9866 15.2685 6.0119 15.3914 6.06218C15.5143 6.11246 15.626 6.18671 15.7199 6.2806C15.8137 6.3745 15.888 6.48615 15.9383 6.60905C15.9886 6.73194 16.0139 6.86362 16.0127 6.9964C16.0116 7.12918 15.984 7.2604 15.9316 7.3824C15.8792 7.50441 15.803 7.61475 15.7075 7.707L9.70746 13.707C9.36454 14.0499 9.17188 14.515 9.17188 15C9.17188 15.485 9.36454 15.9501 9.70746 16.293C10.0504 16.6359 10.5155 16.8286 11.0005 16.8286C11.4854 16.8286 11.9505 16.6359 12.2935 16.293L18.8785 9.707Z" fill="currentColor"/>
</svg>
