<svg width="24" height="24" viewBox="0 0 24 24" fill="none" xmlns="http://www.w3.org/2000/svg">
<path d="M16 3C16.2652 3 16.5196 3.10536 16.7071 3.29289C16.8946 3.48043 17 3.73478 17 4V5H19C19.5304 5 20.0391 5.21071 20.4142 5.58579C20.7893 5.96086 21 6.46957 21 7V19C21 19.5304 20.7893 20.0391 20.4142 20.4142C20.0391 20.7893 19.5304 21 19 21H5C4.46957 21 3.96086 20.7893 3.58579 20.4142C3.21071 20.0391 3 19.5304 3 19V7C3 6.46957 3.21071 5.96086 3.58579 5.58579C3.96086 5.21071 4.46957 5 5 5H7V4C7 3.73478 7.10536 3.48043 7.29289 3.29289C7.48043 3.10536 7.73478 3 8 3C8.26522 3 8.51957 3.10536 8.70711 3.29289C8.89464 3.48043 9 3.73478 9 4V5H15V4C15 3.73478 15.1054 3.48043 15.2929 3.29289C15.4804 3.10536 15.7348 3 16 3ZM19 7H5V19H19V7ZM14.824 9.379C15.0126 9.19684 15.2652 9.09605 15.5274 9.09833C15.7896 9.1006 16.0404 9.20577 16.2258 9.39118C16.4112 9.57659 16.5164 9.8274 16.5187 10.0896C16.521 10.3518 16.4202 10.6044 16.238 10.793L11.296 15.736C11.2022 15.8299 11.0908 15.9044 10.9682 15.9552C10.8456 16.006 10.7142 16.0321 10.5815 16.0321C10.4488 16.0321 10.3174 16.006 10.1948 15.9552C10.0722 15.9044 9.9608 15.8299 9.867 15.736L7.753 13.62C7.57084 13.4314 7.47005 13.1788 7.47233 12.9166C7.4746 12.6544 7.57977 12.4036 7.76518 12.2182C7.95059 12.0328 8.2014 11.9276 8.4636 11.9253C8.7258 11.923 8.9784 12.0238 9.167 12.206L10.582 13.62L14.824 9.379Z" fill="currentColor"/>
</svg>
