<svg width="24" height="24" viewBox="0 0 24 24" fill="none" xmlns="http://www.w3.org/2000/svg">
<path fill-rule="evenodd" clip-rule="evenodd" d="M9.65518 3.40001C10.4712 3.665 11.2572 4.01491 12.0002 4.44401C12.7432 4.01491 13.5291 3.665 14.3452 3.40001C16.3892 2.75401 18.4252 2.86901 19.7782 4.22201C21.1312 5.57501 21.2462 7.61201 20.6002 9.65501C20.3352 10.471 19.9852 11.257 19.5562 12C20.0122 12.803 20.3612 13.59 20.6002 14.345C21.2462 16.388 21.1312 18.425 19.7782 19.778C18.4262 21.131 16.3882 21.246 14.3452 20.6C13.5291 20.335 12.7432 19.9851 12.0002 19.556C11.2572 19.9851 10.4712 20.335 9.65518 20.6C7.61218 21.245 5.57518 21.131 4.22218 19.778C2.86918 18.425 2.75518 16.388 3.40018 14.345C3.63918 13.589 3.98818 12.803 4.44418 12C4.01509 11.257 3.66517 10.4711 3.40018 9.65501C2.75518 7.61101 2.87018 5.57501 4.22218 4.22201C5.57518 2.86901 7.61218 2.75401 9.65518 3.40001ZM18.2902 13.909C17.7002 14.687 17.0162 15.469 16.2432 16.243C15.5126 16.9773 14.7328 17.6609 13.9092 18.289C14.2682 18.453 14.6152 18.588 14.9482 18.693C16.6462 19.229 17.7642 18.963 18.3642 18.363C18.9642 17.764 19.2302 16.645 18.6942 14.948C18.5809 14.5934 18.446 14.2461 18.2902 13.908V13.909ZM5.71018 13.909C5.55479 14.2468 5.42021 14.5938 5.30718 14.948C4.77118 16.646 5.03718 17.764 5.63718 18.364C6.23618 18.964 7.35518 19.229 9.05218 18.693C9.38618 18.588 9.73218 18.453 10.0922 18.289C9.26855 17.6609 8.48874 16.9773 7.75818 16.243C7.02355 15.5125 6.33863 14.7327 5.71018 13.909ZM12.0002 6.80001C10.9855 7.50066 10.0387 8.2948 9.17218 9.17201C8.29497 10.0386 7.50084 10.9854 6.80018 12C7.50022 13.0146 8.29368 13.9614 9.17018 14.828C10.1332 15.791 11.0862 16.578 12.0002 17.2C13.0148 16.4994 13.9616 15.7052 14.8282 14.828C15.705 13.9614 16.4988 13.0146 17.1992 12C16.4992 10.9854 15.7057 10.0386 14.8292 9.17201C13.9623 8.29477 13.0152 7.50063 12.0002 6.80001ZM12.0002 10.5C12.398 10.5 12.7795 10.658 13.0608 10.9394C13.3421 11.2207 13.5002 11.6022 13.5002 12C13.5002 12.3978 13.3421 12.7794 13.0608 13.0607C12.7795 13.342 12.398 13.5 12.0002 13.5C11.6024 13.5 11.2208 13.342 10.9395 13.0607C10.6582 12.7794 10.5002 12.3978 10.5002 12C10.5002 11.6022 10.6582 11.2207 10.9395 10.9394C11.2208 10.658 11.6024 10.5 12.0002 10.5ZM5.63618 5.63601C5.03618 6.23601 4.77118 7.35401 5.30718 9.05201C5.41218 9.38501 5.54718 9.73201 5.71118 10.092C6.30118 9.31201 6.98418 8.53101 7.75818 7.75701C8.48842 7.02276 9.2679 6.33917 10.0912 5.71101C9.75342 5.55527 9.40644 5.42035 9.05218 5.30701C7.35518 4.77101 6.23618 5.03701 5.63618 5.63601ZM14.9482 5.30701C14.6152 5.41201 14.2682 5.54701 13.9092 5.71101C14.6872 6.30101 15.4692 6.98401 16.2432 7.75701C16.9778 8.48754 17.6617 9.26735 18.2902 10.091C18.4542 9.73201 18.5882 9.38501 18.6932 9.05201C19.2302 7.35401 18.9642 6.23601 18.3642 5.63601C17.7642 5.03601 16.6462 4.77101 14.9482 5.30701Z" fill="currentColor"/>
</svg>
