<svg width="24" height="24" viewBox="0 0 24 24" fill="none" xmlns="http://www.w3.org/2000/svg">
<path fill-rule="evenodd" clip-rule="evenodd" d="M7.20011 2.02002L13.2001 12.414L13.6331 12.164C14.8963 11.4347 16.3976 11.2371 17.8065 11.6146C19.2155 11.9921 20.4167 12.9138 21.1461 14.177L21.2531 14.363C21.9538 15.5771 22.1436 17.0197 21.7807 18.3737C21.4178 19.7277 20.532 20.8821 19.3181 21.583C18.6948 21.9428 17.9542 22.0403 17.259 21.8541C16.5638 21.6679 15.9711 21.2132 15.6111 20.59L12.0001 14.336L8.39011 20.59C8.21187 20.8987 7.97457 21.1693 7.69175 21.3863C7.40893 21.6033 7.08614 21.7624 6.74181 21.8546C6.39747 21.9468 6.03835 21.9703 5.68494 21.9237C5.33154 21.8771 4.99077 21.7613 4.68211 21.583C3.46819 20.8821 2.58238 19.7277 2.21951 18.3737C1.85664 17.0197 2.04642 15.5771 2.74711 14.363L2.85411 14.177C3.58348 12.9138 4.78477 11.9921 6.19372 11.6146C7.60267 11.2371 9.10388 11.4347 10.3671 12.164L10.7991 12.414L10.8451 12.334L6.46811 4.75202C6.20291 4.29266 6.13104 3.74677 6.26831 3.23442C6.40559 2.72208 6.74077 2.28524 7.20011 2.02002ZM4.58611 15.177L4.47911 15.363C4.04362 16.1177 3.92571 17.0145 4.15131 17.8561C4.3769 18.6977 4.92753 19.4153 5.68211 19.851C6.02311 20.048 6.46011 19.931 6.65711 19.59L9.80011 14.146L9.36711 13.896C8.56333 13.4322 7.60825 13.3066 6.71189 13.5469C5.81553 13.7871 5.05025 14.3734 4.58611 15.177ZM14.6331 13.896L14.2001 14.146L17.3431 19.59C17.4378 19.7539 17.5938 19.8734 17.7766 19.9223C17.9594 19.9713 18.1542 19.9456 18.3181 19.851C19.0727 19.4153 19.6233 18.6977 19.8489 17.8561C20.0745 17.0145 19.9566 16.1177 19.5211 15.363L19.4141 15.177C18.95 14.3732 18.1855 13.7866 17.2889 13.5464C16.3923 13.3061 15.437 13.4319 14.6331 13.896ZM16.8001 2.02002C17.2362 2.2717 17.5612 2.67857 17.7105 3.15942C17.8597 3.64026 17.8221 4.1597 17.6051 4.61402L17.5321 4.75202L14.3051 10.342L13.1501 8.34202L16.8001 2.02002Z" fill="currentColor"/>
</svg>
