<svg width="24" height="24" viewBox="0 0 24 24" fill="none" xmlns="http://www.w3.org/2000/svg">
<path fill-rule="evenodd" clip-rule="evenodd" d="M6.23808 4.65905C6.08734 4.44389 5.98047 4.20115 5.92356 3.94468C5.86666 3.68821 5.86084 3.42305 5.90644 3.16433C5.95203 2.90561 6.04815 2.65841 6.1893 2.43685C6.33045 2.21529 6.51387 2.02371 6.72908 1.87305L12.0001 9.40105L17.2711 1.87305C17.4863 2.02371 17.6697 2.21529 17.8109 2.43685C17.952 2.65841 18.0481 2.90561 18.0937 3.16433C18.1393 3.42305 18.1335 3.68821 18.0766 3.94468C18.0197 4.20115 17.9128 4.44389 17.7621 4.65905L13.2211 11.145L15.4411 14.315C16.3376 13.9357 17.3417 13.8963 18.2652 14.2042C19.1887 14.5121 19.9682 15.1462 20.4576 15.9877C20.947 16.8292 21.1128 17.8203 20.9238 18.7753C20.7349 19.7302 20.2041 20.5835 19.4311 21.1752C18.6581 21.7668 17.6958 22.0563 16.7247 21.9893C15.7535 21.9223 14.8401 21.5035 14.1556 20.8113C13.4712 20.1191 13.0626 19.201 13.0065 18.2292C12.9505 17.2573 13.2508 16.2984 13.8511 15.532L12.0011 12.888L10.1491 15.533C10.7494 16.2994 11.0497 17.2583 10.9936 18.2302C10.9375 19.202 10.529 20.1201 9.84453 20.8123C9.16006 21.5045 8.24666 21.9233 7.27549 21.9903C6.30433 22.0573 5.34207 21.7678 4.56904 21.1762C3.79602 20.5845 3.2653 19.7312 3.07634 18.7763C2.88737 17.8213 3.05314 16.8302 3.54258 15.9887C4.03201 15.1472 4.81151 14.5131 5.735 14.2052C6.65849 13.8973 7.66257 13.9367 8.55908 14.316L10.7791 11.145L6.23808 4.65905ZM7.00008 16C6.46965 16 5.96094 16.2108 5.58587 16.5858C5.21079 16.9609 5.00008 17.4696 5.00008 18C5.00008 18.5305 5.21079 19.0392 5.58587 19.4143C5.96094 19.7893 6.46965 20 7.00008 20C7.53051 20 8.03922 19.7893 8.41429 19.4143C8.78937 19.0392 9.00008 18.5305 9.00008 18C9.00008 17.4696 8.78937 16.9609 8.41429 16.5858C8.03922 16.2108 7.53051 16 7.00008 16ZM17.0001 16C16.4696 16 15.9609 16.2108 15.5859 16.5858C15.2108 16.9609 15.0001 17.4696 15.0001 18C15.0001 18.5305 15.2108 19.0392 15.5859 19.4143C15.9609 19.7893 16.4696 20 17.0001 20C17.5305 20 18.0392 19.7893 18.4143 19.4143C18.7894 19.0392 19.0001 18.5305 19.0001 18C19.0001 17.4696 18.7894 16.9609 18.4143 16.5858C18.0392 16.2108 17.5305 16 17.0001 16Z" fill="currentColor"/>
</svg>
