<svg width="24" height="24" viewBox="0 0 24 24" fill="none" xmlns="http://www.w3.org/2000/svg">
<path fill-rule="evenodd" clip-rule="evenodd" d="M6 3C6.66064 2.99971 7.31106 3.16306 7.89317 3.47544C8.47528 3.78783 8.97096 4.23953 9.33593 4.7902C9.70089 5.34087 9.92379 5.97337 9.9847 6.63119C10.0456 7.28901 9.94265 7.95168 9.685 8.56L12.855 10.78L19.341 6.238C19.5561 6.08721 19.7988 5.98027 20.0552 5.92329C20.3116 5.86631 20.5768 5.8604 20.8355 5.9059C21.0942 5.95141 21.3414 6.04743 21.563 6.18848C21.7846 6.32954 21.9763 6.51287 22.127 6.728L14.599 12L22.127 17.271C21.9763 17.4862 21.7848 17.6696 21.5632 17.8108C21.3416 17.9519 21.0944 18.0481 20.8357 18.0936C20.577 18.1392 20.3118 18.1334 20.0554 18.0765C19.7989 18.0196 19.5562 17.9127 19.341 17.762L12.855 13.221L9.685 15.441C10.0644 16.3375 10.1038 17.3416 9.79586 18.2651C9.48794 19.1886 8.85382 19.9681 8.01233 20.4575C7.17084 20.9469 6.17975 21.1127 5.2248 20.9237C4.26984 20.7348 3.41657 20.2041 2.82489 19.431C2.23321 18.658 1.94374 17.6958 2.01073 16.7246C2.07771 15.7534 2.49655 14.84 3.18876 14.1556C3.88096 13.4711 4.79902 13.0625 5.77087 13.0065C6.74273 12.9504 7.70168 13.2507 8.468 13.851L11.112 12L8.468 10.148C7.96636 10.5413 7.378 10.8089 6.75195 10.9287C6.12589 11.0485 5.48028 11.017 4.86889 10.8367C4.2575 10.6564 3.69805 10.3326 3.23715 9.89234C2.77625 9.45204 2.42724 8.90797 2.21921 8.30546C2.01118 7.70295 1.95016 7.05945 2.04121 6.42858C2.13227 5.79771 2.37278 5.19773 2.74269 4.67864C3.11261 4.15955 3.60122 3.73638 4.16782 3.44438C4.73441 3.15239 5.36259 3.00003 6 3ZM6 15C5.46957 15 4.96086 15.2107 4.58579 15.5858C4.21071 15.9609 4 16.4696 4 17C4 17.5304 4.21071 18.0391 4.58579 18.4142C4.96086 18.7893 5.46957 19 6 19C6.53043 19 7.03914 18.7893 7.41421 18.4142C7.78929 18.0391 8 17.5304 8 17C8 16.4696 7.78929 15.9609 7.41421 15.5858C7.03914 15.2107 6.53043 15 6 15ZM3 11C3.26522 11 3.51957 11.1054 3.70711 11.2929C3.89464 11.4804 4 11.7348 4 12C4 12.2652 3.89464 12.5196 3.70711 12.7071C3.51957 12.8946 3.26522 13 3 13C2.73478 13 2.48043 12.8946 2.29289 12.7071C2.10536 12.5196 2 12.2652 2 12C2 11.7348 2.10536 11.4804 2.29289 11.2929C2.48043 11.1054 2.73478 11 3 11ZM7 11C7.26522 11 7.51957 11.1054 7.70711 11.2929C7.89464 11.4804 8 11.7348 8 12C8 12.2652 7.89464 12.5196 7.70711 12.7071C7.51957 12.8946 7.26522 13 7 13C6.73478 13 6.48043 12.8946 6.29289 12.7071C6.10536 12.5196 6 12.2652 6 12C6 11.7348 6.10536 11.4804 6.29289 11.2929C6.48043 11.1054 6.73478 11 7 11ZM17 11C17.2652 11 17.5196 11.1054 17.7071 11.2929C17.8946 11.4804 18 11.7348 18 12C18 12.2652 17.8946 12.5196 17.7071 12.7071C17.5196 12.8946 17.2652 13 17 13C16.7348 13 16.4804 12.8946 16.2929 12.7071C16.1054 12.5196 16 12.2652 16 12C16 11.7348 16.1054 11.4804 16.2929 11.2929C16.4804 11.1054 16.7348 11 17 11ZM21 11C21.2652 11 21.5196 11.1054 21.7071 11.2929C21.8946 11.4804 22 11.7348 22 12C22 12.2652 21.8946 12.5196 21.7071 12.7071C21.5196 12.8946 21.2652 13 21 13C20.7348 13 20.4804 12.8946 20.2929 12.7071C20.1054 12.5196 20 12.2652 20 12C20 11.7348 20.1054 11.4804 20.2929 11.2929C20.4804 11.1054 20.7348 11 21 11ZM6 5C5.46957 5 4.96086 5.21071 4.58579 5.58579C4.21071 5.96086 4 6.46957 4 7C4 7.53043 4.21071 8.03914 4.58579 8.41421C4.96086 8.78929 5.46957 9 6 9C6.53043 9 7.03914 8.78929 7.41421 8.41421C7.78929 8.03914 8 7.53043 8 7C8 6.46957 7.78929 5.96086 7.41421 5.58579C7.03914 5.21071 6.53043 5 6 5Z" fill="currentColor"/>
</svg>
