<svg width="24" height="24" viewBox="0 0 24 24" fill="none" xmlns="http://www.w3.org/2000/svg">
<path d="M6 16C6.79565 16 7.55871 16.3161 8.12132 16.8787C8.68393 17.4413 9 18.2044 9 19C9 19.7956 8.68393 20.5587 8.12132 21.1213C7.55871 21.6839 6.79565 22 6 22C5.20435 22 4.44129 21.6839 3.87868 21.1213C3.31607 20.5587 3 19.7956 3 19C3 18.2044 3.31607 17.4413 3.87868 16.8787C4.44129 16.3161 5.20435 16 6 16ZM19 16C19.7956 16 20.5587 16.3161 21.1213 16.8787C21.6839 17.4413 22 18.2044 22 19C22 19.7956 21.6839 20.5587 21.1213 21.1213C20.5587 21.6839 19.7956 22 19 22C18.2044 22 17.4413 21.6839 16.8787 21.1213C16.3161 20.5587 16 19.7956 16 19C16 18.2044 16.3161 17.4413 16.8787 16.8787C17.4413 16.3161 18.2044 16 19 16ZM6 18C5.73478 18 5.48043 18.1054 5.29289 18.2929C5.10536 18.4804 5 18.7348 5 19C5 19.2652 5.10536 19.5196 5.29289 19.7071C5.48043 19.8946 5.73478 20 6 20C6.26522 20 6.51957 19.8946 6.70711 19.7071C6.89464 19.5196 7 19.2652 7 19C7 18.7348 6.89464 18.4804 6.70711 18.2929C6.51957 18.1054 6.26522 18 6 18ZM19 18C18.7348 18 18.4804 18.1054 18.2929 18.2929C18.1054 18.4804 18 18.7348 18 19C18 19.2652 18.1054 19.5196 18.2929 19.7071C18.4804 19.8946 18.7348 20 19 20C19.2652 20 19.5196 19.8946 19.7071 19.7071C19.8946 19.5196 20 19.2652 20 19C20 18.7348 19.8946 18.4804 19.7071 18.2929C19.5196 18.1054 19.2652 18 19 18ZM18 2C18.2652 2 18.5196 2.10536 18.7071 2.29289C18.8946 2.48043 19 2.73478 19 3C19 3.26522 18.8946 3.51957 18.7071 3.70711C18.5196 3.89464 18.2652 4 18 4H17.31L19.961 13.724C20.0019 13.8738 20.0077 14.031 19.978 14.1835C19.9482 14.3359 19.8837 14.4794 19.7895 14.6028C19.6953 14.7263 19.5738 14.8263 19.4347 14.8952C19.2955 14.9641 19.1423 14.9999 18.987 15H18.231C17.7465 15 17.2715 15.1349 16.8592 15.3896C16.447 15.6443 16.1138 16.0087 15.897 16.442C15.726 16.784 15.377 17 14.994 17H10.828C9.685 17 8.926 16.34 8.172 15.586C7.98621 15.4002 7.76561 15.2527 7.52281 15.1522C7.28002 15.0516 7.01979 14.9999 6.757 15H5C4.73478 15 4.48043 14.8946 4.29289 14.7071C4.10536 14.5196 4 14.2652 4 14C4 13.7348 4.10536 13.4804 4.29289 13.2929C4.48043 13.1054 4.73478 13 5 13H6.757C7.28241 13 7.80268 13.1035 8.28809 13.3046C8.7735 13.5057 9.21453 13.8004 9.586 14.172L9.876 14.475C10.14 14.748 10.43 15 10.828 15H14.431C14.8035 14.4574 15.2879 14.0008 15.8516 13.661C16.4153 13.3212 17.0452 13.106 17.699 13.03L15.236 4H14C13.7348 4 13.4804 3.89464 13.2929 3.70711C13.1054 3.51957 13 3.26522 13 3C13 2.73478 13.1054 2.48043 13.2929 2.29289C13.4804 2.10536 13.7348 2 14 2H18Z" fill="currentColor"/>
</svg>
