<svg width="24" height="24" viewBox="0 0 24 24" fill="none" xmlns="http://www.w3.org/2000/svg">
<path fill-rule="evenodd" clip-rule="evenodd" d="M19.2636 3.36399C19.4547 3.24935 19.6787 3.20184 19.8999 3.22902C20.1211 3.2562 20.3269 3.35649 20.4846 3.51399L20.4916 3.52199C20.6497 3.6802 20.7502 3.88687 20.7771 4.10894C20.8039 4.33101 20.7555 4.55566 20.6396 4.74699L19.5716 6.50799C19.4593 6.69281 19.2902 6.83628 19.0895 6.91687C18.8889 6.99746 18.6675 7.01083 18.4586 6.95499L14.8286 10.585L15.2416 11C16.1936 11.951 16.1666 13.489 15.2326 14.423C14.787 14.8688 14.1829 15.1198 13.5526 15.121C13.484 15.1212 13.4168 15.1405 13.3585 15.1767C13.3003 15.2129 13.2532 15.2646 13.2226 15.326L12.3326 17.106C12.1881 17.3946 11.998 17.658 11.7696 17.886L8.46359 21.192C7.90101 21.7544 7.13809 22.0703 6.34259 22.0703C5.5471 22.0703 4.78418 21.7544 4.22159 21.192L2.80659 19.778C2.52796 19.4994 2.30694 19.1687 2.15614 18.8047C2.00535 18.4406 1.92773 18.0505 1.92773 17.6565C1.92773 17.2625 2.00535 16.8723 2.15614 16.5083C2.30694 16.1443 2.52796 15.8136 2.80659 15.535L6.11259 12.229C6.34069 12.0009 6.60407 11.8112 6.89259 11.667L8.67259 10.777C8.73415 10.7463 8.78594 10.6991 8.82215 10.6406C8.85836 10.5822 8.87756 10.5148 8.87759 10.446C8.87759 9.81299 9.13459 9.20798 9.57559 8.76599C10.5106 7.83198 12.0486 7.80599 12.9996 8.75699L13.4136 9.17098L17.0436 5.54099C16.9873 5.33112 17.001 5.10863 17.0826 4.90724C17.1641 4.70585 17.3091 4.53654 17.4956 4.42499L19.2636 3.36399ZM12.7056 11.292L11.5856 10.172C11.5049 10.0955 11.3974 10.0537 11.2863 10.0554C11.1751 10.0571 11.069 10.1021 10.9906 10.181C10.9202 10.2513 10.88 10.3464 10.8786 10.446C10.8786 10.8861 10.7561 11.3176 10.5247 11.6921C10.2934 12.0665 9.96228 12.3691 9.56859 12.566L7.78759 13.456C7.69136 13.5042 7.60355 13.5677 7.52759 13.644L4.22159 16.95C4.03412 17.1375 3.92881 17.3918 3.92881 17.657C3.92881 17.9221 4.03412 18.1765 4.22159 18.364L5.63559 19.778C5.82312 19.9655 6.07743 20.0708 6.34259 20.0708C6.60776 20.0708 6.86207 19.9655 7.04959 19.778L10.3556 16.472C10.4315 16.3959 10.4946 16.3081 10.5426 16.212L11.4326 14.432C11.6295 14.0383 11.9321 13.7072 12.3065 13.4758C12.681 13.2445 13.1124 13.1219 13.5526 13.122C13.6476 13.122 13.7466 13.082 13.8186 13.009C13.8976 12.9307 13.9428 12.8247 13.9447 12.7135C13.9466 12.6023 13.9049 12.4949 13.8286 12.414L12.7086 11.294L12.7056 11.292ZM7.75659 14.828C7.94423 14.6405 8.19868 14.5352 8.46395 14.5353C8.72922 14.5354 8.98359 14.6408 9.17109 14.8285C9.3586 15.0161 9.46389 15.2706 9.4638 15.5358C9.4637 15.8011 9.35823 16.0555 9.17059 16.243L7.04959 18.363C6.95794 18.4607 6.84757 18.5391 6.72505 18.5933C6.60253 18.6476 6.47036 18.6766 6.33638 18.6788C6.2024 18.681 6.06935 18.6562 5.94514 18.606C5.82092 18.5557 5.70807 18.481 5.61329 18.3863C5.5185 18.2916 5.44372 18.1788 5.39339 18.0546C5.34305 17.9304 5.31818 17.7974 5.32026 17.6634C5.32234 17.5294 5.35133 17.3972 5.4055 17.2747C5.45967 17.1521 5.53792 17.0417 5.63559 16.95L7.75659 14.828Z" fill="currentColor"/>
</svg>
