<svg width="24" height="24" viewBox="0 0 24 24" fill="none" xmlns="http://www.w3.org/2000/svg">
<path fill-rule="evenodd" clip-rule="evenodd" d="M6 7.99994C6.00018 6.94001 6.28114 5.89904 6.81429 4.98296C7.34744 4.06688 8.11374 3.30838 9.03523 2.78464C9.95672 2.2609 11.0005 1.99061 12.0604 2.00128C13.1203 2.01195 14.1584 2.30319 15.0692 2.84537C15.9799 3.38755 16.7308 4.16132 17.2454 5.08795C17.76 6.01458 18.02 7.06099 17.9988 8.1207C17.9777 9.18042 17.6762 10.2156 17.125 11.121C16.5738 12.0263 15.7927 12.7695 14.861 13.2749C14.8188 13.2967 14.7827 13.3287 14.756 13.3679C14.7511 13.3753 14.7474 13.3834 14.745 13.3919L14.86 14.9999H18C18.7956 14.9999 19.5587 15.316 20.1213 15.8786C20.6839 16.4412 21 17.2043 21 17.9999V19.9999C21 20.5304 20.7893 21.0391 20.4142 21.4142C20.0391 21.7892 19.5304 21.9999 19 21.9999H5C4.46957 21.9999 3.96086 21.7892 3.58579 21.4142C3.21071 21.0391 3 20.5304 3 19.9999V17.9999C3 17.2043 3.31607 16.4412 3.87868 15.8786C4.44129 15.316 5.20435 14.9999 6 14.9999H9.14L9.255 13.3919C9.25293 13.3835 9.24956 13.3754 9.245 13.3679C9.21798 13.3286 9.18154 13.2966 9.139 13.2749C8.18932 12.7598 7.39637 11.9977 6.84386 11.0692C6.29136 10.1408 5.99981 9.08036 6 7.99994ZM12 3.99994C11.1098 3.9994 10.2449 4.29584 9.54212 4.8423C8.83939 5.38877 8.33903 6.15404 8.12026 7.01694C7.90149 7.87984 7.97682 8.79106 8.33433 9.60632C8.69183 10.4216 9.31107 11.0943 10.094 11.5179C10.754 11.8759 11.316 12.6129 11.25 13.5329L11.135 15.1429C11.0988 15.6473 10.873 16.1193 10.5028 16.4639C10.1326 16.8084 9.6457 17 9.14 16.9999H6C5.73478 16.9999 5.48043 17.1053 5.29289 17.2928C5.10536 17.4804 5 17.7347 5 17.9999V19.9999H19V17.9999C19 17.7347 18.8946 17.4804 18.7071 17.2928C18.5196 17.1053 18.2652 16.9999 18 16.9999H14.86C14.3543 17 13.8674 16.8084 13.4972 16.4639C13.1271 16.1193 12.9012 15.6473 12.865 15.1429L12.75 13.5329C12.684 12.6129 13.247 11.8759 13.906 11.5179C14.6889 11.0943 15.3082 10.4216 15.6657 9.60632C16.0232 8.79106 16.0985 7.87984 15.8797 7.01694C15.661 6.15404 15.1606 5.38877 14.4579 4.8423C13.7551 4.29584 12.8902 3.9994 12 3.99994Z" fill="currentColor"/>
</svg>
