<svg width="24" height="24" viewBox="0 0 24 24" fill="none" xmlns="http://www.w3.org/2000/svg">
<path fill-rule="evenodd" clip-rule="evenodd" d="M10.5003 2C11.0803 2 11.6503 2.058 12.1993 2.17C12.4592 2.22278 12.6875 2.37664 12.8339 2.59775C12.9804 2.81886 13.033 3.08909 12.9803 3.349C12.9275 3.60891 12.7736 3.83721 12.5525 3.98368C12.3314 4.13014 12.0612 4.18278 11.8013 4.13C10.5417 3.87306 9.23433 3.99534 8.04431 4.48139C6.85429 4.96743 5.8351 5.7954 5.1156 6.86063C4.39611 7.92586 4.00861 9.1805 4.00211 10.4659C3.9956 11.7514 4.37038 13.0099 5.07906 14.0823C5.78774 15.1548 6.79849 15.993 7.98353 16.4911C9.16857 16.9892 10.4747 17.1247 11.7367 16.8805C12.9988 16.6363 14.1601 16.0234 15.0738 15.1193C15.9876 14.2152 16.6127 13.0604 16.8703 11.801C16.8964 11.6723 16.9476 11.55 17.021 11.4411C17.0944 11.3322 17.1885 11.2388 17.298 11.1663C17.4075 11.0938 17.5302 11.0435 17.6591 11.0184C17.788 10.9933 17.9206 10.9939 18.0493 11.02C18.1779 11.0461 18.3002 11.0974 18.4091 11.1708C18.518 11.2441 18.6114 11.3383 18.6839 11.4477C18.7565 11.5572 18.8067 11.6799 18.8318 11.8088C18.8569 11.9377 18.8564 12.0703 18.8303 12.199C18.5878 13.392 18.0908 14.5186 17.3733 15.502L17.1763 15.762L20.8283 19.414C21.0095 19.5935 21.1153 19.8356 21.1239 20.0905C21.1326 20.3455 21.0435 20.5942 20.8748 20.7856C20.7061 20.977 20.4707 21.0967 20.2166 21.1202C19.9626 21.1437 19.7092 21.0692 19.5083 20.912L19.4143 20.828L15.7623 17.176C14.6977 18.015 13.448 18.5872 12.1173 18.8449C10.7866 19.1026 9.41358 19.0384 8.11277 18.6576C6.81196 18.2768 5.62108 17.5904 4.63949 16.6557C3.6579 15.7211 2.91406 14.5652 2.47003 13.2846C2.026 12.004 1.89466 10.6357 2.08696 9.29404C2.27926 7.95235 2.78963 6.67609 3.57549 5.57175C4.36135 4.46742 5.3999 3.56702 6.60451 2.94569C7.80912 2.32436 9.14485 2.00012 10.5003 2ZM19.0003 1C19.1873 1 19.3707 1.05248 19.5294 1.15147C19.6881 1.25046 19.8159 1.392 19.8983 1.56L19.9463 1.677L20.0763 2.055C20.2135 2.45718 20.4345 2.82563 20.7248 3.13594C21.0152 3.44625 21.3681 3.69135 21.7603 3.855L21.9453 3.925L22.3233 4.054C22.5104 4.11786 22.6745 4.2358 22.7947 4.3929C22.9148 4.54999 22.9857 4.7392 22.9983 4.93658C23.011 5.13396 22.9648 5.33065 22.8656 5.50178C22.7665 5.67291 22.6188 5.8108 22.4413 5.898L22.3233 5.946L21.9453 6.076C21.5431 6.2132 21.1746 6.43428 20.8643 6.72459C20.554 7.01491 20.3089 7.36783 20.1453 7.76L20.0753 7.945L19.9463 8.323C19.8823 8.51014 19.7643 8.6741 19.6071 8.79416C19.4499 8.91423 19.2607 8.98499 19.0633 8.99752C18.866 9.01004 18.6693 8.96376 18.4982 8.86452C18.3272 8.76528 18.1894 8.61755 18.1023 8.44L18.0543 8.323L17.9243 7.945C17.7871 7.54282 17.566 7.17437 17.2757 6.86406C16.9853 6.55375 16.6324 6.30865 16.2403 6.145L16.0553 6.075L15.6773 5.946C15.4901 5.88214 15.326 5.7642 15.2059 5.6071C15.0857 5.45001 15.0148 5.2608 15.0022 5.06342C14.9896 4.86604 15.0357 4.66935 15.1349 4.49822C15.2341 4.32709 15.3817 4.1892 15.5593 4.102L15.6773 4.054L16.0553 3.924C16.4574 3.7868 16.8259 3.56572 17.1362 3.27541C17.4465 2.98509 17.6916 2.63217 17.8553 2.24L17.9253 2.055L18.0543 1.677C18.1216 1.47959 18.2491 1.30818 18.4187 1.18679C18.5883 1.06539 18.7917 1.00008 19.0003 1ZM19.0003 4.196C18.7637 4.49366 18.4939 4.7634 18.1963 5C18.4943 5.236 18.7633 5.506 19.0003 5.804C19.2363 5.506 19.5063 5.236 19.8043 5C19.5066 4.7634 19.2368 4.49366 19.0003 4.196Z" fill="currentColor"/>
</svg>
