<svg width="24" height="24" viewBox="0 0 24 24" fill="none" xmlns="http://www.w3.org/2000/svg">
<path fill-rule="evenodd" clip-rule="evenodd" d="M3.46897 16.745C3.96297 15.787 5.00797 15.145 6.27297 15.304C7.48697 15.456 8.86097 15.684 10.243 16.03C12.49 16.592 14.424 17.73 15.756 18.684L16.156 18.979L16.34 19.119L16.676 19.385L16.967 19.625L17.314 19.927C18.158 20.678 17.584 21.905 16.63 21.995L16.518 22H7.92297C7.21585 22 6.51679 21.8499 5.87193 21.5598C5.22706 21.2697 4.65107 20.8461 4.18197 20.317L4.01897 20.123L3.81897 19.874C3.04597 18.907 2.98097 17.691 3.46897 16.745ZM6.02497 17.288C5.62497 17.238 5.37197 17.419 5.24597 17.662C5.17978 17.7957 5.14992 17.9444 5.1594 18.0932C5.16888 18.2421 5.21736 18.3858 5.29997 18.51L5.38097 18.625L5.58097 18.875C5.84157 19.2006 6.16718 19.4682 6.53703 19.6609C6.90687 19.8536 7.31282 19.967 7.72897 19.994L7.92297 20H14.144C12.994 19.227 11.467 18.397 9.75797 17.97C8.52827 17.669 7.28173 17.4406 6.02497 17.288ZM19.001 2C19.621 2 20.075 2.338 20.361 2.704C20.634 3.051 20.811 3.484 20.934 3.9C21.184 4.743 21.301 5.827 21.346 6.909C21.383 7.82 21.37 8.78501 21.323 9.68501L21.281 10.345C21.211 11.313 21.101 12.16 20.977 12.717C20.444 15.115 19.512 16.564 18.469 17.354C17.47 18.11 16.312 18.274 15.554 17.894C15.223 17.729 14.902 17.432 14.636 17.124C14.3161 16.7484 14.0468 16.3325 13.835 15.887C13.369 14.912 13.082 13.594 13.552 12.184C13.843 11.311 14.404 10.767 14.898 10.36L15.216 10.104C15.779 9.656 16.247 9.27201 16.606 8.55301C16.699 8.36701 16.767 7.993 16.783 7.358L16.786 7.055L16.778 6.309C16.773 6.009 16.768 5.692 16.771 5.385C16.778 4.735 16.819 3.965 17.071 3.338C17.205 3.005 17.419 2.657 17.768 2.393C18.1244 2.12966 18.5579 1.9915 19.001 2ZM18.904 4.15C18.821 4.402 18.777 4.81 18.771 5.405V5.687L18.78 6.376C18.785 6.711 18.79 7.064 18.782 7.406C18.766 8.04801 18.706 8.826 18.395 9.447C17.96 10.319 17.402 10.884 16.905 11.307L16.615 11.547L16.462 11.668C15.867 12.142 15.593 12.385 15.45 12.816C15.186 13.606 15.33 14.379 15.64 15.024C15.793 15.347 15.98 15.619 16.153 15.82C16.233 15.914 16.302 15.981 16.352 16.026L16.427 16.09L16.522 16.086C16.655 16.075 16.916 16.022 17.262 15.76C17.809 15.345 18.558 14.385 19.025 12.283C19.067 12.092 19.109 11.847 19.148 11.562L19.204 11.105C19.214 11.025 19.222 10.942 19.23 10.857L19.277 10.327L19.316 9.759L19.332 9.464L19.355 8.858C19.3741 8.23578 19.3718 7.61307 19.348 6.991C19.305 5.964 19.196 5.074 19.016 4.468C18.985 4.35955 18.9476 4.25403 18.904 4.15Z" fill="currentColor"/>
</svg>
