<svg width="24" height="24" viewBox="0 0 24 24" fill="none" xmlns="http://www.w3.org/2000/svg">
<path d="M10.707 13.293L12 14.586L13.293 13.293C13.4816 13.1109 13.7342 13.0101 13.9964 13.0124C14.2586 13.0146 14.5094 13.1198 14.6948 13.3052C14.8802 13.4906 14.9854 13.7414 14.9877 14.0036C14.99 14.2658 14.8892 14.5184 14.707 14.707L12.707 16.707C12.5195 16.8945 12.2652 16.9998 12 16.9998C11.7348 16.9998 11.4805 16.8945 11.293 16.707L9.29301 14.707C9.1975 14.6148 9.12131 14.5044 9.0689 14.3824C9.01649 14.2604 8.98891 14.1292 8.98775 13.9964C8.9866 13.8637 9.0119 13.732 9.06218 13.6091C9.11246 13.4862 9.18672 13.3745 9.28061 13.2806C9.3745 13.1867 9.48615 13.1125 9.60905 13.0622C9.73195 13.0119 9.86363 12.9866 9.99641 12.9878C10.1292 12.9889 10.2604 13.0165 10.3824 13.0689C10.5044 13.1213 10.6148 13.1975 10.707 13.293ZM10.707 10.707L12 9.41403L13.293 10.707C13.4816 10.8892 13.7342 10.99 13.9964 10.9877C14.2586 10.9854 14.5094 10.8803 14.6948 10.6948C14.8802 10.5094 14.9854 10.2586 14.9877 9.99643C14.99 9.73423 14.8892 9.48163 14.707 9.29303L12.707 7.29303C12.5195 7.10556 12.2652 7.00024 12 7.00024C11.7348 7.00024 11.4805 7.10556 11.293 7.29303L9.29301 9.29303C9.11085 9.48163 9.01005 9.73423 9.01233 9.99643C9.01461 10.2586 9.11978 10.5094 9.30519 10.6948C9.49059 10.8803 9.74141 10.9854 10.0036 10.9877C10.2658 10.99 10.5184 10.8892 10.707 10.707Z" fill="currentColor"/>
</svg>
