<svg width="24" height="24" viewBox="0 0 24 24" fill="none" xmlns="http://www.w3.org/2000/svg">
<path fill-rule="evenodd" clip-rule="evenodd" d="M5 9C5 7.14348 5.7375 5.36301 7.05025 4.05025C8.36301 2.7375 10.1435 2 12 2C13.8565 2 15.637 2.7375 16.9497 4.05025C18.2625 5.36301 19 7.14348 19 9V10.035C20.696 10.278 22 11.737 22 13.5V13.75C21.9999 14.1836 21.913 14.6128 21.7444 15.0123C21.5759 15.4119 21.3291 15.7736 21.0186 16.0763C20.7081 16.379 20.3401 16.6164 19.9365 16.7747C19.5328 16.933 19.1015 17.0089 18.668 16.998C17.928 19.118 16.046 20.547 14.015 20.909C13.545 21.081 12.989 21 12.5 21C12.1022 21 11.7206 20.842 11.4393 20.5607C11.158 20.2794 11 19.8978 11 19.5C11 19.1022 11.158 18.7206 11.4393 18.4393C11.7206 18.158 12.1022 18 12.5 18H13.5C13.7348 18 13.9664 18.055 14.176 18.1608C14.3856 18.2666 14.5675 18.4201 14.707 18.609C16.003 17.992 17 16.689 17 15V9C17 7.67392 16.4732 6.40215 15.5355 5.46447C14.5979 4.52678 13.3261 4 12 4C10.6739 4 9.40215 4.52678 8.46447 5.46447C7.52678 6.40215 7 7.67392 7 9V15.25C7 15.7141 6.81563 16.1592 6.48744 16.4874C6.15925 16.8156 5.71413 17 5.25 17C4.38805 17 3.5614 16.6576 2.9519 16.0481C2.34241 15.4386 2 14.612 2 13.75V13.5C1.99978 12.6582 2.30296 11.8446 2.85395 11.2082C3.40495 10.5718 4.16685 10.1553 5 10.035V9ZM5 12.085C4.70742 12.1884 4.45413 12.3801 4.27503 12.6335C4.09593 12.8869 3.99984 13.1897 4 13.5V13.75C4 14.355 4.43 14.86 5 14.975V12.085ZM19 12.085V14.975C19.57 14.859 20 14.355 20 13.75V13.5C20.0002 13.1897 19.9041 12.8869 19.725 12.6335C19.5459 12.3801 19.2926 12.1884 19 12.085Z" fill="currentColor"/>
</svg>
