<svg width="24" height="24" viewBox="0 0 24 24" fill="none" xmlns="http://www.w3.org/2000/svg">
<path d="M18 3C18.5304 3 19.0391 3.21071 19.4142 3.58579C19.7893 3.96086 20 4.46957 20 5V19C20 19.5304 19.7893 20.0391 19.4142 20.4142C19.0391 20.7893 18.5304 21 18 21H6C5.46957 21 4.96086 20.7893 4.58579 20.4142C4.21071 20.0391 4 19.5304 4 19V5C4 4.46957 4.21071 3.96086 4.58579 3.58579C4.96086 3.21071 5.46957 3 6 3H18ZM18 15H6V19H18V15ZM13 16C13.2652 16 13.5196 16.1054 13.7071 16.2929C13.8946 16.4804 14 16.7348 14 17C14 17.2652 13.8946 17.5196 13.7071 17.7071C13.5196 17.8946 13.2652 18 13 18C12.7348 18 12.4804 17.8946 12.2929 17.7071C12.1054 17.5196 12 17.2652 12 17C12 16.7348 12.1054 16.4804 12.2929 16.2929C12.4804 16.1054 12.7348 16 13 16ZM16 16C16.2652 16 16.5196 16.1054 16.7071 16.2929C16.8946 16.4804 17 16.7348 17 17C17 17.2652 16.8946 17.5196 16.7071 17.7071C16.5196 17.8946 16.2652 18 16 18C15.7348 18 15.4804 17.8946 15.2929 17.7071C15.1054 17.5196 15 17.2652 15 17C15 16.7348 15.1054 16.4804 15.2929 16.2929C15.4804 16.1054 15.7348 16 16 16ZM18 10H6V13H18V10ZM18 5H6V8H18V5Z" fill="currentColor"/>
</svg>
