<svg width="24" height="24" viewBox="0 0 24 24" fill="none" xmlns="http://www.w3.org/2000/svg">
<path d="M16.2802 3C16.9676 2.99986 17.6342 3.23578 18.1684 3.66828C18.7027 4.10079 19.0722 4.70365 19.2152 5.376L19.2462 5.551L20.9532 16.851C21.0438 17.4724 21.0032 18.106 20.8343 18.7108C20.6653 19.3157 20.3716 19.8784 19.972 20.3629C19.5725 20.8475 19.0759 21.243 18.5143 21.5241C17.9527 21.8051 17.3385 21.9656 16.7112 21.995L16.5002 22H7.5002C6.87238 22.0002 6.25148 21.869 5.67741 21.6148C5.10333 21.3607 4.58879 20.9892 4.16685 20.5243C3.74491 20.0595 3.42492 19.5114 3.22744 18.9155C3.02996 18.3195 2.95937 17.6889 3.0202 17.064L3.0462 16.851L4.7542 5.551C4.85702 4.87132 5.19015 4.24757 5.69784 3.78411C6.20553 3.32066 6.85698 3.04561 7.5432 3.005L7.7202 3H16.2802ZM16.5002 15H7.5002C6.85031 14.9984 6.22535 15.25 5.75778 15.7013C5.29021 16.1527 5.01679 16.7684 4.99546 17.418C4.97413 18.0675 5.20658 18.6998 5.64354 19.1809C6.08049 19.6619 6.6876 19.9539 7.3362 19.995L7.5002 20H16.5002C17.1501 20.0016 17.775 19.75 18.2426 19.2987C18.7102 18.8473 18.9836 18.2316 19.0049 17.582C19.0263 16.9325 18.7938 16.3002 18.3569 15.8191C17.9199 15.3381 17.3128 15.0461 16.6642 15.005L16.5002 15ZM16.0002 16.5C16.2654 16.5 16.5198 16.6054 16.7073 16.7929C16.8948 16.9804 17.0002 17.2348 17.0002 17.5C17.0002 17.7652 16.8948 18.0196 16.7073 18.2071C16.5198 18.3946 16.2654 18.5 16.0002 18.5H12.0002C11.735 18.5 11.4806 18.3946 11.2931 18.2071C11.1056 18.0196 11.0002 17.7652 11.0002 17.5C11.0002 17.2348 11.1056 16.9804 11.2931 16.7929C11.4806 16.6054 11.735 16.5 12.0002 16.5H16.0002ZM8.0002 16.5C8.26541 16.5 8.51977 16.6054 8.7073 16.7929C8.89484 16.9804 9.0002 17.2348 9.0002 17.5C9.0002 17.7652 8.89484 18.0196 8.7073 18.2071C8.51977 18.3946 8.26541 18.5 8.0002 18.5C7.73498 18.5 7.48063 18.3946 7.29309 18.2071C7.10555 18.0196 7.0002 17.7652 7.0002 17.5C7.0002 17.2348 7.10555 16.9804 7.29309 16.7929C7.48063 16.6054 7.73498 16.5 8.0002 16.5ZM16.2802 5H7.7202C7.48092 4.99992 7.24955 5.08565 7.06808 5.24161C6.88662 5.39757 6.76709 5.61343 6.7312 5.85L5.5832 13.428C6.18271 13.1454 6.83742 12.9992 7.5002 13H16.5002C17.1862 13 17.8362 13.153 18.4172 13.428L17.2702 5.85C17.2343 5.61326 17.1146 5.39727 16.9329 5.24128C16.7513 5.0853 16.5196 4.99969 16.2802 5Z" fill="currentColor"/>
</svg>
