<svg width="24" height="24" viewBox="0 0 24 24" fill="none" xmlns="http://www.w3.org/2000/svg">
<path fill-rule="evenodd" clip-rule="evenodd" d="M13.4142 2.09998C13.0392 1.72504 12.5306 1.5144 12.0002 1.5144C11.4699 1.5144 10.9613 1.72504 10.5862 2.09998L8.68622 3.99998H6.00022C5.46979 3.99998 4.96108 4.21069 4.58601 4.58576C4.21093 4.96084 4.00022 5.46954 4.00022 5.99998V8.68598L2.10022 10.586C1.72528 10.961 1.51465 11.4696 1.51465 12C1.51465 12.5303 1.72528 13.0389 2.10022 13.414L4.00022 15.314V18C4.00022 18.5304 4.21093 19.0391 4.58601 19.4142C4.96108 19.7893 5.46979 20 6.00022 20H8.68622L10.5862 21.9C10.9613 22.2749 11.4699 22.4855 12.0002 22.4855C12.5306 22.4855 13.0392 22.2749 13.4142 21.9L15.3142 20H18.0002C18.5307 20 19.0394 19.7893 19.4144 19.4142C19.7895 19.0391 20.0002 18.5304 20.0002 18V15.314L21.9002 13.414C22.2752 13.0389 22.4858 12.5303 22.4858 12C22.4858 11.4696 22.2752 10.961 21.9002 10.586L20.0002 8.68598V5.99998C20.0002 5.46954 19.7895 4.96084 19.4144 4.58576C19.0394 4.21069 18.5307 3.99998 18.0002 3.99998H15.3142L13.4142 2.09998ZM12.0002 3.51598L13.9002 5.41598C14.2753 5.7901 14.7835 6.00013 15.3132 5.99998H18.0002V8.68598C18.0001 8.94877 18.0519 9.209 18.1524 9.45179C18.253 9.69459 18.4004 9.91518 18.5862 10.101L20.4862 12.001L18.5862 13.9C18.2111 14.275 18.0003 14.7836 18.0002 15.314V18H15.3142C15.0514 17.9999 14.7912 18.0516 14.5484 18.1522C14.3056 18.2527 14.085 18.4001 13.8992 18.586L11.9992 20.486L10.1002 18.586C9.72524 18.2109 9.21661 18.0001 8.68622 18H6.00022V15.314C6.0003 15.0512 5.94858 14.791 5.84803 14.5482C5.74748 14.3054 5.60007 14.0848 5.41422 13.899L3.51422 12L5.41422 10.1C5.78907 9.72524 5.99984 9.21702 6.00022 8.68698V5.99998H8.68622C9.21661 5.99986 9.72524 5.78908 10.1002 5.41398L12.0002 3.51398V3.51598ZM10.0002 12C10.0002 11.4695 10.2109 10.9608 10.586 10.5858C10.9611 10.2107 11.4698 9.99998 12.0002 9.99998C12.5307 9.99998 13.0394 10.2107 13.4144 10.5858C13.7895 10.9608 14.0002 11.4695 14.0002 12C14.0002 12.5304 13.7895 13.0391 13.4144 13.4142C13.0394 13.7893 12.5307 14 12.0002 14C11.4698 14 10.9611 13.7893 10.586 13.4142C10.2109 13.0391 10.0002 12.5304 10.0002 12ZM12.0002 7.99998C10.9394 7.99998 9.92194 8.4214 9.17179 9.17155C8.42165 9.9217 8.00022 10.9391 8.00022 12C8.00022 13.0608 8.42165 14.0783 9.17179 14.8284C9.92194 15.5786 10.9394 16 12.0002 16C13.0611 16 14.0785 15.5786 14.8286 14.8284C15.5788 14.0783 16.0002 13.0608 16.0002 12C16.0002 10.9391 15.5788 9.9217 14.8286 9.17155C14.0785 8.4214 13.0611 7.99998 12.0002 7.99998Z" fill="currentColor"/>
</svg>
