<svg width="24" height="24" viewBox="0 0 24 24" fill="none" xmlns="http://www.w3.org/2000/svg">
<path fill-rule="evenodd" clip-rule="evenodd" d="M10.7501 2.56706C11.1022 2.36367 11.4987 2.24926 11.905 2.23375C12.3114 2.21824 12.7154 2.3021 13.0821 2.47806L13.2501 2.56706L19.5441 6.20005C19.898 6.40434 20.1965 6.6923 20.4134 7.0387C20.6303 7.38511 20.7589 7.7794 20.7881 8.18706L20.7941 8.36506V15.6331C20.794 16.0416 20.6937 16.4439 20.5021 16.8048C20.3106 17.1657 20.0334 17.4741 19.6951 17.7031L19.5451 17.7981L13.2501 21.4321C12.8979 21.6354 12.5014 21.7498 12.0951 21.7654C11.6887 21.7809 11.2847 21.697 10.9181 21.5211L10.7501 21.4311L4.45605 17.8001C4.10208 17.5958 3.80359 17.3078 3.58671 16.9614C3.36984 16.615 3.2412 16.2207 3.21205 15.8131L3.20605 15.6351V8.36606C3.20626 7.95739 3.30663 7.55501 3.4984 7.19414C3.69017 6.83327 3.96748 6.52491 4.30605 6.29606L4.45605 6.20106L10.7501 2.56706ZM12.2501 4.29905C12.187 4.26267 12.1167 4.24051 12.0441 4.23412C11.9716 4.22773 11.8985 4.23726 11.8301 4.26206L11.7501 4.29905L5.45605 7.93306C5.39304 7.96948 5.33873 8.01923 5.29693 8.07881C5.25513 8.1384 5.22685 8.2064 5.21405 8.27806L5.20605 8.36606V15.6341C5.20613 15.7068 5.2221 15.7787 5.25284 15.8447C5.28359 15.9107 5.32837 15.9692 5.38405 16.0161L5.45605 16.0661L11.7501 19.7011C11.8131 19.7374 11.8834 19.7596 11.956 19.766C12.0285 19.7724 12.1016 19.7628 12.1701 19.7381L12.2501 19.7011L18.5441 16.0671C18.6073 16.0307 18.6618 15.981 18.7037 15.9214C18.7457 15.8619 18.7741 15.7938 18.7871 15.7221L18.7941 15.6341V8.36606C18.7941 8.29334 18.7783 8.22149 18.7477 8.15552C18.7172 8.08954 18.6726 8.03103 18.6171 7.98406L18.5441 7.93306L12.2501 4.29905ZM12.0001 8.00006C13.0609 8.00006 14.0783 8.42148 14.8285 9.17163C15.5786 9.92177 16.0001 10.9392 16.0001 12.0001C16.0001 13.0609 15.5786 14.0783 14.8285 14.8285C14.0783 15.5786 13.0609 16.0001 12.0001 16.0001C10.9392 16.0001 9.92177 15.5786 9.17163 14.8285C8.42148 14.0783 8.00005 13.0609 8.00005 12.0001C8.00005 10.9392 8.42148 9.92177 9.17163 9.17163C9.92177 8.42148 10.9392 8.00006 12.0001 8.00006ZM12.0001 10.0001C11.4696 10.0001 10.9609 10.2108 10.5858 10.5858C10.2108 10.9609 10.0001 11.4696 10.0001 12.0001C10.0001 12.5305 10.2108 13.0392 10.5858 13.4143C10.9609 13.7893 11.4696 14.0001 12.0001 14.0001C12.5305 14.0001 13.0392 13.7893 13.4143 13.4143C13.7893 13.0392 14.0001 12.5305 14.0001 12.0001C14.0001 11.4696 13.7893 10.9609 13.4143 10.5858C13.0392 10.2108 12.5305 10.0001 12.0001 10.0001Z" fill="currentColor"/>
</svg>
