<svg width="24" height="24" viewBox="0 0 24 24" fill="none" xmlns="http://www.w3.org/2000/svg">
<path fill-rule="evenodd" clip-rule="evenodd" d="M12 2C12.2652 2 12.5196 2.10536 12.7071 2.29289C12.8946 2.48043 13 2.73478 13 3V4.062C13.7238 4.15188 14.4318 4.34099 15.104 4.624L15.634 3.706C15.6992 3.59135 15.7864 3.49073 15.8906 3.40993C15.9949 3.32913 16.114 3.26974 16.2413 3.23519C16.3686 3.20064 16.5014 3.1916 16.6322 3.2086C16.763 3.2256 16.8891 3.26829 17.0033 3.33424C17.1175 3.40018 17.2176 3.48806 17.2977 3.59282C17.3778 3.69758 17.4364 3.81715 17.4701 3.94465C17.5038 4.07215 17.512 4.20506 17.4941 4.33572C17.4762 4.46639 17.4327 4.59223 17.366 4.706L16.835 5.626C17.415 6.066 17.933 6.585 18.375 7.166L19.295 6.634C19.4088 6.5673 19.5346 6.52377 19.6653 6.5059C19.7959 6.48804 19.9288 6.49619 20.0563 6.5299C20.1838 6.56361 20.3034 6.62221 20.4082 6.70231C20.5129 6.78242 20.6008 6.88246 20.6668 6.99667C20.7327 7.11088 20.7754 7.23701 20.7924 7.36779C20.8094 7.49857 20.8004 7.63142 20.7658 7.75869C20.7313 7.88597 20.6719 8.00515 20.5911 8.10937C20.5103 8.2136 20.4096 8.30082 20.295 8.366L19.375 8.896C19.654 9.557 19.846 10.263 19.938 11H21C21.2652 11 21.5196 11.1054 21.7071 11.2929C21.8946 11.4804 22 11.7348 22 12C22 12.2652 21.8946 12.5196 21.7071 12.7071C21.5196 12.8946 21.2652 13 21 13H19.938C19.8481 13.7238 19.659 14.4318 19.376 15.104L20.294 15.634C20.4086 15.6992 20.5093 15.7864 20.5901 15.8906C20.6709 15.9949 20.7303 16.114 20.7648 16.2413C20.7994 16.3686 20.8084 16.5014 20.7914 16.6322C20.7744 16.763 20.7317 16.8891 20.6658 17.0033C20.5998 17.1175 20.5119 17.2176 20.4072 17.2977C20.3024 17.3778 20.1828 17.4364 20.0553 17.4701C19.9278 17.5038 19.7949 17.512 19.6643 17.4941C19.5336 17.4762 19.4078 17.4327 19.294 17.366L18.374 16.835C17.9329 17.4158 17.4148 17.9339 16.834 18.375L17.366 19.295C17.4327 19.4088 17.4762 19.5346 17.4941 19.6653C17.512 19.7959 17.5038 19.9288 17.4701 20.0563C17.4364 20.1838 17.3778 20.3034 17.2977 20.4082C17.2176 20.5129 17.1175 20.6008 17.0033 20.6668C16.8891 20.7327 16.763 20.7754 16.6322 20.7924C16.5014 20.8094 16.3686 20.8004 16.2413 20.7658C16.114 20.7313 15.9949 20.6719 15.8906 20.5911C15.7864 20.5103 15.6992 20.4096 15.634 20.295L15.104 19.375C14.4319 19.6585 13.7239 19.848 13 19.938V21C13 21.2652 12.8946 21.5196 12.7071 21.7071C12.5196 21.8946 12.2652 22 12 22C11.7348 22 11.4804 21.8946 11.2929 21.7071C11.1054 21.5196 11 21.2652 11 21V19.938C10.2762 19.8481 9.56822 19.659 8.896 19.376L8.366 20.294C8.30082 20.4086 8.2136 20.5093 8.10937 20.5901C8.00515 20.6709 7.88597 20.7303 7.75869 20.7648C7.63142 20.7994 7.49857 20.8084 7.36779 20.7914C7.23701 20.7744 7.11088 20.7317 6.99667 20.6658C6.88246 20.5998 6.78242 20.5119 6.70231 20.4072C6.62221 20.3024 6.56361 20.1828 6.5299 20.0553C6.49619 19.9278 6.48804 19.7949 6.5059 19.6643C6.52377 19.5336 6.5673 19.4078 6.634 19.294L7.165 18.374C6.58424 17.9328 6.06617 17.4148 5.625 16.834L4.705 17.366C4.59123 17.4327 4.46539 17.4762 4.33472 17.4941C4.20406 17.512 4.07115 17.5038 3.94365 17.4701C3.81615 17.4364 3.69658 17.3778 3.59182 17.2977C3.48706 17.2176 3.39918 17.1175 3.33324 17.0033C3.2673 16.8891 3.2246 16.763 3.2076 16.6322C3.1906 16.5014 3.19964 16.3686 3.23419 16.2413C3.26874 16.114 3.32813 15.9949 3.40893 15.8906C3.48973 15.7864 3.59035 15.6992 3.705 15.634L4.625 15.104C4.34132 14.4319 4.15154 13.7239 4.061 13H3C2.73478 13 2.48043 12.8946 2.29289 12.7071C2.10536 12.5196 2 12.2652 2 12C2 11.7348 2.10536 11.4804 2.29289 11.2929C2.48043 11.1054 2.73478 11 3 11H4.062C4.15188 10.2762 4.34099 9.56822 4.624 8.896L3.706 8.366C3.47819 8.23245 3.31246 8.01421 3.24496 7.75892C3.17747 7.50362 3.21369 7.23199 3.34573 7.00331C3.47776 6.77462 3.69489 6.60744 3.94974 6.53825C4.20458 6.46906 4.47644 6.50348 4.706 6.634L5.626 7.165C6.066 6.585 6.585 6.067 7.166 5.625L6.634 4.705C6.50348 4.47544 6.46906 4.20358 6.53825 3.94874C6.60744 3.69389 6.77462 3.47676 7.00331 3.34473C7.23199 3.21269 7.50362 3.17647 7.75892 3.24396C8.01421 3.31146 8.23245 3.47719 8.366 3.705L8.896 4.625C9.56812 4.34131 10.2761 4.15152 11 4.061V3C11 2.73478 11.1054 2.48043 11.2929 2.29289C11.4804 2.10536 11.7348 2 12 2ZM12 13.155L7.376 15.825C7.82331 16.3637 8.36059 16.8208 8.964 17.176L9.037 17.219C9.93993 17.7326 10.9612 18.0018 12 18C12.97 18 13.886 17.77 14.697 17.361L15.037 17.176C15.6405 16.8209 16.1775 16.3634 16.624 15.824L12 13.155ZM11 6.083C10.4074 6.18238 9.83322 6.37084 9.297 6.642L9.037 6.782L8.964 6.824C8.16967 7.29128 7.49301 7.93442 6.986 8.704L6.824 8.964L6.782 9.037C6.2681 9.93985 5.99856 10.9611 6 12C6 12.63 6.097 13.24 6.278 13.81L6.375 14.093L11 11.423V6.083ZM13 6.083V11.423L17.625 14.093C17.8739 13.4233 18.0009 12.7145 18 12C18 11.03 17.77 10.114 17.361 9.303L17.218 9.037L17.186 8.982L17.176 8.964C16.7087 8.16969 16.0656 7.49303 15.296 6.986L14.963 6.781C14.4436 6.48544 13.8826 6.2697 13.299 6.141L13 6.083Z" fill="currentColor"/>
</svg>
