<svg width="24" height="24" viewBox="0 0 24 24" fill="none" xmlns="http://www.w3.org/2000/svg">
<path fill-rule="evenodd" clip-rule="evenodd" d="M4 12C3.99971 10.6076 4.36282 9.23931 5.05344 8.0303C5.74405 6.82129 6.73826 5.81345 7.93775 5.10644C9.13725 4.39943 10.5005 4.01772 11.8927 3.99905C13.285 3.98038 14.658 4.3254 15.876 5H12C11.7348 5 11.4804 5.10536 11.2929 5.29289C11.1054 5.48043 11 5.73478 11 6C11 6.26522 11.1054 6.51957 11.2929 6.70711C11.4804 6.89464 11.7348 7 12 7H18C18.077 7 18.153 6.991 18.225 6.975C18.485 7.297 18.721 7.639 18.93 8H12C11.7348 8 11.4804 8.10536 11.2929 8.29289C11.1054 8.48043 11 8.73478 11 9C11 9.26522 11.1054 9.51957 11.2929 9.70711C11.4804 9.89464 11.7348 10 12 10H19.748C19.832 10.326 19.896 10.66 19.938 11H12C11.7348 11 11.4804 11.1054 11.2929 11.2929C11.1054 11.4804 11 11.7348 11 12C11 12.2652 11.1054 12.5196 11.2929 12.7071C11.4804 12.8946 11.7348 13 12 13H19.938C19.8963 13.3371 19.8328 13.6711 19.748 14H12C11.7348 14 11.4804 14.1054 11.2929 14.2929C11.1054 14.4804 11 14.7348 11 15C11 15.2652 11.1054 15.5196 11.2929 15.7071C11.4804 15.8946 11.7348 16 12 16H18.93C18.7219 16.3594 18.4862 16.7021 18.225 17.025C18.1512 17.0082 18.0757 16.9998 18 17H12C11.7348 17 11.4804 17.1054 11.2929 17.2929C11.1054 17.4804 11 17.7348 11 18C11 18.2652 11.1054 18.5196 11.2929 18.7071C11.4804 18.8946 11.7348 19 12 19H15.876C14.658 19.6746 13.285 20.0196 11.8927 20.001C10.5005 19.9823 9.13725 19.6006 7.93775 18.8936C6.73826 18.1865 5.74405 17.1787 5.05344 15.9697C4.36282 14.7607 3.99971 13.3924 4 12ZM22 12C22 6.477 17.523 2 12 2C6.477 2 2 6.477 2 12C2 17.523 6.477 22 12 22C17.523 22 22 17.523 22 12Z" fill="currentColor"/>
</svg>
