<svg width="24" height="24" viewBox="0 0 24 24" fill="none" xmlns="http://www.w3.org/2000/svg">
<path d="M12.702 2.195L19.702 4.82C20.0833 4.96293 20.4119 5.21885 20.6438 5.55355C20.8758 5.88825 21.0001 6.28578 21 6.693V12.056C21 13.7274 20.5346 15.3658 19.6559 16.7877C18.7772 18.2095 17.52 19.3585 16.025 20.106L12.671 21.783C12.4627 21.8872 12.2329 21.9414 12 21.9414C11.7671 21.9414 11.5373 21.8872 11.329 21.783L7.975 20.106C6.48004 19.3585 5.22277 18.2095 4.34407 16.7877C3.46537 15.3658 2.99996 13.7274 3 12.056V6.693C2.99995 6.28578 3.1242 5.88825 3.35615 5.55355C3.5881 5.21885 3.91669 4.96293 4.298 4.82L11.298 2.195C11.7506 2.02533 12.2494 2.02533 12.702 2.195ZM12 4.068L5 6.693V12.056C5.00023 13.3559 5.36239 14.63 6.04592 15.7356C6.72944 16.8413 7.70732 17.7348 8.87 18.316L12 19.883L15.13 18.318C16.293 17.7366 17.2711 16.8428 17.9546 15.7368C18.6382 14.6308 19.0001 13.3562 19 12.056V6.693L12 4.068ZM12 8C12.2652 8 12.5196 8.10536 12.7071 8.29289C12.8946 8.48043 13 8.73478 13 9V11H15C15.2652 11 15.5196 11.1054 15.7071 11.2929C15.8946 11.4804 16 11.7348 16 12C16 12.2652 15.8946 12.5196 15.7071 12.7071C15.5196 12.8946 15.2652 13 15 13H13V15C13 15.2652 12.8946 15.5196 12.7071 15.7071C12.5196 15.8946 12.2652 16 12 16C11.7348 16 11.4804 15.8946 11.2929 15.7071C11.1054 15.5196 11 15.2652 11 15V13H9C8.73478 13 8.48043 12.8946 8.29289 12.7071C8.10536 12.5196 8 12.2652 8 12C8 11.7348 8.10536 11.4804 8.29289 11.2929C8.48043 11.1054 8.73478 11 9 11H11V9C11 8.73478 11.1054 8.48043 11.2929 8.29289C11.4804 8.10536 11.7348 8 12 8Z" fill="currentColor"/>
</svg>
