<svg width="24" height="24" viewBox="0 0 24 24" fill="none" xmlns="http://www.w3.org/2000/svg">
<path fill-rule="evenodd" clip-rule="evenodd" d="M9.99985 3C9.99985 2.73478 10.1052 2.48043 10.2927 2.29289C10.4803 2.10536 10.7346 2 10.9999 2H12.9999C13.2651 2 13.5194 2.10536 13.707 2.29289C13.8945 2.48043 13.9999 2.73478 13.9999 3V4.32L17.3289 4.874C17.7957 4.95209 18.2196 5.1932 18.5254 5.55446C18.8312 5.91572 18.9989 6.37371 18.9988 6.847V10.279L21.0588 10.965C21.2229 11.0197 21.3738 11.1079 21.5021 11.224C21.6303 11.34 21.7331 11.4814 21.8038 11.6392C21.8746 11.7971 21.9119 11.9678 21.9132 12.1408C21.9146 12.3137 21.8801 12.4851 21.8118 12.644L19.2908 18.527L20.4468 19.106C20.5684 19.1622 20.6775 19.2422 20.7676 19.3413C20.8576 19.4404 20.9269 19.5566 20.9712 19.683C21.0155 19.8094 21.034 19.9433 21.0255 20.077C21.017 20.2107 20.9818 20.3412 20.9219 20.461C20.862 20.5808 20.7787 20.6874 20.6768 20.7743C20.575 20.8613 20.4567 20.9269 20.329 20.9673C20.2013 21.0077 20.0668 21.022 19.9335 21.0094C19.8002 20.9968 19.6707 20.9576 19.5528 20.894L16.8938 19.565C16.6163 19.4263 16.3102 19.3541 15.9999 19.3541C15.6895 19.3541 15.3834 19.4263 15.1059 19.565L13.7888 20.224C13.2334 20.5018 12.6209 20.6464 11.9999 20.6464C11.3788 20.6464 10.7663 20.5018 10.2109 20.224L8.89385 19.565C8.61612 19.4261 8.30987 19.3538 7.99935 19.3538C7.68883 19.3538 7.38258 19.4261 7.10485 19.565L4.44685 20.895C4.20948 21.0136 3.93474 21.033 3.68307 20.9489C3.43139 20.8649 3.2234 20.6844 3.10485 20.447C2.9863 20.2096 2.9669 19.9349 3.05091 19.6832C3.13493 19.4315 3.31548 19.2236 3.55285 19.105L5.38485 18.189L2.28285 12.761C2.1911 12.6004 2.13612 12.4215 2.12188 12.2371C2.10763 12.0527 2.13448 11.8675 2.20049 11.6947C2.26649 11.522 2.37 11.366 2.50356 11.2381C2.63713 11.1102 2.79741 11.0135 2.97285 10.955L4.99985 10.279V6.847C4.99975 6.37371 5.16751 5.91572 5.47328 5.55446C5.77906 5.1932 6.20304 4.95209 6.66985 4.874L9.99985 4.32V3ZM7.24985 17.425C8.11145 17.2606 9.00322 17.3839 9.78785 17.776L11.1039 18.435C11.3817 18.574 11.6881 18.6464 11.9988 18.6464C12.3096 18.6464 12.616 18.574 12.8939 18.435L14.2099 17.776C14.7163 17.5228 15.2708 17.38 15.8366 17.3571C16.4023 17.3341 16.9665 17.4316 17.4919 17.643L19.6518 12.605L11.9999 10.055L4.47285 12.563L7.24985 17.425ZM16.9999 9.613V6.847L11.9999 6.014L6.99985 6.847V9.613L11.3668 8.157C11.7774 8.02014 12.2213 8.02014 12.6319 8.157L16.9999 9.613Z" fill="currentColor"/>
</svg>
