<svg width="24" height="24" viewBox="0 0 24 24" fill="none" xmlns="http://www.w3.org/2000/svg">
<path d="M8.024 3.001L15.847 3C15.977 3 16.105 3.002 16.231 3.029L16.355 3.065C16.8024 3.18296 17.1951 3.45225 17.4664 3.82708C17.7377 4.20191 17.8708 4.65914 17.843 5.121L17.827 5.283L17.669 6.387L18.728 6.651C19.3474 6.80587 19.9013 7.15433 20.309 7.64568C20.7167 8.13703 20.957 8.74565 20.995 9.383L21 9.562V18C21 18.7652 20.7077 19.5015 20.1827 20.0583C19.6578 20.615 18.9399 20.9501 18.176 20.995L18 21H6C5.23479 21 4.49849 20.7077 3.94174 20.1827C3.38499 19.6578 3.04989 18.9399 3.005 18.176L3 18V9.562C2.99996 8.92358 3.20359 8.30179 3.58127 7.78707C3.95895 7.27234 4.49098 6.89153 5.1 6.7L5.272 6.651L6.331 6.387L6.173 5.283C6.10737 4.82344 6.20356 4.35537 6.44511 3.95894C6.68665 3.56251 7.05851 3.2624 7.497 3.11L7.645 3.065C7.768 3.018 7.895 3.005 8.024 3.001ZM17.384 8.377L17.088 10.455C17.0545 10.6904 16.9655 10.9144 16.8283 11.1086C16.6912 11.3028 16.5099 11.4617 16.2993 11.572C16.0888 11.6824 15.855 11.7411 15.6172 11.7434C15.3795 11.7456 15.1446 11.6913 14.932 11.585L13 10.617V19H18C18.2652 19 18.5196 18.8946 18.7071 18.7071C18.8946 18.5196 19 18.2652 19 18V9.562C18.9999 9.33894 18.9253 9.1223 18.788 8.94654C18.6506 8.77078 18.4584 8.64598 18.242 8.592L17.384 8.377ZM6.615 8.377L5.757 8.591C5.55964 8.64057 5.3821 8.74918 5.24809 8.90231C5.11407 9.05544 5.02997 9.24581 5.007 9.448L5 9.562V18C5.00003 18.2449 5.08996 18.4813 5.25272 18.6644C5.41547 18.8474 5.63975 18.9643 5.883 18.993L6 19H11V10.618L9.068 11.584C8.86535 11.6854 8.64234 11.7396 8.41574 11.7425C8.18914 11.7454 7.96483 11.6969 7.75966 11.6007C7.55449 11.5044 7.37379 11.363 7.23113 11.1869C7.08848 11.0108 6.98757 10.8047 6.936 10.584L6.912 10.454L6.615 8.377ZM17 14C17.2652 14 17.5196 14.1054 17.7071 14.2929C17.8946 14.4804 18 14.7348 18 15C18 15.2652 17.8946 15.5196 17.7071 15.7071C17.5196 15.8946 17.2652 16 17 16H16C15.7348 16 15.4804 15.8946 15.2929 15.7071C15.1054 15.5196 15 15.2652 15 15C15 14.7348 15.1054 14.4804 15.2929 14.2929C15.4804 14.1054 15.7348 14 16 14H17ZM15.71 5.964L13.553 8.66L15.205 9.486L15.708 5.966L15.71 5.964ZM8.29 5.964L8.794 9.485L10.446 8.659L8.291 5.964H8.29ZM13.92 5H10.08L12 7.4L13.92 5Z" fill="currentColor"/>
</svg>
