<svg width="24" height="24" viewBox="0 0 24 24" fill="none" xmlns="http://www.w3.org/2000/svg">
<path d="M16.586 3C17.1164 3.00011 17.625 3.2109 18 3.586L20.414 6C20.7891 6.37499 20.9999 6.88361 21 7.414V19C21 19.7956 20.6839 20.5587 20.1213 21.1213C19.5587 21.6839 18.7956 22 18 22H6C5.20435 22 4.44129 21.6839 3.87868 21.1213C3.31607 20.5587 3 19.7956 3 19V7.414C3.00011 6.88361 3.2109 6.37499 3.586 6L6 3.586C6.37499 3.2109 6.88361 3.00011 7.414 3H16.586ZM19 9H5V19C5 19.2652 5.10536 19.5196 5.29289 19.7071C5.48043 19.8946 5.73478 20 6 20H18C18.2652 20 18.5196 19.8946 18.7071 19.7071C18.8946 19.5196 19 19.2652 19 19V9ZM15 11C15.2652 11 15.5196 11.1054 15.7071 11.2929C15.8946 11.4804 16 11.7348 16 12C16 13.0609 15.5786 14.0783 14.8284 14.8284C14.0783 15.5786 13.0609 16 12 16C10.9391 16 9.92172 15.5786 9.17157 14.8284C8.42143 14.0783 8 13.0609 8 12C8 11.7348 8.10536 11.4804 8.29289 11.2929C8.48043 11.1054 8.73478 11 9 11C9.26522 11 9.51957 11.1054 9.70711 11.2929C9.89464 11.4804 10 11.7348 10 12C9.99768 12.519 10.1972 13.0185 10.5564 13.3932C10.9156 13.7678 11.4063 13.9881 11.9249 14.0075C12.4436 14.027 12.9494 13.8441 13.3357 13.4975C13.722 13.1509 13.9584 12.6677 13.995 12.15L14 12C14 11.7348 14.1054 11.4804 14.2929 11.2929C14.4804 11.1054 14.7348 11 15 11ZM16.586 5H7.414L5.414 7H18.586L16.586 5Z" fill="currentColor"/>
</svg>
