<svg width="24" height="24" viewBox="0 0 24 24" fill="none" xmlns="http://www.w3.org/2000/svg">
<path d="M9.00001 19.9999C9.26523 19.9999 9.51958 20.1053 9.70712 20.2928C9.89465 20.4804 10 20.7347 10 20.9999C10 21.2652 9.89465 21.5195 9.70712 21.7071C9.51958 21.8946 9.26523 21.9999 9.00001 21.9999C8.73479 21.9999 8.48044 21.8946 8.2929 21.7071C8.10537 21.5195 8.00001 21.2652 8.00001 20.9999C8.00001 20.7347 8.10537 20.4804 8.2929 20.2928C8.48044 20.1053 8.73479 19.9999 9.00001 19.9999ZM16 19.9999C16.2652 19.9999 16.5196 20.1053 16.7071 20.2928C16.8947 20.4804 17 20.7347 17 20.9999C17 21.2652 16.8947 21.5195 16.7071 21.7071C16.5196 21.8946 16.2652 21.9999 16 21.9999C15.7348 21.9999 15.4804 21.8946 15.2929 21.7071C15.1054 21.5195 15 21.2652 15 20.9999C15 20.7347 15.1054 20.4804 15.2929 20.2928C15.4804 20.1053 15.7348 19.9999 16 19.9999ZM3.49501 2.63094L3.60001 2.70094L5.30801 3.98094C5.59867 4.19904 5.82442 4.4922 5.96101 4.82894L6.02101 4.99994H18.867C19.1381 4.99988 19.4064 5.05493 19.6556 5.16175C19.9048 5.26858 20.1296 5.42495 20.3165 5.62136C20.5033 5.81777 20.6483 6.05012 20.7426 6.3043C20.8369 6.55848 20.8786 6.82918 20.865 7.09994L20.852 7.24794L20.395 10.9029C20.2579 12.0029 19.7591 13.026 18.9771 13.8116C18.1951 14.5972 17.1743 15.1007 16.075 15.2429L15.849 15.2659L8.53601 15.8759L8.79601 16.9999H17.5C17.7549 17.0002 18 17.0978 18.1854 17.2728C18.3707 17.4478 18.4822 17.6869 18.4972 17.9413C18.5121 18.1958 18.4293 18.4463 18.2657 18.6418C18.1022 18.8372 17.8701 18.9628 17.617 18.9929L17.5 18.9999H8.79601C8.37161 19 7.95819 18.8651 7.61555 18.6147C7.27291 18.3642 7.01881 18.0113 6.89001 17.6069L6.84701 17.4499L4.10701 5.57994L2.40001 4.29994C2.20491 4.15371 2.06995 3.94124 2.02052 3.70248C1.97109 3.46372 2.0106 3.21513 2.13161 3.00345C2.25262 2.79178 2.44679 2.63161 2.67762 2.55306C2.90844 2.47452 3.16001 2.48301 3.38501 2.57694L3.49501 2.63094ZM18.867 6.99994H6.48701L8.08201 13.9059L15.682 13.2729C16.3679 13.2159 17.0134 12.9247 17.5101 12.4482C18.0068 11.9717 18.3245 11.3389 18.41 10.6559L18.867 6.99994Z" fill="currentColor"/>
</svg>
