<svg width="24" height="24" viewBox="0 0 24 24" fill="none" xmlns="http://www.w3.org/2000/svg">
<path d="M18.06 3C18.5418 3.00004 19.0073 3.17395 19.371 3.48975C19.7348 3.80556 19.9724 4.24206 20.04 4.719L20.057 4.875L20.932 18.875C20.9651 19.4003 20.7897 19.9175 20.444 20.3143C20.0982 20.7112 19.6099 20.9558 19.085 20.995L18.935 21H5.06604C4.53974 21 4.03464 20.7926 3.66024 20.4227C3.28585 20.0528 3.07236 19.5503 3.06604 19.024L3.06904 18.875L3.94404 4.875C3.97413 4.39407 4.17685 3.94017 4.51491 3.59679C4.85297 3.2534 5.30364 3.04361 5.78404 3.006L5.94004 3H18.06ZM18.06 5H5.94004L5.06504 19H18.935L18.06 5ZM15 7C15.2653 7 15.5196 7.10536 15.7071 7.29289C15.8947 7.48043 16 7.73478 16 8C16 9.06087 15.5786 10.0783 14.8285 10.8284C14.0783 11.5786 13.0609 12 12 12C10.9392 12 9.92176 11.5786 9.17161 10.8284C8.42147 10.0783 8.00004 9.06087 8.00004 8C8.00004 7.73478 8.1054 7.48043 8.29293 7.29289C8.48047 7.10536 8.73482 7 9.00004 7C9.26526 7 9.51961 7.10536 9.70715 7.29289C9.89468 7.48043 10 7.73478 10 8C9.99772 8.51898 10.1972 9.01855 10.5564 9.39315C10.9156 9.76776 11.4064 9.98807 11.925 10.0075C12.4436 10.027 12.9495 9.84412 13.3358 9.49751C13.722 9.15089 13.9584 8.6677 13.995 8.15L14 8C14 7.73478 14.1054 7.48043 14.2929 7.29289C14.4805 7.10536 14.7348 7 15 7Z" fill="currentColor"/>
</svg>
