<svg width="24" height="24" viewBox="0 0 24 24" fill="none" xmlns="http://www.w3.org/2000/svg">
<path fill-rule="evenodd" clip-rule="evenodd" d="M17.5199 4C17.7893 3.99998 18.0558 4.05436 18.3036 4.15987C18.5514 4.26537 18.7753 4.41984 18.9619 4.614L19.0819 4.751L22.1319 8.563C22.8889 9.51 22.2659 10.897 21.0919 10.995L20.9599 11H19.9999V19C19.9997 19.2549 19.9021 19.5 19.7271 19.6854C19.5521 19.8707 19.313 19.9822 19.0586 19.9972C18.8041 20.0121 18.5536 19.9293 18.3581 19.7657C18.1627 19.6021 18.0371 19.3701 18.0069 19.117L17.9999 19V11H15.9999V18C16.0001 18.5046 15.8095 18.9906 15.4664 19.3605C15.1234 19.7305 14.6531 19.9572 14.1499 19.995L13.9999 20H5.99995C5.49554 19.9999 5.0098 19.8092 4.64003 19.4662C4.27026 19.1231 4.04378 18.653 4.00595 18.15L3.99995 18V11H3.03995C1.82795 11 1.13395 9.647 1.78995 8.67L1.86995 8.563L4.91895 4.751C5.08709 4.54062 5.296 4.36637 5.53313 4.23869C5.77027 4.11102 6.03075 4.03255 6.29895 4.008L6.48195 4H17.5199ZM6.99995 11H5.99995V18H13.9999V11H12.9999V15C12.9999 15.2652 12.8946 15.5196 12.7071 15.7071C12.5195 15.8946 12.2652 16 11.9999 16H7.99995C7.73473 16 7.48038 15.8946 7.29284 15.7071C7.1053 15.5196 6.99995 15.2652 6.99995 15V11ZM10.9999 11H8.99995V14H10.9999V11ZM17.5199 6H6.47995L4.07995 9H19.9199L17.5199 6Z" fill="currentColor"/>
</svg>
