<svg width="24" height="24" viewBox="0 0 24 24" fill="none" xmlns="http://www.w3.org/2000/svg">
<path fill-rule="evenodd" clip-rule="evenodd" d="M16.2435 3.51499C16.431 3.32751 16.6853 3.2222 16.9505 3.2222C17.2157 3.2222 17.47 3.32751 17.6575 3.51499L20.4855 6.34298C20.581 6.43523 20.6572 6.54558 20.7096 6.66758C20.762 6.78958 20.7896 6.9208 20.7907 7.05358C20.7919 7.18636 20.7666 7.31804 20.7163 7.44094C20.666 7.56384 20.5918 7.67549 20.4979 7.76938C20.404 7.86327 20.2923 7.93753 20.1694 7.98781C20.0465 8.03809 19.9149 8.06339 19.7821 8.06223C19.6493 8.06108 19.5181 8.0335 19.3961 7.98109C19.2741 7.92868 19.1637 7.85249 19.0715 7.75698L18.3645 7.04999L13.4145 12L14.8295 13.414C15.0153 13.5997 15.1627 13.8202 15.2632 14.0629C15.3638 14.3056 15.4156 14.5658 15.4156 14.8285C15.4156 15.0912 15.3638 15.3513 15.2632 15.594C15.1627 15.8367 15.0153 16.0573 14.8295 16.243L12.3345 18.737C11.6779 19.3937 10.8514 19.8545 9.94759 20.0679C9.0438 20.2812 8.09845 20.2387 7.21749 19.945L6.26949 19.629C5.82718 19.4818 5.42526 19.2335 5.09563 18.9038C4.76599 18.5742 4.51771 18.1723 4.37049 17.73L4.05449 16.782C3.7608 15.901 3.71825 14.9557 3.93162 14.0519C4.14498 13.1481 4.60582 12.3216 5.26249 11.665L7.75749 9.16998C8.13254 8.79504 8.64116 8.58441 9.17149 8.58441C9.70182 8.58441 10.2104 8.79504 10.5855 9.16998L12.0005 10.586L16.9505 5.63599L16.2435 4.92898C16.056 4.74146 15.9507 4.48715 15.9507 4.22199C15.9507 3.95682 16.056 3.70251 16.2435 3.51499ZM10.5865 12L9.17249 10.586L6.67749 13.08C6.28349 13.4739 6.00697 13.9698 5.87892 14.512C5.75087 15.0542 5.77634 15.6214 5.95249 16.15L6.26949 17.099C6.3186 17.2461 6.40126 17.3798 6.51095 17.4895C6.62064 17.5992 6.75434 17.6819 6.90149 17.731L7.85049 18.047C8.37897 18.2233 8.94609 18.2489 9.48832 18.121C10.0305 17.9931 10.5265 17.7168 10.9205 17.323L13.4145 14.828L12.0005 13.414L11.2935 14.121C11.1049 14.3031 10.8523 14.4039 10.5901 14.4017C10.3279 14.3994 10.0771 14.2942 9.89167 14.1088C9.70626 13.9234 9.60109 13.6726 9.59881 13.4104C9.59654 13.1482 9.69733 12.8956 9.87949 12.707L10.5865 12Z" fill="currentColor"/>
</svg>
