<svg width="24" height="24" viewBox="0 0 24 24" fill="none" xmlns="http://www.w3.org/2000/svg">
<path d="M9.10434 18.949C9.36033 19.0177 9.57859 19.1852 9.71116 19.4147C9.84373 19.6442 9.87976 19.9169 9.81134 20.173L9.55134 21.14C9.47707 21.3897 9.30826 21.6006 9.08085 21.7278C8.85344 21.8549 8.58538 21.8883 8.33374 21.8208C8.0821 21.7533 7.86673 21.5902 7.73349 21.3663C7.60025 21.1424 7.55965 20.8754 7.62034 20.622L7.87934 19.656C7.91334 19.5291 7.972 19.4102 8.05196 19.306C8.13193 19.2018 8.23164 19.1144 8.34539 19.0488C8.45915 18.9831 8.58472 18.9405 8.71494 18.9234C8.84517 18.9063 8.97748 18.915 9.10434 18.949ZM13.7743 17.794C14.0301 17.8629 14.2482 18.0305 14.3805 18.26C14.5129 18.4894 14.5488 18.7621 14.4803 19.018L14.2223 19.984C14.1889 20.1114 14.1306 20.2309 14.0508 20.3357C13.971 20.4405 13.8713 20.5285 13.7574 20.5947C13.6435 20.6609 13.5177 20.7039 13.3871 20.7213C13.2566 20.7386 13.1239 20.7301 12.9966 20.696C12.8694 20.662 12.7501 20.6031 12.6457 20.5228C12.5413 20.4426 12.4537 20.3425 12.3881 20.2283C12.3225 20.1141 12.2801 19.988 12.2633 19.8574C12.2465 19.7267 12.2557 19.5941 12.2903 19.467L12.5493 18.501C12.618 18.245 12.7855 18.0267 13.015 17.8942C13.2445 17.7616 13.5173 17.7256 13.7733 17.794H13.7743ZM10.1393 15.085C10.2662 15.119 10.3851 15.1777 10.4893 15.2576C10.5935 15.3376 10.6809 15.4373 10.7466 15.5511C10.8122 15.6648 10.8548 15.7904 10.872 15.9206C10.8891 16.0508 10.8804 16.1831 10.8463 16.31L10.5873 17.276C10.5186 17.5322 10.351 17.7506 10.1213 17.8832C9.89153 18.0158 9.61854 18.0517 9.36234 17.983C9.10614 17.9143 8.88772 17.7467 8.75513 17.5169C8.62255 17.2872 8.58665 17.0142 8.65534 16.758L8.91534 15.792C8.98401 15.536 9.15151 15.3177 9.38102 15.1852C9.61053 15.0526 9.88328 15.0166 10.1393 15.085ZM11.5003 2C12.8227 1.99987 14.1138 2.40298 15.2011 3.15554C16.2885 3.9081 17.1206 4.97433 17.5863 6.212C18.6686 6.50933 19.6458 7.10414 20.4069 7.9289C21.1681 8.75366 21.6828 9.77533 21.8925 10.8779C22.1023 11.9804 21.9987 13.1197 21.5935 14.1664C21.1883 15.213 20.4978 16.1251 19.6003 16.799C19.4957 16.8811 19.3757 16.9414 19.2474 16.9765C19.1191 17.0116 18.9851 17.0208 18.8532 17.0035C18.7214 16.9862 18.5943 16.9427 18.4794 16.8757C18.3645 16.8087 18.2642 16.7194 18.1842 16.6131C18.1043 16.5068 18.0463 16.3857 18.0138 16.2567C17.9813 16.1277 17.9748 15.9936 17.9947 15.8621C18.0146 15.7306 18.0606 15.6044 18.1299 15.4909C18.1992 15.3774 18.2905 15.2788 18.3983 15.201C19.025 14.7309 19.4998 14.0871 19.7639 13.3496C20.028 12.6121 20.0698 11.8132 19.8841 11.0522C19.6984 10.2911 19.2933 9.60132 18.7192 9.06835C18.1451 8.53538 17.4271 8.18268 16.6543 8.054C16.4633 8.02235 16.2853 7.93642 16.1417 7.80646C15.9981 7.6765 15.8949 7.50798 15.8443 7.321C15.55 6.22382 14.8517 5.27854 13.8894 4.67487C12.9271 4.07119 11.7721 3.85379 10.6562 4.06629C9.54028 4.27879 8.54602 4.90547 7.87295 5.82056C7.19988 6.73565 6.8978 7.87144 7.02734 9C7.05393 9.24288 6.99158 9.48716 6.85183 9.68758C6.71209 9.888 6.50443 10.031 6.26734 10.09C5.73772 10.2239 5.25468 10.4998 4.87026 10.8879C4.48584 11.276 4.21461 11.7617 4.08581 12.2926C3.957 12.8234 3.97549 13.3794 4.13928 13.9006C4.30308 14.4217 4.60598 14.8883 5.01534 15.25C5.21425 15.4256 5.33527 15.673 5.35177 15.9378C5.36828 16.2026 5.27891 16.4631 5.10334 16.662C4.92777 16.8609 4.68037 16.9819 4.41557 16.9984C4.15076 17.0149 3.89025 16.9256 3.69134 16.75C3.06046 16.1938 2.5801 15.4874 2.2947 14.6962C2.0093 13.905 1.9281 13.0546 2.05861 12.2238C2.18911 11.3929 2.52711 10.6083 3.04131 9.94274C3.55552 9.27716 4.22931 8.75204 5.00034 8.416C5.02243 6.70669 5.71699 5.07489 6.93359 3.87401C8.15019 2.67313 9.79089 1.99986 11.5003 2ZM14.8093 13.93C14.9362 13.964 15.0551 14.0227 15.1593 14.1026C15.2635 14.1826 15.3509 14.2823 15.4166 14.3961C15.4822 14.5098 15.5248 14.6354 15.542 14.7656C15.5591 14.8958 15.5504 15.0281 15.5163 15.155L15.2563 16.121C15.1821 16.3707 15.0133 16.5816 14.7858 16.7088C14.5584 16.8359 14.2904 16.8693 14.0387 16.8018C13.7871 16.7343 13.5717 16.5712 13.4385 16.3473C13.3053 16.1234 13.2647 15.8564 13.3253 15.603L13.5843 14.637C13.6183 14.5101 13.677 14.3912 13.757 14.287C13.8369 14.1828 13.9366 14.0954 14.0504 14.0298C14.1641 13.9641 14.2897 13.9215 14.4199 13.9044C14.5502 13.8873 14.6825 13.896 14.8093 13.93Z" fill="currentColor"/>
</svg>
