<svg width="24" height="24" viewBox="0 0 24 24" fill="none" xmlns="http://www.w3.org/2000/svg">
<path fill-rule="evenodd" clip-rule="evenodd" d="M8 3C8 2.73478 8.10536 2.48043 8.29289 2.29289C8.48043 2.10536 8.73478 2 9 2H13C13.2652 2 13.5196 2.10536 13.7071 2.29289C13.8946 2.48043 14 2.73478 14 3C14 3.26522 13.8946 3.51957 13.7071 3.70711C13.5196 3.89464 13.2652 4 13 4V6H14.559C15.1884 6.0002 15.8019 6.19837 16.3124 6.56645C16.823 6.93454 17.2049 7.45389 17.404 8.051L18.641 11.761C18.8787 12.4743 18.9999 13.2212 19 13.973V19C19 19.7956 18.6839 20.5587 18.1213 21.1213C17.5587 21.6839 16.7956 22 16 22H8C7.20435 22 6.44129 21.6839 5.87868 21.1213C5.31607 20.5587 5 19.7956 5 19V13.974C5.00021 13.2214 5.12177 12.4739 5.36 11.76L6.595 8.051C6.79422 7.45357 7.1764 6.93398 7.68738 6.56587C8.19836 6.19775 8.81223 5.99978 9.442 6H11V4H9C8.73478 4 8.48043 3.89464 8.29289 3.70711C8.10536 3.51957 8 3.26522 8 3ZM9.442 8C9.23186 7.99974 9.02699 8.06568 8.85645 8.18847C8.68592 8.31125 8.5584 8.48463 8.492 8.684L7.722 11H10C10.2652 11 10.5196 11.1054 10.7071 11.2929C10.8946 11.4804 11 11.7348 11 12C11 12.2652 10.8946 12.5196 10.7071 12.7071C10.5196 12.8946 10.2652 13 10 13H7.096C7.03222 13.3207 7.00007 13.647 7 13.974V19C7 19.2652 7.10536 19.5196 7.29289 19.7071C7.48043 19.8946 7.73478 20 8 20H16C16.2652 20 16.5196 19.8946 16.7071 19.7071C16.8946 19.5196 17 19.2652 17 19V13.974C17 13.4363 16.9132 12.9021 16.743 12.392L15.507 8.684C15.4408 8.48512 15.3137 8.31208 15.1438 8.18934C14.9738 8.0666 14.7696 8.00037 14.56 8H9.442Z" fill="currentColor"/>
</svg>
