<svg width="24" height="24" viewBox="0 0 24 24" fill="none" xmlns="http://www.w3.org/2000/svg">
<path fill-rule="evenodd" clip-rule="evenodd" d="M12.41 3.65299C13.1062 2.89506 14.0511 2.41173 15.0732 2.29064C16.0952 2.16956 17.1268 2.41873 17.981 2.99299L18.161 3.12099L18.484 3.36299C18.9246 3.69337 19.288 4.11582 19.5488 4.60094C19.8096 5.08605 19.9615 5.62218 19.994 6.17199L20 6.39499V21C19.9997 21.2549 19.9021 21.5 19.7271 21.6854C19.5521 21.8707 19.313 21.9822 19.0586 21.9972C18.8041 22.0121 18.5536 21.9293 18.3581 21.7657C18.1627 21.6021 18.0371 21.3701 18.007 21.117L18 21V6.39499C18 6.14549 17.9479 5.89873 17.847 5.67055C17.7461 5.44237 17.5986 5.23781 17.414 5.06999L17.284 4.96299L16.961 4.72099C16.592 4.44422 16.1485 4.28453 15.6879 4.2626C15.2272 4.24068 14.7705 4.35751 14.377 4.59799L14.224 4.70099L14.982 5.13899C15.8689 5.65094 16.5256 6.48355 16.817 7.46529C17.1083 8.44703 17.012 9.50313 16.548 10.416L16.446 10.603L15.946 11.469C15.8234 11.681 15.6273 11.8406 15.3949 11.9176C15.1625 11.9947 14.9099 11.9838 14.685 11.887L14.58 11.835L5.91996 6.83499C5.70775 6.7124 5.54794 6.51615 5.47088 6.28351C5.39383 6.05086 5.40489 5.79802 5.50196 5.57299L5.55396 5.46899L6.05396 4.60299C6.56591 3.71608 7.39852 3.0593 8.38026 2.76796C9.362 2.47662 10.4181 2.57291 11.331 3.03699L11.518 3.13899L12.41 3.65299ZM6.74996 15.397C6.97963 15.5296 7.14722 15.748 7.21586 16.0042C7.2845 16.2604 7.24856 16.5333 7.11596 16.763L6.61596 17.629C6.55078 17.7436 6.46356 17.8443 6.35933 17.9251C6.25511 18.0059 6.13592 18.0652 6.00865 18.0998C5.88138 18.1344 5.74853 18.1434 5.61775 18.1264C5.48697 18.1094 5.36084 18.0667 5.24663 18.0008C5.13242 17.9348 5.03238 17.8469 4.95227 17.7422C4.87216 17.6374 4.81357 17.5178 4.77986 17.3903C4.74615 17.2628 4.738 17.1299 4.75586 16.9993C4.77373 16.8686 4.81726 16.7428 4.88396 16.629L5.38396 15.763C5.51657 15.5333 5.73499 15.3657 5.99116 15.2971C6.24733 15.2285 6.52028 15.2644 6.74996 15.397ZM8.98196 15.531C9.1087 15.3084 9.31603 15.1429 9.56119 15.0687C9.80636 14.9944 10.0707 15.0171 10.2996 15.132C10.5285 15.247 10.7046 15.4453 10.7916 15.6863C10.8786 15.9272 10.8697 16.1924 10.767 16.427L10.714 16.531L10.214 17.397C10.0861 17.6174 9.87893 17.7806 9.63478 17.8534C9.39062 17.9262 9.12787 17.9031 8.90019 17.7888C8.67251 17.6744 8.49706 17.4775 8.40967 17.2381C8.32228 16.9988 8.32954 16.7351 8.42996 16.501L8.48196 16.397L8.98196 15.531ZM5.15196 12.165C5.38163 12.2976 5.54922 12.516 5.61786 12.7722C5.6865 13.0284 5.65056 13.3013 5.51796 13.531L5.01796 14.397C4.88441 14.6248 4.66617 14.7905 4.41088 14.858C4.15558 14.9255 3.88395 14.8893 3.65526 14.7573C3.42658 14.6252 3.2594 14.4081 3.19021 14.1533C3.12102 13.8984 3.15544 13.6265 3.28596 13.397L3.78596 12.531C3.91857 12.3013 4.13699 12.1337 4.39316 12.0651C4.64933 11.9965 4.92228 12.0324 5.15196 12.165ZM8.74996 11.933C8.97963 12.0656 9.14722 12.284 9.21586 12.5402C9.2845 12.7964 9.24856 13.0693 9.11596 13.299L8.61596 14.165C8.55078 14.2796 8.46356 14.3803 8.35933 14.4611C8.25511 14.5419 8.13592 14.6012 8.00865 14.6358C7.88138 14.6704 7.74853 14.6794 7.61775 14.6624C7.48697 14.6454 7.36084 14.6027 7.24663 14.5368C7.13242 14.4708 7.03238 14.3829 6.95227 14.2782C6.87216 14.1734 6.81357 14.0538 6.77986 13.9263C6.74615 13.7988 6.738 13.6659 6.75586 13.5353C6.77373 13.4046 6.81726 13.2788 6.88396 13.165L7.38396 12.299C7.51657 12.0693 7.73499 11.9017 7.99116 11.8331C8.24733 11.7645 8.52028 11.8004 8.74996 11.933ZM10.982 12.067C11.1092 11.8455 11.3163 11.681 11.5609 11.6074C11.8055 11.5338 12.069 11.5565 12.2974 11.671C12.5257 11.7855 12.7016 11.9831 12.7889 12.2231C12.8762 12.4632 12.8684 12.7275 12.767 12.962L12.714 13.067L12.214 13.933C12.0861 14.1534 11.8789 14.3166 11.6348 14.3894C11.3906 14.4622 11.1279 14.4391 10.9002 14.3248C10.6725 14.2104 10.4971 14.0135 10.4097 13.7741C10.3223 13.5348 10.3295 13.2711 10.43 13.037L10.482 12.933L10.982 12.067ZM7.15196 8.69999C7.38163 8.8326 7.54922 9.05102 7.61786 9.30719C7.6865 9.56337 7.65056 9.83631 7.51796 10.066L7.01796 10.932C6.88441 11.1598 6.66617 11.3255 6.41088 11.393C6.15558 11.4605 5.88395 11.4243 5.65526 11.2923C5.42658 11.1602 5.2594 10.9431 5.19021 10.6883C5.12102 10.4334 5.15544 10.1615 5.28596 9.93199L5.78596 9.06599C5.91857 8.83632 6.13699 8.66873 6.39316 8.60009C6.64933 8.53145 6.92228 8.56739 7.15196 8.69999ZM7.78596 5.60199L14.714 9.60199C14.9792 9.14263 15.051 8.59674 14.9138 8.08439C14.7765 7.57205 14.4413 7.13522 13.982 6.86999L10.518 4.86999C10.0586 4.60479 9.51271 4.53292 9.00036 4.67019C8.48802 4.80747 8.05118 5.14265 7.78596 5.60199Z" fill="currentColor"/>
</svg>
