<svg width="24" height="24" viewBox="0 0 24 24" fill="none" xmlns="http://www.w3.org/2000/svg">
<path d="M6.301 5.99999C6.9545 5.99987 7.59808 6.15987 8.17544 6.46599C8.75281 6.7721 9.24639 7.21502 9.613 7.75599L9.731 7.94199L13.984 15.029C14.1475 15.3017 14.3737 15.5315 14.6438 15.6994C14.9139 15.8672 15.2201 15.9682 15.537 15.994L15.7 16H16.894L16.914 15.585L16.936 15.225L16.948 15.066C16.975 14.72 17.3 14.509 17.579 14.656L17.885 14.82L18.245 15.023L18.443 15.14L18.873 15.403L19.102 15.55L19.565 15.86L19.775 16.007L20.152 16.28L20.467 16.52L20.6 16.624C20.836 16.812 20.825 17.19 20.577 17.386L20.297 17.603L19.957 17.855L19.557 18.137L19.101 18.442L18.639 18.733L18.223 18.982L17.858 19.187L17.551 19.352C17.276 19.495 16.979 19.316 16.953 18.992L16.928 18.645L16.904 18.23L16.894 18H15.7C15.0465 18.0001 14.4029 17.8401 13.8256 17.534C13.2482 17.2279 12.7546 16.785 12.388 16.244L12.27 16.058L8.017 8.97099C7.85349 8.69827 7.62732 8.46846 7.35723 8.30064C7.08714 8.13281 6.78093 8.0318 6.464 8.00599L6.3 7.99999H4C3.74512 7.99971 3.49997 7.90212 3.31463 7.72715C3.1293 7.55218 3.01777 7.31304 3.00283 7.0586C2.98789 6.80416 3.07067 6.55362 3.23426 6.35816C3.39786 6.16271 3.6299 6.0371 3.883 6.00699L4 5.99999H6.301ZM10.015 13.643C10.242 13.7796 10.4055 14.0007 10.4696 14.2577C10.5337 14.5148 10.4932 14.7868 10.357 15.014L9.731 16.058C9.37561 16.6503 8.8729 17.1405 8.27181 17.4808C7.67072 17.8211 6.99174 18 6.301 18H4C3.73478 18 3.48043 17.8946 3.29289 17.7071C3.10536 17.5196 3 17.2652 3 17C3 16.7348 3.10536 16.4804 3.29289 16.2929C3.48043 16.1054 3.73478 16 4 16H6.301C6.64637 16 6.98586 15.9106 7.2864 15.7404C7.58695 15.5702 7.83831 15.3251 8.016 15.029L8.643 13.986C8.77928 13.7587 9.00023 13.5948 9.25731 13.5303C9.51438 13.4658 9.78654 13.5059 10.014 13.642L10.015 13.643ZM17.578 4.65499L17.884 4.81999L18.244 5.02299L18.442 5.13999L18.872 5.40299L19.101 5.54999L19.564 5.85999L19.774 6.00699L20.151 6.27999L20.466 6.51999L20.599 6.62399C20.835 6.81199 20.824 7.18999 20.576 7.38599L20.296 7.60299L19.956 7.85499C19.832 7.94499 19.699 8.03899 19.556 8.13699L19.1 8.44199L18.638 8.73299L18.222 8.98199L17.857 9.18799L17.55 9.35199C17.275 9.49499 16.978 9.31599 16.952 8.99199L16.927 8.64499L16.903 8.22999L16.893 7.99999H15.7C15.3819 7.9999 15.0683 8.07569 14.7853 8.22109C14.5024 8.36649 14.2582 8.57729 14.073 8.83599L13.985 8.97099L13.359 10.014C13.2285 10.2342 13.0185 10.3959 12.7723 10.4659C12.5261 10.5359 12.2625 10.5088 12.0356 10.3903C11.8088 10.2718 11.6361 10.0707 11.553 9.82866C11.4699 9.58658 11.4828 9.32185 11.589 9.08899L11.644 8.98499L12.27 7.94199C12.6061 7.38177 13.0743 6.9124 13.6337 6.57491C14.1931 6.23743 14.8267 6.0421 15.479 6.00599L15.699 5.99999H16.894L16.914 5.58499L16.936 5.22499L16.948 5.06599C16.975 4.71999 17.3 4.50899 17.579 4.65599L17.578 4.65499Z" fill="currentColor"/>
</svg>
