<svg width="24" height="24" viewBox="0 0 24 24" fill="none" xmlns="http://www.w3.org/2000/svg">
<path d="M17.578 3.65498C17.298 3.50898 16.974 3.71998 16.947 4.06598C16.927 4.31798 16.907 4.63298 16.893 4.99998H16.473C15.5443 4.99983 14.6339 5.25833 13.8438 5.74653C13.0538 6.23472 12.4153 6.93331 12 7.76398L11 9.76398L10 7.76398C9.58476 6.93346 8.94644 6.23498 8.15659 5.74679C7.36674 5.25861 6.45654 5.00001 5.528 4.99998H4C3.73478 4.99998 3.48043 5.10534 3.29289 5.29287C3.10536 5.48041 3 5.73476 3 5.99998C3 6.2652 3.10536 6.51955 3.29289 6.70709C3.48043 6.89462 3.73478 6.99998 4 6.99998H5.528C6.08488 7.00019 6.63071 7.15539 7.10439 7.44821C7.57807 7.74104 7.96089 8.15993 8.21 8.65798L9.882 12L8.212 15.342C7.96266 15.8405 7.57937 16.2597 7.10511 16.5525C6.63086 16.8454 6.08439 17.0003 5.527 17H4C3.73478 17 3.48043 17.1053 3.29289 17.2929C3.10536 17.4804 3 17.7348 3 18C3 18.2652 3.10536 18.5196 3.29289 18.7071C3.48043 18.8946 3.73478 19 4 19H5.528C6.45654 18.9999 7.36674 18.7414 8.15659 18.2532C8.94644 17.765 9.58476 17.0665 10 16.236L11 14.236L12 16.236C12.4152 17.0665 13.0536 17.765 13.8434 18.2532C14.6333 18.7414 15.5435 18.9999 16.472 19H16.893C16.909 19.396 16.931 19.732 16.953 19.992C16.979 20.316 17.275 20.495 17.55 20.352C17.918 20.16 18.456 19.86 19.1 19.442C19.6081 19.113 20.1006 18.7607 20.576 18.386C20.824 18.19 20.835 17.812 20.599 17.624C20.1171 17.2423 19.6172 16.8839 19.101 16.55C18.6076 16.2281 18.0993 15.9294 17.578 15.655C17.298 15.509 16.974 15.72 16.947 16.066C16.927 16.318 16.907 16.633 16.893 17H16.473C15.9158 17.0001 15.3695 16.8451 14.8955 16.5523C14.4214 16.2594 14.0383 15.8403 13.789 15.342L12.118 12L13.788 8.65798C14.0373 8.15947 14.4206 7.74028 14.8949 7.44742C15.3691 7.15457 15.9156 6.99963 16.473 6.99998H16.894C16.91 7.39598 16.932 7.73198 16.954 7.99198C16.98 8.31598 17.276 8.49498 17.551 8.35198C17.919 8.15998 18.457 7.85998 19.101 7.44198C19.6091 7.11302 20.1016 6.76064 20.577 6.38598C20.825 6.18998 20.836 5.81198 20.6 5.62398C20.118 5.24236 19.6181 4.88396 19.102 4.54998C18.6086 4.22808 18.1003 3.92942 17.579 3.65498H17.578Z" fill="currentColor"/>
</svg>
