<svg width="24" height="24" viewBox="0 0 24 24" fill="none" xmlns="http://www.w3.org/2000/svg">
<path fill-rule="evenodd" clip-rule="evenodd" d="M16.2388 4.79C15.6438 4.917 14.7828 5.268 13.6888 5.875C11.6548 7.002 8.92578 9.169 5.73978 12.673C5.6514 12.7702 5.54474 12.849 5.4259 12.905C5.30706 12.9609 5.17836 12.9929 5.04715 12.9991C4.91594 13.0054 4.78479 12.9857 4.66119 12.9412C4.53759 12.8968 4.42395 12.8284 4.32678 12.74C4.2296 12.6516 4.15078 12.545 4.09482 12.4261C4.03886 12.3073 4.00686 12.1786 4.00063 12.0474C3.99441 11.9162 4.0141 11.785 4.05856 11.6614C4.10302 11.5378 4.1714 11.4242 4.25978 11.327C7.53578 7.724 10.4318 5.393 12.7178 4.125C13.8778 3.482 14.9428 3.021 15.8248 2.835C16.6028 2.669 17.7668 2.624 18.3658 3.603C18.6368 4.046 18.6788 4.551 18.6308 5.007C18.5828 5.468 18.4338 5.972 18.2138 6.506C17.7738 7.575 16.9818 8.926 15.8168 10.576C14.4548 12.506 13.7138 13.817 13.3798 14.666C13.3141 14.8288 13.2597 14.9958 13.2168 15.166C13.3218 15.144 13.4468 15.11 13.5948 15.061C14.1498 14.876 14.8298 14.536 15.4848 14.143C16.1248 13.759 16.7048 13.481 17.2068 13.403C17.4698 13.363 17.8158 13.36 18.1528 13.529C18.5218 13.714 18.7288 14.026 18.8258 14.322C18.9688 14.761 18.9038 15.235 18.8018 15.674C18.6368 16.387 18.3588 17.069 18.1808 17.778C18.2898 17.732 18.4128 17.675 18.5528 17.606C18.7887 17.497 19.0578 17.4842 19.303 17.5701C19.5482 17.6561 19.7503 17.8342 19.8666 18.0666C19.9828 18.299 20.0039 18.5676 19.9256 18.8153C19.8472 19.0631 19.6755 19.2707 19.4468 19.394C18.7968 19.719 18.1818 19.946 17.6368 19.944C17.3025 19.9494 16.9752 19.8478 16.7028 19.654C16.4381 19.4563 16.2479 19.1752 16.1628 18.856C16.0268 18.375 16.1138 17.849 16.1958 17.484C16.3258 16.892 16.5328 16.322 16.7098 15.744C15.9058 16.201 15.1098 16.664 14.2268 16.959C13.8528 17.0909 13.4625 17.1707 13.0668 17.196C12.6928 17.211 12.1938 17.156 11.7768 16.816C11.3248 16.45 11.1738 15.924 11.1748 15.44C11.1748 14.977 11.3088 14.469 11.5188 13.934C11.9418 12.858 12.7948 11.39 14.1828 9.424C15.3128 7.824 16.0068 6.613 16.3638 5.744C16.4938 5.428 16.6278 5.084 16.6468 4.738C16.5638 4.738 16.4338 4.748 16.2388 4.79Z" fill="currentColor"/>
</svg>
