<svg width="24" height="24" viewBox="0 0 24 24" fill="none" xmlns="http://www.w3.org/2000/svg">
<path fill-rule="evenodd" clip-rule="evenodd" d="M12 2C17.523 2 22 6.477 22 12C22 17.523 17.523 22 12 22C6.477 22 2 17.523 2 12C2 6.477 6.477 2 12 2ZM12 4C9.87827 4 7.84344 4.84285 6.34315 6.34315C4.84285 7.84344 4 9.87827 4 12C4 14.1217 4.84285 16.1566 6.34315 17.6569C7.84344 19.1571 9.87827 20 12 20C14.1217 20 16.1566 19.1571 17.6569 17.6569C19.1571 16.1566 20 14.1217 20 12C20 9.87827 19.1571 7.84344 17.6569 6.34315C16.1566 4.84285 14.1217 4 12 4ZM11.207 12.793L12 13.586L12.793 12.793C12.9816 12.6108 13.2342 12.51 13.4964 12.5123C13.7586 12.5146 14.0094 12.6198 14.1948 12.8052C14.3802 12.9906 14.4854 13.2414 14.4877 13.5036C14.49 13.7658 14.3892 14.0184 14.207 14.207L13.414 15L14.207 15.793C14.3892 15.9816 14.49 16.2342 14.4877 16.4964C14.4854 16.7586 14.3802 17.0094 14.1948 17.1948C14.0094 17.3802 13.7586 17.4854 13.4964 17.4877C13.2342 17.49 12.9816 17.3892 12.793 17.207L12 16.414L11.207 17.207C11.0184 17.3892 10.7658 17.49 10.5036 17.4877C10.2414 17.4854 9.99059 17.3802 9.80518 17.1948C9.61977 17.0094 9.5146 16.7586 9.51233 16.4964C9.51005 16.2342 9.61084 15.9816 9.793 15.793L10.586 15L9.793 14.207C9.69749 14.1148 9.62131 14.0044 9.5689 13.8824C9.51649 13.7604 9.4889 13.6292 9.48775 13.4964C9.4866 13.3636 9.5119 13.2319 9.56218 13.109C9.61246 12.9861 9.68671 12.8745 9.78061 12.7806C9.8745 12.6867 9.98615 12.6125 10.109 12.5622C10.2319 12.5119 10.3636 12.4866 10.4964 12.4877C10.6292 12.4889 10.7604 12.5165 10.8824 12.5689C11.0044 12.6213 11.1148 12.6975 11.207 12.793ZM8.5 8C8.89782 8 9.27936 8.15804 9.56066 8.43934C9.84196 8.72064 10 9.10218 10 9.5C10 9.89782 9.84196 10.2794 9.56066 10.5607C9.27936 10.842 8.89782 11 8.5 11C8.10218 11 7.72064 10.842 7.43934 10.5607C7.15804 10.2794 7 9.89782 7 9.5C7 9.10218 7.15804 8.72064 7.43934 8.43934C7.72064 8.15804 8.10218 8 8.5 8ZM15.5 8C15.8978 8 16.2794 8.15804 16.5607 8.43934C16.842 8.72064 17 9.10218 17 9.5C17 9.89782 16.842 10.2794 16.5607 10.5607C16.2794 10.842 15.8978 11 15.5 11C15.1022 11 14.7206 10.842 14.4393 10.5607C14.158 10.2794 14 9.89782 14 9.5C14 9.10218 14.158 8.72064 14.4393 8.43934C14.7206 8.15804 15.1022 8 15.5 8Z" fill="currentColor"/>
</svg>
