<svg width="24" height="24" viewBox="0 0 24 24" fill="none" xmlns="http://www.w3.org/2000/svg">
<path fill-rule="evenodd" clip-rule="evenodd" d="M12 2C17.523 2 22 6.477 22 12L21.995 12.314L22 12.5C22 12.745 21.975 12.984 21.927 13.215C21.327 18.165 17.112 22 12 22C6.477 22 2 17.523 2 12C2 6.477 6.477 2 12 2ZM7 9C6.20435 9 5.44129 9.31607 4.87868 9.87868C4.31607 10.4413 4 11.2044 4 12C4 12.7956 4.31607 13.5587 4.87868 14.1213C5.44129 14.6839 6.20435 15 7 15C8.689 15 10.148 14.188 11.608 13.081L11.865 12.883L12.994 13.978L13.318 14.286C11.633 15.63 9.57 17 7 17C6.514 17 6.045 16.93 5.6 16.802C6.34474 17.7959 7.31097 18.6024 8.42195 19.1576C9.53292 19.7127 10.758 20.0012 12 20C13.4101 20.0006 14.7953 19.6283 16.0152 18.9209C17.235 18.2136 18.2461 17.1962 18.946 15.972C18.7981 15.9907 18.6491 16.0001 18.5 16C17.29 16 16.227 15.398 15.32 14.698C14.694 14.216 14.063 13.623 13.447 13.025L12.387 11.998L11.929 11.568C10.33 10.096 8.786 9 7 9ZM12 4C10.758 3.99883 9.53292 4.28728 8.42195 4.84242C7.31097 5.39756 6.34474 6.20411 5.6 7.198C6.046 7.07 6.515 7 7 7C9.43 7 11.4 8.396 13.008 9.843L13.42 10.221L13.815 10.596L15.115 11.855C15.61 12.329 16.076 12.757 16.54 13.115C17.335 13.727 17.96 14 18.5 14C18.8327 14.0001 19.1559 13.8897 19.4189 13.686C19.682 13.4824 19.8698 13.1971 19.953 12.875C19.972 12.702 19.985 12.526 19.993 12.349C19.9556 11.9791 19.7821 11.6363 19.5062 11.387C19.2304 11.1378 18.8718 10.9998 18.5 11C17.914 11 17.27 11.251 16.488 11.767C16.331 11.627 16.171 11.478 16.005 11.322L15.008 10.358C15.132 10.27 15.255 10.185 15.378 10.103C16.297 9.497 17.339 9 18.5 9C18.837 9 19.164 9.048 19.472 9.137C18.8923 7.62549 17.8677 6.32534 16.5337 5.40819C15.1997 4.49105 13.6189 4.00004 12 4Z" fill="currentColor"/>
</svg>
