<svg width="24" height="24" viewBox="0 0 24 24" fill="none" xmlns="http://www.w3.org/2000/svg">
<path fill-rule="evenodd" clip-rule="evenodd" d="M12.3539 5.99L11.6459 6.697C11.5998 6.74475 11.5446 6.78284 11.4836 6.80905C11.4226 6.83525 11.357 6.84904 11.2906 6.84962C11.2242 6.8502 11.1584 6.83755 11.097 6.81241C11.0355 6.78727 10.9797 6.75014 10.9327 6.70319C10.8858 6.65625 10.8487 6.60042 10.8235 6.53897C10.7984 6.47752 10.7857 6.41168 10.7863 6.34529C10.7869 6.27891 10.8007 6.2133 10.8269 6.15229C10.8531 6.09129 10.8912 6.03612 10.9389 5.99L11.6459 5.283C11.7397 5.18911 11.8669 5.13631 11.9996 5.13622C12.0653 5.13617 12.1303 5.14907 12.1911 5.17416C12.2518 5.19926 12.3069 5.23607 12.3534 5.2825C12.3999 5.32892 12.4368 5.38404 12.462 5.44472C12.4872 5.5054 12.5002 5.57044 12.5002 5.63614C12.5003 5.70184 12.4874 5.7669 12.4623 5.82762C12.4372 5.88833 12.4004 5.94351 12.3539 5.99ZM9.52493 4.575C9.11726 4.98249 8.86293 5.51833 8.80498 6.09181C8.74703 6.6653 8.88902 7.24119 9.20693 7.722L7.72193 9.207C7.24113 8.88909 6.66523 8.74709 6.09175 8.80504C5.51827 8.86299 4.98242 9.11733 4.57493 9.525L3.86793 10.232C3.4488 10.651 3.19216 11.2053 3.1438 11.796C3.09545 12.3867 3.25852 12.9754 3.60393 13.457C2.95888 14.4193 2.66787 15.5757 2.78057 16.7287C2.89327 17.8817 3.40271 18.9598 4.2219 19.779C5.04108 20.5982 6.11922 21.1077 7.27223 21.2204C8.42524 21.3331 9.58162 21.042 10.5439 20.397C11.0256 20.742 11.6141 20.9048 12.2046 20.8562C12.795 20.8077 13.3491 20.551 13.7679 20.132L14.4749 19.424C14.8824 19.0166 15.1365 18.4809 15.1945 17.9077C15.2524 17.3344 15.1106 16.7587 14.7929 16.278L16.2779 14.793C16.7589 15.1105 17.3347 15.2523 17.9081 15.1944C18.4814 15.1364 19.0172 14.8823 19.4249 14.475L20.1319 13.768C20.5511 13.349 20.8077 12.7947 20.8561 12.204C20.9044 11.6133 20.7413 11.0246 20.3959 10.543C21.0399 9.58073 21.3302 8.42485 21.2171 7.27251C21.104 6.12016 20.5947 5.04273 19.7759 4.22399C18.9572 3.40524 17.8798 2.8959 16.7274 2.78284C15.5751 2.66978 14.4192 2.96 13.4569 3.604C12.9753 3.25859 12.3867 3.09551 11.796 3.14387C11.2053 3.19222 10.651 3.44886 10.2319 3.868L9.52493 4.575ZM12.3539 17.303C12.4001 17.2552 12.4552 17.2171 12.5162 17.1909C12.5772 17.1647 12.6428 17.1509 12.7092 17.1504C12.7756 17.1498 12.8415 17.1624 12.9029 17.1876C12.9644 17.2127 13.0202 17.2499 13.0671 17.2968C13.1141 17.3437 13.1512 17.3996 13.1763 17.461C13.2015 17.5225 13.2141 17.5883 13.2136 17.6547C13.213 17.7211 13.1992 17.7867 13.173 17.8477C13.1468 17.9087 13.1087 17.9639 13.0609 18.01L12.3539 18.717C12.2602 18.8109 12.133 18.8637 12.0003 18.8638C11.8676 18.8639 11.7403 18.8113 11.6464 18.7175C11.5525 18.6237 11.4997 18.4965 11.4997 18.3638C11.4996 18.2312 11.5522 18.1039 11.6459 18.01L12.3539 17.303ZM13.0609 15.182L15.1819 13.062C15.0949 12.4559 15.2333 11.8388 15.5709 11.328L12.6709 8.429C12.161 8.76628 11.5452 8.90502 10.9399 8.819L8.81793 10.939C8.90476 11.5448 8.76635 12.1614 8.42893 12.672L11.3289 15.571C11.8391 15.2335 12.4553 15.0947 13.0609 15.181V15.182ZM9.91393 16.985L7.01493 14.085C6.51807 14.4137 5.92016 14.5541 5.32893 14.481C4.90888 15.0588 4.70881 15.7676 4.76473 16.4798C4.82064 17.192 5.12887 17.8608 5.63395 18.366C6.13904 18.8713 6.80783 19.1796 7.52 19.2357C8.23218 19.2918 8.941 19.0919 9.51893 18.672C9.4453 18.0806 9.58538 17.4823 9.91393 16.985ZM16.9849 9.914C17.4822 9.58545 18.0805 9.44536 18.6719 9.519C19.0913 8.94111 19.2907 8.23261 19.2345 7.52083C19.1782 6.80906 18.87 6.14067 18.3651 5.6358C17.8603 5.13093 17.1919 4.82268 16.4801 4.76645C15.7683 4.71021 15.0598 4.90967 14.4819 5.329C14.555 5.92023 14.4146 6.51813 14.0859 7.015L16.9849 9.914ZM17.3029 12.354L18.0099 11.646C18.1037 11.5521 18.2309 11.4993 18.3636 11.4992C18.4293 11.4992 18.4943 11.5121 18.5551 11.5372C18.6158 11.5623 18.6709 11.5991 18.7174 11.6455C18.7639 11.6919 18.8008 11.747 18.826 11.8077C18.8512 11.8684 18.8642 11.9334 18.8642 11.9991C18.8643 12.0648 18.8514 12.1299 18.8263 12.1906C18.8012 12.2513 18.7644 12.3065 18.7179 12.353L18.0109 13.06C17.9645 13.1065 17.9094 13.1434 17.8487 13.1686C17.788 13.1937 17.723 13.2067 17.6573 13.2068C17.5916 13.2068 17.5265 13.1939 17.4658 13.1688C17.4051 13.1437 17.3499 13.1069 17.3034 13.0605C17.2569 13.0141 17.2201 12.9589 17.1949 12.8983C17.1697 12.8376 17.1567 12.7725 17.1567 12.7068C17.1566 12.6412 17.1695 12.5761 17.1946 12.5154C17.2197 12.4547 17.2565 12.3995 17.3029 12.353V12.354ZM5.98993 12.354C5.94345 12.4004 5.88827 12.4372 5.82755 12.4623C5.76684 12.4874 5.70178 12.5003 5.63608 12.5003C5.5034 12.5002 5.37619 12.4474 5.28243 12.3535C5.18868 12.2596 5.13606 12.1323 5.13616 11.9996C5.13625 11.867 5.18905 11.7397 5.28293 11.646L5.98993 10.939C6.03606 10.8912 6.09123 10.8531 6.15223 10.8269C6.21323 10.8007 6.27884 10.7869 6.34523 10.7864C6.41162 10.7858 6.47746 10.7984 6.53891 10.8236C6.60036 10.8487 6.65618 10.8859 6.70313 10.9328C6.75008 10.9797 6.7872 11.0356 6.81234 11.097C6.83748 11.1585 6.85014 11.2243 6.84956 11.2907C6.84898 11.3571 6.83519 11.4227 6.80898 11.4837C6.78278 11.5447 6.74469 11.5999 6.69693 11.646L5.98993 12.354Z" fill="currentColor"/>
</svg>
