<svg width="24" height="24" viewBox="0 0 24 24" fill="none" xmlns="http://www.w3.org/2000/svg">
<path fill-rule="evenodd" clip-rule="evenodd" d="M17.772 11.996C17.772 9.82798 17.65 8.09698 17.544 7.00398C16.0296 7.70026 14.5489 8.46778 13.107 9.30398C11.662 10.1348 10.2571 11.0334 8.897 11.997C9.786 12.63 11.217 13.595 13.108 14.687C14.5495 15.5239 16.0298 16.2921 17.544 16.989C17.65 15.896 17.772 14.164 17.772 11.996ZM17.585 4.79998C17.7751 4.7187 17.9816 4.68279 18.188 4.69512C18.3944 4.70744 18.5951 4.76766 18.7742 4.87099C18.9534 4.97432 19.106 5.11794 19.2199 5.29047C19.3339 5.463 19.4062 5.65969 19.431 5.86498C19.545 6.77698 19.772 8.98498 19.772 11.995C19.772 15.009 19.544 17.217 19.432 18.128C19.4071 18.3331 19.3349 18.5297 19.221 18.7021C19.107 18.8746 18.9545 19.0181 18.7756 19.1214C18.5966 19.2247 18.396 19.285 18.1897 19.2974C17.9834 19.3098 17.7771 19.2741 17.587 19.193C16.747 18.837 14.74 17.938 12.108 16.418C9.478 14.9 7.695 13.612 6.967 13.061C6.8018 12.9369 6.66773 12.7761 6.5754 12.5912C6.48307 12.4064 6.435 12.2026 6.435 11.996C6.435 11.7894 6.48307 11.5856 6.5754 11.4007C6.66773 11.2159 6.8018 11.0551 6.967 10.931C7.703 10.377 9.509 9.07198 12.107 7.57098C14.705 6.07098 16.737 5.15998 17.585 4.79998ZM4 5.99998C4 5.73477 4.10536 5.48041 4.29289 5.29288C4.48043 5.10534 4.73478 4.99998 5 4.99998C5.26522 4.99998 5.51957 5.10534 5.70711 5.29288C5.89464 5.48041 6 5.73477 6 5.99998V18C6 18.2652 5.89464 18.5196 5.70711 18.7071C5.51957 18.8946 5.26522 19 5 19C4.73478 19 4.48043 18.8946 4.29289 18.7071C4.10536 18.5196 4 18.2652 4 18V5.99998Z" fill="currentColor"/>
</svg>
