<svg width="24" height="24" viewBox="0 0 24 24" fill="none" xmlns="http://www.w3.org/2000/svg">
<path fill-rule="evenodd" clip-rule="evenodd" d="M16.5067 2.13802C16.6978 2.2503 16.8462 2.42291 16.9286 2.62872C17.0109 2.83453 17.0226 3.06187 16.9617 3.27502L15.1467 9.62502C15.7967 10.197 16.3377 10.918 16.7847 11.668C17.7547 13.297 18.4127 15.157 18.7957 17.02L18.9507 17.83C19.0487 18.364 19.1337 18.968 18.8947 19.447C18.5867 20.063 17.8427 20.306 17.1167 20.429L16.7567 20.482L16.0967 20.556C14.9367 20.686 13.4597 20.75 11.9997 20.75C10.7017 20.75 9.38967 20.7 8.30067 20.597L7.24167 20.485C6.41767 20.385 5.47367 20.184 5.10567 19.447C4.89667 19.03 4.93867 18.499 5.01867 18.01L5.11367 17.486C5.47967 15.469 6.16367 13.433 7.21467 11.668C7.66167 10.918 8.20267 10.198 8.85267 9.62502L7.03867 3.27502C6.97802 3.06222 6.98967 2.83532 7.07178 2.62984C7.15389 2.42437 7.30183 2.25194 7.49243 2.13954C7.68303 2.02715 7.90553 1.98115 8.12507 2.00874C8.34461 2.03633 8.54881 2.13596 8.70567 2.29202C9.04338 2.61822 9.41138 2.91154 9.80467 3.16802C10.5047 3.63502 11.2997 4.00002 11.9997 4.00002C12.6997 4.00002 13.4947 3.63502 14.1947 3.16802C14.4857 2.97402 14.7697 2.76202 15.0347 2.53102L15.2927 2.29302C15.4493 2.13638 15.6535 2.03617 15.8732 2.00811C16.0929 1.98006 16.3157 2.02575 16.5067 2.13802ZM11.9997 10.5C11.3617 10.5 10.8317 10.648 10.5547 10.832C9.97467 11.218 9.42767 11.862 8.93267 12.692C8.00367 14.252 7.40467 16.06 7.08167 17.842C6.98867 18.352 7.16567 18.469 7.50667 18.514L7.69067 18.533L8.01067 18.557L8.12767 18.569C9.18767 18.689 10.5847 18.75 11.9997 18.75C13.2577 18.75 14.5017 18.701 15.5067 18.606L15.9897 18.557L16.4047 18.524C16.8017 18.486 17.0187 18.394 16.9187 17.843C16.5947 16.06 15.9957 14.251 15.0667 12.692C14.5727 11.862 14.0237 11.218 13.4447 10.832C13.1687 10.648 12.6377 10.5 11.9997 10.5ZM14.2657 5.42802C13.5997 5.74802 12.8197 6.00002 11.9997 6.00002C11.1797 6.00002 10.3997 5.74802 9.73367 5.42802L10.6557 8.65702C11.0958 8.55151 11.547 8.4988 11.9997 8.50002C12.4523 8.4988 12.9035 8.55151 13.3437 8.65702L14.2657 5.42802Z" fill="currentColor"/>
</svg>
