<svg width="24" height="24" viewBox="0 0 24 24" fill="none" xmlns="http://www.w3.org/2000/svg">
<path fill-rule="evenodd" clip-rule="evenodd" d="M12.0004 2C13.8789 1.9997 15.7104 2.5872 17.2382 3.68014C18.766 4.77308 19.9136 6.31668 20.52 8.09459C21.1264 9.8725 21.1613 11.7956 20.6198 13.5944C20.0783 15.3931 18.9876 16.9773 17.5004 18.125C17.1604 18.387 17.0004 18.715 17.0004 19C17.0004 19.5304 16.7897 20.0391 16.4147 20.4142C16.0396 20.7893 15.5309 21 15.0004 21H9.00044C8.47001 21 7.9613 20.7893 7.58623 20.4142C7.21116 20.0391 7.00044 19.5304 7.00044 19C7.00044 18.716 6.84044 18.387 6.50044 18.125C5.01331 16.9773 3.92255 15.3931 3.38106 13.5944C2.83956 11.7956 2.87447 9.8725 3.48089 8.09459C4.08731 6.31668 5.23484 4.77308 6.76265 3.68014C8.29046 2.5872 10.122 1.9997 12.0004 2ZM12.0004 4C10.5619 4.00015 9.1583 4.44352 7.98069 5.26977C6.80308 6.09602 5.90863 7.26502 5.41905 8.61771C4.92946 9.97039 4.86853 11.4411 5.24453 12.8296C5.62054 14.2182 6.41522 15.4572 7.52044 16.378L7.72444 16.542C8.43344 17.091 9.00044 17.96 9.00044 19H9.75044V18C9.75044 17.7348 9.8558 17.4804 10.0433 17.2929C10.2309 17.1054 10.4852 17 10.7504 17C11.0157 17 11.27 17.1054 11.4576 17.2929C11.6451 17.4804 11.7504 17.7348 11.7504 18V19H12.2504V18C12.2504 17.7348 12.3558 17.4804 12.5433 17.2929C12.7309 17.1054 12.9852 17 13.2504 17C13.5157 17 13.77 17.1054 13.9576 17.2929C14.1451 17.4804 14.2504 17.7348 14.2504 18V19H15.0004C15.0004 18.029 15.4944 17.207 16.1374 16.656L16.2774 16.542C17.4342 15.6494 18.2827 14.4173 18.7039 13.0183C19.1252 11.6193 19.0981 10.1235 18.6266 8.74066C18.155 7.35779 17.2625 6.15715 16.0743 5.307C14.886 4.45686 13.4615 3.99984 12.0004 4ZM8.50044 9C9.16349 9 9.79937 9.26339 10.2682 9.73223C10.7371 10.2011 11.0004 10.837 11.0004 11.5C11.0004 12.163 10.7371 12.7989 10.2682 13.2678C9.79937 13.7366 9.16349 14 8.50044 14C7.8374 14 7.20152 13.7366 6.73268 13.2678C6.26384 12.7989 6.00044 12.163 6.00044 11.5C6.00044 10.837 6.26384 10.2011 6.73268 9.73223C7.20152 9.26339 7.8374 9 8.50044 9ZM15.5004 9C16.1635 9 16.7994 9.26339 17.2682 9.73223C17.7371 10.2011 18.0004 10.837 18.0004 11.5C18.0004 12.163 17.7371 12.7989 17.2682 13.2678C16.7994 13.7366 16.1635 14 15.5004 14C14.8374 14 14.2015 13.7366 13.7327 13.2678C13.2638 12.7989 13.0004 12.163 13.0004 11.5C13.0004 10.837 13.2638 10.2011 13.7327 9.73223C14.2015 9.26339 14.8374 9 15.5004 9ZM8.50044 11C8.36784 11 8.24066 11.0527 8.14689 11.1464C8.05312 11.2402 8.00044 11.3674 8.00044 11.5C8.00044 11.6326 8.05312 11.7598 8.14689 11.8536C8.24066 11.9473 8.36784 12 8.50044 12C8.63305 12 8.76023 11.9473 8.854 11.8536C8.94777 11.7598 9.00044 11.6326 9.00044 11.5C9.00044 11.3674 8.94777 11.2402 8.854 11.1464C8.76023 11.0527 8.63305 11 8.50044 11ZM15.5004 11C15.3678 11 15.2407 11.0527 15.1469 11.1464C15.0531 11.2402 15.0004 11.3674 15.0004 11.5C15.0004 11.6326 15.0531 11.7598 15.1469 11.8536C15.2407 11.9473 15.3678 12 15.5004 12C15.6331 12 15.7602 11.9473 15.854 11.8536C15.9478 11.7598 16.0004 11.6326 16.0004 11.5C16.0004 11.3674 15.9478 11.2402 15.854 11.1464C15.7602 11.0527 15.6331 11 15.5004 11Z" fill="currentColor"/>
</svg>
