<svg width="24" height="24" viewBox="0 0 24 24" fill="none" xmlns="http://www.w3.org/2000/svg">
<path fill-rule="evenodd" clip-rule="evenodd" d="M12 4C12 4.26522 12.1054 4.51957 12.2929 4.70711C12.4804 4.89464 12.7348 5 13 5H17.586L12.293 10.293C12.1532 10.4329 12.058 10.611 12.0194 10.805C11.9808 10.9989 12.0007 11.2 12.0763 11.3827C12.152 11.5654 12.2801 11.7215 12.4445 11.8314C12.609 11.9413 12.8022 12 13 12H20C20.2652 12 20.5196 11.8946 20.7071 11.7071C20.8946 11.5196 21 11.2652 21 11C21 10.7348 20.8946 10.4804 20.7071 10.2929C20.5196 10.1054 20.2652 10 20 10H15.414L20.707 4.707C20.8468 4.56715 20.942 4.38898 20.9806 4.19503C21.0192 4.00108 20.9993 3.80005 20.9237 3.61735C20.848 3.43465 20.7199 3.27848 20.5555 3.1686C20.391 3.05871 20.1978 3.00004 20 3H13C12.7348 3 12.4804 3.10536 12.2929 3.29289C12.1054 3.48043 12 3.73478 12 4ZM4 10C3.73478 10 3.48043 9.89464 3.29289 9.70711C3.10536 9.51957 3 9.26522 3 9C3 8.73478 3.10536 8.48043 3.29289 8.29289C3.48043 8.10536 3.73478 8 4 8H9C9.19775 8.00004 9.39105 8.05871 9.55546 8.1686C9.71987 8.27848 9.84801 8.43465 9.92368 8.61735C9.99935 8.80005 10.0192 9.00108 9.98058 9.19503C9.94202 9.38898 9.84681 9.56715 9.707 9.707L6.414 13H9C9.26522 13 9.51957 13.1054 9.70711 13.2929C9.89464 13.4804 10 13.7348 10 14C10 14.2652 9.89464 14.5196 9.70711 14.7071C9.51957 14.8946 9.26522 15 9 15H4C3.80225 15 3.60895 14.9413 3.44454 14.8314C3.28013 14.7215 3.15199 14.5654 3.07632 14.3827C3.00065 14.2 2.98085 13.9989 3.01942 13.805C3.05798 13.611 3.15319 13.4329 3.293 13.293L6.586 10H4ZM12 17C11.7348 17 11.4804 16.8946 11.2929 16.7071C11.1054 16.5196 11 16.2652 11 16C11 15.7348 11.1054 15.4804 11.2929 15.2929C11.4804 15.1054 11.7348 15 12 15H16C16.1978 15 16.391 15.0587 16.5555 15.1686C16.7199 15.2785 16.848 15.4346 16.9237 15.6173C16.9993 15.8 17.0192 16.0011 16.9806 16.195C16.942 16.389 16.8468 16.5671 16.707 16.707L14.414 19H16C16.2652 19 16.5196 19.1054 16.7071 19.2929C16.8946 19.4804 17 19.7348 17 20C17 20.2652 16.8946 20.5196 16.7071 20.7071C16.5196 20.8946 16.2652 21 16 21H12C11.8022 21 11.609 20.9413 11.4445 20.8314C11.2801 20.7215 11.152 20.5654 11.0763 20.3827C11.0007 20.2 10.9808 19.9989 11.0194 19.805C11.058 19.611 11.1532 19.4329 11.293 19.293L13.586 17H12Z" fill="currentColor"/>
</svg>
