<svg width="24" height="24" viewBox="0 0 24 24" fill="none" xmlns="http://www.w3.org/2000/svg">
<path fill-rule="evenodd" clip-rule="evenodd" d="M15.1497 4.64902C16.3817 4.12902 17.9507 3.86902 20.0617 4.00202C20.1937 4.01026 20.3228 4.04462 20.4415 4.10311C20.5602 4.1616 20.6661 4.24306 20.753 4.34277C20.84 4.44248 20.9063 4.55846 20.9481 4.68398C20.99 4.8095 21.0065 4.94208 20.9967 5.07402L20.9807 5.19602L19.3017 13.588C19.2021 14.086 18.9777 14.5505 18.6496 14.9381C18.3215 15.3257 17.9004 15.6236 17.4257 15.804L17.2467 15.866L17.7807 18H20.9997C21.2545 18.0003 21.4997 18.0979 21.685 18.2729C21.8704 18.4478 21.9819 18.687 21.9968 18.9414C22.0118 19.1959 21.929 19.4464 21.7654 19.6419C21.6018 19.8373 21.3698 19.9629 21.1167 19.993L20.9997 20H6.65667C5.42195 20.0002 4.23081 19.5436 3.31267 18.718L3.12067 18.535L2.29267 17.707C2.11332 17.5271 2.0092 17.2856 2.00144 17.0316C1.99369 16.7777 2.08289 16.5303 2.25092 16.3397C2.41895 16.1492 2.65322 16.0297 2.90615 16.0056C3.15907 15.9815 3.41168 16.0546 3.61267 16.21L3.70667 16.293L4.53567 17.121C5.04982 17.6351 5.73318 17.945 6.45867 17.993L6.65667 18H7.21867L7.73367 15.94C6.39867 15.737 4.97367 15.01 4.11167 13.752C3.00967 12.141 3.00567 9.93802 4.66767 7.44502C4.75641 7.31198 4.87577 7.20215 5.01573 7.12477C5.15569 7.04739 5.31216 7.0047 5.47203 7.0003C5.63189 6.99589 5.79048 7.02989 5.93449 7.09944C6.0785 7.16899 6.20373 7.27207 6.29967 7.40002C6.89867 8.19802 7.35467 8.57402 7.69467 8.76202L7.84367 8.83602C8.18967 8.99102 8.49367 9.00002 8.99967 9.00002C9.87967 9.00002 10.4087 8.74502 10.8567 8.37602C11.1597 8.12702 11.4267 7.83802 11.6817 7.53902L12.1887 6.93602C12.2727 6.83602 12.3587 6.73802 12.4457 6.64102C13.0917 5.92702 13.9097 5.17202 15.1497 4.64902ZM15.2197 15.999H9.77967L9.27967 18H15.7197L15.2197 15.999ZM18.7857 5.96902C17.5217 5.99202 16.6127 6.20202 15.9277 6.49102C15.0577 6.85902 14.4697 7.38502 13.9287 7.98302L13.6787 8.26702L13.1867 8.84302C12.8577 9.22502 12.5187 9.59802 12.1267 9.92102C11.3937 10.524 10.4977 10.941 9.26867 10.994L8.96167 11L8.64467 10.997C8.19467 10.987 7.63767 10.933 7.03067 10.664C6.58067 10.464 6.13667 10.161 5.68467 9.73002C5.10967 11.084 5.34967 12.02 5.76267 12.623C6.32167 13.439 7.37967 13.935 8.31467 13.994L8.49967 14H16.3597C16.5707 14.0001 16.7764 13.9334 16.9472 13.8094C17.118 13.6855 17.2452 13.5107 17.3107 13.31L17.3407 13.196L18.7857 5.96902Z" fill="currentColor"/>
</svg>
