<svg width="24" height="24" viewBox="0 0 24 24" fill="none" xmlns="http://www.w3.org/2000/svg">
<path d="M13 3C13 2.73478 12.8946 2.48043 12.7071 2.29289C12.5196 2.10536 12.2652 2 12 2C11.7348 2 11.4804 2.10536 11.2929 2.29289C11.1054 2.48043 11 2.73478 11 3V6.586L8.707 4.293C8.5184 4.11084 8.2658 4.01005 8.0036 4.01233C7.7414 4.0146 7.49059 4.11977 7.30518 4.30518C7.11977 4.49059 7.0146 4.7414 7.01233 5.0036C7.01005 5.2658 7.11084 5.5184 7.293 5.707L11 9.414V11H9.414L5.707 7.293C5.5184 7.11084 5.2658 7.01005 5.0036 7.01233C4.7414 7.0146 4.49059 7.11977 4.30518 7.30518C4.11977 7.49059 4.0146 7.7414 4.01233 8.0036C4.01005 8.2658 4.11084 8.5184 4.293 8.707L6.586 11H3C2.73478 11 2.48043 11.1054 2.29289 11.2929C2.10536 11.4804 2 11.7348 2 12C2 12.2652 2.10536 12.5196 2.29289 12.7071C2.48043 12.8946 2.73478 13 3 13H6.586L4.293 15.293C4.19749 15.3852 4.12131 15.4956 4.0689 15.6176C4.01649 15.7396 3.9889 15.8708 3.98775 16.0036C3.9866 16.1364 4.0119 16.2681 4.06218 16.391C4.11246 16.5138 4.18671 16.6255 4.2806 16.7194C4.3745 16.8133 4.48615 16.8875 4.60905 16.9378C4.73194 16.9881 4.86362 17.0134 4.9964 17.0123C5.12918 17.0111 5.2604 16.9835 5.3824 16.9311C5.50441 16.8787 5.61475 16.8025 5.707 16.707L9.414 13H11V14.586L7.293 18.293C7.19749 18.3852 7.12131 18.4956 7.0689 18.6176C7.01649 18.7396 6.9889 18.8708 6.98775 19.0036C6.9866 19.1364 7.0119 19.2681 7.06218 19.391C7.11246 19.5138 7.18671 19.6255 7.2806 19.7194C7.3745 19.8133 7.48615 19.8875 7.60905 19.9378C7.73194 19.9881 7.86362 20.0134 7.9964 20.0123C8.12918 20.0111 8.2604 19.9835 8.3824 19.9311C8.50441 19.8787 8.61475 19.8025 8.707 19.707L11 17.414V21C11 21.2652 11.1054 21.5196 11.2929 21.7071C11.4804 21.8946 11.7348 22 12 22C12.2652 22 12.5196 21.8946 12.7071 21.7071C12.8946 21.5196 13 21.2652 13 21V17.414L15.293 19.707C15.4816 19.8892 15.7342 19.99 15.9964 19.9877C16.2586 19.9854 16.5094 19.8802 16.6948 19.6948C16.8802 19.5094 16.9854 19.2586 16.9877 18.9964C16.99 18.7342 16.8892 18.4816 16.707 18.293L13 14.586V13H14.586L18.293 16.707C18.4816 16.8892 18.7342 16.99 18.9964 16.9877C19.2586 16.9854 19.5094 16.8802 19.6948 16.6948C19.8802 16.5094 19.9854 16.2586 19.9877 15.9964C19.99 15.7342 19.8892 15.4816 19.707 15.293L17.414 13H21C21.2652 13 21.5196 12.8946 21.7071 12.7071C21.8946 12.5196 22 12.2652 22 12C22 11.7348 21.8946 11.4804 21.7071 11.2929C21.5196 11.1054 21.2652 11 21 11H17.414L19.707 8.707C19.8892 8.5184 19.99 8.2658 19.9877 8.0036C19.9854 7.7414 19.8802 7.49059 19.6948 7.30518C19.5094 7.11977 19.2586 7.0146 18.9964 7.01233C18.7342 7.01005 18.4816 7.11084 18.293 7.293L14.586 11H13V9.414L16.707 5.707C16.8892 5.5184 16.99 5.2658 16.9877 5.0036C16.9854 4.7414 16.8802 4.49059 16.6948 4.30518C16.5094 4.11977 16.2586 4.0146 15.9964 4.01233C15.7342 4.01005 15.4816 4.11084 15.293 4.293L13 6.586V3Z" fill="currentColor"/>
</svg>
