<svg width="24" height="24" viewBox="0 0 24 24" fill="none" xmlns="http://www.w3.org/2000/svg">
<path d="M8.64686 12.732L8.99986 13.086L9.35386 12.732C9.5415 12.5445 9.79595 12.4392 10.0612 12.4393C10.3265 12.4394 10.5809 12.5449 10.7684 12.7325C10.9559 12.9201 11.0612 13.1746 11.0611 13.4399C11.061 13.7051 10.9555 13.9595 10.7679 14.147L10.4139 14.5L10.7679 14.854C10.95 15.0426 11.0508 15.2952 11.0485 15.5574C11.0463 15.8196 10.9411 16.0704 10.7557 16.2558C10.5703 16.4412 10.3195 16.5464 10.0573 16.5487C9.79507 16.551 9.54247 16.4502 9.35386 16.268L8.99986 15.914L8.64686 16.268C8.45936 16.4556 8.20499 16.5611 7.93972 16.5612C7.67445 16.5613 7.42 16.456 7.23236 16.2685C7.04472 16.081 6.93925 15.8266 6.93916 15.5614C6.93907 15.2961 7.04435 15.0416 7.23186 14.854L7.58586 14.5L7.23186 14.147C7.13895 14.0541 7.06525 13.9438 7.01497 13.8224C6.96469 13.701 6.93881 13.5709 6.93881 13.4395C6.93881 13.1741 7.04422 12.9196 7.23186 12.732C7.4195 12.5444 7.674 12.4389 7.93936 12.4389C8.20473 12.4389 8.45922 12.5444 8.64686 12.732ZM14.6469 12.732L14.9999 13.086L15.3539 12.732C15.4468 12.6392 15.5571 12.5655 15.6784 12.5153C15.7998 12.4651 15.9299 12.4393 16.0612 12.4393C16.1926 12.4393 16.3226 12.4653 16.444 12.5156C16.5653 12.5659 16.6755 12.6396 16.7684 12.7325C16.8612 12.8254 16.9348 12.9357 16.9851 13.0571C17.0353 13.1784 17.0611 13.3085 17.0611 13.4399C17.061 13.5712 17.0351 13.7013 16.9848 13.8226C16.9345 13.9439 16.8608 14.0542 16.7679 14.147L16.4139 14.5L16.7679 14.854C16.95 15.0426 17.0508 15.2952 17.0485 15.5574C17.0463 15.8196 16.9411 16.0704 16.7557 16.2558C16.5703 16.4412 16.3195 16.5464 16.0573 16.5487C15.7951 16.551 15.5425 16.4502 15.3539 16.268L14.9999 15.914L14.6469 16.268C14.4594 16.4556 14.205 16.5611 13.9397 16.5612C13.6744 16.5613 13.42 16.456 13.2324 16.2685C13.0447 16.081 12.9393 15.8266 12.9392 15.5614C12.9391 15.2961 13.0444 15.0416 13.2319 14.854L13.5859 14.5L13.2319 14.147C13.0442 13.9594 12.9388 13.7049 12.9388 13.4395C12.9388 13.1741 13.0442 12.9196 13.2319 12.732C13.4195 12.5444 13.674 12.4389 13.9394 12.4389C14.2047 12.4389 14.4592 12.5444 14.6469 12.732ZM11.4999 2C12.8223 1.99987 14.1133 2.40298 15.2007 3.15554C16.288 3.9081 17.1201 4.97433 17.5859 6.212C18.5294 6.47084 19.3954 6.95642 20.1083 7.62645C20.8213 8.29648 21.3596 9.13064 21.6765 10.0563C21.9934 10.982 22.0792 11.9711 21.9264 12.9375C21.7736 13.9039 21.3868 14.8182 20.7999 15.601C20.6405 15.8132 20.4033 15.9533 20.1406 15.9907C19.8778 16.028 19.611 15.9594 19.3989 15.8C19.1867 15.6406 19.0465 15.4035 19.0092 15.1407C18.9719 14.878 19.0405 14.6112 19.1999 14.399C19.6118 13.8493 19.8752 13.2028 19.9649 12.5217C20.0545 11.8407 19.9673 11.148 19.7116 10.5105C19.4559 9.8729 19.0404 9.3119 18.505 8.88149C17.9696 8.45109 17.3325 8.16576 16.6549 8.053C16.4639 8.02143 16.286 7.93565 16.1424 7.80587C15.9988 7.6761 15.8955 7.5078 15.8449 7.321C15.5519 6.22225 14.8539 5.27515 13.8911 4.67012C12.9283 4.06509 11.7721 3.84699 10.655 4.05969C9.53799 4.27238 8.54287 4.90009 7.86978 5.81661C7.19669 6.73313 6.89553 7.87048 7.02686 9C7.05345 9.24288 6.9911 9.48716 6.85136 9.68758C6.71161 9.888 6.50396 10.031 6.26686 10.09C5.83483 10.1989 5.43244 10.4025 5.0889 10.6862C4.74535 10.9699 4.46925 11.3265 4.28064 11.7302C4.09203 12.1338 3.99563 12.5744 3.99844 13.0199C4.00124 13.4654 4.10318 13.9048 4.29686 14.306L4.39986 14.499C4.46566 14.6127 4.50842 14.7382 4.52571 14.8683C4.54299 14.9985 4.53447 15.1308 4.50062 15.2577C4.46678 15.3846 4.40827 15.5036 4.32844 15.6079C4.24861 15.7122 4.14902 15.7997 4.03536 15.8655C3.80582 15.9984 3.53289 16.0346 3.27662 15.9663C3.02035 15.8979 2.80174 15.7305 2.66886 15.501C2.31657 14.8913 2.09702 14.2142 2.02458 13.5138C1.95214 12.8134 2.02844 12.1056 2.2485 11.4367C2.46856 10.7679 2.8274 10.1531 3.30154 9.6325C3.77567 9.11194 4.35441 8.69739 4.99986 8.416C5.02195 6.70669 5.71651 5.07489 6.93311 3.87401C8.14971 2.67313 9.79041 1.99986 11.4999 2ZM8.76786 18.232C8.86084 18.3249 8.9346 18.4352 8.98492 18.5566C9.03525 18.678 9.06115 18.8081 9.06115 18.9395C9.06115 19.0709 9.03525 19.201 8.98492 19.3224C8.9346 19.4438 8.86084 19.5541 8.76786 19.647L8.41386 20L8.76786 20.354C8.86337 20.4462 8.93956 20.5566 8.99196 20.6786C9.04437 20.8006 9.07196 20.9318 9.07311 21.0646C9.07427 21.1974 9.04897 21.3291 8.99868 21.452C8.9484 21.5749 8.87415 21.6865 8.78026 21.7804C8.68637 21.8743 8.57471 21.9485 8.45182 21.9988C8.32892 22.0491 8.19724 22.0744 8.06446 22.0732C7.93168 22.0721 7.80046 22.0445 7.67846 21.9921C7.55645 21.9397 7.44611 21.8635 7.35386 21.768L6.99986 21.414L6.64686 21.768C6.45935 21.9556 6.20499 22.0611 5.93972 22.0612C5.67445 22.0613 5.42 21.956 5.23236 21.7685C5.04472 21.581 4.93925 21.3266 4.93916 21.0614C4.93907 20.7961 5.04435 20.5416 5.23186 20.354L5.58586 20L5.23186 19.647C5.04422 19.4594 4.93881 19.2049 4.93881 18.9395C4.93881 18.6741 5.04422 18.4196 5.23186 18.232C5.4195 18.0444 5.674 17.9389 5.93936 17.9389C6.20473 17.9389 6.45922 18.0444 6.64686 18.232L6.99986 18.586L7.35386 18.232C7.54139 18.0445 7.7957 17.9392 8.06086 17.9392C8.32603 17.9392 8.58034 18.0445 8.76786 18.232ZM14.7679 18.232C14.8608 18.3249 14.9346 18.4352 14.9849 18.5566C15.0352 18.678 15.0611 18.8081 15.0611 18.9395C15.0611 19.0709 15.0352 19.201 14.9849 19.3224C14.9346 19.4438 14.8608 19.5541 14.7679 19.647L14.4139 20L14.7679 20.354C14.95 20.5426 15.0508 20.7952 15.0485 21.0574C15.0463 21.3196 14.9411 21.5704 14.7557 21.7558C14.5703 21.9412 14.3195 22.0464 14.0573 22.0487C13.7951 22.051 13.5425 21.9502 13.3539 21.768L12.9999 21.414L12.6469 21.768C12.4594 21.9556 12.205 22.0611 11.9397 22.0612C11.6744 22.0613 11.42 21.956 11.2324 21.7685C11.0447 21.581 10.9393 21.3266 10.9392 21.0614C10.9391 20.7961 11.0444 20.5416 11.2319 20.354L11.5859 20L11.2319 19.647C11.0442 19.4594 10.9388 19.2049 10.9388 18.9395C10.9388 18.6741 11.0442 18.4196 11.2319 18.232C11.4195 18.0444 11.674 17.9389 11.9394 17.9389C12.2047 17.9389 12.4592 18.0444 12.6469 18.232L12.9999 18.586L13.3539 18.232C13.5414 18.0445 13.7957 17.9392 14.0609 17.9392C14.326 17.9392 14.5803 18.0445 14.7679 18.232Z" fill="currentColor"/>
</svg>
