<svg width="24" height="24" viewBox="0 0 24 24" fill="none" xmlns="http://www.w3.org/2000/svg">
<path d="M19.149 9.02C19.2777 9.04613 19.4 9.09736 19.5089 9.17075C19.6178 9.24414 19.7112 9.33827 19.7837 9.44775C19.8562 9.55723 19.9065 9.67992 19.9316 9.80882C19.9567 9.93772 19.9561 10.0703 19.93 10.199C19.7688 10.9897 19.3394 11.7005 18.7143 12.2109C18.0892 12.7214 17.307 13.0001 16.5 13H3C2.73478 13 2.48043 12.8946 2.29289 12.7071C2.10536 12.5196 2 12.2652 2 12C2 11.7348 2.10536 11.4804 2.29289 11.2929C2.48043 11.1054 2.73478 11 3 11H16.5C16.8218 11.0002 17.1352 10.8968 17.3938 10.7052C17.6523 10.5136 17.8425 10.2439 17.936 9.936L17.97 9.801C17.9961 9.6723 18.0474 9.55002 18.1208 9.44112C18.1941 9.33222 18.2883 9.23884 18.3977 9.16632C18.5072 9.0938 18.6299 9.04355 18.7588 9.01844C18.8877 8.99334 19.0203 8.99387 19.149 9.02ZM9 3C9.79565 3 10.5587 3.31607 11.1213 3.87868C11.6839 4.44129 12 5.20435 12 6C12 6.79565 11.6839 7.55871 11.1213 8.12132C10.5587 8.68393 9.79565 9 9 9H5C4.73478 9 4.48043 8.89464 4.29289 8.70711C4.10536 8.51957 4 8.26522 4 8C4 7.73478 4.10536 7.48043 4.29289 7.29289C4.48043 7.10536 4.73478 7 5 7H9C9.17067 7 9.33849 6.95632 9.48751 6.87311C9.63652 6.78991 9.76175 6.66995 9.8513 6.52466C9.94084 6.37937 9.99171 6.21358 9.99906 6.04307C10.0064 5.87256 9.97 5.70301 9.89329 5.55055C9.81658 5.39809 9.70213 5.2678 9.56083 5.17208C9.41954 5.07636 9.25609 5.0184 9.08606 5.00371C8.91602 4.98902 8.74506 5.01809 8.58944 5.08816C8.43382 5.15823 8.29872 5.26696 8.197 5.404L8.133 5.501C8.00013 5.73054 7.78151 5.8979 7.52524 5.96626C7.26897 6.03462 6.99605 5.99837 6.7665 5.8655C6.53695 5.73263 6.3696 5.51401 6.30124 5.25774C6.23288 5.00147 6.26913 4.72854 6.402 4.499C6.66542 4.04314 7.04418 3.66463 7.50022 3.40151C7.95625 3.13839 8.4735 2.99991 9 3ZM16.002 3C16.2672 3 16.5216 3.10536 16.7091 3.29289C16.8966 3.48043 17.002 3.73478 17.002 4V4.268L17.234 4.134C17.4636 4.00348 17.7354 3.96906 17.9903 4.03825C18.2451 4.10744 18.4622 4.27462 18.5943 4.50331C18.7263 4.73199 18.7625 5.00362 18.695 5.25892C18.6275 5.51421 18.4618 5.73245 18.234 5.866L18.002 6L18.234 6.134C18.3486 6.19918 18.4493 6.2864 18.5301 6.39063C18.6109 6.49485 18.6703 6.61403 18.7048 6.74131C18.7394 6.86858 18.7484 7.00143 18.7314 7.13221C18.7144 7.26299 18.6717 7.38912 18.6058 7.50333C18.5398 7.61754 18.4519 7.71758 18.3472 7.79769C18.2424 7.87779 18.1228 7.93639 17.9953 7.9701C17.8678 8.00381 17.7349 8.01196 17.6043 7.9941C17.4736 7.97623 17.3478 7.9327 17.234 7.866L17.002 7.732V8C17.002 8.26522 16.8966 8.51957 16.7091 8.70711C16.5216 8.89464 16.2672 9 16.002 9C15.7368 9 15.4824 8.89464 15.2949 8.70711C15.1074 8.51957 15.002 8.26522 15.002 8V7.732L14.77 7.866C14.6562 7.9327 14.5304 7.97623 14.3997 7.9941C14.2691 8.01196 14.1362 8.00381 14.0087 7.9701C13.8812 7.93639 13.7616 7.87779 13.6568 7.79769C13.5521 7.71758 13.4642 7.61754 13.3982 7.50333C13.3323 7.38912 13.2896 7.26299 13.2726 7.13221C13.2556 7.00143 13.2646 6.86858 13.2992 6.74131C13.3337 6.61403 13.3931 6.49485 13.4739 6.39063C13.5547 6.2864 13.6554 6.19918 13.77 6.134L14.002 6L13.77 5.866C13.5422 5.73245 13.3765 5.51421 13.309 5.25892C13.2415 5.00362 13.2777 4.73199 13.4097 4.50331C13.5418 4.27462 13.7589 4.10744 14.0137 4.03825C14.2686 3.96906 14.5404 4.00348 14.77 4.134L15.002 4.268V4C15.002 3.73478 15.1074 3.48043 15.2949 3.29289C15.4824 3.10536 15.7368 3 16.002 3ZM6 15C5.73478 15 5.48043 15.1054 5.29289 15.2929C5.10536 15.4804 5 15.7348 5 16C5 16.2652 5.10536 16.5196 5.29289 16.7071C5.48043 16.8946 5.73478 17 6 17H12.5C12.5773 17 12.6535 17.018 12.7226 17.0524C12.7918 17.0869 12.852 17.1368 12.8986 17.1985C12.9452 17.2601 12.9769 17.3317 12.9912 17.4076C13.0054 17.4836 13.0019 17.5618 12.9809 17.6361C12.9598 17.7105 12.9219 17.7789 12.8699 17.8361C12.818 17.8933 12.7535 17.9377 12.6815 17.9658C12.6095 17.9939 12.532 18.0049 12.4551 17.998C12.3781 17.9911 12.3038 17.9665 12.238 17.926L12.167 17.873C12.0694 17.784 11.9551 17.7152 11.8308 17.6706C11.7064 17.6259 11.5745 17.6064 11.4426 17.6131C11.3106 17.6198 11.1813 17.6525 11.0621 17.7094C10.9429 17.7664 10.8362 17.8464 10.7481 17.9448C10.6599 18.0432 10.5922 18.1581 10.5487 18.2829C10.5053 18.4076 10.487 18.5397 10.4949 18.6716C10.5028 18.8035 10.5367 18.9325 10.5948 19.0511C10.6528 19.1698 10.7338 19.2758 10.833 19.363C11.135 19.6333 11.4982 19.826 11.8913 19.9247C12.2843 20.0234 12.6955 20.0251 13.0893 19.9296C13.4832 19.834 13.8479 19.6442 14.1521 19.3764C14.4563 19.1086 14.6908 18.7709 14.8354 18.3923C14.9801 18.0137 15.0305 17.6056 14.9824 17.2032C14.9343 16.8008 14.7891 16.4161 14.5593 16.0823C14.3295 15.7485 14.0219 15.4756 13.6632 15.287C13.3045 15.0985 12.9053 15 12.5 15H6ZM19 14C19.2652 14 19.5196 14.1054 19.7071 14.2929C19.8946 14.4804 20 14.7348 20 15V15.268L20.232 15.134C20.3458 15.0673 20.4716 15.0238 20.6023 15.0059C20.7329 14.988 20.8658 14.9962 20.9933 15.0299C21.1208 15.0636 21.2404 15.1222 21.3452 15.2023C21.4499 15.2824 21.5378 15.3825 21.6038 15.4967C21.6697 15.6109 21.7124 15.737 21.7294 15.8678C21.7464 15.9986 21.7374 16.1314 21.7028 16.2587C21.6683 16.386 21.6089 16.5051 21.5281 16.6094C21.4473 16.7136 21.3466 16.8008 21.232 16.866L21 17L21.232 17.134C21.4598 17.2676 21.6255 17.4858 21.693 17.7411C21.7605 17.9964 21.7243 18.268 21.5923 18.4967C21.4602 18.7254 21.2431 18.8926 20.9883 18.9617C20.7334 19.0309 20.4616 18.9965 20.232 18.866L20 18.732V19C20 19.2652 19.8946 19.5196 19.7071 19.7071C19.5196 19.8946 19.2652 20 19 20C18.7348 20 18.4804 19.8946 18.2929 19.7071C18.1054 19.5196 18 19.2652 18 19V18.732L17.768 18.866C17.6542 18.9327 17.5284 18.9762 17.3977 18.9941C17.2671 19.012 17.1342 19.0038 17.0067 18.9701C16.8792 18.9364 16.7596 18.8778 16.6548 18.7977C16.5501 18.7176 16.4622 18.6175 16.3962 18.5033C16.3303 18.3891 16.2876 18.263 16.2706 18.1322C16.2536 18.0014 16.2626 17.8686 16.2972 17.7413C16.3317 17.614 16.3911 17.4949 16.4719 17.3906C16.5527 17.2864 16.6534 17.1992 16.768 17.134L17 17L16.768 16.866C16.6534 16.8008 16.5527 16.7136 16.4719 16.6094C16.3911 16.5051 16.3317 16.386 16.2972 16.2587C16.2626 16.1314 16.2536 15.9986 16.2706 15.8678C16.2876 15.737 16.3303 15.6109 16.3962 15.4967C16.4622 15.3825 16.5501 15.2824 16.6548 15.2023C16.7596 15.1222 16.8792 15.0636 17.0067 15.0299C17.1342 14.9962 17.2671 14.988 17.3977 15.0059C17.5284 15.0238 17.6542 15.0673 17.768 15.134L18 15.268V15C18 14.7348 18.1054 14.4804 18.2929 14.2929C18.4804 14.1054 18.7348 14 19 14Z" fill="currentColor"/>
</svg>
