<svg width="24" height="24" viewBox="0 0 24 24" fill="none" xmlns="http://www.w3.org/2000/svg">
<path fill-rule="evenodd" clip-rule="evenodd" d="M17.0002 2C17.5306 2 18.0393 2.21071 18.4144 2.58579C18.7894 2.96086 19.0002 3.46957 19.0002 4V11.343C19.0001 11.9997 18.8708 12.65 18.6194 13.2567C18.368 13.8634 17.9996 14.4147 17.5352 14.879L12.5352 19.879C11.5975 20.8164 10.326 21.3429 9.00016 21.3429C7.67434 21.3429 6.4028 20.8164 5.46516 19.879L5.12116 19.535C4.1838 18.5974 3.65723 17.3258 3.65723 16C3.65723 14.6742 4.1838 13.4026 5.12116 12.465L8.70716 8.879C8.89471 8.69151 9.0001 8.43719 9.00016 8.172V4C9.00016 3.46957 9.21087 2.96086 9.58595 2.58579C9.96102 2.21071 10.4697 2 11.0002 2H17.0002ZM17.0002 7H11.0002V8.172C10.9997 8.96724 10.6836 9.72977 10.1212 10.292L6.53516 13.88C5.97275 14.4426 5.6568 15.2055 5.6568 16.001C5.6568 16.7965 5.97275 17.5594 6.53516 18.122L6.87916 18.466C7.44174 19.0284 8.20467 19.3444 9.00016 19.3444C9.79565 19.3444 10.5586 19.0284 11.1212 18.466L13.8282 15.758C13.3772 15.0754 13.1005 14.2925 13.0224 13.4781C12.9443 12.6636 13.0672 11.8425 13.3803 11.0866C13.6934 10.3307 14.1872 9.66312 14.8183 9.14243C15.4494 8.62174 16.1986 8.2638 17.0002 8.1V7ZM17.0002 10.17C16.6032 10.3102 16.2402 10.5324 15.9347 10.822C15.6293 11.1117 15.3882 11.4624 15.2271 11.8513C15.066 12.2403 14.9885 12.6588 14.9997 13.0796C15.011 13.5004 15.1106 13.9142 15.2922 14.294L16.1222 13.464C16.6842 12.9016 17 12.1391 17.0002 11.344V10.17ZM17.0002 4H11.0002V5H17.0002V4Z" fill="currentColor"/>
</svg>
