<svg width="24" height="24" viewBox="0 0 24 24" fill="none" xmlns="http://www.w3.org/2000/svg">
<path fill-rule="evenodd" clip-rule="evenodd" d="M18.1801 4C18.6155 4.00007 19.0389 4.14219 19.3862 4.40479C19.7334 4.66739 19.9855 5.03612 20.1041 5.455L20.1411 5.608L21.8611 14.206C21.9024 14.4125 21.8997 14.6254 21.8533 14.8308C21.8068 15.0363 21.7176 15.2296 21.5915 15.3983C21.4654 15.5669 21.3052 15.7072 21.1213 15.8098C20.9373 15.9124 20.7339 15.9752 20.5241 15.994L20.3901 16H13.0001V18H15.0001C15.255 18.0003 15.5002 18.0979 15.6855 18.2728C15.8708 18.4478 15.9824 18.687 15.9973 18.9414C16.0122 19.1958 15.9295 19.4464 15.7659 19.6418C15.6023 19.8373 15.3702 19.9629 15.1171 19.993L15.0001 20H9.00013C8.74525 19.9997 8.50009 19.9021 8.31476 19.7272C8.12942 19.5522 8.01789 19.313 8.00295 19.0586C7.98802 18.8042 8.0708 18.5536 8.23439 18.3582C8.39798 18.1627 8.63003 18.0371 8.88313 18.007L9.00013 18H11.0001V16H3.61013C3.39949 16 3.19123 15.9556 2.9989 15.8697C2.80656 15.7839 2.63446 15.6584 2.49381 15.5017C2.35315 15.3449 2.2471 15.1602 2.18254 14.9597C2.11798 14.7592 2.09638 14.5474 2.11913 14.338L2.13913 14.206L3.85913 5.608C3.94438 5.18114 4.16657 4.79376 4.49197 4.50464C4.81737 4.21551 5.2282 4.04044 5.66213 4.006L5.82013 4H18.1801ZM19.1801 11H15.6051L15.9051 14H19.7801L19.1801 11ZM13.5951 11H10.4051L10.1051 14H13.8951L13.5951 11ZM8.39513 11H4.82013L4.22013 14H8.09513L8.39513 11ZM18.1801 6H15.1051L15.4051 9H18.7801L18.1801 6ZM13.0951 6H10.9051L10.6051 9H13.3951L13.0951 6ZM8.89513 6H5.82013L5.22013 9H8.59513L8.89513 6Z" fill="currentColor"/>
</svg>
