<svg width="24" height="24" viewBox="0 0 24 24" fill="none" xmlns="http://www.w3.org/2000/svg">
<path d="M18 4C18.2652 4 18.5196 4.10536 18.7071 4.29289C18.8946 4.48043 19 4.73478 19 5V17.414L20.121 16.293C20.2138 16.2001 20.3241 16.1264 20.4454 16.0761C20.5667 16.0258 20.6968 15.9998 20.8281 15.9998C20.9595 15.9998 21.0896 16.0256 21.2109 16.0758C21.3323 16.126 21.4426 16.1997 21.5355 16.2925C21.6284 16.3853 21.7021 16.4956 21.7524 16.6169C21.8027 16.7382 21.8287 16.8683 21.8287 16.9996C21.8287 17.131 21.8029 17.2611 21.7527 17.3824C21.7025 17.5038 21.6288 17.6141 21.536 17.707L18.707 20.535C18.5195 20.7225 18.2652 20.8278 18 20.8278C17.7348 20.8278 17.4805 20.7225 17.293 20.535L14.465 17.707C14.3695 17.6148 14.2933 17.5044 14.2409 17.3824C14.1885 17.2604 14.1609 17.1292 14.1597 16.9964C14.1586 16.8636 14.1839 16.7319 14.2342 16.609C14.2845 16.4862 14.3587 16.3745 14.4526 16.2806C14.5465 16.1867 14.6581 16.1125 14.781 16.0622C14.9039 16.0119 15.0356 15.9866 15.1684 15.9877C15.3012 15.9889 15.4324 16.0165 15.5544 16.0689C15.6764 16.1213 15.7868 16.1975 15.879 16.293L17 17.414V5C17 4.73478 17.1054 4.48043 17.2929 4.29289C17.4804 4.10536 17.7348 4 18 4ZM11 18C11.2549 18.0003 11.5 18.0979 11.6854 18.2728C11.8707 18.4478 11.9822 18.687 11.9972 18.9414C12.0121 19.1958 11.9293 19.4464 11.7657 19.6418C11.6021 19.8373 11.3701 19.9629 11.117 19.993L11 20H4C3.74512 19.9997 3.49997 19.9021 3.31463 19.7272C3.1293 19.5522 3.01777 19.313 3.00283 19.0586C2.98789 18.8042 3.07067 18.5536 3.23426 18.3582C3.39786 18.1627 3.6299 18.0371 3.883 18.007L4 18H11ZM13 11C13.2549 11.0003 13.5 11.0979 13.6854 11.2728C13.8707 11.4478 13.9822 11.687 13.9972 11.9414C14.0121 12.1958 13.9293 12.4464 13.7657 12.6418C13.6021 12.8373 13.3701 12.9629 13.117 12.993L13 13H4C3.74512 12.9997 3.49997 12.9021 3.31463 12.7272C3.1293 12.5522 3.01777 12.313 3.00283 12.0586C2.98789 11.8042 3.07067 11.5536 3.23426 11.3582C3.39786 11.1627 3.6299 11.0371 3.883 11.007L4 11H13ZM13 4C13.2652 4 13.5196 4.10536 13.7071 4.29289C13.8946 4.48043 14 4.73478 14 5C14 5.26522 13.8946 5.51957 13.7071 5.70711C13.5196 5.89464 13.2652 6 13 6H4C3.73478 6 3.48043 5.89464 3.29289 5.70711C3.10536 5.51957 3 5.26522 3 5C3 4.73478 3.10536 4.48043 3.29289 4.29289C3.48043 4.10536 3.73478 4 4 4H13Z" fill="currentColor"/>
</svg>
