<svg width="24" height="24" viewBox="0 0 24 24" fill="none" xmlns="http://www.w3.org/2000/svg">
<path d="M3.70741 8.29299L4.41441 8.99999C4.68842 9.27371 4.87705 9.62111 4.95741 9.99999H13.5004C13.7656 9.99999 14.02 10.1053 14.2075 10.2929C14.3951 10.4804 14.5004 10.7348 14.5004 11C14.5004 11.2652 14.3951 11.5196 14.2075 11.7071C14.02 11.8946 13.7656 12 13.5004 12H5.00041V17C5.00041 17.5304 5.21112 18.0391 5.58619 18.4142C5.96127 18.7893 6.46997 19 7.00041 19H17.0004C17.5308 19 18.0395 18.7893 18.4146 18.4142C18.7897 18.0391 19.0004 17.5304 19.0004 17V12H18.5004C18.2352 12 17.9808 11.8946 17.7933 11.7071C17.6058 11.5196 17.5004 11.2652 17.5004 11C17.5004 10.7348 17.6058 10.4804 17.7933 10.2929C17.9808 10.1053 18.2352 9.99999 18.5004 9.99999H19.0434C19.1238 9.62111 19.3124 9.27371 19.5864 8.99999L20.2934 8.29299C20.3857 8.19748 20.496 8.1213 20.618 8.06889C20.74 8.01648 20.8712 7.98889 21.004 7.98774C21.1368 7.98659 21.2685 8.01189 21.3914 8.06217C21.5143 8.11245 21.6259 8.1867 21.7198 8.28059C21.8137 8.37449 21.8879 8.48614 21.9382 8.60904C21.9885 8.73193 22.0138 8.86361 22.0127 8.99639C22.0115 9.12917 21.9839 9.26039 21.9315 9.38239C21.8791 9.5044 21.8029 9.61474 21.7074 9.70699L21.0004 10.414V17C21.0004 18.0609 20.579 19.0783 19.8288 19.8284C19.0787 20.5786 18.0613 21 17.0004 21H7.00041C5.93954 21 4.92213 20.5786 4.17198 19.8284C3.42183 19.0783 3.00041 18.0609 3.00041 17V10.414L2.29341 9.70699C2.11125 9.51839 2.01045 9.26579 2.01273 9.00359C2.01501 8.74139 2.12018 8.49058 2.30559 8.30517C2.491 8.11976 2.74181 8.01459 3.00401 8.01232C3.2662 8.01004 3.5188 8.11083 3.70741 8.29299ZM19.4474 4.10599C19.6844 4.22464 19.8646 4.43253 19.9484 4.68398C20.0323 4.93542 20.0128 5.20986 19.8944 5.44699L14.8944 15.447C14.8793 15.4778 14.8626 15.5079 14.8444 15.537C14.5945 16.335 14.0673 17.0173 13.3581 17.4605C12.6489 17.9036 11.8046 18.0783 10.9778 17.9531C10.1509 17.8278 9.39624 17.4108 8.85016 16.7774C8.30407 16.1441 8.00265 15.3362 8.00041 14.5V14C8.00041 13.7348 8.10576 13.4804 8.2933 13.2929C8.48084 13.1053 8.73519 13 9.00041 13H13.8824L18.1064 4.55299C18.2251 4.31598 18.4329 4.13576 18.6844 4.05195C18.9358 3.96813 19.2103 3.98757 19.4474 4.10599ZM12.9154 15H10.0854C10.1885 15.293 10.38 15.5468 10.6334 15.7263C10.8869 15.9058 11.1898 16.0022 11.5004 16.0022C11.811 16.0022 12.1139 15.9058 12.3674 15.7263C12.6209 15.5468 12.8123 15.293 12.9154 15ZM13.5554 2.16799C13.6647 2.24086 13.7585 2.33455 13.8316 2.44369C13.9046 2.55284 13.9555 2.67531 13.9812 2.80411C14.0069 2.93291 14.007 3.06552 13.9815 3.19435C13.956 3.32319 13.9053 3.44574 13.8324 3.55499L13.6164 3.87799C13.5234 4.01751 13.4817 4.18493 13.4983 4.35176C13.5149 4.51859 13.5888 4.67452 13.7074 4.79299C14.1529 5.23853 14.4303 5.82469 14.4923 6.4517C14.5543 7.07871 14.3971 7.70784 14.0474 8.23199L13.8324 8.55499C13.6852 8.77565 13.4564 8.9288 13.1963 8.98075C12.9362 9.03269 12.6661 8.97918 12.4454 8.83199C12.2247 8.68479 12.0716 8.45597 12.0197 8.19586C11.9677 7.93575 12.0212 7.66565 12.1684 7.44499L12.3844 7.12199C12.4774 6.98247 12.5191 6.81505 12.5025 6.64822C12.4859 6.48139 12.412 6.32546 12.2934 6.20699C11.8481 5.76151 11.5709 5.17555 11.509 4.54876C11.447 3.92196 11.604 3.29305 11.9534 2.76899L12.1684 2.44499C12.2413 2.33572 12.335 2.24187 12.4441 2.16881C12.5533 2.09575 12.6757 2.0449 12.8045 2.01918C12.9333 1.99346 13.0659 1.99336 13.1948 2.01889C13.3236 2.04443 13.4462 2.09509 13.5554 2.16799ZM8.16841 2.44499C8.31071 2.23453 8.52779 2.08613 8.77554 2.02992C9.0233 1.9737 9.28316 2.0139 9.50236 2.14233C9.72155 2.27077 9.88365 2.47782 9.95572 2.72144C10.0278 2.96505 10.0044 3.22697 9.89041 3.45399L9.83141 3.55399L9.61641 3.87799C9.52331 4.0174 9.48141 4.18475 9.49782 4.35158C9.51423 4.51841 9.58794 4.67439 9.70641 4.79299C10.1285 5.215 10.4003 5.7639 10.4801 6.35537C10.56 6.94684 10.4434 7.54817 10.1484 8.06699L10.0474 8.23199L9.83141 8.55499C9.68833 8.76359 9.47152 8.91022 9.22465 8.96534C8.97777 9.02046 8.71918 8.97997 8.50097 8.85204C8.28276 8.7241 8.12113 8.51822 8.04866 8.27588C7.97619 8.03353 7.99825 7.77272 8.11041 7.54599L8.16941 7.44599L8.38441 7.12199C8.4775 6.98258 8.51941 6.81523 8.503 6.6484C8.48659 6.48157 8.41288 6.32559 8.29441 6.20699C7.87236 5.78498 7.60053 5.23608 7.52068 4.64461C7.44083 4.05314 7.55737 3.45181 7.85241 2.93299L7.95341 2.76899L8.16841 2.44499Z" fill="currentColor"/>
</svg>
