<svg width="24" height="24" viewBox="0 0 24 24" fill="none" xmlns="http://www.w3.org/2000/svg">
<path fill-rule="evenodd" clip-rule="evenodd" d="M13.9997 3C14.2546 3.00028 14.4997 3.09788 14.685 3.27285C14.8704 3.44782 14.9819 3.68695 14.9968 3.94139C15.0118 4.19584 14.929 4.44638 14.7654 4.64183C14.6018 4.83729 14.3698 4.9629 14.1167 4.993L13.9997 5H12.9997V6H14.0017C14.2387 6.001 14.4767 6.025 14.7117 6.055L15.0527 6.105C15.4207 6.167 15.8687 6.265 16.3627 6.421C17.5024 6.77817 18.5644 7.34749 19.4927 8.099L19.5867 8L20.2937 7.293C20.4736 7.11365 20.7151 7.00953 20.9691 7.00177C21.223 6.99402 21.4704 7.08322 21.6609 7.25125C21.8515 7.41928 21.971 7.65355 21.9951 7.90647C22.0192 8.1594 21.9461 8.41201 21.7907 8.613L21.7077 8.707L21.0007 9.414V16C21.0006 17.2885 20.5031 18.5272 19.612 19.4578C18.7209 20.3884 17.5049 20.9391 16.2177 20.995L15.9997 21H7.99967C6.71121 20.9999 5.47251 20.5025 4.54189 19.6113C3.61128 18.7202 3.06059 17.5042 3.00467 16.217L2.99967 16V9.414L2.29267 8.707C2.11332 8.52704 2.0092 8.28557 2.00144 8.03162C1.99369 7.77767 2.08289 7.53029 2.25092 7.33972C2.41895 7.14916 2.65322 7.02969 2.90615 7.0056C3.15907 6.98151 3.41168 7.05459 3.61267 7.21L3.70667 7.293L4.41367 8C4.44567 8.032 4.47667 8.065 4.50567 8.099C5.434 7.34751 6.49596 6.77819 7.63567 6.421C8.06447 6.28536 8.50219 6.17977 8.94567 6.105L9.28667 6.055C9.44411 6.03408 9.60219 6.01841 9.76067 6.008L9.99767 6H10.9997V5H9.99967C9.74479 4.99972 9.49964 4.90212 9.3143 4.72715C9.12897 4.55218 9.01744 4.31305 9.0025 4.05861C8.98756 3.80416 9.07034 3.55362 9.23394 3.35817C9.39753 3.16271 9.62958 3.0371 9.88267 3.007L9.99967 3H13.9997ZM18.9997 11.21C14.5037 12.01 10.1867 12.05 5.70767 11.33L4.99967 11.21V16C4.99963 16.7652 5.292 17.5015 5.81695 18.0583C6.34191 18.615 7.05978 18.9501 7.82367 18.995L7.99967 19H15.9997C16.7649 19 17.5012 18.7077 18.0579 18.1827C18.6147 17.6578 18.9498 16.9399 18.9947 16.176L18.9997 16V11.21ZM13.9957 8L9.95567 8.001L9.77567 8.014L9.47567 8.048L9.21867 8.088C9.17092 8.09653 9.12325 8.10553 9.07567 8.115L8.76267 8.183C7.81747 8.40637 6.9244 8.81046 6.13267 9.373C10.0907 9.997 13.9087 9.997 17.8667 9.373C17.2236 8.91692 16.513 8.56463 15.7607 8.329C15.1957 8.15 14.5917 8.013 13.9957 8Z" fill="currentColor"/>
</svg>
