<svg width="24" height="24" viewBox="0 0 24 24" fill="none" xmlns="http://www.w3.org/2000/svg">
<path d="M19 16C19.5046 15.9998 19.9906 16.1904 20.3605 16.5335C20.7305 16.8766 20.9572 17.3468 20.995 17.85L21 18V20C20.9997 20.2549 20.9021 20.5 20.7272 20.6854C20.5522 20.8707 20.313 20.9822 20.0586 20.9972C19.8042 21.0121 19.5536 20.9293 19.3582 20.7657C19.1627 20.6021 19.0371 20.3701 19.007 20.117L19 20V18H5V20C4.99972 20.2549 4.90212 20.5 4.72715 20.6854C4.55218 20.8707 4.31305 20.9822 4.05861 20.9972C3.80416 21.0121 3.55362 20.9293 3.35817 20.7657C3.16271 20.6021 3.0371 20.3701 3.007 20.117L3 20V18C2.99984 17.4954 3.19041 17.0094 3.5335 16.6395C3.87659 16.2695 4.34684 16.0428 4.85 16.005L5 16H19ZM16 11C16.2549 11.0003 16.5 11.0979 16.6854 11.2728C16.8707 11.4478 16.9822 11.687 16.9972 11.9414C17.0121 12.1958 16.9293 12.4464 16.7657 12.6418C16.6021 12.8373 16.3701 12.9629 16.117 12.993L16 13H8C7.74512 12.9997 7.49997 12.9021 7.31463 12.7272C7.1293 12.5522 7.01777 12.313 7.00283 12.0586C6.98789 11.8042 7.07067 11.5536 7.23426 11.3582C7.39786 11.1627 7.6299 11.0371 7.883 11.007L8 11H16ZM20 3C20.2652 3 20.5196 3.10536 20.7071 3.29289C20.8946 3.48043 21 3.73478 21 4V6C21 6.53043 20.7893 7.03914 20.4142 7.41421C20.0391 7.78929 19.5304 8 19 8H5C4.46957 8 3.96086 7.78929 3.58579 7.41421C3.21071 7.03914 3 6.53043 3 6V4C3 3.73478 3.10536 3.48043 3.29289 3.29289C3.48043 3.10536 3.73478 3 4 3C4.26522 3 4.51957 3.10536 4.70711 3.29289C4.89464 3.48043 5 3.73478 5 4V6H19V4C19 3.73478 19.1054 3.48043 19.2929 3.29289C19.4804 3.10536 19.7348 3 20 3Z" fill="currentColor"/>
</svg>
