<svg width="24" height="24" viewBox="0 0 24 24" fill="none" xmlns="http://www.w3.org/2000/svg">
<path d="M6 3C6.53043 3 7.03914 3.21071 7.41421 3.58579C7.78929 3.96086 8 4.46957 8 5V19C8 19.5304 7.78929 20.0391 7.41421 20.4142C7.03914 20.7893 6.53043 21 6 21H4C3.73478 21 3.48043 20.8946 3.29289 20.7071C3.10536 20.5196 3 20.2652 3 20C3 19.7348 3.10536 19.4804 3.29289 19.2929C3.48043 19.1054 3.73478 19 4 19H6V5H4C3.73478 5 3.48043 4.89464 3.29289 4.70711C3.10536 4.51957 3 4.26522 3 4C3 3.73478 3.10536 3.48043 3.29289 3.29289C3.48043 3.10536 3.73478 3 4 3H6ZM20 3C20.2549 3.00028 20.5 3.09788 20.6854 3.27285C20.8707 3.44782 20.9822 3.68695 20.9972 3.94139C21.0121 4.19584 20.9293 4.44638 20.7657 4.64183C20.6021 4.83729 20.3701 4.9629 20.117 4.993L20 5H18V19H20C20.2549 19.0003 20.5 19.0979 20.6854 19.2728C20.8707 19.4478 20.9822 19.687 20.9972 19.9414C21.0121 20.1958 20.9293 20.4464 20.7657 20.6418C20.6021 20.8373 20.3701 20.9629 20.117 20.993L20 21H18C17.4954 21.0002 17.0094 20.8096 16.6395 20.4665C16.2695 20.1234 16.0428 19.6532 16.005 19.15L16 19V5C15.9998 4.49542 16.1904 4.00943 16.5335 3.63945C16.8766 3.26947 17.3468 3.04284 17.85 3.005L18 3H20ZM12 7C12.2449 7.00003 12.4813 7.08996 12.6644 7.25272C12.8474 7.41547 12.9643 7.63975 12.993 7.883L13 8V16C12.9997 16.2549 12.9021 16.5 12.7272 16.6854C12.5522 16.8707 12.313 16.9822 12.0586 16.9972C11.8042 17.0121 11.5536 16.9293 11.3582 16.7657C11.1627 16.6021 11.0371 16.3701 11.007 16.117L11 16V8C11 7.73478 11.1054 7.48043 11.2929 7.29289C11.4804 7.10536 11.7348 7 12 7Z" fill="currentColor"/>
</svg>
