<svg width="24" height="24" viewBox="0 0 24 24" fill="none" xmlns="http://www.w3.org/2000/svg">
<path fill-rule="evenodd" clip-rule="evenodd" d="M13.2188 3.304C13.4408 3.45 13.7128 3.63 14.1098 3.861C18.3798 6.342 20.9238 9.171 20.9978 12.403C21.0478 14.569 20.1148 16.47 18.6988 17.669C17.7208 18.497 16.4908 19.002 15.2008 19.001C15.3988 19.577 15.6178 20.087 15.8568 20.485C15.9479 20.6367 15.9972 20.8099 15.9995 20.9869C16.0018 21.1639 15.9571 21.3383 15.87 21.4924C15.7828 21.6464 15.6564 21.7746 15.5035 21.8638C15.3506 21.953 15.1768 22 14.9998 22H8.99979C8.8228 22 8.64898 21.953 8.4961 21.8638C8.34321 21.7746 8.21674 21.6464 8.12959 21.4924C8.04245 21.3383 7.99775 21.1639 8.00007 20.9869C8.00239 20.8099 8.05164 20.6367 8.14279 20.485C8.38179 20.087 8.60079 19.577 8.79779 19.001C7.50779 19.002 6.27779 18.497 5.30079 17.669C3.88479 16.47 2.95279 14.569 3.00079 12.403C3.07579 9.17 5.62079 6.343 9.88979 3.861C10.2868 3.63 10.5588 3.451 10.7808 3.304C11.1528 3.058 11.5348 2.806 11.9998 2.806C12.4638 2.806 12.8468 3.058 13.2188 3.304ZM10.8948 5.59C6.75179 7.998 5.04979 10.325 4.99979 12.448C4.96479 14.008 5.63479 15.333 6.59179 16.143C7.54679 16.951 8.74279 17.223 9.84879 16.804C10.0193 16.7394 10.2043 16.7227 10.3837 16.7556C10.5631 16.7886 10.73 16.87 10.8665 16.991C11.0029 17.112 11.1037 17.268 11.1578 17.4422C11.212 17.6163 11.2175 17.8019 11.1738 17.979C11.0088 18.6637 10.8052 19.3384 10.5638 20H13.4338C13.1924 19.3384 12.9888 18.6637 12.8238 17.979C12.7801 17.8019 12.7856 17.6163 12.8397 17.4422C12.8939 17.268 12.9947 17.112 13.1311 16.991C13.2676 16.87 13.4345 16.7886 13.6139 16.7556C13.7933 16.7227 13.9782 16.7394 14.1488 16.804C15.2548 17.224 16.4508 16.951 17.4058 16.143C18.3628 15.333 19.0328 14.009 18.9978 12.448C18.9488 10.325 17.2468 7.998 13.1038 5.59C12.5758 5.283 12.2198 5.04 11.9988 4.896C11.7788 5.04 11.4218 5.283 10.8938 5.59H10.8948Z" fill="currentColor"/>
</svg>
