<svg width="24" height="24" viewBox="0 0 24 24" fill="none" xmlns="http://www.w3.org/2000/svg">
<path fill-rule="evenodd" clip-rule="evenodd" d="M5.8277 13.004C5.84279 12.9708 5.86713 12.9426 5.89781 12.9228C5.92848 12.9031 5.96421 12.8926 6.0007 12.8926C6.03719 12.8926 6.07291 12.9031 6.10359 12.9228C6.13427 12.9426 6.15861 12.9708 6.1737 13.004L6.3437 13.375C7.07112 14.8797 8.21686 16.1428 9.6437 17.013L9.9087 17.168C9.93681 17.1837 9.96022 17.2067 9.97651 17.2344C9.99281 17.2622 10.0014 17.2938 10.0014 17.326C10.0014 17.3582 9.99281 17.3898 9.97651 17.4176C9.96022 17.4454 9.93681 17.4683 9.9087 17.484L9.6437 17.639C8.21686 18.5092 7.07112 19.7723 6.3437 21.277L6.1737 21.649C6.15861 21.6822 6.13427 21.7104 6.10359 21.7302C6.07291 21.75 6.03719 21.7605 6.0007 21.7605C5.96421 21.7605 5.92848 21.75 5.89781 21.7302C5.86713 21.7104 5.84279 21.6822 5.8277 21.649L5.6577 21.277C4.93028 19.7723 3.78454 18.5092 2.3577 17.639L2.0927 17.484C2.06459 17.4683 2.04118 17.4454 2.02489 17.4176C2.00859 17.3898 2 17.3582 2 17.326C2 17.2938 2.00859 17.2622 2.02489 17.2344C2.04118 17.2067 2.06459 17.1837 2.0927 17.168L2.3577 17.013C3.90378 16.0704 5.11691 14.6695 5.8277 13.004ZM5.9977 16.49L5.8227 16.696C5.6977 16.836 5.5697 16.973 5.4377 17.106L5.2377 17.304L5.2107 17.328L5.4377 17.551L5.6327 17.754L5.8227 17.962L5.9977 18.167L6.1727 17.962C6.2977 17.822 6.4257 17.684 6.5577 17.551L6.7847 17.328L6.7577 17.304C6.6227 17.174 6.4907 17.041 6.3627 16.904L6.1727 16.696L5.9977 16.49ZM14.4737 2.73002C14.4997 2.67149 14.5421 2.62177 14.5958 2.58686C14.6495 2.55196 14.7122 2.53339 14.7762 2.53339C14.8402 2.53339 14.9029 2.55196 14.9566 2.58686C15.0103 2.62177 15.0527 2.67149 15.0787 2.73002L15.2287 3.06602L15.3767 3.38002L15.5717 3.77002L15.7977 4.19002L15.9097 4.38602C16.9058 6.10517 18.2291 7.61255 19.8047 8.82302L20.2317 9.14002C20.6766 9.45735 21.1382 9.75044 21.6147 10.018C21.6638 10.0456 21.7047 10.0857 21.7332 10.1343C21.7617 10.1829 21.7767 10.2382 21.7767 10.2945C21.7767 10.3508 21.7617 10.4061 21.7332 10.4547C21.7047 10.5033 21.6638 10.5435 21.6147 10.571C21.2449 10.7792 20.8839 11.0027 20.5327 11.241L20.1727 11.492C18.4361 12.7445 16.9834 14.3495 15.9097 16.202L15.7787 16.434C15.6372 16.6884 15.5031 16.9468 15.3767 17.209L15.2297 17.523L15.0797 17.859C15.0538 17.9178 15.0114 17.9678 14.9576 18.003C14.9038 18.0381 14.8409 18.0568 14.7767 18.0568C14.7124 18.0568 14.6496 18.0381 14.5958 18.003C14.542 17.9678 14.4996 17.9178 14.4737 17.859L14.3237 17.523L14.1757 17.209L13.9797 16.819L13.7547 16.399L13.6417 16.203C12.6458 14.484 11.3229 12.9766 9.7477 11.766L9.3197 11.45C8.87524 11.132 8.4139 10.8382 7.9377 10.57C7.88881 10.5424 7.84814 10.5023 7.81984 10.4538C7.79154 10.4053 7.77663 10.3502 7.77663 10.294C7.77663 10.2379 7.79154 10.1827 7.81984 10.1342C7.84814 10.0857 7.88881 10.0456 7.9377 10.018C8.30749 9.81012 8.66846 9.58692 9.0197 9.34902L9.3797 9.09702C11.1159 7.84436 12.5682 6.23939 13.6417 4.38702L13.7737 4.15502C13.9147 3.90102 14.0487 3.64302 14.1757 3.38002L14.3227 3.06602L14.4737 2.73002ZM14.7757 6.34502C13.7696 7.84575 12.5334 9.17874 11.1127 10.295C12.5334 11.4113 13.7696 12.7443 14.7757 14.245C15.7818 12.7443 17.0179 11.4113 18.4387 10.295C17.018 9.17876 15.7818 7.84577 14.7757 6.34502Z" fill="currentColor"/>
</svg>
