<svg width="24" height="24" viewBox="0 0 24 24" fill="none" xmlns="http://www.w3.org/2000/svg">
<path fill-rule="evenodd" clip-rule="evenodd" d="M7.70506 4.422L13.7391 12.03C15.0461 11.459 17.0391 11.382 18.7181 13.06C19.7331 14.076 20.3651 15.318 20.5811 16.5C20.7911 17.65 20.6301 18.926 19.7781 19.778C18.9271 20.63 17.6501 20.791 16.5011 20.581C15.3191 20.365 14.0761 19.733 13.0611 18.717C11.3811 17.038 11.4591 15.046 12.0301 13.739L4.42206 7.705C4.16367 7.50033 3.9515 7.24332 3.79949 6.95083C3.64747 6.65835 3.55905 6.33703 3.54003 6.00795C3.521 5.67887 3.57181 5.34949 3.68911 5.04144C3.80641 4.73339 3.98754 4.45364 4.22062 4.22056C4.4537 3.98748 4.73346 3.80635 5.04151 3.68905C5.34955 3.57175 5.67893 3.52094 6.00801 3.53997C6.33709 3.55899 6.65842 3.64741 6.9509 3.79943C7.24338 3.95144 7.50039 4.16361 7.70506 4.422ZM17.3031 14.475C16.1031 13.275 14.7311 13.653 14.2121 14.044L14.1201 14.119L14.0911 14.154C13.6861 14.62 13.2271 16.054 14.4751 17.304C15.2161 18.044 16.0951 18.474 16.8611 18.614C17.6581 18.759 18.1551 18.573 18.3641 18.364C18.5741 18.154 18.7601 17.658 18.6141 16.86C18.4741 16.095 18.0441 15.216 17.3041 14.475H17.3031ZM5.63606 5.635C5.60236 5.66861 5.57615 5.70898 5.55918 5.75346C5.54221 5.79793 5.53485 5.84549 5.53759 5.89301C5.54033 5.94053 5.55311 5.98694 5.57508 6.02916C5.59705 6.07139 5.62772 6.10848 5.66506 6.138L7.95206 7.952L6.13806 5.665C6.10862 5.62775 6.07163 5.59714 6.02954 5.57518C5.98744 5.55322 5.94117 5.5404 5.89378 5.53757C5.84638 5.53474 5.79892 5.54195 5.75451 5.55874C5.71009 5.57553 5.66973 5.60152 5.63606 5.635Z" fill="currentColor"/>
</svg>
