<svg width="24" height="24" viewBox="0 0 24 24" fill="none" xmlns="http://www.w3.org/2000/svg">
<path d="M18 3C18.7652 2.99996 19.5015 3.29233 20.0583 3.81728C20.615 4.34224 20.9501 5.06011 20.995 5.824L21 6V18C21 18.7652 20.7077 19.5015 20.1827 20.0583C19.6578 20.615 18.9399 20.9501 18.176 20.995L18 21H6C5.23479 21 4.49849 20.7077 3.94174 20.1827C3.38499 19.6578 3.04989 18.9399 3.005 18.176L3 18V6C2.99996 5.23479 3.29233 4.49849 3.81728 3.94174C4.34224 3.38499 5.06011 3.04989 5.824 3.005L6 3H18ZM18 5H6C5.75507 5.00003 5.51866 5.08996 5.33563 5.25272C5.15259 5.41547 5.03566 5.63975 5.007 5.883L5 6V18C5.00003 18.2449 5.08996 18.4813 5.25272 18.6644C5.41547 18.8474 5.63975 18.9643 5.883 18.993L6 19H18C18.2449 19 18.4813 18.91 18.6644 18.7473C18.8474 18.5845 18.9643 18.3603 18.993 18.117L19 18V6C19 5.75507 18.91 5.51866 18.7473 5.33563C18.5845 5.15259 18.3603 5.03566 18.117 5.007L18 5ZM12.707 9.465L15.536 12.293C15.6288 12.3859 15.7025 12.4962 15.7527 12.6176C15.8029 12.7389 15.8287 12.869 15.8287 13.0004C15.8287 13.1317 15.8027 13.2618 15.7524 13.3831C15.7021 13.5044 15.6284 13.6147 15.5355 13.7075C15.4426 13.8003 15.3323 13.874 15.2109 13.9242C15.0896 13.9744 14.9595 14.0002 14.8281 14.0002C14.6968 14.0002 14.5667 13.9742 14.4454 13.9239C14.3241 13.8736 14.2138 13.7999 14.121 13.707L12 11.586L9.879 13.707C9.69149 13.8946 9.43712 14.0001 9.17185 14.0002C8.90658 14.0003 8.65214 13.895 8.4645 13.7075C8.27686 13.52 8.17139 13.2656 8.1713 13.0004C8.1712 12.7351 8.27649 12.4806 8.464 12.293L11.293 9.465C11.4805 9.27753 11.7348 9.17221 12 9.17221C12.2652 9.17221 12.5195 9.27753 12.707 9.465Z" fill="currentColor"/>
</svg>
