<svg width="24" height="24" viewBox="0 0 24 24" fill="none" xmlns="http://www.w3.org/2000/svg">
<path d="M18 3C18.7652 2.99996 19.5015 3.29233 20.0583 3.81728C20.615 4.34224 20.9501 5.06011 20.995 5.824L21 6V18C21 18.7652 20.7077 19.5015 20.1827 20.0583C19.6578 20.615 18.9399 20.9501 18.176 20.995L18 21H6C5.23479 21 4.49849 20.7077 3.94174 20.1827C3.38499 19.6578 3.04989 18.9399 3.005 18.176L3 18V6C2.99996 5.23479 3.29233 4.49849 3.81728 3.94174C4.34224 3.38499 5.06011 3.04989 5.824 3.005L6 3H18ZM18 5H6C5.75507 5.00003 5.51866 5.08996 5.33563 5.25272C5.15259 5.41547 5.03566 5.63975 5.007 5.883L5 6V18C5.00003 18.2449 5.08996 18.4813 5.25272 18.6644C5.41547 18.8474 5.63975 18.9643 5.883 18.993L6 19H18C18.2449 19 18.4813 18.91 18.6644 18.7473C18.8474 18.5845 18.9643 18.3603 18.993 18.117L19 18V6C19 5.75507 18.91 5.51866 18.7473 5.33563C18.5845 5.15259 18.3603 5.03566 18.117 5.007L18 5ZM9.879 10.293L12 12.414L14.121 10.293C14.3085 10.1054 14.5629 9.99989 14.8281 9.9998C15.0934 9.9997 15.3479 10.105 15.5355 10.2925C15.7231 10.48 15.8286 10.7344 15.8287 10.9996C15.8288 11.2649 15.7235 11.5194 15.536 11.707L12.707 14.536C12.5195 14.7235 12.2652 14.8288 12 14.8288C11.7348 14.8288 11.4805 14.7235 11.293 14.536L8.464 11.707C8.37116 11.6141 8.29752 11.5038 8.2473 11.3824C8.19708 11.2611 8.17125 11.131 8.1713 10.9996C8.17134 10.8683 8.19726 10.7382 8.24757 10.6169C8.29788 10.4956 8.37159 10.3853 8.4645 10.2925C8.55741 10.1997 8.6677 10.126 8.78907 10.0758C8.91043 10.0256 9.04051 9.99975 9.17185 9.9998C9.3032 9.99984 9.43326 10.0258 9.55459 10.0761C9.67592 10.1264 9.78616 10.2001 9.879 10.293Z" fill="currentColor"/>
</svg>
