<svg width="24" height="24" viewBox="0 0 24 24" fill="none" xmlns="http://www.w3.org/2000/svg">
<path fill-rule="evenodd" clip-rule="evenodd" d="M12.6329 2.10801C13.4229 2.04801 14.0829 2.49701 14.4159 3.09801L15.6359 5.30801C17.3779 5.19601 18.7179 5.84001 19.6839 6.70601C20.7429 7.65601 21.3359 8.85001 21.6139 9.53001C21.9139 10.263 21.6919 11.03 21.2239 11.532L19.4979 13.376C20.1439 14.998 19.9449 16.471 19.4199 17.658C18.8439 18.958 17.8909 19.891 17.3299 20.366C16.7259 20.878 15.9279 20.904 15.3059 20.613L13.0189 19.542C11.6759 20.657 10.2129 20.923 8.92287 20.79C7.50787 20.645 6.32587 20.027 5.70087 19.64C5.02687 19.223 4.75587 18.472 4.84087 17.791L5.15287 15.285C3.67687 14.352 2.97187 13.043 2.69887 11.775C2.40087 10.385 2.62287 9.07001 2.79787 8.35501C2.98587 7.58601 3.61587 7.09501 4.28987 6.96601L6.76987 6.48801C7.20087 4.79701 8.22787 3.72101 9.34987 3.07101C10.5799 2.35701 11.8999 2.16201 12.6329 2.10801ZM12.6899 4.10901C12.0899 4.16301 11.1679 4.32901 10.3539 4.80001C9.53987 5.27301 8.81087 6.05801 8.61087 7.48201C8.58191 7.68849 8.48913 7.88076 8.3455 8.03191C8.20188 8.18306 8.01461 8.28554 7.80987 8.32501L4.71987 8.92001C4.58487 9.50701 4.45687 10.435 4.65487 11.355C4.85187 12.275 5.37487 13.211 6.66687 13.841C6.85438 13.9324 7.00861 14.0802 7.10795 14.2637C7.20729 14.4471 7.24677 14.657 7.22087 14.864L6.83087 17.987C7.34787 18.297 8.19087 18.704 9.12687 18.801C10.0639 18.897 11.1149 18.691 12.1139 17.656C12.2587 17.5061 12.4466 17.4052 12.6516 17.3674C12.8565 17.3296 13.0681 17.3567 13.2569 17.445L16.1069 18.78C16.5619 18.384 17.2099 17.709 17.5909 16.848C17.9719 15.988 18.0999 14.923 17.4249 13.654C17.327 13.4699 17.2891 13.2597 17.3165 13.053C17.3439 12.8462 17.4353 12.6532 17.5779 12.501L19.7279 10.203C19.4919 9.64901 19.0499 8.82301 18.3479 8.19501C17.6479 7.56701 16.6759 7.11701 15.2599 7.36601C15.0545 7.40246 14.8428 7.37376 14.6545 7.28392C14.4662 7.19408 14.3108 7.04761 14.2099 6.86501L12.6899 4.10901Z" fill="currentColor"/>
</svg>
