<svg width="24" height="24" viewBox="0 0 24 24" fill="none" xmlns="http://www.w3.org/2000/svg">
<path fill-rule="evenodd" clip-rule="evenodd" d="M11.0002 6.70399L9.68723 8.95899C9.59977 9.10891 9.48205 9.23897 9.34156 9.3409C9.20107 9.44282 9.04089 9.51437 8.87123 9.55099L4.37923 10.524L7.44223 13.951C7.67523 14.213 7.78823 14.561 7.75323 14.91L7.29023 19.483L11.0002 17.848V6.70399ZM10.6702 3.29699C11.3122 2.19399 13.0002 2.64999 13.0002 3.92599V18.337C13.0002 18.832 12.7072 19.281 12.2542 19.481L6.91823 21.832C6.71819 21.92 6.49858 21.954 6.28129 21.9307C6.06401 21.9073 5.85664 21.8274 5.67987 21.6989C5.50311 21.5704 5.36312 21.3978 5.27387 21.1983C5.18462 20.9988 5.14923 20.7794 5.17123 20.562L5.73023 15.037L2.03023 10.897C1.88446 10.734 1.78398 10.5357 1.73884 10.3217C1.6937 10.1078 1.70547 9.88572 1.77297 9.67774C1.84048 9.46977 1.96135 9.28314 2.12354 9.13649C2.28572 8.98983 2.48353 8.88829 2.69723 8.84199L8.12523 7.66599L10.6702 3.29699Z" fill="currentColor"/>
</svg>
