<svg width="24" height="24" viewBox="0 0 24 24" fill="none" xmlns="http://www.w3.org/2000/svg">
<path fill-rule="evenodd" clip-rule="evenodd" d="M12 2C17.523 2 22 6.477 22 12C22 17.523 17.523 22 12 22C6.477 22 2 17.523 2 12C2 6.477 6.477 2 12 2ZM8.313 14.781C7.269 13.946 5.853 13.623 4.205 13.809C4.55479 15.3116 5.33104 16.6811 6.44048 17.7531C7.54991 18.8252 8.94532 19.554 10.459 19.852C10.266 17.227 9.403 15.651 8.313 14.781ZM15.687 14.781C14.597 15.653 13.734 17.227 13.541 19.851C15.0544 19.5529 16.4495 18.8241 17.5587 17.7523C18.6679 16.6805 19.4441 15.3112 19.794 13.809C18.147 13.623 16.731 13.946 15.687 14.781ZM12 10C11.05 10 10.268 10.37 9.694 10.778L9.196 11.125C8.672 11.48 8.07 11.845 7.395 12.085C8.18319 12.321 8.9188 12.7059 9.562 13.219C10.686 14.119 11.515 15.406 12 17.078C12.485 15.406 13.314 14.118 14.438 13.219C15.0813 12.7063 15.8169 12.3217 16.605 12.086C15.93 11.845 15.328 11.48 14.804 11.125L14.306 10.778C13.732 10.37 12.95 10 12 10ZM12 4C10.1362 4.00025 8.33088 4.65102 6.89559 5.84004C5.46029 7.02907 4.48501 8.68176 4.138 10.513L4.095 10.761L6.305 10.319C6.887 10.203 7.44 9.896 8.058 9.479L8.535 9.147C9.332 8.581 10.513 8 12 8C13.388 8 14.509 8.506 15.3 9.034L15.942 9.479C16.482 9.844 16.974 10.124 17.478 10.267L17.695 10.319L19.905 10.761C19.6092 8.87693 18.6503 7.16044 17.2009 5.92084C15.7516 4.68124 13.9071 4.00004 12 4Z" fill="currentColor"/>
</svg>
