<svg width="24" height="24" viewBox="0 0 24 24" fill="none" xmlns="http://www.w3.org/2000/svg">
<path d="M19 4C19.5046 3.99984 19.9906 4.19041 20.3605 4.5335C20.7305 4.87659 20.9572 5.34684 20.995 5.85L21 6V10C21.0002 10.5046 20.8096 10.9906 20.4665 11.3605C20.1234 11.7305 19.6532 11.9572 19.15 11.995L19 12H5C4.49542 12.0002 4.00943 11.8096 3.63945 11.4665C3.26947 11.1234 3.04284 10.6532 3.005 10.15L3 10V6C2.99984 5.49542 3.19041 5.00943 3.5335 4.63945C3.87659 4.26947 4.34684 4.04284 4.85 4.005L5 4H19ZM19 6H5V10H19V6ZM10 7C10.2549 7.00028 10.5 7.09788 10.6854 7.27285C10.8707 7.44782 10.9822 7.68695 10.9972 7.94139C11.0121 8.19584 10.9293 8.44638 10.7657 8.64183C10.6021 8.83729 10.3701 8.9629 10.117 8.993L10 9H8C7.74512 8.99972 7.49997 8.90212 7.31463 8.72715C7.1293 8.55218 7.01777 8.31305 7.00283 8.05861C6.98789 7.80416 7.07067 7.55362 7.23426 7.35817C7.39786 7.16271 7.6299 7.0371 7.883 7.007L8 7H10ZM19 13C19.5046 12.9998 19.9906 13.1904 20.3605 13.5335C20.7305 13.8766 20.9572 14.3468 20.995 14.85L21 15V19C21.0002 19.5046 20.8096 19.9906 20.4665 20.3605C20.1234 20.7305 19.6532 20.9572 19.15 20.995L19 21H5C4.49542 21.0002 4.00943 20.8096 3.63945 20.4665C3.26947 20.1234 3.04284 19.6532 3.005 19.15L3 19V15C2.99984 14.4954 3.19041 14.0094 3.5335 13.6395C3.87659 13.2695 4.34684 13.0428 4.85 13.005L5 13H19ZM19 15H5V19H19V15ZM10 16C10.2652 16 10.5196 16.1054 10.7071 16.2929C10.8946 16.4804 11 16.7348 11 17C11 17.2652 10.8946 17.5196 10.7071 17.7071C10.5196 17.8946 10.2652 18 10 18H8C7.73478 18 7.48043 17.8946 7.29289 17.7071C7.10536 17.5196 7 17.2652 7 17C7 16.7348 7.10536 16.4804 7.29289 16.2929C7.48043 16.1054 7.73478 16 8 16H10Z" fill="currentColor"/>
</svg>
