<svg width="24" height="24" viewBox="0 0 24 24" fill="none" xmlns="http://www.w3.org/2000/svg">
<path fill-rule="evenodd" clip-rule="evenodd" d="M6.93619 3.715C8.32619 2.567 10.2402 2 12.4042 2C14.1502 2 15.8942 2.275 17.6632 2.981C17.8489 3.0552 18.0081 3.18338 18.1202 3.34898C18.2324 3.51459 18.2923 3.71001 18.2922 3.91V7.55C18.2922 8.794 17.0062 9.466 16.0012 9.05C14.8032 8.556 13.4692 8.291 12.4042 8.291C12.1872 8.291 12.0182 8.307 11.8922 8.331C11.8422 8.341 11.8032 8.351 11.7722 8.361C11.8612 8.433 12.0222 8.531 12.3002 8.651C12.6092 8.785 12.9802 8.914 13.4292 9.067L13.4902 9.087C13.9102 9.231 14.3822 9.392 14.8572 9.582C15.8472 9.978 16.9512 10.536 17.8072 11.464C18.6922 12.421 19.2522 13.705 19.2572 15.418V15.421C19.2572 17.486 18.4222 19.176 16.9522 20.325C15.5112 21.454 13.5422 22 11.3402 22C9.35228 21.9936 7.38656 21.5819 5.56319 20.79C5.38387 20.7127 5.23113 20.5845 5.12379 20.4214C5.01646 20.2583 4.95924 20.0673 4.95919 19.872V16.18C4.95919 14.939 6.25619 14.243 7.28119 14.71C8.67119 15.346 10.1822 15.748 11.3402 15.748C11.8372 15.748 12.1012 15.675 12.2102 15.614C12.216 15.6109 12.2217 15.6076 12.2272 15.604C12.2307 15.5835 12.2324 15.5628 12.2322 15.542V15.537C12.2205 15.5191 12.2071 15.5024 12.1922 15.487C12.1082 15.401 11.9422 15.282 11.6322 15.134C11.2684 14.9693 10.8974 14.8211 10.5202 14.69C10.4469 14.6633 10.3735 14.6366 10.3002 14.61C9.92719 14.475 9.51819 14.327 9.11119 14.162C8.13819 13.767 7.04519 13.227 6.19519 12.352C5.31319 11.444 4.74219 10.225 4.74219 8.599C4.74219 6.573 5.52419 4.882 6.93619 3.716V3.715ZM8.21019 5.257C7.29219 6.015 6.74319 7.123 6.74319 8.597C6.74319 9.701 7.10919 10.421 7.63119 10.958C8.18619 11.529 8.96519 11.943 9.86419 12.307C10.2332 12.457 10.6002 12.59 10.9712 12.724L11.2052 12.809C11.6422 12.969 12.0932 13.138 12.4932 13.328C13.2062 13.668 14.2332 14.298 14.2332 15.541C14.2332 15.916 14.1502 16.285 13.9562 16.618C13.7718 16.9289 13.5073 17.1845 13.1902 17.358C12.6292 17.672 11.9472 17.748 11.3402 17.748C9.96719 17.748 8.38319 17.34 6.96019 16.75V19.197C8.46319 19.759 9.96119 20 11.3402 20C13.2382 20 14.7282 19.527 15.7212 18.751C16.6852 17.997 17.2582 16.899 17.2592 15.424C17.2542 14.19 16.8692 13.394 16.3392 12.822C15.7832 12.219 15.0052 11.796 14.1162 11.44C13.6902 11.27 13.2612 11.124 12.8312 10.977L12.7842 10.96C12.3523 10.8188 11.9259 10.6611 11.5062 10.487C11.1192 10.319 10.6972 10.1 10.3642 9.784C10.0022 9.44 9.73019 8.965 9.73019 8.36C9.73019 7.64 10.0582 7.037 10.6662 6.677C11.1862 6.369 11.8232 6.292 12.4052 6.292C13.6082 6.292 15.0022 6.551 16.2932 7.02V4.608C15.0022 4.177 13.7172 4 12.4042 4C10.5682 4 9.14919 4.481 8.20919 5.257H8.21019Z" fill="currentColor"/>
</svg>
