<svg width="24" height="24" viewBox="0 0 24 24" fill="none" xmlns="http://www.w3.org/2000/svg">
<path d="M18.9999 12C19.2547 12.0003 19.4999 12.0979 19.6852 12.2728C19.8706 12.4478 19.9821 12.687 19.997 12.9414C20.012 13.1958 19.9292 13.4464 19.7656 13.6418C19.602 13.8373 19.37 13.9629 19.1169 13.993L18.9999 14H16.8899C17.1069 14.327 17.2819 14.684 17.4079 15.063C18.3609 17.922 16.2989 20.872 13.3249 20.996L13.1299 21H11.4279C10.4032 21.0002 9.39719 20.7259 8.51439 20.2057C7.63159 19.6856 6.90421 18.9384 6.40787 18.042L6.29587 17.829L6.11387 17.464C6.01681 17.28 5.98008 17.0701 6.00887 16.864C6.03639 16.6638 6.12393 16.4766 6.25994 16.3272C6.39595 16.1777 6.57405 16.073 6.77078 16.0267C6.9675 15.9805 7.17362 15.9949 7.36197 16.0682C7.55032 16.1414 7.71205 16.27 7.82587 16.437L7.86787 16.503L8.08487 16.934C8.37915 17.5227 8.82366 18.0232 9.37345 18.3849C9.92324 18.7466 10.5588 18.9567 11.2159 18.994L11.4279 19H13.1289C13.6776 19.0004 14.2113 18.821 14.6483 18.4892C15.0853 18.1574 15.4016 17.6916 15.5487 17.163C15.6959 16.6344 15.6657 16.0722 15.4629 15.5623C15.2601 15.0525 14.8959 14.6231 14.4259 14.34L14.2519 14.244L13.7639 14H4.99987C4.74499 13.9997 4.49984 13.9021 4.3145 13.7272C4.12916 13.5522 4.01763 13.313 4.0027 13.0586C3.98776 12.8042 4.07054 12.5536 4.23413 12.3582C4.39772 12.1627 4.62977 12.0371 4.88287 12.007L4.99987 12H18.9999ZM12.5719 3C13.6374 2.99984 14.6819 3.29642 15.5883 3.8565C16.4947 4.41657 17.2273 5.21801 17.7039 6.171L17.8839 6.534C17.9841 6.72763 18.0184 6.94867 17.9816 7.16357C17.9448 7.37848 17.839 7.57552 17.6801 7.72481C17.5212 7.8741 17.3179 7.96748 17.1011 7.9908C16.8843 8.01411 16.6659 7.96608 16.4789 7.854C16.352 7.77685 16.2441 7.6723 16.1629 7.548L16.1279 7.49L15.9149 7.066C15.6045 6.44514 15.1273 5.92299 14.5369 5.55808C13.9464 5.19317 13.266 4.99992 12.5719 5H10.8709C10.305 4.99944 9.75562 5.19008 9.31175 5.541C8.86788 5.89191 8.5556 6.38251 8.42557 6.93319C8.29554 7.48388 8.35539 8.06234 8.59542 8.57474C8.83544 9.08713 9.24155 9.5034 9.74787 9.756L12.2359 11H8.01287C7.35316 10.4606 6.85977 9.7453 6.58987 8.937C5.61787 6.017 7.79087 3 10.8709 3H12.5719Z" fill="currentColor"/>
</svg>
