<svg width="24" height="24" viewBox="0 0 24 24" fill="none" xmlns="http://www.w3.org/2000/svg">
<path d="M20 4C20.5304 4 21.0391 4.21071 21.4142 4.58579C21.7893 4.96086 22 5.46957 22 6V18C22 18.5304 21.7893 19.0391 21.4142 19.4142C21.0391 19.7893 20.5304 20 20 20H4C3.46957 20 2.96086 19.7893 2.58579 19.4142C2.21071 19.0391 2 18.5304 2 18V6C2 5.46957 2.21071 4.96086 2.58579 4.58579C2.96086 4.21071 3.46957 4 4 4H20ZM20 6H4V18H20V6ZM8.5 8C9.16544 7.99978 9.81206 8.2208 10.3381 8.6283C10.8642 9.0358 11.2399 9.60664 11.406 10.251C11.4718 10.4988 11.4399 10.7625 11.3169 10.9875C11.1938 11.2125 10.9891 11.3816 10.7449 11.4599C10.5007 11.5382 10.2358 11.5197 10.0048 11.4083C9.7739 11.2968 9.5946 11.1009 9.504 10.861L9.469 10.749C9.40872 10.5126 9.26408 10.3063 9.06232 10.1691C8.86055 10.0319 8.61558 9.9732 8.37354 10.0041C8.1315 10.0349 7.90909 10.1532 7.7482 10.3366C7.58731 10.5201 7.49903 10.756 7.5 11V13C7.49968 13.2341 7.58148 13.4608 7.73114 13.6408C7.88081 13.8207 8.08886 13.9425 8.31906 13.9848C8.54925 14.0272 8.78702 13.9875 8.99093 13.8726C9.19484 13.7576 9.35199 13.5748 9.435 13.356L9.469 13.251C9.50142 13.1235 9.55868 13.0037 9.63749 12.8984C9.71629 12.793 9.81511 12.7043 9.92826 12.6372C10.0414 12.5702 10.1667 12.5261 10.2969 12.5075C10.4271 12.4889 10.5598 12.4962 10.6871 12.529C10.8145 12.5617 10.9342 12.6193 11.0393 12.6984C11.1445 12.7775 11.2329 12.8765 11.2997 12.9898C11.3665 13.1032 11.4102 13.2286 11.4285 13.3588C11.4467 13.4891 11.4391 13.6217 11.406 13.749C11.2245 14.4571 10.7907 15.0745 10.1861 15.4853C9.58148 15.8961 8.84771 16.072 8.12256 15.9801C7.39741 15.8881 6.73079 15.5346 6.24789 14.9858C5.76499 14.4371 5.49905 13.731 5.5 13V11C5.5 10.2044 5.81607 9.44129 6.37868 8.87868C6.94129 8.31607 7.70435 8 8.5 8ZM15.5 8C16.1654 7.99978 16.8121 8.2208 17.3381 8.6283C17.8642 9.0358 18.2399 9.60664 18.406 10.251C18.4718 10.4988 18.4399 10.7625 18.3169 10.9875C18.1938 11.2125 17.9891 11.3816 17.7449 11.4599C17.5007 11.5382 17.2358 11.5197 17.0048 11.4083C16.7739 11.2968 16.5946 11.1009 16.504 10.861L16.469 10.749C16.4098 10.5237 16.2738 10.326 16.0846 10.1902C15.8953 10.0543 15.6646 9.98873 15.4321 10.0047C15.1997 10.0207 14.9801 10.1173 14.8113 10.2778C14.6424 10.4383 14.5348 10.6527 14.507 10.884L14.5 11V13C14.4997 13.2341 14.5815 13.4608 14.7311 13.6408C14.8808 13.8207 15.0889 13.9425 15.3191 13.9848C15.5493 14.0272 15.787 13.9875 15.9909 13.8726C16.1948 13.7576 16.352 13.5748 16.435 13.356L16.469 13.251C16.5014 13.1235 16.5587 13.0037 16.6375 12.8984C16.7163 12.793 16.8151 12.7043 16.9283 12.6372C17.0414 12.5702 17.1667 12.5261 17.2969 12.5075C17.4271 12.4889 17.5597 12.4962 17.6871 12.529C17.8145 12.5617 17.9342 12.6193 18.0393 12.6984C18.1445 12.7775 18.2329 12.8765 18.2997 12.9898C18.3665 13.1032 18.4102 13.2286 18.4285 13.3588C18.4467 13.4891 18.4391 13.6217 18.406 13.749C18.2276 14.4416 17.8076 15.0477 17.2217 15.4579C16.6359 15.8682 15.9227 16.0556 15.2109 15.9865C14.499 15.9174 13.8353 15.5962 13.3393 15.0809C12.8434 14.5655 12.5478 13.89 12.506 13.176L12.5 13V11C12.5 10.2044 12.8161 9.44129 13.3787 8.87868C13.9413 8.31607 14.7044 8 15.5 8Z" fill="currentColor"/>
</svg>
