<svg width="24" height="24" viewBox="0 0 24 24" fill="none" xmlns="http://www.w3.org/2000/svg">
<path fill-rule="evenodd" clip-rule="evenodd" d="M9.87916 4.22203C10.5225 4.86402 10.9272 5.70656 11.0262 6.61003C11.8992 6.70603 12.7462 7.08903 13.4142 7.75803C14.0578 8.39953 14.4629 9.24174 14.5622 10.145C15.2259 10.2189 15.8606 10.4577 16.4084 10.8396C16.9562 11.2216 17.3998 11.7345 17.6986 12.3318C17.9974 12.929 18.142 13.5915 18.1192 14.259C18.0964 14.9264 17.907 15.5775 17.5682 16.153L19.7782 18.364C19.8737 18.4563 19.9499 18.5666 20.0023 18.6886C20.0547 18.8106 20.0823 18.9418 20.0834 19.0746C20.0846 19.2074 20.0593 19.3391 20.009 19.462C19.9587 19.5849 19.8845 19.6965 19.7906 19.7904C19.6967 19.8843 19.585 19.9586 19.4621 20.0088C19.3392 20.0591 19.2075 20.0844 19.0748 20.0833C18.942 20.0821 18.8108 20.0545 18.6888 20.0021C18.5668 19.9497 18.4564 19.8735 18.3642 19.778L16.1542 17.568C15.5787 17.9069 14.9276 18.0963 14.2601 18.1191C13.5927 18.1419 12.9302 17.9973 12.3329 17.6984C11.7357 17.3996 11.2227 16.9561 10.8408 16.4083C10.4588 15.8604 10.22 15.2258 10.1462 14.562C9.24252 14.4629 8.39992 14.0579 7.75816 13.414C7.11425 12.7723 6.70917 11.9297 6.61016 11.026C5.97498 10.9555 5.36594 10.7337 4.83407 10.3794C4.30219 10.0251 3.86296 9.54848 3.55316 8.98949C3.24335 8.43051 3.072 7.80543 3.05344 7.16661C3.03489 6.52779 3.16967 5.89382 3.44651 5.3178C3.72335 4.74177 4.13417 4.24047 4.64459 3.85587C5.155 3.47127 5.75014 3.21456 6.38016 3.10726C7.01018 2.99996 7.65674 3.04517 8.26569 3.23913C8.87464 3.43308 9.42825 3.77012 9.88016 4.22203H9.87916ZM12.7072 12.707C12.5215 12.8928 12.3742 13.1133 12.2737 13.356C12.1733 13.5986 12.1216 13.8587 12.1216 14.1214C12.1217 14.384 12.1734 14.6441 12.274 14.8867C12.3745 15.1294 12.5219 15.3498 12.7077 15.5355C12.8934 15.7212 13.1139 15.8685 13.3566 15.969C13.5993 16.0694 13.8594 16.1211 14.122 16.1211C14.3847 16.121 14.6447 16.0693 14.8874 15.9687C15.13 15.8681 15.3505 15.7208 15.5362 15.535C15.9112 15.1599 16.1218 14.6511 16.1217 14.1207C16.1216 13.5902 15.9108 13.0815 15.5357 12.7065C15.1605 12.3315 14.6518 12.1209 14.1213 12.121C13.5909 12.1211 13.0822 12.3319 12.7072 12.707ZM12.0002 9.17203C11.7723 8.94414 11.4927 8.77469 11.1853 8.6781C10.8778 8.58152 10.5516 8.56067 10.2343 8.61732C9.91706 8.67397 9.61819 8.80645 9.36316 9.00347C9.10813 9.2005 8.90449 9.45623 8.76958 9.7489C8.63466 10.0416 8.57247 10.3625 8.5883 10.6844C8.60413 11.0063 8.6975 11.3196 8.86048 11.5976C9.02346 11.8756 9.2512 12.1101 9.52433 12.2812C9.79746 12.4523 10.1079 12.5548 10.4292 12.58C10.6242 12.112 10.9122 11.673 11.2932 11.293C11.6732 10.912 12.1122 10.624 12.5802 10.429C12.5435 9.95411 12.3377 9.50811 12.0002 9.17203ZM8.46516 5.63603C8.23729 5.40814 7.95773 5.23869 7.65027 5.1421C7.34281 5.04552 7.01656 5.02467 6.69931 5.08132C6.38206 5.13797 6.08319 5.27045 5.82816 5.46747C5.57313 5.6645 5.36949 5.92023 5.23458 6.2129C5.09966 6.50558 5.03747 6.82652 5.0533 7.1484C5.06913 7.47028 5.1625 7.78357 5.32548 8.0616C5.48845 8.33962 5.7162 8.57415 5.98933 8.7452C6.26246 8.91625 6.57288 9.01877 6.89416 9.04403C7.09491 8.56278 7.3885 8.12579 7.75816 7.75803C8.12593 7.38837 8.56291 7.09478 9.04416 6.89403C9.0079 6.41872 8.80207 5.97226 8.46416 5.63603H8.46516Z" fill="currentColor"/>
</svg>
