<svg width="24" height="24" viewBox="0 0 24 24" fill="none" xmlns="http://www.w3.org/2000/svg">
<path fill-rule="evenodd" clip-rule="evenodd" d="M14 4C14.7956 4 15.5587 4.31607 16.1213 4.87868C16.6839 5.44129 17 6.20435 17 7H20C20.5304 7 21.0391 7.21071 21.4142 7.58579C21.7893 7.96086 22 8.46957 22 9V19C22 19.5304 21.7893 20.0391 21.4142 20.4142C21.0391 20.7893 20.5304 21 20 21H4C3.46957 21 2.96086 20.7893 2.58579 20.4142C2.21071 20.0391 2 19.5304 2 19V9C2 8.46957 2.21071 7.96086 2.58579 7.58579C2.96086 7.21071 3.46957 7 4 7H7C7 6.20435 7.31607 5.44129 7.87868 4.87868C8.44129 4.31607 9.20435 4 10 4H14ZM15 9H9V19H15V9ZM20 9H17V19H20V9ZM7 9H4V19H7V9ZM14 6H10C9.75507 6.00003 9.51866 6.08996 9.33563 6.25272C9.15259 6.41547 9.03566 6.63975 9.007 6.883L9 7H15C15 6.75507 14.91 6.51866 14.7473 6.33563C14.5845 6.15259 14.3603 6.03566 14.117 6.007L14 6Z" fill="currentColor"/>
</svg>
