<svg width="24" height="24" viewBox="0 0 24 24" fill="none" xmlns="http://www.w3.org/2000/svg">
<path fill-rule="evenodd" clip-rule="evenodd" d="M16.0006 3C17.1648 3 18.3037 3.33864 19.2787 3.97464C20.2537 4.61065 21.0227 5.51655 21.4918 6.58194C21.961 7.64733 22.1101 8.82618 21.9209 9.97482C21.7318 11.1235 21.2126 12.1923 20.4266 13.051C20.8354 13.8729 21.032 14.784 20.9985 15.7014C20.9649 16.6187 20.7023 17.5131 20.2346 18.3029C19.7668 19.0927 19.1089 19.753 18.3206 20.2234C17.5323 20.6937 16.6389 20.9594 15.7216 20.996L15.5006 21H6.50065C5.43786 21.0011 4.40898 20.6259 3.59628 19.9411C2.78358 19.2562 2.23951 18.3058 2.06044 17.2582C1.88137 16.2106 2.07886 15.1335 2.61792 14.2175C3.15699 13.3016 4.00284 12.606 5.00565 12.254C4.97205 11.4622 5.09567 10.6715 5.36935 9.92775C5.64303 9.18397 6.06135 8.50177 6.60016 7.92057C7.13897 7.33936 7.78759 6.87066 8.50855 6.54153C9.22952 6.2124 10.0085 6.02937 10.8006 6.003C11.327 5.08963 12.0849 4.33112 12.9978 3.80392C13.9107 3.27671 14.9464 2.99943 16.0006 3ZM11.0006 8C10.4292 7.99994 9.86437 8.12232 9.34419 8.3589C8.82401 8.59548 8.36057 8.94078 7.98506 9.37153C7.60955 9.80228 7.33069 10.3085 7.16727 10.8561C7.00384 11.4037 6.95964 11.9799 7.03765 12.546L7.08264 12.81C7.1109 12.9473 7.11027 13.089 7.08079 13.226C7.05132 13.363 6.99364 13.4924 6.91143 13.606C6.82922 13.7195 6.72428 13.8147 6.60329 13.8854C6.4823 13.9562 6.3479 14.001 6.20865 14.017C5.58881 14.0892 5.01838 14.3906 4.60947 14.862C4.20055 15.3334 3.98271 15.9406 3.99875 16.5645C4.01479 17.1883 4.26355 17.7836 4.69615 18.2333C5.12876 18.6831 5.71392 18.9547 6.33665 18.995L6.50065 19H15.5006C16.4024 19.0019 17.2702 18.6556 17.9229 18.0334C18.5757 17.4112 18.9631 16.561 19.0043 15.6602C19.0456 14.7593 18.7375 13.8773 18.1444 13.198C17.5513 12.5187 16.7188 12.0946 15.8206 12.014C15.604 11.9941 15.3996 11.9049 15.2378 11.7594C15.076 11.614 14.9655 11.4203 14.9226 11.207C14.7392 10.3021 14.2485 9.48837 13.5337 8.90388C12.8189 8.3194 11.924 8.00006 11.0006 8ZM16.0006 5C15.4353 4.99935 14.8763 5.11884 14.3607 5.35054C13.8451 5.58225 13.3845 5.92088 13.0096 6.344C13.8734 6.6521 14.6552 7.15358 15.2954 7.8101C15.9357 8.46663 16.4173 9.26082 16.7036 10.132C17.6456 10.342 18.4956 10.794 19.1866 11.418C19.6368 10.8247 19.9125 10.1176 19.9825 9.37617C20.0525 8.63474 19.9142 7.88848 19.5831 7.22143C19.2519 6.55437 18.7411 5.993 18.1082 5.60053C17.4753 5.20806 16.7454 5.00008 16.0006 5Z" fill="currentColor"/>
</svg>
