<svg width="24" height="24" viewBox="0 0 24 24" fill="none" xmlns="http://www.w3.org/2000/svg">
<path fill-rule="evenodd" clip-rule="evenodd" d="M3.936 8.00003H3C2.73478 8.00003 2.48043 8.10539 2.29289 8.29292C2.10536 8.48046 2 8.73481 2 9.00003C2 9.26524 2.10536 9.5196 2.29289 9.70714C2.48043 9.89467 2.73478 10 3 10H3.223C2.72936 12.1498 3.04237 14.406 4.1026 16.3402C5.16282 18.2744 6.89643 19.752 8.97423 20.4922C11.052 21.2325 13.3293 21.184 15.3737 20.3558C17.4181 19.5277 19.0872 17.9777 20.064 16H21C21.2652 16 21.5196 15.8947 21.7071 15.7071C21.8946 15.5196 22 15.2652 22 15C22 14.7348 21.8946 14.4805 21.7071 14.2929C21.5196 14.1054 21.2652 14 21 14H20.777C21.2706 11.8502 20.9576 9.59404 19.8974 7.65983C18.8372 5.72561 17.1036 4.2481 15.0258 3.50783C12.948 2.76757 10.6707 2.8161 8.6263 3.64423C6.58193 4.47236 4.91285 6.0224 3.936 8.00003ZM6.255 8.00003C7.20521 6.63254 8.61179 5.64859 10.2222 5.22484C11.8326 4.80109 13.5413 4.96531 15.0415 5.68801C16.5417 6.41071 17.7351 7.64455 18.4075 9.16798C19.0799 10.6914 19.1871 12.4046 18.71 14H9.5C9.36739 14 9.24021 13.9474 9.14645 13.8536C9.05268 13.7598 9 13.6326 9 13.5C9 13.3674 9.05268 13.2402 9.14645 13.1465C9.24021 13.0527 9.36739 13 9.5 13H11.5C12.163 13 12.7989 12.7366 13.2678 12.2678C13.7366 11.799 14 11.1631 14 10.5C14 9.83699 13.7366 9.2011 13.2678 8.73226C12.7989 8.26342 12.163 8.00003 11.5 8.00003H6.255ZM17.745 16C16.7948 17.3675 15.3882 18.3515 13.7778 18.7752C12.1674 19.199 10.4587 19.0347 8.95852 18.312C7.45831 17.5893 6.26488 16.3555 5.59251 14.8321C4.92015 13.3086 4.81289 11.5954 5.29 10H11.5C11.6326 10 11.7598 10.0527 11.8536 10.1465C11.9473 10.2402 12 10.3674 12 10.5C12 10.6326 11.9473 10.7598 11.8536 10.8536C11.7598 10.9474 11.6326 11 11.5 11H9.5C8.83696 11 8.20107 11.2634 7.73223 11.7323C7.26339 12.2011 7 12.837 7 13.5C7 14.1631 7.26339 14.799 7.73223 15.2678C8.20107 15.7366 8.83696 16 9.5 16H17.745Z" fill="currentColor"/>
</svg>
