<svg width="24" height="24" viewBox="0 0 24 24" fill="none" xmlns="http://www.w3.org/2000/svg">
<path d="M12 9.99999C13.0533 9.99984 14.0881 10.277 15.0003 10.8035C15.9125 11.3301 16.6701 12.0875 17.1968 12.9996C17.7235 13.9118 18.0008 14.9465 18.0008 15.9998C18.0009 17.0531 17.7236 18.0878 17.197 19H20C20.2652 19 20.5196 19.1053 20.7071 19.2929C20.8946 19.4804 21 19.7348 21 20C21 20.2652 20.8946 20.5196 20.7071 20.7071C20.5196 20.8946 20.2652 21 20 21H4C3.73478 21 3.48043 20.8946 3.29289 20.7071C3.10536 20.5196 3 20.2652 3 20C3 19.7348 3.10536 19.4804 3.29289 19.2929C3.48043 19.1053 3.73478 19 4 19H6.803C6.27635 18.0878 5.99911 17.0531 5.99915 15.9998C5.99919 14.9465 6.2765 13.9118 6.80321 12.9996C7.32992 12.0875 8.08747 11.3301 8.9997 10.8035C9.91194 10.277 10.9467 9.99984 12 9.99999ZM12 12C11.2064 11.9999 10.4306 12.236 9.77154 12.678C9.11244 13.1201 8.59974 13.7483 8.29868 14.4826C7.99762 15.2169 7.9218 16.0242 8.08088 16.8017C8.23996 17.5793 8.62673 18.2919 9.192 18.849L9.355 18.999H14.645C15.2539 18.4615 15.6849 17.7515 15.8804 16.9632C16.076 16.1749 16.027 15.3457 15.7398 14.5859C15.4527 13.8262 14.9411 13.1718 14.2731 12.7099C13.605 12.248 12.8122 12.0004 12 12ZM21 15C21.2652 15 21.5196 15.1053 21.7071 15.2929C21.8946 15.4804 22 15.7348 22 16C22 16.2652 21.8946 16.5196 21.7071 16.7071C21.5196 16.8946 21.2652 17 21 17H20C19.7348 17 19.4804 16.8946 19.2929 16.7071C19.1054 16.5196 19 16.2652 19 16C19 15.7348 19.1054 15.4804 19.2929 15.2929C19.4804 15.1053 19.7348 15 20 15H21ZM4 15C4.26522 15 4.51957 15.1053 4.70711 15.2929C4.89464 15.4804 5 15.7348 5 16C5 16.2652 4.89464 16.5196 4.70711 16.7071C4.51957 16.8946 4.26522 17 4 17H3C2.73478 17 2.48043 16.8946 2.29289 16.7071C2.10536 16.5196 2 16.2652 2 16C2 15.7348 2.10536 15.4804 2.29289 15.2929C2.48043 15.1053 2.73478 15 3 15H4ZM4.929 8.92899C5.10119 8.75681 5.33029 8.65338 5.57332 8.6381C5.81634 8.62282 6.0566 8.69673 6.249 8.84599L6.343 8.92899L7.05 9.63599C7.22935 9.81594 7.33347 10.0574 7.34123 10.3114C7.34898 10.5653 7.25978 10.8127 7.09175 11.0033C6.92372 11.1938 6.68945 11.3133 6.43653 11.3374C6.1836 11.3615 5.93099 11.2884 5.73 11.133L5.636 11.05L4.929 10.343C4.74153 10.1555 4.63621 9.90115 4.63621 9.63599C4.63621 9.37082 4.74153 9.11651 4.929 8.92899ZM19.071 8.92899C19.2585 9.11651 19.3638 9.37082 19.3638 9.63599C19.3638 9.90115 19.2585 10.1555 19.071 10.343L18.364 11.05C18.1754 11.2321 17.9228 11.3329 17.6606 11.3307C17.3984 11.3284 17.1476 11.2232 16.9622 11.0378C16.7768 10.8524 16.6716 10.6016 16.6693 10.3394C16.667 10.0772 16.7678 9.82459 16.95 9.63599L17.657 8.92899C17.8445 8.74152 18.0988 8.6362 18.364 8.6362C18.6292 8.6362 18.8835 8.74152 19.071 8.92899ZM12.707 2.17299L14.828 4.29399C14.9235 4.38623 14.9997 4.49658 15.0521 4.61858C15.1045 4.74059 15.1321 4.87181 15.1333 5.00459C15.1344 5.13736 15.1091 5.26904 15.0588 5.39194C15.0085 5.51484 14.9343 5.62649 14.8404 5.72038C14.7465 5.81427 14.6349 5.88853 14.512 5.93881C14.3891 5.98909 14.2574 6.01439 14.1246 6.01324C13.9918 6.01208 13.8606 5.9845 13.7386 5.93209C13.6166 5.87968 13.5062 5.8035 13.414 5.70799L13 5.29399V7.99999C13 8.2652 12.8946 8.51956 12.7071 8.70709C12.5196 8.89463 12.2652 8.99999 12 8.99999C11.7348 8.99999 11.4804 8.89463 11.2929 8.70709C11.1054 8.51956 11 8.2652 11 7.99999V5.29399L10.586 5.70799C10.3974 5.89014 10.1448 5.99094 9.8826 5.98866C9.6204 5.98638 9.36959 5.88121 9.18418 5.6958C8.99877 5.5104 8.8936 5.25958 8.89133 4.99739C8.88905 4.73519 8.98984 4.48259 9.172 4.29399L11.292 2.17299C11.3849 2.08001 11.4952 2.00625 11.6166 1.95593C11.738 1.9056 11.8681 1.8797 11.9995 1.8797C12.1309 1.8797 12.261 1.9056 12.3824 1.95593C12.5038 2.00625 12.6141 2.08001 12.707 2.17299Z" fill="currentColor"/>
</svg>
