<svg width="24" height="24" viewBox="0 0 24 24" fill="none" xmlns="http://www.w3.org/2000/svg">
<path d="M12.0008 10C13.0541 9.99988 14.0889 10.277 15.0011 10.8036C15.9134 11.3301 16.6709 12.0875 17.1976 12.9997C17.7243 13.9118 18.0017 14.9465 18.0017 15.9998C18.0017 17.0531 17.7245 18.0879 17.1978 19H20.0008C20.2661 19 20.5204 19.1054 20.708 19.2929C20.8955 19.4805 21.0008 19.7348 21.0008 20C21.0008 20.2652 20.8955 20.5196 20.708 20.7071C20.5204 20.8947 20.2661 21 20.0008 21H4.00085C3.73563 21 3.48127 20.8947 3.29374 20.7071C3.1062 20.5196 3.00085 20.2652 3.00085 20C3.00085 19.7348 3.1062 19.4805 3.29374 19.2929C3.48127 19.1054 3.73563 19 4.00085 19H6.80385C6.2772 18.0879 5.99996 17.0531 6 15.9998C6.00003 14.9465 6.27735 13.9118 6.80406 12.9997C7.33077 12.0875 8.08831 11.3301 9.00055 10.8036C9.91278 10.277 10.9476 9.99988 12.0008 10ZM12.0008 12C11.2072 12 10.4315 12.236 9.77239 12.6781C9.11328 13.1202 8.60058 13.7483 8.29952 14.4827C7.99846 15.217 7.92265 16.0243 8.08172 16.8018C8.2408 17.5793 8.62758 18.292 9.19285 18.849L9.35584 18.999H14.6458C15.2548 18.4616 15.6857 17.7515 15.8813 16.9632C16.0768 16.1749 16.0278 15.3457 15.7407 14.586C15.4536 13.8262 14.942 13.1719 14.2739 12.71C13.6059 12.248 12.813 12.0004 12.0008 12ZM21.0008 15C21.2557 15.0003 21.5009 15.0979 21.6862 15.2729C21.8715 15.4478 21.9831 15.687 21.998 15.9414C22.013 16.1959 21.9302 16.4464 21.7666 16.6419C21.603 16.8373 21.3709 16.9629 21.1178 16.993L21.0008 17H20.0008C19.746 16.9997 19.5008 16.9022 19.3155 16.7272C19.1301 16.5522 19.0186 16.3131 19.0037 16.0586C18.9887 15.8042 19.0715 15.5536 19.2351 15.3582C19.3987 15.1627 19.6307 15.0371 19.8838 15.007L20.0008 15H21.0008ZM4.00085 15C4.25572 15.0003 4.50088 15.0979 4.68621 15.2729C4.87155 15.4478 4.98308 15.687 4.99802 15.9414C5.01295 16.1959 4.93017 16.4464 4.76658 16.6419C4.60299 16.8373 4.37094 16.9629 4.11785 16.993L4.00085 17H3.00085C2.74597 16.9997 2.50081 16.9022 2.31548 16.7272C2.13014 16.5522 2.01861 16.3131 2.00367 16.0586C1.98874 15.8042 2.07152 15.5536 2.23511 15.3582C2.3987 15.1627 2.63075 15.0371 2.88385 15.007L3.00085 15H4.00085ZM6.34385 8.92903L7.05085 9.63603C7.233 9.82463 7.3338 10.0772 7.33152 10.3394C7.32924 10.6016 7.22407 10.8524 7.03866 11.0378C6.85326 11.2233 6.60244 11.3284 6.34025 11.3307C6.07805 11.333 5.82545 11.2322 5.63685 11.05L4.92985 10.343C4.74769 10.1544 4.64689 9.90182 4.64917 9.63963C4.65145 9.37743 4.75662 9.12662 4.94203 8.94121C5.12743 8.7558 5.37825 8.65063 5.64044 8.64835C5.90264 8.64608 6.15524 8.74687 6.34385 8.92903ZM17.6578 8.92903C17.8378 8.74968 18.0793 8.64556 18.3332 8.6378C18.5872 8.63005 18.8346 8.71924 19.0251 8.88728C19.2157 9.05531 19.3351 9.28958 19.3592 9.5425C19.3833 9.79543 19.3103 10.048 19.1548 10.249L19.0718 10.343L18.3648 11.05C18.1849 11.2294 17.9434 11.3335 17.6895 11.3413C17.4355 11.349 17.1881 11.2598 16.9976 11.0918C16.807 10.9237 16.6875 10.6895 16.6634 10.4366C16.6394 10.1836 16.7124 9.93102 16.8678 9.73003L16.9508 9.63603L17.6578 8.92903ZM12.0008 1.87903C12.2459 1.87909 12.4825 1.96915 12.6655 2.13212C12.8486 2.29508 12.9654 2.5196 12.9938 2.76303L13.0008 2.88003V5.58603L13.4148 5.17103C13.5944 4.98977 13.8364 4.884 14.0914 4.87534C14.3464 4.86669 14.595 4.95583 14.7864 5.12449C14.9778 5.29316 15.0975 5.52861 15.121 5.78265C15.1446 6.03669 15.0701 6.29011 14.9128 6.49103L14.8288 6.58603L12.7088 8.70703C12.5367 8.87921 12.3076 8.98264 12.0645 8.99792C11.8215 9.0132 11.5812 8.93928 11.3888 8.79003L11.2938 8.70703L9.17285 6.58603C8.99159 6.40649 8.88581 6.16446 8.87716 5.90948C8.86851 5.6545 8.95764 5.40586 9.12631 5.21445C9.29498 5.02303 9.53043 4.90333 9.78447 4.87982C10.0385 4.85632 10.2919 4.93081 10.4928 5.08803L10.5868 5.17103L11.0008 5.58603V2.88003C11.0008 2.61481 11.1062 2.36046 11.2937 2.17292C11.4813 1.98539 11.7356 1.88003 12.0008 1.88003V1.87903Z" fill="currentColor"/>
</svg>
