<svg width="24" height="24" viewBox="0 0 24 24" fill="none" xmlns="http://www.w3.org/2000/svg">
<path fill-rule="evenodd" clip-rule="evenodd" d="M4.22975 19.786L5.54275 21.1C5.77728 21.3376 6.0689 21.5111 6.38968 21.6037C6.71045 21.6963 7.04964 21.705 7.37475 21.629C9.84275 21.037 12.9527 19.533 15.5347 16.951C17.8397 14.646 19.1177 11.791 19.7467 9.45701C20.0617 8.28701 20.2207 7.22201 20.2597 6.38701C20.2917 5.68601 20.3147 4.75901 19.7777 4.22301C19.2407 3.68601 18.3147 3.70901 17.6127 3.74101C16.7787 3.77901 15.7137 3.93901 14.5437 4.25401C12.2087 4.88301 9.35475 6.16101 7.04975 8.46501C4.46775 11.048 2.96375 14.158 2.37175 16.625C2.29553 16.9503 2.30414 17.2896 2.39677 17.6106C2.48941 17.9316 2.66294 18.2234 2.90075 18.458L4.21375 19.771C4.21894 19.7765 4.22427 19.7818 4.22975 19.787V19.786ZM8.46375 9.88001C10.4547 7.88901 12.9637 6.75001 15.0637 6.18501C15.6797 6.01901 16.2507 5.90501 16.7537 5.83301L4.92875 17.657L4.32575 17.054C4.84375 14.926 6.17275 12.17 8.46375 9.87901V9.88001ZM6.34375 19.072L18.1667 7.24601C18.0832 7.81585 17.9656 8.38019 17.8147 8.93601C17.2487 11.036 16.1107 13.544 14.1197 15.536C11.8297 17.826 9.07275 19.156 6.94475 19.674L6.34175 19.071L6.34375 19.072Z" fill="currentColor"/>
</svg>
