<svg width="24" height="24" viewBox="0 0 24 24" fill="none" xmlns="http://www.w3.org/2000/svg">
<path fill-rule="evenodd" clip-rule="evenodd" d="M12 2C14.173 2 16.186 2.694 17.826 3.872L18.07 3.556L18.18 3.423C18.2798 3.30226 18.4051 3.20506 18.5468 3.13833C18.6886 3.07161 18.8433 3.03701 19 3.03701C19.1567 3.03701 19.3114 3.07161 19.4532 3.13833C19.5949 3.20506 19.7202 3.30226 19.82 3.423L20.066 3.73L20.341 4.097L20.551 4.395C20.588 4.448 20.624 4.502 20.661 4.558L20.886 4.906L20.999 5.09C21.459 5.857 22 6.952 22 8C22 8.486 21.878 8.963 21.655 9.388C21.88 10.222 22 11.098 22 12C22 17.523 17.523 22 12 22C6.477 22 2 17.523 2 12C2 6.477 6.477 2 12 2ZM12 4C10.3691 4.00033 8.77721 4.49914 7.43773 5.42956C6.09824 6.35998 5.07513 7.67758 4.50548 9.20579C3.93584 10.734 3.84688 12.3998 4.25054 13.98C4.65419 15.5602 5.53116 16.9792 6.76394 18.047C7.99672 19.1148 9.52641 19.7803 11.148 19.9543C12.7696 20.1284 14.4057 19.8026 15.837 19.0207C17.2683 18.2388 18.4264 17.0381 19.1561 15.5796C19.8859 14.121 20.1524 12.4743 19.92 10.86C19.6224 10.9539 19.3121 11.0011 19 11C17.18 11 16 9.485 16 8C16 7.386 16.184 6.776 16.403 6.254C16.504 6.014 16.618 5.779 16.738 5.554C15.3659 4.54194 13.705 3.9972 12 4ZM12 14C12.2652 14 12.5196 14.1054 12.7071 14.2929C12.8946 14.4804 13 14.7348 13 15C13 15.2652 12.8946 15.5196 12.7071 15.7071C12.5196 15.8946 12.2652 16 12 16H9C8.73478 16 8.48043 15.8946 8.29289 15.7071C8.10536 15.5196 8 15.2652 8 15C8 14.7348 8.10536 14.4804 8.29289 14.2929C8.48043 14.1054 8.73478 14 9 14H12ZM9 10C9.26522 10 9.51957 10.1054 9.70711 10.2929C9.89464 10.4804 10 10.7348 10 11C10 11.2652 9.89464 11.5196 9.70711 11.7071C9.51957 11.8946 9.26522 12 9 12H6C5.73478 12 5.48043 11.8946 5.29289 11.7071C5.10536 11.5196 5 11.2652 5 11C5 10.7348 5.10536 10.4804 5.29289 10.2929C5.48043 10.1054 5.73478 10 6 10H9ZM15 10C15.2652 10 15.5196 10.1054 15.7071 10.2929C15.8946 10.4804 16 10.7348 16 11C16 11.2652 15.8946 11.5196 15.7071 11.7071C15.5196 11.8946 15.2652 12 15 12H12C11.7348 12 11.4804 11.8946 11.2929 11.7071C11.1054 11.5196 11 11.2652 11 11C11 10.7348 11.1054 10.4804 11.2929 10.2929C11.4804 10.1054 11.7348 10 12 10H15ZM19 5.671L18.876 5.861C18.6338 6.23191 18.4234 6.62264 18.247 7.029C18.077 7.433 18 7.762 18 8C18 8.515 18.414 9 19 9C19.1505 9.00269 19.2995 8.96998 19.4349 8.90449C19.5704 8.839 19.6886 8.74258 19.78 8.623C19.924 8.437 20 8.211 20 8C20 7.538 19.721 6.85 19.283 6.118C19.189 5.961 19.093 5.811 19 5.671Z" fill="currentColor"/>
</svg>
