<svg width="24" height="24" viewBox="0 0 24 24" fill="none" xmlns="http://www.w3.org/2000/svg">
<path fill-rule="evenodd" clip-rule="evenodd" d="M7.12064 5.293L3.41364 9L4.89164 10.478L5.67964 9.426C6.27764 8.629 7.54664 9.087 7.49664 10.083L7.10364 17.95C7.09686 18.0853 7.11765 18.2206 7.16474 18.3476C7.21182 18.4746 7.28423 18.5907 7.37756 18.6889C7.47089 18.7871 7.58319 18.8653 7.70766 18.9188C7.83213 18.9723 7.96617 18.9999 8.10164 19H15.8976C16.0331 18.9999 16.1671 18.9723 16.2916 18.9188C16.4161 18.8653 16.5284 18.7871 16.6217 18.6889C16.715 18.5907 16.7874 18.4746 16.8345 18.3476C16.8816 18.2206 16.9024 18.0853 16.8956 17.95L16.5026 10.083C16.4526 9.087 17.7216 8.629 18.3196 9.426L19.1076 10.478L20.5856 9L16.8786 5.293C16.4996 4.915 15.9496 5 15.4646 5C15.1136 5.60835 14.6086 6.11349 14.0003 6.46459C13.392 6.8157 12.702 7.00036 11.9996 7C11.2973 7.00036 10.6073 6.8157 9.99897 6.46459C9.39069 6.11349 8.88563 5.60835 8.53464 5C8.04864 5 7.49863 4.915 7.12064 5.293ZM5.70664 3.879C6.26911 3.31635 7.03205 3.00017 7.82764 3H9.09964C9.57164 3 9.97164 3.297 10.1296 3.71C10.274 4.08904 10.5301 4.41527 10.8641 4.64545C11.198 4.87563 11.594 4.99889 11.9996 4.99889C12.4052 4.99889 12.8013 4.87563 13.1352 4.64545C13.4692 4.41527 13.7253 4.08904 13.8696 3.71C14.0276 3.297 14.4276 3 14.8996 3H16.1716C16.9669 3.00044 17.7294 3.3166 18.2916 3.879L21.9996 7.586C22.3746 7.96106 22.5852 8.46967 22.5852 9C22.5852 9.53033 22.3746 10.0389 21.9996 10.414L20.5216 11.892C20.0016 12.412 19.2756 12.581 18.6216 12.418L18.8936 17.85C18.914 18.2561 18.8515 18.662 18.7102 19.0432C18.5688 19.4244 18.3514 19.7729 18.0712 20.0675C17.791 20.3621 17.4538 20.5967 17.0802 20.757C16.7065 20.9173 16.3042 21 15.8976 21H8.10164C7.69506 21 7.29273 20.9173 6.91909 20.757C6.54545 20.5967 6.20829 20.3621 5.92809 20.0675C5.64789 19.7729 5.4305 19.4244 5.28911 19.0432C5.14773 18.662 5.08531 18.2561 5.10564 17.85L5.37764 12.418C5.0425 12.5023 4.69121 12.4982 4.35816 12.4059C4.02511 12.3137 3.7217 12.1367 3.47764 11.892L1.99964 10.414C1.62469 10.0389 1.41406 9.53033 1.41406 9C1.41406 8.46967 1.62469 7.96106 1.99964 7.586L5.70664 3.879Z" fill="currentColor"/>
</svg>
