<svg width="24" height="24" viewBox="0 0 24 24" fill="none" xmlns="http://www.w3.org/2000/svg">
<path fill-rule="evenodd" clip-rule="evenodd" d="M20 4C20.5304 4 21.0391 4.21071 21.4142 4.58579C21.7893 4.96086 22 5.46957 22 6V18C22 18.5304 21.7893 19.0391 21.4142 19.4142C21.0391 19.7893 20.5304 20 20 20H4C3.46957 20 2.96086 19.7893 2.58579 19.4142C2.21071 19.0391 2 18.5304 2 18V6C2 5.46957 2.21071 4.96086 2.58579 4.58579C2.96086 4.21071 3.46957 4 4 4H20ZM8 15H4V18H8V15ZM14 15H10V18H14V15ZM20 15H16V18H20V15ZM14 11H10V13H14V11ZM8 11H4V13H8V11ZM20 11H16V13H20V11ZM14 6H10V9H14V6ZM8 6H4V9H8V6ZM20 6H16V9H20V6Z" fill="currentColor"/>
</svg>
