<svg width="24" height="24" viewBox="0 0 24 24" fill="none" xmlns="http://www.w3.org/2000/svg">
<path fill-rule="evenodd" clip-rule="evenodd" d="M2.46703 7.17C2.35282 6.94124 2.29899 6.68708 2.31064 6.43165C2.32229 6.17623 2.39904 5.92803 2.5336 5.71061C2.66816 5.49319 2.85606 5.31378 3.07946 5.18941C3.30286 5.06504 3.55434 4.99984 3.81003 5H16.765C17.3221 5.00002 17.8681 5.15513 18.342 5.44797C18.8159 5.7408 19.1988 6.15979 19.448 6.658L21.448 10.658C21.6564 11.0747 21.7649 11.5341 21.7649 12C21.7649 12.4659 21.6564 12.9253 21.448 13.342L19.448 17.342C19.1988 17.8404 18.8156 18.2594 18.3416 18.5523C17.8675 18.8451 17.3213 19.0002 16.764 19H3.80903C3.55343 19 3.30207 18.9347 3.0788 18.8102C2.85554 18.6858 2.66778 18.5064 2.53333 18.289C2.39889 18.0716 2.32223 17.8234 2.31063 17.5681C2.29903 17.3128 2.35286 17.0587 2.46703 16.83L4.65803 12.447C4.72739 12.3082 4.7635 12.1552 4.7635 12C4.7635 11.8448 4.72739 11.6918 4.65803 11.553L2.46703 7.17ZM4.61803 7L6.44803 10.658C6.65643 11.0747 6.76493 11.5341 6.76493 12C6.76493 12.4659 6.65643 12.9253 6.44803 13.342L4.61703 17H16.763C16.9487 16.9999 17.1307 16.9481 17.2886 16.8504C17.4465 16.7528 17.574 16.6131 17.657 16.447L19.657 12.447C19.7264 12.3082 19.7625 12.1552 19.7625 12C19.7625 11.8448 19.7264 11.6918 19.657 11.553L17.657 7.553C17.5741 7.38707 17.4467 7.24747 17.289 7.14982C17.1313 7.05216 16.9495 7.00028 16.764 7H4.61803Z" fill="currentColor"/>
</svg>
