<svg width="24" height="24" viewBox="0 0 24 24" fill="none" xmlns="http://www.w3.org/2000/svg">
<path fill-rule="evenodd" clip-rule="evenodd" d="M12 1C12.2652 1 12.5196 1.10536 12.7071 1.29289C12.8946 1.48043 13 1.73478 13 2V3H14.5C15.109 3 15.586 3.564 15.486 4.164L15.178 6.016C15.738 6.117 16.108 6.689 15.97 7.243L15.28 10H15.5C16.14 10 16.625 10.621 16.47 11.242L15.53 15H16C16.64 15 17.125 15.621 16.97 16.242L15.78 21H16C16.2652 21 16.5196 21.1054 16.7071 21.2929C16.8946 21.4804 17 21.7348 17 22C17 22.2652 16.8946 22.5196 16.7071 22.7071C16.5196 22.8946 16.2652 23 16 23H8C7.73478 23 7.48043 22.8946 7.29289 22.7071C7.10536 22.5196 7 22.2652 7 22C7 21.7348 7.10536 21.4804 7.29289 21.2929C7.48043 21.1054 7.73478 21 8 21H8.22L7.03 16.243C6.99507 16.0957 6.99369 15.9424 7.02597 15.7945C7.05825 15.6466 7.12336 15.5079 7.21649 15.3886C7.30962 15.2692 7.42839 15.1723 7.56401 15.1051C7.69963 15.0378 7.84863 15.0019 8 15H8.47L7.53 11.242C7.49524 11.0948 7.49399 10.9416 7.52636 10.7938C7.55872 10.6461 7.62386 10.5075 7.71697 10.3882C7.81008 10.269 7.92879 10.1722 8.06432 10.105C8.19985 10.0378 8.34874 10.0019 8.5 10H8.72L8.03 7.243C7.99823 7.11025 7.9937 6.97245 8.01667 6.8379C8.03965 6.70335 8.08966 6.57486 8.16368 6.46018C8.23771 6.3455 8.33421 6.24702 8.44735 6.17067C8.5605 6.09433 8.68795 6.04171 8.822 6.016L8.514 4.164C8.414 3.564 8.89 3 9.5 3H11V2C11 1.73478 11.1054 1.48043 11.2929 1.29289C11.4804 1.10536 11.7348 1 12 1ZM14.72 17H9.28L10.28 21H13.72L14.72 17ZM14.22 12H9.78C9.833 12.208 9.897 12.423 9.966 12.644L10.176 13.317C10.35 13.885 10.5 14.463 10.5 15H13.5C13.5 14.463 13.65 13.885 13.823 13.317L14.034 12.644C14.103 12.424 14.167 12.208 14.219 12H14.22ZM13.72 8H10.28L10.78 10H13.22L13.72 8ZM13.32 5H10.68L10.847 6H13.153L13.32 5Z" fill="currentColor"/>
</svg>
