<svg width="24" height="24" viewBox="0 0 24 24" fill="none" xmlns="http://www.w3.org/2000/svg">
<path fill-rule="evenodd" clip-rule="evenodd" d="M7 7C7 6.20435 7.31607 5.44129 7.87868 4.87868C8.44129 4.31607 9.20435 4 10 4H11.53C12.5031 3.99998 13.455 4.28378 14.2692 4.81664C15.0834 5.34949 15.7245 6.10827 16.114 7H20C20.2652 7 20.5196 7.10536 20.7071 7.29289C20.8946 7.48043 21 7.73478 21 8C21 8.26522 20.8946 8.51957 20.7071 8.70711C20.5196 8.89464 20.2652 9 20 9H16.582L16.867 11H17.5C18.6935 11 19.8381 11.4741 20.682 12.318C21.5259 13.1619 22 14.3065 22 15.5C22 16.6935 21.5259 17.8381 20.682 18.682C19.8381 19.5259 18.6935 20 17.5 20H6.5C5.30653 20 4.16193 19.5259 3.31802 18.682C2.47411 17.8381 2 16.6935 2 15.5C2 14.3065 2.47411 13.1619 3.31802 12.318C4.16193 11.4741 5.30653 11 6.5 11H7V7ZM14.5 8.576L14.848 11H9V7C9 6.73478 9.10536 6.48043 9.29289 6.29289C9.48043 6.10536 9.73478 6 10 6H11.53C12.2522 5.99997 12.9502 6.26048 13.4958 6.73369C14.0414 7.2069 14.3979 7.86104 14.5 8.576ZM6.5 13H17.5C18.163 13 18.7989 13.2634 19.2678 13.7322C19.7366 14.2011 20 14.837 20 15.5C20 16.163 19.7366 16.7989 19.2678 17.2678C18.7989 17.7366 18.163 18 17.5 18H6.5C5.83696 18 5.20107 17.7366 4.73223 17.2678C4.26339 16.7989 4 16.163 4 15.5C4 14.837 4.26339 14.2011 4.73223 13.7322C5.20107 13.2634 5.83696 13 6.5 13Z" fill="currentColor"/>
</svg>
