<svg width="24" height="24" viewBox="0 0 24 24" fill="none" xmlns="http://www.w3.org/2000/svg">
<path fill-rule="evenodd" clip-rule="evenodd" d="M15 2C15.3511 2.00001 15.6959 2.09243 16 2.26796C16.304 2.4435 16.5565 2.69597 16.732 3H18C18.5304 3 19.0391 3.21071 19.4142 3.58579C19.7893 3.96086 20 4.46957 20 5V17C20 18.3261 19.4732 19.5979 18.5355 20.5355C17.5979 21.4732 16.3261 22 15 22H6C5.46957 22 4.96086 21.7893 4.58579 21.4142C4.21071 21.0391 4 20.5304 4 20V5C4 4.46957 4.21071 3.96086 4.58579 3.58579C4.96086 3.21071 5.46957 3 6 3H7.268C7.44353 2.69597 7.696 2.4435 8.00003 2.26796C8.30406 2.09243 8.64894 2.00001 9 2H15ZM7 5H6V20H15C15.7956 20 16.5587 19.6839 17.1213 19.1213C17.6839 18.5587 18 17.7956 18 17V5H17C17 5.53043 16.7893 6.03914 16.4142 6.41421C16.0391 6.78929 15.5304 7 15 7H9C8.46957 7 7.96086 6.78929 7.58579 6.41421C7.21071 6.03914 7 5.53043 7 5ZM16.238 9.379C16.4255 9.56653 16.5308 9.82084 16.5308 10.086C16.5308 10.3512 16.4255 10.6055 16.238 10.793L11.288 15.743C11.1005 15.9305 10.8462 16.0358 10.581 16.0358C10.3158 16.0358 10.0615 15.9305 9.874 15.743L7.754 13.621C7.57621 13.4317 7.47905 13.1806 7.48309 12.9209C7.48712 12.6612 7.59203 12.4133 7.77561 12.2296C7.95919 12.0459 8.20705 11.9408 8.46673 11.9366C8.72641 11.9324 8.97755 12.0293 9.167 12.207L10.582 13.621L14.824 9.379C15.0115 9.19153 15.2658 9.08621 15.531 9.08621C15.7962 9.08621 16.0505 9.19153 16.238 9.379ZM15 4H9V5H15V4Z" fill="currentColor"/>
</svg>
