<svg width="24" height="24" viewBox="0 0 24 24" fill="none" xmlns="http://www.w3.org/2000/svg">
<path fill-rule="evenodd" clip-rule="evenodd" d="M12 2C12.2652 2 12.5196 2.10536 12.7071 2.29289C12.8946 2.48043 13 2.73478 13 3C13 4.372 14.009 5.146 15.13 5.7L15.47 5.86L15.81 6.008L17.03 6.505L17.325 6.63L17.62 6.768C18.349 7.13 19 7.64 19 8.5C19 8.994 18.802 9.38 18.53 9.68L18.98 9.808L19.3 9.908L19.63 10.022C20.79 10.444 22 11.144 22 12.427C22 13.625 20.866 14.352 19.885 14.773L19.145 19.216C19.008 20.036 18.535 21.008 17.457 21.366L17.327 21.408L17.045 21.491L16.891 21.531L16.555 21.61L16.374 21.648L15.981 21.721L15.549 21.787C15.322 21.819 15.079 21.848 14.82 21.874L14.278 21.921L13.99 21.941L13.377 21.973L12.714 21.993C12.238 22.0024 11.762 22.0024 11.286 21.993L10.623 21.973L10.01 21.941C9.91396 21.9349 9.81796 21.9282 9.722 21.921L9.18 21.874C8.93644 21.8499 8.69339 21.8209 8.451 21.787L8.019 21.721L7.626 21.648L7.272 21.571C7.21755 21.5581 7.16322 21.5448 7.109 21.531L6.809 21.45C6.71982 21.424 6.63114 21.3963 6.543 21.367C5.465 21.008 4.993 20.035 4.856 19.217L4.115 14.773C3.133 14.353 2 13.625 2 12.427C2 11.144 3.21 10.444 4.37 10.022L4.7 9.908L5.02 9.808L5.47 9.68C5.16765 9.3616 4.99936 8.93909 5 8.5C5 7.64 5.651 7.13 6.38 6.768L6.675 6.63L6.969 6.505L8.021 6.079L8.36 5.935L8.53 5.859L8.87 5.699C9.935 5.174 10.899 4.449 10.993 3.201L11 3C11 2.73478 11.1054 2.48043 11.2929 2.29289C11.4804 2.10536 11.7348 2 12 2ZM17.747 15.433C16.133 15.793 14.138 16 12 16C10.04 16 8.2 15.826 6.664 15.52L6.253 15.433L6.828 18.887C6.863 19.097 6.946 19.393 7.175 19.469L7.383 19.534L7.63 19.6L7.77 19.633L8.081 19.699C8.137 19.71 8.194 19.721 8.254 19.731L8.635 19.793L9.066 19.85C9.446 19.895 9.881 19.933 10.376 19.96L11 19.985V18C11.0003 17.7451 11.0979 17.5 11.2728 17.3146C11.4478 17.1293 11.687 17.0178 11.9414 17.0028C12.1958 16.9879 12.4464 17.0707 12.6418 17.2343C12.8373 17.3979 12.9629 17.6299 12.993 17.883L13 18V19.985L13.624 19.959C14.119 19.933 14.554 19.895 14.934 19.85L15.364 19.793L15.746 19.731C15.806 19.721 15.863 19.711 15.919 19.699L16.23 19.633L16.499 19.567L16.726 19.501C16.7594 19.4907 16.7928 19.48 16.826 19.469C17.026 19.403 17.114 19.167 17.156 18.969L17.747 15.433ZM12 5.828C11.348 6.621 10.515 7.11 9.947 7.394C9.085 7.825 8.171 8.134 7.305 8.553C7.701 8.73 8.319 8.891 9.143 9.01C9.38133 9.04421 9.59933 9.16326 9.75693 9.34528C9.91454 9.52731 10.0012 9.76009 10.0009 10.0009C10.0007 10.2416 9.91358 10.4742 9.75561 10.656C9.59764 10.8377 9.3794 10.9563 9.141 10.99C7.417 11.236 6.003 11.55 5.043 11.915C4.559 12.1 4.253 12.274 4.086 12.413C4.053 12.44 4.156 12.511 4.329 12.601L4.564 12.718L4.838 12.843L5.269 13.029L5.743 13.222L5.911 13.285C7.427 13.718 9.58 14 12 14C14.268 14 16.302 13.752 17.797 13.364L18.089 13.284C18.706 13.109 19.465 12.9 19.941 12.436C19.665 12.192 19.296 12.044 18.957 11.916C17.997 11.55 16.583 11.236 14.859 10.99C14.6206 10.9563 14.4024 10.8377 14.2444 10.656C14.0864 10.4742 13.9993 10.2416 13.9991 10.0009C13.9988 9.76009 14.0855 9.52731 14.2431 9.34528C14.4007 9.16326 14.6187 9.04421 14.857 9.01C15.681 8.891 16.299 8.73 16.695 8.553C15.829 8.134 14.915 7.825 14.053 7.394C13.485 7.11 12.653 6.621 12 5.828Z" fill="currentColor"/>
</svg>
