<svg width="24" height="24" viewBox="0 0 24 24" fill="none" xmlns="http://www.w3.org/2000/svg">
<path d="M19 3C19.5304 3 20.0391 3.21071 20.4142 3.58579C20.7893 3.96086 21 4.46957 21 5V19C21 19.5304 20.7893 20.0391 20.4142 20.4142C20.0391 20.7893 19.5304 21 19 21H5C4.46957 21 3.96086 20.7893 3.58579 20.4142C3.21071 20.0391 3 19.5304 3 19V5C3 4.46957 3.21071 3.96086 3.58579 3.58579C3.96086 3.21071 4.46957 3 5 3H19ZM19 5H5V19H19V5ZM16 14C16.2549 14.0003 16.5 14.0979 16.6854 14.2728C16.8707 14.4478 16.9822 14.687 16.9972 14.9414C17.0121 15.1958 16.9293 15.4464 16.7657 15.6418C16.6021 15.8373 16.3701 15.9629 16.117 15.993L16 16H14C13.7451 15.9997 13.5 15.9021 13.3146 15.7272C13.1293 15.5522 13.0178 15.313 13.0028 15.0586C12.9879 14.8042 13.0707 14.5536 13.2343 14.3582C13.3979 14.1627 13.6299 14.0371 13.883 14.007L14 14H16ZM9.05 8.465L11.879 11.293C12.0665 11.4805 12.1718 11.7348 12.1718 12C12.1718 12.2652 12.0665 12.5195 11.879 12.707L9.05 15.536C8.86236 15.7235 8.60792 15.8288 8.34265 15.8287C8.07738 15.8286 7.82301 15.7231 7.6355 15.5355C7.44799 15.3479 7.3427 15.0934 7.3428 14.8281C7.34289 14.5629 7.44836 14.3085 7.636 14.121L9.757 12.001L7.637 9.879C7.53926 9.78734 7.46093 9.67698 7.40668 9.55446C7.35242 9.43194 7.32334 9.29976 7.32117 9.16579C7.31899 9.03181 7.34376 8.89876 7.39401 8.77454C7.44426 8.65033 7.51896 8.53748 7.61368 8.44269C7.70839 8.34791 7.82119 8.27313 7.94537 8.22279C8.06955 8.17246 8.20258 8.14759 8.33656 8.14967C8.47054 8.15175 8.60274 8.18074 8.72529 8.23491C8.84785 8.28907 8.95827 8.36732 9.05 8.465Z" fill="currentColor"/>
</svg>
