<svg width="24" height="24" viewBox="0 0 24 24" fill="none" xmlns="http://www.w3.org/2000/svg">
<path d="M20 17C20.2549 17.0003 20.5001 17.0979 20.6854 17.2728C20.8708 17.4478 20.9823 17.687 20.9972 17.9414C21.0122 18.1958 20.9294 18.4464 20.7658 18.6418C20.6022 18.8373 20.3701 18.9629 20.117 18.993L20 19H12C11.7452 18.9997 11.5 18.9021 11.3147 18.7272C11.1293 18.5522 11.0178 18.313 11.0029 18.0586C10.9879 17.8042 11.0707 17.5536 11.2343 17.3582C11.3979 17.1627 11.63 17.0371 11.883 17.007L12 17H20ZM3.63605 5.636C3.80824 5.46382 4.03734 5.36039 4.28037 5.34511C4.52339 5.32983 4.76364 5.40375 4.95605 5.553L5.05005 5.636L10.707 11.293C10.8792 11.4652 10.9827 11.6943 10.9979 11.9373C11.0132 12.1803 10.9393 12.4206 10.79 12.613L10.707 12.707L5.05005 18.364C4.87009 18.5433 4.62861 18.6475 4.37466 18.6552C4.12071 18.663 3.87333 18.5738 3.68277 18.4058C3.4922 18.2377 3.37274 18.0034 3.34865 17.7505C3.32456 17.4976 3.39764 17.245 3.55305 17.044L3.63605 16.95L8.58605 12L3.63605 7.05C3.44858 6.86247 3.34326 6.60817 3.34326 6.343C3.34326 6.07784 3.44858 5.82353 3.63605 5.636Z" fill="currentColor"/>
</svg>
