<svg width="24" height="24" viewBox="0 0 24 24" fill="none" xmlns="http://www.w3.org/2000/svg">
<path fill-rule="evenodd" clip-rule="evenodd" d="M12 2C17.523 2 22 6.477 22 12C22 17.523 17.523 22 12 22C6.477 22 2 17.523 2 12C2 6.477 6.477 2 12 2ZM12 4C9.87827 4 7.84344 4.84285 6.34315 6.34315C4.84285 7.84344 4 9.87827 4 12C4 14.1217 4.84285 16.1566 6.34315 17.6569C7.84344 19.1571 9.87827 20 12 20C14.1217 20 16.1566 19.1571 17.6569 17.6569C19.1571 16.1566 20 14.1217 20 12C20 9.87827 19.1571 7.84344 17.6569 6.34315C16.1566 4.84285 14.1217 4 12 4ZM12 11C12.7956 11 13.5587 11.3161 14.1213 11.8787C14.6839 12.4413 15 13.2044 15 14V15C15 15.7956 14.6839 16.5587 14.1213 17.1213C13.5587 17.6839 12.7956 18 12 18C11.2044 18 10.4413 17.6839 9.87868 17.1213C9.31607 16.5587 9 15.7956 9 15V14C9 13.2044 9.31607 12.4413 9.87868 11.8787C10.4413 11.3161 11.2044 11 12 11ZM12 13C11.7348 13 11.4804 13.1054 11.2929 13.2929C11.1054 13.4804 11 13.7348 11 14V15C11 15.2652 11.1054 15.5196 11.2929 15.7071C11.4804 15.8946 11.7348 16 12 16C12.2652 16 12.5196 15.8946 12.7071 15.7071C12.8946 15.5196 13 15.2652 13 15V14C13 13.7348 12.8946 13.4804 12.7071 13.2929C12.5196 13.1054 12.2652 13 12 13ZM10.005 7.656C10.498 8.148 10.494 8.802 10.385 9.239C10.27 9.699 10.002 10.134 9.652 10.484C9.302 10.834 8.867 11.102 8.407 11.217C7.97 11.326 7.316 11.33 6.823 10.837C6.331 10.345 6.335 9.691 6.444 9.254C6.559 8.794 6.827 8.359 7.177 8.009C7.527 7.659 7.962 7.391 8.422 7.276C8.859 7.167 9.512 7.163 10.005 7.656ZM13.995 7.656C14.487 7.163 15.141 7.167 15.578 7.276C16.038 7.391 16.473 7.659 16.823 8.009C17.173 8.359 17.441 8.794 17.556 9.254C17.666 9.691 17.669 10.345 17.176 10.838C16.684 11.33 16.03 11.326 15.593 11.217C15.133 11.102 14.698 10.834 14.348 10.484C13.998 10.134 13.73 9.699 13.616 9.239C13.506 8.802 13.502 8.148 13.995 7.656Z" fill="currentColor"/>
</svg>
