<svg width="24" height="24" viewBox="0 0 24 24" fill="none" xmlns="http://www.w3.org/2000/svg">
<path fill-rule="evenodd" clip-rule="evenodd" d="M17.4199 3C17.7446 2.99997 18.0644 3.07898 18.3517 3.23021C18.639 3.38144 18.8851 3.60034 19.0689 3.868L19.1559 4.008L22.4899 9.84C22.6935 10.196 22.7827 10.6059 22.7455 11.0143C22.7083 11.4226 22.5464 11.8097 22.2819 12.123L22.1679 12.246L12.8849 21.529C12.6672 21.7467 12.3767 21.8764 12.0693 21.8931C11.7619 21.9099 11.4591 21.8127 11.2189 21.62L11.1169 21.53L1.8339 12.246C1.54393 11.9562 1.35004 11.5842 1.27849 11.1805C1.20695 10.7768 1.2612 10.3608 1.4339 9.989L1.5119 9.839L4.8449 4.007C5.00599 3.72508 5.2333 3.48661 5.50718 3.31221C5.78107 3.13781 6.0933 3.03271 6.4169 3.006L6.5799 3H17.4199ZM17.4199 5H6.5799L3.2469 10.833L11.9999 19.586L20.7529 10.833L17.4199 5ZM14.9999 6C15.2651 6 15.5195 6.10536 15.707 6.29289C15.8945 6.48043 15.9999 6.73478 15.9999 7C15.9999 7.26522 15.8945 7.51957 15.707 7.70711C15.5195 7.89464 15.2651 8 14.9999 8H12.9999V9.545C13.7579 9.615 14.4469 9.762 15.0039 9.971C15.3989 10.119 15.7529 10.307 16.0169 10.542C16.2809 10.776 16.4999 11.099 16.4999 11.5C16.4999 11.901 16.2809 12.224 16.0169 12.458C15.7529 12.693 15.3989 12.881 15.0039 13.028C14.4099 13.251 13.6659 13.405 12.8469 13.468C12.9472 13.6273 13.0003 13.8118 12.9999 14V16C12.9999 16.2652 12.8945 16.5196 12.707 16.7071C12.5195 16.8946 12.2651 17 11.9999 17C11.7347 17 11.4803 16.8946 11.2928 16.7071C11.1053 16.5196 10.9999 16.2652 10.9999 16V14C10.9999 13.804 11.0559 13.622 11.1529 13.468C10.3339 13.405 9.5899 13.252 8.9959 13.028C8.6009 12.881 8.2469 12.693 7.9829 12.458C7.7189 12.224 7.4999 11.901 7.4999 11.5C7.4999 11.099 7.7189 10.776 7.9829 10.542C8.2469 10.307 8.6009 10.119 8.9959 9.972C9.5519 9.762 10.2409 9.615 10.9999 9.545V8H8.9999C8.73469 8 8.48033 7.89464 8.2928 7.70711C8.10526 7.51957 7.9999 7.26522 7.9999 7C7.9999 6.73478 8.10526 6.48043 8.2928 6.29289C8.48033 6.10536 8.73469 6 8.9999 6H14.9999ZM12.9989 10.55C12.9874 10.8072 12.8771 11.0501 12.691 11.228C12.5049 11.406 12.2574 11.5053 11.9999 11.5053C11.7424 11.5053 11.4949 11.406 11.3088 11.228C11.1227 11.0501 11.0124 10.8072 11.0009 10.55C10.4368 10.5994 9.88116 10.7194 9.3469 10.907C9.0169 11.031 8.7869 11.166 8.6459 11.29C8.5289 11.394 8.5059 11.462 8.5009 11.489L8.4999 11.5C8.4999 11.513 8.5049 11.585 8.6459 11.71C8.7859 11.834 9.0179 11.97 9.3469 12.092C10.0019 12.338 10.9389 12.5 11.9999 12.5C13.0599 12.5 13.9979 12.338 14.6529 12.092C14.9819 11.969 15.2129 11.834 15.3529 11.71C15.4137 11.6633 15.4618 11.6021 15.4929 11.532L15.4999 11.5L15.4929 11.468C15.4618 11.3979 15.4137 11.3367 15.3529 11.29C15.2129 11.166 14.9819 11.03 14.6529 10.908C14.2129 10.743 13.6449 10.615 12.9989 10.55Z" fill="currentColor"/>
</svg>
