<svg width="24" height="24" viewBox="0 0 24 24" fill="none" xmlns="http://www.w3.org/2000/svg">
<path fill-rule="evenodd" clip-rule="evenodd" d="M5 7C5 5.67392 5.52678 4.40215 6.46447 3.46447C7.40215 2.52678 8.67392 2 10 2H17C17.2652 2 17.5196 2.10536 17.7071 2.29289C17.8946 2.48043 18 2.73478 18 3C18 3.26522 17.8946 3.51957 17.7071 3.70711C17.5196 3.89464 17.2652 4 17 4H16V15C16 15.2652 15.8946 15.5196 15.7071 15.7071C15.5196 15.8946 15.2652 16 15 16C14.7348 16 14.4804 15.8946 14.2929 15.7071C14.1054 15.5196 14 15.2652 14 15V4H13V15C13 15.2652 12.8946 15.5196 12.7071 15.7071C12.5196 15.8946 12.2652 16 12 16C11.7348 16 11.4804 15.8946 11.2929 15.7071C11.1054 15.5196 11 15.2652 11 15V12H10C8.67392 12 7.40215 11.4732 6.46447 10.5355C5.52678 9.59785 5 8.32608 5 7ZM11 10V4H10C9.20435 4 8.44129 4.31607 7.87868 4.87868C7.31607 5.44129 7 6.20435 7 7C7 7.79565 7.31607 8.55871 7.87868 9.12132C8.44129 9.68393 9.20435 10 10 10H11ZM17.172 16.172C17.3595 15.9845 17.6138 15.8792 17.879 15.8792C18.1442 15.8792 18.3985 15.9845 18.586 16.172L20.707 18.293C20.8945 18.4805 20.9998 18.7348 20.9998 19C20.9998 19.2652 20.8945 19.5195 20.707 19.707L18.586 21.829C18.3984 22.0165 18.1439 22.1218 17.8786 22.1217C17.6134 22.1216 17.359 22.0161 17.1715 21.8285C16.984 21.6409 16.8787 21.3864 16.8788 21.1211C16.8789 20.8559 16.9844 20.6015 17.172 20.414L17.586 20H7C6.73478 20 6.48043 19.8946 6.29289 19.7071C6.10536 19.5196 6 19.2652 6 19C6 18.7348 6.10536 18.4804 6.29289 18.2929C6.48043 18.1054 6.73478 18 7 18H17.586L17.172 17.586C16.9845 17.3985 16.8792 17.1442 16.8792 16.879C16.8792 16.6138 16.9845 16.3595 17.172 16.172Z" fill="currentColor"/>
</svg>
