<svg width="24" height="24" viewBox="0 0 24 24" fill="none" xmlns="http://www.w3.org/2000/svg">
<path fill-rule="evenodd" clip-rule="evenodd" d="M6.41404 16.172C6.59358 15.9907 6.83561 15.885 7.09059 15.8763C7.34557 15.8677 7.59421 15.9568 7.78562 16.1255C7.97704 16.2941 8.09674 16.5296 8.12025 16.7836C8.14375 17.0377 8.06926 17.2911 7.91204 17.492L7.82804 17.586L7.41404 18H18C18.2549 18.0003 18.5001 18.0979 18.6854 18.2728C18.8707 18.4478 18.9823 18.687 18.9972 18.9414C19.0122 19.1958 18.9294 19.4464 18.7658 19.6418C18.6022 19.8373 18.3701 19.9629 18.117 19.993L18 20H7.41404L7.82804 20.414C8.0093 20.5935 8.11507 20.8356 8.12372 21.0905C8.13238 21.3455 8.04325 21.5942 7.87458 21.7856C7.70591 21.977 7.47046 22.0967 7.21642 22.1202C6.96238 22.1437 6.70896 22.0692 6.50804 21.912L6.41404 21.828L4.29304 19.708C4.19915 19.6157 4.12482 19.5055 4.07448 19.3838C4.02414 19.2622 3.99882 19.1316 4.00004 19C4.00004 18.774 4.07004 18.567 4.20504 18.393L4.29304 18.293L6.41404 16.172ZM17 2C17.2653 2 17.5196 2.10536 17.7071 2.29289C17.8947 2.48043 18 2.73478 18 3C18 3.26522 17.8947 3.51957 17.7071 3.70711C17.5196 3.89464 17.2653 4 17 4H16V15C16 15.2652 15.8947 15.5196 15.7071 15.7071C15.5196 15.8946 15.2653 16 15 16C14.7348 16 14.4805 15.8946 14.2929 15.7071C14.1054 15.5196 14 15.2652 14 15V4H13V15C13 15.2652 12.8947 15.5196 12.7071 15.7071C12.5196 15.8946 12.2653 16 12 16C11.7348 16 11.4805 15.8946 11.2929 15.7071C11.1054 15.5196 11 15.2652 11 15V12H10C8.67396 12 7.40219 11.4732 6.46451 10.5355C5.52683 9.59785 5.00004 8.32608 5.00004 7C5.00004 5.67392 5.52683 4.40215 6.46451 3.46447C7.40219 2.52678 8.67396 2 10 2H17ZM11 4H10C9.21914 3.99925 8.46871 4.30302 7.90822 4.84677C7.34774 5.39052 7.02136 6.13139 6.99844 6.91196C6.97553 7.69253 7.25788 8.45127 7.7855 9.02697C8.31313 9.60267 9.04444 9.94994 9.82404 9.995L10 10H11V4Z" fill="currentColor"/>
</svg>
