<svg width="24" height="24" viewBox="0 0 24 24" fill="none" xmlns="http://www.w3.org/2000/svg">
<path d="M12 3C12.768 3 13.47 3.289 14 3.764C14.4911 3.32363 15.1142 3.05817 15.772 3.009L16 3H17C17.2549 3.00028 17.5 3.09788 17.6854 3.27285C17.8707 3.44782 17.9822 3.68695 17.9972 3.94139C18.0121 4.19584 17.9293 4.44638 17.7657 4.64183C17.6022 4.83729 17.3701 4.9629 17.117 4.993L17 5H16C15.7551 5.00003 15.5187 5.08996 15.3356 5.25272C15.1526 5.41547 15.0357 5.63975 15.007 5.883L15 6V18C15 18.2449 15.09 18.4813 15.2527 18.6644C15.4155 18.8474 15.6398 18.9643 15.883 18.993L16 19H17C17.2549 19.0003 17.5 19.0979 17.6854 19.2728C17.8707 19.4478 17.9822 19.687 17.9972 19.9414C18.0121 20.1958 17.9293 20.4464 17.7657 20.6418C17.6022 20.8373 17.3701 20.9629 17.117 20.993L17 21H16C15.232 21 14.53 20.711 14 20.236C13.5089 20.6764 12.8858 20.9418 12.228 20.991L12 21H11C10.7451 20.9997 10.5 20.9021 10.3146 20.7272C10.1293 20.5522 10.0178 20.313 10.0028 20.0586C9.9879 19.8042 10.0707 19.5536 10.2343 19.3582C10.3979 19.1627 10.6299 19.0371 10.883 19.007L11 19H12C12.2449 19 12.4813 18.91 12.6644 18.7473C12.8474 18.5845 12.9644 18.3603 12.993 18.117L13 18V6C13 5.75507 12.9101 5.51866 12.7473 5.33563C12.5845 5.15259 12.3603 5.03566 12.117 5.007L12 5H11C10.7451 4.99972 10.5 4.90212 10.3146 4.72715C10.1293 4.55218 10.0178 4.31305 10.0028 4.05861C9.9879 3.80416 10.0707 3.55362 10.2343 3.35817C10.3979 3.16271 10.6299 3.0371 10.883 3.007L11 3H12ZM19 7C19.5046 6.99984 19.9906 7.19041 20.3606 7.5335C20.7305 7.87659 20.9572 8.34685 20.995 8.85L21 9V15C21.0002 15.5046 20.8096 15.9906 20.4665 16.3605C20.1234 16.7305 19.6532 16.9572 19.15 16.995L19 17H16V15H19V9H16V7H19ZM5.00001 13V15H12V17H5.00001C4.49544 17.0002 4.00944 16.8096 3.63946 16.4665C3.26948 16.1234 3.04286 15.6532 3.00501 15.15L3.00001 15V13H5.00001ZM6.00001 4C6.18709 4 6.37042 4.05248 6.52916 4.15147C6.68791 4.25046 6.8157 4.392 6.89801 4.56L6.94601 4.677L7.07601 5.055C7.21321 5.45718 7.43429 5.82563 7.72461 6.13594C8.01492 6.44625 8.36785 6.69135 8.76001 6.855L8.94501 6.925L9.32301 7.054C9.51015 7.11797 9.67411 7.236 9.79418 7.39316C9.91424 7.55031 9.98501 7.73954 9.99753 7.93691C10.0101 8.13429 9.96377 8.33094 9.86453 8.50201C9.7653 8.67308 9.61756 8.81089 9.44001 8.898L9.32301 8.946L8.94501 9.076C8.54283 9.2132 8.17438 9.43428 7.86407 9.72459C7.55376 10.0149 7.30866 10.3678 7.14501 10.76L7.07501 10.945L6.94601 11.323C6.88215 11.5102 6.76421 11.6742 6.60712 11.7944C6.45002 11.9146 6.26082 11.9854 6.06344 11.9981C5.86605 12.0107 5.66936 11.9645 5.49823 11.8654C5.3271 11.7662 5.18921 11.6185 5.10201 11.441L5.05401 11.323L4.92401 10.945C4.78681 10.5428 4.56573 10.1744 4.27542 9.86406C3.9851 9.55375 3.63218 9.30865 3.24001 9.145L3.05501 9.075L2.67701 8.946C2.48987 8.88203 2.32591 8.764 2.20585 8.60684C2.08579 8.44969 2.01502 8.26046 2.0025 8.06309C1.98997 7.86571 2.03625 7.66906 2.13549 7.49799C2.23473 7.32692 2.38246 7.18911 2.56001 7.102L2.67701 7.054L3.05501 6.924C3.4572 6.7868 3.82564 6.56572 4.13595 6.27541C4.44627 5.98509 4.69136 5.63217 4.85501 5.24L4.92501 5.055L5.05401 4.677C5.12139 4.47959 5.24881 4.30818 5.41844 4.18679C5.58807 4.06539 5.79142 4.00008 6.00001 4ZM6.00001 7.196C5.76343 7.49368 5.49369 7.76342 5.19601 8C5.49401 8.236 5.76401 8.506 6.00001 8.804C6.23601 8.506 6.50601 8.236 6.80401 8C6.50634 7.76342 6.23659 7.49368 6.00001 7.196Z" fill="currentColor"/>
</svg>
