<svg width="24" height="24" viewBox="0 0 24 24" fill="none" xmlns="http://www.w3.org/2000/svg">
<path fill-rule="evenodd" clip-rule="evenodd" d="M5 5C5 4.73478 5.10536 4.48043 5.29289 4.29289C5.48043 4.10536 5.73478 4 6 4H18C18.2652 4 18.5196 4.10536 18.7071 4.29289C18.8946 4.48043 19 4.73478 19 5V7C19 7.26522 18.8946 7.51957 18.7071 7.70711C18.5196 7.89464 18.2652 8 18 8C17.7348 8 17.4804 7.89464 17.2929 7.70711C17.1054 7.51957 17 7.26522 17 7V6H13V19H14C14.2652 19 14.5196 19.1054 14.7071 19.2929C14.8946 19.4804 15 19.7348 15 20C15 20.2652 14.8946 20.5196 14.7071 20.7071C14.5196 20.8946 14.2652 21 14 21H10C9.73478 21 9.48043 20.8946 9.29289 20.7071C9.10536 20.5196 9 20.2652 9 20C9 19.7348 9.10536 19.4804 9.29289 19.2929C9.48043 19.1054 9.73478 19 10 19H11V6H7V7C7 7.26522 6.89464 7.51957 6.70711 7.70711C6.51957 7.89464 6.26522 8 6 8C5.73478 8 5.48043 7.89464 5.29289 7.70711C5.10536 7.51957 5 7.26522 5 7V5Z" fill="currentColor"/>
</svg>
