<svg width="24" height="24" viewBox="0 0 24 24" fill="none" xmlns="http://www.w3.org/2000/svg">
<path fill-rule="evenodd" clip-rule="evenodd" d="M5 16C5.748 16 6.463 16.226 7.014 16.64C7.566 17.053 8 17.7 8 18.5C8 19.3 7.566 19.947 7.014 20.36C6.464 20.774 5.748 21 5 21C4.252 21 3.537 20.774 2.986 20.36C2.434 19.948 2 19.3 2 18.5C2 17.7 2.434 17.053 2.986 16.64C3.536 16.225 4.252 16 5 16ZM5 18C4.643 18 4.359 18.11 4.186 18.24C4.063 18.332 4.021 18.41 4.006 18.458L4 18.5L4.007 18.542C4.021 18.59 4.063 18.668 4.186 18.761C4.359 18.891 4.643 19 5 19C5.357 19 5.641 18.89 5.814 18.76C5.937 18.668 5.979 18.59 5.994 18.542L6 18.5L5.993 18.458C5.979 18.41 5.937 18.332 5.814 18.239C5.641 18.11 5.357 18 5 18ZM12.923 2.88501C14.41 2.88501 15.726 3.61201 16.536 4.72901C17.4617 4.51556 18.4314 4.60316 19.3039 4.97905C20.1764 5.35494 20.9062 5.9995 21.387 6.81889C21.8677 7.63829 22.0744 8.58975 21.9769 9.53476C21.8795 10.4798 21.4829 11.369 20.845 12.073C20.8267 12.809 20.6266 13.5289 20.2625 14.1688C19.8984 14.8086 19.3816 15.3484 18.7583 15.7401C18.135 16.1317 17.4244 16.3631 16.69 16.4135C15.9555 16.4639 15.22 16.3318 14.549 16.029C14.0137 16.4553 13.3876 16.7528 12.719 16.8985C12.0504 17.0441 11.3573 17.0341 10.6932 16.8691C10.0291 16.7041 9.41187 16.3885 8.88921 15.9469C8.36655 15.5052 7.95248 14.9493 7.679 14.322C6.79685 13.9379 6.06248 13.2789 5.58542 12.4434C5.10837 11.6078 4.91417 10.6405 5.03179 9.68552C5.14942 8.73059 5.57256 7.83925 6.23812 7.14444C6.90368 6.44963 7.776 5.98857 8.725 5.83001C9.03693 4.96719 9.60724 4.22149 10.3583 3.6945C11.1093 3.16751 12.0045 2.88485 12.922 2.88501H12.923ZM12.923 4.88501C12.3415 4.88508 11.7788 5.09095 11.3346 5.46617C10.8904 5.84139 10.5933 6.36173 10.496 6.93501C10.4597 7.15169 10.3531 7.35039 10.1926 7.50041C10.0321 7.65043 9.82663 7.74342 9.608 7.76501L9.462 7.76901C8.87151 7.76868 8.30057 7.98059 7.85329 8.3661C7.40601 8.75161 7.11218 9.28503 7.02538 9.86911C6.93858 10.4532 7.0646 11.049 7.38044 11.5479C7.69629 12.0468 8.18093 12.4156 8.746 12.587C8.90347 12.6347 9.04674 12.7206 9.16309 12.8369C9.27944 12.9533 9.36528 13.0965 9.413 13.254C9.54136 13.676 9.78067 14.0558 10.1059 14.3537C10.4312 14.6515 10.8305 14.8566 11.2621 14.9475C11.6938 15.0383 12.1418 15.0116 12.5596 14.8701C12.9774 14.7285 13.3494 14.4775 13.637 14.143C13.7989 13.9548 14.0251 13.8335 14.2715 13.8029C14.5179 13.7722 14.7669 13.8343 14.97 13.977C15.3535 14.246 15.8057 14.4001 16.2736 14.421C16.7416 14.442 17.2058 14.3291 17.6118 14.0955C18.0178 13.8619 18.3487 13.5173 18.5657 13.1022C18.7828 12.6871 18.8769 12.2187 18.837 11.752C18.824 11.597 18.8473 11.4411 18.9051 11.2966C18.9629 11.1522 19.0536 11.0232 19.17 10.92C19.6123 10.5282 19.899 9.99043 19.9777 9.40481C20.0563 8.81918 19.9218 8.2248 19.5985 7.73017C19.2753 7.23554 18.7849 6.87366 18.217 6.71061C17.649 6.54755 17.0414 6.59419 16.505 6.84201C16.3848 6.89762 16.2547 6.92879 16.1224 6.93372C15.99 6.93865 15.858 6.91723 15.734 6.87071C15.6099 6.82419 15.4964 6.7535 15.3999 6.66274C15.3035 6.57198 15.226 6.46296 15.172 6.34201C14.9779 5.90789 14.6622 5.53929 14.2631 5.28073C13.864 5.02217 13.3985 4.88473 12.923 4.88501Z" fill="currentColor"/>
</svg>
