<svg width="24" height="24" viewBox="0 0 24 24" fill="none" xmlns="http://www.w3.org/2000/svg">
<path fill-rule="evenodd" clip-rule="evenodd" d="M5.44962 4.623C6.99662 2.974 9.23963 2 12.0166 2C16.5816 2 19.6086 4.631 20.5666 8.277C20.634 8.5336 20.5967 8.80644 20.4629 9.03552C20.329 9.2646 20.1097 9.43113 19.8531 9.4985C19.5965 9.56587 19.3237 9.52854 19.0946 9.39473C18.8655 9.26092 18.699 9.0416 18.6316 8.785C17.9046 6.022 15.6756 4 12.0156 4C9.72962 4 8.03562 4.789 6.90962 5.99C5.77362 7.202 5.14062 8.913 5.14062 10.875V13.125C5.14062 15.087 5.77362 16.798 6.90962 18.009C8.03562 19.212 9.72962 20 12.0156 20C13.6706 20 14.9836 19.616 15.9916 18.995C17.0066 18.37 17.6116 17.541 17.7816 16.59C17.9766 15.494 17.7366 14.742 17.3236 14.199C17.0967 13.9072 16.8214 13.6566 16.5096 13.458C16.3746 14.207 16.1336 14.914 15.7696 15.468C14.4276 17.507 11.8616 17.682 10.1696 17.007C9.25363 16.642 8.46863 15.643 8.22463 14.572C8.07771 13.958 8.12703 13.3135 8.36563 12.729C8.63063 12.093 9.12163 11.551 9.82063 11.139C10.5126 10.73 11.5406 10.542 12.5596 10.514C13.1736 10.497 13.8396 10.538 14.5096 10.647C14.3696 9.997 14.1326 9.512 13.8656 9.263C13.3816 8.813 12.5796 8.496 11.7756 8.501C10.9986 8.507 10.3396 8.806 9.94563 9.436C9.80506 9.6609 9.58091 9.82076 9.32248 9.88039C9.06406 9.94003 8.79253 9.89456 8.56763 9.754C8.34272 9.61343 8.18287 9.38929 8.12323 9.13086C8.0636 8.87244 8.10906 8.6009 8.24963 8.376C9.08663 7.038 10.4656 6.511 11.7626 6.501C13.0326 6.492 14.3406 6.973 15.2286 7.799C16.1266 8.635 16.5126 10.006 16.6126 11.253C17.4866 11.634 18.3126 12.193 18.9176 12.99C19.6986 14.02 20.0346 15.348 19.7506 16.941C19.4606 18.565 18.4356 19.839 17.0406 20.698C15.6726 21.54 13.9846 22 12.0156 22C9.23962 22 6.99563 21.026 5.45063 19.377C3.91463 17.739 3.14062 15.513 3.14062 13.125V10.875C3.14062 8.487 3.91463 6.261 5.45063 4.623H5.44962ZM14.5996 12.7C13.9474 12.5589 13.2807 12.4964 12.6136 12.514C11.7226 12.538 11.0976 12.707 10.8366 12.861C10.4526 13.088 10.2866 13.319 10.2126 13.498C10.1338 13.6987 10.1205 13.9193 10.1746 14.128C10.2966 14.664 10.6996 15.066 10.9106 15.149C12.0366 15.599 13.4456 15.361 14.0986 14.369C14.3336 14.011 14.5206 13.409 14.5986 12.7H14.5996Z" fill="currentColor"/>
</svg>
