<svg width="24" height="24" viewBox="0 0 24 24" fill="none" xmlns="http://www.w3.org/2000/svg">
<path fill-rule="evenodd" clip-rule="evenodd" d="M8 7C8 5.93913 8.42143 4.92172 9.17157 4.17157C9.92172 3.42143 10.9391 3 12 3C13.0609 3 14.0783 3.42143 14.8284 4.17157C15.5786 4.92172 16 5.93913 16 7C16 8.06087 15.5786 9.07828 14.8284 9.82843C14.0783 10.5786 13.0609 11 12 11C10.9391 11 9.92172 10.5786 9.17157 9.82843C8.42143 9.07828 8 8.06087 8 7ZM12 5C11.4696 5 10.9609 5.21071 10.5858 5.58579C10.2107 5.96086 10 6.46957 10 7C10 7.53043 10.2107 8.03914 10.5858 8.41421C10.9609 8.78929 11.4696 9 12 9C12.5304 9 13.0391 8.78929 13.4142 8.41421C13.7893 8.03914 14 7.53043 14 7C14 6.46957 13.7893 5.96086 13.4142 5.58579C13.0391 5.21071 12.5304 5 12 5ZM3 16C3 14.9391 3.42143 13.9217 4.17157 13.1716C4.92172 12.4214 5.93913 12 7 12C8.06087 12 9.07828 12.4214 9.82843 13.1716C10.5786 13.9217 11 14.9391 11 16C11 17.0609 10.5786 18.0783 9.82843 18.8284C9.07828 19.5786 8.06087 20 7 20C5.93913 20 4.92172 19.5786 4.17157 18.8284C3.42143 18.0783 3 17.0609 3 16ZM7 14C6.46957 14 5.96086 14.2107 5.58579 14.5858C5.21071 14.9609 5 15.4696 5 16C5 16.5304 5.21071 17.0391 5.58579 17.4142C5.96086 17.7893 6.46957 18 7 18C7.53043 18 8.03914 17.7893 8.41421 17.4142C8.78929 17.0391 9 16.5304 9 16C9 15.4696 8.78929 14.9609 8.41421 14.5858C8.03914 14.2107 7.53043 14 7 14ZM17 12C15.9391 12 14.9217 12.4214 14.1716 13.1716C13.4214 13.9217 13 14.9391 13 16C13 17.0609 13.4214 18.0783 14.1716 18.8284C14.9217 19.5786 15.9391 20 17 20C18.0609 20 19.0783 19.5786 19.8284 18.8284C20.5786 18.0783 21 17.0609 21 16C21 14.9391 20.5786 13.9217 19.8284 13.1716C19.0783 12.4214 18.0609 12 17 12ZM15 16C15 15.4696 15.2107 14.9609 15.5858 14.5858C15.9609 14.2107 16.4696 14 17 14C17.5304 14 18.0391 14.2107 18.4142 14.5858C18.7893 14.9609 19 15.4696 19 16C19 16.5304 18.7893 17.0391 18.4142 17.4142C18.0391 17.7893 17.5304 18 17 18C16.4696 18 15.9609 17.7893 15.5858 17.4142C15.2107 17.0391 15 16.5304 15 16Z" fill="currentColor"/>
</svg>
