<svg width="24" height="24" viewBox="0 0 24 24" fill="none" xmlns="http://www.w3.org/2000/svg">
<path fill-rule="evenodd" clip-rule="evenodd" d="M8.993 18.837C9.162 17.414 8.931 15.93 8.417 14.598C7.848 13.124 7.092 11.528 6.998 9.94103C6.919 8.60403 7.222 7.02203 8.03 5.93903C8.915 4.75303 10.368 4.00003 11.967 4.00003H13.479C14.7333 3.99996 15.9418 4.47132 16.8648 5.32061C17.7878 6.16989 18.3579 7.33507 18.462 8.58503L18.823 12.917C18.8345 13.0549 18.8172 13.1937 18.7723 13.3245C18.7274 13.4554 18.6559 13.5755 18.5622 13.6773C18.4685 13.7791 18.3546 13.8603 18.2279 13.9159C18.1012 13.9714 17.9644 14.0001 17.826 14H12.5C11.669 14 11.005 14.673 10.999 15.492C10.991 16.462 11.052 17.659 10.606 18.552C10.206 19.352 9.832 19.5 9.5 19.5C9.2 19.5 8.96 19.107 8.993 18.837ZM9.5 21.5C10.856 21.5 11.794 20.648 12.395 19.447C12.917 18.403 12.966 17.147 12.992 16H17.826C18.2411 16.0001 18.6516 15.914 19.0317 15.7472C19.4118 15.5805 19.7532 15.3367 20.0342 15.0312C20.3153 14.7257 20.5298 14.3653 20.6644 13.9726C20.799 13.58 20.8506 13.1637 20.816 12.75L20.455 8.41903C20.3093 6.66912 19.5112 5.0379 18.219 3.84891C16.9268 2.65991 15.235 1.99999 13.479 2.00003H11.967C11.0183 1.99745 10.0792 2.18949 9.20762 2.56428C8.33609 2.93907 7.5507 3.48864 6.9 4.17903C6.44292 4.05956 5.97243 3.99906 5.5 3.99903C4.392 3.99903 3.472 4.62103 2.876 5.60903C2.296 6.56903 2 7.89303 2 9.49903C2 11.106 2.297 12.431 2.876 13.391C3.472 14.38 4.392 15 5.5 15C5.781 15 6.079 14.95 6.377 14.866C6.835 16.066 7.161 17.303 7.007 18.601C6.835 20.046 8.016 21.5 9.5 21.5ZM5.696 12.976C5.211 13.076 4.831 12.76 4.589 12.358C4.263 11.818 4 10.894 4 9.50003C4 8.10603 4.263 7.18103 4.588 6.64103C4.898 6.12903 5.228 6.00003 5.5 6.00003C5.564 6.00003 5.627 6.00203 5.69 6.00503C5.154 7.21303 4.924 8.74503 5.002 10.059C5.049 10.864 5.363 11.977 5.696 12.976Z" fill="currentColor"/>
</svg>
