<svg width="24" height="24" viewBox="0 0 24 24" fill="none" xmlns="http://www.w3.org/2000/svg">
<path fill-rule="evenodd" clip-rule="evenodd" d="M9.821 3.21201C10.117 2.52201 10.881 1.89601 11.845 2.08201C13.319 2.36501 14.884 3.48301 14.994 5.29601L15 5.50001V8.00001H17.405C17.9744 7.99998 18.5372 8.12151 19.0559 8.35648C19.5745 8.59144 20.037 8.93443 20.4125 9.36251C20.7879 9.79058 21.0676 10.2939 21.2329 10.8387C21.3982 11.3836 21.4453 11.9575 21.371 12.522L21.341 12.716L20.431 17.716C20.2697 18.604 19.8127 19.4114 19.1345 20.0069C18.4562 20.6024 17.5965 20.951 16.695 20.996L16.496 21H6C5.23479 21 4.49849 20.7077 3.94174 20.1827C3.38499 19.6578 3.04989 18.9399 3.005 18.176L3 18V12C2.99996 11.2348 3.29233 10.4985 3.81728 9.94175C4.34224 9.385 5.06011 9.0499 5.824 9.00501L6 9.00001H7.34L9.821 3.21201ZM7 11H6C5.73478 11 5.48043 11.1054 5.29289 11.2929C5.10536 11.4804 5 11.7348 5 12V18C5 18.2652 5.10536 18.5196 5.29289 18.7071C5.48043 18.8946 5.73478 19 6 19H7V11ZM11.625 4.08001L9.081 10.017C9.04545 10.0997 9.02123 10.1868 9.009 10.276L9 10.41V19H16.496C16.9369 19 17.3655 18.8544 17.7151 18.5856C18.0647 18.3169 18.3157 17.9401 18.429 17.514L18.464 17.358L19.374 12.358C19.4243 12.082 19.4159 11.7985 19.3495 11.5259C19.2831 11.2534 19.16 10.9978 18.9884 10.7759C18.8167 10.554 18.6003 10.3707 18.3532 10.2379C18.1061 10.1051 17.8338 10.0257 17.554 10.005L17.405 10H15C14.4954 10.0002 14.0094 9.8096 13.6395 9.46651C13.2695 9.12342 13.0428 8.65316 13.005 8.15001L13 8.00001V5.50001C13 4.94701 12.566 4.38401 11.795 4.13001L11.625 4.08001Z" fill="currentColor"/>
</svg>
