<svg width="24" height="24" viewBox="0 0 24 24" fill="none" xmlns="http://www.w3.org/2000/svg">
<path fill-rule="evenodd" clip-rule="evenodd" d="M16.496 2.99805C17.4329 2.99795 18.3401 3.32674 19.0595 3.92708C19.7788 4.52742 20.2645 5.36122 20.432 6.28305L21.341 11.283C21.4457 11.8595 21.4225 12.4519 21.2731 13.0184C21.1236 13.5849 20.8516 14.1116 20.4761 14.5614C20.1007 15.0112 19.631 15.373 19.1003 15.6212C18.5696 15.8695 17.9909 15.9981 17.405 15.998H15V18.498C15 20.431 13.374 21.622 11.845 21.917C10.881 22.102 10.116 21.475 9.821 20.786L7.341 14.998H6C5.20435 14.998 4.44129 14.682 3.87868 14.1194C3.31607 13.5568 3 12.7937 3 11.998V5.99805C3 5.2024 3.31607 4.43934 3.87868 3.87673C4.44129 3.31412 5.20435 2.99805 6 2.99805H16.496ZM16.496 4.99805H9V13.588C8.99972 13.7234 9.02694 13.8575 9.08 13.982L11.625 19.918C12.502 19.694 13 19.09 13 18.498V15.998C13 15.4676 13.2107 14.9589 13.5858 14.5838C13.9609 14.2088 14.4696 13.998 15 13.998H17.405C17.698 13.9981 17.9874 13.9338 18.2528 13.8096C18.5182 13.6855 18.753 13.5045 18.9408 13.2796C19.1285 13.0546 19.2645 12.7912 19.3392 12.5079C19.4139 12.2246 19.4254 11.9283 19.373 11.64L18.464 6.64005C18.3802 6.17922 18.1372 5.76244 17.7776 5.46237C17.4179 5.1623 16.9644 4.99798 16.496 4.99805ZM7 4.99805H6C5.75507 4.99808 5.51866 5.088 5.33563 5.25076C5.15259 5.41352 5.03566 5.6378 5.007 5.88105L5 5.99805V11.998C5.00003 12.243 5.08996 12.4794 5.25272 12.6624C5.41547 12.8455 5.63975 12.9624 5.883 12.991L6 12.998H7V4.99805Z" fill="currentColor"/>
</svg>
