<svg width="24" height="24" viewBox="0 0 24 24" fill="none" xmlns="http://www.w3.org/2000/svg">
<path fill-rule="evenodd" clip-rule="evenodd" d="M5 6C4.73478 6 4.48043 6.10536 4.29289 6.29289C4.10536 6.48043 4 6.73478 4 7V17C4 17.2652 4.10536 17.5196 4.29289 17.7071C4.48043 17.8946 4.73478 18 5 18H12.17C12.3766 17.4145 12.7597 16.9074 13.2666 16.5488C13.7735 16.1901 14.3791 15.9975 15 15.9975C15.6209 15.9975 16.2265 16.1901 16.7334 16.5488C17.2403 16.9074 17.6234 17.4145 17.83 18H19C19.2652 18 19.5196 17.8946 19.7071 17.7071C19.8946 17.5196 20 17.2652 20 17V7C20 6.73478 19.8946 6.48043 19.7071 6.29289C19.5196 6.10536 19.2652 6 19 6H17.83C17.6234 6.58553 17.2403 7.09257 16.7334 7.45121C16.2265 7.80985 15.6209 8.00245 15 8.00245C14.3791 8.00245 13.7735 7.80985 13.2666 7.45121C12.7597 7.09257 12.3766 6.58553 12.17 6H5ZM2 7C2 6.20435 2.31607 5.44129 2.87868 4.87868C3.44129 4.31607 4.20435 4 5 4H13C13.2652 4 13.5196 4.10536 13.7071 4.29289C13.8946 4.48043 14 4.73478 14 5C14 5.26522 14.1054 5.51957 14.2929 5.70711C14.4804 5.89464 14.7348 6 15 6C15.2652 6 15.5196 5.89464 15.7071 5.70711C15.8946 5.51957 16 5.26522 16 5C16 4.73478 16.1054 4.48043 16.2929 4.29289C16.4804 4.10536 16.7348 4 17 4H19C19.7956 4 20.5587 4.31607 21.1213 4.87868C21.6839 5.44129 22 6.20435 22 7V17C22 17.7956 21.6839 18.5587 21.1213 19.1213C20.5587 19.6839 19.7956 20 19 20H17C16.7348 20 16.4804 19.8946 16.2929 19.7071C16.1054 19.5196 16 19.2652 16 19C16 18.7348 15.8946 18.4804 15.7071 18.2929C15.5196 18.1054 15.2652 18 15 18C14.7348 18 14.4804 18.1054 14.2929 18.2929C14.1054 18.4804 14 18.7348 14 19C14 19.2652 13.8946 19.5196 13.7071 19.7071C13.5196 19.8946 13.2652 20 13 20H5C4.20435 20 3.44129 19.6839 2.87868 19.1213C2.31607 18.5587 2 17.7956 2 17V7ZM15 9C15.2652 9 15.5196 9.10536 15.7071 9.29289C15.8946 9.48043 16 9.73478 16 10V10.5C16 10.7652 15.8946 11.0196 15.7071 11.2071C15.5196 11.3946 15.2652 11.5 15 11.5C14.7348 11.5 14.4804 11.3946 14.2929 11.2071C14.1054 11.0196 14 10.7652 14 10.5V10C14 9.73478 14.1054 9.48043 14.2929 9.29289C14.4804 9.10536 14.7348 9 15 9ZM16 13.5C16 13.2348 15.8946 12.9804 15.7071 12.7929C15.5196 12.6054 15.2652 12.5 15 12.5C14.7348 12.5 14.4804 12.6054 14.2929 12.7929C14.1054 12.9804 14 13.2348 14 13.5V14C14 14.2652 14.1054 14.5196 14.2929 14.7071C14.4804 14.8946 14.7348 15 15 15C15.2652 15 15.5196 14.8946 15.7071 14.7071C15.8946 14.5196 16 14.2652 16 14V13.5Z" fill="currentColor"/>
</svg>
