<svg width="24" height="24" viewBox="0 0 24 24" fill="none" xmlns="http://www.w3.org/2000/svg">
<path d="M13 4C13 3.73478 12.8946 3.48043 12.7071 3.29289C12.5196 3.10536 12.2652 3 12 3C11.7348 3 11.4804 3.10536 11.2929 3.29289C11.1054 3.48043 11 3.73478 11 4V21C11 21.2652 11.1054 21.5196 11.2929 21.7071C11.4804 21.8946 11.7348 22 12 22C12.2652 22 12.5196 21.8946 12.7071 21.7071C12.8946 21.5196 13 21.2652 13 21V4ZM7 4H10V6H7V7H10V9H7C6.46957 9 5.96086 8.78929 5.58579 8.41421C5.21071 8.03914 5 7.53043 5 7V6C5 5.46957 5.21071 4.96086 5.58579 4.58579C5.96086 4.21071 6.46957 4 7 4ZM18 7H14V9H18C18.5304 9 19.0391 8.78929 19.4142 8.41421C19.7893 8.03914 20 7.53043 20 7V6C20 5.46957 19.7893 4.96086 19.4142 4.58579C19.0391 4.21071 18.5304 4 18 4H14V6H18V7ZM10 10H5C4.46957 10 3.96086 10.2107 3.58579 10.5858C3.21071 10.9609 3 11.4696 3 12V13C3 13.5304 3.21071 14.0391 3.58579 14.4142C3.96086 14.7893 4.46957 15 5 15H10V13H5V12H10V10ZM14 10V12H16V13H14V15H16C16.5304 15 17.0391 14.7893 17.4142 14.4142C17.7893 14.0391 18 13.5304 18 13V12C18 11.4696 17.7893 10.9609 17.4142 10.5858C17.0391 10.2107 16.5304 10 16 10H14ZM10 16H8C7.46957 16 6.96086 16.2107 6.58579 16.5858C6.21071 16.9609 6 17.4696 6 18V19C6 19.5304 6.21071 20.0391 6.58579 20.4142C6.96086 20.7893 7.46957 21 8 21H10V19H8V18H10V16ZM14 16V18H19V19H14V21H19C19.5304 21 20.0391 20.7893 20.4142 20.4142C20.7893 20.0391 21 19.5304 21 19V18C21 17.4696 20.7893 16.9609 20.4142 16.5858C20.0391 16.2107 19.5304 16 19 16H14Z" fill="currentColor"/>
</svg>
