<svg width="24" height="24" viewBox="0 0 24 24" fill="none" xmlns="http://www.w3.org/2000/svg">
<path fill-rule="evenodd" clip-rule="evenodd" d="M16 5C16.9193 5 17.8295 5.18106 18.6788 5.53284C19.5281 5.88463 20.2997 6.40024 20.9497 7.05025C21.5998 7.70026 22.1154 8.47194 22.4672 9.32122C22.8189 10.1705 23 11.0807 23 12C23 12.9193 22.8189 13.8295 22.4672 14.6788C22.1154 15.5281 21.5998 16.2997 20.9497 16.9497C20.2997 17.5998 19.5281 18.1154 18.6788 18.4672C17.8295 18.8189 16.9193 19 16 19H8C7.08075 19 6.1705 18.8189 5.32122 18.4672C4.47194 18.1154 3.70026 17.5998 3.05025 16.9497C2.40024 16.2997 1.88463 15.5281 1.53284 14.6788C1.18106 13.8295 1 12.9193 1 12C1 11.0807 1.18106 10.1705 1.53284 9.32122C1.88463 8.47194 2.40024 7.70026 3.05025 7.05025C3.70026 6.40024 4.47194 5.88463 5.32122 5.53284C6.1705 5.18106 7.08075 5 8 5H16ZM16 7H8C6.67392 7 5.40215 7.52678 4.46447 8.46447C3.52678 9.40215 3 10.6739 3 12C3 13.3261 3.52678 14.5979 4.46447 15.5355C5.40215 16.4732 6.67392 17 8 17H16C17.3261 17 18.5979 16.4732 19.5355 15.5355C20.4732 14.5979 21 13.3261 21 12C21 10.6739 20.4732 9.40215 19.5355 8.46447C18.5979 7.52678 17.3261 7 16 7ZM8 8C9.06087 8 10.0783 8.42143 10.8284 9.17157C11.5786 9.92172 12 10.9391 12 12C12 13.0609 11.5786 14.0783 10.8284 14.8284C10.0783 15.5786 9.06087 16 8 16C6.93913 16 5.92172 15.5786 5.17157 14.8284C4.42143 14.0783 4 13.0609 4 12C4 10.9391 4.42143 9.92172 5.17157 9.17157C5.92172 8.42143 6.93913 8 8 8ZM8 10C7.46957 10 6.96086 10.2107 6.58579 10.5858C6.21071 10.9609 6 11.4696 6 12C6 12.5304 6.21071 13.0391 6.58579 13.4142C6.96086 13.7893 7.46957 14 8 14C8.53043 14 9.03914 13.7893 9.41421 13.4142C9.78929 13.0391 10 12.5304 10 12C10 11.4696 9.78929 10.9609 9.41421 10.5858C9.03914 10.2107 8.53043 10 8 10Z" fill="currentColor"/>
</svg>
