<svg width="24" height="24" viewBox="0 0 24 24" fill="none" xmlns="http://www.w3.org/2000/svg">
<path fill-rule="evenodd" clip-rule="evenodd" d="M6.79781 2.88395C8.02528 2.39231 9.36687 2.25829 10.6673 2.49738C11.9678 2.73647 13.174 3.33891 14.1463 4.23498C15.1187 5.13105 15.8174 6.28413 16.1617 7.56078C16.506 8.83744 16.4818 10.1855 16.0918 11.4489L20.4858 15.1669C20.8816 15.5033 21.2034 15.918 21.431 16.3849C21.6585 16.8519 21.7869 17.3609 21.8079 17.8798C21.8289 18.3988 21.7422 18.9166 21.5532 19.4004C21.3642 19.8842 21.077 20.3236 20.7097 20.6908C20.3424 21.0581 19.903 21.3453 19.4192 21.5343C18.9354 21.7233 18.4177 21.8101 17.8987 21.789C17.3797 21.768 16.8707 21.6397 16.4038 21.4121C15.9369 21.1846 15.5222 20.8627 15.1858 20.4669L11.4688 16.0729C10.2052 16.463 8.85704 16.4873 7.58024 16.143C6.30344 15.7987 5.15025 15.0998 4.25414 14.1273C3.35802 13.1548 2.75562 11.9485 2.51665 10.6478C2.27768 9.34719 2.41191 8.00546 2.90381 6.77795C3.26181 5.88394 4.38381 5.77095 4.96681 6.40495L8.16981 9.88295L9.61581 9.59495L9.90581 8.14595L6.42581 4.94795C5.79181 4.36495 5.90281 3.24195 6.79781 2.88395ZM8.80481 4.41995L11.5678 6.95995C11.8898 7.25595 12.0338 7.69795 11.9478 8.12495L11.4778 10.4789C11.4294 10.7212 11.3103 10.9437 11.1355 11.1183C10.9607 11.2929 10.7381 11.4118 10.4958 11.4599L8.14581 11.9269C7.93549 11.9688 7.71795 11.9558 7.5141 11.8892C7.31025 11.8227 7.12694 11.7048 6.98181 11.5469L4.43781 8.78495C4.33426 9.64509 4.45589 10.5174 4.79079 11.3164C5.12568 12.1154 5.66237 12.8137 6.34827 13.343C7.03418 13.8722 7.84579 14.2142 8.70361 14.3355C9.56143 14.4568 10.4361 14.3533 11.2418 14.0349C11.4862 13.938 11.7548 13.9201 12.0099 13.9837C12.265 14.0474 12.4937 14.1895 12.6638 14.3899L16.7138 19.1759C16.8709 19.3623 17.065 19.5141 17.2837 19.6215C17.5025 19.729 17.7412 19.7898 17.9847 19.8002C18.2283 19.8106 18.4713 19.7702 18.6984 19.6818C18.9255 19.5933 19.1318 19.4586 19.3041 19.2863C19.4765 19.1139 19.6112 18.9077 19.6996 18.6805C19.7881 18.4534 19.8284 18.2104 19.818 17.9669C19.8077 17.7234 19.7468 17.4846 19.6394 17.2659C19.5319 17.0471 19.3802 16.853 19.1938 16.6959L14.4088 12.6459C14.2084 12.4758 14.0663 12.2471 14.0026 11.992C13.9389 11.737 13.9568 11.4683 14.0538 11.2239C14.3724 10.4182 14.4763 9.54348 14.3551 8.68552C14.2339 7.82757 13.8919 7.01582 13.3626 6.32983C12.8333 5.64383 12.1348 5.10713 11.3356 4.77232C10.5365 4.43752 9.66403 4.31609 8.80381 4.41995H8.80481Z" fill="currentColor"/>
</svg>
