<svg width="24" height="24" viewBox="0 0 24 24" fill="none" xmlns="http://www.w3.org/2000/svg">
<path fill-rule="evenodd" clip-rule="evenodd" d="M3 4C3 3.73478 3.10536 3.48043 3.29289 3.29289C3.48043 3.10536 3.73478 3 4 3H20C20.2652 3 20.5196 3.10536 20.7071 3.29289C20.8946 3.48043 21 3.73478 21 4C21 4.26522 20.8946 4.51957 20.7071 4.70711C20.5196 4.89464 20.2652 5 20 5H4C3.73478 5 3.48043 4.89464 3.29289 4.70711C3.10536 4.51957 3 4.26522 3 4ZM4 8C4 7.73478 4.10536 7.48043 4.29289 7.29289C4.48043 7.10536 4.73478 7 5 7H17C17.2652 7 17.5196 7.10536 17.7071 7.29289C17.8946 7.48043 18 7.73478 18 8C18 8.26522 17.8946 8.51957 17.7071 8.70711C17.5196 8.89464 17.2652 9 17 9H5C4.73478 9 4.48043 8.89464 4.29289 8.70711C4.10536 8.51957 4 8.26522 4 8ZM8 12C8 11.7348 8.10536 11.4804 8.29289 11.2929C8.48043 11.1054 8.73478 11 9 11H19C19.2652 11 19.5196 11.1054 19.7071 11.2929C19.8946 11.4804 20 11.7348 20 12C20 12.2652 19.8946 12.5196 19.7071 12.7071C19.5196 12.8946 19.2652 13 19 13H9C8.73478 13 8.48043 12.8946 8.29289 12.7071C8.10536 12.5196 8 12.2652 8 12ZM11 16C11 15.7348 11.1054 15.4804 11.2929 15.2929C11.4804 15.1054 11.7348 15 12 15H17C17.2652 15 17.5196 15.1054 17.7071 15.2929C17.8946 15.4804 18 15.7348 18 16C18 16.2652 17.8946 16.5196 17.7071 16.7071C17.5196 16.8946 17.2652 17 17 17H12C11.7348 17 11.4804 16.8946 11.2929 16.7071C11.1054 16.5196 11 16.2652 11 16ZM10 20C10 19.7348 10.1054 19.4804 10.2929 19.2929C10.4804 19.1054 10.7348 19 11 19H14C14.2652 19 14.5196 19.1054 14.7071 19.2929C14.8946 19.4804 15 19.7348 15 20C15 20.2652 14.8946 20.5196 14.7071 20.7071C14.5196 20.8946 14.2652 21 14 21H11C10.7348 21 10.4804 20.8946 10.2929 20.7071C10.1054 20.5196 10 20.2652 10 20Z" fill="currentColor"/>
</svg>
