<svg width="24" height="24" viewBox="0 0 24 24" fill="none" xmlns="http://www.w3.org/2000/svg">
<path fill-rule="evenodd" clip-rule="evenodd" d="M12 3C14.592 3 16.986 3.465 18.77 4.258C19.66 4.654 20.444 5.151 21.017 5.754C21.596 6.362 22 7.122 22 8C22 9.365 21.06 10.421 19.85 11.175C19.945 11.43 20 11.705 20 12C20 12.847 19.547 13.538 18.977 14.045C18.6462 14.3335 18.2815 14.5806 17.891 14.781C17.961 15.007 18 15.247 18 15.5C18 16.504 17.395 17.295 16.668 17.824C16.1581 18.1839 15.5931 18.4585 14.995 18.637C14.928 19.555 14.188 20.146 13.569 20.455C12.859 20.81 11.95 21 11 21C10.05 21 9.14 20.81 8.431 20.455C7.782 20.131 7 19.497 7 18.5C7 17.927 7.27 17.464 7.6 17.132C7.237 16.679 7 16.134 7 15.5C7 15.394 7.007 15.29 7.02 15.187C6.371 14.942 5.79 14.641 5.316 14.285C4.608 13.753 4 12.985 4 12C4 11.706 4.055 11.43 4.15 11.175C2.94 10.42 2 9.365 2 8C2 7.122 2.404 6.362 2.983 5.754C3.556 5.151 4.339 4.654 5.23 4.258C7.014 3.465 9.408 3 12 3ZM9.272 18.362C9.19746 18.4015 9.1271 18.4484 9.062 18.502C9.112 18.543 9.194 18.6 9.326 18.666C9.703 18.855 10.293 19 11 19C11.225 19 11.438 18.985 11.636 18.96C10.8209 18.8889 10.0226 18.6876 9.272 18.362ZM16 15.502C14.82 15.822 13.45 16 12 16C10.968 16 9.978 15.91 9.07 15.743C9.164 15.921 9.37 16.151 9.795 16.389C10.435 16.747 11.389 17 12.5 17C12.882 17 13.25 16.97 13.594 16.915C14.417 16.782 15.07 16.513 15.491 16.207C15.917 15.897 15.999 15.637 16 15.502ZM17.995 12.052C16.32 12.655 14.232 13 12 13C9.768 13 7.681 12.655 6.005 12.052C6.026 12.171 6.127 12.392 6.517 12.685C6.963 13.02 7.664 13.345 8.587 13.589C9.563 13.846 10.732 14 12 14C13.601 14 15.04 13.755 16.126 13.37C16.827 13.12 17.334 12.83 17.646 12.552C17.906 12.322 17.977 12.152 17.995 12.052ZM12 5C9.621 5 7.516 5.43 6.042 6.085C5.304 6.413 4.769 6.778 4.432 7.132C4.099 7.482 4 7.773 4 8C4 8.453 4.457 9.198 5.992 9.892C7.467 10.559 9.592 11 12 11C14.407 11 16.534 10.56 18.008 9.892C19.543 9.198 20 8.453 20 8C20 7.773 19.9 7.482 19.568 7.132C19.231 6.778 18.696 6.413 17.958 6.085C16.484 5.431 14.378 5 12 5Z" fill="currentColor"/>
</svg>
