<svg width="24" height="24" viewBox="0 0 24 24" fill="none" xmlns="http://www.w3.org/2000/svg">
<path fill-rule="evenodd" clip-rule="evenodd" d="M8.23193 2.35996C8.36718 2.1977 8.55033 2.08244 8.75513 2.03071C8.95993 1.97897 9.17585 1.99341 9.37193 2.07196L9.47893 2.12196L20.4789 8.12196C20.6657 8.22364 20.8152 8.38222 20.9057 8.57467C20.9963 8.76712 21.0231 8.98342 20.9822 9.19214C20.9414 9.40086 20.8351 9.59114 20.6788 9.73533C20.5225 9.87952 20.3243 9.97012 20.1129 9.99396L19.9999 9.99996H17.9999V12.994C18.0139 13.0253 18.0332 13.0541 18.0569 13.079C18.1149 13.146 18.2029 13.221 18.3169 13.295L18.4389 13.367C18.9036 13.621 19.2927 13.9934 19.5668 14.4465C19.8409 14.8996 19.9902 15.4172 19.9995 15.9467C20.0088 16.4761 19.8777 16.9986 19.6197 17.4611C19.3617 17.9235 18.9859 18.3094 18.5304 18.5796C18.0749 18.8497 17.5561 18.9945 17.0266 18.9992C16.497 19.0039 15.9757 18.8684 15.5155 18.6063C15.0553 18.3443 14.6727 17.9651 14.4065 17.5074C14.1403 17.0496 14 16.5295 13.9999 16C14.0002 15.7451 14.0978 15.4999 14.2728 15.3146C14.4477 15.1293 14.6869 15.0177 14.9413 15.0028C15.1958 14.9878 15.4463 15.0706 15.6418 15.2342C15.8372 15.3978 15.9628 15.6299 15.9929 15.883L15.9999 16C16 16.1765 16.0467 16.3499 16.1355 16.5025C16.2243 16.6551 16.3518 16.7815 16.5053 16.8689C16.6587 16.9562 16.8325 17.0013 17.0091 16.9997C17.1856 16.9981 17.3586 16.9498 17.5104 16.8597C17.6622 16.7695 17.7875 16.6408 17.8734 16.4866C17.9594 16.3324 18.003 16.1582 17.9998 15.9817C17.9966 15.8051 17.9467 15.6326 17.8552 15.4816C17.7637 15.3306 17.6339 15.2065 17.4789 15.122C17.124 14.9329 16.8056 14.682 16.5389 14.381C16.2432 14.048 16.0581 13.6315 16.0089 13.189L15.9999 13V9.99996H11.9999V21C11.9999 21.2449 11.91 21.4813 11.7472 21.6643C11.5845 21.8474 11.3602 21.9643 11.1169 21.993L10.9999 22H6.99993C6.755 21.9999 6.51859 21.91 6.33556 21.7472C6.15252 21.5845 6.03559 21.3602 6.00693 21.117L5.99993 21V9.99996H3.99993C3.82069 10 3.64472 9.95193 3.49044 9.86068C3.33616 9.76943 3.20925 9.6384 3.12297 9.48129C3.0367 9.32417 2.99424 9.14676 3.00004 8.96761C3.00583 8.78846 3.05968 8.61416 3.15593 8.46296L3.23193 8.35996L8.23193 2.35996ZM9.99993 17.618L7.99993 18.618V20H9.99993V17.618ZM9.99993 13.618L7.99993 14.618V16.382L9.99993 15.382V13.618ZM9.99993 9.99996H7.99993V12.382L9.99993 11.382V9.99996ZM7.99993 5.76196L6.13493 7.99996H7.99993V5.76196ZM9.99993 4.68496V7.99996H16.0779L9.99993 4.68496Z" fill="currentColor"/>
</svg>
