<svg width="24" height="24" viewBox="0 0 24 24" fill="none" xmlns="http://www.w3.org/2000/svg">
<path fill-rule="evenodd" clip-rule="evenodd" d="M10.707 2.29301C10.5184 2.11085 10.2658 2.01006 10.0036 2.01234C9.7414 2.01461 9.49059 2.11978 9.30518 2.30519C9.11977 2.4906 9.0146 2.74141 9.01233 3.00361C9.01005 3.26581 9.11084 3.51841 9.293 3.70701L9.73 4.14501L5.446 11H5C4.73478 11 4.48043 11.1054 4.29289 11.2929C4.10536 11.4804 4 11.7348 4 12C4 12.2652 4.10536 12.5196 4.29289 12.7071C4.48043 12.8947 4.73478 13 5 13H5.446L9.73 19.855L9.293 20.293C9.19749 20.3853 9.12131 20.4956 9.0689 20.6176C9.01649 20.7396 8.9889 20.8708 8.98775 21.0036C8.9866 21.1364 9.0119 21.2681 9.06218 21.391C9.11246 21.5139 9.18671 21.6255 9.28061 21.7194C9.3745 21.8133 9.48615 21.8876 9.60905 21.9378C9.73194 21.9881 9.86362 22.0134 9.9964 22.0123C10.1292 22.0111 10.2604 21.9835 10.3824 21.9311C10.5044 21.8787 10.6148 21.8025 10.707 21.707L11.637 20.777L13.413 19.593C14.3382 18.9763 15.0313 18.0688 15.383 17.014L16.72 13H18C18 13.1978 18.0587 13.3911 18.1686 13.5555C18.2785 13.7199 18.4346 13.848 18.6173 13.9237C18.8 13.9994 19.0011 14.0192 19.195 13.9806C19.389 13.942 19.5671 13.8468 19.707 13.707L20.707 12.707C20.8945 12.5195 20.9998 12.2652 20.9998 12C20.9998 11.7348 20.8945 11.4805 20.707 11.293L19.707 10.293C19.5671 10.1532 19.389 10.058 19.195 10.0194C19.0011 9.98086 18.8 10.0007 18.6173 10.0763C18.4346 10.152 18.2785 10.2801 18.1686 10.4446C18.0587 10.609 18 10.8023 18 11H16.72L15.383 6.98601C15.0315 5.93085 14.3383 5.02298 13.413 4.40601L11.637 3.22301L10.707 2.29301ZM11.302 18.597L12.303 17.929C12.858 17.5591 13.2739 17.0147 13.485 16.382L14.613 13H7.804L11.302 18.597ZM7.804 11H14.613L13.485 7.61801C13.2739 6.98528 12.858 6.44094 12.303 6.07101L11.303 5.40301L7.804 11Z" fill="currentColor"/>
</svg>
