<svg width="24" height="24" viewBox="0 0 24 24" fill="none" xmlns="http://www.w3.org/2000/svg">
<path fill-rule="evenodd" clip-rule="evenodd" d="M12.916 3.60001C12.838 3.42198 12.7099 3.27053 12.5472 3.16418C12.3845 3.05783 12.1944 3.00119 12 3.00119C11.8056 3.00119 11.6155 3.05783 11.4528 3.16418C11.2901 3.27053 11.162 3.42198 11.084 3.60001L4.346 19H4C3.73478 19 3.48043 19.1054 3.29289 19.2929C3.10536 19.4804 3 19.7348 3 20C3 20.2652 3.10536 20.5196 3.29289 20.7071C3.48043 20.8947 3.73478 21 4 21H20C20.2652 21 20.5196 20.8947 20.7071 20.7071C20.8946 20.5196 21 20.2652 21 20C21 19.7348 20.8946 19.4804 20.7071 19.2929C20.5196 19.1054 20.2652 19 20 19H19.654L12.916 3.60001ZM17.471 19L16.596 17H7.404L6.529 19H17.471ZM8.279 15H15.721L14.409 12H9.592L8.279 15ZM10.467 10H13.533L12 6.49501L10.467 10Z" fill="currentColor"/>
</svg>
