<svg width="24" height="24" viewBox="0 0 24 24" fill="none" xmlns="http://www.w3.org/2000/svg">
<path d="M17 2C18.0609 2 19.0783 2.42143 19.8284 3.17157C20.5786 3.92172 21 4.93913 21 6V15C20.9997 15.9092 20.6899 16.7911 20.1216 17.5007C19.5532 18.2103 18.7602 18.7052 17.873 18.904L19.6 20.2C19.7051 20.2788 19.7936 20.3775 19.8605 20.4905C19.9274 20.6035 19.9714 20.7286 19.99 20.8586C20.0085 20.9886 20.0013 21.121 19.9687 21.2482C19.9361 21.3754 19.8788 21.4949 19.8 21.6C19.7212 21.7051 19.6225 21.7936 19.5095 21.8605C19.3965 21.9274 19.2714 21.9714 19.1414 21.99C19.0114 22.0085 18.879 22.0013 18.7518 21.9687C18.6246 21.9361 18.5051 21.8788 18.4 21.8L14.667 19H9.333L5.6 21.8C5.49494 21.8788 5.37539 21.9361 5.24818 21.9687C5.12097 22.0013 4.98858 22.0085 4.85858 21.99C4.59603 21.9524 4.35913 21.8122 4.2 21.6C4.04087 21.3878 3.97254 21.1211 4.01005 20.8586C4.04756 20.596 4.18783 20.3591 4.4 20.2L6.127 18.904C5.23976 18.7054 4.44662 18.2105 3.87823 17.5009C3.30983 16.7913 3.00008 15.9092 3 15V6C3 4.93913 3.42143 3.92172 4.17157 3.17157C4.92172 2.42143 5.93913 2 7 2H17ZM19 12H5V15C4.99984 15.5046 5.19041 15.9906 5.5335 16.3605C5.87659 16.7305 6.34684 16.9572 6.85 16.995L7 17H17C17.5046 17.0002 17.9906 16.8096 18.3605 16.4665C18.7305 16.1234 18.9572 15.6532 18.995 15.15L19 15V12ZM12 13C12.3978 13 12.7794 13.158 13.0607 13.4393C13.342 13.7206 13.5 14.1022 13.5 14.5C13.5 14.8978 13.342 15.2794 13.0607 15.5607C12.7794 15.842 12.3978 16 12 16C11.6022 16 11.2206 15.842 10.9393 15.5607C10.658 15.2794 10.5 14.8978 10.5 14.5C10.5 14.1022 10.658 13.7206 10.9393 13.4393C11.2206 13.158 11.6022 13 12 13ZM19 8H5V10H19V8ZM17 4H7C6.49542 3.99984 6.00943 4.19041 5.63945 4.5335C5.26947 4.87659 5.04284 5.34684 5.005 5.85L5 6H19C19.0002 5.49542 18.8096 5.00943 18.4665 4.63945C18.1234 4.26947 17.6532 4.04284 17.15 4.005L17 4Z" fill="currentColor"/>
</svg>
