<svg width="24" height="24" viewBox="0 0 24 24" fill="none" xmlns="http://www.w3.org/2000/svg">
<path fill-rule="evenodd" clip-rule="evenodd" d="M14.7199 2C15.8377 1.99986 16.9233 2.37426 17.8034 3.06343C18.6834 3.7526 19.3071 4.71678 19.5749 5.802L19.6239 6.019L21.0239 13.019C21.5199 15.501 20.0949 17.849 17.8839 18.682L17.6739 18.755L19.5999 20.2C19.8036 20.3525 19.9415 20.577 19.9855 20.8276C20.0295 21.0783 19.9762 21.3362 19.8367 21.549C19.6971 21.7618 19.4816 21.9133 19.2342 21.9728C18.9868 22.0322 18.726 21.9951 18.5049 21.869L18.3999 21.8L14.6669 19H9.33295L5.59995 21.8C5.39651 21.9525 5.14263 22.0218 4.88993 21.9938C4.63723 21.9657 4.40469 21.8425 4.23961 21.6492C4.07452 21.4558 3.98929 21.2068 4.00124 20.9529C4.01319 20.6989 4.12143 20.459 4.30395 20.282L4.39995 20.2L6.32595 18.755C4.06595 18.02 2.55795 15.724 2.93595 13.252L2.97595 13.019L4.37595 6.019C4.59522 4.92315 5.17531 3.93236 6.0236 3.20478C6.87189 2.47721 7.93948 2.0548 9.05595 2.005L9.27995 2H14.7219H14.7199ZM14.7199 4H9.27995C8.58615 3.99973 7.91371 4.23993 7.37711 4.67971C6.84051 5.11949 6.47293 5.73166 6.33695 6.412L4.93695 13.412C4.84994 13.8473 4.86062 14.2965 4.96823 14.7272C5.07584 15.1579 5.27769 15.5593 5.55922 15.9026C5.84075 16.2458 6.19495 16.5223 6.59627 16.7121C6.99759 16.9018 7.43602 17.0002 7.87995 17H16.1219C16.5658 17 17.0041 16.9016 17.4053 16.7117C17.8065 16.5219 18.1606 16.2454 18.442 15.9022C18.7234 15.559 18.9252 15.1576 19.0327 14.727C19.1403 14.2963 19.1509 13.8472 19.0639 13.412L17.6639 6.412C17.5279 5.7315 17.1602 5.11919 16.6234 4.67939C16.0866 4.23959 15.4139 3.99949 14.7199 4ZM8.24995 13.25C8.58147 13.25 8.89941 13.3817 9.13383 13.6161C9.36825 13.8505 9.49995 14.1685 9.49995 14.5C9.49995 14.8315 9.36825 15.1495 9.13383 15.3839C8.89941 15.6183 8.58147 15.75 8.24995 15.75C7.91843 15.75 7.60048 15.6183 7.36606 15.3839C7.13164 15.1495 6.99995 14.8315 6.99995 14.5C6.99995 14.1685 7.13164 13.8505 7.36606 13.6161C7.60048 13.3817 7.91843 13.25 8.24995 13.25ZM15.7499 13.25C16.0815 13.25 16.3994 13.3817 16.6338 13.6161C16.8683 13.8505 16.9999 14.1685 16.9999 14.5C16.9999 14.8315 16.8683 15.1495 16.6338 15.3839C16.3994 15.6183 16.0815 15.75 15.7499 15.75C15.4184 15.75 15.1005 15.6183 14.8661 15.3839C14.6316 15.1495 14.4999 14.8315 14.4999 14.5C14.4999 14.1685 14.6316 13.8505 14.8661 13.6161C15.1005 13.3817 15.4184 13.25 15.7499 13.25ZM14.6099 6C14.921 5.99999 15.2245 6.09672 15.4782 6.27678C15.7318 6.45684 15.9233 6.71133 16.0259 7.005L16.0649 7.136L16.8149 10.136C16.8675 10.3464 16.8739 10.5657 16.8335 10.7788C16.7932 10.9918 16.7071 11.1936 16.5813 11.3702C16.4554 11.5468 16.2928 11.6941 16.1046 11.8018C15.9163 11.9094 15.707 11.975 15.4909 11.994L15.3599 12H8.63995C8.42313 11.9999 8.2089 11.9529 8.01203 11.862C7.81515 11.7712 7.64031 11.6388 7.49955 11.4739C7.35878 11.3089 7.25544 11.1155 7.19664 10.9068C7.13784 10.6981 7.12498 10.4791 7.15895 10.265L7.18495 10.136L7.93495 7.136C8.01042 6.8341 8.17793 6.56314 8.41426 6.36067C8.65059 6.15821 8.94404 6.03426 9.25395 6.006L9.38995 6H14.6099ZM14.2199 8H9.77995L9.27995 10H14.7199L14.2199 8Z" fill="currentColor"/>
</svg>
