<svg width="24" height="24" viewBox="0 0 24 24" fill="none" xmlns="http://www.w3.org/2000/svg">
<path fill-rule="evenodd" clip-rule="evenodd" d="M21 18C21.2652 18 21.5196 18.1054 21.7071 18.2929C21.8946 18.4804 22 18.7348 22 19C22 19.2652 21.8946 19.5196 21.7071 19.7071C21.5196 19.8946 21.2652 20 21 20H2.00001C1.73479 20 1.48044 19.8946 1.2929 19.7071C1.10536 19.5196 1.00001 19.2652 1.00001 19C1.00001 18.7348 1.10536 18.4804 1.2929 18.2929C1.48044 18.1054 1.73479 18 2.00001 18H21ZM12 5C15.224 5 17.942 6.075 19.868 7.589C21.759 9.075 23 11.085 23 13C23 13.842 22.742 14.56 22.287 15.14C21.844 15.706 21.253 16.09 20.651 16.354C19.465 16.872 18.054 17 17 17H2.99401C2.73168 16.9999 2.47196 16.948 2.2297 16.8474C1.98745 16.7467 1.76742 16.5993 1.5822 16.4136C1.39699 16.2278 1.25024 16.0073 1.15033 15.7648C1.05043 15.5222 0.999349 15.2623 1.00001 15V7C1.00001 5.899 1.89001 5 2.99801 5H12ZM20.817 12H3.00001V15H17C17.946 15 19.035 14.878 19.85 14.521C20.247 14.347 20.531 14.138 20.713 13.906C20.883 13.69 21 13.408 21 13C21 12.694 20.94 12.356 20.817 12ZM7.00001 7H3.00001V10H7.00001V7ZM12 7H9.00001V10H13V7.04C12.674 7.014 12.34 7 12 7ZM15 7.383V10H19.551C19.2663 9.6975 18.9591 9.41703 18.632 9.161C17.67 8.405 16.442 7.766 15 7.383Z" fill="currentColor"/>
</svg>
