<svg width="24" height="24" viewBox="0 0 24 24" fill="none" xmlns="http://www.w3.org/2000/svg">
<path fill-rule="evenodd" clip-rule="evenodd" d="M17 2C18.0262 2 19.0132 2.39444 19.7568 3.10172C20.5004 3.80901 20.9437 4.77504 20.995 5.8L21 6V15C20.9998 15.8757 20.7125 16.7271 20.182 17.4238C19.6515 18.1205 18.9071 18.624 18.063 18.857L17.873 18.904L19.6 20.2C19.8037 20.3525 19.9416 20.577 19.9855 20.8276C20.0295 21.0783 19.9763 21.3362 19.8367 21.549C19.6971 21.7618 19.4817 21.9133 19.2342 21.9728C18.9868 22.0322 18.726 21.9951 18.505 21.869L18.4 21.8L14.667 19H9.333L5.6 21.8C5.39657 21.9525 5.14268 22.0218 4.88998 21.9938C4.63728 21.9657 4.40475 21.8425 4.23966 21.6492C4.07458 21.4558 3.98934 21.2068 4.0013 20.9529C4.01325 20.6989 4.12149 20.459 4.304 20.282L4.4 20.2L6.127 18.904C5.27391 18.7129 4.50686 18.2478 3.94309 17.5796C3.37932 16.9115 3.04983 16.0771 3.005 15.204L3 15V6C3 4.97376 3.39444 3.98677 4.10172 3.24319C4.80901 2.4996 5.77504 2.05631 6.8 2.005L7 2H17ZM17 4H7C6.46957 4 5.96086 4.21071 5.58579 4.58579C5.21071 4.96086 5 5.46957 5 6V15C5 15.5304 5.21071 16.0391 5.58579 16.4142C5.96086 16.7893 6.46957 17 7 17H17C17.5304 17 18.0391 16.7893 18.4142 16.4142C18.7893 16.0391 19 15.5304 19 15V6C19 5.46957 18.7893 4.96086 18.4142 4.58579C18.0391 4.21071 17.5304 4 17 4ZM8.25 13.25C8.58152 13.25 8.89946 13.3817 9.13388 13.6161C9.3683 13.8505 9.5 14.1685 9.5 14.5C9.5 14.8315 9.3683 15.1495 9.13388 15.3839C8.89946 15.6183 8.58152 15.75 8.25 15.75C7.91848 15.75 7.60054 15.6183 7.36612 15.3839C7.1317 15.1495 7 14.8315 7 14.5C7 14.1685 7.1317 13.8505 7.36612 13.6161C7.60054 13.3817 7.91848 13.25 8.25 13.25ZM15.75 13.25C16.0815 13.25 16.3995 13.3817 16.6339 13.6161C16.8683 13.8505 17 14.1685 17 14.5C17 14.8315 16.8683 15.1495 16.6339 15.3839C16.3995 15.6183 16.0815 15.75 15.75 15.75C15.4185 15.75 15.1005 15.6183 14.8661 15.3839C14.6317 15.1495 14.5 14.8315 14.5 14.5C14.5 14.1685 14.6317 13.8505 14.8661 13.6161C15.1005 13.3817 15.4185 13.25 15.75 13.25ZM16.5 6C16.8729 6.00002 17.2324 6.13892 17.5084 6.38962C17.7844 6.64032 17.9572 6.98484 17.993 7.356L18 7.5V10.5C18 10.8729 17.8611 11.2324 17.6104 11.5084C17.3597 11.7844 17.0152 11.9572 16.644 11.993L16.5 12H7.5C7.12712 12 6.76761 11.8611 6.49158 11.6104C6.21555 11.3597 6.0428 11.0152 6.007 10.644L6 10.5V7.5C6.00002 7.12712 6.13892 6.76761 6.38962 6.49158C6.64032 6.21555 6.98484 6.0428 7.356 6.007L7.5 6H16.5ZM16 8H8V10H16V8Z" fill="currentColor"/>
</svg>
