<svg width="24" height="24" viewBox="0 0 24 24" fill="none" xmlns="http://www.w3.org/2000/svg">
<path d="M20 14C20.2549 14.0003 20.5 14.0979 20.6854 14.2728C20.8707 14.4478 20.9822 14.6869 20.9972 14.9414C21.0121 15.1958 20.9293 15.4464 20.7657 15.6418C20.6021 15.8373 20.3701 15.9629 20.117 15.993L20 16H6.414L8.707 18.293C8.88635 18.4729 8.99047 18.7144 8.99823 18.9684C9.00598 19.2223 8.91678 19.4697 8.74875 19.6603C8.58072 19.8508 8.34645 19.9703 8.09352 19.9944C7.8406 20.0185 7.58799 19.9454 7.387 19.79L7.293 19.707L3.463 15.877C2.798 15.213 3.224 14.094 4.126 14.006L4.241 14H20ZM15.293 4.29298C15.4652 4.12081 15.6943 4.01738 15.9373 4.00209C16.1803 3.98681 16.4206 4.06073 16.613 4.20998L16.707 4.29298L20.537 8.12298C21.202 8.78698 20.776 9.90598 19.874 9.99398L19.759 9.99998H4C3.74512 9.9997 3.49997 9.9021 3.31463 9.72714C3.12929 9.55217 3.01776 9.31303 3.00283 9.05859C2.98789 8.80415 3.07067 8.5536 3.23426 8.35815C3.39785 8.1627 3.6299 8.03709 3.883 8.00698L4 7.99998H17.586L15.293 5.70698C15.1055 5.51946 15.0002 5.26515 15.0002 4.99998C15.0002 4.73482 15.1055 4.48051 15.293 4.29298Z" fill="currentColor"/>
</svg>
