<svg width="24" height="24" viewBox="0 0 24 24" fill="none" xmlns="http://www.w3.org/2000/svg">
<path fill-rule="evenodd" clip-rule="evenodd" d="M11.5 8.99999C11.7652 8.99999 12.0196 8.89463 12.2071 8.70709C12.3946 8.51956 12.5 8.2652 12.5 7.99999C12.5 7.73477 12.3946 7.48042 12.2071 7.29288C12.0196 7.10535 11.7652 6.99999 11.5 6.99999H9V5.20699C9 3.86999 7.384 3.19999 6.44 4.14699L1.644 8.93799C1.50461 9.07729 1.39403 9.24269 1.31859 9.42474C1.24315 9.60679 1.20432 9.80192 1.20432 9.99899C1.20432 10.1961 1.24315 10.3912 1.31859 10.5732C1.39403 10.7553 1.50461 10.9207 1.644 11.06L6.438 15.853C7.383 16.798 8.998 16.128 8.998 14.792V13H16C16.2652 13 16.5196 12.8946 16.7071 12.7071C16.8946 12.5196 17 12.2652 17 12V10.413L20.586 14L17 17.586V16C17 15.7348 16.8946 15.4804 16.7071 15.2929C16.5196 15.1053 16.2652 15 16 15H12.5C12.2348 15 11.9804 15.1053 11.7929 15.2929C11.6054 15.4804 11.5 15.7348 11.5 16C11.5 16.2652 11.6054 16.5196 11.7929 16.7071C11.9804 16.8946 12.2348 17 12.5 17H15V18.793C15 20.129 16.615 20.798 17.56 19.853L22.354 15.06C22.6352 14.7787 22.7932 14.3972 22.7932 13.9995C22.7932 13.6017 22.6352 13.2203 22.354 12.939L17.56 8.14599C16.615 7.19999 15 7.86999 15 9.20599V11H8C7.73478 11 7.48043 11.1053 7.29289 11.2929C7.10536 11.4804 7 11.7348 7 12V13.586L3.413 9.99999L7 6.41399V7.99999C7 8.2652 7.10536 8.51956 7.29289 8.70709C7.48043 8.89463 7.73478 8.99999 8 8.99999H11.5Z" fill="currentColor"/>
</svg>
