<svg width="24" height="24" viewBox="0 0 24 24" fill="none" xmlns="http://www.w3.org/2000/svg">
<path d="M20.0003 10C20.2452 10 20.4816 10.09 20.6647 10.2527C20.8477 10.4155 20.9646 10.6397 20.9933 10.883L21.0003 11V16C21.0003 17.0262 20.6059 18.0132 19.8986 18.7568C19.1913 19.5004 18.2253 19.9437 17.2003 19.995L17.0003 20H4.0003C3.81382 20.0001 3.63103 19.948 3.47259 19.8496C3.31416 19.7513 3.18637 19.6106 3.10368 19.4434C3.021 19.2763 2.98669 19.0893 3.00465 18.9037C3.0226 18.7181 3.0921 18.5412 3.2053 18.393L3.2933 18.293L6.2933 15.293C6.47326 15.1137 6.71473 15.0095 6.96868 15.0018C7.22263 14.994 7.47001 15.0832 7.66058 15.2512C7.85114 15.4193 7.9706 15.6536 7.9947 15.9065C8.01879 16.1594 7.94571 16.412 7.7903 16.613L7.7073 16.707L6.4143 18H17.0003C17.5049 18.0002 17.9909 17.8096 18.3608 17.4665C18.7308 17.1234 18.9575 16.6532 18.9953 16.15L19.0003 16V11C19.0003 10.7348 19.1057 10.4804 19.2932 10.2929C19.4807 10.1054 19.7351 10 20.0003 10ZM20.0003 4C20.1868 3.99994 20.3696 4.05203 20.528 4.15039C20.6864 4.24874 20.8142 4.38944 20.8969 4.55658C20.9796 4.72373 21.0139 4.91067 20.996 5.09629C20.978 5.2819 20.9085 5.4588 20.7953 5.607L20.7073 5.707L17.7073 8.707C17.5273 8.88635 17.2859 8.99047 17.0319 8.99823C16.778 9.00598 16.5306 8.91679 16.34 8.74875C16.1495 8.58072 16.03 8.34645 16.0059 8.09353C15.9818 7.8406 16.0549 7.58799 16.2103 7.387L16.2933 7.293L17.5863 6H7.0003C6.49589 6.00009 6.01015 6.19077 5.64038 6.53384C5.27061 6.8769 5.04413 7.34702 5.0063 7.85L5.0003 8V13C5.00002 13.2549 4.90242 13.5 4.72745 13.6854C4.55248 13.8707 4.31335 13.9822 4.0589 13.9972C3.80446 14.0121 3.55392 13.9293 3.35847 13.7657C3.16301 13.6021 3.0374 13.3701 3.0073 13.117L3.0003 13V8C3.0003 6.97376 3.39473 5.98677 4.10202 5.24319C4.80931 4.4996 5.77534 4.05631 6.8003 4.005L7.0003 4H20.0003Z" fill="currentColor"/>
</svg>
