<svg width="24" height="24" viewBox="0 0 24 24" fill="none" xmlns="http://www.w3.org/2000/svg">
<path fill-rule="evenodd" clip-rule="evenodd" d="M9.00007 3C9.26529 3 9.51964 3.10536 9.70718 3.29289C9.89472 3.48043 10.0001 3.73478 10.0001 4V5H13.0001C13.2653 5 13.5196 5.10536 13.7072 5.29289C13.8947 5.48043 14.0001 5.73478 14.0001 6C14.0001 6.26522 13.8947 6.51957 13.7072 6.70711C13.5196 6.89464 13.2653 7 13.0001 7H12.9451C12.7221 9.032 11.8291 10.99 10.4001 12.688C11.0563 13.2545 11.7667 13.7549 12.5211 14.182L14.5881 9.59C14.6671 9.41428 14.7952 9.26513 14.957 9.16049C15.1188 9.05586 15.3074 9.00019 15.5001 9.00019C15.6928 9.00019 15.8813 9.05586 16.0431 9.16049C16.2049 9.26513 16.333 9.41428 16.4121 9.59L20.9121 19.59C21.0169 19.8313 21.0225 20.1041 20.9276 20.3494C20.8327 20.5948 20.6449 20.7928 20.405 20.9007C20.1651 21.0085 19.8923 21.0175 19.6458 20.9257C19.3993 20.8338 19.1989 20.6486 19.0881 20.41L18.0031 18H12.9961L11.9121 20.41C11.8012 20.6486 11.6008 20.8338 11.3543 20.9257C11.1078 21.0175 10.8351 21.0085 10.5952 20.9007C10.3552 20.7928 10.1675 20.5948 10.0726 20.3494C9.97765 20.1041 9.98322 19.8313 10.0881 19.59L11.6981 16.014C10.7001 15.461 9.79707 14.824 8.99807 14.119C7.71107 15.255 6.15007 16.217 4.37107 16.929C4.12482 17.0275 3.84951 17.0242 3.60572 16.9197C3.36192 16.8153 3.1696 16.6183 3.07107 16.372C2.97255 16.1257 2.97588 15.8504 3.08034 15.6066C3.18479 15.3628 3.38182 15.1705 3.62807 15.072C5.18507 14.449 6.51507 13.631 7.60007 12.69C6.75574 11.6972 6.08682 10.5676 5.62207 9.35C5.52898 9.10163 5.53837 8.82644 5.64817 8.58499C5.75798 8.34354 5.9592 8.15559 6.20757 8.0625C6.45595 7.96941 6.73113 7.9788 6.97258 8.0886C7.21404 8.1984 7.40198 8.39962 7.49507 8.648C7.85462 9.58828 8.36275 10.4648 9.00007 11.244C10.0651 9.921 10.7201 8.458 10.9281 7H4.00007C3.73486 7 3.4805 6.89464 3.29297 6.70711C3.10543 6.51957 3.00007 6.26522 3.00007 6C3.00007 5.73478 3.10543 5.48043 3.29297 5.29289C3.4805 5.10536 3.73486 5 4.00007 5H8.00007V4C8.00007 3.73478 8.10543 3.48043 8.29297 3.29289C8.4805 3.10536 8.73486 3 9.00007 3ZM17.1031 16L15.5001 12.437L13.8981 16H17.1031ZM19.0001 1C19.2087 1.00008 19.412 1.06539 19.5816 1.18679C19.7513 1.30818 19.8787 1.47959 19.9461 1.677L20.0761 2.055C20.2241 2.48875 20.4695 2.88283 20.7935 3.20699C21.1175 3.53115 21.5114 3.77677 21.9451 3.925L22.3231 4.054C22.5203 4.12157 22.6914 4.24908 22.8126 4.41869C22.9338 4.58831 22.9989 4.79155 22.9989 5C22.9989 5.20845 22.9338 5.41169 22.8126 5.58131C22.6914 5.75092 22.5203 5.87843 22.3231 5.946L21.9451 6.076C21.5113 6.224 21.1172 6.46941 20.7931 6.79339C20.4689 7.11738 20.2233 7.51133 20.0751 7.945L19.9461 8.323C19.8785 8.5202 19.751 8.69134 19.5814 8.81252C19.4118 8.93369 19.2085 8.99883 19.0001 8.99883C18.7916 8.99883 18.5884 8.93369 18.4188 8.81252C18.2492 8.69134 18.1216 8.5202 18.0541 8.323L17.9241 7.945C17.7761 7.51125 17.5307 7.11717 17.2067 6.79301C16.8827 6.46885 16.4887 6.22323 16.0551 6.075L15.6771 5.946C15.4799 5.87843 15.3087 5.75092 15.1876 5.58131C15.0664 5.41169 15.0012 5.20845 15.0012 5C15.0012 4.79155 15.0664 4.58831 15.1876 4.41869C15.3087 4.24908 15.4799 4.12157 15.6771 4.054L16.0551 3.924C16.4888 3.776 16.8829 3.53059 17.2071 3.20661C17.5312 2.88262 17.7768 2.48867 17.9251 2.055L18.0541 1.677C18.1215 1.47959 18.2489 1.30818 18.4185 1.18679C18.5881 1.06539 18.7915 1.00008 19.0001 1ZM19.0001 4.196C18.7635 4.49366 18.4937 4.7634 18.1961 5C18.4941 5.236 18.7631 5.506 19.0001 5.804C19.2361 5.506 19.5061 5.236 19.8041 5C19.5064 4.7634 19.2367 4.49366 19.0001 4.196Z" fill="currentColor"/>
</svg>
