<svg width="24" height="24" viewBox="0 0 24 24" fill="none" xmlns="http://www.w3.org/2000/svg">
<path d="M17 11C17.2652 11 17.5196 11.1054 17.7071 11.2929C17.8946 11.4804 18 11.7348 18 12V13H19.5C19.8978 13 20.2794 13.158 20.5607 13.4393C20.842 13.7206 21 14.1022 21 14.5V17.5C21 17.8978 20.842 18.2794 20.5607 18.5607C20.2794 18.842 19.8978 19 19.5 19H18V20C18 20.2652 17.8946 20.5196 17.7071 20.7071C17.5196 20.8946 17.2652 21 17 21C16.7348 21 16.4804 20.8946 16.2929 20.7071C16.1054 20.5196 16 20.2652 16 20V19H14.5C14.1022 19 13.7206 18.842 13.4393 18.5607C13.158 18.2794 13 17.8978 13 17.5V14.5C13 14.1022 13.158 13.7206 13.4393 13.4393C13.7206 13.158 14.1022 13 14.5 13H16V12C16 11.7348 16.1054 11.4804 16.2929 11.2929C16.4804 11.1054 16.7348 11 17 11ZM5 15C5.26522 15 5.51957 15.1054 5.70711 15.2929C5.89464 15.4804 6 15.7348 6 16V17C6 17.2652 6.10536 17.5196 6.29289 17.7071C6.48043 17.8946 6.73478 18 7 18H10C10.2652 18 10.5196 18.1054 10.7071 18.2929C10.8946 18.4804 11 18.7348 11 19C11 19.2652 10.8946 19.5196 10.7071 19.7071C10.5196 19.8946 10.2652 20 10 20H7C6.20435 20 5.44129 19.6839 4.87868 19.1213C4.31607 18.5587 4 17.7956 4 17V16C4 15.7348 4.10536 15.4804 4.29289 15.2929C4.48043 15.1054 4.73478 15 5 15ZM19 15H18V17H19V15ZM16 15H15V17H16V15ZM9.5 3C9.76522 3 10.0196 3.10536 10.2071 3.29289C10.3946 3.48043 10.5 3.73478 10.5 4C10.5 4.26522 10.3946 4.51957 10.2071 4.70711C10.0196 4.89464 9.76522 5 9.5 5H5V7H9C9.26522 7 9.51957 7.10536 9.70711 7.29289C9.89464 7.48043 10 7.73478 10 8C10 8.26522 9.89464 8.51957 9.70711 8.70711C9.51957 8.89464 9.26522 9 9 9H5V11H10C10.2652 11 10.5196 11.1054 10.7071 11.2929C10.8946 11.4804 11 11.7348 11 12C11 12.2652 10.8946 12.5196 10.7071 12.7071C10.5196 12.8946 10.2652 13 10 13H4.1C3.80826 13 3.52847 12.8841 3.32218 12.6778C3.11589 12.4715 3 12.1917 3 11.9V4.1C3 3.80826 3.11589 3.52847 3.32218 3.32218C3.52847 3.11589 3.80826 3 4.1 3H9.5ZM17 4C17.7956 4 18.5587 4.31607 19.1213 4.87868C19.6839 5.44129 20 6.20435 20 7V9C20 9.26522 19.8946 9.51957 19.7071 9.70711C19.5196 9.89464 19.2652 10 19 10C18.7348 10 18.4804 9.89464 18.2929 9.70711C18.1054 9.51957 18 9.26522 18 9V7C18 6.73478 17.8946 6.48043 17.7071 6.29289C17.5196 6.10536 17.2652 6 17 6H14C13.7348 6 13.4804 5.89464 13.2929 5.70711C13.1054 5.51957 13 5.26522 13 5C13 4.73478 13.1054 4.48043 13.2929 4.29289C13.4804 4.10536 13.7348 4 14 4H17Z" fill="currentColor"/>
</svg>
