<svg width="24" height="24" viewBox="0 0 24 24" fill="none" xmlns="http://www.w3.org/2000/svg">
<path fill-rule="evenodd" clip-rule="evenodd" d="M15 11.5C15 11.7652 15.1054 12.0196 15.2929 12.2071C15.4804 12.3947 15.7348 12.5 16 12.5C16.2652 12.5 16.5196 12.3947 16.7071 12.2071C16.8946 12.0196 17 11.7652 17 11.5V9.00003H18.793C20.129 9.00003 20.798 7.38403 19.853 6.44003L15.06 1.64403C14.9207 1.50464 14.7553 1.39406 14.5732 1.31862C14.3912 1.24318 14.1961 1.20435 13.999 1.20435C13.8019 1.20435 13.6068 1.24318 13.4248 1.31862C13.2427 1.39406 13.0773 1.50464 12.938 1.64403L8.147 6.44003C7.2 7.38403 7.87 9.00003 9.206 9.00003H11V16C11 16.2652 11.1054 16.5196 11.2929 16.7071C11.4804 16.8947 11.7348 17 12 17H13.587L10 20.586L6.414 17H8C8.26522 17 8.51957 16.8947 8.70711 16.7071C8.89465 16.5196 9 16.2652 9 16V12.5C9 12.2348 8.89465 11.9805 8.70711 11.7929C8.51957 11.6054 8.26522 11.5 8 11.5C7.73479 11.5 7.48043 11.6054 7.2929 11.7929C7.10536 11.9805 7 12.2348 7 12.5V15H5.207C3.871 15 3.201 16.615 4.147 17.56L8.939 22.354C9.0783 22.4934 9.2437 22.604 9.42576 22.6794C9.60781 22.7549 9.80294 22.7937 10 22.7937C10.1971 22.7937 10.3922 22.7549 10.5743 22.6794C10.7563 22.604 10.9217 22.4934 11.061 22.354L15.854 17.56C16.799 16.615 16.129 15 14.793 15H13V12C13.0002 11.991 13.0002 11.982 13 11.973V8.00003C13 7.73481 12.8946 7.48046 12.7071 7.29292C12.5196 7.10538 12.2652 7.00003 12 7.00003H10.413L14 3.41303L17.586 7.00003H16C15.7348 7.00003 15.4804 7.10538 15.2929 7.29292C15.1054 7.48046 15 7.73481 15 8.00003V11.5Z" fill="currentColor"/>
</svg>
