<svg width="24" height="24" viewBox="0 0 24 24" fill="none" xmlns="http://www.w3.org/2000/svg">
<path d="M8.12201 3.464C8.78701 2.798 9.90601 3.224 9.99401 4.126L10 4.241V20C9.99972 20.2549 9.90213 20.5 9.72716 20.6854C9.55219 20.8707 9.31305 20.9822 9.05861 20.9972C8.80417 21.0121 8.55363 20.9293 8.35817 20.7657C8.16272 20.6021 8.03711 20.3701 8.00701 20.117L8.00001 20V6.414L5.70701 8.707C5.52705 8.88635 5.28557 8.99047 5.03162 8.99823C4.77767 9.00598 4.53029 8.91679 4.33973 8.74875C4.14916 8.58072 4.0297 8.34645 4.00561 8.09353C3.98151 7.8406 4.05459 7.58799 4.21001 7.387L4.29301 7.293L8.12301 3.463L8.12201 3.464ZM15 3C15.2449 3.00003 15.4813 3.08996 15.6644 3.25272C15.8474 3.41547 15.9643 3.63975 15.993 3.883L16 4V17.586L18.293 15.293C18.473 15.1137 18.7144 15.0095 18.9684 15.0018C19.2223 14.994 19.4697 15.0832 19.6603 15.2512C19.8509 15.4193 19.9703 15.6536 19.9944 15.9065C20.0185 16.1594 19.9454 16.412 19.79 16.613L19.707 16.707L15.877 20.537C15.213 21.202 14.094 20.776 14.006 19.874L14 19.759V4C14 3.73478 14.1054 3.48043 14.2929 3.29289C14.4804 3.10536 14.7348 3 15 3Z" fill="currentColor"/>
</svg>
