<svg width="24" height="24" viewBox="0 0 24 24" fill="none" xmlns="http://www.w3.org/2000/svg">
<path fill-rule="evenodd" clip-rule="evenodd" d="M6.846 17.652C8.112 18.442 9.616 18.832 11 18.955V21C11 21.2652 11.1054 21.5196 11.2929 21.7071C11.4804 21.8946 11.7348 22 12 22C12.2652 22 12.5196 21.8946 12.7071 21.7071C12.8946 21.5196 13 21.2652 13 21V18.955C14.383 18.831 15.888 18.441 17.154 17.652C18.783 16.637 20 14.96 20 12.5C20 9.916 18.588 7.32 17.02 5.425C16.224 4.463 15.35 3.635 14.521 3.04C13.741 2.479 12.833 2 12 2C11.167 2 10.26 2.479 9.479 3.04C8.649 3.636 7.775 4.463 6.979 5.425C5.413 7.319 4 9.916 4 12.5C4 14.96 5.217 16.637 6.846 17.652ZM8.52 6.7C7.088 8.43 6 10.584 6 12.5C6 14.182 6.783 15.256 7.904 15.955C8.797 16.511 9.911 16.827 11 16.945V14.415L9.293 12.707C9.19749 12.6148 9.12131 12.5044 9.0689 12.3824C9.01649 12.2604 8.9889 12.1292 8.98775 11.9964C8.9866 11.8636 9.0119 11.7319 9.06218 11.609C9.11246 11.4861 9.18671 11.3745 9.28061 11.2806C9.3745 11.1867 9.48615 11.1125 9.60905 11.0622C9.73194 11.0119 9.86362 10.9866 9.9964 10.9877C10.1292 10.9889 10.2604 11.0165 10.3824 11.0689C10.5044 11.1213 10.6148 11.1975 10.707 11.293L11.872 12.458L13.686 9.918C13.7624 9.8111 13.859 9.7203 13.9705 9.65076C14.082 9.58122 14.206 9.53432 14.3356 9.51273C14.4652 9.49114 14.5977 9.49529 14.7257 9.52493C14.8537 9.55458 14.9746 9.60914 15.0815 9.6855C15.1884 9.76186 15.2792 9.85853 15.3487 9.96999C15.4183 10.0815 15.4652 10.2055 15.4868 10.3351C15.5084 10.4647 15.5042 10.5972 15.4746 10.7252C15.4449 10.8532 15.3904 10.9741 15.314 11.081L13 14.321V16.945C14.09 16.827 15.203 16.511 16.096 15.955C17.217 15.255 18 14.182 18 12.5C18 10.584 16.912 8.43 15.48 6.7C14.775 5.85 14.024 5.145 13.354 4.664C12.634 4.146 12.167 4 12 4C11.833 4 11.366 4.146 10.646 4.664C9.976 5.145 9.225 5.849 8.52 6.7Z" fill="currentColor"/>
</svg>
