<svg width="24" height="24" viewBox="0 0 24 24" fill="none" xmlns="http://www.w3.org/2000/svg">
<path fill-rule="evenodd" clip-rule="evenodd" d="M12.7073 2.293L16.7073 6.293C16.8589 6.44464 16.9577 6.641 16.9893 6.85311C17.0208 7.06522 16.9833 7.28183 16.8823 7.471C16.6353 7.934 16.2493 8.246 15.8723 8.458L18.7073 11.293C18.8947 11.4805 19.0001 11.7348 19.0001 12C19.0001 12.2652 18.8947 12.5195 18.7073 12.707C18.2293 13.185 17.6253 13.477 17.0733 13.659L19.7073 16.293C19.8278 16.4136 19.9156 16.563 19.9621 16.7271C20.0086 16.8912 20.0124 17.0644 19.9732 17.2303C19.9339 17.3963 19.8528 17.5494 19.7377 17.6752C19.6225 17.801 19.4771 17.8952 19.3153 17.949C18.6233 18.178 17.9103 18.338 17.1963 18.481C16.6543 18.589 16.0213 18.697 15.3163 18.787L15.9493 20.684C15.9993 20.8343 16.013 20.9944 15.989 21.151C15.9651 21.3077 15.9043 21.4564 15.8116 21.5849C15.7189 21.7134 15.597 21.8181 15.456 21.8903C15.3149 21.9624 15.1587 22 15.0003 22H9.00027C8.84182 22 8.68563 21.9624 8.54456 21.8903C8.4035 21.8181 8.28161 21.7134 8.18893 21.5849C8.09625 21.4564 8.03544 21.3077 8.0115 21.151C7.98757 20.9944 8.0012 20.8343 8.05127 20.684L8.68427 18.787C8.05419 18.7072 7.42713 18.6052 6.80427 18.481C6.26952 18.3744 5.73884 18.2483 5.21327 18.103L4.68327 17.949C4.52159 17.895 4.37639 17.8006 4.26147 17.6747C4.14654 17.5488 4.0657 17.3956 4.02663 17.2297C3.98755 17.0638 3.99154 16.8906 4.03821 16.7267C4.08487 16.5628 4.17268 16.4135 4.29327 16.293L6.92727 13.659C6.37527 13.478 5.77127 13.185 5.29327 12.707C5.1058 12.5195 5.00048 12.2652 5.00048 12C5.00048 11.7348 5.1058 11.4805 5.29327 11.293L8.12827 8.458C7.75127 8.246 7.36527 7.934 7.11827 7.471C7.01728 7.28183 6.97978 7.06522 7.01129 6.85311C7.0428 6.641 7.14165 6.44464 7.29327 6.293L11.2933 2.293C11.4808 2.10553 11.7351 2.00021 12.0003 2.00021C12.2654 2.00021 12.5197 2.10553 12.7073 2.293ZM13.2693 18.968C12.5622 19.0033 11.8539 19.0093 11.1463 18.986L10.7313 18.968L10.3873 20H13.6133L13.2693 18.968ZM12.0003 4.414L9.52827 6.886L9.62827 6.915L9.81527 6.958L10.0913 7.004C10.4743 7.044 10.8083 7.294 10.9413 7.659C11.006 7.83785 11.0183 8.03145 10.9769 8.21707C10.9354 8.4027 10.8419 8.57265 10.7073 8.707L7.63027 11.784C8.05327 11.914 8.53527 12 9.00227 12C9.19985 12.0004 9.39287 12.0594 9.55698 12.1694C9.72108 12.2795 9.84891 12.4356 9.92433 12.6183C9.99976 12.8009 10.0194 13.0018 9.98076 13.1955C9.94213 13.3893 9.84696 13.5673 9.70727 13.707L6.94727 16.468L7.46127 16.571C8.63927 16.793 10.2183 17 12.0003 17C13.4285 16.9973 14.8539 16.8708 16.2603 16.622L16.8043 16.519L17.0543 16.468L14.2933 13.708C14.1606 13.5753 14.0679 13.408 14.0258 13.2252C13.9838 13.0423 13.994 12.8513 14.0553 12.674C14.1166 12.4967 14.2266 12.3402 14.3727 12.2224C14.5187 12.1047 14.695 12.0303 14.8813 12.008L14.9993 12C15.464 11.9911 15.9253 11.9184 16.3703 11.784L13.2933 8.707C13.1666 8.58043 13.0763 8.42218 13.0317 8.24879C12.9871 8.07539 12.9899 7.8932 13.0398 7.72125C13.0896 7.54929 13.1848 7.39388 13.3152 7.27123C13.4456 7.14858 13.6066 7.0632 13.7813 7.024L14.1043 6.974L14.2763 6.938C14.3383 6.924 14.4053 6.907 14.4723 6.886L12.0003 4.414Z" fill="currentColor"/>
</svg>
