<svg width="24" height="24" viewBox="0 0 24 24" fill="none" xmlns="http://www.w3.org/2000/svg">
<path fill-rule="evenodd" clip-rule="evenodd" d="M12 4C8.75 4 6 6.844 6 10.5C6 13.774 8.205 16.397 11 16.91V14.414L9.293 12.707C9.19749 12.6148 9.12131 12.5044 9.0689 12.3824C9.01649 12.2604 8.9889 12.1292 8.98775 11.9964C8.9866 11.8636 9.0119 11.7319 9.06218 11.609C9.11246 11.4861 9.18671 11.3745 9.28061 11.2806C9.3745 11.1867 9.48615 11.1125 9.60905 11.0622C9.73194 11.0119 9.86362 10.9866 9.9964 10.9877C10.1292 10.9889 10.2604 11.0165 10.3824 11.0689C10.5044 11.1213 10.6148 11.1975 10.707 11.293L11.872 12.458L13.686 9.918C13.7624 9.8111 13.859 9.7203 13.9705 9.65076C14.082 9.58122 14.206 9.53432 14.3356 9.51273C14.4652 9.49114 14.5977 9.49529 14.7257 9.52493C14.8537 9.55458 14.9746 9.60914 15.0815 9.6855C15.1884 9.76186 15.2792 9.85853 15.3487 9.96999C15.4183 10.0815 15.4652 10.2055 15.4868 10.3351C15.5084 10.4647 15.5042 10.5972 15.4746 10.7252C15.4449 10.8532 15.3904 10.9741 15.314 11.081L13 14.321V16.909C15.795 16.397 18 13.774 18 10.5C18 6.844 15.25 4 12 4ZM4 10.5C4 14.778 7.006 18.41 11 18.935V21C11 21.2652 11.1054 21.5196 11.2929 21.7071C11.4804 21.8946 11.7348 22 12 22C12.2652 22 12.5196 21.8946 12.7071 21.7071C12.8946 21.5196 13 21.2652 13 21V18.935C16.994 18.41 20 14.778 20 10.5C20 5.872 16.482 2 12 2C7.518 2 4 5.872 4 10.5Z" fill="currentColor"/>
</svg>
