<svg width="24" height="24" viewBox="0 0 24 24" fill="none" xmlns="http://www.w3.org/2000/svg">
<path fill-rule="evenodd" clip-rule="evenodd" d="M4.29257 4.793C6.04557 3.04 8.43757 2.55 10.3156 3.176C11.2616 3.492 12.1026 4.102 12.6176 5.004C12.7116 5.167 12.7926 5.337 12.8606 5.514C14.2456 4.777 15.7766 4.68 17.1086 5.192C19.2386 6.012 20.5646 8.274 19.9806 11.196C19.9539 11.3295 19.9003 11.4561 19.823 11.5681C19.7456 11.6802 19.6463 11.7752 19.5309 11.8475C19.4156 11.9198 19.2867 11.9677 19.1522 11.9885C19.0177 12.0092 18.8803 12.0022 18.7486 11.968L18.6286 11.928L13.9046 10.039C14.5396 12.308 14.6046 14.618 14.4976 16.434C14.4587 17.0903 14.3944 17.7448 14.3046 18.396L14.2266 18.92L14.1886 19.153C14.1266 19.518 14.0586 19.883 13.9696 20.243C13.92 20.4404 13.8114 20.6179 13.6583 20.7519C13.5051 20.8859 13.3148 20.97 13.1126 20.993L12.9996 21H9.49957C9.32925 20.9999 9.16177 20.9563 9.01301 20.8734C8.86426 20.7904 8.73915 20.6709 8.64957 20.526C8.38957 20.107 8.53757 19.679 8.71957 19.266L8.88457 18.901C8.90257 18.861 8.91857 18.821 8.93457 18.781L9.07257 18.407C9.27728 17.8304 9.44955 17.2428 9.58857 16.647C9.91057 15.267 10.1146 13.567 9.87157 11.813L9.81257 11.436L5.27957 14.348C5.13841 14.4385 4.97677 14.492 4.8095 14.5037C4.64224 14.5154 4.47472 14.4848 4.32236 14.4148C4.17001 14.3448 4.0377 14.2376 3.9376 14.1031C3.83751 13.9686 3.77285 13.8111 3.74957 13.645C3.37357 10.952 4.46557 8.554 6.31957 7.293L6.44857 7.207L6.57857 7.127L4.66357 6.442C4.50469 6.38531 4.36274 6.28936 4.25091 6.16306C4.13909 6.03676 4.06104 5.88423 4.02401 5.71966C3.98698 5.55509 3.99219 5.38382 4.03914 5.2218C4.0861 5.05978 4.17328 4.91227 4.29257 4.793ZM11.8446 10.132L11.6126 10.281C12.2366 12.811 11.9636 15.269 11.5356 17.102C11.3656 17.836 11.1656 18.48 10.9836 19H12.1846L12.2546 18.593L12.3246 18.114C12.3366 18.029 12.3486 17.941 12.3596 17.85L12.4246 17.277C12.4546 16.976 12.4816 16.654 12.5016 16.317C12.6086 14.485 12.5186 12.233 11.8446 10.132ZM10.4796 8.63C9.34657 8.18 8.27257 8.382 7.44257 8.946C6.68057 9.465 6.06657 10.332 5.80757 11.426L5.75757 11.664L10.4796 8.63ZM13.2546 7.626L18.1106 9.568C18.0226 8.227 17.2656 7.396 16.3906 7.058C15.5056 6.718 14.3256 6.814 13.2546 7.626ZM7.18057 5.217L11.0986 6.617C11.0635 6.39913 10.99 6.18921 10.8816 5.997C10.6466 5.585 10.2376 5.258 9.68357 5.074C8.97357 4.837 8.06657 4.854 7.18057 5.217Z" fill="currentColor"/>
</svg>
