<svg width="24" height="24" viewBox="0 0 24 24" fill="none" xmlns="http://www.w3.org/2000/svg">
<path fill-rule="evenodd" clip-rule="evenodd" d="M19 3C19.5304 3 20.0391 3.21071 20.4142 3.58579C20.7893 3.96086 21 4.46957 21 5V19C21 19.5304 20.7893 20.0391 20.4142 20.4142C20.0391 20.7893 19.5304 21 19 21H5C4.46957 21 3.96086 20.7893 3.58579 20.4142C3.21071 20.0391 3 19.5304 3 19V5C3 4.46957 3.21071 3.96086 3.58579 3.58579C3.96086 3.21071 4.46957 3 5 3H19ZM19 5H5V19H19V5ZM10 6C10.3978 6 10.7794 6.15804 11.0607 6.43934C11.342 6.72064 11.5 7.10218 11.5 7.5V15.5C11.5 15.8978 11.342 16.2794 11.0607 16.5607C10.7794 16.842 10.3978 17 10 17H7.5C7.10218 17 6.72064 16.842 6.43934 16.5607C6.15804 16.2794 6 15.8978 6 15.5V7.5C6 7.10218 6.15804 6.72064 6.43934 6.43934C6.72064 6.15804 7.10218 6 7.5 6H10ZM9.5 8H8V15H9.5V8ZM16.5 6C16.8729 6.00002 17.2324 6.13892 17.5084 6.38962C17.7844 6.64032 17.9572 6.98484 17.993 7.356L18 7.5V10.5C18 10.8729 17.8611 11.2324 17.6104 11.5084C17.3597 11.7844 17.0152 11.9572 16.644 11.993L16.5 12H14C13.6271 12 13.2676 11.8611 12.9916 11.6104C12.7156 11.3597 12.5428 11.0152 12.507 10.644L12.5 10.5V7.5C12.5 7.12712 12.6389 6.76761 12.8896 6.49158C13.1403 6.21555 13.4848 6.0428 13.856 6.007L14 6H16.5ZM16 8H14.5V10H16V8Z" fill="currentColor"/>
</svg>
