<svg width="24" height="24" viewBox="0 0 24 24" fill="none" xmlns="http://www.w3.org/2000/svg">
<path d="M18.586 16H17C16.7348 16 16.4804 16.1053 16.2929 16.2929C16.1054 16.4804 16 16.7348 16 17C16 17.2652 16.1054 17.5196 16.2929 17.7071C16.4804 17.8946 16.7348 18 17 18H21C21.2652 18 21.5196 17.8946 21.7071 17.7071C21.8947 17.5196 22 17.2652 22 17V13C22 12.7348 21.8947 12.4804 21.7071 12.2929C21.5196 12.1053 21.2652 12 21 12C20.7348 12 20.4804 12.1053 20.2929 12.2929C20.1054 12.4804 20 12.7348 20 13V14.586L14.707 9.29298C14.5195 9.10551 14.2652 9.00019 14 9.00019C13.7348 9.00019 13.4805 9.10551 13.293 9.29298L9.50001 13.086L3.70701 7.29298C3.51841 7.11082 3.26581 7.01003 3.00361 7.01231C2.74141 7.01458 2.4906 7.11975 2.30519 7.30516C2.11978 7.49057 2.01461 7.74138 2.01234 8.00358C2.01006 8.26578 2.11085 8.51838 2.29301 8.70698L8.79301 15.207C8.98054 15.3945 9.23485 15.4998 9.50001 15.4998C9.76517 15.4998 10.0195 15.3945 10.207 15.207L14 11.414L18.586 16Z" fill="currentColor"/>
</svg>
