<svg width="24" height="24" viewBox="0 0 24 24" fill="none" xmlns="http://www.w3.org/2000/svg">
<path fill-rule="evenodd" clip-rule="evenodd" d="M16.1046 2C16.5693 1.99994 17.0195 2.16172 17.3779 2.45752C17.7363 2.75333 17.9805 3.16471 18.0686 3.621L18.0926 3.779L19.8696 19.779C19.8994 20.0462 19.8749 20.3167 19.7978 20.5743C19.7206 20.8319 19.5924 21.0712 19.4206 21.2781C19.2488 21.485 19.0371 21.6551 18.7981 21.7782C18.5591 21.9014 18.2977 21.9751 18.0296 21.995L17.8826 22H14.8026C14.3756 22.0002 13.9597 21.8637 13.6159 21.6106C13.272 21.3574 13.0182 21.0008 12.8916 20.593L12.8496 20.433L11.9996 16.61L11.1496 20.434C11.0571 20.8508 10.8336 21.2271 10.5119 21.5078C10.1902 21.7885 9.7871 21.9589 9.36158 21.994L9.19758 22H6.11758C5.84859 22.0002 5.58233 21.9461 5.33473 21.841C5.08712 21.7359 4.86327 21.5819 4.67655 21.3883C4.48983 21.1947 4.34409 20.9654 4.24804 20.7141C4.152 20.4629 4.10763 20.1948 4.11758 19.926L4.12858 19.779L5.90658 3.779C5.95784 3.31712 6.16834 2.88751 6.50193 2.56396C6.83551 2.24041 7.27135 2.04313 7.73458 2.006L7.89458 2H16.1046ZM16.4376 7H7.56158L6.11658 20H9.19658L11.0236 11.783C11.0731 11.5611 11.1968 11.3627 11.3742 11.2205C11.5516 11.0783 11.7722 11.0008 11.9996 11.0008C12.227 11.0008 12.4475 11.0783 12.625 11.2205C12.8024 11.3627 12.9261 11.5611 12.9756 11.783L14.8016 20H17.8816L16.4376 7ZM16.1046 4H7.89458L7.78358 5H16.2156L16.1046 4Z" fill="currentColor"/>
</svg>
