<svg width="24" height="24" viewBox="0 0 24 24" fill="none" xmlns="http://www.w3.org/2000/svg">
<path fill-rule="evenodd" clip-rule="evenodd" d="M17.8344 4.62499C18.1425 4.39377 18.5108 4.25642 18.895 4.22946C19.2793 4.20249 19.6631 4.28706 20.0004 4.47299L20.1444 4.56099L21.0544 5.16799C21.2658 5.30982 21.4151 5.52692 21.472 5.77504C21.5288 6.02315 21.4889 6.28361 21.3604 6.50331C21.2318 6.72302 21.0244 6.88544 20.7802 6.95747C20.5361 7.02951 20.2737 7.00573 20.0464 6.89099L19.9464 6.83199L19.0344 6.22499L16.4314 8.17699L16.9994 8.66199L17.5084 9.11199L18.1774 9.72499L18.3674 9.90299C18.6264 10.149 19.0024 10.272 19.3174 10.426C19.7914 10.6576 20.1959 11.0102 20.4902 11.448C20.7845 11.8859 20.958 12.3936 20.9934 12.92L21.0004 13.12V15C21.0005 15.7652 20.7081 16.5015 20.1832 17.0582C19.6582 17.615 18.9403 17.9501 18.1764 17.995L18.0004 18H15.8304C15.6288 18.5703 15.2596 19.0663 14.7712 19.4231C14.2827 19.7799 13.6979 19.9808 13.0933 19.9993C12.4887 20.0179 11.8926 19.8534 11.3832 19.5273C10.8737 19.2012 10.4747 18.7288 10.2384 18.172L10.1704 18H3.00045V16H10.1704C10.3722 15.43 10.7415 14.9343 11.2298 14.5777C11.7181 14.2212 12.3028 14.0205 12.9071 14.0019C13.5115 13.9833 14.1073 14.1477 14.6167 14.4736C15.126 14.7994 15.525 15.2715 15.7614 15.828L15.8284 16H18.0004C18.2454 16 18.4818 15.91 18.6648 15.7473C18.8479 15.5845 18.9648 15.3602 18.9934 15.117L19.0004 15V13.12C19.0003 12.9331 18.9477 12.75 18.8487 12.5914C18.7497 12.4329 18.6083 12.3052 18.4404 12.223L18.0024 12.011C17.6404 11.832 17.2894 11.638 16.9924 11.355L16.5374 10.932L16.2374 10.659L15.8974 10.356L15.5244 10.031L15.1244 9.69099C15.0557 9.63371 14.9867 9.57671 14.9174 9.51999C13.9914 8.75799 13.0094 8.03699 12.2474 7.66399C11.5794 7.33799 10.7134 7.24899 9.88945 7.20399L8.99345 7.16099L8.71545 7.14499C7.08372 7.03794 5.44864 6.99024 3.81345 7.00199L3.01945 7.01199L2.98145 5.01199C4.66995 4.98155 6.35901 5.0109 8.04545 5.09999L9.83545 5.20999C10.9584 5.27999 12.1594 5.39599 13.1254 5.86699C13.5514 6.07599 14.0054 6.35299 14.4594 6.66299L14.7994 6.90099L17.8344 4.62499ZM13.0144 16H12.9864C12.7225 16.0037 12.4707 16.1116 12.286 16.3002C12.1012 16.4889 11.9986 16.7429 12.0005 17.0069C12.0023 17.2709 12.1085 17.5234 12.2958 17.7095C12.4831 17.8955 12.7364 17.9999 13.0004 17.9999C13.2644 17.9999 13.5177 17.8955 13.7051 17.7095C13.8924 17.5234 13.9986 17.2709 14.0004 17.0069C14.0023 16.7429 13.8996 16.4889 13.7149 16.3002C13.5302 16.1116 13.2784 16.0037 13.0144 16Z" fill="currentColor"/>
</svg>
