<svg width="24" height="24" viewBox="0 0 24 24" fill="none" xmlns="http://www.w3.org/2000/svg">
<path fill-rule="evenodd" clip-rule="evenodd" d="M16.95 4.00697C17.1322 3.81837 17.233 3.56576 17.2307 3.30357C17.2284 3.04137 17.1232 2.79056 16.9378 2.60515C16.7524 2.41974 16.5016 2.31457 16.2394 2.31229C15.9772 2.31002 15.7246 2.41081 15.536 2.59297L11.646 6.48197C11.5522 6.5757 11.4251 6.62836 11.2925 6.62836C11.1599 6.62836 11.0328 6.5757 10.939 6.48197L8.464 4.00697C8.27467 3.82918 8.02361 3.73202 7.76392 3.73605C7.50424 3.74009 7.25631 3.84499 7.07259 4.02858C6.88888 4.21216 6.7838 4.46002 6.77958 4.7197C6.77537 4.97938 6.87234 5.23052 7.05 5.41997L8.464 6.83397C8.521 6.89097 8.58 6.94597 8.639 6.99897H5C4.46957 6.99897 3.96086 7.20968 3.58579 7.58475C3.21071 7.95983 3 8.46853 3 8.99897V18.999C3 19.5294 3.21071 20.0381 3.58579 20.4132C3.96086 20.7883 4.46957 20.999 5 20.999H19C19.5304 20.999 20.0391 20.7883 20.4142 20.4132C20.7893 20.0381 21 19.5294 21 18.999V8.99997C21 8.46953 20.7893 7.96083 20.4142 7.58575C20.0391 7.21068 19.5304 6.99997 19 6.99997H13.947C14.0067 6.94678 14.0647 6.89176 14.121 6.83497L16.95 4.00697ZM5 8.99997H19V19H5V8.99997Z" fill="currentColor"/>
</svg>
