<svg width="24" height="24" viewBox="0 0 24 24" fill="none" xmlns="http://www.w3.org/2000/svg">
<path fill-rule="evenodd" clip-rule="evenodd" d="M15.743 2.02997C15.8293 2.05151 15.9124 2.08446 15.99 2.12797C17.437 2.50797 18.603 3.69797 19.41 5.14997C20.412 6.95397 21 9.37697 21 12C21 14.622 20.412 17.046 19.41 18.85C18.603 20.301 17.437 21.491 15.99 21.872C15.9121 21.9155 15.8287 21.9485 15.742 21.97C12.074 22.887 9.905 22.616 8.262 22.01L7.918 21.874C7.80721 21.8281 7.6972 21.7805 7.588 21.731C6.191 21.098 5.05 19.757 4.266 18.093C3.473 16.41 3 14.309 3 12C3 9.69097 3.473 7.58997 4.266 5.90697C5.05 4.24297 6.19 2.90197 7.587 2.26997C7.695 2.22097 7.805 2.17297 7.917 2.12697L8.262 1.99197C9.905 1.38497 12.074 1.11397 15.742 2.03097L15.743 2.02997ZM8.413 4.08997C7.596 4.46097 6.737 5.35297 6.075 6.75997C5.42 8.14797 5 9.95497 5 12C5 14.045 5.42 15.852 6.075 17.24C6.737 18.647 7.595 19.539 8.413 19.91C9.223 20.277 10.235 20.612 11.849 20.56C11.3538 20.0496 10.9303 19.4744 10.59 18.85C9.588 17.046 9 14.622 9 12C9 9.37697 9.588 6.95397 10.59 5.14997C10.9306 4.52551 11.3545 3.95025 11.85 3.43997C10.235 3.38797 9.223 3.72297 8.413 4.08997ZM15 3.99997C14.147 3.99997 13.165 4.63397 12.339 6.12197C11.53 7.57597 11 9.65197 11 12C11 14.348 11.53 16.424 12.339 17.878C13.165 19.366 14.147 20 15 20C15.853 20 16.835 19.366 17.661 17.878C18.47 16.424 19 14.348 19 12C19 9.65197 18.47 7.57597 17.661 6.12197C16.835 4.63397 15.853 3.99997 15 3.99997ZM15 7.99997C15.997 7.99997 16.63 8.78197 16.955 9.43097C17.31 10.141 17.5 11.05 17.5 12C17.5 12.95 17.31 13.86 16.955 14.569C16.631 15.218 15.997 15.999 15 15.999C14.003 15.999 13.37 15.218 13.045 14.569C12.69 13.859 12.5 12.949 12.5 11.999C12.5 11.049 12.69 10.14 13.045 9.43097C13.37 8.78197 14.003 7.99997 15 7.99997ZM15 10.06C14.957 10.11 14.9 10.193 14.834 10.326C14.645 10.703 14.5 11.293 14.5 12C14.5 12.707 14.645 13.297 14.834 13.674C14.9 13.807 14.957 13.89 15 13.94C15.043 13.89 15.1 13.807 15.166 13.674C15.355 13.297 15.5 12.707 15.5 12C15.5 11.293 15.355 10.703 15.166 10.326C15.1214 10.2311 15.0656 10.1418 15 10.06Z" fill="currentColor"/>
</svg>
