<svg width="24" height="24" viewBox="0 0 24 24" fill="none" xmlns="http://www.w3.org/2000/svg">
<path fill-rule="evenodd" clip-rule="evenodd" d="M15.2772 19.208C15.5203 19.1776 15.766 19.2375 15.9679 19.3763C16.1697 19.5151 16.3136 19.7232 16.3722 19.961L16.3932 20.076L16.4932 20.876C16.5241 21.1288 16.4575 21.3838 16.3068 21.5892C16.1562 21.7945 15.9329 21.9346 15.6824 21.9809C15.432 22.0272 15.1734 21.9762 14.9593 21.8384C14.7451 21.7005 14.5917 21.4861 14.5302 21.239L14.5092 21.124L14.4092 20.324C14.3764 20.0611 14.4492 19.7959 14.6118 19.5866C14.7743 19.3774 15.0133 19.2412 15.2762 19.208H15.2772ZM5.48719 18.226C5.70121 18.345 5.86413 18.5384 5.94505 18.7696C6.02596 19.0007 6.01925 19.2535 5.92619 19.48L5.87519 19.585L5.37519 20.485C5.2509 20.7071 5.04663 20.8734 4.80398 20.9501C4.56133 21.0268 4.29857 21.0081 4.06922 20.8979C3.83987 20.7876 3.66119 20.594 3.56959 20.3566C3.47798 20.1192 3.48034 19.8557 3.57619 19.62L3.62619 19.515L4.12619 18.615C4.18984 18.5001 4.27552 18.3988 4.37833 18.317C4.48114 18.2351 4.59906 18.1744 4.72537 18.1382C4.85167 18.1019 4.98387 18.091 5.11442 18.1059C5.24496 18.1208 5.37129 18.1613 5.48619 18.225L5.48719 18.226ZM15.9702 16.76L15.9912 16.875L16.0912 17.675C16.1221 17.9278 16.0555 18.1828 15.9048 18.3882C15.7542 18.5935 15.5309 18.7336 15.2804 18.7799C15.03 18.8262 14.7714 18.7752 14.5573 18.6374C14.3431 18.4995 14.1897 18.2851 14.1282 18.038L14.1072 17.923L14.0072 17.123C13.9762 16.8702 14.0429 16.6152 14.1935 16.4098C14.3442 16.2045 14.5675 16.0644 14.8179 16.0181C15.0684 15.9718 15.327 16.0228 15.5411 16.1606C15.7552 16.2985 15.9087 16.5129 15.9702 16.76ZM7.48419 14.625C7.69839 14.7438 7.86152 14.9372 7.94263 15.1683C8.02373 15.3995 8.01717 15.6524 7.92419 15.879L7.87419 15.984L7.37419 16.884C7.25103 17.1082 7.04663 17.2767 6.80302 17.3548C6.55941 17.433 6.29513 17.4147 6.06455 17.3039C5.83397 17.1931 5.65462 16.9982 5.56341 16.7591C5.4722 16.5201 5.47605 16.2553 5.57419 16.019L5.62519 15.913L6.12519 15.013C6.18901 14.8982 6.27481 14.7971 6.3777 14.7155C6.48058 14.6339 6.59854 14.5734 6.72483 14.5373C6.85112 14.5013 6.98326 14.4905 7.11373 14.5055C7.24419 14.5206 7.36941 14.5612 7.48419 14.625ZM13.5502 3.238L13.7982 3.298L13.8632 3.315C14.7446 3.55122 15.5515 4.00766 16.208 4.64142C16.8645 5.27519 17.3491 6.06547 17.6162 6.938C18.9152 7.654 20.0082 8.494 20.7462 9.401C21.5002 10.327 21.9952 11.474 21.6782 12.656C21.4512 13.504 20.8632 14.134 20.1482 14.571C19.4372 15.005 18.5522 15.283 17.5902 15.435C15.6612 15.739 13.2282 15.568 10.7252 14.898C8.22119 14.227 6.02919 13.158 4.51119 11.93C3.75319 11.318 3.12519 10.635 2.72719 9.904C2.32619 9.167 2.13219 8.327 2.35919 7.48C2.68119 6.28 3.70619 5.53 4.84419 5.108C5.92619 4.706 7.27419 4.529 8.73619 4.558C9.37235 3.96556 10.1425 3.53602 10.9809 3.30615C11.8193 3.07627 12.7008 3.05289 13.5502 3.238ZM7.48719 6.59C6.72019 6.651 6.06219 6.788 5.54019 6.982C4.69019 7.298 4.37319 7.692 4.29119 7.996C4.23219 8.216 4.25319 8.523 4.48419 8.946C4.71819 9.376 5.14019 9.866 5.76819 10.374C7.02219 11.388 8.94419 12.349 11.2422 12.964C13.5402 13.58 15.6852 13.709 17.2782 13.458C18.0762 13.333 18.6872 13.118 19.1052 12.864C19.5152 12.612 19.6872 12.357 19.7462 12.138C19.8262 11.838 19.7532 11.348 19.1952 10.662C18.8392 10.225 18.3292 9.768 17.6812 9.322C17.2912 10.584 16.1972 11.592 14.6372 11.5C12.6876 11.3844 10.7817 10.8741 9.03519 10C7.63819 9.3 7.19319 7.88 7.48719 6.59ZM9.69719 6.47C9.16019 7.188 9.39519 7.942 9.93119 8.21C11.4351 8.96306 13.0762 9.40295 14.7552 9.503C15.3532 9.539 15.9342 9.003 15.8282 8.112C15.7522 7.47411 15.4961 6.87106 15.0898 6.37342C14.6835 5.87579 14.144 5.50415 13.5342 5.302L13.2802 5.229C12.6276 5.05413 11.9375 5.07879 11.2991 5.29981C10.6606 5.52083 10.103 5.92807 9.69819 6.469L9.69719 6.47Z" fill="currentColor"/>
</svg>
