<svg width="24" height="24" viewBox="0 0 24 24" fill="none" xmlns="http://www.w3.org/2000/svg">
<path fill-rule="evenodd" clip-rule="evenodd" d="M12 3C12.2908 2.99981 12.5754 3.08415 12.8191 3.24275C13.0628 3.40135 13.2552 3.62738 13.3728 3.89333C13.4904 4.15928 13.5282 4.45368 13.4816 4.74071C13.4349 5.02773 13.3058 5.295 13.11 5.51L13 5.618V7.071C14.527 7.29195 15.9384 8.01095 17.0148 9.11634C18.0913 10.2217 18.7726 11.6516 18.953 13.184C20.336 13.758 22 14.808 22 16.5C22 18.074 20.574 19.088 19.24 19.691L18.895 19.84L18.726 19.907C16.956 20.596 14.577 21 12 21C9.423 21 7.044 20.596 5.274 19.907L5.104 19.84L4.76 19.691C3.426 19.088 2 18.074 2 16.501C2 14.808 3.664 13.758 5.047 13.184C5.22239 11.6951 5.87086 10.3017 6.89706 9.20869C7.92326 8.1157 9.27306 7.38079 10.748 7.112L11 7.07V5.618C10.7736 5.41547 10.614 5.14897 10.5424 4.85376C10.4707 4.55855 10.4904 4.24854 10.5988 3.96476C10.7072 3.68098 10.8992 3.4368 11.1494 3.26452C11.3996 3.09225 11.6962 3.00001 12 3ZM18.551 15.188L18.221 15.046L18.027 15.154L17.796 15.275C17.7064 15.3199 17.6161 15.3632 17.525 15.405L17.215 15.541C16.118 16 14.375 16.5 12 16.5C9.625 16.5 7.882 16 6.785 15.541L6.475 15.406C6.42815 15.3844 6.38148 15.3624 6.335 15.34L6.084 15.214L5.871 15.098C5.84053 15.0809 5.81019 15.0636 5.78 15.046L5.449 15.188L5.183 15.312C4.63 15.584 4 15.992 4 16.5C4 17.11 4.875 17.575 5.524 17.852L5.899 18.004L5.999 18.043C7.484 18.62 9.605 19 12 19C14.244 19 16.249 18.667 17.715 18.149L18.101 18.004L18.476 17.852C19.125 17.575 20 17.111 20 16.5C20 15.992 19.37 15.584 18.817 15.312L18.551 15.188ZM12 9C10.7688 8.99997 9.58084 9.45422 8.66376 10.2757C7.74668 11.0972 7.16494 12.2282 7.03 13.452L7.241 13.556L7.494 13.671L7.636 13.731L7.952 13.851C8.85 14.176 10.196 14.5 12 14.5C14.03 14.5 15.479 14.09 16.364 13.73L16.638 13.613L16.87 13.503L16.97 13.452C16.8351 12.2282 16.2533 11.0972 15.3362 10.2757C14.4192 9.45422 13.2312 8.99997 12 9Z" fill="currentColor"/>
</svg>
