<svg width="24" height="24" viewBox="0 0 24 24" fill="none" xmlns="http://www.w3.org/2000/svg">
<path fill-rule="evenodd" clip-rule="evenodd" d="M15.607 3.75301L15.634 3.70601C15.7676 3.47821 15.9858 3.31247 16.2411 3.24498C16.4964 3.17748 16.768 3.2137 16.9967 3.34574C17.2254 3.47778 17.3926 3.69491 17.4617 3.94975C17.5309 4.20459 17.4965 4.47646 17.366 4.70601L17.339 4.75301C18.9655 5.95201 20.1414 7.66325 20.6776 9.61147C21.2137 11.5597 21.079 13.6316 20.295 15.494C19.813 16.634 18.485 16.899 17.562 16.366L12.376 13.372L9.21 19H20C20.2652 19 20.5196 19.1054 20.7071 19.2929C20.8946 19.4804 21 19.7348 21 20C21 20.2652 20.8946 20.5196 20.7071 20.7071C20.5196 20.8947 20.2652 21 20 21H4C3.73478 21 3.48043 20.8947 3.29289 20.7071C3.10536 20.5196 3 20.2652 3 20C3 19.7348 3.10536 19.4804 3.29289 19.2929C3.48043 19.1054 3.73478 19 4 19H6.915L10.644 12.372L5.438 9.36601C4.514 8.83301 4.08 7.55001 4.827 6.56301C6.04794 4.95297 7.77496 3.8004 9.73026 3.29072C11.6856 2.78104 13.7555 2.94387 15.607 3.75301ZM17.707 7.94501L17.652 8.32501C17.433 9.64201 16.914 11.17 16.143 12.732L15.945 13.123L18.501 14.599C18.935 13.5119 19.0899 12.3334 18.9514 11.1711C18.8128 10.0088 18.3844 8.89966 17.707 7.94501ZM15.527 5.95901L15.5 5.93801L15.468 5.92401C15.408 5.90601 15.268 5.88801 14.991 5.98101C14.635 6.10001 14.169 6.36601 13.627 6.81301C12.796 7.49601 11.882 8.52001 11.022 9.79301L10.789 10.146L14.211 12.122C14.992 10.601 15.486 9.15601 15.679 7.99801C15.794 7.30401 15.792 6.76801 15.717 6.40101C15.658 6.11401 15.573 6.00101 15.527 5.95901ZM6.5 7.66901L9.056 9.14501C10.085 7.53401 11.241 6.18601 12.357 5.26801C12.457 5.18601 12.557 5.10601 12.659 5.02901C11.4936 4.9196 10.3193 5.10389 9.24346 5.56505C8.16759 6.02621 7.22439 6.74955 6.5 7.66901Z" fill="currentColor"/>
</svg>
