<svg width="24" height="24" viewBox="0 0 24 24" fill="none" xmlns="http://www.w3.org/2000/svg">
<path d="M13.0001 4C13.0001 3.73478 12.8948 3.48043 12.7073 3.29289C12.5197 3.10536 12.2654 3 12.0001 3C11.7349 3 11.4806 3.10536 11.293 3.29289C11.1055 3.48043 11.0001 3.73478 11.0001 4V5C11.0001 5.26522 11.1055 5.51957 11.293 5.70711C11.4806 5.89464 11.7349 6 12.0001 6C12.2654 6 12.5197 5.89464 12.7073 5.70711C12.8948 5.51957 13.0001 5.26522 13.0001 5V4ZM13.0001 9C13.0001 8.73478 12.8948 8.48043 12.7073 8.29289C12.5197 8.10536 12.2654 8 12.0001 8C11.7349 8 11.4806 8.10536 11.293 8.29289C11.1055 8.48043 11.0001 8.73478 11.0001 9V10C11.0001 10.2652 11.1055 10.5196 11.293 10.7071C11.4806 10.8946 11.7349 11 12.0001 11C12.2654 11 12.5197 10.8946 12.7073 10.7071C12.8948 10.5196 13.0001 10.2652 13.0001 10V9ZM12.0001 13C12.2654 13 12.5197 13.1054 12.7073 13.2929C12.8948 13.4804 13.0001 13.7348 13.0001 14V15C13.0001 15.2652 12.8948 15.5196 12.7073 15.7071C12.5197 15.8946 12.2654 16 12.0001 16C11.7349 16 11.4806 15.8946 11.293 15.7071C11.1055 15.5196 11.0001 15.2652 11.0001 15V14C11.0001 13.7348 11.1055 13.4804 11.293 13.2929C11.4806 13.1054 11.7349 13 12.0001 13ZM13.0001 19C13.0001 18.7348 12.8948 18.4804 12.7073 18.2929C12.5197 18.1054 12.2654 18 12.0001 18C11.7349 18 11.4806 18.1054 11.293 18.2929C11.1055 18.4804 11.0001 18.7348 11.0001 19V20C11.0001 20.2652 11.1055 20.5196 11.293 20.7071C11.4806 20.8946 11.7349 21 12.0001 21C12.2654 21 12.5197 20.8946 12.7073 20.7071C12.8948 20.5196 13.0001 20.2652 13.0001 20V19ZM5.58615 11L6.70715 9.879C6.80266 9.78675 6.87884 9.67641 6.93125 9.5544C6.98366 9.4324 7.01125 9.30118 7.0124 9.1684C7.01355 9.03562 6.98825 8.90394 6.93797 8.78105C6.88769 8.65815 6.81344 8.5465 6.71954 8.45261C6.62565 8.35871 6.514 8.28446 6.3911 8.23418C6.26821 8.1839 6.13653 8.1586 6.00375 8.15975C5.87097 8.1609 5.73975 8.18849 5.61775 8.2409C5.49574 8.29331 5.3854 8.36949 5.29315 8.465L2.46515 11.293C2.27768 11.4805 2.17236 11.7348 2.17236 12C2.17236 12.2652 2.27768 12.5195 2.46515 12.707L5.29315 15.536C5.48079 15.7235 5.73523 15.8288 6.0005 15.8287C6.26577 15.8286 6.52014 15.7231 6.70765 15.5355C6.89516 15.3479 7.00045 15.0934 7.00035 14.8281C7.00026 14.5629 6.89479 14.3085 6.70715 14.121L5.58615 13H9.00015C9.26537 13 9.51972 12.8946 9.70726 12.7071C9.89479 12.5196 10.0001 12.2652 10.0001 12C10.0001 11.7348 9.89479 11.4804 9.70726 11.2929C9.51972 11.1054 9.26537 11 9.00015 11H5.58615ZM14.0001 12C14.0001 11.7348 14.1055 11.4804 14.293 11.2929C14.4806 11.1054 14.7349 11 15.0001 11H18.4142L17.2931 9.879C17.1976 9.78675 17.1215 9.67641 17.069 9.5544C17.0166 9.4324 16.9891 9.30118 16.9879 9.1684C16.9867 9.03562 17.012 8.90394 17.0623 8.78105C17.1126 8.65815 17.1869 8.5465 17.2808 8.45261C17.3746 8.35871 17.4863 8.28446 17.6092 8.23418C17.7321 8.1839 17.8638 8.1586 17.9966 8.15975C18.1293 8.1609 18.2605 8.18849 18.3826 8.2409C18.5046 8.29331 18.6149 8.36949 18.7071 8.465L21.5361 11.293C21.7236 11.4805 21.8289 11.7348 21.8289 12C21.8289 12.2652 21.7236 12.5195 21.5361 12.707L18.7071 15.536C18.5195 15.7235 18.2651 15.8288 17.9998 15.8287C17.7345 15.8286 17.4802 15.7231 17.2926 15.5355C17.1051 15.3479 16.9999 15.0934 16.9999 14.8281C17 14.5629 17.1055 14.3085 17.2931 14.121L18.4142 13H15.0001C14.7349 13 14.4806 12.8946 14.293 12.7071C14.1055 12.5196 14.0001 12.2652 14.0001 12Z" fill="currentColor"/>
</svg>
