<svg width="24" height="24" viewBox="0 0 24 24" fill="none" xmlns="http://www.w3.org/2000/svg">
<path d="M4 11C3.73478 11 3.48043 11.1054 3.29289 11.2929C3.10536 11.4805 3 11.7348 3 12C3 12.2652 3.10536 12.5196 3.29289 12.7071C3.48043 12.8947 3.73478 13 4 13H5C5.26522 13 5.51957 12.8947 5.70711 12.7071C5.89464 12.5196 6 12.2652 6 12C6 11.7348 5.89464 11.4805 5.70711 11.2929C5.51957 11.1054 5.26522 11 5 11H4ZM9 11C8.73478 11 8.48043 11.1054 8.29289 11.2929C8.10536 11.4805 8 11.7348 8 12C8 12.2652 8.10536 12.5196 8.29289 12.7071C8.48043 12.8947 8.73478 13 9 13H10C10.2652 13 10.5196 12.8947 10.7071 12.7071C10.8946 12.5196 11 12.2652 11 12C11 11.7348 10.8946 11.4805 10.7071 11.2929C10.5196 11.1054 10.2652 11 10 11H9ZM13 12C13 11.7348 13.1054 11.4805 13.2929 11.2929C13.4804 11.1054 13.7348 11 14 11H15C15.2652 11 15.5196 11.1054 15.7071 11.2929C15.8946 11.4805 16 11.7348 16 12C16 12.2652 15.8946 12.5196 15.7071 12.7071C15.5196 12.8947 15.2652 13 15 13H14C13.7348 13 13.4804 12.8947 13.2929 12.7071C13.1054 12.5196 13 12.2652 13 12ZM19 11C18.7348 11 18.4804 11.1054 18.2929 11.2929C18.1054 11.4805 18 11.7348 18 12C18 12.2652 18.1054 12.5196 18.2929 12.7071C18.4804 12.8947 18.7348 13 19 13H20C20.2652 13 20.5196 12.8947 20.7071 12.7071C20.8946 12.5196 21 12.2652 21 12C21 11.7348 20.8946 11.4805 20.7071 11.2929C20.5196 11.1054 20.2652 11 20 11H19ZM11 18.414L9.879 17.293C9.78675 17.1975 9.67641 17.1213 9.5544 17.0689C9.4324 17.0165 9.30118 16.9889 9.1684 16.9878C9.03562 16.9866 8.90394 17.0119 8.78105 17.0622C8.65815 17.1125 8.5465 17.1867 8.45261 17.2806C8.35871 17.3745 8.28446 17.4862 8.23418 17.6091C8.1839 17.732 8.1586 17.8636 8.15975 17.9964C8.1609 18.1292 8.18849 18.2604 8.2409 18.3824C8.29331 18.5044 8.36949 18.6148 8.465 18.707L11.293 21.536C11.4805 21.7235 11.7348 21.8288 12 21.8288C12.2652 21.8288 12.5195 21.7235 12.707 21.536L15.536 18.707C15.7235 18.5194 15.8288 18.2649 15.8287 17.9997C15.8286 17.7344 15.7231 17.48 15.5355 17.2925C15.3479 17.105 15.0934 16.9997 14.8281 16.9998C14.5629 16.9999 14.3085 17.1054 14.121 17.293L13 18.414V15C13 14.7348 12.8946 14.4805 12.7071 14.2929C12.5196 14.1054 12.2652 14 12 14C11.7348 14 11.4804 14.1054 11.2929 14.2929C11.1054 14.4805 11 14.7348 11 15V18.414ZM12 10C11.7348 10 11.4804 9.89467 11.2929 9.70713C11.1054 9.5196 11 9.26524 11 9.00003V5.58603L9.879 6.70703C9.6904 6.88919 9.4378 6.98998 9.1756 6.9877C8.9134 6.98542 8.66259 6.88025 8.47718 6.69485C8.29177 6.50944 8.1866 6.25863 8.18433 5.99643C8.18205 5.73423 8.28284 5.48163 8.465 5.29303L11.293 2.46503C11.4805 2.27756 11.7348 2.17224 12 2.17224C12.2652 2.17224 12.5195 2.27756 12.707 2.46503L15.536 5.29303C15.7235 5.48067 15.8288 5.73511 15.8287 6.00038C15.8286 6.26565 15.7231 6.52002 15.5355 6.70753C15.3479 6.89504 15.0934 7.00032 14.8281 7.00023C14.5629 7.00014 14.3085 6.89467 14.121 6.70703L13 5.58603V9.00003C13 9.26524 12.8946 9.5196 12.7071 9.70713C12.5196 9.89467 12.2652 10 12 10Z" fill="currentColor"/>
</svg>
