<svg width="24" height="24" viewBox="0 0 24 24" fill="none" xmlns="http://www.w3.org/2000/svg">
<path fill-rule="evenodd" clip-rule="evenodd" d="M12 4C9.87827 4 7.84344 4.84285 6.34315 6.34315C4.84285 7.84344 4 9.87827 4 12C4 14.1217 4.84285 16.1566 6.34315 17.6569C7.84344 19.1571 9.87827 20 12 20C14.1217 20 16.1566 19.1571 17.6569 17.6569C19.1571 16.1566 20 14.1217 20 12C20 9.87827 19.1571 7.84344 17.6569 6.34315C16.1566 4.84285 14.1217 4 12 4ZM2 12C2 6.477 6.477 2 12 2C17.523 2 22 6.477 22 12C22 17.523 17.523 22 12 22C6.477 22 2 17.523 2 12ZM7.293 8.293C7.48053 8.10553 7.73484 8.00021 8 8.00021C8.26516 8.00021 8.51947 8.10553 8.707 8.293L9 8.586L9.293 8.293C9.38525 8.19749 9.49559 8.12131 9.6176 8.0689C9.7396 8.01649 9.87082 7.9889 10.0036 7.98775C10.1364 7.9866 10.2681 8.0119 10.391 8.06218C10.5139 8.11246 10.6255 8.18671 10.7194 8.28061C10.8133 8.3745 10.8875 8.48615 10.9378 8.60905C10.9881 8.73194 11.0134 8.86362 11.0123 8.9964C11.0111 9.12918 10.9835 9.2604 10.9311 9.3824C10.8787 9.50441 10.8025 9.61475 10.707 9.707L10.414 10L10.707 10.293C10.8892 10.4816 10.99 10.7342 10.9877 10.9964C10.9854 11.2586 10.8802 11.5094 10.6948 11.6948C10.5094 11.8802 10.2586 11.9854 9.9964 11.9877C9.7342 11.99 9.4816 11.8892 9.293 11.707L9 11.414L8.707 11.707C8.5184 11.8892 8.2658 11.99 8.0036 11.9877C7.7414 11.9854 7.49059 11.8802 7.30518 11.6948C7.11977 11.5094 7.0146 11.2586 7.01233 10.9964C7.01005 10.7342 7.11084 10.4816 7.293 10.293L7.586 10L7.293 9.707C7.10553 9.51947 7.00021 9.26516 7.00021 9C7.00021 8.73484 7.10553 8.48053 7.293 8.293ZM13.293 8.293C13.4805 8.10553 13.7348 8.00021 14 8.00021C14.2652 8.00021 14.5195 8.10553 14.707 8.293L15 8.586L15.293 8.293C15.3852 8.19749 15.4956 8.12131 15.6176 8.0689C15.7396 8.01649 15.8708 7.9889 16.0036 7.98775C16.1364 7.9866 16.2681 8.0119 16.391 8.06218C16.5138 8.11246 16.6255 8.18671 16.7194 8.28061C16.8133 8.3745 16.8875 8.48615 16.9378 8.60905C16.9881 8.73194 17.0134 8.86362 17.0123 8.9964C17.0111 9.12918 16.9835 9.2604 16.9311 9.3824C16.8787 9.50441 16.8025 9.61475 16.707 9.707L16.414 10L16.707 10.293C16.8892 10.4816 16.99 10.7342 16.9877 10.9964C16.9854 11.2586 16.8802 11.5094 16.6948 11.6948C16.5094 11.8802 16.2586 11.9854 15.9964 11.9877C15.7342 11.99 15.4816 11.8892 15.293 11.707L15 11.414L14.707 11.707C14.5184 11.8892 14.2658 11.99 14.0036 11.9877C13.7414 11.9854 13.4906 11.8802 13.3052 11.6948C13.1198 11.5094 13.0146 11.2586 13.0123 10.9964C13.01 10.7342 13.1108 10.4816 13.293 10.293L13.586 10L13.293 9.707C13.1055 9.51947 13.0002 9.26516 13.0002 9C13.0002 8.73484 13.1055 8.48053 13.293 8.293ZM8.693 15.25C9.60555 14.4432 10.782 13.9986 12 14C13.267 14 14.427 14.473 15.308 15.25C15.5069 15.4256 15.6279 15.673 15.6444 15.9378C15.6609 16.2026 15.5716 16.4631 15.396 16.662C15.2204 16.8609 14.973 16.9819 14.7082 16.9984C14.4434 17.0149 14.1829 16.9256 13.984 16.75C13.4368 16.2655 12.7308 15.9987 12 16C11.239 16 10.545 16.282 10.016 16.75C9.81709 16.9256 9.55658 17.0149 9.29177 16.9984C9.02697 16.9819 8.77957 16.8609 8.604 16.662C8.42843 16.4631 8.33906 16.2026 8.35557 15.9378C8.37207 15.673 8.49409 15.4256 8.693 15.25Z" fill="currentColor"/>
</svg>
