<svg width="24" height="24" viewBox="0 0 24 24" fill="none" xmlns="http://www.w3.org/2000/svg">
<path d="M12 2C17.523 2 22 6.477 22 12C22 17.523 17.523 22 12 22C6.477 22 2 17.523 2 12C2 6.477 6.477 2 12 2ZM12 4C9.87827 4 7.84344 4.84285 6.34315 6.34315C4.84285 7.84344 4 9.87827 4 12C4 14.1217 4.84285 16.1566 6.34315 17.6569C7.84344 19.1571 9.87827 20 12 20C14.1217 20 16.1566 19.1571 17.6569 17.6569C19.1571 16.1566 20 14.1217 20 12C20 9.87827 19.1571 7.84344 17.6569 6.34315C16.1566 4.84285 14.1217 4 12 4ZM12 14C13.267 14 14.427 14.473 15.308 15.25C15.5069 15.4256 15.6279 15.673 15.6444 15.9378C15.6609 16.2026 15.5716 16.4631 15.396 16.662C15.2204 16.8609 14.973 16.9819 14.7082 16.9984C14.4434 17.0149 14.1829 16.9256 13.984 16.75C13.4368 16.2655 12.7308 15.9987 12 16C11.239 16 10.545 16.282 10.016 16.75C9.91751 16.8369 9.80287 16.9035 9.67863 16.9461C9.5544 16.9886 9.42299 17.0063 9.29192 16.9981C9.16085 16.9899 9.03268 16.9559 8.91474 16.8982C8.79679 16.8404 8.69137 16.76 8.6045 16.6615C8.51763 16.563 8.45101 16.4484 8.40845 16.3241C8.36588 16.1999 8.3482 16.0685 8.35642 15.9374C8.36464 15.8064 8.39859 15.6782 8.45634 15.5602C8.51409 15.4423 8.59451 15.3369 8.693 15.25C9.6056 14.4433 10.782 13.9987 12 14ZM9.041 9.664L9.106 9.552C9.16421 9.43356 9.24529 9.32781 9.34456 9.24085C9.44384 9.15389 9.55934 9.08744 9.68442 9.04534C9.80949 9.00323 9.94167 8.9863 10.0733 8.99552C10.205 9.00474 10.3335 9.03992 10.4515 9.09905C10.5695 9.15817 10.6746 9.24007 10.7608 9.34001C10.847 9.43996 10.9125 9.55597 10.9537 9.68137C10.9948 9.80677 11.0107 9.93907 11.0005 10.0706C10.9902 10.2022 10.954 10.3305 10.894 10.448C10.457 11.32 9.587 12 8.5 12C7.413 12 6.542 11.32 6.106 10.448C5.99138 10.2199 5.96836 9.95652 6.04167 9.71196C6.11497 9.46739 6.27904 9.26013 6.50025 9.13265C6.72146 9.00517 6.98305 8.96712 7.2314 9.02631C7.47976 9.0855 7.69607 9.23745 7.836 9.451L7.894 9.552C8.056 9.876 8.304 10 8.5 10C8.67 10 8.882 9.905 9.041 9.664ZM17.448 9.106C17.6851 9.22482 17.8653 9.43296 17.9489 9.68463C18.0326 9.93631 18.0128 10.2109 17.894 10.448C17.458 11.32 16.587 12 15.5 12C14.413 12 13.543 11.32 13.106 10.448C12.9914 10.2199 12.9684 9.95652 13.0417 9.71196C13.115 9.46739 13.279 9.26013 13.5002 9.13265C13.7215 9.00517 13.983 8.96712 14.2314 9.02631C14.4798 9.0855 14.6961 9.23745 14.836 9.451L14.894 9.552C15.056 9.876 15.304 10 15.5 10C15.67 10 15.882 9.905 16.041 9.664L16.106 9.552C16.2248 9.3149 16.433 9.13471 16.6846 9.05107C16.9363 8.96743 17.2109 8.98719 17.448 9.106Z" fill="currentColor"/>
</svg>
