<svg width="24" height="24" viewBox="0 0 24 24" fill="none" xmlns="http://www.w3.org/2000/svg">
<path d="M10.2322 10.2311C11.1394 9.32399 12.3604 8.80028 13.6429 8.76827C14.9253 8.73625 16.171 9.19838 17.1222 10.0591L17.3032 10.2311L20.1312 13.0601C21.0523 13.9827 21.5765 15.2286 21.5922 16.5322C21.6079 17.8358 21.1138 19.094 20.2153 20.0386C19.3167 20.9832 18.0848 21.5395 16.782 21.5889C15.4793 21.6383 14.2087 21.1769 13.2412 20.3031L13.0612 20.1311L10.9392 18.0091C10.7599 17.8291 10.6558 17.5876 10.648 17.3337C10.6402 17.0797 10.7294 16.8323 10.8975 16.6418C11.0655 16.4512 11.2998 16.3317 11.5527 16.3077C11.8056 16.2836 12.0582 16.3566 12.2592 16.5121L12.3532 16.5951L14.4752 18.7171C15.0253 19.2703 15.7693 19.5876 16.5494 19.6014C17.3294 19.6153 18.0842 19.3247 18.6536 18.7914C19.223 18.258 19.5622 17.5238 19.5993 16.7445C19.6364 15.9652 19.3684 15.2021 18.8522 14.6171L18.7172 14.4741L15.8892 11.6461C15.6106 11.3674 15.2799 11.1464 14.9159 10.9956C14.5519 10.8448 14.1617 10.7672 13.7677 10.7672C13.3737 10.7672 12.9836 10.8448 12.6196 10.9956C12.2556 11.1464 11.9248 11.3674 11.6462 11.6461C11.4586 11.8336 11.2041 11.9388 10.9389 11.9388C10.6736 11.9387 10.4192 11.8332 10.2317 11.6456C10.0442 11.4579 9.93893 11.2035 9.93903 10.9382C9.93912 10.6729 10.0446 10.4186 10.2322 10.2311ZM8.00023 17.0001C8.24516 17.0001 8.48157 17.09 8.6646 17.2528C8.84764 17.4155 8.96457 17.6398 8.99323 17.8831L9.00023 18.0001V20.0001C8.99995 20.2549 8.90235 20.5001 8.72738 20.6854C8.55241 20.8708 8.31328 20.9823 8.05883 20.9972C7.80439 21.0122 7.55385 20.9294 7.3584 20.7658C7.16294 20.6022 7.03733 20.3701 7.00723 20.1171L7.00023 20.0001V18.0001C7.00023 17.7348 7.10559 17.4805 7.29312 17.2929C7.48066 17.1054 7.73501 17.0001 8.00023 17.0001ZM5.00023 15.0001C5.25511 15.0003 5.50026 15.0979 5.6856 15.2729C5.87093 15.4479 5.98246 15.687 5.9974 15.9414C6.01234 16.1959 5.92955 16.4464 5.76596 16.6419C5.60237 16.8373 5.37033 16.9629 5.11723 16.9931L5.00023 17.0001H4.00023C3.74535 16.9998 3.5002 16.9022 3.31486 16.7272C3.12952 16.5522 3.01799 16.3131 3.00306 16.0587C2.98812 15.8042 3.0709 15.5537 3.23449 15.3582C3.39808 15.1628 3.63013 15.0372 3.88323 15.0071L4.00023 15.0001H5.00023ZM3.86823 3.86705C4.77536 2.95999 5.99643 2.43628 7.27886 2.40427C8.56129 2.37225 9.80697 2.83438 10.7582 3.69505L10.9392 3.86705L13.0602 5.99005C13.2396 6.17001 13.3437 6.41149 13.3515 6.66544C13.3592 6.91939 13.27 7.16677 13.102 7.35733C12.9339 7.5479 12.6997 7.66736 12.4468 7.69145C12.1938 7.71555 11.9412 7.64247 11.7402 7.48705L11.6462 7.40405L9.52523 5.28305C8.9742 4.73561 8.23232 4.42323 7.45566 4.41163C6.67901 4.40003 5.92813 4.6901 5.36099 5.22084C4.79385 5.75158 4.45467 6.48159 4.4148 7.25731C4.37494 8.03303 4.63749 8.79397 5.14723 9.38005L5.28223 9.52405L8.11123 12.3531C8.67381 12.9155 9.43674 13.2314 10.2322 13.2314C11.0277 13.2314 11.7906 12.9155 12.3532 12.3531C12.4461 12.2601 12.5563 12.1864 12.6776 12.1361C12.799 12.0858 12.929 12.0599 13.0604 12.0599C13.1917 12.0598 13.3218 12.0856 13.4432 12.1359C13.5645 12.1861 13.6748 12.2597 13.7677 12.3526C13.8606 12.4454 13.9344 12.5556 13.9847 12.677C14.035 12.7983 14.0609 12.9284 14.0609 13.0597C14.061 13.191 14.0352 13.3211 13.9849 13.4425C13.9347 13.5639 13.8611 13.6741 13.7682 13.7671C12.8611 14.6741 11.64 15.1978 10.3576 15.2298C9.07517 15.2619 7.82949 14.7997 6.87823 13.9391L6.69623 13.7671L3.86823 10.9381C2.93087 10.0004 2.4043 8.72887 2.4043 7.40305C2.4043 6.07723 2.93087 4.80469 3.86823 3.86705ZM20.0002 7.00005C20.2654 7.00005 20.5198 7.10541 20.7073 7.29295C20.8949 7.48048 21.0002 7.73484 21.0002 8.00005C21.0002 8.26527 20.8949 8.51962 20.7073 8.70716C20.5198 8.8947 20.2654 9.00005 20.0002 9.00005H19.0002C18.735 9.00005 18.4807 8.8947 18.2931 8.70716C18.1056 8.51962 18.0002 8.26527 18.0002 8.00005C18.0002 7.73484 18.1056 7.48048 18.2931 7.29295C18.4807 7.10541 18.735 7.00005 19.0002 7.00005H20.0002ZM16.0002 3.00005C16.2452 3.00009 16.4816 3.09001 16.6646 3.25277C16.8476 3.41553 16.9646 3.6398 16.9932 3.88305L17.0002 4.00005V6.00005C16.9999 6.25493 16.9024 6.50009 16.7274 6.68542C16.5524 6.87076 16.3133 6.98229 16.0588 6.99723C15.8044 7.01216 15.5538 6.92938 15.3584 6.76579C15.1629 6.6022 15.0373 6.37015 15.0072 6.11705L15.0002 6.00005V4.00005C15.0002 3.73484 15.1056 3.48048 15.2931 3.29295C15.4807 3.10541 15.735 3.00005 16.0002 3.00005Z" fill="currentColor"/>
</svg>
