<svg width="24" height="24" viewBox="0 0 24 24" fill="none" xmlns="http://www.w3.org/2000/svg">
<path d="M12 2C13.091 2 14.117 2.292 15 2.804C15.1195 2.86651 15.2251 2.95256 15.3105 3.05695C15.3959 3.16135 15.4593 3.28194 15.4969 3.41146C15.5345 3.54099 15.5454 3.67678 15.5292 3.81067C15.5129 3.94455 15.4697 4.07376 15.4022 4.19053C15.3348 4.30729 15.2443 4.4092 15.1364 4.49012C15.0285 4.57103 14.9054 4.62928 14.7744 4.66137C14.6434 4.69346 14.5073 4.69871 14.3742 4.67683C14.2411 4.65494 14.1138 4.60635 14 4.534C13.3918 4.18285 12.7018 3.99802 11.9995 3.9981C11.2972 3.99818 10.6073 4.18318 9.99918 4.53447C9.39105 4.88577 8.88612 5.39099 8.53519 5.99933C8.18425 6.60768 7.99967 7.29769 8 8L19 8.001C19.5304 8.001 20.0391 8.21171 20.4142 8.58679C20.7893 8.96186 21 9.47057 21 10.001V20.001C21 20.5314 20.7893 21.0401 20.4142 21.4152C20.0391 21.7903 19.5304 22.001 19 22.001H5C4.46957 22.001 3.96086 21.7903 3.58579 21.4152C3.21071 21.0401 3 20.5314 3 20.001V10C3 9.46957 3.21071 8.96086 3.58579 8.58579C3.96086 8.21071 4.46957 8 5 8H6C6 6.4087 6.63214 4.88258 7.75736 3.75736C8.88258 2.63214 10.4087 2 12 2ZM19 10H5V20H19V10ZM12 12C12.4266 12.0001 12.842 12.1367 13.1854 12.3896C13.5289 12.6426 13.7825 12.9988 13.9092 13.4062C14.0358 13.8135 14.0289 14.2507 13.8895 14.6538C13.75 15.057 13.4853 15.405 13.134 15.647L13 15.732V17C12.9997 17.2549 12.9021 17.5 12.7272 17.6854C12.5522 17.8707 12.313 17.9822 12.0586 17.9972C11.8042 18.0121 11.5536 17.9293 11.3582 17.7657C11.1627 17.6021 11.0371 17.3701 11.007 17.117L11 17V15.732C10.6187 15.5119 10.3208 15.1721 10.1523 14.7653C9.98384 14.3586 9.95429 13.9076 10.0682 13.4824C10.1822 13.0571 10.4333 12.6813 10.7825 12.4133C11.1318 12.1453 11.5597 12 12 12ZM19.918 5.021L20.884 5.281C21.1303 5.3581 21.3373 5.52745 21.4616 5.75363C21.5859 5.9798 21.618 6.24528 21.5511 6.49455C21.4842 6.74382 21.3235 6.95757 21.1026 7.0911C20.8817 7.22462 20.6178 7.26759 20.366 7.211L19.401 6.953C19.1459 6.88346 18.9287 6.71572 18.797 6.48647C18.6652 6.25722 18.6296 5.98512 18.698 5.7297C18.7663 5.47428 18.9331 5.25633 19.1617 5.12351C19.3903 4.9907 19.6623 4.95384 19.918 5.021ZM18.633 2.09C18.7599 2.124 18.8788 2.18266 18.983 2.26262C19.0872 2.34259 19.1746 2.4423 19.2402 2.55605C19.3059 2.66981 19.3485 2.79538 19.3656 2.9256C19.3827 3.05582 19.374 3.18814 19.34 3.315L19.211 3.797C19.1775 3.92439 19.1193 4.04393 19.0395 4.14873C18.9597 4.25353 18.86 4.34154 18.7461 4.4077C18.6322 4.47386 18.5064 4.51687 18.3758 4.53425C18.2452 4.55164 18.1125 4.54306 17.9853 4.50902C17.8581 4.47497 17.7388 4.41612 17.6344 4.33585C17.5299 4.25558 17.4424 4.15547 17.3768 4.04127C17.3111 3.92707 17.2687 3.80103 17.2519 3.67039C17.2352 3.53975 17.2444 3.40708 17.279 3.28L17.409 2.797C17.4777 2.54101 17.6452 2.32275 17.8747 2.19018C18.1042 2.05761 18.3769 2.02158 18.633 2.09Z" fill="currentColor"/>
</svg>
