<svg width="24" height="24" viewBox="0 0 24 24" fill="none" xmlns="http://www.w3.org/2000/svg">
<path d="M8 9V11H5V20H19V11H16V9H19C19.5304 9 20.0391 9.21072 20.4142 9.58579C20.7893 9.96086 21 10.4696 21 11V20C21 20.5304 20.7893 21.0391 20.4142 21.4142C20.0391 21.7893 19.5304 22 19 22H5C4.46957 22 3.96086 21.7893 3.58579 21.4142C3.21071 21.0391 3 20.5304 3 20V11C3 10.4696 3.21071 9.96086 3.58579 9.58579C3.96086 9.21072 4.46957 9 5 9H8ZM12.884 2.469L16.243 5.827C16.4306 6.01465 16.5361 6.26914 16.5361 6.5345C16.5361 6.79987 16.4306 7.05436 16.243 7.242C16.0554 7.42965 15.8009 7.53506 15.5355 7.53506C15.2701 7.53506 15.0156 7.42965 14.828 7.242L13 5.413V15C13 15.2652 12.8946 15.5196 12.7071 15.7071C12.5196 15.8946 12.2652 16 12 16C11.7348 16 11.4804 15.8946 11.2929 15.7071C11.1054 15.5196 11 15.2652 11 15V5.413L9.172 7.242C9.07909 7.33492 8.96879 7.40862 8.8474 7.4589C8.726 7.50918 8.5959 7.53506 8.4645 7.53506C8.33311 7.53506 8.203 7.50918 8.0816 7.4589C7.96021 7.40862 7.84991 7.33492 7.757 7.242C7.66409 7.14909 7.59039 7.03879 7.54011 6.9174C7.48982 6.79601 7.46394 6.6659 7.46394 6.5345C7.46394 6.40311 7.48982 6.273 7.54011 6.15161C7.59039 6.03022 7.66409 5.91992 7.757 5.827L11.117 2.469C11.3514 2.23482 11.6692 2.10327 12.0005 2.10327C12.3318 2.10327 12.6496 2.23482 12.884 2.469Z" fill="currentColor"/>
</svg>
