<svg width="24" height="24" viewBox="0 0 24 24" fill="none" xmlns="http://www.w3.org/2000/svg">
<path d="M20 15C20.2652 15 20.5196 15.1054 20.7071 15.2929C20.8946 15.4805 21 15.7348 21 16V20C21 20.5305 20.7893 21.0392 20.4142 21.4142C20.0391 21.7893 19.5304 22 19 22H5C4.46957 22 3.96086 21.7893 3.58579 21.4142C3.21071 21.0392 3 20.5305 3 20V16C3 15.7348 3.10536 15.4805 3.29289 15.2929C3.48043 15.1054 3.73478 15 4 15C4.26522 15 4.51957 15.1054 4.70711 15.2929C4.89464 15.4805 5 15.7348 5 16V20H19V16C19 15.7348 19.1054 15.4805 19.2929 15.2929C19.4804 15.1054 19.7348 15 20 15ZM12.884 3.47402L16.95 7.54002C17.0455 7.63227 17.1217 7.74261 17.1741 7.86462C17.2265 7.98662 17.2541 8.11784 17.2553 8.25062C17.2564 8.3834 17.2311 8.51508 17.1808 8.63797C17.1305 8.76087 17.0563 8.87252 16.9624 8.96642C16.8685 9.06031 16.7568 9.13456 16.634 9.18484C16.5111 9.23512 16.3794 9.26043 16.2466 9.25927C16.1138 9.25812 15.9826 9.23053 15.8606 9.17812C15.7386 9.12571 15.6282 9.04953 15.536 8.95402L13 6.42002V16C13 16.2652 12.8946 16.5196 12.7071 16.7071C12.5196 16.8947 12.2652 17 12 17C11.7348 17 11.4804 16.8947 11.2929 16.7071C11.1054 16.5196 11 16.2652 11 16V6.41902L8.464 8.95402C8.2754 9.13618 8.0228 9.23697 7.7606 9.2347C7.4984 9.23242 7.24759 9.12725 7.06218 8.94184C6.87677 8.75643 6.7716 8.50562 6.76933 8.24342C6.76705 7.98123 6.86784 7.72862 7.05 7.54002L11.116 3.47402C11.2321 3.35791 11.3699 3.26581 11.5216 3.20297C11.6732 3.14013 11.8358 3.10779 12 3.10779C12.1642 3.10779 12.3268 3.14013 12.4784 3.20297C12.6301 3.26581 12.7679 3.35791 12.884 3.47402Z" fill="currentColor"/>
</svg>
