<svg width="24" height="24" viewBox="0 0 24 24" fill="none" xmlns="http://www.w3.org/2000/svg">
<path fill-rule="evenodd" clip-rule="evenodd" d="M11.4999 3.99998C8.85086 3.99998 6.73886 6.37998 7.02686 8.99998C7.05354 9.24258 6.99146 9.48664 6.85212 9.68702C6.71277 9.8874 6.50558 10.0305 6.26886 10.09C5.56179 10.2712 4.94496 10.7038 4.53377 11.3068C4.12257 11.9099 3.94518 12.6421 4.03478 13.3665C4.12438 14.0909 4.47483 14.7578 5.02057 15.2425C5.56631 15.7273 6.26995 15.9965 6.99986 16H7.99986C8.26507 16 8.51943 16.1053 8.70696 16.2929C8.8945 16.4804 8.99986 16.7348 8.99986 17C8.99986 17.2652 8.8945 17.5195 8.70696 17.7071C8.51943 17.8946 8.26507 18 7.99986 18H6.99986C5.85057 18.0007 4.73611 17.6055 3.84405 16.8809C2.95199 16.1563 2.3368 15.1464 2.10203 14.0214C1.86725 12.8963 2.02722 11.7247 2.55501 10.7038C3.0828 9.68288 3.94619 8.87494 4.99986 8.41598C5.01792 6.89991 5.5654 5.43785 6.54756 4.2828C7.52972 3.12775 8.88476 2.35237 10.3782 2.09085C11.8717 1.82932 13.4095 2.0981 14.7258 2.85067C16.042 3.60325 17.0537 4.79226 17.5859 6.21198C18.9852 6.59787 20.1972 7.4778 20.9975 8.68877C21.7978 9.89975 22.1322 11.3597 21.9386 12.7983C21.7451 14.2369 21.0367 15.5566 19.9448 16.513C18.8529 17.4694 17.4514 17.9976 15.9999 18C15.7346 18 15.4803 17.8946 15.2928 17.7071C15.1052 17.5195 14.9999 17.2652 14.9999 17C14.9999 16.7348 15.1052 16.4804 15.2928 16.2929C15.4803 16.1053 15.7346 16 15.9999 16C17.0049 16.0015 17.9737 15.6246 18.7134 14.9443C19.4532 14.264 19.9098 13.3302 19.9924 12.3286C20.0749 11.3269 19.7774 10.3309 19.159 9.53868C18.5406 8.74644 17.6466 8.21603 16.6549 8.05298C16.4639 8.0214 16.286 7.93562 16.1424 7.80585C15.9988 7.67608 15.8955 7.50778 15.8449 7.32098C15.5856 6.36723 15.0197 5.52531 14.2344 4.92512C13.4492 4.32493 12.4882 3.99983 11.4999 3.99998ZM12.9999 12.416L14.2929 13.708C14.3858 13.8008 14.4962 13.8744 14.6176 13.9246C14.739 13.9748 14.8692 14.0006 15.0006 14.0005C15.132 14.0004 15.262 13.9745 15.3834 13.9241C15.5048 13.8737 15.615 13.8 15.7079 13.707C15.8007 13.614 15.8743 13.5036 15.9245 13.3822C15.9747 13.2608 16.0005 13.1307 16.0004 12.9993C16.0003 12.8679 15.9743 12.7378 15.924 12.6164C15.8736 12.4951 15.7998 12.3848 15.7069 12.292L12.8829 9.47298C12.6485 9.2391 12.3309 9.10774 11.9999 9.10774C11.6688 9.10774 11.3512 9.2391 11.1169 9.47298L8.29286 12.293C8.10522 12.4805 7.99975 12.7349 7.99966 13.0001C7.99956 13.2654 8.10485 13.5198 8.29236 13.7075C8.47987 13.8951 8.73423 14.0006 8.9995 14.0007C9.26477 14.0008 9.51922 13.8955 9.70686 13.708L10.9999 12.416V21C10.9999 21.2652 11.1052 21.5195 11.2928 21.7071C11.4803 21.8946 11.7346 22 11.9999 22C12.2651 22 12.5194 21.8946 12.707 21.7071C12.8945 21.5195 12.9999 21.2652 12.9999 21V12.416Z" fill="currentColor"/>
</svg>
