<svg width="24" height="24" viewBox="0 0 24 24" fill="none" xmlns="http://www.w3.org/2000/svg">
<path d="M9.421 3.317C9.52411 3.56127 9.52599 3.83649 9.42623 4.08214C9.32646 4.3278 9.13323 4.52378 8.889 4.627C7.43922 5.23899 6.20204 6.26483 5.33218 7.57622C4.46232 8.8876 3.99838 10.4263 3.99838 12C3.99838 13.5737 4.46232 15.1124 5.33218 16.4238C6.20204 17.7352 7.43922 18.761 8.889 19.373C9.01265 19.4222 9.12524 19.4956 9.22017 19.5889C9.31509 19.6821 9.39044 19.7934 9.4418 19.9162C9.49317 20.039 9.5195 20.1708 9.51928 20.3038C9.51905 20.4369 9.49226 20.5686 9.44048 20.6912C9.3887 20.8138 9.31297 20.9248 9.21773 21.0178C9.12249 21.1108 9.00965 21.1838 8.88583 21.2325C8.76201 21.2813 8.62969 21.3049 8.49664 21.3019C8.3636 21.2989 8.23249 21.2693 8.111 21.215C6.29934 20.4498 4.75343 19.1676 3.66653 17.5286C2.57962 15.8896 1.99996 13.9666 2 12C2 7.855 4.522 4.3 8.11 2.785C8.23101 2.73379 8.36092 2.70693 8.49231 2.70595C8.6237 2.70498 8.754 2.7299 8.87575 2.77931C8.9975 2.82872 9.10832 2.90164 9.20188 2.99389C9.29544 3.08615 9.3699 3.19595 9.421 3.317ZM15.889 2.785C17.7007 3.55007 19.2467 4.83227 20.3336 6.47128C21.4206 8.11028 22.0002 10.0333 22 12C22 16.145 19.478 19.699 15.89 21.215C15.6457 21.3184 15.3704 21.3206 15.1245 21.221C14.8787 21.1214 14.6824 20.9283 14.579 20.684C14.4756 20.4397 14.4734 20.1644 14.573 19.9185C14.6726 19.6727 14.8657 19.4764 15.11 19.373C16.5598 18.761 17.797 17.7352 18.6668 16.4238C19.5367 15.1124 20.0006 13.5737 20.0006 12C20.0006 10.4263 19.5367 8.8876 18.6668 7.57622C17.797 6.26483 16.5598 5.23899 15.11 4.627C14.8657 4.52356 14.6726 4.32733 14.573 4.08147C14.4734 3.83561 14.4756 3.56026 14.579 3.316C14.6824 3.07173 14.8787 2.87856 15.1245 2.77898C15.3704 2.6794 15.6457 2.68156 15.89 2.785H15.889ZM12 6C12.2652 6 12.5196 6.10535 12.7071 6.29289C12.8946 6.48043 13 6.73478 13 7V8H15C15.2652 8 15.5196 8.10535 15.7071 8.29289C15.8946 8.48043 16 8.73478 16 9C16 9.26521 15.8946 9.51957 15.7071 9.7071C15.5196 9.89464 15.2652 10 15 10H13V11H14C14.663 11 15.2989 11.2634 15.7678 11.7322C16.2366 12.2011 16.5 12.837 16.5 13.5C16.5 14.163 16.2366 14.7989 15.7678 15.2678C15.2989 15.7366 14.663 16 14 16H13V17C13 17.2652 12.8946 17.5196 12.7071 17.7071C12.5196 17.8946 12.2652 18 12 18C11.7348 18 11.4804 17.8946 11.2929 17.7071C11.1054 17.5196 11 17.2652 11 17V16H9C8.73478 16 8.48043 15.8946 8.29289 15.7071C8.10536 15.5196 8 15.2652 8 15C8 14.7348 8.10536 14.4804 8.29289 14.2929C8.48043 14.1054 8.73478 14 9 14H11V13H10C9.33696 13 8.70107 12.7366 8.23223 12.2678C7.76339 11.7989 7.5 11.163 7.5 10.5C7.5 9.83696 7.76339 9.20107 8.23223 8.73223C8.70107 8.26339 9.33696 8 10 8H11V7C11 6.73478 11.1054 6.48043 11.2929 6.29289C11.4804 6.10535 11.7348 6 12 6ZM14 13H13V14H14C14.1326 14 14.2598 13.9473 14.3536 13.8535C14.4473 13.7598 14.5 13.6326 14.5 13.5C14.5 13.3674 14.4473 13.2402 14.3536 13.1464C14.2598 13.0527 14.1326 13 14 13ZM11 10H10C9.86739 10 9.74021 10.0527 9.64645 10.1464C9.55268 10.2402 9.5 10.3674 9.5 10.5C9.5 10.6326 9.55268 10.7598 9.64645 10.8535C9.74021 10.9473 9.86739 11 10 11H11V10Z" fill="currentColor"/>
</svg>
