<svg width="24" height="24" viewBox="0 0 24 24" fill="none" xmlns="http://www.w3.org/2000/svg">
<path fill-rule="evenodd" clip-rule="evenodd" d="M8 7C8 6.60603 8.0776 6.21593 8.22836 5.85195C8.37913 5.48797 8.6001 5.15726 8.87868 4.87868C9.15726 4.6001 9.48797 4.37913 9.85195 4.22836C10.2159 4.0776 10.606 4 11 4C11.394 4 11.7841 4.0776 12.1481 4.22836C12.512 4.37913 12.8427 4.6001 13.1213 4.87868C13.3999 5.15726 13.6209 5.48797 13.7716 5.85195C13.9224 6.21593 14 6.60603 14 7C14 7.79565 13.6839 8.55871 13.1213 9.12132C12.5587 9.68393 11.7956 10 11 10C10.2044 10 9.44129 9.68393 8.87868 9.12132C8.31607 8.55871 8 7.79565 8 7ZM11 2C9.67392 2 8.40215 2.52678 7.46447 3.46447C6.52678 4.40215 6 5.67392 6 7C6 8.32608 6.52678 9.59785 7.46447 10.5355C8.40215 11.4732 9.67392 12 11 12C12.3261 12 13.5979 11.4732 14.5355 10.5355C15.4732 9.59785 16 8.32608 16 7C16 5.67392 15.4732 4.40215 14.5355 3.46447C13.5979 2.52678 12.3261 2 11 2ZM4 18.5C4 18.32 4.09 18.011 4.413 17.601C4.729 17.201 5.217 16.773 5.864 16.379C7.157 15.589 8.977 15 11 15C11.375 15 11.744 15.02 12.105 15.059C12.3689 15.087 12.6331 15.009 12.8395 14.8422C13.0459 14.6754 13.1775 14.4334 13.2055 14.1695C13.2335 13.9056 13.1555 13.6414 12.9887 13.435C12.8219 13.2286 12.5799 13.097 12.316 13.069C11.8788 13.0236 11.4396 13.0006 11 13C8.605 13 6.425 13.694 4.822 14.672C4.022 15.16 3.338 15.736 2.844 16.362C2.358 16.976 2 17.713 2 18.5C2 19.345 2.411 20.011 3.003 20.486C3.563 20.936 4.302 21.234 5.087 21.442C6.665 21.859 8.771 22 11 22C11.23 22 11.46 21.998 11.685 21.995C11.8163 21.9932 11.946 21.9656 12.0667 21.9137C12.1873 21.8618 12.2965 21.7867 12.3882 21.6926C12.4798 21.5984 12.5519 21.4872 12.6005 21.3652C12.6492 21.2432 12.6733 21.1128 12.6715 20.9815C12.6697 20.8502 12.6421 20.7205 12.5902 20.5998C12.5383 20.4792 12.4632 20.37 12.3691 20.2783C12.2749 20.1867 12.1637 20.1146 12.0417 20.066C11.9197 20.0173 11.7893 19.9932 11.658 19.995C11.441 19.998 11.222 20 11 20C8.81 20 6.917 19.857 5.6 19.508C4.937 19.333 4.504 19.126 4.255 18.926C4.037 18.751 4 18.622 4 18.5ZM16.068 17.482C15.977 17.8212 15.9769 18.1784 16.0677 18.5176C16.1586 18.8569 16.3371 19.1662 16.5855 19.4145C16.8338 19.6629 17.1431 19.8414 17.4824 19.9323C17.8216 20.0231 18.1788 20.023 18.518 19.932L16.068 17.482ZM17.482 16.068L19.932 18.518C20.023 18.1788 20.0231 17.8216 19.9323 17.4824C19.8414 17.1431 19.6629 16.8338 19.4145 16.5855C19.1662 16.3371 18.8569 16.1586 18.5176 16.0677C18.1784 15.9769 17.8212 15.977 17.482 16.068ZM14 18C14 16.9391 14.4214 15.9217 15.1716 15.1716C15.9217 14.4214 16.9391 14 18 14C19.0609 14 20.0783 14.4214 20.8284 15.1716C21.5786 15.9217 22 16.9391 22 18C22 19.0609 21.5786 20.0783 20.8284 20.8284C20.0783 21.5786 19.0609 22 18 22C16.9391 22 15.9217 21.5786 15.1716 20.8284C14.4214 20.0783 14 19.0609 14 18Z" fill="currentColor"/>
</svg>
