<svg width="24" height="24" viewBox="0 0 24 24" fill="none" xmlns="http://www.w3.org/2000/svg">
<path fill-rule="evenodd" clip-rule="evenodd" d="M11 2C9.67392 2 8.40215 2.52678 7.46447 3.46447C6.52678 4.40215 6 5.67392 6 7C6 8.32608 6.52678 9.59785 7.46447 10.5355C8.40215 11.4732 9.67392 12 11 12C12.3261 12 13.5979 11.4732 14.5355 10.5355C15.4732 9.59785 16 8.32608 16 7C16 5.67392 15.4732 4.40215 14.5355 3.46447C13.5979 2.52678 12.3261 2 11 2ZM8 7C8 6.60603 8.0776 6.21593 8.22836 5.85195C8.37913 5.48797 8.6001 5.15726 8.87868 4.87868C9.15726 4.6001 9.48797 4.37913 9.85195 4.22836C10.2159 4.0776 10.606 4 11 4C11.394 4 11.7841 4.0776 12.1481 4.22836C12.512 4.37913 12.8427 4.6001 13.1213 4.87868C13.3999 5.15726 13.6209 5.48797 13.7716 5.85195C13.9224 6.21593 14 6.60603 14 7C14 7.79565 13.6839 8.55871 13.1213 9.12132C12.5587 9.68393 11.7956 10 11 10C10.2044 10 9.44129 9.68393 8.87868 9.12132C8.31607 8.55871 8 7.79565 8 7ZM10.337 15.021C10.6017 15.0042 10.8488 14.8829 11.0241 14.6838C11.1993 14.4847 11.2883 14.2242 11.2715 13.9595C11.2547 13.6948 11.1334 13.4477 10.9343 13.2724C10.7352 13.0972 10.4747 13.0082 10.21 13.025C8 13.165 6.015 13.883 4.559 14.838C3.831 15.316 3.211 15.869 2.763 16.468C2.32 17.057 2 17.755 2 18.5C2 20.035 3.278 20.846 4.495 21.263C5.775 21.702 7.485 21.901 9.327 21.97C9.58798 21.9734 9.83996 21.8747 10.0291 21.6949C10.2183 21.5151 10.3297 21.2684 10.3395 21.0076C10.3493 20.7468 10.2567 20.4925 10.0815 20.299C9.90637 20.1055 9.6625 19.9881 9.402 19.972C7.611 19.904 6.139 19.712 5.144 19.372C4.212 19.052 4.034 18.737 4.005 18.562L4 18.5C4 18.332 4.079 18.046 4.363 17.666C4.642 17.294 5.075 16.892 5.656 16.51C6.817 15.749 8.469 15.14 10.337 15.021ZM17 13.89C18.406 13.89 19.632 14.522 20.49 15.28C20.9057 15.6421 21.2623 16.0669 21.547 16.539C21.799 16.966 22 17.479 22 18.001C22 18.524 21.8 19.036 21.547 19.463C21.2624 19.9354 20.9057 20.3606 20.49 20.723C19.632 21.48 18.406 22.113 17 22.113C15.594 22.113 14.368 21.48 13.51 20.723C13.0943 20.3606 12.7376 19.9354 12.453 19.463C12.2 19.035 12 18.522 12 18C12 17.477 12.2 16.965 12.453 16.538C12.7376 16.0656 13.0943 15.6404 13.51 15.278C14.368 14.521 15.594 13.888 17 13.888V13.89ZM17 15.89C16.197 15.89 15.423 16.258 14.833 16.779C14.5754 17.002 14.3538 17.2634 14.176 17.554C14.1108 17.6603 14.0587 17.7741 14.021 17.893L14.001 17.98V18.022L14.021 18.109C14.044 18.186 14.089 18.299 14.176 18.449C14.32 18.692 14.542 18.966 14.833 19.223C15.423 19.743 16.197 20.113 17 20.113C17.803 20.113 18.577 19.743 19.167 19.223C19.4246 19 19.6462 18.7386 19.824 18.448C19.911 18.3 19.956 18.186 19.979 18.109L19.999 18.022C19.9998 18.0147 20.0001 18.0073 20 18L19.992 17.942C19.9565 17.8041 19.8998 17.6725 19.824 17.552C19.6461 17.2617 19.4245 17.0007 19.167 16.778C18.577 16.258 17.803 15.888 17 15.888V15.89ZM17.087 17.005C17.0144 17.132 16.9857 17.2794 17.0051 17.4244C17.0245 17.5694 17.0911 17.704 17.1945 17.8075C17.298 17.9109 17.4326 17.9775 17.5776 17.9969C17.7226 18.0163 17.87 17.9876 17.997 17.915L18 18.001C18 18.2025 17.9392 18.3993 17.8255 18.5656C17.7117 18.732 17.5504 18.8601 17.3626 18.9331C17.1748 19.0062 16.9694 19.0208 16.7731 18.9751C16.5769 18.9294 16.399 18.8255 16.2628 18.6769C16.1267 18.5284 16.0386 18.3422 16.0101 18.1427C15.9815 17.9432 16.014 17.7398 16.1031 17.5591C16.1921 17.3783 16.3338 17.2287 16.5093 17.1299C16.6849 17.031 16.8863 16.9875 17.087 17.005Z" fill="currentColor"/>
</svg>
