<svg width="24" height="24" viewBox="0 0 24 24" fill="none" xmlns="http://www.w3.org/2000/svg">
<path fill-rule="evenodd" clip-rule="evenodd" d="M11 2C9.67392 2 8.40215 2.52678 7.46447 3.46447C6.52678 4.40215 6 5.67392 6 7C6 8.32608 6.52678 9.59785 7.46447 10.5355C8.40215 11.4732 9.67392 12 11 12C12.3261 12 13.5979 11.4732 14.5355 10.5355C15.4732 9.59785 16 8.32608 16 7C16 5.67392 15.4732 4.40215 14.5355 3.46447C13.5979 2.52678 12.3261 2 11 2ZM8 7C8 6.60603 8.0776 6.21593 8.22836 5.85195C8.37913 5.48797 8.6001 5.15726 8.87868 4.87868C9.15726 4.6001 9.48797 4.37913 9.85195 4.22836C10.2159 4.0776 10.606 4 11 4C11.394 4 11.7841 4.0776 12.1481 4.22836C12.512 4.37913 12.8427 4.6001 13.1213 4.87868C13.3999 5.15726 13.6209 5.48797 13.7716 5.85195C13.9224 6.21593 14 6.60603 14 7C14 7.79565 13.6839 8.55871 13.1213 9.12132C12.5587 9.68393 11.7956 10 11 10C10.2044 10 9.44129 9.68393 8.87868 9.12132C8.31607 8.55871 8 7.79565 8 7ZM4 18.5C4 18.32 4.09 18.011 4.413 17.601C4.729 17.201 5.217 16.773 5.864 16.379C7.157 15.589 8.977 15 11 15C11.375 15 11.744 15.02 12.105 15.059C12.3689 15.087 12.6331 15.009 12.8395 14.8422C13.0459 14.6754 13.1775 14.4334 13.2055 14.1695C13.2335 13.9056 13.1555 13.6414 12.9887 13.435C12.8219 13.2286 12.5799 13.097 12.316 13.069C11.8788 13.0236 11.4396 13.0006 11 13C8.605 13 6.425 13.694 4.822 14.672C4.022 15.16 3.338 15.736 2.844 16.362C2.358 16.976 2 17.713 2 18.5C2 19.345 2.411 20.011 3.003 20.486C3.563 20.936 4.302 21.234 5.087 21.442C6.665 21.859 8.771 22 11 22L11.685 21.995C11.8163 21.9932 11.946 21.9656 12.0667 21.9137C12.1873 21.8618 12.2965 21.7867 12.3882 21.6926C12.4798 21.5984 12.5519 21.4872 12.6005 21.3652C12.6492 21.2432 12.6733 21.1128 12.6715 20.9815C12.6697 20.8502 12.6421 20.7205 12.5902 20.5998C12.5383 20.4792 12.4632 20.37 12.3691 20.2783C12.2749 20.1867 12.1637 20.1146 12.0417 20.066C11.9197 20.0173 11.7893 19.9932 11.658 19.995L11 20C8.81 20 6.917 19.857 5.6 19.508C4.937 19.333 4.504 19.126 4.255 18.926C4.037 18.751 4 18.622 4 18.5ZM18 13C19.0609 13 20.0783 13.4214 20.8284 14.1716C21.5786 14.9217 22 15.9391 22 17C22 18.387 21.245 19.48 20.531 20.21C20.085 20.666 19.611 21.027 19.23 21.283L18.964 21.456C18.923 21.481 18.884 21.506 18.847 21.527L18.655 21.64C18.4552 21.7531 18.2296 21.8125 18 21.8125C17.7704 21.8125 17.5448 21.7531 17.345 21.64L17.153 21.527L16.908 21.375C16.508 21.115 15.97 20.723 15.468 20.21C14.756 19.48 14 18.387 14 17C14 15.9391 14.4214 14.9217 15.1716 14.1716C15.9217 13.4214 16.9391 13 18 13ZM18 15C17.4696 15 16.9609 15.2107 16.5858 15.5858C16.2107 15.9609 16 16.4696 16 17C16 17.636 16.35 18.251 16.899 18.811C17.2324 19.1463 17.6017 19.4441 18 19.699C18.31 19.499 18.725 19.196 19.101 18.811C19.649 18.251 20 17.636 20 17C20 16.4696 19.7893 15.9609 19.4142 15.5858C19.0391 15.2107 18.5304 15 18 15ZM18 16C18.2652 16 18.5196 16.1054 18.7071 16.2929C18.8946 16.4804 19 16.7348 19 17C19 17.2652 18.8946 17.5196 18.7071 17.7071C18.5196 17.8946 18.2652 18 18 18C17.7348 18 17.4804 17.8946 17.2929 17.7071C17.1054 17.5196 17 17.2652 17 17C17 16.7348 17.1054 16.4804 17.2929 16.2929C17.4804 16.1054 17.7348 16 18 16Z" fill="currentColor"/>
</svg>
