<svg width="24" height="24" viewBox="0 0 24 24" fill="none" xmlns="http://www.w3.org/2000/svg">
<path fill-rule="evenodd" clip-rule="evenodd" d="M11 4C10.606 4 10.2159 4.0776 9.85195 4.22836C9.48797 4.37913 9.15726 4.6001 8.87868 4.87868C8.6001 5.15726 8.37913 5.48797 8.22836 5.85195C8.0776 6.21593 8 6.60603 8 7C8 7.39397 8.0776 7.78407 8.22836 8.14805C8.37913 8.51203 8.6001 8.84274 8.87868 9.12132C9.15726 9.3999 9.48797 9.62087 9.85195 9.77164C10.2159 9.9224 10.606 10 11 10C11.7956 10 12.5587 9.68393 13.1213 9.12132C13.6839 8.55871 14 7.79565 14 7C14 6.20435 13.6839 5.44129 13.1213 4.87868C12.5587 4.31607 11.7956 4 11 4ZM6 7C6 5.67392 6.52678 4.40215 7.46447 3.46447C8.40215 2.52678 9.67392 2 11 2C12.3261 2 13.5979 2.52678 14.5355 3.46447C15.4732 4.40215 16 5.67392 16 7C16 8.32608 15.4732 9.59785 14.5355 10.5355C13.5979 11.4732 12.3261 12 11 12C9.67392 12 8.40215 11.4732 7.46447 10.5355C6.52678 9.59785 6 8.32608 6 7ZM4.413 17.601C4.09 18.011 4 18.321 4 18.5C4 18.622 4.037 18.751 4.255 18.926C4.504 19.126 4.937 19.333 5.599 19.508C6.917 19.858 8.811 20 11 20C11.222 20 11.441 19.998 11.658 19.995C11.9232 19.9914 12.179 20.0933 12.3691 20.2783C12.5591 20.4634 12.6679 20.7163 12.6715 20.9815C12.6751 21.2467 12.5732 21.5025 12.3882 21.6926C12.2031 21.8826 11.9502 21.9914 11.685 21.995C11.459 21.998 11.23 22 11 22C8.771 22 6.665 21.86 5.087 21.442C4.302 21.234 3.563 20.936 3.003 20.486C2.41 20.01 2 19.345 2 18.5C2 17.713 2.358 16.977 2.844 16.361C3.338 15.736 4.021 15.161 4.822 14.671C6.425 13.695 8.605 13 11 13C11.447 13 11.887 13.024 12.316 13.07C12.5798 13.098 12.8216 13.2296 12.9883 13.4359C13.155 13.6422 13.233 13.9062 13.205 14.17C13.177 14.4338 13.0454 14.6756 12.8391 14.8423C12.6328 15.009 12.3688 15.087 12.105 15.059C11.745 15.02 11.375 15 11 15C8.977 15 7.157 15.59 5.864 16.379C5.217 16.773 4.728 17.201 4.413 17.601ZM18.864 13.997C18.776 13.8459 18.6499 13.7206 18.4983 13.6335C18.3466 13.5463 18.1749 13.5005 18 13.5005C17.8251 13.5005 17.6534 13.5463 17.5017 13.6335C17.3501 13.7206 17.224 13.8459 17.136 13.997L16.226 15.559L14.46 15.941C14.289 15.978 14.1307 16.0592 14.0009 16.1765C13.8711 16.2938 13.7744 16.4431 13.7203 16.6095C13.6663 16.7759 13.6568 16.9535 13.6929 17.1247C13.729 17.2959 13.8094 17.4546 13.926 17.585L15.13 18.933L14.948 20.731C14.9304 20.905 14.9587 21.0806 15.0301 21.2402C15.1015 21.3998 15.2135 21.538 15.355 21.6408C15.4965 21.7436 15.6624 21.8075 15.8363 21.8261C16.0102 21.8448 16.186 21.8175 16.346 21.747L18 21.017L19.654 21.747C19.814 21.8175 19.9898 21.8448 20.1637 21.8261C20.3376 21.8075 20.5035 21.7436 20.645 21.6408C20.7865 21.538 20.8985 21.3998 20.9699 21.2402C21.0413 21.0806 21.0696 20.905 21.052 20.731L20.87 18.932L22.074 17.585C22.1906 17.4546 22.271 17.2959 22.3071 17.1247C22.3432 16.9535 22.3337 16.7759 22.2797 16.6095C22.2256 16.4431 22.1289 16.2938 21.9991 16.1765C21.8693 16.0592 21.711 15.978 21.54 15.941L19.774 15.559L18.864 13.997ZM17.733 16.946L18 16.486L18.267 16.946C18.3369 17.066 18.4311 17.1702 18.5436 17.2518C18.656 17.3334 18.7842 17.3907 18.92 17.42L19.44 17.532L19.085 17.929C18.9923 18.0325 18.9223 18.1541 18.8792 18.2862C18.8362 18.4182 18.8211 18.5578 18.835 18.696L18.889 19.224L18.403 19.01C18.276 18.9541 18.1388 18.9252 18 18.9252C17.8612 18.9252 17.724 18.9541 17.597 19.01L17.111 19.224L17.164 18.696C17.1779 18.5578 17.1628 18.4182 17.1198 18.2862C17.0767 18.1541 17.0067 18.0325 16.914 17.929L16.561 17.532L17.081 17.42C17.2166 17.3906 17.3446 17.3332 17.4569 17.2516C17.5691 17.17 17.6632 17.0659 17.733 16.946Z" fill="currentColor"/>
</svg>
