<svg width="24" height="24" viewBox="0 0 24 24" fill="none" xmlns="http://www.w3.org/2000/svg">
<path fill-rule="evenodd" clip-rule="evenodd" d="M11 13C11.447 13 11.887 13.024 12.316 13.07C12.5798 13.098 12.8216 13.2296 12.9883 13.4359C13.155 13.6422 13.233 13.9062 13.205 14.17C13.177 14.4338 13.0454 14.6756 12.8391 14.8423C12.6328 15.009 12.3688 15.087 12.105 15.059C11.745 15.02 11.375 15 11 15C8.977 15 7.157 15.59 5.864 16.379C5.217 16.773 4.729 17.201 4.414 17.601C4.09 18.011 4 18.321 4 18.5C4 18.622 4.037 18.751 4.255 18.926C4.504 19.126 4.937 19.333 5.599 19.508C6.917 19.858 8.811 20 11 20L11.658 19.995C11.9232 19.9914 12.179 20.0933 12.3691 20.2783C12.5591 20.4634 12.6679 20.7163 12.6715 20.9815C12.6751 21.2467 12.5732 21.5025 12.3882 21.6926C12.2031 21.8826 11.9502 21.9914 11.685 21.995L11 22C8.771 22 6.665 21.86 5.087 21.442C4.302 21.234 3.563 20.936 3.003 20.486C2.41 20.01 2 19.345 2 18.5C2 17.713 2.358 16.977 2.844 16.361C3.338 15.736 4.021 15.161 4.822 14.671C6.425 13.695 8.605 13 11 13ZM18.5 13C19.1347 12.9999 19.7457 13.2412 20.209 13.675C20.6724 14.1088 20.9534 14.7026 20.995 15.336L21 15.5V16.085C21.538 16.275 21.935 16.763 21.993 17.351L22 17.5V20.5C22 20.8729 21.8611 21.2324 21.6104 21.5084C21.3597 21.7844 21.0152 21.9572 20.644 21.993L20.5 22H16.5C16.1271 22 15.7676 21.8611 15.4916 21.6104C15.2156 21.3597 15.0428 21.0152 15.007 20.644L15 20.5V17.5C15 17.2139 15.0818 16.9337 15.2357 16.6926C15.3897 16.4514 15.6094 16.2594 15.869 16.139L16 16.085V15.5C16 14.837 16.2634 14.2011 16.7322 13.7322C17.2011 13.2634 17.837 13 18.5 13ZM20 18H17V20H20V18ZM18.5 15C18.3674 15 18.2402 15.0527 18.1464 15.1464C18.0527 15.2402 18 15.3674 18 15.5V16H19V15.5C19 15.3674 18.9473 15.2402 18.8536 15.1464C18.7598 15.0527 18.6326 15 18.5 15ZM11 2C12.3261 2 13.5979 2.52678 14.5355 3.46447C15.4732 4.40215 16 5.67392 16 7C16 8.32608 15.4732 9.59785 14.5355 10.5355C13.5979 11.4732 12.3261 12 11 12C9.67392 12 8.40215 11.4732 7.46447 10.5355C6.52678 9.59785 6 8.32608 6 7C6 5.67392 6.52678 4.40215 7.46447 3.46447C8.40215 2.52678 9.67392 2 11 2ZM11 4C10.606 4 10.2159 4.0776 9.85195 4.22836C9.48797 4.37913 9.15726 4.6001 8.87868 4.87868C8.6001 5.15726 8.37913 5.48797 8.22836 5.85195C8.0776 6.21593 8 6.60603 8 7C8 7.39397 8.0776 7.78407 8.22836 8.14805C8.37913 8.51203 8.6001 8.84274 8.87868 9.12132C9.15726 9.3999 9.48797 9.62087 9.85195 9.77164C10.2159 9.9224 10.606 10 11 10C11.7956 10 12.5587 9.68393 13.1213 9.12132C13.6839 8.55871 14 7.79565 14 7C14 6.20435 13.6839 5.44129 13.1213 4.87868C12.5587 4.31607 11.7956 4 11 4Z" fill="currentColor"/>
</svg>
