<svg width="24" height="24" viewBox="0 0 24 24" fill="none" xmlns="http://www.w3.org/2000/svg">
<path fill-rule="evenodd" clip-rule="evenodd" d="M11 4C10.606 4 10.2159 4.0776 9.85195 4.22836C9.48797 4.37913 9.15726 4.6001 8.87868 4.87868C8.6001 5.15726 8.37913 5.48797 8.22836 5.85195C8.0776 6.21593 8 6.60603 8 7C8 7.39397 8.0776 7.78407 8.22836 8.14805C8.37913 8.51203 8.6001 8.84274 8.87868 9.12132C9.15726 9.3999 9.48797 9.62087 9.85195 9.77164C10.2159 9.9224 10.606 10 11 10C11.7956 10 12.5587 9.68393 13.1213 9.12132C13.6839 8.55871 14 7.79565 14 7C14 6.20435 13.6839 5.44129 13.1213 4.87868C12.5587 4.31607 11.7956 4 11 4ZM6 7C6 5.67392 6.52678 4.40215 7.46447 3.46447C8.40215 2.52678 9.67392 2 11 2C12.3261 2 13.5979 2.52678 14.5355 3.46447C15.4732 4.40215 16 5.67392 16 7C16 8.32608 15.4732 9.59785 14.5355 10.5355C13.5979 11.4732 12.3261 12 11 12C9.67392 12 8.40215 11.4732 7.46447 10.5355C6.52678 9.59785 6 8.32608 6 7ZM4.413 17.601C4.09 18.011 4 18.321 4 18.5C4 18.622 4.037 18.751 4.255 18.926C4.504 19.126 4.937 19.333 5.599 19.508C6.917 19.858 8.811 20 11 20C11.222 20 11.441 19.998 11.658 19.995C11.9232 19.9914 12.179 20.0933 12.3691 20.2783C12.5591 20.4634 12.6679 20.7163 12.6715 20.9815C12.6751 21.2467 12.5732 21.5025 12.3882 21.6926C12.2031 21.8826 11.9502 21.9914 11.685 21.995C11.459 21.998 11.23 22 11 22C8.771 22 6.665 21.86 5.087 21.442C4.302 21.234 3.563 20.936 3.003 20.486C2.41 20.01 2 19.345 2 18.5C2 17.713 2.358 16.977 2.844 16.361C3.338 15.736 4.021 15.161 4.822 14.671C6.425 13.695 8.605 13 11 13C11.447 13 11.887 13.024 12.316 13.07C12.5798 13.098 12.8216 13.2296 12.9883 13.4359C13.155 13.6422 13.233 13.9062 13.205 14.17C13.177 14.4338 13.0454 14.6756 12.8391 14.8423C12.6328 15.009 12.3688 15.087 12.105 15.059C11.745 15.02 11.375 15 11 15C8.977 15 7.157 15.59 5.864 16.379C5.217 16.773 4.728 17.201 4.413 17.601ZM16.586 15.171C16.3984 14.9835 16.1439 14.8782 15.8786 14.8783C15.6134 14.8784 15.359 14.9839 15.1715 15.1715C14.984 15.3591 14.8787 15.6136 14.8788 15.8789C14.8789 16.1441 14.9844 16.3985 15.172 16.586L16.586 18L15.172 19.414C15.0765 19.5062 15.0003 19.6166 14.9479 19.7386C14.8955 19.8606 14.8679 19.9918 14.8667 20.1246C14.8656 20.2574 14.8909 20.3891 14.9412 20.512C14.9915 20.6348 15.0657 20.7465 15.1596 20.8404C15.2535 20.9343 15.3651 21.0085 15.488 21.0588C15.6109 21.1091 15.7426 21.1344 15.8754 21.1333C16.0082 21.1321 16.1394 21.1045 16.2614 21.0521C16.3834 20.9997 16.4938 20.9235 16.586 20.828L18 19.414L19.414 20.828C19.5062 20.9235 19.6166 20.9997 19.7386 21.0521C19.8606 21.1045 19.9918 21.1321 20.1246 21.1333C20.2574 21.1344 20.3891 21.1091 20.512 21.0588C20.6348 21.0085 20.7465 20.9343 20.8404 20.8404C20.9343 20.7465 21.0085 20.6348 21.0588 20.512C21.1091 20.3891 21.1344 20.2574 21.1333 20.1246C21.1321 19.9918 21.1045 19.8606 21.0521 19.7386C20.9997 19.6166 20.9235 19.5062 20.828 19.414L19.414 18L20.828 16.586C21.0102 16.3974 21.111 16.1448 21.1087 15.8826C21.1064 15.6204 21.0012 15.3696 20.8158 15.1842C20.6304 14.9988 20.3796 14.8936 20.1174 14.8913C19.8552 14.889 19.6026 14.9898 19.414 15.172L18 16.586L16.586 15.171Z" fill="currentColor"/>
</svg>
