<svg width="24" height="24" viewBox="0 0 24 24" fill="none" xmlns="http://www.w3.org/2000/svg">
<path d="M13.0001 4C13.5305 4 14.0392 4.21071 14.4143 4.58579C14.7893 4.96086 15.0001 5.46957 15.0001 6H19.2681C19.4882 5.61874 19.828 5.32077 20.2347 5.15231C20.6415 4.98384 21.0924 4.95429 21.5177 5.06824C21.9429 5.18219 22.3187 5.43326 22.5867 5.78253C22.8547 6.1318 23 6.55975 23.0001 7C23 7.44025 22.8547 7.8682 22.5867 8.21747C22.3187 8.56674 21.9429 8.81781 21.5177 8.93176C21.0924 9.04571 20.6415 9.01616 20.2347 8.84769C19.828 8.67923 19.4882 8.38126 19.2681 8H15.8761C16.9773 8.61017 17.9191 9.4715 18.6249 10.514C19.3307 11.5566 19.7806 12.7509 19.9381 14H20.0001C20.5305 14 21.0392 14.2107 21.4143 14.5858C21.7893 14.9609 22.0001 15.4696 22.0001 16V18C22.0001 18.5304 21.7893 19.0391 21.4143 19.4142C21.0392 19.7893 20.5305 20 20.0001 20H18.0001C17.4696 20 16.9609 19.7893 16.5858 19.4142C16.2108 19.0391 16.0001 18.5304 16.0001 18V16C16.0001 15.484 16.1996 14.988 16.5569 14.6156C16.9141 14.2433 17.4015 14.0234 17.9171 14.002C17.7491 13.0091 17.3342 12.0743 16.7105 11.2836C16.0869 10.4929 15.2745 9.8717 14.3481 9.477C13.98 9.81393 13.499 10.0006 13.0001 10H11.0001C10.4801 10 10.0071 9.802 9.65205 9.477C8.72541 9.87157 7.91282 10.4928 7.289 11.2834C6.66518 12.0741 6.25015 13.009 6.08205 14.002C6.5978 14.0232 7.08539 14.2429 7.44285 14.6153C7.80032 14.9877 7.99997 15.4838 8.00005 16V18C8.00005 18.5304 7.78934 19.0391 7.41426 19.4142C7.03919 19.7893 6.53048 20 6.00005 20H4.00005C3.46962 20 2.96091 19.7893 2.58584 19.4142C2.21076 19.0391 2.00005 18.5304 2.00005 18V16C2.00005 15.4696 2.21076 14.9609 2.58584 14.5858C2.96091 14.2107 3.46962 14 4.00005 14H4.06205C4.21953 12.7509 4.66944 11.5566 5.37524 10.514C6.08104 9.4715 7.02281 8.61017 8.12405 8H4.73205C4.51192 8.38128 4.17212 8.67928 3.76537 8.84776C3.35861 9.01624 2.90763 9.0458 2.48236 8.93185C2.0571 8.8179 1.68131 8.56681 1.41329 8.21752C1.14527 7.86823 1 7.44027 1 7C1 6.55973 1.14527 6.13177 1.41329 5.78248C1.68131 5.43319 2.0571 5.1821 2.48236 5.06815C2.90763 4.9542 3.35861 4.98376 3.76537 5.15224C4.17212 5.32072 4.51192 5.61872 4.73205 6H9.00005C9.00005 5.46957 9.21076 4.96086 9.58584 4.58579C9.96091 4.21071 10.4696 4 11.0001 4H13.0001ZM20.0001 16H18.0001V18H20.0001V16ZM6.00005 16H4.00005V18H6.00005V16ZM13.0001 6H11.0001V8H13.0001V6Z" fill="currentColor"/>
</svg>
