<svg width="24" height="24" viewBox="0 0 24 24" fill="none" xmlns="http://www.w3.org/2000/svg">
<path fill-rule="evenodd" clip-rule="evenodd" d="M7 2C7.53043 2 8.03914 2.21071 8.41421 2.58579C8.78929 2.96086 9 3.46957 9 4H14.268C14.4881 3.61874 14.8279 3.32077 15.2347 3.15231C15.6414 2.98384 16.0924 2.95429 16.5176 3.06824C16.9429 3.18219 17.3187 3.43326 17.5867 3.78253C17.8547 4.1318 18 4.55975 18 5C18 5.44025 17.8547 5.8682 17.5867 6.21747C17.3187 6.56674 16.9429 6.81781 16.5176 6.93176C16.0924 7.04571 15.6414 7.01616 15.2347 6.84769C14.8279 6.67923 14.4881 6.38126 14.268 6H10.899C11.5651 6.65108 12.0941 7.42888 12.455 8.2876C12.8158 9.14631 13.0011 10.0686 13 11V13C13 14.722 13.87 16.24 15.194 17.14C15.3565 16.7987 15.6125 16.5105 15.9321 16.3088C16.2517 16.107 16.622 15.9999 17 16H19C19.5304 16 20.0391 16.2107 20.4142 16.5858C20.7893 16.9609 21 17.4696 21 18V20C21 20.5304 20.7893 21.0391 20.4142 21.4142C20.0391 21.7893 19.5304 22 19 22H17C16.4696 22 15.9609 21.7893 15.5858 21.4142C15.2107 21.0391 15 20.5304 15 20H9.732C9.51187 20.3813 9.17207 20.6793 8.76532 20.8478C8.35856 21.0162 7.90758 21.0458 7.48231 20.9319C7.05704 20.8179 6.68126 20.5668 6.41324 20.2175C6.14522 19.8682 5.99995 19.4403 5.99995 19C5.99995 18.5597 6.14522 18.1318 6.41324 17.7825C6.68126 17.4332 7.05704 17.1821 7.48231 17.0681C7.90758 16.9542 8.35856 16.9838 8.76532 17.1522C9.17207 17.3207 9.51187 17.6187 9.732 18H13.101C12.4349 17.349 11.9058 16.5712 11.5449 15.7124C11.1841 14.8537 10.9988 13.9315 11 13V11C11 9.279 10.13 7.76 8.806 6.86C8.64346 7.20126 8.38754 7.48948 8.06791 7.69124C7.74827 7.89301 7.37799 8.00006 7 8H5C4.46957 8 3.96086 7.78929 3.58579 7.41421C3.21071 7.03914 3 6.53043 3 6V4C3 3.46957 3.21071 2.96086 3.58579 2.58579C3.96086 2.21071 4.46957 2 5 2H7ZM19 18H17V20H19V18ZM7 4H5V6H7V4Z" fill="currentColor"/>
</svg>
