<svg width="24" height="24" viewBox="0 0 24 24" fill="none" xmlns="http://www.w3.org/2000/svg">
<path fill-rule="evenodd" clip-rule="evenodd" d="M5.963 4.919C6.045 3.902 6.876 3 8 3H16C17.124 3 17.955 3.902 18.037 4.919C18.2102 7.03794 18.9814 9.06417 20.261 10.762C20.685 11.316 21 12.032 21 12.828V18C21 18.7956 20.6839 19.5587 20.1213 20.1213C19.5587 20.6839 18.7956 21 18 21H6C5.20435 21 4.44129 20.6839 3.87868 20.1213C3.31607 19.5587 3 18.7956 3 18V12.828C3 12.031 3.315 11.316 3.74 10.762C4.45 9.832 5.73 7.792 5.963 4.919ZM13 19H18C18.2652 19 18.5196 18.8946 18.7071 18.7071C18.8946 18.5196 19 18.2652 19 18V12.828C19 12.565 18.893 12.266 18.672 11.978C17.1594 9.9749 16.2479 7.58277 16.044 5.081C16.04 5.039 15.954 4.957 15.95 5.021C15.818 6.606 15.51 8.361 14.534 9.663C14.154 10.17 13.646 10.606 13 10.833V19ZM11 10.833V19H6C5.73478 19 5.48043 18.8946 5.29289 18.7071C5.10536 18.5196 5 18.2652 5 18V12.828C5 12.565 5.107 12.266 5.327 11.978C6.84034 9.97512 7.75253 7.58298 7.957 5.081C7.96 5.018 7.992 5 8.048 5C8.181 6.613 8.469 8.335 9.465 9.663C9.845 10.17 10.353 10.606 10.999 10.833H11ZM12 9C12.357 9 12.649 8.843 12.934 8.463C13.648 7.511 13.836 6.153 13.944 5H10.056C10.164 6.153 10.352 7.51 11.066 8.463C11.351 8.843 11.643 9 12 9Z" fill="currentColor"/>
</svg>
