<svg width="24" height="24" viewBox="0 0 24 24" fill="none" xmlns="http://www.w3.org/2000/svg">
<path fill-rule="evenodd" clip-rule="evenodd" d="M12 3C12.7055 2.9998 13.3985 3.18618 14.0087 3.54025C14.6189 3.89432 15.1246 4.40347 15.4745 5.01606C15.8244 5.62866 16.0061 6.3229 16.0011 7.02837C15.9961 7.73384 15.8046 8.42543 15.446 9.033C16.126 9.13534 16.7502 9.4681 17.2142 9.97561C17.6782 10.4831 17.9539 11.1346 17.995 11.821L18 12V12.21L19.713 11.154C19.931 11.0195 20.1797 10.9431 20.4356 10.932C20.6914 10.921 20.9459 10.9756 21.1746 11.0906C21.4034 11.2057 21.5989 11.3775 21.7425 11.5895C21.8861 11.8016 21.973 12.0469 21.995 12.302L22 12.431V17.569C22.0001 17.8251 21.9346 18.077 21.8097 18.3006C21.6849 18.5243 21.5049 18.7122 21.2868 18.8465C21.0687 18.9809 20.8199 19.0572 20.564 19.0681C20.3081 19.079 20.0537 19.0243 19.825 18.909L19.713 18.846L18 17.79V18C18 18.7652 17.7077 19.5015 17.1827 20.0583C16.6578 20.615 15.9399 20.9501 15.176 20.995L15 21H5C4.23479 21 3.49849 20.7077 2.94174 20.1827C2.38499 19.6578 2.04989 18.9399 2.005 18.176L2 18V12C1.99992 11.4645 2.14315 10.9388 2.41483 10.4774C2.68651 10.016 3.07674 9.6357 3.545 9.376C3.10085 8.67688 2.91903 7.8429 3.03187 7.02235C3.14472 6.2018 3.5449 5.44785 4.16128 4.89458C4.77766 4.3413 5.57028 4.02454 6.39821 4.00064C7.22614 3.97673 8.03572 4.24721 8.683 4.764C9.04893 4.22059 9.54285 3.77549 10.1213 3.46788C10.6997 3.16027 11.3449 2.9996 12 3ZM15 11H5C4.73478 11 4.48043 11.1054 4.29289 11.2929C4.10536 11.4804 4 11.7348 4 12V18C4 18.2652 4.10536 18.5196 4.29289 18.7071C4.48043 18.8946 4.73478 19 5 19H15C15.2652 19 15.5196 18.8946 15.7071 18.7071C15.8946 18.5196 16 18.2652 16 18V12C16 11.7348 15.8946 11.4804 15.7071 11.2929C15.5196 11.1054 15.2652 11 15 11ZM20 13.326L18 14.558V15.441L20 16.673V13.326ZM12 5C11.4696 5 10.9609 5.21071 10.5858 5.58579C10.2107 5.96086 10 6.46957 10 7C10 7.53043 10.2107 8.03914 10.5858 8.41421C10.9609 8.78929 11.4696 9 12 9C12.5304 9 13.0391 8.78929 13.4142 8.41421C13.7893 8.03914 14 7.53043 14 7C14 6.46957 13.7893 5.96086 13.4142 5.58579C13.0391 5.21071 12.5304 5 12 5ZM6.5 6C6.10218 6 5.72064 6.15804 5.43934 6.43934C5.15804 6.72064 5 7.10218 5 7.5C5 7.89783 5.15804 8.27936 5.43934 8.56066C5.72064 8.84197 6.10218 9 6.5 9C6.89782 9 7.27936 8.84197 7.56066 8.56066C7.84196 8.27936 8 7.89783 8 7.5C8 7.10218 7.84196 6.72064 7.56066 6.43934C7.27936 6.15804 6.89782 6 6.5 6Z" fill="currentColor"/>
</svg>
