<svg width="24" height="24" viewBox="0 0 24 24" fill="none" xmlns="http://www.w3.org/2000/svg">
<path fill-rule="evenodd" clip-rule="evenodd" d="M11.2 1.401C11.2866 1.28554 11.3971 1.19016 11.5239 1.1214C11.6508 1.05264 11.791 1.01213 11.935 1.00263C12.079 0.993131 12.2234 1.01488 12.3582 1.06638C12.493 1.11788 12.615 1.19791 12.716 1.301L12.801 1.401L15.5 5H20.145C20.3959 4.99989 20.6428 5.0627 20.8631 5.1827C21.0835 5.30269 21.2702 5.47603 21.4062 5.68685C21.5422 5.89767 21.6231 6.13923 21.6416 6.38943C21.6601 6.63963 21.6155 6.89048 21.512 7.119L21.452 7.235L13.089 22.103C12.9859 22.2861 12.8383 22.4402 12.6599 22.5512C12.4814 22.6621 12.2779 22.7263 12.068 22.7377C11.8582 22.7492 11.6489 22.7076 11.4594 22.6168C11.27 22.5259 11.1065 22.3888 10.984 22.218L10.911 22.103L2.54801 7.235C2.42498 7.01638 2.35874 6.77039 2.35536 6.51955C2.35198 6.26871 2.41156 6.02103 2.52866 5.79917C2.64576 5.57732 2.81663 5.38837 3.02563 5.24963C3.23463 5.11088 3.4751 5.02678 3.72501 5.005L3.85501 5H8.50001L11.2 1.401ZM8.43301 7H4.71001L12 19.96L19.29 7H15.566L12.943 11.371C12.8453 11.5338 12.707 11.6685 12.5418 11.762C12.3765 11.8555 12.1899 11.9047 12 11.9047C11.8101 11.9047 11.6235 11.8555 11.4582 11.762C11.293 11.6685 11.1548 11.5338 11.057 11.371L8.43301 7ZM12 3.667L10.204 6.062L12 9.056L13.797 6.062L12 3.667Z" fill="currentColor"/>
</svg>
