<svg width="24" height="24" viewBox="0 0 24 24" fill="none" xmlns="http://www.w3.org/2000/svg">
<path d="M10.124 7.00802C10.3871 7.04098 10.6263 7.17705 10.789 7.38632C10.9518 7.5956 11.0248 7.86094 10.992 8.12402L9.992 16.124C9.95349 16.3823 9.81549 16.6152 9.60749 16.7731C9.3995 16.931 9.138 17.0012 8.8789 16.9688C8.6198 16.9364 8.38364 16.804 8.2209 16.5998C8.05816 16.3956 7.98175 16.1358 8.008 15.876L9.008 7.87602C9.04096 7.61296 9.17703 7.37375 9.3863 7.21098C9.59558 7.04822 9.86092 6.97521 10.124 7.00802ZM4 7.00002C4.26522 7.00002 4.51957 7.10538 4.70711 7.29292C4.89464 7.48045 5 7.73481 5 8.00002V10.485L6.064 7.65002C6.10756 7.52377 6.17597 7.40753 6.26519 7.30815C6.35441 7.20877 6.46263 7.12827 6.58347 7.0714C6.70431 7.01452 6.83532 6.98243 6.96876 6.97702C7.10221 6.9716 7.23538 6.99297 7.36043 7.03987C7.48548 7.08676 7.59987 7.15823 7.69685 7.25005C7.79383 7.34188 7.87143 7.45219 7.92508 7.5745C7.97873 7.6968 8.00734 7.82862 8.00921 7.96216C8.01109 8.0957 7.98619 8.22826 7.936 8.35202L4.936 16.352C4.85357 16.5712 4.69681 16.7545 4.49307 16.87C4.28933 16.9855 4.05153 17.0258 3.82111 16.9839C3.5907 16.942 3.3823 16.8206 3.23225 16.6408C3.08219 16.461 3 16.2342 3 16V9.00002C2.73478 9.00002 2.48043 8.89467 2.29289 8.70713C2.10536 8.51959 2 8.26524 2 8.00002C2 7.73481 2.10536 7.48045 2.29289 7.29292C2.48043 7.10538 2.73478 7.00002 3 7.00002H4ZM14.5 7.00002C15.096 7.00002 15.663 7.22202 16.034 7.69602C16.2007 7.9135 16.3153 8.16634 16.3688 8.43507C16.4224 8.7038 16.4136 8.98125 16.343 9.24602C16.2859 9.47358 16.1505 9.67381 15.9607 9.81167C15.7709 9.94954 15.5386 10.0163 15.3045 10.0002C15.0705 9.98409 14.8495 9.88621 14.6803 9.72366C14.5111 9.56112 14.4045 9.34426 14.379 9.11102L14.373 9.00002H14.324C14.2164 9.00005 14.1116 9.0348 14.0253 9.09912C13.939 9.16344 13.8758 9.25389 13.845 9.35702L13.828 9.43802L13.715 10.345C13.6961 10.4967 13.7273 10.6504 13.8038 10.7828C13.8804 10.9151 13.9981 11.0188 14.139 11.078C14.6538 11.2946 15.0888 11.6654 15.3841 12.1395C15.6794 12.6135 15.8205 13.1675 15.788 13.725L15.771 13.905L15.657 14.812C15.5846 15.3884 15.3137 15.9216 14.8909 16.32C14.468 16.7183 13.9197 16.957 13.34 16.995L13.177 17H13C12.528 17 11.875 16.915 11.447 16.37C11.114 15.945 11.087 15.442 11.114 15.076L11.134 14.874C11.1645 14.6311 11.283 14.4078 11.467 14.2465C11.6511 14.0851 11.888 13.9969 12.1328 13.9985C12.3776 14.0001 12.6133 14.0914 12.7952 14.2552C12.9772 14.4189 13.0927 14.6438 13.12 14.887L13.127 15H13.177C13.2846 15 13.3894 14.9652 13.4757 14.9009C13.562 14.8366 13.6252 14.7462 13.656 14.643L13.673 14.563L13.787 13.655C13.8059 13.5033 13.7747 13.3496 13.6982 13.2173C13.6216 13.0849 13.5039 12.9813 13.363 12.922C12.8483 12.7057 12.4134 12.3353 12.1179 11.8616C11.8224 11.3879 11.681 10.8344 11.713 10.277L11.73 10.097L11.844 9.19002C11.916 8.61326 12.1867 8.07961 12.6096 7.68084C13.0324 7.28206 13.581 7.04309 14.161 7.00502L14.324 7.00002H14.5ZM20.117 7.00702C20.339 7.03324 20.5458 7.13307 20.7044 7.29059C20.863 7.4481 20.9643 7.65422 20.992 7.87602L21.992 15.876C22.0182 16.1358 21.9418 16.3956 21.7791 16.5998C21.6164 16.804 21.3802 16.9364 21.1211 16.9688C20.862 17.0012 20.6005 16.931 20.3925 16.7731C20.1845 16.6152 20.0465 16.3823 20.008 16.124L19.868 15H18.443L17.936 16.351C17.8924 16.4773 17.824 16.5935 17.7348 16.6929C17.6456 16.7923 17.5374 16.8728 17.4165 16.9296C17.2957 16.9865 17.1647 17.0186 17.0312 17.024C16.8978 17.0294 16.7646 17.0081 16.6396 16.9612C16.5145 16.9143 16.4001 16.8428 16.3031 16.751C16.2062 16.6592 16.1286 16.5489 16.0749 16.4265C16.0213 16.3042 15.9927 16.1724 15.9908 16.0389C15.9889 15.9053 16.0138 15.7728 16.064 15.649L19.064 7.64902C19.1425 7.43971 19.2889 7.26274 19.4797 7.14637C19.6706 7.03 19.895 6.98094 20.117 7.00702ZM19.511 12.152L19.193 13H19.617L19.511 12.152Z" fill="currentColor"/>
</svg>
