<svg width="24" height="24" viewBox="0 0 24 24" fill="none" xmlns="http://www.w3.org/2000/svg">
<path fill-rule="evenodd" clip-rule="evenodd" d="M12.0001 8C9.47514 8 7.35714 8.268 5.69714 8.602C3.68214 9.007 2.55014 11.078 3.11414 13.334L3.23414 13.814C3.41235 14.5272 3.78107 15.1785 4.30086 15.6983C4.82066 16.2181 5.47197 16.5868 6.18514 16.765C6.66914 16.886 7.17814 16.852 7.64014 16.667L10.5141 15.517C11.468 15.1353 12.5322 15.1353 13.4861 15.517L16.3601 16.667C16.8221 16.852 17.3311 16.887 17.8151 16.765C18.528 16.5867 19.179 16.2181 19.6986 15.6985C20.2182 15.1789 20.5869 14.5279 20.7651 13.815L20.8851 13.335C21.4501 11.078 20.3181 9.007 18.3021 8.602C16.6431 8.268 14.5251 8 12.0001 8ZM5.30314 6.641C7.08314 6.283 9.33314 6 12.0001 6C14.6671 6 16.9171 6.283 18.6971 6.641C22.0871 7.323 23.5991 10.727 22.8261 13.819L22.7061 14.299C22.4401 15.3639 21.8896 16.3365 21.1135 17.1127C20.3374 17.889 19.365 18.4397 18.3001 18.706C17.4089 18.9289 16.4701 18.8652 15.6171 18.524L12.7431 17.374C12.2662 17.1832 11.7341 17.1832 11.2571 17.374L8.38314 18.524C7.53017 18.8652 6.59137 18.9289 5.70014 18.706C4.63537 18.4399 3.66296 17.8893 2.88689 17.1133C2.11082 16.3372 1.56028 15.3648 1.29414 14.3L1.17414 13.82C0.401142 10.727 1.91414 7.323 5.30314 6.641Z" fill="currentColor"/>
</svg>
