<svg width="24" height="24" viewBox="0 0 24 24" fill="none" xmlns="http://www.w3.org/2000/svg">
<path fill-rule="evenodd" clip-rule="evenodd" d="M12 2C17.523 2 22 6.477 22 12C22 17.523 17.523 22 12 22C6.477 22 2 17.523 2 12C2 6.477 6.477 2 12 2ZM17.065 13.72C16.2718 16.3569 14.5154 18.5988 12.145 20C13.562 19.9747 14.9468 19.5735 16.1578 18.8373C17.3687 18.1011 18.3624 17.0563 19.037 15.81C18.5598 14.9633 17.8828 14.2451 17.065 13.72ZM12.782 12.85C12.1493 14.6503 10.8918 16.164 9.238 17.116C8.46903 17.5611 7.6312 17.8747 6.759 18.044C7.333 18.542 7.979 18.96 8.679 19.28C9.50561 19.0763 10.2992 18.7565 11.036 18.33C13.0866 17.1501 14.5879 15.2077 15.213 12.926C14.4167 12.7349 13.5896 12.7094 12.783 12.851L12.782 12.85ZM5.002 8.124C4.34341 9.3096 3.99852 10.6438 4 12C4 13.536 4.433 14.97 5.183 16.19C6.15487 16.1998 7.1144 15.9719 7.978 15.526C6.09108 13.5198 5.02831 10.877 5.001 8.123L5.002 8.124ZM9.388 4.437C8.66409 4.68765 7.98006 5.04128 7.357 5.487C7.11995 6.30361 6.99975 7.14968 7 8C7 10.463 7.988 12.694 9.592 14.32C10.1558 13.7256 10.5915 13.0217 10.872 12.252C9.62942 10.8039 8.94746 8.95814 8.95 7.05C8.95 6.135 9.104 5.256 9.387 4.436L9.388 4.437ZM11.196 8.756C11.429 9.54106 11.8204 10.2701 12.346 10.898C14.2217 10.5459 16.1616 10.8783 17.813 11.835C18.5833 12.2787 19.2741 12.8478 19.857 13.519C20.0016 12.767 20.038 11.9983 19.965 11.236C19.3756 10.6224 18.7023 10.0955 17.965 9.671C15.918 8.48529 13.4844 8.15641 11.196 8.756ZM12 4L11.78 4.003C11.2858 4.83894 11.0032 5.78298 10.957 6.753C13.638 6.12209 16.4583 6.52335 18.857 7.877C18.1459 6.69386 17.1407 5.71495 15.939 5.03555C14.7374 4.35614 13.3804 3.99939 12 4Z" fill="currentColor"/>
</svg>
