<svg width="24" height="24" viewBox="0 0 24 24" fill="none" xmlns="http://www.w3.org/2000/svg">
<path fill-rule="evenodd" clip-rule="evenodd" d="M15 4.19395V19.806C15.0001 20.0082 14.9444 20.2065 14.8391 20.3791C14.7338 20.5517 14.583 20.692 14.4031 20.7845C14.2233 20.877 14.0215 20.9181 13.8198 20.9034C13.6182 20.8886 13.4245 20.8186 13.26 20.701L6.68 16H4C3.46957 16 2.96086 15.7892 2.58579 15.4142C2.21071 15.0391 2 14.5304 2 14V9.99995C2 9.46952 2.21071 8.96081 2.58579 8.58574C2.96086 8.21067 3.46957 7.99995 4 7.99995H6.68L13.26 3.29995C13.4244 3.18236 13.618 3.11232 13.8196 3.09755C14.0212 3.08277 14.2229 3.12382 14.4027 3.21619C14.5825 3.30856 14.7333 3.44868 14.8387 3.62117C14.9441 3.79365 14.9999 3.99183 15 4.19395ZM13 5.94395L7.842 9.62595C7.50311 9.86867 7.09684 9.99943 6.68 9.99995H4V14H6.68C7.09662 13.9999 7.50287 14.13 7.842 14.372L13 18.057V5.94395ZM18.255 6.86095C18.4319 6.66338 18.68 6.54416 18.9448 6.52954C19.2096 6.51491 19.4694 6.60607 19.667 6.78295C20.4017 7.43891 20.9894 8.24283 21.3915 9.14194C21.7935 10.0411 22.0009 11.015 22 12C22.0009 12.9849 21.7935 13.9589 21.3915 14.858C20.9894 15.7571 20.4017 16.561 19.667 17.217C19.5694 17.306 19.4551 17.3748 19.3308 17.4194C19.2064 17.464 19.0745 17.4835 18.9426 17.4769C18.8106 17.4702 18.6813 17.4374 18.5621 17.3805C18.4429 17.3236 18.3362 17.2436 18.2481 17.1452C18.1599 17.0467 18.0922 16.9318 18.0487 16.8071C18.0053 16.6823 17.987 16.5502 17.9949 16.4184C18.0028 16.2865 18.0367 16.1575 18.0948 16.0388C18.1528 15.9202 18.2338 15.8142 18.333 15.727C18.8582 15.2586 19.2782 14.6843 19.5656 14.0419C19.8529 13.3996 20.0009 12.7037 20 12C20 10.52 19.358 9.18995 18.333 8.27295C18.1354 8.09605 18.0162 7.84791 18.0016 7.58311C17.987 7.31831 18.0781 7.05855 18.255 6.86095ZM17.667 9.01895C18.0868 9.39381 18.4225 9.85317 18.6522 10.3669C18.882 10.8807 19.0005 11.4372 19 12C19.0006 12.5627 18.8822 13.1193 18.6524 13.6331C18.4227 14.1468 18.0869 14.6062 17.667 14.981C17.4774 15.1494 17.2308 15.2394 16.9773 15.2329C16.7237 15.2264 16.4821 15.1238 16.3014 14.9459C16.1206 14.7679 16.0143 14.528 16.0038 14.2745C15.9933 14.0211 16.0796 13.7732 16.245 13.581L16.333 13.491C16.743 13.123 17 12.592 17 12C17.0012 11.4879 16.8049 10.995 16.452 10.624L16.333 10.509C16.1382 10.3313 16.0215 10.0839 16.0082 9.82067C15.9949 9.55739 16.086 9.29951 16.2619 9.10311C16.4377 8.90671 16.684 8.78769 16.9471 8.77193C17.2103 8.75617 17.469 8.84495 17.667 9.01895Z" fill="currentColor"/>
</svg>
