<svg width="24" height="24" viewBox="0 0 24 24" fill="none" xmlns="http://www.w3.org/2000/svg">
<path fill-rule="evenodd" clip-rule="evenodd" d="M4.596 8.00002L6.596 10H4V14H6.68C7.09673 14.0003 7.50299 14.1307 7.842 14.373L13 18.057V16.404L15 18.404V19.806C15.0001 20.0082 14.9444 20.2065 14.8391 20.3792C14.7338 20.5518 14.583 20.6921 14.4031 20.7845C14.2233 20.877 14.0215 20.9182 13.8198 20.9034C13.6182 20.8887 13.4245 20.8187 13.26 20.701L6.68 16H4C3.46957 16 2.96086 15.7893 2.58579 15.4142C2.21071 15.0392 2 14.5304 2 14V10C2 9.46958 2.21071 8.96088 2.58579 8.5858C2.96086 8.21073 3.46957 8.00002 4 8.00002H4.596ZM13.261 3.30002C13.4175 3.18831 13.6005 3.11958 13.7919 3.10067C13.9832 3.08176 14.1762 3.11334 14.3515 3.19226C14.5269 3.27117 14.6785 3.39467 14.7912 3.55044C14.9039 3.7062 14.9738 3.8888 14.994 4.08002L15 4.19402V13.586L16.113 14.699C16.02 14.5208 15.9828 14.3188 16.0064 14.1192C16.0299 13.9195 16.1131 13.7317 16.245 13.58L16.333 13.491C16.743 13.123 17 12.592 17 12C17.0012 11.4879 16.8049 10.9951 16.452 10.624L16.333 10.509C16.2338 10.4218 16.1528 10.3158 16.0948 10.1971C16.0367 10.0785 16.0028 9.94948 15.9949 9.81762C15.987 9.68575 16.0053 9.55363 16.0487 9.42888C16.0922 9.30413 16.1599 9.18922 16.2481 9.0908C16.3362 8.99238 16.4429 8.9124 16.5621 8.85546C16.6813 8.79853 16.8106 8.76578 16.9426 8.75911C17.0745 8.75243 17.2064 8.77197 17.3308 8.81658C17.4551 8.86119 17.5694 8.92999 17.667 9.01902C18.0867 9.39391 18.4224 9.85328 18.6522 10.367C18.8819 10.8808 19.0004 11.4373 19 12C19.0006 12.5628 18.8822 13.1194 18.6524 13.6331C18.4227 14.1469 18.0869 14.6062 17.667 14.981C17.5325 15.1016 17.3679 15.1835 17.1905 15.218C17.0132 15.2525 16.8299 15.2383 16.66 15.177L16.537 15.123L18.007 16.593C17.9875 16.4331 18.0069 16.2708 18.0637 16.12C18.1205 15.9692 18.2129 15.8344 18.333 15.727C18.8582 15.2586 19.2782 14.6844 19.5656 14.042C19.8529 13.3996 20.0009 12.7037 20 12C20 10.52 19.358 9.19002 18.333 8.27302C18.2338 8.18582 18.1528 8.07982 18.0948 7.96115C18.0367 7.84248 18.0028 7.71348 17.9949 7.58162C17.987 7.44975 18.0053 7.31763 18.0487 7.19288C18.0922 7.06813 18.1599 6.95322 18.2481 6.8548C18.3362 6.75638 18.4429 6.6764 18.5621 6.61946C18.6813 6.56253 18.8106 6.52978 18.9426 6.52311C19.0745 6.51643 19.2064 6.53597 19.3308 6.58058C19.4551 6.62519 19.5694 6.69399 19.667 6.78302C20.4017 7.43897 20.9894 8.24289 21.3915 9.142C21.7935 10.0411 22.0009 11.0151 22 12C22.0009 12.9849 21.7935 13.9589 21.3915 14.858C20.9894 15.7571 20.4017 16.5611 19.667 17.217C19.4833 17.382 19.2449 17.4729 18.998 17.472L18.879 17.465L20.485 19.071C20.6643 19.251 20.7685 19.4924 20.7762 19.7464C20.784 20.0003 20.6948 20.2477 20.5268 20.4383C20.3587 20.6289 20.1244 20.7483 19.8715 20.7724C19.6186 20.7965 19.366 20.7234 19.165 20.568L19.071 20.485L3.515 4.93002C3.33565 4.75006 3.23153 4.50858 3.22377 4.25463C3.21602 4.00068 3.30522 3.7533 3.47325 3.56274C3.64128 3.37217 3.87555 3.25271 4.12847 3.22862C4.3814 3.20452 4.63401 3.2776 4.835 3.43302L4.929 3.51602L8.275 6.86002L13.261 3.29802V3.30002ZM13 5.94202L9.709 8.29402L13 11.586V5.94202Z" fill="currentColor"/>
</svg>
