<svg width="24" height="24" viewBox="0 0 24 24" fill="none" xmlns="http://www.w3.org/2000/svg">
<path fill-rule="evenodd" clip-rule="evenodd" d="M15 4.19395V19.806C15.0001 20.0082 14.9444 20.2065 14.8391 20.3791C14.7338 20.5517 14.583 20.692 14.4031 20.7845C14.2233 20.877 14.0215 20.9181 13.8198 20.9034C13.6182 20.8886 13.4245 20.8186 13.26 20.701L6.68 16H4C3.46957 16 2.96086 15.7892 2.58579 15.4142C2.21071 15.0391 2 14.5304 2 14V9.99995C2 9.46952 2.21071 8.96081 2.58579 8.58574C2.96086 8.21067 3.46957 7.99995 4 7.99995H6.68L13.26 3.29995C13.4244 3.18236 13.618 3.11232 13.8196 3.09755C14.0212 3.08277 14.2229 3.12382 14.4027 3.21619C14.5825 3.30856 14.7333 3.44868 14.8387 3.62117C14.9441 3.79365 14.9999 3.99183 15 4.19395ZM13 5.94395L7.842 9.62595C7.50311 9.86867 7.09684 9.99943 6.68 9.99995H4V14H6.68C7.09673 14.0002 7.50299 14.1306 7.842 14.373L13 18.057V5.94395ZM16.172 9.17195C16.3441 8.99963 16.5731 8.89601 16.8161 8.88055C17.0592 8.86508 17.2995 8.93883 17.492 9.08795L17.586 9.17195L19 10.586L20.414 9.17195C20.5935 8.9907 20.8356 8.88492 21.0905 8.87627C21.3455 8.86762 21.5942 8.95675 21.7856 9.12542C21.977 9.29409 22.0967 9.52954 22.1202 9.78358C22.1437 10.0376 22.0692 10.291 21.912 10.492L21.828 10.586L20.414 12L21.828 13.414C22.0093 13.5935 22.115 13.8355 22.1237 14.0905C22.1323 14.3455 22.0432 14.5941 21.8745 14.7855C21.7059 14.9769 21.4704 15.0967 21.2164 15.1202C20.9623 15.1437 20.7089 15.0692 20.508 14.912L20.414 14.828L19 13.415L17.586 14.83C17.4065 15.0112 17.1644 15.117 16.9095 15.1256C16.6545 15.1343 16.4058 15.0452 16.2144 14.8765C16.023 14.7078 15.9033 14.4724 15.8798 14.2183C15.8563 13.9643 15.9308 13.7109 16.088 13.51L16.172 13.415L17.586 12L16.172 10.586C15.9845 10.3984 15.8792 10.1441 15.8792 9.87895C15.8792 9.61379 15.9845 9.35948 16.172 9.17195Z" fill="currentColor"/>
</svg>
