<svg width="24" height="24" viewBox="0 0 24 24" fill="none" xmlns="http://www.w3.org/2000/svg">
<path fill-rule="evenodd" clip-rule="evenodd" d="M11.9999 2C12.7201 1.99943 13.4165 2.25799 13.9619 2.72845C14.5072 3.1989 14.8651 3.84985 14.9702 4.56237C15.0753 5.27489 14.9205 6.00143 14.5341 6.60927C14.1478 7.2171 13.5557 7.66566 12.8659 7.873L12.6959 7.919L15.1229 10.694L16.9469 11.606C17.1752 11.72 17.3513 11.917 17.4391 12.1566C17.527 12.3962 17.5198 12.6603 17.4193 12.8948C17.3187 13.1294 17.1322 13.3166 16.8981 13.4181C16.664 13.5197 16.3999 13.5278 16.1599 13.441L16.0529 13.394L14.2289 12.482C14.055 12.395 13.8946 12.2832 13.7529 12.15L13.6179 12.01L12.5999 10.847L11.9399 13.485C11.8803 13.725 11.7765 13.9519 11.6339 14.154L11.5239 14.296L13.4519 16.059C13.7001 16.2856 13.8872 16.571 13.9959 16.889L14.0429 17.049L14.7809 20H14.9999C15.2548 20.0003 15.5 20.0979 15.6853 20.2728C15.8706 20.4478 15.9822 20.687 15.9971 20.9414C16.012 21.1958 15.9292 21.4464 15.7657 21.6418C15.6021 21.8373 15.37 21.9629 15.1169 21.993L14.9999 22H14.0779C13.854 22 13.6353 21.9316 13.4513 21.804C13.2672 21.6764 13.1265 21.4957 13.0479 21.286L13.0109 21.166L12.1029 17.535L9.09292 14.783C8.71491 14.5905 8.40785 14.2829 8.21606 13.9045C8.02428 13.5262 7.95769 13.0967 8.02592 12.678L8.05992 12.515L8.57292 10.463L8.24992 10.693L6.85692 13.015C6.72575 13.234 6.51578 13.3946 6.27005 13.4637C6.02432 13.5329 5.76143 13.5055 5.53526 13.3871C5.30909 13.2687 5.13676 13.0683 5.05359 12.827C4.97041 12.5856 4.9827 12.3216 5.08792 12.089L5.14192 11.985L6.53492 9.664C6.64767 9.47593 6.79057 9.30769 6.95792 9.166L7.08792 9.066L9.84992 7.091C9.43896 6.66821 9.16169 6.13368 9.05277 5.55422C8.94385 4.97475 9.00809 4.37603 9.23748 3.83287C9.46686 3.2897 9.85122 2.82618 10.3425 2.5002C10.8338 2.17422 11.4103 2.00024 11.9999 2ZM8.04992 16.184C8.13012 15.9413 8.30018 15.7386 8.52518 15.6174C8.75019 15.4962 9.01306 15.4657 9.25982 15.5323C9.50657 15.5988 9.71848 15.7573 9.85203 15.9753C9.98557 16.1932 10.0306 16.4539 9.97792 16.704L9.94792 16.816L9.52192 18.092C9.44361 18.3273 9.32221 18.5461 9.16392 18.737L9.03892 18.874L7.38192 20.531C7.4896 20.7331 7.52468 20.9659 7.48131 21.1907C7.43793 21.4156 7.31873 21.6187 7.14361 21.7662C6.9685 21.9137 6.74807 21.9966 6.51916 22.0011C6.29025 22.0056 6.06672 21.9315 5.88592 21.791L5.79192 21.707L5.29892 21.214C5.12505 21.0401 5.02059 20.8088 5.00512 20.5634C4.98966 20.318 5.06425 20.0753 5.21492 19.881L5.29892 19.786L7.62492 17.46L8.04992 16.184ZM11.9999 4C11.7347 4 11.4803 4.10536 11.2928 4.29289C11.1053 4.48043 10.9999 4.73478 10.9999 5C10.9999 5.26522 11.1053 5.51957 11.2928 5.70711C11.4803 5.89464 11.7347 6 11.9999 6C12.2651 6 12.5195 5.89464 12.707 5.70711C12.8946 5.51957 12.9999 5.26522 12.9999 5C12.9999 4.73478 12.8946 4.48043 12.707 4.29289C12.5195 4.10536 12.2651 4 11.9999 4Z" fill="currentColor"/>
</svg>
