<svg width="24" height="24" viewBox="0 0 24 24" fill="none" xmlns="http://www.w3.org/2000/svg">
<path d="M16 4C16.2549 4.00028 16.5 4.09788 16.6854 4.27285C16.8707 4.44782 16.9822 4.68695 16.9972 4.94139C17.0121 5.19584 16.9293 5.44638 16.7657 5.64183C16.6021 5.83729 16.3701 5.9629 16.117 5.993L16 6H5.5C5.37505 5.99977 5.25455 6.04633 5.16222 6.13051C5.06988 6.21469 5.01241 6.33039 5.00112 6.45482C4.98984 6.57926 5.02554 6.70341 5.10122 6.80283C5.1769 6.90225 5.28705 6.96974 5.41 6.992L5.5 7H19C19.5046 6.99984 19.9906 7.19041 20.3605 7.5335C20.7305 7.87659 20.9572 8.34685 20.995 8.85L21 9V18C21.0002 18.5046 20.8096 18.9906 20.4665 19.3605C20.1234 19.7305 19.6532 19.9572 19.15 19.995L19 20H5C4.49542 20.0002 4.00943 19.8096 3.63945 19.4665C3.26947 19.1234 3.04284 18.6532 3.005 18.15L3 18V6.5C2.9999 5.86528 3.24123 5.25429 3.67504 4.79095C4.10885 4.32762 4.70265 4.04664 5.336 4.005L5.5 4H16ZM5 8.95V18H19V9H5.5C5.386 9 5.273 8.992 5.163 8.978L5 8.95ZM15.5 12C15.8978 12 16.2794 12.158 16.5607 12.4393C16.842 12.7206 17 13.1022 17 13.5C17 13.8978 16.842 14.2794 16.5607 14.5607C16.2794 14.842 15.8978 15 15.5 15C15.1022 15 14.7206 14.842 14.4393 14.5607C14.158 14.2794 14 13.8978 14 13.5C14 13.1022 14.158 12.7206 14.4393 12.4393C14.7206 12.158 15.1022 12 15.5 12Z" fill="currentColor"/>
</svg>
