<svg width="24" height="24" viewBox="0 0 24 24" fill="none" xmlns="http://www.w3.org/2000/svg">
<path fill-rule="evenodd" clip-rule="evenodd" d="M5 4C4.20435 4 3.44129 4.31607 2.87868 4.87868C2.31607 5.44129 2 6.20435 2 7V17C2 17.7956 2.31607 18.5587 2.87868 19.1213C3.44129 19.6839 4.20435 20 5 20H19C19.7956 20 20.5587 19.6839 21.1213 19.1213C21.6839 18.5587 22 17.7956 22 17V7C22 6.20435 21.6839 5.44129 21.1213 4.87868C20.5587 4.31607 19.7956 4 19 4H5ZM20 8.17V7C20 6.73478 19.8946 6.48043 19.7071 6.29289C19.5196 6.10536 19.2652 6 19 6H5C4.73478 6 4.48043 6.10536 4.29289 6.29289C4.10536 6.48043 4 6.73478 4 7V8.17C4.313 8.06 4.65 8 5 8H19C19.35 8 19.687 8.06 20 8.17ZM4 11V12H9C9.028 12 9.056 12.001 9.084 12.004C9.30489 11.9847 9.52594 12.0393 9.71239 12.1593C9.89884 12.2794 10.0401 12.4579 10.114 12.667C10.2522 13.0567 10.5077 13.3941 10.8454 13.6327C11.1831 13.8713 11.5865 13.9994 12 13.9994C12.4135 13.9994 12.8169 13.8713 13.1546 13.6327C13.4923 13.3941 13.7478 13.0567 13.886 12.667C13.9599 12.4579 14.1012 12.2794 14.2876 12.1593C14.4741 12.0393 14.6951 11.9847 14.916 12.004C14.943 12 14.972 12 15 12H20V11C20 10.7348 19.8946 10.4804 19.7071 10.2929C19.5196 10.1054 19.2652 10 19 10H5C4.73478 10 4.48043 10.1054 4.29289 10.2929C4.10536 10.4804 4 10.7348 4 11ZM15.465 14C15.114 14.6083 14.6089 15.1135 14.0007 15.4646C13.3924 15.8157 12.7023 16.0004 12 16C11.2977 16.0004 10.6076 15.8157 9.99934 15.4646C9.39105 15.1135 8.88599 14.6083 8.535 14H4V17C4 17.2652 4.10536 17.5196 4.29289 17.7071C4.48043 17.8946 4.73478 18 5 18H19C19.2652 18 19.5196 17.8946 19.7071 17.7071C19.8946 17.5196 20 17.2652 20 17V14H15.465Z" fill="currentColor"/>
</svg>
