<svg width="24" height="24" viewBox="0 0 24 24" fill="none" xmlns="http://www.w3.org/2000/svg">
<path fill-rule="evenodd" clip-rule="evenodd" d="M11.9999 3C9.71891 3 7.61291 3.288 6.04491 3.778C5.26691 4.021 4.56491 4.331 4.03491 4.723C3.24991 5.303 2.86291 6.188 3.01191 7.153L4.54691 17.134C4.88591 19.333 6.45091 21.294 8.79391 21.701C9.75591 21.868 10.8709 22 11.9999 22C13.1299 22 14.2439 21.868 15.2059 21.701C17.5489 21.295 19.1149 19.333 19.4529 17.134L20.9879 7.152C21.1369 6.188 20.7499 5.302 19.9659 4.722C19.4359 4.332 18.7329 4.021 17.9559 3.778C16.3849 3.288 14.2809 3 11.9999 3ZM6.64091 7.313C7.96991 7.728 9.86291 8 12.0009 8C14.1369 8 16.0309 7.728 17.3589 7.313C19.0009 6.8 19.1439 6.245 17.3589 5.687C16.0319 5.272 14.1369 5 11.9999 5C9.86291 5 7.96891 5.272 6.64091 5.687C4.85591 6.245 4.99991 6.8 6.64091 7.313ZM18.6859 8.963C16.5939 9.804 14.2319 10 11.9999 10C9.76791 10 7.40591 9.803 5.31391 8.964L6.52391 16.83C6.75591 18.337 7.78591 19.496 9.13591 19.73C10.0239 19.885 11.0189 20 11.9999 20C12.9809 20 13.9769 19.885 14.8639 19.73C16.2139 19.496 17.2439 18.337 17.4759 16.83L18.6859 8.963Z" fill="currentColor"/>
</svg>
