<svg width="24" height="24" viewBox="0 0 24 24" fill="none" xmlns="http://www.w3.org/2000/svg">
<path fill-rule="evenodd" clip-rule="evenodd" d="M8.83101 3.45C8.9505 3.03221 9.20282 2.66471 9.54978 2.40309C9.89674 2.14148 10.3195 1.99998 10.754 2H13.246C13.6805 1.99998 14.1033 2.14148 14.4502 2.40309C14.7972 2.66471 15.0495 3.03221 15.169 3.45L15.961 6.225L15.963 6.229C16.9001 6.87175 17.6663 7.73319 18.1955 8.73875C18.7247 9.74431 19.0008 10.8637 19 12C19.0008 13.1363 18.7247 14.2557 18.1955 15.2613C17.6663 16.2668 16.9001 17.1283 15.963 17.771L15.961 17.775L15.169 20.549C15.0497 20.967 14.7975 21.3347 14.4505 21.5965C14.1035 21.8583 13.6807 22 13.246 22H10.754C10.3195 22 9.89674 21.8585 9.54978 21.5969C9.20282 21.3353 8.9505 20.9678 8.83101 20.55L8.03801 17.775V17.771C7.10077 17.1284 6.33429 16.267 5.80493 15.2614C5.27558 14.2558 4.99929 13.1364 5.00001 12C4.99864 10.8629 5.27462 9.74268 5.804 8.73636C6.33339 7.73004 7.10021 6.86802 8.03801 6.225L8.83101 3.45ZM10.417 5.18C11.4586 4.93899 12.5414 4.93899 13.583 5.18L13.246 4H10.754L10.417 5.18ZM10.417 18.82L10.754 20H13.246L13.583 18.82C12.5414 19.0611 11.4586 19.0611 10.417 18.82ZM12 7C10.6739 7 9.40215 7.52678 8.46447 8.46447C7.52679 9.40215 7.00001 10.6739 7.00001 12C7.00001 13.3261 7.52679 14.5979 8.46447 15.5355C9.40215 16.4732 10.6739 17 12 17C13.3261 17 14.5979 16.4732 15.5355 15.5355C16.4732 14.5979 17 13.3261 17 12C17 10.6739 16.4732 9.40215 15.5355 8.46447C14.5979 7.52678 13.3261 7 12 7ZM12 8C12.2652 8 12.5196 8.10536 12.7071 8.29289C12.8946 8.48043 13 8.73478 13 9V11.586L14.207 12.793C14.3892 12.9816 14.49 13.2342 14.4877 13.4964C14.4854 13.7586 14.3802 14.0094 14.1948 14.1948C14.0094 14.3802 13.7586 14.4854 13.4964 14.4877C13.2342 14.49 12.9816 14.3892 12.793 14.207L11.293 12.707C11.1055 12.5195 11.0001 12.2652 11 12V9C11 8.73478 11.1054 8.48043 11.2929 8.29289C11.4804 8.10536 11.7348 8 12 8Z" fill="currentColor"/>
</svg>
