<svg width="24" height="24" viewBox="0 0 24 24" fill="none" xmlns="http://www.w3.org/2000/svg">
<path d="M18.2227 6.239C16.3691 5.95593 14.4739 6.14792 12.7147 6.797L12.3707 6.929C10.1861 7.81443 7.80306 8.09425 5.47273 7.739C4.47073 7.584 3.46573 7.349 2.55273 6.895C2.32482 6.78103 2.14902 6.58436 2.06123 6.34515C1.97344 6.10593 1.98027 5.84223 2.08034 5.60789C2.18041 5.37355 2.36616 5.18625 2.59966 5.08423C2.83316 4.98222 3.0968 4.9732 3.33673 5.059L3.44373 5.104C4.16473 5.455 4.99073 5.641 5.77673 5.762C7.63054 6.04443 9.5257 5.85175 11.2847 5.202L11.6287 5.072C13.8134 4.18657 16.1964 3.90674 18.5267 4.262C19.5137 4.414 20.5447 4.657 21.4467 5.105C21.5643 5.16366 21.6692 5.24491 21.7553 5.34411C21.8415 5.44332 21.9072 5.55853 21.9488 5.68316C21.9904 5.80779 22.0071 5.9394 21.9978 6.07046C21.9885 6.20153 21.9535 6.32948 21.8947 6.447C21.7743 6.68204 21.5666 6.86057 21.3161 6.94431C21.0656 7.02805 20.7923 7.01035 20.5547 6.895C19.8267 6.553 19.0127 6.36 18.2227 6.239ZM18.2227 12.239C16.3691 11.9559 14.4739 12.1479 12.7147 12.797L12.3707 12.929C10.1861 13.8145 7.80306 14.0943 5.47273 13.739C4.47073 13.584 3.46573 13.349 2.55273 12.895C2.32482 12.781 2.14902 12.5844 2.06123 12.3451C1.97344 12.1059 1.98027 11.8422 2.08034 11.6079C2.18041 11.3735 2.36616 11.1862 2.59966 11.0842C2.83316 10.9822 3.0968 10.9732 3.33673 11.059L3.44373 11.104C4.16473 11.455 4.99073 11.641 5.77673 11.762C7.63054 12.0444 9.5257 11.8517 11.2847 11.202L11.6287 11.072C13.8134 10.1866 16.1964 9.90674 18.5267 10.262C19.5137 10.414 20.5447 10.657 21.4467 11.105C21.5643 11.1637 21.6692 11.2449 21.7553 11.3441C21.8415 11.4433 21.9072 11.5585 21.9488 11.6832C21.9904 11.8078 22.0071 11.9394 21.9978 12.0705C21.9885 12.2015 21.9535 12.3295 21.8947 12.447C21.7743 12.682 21.5666 12.8606 21.3161 12.9443C21.0656 13.0281 20.7923 13.0104 20.5547 12.895C19.8267 12.553 19.0127 12.36 18.2227 12.239ZM12.0047 19.069L12.3707 18.929C14.6717 18.009 16.7357 18.009 18.2227 18.239C19.0127 18.36 19.8267 18.553 20.5537 18.895C20.7913 19.0104 21.0646 19.0281 21.3151 18.9443C21.5656 18.8606 21.7733 18.682 21.8937 18.447C21.9525 18.3295 21.9875 18.2015 21.9968 18.0705C22.0061 17.9394 21.9894 17.8078 21.9478 17.6832C21.9062 17.5585 21.8405 17.4433 21.7543 17.3441C21.6682 17.2449 21.5633 17.1637 21.4457 17.105C20.5447 16.657 19.5137 16.414 18.5267 16.262C16.3278 15.9263 14.0797 16.1569 11.9947 16.932L11.6287 17.072C9.77572 17.8245 7.75394 18.0629 5.77673 17.762C5.10273 17.658 4.40073 17.507 3.75873 17.245L3.44373 17.105C3.20757 16.9965 2.93846 16.9842 2.6934 17.0708C2.44835 17.1573 2.2466 17.3358 2.1309 17.5685C2.0152 17.8012 1.99463 18.0698 2.07356 18.3174C2.15249 18.565 2.3247 18.7722 2.55373 18.895C3.46573 19.35 4.47073 19.585 5.47273 19.738C7.15573 19.998 9.45273 20.008 12.0047 19.069Z" fill="currentColor"/>
</svg>
