<svg width="24" height="24" viewBox="0 0 24 24" fill="none" xmlns="http://www.w3.org/2000/svg">
<path fill-rule="evenodd" clip-rule="evenodd" d="M12 3C12.7494 3.00006 13.4836 3.21061 14.1192 3.60766C14.7547 4.00471 15.2659 4.57229 15.5945 5.24572C15.9231 5.91916 16.056 6.67137 15.978 7.41664C15.8999 8.16191 15.6141 8.87027 15.153 9.461L17.238 13.073C17.9592 12.9332 18.705 12.9948 19.3936 13.2509C20.0821 13.507 20.6868 13.9477 21.1414 14.5248C21.596 15.1019 21.8828 15.7931 21.9705 16.5225C22.0582 17.2518 21.9433 17.9913 21.6385 18.6597C21.3337 19.3281 20.8507 19.8996 20.2425 20.3116C19.6342 20.7236 18.9243 20.9602 18.1905 20.9953C17.4567 21.0305 16.7274 20.8629 16.0826 20.5109C15.4378 20.159 14.9024 19.6362 14.535 19H9.46504C9.09771 19.6362 8.56228 20.159 7.91746 20.5109C7.27264 20.8629 6.54334 21.0305 5.80956 20.9953C5.07577 20.9602 4.36584 20.7236 3.75762 20.3116C3.14941 19.8996 2.6664 19.3281 2.36158 18.6597C2.05675 17.9913 1.94189 17.2518 2.02958 16.5225C2.11727 15.7931 2.40413 15.1019 2.85869 14.5248C3.31326 13.9477 3.91798 13.507 4.60652 13.2509C5.29506 12.9948 6.04083 12.9332 6.76204 13.073L8.84704 9.46C8.3863 8.86926 8.10072 8.161 8.02283 7.41589C7.94493 6.67077 8.07786 5.91876 8.40647 5.2455C8.73507 4.57225 9.24614 4.0048 9.88148 3.6078C10.5168 3.2108 11.2509 3.00021 12 3ZM6.00004 15C5.46961 15 4.9609 15.2107 4.58583 15.5858C4.21075 15.9609 4.00004 16.4696 4.00004 17C4.00004 17.5304 4.21075 18.0391 4.58583 18.4142C4.9609 18.7893 5.46961 19 6.00004 19C6.53047 19 7.03918 18.7893 7.41425 18.4142C7.78933 18.0391 8.00004 17.5304 8.00004 17C8.00004 16.4696 7.78933 15.9609 7.41425 15.5858C7.03918 15.2107 6.53047 15 6.00004 15ZM18 15C17.7374 15.0001 17.4773 15.0519 17.2347 15.1524C16.9921 15.253 16.7716 15.4004 16.586 15.5861C16.4003 15.7719 16.253 15.9924 16.1526 16.2351C16.0521 16.4778 16.0005 16.7379 16.0005 17.0005C16.0006 17.2631 16.0524 17.5232 16.153 17.7658C16.2535 18.0085 16.4009 18.2289 16.5867 18.4146C16.7724 18.6002 16.993 18.7475 17.2356 18.8479C17.4783 18.9484 17.7384 19.0001 18.001 19C18.5315 18.9999 19.0401 18.789 19.4151 18.4139C19.7901 18.0387 20.0007 17.5299 20.0005 16.9995C20.0004 16.4691 19.7896 15.9604 19.4144 15.5854C19.0392 15.2105 18.5305 14.9999 18 15ZM13.552 10.688C13.0607 10.8946 12.533 11.0007 12 11C11.45 11 10.926 10.889 10.448 10.688L8.57204 13.937C9.01965 14.312 9.37951 14.7806 9.62625 15.3099C9.87299 15.8391 10.0006 16.4161 10 17H14C14 15.77 14.556 14.67 15.428 13.937L13.552 10.688ZM12 5C11.4696 5 10.9609 5.21071 10.5858 5.58579C10.2108 5.96086 10 6.46957 10 7C10 7.53043 10.2108 8.03914 10.5858 8.41421C10.9609 8.78929 11.4696 9 12 9C12.5305 9 13.0392 8.78929 13.4143 8.41421C13.7893 8.03914 14 7.53043 14 7C14 6.46957 13.7893 5.96086 13.4143 5.58579C13.0392 5.21071 12.5305 5 12 5Z" fill="currentColor"/>
</svg>
