<svg width="24" height="24" viewBox="0 0 24 24" fill="none" xmlns="http://www.w3.org/2000/svg">
<path fill-rule="evenodd" clip-rule="evenodd" d="M12 5C7.403 5 4 8.073 4 11.5C4 13.514 5.141 15.372 7.042 16.596C7.469 16.872 7.69 17.284 7.808 17.618C7.945 18.002 7.998 18.412 8.014 18.818C8.394 18.662 8.688 18.385 9.018 18.148V18.147C9.168 18.039 9.609 17.723 10.186 17.832C10.768 17.942 11.375 18 12 18C16.597 18 20 14.927 20 11.5C20 10.59 19.769 9.718 19.343 8.922L10.037 14.844C9.9228 14.9166 9.79506 14.9653 9.6615 14.9871C9.52794 15.0089 9.39135 15.0034 9.25999 14.9708C9.12863 14.9383 9.00525 14.8794 8.8973 14.7978C8.78936 14.7162 8.6991 14.6135 8.632 14.496L6.632 10.996C6.52246 10.8039 6.47966 10.581 6.5103 10.362C6.54094 10.143 6.64329 9.94039 6.80134 9.78577C6.9594 9.63114 7.16424 9.53326 7.38383 9.50743C7.60342 9.4816 7.82538 9.52927 8.015 9.643L9.595 10.59C9.73636 10.6749 9.89652 10.7235 10.0612 10.7316C10.2259 10.7396 10.3901 10.7068 10.539 10.636L17.91 7.126C16.463 5.836 14.37 5 12 5ZM2 11.5C2 6.643 6.656 3 12 3C15.454 3 18.552 4.49 20.362 6.83C21.389 8.16 22 9.764 22 11.5C22 16.357 17.344 20 12 20C11.347 20 10.708 19.947 10.089 19.845C9.996 19.918 9.836 20.05 9.639 20.189C9.07 20.59 8.249 21 7 21C6.73478 21 6.48043 20.8946 6.29289 20.7071C6.10536 20.5196 6 20.2652 6 20C6 19.611 6.046 19.258 6.009 18.771C5.995 18.597 5.979 18.405 5.906 18.244C3.577 16.723 2 14.298 2 11.5Z" fill="currentColor"/>
</svg>
