<svg width="24" height="24" viewBox="0 0 24 24" fill="none" xmlns="http://www.w3.org/2000/svg">
<path d="M12 2C17.523 2 22 6.477 22 12C22 17.523 17.523 22 12 22C6.477 22 2 17.523 2 12C2 6.477 6.477 2 12 2ZM12 4C9.87827 4 7.84344 4.84285 6.34315 6.34315C4.84285 7.84344 4 9.87827 4 12C4 14.1217 4.84285 16.1566 6.34315 17.6569C7.84344 19.1571 9.87827 20 12 20C14.1217 20 16.1566 19.1571 17.6569 17.6569C19.1571 16.1566 20 14.1217 20 12C20 9.87827 19.1571 7.84344 17.6569 6.34315C16.1566 4.84285 14.1217 4 12 4ZM13.741 6.99C14.2402 6.89018 14.7564 6.91518 15.2436 7.06276C15.7308 7.21034 16.1741 7.47595 16.534 7.836C18.059 9.36 17.586 11.917 15.669 12.818L15.496 12.893L15.406 12.929C15.1689 13.0247 14.9041 13.026 14.6661 12.9325C14.428 12.839 14.2349 12.6579 14.1263 12.4263C14.0177 12.1948 14.0019 11.9305 14.0822 11.6877C14.1625 11.4449 14.3328 11.2421 14.558 11.121L14.664 11.071L14.754 11.036C14.9961 10.9392 15.1956 10.759 15.3164 10.5279C15.4372 10.2969 15.4713 10.0302 15.4126 9.77614C15.3539 9.52209 15.2062 9.29744 14.9963 9.1428C14.7864 8.98816 14.528 8.91374 14.268 8.933L14.133 8.951L14.033 8.971C13.475 9.083 13.063 9.545 13.007 10.101L13 10.231V13.77C12.9999 14.4971 12.7585 15.2036 12.3137 15.7787C11.8688 16.3539 11.2457 16.7651 10.542 16.948L10.259 17.01C9.75987 17.1099 9.24378 17.0851 8.75655 16.9377C8.26932 16.7903 7.82602 16.5249 7.466 16.165C5.942 14.64 6.414 12.083 8.331 11.182L8.504 11.107L8.594 11.072C8.8306 10.9785 9.09392 10.9788 9.33036 11.0726C9.5668 11.1665 9.75858 11.3469 9.86665 11.5772C9.97473 11.8075 9.99097 12.0704 9.91208 12.3122C9.83318 12.554 9.66508 12.7567 9.442 12.879L9.336 12.929L9.247 12.964C9.00503 13.0608 8.80565 13.2409 8.68488 13.4719C8.56412 13.7028 8.52993 13.9693 8.5885 14.2233C8.64707 14.4772 8.79452 14.7019 9.00423 14.8566C9.21394 15.0113 9.47208 15.086 9.732 15.067L9.867 15.049L9.967 15.029C10.525 14.917 10.937 14.455 10.994 13.899L11 13.769V10.231C10.9999 9.50374 11.2412 8.797 11.686 8.22166C12.1309 7.64632 12.7541 7.23492 13.458 7.052L13.64 7.01L13.741 6.99Z" fill="currentColor"/>
</svg>
