<svg width="24" height="24" viewBox="0 0 24 24" fill="none" xmlns="http://www.w3.org/2000/svg">
<path d="M10 3C14.071 3 17.7 5.67 17.982 9.368C20.286 10.23 22 12.178 22 14.628C22 16.495 20.974 18.1 19.48 19.121C19.4585 19.2663 19.4512 19.4133 19.458 19.56L19.472 20C19.472 20.2652 19.3666 20.5196 19.1791 20.7071C18.9916 20.8946 18.7372 21 18.472 21C17.714 21 17.012 20.753 16.418 20.29C16.052 20.342 15.6827 20.3681 15.313 20.368C12.546 20.368 9.991 18.877 9.029 16.617C8.87721 16.6014 8.72583 16.5821 8.575 16.559C7.859 17.126 7.035 17.444 6.111 17.444C5.84578 17.444 5.59143 17.3386 5.40389 17.1511C5.21636 16.9636 5.111 16.7092 5.111 16.444L5.116 16.241L5.134 15.831C5.1444 15.6266 5.12486 15.4218 5.076 15.223C3.248 14.004 2 12.073 2 9.833C2 5.896 5.76 3 10 3ZM15.313 10.889C12.545 10.889 10.625 12.726 10.625 14.629C10.625 16.531 12.545 18.369 15.313 18.369C15.6747 18.369 16.0356 18.3352 16.391 18.268C16.825 18.186 17.21 18.368 17.541 18.628C17.64 18.195 17.865 17.786 18.247 17.54C19.363 16.82 20 15.753 20 14.629C20 12.726 18.08 10.889 15.313 10.889ZM10 5C6.508 5 4 7.327 4 9.833C4 11.31 4.837 12.691 6.264 13.61C6.795 13.953 7.024 14.567 7.094 15.169L7.576 14.827C7.884 14.619 8.206 14.461 8.626 14.539C8.682 11.253 11.829 8.889 15.313 8.889C15.505 8.889 15.696 8.896 15.886 8.91C15.362 6.784 13.059 5 10 5ZM13.62 13C13.8852 13 14.1396 13.1054 14.3271 13.2929C14.5146 13.4804 14.62 13.7348 14.62 14C14.62 14.2652 14.5146 14.5196 14.3271 14.7071C14.1396 14.8946 13.8852 15 13.62 15C13.3548 15 13.1004 14.8946 12.9129 14.7071C12.7254 14.5196 12.62 14.2652 12.62 14C12.62 13.7348 12.7254 13.4804 12.9129 13.2929C13.1004 13.1054 13.3548 13 13.62 13ZM17 13C17.2652 13 17.5196 13.1054 17.7071 13.2929C17.8946 13.4804 18 13.7348 18 14C18 14.2652 17.8946 14.5196 17.7071 14.7071C17.5196 14.8946 17.2652 15 17 15C16.7348 15 16.4804 14.8946 16.2929 14.7071C16.1054 14.5196 16 14.2652 16 14C16 13.7348 16.1054 13.4804 16.2929 13.2929C16.4804 13.1054 16.7348 13 17 13ZM8 7C8.26522 7 8.51957 7.10536 8.70711 7.29289C8.89464 7.48043 9 7.73478 9 8C9 8.26522 8.89464 8.51957 8.70711 8.70711C8.51957 8.89464 8.26522 9 8 9C7.73478 9 7.48043 8.89464 7.29289 8.70711C7.10536 8.51957 7 8.26522 7 8C7 7.73478 7.10536 7.48043 7.29289 7.29289C7.48043 7.10536 7.73478 7 8 7ZM12 7C12.2652 7 12.5196 7.10536 12.7071 7.29289C12.8946 7.48043 13 7.73478 13 8C13 8.26522 12.8946 8.51957 12.7071 8.70711C12.5196 8.89464 12.2652 9 12 9C11.7348 9 11.4804 8.89464 11.2929 8.70711C11.1054 8.51957 11 8.26522 11 8C11 7.73478 11.1054 7.48043 11.2929 7.29289C11.4804 7.10536 11.7348 7 12 7Z" fill="currentColor"/>
</svg>
