<svg width="24" height="24" viewBox="0 0 24 24" fill="none" xmlns="http://www.w3.org/2000/svg">
<path d="M13.12 5.815C13.67 6.352 13.946 7.055 13.983 7.807C15.658 7.305 17.028 7.445 17.92 8.307C18.768 9.127 18.857 10.274 18.537 11.271C19.9 11.961 21 13.058 21 14.715C21 16.645 19.744 18.241 18.038 19.301C16.318 20.371 14.004 21 11.5 21C8.996 21 6.682 20.37 4.962 19.301C3.256 18.241 2 16.646 2 14.715C2 12.953 2.842 11.126 4.05 9.559C5.32427 7.9192 6.93465 6.57102 8.773 5.605C10.408 4.758 12.059 4.777 13.12 5.815ZM11.721 7.245C11.508 7.035 10.892 6.76 9.693 7.381C8.11338 8.21286 6.72927 9.37196 5.633 10.781C4.576 12.154 4 13.558 4 14.715C4 15.703 4.647 16.75 6.018 17.603C7.374 18.446 9.309 19 11.5 19C13.69 19 15.627 18.446 16.982 17.603C18.353 16.75 19 15.703 19 14.715C19 14.004 18.44 13.276 16.84 12.724C16.691 12.6725 16.5563 12.5866 16.4468 12.4732C16.3374 12.3598 16.2563 12.2221 16.2102 12.0713C16.1641 11.9206 16.1542 11.7611 16.1815 11.6059C16.2087 11.4506 16.2723 11.304 16.367 11.178C16.862 10.518 16.722 9.93 16.53 9.745L16.482 9.705L16.415 9.663C16.078 9.477 15.141 9.295 13.08 10.324C12.8933 10.4172 12.6821 10.4497 12.476 10.4169C12.2698 10.384 12.0792 10.2876 11.9307 10.1409C11.7822 9.99428 11.6832 9.80485 11.6478 9.59917C11.6124 9.3935 11.6421 9.18189 11.733 8.994C12.177 8.074 11.958 7.478 11.721 7.245ZM17 3C18.576 3 20.128 3.643 21.243 4.757C22.3632 5.88569 22.9943 7.4098 23 9C23 9.26522 22.8946 9.51957 22.7071 9.70711C22.5196 9.89464 22.2652 10 22 10C21.7348 10 21.4804 9.89464 21.2929 9.70711C21.1054 9.51957 21 9.26522 21 9C21 7.95 20.571 6.914 19.828 6.172C19.0758 5.42512 18.06 5.00414 17 5C16.7348 5 16.4804 4.89464 16.2929 4.70711C16.1054 4.51957 16 4.26522 16 4C16 3.73478 16.1054 3.48043 16.2929 3.29289C16.4804 3.10536 16.7348 3 17 3Z" fill="currentColor"/>
</svg>
