<svg width="24" height="24" viewBox="0 0 24 24" fill="none" xmlns="http://www.w3.org/2000/svg">
<path fill-rule="evenodd" clip-rule="evenodd" d="M16.696 2.37801C16.9147 2.17538 17.2019 2.06281 17.5 2.06281C17.7981 2.06281 18.0853 2.17538 18.304 2.37801C18.584 2.63601 19.234 3.27001 19.821 4.10201C20.39 4.91001 21 6.04201 21 7.27801C21 9.25201 19.512 11 17.5 11C15.489 11 14 9.25201 14 7.27801C14 6.04301 14.61 4.91001 15.18 4.10201C15.6257 3.47755 16.1337 2.89992 16.696 2.37801ZM17.5 4.40601C17.254 4.67422 17.0249 4.95743 16.814 5.25401C16.324 5.94901 16 6.66401 16 7.27801C16 8.31001 16.75 9.00001 17.5 9.00001C18.25 9.00001 19 8.31001 19 7.27801C19 6.66401 18.676 5.94901 18.186 5.25401C17.9751 4.95743 17.746 4.67422 17.5 4.40601ZM4.708 5.36301C4.925 5.16653 5.20727 5.05773 5.5 5.05773C5.79273 5.05773 6.075 5.16653 6.292 5.36301C6.498 5.54901 6.9 5.93601 7.258 6.43601C7.6 6.91301 8 7.62701 8 8.44401C8 9.82101 6.915 11 5.5 11C4.085 11 3 9.82001 3 8.44401C3 7.62701 3.4 6.91301 3.742 6.43601C4.1 5.93601 4.502 5.54901 4.708 5.36301ZM5.5 7.42701C5.45441 7.48378 5.41039 7.5418 5.368 7.60101C5.11 7.96001 5 8.25401 5 8.44401C5 8.78601 5.258 9.00001 5.5 9.00001C5.742 9.00001 6 8.78601 6 8.44401C6 8.25401 5.89 7.96101 5.632 7.60101C5.5896 7.54181 5.54559 7.48379 5.5 7.42701ZM10.21 9.36101C10.4272 9.16648 10.7085 9.05891 11 9.05891C11.2915 9.05891 11.5728 9.16648 11.79 9.36101C12.6501 10.1349 13.4309 10.9924 14.121 11.921C15.044 13.175 16 14.894 16 16.722C16 19.572 13.824 22 11 22C8.176 22 6 19.573 6 16.722C6 14.894 6.956 13.175 7.879 11.921C8.56931 10.9923 9.35051 10.1347 10.211 9.36101H10.21ZM11 11.366C10.58 11.782 10.018 12.388 9.49 13.106C8.643 14.256 8 15.544 8 16.722C8 18.597 9.405 20 11 20C12.595 20 14 18.597 14 16.722C14 15.544 13.357 14.257 12.51 13.106C12.0514 12.4887 11.5466 11.907 11 11.366Z" fill="currentColor"/>
</svg>
