<svg width="24" height="24" viewBox="0 0 24 24" fill="none" xmlns="http://www.w3.org/2000/svg">
<path fill-rule="evenodd" clip-rule="evenodd" d="M2 3C2 2.73478 2.10536 2.48043 2.29289 2.29289C2.48043 2.10536 2.73478 2 3 2H4.165C4.63339 1.99993 5.08695 2.16425 5.44659 2.46433C5.80624 2.7644 6.04916 3.18118 6.133 3.642L6.562 6H15.174C15.9225 6.00016 16.6438 6.28008 17.1965 6.78482C17.7491 7.28955 18.0931 7.98263 18.161 8.728L18.565 13.175C18.615 13.21 18.663 13.249 18.707 13.293L20.414 15H21C21.2652 15 21.5196 15.1054 21.7071 15.2929C21.8946 15.4804 22 15.7348 22 16C22 16.2652 21.8946 16.5196 21.7071 16.7071C21.5196 16.8946 21.2652 17 21 17H20C19.7348 16.9999 19.4805 16.8946 19.293 16.707L18.846 16.26L18.929 17.178C19.4621 17.3914 19.9055 17.7817 20.1847 18.2835C20.4639 18.7853 20.5618 19.3679 20.462 19.9334C20.3623 20.4988 20.0709 21.0127 19.6369 21.3887C19.2028 21.7646 18.6526 21.9797 18.0787 21.9978C17.5048 22.0158 16.9421 21.8358 16.4853 21.4879C16.0285 21.1399 15.7054 20.6454 15.5702 20.0873C15.4351 19.5292 15.4962 18.9416 15.7433 18.4233C15.9904 17.9049 16.4084 17.4875 16.927 17.241L16.723 15H13.917C14.1024 16.0979 13.9786 17.2257 13.5596 18.2572C13.1405 19.2888 12.4427 20.1834 11.5442 20.8409C10.6457 21.4985 9.58196 21.8931 8.47199 21.9805C7.36201 22.068 6.2496 21.8448 5.25921 21.3361C4.26882 20.8273 3.43953 20.053 2.86412 19.0998C2.2887 18.1466 1.98987 17.0521 2.00106 15.9388C2.01225 14.8254 2.33301 13.7371 2.92746 12.7957C3.5219 11.8542 4.36659 11.0967 5.367 10.608L4.165 4H3C2.73478 4 2.48043 3.89464 2.29289 3.70711C2.10536 3.51957 2 3.26522 2 3ZM7.297 10.04C8.46217 9.90213 9.64218 10.1091 10.6909 10.6352C11.7396 11.1613 12.6109 11.9836 13.197 13H16.541L16.169 8.91C16.1465 8.66154 16.032 8.43044 15.8479 8.26208C15.6638 8.09371 15.4235 8.00024 15.174 8H6.925L7.297 10.04ZM8 12C6.96103 12.0329 5.97561 12.4687 5.25229 13.2152C4.52897 13.9618 4.12451 14.9605 4.12451 16C4.12451 17.0395 4.52897 18.0382 5.25229 18.7848C5.97561 19.5313 6.96103 19.9671 8 20C9.06087 20 10.0783 19.5786 10.8284 18.8284C11.5786 18.0783 12 17.0609 12 16C12 14.9391 11.5786 13.9217 10.8284 13.1716C10.0783 12.4214 9.06087 12 8 12ZM18 19C17.8674 19 17.7402 19.0527 17.6464 19.1464C17.5527 19.2402 17.5 19.3674 17.5 19.5C17.5 19.6326 17.5527 19.7598 17.6464 19.8536C17.7402 19.9473 17.8674 20 18 20C18.1326 20 18.2598 19.9473 18.3536 19.8536C18.4473 19.7598 18.5 19.6326 18.5 19.5C18.5 19.3674 18.4473 19.2402 18.3536 19.1464C18.2598 19.0527 18.1326 19 18 19Z" fill="currentColor"/>
</svg>
