<svg width="24" height="24" viewBox="0 0 24 24" fill="none" xmlns="http://www.w3.org/2000/svg">
<path fill-rule="evenodd" clip-rule="evenodd" d="M2.63806 4.92899C2.93589 4.63125 3.30412 4.41356 3.70856 4.29615C4.113 4.17874 4.54055 4.16539 4.95152 4.25736C5.3625 4.34934 5.74358 4.54364 6.0594 4.82224C6.37522 5.10083 6.61554 5.4547 6.75806 5.85099C7.9847 5.36161 9.32472 5.22906 10.6235 5.46864C11.9222 5.70822 13.1268 6.31016 14.0981 7.20499L14.3051 7.40299L22.0831 15.182C22.2552 15.3542 22.3587 15.5833 22.3739 15.8263C22.3892 16.0693 22.3153 16.3096 22.1661 16.502L22.0831 16.596L19.9621 18.717C19.8122 18.8669 19.6186 18.9653 19.4092 18.998C19.1998 19.0307 18.9855 18.996 18.7971 18.899L18.6861 18.832L15.1021 16.352C14.0777 17.8369 12.5197 18.869 10.7529 19.233C8.98614 19.5971 7.14701 19.2651 5.61908 18.3062C4.09115 17.3473 2.99239 15.8355 2.55195 14.0862C2.1115 12.3369 2.36338 10.4851 3.25506 8.91699C2.90599 8.73611 2.60451 8.47546 2.37509 8.1562C2.14567 7.83694 1.99478 7.46807 1.93467 7.07955C1.87456 6.69102 1.90692 6.2938 2.02914 5.92014C2.15136 5.54647 2.35997 5.2069 2.63806 4.92899ZM5.82006 8.81799C5.30531 9.33382 4.90954 9.95593 4.66045 10.6408C4.41137 11.3256 4.31499 12.0566 4.37807 12.7826C4.44115 13.5086 4.66216 14.212 5.02562 14.8436C5.38909 15.4753 5.88623 16.0198 6.48222 16.4391C7.07822 16.8584 7.75868 17.1424 8.47594 17.2712C9.19321 17.3999 9.92995 17.3703 10.6346 17.1844C11.3392 16.9986 11.9947 16.6609 12.5551 16.1952C13.1156 15.7294 13.5674 15.1467 13.8791 14.488C13.941 14.3567 14.0307 14.2405 14.1421 14.1474C14.2534 14.0543 14.3837 13.9866 14.5239 13.9489C14.664 13.9112 14.8107 13.9045 14.9537 13.9292C15.0967 13.9539 15.2327 14.0095 15.3521 14.092L19.1381 16.712L19.9621 15.889L12.8911 8.81799C11.9534 7.88033 10.6816 7.35356 9.35556 7.35356C8.02949 7.35356 6.75774 7.88033 5.82006 8.81799ZM11.4761 10.232C11.7584 10.5097 11.9829 10.8406 12.1368 11.2055C12.2906 11.5704 12.3706 11.9622 12.3723 12.3582C12.374 12.7542 12.2972 13.1466 12.1464 13.5128C11.9957 13.879 11.7739 14.2118 11.4939 14.4918C11.2139 14.7719 10.8812 14.9938 10.5151 15.1446C10.1489 15.2954 9.75649 15.3723 9.36047 15.3707C8.96445 15.3692 8.57266 15.2892 8.2077 15.1355C7.84274 14.9817 7.51183 14.7573 7.23406 14.475C6.6714 13.9123 6.3553 13.1492 6.3553 12.3535C6.3553 11.5578 6.6714 10.7946 7.23406 10.232C7.79671 9.66934 8.55984 9.35324 9.35556 9.35324C10.1513 9.35324 10.9144 9.66934 11.4771 10.232M8.64906 11.647C8.55355 11.7392 8.47736 11.8496 8.42495 11.9716C8.37254 12.0936 8.34496 12.2248 8.34381 12.3576C8.34265 12.4904 8.36795 12.6221 8.41823 12.7449C8.46852 12.8678 8.54277 12.9795 8.63666 13.0734C8.73055 13.1673 8.84221 13.2415 8.9651 13.2918C9.088 13.3421 9.21968 13.3674 9.35246 13.3662C9.48524 13.3651 9.61646 13.3375 9.73846 13.2851C9.86046 13.2327 9.97081 13.1565 10.0631 13.061C10.2507 12.8735 10.3562 12.6191 10.3563 12.3538C10.3564 12.0886 10.2511 11.8341 10.0636 11.6465C9.87605 11.4589 9.62168 11.3534 9.35641 11.3533C9.09114 11.3532 8.8367 11.4585 8.64906 11.646M4.76006 6.34199C4.71393 6.29424 4.65876 6.25615 4.59776 6.22994C4.53676 6.20374 4.47115 6.18994 4.40476 6.18937C4.33837 6.18879 4.27253 6.20144 4.21108 6.22658C4.14963 6.25172 4.0938 6.28885 4.04686 6.33579C3.99991 6.38274 3.96279 6.43857 3.93764 6.50002C3.9125 6.56146 3.89985 6.6273 3.90043 6.69369C3.90101 6.76008 3.9148 6.82569 3.941 6.88669C3.96721 6.9477 4.0053 7.00287 4.05306 7.04899C4.14736 7.14007 4.27366 7.19047 4.40476 7.18933C4.53585 7.18819 4.66126 7.13561 4.75396 7.0429C4.84667 6.9502 4.89925 6.82479 4.90039 6.69369C4.90153 6.56259 4.85114 6.43629 4.76006 6.34199Z" fill="currentColor"/>
</svg>
