<svg width="24" height="24" viewBox="0 0 24 24" fill="none" xmlns="http://www.w3.org/2000/svg">
<path d="M12.0001 17C12.2653 17 12.5196 17.1054 12.7072 17.2929C12.8947 17.4804 13.0001 17.7348 13.0001 18C13.0001 18.2652 12.8947 18.5196 12.7072 18.7071C12.5196 18.8947 12.2653 19 12.0001 19C11.7348 19 11.4805 18.8947 11.2929 18.7071C11.1054 18.5196 11.0001 18.2652 11.0001 18C11.0001 17.7348 11.1054 17.4804 11.2929 17.2929C11.4805 17.1054 11.7348 17 12.0001 17ZM12.0001 13C13.3801 13 14.6321 13.56 15.5361 14.464C15.7237 14.6516 15.8291 14.9061 15.8291 15.1715C15.8291 15.4369 15.7237 15.6914 15.5361 15.879C15.3484 16.0666 15.0939 16.1721 14.8286 16.1721C14.5632 16.1721 14.3087 16.0666 14.1211 15.879C13.8429 15.5999 13.5124 15.3785 13.1484 15.2277C12.7843 15.0768 12.3941 14.9994 12.0001 15C11.1711 15 10.4231 15.335 9.87906 15.879C9.69141 16.0666 9.43692 16.1721 9.17156 16.1721C8.90619 16.1721 8.6517 16.0666 8.46406 15.879C8.27641 15.6914 8.171 15.4369 8.171 15.1715C8.171 14.9061 8.27641 14.6516 8.46406 14.464C8.92802 13.9992 9.47922 13.6305 10.086 13.3793C10.6928 13.1281 11.3433 12.9992 12.0001 13ZM12.0001 9.00001C13.1822 8.99863 14.3529 9.23079 15.445 9.68316C16.5371 10.1355 17.5291 10.7992 18.3641 11.636C18.5462 11.8246 18.647 12.0772 18.6447 12.3394C18.6425 12.6016 18.5373 12.8524 18.3519 13.0378C18.1665 13.2232 17.9157 13.3284 17.6535 13.3307C17.3913 13.333 17.1387 13.2322 16.9501 13.05C16.3008 12.3989 15.5292 11.8826 14.6797 11.5308C13.8302 11.179 12.9195 10.9986 12.0001 11C11.0806 10.9986 10.1699 11.179 9.32037 11.5308C8.47086 11.8826 7.69929 12.3989 7.05006 13.05C6.86145 13.2322 6.60885 13.333 6.34665 13.3307C6.08446 13.3284 5.83365 13.2232 5.64824 13.0378C5.46283 12.8524 5.35766 12.6016 5.35538 12.3394C5.3531 12.0772 5.4539 11.8246 5.63606 11.636C6.47097 10.7992 7.46297 10.1355 8.5551 9.68316C9.64722 9.23079 10.818 8.99863 12.0001 9.00001ZM12.0001 5.00001C15.5901 5.00001 18.8401 6.45601 21.1921 8.80801C21.3742 8.99661 21.475 9.24921 21.4727 9.51141C21.4704 9.77361 21.3653 10.0244 21.1799 10.2098C20.9945 10.3952 20.7437 10.5004 20.4815 10.5027C20.2193 10.505 19.9667 10.4042 19.7781 10.222C18.7579 9.19887 17.5455 8.38749 16.2107 7.83454C14.8759 7.28159 13.4449 6.99798 12.0001 7.00001C10.5552 6.99787 9.1242 7.28143 7.78935 7.83439C6.45449 8.38735 5.24215 9.19878 4.22206 10.222C4.03345 10.4042 3.78085 10.505 3.51865 10.5027C3.25646 10.5004 3.00565 10.3952 2.82024 10.2098C2.63483 10.0244 2.52966 9.77361 2.52738 9.51141C2.5251 9.24921 2.6259 8.99661 2.80806 8.80801C4.01389 7.59914 5.44668 6.64042 7.02413 5.98693C8.60158 5.33343 10.2926 4.99804 12.0001 5.00001Z" fill="currentColor"/>
</svg>
