<svg width="24" height="24" viewBox="0 0 24 24" fill="none" xmlns="http://www.w3.org/2000/svg">
<path fill-rule="evenodd" clip-rule="evenodd" d="M10.5 4C10.1543 3.99988 9.81925 4.11915 9.5514 4.33762C9.28354 4.5561 9.09936 4.86038 9.03 5.199C9.0038 5.3277 8.95251 5.44997 8.87906 5.55884C8.8056 5.66772 8.71142 5.76106 8.6019 5.83353C8.49237 5.90601 8.36964 5.9562 8.24072 5.98125C8.11179 6.00629 7.9792 6.0057 7.8505 5.9795C7.7218 5.9533 7.59953 5.90201 7.49066 5.82856C7.38178 5.7551 7.28844 5.66092 7.21597 5.5514C7.14349 5.44187 7.0933 5.31914 7.06825 5.19022C7.04321 5.06129 7.0438 4.9287 7.07 4.8C7.20244 4.15116 7.51625 3.5532 7.97496 3.07559C8.43367 2.59797 9.01847 2.26029 9.66144 2.10176C10.3044 1.94324 10.9792 1.97037 11.6073 2.18002C12.2355 2.38967 12.7913 2.77322 13.2101 3.28613C13.629 3.79904 13.8938 4.42026 13.9737 5.07764C14.0536 5.73503 13.9454 6.40159 13.6616 6.99992C13.3778 7.59825 12.9301 8.10379 12.3705 8.45782C11.8108 8.81186 11.1622 8.99987 10.5 9H5C4.73478 9 4.48043 8.89464 4.29289 8.70711C4.10536 8.51957 4 8.26522 4 8C4 7.73478 4.10536 7.48043 4.29289 7.29289C4.48043 7.10536 4.73478 7 5 7H10.5C10.8978 7 11.2794 6.84196 11.5607 6.56066C11.842 6.27936 12 5.89783 12 5.5C12 5.10218 11.842 4.72064 11.5607 4.43934C11.2794 4.15804 10.8978 4 10.5 4ZM18.5 8C18.1543 7.99988 17.8193 8.11915 17.5514 8.33762C17.2835 8.5561 17.0994 8.86038 17.03 9.199C17.0039 9.3277 16.9526 9.44998 16.8792 9.55888C16.8059 9.66778 16.7117 9.76116 16.6023 9.83368C16.4928 9.9062 16.3701 9.95645 16.2412 9.98156C16.1123 10.0067 15.9797 10.0061 15.851 9.98C15.7223 9.95387 15.6 9.90264 15.4911 9.82925C15.3822 9.75585 15.2888 9.66173 15.2163 9.55225C15.1438 9.44277 15.0935 9.32008 15.0684 9.19118C15.0433 9.06228 15.0439 8.9297 15.07 8.801C15.2023 8.15207 15.5159 7.55398 15.9746 7.07621C16.4332 6.59844 17.018 6.2606 17.661 6.10193C18.3039 5.94326 18.9787 5.97028 19.607 6.17984C20.2352 6.3894 20.7911 6.77291 21.2101 7.28581C21.6291 7.79872 21.8939 8.41996 21.9739 9.07739C22.0538 9.73482 21.9456 10.4014 21.6618 10.9998C21.3781 11.5982 20.9303 12.1038 20.3706 12.4579C19.8109 12.8119 19.1623 12.9999 18.5 13H3C2.73478 13 2.48043 12.8946 2.29289 12.7071C2.10536 12.5196 2 12.2652 2 12C2 11.7348 2.10536 11.4804 2.29289 11.2929C2.48043 11.1054 2.73478 11 3 11H18.5C18.8978 11 19.2794 10.842 19.5607 10.5607C19.842 10.2794 20 9.89782 20 9.5C20 9.10218 19.842 8.72064 19.5607 8.43934C19.2794 8.15804 18.8978 8 18.5 8ZM13.03 18.801C13.0869 19.079 13.2216 19.3351 13.4182 19.5397C13.6149 19.7442 13.8656 19.8888 14.1411 19.9566C14.4166 20.0244 14.7058 20.0126 14.9749 19.9227C15.244 19.8327 15.4821 19.6683 15.6615 19.4485C15.841 19.2287 15.9544 18.9624 15.9886 18.6808C16.0228 18.3991 15.9763 18.1135 15.8547 17.8571C15.7331 17.6007 15.5413 17.3841 15.3015 17.2324C15.0617 17.0807 14.7838 17.0001 14.5 17H8C7.73478 17 7.48043 16.8946 7.29289 16.7071C7.10536 16.5196 7 16.2652 7 16C7 15.7348 7.10536 15.4804 7.29289 15.2929C7.48043 15.1054 7.73478 15 8 15H14.5C15.1623 15.0001 15.8109 15.1881 16.3706 15.5421C16.9303 15.8962 17.3781 16.4018 17.6618 17.0002C17.9456 17.5986 18.0538 18.2652 17.9739 18.9226C17.8939 19.58 17.6291 20.2013 17.2101 20.7142C16.7911 21.2271 16.2352 21.6106 15.607 21.8202C14.9787 22.0297 14.3039 22.0567 13.661 21.8981C13.018 21.7394 12.4332 21.4016 11.9746 20.9238C11.5159 20.446 11.2023 19.8479 11.07 19.199C11.0172 18.9391 11.0699 18.6689 11.2163 18.4478C11.3628 18.2266 11.5911 18.0728 11.851 18.02C12.1109 17.9672 12.3811 18.0199 12.6023 18.1663C12.8234 18.3128 12.9772 18.5411 13.03 18.801Z" fill="currentColor"/>
</svg>
