<svg width="24" height="24" viewBox="0 0 24 24" fill="none" xmlns="http://www.w3.org/2000/svg">
<path fill-rule="evenodd" clip-rule="evenodd" d="M4.00008 6.414C2.74008 5.154 3.63208 3 5.41408 3H18.5861C20.3681 3 21.2601 5.154 20.0001 6.414L13.0001 13.414V19H15.0001C15.2653 19 15.5196 19.1054 15.7072 19.2929C15.8947 19.4804 16.0001 19.7348 16.0001 20C16.0001 20.2652 15.8947 20.5196 15.7072 20.7071C15.5196 20.8946 15.2653 21 15.0001 21H9.00008C8.73486 21 8.48051 20.8946 8.29297 20.7071C8.10543 20.5196 8.00008 20.2652 8.00008 20C8.00008 19.7348 8.10543 19.4804 8.29297 19.2929C8.48051 19.1054 8.73486 19 9.00008 19H11.0001V13.414L4.00008 6.414ZM5.41408 5L12.0001 11.586L18.5861 5H5.41408Z" fill="currentColor"/>
</svg>
