<svg width="24" height="24" viewBox="0 0 24 24" fill="none" xmlns="http://www.w3.org/2000/svg">
<path fill-rule="evenodd" clip-rule="evenodd" d="M11.42 2C10.9183 2.00002 10.435 2.18859 10.0658 2.5283C9.69665 2.86801 9.46864 3.33405 9.427 3.834L9.044 8.436L7.336 9.574C6.92507 9.84793 6.58812 10.2191 6.35506 10.6545C6.122 11.0899 6.00004 11.5761 6 12.07V19C6 19.7956 6.31607 20.5587 6.87868 21.1213C7.44129 21.6839 8.20435 22 9 22H15C15.7956 22 16.5587 21.6839 17.1213 21.1213C17.6839 20.5587 18 19.7956 18 19V12.07C18 11.5761 17.878 11.0899 17.6449 10.6545C17.4119 10.2191 17.0749 9.84793 16.664 9.574L14.956 8.436L14.573 3.834C14.5314 3.33405 14.3034 2.86801 13.9342 2.5283C13.565 2.18859 13.0817 2.00002 12.58 2H11.42ZM16 14H12C11.7348 14 11.4804 14.1054 11.2929 14.2929C11.1054 14.4804 11 14.7348 11 15C11 15.2652 11.1054 15.5196 11.2929 15.7071C11.4804 15.8946 11.7348 16 12 16H16V19C16 19.2652 15.8946 19.5196 15.7071 19.7071C15.5196 19.8946 15.2652 20 15 20H9C8.73478 20 8.48043 19.8946 8.29289 19.7071C8.10536 19.5196 8 19.2652 8 19V12.07C7.99998 11.9054 8.04058 11.7434 8.11821 11.5982C8.19583 11.4531 8.30808 11.3293 8.445 11.238L10.153 10.1C10.4036 9.93298 10.6133 9.71152 10.7664 9.45213C10.9194 9.19275 11.012 8.90214 11.037 8.602L11.42 4H12.58L12.963 8.602C12.988 8.90214 13.0806 9.19275 13.2336 9.45213C13.3867 9.71152 13.5964 9.93298 13.847 10.1L15.555 11.238C15.6919 11.3293 15.8042 11.4531 15.8818 11.5982C15.9594 11.7434 16 11.9054 16 12.07V14Z" fill="currentColor"/>
</svg>
