<svg width="24" height="24" viewBox="0 0 24 24" fill="none" xmlns="http://www.w3.org/2000/svg">
<path fill-rule="evenodd" clip-rule="evenodd" d="M5.84671 3.549C5.94826 3.10868 6.19606 2.71579 6.54968 2.43446C6.9033 2.15313 7.34183 1.99998 7.79371 2H16.2057C17.1357 2 17.9437 2.642 18.1527 3.549L19.1757 7.98C20.1637 12.264 17.2147 16.368 12.9977 16.934C12.9991 16.956 12.9998 16.978 12.9997 17V20H15.9997C16.2649 20 16.5193 20.1054 16.7068 20.2929C16.8944 20.4804 16.9997 20.7348 16.9997 21C16.9997 21.2652 16.8944 21.5196 16.7068 21.7071C16.5193 21.8946 16.2649 22 15.9997 22H7.99971C7.73449 22 7.48014 21.8946 7.2926 21.7071C7.10507 21.5196 6.99971 21.2652 6.99971 21C6.99971 20.7348 7.10507 20.4804 7.2926 20.2929C7.48014 20.1054 7.73449 20 7.99971 20H10.9997V17C10.9997 16.978 10.9997 16.956 11.0017 16.934C6.78571 16.368 3.83571 12.264 4.82471 7.98L5.84671 3.549ZM7.79571 4L6.77271 8.43C5.99771 11.79 8.55071 15 11.9997 15C15.4497 15 18.0027 11.791 17.2267 8.43L16.2047 4H7.79571Z" fill="currentColor"/>
</svg>
