<svg width="24" height="24" viewBox="0 0 24 24" fill="none" xmlns="http://www.w3.org/2000/svg">
<path fill-rule="evenodd" clip-rule="evenodd" d="M4.73382 5.056C6.28382 4.516 8.64582 4 11.9998 4C15.3538 4 17.7158 4.516 19.2658 5.056C20.0738 5.336 20.9448 5.678 21.6238 6.218C21.9578 6.486 22.0868 6.95 21.9358 7.351L18.9358 15.351C18.845 15.5933 18.6639 15.7909 18.4304 15.9025C18.1969 16.014 17.9293 16.0307 17.6838 15.949C17.1 15.762 16.5073 15.6041 15.9078 15.476C14.8808 15.248 13.5548 15.026 12.2318 15.002L12.6768 16.661C12.9479 16.798 13.1711 17.0141 13.3167 17.2807C13.4623 17.5473 13.5236 17.8518 13.4924 18.154C13.4612 18.4561 13.3389 18.7417 13.1419 18.9729C12.9448 19.2041 12.6822 19.3699 12.3888 19.4486C12.0954 19.5273 11.785 19.515 11.4987 19.4134C11.2124 19.3118 10.9637 19.1257 10.7855 18.8797C10.6073 18.6337 10.508 18.3394 10.5008 18.0357C10.4935 17.732 10.5786 17.4333 10.7448 17.179L10.1918 15.114C9.42782 15.205 8.70682 15.34 8.09182 15.476C7.49582 15.609 6.90182 15.758 6.31982 15.947L6.31582 15.949C6.07031 16.0307 5.80271 16.014 5.56924 15.9025C5.33577 15.7909 5.15461 15.5933 5.06382 15.351L2.06382 7.351C1.98971 7.15362 1.97988 6.93786 2.03573 6.73456C2.09158 6.53126 2.21027 6.35081 2.37482 6.219C3.05382 5.678 3.92582 5.336 4.73382 5.056ZM11.9998 13C11.8988 13 11.7968 13.001 11.6968 13.003L10.6368 9.048C10.6034 8.92061 10.5451 8.80107 10.4653 8.69627C10.3855 8.59147 10.2858 8.50346 10.1719 8.4373C10.058 8.37114 9.93218 8.32813 9.80162 8.31075C9.67106 8.29336 9.53835 8.30194 9.41111 8.33598C9.28387 8.37003 9.16462 8.42888 9.06019 8.50915C8.95576 8.58942 8.86822 8.68953 8.80259 8.80373C8.73696 8.91793 8.69454 9.04397 8.67776 9.17461C8.66098 9.30525 8.67018 9.43792 8.70482 9.565L9.66882 13.165C8.63768 13.3061 7.61636 13.5115 6.61082 13.78L4.22882 7.429C4.60519 7.24223 4.99335 7.08022 5.39082 6.944C6.71582 6.485 8.85382 6 12.0008 6C15.1458 6 17.2838 6.484 18.6088 6.944C19.1058 7.117 19.4888 7.287 19.7708 7.429L17.3898 13.78C17.0423 13.6873 16.6929 13.6019 16.3418 13.524C15.1788 13.266 13.6008 13 11.9998 13Z" fill="currentColor"/>
</svg>
