<svg width="24" height="24" viewBox="0 0 24 24" fill="none" xmlns="http://www.w3.org/2000/svg">
<path fill-rule="evenodd" clip-rule="evenodd" d="M3 4.60303C2.99991 4.38261 3.0484 4.16488 3.14202 3.96533C3.23563 3.76578 3.37208 3.58932 3.54164 3.44849C3.71121 3.30766 3.90972 3.20594 4.12307 3.15055C4.33641 3.09516 4.55935 3.08747 4.776 3.12803L19.37 5.86403C19.8283 5.9503 20.242 6.194 20.5396 6.55299C20.8373 6.91198 21.0001 7.3637 21 7.83003V16.17C21.0001 16.6365 20.8371 17.0883 20.5393 17.4473C20.2414 17.8064 19.8275 18.05 19.369 18.136L4.776 20.872C4.55943 20.9126 4.33658 20.9049 4.12331 20.8496C3.91004 20.7942 3.71157 20.6926 3.54203 20.5519C3.37248 20.4112 3.23602 20.2348 3.14233 20.0354C3.04865 19.836 3.00006 19.6184 3 19.398V4.60303ZM5 5.20503V18.795L19 16.17V7.83003L5 5.20503Z" fill="currentColor"/>
</svg>
