<svg width="24" height="24" viewBox="0 0 24 24" fill="none" xmlns="http://www.w3.org/2000/svg">
<path d="M5.70692 4.293C5.51832 4.11084 5.26571 4.01005 5.00352 4.01232C4.74132 4.0146 4.49051 4.11977 4.3051 4.30518C4.11969 4.49059 4.01452 4.7414 4.01224 5.0036C4.00997 5.26579 4.11076 5.5184 4.29292 5.707L8.46392 9.88C8.92823 10.3444 9.47948 10.7128 10.0862 10.9642C10.6929 11.2156 11.3432 11.3449 11.9999 11.3449C12.6566 11.3449 13.3069 11.2156 13.9136 10.9642C14.5204 10.7128 15.0716 10.3444 15.5359 9.88L19.7069 5.708C19.8891 5.5194 19.9899 5.26679 19.9876 5.0046C19.9853 4.7424 19.8801 4.49159 19.6947 4.30618C19.5093 4.12077 19.2585 4.0156 18.9963 4.01333C18.7341 4.01105 18.4815 4.11184 18.2929 4.294L14.1199 8.464C13.5573 9.02641 12.7944 9.34236 11.9989 9.34236C11.2034 9.34236 10.4405 9.02641 9.87792 8.464L5.70692 4.293ZM5.70692 19.707C5.51832 19.8892 5.26571 19.99 5.00352 19.9877C4.74132 19.9854 4.49051 19.8802 4.3051 19.6948C4.11969 19.5094 4.01452 19.2586 4.01224 18.9964C4.00997 18.7342 4.11076 18.4816 4.29292 18.293L8.46392 14.121C8.92823 13.6566 9.47948 13.2882 10.0862 13.0368C10.6929 12.7854 11.3432 12.6561 11.9999 12.6561C12.6566 12.6561 13.3069 12.7854 13.9136 13.0368C14.5204 13.2882 15.0716 13.6566 15.5359 14.121L19.7069 18.293C19.8891 18.4816 19.9899 18.7342 19.9876 18.9964C19.9853 19.2586 19.8801 19.5094 19.6947 19.6948C19.5093 19.8802 19.2585 19.9854 18.9963 19.9877C18.7341 19.99 18.4815 19.8892 18.2929 19.707L14.1209 15.536C13.5583 14.9736 12.7954 14.6576 11.9999 14.6576C11.2044 14.6576 10.4415 14.9736 9.87892 15.536L5.70692 19.707Z" fill="currentColor"/>
</svg>
