<svg width="24" height="24" viewBox="0 0 24 24" fill="none" xmlns="http://www.w3.org/2000/svg">
<path d="M12 2C17.523 2 22 6.477 22 12C22 17.523 17.523 22 12 22C6.477 22 2 17.523 2 12C2 6.477 6.477 2 12 2ZM8.441 4.833C6.98546 5.55627 5.78464 6.70557 4.99828 8.12802C4.21193 9.55047 3.87732 11.1786 4.03897 12.7959C4.20062 14.4132 4.85087 15.9429 5.90321 17.1816C6.95555 18.4202 8.3601 19.3091 9.93 19.73V19.728C10.8095 19.9608 11.7451 19.8421 12.5385 19.3969C13.3319 18.9516 13.9207 18.215 14.1803 17.343C14.4398 16.471 14.3496 15.5323 13.9288 14.7257C13.508 13.9191 12.7897 13.308 11.926 13.022L11.742 12.967C10.9203 12.7471 10.1608 12.3396 9.52325 11.7765C8.88568 11.2134 8.3874 10.5101 8.06758 9.72192C7.74776 8.93371 7.61512 8.08207 7.68009 7.23394C7.74506 6.3858 8.00586 5.5643 8.442 4.834L8.441 4.833ZM9.784 6.747C9.55226 7.61145 9.66048 8.53182 10.0864 9.31894C10.5123 10.1061 11.2236 10.7001 12.074 10.979L12.259 11.034C13.0807 11.2539 13.8402 11.6614 14.4778 12.2245C15.1153 12.7876 15.6136 13.4909 15.9334 14.2791C16.2532 15.0673 16.3859 15.9189 16.3209 16.7671C16.2559 17.6152 15.9951 18.4367 15.559 19.167C17.0146 18.4438 18.2154 17.2946 19.0018 15.8722C19.7883 14.4498 20.123 12.8217 19.9614 11.2044C19.7999 9.58718 19.1498 8.05743 18.0975 6.81871C17.0453 5.57998 15.6408 4.69099 14.071 4.27V4.272C13.1744 4.0316 12.2191 4.1572 11.4151 4.62116C10.6112 5.08512 10.0244 5.84945 9.784 6.746V6.747ZM10.741 14.768C11.1253 14.871 11.4529 15.1225 11.6518 15.4671C11.8507 15.8117 11.9045 16.2212 11.8015 16.6055C11.6985 16.9898 11.447 17.3174 11.1024 17.5163C10.7578 17.7152 10.3483 17.769 9.964 17.666C9.77371 17.615 9.59534 17.527 9.43906 17.407C9.28279 17.2871 9.15167 17.1375 9.05319 16.9669C8.85431 16.6223 8.80046 16.2128 8.9035 15.8285C9.00654 15.4442 9.25802 15.1166 9.60261 14.9177C9.94721 14.7188 10.3567 14.665 10.741 14.768ZM14.036 6.334C14.2263 6.38502 14.4047 6.47302 14.5609 6.59297C14.7172 6.71292 14.8483 6.86249 14.9468 7.03311C15.0453 7.20374 15.1092 7.39209 15.1349 7.58742C15.1606 7.78274 15.1475 7.98122 15.0965 8.1715C15.0455 8.36179 14.9575 8.54016 14.8375 8.69644C14.7176 8.85271 14.568 8.98383 14.3974 9.08231C14.2268 9.18079 14.0384 9.24469 13.8431 9.27037C13.6478 9.29606 13.4493 9.28302 13.259 9.232C12.8747 9.12896 12.5471 8.87748 12.3482 8.53289C12.1493 8.18829 12.0955 7.7788 12.1985 7.3945C12.3015 7.0102 12.553 6.68257 12.8976 6.48369C13.2422 6.28481 13.6517 6.23096 14.036 6.334Z" fill="currentColor"/>
</svg>
