<svg width="24" height="24" viewBox="0 0 24 24" fill="none" xmlns="http://www.w3.org/2000/svg">
<path fill-rule="evenodd" clip-rule="evenodd" d="M7.49402 7.83005C7.90213 6.98146 8.54157 6.26535 9.33873 5.76416C10.1359 5.26297 11.0584 4.99707 12 4.99707C12.9417 4.99707 13.8641 5.26297 14.6613 5.76416C15.4585 6.26535 16.0979 6.98146 16.506 7.83005C17.005 7.45805 17.553 7.07605 18.106 6.86205C18.5006 6.70029 18.9284 6.63615 19.353 6.67505C19.819 6.72505 20.244 6.91505 20.624 7.21905C21.498 7.91905 21.753 9.15305 21.718 10.2691C21.682 11.4491 21.322 12.8021 20.628 14.0781C19.226 16.6601 16.41 19.0001 12 19.0001C7.59002 19.0001 4.77502 16.6601 3.37102 14.0781C2.67802 12.8021 2.31802 11.4501 2.28102 10.2681C2.24702 9.15305 2.50102 7.91805 3.37502 7.21905C3.75502 6.91505 4.18102 6.72605 4.64702 6.67505C5.10302 6.62605 5.52402 6.71905 5.89302 6.86205C6.44602 7.07605 6.99502 7.45805 7.49302 7.83105M9.15602 9.04105C9.35701 8.44639 9.73941 7.92972 10.2494 7.56376C10.7594 7.1978 11.3713 7.00097 11.999 7.00097C12.6267 7.00097 13.2386 7.1978 13.7486 7.56376C14.2586 7.92972 14.641 8.44639 14.842 9.04105C13.977 9.59805 13.07 10.0011 11.999 10.0011C10.929 10.0011 10.021 9.59805 9.15602 9.04105ZM7.04502 10.0001C8.23302 10.8931 9.86502 12.0001 12 12.0001C14.134 12.0001 15.767 10.8931 16.954 10.0001C17.556 9.54705 18.118 9.00305 18.831 8.72605C19.039 8.64505 19.197 8.63805 19.375 8.78105C19.501 8.88205 19.747 9.29705 19.719 10.2071C19.693 11.0501 19.428 12.0981 18.871 13.1231C17.775 15.1401 15.59 17.0001 12 17.0001C8.41002 17.0001 6.22502 15.1401 5.12902 13.1231C4.57202 12.0981 4.30702 11.0501 4.28102 10.2071C4.25302 9.29705 4.49802 8.88205 4.62502 8.78105C4.80302 8.63805 4.96002 8.64505 5.16902 8.72605C5.88202 9.00305 6.44402 9.54705 7.04502 10.0001Z" fill="currentColor"/>
</svg>
