<svg width="24" height="24" viewBox="0 0 24 24" fill="none" xmlns="http://www.w3.org/2000/svg">
<path d="M8 12C8.674 12 9.28 12.396 9.556 13.002L9.61 13.134L11.942 19.664C12.028 19.9043 12.0188 20.1684 11.9164 20.4021C11.8139 20.6359 11.626 20.8216 11.3911 20.9213C11.1561 21.021 10.892 21.0271 10.6527 20.9384C10.4134 20.8497 10.2171 20.6728 10.104 20.444L10.058 20.336L9.581 19H6.419L5.942 20.336C5.85716 20.5775 5.68297 20.7772 5.4553 20.8941C5.22762 21.011 4.9638 21.0362 4.71813 20.9644C4.47247 20.8926 4.26367 20.7294 4.13473 20.5083C4.00579 20.2873 3.96651 20.0252 4.025 19.776L4.058 19.664L6.39 13.134C6.50874 12.8021 6.72716 12.515 7.01537 12.312C7.30357 12.109 7.64748 12 8 12ZM17 4C17.2652 4 17.5196 4.10536 17.7071 4.29289C17.8946 4.48043 18 4.73478 18 5V17.414L19.121 16.293C19.2138 16.2001 19.3241 16.1264 19.4454 16.0761C19.5667 16.0258 19.6968 15.9998 19.8281 15.9998C19.9595 15.9998 20.0896 16.0256 20.2109 16.0758C20.3323 16.126 20.4426 16.1997 20.5355 16.2925C20.6284 16.3853 20.7021 16.4956 20.7524 16.6169C20.8027 16.7382 20.8287 16.8683 20.8287 16.9996C20.8287 17.131 20.8029 17.2611 20.7527 17.3824C20.7025 17.5038 20.6288 17.6141 20.536 17.707L17.707 20.535C17.5195 20.7225 17.2652 20.8278 17 20.8278C16.7348 20.8278 16.4805 20.7225 16.293 20.535L13.465 17.707C13.2828 17.5184 13.182 17.2658 13.1843 17.0036C13.1866 16.7414 13.2918 16.4906 13.4772 16.3052C13.6626 16.1198 13.9134 16.0146 14.1756 16.0123C14.4378 16.01 14.6904 16.1108 14.879 16.293L16 17.414V5C16 4.73478 16.1054 4.48043 16.2929 4.29289C16.4804 4.10536 16.7348 4 17 4ZM8 14.573L7.133 17H8.867L8 14.573ZM10.759 3C11.699 3 12.189 4.092 11.614 4.792L11.536 4.878L7.414 9H11C11.2549 9.00028 11.5 9.09788 11.6854 9.27285C11.8707 9.44782 11.9822 9.68695 11.9972 9.94139C12.0121 10.1958 11.9293 10.4464 11.7657 10.6418C11.6021 10.8373 11.3701 10.9629 11.117 10.993L11 11H5.241C4.301 11 3.811 9.908 4.386 9.208L4.464 9.122L8.586 5H5C4.74512 4.99972 4.49996 4.90212 4.31463 4.72715C4.12929 4.55218 4.01776 4.31305 4.00282 4.05861C3.98789 3.80416 4.07067 3.55362 4.23426 3.35817C4.39785 3.16271 4.6299 3.0371 4.883 3.007L5 3H10.759Z" fill="currentColor"/>
</svg>
