<svg width="24" height="24" viewBox="0 0 24 24" fill="none" xmlns="http://www.w3.org/2000/svg">
<path d="M17.707 4.293L20.536 7.121C20.7236 7.30864 20.8291 7.56314 20.8291 7.8285C20.8291 8.09386 20.7236 8.34836 20.536 8.536C20.3484 8.72364 20.0939 8.82906 19.8285 8.82906C19.5631 8.82906 19.3086 8.72364 19.121 8.536L18 7.414V20C18 20.2652 17.8946 20.5196 17.7071 20.7071C17.5196 20.8946 17.2652 21 17 21C16.7348 21 16.4804 20.8946 16.2929 20.7071C16.1054 20.5196 16 20.2652 16 20V7.414L14.879 8.536C14.7861 8.62891 14.6758 8.70261 14.5544 8.75289C14.433 8.80318 14.3029 8.82906 14.1715 8.82906C14.0401 8.82906 13.91 8.80318 13.7886 8.75289C13.6672 8.70261 13.5569 8.62891 13.464 8.536C13.3711 8.44309 13.2974 8.33279 13.2471 8.2114C13.1968 8.09 13.1709 7.95989 13.1709 7.8285C13.1709 7.6971 13.1968 7.567 13.2471 7.4456C13.2974 7.32421 13.3711 7.21391 13.464 7.121L16.293 4.293C16.4805 4.10553 16.7348 4.00021 17 4.00021C17.2652 4.00021 17.5195 4.10553 17.707 4.293ZM8 12C8.674 12 9.28 12.396 9.556 13.002L9.61 13.134L11.942 19.664C12.028 19.9043 12.0188 20.1684 11.9164 20.4021C11.8139 20.6359 11.626 20.8216 11.3911 20.9213C11.1561 21.021 10.892 21.0271 10.6527 20.9384C10.4134 20.8497 10.2171 20.6728 10.104 20.444L10.058 20.336L9.581 19H6.419L5.942 20.336C5.85716 20.5775 5.68297 20.7772 5.4553 20.8941C5.22762 21.011 4.9638 21.0362 4.71813 20.9644C4.47247 20.8926 4.26367 20.7294 4.13473 20.5083C4.00579 20.2873 3.96651 20.0252 4.025 19.776L4.058 19.664L6.39 13.134C6.50874 12.8021 6.72716 12.515 7.01537 12.312C7.30357 12.109 7.64748 12 8 12ZM8 14.573L7.133 17H8.867L8 14.573ZM10.759 3C11.699 3 12.189 4.092 11.614 4.792L11.536 4.878L7.414 9H11C11.2549 9.00028 11.5 9.09788 11.6854 9.27285C11.8707 9.44782 11.9822 9.68695 11.9972 9.94139C12.0121 10.1958 11.9293 10.4464 11.7657 10.6418C11.6021 10.8373 11.3701 10.9629 11.117 10.993L11 11H5.241C4.301 11 3.811 9.908 4.386 9.208L4.464 9.122L8.586 5H5C4.74512 4.99972 4.49996 4.90212 4.31463 4.72715C4.12929 4.55218 4.01776 4.31305 4.00282 4.05861C3.98789 3.80416 4.07067 3.55362 4.23426 3.35817C4.39785 3.16271 4.6299 3.0371 4.883 3.007L5 3H10.759Z" fill="currentColor"/>
</svg>
