<svg width="24" height="24" viewBox="0 0 24 24" fill="none" xmlns="http://www.w3.org/2000/svg">
<path d="M10.5003 2C12.0685 1.99989 13.6062 2.43364 14.9432 3.25327C16.2803 4.07289 17.3645 5.24643 18.0759 6.64403C18.7873 8.04163 19.0982 9.6088 18.9742 11.1721C18.8502 12.7355 18.2961 14.234 17.3733 15.502L17.1763 15.762L20.8283 19.414C21.0095 19.5935 21.1153 19.8356 21.1239 20.0905C21.1326 20.3455 21.0435 20.5942 20.8748 20.7856C20.7061 20.977 20.4707 21.0967 20.2166 21.1202C19.9626 21.1437 19.7092 21.0692 19.5083 20.912L19.4143 20.828L15.7623 17.176C14.6977 18.015 13.448 18.5872 12.1173 18.8449C10.7866 19.1026 9.41358 19.0384 8.11277 18.6576C6.81196 18.2768 5.62108 17.5904 4.63949 16.6557C3.6579 15.7211 2.91406 14.5652 2.47003 13.2846C2.026 12.004 1.89466 10.6357 2.08696 9.29404C2.27926 7.95235 2.78963 6.67609 3.57549 5.57175C4.36135 4.46742 5.3999 3.56702 6.60451 2.94569C7.80912 2.32436 9.14485 2.00012 10.5003 2ZM10.5003 4C8.77635 4 7.12305 4.68482 5.90406 5.90381C4.68507 7.12279 4.00025 8.77609 4.00025 10.5C4.00025 12.2239 4.68507 13.8772 5.90406 15.0962C7.12305 16.3152 8.77635 17 10.5003 17C12.2242 17 13.8775 16.3152 15.0964 15.0962C16.3154 13.8772 17.0003 12.2239 17.0003 10.5C17.0003 8.77609 16.3154 7.12279 15.0964 5.90381C13.8775 4.68482 12.2242 4 10.5003 4ZM10.5003 6C10.7452 6.00003 10.9816 6.08996 11.1646 6.25272C11.3477 6.41547 11.4646 6.63975 11.4933 6.883L11.5003 7V9.5H14.0003C14.2551 9.50028 14.5003 9.59788 14.6856 9.77285C14.871 9.94782 14.9825 10.187 14.9974 10.4414C15.0124 10.6958 14.9296 10.9464 14.766 11.1418C14.6024 11.3373 14.3703 11.4629 14.1173 11.493L14.0003 11.5H11.5003V14C11.5 14.2549 11.4024 14.5 11.2274 14.6854C11.0524 14.8707 10.8133 14.9822 10.5589 14.9972C10.3044 15.0121 10.0539 14.9293 9.85842 14.7657C9.66297 14.6021 9.53736 14.3701 9.50725 14.117L9.50025 14V11.5H7.00025C6.74537 11.4997 6.50022 11.4021 6.31489 11.2272C6.12955 11.0522 6.01802 10.813 6.00308 10.5586C5.98814 10.3042 6.07093 10.0536 6.23452 9.85817C6.39811 9.66271 6.63016 9.5371 6.88325 9.507L7.00025 9.5H9.50025V7C9.50025 6.73478 9.60561 6.48043 9.79315 6.29289C9.98068 6.10536 10.235 6 10.5003 6Z" fill="currentColor"/>
</svg>
