<svg width="24" height="24" viewBox="0 0 24 24" fill="none" xmlns="http://www.w3.org/2000/svg">
<path fill-rule="evenodd" clip-rule="evenodd" d="M12 4C9.87828 4 7.84345 4.84285 6.34316 6.34315C4.84287 7.84344 4.00001 9.87827 4.00001 12C4.00001 14.1217 4.84287 16.1566 6.34316 17.6569C7.84345 19.1571 9.87828 20 12 20C14.1217 20 16.1566 19.1571 17.6569 17.6569C19.1572 16.1566 20 14.1217 20 12C20 9.87827 19.1572 7.84344 17.6569 6.34315C16.1566 4.84285 14.1217 4 12 4ZM11 10C10.7348 10 10.4804 10.1054 10.2929 10.2929C10.1054 10.4804 10 10.7348 10 11H11V10ZM10 15V13H11V15C11 15.2652 11.1054 15.5196 11.2929 15.7071C11.4804 15.8946 11.7348 16 12 16H14C14.5304 16 15.0392 15.7893 15.4142 15.4142C15.7893 15.0391 16 14.5304 16 14V10C16 9.46957 15.7893 8.96086 15.4142 8.58579C15.0392 8.21071 14.5304 8 14 8H11C10.2044 8 9.4413 8.31607 8.87869 8.87868C8.31608 9.44129 8.00001 10.2044 8.00001 11V15C8.00001 15.2652 8.10537 15.5196 8.29291 15.7071C8.48044 15.8946 8.7348 16 9.00001 16C9.26523 16 9.51958 15.8946 9.70712 15.7071C9.89465 15.5196 10 15.2652 10 15ZM14 14H13V13H14V14ZM14 11H13V10H14V11ZM4.79901 6.6C4.95814 6.38783 5.02647 6.12113 4.98896 5.85858C4.95145 5.59603 4.81118 5.35913 4.59901 5.2C4.38684 5.04087 4.12014 4.97254 3.85759 5.01005C3.59504 5.04756 3.35814 5.18783 3.19901 5.4C1.76847 7.30268 0.996536 9.61953 1.00001 12C1.00001 14.475 1.81901 16.762 3.20001 18.6C3.27721 18.7092 3.37551 18.8017 3.48911 18.8723C3.60271 18.9428 3.72929 18.9898 3.86138 19.0105C3.99346 19.0313 4.12836 19.0253 4.2581 18.993C4.38784 18.9607 4.50979 18.9027 4.61673 18.8224C4.72366 18.7422 4.81342 18.6413 4.88069 18.5258C4.94796 18.4102 4.99138 18.2823 5.00838 18.1497C5.02537 18.0171 5.0156 17.8824 4.97964 17.7537C4.94368 17.6249 4.88226 17.5046 4.79901 17.4C3.62811 15.8435 2.99653 13.9477 3.00001 12C3.00001 9.973 3.67001 8.105 4.79901 6.6ZM20.8 5.4C20.7228 5.29084 20.6245 5.19826 20.5109 5.12775C20.3973 5.05724 20.2707 5.01022 20.1386 4.98948C20.0066 4.96875 19.8717 4.9747 19.7419 5.00701C19.6122 5.03931 19.4902 5.09731 19.3833 5.17756C19.2764 5.25781 19.1866 5.3587 19.1193 5.47424C19.0521 5.58979 19.0086 5.71765 18.9916 5.85027C18.9747 5.98289 18.9844 6.11757 19.0204 6.24634C19.0563 6.37512 19.1178 6.49537 19.201 6.6C20.3719 8.15649 21.0035 10.0523 21 12C21 14.027 20.33 15.895 19.201 17.4C19.0419 17.6122 18.9736 17.8789 19.0111 18.1414C19.0486 18.404 19.1888 18.6409 19.401 18.8C19.6132 18.9591 19.8799 19.0275 20.1424 18.99C20.405 18.9524 20.6419 18.8122 20.801 18.6C22.2316 16.6973 23.0035 14.3805 23 12C23 9.525 22.181 7.238 20.8 5.4Z" fill="currentColor"/>
</svg>
