<svg width="24" height="24" viewBox="0 0 24 24" fill="none" xmlns="http://www.w3.org/2000/svg">
<path d="M12 2C17.523 2 22 6.477 22 12C22 17.523 17.523 22 12 22C6.477 22 2 17.523 2 12C2 6.477 6.477 2 12 2ZM9.22 8H8.78C8.33401 8.00007 7.90084 8.1492 7.54933 8.42371C7.19782 8.69821 6.94815 9.08232 6.84 9.515L5.53 14.758C5.4956 14.8862 5.48707 15.02 5.50492 15.1516C5.52277 15.2831 5.56664 15.4098 5.63397 15.5243C5.7013 15.6387 5.79074 15.7386 5.89707 15.818C6.00341 15.8975 6.12451 15.9551 6.25331 15.9873C6.38211 16.0195 6.51603 16.0257 6.64726 16.0056C6.7785 15.9855 6.90441 15.9395 7.01767 15.8702C7.13092 15.8009 7.22925 15.7098 7.30691 15.6021C7.38457 15.4944 7.44001 15.3723 7.47 15.243L7.78 14H10.22L10.53 15.242C10.56 15.3713 10.6154 15.4934 10.6931 15.6011C10.7708 15.7088 10.8691 15.7999 10.9823 15.8692C11.0956 15.9385 11.2215 15.9845 11.3527 16.0046C11.484 16.0247 11.6179 16.0185 11.7467 15.9863C11.8755 15.9541 11.9966 15.8965 12.1029 15.817C12.2093 15.7376 12.2987 15.6377 12.366 15.5233C12.4334 15.4088 12.4772 15.2821 12.4951 15.1506C12.5129 15.019 12.5044 14.8852 12.47 14.757L11.16 9.515C11.0518 9.08232 10.8022 8.69821 10.4507 8.42371C10.0992 8.1492 9.66599 8.00007 9.22 8ZM16 8H14C13.7348 8 13.4804 8.10536 13.2929 8.29289C13.1054 8.48043 13 8.73478 13 9V15C13 15.2652 13.1054 15.5196 13.2929 15.7071C13.4804 15.8946 13.7348 16 14 16H16C16.7956 16 17.5587 15.6839 18.1213 15.1213C18.6839 14.5587 19 13.7956 19 13V11C19 10.2044 18.6839 9.44129 18.1213 8.87868C17.5587 8.31607 16.7956 8 16 8ZM16 10C16.2652 10 16.5196 10.1054 16.7071 10.2929C16.8946 10.4804 17 10.7348 17 11V13C17 13.2652 16.8946 13.5196 16.7071 13.7071C16.5196 13.8946 16.2652 14 16 14H15V10H16ZM9.22 10L9.72 12H8.28L8.78 10H9.22Z" fill="currentColor"/>
</svg>
