<svg width="24" height="24" viewBox="0 0 24 24" fill="none" xmlns="http://www.w3.org/2000/svg">
<path d="M3.13 7.378L6.526 10.774L5.53 14.758C5.46944 15.005 5.50529 15.2659 5.63025 15.4874C5.75522 15.7089 5.9599 15.8745 6.20265 15.9505C6.4454 16.0264 6.70797 16.007 6.93691 15.8962C7.16585 15.7854 7.34397 15.5915 7.435 15.354L7.47 15.243L7.78 14H9.752L10.375 14.624L10.53 15.242C10.5886 15.4772 10.7306 15.6831 10.9296 15.8214C11.1287 15.9597 11.3711 16.0211 11.612 15.994L11.726 15.974L16.622 20.87C15.1953 21.6147 13.6093 22.0024 12 22C6.477 22 2 17.523 2 12C2 10.46 2.348 9.003 2.969 7.7L3.13 7.378ZM12 2C17.523 2 22 6.477 22 12C22.0035 14.1929 21.2828 16.3256 19.95 18.067L19.743 18.329L20.707 19.293C20.8863 19.473 20.9905 19.7144 20.9982 19.9684C21.006 20.2223 20.9168 20.4697 20.7488 20.6603C20.5807 20.8508 20.3464 20.9703 20.0935 20.9944C19.8406 21.0185 19.588 20.9454 19.387 20.79L19.293 20.707L3.293 4.707C3.11365 4.52704 3.00953 4.28556 3.00177 4.03161C2.99402 3.77766 3.08322 3.53028 3.25125 3.33972C3.41928 3.14915 3.65355 3.02969 3.90647 3.0056C4.1594 2.9815 4.41201 3.05458 4.613 3.21L4.707 3.293L5.671 4.257C7.4555 2.79419 9.69257 1.99642 12 2ZM16 8H14C13.7348 8 13.4804 8.10535 13.2929 8.29289C13.1054 8.48043 13 8.73478 13 9V11.586L15 13.586V10H16C16.2652 10 16.5196 10.1054 16.7071 10.2929C16.8946 10.4804 17 10.7348 17 11V13C17 13.2652 16.8946 13.5196 16.7071 13.7071C16.5196 13.8946 16.2652 14 16 14H15.414L17.175 15.761C17.7165 15.5305 18.1782 15.1459 18.5027 14.6549C18.8272 14.164 19.0001 13.5885 19 13V11C19 10.2043 18.6839 9.44129 18.1213 8.87868C17.5587 8.31607 16.7956 8 16 8ZM9.425 8.01L11.236 9.822L11.159 9.515C11.0596 9.11657 10.8399 8.7584 10.5299 8.48915C10.2198 8.21989 9.83343 8.0526 9.425 8.01Z" fill="currentColor"/>
</svg>
