<svg width="24" height="24" viewBox="0 0 24 24" fill="none" xmlns="http://www.w3.org/2000/svg">
<path d="M19 4C19.7956 4 20.5587 4.31607 21.1213 4.87868C21.6839 5.44129 22 6.20435 22 7V17C22 17.7956 21.6839 18.5587 21.1213 19.1213C20.5587 19.6839 19.7956 20 19 20H5C4.20435 20 3.44129 19.6839 2.87868 19.1213C2.31607 18.5587 2 17.7956 2 17V7C2 6.20435 2.31607 5.44129 2.87868 4.87868C3.44129 4.31607 4.20435 4 5 4H19ZM9.22 8H8.78C8.36174 8.00017 7.95405 8.13148 7.61431 8.37544C7.27456 8.61939 7.01984 8.96373 6.886 9.36L6.84 9.515L5.53 14.758C5.46944 15.005 5.50529 15.2659 5.63025 15.4874C5.75522 15.7089 5.9599 15.8745 6.20265 15.9505C6.4454 16.0264 6.70797 16.007 6.93691 15.8962C7.16585 15.7854 7.34397 15.5915 7.435 15.354L7.47 15.243L7.78 14H10.22L10.53 15.242C10.5918 15.4895 10.7459 15.704 10.9607 15.8416C11.1755 15.9792 11.4348 16.0295 11.6855 15.9823C11.9362 15.935 12.1593 15.7937 12.3092 15.5873C12.4592 15.3809 12.5245 15.125 12.492 14.872L12.47 14.758L11.16 9.515C11.0518 9.08232 10.8022 8.69821 10.4507 8.42371C10.0992 8.1492 9.66599 8.00007 9.22 8ZM18 8C17.7551 8.00003 17.5187 8.08996 17.3356 8.25272C17.1526 8.41547 17.0357 8.63975 17.007 8.883L17 9V10.17C16.5952 10.0273 16.1644 9.97309 15.7368 10.0111C15.3093 10.0491 14.8948 10.1785 14.5215 10.3904C14.1482 10.6023 13.8247 10.8918 13.5729 11.2395C13.3211 11.5871 13.1468 11.9848 13.0619 12.4055C12.9769 12.8263 12.9832 13.2604 13.0804 13.6785C13.1776 14.0966 13.3634 14.489 13.6252 14.8292C13.887 15.1693 14.2188 15.4494 14.5981 15.6503C14.9775 15.8513 15.3955 15.9685 15.824 15.994L16 16H18C18.2449 16 18.4813 15.91 18.6644 15.7473C18.8474 15.5845 18.9643 15.3603 18.993 15.117L19 15V9C19 8.73478 18.8946 8.48043 18.7071 8.29289C18.5196 8.10536 18.2652 8 18 8ZM16 12C16.2449 12 16.4813 12.09 16.6644 12.2527C16.8474 12.4155 16.9643 12.6397 16.993 12.883L17 13V14H16C15.7348 14 15.4804 13.8946 15.2929 13.7071C15.1054 13.5196 15 13.2652 15 13C15 12.7348 15.1054 12.4804 15.2929 12.2929C15.4804 12.1054 15.7348 12 16 12ZM9.22 10L9.72 12H8.28L8.78 10H9.22Z" fill="currentColor"/>
</svg>
