<svg width="24" height="24" viewBox="0 0 24 24" fill="none" xmlns="http://www.w3.org/2000/svg">
<path d="M3.293 3.293C3.46519 3.12082 3.69429 3.01739 3.93732 3.00211C4.18034 2.98683 4.4206 3.06075 4.613 3.21L4.707 3.293L5.414 4H19C19.7652 3.99996 20.5015 4.29232 21.0583 4.81728C21.615 5.34224 21.9501 6.06011 21.995 6.824L22 7V17C22 17.91 21.595 18.724 20.956 19.274L20.805 19.396L20.769 19.36C20.9272 19.5494 21.0099 19.7907 21.0009 20.0373C20.992 20.284 20.8922 20.5186 20.7207 20.6961C20.5491 20.8736 20.318 20.9813 20.0718 20.9987C19.8256 21.016 19.5817 20.9417 19.387 20.79L19.293 20.707L3.293 4.707C3.10553 4.51947 3.00021 4.26516 3.00021 4C3.00021 3.73483 3.10553 3.48053 3.293 3.293ZM2.076 6.325L6.526 10.775L5.53 14.758C5.4956 14.8862 5.48707 15.02 5.50492 15.1516C5.52277 15.2831 5.56664 15.4098 5.63397 15.5243C5.7013 15.6387 5.79074 15.7386 5.89707 15.818C6.00341 15.8975 6.12451 15.9551 6.25331 15.9873C6.38211 16.0195 6.51603 16.0257 6.64726 16.0056C6.7785 15.9855 6.90441 15.9395 7.01767 15.8702C7.13092 15.8009 7.22925 15.7098 7.30691 15.6021C7.38457 15.4944 7.44001 15.3723 7.47 15.243L7.78 14H9.752L10.375 14.624L10.53 15.242C10.5935 15.4965 10.7545 15.7158 10.9782 15.8527C11.2019 15.9897 11.4705 16.0332 11.726 15.974L15.75 20H5C4.20435 20 3.44129 19.6839 2.87868 19.1213C2.31607 18.5587 2 17.7956 2 17V7C2 6.768 2.026 6.542 2.076 6.325ZM18 8C17.7348 8 17.4804 8.10536 17.2929 8.29289C17.1054 8.48043 17 8.73478 17 9V10.17C16.2803 9.91545 15.4907 9.94482 14.7919 10.2521C14.0931 10.5594 13.5378 11.1215 13.239 11.824L17.414 16H18C18.2652 16 18.5196 15.8946 18.7071 15.7071C18.8946 15.5196 19 15.2652 19 15V9C19 8.73478 18.8946 8.48043 18.7071 8.29289C18.5196 8.10536 18.2652 8 18 8ZM16 12C16.2449 12 16.4813 12.09 16.6644 12.2527C16.8474 12.4155 16.9643 12.6397 16.993 12.883L17 13V14H16C15.7348 14 15.4804 13.8946 15.2929 13.7071C15.1054 13.5196 15 13.2652 15 13C15 12.7348 15.1054 12.4804 15.2929 12.2929C15.4804 12.1054 15.7348 12 16 12ZM9.425 8.01L11.236 9.822L11.159 9.515C11.0596 9.11657 10.8399 8.75841 10.5299 8.48915C10.2198 8.2199 9.83343 8.0526 9.425 8.01Z" fill="currentColor"/>
</svg>
