<svg width="24" height="24" viewBox="0 0 24 24" fill="none" xmlns="http://www.w3.org/2000/svg">
<path d="M12 2C17.523 2 22 6.477 22 12C22 17.523 17.523 22 12 22C6.477 22 2 17.523 2 12C2 6.477 6.477 2 12 2ZM12 7C11.7551 7.00003 11.5187 7.08996 11.3356 7.25272C11.1526 7.41547 11.0357 7.63975 11.007 7.883L11 8V11H8C7.74512 11.0003 7.49997 11.0979 7.31463 11.2728C7.1293 11.4478 7.01777 11.687 7.00283 11.9414C6.98789 12.1958 7.07067 12.4464 7.23426 12.6418C7.39786 12.8373 7.6299 12.9629 7.883 12.993L8 13H11V16C11.0003 16.2549 11.0979 16.5 11.2728 16.6854C11.4478 16.8707 11.687 16.9822 11.9414 16.9972C12.1958 17.0121 12.4464 16.9293 12.6418 16.7657C12.8373 16.6021 12.9629 16.3701 12.993 16.117L13 16V13H16C16.2549 12.9997 16.5 12.9021 16.6854 12.7272C16.8707 12.5522 16.9822 12.313 16.9972 12.0586C17.0121 11.8042 16.9293 11.5536 16.7657 11.3582C16.6021 11.1627 16.3701 11.0371 16.117 11.007L16 11H13V8C13 7.73478 12.8946 7.48043 12.7071 7.29289C12.5196 7.10536 12.2652 7 12 7Z" fill="currentColor"/>
</svg>
