<svg width="24" height="24" viewBox="0 0 24 24" fill="none" xmlns="http://www.w3.org/2000/svg">
<path fill-rule="evenodd" clip-rule="evenodd" d="M19.9969 2.929C20.0063 3.05999 19.9898 3.19156 19.9483 3.31618C19.9069 3.44079 19.8413 3.55603 19.7553 3.6553C19.6693 3.75456 19.5646 3.83592 19.4472 3.89472C19.3297 3.95352 19.2019 3.98862 19.0709 3.998L12.9999 4.43V7H16.3819C16.7534 7.00001 17.1175 7.10349 17.4335 7.29884C17.7495 7.49419 18.0048 7.77368 18.1709 8.106L20.1979 12.161C20.7576 13.2799 20.8775 14.568 20.5339 15.771L19.1689 20.549C19.0496 20.967 18.7973 21.3347 18.4503 21.5965C18.1034 21.8583 17.6805 22 17.2459 22H6.75388C6.31934 22 5.89661 21.8585 5.54965 21.5969C5.20269 21.3353 4.95038 20.9678 4.83088 20.55L3.46588 15.77C3.12224 14.5674 3.24177 13.2798 3.80088 12.161L5.82988 8.106C5.99586 7.77384 6.25103 7.49444 6.56683 7.2991C6.88262 7.10376 7.24655 7.0002 7.61788 7H10.9999V4.574L5.07088 4.997C4.93766 5.01062 4.80305 4.99735 4.67506 4.95797C4.54706 4.91859 4.42828 4.8539 4.32576 4.76774C4.22324 4.68159 4.13907 4.57571 4.07824 4.45641C4.01742 4.33711 3.98117 4.2068 3.97166 4.07322C3.96215 3.93964 3.97956 3.80552 4.02287 3.6788C4.06617 3.55208 4.13449 3.43534 4.22377 3.33553C4.31305 3.23571 4.42146 3.15484 4.54258 3.09772C4.66371 3.0406 4.79507 3.00839 4.92888 3.003L18.9289 2.003C19.1933 1.9843 19.4543 2.07132 19.6545 2.24496C19.8548 2.41859 19.9779 2.66462 19.9969 2.929ZM7.61688 9L5.61688 13H18.3819L16.3819 9H7.61688Z" fill="currentColor"/>
</svg>
