<svg width="24" height="24" viewBox="0 0 24 24" fill="none" xmlns="http://www.w3.org/2000/svg">
<path d="M11.9999 2C12.2448 2.00003 12.4812 2.08996 12.6642 2.25272C12.8473 2.41547 12.9642 2.63975 12.9929 2.883L12.9999 3V3.055C14.9822 3.27725 16.8347 4.15144 18.2665 5.54036C19.6983 6.92928 20.6284 8.7543 20.9109 10.729L20.9449 11H20.9999C21.2547 11.0003 21.4999 11.0979 21.6852 11.2728C21.8706 11.4478 21.9821 11.687 21.997 11.9414C22.012 12.1958 21.9292 12.4464 21.7656 12.6418C21.602 12.8373 21.37 12.9629 21.1169 12.993L20.9999 13H20.9449C20.7226 14.9824 19.8484 16.8348 18.4595 18.2667C17.0706 19.6985 15.2456 20.6286 13.2709 20.911L12.9999 20.945V21C12.9996 21.2549 12.902 21.5 12.727 21.6854C12.5521 21.8707 12.3129 21.9822 12.0585 21.9972C11.804 22.0121 11.5535 21.9293 11.358 21.7657C11.1626 21.6021 11.037 21.3701 11.0069 21.117L10.9999 21V20.945C9.0175 20.7227 7.16503 19.8486 5.73322 18.4596C4.3014 17.0707 3.37129 15.2457 3.08887 13.271L3.05487 13H2.99987C2.74499 12.9997 2.49984 12.9021 2.3145 12.7272C2.12916 12.5522 2.01763 12.313 2.0027 12.0586C1.98776 11.8042 2.07054 11.5536 2.23413 11.3582C2.39772 11.1627 2.62977 11.0371 2.88287 11.007L2.99987 11H3.05487C3.27712 9.01763 4.1513 7.16516 5.54022 5.73335C6.92914 4.30153 8.75417 3.37142 10.7289 3.089L10.9999 3.055V3C10.9999 2.73478 11.1052 2.48043 11.2928 2.29289C11.4803 2.10536 11.7347 2 11.9999 2ZM11.9999 7C10.6738 7 9.40202 7.52678 8.46433 8.46447C7.52665 9.40215 6.99987 10.6739 6.99987 12C6.99987 13.3261 7.52665 14.5979 8.46433 15.5355C9.40202 16.4732 10.6738 17 11.9999 17C13.326 17 14.5977 16.4732 15.5354 15.5355C16.4731 14.5979 16.9999 13.3261 16.9999 12C16.9999 10.6739 16.4731 9.40215 15.5354 8.46447C14.5977 7.52678 13.326 7 11.9999 7ZM11.9999 9C12.7955 9 13.5586 9.31607 14.1212 9.87868C14.6838 10.4413 14.9999 11.2044 14.9999 12C14.9999 12.7956 14.6838 13.5587 14.1212 14.1213C13.5586 14.6839 12.7955 15 11.9999 15C11.2042 15 10.4412 14.6839 9.87855 14.1213C9.31594 13.5587 8.99987 12.7956 8.99987 12C8.99987 11.2044 9.31594 10.4413 9.87855 9.87868C10.4412 9.31607 11.2042 9 11.9999 9Z" fill="currentColor"/>
</svg>
