<svg width="24" height="24" viewBox="0 0 24 24" fill="none" xmlns="http://www.w3.org/2000/svg">
<path fill-rule="evenodd" clip-rule="evenodd" d="M13 19C13.2652 19 13.5196 19.1054 13.7071 19.2929C13.8946 19.4804 14 19.7348 14 20V21C14 21.2652 13.8946 21.5196 13.7071 21.7071C13.5196 21.8946 13.2652 22 13 22H11C10.7348 22 10.4804 21.8946 10.2929 21.7071C10.1054 21.5196 10 21.2652 10 21V20C10 19.7348 10.1054 19.4804 10.2929 19.2929C10.4804 19.1054 10.7348 19 11 19H13ZM12 2C14.1217 2 16.1566 2.84285 17.6569 4.34315C19.1571 5.84344 20 7.87827 20 10C20 12.856 18.569 15.106 16.926 16.612C16.1632 17.3141 15.3022 17.9013 14.37 18.355C13.552 18.747 12.71 19 12 19C11.29 19 10.448 18.747 9.63 18.355C8.69782 17.9013 7.83676 17.3141 7.074 16.612C5.431 15.106 4 12.856 4 10C4 7.87827 4.84285 5.84344 6.34315 4.34315C7.84344 2.84285 9.87827 2 12 2ZM12 3C11.108 3 10.254 3.167 9.47 3.471C9.275 3.794 9.061 4.183 8.847 4.633C8.177 6.042 7.5 8.064 7.5 10.5C7.5 12.792 8.099 14.72 8.729 16.113L8.847 16.368L8.943 16.565L9.134 16.936L9.387 17.092C10.23 17.59 11.042 17.892 11.664 17.976L11.844 17.994L12 18L12.156 17.994L12.336 17.976C12.958 17.891 13.77 17.59 14.613 17.092L14.866 16.936L15.056 16.566L15.153 16.368L15.271 16.113C16.0742 14.3504 16.4931 12.437 16.5 10.5C16.5 8.064 15.824 6.042 15.153 4.633C14.939 4.183 14.725 3.794 14.531 3.471C13.7238 3.15849 12.8656 2.99878 12 3ZM12 3.008C12.0011 3.14334 12.0296 3.27705 12.084 3.401L12.148 3.524L12.357 3.804L12.559 4.094L12.731 4.361L12.844 4.549C13.001 4.812 13.174 5.129 13.347 5.492C13.927 6.708 14.5 8.436 14.5 10.5C14.5 12.564 13.926 14.292 13.347 15.508C13.203 15.811 13.059 16.081 12.924 16.315L12.825 16.484L12.599 16.844L12.559 16.906L12.357 17.196L12.163 17.453C12.1018 17.5465 12.0569 17.6496 12.03 17.758L12.01 17.865L12 17.994L11.991 17.864L11.963 17.731C11.9467 17.6718 11.9249 17.6142 11.898 17.559L11.852 17.477L11.643 17.195L11.441 16.906L11.269 16.639L11.156 16.451C10.9738 16.1446 10.806 15.83 10.653 15.508C10.073 14.292 9.5 12.564 9.5 10.5C9.5 8.436 10.074 6.708 10.653 5.492C10.797 5.189 10.941 4.919 11.076 4.685L11.175 4.516L11.401 4.156L11.441 4.094L11.643 3.804L11.769 3.639L11.852 3.524C11.9476 3.36879 11.9988 3.1903 12 3.008Z" fill="currentColor"/>
</svg>
