<svg width="24" height="24" viewBox="0 0 24 24" fill="none" xmlns="http://www.w3.org/2000/svg">
<path fill-rule="evenodd" clip-rule="evenodd" d="M12.0002 1.565C13.1502 1.565 14.1722 2.08 15.0182 2.861C16.5582 4.283 17.9032 6.713 18.9762 9.064C20.0762 11.471 20.9872 14.02 21.5962 15.863C22.3452 18.129 21.3622 20.533 19.3742 21.724C18.3427 22.3453 17.1256 22.5842 15.9358 22.399C14.7459 22.2139 13.6591 21.6164 12.8652 20.711C12.5892 20.395 12.2972 20.061 12.0002 19.718C11.7032 20.061 11.4102 20.395 11.1352 20.711C10.3413 21.6168 9.25432 22.2146 8.06427 22.4C6.87421 22.5854 5.65687 22.3464 4.62516 21.725C2.63816 20.532 1.65516 18.129 2.40416 15.863C3.01316 14.02 3.92416 11.471 5.02416 9.063C6.09716 6.713 7.44216 4.283 8.98216 2.861C9.82816 2.081 10.8512 1.565 12.0002 1.565ZM13.9732 17.415C14.4902 16.799 14.9282 16.263 15.2002 15.9C16.2362 14.519 16.5112 12.748 15.9852 11.252C15.4322 9.678 14.0082 8.5 12.0002 8.5C9.99216 8.5 8.56816 9.678 8.01516 11.252C7.48916 12.748 7.76516 14.519 8.80016 15.9C9.07216 16.263 9.51016 16.8 10.0272 17.415C9.63916 17.863 9.24816 18.311 8.87716 18.735C8.5465 19.1113 8.09401 19.3593 7.59892 19.4355C7.10383 19.5117 6.5977 19.4114 6.16916 19.152C5.32616 18.646 4.96516 17.672 5.25316 16.804C5.84516 15.012 6.71716 12.578 7.75316 10.31C8.81416 7.985 9.95516 6.046 11.0182 5.065C11.6872 4.447 12.3132 4.447 12.9822 5.065C14.0452 6.046 15.1862 7.985 16.2472 10.31C17.2832 12.578 18.1552 15.012 18.7472 16.804C19.0352 17.673 18.6742 18.646 17.8312 19.152C17.4026 19.4114 16.8965 19.5117 16.4014 19.4355C15.9063 19.3593 15.4538 19.1113 15.1232 18.735C14.7522 18.311 14.3612 17.863 13.9732 17.415ZM12.0002 15.098C11.7261 14.7713 11.4594 14.4385 11.2002 14.1C10.7362 13.48 10.6672 12.752 10.8452 12.247C10.9952 11.822 11.3202 11.5 12.0002 11.5C12.6802 11.5 13.0052 11.822 13.1552 12.247C13.3332 12.752 13.2652 13.481 12.8002 14.1C12.6172 14.344 12.3392 14.69 12.0002 15.098Z" fill="currentColor"/>
</svg>
