<svg width="24" height="24" viewBox="0 0 24 24" fill="none" xmlns="http://www.w3.org/2000/svg">
<path fill-rule="evenodd" clip-rule="evenodd" d="M12 4.5C10.3098 4.49921 8.66895 5.06934 7.3434 6.11794C6.01785 7.16655 5.08534 8.63214 4.69708 10.2771C4.30882 11.9221 4.48756 13.65 5.20433 15.1806C5.9211 16.7113 7.13387 17.9549 8.646 18.71C8.82217 18.7982 8.97923 18.9203 9.10822 19.0693C9.23721 19.2182 9.33559 19.3911 9.39776 19.5781C9.45993 19.7651 9.48466 19.9624 9.47055 20.159C9.45643 20.3555 9.40375 20.5473 9.3155 20.7235C9.22725 20.8997 9.10517 21.0567 8.95622 21.1857C8.80727 21.3147 8.63438 21.4131 8.44741 21.4753C8.26044 21.5374 8.06305 21.5622 7.86652 21.548C7.66999 21.5339 7.47817 21.4812 7.302 21.393C5.55808 20.5205 4.09157 19.1796 3.06681 17.5206C2.04204 15.8616 1.49951 13.95 1.5 12C1.5 6.201 6.201 1.5 12 1.5C17.799 1.5 22.5 6.201 22.5 12C22.5005 13.95 21.958 15.8616 20.9332 17.5206C19.9084 19.1796 18.4419 20.5205 16.698 21.393C16.3422 21.5712 15.9302 21.6008 15.5526 21.4753C15.175 21.3497 14.8627 21.0793 14.6845 20.7235C14.5063 20.3677 14.4767 19.9557 14.6022 19.5781C14.7278 19.2005 14.9982 18.8882 15.354 18.71C16.8661 17.9549 18.0789 16.7113 18.7957 15.1806C19.5124 13.65 19.6912 11.9221 19.3029 10.2771C18.9147 8.63214 17.9822 7.16655 16.6566 6.11794C15.331 5.06934 13.6902 4.49921 12 4.5ZM12 8.5C11.211 8.49938 10.445 8.76534 9.82616 9.25474C9.20732 9.74414 8.77199 10.4283 8.59079 11.1962C8.40959 11.964 8.49315 12.7706 8.8279 13.485C9.16266 14.1995 9.72898 14.7798 10.435 15.132C10.7829 15.3145 11.0453 15.6263 11.1658 16.0003C11.2863 16.3743 11.2553 16.7806 11.0793 17.1319C10.9034 17.4832 10.5967 17.7515 10.2251 17.879C9.85343 18.0066 9.44659 17.9832 9.092 17.814C7.78265 17.1589 6.73283 16.0809 6.11259 14.7547C5.49234 13.4284 5.33801 11.9316 5.67459 10.5068C6.01117 9.08187 6.81894 7.81235 7.96706 6.90384C9.11518 5.99532 10.5364 5.50103 12.0005 5.50103C13.4646 5.50103 14.8858 5.99532 16.0339 6.90384C17.1821 7.81235 17.9898 9.08187 18.3264 10.5068C18.663 11.9316 18.5087 13.4284 17.8884 14.7547C17.2682 16.0809 16.2183 17.1589 14.909 17.814C14.7327 17.9041 14.5403 17.9583 14.343 17.9737C14.1456 17.989 13.9472 17.9652 13.7591 17.9035C13.571 17.8418 13.3969 17.7434 13.247 17.6142C13.0971 17.4849 12.9743 17.3272 12.8856 17.1502C12.7969 16.9732 12.7441 16.7805 12.7303 16.583C12.7164 16.3855 12.7418 16.1872 12.805 15.9996C12.8682 15.812 12.9678 15.6388 13.0983 15.4898C13.2287 15.3409 13.3873 15.2193 13.565 15.132C14.271 14.7798 14.8373 14.1995 15.1721 13.485C15.5069 12.7706 15.5904 11.964 15.4092 11.1962C15.228 10.4283 14.7927 9.74414 14.1738 9.25474C13.555 8.76534 12.789 8.49938 12 8.5ZM9.5 12C9.5 11.337 9.76339 10.7011 10.2322 10.2322C10.7011 9.76339 11.337 9.5 12 9.5C12.663 9.5 13.2989 9.76339 13.7678 10.2322C14.2366 10.7011 14.5 11.337 14.5 12C14.5 12.663 14.2366 13.2989 13.7678 13.7678C13.2989 14.2366 12.663 14.5 12 14.5C11.337 14.5 10.7011 14.2366 10.2322 13.7678C9.76339 13.2989 9.5 12.663 9.5 12Z" fill="currentColor"/>
</svg>
