<svg width="24" height="24" viewBox="0 0 24 24" fill="none" xmlns="http://www.w3.org/2000/svg">
<path d="M6.49996 4C5.88859 4.00107 5.28385 4.1267 4.72264 4.36923C4.16144 4.61177 3.65554 4.96612 3.23582 5.41065C2.8161 5.85518 2.49136 6.38058 2.28143 6.95478C2.0715 7.52898 1.98077 8.13993 2.01478 8.75036C2.0488 9.36078 2.20684 9.95787 2.47927 10.5052C2.75169 11.0525 3.13279 11.5386 3.5993 11.9337C4.06581 12.3289 4.60795 12.6248 5.19262 12.8035C5.7773 12.9822 6.39226 13.0399 6.99996 12.973V18C6.99996 18.5304 7.21067 19.0391 7.58575 19.4142C7.96082 19.7893 8.46953 20 8.99996 20C9.53039 20 10.0391 19.7893 10.4142 19.4142C10.7892 19.0391 11 18.5304 11 18V8.5C11 7.30653 10.5259 6.16193 9.68194 5.31802C8.83803 4.47411 7.69344 4 6.49996 4ZM17.5 4C18.1113 4.00107 18.7161 4.1267 19.2773 4.36923C19.8385 4.61177 20.3444 4.96612 20.7641 5.41065C21.1838 5.85518 21.5086 6.38058 21.7185 6.95478C21.9284 7.52898 22.0192 8.13993 21.9851 8.75036C21.9511 9.36078 21.7931 9.95787 21.5207 10.5052C21.2482 11.0525 20.8671 11.5386 20.4006 11.9337C19.9341 12.3289 19.392 12.6248 18.8073 12.8035C18.2226 12.9822 17.6077 13.0399 17 12.973V18C17 18.5304 16.7892 19.0391 16.4142 19.4142C16.0391 19.7893 15.5304 20 15 20C14.4695 20 13.9608 19.7893 13.5857 19.4142C13.2107 19.0391 13 18.5304 13 18V8.5C13 7.30653 13.4741 6.16193 14.318 5.31802C15.1619 4.47411 16.3065 4 17.5 4Z" fill="currentColor"/>
</svg>
