<svg width="24" height="24" viewBox="0 0 24 24" fill="none" xmlns="http://www.w3.org/2000/svg">
<path d="M7 4C5.67392 4 4.40215 4.52678 3.46447 5.46447C2.52678 6.40215 2 7.67392 2 9H22C22 7.67392 21.4732 6.40215 20.5355 5.46447C19.5979 4.52678 18.3261 4 17 4H7ZM22 11H17C17 11.5304 16.7893 12.0391 16.4142 12.4142C16.0391 12.7893 15.5304 13 15 13H9C8.46957 13 7.96086 12.7893 7.58579 12.4142C7.21071 12.0391 7 11.5304 7 11H2V15C2 16.3261 2.52678 17.5979 3.46447 18.5355C4.40215 19.4732 5.67392 20 7 20H17C18.3261 20 19.5979 19.4732 20.5355 18.5355C21.4732 17.5979 22 16.3261 22 15V11Z" fill="currentColor"/>
</svg>
