<svg width="24" height="24" viewBox="0 0 24 24" fill="none" xmlns="http://www.w3.org/2000/svg">
<path d="M11.514 16.903C11.5695 16.8254 11.6428 16.7621 11.7276 16.7185C11.8125 16.6748 11.9066 16.6521 12.002 16.6521C12.0974 16.6521 12.1915 16.6748 12.2764 16.7185C12.3612 16.7621 12.4345 16.8254 12.49 16.903L15.256 20.771C15.3201 20.8607 15.3583 20.9663 15.3664 21.0763C15.3744 21.1863 15.352 21.2963 15.3015 21.3944C15.2511 21.4924 15.1746 21.5747 15.0805 21.6322C14.9864 21.6896 14.8783 21.72 14.768 21.72H9.237C9.12674 21.72 9.01861 21.6896 8.92449 21.6322C8.83037 21.5747 8.75389 21.4924 8.70347 21.3944C8.65305 21.2963 8.63062 21.1863 8.63865 21.0763C8.64668 20.9663 8.68486 20.8607 8.749 20.771L11.514 16.903ZM20 4C20.5304 4 21.0391 4.21071 21.4142 4.58579C21.7893 4.96086 22 5.46957 22 6V17C22 17.5304 21.7893 18.0391 21.4142 18.4142C21.0391 18.7893 20.5304 19 20 19H16.29L13.139 14.593C13.0095 14.4118 12.8385 14.264 12.6404 14.1621C12.4423 14.0602 12.2228 14.0071 12 14.0071C11.7772 14.0071 11.5577 14.0602 11.3596 14.1621C11.1615 14.264 10.9905 14.4118 10.861 14.593L7.711 19H4C3.46957 19 2.96086 18.7893 2.58579 18.4142C2.21071 18.0391 2 17.5304 2 17V6C2 5.46957 2.21071 4.96086 2.58579 4.58579C2.96086 4.21071 3.46957 4 4 4H20Z" fill="currentColor"/>
</svg>
