<svg width="24" height="24" viewBox="0 0 24 24" fill="none" xmlns="http://www.w3.org/2000/svg">
<path d="M19.7101 2.837C20.4431 2.984 21.0161 3.557 21.1631 4.29C21.2681 4.8152 21.2531 5.35733 21.1192 5.87592C20.9854 6.39451 20.7362 6.87619 20.3901 7.285L17.6391 10.537L19.5831 17.668C19.6412 17.8806 19.642 18.1048 19.5854 18.3178C19.5289 18.5309 19.417 18.7251 19.2611 18.881L17.9591 20.183C17.8486 20.2935 17.7139 20.3769 17.5656 20.4265C17.4174 20.4761 17.2596 20.4906 17.1048 20.4689C16.95 20.4472 16.8024 20.3898 16.6735 20.3013C16.5446 20.2128 16.438 20.0957 16.3621 19.959L13.3691 14.572L10.1111 16.827V17.614C10.1111 17.945 9.97914 18.264 9.74514 18.498L8.06214 20.18C7.9404 20.3019 7.78951 20.3906 7.62381 20.4377C7.45811 20.4849 7.28311 20.4888 7.11545 20.4492C6.94778 20.4096 6.79303 20.3278 6.66591 20.2116C6.53878 20.0953 6.44351 19.9485 6.38914 19.785L5.84514 18.154L4.21414 17.61C4.05068 17.5556 3.90383 17.4604 3.78757 17.3332C3.67131 17.2061 3.5895 17.0514 3.54991 16.8837C3.51032 16.716 3.51428 16.541 3.56141 16.3753C3.60853 16.2096 3.69725 16.0587 3.81914 15.937L5.50214 14.254C5.61824 14.1379 5.75606 14.0459 5.90774 13.9831C6.05942 13.9203 6.22198 13.888 6.38614 13.888H7.17314L9.42814 10.63L4.04114 7.637C3.90448 7.5611 3.78729 7.45452 3.69882 7.32565C3.61034 7.19677 3.55299 7.04911 3.53128 6.8943C3.50956 6.7395 3.52408 6.58176 3.57368 6.43351C3.62329 6.28527 3.70663 6.15056 3.81714 6.04L5.11914 4.738C5.27499 4.58215 5.46928 4.47028 5.6823 4.41373C5.89533 4.35719 6.11952 4.35797 6.33214 4.416L13.4621 6.36L16.7151 3.609C17.124 3.26298 17.6056 3.01375 18.1242 2.8799C18.6428 2.74606 19.1849 2.73205 19.7101 2.837Z" fill="currentColor"/>
</svg>
