<svg width="24" height="24" viewBox="0 0 24 24" fill="none" xmlns="http://www.w3.org/2000/svg">
<path d="M11.9998 4C13.1817 4 14.352 4.23279 15.444 4.68508C16.5359 5.13737 17.5281 5.80031 18.3638 6.63604C19.1995 7.47176 19.8624 8.46392 20.3147 9.55585C20.767 10.6478 20.9998 11.8181 20.9998 13C20.9998 14.1819 20.767 15.3522 20.3147 16.4441C19.8624 17.5361 19.1995 18.5282 18.3638 19.364C17.5281 20.1997 16.5359 20.8626 15.444 21.3149C14.352 21.7672 13.1817 22 11.9998 22C9.61287 22 7.32369 21.0518 5.63586 19.364C3.94804 17.6761 2.99982 15.3869 2.99982 13C2.99982 10.613 3.94804 8.32386 5.63586 6.63604C7.32369 4.94821 9.61287 4 11.9998 4ZM11.9998 8C11.7549 8.00003 11.5185 8.08995 11.3355 8.25271C11.1524 8.41547 11.0355 8.63975 11.0068 8.883L10.9998 9V12.986C10.9965 13.2084 11.0676 13.4256 11.2018 13.603L11.2918 13.707L13.3978 15.812C13.5774 15.9933 13.8194 16.099 14.0744 16.1077C14.3293 16.1163 14.578 16.0272 14.7694 15.8585C14.9608 15.6899 15.0805 15.4544 15.104 15.2004C15.1275 14.9463 15.053 14.6929 14.8958 14.492L14.8118 14.398L12.9998 12.586V9C12.9998 8.73478 12.8945 8.48043 12.7069 8.29289C12.5194 8.10535 12.265 8 11.9998 8ZM17.9998 2.606C19.2477 3.3282 20.356 4.26842 21.2718 5.382C21.4315 5.58764 21.5047 5.84744 21.4758 6.10618C21.4469 6.36492 21.3183 6.6022 21.1172 6.76758C20.9161 6.93297 20.6585 7.01342 20.3991 6.99183C20.1396 6.97025 19.8988 6.84833 19.7278 6.652C18.9639 5.72333 18.0396 4.93924 16.9988 4.337C16.8852 4.27121 16.7856 4.18367 16.7057 4.07939C16.6259 3.97511 16.5674 3.85613 16.5336 3.72924C16.4997 3.60235 16.4912 3.47003 16.5085 3.33985C16.5258 3.20966 16.5685 3.08416 16.6343 2.9705C16.7001 2.85684 16.7877 2.75725 16.8919 2.67742C16.9962 2.59759 17.1152 2.53908 17.2421 2.50524C17.369 2.47139 17.5013 2.46287 17.6315 2.48016C17.7617 2.49744 17.8862 2.54021 17.9998 2.606ZM7.36582 2.971C7.49843 3.20068 7.53436 3.47362 7.46572 3.7298C7.39708 3.98597 7.2295 4.20439 6.99982 4.337C5.95894 4.93954 5.03463 5.72397 4.27082 6.653C4.18883 6.75859 4.0865 6.84668 3.96988 6.91204C3.85326 6.97741 3.72472 7.01872 3.59186 7.03355C3.45899 7.04838 3.3245 7.03641 3.19634 6.99836C3.06818 6.96031 2.94895 6.89695 2.84571 6.81202C2.74246 6.7271 2.65729 6.62233 2.59523 6.50392C2.53317 6.38551 2.49548 6.25585 2.4844 6.12262C2.47332 5.98939 2.48906 5.8553 2.5307 5.72826C2.57234 5.60122 2.63903 5.48382 2.72682 5.383C3.64229 4.26914 4.75017 3.32857 5.99782 2.606C6.11153 2.54014 6.2371 2.49734 6.36736 2.48005C6.49762 2.46275 6.63001 2.47129 6.75697 2.50519C6.88392 2.53909 7.00295 2.59768 7.10725 2.6776C7.21155 2.75753 7.29908 2.85723 7.36482 2.971H7.36582Z" fill="currentColor"/>
</svg>
