<svg width="24" height="24" viewBox="0 0 24 24" fill="none" xmlns="http://www.w3.org/2000/svg">
<path d="M17.5 3C18.1861 2.99994 18.8571 3.20152 19.4295 3.57968C20.002 3.95784 20.4507 4.49591 20.7198 5.12699C20.9889 5.75808 21.0667 6.45434 20.9433 7.12924C20.82 7.80414 20.501 8.42791 20.026 8.923C20.6684 10.1859 21.0022 11.5831 21 13C21.0014 14.2519 20.7409 15.4902 20.2353 16.6355C19.7296 17.7807 18.9901 18.8075 18.064 19.65L18.707 20.293C18.8892 20.4816 18.99 20.7342 18.9877 20.9964C18.9854 21.2586 18.8803 21.5094 18.6948 21.6948C18.5094 21.8802 18.2586 21.9854 17.9964 21.9877C17.7342 21.99 17.4816 21.8892 17.293 21.707L16.425 20.839C15.0753 21.6024 13.5506 22.0024 12 22C10.4494 22.0024 8.92472 21.6024 7.57503 20.839L6.70703 21.707C6.51843 21.8892 6.26583 21.99 6.00363 21.9877C5.74143 21.9854 5.49062 21.8802 5.30521 21.6948C5.1198 21.5094 5.01463 21.2586 5.01236 20.9964C5.01008 20.7342 5.11087 20.4816 5.29303 20.293L5.93603 19.65C5.01001 18.8075 4.27043 17.7807 3.7648 16.6355C3.25917 15.4902 2.99867 14.2519 3.00003 13C2.99777 11.5831 3.33157 10.1859 3.97403 8.923C3.64297 8.5781 3.38607 8.16904 3.21919 7.72103C3.0523 7.27303 2.97897 6.79558 3.00371 6.31815C3.02846 5.84071 3.15075 5.3734 3.36305 4.94505C3.57534 4.51669 3.87315 4.13637 4.23809 3.82755C4.60303 3.51872 5.02738 3.28793 5.48495 3.14941C5.94252 3.01089 6.42362 2.96759 6.89857 3.02216C7.37352 3.07674 7.83226 3.22804 8.24648 3.46673C8.66071 3.70542 9.02165 4.02644 9.30703 4.41C10.1787 4.13743 11.0868 3.99918 12 4C12.938 4 13.842 4.143 14.693 4.41C15.0184 3.97218 15.4417 3.61661 15.9291 3.37177C16.4166 3.12692 16.9546 2.9996 17.5 3ZM12 8C11.7551 8.00003 11.5187 8.08996 11.3357 8.25272C11.1526 8.41547 11.0357 8.63975 11.007 8.883L11 9V12.986C10.9967 13.2084 11.0678 13.4256 11.202 13.603L11.292 13.707L13.398 15.812C13.5776 15.9933 13.8196 16.099 14.0746 16.1077C14.3296 16.1163 14.5782 16.0272 14.7696 15.8585C14.961 15.6899 15.0807 15.4544 15.1042 15.2004C15.1277 14.9463 15.0533 14.6929 14.896 14.492L14.812 14.398L13 12.586V9C13 8.73478 12.8947 8.48043 12.7071 8.29289C12.5196 8.10536 12.2652 8 12 8Z" fill="currentColor"/>
</svg>
