<svg width="24" height="24" viewBox="0 0 24 24" fill="none" xmlns="http://www.w3.org/2000/svg">
<path d="M12 2C17.523 2 22 6.477 22 12C22 17.523 17.523 22 12 22C6.477 22 2 17.523 2 12C2 6.477 6.477 2 12 2ZM12 10C11.4696 10 10.9609 10.2107 10.5858 10.5858C10.2107 10.9609 10 11.4696 10 12C10 12.5304 10.2107 13.0391 10.5858 13.4142C10.9609 13.7893 11.4696 14 12 14C12.5304 14 13.0391 13.7893 13.4142 13.4142C13.7893 13.0391 14 12.5304 14 12C14 11.4696 13.7893 10.9609 13.4142 10.5858C13.0391 10.2107 12.5304 10 12 10ZM11.44 6.507C11.3963 6.38316 11.3286 6.26914 11.2408 6.17146C11.153 6.07378 11.0468 5.99435 10.9283 5.93771C10.8099 5.88106 10.6814 5.84831 10.5502 5.84133C10.4191 5.83434 10.2878 5.85326 10.164 5.897C8.59181 6.4543 7.26948 7.55328 6.434 8.997C6.30099 9.22668 6.26467 9.49978 6.33303 9.75624C6.40139 10.0127 6.56882 10.2315 6.7985 10.3645C7.02818 10.4975 7.30128 10.5338 7.55774 10.4655C7.8142 10.3971 8.03299 10.2297 8.166 10C8.76308 8.96837 9.70775 8.18285 10.831 7.784C10.9548 7.74028 11.0689 7.67259 11.1665 7.5848C11.2642 7.49701 11.3436 7.39084 11.4003 7.27235C11.4569 7.15386 11.4897 7.02537 11.4967 6.89422C11.5037 6.76307 11.4847 6.63184 11.441 6.508L11.44 6.507Z" fill="currentColor"/>
</svg>
