<svg width="24" height="24" viewBox="0 0 24 24" fill="none" xmlns="http://www.w3.org/2000/svg">
<path d="M19.8199 6C20.1103 6.00011 20.3972 6.06347 20.6607 6.18567C20.9242 6.30787 21.1578 6.48598 21.3455 6.70762C21.5332 6.92926 21.6703 7.18911 21.7474 7.46911C21.8245 7.74911 21.8397 8.04254 21.7919 8.329L20.1259 18.329C20.048 18.796 19.807 19.2202 19.4457 19.5262C19.0845 19.8322 18.6263 20.0001 18.1529 20H5.84691C5.37347 20.0001 4.91536 19.8322 4.55409 19.5262C4.19281 19.2202 3.95179 18.796 3.87391 18.329L2.20791 8.329C2.16014 8.04254 2.17532 7.74911 2.25241 7.46911C2.3295 7.18911 2.46665 6.92926 2.65431 6.70762C2.84198 6.48598 3.07566 6.30787 3.33912 6.18567C3.60258 6.06347 3.88949 6.00011 4.17991 6H19.8199ZM17.9999 3C18.2651 3 18.5195 3.10536 18.707 3.29289C18.8946 3.48043 18.9999 3.73478 18.9999 4C18.9999 4.26522 18.8946 4.51957 18.707 4.70711C18.5195 4.89464 18.2651 5 17.9999 5H5.99991C5.73469 5 5.48034 4.89464 5.2928 4.70711C5.10527 4.51957 4.99991 4.26522 4.99991 4C4.99991 3.73478 5.10527 3.48043 5.2928 3.29289C5.48034 3.10536 5.73469 3 5.99991 3H17.9999Z" fill="currentColor"/>
</svg>
