<svg width="24" height="24" viewBox="0 0 24 24" fill="none" xmlns="http://www.w3.org/2000/svg">
<path fill-rule="evenodd" clip-rule="evenodd" d="M13.4142 2.807L21.1922 10.586C21.5672 10.9611 21.7778 11.4697 21.7778 12C21.7778 12.5303 21.5672 13.0389 21.1922 13.414L13.4142 21.192C13.0392 21.5669 12.5306 21.7776 12.0002 21.7776C11.4699 21.7776 10.9613 21.5669 10.5862 21.192L2.80823 13.414C2.43329 13.0389 2.22266 12.5303 2.22266 12C2.22266 11.4697 2.43329 10.9611 2.80823 10.586L10.5862 2.807C10.9613 2.43206 11.4699 2.22143 12.0002 2.22143C12.5306 2.22143 13.0392 2.43206 13.4142 2.807ZM12.0022 15C11.7472 14.9998 11.5017 15.097 11.316 15.2718C11.1302 15.4466 11.0183 15.6858 11.0031 15.9404C10.9879 16.195 11.0706 16.4458 11.2342 16.6414C11.3978 16.8371 11.63 16.9629 11.8832 16.993L12.0032 17C12.2684 17 12.5228 16.8946 12.7103 16.7071C12.8979 16.5196 13.0032 16.2652 13.0032 16C13.0032 15.7348 12.8979 15.4804 12.7103 15.2929C12.5228 15.1054 12.2684 15 12.0032 15H12.0022ZM12.0002 8C11.8073 7.99991 11.6163 8.03859 11.4386 8.11376C11.2609 8.18892 11.1001 8.29903 10.9657 8.43755C10.8314 8.57607 10.7263 8.74017 10.6567 8.92011C10.587 9.10004 10.5542 9.29214 10.5602 9.485L10.5702 9.62L11.0082 13.124C11.0371 13.3562 11.1465 13.5709 11.3173 13.7307C11.4881 13.8906 11.7096 13.9855 11.9431 13.9989C12.1767 14.0124 12.4076 13.9435 12.5956 13.8043C12.7836 13.6651 12.9169 13.4643 12.9722 13.237L12.9922 13.124L13.4302 9.62C13.4556 9.41722 13.4376 9.21136 13.3773 9.01609C13.3171 8.82082 13.216 8.64059 13.0807 8.48738C12.9455 8.33417 12.7792 8.21148 12.5929 8.12745C12.4066 8.04342 12.2046 7.99998 12.0002 8Z" fill="currentColor"/>
</svg>
