<svg width="24" height="24" viewBox="0 0 24 24" fill="none" xmlns="http://www.w3.org/2000/svg">
<path fill-rule="evenodd" clip-rule="evenodd" d="M15.314 2C15.8444 2.00011 16.353 2.2109 16.728 2.586L21.414 7.272C21.7891 7.64699 21.9999 8.15561 22 8.686V15.314C21.9999 15.8444 21.7891 16.353 21.414 16.728L16.728 21.414C16.353 21.7891 15.8444 21.9999 15.314 22H8.686C8.15561 21.9999 7.64699 21.7891 7.272 21.414L2.586 16.728C2.2109 16.353 2.00011 15.8444 2 15.314V8.686C2.00011 8.15561 2.2109 7.64699 2.586 7.272L7.272 2.586C7.64699 2.2109 8.15561 2.00011 8.686 2H15.314ZM12 15C11.7348 15 11.4804 15.1054 11.2929 15.2929C11.1054 15.4804 11 15.7348 11 16C11 16.2652 11.1054 16.5196 11.2929 16.7071C11.4804 16.8946 11.7348 17 12 17C12.2652 17 12.5196 16.8946 12.7071 16.7071C12.8946 16.5196 13 16.2652 13 16C13 15.7348 12.8946 15.4804 12.7071 15.2929C12.5196 15.1054 12.2652 15 12 15ZM12 6C11.7551 6.00003 11.5187 6.08996 11.3356 6.25272C11.1526 6.41547 11.0357 6.63975 11.007 6.883L11 7V13C11.0003 13.2549 11.0979 13.5 11.2728 13.6854C11.4478 13.8707 11.687 13.9822 11.9414 13.9972C12.1958 14.0121 12.4464 13.9293 12.6418 13.7657C12.8373 13.6021 12.9629 13.3701 12.993 13.117L13 13V7C13 6.73478 12.8946 6.48043 12.7071 6.29289C12.5196 6.10536 12.2652 6 12 6Z" fill="currentColor"/>
</svg>
