<svg width="24" height="24" viewBox="0 0 24 24" fill="none" xmlns="http://www.w3.org/2000/svg">
<path d="M9.056 17.303C9.33721 17.0217 9.49518 16.6402 9.49518 16.2425C9.49518 15.8448 9.33721 15.4633 9.056 15.182L7.375 13.5H15C15.3978 13.5 15.7794 13.342 16.0607 13.0607C16.342 12.7794 16.5 12.3978 16.5 12C16.5 11.6022 16.342 11.2206 16.0607 10.9393C15.7794 10.658 15.3978 10.5 15 10.5H7.374L9.056 8.818C9.19533 8.67873 9.30587 8.51339 9.3813 8.3314C9.45674 8.14941 9.49558 7.95435 9.49563 7.75735C9.49568 7.56035 9.45692 7.36527 9.38157 7.18325C9.30623 7.00123 9.19577 6.83583 9.0565 6.6965C8.91724 6.55717 8.75189 6.44663 8.5699 6.3712C8.38792 6.29577 8.19286 6.25692 7.99586 6.25687C7.598 6.25678 7.2164 6.41474 6.935 6.696L2.692 10.94C2.4108 11.2213 2.25282 11.6028 2.25282 12.0005C2.25282 12.3982 2.4108 12.7797 2.692 13.061L6.935 17.304C7.21629 17.5852 7.59776 17.7432 7.9955 17.7432C8.39325 17.7432 8.77471 17.5852 9.056 17.304V17.303ZM21.5 6C21.5 5.60218 21.342 5.22064 21.0607 4.93934C20.7794 4.65804 20.3978 4.5 20 4.5C19.6022 4.5 19.2206 4.65804 18.9393 4.93934C18.658 5.22064 18.5 5.60218 18.5 6V18C18.5 18.3978 18.658 18.7794 18.9393 19.0607C19.2206 19.342 19.6022 19.5 20 19.5C20.3978 19.5 20.7794 19.342 21.0607 19.0607C21.342 18.7794 21.5 18.3978 21.5 18V6Z" fill="currentColor"/>
</svg>
