<svg width="24" height="24" viewBox="0 0 24 24" fill="none" xmlns="http://www.w3.org/2000/svg">
<path d="M19 13C19.5046 12.9998 19.9906 13.1904 20.3605 13.5335C20.7305 13.8766 20.9572 14.3468 20.995 14.85L21 15V19C21.0002 19.5046 20.8096 19.9906 20.4665 20.3605C20.1234 20.7305 19.6532 20.9572 19.15 20.995L19 21H5C4.49542 21.0002 4.00943 20.8096 3.63945 20.4665C3.26947 20.1234 3.04284 19.6532 3.005 19.15L3 19V15C2.99984 14.4954 3.19041 14.0094 3.5335 13.6395C3.87659 13.2695 4.34684 13.0428 4.85 13.005L5 13H19ZM19 3C19.5046 2.99984 19.9906 3.19041 20.3605 3.5335C20.7305 3.87659 20.9572 4.34684 20.995 4.85L21 5V9C21.0002 9.50458 20.8096 9.99057 20.4665 10.3605C20.1234 10.7305 19.6532 10.9572 19.15 10.995L19 11H9C8.49542 11.0002 8.00943 10.8096 7.63945 10.4665C7.26947 10.1234 7.04284 9.65315 7.005 9.15L7 9V5C6.99984 4.49542 7.19041 4.00943 7.5335 3.63945C7.87659 3.26947 8.34685 3.04284 8.85 3.005L9 3H19Z" fill="currentColor"/>
</svg>
