<svg width="24" height="24" viewBox="0 0 24 24" fill="none" xmlns="http://www.w3.org/2000/svg">
<path d="M14.944 6.697C14.6628 6.97829 14.5048 7.35975 14.5048 7.7575C14.5048 8.15525 14.6628 8.53671 14.944 8.818L16.626 10.5H9C8.60218 10.5 8.22064 10.658 7.93934 10.9393C7.65804 11.2206 7.5 11.6022 7.5 12C7.5 12.3978 7.65804 12.7794 7.93934 13.0607C8.22064 13.342 8.60218 13.5 9 13.5H16.626L14.944 15.182C14.8007 15.3204 14.6865 15.4859 14.6078 15.6689C14.5292 15.8519 14.4879 16.0487 14.4861 16.2479C14.4844 16.4471 14.5223 16.6446 14.5978 16.8289C14.6732 17.0133 14.7846 17.1808 14.9254 17.3216C15.0662 17.4624 15.2337 17.5738 15.4181 17.6492C15.6024 17.7247 15.7999 17.7626 15.9991 17.7609C16.1983 17.7591 16.3951 17.7178 16.5781 17.6392C16.7611 17.5605 16.9266 17.4463 17.065 17.303L21.308 13.061C21.5892 12.7797 21.7472 12.3982 21.7472 12.0005C21.7472 11.6028 21.5892 11.2213 21.308 10.94L17.065 6.697C16.7837 6.41579 16.4022 6.25782 16.0045 6.25782C15.6068 6.25782 15.2253 6.41579 14.944 6.697ZM2.5 19C2.5 19.3978 2.65804 19.7794 2.93934 20.0607C3.22064 20.342 3.60218 20.5 4 20.5C4.39782 20.5 4.77936 20.342 5.06066 20.0607C5.34196 19.7794 5.5 19.3978 5.5 19V5C5.5 4.60218 5.34196 4.22064 5.06066 3.93934C4.77936 3.65804 4.39782 3.5 4 3.5C3.60218 3.5 3.22064 3.65804 2.93934 3.93934C2.65804 4.22064 2.5 4.60218 2.5 5V19Z" fill="currentColor"/>
</svg>
