<svg width="24" height="24" viewBox="0 0 24 24" fill="none" xmlns="http://www.w3.org/2000/svg">
<path d="M17.303 14.944C17.0217 14.6628 16.6402 14.5048 16.2425 14.5048C15.8448 14.5048 15.4633 14.6628 15.182 14.944L13.5 16.626V9C13.5 8.60218 13.342 8.22064 13.0607 7.93934C12.7794 7.65804 12.3978 7.5 12 7.5C11.6022 7.5 11.2206 7.65804 10.9393 7.93934C10.658 8.22064 10.5 8.60218 10.5 9V16.626L8.818 14.944C8.53674 14.6626 8.15521 14.5045 7.75735 14.5044C7.3595 14.5043 6.97789 14.6622 6.6965 14.9435C6.41511 15.2248 6.25697 15.6063 6.25687 16.0041C6.25678 16.402 6.41474 16.7836 6.696 17.065L10.939 21.308C11.2203 21.5892 11.6018 21.7472 11.9995 21.7472C12.3972 21.7472 12.7787 21.5892 13.06 21.308L17.303 17.065C17.5842 16.7837 17.7422 16.4022 17.7422 16.0045C17.7422 15.6068 17.5842 15.2253 17.303 14.944ZM5 2.5C4.60218 2.5 4.22064 2.65804 3.93934 2.93934C3.65804 3.22064 3.5 3.60218 3.5 4C3.5 4.39782 3.65804 4.77936 3.93934 5.06066C4.22064 5.34196 4.60218 5.5 5 5.5H19C19.3978 5.5 19.7794 5.34196 20.0607 5.06066C20.342 4.77936 20.5 4.39782 20.5 4C20.5 3.60218 20.342 3.22064 20.0607 2.93934C19.7794 2.65804 19.3978 2.5 19 2.5H5Z" fill="currentColor"/>
</svg>
