<svg width="24" height="24" viewBox="0 0 24 24" fill="none" xmlns="http://www.w3.org/2000/svg">
<path d="M6.697 9.056C6.97829 9.33721 7.35975 9.49518 7.7575 9.49518C8.15525 9.49518 8.53671 9.33721 8.818 9.056L10.5 7.375V15C10.5 15.3978 10.658 15.7794 10.9393 16.0607C11.2206 16.342 11.6022 16.5 12 16.5C12.3978 16.5 12.7794 16.342 13.0607 16.0607C13.342 15.7794 13.5 15.3978 13.5 15V7.374L15.182 9.056C15.3204 9.19926 15.4859 9.31354 15.6689 9.39215C15.8519 9.47076 16.0487 9.51214 16.2479 9.51388C16.4471 9.51561 16.6446 9.47765 16.8289 9.40223C17.0133 9.32681 17.1808 9.21543 17.3216 9.07459C17.4624 8.93375 17.5738 8.76627 17.6492 8.58193C17.7247 8.39759 17.7626 8.20007 17.7609 8.0009C17.7591 7.80173 17.7178 7.6049 17.6392 7.42189C17.5605 7.23889 17.4463 7.07337 17.303 6.935L13.061 2.692C12.7797 2.41079 12.3982 2.25282 12.0005 2.25282C11.6028 2.25282 11.2213 2.41079 10.94 2.692L6.697 6.935C6.41579 7.21629 6.25782 7.59775 6.25782 7.9955C6.25782 8.39324 6.41579 8.77471 6.697 9.056ZM19 21.5C19.3978 21.5 19.7794 21.342 20.0607 21.0607C20.342 20.7794 20.5 20.3978 20.5 20C20.5 19.6022 20.342 19.2206 20.0607 18.9393C19.7794 18.658 19.3978 18.5 19 18.5H5C4.60218 18.5 4.22064 18.658 3.93934 18.9393C3.65804 19.2206 3.5 19.6022 3.5 20C3.5 20.3978 3.65804 20.7794 3.93934 21.0607C4.22064 21.342 4.60218 21.5 5 21.5H19Z" fill="currentColor"/>
</svg>
