<svg width="24" height="24" viewBox="0 0 24 24" fill="none" xmlns="http://www.w3.org/2000/svg">
<path fill-rule="evenodd" clip-rule="evenodd" d="M5 3C4.46957 3 3.96086 3.21071 3.58579 3.58579C3.21071 3.96086 3 4.46957 3 5V19C3 19.5304 3.21071 20.0391 3.58579 20.4142C3.96086 20.7893 4.46957 21 5 21H9C9.53043 21 10.0391 20.7893 10.4142 20.4142C10.7893 20.0391 11 19.5304 11 19V5C11 4.46957 10.7893 3.96086 10.4142 3.58579C10.0391 3.21071 9.53043 3 9 3H5ZM15 5C14.4696 5 13.9609 5.21071 13.5858 5.58579C13.2107 5.96086 13 6.46957 13 7V17C13 17.5304 13.2107 18.0391 13.5858 18.4142C13.9609 18.7893 14.4696 19 15 19H19C19.5304 19 20.0391 18.7893 20.4142 18.4142C20.7893 18.0391 21 17.5304 21 17V7C21 6.46957 20.7893 5.96086 20.4142 5.58579C20.0391 5.21071 19.5304 5 19 5H15Z" fill="currentColor"/>
</svg>
