<svg width="24" height="24" viewBox="0 0 24 24" fill="none" xmlns="http://www.w3.org/2000/svg">
<path fill-rule="evenodd" clip-rule="evenodd" d="M5 3C4.46957 3 3.96086 3.21071 3.58579 3.58579C3.21071 3.96086 3 4.46957 3 5V19C3 19.5304 3.21071 20.0391 3.58579 20.4142C3.96086 20.7893 4.46957 21 5 21H9C9.53043 21 10.0391 20.7893 10.4142 20.4142C10.7893 20.0391 11 19.5304 11 19V5C11 4.46957 10.7893 3.96086 10.4142 3.58579C10.0391 3.21071 9.53043 3 9 3H5ZM15 3C14.4696 3 13.9609 3.21071 13.5858 3.58579C13.2107 3.96086 13 4.46957 13 5V15C13 15.5304 13.2107 16.0391 13.5858 16.4142C13.9609 16.7893 14.4696 17 15 17H19C19.5304 17 20.0391 16.7893 20.4142 16.4142C20.7893 16.0391 21 15.5304 21 15V5C21 4.46957 20.7893 3.96086 20.4142 3.58579C20.0391 3.21071 19.5304 3 19 3H15Z" fill="currentColor"/>
</svg>
