<svg width="24" height="24" viewBox="0 0 24 24" fill="none" xmlns="http://www.w3.org/2000/svg">
<path d="M4 2.5C3.60218 2.5 3.22064 2.65804 2.93934 2.93934C2.65804 3.22064 2.5 3.60218 2.5 4C2.5 4.39782 2.65804 4.77936 2.93934 5.06066C3.22064 5.34196 3.60218 5.5 4 5.5H20C20.3978 5.5 20.7794 5.34196 21.0607 5.06066C21.342 4.77936 21.5 4.39782 21.5 4C21.5 3.60218 21.342 3.22064 21.0607 2.93934C20.7794 2.65804 20.3978 2.5 20 2.5H4ZM4 7.5C3.60218 7.5 3.22064 7.65804 2.93934 7.93934C2.65804 8.22064 2.5 8.60218 2.5 9C2.5 9.39782 2.65804 9.77936 2.93934 10.0607C3.22064 10.342 3.60218 10.5 4 10.5H20C20.3978 10.5 20.7794 10.342 21.0607 10.0607C21.342 9.77936 21.5 9.39782 21.5 9C21.5 8.60218 21.342 8.22064 21.0607 7.93934C20.7794 7.65804 20.3978 7.5 20 7.5H4ZM2.5 14C2.5 13.6022 2.65804 13.2206 2.93934 12.9393C3.22064 12.658 3.60218 12.5 4 12.5H20C20.3978 12.5 20.7794 12.658 21.0607 12.9393C21.342 13.2206 21.5 13.6022 21.5 14C21.5 14.3978 21.342 14.7794 21.0607 15.0607C20.7794 15.342 20.3978 15.5 20 15.5H4C3.60218 15.5 3.22064 15.342 2.93934 15.0607C2.65804 14.7794 2.5 14.3978 2.5 14ZM4 17.5C3.60218 17.5 3.22064 17.658 2.93934 17.9393C2.65804 18.2206 2.5 18.6022 2.5 19C2.5 19.3978 2.65804 19.7794 2.93934 20.0607C3.22064 20.342 3.60218 20.5 4 20.5H20C20.3978 20.5 20.7794 20.342 21.0607 20.0607C21.342 19.7794 21.5 19.3978 21.5 19C21.5 18.6022 21.342 18.2206 21.0607 17.9393C20.7794 17.658 20.3978 17.5 20 17.5H4Z" fill="currentColor"/>
</svg>
