<svg width="24" height="24" viewBox="0 0 24 24" fill="none" xmlns="http://www.w3.org/2000/svg">
<path d="M20 17.5C20.3852 17.5002 20.7556 17.6486 21.0344 17.9144C21.3132 18.1802 21.479 18.5431 21.4975 18.9279C21.516 19.3127 21.3858 19.6898 21.1338 19.9812C20.8818 20.2726 20.5274 20.4558 20.144 20.493L20 20.5H10C9.61478 20.4998 9.24441 20.3514 8.96561 20.0856C8.68682 19.8198 8.52099 19.4569 8.50248 19.0721C8.48396 18.6873 8.61419 18.3102 8.86618 18.0188C9.11816 17.7274 9.47258 17.5442 9.856 17.507L10 17.5H20ZM20 12.5C20.3978 12.5 20.7794 12.658 21.0607 12.9393C21.342 13.2206 21.5 13.6022 21.5 14C21.5 14.3978 21.342 14.7794 21.0607 15.0607C20.7794 15.342 20.3978 15.5 20 15.5H4C3.60218 15.5 3.22064 15.342 2.93934 15.0607C2.65804 14.7794 2.5 14.3978 2.5 14C2.5 13.6022 2.65804 13.2206 2.93934 12.9393C3.22064 12.658 3.60218 12.5 4 12.5H20ZM20 7.5C20.3852 7.50019 20.7556 7.64858 21.0344 7.91441C21.3132 8.18024 21.479 8.54314 21.4975 8.92791C21.516 9.31269 21.3858 9.68983 21.1338 9.9812C20.8818 10.2726 20.5274 10.4558 20.144 10.493L20 10.5H10C9.61478 10.4998 9.24441 10.3514 8.96561 10.0856C8.68682 9.81976 8.52099 9.45686 8.50248 9.07209C8.48396 8.68731 8.61419 8.31017 8.86618 8.0188C9.11816 7.72743 9.47258 7.54417 9.856 7.507L10 7.5H20ZM20 2.5C20.3852 2.50019 20.7556 2.64858 21.0344 2.91441C21.3132 3.18024 21.479 3.54314 21.4975 3.92791C21.516 4.31269 21.3858 4.68983 21.1338 4.9812C20.8818 5.27257 20.5274 5.45583 20.144 5.493L20 5.5H4C3.61478 5.49981 3.24441 5.35142 2.96561 5.08559C2.68682 4.81976 2.52099 4.45686 2.50248 4.07209C2.48396 3.68731 2.61419 3.31017 2.86618 3.0188C3.11816 2.72743 3.47258 2.54417 3.856 2.507L4 2.5H20Z" fill="currentColor"/>
</svg>
