<svg width="24" height="24" viewBox="0 0 24 24" fill="none" xmlns="http://www.w3.org/2000/svg">
<path d="M20.893 16.578C21.6228 15.1625 22.0024 13.5926 22 12C22 6.477 17.523 2 12 2C6.477 2 2 6.477 2 12C2 17.523 6.477 22 12 22C13.496 22.0013 14.9732 21.6664 16.3222 21.0199C17.6713 20.3734 18.8578 19.4319 19.794 18.265L19.069 17.903C18.0016 17.4156 16.9376 16.9209 15.877 16.419C15.072 16.04 14.355 15.703 13.697 15.406C13.42 15.8028 13.1099 16.1755 12.77 16.52C11.648 17.64 10.52 18 9.5 18C7.632 18 6 16.82 6 15C6 13.316 7.48 12 9 12C10.268 12 11.494 12.334 12.887 12.884C13.099 12.477 13.315 12.018 13.534 11.5H9C8.73478 11.5 8.48043 11.3946 8.29289 11.2071C8.10536 11.0196 8 10.7652 8 10.5C8 10.2348 8.10536 9.98043 8.29289 9.79289C8.48043 9.60536 8.73478 9.5 9 9.5H11V9H8C7.73478 9 7.48043 8.89464 7.29289 8.70711C7.10536 8.51957 7 8.26522 7 8C7 7.73478 7.10536 7.48043 7.29289 7.29289C7.48043 7.10536 7.73478 7 8 7H11V6C11 5.73478 11.1054 5.48043 11.2929 5.29289C11.4804 5.10536 11.7348 5 12 5C12.2652 5 12.5196 5.10536 12.7071 5.29289C12.8946 5.48043 13 5.73478 13 6V7H16C16.2652 7 16.5196 7.10536 16.7071 7.29289C16.8946 7.48043 17 7.73478 17 8C17 8.26522 16.8946 8.51957 16.7071 8.70711C16.5196 8.89464 16.2652 9 16 9H13V9.5H15C15.1608 9.49995 15.3192 9.53867 15.4618 9.61288C15.6045 9.68709 15.7271 9.7946 15.8194 9.92629C15.9116 10.058 15.9707 10.21 15.9917 10.3694C16.0127 10.5288 15.995 10.6909 15.94 10.842C15.5942 11.8108 15.1894 12.7576 14.728 13.677C15.357 13.964 16.041 14.286 16.788 14.637C17.726 15.079 18.763 15.567 19.914 16.09L19.947 16.106L20.893 16.578Z" fill="currentColor"/>
<path d="M9 14C9.827 14 10.687 14.194 11.797 14.608C11.6592 14.7819 11.5116 14.9478 11.355 15.105C10.602 15.86 9.98 16 9.5 16C8.368 16 8 15.38 8 15C8 14.484 8.52 14 9 14Z" fill="currentColor"/>
</svg>
