<svg width="24" height="24" viewBox="0 0 24 24" fill="none" xmlns="http://www.w3.org/2000/svg">
<path fill-rule="evenodd" clip-rule="evenodd" d="M7.457 5.027C7.682 4.734 7.917 4.457 8.157 4.198C8.62571 4.7624 9.21311 5.21651 9.87735 5.52797C10.5416 5.83944 11.2664 6.00061 12 6C12.7338 6.00076 13.4588 5.83966 14.1232 5.52819C14.7876 5.21671 15.3752 4.76253 15.844 4.198C16.084 4.456 16.318 4.734 16.544 5.028C17.896 6.79 19 9.25 19 12C19 14.75 17.897 17.209 16.543 18.973C16.318 19.266 16.083 19.543 15.843 19.802C15.3743 19.2376 14.7869 18.7835 14.1226 18.472C13.4584 18.1606 12.7336 17.9994 12 18C11.2662 17.9992 10.5412 18.1603 9.87681 18.4718C9.21237 18.7833 8.62482 19.2375 8.156 19.802C7.916 19.544 7.682 19.266 7.456 18.972C6.104 17.21 5 14.75 5 12C5 9.25 6.103 6.791 7.457 5.027ZM13 9C13 8.73478 12.8946 8.48043 12.7071 8.29289C12.5196 8.10536 12.2652 8 12 8C11.7348 8 11.4804 8.10536 11.2929 8.29289C11.1054 8.48043 11 8.73478 11 9C10.7348 9 10.4804 9.10536 10.2929 9.29289C10.1054 9.48043 10 9.73478 10 10C10 10.2652 10.1054 10.5196 10.2929 10.7071C10.4804 10.8946 10.7348 11 11 11V13C10.7348 13 10.4804 13.1054 10.2929 13.2929C10.1054 13.4804 10 13.7348 10 14C10 14.2652 10.1054 14.5196 10.2929 14.7071C10.4804 14.8946 10.7348 15 11 15C11 15.2652 11.1054 15.5196 11.2929 15.7071C11.4804 15.8946 11.7348 16 12 16C12.2652 16 12.5196 15.8946 12.7071 15.7071C12.8946 15.5196 13 15.2652 13 15C13.2652 15 13.5196 14.8946 13.7071 14.7071C13.8946 14.5196 14 14.2652 14 14C14 13.7348 13.8946 13.4804 13.7071 13.2929C13.5196 13.1054 13.2652 13 13 13V11C13.2652 11 13.5196 10.8946 13.7071 10.7071C13.8946 10.5196 14 10.2652 14 10C14 9.73478 13.8946 9.48043 13.7071 9.29289C13.5196 9.10536 13.2652 9 13 9ZM9.66 21.122C10.383 21.622 11.207 22 12 22C12.793 22 13.617 21.622 14.34 21.122C14.0591 20.7714 13.7029 20.4885 13.2979 20.2943C12.8928 20.1001 12.4492 19.9995 12 20C11.054 20 10.21 20.438 9.66 21.122ZM12 2C12.793 2 13.617 2.378 14.34 2.878C14.0591 3.22859 13.7029 3.51148 13.2979 3.7057C12.8928 3.89993 12.4492 4.00051 12 4C11.054 4 10.21 3.562 9.66 2.878C10.383 2.378 11.207 2 12 2Z" fill="currentColor"/>
</svg>
