<svg width="24" height="24" viewBox="0 0 24 24" fill="none" xmlns="http://www.w3.org/2000/svg">
<path fill-rule="evenodd" clip-rule="evenodd" d="M10.5 10.244C9.50057 9.88877 8.65866 9.19205 8.12272 8.27672C7.58679 7.36139 7.39125 6.28623 7.57059 5.24081C7.74993 4.1954 8.29262 3.24687 9.10298 2.56249C9.91334 1.87811 10.9393 1.50183 12 1.5C13.0622 1.49909 14.0905 1.87396 14.9029 2.55828C15.7153 3.24259 16.2595 4.19224 16.4391 5.23916C16.6187 6.28608 16.4221 7.36278 15.8842 8.27873C15.3463 9.19469 14.5018 9.89084 13.5 10.244V19.35C14.9408 19.055 16.2633 18.3433 17.3033 17.3033C18.3433 16.2633 19.055 14.9409 19.35 13.5H18C17.6022 13.5 17.2206 13.342 16.9393 13.0607C16.658 12.7794 16.5 12.3978 16.5 12C16.5 11.6022 16.658 11.2206 16.9393 10.9393C17.2206 10.658 17.6022 10.5 18 10.5H21C21.3978 10.5 21.7794 10.658 22.0607 10.9393C22.342 11.2206 22.5 11.6022 22.5 12C22.5 17.799 17.799 22.5 12 22.5C6.201 22.5 1.5 17.799 1.5 12C1.5 11.6022 1.65804 11.2206 1.93934 10.9393C2.22064 10.658 2.60218 10.5 3 10.5H6C6.39782 10.5 6.77936 10.658 7.06066 10.9393C7.34196 11.2206 7.5 11.6022 7.5 12C7.5 12.3978 7.34196 12.7794 7.06066 13.0607C6.77936 13.342 6.39782 13.5 6 13.5H4.65C4.94504 14.9409 5.65672 16.2633 6.69669 17.3033C7.73667 18.3433 9.05915 19.055 10.5 19.35V10.244ZM12 4.5C11.6022 4.5 11.2206 4.65804 10.9393 4.93934C10.658 5.22065 10.5 5.60218 10.5 6C10.5 6.39783 10.658 6.77936 10.9393 7.06066C11.2206 7.34197 11.6022 7.5 12 7.5C12.3978 7.5 12.7794 7.34197 13.0607 7.06066C13.342 6.77936 13.5 6.39783 13.5 6C13.5 5.60218 13.342 5.22065 13.0607 4.93934C12.7794 4.65804 12.3978 4.5 12 4.5Z" fill="currentColor"/>
</svg>
