<svg width="24" height="24" viewBox="0 0 24 24" fill="none" xmlns="http://www.w3.org/2000/svg">
<path fill-rule="evenodd" clip-rule="evenodd" d="M8.017 2.86101C8.81795 2.07994 9.89638 1.64905 11.015 1.66311C12.1337 1.67718 13.2009 2.13505 13.982 2.93601C14.7631 3.73696 15.194 4.81539 15.1799 5.93404C15.1658 7.05269 14.708 8.11994 13.907 8.90101L13.741 9.05001L12.5 10.11L16.599 14.893C16.929 14.205 17.26 13.411 17.587 12.494C17.7209 12.1193 17.9983 11.8131 18.3579 11.6428C18.7176 11.4725 19.1302 11.4521 19.505 11.586C19.8798 11.7199 20.1859 11.9973 20.3562 12.357C20.5265 12.7166 20.5469 13.1293 20.413 13.504C19.936 14.839 19.432 15.992 18.903 16.984L18.703 17.348L20.139 19.023C20.3899 19.3149 20.519 19.692 20.4996 20.0764C20.4802 20.4608 20.3138 20.8231 20.0348 21.0882C19.7558 21.3533 19.3856 21.5011 19.0007 21.5009C18.6158 21.5006 18.2457 21.3525 17.967 21.087L17.861 20.975L16.914 19.87C16.6148 20.1975 16.2927 20.5033 15.95 20.785C14.232 22.192 12.484 22.5 11 22.5C7.77 22.5 4.5 19.924 4.5 16C4.5 14.864 4.93 13.817 5.445 12.957C5.966 12.086 6.638 11.298 7.272 10.65C7.518 10.4 7.762 10.164 7.998 9.94901L8.23 9.73901L7.631 9.04101C6.92937 8.22239 6.54981 7.17632 6.56324 6.09825C6.57668 5.02018 6.98219 3.98388 7.704 3.18301L7.863 3.01601L8.017 2.86101ZM10.183 12.018C9.936 12.238 9.675 12.484 9.416 12.749C8.878 13.299 8.378 13.899 8.02 14.497C7.655 15.107 7.5 15.611 7.5 16C7.5 18.076 9.23 19.5 11 19.5C12.016 19.5 13.018 19.308 14.05 18.464C14.28 18.276 14.516 18.052 14.759 17.781L14.942 17.571L10.183 12.018ZM11.861 4.98301C11.649 4.7708 11.3662 4.64427 11.0667 4.62766C10.7672 4.61105 10.4721 4.70554 10.238 4.89301L10.138 4.98301L9.984 5.13701L9.884 5.24701C9.482 5.74201 9.454 6.44701 9.818 6.97101L9.908 7.08901L10.548 7.83401L11.792 6.77001L11.892 6.67301C12.1067 6.44218 12.2235 6.13712 12.2179 5.82196C12.2123 5.50679 12.0847 5.20607 11.862 4.98301H11.861Z" fill="currentColor"/>
</svg>
