<svg width="24" height="24" viewBox="0 0 24 24" fill="none" xmlns="http://www.w3.org/2000/svg">
<path fill-rule="evenodd" clip-rule="evenodd" d="M12 2C17.523 2 22 6.477 22 12C22 17.523 17.523 22 12 22C6.477 22 2 17.523 2 12C2 6.477 6.477 2 12 2ZM12 13C10.782 12.9987 9.6056 13.4433 8.693 14.25C8.49409 14.4254 8.37302 14.6727 8.35642 14.9374C8.33982 15.2021 8.42906 15.4626 8.6045 15.6615C8.77994 15.8604 9.02721 15.9815 9.29192 15.9981C9.55663 16.0147 9.81709 15.9254 10.016 15.75C10.5632 15.2655 11.2692 14.9987 12 15C12.7309 14.9982 13.437 15.2651 13.984 15.75C14.1829 15.9256 14.4434 16.0149 14.7082 15.9984C14.973 15.9819 15.2204 15.8609 15.396 15.662C15.5716 15.4631 15.6609 15.2026 15.6444 14.9378C15.6279 14.673 15.5069 14.4256 15.308 14.25C14.3951 13.4431 13.2184 12.9984 12 13ZM7.106 8.553C6.98758 8.79013 6.96814 9.06456 7.05196 9.31601C7.13577 9.56746 7.31599 9.77535 7.553 9.894L9.553 10.894C9.67088 10.9576 9.80032 10.9968 9.93365 11.0094C10.067 11.022 10.2015 11.0077 10.3292 10.9673C10.4569 10.9269 10.5751 10.8613 10.677 10.7743C10.7788 10.6874 10.8622 10.5808 10.9221 10.461C10.982 10.3412 11.0172 10.2107 11.0256 10.077C11.0341 9.94334 11.0156 9.80935 10.9713 9.68297C10.927 9.55659 10.8578 9.4404 10.7677 9.34128C10.6776 9.24217 10.5686 9.16216 10.447 9.106L8.447 8.106C8.20987 7.98758 7.93544 7.96814 7.68399 8.05196C7.43254 8.13577 7.22465 8.31599 7.106 8.553ZM15.553 8.106L13.553 9.106C13.4314 9.16216 13.3224 9.24217 13.2323 9.34128C13.1422 9.4404 13.073 9.55659 13.0287 9.68297C12.9844 9.80935 12.9659 9.94334 12.9744 10.077C12.9828 10.2107 13.018 10.3412 13.0779 10.461C13.1378 10.5808 13.2212 10.6874 13.323 10.7743C13.4249 10.8613 13.5431 10.9269 13.6708 10.9673C13.7985 11.0077 13.933 11.022 14.0663 11.0094C14.1997 10.9968 14.3291 10.9576 14.447 10.894L16.447 9.894C16.5686 9.83784 16.6776 9.75783 16.7677 9.65872C16.8578 9.5596 16.927 9.44341 16.9713 9.31703C17.0156 9.19065 17.0341 9.05666 17.0256 8.923C17.0172 8.78934 16.982 8.65875 16.9221 8.53897C16.8622 8.41918 16.7788 8.31265 16.677 8.22569C16.5751 8.13872 16.4569 8.0731 16.3292 8.03272C16.2015 7.99234 16.067 7.97802 15.9337 7.99061C15.8003 8.00319 15.6709 8.04243 15.553 8.106Z" fill="currentColor"/>
</svg>
