<svg width="24" height="24" viewBox="0 0 24 24" fill="none" xmlns="http://www.w3.org/2000/svg">
<path d="M14 8C14.5046 7.99984 14.9906 8.19041 15.3605 8.5335C15.7305 8.87659 15.9572 9.34685 15.995 9.85L16 10V19C16.0002 19.5046 15.8096 19.9906 15.4665 20.3605C15.1234 20.7305 14.6532 20.9572 14.15 20.995L14 21H4C3.49542 21.0002 3.00943 20.8096 2.63945 20.4665C2.26947 20.1234 2.04284 19.6532 2.005 19.15L2 19V10C1.99984 9.49542 2.19041 9.00943 2.5335 8.63945C2.87659 8.26947 3.34684 8.04284 3.85 8.005L4 8H14ZM18 3C18.2652 3 18.5196 3.10536 18.7071 3.29289C18.8946 3.48043 19 3.73478 19 4C19 4.26522 18.8946 4.51957 18.7071 4.70711C18.5196 4.89464 18.2652 5 18 5H17.005C17.225 5.134 17.447 5.275 17.668 5.426C19.362 6.576 21.068 8.261 21.94 10.658C21.9849 10.7814 22.0051 10.9125 21.9993 11.0438C21.9936 11.175 21.962 11.3038 21.9065 11.4228C21.851 11.5419 21.7725 11.6488 21.6757 11.7376C21.5788 11.8263 21.4654 11.8951 21.342 11.94C21.2186 11.9849 21.0875 12.0051 20.9562 11.9993C20.825 11.9936 20.6962 11.962 20.5772 11.9065C20.4581 11.851 20.3512 11.7725 20.2624 11.6757C20.1737 11.5788 20.1049 11.4654 20.06 11.342C19.377 9.463 18.018 8.082 16.544 7.08C15.07 6.078 13.536 5.496 12.609 5.205C11.874 4.974 11.808 4.257 11.849 3.972C11.889 3.688 12.156 3 12.944 3H18Z" fill="currentColor"/>
</svg>
