<svg width="24" height="24" viewBox="0 0 24 24" fill="none" xmlns="http://www.w3.org/2000/svg">
<path fill-rule="evenodd" clip-rule="evenodd" d="M11.4995 3.7C11.9267 3.70009 12.3454 3.81913 12.7087 4.0438C13.072 4.26847 13.3656 4.58987 13.5565 4.972L16.2895 10.437C16.9644 9.61905 17.417 8.64089 17.6035 7.597C17.7104 6.99641 18.0515 6.46289 18.5518 6.11379C19.052 5.76469 19.6705 5.62861 20.271 5.7355C20.8716 5.84238 21.4051 6.18346 21.7542 6.68372C22.1033 7.18397 22.2394 7.80241 22.1325 8.403C21.6875 10.8885 20.3854 13.1393 18.4525 14.764L19.5565 16.972C19.6964 17.2426 19.7811 17.5383 19.8057 17.8419C19.8303 18.1456 19.7944 18.4511 19.7 18.7407C19.6056 19.0303 19.4546 19.2983 19.2558 19.5291C19.057 19.7599 18.8143 19.9489 18.5418 20.0851C18.2694 20.2213 17.9726 20.3021 17.6686 20.3226C17.3647 20.3432 17.0597 20.3032 16.7714 20.205C16.4831 20.1067 16.2171 19.9522 15.989 19.7503C15.7609 19.5484 15.5751 19.3032 15.4425 19.029L14.3835 16.911C13.4655 17.165 12.4985 17.301 11.4995 17.301C10.5005 17.301 9.53353 17.165 8.61553 16.911L7.55653 19.029C7.27892 19.5662 6.80093 19.9725 6.22601 20.1599C5.65109 20.3473 5.02549 20.3007 4.48464 20.0303C3.94379 19.7598 3.53119 19.2873 3.33616 18.7149C3.14112 18.1426 3.17933 17.5164 3.44253 16.972L4.54653 14.764C3.68182 14.0363 2.93616 13.178 2.33653 12.22C2.01297 11.7028 1.9081 11.0783 2.045 10.4838C2.1819 9.88932 2.54936 9.37356 3.06653 9.05C3.5837 8.72643 4.20823 8.62157 4.80272 8.75847C5.39721 8.89537 5.91297 9.26282 6.23653 9.78C6.38053 10.01 6.53853 10.23 6.70953 10.437L9.44253 4.972C9.63346 4.58987 9.92703 4.26847 10.2903 4.0438C10.6537 3.81913 11.0724 3.70009 11.4995 3.7ZM10.7435 12.655C11.2457 12.7158 11.7534 12.7158 12.2555 12.655L11.4995 11.143L10.7435 12.655Z" fill="currentColor"/>
</svg>
