<svg width="24" height="24" viewBox="0 0 24 24" fill="none" xmlns="http://www.w3.org/2000/svg">
<path d="M5.5 6C5.5 5.60218 5.34196 5.22064 5.06066 4.93934C4.77936 4.65804 4.39782 4.5 4 4.5C3.60218 4.5 3.22064 4.65804 2.93934 4.93934C2.65804 5.22064 2.5 5.60218 2.5 6V18C2.5 18.3978 2.65804 18.7794 2.93934 19.0607C3.22064 19.342 3.60218 19.5 4 19.5C4.39782 19.5 4.77936 19.342 5.06066 19.0607C5.34196 18.7794 5.5 18.3978 5.5 18V6ZM13.056 17.303C13.3372 17.0217 13.4952 16.6402 13.4952 16.2425C13.4952 15.8448 13.3372 15.4633 13.056 15.182L11.374 13.5H20C20.3978 13.5 20.7794 13.342 21.0607 13.0607C21.342 12.7794 21.5 12.3978 21.5 12C21.5 11.6022 21.342 11.2206 21.0607 10.9393C20.7794 10.658 20.3978 10.5 20 10.5H11.374L13.056 8.818C13.1953 8.67873 13.3059 8.51339 13.3813 8.3314C13.4567 8.14941 13.4956 7.95435 13.4956 7.75735C13.4957 7.56035 13.4569 7.36527 13.3816 7.18325C13.3062 7.00123 13.1958 6.83583 13.0565 6.6965C12.9172 6.55717 12.7519 6.44663 12.5699 6.3712C12.3879 6.29577 12.1929 6.25692 11.9959 6.25687C11.598 6.25678 11.2164 6.41474 10.935 6.696L6.692 10.94C6.41079 11.2213 6.25282 11.6028 6.25282 12.0005C6.25282 12.3982 6.41079 12.7797 6.692 13.061L10.935 17.304C11.2163 17.5852 11.5978 17.7432 11.9955 17.7432C12.3932 17.7432 12.7747 17.5852 13.056 17.304V17.303Z" fill="currentColor"/>
</svg>
