<svg width="24" height="24" viewBox="0 0 24 24" fill="none" xmlns="http://www.w3.org/2000/svg">
<path d="M8.086 13.793V9.414C8.086 9.01617 7.92796 8.63464 7.64666 8.35334C7.36535 8.07203 6.98382 7.914 6.586 7.914C6.18817 7.914 5.80664 8.07203 5.52534 8.35334C5.24403 8.63464 5.086 9.01617 5.086 9.414V17.414C5.086 17.8118 5.24403 18.1934 5.52534 18.4747C5.80664 18.756 6.18817 18.914 6.586 18.914H14.586C14.9838 18.914 15.3654 18.756 15.6467 18.4747C15.928 18.1934 16.086 17.8118 16.086 17.414C16.086 17.0162 15.928 16.6346 15.6467 16.3533C15.3654 16.072 14.9838 15.914 14.586 15.914H10.207L18.364 7.757C18.5096 7.61919 18.6261 7.45359 18.7067 7.26998C18.7872 7.08637 18.8301 6.88847 18.8328 6.688C18.8356 6.48752 18.7981 6.28853 18.7226 6.10279C18.6471 5.91705 18.5352 5.74832 18.3934 5.60659C18.2516 5.46485 18.0828 5.35298 17.897 5.27759C17.7113 5.20219 17.5122 5.16481 17.3118 5.16765C17.1113 5.17048 16.9134 5.21348 16.7299 5.29409C16.5463 5.37471 16.3807 5.49131 16.243 5.637L8.086 13.793Z" fill="currentColor"/>
</svg>
