<svg width="24" height="24" viewBox="0 0 24 24" fill="none" xmlns="http://www.w3.org/2000/svg">
<path fill-rule="evenodd" clip-rule="evenodd" d="M5.93999 5.93999C6.22124 5.65909 6.60249 5.50131 6.99999 5.50131C7.39749 5.50131 7.77874 5.65909 8.05999 5.93999L13.06 10.94C13.3409 11.2212 13.4987 11.6025 13.4987 12C13.4987 12.3975 13.3409 12.7787 13.06 13.06L8.05999 18.06C7.77564 18.325 7.39955 18.4692 7.01095 18.4623C6.62235 18.4555 6.25158 18.2981 5.97675 18.0232C5.70192 17.7484 5.5445 17.3776 5.53764 16.989C5.53079 16.6004 5.67503 16.2243 5.93999 15.94L9.87799 12L5.93799 8.05999C5.65709 7.77874 5.49931 7.39749 5.49931 6.99999C5.49931 6.60249 5.65709 6.22124 5.93799 5.93999H5.93999ZM11.94 5.93999C12.2212 5.65909 12.6025 5.50131 13 5.50131C13.3975 5.50131 13.7787 5.65909 14.06 5.93999L19.06 10.94C19.3409 11.2212 19.4987 11.6025 19.4987 12C19.4987 12.3975 19.3409 12.7787 19.06 13.06L14.06 18.06C13.7756 18.325 13.3996 18.4692 13.0109 18.4623C12.6223 18.4555 12.2516 18.2981 11.9767 18.0232C11.7019 17.7484 11.5445 17.3776 11.5376 16.989C11.5308 16.6004 11.675 16.2243 11.94 15.94L15.878 12L11.938 8.05999C11.6571 7.77874 11.4993 7.39749 11.4993 6.99999C11.4993 6.60249 11.6571 6.22124 11.938 5.93999H11.94Z" fill="currentColor"/>
</svg>
