<svg width="24" height="24" viewBox="0 0 24 24" fill="none" xmlns="http://www.w3.org/2000/svg">
<path d="M10.5 16.035L7.404 12.94C7.12274 12.6586 6.74121 12.5005 6.34335 12.5004C5.94549 12.5003 5.56389 12.6582 5.2825 12.9395C5.0011 13.2208 4.84297 13.6023 4.84287 14.0001C4.84278 14.398 5.00074 14.7796 5.282 15.061L10.939 20.718C11.0783 20.8574 11.2437 20.968 11.4258 21.0434C11.6078 21.1188 11.8029 21.1577 12 21.1577C12.1971 21.1577 12.3922 21.1188 12.5742 21.0434C12.7563 20.968 12.9217 20.8574 13.061 20.718L18.718 15.062C18.8573 14.9227 18.9679 14.7573 19.0433 14.5752C19.1187 14.3932 19.1575 14.198 19.1575 14.001C19.1575 13.804 19.1187 13.6088 19.0433 13.4268C18.9679 13.2447 18.8573 13.0793 18.718 12.94C18.5787 12.8007 18.4133 12.6901 18.2312 12.6147C18.0492 12.5393 17.854 12.5005 17.657 12.5005C17.46 12.5005 17.2648 12.5393 17.0828 12.6147C16.9007 12.6901 16.7353 12.8007 16.596 12.94L13.5 16.035V4.5C13.5 4.10218 13.342 3.72064 13.0607 3.43934C12.7794 3.15804 12.3978 3 12 3C11.6022 3 11.2206 3.15804 10.9393 3.43934C10.658 3.72064 10.5 4.10218 10.5 4.5V16.035Z" fill="currentColor"/>
</svg>
