<svg width="24" height="24" viewBox="0 0 24 24" fill="none" xmlns="http://www.w3.org/2000/svg">
<path fill-rule="evenodd" clip-rule="evenodd" d="M12 22C17.523 22 22 17.523 22 12C22 6.477 17.523 2 12 2C6.477 2 2 6.477 2 12C2 17.523 6.477 22 12 22ZM12.005 7.758C11.8175 7.94553 11.7122 8.19984 11.7122 8.465C11.7122 8.73016 11.8175 8.98447 12.005 9.172L13.833 11H7.757C7.49178 11 7.23743 11.1054 7.04989 11.2929C6.86236 11.4804 6.757 11.7348 6.757 12C6.757 12.2652 6.86236 12.5196 7.04989 12.7071C7.23743 12.8946 7.49178 13 7.757 13H13.833L12.005 14.829C11.8228 15.0176 11.722 15.2702 11.7243 15.5324C11.7266 15.7946 11.8318 16.0454 12.0172 16.2308C12.2026 16.4162 12.4534 16.5214 12.7156 16.5237C12.9778 16.526 13.2304 16.4252 13.419 16.243L16.954 12.707C17.1415 12.5195 17.2468 12.2652 17.2468 12C17.2468 11.7348 17.1415 11.4805 16.954 11.293L13.42 7.758C13.2325 7.57053 12.9782 7.46521 12.713 7.46521C12.4478 7.46521 12.1925 7.57053 12.005 7.758Z" fill="currentColor"/>
</svg>
