<svg width="24" height="24" viewBox="0 0 24 24" fill="none" xmlns="http://www.w3.org/2000/svg">
<path fill-rule="evenodd" clip-rule="evenodd" d="M12 22C17.523 22 22 17.523 22 12C22 6.477 17.523 2 12 2C6.477 2 2 6.477 2 12C2 17.523 6.477 22 12 22ZM15.003 9.003C14.7378 9.003 14.4834 9.10836 14.2959 9.29589C14.1084 9.48343 14.003 9.73778 14.003 10.003V12.589L9.707 8.293C9.5184 8.11084 9.2658 8.01005 9.0036 8.01233C8.7414 8.0146 8.49059 8.11977 8.30518 8.30518C8.11977 8.49059 8.0146 8.7414 8.01233 9.0036C8.01005 9.2658 8.11084 9.5184 8.293 9.707L12.589 14.003H10.003C9.73778 14.003 9.48343 14.1084 9.29589 14.2959C9.10836 14.4834 9.003 14.7378 9.003 15.003C9.003 15.2682 9.10836 15.5226 9.29589 15.7101C9.48343 15.8976 9.73778 16.003 10.003 16.003H15.003C15.2682 16.003 15.5226 15.8976 15.7101 15.7101C15.8976 15.5226 16.003 15.2682 16.003 15.003V10.003C16.003 9.73778 15.8976 9.48343 15.7101 9.29589C15.5226 9.10836 15.2682 9.003 15.003 9.003Z" fill="currentColor"/>
</svg>
