<svg width="24" height="24" viewBox="0 0 24 24" fill="none" xmlns="http://www.w3.org/2000/svg">
<path fill-rule="evenodd" clip-rule="evenodd" d="M12 4.5C12.3977 4.50035 12.779 4.65862 13.06 4.94L18.06 9.94C18.325 10.2243 18.4692 10.6004 18.4623 10.989C18.4555 11.3776 18.2981 11.7484 18.0232 12.0232C17.7484 12.2981 17.3776 12.4555 16.989 12.4623C16.6004 12.4692 16.2243 12.325 15.94 12.06L12 8.122L8.06 12.062C7.77697 12.3351 7.39799 12.4861 7.0047 12.4825C6.6114 12.4789 6.23525 12.321 5.95727 12.0427C5.67929 11.7645 5.52171 11.3882 5.51848 10.9949C5.51525 10.6016 5.66663 10.2228 5.94 9.94L10.94 4.94C11.221 4.65862 11.6023 4.50035 12 4.5ZM12 10.5C12.3977 10.5003 12.779 10.6586 13.06 10.94L18.06 15.94C18.325 16.2243 18.4692 16.6004 18.4623 16.989C18.4555 17.3776 18.2981 17.7484 18.0232 18.0232C17.7484 18.2981 17.3776 18.4555 16.989 18.4624C16.6004 18.4692 16.2243 18.325 15.94 18.06L12 14.122L8.06 18.062C7.77697 18.3351 7.39799 18.4861 7.0047 18.4825C6.6114 18.4789 6.23525 18.321 5.95727 18.0427C5.67929 17.7645 5.52171 17.3882 5.51848 16.9949C5.51525 16.6016 5.66663 16.2228 5.94 15.94L10.94 10.94C11.221 10.6586 11.6023 10.5003 12 10.5Z" fill="currentColor"/>
</svg>
