<svg width="24" height="24" viewBox="0 0 24 24" fill="none" xmlns="http://www.w3.org/2000/svg">
<path d="M4.5 6C4.5 5.60218 4.65804 5.22064 4.93934 4.93934C5.22064 4.65804 5.60218 4.5 6 4.5H14C14.3978 4.5 14.7794 4.65804 15.0607 4.93934C15.342 5.22064 15.5 5.60218 15.5 6C15.5 6.39782 15.342 6.77936 15.0607 7.06066C14.7794 7.34196 14.3978 7.5 14 7.5H9.621L18.718 16.597C18.9911 16.88 19.1421 17.259 19.1385 17.6523C19.1349 18.0456 18.977 18.4217 18.6987 18.6997C18.4205 18.9777 18.0442 19.1353 17.6509 19.1385C17.2576 19.1417 16.8788 18.9904 16.596 18.717L7.5 9.623V14C7.5 14.3978 7.34196 14.7794 7.06066 15.0607C6.77936 15.342 6.39782 15.5 6 15.5C5.60218 15.5 5.22064 15.342 4.93934 15.0607C4.65804 14.7794 4.5 14.3978 4.5 14V6Z" fill="currentColor"/>
</svg>
