<svg width="24" height="24" viewBox="0 0 24 24" fill="none" xmlns="http://www.w3.org/2000/svg">
<path d="M18 4.5C18.3978 4.5 18.7793 4.65804 19.0606 4.93934C19.3419 5.22064 19.5 5.60218 19.5 6V14C19.5 14.3978 19.3419 14.7794 19.0606 15.0607C18.7793 15.342 18.3978 15.5 18 15.5C17.6022 15.5 17.2206 15.342 16.9393 15.0607C16.658 14.7794 16.5 14.3978 16.5 14V9.621L7.40299 18.718C7.11995 18.9911 6.74098 19.1421 6.34768 19.1385C5.95439 19.1349 5.57824 18.977 5.30026 18.6987C5.02228 18.4205 4.8647 18.0442 4.86147 17.6509C4.85824 17.2576 5.00961 16.8788 5.28299 16.596L14.377 7.5H9.99999C9.60216 7.5 9.22063 7.34196 8.93932 7.06066C8.65802 6.77936 8.49999 6.39782 8.49999 6C8.49999 5.60218 8.65802 5.22064 8.93932 4.93934C9.22063 4.65804 9.60216 4.5 9.99999 4.5H18Z" fill="currentColor"/>
</svg>
