<svg width="24" height="24" viewBox="0 0 24 24" fill="none" xmlns="http://www.w3.org/2000/svg">
<path fill-rule="evenodd" clip-rule="evenodd" d="M5.93998 5.93999C6.22124 5.65909 6.60248 5.50131 6.99998 5.50131C7.39749 5.50131 7.77873 5.65909 8.05999 5.93999L12 9.87799L15.94 5.93799C16.223 5.66489 16.602 5.51387 16.9953 5.51747C17.3886 5.52107 17.7647 5.679 18.0427 5.95725C18.3207 6.23549 18.4783 6.61179 18.4815 7.00509C18.4847 7.39839 18.3334 7.77722 18.06 8.05999L13.06 13.06C12.7787 13.3409 12.3975 13.4987 12 13.4987C11.6025 13.4987 11.2212 13.3409 10.94 13.06L5.93998 8.05999C5.8006 7.92069 5.69002 7.75529 5.61458 7.57324C5.53914 7.39119 5.50031 7.19606 5.50031 6.99899C5.50031 6.80193 5.53914 6.6068 5.61458 6.42475C5.69002 6.24269 5.8006 6.07729 5.93998 5.93799V5.93999ZM5.93998 11.94C6.22124 11.6591 6.60248 11.5013 6.99998 11.5013C7.39749 11.5013 7.77873 11.6591 8.05999 11.94L12 15.878L15.94 11.938C16.223 11.6649 16.602 11.5139 16.9953 11.5175C17.3886 11.5211 17.7647 11.679 18.0427 11.9572C18.3207 12.2355 18.4783 12.6118 18.4815 13.0051C18.4847 13.3984 18.3334 13.7772 18.06 14.06L13.06 19.06C12.7787 19.3409 12.3975 19.4987 12 19.4987C11.6025 19.4987 11.2212 19.3409 10.94 19.06L5.93998 14.06C5.8006 13.9207 5.69002 13.7553 5.61458 13.5732C5.53914 13.3912 5.50031 13.1961 5.50031 12.999C5.50031 12.8019 5.53914 12.6068 5.61458 12.4247C5.69002 12.2427 5.8006 12.0773 5.93998 11.938V11.94Z" fill="currentColor"/>
</svg>
