<svg width="24" height="24" viewBox="0 0 24 24" fill="none" xmlns="http://www.w3.org/2000/svg">
<path fill-rule="evenodd" clip-rule="evenodd" d="M12 22C17.523 22 22 17.523 22 12C22 6.477 17.523 2 12 2C6.477 2 2 6.477 2 12C2 17.523 6.477 22 12 22ZM8.997 14.997C9.26222 14.997 9.51657 14.8916 9.70411 14.7041C9.89164 14.5166 9.997 14.2622 9.997 13.997V11.41L14.293 15.706C14.3852 15.8015 14.4956 15.8777 14.6176 15.9301C14.7396 15.9825 14.8708 16.0101 15.0036 16.0112C15.1364 16.0124 15.2681 15.9871 15.391 15.9368C15.5139 15.8865 15.6255 15.8123 15.7194 15.7184C15.8133 15.6245 15.8875 15.5128 15.9378 15.39C15.9881 15.2671 16.0134 15.1354 16.0123 15.0026C16.0111 14.8698 15.9835 14.7386 15.9311 14.6166C15.8787 14.4946 15.8025 14.3842 15.707 14.292L11.411 9.996H13.997C14.2622 9.996 14.5166 9.89064 14.7041 9.70311C14.8916 9.51557 14.997 9.26122 14.997 8.996C14.997 8.73078 14.8916 8.47643 14.7041 8.28889C14.5166 8.10136 14.2622 7.996 13.997 7.996H8.997C8.73178 7.996 8.47743 8.10136 8.28989 8.28889C8.10236 8.47643 7.997 8.73078 7.997 8.996V13.996C7.997 14.2612 8.10236 14.5156 8.28989 14.7031C8.47743 14.8906 8.73178 14.997 8.997 14.997Z" fill="currentColor"/>
</svg>
