<svg width="24" height="24" viewBox="0 0 24 24" fill="none" xmlns="http://www.w3.org/2000/svg">
<path d="M15.06 5.283L20.717 10.94C20.9979 11.2212 21.1557 11.6025 21.1557 12C21.1557 12.3975 20.9979 12.7787 20.717 13.06L15.061 18.718C14.7796 18.9994 14.398 19.1575 14 19.1575C13.602 19.1575 13.2204 18.9994 12.939 18.718C12.6576 18.4366 12.4995 18.0549 12.4995 17.657C12.4995 17.259 12.6576 16.8774 12.939 16.596L16.035 13.5H4.5C4.10218 13.5 3.72064 13.342 3.43934 13.0607C3.15804 12.7794 3 12.3978 3 12C3 11.6022 3.15804 11.2206 3.43934 10.9393C3.72064 10.658 4.10218 10.5 4.5 10.5H16.035L12.94 7.404C12.6587 7.1226 12.5008 6.741 12.5009 6.34314C12.501 5.94528 12.6591 5.56376 12.9405 5.2825C13.2219 5.00123 13.6035 4.84327 14.0014 4.84337C14.3992 4.84346 14.7807 5.0016 15.062 5.283H15.06Z" fill="currentColor"/>
</svg>
