<svg width="24" height="24" viewBox="0 0 24 24" fill="none" xmlns="http://www.w3.org/2000/svg">
<path fill-rule="evenodd" clip-rule="evenodd" d="M12 22C17.523 22 22 17.523 22 12C22 6.477 17.523 2 12 2C6.477 2 2 6.477 2 12C2 17.523 6.477 22 12 22ZM14.997 15.003C14.997 14.7378 14.8916 14.4834 14.7041 14.2959C14.5166 14.1084 14.2622 14.003 13.997 14.003H11.41L15.706 9.707C15.8882 9.5184 15.989 9.2658 15.9867 9.0036C15.9844 8.7414 15.8792 8.49059 15.6938 8.30518C15.5084 8.11977 15.2576 8.0146 14.9954 8.01233C14.7332 8.01005 14.4806 8.11084 14.292 8.293L9.996 12.589V10.003C9.996 9.73778 9.89064 9.48343 9.70311 9.29589C9.51557 9.10836 9.26122 9.003 8.996 9.003C8.73078 9.003 8.47643 9.10836 8.28889 9.29589C8.10136 9.48343 7.996 9.73778 7.996 10.003V15.003C7.996 15.2682 8.10136 15.5226 8.28889 15.7101C8.47643 15.8976 8.73078 16.003 8.996 16.003H13.996C14.2612 16.003 14.5156 15.8976 14.7031 15.7101C14.8906 15.5226 14.997 15.2682 14.997 15.003Z" fill="currentColor"/>
</svg>
