<svg width="24" height="24" viewBox="0 0 24 24" fill="none" xmlns="http://www.w3.org/2000/svg">
<path fill-rule="evenodd" clip-rule="evenodd" d="M12.06 5.93998C12.3409 6.22124 12.4987 6.60248 12.4987 6.99998C12.4987 7.39749 12.3409 7.77873 12.06 8.05999L8.122 12L12.062 15.94C12.3351 16.223 12.4861 16.602 12.4825 16.9953C12.4789 17.3886 12.321 17.7647 12.0427 18.0427C11.7645 18.3207 11.3882 18.4783 10.9949 18.4815C10.6016 18.4847 10.2228 18.3334 9.94 18.06L4.94 13.06C4.6591 12.7787 4.50132 12.3975 4.50132 12C4.50132 11.6025 4.6591 11.2212 4.94 10.94L9.94 5.93998C10.0793 5.8006 10.2447 5.69002 10.4268 5.61458C10.6088 5.53914 10.8039 5.50031 11.001 5.50031C11.1981 5.50031 11.3932 5.53914 11.5752 5.61458C11.7573 5.69002 11.9227 5.8006 12.062 5.93998H12.06ZM18.06 5.93998C18.3409 6.22124 18.4987 6.60248 18.4987 6.99998C18.4987 7.39749 18.3409 7.77873 18.06 8.05999L14.122 12L18.062 15.94C18.3351 16.223 18.4861 16.602 18.4825 16.9953C18.4789 17.3886 18.321 17.7647 18.0427 18.0427C17.7645 18.3207 17.3882 18.4783 16.9949 18.4815C16.6016 18.4847 16.2228 18.3334 15.94 18.06L10.94 13.06C10.6591 12.7787 10.5013 12.3975 10.5013 12C10.5013 11.6025 10.6591 11.2212 10.94 10.94L15.94 5.93998C16.0793 5.8006 16.2447 5.69002 16.4268 5.61458C16.6088 5.53914 16.8039 5.50031 17.001 5.50031C17.1981 5.50031 17.3932 5.53914 17.5752 5.61458C17.7573 5.69002 17.9227 5.8006 18.062 5.93998H18.06Z" fill="currentColor"/>
</svg>
