<svg width="24" height="24" viewBox="0 0 24 24" fill="none" xmlns="http://www.w3.org/2000/svg">
<path fill-rule="evenodd" clip-rule="evenodd" d="M20 4C20.5304 4 21.0391 4.21071 21.4142 4.58579C21.7893 4.96086 22 5.46957 22 6V18C22 18.5304 21.7893 19.0391 21.4142 19.4142C21.0391 19.7893 20.5304 20 20 20H4C3.46957 20 2.96086 19.7893 2.58579 19.4142C2.21071 19.0391 2 18.5304 2 18V6C2 5.46957 2.21071 4.96086 2.58579 4.58579C2.96086 4.21071 3.46957 4 4 4H20ZM18 12C17.7348 12 17.4804 12.1054 17.2929 12.2929C17.1054 12.4804 17 12.7348 17 13V15H15C14.7348 15 14.4804 15.1054 14.2929 15.2929C14.1054 15.4804 14 15.7348 14 16C14 16.2652 14.1054 16.5196 14.2929 16.7071C14.4804 16.8946 14.7348 17 15 17H18C18.2652 17 18.5196 16.8946 18.7071 16.7071C18.8946 16.5196 19 16.2652 19 16V13C19 12.7348 18.8946 12.4804 18.7071 12.2929C18.5196 12.1054 18.2652 12 18 12ZM9 7H6C5.75507 7.00003 5.51866 7.08996 5.33563 7.25272C5.15259 7.41547 5.03566 7.63975 5.007 7.883L5 8V11C5.00028 11.2549 5.09788 11.5 5.27285 11.6854C5.44782 11.8707 5.68695 11.9822 5.94139 11.9972C6.19584 12.0121 6.44638 11.9293 6.64183 11.7657C6.83729 11.6021 6.9629 11.3701 6.993 11.117L7 11V9H9C9.25488 8.99972 9.50003 8.90212 9.68537 8.72715C9.8707 8.55218 9.98224 8.31305 9.99717 8.05861C10.0121 7.80416 9.92933 7.55362 9.76574 7.35817C9.60215 7.16271 9.3701 7.0371 9.117 7.007L9 7Z" fill="currentColor"/>
</svg>
