<svg width="24" height="24" viewBox="0 0 24 24" fill="none" xmlns="http://www.w3.org/2000/svg">
<path d="M12 2.5C12.3978 2.5 12.7793 2.65804 13.0606 2.93934C13.342 3.22064 13.5 3.60218 13.5 4V9.935L19.145 8.101C19.333 8.03766 19.5316 8.01223 19.7295 8.02618C19.9273 8.04013 20.1205 8.09319 20.2977 8.18227C20.4749 8.27136 20.6327 8.39472 20.7619 8.5452C20.8912 8.69568 20.9893 8.87029 21.0506 9.05894C21.1119 9.24758 21.1351 9.44651 21.119 9.64421C21.1029 9.84191 21.0478 10.0345 20.9568 10.2107C20.8658 10.3869 20.7407 10.5434 20.5888 10.671C20.437 10.7986 20.2613 10.8948 20.072 10.954L14.427 12.789L18.503 18.399C18.7369 18.7208 18.8334 19.1224 18.7712 19.5154C18.7091 19.9084 18.4933 20.2606 18.1715 20.4945C18.0121 20.6103 17.8315 20.6936 17.64 20.7397C17.4484 20.7857 17.2497 20.7935 17.0551 20.7627C16.6621 20.7006 16.3099 20.4848 16.076 20.163L12 14.552L7.92299 20.162C7.68545 20.4734 7.33551 20.6796 6.94797 20.7364C6.56043 20.7933 6.16603 20.6963 5.84907 20.4662C5.53211 20.236 5.31773 19.8911 5.25175 19.505C5.18577 19.1189 5.27343 18.7223 5.49599 18.4L9.57299 12.789L3.92799 10.955C3.54939 10.8321 3.23514 10.5638 3.05435 10.2092C2.87357 9.85452 2.84106 9.4426 2.96399 9.064C3.08692 8.6854 3.35521 8.37115 3.70984 8.19036C4.06447 8.00958 4.47639 7.97707 4.85499 8.1L10.5 9.936V4C10.5 3.60218 10.658 3.22064 10.9393 2.93934C11.2206 2.65804 11.6022 2.5 12 2.5Z" fill="currentColor"/>
</svg>
