<svg width="24" height="24" viewBox="0 0 24 24" fill="none" xmlns="http://www.w3.org/2000/svg">
<path fill-rule="evenodd" clip-rule="evenodd" d="M4.5 12C4.5 10.0109 5.29018 8.10322 6.6967 6.6967C8.10322 5.29018 10.0109 4.5 12 4.5C17.05 4.5 19.917 8.667 19.51 12.334C19.397 13.343 19.108 13.892 18.887 14.184C18.627 14.528 18.155 14.854 17.703 14.838C17.373 14.826 17.471 14.363 17.493 14.149L17.993 9.149C18.0221 8.85877 17.9659 8.56636 17.8314 8.30756C17.6969 8.04875 17.4898 7.83478 17.2356 7.69184C16.9813 7.5489 16.6909 7.4832 16.3999 7.50276C16.1088 7.52232 15.8298 7.62631 15.597 7.802C14.5999 6.95967 13.3363 6.49832 12.031 6.5C9.008 6.5 6.5 8.948 6.5 12C6.5 15.056 9.018 17.5 12.038 17.5C13.1411 17.4992 14.2189 17.1699 15.134 16.554C15.297 16.775 15.491 16.979 15.718 17.158C16.826 18.036 18.3 18.027 19.671 17.342C20.3058 17.024 20.8572 16.5616 21.281 15.992C21.866 15.218 22.327 14.142 22.491 12.666C23.083 7.333 18.949 1.5 12 1.5C6.201 1.5 1.5 6.201 1.5 12C1.5 17.799 6.201 22.5 12 22.5C13.674 22.5 15.26 22.107 16.668 21.408C17.0243 21.2308 17.2957 20.9194 17.4223 20.5422C17.549 20.1649 17.5207 19.7528 17.3435 19.3965C17.1663 19.0402 16.8549 18.7688 16.4776 18.6422C16.1004 18.5155 15.6883 18.5438 15.332 18.721C14.1884 19.2881 12.919 19.5539 11.6439 19.4933C10.3689 19.4327 9.13042 19.0477 8.04576 18.3747C6.9611 17.7017 6.06617 16.763 5.44568 15.6475C4.82519 14.5319 4.4997 13.2765 4.5 12ZM9.5 12C9.5 10.634 10.635 9.5 12.03 9.5C13.639 9.5 14.838 10.981 14.514 12.516C14.274 13.659 13.234 14.5 12.038 14.5C10.638 14.5 9.5 13.363 9.5 12Z" fill="currentColor"/>
</svg>
