<svg width="24" height="24" viewBox="0 0 24 24" fill="none" xmlns="http://www.w3.org/2000/svg">
<path d="M5.99033 10.232C5.44385 9.66619 5.14147 8.90839 5.1483 8.1218C5.15514 7.33521 5.47065 6.58277 6.02687 6.02654C6.5831 5.47032 7.33553 5.15481 8.12212 5.14798C8.90871 5.14114 9.66652 5.44353 10.2323 5.99L18.0113 13.768C18.2936 14.0458 18.5181 14.3767 18.6718 14.7416C18.8256 15.1066 18.9055 15.4984 18.9071 15.8944C18.9086 16.2904 18.8318 16.6828 18.6809 17.049C18.5301 17.4152 18.3082 17.7478 18.0282 18.0278C17.7481 18.3078 17.4154 18.5296 17.0492 18.6804C16.683 18.8311 16.2905 18.9079 15.8945 18.9062C15.4985 18.9046 15.1067 18.8245 14.7418 18.6707C14.3769 18.5169 14.046 18.2923 13.7683 18.01L10.4093 14.652C10.2726 14.5106 10.197 14.3212 10.1986 14.1245C10.2002 13.9279 10.279 13.7398 10.418 13.6006C10.557 13.4615 10.745 13.3825 10.9417 13.3807C11.1383 13.3789 11.3278 13.4544 11.4693 13.591L14.4753 16.596C14.6137 16.7393 14.7792 16.8535 14.9622 16.9322C15.1452 17.0108 15.3421 17.0521 15.5412 17.0539C15.7404 17.0556 15.9379 17.0177 16.1223 16.9422C16.3066 16.8668 16.4741 16.7554 16.6149 16.6146C16.7558 16.4738 16.8671 16.3063 16.9426 16.1219C17.018 15.9376 17.0559 15.7401 17.0542 15.5409C17.0525 15.3417 17.0111 15.1449 16.9325 14.9619C16.8539 14.7789 16.7396 14.6134 16.5963 14.475L13.5913 11.47C13.2445 11.1157 12.8308 10.8337 12.3743 10.6403C11.9177 10.4469 11.4274 10.3459 10.9316 10.3433C10.4357 10.3407 9.94433 10.4364 9.48575 10.6249C9.02717 10.8134 8.61053 11.091 8.25993 11.4416C7.90934 11.7922 7.63175 12.2088 7.44322 12.6674C7.2547 13.126 7.15899 13.6174 7.16164 14.1132C7.16428 14.609 7.26521 15.0994 7.45861 15.556C7.652 16.0125 7.93402 16.4262 8.28833 16.773L11.6463 20.132C12.7716 21.2573 14.2979 21.8895 15.8893 21.8895C17.4808 21.8895 19.007 21.2573 20.1323 20.132C21.2576 19.0067 21.8898 17.4804 21.8898 15.889C21.8898 14.2976 21.2576 12.7713 20.1323 11.646L12.3543 3.868C11.261 2.77249 9.78664 2.14184 8.23928 2.10783C6.69191 2.07382 5.19126 2.63908 4.05086 3.68549C2.91047 4.73191 2.21855 6.17854 2.11968 7.72311C2.02082 9.26769 2.52265 10.7907 3.52033 11.974L3.51533 12L3.86833 12.354C4.14972 12.6354 4.53137 12.7935 4.92933 12.7935C5.32728 12.7935 5.70893 12.6354 5.99033 12.354C6.27172 12.0726 6.42981 11.691 6.42981 11.293C6.42981 10.895 6.27172 10.5134 5.99033 10.232Z" fill="currentColor"/>
</svg>
