<svg width="24" height="24" viewBox="0 0 24 24" fill="none" xmlns="http://www.w3.org/2000/svg">
<path fill-rule="evenodd" clip-rule="evenodd" d="M18.7179 18.718C19.1358 18.3001 19.4673 17.8041 19.6934 17.2581C19.9196 16.7121 20.036 16.127 20.036 15.536C20.036 14.945 19.9196 14.3599 19.6934 13.8139C19.4673 13.2679 19.1358 12.7719 18.7179 12.354L11.6459 5.283C11.5066 5.14367 11.3961 4.97826 11.3207 4.79621C11.2453 4.61416 11.2065 4.41905 11.2065 4.222C11.2065 3.82405 11.3646 3.44239 11.6459 3.161C11.9273 2.87961 12.309 2.72152 12.7069 2.72152C12.904 2.72152 13.0991 2.76033 13.2812 2.83574C13.4632 2.91114 13.6286 3.02167 13.7679 3.161L20.8379 10.232C22.2345 11.6404 23.0163 13.5447 23.0122 15.5281C23.0082 17.5116 22.2186 19.4126 20.8163 20.8153C19.414 22.218 17.5131 23.0081 15.5297 23.0128C13.5463 23.0174 11.6418 22.2361 10.2329 20.84L1.74795 12.355C0.716389 11.3236 0.136813 9.92461 0.136719 8.46585C0.136625 7.0071 0.716022 5.60806 1.74745 4.5765C2.77888 3.54494 4.17784 2.96536 5.6366 2.96527C7.09535 2.96518 8.49439 3.54457 9.52595 4.576L17.6579 12.708C18.3144 13.3644 18.6831 14.2547 18.6831 15.183C18.6831 16.1113 18.3144 17.0016 17.6579 17.658C17.0015 18.3144 16.1113 18.6832 15.1829 18.6832C14.2546 18.6832 13.3644 18.3144 12.7079 17.658L5.28295 10.233C5.14368 10.0937 5.03322 9.92827 4.95788 9.74625C4.88253 9.56423 4.84378 9.36915 4.84382 9.17215C4.84387 8.97515 4.88272 8.78009 4.95815 8.5981C5.03358 8.41611 5.14412 8.25077 5.28345 8.1115C5.42278 7.97223 5.58818 7.86177 5.7702 7.78643C5.95222 7.71108 6.1473 7.67233 6.3443 7.67237C6.5413 7.67242 6.73636 7.71127 6.91835 7.7867C7.10034 7.86213 7.26568 7.97267 7.40495 8.112L14.8289 15.537C14.9227 15.6309 15.0499 15.6837 15.1826 15.6838C15.2483 15.6838 15.3134 15.6709 15.3741 15.6458C15.4348 15.6207 15.49 15.5839 15.5364 15.5375C15.5829 15.4911 15.6198 15.436 15.645 15.3753C15.6702 15.3146 15.6832 15.2496 15.6832 15.1839C15.6833 15.1182 15.6704 15.0531 15.6453 14.9924C15.6202 14.9317 15.5834 14.8765 15.5369 14.83L7.40395 6.697C6.93447 6.23148 6.29971 5.97089 5.63857 5.97224C4.97742 5.9736 4.34374 6.23679 3.87617 6.70422C3.4086 7.17166 3.14523 7.80527 3.14369 8.46641C3.14215 9.12756 3.40257 9.76239 3.86795 10.232L12.3539 18.718C12.7718 19.1359 13.2679 19.4673 13.8139 19.6935C14.3598 19.9196 14.945 20.036 15.5359 20.036C16.1269 20.036 16.7121 19.9196 17.258 19.6935C17.804 19.4673 18.3001 19.1359 18.7179 18.718Z" fill="currentColor"/>
</svg>
