<svg width="24" height="24" viewBox="0 0 24 24" fill="none" xmlns="http://www.w3.org/2000/svg">
<path d="M2.68596 10.462C2.45374 10.6942 2.26953 10.9698 2.14386 11.2731C2.01818 11.5765 1.95349 11.9016 1.95349 12.23C1.95349 12.5584 2.01818 12.8835 2.14386 13.1869C2.26953 13.4902 2.45374 13.7658 2.68596 13.998L5.51496 16.826C5.92109 17.2321 6.45469 17.486 7.02602 17.545C7.59735 17.604 8.17156 17.4644 8.6521 17.1498C9.13264 16.8352 9.49019 16.3648 9.66464 15.8175C9.83908 15.2703 9.81977 14.6797 9.60996 14.145L10.401 13.354L16.808 20.746C17.0592 21.0356 17.3674 21.2704 17.7134 21.4358C18.0593 21.6011 18.4356 21.6934 18.8188 21.707C19.202 21.7206 19.5839 21.6551 19.9407 21.5146C20.2975 21.3742 20.6215 21.1618 20.8926 20.8907C21.1638 20.6196 21.3762 20.2955 21.5166 19.9387C21.657 19.5819 21.7225 19.2001 21.7089 18.8169C21.6954 18.4337 21.603 18.0574 21.4377 17.7114C21.2724 17.3655 21.0376 17.0573 20.748 16.806L13.356 10.399L14.147 9.609C14.6818 9.81932 15.2728 9.83894 15.8204 9.66455C16.368 9.49017 16.8389 9.13243 17.1536 8.65156C17.4683 8.17069 17.6078 7.59606 17.5485 7.02441C17.4892 6.45276 17.2347 5.91901 16.828 5.513L14 2.684C13.5938 2.27786 13.0602 2.02395 12.4889 1.96498C11.9176 1.906 11.3434 2.04555 10.8628 2.36016C10.3823 2.67477 10.0247 3.14525 9.85028 3.69248C9.67584 4.23972 9.69514 4.83033 9.90496 5.365L5.36796 9.902C4.91492 9.72415 4.41983 9.6824 3.94341 9.78188C3.46699 9.88135 3.02997 10.1177 2.68596 10.462Z" fill="currentColor"/>
</svg>
