<svg width="24" height="24" viewBox="0 0 24 24" fill="none" xmlns="http://www.w3.org/2000/svg">
<path fill-rule="evenodd" clip-rule="evenodd" d="M15.6379 8.699C15.7696 8.47097 15.8389 8.2123 15.8389 7.949C15.8389 7.68569 15.7696 7.42703 15.6379 7.199L13.4139 3.347C13.2823 3.11899 13.0929 2.92965 12.8649 2.79801C12.6369 2.66637 12.3782 2.59706 12.1149 2.59706C11.8516 2.59706 11.593 2.66637 11.365 2.79801C11.1369 2.92965 10.9476 3.11899 10.8159 3.347L2.18192 18.3C2.05027 18.528 1.98096 18.7867 1.98096 19.05C1.98096 19.3133 2.05026 19.572 2.18191 19.8C2.31356 20.028 2.50291 20.2174 2.73093 20.349C2.95896 20.4807 3.21762 20.55 3.48092 20.55H7.92892C8.19239 20.5502 8.45125 20.4809 8.67946 20.3493C8.90768 20.2176 9.09719 20.0282 9.22892 19.8L15.6379 8.699ZM20.7479 20.551C21.0113 20.5512 21.2701 20.482 21.4983 20.3504C21.7264 20.2188 21.9159 20.0295 22.0477 19.8014C22.1794 19.5734 22.2488 19.3146 22.2489 19.0512C22.2489 18.7879 22.1796 18.5291 22.0479 18.301L18.9139 12.873C18.7823 12.645 18.5929 12.4556 18.3649 12.324C18.1369 12.1924 17.8782 12.1231 17.6149 12.1231C17.3516 12.1231 17.093 12.1924 16.865 12.324C16.6369 12.4556 16.4476 12.645 16.3159 12.873L13.1819 18.301C13.0503 18.529 12.981 18.7877 12.981 19.051C12.981 19.3143 13.0503 19.573 13.1819 19.801C13.3136 20.029 13.5029 20.2184 13.7309 20.35C13.959 20.4817 14.2176 20.551 14.4809 20.551H20.7489H20.7479Z" fill="currentColor"/>
</svg>
