<svg width="24" height="24" viewBox="0 0 24 24" fill="none" xmlns="http://www.w3.org/2000/svg">
<path d="M7.55517 2.168C7.44216 2.09264 7.31498 2.0411 7.18139 2.01651C7.0478 1.99193 6.91061 1.99482 6.77817 2.025C6.32617 2.128 6.11617 2.5 5.93717 2.887C5.78749 3.2122 5.65758 3.54614 5.54817 3.887C5.17849 5.05545 4.99359 6.27448 5.00017 7.5C5.00017 9.026 5.27117 10.255 5.54817 11.112C5.68817 11.541 5.82817 11.878 5.93717 12.113C6.12517 12.52 6.24017 12.853 6.77717 12.975C6.90976 13.0053 7.04714 13.0083 7.18091 12.9837C7.31468 12.9591 7.44203 12.9075 7.55517 12.832C8.46817 12.223 9.65217 11.793 11.0002 11.502V21C11.0002 21.2652 11.1055 21.5196 11.2931 21.7071C11.4806 21.8946 11.735 22 12.0002 22H15.0002C15.2654 22 15.5197 21.8946 15.7073 21.7071C15.8948 21.5196 16.0002 21.2652 16.0002 21V10.984C16.6527 10.9698 17.3055 10.9678 17.9582 10.978C18.2246 10.9822 18.4893 10.9335 18.7367 10.8345C18.9842 10.7355 19.2095 10.5883 19.3995 10.4014C19.5895 10.2146 19.7405 9.99178 19.8436 9.74604C19.9467 9.5003 19.9999 9.2365 20.0002 8.97V6.03C19.9998 5.76358 19.9465 5.49989 19.8433 5.25427C19.7401 5.00864 19.5891 4.78598 19.3991 4.59923C19.2091 4.41248 18.9839 4.26536 18.7365 4.16644C18.4891 4.06752 18.2246 4.01876 17.9582 4.023C16.1332 4.049 14.1352 4 12.2732 3.727C10.3972 3.453 8.74617 2.962 7.55517 2.168Z" fill="currentColor"/>
</svg>
