<svg width="24" height="24" viewBox="0 0 24 24" fill="none" xmlns="http://www.w3.org/2000/svg">
<path fill-rule="evenodd" clip-rule="evenodd" d="M4.4949 11.913C4.68051 11.9794 4.87739 12.0085 5.07427 11.9987C5.27115 11.9889 5.46418 11.9405 5.64231 11.856C5.82044 11.7716 5.98018 11.6529 6.1124 11.5067C6.24463 11.3605 6.34674 11.1897 6.4129 11.004L6.5929 10.5H9.4069L9.5869 11.005C9.72083 11.3798 9.99815 11.6859 10.3578 11.8562C10.7175 12.0265 11.1301 12.0469 11.5049 11.913C11.8796 11.7791 12.1858 11.5017 12.3561 11.1421C12.5264 10.7824 12.5468 10.3698 12.4129 9.995L10.0799 3.467C9.92649 3.03791 9.64419 2.66674 9.27166 2.4043C8.89913 2.14187 8.45459 2.001 7.9989 2.001C7.54321 2.001 7.09866 2.14187 6.72613 2.4043C6.3536 2.66674 6.07131 3.03791 5.9179 3.467L3.5859 9.997C3.45213 10.3716 3.47264 10.784 3.64291 11.1435C3.81319 11.503 4.1193 11.7802 4.4939 11.914L4.4949 11.913ZM7.9999 6.56L8.3359 7.5H7.6639L7.9999 6.56ZM15.9399 3.94C16.2211 3.6591 16.6024 3.50132 16.9999 3.50132C17.3974 3.50132 17.7786 3.6591 18.0599 3.94L20.8899 6.768C21.0292 6.90733 21.1396 7.07273 21.215 7.25475C21.2903 7.43678 21.3291 7.63186 21.329 7.82885C21.329 8.02585 21.2901 8.22092 21.2147 8.4029C21.1393 8.58489 21.0287 8.75023 20.8894 8.8895C20.7501 9.02877 20.5847 9.13923 20.4026 9.21457C20.2206 9.28992 20.0255 9.32867 19.8285 9.32863C19.6315 9.32858 19.4365 9.28973 19.2545 9.2143C19.0725 9.13887 18.9072 9.02833 18.7679 8.889L18.4999 8.621V20C18.4999 20.3978 18.3419 20.7794 18.0606 21.0607C17.7793 21.342 17.3977 21.5 16.9999 21.5C16.6021 21.5 16.2205 21.342 15.9392 21.0607C15.6579 20.7794 15.4999 20.3978 15.4999 20V8.621L15.2319 8.889C15.0935 9.03227 14.928 9.14654 14.745 9.22515C14.562 9.30377 14.3652 9.34515 14.166 9.34688C13.9668 9.34861 13.7693 9.31065 13.585 9.23523C13.4006 9.15981 13.2331 9.04843 13.0923 8.90759C12.9515 8.76675 12.8401 8.59928 12.7647 8.41493C12.6892 8.23059 12.6513 8.03307 12.653 7.8339C12.6548 7.63473 12.6961 7.4379 12.7747 7.25489C12.8534 7.07189 12.9676 6.90637 13.1109 6.768L15.9389 3.939L15.9399 3.94ZM4.9999 13C4.60207 13 4.22054 13.158 3.93924 13.4393C3.65793 13.7206 3.4999 14.1022 3.4999 14.5C3.4999 14.8978 3.65793 15.2794 3.93924 15.5607C4.22054 15.842 4.60207 16 4.9999 16H7.3789L4.1099 19.269C3.1019 20.277 3.8159 22 5.2409 22H10.9999C11.3977 22 11.7793 21.842 12.0606 21.5607C12.3419 21.2794 12.4999 20.8978 12.4999 20.5C12.4999 20.1022 12.3419 19.7206 12.0606 19.4393C11.7793 19.158 11.3977 19 10.9999 19H8.6199L11.8889 15.731C12.8969 14.723 12.1829 13 10.7569 13H4.9999Z" fill="currentColor"/>
</svg>
