<svg width="24" height="24" viewBox="0 0 24 24" fill="none" xmlns="http://www.w3.org/2000/svg">
<path fill-rule="evenodd" clip-rule="evenodd" d="M10.7588 13C12.1358 13 12.8488 14.61 11.9848 15.628L11.8898 15.731L8.61977 19H10.9998C11.385 19.0002 11.7554 19.1486 12.0342 19.4144C12.3129 19.6802 12.4788 20.0431 12.4973 20.4279C12.5158 20.8127 12.3856 21.1898 12.1336 21.4812C11.8816 21.7726 11.5272 21.9558 11.1438 21.993L10.9998 22H5.23977C3.86177 22 3.14977 20.39 4.01377 19.372L4.10877 19.269L7.37877 16H4.99877C4.61355 15.9998 4.24318 15.8514 3.96438 15.5856C3.68559 15.3198 3.51976 14.9569 3.50125 14.5721C3.48273 14.1873 3.61296 13.8102 3.86495 13.5188C4.11693 13.2274 4.47135 13.0442 4.85477 13.007L4.99977 13H10.7588ZM16.9988 3C17.3966 3 17.7781 3.15804 18.0594 3.43934C18.3407 3.72064 18.4988 4.10218 18.4988 4.5V16.207L18.7678 15.939C18.9071 15.7997 19.0725 15.6893 19.2545 15.6139C19.4365 15.5386 19.6316 15.4998 19.8286 15.4999C20.0256 15.4999 20.2207 15.5388 20.4027 15.6142C20.5847 15.6896 20.75 15.8002 20.8893 15.9395C21.0285 16.0788 21.139 16.2442 21.2143 16.4263C21.2897 16.6083 21.3284 16.8034 21.3284 17.0004C21.3284 17.1974 21.2895 17.3924 21.2141 17.5744C21.1386 17.7564 21.0281 17.9217 20.8888 18.061L18.0608 20.889C17.9215 21.0284 17.7561 21.139 17.574 21.2144C17.392 21.2898 17.1968 21.3287 16.9998 21.3287C16.8027 21.3287 16.6076 21.2898 16.4255 21.2144C16.2435 21.139 16.0781 21.0284 15.9388 20.889L13.1108 18.061C12.8294 17.7797 12.6712 17.3982 12.6711 17.0004C12.6711 16.6025 12.829 16.2209 13.1103 15.9395C13.3915 15.6581 13.7731 15.5 14.1709 15.4999C14.5688 15.4998 14.9504 15.6577 15.2318 15.939L15.4998 16.207V4.5C15.4998 4.10218 15.6578 3.72064 15.9391 3.43934C16.2204 3.15804 16.6009 3 16.9988 3ZM7.99977 2C8.42601 1.99985 8.84321 2.12296 9.20108 2.3545C9.55895 2.58604 9.84222 2.91614 10.0168 3.305L10.0818 3.466L12.4138 9.996C12.5423 10.3586 12.5265 10.7568 12.3698 11.1081C12.213 11.4594 11.9273 11.7371 11.5716 11.8838C11.216 12.0304 10.8175 12.0348 10.4587 11.896C10.0999 11.7572 9.80817 11.4858 9.64377 11.138L9.58477 11H6.41377C6.28186 11.3594 6.01758 11.6549 5.67501 11.8259C5.33243 11.9969 4.93746 12.0305 4.57092 11.9198C4.20438 11.8092 3.89397 11.5627 3.70321 11.2307C3.51246 10.8987 3.45578 10.5064 3.54477 10.134L3.58677 9.995L5.91977 3.467C6.07296 3.03789 6.35503 2.66661 6.72737 2.404C7.09972 2.14139 7.54413 2.00028 7.99977 2ZM7.99977 6.56L7.48677 8H8.51477L7.99977 6.56Z" fill="currentColor"/>
</svg>
