<svg width="24" height="24" viewBox="0 0 24 24" fill="none" xmlns="http://www.w3.org/2000/svg">
<path fill-rule="evenodd" clip-rule="evenodd" d="M11.41 2.017C12.2 2.087 12.663 2.357 12.944 2.669C13.287 3.05 13.5 3.652 13.5 4.5C13.5001 4.76533 13.4299 5.02595 13.2964 5.25527C13.1629 5.48459 12.971 5.6744 12.7402 5.80534C12.5095 5.93628 12.2481 6.00366 11.9828 6.00062C11.7175 5.99757 11.4577 5.9242 11.23 5.788L11.1 5.7C10.9949 5.62121 10.8754 5.56388 10.7482 5.53128C10.621 5.49869 10.4886 5.49148 10.3586 5.51005C10.2286 5.52862 10.1035 5.57262 9.99051 5.63952C9.87751 5.70643 9.77879 5.79494 9.7 5.9C9.62121 6.00506 9.56388 6.1246 9.53129 6.25182C9.49869 6.37903 9.49148 6.51142 9.51005 6.64142C9.54756 6.90397 9.68783 7.14087 9.9 7.3C10.42 7.68999 11.0383 7.92748 11.6857 7.98586C12.333 8.04423 12.9839 7.92118 13.5652 7.63049C14.1466 7.33981 14.6356 6.89297 14.9773 6.34006C15.319 5.78714 15.5 5.14999 15.5 4.5C15.5 3.815 15.398 3.131 15.152 2.507C19.13 3.827 22 7.578 22 12C22 17.523 17.523 22 12 22C6.477 22 2 17.523 2 12C2 6.675 6.162 2.323 11.41 2.017ZM14.64 15.232C14.4363 15.0623 14.1735 14.9805 13.9095 15.0045C13.6455 15.0285 13.4018 15.1564 13.232 15.36C12.873 15.79 12.434 16 12 16C11.566 16 11.127 15.79 10.768 15.36C10.5961 15.1635 10.3542 15.042 10.0939 15.0215C9.83369 15.001 9.57573 15.0831 9.37518 15.2502C9.17463 15.4173 9.04738 15.6563 9.02063 15.916C8.99388 16.1756 9.06974 16.4355 9.232 16.64C9.904 17.447 10.876 18 12 18C13.124 18 14.096 17.447 14.768 16.64C14.9377 16.4363 15.0195 16.1735 14.9955 15.9095C14.9715 15.6455 14.8436 15.4018 14.64 15.232ZM8.5 10C8.10218 10 7.72064 10.158 7.43934 10.4393C7.15804 10.7206 7 11.1022 7 11.5C7 11.8978 7.15804 12.2794 7.43934 12.5607C7.72064 12.842 8.10218 13 8.5 13C8.89782 13 9.27936 12.842 9.56066 12.5607C9.84196 12.2794 10 11.8978 10 11.5C10 11.1022 9.84196 10.7206 9.56066 10.4393C9.27936 10.158 8.89782 10 8.5 10ZM15.5 10C15.1022 10 14.7206 10.158 14.4393 10.4393C14.158 10.7206 14 11.1022 14 11.5C14 11.8978 14.158 12.2794 14.4393 12.5607C14.7206 12.842 15.1022 13 15.5 13C15.8978 13 16.2794 12.842 16.5607 12.5607C16.842 12.2794 17 11.8978 17 11.5C17 11.1022 16.842 10.7206 16.5607 10.4393C16.2794 10.158 15.8978 10 15.5 10Z" fill="currentColor"/>
</svg>
