<svg width="24" height="24" viewBox="0 0 24 24" fill="none" xmlns="http://www.w3.org/2000/svg">
<path d="M7.15999 10.972C8.08701 9.87825 9.32753 9.09554 10.7138 8.72969C12.1001 8.36385 13.5653 8.43252 14.9113 8.92641C16.2573 9.42031 17.4192 10.3156 18.2399 11.4913C19.0605 12.6669 19.5004 14.0662 19.5 15.5C19.5 15.8978 19.658 16.2794 19.9393 16.5607C20.2206 16.842 20.6022 17 21 17C21.3978 17 21.7793 16.842 22.0606 16.5607C22.3419 16.2794 22.5 15.8978 22.5 15.5C22.5 9.97701 18.023 5.50001 12.5 5.50001C11.1016 5.49848 9.71857 5.79104 8.4406 6.3587C7.16264 6.92635 6.01834 7.75642 5.08198 8.79501L4.73499 6.83001C4.70428 6.63292 4.63457 6.44393 4.52994 6.27411C4.42531 6.10429 4.28786 5.95704 4.12563 5.84099C3.9634 5.72493 3.77966 5.64239 3.58515 5.59821C3.39063 5.55402 3.18926 5.54907 2.99282 5.58365C2.79637 5.61824 2.6088 5.69165 2.44107 5.7996C2.27334 5.90755 2.12882 6.04787 2.01598 6.21235C1.90313 6.37683 1.82423 6.56216 1.78388 6.75751C1.74353 6.95285 1.74255 7.15428 1.78099 7.35001L2.82299 13.26C2.89199 13.651 3.11299 14 3.43999 14.228C3.84299 14.51 4.37399 14.573 4.82499 14.43L10.469 13.434C10.6661 13.4033 10.8551 13.3336 11.0249 13.229C11.1947 13.1243 11.3419 12.9869 11.458 12.8246C11.5741 12.6624 11.6566 12.4787 11.7008 12.2842C11.745 12.0897 11.7499 11.8883 11.7153 11.6918C11.6808 11.4954 11.6073 11.3078 11.4994 11.1401C11.3914 10.9724 11.2511 10.8278 11.0866 10.715C10.9222 10.6022 10.7368 10.5233 10.5415 10.4829C10.3461 10.4426 10.1447 10.4416 9.94899 10.48L7.16098 10.971L7.15999 10.972Z" fill="currentColor"/>
</svg>
