<svg width="24" height="24" viewBox="0 0 24 24" fill="none" xmlns="http://www.w3.org/2000/svg">
<path fill-rule="evenodd" clip-rule="evenodd" d="M4 4C3.46957 4 2.96086 4.21071 2.58579 4.58579C2.21071 4.96086 2 5.46957 2 6V16C2 16.5304 2.21071 17.0391 2.58579 17.4142C2.96086 17.7893 3.46957 18 4 18H8.653L9.013 20.164C9.0431 20.3454 9.12261 20.5149 9.2428 20.654C9.36298 20.7931 9.51919 20.8964 9.69426 20.9526C9.86933 21.0087 10.0565 21.0154 10.2351 20.9721C10.4138 20.9288 10.5771 20.8371 10.707 20.707L11 20.414L11.293 20.707C11.4805 20.8945 11.7348 20.9998 12 20.9998C12.2652 20.9998 12.5195 20.8945 12.707 20.707L13 20.414L13.293 20.707C13.423 20.8368 13.5861 20.9283 13.7647 20.9714C13.9432 21.0146 14.1302 21.0077 14.305 20.9516C14.4799 20.8956 14.636 20.7924 14.7561 20.6534C14.8762 20.5145 14.9558 20.3452 14.986 20.164L15.347 18H20C20.5304 18 21.0391 17.7893 21.4142 17.4142C21.7893 17.0391 22 16.5304 22 16V6C22 5.46957 21.7893 4.96086 21.4142 4.58579C21.0391 4.21071 20.5304 4 20 4H4ZM15.514 17L15.847 15H16C16.2652 15 16.5196 14.8946 16.7071 14.7071C16.8946 14.5196 17 14.2652 17 14C17 13.7348 16.8946 13.4804 16.7071 13.2929C16.5196 13.1054 16.2652 13 16 13H8C7.73478 13 7.48043 13.1054 7.29289 13.2929C7.10536 13.4804 7 13.7348 7 14C7 14.2652 7.10536 14.5196 7.29289 14.7071C7.48043 14.8946 7.73478 15 8 15H8.153L8.486 17H15.514ZM9 8C8.73478 8 8.48043 8.10536 8.29289 8.29289C8.10536 8.48043 8 8.73478 8 9V11C8 11.2652 8.10536 11.5196 8.29289 11.7071C8.48043 11.8946 8.73478 12 9 12C9.26522 12 9.51957 11.8946 9.70711 11.7071C9.89464 11.5196 10 11.2652 10 11V10H14V11C14 11.2652 14.1054 11.5196 14.2929 11.7071C14.4804 11.8946 14.7348 12 15 12C15.2652 12 15.5196 11.8946 15.7071 11.7071C15.8946 11.5196 16 11.2652 16 11V9C16 8.73478 15.8946 8.48043 15.7071 8.29289C15.5196 8.10536 15.2652 8 15 8H9Z" fill="currentColor"/>
</svg>
