<svg width="24" height="24" viewBox="0 0 24 24" fill="none" xmlns="http://www.w3.org/2000/svg">
<path fill-rule="evenodd" clip-rule="evenodd" d="M2.61403 5.426C2.72757 5.15188 2.91985 4.91758 3.16656 4.75276C3.41327 4.58793 3.70332 4.49997 4.00003 4.5H14C15.9892 4.5 17.8968 5.29018 19.3033 6.6967C20.7099 8.10322 21.5 10.0109 21.5 12C21.5 13.9891 20.7099 15.8968 19.3033 17.3033C17.8968 18.7098 15.9892 19.5 14 19.5H5.00003C4.6022 19.5 4.22067 19.342 3.93937 19.0607C3.65806 18.7794 3.50003 18.3978 3.50003 18C3.50003 17.6022 3.65806 17.2206 3.93937 16.9393C4.22067 16.658 4.6022 16.5 5.00003 16.5H14C15.1935 16.5 16.3381 16.0259 17.182 15.182C18.0259 14.3381 18.5 13.1935 18.5 12C18.5 10.8065 18.0259 9.66193 17.182 8.81802C16.3381 7.97411 15.1935 7.5 14 7.5H7.62103L8.56103 8.44C8.83413 8.72303 8.98515 9.10201 8.98155 9.4953C8.97795 9.8886 8.82001 10.2647 8.54177 10.5427C8.26353 10.8207 7.88723 10.9783 7.49393 10.9815C7.10063 10.9847 6.7218 10.8334 6.43903 10.56L2.93903 7.06C2.72941 6.85026 2.58666 6.5831 2.52882 6.29227C2.47097 6.00144 2.50062 5.69999 2.61403 5.426Z" fill="currentColor"/>
</svg>
