<svg width="24" height="24" viewBox="0 0 24 24" fill="none" xmlns="http://www.w3.org/2000/svg">
<path fill-rule="evenodd" clip-rule="evenodd" d="M12 2C12.901 2.00008 13.7757 2.30421 14.4823 2.86317C15.189 3.42213 15.6864 4.20321 15.894 5.08C17.0461 5.28976 18.088 5.89708 18.8383 6.79613C19.5886 7.69519 19.9997 8.82899 20 10V19C20 19.7956 19.6839 20.5587 19.1213 21.1213C18.5587 21.6839 17.7956 22 17 22H7C6.20435 22 5.44129 21.6839 4.87868 21.1213C4.31607 20.5587 4 19.7956 4 19V10C3.99987 8.82889 4.41082 7.69488 5.1612 6.79574C5.91157 5.89661 6.95376 5.2894 8.106 5.08C8.31358 4.20321 8.81097 3.42213 9.51765 2.86317C10.2243 2.30421 11.099 2.00008 12 2ZM15 18H9V20H15V18ZM14 14H10C9.75507 14 9.51866 14.09 9.33563 14.2527C9.15259 14.4155 9.03566 14.6397 9.007 14.883L9 15V16H15V15C15 14.7551 14.91 14.5187 14.7473 14.3356C14.5845 14.1526 14.3603 14.0357 14.117 14.007L14 14ZM13 9H11C10.7348 9 10.4804 9.10536 10.2929 9.29289C10.1054 9.48043 10 9.73478 10 10C10 10.2652 10.1054 10.5196 10.2929 10.7071C10.4804 10.8946 10.7348 11 11 11H13C13.2652 11 13.5196 10.8946 13.7071 10.7071C13.8946 10.5196 14 10.2652 14 10C14 9.73478 13.8946 9.48043 13.7071 9.29289C13.5196 9.10536 13.2652 9 13 9ZM12 4C11.6489 4.00001 11.3041 4.09243 11 4.26796C10.696 4.4435 10.4435 4.69597 10.268 5H13.732C13.5565 4.69597 13.304 4.4435 13 4.26796C12.6959 4.09243 12.3511 4.00001 12 4Z" fill="currentColor"/>
</svg>
