<svg width="24" height="24" viewBox="0 0 24 24" fill="none" xmlns="http://www.w3.org/2000/svg">
<path d="M6.51677 2C6.07227 2.00006 5.6343 2.10694 5.23973 2.31163C4.84517 2.51633 4.50557 2.81284 4.24954 3.1762C3.99351 3.53956 3.82855 3.95913 3.76855 4.39956C3.70855 4.83999 3.75527 5.28839 3.90477 5.707L7.22377 15H16.7758L20.0958 5.707C20.3021 5.12919 20.3111 4.49929 20.1212 3.91585C19.9314 3.33242 19.5535 2.82838 19.0467 2.4826C18.5399 2.13683 17.9327 1.96884 17.3202 2.00492C16.7077 2.041 16.1245 2.27911 15.6618 2.682C15.1507 2.24039 14.4972 1.9982 13.8218 2C13.1268 2 12.4918 2.25 11.9998 2.667C11.4914 2.23584 10.8463 1.99943 10.1798 2C9.46977 2 8.82977 2.26 8.33977 2.682C7.83466 2.24155 7.18695 1.99923 6.51677 2ZM16.0618 17H7.93777L7.99977 17.173V18C7.99977 19.0609 8.4212 20.0783 9.17135 20.8284C9.92149 21.5786 10.9389 22 11.9998 22C13.0606 22 14.0781 21.5786 14.8282 20.8284C15.5783 20.0783 15.9998 19.0609 15.9998 18V17.173L16.0618 17Z" fill="currentColor"/>
</svg>
