<svg width="24" height="24" viewBox="0 0 24 24" fill="none" xmlns="http://www.w3.org/2000/svg">
<path fill-rule="evenodd" clip-rule="evenodd" d="M12 3C12.2652 3 12.5196 3.10536 12.7071 3.29289C12.8946 3.48043 13 3.73478 13 4V5H13.764C14.0743 5.00002 14.3804 5.07226 14.658 5.211L16.236 6H20C20.2652 6 20.5196 6.10536 20.7071 6.29289C20.8946 6.48043 21 6.73478 21 7C21 7.26522 20.8946 7.51957 20.7071 7.70711C20.5196 7.89464 20.2652 8 20 8H19.618L21.894 12.553C21.964 12.692 22 12.845 22 13C22 14.0609 21.5786 15.0783 20.8284 15.8284C20.0783 16.5786 19.0609 17 18 17C16.9391 17 15.9217 16.5786 15.1716 15.8284C14.4214 15.0783 14 14.0609 14 13C14 12.845 14.036 12.692 14.106 12.553L16.382 8H16.236C15.9257 7.99998 15.6196 7.92774 15.342 7.789L13.764 7H13V19H16C16.2652 19 16.5196 19.1054 16.7071 19.2929C16.8946 19.4804 17 19.7348 17 20C17 20.2652 16.8946 20.5196 16.7071 20.7071C16.5196 20.8946 16.2652 21 16 21H8C7.73478 21 7.48043 20.8946 7.29289 20.7071C7.10536 20.5196 7 20.2652 7 20C7 19.7348 7.10536 19.4804 7.29289 19.2929C7.48043 19.1054 7.73478 19 8 19H11V7H10.236L8.658 7.789C8.38041 7.92774 8.07433 7.99998 7.764 8H7.618L9.894 12.553C9.96354 12.6918 9.99983 12.8448 10 13C10 14.0609 9.57857 15.0783 8.82843 15.8284C8.07828 16.5786 7.06087 17 6 17C4.93913 17 3.92172 16.5786 3.17157 15.8284C2.42143 15.0783 2 14.0609 2 13C2.00017 12.8448 2.03646 12.6918 2.106 12.553L4.382 8H4C3.73478 8 3.48043 7.89464 3.29289 7.70711C3.10536 7.51957 3 7.26522 3 7C3 6.73478 3.10536 6.48043 3.29289 6.29289C3.48043 6.10536 3.73478 6 4 6H7.764L9.342 5.211C9.61959 5.07226 9.92567 5.00002 10.236 5H11V4C11 3.73478 11.1054 3.48043 11.2929 3.29289C11.4804 3.10536 11.7348 3 12 3Z" fill="currentColor"/>
</svg>
