<svg width="24" height="24" viewBox="0 0 24 24" fill="none" xmlns="http://www.w3.org/2000/svg">
<path fill-rule="evenodd" clip-rule="evenodd" d="M4 10.059C4 5.659 7.57 2 12 2C16.43 2 20 5.66 20 10.059C20 12.564 18.882 15.016 17.399 16.829C16.319 18.149 14.931 19.261 13.489 19.744L13.894 20.553C13.9702 20.7054 14.0061 20.8748 13.9985 21.045C13.9908 21.2152 13.9398 21.3806 13.8502 21.5256C13.7606 21.6706 13.6355 21.7902 13.4867 21.8733C13.3379 21.9563 13.1704 21.9999 13 22H11C10.8296 21.9999 10.6621 21.9563 10.5133 21.8733C10.3645 21.7902 10.2394 21.6706 10.1498 21.5256C10.0602 21.3806 10.0092 21.2152 10.0015 21.045C9.99388 20.8748 10.0298 20.7054 10.106 20.553L10.51 19.743C9.07 19.261 7.681 18.148 6.601 16.828C5.118 15.016 4 12.564 4 10.058V10.059ZM12.04 5.864C12.1136 5.60929 12.2854 5.39426 12.5176 5.26618C12.7497 5.1381 13.0233 5.10746 13.278 5.181C14.932 5.66 16.198 7.021 16.726 8.701C16.7674 8.82683 16.7834 8.95963 16.773 9.09169C16.7626 9.22374 16.7261 9.35242 16.6656 9.47026C16.6051 9.58809 16.5218 9.69273 16.4205 9.77809C16.3192 9.86346 16.202 9.92784 16.0756 9.96752C15.9492 10.0072 15.8162 10.0214 15.6843 10.0092C15.5524 9.99706 15.4242 9.95882 15.3072 9.89672C15.1902 9.83461 15.0867 9.74988 15.0027 9.64744C14.9188 9.54501 14.856 9.42691 14.818 9.3C14.466 8.177 13.653 7.372 12.722 7.102C12.4675 7.02814 12.2527 6.85627 12.1248 6.62414C11.9969 6.392 11.9664 6.11861 12.04 5.864Z" fill="currentColor"/>
</svg>
