<svg width="24" height="24" viewBox="0 0 24 24" fill="none" xmlns="http://www.w3.org/2000/svg">
<path fill-rule="evenodd" clip-rule="evenodd" d="M13 1C12.7348 1 12.4804 1.10536 12.2929 1.29289C12.1054 1.48043 12 1.73478 12 2V3.382L11.462 3.112C11.3079 3.03487 11.1366 2.99847 10.9644 3.00624C10.7923 3.01402 10.6249 3.06572 10.4784 3.15643C10.3319 3.24714 10.211 3.37384 10.1272 3.52447C10.0435 3.6751 9.9997 3.84466 10 4.017V11.587L7.296 14.29C7.10657 14.4793 7.00009 14.7362 7 15.004V21C6.73478 21 6.48043 21.1054 6.29289 21.2929C6.10536 21.4804 6 21.7348 6 22C6 22.2652 6.10536 22.5196 6.29289 22.7071C6.48043 22.8946 6.73478 23 7 23H16C16.2652 23 16.5196 22.8946 16.7071 22.7071C16.8946 22.5196 17 22.2652 17 22C17 21.7348 16.8946 21.4804 16.7071 21.2929C16.5196 21.1054 16.2652 21 16 21V6.006C16 5.81853 15.9477 5.63476 15.8492 5.47528C15.7506 5.3158 15.6097 5.1869 15.442 5.103L14 4.382V2C14 1.73478 13.8946 1.48043 13.7071 1.29289C13.5196 1.10536 13.2652 1 13 1ZM13.146 7.44C13.2159 7.36995 13.3049 7.32221 13.402 7.30281C13.499 7.28341 13.5996 7.29323 13.691 7.33103C13.7824 7.36882 13.8606 7.43289 13.9156 7.51512C13.9706 7.59736 14 7.69406 14 7.793V9.207C14.0001 9.27271 13.9873 9.33779 13.9622 9.39853C13.9372 9.45927 13.9004 9.51448 13.854 9.561L12.854 10.561C12.7841 10.6311 12.6949 10.6789 12.5978 10.6982C12.5007 10.7176 12.4 10.7077 12.3085 10.6698C12.2171 10.6319 12.1389 10.5676 12.084 10.4853C12.0291 10.4029 11.9998 10.306 12 10.207V8.793C11.9999 8.7273 12.0127 8.66221 12.0378 8.60147C12.0628 8.54073 12.0996 8.48552 12.146 8.439L13.146 7.44ZM13.52 13.122C13.763 12.99 14 13.224 14 13.5V15.207C14.0001 15.2727 13.9873 15.3378 13.9622 15.3985C13.9372 15.4593 13.9004 15.5145 13.854 15.561L10.561 18.854C10.5145 18.9004 10.4593 18.9372 10.3985 18.9622C10.3378 18.9873 10.2727 19.0001 10.207 19H9.5C9.36739 19 9.24021 18.9473 9.14645 18.8536C9.05268 18.7598 9 18.6326 9 18.5V17.793C8.99988 17.7273 9.01272 17.6622 9.03777 17.6015C9.06282 17.5407 9.0996 17.4855 9.146 17.439L13.293 13.293C13.3605 13.2257 13.4373 13.1685 13.521 13.123L13.52 13.122Z" fill="currentColor"/>
</svg>
