<svg width="24" height="24" viewBox="0 0 24 24" fill="none" xmlns="http://www.w3.org/2000/svg">
<path fill-rule="evenodd" clip-rule="evenodd" d="M2 13C2.00006 13.9115 2.31135 14.7957 2.88236 15.5061C3.45337 16.2166 4.24985 16.7108 5.14 16.907C5.33278 17.5143 5.71386 18.0445 6.22804 18.4208C6.74223 18.7971 7.36283 18.9999 8 19C8.53043 19 9.03914 18.7893 9.41421 18.4142C9.78929 18.0391 10 17.5304 10 17V14H14V17C14 17.5304 14.2107 18.0391 14.5858 18.4142C14.9609 18.7893 15.4696 19 16 19C17.34 19 18.476 18.12 18.86 16.907C19.7501 16.7108 20.5466 16.2166 21.1176 15.5061C21.6886 14.7957 21.9999 13.9115 22 13V11C21.9999 10.0885 21.6886 9.20434 21.1176 8.49385C20.5466 7.78337 19.7501 7.28915 18.86 7.093C18.6672 6.4857 18.2861 5.95552 17.772 5.57923C17.2578 5.20294 16.6372 5.00007 16 5C15.4696 5 14.9609 5.21071 14.5858 5.58579C14.2107 5.96086 14 6.46957 14 7V10H10V7C10 6.46957 9.78929 5.96086 9.41421 5.58579C9.03914 5.21071 8.53043 5 8 5C6.66 5 5.524 5.88 5.14 7.093C4.24985 7.28915 3.45337 7.78337 2.88236 8.49385C2.31135 9.20434 2.00006 10.0885 2 11V13Z" fill="currentColor"/>
</svg>
