<svg width="24" height="24" viewBox="0 0 24 24" fill="none" xmlns="http://www.w3.org/2000/svg">
<path fill-rule="evenodd" clip-rule="evenodd" d="M20 5C20.5046 4.99984 20.9906 5.19041 21.3605 5.5335C21.7305 5.87659 21.9572 6.34684 21.995 6.85L22 7V17C22.0002 17.5046 21.8096 17.9906 21.4665 18.3605C21.1234 18.7305 20.6532 18.9572 20.15 18.995L20 19H4C3.49542 19.0002 3.00943 18.8096 2.63945 18.4665C2.26947 18.1234 2.04284 17.6532 2.005 17.15L2 17V7C1.99984 6.49542 2.19041 6.00943 2.5335 5.63945C2.87659 5.26947 3.34684 5.04284 3.85 5.005L4 5H20ZM6 8C5.73478 8 5.48043 8.10536 5.29289 8.29289C5.10536 8.48043 5 8.73478 5 9V15C5 15.2652 5.10536 15.5196 5.29289 15.7071C5.48043 15.8946 5.73478 16 6 16C6.26522 16 6.51957 15.8946 6.70711 15.7071C6.89464 15.5196 7 15.2652 7 15V9C7 8.73478 6.89464 8.48043 6.70711 8.29289C6.51957 8.10536 6.26522 8 6 8ZM12 8C11.7348 8 11.4804 8.10536 11.2929 8.29289C11.1054 8.48043 11 8.73478 11 9C10.9997 8.74512 10.9021 8.49997 10.7272 8.31463C10.5522 8.1293 10.313 8.01776 10.0586 8.00283C9.80416 7.98789 9.55362 8.07067 9.35817 8.23426C9.16271 8.39785 9.0371 8.6299 9.007 8.883L9 9V15C9 15.2652 9.10536 15.5196 9.29289 15.7071C9.48043 15.8946 9.73478 16 10 16C10.2652 16 10.5196 15.8946 10.7071 15.7071C10.8946 15.5196 11 15.2652 11 15C11.0003 15.2549 11.0979 15.5 11.2728 15.6854C11.4478 15.8707 11.687 15.9822 11.9414 15.9972C12.1958 16.0121 12.4464 15.9293 12.6418 15.7657C12.8373 15.6021 12.9629 15.3701 12.993 15.117L13 15V9C13 8.73478 12.8946 8.48043 12.7071 8.29289C12.5196 8.10536 12.2652 8 12 8ZM15 8C14.7551 8.00003 14.5187 8.08996 14.3356 8.25272C14.1526 8.41547 14.0357 8.63975 14.007 8.883L14 9V15C14.0003 15.2549 14.0979 15.5 14.2728 15.6854C14.4478 15.8707 14.687 15.9822 14.9414 15.9972C15.1958 16.0121 15.4464 15.9293 15.6418 15.7657C15.8373 15.6021 15.9629 15.3701 15.993 15.117L16 15V9C16 8.73478 15.8946 8.48043 15.7071 8.29289C15.5196 8.10536 15.2652 8 15 8ZM18 8C17.7348 8 17.4804 8.10536 17.2929 8.29289C17.1054 8.48043 17 8.73478 17 9V15C17 15.2652 17.1054 15.5196 17.2929 15.7071C17.4804 15.8946 17.7348 16 18 16C18.2652 16 18.5196 15.8946 18.7071 15.7071C18.8946 15.5196 19 15.2652 19 15V9C19 8.73478 18.8946 8.48043 18.7071 8.29289C18.5196 8.10536 18.2652 8 18 8Z" fill="currentColor"/>
</svg>
