<svg width="24" height="24" viewBox="0 0 24 24" fill="none" xmlns="http://www.w3.org/2000/svg">
<path d="M7 5.5H5.5V7C5.5 7.39782 5.34196 7.77936 5.06066 8.06066C4.77936 8.34196 4.39782 8.5 4 8.5C3.60218 8.5 3.22064 8.34196 2.93934 8.06066C2.65804 7.77936 2.5 7.39782 2.5 7V5C2.5 4.33696 2.76339 3.70107 3.23223 3.23223C3.70107 2.76339 4.33696 2.5 5 2.5H7C7.39782 2.5 7.77936 2.65804 8.06066 2.93934C8.34196 3.22064 8.5 3.60218 8.5 4C8.5 4.39782 8.34196 4.77936 8.06066 5.06066C7.77936 5.34196 7.39782 5.5 7 5.5ZM17 2.5C16.6022 2.5 16.2206 2.65804 15.9393 2.93934C15.658 3.22064 15.5 3.60218 15.5 4C15.5 4.39782 15.658 4.77936 15.9393 5.06066C16.2206 5.34196 16.6022 5.5 17 5.5H18.5V7C18.5 7.39782 18.658 7.77936 18.9393 8.06066C19.2206 8.34196 19.6022 8.5 20 8.5C20.3978 8.5 20.7794 8.34196 21.0607 8.06066C21.342 7.77936 21.5 7.39782 21.5 7V5C21.5 4.33696 21.2366 3.70107 20.7678 3.23223C20.2989 2.76339 19.663 2.5 19 2.5H17ZM5.5 17C5.5 16.6022 5.34196 16.2206 5.06066 15.9393C4.77936 15.658 4.39782 15.5 4 15.5C3.60218 15.5 3.22064 15.658 2.93934 15.9393C2.65804 16.2206 2.5 16.6022 2.5 17V19C2.5 19.663 2.76339 20.2989 3.23223 20.7678C3.70107 21.2366 4.33696 21.5 5 21.5H7C7.39782 21.5 7.77936 21.342 8.06066 21.0607C8.34196 20.7794 8.5 20.3978 8.5 20C8.5 19.6022 8.34196 19.2206 8.06066 18.9393C7.77936 18.658 7.39782 18.5 7 18.5H5.5V17ZM21.5 17C21.5 16.6022 21.342 16.2206 21.0607 15.9393C20.7794 15.658 20.3978 15.5 20 15.5C19.6022 15.5 19.2206 15.658 18.9393 15.9393C18.658 16.2206 18.5 16.6022 18.5 17V18.5H17C16.6022 18.5 16.2206 18.658 15.9393 18.9393C15.658 19.2206 15.5 19.6022 15.5 20C15.5 20.3978 15.658 20.7794 15.9393 21.0607C16.2206 21.342 16.6022 21.5 17 21.5H19C19.663 21.5 20.2989 21.2366 20.7678 20.7678C21.2366 20.2989 21.5 19.663 21.5 19V17ZM9 10C9 9.73478 8.89464 9.48043 8.70711 9.29289C8.51957 9.10536 8.26522 9 8 9C7.73478 9 7.48043 9.10536 7.29289 9.29289C7.10536 9.48043 7 9.73478 7 10V14C7 14.2652 7.10536 14.5196 7.29289 14.7071C7.48043 14.8946 7.73478 15 8 15C8.26522 15 8.51957 14.8946 8.70711 14.7071C8.89464 14.5196 9 14.2652 9 14C9 14.2652 9.10536 14.5196 9.29289 14.7071C9.48043 14.8946 9.73478 15 10 15C10.2652 15 10.5196 14.8946 10.7071 14.7071C10.8946 14.5196 11 14.2652 11 14V10C11 9.73478 10.8946 9.48043 10.7071 9.29289C10.5196 9.10536 10.2652 9 10 9C9.73478 9 9.48043 9.10536 9.29289 9.29289C9.10536 9.48043 9 9.73478 9 10ZM14 10C14 9.73478 13.8946 9.48043 13.7071 9.29289C13.5196 9.10536 13.2652 9 13 9C12.7348 9 12.4804 9.10536 12.2929 9.29289C12.1054 9.48043 12 9.73478 12 10V14C12 14.2652 12.1054 14.5196 12.2929 14.7071C12.4804 14.8946 12.7348 15 13 15C13.2652 15 13.5196 14.8946 13.7071 14.7071C13.8946 14.5196 14 14.2652 14 14V10ZM16 9C16.182 9 16.353 9.049 16.5 9.134C16.652 9.04623 16.8245 9.00003 17 9.00003C17.1755 9.00002 17.348 9.04623 17.5 9.13399C17.652 9.22176 17.7782 9.34799 17.866 9.50001C17.9538 9.65202 18 9.82447 18 10V14C18 14.1755 17.9538 14.348 17.866 14.5C17.7782 14.652 17.652 14.7782 17.5 14.866C17.348 14.9538 17.1755 15 17 15C16.8245 15 16.652 14.9538 16.5 14.866C16.348 14.9538 16.1755 15 16 15C15.8245 15 15.652 14.9538 15.5 14.866C15.348 14.7782 15.2218 14.652 15.134 14.5C15.0462 14.348 15 14.1755 15 14V10C15 9.73478 15.1054 9.48043 15.2929 9.29289C15.4804 9.10536 15.7348 9 16 9ZM5 11C5 10.7348 4.89464 10.4804 4.70711 10.2929C4.51957 10.1054 4.26522 10 4 10C3.73478 10 3.48043 10.1054 3.29289 10.2929C3.10536 10.4804 3 10.7348 3 11V13C3 13.2652 3.10536 13.5196 3.29289 13.7071C3.48043 13.8946 3.73478 14 4 14C4.26522 14 4.51957 13.8946 4.70711 13.7071C4.89464 13.5196 5 13.2652 5 13V11ZM21 11C21 10.7348 20.8946 10.4804 20.7071 10.2929C20.5196 10.1054 20.2652 10 20 10C19.7348 10 19.4804 10.1054 19.2929 10.2929C19.1054 10.4804 19 10.7348 19 11V13C19 13.2652 19.1054 13.5196 19.2929 13.7071C19.4804 13.8946 19.7348 14 20 14C20.2652 14 20.5196 13.8946 20.7071 13.7071C20.8946 13.5196 21 13.2652 21 13V11Z" fill="currentColor"/>
</svg>
