<svg width="24" height="24" viewBox="0 0 24 24" fill="none" xmlns="http://www.w3.org/2000/svg">
<path fill-rule="evenodd" clip-rule="evenodd" d="M10.8247 4.835L18.5977 15.288L20.4647 16.621C20.6421 16.7476 20.7898 16.9113 20.8975 17.1008C21.0052 17.2903 21.0703 17.501 21.0883 17.7182C21.1063 17.9354 21.0767 18.1539 21.0017 18.3585C20.9266 18.5631 20.8079 18.7489 20.6537 18.903L18.6597 20.896C18.5057 21.05 18.3199 21.1686 18.1154 21.2435C17.9109 21.3185 17.6925 21.348 17.4754 21.33C17.2584 21.312 17.0478 21.2469 16.8584 21.1394C16.669 21.0318 16.5053 20.8842 16.3787 20.707L15.0447 18.84L4.59173 11.068C4.07809 10.6863 3.6527 10.1984 3.34453 9.63758C3.03636 9.07673 2.85264 8.45608 2.80586 7.81785C2.75909 7.17962 2.85036 6.53881 3.07347 5.93903C3.29657 5.33924 3.64628 4.79456 4.09879 4.34206C4.55129 3.88955 5.09597 3.53985 5.69576 3.31674C6.29554 3.09363 6.93635 3.00236 7.57458 3.04913C8.2128 3.09591 8.83346 3.27963 9.39431 3.5878C9.95516 3.89597 10.443 4.32136 10.8247 4.835ZM15.9677 15.103L14.8597 16.21L16.3647 17.328C16.4201 17.3693 16.471 17.4162 16.5167 17.468L16.5807 17.549L17.6627 19.064L18.8227 17.904L17.3077 16.823C17.2515 16.7828 17.1995 16.7369 17.1527 16.686L17.0867 16.606L15.9677 15.103ZM15.7077 4.636C15.9855 4.35373 16.3164 4.12925 16.6814 3.97551C17.0463 3.82178 17.4381 3.74182 17.8341 3.74025C18.2302 3.73869 18.6226 3.81554 18.9887 3.96639C19.3549 4.11724 19.6876 4.33909 19.9676 4.61916C20.2476 4.89922 20.4693 5.23195 20.6201 5.59815C20.7709 5.96435 20.8476 6.35678 20.846 6.7528C20.8443 7.14881 20.7643 7.54058 20.6104 7.90551C20.4566 8.27043 20.2321 8.60129 19.9497 8.879C19.3871 9.44166 18.6239 9.75775 17.8282 9.75775C17.0325 9.75775 16.2694 9.44166 15.7067 8.879C15.1441 8.31634 14.828 7.55322 14.828 6.7575C14.828 5.96178 15.1441 5.19866 15.7067 4.636" fill="currentColor"/>
</svg>
