<svg width="24" height="24" viewBox="0 0 24 24" fill="none" xmlns="http://www.w3.org/2000/svg">
<path d="M12 2C14.3841 1.99628 16.6904 2.84784 18.5 4.4C17.6708 5.10996 16.9629 5.95031 16.404 6.888L16.36 6.868C16.2407 6.81006 16.1111 6.77643 15.9787 6.76906C15.8463 6.76169 15.7137 6.78073 15.5888 6.82507C15.4638 6.86941 15.3489 6.93816 15.2507 7.02733C15.1526 7.1165 15.0731 7.2243 15.017 7.34446C14.9609 7.46462 14.9293 7.59474 14.9239 7.72725C14.9186 7.85975 14.9397 7.99199 14.9859 8.11628C15.0322 8.24056 15.1027 8.35441 15.1933 8.45119C15.284 8.54797 15.393 8.62574 15.514 8.68L15.557 8.7C15.2971 9.44382 15.1266 10.2159 15.049 11H15C14.7348 11 14.4804 11.1054 14.2929 11.2929C14.1054 11.4804 14 11.7348 14 12C14 12.2652 14.1054 12.5196 14.2929 12.7071C14.4804 12.8946 14.7348 13 15 13H15.05C15.1275 13.784 15.2977 14.5561 15.557 15.3L15.514 15.32C15.393 15.3742 15.284 15.452 15.1933 15.5488C15.1027 15.6456 15.0322 15.7594 14.9859 15.8837C14.9397 16.008 14.9186 16.1402 14.9239 16.2727C14.9293 16.4053 14.9609 16.5354 15.017 16.6555C15.0731 16.7757 15.1526 16.8835 15.2507 16.9727C15.3489 17.0618 15.4638 17.1306 15.5888 17.1749C15.7137 17.2193 15.8463 17.2383 15.9787 17.2309C16.1111 17.2236 16.2407 17.1899 16.36 17.132L16.404 17.112C16.964 18.052 17.674 18.892 18.5 19.6C16.6904 21.1522 14.3841 22.0037 12 22C9.61594 22.0037 7.30961 21.1522 5.50001 19.6C6.32916 18.89 7.0371 18.0497 7.59601 17.112L7.64001 17.132C7.7593 17.1899 7.88892 17.2236 8.02132 17.2309C8.15373 17.2383 8.28628 17.2193 8.41126 17.1749C8.53624 17.1306 8.65115 17.0618 8.74931 16.9727C8.84747 16.8835 8.92691 16.7757 8.98301 16.6555C9.03911 16.5354 9.07075 16.4053 9.07609 16.2727C9.08143 16.1402 9.06036 16.008 9.01411 15.8837C8.96786 15.7594 8.89735 15.6456 8.80669 15.5488C8.71603 15.452 8.60702 15.3742 8.48601 15.32L8.44301 15.3C8.70253 14.5561 8.87272 13.784 8.95001 13H9.00001C9.26523 13 9.51958 12.8946 9.70712 12.7071C9.89465 12.5196 10 12.2652 10 12C10 11.7348 9.89465 11.4804 9.70712 11.2929C9.51958 11.1054 9.26523 11 9.00001 11H8.95001C8.8727 10.216 8.70251 9.44388 8.44301 8.7L8.48601 8.68C8.60506 8.62445 8.71199 8.54599 8.80072 8.44912C8.88944 8.35224 8.95821 8.23884 9.00311 8.11538C9.04801 7.99193 9.06815 7.86084 9.06238 7.7296C9.05662 7.59836 9.02506 7.46954 8.96951 7.3505C8.91396 7.23145 8.83551 7.12452 8.73863 7.03579C8.64176 6.94707 8.52835 6.8783 8.4049 6.8334C8.28144 6.7885 8.15035 6.76836 8.01911 6.77412C7.88787 6.77989 7.75906 6.81145 7.64001 6.867L7.59601 6.888C7.03601 5.948 6.32601 5.108 5.50001 4.4C7.30961 2.84784 9.61594 1.99628 12 2ZM4.11501 5.849C4.76343 6.38848 5.32294 7.02661 5.77301 7.74C5.54617 7.85997 5.37413 8.06256 5.29249 8.30584C5.21085 8.54912 5.22586 8.81448 5.33441 9.047C5.44297 9.27952 5.63676 9.46142 5.87568 9.55504C6.11461 9.64867 6.38038 9.64686 6.61801 9.55C6.76801 10.016 6.87601 10.502 6.93801 11.002C6.68425 11.0181 6.44614 11.1302 6.27211 11.3156C6.09809 11.501 6.00123 11.7457 6.00123 12C6.00123 12.2543 6.09809 12.499 6.27211 12.6844C6.44614 12.8698 6.68425 12.9819 6.93801 12.998C6.87601 13.498 6.76801 13.984 6.61801 14.451C6.38095 14.3566 6.11677 14.3564 5.87957 14.4505C5.64237 14.5445 5.45009 14.7257 5.34211 14.9569C5.23412 15.188 5.21859 15.4518 5.2987 15.694C5.3788 15.9363 5.54849 16.1388 5.77301 16.26C5.32295 16.9734 4.76344 17.6115 4.11501 18.151C2.74131 16.3952 1.99655 14.2293 2.00001 12C2.00001 9.68 2.79001 7.545 4.11501 5.849ZM19.885 5.849C21.2587 7.60475 22.0035 9.77071 22 12C22 14.32 21.21 16.455 19.885 18.151C19.2366 17.6115 18.6771 16.9734 18.227 16.26C18.4539 16.14 18.6259 15.9374 18.7075 15.6942C18.7892 15.4509 18.7742 15.1855 18.6656 14.953C18.5571 14.7205 18.3633 14.5386 18.1243 14.445C17.8854 14.3513 17.6196 14.3531 17.382 14.45C17.2302 13.9771 17.1231 13.4909 17.062 12.998C17.3158 12.9819 17.5539 12.8698 17.7279 12.6844C17.9019 12.499 17.9988 12.2543 17.9988 12C17.9988 11.7457 17.9019 11.501 17.7279 11.3156C17.5539 11.1302 17.3158 11.0181 17.062 11.002C17.124 10.502 17.232 10.016 17.382 9.549C17.6191 9.64337 17.8833 9.64356 18.1205 9.54952C18.3577 9.45547 18.5499 9.27431 18.6579 9.04313C18.7659 8.81195 18.7814 8.54823 18.7013 8.30597C18.6212 8.0637 18.4515 7.86123 18.227 7.74C18.6771 7.02662 19.2366 6.38849 19.885 5.849Z" fill="currentColor"/>
</svg>
