<svg width="24" height="24" viewBox="0 0 24 24" fill="none" xmlns="http://www.w3.org/2000/svg">
<path d="M12 8.5C12.3978 8.5 12.7794 8.65803 13.0607 8.93933C13.342 9.22064 13.5 9.60217 13.5 10V18.5H15C15.3978 18.5 15.7794 18.658 16.0607 18.9393C16.342 19.2206 16.5 19.6022 16.5 20C16.5 20.3978 16.342 20.7794 16.0607 21.0607C15.7794 21.342 15.3978 21.5 15 21.5H9.00001C8.60218 21.5 8.22065 21.342 7.93935 21.0607C7.65804 20.7794 7.50001 20.3978 7.50001 20C7.50001 19.6022 7.65804 19.2206 7.93935 18.9393C8.22065 18.658 8.60218 18.5 9.00001 18.5H10.5V10C10.5 9.60217 10.658 9.22064 10.9393 8.93933C11.2207 8.65803 11.6022 8.5 12 8.5ZM7.40401 3.282C7.5434 3.4213 7.65397 3.5867 7.72941 3.76875C7.80486 3.9508 7.84369 4.14593 7.84369 4.343C7.84369 4.54006 7.80486 4.73519 7.72941 4.91724C7.65397 5.09929 7.5434 5.26469 7.40401 5.404C6.7993 6.00671 6.31977 6.72307 5.99301 7.51184C5.66624 8.30061 5.49869 9.14622 5.50001 10C5.50001 11.795 6.22601 13.418 7.40401 14.596C7.6854 14.8774 7.84349 15.259 7.84349 15.657C7.84349 16.0549 7.6854 16.4366 7.40401 16.718C7.12261 16.9994 6.74096 17.1575 6.34301 17.1575C5.94505 17.1575 5.5634 16.9994 5.28201 16.718C4.39877 15.8366 3.69834 14.7893 3.22093 13.6365C2.74351 12.4836 2.49852 11.2478 2.50001 10C2.50001 7.377 3.56501 5 5.28201 3.282C5.42131 3.14261 5.58671 3.03203 5.76876 2.95659C5.95081 2.88115 6.14594 2.84232 6.34301 2.84232C6.54007 2.84232 6.7352 2.88115 6.91725 2.95659C7.09931 3.03203 7.26471 3.14261 7.40401 3.282ZM18.718 3.282C19.6012 4.16343 20.3017 5.21064 20.7791 6.36351C21.2565 7.51637 21.5015 8.75219 21.5 10C21.5 12.623 20.435 15 18.718 16.718C18.5787 16.8573 18.4133 16.9679 18.2312 17.0433C18.0492 17.1187 17.8541 17.1575 17.657 17.1575C17.46 17.1575 17.2648 17.1187 17.0828 17.0433C16.9008 16.9679 16.7353 16.8573 16.596 16.718C16.4567 16.5787 16.3461 16.4133 16.2707 16.2312C16.1953 16.0492 16.1565 15.854 16.1565 15.657C16.1565 15.4599 16.1953 15.2648 16.2707 15.0828C16.3461 14.9007 16.4567 14.7353 16.596 14.596C17.2007 13.9933 17.6802 13.2769 18.007 12.4881C18.3338 11.6994 18.5013 10.8538 18.5 10C18.5013 9.14622 18.3338 8.30061 18.007 7.51184C17.6802 6.72307 17.2007 6.00671 16.596 5.404C16.4567 5.26466 16.3461 5.09925 16.2707 4.9172C16.1953 4.73516 16.1565 4.54004 16.1565 4.343C16.1565 4.14595 16.1953 3.95083 16.2707 3.76879C16.3461 3.58674 16.4567 3.42133 16.596 3.282C16.7353 3.14266 16.9008 3.03214 17.0828 2.95673C17.2648 2.88133 17.46 2.84251 17.657 2.84251C17.8541 2.84251 18.0492 2.88133 18.2312 2.95673C18.4133 3.03214 18.5787 3.14266 18.718 3.282ZM10.232 6.111C10.4945 6.37349 10.6503 6.72398 10.6693 7.0947C10.6883 7.46541 10.5692 7.83001 10.335 8.118L10.232 8.232C9.99934 8.46379 9.81487 8.73936 9.68924 9.04281C9.5636 9.34625 9.49929 9.67157 9.50001 10C9.50001 10.392 9.59001 10.76 9.74801 11.088L9.83401 11.248C9.93269 11.4185 9.99683 11.6068 10.0228 11.8021C10.0487 11.9974 10.0359 12.1959 9.98508 12.3863C9.93428 12.5766 9.84649 12.7551 9.72672 12.9116C9.60694 13.068 9.45753 13.1993 9.28701 13.298C9.11649 13.3967 8.92819 13.4608 8.73289 13.4867C8.53758 13.5127 8.33908 13.4999 8.14872 13.4491C7.95836 13.3983 7.77987 13.3105 7.62344 13.1907C7.467 13.0709 7.3357 12.9215 7.23701 12.751C6.75327 11.9149 6.49902 10.9659 6.50001 10C6.50001 8.482 7.11701 7.105 8.11001 6.11C8.24931 5.97061 8.41471 5.86003 8.59676 5.78459C8.77881 5.70915 8.97394 5.67032 9.17101 5.67032C9.36807 5.67032 9.5632 5.70915 9.74525 5.78459C9.9273 5.86003 10.0927 5.97161 10.232 6.111ZM15.889 6.111C16.4003 6.62131 16.8057 7.22753 17.0822 7.89489C17.3587 8.56226 17.5006 9.27764 17.5 10C17.5 11 17.232 11.94 16.763 12.751C16.5701 13.0847 16.2562 13.3313 15.8863 13.4397C15.5165 13.5481 15.1191 13.51 14.7766 13.3333C14.4341 13.1566 14.1727 12.8548 14.0468 12.4906C13.9208 12.1263 13.9399 11.7276 14.1 11.377L14.166 11.249C14.3858 10.8695 14.5011 10.4385 14.5 10C14.5 9.378 14.275 8.812 13.899 8.373L13.768 8.233C13.6287 8.09373 13.5181 7.92838 13.4427 7.7464C13.3673 7.56441 13.3284 7.36935 13.3284 7.17235C13.3283 6.77449 13.4862 6.39289 13.7675 6.1115C14.0488 5.8301 14.4303 5.67196 14.8282 5.67187C15.226 5.67177 15.6076 5.82973 15.889 6.111Z" fill="currentColor"/>
</svg>
