<svg width="24" height="24" viewBox="0 0 24 24" fill="none" xmlns="http://www.w3.org/2000/svg">
<path fill-rule="evenodd" clip-rule="evenodd" d="M10.4641 3.28201C10.643 3.06731 10.865 2.8925 11.1157 2.76887C11.3663 2.64524 11.6401 2.57552 11.9194 2.56421C12.1987 2.55291 12.4772 2.60026 12.7371 2.70323C12.9969 2.80619 13.2323 2.96248 13.4281 3.16201L13.5361 3.28201L17.4681 8.00001H20.4531C20.6629 7.99956 20.8705 8.04345 21.0622 8.1288C21.2539 8.21415 21.4255 8.33904 21.5656 8.49528C21.7057 8.65153 21.8112 8.8356 21.8752 9.03546C21.9392 9.23531 21.9603 9.44644 21.9371 9.655L21.8451 10.421L21.7451 11.161L21.6631 11.715L21.5681 12.31L21.4601 12.935L21.3381 13.583L21.2021 14.244C21.1301 14.577 21.0531 14.911 20.9701 15.243C20.7486 16.121 20.4707 16.9838 20.1381 17.826L19.9171 18.366L19.7031 18.854L19.5011 19.288L19.4071 19.482L19.1581 19.972C18.8381 20.582 18.2341 20.942 17.5951 20.994L17.4351 21H6.55505C6.20543 21.0027 5.86164 20.9104 5.56045 20.7328C5.25925 20.5553 5.01197 20.2992 4.84505 19.992L4.61305 19.542L4.43305 19.172C4.401 19.1039 4.36934 19.0355 4.33805 18.967L4.13805 18.518C3.6815 17.4575 3.31097 16.3619 3.03005 15.242C2.97579 15.0246 2.92379 14.8065 2.87405 14.588L2.73205 13.94L2.60505 13.306L2.49305 12.693L2.39305 12.106L2.30605 11.552L2.23205 11.039L2.14205 10.356L2.07605 9.80001C2.07029 9.74902 2.06462 9.69802 2.05905 9.64701C2.03809 9.4505 2.05648 9.25178 2.11316 9.06246C2.16983 8.87313 2.26365 8.69699 2.38914 8.54432C2.51462 8.39165 2.66927 8.26551 2.84404 8.17325C3.01881 8.081 3.2102 8.02448 3.40705 8.00701L3.54305 8.00001H6.53205L10.4641 3.28201ZM9.96105 12.722C9.89341 12.4861 9.74135 12.2832 9.53383 12.1522C9.32631 12.0211 9.07783 11.9709 8.83571 12.0112C8.59359 12.0514 8.37473 12.1793 8.22082 12.3705C8.0669 12.5617 7.98868 12.8029 8.00105 13.048L8.01405 13.164L8.51405 16.164L8.53905 16.278C8.6067 16.5139 8.75876 16.7168 8.96628 16.8479C9.17379 16.9789 9.42227 17.0291 9.6644 16.9888C9.90652 16.9486 10.1254 16.8207 10.2793 16.6295C10.4332 16.4383 10.5114 16.1971 10.4991 15.952L10.4861 15.836L9.98605 12.836L9.96105 12.722ZM15.1641 12.014C14.9224 11.9737 14.6743 12.0235 14.4669 12.154C14.2595 12.2845 14.1073 12.4867 14.0391 12.722L14.0141 12.836L13.5141 15.836C13.4723 16.0876 13.5283 16.3456 13.6705 16.5573C13.8127 16.769 14.0305 16.9184 14.2792 16.9749C14.5279 17.0313 14.7888 16.9906 15.0085 16.8611C15.2282 16.7315 15.3901 16.523 15.4611 16.278L15.4861 16.164L15.9861 13.164C16.0294 12.9025 15.9672 12.6345 15.8131 12.4189C15.6589 12.2032 15.4255 12.0576 15.1641 12.014ZM12.0001 4.56201L9.13505 8.00001H14.8651L12.0001 4.56201Z" fill="currentColor"/>
</svg>
