<svg width="24" height="24" viewBox="0 0 24 24" fill="none" xmlns="http://www.w3.org/2000/svg">
<path d="M11.9995 13.414L13.4575 14.872C12.6842 15.8684 12.1573 17.0335 11.9198 18.2722C11.6822 19.5109 11.7407 20.7882 12.0905 22C9.87544 22.0224 7.7159 21.3068 5.95254 19.966L5.67054 19.743L11.9995 13.414ZM14.8865 16.301L18.3285 19.743C17.1066 20.745 15.6634 21.4412 14.1185 21.774C13.7992 20.8669 13.7022 19.8963 13.8359 18.944C13.9695 17.9916 14.3298 17.0852 14.8865 16.301ZM9.12654 10.542L10.5865 12L4.25654 18.329C2.77455 16.5199 1.97565 14.2475 1.99954 11.909C3.21135 12.2588 4.48866 12.3173 5.72737 12.0798C6.96608 11.8422 8.13113 11.3153 9.12754 10.542H9.12654ZM21.7735 14.118C21.4674 15.54 20.853 16.8774 19.9735 18.036L19.7435 18.329L16.3005 14.887C17.0847 14.3301 17.991 13.9696 18.9434 13.8358C19.8958 13.702 20.8663 13.7988 21.7735 14.118ZM19.7435 5.671C21.2249 7.47998 22.0234 9.75201 21.9995 12.09C20.8384 11.7549 19.6164 11.687 18.4252 11.8914C17.2341 12.0957 16.1046 12.5671 15.1215 13.27L14.8715 13.457L13.4135 12L19.7435 5.671ZM11.9075 2C14.1225 1.9772 16.2821 2.69248 18.0455 4.033L18.3275 4.256L11.9995 10.586L10.5415 9.128C11.3148 8.13159 11.8417 6.96654 12.0793 5.72783C12.3169 4.48912 12.2583 3.21181 11.9085 2H11.9075ZM4.25654 5.67L7.69854 9.112C6.91443 9.66887 6.0081 10.0294 5.05572 10.1632C4.10334 10.297 3.13275 10.2002 2.22554 9.881C2.55782 8.33591 3.25474 6.89233 4.25654 5.67ZM9.88154 2.225C10.1849 3.08739 10.2875 4.00759 10.1816 4.91561C10.0757 5.82363 9.76414 6.69554 9.27054 7.465L9.11254 7.698L5.66954 4.257C6.89148 3.25498 8.33472 2.55873 9.87954 2.226L9.88154 2.225Z" fill="currentColor"/>
</svg>
