<svg width="24" height="24" viewBox="0 0 24 24" fill="none" xmlns="http://www.w3.org/2000/svg">
<path fill-rule="evenodd" clip-rule="evenodd" d="M9.447 3.10601C9.68401 3.22465 9.86423 3.43254 9.94804 3.68399C10.0319 3.93544 10.0124 4.20988 9.894 4.44701L8.618 7.00001H15.382L14.106 4.44701C14.0424 4.32913 14.0032 4.19969 13.9906 4.06636C13.978 3.93303 13.9923 3.79853 14.0327 3.67084C14.0731 3.54315 14.1387 3.42487 14.2257 3.32302C14.3126 3.22117 14.4192 3.13783 14.539 3.07794C14.6588 3.01805 14.7893 2.98283 14.923 2.97436C15.0567 2.9659 15.1906 2.98437 15.317 3.02868C15.4434 3.07299 15.5596 3.14223 15.6587 3.2323C15.7578 3.32237 15.8378 3.43143 15.894 3.55301L17.618 7.00001H20C20.5304 7.00001 21.0391 7.21072 21.4142 7.58579C21.7893 7.96087 22 8.46957 22 9.00001V10C22.0001 10.3812 21.8912 10.7545 21.6862 11.0758C21.4812 11.3972 21.1887 11.6533 20.843 11.814L19.324 18.651C19.1759 19.3172 18.8051 19.913 18.2728 20.34C17.7405 20.7671 17.0785 20.9999 16.396 21H7.604C6.92141 20.9998 6.25929 20.7669 5.72695 20.3396C5.19461 19.9124 4.82389 19.3164 4.676 18.65L3.156 11.814C2.81051 11.6532 2.51817 11.397 2.31337 11.0756C2.10857 10.7543 1.99985 10.3811 2 10V9.00001C2 8.46957 2.21071 7.96087 2.58579 7.58579C2.96086 7.21072 3.46957 7.00001 4 7.00001H6.382L8.106 3.55301C8.22465 3.31599 8.43254 3.13578 8.68399 3.05196C8.93544 2.96815 9.20987 2.98759 9.447 3.10601ZM16.98 9.00001H20V10H4V9.00001H7.02H16.98Z" fill="currentColor"/>
</svg>
