<svg width="24" height="24" viewBox="0 0 24 24" fill="none" xmlns="http://www.w3.org/2000/svg">
<path d="M7 6C7 5.73478 7.10536 5.48043 7.29289 5.29289C7.48043 5.10536 7.73478 5 8 5H9V6C9 6.26522 9.10536 6.51957 9.29289 6.70711C9.48043 6.89464 9.73478 7 10 7C10.2652 7 10.5196 6.89464 10.7071 6.70711C10.8946 6.51957 11 6.26522 11 6V5C11 4.46957 10.7893 3.96086 10.4142 3.58579C10.0391 3.21071 9.53043 3 9 3H8C7.20435 3 6.44129 3.31607 5.87868 3.87868C5.31607 4.44129 5 5.20435 5 6V11H4C3.46957 11 2.96086 11.2107 2.58579 11.5858C2.21071 11.9609 2 12.4696 2 13V14C1.99945 14.9784 2.23838 15.942 2.69595 16.8067C3.15352 17.6715 3.81581 18.4111 4.625 18.961L4.293 19.293C4.19749 19.3852 4.12131 19.4956 4.0689 19.6176C4.01649 19.7396 3.9889 19.8708 3.98775 20.0036C3.9866 20.1364 4.0119 20.2681 4.06218 20.391C4.11246 20.5138 4.18671 20.6255 4.28061 20.7194C4.3745 20.8133 4.48615 20.8875 4.60905 20.9378C4.73194 20.9881 4.86362 21.0134 4.9964 21.0123C5.12918 21.0111 5.2604 20.9835 5.38241 20.9311C5.50441 20.8787 5.61475 20.8025 5.707 20.707L6.583 19.832C7.037 19.942 7.512 20 8 20H16C16.488 20 16.963 19.942 17.417 19.832L18.293 20.707C18.4816 20.8892 18.7342 20.99 18.9964 20.9877C19.2586 20.9854 19.5094 20.8802 19.6948 20.6948C19.8802 20.5094 19.9854 20.2586 19.9877 19.9964C19.99 19.7342 19.8892 19.4816 19.707 19.293L19.375 18.961C20.1842 18.4111 20.8465 17.6715 21.3041 16.8067C21.7616 15.942 22.0006 14.9784 22 14V13C22 12.4696 21.7893 11.9609 21.4142 11.5858C21.0391 11.2107 20.5304 11 20 11H7V6Z" fill="currentColor"/>
</svg>
