<svg width="24" height="24" viewBox="0 0 24 24" fill="none" xmlns="http://www.w3.org/2000/svg">
<path fill-rule="evenodd" clip-rule="evenodd" d="M18 6C18.5046 5.99984 18.9906 6.19041 19.3605 6.5335C19.7305 6.87659 19.9572 7.34684 19.995 7.85L20 8V9C20.5046 8.99984 20.9906 9.19041 21.3605 9.5335C21.7305 9.87659 21.9572 10.3468 21.995 10.85L22 11V13C22.0002 13.5046 21.8096 13.9906 21.4665 14.3605C21.1234 14.7305 20.6532 14.9572 20.15 14.995L20 15V16C20.0002 16.5046 19.8096 16.9906 19.4665 17.3605C19.1234 17.7305 18.6532 17.9572 18.15 17.995L18 18H4C3.49542 18.0002 3.00943 17.8096 2.63945 17.4665C2.26947 17.1234 2.04284 16.6532 2.005 16.15L2 16V8C1.99984 7.49542 2.19041 7.00943 2.5335 6.63945C2.87659 6.26947 3.34684 6.04284 3.85 6.005L4 6H18ZM6 9C5.75507 9.00003 5.51866 9.08996 5.33563 9.25272C5.15259 9.41547 5.03566 9.63975 5.007 9.883L5 10V14C5.00028 14.2549 5.09788 14.5 5.27285 14.6854C5.44782 14.8707 5.68695 14.9822 5.94139 14.9972C6.19584 15.0121 6.44638 14.9293 6.64183 14.7657C6.83729 14.6021 6.9629 14.3701 6.993 14.117L7 14V10C7 9.73478 6.89464 9.48043 6.70711 9.29289C6.51957 9.10536 6.26522 9 6 9ZM9 9C8.73478 9 8.48043 9.10536 8.29289 9.29289C8.10536 9.48043 8 9.73478 8 10V14C8 14.2652 8.10536 14.5196 8.29289 14.7071C8.48043 14.8946 8.73478 15 9 15C9.26522 15 9.51957 14.8946 9.70711 14.7071C9.89464 14.5196 10 14.2652 10 14V10C10 9.73478 9.89464 9.48043 9.70711 9.29289C9.51957 9.10536 9.26522 9 9 9ZM12 9C11.7551 9.00003 11.5187 9.08996 11.3356 9.25272C11.1526 9.41547 11.0357 9.63975 11.007 9.883L11 10V14C11.0003 14.2549 11.0979 14.5 11.2728 14.6854C11.4478 14.8707 11.687 14.9822 11.9414 14.9972C12.1958 15.0121 12.4464 14.9293 12.6418 14.7657C12.8373 14.6021 12.9629 14.3701 12.993 14.117L13 14V10C13 9.73478 12.8946 9.48043 12.7071 9.29289C12.5196 9.10536 12.2652 9 12 9ZM15 9C14.7348 9 14.4804 9.10536 14.2929 9.29289C14.1054 9.48043 14 9.73478 14 10V14C14 14.2652 14.1054 14.5196 14.2929 14.7071C14.4804 14.8946 14.7348 15 15 15C15.2652 15 15.5196 14.8946 15.7071 14.7071C15.8946 14.5196 16 14.2652 16 14V10C16 9.73478 15.8946 9.48043 15.7071 9.29289C15.5196 9.10536 15.2652 9 15 9Z" fill="currentColor"/>
</svg>
