<svg width="24" height="24" viewBox="0 0 24 24" fill="none" xmlns="http://www.w3.org/2000/svg">
<path d="M5.35306 14.513C5.87093 13.616 6.68232 12.9251 7.65037 12.5567C8.61842 12.1884 9.68389 12.1652 10.6671 12.491C10.3274 13.4079 10.1989 14.3895 10.2911 15.3629C10.3833 16.3363 10.6939 17.2764 11.1997 18.1132C11.7055 18.95 12.3935 19.6619 13.2125 20.196C14.0315 20.7301 14.9604 21.0726 15.9301 21.198C14.5016 21.8063 12.9514 22.0743 11.4017 21.9809C9.85195 21.8876 8.34512 21.4354 7.00006 20.66C5.96653 20.0632 5.21238 19.0804 4.90351 17.9276C4.59464 16.7748 4.75635 15.5466 5.35306 14.513ZM21.1981 8.07C21.8063 9.49842 22.0744 11.0486 21.981 12.5984C21.8876 14.1481 21.4354 15.6549 20.6601 17C20.1033 17.9661 19.2078 18.6912 18.1469 19.0346C17.086 19.378 15.9354 19.3153 14.9182 18.8586C13.9009 18.402 13.0894 17.5839 12.641 16.563C12.1925 15.5421 12.1391 14.3911 12.4911 13.333C13.4079 13.6727 14.3896 13.8012 15.363 13.709C16.3364 13.6167 17.2765 13.3062 18.1132 12.8004C18.95 12.2946 19.6619 11.6066 20.196 10.7876C20.7301 9.96859 21.0726 9.03968 21.1981 8.07ZM9.48706 5.353C10.3839 5.87101 11.0747 6.68241 11.4431 7.65042C11.8114 8.61842 11.8347 9.68382 11.5091 10.667C10.5922 10.3273 9.61052 10.1988 8.63712 10.291C7.66372 10.3833 6.72365 10.6938 5.88687 11.1996C5.0501 11.7054 4.33817 12.3934 3.80408 13.2124C3.26999 14.0314 2.92748 14.9603 2.80206 15.93C2.19378 14.5016 1.92575 12.9514 2.01911 11.4016C2.11248 9.85189 2.56469 8.34506 3.34006 7C3.93681 5.96647 4.91968 5.21233 6.07246 4.90345C7.22524 4.59458 8.4535 4.75629 9.48706 5.353ZM12.0001 2C13.7521 2 15.4831 2.464 17.0001 3.34C17.9662 3.89671 18.6912 4.7923 19.0346 5.85316C19.378 6.91403 19.3153 8.06461 18.8587 9.08188C18.4021 10.0991 17.584 10.9106 16.5631 11.3591C15.5422 11.8075 14.3911 11.8609 13.3331 11.509C13.6727 10.5921 13.8012 9.61047 13.709 8.63706C13.6168 7.66366 13.3062 6.72359 12.8004 5.88682C12.2947 5.05004 11.6067 4.33812 10.7877 3.80402C9.96865 3.26993 9.03974 2.92743 8.07006 2.802C9.31218 2.27114 10.6492 1.99829 12.0001 2Z" fill="currentColor"/>
</svg>
