<svg width="24" height="24" viewBox="0 0 24 24" fill="none" xmlns="http://www.w3.org/2000/svg">
<path fill-rule="evenodd" clip-rule="evenodd" d="M11.9803 13.594C10.6403 15.373 8.42826 16.226 6.32026 15.948C3.93726 15.634 1.77426 13.898 1.02626 10.7C0.983231 10.516 0.993239 10.3235 1.05512 10.1449C1.11701 9.96633 1.22823 9.80894 1.37591 9.69098C1.52359 9.57303 1.70167 9.49934 1.88952 9.47846C2.07737 9.45758 2.26728 9.49036 2.43726 9.573C4.53026 10.589 6.47126 9.509 8.09126 8.218C8.81926 7.638 9.62626 7.355 10.4303 7.45C11.0503 7.523 11.5763 7.811 11.9803 8.211C12.3853 7.811 12.9103 7.523 13.5313 7.45C14.3353 7.355 15.1423 7.638 15.8713 8.218C17.4903 9.509 19.4313 10.589 21.5243 9.573C21.6942 9.49064 21.884 9.45808 22.0717 9.47909C22.2593 9.50011 22.4372 9.57384 22.5848 9.69175C22.7323 9.80965 22.8434 9.96692 22.9052 10.1454C22.9671 10.3238 22.9772 10.5161 22.9343 10.7C22.1873 13.898 20.0243 15.634 17.6413 15.948C15.5333 16.226 13.3213 15.373 11.9813 13.594H11.9803Z" fill="currentColor"/>
</svg>
