<svg width="24" height="24" viewBox="0 0 24 24" fill="none" xmlns="http://www.w3.org/2000/svg">
<path fill-rule="evenodd" clip-rule="evenodd" d="M7 4C6.20435 4 5.44129 4.31607 4.87868 4.87868C4.31607 5.44129 4 6.20435 4 7V9.17C3.41493 9.37701 2.90842 9.76032 2.55024 10.2671C2.19206 10.774 1.99982 11.3794 2 12V17C2 17.2652 2.10536 17.5196 2.29289 17.7071C2.48043 17.8946 2.73478 18 3 18H4V19C4 19.2652 4.10536 19.5196 4.29289 19.7071C4.48043 19.8946 4.73478 20 5 20C5.26522 20 5.51957 19.8946 5.70711 19.7071C5.89464 19.5196 6 19.2652 6 19V18H18V19C18 19.2652 18.1054 19.5196 18.2929 19.7071C18.4804 19.8946 18.7348 20 19 20C19.2652 20 19.5196 19.8946 19.7071 19.7071C19.8946 19.5196 20 19.2652 20 19V18H21C21.2652 18 21.5196 17.8946 21.7071 17.7071C21.8946 17.5196 22 17.2652 22 17V12C22.0002 11.3794 21.8079 10.774 21.4498 10.2671C21.0916 9.76032 20.5851 9.37701 20 9.17V7C20 6.20435 19.6839 5.44129 19.1213 4.87868C18.5587 4.31607 17.7956 4 17 4H7ZM18 9V7C18 6.73478 17.8946 6.48043 17.7071 6.29289C17.5196 6.10536 17.2652 6 17 6H7C6.73478 6 6.48043 6.10536 6.29289 6.29289C6.10536 6.48043 6 6.73478 6 7V9H18Z" fill="currentColor"/>
</svg>
