<svg width="24" height="24" viewBox="0 0 24 24" fill="none" xmlns="http://www.w3.org/2000/svg">
<path fill-rule="evenodd" clip-rule="evenodd" d="M3 5C3.24493 5.00003 3.48134 5.08996 3.66437 5.25272C3.84741 5.41547 3.96434 5.63975 3.993 5.883L4 6V13H11V8C11 7.75507 11.09 7.51866 11.2527 7.33563C11.4155 7.15259 11.6397 7.03566 11.883 7.007L12 7H19C19.7652 6.99996 20.5015 7.29233 21.0583 7.81728C21.615 8.34224 21.9501 9.06011 21.995 9.824L22 10V18C21.9997 18.2549 21.9021 18.5 21.7272 18.6854C21.5522 18.8707 21.313 18.9822 21.0586 18.9972C20.8042 19.0121 20.5536 18.9293 20.3582 18.7657C20.1627 18.6021 20.0371 18.3701 20.007 18.117L20 18V15H4V18C3.99972 18.2549 3.90212 18.5 3.72715 18.6854C3.55218 18.8707 3.31305 18.9822 3.05861 18.9972C2.80416 19.0121 2.55362 18.9293 2.35817 18.7657C2.16271 18.6021 2.0371 18.3701 2.007 18.117L2 18V6C2 5.73478 2.10536 5.48043 2.29289 5.29289C2.48043 5.10536 2.73478 5 3 5ZM7.5 7C8.16304 7 8.79893 7.26339 9.26777 7.73223C9.73661 8.20107 10 8.83696 10 9.5C10 10.163 9.73661 10.7989 9.26777 11.2678C8.79893 11.7366 8.16304 12 7.5 12C6.83696 12 6.20107 11.7366 5.73223 11.2678C5.26339 10.7989 5 10.163 5 9.5C5 8.83696 5.26339 8.20107 5.73223 7.73223C6.20107 7.26339 6.83696 7 7.5 7Z" fill="currentColor"/>
</svg>
