<svg width="24" height="24" viewBox="0 0 24 24" fill="none" xmlns="http://www.w3.org/2000/svg">
<path d="M3 5C3 4.46957 3.21071 3.96086 3.58579 3.58579C3.96086 3.21071 4.46957 3 5 3H19C19.5304 3 20.0391 3.21071 20.4142 3.58579C20.7893 3.96086 21 4.46957 21 5V7H3V5ZM11 9H3V17C3 17.5304 3.21071 18.0391 3.58579 18.4142C3.96086 18.7893 4.46957 19 5 19H6.382L6.106 19.553C6.04243 19.6709 6.00319 19.8003 5.99061 19.9336C5.97802 20.067 5.99234 20.2015 6.03272 20.3292C6.0731 20.4569 6.13872 20.5751 6.22569 20.677C6.31265 20.7788 6.41918 20.8622 6.53897 20.9221C6.65875 20.982 6.78934 21.0172 6.923 21.0256C7.05666 21.0341 7.19065 21.0156 7.31703 20.9713C7.44341 20.927 7.5596 20.8578 7.65872 20.7677C7.75783 20.6776 7.83784 20.5686 7.894 20.447L8.618 19H11V9ZM8 11C8.26522 11 8.51957 11.1054 8.70711 11.2929C8.89464 11.4804 9 11.7348 9 12V14C9 14.2652 8.89464 14.5196 8.70711 14.7071C8.51957 14.8946 8.26522 15 8 15C7.73478 15 7.48043 14.8946 7.29289 14.7071C7.10536 14.5196 7 14.2652 7 14V12C7 11.7348 7.10536 11.4804 7.29289 11.2929C7.48043 11.1054 7.73478 11 8 11ZM13 9H21V17C21 17.5304 20.7893 18.0391 20.4142 18.4142C20.0391 18.7893 19.5304 19 19 19H17.618L17.894 19.553C17.9576 19.6709 17.9968 19.8003 18.0094 19.9336C18.022 20.067 18.0077 20.2015 17.9673 20.3292C17.9269 20.4569 17.8613 20.5751 17.7743 20.677C17.6874 20.7788 17.5808 20.8622 17.461 20.9221C17.3413 20.982 17.2107 21.0172 17.077 21.0256C16.9433 21.0341 16.8094 21.0156 16.683 20.9713C16.5566 20.927 16.4404 20.8578 16.3413 20.7677C16.2422 20.6776 16.1622 20.5686 16.106 20.447L15.382 19H13V9ZM17 12C17 11.7348 16.8946 11.4804 16.7071 11.2929C16.5196 11.1054 16.2652 11 16 11C15.7348 11 15.4804 11.1054 15.2929 11.2929C15.1054 11.4804 15 11.7348 15 12V14C15 14.2652 15.1054 14.5196 15.2929 14.7071C15.4804 14.8946 15.7348 15 16 15C16.2652 15 16.5196 14.8946 16.7071 14.7071C16.8946 14.5196 17 14.2652 17 14V12Z" fill="currentColor"/>
</svg>
