<svg width="24" height="24" viewBox="0 0 24 24" fill="none" xmlns="http://www.w3.org/2000/svg">
<path fill-rule="evenodd" clip-rule="evenodd" d="M8 4.5C8.86868 4.50002 9.71879 4.75147 10.4477 5.224C11.1766 5.69652 11.7532 6.36993 12.1078 7.16293C12.4625 7.95593 12.58 8.83462 12.4462 9.69294C12.3125 10.5513 11.9331 11.3525 11.354 12C11.9331 12.6475 12.3125 13.4487 12.4462 14.3071C12.58 15.1654 12.4625 16.0441 12.1078 16.8371C11.7532 17.6301 11.1766 18.3035 10.4477 18.776C9.71879 19.2485 8.86868 19.5 8 19.5H4C3.33696 19.5 2.70107 19.2366 2.23223 18.7678C1.76339 18.2989 1.5 17.663 1.5 17V7C1.5 6.33696 1.76339 5.70107 2.23223 5.23223C2.70107 4.76339 3.33696 4.5 4 4.5H8ZM17.5 8.5C20.443 8.5 22.5 11.157 22.5 14C22.5 14.3729 22.3611 14.7324 22.1104 15.0084C21.8597 15.2844 21.5152 15.4572 21.144 15.493L21 15.5H20.504C20.805 15.5006 21.0989 15.5917 21.3474 15.7616C21.5959 15.9314 21.7876 16.1721 21.8975 16.4523C22.0074 16.7325 22.0304 17.0393 21.9637 17.3328C21.8969 17.6263 21.7433 17.8929 21.523 18.098C20.627 18.931 19.337 19.5 17.5 19.5C14.557 19.5 12.5 16.843 12.5 14C12.5 11.157 14.557 8.5 17.5 8.5ZM8 13.5H4.5V16.5H8C8.38522 16.4998 8.75559 16.3514 9.03439 16.0856C9.31318 15.8198 9.47901 15.4569 9.49752 15.0721C9.51604 14.6873 9.38581 14.3102 9.13382 14.0188C8.88184 13.7274 8.52742 13.5442 8.144 13.507L8 13.5ZM20.496 15.5H15.9C16.297 16.145 16.928 16.5 17.5 16.5C18.663 16.5 19.198 16.163 19.477 15.902C19.7533 15.6441 20.1181 15.5005 20.496 15.5ZM17.499 11.5C16.927 11.5 16.296 11.855 15.899 12.5H19.099C18.702 11.855 18.071 11.5 17.499 11.5ZM8 7.5H4.5V10.5H8C8.39782 10.5 8.77936 10.342 9.06066 10.0607C9.34196 9.77936 9.5 9.39782 9.5 9C9.5 8.60218 9.34196 8.22064 9.06066 7.93934C8.77936 7.65804 8.39782 7.5 8 7.5ZM19 5.5C19.3978 5.5 19.7794 5.65804 20.0607 5.93934C20.342 6.22064 20.5 6.60218 20.5 7C20.5 7.39782 20.342 7.77936 20.0607 8.06066C19.7794 8.34196 19.3978 8.5 19 8.5H16C15.6022 8.5 15.2206 8.34196 14.9393 8.06066C14.658 7.77936 14.5 7.39782 14.5 7C14.5 6.60218 14.658 6.22064 14.9393 5.93934C15.2206 5.65804 15.6022 5.5 16 5.5H19Z" fill="currentColor"/>
</svg>
