<svg width="24" height="24" viewBox="0 0 24 24" fill="none" xmlns="http://www.w3.org/2000/svg">
<path d="M8.11007 13.768L11.6461 17.303C11.7398 17.3967 11.867 17.4494 11.9996 17.4494C12.1322 17.4494 12.2593 17.3967 12.3531 17.303L15.8891 13.768C15.9828 13.6743 16.11 13.6216 16.2426 13.6216C16.3752 13.6216 16.5023 13.6743 16.5961 13.768L18.1521 15.323C18.2458 15.4168 18.2985 15.5439 18.2985 15.6765C18.2985 15.8091 18.2458 15.9362 18.1521 16.03L12.3531 21.829C12.2593 21.9227 12.1322 21.9754 11.9996 21.9754C11.867 21.9754 11.7398 21.9227 11.6461 21.829L5.84807 16.03C5.75434 15.9362 5.70168 15.8091 5.70168 15.6765C5.70168 15.5439 5.75434 15.4168 5.84807 15.323L7.40407 13.768C7.49784 13.6743 7.62499 13.6216 7.75758 13.6216C7.89016 13.6216 8.01731 13.6743 8.11107 13.768H8.11007ZM20.2041 10.033L20.2731 10.091L21.8291 11.646C21.9119 11.7287 21.9631 11.8379 21.9737 11.9545C21.9843 12.0711 21.9536 12.1877 21.8871 12.284L21.8291 12.354L20.2731 13.909C20.1903 13.9918 20.0812 14.043 19.9646 14.0536C19.848 14.0642 19.7314 14.0335 19.6351 13.967L19.5661 13.909L18.0101 12.353C17.9277 12.2702 17.8768 12.1612 17.8664 12.0448C17.856 11.9284 17.8867 11.8121 17.9531 11.716L18.0101 11.646L19.5661 10.091C19.6382 10.0188 19.7308 9.97044 19.8312 9.95238C19.9317 9.93433 20.0353 9.94745 20.1281 9.99L20.2041 10.033ZM4.43407 10.091L5.99007 11.646C6.08381 11.7398 6.13647 11.8669 6.13647 11.9995C6.13647 12.1321 6.08381 12.2592 5.99007 12.353L4.43407 13.91C4.34031 14.0037 4.21316 14.0564 4.08057 14.0564C3.94799 14.0564 3.82084 14.0037 3.72707 13.91L2.17007 12.353C2.07634 12.2592 2.02368 12.1321 2.02368 11.9995C2.02368 11.8669 2.07634 11.7398 2.17007 11.646L3.72607 10.091C3.81984 9.99726 3.94699 9.9446 4.07958 9.9446C4.21216 9.9446 4.34031 9.99726 4.43407 10.091ZM12.2841 10.033L12.3541 10.091L13.9091 11.646C13.9919 11.7287 14.0431 11.8379 14.0537 11.9545C14.0643 12.0711 14.0336 12.1877 13.9671 12.284L13.9091 12.354L12.3541 13.909C12.2713 13.9918 12.1622 14.043 12.0456 14.0536C11.929 14.0642 11.8124 14.0335 11.7161 13.967L11.6461 13.909L10.0911 12.353C10.0085 12.2703 9.95749 12.1614 9.94689 12.045C9.9363 11.9286 9.96679 11.8122 10.0331 11.716L10.0911 11.646L11.6461 10.091C11.7182 10.0188 11.8108 9.97044 11.9112 9.95238C12.0117 9.93433 12.1153 9.94745 12.2081 9.99L12.2841 10.033ZM12.3541 2.171L18.1521 7.969C18.2458 8.06276 18.2985 8.18992 18.2985 8.3225C18.2985 8.45508 18.2458 8.58223 18.1521 8.676L16.5961 10.232C16.5023 10.3257 16.3752 10.3784 16.2426 10.3784C16.11 10.3784 15.9828 10.3257 15.8891 10.232L12.3541 6.697C12.3076 6.65043 12.2525 6.61349 12.1917 6.58829C12.131 6.56308 12.0658 6.5501 12.0001 6.5501C11.9343 6.5501 11.8692 6.56308 11.8084 6.58829C11.7477 6.61349 11.6925 6.65043 11.6461 6.697L8.11107 10.232C8.01731 10.3257 7.89016 10.3784 7.75758 10.3784C7.62499 10.3784 7.49784 10.3257 7.40407 10.232L5.84807 8.676C5.75434 8.58223 5.70168 8.45508 5.70168 8.3225C5.70168 8.18992 5.75434 8.06276 5.84807 7.969L11.6461 2.171C11.7398 2.07726 11.867 2.0246 11.9996 2.0246C12.1322 2.0246 12.2603 2.07726 12.3541 2.171Z" fill="currentColor"/>
</svg>
