<svg width="24" height="24" viewBox="0 0 24 24" fill="none" xmlns="http://www.w3.org/2000/svg">
<path fill-rule="evenodd" clip-rule="evenodd" d="M15.0001 2C15.9353 1.99991 16.8519 2.26215 17.6456 2.75693C18.4393 3.25171 19.0783 3.9592 19.4901 4.799L19.5841 5H21.0001C21.1695 4.99999 21.3361 5.04302 21.4843 5.12504C21.6325 5.20707 21.7575 5.3254 21.8474 5.46894C21.9374 5.61248 21.9894 5.77652 21.9986 5.94568C22.0078 6.11483 21.9739 6.28355 21.9001 6.436L21.8321 6.555L20.2801 8.882C20.161 9.06092 20.1028 9.27341 20.1141 9.488L20.1281 9.616L20.2691 10.39C21.2581 15.828 17.1611 20.841 11.6761 20.996L11.4141 21H3.00005C2.83065 21 2.66402 20.957 2.5158 20.875C2.36758 20.7929 2.24263 20.6746 2.15267 20.5311C2.0627 20.3875 2.01068 20.2235 2.00148 20.0543C1.99227 19.8852 2.02619 19.7165 2.10005 19.564L2.16805 19.445L9.61305 8.277C9.86541 7.89893 10.0001 7.45456 10.0001 7C10.0001 5.67392 10.5268 4.40215 11.4645 3.46447C12.4022 2.52678 13.674 2 15.0001 2ZM11.5001 11C11.2291 11 10.8371 11.07 10.4641 11.209C10.0891 11.349 9.88205 11.504 9.81005 11.587L6.42605 16.664C7.42405 16.377 8.49105 16.061 9.48905 15.67C10.5561 15.253 11.4671 14.778 12.0981 14.224C12.7101 13.687 13.0001 13.132 13.0001 12.5C13.0001 12.1022 12.842 11.7206 12.5607 11.4393C12.2794 11.158 11.8979 11 11.5001 11ZM15.0001 6C14.7348 6 14.4805 6.10536 14.2929 6.29289C14.1054 6.48043 14.0001 6.73478 14.0001 7C14.0001 7.26522 14.1054 7.51957 14.2929 7.70711C14.4805 7.89464 14.7348 8 15.0001 8C15.2653 8 15.5196 7.89464 15.7072 7.70711C15.8947 7.51957 16.0001 7.26522 16.0001 7C16.0001 6.73478 15.8947 6.48043 15.7072 6.29289C15.5196 6.10536 15.2653 6 15.0001 6Z" fill="currentColor"/>
</svg>
