<svg width="24" height="24" viewBox="0 0 24 24" fill="none" xmlns="http://www.w3.org/2000/svg">
<path fill-rule="evenodd" clip-rule="evenodd" d="M10.586 4C10.9399 3.64605 11.4137 3.43767 11.9137 3.41601C12.4138 3.39435 12.9038 3.56098 13.287 3.883L13.414 4L16.414 7H19C19.5046 6.99984 19.9906 7.19041 20.3605 7.5335C20.7305 7.87659 20.9572 8.34685 20.995 8.85L21 9V19C20.9999 19.5044 20.8092 19.9901 20.4662 20.3599C20.1231 20.7297 19.653 20.9562 19.15 20.994L19 21H5C4.49542 21.0002 4.00943 20.8096 3.63945 20.4665C3.26947 20.1234 3.04284 19.6532 3.005 19.15L3 19V9C2.99984 8.49542 3.19041 8.00943 3.5335 7.63945C3.87659 7.26947 4.34684 7.04284 4.85 7.005L5 7H7.586L10.586 4ZM10 15H8C7.73478 15 7.48043 15.1054 7.29289 15.2929C7.10536 15.4804 7 15.7348 7 16C7 16.2652 7.10536 16.5196 7.29289 16.7071C7.48043 16.8946 7.73478 17 8 17H10C10.2652 17 10.5196 16.8946 10.7071 16.7071C10.8946 16.5196 11 16.2652 11 16C11 15.7348 10.8946 15.4804 10.7071 15.2929C10.5196 15.1054 10.2652 15 10 15ZM14 11H8C7.74512 11.0003 7.49997 11.0979 7.31463 11.2728C7.1293 11.4478 7.01777 11.687 7.00283 11.9414C6.98789 12.1958 7.07067 12.4464 7.23426 12.6418C7.39786 12.8373 7.6299 12.9629 7.883 12.993L8 13H14C14.2549 12.9997 14.5 12.9021 14.6854 12.7272C14.8707 12.5522 14.9822 12.313 14.9972 12.0586C15.0121 11.8042 14.9293 11.5536 14.7657 11.3582C14.6021 11.1627 14.3701 11.0371 14.117 11.007L14 11ZM12 5.414L10.414 7H13.586L12 5.414Z" fill="currentColor"/>
</svg>
