<svg width="24" height="24" viewBox="0 0 24 24" fill="none" xmlns="http://www.w3.org/2000/svg">
<path d="M13.2865 2.69L13.4135 2.807L21.1915 10.586C21.5452 10.9399 21.7534 11.4134 21.7751 11.9133C21.7967 12.4131 21.6303 12.9029 21.3085 13.286L21.1915 13.414L13.4135 21.192C13.0597 21.5457 12.5861 21.7539 12.0863 21.7755C11.5865 21.7972 11.0967 21.6307 10.7135 21.309L10.5855 21.192L2.80754 13.414C2.4536 13.0601 2.24522 12.5863 2.22355 12.0863C2.20189 11.5862 2.36853 11.0962 2.69054 10.713L2.80754 10.586L10.5855 2.807C10.9189 2.4737 11.3592 2.26885 11.8289 2.2286C12.2986 2.18835 12.7674 2.31528 13.1525 2.587L13.2865 2.69ZM12.3855 7.755C12.1305 8.051 11.9705 8.313 11.9055 8.74C11.8425 9.167 11.9705 9.593 12.1295 9.79C12.2695 9.963 12.4585 10.06 12.6745 10.037L12.7685 10.02C12.8625 9.996 12.8535 10.047 12.7985 10.14L12.6875 10.307C12.5785 10.465 12.4435 10.663 12.3855 10.841C12.2575 11.234 12.4495 11.497 12.7055 11.497C12.7729 11.4958 12.8398 11.4857 12.9045 11.467L12.9885 11.44C13.0945 11.406 13.1655 11.383 13.1835 11.464C13.1905 11.494 13.1115 11.571 12.9865 11.67L12.8165 11.798L12.5135 12.011L12.4335 12.061L12.2395 12.165C11.9875 12.295 11.6975 12.445 11.6095 12.66C11.4765 12.99 11.6895 13.31 12.1815 13.552L12.3215 13.616L12.4545 13.664L12.4475 13.668L12.4025 13.688C12.3026 13.7444 12.2197 13.8266 12.1625 13.926C11.8655 14.383 12.1195 14.67 12.2855 14.762L12.3215 14.779C12.4495 14.832 12.3315 14.884 12.1295 14.801C11.9778 14.615 11.851 14.4099 11.7525 14.191L11.6925 14.057C11.6065 13.867 11.5375 13.715 11.4275 13.63C11.1715 13.433 10.9635 13.695 10.9475 13.86L10.9275 14.024C10.9105 14.207 10.9315 14.494 11.2355 14.976C11.6505 15.632 12.2965 16.044 12.8005 16.355C13.3045 16.665 13.7905 16.435 14.1105 16.059L14.5475 15.553L14.7855 15.265L15.0485 14.928C15.3645 14.508 15.7155 13.992 16.0425 13.385C16.5325 12.477 16.0785 12.1 15.4425 11.933L15.2355 11.887L15.0225 11.852L14.8085 11.827L14.3975 11.796C14.0705 11.776 13.6495 11.836 13.2345 11.934L13.5905 11.785L13.7785 11.698C13.8585 11.658 13.9185 11.623 13.9505 11.595C14.1735 11.398 14.2055 11.005 13.7905 10.808L13.5635 10.695L13.4095 10.61L13.1515 10.447C12.9915 10.348 12.9915 10.053 13.3435 9.889C13.4535 9.837 13.5895 9.813 13.7315 9.795L13.8765 9.779C14.1465 9.75 14.4225 9.721 14.5885 9.56C14.8745 9.284 14.9725 8.773 14.3975 8.51C14.1725 8.407 13.9275 8.4 13.7145 8.416L13.3215 8.458C13.2075 8.466 13.1415 8.453 13.1515 8.378L13.1705 8.283L13.1955 8.181C13.2455 7.985 13.3015 7.769 13.1835 7.624C13.0235 7.427 12.6405 7.46 12.3855 7.755ZM10.2455 10.381C10.0225 10.395 9.64554 10.677 9.28254 10.997L9.01454 11.239L8.36155 11.869L8.29754 11.924C8.26255 11.945 8.25054 11.931 8.24854 11.902L8.25654 11.746C8.25454 11.709 8.24154 11.684 8.20154 11.694C8.07454 11.727 7.78654 12.088 7.75454 12.318C7.72254 12.548 7.83454 12.803 8.17054 13.007C8.46854 13.188 8.74055 13.151 9.00055 12.956L9.14455 12.831L9.27954 12.707L9.38454 12.617L9.48854 12.538C9.63855 12.434 9.75154 12.412 9.67054 12.678C9.61285 12.8445 9.54092 13.0058 9.45554 13.16L9.29254 13.462L8.80454 14.338C8.64455 14.637 8.51054 14.912 8.45754 15.108C8.29754 15.698 9.06454 16.026 9.31954 15.665L9.47054 15.451L9.54754 15.349C9.66854 15.199 9.75055 15.166 9.76454 15.442L9.76654 15.534C9.76654 16.092 9.95855 16.519 10.3095 16.486C10.6605 16.453 10.7565 16.223 10.7895 15.928L10.8025 15.763L10.8255 15.235L10.8845 13.532C10.8965 13.214 10.9215 12.942 10.9515 12.706L10.9995 12.38L11.0725 11.978C11.1295 11.685 11.1685 11.478 11.1395 11.3C11.0765 10.906 10.7565 10.348 10.2455 10.381ZM13.5715 15.037L13.5035 15.107C13.1305 15.408 12.8905 15.481 12.5075 15.175C12.8575 15.189 13.1945 14.972 13.3595 14.842L13.4475 14.766C13.4875 14.727 13.5165 14.775 13.5375 14.859L13.5615 14.973L13.5715 15.037ZM13.1015 13.965C13.1775 14.086 13.0695 14.291 12.8595 14.422C12.6505 14.552 12.4195 14.56 12.3435 14.439C12.2675 14.318 12.3755 14.113 12.5855 13.982C12.7955 13.852 13.0255 13.844 13.1015 13.965ZM14.5565 12.875C15.0025 12.921 15.0295 13.118 14.9505 13.35L14.9025 13.469L14.8125 13.663C14.7205 13.86 14.4555 14.183 14.1605 14.49L14.0505 14.346C13.9165 14.174 13.8805 14.126 13.9025 14.039L13.9185 13.992C13.9722 13.8561 13.9886 13.7084 13.9661 13.5641C13.9436 13.4198 13.883 13.2841 13.7905 13.171C13.6695 13.015 13.5705 13.111 13.4875 13.251L13.4275 13.363L13.3425 13.533C13.3155 13.582 13.2915 13.613 13.2685 13.608L13.1735 13.589C12.9884 13.5561 12.7984 13.5619 12.6155 13.606C12.7075 13.57 12.7935 13.516 12.8765 13.456L13.0005 13.364C13.0995 13.288 13.1985 13.212 13.3055 13.157C13.6415 12.984 14.0035 12.819 14.5575 12.876L14.5565 12.875ZM9.61754 9.24L9.67154 9.265C9.93854 9.368 9.79655 9.657 9.58254 9.953L9.46055 10.114L9.19754 10.443C9.14639 10.5047 9.10213 10.5717 9.06554 10.643C9.15954 10.603 9.25954 10.543 9.37154 10.471L9.48655 10.396C9.77355 10.208 10.1365 9.97 10.6535 9.796L10.8855 9.725C11.8435 9.462 11.5245 8.149 10.1185 8.018C8.76454 7.891 9.13154 8.985 9.61754 9.24Z" fill="currentColor"/>
</svg>
