<svg width="24" height="24" viewBox="0 0 24 24" fill="none" xmlns="http://www.w3.org/2000/svg">
<path d="M10.0769 2.61399C10.4149 1.85399 11.4559 1.81699 11.8639 2.49999L11.9229 2.61399L12.9649 4.95899C13.8748 7.00591 15.3879 8.72626 17.3019 9.88999L17.6239 10.079L19.4739 11.119C19.621 11.2013 19.7451 11.3192 19.835 11.4618C19.9248 11.6043 19.9776 11.7672 19.9884 11.9354C19.9993 12.1036 19.9678 12.2718 19.897 12.4247C19.8262 12.5777 19.7182 12.7105 19.5829 12.811L19.4749 12.881L17.6239 13.921C15.6713 15.0193 14.1006 16.6877 13.1219 18.703L12.9649 19.041L11.9229 21.386C11.5849 22.146 10.5439 22.183 10.1359 21.5L10.0769 21.386L9.0349 19.041C8.12503 16.9941 6.61192 15.2737 4.6979 14.11L4.3759 13.921L2.5259 12.881C2.37883 12.7987 2.2547 12.6808 2.16483 12.5382C2.07496 12.3956 2.0222 12.2328 2.01137 12.0646C2.00053 11.8964 2.03196 11.7282 2.10279 11.5752C2.17363 11.4223 2.28161 11.2895 2.4169 11.189L2.5249 11.119L4.3759 10.079C6.32852 8.98064 7.89922 7.31226 8.8779 5.29699L9.0349 4.95899L10.0769 2.61399ZM19.2209 2.12099C19.7173 3.24859 20.5638 4.18625 21.6349 4.79499C21.7949 4.88499 21.7949 5.11499 21.6349 5.20499C20.5632 5.81383 19.7164 6.75187 19.2199 7.87999C19.2009 7.92246 19.17 7.95853 19.131 7.98383C19.092 8.00914 19.0464 8.0226 18.9999 8.0226C18.9534 8.0226 18.9079 8.00914 18.8688 7.98383C18.8298 7.95853 18.7989 7.92246 18.7799 7.87999C18.2833 6.75224 17.4364 5.81457 16.3649 5.20599C16.3287 5.18537 16.2987 5.15554 16.2778 5.11953C16.2568 5.08353 16.2458 5.04263 16.2458 5.00099C16.2458 4.95936 16.2568 4.91846 16.2778 4.88246C16.2987 4.84645 16.3287 4.81662 16.3649 4.79599C17.4367 4.1869 18.2836 3.24849 18.7799 2.11999C18.7989 2.07753 18.8298 2.04146 18.8688 2.01616C18.9079 1.99085 18.9534 1.97739 18.9999 1.97739C19.0464 1.97739 19.092 1.99085 19.131 2.01616C19.17 2.04146 19.2009 2.07753 19.2199 2.11999L19.2209 2.12099Z" fill="currentColor"/>
</svg>
