<svg width="24" height="24" viewBox="0 0 24 24" fill="none" xmlns="http://www.w3.org/2000/svg">
<path d="M14.8661 19.345C14.9987 19.5747 15.0346 19.8476 14.966 20.1038C14.8973 20.36 14.7297 20.5784 14.5001 20.711L13.2501 21.433C12.87 21.6524 12.4389 21.7679 12.0001 21.7679C11.5612 21.7679 11.1301 21.6524 10.7501 21.433L9.50005 20.71C9.27225 20.5764 9.10651 20.3582 9.03902 20.1029C8.97152 19.8476 9.00774 19.576 9.13978 19.3473C9.27182 19.1186 9.48895 18.9514 9.74379 18.8823C9.99863 18.8131 10.2705 18.8475 10.5001 18.978L11.7501 19.7C11.8261 19.7439 11.9123 19.767 12.0001 19.767C12.0878 19.767 12.174 19.7439 12.2501 19.7L13.5001 18.978C13.7297 18.8454 14.0027 18.8095 14.2589 18.8781C14.515 18.9467 14.7334 19.1153 14.8661 19.345ZM19.7941 11.119C20.0593 11.119 20.3136 11.2244 20.5012 11.4119C20.6887 11.5994 20.7941 11.8538 20.7941 12.119V15.634C20.794 16.0728 20.6785 16.5039 20.4591 16.884C20.2397 17.264 19.9241 17.5796 19.5441 17.799L16.5001 19.557C16.3863 19.6227 16.2607 19.6653 16.1304 19.6824C16.0001 19.6995 15.8678 19.6908 15.7409 19.6568C15.614 19.6227 15.4951 19.564 15.3909 19.484C15.2866 19.404 15.1992 19.3043 15.1336 19.1905C15.0679 19.0767 15.0253 18.9511 15.0082 18.8208C14.9911 18.6906 14.9998 18.5582 15.0338 18.4313C15.0678 18.3045 15.1265 18.1855 15.2065 18.0813C15.2865 17.9771 15.3863 17.8897 15.5001 17.824L18.5441 16.067C18.6201 16.0231 18.6832 15.96 18.7271 15.884C18.7709 15.808 18.7941 15.7218 18.7941 15.634V12.119C18.7941 11.8538 18.8994 11.5994 19.0869 11.4119C19.2745 11.2244 19.5288 11.119 19.7941 11.119ZM4.20605 11.119C4.47127 11.119 4.72563 11.2244 4.91316 11.4119C5.1007 11.5994 5.20605 11.8538 5.20605 12.119V15.634C5.20606 15.7218 5.22916 15.808 5.27305 15.884C5.31693 15.96 5.38005 16.0231 5.45605 16.067L8.50005 17.824C8.72786 17.9576 8.8936 18.1758 8.96109 18.4311C9.02859 18.6864 8.99237 18.958 8.86033 19.1867C8.72829 19.4154 8.51116 19.5826 8.25632 19.6517C8.00148 19.7209 7.72961 19.6865 7.50005 19.556L4.45605 17.8C4.07602 17.5806 3.76043 17.265 3.54101 16.885C3.32159 16.5049 3.20607 16.0738 3.20605 15.635V12.12C3.20605 11.8548 3.31141 11.6004 3.49895 11.4129C3.68648 11.2254 3.94084 11.119 4.20605 11.119ZM15.6251 7.465L15.7441 7.522L17.2571 8.38C17.3943 8.45793 17.5111 8.56723 17.5981 8.69897C17.685 8.83072 17.7394 8.98116 17.7571 9.138L17.7631 9.258L17.7501 10.998C17.7487 11.1522 17.7118 11.3041 17.642 11.4416C17.5723 11.5792 17.4717 11.6988 17.3481 11.791L17.2501 11.856L14.5001 13.444V16.62C14.5001 16.7744 14.4643 16.9267 14.3956 17.065C14.3269 17.2033 14.2271 17.3237 14.1041 17.417L14.0061 17.483L12.5061 18.363C12.3722 18.4415 12.222 18.4878 12.0671 18.4982C11.9123 18.5086 11.7572 18.4829 11.6141 18.423L11.4941 18.363L9.99406 17.483C9.86075 17.4048 9.74739 17.2967 9.66289 17.1672C9.57839 17.0378 9.52505 16.8905 9.50705 16.737L9.50005 16.62V13.443L6.75005 11.856C6.61631 11.7787 6.50229 11.6715 6.41693 11.5428C6.33156 11.414 6.27719 11.2673 6.25805 11.114L6.25005 10.997L6.23705 9.257C6.23603 9.09939 6.27227 8.94377 6.34283 8.80283C6.41338 8.66189 6.51626 8.53962 6.64305 8.446L6.74305 8.38L8.25705 7.522C8.38915 7.44697 8.53659 7.40303 8.68821 7.3935C8.83982 7.38397 8.99161 7.4091 9.13205 7.467L9.25005 7.526L12.0001 9.113L14.7501 7.526C14.8817 7.45001 15.0289 7.40502 15.1805 7.39445C15.3321 7.38388 15.4842 7.40801 15.6251 7.465ZM17.6291 13.27V14.673C17.629 14.8485 17.5828 15.021 17.4951 15.173C17.4073 15.325 17.2811 15.4512 17.1291 15.539L15.9141 16.24C15.8684 16.2663 15.8167 16.2802 15.764 16.2802C15.7113 16.2802 15.6596 16.2663 15.614 16.24C15.5684 16.2136 15.5305 16.1757 15.5042 16.1301C15.4779 16.0844 15.464 16.0327 15.4641 15.98V14.577C15.4641 14.4015 15.5103 14.229 15.598 14.077C15.6858 13.925 15.812 13.7988 15.9641 13.711L17.1791 13.01C17.2247 12.9837 17.2764 12.9698 17.3291 12.9698C17.3818 12.9698 17.4335 12.9837 17.4791 13.01C17.5247 13.0364 17.5626 13.0743 17.5889 13.1199C17.6153 13.1656 17.6291 13.2173 17.6291 13.27ZM6.75905 12.983L6.82105 13.01L8.03606 13.711C8.17086 13.7889 8.28562 13.8971 8.37121 14.0271C8.4568 14.1572 8.51085 14.3054 8.52906 14.46L8.53606 14.577V15.98C8.53613 16.0271 8.52514 16.0735 8.50397 16.1155C8.48279 16.1575 8.45203 16.194 8.41416 16.2219C8.3763 16.2499 8.33239 16.2685 8.28599 16.2763C8.23959 16.2842 8.19199 16.281 8.14706 16.267L8.08606 16.24L6.87105 15.539C6.73638 15.4612 6.62169 15.3531 6.53611 15.2233C6.45053 15.0934 6.39641 14.9454 6.37805 14.791L6.37105 14.673V13.27C6.3709 13.2283 6.37943 13.1871 6.3961 13.1489C6.41278 13.1107 6.43723 13.0763 6.46791 13.0481C6.49858 13.0199 6.5348 12.9984 6.57425 12.9849C6.6137 12.9715 6.65553 12.9664 6.69705 12.97L6.76006 12.983H6.75905ZM18.2491 5.453L19.5441 6.201C19.9241 6.42042 20.2397 6.736 20.4591 7.11604C20.6785 7.49607 20.794 7.92717 20.7941 8.366V9.809C20.7941 10.0742 20.6887 10.3286 20.5012 10.5161C20.3136 10.7036 20.0593 10.809 19.7941 10.809C19.5288 10.809 19.2745 10.7036 19.0869 10.5161C18.8994 10.3286 18.7941 10.0742 18.7941 9.809V8.366C18.7941 8.27823 18.7709 8.19201 18.7271 8.11601C18.6832 8.04 18.6201 7.97688 18.5441 7.933L17.2491 7.185C17.0212 7.05145 16.8555 6.83321 16.788 6.57792C16.7205 6.32262 16.7567 6.05099 16.8888 5.82231C17.0208 5.59362 17.2379 5.42644 17.4928 5.35725C17.7476 5.28806 18.0195 5.32248 18.2491 5.453ZM7.07205 5.845C7.20466 6.07468 7.24059 6.34763 7.17195 6.6038C7.10332 6.85997 6.93573 7.07839 6.70605 7.211L5.45605 7.933C5.38005 7.97688 5.31693 8.04 5.27305 8.11601C5.22916 8.19201 5.20606 8.27823 5.20605 8.366V9.809C5.20605 10.0742 5.1007 10.3286 4.91316 10.5161C4.72563 10.7036 4.47127 10.809 4.20605 10.809C3.94084 10.809 3.68648 10.7036 3.49895 10.5161C3.31141 10.3286 3.20605 10.0742 3.20605 9.809V8.366C3.20589 7.927 3.32133 7.4957 3.54076 7.11547C3.76019 6.73524 4.07587 6.4195 4.45605 6.2L5.70605 5.478C5.93573 5.3454 6.20868 5.30946 6.46485 5.3781C6.72103 5.44674 6.93944 5.61533 7.07205 5.845ZM12.5001 5.79L13.7151 6.491C13.7608 6.5173 13.7987 6.55519 13.8251 6.60083C13.8515 6.64648 13.8654 6.69827 13.8654 6.751C13.8654 6.80373 13.8515 6.85552 13.8251 6.90117C13.7987 6.94681 13.7608 6.98469 13.7151 7.011L12.5001 7.71C12.348 7.79777 12.1756 7.84397 12.0001 7.84397C11.8245 7.84397 11.6521 7.79777 11.5001 7.71L10.2851 7.009C10.2394 6.9827 10.2014 6.94481 10.175 6.89917C10.1486 6.85352 10.1347 6.80173 10.1347 6.749C10.1347 6.69627 10.1486 6.64448 10.175 6.59883C10.2014 6.55319 10.2394 6.5153 10.2851 6.489L11.5001 5.79C11.6521 5.70223 11.8245 5.65603 12.0001 5.65603C12.1756 5.65603 12.348 5.70223 12.5001 5.79ZM13.2501 2.568L16.2941 4.325C16.5239 4.45761 16.6916 4.67608 16.7603 4.93235C16.829 5.18861 16.7932 5.46169 16.6606 5.6915C16.5279 5.92131 16.3095 6.08903 16.0532 6.15776C15.7969 6.22649 15.5239 6.19061 15.2941 6.058L12.2501 4.299C12.174 4.25512 12.0878 4.23201 12.0001 4.23201C11.9123 4.23201 11.8261 4.25512 11.7501 4.299L8.70606 6.056C8.59228 6.1227 8.46644 6.16623 8.33578 6.1841C8.20512 6.20196 8.07221 6.19381 7.94471 6.1601C7.81721 6.12639 7.69764 6.06779 7.59288 5.98769C7.48811 5.90758 7.40023 5.80754 7.33429 5.69333C7.26835 5.57912 7.22565 5.45299 7.20865 5.32221C7.19165 5.19143 7.20069 5.05858 7.23524 4.93131C7.2698 4.80403 7.32919 4.68485 7.40999 4.58063C7.49079 4.4764 7.59141 4.38918 7.70605 4.324L10.7501 2.567C11.1301 2.34758 11.5612 2.23206 12.0001 2.23206C12.4389 2.23206 12.87 2.34758 13.2501 2.567V2.568Z" fill="currentColor"/>
</svg>
