<svg width="24" height="24" viewBox="0 0 24 24" fill="none" xmlns="http://www.w3.org/2000/svg">
<path d="M13 2.5C14.0471 2.49994 15.0724 2.79876 15.9554 3.36134C16.8385 3.92392 17.5427 4.72688 17.9851 5.67585C18.4276 6.62483 18.59 7.68038 18.4532 8.71846C18.3164 9.75655 17.8862 10.734 17.213 11.536C18.1423 12.2046 18.8397 13.1466 19.2081 14.2305C19.5765 15.3145 19.5975 16.4863 19.2681 17.5828C18.9388 18.6792 18.2755 19.6455 17.3707 20.347C16.466 21.0485 15.3649 21.4501 14.221 21.496L14 21.5H6.1C5.70098 21.4999 5.3164 21.3507 5.02169 21.0818C4.72698 20.8128 4.54341 20.4433 4.507 20.046L4.5 19.9V4.1C4.50008 3.70098 4.64925 3.3164 4.91825 3.02169C5.18724 2.72698 5.55665 2.54341 5.954 2.507L6.1 2.5H13ZM14 13.5H7.5V18.5H14C14.663 18.5 15.2989 18.2366 15.7678 17.7678C16.2366 17.2989 16.5 16.663 16.5 16C16.5 15.337 16.2366 14.7011 15.7678 14.2322C15.2989 13.7634 14.663 13.5 14 13.5ZM13 5.5H7.5V10.5H13C13.663 10.5 14.2989 10.2366 14.7678 9.76777C15.2366 9.29893 15.5 8.66304 15.5 8C15.5 7.33696 15.2366 6.70107 14.7678 6.23223C14.2989 5.76339 13.663 5.5 13 5.5Z" fill="currentColor"/>
</svg>
