<svg width="24" height="24" viewBox="0 0 24 24" fill="none" xmlns="http://www.w3.org/2000/svg">
<path d="M16.7498 1.272C17.015 1.272 17.2694 1.37736 17.4569 1.5649C17.6445 1.75243 17.7498 2.00679 17.7498 2.272V3.272C17.7498 3.53722 17.6445 3.79157 17.4569 3.97911C17.2694 4.16665 17.015 4.272 16.7498 4.272C16.4846 4.272 16.2302 4.16665 16.0427 3.97911C15.8552 3.79157 15.7498 3.53722 15.7498 3.272V2.272C15.7498 2.00679 15.8552 1.75243 16.0427 1.5649C16.2302 1.37736 16.4846 1.272 16.7498 1.272ZM12.8528 3.522C12.9854 3.29233 13.2038 3.12474 13.46 3.0561C13.7162 2.98747 13.9891 3.0234 14.2188 3.156L15.0848 3.656C15.3126 3.78955 15.4783 4.00779 15.5458 4.26308C15.6133 4.51838 15.5771 4.79001 15.4451 5.0187C15.313 5.24739 15.0959 5.41456 14.8411 5.48375C14.5862 5.55294 14.3144 5.51852 14.0848 5.388L13.2188 4.888C12.9891 4.75539 12.8215 4.53698 12.7529 4.2808C12.6843 4.02463 12.7202 3.75168 12.8528 3.522ZM20.2808 4.888C20.3955 4.82282 20.4961 4.73561 20.5769 4.63138C20.6577 4.52715 20.7171 4.40797 20.7516 4.2807C20.7862 4.15342 20.7952 4.02057 20.7782 3.88979C20.7612 3.75901 20.7185 3.63289 20.6526 3.51868C20.5866 3.40446 20.4987 3.30443 20.394 3.22432C20.2892 3.14421 20.1697 3.08561 20.0422 3.0519C19.9147 3.0182 19.7817 3.01004 19.6511 3.02791C19.5204 3.04577 19.3946 3.08931 19.2808 3.156L18.4148 3.656C18.3002 3.72119 18.1995 3.8084 18.1187 3.91263C18.0379 4.01686 17.9786 4.13604 17.944 4.26331C17.9094 4.39058 17.9004 4.52343 17.9174 4.65421C17.9344 4.78499 17.9771 4.91112 18.043 5.02533C18.109 5.13954 18.1969 5.23958 18.3016 5.31969C18.4064 5.3998 18.526 5.45839 18.6535 5.4921C18.781 5.52581 18.9139 5.53397 19.0445 5.5161C19.1752 5.49824 19.301 5.4547 19.4148 5.388L20.2808 4.888ZM15.4098 6.096C15.5381 5.87657 15.745 5.71421 15.9887 5.64191C16.2324 5.56961 16.4944 5.5928 16.7216 5.70677C16.9488 5.82074 17.124 6.01693 17.2117 6.25548C17.2994 6.49402 17.293 6.75701 17.1938 6.991L17.1418 7.096L16.8668 7.572L17.7328 8.072C17.8957 8.16609 18.0287 8.3042 18.1166 8.47047C18.2045 8.63674 18.2437 8.82444 18.2298 9.012L18.2128 9.138L18.0918 9.728C19.9658 12.154 20.3658 15.511 18.7678 18.278C16.6258 21.988 11.7878 23.115 8.00081 20.928C4.21281 18.741 2.76981 13.988 4.91181 10.278C6.46181 7.594 9.42981 6.26 12.3778 6.557L12.6548 6.589L13.1048 6.189C13.2457 6.06409 13.419 5.98149 13.6047 5.95071C13.7905 5.91993 13.9812 5.94221 14.1548 6.015L14.2688 6.072L15.1348 6.572L15.4098 6.096ZM11.5018 9.53C10.8061 9.53006 10.1227 9.71326 9.52025 10.0612C8.91781 10.4091 8.41757 10.9095 8.06981 11.512C7.94123 11.733 7.90217 11.9948 7.96066 12.2437C8.01915 12.4926 8.17075 12.7096 8.3843 12.8502C8.59785 12.9908 8.85714 13.0442 9.10887 12.9995C9.3606 12.9549 9.58567 12.8155 9.73781 12.61L9.80181 12.512C10.1368 11.932 10.7238 11.586 11.3478 11.536L11.5038 11.53C11.769 11.5297 12.0233 11.4241 12.2106 11.2364C12.398 11.0487 12.5031 10.7942 12.5028 10.529C12.5025 10.2638 12.3969 10.0095 12.2092 9.82219C12.0215 9.63484 11.767 9.52974 11.5018 9.53ZM19.4148 6.155L20.2808 6.655C20.3955 6.72019 20.4961 6.8074 20.5769 6.91163C20.6577 7.01586 20.7171 7.13504 20.7516 7.26231C20.7862 7.38958 20.7952 7.52243 20.7782 7.65321C20.7612 7.78399 20.7185 7.91012 20.6526 8.02433C20.5866 8.13854 20.4987 8.23858 20.394 8.31869C20.2892 8.3988 20.1697 8.45739 20.0422 8.4911C19.9147 8.52481 19.7817 8.53297 19.6511 8.5151C19.5204 8.49724 19.3946 8.4537 19.2808 8.387L18.4148 7.887C18.3002 7.82182 18.1995 7.73461 18.1187 7.63038C18.0379 7.52615 17.9786 7.40697 17.944 7.2797C17.9094 7.15242 17.9004 7.01957 17.9174 6.88879C17.9344 6.75801 17.9771 6.63189 18.043 6.51768C18.109 6.40347 18.1969 6.30343 18.3016 6.22332C18.4064 6.14321 18.526 6.08461 18.6535 6.0509C18.781 6.0172 18.9139 6.00904 19.0445 6.02691C19.1752 6.04477 19.301 6.08831 19.4148 6.155Z" fill="currentColor"/>
</svg>
