<svg width="24" height="24" viewBox="0 0 24 24" fill="none" xmlns="http://www.w3.org/2000/svg">
<path fill-rule="evenodd" clip-rule="evenodd" d="M17.6573 3.515C18.1723 4.03 18.5173 4.651 18.6933 5.308C19.2443 5.45626 19.7573 5.72069 20.1976 6.08354C20.638 6.44638 20.9957 6.89925 21.2466 7.41173C21.4975 7.92421 21.6358 8.48444 21.6523 9.0548C21.6689 9.62516 21.5632 10.1925 21.3424 10.7186C21.1215 11.2447 20.7907 11.7176 20.3721 12.1053C19.9534 12.493 19.4567 12.7867 18.9152 12.9666C18.3737 13.1465 17.8 13.2085 17.2325 13.1483C16.6651 13.0882 16.1171 12.9074 15.6253 12.618L12.6183 15.625C12.9103 16.117 13.0934 16.6659 13.1552 17.2347C13.217 17.8034 13.1562 18.3789 12.9768 18.9221C12.7974 19.4654 12.5036 19.9639 12.1153 20.384C11.7269 20.8041 11.253 21.136 10.7254 21.3574C10.1979 21.5788 9.629 21.6846 9.05713 21.6675C8.48527 21.6504 7.92372 21.5109 7.41034 21.2584C6.89696 21.0059 6.44369 20.6462 6.08109 20.2037C5.71848 19.7611 5.45498 19.246 5.30834 18.693C4.75734 18.5447 4.24443 18.2803 3.80405 17.9175C3.36368 17.5546 3.00603 17.1017 2.75512 16.5893C2.50421 16.0768 2.36586 15.5166 2.34933 14.9462C2.33281 14.3758 2.43851 13.8085 2.65933 13.2824C2.88015 12.7563 3.21099 12.2834 3.62962 11.8957C4.04825 11.508 4.545 11.2143 5.0865 11.0344C5.628 10.8545 6.20172 10.7925 6.76915 10.8526C7.33657 10.9128 7.88457 11.0936 8.37634 11.383L11.3823 8.375C10.8915 7.53621 10.7226 6.54746 10.9073 5.59329C11.0919 4.63913 11.6175 3.78477 12.3858 3.18967C13.1542 2.59457 14.1129 2.29941 15.0829 2.35927C16.0529 2.41914 16.968 2.82994 17.6573 3.515Z" fill="currentColor"/>
</svg>
