<svg width="24" height="24" viewBox="0 0 24 24" fill="none" xmlns="http://www.w3.org/2000/svg">
<path d="M10.2681 20.158C10.6311 20.325 10.9231 20.492 11.1211 20.615C11.4061 20.792 11.6451 21 12.0011 21C12.3491 21 12.5961 20.79 12.8791 20.615C13.0771 20.492 13.3691 20.325 13.7321 20.158C14.4651 19.819 15.4431 19.5 16.5001 19.5C17.7791 19.5 18.9381 19.968 19.6801 20.362C19.9143 20.4846 20.1753 20.547 20.4396 20.5435C20.7039 20.54 20.9632 20.4708 21.1941 20.342C21.6211 20.106 22.0001 19.632 22.0001 19V6.5C22.0001 5.879 21.7051 5.237 21.1021 4.871C20.3281 4.401 18.5861 3.5 16.5001 3.5C15.0571 3.5 13.7851 3.93 12.8931 4.342C12.5391 4.506 12.2371 4.67 12.0001 4.81C11.7631 4.67 11.4611 4.506 11.1071 4.342C10.2151 3.931 8.94309 3.5 7.50009 3.5C5.41409 3.5 3.67209 4.4 2.89809 4.871C2.62085 5.04227 2.39253 5.28221 2.23521 5.56759C2.07788 5.85298 1.9969 6.17414 2.00009 6.5V19C2.00009 19.633 2.37909 20.106 2.80609 20.342C3.22909 20.575 3.80209 20.637 4.32109 20.362C5.06209 19.968 6.22109 19.5 7.50009 19.5C8.55709 19.5 9.53509 19.82 10.2681 20.158Z" fill="currentColor"/>
</svg>
