<svg width="24" height="24" viewBox="0 0 24 24" fill="none" xmlns="http://www.w3.org/2000/svg">
<path fill-rule="evenodd" clip-rule="evenodd" d="M10 2C9.20435 2 8.44129 2.31607 7.87868 2.87868C7.31607 3.44129 7 4.20435 7 5C6.20435 5 5.44129 5.31607 4.87868 5.87868C4.31607 6.44129 4 7.20435 4 8V21.018C4 22.244 5.39 22.952 6.382 22.231L10.5 19.236L14.618 22.231C15.609 22.952 17 22.244 17 21.018V18.782L17.618 19.232C18.609 19.952 20 19.244 20 18.018V5C20 4.20435 19.6839 3.44129 19.1213 2.87868C18.5587 2.31607 17.7956 2 17 2H10ZM17 16.309L18 17.036V5C18 4.73478 17.8946 4.48043 17.7071 4.29289C17.5196 4.10536 17.2652 4 17 4H10C9.73478 4 9.48043 4.10536 9.29289 4.29289C9.10536 4.48043 9 4.73478 9 5H14C14.7956 5 15.5587 5.31607 16.1213 5.87868C16.6839 6.44129 17 7.20435 17 8V16.309Z" fill="currentColor"/>
</svg>
