<svg width="24" height="24" viewBox="0 0 24 24" fill="none" xmlns="http://www.w3.org/2000/svg">
<path fill-rule="evenodd" clip-rule="evenodd" d="M7.654 2.703C7.86033 2.62986 8.08497 2.62644 8.29343 2.69328C8.50189 2.76012 8.68266 2.89351 8.808 3.073C9.22225 3.66826 9.7744 4.15443 10.4173 4.48999C11.0602 4.82555 11.7748 5.00053 12.5 5C13.608 5 14.62 4.601 15.403 3.939C15.5395 3.82353 15.7045 3.74678 15.8808 3.71674C16.057 3.6867 16.2381 3.70446 16.4052 3.76818C16.5722 3.8319 16.7191 3.93924 16.8306 4.07903C16.9421 4.21883 17.0141 4.38595 17.039 4.563C17.1748 5.51679 17.6502 6.38955 18.3779 7.02095C19.1055 7.65235 20.0366 7.99999 21 8C21.1857 8 21.3678 8.05171 21.5257 8.14935C21.6837 8.24698 21.8114 8.38668 21.8944 8.55279C21.9775 8.71889 22.0126 8.90484 21.996 9.0898C21.9793 9.27477 21.9114 9.45143 21.8 9.6C21.2793 10.2916 20.9984 11.1343 21 12C21 12.902 21.297 13.731 21.8 14.4C21.9114 14.5486 21.9793 14.7252 21.996 14.9102C22.0126 15.0952 21.9775 15.2811 21.8944 15.4472C21.8114 15.6133 21.6837 15.753 21.5257 15.8506C21.3678 15.9483 21.1857 16 21 16C20.024 16 19.0816 16.3568 18.3504 17.0033C17.6192 17.6498 17.1496 18.5413 17.03 19.51C17.0056 19.7117 16.9203 19.9011 16.7856 20.0531C16.6508 20.2052 16.4729 20.3125 16.2756 20.3609C16.0783 20.4094 15.871 20.3966 15.6812 20.3242C15.4913 20.2519 15.328 20.1234 15.213 19.956C14.8 19.3525 14.2459 18.8588 13.5988 18.518C12.9518 18.1771 12.2313 17.9993 11.5 18C10.3648 17.9979 9.27113 18.4268 8.44 19.2C8.31669 19.3141 8.16662 19.3953 8.00364 19.4362C7.84065 19.477 7.67001 19.476 7.50748 19.4335C7.34494 19.3909 7.19574 19.3081 7.07366 19.1927C6.95159 19.0772 6.86056 18.9329 6.809 18.773C6.54902 17.9673 6.04024 17.2648 5.35581 16.7666C4.67139 16.2683 3.84659 15.9999 3 16C2.81429 16 2.63225 15.9483 2.47427 15.8506C2.31629 15.753 2.18863 15.6133 2.10557 15.4472C2.02252 15.2811 1.98736 15.0952 2.00404 14.9102C2.02072 14.7252 2.08857 14.5486 2.2 14.4C2.703 13.731 3 12.902 3 12C3 11.098 2.703 10.27 2.2 9.6C2.08857 9.45143 2.02072 9.27477 2.00404 9.0898C1.98736 8.90484 2.02252 8.71889 2.10557 8.55279C2.18863 8.38668 2.31629 8.24698 2.47427 8.14935C2.63225 8.05171 2.81429 8 3 8C3.54931 8.00002 4.09274 7.8869 4.59642 7.66769C5.1001 7.44848 5.55323 7.12788 5.92757 6.72586C6.3019 6.32385 6.58943 5.84904 6.77222 5.33103C6.955 4.81302 7.02914 4.26292 6.99 3.715C6.97485 3.49693 7.03158 3.2799 7.1515 3.09713C7.27142 2.91436 7.44793 2.77592 7.654 2.703Z" fill="currentColor"/>
</svg>
