<svg width="24" height="24" viewBox="0 0 24 24" fill="none" xmlns="http://www.w3.org/2000/svg">
<path fill-rule="evenodd" clip-rule="evenodd" d="M2.5 4C2.5 3.60218 2.65804 3.22064 2.93934 2.93934C3.22064 2.65804 3.60218 2.5 4 2.5C4.39782 2.5 4.77936 2.65804 5.06066 2.93934C5.34196 3.22064 5.5 3.60218 5.5 4C5.5 4.39782 5.34196 4.77936 5.06066 5.06066C4.77936 5.34196 4.39782 5.5 4 5.5C3.60218 5.5 3.22064 5.34196 2.93934 5.06066C2.65804 4.77936 2.5 4.39782 2.5 4ZM6.5 4C6.5 3.60218 6.65804 3.22064 6.93934 2.93934C7.22064 2.65804 7.60218 2.5 8 2.5C8.39782 2.5 8.77936 2.65804 9.06066 2.93934C9.34196 3.22064 9.5 3.60218 9.5 4C9.5 4.39782 9.34196 4.77936 9.06066 5.06066C8.77936 5.34196 8.39782 5.5 8 5.5C7.60218 5.5 7.22064 5.34196 6.93934 5.06066C6.65804 4.77936 6.5 4.39782 6.5 4ZM10.5 4C10.5 3.60218 10.658 3.22064 10.9393 2.93934C11.2206 2.65804 11.6022 2.5 12 2.5C12.3978 2.5 12.7794 2.65804 13.0607 2.93934C13.342 3.22064 13.5 3.60218 13.5 4C13.5 4.39782 13.342 4.77936 13.0607 5.06066C12.7794 5.34196 12.3978 5.5 12 5.5C11.6022 5.5 11.2206 5.34196 10.9393 5.06066C10.658 4.77936 10.5 4.39782 10.5 4ZM14.5 4C14.5 3.60218 14.658 3.22064 14.9393 2.93934C15.2206 2.65804 15.6022 2.5 16 2.5C16.3978 2.5 16.7794 2.65804 17.0607 2.93934C17.342 3.22064 17.5 3.60218 17.5 4C17.5 4.39782 17.342 4.77936 17.0607 5.06066C16.7794 5.34196 16.3978 5.5 16 5.5C15.6022 5.5 15.2206 5.34196 14.9393 5.06066C14.658 4.77936 14.5 4.39782 14.5 4ZM18.5 4C18.5 3.60218 18.658 3.22064 18.9393 2.93934C19.2206 2.65804 19.6022 2.5 20 2.5C20.3978 2.5 20.7794 2.65804 21.0607 2.93934C21.342 3.22064 21.5 3.60218 21.5 4C21.5 4.39782 21.342 4.77936 21.0607 5.06066C20.7794 5.34196 20.3978 5.5 20 5.5C19.6022 5.5 19.2206 5.34196 18.9393 5.06066C18.658 4.77936 18.5 4.39782 18.5 4ZM2.5 8C2.5 7.60218 2.65804 7.22064 2.93934 6.93934C3.22064 6.65804 3.60218 6.5 4 6.5C4.39782 6.5 4.77936 6.65804 5.06066 6.93934C5.34196 7.22064 5.5 7.60218 5.5 8C5.5 8.39782 5.34196 8.77936 5.06066 9.06066C4.77936 9.34196 4.39782 9.5 4 9.5C3.60218 9.5 3.22064 9.34196 2.93934 9.06066C2.65804 8.77936 2.5 8.39782 2.5 8ZM10.5 8C10.5 7.60218 10.658 7.22064 10.9393 6.93934C11.2206 6.65804 11.6022 6.5 12 6.5C12.3978 6.5 12.7794 6.65804 13.0607 6.93934C13.342 7.22064 13.5 7.60218 13.5 8C13.5 8.39782 13.342 8.77936 13.0607 9.06066C12.7794 9.34196 12.3978 9.5 12 9.5C11.6022 9.5 11.2206 9.34196 10.9393 9.06066C10.658 8.77936 10.5 8.39782 10.5 8ZM18.5 8C18.5 7.60218 18.658 7.22064 18.9393 6.93934C19.2206 6.65804 19.6022 6.5 20 6.5C20.3978 6.5 20.7794 6.65804 21.0607 6.93934C21.342 7.22064 21.5 7.60218 21.5 8C21.5 8.39782 21.342 8.77936 21.0607 9.06066C20.7794 9.34196 20.3978 9.5 20 9.5C19.6022 9.5 19.2206 9.34196 18.9393 9.06066C18.658 8.77936 18.5 8.39782 18.5 8ZM2.5 12C2.5 11.6022 2.65804 11.2206 2.93934 10.9393C3.22064 10.658 3.60218 10.5 4 10.5C4.39782 10.5 4.77936 10.658 5.06066 10.9393C5.34196 11.2206 5.5 11.6022 5.5 12C5.5 12.3978 5.34196 12.7794 5.06066 13.0607C4.77936 13.342 4.39782 13.5 4 13.5C3.60218 13.5 3.22064 13.342 2.93934 13.0607C2.65804 12.7794 2.5 12.3978 2.5 12ZM6.5 12C6.5 11.6022 6.65804 11.2206 6.93934 10.9393C7.22064 10.658 7.60218 10.5 8 10.5C8.39782 10.5 8.77936 10.658 9.06066 10.9393C9.34196 11.2206 9.5 11.6022 9.5 12C9.5 12.3978 9.34196 12.7794 9.06066 13.0607C8.77936 13.342 8.39782 13.5 8 13.5C7.60218 13.5 7.22064 13.342 6.93934 13.0607C6.65804 12.7794 6.5 12.3978 6.5 12ZM10.5 12C10.5 11.6022 10.658 11.2206 10.9393 10.9393C11.2206 10.658 11.6022 10.5 12 10.5C12.3978 10.5 12.7794 10.658 13.0607 10.9393C13.342 11.2206 13.5 11.6022 13.5 12C13.5 12.3978 13.342 12.7794 13.0607 13.0607C12.7794 13.342 12.3978 13.5 12 13.5C11.6022 13.5 11.2206 13.342 10.9393 13.0607C10.658 12.7794 10.5 12.3978 10.5 12ZM14.5 12C14.5 11.6022 14.658 11.2206 14.9393 10.9393C15.2206 10.658 15.6022 10.5 16 10.5C16.3978 10.5 16.7794 10.658 17.0607 10.9393C17.342 11.2206 17.5 11.6022 17.5 12C17.5 12.3978 17.342 12.7794 17.0607 13.0607C16.7794 13.342 16.3978 13.5 16 13.5C15.6022 13.5 15.2206 13.342 14.9393 13.0607C14.658 12.7794 14.5 12.3978 14.5 12ZM18.5 12C18.5 11.6022 18.658 11.2206 18.9393 10.9393C19.2206 10.658 19.6022 10.5 20 10.5C20.3978 10.5 20.7794 10.658 21.0607 10.9393C21.342 11.2206 21.5 11.6022 21.5 12C21.5 12.3978 21.342 12.7794 21.0607 13.0607C20.7794 13.342 20.3978 13.5 20 13.5C19.6022 13.5 19.2206 13.342 18.9393 13.0607C18.658 12.7794 18.5 12.3978 18.5 12ZM2.5 16C2.5 15.6022 2.65804 15.2206 2.93934 14.9393C3.22064 14.658 3.60218 14.5 4 14.5C4.39782 14.5 4.77936 14.658 5.06066 14.9393C5.34196 15.2206 5.5 15.6022 5.5 16C5.5 16.3978 5.34196 16.7794 5.06066 17.0607C4.77936 17.342 4.39782 17.5 4 17.5C3.60218 17.5 3.22064 17.342 2.93934 17.0607C2.65804 16.7794 2.5 16.3978 2.5 16ZM10.5 16C10.5 15.6022 10.658 15.2206 10.9393 14.9393C11.2206 14.658 11.6022 14.5 12 14.5C12.3978 14.5 12.7794 14.658 13.0607 14.9393C13.342 15.2206 13.5 15.6022 13.5 16C13.5 16.3978 13.342 16.7794 13.0607 17.0607C12.7794 17.342 12.3978 17.5 12 17.5C11.6022 17.5 11.2206 17.342 10.9393 17.0607C10.658 16.7794 10.5 16.3978 10.5 16ZM18.5 16C18.5 15.6022 18.658 15.2206 18.9393 14.9393C19.2206 14.658 19.6022 14.5 20 14.5C20.3978 14.5 20.7794 14.658 21.0607 14.9393C21.342 15.2206 21.5 15.6022 21.5 16C21.5 16.3978 21.342 16.7794 21.0607 17.0607C20.7794 17.342 20.3978 17.5 20 17.5C19.6022 17.5 19.2206 17.342 18.9393 17.0607C18.658 16.7794 18.5 16.3978 18.5 16ZM2.5 20C2.5 19.6022 2.65804 19.2206 2.93934 18.9393C3.22064 18.658 3.60218 18.5 4 18.5C4.39782 18.5 4.77936 18.658 5.06066 18.9393C5.34196 19.2206 5.5 19.6022 5.5 20C5.5 20.3978 5.34196 20.7794 5.06066 21.0607C4.77936 21.342 4.39782 21.5 4 21.5C3.60218 21.5 3.22064 21.342 2.93934 21.0607C2.65804 20.7794 2.5 20.3978 2.5 20ZM6.5 20C6.5 19.6022 6.65804 19.2206 6.93934 18.9393C7.22064 18.658 7.60218 18.5 8 18.5C8.39782 18.5 8.77936 18.658 9.06066 18.9393C9.34196 19.2206 9.5 19.6022 9.5 20C9.5 20.3978 9.34196 20.7794 9.06066 21.0607C8.77936 21.342 8.39782 21.5 8 21.5C7.60218 21.5 7.22064 21.342 6.93934 21.0607C6.65804 20.7794 6.5 20.3978 6.5 20ZM10.5 20C10.5 19.6022 10.658 19.2206 10.9393 18.9393C11.2206 18.658 11.6022 18.5 12 18.5C12.3978 18.5 12.7794 18.658 13.0607 18.9393C13.342 19.2206 13.5 19.6022 13.5 20C13.5 20.3978 13.342 20.7794 13.0607 21.0607C12.7794 21.342 12.3978 21.5 12 21.5C11.6022 21.5 11.2206 21.342 10.9393 21.0607C10.658 20.7794 10.5 20.3978 10.5 20ZM14.5 20C14.5 19.6022 14.658 19.2206 14.9393 18.9393C15.2206 18.658 15.6022 18.5 16 18.5C16.3978 18.5 16.7794 18.658 17.0607 18.9393C17.342 19.2206 17.5 19.6022 17.5 20C17.5 20.3978 17.342 20.7794 17.0607 21.0607C16.7794 21.342 16.3978 21.5 16 21.5C15.6022 21.5 15.2206 21.342 14.9393 21.0607C14.658 20.7794 14.5 20.3978 14.5 20ZM18.5 20C18.5 19.6022 18.658 19.2206 18.9393 18.9393C19.2206 18.658 19.6022 18.5 20 18.5C20.3978 18.5 20.7794 18.658 21.0607 18.9393C21.342 19.2206 21.5 19.6022 21.5 20C21.5 20.3978 21.342 20.7794 21.0607 21.0607C20.7794 21.342 20.3978 21.5 20 21.5C19.6022 21.5 19.2206 21.342 18.9393 21.0607C18.658 20.7794 18.5 20.3978 18.5 20Z" fill="currentColor"/>
</svg>
