<svg width="24" height="24" viewBox="0 0 24 24" fill="none" xmlns="http://www.w3.org/2000/svg">
<path fill-rule="evenodd" clip-rule="evenodd" d="M5 2.5C4.33696 2.5 3.70107 2.76339 3.23223 3.23223C2.76339 3.70107 2.5 4.33696 2.5 5V19C2.5 19.663 2.76339 20.2989 3.23223 20.7678C3.70107 21.2366 4.33696 21.5 5 21.5H19C19.663 21.5 20.2989 21.2366 20.7678 20.7678C21.2366 20.2989 21.5 19.663 21.5 19V5C21.5 4.33696 21.2366 3.70107 20.7678 3.23223C20.2989 2.76339 19.663 2.5 19 2.5H5ZM5.5 18.5V5.5H18.5V18.5H5.5ZM12 6.5C11.6022 6.5 11.2206 6.65804 10.9393 6.93934C10.658 7.22064 10.5 7.60218 10.5 8C10.5 8.39782 10.658 8.77936 10.9393 9.06066C11.2206 9.34196 11.6022 9.5 12 9.5C12.3978 9.5 12.7794 9.34196 13.0607 9.06066C13.342 8.77936 13.5 8.39782 13.5 8C13.5 7.60218 13.342 7.22064 13.0607 6.93934C12.7794 6.65804 12.3978 6.5 12 6.5ZM8 10.5C7.60218 10.5 7.22064 10.658 6.93934 10.9393C6.65804 11.2206 6.5 11.6022 6.5 12C6.5 12.3978 6.65804 12.7794 6.93934 13.0607C7.22064 13.342 7.60218 13.5 8 13.5C8.39782 13.5 8.77936 13.342 9.06066 13.0607C9.34196 12.7794 9.5 12.3978 9.5 12C9.5 11.6022 9.34196 11.2206 9.06066 10.9393C8.77936 10.658 8.39782 10.5 8 10.5ZM12 10.5C11.6022 10.5 11.2206 10.658 10.9393 10.9393C10.658 11.2206 10.5 11.6022 10.5 12C10.5 12.3978 10.658 12.7794 10.9393 13.0607C11.2206 13.342 11.6022 13.5 12 13.5C12.3978 13.5 12.7794 13.342 13.0607 13.0607C13.342 12.7794 13.5 12.3978 13.5 12C13.5 11.6022 13.342 11.2206 13.0607 10.9393C12.7794 10.658 12.3978 10.5 12 10.5ZM16 10.5C15.6022 10.5 15.2206 10.658 14.9393 10.9393C14.658 11.2206 14.5 11.6022 14.5 12C14.5 12.3978 14.658 12.7794 14.9393 13.0607C15.2206 13.342 15.6022 13.5 16 13.5C16.3978 13.5 16.7794 13.342 17.0607 13.0607C17.342 12.7794 17.5 12.3978 17.5 12C17.5 11.6022 17.342 11.2206 17.0607 10.9393C16.7794 10.658 16.3978 10.5 16 10.5ZM12 14.5C11.6022 14.5 11.2206 14.658 10.9393 14.9393C10.658 15.2206 10.5 15.6022 10.5 16C10.5 16.3978 10.658 16.7794 10.9393 17.0607C11.2206 17.342 11.6022 17.5 12 17.5C12.3978 17.5 12.7794 17.342 13.0607 17.0607C13.342 16.7794 13.5 16.3978 13.5 16C13.5 15.6022 13.342 15.2206 13.0607 14.9393C12.7794 14.658 12.3978 14.5 12 14.5Z" fill="currentColor"/>
</svg>
