<svg width="24" height="24" viewBox="0 0 24 24" fill="none" xmlns="http://www.w3.org/2000/svg">
<path fill-rule="evenodd" clip-rule="evenodd" d="M9 2C8.46957 2 7.96086 2.21071 7.58579 2.58579C7.21071 2.96086 7 3.46957 7 4V5C7 5.378 7.105 5.732 7.288 6.034L5.6 7.3C5.10322 7.67259 4.7 8.15572 4.42229 8.71115C4.14458 9.26657 4 9.87902 4 10.5V18C4 19.0609 4.42143 20.0783 5.17157 20.8284C5.92172 21.5786 6.93913 22 8 22H16C17.0609 22 18.0783 21.5786 18.8284 20.8284C19.5786 20.0783 20 19.0609 20 18V10.5C20 9.87902 19.8554 9.26657 19.5777 8.71115C19.3 8.15572 18.8968 7.67259 18.4 7.3L16.712 6.034C16.9009 5.72222 17.0005 5.36454 17 5V4C17 3.46957 16.7893 2.96086 16.4142 2.58579C16.0391 2.21071 15.5304 2 15 2H9ZM15 5V4H9V5H15ZM18 13H6V11H18V13ZM6 15H18V17H6V15Z" fill="currentColor"/>
</svg>
