<svg width="24" height="24" viewBox="0 0 24 24" fill="none" xmlns="http://www.w3.org/2000/svg">
<path fill-rule="evenodd" clip-rule="evenodd" d="M7 2C6.74907 1.99989 6.50728 2.09411 6.32259 2.26398C6.1379 2.43385 6.02383 2.66694 6.003 2.917L5.575 8.059C5.56371 8.19453 5.5249 8.32633 5.46094 8.44634C5.39698 8.56636 5.30921 8.67206 5.203 8.757L3.751 9.919C3.51681 10.1063 3.32772 10.3438 3.19773 10.614C3.06773 10.8842 3.00016 11.1802 3 11.48V20C3 20.5304 3.21071 21.0391 3.58579 21.4142C3.96086 21.7893 4.46957 22 5 22H11C11.5304 22 12.0391 21.7893 12.4142 21.4142C12.7893 21.0391 13 20.5304 13 20V11.48C13 11.1802 12.9325 10.8843 12.8027 10.6141C12.6729 10.3439 12.484 10.1064 12.25 9.919L10.797 8.757C10.6908 8.67206 10.603 8.56636 10.5391 8.44634C10.4751 8.32633 10.4363 8.19453 10.425 8.059L9.997 2.917C9.97617 2.66694 9.8621 2.43385 9.67741 2.26398C9.49272 2.09411 9.25093 1.99989 9 2H7ZM15.495 8C15.1169 7.99981 14.7515 8.13605 14.4658 8.38369C14.1802 8.63133 13.9935 8.97374 13.94 9.348L13.434 12.888C13.311 13.7482 13.503 14.6238 13.9745 15.3537C14.446 16.0835 15.1653 16.6185 16 16.86V20H15.5C15.2348 20 14.9804 20.1054 14.7929 20.2929C14.6054 20.4804 14.5 20.7348 14.5 21C14.5 21.2652 14.6054 21.5196 14.7929 21.7071C14.9804 21.8946 15.2348 22 15.5 22H18.5C18.7652 22 19.0196 21.8946 19.2071 21.7071C19.3946 21.5196 19.5 21.2652 19.5 21C19.5 20.7348 19.3946 20.4804 19.2071 20.2929C19.0196 20.1054 18.7652 20 18.5 20H18V16.86C18.8345 16.6185 19.5537 16.0837 20.0251 15.3541C20.4966 14.6244 20.6887 13.749 20.566 12.889L20.06 9.349C20.0068 8.97456 19.8201 8.63191 19.5345 8.38407C19.2488 8.13623 18.8832 7.99985 18.505 8H15.495Z" fill="currentColor"/>
</svg>
