<svg width="24" height="24" viewBox="0 0 24 24" fill="none" xmlns="http://www.w3.org/2000/svg">
<path fill-rule="evenodd" clip-rule="evenodd" d="M19.0903 4.668C19.9123 5.415 20.7822 6.661 21.3302 8.706C21.8783 10.75 21.7483 12.264 21.4093 13.323C20.8913 14.94 19.2002 15.225 18.0562 14.991L16.0133 14.573C16.3173 15.245 16.4073 15.989 16.4333 16.577C16.4433 16.784 16.4452 16.995 16.4412 17.2L16.4282 17.601L16.4062 17.976L16.3333 18.877C16.3244 19.0383 16.2765 19.1951 16.1938 19.3339C16.1111 19.4727 15.9959 19.5894 15.8582 19.674L13.1642 21.33C13.0012 21.4302 12.8129 21.4815 12.6216 21.4778C12.4303 21.4742 12.244 21.4157 12.085 21.3094C11.9259 21.2031 11.8007 21.0533 11.7241 20.8779C11.6476 20.7026 11.623 20.5089 11.6532 20.32C11.7612 19.643 11.8693 18.965 11.9163 18.28C11.3643 18.911 10.7102 19.423 10.0892 19.98C9.96885 20.0879 9.82406 20.1651 9.66731 20.2048C9.51056 20.2445 9.34652 20.2456 9.18925 20.208L6.11325 19.473C5.92724 19.4286 5.75786 19.3317 5.62521 19.194C5.49256 19.0562 5.4022 18.8833 5.36484 18.6957C5.32747 18.5082 5.34467 18.3138 5.4144 18.1358C5.48413 17.9577 5.60346 17.8033 5.75825 17.691C6.34725 17.265 6.93525 16.838 7.47825 16.354C8.13125 15.772 8.47625 15.236 8.76225 14.414L5.94425 14.991C4.80025 15.225 3.10925 14.941 2.59125 13.323C2.25225 12.264 2.12225 10.751 2.67025 8.706C3.21825 6.661 4.08825 5.416 4.91025 4.668C6.16825 3.526 7.77425 4.125 8.64825 4.9L11.1532 7.121C11.7062 6.95838 12.2943 6.95838 12.8472 7.121L15.3523 4.9C16.2262 4.125 17.8333 3.526 19.0903 4.668ZM13.0103 14.347C13.0822 14.602 13.1803 14.857 13.3073 15.102L13.4443 15.345C13.7192 15.793 13.8392 16.321 13.8942 16.792C13.9473 17.25 13.9482 17.727 13.9242 18.187L13.9032 18.528L14.3783 18.237C14.4183 17.788 14.4622 17.255 14.4362 16.667C14.4002 15.865 14.2323 15.351 14.0033 15.102L13.9392 15.041L13.0092 14.347H13.0103ZM10.9633 14.388C10.7812 14.708 10.6342 15.059 10.5433 15.439C10.4222 15.95 10.1333 16.409 9.83825 16.781C9.54507 17.1428 9.22265 17.48 8.87425 17.789L8.61725 18.015L9.15925 18.145C9.50425 17.855 9.91325 17.51 10.3103 17.075C10.9012 16.429 11.1392 15.915 11.1093 15.574C11.0743 15.174 11.0423 14.782 10.9633 14.388ZM12.0002 9C11.735 9 11.4807 9.10536 11.2931 9.29289C11.1056 9.48043 11.0002 9.73478 11.0002 10V11C11.0002 11.2652 11.1056 11.5196 11.2931 11.7071C11.4807 11.8946 11.735 12 12.0002 12C12.2655 12 12.5198 11.8946 12.7074 11.7071C12.8949 11.5196 13.0002 11.2652 13.0002 11V10C13.0002 9.73478 12.8949 9.48043 12.7074 9.29289C12.5198 9.10536 12.2655 9 12.0002 9Z" fill="currentColor"/>
</svg>
