<svg width="24" height="24" viewBox="0 0 24 24" fill="none" xmlns="http://www.w3.org/2000/svg">
<path d="M20.154 5C21.174 5 22 5.827 22 6.846V9C22 10.8615 21.423 12.6772 20.3485 14.1972C19.274 15.7173 17.7548 16.867 16 17.488V18.5C16 18.8978 15.842 19.2794 15.5607 19.5607C15.2794 19.842 14.8978 20 14.5 20H9.5C9.10218 20 8.72064 19.842 8.43934 19.5607C8.15804 19.2794 8 18.8978 8 18.5V17.488C6.24518 16.867 4.72597 15.7173 3.65148 14.1972C2.57699 12.6772 2.00002 10.8615 2 9V6.846C2 5.826 2.827 5 3.846 5H20.154Z" fill="currentColor"/>
</svg>
