<svg width="24" height="24" viewBox="0 0 24 24" fill="none" xmlns="http://www.w3.org/2000/svg">
<path fill-rule="evenodd" clip-rule="evenodd" d="M8.316 2.551C8.1906 2.50611 8.05751 2.48672 7.92451 2.49398C7.79152 2.50123 7.66132 2.53497 7.54155 2.59323C7.42178 2.65149 7.31485 2.73309 7.22705 2.83323C7.13924 2.93338 7.07233 3.05005 7.03023 3.17641C6.98813 3.30277 6.9717 3.43627 6.9819 3.56907C6.9921 3.70187 7.02872 3.83129 7.08962 3.94974C7.15052 4.06819 7.23447 4.17328 7.33654 4.25884C7.4386 4.3444 7.55674 4.40872 7.684 4.448C7.834 4.498 7.898 4.676 7.814 4.811L6.99 6.129C6.80993 6.41703 6.69757 6.74216 6.66138 7.07991C6.62519 7.41765 6.66611 7.75921 6.78107 8.07885C6.89602 8.39849 7.08201 8.68787 7.32502 8.92521C7.56803 9.16254 7.86173 9.34164 8.184 9.449C8.43569 9.53281 8.71036 9.5132 8.9476 9.39449C9.18483 9.27578 9.36519 9.06769 9.449 8.816C9.53281 8.56431 9.5132 8.28964 9.39449 8.0524C9.27578 7.81517 9.06769 7.63481 8.816 7.551C8.7809 7.53924 8.74893 7.51968 8.72248 7.49379C8.69602 7.46789 8.67578 7.43634 8.66327 7.40151C8.65076 7.36667 8.64631 7.32945 8.65024 7.29265C8.65418 7.25584 8.6664 7.22041 8.686 7.189L9.51 5.871C9.69007 5.58298 9.80243 5.25785 9.83862 4.9201C9.87481 4.58235 9.83389 4.24079 9.71893 3.92116C9.60398 3.60152 9.41799 3.31213 9.17498 3.0748C8.93197 2.83746 8.63827 2.65837 8.316 2.551ZM12.316 2.551C12.0663 2.47391 11.7962 2.49766 11.5638 2.61717C11.3313 2.73668 11.1549 2.94246 11.0723 3.19043C10.9897 3.43841 11.0074 3.70888 11.1218 3.94392C11.2361 4.17897 11.4379 4.35991 11.684 4.448C11.834 4.498 11.898 4.676 11.814 4.811L10.99 6.129C10.8099 6.41703 10.6976 6.74216 10.6614 7.07991C10.6252 7.41765 10.6661 7.75921 10.7811 8.07885C10.896 8.39849 11.082 8.68787 11.325 8.92521C11.568 9.16254 11.8617 9.34164 12.184 9.449C12.4357 9.53281 12.7104 9.5132 12.9476 9.39449C13.1848 9.27578 13.3652 9.06769 13.449 8.816C13.5328 8.56431 13.5132 8.28964 13.3945 8.0524C13.2758 7.81517 13.0677 7.63481 12.816 7.551C12.7809 7.53924 12.7489 7.51968 12.7225 7.49379C12.696 7.46789 12.6758 7.43634 12.6633 7.40151C12.6508 7.36667 12.6463 7.32945 12.6502 7.29265C12.6542 7.25584 12.6664 7.22041 12.686 7.189L13.51 5.871C13.6901 5.58298 13.8024 5.25785 13.8386 4.9201C13.8748 4.58235 13.8339 4.24079 13.7189 3.92116C13.604 3.60152 13.418 3.31213 13.175 3.0748C12.932 2.83746 12.6383 2.65837 12.316 2.551ZM16.316 2.551C16.0663 2.47391 15.7962 2.49766 15.5638 2.61717C15.3313 2.73668 15.1549 2.94246 15.0723 3.19043C14.9897 3.43841 15.0074 3.70888 15.1218 3.94392C15.2361 4.17897 15.4379 4.35991 15.684 4.448C15.834 4.498 15.898 4.676 15.814 4.811L14.99 6.129C14.8099 6.41703 14.6976 6.74216 14.6614 7.07991C14.6252 7.41765 14.6661 7.75921 14.7811 8.07885C14.896 8.39849 15.082 8.68787 15.325 8.92521C15.568 9.16254 15.8617 9.34164 16.184 9.449C16.4357 9.53281 16.7104 9.5132 16.9476 9.39449C17.1848 9.27578 17.3652 9.06769 17.449 8.816C17.5328 8.56431 17.5132 8.28964 17.3945 8.0524C17.2758 7.81517 17.0677 7.63481 16.816 7.551C16.7809 7.53924 16.7489 7.51968 16.7225 7.49379C16.696 7.46789 16.6758 7.43634 16.6633 7.40151C16.6508 7.36667 16.6463 7.32945 16.6502 7.29265C16.6542 7.25584 16.6664 7.22041 16.686 7.189L17.51 5.871C17.6901 5.58298 17.8024 5.25785 17.8386 4.9201C17.8748 4.58235 17.8339 4.24079 17.7189 3.92116C17.604 3.60152 17.418 3.31213 17.175 3.0748C16.932 2.83746 16.6383 2.65837 16.316 2.551ZM4 10C3.73478 10 3.48043 10.1054 3.29289 10.2929C3.10536 10.4804 3 10.7348 3 11V12C2.99999 13.7232 3.55619 15.4004 4.58587 16.7821C5.61555 18.1639 7.06372 19.1763 8.715 19.669C9.071 19.775 9.055 19.955 9.028 20.249C9.022 20.314 9.016 20.383 9.012 20.459C9.00417 20.659 9.03691 20.8585 9.10824 21.0455C9.17956 21.2325 9.28801 21.4032 9.42704 21.5471C9.56607 21.6911 9.73281 21.8055 9.91721 21.8833C10.1016 21.9611 10.2999 22.0008 10.5 22H13.5C14.321 22 15.023 21.326 14.988 20.459C14.985 20.383 14.978 20.314 14.972 20.249C14.945 19.955 14.929 19.775 15.285 19.669C16.9363 19.1763 18.3844 18.1639 19.4141 16.7821C20.4438 15.4004 21 13.7232 21 12V11C21 10.7348 20.8946 10.4804 20.7071 10.2929C20.5196 10.1054 20.2652 10 20 10H4Z" fill="currentColor"/>
</svg>
