<svg width="24" height="24" viewBox="0 0 24 24" fill="none" xmlns="http://www.w3.org/2000/svg">
<path fill-rule="evenodd" clip-rule="evenodd" d="M10.272 4.795C10.3764 4.62796 10.4469 4.44199 10.4794 4.24771C10.5119 4.05343 10.5059 3.85465 10.4616 3.66271C10.4173 3.47077 10.3356 3.28944 10.2213 3.12906C10.1069 2.96868 9.96205 2.8324 9.795 2.728C9.62796 2.6236 9.44199 2.55312 9.24771 2.52059C9.05344 2.48806 8.85465 2.49412 8.66271 2.53841C8.47078 2.5827 8.28944 2.66437 8.12906 2.77874C7.96868 2.89312 7.8324 3.03796 7.728 3.205L2.728 11.205C2.579 11.4434 2.5 11.7189 2.5 12C2.5 12.2811 2.579 12.5566 2.728 12.795L7.728 20.795C7.8324 20.962 7.96868 21.1069 8.12906 21.2213C8.28944 21.3356 8.47078 21.4173 8.66271 21.4616C8.85465 21.5059 9.05344 21.5119 9.24771 21.4794C9.44199 21.4469 9.62796 21.3764 9.795 21.272C9.96205 21.1676 10.1069 21.0313 10.2213 20.8709C10.3356 20.7106 10.4173 20.5292 10.4616 20.3373C10.5059 20.1454 10.5119 19.9466 10.4794 19.7523C10.4469 19.558 10.3764 19.372 10.272 19.205L5.769 12L10.272 4.795ZM13.728 4.795C13.6236 4.62796 13.5531 4.44199 13.5206 4.24771C13.4881 4.05343 13.4941 3.85465 13.5384 3.66271C13.6279 3.27507 13.8676 2.93885 14.205 2.728C14.5424 2.51715 14.9497 2.44896 15.3373 2.53841C15.7249 2.62787 16.0612 2.86765 16.272 3.205L21.272 11.205C21.421 11.4434 21.5 11.7189 21.5 12C21.5 12.2811 21.421 12.5566 21.272 12.795L16.272 20.795C16.1676 20.962 16.0313 21.1069 15.8709 21.2213C15.7106 21.3356 15.5292 21.4173 15.3373 21.4616C15.1454 21.5059 14.9466 21.5119 14.7523 21.4794C14.558 21.4469 14.372 21.3764 14.205 21.272C14.038 21.1676 13.8931 21.0313 13.7787 20.8709C13.6644 20.7106 13.5827 20.5292 13.5384 20.3373C13.4941 20.1454 13.4881 19.9466 13.5206 19.7523C13.5531 19.558 13.6236 19.372 13.728 19.205L18.231 12L13.728 4.795Z" fill="currentColor"/>
</svg>
