<svg width="24" height="24" viewBox="0 0 24 24" fill="none" xmlns="http://www.w3.org/2000/svg">
<path d="M8 2.5C8.38522 2.50019 8.75559 2.64858 9.03439 2.91441C9.31318 3.18024 9.47901 3.54314 9.49752 3.92791C9.51604 4.31269 9.38581 4.68983 9.13382 4.9812C8.88184 5.27257 8.52742 5.45583 8.144 5.493L8 5.5H7C6.88297 5.49996 6.76964 5.54097 6.67974 5.61589C6.58984 5.69081 6.52906 5.79489 6.508 5.91L6.5 6V10C6.5 10.744 6.268 11.433 5.873 12C6.23465 12.5177 6.44863 13.124 6.492 13.754L6.5 14V18C6.49996 18.117 6.54097 18.2304 6.61589 18.3203C6.69081 18.4102 6.79489 18.4709 6.91 18.492L7 18.5H8C8.38522 18.5002 8.75559 18.6486 9.03439 18.9144C9.31318 19.1802 9.47901 19.5431 9.49752 19.9279C9.51604 20.3127 9.38581 20.6898 9.13382 20.9812C8.88184 21.2726 8.52742 21.4558 8.144 21.493L8 21.5H7C6.10493 21.5001 5.24385 21.1572 4.59379 20.5419C3.94373 19.9267 3.5541 19.0857 3.505 18.192L3.5 18V14C3.5 13.8674 3.44732 13.7402 3.35355 13.6464C3.25979 13.5527 3.13261 13.5 3 13.5C2.60218 13.5 2.22064 13.342 1.93934 13.0607C1.65804 12.7794 1.5 12.3978 1.5 12C1.5 11.6022 1.65804 11.2206 1.93934 10.9393C2.22064 10.658 2.60218 10.5 3 10.5C3.11703 10.5 3.23036 10.459 3.32026 10.3841C3.41016 10.3092 3.47094 10.2051 3.492 10.09L3.5 10V6C3.49993 5.10493 3.84278 4.24385 4.45806 3.59379C5.07334 2.94373 5.91428 2.5541 6.808 2.505L7 2.5H8ZM17 2.5C17.8951 2.49993 18.7561 2.84278 19.4062 3.45806C20.0563 4.07334 20.4459 4.91428 20.495 5.808L20.5 6V10C20.5 10.1326 20.5527 10.2598 20.6464 10.3536C20.7402 10.4473 20.8674 10.5 21 10.5C21.3978 10.5 21.7794 10.658 22.0607 10.9393C22.342 11.2206 22.5 11.6022 22.5 12C22.5 12.3978 22.342 12.7794 22.0607 13.0607C21.7794 13.342 21.3978 13.5 21 13.5C20.883 13.5 20.7696 13.541 20.6797 13.6159C20.5898 13.6908 20.5291 13.7949 20.508 13.91L20.5 14V18C20.5001 18.8951 20.1572 19.7561 19.5419 20.4062C18.9267 21.0563 18.0857 21.4459 17.192 21.495L17 21.5H16C15.6148 21.4998 15.2444 21.3514 14.9656 21.0856C14.6868 20.8198 14.521 20.4569 14.5025 20.0721C14.484 19.6873 14.6142 19.3102 14.8662 19.0188C15.1182 18.7274 15.4726 18.5442 15.856 18.507L16 18.5H17C17.117 18.5 17.2304 18.459 17.3203 18.3841C17.4102 18.3092 17.4709 18.2051 17.492 18.09L17.5 18V14C17.5 13.256 17.732 12.567 18.127 12C17.7654 11.4823 17.5514 10.876 17.508 10.246L17.5 10V6C17.5 5.88297 17.459 5.76964 17.3841 5.67974C17.3092 5.58984 17.2051 5.52906 17.09 5.508L17 5.5H16C15.6148 5.49981 15.2444 5.35142 14.9656 5.08559C14.6868 4.81976 14.521 4.45686 14.5025 4.07209C14.484 3.68731 14.6142 3.31017 14.8662 3.0188C15.1182 2.72743 15.4726 2.54417 15.856 2.507L16 2.5H17Z" fill="currentColor"/>
</svg>
