<svg width="24" height="24" viewBox="0 0 24 24" fill="none" xmlns="http://www.w3.org/2000/svg">
<path d="M8 2.5C8.38522 2.50019 8.75559 2.64858 9.03439 2.91441C9.31318 3.18024 9.47901 3.54314 9.49752 3.92791C9.51604 4.31269 9.38581 4.68983 9.13382 4.9812C8.88184 5.27257 8.52742 5.45583 8.144 5.493L8 5.5H6.5V18.5H8C8.38522 18.5002 8.75559 18.6486 9.03439 18.9144C9.31318 19.1802 9.47901 19.5431 9.49752 19.9279C9.51604 20.3127 9.38581 20.6898 9.13382 20.9812C8.88184 21.2726 8.52742 21.4558 8.144 21.493L8 21.5H6C5.36528 21.5001 4.75429 21.2588 4.29095 20.825C3.82762 20.3912 3.54664 19.7973 3.505 19.164L3.5 19V5C3.4999 4.36528 3.74123 3.75429 4.17504 3.29095C4.60885 2.82762 5.20265 2.54664 5.836 2.505L6 2.5H8ZM18 2.5C18.3283 2.5 18.6534 2.56466 18.9567 2.6903C19.26 2.81594 19.5356 3.00009 19.7678 3.23223C19.9999 3.46438 20.1841 3.73998 20.3097 4.04329C20.4353 4.34661 20.5 4.6717 20.5 5V19C20.5 19.3283 20.4353 19.6534 20.3097 19.9567C20.1841 20.26 19.9999 20.5356 19.7678 20.7678C19.5356 20.9999 19.26 21.1841 18.9567 21.3097C18.6534 21.4353 18.3283 21.5 18 21.5H16C15.6022 21.5 15.2206 21.342 14.9393 21.0607C14.658 20.7794 14.5 20.3978 14.5 20C14.5 19.6022 14.658 19.2206 14.9393 18.9393C15.2206 18.658 15.6022 18.5 16 18.5H17.5V5.5H16C15.6022 5.5 15.2206 5.34196 14.9393 5.06066C14.658 4.77936 14.5 4.39782 14.5 4C14.5 3.60218 14.658 3.22064 14.9393 2.93934C15.2206 2.65804 15.6022 2.5 16 2.5H18Z" fill="currentColor"/>
</svg>
