<svg width="24" height="24" viewBox="0 0 24 24" fill="none" xmlns="http://www.w3.org/2000/svg">
<path fill-rule="evenodd" clip-rule="evenodd" d="M14.9999 3C16.0608 3 17.0782 3.42142 17.8283 4.17157C18.5785 4.92172 18.9999 5.93913 18.9999 7V8.126C20.0026 8.39389 20.862 9.04083 21.3967 9.9303C21.9315 10.8198 22.0998 11.8822 21.8661 12.8934C21.6325 13.9046 21.0151 14.7855 20.1443 15.3502C19.2736 15.9148 18.2175 16.1192 17.1989 15.92C17.0702 15.8939 16.9376 15.8933 16.8087 15.9184C16.6798 15.9435 16.5571 15.9938 16.4476 16.0663C16.3382 16.1388 16.244 16.2322 16.1706 16.3411C16.0973 16.45 16.046 16.5723 16.0199 16.701C15.9938 16.8297 15.9932 16.9623 16.0183 17.0912C16.0434 17.2201 16.0937 17.3428 16.1662 17.4522C16.2387 17.5617 16.3321 17.6559 16.441 17.7292C16.5499 17.8026 16.6722 17.8539 16.8009 17.88C17.4891 18.0197 18.1964 18.038 18.8909 17.934C18.7195 18.6459 18.3561 19.2972 17.8402 19.8169C17.3243 20.3366 16.6756 20.7048 15.965 20.8813C15.2543 21.0579 14.5088 21.0361 13.8096 20.8182C13.1105 20.6004 12.4845 20.195 11.9999 19.646C11.5152 20.1947 10.8893 20.5999 10.1903 20.8176C9.4913 21.0352 8.74598 21.0569 8.03548 20.8804C7.32498 20.7039 6.67652 20.3358 6.16069 19.8163C5.64485 19.2968 5.2814 18.6457 5.1099 17.934C5.80408 18.0375 6.51099 18.0192 7.1989 17.88C7.32759 17.8539 7.44988 17.8026 7.55878 17.7292C7.66768 17.6559 7.76105 17.5617 7.83358 17.4522C7.9061 17.3428 7.95635 17.2201 7.98145 17.0912C8.00656 16.9623 8.00603 16.8297 7.9799 16.701C7.95376 16.5723 7.90254 16.45 7.82915 16.3411C7.75575 16.2322 7.66163 16.1388 7.55215 16.0663C7.44267 15.9938 7.31997 15.9435 7.19108 15.9184C7.06218 15.8933 6.92959 15.8939 6.8009 15.92C6.20482 16.0411 5.58902 16.0254 4.9999 15.874C4.14166 15.6516 3.38158 15.1504 2.83897 14.4493C2.29636 13.7481 2.00195 12.8866 2.00195 12C2.00195 11.1134 2.29636 10.2519 2.83897 9.55073C3.38158 8.84957 4.14166 8.34843 4.9999 8.126V7C4.99985 6.18749 5.24723 5.39423 5.70913 4.72579C6.17103 4.05735 6.82555 3.54542 7.58557 3.25814C8.34559 2.97085 9.17508 2.92182 9.96365 3.11759C10.7522 3.31335 11.4625 3.74462 11.9999 4.354C12.3749 3.92791 12.8364 3.58674 13.3538 3.35324C13.8711 3.11975 14.4323 2.99932 14.9999 3ZM11.9999 6C11.755 6.00003 11.5186 6.08995 11.3355 6.25271C11.1525 6.41547 11.0356 6.63975 11.0069 6.883L10.9999 7V11.535C10.3921 11.1834 9.70207 10.9989 8.9999 11C8.73468 11 8.48033 11.1054 8.29279 11.2929C8.10525 11.4804 7.9999 11.7348 7.9999 12C7.9999 12.2652 8.10525 12.5196 8.29279 12.7071C8.48033 12.8946 8.73468 13 8.9999 13C9.50447 12.9998 9.99046 13.1904 10.3604 13.5335C10.7304 13.8766 10.9571 14.3468 10.9949 14.85L10.9999 15V17C11.0002 17.2549 11.0978 17.5 11.2727 17.6854C11.4477 17.8707 11.6869 17.9822 11.9413 17.9972C12.1957 18.0121 12.4463 17.9293 12.6417 17.7657C12.8372 17.6021 12.9628 17.3701 12.9929 17.117L12.9999 17V14.994C13.0015 14.4646 13.2129 13.9574 13.5878 13.5837C13.9627 13.2099 14.4705 13 14.9999 13C15.2651 13 15.5195 12.8946 15.707 12.7071C15.8945 12.5196 15.9999 12.2652 15.9999 12C15.9999 11.7348 15.8945 11.4804 15.707 11.2929C15.5195 11.1054 15.2651 11 14.9999 11C14.3843 10.9996 13.7768 11.1412 13.2249 11.414L12.9999 11.535V7C12.9999 6.73478 12.8945 6.48043 12.707 6.29289C12.5195 6.10535 12.2651 6 11.9999 6Z" fill="currentColor"/>
</svg>
