<svg width="24" height="24" viewBox="0 0 24 24" fill="none" xmlns="http://www.w3.org/2000/svg">
<path fill-rule="evenodd" clip-rule="evenodd" d="M12 4C14.1217 4 16.1566 4.84285 17.6569 6.34315C19.1572 7.84344 20 9.87827 20 12C20 14.1217 19.1572 16.1566 17.6569 17.6569C16.1566 19.1571 14.1217 20 12 20C9.87828 20 7.84345 19.1571 6.34316 17.6569C4.84287 16.1566 4.00001 14.1217 4.00001 12C4.00001 9.87827 4.84287 7.84344 6.34316 6.34315C7.84345 4.84285 9.87828 4 12 4ZM3.20001 5.4C3.27721 5.29084 3.37551 5.19826 3.48911 5.12775C3.60271 5.05724 3.72929 5.01022 3.86138 4.98948C3.99346 4.96875 4.12836 4.9747 4.2581 5.00701C4.38784 5.03931 4.50979 5.09731 4.61673 5.17756C4.72366 5.25781 4.81342 5.3587 4.88069 5.47424C4.94796 5.58979 4.99138 5.71765 5.00838 5.85027C5.02537 5.98289 5.0156 6.11757 4.97964 6.24634C4.94368 6.37512 4.88226 6.49537 4.79901 6.6C3.62811 8.15649 2.99653 10.0523 3.00001 12C3.00001 14.027 3.67001 15.895 4.79901 17.4C4.95814 17.6122 5.02647 17.8789 4.98896 18.1414C4.95145 18.404 4.81118 18.6409 4.59901 18.8C4.38684 18.9591 4.12014 19.0275 3.85759 18.99C3.59504 18.9524 3.35814 18.8122 3.19901 18.6C1.76847 16.6973 0.996536 14.3805 1.00001 12C1.00001 9.525 1.81901 7.238 3.20001 5.4ZM19.4 5.2C19.6122 5.04087 19.8789 4.97254 20.1414 5.01005C20.404 5.04756 20.6409 5.18783 20.8 5.4C22.2309 7.30256 23.0032 9.61941 23 12C23 14.475 22.181 16.762 20.8 18.6C20.7228 18.7092 20.6245 18.8017 20.5109 18.8723C20.3973 18.9428 20.2707 18.9898 20.1386 19.0105C20.0066 19.0313 19.8717 19.0253 19.7419 18.993C19.6122 18.9607 19.4902 18.9027 19.3833 18.8224C19.2764 18.7422 19.1866 18.6413 19.1193 18.5258C19.0521 18.4102 19.0086 18.2823 18.9916 18.1497C18.9747 18.0171 18.9844 17.8824 19.0204 17.7537C19.0563 17.6249 19.1178 17.5046 19.201 17.4C20.3719 15.8435 21.0035 13.9477 21 12C21 9.973 20.33 8.105 19.201 6.6C19.0419 6.38783 18.9736 6.12113 19.0111 5.85858C19.0486 5.59603 19.1878 5.35913 19.4 5.2ZM12 14C11.7348 14 11.4804 14.1054 11.2929 14.2929C11.1054 14.4804 11 14.7348 11 15C11 15.2652 11.1054 15.5196 11.2929 15.7071C11.4804 15.8946 11.7348 16 12 16C12.2652 16 12.5196 15.8946 12.7071 15.7071C12.8947 15.5196 13 15.2652 13 15C13 14.7348 12.8947 14.4804 12.7071 14.2929C12.5196 14.1054 12.2652 14 12 14ZM12 8C11.7348 8 11.4804 8.10536 11.2929 8.29289C11.1054 8.48043 11 8.73478 11 9V12C11 12.2652 11.1054 12.5196 11.2929 12.7071C11.4804 12.8946 11.7348 13 12 13C12.2652 13 12.5196 12.8946 12.7071 12.7071C12.8947 12.5196 13 12.2652 13 12V9C13 8.73478 12.8947 8.48043 12.7071 8.29289C12.5196 8.10536 12.2652 8 12 8Z" fill="currentColor"/>
</svg>
