<svg width="24" height="24" viewBox="0 0 24 24" fill="none" xmlns="http://www.w3.org/2000/svg">
<path fill-rule="evenodd" clip-rule="evenodd" d="M14.1936 2.885C16.4936 2.586 18.6516 3.095 19.8386 4.282C20.6286 5.073 21.0186 5.993 20.9986 7.002C20.9816 7.963 20.5936 8.896 20.0606 9.766C19.2986 11.011 18.1086 12.329 16.7906 13.681L16.0616 14.421L14.4456 16.038L13.7546 16.72C12.3766 18.066 11.0326 19.286 9.76561 20.061C8.89561 20.594 7.96261 20.981 7.00161 21C5.99261 21.02 5.07261 20.63 4.28161 19.839C3.09461 18.652 2.58561 16.495 2.88461 14.194C3.19161 11.834 4.35561 9.159 6.75661 6.757C9.15861 4.357 11.8346 3.192 14.1936 2.885ZM5.69061 11.665C5.35086 12.3928 5.10166 13.1595 4.94861 13.948C5.36861 14.308 5.86761 14.586 6.44061 14.778C6.6923 14.8619 6.96702 14.8425 7.20435 14.7238C7.44168 14.6052 7.62217 14.3972 7.70611 14.1455C7.79005 13.8938 7.77057 13.6191 7.65195 13.3818C7.53333 13.1444 7.3253 12.9639 7.07361 12.88C6.40661 12.658 5.96161 12.268 5.69061 11.664V11.665ZM8.69061 7.679C8.18656 8.13318 7.71663 8.62384 7.28461 9.147C7.47861 9.398 7.69061 9.636 7.90561 9.851C8.49061 10.435 9.23861 10.996 9.97561 11.241C10.2179 11.3228 10.4822 11.3087 10.7144 11.2016C10.9466 11.0945 11.1289 10.9025 11.2239 10.6651C11.3189 10.4277 11.3194 10.163 11.2252 9.92525C11.131 9.68754 10.9494 9.49492 10.7176 9.387L10.6086 9.344C10.2856 9.237 9.79661 8.914 9.32061 8.437C9.08661 8.20528 8.87562 7.95143 8.69061 7.679ZM13.1106 5.149C12.4926 5.327 11.8516 5.579 11.2036 5.917C11.7236 6.764 12.5026 7.369 13.5116 7.706C13.6367 7.74958 13.7691 7.76788 13.9013 7.75985C14.0335 7.75181 14.1628 7.7176 14.2817 7.6592C14.4005 7.60079 14.5066 7.51936 14.5937 7.41963C14.6809 7.31989 14.7473 7.20384 14.7893 7.07822C14.8312 6.95259 14.8477 6.81989 14.8379 6.68781C14.8282 6.55574 14.7922 6.42692 14.7323 6.30884C14.6723 6.19076 14.5895 6.08577 14.4886 5.99997C14.3877 5.91416 14.2708 5.84925 14.1446 5.809C13.7106 5.664 13.3706 5.449 13.1106 5.149Z" fill="currentColor"/>
</svg>
