<svg width="24" height="24" viewBox="0 0 24 24" fill="none" xmlns="http://www.w3.org/2000/svg">
<path fill-rule="evenodd" clip-rule="evenodd" d="M9 14C8.99925 14.7809 9.30302 15.5313 9.84677 16.0918C10.3905 16.6523 11.1314 16.9787 11.912 17.0016C12.6925 17.0245 13.4513 16.7422 14.027 16.2145C14.6027 15.6869 14.9499 14.9556 14.995 14.176L15 14H22V19C22.0002 19.5046 21.8096 19.9906 21.4665 20.3605C21.1234 20.7305 20.6532 20.9572 20.15 20.995L20 21H4C3.49542 21.0002 3.00943 20.8096 2.63945 20.4665C2.26947 20.1234 2.04284 19.6532 2.005 19.15L2 19V14H9ZM12 12C12.2652 12 12.5196 12.1054 12.7071 12.2929C12.8946 12.4804 13 12.7348 13 13V14C13 14.2652 12.8946 14.5196 12.7071 14.7071C12.5196 14.8946 12.2652 15 12 15C11.7348 15 11.4804 14.8946 11.2929 14.7071C11.1054 14.5196 11 14.2652 11 14V13C11 12.7348 11.1054 12.4804 11.2929 12.2929C11.4804 12.1054 11.7348 12 12 12ZM12 3C13.1526 3.00014 14.2697 3.3983 15.1625 4.12714C16.0554 4.85599 16.6691 5.87081 16.9 7H20C20.5304 7 21.0391 7.21071 21.4142 7.58579C21.7893 7.96086 22 8.46957 22 9V12H14.83C14.6234 11.4145 14.2403 10.9074 13.7334 10.5488C13.2265 10.1901 12.6209 9.99755 12 9.99755C11.3791 9.99755 10.7735 10.1901 10.2666 10.5488C9.75974 10.9074 9.3766 11.4145 9.17 12H2V9C2 8.46957 2.21071 7.96086 2.58579 7.58579C2.96086 7.21071 3.46957 7 4 7H7.1C7.33088 5.87081 7.94463 4.85599 8.83747 4.12714C9.7303 3.3983 10.8474 3.00014 12 3ZM12 5C11.411 4.99992 10.835 5.17322 10.3439 5.49829C9.85271 5.82336 9.4681 6.28582 9.238 6.828L9.17 7H14.828C14.6211 6.41525 14.2381 5.90897 13.7317 5.55082C13.2252 5.19266 12.6203 5.00023 12 5Z" fill="currentColor"/>
</svg>
