<svg width="24" height="24" viewBox="0 0 24 24" fill="none" xmlns="http://www.w3.org/2000/svg">
<path d="M14 3C14.7956 3 15.5587 3.31607 16.1213 3.87868C16.6839 4.44129 17 5.20435 17 6H20C20.5304 6 21.0391 6.21071 21.4142 6.58579C21.7893 6.96086 22 7.46957 22 8V19C22 19.5304 21.7893 20.0391 21.4142 20.4142C21.0391 20.7893 20.5304 21 20 21H4C3.46957 21 2.96086 20.7893 2.58579 20.4142C2.21071 20.0391 2 19.5304 2 19V8C2 7.46957 2.21071 6.96086 2.58579 6.58579C2.96086 6.21071 3.46957 6 4 6H7C7 5.20435 7.31607 4.44129 7.87868 3.87868C8.44129 3.31607 9.20435 3 10 3H14ZM19 10H5C4.74512 10.0003 4.49997 10.0979 4.31463 10.2728C4.1293 10.4478 4.01777 10.687 4.00283 10.9414C3.98789 11.1958 4.07067 11.4464 4.23426 11.6418C4.39786 11.8373 4.6299 11.9629 4.883 11.993L5 12H11V13C11.0003 13.2549 11.0979 13.5 11.2728 13.6854C11.4478 13.8707 11.687 13.9822 11.9414 13.9972C12.1958 14.0121 12.4464 13.9293 12.6418 13.7657C12.8373 13.6021 12.9629 13.3701 12.993 13.117L13 13V12H19C19.2549 11.9997 19.5 11.9021 19.6854 11.7272C19.8707 11.5522 19.9822 11.313 19.9972 11.0586C20.0121 10.8042 19.9293 10.5536 19.7657 10.3582C19.6021 10.1627 19.3701 10.0371 19.117 10.007L19 10ZM14 5H10C9.75507 5.00003 9.51866 5.08996 9.33563 5.25272C9.15259 5.41547 9.03566 5.63975 9.007 5.883L9 6H15C15 5.75507 14.91 5.51866 14.7473 5.33563C14.5845 5.15259 14.3603 5.03566 14.117 5.007L14 5Z" fill="currentColor"/>
</svg>
