<svg width="24" height="24" viewBox="0 0 24 24" fill="none" xmlns="http://www.w3.org/2000/svg">
<path d="M12 18.5C12.3729 18.5 12.7324 18.6389 13.0084 18.8896C13.2844 19.1403 13.4572 19.4848 13.493 19.856L13.5 20V21C13.4998 21.3852 13.3514 21.7556 13.0856 22.0344C12.8197 22.3132 12.4568 22.479 12.0721 22.4975C11.6873 22.516 11.3102 22.3858 11.0188 22.1338C10.7274 21.8818 10.5442 21.5274 10.507 21.144L10.5 21V20C10.5 19.6022 10.658 19.2206 10.9393 18.9393C11.2206 18.658 11.6022 18.5 12 18.5ZM16.596 16.596C16.8585 16.3333 17.2092 16.1773 17.5802 16.1583C17.9511 16.1392 18.3159 16.2585 18.604 16.493L18.718 16.596L19.425 17.303C19.7002 17.5742 19.8602 17.9412 19.8715 18.3275C19.8828 18.7138 19.7446 19.0895 19.4857 19.3764C19.2268 19.6633 18.8672 19.8392 18.4818 19.8674C18.0964 19.8957 17.715 19.7741 17.417 19.528L17.303 19.425L16.596 18.718C16.4566 18.5787 16.346 18.4133 16.2706 18.2312C16.1951 18.0492 16.1563 17.8541 16.1563 17.657C16.1563 17.4599 16.1951 17.2648 16.2706 17.0828C16.346 16.9007 16.4566 16.7353 16.596 16.596ZM5.28199 16.596C5.55323 16.3207 5.92023 16.1608 6.3065 16.1495C6.69277 16.1382 7.0685 16.2764 7.35538 16.5353C7.64227 16.7942 7.81816 17.1538 7.8464 17.5392C7.87465 17.9246 7.75306 18.306 7.50699 18.604L7.40399 18.718L6.69699 19.425C6.42576 19.7003 6.05875 19.8602 5.67249 19.8715C5.28622 19.8828 4.91048 19.7446 4.6236 19.4857C4.33672 19.2268 4.16082 18.8672 4.13258 18.4818C4.10433 18.0964 4.22592 17.715 4.47199 17.417L4.57499 17.303L5.28199 16.596ZM12 6C13.5913 6 15.1174 6.63214 16.2426 7.75736C17.3679 8.88258 18 10.4087 18 12C18 13.5913 17.3679 15.1174 16.2426 16.2426C15.1174 17.3679 13.5913 18 12 18C10.4087 18 8.88257 17.3679 7.75735 16.2426C6.63213 15.1174 5.99999 13.5913 5.99999 12C5.99999 10.4087 6.63213 8.88258 7.75735 7.75736C8.88257 6.63214 10.4087 6 12 6ZM12 9C11.2191 8.99925 10.4687 9.30302 9.90817 9.84677C9.34769 10.3905 9.02131 11.1314 8.99839 11.912C8.97548 12.6925 9.25783 13.4513 9.78545 14.027C10.3131 14.6027 11.0444 14.9499 11.824 14.995L12 15V9ZM3.99999 10.5C4.38521 10.5002 4.75559 10.6486 5.03438 10.9144C5.31317 11.1802 5.479 11.5431 5.49752 11.9279C5.51603 12.3127 5.3858 12.6898 5.13382 12.9812C4.88183 13.2726 4.52741 13.4558 4.14399 13.493L3.99999 13.5H2.99999C2.61477 13.4998 2.2444 13.3514 1.9656 13.0856C1.68681 12.8198 1.52098 12.4569 1.50247 12.0721C1.48395 11.6873 1.61418 11.3102 1.86617 11.0188C2.11815 10.7274 2.47257 10.5442 2.85599 10.507L2.99999 10.5H3.99999ZM21 10.5C21.3852 10.5002 21.7556 10.6486 22.0344 10.9144C22.3132 11.1802 22.479 11.5431 22.4975 11.9279C22.516 12.3127 22.3858 12.6898 22.1338 12.9812C21.8818 13.2726 21.5274 13.4558 21.144 13.493L21 13.5H20C19.6148 13.4998 19.2444 13.3514 18.9656 13.0856C18.6868 12.8198 18.521 12.4569 18.5025 12.0721C18.484 11.6873 18.6142 11.3102 18.8662 11.0188C19.1181 10.7274 19.4726 10.5442 19.856 10.507L20 10.5H21ZM4.57499 4.575C4.83754 4.31227 5.18823 4.15629 5.55918 4.13726C5.93012 4.11823 6.29494 4.23751 6.58299 4.472L6.69699 4.575L7.40399 5.282C7.67924 5.55324 7.8392 5.92024 7.85051 6.30651C7.86182 6.69278 7.72363 7.06851 7.46473 7.35539C7.20582 7.64227 6.84619 7.81817 6.46079 7.84641C6.07539 7.87466 5.69395 7.75307 5.39599 7.507L5.28199 7.404L4.57499 6.697C4.4356 6.5577 4.32503 6.3923 4.24958 6.21025C4.17414 6.0282 4.13531 5.83306 4.13531 5.636C4.13531 5.43894 4.17414 5.2438 4.24958 5.06175C4.32503 4.8797 4.4356 4.7143 4.57499 4.575ZM17.303 4.575C17.5742 4.29975 17.9412 4.1398 18.3275 4.12848C18.7138 4.11717 19.0895 4.25536 19.3764 4.51427C19.6633 4.77317 19.8392 5.1328 19.8674 5.5182C19.8956 5.90361 19.7741 6.28504 19.528 6.583L19.425 6.697L18.718 7.404C18.4468 7.67925 18.0798 7.8392 17.6935 7.85052C17.3072 7.86183 16.9315 7.72364 16.6446 7.46473C16.3577 7.20583 16.1818 6.8462 16.1536 6.4608C16.1253 6.07539 16.2469 5.69396 16.493 5.396L16.596 5.282L17.303 4.575ZM12 1.5C12.3729 1.50002 12.7324 1.63892 13.0084 1.88962C13.2844 2.14032 13.4572 2.48484 13.493 2.856L13.5 3V4C13.4998 4.38522 13.3514 4.75559 13.0856 5.03439C12.8197 5.31318 12.4568 5.47901 12.0721 5.49752C11.6873 5.51604 11.3102 5.38581 11.0188 5.13382C10.7274 4.88184 10.5442 4.52742 10.507 4.144L10.5 4V3C10.5 2.60218 10.658 2.22064 10.9393 1.93934C11.2206 1.65804 11.6022 1.5 12 1.5Z" fill="currentColor"/>
</svg>
