<svg width="24" height="24" viewBox="0 0 24 24" fill="none" xmlns="http://www.w3.org/2000/svg">
<path d="M20.4851 10.586L21.5451 11.646C21.9923 12.0928 22.2537 12.6925 22.2765 13.3243C22.2993 13.9561 22.0819 14.5731 21.6681 15.051L21.5461 15.181L15.1821 21.546C14.7351 21.9931 14.1354 22.2543 13.5036 22.2769C12.8718 22.2995 12.2549 22.082 11.7771 21.668L11.6471 21.546L10.5861 20.486L20.4851 10.586ZM2.80811 2.80801C3.69311 1.92201 4.81811 1.47801 5.99211 1.60501C7.15311 1.73001 8.21711 2.39801 9.04811 3.45101C9.93611 4.57801 10.7481 6.18301 11.3841 7.62501C11.6951 8.32901 12.5441 8.49902 13.0601 8.10002L13.1531 8.01901L13.7681 7.40401C14.2151 6.95693 14.8148 6.69577 15.4466 6.67314C16.0784 6.6505 16.6953 6.86806 17.1731 7.28201L17.3031 7.40401L19.0711 9.17201L9.17111 19.071L7.40411 17.303C6.95702 16.8561 6.69586 16.2563 6.67323 15.6245C6.65059 14.9927 6.86815 14.3758 7.28211 13.898L7.40411 13.768L8.01911 13.153C8.51911 12.653 8.37311 11.714 7.62511 11.384C6.18311 10.748 4.57811 9.93602 3.45111 9.04802C2.39811 8.21702 1.73111 7.15302 1.60511 5.99201C1.47811 4.81801 1.92211 3.69201 2.80811 2.80801Z" fill="currentColor"/>
</svg>
