<svg width="24" height="24" viewBox="0 0 24 24" fill="none" xmlns="http://www.w3.org/2000/svg">
<path fill-rule="evenodd" clip-rule="evenodd" d="M14.3299 2.307C15.0981 2.51321 15.753 3.01609 16.1506 3.70506C16.5481 4.39402 16.6558 5.21267 16.4499 5.981L15.4149 9.845L16.7729 10.208C18.4269 10.652 19.2829 12.328 19.0509 13.864C18.9409 14.593 18.8969 15.31 18.9859 15.832C19.1709 16.916 19.7939 17.978 20.4439 18.905L20.7979 19.397C20.9101 19.5454 20.9786 19.7222 20.9959 19.9074C21.0131 20.0927 20.9783 20.2791 20.8954 20.4456C20.8124 20.6122 20.6847 20.7523 20.5265 20.8503C20.3683 20.9482 20.1859 21 19.9999 21H5.4999C5.1799 21 4.8729 20.842 4.6869 20.582C4.1979 19.898 3.8489 19.124 3.5619 18.338C3.0619 16.974 2.6449 15.045 3.0139 12.836C3.24111 11.4284 3.72515 10.0746 4.4419 8.842C5.0969 7.734 6.3729 7.422 7.4329 7.706L9.6199 8.292L10.6549 4.428C10.8609 3.65957 11.3637 3.00443 12.0527 2.60668C12.7417 2.20892 13.5614 2.10113 14.3299 2.307ZM7.9779 15C7.84658 15.0009 7.71672 15.0277 7.59574 15.0788C7.47477 15.1299 7.36504 15.2043 7.27283 15.2978C7.18062 15.3913 7.10774 15.5021 7.05833 15.6238C7.00893 15.7455 6.98398 15.8757 6.9849 16.007C6.9919 17.031 7.3119 18.012 7.6539 18.777L7.7559 19H10.0329C9.89185 18.773 9.76105 18.5397 9.6409 18.301C9.3309 17.684 9.0579 16.953 8.9969 16.254L8.9849 15.993C8.98305 15.728 8.87605 15.4745 8.68742 15.2883C8.49878 15.1021 8.24294 14.9984 7.9779 15ZM12.5859 4.946L11.2919 9.776C11.223 10.032 11.0553 10.2502 10.8256 10.3826C10.5959 10.515 10.323 10.5508 10.0669 10.482L6.9149 9.638C6.5319 9.535 6.2689 9.681 6.1639 9.859C5.88483 10.3347 5.64953 10.8347 5.4609 11.353L16.9709 14.406C16.9959 14.113 17.0319 13.828 17.0719 13.564C17.1769 12.874 16.7749 12.28 16.2539 12.14L13.9309 11.518C13.804 11.484 13.6851 11.4253 13.5809 11.3454C13.4767 11.2654 13.3893 11.1657 13.3236 11.0519C13.258 10.9382 13.2154 10.8126 13.1983 10.6824C13.1812 10.5522 13.1899 10.4199 13.2239 10.293L14.5179 5.463C14.5851 5.20726 14.5482 4.93533 14.4154 4.7067C14.2826 4.47807 14.0646 4.31134 13.8092 4.24299C13.5538 4.17464 13.2817 4.21023 13.0524 4.34198C12.8232 4.47372 12.6554 4.6909 12.5859 4.946Z" fill="currentColor"/>
</svg>
