<svg width="24" height="24" viewBox="0 0 24 24" fill="none" xmlns="http://www.w3.org/2000/svg">
<path d="M16 15C16.7956 15 17.5587 15.3161 18.1213 15.8787C18.6839 16.4413 19 17.2044 19 18C19 18.7956 18.6839 19.5587 18.1213 20.1213C17.5587 20.6839 16.7956 21 16 21C15.2044 21 14.4413 20.6839 13.8787 20.1213C13.3161 19.5587 13 18.7956 13 18C13 17.2044 13.3161 16.4413 13.8787 15.8787C14.4413 15.3161 15.2044 15 16 15ZM7 11C8.06087 11 9.07828 11.4214 9.82843 12.1716C10.5786 12.9217 11 13.9391 11 15C11 16.0609 10.5786 17.0783 9.82843 17.8284C9.07828 18.5786 8.06087 19 7 19C5.93913 19 4.92172 18.5786 4.17157 17.8284C3.42143 17.0783 3 16.0609 3 15C3 13.9391 3.42143 12.9217 4.17157 12.1716C4.92172 11.4214 5.93913 11 7 11ZM16 3C17.3261 3 18.5979 3.52678 19.5355 4.46447C20.4732 5.40215 21 6.67392 21 8C21 9.32608 20.4732 10.5979 19.5355 11.5355C18.5979 12.4732 17.3261 13 16 13C14.6739 13 13.4021 12.4732 12.4645 11.5355C11.5268 10.5979 11 9.32608 11 8C11 6.67392 11.5268 5.40215 12.4645 4.46447C13.4021 3.52678 14.6739 3 16 3Z" fill="currentColor"/>
</svg>
