<svg width="24" height="24" viewBox="0 0 24 24" fill="none" xmlns="http://www.w3.org/2000/svg">
<path fill-rule="evenodd" clip-rule="evenodd" d="M7.67 5.5C8.10868 4.73979 8.73981 4.1085 9.49992 3.66964C10.26 3.23078 11.1223 2.99982 12 3C12.8777 2.99982 13.74 3.23078 14.5001 3.66964C15.2602 4.1085 15.8913 4.73979 16.33 5.5L17.2 7H6.8L7.67 5.5ZM3.553 6.106C3.79013 5.98758 4.06456 5.96814 4.31601 6.05196C4.56746 6.13577 4.77535 6.31599 4.894 6.553C5.041 6.846 5.394 7.227 5.867 7.543C6.353 7.867 6.781 8 7 8H17C17.219 8 17.647 7.867 18.133 7.543C18.607 7.227 18.959 6.846 19.106 6.553C19.1622 6.43142 19.2422 6.32236 19.3413 6.2323C19.4404 6.14223 19.5566 6.07298 19.683 6.02868C19.8094 5.98437 19.9433 5.9659 20.077 5.97436C20.2107 5.98282 20.3412 6.01804 20.461 6.07793C20.5808 6.13782 20.6874 6.22117 20.7743 6.32301C20.8613 6.42486 20.9269 6.54314 20.9673 6.67083C21.0077 6.79852 21.022 6.93302 21.0094 7.06635C20.9968 7.19968 20.9576 7.32912 20.894 7.447C20.541 8.154 19.894 8.773 19.242 9.207C18.938 9.41082 18.6144 9.58369 18.276 9.723C18.5725 10.4543 18.7794 11.2189 18.892 12H21C21.2652 12 21.5196 12.1054 21.7071 12.2929C21.8946 12.4804 22 12.7348 22 13C22 13.2652 21.8946 13.5196 21.7071 13.7071C21.5196 13.8946 21.2652 14 21 14H18.988C18.9336 15.1432 18.6833 16.2685 18.248 17.327C18.82 17.657 19.211 18.187 19.457 18.677C19.8058 19.4023 19.9911 20.1953 20 21C20 21.2652 19.8946 21.5196 19.7071 21.7071C19.5196 21.8946 19.2652 22 19 22C18.7348 22 18.4804 21.8946 18.2929 21.7071C18.1054 21.5196 18 21.2652 18 21C18 20.626 17.899 20.034 17.668 19.572C17.538 19.312 17.408 19.163 17.283 19.082C16.227 20.568 14.744 21.622 13 21.917V13C13 12.7348 12.8946 12.4804 12.7071 12.2929C12.5196 12.1054 12.2652 12 12 12C11.7348 12 11.4804 12.1054 11.2929 12.2929C11.1054 12.4804 11 12.7348 11 13V21.917C9.256 21.622 7.773 20.567 6.717 19.083C6.591 19.163 6.462 19.313 6.332 19.573C6.12227 20.02 6.00914 20.5063 6 21C6 21.2652 5.89464 21.5196 5.70711 21.7071C5.51957 21.8946 5.26522 22 5 22C4.73478 22 4.48043 21.8946 4.29289 21.7071C4.10536 21.5196 4 21.2652 4 21C4.00901 20.1956 4.19437 19.403 4.543 18.678C4.789 18.186 5.18 17.658 5.752 17.328C5.31654 16.2692 5.06623 15.1435 5.012 14H3C2.73478 14 2.48043 13.8946 2.29289 13.7071C2.10536 13.5196 2 13.2652 2 13C2 12.7348 2.10536 12.4804 2.29289 12.2929C2.48043 12.1054 2.73478 12 3 12H5.108C5.22073 11.2189 5.42757 10.4544 5.724 9.723C5.38559 9.58367 5.06197 9.41081 4.758 9.207C4.107 8.773 3.458 8.154 3.106 7.447C2.98758 7.20987 2.96814 6.93544 3.05196 6.68399C3.13577 6.43254 3.31599 6.22465 3.553 6.106Z" fill="currentColor"/>
</svg>
