<svg width="24" height="24" viewBox="0 0 24 24" fill="none" xmlns="http://www.w3.org/2000/svg">
<path fill-rule="evenodd" clip-rule="evenodd" d="M13 3C13.5046 2.99984 13.9906 3.19041 14.3605 3.5335C14.7305 3.87659 14.9571 4.34684 14.995 4.85L15 5V19H16V9.5C16 9.38297 16.041 9.26964 16.1159 9.17974C16.1908 9.08984 16.2949 9.02907 16.41 9.008L16.5 9H18C18.5046 8.99984 18.9906 9.19041 19.3605 9.5335C19.7305 9.87659 19.9571 10.3468 19.995 10.85L20 11V19H21C21.2549 19.0003 21.5 19.0979 21.6854 19.2728C21.8707 19.4478 21.9822 19.687 21.9972 19.9414C22.0121 20.1958 21.9293 20.4464 21.7657 20.6418C21.6021 20.8373 21.3701 20.9629 21.117 20.993L21 21H2.99999C2.74511 20.9997 2.49996 20.9021 2.31462 20.7272C2.12929 20.5522 2.01776 20.313 2.00282 20.0586C1.98788 19.8042 2.07067 19.5536 2.23426 19.3582C2.39785 19.1627 2.62989 19.0371 2.88299 19.007L2.99999 19H3.99999V5C3.99983 4.49542 4.1904 4.00943 4.53349 3.63945C4.87658 3.26947 5.34684 3.04284 5.84999 3.005L5.99999 3H13ZM11 15H7.99999V17H11V15ZM11 11H7.99999V13H11V11ZM11 7H7.99999V9H11V7Z" fill="currentColor"/>
</svg>
