<svg width="24" height="24" viewBox="0 0 24 24" fill="none" xmlns="http://www.w3.org/2000/svg">
<path fill-rule="evenodd" clip-rule="evenodd" d="M10.753 2.197C10.4792 2.10562 10.189 2.07458 9.90207 2.10599C9.61518 2.13741 9.33849 2.23054 9.091 2.379L4.971 4.851C4.67485 5.02869 4.42976 5.28005 4.25959 5.58059C4.08943 5.88114 4 6.22062 4 6.566V20H3C2.73478 20 2.48043 20.1054 2.29289 20.2929C2.10536 20.4804 2 20.7348 2 21C2 21.2652 2.10536 21.5196 2.29289 21.7071C2.48043 21.8946 2.73478 22 3 22H21C21.2652 22 21.5196 21.8946 21.7071 21.7071C21.8946 21.5196 22 21.2652 22 21C22 20.7348 21.8946 20.4804 21.7071 20.2929C21.5196 20.1054 21.2652 20 21 20H20V6.72C19.9998 6.30053 19.8676 5.89176 19.6223 5.55151C19.377 5.21126 19.0309 4.95676 18.633 4.824L10.753 2.197ZM9 4.767L6 6.567V20H9V4.766V4.767Z" fill="currentColor"/>
</svg>
