<svg width="24" height="24" viewBox="0 0 24 24" fill="none" xmlns="http://www.w3.org/2000/svg">
<path d="M3 19H4V6.36C4.00003 6.04514 4.09914 5.73827 4.28328 5.48287C4.46743 5.22747 4.72727 5.0365 5.026 4.937L13.026 2.271C13.2515 2.19591 13.4915 2.17545 13.7264 2.21133C13.9614 2.2472 14.1844 2.33838 14.3772 2.47734C14.5699 2.6163 14.7269 2.79908 14.8352 3.0106C14.9435 3.22213 15 3.45636 15 3.694V19H16V9.99C16 9.91605 16.0165 9.84304 16.0482 9.77621C16.0798 9.70939 16.1259 9.65042 16.1831 9.60355C16.2403 9.55669 16.3072 9.52309 16.3789 9.50518C16.4507 9.48728 16.5255 9.48551 16.598 9.5L18.794 9.94C19.1339 10.0079 19.4398 10.1915 19.6597 10.4595C19.8795 10.7275 19.9998 11.0634 20 11.41V19H21C21.2652 19 21.5196 19.1054 21.7071 19.2929C21.8946 19.4804 22 19.7348 22 20C22 20.2652 21.8946 20.5196 21.7071 20.7071C21.5196 20.8946 21.2652 21 21 21H3C2.73478 21 2.48043 20.8946 2.29289 20.7071C2.10536 20.5196 2 20.2652 2 20C2 19.7348 2.10536 19.4804 2.29289 19.2929C2.48043 19.1054 2.73478 19 3 19Z" fill="currentColor"/>
</svg>
