<svg width="24" height="24" viewBox="0 0 24 24" fill="none" xmlns="http://www.w3.org/2000/svg">
<path d="M13 20C13.2549 20.0003 13.5 20.0979 13.6854 20.2728C13.8707 20.4478 13.9822 20.687 13.9972 20.9414C14.0121 21.1958 13.9293 21.4464 13.7657 21.6418C13.6021 21.8373 13.3701 21.9629 13.117 21.993L13 22H11C10.7451 21.9997 10.5 21.9021 10.3146 21.7272C10.1293 21.5522 10.0178 21.313 10.0028 21.0586C9.98789 20.8042 10.0707 20.5536 10.2343 20.3582C10.3979 20.1627 10.6299 20.0371 10.883 20.007L11 20H13ZM12 2C16.41 2 20 5.543 20 9.933C20 12.939 18.478 15.129 17.22 16.427L16.936 16.71L16.666 16.962L16.414 17.182L16.084 17.452L15.756 17.696C15.515 17.866 15.353 18.115 15.206 18.374L15.001 18.738C14.763 19.148 14.484 19.5 13.893 19.5H10.107C9.517 19.5 9.237 19.149 8.999 18.738L8.881 18.53C8.709 18.218 8.533 17.9 8.244 17.696L8.012 17.525L7.813 17.37L7.586 17.182L7.334 16.962L7.064 16.71L6.779 16.427C5.522 15.129 4 12.939 4 9.933C4 5.543 7.59 2 12 2ZM13.707 6.293C13.5348 6.12082 13.3057 6.01739 13.0627 6.00211C12.8197 5.98683 12.5794 6.06075 12.387 6.21L12.293 6.293L10.3 8.286C10.1261 8.45988 10.0217 8.69122 10.0062 8.93663C9.99074 9.18204 10.0653 9.42467 10.216 9.619L10.3 9.714L11.586 11L10.293 12.293C10.1137 12.473 10.0095 12.7144 10.0018 12.9684C9.99402 13.2223 10.0832 13.4697 10.2512 13.6603C10.4193 13.8508 10.6536 13.9703 10.9065 13.9944C11.1594 14.0185 11.412 13.9454 11.613 13.79L11.707 13.707L13.7 11.714C13.8739 11.5401 13.9783 11.3088 13.9938 11.0634C14.0093 10.818 13.9347 10.5753 13.784 10.381L13.7 10.286L12.414 9L13.707 7.707C13.8945 7.51947 13.9998 7.26516 13.9998 7C13.9998 6.73484 13.8945 6.48053 13.707 6.293Z" fill="currentColor"/>
</svg>
