<svg width="24" height="24" viewBox="0 0 24 24" fill="none" xmlns="http://www.w3.org/2000/svg">
<path fill-rule="evenodd" clip-rule="evenodd" d="M11.022 3H18C18.7956 3 19.5587 3.31607 20.1213 3.87868C20.6839 4.44129 21 5.20435 21 6C21.2652 6 21.5196 6.10536 21.7071 6.29289C21.8946 6.48043 22 6.73478 22 7V9C22 9.26522 21.8946 9.51957 21.7071 9.70711C21.5196 9.89464 21.2652 10 21 10V17C21 17.3511 20.9076 17.6959 20.732 18C20.5565 18.304 20.304 18.5565 20 18.732V19.5C20 19.8978 19.842 20.2794 19.5607 20.5607C19.2794 20.842 18.8978 21 18.5 21C18.1022 21 17.7206 20.842 17.4393 20.5607C17.158 20.2794 17 19.8978 17 19.5V19H7V19.5C7 19.8978 6.84196 20.2794 6.56066 20.5607C6.27936 20.842 5.89782 21 5.5 21C5.10218 21 4.72064 20.842 4.43934 20.5607C4.15804 20.2794 4 19.8978 4 19.5V18.732C3.69597 18.5565 3.4435 18.304 3.26796 18C3.09243 17.6959 3.00001 17.3511 3 17V10C2.73478 10 2.48043 9.89464 2.29289 9.70711C2.10536 9.51957 2 9.26522 2 9V7C2 6.73478 2.10536 6.48043 2.29289 6.29289C2.48043 6.10536 2.73478 6 3 6C3 5.20435 3.31607 4.44129 3.87868 3.87868C4.44129 3.31607 5.20435 3 6 3H11.022ZM11.618 5H14.382L13.106 7.553C13.0424 7.67088 13.0032 7.80032 12.9906 7.93365C12.978 8.06698 12.9923 8.20148 13.0327 8.32917C13.0731 8.45686 13.1387 8.57514 13.2257 8.67699C13.3126 8.77883 13.4192 8.86218 13.539 8.92207C13.6588 8.98196 13.7893 9.01718 13.923 9.02564C14.0567 9.0341 14.1906 9.01563 14.317 8.97132C14.4434 8.92702 14.5596 8.85777 14.6587 8.7677C14.7578 8.67764 14.8378 8.56858 14.894 8.447L16.618 5H18C18.2652 5 18.5196 5.10536 18.7071 5.29289C18.8946 5.48043 19 5.73478 19 6V11H5V6C5 5.73478 5.10536 5.48043 5.29289 5.29289C5.48043 5.10536 5.73478 5 6 5H9.382L8.106 7.553C7.99702 7.78891 7.98416 8.05798 8.07014 8.30321C8.15611 8.54844 8.33418 8.75057 8.56661 8.86679C8.79904 8.983 9.06758 9.00417 9.31535 8.92582C9.56312 8.84746 9.77066 8.67573 9.894 8.447L11.618 5ZM6 15C6 14.7348 6.10536 14.4804 6.29289 14.2929C6.48043 14.1054 6.73478 14 7 14H8C8.26522 14 8.51957 14.1054 8.70711 14.2929C8.89464 14.4804 9 14.7348 9 15C9 15.2652 8.89464 15.5196 8.70711 15.7071C8.51957 15.8946 8.26522 16 8 16H7C6.73478 16 6.48043 15.8946 6.29289 15.7071C6.10536 15.5196 6 15.2652 6 15ZM15 15C15 14.7348 15.1054 14.4804 15.2929 14.2929C15.4804 14.1054 15.7348 14 16 14H17C17.2652 14 17.5196 14.1054 17.7071 14.2929C17.8946 14.4804 18 14.7348 18 15C18 15.2652 17.8946 15.5196 17.7071 15.7071C17.5196 15.8946 17.2652 16 17 16H16C15.7348 16 15.4804 15.8946 15.2929 15.7071C15.1054 15.5196 15 15.2652 15 15Z" fill="currentColor"/>
</svg>
