<svg width="24" height="24" viewBox="0 0 24 24" fill="none" xmlns="http://www.w3.org/2000/svg">
<path fill-rule="evenodd" clip-rule="evenodd" d="M18.93 5C19.3901 4.99992 19.844 5.10568 20.2567 5.30907C20.6694 5.51247 21.0298 5.80807 21.31 6.173L21.426 6.336L22.496 7.941C22.7829 8.37121 22.9538 8.86829 22.992 9.384L23 9.606V16C23.0002 16.5046 22.8096 16.9906 22.4665 17.3605C22.1234 17.7305 21.6532 17.9572 21.15 17.995L21 18H20.83C20.6284 18.5703 20.2592 19.0663 19.7707 19.4231C19.2823 19.7799 18.6974 19.9808 18.0929 19.9994C17.4883 20.018 16.8922 19.8534 16.3827 19.5273C15.8733 19.2012 15.4743 18.7288 15.238 18.172L15.17 18H8.829C8.62722 18.57 8.25797 19.0657 7.76964 19.4222C7.28131 19.7788 6.69667 19.9795 6.09232 19.9981C5.48797 20.0167 4.8921 19.8523 4.38278 19.5264C3.87345 19.2006 3.47444 18.7285 3.238 18.172L3.17 18H3C2.49542 18.0002 2.00943 17.8096 1.63945 17.4665C1.26947 17.1234 1.04284 16.6532 1.005 16.15L1 16V8C0.999957 7.23479 1.29233 6.49849 1.81728 5.94174C2.34224 5.38499 3.06011 5.04989 3.824 5.005L4 5H18.93ZM18 16C17.7348 16 17.4804 16.1054 17.2929 16.2929C17.1054 16.4804 17 16.7348 17 17C17 17.2652 17.1054 17.5196 17.2929 17.7071C17.4804 17.8946 17.7348 18 18 18C18.2652 18 18.5196 17.8946 18.7071 17.7071C18.8946 17.5196 19 17.2652 19 17C19 16.7348 18.8946 16.4804 18.7071 16.2929C18.5196 16.1054 18.2652 16 18 16ZM6 16C5.73478 16 5.48043 16.1054 5.29289 16.2929C5.10536 16.4804 5 16.7348 5 17C5 17.2652 5.10536 17.5196 5.29289 17.7071C5.48043 17.8946 5.73478 18 6 18C6.26522 18 6.51957 17.8946 6.70711 17.7071C6.89464 17.5196 7 17.2652 7 17C7 16.7348 6.89464 16.4804 6.70711 16.2929C6.51957 16.1054 6.26522 16 6 16ZM18.93 7H18V11H21V9.606C21 9.40847 20.9416 9.21535 20.832 9.051L19.762 7.445C19.6707 7.30808 19.5469 7.19583 19.4018 7.11821C19.2566 7.04058 19.0946 6.99998 18.93 7ZM6 7H4C3.75507 7.00003 3.51866 7.08996 3.33563 7.25272C3.15259 7.41547 3.03566 7.63975 3.007 7.883L3 8V10H6V7ZM11 7H8V10H11V7ZM16 7H13V10H16V7Z" fill="currentColor"/>
</svg>
