<svg width="24" height="24" viewBox="0 0 24 24" fill="none" xmlns="http://www.w3.org/2000/svg">
<path d="M9.243 3.03C8.98648 2.96768 8.71573 3.00932 8.48979 3.14583C8.26385 3.28235 8.10105 3.50266 8.0369 3.75873C7.97275 4.0148 8.01246 4.28584 8.14736 4.51275C8.28225 4.73966 8.5014 4.90402 8.757 4.97C9.092 5.054 9.463 5.331 9.842 5.826C10.054 6.105 10.242 6.416 10.404 6.727C9.69569 6.24491 8.85676 5.9912 8 6C6.464 6 5.184 6.633 4.305 7.672C3.439 8.695 3 10.061 3 11.5C2.99965 12.5664 3.30931 13.6099 3.8913 14.5035C4.47329 15.3971 5.30251 16.1022 6.278 16.533C5.97317 17.3052 5.91617 18.1531 6.1149 18.9592C6.31362 19.7653 6.75824 20.4895 7.38708 21.0315C8.01592 21.5736 8.79783 21.9065 9.62439 21.9842C10.4509 22.0618 11.2812 21.8804 12 21.465C12.7188 21.8804 13.5491 22.0618 14.3756 21.9842C15.2022 21.9065 15.9841 21.5736 16.6129 21.0315C17.2418 20.4895 17.6864 19.7653 17.8851 18.9592C18.0838 18.1531 18.0268 17.3052 17.722 16.533C18.6975 16.1022 19.5267 15.3971 20.1087 14.5035C20.6907 13.6099 21.0004 12.5664 21 11.5C21 10.061 20.561 8.695 19.695 7.672C18.815 6.633 17.536 6 16 6C15.026 6 14.236 6.294 13.596 6.727C13.758 6.417 13.946 6.105 14.158 5.827C14.537 5.331 14.908 5.054 15.243 4.97C15.3712 4.93886 15.492 4.88266 15.5983 4.80464C15.7047 4.72661 15.7946 4.62832 15.8628 4.5154C15.9311 4.40249 15.9763 4.27719 15.9958 4.14673C16.0154 4.01627 16.009 3.88323 15.977 3.75526C15.9449 3.62729 15.8878 3.50693 15.8091 3.40111C15.7303 3.29529 15.6313 3.20611 15.5179 3.13869C15.4045 3.07128 15.2789 3.02697 15.1483 3.00831C15.0177 2.98966 14.8847 2.99703 14.757 3.03C13.789 3.272 13.069 3.958 12.569 4.612C12.355 4.892 12.166 5.187 12 5.477C11.8294 5.17635 11.639 4.88738 11.43 4.612C10.93 3.958 10.211 3.272 9.243 3.03Z" fill="currentColor"/>
</svg>
