<svg width="24" height="24" viewBox="0 0 24 24" fill="none" xmlns="http://www.w3.org/2000/svg">
<path fill-rule="evenodd" clip-rule="evenodd" d="M11.9996 6.149C10.7106 5.016 9.22656 4.279 7.78256 4.016C6.15556 3.721 4.47656 4.021 3.30056 5.196C2.14756 6.35 1.83556 7.989 2.10356 9.585C2.34356 11.015 3.05256 12.491 4.15056 13.779C3.89807 14.7813 3.96243 15.8373 4.3348 16.8016C4.70717 17.7658 5.36923 18.591 6.22988 19.1635C7.09052 19.7359 8.10744 20.0276 9.14069 19.9983C10.1739 19.9691 11.1727 19.6203 11.9996 19C12.8265 19.6208 13.8255 19.97 14.8591 19.9995C15.8927 20.0289 16.91 19.7372 17.7709 19.1645C18.6318 18.5918 19.294 17.7663 19.6663 16.8016C20.0386 15.8369 20.1026 14.7806 19.8496 13.778C20.9466 12.49 21.6556 11.015 21.8946 9.584C22.1626 7.988 21.8506 6.35 20.6976 5.197C19.5216 4.021 17.8426 3.721 16.2156 4.017C14.7716 4.279 13.2876 5.017 11.9986 6.149" fill="currentColor"/>
</svg>
