<svg width="24" height="24" viewBox="0 0 24 24" fill="none" xmlns="http://www.w3.org/2000/svg">
<path fill-rule="evenodd" clip-rule="evenodd" d="M12 3C12.2652 3 12.5196 3.10536 12.7071 3.29289C12.8946 3.48043 13 3.73478 13 4V4.055C14.6897 4.24158 16.2914 4.90508 17.618 5.968L17.657 5.928C17.8446 5.74049 18.0991 5.6352 18.3644 5.6353C18.6296 5.63539 18.884 5.74086 19.0715 5.9285C19.259 6.11614 19.3643 6.37058 19.3642 6.63585C19.3641 6.90112 19.2586 7.15549 19.071 7.343L19.031 7.383C20.0945 8.7091 20.7587 10.3105 20.946 12H21C21.2652 12 21.5196 12.1054 21.7071 12.2929C21.8946 12.4804 22 12.7348 22 13C22 13.2652 21.8946 13.5196 21.7071 13.7071C21.5196 13.8946 21.2652 14 21 14H20.945C20.7584 15.6897 20.0949 17.2914 19.032 18.618L19.072 18.657C19.2595 18.8446 19.3648 19.0991 19.3647 19.3644C19.3646 19.6296 19.2591 19.884 19.0715 20.0715C18.8839 20.259 18.6294 20.3643 18.3641 20.3642C18.0989 20.3641 17.8445 20.2586 17.657 20.071L17.617 20.031C17.2227 20.3467 16.8026 20.6287 16.361 20.874C16.2126 20.9565 16.0457 20.9998 15.876 21H8.124C7.95426 20.9998 7.78735 20.9565 7.639 20.874C7.19712 20.6291 6.77664 20.3474 6.382 20.032L6.343 20.072C6.15536 20.2595 5.90092 20.3648 5.63565 20.3647C5.37038 20.3646 5.11601 20.2591 4.9285 20.0715C4.74099 19.8839 4.6357 19.6294 4.6358 19.3641C4.63589 19.0989 4.74136 18.8445 4.929 18.657L4.969 18.617C3.90553 17.2909 3.24134 15.6895 3.054 14H3C2.73478 14 2.48043 13.8946 2.29289 13.7071C2.10536 13.5196 2 13.2652 2 13C2 12.7348 2.10536 12.4804 2.29289 12.2929C2.48043 12.1054 2.73478 12 3 12H3.055C3.24152 10.3103 3.90503 8.70861 4.968 7.382L4.928 7.343C4.74062 7.15523 4.63552 6.90071 4.6358 6.63544C4.63594 6.50409 4.66195 6.37406 4.71234 6.25276C4.76273 6.13146 4.83652 6.02128 4.9295 5.9285C5.02248 5.83572 5.13282 5.76216 5.25422 5.71203C5.37562 5.66189 5.50571 5.63616 5.63706 5.6363C5.90233 5.63658 6.15662 5.74223 6.344 5.93L6.384 5.97C7.70971 4.9063 9.31071 4.24176 11 4.054V4C11 3.73478 11.1054 3.48043 11.2929 3.29289C11.4804 3.10536 11.7348 3 12 3ZM8.343 16C8.58561 17.0402 8.95258 18.0475 9.436 19H11.732C10.5561 17.1337 9.95466 14.963 10.0023 12.7577C10.05 10.5524 10.7446 8.40975 12 6.596C13.3033 8.47715 14.0011 10.7115 14 13C14 15.695 13.05 17.757 12.268 19H14.564C15.0479 18.0477 15.4149 17.0404 15.657 16H16.5C16.7652 16 17.0196 15.8946 17.2071 15.7071C17.3946 15.5196 17.5 15.2652 17.5 15C17.5 14.7348 17.3946 14.4804 17.2071 14.2929C17.0196 14.1054 16.7652 14 16.5 14H15.963C16.0086 13.387 16.012 12.7715 15.973 12.158C16.0086 12.1426 16.0433 12.1253 16.077 12.106L16.943 11.606C17.0576 11.5408 17.1583 11.4536 17.2391 11.3494C17.3199 11.2451 17.3793 11.126 17.4138 10.9987C17.4484 10.8714 17.4574 10.7386 17.4404 10.6078C17.4234 10.477 17.3807 10.3509 17.3148 10.2367C17.2488 10.1225 17.1609 10.0224 17.0562 9.94231C16.9514 9.86221 16.8318 9.80361 16.7043 9.7699C16.5768 9.73619 16.4439 9.72804 16.3133 9.7459C16.1826 9.76377 16.0568 9.8073 15.943 9.874L15.665 10.034C15.3674 8.74345 14.8791 7.50449 14.216 6.358C13.5014 6.12012 12.7531 5.99923 12 6C11.2469 5.99935 10.4986 6.12024 9.784 6.358C9.12023 7.50414 8.63181 8.74321 8.335 10.034L8.057 9.874C7.82744 9.74348 7.55558 9.70906 7.30074 9.77825C7.04589 9.84744 6.82876 10.0146 6.69673 10.2433C6.56469 10.472 6.52847 10.7436 6.59596 10.9989C6.66346 11.2542 6.82919 11.4724 7.057 11.606L7.923 12.106C7.957 12.126 7.991 12.143 8.026 12.158C7.98736 12.7715 7.99103 13.387 8.037 14H7.5C7.23478 14 6.98043 14.1054 6.79289 14.2929C6.60536 14.4804 6.5 14.7348 6.5 15C6.5 15.2652 6.60536 15.5196 6.79289 15.7071C6.98043 15.8946 7.23478 16 7.5 16H8.343Z" fill="currentColor"/>
</svg>
