<svg width="24" height="24" viewBox="0 0 24 24" fill="none" xmlns="http://www.w3.org/2000/svg">
<path d="M17.707 15.707C17.7455 15.6685 17.7911 15.6379 17.8414 15.6171C17.8917 15.5962 17.9456 15.5855 18 15.5855C18.0544 15.5855 18.1083 15.5962 18.1586 15.6171C18.2089 15.6379 18.2545 15.6685 18.293 15.707C18.6406 16.0546 19.086 16.2879 19.5697 16.3757C20.0535 16.4634 20.5524 16.4014 21 16.198V20C21.2652 20 21.5196 20.1054 21.7071 20.2929C21.8946 20.4804 22 20.7348 22 21C22 21.2652 21.8946 21.5196 21.7071 21.7071C21.5196 21.8946 21.2652 22 21 22H3C2.73478 22 2.48043 21.8946 2.29289 21.7071C2.10536 21.5196 2 21.2652 2 21C2 20.7348 2.10536 20.4804 2.29289 20.2929C2.48043 20.1054 2.73478 20 3 20V16.198C3.89 16.603 4.975 16.439 5.707 15.708C5.74545 15.6695 5.79112 15.6389 5.8414 15.6181C5.89168 15.5972 5.94557 15.5865 6 15.5865C6.05443 15.5865 6.10832 15.5972 6.1586 15.6181C6.20888 15.6389 6.25455 15.6695 6.293 15.708C6.51716 15.9322 6.78329 16.11 7.07617 16.2313C7.36906 16.3526 7.68298 16.4151 8 16.4151C8.31702 16.4151 8.63094 16.3526 8.92383 16.2313C9.21672 16.11 9.48284 15.9322 9.707 15.708C9.74545 15.6695 9.79112 15.6389 9.8414 15.6181C9.89168 15.5972 9.94557 15.5865 10 15.5865C10.0544 15.5865 10.1083 15.5972 10.1586 15.6181C10.2089 15.6389 10.2545 15.6695 10.293 15.708C10.5172 15.9322 10.7833 16.11 11.0762 16.2313C11.3691 16.3526 11.683 16.4151 12 16.4151C12.317 16.4151 12.6309 16.3526 12.9238 16.2313C13.2167 16.11 13.4828 15.9322 13.707 15.708C13.7455 15.6695 13.7911 15.6389 13.8414 15.6181C13.8917 15.5972 13.9456 15.5865 14 15.5865C14.0544 15.5865 14.1083 15.5972 14.1586 15.6181C14.2089 15.6389 14.2545 15.6695 14.293 15.708C14.5172 15.9322 14.7833 16.11 15.0762 16.2313C15.3691 16.3526 15.683 16.4151 16 16.4151C16.317 16.4151 16.6309 16.3526 16.9238 16.2313C17.2167 16.11 17.4828 15.9322 17.707 15.708V15.707ZM16 6C16.2652 6 16.5196 6.10536 16.7071 6.29289C16.8946 6.48043 17 6.73478 17 7V9H18C18.7956 9 19.5587 9.31607 20.1213 9.87868C20.6839 10.4413 21 11.2044 21 12V13.586L20.293 14.293C20.2545 14.3315 20.2089 14.3621 20.1586 14.3829C20.1083 14.4038 20.0544 14.4145 20 14.4145C19.9456 14.4145 19.8917 14.4038 19.8414 14.3829C19.7911 14.3621 19.7455 14.3315 19.707 14.293C19.4828 14.0688 19.2167 13.891 18.9238 13.7697C18.6309 13.6484 18.317 13.5859 18 13.5859C17.683 13.5859 17.3691 13.6484 17.0762 13.7697C16.7833 13.891 16.5172 14.0688 16.293 14.293C16.2545 14.3315 16.2089 14.3621 16.1586 14.3829C16.1083 14.4038 16.0544 14.4145 16 14.4145C15.9456 14.4145 15.8917 14.4038 15.8414 14.3829C15.7911 14.3621 15.7455 14.3315 15.707 14.293C15.4828 14.0688 15.2167 13.891 14.9238 13.7697C14.6309 13.6484 14.317 13.5859 14 13.5859C13.683 13.5859 13.3691 13.6484 13.0762 13.7697C12.7833 13.891 12.5172 14.0688 12.293 14.293C12.2545 14.3315 12.2089 14.3621 12.1586 14.3829C12.1083 14.4038 12.0544 14.4145 12 14.4145C11.9456 14.4145 11.8917 14.4038 11.8414 14.3829C11.7911 14.3621 11.7455 14.3315 11.707 14.293C11.4828 14.0688 11.2167 13.891 10.9238 13.7697C10.6309 13.6484 10.317 13.5859 10 13.5859C9.68298 13.5859 9.36906 13.6484 9.07617 13.7697C8.78328 13.891 8.51716 14.0688 8.293 14.293C8.25455 14.3315 8.20888 14.3621 8.1586 14.3829C8.10832 14.4038 8.05443 14.4145 8 14.4145C7.94557 14.4145 7.89168 14.4038 7.8414 14.3829C7.79112 14.3621 7.74545 14.3315 7.707 14.293C7.48284 14.0688 7.21671 13.891 6.92383 13.7697C6.63094 13.6484 6.31702 13.5859 6 13.5859C5.68298 13.5859 5.36906 13.6484 5.07617 13.7697C4.78329 13.891 4.51716 14.0688 4.293 14.293C4.25455 14.3315 4.20888 14.3621 4.1586 14.3829C4.10832 14.4038 4.05443 14.4145 4 14.4145C3.94557 14.4145 3.89168 14.4038 3.8414 14.3829C3.79112 14.3621 3.74545 14.3315 3.707 14.293L3 13.586V12C3 11.2044 3.31607 10.4413 3.87868 9.87868C4.44129 9.31607 5.20435 9 6 9H7V7C7 6.73478 7.10536 6.48043 7.29289 6.29289C7.48043 6.10536 7.73478 6 8 6C8.26522 6 8.51957 6.10536 8.70711 6.29289C8.89464 6.48043 9 6.73478 9 7V9H11V7C11 6.73478 11.1054 6.48043 11.2929 6.29289C11.4804 6.10536 11.7348 6 12 6C12.2652 6 12.5196 6.10536 12.7071 6.29289C12.8946 6.48043 13 6.73478 13 7V9H15V7C15 6.73478 15.1054 6.48043 15.2929 6.29289C15.4804 6.10536 15.7348 6 16 6ZM12.5 2C12.181 2.638 12.472 3.05 12.725 3.41C12.869 3.613 13 3.8 13 4C13 4.26522 12.8946 4.51957 12.7071 4.70711C12.5196 4.89464 12.2652 5 12 5C11.7348 5 11.4804 4.89464 11.2929 4.70711C11.1054 4.51957 11 4.26522 11 4C11 3.448 11.5 2.5 12.5 2ZM8.5 2C8.181 2.638 8.472 3.05 8.725 3.41C8.869 3.613 9 3.8 9 4C9 4.26522 8.89464 4.51957 8.70711 4.70711C8.51957 4.89464 8.26522 5 8 5C7.73478 5 7.48043 4.89464 7.29289 4.70711C7.10536 4.51957 7 4.26522 7 4C7 3.448 7.5 2.5 8.5 2ZM16.5 2C16.181 2.638 16.472 3.05 16.725 3.41C16.869 3.613 17 3.8 17 4C17 4.26522 16.8946 4.51957 16.7071 4.70711C16.5196 4.89464 16.2652 5 16 5C15.7348 5 15.4804 4.89464 15.2929 4.70711C15.1054 4.51957 15 4.26522 15 4C15 3.448 15.5 2.5 16.5 2Z" fill="currentColor"/>
</svg>
