<svg width="24" height="24" viewBox="0 0 24 24" fill="none" xmlns="http://www.w3.org/2000/svg">
<path fill-rule="evenodd" clip-rule="evenodd" d="M16 3C16.2652 3 16.5196 3.10536 16.7071 3.29289C16.8946 3.48043 17 3.73478 17 4V5H19C19.5304 5 20.0391 5.21071 20.4142 5.58579C20.7893 5.96086 21 6.46957 21 7V19C21 19.5304 20.7893 20.0391 20.4142 20.4142C20.0391 20.7893 19.5304 21 19 21H5C4.46957 21 3.96086 20.7893 3.58579 20.4142C3.21071 20.0391 3 19.5304 3 19V7C3 6.46957 3.21071 5.96086 3.58579 5.58579C3.96086 5.21071 4.46957 5 5 5H7V4C7 3.73478 7.10536 3.48043 7.29289 3.29289C7.48043 3.10536 7.73478 3 8 3C8.26522 3 8.51957 3.10536 8.70711 3.29289C8.89464 3.48043 9 3.73478 9 4V5H15V4C15 3.73478 15.1054 3.48043 15.2929 3.29289C15.4804 3.10536 15.7348 3 16 3ZM8.01 16H8C7.74512 16.0003 7.49997 16.0979 7.31463 16.2728C7.1293 16.4478 7.01777 16.687 7.00283 16.9414C6.98789 17.1958 7.07067 17.4464 7.23426 17.6418C7.39786 17.8373 7.6299 17.9629 7.883 17.993L8.01 18C8.27522 18 8.52957 17.8946 8.71711 17.7071C8.90464 17.5196 9.01 17.2652 9.01 17C9.01 16.7348 8.90464 16.4804 8.71711 16.2929C8.52957 16.1054 8.27522 16 8.01 16ZM12.01 16H12C11.7451 16.0003 11.5 16.0979 11.3146 16.2728C11.1293 16.4478 11.0178 16.687 11.0028 16.9414C10.9879 17.1958 11.0707 17.4464 11.2343 17.6418C11.3979 17.8373 11.6299 17.9629 11.883 17.993L12.01 18C12.2752 18 12.5296 17.8946 12.7171 17.7071C12.9046 17.5196 13.01 17.2652 13.01 17C13.01 16.7348 12.9046 16.4804 12.7171 16.2929C12.5296 16.1054 12.2752 16 12.01 16ZM16.01 16H16C15.7451 16.0003 15.5 16.0979 15.3146 16.2728C15.1293 16.4478 15.0178 16.687 15.0028 16.9414C14.9879 17.1958 15.0707 17.4464 15.2343 17.6418C15.3979 17.8373 15.6299 17.9629 15.883 17.993L16.01 18C16.2752 18 16.5296 17.8946 16.7171 17.7071C16.9046 17.5196 17.01 17.2652 17.01 17C17.01 16.7348 16.9046 16.4804 16.7171 16.2929C16.5296 16.1054 16.2752 16 16.01 16ZM8.01 12H8C7.74512 12.0003 7.49997 12.0979 7.31463 12.2728C7.1293 12.4478 7.01777 12.687 7.00283 12.9414C6.98789 13.1958 7.07067 13.4464 7.23426 13.6418C7.39786 13.8373 7.6299 13.9629 7.883 13.993L8.01 14C8.27522 14 8.52957 13.8946 8.71711 13.7071C8.90464 13.5196 9.01 13.2652 9.01 13C9.01 12.7348 8.90464 12.4804 8.71711 12.2929C8.52957 12.1054 8.27522 12 8.01 12ZM12.01 12H12C11.7451 12.0003 11.5 12.0979 11.3146 12.2728C11.1293 12.4478 11.0178 12.687 11.0028 12.9414C10.9879 13.1958 11.0707 13.4464 11.2343 13.6418C11.3979 13.8373 11.6299 13.9629 11.883 13.993L12.01 14C12.2752 14 12.5296 13.8946 12.7171 13.7071C12.9046 13.5196 13.01 13.2652 13.01 13C13.01 12.7348 12.9046 12.4804 12.7171 12.2929C12.5296 12.1054 12.2752 12 12.01 12ZM16.01 12H16C15.7451 12.0003 15.5 12.0979 15.3146 12.2728C15.1293 12.4478 15.0178 12.687 15.0028 12.9414C14.9879 13.1958 15.0707 13.4464 15.2343 13.6418C15.3979 13.8373 15.6299 13.9629 15.883 13.993L16.01 14C16.2752 14 16.5296 13.8946 16.7171 13.7071C16.9046 13.5196 17.01 13.2652 17.01 13C17.01 12.7348 16.9046 12.4804 16.7171 12.2929C16.5296 12.1054 16.2752 12 16.01 12ZM19 7H5V9H19V7Z" fill="currentColor"/>
</svg>
