<svg width="24" height="24" viewBox="0 0 24 24" fill="none" xmlns="http://www.w3.org/2000/svg">
<path fill-rule="evenodd" clip-rule="evenodd" d="M16 3C16.2652 3 16.5196 3.10536 16.7071 3.29289C16.8946 3.48043 17 3.73478 17 4V5H19C19.5304 5 20.0391 5.21071 20.4142 5.58579C20.7893 5.96086 21 6.46957 21 7V12.528C19.8569 11.5062 18.366 10.9607 16.8334 11.0036C15.3008 11.0465 13.8428 11.6745 12.7586 12.7586C11.6745 13.8428 11.0465 15.3008 11.0036 16.8334C10.9607 18.366 11.5062 19.8569 12.528 21H5C4.46957 21 3.96086 20.7893 3.58579 20.4142C3.21071 20.0391 3 19.5304 3 19V7C3 6.46957 3.21071 5.96086 3.58579 5.58579C3.96086 5.21071 4.46957 5 5 5H7V4C7 3.73478 7.10536 3.48043 7.29289 3.29289C7.48043 3.10536 7.73478 3 8 3C8.26522 3 8.51957 3.10536 8.70711 3.29289C8.89464 3.48043 9 3.73478 9 4V5H15V4C15 3.73478 15.1054 3.48043 15.2929 3.29289C15.4804 3.10536 15.7348 3 16 3ZM17 13C18.0609 13 19.0783 13.4214 19.8284 14.1716C20.5786 14.9217 21 15.9391 21 17C21 18.0609 20.5786 19.0783 19.8284 19.8284C19.0783 20.5786 18.0609 21 17 21C15.9391 21 14.9217 20.5786 14.1716 19.8284C13.4214 19.0783 13 18.0609 13 17C13 15.9391 13.4214 14.9217 14.1716 14.1716C14.9217 13.4214 15.9391 13 17 13ZM17 14.5C16.7551 14.5 16.5187 14.59 16.3356 14.7527C16.1526 14.9155 16.0357 15.1397 16.007 15.383L16 15.5V17C16 17.2449 16.09 17.4813 16.2527 17.6644C16.4155 17.8474 16.6397 17.9643 16.883 17.993L17 18H18C18.2549 17.9997 18.5 17.9021 18.6854 17.7272C18.8707 17.5522 18.9822 17.313 18.9972 17.0586C19.0121 16.8042 18.9293 16.5536 18.7657 16.3582C18.6021 16.1627 18.3701 16.0371 18.117 16.007L18 16V15.5C18 15.2348 17.8946 14.9804 17.7071 14.7929C17.5196 14.6054 17.2652 14.5 17 14.5ZM8.5 14H8C7.73478 14 7.48043 14.1054 7.29289 14.2929C7.10536 14.4804 7 14.7348 7 15C7 15.2652 7.10536 15.5196 7.29289 15.7071C7.48043 15.8946 7.73478 16 8 16H8.5C8.76522 16 9.01957 15.8946 9.20711 15.7071C9.39464 15.5196 9.5 15.2652 9.5 15C9.5 14.7348 9.39464 14.4804 9.20711 14.2929C9.01957 14.1054 8.76522 14 8.5 14ZM11 10H8C7.74512 10.0003 7.49997 10.0979 7.31463 10.2728C7.1293 10.4478 7.01777 10.687 7.00283 10.9414C6.98789 11.1958 7.07067 11.4464 7.23426 11.6418C7.39786 11.8373 7.6299 11.9629 7.883 11.993L8 12H11C11.2549 11.9997 11.5 11.9021 11.6854 11.7272C11.8707 11.5522 11.9822 11.313 11.9972 11.0586C12.0121 10.8042 11.9293 10.5536 11.7657 10.3582C11.6021 10.1627 11.3701 10.0371 11.117 10.007L11 10Z" fill="currentColor"/>
</svg>
