<svg width="24" height="24" viewBox="0 0 24 24" fill="none" xmlns="http://www.w3.org/2000/svg">
<path d="M19 3C19.5304 3 20.0391 3.21071 20.4142 3.58579C20.7893 3.96086 21 4.46957 21 5V19C21 19.5304 20.7893 20.0391 20.4142 20.4142C20.0391 20.7893 19.5304 21 19 21H5C4.46957 21 3.96086 20.7893 3.58579 20.4142C3.21071 20.0391 3 19.5304 3 19V5C3 4.46957 3.21071 3.96086 3.58579 3.58579C3.96086 3.21071 4.46957 3 5 3H19ZM16 11H8C7.75507 11 7.51866 11.09 7.33563 11.2527C7.15259 11.4155 7.03566 11.6397 7.007 11.883L7 12V16C7.00003 16.2449 7.08996 16.4813 7.25272 16.6644C7.41547 16.8474 7.63975 16.9643 7.883 16.993L8 17H16C16.2449 17 16.4813 16.91 16.6644 16.7473C16.8474 16.5845 16.9643 16.3603 16.993 16.117L17 16V12C17 11.7551 16.91 11.5187 16.7473 11.3356C16.5845 11.1526 16.3603 11.0357 16.117 11.007L16 11ZM15 13V15H9V13H15ZM16 7H8C7.73478 7 7.48043 7.10536 7.29289 7.29289C7.10536 7.48043 7 7.73478 7 8C7 8.26522 7.10536 8.51957 7.29289 8.70711C7.48043 8.89464 7.73478 9 8 9H16C16.2652 9 16.5196 8.89464 16.7071 8.70711C16.8946 8.51957 17 8.26522 17 8C17 7.73478 16.8946 7.48043 16.7071 7.29289C16.5196 7.10536 16.2652 7 16 7Z" fill="currentColor"/>
</svg>
