<svg width="24" height="24" viewBox="0 0 24 24" fill="none" xmlns="http://www.w3.org/2000/svg">
<path d="M21 8V19C21 19.5304 20.7893 20.0391 20.4142 20.4142C20.0391 20.7893 19.5304 21 19 21H5C4.46957 21 3.96086 20.7893 3.58579 20.4142C3.21071 20.0391 3 19.5304 3 19V8H21ZM8.5 15H7.5C7.24512 15.0003 6.99997 15.0979 6.81463 15.2728C6.6293 15.4478 6.51777 15.687 6.50283 15.9414C6.48789 16.1958 6.57067 16.4464 6.73426 16.6418C6.89786 16.8373 7.1299 16.9629 7.383 16.993L7.5 17H8.5C8.75488 16.9997 9.00003 16.9021 9.18537 16.7272C9.3707 16.5522 9.48224 16.313 9.49717 16.0586C9.51211 15.8042 9.42933 15.5536 9.26574 15.3582C9.10215 15.1627 8.8701 15.0371 8.617 15.007L8.5 15ZM12.5 15H11.5C11.2348 15 10.9804 15.1054 10.7929 15.2929C10.6054 15.4804 10.5 15.7348 10.5 16C10.5 16.2652 10.6054 16.5196 10.7929 16.7071C10.9804 16.8946 11.2348 17 11.5 17H12.5C12.7652 17 13.0196 16.8946 13.2071 16.7071C13.3946 16.5196 13.5 16.2652 13.5 16C13.5 15.7348 13.3946 15.4804 13.2071 15.2929C13.0196 15.1054 12.7652 15 12.5 15ZM8.5 11H7.5C7.23478 11 6.98043 11.1054 6.79289 11.2929C6.60536 11.4804 6.5 11.7348 6.5 12C6.5 12.2652 6.60536 12.5196 6.79289 12.7071C6.98043 12.8946 7.23478 13 7.5 13H8.5C8.76522 13 9.01957 12.8946 9.20711 12.7071C9.39464 12.5196 9.5 12.2652 9.5 12C9.5 11.7348 9.39464 11.4804 9.20711 11.2929C9.01957 11.1054 8.76522 11 8.5 11ZM12.5 11H11.5C11.2451 11.0003 11 11.0979 10.8146 11.2728C10.6293 11.4478 10.5178 11.687 10.5028 11.9414C10.4879 12.1958 10.5707 12.4464 10.7343 12.6418C10.8979 12.8373 11.1299 12.9629 11.383 12.993L11.5 13H12.5C12.7549 12.9997 13 12.9021 13.1854 12.7272C13.3707 12.5522 13.4822 12.313 13.4972 12.0586C13.5121 11.8042 13.4293 11.5536 13.2657 11.3582C13.1021 11.1627 12.8701 11.0371 12.617 11.007L12.5 11ZM16.5 11H15.5C15.2348 11 14.9804 11.1054 14.7929 11.2929C14.6054 11.4804 14.5 11.7348 14.5 12C14.5 12.2652 14.6054 12.5196 14.7929 12.7071C14.9804 12.8946 15.2348 13 15.5 13H16.5C16.7652 13 17.0196 12.8946 17.2071 12.7071C17.3946 12.5196 17.5 12.2652 17.5 12C17.5 11.7348 17.3946 11.4804 17.2071 11.2929C17.0196 11.1054 16.7652 11 16.5 11ZM19 3C19.5304 3 20.0391 3.21071 20.4142 3.58579C20.7893 3.96086 21 4.46957 21 5V6H3V5C3 4.46957 3.21071 3.96086 3.58579 3.58579C3.96086 3.21071 4.46957 3 5 3H19Z" fill="currentColor"/>
</svg>
