<svg width="24" height="24" viewBox="0 0 24 24" fill="none" xmlns="http://www.w3.org/2000/svg">
<path d="M18.0001 3C18.5046 2.99984 18.9906 3.19041 19.3606 3.5335C19.7306 3.87659 19.9572 4.34684 19.9951 4.85L20.0001 5V7H20.1911C20.4356 6.99992 20.6764 7.05963 20.8926 7.17391C21.1088 7.2882 21.2937 7.4536 21.4314 7.65571C21.569 7.85782 21.6551 8.09051 21.6823 8.33353C21.7094 8.57654 21.6767 8.82251 21.5871 9.05L21.5331 9.17L20.0001 12.237V19C20.0002 19.5046 19.8097 19.9906 19.4666 20.3605C19.1235 20.7305 18.6532 20.9572 18.1501 20.995L18.0001 21H6.00006C5.49566 20.9999 5.00991 20.8092 4.64014 20.4662C4.27038 20.1231 4.04389 19.653 4.00606 19.15L4.00006 19V12.236L2.46706 9.171C2.35771 8.95229 2.30349 8.71016 2.30911 8.4657C2.31474 8.22124 2.38004 7.98186 2.49934 7.76841C2.61863 7.55496 2.7883 7.37391 2.99357 7.24103C3.19884 7.10815 3.43348 7.02746 3.67706 7.006L3.81006 7H4.00006V5C3.9999 4.49542 4.19047 4.00943 4.53356 3.63945C4.87665 3.26947 5.3469 3.04284 5.85006 3.005L6.00006 3H18.0001ZM10.5001 12.016C10.5002 11.8536 10.4611 11.6936 10.3863 11.5495C10.3114 11.4054 10.2028 11.2815 10.0699 11.1883C9.9369 11.095 9.78342 11.0352 9.62243 11.014C9.46143 10.9927 9.29768 11.0105 9.14506 11.066L9.03806 11.113L8.05306 11.606C7.8609 11.7021 7.7048 11.8575 7.60788 12.0493C7.51096 12.241 7.47838 12.4589 7.51496 12.6706C7.55153 12.8823 7.65532 13.0766 7.81096 13.2248C7.96659 13.3729 8.16579 13.4669 8.37906 13.493L8.50006 13.5V16C8.50034 16.2549 8.59794 16.5 8.77291 16.6854C8.94788 16.8707 9.18701 16.9822 9.44145 16.9972C9.6959 17.0121 9.94644 16.9293 10.1419 16.7657C10.3373 16.6021 10.463 16.3701 10.4931 16.117L10.5001 16V12.016ZM14.5001 11H13.5001C12.9955 10.9998 12.5095 11.1904 12.1395 11.5335C11.7695 11.8766 11.5429 12.3468 11.5051 12.85L11.5001 13V15C11.4999 15.5046 11.6905 15.9906 12.0336 16.3605C12.3766 16.7305 12.8469 16.9572 13.3501 16.995L13.5001 17H14.5001C15.0046 17.0002 15.4906 16.8096 15.8606 16.4665C16.2306 16.1234 16.4572 15.6532 16.4951 15.15L16.5001 15V13C16.5002 12.4954 16.3097 12.0094 15.9666 11.6395C15.6235 11.2695 15.1532 11.0428 14.6501 11.005L14.5001 11ZM14.5001 13V15H13.5001V13H14.5001ZM18.0001 5H6.00006V7H18.0001V5Z" fill="currentColor"/>
</svg>
