<svg width="24" height="24" viewBox="0 0 24 24" fill="none" xmlns="http://www.w3.org/2000/svg">
<path d="M1.51544 2.515C1.68751 2.34267 1.91654 2.23906 2.15957 2.22359C2.4026 2.20813 2.64292 2.28187 2.83544 2.431L2.92944 2.515L4.41444 4H16.0004C16.505 3.99984 16.991 4.1904 17.361 4.53349C17.731 4.87659 17.9576 5.34684 17.9954 5.85L18.0004 6V8.21L20.0944 6.92C20.2751 6.80866 20.4811 6.74514 20.693 6.73542C20.905 6.72569 21.116 6.77009 21.306 6.86442C21.4961 6.95876 21.659 7.09992 21.7795 7.27462C21.8999 7.44932 21.9739 7.65181 21.9944 7.863L22.0004 7.983V16.017C22.0004 16.2292 21.9463 16.4378 21.8433 16.6233C21.7403 16.8088 21.5917 16.9651 21.4117 17.0773C21.2316 17.1895 21.0259 17.2541 20.814 17.2649C20.6021 17.2757 20.391 17.2324 20.2004 17.139L20.0944 17.081L18.0004 15.79V17.584L19.4854 19.07C19.6648 19.25 19.7689 19.4914 19.7767 19.7454C19.7844 19.9993 19.6952 20.2467 19.5272 20.4373C19.3592 20.6278 19.1249 20.7473 18.872 20.7714C18.619 20.7955 18.3664 20.7224 18.1654 20.567L18.0714 20.484L1.51544 3.93C1.32797 3.74247 1.22266 3.48816 1.22266 3.223C1.22266 2.95783 1.32797 2.70253 1.51544 2.515ZM2.00044 7.247L14.7544 20H4.00044C3.47001 20 2.9613 19.7893 2.58623 19.4142C2.21116 19.0391 2.00044 18.5304 2.00044 18V7.247Z" fill="currentColor"/>
</svg>
