<svg width="24" height="24" viewBox="0 0 24 24" fill="none" xmlns="http://www.w3.org/2000/svg">
<path d="M17.0541 4.396C17.7932 4.19783 18.58 4.28956 19.2537 4.65242C19.9274 5.01528 20.4369 5.62183 20.6781 6.348L20.7281 6.517L21.7631 10.381C21.8936 10.8681 21.8353 11.3866 21.5998 11.8326C21.3643 12.2786 20.969 12.6191 20.4931 12.786L20.3491 12.83L17.9991 13.46V15C17.9992 15.2451 18.0892 15.4816 18.2522 15.6647C18.4152 15.8477 18.6397 15.9646 18.8831 15.993L19.0001 16H20.0001C20.0004 15.7451 20.098 15.5 20.2729 15.3146C20.4479 15.1293 20.6871 15.0178 20.9415 15.0028C21.1959 14.9879 21.4465 15.0707 21.6419 15.2343C21.8374 15.3979 21.963 15.6299 21.9931 15.883L22.0001 16V18C21.9998 18.2549 21.9022 18.5 21.7273 18.6854C21.5523 18.8707 21.3131 18.9822 21.0587 18.9972C20.8043 19.0121 20.5537 18.9293 20.3583 18.7657C20.1628 18.6021 20.0372 18.3701 20.0071 18.117L20.0001 18H19.0001C18.2349 18 17.4986 17.7077 16.9418 17.1827C16.3851 16.6578 16.05 15.9399 16.0051 15.176L16.0001 15V13.996L9.4871 15.74C9.09462 15.8452 8.67942 15.8283 8.29676 15.6916C7.91411 15.555 7.58216 15.305 7.3451 14.975L7.2541 14.836L4.2391 9.81C4.12548 9.6206 4.05509 9.40845 4.03295 9.1887C4.01081 8.96895 4.03747 8.74703 4.11103 8.53877C4.18458 8.33052 4.30322 8.14108 4.45847 7.98399C4.61371 7.82689 4.80173 7.70602 5.0091 7.63L5.1371 7.59L17.0541 4.396ZM4.2021 10.666L5.8271 13.416C5.95539 13.6439 5.9893 13.9129 5.92158 14.1655C5.85386 14.4181 5.68989 14.6341 5.46481 14.7673C5.23973 14.9004 4.97146 14.9401 4.71748 14.8778C4.4635 14.8155 4.24403 14.6562 4.1061 14.434L2.4811 11.684C2.35593 11.4563 2.32431 11.1888 2.39292 10.9382C2.46153 10.6876 2.62499 10.4735 2.84868 10.3414C3.07237 10.2092 3.33873 10.1692 3.59135 10.23C3.84397 10.2908 4.06302 10.4465 4.2021 10.666Z" fill="currentColor"/>
</svg>
