<svg width="24" height="24" viewBox="0 0 24 24" fill="none" xmlns="http://www.w3.org/2000/svg">
<path d="M4 4C3.46957 4 2.96086 4.21071 2.58579 4.58579C2.21071 4.96086 2 5.46957 2 6V18C2 18.5304 2.21071 19.0391 2.58579 19.4142C2.96086 19.7893 3.46957 20 4 20H16C16.5304 20 17.0391 19.7893 17.4142 19.4142C17.7893 19.0391 18 18.5304 18 18V15.79L20.094 17.08C20.2832 17.1967 20.5002 17.2608 20.7224 17.2657C20.9447 17.2706 21.1642 17.2161 21.3584 17.1079C21.5526 16.9997 21.7144 16.8417 21.8272 16.6501C21.94 16.4585 21.9996 16.2403 22 16.018V7.984C22.0002 7.76144 21.9409 7.54286 21.8284 7.35086C21.7158 7.15885 21.554 7.00039 21.3597 6.89182C21.1654 6.78326 20.9457 6.72854 20.7232 6.73332C20.5007 6.7381 20.2835 6.8022 20.094 6.919L18 8.21V6C18 5.46957 17.7893 4.96086 17.4142 4.58579C17.0391 4.21071 16.5304 4 16 4H4Z" fill="currentColor"/>
</svg>
