<svg width="24" height="24" viewBox="0 0 24 24" fill="none" xmlns="http://www.w3.org/2000/svg">
<path fill-rule="evenodd" clip-rule="evenodd" d="M2.515 2.515C2.68707 2.34267 2.9161 2.23906 3.15913 2.22359C3.40216 2.20813 3.64248 2.28187 3.835 2.431L3.929 2.515L6.415 5H6.585L8.146 3.44C8.3911 3.19442 8.71375 3.0414 9.059 3.007L9.207 3H14.793C15.1394 3.00023 15.4751 3.12036 15.743 3.34L15.853 3.44L17.415 5H20C20.5046 4.99984 20.9906 5.1904 21.3605 5.53349C21.7305 5.87659 21.9572 6.34684 21.995 6.85L22 7V19C22 19.383 21.892 19.74 21.706 20.045L21.606 20.192L21.987 20.572C22.1683 20.7515 22.274 20.9936 22.2827 21.2485C22.2913 21.5035 22.2022 21.7522 22.0335 21.9436C21.8649 22.135 21.6294 22.2547 21.3754 22.2782C21.1213 22.3017 20.8679 22.2272 20.667 22.07L20.573 21.987L2.515 3.93C2.32753 3.74247 2.22221 3.48816 2.22221 3.223C2.22221 2.95783 2.32753 2.70253 2.515 2.515ZM2.107 6.354L7.127 11.375C6.93557 12.2018 6.95772 13.0637 7.19138 13.8795C7.42504 14.6954 7.86251 15.4383 8.4626 16.0384C9.06268 16.6385 9.80563 17.076 10.6215 17.3096C11.4373 17.5433 12.2992 17.5654 13.126 17.374L16.753 21H4C3.46957 21 2.96086 20.7893 2.58579 20.4142C2.21071 20.0391 2 19.5304 2 19V7C2 6.774 2.038 6.557 2.107 6.354ZM12 7.5C11.111 7.5 10.277 7.732 9.553 8.139L11.063 9.649C11.5903 9.47561 12.1553 9.45191 12.6953 9.58053C13.2353 9.70916 13.729 9.98506 14.1214 10.3776C14.5139 10.77 14.7898 11.2637 14.9185 11.8037C15.0471 12.3436 15.0234 12.9087 14.85 13.436L16.361 14.947C16.788 14.1861 17.0085 13.3266 17.0005 12.4541C16.9925 11.5815 16.7563 10.7263 16.3153 9.97333C15.8744 9.22037 15.2441 8.59591 14.487 8.162C13.73 7.7281 12.8726 7.49988 12 7.5Z" fill="currentColor"/>
</svg>
