<svg width="24" height="24" viewBox="0 0 24 24" fill="none" xmlns="http://www.w3.org/2000/svg">
<path fill-rule="evenodd" clip-rule="evenodd" d="M14.586 3C15.1164 3.00011 15.625 3.2109 16 3.586L17.414 5H20C20.5304 5 21.0391 5.21071 21.4142 5.58579C21.7893 5.96086 22 6.46957 22 7V19C22 19.5304 21.7893 20.0391 21.4142 20.4142C21.0391 20.7893 20.5304 21 20 21H4C3.46957 21 2.96086 20.7893 2.58579 20.4142C2.21071 20.0391 2 19.5304 2 19V7C2 6.46957 2.21071 5.96086 2.58579 5.58579C2.96086 5.21071 3.46957 5 4 5H6.586L8 3.586C8.37499 3.2109 8.88361 3.00011 9.414 3H14.586ZM8.656 12.5C8.44253 12.4976 8.2339 12.5636 8.06063 12.6883C7.88735 12.813 7.75852 12.9898 7.693 13.193L7.048 15.193C7.00755 15.318 6.99211 15.4496 7.00256 15.5806C7.01301 15.7115 7.04914 15.8391 7.1089 15.956C7.16865 16.073 7.25086 16.177 7.35082 16.2622C7.45078 16.3474 7.56655 16.4121 7.6915 16.4525C7.81645 16.4929 7.94815 16.5084 8.07907 16.4979C8.20999 16.4875 8.33757 16.4514 8.45452 16.3916C8.69073 16.2709 8.86931 16.0614 8.951 15.809C9.44204 16.262 10.0278 16.6 10.6658 16.7983C11.3038 16.9966 11.978 17.0503 12.6393 16.9555C13.3007 16.8607 13.9326 16.6198 14.4892 16.2502C15.0457 15.8807 15.513 15.3917 15.857 14.819C15.9288 14.7064 15.9773 14.5806 15.9997 14.449C16.022 14.3174 16.0179 14.1827 15.9873 14.0527C15.9568 13.9228 15.9006 13.8002 15.8219 13.6923C15.7433 13.5845 15.6439 13.4934 15.5295 13.4246C15.4151 13.3557 15.2881 13.3105 15.156 13.2915C15.0238 13.2725 14.8892 13.2802 14.7601 13.3141C14.631 13.348 14.5099 13.4073 14.4041 13.4887C14.2983 13.5701 14.2099 13.6719 14.144 13.788C13.8939 14.2032 13.5286 14.5368 13.0926 14.7483C12.6565 14.9598 12.1683 15.04 11.6875 14.9793C11.2066 14.9187 10.7537 14.7196 10.3839 14.4064C10.014 14.0932 9.74308 13.6793 9.604 13.215C9.54311 13.0102 9.41821 12.8302 9.24761 12.7016C9.07701 12.5729 8.86967 12.5023 8.656 12.5ZM12 8C11.2235 7.99912 10.4601 8.19948 9.78411 8.58154C9.10815 8.9636 8.54273 9.51432 8.143 10.18C8.07524 10.2925 8.03031 10.4173 8.01077 10.5472C7.99124 10.6771 7.99748 10.8096 8.02914 10.9371C8.06081 11.0646 8.11727 11.1846 8.19532 11.2903C8.27336 11.396 8.37146 11.4852 8.484 11.553C8.59654 11.6208 8.72133 11.6657 8.85124 11.6852C8.98115 11.7048 9.11363 11.6985 9.24112 11.6669C9.36862 11.6352 9.48863 11.5787 9.5943 11.5007C9.69997 11.4226 9.78924 11.3245 9.857 11.212C10.0788 10.8418 10.3929 10.5356 10.7685 10.3231C11.1441 10.1107 11.5685 9.99936 12 10C13.131 10 14.09 10.752 14.397 11.785C14.4551 11.9799 14.5711 12.1524 14.7298 12.2796C14.8884 12.4068 15.082 12.4826 15.2848 12.4969C15.4876 12.5113 15.69 12.4635 15.865 12.3598C16.0399 12.2562 16.1791 12.1017 16.264 11.917L16.307 11.807L16.952 9.807C16.9924 9.68205 17.0079 9.55035 16.9974 9.41943C16.987 9.28851 16.9509 9.16093 16.8911 9.04398C16.8313 8.92702 16.7491 8.82298 16.6492 8.73779C16.5492 8.65261 16.4335 8.58795 16.3085 8.5475C16.1835 8.50705 16.0519 8.49161 15.9209 8.50206C15.79 8.51251 15.6624 8.54865 15.5455 8.6084C15.4285 8.66815 15.3245 8.75036 15.2393 8.85032C15.1541 8.95028 15.0894 9.06605 15.049 9.191C14.2191 8.42388 13.1301 7.9985 12 8Z" fill="currentColor"/>
</svg>
