<svg width="24" height="24" viewBox="0 0 24 24" fill="none" xmlns="http://www.w3.org/2000/svg">
<path fill-rule="evenodd" clip-rule="evenodd" d="M18.6636 15.058C18.9039 14.972 19.168 14.9812 19.4018 15.0836C19.6355 15.1861 19.8213 15.374 19.921 15.6089C20.0207 15.8439 20.0268 16.108 19.938 16.3473C19.8493 16.5866 19.6724 16.7829 19.4436 16.896L19.3356 16.942L14.9726 18.5L19.3356 20.058C19.5771 20.1428 19.7768 20.317 19.8937 20.5447C20.0106 20.7724 20.0358 21.0362 19.964 21.2819C19.8923 21.5275 19.729 21.7363 19.508 21.8653C19.2869 21.9942 19.0248 22.0335 18.7756 21.975L18.6636 21.942L11.9996 19.562L5.33563 21.942C5.09532 22.028 4.83125 22.0188 4.59749 21.9164C4.36373 21.8139 4.17798 21.626 4.07828 21.3911C3.97858 21.1561 3.97248 20.892 4.06122 20.6527C4.14997 20.4134 4.32685 20.2171 4.55563 20.104L4.66363 20.058L9.02663 18.5L4.66363 16.942C4.42217 16.8572 4.22243 16.683 4.10553 16.4553C3.98863 16.2276 3.96347 15.9638 4.03524 15.7181C4.107 15.4725 4.27022 15.2637 4.4913 15.1347C4.71237 15.0058 4.97447 14.9665 5.22363 15.025L5.33563 15.058L11.9996 17.438L18.6636 15.058ZM11.2296 2.892L11.9366 2.432L12.1566 2.299C12.6466 2.022 13.1866 1.839 13.6536 2.245C13.9336 2.487 14.0266 2.828 13.9766 3.175L13.9366 3.38L13.9216 3.52C13.9166 3.604 13.9166 3.709 13.9296 3.827C14.0156 4.598 14.5406 5.149 15.0846 5.648L15.5416 6.064L15.8836 6.387C16.6956 7.179 17.5916 8.247 17.9686 9.757C18.4226 11.571 17.9746 13.198 16.7866 14.344C15.6406 15.452 13.9206 16 11.9996 16C8.83063 16 5.99963 13.948 5.99963 10.5C5.99963 7.804 7.78163 5.675 9.34163 4.31C9.94002 3.79661 10.5714 3.32293 11.2316 2.892M12.2216 9.264L11.9996 9L11.7786 9.264L11.5416 9.565L11.3546 9.817L11.1546 10.101C10.6086 10.9 9.99963 11.997 9.99963 12.917C9.99963 14.067 10.8956 15 11.9996 15C13.1046 15 13.9996 14.067 13.9996 12.917C13.9996 11.997 13.3906 10.9 12.8446 10.101L12.6446 9.817L12.4576 9.565L12.2216 9.264Z" fill="currentColor"/>
</svg>
