<svg width="24" height="24" viewBox="0 0 24 24" fill="none" xmlns="http://www.w3.org/2000/svg">
<path fill-rule="evenodd" clip-rule="evenodd" d="M12.058 2.08001C11.9178 2.01997 11.7658 1.99277 11.6135 2.00049C11.4613 2.00821 11.3128 2.05066 11.1794 2.12457C11.0461 2.19849 10.9314 2.30192 10.8441 2.42696C10.7569 2.552 10.6994 2.69534 10.676 2.84601C10.6494 3.07427 10.5759 3.29455 10.46 3.49301C10.36 3.65801 10.21 3.82701 9.946 4.07301C9.426 4.55501 9.109 5.13201 9.024 5.75401C8.94987 6.32645 9.06432 6.90745 9.35 7.40901C9.842 8.29601 10.84 9.00001 11.903 9.00001C13.285 9.00001 15 8.03401 15 6.19401C15 5.25101 14.578 4.36501 14.054 3.68201C13.526 2.99501 12.811 2.40301 12.058 2.08101M9 10C8.46957 10 7.96086 10.2107 7.58579 10.5858C7.21071 10.9609 7 11.4696 7 12V20C7 20.5304 7.21071 21.0392 7.58579 21.4142C7.96086 21.7893 8.46957 22 9 22H15C15.5304 22 16.0391 21.7893 16.4142 21.4142C16.7893 21.0392 17 20.5304 17 20V12C17 11.4696 16.7893 10.9609 16.4142 10.5858C16.0391 10.2107 15.5304 10 15 10H9Z" fill="currentColor"/>
</svg>
