<svg width="24" height="24" viewBox="0 0 24 24" fill="none" xmlns="http://www.w3.org/2000/svg">
<path fill-rule="evenodd" clip-rule="evenodd" d="M14.7005 2.08C15.2525 2.477 15.6265 2.68 15.9735 2.794C16.3155 2.907 16.6955 2.956 17.2905 2.952C17.55 2.94997 17.8001 3.04887 17.988 3.22781C18.1759 3.40676 18.2869 3.65174 18.2975 3.911C18.3275 4.629 18.3895 5.072 18.5055 5.429C18.6155 5.766 18.7915 6.081 19.1345 6.502C19.2223 6.6097 19.2867 6.73452 19.3236 6.8685C19.3604 7.00248 19.369 7.14267 19.3487 7.28013C19.3283 7.4176 19.2796 7.54932 19.2055 7.66689C19.1315 7.78447 19.0337 7.88531 18.9185 7.963L18.8045 8.029C18.4825 8.192 18.1655 8.366 17.8515 8.544C18.9145 9.68376 19.6214 11.1092 19.8854 12.6452C20.1494 14.1812 19.959 15.7608 19.3376 17.1901C18.7161 18.6194 17.6908 19.836 16.3874 20.6906C15.0841 21.5451 13.5595 22.0003 12.001 22.0003C10.4425 22.0003 8.91789 21.5451 7.61453 20.6906C6.31118 19.836 5.28582 18.6194 4.6644 17.1901C4.04299 15.7608 3.85259 14.1812 4.11659 12.6452C4.3806 11.1092 5.08751 9.68376 6.15048 8.544C5.8362 8.364 5.51743 8.19194 5.19448 8.028C5.06046 7.96097 4.94321 7.86468 4.8514 7.74625C4.7596 7.62781 4.69559 7.49026 4.6641 7.34375C4.63261 7.19725 4.63445 7.04554 4.66948 6.89984C4.70451 6.75414 4.77183 6.61818 4.86648 6.502C5.20948 6.081 5.38648 5.766 5.49648 5.429C5.61148 5.072 5.67348 4.629 5.70348 3.911C5.71386 3.65156 5.82474 3.40633 6.01267 3.22717C6.2006 3.04802 6.45084 2.94898 6.71048 2.951C7.30548 2.956 7.68548 2.907 8.02748 2.794C8.37448 2.679 8.74848 2.477 9.29948 2.08C9.41703 1.99514 9.55162 1.93684 9.69394 1.90917C9.83625 1.88149 9.98288 1.88509 10.1237 1.91972C10.2644 1.95434 10.396 2.01917 10.5093 2.10969C10.6225 2.20022 10.7147 2.31429 10.7795 2.444C10.9675 2.819 11.1715 3.187 11.3815 3.552C11.5615 3.866 11.7715 4.216 12.0005 4.572C12.4389 3.88884 12.8437 3.18466 13.2135 2.462C13.3475 2.195 13.5855 1.992 13.8775 1.92C14.0182 1.88536 14.1648 1.88173 14.3071 1.90936C14.4494 1.93699 14.5839 1.99521 14.7015 2.08H14.7005ZM13.3335 10.228C13.0932 10.144 12.83 10.1548 12.5974 10.2582C12.3649 10.3615 12.1804 10.5497 12.0818 10.7843C11.9831 11.0188 11.9776 11.2822 12.0663 11.5208C12.1551 11.7593 12.3314 11.955 12.5595 12.068L12.6675 12.113C12.9227 12.2038 13.1569 12.3451 13.356 12.5287C13.5552 12.7122 13.7152 12.9341 13.8265 13.181L13.8865 13.333C13.9302 13.4568 13.9979 13.5708 14.0857 13.6685C14.1735 13.7662 14.2797 13.8456 14.3981 13.9023C14.5166 13.9589 14.6451 13.9917 14.7763 13.9987C14.9074 14.0056 15.0386 13.9867 15.1625 13.943C15.2863 13.8993 15.4003 13.8316 15.498 13.7438C15.5957 13.656 15.6751 13.5498 15.7317 13.4313C15.7884 13.3128 15.8211 13.1844 15.8281 13.0532C15.8351 12.9221 15.8162 12.7908 15.7725 12.667C15.5733 12.1043 15.2509 11.5933 14.8289 11.1711C14.407 10.749 13.8961 10.4274 13.3335 10.228ZM9.51448 4.315C8.93502 4.63981 8.29524 4.84263 7.63448 4.911C7.58748 5.313 7.51448 5.687 7.39748 6.047C7.31564 6.29891 7.21191 6.54318 7.08748 6.777L7.54948 7.042L7.79848 7.191C8.66349 6.65577 9.62318 6.29151 10.6255 6.118C10.3842 5.76246 10.1528 5.40032 9.93148 5.032L9.64148 4.54C9.59882 4.46518 9.55649 4.39018 9.51448 4.315ZM14.4865 4.315L14.3585 4.54L14.0685 5.032C13.8625 5.375 13.6285 5.746 13.3755 6.118C14.3778 6.29151 15.3375 6.65577 16.2025 7.191L16.6895 6.904L16.9125 6.777C16.7881 6.54316 16.6844 6.2989 16.6025 6.047C16.4861 5.67715 16.4071 5.29659 16.3665 4.911C16.0197 4.87469 15.6778 4.80161 15.3465 4.693C15.0489 4.59337 14.7611 4.46685 14.4865 4.315Z" fill="currentColor"/>
</svg>
