<svg width="24" height="24" viewBox="0 0 24 24" fill="none" xmlns="http://www.w3.org/2000/svg">
<path d="M12 9.99999C12.5046 9.99983 12.9906 10.1904 13.3605 10.5335C13.7305 10.8766 13.9572 11.3468 13.995 11.85L14 12V20C14.0002 20.5046 13.8096 20.9906 13.4665 21.3605C13.1234 21.7305 12.6532 21.9571 12.15 21.995L12 22H6C5.49542 22.0002 5.00943 21.8096 4.63945 21.4665C4.26947 21.1234 4.04284 20.6531 4.005 20.15L4 20V12C3.99984 11.4954 4.19041 11.0094 4.5335 10.6394C4.87659 10.2695 5.34684 10.0428 5.85 10.005L6 9.99999H12ZM19 13C19.5046 12.9998 19.9906 13.1904 20.3605 13.5335C20.7305 13.8766 20.9572 14.3468 20.995 14.85L21 15V20C21.0002 20.5046 20.8096 20.9906 20.4665 21.3605C20.1234 21.7305 19.6532 21.9571 19.15 21.995L19 22H15.465C15.7707 21.4717 15.9507 20.8801 15.991 20.271L16 20V13H19ZM16.664 6.08999C17.279 6.37199 17.845 6.87699 18.257 7.44899C18.667 8.01899 19 8.76099 19 9.55599C19 11.123 17.613 12 16.427 12C15.492 12 14.671 11.35 14.281 10.6C14.0507 10.166 13.9592 9.67169 14.019 9.18399C14.088 8.65099 14.342 8.15299 14.767 7.73399C14.958 7.54399 15.055 7.42399 15.117 7.31399C15.173 7.21699 15.225 7.08599 15.259 6.85599C15.2813 6.70232 15.3391 6.55596 15.4278 6.4285C15.5165 6.30104 15.6336 6.19598 15.77 6.12165C15.9063 6.04732 16.0581 6.00576 16.2132 6.00027C16.3684 5.99477 16.5227 6.02549 16.664 6.08999ZM9.058 2.07999C9.811 2.40299 10.526 2.99499 11.054 3.68199C11.578 4.36499 12 5.25099 12 6.19399C12 8.03399 10.285 8.99999 8.903 8.99999C7.84 8.99999 6.842 8.29599 6.35 7.40899C6.06432 6.90743 5.94987 6.32643 6.024 5.75399C6.109 5.13199 6.425 4.55499 6.946 4.07199C7.211 3.82699 7.36 3.65799 7.46 3.49299C7.552 3.34199 7.628 3.15299 7.676 2.84599C7.69949 2.69541 7.75709 2.55218 7.8444 2.42726C7.93171 2.30234 8.04641 2.19903 8.17975 2.12522C8.31309 2.05141 8.46154 2.00905 8.61375 2.00139C8.76597 1.99372 8.91792 2.02095 9.058 2.08099" fill="currentColor"/>
</svg>
