<svg width="24" height="24" viewBox="0 0 24 24" fill="none" xmlns="http://www.w3.org/2000/svg">
<path fill-rule="evenodd" clip-rule="evenodd" d="M12.0003 2C13.7513 2 15.1903 2.592 16.1683 3.159C17.4923 3.926 18.0003 5.369 18.0003 6.657V8.367C18.3973 8.62 18.7673 8.867 19.0953 9.095L19.6603 9.494L19.7603 9.566C20.0513 9.778 20.3413 9.993 20.6233 10.218C21.0493 10.558 21.1233 11.198 20.7813 11.625C20.6156 11.8319 20.3745 11.9646 20.1111 11.9938C19.8476 12.0231 19.5833 11.9465 19.3763 11.781C18.9289 11.4287 18.4699 11.0911 18.0003 10.769V17.586C18.0003 18.7567 17.5353 19.8794 16.7075 20.7072C15.8797 21.535 14.757 22 13.5863 22H10.4143C9.24363 22 8.12091 21.535 7.29313 20.7072C6.46534 19.8794 6.0003 18.7567 6.0003 17.586V10.769C5.5333 11.093 5.0703 11.426 4.6253 11.781C4.41816 11.9468 4.15366 12.0234 3.88999 11.9942C3.62631 11.9649 3.38506 11.8321 3.2193 11.625C3.05354 11.4179 2.97685 11.1534 3.0061 10.8897C3.03536 10.626 3.16816 10.3848 3.3753 10.219C3.6593 9.995 3.9483 9.779 4.2403 9.566L4.6663 9.261C5.0503 8.991 5.5043 8.683 6.0003 8.368V6.657C6.0003 5.368 6.5083 3.926 7.8323 3.159C8.8103 2.592 10.2503 2 12.0003 2ZM16.0003 11.414C15.3913 12.023 15.0003 12.779 15.0003 13.657V17C15.0003 17.5304 14.7896 18.0391 14.4145 18.4142C14.0394 18.7893 13.5307 19 13.0003 19H11.0003C10.4699 19 9.96116 18.7893 9.58608 18.4142C9.21101 18.0391 9.0003 17.5304 9.0003 17V13.657C9.0003 12.779 8.6093 12.023 8.0003 11.414V17.586C8.0003 17.903 8.06274 18.2169 8.18405 18.5098C8.30537 18.8027 8.48318 19.0688 8.70734 19.293C8.9315 19.5171 9.19762 19.6949 9.4905 19.8162C9.78338 19.9376 10.0973 20 10.4143 20H13.5863C13.9033 20 14.2172 19.9376 14.5101 19.8162C14.803 19.6949 15.0691 19.5171 15.2933 19.293C15.5174 19.0688 15.6952 18.8027 15.8165 18.5098C15.9379 18.2169 16.0003 17.903 16.0003 17.586V11.414ZM12.0003 4C10.7033 4 9.6103 4.44 8.8353 4.89C8.3233 5.185 8.0003 5.823 8.0003 6.656V7.216C8.3613 7.031 8.7293 6.857 9.0963 6.702C10.0343 6.308 11.0543 6 12.0003 6C12.9463 6 13.9663 6.308 14.9043 6.703C15.2713 6.858 15.6393 7.032 16.0003 7.216V6.656C16.0003 5.824 15.6773 5.186 15.1653 4.889C14.3903 4.44 13.2973 4 12.0003 4Z" fill="currentColor"/>
</svg>
