<svg width="24" height="24" viewBox="0 0 24 24" fill="none" xmlns="http://www.w3.org/2000/svg">
<path fill-rule="evenodd" clip-rule="evenodd" d="M7.58 4C7.22747 4.00011 6.88124 4.09341 6.57637 4.27042C6.27151 4.44744 6.01885 4.70189 5.844 5.008L2.264 11.273C2.09103 11.5754 2.00002 11.9177 2 12.266V16.764C2.00002 17.0743 2.07226 17.3804 2.211 17.658L3.329 19.894C3.49506 20.2263 3.75039 20.5058 4.06637 20.7012C4.38236 20.8965 4.74651 21 5.118 21H6C6.53043 21 7.03914 20.7893 7.41421 20.4142C7.78929 20.0391 8 19.5304 8 19H16C16 19.5304 16.2107 20.0391 16.5858 20.4142C16.9609 20.7893 17.4696 21 18 21H18.882C19.2535 21 19.6176 20.8965 19.9336 20.7012C20.2496 20.5058 20.5049 20.2263 20.671 19.894L21.789 17.658C21.928 17.381 22 17.074 22 16.764V12.266C22 11.9177 21.909 11.5754 21.736 11.273L18.156 5.008C17.9811 4.70189 17.7285 4.44744 17.4236 4.27042C17.1188 4.09341 16.7725 4.00011 16.42 4H7.58ZM12 12C10.403 12 8.928 11.657 7.447 11.105C7.20963 10.9864 6.93489 10.967 6.68322 11.0511C6.43154 11.1351 6.22355 11.3156 6.105 11.553C5.98645 11.7904 5.96705 12.0651 6.05106 12.3168C6.13508 12.5685 6.31563 12.7764 6.553 12.895C7.047 13.14 9.56 14 12 14C13.854 14 15.768 13.726 17.445 12.896C17.6812 12.7759 17.8607 12.5678 17.9449 12.3166C18.029 12.0654 18.0111 11.7911 17.895 11.553C17.8363 11.4354 17.7551 11.3306 17.6559 11.2444C17.5567 11.1583 17.4415 11.0925 17.3168 11.0509C17.1922 11.0093 17.0606 10.9927 16.9295 11.0019C16.7985 11.0112 16.6705 11.0462 16.553 11.105C15.188 11.787 13.496 12 12 12Z" fill="currentColor"/>
</svg>
