<svg width="24" height="24" viewBox="0 0 24 24" fill="none" xmlns="http://www.w3.org/2000/svg">
<path fill-rule="evenodd" clip-rule="evenodd" d="M11 2.5C11 2.23478 11.1054 1.98043 11.2929 1.79289C11.4804 1.60536 11.7348 1.5 12 1.5C12.2652 1.5 12.5196 1.60536 12.7071 1.79289C12.8946 1.98043 13 2.23478 13 2.5C13 2.76522 12.8946 3.01957 12.7071 3.20711C12.5196 3.39464 12.2652 3.5 12 3.5C11.7348 3.5 11.4804 3.39464 11.2929 3.20711C11.1054 3.01957 11 2.76522 11 2.5ZM12 3.5C11.6022 3.5 11.2206 3.65804 10.9393 3.93934C10.658 4.22064 10.5 4.60218 10.5 5C10.5 5.39782 10.658 5.77936 10.9393 6.06066C11.2206 6.34196 11.6022 6.5 12 6.5C12.3978 6.5 12.7794 6.34196 13.0607 6.06066C13.342 5.77936 13.5 5.39782 13.5 5C13.5 4.60218 13.342 4.22064 13.0607 3.93934C12.7794 3.65804 12.3978 3.5 12 3.5ZM15.884 3.273C15.9492 3.15835 16.0364 3.05773 16.1406 2.97693C16.2449 2.89613 16.364 2.83674 16.4913 2.80219C16.6186 2.76764 16.7514 2.7586 16.8822 2.7756C17.013 2.7926 17.1391 2.8353 17.2533 2.90124C17.3675 2.96718 17.4676 3.05506 17.5477 3.15982C17.6278 3.26458 17.6864 3.38415 17.7201 3.51165C17.7538 3.63915 17.762 3.77206 17.7441 3.90272C17.7262 4.03339 17.6827 4.15923 17.616 4.273C17.4824 4.50081 17.2642 4.66654 17.0089 4.73404C16.7536 4.80153 16.482 4.76531 16.2533 4.63327C16.0246 4.50124 15.8574 4.28411 15.7883 4.02926C15.7191 3.77442 15.7535 3.50256 15.884 3.273ZM6.75 2.907C6.86377 2.8403 6.98961 2.79677 7.12028 2.7789C7.25094 2.76104 7.38385 2.76919 7.51135 2.8029C7.63885 2.83661 7.75842 2.89521 7.86318 2.97531C7.96794 3.05542 8.05582 3.15546 8.12176 3.26967C8.1877 3.38388 8.2304 3.51001 8.2474 3.64079C8.2644 3.77157 8.25536 3.90442 8.22081 4.03169C8.18626 4.15897 8.12687 4.27815 8.04607 4.38237C7.96527 4.4866 7.86465 4.57382 7.75 4.639C7.52044 4.76952 7.24858 4.80394 6.99374 4.73475C6.73889 4.66556 6.52176 4.49838 6.38973 4.26969C6.25769 4.04101 6.22147 3.76938 6.28896 3.51408C6.35646 3.25879 6.52219 3.04055 6.75 2.907ZM15.89 5.99C16.0964 5.78341 16.3587 5.64158 16.6446 5.58192C16.9305 5.52225 17.2276 5.54736 17.4995 5.65415C17.7713 5.76093 18.0061 5.94476 18.1749 6.18306C18.3438 6.42137 18.4394 6.70378 18.45 6.99565C18.4607 7.28752 18.3859 7.57615 18.2348 7.82612C18.0837 8.07608 17.863 8.27651 17.5997 8.4028C17.3363 8.52909 17.0418 8.57576 16.7523 8.53707C16.4628 8.49838 16.1909 8.37602 15.97 8.185C16.05 8.633 15.977 9.111 15.732 9.535C15.5636 9.82806 15.3234 10.0734 15.034 10.248C15.2704 10.1175 15.5307 10.0363 15.7994 10.0091C16.068 9.98199 16.3394 10.0095 16.5971 10.0901C16.8548 10.1706 17.0935 10.3025 17.2989 10.4778C17.5042 10.6531 17.672 10.8681 17.792 11.11C17.9794 10.8556 18.2422 10.6669 18.5432 10.5707C18.8441 10.4745 19.1678 10.4758 19.4679 10.5744C19.7681 10.673 20.0295 10.8639 20.2148 11.1198C20.4 11.3757 20.4998 11.6836 20.4998 11.9995C20.4998 12.3154 20.4 12.6233 20.2148 12.8792C20.0295 13.1351 19.7681 13.326 19.4679 13.4246C19.1678 13.5232 18.8441 13.5245 18.5432 13.4283C18.2422 13.3321 17.9794 13.1434 17.792 12.889C17.672 13.1311 17.5042 13.3464 17.2987 13.5219C17.0931 13.6974 16.8542 13.8294 16.5962 13.9099C16.3383 13.9905 16.0667 14.0179 15.7979 13.9906C15.529 13.9633 15.2685 13.8818 15.032 13.751C15.3793 13.9591 15.6549 14.2682 15.8221 14.6369C15.9893 15.0057 16.0402 15.4166 15.968 15.815C16.2305 15.5877 16.5636 15.4586 16.9107 15.4495C17.2578 15.4404 17.5972 15.552 17.8712 15.7653C18.1452 15.9785 18.3367 16.2802 18.4131 16.6188C18.4895 16.9575 18.4461 17.3122 18.2902 17.6224C18.1343 17.9326 17.8757 18.1792 17.5584 18.32C17.241 18.4608 16.8847 18.4872 16.55 18.3947C16.2154 18.3022 15.9233 18.0964 15.7234 17.8125C15.5235 17.5286 15.4283 17.1842 15.454 16.838C15.1809 17.1259 14.8283 17.3262 14.4411 17.4133C14.0539 17.5005 13.6495 17.4705 13.2793 17.3274C12.9092 17.1842 12.5899 16.9342 12.3621 16.6092C12.1343 16.2842 12.0083 15.8988 12 15.502C11.9927 15.8993 11.8672 16.2853 11.6395 16.611C11.4119 16.9366 11.0924 17.1871 10.7218 17.3304C10.3513 17.4737 9.94641 17.5035 9.55889 17.4158C9.17137 17.3281 8.81874 17.1269 8.546 16.838C8.57165 17.1842 8.47644 17.5285 8.27661 17.8123C8.07678 18.0962 7.7847 18.3019 7.45015 18.3945C7.11561 18.4871 6.75931 18.4608 6.442 18.32C6.12468 18.1793 5.866 17.9329 5.71003 17.6228C5.55407 17.3127 5.51049 16.9581 5.58671 16.6194C5.66294 16.2808 5.85426 15.9791 6.12805 15.7657C6.40184 15.5523 6.74116 15.4405 7.08817 15.4493C7.43518 15.4581 7.76839 15.587 8.031 15.814C7.94782 15.3501 8.0318 14.8718 8.268 14.464C8.4369 14.1707 8.67783 13.9253 8.968 13.751C8.73159 13.8818 8.47112 13.9634 8.20231 13.9908C7.9335 14.0182 7.66193 13.9908 7.404 13.9103C7.14606 13.8299 6.9071 13.698 6.70154 13.5226C6.49598 13.3472 6.32809 13.132 6.208 12.89C6.02065 13.1444 5.75775 13.3331 5.4568 13.4293C5.15586 13.5255 4.83223 13.5242 4.53206 13.4256C4.2319 13.327 3.97054 13.1361 3.78525 12.8802C3.59996 12.6243 3.5002 12.3164 3.5002 12.0005C3.5002 11.6846 3.59996 11.3767 3.78525 11.1208C3.97054 10.8649 4.2319 10.674 4.53206 10.5754C4.83223 10.4768 5.15586 10.4755 5.4568 10.5717C5.75775 10.6679 6.02065 10.8566 6.208 11.111C6.32801 10.869 6.49579 10.6538 6.70124 10.4784C6.90668 10.3031 7.14551 10.1711 7.40334 10.0906C7.66117 10.01 7.93264 9.98252 8.20139 10.0098C8.47013 10.037 8.73057 10.1184 8.967 10.249C8.67722 10.0746 8.43666 9.82918 8.268 9.536C8.0318 9.1282 7.94782 8.64987 8.031 8.186C7.76839 8.41299 7.43518 8.54188 7.08817 8.55069C6.74116 8.5595 6.40184 8.44769 6.12805 8.23431C5.85426 8.02094 5.66294 7.71921 5.58671 7.38057C5.51049 7.04192 5.55407 6.68732 5.71003 6.37721C5.866 6.0671 6.12468 5.82069 6.442 5.67996C6.75931 5.53924 7.11561 5.51293 7.45015 5.6055C7.7847 5.69808 8.07678 5.90382 8.27661 6.18765C8.47644 6.47148 8.57165 6.81583 8.546 7.162C8.81874 6.87308 9.17137 6.67194 9.55889 6.58424C9.94641 6.49654 10.3513 6.52626 10.7218 6.66959C11.0924 6.81293 11.4119 7.06339 11.6395 7.38903C11.8672 7.71468 11.9927 8.10074 12 8.498C12.0073 8.10074 12.1328 7.71468 12.3605 7.38903C12.5881 7.06339 12.9076 6.81293 13.2782 6.66959C13.6487 6.52626 14.0536 6.49654 14.4411 6.58424C14.8286 6.67194 15.1813 6.87308 15.454 7.162C15.423 6.742 15.568 6.311 15.889 5.99H15.89ZM12 8.57C11.9947 8.91549 11.8999 9.2537 11.7249 9.55162C11.5499 9.84953 11.3006 10.097 11.0014 10.2698C10.7021 10.4425 10.3632 10.5348 10.0177 10.5374C9.67217 10.5401 9.33186 10.4531 9.03 10.285C9.32635 10.4626 9.57162 10.7139 9.74188 11.0146C9.91214 11.3152 10.0016 11.6548 10.0015 12.0003C10.0014 12.3458 9.91174 12.6853 9.7413 12.9859C9.57087 13.2864 9.32545 13.5376 9.029 13.715C9.33094 13.5469 9.67128 13.46 10.0168 13.4627C10.3624 13.4654 10.7013 13.5576 11.0006 13.7304C11.2999 13.9031 11.5493 14.1505 11.7244 14.4484C11.8996 14.7463 11.9945 15.0845 12 15.43C12.0056 15.0846 12.1005 14.7466 12.2756 14.4488C12.4507 14.1511 12.7 13.9038 12.9991 13.7311C13.2983 13.5583 13.637 13.4661 13.9824 13.4633C14.3279 13.4604 14.6681 13.5472 14.97 13.715C14.6736 13.5375 14.4283 13.2862 14.2579 12.9856C14.0876 12.6851 13.998 12.3455 13.998 12C13.998 11.6545 14.0876 11.3149 14.2579 11.0144C14.4283 10.7138 14.6736 10.4625 14.97 10.285C14.6681 10.4528 14.3279 10.5396 13.9824 10.5367C13.637 10.5339 13.2983 10.4417 12.9991 10.2689C12.7 10.0962 12.4507 9.84891 12.2756 9.55116C12.1005 9.25341 12.0056 8.91537 12 8.57ZM3.5002 12.0005C3.5002 11.7353 3.39464 11.4804 3.20711 11.2929C3.01957 11.1054 2.76522 11 2.5 11C2.23478 11 1.98043 11.1054 1.79289 11.2929C1.60536 11.4804 1.5 11.7348 1.5 12C1.5 12.2652 1.60536 12.5196 1.79289 12.7071C1.98043 12.8946 2.23478 13 2.5 13C2.76522 13 3.01957 12.8946 3.20711 12.7071C3.39464 12.5196 3.5002 12.2657 3.5002 12.0005ZM2.907 6.75C2.97218 6.63535 3.0594 6.53473 3.16363 6.45393C3.26785 6.37313 3.38703 6.31374 3.51431 6.27919C3.64158 6.24464 3.77443 6.2356 3.90521 6.2526C4.03599 6.2696 4.16212 6.31229 4.27633 6.37824C4.39054 6.44418 4.49058 6.53206 4.57069 6.63682C4.65079 6.74158 4.70939 6.86115 4.7431 6.98865C4.77681 7.11615 4.78496 7.24906 4.7671 7.37972C4.74923 7.51039 4.7057 7.63623 4.639 7.75C4.50545 7.97781 4.28721 8.14354 4.03192 8.21104C3.77662 8.27853 3.50499 8.24231 3.27631 8.11027C3.04762 7.97824 2.88044 7.76111 2.81125 7.50626C2.74206 7.25142 2.77648 6.97956 2.907 6.75ZM19.727 6.384C19.8408 6.3173 19.9666 6.27377 20.0973 6.2559C20.2279 6.23804 20.3608 6.24619 20.4883 6.2799C20.6158 6.31361 20.7354 6.37221 20.8402 6.45231C20.9449 6.53242 21.0328 6.63246 21.0988 6.74667C21.1647 6.86088 21.2074 6.98701 21.2244 7.11779C21.2414 7.24857 21.2324 7.38142 21.1978 7.50869C21.1633 7.63597 21.1039 7.75515 21.0231 7.85937C20.9423 7.9636 20.8416 8.05082 20.727 8.116C20.4974 8.24652 20.2256 8.28094 19.9707 8.21175C19.7159 8.14256 19.4988 7.97538 19.3667 7.74669C19.2347 7.51801 19.1985 7.24638 19.266 6.99108C19.3335 6.73579 19.4992 6.51755 19.727 6.384ZM20.4998 11.9995C20.4998 11.7343 20.6054 11.4804 20.7929 11.2929C20.9804 11.1054 21.2348 11 21.5 11C21.7652 11 22.0196 11.1054 22.2071 11.2929C22.3946 11.4804 22.5 11.7348 22.5 12C22.5 12.2652 22.3946 12.5196 22.2071 12.7071C22.0196 12.8946 21.7652 13 21.5 13C21.2348 13 20.9804 12.8946 20.7929 12.7071C20.6054 12.5196 20.4998 12.2647 20.4998 11.9995ZM3.273 15.884C3.38677 15.8173 3.51261 15.7738 3.64328 15.7559C3.77394 15.738 3.90685 15.7462 4.03435 15.7799C4.16185 15.8136 4.28142 15.8722 4.38618 15.9523C4.49094 16.0324 4.57882 16.1325 4.64476 16.2467C4.71071 16.3609 4.7534 16.487 4.7704 16.6178C4.7874 16.7486 4.77836 16.8814 4.74381 17.0087C4.70926 17.136 4.64987 17.2551 4.56907 17.3594C4.48827 17.4636 4.38765 17.5508 4.273 17.616C4.04344 17.7465 3.77158 17.7809 3.51674 17.7117C3.26189 17.6426 3.04476 17.4754 2.91273 17.2467C2.78069 17.018 2.74447 16.7464 2.81196 16.4911C2.87946 16.2358 3.04519 16.0176 3.273 15.884ZM19.361 16.25C19.4262 16.1354 19.5134 16.0347 19.6176 15.9539C19.7219 15.8731 19.841 15.8137 19.9683 15.7792C20.0956 15.7446 20.2284 15.7356 20.3592 15.7526C20.49 15.7696 20.6161 15.8123 20.7303 15.8782C20.8445 15.9442 20.9446 16.0321 21.0247 16.1368C21.1048 16.2416 21.1634 16.3612 21.1971 16.4887C21.2308 16.6162 21.239 16.7491 21.2211 16.8797C21.2032 17.0104 21.1597 17.1362 21.093 17.25C20.9594 17.4778 20.7412 17.6435 20.4859 17.711C20.2306 17.7785 19.959 17.7423 19.7303 17.6103C19.5016 17.4782 19.3344 17.2611 19.2653 17.0063C19.1961 16.7514 19.2305 16.4796 19.361 16.25ZM10.5 19C10.5 18.6022 10.658 18.2206 10.9393 17.9393C11.2206 17.658 11.6022 17.5 12 17.5C12.3978 17.5 12.7794 17.658 13.0607 17.9393C13.342 18.2206 13.5 18.6022 13.5 19C13.5 19.3978 13.342 19.7794 13.0607 20.0607C12.7794 20.342 12.3978 20.5 12 20.5C11.6022 20.5 11.2206 20.342 10.9393 20.0607C10.658 19.7794 10.5 19.3978 10.5 19ZM12 20.5C11.7348 20.5 11.4804 20.6054 11.2929 20.7929C11.1054 20.9804 11 21.2348 11 21.5C11 21.7652 11.1054 22.0196 11.2929 22.2071C11.4804 22.3946 11.7348 22.5 12 22.5C12.2652 22.5 12.5196 22.3946 12.7071 22.2071C12.8946 22.0196 13 21.7652 13 21.5C13 21.2348 12.8946 20.9804 12.7071 20.7929C12.5196 20.6054 12.2652 20.5 12 20.5ZM6.384 19.727C6.44918 19.6124 6.5364 19.5117 6.64063 19.4309C6.74485 19.3501 6.86403 19.2907 6.99131 19.2562C7.11858 19.2216 7.25143 19.2126 7.38221 19.2296C7.51299 19.2466 7.63912 19.2893 7.75333 19.3552C7.86754 19.4212 7.96758 19.5091 8.04769 19.6138C8.1278 19.7186 8.18639 19.8382 8.2201 19.9657C8.25381 20.0932 8.26196 20.2261 8.2441 20.3567C8.22623 20.4874 8.1827 20.6132 8.116 20.727C7.98245 20.9548 7.76421 21.1205 7.50892 21.188C7.25362 21.2555 6.98199 21.2193 6.75331 21.0873C6.52462 20.9552 6.35744 20.7381 6.28825 20.4833C6.21906 20.2284 6.25348 19.9566 6.384 19.727ZM16.25 19.361C16.3638 19.2953 16.4894 19.2527 16.6197 19.2356C16.7499 19.2185 16.8823 19.2272 17.0092 19.2612C17.136 19.2953 17.255 19.354 17.3592 19.434C17.4634 19.514 17.5508 19.6137 17.6165 19.7275C17.6822 19.8413 17.7248 19.9669 17.7419 20.0972C17.759 20.2274 17.7503 20.3598 17.7163 20.4867C17.6822 20.6135 17.6235 20.7325 17.5435 20.8367C17.4635 20.9409 17.3638 21.0283 17.25 21.094C17.0202 21.2266 16.7471 21.2625 16.4908 21.1938C16.2346 21.125 16.0161 20.9573 15.8835 20.7275C15.7509 20.4977 15.715 20.2246 15.7837 19.9683C15.8525 19.7121 16.0202 19.4936 16.25 19.361Z" fill="currentColor"/>
</svg>
