<svg width="24" height="24" viewBox="0 0 24 24" fill="none" xmlns="http://www.w3.org/2000/svg">
<path fill-rule="evenodd" clip-rule="evenodd" d="M22 10H2V17C2 17.7956 2.31607 18.5587 2.87868 19.1213C3.44129 19.6839 4.20435 20 5 20H19C19.7956 20 20.5587 19.6839 21.1213 19.1213C21.6839 18.5587 22 17.7956 22 17V10ZM10.586 14L10.706 13.879C10.8883 13.6905 10.9893 13.438 10.9872 13.1758C10.9851 12.9136 10.8801 12.6627 10.6948 12.4772C10.5095 12.2916 10.2588 12.1863 9.9966 12.1838C9.73441 12.1814 9.48173 12.282 9.293 12.464L7.464 14.293C7.27653 14.4805 7.17121 14.7348 7.17121 15C7.17121 15.2652 7.27653 15.5195 7.464 15.707L9.293 17.535C9.38525 17.6305 9.49559 17.7067 9.6176 17.7591C9.7396 17.8115 9.87082 17.8391 10.0036 17.8403C10.1364 17.8414 10.2681 17.8161 10.391 17.7658C10.5139 17.7155 10.6255 17.6413 10.7194 17.5474C10.8133 17.4535 10.8875 17.3419 10.9378 17.219C10.9881 17.0961 11.0134 16.9644 11.0123 16.8316C11.0111 16.6988 10.9835 16.5676 10.9311 16.4456C10.8787 16.3236 10.8025 16.2132 10.707 16.121L10.586 16H15C15.2652 16 15.5196 15.8946 15.7071 15.7071C15.8946 15.5196 16 15.2652 16 15C16 14.7348 15.8946 14.4804 15.7071 14.2929C15.5196 14.1054 15.2652 14 15 14H10.586ZM5 4C4.20435 4 3.44129 4.31607 2.87868 4.87868C2.31607 5.44129 2 6.20435 2 7V8H22V7C22 6.20435 21.6839 5.44129 21.1213 4.87868C20.5587 4.31607 19.7956 4 19 4H5Z" fill="currentColor"/>
</svg>
