<svg width="24" height="24" viewBox="0 0 24 24" fill="none" xmlns="http://www.w3.org/2000/svg">
<path fill-rule="evenodd" clip-rule="evenodd" d="M17.6571 2.515C17.902 2.51503 18.1384 2.60496 18.3214 2.76771C18.5045 2.93047 18.6214 3.15475 18.6501 3.398L18.6571 3.515V3.929L19.0711 3.515C19.251 3.33565 19.4925 3.23153 19.7465 3.22377C20.0004 3.21602 20.2478 3.30521 20.4384 3.47325C20.6289 3.64128 20.7484 3.87555 20.7725 4.12847C20.7966 4.3814 20.7235 4.63401 20.5681 4.835L20.4851 4.929L20.0711 5.343H20.4851C20.74 5.34328 20.9851 5.44088 21.1704 5.61585C21.3558 5.79082 21.4673 6.02995 21.4822 6.28439C21.4972 6.53884 21.4144 6.78938 21.2508 6.98483C21.0872 7.18028 20.8552 7.3059 20.6021 7.336L20.4851 7.343H18.4281C19.6931 9.519 19.0821 12.409 16.8751 13.843L16.6701 13.969L5.66007 20.392C4.36707 21.146 2.92007 19.758 3.54607 18.458L3.60807 18.34L10.0311 7.33C11.3751 5.026 14.2401 4.31 16.4571 5.462L16.6571 5.572V3.515C16.6571 3.24978 16.7624 2.99543 16.95 2.80789C17.1375 2.62036 17.3919 2.515 17.6571 2.515ZM12.7071 12.707C12.5271 12.5277 12.2856 12.4235 12.0317 12.4158C11.7777 12.408 11.5304 12.4972 11.3398 12.6652C11.1492 12.8333 11.0298 13.0676 11.0057 13.3205C10.9816 13.5734 11.0547 13.826 11.2101 14.027L11.2931 14.121L12.3531 15.181C12.5326 15.3623 12.7746 15.468 13.0296 15.4767C13.2846 15.4853 13.5332 15.3962 13.7247 15.2275C13.9161 15.0589 14.0358 14.8234 14.0593 14.5694C14.0828 14.3153 14.0083 14.0619 13.8511 13.861L13.7681 13.768L12.7071 12.707ZM10.5861 7.757C10.3986 7.94453 10.2933 8.19883 10.2933 8.464C10.2933 8.72916 10.3986 8.98347 10.5861 9.171L12.0001 10.586C12.1877 10.7735 12.4422 10.8788 12.7074 10.8787C12.9727 10.8786 13.2271 10.7731 13.4146 10.5855C13.6021 10.3979 13.7074 10.1434 13.7073 9.87815C13.7072 9.61287 13.6017 9.35851 13.4141 9.171L12.0001 7.757C11.8125 7.56953 11.5582 7.46421 11.2931 7.46421C11.0279 7.46421 10.7736 7.56953 10.5861 7.757Z" fill="currentColor"/>
</svg>
