<svg width="24" height="24" viewBox="0 0 24 24" fill="none" xmlns="http://www.w3.org/2000/svg">
<path d="M11.287 4.717L11.594 4.587C14.444 3.319 17.274 3.35 19.125 3.591L19.535 3.649L19.907 3.712L20.24 3.777L20.53 3.84C21.394 4.038 21.934 4.777 21.994 5.571L22 5.721V17.306C22 18.333 21.024 19.007 20.107 18.796L19.827 18.734L19.502 18.672L19.137 18.612C18.9323 18.581 18.7269 18.5547 18.521 18.533L18.068 18.493C16.585 18.389 14.654 18.494 12.713 19.283L12.406 19.413C9.776 20.583 7.162 20.647 5.319 20.46L4.875 20.41L4.465 20.35L4.093 20.287C4.0356 20.2767 3.97827 20.266 3.921 20.255L3.471 20.16C2.606 19.962 2.066 19.223 2.006 18.429L2 18.279V6.694C2 5.667 2.976 4.992 3.893 5.204L4.173 5.266L4.498 5.328L4.863 5.388C6.399 5.618 8.835 5.714 11.287 4.717ZM12 8C10.9391 8 9.92172 8.42143 9.17157 9.17158C8.42143 9.92172 8 10.9391 8 12C8 13.0609 8.42143 14.0783 9.17157 14.8284C9.92172 15.5786 10.9391 16 12 16C13.0609 16 14.0783 15.5786 14.8284 14.8284C15.5786 14.0783 16 13.0609 16 12C16 10.9391 15.5786 9.92172 14.8284 9.17158C14.0783 8.42143 13.0609 8 12 8ZM12 10C12.5304 10 13.0391 10.2107 13.4142 10.5858C13.7893 10.9609 14 11.4696 14 12C14 12.5304 13.7893 13.0391 13.4142 13.4142C13.0391 13.7893 12.5304 14 12 14C11.4696 14 10.9609 13.7893 10.5858 13.4142C10.2107 13.0391 10 12.5304 10 12C10 11.4696 10.2107 10.9609 10.5858 10.5858C10.9609 10.2107 11.4696 10 12 10Z" fill="currentColor"/>
</svg>
