<svg width="24" height="24" viewBox="0 0 24 24" fill="none" xmlns="http://www.w3.org/2000/svg">
<path fill-rule="evenodd" clip-rule="evenodd" d="M20 5C20.5304 5 21.0391 5.21071 21.4142 5.58579C21.7893 5.96086 22 6.46957 22 7V17C22 17.5304 21.7893 18.0391 21.4142 18.4142C21.0391 18.7893 20.5304 19 20 19H4C3.46957 19 2.96086 18.7893 2.58579 18.4142C2.21071 18.0391 2 17.5304 2 17V7C2 6.46957 2.21071 5.96086 2.58579 5.58579C2.96086 5.21071 3.46957 5 4 5H20ZM4.125 14L4 14.003V16.009C4.12418 15.9911 4.25076 16.0001 4.37116 16.0354C4.49157 16.0707 4.60297 16.1314 4.69781 16.2136C4.79266 16.2957 4.86873 16.3973 4.92087 16.5114C4.97301 16.6255 5 16.7495 5 16.875L4.998 16.938L4.99 17H6.996L7 16.875C7 16.1125 6.6971 15.3812 6.15793 14.8421C5.61876 14.3029 4.8875 14 4.125 14ZM19.875 14C19.1418 14 18.4362 14.2802 17.9027 14.7832C17.3692 15.2862 17.0481 15.974 17.005 16.706L17 16.875C17 16.917 17 16.959 17.003 17H19.009C18.9896 16.8653 19.0018 16.728 19.0447 16.5989C19.0877 16.4698 19.1601 16.3525 19.2563 16.2563C19.3525 16.1601 19.4698 16.0877 19.5989 16.0447C19.728 16.0018 19.8653 15.9896 20 16.009V14.003L19.875 14ZM12 8C10.9391 8 9.92172 8.42143 9.17157 9.17157C8.42143 9.92172 8 10.9391 8 12C8 13.0609 8.42143 14.0783 9.17157 14.8284C9.92172 15.5786 10.9391 16 12 16C13.0609 16 14.0783 15.5786 14.8284 14.8284C15.5786 14.0783 16 13.0609 16 12C16 10.9391 15.5786 9.92172 14.8284 9.17157C14.0783 8.42143 13.0609 8 12 8ZM12 10C12.5304 10 13.0391 10.2107 13.4142 10.5858C13.7893 10.9609 14 11.4696 14 12C14 12.5304 13.7893 13.0391 13.4142 13.4142C13.0391 13.7893 12.5304 14 12 14C11.4696 14 10.9609 13.7893 10.5858 13.4142C10.2107 13.0391 10 12.5304 10 12C10 11.4696 10.2107 10.9609 10.5858 10.5858C10.9609 10.2107 11.4696 10 12 10ZM7 7H5V7.125C5 7.25047 4.97301 7.37447 4.92087 7.48859C4.86873 7.60271 4.79266 7.70428 4.69781 7.78642C4.60297 7.86856 4.49157 7.92934 4.37116 7.96463C4.25076 7.99993 4.12418 8.00892 4 7.991V9.997L4.125 10C4.50255 10 4.8764 9.92564 5.22521 9.78115C5.57403 9.63667 5.89096 9.4249 6.15793 9.15793C6.4249 8.89096 6.63667 8.57403 6.78115 8.22521C6.92564 7.8764 7 7.50255 7 7.125V7ZM19.009 7H17.003L17 7.125C17 7.85824 17.2802 8.56376 17.7832 9.09726C18.2862 9.63075 18.974 9.9519 19.706 9.995L19.938 9.999L20 9.997V7.991C19.8758 8.00892 19.7492 7.99993 19.6288 7.96463C19.5084 7.92934 19.397 7.86856 19.3022 7.78642C19.2073 7.70428 19.1313 7.60271 19.0791 7.48859C19.027 7.37447 19 7.25047 19 7.125L19.002 7.062L19.009 7Z" fill="currentColor"/>
</svg>
