<svg width="24" height="24" viewBox="0 0 24 24" fill="none" xmlns="http://www.w3.org/2000/svg">
<path fill-rule="evenodd" clip-rule="evenodd" d="M18.296 3.045C18.4697 3.09876 18.6254 3.19886 18.7465 3.33454C18.8675 3.47021 18.9493 3.63632 18.983 3.815L20.324 10.97C20.454 11.657 20.495 12.337 20.46 13H21C21.2652 13 21.5196 13.1054 21.7071 13.2929C21.8946 13.4804 22 13.7348 22 14C22 14.2652 21.8946 14.5196 21.7071 14.7071C21.5196 14.8946 21.2652 15 21 15H20.106C19.9618 15.4693 19.7774 15.9253 19.555 16.363L20.625 17.219C20.7276 17.3011 20.813 17.4025 20.8763 17.5176C20.9396 17.6327 20.9797 17.7591 20.9942 17.8897C21.0087 18.0202 20.9973 18.1524 20.9607 18.2785C20.9241 18.4047 20.8631 18.5224 20.781 18.625C20.6989 18.7276 20.5975 18.813 20.4824 18.8763C20.3673 18.9396 20.2409 18.9797 20.1103 18.9942C19.9797 19.0087 19.8476 18.9973 19.7215 18.9607C19.5953 18.9241 19.4776 18.8631 19.375 18.781L18.439 18.032C17.6458 18.9648 16.6588 19.7136 15.5468 20.2261C14.4348 20.7387 13.2245 21.0028 12 21C10.7754 21.0029 9.56482 20.7389 8.45262 20.2263C7.34043 19.7138 6.35331 18.9649 5.56 18.032L4.625 18.781C4.52244 18.8631 4.40471 18.9241 4.27855 18.9607C4.15238 18.9973 4.02025 19.0087 3.88969 18.9942C3.75913 18.9797 3.6327 18.9396 3.51763 18.8763C3.40255 18.813 3.30108 18.7276 3.219 18.625C3.13692 18.5224 3.07585 18.4047 3.03927 18.2785C3.00269 18.1524 2.99132 18.0202 3.00581 17.8897C3.02029 17.7591 3.06035 17.6327 3.1237 17.5176C3.18705 17.4025 3.27244 17.3011 3.375 17.219L4.445 16.363C4.22239 15.9255 4.03836 15.4695 3.895 15H3C2.73478 15 2.48043 14.8946 2.29289 14.7071C2.10536 14.5196 2 14.2652 2 14C2 13.7348 2.10536 13.4804 2.29289 13.2929C2.48043 13.1054 2.73478 13 3 13H3.54C3.50409 12.3203 3.54975 11.6388 3.676 10.97L5.017 3.816C5.05052 3.63707 5.13224 3.47069 5.25335 3.33479C5.37446 3.19889 5.53037 3.09863 5.70427 3.04481C5.87817 2.991 6.06346 2.98567 6.24016 3.02941C6.41687 3.07314 6.57828 3.16428 6.707 3.293L9.121 5.707C9.30849 5.89455 9.56281 5.99994 9.828 6H14.172C14.4372 5.99994 14.6915 5.89455 14.879 5.707L17.293 3.293C17.4218 3.16426 17.5832 3.07313 17.76 3.02943C17.9367 2.98572 18.1221 2.9911 18.296 3.045ZM12.553 14.605L12 14.882L11.447 14.606C11.3291 14.5424 11.1997 14.5032 11.0663 14.4906C10.933 14.478 10.7985 14.4923 10.6708 14.5327C10.5431 14.5731 10.4249 14.6387 10.323 14.7257C10.2212 14.8126 10.1378 14.9192 10.0779 15.039C10.018 15.1587 9.98282 15.2893 9.97436 15.423C9.9659 15.5567 9.98437 15.6906 10.0287 15.817C10.073 15.9434 10.1422 16.0596 10.2323 16.1587C10.3224 16.2578 10.4314 16.3378 10.553 16.394L11.106 16.671C11.3836 16.8097 11.6897 16.8819 12 16.8819C12.3103 16.8819 12.6164 16.8097 12.894 16.671L13.447 16.394C13.5686 16.3378 13.6776 16.2578 13.7677 16.1587C13.8578 16.0596 13.927 15.9434 13.9713 15.817C14.0156 15.6906 14.0341 15.5567 14.0256 15.423C14.0172 15.2893 13.982 15.1587 13.9221 15.039C13.8622 14.9192 13.7788 14.8126 13.677 14.7257C13.5751 14.6387 13.4569 14.5731 13.3292 14.5327C13.2015 14.4923 13.067 14.478 12.9337 14.4906C12.8003 14.5032 12.6709 14.5424 12.553 14.606V14.605ZM9.5 10C9.10218 10 8.72064 10.158 8.43934 10.4393C8.15804 10.7206 8 11.1022 8 11.5C8 11.8978 8.15804 12.2794 8.43934 12.5607C8.72064 12.842 9.10218 13 9.5 13C9.89782 13 10.2794 12.842 10.5607 12.5607C10.842 12.2794 11 11.8978 11 11.5C11 11.1022 10.842 10.7206 10.5607 10.4393C10.2794 10.158 9.89782 10 9.5 10ZM14.5 10C14.1022 10 13.7206 10.158 13.4393 10.4393C13.158 10.7206 13 11.1022 13 11.5C13 11.8978 13.158 12.2794 13.4393 12.5607C13.7206 12.842 14.1022 13 14.5 13C14.8978 13 15.2794 12.842 15.5607 12.5607C15.842 12.2794 16 11.8978 16 11.5C16 11.1022 15.842 10.7206 15.5607 10.4393C15.2794 10.158 14.8978 10 14.5 10Z" fill="currentColor"/>
</svg>
