<svg width="24" height="24" viewBox="0 0 24 24" fill="none" xmlns="http://www.w3.org/2000/svg">
<path fill-rule="evenodd" clip-rule="evenodd" d="M12.0002 19C12.2654 19 12.5198 19.1054 12.7073 19.2929C12.8948 19.4804 13.0002 19.7348 13.0002 20V21C13.0002 21.2652 12.8948 21.5196 12.7073 21.7071C12.5198 21.8946 12.2654 22 12.0002 22C11.735 22 11.4806 21.8946 11.2931 21.7071C11.1056 21.5196 11.0002 21.2652 11.0002 21V20C11.0002 19.7348 11.1056 19.4804 11.2931 19.2929C11.4806 19.1054 11.735 19 12.0002 19ZM16.9502 16.95C17.1224 16.7778 17.3515 16.6744 17.5945 16.6591C17.8375 16.6438 18.0778 16.7177 18.2702 16.867L18.3642 16.95L19.0712 17.657C19.2505 17.837 19.3547 18.0784 19.3624 18.3324C19.3702 18.5863 19.281 18.8337 19.113 19.0243C18.9449 19.2148 18.7106 19.3343 18.4577 19.3584C18.2048 19.3825 17.9522 19.3094 17.7512 19.154L17.6572 19.071L16.9502 18.364C16.7627 18.1765 16.6574 17.9222 16.6574 17.657C16.6574 17.3918 16.7627 17.1375 16.9502 16.95ZM7.0502 16.95C7.23767 17.1375 7.34299 17.3918 7.34299 17.657C7.34299 17.9222 7.23767 18.1765 7.0502 18.364L6.3432 19.071C6.1546 19.2532 5.902 19.354 5.6398 19.3517C5.3776 19.3494 5.12679 19.2442 4.94138 19.0588C4.75598 18.8734 4.65081 18.6226 4.64853 18.3604C4.64625 18.0982 4.74704 17.8456 4.9292 17.657L5.6362 16.95C5.82373 16.7625 6.07804 16.6572 6.3432 16.6572C6.60837 16.6572 6.86267 16.7625 7.0502 16.95ZM12.0002 2C12.2451 2.00003 12.4815 2.08996 12.6646 2.25272C12.8476 2.41547 12.9645 2.63975 12.9932 2.883L13.0002 3V4.1L21.1752 12.276C21.7842 12.884 21.3982 13.906 20.5752 13.994L20.4612 14H16.9002C16.6726 15.1105 16.0745 16.1108 15.204 16.8369C14.3335 17.563 13.2421 17.9719 12.1088 17.9965C10.9754 18.0211 9.86736 17.6601 8.96609 16.9725C8.06483 16.2849 7.42385 15.3116 7.1482 14.212L7.1002 14H3.5402C2.6792 14 2.2302 13.005 2.7492 12.361L2.8262 12.276L11.0002 4.1V3C11.0002 2.73478 11.1056 2.48043 11.2931 2.29289C11.4806 2.10536 11.735 2 12.0002 2ZM14.8302 14H9.1702C9.3718 14.5703 9.74103 15.0663 10.2295 15.4231C10.7179 15.7799 11.3028 15.9808 11.9073 15.9994C12.5119 16.018 13.108 15.8534 13.6175 15.5273C14.1269 15.2012 14.5259 14.7288 14.7622 14.172L14.8302 14Z" fill="currentColor"/>
</svg>
