<svg width="24" height="24" viewBox="0 0 24 24" fill="none" xmlns="http://www.w3.org/2000/svg">
<path d="M8.07606 7.25999L8.17105 7.34299L16.6571 15.828C16.7683 15.9391 16.8517 16.0749 16.9007 16.2243C16.9496 16.3737 16.9626 16.5325 16.9386 16.6879C16.9147 16.8433 16.8544 16.9908 16.7627 17.1185C16.6711 17.2462 16.5506 17.3506 16.4111 17.423L16.2951 17.473L5.91006 21.3C3.95806 22.02 2.05706 20.185 2.65006 18.236L2.70006 18.09L6.52606 7.70499C6.57664 7.56743 6.65684 7.44266 6.76099 7.33953C6.86514 7.2364 6.99068 7.15742 7.12874 7.10819C7.26679 7.05896 7.41398 7.04068 7.55989 7.05464C7.70579 7.06861 7.84684 7.11447 7.97306 7.18899L8.07606 7.25999ZM17.1071 11.604C18.0181 11.652 19.2671 11.844 20.3531 12.496C20.5732 12.6265 20.735 12.8365 20.805 13.0827C20.875 13.3289 20.8479 13.5925 20.7294 13.8194C20.6108 14.0462 20.4098 14.2189 20.1677 14.302C19.9256 14.3851 19.6609 14.3722 19.4281 14.266L19.3241 14.211C18.6421 13.801 17.7701 13.641 17.0021 13.601C16.6856 13.5827 16.3683 13.584 16.0521 13.605L15.7361 13.636C15.4752 13.6697 15.2116 13.5992 15.0023 13.4399C14.793 13.2805 14.6549 13.0451 14.618 12.7847C14.581 12.5243 14.6482 12.2598 14.8048 12.0485C14.9615 11.8373 15.1951 11.6962 15.4551 11.656C16.0027 11.5852 16.556 11.5675 17.1071 11.603M19.1321 8.817C19.3869 8.81753 19.6318 8.9153 19.817 9.09035C20.0021 9.2654 20.1135 9.50452 20.1283 9.75889C20.1431 10.0133 20.0602 10.2637 19.8966 10.459C19.7331 10.6544 19.5011 10.7799 19.2481 10.81L19.1321 10.817H18.4241C18.1693 10.8165 17.9243 10.7187 17.7391 10.5436C17.554 10.3686 17.4426 10.1295 17.4278 9.8751C17.413 9.62074 17.4959 9.37031 17.6595 9.17497C17.8231 8.97962 18.055 8.85409 18.3081 8.824L18.4241 8.817H19.1321ZM15.9501 8.04999C16.1222 8.22219 16.2257 8.45129 16.2409 8.69431C16.2562 8.93734 16.1823 9.17759 16.0331 9.36999L15.9501 9.46399L14.8891 10.525C14.7091 10.7043 14.4676 10.8085 14.2137 10.8162C13.9597 10.824 13.7123 10.7348 13.5218 10.5667C13.3312 10.3987 13.2118 10.1644 13.1877 9.91152C13.1636 9.6586 13.2366 9.40599 13.3921 9.20499L13.4751 9.11099L14.5351 8.05099C14.6279 7.95802 14.7382 7.88426 14.8596 7.83394C14.981 7.78361 15.1111 7.75771 15.2426 7.75771C15.374 7.75771 15.5041 7.78361 15.6255 7.83394C15.7469 7.88426 15.8572 7.95702 15.9501 8.04999ZM13.3631 2.78499C13.8111 4.13099 13.5711 5.605 13.2911 6.63499C13.1228 7.27714 12.8917 7.90115 12.6011 8.49799C12.4826 8.73536 12.2748 8.91597 12.0232 9.00008C11.7716 9.08419 11.4969 9.06491 11.2596 8.94649C11.0222 8.82808 10.8416 8.62021 10.7575 8.36863C10.6734 8.11705 10.6926 7.84236 10.8111 7.60499C11.0429 7.12555 11.2272 6.62447 11.3611 6.10899C11.5881 5.27699 11.7021 4.37399 11.5271 3.63399L11.4661 3.41799C11.4225 3.29293 11.4042 3.16046 11.4122 3.02827C11.4202 2.89608 11.4544 2.7668 11.5129 2.64793C11.5713 2.52907 11.6527 2.42299 11.7524 2.33586C11.8522 2.24872 11.9682 2.18226 12.0938 2.14035C12.2195 2.09843 12.3522 2.08188 12.4842 2.09166C12.6163 2.10144 12.7451 2.13737 12.8632 2.19734C12.9813 2.25731 13.0863 2.34014 13.1721 2.44102C13.2579 2.5419 13.3228 2.65882 13.3631 2.78499ZM18.7781 5.22299C18.9655 5.41052 19.0708 5.66483 19.0708 5.92999C19.0708 6.19516 18.9655 6.44947 18.7781 6.63699L18.0711 7.34399C17.9788 7.4395 17.8685 7.51569 17.7465 7.5681C17.6245 7.62051 17.4932 7.64809 17.3605 7.64925C17.2277 7.6504 17.096 7.6251 16.9731 7.57482C16.8502 7.52454 16.7386 7.45028 16.6447 7.35639C16.5508 7.2625 16.4765 7.15085 16.4262 7.02795C16.376 6.90505 16.3507 6.77337 16.3518 6.64059C16.353 6.50781 16.3805 6.37659 16.433 6.25459C16.4854 6.13259 16.5615 6.02224 16.6571 5.92999L17.3641 5.22299C17.5516 5.03552 17.8059 4.93021 18.0711 4.93021C18.3362 4.93021 18.5905 5.03552 18.7781 5.22299Z" fill="currentColor"/>
</svg>
