<svg width="24" height="24" viewBox="0 0 24 24" fill="none" xmlns="http://www.w3.org/2000/svg">
<path d="M8 2H14.49L14.409 2.032L14.03 2.161C13.4377 2.36328 12.9235 2.74574 12.5594 3.25483C12.1953 3.76391 11.9996 4.37412 11.9996 5C11.9996 5.62588 12.1953 6.23609 12.5594 6.74517C12.9235 7.25426 13.4377 7.63672 14.03 7.839L14.409 7.969C14.5534 8.01827 14.6846 8.09994 14.7926 8.20776C14.9006 8.31557 14.9825 8.44666 15.032 8.591L15.161 8.969C15.289 9.34458 15.4902 9.69104 15.753 9.98832C16.0158 10.2856 16.335 10.5278 16.692 10.7009C17.0491 10.874 17.4369 10.9745 17.8331 10.9967C18.2292 11.0188 18.6259 10.9622 19 10.83V19C19 19.7956 18.6839 20.5587 18.1213 21.1213C17.5587 21.6839 16.7956 22 16 22H8C7.20435 22 6.44129 21.6839 5.87868 21.1213C5.31607 20.5587 5 19.7956 5 19V5C5 4.20435 5.31607 3.44129 5.87868 2.87868C6.44129 2.31607 7.20435 2 8 2ZM12 16C11.6022 16 11.2206 16.158 10.9393 16.4393C10.658 16.7206 10.5 17.1022 10.5 17.5C10.5 17.8978 10.658 18.2794 10.9393 18.5607C11.2206 18.842 11.6022 19 12 19C12.3978 19 12.7794 18.842 13.0607 18.5607C13.342 18.2794 13.5 17.8978 13.5 17.5C13.5 17.1022 13.342 16.7206 13.0607 16.4393C12.7794 16.158 12.3978 16 12 16ZM18 1C18.1871 1 18.3704 1.05248 18.5292 1.15147C18.6879 1.25046 18.8157 1.392 18.898 1.56L18.946 1.677L19.076 2.055C19.2132 2.45718 19.4343 2.82563 19.7246 3.13594C20.0149 3.44625 20.3678 3.69135 20.76 3.855L20.945 3.925L21.323 4.054C21.5102 4.11786 21.6742 4.2358 21.7944 4.3929C21.9146 4.54999 21.9854 4.7392 21.9981 4.93658C22.0107 5.13396 21.9645 5.33065 21.8654 5.50178C21.7662 5.67291 21.6185 5.8108 21.441 5.898L21.323 5.946L20.945 6.076C20.5428 6.2132 20.1744 6.43428 19.8641 6.72459C19.5537 7.01491 19.3087 7.36783 19.145 7.76L19.075 7.945L18.946 8.323C18.882 8.51014 18.764 8.6741 18.6068 8.79416C18.4497 8.91423 18.2605 8.98499 18.0631 8.99752C17.8657 9.01004 17.6691 8.96376 17.498 8.86452C17.3269 8.76528 17.1891 8.61755 17.102 8.44L17.054 8.323L16.924 7.945C16.7868 7.54282 16.5657 7.17437 16.2754 6.86406C15.9851 6.55375 15.6322 6.30865 15.24 6.145L15.055 6.075L14.677 5.946C14.4898 5.88214 14.3258 5.7642 14.2056 5.6071C14.0854 5.45001 14.0146 5.2608 14.0019 5.06342C13.9893 4.86604 14.0355 4.66935 14.1346 4.49822C14.2338 4.32709 14.3815 4.1892 14.559 4.102L14.677 4.054L15.055 3.924C15.4572 3.7868 15.8256 3.56572 16.1359 3.27541C16.4463 2.98509 16.6913 2.63217 16.855 2.24L16.925 2.055L17.054 1.677C17.1214 1.47959 17.2488 1.30818 17.4184 1.18679C17.5881 1.06539 17.7914 1.00008 18 1Z" fill="currentColor"/>
</svg>
