<svg width="24" height="24" viewBox="0 0 24 24" fill="none" xmlns="http://www.w3.org/2000/svg">
<path fill-rule="evenodd" clip-rule="evenodd" d="M15.5348 2.80801L21.1918 8.46401C21.3776 8.64974 21.525 8.87025 21.6255 9.11295C21.7261 9.35566 21.7778 9.6158 21.7778 9.87851C21.7778 10.1412 21.7261 10.4014 21.6255 10.6441C21.525 10.8868 21.3776 11.1073 21.1918 11.293L11.2918 21.193C10.9167 21.568 10.4081 21.7786 9.87776 21.7786C9.34744 21.7786 8.83882 21.568 8.46376 21.193L2.80676 15.535C2.43182 15.16 2.22119 14.6513 2.22119 14.121C2.22119 13.5907 2.43182 13.0821 2.80676 12.707L12.7068 2.80701C13.0818 2.43207 13.5904 2.22144 14.1208 2.22144C14.6511 2.22144 15.1597 2.43207 15.5348 2.80701V2.80801ZM21.1918 15.536C21.3792 15.7235 21.4846 15.9778 21.4846 16.243C21.4846 16.5082 21.3792 16.7625 21.1918 16.95L16.9498 21.192C16.7623 21.3796 16.5079 21.4851 16.2426 21.4852C15.9773 21.4853 15.7229 21.38 15.5353 21.1925C15.3476 21.005 15.2422 20.7506 15.2421 20.4854C15.242 20.2201 15.3473 19.9656 15.5348 19.778L19.7778 15.536C19.9653 15.3485 20.2196 15.2432 20.4848 15.2432C20.7499 15.2432 21.0042 15.3485 21.1918 15.536ZM8.81776 13.768L8.11076 14.475C8.01703 14.5688 7.96437 14.6959 7.96437 14.8285C7.96437 14.9611 8.01703 15.0882 8.11076 15.182L8.81776 15.889C8.91153 15.9827 9.03868 16.0354 9.17126 16.0354C9.30385 16.0354 9.431 15.9827 9.52476 15.889L10.2318 15.182C10.3255 15.0882 10.3782 14.9611 10.3782 14.8285C10.3782 14.6959 10.3255 14.5688 10.2318 14.475L9.52476 13.768C9.431 13.6743 9.30385 13.6216 9.17126 13.6216C9.03868 13.6216 8.91153 13.6743 8.81776 13.768ZM8.46376 2.80801C8.65124 2.99554 8.75655 3.24984 8.75655 3.51501C8.75655 3.78017 8.65124 4.03448 8.46376 4.22201L4.22176 8.46401C4.12892 8.55692 4.01868 8.63063 3.89735 8.68094C3.77602 8.73125 3.64597 8.75716 3.51462 8.75721C3.38327 8.75726 3.2532 8.73143 3.13183 8.68121C3.01046 8.63099 2.90017 8.55735 2.80726 8.46451C2.71435 8.37166 2.64064 8.26143 2.59033 8.1401C2.54002 8.01876 2.51411 7.88871 2.51406 7.75736C2.51402 7.62601 2.53984 7.49594 2.59006 7.37457C2.64028 7.25321 2.71392 7.14292 2.80676 7.05001L7.04976 2.80801C7.23729 2.62054 7.4916 2.51522 7.75676 2.51522C8.02193 2.51522 8.27624 2.62054 8.46376 2.80801Z" fill="currentColor"/>
</svg>
