<svg width="24" height="24" viewBox="0 0 24 24" fill="none" xmlns="http://www.w3.org/2000/svg">
<path d="M17 2C17.5046 1.99984 17.9906 2.19041 18.3605 2.5335C18.7305 2.87659 18.9572 3.34684 18.995 3.85L19 4V20C19.0002 20.5046 18.8096 20.9906 18.4665 21.3605C18.1234 21.7305 17.6532 21.9572 17.15 21.995L17 22H7C6.49542 22.0002 6.00943 21.8096 5.63945 21.4665C5.26947 21.1234 5.04284 20.6532 5.005 20.15L5 20V4C4.99984 3.49542 5.19041 3.00943 5.5335 2.63945C5.87659 2.26947 6.34684 2.04284 6.85 2.005L7 2H17ZM12.5 16H11.5C11.3674 16 11.2402 16.0527 11.1464 16.1464C11.0527 16.2402 11 16.3674 11 16.5V17.5C11 17.6326 11.0527 17.7598 11.1464 17.8536C11.2402 17.9473 11.3674 18 11.5 18H12.5C12.6326 18 12.7598 17.9473 12.8536 17.8536C12.9473 17.7598 13 17.6326 13 17.5V16.5C13 16.3674 12.9473 16.2402 12.8536 16.1464C12.7598 16.0527 12.6326 16 12.5 16Z" fill="currentColor"/>
</svg>
