<svg width="24" height="24" viewBox="0 0 24 24" fill="none" xmlns="http://www.w3.org/2000/svg">
<path fill-rule="evenodd" clip-rule="evenodd" d="M16 2C16.7956 2 17.5587 2.31607 18.1213 2.87868C18.6839 3.44129 19 4.20435 19 5V19C19 19.7956 18.6839 20.5587 18.1213 21.1213C17.5587 21.6839 16.7956 22 16 22H8C7.20435 22 6.44129 21.6839 5.87868 21.1213C5.31607 20.5587 5 19.7956 5 19V5C5 4.20435 5.31607 3.44129 5.87868 2.87868C6.44129 2.31607 7.20435 2 8 2H16ZM12 16C11.6022 16 11.2206 16.158 10.9393 16.4393C10.658 16.7206 10.5 17.1022 10.5 17.5C10.5 17.8978 10.658 18.2794 10.9393 18.5607C11.2206 18.842 11.6022 19 12 19C12.3978 19 12.7794 18.842 13.0607 18.5607C13.342 18.2794 13.5 17.8978 13.5 17.5C13.5 17.1022 13.342 16.7206 13.0607 16.4393C12.7794 16.158 12.3978 16 12 16ZM13.5 5H10.5C10.2348 5 9.98043 5.10536 9.79289 5.29289C9.60536 5.48043 9.5 5.73478 9.5 6C9.5 6.26522 9.60536 6.51957 9.79289 6.70711C9.98043 6.89464 10.2348 7 10.5 7H13.5C13.7652 7 14.0196 6.89464 14.2071 6.70711C14.3946 6.51957 14.5 6.26522 14.5 6C14.5 5.73478 14.3946 5.48043 14.2071 5.29289C14.0196 5.10536 13.7652 5 13.5 5Z" fill="currentColor"/>
</svg>
