<svg width="24" height="24" viewBox="0 0 24 24" fill="none" xmlns="http://www.w3.org/2000/svg">
<path fill-rule="evenodd" clip-rule="evenodd" d="M19 5C19.7956 5 20.5587 5.31607 21.1213 5.87868C21.6839 6.44129 22 7.20435 22 8V16C22 16.7956 21.6839 17.5587 21.1213 18.1213C20.5587 18.6839 19.7956 19 19 19H5C4.20435 19 3.44129 18.6839 2.87868 18.1213C2.31607 17.5587 2 16.7956 2 16V8C2 7.20435 2.31607 6.44129 2.87868 5.87868C3.44129 5.31607 4.20435 5 5 5H19ZM18 9.5C17.7348 9.5 17.4804 9.60536 17.2929 9.79289C17.1054 9.98043 17 10.2348 17 10.5V13.5C17 13.7652 17.1054 14.0196 17.2929 14.2071C17.4804 14.3946 17.7348 14.5 18 14.5C18.2652 14.5 18.5196 14.3946 18.7071 14.2071C18.8946 14.0196 19 13.7652 19 13.5V10.5C19 10.2348 18.8946 9.98043 18.7071 9.79289C18.5196 9.60536 18.2652 9.5 18 9.5ZM6.5 10.5C6.10218 10.5 5.72064 10.658 5.43934 10.9393C5.15804 11.2206 5 11.6022 5 12C5 12.3978 5.15804 12.7794 5.43934 13.0607C5.72064 13.342 6.10218 13.5 6.5 13.5C6.89782 13.5 7.27936 13.342 7.56066 13.0607C7.84196 12.7794 8 12.3978 8 12C8 11.6022 7.84196 11.2206 7.56066 10.9393C7.27936 10.658 6.89782 10.5 6.5 10.5Z" fill="currentColor"/>
</svg>
