<svg width="24" height="24" viewBox="0 0 24 24" fill="none" xmlns="http://www.w3.org/2000/svg">
<path fill-rule="evenodd" clip-rule="evenodd" d="M6 3.5C5.07174 3.5 4.1815 3.86875 3.52513 4.52513C2.86875 5.1815 2.5 6.07174 2.5 7C2.5 7.92826 2.86875 8.8185 3.52513 9.47487C4.1815 10.1313 5.07174 10.5 6 10.5C6.92826 10.5 7.8185 10.1313 8.47487 9.47487C9.13125 8.8185 9.5 7.92826 9.5 7C9.5 6.07174 9.13125 5.1815 8.47487 4.52513C7.8185 3.86875 6.92826 3.5 6 3.5ZM5.5 7C5.5 6.86739 5.55268 6.74021 5.64645 6.64645C5.74021 6.55268 5.86739 6.5 6 6.5C6.13261 6.5 6.25979 6.55268 6.35355 6.64645C6.44732 6.74021 6.5 6.86739 6.5 7C6.5 7.13261 6.44732 7.25979 6.35355 7.35355C6.25979 7.44732 6.13261 7.5 6 7.5C5.86739 7.5 5.74021 7.44732 5.64645 7.35355C5.55268 7.25979 5.5 7.13261 5.5 7ZM15.5 3.5C14.1739 3.5 12.9021 4.02678 11.9645 4.96447C11.0268 5.90215 10.5 7.17392 10.5 8.5V15.5C10.5 16.1566 10.6293 16.8068 10.8806 17.4134C11.1319 18.02 11.5002 18.5712 11.9645 19.0355C12.9021 19.9732 14.1739 20.5 15.5 20.5H16.5C17.8261 20.5 19.0979 19.9732 20.0355 19.0355C20.9732 18.0979 21.5 16.8261 21.5 15.5V15C21.5 14.6022 21.342 14.2206 21.0607 13.9393C20.7794 13.658 20.3978 13.5 20 13.5C19.6022 13.5 19.2206 13.658 18.9393 13.9393C18.658 14.2206 18.5 14.6022 18.5 15V15.5C18.5 16.0304 18.2893 16.5391 17.9142 16.9142C17.5391 17.2893 17.0304 17.5 16.5 17.5H15.5C14.9696 17.5 14.4609 17.2893 14.0858 16.9142C13.7107 16.5391 13.5 16.0304 13.5 15.5V8.5C13.5 7.96957 13.7107 7.46086 14.0858 7.08579C14.4609 6.71071 14.9696 6.5 15.5 6.5H16.5C17.0304 6.5 17.5391 6.71071 17.9142 7.08579C18.2893 7.46086 18.5 7.96957 18.5 8.5V9C18.5 9.39782 18.658 9.77936 18.9393 10.0607C19.2206 10.342 19.6022 10.5 20 10.5C20.3978 10.5 20.7794 10.342 21.0607 10.0607C21.342 9.77936 21.5 9.39782 21.5 9V8.5C21.5 7.17392 20.9732 5.90215 20.0355 4.96447C19.0979 4.02678 17.8261 3.5 16.5 3.5H15.5Z" fill="currentColor"/>
</svg>
