<svg width="24" height="24" viewBox="0 0 24 24" fill="none" xmlns="http://www.w3.org/2000/svg">
<path fill-rule="evenodd" clip-rule="evenodd" d="M19 11C19.6076 11 20.2008 11.1845 20.7012 11.529C21.2016 11.8736 21.5856 12.362 21.8024 12.9295C22.0192 13.4971 22.0586 14.1171 21.9153 14.7075C21.772 15.2979 21.4528 15.8309 21 16.236V21.191C21 21.2763 20.9782 21.3601 20.9367 21.4346C20.8951 21.509 20.8352 21.5716 20.7627 21.6164C20.6901 21.6612 20.6073 21.6867 20.5221 21.6905C20.437 21.6943 20.3522 21.6762 20.276 21.638L19 21L17.724 21.638C17.6478 21.6762 17.563 21.6943 17.4779 21.6905C17.3927 21.6867 17.3099 21.6612 17.2373 21.6164C17.1648 21.5716 17.1049 21.509 17.0633 21.4346C17.0218 21.3601 17 21.2763 17 21.191V16.236C16.5472 15.8309 16.228 15.2979 16.0847 14.7075C15.9414 14.1171 15.9808 13.4971 16.1976 12.9295C16.4144 12.362 16.7984 11.8736 17.2988 11.529C17.7992 11.1845 18.3924 11 19 11ZM20 4C20.5304 4 21.0391 4.21071 21.4142 4.58579C21.7893 4.96086 22 5.46957 22 6V10C21.0371 9.27785 19.8461 8.92726 18.6456 9.01258C17.445 9.0979 16.3155 9.61341 15.4645 10.4645C14.6134 11.3155 14.0979 12.445 14.0126 13.6456C13.9273 14.8461 14.2779 16.0371 15 17V20H4C3.46957 20 2.96086 19.7893 2.58579 19.4142C2.21071 19.0391 2 18.5304 2 18V6C2 5.46957 2.21071 4.96086 2.58579 4.58579C2.96086 4.21071 3.46957 4 4 4H20ZM8 13H6C5.73478 13 5.48043 13.1054 5.29289 13.2929C5.10536 13.4804 5 13.7348 5 14C5 14.2652 5.10536 14.5196 5.29289 14.7071C5.48043 14.8946 5.73478 15 6 15H8C8.26522 15 8.51957 14.8946 8.70711 14.7071C8.89464 14.5196 9 14.2652 9 14C9 13.7348 8.89464 13.4804 8.70711 13.2929C8.51957 13.1054 8.26522 13 8 13ZM12 9H6C5.74512 9.00028 5.49997 9.09788 5.31463 9.27285C5.1293 9.44782 5.01777 9.68695 5.00283 9.94139C4.98789 10.1958 5.07067 10.4464 5.23426 10.6418C5.39786 10.8373 5.6299 10.9629 5.883 10.993L6 11H12C12.2549 10.9997 12.5 10.9021 12.6854 10.7272C12.8707 10.5522 12.9822 10.313 12.9972 10.0586C13.0121 9.80416 12.9293 9.55362 12.7657 9.35817C12.6021 9.16271 12.3701 9.0371 12.117 9.007L12 9Z" fill="currentColor"/>
</svg>
