<svg width="24" height="24" viewBox="0 0 24 24" fill="none" xmlns="http://www.w3.org/2000/svg">
<path fill-rule="evenodd" clip-rule="evenodd" d="M6.5 4C6.5 3.60218 6.34196 3.22064 6.06066 2.93934C5.77936 2.65804 5.39782 2.5 5 2.5C4.60218 2.5 4.22064 2.65804 3.93934 2.93934C3.65804 3.22064 3.5 3.60218 3.5 4V20C3.5 20.3978 3.65804 20.7794 3.93934 21.0607C4.22064 21.342 4.60218 21.5 5 21.5H19C19.3978 21.5 19.7794 21.342 20.0607 21.0607C20.342 20.7794 20.5 20.3978 20.5 20C20.5 19.6022 20.342 19.2206 20.0607 18.9393C19.7794 18.658 19.3978 18.5 19 18.5H6.5V4ZM12 8.5C12.3978 8.5 12.7794 8.34196 13.0607 8.06066C13.342 7.77936 13.5 7.39782 13.5 7C13.5 6.60218 13.342 6.22064 13.0607 5.93934C12.7794 5.65804 12.3978 5.5 12 5.5H9C8.80302 5.5 8.60796 5.5388 8.42597 5.61418C8.24399 5.68956 8.07863 5.80005 7.93934 5.93934C7.80005 6.07863 7.68956 6.24399 7.61418 6.42597C7.5388 6.60796 7.5 6.80302 7.5 7C7.5 7.19698 7.5388 7.39204 7.61418 7.57403C7.68956 7.75601 7.80005 7.92137 7.93934 8.06066C8.07863 8.19995 8.24399 8.31044 8.42597 8.38582C8.60796 8.4612 8.80302 8.5 9 8.5H12ZM18.5 11C18.5 11.3978 18.342 11.7794 18.0607 12.0607C17.7794 12.342 17.3978 12.5 17 12.5H9C8.60218 12.5 8.22064 12.342 7.93934 12.0607C7.65804 11.7794 7.5 11.3978 7.5 11C7.5 10.6022 7.65804 10.2206 7.93934 9.93934C8.22064 9.65804 8.60218 9.5 9 9.5H17C17.3978 9.5 17.7794 9.65804 18.0607 9.93934C18.342 10.2206 18.5 10.6022 18.5 11ZM14 16.5C14.3978 16.5 14.7794 16.342 15.0607 16.0607C15.342 15.7794 15.5 15.3978 15.5 15C15.5 14.6022 15.342 14.2206 15.0607 13.9393C14.7794 13.658 14.3978 13.5 14 13.5H9C8.60218 13.5 8.22064 13.658 7.93934 13.9393C7.65804 14.2206 7.5 14.6022 7.5 15C7.5 15.3978 7.65804 15.7794 7.93934 16.0607C8.22064 16.342 8.60218 16.5 9 16.5H14Z" fill="currentColor"/>
</svg>
