<svg width="24" height="24" viewBox="0 0 24 24" fill="none" xmlns="http://www.w3.org/2000/svg">
<path fill-rule="evenodd" clip-rule="evenodd" d="M3 5C3 4.46957 3.21071 3.96086 3.58579 3.58579C3.96086 3.21071 4.46957 3 5 3H13C13.5304 3 14.0391 3.21071 14.4142 3.58579C14.7893 3.96086 15 4.46957 15 5V12H16C16.5304 12 17.0391 12.2107 17.4142 12.5858C17.7893 12.9609 18 13.4696 18 14V16.5C18 16.6326 18.0527 16.7598 18.1464 16.8536C18.2402 16.9473 18.3674 17 18.5 17C18.6326 17 18.7598 16.9473 18.8536 16.8536C18.9473 16.7598 19 16.6326 19 16.5V10.414L17.75 9.164L17.707 9.207C17.6148 9.30251 17.5044 9.37869 17.3824 9.4311C17.2604 9.48351 17.1292 9.5111 16.9964 9.51225C16.8636 9.5134 16.7319 9.4881 16.609 9.43782C16.4862 9.38754 16.3745 9.31329 16.2806 9.21939C16.1867 9.1255 16.1125 9.01385 16.0622 8.89095C16.0119 8.76806 15.9866 8.63638 15.9877 8.5036C15.9889 8.37082 16.0165 8.2396 16.0689 8.1176C16.1213 7.99559 16.1975 7.88525 16.293 7.793L16.336 7.75L16.293 7.707C16.1108 7.5184 16.01 7.2658 16.0123 7.0036C16.0146 6.7414 16.1198 6.49059 16.3052 6.30518C16.4906 6.11977 16.7414 6.0146 17.0036 6.01233C17.2658 6.01005 17.5184 6.11084 17.707 6.293L20.414 9C20.7891 9.37499 20.9999 9.88361 21 10.414V16.5C21 17.163 20.7366 17.7989 20.2678 18.2678C19.7989 18.7366 19.163 19 18.5 19C17.837 19 17.2011 18.7366 16.7322 18.2678C16.2634 17.7989 16 17.163 16 16.5V14H15V19C15.2652 19 15.5196 19.1054 15.7071 19.2929C15.8946 19.4804 16 19.7348 16 20C16 20.2652 15.8946 20.5196 15.7071 20.7071C15.5196 20.8946 15.2652 21 15 21H3C2.73478 21 2.48043 20.8946 2.29289 20.7071C2.10536 20.5196 2 20.2652 2 20C2 19.7348 2.10536 19.4804 2.29289 19.2929C2.48043 19.1054 2.73478 19 3 19V5ZM9.894 8.447C10.003 8.21109 10.0158 7.94202 9.92986 7.69679C9.84389 7.45156 9.66582 7.24943 9.43339 7.13321C9.20096 7.017 8.93242 6.99583 8.68465 7.07418C8.43688 7.15254 8.22934 7.32427 8.106 7.553L6.113 11.538C6.03595 11.692 5.99954 11.8631 6.00722 12.0351C6.01491 12.2071 6.06643 12.3743 6.15691 12.5207C6.24738 12.6672 6.3738 12.7882 6.52416 12.872C6.67452 12.9559 6.84383 13 7.016 13H9.382L8.106 15.553C8.04243 15.6709 8.00319 15.8003 7.99061 15.9337C7.97802 16.067 7.99234 16.2015 8.03272 16.3292C8.0731 16.4569 8.13872 16.5751 8.22569 16.677C8.31265 16.7788 8.41918 16.8622 8.53897 16.9221C8.65875 16.982 8.78934 17.0172 8.923 17.0256C9.05666 17.0341 9.19065 17.0156 9.31703 16.9713C9.44341 16.927 9.5596 16.8578 9.65872 16.7677C9.75783 16.6776 9.83784 16.5686 9.894 16.447L11.887 12.462C11.9641 12.308 12.0005 12.1369 11.9928 11.9649C11.9851 11.7929 11.9336 11.6257 11.8431 11.4793C11.7526 11.3328 11.6262 11.2118 11.4758 11.128C11.3255 11.0441 11.1562 11 10.984 11H8.618L9.894 8.447Z" fill="currentColor"/>
</svg>
