<svg width="24" height="24" viewBox="0 0 24 24" fill="none" xmlns="http://www.w3.org/2000/svg">
<path fill-rule="evenodd" clip-rule="evenodd" d="M5.5 5C5.5 4.60218 5.34196 4.22064 5.06066 3.93934C4.77936 3.65804 4.39782 3.5 4 3.5C3.60218 3.5 3.22064 3.65804 2.93934 3.93934C2.65804 4.22064 2.5 4.60218 2.5 5V19C2.5 19.3978 2.65804 19.7794 2.93934 20.0607C3.22064 20.342 3.60218 20.5 4 20.5H20C20.3978 20.5 20.7794 20.342 21.0607 20.0607C21.342 19.7794 21.5 19.3978 21.5 19C21.5 18.6022 21.342 18.2206 21.0607 17.9393C20.7794 17.658 20.3978 17.5 20 17.5H5.5V5ZM9.5 12C9.5 11.6022 9.34196 11.2206 9.06066 10.9393C8.77936 10.658 8.39782 10.5 8 10.5C7.60218 10.5 7.22064 10.658 6.93934 10.9393C6.65804 11.2206 6.5 11.6022 6.5 12V15C6.5 15.3978 6.65804 15.7794 6.93934 16.0607C7.22064 16.342 7.60218 16.5 8 16.5C8.39782 16.5 8.77936 16.342 9.06066 16.0607C9.34196 15.7794 9.5 15.3978 9.5 15V12ZM12 5.5C12.3978 5.5 12.7794 5.65804 13.0607 5.93934C13.342 6.22064 13.5 6.60218 13.5 7V15C13.5 15.3978 13.342 15.7794 13.0607 16.0607C12.7794 16.342 12.3978 16.5 12 16.5C11.6022 16.5 11.2206 16.342 10.9393 16.0607C10.658 15.7794 10.5 15.3978 10.5 15V7C10.5 6.60218 10.658 6.22064 10.9393 5.93934C11.2206 5.65804 11.6022 5.5 12 5.5ZM17.5 10C17.5 9.60218 17.342 9.22064 17.0607 8.93934C16.7794 8.65804 16.3978 8.5 16 8.5C15.6022 8.5 15.2206 8.65804 14.9393 8.93934C14.658 9.22064 14.5 9.60218 14.5 10V15C14.5 15.3978 14.658 15.7794 14.9393 16.0607C15.2206 16.342 15.6022 16.5 16 16.5C16.3978 16.5 16.7794 16.342 17.0607 16.0607C17.342 15.7794 17.5 15.3978 17.5 15V10Z" fill="currentColor"/>
</svg>
