<svg width="24" height="24" viewBox="0 0 24 24" fill="none" xmlns="http://www.w3.org/2000/svg">
<path d="M8.667 2.56999C8.80811 2.52008 8.95863 2.50249 9.10745 2.51851C9.25627 2.53452 9.3996 2.58374 9.52686 2.66254C9.65412 2.74133 9.76207 2.84769 9.84275 2.97377C9.92343 3.09985 9.97477 3.24243 9.993 3.39099L10 3.51199V12C9.99984 12.5046 10.1904 12.9906 10.5335 13.3605C10.8766 13.7305 11.3468 13.9571 11.85 13.995L12 14H20.488C20.648 14 20.8056 14.0383 20.9476 14.1119C21.0897 14.1854 21.2121 14.2919 21.3044 14.4225C21.3968 14.5531 21.4565 14.7039 21.4786 14.8623C21.5006 15.0208 21.4843 15.1822 21.431 15.333C20.058 19.216 16.356 22 12 22C6.477 22 2 17.523 2 12C2 7.64399 4.784 3.94199 8.667 2.56999ZM12.989 2.05499L13.109 2.06099C15.3641 2.31322 17.4664 3.32459 19.0709 4.9291C20.6754 6.53361 21.6868 8.63593 21.939 10.891C21.9678 11.1526 21.8923 11.415 21.7288 11.6213C21.5654 11.8276 21.3272 11.9611 21.066 11.993L20.946 12H13C12.7551 12 12.5187 11.91 12.3356 11.7473C12.1526 11.5845 12.0357 11.3602 12.007 11.117L12 11V3.05499C12 2.79167 12.1038 2.53897 12.289 2.35175C12.4742 2.16452 12.7257 2.05789 12.989 2.05499Z" fill="currentColor"/>
</svg>
