<svg width="24" height="24" viewBox="0 0 24 24" fill="none" xmlns="http://www.w3.org/2000/svg">
<path d="M4 3.5C4.37288 3.50002 4.73239 3.63892 5.00842 3.88962C5.28445 4.14032 5.4572 4.48484 5.493 4.856L5.5 5V17.5H20C20.3852 17.5002 20.7556 17.6486 21.0344 17.9144C21.3132 18.1802 21.479 18.5431 21.4975 18.9279C21.516 19.3127 21.3858 19.6898 21.1338 19.9812C20.8818 20.2726 20.5274 20.4558 20.144 20.493L20 20.5H4C3.62712 20.5 3.26761 20.3611 2.99158 20.1104C2.71555 19.8597 2.5428 19.5152 2.507 19.144L2.5 19V5C2.5 4.60218 2.65804 4.22064 2.93934 3.93934C3.22064 3.65804 3.60218 3.5 4 3.5ZM20.193 6.318C21.539 6.318 22.213 7.945 21.261 8.896L15.692 14.465C15.5434 14.6136 15.367 14.7315 15.1729 14.8119C14.9787 14.8924 14.7706 14.9338 14.5605 14.9338C14.3504 14.9338 14.1423 14.8924 13.9481 14.8119C13.754 14.7315 13.5776 14.6136 13.429 14.465L11.025 12.061L8.55 14.536C8.41067 14.6753 8.24527 14.7857 8.06325 14.8611C7.88123 14.9364 7.68615 14.9752 7.48915 14.9751C7.29215 14.9751 7.09709 14.9362 6.9151 14.8608C6.73311 14.7854 6.56777 14.6748 6.4285 14.5355C6.28923 14.3962 6.17877 14.2308 6.10343 14.0487C6.02808 13.8667 5.98933 13.6716 5.98937 13.4746C5.98942 13.2776 6.02827 13.0826 6.1037 12.9006C6.17913 12.7186 6.28967 12.5533 6.429 12.414L9.894 8.95C10.194 8.65017 10.6008 8.48174 11.025 8.48174C11.4492 8.48174 11.856 8.65017 12.156 8.95L14.561 11.355L16.742 9.173C16.4347 9.02649 16.1864 8.7798 16.0378 8.47347C15.8893 8.16714 15.8494 7.81939 15.9246 7.48737C15.9999 7.15534 16.1859 6.8588 16.452 6.64647C16.7181 6.43415 17.0486 6.31866 17.389 6.319L20.193 6.318Z" fill="currentColor"/>
</svg>
