<svg width="24" height="24" viewBox="0 0 24 24" fill="none" xmlns="http://www.w3.org/2000/svg">
<path d="M12 2C17.523 2 22 6.477 22 12C22 17.523 17.523 22 12 22H4C3.46957 22 2.96086 21.7893 2.58579 21.4142C2.21071 21.0391 2 20.5304 2 20V12C2 6.477 6.477 2 12 2ZM12 14H9C8.73478 14 8.48043 14.1054 8.29289 14.2929C8.10536 14.4804 8 14.7348 8 15C8 15.2652 8.10536 15.5196 8.29289 15.7071C8.48043 15.8946 8.73478 16 9 16H12C12.2652 16 12.5196 15.8946 12.7071 15.7071C12.8946 15.5196 13 15.2652 13 15C13 14.7348 12.8946 14.4804 12.7071 14.2929C12.5196 14.1054 12.2652 14 12 14ZM15 10H9C8.74512 10.0003 8.49997 10.0979 8.31463 10.2728C8.1293 10.4478 8.01776 10.687 8.00283 10.9414C7.98789 11.1958 8.07067 11.4464 8.23426 11.6418C8.39785 11.8373 8.6299 11.9629 8.883 11.993L9 12H15C15.2549 11.9997 15.5 11.9021 15.6854 11.7272C15.8707 11.5522 15.9822 11.313 15.9972 11.0586C16.0121 10.8042 15.9293 10.5536 15.7657 10.3582C15.6021 10.1627 15.3701 10.0371 15.117 10.007L15 10Z" fill="currentColor"/>
</svg>
