<svg width="24" height="24" viewBox="0 0 24 24" fill="none" xmlns="http://www.w3.org/2000/svg">
<path fill-rule="evenodd" clip-rule="evenodd" d="M17 3C18.3261 3 19.5979 3.52678 20.5355 4.46447C21.4732 5.40215 22 6.67392 22 8V16C22 17.3261 21.4732 18.5979 20.5355 19.5355C19.5979 20.4732 18.3261 21 17 21H3C2.73478 21 2.48043 20.8946 2.29289 20.7071C2.10536 20.5196 2 20.2652 2 20V8C2 6.67392 2.52678 5.40215 3.46447 4.46447C4.40215 3.52678 5.67392 3 7 3H17ZM9 10C8.75507 10 8.51866 10.09 8.33563 10.2527C8.15259 10.4155 8.03566 10.6397 8.007 10.883L8 11V13C8.00028 13.2549 8.09788 13.5 8.27285 13.6854C8.44782 13.8707 8.68695 13.9822 8.94139 13.9972C9.19584 14.0121 9.44638 13.9293 9.64183 13.7657C9.83729 13.6021 9.9629 13.3701 9.993 13.117L10 13V11C10 10.7348 9.89464 10.4804 9.70711 10.2929C9.51957 10.1054 9.26522 10 9 10ZM15 10C14.7348 10 14.4804 10.1054 14.2929 10.2929C14.1054 10.4804 14 10.7348 14 11V13C14 13.2652 14.1054 13.5196 14.2929 13.7071C14.4804 13.8946 14.7348 14 15 14C15.2652 14 15.5196 13.8946 15.7071 13.7071C15.8946 13.5196 16 13.2652 16 13V11C16 10.7348 15.8946 10.4804 15.7071 10.2929C15.5196 10.1054 15.2652 10 15 10Z" fill="currentColor"/>
</svg>
