<svg width="24" height="24" viewBox="0 0 24 24" fill="none" xmlns="http://www.w3.org/2000/svg">
<path fill-rule="evenodd" clip-rule="evenodd" d="M18.1319 5.11099C18.4131 5.39229 18.5711 5.77375 18.5711 6.17149C18.5711 6.56924 18.4131 6.9507 18.1319 7.23199L13.1819 12.182C12.9006 12.4634 12.5191 12.6215 12.1212 12.6216C11.7234 12.6217 11.3418 12.4638 11.0604 12.1825C10.779 11.9012 10.6209 11.5197 10.6208 11.1218C10.6207 10.724 10.7786 10.3424 11.0599 10.061L16.0099 5.11099C16.2912 4.82979 16.6726 4.67181 17.0704 4.67181C17.4681 4.67181 17.8506 4.82979 18.1319 5.11099ZM23.1319 5.11099C23.4131 5.39229 23.5711 5.77375 23.5711 6.17149C23.5711 6.56924 23.4131 6.9507 23.1319 7.23199L13.3019 17.062C13.0019 17.3618 12.5951 17.5303 12.1709 17.5303C11.7467 17.5303 11.3399 17.3618 11.0399 17.062L6.86789 12.889C6.72463 12.7506 6.61035 12.5851 6.53174 12.4021C6.45312 12.2191 6.41175 12.0223 6.41002 11.8231C6.40828 11.6239 6.44624 11.4264 6.52166 11.2421C6.59708 11.0577 6.70846 10.8902 6.8493 10.7494C6.99014 10.6086 7.15762 10.4972 7.34196 10.4218C7.5263 10.3463 7.72382 10.3084 7.92299 10.3101C8.12216 10.3118 8.31899 10.3532 8.502 10.4318C8.685 10.5105 8.85052 10.6247 8.98889 10.768L12.1709 13.95L21.0109 5.11099C21.2921 4.83009 21.6734 4.67231 22.0709 4.67231C22.4684 4.67231 22.8506 4.83009 23.1319 5.11099ZM1.86689 10.768C2.14818 10.4868 2.52964 10.3288 2.92739 10.3288C3.32514 10.3288 3.7066 10.4868 3.98789 10.768L8.23089 15.011C8.37652 15.1488 8.49304 15.3144 8.57356 15.498C8.65409 15.6816 8.697 15.8795 8.69974 16.08C8.70248 16.2805 8.665 16.4795 8.58952 16.6652C8.51404 16.8509 8.40209 17.0197 8.26029 17.1614C8.11848 17.3031 7.9497 17.415 7.76393 17.4904C7.57815 17.5658 7.37914 17.6032 7.17867 17.6003C6.97819 17.5975 6.78032 17.5545 6.59675 17.4739C6.41318 17.3933 6.24763 17.2767 6.10989 17.131L1.86789 12.89C1.58668 12.6087 1.42871 12.2272 1.42871 11.8295C1.42871 11.4317 1.58668 11.0503 1.86789 10.769L1.86689 10.768Z" fill="currentColor"/>
</svg>
