<svg width="24" height="24" viewBox="0 0 24 24" fill="none" xmlns="http://www.w3.org/2000/svg">
<path fill-rule="evenodd" clip-rule="evenodd" d="M12.0002 3C10.2722 3 8.75018 3.876 7.85218 5.207C6.72011 4.8288 5.48416 4.91581 4.41623 5.44888C3.3483 5.98195 2.53588 6.91743 2.15768 8.0495C1.77948 9.18158 1.86649 10.4175 2.39956 11.4855C2.93263 12.5534 3.86811 13.3658 5.00018 13.744V18C5.00018 18.7957 5.31625 19.5587 5.87886 20.1213C6.44147 20.6839 7.20453 21 8.00018 21H16.0002C16.7958 21 17.5589 20.6839 18.1215 20.1213C18.6841 19.5587 19.0002 18.7957 19.0002 18V13.744C20.114 13.3515 21.029 12.537 21.5478 11.476C22.0665 10.4151 22.1475 9.19279 21.7733 8.07266C21.3991 6.95254 20.5997 6.02437 19.5474 5.48829C18.4951 4.95222 17.2743 4.85119 16.1482 5.207C15.6908 4.52713 15.0733 3.9702 14.3499 3.58532C13.6265 3.20045 12.8196 2.99943 12.0002 3ZM7.00018 18V17H17.0002V18C17.0002 18.2652 16.8948 18.5196 16.7073 18.7071C16.5198 18.8946 16.2654 19 16.0002 19H8.00018C7.73497 19 7.48061 18.8946 7.29308 18.7071C7.10554 18.5196 7.00018 18.2652 7.00018 18Z" fill="currentColor"/>
</svg>
