<svg width="24" height="24" viewBox="0 0 24 24" fill="none" xmlns="http://www.w3.org/2000/svg">
<path fill-rule="evenodd" clip-rule="evenodd" d="M7.00036 2H10.0004C12.2224 2 15.7574 3.108 16.9494 6.684C17.4944 8.32 17.2714 9.731 17.0454 11.165C17.0254 11.285 17.0074 11.406 16.9884 11.527C16.7714 12.941 16.5584 14.605 16.8634 17H18.0004C18.2656 17 18.5199 17.1054 18.7075 17.2929C18.895 17.4804 19.0004 17.7348 19.0004 18V21C19.0004 21.2652 18.895 21.5196 18.7075 21.7071C18.5199 21.8946 18.2656 22 18.0004 22H6.00036C5.73515 22 5.48079 21.8946 5.29326 21.7071C5.10572 21.5196 5.00036 21.2652 5.00036 21V18C5.00036 17.7348 5.10572 17.4804 5.29326 17.2929C5.48079 17.1054 5.73515 17 6.00036 17H7.10636C7.33836 15.856 8.00636 14.282 9.67036 12.644C9.85236 12.464 9.96036 12.257 10.0054 12.052C8.94821 12.7123 7.84351 13.2932 6.70036 13.79C6.42686 13.908 6.12418 13.941 5.83169 13.8846C5.5392 13.8283 5.27044 13.6852 5.06036 13.474L3.58336 11.997C3.338 11.7519 3.18518 11.4293 3.1509 11.0841C3.11662 10.739 3.20301 10.3926 3.39536 10.104L6.84636 4.928L6.10636 3.448C6.02997 3.29554 5.99383 3.12608 6.00138 2.95572C6.00893 2.78536 6.05992 2.61976 6.14951 2.47466C6.23909 2.32956 6.3643 2.20978 6.51322 2.1267C6.66214 2.04362 6.82984 2.00001 7.00036 2ZM9.00036 9C9.26558 9 9.51993 8.89464 9.70747 8.70711C9.89501 8.51957 10.0004 8.26522 10.0004 8C10.0004 7.73478 9.89501 7.48043 9.70747 7.29289C9.51993 7.10536 9.26558 7 9.00036 7C8.73515 7 8.48079 7.10536 8.29326 7.29289C8.10572 7.48043 8.00036 7.73478 8.00036 8C8.00036 8.26522 8.10572 8.51957 8.29326 8.70711C8.48079 8.89464 8.73515 9 9.00036 9Z" fill="currentColor"/>
</svg>
