<svg width="24" height="24" viewBox="0 0 24 24" fill="none" xmlns="http://www.w3.org/2000/svg">
<path d="M20.1324 5.98999C19.7604 5.61695 19.2964 5.3489 18.7874 5.21299C18.6786 4.81087 18.4873 4.4358 18.2256 4.11168C17.9639 3.78757 17.6376 3.52151 17.2674 3.33045C16.8972 3.1394 16.4913 3.02753 16.0755 3.00199C15.6597 2.97644 15.2431 3.03777 14.8523 3.18206C14.4615 3.32636 14.1051 3.55047 13.8057 3.84011C13.5063 4.12974 13.2704 4.47857 13.1133 4.86435C12.9561 5.25014 12.8809 5.66443 12.8927 6.08085C12.9044 6.49727 13.0027 6.90667 13.1814 7.283L12.3734 8.093C12.3621 8.09129 12.3508 8.08963 12.3394 8.088C11.4124 7.971 10.3834 8.04 9.37041 8.24C7.37041 8.63599 5.22142 9.58699 3.86842 10.94C2.50242 12.306 1.93842 13.918 2.08242 15.531C2.22442 17.114 3.03642 18.593 4.22242 19.778C5.40842 20.964 6.88641 21.777 8.46941 21.918C10.0824 22.063 11.6944 21.498 13.0614 20.132C14.4134 18.779 15.3654 16.632 15.7614 14.63C15.9614 13.618 16.0294 12.588 15.9134 11.662C15.9118 11.6507 15.9101 11.6393 15.9084 11.628L16.7174 10.818C17.3559 11.1216 18.081 11.1901 18.765 11.0113C19.449 10.8325 20.048 10.418 20.4562 9.84082C20.8645 9.26363 21.0559 8.56084 20.9966 7.85635C20.9374 7.15185 20.6313 6.49089 20.1324 5.98999Z" fill="currentColor"/>
</svg>
