<svg width="24" height="24" viewBox="0 0 24 24" fill="none" xmlns="http://www.w3.org/2000/svg">
<path fill-rule="evenodd" clip-rule="evenodd" d="M3 6C3 5.20435 3.31607 4.44129 3.87868 3.87868C4.44129 3.31607 5.20435 3 6 3H15C16.737 3 18.301 3.738 19.397 4.917C19.7164 4.7056 20.0408 4.50187 20.37 4.306C20.6007 4.17512 20.874 4.14125 21.1297 4.21186C21.3854 4.28247 21.6026 4.45176 21.7335 4.6825C21.8644 4.91324 21.8982 5.18652 21.8276 5.44223C21.757 5.69793 21.5877 5.91512 21.357 6.046C21.252 6.106 20.481 6.599 20.496 6.589C20.8295 7.34899 21.0011 8.17007 21 9V18C21 18.7956 20.6839 19.5587 20.1213 20.1213C19.5587 20.6839 18.7956 21 18 21H6C5.20435 21 4.44129 20.6839 3.87868 20.1213C3.31607 19.5587 3 18.7956 3 18V6ZM19.656 7.174C19.4096 6.54629 19.0388 5.97485 18.566 5.494C17.9878 5.91108 17.4241 6.348 16.876 6.804C15.234 8.17 13.262 10.094 11.637 12.522C11.133 11.8554 10.5463 11.2556 9.891 10.737C9.5878 10.4982 9.26499 10.2855 8.926 10.101C8.78097 10.0201 8.63024 9.94994 8.475 9.891C8.22596 9.79963 7.95083 9.81094 7.71012 9.92243C7.46942 10.0339 7.28287 10.2365 7.1915 10.4855C7.10013 10.7345 7.11144 11.0097 7.22293 11.2504C7.33442 11.4911 7.53696 11.6776 7.786 11.769C7.811 11.779 8.156 11.921 8.662 12.315C9.24 12.765 10.038 13.554 10.808 14.872C10.8966 15.0237 11.0236 15.1495 11.1762 15.2365C11.3288 15.3236 11.5017 15.3689 11.6774 15.3678C11.8531 15.3668 12.0254 15.3195 12.177 15.2307C12.3286 15.1419 12.4542 15.0148 12.541 14.862C14.125 12.07 16.328 9.862 18.155 8.342C18.6424 7.93636 19.143 7.54682 19.656 7.174Z" fill="currentColor"/>
</svg>
