<svg width="24" height="24" viewBox="0 0 24 24" fill="none" xmlns="http://www.w3.org/2000/svg">
<path d="M18.1906 6.362C18.454 6.08154 18.815 5.91298 19.1991 5.89116C19.5832 5.86934 19.961 5.99594 20.2544 6.24479C20.5478 6.49363 20.7344 6.8457 20.7755 7.2282C20.8167 7.61071 20.7094 7.99442 20.4756 8.3L20.3756 8.417L8.41363 21.14C8.1503 21.4205 7.78926 21.589 7.40517 21.6108C7.02107 21.6327 6.64327 21.5061 6.34987 21.2572C6.05647 21.0084 5.8699 20.6563 5.82872 20.2738C5.78755 19.8913 5.89492 19.5076 6.12863 19.202L6.22863 19.085L18.1906 6.362ZM11.9206 3.14C12.1138 2.80749 12.4274 2.56189 12.7965 2.45393C13.1656 2.34596 13.562 2.38389 13.904 2.55986C14.2459 2.73584 14.5072 3.03642 14.6339 3.39953C14.7606 3.76264 14.7429 4.16052 14.5846 4.511L14.5186 4.64L6.01863 19.362C5.82543 19.6945 5.51189 19.9401 5.14279 20.0481C4.77369 20.156 4.37723 20.1181 4.03528 19.9421C3.69334 19.7662 3.43205 19.4656 3.30538 19.1025C3.17872 18.7394 3.19635 18.3415 3.35463 17.991L3.42063 17.862L11.9206 3.14Z" fill="currentColor"/>
</svg>
