<svg width="24" height="24" viewBox="0 0 24 24" fill="none" xmlns="http://www.w3.org/2000/svg">
<path fill-rule="evenodd" clip-rule="evenodd" d="M12.2296 3C14.0514 2.99968 15.8062 3.68716 17.143 4.92494C18.4798 6.16271 19.3 7.85952 19.4396 9.676L19.9836 16.749C20.3596 17.0805 20.6466 17.501 20.8182 17.972C20.9899 18.443 21.0408 18.9495 20.9663 19.4452C20.8918 19.9409 20.6942 20.4101 20.3917 20.8098C20.0892 21.2095 19.6913 21.527 19.2344 21.7334C18.7776 21.9397 18.2763 22.0283 17.7764 21.991C17.2765 21.9537 16.7939 21.7917 16.3727 21.5198C15.9515 21.248 15.6052 20.8749 15.3653 20.4347C15.1255 19.9946 14.9997 19.5013 14.9996 19L5.99959 19.001C5.29112 19.0021 4.60512 18.7523 4.06312 18.2961C3.52112 17.8398 3.15808 17.2065 3.0383 16.5082C2.91853 15.8099 3.04975 15.0918 3.40873 14.481C3.7677 13.8702 4.33126 13.4061 4.99959 13.171V10.231C4.99946 9.28146 5.18637 8.34119 5.54966 7.46389C5.91294 6.58659 6.44548 5.78944 7.11686 5.11797C7.78824 4.4465 8.58531 3.91385 9.46256 3.55045C10.3398 3.18704 11.2801 3 12.2296 3ZM17.9996 18C17.7344 18 17.48 18.1054 17.2925 18.2929C17.1049 18.4804 16.9996 18.7348 16.9996 19C16.9996 19.2652 17.1049 19.5196 17.2925 19.7071C17.48 19.8946 17.7344 20 17.9996 20C18.2648 20 18.5192 19.8946 18.7067 19.7071C18.8942 19.5196 18.9996 19.2652 18.9996 19C18.9996 18.7348 18.8942 18.4804 18.7067 18.2929C18.5192 18.1054 18.2648 18 17.9996 18ZM15.2796 15H5.99959C5.74471 15.0003 5.49956 15.0979 5.31422 15.2728C5.12889 15.4478 5.01736 15.687 5.00242 15.9414C4.98748 16.1958 5.07027 16.4464 5.23386 16.6418C5.39745 16.8373 5.6295 16.9629 5.88259 16.993L5.99959 17H15.7636L15.8986 16.859L15.2796 15Z" fill="currentColor"/>
</svg>
