<svg width="24" height="24" viewBox="0 0 24 24" fill="none" xmlns="http://www.w3.org/2000/svg">
<path fill-rule="evenodd" clip-rule="evenodd" d="M12.894 2.55297C12.8109 2.38709 12.6832 2.24761 12.5253 2.15014C12.3675 2.05266 12.1856 2.00104 12 2.00104C11.8145 2.00104 11.6326 2.05266 11.4747 2.15014C11.3168 2.24761 11.1892 2.38709 11.106 2.55297L10.302 4.15997C8.10293 4.58245 6.14032 5.80957 4.79756 7.60163C3.45479 9.39368 2.82832 11.622 3.04052 13.8512C3.25271 16.0804 4.28833 18.1505 5.94509 19.657C7.60184 21.1635 9.76071 21.9983 12 21.9983C14.2393 21.9983 16.3982 21.1635 18.055 19.657C19.7117 18.1505 20.7473 16.0804 20.9595 13.8512C21.1717 11.622 20.5452 9.39368 19.2025 7.60163C17.8597 5.80957 15.8971 4.58245 13.698 4.15997L12.894 2.55297ZM16.954 8.05497C15.139 7.93497 13.234 8.38597 11.419 9.68297L11.171 9.85297C9.42902 10.996 7.61002 11.16 5.95102 10.749C5.77604 10.696 5.60169 10.641 5.42802 10.584C5.19418 11.2199 5.05438 11.8866 5.01302 12.563C5.14602 12.604 5.29802 12.648 5.46902 12.69C7.72902 13.25 10.232 12.988 12.581 11.31L12.829 11.14C14.571 9.99597 16.39 9.83197 18.049 10.244L18.495 10.385C18.1432 9.51287 17.6184 8.72048 16.954 8.05497ZM18.988 13.43C18.8374 13.383 18.6853 13.3406 18.532 13.303C16.272 12.742 13.769 13.004 11.42 14.683L11.172 14.853C9.43002 15.996 7.61102 16.16 5.95202 15.749C5.80145 15.7035 5.65144 15.6561 5.50202 15.607C5.85602 16.487 6.38202 17.277 7.03902 17.937C8.85602 18.059 10.765 17.608 12.582 16.31L12.83 16.14C14.572 14.996 16.391 14.832 18.05 15.244L18.575 15.41C18.8083 14.7736 18.9474 14.1065 18.988 13.43Z" fill="currentColor"/>
</svg>
