<svg width="24" height="24" viewBox="0 0 24 24" fill="none" xmlns="http://www.w3.org/2000/svg">
<path d="M14 8C14.5304 8 15.0391 8.21071 15.4142 8.58578C15.7893 8.96086 16 9.46956 16 10V19C16 19.5304 15.7893 20.0391 15.4142 20.4142C15.0391 20.7893 14.5304 21 14 21H4C3.46957 21 2.96086 20.7893 2.58579 20.4142C2.21071 20.0391 2 19.5304 2 19V10C2 9.46956 2.21071 8.96086 2.58579 8.58578C2.96086 8.21071 3.46957 8 4 8H14ZM13.06 3.658C13.1049 3.53453 13.1736 3.42112 13.2624 3.32424C13.3511 3.22736 13.458 3.14891 13.5771 3.09338C13.6962 3.03784 13.825 3.00631 13.9562 3.00058C14.0875 2.99486 14.2186 3.01504 14.342 3.06C16.739 3.932 18.424 5.638 19.574 7.332L19.794 7.664L20 7.995V7C20.0003 6.74512 20.0979 6.49996 20.2728 6.31463C20.4478 6.12929 20.687 6.01776 20.9414 6.00282C21.1958 5.98789 21.4464 6.07067 21.6418 6.23426C21.8373 6.39785 21.9629 6.6299 21.993 6.883L22 7V12.056C22 12.739 21.483 13.031 21.16 13.123L21.028 13.152C20.743 13.192 20.026 13.126 19.795 12.392L19.663 11.99C19.342 11.056 18.788 9.733 17.92 8.456C16.919 6.982 15.537 5.623 13.658 4.94C13.5345 4.89511 13.4211 4.82635 13.3242 4.73762C13.2274 4.64889 13.1489 4.54195 13.0934 4.42289C13.0378 4.30384 13.0063 4.17501 13.0006 4.04377C12.9949 3.91252 13.015 3.78143 13.06 3.658Z" fill="currentColor"/>
</svg>
