<svg width="24" height="24" viewBox="0 0 24 24" fill="none" xmlns="http://www.w3.org/2000/svg">
<path fill-rule="evenodd" clip-rule="evenodd" d="M3 5C3 4.46957 3.21071 3.96086 3.58579 3.58579C3.96086 3.21071 4.46957 3 5 3H19C19.5304 3 20.0391 3.21071 20.4142 3.58579C20.7893 3.96086 21 4.46957 21 5V19C21 19.5304 20.7893 20.0391 20.4142 20.4142C20.0391 20.7893 19.5304 21 19 21H5C4.46957 21 3.96086 20.7893 3.58579 20.4142C3.21071 20.0391 3 19.5304 3 19V5ZM8.464 8.465C8.55687 8.37202 8.66716 8.29826 8.78856 8.24794C8.90996 8.19762 9.04008 8.17171 9.1715 8.17171C9.30292 8.17171 9.43304 8.19762 9.55444 8.24794C9.67584 8.29826 9.78613 8.37202 9.879 8.465L11.999 10.585L14.121 8.465C14.2138 8.37209 14.3241 8.29838 14.4454 8.24807C14.5667 8.19776 14.6968 8.17184 14.8281 8.1718C14.9595 8.17175 15.0896 8.19758 15.2109 8.2478C15.3323 8.29802 15.4426 8.37166 15.5355 8.4645C15.6284 8.55734 15.7021 8.66758 15.7524 8.78891C15.8027 8.91024 15.8287 9.0403 15.8287 9.17165C15.8287 9.30299 15.8029 9.43307 15.7527 9.55443C15.7025 9.6758 15.6288 9.78609 15.536 9.879L13.414 12L15.536 14.121C15.7236 14.3086 15.8291 14.5631 15.8291 14.8285C15.8291 15.0939 15.7236 15.3484 15.536 15.536C15.3484 15.7236 15.0939 15.8291 14.8285 15.8291C14.5631 15.8291 14.3086 15.7236 14.121 15.536L12 13.414L9.879 15.536C9.69136 15.7236 9.43686 15.8291 9.1715 15.8291C8.90614 15.8291 8.65164 15.7236 8.464 15.536C8.27636 15.3484 8.17094 15.0939 8.17094 14.8285C8.17094 14.5631 8.27636 14.3086 8.464 14.121L10.586 12L8.464 9.879C8.27653 9.69147 8.17121 9.43716 8.17121 9.172C8.17121 8.90684 8.27653 8.65253 8.464 8.465Z" fill="currentColor"/>
</svg>
