<svg width="24" height="24" viewBox="0 0 24 24" fill="none" xmlns="http://www.w3.org/2000/svg">
<path d="M14.4994 19C14.8972 19 15.2787 19.158 15.56 19.4393C15.8413 19.7206 15.9994 20.1022 15.9994 20.5C15.9994 20.8978 15.8413 21.2794 15.56 21.5607C15.2787 21.842 14.8972 22 14.4994 22C14.1015 22 13.72 21.842 13.4387 21.5607C13.1574 21.2794 12.9994 20.8978 12.9994 20.5C12.9994 20.1022 13.1574 19.7206 13.4387 19.4393C13.72 19.158 14.1015 19 14.4994 19ZM10.4994 17C10.8972 17 11.2787 17.158 11.56 17.4393C11.8413 17.7206 11.9994 18.1022 11.9994 18.5C11.9994 18.8978 11.8413 19.2794 11.56 19.5607C11.2787 19.842 10.8972 20 10.4994 20C10.1015 20 9.72001 19.842 9.43871 19.5607C9.1574 19.2794 8.99937 18.8978 8.99937 18.5C8.99937 18.1022 9.1574 17.7206 9.43871 17.4393C9.72001 17.158 10.1015 17 10.4994 17ZM11.4994 2C12.8218 1.99987 14.1128 2.40298 15.2002 3.15554C16.2876 3.9081 17.1196 4.97433 17.5854 6.212C18.837 6.55568 19.9435 7.29583 20.739 8.32149C21.5344 9.34714 21.9759 10.603 21.9973 11.9008C22.0187 13.1986 21.6189 14.4683 20.8577 15.5197C20.0965 16.571 19.015 17.3472 17.7754 17.732C17.9745 17.2024 18.0423 16.6324 17.973 16.0709C17.9036 15.5093 17.6991 14.973 17.377 14.5078C17.055 14.0426 16.6249 13.6624 16.1237 13.3998C15.6226 13.1372 15.0652 13 14.4994 13C14.267 12.9984 14.0381 12.9436 13.8303 12.8398C13.6224 12.736 13.4411 12.5858 13.3004 12.401C12.7862 11.7143 12.0378 11.2404 11.1973 11.0692C10.3567 10.8979 9.48253 11.0414 8.74075 11.4722C7.99898 11.9031 7.44127 12.5913 7.17352 13.4063C6.90577 14.2213 6.94664 15.1062 7.28837 15.893C7.37091 16.0851 7.41347 16.2919 7.41347 16.501C7.41347 16.7101 7.37091 16.9169 7.28837 17.109C7.16637 17.389 7.08037 17.689 7.03537 18.001H6.99937C5.85008 18.0018 4.73562 17.6066 3.84356 16.8819C2.95151 16.1573 2.33632 15.1475 2.10154 14.0224C1.86676 12.8974 2.02673 11.7258 2.55452 10.7048C3.08231 9.6839 3.9457 8.87596 4.99937 8.417C5.0212 6.70752 5.71565 5.07546 6.93227 3.87437C8.1489 2.67327 9.78975 1.99986 11.4994 2ZM14.4994 15C14.8972 15 15.2787 15.158 15.56 15.4393C15.8413 15.7206 15.9994 16.1022 15.9994 16.5C15.9994 16.8978 15.8413 17.2794 15.56 17.5607C15.2787 17.842 14.8972 18 14.4994 18C14.1015 18 13.72 17.842 13.4387 17.5607C13.1574 17.2794 12.9994 16.8978 12.9994 16.5C12.9994 16.1022 13.1574 15.7206 13.4387 15.4393C13.72 15.158 14.1015 15 14.4994 15ZM10.4994 13C10.8972 13 11.2787 13.158 11.56 13.4393C11.8413 13.7206 11.9994 14.1022 11.9994 14.5C11.9994 14.8978 11.8413 15.2794 11.56 15.5607C11.2787 15.842 10.8972 16 10.4994 16C10.1015 16 9.72001 15.842 9.43871 15.5607C9.1574 15.2794 8.99937 14.8978 8.99937 14.5C8.99937 14.1022 9.1574 13.7206 9.43871 13.4393C9.72001 13.158 10.1015 13 10.4994 13Z" fill="currentColor"/>
</svg>
