<svg width="24" height="24" viewBox="0 0 24 24" fill="none" xmlns="http://www.w3.org/2000/svg">
<path d="M9.5 4C7.51088 4 5.60322 4.79018 4.1967 6.1967C2.79018 7.60322 2 9.51088 2 11.5C2 13.4891 2.79018 15.3968 4.1967 16.8033C5.60322 18.2098 7.51088 19 9.5 19H17C17.6746 19.0005 18.3424 18.8645 18.9631 18.6002C19.5838 18.3358 20.1445 17.9486 20.6116 17.4618C21.0787 16.975 21.4424 16.3988 21.681 15.7677C21.9195 15.1366 22.0278 14.4638 21.9994 13.7898C21.9711 13.1158 21.8066 12.4545 21.5159 11.8457C21.2253 11.2369 20.8144 10.6932 20.3081 10.2474C19.8017 9.80154 19.2104 9.46279 18.5697 9.25152C17.929 9.04024 17.2522 8.96081 16.58 9.018C15.776 9.08552 15.0002 9.34662 14.319 9.779C13.6378 10.2114 13.0713 10.8022 12.668 11.501C12.5313 11.7226 12.3135 11.8822 12.061 11.9457C11.8084 12.0092 11.5411 11.9718 11.3158 11.8413C11.0904 11.7108 10.9249 11.4975 10.8543 11.2468C10.7838 10.9962 10.8138 10.7279 10.938 10.499C11.4339 9.64102 12.1061 8.89794 12.9102 8.31877C13.7143 7.7396 14.6321 7.3375 15.603 7.139C14.9096 6.16722 13.9939 5.37529 12.9322 4.82926C11.8706 4.28322 10.6938 3.9989 9.5 4Z" fill="currentColor"/>
</svg>
