<svg width="24" height="24" viewBox="0 0 24 24" fill="none" xmlns="http://www.w3.org/2000/svg">
<path fill-rule="evenodd" clip-rule="evenodd" d="M7.90995 6.91C8.33209 5.8811 9.05619 5.00431 9.98674 4.39527C10.9173 3.78623 12.0106 3.47354 13.1224 3.49845C14.2343 3.52336 15.3125 3.88469 16.2149 4.53479C17.1172 5.18489 17.8013 6.09322 18.1769 7.14C19.2211 7.39321 20.1559 7.97595 20.843 8.80193C21.5301 9.6279 21.9329 10.6532 21.9918 11.726C22.0507 12.7987 21.7625 13.862 21.17 14.7582C20.5775 15.6544 19.7121 16.336 18.7019 16.702C18.352 17.6682 17.7129 18.5032 16.8716 19.0933C16.0303 19.6834 15.0276 20 13.9999 20H6.35995C5.36811 20.0004 4.40576 19.6627 3.63175 19.0425C2.85773 18.4223 2.31831 17.5567 2.1025 16.5886C1.8867 15.6206 2.00742 14.6078 2.44474 13.7176C2.88206 12.8274 3.60983 12.1129 4.50795 11.692C4.56598 10.655 4.91635 9.65558 5.51856 8.80935C6.12076 7.96311 6.94919 7.30462 7.90995 6.91ZM10.5249 6.525C11.5631 6.62476 12.5515 7.01743 13.3751 7.65726C14.1987 8.29709 14.8236 9.15775 15.1769 10.139C16.1471 10.3745 17.0246 10.8947 17.6967 11.6328C18.3689 12.3709 18.805 13.2931 18.9489 14.281C19.3963 13.899 19.7216 13.3939 19.8841 12.8285C20.0467 12.2631 20.0395 11.6624 19.8633 11.1011C19.6872 10.5398 19.3499 10.0427 18.8934 9.67163C18.4369 9.30054 17.8814 9.07184 17.2959 9.014C17.0859 8.99373 16.8877 8.90756 16.7297 8.76782C16.5716 8.62808 16.4618 8.44193 16.4159 8.236C16.2785 7.62483 15.9797 7.0617 15.5505 6.60533C15.1214 6.14895 14.5777 5.81604 13.9762 5.64129C13.3746 5.46653 12.7372 5.45634 12.1303 5.61178C11.5235 5.76721 10.9694 6.08258 10.5259 6.525H10.5249Z" fill="currentColor"/>
</svg>
