<svg width="24" height="24" viewBox="0 0 24 24" fill="none" xmlns="http://www.w3.org/2000/svg">
<path fill-rule="evenodd" clip-rule="evenodd" d="M4.99937 10.416C5.01743 8.89993 5.56491 7.43788 6.54707 6.28282C7.52923 5.12777 8.88427 4.3524 10.3777 4.09087C11.8712 3.82935 13.4091 4.09812 14.7253 4.8507C16.0415 5.60327 17.0532 6.79229 17.5854 8.212C18.9847 8.5979 20.1967 9.47782 20.997 10.6888C21.7973 11.8998 22.1317 13.3598 21.9381 14.7983C21.7446 16.2369 21.0362 17.5566 19.9443 18.513C18.8524 19.4694 17.4509 19.9977 15.9994 20H6.99937C5.85008 20.0008 4.73562 19.6055 3.84356 18.8809C2.95151 18.1563 2.33632 17.1465 2.10154 16.0214C1.86676 14.8964 2.02673 13.7248 2.55452 12.7038C3.08231 11.6829 3.9457 10.875 4.99937 10.416Z" fill="currentColor"/>
</svg>
