<svg width="24" height="24" viewBox="0 0 24 24" fill="none" xmlns="http://www.w3.org/2000/svg">
<path fill-rule="evenodd" clip-rule="evenodd" d="M9.92373 18.616C9.27569 18.8844 8.57843 19.0134 7.87727 18.9946C7.17611 18.9759 6.48673 18.8099 5.85394 18.5073C5.22114 18.2048 4.65908 17.7724 4.20428 17.2385C3.74948 16.7045 3.41211 16.0808 3.21411 15.4079C3.0161 14.735 2.96188 14.028 3.05498 13.3328C3.14807 12.6376 3.38639 11.9698 3.75446 11.3727C4.12252 10.7756 4.61209 10.2626 5.19136 9.86713C5.77063 9.47162 6.42663 9.20241 7.11673 9.077C6.95626 8.34669 6.96163 7.58969 7.13245 6.86173C7.30326 6.13377 7.63518 5.45339 8.10374 4.87068C8.57231 4.28798 9.16561 3.81778 9.83995 3.49472C10.5143 3.17166 11.2525 3.00395 12.0002 3.00395C12.748 3.00395 13.4862 3.17166 14.1605 3.49472C14.8349 3.81778 15.4282 4.28798 15.8967 4.87068C16.3653 5.45339 16.6972 6.13377 16.868 6.86173C17.0388 7.58969 17.0442 8.34669 16.8837 9.077C17.5755 9.20094 18.2333 9.46926 18.8145 9.86446C19.3956 10.2597 19.8869 10.7729 20.2564 11.3707C20.6259 11.9685 20.8653 12.6374 20.9589 13.3339C21.0526 14.0304 20.9984 14.7388 20.8 15.413C20.6016 16.0871 20.2633 16.7119 19.8073 17.2466C19.3512 17.7813 18.7876 18.2139 18.1532 18.5162C17.5187 18.8185 16.8277 18.9837 16.1252 19.0011C15.4226 19.0184 14.7243 18.8876 14.0757 18.617C14.3007 19.34 14.5607 19.992 14.8567 20.485C14.9479 20.6367 14.9971 20.8099 14.9995 20.9869C15.0018 21.1639 14.9571 21.3383 14.8699 21.4924C14.7828 21.6464 14.6563 21.7746 14.5034 21.8638C14.3505 21.953 14.1767 22 13.9997 22H9.99973C9.82274 22 9.64892 21.953 9.49604 21.8638C9.34315 21.7746 9.21668 21.6464 9.12953 21.4924C9.04239 21.3383 8.99769 21.1639 9.00001 20.9869C9.00233 20.8099 9.05158 20.6367 9.14273 20.485C9.43873 19.992 9.69873 19.34 9.92373 18.616Z" fill="currentColor"/>
</svg>
