<svg width="24" height="24" viewBox="0 0 24 24" fill="none" xmlns="http://www.w3.org/2000/svg">
<path fill-rule="evenodd" clip-rule="evenodd" d="M13.5277 3C13.9936 3.00003 14.4531 3.10857 14.8697 3.317L16.8997 4.333C17.5098 4.63801 18.051 5.06461 18.49 5.58655C18.929 6.10849 19.2567 6.71474 19.4527 7.368L21.7147 14.907C21.8502 15.3582 21.8221 15.8427 21.6353 16.2752C21.4485 16.7076 21.1151 17.0603 20.6937 17.271L19.6817 17.776C19.4856 17.8741 19.2627 17.905 19.0473 17.864C18.832 17.8229 18.636 17.7123 18.4897 17.549L17.9997 17L17.7317 18.752C17.5647 19.3956 17.1887 19.9656 16.6628 20.3725C16.1368 20.7793 15.4907 21.0001 14.8257 21H9.17371C8.50876 21.0001 7.86261 20.7793 7.33666 20.3725C6.81071 19.9656 6.43473 19.3956 6.26771 18.752L5.99971 17L5.50971 17.549C5.36332 17.7125 5.16721 17.8233 4.95162 17.8643C4.73602 17.9054 4.51292 17.8743 4.31671 17.776L3.30471 17.271C2.88337 17.0603 2.54993 16.7076 2.36315 16.2752C2.17636 15.8427 2.14823 15.3582 2.28371 14.907L4.54571 7.368C4.74176 6.71474 5.06938 6.10849 5.50843 5.58655C5.94748 5.06461 6.48867 4.63801 7.09871 4.333L9.12971 3.317C9.54637 3.10857 10.0058 3.00003 10.4717 3H13.5277ZM13.5277 5H10.4717C10.3558 5.00014 10.2407 5.02044 10.1317 5.06L10.0247 5.106L9.06471 5.586L11.9997 10.15L14.9347 5.584L13.9747 5.104C13.8709 5.05239 13.7589 5.01923 13.6437 5.006L13.5277 5Z" fill="currentColor"/>
</svg>
