<svg width="24" height="24" viewBox="0 0 24 24" fill="none" xmlns="http://www.w3.org/2000/svg">
<path fill-rule="evenodd" clip-rule="evenodd" d="M13.25 2.795L21.248 7.412C21.628 7.63142 21.9436 7.947 22.163 8.32704C22.3824 8.70708 22.4979 9.13817 22.498 9.577V14.423C22.4979 14.8618 22.3824 15.2929 22.163 15.673C21.9436 16.053 21.628 16.3686 21.248 16.588L13.25 21.205C12.8699 21.4244 12.4388 21.5399 12 21.5399C11.5611 21.5399 11.13 21.4244 10.75 21.205L2.75195 16.588C2.37191 16.3686 2.05633 16.053 1.83691 15.673C1.61749 15.2929 1.50196 14.8618 1.50195 14.423V9.577C1.50196 9.13817 1.61749 8.70708 1.83691 8.32704C2.05633 7.947 2.37191 7.63142 2.75195 7.412L10.75 2.795C11.13 2.57558 11.5611 2.46007 12 2.46007C12.4388 2.46007 12.8699 2.57558 13.25 2.795ZM8.19795 13.732L6.00195 15L10.5 17.597V15.06L8.19795 13.732ZM15.802 13.732L13.5 15.061V17.597L17.998 15L15.802 13.732ZM12 11.537L11.198 12L12 12.463L12.802 12L12 11.537ZM4.50195 11.598V12.402L5.19795 12L4.50195 11.598ZM19.498 11.598L18.802 12L19.498 12.402V11.598ZM13.5 6.403V8.94L15.802 10.269L17.998 9L13.5 6.403ZM10.5 6.403L6.00195 9L8.19795 10.268L10.5 8.938V6.403Z" fill="currentColor"/>
</svg>
