<svg width="24" height="24" viewBox="0 0 24 24" fill="none" xmlns="http://www.w3.org/2000/svg">
<path d="M12 5C14.592 5 16.986 5.465 18.77 6.258C19.66 6.654 20.444 7.151 21.017 7.754C21.547 8.311 21.931 8.997 21.992 9.783L22 10V14C22 14.878 21.596 15.639 21.017 16.246C20.444 16.849 19.661 17.346 18.77 17.742C16.986 18.535 14.592 19 12 19C9.408 19 7.014 18.535 5.23 17.742C4.34 17.346 3.556 16.849 2.983 16.246C2.453 15.689 2.069 15.003 2.008 14.217L2 14V10C2 9.122 2.404 8.361 2.983 7.754C3.556 7.151 4.339 6.654 5.23 6.258C7.014 5.465 9.408 5 12 5ZM20 13.08C19.625 13.326 19.21 13.546 18.77 13.742C16.986 14.535 14.592 15 12 15C9.408 15 7.014 14.535 5.23 13.742C4.8029 13.5547 4.39157 13.3333 4 13.08V14C4 14.227 4.1 14.518 4.432 14.868C4.769 15.222 5.304 15.587 6.042 15.915C7.516 16.57 9.622 17 12 17C14.379 17 16.484 16.57 17.958 15.915C18.696 15.587 19.231 15.222 19.568 14.868C19.901 14.518 20 14.227 20 14V13.08Z" fill="currentColor"/>
</svg>
