<svg width="24" height="24" viewBox="0 0 24 24" fill="none" xmlns="http://www.w3.org/2000/svg">
<path fill-rule="evenodd" clip-rule="evenodd" d="M6.42005 10.21C6.06042 9.30006 5.92878 8.31598 6.03659 7.34351C6.1444 6.37105 6.48839 5.4397 7.03859 4.63063C7.5888 3.82156 8.32851 3.15932 9.19328 2.70162C10.058 2.24392 11.0216 2.00464 12.0001 2.00464C12.9785 2.00464 13.9421 2.24392 14.8068 2.70162C15.6716 3.15932 16.4113 3.82156 16.9615 4.63063C17.5117 5.4397 17.8557 6.37105 17.9635 7.34351C18.0713 8.31598 17.9397 9.30006 17.5801 10.21C18.4528 10.4487 19.2603 10.8816 19.942 11.4764C20.6238 12.0713 21.1622 12.8126 21.517 13.6449C21.8717 14.4772 22.0336 15.379 21.9906 16.2828C21.9476 17.1865 21.7008 18.0688 21.2686 18.8637C20.8363 19.6586 20.23 20.3454 19.4948 20.8728C18.7596 21.4002 17.9147 21.7545 17.0232 21.9092C16.1318 22.0639 15.2169 22.0149 14.347 21.766C13.4771 21.5172 12.6748 21.0748 12.0001 20.472C11.3253 21.0748 10.523 21.5172 9.65311 21.766C8.78324 22.0149 7.86834 22.0639 6.97688 21.9092C6.08543 21.7545 5.2405 21.4002 4.50532 20.8728C3.77014 20.3454 3.16376 19.6586 2.73155 18.8637C2.29934 18.0688 2.05249 17.1865 2.00947 16.2828C1.96646 15.379 2.12839 14.4772 2.48316 13.6449C2.83792 12.8126 3.37633 12.0713 4.05809 11.4764C4.73986 10.8816 5.54732 10.4487 6.42005 10.21Z" fill="currentColor"/>
</svg>
