<svg width="24" height="24" viewBox="0 0 24 24" fill="none" xmlns="http://www.w3.org/2000/svg">
<path fill-rule="evenodd" clip-rule="evenodd" d="M20.4771 3.511C20.1985 3.23237 19.8678 3.01135 19.5038 2.86055C19.1398 2.70976 18.7496 2.63214 18.3556 2.63214C17.9616 2.63214 17.5715 2.70976 17.2074 2.86055C16.8434 3.01135 16.5127 3.23237 16.2341 3.511L14.7011 5.044C14.1426 4.77568 13.5145 4.68747 12.9036 4.79154C12.2927 4.89562 11.7293 5.18686 11.2911 5.625L10.5781 6.339C10.3923 6.52473 10.2449 6.74524 10.1444 6.98795C10.0438 7.23065 9.99204 7.49079 9.99204 7.7535C9.99204 8.01621 10.0438 8.27635 10.1444 8.51905C10.2449 8.76176 10.3923 8.98227 10.5781 9.168L4.09211 15.653C3.81358 15.9317 3.59268 16.2626 3.44203 16.6267C3.29138 16.9908 3.21393 17.381 3.21411 17.775V19.575C3.21411 19.8933 3.34054 20.1985 3.56558 20.4235C3.79063 20.6486 4.09585 20.775 4.41411 20.775H6.21411C7.00949 20.7743 7.77204 20.4578 8.33411 19.895L14.8201 13.411C15.0058 13.5968 15.2264 13.7442 15.4691 13.8448C15.7118 13.9453 15.9719 13.9971 16.2346 13.9971C16.4973 13.9971 16.7575 13.9453 17.0002 13.8448C17.2429 13.7442 17.4634 13.5968 17.6491 13.411L18.3631 12.696C18.8013 12.2578 19.0925 11.6944 19.1966 11.0835C19.3006 10.4727 19.2124 9.84455 18.9441 9.286L20.4771 7.754C20.7557 7.47542 20.9768 7.14468 21.1276 6.78067C21.2784 6.41666 21.356 6.02651 21.356 5.6325C21.356 5.23849 21.2784 4.84834 21.1276 4.48433C20.9768 4.12032 20.7557 3.78958 20.4771 3.511ZM5.50711 17.068L11.9921 10.582L13.4061 11.996L6.92111 18.482C6.73362 18.6695 6.47931 18.7749 6.21411 18.775H5.21411V17.775C5.21417 17.5098 5.31956 17.2555 5.50711 17.068Z" fill="currentColor"/>
</svg>
