<svg width="24" height="24" viewBox="0 0 24 24" fill="none" xmlns="http://www.w3.org/2000/svg">
<path fill-rule="evenodd" clip-rule="evenodd" d="M2.5 6.5C2.5 5.43914 2.92143 4.42172 3.67157 3.67157C4.42172 2.92143 5.43914 2.5 6.5 2.5C7.56087 2.5 8.57828 2.92143 9.32843 3.67157C10.0786 4.42172 10.5 5.43914 10.5 6.5V7.5H13.5V6.5C13.5 5.70888 13.7346 4.93552 14.1741 4.27772C14.6136 3.61992 15.2384 3.10723 15.9693 2.80448C16.7002 2.50173 17.5044 2.42252 18.2804 2.57686C19.0563 2.7312 19.769 3.11216 20.3284 3.67157C20.8878 4.23098 21.2688 4.94372 21.4231 5.71964C21.5775 6.49556 21.4983 7.29983 21.1955 8.03074C20.8928 8.76164 20.3801 9.38635 19.7223 9.82588C19.0645 10.2654 18.2911 10.5 17.5 10.5H16.5V13.5H17.5C18.2911 13.5 19.0645 13.7346 19.7223 14.1741C20.3801 14.6136 20.8928 15.2384 21.1955 15.9693C21.4983 16.7002 21.5775 17.5044 21.4231 18.2804C21.2688 19.0563 20.8878 19.769 20.3284 20.3284C19.769 20.8878 19.0563 21.2688 18.2804 21.4231C17.5044 21.5775 16.7002 21.4983 15.9693 21.1955C15.2384 20.8928 14.6136 20.3801 14.1741 19.7223C13.7346 19.0645 13.5 18.2911 13.5 17.5V16.5H10.5V17.5C10.5 18.2911 10.2654 19.0645 9.82588 19.7223C9.38635 20.3801 8.76164 20.8928 8.03074 21.1955C7.29983 21.4983 6.49556 21.5775 5.71964 21.4231C4.94372 21.2688 4.23098 20.8878 3.67157 20.3284C3.11216 19.769 2.7312 19.0563 2.57686 18.2804C2.42252 17.5044 2.50173 16.7002 2.80448 15.9693C3.10723 15.2384 3.61992 14.6136 4.27772 14.1741C4.93552 13.7346 5.70888 13.5 6.5 13.5H7.5V10.5H6.5C5.43914 10.5 4.42172 10.0786 3.67157 9.32843C2.92143 8.57828 2.5 7.56087 2.5 6.5ZM7.5 7.5V6.5C7.5 6.30222 7.44135 6.10888 7.33147 5.94443C7.22159 5.77998 7.06541 5.65181 6.88269 5.57612C6.69996 5.50043 6.49889 5.48063 6.30491 5.51922C6.11093 5.5578 5.93275 5.65304 5.7929 5.7929C5.65304 5.93275 5.5578 6.11093 5.51922 6.30491C5.48063 6.49889 5.50043 6.69996 5.57612 6.88269C5.65181 7.06541 5.77998 7.22159 5.94443 7.33147C6.10888 7.44135 6.30222 7.5 6.5 7.5H7.5ZM10.5 10.5V13.5H13.5V10.5H10.5ZM7.5 16.5H6.5C6.30222 16.5 6.10888 16.5587 5.94443 16.6685C5.77998 16.7784 5.65181 16.9346 5.57612 17.1173C5.50043 17.3 5.48063 17.5011 5.51922 17.6951C5.5578 17.8891 5.65304 18.0673 5.7929 18.2071C5.93275 18.347 6.11093 18.4422 6.30491 18.4808C6.49889 18.5194 6.69996 18.4996 6.88269 18.4239C7.06541 18.3482 7.22159 18.22 7.33147 18.0556C7.44135 17.8911 7.5 17.6978 7.5 17.5V16.5ZM16.5 16.5V17.5C16.5 17.6978 16.5587 17.8911 16.6685 18.0556C16.7784 18.22 16.9346 18.3482 17.1173 18.4239C17.3 18.4996 17.5011 18.5194 17.6951 18.4808C17.8891 18.4422 18.0673 18.347 18.2071 18.2071C18.347 18.0673 18.4422 17.8891 18.4808 17.6951C18.5194 17.5011 18.4996 17.3 18.4239 17.1173C18.3482 16.9346 18.22 16.7784 18.0556 16.6685C17.8911 16.5587 17.6978 16.5 17.5 16.5H16.5ZM16.5 7.5H17.5C17.6978 7.5 17.8911 7.44135 18.0556 7.33147C18.22 7.22159 18.3482 7.06541 18.4239 6.88269C18.4996 6.69996 18.5194 6.49889 18.4808 6.30491C18.4422 6.11093 18.347 5.93275 18.2071 5.7929C18.0673 5.65304 17.8891 5.5578 17.6951 5.51922C17.5011 5.48063 17.3 5.50043 17.1173 5.57612C16.9346 5.65181 16.7784 5.77998 16.6685 5.94443C16.5587 6.10888 16.5 6.30222 16.5 6.5V7.5Z" fill="currentColor"/>
</svg>
