<svg width="24" height="24" viewBox="0 0 24 24" fill="none" xmlns="http://www.w3.org/2000/svg">
<path d="M16.5 11C17.4556 10.9999 18.3947 11.2488 19.2248 11.7221C20.0549 12.1955 20.7473 12.8769 21.2339 13.6993C21.7205 14.5217 21.9844 15.4567 21.9997 16.4121C22.015 17.3675 21.7811 18.3105 21.321 19.148L21.707 20.459C21.758 20.6323 21.7614 20.8161 21.7168 20.9911C21.6722 21.1661 21.5813 21.3259 21.4536 21.4536C21.3259 21.5813 21.1661 21.6722 20.9911 21.7168C20.8161 21.7614 20.6322 21.758 20.459 21.707L19.149 21.321C18.4139 21.7246 17.5963 21.9548 16.7587 21.994C15.921 22.0332 15.0855 21.8803 14.316 21.547C13.5464 21.2137 12.8633 20.7089 12.3188 20.0712C11.7743 19.4334 11.3829 18.6796 11.1744 17.8673C10.9659 17.0551 10.946 16.2059 11.116 15.3847C11.286 14.5636 11.6416 13.7922 12.1555 13.1295C12.6694 12.4668 13.328 11.9305 14.081 11.5614C14.834 11.1923 15.6614 11.0003 16.5 11ZM11 3C12.9899 3.00027 14.9237 3.65974 16.4992 4.87535C18.0746 6.09096 19.203 7.79422 19.708 9.719C18.1945 9.00161 16.4844 8.81149 14.8503 9.17894C13.2162 9.54638 11.7521 10.4502 10.6914 11.7465C9.63064 13.0427 9.03433 14.6567 8.99747 16.3312C8.96061 18.0057 9.48533 19.6444 10.488 20.986C9.04088 20.9055 7.63495 20.4748 6.39099 19.731L3.74099 20.511C3.56718 20.5623 3.38275 20.5657 3.20713 20.521C3.03151 20.4763 2.87119 20.3851 2.74305 20.2569C2.6149 20.1288 2.52368 19.9685 2.47897 19.7929C2.43426 19.6172 2.43772 19.4328 2.48899 19.259L3.26899 16.609C2.45443 15.2428 2.01648 13.6851 1.99976 12.0946C1.98305 10.5041 2.38815 8.93754 3.17382 7.55452C3.95948 6.17149 5.09765 5.02139 6.4724 4.22134C7.84716 3.42129 9.40939 2.99987 11 3Z" fill="currentColor"/>
</svg>
