<svg width="24" height="24" viewBox="0 0 24 24" fill="none" xmlns="http://www.w3.org/2000/svg">
<path fill-rule="evenodd" clip-rule="evenodd" d="M13.4998 3C13.4998 2.60218 13.3418 2.22064 13.0605 1.93934C12.7792 1.65804 12.3977 1.5 11.9998 1.5C11.602 1.5 11.2205 1.65804 10.9392 1.93934C10.6579 2.22064 10.4998 2.60218 10.4998 3V4.837C9.99972 5.07417 9.56298 5.42657 9.22548 5.86527C8.88797 6.30397 8.65933 6.81647 8.55831 7.36068C8.4573 7.90489 8.48679 8.4653 8.64438 8.99589C8.80197 9.52649 9.08315 10.0122 9.46484 10.413L5.59984 20.462C5.4644 20.8317 5.47975 21.2399 5.64259 21.5983C5.80543 21.9568 6.1027 22.2369 6.47023 22.3782C6.83777 22.5194 7.24611 22.5105 7.60711 22.3533C7.96812 22.1961 8.25284 21.9033 8.39984 21.538L9.66884 18.24C11.2037 18.5883 12.797 18.5883 14.3318 18.24L15.5998 21.54C15.7428 21.9113 16.0274 22.2106 16.391 22.3721C16.7547 22.5335 17.1675 22.544 17.5388 22.401C17.9101 22.258 18.2095 21.9735 18.3709 21.6098C18.5324 21.2462 18.5428 20.8333 18.3998 20.462L17.1308 17.164C18.1421 16.5958 19.0527 15.8647 19.8258 15C20.0803 14.7021 20.2082 14.3164 20.1819 13.9254C20.1557 13.5344 19.9776 13.1692 19.6856 12.908C19.3936 12.6467 19.0109 12.51 18.6195 12.5272C18.228 12.5444 17.8588 12.7141 17.5908 13C17.1353 13.5086 16.6129 13.953 16.0378 14.321L14.5348 10.413C14.9165 10.0122 15.1977 9.52649 15.3553 8.99589C15.5129 8.4653 15.5424 7.90489 15.4414 7.36068C15.3404 6.81647 15.1117 6.30397 14.7742 5.86527C14.4367 5.42657 14 5.07417 13.4998 4.837V3ZM13.2378 15.398L11.9998 12.178L10.7608 15.398C11.5809 15.534 12.4178 15.534 13.2378 15.398Z" fill="currentColor"/>
</svg>
