<svg width="24" height="24" viewBox="0 0 24 24" fill="none" xmlns="http://www.w3.org/2000/svg">
<path d="M4.73987 16.877C5.67331 17.8648 6.79882 18.6514 8.04728 19.1884C9.29574 19.7255 10.6408 20.0017 11.9999 20C13.6764 20.0025 15.3265 19.5814 16.7969 18.776L17.0989 18.604L17.8689 19.374C18.0773 19.5827 18.3365 19.7335 18.6208 19.8117C18.9052 19.8899 19.205 19.8928 19.4909 19.82C19.3709 19.967 19.2369 20.1 19.0989 20.218C18.6199 20.626 17.9859 20.949 17.2889 21.201C15.8879 21.706 14.0179 22 11.9999 22C9.98187 22 8.11187 21.706 6.70987 21.2C6.01387 20.95 5.37987 20.626 4.90087 20.218C4.42587 19.812 3.99987 19.226 3.99987 18.473C3.99987 17.81 4.32687 17.279 4.73987 16.877ZM11.9999 2.00001C13.4769 1.99995 14.9252 2.40882 16.1841 3.18131C17.4431 3.95379 18.4636 5.05974 19.1326 6.37661C19.8016 7.69348 20.0929 9.16985 19.9744 10.6421C19.8558 12.1144 19.332 13.5252 18.4609 14.718L18.2749 14.962L19.7779 16.465C19.9572 16.645 20.0613 16.8864 20.0691 17.1404C20.0769 17.3943 19.9877 17.6417 19.8196 17.8323C19.6516 18.0229 19.4173 18.1423 19.1644 18.1664C18.9115 18.1905 18.6589 18.1174 18.4579 17.962L18.3639 17.879L4.22187 3.73701C4.04252 3.55705 3.9384 3.31557 3.93064 3.06162C3.92289 2.80768 4.01209 2.5603 4.18012 2.36973C4.34815 2.17916 4.58242 2.0597 4.83534 2.03561C5.08827 2.01152 5.34088 2.0846 5.54187 2.24001L5.63587 2.32301L7.03787 3.72501C8.44924 2.60548 10.1984 1.9974 11.9999 2.00001ZM4.86787 6.37301L8.02687 9.53301C7.95626 10.1331 8.02253 10.7414 8.2207 11.3122C8.41886 11.8831 8.74378 12.4016 9.17104 12.8288C9.59831 13.2561 10.1168 13.581 10.6876 13.7792C11.2585 13.9773 11.8668 14.0436 12.4669 13.973L15.6269 17.133C14.1216 17.9 12.4121 18.1708 10.7434 17.9065C9.0748 17.6422 7.53266 16.8565 6.33804 15.6618C5.14343 14.4672 4.35767 12.9251 4.09339 11.2564C3.82911 9.58779 4.10087 7.87831 4.86787 6.37301ZM11.9999 6.00001C11.2319 6.00001 10.5139 6.21701 9.90487 6.59201L11.4039 8.09001C11.7524 7.98097 12.124 7.9694 12.4786 8.05658C12.8332 8.14375 13.1572 8.32634 13.4153 8.58453C13.6735 8.84273 13.8561 9.16668 13.9433 9.52126C14.0305 9.87585 14.0189 10.2475 13.9099 10.596L15.4079 12.095C15.7806 11.4888 15.9848 10.7942 15.9995 10.0828C16.0143 9.3714 15.8389 8.66894 15.4917 8.04786C15.1444 7.42679 14.6377 6.9096 14.0239 6.54962C13.4102 6.18964 12.7114 5.99992 11.9999 6.00001Z" fill="currentColor"/>
</svg>
