<svg width="24" height="24" viewBox="0 0 24 24" fill="none" xmlns="http://www.w3.org/2000/svg">
<path fill-rule="evenodd" clip-rule="evenodd" d="M8 2C8.26522 2 8.51957 2.10536 8.70711 2.29289C8.89464 2.48043 9 2.73478 9 3H15C15 2.73478 15.1054 2.48043 15.2929 2.29289C15.4804 2.10536 15.7348 2 16 2C16.2652 2 16.5196 2.10536 16.7071 2.29289C16.8946 2.48043 17 2.73478 17 3H19C19.5304 3 20.0391 3.21071 20.4142 3.58579C20.7893 3.96086 21 4.46957 21 5V20C21 20.5304 20.7893 21.0391 20.4142 21.4142C20.0391 21.7893 19.5304 22 19 22H5C4.46957 22 3.96086 21.7893 3.58579 21.4142C3.21071 21.0391 3 20.5304 3 20V5C3 4.46957 3.21071 3.96086 3.58579 3.58579C3.96086 3.21071 4.46957 3 5 3H7C7 2.73478 7.10536 2.48043 7.29289 2.29289C7.48043 2.10536 7.73478 2 8 2ZM12 9C11.7348 9 11.4804 9.10536 11.2929 9.29289C11.1054 9.48043 11 9.73478 11 10C11 10.2652 11.1054 10.5196 11.2929 10.7071C11.4804 10.8946 11.7348 11 12 11C12.2652 11 12.5196 10.8946 12.7071 10.7071C12.8946 10.5196 13 10.2652 13 10C13 9.73478 12.8946 9.48043 12.7071 9.29289C12.5196 9.10536 12.2652 9 12 9ZM9 10C9 9.20435 9.31607 8.44129 9.87868 7.87868C10.4413 7.31607 11.2044 7 12 7C12.7956 7 13.5587 7.31607 14.1213 7.87868C14.6839 8.44129 15 9.20435 15 10C15 10.7956 14.6839 11.5587 14.1213 12.1213C13.5587 12.6839 12.7956 13 12 13C11.2044 13 10.4413 12.6839 9.87868 12.1213C9.31607 11.5587 9 10.7956 9 10ZM9.851 16.348C9.388 16.558 9.101 16.858 8.949 17.316C8.86519 17.5677 8.68483 17.7758 8.4476 17.8945C8.21036 18.0132 7.93569 18.0328 7.684 17.949C7.43231 17.8652 7.22422 17.6848 7.10551 17.4476C6.9868 17.2104 6.96719 16.9357 7.051 16.684C7.399 15.641 8.111 14.942 9.024 14.527C9.897 14.13 10.935 14 12 14C13.065 14 14.103 14.13 14.976 14.527C15.888 14.942 16.601 15.641 16.949 16.684C17.0328 16.9357 17.0132 17.2104 16.8945 17.4476C16.7758 17.6848 16.5677 17.8652 16.316 17.949C16.0643 18.0328 15.7896 18.0132 15.5524 17.8945C15.3152 17.7758 15.1348 17.5677 15.051 17.316C14.899 16.859 14.611 16.558 14.149 16.348C13.647 16.12 12.935 16 12 16C11.065 16 10.353 16.12 9.851 16.348Z" fill="currentColor"/>
</svg>
