<svg width="24" height="24" viewBox="0 0 24 24" fill="none" xmlns="http://www.w3.org/2000/svg">
<path fill-rule="evenodd" clip-rule="evenodd" d="M16 3C16.5046 2.99984 16.9906 3.19041 17.3605 3.5335C17.7305 3.87659 17.9572 4.34684 17.995 4.85L18 5V19C18.0002 19.5046 17.8096 19.9906 17.4665 20.3605C17.1234 20.7305 16.6532 20.9572 16.15 20.995L16 21H6C5.49542 21.0002 5.00943 20.8096 4.63945 20.4665C4.26947 20.1234 4.04284 19.6532 4.005 19.15L4 19V5C3.99984 4.49542 4.19041 4.00943 4.5335 3.63945C4.87659 3.26947 5.34684 3.04284 5.85 3.005L6 3H16ZM11 13C10.159 13 9.26 13.137 8.531 13.461C7.837 13.77 7 14.404 7 15.5C6.99903 15.7546 7.0952 16 7.26892 16.1861C7.44264 16.3723 7.68081 16.4851 7.93487 16.5017C8.18893 16.5183 8.43975 16.4373 8.63619 16.2753C8.83262 16.1134 8.95987 15.8826 8.992 15.63L9 15.515L9.05 15.464C9.13922 15.392 9.23821 15.3331 9.344 15.289C9.74 15.113 10.34 15 11 15C11.659 15 12.26 15.113 12.656 15.289C12.766 15.338 12.846 15.386 12.902 15.426L12.949 15.464L13 15.515C13.002 15.7802 13.1093 16.0338 13.2982 16.2199C13.4871 16.406 13.7423 16.5095 14.0075 16.5075C14.2727 16.5055 14.5263 16.3982 14.7124 16.2093C14.8985 16.0204 15.002 15.7652 15 15.5C15 14.404 14.163 13.77 13.469 13.461C12.74 13.137 11.84 13 11 13ZM11 8C10.4696 8 9.96086 8.21071 9.58579 8.58579C9.21071 8.96086 9 9.46957 9 10C9 10.5304 9.21071 11.0391 9.58579 11.4142C9.96086 11.7893 10.4696 12 11 12C11.5304 12 12.0391 11.7893 12.4142 11.4142C12.7893 11.0391 13 10.5304 13 10C13 9.46957 12.7893 8.96086 12.4142 8.58579C12.0391 8.21071 11.5304 8 11 8ZM19.974 19.063L19 19.387V4.613L19.974 4.937C20.2727 5.0365 20.5326 5.22747 20.7167 5.48287C20.9009 5.73827 21 6.04514 21 6.36V17.64C21 17.9549 20.9009 18.2617 20.7167 18.5171C20.5326 18.7725 20.2727 18.9635 19.974 19.063Z" fill="currentColor"/>
</svg>
