<svg width="24" height="24" viewBox="0 0 24 24" fill="none" xmlns="http://www.w3.org/2000/svg">
<path d="M2.5 5C2.5 4.60218 2.65804 4.22064 2.93934 3.93934C3.22064 3.65804 3.60218 3.5 4 3.5H20C20.3978 3.5 20.7794 3.65804 21.0607 3.93934C21.342 4.22064 21.5 4.60218 21.5 5C21.5 5.39782 21.342 5.77936 21.0607 6.06066C20.7794 6.34196 20.3978 6.5 20 6.5H4C3.60218 6.5 3.22064 6.34196 2.93934 6.06066C2.65804 5.77936 2.5 5.39782 2.5 5ZM4 10.5C3.60218 10.5 3.22064 10.658 2.93934 10.9393C2.65804 11.2206 2.5 11.6022 2.5 12C2.5 12.3978 2.65804 12.7794 2.93934 13.0607C3.22064 13.342 3.60218 13.5 4 13.5H10C10.3978 13.5 10.7794 13.342 11.0607 13.0607C11.342 12.7794 11.5 12.3978 11.5 12C11.5 11.6022 11.342 11.2206 11.0607 10.9393C10.7794 10.658 10.3978 10.5 10 10.5H4ZM2.5 19C2.5 18.6022 2.65804 18.2206 2.93934 17.9393C3.22064 17.658 3.60218 17.5 4 17.5H5C5.39782 17.5 5.77936 17.658 6.06066 17.9393C6.34196 18.2206 6.5 18.6022 6.5 19C6.5 19.3978 6.34196 19.7794 6.06066 20.0607C5.77936 20.342 5.39782 20.5 5 20.5H4C3.60218 20.5 3.22064 20.342 2.93934 20.0607C2.65804 19.7794 2.5 19.3978 2.5 19ZM12.5 19C12.5 18.6022 12.658 18.2206 12.9393 17.9393C13.2206 17.658 13.6022 17.5 14 17.5H15C15.3978 17.5 15.7794 17.658 16.0607 17.9393C16.342 18.2206 16.5 18.6022 16.5 19C16.5 19.3978 16.342 19.7794 16.0607 20.0607C15.7794 20.342 15.3978 20.5 15 20.5H14C13.6022 20.5 13.2206 20.342 12.9393 20.0607C12.658 19.7794 12.5 19.3978 12.5 19ZM9 17.5C8.60218 17.5 8.22064 17.658 7.93934 17.9393C7.65804 18.2206 7.5 18.6022 7.5 19C7.5 19.3978 7.65804 19.7794 7.93934 20.0607C8.22064 20.342 8.60218 20.5 9 20.5H10C10.3978 20.5 10.7794 20.342 11.0607 20.0607C11.342 19.7794 11.5 19.3978 11.5 19C11.5 18.6022 11.342 18.2206 11.0607 17.9393C10.7794 17.658 10.3978 17.5 10 17.5H9ZM17.5 19C17.5 18.6022 17.658 18.2206 17.9393 17.9393C18.2206 17.658 18.6022 17.5 19 17.5H20C20.3978 17.5 20.7794 17.658 21.0607 17.9393C21.342 18.2206 21.5 18.6022 21.5 19C21.5 19.3978 21.342 19.7794 21.0607 20.0607C20.7794 20.342 20.3978 20.5 20 20.5H19C18.6022 20.5 18.2206 20.342 17.9393 20.0607C17.658 19.7794 17.5 19.3978 17.5 19ZM17.946 8.677C17.8784 8.4798 17.7509 8.30866 17.5813 8.18748C17.4117 8.06631 17.2085 8.00117 17 8.00117C16.7915 8.00117 16.5883 8.06631 16.4187 8.18748C16.2491 8.30866 16.1216 8.4798 16.054 8.677L15.924 9.055C15.776 9.48875 15.5306 9.88283 15.2066 10.207C14.8826 10.5312 14.4887 10.7768 14.055 10.925L13.677 11.054C13.4798 11.1216 13.3087 11.2491 13.1875 11.4187C13.0663 11.5883 13.0012 11.7915 13.0012 12C13.0012 12.2085 13.0663 12.4117 13.1875 12.5813C13.3087 12.7509 13.4798 12.8784 13.677 12.946L14.055 13.076C14.4888 13.224 14.8828 13.4694 15.207 13.7934C15.5312 14.1174 15.7768 14.5113 15.925 14.945L16.054 15.323C16.1216 15.5202 16.2491 15.6913 16.4187 15.8125C16.5883 15.9337 16.7915 15.9988 17 15.9988C17.2085 15.9988 17.4117 15.9337 17.5813 15.8125C17.7509 15.6913 17.8784 15.5202 17.946 15.323L18.076 14.945C18.224 14.5112 18.4694 14.1172 18.7934 13.793C19.1174 13.4688 19.5113 13.2232 19.945 13.075L20.323 12.946C20.5202 12.8784 20.6913 12.7509 20.8125 12.5813C20.9337 12.4117 20.9988 12.2085 20.9988 12C20.9988 11.7915 20.9337 11.5883 20.8125 11.4187C20.6913 11.2491 20.5202 11.1216 20.323 11.054L19.945 10.924C19.5112 10.776 19.1172 10.5306 18.793 10.2066C18.4688 9.88262 18.2232 9.48868 18.075 9.055L17.946 8.677Z" fill="currentColor"/>
</svg>
