<svg width="24" height="24" viewBox="0 0 24 24" fill="none" xmlns="http://www.w3.org/2000/svg">
<path fill-rule="evenodd" clip-rule="evenodd" d="M11.9997 2C12.5792 1.99992 13.1517 2.12575 13.6778 2.36877C14.2038 2.6118 14.6708 2.96621 15.0464 3.4075C15.4219 3.84879 15.6971 4.36641 15.8529 4.92454C16.0087 5.48267 16.0414 6.06799 15.9487 6.64L16.1547 6.585C16.537 6.47715 16.937 6.44632 17.3314 6.49429C17.7257 6.54226 18.1066 6.66808 18.452 6.86444C18.7973 7.06081 19.1002 7.32381 19.3431 7.63819C19.586 7.95256 19.764 8.31204 19.8669 8.69577C19.9697 9.0795 19.9953 9.47983 19.9422 9.87353C19.889 10.2672 19.7583 10.6465 19.5574 10.9892C19.3565 11.332 19.0896 11.6314 18.772 11.8701C18.4545 12.1089 18.0927 12.2822 17.7077 12.38L15.9997 12.838V13.598L17.8477 16.799C18.0478 17.1403 18.1784 17.5178 18.232 17.9098C18.2856 18.3018 18.2611 18.7005 18.16 19.083C18.0589 19.4655 17.8831 19.8243 17.6428 20.1385C17.4024 20.4528 17.1023 20.7165 16.7597 20.9143C16.417 21.1121 16.0387 21.2402 15.6463 21.2912C15.254 21.3422 14.8554 21.3151 14.4736 21.2114C14.0918 21.1078 13.7343 20.9296 13.4216 20.6872C13.1089 20.4448 12.8472 20.1429 12.6517 19.799L11.9997 18.67L11.3477 19.8C10.947 20.4834 10.2923 20.9806 9.52645 21.1831C8.76057 21.3856 7.94568 21.2769 7.25961 20.8808C6.57355 20.4847 6.07202 19.8333 5.86445 19.0688C5.65689 18.3043 5.76015 17.4887 6.1517 16.8L7.9997 13.6V12.839L6.2917 12.381C5.90666 12.2832 5.54487 12.1099 5.22735 11.8711C4.90982 11.6324 4.64288 11.333 4.44201 10.9902C4.24114 10.6475 4.11035 10.2682 4.05722 9.87453C4.00409 9.48083 4.02969 9.0805 4.13253 8.69677C4.23536 8.31304 4.41339 7.95356 4.65627 7.63919C4.89916 7.32481 5.20206 7.06181 5.54741 6.86544C5.89275 6.66908 6.27366 6.54326 6.66802 6.49529C7.06238 6.44732 7.46235 6.47815 7.8447 6.586L8.0507 6.641C7.95782 6.06892 7.99037 5.48349 8.1461 4.92523C8.30182 4.36698 8.577 3.84923 8.95259 3.40783C9.32818 2.96642 9.7952 2.61191 10.3213 2.36883C10.8475 2.12575 11.4201 1.9999 11.9997 2ZM11.9997 13C11.7345 13 11.4801 13.1054 11.2926 13.2929C11.1051 13.4804 10.9997 13.7348 10.9997 14C10.9997 14.2652 11.1051 14.5196 11.2926 14.7071C11.4801 14.8946 11.7345 15 11.9997 15C12.2649 15 12.5193 14.8946 12.7068 14.7071C12.8943 14.5196 12.9997 14.2652 12.9997 14C12.9997 13.7348 12.8943 13.4804 12.7068 13.2929C12.5193 13.1054 12.2649 13 11.9997 13ZM11.9997 10C11.7345 10 11.4801 10.1054 11.2926 10.2929C11.1051 10.4804 10.9997 10.7348 10.9997 11C10.9997 11.2652 11.1051 11.5196 11.2926 11.7071C11.4801 11.8946 11.7345 12 11.9997 12C12.2649 12 12.5193 11.8946 12.7068 11.7071C12.8943 11.5196 12.9997 11.2652 12.9997 11C12.9997 10.7348 12.8943 10.4804 12.7068 10.2929C12.5193 10.1054 12.2649 10 11.9997 10Z" fill="currentColor"/>
</svg>
