<svg width="24" height="24" viewBox="0 0 24 24" fill="none" xmlns="http://www.w3.org/2000/svg">
<path d="M12 2C17.523 2 22 6.477 22 12C22 17.523 17.523 22 12 22C6.477 22 2 17.523 2 12C2 6.477 6.477 2 12 2ZM11.293 8.464L8.464 11.293C8.27653 11.4805 8.17121 11.7348 8.17121 12C8.17121 12.2652 8.27653 12.5195 8.464 12.707L11.293 15.536C11.4805 15.7235 11.7348 15.8288 12 15.8288C12.2652 15.8288 12.5195 15.7235 12.707 15.536L15.536 12.707C15.7235 12.5195 15.8288 12.2652 15.8288 12C15.8288 11.7348 15.7235 11.4805 15.536 11.293L12.707 8.464C12.5195 8.27653 12.2652 8.17121 12 8.17121C11.7348 8.17121 11.4805 8.27653 11.293 8.464Z" fill="currentColor"/>
</svg>
