<svg width="24" height="24" viewBox="0 0 24 24" fill="none" xmlns="http://www.w3.org/2000/svg">
<path fill-rule="evenodd" clip-rule="evenodd" d="M12 2C6.477 2 2 6.477 2 12C2 17.523 6.477 22 12 22C17.523 22 22 17.523 22 12C22 6.477 17.523 2 12 2ZM9 12C9.00006 11.3907 9.18568 10.7958 9.53214 10.2945C9.8786 9.79329 10.3695 9.40942 10.9395 9.19401C11.5095 8.97861 12.1316 8.94188 12.7229 9.08872C13.3143 9.23556 13.847 9.559 14.25 10.016C14.4256 10.2149 14.673 10.3359 14.9378 10.3524C15.2026 10.3689 15.4631 10.2796 15.662 10.104C15.8609 9.92843 15.9819 9.68103 15.9984 9.41623C16.0149 9.15142 15.9256 8.89091 15.75 8.692C15.0782 7.93038 14.1904 7.39138 13.2047 7.14674C12.2191 6.9021 11.1823 6.9634 10.2323 7.3225C9.28235 7.6816 8.46426 8.32146 7.88689 9.15695C7.30953 9.99244 7.00027 10.9839 7.00027 11.9995C7.00027 13.0151 7.30953 14.0066 7.88689 14.8421C8.46426 15.6775 9.28235 16.3174 10.2323 16.6765C11.1823 17.0356 12.2191 17.0969 13.2047 16.8523C14.1904 16.6076 15.0782 16.0686 15.75 15.307C15.8369 15.2085 15.9035 15.0939 15.9461 14.9696C15.9886 14.8454 16.0063 14.714 15.9981 14.5829C15.9899 14.4519 15.9559 14.3237 15.8982 14.2057C15.8404 14.0878 15.76 13.9824 15.6615 13.8955C15.563 13.8086 15.4484 13.742 15.3241 13.6994C15.1999 13.6569 15.0685 13.6392 14.9374 13.6474C14.8064 13.6556 14.6782 13.6896 14.5602 13.7473C14.4423 13.8051 14.3369 13.8855 14.25 13.984C13.847 14.441 13.3143 14.7644 12.7229 14.9113C12.1316 15.0581 11.5095 15.0214 10.9395 14.806C10.3695 14.5906 9.8786 14.2067 9.53214 13.7055C9.18568 13.2042 9.00006 12.6093 9 12Z" fill="currentColor"/>
</svg>
