<svg width="24" height="24" viewBox="0 0 24 24" fill="none" xmlns="http://www.w3.org/2000/svg">
                    <path d="M8.23173 17.3992C8.24903 17.7615 8.27562 18.0942 8.31649 18.3981C8.43825 19.3038 8.69976 20.074 9.31251 20.6867C9.92527 21.2995 10.6955 21.561 11.6011 21.6827C12.4714 21.7997 13.5766 21.7997 14.9414 21.7997H15.0576C16.4224 21.7997 17.5276 21.7997 18.3979 21.6827C19.3036 21.561 20.0738 21.2995 20.6865 20.6867C21.2993 20.074 21.5608 19.3038 21.6826 18.3981C21.7996 17.5278 21.7995 16.4226 21.7995 15.0578V14.9416C21.7995 13.5768 21.7996 12.4716 21.6826 11.6013C21.5608 10.6956 21.2993 9.92545 20.6865 9.3127C20.0738 8.69994 19.3036 8.43843 18.3979 8.31667C18.0939 8.2758 17.7613 8.24921 17.3989 8.2319C17.3994 8.43354 17.3994 8.63808 17.3994 8.84502V9.15444C17.3995 10.4406 17.3995 11.6343 17.2682 12.6113C17.1227 13.6935 16.7778 14.8581 15.8178 15.8181C14.8578 16.7781 13.6932 17.123 12.611 17.2685C11.634 17.3999 10.4403 17.3998 9.15414 17.3997H8.84472C8.63782 17.3997 8.43332 17.3998 8.23173 17.3992Z" fill="currentColor"></path>
                    <path d="M9.05782 2.19995H8.9416C7.57679 2.19993 6.47161 2.19991 5.6013 2.31692C4.69564 2.43868 3.92546 2.70019 3.3127 3.31295C2.69995 3.9257 2.43844 4.69589 2.31668 5.60154C2.19967 6.47186 2.19969 7.57701 2.19971 8.94182V9.05806C2.19969 10.4229 2.19967 11.5281 2.31668 12.3984C2.43844 13.304 2.69995 14.0742 3.3127 14.687C3.92546 15.2997 4.69564 15.5612 5.6013 15.683C6.47162 15.8 7.57679 15.8 8.94162 15.8H9.0578C10.4226 15.8 11.5278 15.8 12.3981 15.683C13.3038 15.5612 14.074 15.2997 14.6867 14.687C15.2995 14.0742 15.561 13.304 15.6827 12.3984C15.7998 11.528 15.7997 10.4229 15.7997 9.05804V8.94186C15.7997 7.57703 15.7998 6.47186 15.6827 5.60154C15.561 4.69589 15.2995 3.9257 14.6867 3.31295C14.074 2.70019 13.3038 2.43868 12.3981 2.31692C11.5278 2.19991 10.4226 2.19993 9.05782 2.19995Z" fill="currentColor"></path>
                  </svg>