<svg width="24" height="24" viewBox="0 0 24 24" fill="none" xmlns="http://www.w3.org/2000/svg">
<path fill-rule="evenodd" clip-rule="evenodd" d="M6 3.5C6.82843 3.5 7.5 4.17157 7.5 5V12C7.5 12.2761 7.72386 12.5 8 12.5H15.3787L13.4393 10.5606C12.8536 9.97486 12.8536 9.02511 13.4394 8.43933C14.0251 7.85354 14.9749 7.85354 15.5607 8.43933L20.0607 12.9393C20.6464 13.5251 20.6464 14.4749 20.0607 15.0607L15.5607 19.5606C14.9749 20.1464 14.0251 20.1464 13.4394 19.5606C12.8536 18.9749 12.8536 18.0251 13.4394 17.4393L15.3787 15.5H8C6.067 15.5 4.5 13.933 4.5 12V5C4.5 4.17157 5.17157 3.5 6 3.5Z" fill="currentColor"/>
</svg>
