<svg width="24" height="24" viewBox="0 0 24 24" fill="none" xmlns="http://www.w3.org/2000/svg">
<path fill-rule="evenodd" clip-rule="evenodd" d="M10.5607 3.43934C11.1464 4.02513 11.1464 4.97487 10.5607 5.56066L8.62132 7.5H16C17.933 7.5 19.5 9.067 19.5 11V18C19.5 18.8284 18.8284 19.5 18 19.5C17.1716 19.5 16.5 18.8284 16.5 18V11C16.5 10.7239 16.2761 10.5 16 10.5H8.62132L10.5607 12.4393C11.1464 13.0251 11.1464 13.9749 10.5607 14.5607C9.97487 15.1464 9.02513 15.1464 8.43934 14.5607L3.93934 10.0607C3.35355 9.47487 3.35355 8.52513 3.93934 7.93934L8.43934 3.43934C9.02513 2.85355 9.97487 2.85355 10.5607 3.43934Z" fill="currentColor"/>
</svg>
