<svg width="24" height="24" viewBox="0 0 24 24" fill="none" xmlns="http://www.w3.org/2000/svg">
<path fill-rule="evenodd" clip-rule="evenodd" d="M18 3.5C18.8284 3.5 19.5 4.17157 19.5 5V12C19.5 13.933 17.933 15.5 16 15.5H8.62132L10.5607 17.4393C11.1464 18.0251 11.1464 18.9749 10.5607 19.5607C9.97487 20.1464 9.02513 20.1464 8.43934 19.5607L3.93934 15.0607C3.35355 14.4749 3.35355 13.5251 3.93934 12.9393L8.43934 8.43934C9.02513 7.85355 9.97487 7.85355 10.5607 8.43934C11.1464 9.02513 11.1464 9.97487 10.5607 10.5607L8.62132 12.5H16C16.2761 12.5 16.5 12.2761 16.5 12V5C16.5 4.17157 17.1716 3.5 18 3.5Z" fill="currentColor"/>
</svg>
