<svg width="24" height="24" viewBox="0 0 24 24" fill="none" xmlns="http://www.w3.org/2000/svg">
<path d="M19 3C19.5046 2.99984 19.9906 3.19041 20.3605 3.5335C20.7305 3.87659 20.9572 4.34684 20.995 4.85L21 5V19C21.0002 19.5046 20.8096 19.9906 20.4665 20.3605C20.1234 20.7305 19.6532 20.9572 19.15 20.995L19 21H5C4.49542 21.0002 4.00943 20.8096 3.63945 20.4665C3.26947 20.1234 3.04284 19.6532 3.005 19.15L3 19V5C2.99984 4.49542 3.19041 4.00943 3.5335 3.63945C3.87659 3.26947 4.34684 3.04284 4.85 3.005L5 3H19ZM6.379 13.379C6.19153 13.5665 6.08621 13.8208 6.08621 14.086C6.08621 14.3512 6.19153 14.6055 6.379 14.793L7.086 15.5L6.379 16.207C6.28349 16.2992 6.20731 16.4096 6.1549 16.5316C6.10249 16.6536 6.0749 16.7848 6.07375 16.9176C6.0726 17.0504 6.0979 17.1821 6.14818 17.305C6.19846 17.4279 6.27271 17.5395 6.3666 17.6334C6.4605 17.7273 6.57215 17.8015 6.69505 17.8518C6.81794 17.9021 6.94962 17.9274 7.0824 17.9263C7.21518 17.9251 7.3464 17.8975 7.4684 17.8451C7.59041 17.7927 7.70075 17.7165 7.793 17.621L8.5 16.914L9.207 17.621C9.3956 17.8032 9.6482 17.904 9.9104 17.9017C10.1726 17.8994 10.4234 17.7942 10.6088 17.6088C10.7942 17.4234 10.8994 17.1726 10.9017 16.9104C10.904 16.6482 10.8032 16.3956 10.621 16.207L9.914 15.5L10.621 14.793C10.8032 14.6044 10.904 14.3518 10.9017 14.0896C10.8994 13.8274 10.7942 13.5766 10.6088 13.3912C10.4234 13.2058 10.1726 13.1006 9.9104 13.0983C9.6482 13.096 9.3956 13.1968 9.207 13.379L8.5 14.086L7.793 13.379C7.60547 13.1915 7.35116 13.0862 7.086 13.0862C6.82084 13.0862 6.56653 13.1915 6.379 13.379ZM17 15.75H14C13.7451 15.7503 13.5 15.8479 13.3146 16.0228C13.1293 16.1978 13.0178 16.437 13.0028 16.6914C12.9879 16.9458 13.0707 17.1964 13.2343 17.3918C13.3979 17.5873 13.6299 17.7129 13.883 17.743L14 17.75H17C17.2549 17.7497 17.5 17.6521 17.6854 17.4772C17.8707 17.3022 17.9822 17.063 17.9972 16.8086C18.0121 16.5542 17.9293 16.3036 17.7657 16.1082C17.6021 15.9127 17.3701 15.7871 17.117 15.757L17 15.75ZM17 13.25H14C13.7451 13.2503 13.5 13.3479 13.3146 13.5228C13.1293 13.6978 13.0178 13.937 13.0028 14.1914C12.9879 14.4458 13.0707 14.6964 13.2343 14.8918C13.3979 15.0873 13.6299 15.2129 13.883 15.243L14 15.25H17C17.2549 15.2497 17.5 15.1521 17.6854 14.9772C17.8707 14.8022 17.9822 14.563 17.9972 14.3086C18.0121 14.0542 17.9293 13.8036 17.7657 13.6082C17.6021 13.4127 17.3701 13.2871 17.117 13.257L17 13.25ZM15.5 6.5C15.2348 6.5 14.9804 6.60536 14.7929 6.79289C14.6054 6.98043 14.5 7.23478 14.5 7.5V8H14C13.7348 8 13.4804 8.10536 13.2929 8.29289C13.1054 8.48043 13 8.73478 13 9C13 9.26522 13.1054 9.51957 13.2929 9.70711C13.4804 9.89464 13.7348 10 14 10H14.5V10.5C14.5 10.7652 14.6054 11.0196 14.7929 11.2071C14.9804 11.3946 15.2348 11.5 15.5 11.5C15.7652 11.5 16.0196 11.3946 16.2071 11.2071C16.3946 11.0196 16.5 10.7652 16.5 10.5V10H17C17.2652 10 17.5196 9.89464 17.7071 9.70711C17.8946 9.51957 18 9.26522 18 9C18 8.73478 17.8946 8.48043 17.7071 8.29289C17.5196 8.10536 17.2652 8 17 8H16.5V7.5C16.5 7.23478 16.3946 6.98043 16.2071 6.79289C16.0196 6.60536 15.7652 6.5 15.5 6.5ZM10 8H7C6.74512 8.00028 6.49997 8.09788 6.31463 8.27285C6.1293 8.44782 6.01777 8.68695 6.00283 8.94139C5.98789 9.19584 6.07067 9.44638 6.23426 9.64183C6.39786 9.83729 6.6299 9.9629 6.883 9.993L7 10H10C10.2549 9.99972 10.5 9.90212 10.6854 9.72715C10.8707 9.55218 10.9822 9.31305 10.9972 9.05861C11.0121 8.80416 10.9293 8.55362 10.7657 8.35817C10.6021 8.16271 10.3701 8.0371 10.117 8.007L10 8Z" fill="currentColor"/>
</svg>
