<svg width="24" height="24" viewBox="0 0 24 24" fill="none" xmlns="http://www.w3.org/2000/svg">
<path d="M18 3C18.5046 2.99984 18.9906 3.19041 19.3605 3.5335C19.7305 3.87659 19.9572 4.34684 19.995 4.85L20 5V20C20.0002 20.5046 19.8096 20.9906 19.4665 21.3605C19.1234 21.7305 18.6532 21.9572 18.15 21.995L18 22H6C5.49542 22.0002 5.00943 21.8096 4.63945 21.4665C4.26947 21.1234 4.04284 20.6532 4.005 20.15L4 20V5C3.99984 4.49542 4.19041 4.00943 4.5335 3.63945C4.87659 3.26947 5.34684 3.04284 5.85 3.005L6 3H18ZM9.5 17C9.10218 17 8.72064 17.158 8.43934 17.4393C8.15804 17.7206 8 18.1022 8 18.5C8 18.8978 8.15804 19.2794 8.43934 19.5607C8.72064 19.842 9.10218 20 9.5 20C9.89782 20 10.2794 19.842 10.5607 19.5607C10.842 19.2794 11 18.8978 11 18.5C11 18.1022 10.842 17.7206 10.5607 17.4393C10.2794 17.158 9.89782 17 9.5 17ZM14.5 17C14.1022 17 13.7206 17.158 13.4393 17.4393C13.158 17.7206 13 18.1022 13 18.5C13 18.8978 13.158 19.2794 13.4393 19.5607C13.7206 19.842 14.1022 20 14.5 20C14.8978 20 15.2794 19.842 15.5607 19.5607C15.842 19.2794 16 18.8978 16 18.5C16 18.1022 15.842 17.7206 15.5607 17.4393C15.2794 17.158 14.8978 17 14.5 17ZM9.5 13C9.10218 13 8.72064 13.158 8.43934 13.4393C8.15804 13.7206 8 14.1022 8 14.5C8 14.8978 8.15804 15.2794 8.43934 15.5607C8.72064 15.842 9.10218 16 9.5 16C9.89782 16 10.2794 15.842 10.5607 15.5607C10.842 15.2794 11 14.8978 11 14.5C11 14.1022 10.842 13.7206 10.5607 13.4393C10.2794 13.158 9.89782 13 9.5 13ZM14.5 13C14.1022 13 13.7206 13.158 13.4393 13.4393C13.158 13.7206 13 14.1022 13 14.5C13 14.8978 13.158 15.2794 13.4393 15.5607C13.7206 15.842 14.1022 16 14.5 16C14.8978 16 15.2794 15.842 15.5607 15.5607C15.842 15.2794 16 14.8978 16 14.5C16 14.1022 15.842 13.7206 15.5607 13.4393C15.2794 13.158 14.8978 13 14.5 13ZM15.5 6H8.5C8.10218 6 7.72064 6.15804 7.43934 6.43934C7.15804 6.72064 7 7.10218 7 7.5V9.5C7 9.89782 7.15804 10.2794 7.43934 10.5607C7.72064 10.842 8.10218 11 8.5 11H15.5C15.8978 11 16.2794 10.842 16.5607 10.5607C16.842 10.2794 17 9.89782 17 9.5V7.5C17 7.10218 16.842 6.72064 16.5607 6.43934C16.2794 6.15804 15.8978 6 15.5 6ZM15 8V9H9V8H15Z" fill="currentColor"/>
</svg>
