<svg width="24" height="24" viewBox="0 0 24 24" fill="none" xmlns="http://www.w3.org/2000/svg">
<path fill-rule="evenodd" clip-rule="evenodd" d="M11.9997 2C13.7586 2.00012 15.4741 2.54589 16.9098 3.56207C18.3455 4.57825 19.4306 6.01478 20.0154 7.67361C20.6003 9.33243 20.6562 11.1319 20.1753 12.8238C19.6944 14.5157 18.7006 16.0167 17.3307 17.12L17.1047 17.297L17.8147 20.137C17.8671 20.3473 17.8733 20.5665 17.8329 20.7795C17.7925 20.9924 17.7064 21.1941 17.5806 21.3706C17.4547 21.5471 17.2921 21.6942 17.104 21.8018C16.9158 21.9094 16.7066 21.975 16.4907 21.994L16.3597 22H7.63967C7.42285 21.9999 7.20863 21.9529 7.01175 21.862C6.81488 21.7712 6.64004 21.6388 6.49927 21.4739C6.3585 21.3089 6.25516 21.1155 6.19636 20.9068C6.13756 20.6981 6.1247 20.4791 6.15867 20.265L6.18467 20.136L6.89467 17.296C5.46879 16.2248 4.41594 14.7323 3.88517 13.0297C3.3544 11.3271 3.3726 9.50074 3.93719 7.80906C4.50179 6.11738 5.58417 4.64614 7.03111 3.60361C8.47806 2.56108 10.2163 2.00007 11.9997 2ZM15.2197 18H8.77967L8.27967 20H15.7197L15.2197 18ZM16.1097 9.56C16.1003 9.53859 16.085 9.52037 16.0654 9.50757C16.0459 9.49477 16.023 9.48796 15.9997 9.48796C15.9763 9.48796 15.9535 9.49477 15.9339 9.50757C15.9144 9.52037 15.899 9.53859 15.8897 9.56C15.6989 9.99106 15.4057 10.369 15.0357 10.661L14.8587 10.79L14.6817 10.897C14.6673 10.9051 14.6548 10.9162 14.645 10.9295C14.6352 10.9428 14.6283 10.9579 14.6247 10.9741C14.6211 10.9902 14.6209 11.0069 14.6242 11.023C14.6275 11.0392 14.6341 11.0545 14.6437 11.068L14.6817 11.103L14.8587 11.21C15.3135 11.512 15.6713 11.9392 15.8887 12.44C15.8963 12.4578 15.9081 12.4735 15.923 12.4858C15.938 12.4981 15.9557 12.5065 15.9747 12.5105C15.9937 12.5144 16.0133 12.5137 16.0319 12.5084C16.0506 12.5031 16.0676 12.4933 16.0817 12.48L16.1097 12.44L16.1827 12.285C16.4055 11.8511 16.7352 11.4811 17.1407 11.21C17.198 11.1722 17.2567 11.1365 17.3167 11.103C17.335 11.0928 17.3503 11.0778 17.3609 11.0597C17.3715 11.0416 17.3771 11.021 17.3771 11C17.3771 10.979 17.3715 10.9584 17.3609 10.9403C17.3503 10.9222 17.335 10.9072 17.3167 10.897C16.8891 10.6575 16.5316 10.3104 16.2797 9.89L16.1827 9.715L16.1097 9.56ZM13.1837 5.6C13.168 5.56428 13.1422 5.53391 13.1095 5.51258C13.0769 5.49126 13.0387 5.4799 12.9997 5.4799C12.9607 5.4799 12.9225 5.49126 12.8898 5.51258C12.8571 5.53391 12.8314 5.56428 12.8157 5.6C12.5984 6.09599 12.2985 6.55147 11.9287 6.947C11.6007 7.29647 11.2213 7.59389 10.8037 7.829C10.7733 7.84602 10.748 7.87084 10.7304 7.9009C10.7127 7.93096 10.7035 7.96516 10.7035 8C10.7035 8.03484 10.7127 8.06905 10.7304 8.0991C10.748 8.12916 10.7733 8.15397 10.8037 8.171C11.6992 8.67457 12.4057 9.45692 12.8157 10.399C12.8857 10.559 13.1127 10.559 13.1837 10.399C13.4009 9.903 13.7008 9.44752 14.0707 9.052C14.3985 8.70329 14.7775 8.40655 15.1947 8.172C15.2253 8.15505 15.2508 8.1302 15.2686 8.10004C15.2864 8.06988 15.2958 8.03551 15.2958 8.0005C15.2958 7.96549 15.2864 7.93112 15.2686 7.90096C15.2508 7.8708 15.2253 7.84595 15.1947 7.829C14.2992 7.32518 13.593 6.54242 13.1837 5.6Z" fill="currentColor"/>
</svg>
