<svg width="24" height="24" viewBox="0 0 24 24" fill="none" xmlns="http://www.w3.org/2000/svg">
<path fill-rule="evenodd" clip-rule="evenodd" d="M11.2501 1.70099C11.4781 1.56934 11.7368 1.50003 12.0001 1.50003C12.2634 1.50003 12.522 1.56934 12.7501 1.70099L14.7501 2.85599C15.0736 3.04316 15.3156 3.34439 15.4287 3.70067C15.5417 4.05694 15.5177 4.4426 15.3613 4.78208C15.2049 5.12156 14.9273 5.39042 14.5831 5.53598C14.2388 5.68153 13.8526 5.69331 13.5001 5.56899V5.99999C13.5001 6.39782 13.342 6.77935 13.0607 7.06065C12.7794 7.34196 12.3979 7.49999 12.0001 7.49999C11.6022 7.49999 11.2207 7.34196 10.9394 7.06065C10.6581 6.77935 10.5001 6.39782 10.5001 5.99999V5.56999C10.1471 5.69572 9.75994 5.68483 9.41465 5.53946C9.06935 5.3941 8.79096 5.12478 8.63423 4.78449C8.4775 4.4442 8.45379 4.05758 8.56775 3.70069C8.68172 3.34379 8.92512 3.04247 9.25006 2.85599L11.2501 1.70099ZM7.18006 7.48699C7.46483 7.24417 7.64855 6.90367 7.69514 6.53234C7.74172 6.161 7.64782 5.78567 7.43187 5.48002C7.21591 5.17437 6.8935 4.9605 6.52793 4.88038C6.16236 4.80026 5.78005 4.85968 5.45606 5.04699L3.45606 6.20099C3.22803 6.33264 3.03868 6.52199 2.90703 6.75001C2.77538 6.97804 2.70606 7.23669 2.70606 7.49999V9.80999C2.70624 10.1841 2.84617 10.5445 3.0984 10.8208C3.35064 11.097 3.69698 11.269 4.06948 11.303C4.44199 11.3371 4.81378 11.2308 5.11192 11.0049C5.41006 10.779 5.61305 10.4498 5.68106 10.082C6.02372 10.2595 6.42161 10.2981 6.79199 10.1897C7.16238 10.0814 7.47676 9.83449 7.66979 9.50033C7.86281 9.16618 7.91963 8.77048 7.82842 8.39552C7.73721 8.02055 7.505 7.69516 7.18006 7.48699ZM16.4951 5.59499C16.5936 5.42428 16.7247 5.27464 16.8811 5.15465C17.0374 5.03465 17.2159 4.94665 17.4063 4.89566C17.5967 4.84468 17.7952 4.83171 17.9906 4.85751C18.186 4.8833 18.3744 4.94735 18.5451 5.04599L20.5451 6.20099C20.7732 6.33273 20.9627 6.52223 21.0943 6.75045C21.226 6.97866 21.2952 7.23752 21.2951 7.50099V9.80899C21.2965 10.1841 21.1574 10.5461 20.9051 10.8237C20.6528 11.1013 20.3056 11.2743 19.9321 11.3085C19.5586 11.3428 19.1857 11.2359 18.8871 11.0088C18.5886 10.7818 18.3859 10.4511 18.3191 10.082C17.9765 10.2578 17.5795 10.2951 17.2102 10.1863C16.8409 10.0774 16.5276 9.83078 16.3352 9.49736C16.1427 9.16393 16.0858 8.76926 16.1762 8.39504C16.2667 8.02082 16.4975 7.69571 16.8211 7.48699C16.5541 7.2595 16.3753 6.94564 16.3157 6.59998C16.2562 6.25432 16.3196 5.89872 16.4951 5.59499ZM8.53606 9.99999C8.63447 9.82919 8.76558 9.67947 8.9219 9.55937C9.07821 9.43928 9.25667 9.35117 9.44706 9.30009C9.63745 9.24901 9.83604 9.23596 10.0315 9.26168C10.2269 9.2874 10.4154 9.35139 10.5861 9.44999L12.0001 10.268L13.4151 9.45099C13.5857 9.35095 13.7745 9.28564 13.9705 9.25885C14.1665 9.23205 14.3658 9.24428 14.5571 9.29484C14.7483 9.34541 14.9277 9.4333 15.0848 9.55346C15.242 9.67363 15.3738 9.82368 15.4727 9.995C15.5716 10.1663 15.6357 10.3555 15.6612 10.5517C15.6867 10.7478 15.6731 10.9471 15.6213 11.138C15.5694 11.3289 15.4804 11.5077 15.3592 11.6641C15.238 11.8204 15.087 11.9512 14.9151 12.049L13.5001 12.866V14.5C13.5001 14.8978 13.342 15.2793 13.0607 15.5607C12.7794 15.842 12.3979 16 12.0001 16C11.6022 16 11.2207 15.842 10.9394 15.5607C10.6581 15.2793 10.5001 14.8978 10.5001 14.5V12.866L9.08506 12.049C8.91434 11.9505 8.76471 11.8193 8.64471 11.663C8.52472 11.5066 8.43671 11.3281 8.38573 11.1378C8.33474 10.9474 8.32177 10.7488 8.34757 10.5534C8.37336 10.358 8.43741 10.1696 8.53606 9.99899V9.99999ZM5.68106 13.916C5.613 13.5479 5.40979 13.2186 5.11132 12.9927C4.81286 12.7668 4.44072 12.6606 4.06799 12.6951C3.69526 12.7295 3.34888 12.9021 3.09688 13.1789C2.84489 13.4557 2.70548 13.8167 2.70606 14.191V16.5C2.70606 16.7633 2.77538 17.0219 2.90703 17.25C3.03868 17.478 3.22803 17.6673 3.45606 17.799L5.45606 18.954C5.78008 19.1424 6.16288 19.2026 6.5291 19.1229C6.89531 19.0431 7.2184 18.8292 7.43477 18.5231C7.65113 18.2171 7.74508 17.8411 7.69812 17.4693C7.65117 17.0974 7.46671 16.7566 7.18106 16.514L7.55406 16.299C7.72602 16.2012 7.87695 16.0704 7.99816 15.9141C8.11936 15.7577 8.20844 15.5789 8.26027 15.388C8.3121 15.1971 8.32566 14.9978 8.30016 14.8017C8.27466 14.6055 8.21061 14.4163 8.1117 14.245C8.01279 14.0737 7.88097 13.9236 7.72383 13.8035C7.56668 13.6833 7.38732 13.5954 7.19608 13.5448C7.00483 13.4943 6.80547 13.482 6.60947 13.5088C6.41347 13.5356 6.22471 13.6009 6.05406 13.701L5.68106 13.916ZM19.7941 12.691C20.1919 12.691 20.5734 12.849 20.8547 13.1303C21.136 13.4116 21.2941 13.7932 21.2941 14.191V16.501C21.2939 16.7641 21.2245 17.0226 21.0928 17.2504C20.9612 17.4782 20.7719 17.6674 20.5441 17.799L18.5441 18.954C18.22 19.1424 17.8372 19.2026 17.471 19.1229C17.1048 19.0431 16.7817 18.8292 16.5653 18.5231C16.349 18.2171 16.255 17.8411 16.302 17.4693C16.3489 17.0974 16.5334 16.7566 16.8191 16.514L16.4461 16.299C16.2741 16.2012 16.1232 16.0704 16.002 15.9141C15.8808 15.7577 15.7917 15.5789 15.7398 15.388C15.688 15.1971 15.6745 14.9978 15.7 14.8017C15.7254 14.6055 15.7895 14.4163 15.8884 14.245C15.9873 14.0737 16.1191 13.9236 16.2763 13.8035C16.4334 13.6833 16.6128 13.5954 16.804 13.5448C16.9953 13.4943 17.1946 13.482 17.3906 13.5088C17.5866 13.5356 17.7754 13.6009 17.9461 13.701L18.3191 13.916C18.3833 13.5717 18.5659 13.2608 18.8353 13.0371C19.1047 12.8133 19.4439 12.6909 19.7941 12.691ZM12.0001 17C12.386 16.9998 12.7572 17.1485 13.0364 17.415C13.3156 17.6815 13.4813 18.0454 13.4991 18.431C13.8517 18.3059 14.2384 18.3171 14.5832 18.4625C14.928 18.6078 15.206 18.8768 15.3627 19.2166C15.5194 19.5564 15.5434 19.9425 15.43 20.2991C15.3167 20.6557 15.0742 20.957 14.7501 21.144L12.7501 22.299C12.522 22.4306 12.2634 22.5 12.0001 22.5C11.7368 22.5 11.4781 22.4306 11.2501 22.299L9.25006 21.144C8.92536 20.9572 8.6823 20.6557 8.56867 20.2988C8.45504 19.9419 8.47906 19.5553 8.63601 19.2152C8.79297 18.8751 9.07149 18.606 9.41681 18.4609C9.76214 18.3158 10.1493 18.3051 10.5021 18.431C10.5198 18.0456 10.6854 17.6819 10.9643 17.4154C11.2433 17.1489 11.6142 17.0001 12.0001 17Z" fill="currentColor"/>
</svg>
