<svg width="24" height="24" viewBox="0 0 24 24" fill="none" xmlns="http://www.w3.org/2000/svg">
<path fill-rule="evenodd" clip-rule="evenodd" d="M12.0003 3C10.7491 3.00002 9.52912 3.39108 8.51107 4.11849C7.49302 4.84591 6.72775 5.8733 6.32228 7.057C5.61903 7.17805 4.96096 7.48498 4.41626 7.94598C3.87157 8.40697 3.46008 9.00525 3.22444 9.67881C2.9888 10.3524 2.93759 11.0767 3.07611 11.7767C3.21464 12.4767 3.53786 13.127 4.01228 13.66C4.02728 13.748 4.05328 13.835 4.09228 13.92L6.55628 19.257C6.79641 19.7774 7.18057 20.2181 7.66331 20.527C8.14605 20.8359 8.70717 21 9.28028 21H14.7203C15.2934 21 15.8545 20.8359 16.3372 20.527C16.82 20.2181 17.2041 19.7774 17.4443 19.257L19.9083 13.919C19.9464 13.8366 19.9733 13.7495 19.9883 13.66C20.4627 13.127 20.7859 12.4767 20.9244 11.7767C21.063 11.0767 21.0118 10.3524 20.7761 9.67881C20.5405 9.00525 20.129 8.40697 19.5843 7.94598C19.0396 7.48498 18.3815 7.17805 17.6783 7.057C17.2728 5.8733 16.5075 4.84591 15.4895 4.11849C14.4714 3.39108 13.2515 3.00002 12.0003 3ZM17.2093 14.995C17.1393 14.998 17.0703 15 17.0003 15H7.00028C6.93028 15 6.86028 14.998 6.79128 14.995L8.37128 18.419C8.45139 18.5926 8.5796 18.7396 8.74071 18.8426C8.90182 18.9456 9.08907 19.0002 9.28028 19H14.7203C14.9112 19.0001 15.0982 18.9455 15.2591 18.8427C15.42 18.74 15.5481 18.5933 15.6283 18.42L17.2093 14.995Z" fill="currentColor"/>
</svg>
