<svg width="24" height="24" viewBox="0 0 24 24" fill="none" xmlns="http://www.w3.org/2000/svg">
<path d="M12 2C17.523 2 22 6.477 22 12C22 17.523 17.523 22 12 22C6.477 22 2 17.523 2 12C2 6.477 6.477 2 12 2ZM12 6C11.7551 6.00003 11.5187 6.08996 11.3356 6.25272C11.1526 6.41547 11.0357 6.63975 11.007 6.883L11 7V8H9.1L8.98 8.006C8.73102 8.03321 8.49878 8.14457 8.32167 8.32167C8.14457 8.49878 8.03321 8.73102 8.006 8.98L8 9.1V14.9L8.006 15.02C8.03321 15.269 8.14457 15.5012 8.32167 15.6783C8.49878 15.8554 8.73102 15.9668 8.98 15.994L9.1 16H11V17L11.007 17.117C11.0359 17.3601 11.153 17.5841 11.336 17.7466C11.519 17.9091 11.7552 17.9989 12 17.9989C12.2448 17.9989 12.481 17.9091 12.664 17.7466C12.847 17.5841 12.9641 17.3601 12.993 17.117L13 17V16H14.5L14.664 15.995C15.1134 15.9655 15.5466 15.8151 15.9176 15.5598C16.2886 15.3044 16.5838 14.9536 16.7719 14.5443C16.96 14.1351 17.034 13.6826 16.9861 13.2347C16.9383 12.7869 16.7703 12.3603 16.5 12C16.7703 11.6397 16.9383 11.2131 16.9861 10.7653C17.034 10.3174 16.96 9.86492 16.7719 9.45567C16.5838 9.04641 16.2886 8.69557 15.9176 8.44022C15.5466 8.18487 15.1134 8.0345 14.664 8.005L14.5 8H13V7L12.993 6.883C12.9643 6.63975 12.8474 6.41547 12.6644 6.25272C12.4813 6.08996 12.2449 6.00003 12 6ZM14.5 13C14.6249 12.9998 14.7455 13.0463 14.8378 13.1305C14.9301 13.2147 14.9876 13.3304 14.9989 13.4548C15.0102 13.5793 14.9745 13.7034 14.8988 13.8028C14.8231 13.9023 14.7129 13.9697 14.59 13.992L14.5 14H10V13H14.5ZM14.5 10C14.6249 9.99977 14.7455 10.0463 14.8378 10.1305C14.9301 10.2147 14.9876 10.3304 14.9989 10.4548C15.0102 10.5793 14.9745 10.7034 14.8988 10.8028C14.8231 10.9023 14.7129 10.9697 14.59 10.992L14.5 11H10V10H14.5Z" fill="currentColor"/>
</svg>
