<svg width="24" height="24" viewBox="0 0 24 24" fill="none" xmlns="http://www.w3.org/2000/svg">
<path fill-rule="evenodd" clip-rule="evenodd" d="M8.5 2.5C8.79162 2.50007 9.0769 2.58514 9.32093 2.7448C9.56496 2.90447 9.75716 3.13181 9.874 3.399L12.106 8.5H14.5V4C14.5 3.60218 14.658 3.22064 14.9393 2.93934C15.2206 2.65804 15.6022 2.5 16 2.5C16.3978 2.5 16.7794 2.65804 17.0607 2.93934C17.342 3.22064 17.5 3.60218 17.5 4V8.5H19C19.3978 8.5 19.7794 8.65804 20.0607 8.93934C20.342 9.22064 20.5 9.60218 20.5 10C20.5 10.3978 20.342 10.7794 20.0607 11.0607C19.7794 11.342 19.3978 11.5 19 11.5H17.5V13.5H19C19.3978 13.5 19.7794 13.658 20.0607 13.9393C20.342 14.2206 20.5 14.6022 20.5 15C20.5 15.3978 20.342 15.7794 20.0607 16.0607C19.7794 16.342 19.3978 16.5 19 16.5H17.5V20C17.5 20.3978 17.342 20.7794 17.0607 21.0607C16.7794 21.342 16.3978 21.5 16 21.5H15.5C15.2084 21.4999 14.9231 21.4149 14.6791 21.2552C14.435 21.0955 14.2428 20.8682 14.126 20.601L12.332 16.5H9.5V20C9.5 20.3978 9.34196 20.7794 9.06066 21.0607C8.77936 21.342 8.39782 21.5 8 21.5C7.60218 21.5 7.22064 21.342 6.93934 21.0607C6.65804 20.7794 6.5 20.3978 6.5 20V16.5H5C4.60218 16.5 4.22064 16.342 3.93934 16.0607C3.65804 15.7794 3.5 15.3978 3.5 15C3.5 14.6022 3.65804 14.2206 3.93934 13.9393C4.22064 13.658 4.60218 13.5 5 13.5H6.5V11.5H5C4.60218 11.5 4.22064 11.342 3.93934 11.0607C3.65804 10.7794 3.5 10.3978 3.5 10C3.5 9.60218 3.65804 9.22064 3.93934 8.93934C4.22064 8.65804 4.60218 8.5 5 8.5H6.5V4C6.5 3.60218 6.65804 3.22064 6.93934 2.93934C7.22064 2.65804 7.60218 2.5 8 2.5H8.5ZM10.144 11.5H9.5V13.5H11.019L10.144 11.5ZM14.5 11.5H13.418L14.294 13.5H14.5V11.5Z" fill="currentColor"/>
</svg>
