<svg width="24" height="24" viewBox="0 0 24 24" fill="none" xmlns="http://www.w3.org/2000/svg">
<path d="M16.567 4.792C16.1754 4.09657 15.6059 3.51781 14.9169 3.11504C14.2278 2.71228 13.4441 2.50001 12.646 2.5L11.788 2.505C10.6327 2.559 9.54258 3.05594 8.74407 3.89263C7.94556 4.72931 7.50002 5.84143 7.5 6.998V10.5H6C5.60218 10.5 5.22064 10.658 4.93934 10.9393C4.65804 11.2206 4.5 11.6022 4.5 12C4.5 12.3978 4.65804 12.7794 4.93934 13.0607C5.22064 13.342 5.60218 13.5 6 13.5H7.5V16C7.486 16.486 7.397 16.972 7.012 17.309C6.812 17.483 6.562 17.542 6.329 17.659C4.726 18.46 5.625 20.89 7.364 20.455C7.658 20.373 7.934 20.247 8.231 20.174C9.483 19.892 10.696 20.162 11.891 20.538C13.71 21.076 15.363 21.052 16.765 20.669C17.814 20.383 18.972 19.591 18.342 18.329C17.835 17.315 16.852 17.486 15.976 17.775C14.663 18.133 13.373 17.86 12.108 17.462C11.5459 17.299 10.9718 17.1809 10.391 17.109C10.4603 16.7433 10.4968 16.3722 10.5 16V13.5H13C13.3978 13.5 13.7794 13.342 14.0607 13.0607C14.342 12.7794 14.5 12.3978 14.5 12C14.5 11.6022 14.342 11.2206 14.0607 10.9393C13.7794 10.658 13.3978 10.5 13 10.5H10.5V6.998C10.539 6.184 11.154 5.5 12 5.5L12.787 5.507C13.0403 5.53098 13.2834 5.61902 13.4933 5.76282C13.7032 5.90661 13.8731 6.10145 13.987 6.329L14.729 7.797C14.9328 8.12534 15.2556 8.36233 15.6298 8.45857C16.0041 8.5548 16.4011 8.50286 16.7381 8.31357C17.075 8.12428 17.3259 7.81224 17.4384 7.44251C17.5509 7.07278 17.5164 6.67389 17.342 6.329L16.567 4.792Z" fill="currentColor"/>
</svg>
