<svg width="24" height="24" viewBox="0 0 24 24" fill="none" xmlns="http://www.w3.org/2000/svg">
<path d="M11.0001 2.5C11.3979 2.5 11.7794 2.65804 12.0607 2.93934C12.342 3.22064 12.5001 3.60218 12.5001 4V6.573L14.3301 5.658C14.5065 5.5682 14.6989 5.51421 14.8963 5.49914C15.0937 5.48407 15.2921 5.50823 15.4801 5.57021C15.6682 5.6322 15.842 5.73078 15.9918 5.86029C16.1415 5.98979 16.2641 6.14765 16.3525 6.32477C16.441 6.50189 16.4935 6.69476 16.507 6.89226C16.5205 7.08976 16.4948 7.28799 16.4314 7.47551C16.3679 7.66303 16.268 7.83614 16.1373 7.98486C16.0067 8.13357 15.8479 8.25495 15.6701 8.342L12.5001 9.927V10.573L14.3301 9.658C14.6855 9.48396 15.0954 9.45748 15.4703 9.58432C15.8453 9.71117 16.1549 9.98106 16.3317 10.3352C16.5085 10.6893 16.5381 11.099 16.4142 11.4749C16.2903 11.8508 16.0228 12.1625 15.6701 12.342L12.5001 13.927V18.13C12.9671 17.936 13.4801 17.66 13.9931 17.287C15.1491 16.446 16.1481 15.223 16.5451 13.637C16.5896 13.4426 16.6725 13.2591 16.7889 13.0971C16.9053 12.9352 17.0527 12.798 17.2227 12.6938C17.3927 12.5895 17.5818 12.5201 17.7789 12.4898C17.976 12.4595 18.1772 12.4687 18.3707 12.5171C18.5641 12.5654 18.746 12.6518 18.9057 12.7713C19.0654 12.8908 19.1996 13.0409 19.3006 13.2129C19.4016 13.3848 19.4673 13.5752 19.4938 13.7729C19.5203 13.9705 19.5071 14.1715 19.4551 14.364C18.8521 16.777 17.3511 18.554 15.7571 19.714C14.2021 20.843 12.4001 21.5 11.0001 21.5C10.6022 21.5 10.2207 21.342 9.9394 21.0607C9.65809 20.7794 9.50006 20.3978 9.50006 20V15.427L7.67006 16.342C7.49363 16.4318 7.30118 16.4858 7.10379 16.5009C6.9064 16.5159 6.70798 16.4918 6.51997 16.4298C6.33196 16.3678 6.15808 16.2692 6.00835 16.1397C5.85862 16.0102 5.73601 15.8523 5.64758 15.6752C5.55916 15.4981 5.50666 15.3052 5.49313 15.1077C5.4796 14.9102 5.5053 14.712 5.56874 14.5245C5.63218 14.337 5.73212 14.1639 5.86278 14.0151C5.99345 13.8664 6.15226 13.745 6.33006 13.658L9.50006 12.073V11.427L7.67006 12.342C7.49363 12.4318 7.30118 12.4858 7.10379 12.5009C6.9064 12.5159 6.70798 12.4918 6.51997 12.4298C6.33196 12.3678 6.15808 12.2692 6.00835 12.1397C5.85862 12.0102 5.73601 11.8523 5.64758 11.6752C5.55916 11.4981 5.50666 11.3052 5.49313 11.1077C5.4796 10.9102 5.5053 10.712 5.56874 10.5245C5.63218 10.337 5.73212 10.1639 5.86278 10.0151C5.99345 9.86643 6.15226 9.74505 6.33006 9.658L9.50006 8.073V4C9.50006 3.60218 9.65809 3.22064 9.9394 2.93934C10.2207 2.65804 10.6022 2.5 11.0001 2.5Z" fill="currentColor"/>
</svg>
