<svg width="24" height="24" viewBox="0 0 24 24" fill="none" xmlns="http://www.w3.org/2000/svg">
<path fill-rule="evenodd" clip-rule="evenodd" d="M12 22C17.523 22 22 17.523 22 12C22 6.477 17.523 2 12 2C6.477 2 2 6.477 2 12C2 17.523 6.477 22 12 22ZM8.97 8.757C8.90402 8.5014 8.73966 8.28225 8.51275 8.14736C8.28584 8.01246 8.0148 7.97275 7.75873 8.0369C7.50266 8.10105 7.28235 8.26385 7.14583 8.48979C7.00932 8.71573 6.96768 8.98648 7.03 9.243L7.22 10H7C6.73478 10 6.48043 10.1054 6.29289 10.2929C6.10536 10.4804 6 10.7348 6 11C6 11.2652 6.10536 11.5196 6.29289 11.7071C6.48043 11.8946 6.73478 12 7 12H7.72L7.97 13H7C6.73478 13 6.48043 13.1054 6.29289 13.2929C6.10536 13.4804 6 13.7348 6 14C6 14.2652 6.10536 14.5196 6.29289 14.7071C6.48043 14.8946 6.73478 15 7 15H8.47L8.947 16.91C9.213 17.977 10.709 18.035 11.057 16.99L12 14.162L12.943 16.99C13.291 18.035 14.787 17.977 15.053 16.91L15.531 15H17C17.2652 15 17.5196 14.8946 17.7071 14.7071C17.8946 14.5196 18 14.2652 18 14C18 13.7348 17.8946 13.4804 17.7071 13.2929C17.5196 13.1054 17.2652 13 17 13H16.03L16.28 12H17C17.2652 12 17.5196 11.8946 17.7071 11.7071C17.8946 11.5196 18 11.2652 18 11C18 10.7348 17.8946 10.4804 17.7071 10.2929C17.5196 10.1054 17.2652 10 17 10H16.78L16.97 9.243C17.003 9.11526 17.0103 8.98227 16.9917 8.85167C16.973 8.72107 16.9287 8.59546 16.8613 8.48206C16.7939 8.36866 16.7047 8.26972 16.5989 8.19095C16.4931 8.11217 16.3727 8.05511 16.2447 8.02305C16.1168 7.99099 15.9837 7.98457 15.8533 8.00416C15.7228 8.02374 15.5975 8.06895 15.4846 8.13717C15.3717 8.20539 15.2734 8.29528 15.1954 8.40166C15.1173 8.50804 15.0611 8.62881 15.03 8.757L13.863 13.426L12.949 10.684C12.8828 10.4847 12.7555 10.3112 12.5851 10.1883C12.4148 10.0654 12.2101 9.99928 12 9.99928C11.7899 9.99928 11.5852 10.0654 11.4149 10.1883C11.2445 10.3112 11.1172 10.4847 11.051 10.684L10.137 13.426L8.97 8.757Z" fill="currentColor"/>
</svg>
