<svg width="24" height="24" viewBox="0 0 24 24" fill="none" xmlns="http://www.w3.org/2000/svg">
<path d="M7 6.5C6.60218 6.5 6.22064 6.34196 5.93934 6.06066C5.65804 5.77936 5.5 5.39782 5.5 5C5.5 4.60218 5.65804 4.22064 5.93934 3.93934C6.22064 3.65804 6.60218 3.5 7 3.5H18C18.3978 3.5 18.7794 3.65804 19.0607 3.93934C19.342 4.22064 19.5 4.60218 19.5 5C19.5 5.39782 19.342 5.77936 19.0607 6.06066C18.7794 6.34196 18.3978 6.5 18 6.5H14.478C14.8715 7.11402 15.1583 7.79025 15.326 8.5H18C18.3978 8.5 18.7794 8.65804 19.0607 8.93934C19.342 9.22064 19.5 9.60218 19.5 10C19.5 10.3978 19.342 10.7794 19.0607 11.0607C18.7794 11.342 18.3978 11.5 18 11.5H15.326C15.0741 12.558 14.5612 13.5361 13.8342 14.3451C13.1072 15.154 12.1892 15.768 11.164 16.131L14.872 18.779C15.0323 18.8935 15.1686 19.0385 15.2729 19.2056C15.3772 19.3728 15.4476 19.5589 15.48 19.7532C15.5124 19.9476 15.5062 20.1464 15.4618 20.3384C15.4173 20.5303 15.3355 20.7117 15.221 20.872C15.1065 21.0323 14.9615 21.1686 14.7944 21.2729C14.6272 21.3772 14.4411 21.4476 14.2468 21.48C14.0524 21.5124 13.8536 21.5062 13.6616 21.4618C13.4697 21.4173 13.2883 21.3355 13.128 21.221L6.147 16.234C5.95399 16.1021 5.79487 15.9265 5.68261 15.7214C5.57035 15.5163 5.50812 15.2877 5.501 15.054C5.48964 14.6826 5.61448 14.3198 5.852 14.034C6.144 13.687 6.563 13.494 7.02 13.5H9C9.66245 13.5001 10.3113 13.3123 10.8712 12.9582C11.4312 12.6042 11.8791 12.0985 12.163 11.5H7C6.60218 11.5 6.22064 11.342 5.93934 11.0607C5.65804 10.7794 5.5 10.3978 5.5 10C5.5 9.60218 5.65804 9.22064 5.93934 8.93934C6.22064 8.65804 6.60218 8.5 7 8.5H12.163C11.8791 7.90147 11.4312 7.3958 10.8712 7.04177C10.3113 6.68773 9.66245 6.49986 9 6.5H7Z" fill="currentColor"/>
</svg>
