<svg width="24" height="24" viewBox="0 0 24 24" fill="none" xmlns="http://www.w3.org/2000/svg">
<path d="M5.706 3.53001C6.0957 3.45226 6.50033 3.53232 6.83106 3.75262C7.16178 3.97291 7.39158 4.31545 7.47 4.70501L9.162 13.164L10.544 7.63501C10.6253 7.31067 10.8126 7.02279 11.0762 6.81709C11.3398 6.61139 11.6646 6.49967 11.999 6.49967C12.3334 6.49967 12.6582 6.61139 12.9218 6.81709C13.1854 7.02279 13.3727 7.31067 13.454 7.63501L14.836 13.164L16.528 4.70401C16.6062 4.31388 16.8363 3.9708 17.1674 3.75026C17.4986 3.52972 17.9039 3.44977 18.294 3.52801C18.6841 3.60625 19.0272 3.83627 19.2478 4.16746C19.4683 4.49864 19.5482 4.90388 19.47 5.29401L18.83 8.50001H19C19.3978 8.50001 19.7794 8.65805 20.0607 8.93935C20.342 9.22066 20.5 9.60219 20.5 10C20.5 10.3978 20.342 10.7794 20.0607 11.0607C19.7794 11.342 19.3978 11.5 19 11.5H18.23L18.03 12.5H19C19.3978 12.5 19.7794 12.658 20.0607 12.9394C20.342 13.2207 20.5 13.6022 20.5 14C20.5 14.3978 20.342 14.7794 20.0607 15.0607C19.7794 15.342 19.3978 15.5 19 15.5H17.43L16.645 19.422C16.29 21.2 13.769 21.26 13.329 19.501L12 14.185L10.67 19.5C10.231 21.26 7.71 21.2 7.355 19.421L6.57 15.5H5C4.60218 15.5 4.22064 15.342 3.93934 15.0607C3.65804 14.7794 3.5 14.3978 3.5 14C3.5 13.6022 3.65804 13.2207 3.93934 12.9394C4.22064 12.658 4.60218 12.5 5 12.5H5.97L5.77 11.5H5C4.60218 11.5 4.22064 11.342 3.93934 11.0607C3.65804 10.7794 3.5 10.3978 3.5 10C3.5 9.60219 3.65804 9.22066 3.93934 8.93935C4.22064 8.65805 4.60218 8.50001 5 8.50001H5.17L4.53 5.29401C4.45225 4.90431 4.53231 4.49968 4.7526 4.16896C4.9729 3.83823 5.31643 3.60843 5.706 3.53001Z" fill="currentColor"/>
</svg>
