<svg width="24" height="24" viewBox="0 0 24 24" fill="none" xmlns="http://www.w3.org/2000/svg">
<path d="M8.272 3.20501C8.1676 3.03797 8.03132 2.89312 7.87094 2.77875C7.71057 2.66438 7.52923 2.58271 7.33729 2.53842C7.14535 2.49412 6.94657 2.48807 6.75229 2.5206C6.55801 2.55313 6.37204 2.62361 6.205 2.72801C6.03796 2.83241 5.89312 2.96869 5.77875 3.12907C5.66437 3.28944 5.58271 3.47078 5.53841 3.66272C5.49412 3.85466 5.48807 4.05344 5.52059 4.24772C5.55312 4.442 5.6236 4.62797 5.728 4.79501L9.294 10.5H7C6.60218 10.5 6.22065 10.658 5.93934 10.9393C5.65804 11.2207 5.5 11.6022 5.5 12C5.5 12.3978 5.65804 12.7794 5.93934 13.0607C6.22065 13.342 6.60218 13.5 7 13.5H10.5V14.5H7C6.60218 14.5 6.22065 14.658 5.93934 14.9393C5.65804 15.2207 5.5 15.6022 5.5 16C5.5 16.3978 5.65804 16.7794 5.93934 17.0607C6.22065 17.342 6.60218 17.5 7 17.5H10.5V20C10.5 20.3978 10.658 20.7794 10.9393 21.0607C11.2206 21.342 11.6022 21.5 12 21.5C12.3978 21.5 12.7794 21.342 13.0607 21.0607C13.342 20.7794 13.5 20.3978 13.5 20V17.5H17C17.3978 17.5 17.7794 17.342 18.0607 17.0607C18.342 16.7794 18.5 16.3978 18.5 16C18.5 15.6022 18.342 15.2207 18.0607 14.9393C17.7794 14.658 17.3978 14.5 17 14.5H13.5V13.5H17C17.3978 13.5 17.7794 13.342 18.0607 13.0607C18.342 12.7794 18.5 12.3978 18.5 12C18.5 11.6022 18.342 11.2207 18.0607 10.9393C17.7794 10.658 17.3978 10.5 17 10.5H14.706L18.272 4.79501C18.4828 4.45765 18.551 4.05036 18.4616 3.66272C18.3721 3.27508 18.1324 2.93886 17.795 2.72801C17.4576 2.51716 17.0504 2.44896 16.6627 2.53842C16.2751 2.62787 15.9388 2.86765 15.728 3.20501L12 9.17001L8.272 3.20501Z" fill="currentColor"/>
</svg>
