<svg width="24" height="24" viewBox="0 0 24 24" fill="none" xmlns="http://www.w3.org/2000/svg">
<path fill-rule="evenodd" clip-rule="evenodd" d="M2 12C2 6.477 6.477 2 12 2C17.523 2 22 6.477 22 12C22 17.523 17.523 22 12 22C6.477 22 2 17.523 2 12ZM7 12C7 11.7348 7.10536 11.4804 7.29289 11.2929C7.48043 11.1054 7.73478 11 8 11H8.998L9 9.604C8.99937 8.84792 9.23654 8.1108 9.67794 7.49694C10.1193 6.88309 10.7426 6.4236 11.4596 6.18352C12.1765 5.94343 12.9508 5.9349 13.6729 6.15914C14.3949 6.38337 15.0282 6.82902 15.483 7.433L15.832 7.945C15.9747 8.15726 16.0306 8.41611 15.9883 8.66834C15.946 8.92057 15.8086 9.14699 15.6045 9.30106C15.4003 9.45512 15.1449 9.52512 14.8908 9.49665C14.6366 9.46818 14.403 9.34341 14.238 9.148C13.832 8.555 13.406 8 12.606 8C11.7 8 11.039 8.733 11 9.604V11H13C13.2652 11 13.5196 11.1054 13.7071 11.2929C13.8946 11.4804 14 11.7348 14 12C14 12.2652 13.8946 12.5196 13.7071 12.7071C13.5196 12.8946 13.2652 13 13 13H11V15C11 15.264 10.977 15.527 10.922 15.785C11.399 15.825 11.859 15.913 12.316 16.051C13.091 16.31 13.904 16.241 14.684 16.051C14.8086 16.0095 14.9402 15.993 15.0712 16.0023C15.2022 16.0117 15.3301 16.0467 15.4476 16.1055C15.5651 16.1643 15.6698 16.2456 15.7558 16.3449C15.8419 16.4441 15.9075 16.5594 15.949 16.684C15.9905 16.8086 16.007 16.9402 15.9977 17.0712C15.9883 17.2022 15.9533 17.3301 15.8945 17.4476C15.8357 17.5651 15.7544 17.6698 15.6551 17.7558C15.5559 17.8419 15.4406 17.9075 15.316 17.949C14.12 18.265 12.877 18.346 11.684 17.949C10.909 17.69 10.096 17.759 9.316 17.949C8.138 18.341 7.457 16.725 8.553 16.106C8.76 15.989 8.965 15.574 8.993 15.174L8.997 13H8C7.73478 13 7.48043 12.8946 7.29289 12.7071C7.10536 12.5196 7 12.2652 7 12Z" fill="currentColor"/>
</svg>
