<svg width="24" height="24" viewBox="0 0 24 24" fill="none" xmlns="http://www.w3.org/2000/svg">
<path fill-rule="evenodd" clip-rule="evenodd" d="M12 2C6.477 2 2 6.477 2 12C2 17.523 6.477 22 12 22C17.523 22 22 17.523 22 12C22 6.477 17.523 2 12 2ZM8 8C8 7.73478 8.10536 7.48043 8.29289 7.29289C8.48043 7.10536 8.73478 7 9 7H15C15.2652 7 15.5196 7.10536 15.7071 7.29289C15.8946 7.48043 16 7.73478 16 8C16 8.26522 15.8946 8.51957 15.7071 8.70711C15.5196 8.89464 15.2652 9 15 9H13.465C13.644 9.31 13.783 9.645 13.874 10H15C15.2652 10 15.5196 10.1054 15.7071 10.2929C15.8946 10.4804 16 10.7348 16 11C16 11.2652 15.8946 11.5196 15.7071 11.7071C15.5196 11.8946 15.2652 12 15 12H13.874C13.7204 12.5928 13.4331 13.1426 13.034 13.6072C12.635 14.0717 12.1349 14.4387 11.572 14.68L13.6 16.2C13.8122 16.3591 13.9524 16.596 13.9899 16.8586C14.0275 17.1211 13.9591 17.3878 13.8 17.6C13.6409 17.8122 13.404 17.9524 13.1414 17.99C12.8789 18.0275 12.6122 17.9591 12.4 17.8L8.408 14.806C8.28069 14.7139 8.17723 14.5927 8.10626 14.4525C8.03529 14.3123 7.99886 14.1571 8 14C8 13.743 8.103 13.496 8.27 13.317C8.36293 13.2163 8.47586 13.1361 8.60156 13.0815C8.72726 13.0269 8.86296 12.9992 9 13H10C10.3511 13 10.6959 12.9076 11 12.732C11.304 12.5565 11.5565 12.304 11.732 12H9C8.73478 12 8.48043 11.8946 8.29289 11.7071C8.10536 11.5196 8 11.2652 8 11C8 10.7348 8.10536 10.4804 8.29289 10.2929C8.48043 10.1054 8.73478 10 9 10H11.732C11.5565 9.69597 11.304 9.4435 11 9.26796C10.6959 9.09243 10.3511 9.00001 10 9H9C8.73478 9 8.48043 8.89464 8.29289 8.70711C8.10536 8.51957 8 8.26522 8 8Z" fill="currentColor"/>
</svg>
