<svg width="24" height="24" viewBox="0 0 24 24" fill="none" xmlns="http://www.w3.org/2000/svg">
<path d="M13.5 4C13.5 3.60218 13.342 3.22064 13.0607 2.93934C12.7794 2.65804 12.3978 2.5 12 2.5C11.6022 2.5 11.2206 2.65804 10.9393 2.93934C10.658 3.22064 10.5 3.60218 10.5 4V4.5H9.5C8.30653 4.5 7.16193 4.97411 6.31802 5.81802C5.47411 6.66193 5 7.80653 5 9C5 10.1935 5.47411 11.3381 6.31802 12.182C7.16193 13.0259 8.30653 13.5 9.5 13.5H14.5C14.8978 13.5 15.2794 13.658 15.5607 13.9393C15.842 14.2206 16 14.6022 16 15C16 15.3978 15.842 15.7794 15.5607 16.0607C15.2794 16.342 14.8978 16.5 14.5 16.5H7C6.60218 16.5 6.22064 16.658 5.93934 16.9393C5.65804 17.2206 5.5 17.6022 5.5 18C5.5 18.3978 5.65804 18.7794 5.93934 19.0607C6.22064 19.342 6.60218 19.5 7 19.5H10.5V20C10.5 20.3978 10.658 20.7794 10.9393 21.0607C11.2206 21.342 11.6022 21.5 12 21.5C12.3978 21.5 12.7794 21.342 13.0607 21.0607C13.342 20.7794 13.5 20.3978 13.5 20V19.5H14.5C15.6935 19.5 16.8381 19.0259 17.682 18.182C18.5259 17.3381 19 16.1935 19 15C19 13.8065 18.5259 12.6619 17.682 11.818C16.8381 10.9741 15.6935 10.5 14.5 10.5H9.5C9.10218 10.5 8.72064 10.342 8.43934 10.0607C8.15804 9.77936 8 9.39782 8 9C8 8.60218 8.15804 8.22064 8.43934 7.93934C8.72064 7.65804 9.10218 7.5 9.5 7.5H17C17.3978 7.5 17.7794 7.34196 18.0607 7.06066C18.342 6.77936 18.5 6.39782 18.5 6C18.5 5.60218 18.342 5.22064 18.0607 4.93934C17.7794 4.65804 17.3978 4.5 17 4.5H13.5V4Z" fill="currentColor"/>
</svg>
