<svg width="24" height="24" viewBox="0 0 24 24" fill="none" xmlns="http://www.w3.org/2000/svg">
<path fill-rule="evenodd" clip-rule="evenodd" d="M12 2C6.477 2 2 6.477 2 12C2 17.523 6.477 22 12 22C17.523 22 22 17.523 22 12C22 6.477 17.523 2 12 2ZM9.023 11.5C8.9916 11.8326 8.9916 12.1674 9.023 12.5H12C12.2652 12.5 12.5196 12.6054 12.7071 12.7929C12.8946 12.9804 13 13.2348 13 13.5C13 13.7652 12.8946 14.0196 12.7071 14.2071C12.5196 14.3946 12.2652 14.5 12 14.5H9.686C10.287 15.445 11.206 16 12.118 16C12.668 16 13.035 15.894 13.322 15.738C13.622 15.576 13.902 15.323 14.235 14.928C14.408 14.733 14.6503 14.6132 14.9103 14.5942C15.1703 14.5751 15.4274 14.6584 15.6269 14.8262C15.8264 14.994 15.9525 15.2331 15.9783 15.4925C16.0041 15.752 15.9275 16.0112 15.765 16.215C15.355 16.703 14.885 17.165 14.275 17.496C13.653 17.834 12.949 18 12.118 18C9.956 18 8.251 16.505 7.468 14.5H7C6.73478 14.5 6.48043 14.3946 6.29289 14.2071C6.10536 14.0196 6 13.7652 6 13.5C6 13.2348 6.10536 12.9804 6.29289 12.7929C6.48043 12.6054 6.73478 12.5 7 12.5H7.018C6.99389 12.1671 6.99389 11.8329 7.018 11.5H7C6.73478 11.5 6.48043 11.3946 6.29289 11.2071C6.10536 11.0196 6 10.7652 6 10.5C6 10.2348 6.10536 9.98043 6.29289 9.79289C6.48043 9.60536 6.73478 9.5 7 9.5H7.468C8.251 7.495 9.956 6 12.118 6C12.949 6 13.653 6.166 14.275 6.504C14.885 6.834 15.355 7.297 15.765 7.785C15.8536 7.8849 15.9213 8.00152 15.9641 8.128C16.0069 8.25448 16.0239 8.38825 16.0142 8.52141C16.0044 8.65458 15.9681 8.78445 15.9074 8.90336C15.8466 9.02226 15.7627 9.12781 15.6605 9.21376C15.5584 9.29971 15.44 9.36433 15.3125 9.4038C15.1849 9.44327 15.0507 9.4568 14.9179 9.44359C14.785 9.43038 14.6561 9.39069 14.5388 9.32687C14.4216 9.26305 14.3183 9.17639 14.235 9.072C13.902 8.677 13.621 8.424 13.322 8.262C13.035 8.106 12.669 8 12.118 8C11.206 8 10.288 8.554 9.686 9.5H12C12.2652 9.5 12.5196 9.60536 12.7071 9.79289C12.8946 9.98043 13 10.2348 13 10.5C13 10.7652 12.8946 11.0196 12.7071 11.2071C12.5196 11.3946 12.2652 11.5 12 11.5H9.023Z" fill="currentColor"/>
</svg>
