<svg width="24" height="24" viewBox="0 0 24 24" fill="none" xmlns="http://www.w3.org/2000/svg">
<path fill-rule="evenodd" clip-rule="evenodd" d="M10 2.5C9.33696 2.5 8.70107 2.76339 8.23223 3.23223C7.76339 3.70107 7.5 4.33696 7.5 5V10.5H6.5C6.10218 10.5 5.72064 10.658 5.43934 10.9393C5.15804 11.2206 5 11.6022 5 12C5 12.3978 5.15804 12.7794 5.43934 13.0607C5.72064 13.342 6.10218 13.5 6.5 13.5H7.5V14.5H6.5C6.10218 14.5 5.72064 14.658 5.43934 14.9393C5.15804 15.2206 5 15.6022 5 16C5 16.3978 5.15804 16.7794 5.43934 17.0607C5.72064 17.342 6.10218 17.5 6.5 17.5H7.5V20C7.5 20.3978 7.65804 20.7794 7.93934 21.0607C8.22064 21.342 8.60218 21.5 9 21.5C9.39782 21.5 9.77936 21.342 10.0607 21.0607C10.342 20.7794 10.5 20.3978 10.5 20V17.5H14C14.3978 17.5 14.7794 17.342 15.0607 17.0607C15.342 16.7794 15.5 16.3978 15.5 16C15.5 15.6022 15.342 15.2206 15.0607 14.9393C14.7794 14.658 14.3978 14.5 14 14.5H10.5V13.5H14C15.4587 13.5 16.8576 12.9205 17.8891 11.8891C18.9205 10.8576 19.5 9.45869 19.5 8C19.5 6.54131 18.9205 5.14236 17.8891 4.11091C16.8576 3.07946 15.4587 2.5 14 2.5H10ZM14 10.5H10.5V5.5H14C14.663 5.5 15.2989 5.76339 15.7678 6.23223C16.2366 6.70107 16.5 7.33696 16.5 8C16.5 8.66304 16.2366 9.29893 15.7678 9.76777C15.2989 10.2366 14.663 10.5 14 10.5Z" fill="currentColor"/>
</svg>
