<svg width="24" height="24" viewBox="0 0 24 24" fill="none" xmlns="http://www.w3.org/2000/svg">
<path d="M12 2C17.523 2 22 6.477 22 12C22 17.523 17.523 22 12 22C6.477 22 2 17.523 2 12C2 6.477 6.477 2 12 2ZM13.5 6H10C9.75507 6.00003 9.51866 6.08996 9.33563 6.25272C9.15259 6.41547 9.03566 6.63975 9.007 6.883L9 7V11H8.5C8.24512 11.0003 7.99997 11.0979 7.81463 11.2728C7.6293 11.4478 7.51777 11.687 7.50283 11.9414C7.48789 12.1958 7.57067 12.4464 7.73426 12.6418C7.89786 12.8373 8.1299 12.9629 8.383 12.993L8.5 13H9V14H8.5C8.24512 14.0003 7.99997 14.0979 7.81463 14.2728C7.6293 14.4478 7.51777 14.687 7.50283 14.9414C7.48789 15.1958 7.57067 15.4464 7.73426 15.6418C7.89786 15.8373 8.1299 15.9629 8.383 15.993L8.5 16H9V17C9.00028 17.2549 9.09788 17.5 9.27285 17.6854C9.44782 17.8707 9.68695 17.9822 9.94139 17.9972C10.1958 18.0121 10.4464 17.9293 10.6418 17.7657C10.8373 17.6021 10.9629 17.3701 10.993 17.117L11 17V16H13C13.2549 15.9997 13.5 15.9021 13.6854 15.7272C13.8707 15.5522 13.9822 15.313 13.9972 15.0586C14.0121 14.8042 13.9293 14.5536 13.7657 14.3582C13.6021 14.1627 13.3701 14.0371 13.117 14.007L13 14H11V13H13.5C14.4125 13.0013 15.2894 12.6462 15.9439 12.0104C16.5984 11.3745 16.9787 10.5082 17.0037 9.59604C17.0288 8.68388 16.6966 7.79801 16.078 7.12721C15.4593 6.45642 14.6032 6.05374 13.692 6.005L13.5 6ZM13.5 8C13.8852 8.00019 14.2556 8.14858 14.5344 8.41441C14.8132 8.68024 14.979 9.04314 14.9975 9.42791C15.016 9.81269 14.8858 10.1898 14.6338 10.4812C14.3818 10.7726 14.0274 10.9558 13.644 10.993L13.5 11H11V8H13.5Z" fill="currentColor"/>
</svg>
