<svg width="24" height="24" viewBox="0 0 24 24" fill="none" xmlns="http://www.w3.org/2000/svg">
<path fill-rule="evenodd" clip-rule="evenodd" d="M12 2.5C12.3978 2.5 12.7794 2.65804 13.0607 2.93934C13.342 3.22064 13.5 3.60218 13.5 4V4.5H14C14.8687 4.50002 15.7188 4.75147 16.4477 5.224C17.1766 5.69652 17.7532 6.36993 18.1078 7.16293C18.4625 7.95593 18.58 8.83462 18.4462 9.69294C18.3125 10.5513 17.9331 11.3525 17.354 12C17.9331 12.6475 18.3125 13.4487 18.4462 14.3071C18.58 15.1654 18.4625 16.0441 18.1078 16.8371C17.7532 17.6301 17.1766 18.3035 16.4477 18.776C15.7188 19.2485 14.8687 19.5 14 19.5H13.5V20C13.5 20.3978 13.342 20.7794 13.0607 21.0607C12.7794 21.342 12.3978 21.5 12 21.5C11.6022 21.5 11.2206 21.342 10.9393 21.0607C10.658 20.7794 10.5 20.3978 10.5 20V19.5H8.1C7.67565 19.5 7.26869 19.3314 6.96863 19.0314C6.66857 18.7313 6.5 18.3243 6.5 17.9V6.1C6.5 5.67565 6.66857 5.26869 6.96863 4.96863C7.26869 4.66857 7.67565 4.5 8.1 4.5H10.5V4C10.5 3.60218 10.658 3.22064 10.9393 2.93934C11.2206 2.65804 11.6022 2.5 12 2.5ZM9.5 13.5V16.5H14C14.3978 16.5 14.7794 16.342 15.0607 16.0607C15.342 15.7794 15.5 15.3978 15.5 15C15.5 14.6022 15.342 14.2206 15.0607 13.9393C14.7794 13.658 14.3978 13.5 14 13.5H9.5ZM9.5 10.5H14C14.3978 10.5 14.7794 10.342 15.0607 10.0607C15.342 9.77936 15.5 9.39782 15.5 9C15.5 8.60218 15.342 8.22064 15.0607 7.93934C14.7794 7.65804 14.3978 7.5 14 7.5H9.5V10.5Z" fill="currentColor"/>
</svg>
