<svg width="24" height="24" viewBox="0 0 24 24" fill="none" xmlns="http://www.w3.org/2000/svg">
<path d="M12 2C17.523 2 22 6.477 22 12C22 17.523 17.523 22 12 22C6.477 22 2 17.523 2 12C2 6.477 6.477 2 12 2ZM10 6H9.5C9.23478 6 8.98043 6.10536 8.79289 6.29289C8.60536 6.48043 8.5 6.73478 8.5 7V10H8C7.73478 10 7.48043 10.1054 7.29289 10.2929C7.10536 10.4804 7 10.7348 7 11C7 11.2652 7.10536 11.5196 7.29289 11.7071C7.48043 11.8946 7.73478 12 8 12H8.5V13H8C7.73478 13 7.48043 13.1054 7.29289 13.2929C7.10536 13.4804 7 13.7348 7 14C7 14.2652 7.10536 14.5196 7.29289 14.7071C7.48043 14.8946 7.73478 15 8 15H8.5V17C8.5 17.2652 8.60536 17.5196 8.79289 17.7071C8.98043 17.8946 9.23478 18 9.5 18C9.76522 18 10.0196 17.8946 10.2071 17.7071C10.3946 17.5196 10.5 17.2652 10.5 17V15H12.123L13.072 17.371C13.1461 17.5566 13.2742 17.7157 13.4396 17.8278C13.605 17.9399 13.8002 17.9999 14 18H14.5C14.7652 18 15.0196 17.8946 15.2071 17.7071C15.3946 17.5196 15.5 17.2652 15.5 17V15H16C16.2652 15 16.5196 14.8946 16.7071 14.7071C16.8946 14.5196 17 14.2652 17 14C17 13.7348 16.8946 13.4804 16.7071 13.2929C16.5196 13.1054 16.2652 13 16 13H15.5V12H16C16.2652 12 16.5196 11.8946 16.7071 11.7071C16.8946 11.5196 17 11.2652 17 11C17 10.7348 16.8946 10.4804 16.7071 10.2929C16.5196 10.1054 16.2652 10 16 10H15.5V7C15.5 6.73478 15.3946 6.48043 15.2071 6.29289C15.0196 6.10536 14.7652 6 14.5 6C14.2348 6 13.9804 6.10536 13.7929 6.29289C13.6054 6.48043 13.5 6.73478 13.5 7V10H12.277L10.929 6.629C10.8548 6.44328 10.7266 6.28407 10.561 6.17195C10.3954 6.05982 10.2 5.99993 10 6ZM13.5 12V13H13.477L13.077 12H13.5ZM10.923 12L11.323 13H10.5V12H10.923Z" fill="currentColor"/>
</svg>
