<svg width="24" height="24" viewBox="0 0 24 24" fill="none" xmlns="http://www.w3.org/2000/svg">
<path d="M19 3H5C4.46957 3 3.96086 3.21071 3.58579 3.58579C3.21071 3.96086 3 4.46957 3 5V19C3 19.5304 3.21071 20.0391 3.58579 20.4142C3.96086 20.7893 4.46957 21 5 21H7C7.14771 20.999 7.29336 20.9653 7.4265 20.9014C7.55964 20.8374 7.67695 20.7447 7.77 20.63C7.86776 20.5175 7.93914 20.3846 7.97894 20.241C8.01873 20.0974 8.02593 19.9467 8 19.8C8 19.8 7.73 18.42 7.47 16.8C7.21 15.18 7.06 14.2 7 13.43C8.13525 12.2737 8.96068 10.8498 9.4 9.29C9.79588 7.8943 9.99778 6.45076 10 5H14C14 6.91 14.4 10.88 17 13.43C16.88 15.53 16 19.76 16 19.8C15.9714 19.9453 15.9754 20.0951 16.0117 20.2386C16.048 20.3821 16.1157 20.5158 16.21 20.63C16.3052 20.7473 16.4257 20.8416 16.5625 20.9057C16.6994 20.9698 16.8489 21.002 17 21H19C19.5304 21 20.0391 20.7893 20.4142 20.4142C20.7893 20.0391 21 19.5304 21 19V5C21 4.46957 20.7893 3.96086 20.4142 3.58579C20.0391 3.21071 19.5304 3 19 3Z" fill="currentColor"/>
</svg>
