<svg width="24" height="24" viewBox="0 0 24 24" fill="none" xmlns="http://www.w3.org/2000/svg">
<path fill-rule="evenodd" clip-rule="evenodd" d="M5.746 6.146C6.528 6.434 7.691 6.692 9.109 6.846C9.35404 6.87287 9.58052 6.9893 9.74497 7.17294C9.90941 7.35658 10.0002 7.59449 10 7.841V15.067C11.3318 14.9767 12.6682 14.9767 14 15.067V7.833C13.9999 7.58743 14.0901 7.35041 14.2535 7.16709C14.4169 6.98378 14.642 6.86699 14.886 6.839C16.302 6.677 17.467 6.411 18.252 6.12C18.964 5.857 17.757 5.684 17.406 5.593C16.056 5.243 14.143 5 12 5C9.857 5 7.944 5.243 6.594 5.593C6.212 5.692 4.987 5.867 5.746 6.146ZM21 6V18C21 18.672 20.534 19.114 20.23 19.341C19.881 19.601 19.432 19.816 18.947 19.996C17.965 20.36 16.63 20.653 15.114 20.826C14.974 20.8421 14.8322 20.8284 14.6979 20.7858C14.5636 20.7432 14.4398 20.6728 14.3346 20.579C14.2294 20.4852 14.1452 20.3703 14.0876 20.2418C14.0299 20.1132 14.0001 19.9739 14 19.833V17.073C12.6684 16.9758 11.3316 16.9758 10 17.073V19.841C9.99999 19.9815 9.97038 20.1205 9.91307 20.2488C9.85577 20.3771 9.77208 20.4918 9.66744 20.5856C9.56281 20.6794 9.43958 20.7501 9.3058 20.7931C9.17201 20.836 9.03068 20.8503 8.891 20.835C7.377 20.669 6.041 20.386 5.055 20.023C4.568 19.844 4.114 19.627 3.762 19.358C3.44 19.113 3 18.664 3 18V6C3 5.56 3.2 5.212 3.407 4.972C3.612 4.736 3.871 4.549 4.127 4.4C4.643 4.102 5.327 3.855 6.092 3.657C7.638 3.257 9.725 3 12 3C14.275 3 16.362 3.257 17.908 3.657C18.673 3.855 19.357 4.102 19.872 4.4C20.13 4.549 20.388 4.736 20.593 4.972C20.801 5.212 21 5.56 21 6Z" fill="currentColor"/>
</svg>
