<svg width="24" height="24" viewBox="0 0 24 24" fill="none" xmlns="http://www.w3.org/2000/svg">
<path fill-rule="evenodd" clip-rule="evenodd" d="M17.5 12C18.0909 12 18.6761 12.1164 19.2221 12.3425C19.768 12.5687 20.2641 12.9002 20.682 13.318C21.0998 13.7359 21.4313 14.232 21.6575 14.7779C21.8836 15.3239 22 15.9091 22 16.5C22 17.0909 21.8836 17.6761 21.6575 18.2221C21.4313 18.768 21.0998 19.2641 20.682 19.682C20.2641 20.0998 19.768 20.4313 19.2221 20.6575C18.6761 20.8836 18.0909 21 17.5 21C16.3065 21 15.1619 20.5259 14.318 19.682C13.4741 18.8381 13 17.6935 13 16.5C13 15.3065 13.4741 14.1619 14.318 13.318C15.1619 12.4741 16.3065 12 17.5 12ZM18 3C18.7956 3 19.5587 3.31607 20.1213 3.87868C20.6839 4.44129 21 5.20435 21 6V10.437C19.7922 9.73903 18.4035 9.41781 17.0119 9.51457C15.6203 9.61132 14.2894 10.1216 13.1899 10.98C12.0903 11.8384 11.2723 13.0058 10.8408 14.3323C10.4093 15.6588 10.3839 17.084 10.768 18.425L8 20.5C7.176 21.118 6 20.53 6 19.5V18H5C4.20435 18 3.44129 17.6839 2.87868 17.1213C2.31607 16.5587 2 15.7956 2 15V6C2 5.20435 2.31607 4.44129 2.87868 3.87868C3.44129 3.31607 4.20435 3 5 3H18ZM15.172 15.586C14.9941 16.0389 14.9522 16.534 15.0515 17.0103C15.1508 17.4867 15.387 17.9238 15.7311 18.2679C16.0752 18.612 16.5123 18.8482 16.9887 18.9475C17.465 19.0468 17.9601 19.0049 18.413 18.827L15.172 15.586ZM17.5 14C17.178 14 16.87 14.061 16.586 14.172L19.828 17.414C19.9769 17.0349 20.0309 16.6251 19.9854 16.2203C19.9398 15.8156 19.796 15.4281 19.5666 15.0915C19.3371 14.755 19.0289 14.4797 18.6687 14.2894C18.3085 14.0992 17.9073 13.9998 17.5 14ZM9 12H3C2.73478 12 2.48043 12.1054 2.29289 12.2929C2.10536 12.4804 2 12.7348 2 13C2 13.2652 2.10536 13.5196 2.29289 13.7071C2.48043 13.8946 2.73478 14 3 14H9C9.26522 14 9.51957 13.8946 9.70711 13.7071C9.89464 13.5196 10 13.2652 10 13C10 12.7348 9.89464 12.4804 9.70711 12.2929C9.51957 12.1054 9.26522 12 9 12ZM7 7H5C4.74512 7.00028 4.49997 7.09788 4.31463 7.27285C4.1293 7.44782 4.01777 7.68695 4.00283 7.94139C3.98789 8.19584 4.07067 8.44638 4.23426 8.64183C4.39786 8.83729 4.6299 8.9629 4.883 8.993L5 9H7C7.25488 8.99972 7.50003 8.90212 7.68537 8.72715C7.8707 8.55218 7.98223 8.31305 7.99717 8.05861C8.01211 7.80416 7.92933 7.55362 7.76574 7.35817C7.60214 7.16271 7.3701 7.0371 7.117 7.007L7 7ZM19 7H11C10.7451 7.00028 10.5 7.09788 10.3146 7.27285C10.1293 7.44782 10.0178 7.68695 10.0028 7.94139C9.98789 8.19584 10.0707 8.44638 10.2343 8.64183C10.3979 8.83729 10.6299 8.9629 10.883 8.993L11 9H19C19.2549 8.99972 19.5 8.90212 19.6854 8.72715C19.8707 8.55218 19.9822 8.31305 19.9972 8.05861C20.0121 7.80416 19.9293 7.55362 19.7657 7.35817C19.6021 7.16271 19.3701 7.0371 19.117 7.007L19 7Z" fill="currentColor"/>
</svg>
