<svg width="24" height="24" viewBox="0 0 24 24" fill="none" xmlns="http://www.w3.org/2000/svg">
<path fill-rule="evenodd" clip-rule="evenodd" d="M18 3C18.7652 2.99996 19.5015 3.29233 20.0583 3.81728C20.615 4.34224 20.9501 5.06011 20.995 5.824L21 6V9.762C20.4685 9.65054 19.9184 9.66434 19.3932 9.80233C18.8679 9.94032 18.3821 10.1987 17.974 10.557L17.807 10.713L15.686 12.834C15.0418 12.191 14.1724 11.8243 13.2622 11.8116C12.3521 11.799 11.4729 12.1413 10.811 12.7662C10.1491 13.391 9.75664 14.2491 9.71688 15.1584C9.67712 16.0677 9.99317 16.9568 10.598 17.637L10.739 17.787L11.116 18.163L8 20.5C7.209 21.093 6.094 20.575 6.006 19.621L6 19.5V18H5C4.23479 18 3.49849 17.7077 2.94174 17.1827C2.38499 16.6578 2.04989 15.9399 2.005 15.176L2 15V6C1.99996 5.23479 2.29233 4.49849 2.81728 3.94174C3.34224 3.38499 4.06011 3.04989 4.824 3.005L5 3H18ZM19.575 12.48C19.755 12.3007 19.9964 12.1965 20.2504 12.1888C20.5043 12.181 20.7517 12.2702 20.9423 12.4382C21.1328 12.6063 21.2523 12.8406 21.2764 13.0935C21.3005 13.3464 21.2274 13.599 21.072 13.8L20.989 13.895L16.393 18.491C16.2208 18.6632 15.9917 18.7666 15.7487 18.7819C15.5057 18.7972 15.2654 18.7233 15.073 18.574L14.979 18.491L12.507 16.019C12.3277 15.839 12.2235 15.5976 12.2158 15.3436C12.208 15.0897 12.2972 14.8423 12.4652 14.6517C12.6333 14.4612 12.8676 14.3417 13.1205 14.3176C13.3734 14.2935 13.626 14.3666 13.827 14.522L13.921 14.605L15.686 16.37L19.575 12.48ZM9 12H3C2.74512 12.0003 2.49997 12.0979 2.31463 12.2728C2.1293 12.4478 2.01777 12.687 2.00283 12.9414C1.98789 13.1958 2.07067 13.4464 2.23426 13.6418C2.39786 13.8373 2.6299 13.9629 2.883 13.993L3 14H9C9.25488 13.9997 9.50003 13.9021 9.68537 13.7272C9.8707 13.5522 9.98224 13.313 9.99717 13.0586C10.0121 12.8042 9.92933 12.5536 9.76574 12.3582C9.60215 12.1627 9.3701 12.0371 9.117 12.007L9 12ZM7 7H5C4.73478 7 4.48043 7.10536 4.29289 7.29289C4.10536 7.48043 4 7.73478 4 8C4 8.26522 4.10536 8.51957 4.29289 8.70711C4.48043 8.89464 4.73478 9 5 9H7C7.26522 9 7.51957 8.89464 7.70711 8.70711C7.89464 8.51957 8 8.26522 8 8C8 7.73478 7.89464 7.48043 7.70711 7.29289C7.51957 7.10536 7.26522 7 7 7ZM19 7H11C10.7348 7 10.4804 7.10536 10.2929 7.29289C10.1054 7.48043 10 7.73478 10 8C10 8.26522 10.1054 8.51957 10.2929 8.70711C10.4804 8.89464 10.7348 9 11 9H19C19.2652 9 19.5196 8.89464 19.7071 8.70711C19.8946 8.51957 20 8.26522 20 8C20 7.73478 19.8946 7.48043 19.7071 7.29289C19.5196 7.10536 19.2652 7 19 7Z" fill="currentColor"/>
</svg>
