<svg width="24" height="24" viewBox="0 0 24 24" fill="none" xmlns="http://www.w3.org/2000/svg">
<path fill-rule="evenodd" clip-rule="evenodd" d="M12 2.00001C14.3079 1.99657 16.5453 2.7947 18.33 4.25801L13.293 9.29201C12.6629 8.99079 11.9475 8.91882 11.2701 9.08851C10.5927 9.25819 9.99567 9.6589 9.582 10.2216C9.16832 10.7842 8.9639 11.4736 9.00398 12.1708C9.04405 12.868 9.32611 13.5294 9.80153 14.0409C10.2769 14.5524 10.9159 14.8821 11.6083 14.9731C12.3008 15.064 13.0032 14.9105 13.5946 14.5391C14.186 14.1677 14.6293 13.6016 14.848 12.9384C15.0668 12.2752 15.0473 11.5564 14.793 10.906L14.708 10.706L19.742 5.67001C21.2054 7.45464 22.0035 9.69212 22 12C22 17.523 17.523 22 12 22C6.477 22 2 17.523 2 12C2 6.47701 6.477 2.00001 12 2.00001ZM5 11H4.062C3.993 11.554 3.9816 12.1137 4.028 12.67L4.062 13H5C5.25488 12.9997 5.50003 12.9021 5.68537 12.7272C5.8707 12.5522 5.98223 12.3131 5.99717 12.0586C6.01211 11.8042 5.92933 11.5536 5.76574 11.3582C5.60214 11.1627 5.3701 11.0371 5.117 11.007L5 11ZM19.938 11H19C18.7451 11.0003 18.5 11.0979 18.3146 11.2729C18.1293 11.4478 18.0178 11.687 18.0028 11.9414C17.9879 12.1958 18.0707 12.4464 18.2343 12.6418C18.3979 12.8373 18.6299 12.9629 18.883 12.993L19 13H19.938C20.0071 12.446 20.0185 11.8864 19.972 11.33L19.938 11ZM12 11C12.2652 11 12.5196 11.1054 12.7071 11.2929C12.8946 11.4804 13 11.7348 13 12C13 12.2652 12.8946 12.5196 12.7071 12.7071C12.5196 12.8947 12.2652 13 12 13C11.7348 13 11.4804 12.8947 11.2929 12.7071C11.1054 12.5196 11 12.2652 11 12C11 11.7348 11.1054 11.4804 11.2929 11.2929C11.4804 11.1054 11.7348 11 12 11ZM7.094 5.68001C6.67159 6.00853 6.283 6.37836 5.934 6.78401L5.68 7.09401L6.343 7.75701C6.52254 7.93827 6.76457 8.04404 7.01955 8.05269C7.27453 8.06134 7.52317 7.97221 7.71458 7.80355C7.90599 7.63488 8.0257 7.39943 8.0492 7.14539C8.07271 6.89135 7.99822 6.63793 7.841 6.43701L7.757 6.34301L7.094 5.68001ZM12 4.00001C11.6657 3.99989 11.3317 4.0206 11 4.06201V5.00001C11 5.26523 11.1054 5.51958 11.2929 5.70712C11.4804 5.89465 11.7348 6.00001 12 6.00001C12.2652 6.00001 12.5196 5.89465 12.7071 5.70712C12.8946 5.51958 13 5.26523 13 5.00001V4.06201C12.6683 4.02068 12.3343 3.99997 12 4.00001Z" fill="currentColor"/>
</svg>
