<svg width="24" height="24" viewBox="0 0 24 24" fill="none" xmlns="http://www.w3.org/2000/svg">
<path fill-rule="evenodd" clip-rule="evenodd" d="M12.9998 2.04999C15.2948 2.28118 17.4394 3.29841 19.0704 4.92942C20.7014 6.56044 21.7186 8.705 21.9498 11H19.9998C19.7346 11 19.4802 11.1053 19.2927 11.2929C19.1052 11.4804 18.9998 11.7348 18.9998 12C18.9998 12.2652 19.1052 12.5196 19.2927 12.7071C19.4802 12.8946 19.7346 13 19.9998 13H21.9498C21.4488 18.053 17.1848 22 11.9998 22C6.8148 22 2.5508 18.053 2.0498 13H3.9998C4.26502 13 4.51937 12.8946 4.70691 12.7071C4.89445 12.5196 4.9998 12.2652 4.9998 12C4.9998 11.7348 4.89445 11.4804 4.70691 11.2929C4.51937 11.1053 4.26502 11 3.9998 11H2.0498C2.281 8.705 3.29823 6.56044 4.92924 4.92942C6.56025 3.29841 8.70482 2.28118 10.9998 2.04999V3.99999C10.9998 4.2652 11.1052 4.51956 11.2927 4.70709C11.4802 4.89463 11.7346 4.99999 11.9998 4.99999C12.265 4.99999 12.5194 4.89463 12.7069 4.70709C12.8944 4.51956 12.9998 4.2652 12.9998 3.99999V2.04999ZM17.7798 6.21999L12.9368 8.68499L12.5638 8.88199L11.9538 9.19199C11.2338 9.56199 10.4998 9.96399 9.9488 10.515C8.9778 11.487 8.8598 13.103 9.8788 14.121C10.8968 15.14 12.5128 15.022 13.4848 14.051C13.9568 13.579 14.3198 12.973 14.6468 12.355L15.1178 11.436L15.4798 10.738L17.7798 6.21999ZM13.1618 10.838L13.0498 11.048L12.9368 11.264C12.7278 11.666 12.5108 12.086 12.2388 12.436L12.0708 12.636C11.7928 12.914 11.4458 12.86 11.2928 12.707C11.1548 12.569 11.0968 12.275 11.2898 12.015L11.3628 11.93C11.6818 11.636 12.0868 11.404 12.4928 11.19L12.7358 11.063C12.8818 10.988 13.0258 10.913 13.1618 10.838Z" fill="currentColor"/>
</svg>
