<svg width="24" height="24" viewBox="0 0 24 24" fill="none" xmlns="http://www.w3.org/2000/svg">
<path d="M4 2.5C4.39782 2.5 4.77936 2.65804 5.06066 2.93934C5.34196 3.22064 5.5 3.60218 5.5 4C5.5 4.64 5.706 5.338 6.067 6.049C6.31381 5.64655 6.60643 5.27407 6.939 4.939C7.22039 4.65761 7.60205 4.49952 8 4.49952C8.19705 4.49952 8.39216 4.53833 8.57421 4.61374C8.75626 4.68914 8.92167 4.79967 9.061 4.939C9.20033 5.07833 9.31086 5.24374 9.38626 5.42579C9.46167 5.60784 9.50048 5.80295 9.50048 6C9.50048 6.19705 9.46167 6.39216 9.38626 6.57421C9.31086 6.75626 9.20033 6.92167 9.061 7.061C8.573 7.549 8.301 8.179 8.124 8.749C8.322 8.94 8.514 9.113 8.694 9.266C9.72264 8.76042 10.8538 8.49832 12 8.5C13.1458 8.49847 14.2767 8.76057 15.305 9.266C15.485 9.113 15.678 8.94 15.875 8.749C15.698 8.179 15.427 7.549 14.939 7.061C14.7997 6.92167 14.6891 6.75626 14.6137 6.57421C14.5383 6.39216 14.4995 6.19705 14.4995 6C14.4995 5.60205 14.6576 5.22039 14.939 4.939C15.2204 4.65761 15.602 4.49952 16 4.49952C16.398 4.49952 16.7796 4.65761 17.061 4.939C17.411 5.29 17.698 5.669 17.933 6.049C18.294 5.338 18.5 4.639 18.5 4C18.5 3.60218 18.658 3.22064 18.9393 2.93934C19.2206 2.65804 19.6022 2.5 20 2.5C20.3978 2.5 20.7794 2.65804 21.0607 2.93934C21.342 3.22064 21.5 3.60218 21.5 4C21.5 5.972 20.533 7.79 19.512 9.15C18.9725 9.86561 18.3701 10.5316 17.712 11.14C18.8684 12.495 19.5025 14.2186 19.5 16C19.5 17.92 18.777 19.674 17.59 21C17.4602 21.152 17.3013 21.2765 17.1226 21.3662C16.944 21.4559 16.7493 21.509 16.5498 21.5224C16.3504 21.5358 16.1503 21.5091 15.9613 21.4441C15.7723 21.379 15.5982 21.2768 15.4492 21.1435C15.3002 21.0102 15.1794 20.8485 15.0939 20.6679C15.0083 20.4872 14.9597 20.2913 14.9509 20.0916C14.9421 19.8919 14.9734 19.6925 15.0428 19.505C15.1121 19.3175 15.2183 19.1458 15.355 19C15.934 18.3525 16.3132 17.5512 16.4469 16.6929C16.5806 15.8346 16.463 14.956 16.1083 14.1631C15.7536 13.3701 15.177 12.6968 14.4481 12.2243C13.7192 11.7519 12.8691 11.5004 12.0005 11.5004C11.1319 11.5004 10.2818 11.7519 9.55287 12.2243C8.82396 12.6968 8.24738 13.3701 7.8927 14.1631C7.53803 14.956 7.42043 15.8346 7.5541 16.6929C7.68777 17.5512 8.06699 18.3525 8.646 19C8.90849 19.2969 9.04281 19.6857 9.01962 20.0813C8.99642 20.4769 8.8176 20.8473 8.52221 21.1115C8.22681 21.3757 7.83886 21.5123 7.4431 21.4914C7.04734 21.4705 6.67593 21.2938 6.41 21C5.17825 19.6261 4.49797 17.8452 4.5 16C4.49717 14.2188 5.13094 12.4951 6.287 11.14C5.62895 10.5316 5.02655 9.8656 4.487 9.15C3.468 7.79 2.5 5.972 2.5 4C2.5 3.60218 2.65804 3.22064 2.93934 2.93934C3.22064 2.65804 3.60218 2.5 4 2.5Z" fill="currentColor"/>
</svg>
