<svg width="24" height="24" viewBox="0 0 24 24" fill="none" xmlns="http://www.w3.org/2000/svg">
<path fill-rule="evenodd" clip-rule="evenodd" d="M8.10769 3C7.59887 3 7.09842 3.12941 6.65338 3.37607C6.20835 3.62273 5.83336 3.97852 5.56369 4.41L1.48369 10.94C1.28503 11.2579 1.17969 11.6252 1.17969 12C1.17969 12.3748 1.28503 12.7421 1.48369 13.06L5.56369 19.59C5.83336 20.0215 6.20835 20.3773 6.65338 20.6239C7.09842 20.8706 7.59887 21 8.10769 21H18.9997C19.7953 21 20.5584 20.6839 21.121 20.1213C21.6836 19.5587 21.9997 18.7956 21.9997 18V6C21.9997 5.20435 21.6836 4.44129 21.121 3.87868C20.5584 3.31607 19.7953 3 18.9997 3H8.10769ZM16.5347 15.536C16.3472 15.7235 16.0929 15.8288 15.8277 15.8288C15.5625 15.8288 15.3082 15.7235 15.1207 15.536L12.9997 13.414L10.8787 15.536C10.6911 15.7236 10.4366 15.8291 10.1712 15.8291C9.90583 15.8291 9.65133 15.7236 9.46369 15.536C9.27605 15.3484 9.17064 15.0939 9.17064 14.8285C9.17064 14.5631 9.27605 14.3086 9.46369 14.121L11.5857 12L9.46369 9.879C9.27605 9.69136 9.17064 9.43686 9.17064 9.1715C9.17064 8.90614 9.27605 8.65164 9.46369 8.464C9.65133 8.27636 9.90583 8.17094 10.1712 8.17094C10.4366 8.17094 10.6911 8.27636 10.8787 8.464L12.9997 10.586L15.1207 8.464C15.2136 8.37116 15.3239 8.29752 15.4453 8.2473C15.5666 8.19708 15.6967 8.17125 15.828 8.1713C15.9594 8.17134 16.0894 8.19726 16.2108 8.24757C16.3321 8.29788 16.4423 8.37159 16.5352 8.4645C16.628 8.55741 16.7017 8.6677 16.7519 8.78907C16.8021 8.91043 16.8279 9.04051 16.8279 9.17185C16.8278 9.3032 16.8019 9.43326 16.7516 9.55459C16.7013 9.67592 16.6276 9.78616 16.5347 9.879L14.4147 12L16.5347 14.121C16.6277 14.2139 16.7014 14.3242 16.7518 14.4456C16.8021 14.567 16.828 14.6971 16.828 14.8285C16.828 14.9599 16.8021 15.09 16.7518 15.2114C16.7014 15.3328 16.6277 15.4431 16.5347 15.536Z" fill="currentColor"/>
</svg>
