<svg width="24" height="24" viewBox="0 0 24 24" fill="none" xmlns="http://www.w3.org/2000/svg">
<path d="M12 3C11.2916 2.99895 10.6056 3.24866 10.0636 3.70493C9.52155 4.16119 9.15852 4.79455 9.03874 5.49283C8.91897 6.19111 9.05019 6.90925 9.40916 7.52005C9.76814 8.13085 10.3317 8.5949 11 8.83V11H8.00003C7.20438 11 6.44132 11.3161 5.87871 11.8787C5.3161 12.4413 5.00003 13.2044 5.00003 14V15.17C4.33254 15.4059 3.76994 15.8702 3.41167 16.4808C3.0534 17.0914 2.92254 17.809 3.04222 18.5068C3.16189 19.2046 3.5244 19.8375 4.06566 20.2939C4.60692 20.7502 5.29208 21.0005 6.00003 21.0005C6.70798 21.0005 7.39314 20.7502 7.9344 20.2939C8.47566 19.8375 8.83817 19.2046 8.95784 18.5068C9.07752 17.809 8.94666 17.0914 8.58839 16.4808C8.23012 15.8702 7.66752 15.4059 7.00003 15.17V14C7.00003 13.7348 7.10539 13.4804 7.29292 13.2929C7.48046 13.1054 7.73481 13 8.00003 13H16C16.2652 13 16.5196 13.1054 16.7071 13.2929C16.8947 13.4804 17 13.7348 17 14V15.17C16.3325 15.4059 15.7699 15.8702 15.4117 16.4808C15.0534 17.0914 14.9225 17.809 15.0422 18.5068C15.1619 19.2046 15.5244 19.8375 16.0657 20.2939C16.6069 20.7502 17.2921 21.0005 18 21.0005C18.708 21.0005 19.3931 20.7502 19.9344 20.2939C20.4757 19.8375 20.8382 19.2046 20.9578 18.5068C21.0775 17.809 20.9467 17.0914 20.5884 16.4808C20.2301 15.8702 19.6675 15.4059 19 15.17V14C19 13.2044 18.684 12.4413 18.1214 11.8787C17.5587 11.3161 16.7957 11 16 11H13V8.83C13.6672 8.59385 14.2294 8.12952 14.5874 7.51904C14.9454 6.90855 15.0761 6.19118 14.9565 5.49366C14.8368 4.79614 14.4745 4.16334 13.9335 3.70705C13.3926 3.25076 12.7077 3.00033 12 3Z" fill="currentColor"/>
</svg>
