<svg width="24" height="24" viewBox="0 0 24 24" fill="none" xmlns="http://www.w3.org/2000/svg">
<path fill-rule="evenodd" clip-rule="evenodd" d="M19.8301 4.82899C19.8751 4.99837 19.8747 5.17657 19.8291 5.34576C19.7834 5.51495 19.6941 5.66917 19.5701 5.79299L17.8041 7.55999C18.3591 8.12421 18.6687 8.88487 18.6653 9.67628C18.662 10.4677 18.3461 11.2257 17.7864 11.7853C17.2268 12.3448 16.4686 12.6606 15.6772 12.6637C14.8858 12.6668 14.1252 12.3571 13.5611 11.802L11.7941 13.57C11.6703 13.6939 11.5161 13.7831 11.3469 13.8286C11.1777 13.8741 10.9996 13.8744 10.8303 13.8295C10.661 13.7845 10.5064 13.6959 10.3822 13.5724C10.2579 13.4489 10.1682 13.295 10.1221 13.126L9.08514 9.32899L6.28714 12.127L11.5351 20H14.0001C14.2654 20 14.5197 20.1053 14.7073 20.2929C14.8948 20.4804 15.0001 20.7348 15.0001 21C15.0001 21.2652 14.8948 21.5196 14.7073 21.7071C14.5197 21.8946 14.2654 22 14.0001 22H8.00014C7.73493 22 7.48057 21.8946 7.29304 21.7071C7.1055 21.5196 7.00014 21.2652 7.00014 21C7.00014 20.7348 7.1055 20.4804 7.29304 20.2929C7.48057 20.1053 7.73493 20 8.00014 20H9.13014L4.62214 13.237C4.36559 12.8522 4.25029 12.3905 4.29588 11.9303C4.34146 11.4701 4.5451 11.0399 4.87214 10.713L8.47814 7.10699L7.99814 5.34899C7.95184 5.17891 7.95132 4.99962 7.99663 4.82928C8.04194 4.65893 8.13147 4.50359 8.25614 4.37899L10.3781 2.25699C10.5028 2.13249 10.6582 2.04314 10.8286 1.99801C10.9989 1.95288 11.1782 1.95356 11.3481 1.99999L19.1261 4.11999C19.2952 4.16621 19.4491 4.25604 19.5725 4.38047C19.6958 4.50491 19.7854 4.65958 19.8301 4.82899ZM14.9741 10.389C15.1627 10.5711 15.4153 10.6719 15.6775 10.6697C15.9397 10.6674 16.1906 10.5622 16.376 10.3768C16.5614 10.1914 16.6665 9.94059 16.6688 9.67839C16.6711 9.41619 16.5703 9.16359 16.3881 8.97499L14.9741 10.389Z" fill="currentColor"/>
</svg>
