<svg width="24" height="24" viewBox="0 0 24 24" fill="none" xmlns="http://www.w3.org/2000/svg">
<path d="M15.2798 2C15.6722 2.00015 16.0558 2.11571 16.383 2.33228C16.7101 2.54886 16.9664 2.85688 17.1198 3.218L17.1758 3.368L20.7288 14.026C20.8003 14.2409 20.8223 14.4691 20.793 14.6937C20.7638 14.9182 20.684 15.1333 20.5598 15.3226C20.4356 15.5119 20.2701 15.6707 20.0758 15.787C19.8815 15.9033 19.6634 15.974 19.4378 15.994L19.3058 16H12.9998V20H15.9998C16.2547 20.0003 16.4998 20.0979 16.6852 20.2728C16.8705 20.4478 16.982 20.687 16.997 20.9414C17.0119 21.1958 16.9291 21.4464 16.7655 21.6418C16.6019 21.8373 16.3699 21.9629 16.1168 21.993L15.9998 22H7.9998C7.74492 21.9997 7.49976 21.9021 7.31443 21.7272C7.12909 21.5522 7.01756 21.313 7.00263 21.0586C6.98769 20.8042 7.07047 20.5536 7.23406 20.3582C7.39765 20.1627 7.6297 20.0371 7.8828 20.007L7.9998 20H10.9998V16H4.6938C4.46714 16.0001 4.2434 15.9489 4.03938 15.8502C3.83537 15.7514 3.65638 15.6077 3.51587 15.4299C3.37536 15.252 3.27699 15.0447 3.22813 14.8233C3.17928 14.602 3.18121 14.3725 3.2338 14.152L3.2708 14.026L6.8228 3.368C6.94674 2.99558 7.17752 2.66786 7.48639 2.42567C7.79526 2.18348 8.16857 2.03753 8.5598 2.006L8.7198 2H15.2798ZM15.9998 16C16.265 16 16.5194 16.1054 16.7069 16.2929C16.8944 16.4804 16.9998 16.7348 16.9998 17C16.9998 17.2652 16.8944 17.5196 16.7069 17.7071C16.5194 17.8946 16.265 18 15.9998 18C15.7346 18 15.4802 17.8946 15.2927 17.7071C15.1052 17.5196 14.9998 17.2652 14.9998 17C14.9998 16.7348 15.1052 16.4804 15.2927 16.2929C15.4802 16.1054 15.7346 16 15.9998 16Z" fill="currentColor"/>
</svg>
