<svg width="24" height="24" viewBox="0 0 24 24" fill="none" xmlns="http://www.w3.org/2000/svg">
<path fill-rule="evenodd" clip-rule="evenodd" d="M6.80248 2.02C6.9514 1.98975 7.10527 1.99384 7.25238 2.03196C7.39949 2.07008 7.53598 2.14123 7.65148 2.24L17.4025 10.599C17.8016 10.9411 18.05 11.4265 18.094 11.9503C18.138 12.4741 17.974 12.9942 17.6375 13.398L16.5775 14.67L17.4475 15.106C17.6017 15.1831 17.7333 15.2988 17.8296 15.4418C17.9259 15.5848 17.9836 15.7503 17.9971 15.9221C18.0105 16.094 17.9794 16.2664 17.9065 16.4227C17.8337 16.579 17.7217 16.7138 17.5815 16.814L10.5815 21.814C10.4118 21.9352 10.2084 22.0003 9.99991 22.0002C9.79139 22.0001 9.58811 21.9348 9.41851 21.8135C9.24892 21.6922 9.12149 21.5209 9.05407 21.3235C8.98664 21.1262 8.98259 20.9127 9.04248 20.713L10.2525 16.679C7.88948 15.779 6.50548 13.624 6.01948 11.196C5.9903 11.0501 5.99406 10.8995 6.03049 10.7552C6.06692 10.6109 6.1351 10.4765 6.23006 10.3619C6.32501 10.2473 6.44435 10.1554 6.57936 10.0927C6.71437 10.0301 6.86166 9.99845 7.01048 10C6.53648 9.297 6.15048 8.58 5.87648 7.851C5.22748 6.121 5.21848 4.328 6.10648 2.553C6.17439 2.41713 6.27236 2.29852 6.39296 2.20617C6.51355 2.11381 6.6536 2.05015 6.80248 2.02Z" fill="currentColor"/>
</svg>
