<svg width="24" height="24" viewBox="0 0 24 24" fill="none" xmlns="http://www.w3.org/2000/svg">
<path d="M19.7075 2.293C19.895 2.48053 20.0003 2.73484 20.0003 3C20.0003 3.26517 19.895 3.51948 19.7075 3.707L15.4145 8H19.9385C20.1822 8.00007 20.4175 8.08913 20.6001 8.25043C20.7828 8.41174 20.9003 8.63419 20.9305 8.87601C21.1734 10.8057 20.7848 12.7621 19.8229 14.4525C18.861 16.1428 17.3775 17.4762 15.5945 18.253L15.9705 19.758C16.0072 19.9054 16.0099 20.0592 15.9784 20.2078C15.9468 20.3564 15.8818 20.4958 15.7883 20.6155C15.6948 20.7352 15.5753 20.8321 15.4388 20.8987C15.3023 20.9653 15.1524 21 15.0005 21H9.00049C8.84859 21 8.6987 20.9653 8.56219 20.8987C8.42568 20.8321 8.30614 20.7352 8.21264 20.6155C8.11915 20.4958 8.05415 20.3564 8.02259 20.2078C7.99103 20.0592 7.99373 19.9054 8.03049 19.758L8.40649 18.253C6.62347 17.4762 5.13999 16.1428 4.17809 14.4525C3.21619 12.7621 2.8276 10.8057 3.07049 8.87601C3.10071 8.63419 3.21818 8.41174 3.40085 8.25043C3.58351 8.08913 3.81879 8.00007 4.06249 8H7.58649L13.2935 2.293C13.3857 2.19749 13.4961 2.12131 13.6181 2.0689C13.7401 2.01649 13.8713 1.98891 14.0041 1.98775C14.1369 1.9866 14.2685 2.0119 14.3914 2.06218C14.5143 2.11246 14.626 2.18672 14.7199 2.28061C14.8138 2.3745 14.888 2.48615 14.9383 2.60905C14.9886 2.73195 15.0139 2.86363 15.0127 2.99641C15.0116 3.12919 14.984 3.26041 14.9316 3.38241C14.8792 3.50441 14.803 3.61476 14.7075 3.707L10.4145 8H12.5865L18.2935 2.293C18.481 2.10553 18.7353 2.00022 19.0005 2.00022C19.2657 2.00022 19.52 2.10553 19.7075 2.293Z" fill="currentColor"/>
</svg>
