<svg width="24" height="24" viewBox="0 0 24 24" fill="none" xmlns="http://www.w3.org/2000/svg">
<path d="M12.9998 3C12.9998 2.73478 12.8944 2.48043 12.7069 2.29289C12.5194 2.10536 12.265 2 11.9998 2C11.7346 2 11.4802 2.10536 11.2927 2.29289C11.1051 2.48043 10.9998 2.73478 10.9998 3V4H9.99979C9.46935 4 8.96065 4.21071 8.58557 4.58579C8.2105 4.96086 7.99979 5.46957 7.99979 6V8C7.99979 8.53043 8.2105 9.03914 8.58557 9.41421C8.96065 9.78929 9.46935 10 9.99979 10H10.9998V11H7.41379C6.8834 11.0001 6.37477 11.2109 5.99979 11.586L4.29279 13.293C4.10532 13.4805 4 13.7348 4 14C4 14.2652 4.10532 14.5195 4.29279 14.707L5.99979 16.414C6.37477 16.7891 6.8834 16.9999 7.41379 17H10.9998V20H8.99979C8.73457 20 8.48022 20.1054 8.29268 20.2929C8.10514 20.4804 7.99979 20.7348 7.99979 21C7.99979 21.2652 8.10514 21.5196 8.29268 21.7071C8.48022 21.8946 8.73457 22 8.99979 22H14.9998C15.265 22 15.5194 21.8946 15.7069 21.7071C15.8944 21.5196 15.9998 21.2652 15.9998 21C15.9998 20.7348 15.8944 20.4804 15.7069 20.2929C15.5194 20.1054 15.265 20 14.9998 20H12.9998V17H13.9998C14.5302 17 15.0389 16.7893 15.414 16.4142C15.7891 16.0391 15.9998 15.5304 15.9998 15V13C15.9998 12.4696 15.7891 11.9609 15.414 11.5858C15.0389 11.2107 14.5302 11 13.9998 11H12.9998V10H16.5858C17.1162 9.99989 17.6248 9.7891 17.9998 9.414L19.7068 7.707C19.8943 7.51947 19.9996 7.26516 19.9996 7C19.9996 6.73484 19.8943 6.48053 19.7068 6.293L17.9998 4.586C17.6248 4.2109 17.1162 4.00011 16.5858 4H12.9998V3Z" fill="currentColor"/>
</svg>
