<svg width="24" height="24" viewBox="0 0 24 24" fill="none" xmlns="http://www.w3.org/2000/svg">
<path d="M5 4C4.46957 4 3.96086 4.21071 3.58579 4.58579C3.21071 4.96086 3 5.46957 3 6V13C3 13.5304 3.21071 14.0391 3.58579 14.4142C3.96086 14.7893 4.46957 15 5 15H10V20C10 20.2652 10.1054 20.5196 10.2929 20.7071C10.4804 20.8946 10.7348 21 11 21C11.2652 21 11.5196 20.8946 11.7071 20.7071C11.8946 20.5196 12 20.2652 12 20V15H16.465C16.7942 15 17.1183 14.9188 17.4086 14.7636C17.6988 14.6083 17.9463 14.3838 18.129 14.11L20.462 10.61C20.6813 10.2813 20.7983 9.8951 20.7983 9.5C20.7983 9.1049 20.6813 8.71866 20.462 8.39L18.129 4.89C17.9463 4.61617 17.6988 4.39166 17.4086 4.23641C17.1183 4.08116 16.7942 3.99995 16.465 4H5Z" fill="currentColor"/>
</svg>
