<svg width="24" height="24" viewBox="0 0 24 24" fill="none" xmlns="http://www.w3.org/2000/svg">
<path fill-rule="evenodd" clip-rule="evenodd" d="M12 2C17.523 2 22 6.477 22 12C22 17.523 17.523 22 12 22C6.477 22 2 17.523 2 12C2 6.477 6.477 2 12 2ZM10.293 16.293C10.1055 16.4805 10.0002 16.7348 10.0002 17C10.0002 17.2652 10.1055 17.5195 10.293 17.707L11.293 18.707C11.4805 18.8945 11.7348 18.9998 12 18.9998C12.2652 18.9998 12.5195 18.8945 12.707 18.707L13.707 17.707C13.8892 17.5184 13.99 17.2658 13.9877 17.0036C13.9854 16.7414 13.8802 16.4906 13.6948 16.3052C13.5094 16.1198 13.2586 16.0146 12.9964 16.0123C12.7342 16.01 12.4816 16.1108 12.293 16.293L12 16.586L11.707 16.293C11.5195 16.1055 11.2652 16.0002 11 16.0002C10.7348 16.0002 10.4805 16.1055 10.293 16.293ZM7.707 10.293C7.53481 10.1208 7.30571 10.0174 7.06268 10.0021C6.81965 9.98683 6.5794 10.0607 6.387 10.21L6.293 10.293L5.293 11.293C5.12082 11.4652 5.01739 11.6943 5.00211 11.9373C4.98683 12.1803 5.06075 12.4206 5.21 12.613L5.293 12.707L6.293 13.707C6.47296 13.8863 6.71443 13.9905 6.96838 13.9982C7.22233 14.006 7.46971 13.9168 7.66028 13.7488C7.85084 13.5807 7.97031 13.3464 7.9944 13.0935C8.01849 12.8406 7.94541 12.588 7.79 12.387L7.707 12.293L7.414 12L7.707 11.707C7.89447 11.5195 7.99979 11.2652 7.99979 11C7.99979 10.7348 7.89447 10.4805 7.707 10.293ZM17.707 10.293C17.527 10.1137 17.2856 10.0095 17.0316 10.0018C16.7777 9.99402 16.5303 10.0832 16.3397 10.2512C16.1492 10.4193 16.0297 10.6536 16.0056 10.9065C15.9815 11.1594 16.0546 11.412 16.21 11.613L16.293 11.707L16.586 12L16.293 12.293C16.1137 12.473 16.0095 12.7144 16.0018 12.9684C15.994 13.2223 16.0832 13.4697 16.2512 13.6603C16.4193 13.8508 16.6536 13.9703 16.9065 13.9944C17.1594 14.0185 17.412 13.9454 17.613 13.79L17.707 13.707L18.707 12.707C18.8792 12.5348 18.9826 12.3057 18.9979 12.0627C19.0132 11.8197 18.9393 11.5794 18.79 11.387L18.707 11.293L17.707 10.293ZM12.707 5.293C12.5348 5.12082 12.3057 5.01739 12.0627 5.00211C11.8197 4.98683 11.5794 5.06075 11.387 5.21L11.293 5.293L10.293 6.293C10.1137 6.47296 10.0095 6.71443 10.0018 6.96838C9.99402 7.22233 10.0832 7.46971 10.2512 7.66028C10.4193 7.85084 10.6536 7.97031 10.9065 7.9944C11.1594 8.01849 11.412 7.94541 11.613 7.79L11.707 7.707L12 7.414L12.293 7.707C12.473 7.88635 12.7144 7.99047 12.9684 7.99823C13.2223 8.00598 13.4697 7.91678 13.6603 7.74875C13.8508 7.58072 13.9703 7.34645 13.9944 7.09353C14.0185 6.8406 13.9454 6.58799 13.79 6.387L13.707 6.293L12.707 5.293Z" fill="currentColor"/>
</svg>
