<svg width="24" height="24" viewBox="0 0 24 24" fill="none" xmlns="http://www.w3.org/2000/svg">
<path d="M6.00008 3C5.2916 2.99895 4.60561 3.24866 4.06361 3.70493C3.52161 4.16119 3.15857 4.79455 3.03879 5.49283C2.91902 6.19111 3.05024 6.90925 3.40921 7.52005C3.76819 8.13085 4.33175 8.5949 5.00008 8.83V17C5.00008 17.7957 5.31615 18.5587 5.87876 19.1213C6.44137 19.6839 7.20443 20 8.00008 20H15.1701C15.406 20.6675 15.8703 21.2301 16.4809 21.5884C17.0915 21.9466 17.8091 22.0775 18.5069 21.9578C19.2046 21.8381 19.8376 21.4756 20.294 20.9344C20.7503 20.3931 21.0006 19.708 21.0006 19C21.0006 18.2921 20.7503 17.6069 20.294 17.0656C19.8376 16.5244 19.2046 16.1619 18.5069 16.0422C17.8091 15.9225 17.0915 16.0534 16.4809 16.4116C15.8703 16.7699 15.406 17.3325 15.1701 18H8.00008C7.73486 18 7.48051 17.8946 7.29297 17.7071C7.10544 17.5196 7.00008 17.2652 7.00008 17V13H15.1701C15.406 13.6675 15.8703 14.2301 16.4809 14.5884C17.0915 14.9466 17.8091 15.0775 18.5069 14.9578C19.2046 14.8381 19.8376 14.4756 20.294 13.9344C20.7503 13.3931 21.0006 12.708 21.0006 12C21.0006 11.292 20.7503 10.6069 20.294 10.0656C19.8376 9.52437 19.2046 9.16187 18.5069 9.04219C17.8091 8.92252 17.0915 9.05338 16.4809 9.41164C15.8703 9.76991 15.406 10.3325 15.1701 11H7.00008V8.83C7.66723 8.59385 8.22945 8.12952 8.58744 7.51904C8.94543 6.90855 9.07615 6.19118 8.95651 5.49366C8.83686 4.79614 8.47456 4.16334 7.93359 3.70705C7.39261 3.25076 6.70779 3.00033 6.00008 3Z" fill="currentColor"/>
</svg>
