<svg width="24" height="24" viewBox="0 0 24 24" fill="none" xmlns="http://www.w3.org/2000/svg">
<path d="M7.72795 9.245L8.27195 11.169C7.56211 11.3707 6.91276 11.7438 6.38111 12.2556C5.84946 12.7673 5.45181 13.402 5.22321 14.1036C4.9946 14.8052 4.94205 15.5523 5.07019 16.279C5.19832 17.0058 5.50321 17.6898 5.95799 18.271C6.41277 18.8521 7.00348 19.3125 7.6781 19.6116C8.35272 19.9106 9.09053 20.0392 9.82654 19.9859C10.5625 19.9327 11.2742 19.6993 11.8987 19.3062C12.5233 18.9132 13.0416 18.3725 13.4079 17.732L13.5099 17.545L15.2899 18.455C14.8038 19.4063 14.0906 20.2232 13.2136 20.8332C12.3365 21.4433 11.3226 21.8277 10.2615 21.9526C9.2005 22.0774 8.12504 21.9388 7.13033 21.549C6.13563 21.1592 5.25234 20.5302 4.55862 19.7177C3.86491 18.9052 3.38217 17.9342 3.15311 16.8907C2.92405 15.8472 2.95574 14.7633 3.24537 13.735C3.535 12.7066 4.07365 11.7655 4.81364 10.9949C5.55364 10.2243 6.47217 9.64803 7.48795 9.317L7.72795 9.245ZM10.9999 2C11.6606 1.99965 12.303 2.21741 12.8272 2.61949C13.3515 3.02157 13.7284 3.58547 13.8994 4.22366C14.0703 4.86185 14.0259 5.53864 13.7728 6.14896C13.5198 6.75928 13.0723 7.269 12.4999 7.599V8.919L14.2429 9.5H15.9999C16.3978 9.5 16.7793 9.65804 17.0606 9.93934C17.3419 10.2206 17.4999 10.6022 17.4999 11C17.4999 11.3978 17.3419 11.7794 17.0606 12.0607C16.7793 12.342 16.3978 12.5 15.9999 12.5H13.9999C13.8389 12.5 13.6789 12.474 13.5259 12.423L12.4999 12.081V13C12.4999 13.1326 12.5526 13.2598 12.6464 13.3536C12.7402 13.4473 12.8673 13.5 12.9999 13.5H14.9999C15.5433 13.5 16.0792 13.6265 16.5652 13.8695C17.0512 14.1125 17.4739 14.4653 17.7999 14.9L19.75 17.5H20C20.3978 17.5 20.7793 17.658 21.0606 17.9393C21.3419 18.2206 21.5 18.6022 21.5 19C21.5 19.3978 21.3419 19.7794 21.0606 20.0607C20.7793 20.342 20.3978 20.5 20 20.5H18.9999C18.7671 20.5 18.5374 20.4458 18.3291 20.3416C18.1208 20.2375 17.9397 20.0863 17.7999 19.9L15.3999 16.7C15.3534 16.6379 15.293 16.5875 15.2236 16.5528C15.1541 16.5181 15.0776 16.5 14.9999 16.5H12.9999C12.0717 16.5 11.1815 16.1313 10.5251 15.4749C9.8687 14.8185 9.49995 13.9283 9.49995 13V7.599C8.92756 7.269 8.48013 6.75928 8.22709 6.14896C7.97405 5.53864 7.92956 4.86185 8.10054 4.22366C8.27151 3.58547 8.64838 3.02157 9.17265 2.61949C9.69692 2.21741 10.3393 1.99965 10.9999 2Z" fill="currentColor"/>
</svg>
