<svg width="24" height="24" viewBox="0 0 24 24" fill="none" xmlns="http://www.w3.org/2000/svg">
<path d="M12 2C12.548 2 13.086 2.044 13.61 2.129L14 2.2V8.535C13.2449 8.09904 12.368 7.92176 11.5028 8.03015C10.6376 8.13854 9.83158 8.52666 9.20734 9.13543C8.5831 9.74419 8.17487 10.5403 8.0448 11.4024C7.91473 12.2646 8.06995 13.1457 8.48682 13.9115C8.90369 14.6773 9.55938 15.286 10.3541 15.6448C11.1488 16.0036 12.0389 16.0929 12.8891 15.8991C13.7392 15.7053 14.5027 15.239 15.0634 14.5713C15.6241 13.9035 15.9512 13.0708 15.995 12.2L16 12V2.832C19.532 4.375 22 7.9 22 12C22 17.523 17.523 22 12 22C6.477 22 2 17.523 2 12C2 6.477 6.477 2 12 2ZM12 10C12.5304 10 13.0391 10.2107 13.4142 10.5858C13.7893 10.9609 14 11.4696 14 12C14 12.5304 13.7893 13.0391 13.4142 13.4142C13.0391 13.7893 12.5304 14 12 14C11.4696 14 10.9609 13.7893 10.5858 13.4142C10.2107 13.0391 10 12.5304 10 12C10 11.4696 10.2107 10.9609 10.5858 10.5858C10.9609 10.2107 11.4696 10 12 10Z" fill="currentColor"/>
</svg>
