<svg width="24" height="24" viewBox="0 0 24 24" fill="none" xmlns="http://www.w3.org/2000/svg">
<path d="M20 19C20.2652 19 20.5196 19.1054 20.7071 19.2929C20.8946 19.4804 21 19.7348 21 20C21 20.2652 20.8946 20.5196 20.7071 20.7071C20.5196 20.8946 20.2652 21 20 21H4C3.73478 21 3.48043 20.8946 3.29289 20.7071C3.10536 20.5196 3 20.2652 3 20C3 19.7348 3.10536 19.4804 3.29289 19.2929C3.48043 19.1054 3.73478 19 4 19H20ZM17 8C17.5046 7.99984 17.9906 8.19041 18.3605 8.5335C18.7305 8.87659 18.9572 9.34685 18.995 9.85L19 10V14C19.0002 14.5046 18.8096 14.9906 18.4665 15.3605C18.1234 15.7305 17.6532 15.9572 17.15 15.995L17 16H7C6.49542 16.0002 6.00943 15.8096 5.63945 15.4665C5.26947 15.1234 5.04284 14.6532 5.005 14.15L5 14V10C4.99984 9.49542 5.19041 9.00943 5.5335 8.63945C5.87659 8.26947 6.34684 8.04284 6.85 8.005L7 8H17ZM20 3C20.2652 3 20.5196 3.10536 20.7071 3.29289C20.8946 3.48043 21 3.73478 21 4C21 4.26522 20.8946 4.51957 20.7071 4.70711C20.5196 4.89464 20.2652 5 20 5H4C3.73478 5 3.48043 4.89464 3.29289 4.70711C3.10536 4.51957 3 4.26522 3 4C3 3.73478 3.10536 3.48043 3.29289 3.29289C3.48043 3.10536 3.73478 3 4 3H20Z" fill="currentColor"/>
</svg>
