<svg width="24" height="24" viewBox="0 0 24 24" fill="none" xmlns="http://www.w3.org/2000/svg">
<path d="M6 17.5C6.39782 17.5 6.77936 17.658 7.06066 17.9393C7.34196 18.2206 7.5 18.6022 7.5 19C7.5 19.3978 7.34196 19.7794 7.06066 20.0607C6.77936 20.342 6.39782 20.5 6 20.5H4C3.60218 20.5 3.22064 20.342 2.93934 20.0607C2.65804 19.7794 2.5 19.3978 2.5 19C2.5 18.6022 2.65804 18.2206 2.93934 17.9393C3.22064 17.658 3.60218 17.5 4 17.5H6ZM13 17.5C13.3978 17.5 13.7794 17.658 14.0607 17.9393C14.342 18.2206 14.5 18.6022 14.5 19C14.5 19.3978 14.342 19.7794 14.0607 20.0607C13.7794 20.342 13.3978 20.5 13 20.5H11C10.6022 20.5 10.2206 20.342 9.93934 20.0607C9.65804 19.7794 9.5 19.3978 9.5 19C9.5 18.6022 9.65804 18.2206 9.93934 17.9393C10.2206 17.658 10.6022 17.5 11 17.5H13ZM20 17.5C20.3978 17.5 20.7794 17.658 21.0607 17.9393C21.342 18.2206 21.5 18.6022 21.5 19C21.5 19.3978 21.342 19.7794 21.0607 20.0607C20.7794 20.342 20.3978 20.5 20 20.5H18C17.6022 20.5 17.2206 20.342 16.9393 20.0607C16.658 19.7794 16.5 19.3978 16.5 19C16.5 18.6022 16.658 18.2206 16.9393 17.9393C17.2206 17.658 17.6022 17.5 18 17.5H20ZM20 10.5C20.3978 10.5 20.7794 10.658 21.0607 10.9393C21.342 11.2206 21.5 11.6022 21.5 12C21.5 12.3978 21.342 12.7794 21.0607 13.0607C20.7794 13.342 20.3978 13.5 20 13.5H4C3.60218 13.5 3.22064 13.342 2.93934 13.0607C2.65804 12.7794 2.5 12.3978 2.5 12C2.5 11.6022 2.65804 11.2206 2.93934 10.9393C3.22064 10.658 3.60218 10.5 4 10.5H20ZM6 3.5C6.39782 3.5 6.77936 3.65804 7.06066 3.93934C7.34196 4.22064 7.5 4.60218 7.5 5C7.5 5.39782 7.34196 5.77936 7.06066 6.06066C6.77936 6.34196 6.39782 6.5 6 6.5H4C3.60218 6.5 3.22064 6.34196 2.93934 6.06066C2.65804 5.77936 2.5 5.39782 2.5 5C2.5 4.60218 2.65804 4.22064 2.93934 3.93934C3.22064 3.65804 3.60218 3.5 4 3.5H6ZM13 3.5C13.3978 3.5 13.7794 3.65804 14.0607 3.93934C14.342 4.22064 14.5 4.60218 14.5 5C14.5 5.39782 14.342 5.77936 14.0607 6.06066C13.7794 6.34196 13.3978 6.5 13 6.5H11C10.6022 6.5 10.2206 6.34196 9.93934 6.06066C9.65804 5.77936 9.5 5.39782 9.5 5C9.5 4.60218 9.65804 4.22064 9.93934 3.93934C10.2206 3.65804 10.6022 3.5 11 3.5H13ZM20 3.5C20.3978 3.5 20.7794 3.65804 21.0607 3.93934C21.342 4.22064 21.5 4.60218 21.5 5C21.5 5.39782 21.342 5.77936 21.0607 6.06066C20.7794 6.34196 20.3978 6.5 20 6.5H18C17.6022 6.5 17.2206 6.34196 16.9393 6.06066C16.658 5.77936 16.5 5.39782 16.5 5C16.5 4.60218 16.658 4.22064 16.9393 3.93934C17.2206 3.65804 17.6022 3.5 18 3.5H20Z" fill="currentColor"/>
</svg>
