<svg width="24" height="24" viewBox="0 0 24 24" fill="none" xmlns="http://www.w3.org/2000/svg">
<path fill-rule="evenodd" clip-rule="evenodd" d="M12 2V8.5C12 8.89782 12.158 9.27936 12.4393 9.56066C12.7206 9.84196 13.1022 10 13.5 10H20V20C20 20.5304 19.7893 21.0391 19.4142 21.4142C19.0391 21.7893 18.5304 22 18 22H6C5.46957 22 4.96086 21.7893 4.58579 21.4142C4.21071 21.0391 4 20.5304 4 20V4C4 3.46957 4.21071 2.96086 4.58579 2.58579C4.96086 2.21071 5.46957 2 6 2H12ZM14.064 12.649L13.5 14.152L13.03 12.899C12.673 11.947 11.327 11.947 10.97 12.899L10.5 14.152L9.936 12.649C9.83805 12.4075 9.64968 12.2137 9.41101 12.1091C9.17233 12.0044 8.90222 11.997 8.65819 12.0885C8.41416 12.18 8.21549 12.3632 8.10451 12.599C7.99353 12.8348 7.97899 13.1046 8.064 13.351L9.47 17.101C9.827 18.053 11.173 18.053 11.53 17.101L12 15.848L12.47 17.101C12.827 18.053 14.173 18.053 14.53 17.101L15.936 13.351C16.021 13.1046 16.0065 12.8348 15.8955 12.599C15.7845 12.3632 15.5858 12.18 15.3418 12.0885C15.0978 11.997 14.8277 12.0044 14.589 12.1091C14.3503 12.2137 14.162 12.4075 14.064 12.649ZM14 2.043C14.3789 2.12336 14.7263 2.31199 15 2.586L19.414 7C19.688 7.27373 19.8766 7.62112 19.957 8H14V2.043Z" fill="currentColor"/>
</svg>
