<svg width="24" height="24" viewBox="0 0 24 24" fill="none" xmlns="http://www.w3.org/2000/svg">
<path fill-rule="evenodd" clip-rule="evenodd" d="M18 2C18.5304 2 19.0391 2.21071 19.4142 2.58579C19.7893 2.96086 20 3.46957 20 4V14H13.5C13.1022 14 12.7206 14.158 12.4393 14.4393C12.158 14.7206 12 15.1022 12 15.5V22H6C5.46957 22 4.96086 21.7893 4.58579 21.4142C4.21071 21.0391 4 20.5304 4 20V4C4 3.46957 4.21071 2.96086 4.58579 2.58579C4.96086 2.21071 5.46957 2 6 2H18ZM19.957 16C19.8766 16.3789 19.688 16.7263 19.414 17L15 21.414C14.7263 21.688 14.3789 21.8766 14 21.957V16H19.957ZM10 11H9C8.73478 11 8.48043 11.1054 8.29289 11.2929C8.10536 11.4804 8 11.7348 8 12C8 12.2652 8.10536 12.5196 8.29289 12.7071C8.48043 12.8946 8.73478 13 9 13H10C10.2652 13 10.5196 12.8946 10.7071 12.7071C10.8946 12.5196 11 12.2652 11 12C11 11.7348 10.8946 11.4804 10.7071 11.2929C10.5196 11.1054 10.2652 11 10 11ZM15 7H9C8.73478 7 8.48043 7.10536 8.29289 7.29289C8.10536 7.48043 8 7.73478 8 8C8 8.26522 8.10536 8.51957 8.29289 8.70711C8.48043 8.89464 8.73478 9 9 9H15C15.2652 9 15.5196 8.89464 15.7071 8.70711C15.8946 8.51957 16 8.26522 16 8C16 7.73478 15.8946 7.48043 15.7071 7.29289C15.5196 7.10536 15.2652 7 15 7Z" fill="currentColor"/>
</svg>
