<svg width="24" height="24" viewBox="0 0 24 24" fill="none" xmlns="http://www.w3.org/2000/svg">
<path fill-rule="evenodd" clip-rule="evenodd" d="M20.293 4.884L21.962 10.725C22.0119 10.9 22.0132 11.0853 21.9656 11.261C21.9179 11.4367 21.8233 11.596 21.6918 11.7218C21.5603 11.8477 21.3969 11.9352 21.2194 11.9751C21.0418 12.0149 20.8567 12.0056 20.684 11.948L19.127 11.43C19.227 14.808 18.001 17.21 16.791 18.741L16.523 19.067C16.4794 19.1183 16.4351 19.169 16.39 19.219L16.13 19.503L15.877 19.758L15.755 19.875L15.522 20.088L15.306 20.275C14.664 20.811 13.881 21 13.169 21H10.831C10.119 21 9.33601 20.811 8.69401 20.275L8.58001 20.178L8.33701 19.961C6.99301 18.721 4.91401 16.124 4.86801 11.956L3.55501 12.832C3.38705 12.9441 3.18909 13.0027 2.98718 13.0001C2.78527 12.9975 2.58888 12.9338 2.42384 12.8175C2.2588 12.7012 2.13285 12.5376 2.06255 12.3483C1.99226 12.159 1.98091 11.9529 2.03001 11.757L3.72801 4.967C3.80065 4.67652 3.93758 4.40606 4.1287 4.17558C4.31983 3.94509 4.56026 3.76045 4.83227 3.6353C5.10427 3.51014 5.40091 3.44765 5.70029 3.45245C5.99967 3.45724 6.29415 3.52919 6.56201 3.663L9.02501 4.894C9.16377 4.96354 9.31681 4.99983 9.47201 5H14.528C14.6832 4.99983 14.8363 4.96354 14.975 4.894L17.475 3.644C17.7379 3.51248 18.0266 3.44055 18.3205 3.4333C18.6143 3.42606 18.9062 3.48368 19.1753 3.60208C19.4443 3.72048 19.684 3.89674 19.8772 4.11831C20.0704 4.33988 20.2124 4.60131 20.293 4.884ZM12 13.5C11.7348 13.5 11.4804 13.6054 11.2929 13.7929C11.1054 13.9804 11 14.2348 11 14.5C11 14.6326 10.9473 14.7598 10.8536 14.8535C10.7598 14.9473 10.6326 15 10.5 15C10.2348 15 9.98044 15.1054 9.79291 15.2929C9.60537 15.4804 9.50001 15.7348 9.50001 16C9.50001 16.2652 9.60537 16.5196 9.79291 16.7071C9.98044 16.8946 10.2348 17 10.5 17C11.0411 17.0007 11.5676 16.8252 12 16.5C12.418 16.814 12.937 17 13.5 17C13.7652 17 14.0196 16.8946 14.2071 16.7071C14.3947 16.5196 14.5 16.2652 14.5 16C14.5 15.7348 14.3947 15.4804 14.2071 15.2929C14.0196 15.1054 13.7652 15 13.5 15C13.3674 15 13.2402 14.9473 13.1465 14.8535C13.0527 14.7598 13 14.6326 13 14.5C13 14.2348 12.8947 13.9804 12.7071 13.7929C12.5196 13.6054 12.2652 13.5 12 13.5ZM9.50001 9C9.10219 9 8.72066 9.15803 8.43935 9.43933C8.15805 9.72064 8.00001 10.1022 8.00001 10.5C8.00001 10.8978 8.15805 11.2794 8.43935 11.5607C8.72066 11.842 9.10219 12 9.50001 12C9.89784 12 10.2794 11.842 10.5607 11.5607C10.842 11.2794 11 10.8978 11 10.5C11 10.1022 10.842 9.72064 10.5607 9.43933C10.2794 9.15803 9.89784 9 9.50001 9ZM14.5 9C14.1022 9 13.7207 9.15803 13.4394 9.43933C13.158 9.72064 13 10.1022 13 10.5C13 10.8978 13.158 11.2794 13.4394 11.5607C13.7207 11.842 14.1022 12 14.5 12C14.8978 12 15.2794 11.842 15.5607 11.5607C15.842 11.2794 16 10.8978 16 10.5C16 10.1022 15.842 9.72064 15.5607 9.43933C15.2794 9.15803 14.8978 9 14.5 9Z" fill="currentColor"/>
</svg>
