<svg width="24" height="24" viewBox="0 0 24 24" fill="none" xmlns="http://www.w3.org/2000/svg">
<path fill-rule="evenodd" clip-rule="evenodd" d="M5.5 10.5V5.415C5.16583 5.29745 4.88405 5.06543 4.70457 4.76002C4.52508 4.45462 4.45947 4.09555 4.51936 3.74641C4.57924 3.39727 4.76076 3.08059 5.03176 2.85246C5.30277 2.62433 5.64576 2.49947 6 2.5H12C14.5196 2.5 16.9359 3.50089 18.7175 5.28249C20.4991 7.06408 21.5 9.48044 21.5 12C21.5 14.5196 20.4991 16.9359 18.7175 18.7175C16.9359 20.4991 14.5196 21.5 12 21.5H6C5.64576 21.5005 5.30277 21.3757 5.03176 21.1475C4.76076 20.9194 4.57924 20.6027 4.51936 20.2536C4.45947 19.9044 4.52508 19.5454 4.70457 19.24C4.88405 18.9346 5.16583 18.7026 5.5 18.585V13.5H4C3.60218 13.5 3.22064 13.342 2.93934 13.0607C2.65804 12.7794 2.5 12.3978 2.5 12C2.5 11.6022 2.65804 11.2206 2.93934 10.9393C3.22064 10.658 3.60218 10.5 4 10.5H5.5ZM8.5 13.5V18.5H12C13.7239 18.5 15.3772 17.8152 16.5962 16.5962C17.8152 15.3772 18.5 13.7239 18.5 12C18.5 10.2761 17.8152 8.62279 16.5962 7.40381C15.3772 6.18482 13.7239 5.5 12 5.5H8.5V10.5H13C13.3978 10.5 13.7794 10.658 14.0607 10.9393C14.342 11.2206 14.5 11.6022 14.5 12C14.5 12.3978 14.342 12.7794 14.0607 13.0607C13.7794 13.342 13.3978 13.5 13 13.5H8.5Z" fill="currentColor"/>
</svg>
