<svg width="24" height="24" viewBox="0 0 24 24" fill="none" xmlns="http://www.w3.org/2000/svg">
<path fill-rule="evenodd" clip-rule="evenodd" d="M12 2C17.523 2 22 6.477 22 12C22 17.523 17.523 22 12 22C6.477 22 2 17.523 2 12C2 6.477 6.477 2 12 2ZM11.184 16.551L9.684 17.051C9.43231 17.1348 9.22422 17.3152 9.10551 17.5524C8.9868 17.7896 8.96719 18.0643 9.051 18.316C9.13481 18.5677 9.31517 18.7758 9.5524 18.8945C9.78964 19.0132 10.0643 19.0328 10.316 18.949L11.816 18.449C11.9406 18.4075 12.0559 18.3419 12.1551 18.2558C12.2544 18.1698 12.3357 18.0651 12.3945 17.9476C12.4533 17.8301 12.4883 17.7022 12.4977 17.5712C12.507 17.4402 12.4905 17.3086 12.449 17.184C12.4075 17.0594 12.3419 16.9441 12.2558 16.8449C12.1698 16.7456 12.0651 16.6643 11.9476 16.6055C11.8301 16.5467 11.7022 16.5117 11.5712 16.5023C11.4402 16.493 11.3086 16.5095 11.184 16.551ZM16.207 15.793C16.027 15.6137 15.7856 15.5095 15.5316 15.5018C15.2777 15.494 15.0303 15.5832 14.8397 15.7512C14.6492 15.9193 14.5297 16.1536 14.5056 16.4065C14.4815 16.6594 14.5546 16.912 14.71 17.113L14.793 17.207L15.293 17.707C15.473 17.8863 15.7144 17.9905 15.9684 17.9982C16.2223 18.006 16.4697 17.9168 16.6603 17.7488C16.8508 17.5807 16.9703 17.3464 16.9944 17.0935C17.0185 16.8406 16.9454 16.588 16.79 16.387L16.707 16.293L16.207 15.793ZM6.894 12.553C6.78 12.3247 6.58303 12.1486 6.34342 12.0608C6.10381 11.973 5.83969 11.9801 5.60516 12.0807C5.37062 12.1813 5.18342 12.3677 5.08188 12.6018C4.98034 12.8359 4.97216 13.1 5.059 13.34L5.106 13.447L5.606 14.447C5.72 14.6753 5.91697 14.8514 6.15658 14.9392C6.39619 15.027 6.66031 15.0199 6.89484 14.9193C7.12938 14.8187 7.31658 14.6323 7.41812 14.3982C7.51966 14.1641 7.52784 13.9 7.441 13.66L7.394 13.553L6.894 12.553ZM12 9C11.2044 9 10.4413 9.31607 9.87868 9.87868C9.31607 10.4413 9 11.2044 9 12C9 12.7956 9.31607 13.5587 9.87868 14.1213C10.4413 14.6839 11.2044 15 12 15C12.7956 15 13.5587 14.6839 14.1213 14.1213C14.6839 13.5587 15 12.7956 15 12C15 11.2044 14.6839 10.4413 14.1213 9.87868C13.5587 9.31607 12.7956 9 12 9ZM16.793 12.793C16.6055 12.9805 16.5002 13.2348 16.5002 13.5C16.5002 13.7652 16.6055 14.0195 16.793 14.207L17.293 14.707C17.4816 14.8892 17.7342 14.99 17.9964 14.9877C18.2586 14.9854 18.5094 14.8802 18.6948 14.6948C18.8802 14.5094 18.9854 14.2586 18.9877 13.9964C18.99 13.7342 18.8892 13.4816 18.707 13.293L18.207 12.793C18.0195 12.6055 17.7652 12.5002 17.5 12.5002C17.2348 12.5002 16.9805 12.6055 16.793 12.793ZM6.707 8.293C6.52704 8.11365 6.28557 8.00953 6.03162 8.00177C5.77767 7.99402 5.53029 8.08321 5.33972 8.25125C5.14916 8.41928 5.02969 8.65355 5.0056 8.90647C4.98151 9.1594 5.05459 9.41201 5.21 9.613L5.293 9.707L5.793 10.207C5.97296 10.3863 6.21443 10.4905 6.46838 10.4982C6.72233 10.506 6.96971 10.4168 7.16028 10.2488C7.35084 10.0807 7.47031 9.84645 7.4944 9.59353C7.51849 9.3406 7.44541 9.08799 7.29 8.887L7.207 8.793L6.707 8.293ZM15.293 6.293L14.793 6.793C14.6108 6.9816 14.51 7.2342 14.5123 7.4964C14.5146 7.7586 14.6198 8.00941 14.8052 8.19482C14.9906 8.38023 15.2414 8.4854 15.5036 8.48767C15.7658 8.48995 16.0184 8.38916 16.207 8.207L16.707 7.707C16.8892 7.5184 16.99 7.2658 16.9877 7.0036C16.9854 6.7414 16.8802 6.49059 16.6948 6.30518C16.5094 6.11977 16.2586 6.0146 15.9964 6.01233C15.7342 6.01005 15.4816 6.11084 15.293 6.293ZM10.051 5.183C10.0093 5.30768 9.99263 5.43936 10.0019 5.5705C10.0112 5.70164 10.0462 5.82967 10.105 5.94726C10.1638 6.06485 10.2452 6.16969 10.3445 6.25578C10.4439 6.34188 10.5592 6.40753 10.684 6.449L12.184 6.949C12.4357 7.03281 12.7104 7.0132 12.9476 6.89449C13.1848 6.77578 13.3652 6.56769 13.449 6.316C13.5328 6.06431 13.5132 5.78964 13.3945 5.5524C13.2758 5.31517 13.0677 5.13481 12.816 5.051L11.316 4.551C11.1914 4.50947 11.0598 4.4929 10.9288 4.50224C10.7977 4.51158 10.6698 4.54664 10.5524 4.60543C10.4349 4.66421 10.3301 4.74556 10.2441 4.84483C10.1581 4.94411 10.0925 5.05836 10.051 5.183Z" fill="currentColor"/>
</svg>
