<svg width="24" height="24" viewBox="0 0 24 24" fill="none" xmlns="http://www.w3.org/2000/svg">
<path fill-rule="evenodd" clip-rule="evenodd" d="M16.9999 3C17.5044 2.99984 17.9904 3.19041 18.3604 3.5335C18.7304 3.87659 18.957 4.34684 18.9949 4.85L18.9999 5V19H19.9999C20.2547 19.0003 20.4999 19.0979 20.6852 19.2728C20.8706 19.4478 20.9821 19.687 20.997 19.9414C21.012 20.1958 20.9292 20.4464 20.7656 20.6418C20.602 20.8373 20.37 20.9629 20.1169 20.993L19.9999 21H3.99987C3.74499 20.9997 3.49984 20.9021 3.3145 20.7272C3.12916 20.5522 3.01763 20.313 3.0027 20.0586C2.98776 19.8042 3.07054 19.5536 3.23413 19.3582C3.39772 19.1627 3.62977 19.0371 3.88287 19.007L3.99987 19H4.99987V5C4.99971 4.49542 5.19027 4.00943 5.53337 3.63945C5.87646 3.26947 6.34671 3.04284 6.84987 3.005L6.99987 3H16.9999ZM14.4999 11C14.3029 11 14.1078 11.0388 13.9258 11.1142C13.7439 11.1896 13.5785 11.3001 13.4392 11.4393C13.2999 11.5786 13.1894 11.744 13.114 11.926C13.0387 12.108 12.9999 12.303 12.9999 12.5C12.9999 12.697 13.0387 12.892 13.114 13.074C13.1894 13.256 13.2999 13.4214 13.4392 13.5607C13.5785 13.6999 13.7439 13.8104 13.9258 13.8858C14.1078 13.9612 14.3029 14 14.4999 14C14.8977 14 15.2792 13.842 15.5605 13.5607C15.8418 13.2794 15.9999 12.8978 15.9999 12.5C15.9999 12.1022 15.8418 11.7206 15.5605 11.4393C15.2792 11.158 14.8977 11 14.4999 11Z" fill="currentColor"/>
</svg>
