<svg width="24" height="24" viewBox="0 0 24 24" fill="none" xmlns="http://www.w3.org/2000/svg">
<path d="M20 14.5C20.3978 14.5 20.7794 14.658 21.0607 14.9393C21.342 15.2206 21.5 15.6022 21.5 16V20C21.5 20.663 21.2366 21.2989 20.7678 21.7678C20.2989 22.2366 19.663 22.5 19 22.5H5C4.33696 22.5 3.70107 22.2366 3.23223 21.7678C2.76339 21.2989 2.5 20.663 2.5 20V16C2.5 15.6022 2.65804 15.2206 2.93934 14.9393C3.22064 14.658 3.60218 14.5 4 14.5C4.39782 14.5 4.77936 14.658 5.06066 14.9393C5.34196 15.2206 5.5 15.6022 5.5 16V19.5H18.5V16C18.5 15.6022 18.658 15.2206 18.9393 14.9393C19.2206 14.658 19.6022 14.5 20 14.5ZM12 1.5C12.3978 1.5 12.7794 1.65804 13.0607 1.93934C13.342 2.22064 13.5 2.60218 13.5 3V12.036L15.182 10.354C15.4657 10.0855 15.843 9.9383 16.2335 9.94364C16.6241 9.94898 16.9972 10.1065 17.2734 10.3826C17.5497 10.6587 17.7073 11.0317 17.7129 11.4223C17.7184 11.8129 17.5713 12.1902 17.303 12.474L13.237 16.541C12.9088 16.8689 12.4639 17.0531 12 17.0531C11.5361 17.0531 11.0912 16.8689 10.763 16.541L6.697 12.475C6.42376 12.1921 6.27257 11.8132 6.27599 11.4199C6.27941 11.0266 6.43716 10.6504 6.71527 10.3723C6.99338 10.0942 7.3696 9.93641 7.7629 9.93299C8.15619 9.92957 8.5351 10.0808 8.818 10.354L10.5 12.036V3C10.5 2.60218 10.658 2.22064 10.9393 1.93934C11.2206 1.65804 11.6022 1.5 12 1.5Z" fill="currentColor"/>
</svg>
