<svg width="24" height="24" viewBox="0 0 24 24" fill="none" xmlns="http://www.w3.org/2000/svg">
<path d="M11.9996 11C12.2648 11 12.5191 11.1054 12.7067 11.2929C12.8942 11.4804 12.9996 11.7348 12.9996 12V18.584L14.2926 17.292C14.4803 17.1045 14.7349 16.9993 15.0003 16.9994C15.2656 16.9996 15.5201 17.1052 15.7076 17.293C15.8951 17.4808 16.0003 17.7353 16.0001 18.0007C15.9999 18.2661 15.8943 18.5205 15.7066 18.708L12.8826 21.527C12.6296 21.779 12.3826 22 11.9996 22C11.6636 22 11.4336 21.831 11.2116 21.62L8.29257 18.708C8.1048 18.5205 7.9992 18.2661 7.99901 18.0007C7.99883 17.7353 8.10406 17.4808 8.29157 17.293C8.47908 17.1052 8.7335 16.9996 8.99886 16.9994C9.26423 16.9993 9.5188 17.1045 9.70657 17.292L10.9996 18.584V12C10.9996 11.7348 11.1049 11.4804 11.2925 11.2929C11.48 11.1054 11.7344 11 11.9996 11ZM11.4996 2C14.2836 2 16.6596 3.75 17.5856 6.212C18.8192 6.55118 19.9121 7.27559 20.7051 8.2796C21.498 9.2836 21.9494 10.5147 21.9935 11.7933C22.0376 13.0719 21.6721 14.3311 20.9502 15.3874C20.2283 16.4436 19.1879 17.2416 17.9806 17.665C17.9059 16.9897 17.6032 16.3601 17.1226 15.88C16.6115 15.3666 15.9313 15.0564 15.2086 15.007L14.9996 15V12C15.0003 11.2191 14.6965 10.4687 14.1528 9.90818C13.609 9.34769 12.8682 9.02132 12.0876 8.9984C11.307 8.97548 10.5483 9.25784 9.9726 9.78546C9.3969 10.3131 9.04963 11.0444 9.00457 11.824L8.99957 12V15C8.60515 14.9994 8.21451 15.0769 7.85015 15.2279C7.48579 15.3789 7.15491 15.6005 6.87657 15.88C6.33863 16.4176 6.02573 17.1399 6.00157 17.9C4.96049 17.6873 4.01421 17.1485 3.29989 16.3619C2.58556 15.5752 2.14031 14.5815 2.02867 13.5248C1.91702 12.4681 2.14479 11.4033 2.67896 10.4847C3.21313 9.56618 4.02593 8.84159 4.99957 8.416C5.02166 6.70669 5.71622 5.07489 6.93282 3.87401C8.14942 2.67313 9.79012 1.99986 11.4996 2Z" fill="currentColor"/>
</svg>
