<svg width="24" height="24" viewBox="0 0 24 24" fill="none" xmlns="http://www.w3.org/2000/svg">
<path d="M9.05109 4.684C9.13505 4.43246 9.31548 4.22456 9.55271 4.10604C9.78994 3.98752 10.0645 3.96808 10.3161 4.052C10.8974 4.24696 11.4263 4.57264 11.8621 5.004C11.954 4.99926 12.0461 4.99926 12.1381 5.004C12.5739 4.57264 13.1027 4.24696 13.6841 4.052C13.9338 3.9749 14.2038 3.99866 14.4363 4.11817C14.6687 4.23768 14.8452 4.44346 14.9278 4.69143C15.0104 4.93941 14.9926 5.20987 14.8783 5.44492C14.764 5.67997 14.5622 5.86091 14.3161 5.949C14.2368 5.97531 14.1593 6.00671 14.0841 6.043C14.1811 6.173 14.2661 6.311 14.3381 6.456L18.6161 5.506C19.1326 5.39095 19.6711 5.42568 20.1685 5.60611C20.666 5.78654 21.1015 6.10518 21.4241 6.5246C21.7467 6.94401 21.9429 7.44678 21.9897 7.97384C22.0364 8.50089 21.9318 9.03035 21.6881 9.5C21.9321 9.96968 22.037 10.4993 21.9903 11.0265C21.9437 11.5537 21.7476 12.0567 21.4249 12.4763C21.1023 12.8958 20.6666 13.2146 20.169 13.3951C19.6714 13.5755 19.1327 13.6102 18.6161 13.495L13.3641 12.328C13.2783 12.5244 13.1495 12.6991 12.9871 12.839C12.996 12.8922 13.0003 12.9461 13.0001 13V19C13.0001 19.2652 12.8947 19.5196 12.7072 19.7071C12.5197 19.8946 12.2653 20 12.0001 20C11.7349 20 11.4805 19.8946 11.293 19.7071C11.1054 19.5196 11.0001 19.2652 11.0001 19V13C11.0001 12.945 11.0041 12.892 11.0131 12.84C10.8506 12.6998 10.7217 12.5248 10.6361 12.328L5.38409 13.495C4.86749 13.6102 4.32874 13.5755 3.83117 13.3951C3.3336 13.2146 2.89788 12.8958 2.57524 12.4763C2.2526 12.0567 2.05645 11.5537 2.00983 11.0265C1.96321 10.4993 2.06807 9.96968 2.31209 9.5C2.06807 9.03032 1.96321 8.50074 2.00983 7.97351C2.05645 7.44628 2.2526 6.94331 2.57524 6.52373C2.89788 6.10415 3.3336 5.7854 3.83117 5.60494C4.32874 5.42447 4.86749 5.3898 5.38409 5.505L9.66209 6.456C9.73409 6.311 9.81909 6.173 9.91609 6.043C9.84086 6.00669 9.76337 5.97529 9.68409 5.949C9.55944 5.90753 9.44419 5.84191 9.34492 5.75588C9.24565 5.66986 9.16429 5.56511 9.10551 5.44764C9.04673 5.33017 9.01167 5.20226 9.00233 5.07124C8.99299 4.94021 9.00956 4.80862 9.05109 4.684Z" fill="currentColor"/>
</svg>
