<svg width="24" height="24" viewBox="0 0 24 24" fill="none" xmlns="http://www.w3.org/2000/svg">
<path fill-rule="evenodd" clip-rule="evenodd" d="M4 7C4 5.67392 4.52678 4.40215 5.46447 3.46447C6.40215 2.52678 7.67392 2 9 2C9.482 2 9.938 2.17 10.114 2.667C10.2522 3.05674 10.5077 3.39411 10.8454 3.63271C11.1831 3.87131 11.5865 3.99942 12 3.99942C12.4135 3.99942 12.8169 3.87131 13.1546 3.63271C13.4923 3.39411 13.7478 3.05674 13.886 2.667C14.063 2.17 14.519 2 15 2C16.3261 2 17.5979 2.52678 18.5355 3.46447C19.4732 4.40215 20 5.67392 20 7V7.5C20 7.89782 19.842 8.27936 19.5607 8.56066C19.2794 8.84196 18.8978 9 18.5 9H16C16 9.77 15.924 10.554 16.438 11.197L18.466 13.732C19.459 14.9732 20 16.5154 20 18.105V19C20 19.7956 19.6839 20.5587 19.1213 21.1213C18.5587 21.6839 17.7956 22 17 22H7C6.20435 22 5.44129 21.6839 4.87868 21.1213C4.31607 20.5587 4 19.7956 4 19V18.105C3.99999 16.5154 4.54099 14.9732 5.534 13.732L7.562 11.197C8.076 10.554 8 9.771 8 9H5.5C5.10218 9 4.72064 8.84196 4.43934 8.56066C4.15804 8.27936 4 7.89782 4 7.5V7Z" fill="currentColor"/>
</svg>
