<svg width="24" height="24" viewBox="0 0 24 24" fill="none" xmlns="http://www.w3.org/2000/svg">
<path fill-rule="evenodd" clip-rule="evenodd" d="M13.815 3.57899C13.9613 3.36261 14.0172 3.09756 13.9706 2.84053C13.924 2.5835 13.7787 2.3549 13.5658 2.20362C13.3528 2.05233 13.0891 1.99038 12.8311 2.031C12.5731 2.07162 12.3412 2.2116 12.185 2.42099L11.185 3.82999C11.1469 3.88333 11.114 3.94027 11.087 3.99999H7.5C7.10218 3.99999 6.72064 4.15803 6.43934 4.43933C6.15804 4.72064 6 5.10217 6 5.49999V6.99999L6.003 7.08399C5.7097 7.18699 5.45565 7.37857 5.27596 7.63224C5.09628 7.88591 4.99985 8.18914 5 8.49999V9.99999C5 10.2643 5.10467 10.5179 5.29112 10.7053C5.47758 10.8927 5.73065 10.9987 5.995 11L6.915 20.2C6.96458 20.6933 7.19564 21.1506 7.56334 21.4832C7.93105 21.8158 8.40919 22 8.905 22H15.095C15.5908 22 16.069 21.8158 16.4367 21.4832C16.8044 21.1506 17.0354 20.6933 17.085 20.2L18.005 11C18.2693 10.9987 18.5224 10.8927 18.7089 10.7053C18.8953 10.5179 19 10.2643 19 9.99999V8.49999C19.0002 8.18914 18.9037 7.88591 18.724 7.63224C18.5444 7.37857 18.2903 7.18699 17.997 7.08399L18 6.99999V5.49999C18 5.10217 17.842 4.72064 17.5607 4.43933C17.2794 4.15803 16.8978 3.99999 16.5 3.99999H13.517L13.815 3.57899ZM8 6.99999V5.99999H16V6.99999H8Z" fill="currentColor"/>
</svg>
