<svg width="24" height="24" viewBox="0 0 24 24" fill="none" xmlns="http://www.w3.org/2000/svg">
<path d="M21.238 17L19.506 20C19.3442 20.28 19.117 20.5167 18.8437 20.6896C18.5704 20.8626 18.2593 20.9667 17.937 20.993L17.773 21H6.22596C5.97696 21 5.73597 20.954 5.50996 20.867L5.34496 20.795L7.53496 17H21.238ZM8.57696 3.339L10.845 7.268L3.99496 19.134L2.18396 16C2.00843 15.696 1.91602 15.3511 1.91602 15C1.91602 14.6489 2.00843 14.304 2.18396 14L7.95796 4C8.11397 3.73 8.32696 3.506 8.57696 3.339ZM14.309 3C14.6323 2.99984 14.9509 3.07809 15.2374 3.22804C15.5239 3.378 15.7698 3.59519 15.954 3.861L16.04 4L21.814 14C21.963 14.258 22.05 14.54 22.074 14.828L22.082 15H17.618L10.69 3H14.309ZM12 9.268L15.31 15H8.68996L12 9.268Z" fill="currentColor"/>
</svg>
