<svg width="24" height="24" viewBox="0 0 24 24" fill="none" xmlns="http://www.w3.org/2000/svg">
<path d="M10.9234 15.792C10.9574 15.6651 11.016 15.5462 11.096 15.442C11.176 15.3379 11.2757 15.2504 11.3894 15.1848C11.5032 15.1191 11.6288 15.0765 11.759 15.0594C11.8892 15.0423 12.0215 15.051 12.1484 15.085C12.2752 15.119 12.3941 15.1777 12.4983 15.2576C12.6025 15.3376 12.6899 15.4373 12.7556 15.5511C12.8212 15.6648 12.8638 15.7904 12.881 15.9206C12.8981 16.0508 12.8894 16.1831 12.8554 16.31L12.5964 17.276C12.5277 17.5322 12.36 17.7506 12.1303 17.8832C11.9006 18.0158 11.6276 18.0517 11.3714 17.983C11.1152 17.9143 10.8968 17.7467 10.7642 17.5169C10.6316 17.2872 10.5957 17.0142 10.6644 16.758L10.9234 15.792ZM11.4994 2C12.8218 1.99987 14.1128 2.40298 15.2002 3.15554C16.2876 3.9081 17.1196 4.97433 17.5854 6.212C18.9847 6.5979 20.1967 7.47782 20.997 8.6888C21.7973 9.89978 22.1317 11.3598 21.9381 12.7983C21.7446 14.2369 21.0362 15.5566 19.9443 16.513C18.8524 17.4694 17.4509 17.9977 15.9994 18H14.4654C14.4884 17.932 14.5094 17.864 14.5284 17.793L14.7874 16.828C14.9933 16.0594 14.8855 15.2405 14.4876 14.5514C14.2906 14.2102 14.0284 13.9111 13.7158 13.6713C13.4032 13.4314 13.0464 13.2555 12.6659 13.1535C11.8973 12.9476 11.0783 13.0554 10.3892 13.4532C9.70014 13.8511 9.19731 14.5064 8.99137 15.275L8.73237 16.241C8.59557 16.7493 8.59557 17.2847 8.73237 17.793C8.66617 17.859 8.6031 17.9281 8.54337 18H6.99937C5.85008 18.0008 4.73562 17.6056 3.84356 16.8809C2.95151 16.1563 2.33632 15.1465 2.10154 14.0214C1.86676 12.8964 2.02673 11.7248 2.55452 10.7038C3.08231 9.6829 3.9457 8.87496 4.99937 8.416C5.02146 6.70669 5.71602 5.07489 6.93262 3.87401C8.14922 2.67313 9.78992 1.99986 11.4994 2ZM11.8194 20.174C11.8575 20.0459 11.8695 19.9116 11.8548 19.7788C11.8401 19.646 11.7989 19.5175 11.7337 19.4009C11.6685 19.2843 11.5806 19.1819 11.4752 19.0999C11.3698 19.0178 11.249 18.9577 11.12 18.9231C10.9909 18.8885 10.8563 18.8801 10.7239 18.8983C10.5916 18.9166 10.4643 18.9613 10.3495 19.0296C10.2347 19.0979 10.1347 19.1885 10.0555 19.2961C9.97632 19.4037 9.91949 19.5261 9.88837 19.656L9.62937 20.622C9.56068 20.8782 9.59658 21.1512 9.72916 21.3809C9.86175 21.6107 10.0802 21.7783 10.3364 21.847C10.5926 21.9157 10.8656 21.8798 11.0953 21.7472C11.325 21.6146 11.4927 21.3962 11.5614 21.14L11.8194 20.174Z" fill="currentColor"/>
</svg>
