<svg width="24" height="24" viewBox="0 0 24 24" fill="none" xmlns="http://www.w3.org/2000/svg">
<path d="M5.66718 13.228C5.90743 13.144 6.17065 13.1548 6.40322 13.2582C6.6358 13.3615 6.82021 13.5497 6.91889 13.7843C7.01757 14.0188 7.0231 14.2822 6.93434 14.5208C6.84557 14.7593 6.66921 14.955 6.44118 15.068L6.33318 15.114C6.02061 15.2245 5.7404 15.411 5.51773 15.6566C5.29506 15.9022 5.1369 16.1993 5.05748 16.5212C4.97805 16.843 4.97985 17.1796 5.0627 17.5006C5.14555 17.8216 5.30686 18.117 5.53214 18.3603C5.75742 18.6035 6.0396 18.7869 6.35333 18.8941C6.66706 19.0013 7.0025 19.0288 7.32951 18.9743C7.65651 18.9197 7.96484 18.7848 8.22678 18.5815C8.48872 18.3783 8.69607 18.1132 8.83018 17.81L8.88718 17.667C8.92813 17.5397 8.99418 17.4219 9.08145 17.3206C9.16871 17.2193 9.2754 17.1365 9.39522 17.0772C9.51503 17.0178 9.64553 16.9831 9.779 16.9751C9.91246 16.967 10.0462 16.9858 10.1723 17.0304C10.2983 17.0749 10.4142 17.1443 10.513 17.2344C10.6118 17.3245 10.6915 17.4335 10.7474 17.5549C10.8034 17.6764 10.8344 17.8078 10.8386 17.9415C10.8429 18.0751 10.8203 18.2082 10.7722 18.333C10.5471 18.9704 10.1641 19.5404 9.65911 19.9897C9.15409 20.4391 8.54346 20.7531 7.8842 20.9026C7.22495 21.0521 6.53857 21.0321 5.88914 20.8445C5.23971 20.6569 4.6484 20.3078 4.1704 19.8298C3.69241 19.3518 3.34331 18.7605 3.15571 18.111C2.9681 17.4616 2.9481 16.7752 3.09757 16.116C3.24703 15.4567 3.5611 14.8461 4.01045 14.3411C4.45979 13.836 5.02977 13.4531 5.66718 13.228ZM18.3332 13.228C18.9706 13.4531 19.5406 13.836 19.9899 14.3411C20.4393 14.8461 20.7533 15.4567 20.9028 16.116C21.0523 16.7752 21.0323 17.4616 20.8446 18.111C20.657 18.7605 20.3079 19.3518 19.83 19.8298C19.352 20.3078 18.7606 20.6569 18.1112 20.8445C17.4618 21.0321 16.7754 21.0521 16.1162 20.9026C15.4569 20.7531 14.8463 20.4391 14.3412 19.9897C13.8362 19.5404 13.4533 18.9704 13.2282 18.333C13.1442 18.0928 13.155 17.8295 13.2583 17.597C13.3617 17.3644 13.5498 17.18 13.7844 17.0813C14.019 16.9826 14.2824 16.9771 14.5209 17.0658C14.7595 17.1546 14.9552 17.331 15.0682 17.559L15.1142 17.667C15.2247 17.9796 15.4111 18.2598 15.6568 18.4824C15.9024 18.7051 16.1995 18.8633 16.5213 18.9427C16.8432 19.0221 17.1798 19.0203 17.5008 18.9375C17.8218 18.8546 18.1172 18.6933 18.3604 18.468C18.6037 18.2428 18.7871 17.9606 18.8943 17.6468C19.0015 17.3331 19.029 16.9977 18.9744 16.6707C18.9199 16.3437 18.7849 16.0353 18.5817 15.7734C18.3785 15.5115 18.1134 15.3041 17.8102 15.17L17.6672 15.114C17.5433 15.0703 17.4293 15.0026 17.3317 14.9148C17.234 14.827 17.1546 14.7208 17.0979 14.6023C16.9835 14.363 16.9689 14.0881 17.0572 13.838C17.1455 13.5879 17.3295 13.3831 17.5688 13.2687C17.8081 13.1543 18.0831 13.1397 18.3332 13.228ZM8.01118 6.64L8.11418 6.71L10.7722 8.778C11.1002 9.03321 11.4996 9.17987 11.9149 9.19761C12.3301 9.21536 12.7406 9.10329 13.0892 8.877L13.2282 8.778L15.8862 6.711C16.0701 6.56779 16.2982 6.49331 16.5312 6.50043C16.7641 6.50755 16.9873 6.59581 17.1621 6.74998C17.3369 6.90414 17.4523 7.11452 17.4885 7.34477C17.5247 7.57501 17.4793 7.81066 17.3602 8.011L17.2902 8.114L15.2222 10.772C14.967 11.1 14.8203 11.4994 14.8026 11.9147C14.7848 12.3299 14.8969 12.7404 15.1232 13.089L15.2222 13.228L17.2892 15.886C17.4324 16.0699 17.5069 16.298 17.4997 16.531C17.4926 16.7639 17.4044 16.9871 17.2502 17.1619C17.096 17.3367 16.8857 17.4522 16.6554 17.4883C16.4252 17.5245 16.1895 17.4791 15.9892 17.36L15.8862 17.29L13.2282 15.222C12.9001 14.9668 12.5007 14.8201 12.0855 14.8024C11.6702 14.7846 11.2598 14.8967 10.9112 15.123L10.7722 15.222L8.11418 17.289C7.93029 17.4322 7.70216 17.5067 7.4692 17.4996C7.23624 17.4925 7.01308 17.4042 6.83828 17.25C6.66348 17.0959 6.54802 16.8855 6.51185 16.6552C6.47568 16.425 6.52107 16.1893 6.64018 15.989L6.71018 15.886L8.77818 13.228C9.03338 12.9 9.18005 12.5006 9.19779 12.0853C9.21553 11.6701 9.10347 11.2596 8.87718 10.911L8.77818 10.772L6.71118 8.114C6.57418 7.93836 6.49975 7.72201 6.49969 7.49926C6.49963 7.27651 6.57394 7.06012 6.71084 6.8844C6.84774 6.70869 7.03938 6.58371 7.25538 6.52929C7.47138 6.47487 7.69936 6.49413 7.90318 6.584L8.01118 6.64ZM17.0002 3C17.9441 2.99957 18.8578 3.33297 19.5796 3.94125C20.3014 4.54952 20.7849 5.39347 20.9444 6.32382C21.104 7.25417 20.9294 8.21098 20.4515 9.02502C19.9737 9.83906 19.2233 10.4579 18.3332 10.772C18.0929 10.856 17.8297 10.8452 17.5971 10.7418C17.3646 10.6385 17.1801 10.4503 17.0815 10.2157C16.9828 9.98115 16.9773 9.71776 17.066 9.47924C17.1548 9.24072 17.3311 9.04501 17.5592 8.932L17.6672 8.886C17.9797 8.77549 18.26 8.58904 18.4826 8.34342C18.7053 8.0978 18.8635 7.80071 18.9429 7.47883C19.0223 7.15696 19.0205 6.82039 18.9377 6.49938C18.8548 6.17837 18.6935 5.88298 18.4682 5.63975C18.2429 5.39652 17.9608 5.21307 17.647 5.1059C17.3333 4.99872 16.9979 4.97117 16.6708 5.02573C16.3438 5.08029 16.0355 5.21525 15.7736 5.41847C15.5116 5.62169 15.3043 5.88681 15.1702 6.19L15.1142 6.333C15.0259 6.5831 14.8418 6.78787 14.6025 6.90227C14.3632 7.01667 14.0883 7.03132 13.8382 6.943C13.5881 6.85468 13.3833 6.67063 13.2689 6.43134C13.1545 6.19204 13.1399 5.9171 13.2282 5.667C13.504 4.88703 14.0149 4.21174 14.6904 3.73411C15.3659 3.25649 16.1729 3.00001 17.0002 3ZM7.00018 3C7.82749 3.00001 8.63446 3.25649 9.30997 3.73411C9.98549 4.21174 10.4963 4.88703 10.7722 5.667C10.8561 5.90725 10.8454 6.17048 10.742 6.40305C10.6387 6.63562 10.4505 6.82003 10.2159 6.91872C9.98133 7.0174 9.71794 7.02292 9.47942 6.93416C9.24089 6.8454 9.04519 6.66903 8.93218 6.441L8.88618 6.333C8.77566 6.02043 8.58922 5.74022 8.3436 5.51755C8.09798 5.29488 7.80088 5.13673 7.47901 5.0573C7.15713 4.97788 6.82057 4.97967 6.49956 5.06252C6.17855 5.14537 5.88316 5.30669 5.63992 5.53197C5.39669 5.75724 5.21325 6.03943 5.10607 6.35315C4.9989 6.66688 4.97135 7.00232 5.02591 7.32933C5.08047 7.65634 5.21542 7.96467 5.41864 8.22661C5.62186 8.48855 5.88698 8.69589 6.19018 8.83L6.33318 8.887C6.57605 8.98064 6.77284 9.1653 6.88173 9.40174C6.99062 9.63817 7.00302 9.90775 6.91631 10.1532C6.82959 10.3986 6.65059 10.6006 6.41734 10.7161C6.18409 10.8317 5.91497 10.8517 5.66718 10.772C4.77822 10.4568 4.02919 9.83774 3.5523 9.02401C3.0754 8.21029 2.90131 7.25425 3.06075 6.32465C3.22019 5.39505 3.7029 4.55166 4.4237 3.94336C5.14449 3.33505 6.057 3.00094 7.00018 3Z" fill="currentColor"/>
</svg>
