<svg width="24" height="24" viewBox="0 0 24 24" fill="none" xmlns="http://www.w3.org/2000/svg">
<path fill-rule="evenodd" clip-rule="evenodd" d="M11.9981 13.503L14.8771 15.165C15.3031 15.411 15.8001 15.505 16.2421 15.505C16.6851 15.505 17.1821 15.411 17.6091 15.165L18.1961 14.825V17C18.1961 17.1755 18.1499 17.348 18.0621 17.5C17.9744 17.652 17.8481 17.7782 17.6961 17.866L12.5001 20.866C12.3481 20.9538 12.1757 21 12.0001 21C11.8246 21 11.6521 20.9538 11.5001 20.866L6.30412 17.866C6.15211 17.7782 6.02587 17.652 5.93811 17.5C5.85034 17.348 5.80413 17.1755 5.80413 17V14.828L6.38713 15.165C6.81313 15.411 7.31012 15.505 7.75312 15.505C8.19512 15.505 8.69213 15.411 9.11913 15.165L11.9981 13.503ZM6.88713 3.5C7.32113 3.249 8.00212 3.226 8.48112 3.432L8.61913 3.5L11.9981 5.45L15.3771 3.5C15.8111 3.249 16.4921 3.226 16.9711 3.432L17.1091 3.5L21.3511 5.95C21.7981 6.207 21.8271 6.614 21.4411 6.892L21.3511 6.949L17.9731 8.899L21.3511 10.849C21.7981 11.107 21.8271 11.514 21.4411 11.792L21.3511 11.849L17.1091 14.299C16.6741 14.549 15.9931 14.572 15.5141 14.367L15.3771 14.299L11.9971 12.348L8.61913 14.298C8.18413 14.55 7.50313 14.572 7.02413 14.368L6.88713 14.298L2.64413 11.849C2.19713 11.592 2.16813 11.184 2.55413 10.907L2.64413 10.849L6.02213 8.9L2.64413 6.95C2.19713 6.693 2.16813 6.285 2.55413 6.008L2.64413 5.95L6.88713 3.5ZM12.4331 6.202C12.2281 6.083 11.9131 6.066 11.6781 6.151L11.5671 6.201L7.32412 8.651C7.11212 8.773 7.08813 8.964 7.25413 9.101L7.32412 9.151L11.5671 11.6C11.7721 11.718 12.0871 11.735 12.3221 11.65L12.4331 11.6L16.6761 9.15C16.8881 9.028 16.9121 8.838 16.7461 8.7L16.6761 8.65L12.4331 6.202Z" fill="currentColor"/>
</svg>
