<svg width="24" height="24" viewBox="0 0 24 24" fill="none" xmlns="http://www.w3.org/2000/svg">
<path fill-rule="evenodd" clip-rule="evenodd" d="M17.5564 2.607C17.7393 2.68012 17.9061 2.78857 18.0471 2.92614C18.1882 3.06372 18.3007 3.22774 18.3783 3.40882C18.456 3.5899 18.4972 3.7845 18.4996 3.98151C18.502 4.17852 18.4656 4.37407 18.3924 4.557L17.5644 6.627C17.2934 7.30469 17.1913 8.03814 17.2669 8.76409C17.3425 9.49003 17.5935 10.1867 17.9984 10.794L18.4964 11.542C19.1713 12.5541 19.5898 13.7152 19.7159 14.9251C19.8421 16.135 19.672 17.3575 19.2204 18.487L18.3924 20.557C18.3192 20.7399 18.2108 20.9067 18.0732 21.0477C17.9356 21.1887 17.7716 21.3012 17.5905 21.3789C17.4095 21.4565 17.2149 21.4977 17.0179 21.5001C16.8209 21.5025 16.6253 21.4661 16.4424 21.393C16.2595 21.3199 16.0927 21.2114 15.9517 21.0738C15.8107 20.9362 15.6982 20.7722 15.6205 20.5911C15.5429 20.4101 15.5017 20.2155 15.4993 20.0185C15.4968 19.8215 15.5332 19.6259 15.6064 19.443L16.4344 17.373C16.7054 16.6953 16.8075 15.9619 16.7319 15.2359C16.6563 14.51 16.4052 13.8133 16.0004 13.206L15.5024 12.458C14.8274 11.4458 14.4087 10.2845 14.2826 9.07441C14.1565 7.8643 14.3266 6.64168 14.7784 5.512L15.6064 3.442C15.7543 3.07269 16.0428 2.77725 16.4085 2.62066C16.7742 2.46407 17.1871 2.45915 17.5564 2.607ZM12.5564 2.607C12.7393 2.68012 12.9061 2.78857 13.0471 2.92614C13.1882 3.06372 13.3007 3.22774 13.3783 3.40882C13.456 3.5899 13.4972 3.7845 13.4996 3.98151C13.502 4.17852 13.4656 4.37407 13.3924 4.557L12.5644 6.627C12.2934 7.30469 12.1913 8.03814 12.2669 8.76409C12.3425 9.49003 12.5935 10.1867 12.9984 10.794L13.4964 11.542C14.1711 12.5542 14.5895 13.7153 14.7154 14.9252C14.8414 16.1351 14.6711 17.3575 14.2194 18.487L13.3924 20.557C13.3192 20.7399 13.2108 20.9067 13.0732 21.0477C12.9356 21.1887 12.7716 21.3012 12.5905 21.3789C12.2248 21.5356 11.8118 21.5407 11.4424 21.393C11.0729 21.2453 10.7773 20.9568 10.6205 20.5911C10.4638 20.2254 10.4587 19.8124 10.6064 19.443L11.4344 17.373C11.7054 16.6953 11.8075 15.9619 11.7319 15.2359C11.6563 14.51 11.4052 13.8133 11.0004 13.206L10.5024 12.458C9.82737 11.4458 9.40873 10.2845 9.2826 9.07441C9.15647 7.8643 9.32663 6.64168 9.77839 5.512L10.6064 3.442C10.7543 3.07269 11.0428 2.77725 11.4085 2.62066C11.7742 2.46407 12.1871 2.45915 12.5564 2.607ZM7.55639 2.607C7.73934 2.68012 7.9061 2.78857 8.04713 2.92614C8.18816 3.06372 8.30071 3.22774 8.37834 3.40882C8.45597 3.5899 8.49717 3.7845 8.49958 3.98151C8.50199 4.17852 8.46557 4.37407 8.39239 4.557L7.56439 6.627C7.29338 7.30469 7.19127 8.03814 7.26688 8.76409C7.34249 9.49003 7.59354 10.1867 7.99839 10.794L8.49639 11.542C9.17109 12.5542 9.58945 13.7153 9.71541 14.9252C9.84136 16.1351 9.67113 17.3575 9.21939 18.487L8.39239 20.557C8.31925 20.7399 8.21079 20.9067 8.0732 21.0477C7.93562 21.1887 7.77161 21.3012 7.59053 21.3789C7.40946 21.4565 7.21487 21.4977 7.01787 21.5001C6.82087 21.5025 6.62532 21.4661 6.44239 21.393C6.25946 21.3199 6.09273 21.2114 5.95171 21.0738C5.8107 20.9362 5.69816 20.7722 5.62054 20.5911C5.54291 20.4101 5.5017 20.2155 5.49927 20.0185C5.49685 19.8215 5.53325 19.6259 5.60639 19.443L6.43439 17.373C6.70541 16.6953 6.80751 15.9619 6.7319 15.2359C6.6563 14.51 6.40524 13.8133 6.00039 13.206L5.50239 12.458C4.82737 11.4458 4.40873 10.2845 4.2826 9.07441C4.15647 7.8643 4.32663 6.64168 4.77839 5.512L5.60639 3.442C5.75426 3.07269 6.04277 2.77725 6.40847 2.62066C6.77416 2.46407 7.18708 2.45915 7.55639 2.607Z" fill="currentColor"/>
</svg>
