<svg width="24" height="24" viewBox="0 0 24 24" fill="none" xmlns="http://www.w3.org/2000/svg">
<path d="M11.9998 2C10.9818 1.99988 9.97605 2.22181 9.05263 2.65029C8.12921 3.07878 7.31035 3.70352 6.65316 4.48096C5.99597 5.25839 5.51625 6.16982 5.24745 7.15168C4.97865 8.13355 4.92725 9.16223 5.09682 10.166C5.15382 10.508 5.28382 10.843 5.47982 11.141C5.79582 11.778 6.26182 12.348 6.86282 12.885L7.02282 13.025C7.47282 13.418 7.99982 13.878 7.99982 14.5V14.553C8.37982 14.212 8.77682 13.906 9.14682 13.633C9.30182 13.517 9.44882 13.411 9.58782 13.309C9.87782 13.099 10.1348 12.911 10.3748 12.719L10.5848 12.551C12.0448 11.385 12.7668 10.809 13.0298 9.757C13.2108 9.033 13.0318 8.624 12.8398 8.397C12.7351 8.27604 12.6063 8.17825 12.4617 8.10989C12.3171 8.04154 12.1597 8.00411 11.9998 8C11.778 7.99983 11.5624 8.07343 11.387 8.2092C11.2116 8.34497 11.0863 8.53522 11.0308 8.75C11.0003 8.87962 10.9443 9.00185 10.8659 9.10952C10.7876 9.21719 10.6885 9.30813 10.5746 9.37699C10.4606 9.44586 10.334 9.49128 10.2023 9.51057C10.0705 9.52987 9.93623 9.52265 9.8073 9.48936C9.67837 9.45606 9.5574 9.39735 9.45146 9.31667C9.34553 9.23599 9.25678 9.13496 9.19041 9.01952C9.12405 8.90408 9.08141 8.77654 9.06499 8.6444C9.04857 8.51226 9.05872 8.37817 9.09482 8.25C9.2611 7.60599 9.63669 7.0355 10.1625 6.62821C10.6884 6.22093 11.3347 5.99994 11.9998 6C12.8288 6 13.7388 6.366 14.3638 7.103C15.0208 7.876 15.2888 8.967 14.9698 10.243C14.5358 11.979 13.2688 12.98 11.9868 13.993L11.6248 14.281C11.3478 14.502 11.0288 14.734 10.7198 14.959L10.3368 15.239C9.90182 15.562 9.49082 15.884 9.13282 16.231C8.47682 16.867 8.06682 17.519 8.00682 18.301C8.12282 20.622 9.56082 22 10.9998 22C13.1558 22 14.8328 20.5 14.9978 18.068C15.0828 16.805 15.5278 15.928 16.0988 15.129C16.3428 14.788 16.6088 14.462 16.8728 14.136C17.2978 13.612 17.7228 13.088 18.0628 12.501C18.6775 11.4368 19.0011 10.2295 19.0012 9.00052C19.0013 7.77154 18.6778 6.56421 18.0633 5.49989C17.4488 4.43558 16.5649 3.55181 15.5006 2.93744C14.4362 2.32307 13.2288 1.99975 11.9998 2Z" fill="currentColor"/>
</svg>
