<svg width="24" height="24" viewBox="0 0 24 24" fill="none" xmlns="http://www.w3.org/2000/svg">
<path d="M13.649 2.135C12.5571 1.95376 11.4428 1.95376 10.351 2.135C10.015 2.591 9.68695 3.18 9.38796 3.899C9.10596 4.575 8.85796 5.345 8.65196 6.19C9.72196 6.066 10.845 6 12 6C13.155 6 14.278 6.066 15.348 6.19C15.1624 5.40885 14.9167 4.64323 14.613 3.9C14.313 3.18 13.985 2.59 13.649 2.135ZM15.742 8.258C14.5022 8.08421 13.2518 7.998 12 8C10.682 8 9.42396 8.092 8.25796 8.258C8.08417 9.49773 7.99795 10.7482 7.99996 12C7.99996 13.318 8.09196 14.576 8.25796 15.742C9.42396 15.908 10.682 16 12 16C13.318 16 14.576 15.909 15.742 15.742C15.908 14.576 16 13.318 16 12C16 10.682 15.909 9.424 15.742 8.258ZM17.81 15.348C17.934 14.278 18 13.155 18 12C18 10.845 17.934 9.722 17.81 8.652C18.5911 8.83792 19.3567 9.08398 20.1 9.388C20.82 9.688 21.41 10.015 21.865 10.351C22.0462 11.4429 22.0462 12.5571 21.865 13.649C21.41 13.985 20.82 14.313 20.101 14.613C19.425 14.894 18.655 15.143 17.81 15.348ZM15.348 17.81C14.278 17.934 13.155 18 12 18C10.845 18 9.72196 17.934 8.65196 17.81C8.85796 18.655 9.10596 19.425 9.38796 20.1C9.68796 20.82 10.015 21.41 10.351 21.865C11.4428 22.0463 12.5571 22.0463 13.649 21.865C13.985 21.41 14.313 20.82 14.613 20.101C14.894 19.425 15.143 18.655 15.348 17.81ZM16.414 20.976L16.459 20.87C16.874 19.874 17.217 18.727 17.473 17.473C18.5002 17.2687 19.5089 16.9804 20.489 16.611L20.976 16.414C19.9985 18.3951 18.395 19.9985 16.414 20.976ZM7.58596 20.976L7.54096 20.87C7.12596 19.874 6.78296 18.727 6.52696 17.473C5.49973 17.2687 4.49101 16.9804 3.51096 16.611L3.02396 16.414C4.00144 18.3951 5.6049 19.9985 7.58596 20.976ZM6.18996 15.348C6.06224 14.2366 5.9988 13.1187 5.99996 12C5.99996 10.845 6.06596 9.722 6.18996 8.652C5.34496 8.858 4.57496 9.106 3.89996 9.388C3.17996 9.688 2.58996 10.015 2.13496 10.351C1.95371 11.4429 1.95371 12.5571 2.13496 13.649C2.59096 13.985 3.17996 14.313 3.89896 14.613C4.57496 14.894 5.34496 15.143 6.18996 15.348ZM6.52696 6.528C6.73146 5.50006 7.0201 4.49066 7.38996 3.51L7.58696 3.023C5.6059 4.00049 4.00244 5.60394 3.02496 7.585L3.13096 7.54C4.12696 7.125 5.27396 6.782 6.52796 6.526M17.474 6.526C17.2697 5.49843 16.9814 4.48938 16.612 3.509L16.415 3.022C18.396 3.99949 19.9995 5.60294 20.977 7.584L20.871 7.539C19.875 7.124 18.728 6.782 17.474 6.526Z" fill="currentColor"/>
</svg>
