<svg width="24" height="24" viewBox="0 0 24 24" fill="none" xmlns="http://www.w3.org/2000/svg">
<path d="M8.393 2.67C7.883 3.172 7.423 3.76 7.026 4.401C5.795 6.381 5 9.067 5 12.001C5 14.946 5.847 17.633 7.1 19.607C7.50406 20.2519 7.98269 20.847 8.526 21.38C6.61066 20.6698 4.95863 19.3903 3.79199 17.7134C2.62534 16.0366 1.99999 14.0428 2 12C2 7.75 4.653 4.117 8.393 2.67ZM11 3.236V20.735C10.29 20.381 9.505 19.665 8.788 18.535C7.745 16.892 7 14.578 7 12C7 9.41 7.705 7.096 8.724 5.457C9.385 4.394 10.121 3.693 10.824 3.322L11 3.236ZM15.607 2.67C17.4895 3.39862 19.1075 4.67967 20.2485 6.34485C21.3895 8.01002 22.0001 9.98142 22 12C22 16.251 19.347 19.883 15.607 21.33C16.117 20.828 16.577 20.24 16.974 19.6C18.205 17.618 19 14.932 19 12C19 9.068 18.205 6.381 16.974 4.401C16.588 3.77256 16.1291 3.19087 15.607 2.67ZM13 3.236C13.755 3.579 14.56 4.306 15.276 5.457C16.295 7.097 17 9.411 17 12C17 14.59 16.295 16.904 15.276 18.543C14.615 19.606 13.879 20.307 13.176 20.679L13 20.765V3.235V3.236Z" fill="currentColor"/>
</svg>
