<svg width="24" height="24" viewBox="0 0 24 24" fill="none" xmlns="http://www.w3.org/2000/svg">
<path d="M21.8147 13.925C21.4454 15.8011 20.5467 17.5323 19.2247 18.9138C17.9027 20.2954 16.2128 21.2695 14.3547 21.721C14.8647 21.119 15.3067 20.339 15.6737 19.454C16.0387 18.574 16.3437 17.553 16.5697 16.434C18.2467 16.002 19.7657 15.338 21.0397 14.489C21.3077 14.31 21.5667 14.122 21.8147 13.925ZM2.18473 13.925C2.43273 14.122 2.69173 14.31 2.95973 14.489C4.23273 15.338 5.75173 16.002 7.42973 16.434C7.65473 17.553 7.95973 18.574 8.32573 19.454C8.69173 20.338 9.13373 21.119 9.64373 21.721C7.78586 21.2693 6.09616 20.2951 4.77436 18.9136C3.45257 17.5321 2.55395 15.801 2.18473 13.925ZM14.4267 16.845C14.271 17.4733 14.0702 18.0896 13.8257 18.689C13.4787 19.527 13.0967 20.144 12.7347 20.535C12.3647 20.935 12.1107 21 11.9997 21C11.8887 21 11.6357 20.935 11.2647 20.535C10.9027 20.145 10.5207 19.527 10.1737 18.689C9.92929 18.0896 9.72843 17.4733 9.57273 16.845C10.3607 16.947 11.1727 17 11.9997 17C12.8112 17.0005 13.6219 16.9487 14.4267 16.845ZM14.9627 10.729C15.041 12.0755 14.9934 13.4263 14.8207 14.764C13.9237 14.918 12.9777 15 11.9997 15C11.0541 15.0011 10.1101 14.9221 9.17773 14.764C9.00255 13.4265 8.95533 12.0754 9.03673 10.729C9.98273 10.906 10.9767 11 11.9997 11C12.9936 11.0011 13.9855 10.9104 14.9627 10.729ZM21.0657 7.77501C21.5257 8.76101 21.8307 9.83501 21.9457 10.964C21.4447 11.637 20.7687 12.266 19.9297 12.824C19.0597 13.404 18.0337 13.894 16.8907 14.261C17.0212 12.9164 17.0352 11.563 16.9327 10.216C17.8768 9.90216 18.7781 9.47185 19.6157 8.93501C20.1372 8.59853 20.623 8.20987 21.0657 7.77501ZM2.93373 7.77501C3.36373 8.20201 3.85373 8.59001 4.38373 8.93501C5.22126 9.47203 6.12256 9.90236 7.06673 10.216C6.96456 11.563 6.97828 12.9163 7.10773 14.261C5.96473 13.894 4.93873 13.405 4.06873 12.825C3.23073 12.266 2.55473 11.637 2.05273 10.964C2.16873 9.83401 2.47273 8.76101 2.93273 7.77401L2.93373 7.77501ZM11.9997 3.00001C12.1097 3.00001 12.3637 3.06601 12.7347 3.46601C13.0967 3.85601 13.4787 4.47401 13.8257 5.31201C14.2157 6.25501 14.5397 7.42001 14.7477 8.73301C13.8857 8.90601 12.9627 9.00001 11.9997 9.00001C11.0768 9.00177 10.156 8.91233 9.25073 8.73301C9.45873 7.42001 9.78273 6.25501 10.1737 5.31301C10.5207 4.47401 10.9027 3.85701 11.2637 3.46601C11.6357 3.06601 11.8887 3.00001 11.9997 3.00001ZM14.3547 2.27901C16.6084 2.82637 18.602 4.13953 19.9947 5.99401C19.5687 6.4841 19.0739 6.90986 18.5257 7.25801C17.9462 7.63009 17.3287 7.93949 16.6837 8.18101C16.4527 6.82001 16.1037 5.58601 15.6737 4.54701C15.3067 3.66201 14.8657 2.88101 14.3547 2.27901ZM9.64473 2.27901C9.13474 2.88101 8.69273 3.66201 8.32573 4.54701C7.89573 5.58701 7.54573 6.82001 7.31573 8.18101C6.67075 7.9395 6.05328 7.6301 5.47373 7.25801C4.92524 6.90991 4.43009 6.48415 4.00373 5.99401C5.39669 4.13934 7.39068 2.82616 9.64473 2.27901Z" fill="currentColor"/>
</svg>
