<svg width="24" height="24" viewBox="0 0 24 24" fill="none" xmlns="http://www.w3.org/2000/svg">
<path d="M18.0001 17C18.5423 17.0001 19.0742 17.1471 19.5395 17.4253C20.0048 17.7036 20.386 18.1028 20.6425 18.5804C20.8991 19.058 21.0214 19.5962 20.9965 20.1377C20.9717 20.6793 20.8005 21.204 20.5012 21.6561C20.2019 22.1081 19.7857 22.4706 19.2969 22.7051C18.808 22.9395 18.2648 23.037 17.7249 22.9874C17.1851 22.9377 16.6688 22.7427 16.2309 22.4231C15.793 22.1034 15.4499 21.6711 15.2381 21.172L15.1701 21H14.0001C13.7452 20.9997 13.5001 20.9021 13.3147 20.7272C13.1294 20.5522 13.0179 20.313 13.0029 20.0586C12.988 19.8042 13.0708 19.5536 13.2344 19.3582C13.398 19.1627 13.63 19.0371 13.8831 19.007L14.0001 19H15.1701C15.3771 18.4149 15.7604 17.9084 16.2673 17.5502C16.7741 17.1921 17.3795 16.9998 18.0001 17ZM20.0001 3C20.2653 3 20.5197 3.10536 20.7072 3.29289C20.8948 3.48043 21.0001 3.73478 21.0001 4C21.0001 4.26522 20.8948 4.51957 20.7072 4.70711C20.5197 4.89464 20.2653 5 20.0001 5C18.3951 5 17.1521 5.78 16.0181 7.14C15.0361 8.319 14.2061 9.85 13.3581 11.522L12.3681 13.496C11.5301 15.146 10.6221 16.816 9.51811 18.14C8.15211 19.78 6.39511 21 4.00011 21C3.73489 21 3.48054 20.8946 3.293 20.7071C3.10547 20.5196 3.00011 20.2652 3.00011 20C3.00011 19.7348 3.10547 19.4804 3.293 19.2929C3.48054 19.1054 3.73489 19 4.00011 19C5.60511 19 6.84811 18.22 7.98211 16.86C8.96411 15.681 9.79411 14.15 10.6421 12.478L11.6321 10.504C12.4701 8.854 13.3781 7.184 14.4821 5.86C15.8481 4.22 17.6051 3 20.0001 3ZM11.0001 19C11.255 19.0003 11.5001 19.0979 11.6855 19.2728C11.8708 19.4478 11.9823 19.687 11.9973 19.9414C12.0122 20.1958 11.9294 20.4464 11.7658 20.6418C11.6023 20.8373 11.3702 20.9629 11.1171 20.993L11.0001 21H10.0001C9.74523 20.9997 9.50008 20.9021 9.31474 20.7272C9.12941 20.5522 9.01787 20.313 9.00294 20.0586C8.988 19.8042 9.07078 19.5536 9.23437 19.3582C9.39796 19.1627 9.63001 19.0371 9.88311 19.007L10.0001 19H11.0001ZM6.00011 1C7.30611 1 8.41711 1.835 8.83011 3H10.0001C10.2653 3 10.5197 3.10536 10.7072 3.29289C10.8948 3.48043 11.0001 3.73478 11.0001 4C11.0001 4.26522 10.8948 4.51957 10.7072 4.70711C10.5197 4.89464 10.2653 5 10.0001 5H8.83011C8.64694 5.51885 8.32465 5.97736 7.89848 6.32539C7.4723 6.67343 6.95864 6.8976 6.41365 6.97339C5.86866 7.04919 5.31333 6.97369 4.80836 6.75515C4.30338 6.53661 3.86821 6.18345 3.55042 5.73427C3.23262 5.28509 3.04444 4.75718 3.00643 4.20827C2.96843 3.65935 3.08208 3.11054 3.33494 2.62186C3.58781 2.13317 3.97016 1.72341 4.4402 1.43737C4.91024 1.15133 5.44988 1.00003 6.00011 1ZM14.0001 3C14.2653 3 14.5197 3.10536 14.7072 3.29289C14.8948 3.48043 15.0001 3.73478 15.0001 4C15.0001 4.26522 14.8948 4.51957 14.7072 4.70711C14.5197 4.89464 14.2653 5 14.0001 5H13.0001C12.7349 5 12.4805 4.89464 12.293 4.70711C12.1055 4.51957 12.0001 4.26522 12.0001 4C12.0001 3.73478 12.1055 3.48043 12.293 3.29289C12.4805 3.10536 12.7349 3 13.0001 3H14.0001Z" fill="currentColor"/>
</svg>
