<svg width="24" height="24" viewBox="0 0 24 24" fill="none" xmlns="http://www.w3.org/2000/svg">
<path d="M19 17C19.5421 17.0001 20.0741 17.147 20.5394 17.4253C21.0047 17.7036 21.3859 18.1027 21.6424 18.5803C21.899 19.0579 22.0213 19.5961 21.9964 20.1377C21.9715 20.6793 21.8004 21.204 21.5011 21.6561C21.2018 22.1081 20.7856 22.4706 20.2968 22.705C19.8079 22.9395 19.2647 23.037 18.7248 22.9874C18.185 22.9377 17.6686 22.7427 17.2308 22.4231C16.7929 22.1034 16.4498 21.6711 16.238 21.172L16.17 21H15C14.7451 20.9997 14.5 20.9021 14.3146 20.7271C14.1293 20.5522 14.0178 20.313 14.0028 20.0586C13.9879 19.8042 14.0707 19.5536 14.2343 19.3582C14.3979 19.1627 14.6299 19.0371 14.883 19.007L15 19H16.17C16.377 18.4149 16.7603 17.9084 17.2671 17.5502C17.774 17.192 18.3794 16.9998 19 17ZM19.106 3.55299C19.1622 3.43141 19.2422 3.32235 19.3413 3.23229C19.4404 3.14222 19.5566 3.07298 19.683 3.02867C19.8094 2.98436 19.9433 2.96589 20.077 2.97435C20.2107 2.98281 20.3412 3.01803 20.461 3.07792C20.5808 3.13782 20.6874 3.22116 20.7743 3.32301C20.8613 3.42485 20.9269 3.54313 20.9673 3.67082C21.0077 3.79851 21.022 3.93301 21.0094 4.06634C20.9968 4.19967 20.9576 4.32912 20.894 4.44699L20.52 5.17799L20.044 6.06799L19.632 6.80699L19.278 7.42699L18.885 8.09299L18.602 8.56099L18.149 9.29199L17.828 9.79599L17.492 10.312L17.142 10.836L16.778 11.366L16.401 11.902L16.011 12.44L15.609 12.98C14.113 14.953 12.349 16.935 10.417 18.431C8.494 19.921 6.312 21 4 21C3.73478 21 3.48043 20.8946 3.29289 20.7071C3.10536 20.5196 3 20.2652 3 20C3 19.7348 3.10536 19.4804 3.29289 19.2929C3.48043 19.1053 3.73478 19 4 19C5.688 19 7.444 18.204 9.192 16.85C10.932 15.502 12.575 13.672 14.016 11.77L14.215 11.506L14.605 10.975L14.982 10.445L15.346 9.91999L15.696 9.39999L16.033 8.88999L16.51 8.14099L16.953 7.42399L17.487 6.52599L17.844 5.90699L18.256 5.16799L18.666 4.40599L19.106 3.55299ZM12 19C12.2549 19.0003 12.5 19.0979 12.6854 19.2728C12.8707 19.4478 12.9822 19.6869 12.9972 19.9414C13.0121 20.1958 12.9293 20.4464 12.7657 20.6418C12.6021 20.8373 12.3701 20.9629 12.117 20.993L12 21H11C10.7451 20.9997 10.5 20.9021 10.3146 20.7271C10.1293 20.5522 10.0178 20.313 10.0028 20.0586C9.98789 19.8042 10.0707 19.5536 10.2343 19.3582C10.3979 19.1627 10.6299 19.0371 10.883 19.007L11 19H12Z" fill="currentColor"/>
</svg>
