<svg width="24" height="24" viewBox="0 0 24 24" fill="none" xmlns="http://www.w3.org/2000/svg">
<path d="M19.9999 3C20.2651 3 20.5194 3.10536 20.707 3.29289C20.8945 3.48043 20.9999 3.73478 20.9999 4C20.9999 4.26522 20.8945 4.51957 20.707 4.70711C20.5194 4.89464 20.2651 5 19.9999 5C18.3119 5 16.5559 5.796 14.8079 7.15C13.0679 8.497 11.4249 10.328 9.98387 12.23L9.76387 12.523L9.33287 13.112L8.91787 13.698L8.51787 14.278L8.13687 14.851L7.77187 15.413L7.42587 15.96L6.94287 16.748L6.64487 17.248L6.23787 17.95L5.87787 18.588L5.47887 19.32L4.97287 20.291L4.89387 20.447C4.83693 20.5674 4.75651 20.6753 4.65732 20.7642C4.55813 20.8531 4.44217 20.9214 4.31625 20.9649C4.19033 21.0083 4.05699 21.0262 3.92406 21.0175C3.79113 21.0087 3.66129 20.9735 3.54217 20.9139C3.42304 20.8542 3.31703 20.7714 3.23036 20.6702C3.14368 20.5691 3.0781 20.4516 3.03746 20.3247C2.99681 20.1979 2.98193 20.0642 2.99367 19.9315C3.00542 19.7988 3.04357 19.6698 3.10587 19.552L3.52787 18.73L3.89087 18.052L4.35087 17.221L4.75787 16.511L5.21487 15.741L5.54487 15.199L6.07887 14.349L6.45887 13.763L6.85787 13.164L7.27487 12.557L7.70887 11.944L7.93187 11.637L8.39087 11.021C9.88687 9.047 11.6509 7.065 13.5829 5.569C15.5059 4.079 17.6879 3 19.9999 3ZM4.99987 1C6.30587 1 7.41687 1.835 7.82987 3H8.99987C9.26508 3 9.51944 3.10536 9.70697 3.29289C9.89451 3.48043 9.99987 3.73478 9.99987 4C9.99987 4.26522 9.89451 4.51957 9.70697 4.70711C9.51944 4.89464 9.26508 5 8.99987 5H7.82987C7.6467 5.51885 7.32441 5.97736 6.89823 6.32539C6.47206 6.67343 5.9584 6.8976 5.41341 6.97339C4.86842 7.04919 4.31308 6.97369 3.80811 6.75515C3.30314 6.53661 2.86797 6.18345 2.55017 5.73427C2.23238 5.28509 2.04419 4.75718 2.00619 4.20827C1.96819 3.65935 2.08183 3.11054 2.3347 2.62186C2.58756 2.13317 2.96992 1.72341 3.43996 1.43737C3.91 1.15133 4.44963 1.00003 4.99987 1ZM12.9999 3C13.2651 3 13.5194 3.10536 13.707 3.29289C13.8945 3.48043 13.9999 3.73478 13.9999 4C13.9999 4.26522 13.8945 4.51957 13.707 4.70711C13.5194 4.89464 13.2651 5 12.9999 5H11.9999C11.7346 5 11.4803 4.89464 11.2928 4.70711C11.1052 4.51957 10.9999 4.26522 10.9999 4C10.9999 3.73478 11.1052 3.48043 11.2928 3.29289C11.4803 3.10536 11.7346 3 11.9999 3H12.9999Z" fill="currentColor"/>
</svg>
