<svg width="24" height="24" viewBox="0 0 24 24" fill="none" xmlns="http://www.w3.org/2000/svg">
<path fill-rule="evenodd" clip-rule="evenodd" d="M14.098 5.54C15.522 3.83 17.408 2.5 20 2.5C20.3978 2.5 20.7794 2.65804 21.0607 2.93934C21.342 3.22064 21.5 3.60218 21.5 4C21.5 4.39782 21.342 4.77936 21.0607 5.06066C20.7794 5.34196 20.3978 5.5 20 5.5C18.593 5.5 17.478 6.17 16.402 7.46C15.286 8.8 14.362 10.628 13.342 12.67L13.296 12.762C12.33 14.695 11.265 16.826 9.902 18.46C8.478 20.17 6.592 21.5 4 21.5C3.60218 21.5 3.22064 21.342 2.93934 21.0607C2.65804 20.7794 2.5 20.3978 2.5 20C2.5 19.6022 2.65804 19.2206 2.93934 18.9393C3.22064 18.658 3.60218 18.5 4 18.5C5.407 18.5 6.522 17.83 7.598 16.54C8.714 15.2 9.638 13.372 10.658 11.33L10.704 11.238C11.67 9.305 12.735 7.174 14.098 5.54Z" fill="currentColor"/>
</svg>
