<svg width="24" height="24" viewBox="0 0 24 24" fill="none" xmlns="http://www.w3.org/2000/svg">
<path d="M14 3C14.5304 3 15.0391 3.21071 15.4142 3.58579C15.7893 3.96086 16 4.46957 16 5H19C19.5304 5 20.0391 5.21071 20.4142 5.58579C20.7893 5.96086 21 6.46957 21 7V9C21.0002 9.44532 20.8518 9.87798 20.5783 10.2294C20.3047 10.5808 19.9218 10.8309 19.49 10.94L21.92 16.606C21.997 16.788 22.007 16.995 22.005 17.199L22 17.5C22.0003 18.2949 21.7301 19.0663 21.2336 19.6872C20.7372 20.3081 20.0442 20.7415 19.2687 20.9161C18.4932 21.0907 17.6813 20.996 16.9667 20.6478C16.2521 20.2995 15.6773 19.7184 15.337 19H9.663C9.3412 19.6799 8.80894 20.238 8.14508 20.5916C7.48122 20.9453 6.72109 21.0757 5.97733 20.9635C5.23356 20.8512 4.54573 20.5024 4.01577 19.9686C3.4858 19.4349 3.14189 18.7445 3.035 18H3C2.73478 18 2.48043 17.8946 2.29289 17.7071C2.10536 17.5196 2 17.2652 2 17V9C2 8.46957 2.21071 7.96086 2.58579 7.58579C2.96086 7.21071 3.46957 7 4 7H8C8.53043 7 9.03914 7.21071 9.41421 7.58579C9.78929 7.96086 10 8.46957 10 9V11C10 11.5304 10.2107 12.0391 10.5858 12.4142C10.9609 12.7893 11.4696 13 12 13C12.5304 13 13.0391 12.7893 13.4142 12.4142C13.7893 12.0391 14 11.5304 14 11V5H12C11.7348 5 11.4804 4.89464 11.2929 4.70711C11.1054 4.51957 11 4.26522 11 4C11 3.73478 11.1054 3.48043 11.2929 3.29289C11.4804 3.10536 11.7348 3 12 3H14ZM6.5 16C6.10218 16 5.72064 16.158 5.43934 16.4393C5.15804 16.7206 5 17.1022 5 17.5C5 17.8978 5.15804 18.2794 5.43934 18.5607C5.72064 18.842 6.10218 19 6.5 19C6.89782 19 7.27936 18.842 7.56066 18.5607C7.84196 18.2794 8 17.8978 8 17.5C8 17.1022 7.84196 16.7206 7.56066 16.4393C7.27936 16.158 6.89782 16 6.5 16ZM18.5 16C18.2033 16 17.9133 16.088 17.6666 16.2528C17.42 16.4176 17.2277 16.6519 17.1142 16.926C17.0007 17.2001 16.9709 17.5017 17.0288 17.7926C17.0867 18.0836 17.2296 18.3509 17.4393 18.5607C17.6491 18.7704 17.9164 18.9133 18.2074 18.9712C18.4983 19.0291 18.7999 18.9993 19.074 18.8858C19.3481 18.7723 19.5824 18.58 19.7472 18.3334C19.912 18.0867 20 17.7967 20 17.5C20 16.704 19.299 16 18.5 16ZM8 9H4V11H8V9ZM19 7H16V9H19V7Z" fill="currentColor"/>
</svg>
