<svg width="24" height="24" viewBox="0 0 24 24" fill="none" xmlns="http://www.w3.org/2000/svg">
<path d="M10.1836 11.77C10.2126 12.83 10.7866 14.104 12.1396 15.232C13.3166 16.212 15.3526 17 16.9996 17C17.5619 17.0001 18.1223 16.933 18.6686 16.8C18.8732 16.7501 19.0883 16.7661 19.2833 16.8457C19.4783 16.9252 19.6432 17.0643 19.7544 17.2431C19.8657 17.4219 19.9177 17.6312 19.903 17.8413C19.8883 18.0514 19.8077 18.2514 19.6726 18.413C18.0714 20.3313 15.8092 21.5798 13.3326 21.912C13.2293 21.9267 13.1242 21.9219 13.0226 21.898C10.8836 21.37 8.49962 18.688 8.49962 16C8.49962 13.626 9.33962 12.355 10.1836 11.77ZM9.47762 8.039C10.3292 8.17429 11.1033 8.61249 11.6576 9.273C11.1555 9.2944 10.6591 9.38803 10.1836 9.551C8.17662 10.221 6.49962 12.388 6.49962 16C6.49962 18.537 7.69862 20.266 9.27062 21.623C5.28362 20.494 2.30862 16.956 2.02262 12.679C2.00662 12.4459 2.08193 12.2156 2.23262 12.037L2.40262 11.841L2.72662 11.483L2.99362 11.202L3.14262 11.048L3.47462 10.715L3.85262 10.346L4.06062 10.149C5.97062 8.346 7.96062 7.781 9.47762 8.039ZM11.9996 2C16.7596 2 20.7416 5.325 21.7516 9.779C22.1116 11.364 21.6386 12.604 20.9246 13.467C20.3668 14.1309 19.6469 14.6394 18.8346 14.943C17.8696 15.284 16.7846 15.27 15.9226 15.119C15.1526 14.984 14.1926 14.724 13.7196 14.047C13.5854 13.8551 13.5227 13.6221 13.5427 13.3887C13.5626 13.1554 13.6638 12.9364 13.8286 12.77C14.3136 12.28 14.5376 11.775 14.5706 11.323C14.582 11.1418 14.5669 10.9598 14.5256 10.783C13.9436 8.163 12.1396 6.462 9.81262 6.067C7.05262 5.598 4.43362 7.024 2.49762 8.875C3.80962 4.883 7.56762 2 11.9996 2Z" fill="currentColor"/>
</svg>
