<svg width="24" height="24" viewBox="0 0 24 24" fill="none" xmlns="http://www.w3.org/2000/svg">
<path d="M15 2.99999C16.296 2.99999 17.496 3.40999 18.477 4.10999L9.343 13.243C9.24749 13.3352 9.17131 13.4456 9.1189 13.5676C9.06649 13.6896 9.0389 13.8208 9.03775 13.9536C9.0366 14.0864 9.0619 14.218 9.11218 14.3409C9.16246 14.4638 9.23671 14.5755 9.3306 14.6694C9.4245 14.7633 9.53615 14.8375 9.65905 14.8878C9.78194 14.9381 9.91362 14.9634 10.0464 14.9622C10.1792 14.9611 10.3104 14.9335 10.4324 14.8811C10.5544 14.8287 10.6648 14.7525 10.757 14.657L19.891 5.52299C20.6141 6.53802 21.0019 7.75371 21 8.99999V19C21 19.5304 20.7893 20.0391 20.4142 20.4142C20.0391 20.7893 19.5304 21 19 21H5C4.46957 21 3.96086 20.7893 3.58579 20.4142C3.21071 20.0391 3 19.5304 3 19V4.99999C3 4.46955 3.21071 3.96085 3.58579 3.58577C3.96086 3.2107 4.46957 2.99999 5 2.99999H15ZM21.657 2.34299C21.8445 2.53052 21.9498 2.78482 21.9498 3.04999C21.9498 3.31515 21.8445 3.56946 21.657 3.75699L19.89 5.52299C19.5006 4.9763 19.0227 4.49841 18.476 4.10899L20.242 2.34299C20.4295 2.15552 20.6838 2.0502 20.949 2.0502C21.2142 2.0502 21.4695 2.15552 21.657 2.34299Z" fill="currentColor"/>
</svg>
