<svg width="24" height="24" viewBox="0 0 24 24" fill="none" xmlns="http://www.w3.org/2000/svg">
<path fill-rule="evenodd" clip-rule="evenodd" d="M14.535 12.225L18.777 16.468L14.534 20.711C14.3465 20.8986 14.0922 21.0039 13.827 21.004H11C10.7348 21.004 10.4804 20.8986 10.2929 20.7111C10.1054 20.5236 10 20.2692 10 20.004V17.175C10.0001 16.9098 10.1055 16.6555 10.293 16.468L14.535 12.225ZM17 2C17.5046 1.99984 17.9906 2.19041 18.3605 2.5335C18.7305 2.87659 18.9572 3.34684 18.995 3.85L19 4V8.02C18.2445 7.87669 17.4662 7.90969 16.7255 8.11644C15.9849 8.32319 15.302 8.69811 14.73 9.212L14.534 9.397L8.878 15.054C8.36391 15.5682 8.05403 16.2515 8.006 16.977L7.999 17.175V20.004C7.99908 20.2757 8.03609 20.5462 8.109 20.808L8.169 21H5C4.49542 21.0002 4.00943 20.8096 3.63945 20.4665C3.26947 20.1234 3.04284 19.6532 3.005 19.15L3 19V4C2.99984 3.49542 3.19041 3.00943 3.5335 2.63945C3.87659 2.26947 4.34684 2.04284 4.85 2.005L5 2H17ZM20.191 10.811C20.4696 11.0896 20.6907 11.4203 20.8414 11.7843C20.9922 12.1483 21.0699 12.5385 21.0699 12.9325C21.0699 13.3265 20.9922 13.7167 20.8414 14.0807C20.6907 14.4447 20.4696 14.7754 20.191 15.054L15.95 10.81C16.5126 10.2476 17.2755 9.93164 18.071 9.93164C18.8665 9.93164 19.6294 10.2476 20.192 10.81L20.191 10.811ZM11 6H7C6.73478 6 6.48043 6.10536 6.29289 6.29289C6.10536 6.48043 6 6.73478 6 7C6 7.26522 6.10536 7.51957 6.29289 7.70711C6.48043 7.89464 6.73478 8 7 8H11C11.2652 8 11.5196 7.89464 11.7071 7.70711C11.8946 7.51957 12 7.26522 12 7C12 6.73478 11.8946 6.48043 11.7071 6.29289C11.5196 6.10536 11.2652 6 11 6Z" fill="currentColor"/>
</svg>
