<svg width="24" height="24" viewBox="0 0 24 24" fill="none" xmlns="http://www.w3.org/2000/svg">
<path d="M16.7241 3.03C16.349 2.65506 15.8404 2.44443 15.3101 2.44443C14.7798 2.44443 14.2711 2.65506 13.8961 3.03L3.58209 13.344C3.20699 13.719 2.99621 14.2276 2.99609 14.758V19.991C2.99609 20.548 3.44909 21.001 4.00609 21.001L20.0001 21C20.2653 21 20.5197 20.8946 20.7072 20.7071C20.8947 20.5196 21.0001 20.2652 21.0001 20C21.0001 19.7348 20.8947 19.4804 20.7072 19.2929C20.5197 19.1054 20.2653 19 20.0001 19H12.0681L20.9671 10.101C21.342 9.72594 21.5527 9.21733 21.5527 8.687C21.5527 8.15667 21.342 7.64806 20.9671 7.273L16.7241 3.03Z" fill="currentColor"/>
</svg>
