<svg width="24" height="24" viewBox="0 0 24 24" fill="none" xmlns="http://www.w3.org/2000/svg">
<path fill-rule="evenodd" clip-rule="evenodd" d="M9.043 3.136C9.934 2.472 10.953 2 12 2C13.046 2 14.066 2.472 14.957 3.136C15.86 3.809 16.714 4.739 17.449 5.808C18.912 7.936 20 10.755 20 13.5C20 15.976 19.171 18.108 17.724 19.627C16.275 21.148 14.26 22 12 22C9.741 22 7.725 21.148 6.276 19.627C4.829 18.107 4 15.977 4 13.5C4 10.755 5.088 7.936 6.551 5.808C7.286 4.739 8.14 3.808 9.043 3.136Z" fill="currentColor"/>
</svg>
