<svg width="24" height="24" viewBox="0 0 24 24" fill="none" xmlns="http://www.w3.org/2000/svg">
<path fill-rule="evenodd" clip-rule="evenodd" d="M14.9999 6C15.1467 5.99991 15.2917 6.03211 15.4246 6.09433C15.5575 6.15654 15.675 6.24725 15.7689 6.36L15.8439 6.463L22.8439 17.463C22.9348 17.6056 22.9879 17.7689 22.9985 17.9377C23.0091 18.1064 22.9767 18.2751 22.9044 18.4279C22.8321 18.5807 22.7222 18.7127 22.585 18.8115C22.4478 18.9104 22.2878 18.9728 22.1199 18.993L21.9999 19H1.99995C1.82344 19 1.65009 18.9532 1.4975 18.8645C1.34491 18.7758 1.21852 18.6483 1.13117 18.4949C1.04382 18.3415 0.998619 18.1678 1.00016 17.9913C1.0017 17.8148 1.04993 17.6418 1.13995 17.49L1.20995 17.386L8.20995 8.386C8.29672 8.27437 8.40617 8.18241 8.53109 8.11619C8.65601 8.04997 8.79355 8.01099 8.93464 8.00182C9.07573 7.99266 9.21715 8.01351 9.34959 8.06301C9.48203 8.11252 9.60246 8.18954 9.70295 8.289L9.78995 8.387L11.5199 10.615L14.1559 6.464C14.2461 6.322 14.3706 6.20504 14.518 6.12394C14.6653 6.04283 14.8307 6.00021 14.9989 6H14.9999ZM7.52395 12.527L4.04395 17H6.24595L7.52395 12.527ZM14.3669 9.863L12.8249 12.29L13.8349 13.587L14.3669 9.863Z" fill="currentColor"/>
</svg>
