<svg width="24" height="24" viewBox="0 0 24 24" fill="none" xmlns="http://www.w3.org/2000/svg">
<path d="M10.6998 3.14699C10.8252 2.92961 11.0031 2.74714 11.2172 2.61631C11.4313 2.48547 11.6749 2.41045 11.9255 2.39812C12.1761 2.38578 12.4259 2.43652 12.6518 2.54569C12.8778 2.65486 13.0727 2.81897 13.2188 3.02299L13.2988 3.14699L21.9328 18.102C22.0588 18.3204 22.1278 18.567 22.1333 18.8191C22.1388 19.0712 22.0806 19.3206 21.9642 19.5443C21.8478 19.768 21.6768 19.9587 21.4672 20.0988C21.2576 20.2389 21.016 20.3239 20.7648 20.346L20.6338 20.352H3.36581C3.11354 20.3521 2.86532 20.2886 2.64411 20.1673C2.4229 20.046 2.23586 19.8709 2.10028 19.6582C1.9647 19.4454 1.88496 19.2019 1.86845 18.9502C1.85194 18.6985 1.89918 18.4466 2.00581 18.218L2.06681 18.102L10.7008 3.14699H10.6998ZM11.9998 7.99999C11.8243 8 11.6518 8.04621 11.4998 8.13397C11.3478 8.22174 11.2216 8.34798 11.1338 8.49999L6.80381 16C6.71604 16.152 6.66983 16.3245 6.66983 16.5C6.66983 16.6755 6.71604 16.848 6.8038 17C6.89157 17.152 7.0178 17.2782 7.16982 17.366C7.32183 17.4538 7.49427 17.5 7.66981 17.5H16.3298C16.5053 17.5 16.6778 17.4538 16.8298 17.366C16.9818 17.2782 17.108 17.152 17.1958 17C17.2836 16.848 17.3298 16.6755 17.3298 16.5C17.3298 16.3245 17.2836 16.152 17.1958 16L12.8658 8.49999C12.778 8.34798 12.6518 8.22174 12.4998 8.13397C12.3478 8.04621 12.1753 8 11.9998 7.99999ZM11.9998 11L14.5978 15.5H9.40181L11.9998 11Z" fill="currentColor"/>
</svg>
