<svg width="24" height="24" viewBox="0 0 24 24" fill="none" xmlns="http://www.w3.org/2000/svg">
<path d="M12 2C17.523 2 22 6.477 22 12C22 17.523 17.523 22 12 22C6.477 22 2 17.523 2 12C2 6.477 6.477 2 12 2ZM15.167 12H8.833C7.871 12 7.083 12.74 7.006 13.683L7 13.833V14C7.00169 15.3062 7.51443 16.5598 8.42856 17.4928C9.34268 18.4258 10.5856 18.964 11.8915 18.9924C13.1973 19.0207 14.4624 18.5369 15.4162 17.6445C16.37 16.7521 16.9366 15.5219 16.995 14.217L17 14V13.833C17 12.871 16.26 12.083 15.317 12.006L15.167 12ZM15 14C15.0008 14.7809 14.697 15.5313 14.1532 16.0918C13.6095 16.6523 12.8686 16.9787 12.088 17.0016C11.3075 17.0245 10.5487 16.7422 9.97303 16.2145C9.39733 15.6869 9.05006 14.9556 9.005 14.176L9 14H15ZM9 6C8.73478 6 8.48043 6.10536 8.29289 6.29289C8.10536 6.48043 8 6.73478 8 7V9C8 9.26522 8.10536 9.51957 8.29289 9.70711C8.48043 9.89464 8.73478 10 9 10C9.26522 10 9.51957 9.89464 9.70711 9.70711C9.89464 9.51957 10 9.26522 10 9V7C10 6.73478 9.89464 6.48043 9.70711 6.29289C9.51957 6.10536 9.26522 6 9 6ZM14.293 6.293L13.293 7.293C13.1055 7.48053 13.0002 7.73484 13.0002 8C13.0002 8.26516 13.1055 8.51947 13.293 8.707L14.293 9.707C14.4816 9.88916 14.7342 9.98995 14.9964 9.98767C15.2586 9.9854 15.5094 9.88023 15.6948 9.69482C15.8802 9.50941 15.9854 9.2586 15.9877 8.9964C15.99 8.7342 15.8892 8.4816 15.707 8.293L15.414 8L15.707 7.707C15.8892 7.5184 15.99 7.2658 15.9877 7.0036C15.9854 6.7414 15.8802 6.49059 15.6948 6.30518C15.5094 6.11977 15.2586 6.0146 14.9964 6.01233C14.7342 6.01005 14.4816 6.11084 14.293 6.293Z" fill="currentColor"/>
</svg>
