<svg width="24" height="24" viewBox="0 0 24 24" fill="none" xmlns="http://www.w3.org/2000/svg">
<path fill-rule="evenodd" clip-rule="evenodd" d="M14.1359 3L12.2589 4.877C11.7203 5.41516 11.4064 6.13798 11.381 6.89894C11.3556 7.6599 11.6204 8.40207 12.1219 8.975L12.2569 9.119L14.3769 11.241C14.8197 11.6847 15.3904 11.9785 16.0088 12.0813C16.6272 12.1841 17.2623 12.0906 17.8249 11.814L17.9999 11.72V19H19.9999C20.2547 19.0003 20.4999 19.0979 20.6852 19.2728C20.8706 19.4478 20.9821 19.687 20.997 19.9414C21.012 20.1958 20.9292 20.4464 20.7656 20.6418C20.602 20.8373 20.37 20.9629 20.1169 20.993L19.9999 21H3.99987C3.74499 20.9997 3.49984 20.9021 3.3145 20.7272C3.12916 20.5522 3.01763 20.313 3.0027 20.0586C2.98776 19.8042 3.07054 19.5536 3.23413 19.3582C3.39772 19.1627 3.62977 19.0371 3.88287 19.007L3.99987 19V5C3.99971 4.49542 4.19028 4.00943 4.53337 3.63945C4.87646 3.26947 5.34671 3.04284 5.84987 3.005L5.99987 3H14.1359ZM13.4999 13C13.102 13 12.7205 13.158 12.4392 13.4393C12.1579 13.7206 11.9999 14.1022 11.9999 14.5C11.9999 14.8978 12.1579 15.2794 12.4392 15.5607C12.7205 15.842 13.102 16 13.4999 16C13.8977 16 14.2792 15.842 14.5605 15.5607C14.8418 15.2794 14.9999 14.8978 14.9999 14.5C14.9999 14.1022 14.8418 13.7206 14.5605 13.4393C14.2792 13.158 13.8977 13 13.4999 13ZM15.7929 4.172C15.9728 3.99265 16.2143 3.88853 16.4683 3.88077C16.7222 3.87302 16.9696 3.96222 17.1601 4.13025C17.3507 4.29828 17.4702 4.53255 17.4943 4.78547C17.5184 5.0384 17.4453 5.29101 17.2899 5.492L17.2069 5.586L16.7939 5.998H19.9999C20.2562 5.99625 20.5034 6.093 20.6905 6.26829C20.8775 6.44357 20.9901 6.68399 21.005 6.9399C21.0199 7.19581 20.9359 7.44767 20.7705 7.64346C20.605 7.83925 20.3707 7.96402 20.1159 7.992L19.9999 7.998H16.7899L17.2059 8.415C17.3835 8.59533 17.4861 8.8363 17.493 9.0893C17.5 9.34231 17.4107 9.58854 17.2432 9.77833C17.0758 9.96811 16.8426 10.0873 16.5907 10.112C16.3388 10.1366 16.0869 10.0648 15.8859 9.911L15.7909 9.828L13.6709 7.705C13.4988 7.53268 13.3956 7.30351 13.3805 7.06049C13.3654 6.81747 13.4395 6.57729 13.5889 6.385L13.6719 6.291L15.7919 4.171L15.7929 4.172Z" fill="currentColor"/>
</svg>
