<svg width="24" height="24" viewBox="0 0 24 24" fill="none" xmlns="http://www.w3.org/2000/svg">
<path d="M12 2.5C12.3852 2.50019 12.7556 2.64858 13.0344 2.91441C13.3132 3.18024 13.479 3.54314 13.4975 3.92791C13.516 4.31269 13.3858 4.68983 13.1338 4.9812C12.8818 5.27257 12.5274 5.45583 12.144 5.493L12 5.5H7C6.88297 5.49996 6.76964 5.54097 6.67974 5.61589C6.58984 5.69081 6.52906 5.79489 6.508 5.91L6.5 6V18C6.49996 18.117 6.54097 18.2304 6.61589 18.3203C6.69081 18.4102 6.79489 18.4709 6.91 18.492L7 18.5H11.5C11.8852 18.5002 12.2556 18.6486 12.5344 18.9144C12.8132 19.1802 12.979 19.5431 12.9975 19.9279C13.016 20.3127 12.8858 20.6898 12.6338 20.9812C12.3818 21.2726 12.0274 21.4558 11.644 21.493L11.5 21.5H7C6.10493 21.5001 5.24385 21.1572 4.59379 20.5419C3.94373 19.9267 3.5541 19.0857 3.505 18.192L3.5 18V6C3.49993 5.10493 3.84278 4.24385 4.45806 3.59379C5.07334 2.94373 5.91428 2.5541 6.808 2.505L7 2.5H12ZM13.94 8.11C14.2118 7.83723 14.5781 7.67943 14.963 7.66927C15.3479 7.6591 15.722 7.79736 16.0078 8.0554C16.2936 8.31344 16.4692 8.67151 16.4983 9.05547C16.5274 9.43942 16.4077 9.81986 16.164 10.118L16.061 10.232L15.793 10.5H20C20.3852 10.5002 20.7556 10.6486 21.0344 10.9144C21.3132 11.1802 21.479 11.5431 21.4975 11.9279C21.516 12.3127 21.3858 12.6898 21.1338 12.9812C20.8818 13.2726 20.5274 13.4558 20.144 13.493L20 13.5H15.793L16.061 13.768C16.3338 14.0398 16.4916 14.4061 16.5017 14.791C16.5119 15.1759 16.3736 15.55 16.1156 15.8358C15.8576 16.1216 15.4995 16.2972 15.1155 16.3263C14.7316 16.3554 14.3511 16.2357 14.053 15.992L13.939 15.889L11.111 13.061C10.8483 12.7984 10.6923 12.4478 10.6733 12.0768C10.6542 11.7059 10.7735 11.3411 11.008 11.053L11.111 10.939L13.939 8.111L13.94 8.11Z" fill="currentColor"/>
</svg>
