<svg width="24" height="24" viewBox="0 0 24 24" fill="none" xmlns="http://www.w3.org/2000/svg">
<path d="M8.46378 7.04998L16.9498 15.536L13.4848 19H19.9998C20.265 19 20.5193 19.1053 20.7069 19.2929C20.8944 19.4804 20.9998 19.7348 20.9998 20C20.9998 20.2652 20.8944 20.5196 20.7069 20.7071C20.5193 20.8946 20.265 21 19.9998 21H8.89278C8.49508 20.9996 8.11381 20.8414 7.83278 20.56L2.80678 15.536C2.62097 15.3503 2.47358 15.1297 2.37302 14.887C2.27246 14.6443 2.2207 14.3842 2.2207 14.1215C2.2207 13.8588 2.27246 13.5986 2.37302 13.3559C2.47358 13.1132 2.62097 12.8927 2.80678 12.707L8.46378 7.04998ZM15.5348 2.80799L21.1918 8.46398C21.3776 8.64971 21.525 8.87023 21.6255 9.11293C21.7261 9.35563 21.7778 9.61577 21.7778 9.87848C21.7778 10.1412 21.7261 10.4013 21.6255 10.644C21.525 10.8867 21.3776 11.1073 21.1918 11.293L18.3638 14.121L9.87878 5.63599L12.7068 2.80799C13.0818 2.43304 13.5904 2.22241 14.1208 2.22241C14.6511 2.22241 15.1597 2.43304 15.5348 2.80799Z" fill="currentColor"/>
</svg>
