<svg width="24" height="24" viewBox="0 0 24 24" fill="none" xmlns="http://www.w3.org/2000/svg">
<path d="M8.039 4C8.48881 4.0001 8.93285 4.10135 9.33824 4.29626C9.74364 4.49116 10.1 4.77474 10.381 5.126L17.481 14H19C19.7956 14 20.5587 14.3161 21.1213 14.8787C21.6839 15.4413 22 16.2043 22 17C22 17.7956 21.6839 18.5587 21.1213 19.1213C20.5587 19.6839 19.7956 20 19 20H15.961C15.5112 19.9999 15.0672 19.8986 14.6618 19.7037C14.2564 19.5088 13.9 19.2253 13.619 18.874L6.519 10H5C4.20435 10 3.44129 9.68393 2.87868 9.12132C2.31607 8.55871 2 7.79565 2 7C2 6.20435 2.31607 5.44129 2.87868 4.87868C3.44129 4.31607 4.20435 4 5 4H8.039ZM18 3.172C18.2652 3.172 18.5196 3.27735 18.7071 3.46489C18.8946 3.65243 19 3.90678 19 4.172V7.414L19.414 7C19.6015 6.81236 19.8559 6.70689 20.1211 6.70679C20.3864 6.7067 20.6409 6.81199 20.8285 6.9995C21.0161 7.18701 21.1216 7.44137 21.1217 7.70664C21.1218 7.97191 21.0165 8.22636 20.829 8.414L18.707 10.536C18.5195 10.7235 18.2652 10.8288 18 10.8288C17.7348 10.8288 17.4805 10.7235 17.293 10.536L15.172 8.414C14.9898 8.22539 14.889 7.97279 14.8913 7.7106C14.8936 7.4484 14.9988 7.19759 15.1842 7.01218C15.3696 6.82677 15.6204 6.7216 15.8826 6.71932C16.1448 6.71704 16.3974 6.81784 16.586 7L17 7.414V4.172C17 3.90678 17.1054 3.65243 17.2929 3.46489C17.4804 3.27735 17.7348 3.172 18 3.172Z" fill="currentColor"/>
</svg>
