<svg width="24" height="24" viewBox="0 0 24 24" fill="none" xmlns="http://www.w3.org/2000/svg">
<path fill-rule="evenodd" clip-rule="evenodd" d="M19 4C19.7809 3.99925 20.5313 4.30302 21.0918 4.84678C21.6523 5.39053 21.9786 6.1314 22.0016 6.91197C22.0245 7.69254 21.7421 8.45128 21.2145 9.02697C20.6869 9.60267 19.9556 9.94994 19.176 9.995L19 10H17.48L10.381 18.874C10.1205 19.1998 9.79489 19.4676 9.42504 19.6605C9.05519 19.8533 8.64919 19.9669 8.23296 19.994L8.03996 20H4.99996C4.21906 20.0008 3.46863 19.697 2.90815 19.1532C2.34766 18.6095 2.02128 17.8686 1.99836 17.088C1.97545 16.3075 2.2578 15.5487 2.78542 14.973C3.31305 14.3973 4.04436 14.0501 4.82396 14.005L4.99996 14H6.51996L13.619 5.126C13.8795 4.80025 14.205 4.5324 14.5749 4.33956C14.9447 4.14671 15.3507 4.03311 15.767 4.006L15.96 4H19ZM5.29296 3.464C5.46516 3.29183 5.69426 3.1884 5.93728 3.17311C6.18031 3.15783 6.42056 3.23175 6.61296 3.381L6.70696 3.464L8.82996 5.586C9.00931 5.76596 9.11344 6.00744 9.12119 6.26139C9.12895 6.51534 9.03975 6.76272 8.87171 6.95328C8.70368 7.14385 8.46941 7.26331 8.21649 7.2874C7.96356 7.3115 7.71095 7.23842 7.50996 7.083L7.41396 7L6.99996 6.586V9.828C6.99968 10.0829 6.90208 10.328 6.72711 10.5134C6.55215 10.6987 6.31301 10.8102 6.05857 10.8252C5.80413 10.8401 5.55358 10.7573 5.35813 10.5937C5.16268 10.4301 5.03707 10.1981 5.00696 9.945L4.99996 9.828V6.586L4.58596 7C4.406 7.17935 4.16453 7.28348 3.91058 7.29123C3.65663 7.29899 3.40925 7.20979 3.21868 7.04176C3.02812 6.87372 2.90866 6.63945 2.88456 6.38653C2.86047 6.13361 2.93355 5.881 3.08896 5.68L3.17196 5.586L5.29296 3.464Z" fill="currentColor"/>
</svg>
