<svg width="24" height="24" viewBox="0 0 24 24" fill="none" xmlns="http://www.w3.org/2000/svg">
<path d="M12 2C12.1646 1.99998 12.3267 2.04058 12.4718 2.11821C12.6169 2.19583 12.7407 2.30808 12.832 2.445L18.636 11.152L13.409 13.33L12.199 4.453C12.167 4.223 11.833 4.223 11.802 4.453L10.592 13.33L5.36401 11.152L11.168 2.445C11.2594 2.30808 11.3831 2.19583 11.5282 2.11821C11.6734 2.04058 11.8354 1.99998 12 2ZM12.385 15.923L18.203 13.499L12.833 21.555C12.7417 21.6922 12.618 21.8047 12.4727 21.8825C12.3275 21.9603 12.1653 22.001 12.0005 22.001C11.8357 22.001 11.6735 21.9603 11.5283 21.8825C11.3831 21.8047 11.2593 21.6922 11.168 21.555L5.79801 13.499L11.615 15.923C11.737 15.9739 11.8678 16.0001 12 16.0001C12.1322 16.0001 12.263 15.9739 12.385 15.923Z" fill="currentColor"/>
</svg>
