<svg width="24" height="24" viewBox="0 0 24 24" fill="none" xmlns="http://www.w3.org/2000/svg">
<path d="M3.98998 10.746L6.66798 12.55C8.13198 13.536 7.15498 15.818 5.43098 15.44L5.32298 15.416C5.9379 16.6164 6.865 17.6289 8.00674 18.347C9.14848 19.0651 10.4626 19.4621 11.811 19.4964C13.1593 19.5307 14.492 19.2009 15.6687 18.5418C16.8455 17.8827 17.8228 16.9186 18.498 15.751C18.6991 15.4112 19.026 15.1644 19.4079 15.0641C19.7898 14.9639 20.1958 15.0182 20.5379 15.2154C20.88 15.4125 21.1305 15.7366 21.2352 16.1173C21.3398 16.498 21.2902 16.9047 21.097 17.249C18.78 21.268 13.978 23.401 9.28198 22.142C7.06273 21.5474 5.09968 20.2416 3.6937 18.4245C2.28773 16.6074 1.51641 14.3794 1.49798 12.082C1.48798 10.768 2.94798 10.042 3.98998 10.745M12 5.99998C12.2449 6.00002 12.4813 6.08994 12.6643 6.2527C12.8474 6.41546 12.9643 6.63973 12.993 6.88298L13 6.99998V7.99998H15C15.2549 8.00027 15.5 8.09786 15.6853 8.27283C15.8707 8.4478 15.9822 8.68694 15.9971 8.94138C16.0121 9.19582 15.9293 9.44636 15.7657 9.64182C15.6021 9.83727 15.3701 9.96288 15.117 9.99298L15 9.99998H9.99998C9.87503 9.99975 9.75453 10.0463 9.66219 10.1305C9.56986 10.2147 9.51239 10.3304 9.5011 10.4548C9.48981 10.5792 9.52552 10.7034 9.6012 10.8028C9.67687 10.9022 9.78703 10.9697 9.90998 10.992L9.99998 11H14C14.6499 10.9984 15.2748 11.25 15.7424 11.7013C16.21 12.1527 16.4834 12.7684 16.5047 13.4179C16.526 14.0675 16.2936 14.6998 15.8566 15.1809C15.4197 15.6619 14.8126 15.9539 14.164 15.995L14 16H13V17C12.9997 17.2549 12.9021 17.5 12.7271 17.6854C12.5522 17.8707 12.313 17.9822 12.0586 17.9972C11.8041 18.0121 11.5536 17.9293 11.3581 17.7657C11.1627 17.6021 11.0371 17.3701 11.007 17.117L11 17V16H8.99998C8.7451 15.9997 8.49994 15.9021 8.31461 15.7271C8.12927 15.5522 8.01774 15.313 8.0028 15.0586C7.98787 14.8041 8.07065 14.5536 8.23424 14.3582C8.39783 14.1627 8.62988 14.0371 8.88298 14.007L8.99998 14H14C14.1249 14.0002 14.2454 13.9537 14.3378 13.8695C14.4301 13.7853 14.4876 13.6696 14.4989 13.5452C14.5101 13.4207 14.4744 13.2966 14.3988 13.1972C14.3231 13.0977 14.2129 13.0302 14.09 13.008L14 13H9.99998C9.35009 13.0016 8.72513 12.75 8.25756 12.2986C7.78999 11.8473 7.51657 11.2316 7.49524 10.582C7.47391 9.93249 7.70636 9.30018 8.14332 8.81911C8.58027 8.33804 9.18739 8.04604 9.83598 8.00498L9.99998 7.99998H11V6.99998C11 6.73477 11.1053 6.48041 11.2929 6.29288C11.4804 6.10534 11.7348 5.99998 12 5.99998ZM14.718 1.85798C16.9372 2.45252 18.9003 3.75841 20.3062 5.57548C21.7122 7.39256 22.4835 9.62055 22.502 11.918C22.512 13.232 21.053 13.958 20.01 13.255L17.332 11.45C15.869 10.464 16.845 8.18198 18.569 8.55998L18.678 8.58398C18.0629 7.38384 17.1357 6.37164 15.994 5.65384C14.8523 4.93604 13.5383 4.53918 12.1902 4.505C10.842 4.47082 9.50955 4.80059 8.33295 5.45961C7.15635 6.11863 6.1791 7.08255 5.50398 8.24998C5.30533 8.59477 4.97785 8.84651 4.59359 8.94985C4.20933 9.05318 3.79976 8.99963 3.45498 8.80098C3.11019 8.60234 2.85845 8.27486 2.75511 7.8906C2.65178 7.50634 2.70533 7.09677 2.90398 6.75198C5.21998 2.73198 10.022 0.599984 14.718 1.85798Z" fill="currentColor"/>
</svg>
