<svg width="24" height="24" viewBox="0 0 24 24" fill="none" xmlns="http://www.w3.org/2000/svg">
<path d="M1.49798 12.082C1.48798 10.815 2.84498 10.095 3.87698 10.676L3.98998 10.746L6.66798 12.55C8.09198 13.51 7.20598 15.695 5.56898 15.465L5.43098 15.44L5.32298 15.416C5.9379 16.6164 6.865 17.6289 8.00674 18.347C9.14848 19.0651 10.4627 19.4621 11.811 19.4964C13.1593 19.5307 14.492 19.2009 15.6687 18.5418C16.8455 17.8827 17.8228 16.9186 18.498 15.751C18.6991 15.4112 19.026 15.1644 19.4079 15.0641C19.7898 14.9639 20.1958 15.0182 20.5379 15.2154C20.88 15.4125 21.1305 15.7366 21.2352 16.1173C21.3398 16.498 21.2902 16.9047 21.097 17.249C18.78 21.268 13.978 23.401 9.28198 22.142C7.06273 21.5475 5.09968 20.2416 3.69371 18.4245C2.28773 16.6074 1.51642 14.3794 1.49798 12.082ZM15.423 7.42399C15.5287 7.50203 15.6179 7.60014 15.6857 7.7127C15.7534 7.82525 15.7984 7.95006 15.8179 8.07998C15.8374 8.2099 15.8311 8.34239 15.7993 8.46988C15.7676 8.59737 15.7111 8.71736 15.633 8.82299L14.024 11H15C15.2652 11 15.5196 11.1053 15.7071 11.2929C15.8946 11.4804 16 11.7348 16 12C16 12.2652 15.8946 12.5196 15.7071 12.7071C15.5196 12.8946 15.2652 13 15 13H13V14H15C15.2652 14 15.5196 14.1053 15.7071 14.2929C15.8946 14.4804 16 14.7348 16 15C16 15.2652 15.8946 15.5196 15.7071 15.7071C15.5196 15.8946 15.2652 16 15 16H13V17C13 17.2652 12.8946 17.5196 12.7071 17.7071C12.5196 17.8946 12.2652 18 12 18C11.7348 18 11.4804 17.8946 11.2929 17.7071C11.1053 17.5196 11 17.2652 11 17V16H8.99998C8.73476 16 8.48041 15.8946 8.29287 15.7071C8.10534 15.5196 7.99998 15.2652 7.99998 15C7.99998 14.7348 8.10534 14.4804 8.29287 14.2929C8.48041 14.1053 8.73476 14 8.99998 14H11V13H8.99998C8.73476 13 8.48041 12.8946 8.29287 12.7071C8.10534 12.5196 7.99998 12.2652 7.99998 12C7.99998 11.7348 8.10534 11.4804 8.29287 11.2929C8.48041 11.1053 8.73476 11 8.99998 11H9.97598L8.36698 8.82299C8.28891 8.71734 8.23241 8.59735 8.20071 8.46987C8.16901 8.34239 8.16274 8.20991 8.18224 8.08C8.20174 7.95009 8.24663 7.82529 8.31436 7.71274C8.38209 7.60018 8.47133 7.50206 8.57698 7.42399C8.68263 7.34592 8.80262 7.28942 8.9301 7.25773C9.05758 7.22603 9.19006 7.21975 9.31997 7.23925C9.44988 7.25875 9.57468 7.30365 9.68724 7.37138C9.79979 7.43911 9.89791 7.52834 9.97598 7.63399L12 10.374L14.024 7.63399C14.102 7.52831 14.2001 7.43904 14.3127 7.37128C14.4252 7.30353 14.55 7.25862 14.68 7.23912C14.8099 7.21961 14.9424 7.2259 15.0699 7.25763C15.1974 7.28935 15.3173 7.34588 15.423 7.42399ZM2.90398 6.75099C5.21998 2.73199 10.022 0.599992 14.718 1.85799C16.9372 2.45253 18.9003 3.75841 20.3063 5.57549C21.7122 7.39256 22.4835 9.62056 22.502 11.918C22.512 13.185 21.155 13.905 20.123 13.325L20.01 13.255L17.332 11.45C15.908 10.49 16.794 8.30499 18.431 8.53599L18.569 8.56099L18.678 8.58399C18.0629 7.38385 17.1357 6.37164 15.994 5.65385C14.8523 4.93605 13.5383 4.53919 12.1902 4.50501C10.842 4.47083 9.50955 4.80059 8.33295 5.45961C7.15636 6.11864 6.1791 7.08256 5.50398 8.24999C5.30533 8.59477 4.97786 8.84652 4.5936 8.94985C4.20933 9.05319 3.79976 8.99964 3.45498 8.80099C3.1102 8.60234 2.85845 8.27487 2.75512 7.89061C2.65179 7.50635 2.70533 7.09577 2.90398 6.75099Z" fill="currentColor"/>
</svg>
