<svg width="24" height="24" viewBox="0 0 24 24" fill="none" xmlns="http://www.w3.org/2000/svg">
<path fill-rule="evenodd" clip-rule="evenodd" d="M14.7181 1.858C16.9373 2.45254 18.9004 3.75842 20.3064 5.5755C21.7123 7.39257 22.4837 9.62057 22.5021 11.918C22.5121 13.232 21.0531 13.958 20.0101 13.255L17.3321 11.45C17.1797 11.3491 17.0446 11.2241 16.9321 11.08C16.8521 11.418 16.7021 11.73 16.5001 12C16.7787 12.3714 16.9483 12.8131 16.99 13.2755C17.0317 13.7379 16.9438 14.2028 16.7362 14.618C16.5285 15.0333 16.2094 15.3825 15.8144 15.6266C15.4195 15.8707 14.9644 16 14.5001 16H14.0001V17C14.0001 17.2652 13.8947 17.5196 13.7072 17.7071C13.5197 17.8946 13.2653 18 13.0001 18C12.7349 18 12.4805 17.8946 12.293 17.7071C12.1055 17.5196 12.0001 17.2652 12.0001 17V16H11.0001V17C11.0001 17.2652 10.8947 17.5196 10.7072 17.7071C10.5197 17.8946 10.2653 18 10.0001 18C9.73488 18 9.48053 17.8946 9.29299 17.7071C9.10545 17.5196 9.0001 17.2652 9.0001 17V16H8.0001C7.73488 16 7.48053 15.8946 7.29299 15.7071C7.10545 15.5196 7.0001 15.2652 7.0001 15L7.0041 14.906C6.6601 15.331 6.1021 15.586 5.4311 15.44L5.3231 15.416C5.93802 16.6164 6.86512 17.629 8.00686 18.347C9.1486 19.0651 10.4628 19.4621 11.8111 19.4964C13.1594 19.5307 14.4921 19.2009 15.6688 18.5418C16.8456 17.8827 17.823 16.9186 18.4981 15.751C18.6992 15.4112 19.0261 15.1644 19.408 15.0642C19.7899 14.9639 20.1959 15.0182 20.538 15.2154C20.8801 15.4126 21.1306 15.7366 21.2353 16.1173C21.34 16.4981 21.2903 16.9047 21.0971 17.249C18.7801 21.268 13.9781 23.401 9.2821 22.142C7.06285 21.5475 5.0998 20.2416 3.69383 18.4245C2.28785 16.6074 1.51653 14.3794 1.4981 12.082C1.4881 10.768 2.9481 10.042 3.9901 10.745L6.6681 12.55C7.3081 12.982 7.4821 13.662 7.3291 14.258C7.51285 14.0915 7.75211 13.9995 8.0001 14V10C7.73488 10 7.48053 9.89464 7.29299 9.70711C7.10545 9.51957 7.0001 9.26522 7.0001 9C7.0001 8.73478 7.10545 8.48043 7.29299 8.29289C7.48053 8.10536 7.73488 8 8.0001 8H9.0001V7C9.0001 6.73478 9.10545 6.48043 9.29299 6.29289C9.48053 6.10536 9.73488 6 10.0001 6C10.2653 6 10.5197 6.10536 10.7072 6.29289C10.8947 6.48043 11.0001 6.73478 11.0001 7V8H12.0001V7C12.0001 6.73478 12.1055 6.48043 12.293 6.29289C12.4805 6.10536 12.7349 6 13.0001 6C13.2653 6 13.5197 6.10536 13.7072 6.29289C13.8947 6.48043 14.0001 6.73478 14.0001 7V8H14.5001C14.9784 7.99992 15.4467 8.13705 15.8494 8.39513C16.2521 8.65321 16.5724 9.02139 16.7721 9.456C17.0591 8.829 17.7241 8.376 18.5691 8.561L18.6781 8.584C18.063 7.38385 17.1358 6.37165 15.9942 5.65385C14.8525 4.93606 13.5384 4.5392 12.1903 4.50502C10.8421 4.47084 9.50967 4.8006 8.33307 5.45962C7.15648 6.11864 6.17922 7.08257 5.5041 8.25C5.30545 8.59478 4.97798 8.84653 4.59371 8.94986C4.20945 9.05319 3.79988 8.99965 3.4551 8.801C3.11032 8.60235 2.85857 8.27488 2.75524 7.89062C2.6519 7.50635 2.70545 7.09678 2.9041 6.752C5.2201 2.732 10.0221 0.6 14.7181 1.858ZM14.5001 13H10.0001V14H14.5001C14.625 14.0002 14.7455 13.9537 14.8379 13.8695C14.9302 13.7853 14.9877 13.6696 14.999 13.5452C15.0103 13.4207 14.9746 13.2966 14.8989 13.1972C14.8232 13.0977 14.713 13.0303 14.5901 13.008L14.5001 13ZM14.5001 10H10.0001V11H14.5001C14.6327 11 14.7599 10.9473 14.8537 10.8536C14.9474 10.7598 15.0001 10.6326 15.0001 10.5C15.0001 10.3674 14.9474 10.2402 14.8537 10.1464C14.7599 10.0527 14.6327 10 14.5001 10Z" fill="currentColor"/>
</svg>
