<svg width="24" height="24" viewBox="0 0 24 24" fill="none" xmlns="http://www.w3.org/2000/svg">
<path d="M1.49798 12.082C1.48798 10.815 2.84498 10.095 3.87698 10.676L3.98998 10.746L6.66798 12.55C8.09198 13.51 7.20598 15.695 5.56898 15.465L5.43098 15.44L5.32298 15.416C5.9379 16.6164 6.865 17.6289 8.00674 18.347C9.14848 19.0651 10.4627 19.4621 11.811 19.4964C13.1593 19.5307 14.492 19.2009 15.6687 18.5418C16.8455 17.8827 17.8228 16.9186 18.498 15.751C18.6991 15.4112 19.026 15.1644 19.4079 15.0641C19.7898 14.9639 20.1958 15.0182 20.5379 15.2154C20.88 15.4125 21.1305 15.7366 21.2352 16.1173C21.3398 16.498 21.2902 16.9047 21.097 17.249C18.78 21.268 13.978 23.401 9.28198 22.142C7.06273 21.5475 5.09968 20.2416 3.69371 18.4245C2.28773 16.6074 1.51642 14.3794 1.49798 12.082ZM12.53 6.49999C13.853 6.49999 14.993 7.17699 15.78 8.15999C15.936 8.36772 16.0051 8.62802 15.9726 8.88579C15.9401 9.14355 15.8085 9.37854 15.6058 9.541C15.403 9.70346 15.145 9.78064 14.8863 9.75618C14.6277 9.73173 14.3887 9.60757 14.22 9.40999C13.733 8.80399 13.13 8.49999 12.53 8.49999C11.585 8.49999 10.537 9.34499 10.153 10.79L10.103 11H13C13.2549 11.0003 13.5 11.0979 13.6853 11.2728C13.8707 11.4478 13.9822 11.6869 13.9972 11.9414C14.0121 12.1958 13.9293 12.4464 13.7657 12.6418C13.6021 12.8373 13.3701 12.9629 13.117 12.993L13 13H10.102C10.437 14.573 11.54 15.5 12.53 15.5C13.13 15.5 13.733 15.196 14.22 14.59C14.3004 14.4829 14.4016 14.3931 14.5174 14.3258C14.6333 14.2585 14.7614 14.2153 14.8943 14.1985C15.0272 14.1817 15.1622 14.1918 15.2911 14.2282C15.42 14.2646 15.5403 14.3265 15.6448 14.4102C15.7493 14.494 15.836 14.5979 15.8996 14.7158C15.9632 14.8337 16.0025 14.9631 16.0151 15.0965C16.0277 15.2299 16.0134 15.3644 15.973 15.4921C15.9326 15.6198 15.867 15.7381 15.78 15.84C14.993 16.823 13.853 17.5 12.53 17.5C10.214 17.5 8.55298 15.533 8.11498 13.218L8.07698 13H7.99998C7.7451 12.9997 7.49995 12.9021 7.31461 12.7271C7.12927 12.5522 7.01774 12.313 7.00281 12.0586C6.98787 11.8042 7.07065 11.5536 7.23424 11.3582C7.39783 11.1627 7.62988 11.0371 7.88298 11.007L7.99998 11H8.07698C8.44898 8.59199 10.142 6.49999 12.53 6.49999ZM2.90398 6.75099C5.21998 2.73199 10.022 0.599992 14.718 1.85799C16.9372 2.45253 18.9003 3.75841 20.3063 5.57549C21.7122 7.39256 22.4835 9.62056 22.502 11.918C22.512 13.185 21.155 13.905 20.123 13.325L20.01 13.255L17.332 11.45C15.908 10.49 16.794 8.30499 18.431 8.53599L18.569 8.56099L18.678 8.58399C18.0629 7.38385 17.1357 6.37164 15.994 5.65385C14.8523 4.93605 13.5383 4.53919 12.1902 4.50501C10.842 4.47083 9.50955 4.80059 8.33295 5.45961C7.15636 6.11864 6.1791 7.08256 5.50398 8.24999C5.30533 8.59477 4.97786 8.84652 4.5936 8.94985C4.20933 9.05319 3.79976 8.99964 3.45498 8.80099C3.1102 8.60234 2.85845 8.27487 2.75512 7.89061C2.65179 7.50635 2.70533 7.09577 2.90398 6.75099Z" fill="currentColor"/>
</svg>
