<svg width="24" height="24" viewBox="0 0 24 24" fill="none" xmlns="http://www.w3.org/2000/svg">
<path fill-rule="evenodd" clip-rule="evenodd" d="M15.54 3C15.302 3.29598 15.1228 3.63473 15.012 3.998H14.38C13.5844 3.998 12.8213 4.31407 12.2587 4.87668C11.6961 5.43929 11.38 6.20235 11.38 6.998C11.38 7.79365 11.6961 8.55671 12.2587 9.11932C12.8213 9.68193 13.5844 9.998 14.38 9.998H15.01C15.15 10.454 15.4 10.884 15.76 11.244C16.0525 11.5369 16.4027 11.7658 16.7882 11.9165C17.1738 12.0671 17.5864 12.136 18 12.119V19H20C20.2652 19 20.5196 19.1054 20.7071 19.2929C20.8946 19.4804 21 19.7348 21 20C21 20.2652 20.8946 20.5196 20.7071 20.7071C20.5196 20.8946 20.2652 21 20 21H4C3.73478 21 3.48043 20.8946 3.29289 20.7071C3.10536 20.5196 3 20.2652 3 20C3 19.7348 3.10536 19.4804 3.29289 19.2929C3.48043 19.1054 3.73478 19 4 19V5C4 4.46957 4.21071 3.96086 4.58579 3.58579C4.96086 3.21071 5.46957 3 6 3H15.54ZM13.5 13C13.1022 13 12.7206 13.158 12.4393 13.4393C12.158 13.7206 12 14.1022 12 14.5C12 14.8978 12.158 15.2794 12.4393 15.5607C12.7206 15.842 13.1022 16 13.5 16C13.8978 16 14.2794 15.842 14.5607 15.5607C14.842 15.2794 15 14.8978 15 14.5C15 14.1022 14.842 13.7206 14.5607 13.4393C14.2794 13.158 13.8978 13 13.5 13ZM18.587 4.172L20.707 6.292C20.8942 6.47949 20.9993 6.73358 20.9993 6.9985C20.9993 7.26342 20.8942 7.51751 20.707 7.705L18.587 9.828C18.4948 9.92357 18.3845 9.99983 18.2626 10.0523C18.1406 10.1048 18.0094 10.1325 17.8766 10.1337C17.7438 10.135 17.6121 10.1098 17.4892 10.0596C17.3663 10.0094 17.2546 9.93522 17.1606 9.84139C17.0667 9.74757 16.9923 9.63597 16.942 9.51311C16.8916 9.39025 16.8662 9.25859 16.8673 9.12581C16.8683 8.99303 16.8958 8.86179 16.9481 8.73975C17.0005 8.61771 17.0766 8.50731 17.172 8.415L17.588 7.998H14.38C14.1148 7.998 13.8604 7.89264 13.6729 7.70511C13.4854 7.51757 13.38 7.26322 13.38 6.998C13.38 6.73278 13.4854 6.47843 13.6729 6.29089C13.8604 6.10336 14.1148 5.998 14.38 5.998H17.585L17.173 5.586C16.9908 5.3974 16.89 5.1448 16.8923 4.8826C16.8946 4.6204 16.9998 4.36959 17.1852 4.18418C17.3706 3.99877 17.6214 3.8936 17.8836 3.89133C18.1458 3.88905 18.3984 3.98984 18.587 4.172Z" fill="currentColor"/>
</svg>
