<svg width="24" height="24" viewBox="0 0 24 24" fill="none" xmlns="http://www.w3.org/2000/svg">
<path fill-rule="evenodd" clip-rule="evenodd" d="M20 12C20.5046 11.9998 20.9906 12.1904 21.3605 12.5335C21.7305 12.8766 21.9572 13.3468 21.995 13.85L22 14V18C22.0002 18.5046 21.8096 18.9906 21.4665 19.3605C21.1234 19.7305 20.6532 19.9572 20.15 19.995L20 20H15C14.4954 20.0002 14.0094 19.8096 13.6395 19.4665C13.2695 19.1234 13.0428 18.6532 13.005 18.15L13 18V14C12.9998 13.4954 13.1904 13.0094 13.5335 12.6395C13.8766 12.2695 14.3468 12.0428 14.85 12.005L15 12H20ZM19 4C19.5304 4 20.0391 4.21071 20.4142 4.58579C20.7893 4.96086 21 5.46957 21 6V10H14C13.2044 10 12.4413 10.3161 11.8787 10.8787C11.3161 11.4413 11 12.2044 11 13V19H4C3.46957 19 2.96086 18.7893 2.58579 18.4142C2.21071 18.0391 2 17.5304 2 17V6C2 5.46957 2.21071 4.96086 2.58579 4.58579C2.96086 4.21071 3.46957 4 4 4H19ZM20 14H15V18H20V14ZM9 7H6C5.73478 7 5.48043 7.10536 5.29289 7.29289C5.10536 7.48043 5 7.73478 5 8V11C5 11.2652 5.10536 11.5196 5.29289 11.7071C5.48043 11.8946 5.73478 12 6 12C6.26522 12 6.51957 11.8946 6.70711 11.7071C6.89464 11.5196 7 11.2652 7 11V10.414L8.915 12.329C9.1036 12.5112 9.3562 12.612 9.6184 12.6097C9.8806 12.6074 10.1314 12.5022 10.3168 12.3168C10.5022 12.1314 10.6074 11.8806 10.6097 11.6184C10.612 11.3562 10.5112 11.1036 10.329 10.915L8.414 9H9C9.26522 9 9.51957 8.89464 9.70711 8.70711C9.89464 8.51957 10 8.26522 10 8C10 7.73478 9.89464 7.48043 9.70711 7.29289C9.51957 7.10536 9.26522 7 9 7Z" fill="currentColor"/>
</svg>
