<svg width="24" height="24" viewBox="0 0 24 24" fill="none" xmlns="http://www.w3.org/2000/svg">
<path fill-rule="evenodd" clip-rule="evenodd" d="M21 4C21 3.73478 20.8946 3.48043 20.7071 3.29289C20.5196 3.10536 20.2652 3 20 3H15C14.7348 3 14.4804 3.10536 14.2929 3.29289C14.1054 3.48043 14 3.73478 14 4C14 4.26522 14.1054 4.51957 14.2929 4.70711C14.4804 4.89464 14.7348 5 15 5H17.586L15.476 7.11C16.0233 7.49863 16.5016 7.97625 16.891 8.523L19 6.414V9C19 9.26522 19.1054 9.51957 19.2929 9.70711C19.4804 9.89464 19.7348 10 20 10C20.2652 10 20.5196 9.89464 20.7071 9.70711C20.8946 9.51957 21 9.26522 21 9V4ZM15.477 7.11C14.4622 6.38628 13.2464 5.99815 12 6H5C4.46957 6 3.96086 6.21071 3.58579 6.58579C3.21071 6.96086 3 7.46957 3 8V19C3 19.5304 3.21071 20.0391 3.58579 20.4142C3.96086 20.7893 4.46957 21 5 21H16C16.5304 21 17.0391 20.7893 17.4142 20.4142C17.7893 20.0391 18 19.5304 18 19V12C18 10.704 17.59 9.504 16.89 8.523L10.707 14.707C10.5184 14.8892 10.2658 14.99 10.0036 14.9877C9.7414 14.9854 9.49059 14.8802 9.30518 14.6948C9.11977 14.5094 9.0146 14.2586 9.01233 13.9964C9.01005 13.7342 9.11084 13.4816 9.293 13.293L15.477 7.11Z" fill="currentColor"/>
</svg>
