<svg width="24" height="24" viewBox="0 0 24 24" fill="none" xmlns="http://www.w3.org/2000/svg">
<path fill-rule="evenodd" clip-rule="evenodd" d="M12 4C9.213 4 6.737 5.257 4.974 6.813C4.09 7.594 3.36 8.47 2.846 9.344C2.34 10.201 2 11.13 2 12C2 12.87 2.34 13.799 2.846 14.656C3.36 15.529 4.089 16.406 4.974 17.187C6.737 18.743 9.214 20 12 20C14.787 20 17.263 18.743 19.026 17.187C19.911 16.406 20.64 15.529 21.154 14.656C21.66 13.799 22 12.87 22 12C22 11.13 21.66 10.201 21.154 9.344C20.64 8.471 19.911 7.594 19.026 6.813C17.263 5.257 14.786 4 12 4ZM14 12C14.36 12 14.697 11.905 14.989 11.739C15.0423 12.3522 14.9057 12.967 14.5977 13.4999C14.2897 14.0328 13.8252 14.4581 13.2673 14.718C12.7094 14.978 12.085 15.0601 11.4789 14.9531C10.8727 14.8461 10.3142 14.5553 9.87894 14.1201C9.44371 13.6848 9.15289 13.1263 9.04592 12.5201C8.93895 11.914 9.02101 11.2896 9.28097 10.7317C9.54094 10.1738 9.96622 9.7093 10.4991 9.40131C11.0321 9.09332 11.6468 8.95671 12.26 9.01C12.0866 9.31436 11.9962 9.65892 11.9978 10.0092C11.9994 10.3595 12.093 10.7032 12.2692 11.0059C12.4454 11.3087 12.698 11.5599 13.0017 11.7343C13.3055 11.9088 13.6497 12.0004 14 12Z" fill="currentColor"/>
</svg>
