<svg width="24" height="24" viewBox="0 0 24 24" fill="none" xmlns="http://www.w3.org/2000/svg">
<path d="M18.9369 9.362C20.6399 10.13 22.1079 11.283 22.8999 12.916C22.9824 13.086 23.015 13.2759 22.9939 13.4637C22.9729 13.6515 22.8991 13.8295 22.781 13.9771C22.663 14.1247 22.5055 14.2358 22.3269 14.2975C22.1483 14.3593 21.9559 14.3691 21.7719 14.326C15.8149 12.93 9.78889 15.33 6.61189 16.64C4.61789 17.462 2.68189 16.791 1.68089 15.439C1.16069 14.7498 0.925459 13.8869 1.02389 13.029C1.36389 10.224 4.88989 9.024 7.21589 8.496C10.9969 7.639 15.3639 7.748 18.9369 9.361V9.362Z" fill="currentColor"/>
</svg>
