<svg width="24" height="24" viewBox="0 0 24 24" fill="none" xmlns="http://www.w3.org/2000/svg">
<path d="M7.48801 5C7.27287 4.99999 7.06347 5.06935 6.89089 5.19779C6.71831 5.32624 6.59175 5.50692 6.53001 5.713L4.50401 12.466C5.07692 12.1828 5.70356 12.0248 6.34226 12.0025C6.98096 11.9803 7.61708 12.0943 8.20832 12.3369C8.79955 12.5796 9.33235 12.9453 9.77128 13.4098C10.2102 13.8743 10.5452 14.427 10.754 15.031C10.834 15.011 10.915 15 11 15H13C13.085 15 13.167 15.01 13.245 15.03C13.4539 14.4261 13.789 13.8735 14.228 13.4091C14.6669 12.9447 15.1997 12.5791 15.791 12.3365C16.3822 12.094 17.0183 11.9801 17.6569 12.0024C18.2956 12.0247 18.9222 12.1828 19.495 12.466L17.47 5.713C17.4083 5.50692 17.2817 5.32624 17.1091 5.19779C16.9365 5.06935 16.7271 4.99999 16.512 5H16C15.7348 5 15.4804 4.89464 15.2929 4.70711C15.1054 4.51957 15 4.26522 15 4C15 3.73478 15.1054 3.48043 15.2929 3.29289C15.4804 3.10536 15.7348 3 16 3H16.512C17.1571 3.00011 17.785 3.20815 18.3025 3.59328C18.82 3.97841 19.1996 4.5201 19.385 5.138L21.62 12.588C21.8718 13.4269 21.9999 14.2981 22 15.174V16.5C22.002 17.6515 21.5625 18.7599 20.772 19.5972C19.9815 20.4345 18.9001 20.9368 17.7504 21.0009C16.6007 21.0649 15.4701 20.6858 14.5915 19.9416C13.7129 19.1973 13.1529 18.1446 13.027 17C13.018 17.0001 13.009 17.0001 13 17H11C10.991 17.0001 10.982 17.0001 10.973 17C10.8471 18.1446 10.2872 19.1973 9.40851 19.9416C8.52986 20.6858 7.39934 21.0649 6.24964 21.0009C5.09993 20.9368 4.01853 20.4345 3.228 19.5972C2.43748 18.7599 1.998 17.6515 2.00001 16.5V15.174C2.00016 14.2981 2.12818 13.4269 2.38001 12.588L4.61501 5.138C4.80037 4.5201 5.17997 3.97841 5.69749 3.59328C6.21502 3.20815 6.8429 3.00011 7.48801 3H8.00001C8.26522 3 8.51958 3.10536 8.70711 3.29289C8.89465 3.48043 9.00001 3.73478 9.00001 4C9.00001 4.26522 8.89465 4.51957 8.70711 4.70711C8.51958 4.89464 8.26522 5 8.00001 5H7.48801Z" fill="currentColor"/>
</svg>
