<svg width="24" height="24" viewBox="0 0 24 24" fill="none" xmlns="http://www.w3.org/2000/svg">
<path fill-rule="evenodd" clip-rule="evenodd" d="M12.55 4.11699L17.668 5.57899C18.2375 5.74156 18.746 6.06903 19.1297 6.52014C19.5134 6.97126 19.755 7.52583 19.824 8.11399C20.451 8.29328 21.0026 8.67194 21.3952 9.19266C21.7878 9.71339 22.0001 10.3478 22 11V12C21.9998 12.8831 21.7075 13.7413 21.1686 14.4409C20.6298 15.1405 19.8747 15.6423 19.021 15.868C18.823 16.5164 18.4952 17.1178 18.0575 17.6356C17.6198 18.1534 17.0814 18.5768 16.475 18.88L13.342 20.447C12.9253 20.6554 12.4659 20.7639 12 20.7639C11.5341 20.7639 11.0747 20.6554 10.658 20.447L7.525 18.88C6.91858 18.5768 6.38016 18.1534 5.94248 17.6356C5.5048 17.1178 5.17699 16.5164 4.979 15.868C4.12527 15.6423 3.37018 15.1405 2.83135 14.4409C2.29253 13.7413 2.00023 12.8831 2 12V11C2 9.62899 2.92 8.47199 4.176 8.11399C4.24523 7.52601 4.48688 6.97165 4.87054 6.52073C5.25419 6.06981 5.76269 5.7425 6.332 5.57999L11.451 4.11799C11.8098 4.01556 12.1902 4.01556 12.549 4.11799L12.55 4.11699ZM15 13H9C8.73478 13 8.48043 13.1054 8.29289 13.2929C8.10536 13.4804 8 13.7348 8 14C8 14.2652 8.10536 14.5196 8.29289 14.7071C8.48043 14.8946 8.73478 15 9 15H15C15.2652 15 15.5196 14.8946 15.7071 14.7071C15.8946 14.5196 16 14.2652 16 14C16 13.7348 15.8946 13.4804 15.7071 13.2929C15.5196 13.1054 15.2652 13 15 13ZM19.679 10.265L19.359 13.468C19.753 13.103 20 12.58 20 12V11C20.0002 10.8619 19.9716 10.7252 19.9162 10.5987C19.8608 10.4721 19.7797 10.3585 19.678 10.265H19.679ZM4.322 10.265C4.14775 10.4252 4.0361 10.6421 4.007 10.877L4 11V12C4 12.516 4.195 12.986 4.516 13.34L4.642 13.468L4.322 10.265ZM15 9.99999H9C8.74512 10.0003 8.49997 10.0979 8.31463 10.2728C8.1293 10.4478 8.01776 10.6869 8.00283 10.9414C7.98789 11.1958 8.07067 11.4464 8.23426 11.6418C8.39785 11.8373 8.6299 11.9629 8.883 11.993L9 12H15C15.2549 11.9997 15.5 11.9021 15.6854 11.7271C15.8707 11.5522 15.9822 11.313 15.9972 11.0586C16.0121 10.8042 15.9293 10.5536 15.7657 10.3582C15.6021 10.1627 15.3701 10.0371 15.117 10.007L15 9.99999Z" fill="currentColor"/>
</svg>
