<svg width="24" height="24" viewBox="0 0 24 24" fill="none" xmlns="http://www.w3.org/2000/svg">
<path d="M13.5 21.888C18.311 21.164 22 17.013 22 12C22 6.477 17.523 2 12 2C6.477 2 2 6.477 2 12C2 17.013 5.689 21.165 10.5 21.888V15H9C8.60218 15 8.22064 14.842 7.93934 14.5607C7.65804 14.2794 7.5 13.8978 7.5 13.5C7.5 13.1022 7.65804 12.7206 7.93934 12.4393C8.22064 12.158 8.60218 12 9 12H10.5V10C10.5 9.07174 10.8687 8.1815 11.5251 7.52513C12.1815 6.86875 13.0717 6.5 14 6.5H14.5C14.8978 6.5 15.2794 6.65804 15.5607 6.93934C15.842 7.22064 16 7.60218 16 8C16 8.39782 15.842 8.77936 15.5607 9.06066C15.2794 9.34196 14.8978 9.5 14.5 9.5H14C13.8674 9.5 13.7402 9.55268 13.6464 9.64645C13.5527 9.74021 13.5 9.86739 13.5 10V12H15C15.3978 12 15.7794 12.158 16.0607 12.4393C16.342 12.7206 16.5 13.1022 16.5 13.5C16.5 13.8978 16.342 14.2794 16.0607 14.5607C15.7794 14.842 15.3978 15 15 15H13.5V21.888Z" fill="currentColor"/>
</svg>
