<svg width="24" height="24" viewBox="0 0 24 24" fill="none" xmlns="http://www.w3.org/2000/svg">
<path fill-rule="evenodd" clip-rule="evenodd" d="M6.35602 4.164C7.72602 2.784 9.62202 2 12 2C14.379 2 16.273 2.785 17.644 4.164C18.8 5.327 19.524 6.854 19.894 8.537C19.949 8.547 20.004 8.56 20.058 8.575C20.927 8.807 21.487 9.491 21.76 10.225C22.033 10.961 22.059 11.83 21.833 12.674C21.516 13.857 20.668 15.024 19.431 15.339C18.079 18.59 15.086 21 12 21C8.91302 21 5.92002 18.588 4.56902 15.338C3.33402 15.021 2.48802 13.855 2.17102 12.674C1.94502 11.83 1.97102 10.961 2.24402 10.224C2.51702 9.491 3.07702 8.807 3.94602 8.574C3.99902 8.56 4.05202 8.548 4.10602 8.538C4.47602 6.854 5.20002 5.328 6.35602 4.164Z" fill="currentColor"/>
</svg>
