<svg width="24" height="24" viewBox="0 0 24 24" fill="none" xmlns="http://www.w3.org/2000/svg">
<path d="M4 15.5C4.39782 15.5 4.77936 15.658 5.06066 15.9393C5.34196 16.2206 5.5 16.6022 5.5 17V18.5H7C7.39782 18.5 7.77936 18.658 8.06066 18.9393C8.34196 19.2206 8.5 19.6022 8.5 20C8.5 20.3978 8.34196 20.7794 8.06066 21.0607C7.77936 21.342 7.39782 21.5 7 21.5H5C4.33696 21.5 3.70107 21.2366 3.23223 20.7678C2.76339 20.2989 2.5 19.663 2.5 19V17C2.5 16.6022 2.65804 16.2206 2.93934 15.9393C3.22064 15.658 3.60218 15.5 4 15.5ZM20 15.5C20.3729 15.5 20.7324 15.6389 21.0084 15.8896C21.2844 16.1403 21.4572 16.4848 21.493 16.856L21.5 17V19C21.5001 19.6347 21.2588 20.2457 20.825 20.709C20.3912 21.1724 19.7973 21.4534 19.164 21.495L19 21.5H17C16.6148 21.4998 16.2444 21.3514 15.9656 21.0856C15.6868 20.8198 15.521 20.4569 15.5025 20.0721C15.484 19.6873 15.6142 19.3102 15.8662 19.0188C16.1182 18.7274 16.4726 18.5442 16.856 18.507L17 18.5H18.5V17C18.5 16.6022 18.658 16.2206 18.9393 15.9393C19.2206 15.658 19.6022 15.5 20 15.5ZM14.45 13.5C14.7353 13.2281 15.1162 13.0795 15.5103 13.0862C15.9043 13.0929 16.2799 13.2545 16.5558 13.5359C16.8317 13.8173 16.9858 14.196 16.9847 14.5901C16.9836 14.9843 16.8275 15.3621 16.55 15.642C15.3359 16.8344 13.7017 17.5017 12 17.5C10.229 17.5 8.62 16.79 7.45 15.642C7.30608 15.5049 7.19085 15.3405 7.11101 15.1585C7.03117 14.9764 6.98831 14.7803 6.98492 14.5816C6.98153 14.3828 7.01768 14.1854 7.09128 14.0007C7.16487 13.816 7.27443 13.6478 7.41359 13.5059C7.55276 13.3639 7.71875 13.2511 7.90192 13.1738C8.08508 13.0966 8.28178 13.0566 8.48056 13.056C8.67935 13.0555 8.87626 13.0944 9.05985 13.1706C9.24344 13.2469 9.41005 13.3588 9.55 13.5C10.183 14.12 11.046 14.5 12 14.5C12.954 14.5 13.817 14.12 14.45 13.5ZM9 8C9.53043 8 10.0391 8.21071 10.4142 8.58579C10.7893 8.96086 11 9.46957 11 10C11 10.5304 10.7893 11.0391 10.4142 11.4142C10.0391 11.7893 9.53043 12 9 12C8.46957 12 7.96086 11.7893 7.58579 11.4142C7.21071 11.0391 7 10.5304 7 10C7 9.46957 7.21071 8.96086 7.58579 8.58579C7.96086 8.21071 8.46957 8 9 8ZM15 8C15.5304 8 16.0391 8.21071 16.4142 8.58579C16.7893 8.96086 17 9.46957 17 10C17 10.5304 16.7893 11.0391 16.4142 11.4142C16.0391 11.7893 15.5304 12 15 12C14.4696 12 13.9609 11.7893 13.5858 11.4142C13.2107 11.0391 13 10.5304 13 10C13 9.46957 13.2107 8.96086 13.5858 8.58579C13.9609 8.21071 14.4696 8 15 8ZM7 2.5C7.38522 2.50019 7.75559 2.64858 8.03439 2.91441C8.31318 3.18024 8.47901 3.54314 8.49752 3.92791C8.51604 4.31269 8.38581 4.68983 8.13382 4.9812C7.88184 5.27257 7.52742 5.45583 7.144 5.493L7 5.5H5.5V7C5.49981 7.38522 5.35142 7.75559 5.08559 8.03439C4.81976 8.31318 4.45686 8.47901 4.07209 8.49752C3.68731 8.51604 3.31017 8.38581 3.0188 8.13382C2.72743 7.88184 2.54417 7.52742 2.507 7.144L2.5 7V5C2.4999 4.36528 2.74123 3.75429 3.17504 3.29095C3.60885 2.82762 4.20265 2.54664 4.836 2.505L5 2.5H7ZM19 2.5C19.6347 2.4999 20.2457 2.74123 20.709 3.17504C21.1724 3.60885 21.4534 4.20265 21.495 4.836L21.5 5V7C21.4998 7.38522 21.3514 7.75559 21.0856 8.03439C20.8198 8.31318 20.4569 8.47901 20.0721 8.49752C19.6873 8.51604 19.3102 8.38581 19.0188 8.13382C18.7274 7.88184 18.5442 7.52742 18.507 7.144L18.5 7V5.5H17C16.6148 5.49981 16.2444 5.35142 15.9656 5.08559C15.6868 4.81976 15.521 4.45686 15.5025 4.07209C15.484 3.68731 15.6142 3.31017 15.8662 3.0188C16.1182 2.72743 16.4726 2.54417 16.856 2.507L17 2.5H19Z" fill="currentColor"/>
</svg>
