<svg width="24" height="24" viewBox="0 0 24 24" fill="none" xmlns="http://www.w3.org/2000/svg">
<path d="M6.023 4.561C6.01643 4.35852 6.05062 4.15679 6.12354 3.96779C6.19645 3.77879 6.30661 3.60636 6.44745 3.46075C6.5883 3.31515 6.75698 3.19933 6.94346 3.12018C7.12993 3.04103 7.33042 3.00016 7.533 3H12.5C13.32 3 13.99 3.654 14.006 4.476C14.041 6.244 14.274 12.546 15.786 19H16.786C15.825 14.896 15.381 10.854 15.176 8H16.434C17.34 8 17.989 8.773 17.964 9.595C17.93 10.756 18.024 14.029 19.711 19H21C21.2652 19 21.5196 19.1054 21.7071 19.2929C21.8946 19.4804 22 19.7348 22 20C22 20.2652 21.8946 20.5196 21.7071 20.7071C21.5196 20.8946 21.2652 21 21 21H3C2.73478 21 2.48043 20.8946 2.29289 20.7071C2.10536 20.5196 2 20.2652 2 20C2 19.7348 2.10536 19.4804 2.29289 19.2929C2.48043 19.1054 2.73478 19 3 19H4.257C6.112 12.616 6.08 6.365 6.023 4.561Z" fill="currentColor"/>
</svg>
