<svg width="24" height="24" viewBox="0 0 24 24" fill="none" xmlns="http://www.w3.org/2000/svg">
<path fill-rule="evenodd" clip-rule="evenodd" d="M2.5 7C2.5 6.54037 2.59053 6.08525 2.76642 5.66061C2.94231 5.23597 3.20012 4.85013 3.52513 4.52513C3.85013 4.20012 4.23597 3.94231 4.66061 3.76642C5.08525 3.59053 5.54037 3.5 6 3.5C6.45963 3.5 6.91475 3.59053 7.33939 3.76642C7.76403 3.94231 8.14987 4.20012 8.47487 4.52513C8.79988 4.85013 9.05769 5.23597 9.23358 5.66061C9.40947 6.08525 9.5 6.54037 9.5 7C9.5 7.92826 9.13125 8.8185 8.47487 9.47487C7.8185 10.1313 6.92826 10.5 6 10.5C5.07174 10.5 4.1815 10.1313 3.52513 9.47487C2.86875 8.8185 2.5 7.92826 2.5 7ZM6 6.5C5.86739 6.5 5.74021 6.55268 5.64645 6.64645C5.55268 6.74021 5.5 6.86739 5.5 7C5.5 7.13261 5.55268 7.25979 5.64645 7.35355C5.74021 7.44732 5.86739 7.5 6 7.5C6.13261 7.5 6.25979 7.44732 6.35355 7.35355C6.44732 7.25979 6.5 7.13261 6.5 7C6.5 6.86739 6.44732 6.74021 6.35355 6.64645C6.25979 6.55268 6.13261 6.5 6 6.5ZM10.5 6C10.5 5.33696 10.7634 4.70107 11.2322 4.23223C11.7011 3.76339 12.337 3.5 13 3.5H20C20.3978 3.5 20.7794 3.65804 21.0607 3.93934C21.342 4.22064 21.5 4.60218 21.5 5C21.5 5.39782 21.342 5.77936 21.0607 6.06066C20.7794 6.34196 20.3978 6.5 20 6.5H13.5V10.5H19C19.3978 10.5 19.7794 10.658 20.0607 10.9393C20.342 11.2206 20.5 11.6022 20.5 12C20.5 12.3978 20.342 12.7794 20.0607 13.0607C19.7794 13.342 19.3978 13.5 19 13.5H13.5V19C13.5 19.3978 13.342 19.7794 13.0607 20.0607C12.7794 20.342 12.3978 20.5 12 20.5C11.6022 20.5 11.2206 20.342 10.9393 20.0607C10.658 19.7794 10.5 19.3978 10.5 19V6Z" fill="currentColor"/>
</svg>
