<svg width="24" height="24" viewBox="0 0 24 24" fill="none" xmlns="http://www.w3.org/2000/svg">
<path d="M10.9991 11.5C8.83207 9.99999 4.99907 5.99999 8.99907 2.99999C10.0231 2.23199 12.9991 1.49999 15.4991 3.99999C16.4521 4.95299 16.1341 5.89899 13.9991 7.49999C13.0371 8.22099 11.6991 9.39999 12.4991 11C13.9991 8.83399 17.9991 4.99999 20.9991 8.99999C21.7671 10.025 22.4991 13 19.9991 15.5C19.0461 16.453 18.1001 16.135 16.4991 14C15.7781 13.039 14.5991 11.7 12.9991 12.5C15.1661 14 18.9991 18 14.9991 21C13.9741 21.769 10.9991 22.5 8.49907 20C7.54607 19.047 7.86407 18.102 9.99907 16.5C10.9601 15.78 12.2991 14.6 11.4991 13C9.99907 15.167 5.99907 19 2.99907 15C2.23107 13.976 1.49907 11 3.99907 8.49999C4.95207 7.54699 5.89807 7.86499 7.49907 9.99999C8.22007 10.962 9.39907 12.3 10.9991 11.5Z" fill="currentColor"/>
</svg>
