<svg width="24" height="24" viewBox="0 0 24 24" fill="none" xmlns="http://www.w3.org/2000/svg">
<path d="M8 11C9.126 11 10.164 11.372 11 12C10.3786 12.4653 9.87421 13.0691 9.52702 13.7635C9.17983 14.4579 8.99938 15.2237 9 16C9 17.636 9.786 19.088 11 20C10.3662 20.4754 9.6285 20.7933 8.84771 20.9276C8.06692 21.0619 7.26539 21.0088 6.50916 20.7726C5.75294 20.5363 5.06368 20.1238 4.49818 19.5689C3.93267 19.0141 3.50712 18.3327 3.25659 17.5811C3.00605 16.8295 2.93771 16.0292 3.05719 15.246C3.17667 14.4628 3.48055 13.7192 3.94379 13.0764C4.40703 12.4337 5.01637 11.9103 5.7216 11.5493C6.42682 11.1883 7.20774 11 8 11ZM20 13C20.5571 13.7428 20.8964 14.6262 20.9798 15.551C21.0632 16.4758 20.8874 17.4055 20.4721 18.2361C20.0569 19.0666 19.4185 19.7651 18.6287 20.2533C17.8388 20.7414 16.9286 21 16 21C15.0714 21 14.1612 20.7414 13.3713 20.2533C12.5815 19.7651 11.9431 19.0666 11.5279 18.2361C11.1126 17.4055 10.9368 16.4758 11.0202 15.551C11.1036 14.6262 11.4429 13.7428 12 13C12.4654 13.6214 13.0692 14.1257 13.7636 14.4729C14.4579 14.8201 15.2237 15.0005 16 15C16.7763 15.0005 17.5421 14.8201 18.2364 14.4729C18.9308 14.1257 19.5346 13.6214 20 13ZM16 3C16.7923 3 17.5732 3.18827 18.2784 3.54928C18.9836 3.9103 19.593 4.43373 20.0562 5.07645C20.5195 5.71916 20.8233 6.46276 20.9428 7.24596C21.0623 8.02916 20.994 8.82954 20.7434 9.58114C20.4929 10.3327 20.0673 11.0141 19.5018 11.5689C18.9363 12.1238 18.2471 12.5363 17.4908 12.7726C16.7346 13.0088 15.9331 13.0619 15.1523 12.9276C14.3715 12.7933 13.6338 12.4754 13 12C13.6214 11.5346 14.1257 10.9308 14.4729 10.2364C14.8201 9.54207 15.0005 8.77632 15 8C15.0005 7.22368 14.8201 6.45792 14.4729 5.76356C14.1257 5.0692 13.6214 4.46536 13 4C13.836 3.372 14.874 3 16 3ZM8 3C8.92856 3 9.83878 3.25857 10.6287 3.74675C11.4185 4.23492 12.0569 4.9334 12.4721 5.76393C12.8874 6.59446 13.0632 7.52422 12.9798 8.44903C12.8964 9.37384 12.5571 10.2572 12 11C11.5347 10.3786 10.9309 9.87421 10.2365 9.52702C9.54212 9.17983 8.77634 8.99938 8 9C7.22367 8.99938 6.45789 9.17983 5.76351 9.52702C5.06914 9.87421 4.46531 10.3786 4 11C3.44287 10.2572 3.1036 9.37384 3.02021 8.44903C2.93682 7.52422 3.1126 6.59446 3.52787 5.76393C3.94313 4.9334 4.58147 4.23492 5.37135 3.74675C6.16123 3.25857 7.07144 3 8 3Z" fill="currentColor"/>
</svg>
