<svg width="24" height="24" viewBox="0 0 24 24" fill="none" xmlns="http://www.w3.org/2000/svg">
<path d="M18.1413 7.577C18.5187 7.70274 18.8307 7.97323 19.0087 8.32898C19.1866 8.68473 19.216 9.0966 19.0903 9.474L18.5633 11.056C18.1318 12.3502 17.304 13.4759 16.1972 14.2734C15.0903 15.071 13.7606 15.5002 12.3963 15.5H9.85433C9.57578 15.5002 9.30279 15.5779 9.06594 15.7245C8.8291 15.8711 8.63774 16.0808 8.51333 16.33L6.34233 20.67C6.25528 20.8478 6.1339 21.0066 5.98518 21.1373C5.83647 21.2679 5.66336 21.3679 5.47583 21.4313C5.28831 21.4948 5.09009 21.5205 4.89258 21.5069C4.69508 21.4934 4.50221 21.4409 4.3251 21.3525C4.14798 21.264 3.99012 21.1414 3.86061 20.9917C3.73111 20.842 3.63252 20.6681 3.57054 20.4801C3.50856 20.2921 3.4844 20.0937 3.49947 19.8963C3.51454 19.6989 3.56853 19.5064 3.65833 19.33L5.82933 14.988C6.20301 14.2404 6.77749 13.6117 7.4884 13.1722C8.19932 12.7328 9.01856 12.5 9.85433 12.5H12.3963C13.1308 12.4999 13.8467 12.2688 14.4425 11.8393C15.0384 11.4098 15.484 10.8038 15.7163 10.107L16.2443 8.526C16.3701 8.14862 16.6406 7.83663 16.9963 7.65867C17.3521 7.4807 17.7639 7.45132 18.1413 7.577ZM11.1823 4.818C11.4448 5.0805 11.6006 5.43099 11.6196 5.8017C11.6386 6.17241 11.5195 6.53701 11.2853 6.825L11.1823 6.939L9.06133 9.061C8.79818 9.3244 8.44648 9.48053 8.07461 9.49901C7.70274 9.51749 7.33729 9.39701 7.04933 9.161L6.93933 9.061L4.81933 6.939C4.55023 6.66662 4.39549 6.30165 4.38679 5.91886C4.3781 5.53607 4.51611 5.16445 4.77256 4.88014C5.02901 4.59582 5.38447 4.42033 5.76613 4.38963C6.14778 4.35893 6.52673 4.47533 6.82533 4.715L6.93933 4.818L8.00033 5.878L9.06033 4.818C9.19963 4.67861 9.36503 4.56804 9.54708 4.49259C9.72913 4.41715 9.92426 4.37832 10.1213 4.37832C10.3184 4.37832 10.5135 4.41715 10.6956 4.49259C10.8776 4.56804 11.043 4.67861 11.1823 4.818ZM18.5003 3C18.8982 3 19.2797 3.15804 19.561 3.43934C19.8423 3.72064 20.0003 4.10218 20.0003 4.5C20.0003 4.89782 19.8423 5.27936 19.561 5.56066C19.2797 5.84196 18.8982 6 18.5003 6C18.1025 6 17.721 5.84196 17.4397 5.56066C17.1584 5.27936 17.0003 4.89782 17.0003 4.5C17.0003 4.10218 17.1584 3.72064 17.4397 3.43934C17.721 3.15804 18.1025 3 18.5003 3Z" fill="currentColor"/>
</svg>
