<svg width="24" height="24" viewBox="0 0 24 24" fill="none" xmlns="http://www.w3.org/2000/svg">
<path fill-rule="evenodd" clip-rule="evenodd" d="M13.2121 5.62699L13.5681 5.79499L14.0261 6.01899L14.5791 6.30199L14.9961 6.52199L15.6891 6.90199L16.1921 7.18899L16.7251 7.50199L17.2851 7.84199C17.3811 7.89999 17.4771 7.95999 17.5751 8.02099L18.1501 8.38699L18.6901 8.73999L19.1931 9.07999L19.6591 9.40399L20.2841 9.85299L20.6511 10.123L21.2581 10.589L21.6901 10.934C22.3341 11.459 22.3171 12.504 21.6471 13.051L21.3401 13.298L20.7781 13.733L20.0481 14.273L19.6221 14.575L19.1571 14.898L18.6521 15.238C18.5637 15.297 18.475 15.3556 18.3861 15.414L17.8261 15.776L17.5311 15.961L16.9731 16.305L16.4411 16.623L15.9381 16.915L15.4641 17.182L15.0221 17.424L14.4231 17.741L14.0691 17.922L13.3571 18.27L13.1471 18.369C12.3751 18.723 11.5311 18.217 11.4321 17.351L11.3571 16.611L11.2891 15.777L11.2571 15.285L11.2271 14.745L11.2011 14.162L10.7051 14.517L10.4361 14.706L9.85613 15.102L9.22013 15.522L8.53113 15.962L7.97313 16.305L7.18613 16.772L6.46413 17.182L6.02213 17.424L5.42313 17.741L5.06913 17.922L4.35713 18.27L4.14713 18.369C3.37513 18.723 2.53113 18.217 2.43213 17.351L2.37813 16.834L2.31613 16.129L2.25513 15.249L2.21513 14.481L2.19213 13.921L2.16913 13.015L2.16113 12.368V11.685L2.16913 11.018L2.18413 10.387L2.21813 9.51199L2.26013 8.72899L2.32413 7.83799L2.37213 7.29199L2.41613 6.85899L2.42913 6.74099C2.53213 5.83099 3.43513 5.26799 4.21213 5.62699L4.56813 5.79499L5.02613 6.01899L5.57913 6.30199L5.99613 6.52199L6.45013 6.76899L6.93713 7.04299L7.19213 7.18899L7.72513 7.50199L8.28513 7.84199C8.82127 8.17163 9.35071 8.51204 9.87313 8.86299L10.4471 9.25499L10.9671 9.62299L11.2071 9.79599L11.2341 9.20399L11.2641 8.65999L11.3161 7.93999L11.3841 7.16799L11.4291 6.74099C11.5321 5.83099 12.4351 5.26799 13.2121 5.62699Z" fill="currentColor"/>
</svg>
