<svg width="24" height="24" viewBox="0 0 24 24" fill="none" xmlns="http://www.w3.org/2000/svg">
<path fill-rule="evenodd" clip-rule="evenodd" d="M17.9073 4.07C18.4813 3.92962 19.0866 3.99715 19.6156 4.26061C20.1446 4.52408 20.5632 4.96643 20.7971 5.50919C21.0309 6.05194 21.0649 6.65999 20.8931 7.22544C20.7212 7.79089 20.3546 8.27718 19.8583 8.598L19.9523 9.188C20.3783 10.466 20.5433 11.88 20.5063 13.222C20.4633 14.77 20.0603 16.587 18.6423 17.768C18.365 17.9998 18.0935 18.2385 17.8283 18.484L17.3533 18.933L16.9893 19.287C16.6123 19.655 16.2343 20.024 15.8293 20.362C14.8853 21.148 13.8493 21.705 12.1703 21.986C12.0584 22.005 11.9441 22.005 11.8323 21.986C10.1523 21.706 9.11627 21.148 8.17227 20.362C7.90404 20.1352 7.64388 19.8991 7.39227 19.654L6.64927 18.933L6.17427 18.483C5.92527 18.253 5.65727 18.016 5.36027 17.768C3.94227 16.587 3.53927 14.77 3.49627 13.222C3.45527 11.752 3.73027 10.32 3.98827 9.402L4.05127 9.184L4.16827 8.846L4.28427 8.536L4.42827 8.175C4.71927 7.473 5.15527 6.58 5.71927 5.875C6.41927 5 7.81127 3.447 9.90927 2.685C12.0433 1.909 14.7393 2.009 17.9073 4.07ZM15.5543 13.687L15.5243 13.8C15.4183 14.262 15.2343 14.762 14.9313 15.139L14.7973 15.287L14.7033 15.331C14.4683 15.403 14.1413 15.273 13.9273 15.159L13.5663 14.952C13.2163 14.759 12.7733 14.557 12.2363 14.51L11.9963 14.5C11.3423 14.5 10.8243 14.731 10.4233 14.956L10.1433 15.119C9.90027 15.265 9.47727 15.471 9.20327 15.289C8.86827 14.954 8.65827 14.47 8.53027 14.002L8.48027 13.802C8.45712 13.6707 8.40792 13.5453 8.33558 13.4332C8.26324 13.3212 8.16922 13.2247 8.05904 13.1496C7.94887 13.0744 7.82477 13.022 7.69405 12.9955C7.56334 12.969 7.42864 12.969 7.2979 12.9953C7.16716 13.0217 7.043 13.0739 6.93275 13.149C6.8225 13.224 6.72837 13.3204 6.65591 13.4323C6.58345 13.5443 6.53412 13.6696 6.51083 13.801C6.48753 13.9323 6.49075 14.0669 6.52027 14.197C6.70727 15.124 7.11827 16.032 7.79327 16.707C8.31327 17.227 9.00827 17.337 9.49627 17.333C9.99227 17.329 10.5113 17.208 10.8823 17.003L11.0103 16.928L11.1403 16.847C11.3683 16.702 11.6083 16.551 11.8663 16.51L12.0003 16.5C12.2173 16.5 12.4233 16.59 12.6203 16.702L12.8543 16.843C12.9493 16.903 13.0413 16.96 13.1333 17.009C13.4953 17.203 14.0073 17.324 14.5013 17.33C14.9873 17.336 15.6843 17.23 16.2073 16.707C16.8813 16.033 17.2923 15.127 17.4833 14.201C17.5339 13.9412 17.4806 13.6719 17.3347 13.451C17.1889 13.2302 16.9621 13.0754 16.7033 13.02C16.4633 12.9712 16.2138 13.0122 16.002 13.1351C15.7902 13.2581 15.6309 13.4544 15.5543 13.687ZM10.0003 10C9.73506 10 9.4807 10.1054 9.29317 10.2929C9.10563 10.4804 9.00027 10.7348 9.00027 11C9.00027 11.2652 9.10563 11.5196 9.29317 11.7071C9.4807 11.8946 9.73506 12 10.0003 12C10.2655 12 10.5198 11.8946 10.7074 11.7071C10.8949 11.5196 11.0003 11.2652 11.0003 11C11.0003 10.7348 10.8949 10.4804 10.7074 10.2929C10.5198 10.1054 10.2655 10 10.0003 10ZM14.0003 10C13.7351 10 13.4807 10.1054 13.2932 10.2929C13.1056 10.4804 13.0003 10.7348 13.0003 11C13.0003 11.2652 13.1056 11.5196 13.2932 11.7071C13.4807 11.8946 13.7351 12 14.0003 12C14.2655 12 14.5198 11.8946 14.7074 11.7071C14.8949 11.5196 15.0003 11.2652 15.0003 11C15.0003 10.7348 14.8949 10.4804 14.7074 10.2929C14.5198 10.1054 14.2655 10 14.0003 10ZM7.23627 6.287C7.10863 6.25608 6.97614 6.25059 6.84638 6.27087C6.71661 6.29115 6.59212 6.33678 6.47999 6.40517C6.36786 6.47356 6.2703 6.56337 6.19288 6.66946C6.11546 6.77555 6.0597 6.89586 6.02877 7.0235C5.99785 7.15115 5.99236 7.28363 6.01264 7.4134C6.03292 7.54316 6.07855 7.66766 6.14694 7.77979C6.21533 7.89191 6.30514 7.98947 6.41123 8.06689C6.51732 8.14431 6.63763 8.20008 6.76527 8.231L7.26827 8.349L7.84827 8.477L8.16127 8.541L8.82427 8.667C9.84827 8.851 10.9903 9 12.0003 9C13.3343 9 14.8913 8.74 16.1003 8.487L16.7223 8.352C16.9787 8.29104 17.2007 8.13131 17.3399 7.90755C17.4792 7.68379 17.5245 7.4141 17.466 7.15711C17.4075 6.90012 17.2499 6.67663 17.0275 6.53522C16.8051 6.39382 16.5358 6.34594 16.2783 6.402C15.0443 6.681 13.3383 7 12.0003 7C10.7923 7 9.29327 6.742 8.11527 6.488L7.50827 6.352C7.41752 6.3307 7.32685 6.30903 7.23627 6.287ZM18.5003 6C18.3677 6 18.2405 6.05268 18.1467 6.14645C18.053 6.24022 18.0003 6.36739 18.0003 6.5C18.0003 6.63261 18.053 6.75979 18.1467 6.85356C18.2405 6.94732 18.3677 7 18.5003 7C18.6329 7 18.7601 6.94732 18.8538 6.85356C18.9476 6.75979 19.0003 6.63261 19.0003 6.5C19.0003 6.36739 18.9476 6.24022 18.8538 6.14645C18.7601 6.05268 18.6329 6 18.5003 6Z" fill="currentColor"/>
</svg>
