<svg width="24" height="24" viewBox="0 0 24 24" fill="none" xmlns="http://www.w3.org/2000/svg">
<path d="M5 3C4.46957 3 3.96086 3.21071 3.58579 3.58579C3.21071 3.96086 3 4.46957 3 5V19C3 19.5304 3.21071 20.0391 3.58579 20.4142C3.96086 20.7893 4.46957 21 5 21H6C6.53043 21 7.03914 20.7893 7.41421 20.4142C7.78929 20.0391 8 19.5304 8 19V5C8 4.46957 7.78929 3.96086 7.41421 3.58579C7.03914 3.21071 6.53043 3 6 3H5ZM19 4C19.5304 4 20.0391 4.21071 20.4142 4.58579C20.7893 4.96086 21 5.46957 21 6V19C21 19.5304 20.7893 20.0391 20.4142 20.4142C20.0391 20.7893 19.5304 21 19 21H9V4H19ZM13 16C12.7551 16 12.5187 16.09 12.3356 16.2527C12.1526 16.4155 12.0357 16.6397 12.007 16.883L12 17.01C12.0003 17.2649 12.0979 17.51 12.2728 17.6954C12.4478 17.8807 12.687 17.9922 12.9414 18.0072C13.1958 18.0221 13.4464 17.9393 13.6418 17.7757C13.8373 17.6121 13.9629 17.3801 13.993 17.127L14 17C14 16.7348 13.8946 16.4804 13.7071 16.2929C13.5196 16.1054 13.2652 16 13 16ZM17 16C16.7551 16 16.5187 16.09 16.3356 16.2527C16.1526 16.4155 16.0357 16.6397 16.007 16.883L16 17.01C16.0003 17.2649 16.0979 17.51 16.2728 17.6954C16.4478 17.8807 16.687 17.9922 16.9414 18.0072C17.1958 18.0221 17.4464 17.9393 17.6418 17.7757C17.8373 17.6121 17.9629 17.3801 17.993 17.127L18 17C18 16.7348 17.8946 16.4804 17.7071 16.2929C17.5196 16.1054 17.2652 16 17 16ZM13 13C12.7551 13 12.5187 13.09 12.3356 13.2527C12.1526 13.4155 12.0357 13.6397 12.007 13.883L12 14.01C12.0003 14.2649 12.0979 14.51 12.2728 14.6954C12.4478 14.8807 12.687 14.9922 12.9414 15.0072C13.1958 15.0221 13.4464 14.9393 13.6418 14.7757C13.8373 14.6121 13.9629 14.3801 13.993 14.127L14 14C14 13.7348 13.8946 13.4804 13.7071 13.2929C13.5196 13.1054 13.2652 13 13 13ZM17 13C16.7551 13 16.5187 13.09 16.3356 13.2527C16.1526 13.4155 16.0357 13.6397 16.007 13.883L16 14.01C16.0003 14.2649 16.0979 14.51 16.2728 14.6954C16.4478 14.8807 16.687 14.9922 16.9414 15.0072C17.1958 15.0221 17.4464 14.9393 17.6418 14.7757C17.8373 14.6121 17.9629 14.3801 17.993 14.127L18 14C18 13.7348 17.8946 13.4804 17.7071 13.2929C17.5196 13.1054 17.2652 13 17 13ZM17.5 7H12.5C12.1271 7.00002 11.7676 7.13892 11.4916 7.38962C11.2156 7.64032 11.0428 7.98484 11.007 8.356L11 8.5V10.5C11 10.8729 11.1389 11.2324 11.3896 11.5084C11.6403 11.7844 11.9848 11.9572 12.356 11.993L12.5 12H17.5C17.8729 12 18.2324 11.8611 18.5084 11.6104C18.7844 11.3597 18.9572 11.0152 18.993 10.644L19 10.5V8.5C19 8.12712 18.8611 7.76761 18.6104 7.49158C18.3597 7.21555 18.0152 7.0428 17.644 7.007L17.5 7ZM17 9V10H13V9H17Z" fill="currentColor"/>
</svg>
