<svg width="24" height="24" viewBox="0 0 24 24" fill="none" xmlns="http://www.w3.org/2000/svg">
<path fill-rule="evenodd" clip-rule="evenodd" d="M13.1793 1.971C13.7466 2.25472 14.1925 2.73351 14.4351 3.31949C14.6778 3.90547 14.7009 4.55932 14.5003 5.161L14.2653 5.867L14.3513 5.897C15.0989 6.14598 15.7901 6.53977 16.3855 7.05588C16.9809 7.57199 17.4688 8.20032 17.8213 8.905L17.8943 9.053C17.9964 9.25714 18.0256 9.49006 17.9771 9.71308C17.9285 9.9361 17.8051 10.1358 17.6273 10.279C18.1693 11.03 18.3943 12.016 18.1693 12.962C17.9563 13.861 17.7993 14.779 17.7993 15.5C17.7993 16.22 17.9563 17.139 18.1693 18.038C18.6203 19.94 17.2573 22 15.1513 22H8.85035C6.74435 22 5.38035 19.94 5.83135 18.038C6.04435 17.138 6.20135 16.221 6.20135 15.5C6.20135 14.779 6.04435 13.86 5.83135 12.962C5.60735 12.016 5.83135 11.03 6.37335 10.279C6.19561 10.1358 6.07221 9.9361 6.02364 9.71308C5.97507 9.49006 6.00425 9.25714 6.10635 9.053L6.18035 8.905C6.84879 7.56827 7.99205 6.52914 9.38635 5.991L9.73635 5.867L9.50135 5.162C9.3366 4.66761 9.32214 4.13548 9.45979 3.63288C9.59745 3.13028 9.88104 2.67978 10.2747 2.33834C10.6684 1.99691 11.1545 1.77986 11.6715 1.71465C12.1885 1.64944 12.7132 1.739 13.1793 1.972M10.9993 16H8.18435C8.13438 16.6708 8.03646 17.3372 7.89135 17.994L7.94635 17.998L11.0003 18C11.2656 18 11.5199 17.8946 11.7075 17.7071C11.895 17.5196 12.0003 17.2652 12.0003 17C12.0003 16.7348 11.895 16.4804 11.7075 16.2929C11.5199 16.1054 11.2656 16 11.0003 16M11.0003 13H7.89035C8.02835 13.65 8.14335 14.345 8.18435 15H11.0003C11.2656 15 11.5199 14.8946 11.7075 14.7071C11.895 14.5196 12.0003 14.2652 12.0003 14C12.0003 13.7348 11.895 13.4804 11.7075 13.2929C11.5199 13.1054 11.2656 13 11.0003 13ZM12.2853 3.76C12.1809 3.70791 12.064 3.6856 11.9477 3.6955C11.8314 3.7054 11.72 3.74713 11.6258 3.81612C11.5316 3.88511 11.4582 3.9787 11.4137 4.08663C11.3692 4.19456 11.3552 4.31266 11.3733 4.428L11.3983 4.529L11.7913 5.709C11.9093 6.06257 11.8913 6.44738 11.7411 6.78846C11.5908 7.12954 11.3189 7.40244 10.9783 7.554L10.8433 7.607L10.2823 7.794C9.57918 8.02838 8.95497 8.45352 8.47935 9.022L8.66235 9.005L8.85035 9H15.1523C15.2783 9 15.4023 9.007 15.5223 9.022C15.1009 8.51781 14.5616 8.12525 13.9523 7.879L13.7203 7.794L13.1593 7.607C12.8054 7.48914 12.5081 7.24364 12.3254 6.91841C12.1428 6.59318 12.0878 6.21155 12.1713 5.848L12.2113 5.709L12.6043 4.529C12.6527 4.38389 12.6471 4.2262 12.5885 4.08492C12.5299 3.94365 12.4222 3.82827 12.2853 3.76Z" fill="currentColor"/>
</svg>
