<svg width="24" height="24" viewBox="0 0 24 24" fill="none" xmlns="http://www.w3.org/2000/svg">
<path d="M6.99931 9.5C6.99952 7.8074 7.57227 6.16464 8.62442 4.83879C9.67657 3.51294 11.1463 2.58198 12.7946 2.19725C14.4429 1.81252 16.1728 1.99666 17.7032 2.71971C19.2336 3.44277 20.4744 4.66223 21.2239 6.17984C21.9734 7.69745 22.1875 9.42396 21.8315 11.0787C21.4754 12.7334 20.5701 14.219 19.2627 15.294C17.9553 16.369 16.3227 16.9702 14.6304 16.9998C12.9381 17.0294 11.2855 16.4856 9.94131 15.457L8.15331 17.244L9.57931 18.67C9.67482 18.7622 9.751 18.8726 9.80341 18.9946C9.85582 19.1166 9.88341 19.2478 9.88456 19.3806C9.88572 19.5134 9.86041 19.6451 9.81013 19.768C9.75985 19.8908 9.6856 20.0025 9.59171 20.0964C9.49781 20.1903 9.38616 20.2645 9.26327 20.3148C9.14037 20.3651 9.00869 20.3904 8.87591 20.3892C8.74313 20.3881 8.61191 20.3605 8.48991 20.3081C8.3679 20.2557 8.25756 20.1795 8.16531 20.084L6.73931 18.659L4.61931 20.779C4.43167 20.9665 4.17723 21.0718 3.91196 21.0717C3.64669 21.0716 3.39232 20.9661 3.20481 20.7785C3.0173 20.5909 2.91202 20.3364 2.91211 20.0711C2.9122 19.8059 3.01767 19.5515 3.20531 19.364L5.32531 17.244L3.92231 15.841C3.8268 15.7487 3.75062 15.6384 3.69821 15.5164C3.6458 15.3944 3.61822 15.2632 3.61706 15.1304C3.61591 14.9976 3.64121 14.8659 3.69149 14.743C3.74177 14.6201 3.81602 14.5085 3.90992 14.4146C4.00381 14.3207 4.11546 14.2465 4.23836 14.1962C4.36125 14.1459 4.49293 14.1206 4.62571 14.1217C4.75849 14.1229 4.88971 14.1505 5.01172 14.2029C5.13372 14.2553 5.24407 14.3315 5.33631 14.427L6.73931 15.83L8.52931 14.04C7.53449 12.7358 6.99681 11.1403 6.99931 9.5Z" fill="currentColor"/>
</svg>
