<svg width="24" height="24" viewBox="0 0 24 24" fill="none" xmlns="http://www.w3.org/2000/svg">
<path fill-rule="evenodd" clip-rule="evenodd" d="M5 6C5 4.93913 5.42143 3.92172 6.17158 3.17157C6.92172 2.42143 7.93914 2 9 2H15C15.8125 1.99995 16.6058 2.24734 17.2742 2.70924C17.9426 3.17114 18.4546 3.82565 18.7419 4.58567C19.0292 5.34569 19.0782 6.17518 18.8824 6.96375C18.6866 7.75232 18.2554 8.46258 17.646 9C18.3913 9.65582 18.8662 10.5654 18.9782 11.5518C19.0902 12.5383 18.8313 13.5311 18.2519 14.3373C17.6726 15.1435 16.8141 15.7055 15.8434 15.9139C14.8727 16.1223 13.8593 15.9623 13 15.465V18C13 18.6684 12.8324 19.3261 12.5127 19.9131C12.193 20.5 11.7313 20.9975 11.1698 21.3601C10.6083 21.7227 9.96494 21.9388 9.29842 21.9886C8.63189 22.0385 7.9635 21.9205 7.3543 21.6456C6.74511 21.3706 6.21453 20.9473 5.81105 20.4144C5.40757 19.8816 5.14405 19.2561 5.04456 18.5952C4.94507 17.9342 5.0128 17.2589 5.24154 16.6309C5.47028 16.0028 5.85275 15.4421 6.354 15C5.92792 14.625 5.58674 14.1635 5.35325 13.6461C5.11976 13.1288 4.99933 12.5676 5 12C4.99933 11.4324 5.11976 10.8712 5.35325 10.3539C5.58674 9.83654 5.92792 9.37498 6.354 9C5.92792 8.62502 5.58674 8.16346 5.35325 7.64612C5.11976 7.12878 4.99933 6.56759 5 6Z" fill="currentColor"/>
</svg>
