<svg width="24" height="24" viewBox="0 0 24 24" fill="none" xmlns="http://www.w3.org/2000/svg">
<path d="M12 1.99999V8.49999C12 8.89782 12.158 9.27935 12.4393 9.56065C12.7206 9.84196 13.1022 9.99999 13.5 9.99999H20V20C20 20.5304 19.7893 21.0391 19.4142 21.4142C19.0391 21.7893 18.5304 22 18 22H10.868C10.953 21.75 11 21.478 11 21.191V17.001C11.7221 16.0381 12.0727 14.8471 11.9874 13.6465C11.9021 12.446 11.3866 11.3165 10.5355 10.4655C9.68448 9.6144 8.55499 9.09889 7.35444 9.01357C6.1539 8.92825 4.96286 9.27885 4 10.001V3.99899C4 3.46856 4.21071 2.95985 4.58579 2.58478C4.96086 2.20971 5.46957 1.99899 6 1.99899L12 1.99999ZM7 11C7.60756 11 8.2008 11.1845 8.70121 11.529C9.20163 11.8736 9.58564 12.3619 9.80244 12.9295C10.0192 13.4971 10.0586 14.1171 9.9153 14.7075C9.77201 15.2979 9.45283 15.8309 9 16.236V21.191C9 21.2763 8.97819 21.3601 8.93665 21.4346C8.89511 21.509 8.83522 21.5716 8.76267 21.6164C8.69012 21.6612 8.60732 21.6867 8.52214 21.6905C8.43696 21.6943 8.35223 21.6762 8.276 21.638L7 21L5.724 21.638C5.64777 21.6762 5.56304 21.6943 5.47786 21.6905C5.39268 21.6867 5.30988 21.6612 5.23733 21.6164C5.16478 21.5716 5.10489 21.509 5.06335 21.4346C5.02181 21.3601 5 21.2763 5 21.191V16.236C4.54717 15.8309 4.22799 15.2979 4.0847 14.7075C3.94141 14.1171 3.98077 13.4971 4.19756 12.9295C4.41436 12.3619 4.79837 11.8736 5.29879 11.529C5.7992 11.1845 6.39244 11 7 11ZM14 2.04299C14.3789 2.12335 14.7263 2.31198 15 2.58599L19.414 6.99999C19.688 7.27372 19.8766 7.62111 19.957 7.99999H14V2.04299Z" fill="currentColor"/>
</svg>
