<svg width="24" height="24" viewBox="0 0 24 24" fill="none" xmlns="http://www.w3.org/2000/svg">
<path fill-rule="evenodd" clip-rule="evenodd" d="M12 2V8.5C12 8.89782 12.158 9.27936 12.4393 9.56066C12.7206 9.84196 13.1022 10 13.5 10H20V20C20 20.5304 19.7893 21.0391 19.4142 21.4142C19.0391 21.7893 18.5304 22 18 22H6C5.46957 22 4.96086 21.7893 4.58579 21.4142C4.21071 21.0391 4 20.5304 4 20V4C4 3.46957 4.21071 2.96086 4.58579 2.58579C4.96086 2.21071 5.46957 2 6 2H12ZM11.207 12.173C11.0195 11.9855 10.7652 11.8802 10.5 11.8802C10.2348 11.8802 9.98053 11.9855 9.793 12.173L7.672 14.294C7.48453 14.4815 7.37921 14.7358 7.37921 15.001C7.37921 15.2662 7.48453 15.5205 7.672 15.708L9.792 17.83C9.97951 18.0176 10.2339 18.1231 10.4991 18.1232C10.7644 18.1233 11.0189 18.018 11.2065 17.8305C11.3941 17.643 11.4996 17.3886 11.4997 17.1234C11.4998 16.8581 11.3945 16.6036 11.207 16.416L9.793 15L11.207 13.586C11.3945 13.3985 11.4998 13.1442 11.4998 12.879C11.4998 12.6138 11.3945 12.3595 11.207 12.172V12.173ZM14.207 12.173C14.0184 11.9908 13.7658 11.89 13.5036 11.8923C13.2414 11.8946 12.9906 11.9998 12.8052 12.1852C12.6198 12.3706 12.5146 12.6214 12.5123 12.8836C12.51 13.1458 12.6108 13.3984 12.793 13.587L14.207 15.001L12.793 16.416C12.6108 16.6046 12.51 16.8572 12.5123 17.1194C12.5146 17.3816 12.6198 17.6324 12.8052 17.8178C12.9906 18.0032 13.2414 18.1084 13.5036 18.1107C13.7658 18.113 14.0184 18.0122 14.207 17.83L16.328 15.708C16.5155 15.5205 16.6208 15.2662 16.6208 15.001C16.6208 14.7358 16.5155 14.4815 16.328 14.294L14.207 12.173ZM14 2.043C14.3789 2.12336 14.7263 2.31199 15 2.586L19.414 7C19.688 7.27373 19.8766 7.62112 19.957 8H14V2.043Z" fill="currentColor"/>
</svg>
