<svg width="24" height="24" viewBox="0 0 24 24" fill="none" xmlns="http://www.w3.org/2000/svg">
<path d="M12 2V8.5C12 8.89782 12.158 9.27936 12.4393 9.56066C12.7206 9.84196 13.1022 10 13.5 10H20V20C20 20.5304 19.7893 21.0391 19.4142 21.4142C19.0391 21.7893 18.5304 22 18 22H6C5.46957 22 4.96086 21.7893 4.58579 21.4142C4.21071 21.0391 4 20.5304 4 20V19H7.414L6.293 20.121C6.20009 20.2138 6.12638 20.3241 6.07607 20.4454C6.02576 20.5667 5.99984 20.6968 5.9998 20.8281C5.99975 20.9595 6.02558 21.0896 6.0758 21.2109C6.12602 21.3323 6.19966 21.4426 6.2925 21.5355C6.48001 21.7231 6.73438 21.8286 6.99965 21.8287C7.131 21.8287 7.26107 21.8029 7.38243 21.7527C7.5038 21.7025 7.61409 21.6288 7.707 21.536L10.536 18.707C10.7235 18.5195 10.8288 18.2652 10.8288 18C10.8288 17.7348 10.7235 17.4805 10.536 17.293L7.707 14.465C7.61475 14.3695 7.50441 14.2933 7.3824 14.2409C7.2604 14.1885 7.12918 14.1609 6.9964 14.1597C6.86362 14.1586 6.73194 14.1839 6.60905 14.2342C6.48615 14.2845 6.3745 14.3587 6.2806 14.4526C6.18671 14.5465 6.11246 14.6581 6.06218 14.781C6.0119 14.9039 5.9866 15.0356 5.98775 15.1684C5.9889 15.3012 6.01649 15.4324 6.0689 15.5544C6.12131 15.6764 6.19749 15.7868 6.293 15.879L7.414 17H4V4C4 3.46957 4.21071 2.96086 4.58579 2.58579C4.96086 2.21071 5.46957 2 6 2H12ZM4 17V19H3C2.73478 19 2.48043 18.8946 2.29289 18.7071C2.10536 18.5196 2 18.2652 2 18C2 17.7348 2.10536 17.4804 2.29289 17.2929C2.48043 17.1054 2.73478 17 3 17H4ZM14 2.043C14.3789 2.12336 14.7263 2.31199 15 2.586L19.414 7C19.688 7.27373 19.8766 7.62112 19.957 8H14V2.043Z" fill="currentColor"/>
</svg>
