<svg width="24" height="24" viewBox="0 0 24 24" fill="none" xmlns="http://www.w3.org/2000/svg">
<path fill-rule="evenodd" clip-rule="evenodd" d="M12 2V8.5C12 8.89782 12.158 9.27936 12.4393 9.56066C12.7206 9.84196 13.1022 10 13.5 10H20V20C20 20.5304 19.7893 21.0391 19.4142 21.4142C19.0391 21.7893 18.5304 22 18 22H6C5.46957 22 4.96086 21.7893 4.58579 21.4142C4.21071 21.0391 4 20.5304 4 20V4C4 3.46957 4.21071 2.96086 4.58579 2.58579C4.96086 2.21071 5.46957 2 6 2H12ZM12 11C11.7348 11 11.4804 11.1054 11.2929 11.2929C11.1054 11.4804 11 11.7348 11 12V14.708L10.586 14.294C10.3974 14.1118 10.1448 14.011 9.8826 14.0133C9.6204 14.0156 9.36959 14.1208 9.18418 14.3062C8.99877 14.4916 8.8936 14.7424 8.89133 15.0046C8.88905 15.2668 8.98984 15.5194 9.172 15.708L11.292 17.83C11.3849 17.923 11.4952 17.9967 11.6166 18.0471C11.738 18.0974 11.8681 18.1233 11.9995 18.1233C12.1309 18.1233 12.261 18.0974 12.3824 18.0471C12.5038 17.9967 12.6141 17.923 12.707 17.83L14.828 15.708C14.9235 15.6158 14.9997 15.5054 15.0521 15.3834C15.1045 15.2614 15.1321 15.1302 15.1333 14.9974C15.1344 14.8646 15.1091 14.7329 15.0588 14.61C15.0085 14.4872 14.9343 14.3755 14.8404 14.2816C14.7465 14.1877 14.6349 14.1135 14.512 14.0632C14.3891 14.0129 14.2574 13.9876 14.1246 13.9887C13.9918 13.9899 13.8606 14.0175 13.7386 14.0699C13.6166 14.1223 13.5062 14.1985 13.414 14.294L13 14.708V12C13 11.7348 12.8946 11.4804 12.7071 11.2929C12.5196 11.1054 12.2652 11 12 11ZM14 2.043C14.3789 2.12336 14.7263 2.31199 15 2.586L19.414 7C19.688 7.27373 19.8766 7.62112 19.957 8H14V2.043Z" fill="currentColor"/>
</svg>
