<svg width="24" height="24" viewBox="0 0 24 24" fill="none" xmlns="http://www.w3.org/2000/svg">
<path fill-rule="evenodd" clip-rule="evenodd" d="M12 2V8.5C12 8.89782 12.158 9.27936 12.4393 9.56066C12.7206 9.84196 13.1022 10 13.5 10H20V20C20 20.5304 19.7893 21.0391 19.4142 21.4142C19.0391 21.7893 18.5304 22 18 22H6C5.46957 22 4.96086 21.7893 4.58579 21.4142C4.21071 21.0391 4 20.5304 4 20V4C4 3.46957 4.21071 2.96086 4.58579 2.58579C4.96086 2.21071 5.46957 2 6 2H12ZM11.654 11.699L10.76 13.234L9.023 13.61C8.95458 13.6248 8.89125 13.6574 8.83934 13.7044C8.78744 13.7513 8.74877 13.8111 8.72721 13.8777C8.70565 13.9443 8.70195 14.0154 8.71647 14.0839C8.731 14.1524 8.76325 14.2159 8.81 14.268L9.994 15.593L9.814 17.361C9.80695 17.4307 9.81831 17.501 9.84694 17.5649C9.87558 17.6288 9.92049 17.684 9.97718 17.7251C10.0339 17.7662 10.1004 17.7917 10.17 17.7991C10.2396 17.8064 10.31 17.7954 10.374 17.767L12 17.051L13.626 17.767C13.69 17.7954 13.7604 17.8064 13.83 17.7991C13.8996 17.7917 13.9661 17.7662 14.0228 17.7251C14.0795 17.684 14.1244 17.6288 14.1531 17.5649C14.1817 17.501 14.1931 17.4307 14.186 17.361L14.006 15.593L15.191 14.268C15.2378 14.2158 15.27 14.1523 15.2844 14.0837C15.2989 14.0152 15.2951 13.944 15.2735 13.8774C15.2518 13.8108 15.213 13.751 15.161 13.7041C15.1089 13.6571 15.0455 13.6247 14.977 13.61L13.24 13.234L12.346 11.699C12.3108 11.6384 12.2604 11.5881 12.1996 11.5531C12.1389 11.5181 12.0701 11.4997 12 11.4997C11.9299 11.4997 11.8611 11.5181 11.8004 11.5531C11.7396 11.5881 11.6892 11.6384 11.654 11.699ZM14 2.043C14.3789 2.12336 14.7263 2.31199 15 2.586L19.414 7C19.688 7.27373 19.8766 7.62112 19.957 8H14V2.043Z" fill="currentColor"/>
</svg>
