<svg width="24" height="24" viewBox="0 0 24 24" fill="none" xmlns="http://www.w3.org/2000/svg">
<path fill-rule="evenodd" clip-rule="evenodd" d="M12 2V8.5C12 8.89782 12.158 9.27936 12.4393 9.56066C12.7206 9.84196 13.1022 10 13.5 10H20V20C20 20.5304 19.7893 21.0391 19.4142 21.4142C19.0391 21.7893 18.5304 22 18 22H6C5.46957 22 4.96086 21.7893 4.58579 21.4142C4.21071 21.0391 4 20.5304 4 20V4C4 3.46957 4.21071 2.96086 4.58579 2.58579C4.96086 2.21071 5.46957 2 6 2H12ZM12 18C11.7348 18 11.4804 18.1054 11.2929 18.2929C11.1054 18.4804 11 18.7348 11 19C11 19.2652 11.1054 19.5196 11.2929 19.7071C11.4804 19.8946 11.7348 20 12 20C12.2652 20 12.5196 19.8946 12.7071 19.7071C12.8946 19.5196 13 19.2652 13 19C13 18.7348 12.8946 18.4804 12.7071 18.2929C12.5196 18.1054 12.2652 18 12 18ZM12 12C11.337 12 10.7011 12.2634 10.2322 12.7322C9.76339 13.2011 9.5 13.837 9.5 14.5C9.5 14.7652 9.60536 15.0196 9.79289 15.2071C9.98043 15.3946 10.2348 15.5 10.5 15.5C10.7652 15.5 11.0196 15.3946 11.2071 15.2071C11.3946 15.0196 11.5 14.7652 11.5 14.5C11.5 14.4152 11.5215 14.3319 11.5626 14.2577C11.6036 14.1836 11.6628 14.1211 11.7347 14.0761C11.8065 14.0311 11.8886 14.0052 11.9732 14.0006C12.0578 13.9961 12.1422 14.0131 12.2185 14.0502C12.2947 14.0872 12.3603 14.143 12.409 14.2123C12.4578 14.2817 12.4881 14.3623 12.4971 14.4465C12.5062 14.5308 12.4937 14.616 12.4608 14.6941C12.4279 14.7722 12.3756 14.8406 12.309 14.893C12.089 15.066 11.779 15.317 11.525 15.63C11.351 15.844 11.141 16.224 11.141 16.578C11.141 16.932 11.375 17.422 12 17.422C12.402 17.422 12.847 17.048 13.254 16.705C13.354 16.621 13.452 16.539 13.546 16.465C13.9546 16.1436 14.2528 15.7029 14.3992 15.2041C14.5456 14.7053 14.5329 14.1732 14.3628 13.682C14.1927 13.1908 13.8738 12.7648 13.4503 12.4633C13.0268 12.1619 12.5198 11.9999 12 12ZM14 2.043C14.3789 2.12336 14.7263 2.31199 15 2.586L19.414 7C19.688 7.27373 19.8766 7.62112 19.957 8H14V2.043Z" fill="currentColor"/>
</svg>
