<svg width="24" height="24" viewBox="0 0 24 24" fill="none" xmlns="http://www.w3.org/2000/svg">
<path d="M12 2V8.5C12 8.87288 12.1389 9.23239 12.3896 9.50842C12.6403 9.78445 12.9848 9.9572 13.356 9.993L13.5 10H20V14.892L17.633 14.102C17.2819 13.985 16.9053 13.9677 16.545 14.052L16.367 14.102L13.367 15.102C12.9948 15.2263 12.6674 15.4574 12.4256 15.7664C12.1838 16.0755 12.0382 16.4488 12.007 16.84L12 17V18.671C11.9985 19.7944 12.352 20.8895 13.01 21.8L13.162 22H6C5.49542 22.0002 5.00943 21.8096 4.63945 21.4665C4.26947 21.1234 4.04284 20.6532 4.005 20.15L4 20V4C3.99984 3.49542 4.19041 3.00943 4.5335 2.63945C4.87659 2.26947 5.34684 2.04284 5.85 2.005L6 2H12ZM17 16L20 17V18.671C20.0001 19.4946 19.6964 20.2893 19.1472 20.903C18.5979 21.5166 17.8416 21.9062 17.023 21.997H16.977C16.1897 21.9094 15.4589 21.5454 14.9147 20.9697C14.3705 20.3941 14.0482 19.644 14.005 18.853L14 18.671V17L17 16ZM14 2.043C14.3234 2.11165 14.6247 2.25939 14.877 2.473L15 2.586L19.414 7C19.6483 7.23411 19.8208 7.52275 19.916 7.84L19.956 8H14V2.043Z" fill="currentColor"/>
</svg>
