<svg width="24" height="24" viewBox="0 0 24 24" fill="none" xmlns="http://www.w3.org/2000/svg">
<path fill-rule="evenodd" clip-rule="evenodd" d="M13.586 2C14.0556 2.00011 14.5101 2.16543 14.87 2.467L15 2.586L19.414 7C19.746 7.33202 19.9506 7.77028 19.992 8.238L20 8.414V20C20.0002 20.5046 19.8096 20.9906 19.4665 21.3605C19.1234 21.7305 18.6532 21.9572 18.15 21.995L18 22H15V18.5C15 18.1271 14.8611 17.7676 14.6104 17.4916C14.3597 17.2156 14.0152 17.0428 13.644 17.007L13.5 17H10.5C10.1271 17 9.76761 17.1389 9.49158 17.3896C9.21555 17.6403 9.0428 17.9848 9.007 18.356L9 18.5V22H6C5.49542 22.0002 5.00943 21.8096 4.63945 21.4665C4.26947 21.1234 4.04284 20.6532 4.005 20.15L4 20V4C3.99984 3.49542 4.19041 3.00943 4.5335 2.63945C4.87659 2.26947 5.34684 2.04284 5.85 2.005L6 2H13.586ZM13 19V22H11V19H13ZM11 13H10C9.74512 13.0003 9.49997 13.0979 9.31463 13.2728C9.1293 13.4478 9.01776 13.687 9.00283 13.9414C8.98789 14.1958 9.07067 14.4464 9.23426 14.6418C9.39785 14.8373 9.6299 14.9629 9.883 14.993L10 15H11C11.2549 14.9997 11.5 14.9021 11.6854 14.7272C11.8707 14.5522 11.9822 14.313 11.9972 14.0586C12.0121 13.8042 11.9293 13.5536 11.7657 13.3582C11.6021 13.1627 11.3701 13.0371 11.117 13.007L11 13ZM14 11H13C12.7451 11.0003 12.5 11.0979 12.3146 11.2728C12.1293 11.4478 12.0178 11.687 12.0028 11.9414C11.9879 12.1958 12.0707 12.4464 12.2343 12.6418C12.3979 12.8373 12.6299 12.9629 12.883 12.993L13 13H14C14.2549 12.9997 14.5 12.9021 14.6854 12.7272C14.8707 12.5522 14.9822 12.313 14.9972 12.0586C15.0121 11.8042 14.9293 11.5536 14.7657 11.3582C14.6021 11.1627 14.3701 11.0371 14.117 11.007L14 11ZM11 9H10C9.73478 9 9.48043 9.10536 9.29289 9.29289C9.10536 9.48043 9 9.73478 9 10C9 10.2652 9.10536 10.5196 9.29289 10.7071C9.48043 10.8946 9.73478 11 10 11H11C11.2652 11 11.5196 10.8946 11.7071 10.7071C11.8946 10.5196 12 10.2652 12 10C12 9.73478 11.8946 9.48043 11.7071 9.29289C11.5196 9.10536 11.2652 9 11 9ZM14 7H13C12.7348 7 12.4804 7.10536 12.2929 7.29289C12.1054 7.48043 12 7.73478 12 8C12 8.26522 12.1054 8.51957 12.2929 8.70711C12.4804 8.89464 12.7348 9 13 9H14C14.2652 9 14.5196 8.89464 14.7071 8.70711C14.8946 8.51957 15 8.26522 15 8C15 7.73478 14.8946 7.48043 14.7071 7.29289C14.5196 7.10536 14.2652 7 14 7Z" fill="currentColor"/>
</svg>
