<svg width="24" height="24" viewBox="0 0 24 24" fill="none" xmlns="http://www.w3.org/2000/svg">
<path fill-rule="evenodd" clip-rule="evenodd" d="M12 2V8.5C12 8.87288 12.1389 9.23239 12.3896 9.50842C12.6403 9.78445 12.9848 9.9572 13.356 9.993L13.5 10H20V20C20.0002 20.5046 19.8096 20.9906 19.4665 21.3605C19.1234 21.7305 18.6532 21.9572 18.15 21.995L18 22H6C5.49542 22.0002 5.00943 21.8096 4.63945 21.4665C4.26947 21.1234 4.04284 20.6532 4.005 20.15L4 20V4C3.99984 3.49542 4.19041 3.00943 4.5335 2.63945C4.87659 2.26947 5.34684 2.04284 5.85 2.005L6 2H12ZM12 11.5C11.7551 11.5 11.5187 11.59 11.3356 11.7527C11.1526 11.9155 11.0357 12.1397 11.007 12.383L11 12.5V14H9.5C9.24512 14.0003 8.99997 14.0979 8.81463 14.2728C8.6293 14.4478 8.51776 14.687 8.50283 14.9414C8.48789 15.1958 8.57067 15.4464 8.73426 15.6418C8.89785 15.8373 9.1299 15.9629 9.383 15.993L9.5 16H11V17.5C11.0003 17.7549 11.0979 18 11.2728 18.1854C11.4478 18.3707 11.687 18.4822 11.9414 18.4972C12.1958 18.5121 12.4464 18.4293 12.6418 18.2657C12.8373 18.1021 12.9629 17.8701 12.993 17.617L13 17.5V16H14.5C14.7549 15.9997 15 15.9021 15.1854 15.7272C15.3707 15.5522 15.4822 15.313 15.4972 15.0586C15.5121 14.8042 15.4293 14.5536 15.2657 14.3582C15.1021 14.1627 14.8701 14.0371 14.617 14.007L14.5 14H13V12.5C13 12.2348 12.8946 11.9804 12.7071 11.7929C12.5196 11.6054 12.2652 11.5 12 11.5ZM14 2.043C14.3234 2.11165 14.6247 2.25939 14.877 2.473L15 2.586L19.414 7C19.6483 7.23411 19.8208 7.52275 19.916 7.84L19.956 8H14V2.043Z" fill="currentColor"/>
</svg>
