<svg width="24" height="24" viewBox="0 0 24 24" fill="none" xmlns="http://www.w3.org/2000/svg">
<path d="M12 2V8.5C12 8.87288 12.1389 9.23239 12.3896 9.50842C12.6403 9.78445 12.9848 9.9572 13.356 9.993L13.5 10H20V20C20.0002 20.5046 19.8096 20.9906 19.4665 21.3605C19.1234 21.7305 18.6532 21.9572 18.15 21.995L18 22H6C5.49542 22.0002 5.00943 21.8096 4.63945 21.4665C4.26947 21.1234 4.04284 20.6532 4.005 20.15L4 20V4C3.99984 3.49542 4.19041 3.00943 4.5335 2.63945C4.87659 2.26947 5.34684 2.04284 5.85 2.005L6 2H12ZM14 2.043C14.3234 2.11165 14.6247 2.25939 14.877 2.473L15 2.586L19.414 7C19.6483 7.23411 19.8208 7.52275 19.916 7.84L19.956 8H14V2.043Z" fill="currentColor"/>
</svg>
