<svg width="24" height="24" viewBox="0 0 24 24" fill="none" xmlns="http://www.w3.org/2000/svg">
<path d="M20 3C20.5046 2.99984 20.9906 3.19041 21.3605 3.5335C21.7305 3.87659 21.9572 4.34684 21.995 4.85L22 5V19C22.0002 19.5046 21.8096 19.9906 21.4665 20.3605C21.1234 20.7305 20.6532 20.9572 20.15 20.995L20 21H4C3.49542 21.0002 3.00943 20.8096 2.63945 20.4665C2.26947 20.1234 2.04284 19.6532 2.005 19.15L2 19V5C1.99984 4.49542 2.19041 4.00943 2.5335 3.63945C2.87659 3.26947 3.34684 3.04284 3.85 3.005L4 3H20ZM20 17H18V19H20V17ZM6 17H4V19H6V17ZM20 13H18V15H20V13ZM6 13H4V15H6V13ZM20 9H18V11H20V9ZM6 9H4V11H6V9ZM20 5H18V7H20V5ZM6 5H4V7H6V5Z" fill="currentColor"/>
</svg>
