<svg width="24" height="24" viewBox="0 0 24 24" fill="none" xmlns="http://www.w3.org/2000/svg">
<path fill-rule="evenodd" clip-rule="evenodd" d="M3 6C3 5.197 3.437 4.552 3.965 4.084C4.495 3.615 5.203 3.238 5.992 2.942C7.578 2.347 9.702 2 12 2C14.297 2 16.422 2.347 18.008 2.942C18.798 3.238 19.506 3.615 20.035 4.084C20.562 4.552 21 5.197 21 6C21 10.644 18.13 14.652 14.11 15.724C14.0722 15.7334 14.038 15.754 14.012 15.783C14.003 15.793 14 15.8 14 15.8V19.805C13.9998 20.0837 13.9066 20.3543 13.735 20.5739C13.5634 20.7935 13.3234 20.9494 13.053 21.017L11.553 21.392C11.3688 21.438 11.1765 21.4415 10.9907 21.4021C10.805 21.3627 10.6306 21.2815 10.4809 21.1647C10.3313 21.0479 10.2101 20.8985 10.1268 20.7279C10.0435 20.5572 10.0001 20.3699 10 20.18V15.8C10 15.8 9.997 15.792 9.988 15.782C9.96179 15.7534 9.92769 15.7332 9.89 15.724C5.87 14.652 3 10.644 3 6ZM5 6C5 5.415 6.3 4.963 6.694 4.815C8.004 4.325 9.88 4 12 4C14.12 4 15.997 4.324 17.306 4.815C17.699 4.963 19 5.415 19 6C19 6.585 17.7 7.037 17.306 7.185C15.996 7.675 14.12 8 12 8C9.88 8 8.003 7.676 6.694 7.185C6.301 7.037 5 6.585 5 6Z" fill="currentColor"/>
</svg>
