<svg width="24" height="24" viewBox="0 0 24 24" fill="none" xmlns="http://www.w3.org/2000/svg">
<path d="M10.5002 6C11.1349 5.9999 11.7459 6.24123 12.2092 6.67504C12.6726 7.10885 12.9535 7.70265 12.9952 8.336L13.0002 8.5V13.105L17.4552 13.711C18.3963 13.8187 19.2687 14.257 19.917 14.9477C20.5653 15.6385 20.9473 16.5369 20.9952 17.483L21.0002 17.685V18C21.0006 18.7003 20.9091 19.3975 20.7282 20.074C20.4022 21.294 19.2922 21.934 18.2302 21.995L18.0622 22H8.23618C7.71293 22 7.1988 21.8631 6.74481 21.6029C6.29082 21.3428 5.91276 20.9684 5.64818 20.517L5.55318 20.342L3.32918 15.894C2.96918 15.174 3.23618 14.211 4.07618 13.866C5.11918 13.439 6.11018 13.36 7.13118 13.878C7.35318 13.991 7.57118 14.13 7.78518 14.292L8.00018 14.462V8.5C8.00018 7.83696 8.26357 7.20107 8.73241 6.73223C9.20125 6.26339 9.83714 6 10.5002 6ZM10.5002 2C11.5052 1.99981 12.4965 2.23266 13.3963 2.68025C14.2961 3.12784 15.0799 3.77797 15.686 4.57957C16.2921 5.38118 16.7042 6.31241 16.8897 7.30012C17.0752 8.28782 17.0291 9.30509 16.7552 10.272C16.6782 10.5215 16.5066 10.7309 16.2773 10.8556C16.0479 10.9803 15.7788 11.0103 15.5276 10.9393C15.2764 10.8682 15.0629 10.7018 14.9328 10.4754C14.8026 10.2491 14.7662 9.98085 14.8312 9.728C15.0306 9.023 15.0549 8.27996 14.902 7.56343C14.749 6.84691 14.4234 6.17856 13.9535 5.61647C13.4835 5.05438 12.8834 4.61554 12.2053 4.33807C11.5272 4.06061 10.7916 3.95292 10.0624 4.02435C9.33324 4.09578 8.63253 4.34418 8.02116 4.74796C7.40979 5.15174 6.90626 5.6987 6.55432 6.3413C6.20237 6.98391 6.01266 7.70273 6.00166 8.43532C5.99065 9.16791 6.15869 9.89211 6.49118 10.545C6.61185 10.7813 6.63371 11.0559 6.55194 11.3083C6.47018 11.5607 6.29149 11.7703 6.05518 11.891C5.81887 12.0117 5.5443 12.0335 5.29188 11.9518C5.03945 11.87 4.82985 11.6913 4.70918 11.455C4.20334 10.464 3.96038 9.35967 4.00354 8.24785C4.0467 7.13602 4.37455 6.05389 4.9557 5.10505C5.53684 4.15621 6.35182 3.37244 7.32262 2.82877C8.29341 2.2851 9.38751 1.99974 10.5002 2Z" fill="currentColor"/>
</svg>
