<svg width="24" height="24" viewBox="0 0 24 24" fill="none" xmlns="http://www.w3.org/2000/svg">
<path fill-rule="evenodd" clip-rule="evenodd" d="M12 22C17.523 22 22 17.523 22 12C22 6.477 17.523 2 12 2C6.477 2 2 6.477 2 12C2 17.523 6.477 22 12 22ZM4.5 12C4.5 10.0109 5.29018 8.10322 6.6967 6.6967C8.10322 5.29018 10.0109 4.5 12 4.5C13.9891 4.5 15.8968 5.29018 17.3033 6.6967C18.7098 8.10322 19.5 10.0109 19.5 12C19.5 13.197 18.53 14.167 17.333 14.167C16.8305 14.167 16.3442 13.9887 15.9608 13.6638C15.5774 13.339 15.3216 12.8887 15.239 12.393L15.081 11.443C14.9595 10.7136 14.5832 10.051 14.0191 9.57309C13.4549 9.09515 12.7394 8.8329 12 8.833C11.1601 8.833 10.3545 9.16666 9.76059 9.76059C9.16666 10.3545 8.833 11.1601 8.833 12C8.83294 13.7641 9.38156 15.4845 10.4028 16.9229C11.4241 18.3613 12.8675 19.4465 14.533 20.028C14.6572 20.0678 14.7921 20.0576 14.9088 19.9994C15.0256 19.9412 15.1149 19.8396 15.1579 19.7164C15.2008 19.5933 15.1939 19.4582 15.1386 19.34C15.0833 19.2219 14.9841 19.13 14.862 19.084C13.3925 18.5707 12.119 17.6132 11.2179 16.3439C10.3169 15.0746 9.83287 13.5566 9.833 12C9.833 10.803 10.803 9.833 12 9.833C13.038 9.833 13.924 10.583 14.094 11.607L14.253 12.557C14.3744 13.2862 14.7506 13.9487 15.3146 14.4266C15.8785 14.9045 16.5938 15.1669 17.333 15.167C18.1729 15.167 18.9785 14.8333 19.5724 14.2394C20.1663 13.6455 20.5 12.8399 20.5 12C20.5 9.74566 19.6045 7.58365 18.0104 5.98959C16.4163 4.39553 14.2543 3.5 12 3.5C9.74566 3.5 7.58365 4.39553 5.98959 5.98959C4.39553 7.58365 3.5 9.74566 3.5 12C3.5 13.616 3.777 15.168 4.287 16.611C4.33116 16.736 4.42318 16.8384 4.54283 16.8956C4.66248 16.9528 4.79995 16.9602 4.925 16.916C5.05005 16.8718 5.15244 16.7798 5.20963 16.6602C5.26683 16.5405 5.27416 16.403 5.23 16.278C4.74516 14.9039 4.49829 13.4571 4.5 12ZM7.167 12C7.167 11.3653 7.29201 10.7369 7.53489 10.1505C7.77777 9.56412 8.13377 9.03134 8.58255 8.58255C9.03134 8.13377 9.56412 7.77777 10.1505 7.53489C10.7369 7.29201 11.3653 7.167 12 7.167C12.6347 7.167 13.2631 7.29201 13.8495 7.53489C14.4359 7.77777 14.9687 8.13377 15.4174 8.58255C15.8662 9.03134 16.2222 9.56412 16.4651 10.1505C16.708 10.7369 16.833 11.3653 16.833 12C16.833 12.1326 16.8857 12.2598 16.9794 12.3536C17.0732 12.4473 17.2004 12.5 17.333 12.5C17.4656 12.5 17.5928 12.4473 17.6866 12.3536C17.7803 12.2598 17.833 12.1326 17.833 12C17.833 10.453 17.2185 8.96935 16.1246 7.87545C15.0307 6.78155 13.547 6.167 12 6.167C10.453 6.167 8.96935 6.78155 7.87545 7.87545C6.78155 8.96935 6.167 10.453 6.167 12C6.167 15.335 7.63 18.33 9.947 20.375C10.0465 20.4628 10.1767 20.5075 10.3091 20.4992C10.4415 20.491 10.5652 20.4305 10.653 20.331C10.7408 20.2315 10.7855 20.1013 10.7772 19.9689C10.769 19.8365 10.7085 19.7128 10.609 19.625C9.52587 18.672 8.65855 17.4989 8.06499 16.184C7.47143 14.8691 7.16528 13.4427 7.167 12ZM12.5 12C12.5 11.8674 12.4473 11.7402 12.3536 11.6464C12.2598 11.5527 12.1326 11.5 12 11.5C11.8674 11.5 11.7402 11.5527 11.6464 11.6464C11.5527 11.7402 11.5 11.8674 11.5 12C11.4998 12.8484 11.6846 13.6866 12.0416 14.4562C12.3987 15.2258 12.9193 15.9083 13.5672 16.456C14.215 17.0038 14.9746 17.4036 15.7929 17.6276C16.6112 17.8516 17.4685 17.8944 18.305 17.753C18.4332 17.7284 18.5466 17.6546 18.6212 17.5474C18.6957 17.4403 18.7253 17.3082 18.7038 17.1795C18.6822 17.0507 18.6112 16.9355 18.5059 16.8585C18.4005 16.7814 18.2692 16.7486 18.14 16.767C17.4467 16.8844 16.7362 16.8491 16.058 16.6636C15.3798 16.4781 14.7502 16.1469 14.2132 15.693C13.6762 15.2391 13.2447 14.6735 12.9488 14.0357C12.6529 13.3979 12.4997 12.7031 12.5 12Z" fill="currentColor"/>
</svg>
