<svg width="24" height="24" viewBox="0 0 24 24" fill="none" xmlns="http://www.w3.org/2000/svg">
<path d="M13.7415 16.202C13.5145 15.596 14.2625 15.13 14.7055 15.544L14.7665 15.61L17.6165 19.07C17.7362 19.2167 17.8236 19.387 17.873 19.5698C17.9224 19.7526 17.9328 19.9437 17.9033 20.1308C17.8739 20.3178 17.8054 20.4965 17.7022 20.6553C17.5991 20.8141 17.4636 20.9493 17.3046 21.0522C17.1457 21.1551 16.9668 21.2233 16.7797 21.2524C16.5926 21.2815 16.4015 21.2708 16.2188 21.2211C16.0361 21.1713 15.866 21.0836 15.7195 20.9637C15.573 20.8437 15.4534 20.6943 15.3685 20.525L15.3145 20.399L13.7415 16.202ZM14.3835 12.716L14.4685 12.742L18.6665 14.315C18.8436 14.3818 19.0047 14.4851 19.1392 14.6183C19.2737 14.7514 19.3786 14.9115 19.4471 15.0879C19.5156 15.2644 19.5461 15.4532 19.5367 15.6423C19.5273 15.8313 19.4782 16.0163 19.3925 16.185C19.3069 16.3538 19.1866 16.5026 19.0396 16.6218C18.8925 16.741 18.722 16.8279 18.5392 16.8767C18.3563 16.9256 18.1652 16.9354 17.9783 16.9055C17.7915 16.8755 17.613 16.8065 17.4545 16.703L17.3375 16.616L13.8775 13.767C13.3775 13.357 13.7925 12.579 14.3835 12.717V12.716ZM22.4995 12C22.4995 12.789 21.8295 13.399 21.0595 13.344L20.9305 13.329L16.5095 12.592C15.8775 12.487 15.8425 11.624 16.4035 11.434L16.5095 11.408L20.9305 10.671C21.1237 10.6387 21.3215 10.6489 21.5102 10.7009C21.699 10.7529 21.8742 10.8455 22.0235 10.9721C22.1729 11.0987 22.2928 11.2563 22.3751 11.434C22.4573 11.6117 22.4997 11.8052 22.4995 12.001V12ZM19.3595 7.74999C19.7525 8.42999 19.4795 9.29099 18.7915 9.62999L18.6655 9.68499L14.4675 11.258C13.8625 11.485 13.3975 10.737 13.8105 10.294L13.8755 10.233L17.3365 7.38299C17.4876 7.25862 17.664 7.16865 17.8533 7.11936C18.0427 7.07006 18.2406 7.06262 18.4331 7.09755C18.6257 7.13248 18.8083 7.20894 18.9683 7.32162C19.1283 7.43429 19.2618 7.58048 19.3595 7.74999ZM17.2495 2.90699C17.9275 3.29899 18.1225 4.17499 17.7025 4.81299L17.6155 4.92999L14.7665 8.38999C14.3565 8.88999 13.5785 8.47499 13.7165 7.88399L13.7415 7.79899L15.3145 3.59999C15.3832 3.41678 15.4909 3.25072 15.6302 3.11335C15.7695 2.97598 15.937 2.87061 16.1212 2.80456C16.3054 2.73851 16.5017 2.71337 16.6965 2.73089C16.8914 2.74841 17.0801 2.80816 17.2495 2.90599V2.90699ZM9.23253 15.61C9.64253 15.11 10.4205 15.525 10.2825 16.116L10.2575 16.201L8.68453 20.4C8.61777 20.5771 8.51443 20.7381 8.38126 20.8726C8.24808 21.0071 8.08806 21.112 7.91162 21.1805C7.73517 21.249 7.54628 21.2796 7.35724 21.2702C7.1682 21.2608 6.98326 21.2117 6.81449 21.126C6.64571 21.0403 6.49688 20.9201 6.3777 20.773C6.25851 20.626 6.17166 20.4555 6.12279 20.2726C6.07392 20.0898 6.06413 19.8987 6.09407 19.7118C6.12401 19.5249 6.19299 19.3464 6.29653 19.188L6.38253 19.071L9.23253 15.61ZM10.1875 13.706L10.1215 13.767L6.66153 16.617C6.51481 16.7367 6.3445 16.8241 6.16173 16.8735C5.97895 16.9229 5.78781 16.9332 5.60077 16.9038C5.41373 16.8744 5.23499 16.8058 5.07623 16.7027C4.91746 16.5995 4.78222 16.464 4.67934 16.3051C4.57646 16.1461 4.50825 15.9673 4.47915 15.7802C4.45005 15.5931 4.46073 15.402 4.51047 15.2193C4.56022 15.0366 4.64792 14.8664 4.76785 14.7199C4.88779 14.5734 5.03727 14.4538 5.20653 14.369L5.33253 14.315L9.53053 12.742C10.1355 12.515 10.6005 13.263 10.1875 13.706ZM2.93953 10.656L3.06853 10.671L7.48953 11.408C8.12153 11.514 8.15653 12.376 7.59553 12.566L7.48953 12.592L3.06853 13.329C2.88112 13.36 2.68928 13.3509 2.50561 13.3025C2.32193 13.2541 2.15057 13.1674 2.00278 13.0481C1.85499 12.9287 1.7341 12.7795 1.64806 12.6101C1.56202 12.4408 1.51277 12.2552 1.50354 12.0654C1.49432 11.8757 1.52532 11.6862 1.59452 11.5093C1.66372 11.3324 1.76955 11.1721 1.90507 11.039C2.04059 10.9059 2.20272 10.803 2.38083 10.737C2.55894 10.671 2.749 10.6434 2.93853 10.656H2.93953ZM6.54453 7.29699L6.66153 7.38399L10.1215 10.233C10.6215 10.643 10.2065 11.421 9.61553 11.283L9.53053 11.258L5.33253 9.68499C5.15543 9.61823 4.99438 9.51489 4.85989 9.38172C4.7254 9.24854 4.62048 9.08851 4.55198 8.91207C4.48348 8.73563 4.45293 8.54674 4.46233 8.3577C4.47173 8.16866 4.52086 7.98372 4.60652 7.81495C4.69218 7.64617 4.81245 7.49734 4.95949 7.37816C5.10652 7.25897 5.27702 7.17212 5.45988 7.12325C5.64273 7.07438 5.83383 7.06459 6.02072 7.09453C6.20761 7.12447 6.38609 7.19345 6.54453 7.29699ZM8.63053 3.47499L8.68453 3.60099L10.2575 7.79899C10.4845 8.40499 9.73653 8.86899 9.29353 8.45599L9.23253 8.39099L6.38253 4.92999C6.26286 4.78327 6.17546 4.61296 6.12604 4.43019C6.07662 4.24741 6.06629 4.05626 6.09572 3.86922C6.12516 3.68219 6.19369 3.50345 6.29685 3.34468C6.40002 3.18592 6.53549 3.05068 6.69445 2.9478C6.8534 2.84492 7.03225 2.77671 7.21934 2.74761C7.40644 2.71851 7.59756 2.72918 7.78025 2.77893C7.96294 2.82867 8.13309 2.91638 8.2796 3.03631C8.42611 3.15625 8.54569 3.30573 8.63053 3.47499ZM11.9995 3.49999C11.1675 3.49999 10.5335 4.24699 10.6705 5.06899L11.4075 9.48999C11.5195 10.159 12.4795 10.159 12.5915 9.48999L13.3285 5.06899C13.3608 4.87596 13.3506 4.67821 13.2987 4.48952C13.2467 4.30083 13.1543 4.12572 13.0278 3.97638C12.9013 3.82704 12.7438 3.70706 12.5662 3.62479C12.3886 3.54252 12.1952 3.49993 11.9995 3.49999ZM12.5915 14.51C12.4795 13.841 11.5195 13.841 11.4075 14.51L10.6705 18.931C10.6387 19.1238 10.6492 19.3213 10.7013 19.5097C10.7534 19.6981 10.8459 19.8728 10.9724 20.0219C11.0988 20.1709 11.2562 20.2907 11.4336 20.3728C11.611 20.4549 11.8041 20.4975 11.9995 20.4975C12.195 20.4975 12.3881 20.4549 12.5655 20.3728C12.7429 20.2907 12.9002 20.1709 13.0267 20.0219C13.1531 19.8728 13.2456 19.6981 13.2978 19.5097C13.3499 19.3213 13.3604 19.1238 13.3285 18.931L12.5915 14.51Z" fill="currentColor"/>
</svg>
