<svg width="24" height="24" viewBox="0 0 24 24" fill="none" xmlns="http://www.w3.org/2000/svg">
<path fill-rule="evenodd" clip-rule="evenodd" d="M17.128 2.51C17.258 2.27873 17.4745 2.10856 17.7299 2.03692C17.9853 1.96528 18.2587 1.99804 18.49 2.128C18.7213 2.25796 18.8914 2.47446 18.9631 2.72989C19.0347 2.98531 19.002 3.25873 18.872 3.49L18.73 3.733C18.475 4.149 18.108 4.611 17.454 4.855C16.756 5.115 15.894 5.063 14.824 4.873C14.349 4.789 14.05 4.844 13.862 4.923C13.7564 4.96698 13.6598 5.03003 13.577 5.109C14.167 5.195 14.712 5.328 15.18 5.503C15.607 5.663 16.023 5.878 16.35 6.168C16.642 6.428 16.935 6.816 16.99 7.326L17 7.5V19.5C17 20.096 16.674 20.544 16.35 20.832C16.022 21.122 15.607 21.337 15.18 21.497C14.317 21.82 13.193 22 12 22C10.807 22 9.683 21.82 8.82 21.497C8.393 21.337 7.977 21.122 7.65 20.832C7.358 20.572 7.065 20.184 7.01 19.674L7 19.5V7.5C7 6.904 7.326 6.456 7.65 6.168C7.977 5.878 8.393 5.663 8.82 5.503C9.52 5.241 10.391 5.073 11.332 5.019C11.432 4.747 11.562 4.48 11.726 4.229C12.036 3.758 12.479 3.333 13.091 3.077C13.701 2.822 14.401 2.767 15.175 2.904C15.315 2.929 15.442 2.95 15.558 2.966L15.878 3.006C15.926 3.011 15.972 3.016 16.015 3.019L16.25 3.032L16.348 3.034L16.511 3.028C16.533 3.02615 16.5551 3.02382 16.577 3.021L16.682 3.003L16.774 2.974L16.819 2.949C16.877 2.906 16.963 2.804 17.129 2.509L17.128 2.51ZM11.001 7.052C10.412 7.116 9.905 7.232 9.523 7.376L9.388 7.429C9.265 7.484 9.265 7.516 9.388 7.57L9.523 7.624C10.049 7.822 10.811 7.968 11.699 7.995L12 8C11.7437 8.00009 11.4972 7.90179 11.3113 7.72538C11.1254 7.54897 11.0143 7.30793 11.001 7.052ZM12.999 7.052C12.9868 7.2885 12.891 7.51299 12.7288 7.68549C12.5665 7.85799 12.3483 7.96732 12.113 7.994L12 8C13.016 8 13.892 7.844 14.477 7.624L14.612 7.57C14.735 7.516 14.735 7.484 14.612 7.43L14.477 7.376C13.9997 7.20828 13.5037 7.09947 13 7.052H12.999Z" fill="currentColor"/>
</svg>
