<svg width="24" height="24" viewBox="0 0 24 24" fill="none" xmlns="http://www.w3.org/2000/svg">
<path d="M11.5136 2.14202L10.2536 1.38702L10.0136 2.83602C9.6316 5.12402 8.0686 7.25002 6.3446 8.74402C2.9696 11.67 2.2306 14.85 3.2756 17.475C4.2756 19.987 6.8136 21.707 9.3896 21.994L9.9856 22.06C8.5116 21.159 7.5656 19.054 7.8956 17.481C8.2216 15.935 9.3336 14.487 11.4696 13.151L12.5466 12.479L12.9486 13.684C13.1856 14.396 13.5956 14.968 14.0126 15.549C14.2126 15.829 14.4156 16.112 14.6016 16.413C15.2446 17.458 15.4146 18.62 14.9996 19.773C14.6216 20.821 13.9986 21.645 13.1396 22.102L14.1096 21.994C16.5276 21.725 18.3026 20.898 19.4556 19.515C20.5986 18.144 20.9996 16.379 20.9996 14.5C20.9996 12.75 20.2806 10.946 19.4326 9.44502C18.4386 7.68702 17.1416 6.22702 15.7256 4.81202C15.4806 5.30202 15.4996 5.50002 14.9956 6.28702C14.3414 4.54882 13.1128 3.08635 11.5136 2.14202Z" fill="currentColor"/>
</svg>
