<svg width="24" height="24" viewBox="0 0 24 24" fill="none" xmlns="http://www.w3.org/2000/svg">
<path fill-rule="evenodd" clip-rule="evenodd" d="M13.3616 3.536C13.8456 3.629 14.5526 3.871 14.8936 4.553C15.6406 6.047 15.0236 7.467 14.3616 8.35C13.9296 8.926 13.3736 9.468 12.7266 9.8C12.5916 9.87 12.3166 10 11.9996 10C11.4086 10 10.8296 9.731 10.3546 9.395C10.2646 9.701 10.1776 10.037 10.1026 10.393C9.95424 11.0761 9.87385 11.7721 9.86258 12.471C10.9156 12.131 11.9926 12.167 12.9206 12.691C13.6175 12.1425 14.4198 11.7432 15.2776 11.518C16.5776 11.177 18.1376 11.224 19.5546 12.168C20.5696 12.845 21.3386 14.12 21.4936 15.515C21.6556 16.969 21.1506 18.559 19.6236 19.781C18.5456 20.643 16.9026 20.976 15.3906 21.097C13.8256 21.223 12.1726 21.137 10.8896 20.994C8.51158 20.73 6.68558 20.066 5.40958 19.381C4.57258 18.931 3.42758 18.309 3.06458 17.356C2.81958 16.71 2.88358 15.926 2.94358 15.254C3.02358 14.373 3.21958 13.273 3.58658 12.081C4.31858 9.702 5.75158 6.887 8.36258 4.729C9.16558 4.065 10.5096 3.653 11.6346 3.515C12.2146 3.444 12.8246 3.434 13.3616 3.536Z" fill="currentColor"/>
</svg>
