<svg width="24" height="24" viewBox="0 0 24 24" fill="none" xmlns="http://www.w3.org/2000/svg">
<path d="M19 3.62901C19.0001 3.40335 18.9492 3.1806 18.8512 2.97733C18.7532 2.77406 18.6106 2.59551 18.4341 2.45499C18.2575 2.31447 18.0515 2.2156 17.8315 2.16574C17.6114 2.11588 17.3829 2.11631 17.163 2.16701L5.55 4.84701C5.10934 4.94877 4.71617 5.19688 4.43466 5.55085C4.15316 5.90482 3.99994 6.34375 4 6.79601V21C4 21.2652 4.10536 21.5196 4.29289 21.7071C4.48043 21.8947 4.73478 22 5 22C5.26522 22 5.51957 21.8947 5.70711 21.7071C5.89464 21.5196 6 21.2652 6 21V16.796L17.45 14.153C17.8907 14.0512 18.2838 13.8031 18.5653 13.4492C18.8468 13.0952 19.0001 12.6563 19 12.204V3.62901Z" fill="currentColor"/>
</svg>
