<svg width="24" height="24" viewBox="0 0 24 24" fill="none" xmlns="http://www.w3.org/2000/svg">
<path d="M6 3C5.46957 3 4.96086 3.21071 4.58579 3.58579C4.21071 3.96086 4 4.46957 4 5V21C4 21.2652 4.10536 21.5196 4.29289 21.7071C4.48043 21.8946 4.73478 22 5 22C5.26522 22 5.51957 21.8946 5.70711 21.7071C5.89464 21.5196 6 21.2652 6 21V16H19.804C20.0069 16.0001 20.206 15.944 20.379 15.838C20.5521 15.732 20.6924 15.5802 20.7845 15.3993C20.8767 15.2185 20.917 15.0157 20.901 14.8134C20.885 14.6111 20.8134 14.4171 20.694 14.253L17.236 9.5L20.692 4.747C20.8113 4.58294 20.8829 4.38908 20.899 4.18686C20.915 3.98463 20.8748 3.78192 20.7828 3.60112C20.6908 3.42032 20.5506 3.26849 20.3776 3.1624C20.2047 3.05632 20.0059 3.00011 19.803 3H6Z" fill="currentColor"/>
</svg>
