<svg width="24" height="24" viewBox="0 0 24 24" fill="none" xmlns="http://www.w3.org/2000/svg">
<path fill-rule="evenodd" clip-rule="evenodd" d="M7.747 5.59197C8.85023 4.33301 10.0808 3.1916 11.419 2.18597C11.5886 2.06494 11.7917 1.99988 12 1.99988C12.2083 1.99988 12.4114 2.06494 12.581 2.18597C13.9152 3.19635 15.1453 4.33734 16.253 5.59197C18.584 8.25597 20 11.088 20 14C20 16.1217 19.1571 18.1565 17.6569 19.6568C16.1566 21.1571 14.1217 22 12 22C9.87827 22 7.84344 21.1571 6.34315 19.6568C4.84285 18.1565 4 16.1217 4 14C4 11.088 5.415 8.25697 7.747 5.59197ZM12.005 21C12.9847 21 13.9243 20.6108 14.6171 19.918C15.3098 19.2253 15.699 18.2857 15.699 17.306C15.699 14.139 12.005 11.5 12.005 11.5C12.005 11.5 8.31 14.139 8.31 17.306C8.31 18.2857 8.69919 19.2253 9.39195 19.918C10.0847 20.6108 11.0243 21 12.004 21H12.005Z" fill="currentColor"/>
</svg>
