<svg width="24" height="24" viewBox="0 0 24 24" fill="none" xmlns="http://www.w3.org/2000/svg">
<path fill-rule="evenodd" clip-rule="evenodd" d="M4.13907 3C3.96472 2.99992 3.79285 3.04129 3.63762 3.12069C3.4824 3.20009 3.34828 3.31525 3.24631 3.45668C3.14434 3.59811 3.07745 3.76175 3.05116 3.9341C3.02486 4.10646 3.03991 4.2826 3.09507 4.448L4.00007 7.162V18C4.00007 18.7956 4.31614 19.5587 4.87875 20.1213C5.44136 20.6839 6.20442 21 7.00007 21H17.0001C17.7957 21 18.5588 20.6839 19.1214 20.1213C19.684 19.5587 20.0001 18.7956 20.0001 18V4.5C20.0001 4.10218 19.842 3.72064 19.5607 3.43934C19.2794 3.15804 18.8979 3 18.5001 3H4.13907ZM5.99907 8H9.99907C10.2643 8 10.5186 8.10536 10.7062 8.29289C10.8937 8.48043 10.9991 8.73478 10.9991 9C10.9991 9.26522 10.8937 9.51957 10.7062 9.70711C10.5186 9.89464 10.2643 10 9.99907 10H6.00007L5.99907 8ZM5.99907 11H9.99907C10.2643 11 10.5186 11.1054 10.7062 11.2929C10.8937 11.4804 10.9991 11.7348 10.9991 12C10.9991 12.2652 10.8937 12.5196 10.7062 12.7071C10.5186 12.8946 10.2643 13 9.99907 13H6.00007L5.99907 11ZM5.99907 16V14H9.99907C10.2643 14 10.5186 14.1054 10.7062 14.2929C10.8937 14.4804 10.9991 14.7348 10.9991 15C10.9991 15.2652 10.8937 15.5196 10.7062 15.7071C10.5186 15.8946 10.2643 16 9.99907 16H5.99907Z" fill="currentColor"/>
</svg>
