<svg width="24" height="24" viewBox="0 0 24 24" fill="none" xmlns="http://www.w3.org/2000/svg">
<path d="M15.0002 9.631V4H16.0002C16.2654 4 16.5198 3.89464 16.7073 3.70711C16.8948 3.51957 17.0002 3.26522 17.0002 3C17.0002 2.73478 16.8948 2.48043 16.7073 2.29289C16.5198 2.10536 16.2654 2 16.0002 2H8.00019C7.73498 2 7.48062 2.10536 7.29309 2.29289C7.10555 2.48043 7.00019 2.73478 7.00019 3C7.00019 3.26522 7.10555 3.51957 7.29309 3.70711C7.48062 3.89464 7.73498 4 8.00019 4H9.00019V9.631L3.77319 17.312C2.41819 19.304 3.84519 22 6.25319 22H17.7462C20.1562 22 21.5822 19.304 20.2262 17.312L15.0002 9.631Z" fill="currentColor"/>
</svg>
