<svg width="24" height="24" viewBox="0 0 24 24" fill="none" xmlns="http://www.w3.org/2000/svg">
<path d="M21.0004 20C21.2553 20.0003 21.5005 20.0979 21.6858 20.2729C21.8711 20.4478 21.9827 20.687 21.9976 20.9414C22.0125 21.1958 21.9298 21.4464 21.7662 21.6418C21.6026 21.8373 21.3705 21.9629 21.1174 21.993L21.0004 22H3.00044C2.74556 21.9997 2.50041 21.9021 2.31507 21.7272C2.12974 21.5522 2.01821 21.3131 2.00327 21.0586C1.98833 20.8042 2.07112 20.5536 2.23471 20.3582C2.3983 20.1627 2.63034 20.0371 2.88344 20.007L3.00044 20H21.0004ZM7.93044 4.17701L14.4934 9.53701L19.0664 8.68201C19.6171 8.57916 20.1856 8.63256 20.7075 8.83616C21.2294 9.03976 21.6839 9.38542 22.0194 9.83401L22.1814 10.053C22.3614 10.31 22.4974 10.577 22.4264 10.921C22.318 11.4511 22.0641 11.9404 21.6932 12.3343C21.3223 12.7282 20.849 13.011 20.3264 13.151L5.20844 17.2C4.91188 17.2794 4.5981 17.2658 4.30948 17.1612C4.02085 17.0566 3.77127 16.866 3.59444 16.615L0.930441 12.833C0.884282 12.7672 0.854682 12.6912 0.844151 12.6115C0.83362 12.5317 0.842469 12.4507 0.869947 12.3751C0.897425 12.2995 0.942723 12.2317 1.002 12.1774C1.06127 12.1231 1.13277 12.0838 1.21044 12.063L2.83344 11.627C3.07204 11.563 3.32276 11.5589 3.56333 11.615C3.8039 11.6712 4.02687 11.7859 4.21244 11.949L4.95844 12.605L4.96844 12.607L9.16844 10.967C9.16996 10.9664 9.17132 10.9655 9.17241 10.9643C9.17349 10.9631 9.17426 10.9616 9.17465 10.9601C9.17505 10.9585 9.17505 10.9568 9.17467 10.9553C9.17428 10.9537 9.17352 10.9522 9.17244 10.951L4.44744 5.19601C4.39444 5.13138 4.35848 5.0545 4.34285 4.97239C4.32723 4.89028 4.33243 4.80557 4.358 4.72599C4.38356 4.64642 4.42867 4.57452 4.48919 4.51687C4.54971 4.45923 4.62372 4.41767 4.70444 4.39601L6.59444 3.89001C6.82395 3.82863 7.06475 3.82264 7.29702 3.87254C7.52929 3.92243 7.74639 4.02679 7.93044 4.17701Z" fill="currentColor"/>
</svg>
