<svg width="24" height="24" viewBox="0 0 24 24" fill="none" xmlns="http://www.w3.org/2000/svg">
<path d="M21 20C21.2652 20 21.5196 20.1054 21.7071 20.2929C21.8946 20.4804 22 20.7348 22 21C22 21.2652 21.8946 21.5196 21.7071 21.7071C21.5196 21.8946 21.2652 22 21 22H3C2.73478 22 2.48043 21.8946 2.29289 21.7071C2.10536 21.5196 2 21.2652 2 21C2 20.7348 2.10536 20.4804 2.29289 20.2929C2.48043 20.1054 2.73478 20 3 20H21ZM9.738 2.106L11.628 2.612C11.8577 2.67367 12.0694 2.78908 12.2457 2.94869C12.422 3.10831 12.5579 3.30756 12.642 3.53L15.642 11.45C15.6426 11.4515 15.6435 11.4528 15.6448 11.4539C15.646 11.4549 15.6474 11.4556 15.649 11.456L20.032 12.999C20.5606 13.185 21.0266 13.5154 21.377 13.9526C21.7275 14.3899 21.9485 14.9166 22.015 15.473C22.064 15.882 22.123 16.28 21.823 16.619C21.464 17.0235 20.9995 17.3201 20.4815 17.4755C19.9634 17.6309 19.4124 17.639 18.89 17.499L3.771 13.45C3.47414 13.3705 3.20886 13.2017 3.01105 12.9666C2.81324 12.7314 2.69244 12.4411 2.665 12.135L2.251 7.527C2.24377 7.44686 2.25598 7.36617 2.28661 7.29176C2.31723 7.21735 2.36536 7.15144 2.42691 7.09961C2.48845 7.04778 2.5616 7.01157 2.64013 6.99406C2.71866 6.97654 2.80026 6.97824 2.878 6.999L4.502 7.434C4.74056 7.49785 4.95967 7.61961 5.13988 7.78847C5.32008 7.95734 5.45581 8.16808 5.535 8.402L5.854 9.344C5.85454 9.3458 5.85558 9.34741 5.85699 9.34865C5.85841 9.34989 5.86014 9.3507 5.862 9.351L10.318 10.029C10.3195 10.0292 10.321 10.029 10.3224 10.0285C10.3238 10.028 10.3251 10.0272 10.3261 10.0261C10.3272 10.0251 10.328 10.0238 10.3285 10.0224C10.329 10.021 10.3292 10.0195 10.329 10.018L9.115 2.67C9.10125 2.58743 9.10845 2.50274 9.13593 2.42368C9.16342 2.34461 9.21031 2.27372 9.27232 2.21749C9.33432 2.16126 9.40944 2.12149 9.49081 2.10184C9.57217 2.08218 9.65717 2.08427 9.738 2.106Z" fill="currentColor"/>
</svg>
