<svg width="24" height="24" viewBox="0 0 24 24" fill="none" xmlns="http://www.w3.org/2000/svg">
<path fill-rule="evenodd" clip-rule="evenodd" d="M12.0001 2C12.2653 2 12.5197 2.10536 12.7072 2.29289C12.8947 2.48043 13.0001 2.73478 13.0001 3V21C13.0001 21.2652 12.8947 21.5196 12.7072 21.7071C12.5197 21.8946 12.2653 22 12.0001 22C11.7349 22 11.4805 21.8946 11.293 21.7071C11.1054 21.5196 11.0001 21.2652 11.0001 21V3C11.0001 2.73478 11.1054 2.48043 11.293 2.29289C11.4805 2.10536 11.7349 2 12.0001 2ZM7.86409 5.207C8.28009 4.045 10.0001 4.343 10.0001 5.577V18.9C10.0001 19.1917 9.88419 19.4715 9.6779 19.6778C9.47161 19.8841 9.19182 20 8.90009 20H4.14209C3.9658 20 3.79209 19.9577 3.6356 19.8765C3.4791 19.7954 3.34441 19.6778 3.24285 19.5337C3.1413 19.3896 3.07587 19.2232 3.05206 19.0485C3.02826 18.8738 3.04679 18.696 3.10609 18.53L7.86409 5.207ZM14.0001 5.577C14.0001 4.343 15.7201 4.045 16.1361 5.207L20.8941 18.53C20.9534 18.696 20.9719 18.8738 20.9481 19.0485C20.9243 19.2232 20.8589 19.3896 20.7573 19.5337C20.6558 19.6778 20.5211 19.7954 20.3646 19.8765C20.2081 19.9577 20.0344 20 19.8581 20H15.1001C14.8083 20 14.5286 19.8841 14.3223 19.6778C14.116 19.4715 14.0001 19.1917 14.0001 18.9V5.577Z" fill="currentColor"/>
</svg>
