<svg width="24" height="24" viewBox="0 0 24 24" fill="none" xmlns="http://www.w3.org/2000/svg">
<path fill-rule="evenodd" clip-rule="evenodd" d="M18.423 14C19.657 14 19.955 15.72 18.793 16.136L5.47 20.894C5.30399 20.9533 5.12615 20.9719 4.95148 20.948C4.77681 20.9242 4.61042 20.8588 4.46632 20.7573C4.32223 20.6557 4.20465 20.521 4.12349 20.3645C4.04234 20.208 3.99998 20.0343 4 19.858V15.1C4 14.8083 4.11589 14.5285 4.32218 14.3222C4.52847 14.1159 4.80826 14 5.1 14H18.423ZM21 11C21.2652 11 21.5196 11.1054 21.7071 11.2929C21.8946 11.4805 22 11.7348 22 12C22 12.2652 21.8946 12.5196 21.7071 12.7071C21.5196 12.8947 21.2652 13 21 13H3C2.73478 13 2.48043 12.8947 2.29289 12.7071C2.10536 12.5196 2 12.2652 2 12C2 11.7348 2.10536 11.4805 2.29289 11.2929C2.48043 11.1054 2.73478 11 3 11H21ZM5.47 3.10603L18.793 7.86403C19.955 8.27903 19.657 10 18.423 10H5.1C4.80826 10 4.52847 9.88413 4.32218 9.67784C4.11589 9.47155 4 9.19176 4 8.90003V4.14203C3.99998 3.96574 4.04234 3.79203 4.12349 3.63554C4.20465 3.47904 4.32223 3.34435 4.46632 3.24279C4.61042 3.14124 4.77681 3.07581 4.95148 3.052C5.12615 3.0282 5.30399 3.04673 5.47 3.10603Z" fill="currentColor"/>
</svg>
