<svg width="24" height="24" viewBox="0 0 24 24" fill="none" xmlns="http://www.w3.org/2000/svg">
<path fill-rule="evenodd" clip-rule="evenodd" d="M4.5 4C4.5 3.60218 4.65804 3.22064 4.93934 2.93934C5.22064 2.65804 5.60218 2.5 6 2.5H7.5C7.89782 2.5 8.27936 2.65804 8.56066 2.93934C8.84196 3.22064 9 3.60218 9 4C9 4.39782 8.84196 4.77936 8.56066 5.06066C8.27936 5.34196 7.89782 5.5 7.5 5.5H6C5.60218 5.5 5.22064 5.34196 4.93934 5.06066C4.65804 4.77936 4.5 4.39782 4.5 4ZM10 4C10 3.60218 10.158 3.22064 10.4393 2.93934C10.7206 2.65804 11.1022 2.5 11.5 2.5H20C20.3978 2.5 20.7794 2.65804 21.0607 2.93934C21.342 3.22064 21.5 3.60218 21.5 4C21.5 4.39782 21.342 4.77936 21.0607 5.06066C20.7794 5.34196 20.3978 5.5 20 5.5H11.5C11.1022 5.5 10.7206 5.34196 10.4393 5.06066C10.158 4.77936 10 4.39782 10 4ZM2.5 9C2.5 8.60218 2.65804 8.22064 2.93934 7.93934C3.22064 7.65804 3.60218 7.5 4 7.5H12.5C12.8978 7.5 13.2794 7.65804 13.5607 7.93934C13.842 8.22064 14 8.60218 14 9C14 9.39782 13.842 9.77936 13.5607 10.0607C13.2794 10.342 12.8978 10.5 12.5 10.5H4C3.60218 10.5 3.22064 10.342 2.93934 10.0607C2.65804 9.77936 2.5 9.39782 2.5 9ZM15 9C15 8.60218 15.158 8.22064 15.4393 7.93934C15.7206 7.65804 16.1022 7.5 16.5 7.5H18C18.3978 7.5 18.7794 7.65804 19.0607 7.93934C19.342 8.22064 19.5 8.60218 19.5 9C19.5 9.39782 19.342 9.77936 19.0607 10.0607C18.7794 10.342 18.3978 10.5 18 10.5H16.5C16.1022 10.5 15.7206 10.342 15.4393 10.0607C15.158 9.77936 15 9.39782 15 9ZM4.5 14C4.5 13.6022 4.65804 13.2206 4.93934 12.9393C5.22064 12.658 5.60218 12.5 6 12.5H7.5C7.89782 12.5 8.27936 12.658 8.56066 12.9393C8.84196 13.2206 9 13.6022 9 14C9 14.3978 8.84196 14.7794 8.56066 15.0607C8.27936 15.342 7.89782 15.5 7.5 15.5H6C5.60218 15.5 5.22064 15.342 4.93934 15.0607C4.65804 14.7794 4.5 14.3978 4.5 14ZM10 14C10 13.6022 10.158 13.2206 10.4393 12.9393C10.7206 12.658 11.1022 12.5 11.5 12.5H20C20.3978 12.5 20.7794 12.658 21.0607 12.9393C21.342 13.2206 21.5 13.6022 21.5 14C21.5 14.3978 21.342 14.7794 21.0607 15.0607C20.7794 15.342 20.3978 15.5 20 15.5H11.5C11.1022 15.5 10.7206 15.342 10.4393 15.0607C10.158 14.7794 10 14.3978 10 14ZM2.5 19C2.5 18.6022 2.65804 18.2206 2.93934 17.9393C3.22064 17.658 3.60218 17.5 4 17.5H12.5C12.8978 17.5 13.2794 17.658 13.5607 17.9393C13.842 18.2206 14 18.6022 14 19C14 19.3978 13.842 19.7794 13.5607 20.0607C13.2794 20.342 12.8978 20.5 12.5 20.5H4C3.60218 20.5 3.22064 20.342 2.93934 20.0607C2.65804 19.7794 2.5 19.3978 2.5 19ZM15 19C15 18.6022 15.158 18.2206 15.4393 17.9393C15.7206 17.658 16.1022 17.5 16.5 17.5H18C18.3978 17.5 18.7794 17.658 19.0607 17.9393C19.342 18.2206 19.5 18.6022 19.5 19C19.5 19.3978 19.342 19.7794 19.0607 20.0607C18.7794 20.342 18.3978 20.5 18 20.5H16.5C16.1022 20.5 15.7206 20.342 15.4393 20.0607C15.158 19.7794 15 19.3978 15 19Z" fill="currentColor"/>
</svg>
