<svg width="24" height="24" viewBox="0 0 24 24" fill="none" xmlns="http://www.w3.org/2000/svg">
<path d="M10.499 2.601C10.89 2.299 11.42 2 12 2C12.58 2 13.11 2.299 13.501 2.601C13.925 2.928 14.337 3.374 14.698 3.896C14.881 4.161 15.055 4.453 15.214 4.766C16.1272 4.29404 17.132 4.02587 18.159 3.98C19.287 3.927 20 4.876 20 5.798V8C20 9.94861 19.2888 11.8302 18 13.2917C16.7112 14.7533 14.9333 15.6942 13 15.938V19.008C14.076 18.339 15.662 17.554 17.758 17.03C17.8862 16.9956 18.02 16.9871 18.1516 17.0049C18.2831 17.0228 18.4098 17.0666 18.5243 17.134C18.6387 17.2013 18.7386 17.2907 18.8181 17.3971C18.8975 17.5034 18.9551 17.6245 18.9873 17.7533C19.0195 17.8821 19.0257 18.016 19.0056 18.1473C18.9855 18.2785 18.9395 18.4044 18.8702 18.5177C18.8009 18.6309 18.7098 18.7292 18.6021 18.8069C18.4944 18.8846 18.3723 18.94 18.243 18.97C15.025 19.775 13.207 21.26 12.793 21.628C12.56 21.836 12.329 22 12 22C11.675 22 11.444 21.84 11.213 21.633C10.812 21.275 8.993 19.779 5.757 18.97C5.62881 18.9389 5.50804 18.8827 5.40166 18.8046C5.29528 18.7266 5.20539 18.6283 5.13717 18.5154C5.06895 18.4025 5.02374 18.2772 5.00416 18.1467C4.98457 18.0163 4.99099 17.8832 5.02305 17.7553C5.05511 17.6273 5.11217 17.5069 5.19095 17.4011C5.26972 17.2953 5.36866 17.2061 5.48206 17.1387C5.59546 17.0713 5.72107 17.027 5.85167 17.0083C5.98227 16.9897 6.11526 16.997 6.243 17.03C8.338 17.554 9.923 18.34 11 19.008V15.938C9.0667 15.6942 7.28882 14.7533 6 13.2917C4.71119 11.8302 4.00003 9.94861 4 8V5.784C4 4.875 4.692 3.934 5.807 3.964C6.541 3.984 7.661 4.132 8.807 4.727C8.959 4.429 9.127 4.15 9.302 3.897C9.662 3.374 10.075 2.927 10.499 2.601Z" fill="currentColor"/>
</svg>
