<svg width="24" height="24" viewBox="0 0 24 24" fill="none" xmlns="http://www.w3.org/2000/svg">
<path fill-rule="evenodd" clip-rule="evenodd" d="M10.5855 2.5C10.9606 2.12506 11.4692 1.91443 11.9995 1.91443C12.5299 1.91443 13.0385 2.12506 13.4135 2.5L15.0455 4.132C15.2595 3.832 15.4655 3.528 15.6675 3.227C16.0495 2.653 16.4155 1.801 17.2665 2.037C17.4772 2.09536 17.6629 2.22111 17.7952 2.39503C17.9276 2.56894 17.9994 2.78144 17.9995 3V9C17.9993 10.418 17.4971 11.7901 16.5819 12.8732C15.6667 13.9562 14.3976 14.6803 12.9995 14.917V18.917C13.9514 18.7557 14.8503 18.3673 15.6202 17.7849C16.3901 17.2025 17.0084 16.4431 17.4225 15.571C17.4789 15.4524 17.558 15.346 17.6555 15.2579C17.7529 15.1698 17.8668 15.1018 17.9905 15.0578C18.1142 15.0137 18.2454 14.9945 18.3766 15.0011C18.5078 15.0077 18.6364 15.0402 18.755 15.0965C18.8737 15.1528 18.9801 15.232 19.0681 15.3294C19.1562 15.4269 19.2242 15.5407 19.2682 15.6645C19.3123 15.7882 19.3316 15.9194 19.3249 16.0506C19.3183 16.1818 19.2859 16.3104 19.2295 16.429C18.6532 17.6434 17.7804 18.6932 16.6917 19.4816C15.6029 20.2699 14.3332 20.7715 12.9995 20.94C12.9995 21.506 12.5925 22.001 11.9995 22.001C11.4065 22.001 10.9995 21.506 10.9995 20.939C9.66611 20.7707 8.39651 20.2694 7.30775 19.4814C6.21899 18.6934 5.3461 17.644 4.76953 16.43C4.65575 16.1904 4.64182 15.9154 4.73081 15.6655C4.81979 15.4156 5.00441 15.2113 5.24403 15.0975C5.48365 14.9837 5.75866 14.9698 6.00855 15.0588C6.25844 15.1478 6.46275 15.3324 6.57653 15.572C6.99083 16.4439 7.6091 17.2031 8.37901 17.7853C9.14892 18.3676 10.0478 18.7558 10.9995 18.917V14.917C9.60146 14.6803 8.33234 13.9562 7.41713 12.8732C6.50191 11.7901 5.99971 10.418 5.99953 9V3C5.99946 2.78127 6.07112 2.56854 6.20351 2.39443C6.3359 2.22031 6.52173 2.0944 6.73253 2.036C7.57853 1.802 7.95253 2.657 8.33253 3.226C8.53253 3.528 8.73953 3.832 8.95353 4.132L10.5855 2.5ZM10.2175 5.696C10.6295 6.133 11.3515 7 11.9995 7C12.6475 7 13.3695 6.133 13.7815 5.696L11.9995 3.914L10.2175 5.696Z" fill="currentColor"/>
</svg>
