<svg width="24" height="24" viewBox="0 0 24 24" fill="none" xmlns="http://www.w3.org/2000/svg">
<path d="M6.025 3.047C6.02213 2.91205 6.04661 2.77792 6.09697 2.65268C6.14733 2.52745 6.22252 2.4137 6.31801 2.3183C6.41351 2.2229 6.52732 2.14783 6.65261 2.09759C6.77789 2.04736 6.91205 2.023 7.047 2.026C7.753 2.041 8.747 2.212 9.764 2.692C10.33 2.959 10.837 3.302 11.268 3.732C11.64 4.105 11.948 4.536 12.198 5.012C12.24 4.923 12.286 4.836 12.335 4.75C12.702 4.114 13.241 3.605 13.897 3.202C14.4817 2.83841 15.1233 2.57544 15.795 2.424C16.0359 2.3736 16.2868 2.41376 16.4999 2.53682C16.713 2.65988 16.8733 2.85719 16.95 3.091L17.094 3.66C17.252 4.443 17.288 5.263 17.116 6.061C17.0289 6.47882 16.8767 6.88038 16.665 7.251C16.5079 7.5223 16.3193 7.77405 16.103 8.001H18C18.5304 8.001 19.0391 8.21172 19.4142 8.58679C19.7893 8.96186 20 9.47057 20 10.001V12.001C20 12.3548 19.9061 12.7023 19.728 13.0079C19.5499 13.3136 19.2938 13.5666 18.986 13.741C18.847 17.405 17.711 19.958 17.149 21.011C16.799 21.666 16.126 22.001 15.465 22.001H8.535C8.19087 22.0045 7.85229 21.9141 7.55561 21.7397C7.25892 21.5653 7.01534 21.3134 6.851 21.011C6.289 19.958 5.153 17.405 5.014 13.741C4.70604 13.5665 4.4499 13.3134 4.27176 13.0075C4.09361 12.7016 3.99983 12.354 4 12V10C4 9.46957 4.21071 8.96086 4.58579 8.58579C4.96086 8.21072 5.46957 8 6 8H8.665C8.32638 7.79303 8.01324 7.54701 7.732 7.267C7.30103 6.82953 6.94916 6.32066 6.692 5.763C6.28663 4.91233 6.05964 3.98869 6.025 3.047Z" fill="currentColor"/>
</svg>
