<svg width="24" height="24" viewBox="0 0 24 24" fill="none" xmlns="http://www.w3.org/2000/svg">
<path d="M7.75985 11.24C7.86385 11.24 7.96785 11.243 8.06985 11.25C7.93868 11.932 7.98777 12.6363 8.21226 13.2935C8.43675 13.9506 8.82887 14.5378 9.34985 14.997C9.27785 15.4 9.23985 15.816 9.23985 16.24C9.23745 17.8278 9.77722 19.3688 10.7699 20.608C9.84784 20.9701 8.84727 21.0851 7.86713 20.9419C6.88699 20.7986 5.96124 20.4019 5.18143 19.7911C4.40162 19.1803 3.79477 18.3765 3.42092 17.4592C3.04707 16.5419 2.91916 15.5429 3.04985 14.561C3.39658 13.5893 4.03531 12.7486 4.87851 12.154C5.72171 11.5595 6.72812 11.2402 7.75985 11.24ZM20.6079 13.23C20.9699 14.152 21.085 15.1526 20.9417 16.1327C20.7985 17.1129 20.4018 18.0386 19.791 18.8184C19.1802 19.5982 18.3763 20.2051 17.459 20.5789C16.5418 20.9528 15.5427 21.0807 14.5609 20.95C13.5391 20.5856 12.6635 19.8988 12.0661 18.9934C11.4687 18.0879 11.1819 17.0127 11.2489 15.93C11.9308 16.0612 12.6352 16.0121 13.2923 15.7876C13.9495 15.5631 14.5367 15.171 14.9959 14.65C15.3999 14.722 15.8159 14.76 16.2399 14.76C17.8276 14.7624 19.3686 14.2226 20.6079 13.23ZM11.9999 10C12.5303 10 13.039 10.2107 13.4141 10.5858C13.7891 10.9609 13.9999 11.4696 13.9999 12C13.9999 12.5304 13.7891 13.0391 13.4141 13.4142C13.039 13.7893 12.5303 14 11.9999 14C11.4694 14 10.9607 13.7893 10.5856 13.4142C10.2106 13.0391 9.99985 12.5304 9.99985 12C9.99985 11.4696 10.2106 10.9609 10.5856 10.5858C10.9607 10.2107 11.4694 10 11.9999 10ZM15.3099 3C16.1205 2.99991 16.9218 3.17303 17.66 3.50775C18.3983 3.84247 19.0566 4.33108 19.5907 4.94086C20.1248 5.55063 20.5225 6.26748 20.757 7.04342C20.9916 7.81936 21.0577 8.63646 20.9509 9.44C20.586 10.4615 19.899 11.3368 18.9933 11.9338C18.0877 12.5309 17.0125 12.8173 15.9299 12.75C16.061 12.0681 16.0119 11.3637 15.7874 10.7065C15.563 10.0494 15.1708 9.46217 14.6499 9.00301C14.7219 8.60001 14.7599 8.184 14.7599 7.76C14.7623 6.17224 14.2225 4.63124 13.2299 3.392C13.8925 3.13205 14.5981 2.99907 15.3099 3ZM8.68985 3C8.94385 3 9.19385 3.017 9.43985 3.049C10.4614 3.41384 11.3366 4.10087 11.9337 5.00652C12.5307 5.91217 12.8172 6.98736 12.7499 8.07C12.0679 7.93883 11.3635 7.98792 10.7064 8.21241C10.0492 8.4369 9.46202 8.82902 9.00285 9.35001C8.59259 9.2766 8.17663 9.23978 7.75985 9.24C6.17209 9.2376 4.63108 9.77738 3.39185 10.77C3.05299 9.90717 2.93006 8.97462 3.03377 8.05345C3.13747 7.13228 3.46467 6.2504 3.98689 5.48451C4.50912 4.71861 5.21056 4.09191 6.0302 3.65891C6.84984 3.2259 7.76286 2.99971 8.68985 3Z" fill="currentColor"/>
</svg>
