<svg width="24" height="24" viewBox="0 0 24 24" fill="none" xmlns="http://www.w3.org/2000/svg">
<path d="M10.24 3.209C10.9273 3.49577 11.5472 3.92288 12.06 4.463C12.581 3.95075 13.1932 3.54038 13.865 3.253C14.862 2.84 16.005 2.766 17 3.34C17.994 3.914 18.503 4.942 18.644 6.011C18.734 6.699 18.682 7.439 18.497 8.181C19.2211 8.35408 19.901 8.67665 20.493 9.128C21.373 9.812 22 10.816 22 12C22 13.178 21.38 14.178 20.507 14.86C19.9348 15.3007 19.2788 15.6202 18.579 15.799C18.776 16.52 18.829 17.252 18.731 17.937C18.575 19.034 18.021 20.071 17.001 20.66C15.974 21.253 14.791 21.21 13.76 20.791C13.073 20.5042 12.4534 20.0771 11.941 19.537C11.391 20.067 10.776 20.483 10.135 20.747C9.138 21.16 7.995 21.234 7 20.66C6.006 20.086 5.498 19.058 5.356 17.989C5.26925 17.2628 5.31911 16.5268 5.503 15.819C4.77899 15.6458 4.09914 15.3232 3.507 14.872C2.627 14.188 2 13.185 2 12C2 10.822 2.62 9.823 3.493 9.14C4.06482 8.69904 4.72049 8.3792 5.42 8.2C5.2247 7.50505 5.17298 6.7776 5.268 6.062C5.425 4.966 5.979 3.929 7 3.34C8.026 2.748 9.209 2.79 10.24 3.209ZM12 8C10.9391 8 9.92172 8.42143 9.17157 9.17157C8.42143 9.92172 8 10.9391 8 12C8 13.0609 8.42143 14.0783 9.17157 14.8284C9.92172 15.5786 10.9391 16 12 16C13.0609 16 14.0783 15.5786 14.8284 14.8284C15.5786 14.0783 16 13.0609 16 12C16 10.9391 15.5786 9.92172 14.8284 9.17157C14.0783 8.42143 13.0609 8 12 8ZM12 10C12.5304 10 13.0391 10.2107 13.4142 10.5858C13.7893 10.9609 14 11.4696 14 12C14 12.5304 13.7893 13.0391 13.4142 13.4142C13.0391 13.7893 12.5304 14 12 14C11.4696 14 10.9609 13.7893 10.5858 13.4142C10.2107 13.0391 10 12.5304 10 12C10 11.4696 10.2107 10.9609 10.5858 10.5858C10.9609 10.2107 11.4696 10 12 10Z" fill="currentColor"/>
</svg>
