<svg width="24" height="24" viewBox="0 0 24 24" fill="none" xmlns="http://www.w3.org/2000/svg">
<path d="M4.99997 8.41601C5.01803 6.89994 5.56551 5.43788 6.54767 4.28283C7.52983 3.12778 8.88487 2.3524 10.3783 2.09088C11.8718 1.82935 13.4097 2.09813 14.7259 2.8507C16.0421 3.60328 17.0538 4.79229 17.586 6.21201C18.9536 6.58699 20.1443 7.43414 20.947 8.60326C21.7496 9.77238 22.1124 11.1879 21.971 12.599C21.9464 12.846 21.8308 13.0751 21.6467 13.2416C21.4626 13.4081 21.2232 13.5002 20.975 13.5H3.03097C2.8892 13.5 2.74906 13.4698 2.61985 13.4115C2.49064 13.3531 2.3753 13.268 2.28149 13.1617C2.18768 13.0554 2.11755 12.9304 2.07573 12.7949C2.03392 12.6595 2.02139 12.5167 2.03897 12.376C2.14728 11.516 2.47712 10.6989 2.99618 10.0047C3.51524 9.31055 4.20571 8.7631 4.99997 8.41601ZM2.99997 16C2.99997 15.7348 3.10532 15.4804 3.29286 15.2929C3.4804 15.1054 3.73475 15 3.99997 15H20C20.2652 15 20.5195 15.1054 20.7071 15.2929C20.8946 15.4804 21 15.7348 21 16C21 16.2652 20.8946 16.5196 20.7071 16.7071C20.5195 16.8947 20.2652 17 20 17H3.99997C3.73475 17 3.4804 16.8947 3.29286 16.7071C3.10532 16.5196 2.99997 16.2652 2.99997 16ZM7.99997 19C7.73475 19 7.4804 19.1054 7.29286 19.2929C7.10533 19.4804 6.99997 19.7348 6.99997 20C6.99997 20.2652 7.10533 20.5196 7.29286 20.7071C7.4804 20.8947 7.73475 21 7.99997 21H17C17.2652 21 17.5195 20.8947 17.7071 20.7071C17.8946 20.5196 18 20.2652 18 20C18 19.7348 17.8946 19.4804 17.7071 19.2929C17.5195 19.1054 17.2652 19 17 19H7.99997Z" fill="currentColor"/>
</svg>
