<svg width="24" height="24" viewBox="0 0 24 24" fill="none" xmlns="http://www.w3.org/2000/svg">
<path fill-rule="evenodd" clip-rule="evenodd" d="M2 5C2 4.46957 2.21071 3.96086 2.58579 3.58579C2.96086 3.21071 3.46957 3 4 3H9.52C9.81977 3.00004 10.1157 3.06746 10.3859 3.19728C10.6561 3.3271 10.8936 3.51599 11.081 3.75L12.481 5.5H20C20.5304 5.5 21.0391 5.71071 21.4142 6.08579C21.7893 6.46086 22 6.96957 22 7.5V19C22 19.5304 21.7893 20.0391 21.4142 20.4142C21.0391 20.7893 20.5304 21 20 21H4C3.46957 21 2.96086 20.7893 2.58579 20.4142C2.21071 20.0391 2 19.5304 2 19V5ZM13 13.732C13.3813 13.5119 13.6792 13.1721 13.8477 12.7653C14.0162 12.3586 14.0457 11.9076 13.9318 11.4824C13.8178 11.0571 13.5667 10.6813 13.2175 10.4133C12.8682 10.1453 12.4403 10 12 10C11.5597 10 11.1318 10.1453 10.7825 10.4133C10.4333 10.6813 10.1822 11.0571 10.0682 11.4824C9.95429 11.9076 9.98384 12.3586 10.1523 12.7653C10.3208 13.1721 10.6187 13.5119 11 13.732V16C11 16.2652 11.1054 16.5196 11.2929 16.7071C11.4804 16.8946 11.7348 17 12 17C12.2652 17 12.5196 16.8946 12.7071 16.7071C12.8946 16.5196 13 16.2652 13 16V13.732Z" fill="currentColor"/>
</svg>
