<svg width="24" height="24" viewBox="0 0 24 24" fill="none" xmlns="http://www.w3.org/2000/svg">
<path fill-rule="evenodd" clip-rule="evenodd" d="M9.52 3C9.81977 3.00004 10.1157 3.06746 10.3859 3.19728C10.6561 3.3271 10.8936 3.51599 11.081 3.75L12.481 5.5H20C20.5304 5.5 21.0391 5.71071 21.4142 6.08579C21.7893 6.46086 22 6.96957 22 7.5V19C22 19.5304 21.7893 20.0391 21.4142 20.4142C21.0391 20.7893 20.5304 21 20 21H4C3.46957 21 2.96086 20.7893 2.58579 20.4142C2.21071 20.0391 2 19.5304 2 19V5C2 4.46957 2.21071 3.96086 2.58579 3.58579C2.96086 3.21071 3.46957 3 4 3H9.52ZM12 15C11.7348 15 11.4804 15.1054 11.2929 15.2929C11.1054 15.4804 11 15.7348 11 16C11 16.2652 11.1054 16.5196 11.2929 16.7071C11.4804 16.8946 11.7348 17 12 17C12.2652 17 12.5196 16.8946 12.7071 16.7071C12.8946 16.5196 13 16.2652 13 16C13 15.7348 12.8946 15.4804 12.7071 15.2929C12.5196 15.1054 12.2652 15 12 15ZM12 10C11.7551 10 11.5187 10.09 11.3356 10.2527C11.1526 10.4155 11.0357 10.6397 11.007 10.883L11 11V13C11.0003 13.2549 11.0979 13.5 11.2728 13.6854C11.4478 13.8707 11.687 13.9822 11.9414 13.9972C12.1958 14.0121 12.4464 13.9293 12.6418 13.7657C12.8373 13.6021 12.9629 13.3701 12.993 13.117L13 13V11C13 10.7348 12.8946 10.4804 12.7071 10.2929C12.5196 10.1054 12.2652 10 12 10Z" fill="currentColor"/>
</svg>
