<svg width="24" height="24" viewBox="0 0 24 24" fill="none" xmlns="http://www.w3.org/2000/svg">
<path fill-rule="evenodd" clip-rule="evenodd" d="M9.52 3C9.81977 3.00004 10.1157 3.06746 10.3859 3.19728C10.6561 3.3271 10.8936 3.51599 11.081 3.75L12.481 5.5H20C20.5304 5.5 21.0391 5.71071 21.4142 6.08579C21.7893 6.46086 22 6.96957 22 7.5V19C22 19.5304 21.7893 20.0391 21.4142 20.4142C21.0391 20.7893 20.5304 21 20 21H4C3.46957 21 2.96086 20.7893 2.58579 20.4142C2.21071 20.0391 2 19.5304 2 19V5C2 4.46957 2.21071 3.96086 2.58579 3.58579C2.96086 3.21071 3.46957 3 4 3H9.52ZM11.99 13H11C10.7451 13.0003 10.5 13.0979 10.3146 13.2728C10.1293 13.4478 10.0178 13.687 10.0028 13.9414C9.98789 14.1958 10.0707 14.4464 10.2343 14.6418C10.3979 14.8373 10.6299 14.9629 10.883 14.993L11 15V15.99C11 16.51 11.394 16.94 11.9 16.994L12.01 17H12.5C12.7103 17 12.9153 16.9337 13.0857 16.8105C13.2562 16.6873 13.3835 16.5135 13.4495 16.3139C13.5155 16.1142 13.5169 15.8988 13.4534 15.6982C13.3899 15.4977 13.2649 15.3223 13.096 15.197L13 15.134V14.01C13 13.49 12.606 13.06 12.1 13.006L11.99 13ZM12 10C11.7348 10 11.4804 10.1054 11.2929 10.2929C11.1054 10.4804 11 10.7348 11 11C11 11.2652 11.1054 11.5196 11.2929 11.7071C11.4804 11.8946 11.7348 12 12 12C12.2652 12 12.5196 11.8946 12.7071 11.7071C12.8946 11.5196 13 11.2652 13 11C13 10.7348 12.8946 10.4804 12.7071 10.2929C12.5196 10.1054 12.2652 10 12 10Z" fill="currentColor"/>
</svg>
