<svg width="24" height="24" viewBox="0 0 24 24" fill="none" xmlns="http://www.w3.org/2000/svg">
<path fill-rule="evenodd" clip-rule="evenodd" d="M2 5C2 4.46957 2.21071 3.96086 2.58579 3.58579C2.96086 3.21071 3.46957 3 4 3H9.52C9.81977 3.00004 10.1157 3.06746 10.3859 3.19728C10.6561 3.3271 10.8936 3.51599 11.081 3.75L12.481 5.5H20C20.5304 5.5 21.0391 5.71071 21.4142 6.08579C21.7893 6.46086 22 6.96957 22 7.5V19C22 19.5304 21.7893 20.0391 21.4142 20.4142C21.0391 20.7893 20.5304 21 20 21H4C3.46957 21 2.96086 20.7893 2.58579 20.4142C2.21071 20.0391 2 19.5304 2 19V5ZM12 10C12.2652 10 12.5196 10.1054 12.7071 10.2929C12.8946 10.4804 13 10.7348 13 11V13.709L13.414 13.294C13.5069 13.2012 13.6172 13.1275 13.7386 13.0773C13.8599 13.0271 13.99 13.0013 14.1214 13.0013C14.2527 13.0013 14.3828 13.0273 14.5041 13.0776C14.6254 13.1279 14.7357 13.2016 14.8285 13.2945C14.9213 13.3874 14.995 13.4977 15.0452 13.6191C15.0954 13.7404 15.1212 13.8705 15.1212 14.0019C15.1212 14.1332 15.0952 14.2633 15.0449 14.3846C14.9946 14.5059 14.9209 14.6162 14.828 14.709L12.708 16.829C12.6151 16.922 12.5048 16.9957 12.3834 17.0461C12.262 17.0964 12.1319 17.1223 12.0005 17.1223C11.8691 17.1223 11.739 17.0964 11.6176 17.0461C11.4962 16.9957 11.3859 16.922 11.293 16.829L9.172 14.709C9.07909 14.6162 9.00538 14.5059 8.95507 14.3846C8.90476 14.2633 8.87884 14.1332 8.8788 14.0019C8.87875 13.8705 8.90458 13.7404 8.9548 13.6191C9.00502 13.4977 9.07866 13.3874 9.1715 13.2945C9.26434 13.2016 9.37458 13.1279 9.49591 13.0776C9.61724 13.0273 9.7473 13.0013 9.87865 13.0013C10.01 13.0013 10.1401 13.0271 10.2614 13.0773C10.3828 13.1275 10.4931 13.2012 10.586 13.294L11 13.709V11C11 10.7348 11.1054 10.4804 11.2929 10.2929C11.4804 10.1054 11.7348 10 12 10Z" fill="currentColor"/>
</svg>
