<svg width="24" height="24" viewBox="0 0 24 24" fill="none" xmlns="http://www.w3.org/2000/svg">
<path fill-rule="evenodd" clip-rule="evenodd" d="M12 4C17.015 4 21.244 7.356 22.57 11.942C22.6287 12.145 22.6216 12.3613 22.5498 12.56C22.4779 12.7587 22.345 12.9295 22.17 13.048L22.068 13.108L14.177 17.19L14.46 17.336C14.6875 17.4528 14.8616 17.6523 14.9466 17.8934C15.0315 18.1346 15.0208 18.3992 14.9167 18.6328C14.8126 18.8663 14.623 19.0511 14.3868 19.1492C14.1507 19.2473 13.8859 19.2511 13.647 19.16L13.541 19.112L12.001 18.316L10.46 19.112C10.2333 19.2307 9.96964 19.258 9.72341 19.1882C9.47718 19.1184 9.26708 18.9569 9.13637 18.7368C9.00566 18.5168 8.96428 18.255 9.02076 18.0054C9.07724 17.7558 9.22728 17.5373 9.43999 17.395L9.53999 17.335L9.82399 17.19L1.93199 13.108C1.72646 13.0016 1.56418 12.8273 1.47282 12.6147C1.38147 12.402 1.36668 12.1643 1.43099 11.942C2.75599 7.356 6.98499 4 12.001 4H12ZM12 13C10.82 13 9.79999 13.681 9.30999 14.672L12 16.064L14.691 14.672C14.4431 14.1702 14.0599 13.7477 13.5845 13.4522C13.1092 13.1568 12.5607 13.0001 12.001 13H12Z" fill="currentColor"/>
</svg>
