<svg width="24" height="24" viewBox="0 0 24 24" fill="none" xmlns="http://www.w3.org/2000/svg">
<path fill-rule="evenodd" clip-rule="evenodd" d="M9.52 3C9.78932 2.99998 10.0559 3.05436 10.3036 3.15987C10.5514 3.26537 10.7754 3.41984 10.962 3.614L11.082 3.751L12.48 5.5H20C20.5046 5.49984 20.9906 5.69041 21.3605 6.0335C21.7305 6.37659 21.9572 6.84684 21.995 7.35L22 7.5V19C22.0002 19.5046 21.8096 19.9906 21.4665 20.3605C21.1234 20.7305 20.6532 20.9572 20.15 20.995L20 21H4C3.49542 21.0002 3.00943 20.8096 2.63945 20.4665C2.26947 20.1234 2.04284 19.6532 2.005 19.15L2 19V5C1.99984 4.49542 2.19041 4.00943 2.5335 3.63945C2.87659 3.26947 3.34684 3.04284 3.85 3.005L4 3H9.52ZM15 16H14C13.7451 16.0003 13.5 16.0979 13.3146 16.2728C13.1293 16.4478 13.0178 16.687 13.0028 16.9414C12.9879 17.1958 13.0707 17.4464 13.2343 17.6418C13.3979 17.8373 13.6299 17.9629 13.883 17.993L14 18H15C15.2549 17.9997 15.5 17.9021 15.6854 17.7272C15.8707 17.5522 15.9822 17.313 15.9972 17.0586C16.0121 16.8042 15.9293 16.5536 15.7657 16.3582C15.6021 16.1627 15.3701 16.0371 15.117 16.007L15 16ZM18 14H17L16.883 14.007C16.6399 14.0359 16.4159 14.153 16.2534 14.336C16.0909 14.519 16.0011 14.7552 16.0011 15C16.0011 15.2448 16.0909 15.481 16.2534 15.664C16.4159 15.847 16.6399 15.9641 16.883 15.993L17 16H18L18.117 15.993C18.3601 15.9641 18.5841 15.847 18.7466 15.664C18.9091 15.481 18.9989 15.2448 18.9989 15C18.9989 14.7552 18.9091 14.519 18.7466 14.336C18.5841 14.153 18.3601 14.0359 18.117 14.007L18 14ZM15 12H14L13.883 12.007C13.64 12.0359 13.4159 12.153 13.2534 12.336C13.0909 12.519 13.0011 12.7552 13.0011 13C13.0011 13.2448 13.0909 13.481 13.2534 13.664C13.4159 13.847 13.64 13.9641 13.883 13.993L14 14H15L15.117 13.993C15.36 13.9641 15.5841 13.847 15.7466 13.664C15.9091 13.481 15.9989 13.2448 15.9989 13C15.9989 12.7552 15.9091 12.519 15.7466 12.336C15.5841 12.153 15.36 12.0359 15.117 12.007L15 12ZM18 10H17C16.7451 10.0003 16.5 10.0979 16.3146 10.2728C16.1293 10.4478 16.0178 10.687 16.0028 10.9414C15.9879 11.1958 16.0707 11.4464 16.2343 11.6418C16.3979 11.8373 16.6299 11.9629 16.883 11.993L17 12H18C18.2549 11.9997 18.5 11.9021 18.6854 11.7272C18.8707 11.5522 18.9822 11.313 18.9972 11.0586C19.0121 10.8042 18.9293 10.5536 18.7657 10.3582C18.6021 10.1627 18.3701 10.0371 18.117 10.007L18 10ZM15 8H14L13.883 8.007C13.64 8.03591 13.4159 8.15296 13.2534 8.33597C13.0909 8.51897 13.0011 8.75524 13.0011 9C13.0011 9.24476 13.0909 9.48103 13.2534 9.66403C13.4159 9.84704 13.64 9.96409 13.883 9.993L14 10H15L15.117 9.993C15.36 9.96409 15.5841 9.84704 15.7466 9.66403C15.9091 9.48103 15.9989 9.24476 15.9989 9C15.9989 8.75524 15.9091 8.51897 15.7466 8.33597C15.5841 8.15296 15.36 8.03591 15.117 8.007L15 8Z" fill="currentColor"/>
</svg>
