<svg width="24" height="24" viewBox="0 0 24 24" fill="none" xmlns="http://www.w3.org/2000/svg">
<path d="M18.5 13C19.1347 12.9999 19.7457 13.2412 20.209 13.675C20.6724 14.1088 20.9534 14.7026 20.995 15.336L21 15.5V16C21.2449 16 21.4813 16.09 21.6644 16.2527C21.8474 16.4155 21.9643 16.6397 21.993 16.883L22 17V21C22 21.2449 21.91 21.4813 21.7473 21.6644C21.5845 21.8474 21.3603 21.9643 21.117 21.993L21 22H16C15.7551 22 15.5187 21.91 15.3356 21.7473C15.1526 21.5845 15.0357 21.3603 15.007 21.117L15 21V17C15 16.7551 15.09 16.5187 15.2527 16.3356C15.4155 16.1526 15.6397 16.0357 15.883 16.007L16 16V15.5C16 14.837 16.2634 14.2011 16.7322 13.7322C17.2011 13.2634 17.837 13 18.5 13ZM9.52 3C9.81977 3.00004 10.1157 3.06746 10.3859 3.19728C10.6561 3.3271 10.8936 3.51599 11.081 3.75L12.481 5.5H20C20.5304 5.5 21.0391 5.71071 21.4142 6.08579C21.7893 6.46086 22 6.96957 22 7.5V12.671C21.4579 12.0004 20.7346 11.4996 19.916 11.2282C19.0975 10.9568 18.2182 10.9263 17.3829 11.1403C16.5475 11.3542 15.7912 11.8036 15.2039 12.4351C14.6165 13.0665 14.223 13.8533 14.07 14.702C13.7344 14.9835 13.4647 15.3351 13.2798 15.7322C13.0949 16.1292 12.9994 16.562 13 17V21H4C3.46957 21 2.96086 20.7893 2.58579 20.4142C2.21071 20.0391 2 19.5304 2 19V5C2 4.46957 2.21071 3.96086 2.58579 3.58579C2.96086 3.21071 3.46957 3 4 3H9.52ZM18.5 15C18.3674 15 18.2402 15.0527 18.1464 15.1464C18.0527 15.2402 18 15.3674 18 15.5V16H19V15.5C19 15.3674 18.9473 15.2402 18.8536 15.1464C18.7598 15.0527 18.6326 15 18.5 15Z" fill="currentColor"/>
</svg>
