<svg width="24" height="24" viewBox="0 0 24 24" fill="none" xmlns="http://www.w3.org/2000/svg">
<path d="M17.5 13C18.0909 13 18.6761 13.1164 19.2221 13.3425C19.768 13.5687 20.2641 13.9002 20.682 14.318C21.0998 14.7359 21.4313 15.232 21.6575 15.7779C21.8836 16.3239 22 16.9091 22 17.5C22 18.0909 21.8836 18.6761 21.6575 19.2221C21.4313 19.768 21.0998 20.2641 20.682 20.682C20.2641 21.0998 19.768 21.4313 19.2221 21.6575C18.6761 21.8836 18.0909 22 17.5 22C16.3065 22 15.1619 21.5259 14.318 20.682C13.4741 19.8381 13 18.6935 13 17.5C13 16.3065 13.4741 15.1619 14.318 14.318C15.1619 13.4741 16.3065 13 17.5 13ZM9.52 3C9.81977 3.00004 10.1157 3.06746 10.3859 3.19728C10.6561 3.3271 10.8936 3.51599 11.081 3.75L12.481 5.5H20C20.5304 5.5 21.0391 5.71071 21.4142 6.08579C21.7893 6.46086 22 6.96957 22 7.5V12.81C20.8524 11.7084 19.3406 11.0658 17.751 11.0041C16.1614 10.9423 14.6044 11.4656 13.3747 12.4749C12.1451 13.4842 11.3283 14.9093 11.079 16.4805C10.8297 18.0516 11.1652 19.6596 12.022 21H4C3.46957 21 2.96086 20.7893 2.58579 20.4142C2.21071 20.0391 2 19.5304 2 19V5C2 4.46957 2.21071 3.96086 2.58579 3.58579C2.96086 3.21071 3.46957 3 4 3H9.52ZM15.172 16.586C14.9996 17.0245 14.9546 17.5029 15.0423 17.9658C15.1299 18.4288 15.3466 18.8576 15.6674 19.2027C15.9882 19.5479 16.4 19.7954 16.8554 19.9166C17.3107 20.0378 17.791 20.0279 18.241 19.888L18.414 19.828L15.172 16.586ZM17.5 15C17.178 15 16.87 15.061 16.586 15.172L19.828 18.414C19.9769 18.0349 20.0309 17.6251 19.9854 17.2203C19.9398 16.8156 19.796 16.4281 19.5666 16.0915C19.3371 15.755 19.0289 15.4797 18.6687 15.2894C18.3085 15.0992 17.9073 14.9998 17.5 15Z" fill="currentColor"/>
</svg>
