<svg width="24" height="24" viewBox="0 0 24 24" fill="none" xmlns="http://www.w3.org/2000/svg">
<path fill-rule="evenodd" clip-rule="evenodd" d="M9.52 3C9.78932 2.99998 10.0559 3.05436 10.3036 3.15987C10.5514 3.26537 10.7754 3.41984 10.962 3.614L11.082 3.751L12.48 5.5H20C20.5046 5.49984 20.9906 5.69041 21.3605 6.0335C21.7305 6.37659 21.9572 6.84684 21.995 7.35L22 7.5V19C22.0002 19.5046 21.8096 19.9906 21.4665 20.3605C21.1234 20.7305 20.6532 20.9572 20.15 20.995L20 21H4C3.49542 21.0002 3.00943 20.8096 2.63945 20.4665C2.26947 20.1234 2.04284 19.6532 2.005 19.15L2 19V5C1.99984 4.49542 2.19041 4.00943 2.5335 3.63945C2.87659 3.26947 3.34684 3.04284 3.85 3.005L4 3H9.52ZM14.475 10.232L10.939 13.768L9.525 12.354C9.43275 12.2585 9.32241 12.1823 9.2004 12.1299C9.0784 12.0775 8.94718 12.0499 8.8144 12.0487C8.68162 12.0476 8.54994 12.0729 8.42705 12.1232C8.30415 12.1735 8.1925 12.2477 8.09861 12.3416C8.00471 12.4355 7.93046 12.5471 7.88018 12.67C7.8299 12.7929 7.8046 12.9246 7.80575 13.0574C7.8069 13.1902 7.83449 13.3214 7.8869 13.4434C7.93931 13.5654 8.01549 13.6758 8.111 13.768L10.161 15.818C10.2632 15.9202 10.3844 16.0013 10.5179 16.0566C10.6514 16.1119 10.7945 16.1404 10.939 16.1404C11.0835 16.1404 11.2266 16.1119 11.3601 16.0566C11.4936 16.0013 11.6148 15.9202 11.717 15.818L15.889 11.646C16.0712 11.4574 16.172 11.2048 16.1697 10.9426C16.1674 10.6804 16.0622 10.4296 15.8768 10.2442C15.6914 10.0588 15.4406 9.9536 15.1784 9.95133C14.9162 9.94905 14.6636 10.0498 14.475 10.232Z" fill="currentColor"/>
</svg>
