<svg width="24" height="24" viewBox="0 0 24 24" fill="none" xmlns="http://www.w3.org/2000/svg">
<path fill-rule="evenodd" clip-rule="evenodd" d="M7.99986 3.5C8.94986 3.5 9.78986 4.113 10.0809 5.017L14.4279 18.541C14.5461 18.9188 14.5102 19.3279 14.328 19.6793C14.1458 20.0307 13.8321 20.2959 13.4553 20.417C13.0785 20.5381 12.6691 20.5054 12.3163 20.3259C11.9635 20.1465 11.6959 19.8349 11.5719 19.459L10.2989 15.5H5.70086L4.42786 19.459C4.30383 19.8349 4.03625 20.1465 3.68345 20.3259C3.33065 20.5054 2.92123 20.5381 2.54441 20.417C2.16758 20.2959 1.8539 20.0307 1.67173 19.6793C1.48956 19.3279 1.45366 18.9188 1.57186 18.541L5.91886 5.017C6.06044 4.57658 6.33809 4.19243 6.71186 3.91983C7.08563 3.64723 7.53725 3.50024 7.99986 3.5ZM20.4999 12C20.8977 12 21.2792 12.158 21.5605 12.4393C21.8418 12.7206 21.9999 13.1022 21.9999 13.5V18.5C21.9998 18.7814 21.9206 19.0572 21.7712 19.2957C21.6219 19.5343 21.4084 19.726 21.1553 19.849C20.9021 19.9719 20.6195 20.0212 20.3397 19.9912C20.0599 19.9611 19.7941 19.8529 19.5729 19.679C18.9645 19.9386 18.3013 20.0433 17.6426 19.9837C16.9839 19.9242 16.3502 19.7022 15.7983 19.3377C15.2464 18.9731 14.7935 18.4775 14.4802 17.895C14.1669 17.3125 14.0028 16.6614 14.0028 16C14.0028 15.3386 14.1669 14.6875 14.4802 14.105C14.7935 13.5225 15.2464 13.0269 15.7983 12.6623C16.3502 12.2978 16.9839 12.0758 17.6426 12.0163C18.3013 11.9567 18.9645 12.0614 19.5729 12.321C19.8279 12.12 20.1499 12 20.4999 12ZM17.9999 15C17.7346 15 17.4803 15.1054 17.2928 15.2929C17.1052 15.4804 16.9999 15.7348 16.9999 16C16.9999 16.2652 17.1052 16.5196 17.2928 16.7071C17.4803 16.8946 17.7346 17 17.9999 17C18.2651 17 18.5194 16.8946 18.707 16.7071C18.8945 16.5196 18.9999 16.2652 18.9999 16C18.9999 15.7348 18.8945 15.4804 18.707 15.2929C18.5194 15.1054 18.2651 15 17.9999 15ZM7.99986 8.346L6.66486 12.5H9.33486L7.99986 8.346Z" fill="currentColor"/>
</svg>
