<svg width="24" height="24" viewBox="0 0 24 24" fill="none" xmlns="http://www.w3.org/2000/svg">
<path fill-rule="evenodd" clip-rule="evenodd" d="M6.38995 20.565C6.24011 20.9337 5.94995 21.2277 5.58332 21.3824C5.21668 21.5371 4.8036 21.5398 4.43495 21.39C4.0663 21.2402 3.77228 20.95 3.61756 20.5834C3.46284 20.2167 3.46011 19.8036 3.60995 19.435L9.92195 3.9C10.0899 3.48663 10.3774 3.13274 10.7475 2.8836C11.1177 2.63445 11.5538 2.50137 12 2.50137C12.4462 2.50137 12.8822 2.63445 13.2524 2.8836C13.6225 3.13274 13.91 3.48663 14.078 3.9L20.39 19.436C20.5398 19.8047 20.5371 20.2177 20.3823 20.5844C20.2276 20.951 19.9336 21.2412 19.565 21.391C19.1963 21.5408 18.7832 21.5381 18.4166 21.3834C18.05 21.2287 17.7598 20.9347 17.61 20.566L15.553 15.5H8.44695L6.38995 20.565ZM9.66595 12.5H14.334L12 6.755L9.66595 12.5Z" fill="currentColor"/>
</svg>
