<svg width="24" height="24" viewBox="0 0 24 24" fill="none" xmlns="http://www.w3.org/2000/svg">
<path d="M12 2C17.523 2 22 6.477 22 12C22 17.523 17.523 22 12 22C6.477 22 2 17.523 2 12C2 6.477 6.477 2 12 2ZM15.408 4.76L12.588 6.809C12.4349 6.9203 12.2534 6.98587 12.0645 6.99808C11.8756 7.0103 11.6872 6.96865 11.521 6.878L11.412 6.809L8.592 4.76C7.78194 5.14243 7.04169 5.6579 6.402 6.285L6.168 6.524L7.245 9.837C7.30354 10.017 7.3098 10.2099 7.26307 10.3932C7.21634 10.5766 7.11853 10.743 6.981 10.873L6.881 10.955L4.062 13.003C4.176 13.913 4.442 14.774 4.835 15.562L4.988 15.854H8.473C8.66431 15.8539 8.85164 15.9087 9.01276 16.0118C9.17388 16.115 9.30203 16.2622 9.382 16.436L9.424 16.545L10.502 19.86C11.3694 20.0242 12.258 20.0445 13.132 19.92L13.499 19.86L14.576 16.545C14.6351 16.3632 14.7451 16.2021 14.8929 16.0809C15.0407 15.9597 15.2201 15.8834 15.41 15.861L15.527 15.854H19.012C19.4434 15.072 19.7395 14.2227 19.888 13.342L19.938 13.003L17.118 10.955C16.9648 10.8437 16.8464 10.6912 16.7764 10.5152C16.7065 10.3393 16.688 10.1471 16.723 9.961L16.755 9.837L17.832 6.524C17.2196 5.8715 16.5023 5.32598 15.71 4.91L15.408 4.76ZM11.412 8.191C11.5651 8.0797 11.7466 8.01413 11.9355 8.00192C12.1244 7.9897 12.3128 8.03134 12.479 8.122L12.588 8.191L15.441 10.264C15.594 10.3752 15.7124 10.5275 15.7823 10.7033C15.8522 10.8791 15.8708 11.0711 15.836 11.257L15.804 11.382L14.714 14.736C14.6549 14.9178 14.5449 15.0789 14.3971 15.2001C14.2493 15.3213 14.0699 15.3976 13.88 15.42L13.763 15.427H10.237C10.0457 15.4271 9.85836 15.3723 9.69724 15.2692C9.53612 15.166 9.40797 15.0188 9.328 14.845L9.286 14.736L8.196 11.382C8.13746 11.202 8.1312 11.0091 8.17793 10.8258C8.22466 10.6424 8.32247 10.476 8.46 10.346L8.56 10.264L11.412 8.191Z" fill="currentColor"/>
</svg>
