<svg width="24" height="24" viewBox="0 0 24 24" fill="none" xmlns="http://www.w3.org/2000/svg">
<path d="M12 2C17.523 2 22 6.477 22 12C22 17.523 17.523 22 12 22C6.477 22 2 17.523 2 12C2 6.477 6.477 2 12 2ZM14.829 7.757L7.757 14.828C7.66409 14.9209 7.59039 15.0312 7.54011 15.1526C7.48982 15.274 7.46394 15.4041 7.46394 15.5355C7.46394 15.8009 7.56936 16.0554 7.757 16.243C7.94464 16.4306 8.19914 16.5361 8.4645 16.5361C8.72986 16.5361 8.98436 16.4306 9.172 16.243L16.242 9.172C16.4296 8.98449 16.5351 8.73012 16.5352 8.46485C16.5353 8.19958 16.43 7.94514 16.2425 7.7575C16.055 7.56986 15.8006 7.46439 15.5354 7.4643C15.2701 7.4642 15.0156 7.56949 14.828 7.757H14.829Z" fill="currentColor"/>
</svg>
