<svg width="24" height="24" viewBox="0 0 24 24" fill="none" xmlns="http://www.w3.org/2000/svg">
<path d="M17.0153 3.05501C17.2222 2.90735 17.4777 2.84406 17.7296 2.87801C17.9816 2.91196 18.2112 3.04061 18.3716 3.23778C18.5321 3.43496 18.6115 3.68586 18.5936 3.93946C18.5757 4.19307 18.4619 4.43033 18.2753 4.60301L18.1773 4.68201L16.0763 6.18301C15.7746 6.39806 15.54 6.69407 15.3995 7.03683C15.259 7.3796 15.2184 7.75512 15.2823 8.12001L15.3143 8.27201L18.6573 4.92901C18.8372 4.74966 19.0787 4.64553 19.3327 4.63778C19.5866 4.63003 19.834 4.71922 20.0246 4.88726C20.2151 5.05529 20.3346 5.28956 20.3587 5.54248C20.3828 5.79541 20.3097 6.04802 20.1543 6.24901L20.0713 6.34301L16.7283 9.68601C17.4333 9.86601 18.2133 9.64601 18.7143 9.05601L18.8173 8.92401L20.3183 6.82301C20.4664 6.61686 20.6873 6.47473 20.9363 6.42543C21.1853 6.37614 21.4437 6.42337 21.6591 6.55755C21.8746 6.69173 22.0309 6.90282 22.0965 7.14802C22.1621 7.39322 22.132 7.65419 22.0123 7.87801L21.9453 7.98501L20.4453 10.087C19.8901 10.8639 19.0735 11.4145 18.1451 11.6378C17.2168 11.8612 16.239 11.7423 15.3913 11.303L15.2113 11.203L12.9143 13.499L17.0713 17.657C17.2435 17.8292 17.3469 18.0583 17.3622 18.3013C17.3774 18.5444 17.3035 18.7846 17.1543 18.977L17.0713 19.071C16.8991 19.2432 16.67 19.3466 16.427 19.3619C16.1839 19.3772 15.9437 19.3033 15.7513 19.154L15.6573 19.071L11.5003 14.913L7.34328 19.071C7.17109 19.2432 6.94199 19.3466 6.69896 19.3619C6.45593 19.3772 6.21568 19.3033 6.02328 19.154L5.92928 19.071C5.7571 18.8988 5.65367 18.6697 5.63839 18.4267C5.62311 18.1837 5.69703 17.9434 5.84628 17.751L5.92928 17.657L10.0863 13.499L8.47628 11.889C8.05268 12.1178 7.59525 12.2775 7.12128 12.362L6.87128 12.399C6.27299 12.4745 5.66533 12.4099 5.09627 12.2104C4.52722 12.0108 4.01234 11.6817 3.59228 11.249C2.66328 10.319 2.13228 9.15001 2.00028 8.02701C1.87028 6.92201 2.12028 5.73801 2.93028 4.92901C3.73928 4.11901 4.92228 3.86901 6.02728 3.99901C7.15028 4.13201 8.32028 4.66301 9.24928 5.59201C9.6818 6.01196 10.0108 6.52668 10.2104 7.09555C10.41 7.66441 10.4746 8.27188 10.3993 8.87001C10.3393 9.37501 10.1923 9.85401 9.99328 10.271L9.88928 10.475L11.4993 12.085L13.7973 9.78901C13.3157 8.9668 13.1461 7.99875 13.3194 7.06179C13.4927 6.12483 13.9974 5.28153 14.7413 4.68601L14.9133 4.55601L17.0153 3.05501Z" fill="currentColor"/>
</svg>
