<svg width="24" height="24" viewBox="0 0 24 24" fill="none" xmlns="http://www.w3.org/2000/svg">
<path d="M16.84 10.972C15.913 9.87825 14.6725 9.09554 13.2862 8.72969C11.8999 8.36385 10.4347 8.43252 9.08865 8.92642C7.74265 9.42031 6.58077 10.3156 5.76011 11.4913C4.93944 12.6669 4.49958 14.0662 4.5 15.5C4.5 15.8978 4.34196 16.2794 4.06066 16.5607C3.77936 16.842 3.39782 17 3 17C2.60218 17 2.22064 16.842 1.93934 16.5607C1.65804 16.2794 1.5 15.8978 1.5 15.5C1.5 9.97701 5.977 5.50001 11.5 5.50001C12.8984 5.49842 14.2814 5.79095 15.5594 6.35861C16.8374 6.92627 17.9817 7.75637 18.918 8.79501L19.265 6.83101C19.2957 6.63392 19.3654 6.44493 19.47 6.27511C19.5747 6.10529 19.7121 5.95804 19.8744 5.84199C20.0366 5.72593 20.2203 5.64339 20.4148 5.59921C20.6094 5.55502 20.8107 5.55007 21.0072 5.58465C21.2036 5.61924 21.3912 5.69265 21.5589 5.8006C21.7267 5.90855 21.8712 6.04887 21.984 6.21335C22.0968 6.37783 22.1758 6.56316 22.2161 6.75851C22.2565 6.95385 22.2574 7.15528 22.219 7.35101L21.177 13.261C21.1078 13.6527 20.8859 14.0009 20.56 14.229C20.3593 14.3649 20.1305 14.4537 19.8906 14.4887C19.6508 14.5237 19.4061 14.504 19.175 14.431L13.531 13.435C13.3339 13.4043 13.1449 13.3346 12.9751 13.23C12.8053 13.1253 12.658 12.9879 12.542 12.8257C12.4259 12.6634 12.3434 12.4797 12.2992 12.2852C12.255 12.0907 12.2501 11.8893 12.2846 11.6928C12.3192 11.4964 12.3926 11.3088 12.5006 11.1411C12.6085 10.9734 12.7489 10.8288 12.9133 10.716C13.0778 10.6032 13.2632 10.5243 13.4585 10.4839C13.6538 10.4436 13.8553 10.4426 14.051 10.481L16.84 10.972Z" fill="currentColor"/>
</svg>
