<svg width="24" height="24" viewBox="0 0 24 24" fill="none" xmlns="http://www.w3.org/2000/svg">
<path fill-rule="evenodd" clip-rule="evenodd" d="M15.5 20C15.5 20.3978 15.658 20.7794 15.9393 21.0607C16.2206 21.342 16.6022 21.5 17 21.5C17.3978 21.5 17.7794 21.342 18.0607 21.0607C18.342 20.7794 18.5 20.3978 18.5 20V18.5H20C20.3978 18.5 20.7794 18.342 21.0607 18.0607C21.342 17.7794 21.5 17.3978 21.5 17C21.5 16.6022 21.342 16.2206 21.0607 15.9393C20.7794 15.658 20.3978 15.5 20 15.5H18.5V8.5H20C20.3978 8.5 20.7794 8.34196 21.0607 8.06066C21.342 7.77936 21.5 7.39782 21.5 7C21.5 6.60218 21.342 6.22064 21.0607 5.93934C20.7794 5.65804 20.3978 5.5 20 5.5H18.5V4C18.5 3.60218 18.342 3.22064 18.0607 2.93934C17.7794 2.65804 17.3978 2.5 17 2.5C16.6022 2.5 16.2206 2.65804 15.9393 2.93934C15.658 3.22064 15.5 3.60218 15.5 4V5.5H8.5V4C8.5 3.80302 8.4612 3.60796 8.38582 3.42597C8.31044 3.24399 8.19995 3.07863 8.06066 2.93934C7.92137 2.80005 7.75601 2.68956 7.57403 2.61418C7.39204 2.5388 7.19698 2.5 7 2.5C6.80302 2.5 6.60796 2.5388 6.42597 2.61418C6.24399 2.68956 6.07863 2.80005 5.93934 2.93934C5.80005 3.07863 5.68956 3.24399 5.61418 3.42597C5.5388 3.60796 5.5 3.80302 5.5 4V5.5H4C3.80302 5.5 3.60796 5.5388 3.42597 5.61418C3.24399 5.68956 3.07863 5.80005 2.93934 5.93934C2.80005 6.07863 2.68956 6.24399 2.61418 6.42597C2.5388 6.60796 2.5 6.80302 2.5 7C2.5 7.19698 2.5388 7.39204 2.61418 7.57403C2.68956 7.75601 2.80005 7.92137 2.93934 8.06066C3.07863 8.19995 3.24399 8.31044 3.42597 8.38582C3.60796 8.4612 3.80302 8.5 4 8.5H5.5V15.5H4C3.60218 15.5 3.22064 15.658 2.93934 15.9393C2.65804 16.2206 2.5 16.6022 2.5 17C2.5 17.3978 2.65804 17.7794 2.93934 18.0607C3.22064 18.342 3.60218 18.5 4 18.5H5.5V20C5.5 20.3978 5.65804 20.7794 5.93934 21.0607C6.22064 21.342 6.60218 21.5 7 21.5C7.39782 21.5 7.77936 21.342 8.06066 21.0607C8.34196 20.7794 8.5 20.3978 8.5 20V18.5H15.5V20ZM8.5 15.5H15.5V8.5H8.5V15.5Z" fill="currentColor"/>
</svg>
