<svg width="24" height="24" viewBox="0 0 24 24" fill="none" xmlns="http://www.w3.org/2000/svg">
<path fill-rule="evenodd" clip-rule="evenodd" d="M19 13V20C19.0002 20.5046 18.8096 20.9906 18.4665 21.3605C18.1234 21.7305 17.6532 21.9572 17.15 21.995L17 22H7C6.49542 22.0002 6.00943 21.8096 5.63945 21.4665C5.26947 21.1234 5.04284 20.6532 5.005 20.15L5 20V13H19ZM9 15C8.75507 15 8.51866 15.09 8.33563 15.2527C8.15259 15.4155 8.03566 15.6397 8.007 15.883L8 16V18C8.00028 18.2549 8.09788 18.5 8.27285 18.6854C8.44782 18.8707 8.68695 18.9822 8.94139 18.9972C9.19584 19.0121 9.44638 18.9293 9.64183 18.7657C9.83729 18.6021 9.9629 18.3701 9.993 18.117L10 18V16C10 15.7348 9.89464 15.4804 9.70711 15.2929C9.51957 15.1054 9.26522 15 9 15ZM17 2C17.5046 1.99984 17.9906 2.19041 18.3605 2.5335C18.7305 2.87659 18.9572 3.34684 18.995 3.85L19 4V11H5V4C4.99984 3.49542 5.19041 3.00943 5.5335 2.63945C5.87659 2.26947 6.34684 2.04284 6.85 2.005L7 2H17ZM9 5C8.73478 5 8.48043 5.10536 8.29289 5.29289C8.10536 5.48043 8 5.73478 8 6V8C8 8.26522 8.10536 8.51957 8.29289 8.70711C8.48043 8.89464 8.73478 9 9 9C9.26522 9 9.51957 8.89464 9.70711 8.70711C9.89464 8.51957 10 8.26522 10 8V6C10 5.73478 9.89464 5.48043 9.70711 5.29289C9.51957 5.10536 9.26522 5 9 5Z" fill="currentColor"/>
</svg>
