<svg width="24" height="24" viewBox="0 0 24 24" fill="none" xmlns="http://www.w3.org/2000/svg">
<path fill-rule="evenodd" clip-rule="evenodd" d="M14.0004 2C14.5048 2.00009 14.9905 2.19077 15.3603 2.53384C15.7301 2.8769 15.9566 3.34702 15.9944 3.85L16.0004 4H17.0004C17.5048 4.00009 17.9905 4.19077 18.3603 4.53384C18.7301 4.8769 18.9566 5.34702 18.9944 5.85L19.0004 6V9.003C19.5206 9.03044 20.0096 9.25981 20.3634 9.64229C20.7171 10.0248 20.9076 10.5302 20.8944 11.051L20.8854 11.199L20.1754 18.299C20.1043 19.0089 19.7826 19.6702 19.268 20.1643C18.7534 20.6584 18.0796 20.9529 17.3674 20.995L17.1904 21H6.81038C6.09694 20.9999 5.40689 20.7456 4.86404 20.2827C4.3212 19.8197 3.9611 19.1785 3.84838 18.474L3.82538 18.299L3.11538 11.199C3.06356 10.6803 3.21633 10.1618 3.54115 9.75402C3.86598 9.34626 4.33718 9.08145 4.85438 9.016L5.00038 9.003V5C5.00022 4.49542 5.19079 4.00943 5.53388 3.63945C5.87697 3.26947 6.34723 3.04284 6.85038 3.005L7.00038 3H8.00038C8.50479 3.00009 8.99053 3.19077 9.3603 3.53384C9.73007 3.8769 9.95655 4.34702 9.99438 4.85L10.0004 5H11.0004V4C11.0002 3.49542 11.1908 3.00943 11.5339 2.63945C11.877 2.26947 12.3472 2.04284 12.8504 2.005L13.0004 2H14.0004ZM11.0004 7H10.0004V11.465C10.3104 11.645 10.6454 11.783 11.0004 11.875V7ZM14.0004 4H13.0004V11.874C13.3554 11.783 13.6904 11.644 14.0004 11.465V4ZM8.00038 5H7.00038V9.014C7.38238 9.06 7.72038 9.212 8.00038 9.425V5ZM17.0004 6H16.0004V9.425C16.2334 9.248 16.5074 9.112 16.8134 9.045L17.0004 9.015V6Z" fill="currentColor"/>
</svg>
