<svg width="24" height="24" viewBox="0 0 24 24" fill="none" xmlns="http://www.w3.org/2000/svg">
<path d="M7.43 3.56099C10.304 1.86699 14.048 1.23698 16.61 3.20698C17.662 4.01698 18.05 5.21399 18.281 6.17699L18.358 6.53199L18.428 6.89499C18.534 7.46499 18.642 8.04499 18.895 8.55499C19.122 9.01199 19.429 9.41798 19.758 9.81099L20.16 10.277C20.542 10.715 20.925 11.153 21.227 11.644C21.647 12.328 21.973 13.133 22.027 14.118C22.08 15.095 21.861 16.174 21.314 17.406C19.462 21.572 14.477 22.688 10.289 21.686C6.037 20.67 2 17.356 2 12C2 8.35998 4.515 5.27998 7.43 3.56099ZM12 6.99999C10.6739 6.99999 9.40215 7.52677 8.46447 8.46445C7.52678 9.40213 7 10.6739 7 12C7 13.3261 7.52678 14.5978 8.46447 15.5355C9.40215 16.4732 10.6739 17 12 17C13.3261 17 14.5979 16.4732 15.5355 15.5355C16.4732 14.5978 17 13.3261 17 12C17 10.6739 16.4732 9.40213 15.5355 8.46445C14.5979 7.52677 13.3261 6.99999 12 6.99999ZM12 8.99999C12.7956 8.99999 13.5587 9.31606 14.1213 9.87866C14.6839 10.4413 15 11.2043 15 12C15 12.7956 14.6839 13.5587 14.1213 14.1213C13.5587 14.6839 12.7956 15 12 15C11.2044 15 10.4413 14.6839 9.87868 14.1213C9.31607 13.5587 9 12.7956 9 12C9 11.2043 9.31607 10.4413 9.87868 9.87866C10.4413 9.31606 11.2044 8.99999 12 8.99999Z" fill="currentColor"/>
</svg>
