<svg width="24" height="24" viewBox="0 0 24 24" fill="none" xmlns="http://www.w3.org/2000/svg">
<path d="M6.78092 4.62501C6.8679 4.52315 6.93353 4.40485 6.97391 4.27713C7.0143 4.14941 7.02861 4.01488 7.016 3.88153C7.00339 3.74817 6.96412 3.61871 6.90052 3.50082C6.83692 3.38293 6.75028 3.27903 6.64575 3.19527C6.54121 3.11151 6.42092 3.0496 6.292 3.01323C6.16309 2.97685 6.02818 2.96675 5.89528 2.98351C5.76238 3.00028 5.63421 3.04357 5.51836 3.11082C5.40252 3.17808 5.30137 3.26792 5.22091 3.37501L4.68292 4.04701C4.10779 4.76478 3.81095 5.66596 3.84692 6.58501L2.62991 7.07201C2.50598 7.11929 2.39269 7.19075 2.29664 7.28223C2.2006 7.37371 2.12371 7.48339 2.07045 7.60488C2.0172 7.72636 1.98865 7.85723 1.98646 7.98985C1.98428 8.12248 2.0085 8.25421 2.05771 8.37739C2.10693 8.50056 2.18016 8.61272 2.27314 8.70732C2.36612 8.80192 2.47699 8.87707 2.5993 8.92841C2.7216 8.97975 2.8529 9.00624 2.98555 9.00634C3.11819 9.00645 3.24953 8.98016 3.37192 8.92901L4.44592 8.49901C4.54092 8.64801 4.64791 8.79101 4.76591 8.92901C5.31291 9.56701 5.35292 10.494 4.86792 11.176L2.62991 12.072C2.50598 12.1193 2.39269 12.1908 2.29664 12.2822C2.2006 12.3737 2.12371 12.4834 2.07045 12.6049C2.0172 12.7264 1.98865 12.8572 1.98646 12.9899C1.98428 13.1225 2.0085 13.2542 2.05771 13.3774C2.10693 13.5006 2.18016 13.6127 2.27314 13.7073C2.36612 13.8019 2.47699 13.8771 2.5993 13.9284C2.7216 13.9797 2.8529 14.0062 2.98555 14.0063C3.11819 14.0064 3.24953 13.9802 3.37192 13.929L3.79791 13.759C3.76846 14.6687 4.06454 15.5591 4.63292 16.27L2.62991 17.072C2.50598 17.1193 2.39269 17.1907 2.29664 17.2822C2.2006 17.3737 2.12371 17.4834 2.07045 17.6049C2.0172 17.7264 1.98865 17.8572 1.98646 17.9899C1.98428 18.1225 2.0085 18.2542 2.05771 18.3774C2.10693 18.5006 2.18016 18.6127 2.27314 18.7073C2.36612 18.8019 2.47699 18.8771 2.5993 18.9284C2.7216 18.9797 2.8529 19.0062 2.98555 19.0063C3.11819 19.0064 3.24953 18.9802 3.37192 18.929L5.01491 18.272C4.95092 18.424 4.86492 18.57 4.75692 18.704L4.21991 19.375C4.05415 19.5821 3.97747 19.8466 4.00672 20.1103C4.03598 20.374 4.16878 20.6153 4.37592 20.781C4.58305 20.9468 4.84755 21.0235 5.11122 20.9942C5.3749 20.965 5.61615 20.8321 5.78192 20.625L6.31891 19.953C6.89381 19.2355 7.19064 18.3347 7.15491 17.416L8.37192 16.928C8.49817 16.8825 8.61397 16.812 8.71241 16.7208C8.81085 16.6296 8.88993 16.5195 8.94493 16.3971C8.99992 16.2747 9.02971 16.1424 9.03252 16.0082C9.03534 15.8741 9.01111 15.7407 8.96129 15.6161C8.91147 15.4915 8.83707 15.3781 8.74254 15.2829C8.648 15.1876 8.53526 15.1124 8.41102 15.0616C8.28679 15.0108 8.1536 14.9856 8.01941 14.9874C7.88521 14.9892 7.75275 15.018 7.62992 15.072L6.55591 15.502C6.45937 15.3514 6.35245 15.2077 6.23592 15.072C5.97047 14.7624 5.81623 14.373 5.79774 13.9656C5.77926 13.5582 5.8976 13.1564 6.13391 12.824L8.37192 11.928C8.49817 11.8825 8.61397 11.812 8.71241 11.7208C8.81085 11.6296 8.88993 11.5195 8.94493 11.3971C8.99992 11.2747 9.02971 11.1424 9.03252 11.0082C9.03534 10.8741 9.01111 10.7407 8.96129 10.6161C8.91147 10.4915 8.83707 10.3781 8.74254 10.2829C8.648 10.1876 8.53526 10.1124 8.41102 10.0616C8.28679 10.0108 8.1536 9.98559 8.01941 9.98738C7.88521 9.98917 7.75275 10.018 7.62992 10.072L7.20392 10.242C7.23361 9.33196 6.93751 8.44119 6.36892 7.73001L8.37192 6.92901C8.49585 6.88174 8.60914 6.81028 8.70519 6.7188C8.80123 6.62731 8.87812 6.51764 8.93138 6.39615C8.98463 6.27467 9.01318 6.1438 9.01537 6.01118C9.01755 5.87855 8.99333 5.74682 8.94412 5.62364C8.8949 5.50047 8.82167 5.38831 8.72869 5.29371C8.63571 5.19911 8.52484 5.12396 8.40253 5.07262C8.28023 5.02128 8.14893 4.99479 8.01628 4.99469C7.88364 4.99458 7.7523 5.02087 7.62992 5.07201L5.98692 5.72901C6.0523 5.57335 6.13914 5.42761 6.24492 5.29601L6.78092 4.62501ZM10.2319 7.42901C10.5619 4.23401 13.8659 2.73501 16.6129 3.95601L16.8379 4.05601C18.3746 4.73908 19.6802 5.85314 20.5965 7.26322C21.5128 8.6733 22.0005 10.3189 22.0005 12.0005C22.0005 13.6822 21.5128 15.3277 20.5965 16.7378C19.6802 18.1479 18.3746 19.262 16.8379 19.945L16.6129 20.045C13.8659 21.265 10.5629 19.765 10.2329 16.571C10.0773 15.0523 9.9999 13.5266 10.0009 12C10.0009 10.27 10.0979 8.73001 10.2319 7.42901Z" fill="currentColor"/>
</svg>
