<svg width="24" height="24" viewBox="0 0 24 24" fill="none" xmlns="http://www.w3.org/2000/svg">
<path d="M8.94 12.94C9.2121 12.6691 9.5777 12.5129 9.96151 12.5035C10.3453 12.4941 10.7181 12.6323 11.0032 12.8895C11.2882 13.1467 11.4637 13.5034 11.4937 13.8862C11.5236 14.269 11.4056 14.6486 11.164 14.947L11.061 15.061L7.12 19H8.5C8.88522 19.0002 9.25559 19.1486 9.53439 19.4144C9.81318 19.6802 9.97901 20.0431 9.99752 20.4279C10.016 20.8127 9.88581 21.1898 9.63382 21.4812C9.38184 21.7726 9.02742 21.9558 8.644 21.993L8.5 22H3.5C3.12712 22 2.76761 21.8611 2.49158 21.6104C2.21555 21.3597 2.0428 21.0152 2.007 20.644L2 20.5V15.5C2.00019 15.1148 2.14858 14.7444 2.41441 14.4656C2.68024 14.1868 3.04314 14.021 3.42791 14.0025C3.81269 13.984 4.18983 14.1142 4.4812 14.3662C4.77257 14.6182 4.95583 14.9726 4.993 15.356L5 15.5V16.879L8.94 12.94ZM20.5 2C20.8729 2.00002 21.2324 2.13892 21.5084 2.38962C21.7844 2.64032 21.9572 2.98484 21.993 3.356L22 3.5V8.5C21.9998 8.88522 21.8514 9.25559 21.5856 9.53439C21.3198 9.81318 20.9569 9.97901 20.5721 9.99752C20.1873 10.016 19.8102 9.88581 19.5188 9.63382C19.2274 9.38184 19.0442 9.02742 19.007 8.644L19 8.5V7.121L15.06 11.061C14.7882 11.3338 14.4219 11.4916 14.037 11.5017C13.6521 11.5119 13.278 11.3736 12.9922 11.1156C12.7064 10.8576 12.5308 10.4995 12.5017 10.1155C12.4726 9.73158 12.5923 9.35114 12.836 9.053L12.939 8.939L16.88 5H15.5C15.1148 4.99981 14.7444 4.85142 14.4656 4.58559C14.1868 4.31976 14.021 3.95686 14.0025 3.57209C13.984 3.18731 14.1142 2.81017 14.3662 2.5188C14.6182 2.22743 14.9726 2.04417 15.356 2.007L15.5 2H20.5Z" fill="currentColor"/>
</svg>
