<svg width="24" height="24" viewBox="0 0 24 24" fill="none" xmlns="http://www.w3.org/2000/svg">
<path d="M10.5 12C10.8729 12 11.2324 12.1389 11.5084 12.3896C11.7844 12.6403 11.9572 12.9849 11.993 13.356L12 13.5V18.5C11.9998 18.8852 11.8514 19.2556 11.5856 19.5344C11.3198 19.8132 10.9569 19.979 10.5721 19.9975C10.1873 20.0161 9.81017 19.8858 9.5188 19.6338C9.22743 19.3819 9.04417 19.0274 9.007 18.644L9 18.5V17.121L5.06 21.061C4.78822 21.3338 4.42195 21.4916 4.03702 21.5018C3.6521 21.5119 3.27801 21.3737 2.99221 21.1156C2.70641 20.8576 2.53079 20.4995 2.50171 20.1156C2.47263 19.7316 2.59232 19.3512 2.836 19.053L2.939 18.939L6.88 15H5.5C5.11478 14.9998 4.74441 14.8514 4.46561 14.5856C4.18682 14.3198 4.02099 13.9569 4.00248 13.5721C3.98396 13.1873 4.11419 12.8102 4.36618 12.5188C4.61816 12.2274 4.97258 12.0442 5.356 12.007L5.5 12H10.5ZM18.94 2.94002C19.2121 2.66917 19.5777 2.51296 19.9615 2.50356C20.3453 2.49417 20.7181 2.6323 21.0032 2.88952C21.2882 3.14673 21.4637 3.50345 21.4937 3.88621C21.5236 4.26897 21.4056 4.64864 21.164 4.94702L21.061 5.06102L17.12 9.00002H18.5C18.8852 9.00021 19.2556 9.14859 19.5344 9.41443C19.8132 9.68026 19.979 10.0432 19.9975 10.4279C20.016 10.8127 19.8858 11.1899 19.6338 11.4812C19.3818 11.7726 19.0274 11.9558 18.644 11.993L18.5 12H13.5C13.1271 12 12.7676 11.8611 12.4916 11.6104C12.2156 11.3597 12.0428 11.0152 12.007 10.644L12 10.5V5.50002C12.0002 5.1148 12.1486 4.74442 12.4144 4.46563C12.6802 4.18684 13.0431 4.02101 13.4279 4.00249C13.8127 3.98398 14.1898 4.11421 14.4812 4.36619C14.7726 4.61818 14.9558 4.9726 14.993 5.35602L15 5.50002V6.87902L18.94 2.93902V2.94002Z" fill="currentColor"/>
</svg>
