<svg width="24" height="24" viewBox="0 0 24 24" fill="none" xmlns="http://www.w3.org/2000/svg">
<path fill-rule="evenodd" clip-rule="evenodd" d="M17.5 6.5H20C20.3978 6.5 20.7794 6.65804 21.0607 6.93934C21.342 7.22064 21.5 7.60218 21.5 8C21.5 8.39782 21.342 8.77936 21.0607 9.06066C20.7794 9.34196 20.3978 9.5 20 9.5H17C16.337 9.5 15.7011 9.23661 15.2322 8.76777C14.7634 8.29893 14.5 7.66304 14.5 7V4C14.5 3.60218 14.658 3.22064 14.9393 2.93934C15.2206 2.65804 15.6022 2.5 16 2.5C16.3978 2.5 16.7794 2.65804 17.0607 2.93934C17.342 3.22064 17.5 3.60218 17.5 4V6.5ZM4 6.5H6.5V4C6.5 3.60218 6.65804 3.22064 6.93934 2.93934C7.22064 2.65804 7.60218 2.5 8 2.5C8.39782 2.5 8.77936 2.65804 9.06066 2.93934C9.34196 3.22064 9.5 3.60218 9.5 4V7C9.5 7.66304 9.23661 8.29893 8.76777 8.76777C8.29893 9.23661 7.66304 9.5 7 9.5H4C3.60218 9.5 3.22064 9.34196 2.93934 9.06066C2.65804 8.77936 2.5 8.39782 2.5 8C2.5 7.60218 2.65804 7.22064 2.93934 6.93934C3.22064 6.65804 3.60218 6.5 4 6.5ZM4 17.5H6.5V20C6.5 20.3978 6.65804 20.7794 6.93934 21.0607C7.22064 21.342 7.60218 21.5 8 21.5C8.39782 21.5 8.77936 21.342 9.06066 21.0607C9.34196 20.7794 9.5 20.3978 9.5 20V17C9.5 16.337 9.23661 15.7011 8.76777 15.2322C8.29893 14.7634 7.66304 14.5 7 14.5H4C3.60218 14.5 3.22064 14.658 2.93934 14.9393C2.65804 15.2206 2.5 15.6022 2.5 16C2.5 16.3978 2.65804 16.7794 2.93934 17.0607C3.22064 17.342 3.60218 17.5 4 17.5ZM20 17.5H17.5V20C17.5 20.3978 17.342 20.7794 17.0607 21.0607C16.7794 21.342 16.3978 21.5 16 21.5C15.6022 21.5 15.2206 21.342 14.9393 21.0607C14.658 20.7794 14.5 20.3978 14.5 20V17C14.5 16.337 14.7634 15.7011 15.2322 15.2322C15.7011 14.7634 16.337 14.5 17 14.5H20C20.3978 14.5 20.7794 14.658 21.0607 14.9393C21.342 15.2206 21.5 15.6022 21.5 16C21.5 16.3978 21.342 16.7794 21.0607 17.0607C20.7794 17.342 20.3978 17.5 20 17.5Z" fill="currentColor"/>
</svg>
