<svg width="24" height="24" viewBox="0 0 24 24" fill="none" xmlns="http://www.w3.org/2000/svg">
<path fill-rule="evenodd" clip-rule="evenodd" d="M12 2C17.523 2 22 6.477 22 12C22 17.523 17.523 22 12 22C6.477 22 2 17.523 2 12C2 6.477 6.477 2 12 2ZM12.5 14C12.1022 14 11.7206 14.158 11.4393 14.4393C11.158 14.7206 11 15.1022 11 15.5C11 15.8978 11.158 16.2794 11.4393 16.5607C11.7206 16.842 12.1022 17 12.5 17C12.8978 17 13.2794 16.842 13.5607 16.5607C13.842 16.2794 14 15.8978 14 15.5C14 15.1022 13.842 14.7206 13.5607 14.4393C13.2794 14.158 12.8978 14 12.5 14ZM8 11C7.73478 11 7.48043 11.1054 7.29289 11.2929C7.10536 11.4804 7 11.7348 7 12C7 12.2652 7.10536 12.5196 7.29289 12.7071C7.48043 12.8946 7.73478 13 8 13C8.26522 13 8.51957 12.8946 8.70711 12.7071C8.89464 12.5196 9 12.2652 9 12C9 11.7348 8.89464 11.4804 8.70711 11.2929C8.51957 11.1054 8.26522 11 8 11ZM14.5 7C13.837 7 13.2011 7.26339 12.7322 7.73223C12.2634 8.20107 12 8.83696 12 9.5C12 10.163 12.2634 10.7989 12.7322 11.2678C13.2011 11.7366 13.837 12 14.5 12C15.163 12 15.7989 11.7366 16.2678 11.2678C16.7366 10.7989 17 10.163 17 9.5C17 8.83696 16.7366 8.20107 16.2678 7.73223C15.7989 7.26339 15.163 7 14.5 7Z" fill="currentColor"/>
</svg>
