<svg width="24" height="24" viewBox="0 0 24 24" fill="none" xmlns="http://www.w3.org/2000/svg">
<path d="M12 3C12.245 3.00003 12.4814 3.08996 12.6644 3.25272C12.8475 3.41547 12.9644 3.63975 12.993 3.883L13 4V5H14.5C16.4678 5.0005 18.3565 5.77431 19.759 7.15458C21.1614 8.53485 21.9653 10.411 21.9972 12.3785C22.029 14.346 21.2864 16.2472 19.9294 17.6722C18.5724 19.0971 16.7097 19.9317 14.743 19.996L14.5 20H9.50005C7.5323 19.9995 5.64357 19.2257 4.24111 17.8454C2.83865 16.4652 2.03482 14.589 2.00294 12.6215C1.97106 10.654 2.71368 8.75282 4.07068 7.32784C5.42768 5.90285 7.29035 5.06826 9.25705 5.004L9.50005 5H11V4C11 3.73478 11.1054 3.48043 11.2929 3.29289C11.4805 3.10536 11.7348 3 12 3ZM15.5 10C15.2348 10 14.9805 10.1054 14.7929 10.2929C14.6054 10.4804 14.5 10.7348 14.5 11V11.5H14C13.7348 11.5 13.4805 11.6054 13.2929 11.7929C13.1054 11.9804 13 12.2348 13 12.5C13 12.7652 13.1054 13.0196 13.2929 13.2071C13.4805 13.3946 13.7348 13.5 14 13.5H14.5V14C14.5 14.2652 14.6054 14.5196 14.7929 14.7071C14.9805 14.8946 15.2348 15 15.5 15C15.7653 15 16.0196 14.8946 16.2072 14.7071C16.3947 14.5196 16.5 14.2652 16.5 14V13.5H17C17.2653 13.5 17.5196 13.3946 17.7072 13.2071C17.8947 13.0196 18 12.7652 18 12.5C18 12.2348 17.8947 11.9804 17.7072 11.7929C17.5196 11.6054 17.2653 11.5 17 11.5H16.5V11C16.5 10.7348 16.3947 10.4804 16.2072 10.2929C16.0196 10.1054 15.7653 10 15.5 10ZM8.50005 10C7.837 10 7.20112 10.2634 6.73228 10.7322C6.26344 11.2011 6.00005 11.837 6.00005 12.5C6.00005 13.163 6.26344 13.7989 6.73228 14.2678C7.20112 14.7366 7.837 15 8.50005 15C9.16309 15 9.79897 14.7366 10.2678 14.2678C10.7367 13.7989 11 13.163 11 12.5C11 11.837 10.7367 11.2011 10.2678 10.7322C9.79897 10.2634 9.16309 10 8.50005 10ZM8.50005 12C8.63265 12 8.75983 12.0527 8.8536 12.1464C8.94737 12.2402 9.00005 12.3674 9.00005 12.5C9.00005 12.6326 8.94737 12.7598 8.8536 12.8536C8.75983 12.9473 8.63265 13 8.50005 13C8.36744 13 8.24026 12.9473 8.14649 12.8536C8.05272 12.7598 8.00005 12.6326 8.00005 12.5C8.00005 12.3674 8.05272 12.2402 8.14649 12.1464C8.24026 12.0527 8.36744 12 8.50005 12Z" fill="currentColor"/>
</svg>
