<svg width="24" height="24" viewBox="0 0 24 24" fill="none" xmlns="http://www.w3.org/2000/svg">
<path fill-rule="evenodd" clip-rule="evenodd" d="M12 3C12.5746 2.99963 13.1319 3.19723 13.5779 3.55955C14.0239 3.92186 14.3315 4.42678 14.4489 4.9893C14.5663 5.55183 14.4863 6.13762 14.2224 6.64809C13.9585 7.15855 13.5268 7.56252 13 7.792V9.708C13.4462 9.90238 13.826 10.2228 14.0928 10.63C14.3595 11.0371 14.5016 11.5133 14.5016 12C14.5016 12.4867 14.3595 12.9629 14.0928 13.3701C13.826 13.7772 13.4462 14.0976 13 14.292V16.208C13.5777 16.4611 14.0389 16.9223 14.292 17.5H16.208C16.4377 16.9736 16.8417 16.5424 17.352 16.2788C17.8623 16.0152 18.4478 15.9354 19.0101 16.0527C19.5723 16.1701 20.077 16.4774 20.4393 16.9231C20.8015 17.3688 20.9993 17.9257 20.9993 18.5C20.9993 19.0744 20.8015 19.6312 20.4393 20.0769C20.077 20.5226 19.5723 20.8299 19.0101 20.9473C18.4478 21.0646 17.8623 20.9848 17.352 20.7212C16.8417 20.4576 16.4377 20.0264 16.208 19.5H14.292C14.129 19.873 13.8774 20.2005 13.559 20.4541C13.2406 20.7077 12.8652 20.8798 12.4652 20.9553C12.0653 21.0308 11.6529 21.0076 11.264 20.8875C10.875 20.7675 10.5213 20.5543 10.2335 20.2665C9.94568 19.9787 9.7325 19.625 9.61246 19.236C9.49242 18.8471 9.46915 18.4347 9.54469 18.0348C9.62023 17.6348 9.79228 17.2594 10.0459 16.941C10.2995 16.6226 10.627 16.371 11 16.208V14.292C10.5538 14.0976 10.174 13.7772 9.9072 13.3701C9.64046 12.9629 9.49837 12.4867 9.49837 12C9.49837 11.5133 9.64046 11.0371 9.9072 10.63C10.174 10.2228 10.5538 9.90238 11 9.708V7.792C10.4223 7.53895 9.96105 7.0777 9.708 6.5H7.792C7.56226 7.0264 7.15827 7.45765 6.64797 7.72122C6.13767 7.98479 5.55217 8.06461 4.98994 7.94727C4.4277 7.82992 3.92302 7.52257 3.56075 7.07688C3.19847 6.63119 3.00071 6.07435 3.00071 5.5C3.00071 4.92565 3.19847 4.36882 3.56075 3.92313C3.92302 3.47744 4.4277 3.17008 4.98994 3.05274C5.55217 2.93539 6.13767 3.01522 6.64797 3.27879C7.15827 3.54236 7.56226 3.9736 7.792 4.5H9.708C9.90263 4.05406 10.2232 3.6746 10.6303 3.40816C11.0374 3.14171 11.5134 2.99986 12 3ZM5.5 16C6.16304 16 6.79893 16.2634 7.26777 16.7322C7.73661 17.2011 8 17.837 8 18.5C8 19.163 7.73661 19.7989 7.26777 20.2678C6.79893 20.7366 6.16304 21 5.5 21C4.83696 21 4.20107 20.7366 3.73223 20.2678C3.26339 19.7989 3 19.163 3 18.5C3 17.837 3.26339 17.2011 3.73223 16.7322C4.20107 16.2634 4.83696 16 5.5 16ZM5.5 18C5.36739 18 5.24021 18.0527 5.14645 18.1465C5.05268 18.2402 5 18.3674 5 18.5C5 18.6326 5.05268 18.7598 5.14645 18.8536C5.24021 18.9473 5.36739 19 5.5 19C5.63261 19 5.75979 18.9473 5.85355 18.8536C5.94732 18.7598 6 18.6326 6 18.5C6 18.3674 5.94732 18.2402 5.85355 18.1465C5.75979 18.0527 5.63261 18 5.5 18ZM5.5 9.5C6.16304 9.5 6.79893 9.7634 7.26777 10.2322C7.73661 10.7011 8 11.337 8 12C8 12.663 7.73661 13.2989 7.26777 13.7678C6.79893 14.2366 6.16304 14.5 5.5 14.5C4.83696 14.5 4.20107 14.2366 3.73223 13.7678C3.26339 13.2989 3 12.663 3 12C3 11.337 3.26339 10.7011 3.73223 10.2322C4.20107 9.7634 4.83696 9.5 5.5 9.5ZM18.5 9.5C19.163 9.5 19.7989 9.7634 20.2678 10.2322C20.7366 10.7011 21 11.337 21 12C21 12.663 20.7366 13.2989 20.2678 13.7678C19.7989 14.2366 19.163 14.5 18.5 14.5C17.837 14.5 17.2011 14.2366 16.7322 13.7678C16.2634 13.2989 16 12.663 16 12C16 11.337 16.2634 10.7011 16.7322 10.2322C17.2011 9.7634 17.837 9.5 18.5 9.5ZM5.5 11.5C5.36739 11.5 5.24021 11.5527 5.14645 11.6465C5.05268 11.7402 5 11.8674 5 12C5 12.1326 5.05268 12.2598 5.14645 12.3536C5.24021 12.4473 5.36739 12.5 5.5 12.5C5.63261 12.5 5.75979 12.4473 5.85355 12.3536C5.94732 12.2598 6 12.1326 6 12C6 11.8674 5.94732 11.7402 5.85355 11.6465C5.75979 11.5527 5.63261 11.5 5.5 11.5ZM18.5 11.5C18.3674 11.5 18.2402 11.5527 18.1464 11.6465C18.0527 11.7402 18 11.8674 18 12C18 12.1326 18.0527 12.2598 18.1464 12.3536C18.2402 12.4473 18.3674 12.5 18.5 12.5C18.6326 12.5 18.7598 12.4473 18.8536 12.3536C18.9473 12.2598 19 12.1326 19 12C19 11.8674 18.9473 11.7402 18.8536 11.6465C18.7598 11.5527 18.6326 11.5 18.5 11.5ZM18.5 3C19.163 3 19.7989 3.2634 20.2678 3.73224C20.7366 4.20108 21 4.83696 21 5.5C21 6.16304 20.7366 6.79893 20.2678 7.26777C19.7989 7.73661 19.163 8 18.5 8C17.837 8 17.2011 7.73661 16.7322 7.26777C16.2634 6.79893 16 6.16304 16 5.5C16 4.83696 16.2634 4.20108 16.7322 3.73224C17.2011 3.2634 17.837 3 18.5 3ZM18.5 5C18.3674 5 18.2402 5.05268 18.1464 5.14645C18.0527 5.24022 18 5.3674 18 5.5C18 5.63261 18.0527 5.75979 18.1464 5.85356C18.2402 5.94732 18.3674 6 18.5 6C18.6326 6 18.7598 5.94732 18.8536 5.85356C18.9473 5.75979 19 5.63261 19 5.5C19 5.3674 18.9473 5.24022 18.8536 5.14645C18.7598 5.05268 18.6326 5 18.5 5Z" fill="currentColor"/>
</svg>
