<svg width="24" height="24" viewBox="0 0 24 24" fill="none" xmlns="http://www.w3.org/2000/svg">
<path fill-rule="evenodd" clip-rule="evenodd" d="M12 2C14.3869 2 16.6761 2.94821 18.364 4.63604C20.0518 6.32387 21 8.61305 21 11V19.62C21 21.45 19.034 22.607 17.435 21.719L17.072 21.524C16.072 21.012 15.288 20.844 14.183 21.41L13.985 21.518C13.4151 21.8436 12.7738 22.0239 12.1177 22.0431C11.4617 22.0623 10.811 21.9197 10.223 21.628L10.015 21.518C8.738 20.788 7.849 21.006 6.565 21.718C4.965 22.608 3 21.451 3 19.621V11C3 8.61305 3.94821 6.32387 5.63604 4.63604C7.32387 2.94821 9.61305 2 12 2ZM8.5 9C8.10218 9 7.72064 9.15804 7.43934 9.43934C7.15804 9.72064 7 10.1022 7 10.5C7 10.8978 7.15804 11.2794 7.43934 11.5607C7.72064 11.842 8.10218 12 8.5 12C8.89782 12 9.27936 11.842 9.56066 11.5607C9.84196 11.2794 10 10.8978 10 10.5C10 10.1022 9.84196 9.72064 9.56066 9.43934C9.27936 9.15804 8.89782 9 8.5 9ZM15.5 9C15.1022 9 14.7206 9.15804 14.4393 9.43934C14.158 9.72064 14 10.1022 14 10.5C14 10.8978 14.158 11.2794 14.4393 11.5607C14.7206 11.842 15.1022 12 15.5 12C15.8978 12 16.2794 11.842 16.5607 11.5607C16.842 11.2794 17 10.8978 17 10.5C17 10.1022 16.842 9.72064 16.5607 9.43934C16.2794 9.15804 15.8978 9 15.5 9Z" fill="currentColor"/>
</svg>
