<svg width="24" height="24" viewBox="0 0 24 24" fill="none" xmlns="http://www.w3.org/2000/svg">
<path d="M11.9999 2C12.2651 2 12.5195 2.10536 12.707 2.29289C12.8945 2.48043 12.9999 2.73478 12.9999 3V8.126C13.8581 8.34844 14.6182 8.84957 15.1608 9.55074C15.7034 10.2519 15.9978 11.1134 15.9978 12C15.9978 12.8866 15.7034 13.7481 15.1608 14.4493C14.6182 15.1504 13.8581 15.6516 12.9999 15.874V21C12.9999 21.2652 12.8945 21.5196 12.707 21.7071C12.5195 21.8946 12.2651 22 11.9999 22C11.7347 22 11.4803 21.8946 11.2928 21.7071C11.1053 21.5196 10.9999 21.2652 10.9999 21V15.874C10.1417 15.6516 9.38158 15.1504 8.83897 14.4493C8.29636 13.7481 8.00195 12.8866 8.00195 12C8.00195 11.1134 8.29636 10.2519 8.83897 9.55074C9.38158 8.84957 10.1417 8.34844 10.9999 8.126V3C10.9999 2.73478 11.1053 2.48043 11.2928 2.29289C11.4803 2.10536 11.7347 2 11.9999 2Z" fill="currentColor"/>
</svg>
