<svg width="24" height="24" viewBox="0 0 24 24" fill="none" xmlns="http://www.w3.org/2000/svg">
<path d="M6.00012 3C6.69212 2.99979 7.36293 3.23881 7.89887 3.67657C8.43482 4.11434 8.80294 4.72392 8.94087 5.40204C9.0788 6.08017 8.97806 6.78512 8.65571 7.39746C8.33336 8.00981 7.80922 8.49188 7.17212 8.762L7.00012 8.83V16C6.9999 16.2451 7.08972 16.4818 7.2525 16.665C7.41528 16.8482 7.63969 16.9653 7.88312 16.994L8.00012 17H10.2071L9.79312 16.586C9.61186 16.4065 9.50608 16.1644 9.49743 15.9095C9.48878 15.6545 9.57791 15.4058 9.74658 15.2144C9.91525 15.023 10.1507 14.9033 10.4047 14.8798C10.6588 14.8563 10.9122 14.9308 11.1131 15.088L11.2071 15.172L13.3281 17.292C13.5004 17.4641 13.6041 17.6931 13.6195 17.9361C13.635 18.1792 13.5612 18.4195 13.4121 18.612L13.3281 18.707L11.2071 20.828C11.0272 21.0074 10.7857 21.1115 10.5317 21.1192C10.2778 21.127 10.0304 21.0378 9.83984 20.8698C9.64927 20.7017 9.52981 20.4675 9.50572 20.2145C9.48162 19.9616 9.5547 19.709 9.71012 19.508L9.79312 19.414L10.2071 19H8.00012C7.23491 19 6.4986 18.7077 5.94186 18.1827C5.38511 17.6578 5.05001 16.9399 5.00512 16.176L5.00012 16V8.83C4.33297 8.59385 3.77074 8.12953 3.41275 7.51904C3.05476 6.90855 2.92405 6.19118 3.04369 5.49366C3.16333 4.79614 3.52564 4.16334 4.06661 3.70705C4.60758 3.25076 5.29241 3.00033 6.00012 3ZM12.7931 3.172C12.9731 2.99266 13.2146 2.88853 13.4685 2.88078C13.7224 2.87302 13.9698 2.96222 14.1604 3.13025C14.351 3.29829 14.4704 3.53256 14.4945 3.78548C14.5186 4.0384 14.4455 4.29101 14.2901 4.492L14.2071 4.586L13.7931 5H16.0001C16.7653 4.99996 17.5016 5.29233 18.0584 5.81729C18.6151 6.34225 18.9502 7.06011 18.9951 7.824L19.0001 8V15.17C19.6673 15.4062 20.2295 15.8705 20.5875 16.481C20.9455 17.0915 21.0762 17.8088 20.9565 18.5063C20.8369 19.2039 20.4746 19.8367 19.9336 20.293C19.3927 20.7493 18.7078 20.9997 18.0001 21C17.3081 21.0002 16.6373 20.7612 16.1014 20.3234C15.5654 19.8857 15.1973 19.2761 15.0594 18.598C14.9214 17.9198 15.0222 17.2149 15.3445 16.6025C15.6669 15.9902 16.191 15.5081 16.8281 15.238L17.0001 15.17V8C17.0001 7.75507 16.9102 7.51867 16.7474 7.33563C16.5846 7.1526 16.3604 7.03566 16.1171 7.007L16.0001 7H13.7931L14.2071 7.414C14.3884 7.59355 14.4941 7.83557 14.5028 8.09055C14.5114 8.34553 14.4223 8.59417 14.2537 8.78558C14.085 8.977 13.8495 9.09671 13.5955 9.12021C13.3415 9.14371 13.088 9.06923 12.8871 8.912L12.7931 8.828L10.6721 6.708C10.4995 6.53588 10.3957 6.30665 10.3803 6.06339C10.3648 5.82013 10.4387 5.5796 10.5881 5.387L10.6721 5.293L12.7921 3.172H12.7931Z" fill="currentColor"/>
</svg>
