<svg width="24" height="24" viewBox="0 0 24 24" fill="none" xmlns="http://www.w3.org/2000/svg">
<path d="M12.793 3.172C12.9729 2.99266 13.2144 2.88853 13.4684 2.88078C13.7223 2.87302 13.9697 2.96222 14.1603 3.13025C14.3508 3.29829 14.4703 3.53256 14.4944 3.78548C14.5185 4.0384 14.4454 4.29101 14.29 4.492L14.207 4.586L13.793 5H16C16.7652 4.99996 17.5015 5.29233 18.0582 5.81729C18.615 6.34225 18.9501 7.06011 18.995 7.824L19 8V15.17C19.6671 15.4062 20.2294 15.8705 20.5873 16.481C20.9453 17.0915 21.076 17.8088 20.9564 18.5063C20.8368 19.2039 20.4745 19.8367 19.9335 20.293C19.3925 20.7493 18.7077 20.9997 18 21C17.308 21.0002 16.6372 20.7612 16.1012 20.3234C15.5653 19.8857 15.1972 19.2761 15.0592 18.598C14.9213 17.9198 15.022 17.2149 15.3444 16.6025C15.6667 15.9902 16.1909 15.5081 16.828 15.238L17 15.17V8C16.9999 7.75507 16.91 7.51867 16.7473 7.33563C16.5845 7.1526 16.3602 7.03566 16.117 7.007L16 7H13.793L14.207 7.414C14.3882 7.59355 14.494 7.83557 14.5027 8.09055C14.5113 8.34553 14.4222 8.59417 14.2535 8.78558C14.0848 8.977 13.8494 9.09671 13.5954 9.12021C13.3413 9.14371 13.0879 9.06923 12.887 8.912L12.793 8.828L10.672 6.708C10.4994 6.53588 10.3956 6.30665 10.3801 6.06339C10.3647 5.82013 10.4386 5.5796 10.588 5.387L10.672 5.293L12.792 3.172H12.793ZM5.99998 3C6.69199 2.99979 7.36279 3.23881 7.89873 3.67657C8.43468 4.11434 8.8028 4.72392 8.94073 5.40204C9.07866 6.08017 8.97792 6.78512 8.65557 7.39746C8.33322 8.00981 7.80909 8.49188 7.17198 8.762L6.99998 8.83V15.172C7.66572 15.4091 8.22641 15.8736 8.58328 16.4836C8.94014 17.0936 9.07028 17.81 8.95077 18.5065C8.83125 19.2031 8.46975 19.8351 7.92995 20.2912C7.39015 20.7474 6.70669 20.9984 5.99998 21C5.30797 21.0002 4.63717 20.7612 4.10122 20.3234C3.56528 19.8857 3.19716 19.2761 3.05922 18.598C2.92129 17.9198 3.02204 17.2149 3.34439 16.6025C3.66674 15.9902 4.19087 15.5081 4.82798 15.238L4.99998 15.17V8.829C4.33354 8.59236 3.77208 8.12795 3.41465 7.51771C3.05723 6.90747 2.9268 6.1906 3.04638 5.49357C3.16596 4.79655 3.52786 4.16414 4.06825 3.70793C4.60863 3.25171 5.29277 3.00099 5.99998 3Z" fill="currentColor"/>
</svg>
