<svg width="24" height="24" viewBox="0 0 24 24" fill="none" xmlns="http://www.w3.org/2000/svg">
<path d="M6.00008 21C5.2916 21.0011 4.60561 20.7513 4.06361 20.2951C3.52161 19.8388 3.15857 19.2055 3.03879 18.5072C2.91902 17.8089 3.05024 17.0908 3.40921 16.48C3.76819 15.8692 4.33175 15.4051 5.00008 15.17V8.83C4.33259 8.59409 3.76999 8.1298 3.41172 7.51919C3.05346 6.90858 2.92259 6.19098 3.04227 5.49321C3.16195 4.79545 3.52445 4.16246 4.06571 3.70613C4.60697 3.2498 5.29213 2.99951 6.00008 2.99951C6.70803 2.99951 7.39319 3.2498 7.93445 3.70613C8.47571 4.16246 8.83822 4.79545 8.95789 5.49321C9.07757 6.19098 8.94671 6.90858 8.58844 7.51919C8.23018 8.1298 7.66757 8.59409 7.00008 8.83V9C7.00008 9.53043 7.21079 10.0391 7.58587 10.4142C7.96094 10.7893 8.46965 11 9.00008 11H15.0001C16.0609 11 17.0784 11.4214 17.8285 12.1716C18.5787 12.9217 19.0001 13.9391 19.0001 15V15.17C19.6676 15.4059 20.2302 15.8702 20.5884 16.4808C20.9467 17.0914 21.0776 17.809 20.9579 18.5068C20.8382 19.2046 20.4757 19.8375 19.9345 20.2939C19.3932 20.7502 18.708 21.0005 18.0001 21.0005C17.2921 21.0005 16.607 20.7502 16.0657 20.2939C15.5245 19.8375 15.1619 19.2046 15.0423 18.5068C14.9226 17.809 15.0535 17.0914 15.4117 16.4808C15.77 15.8702 16.3326 15.4059 17.0001 15.17V15C17.0001 14.4696 16.7894 13.9609 16.4143 13.5858C16.0392 13.2107 15.5305 13 15.0001 13H9.00008C8.2979 13.0011 7.60792 12.8166 7.00008 12.465V15.171C7.66652 15.4076 8.22798 15.8721 8.58541 16.4823C8.94283 17.0925 9.07326 17.8094 8.95368 18.5064C8.8341 19.2035 8.4722 19.8359 7.93181 20.2921C7.39143 20.7483 6.70729 20.999 6.00008 21Z" fill="currentColor"/>
</svg>
