<svg width="24" height="24" viewBox="0 0 24 24" fill="none" xmlns="http://www.w3.org/2000/svg">
<path fill-rule="evenodd" clip-rule="evenodd" d="M12 2C6.477 2 2 6.477 2 12C2 17.523 6.477 22 12 22C17.523 22 22 17.523 22 12C22 6.477 17.523 2 12 2ZM6.987 14.789C6.79911 14.7292 6.59521 14.7457 6.41944 14.8351C6.24367 14.9245 6.11018 15.0795 6.04787 15.2666C5.98555 15.4537 5.99942 15.6578 6.08647 15.8347C6.17352 16.0117 6.32676 16.1472 6.513 16.212C6.696 16.27 6.858 16.54 7 16.778C7.07 16.893 7.134 17.001 7.195 17.074C7.422 17.347 7.732 17.641 8.18 17.831C8.49 17.963 8.838 18.031 9.226 18.033L9.221 18.49C9.21835 18.7552 9.32116 19.0106 9.50682 19.2C9.69248 19.3894 9.94578 19.4973 10.211 19.5C10.4762 19.5027 10.7316 19.3998 10.921 19.2142C11.1104 19.0285 11.2183 18.7752 11.221 18.51L11.25 15.765V15.755C11.25 15.54 11.34 15.347 11.486 15.209C12.09 14.639 11.782 13.648 10.993 13.49C9.253 13.143 8.333 12.044 8.333 11.088C8.333 10.641 8.514 10.192 8.889 9.783C9.153 9.496 9.226 9.081 9.078 8.72C9.02239 8.57381 8.99163 8.41934 8.987 8.263C9.196 8.361 9.411 8.486 9.608 8.639C9.864 8.837 10.213 8.9 10.521 8.805C10.971 8.667 11.471 8.588 12 8.588C12.529 8.588 13.028 8.667 13.477 8.805C13.786 8.9 14.134 8.836 14.39 8.639C14.587 8.486 14.802 8.361 15.01 8.263C15.002 8.434 14.973 8.592 14.92 8.719C14.772 9.081 14.846 9.495 15.11 9.782C15.485 10.192 15.666 10.641 15.666 11.088C15.666 12.044 14.746 13.143 13.007 13.49C12.218 13.648 11.91 14.64 12.514 15.209C12.5882 15.2785 12.6475 15.3624 12.6881 15.4556C12.7286 15.5488 12.7497 15.6493 12.75 15.751L12.721 18.49C12.7183 18.7552 12.8212 19.0106 13.0068 19.2C13.1925 19.3894 13.4458 19.4973 13.711 19.5C13.9762 19.5027 14.2316 19.3998 14.421 19.2142C14.6104 19.0285 14.7183 18.7752 14.721 18.51L14.75 15.765V15.755C14.75 15.516 14.72 15.285 14.662 15.064C16.352 14.35 17.666 12.933 17.666 11.088C17.666 10.268 17.394 9.516 16.946 8.881C17.037 8.41 17.022 7.957 16.98 7.611C16.934 7.234 16.859 6.814 16.651 6.488C16.5495 6.32731 16.4065 6.19704 16.237 6.111C15.779 5.881 15.21 6.057 14.755 6.212C14.3455 6.35188 13.953 6.53738 13.585 6.765C13.065 6.64682 12.5333 6.58745 12 6.588C11.451 6.588 10.918 6.65 10.412 6.765C10.044 6.53738 9.6515 6.35188 9.242 6.212C8.788 6.057 8.218 5.882 7.761 6.111C7.591 6.196 7.448 6.328 7.347 6.488C7.139 6.814 7.064 7.235 7.017 7.612C6.976 7.959 6.96 8.412 7.051 8.883C6.58855 9.52563 6.33761 10.2963 6.333 11.088C6.333 12.933 7.648 14.35 9.338 15.064C9.281 15.283 9.25 15.512 9.25 15.749L9.242 16.533C9.022 16.533 8.872 16.495 8.766 16.45C8.60085 16.3741 8.45694 16.2587 8.347 16.114C8.251 15.998 8.165 15.876 8.079 15.753C8.015 15.66 7.95 15.568 7.881 15.479C7.702 15.247 7.424 14.934 6.987 14.789Z" fill="currentColor"/>
</svg>
