<svg width="24" height="24" viewBox="0 0 24 24" fill="none" xmlns="http://www.w3.org/2000/svg">
<path d="M12 13.414L14.947 16.361L5.25 21.959C5.01075 22.0989 4.73719 22.1691 4.46016 22.1619C4.18312 22.1546 3.91361 22.0702 3.682 21.918L3.574 21.84L12 13.414ZM3 4.41401L10.586 12L3 19.586V4.41401ZM16.74 8.67401L20.25 10.701C21.25 11.278 21.25 12.721 20.25 13.299L16.74 15.326L13.414 12L16.74 8.67401ZM5.25 2.04101L14.947 7.63901L12 10.586L3.574 2.15901C3.8092 1.9733 4.09487 1.86271 4.39381 1.84167C4.69275 1.82062 4.9911 1.89008 5.25 2.04101Z" fill="currentColor"/>
</svg>
