<svg width="24" height="24" viewBox="0 0 24 24" fill="none" xmlns="http://www.w3.org/2000/svg">
<path fill-rule="evenodd" clip-rule="evenodd" d="M12 2C17.523 2 22 6.477 22 12C22 17.523 17.523 22 12 22C6.477 22 2 17.523 2 12C2 6.477 6.477 2 12 2ZM12 10.5C11.6022 10.5 11.2206 10.658 10.9393 10.9393C10.658 11.2206 10.5 11.6022 10.5 12C10.5 12.3978 10.658 12.7794 10.9393 13.0607C11.2206 13.342 11.6022 13.5 12 13.5C12.3978 13.5 12.7794 13.342 13.0607 13.0607C13.342 12.7794 13.5 12.3978 13.5 12C13.5 11.6022 13.342 11.2206 13.0607 10.9393C12.7794 10.658 12.3978 10.5 12 10.5ZM8 11H4C3.74512 11.0003 3.49997 11.0979 3.31463 11.2728C3.1293 11.4478 3.01777 11.687 3.00283 11.9414C2.98789 12.1958 3.07067 12.4464 3.23426 12.6418C3.39786 12.8373 3.6299 12.9629 3.883 12.993L4 13H8C8.25488 12.9997 8.50003 12.9021 8.68537 12.7272C8.8707 12.5522 8.98224 12.313 8.99717 12.0586C9.01211 11.8042 8.92933 11.5536 8.76574 11.3582C8.60215 11.1627 8.3701 11.0371 8.117 11.007L8 11ZM20 11H16C15.7451 11.0003 15.5 11.0979 15.3146 11.2728C15.1293 11.4478 15.0178 11.687 15.0028 11.9414C14.9879 12.1958 15.0707 12.4464 15.2343 12.6418C15.3979 12.8373 15.6299 12.9629 15.883 12.993L16 13H20C20.2549 12.9997 20.5 12.9021 20.6854 12.7272C20.8707 12.5522 20.9822 12.313 20.9972 12.0586C21.0121 11.8042 20.9293 11.5536 20.7657 11.3582C20.6021 11.1627 20.3701 11.0371 20.117 11.007L20 11Z" fill="currentColor"/>
</svg>
