<svg width="24" height="24" viewBox="0 0 24 24" fill="none" xmlns="http://www.w3.org/2000/svg">
<path fill-rule="evenodd" clip-rule="evenodd" d="M6.35603 3.235C6.51686 3.09955 6.71628 3.01823 6.92597 3.00261C7.13565 2.98699 7.34492 3.03787 7.52403 3.148C10.98 5.275 12.874 7.966 13.884 10.928C14.134 11.661 14.329 12.408 14.48 13.164C15.509 11.434 17.153 10.062 19.629 9.072C19.8036 9.00228 19.9943 8.98319 20.1793 9.0169C20.3642 9.05062 20.5359 9.13579 20.6746 9.26264C20.8134 9.38948 20.9136 9.55287 20.9637 9.73405C21.0138 9.91524 21.0119 10.1069 20.958 10.287L20.777 10.891C19.417 15.419 19 16.806 19 20C19 20.2652 18.8947 20.5196 18.7071 20.7071C18.5196 20.8946 18.2653 21 18 21H6.00003C5.73482 21 5.48046 20.8946 5.29293 20.7071C5.10539 20.5196 5.00003 20.2652 5.00003 20C5.00003 16.136 4.52804 13.745 3.05104 9.316C2.99092 9.13513 2.98375 8.94085 3.03037 8.75604C3.07699 8.57123 3.17545 8.40359 3.31415 8.27287C3.45286 8.14215 3.62604 8.05379 3.81328 8.01821C4.00053 7.98262 4.19404 8.00128 4.37103 8.072C5.76603 8.629 6.82603 9.373 7.62603 10.252C7.35832 8.23426 6.83617 6.25854 6.07203 4.372C5.99373 4.1767 5.97903 3.96168 6.03002 3.75754C6.08101 3.5534 6.1951 3.37054 6.35603 3.235Z" fill="currentColor"/>
</svg>
