<svg width="24" height="24" viewBox="0 0 24 24" fill="none" xmlns="http://www.w3.org/2000/svg">
<path d="M22 17V19.5C22 19.8729 21.8611 20.2324 21.6104 20.5084C21.3597 20.7844 21.0152 20.9572 20.644 20.993L20.5 21H17V17H22ZM15 17V21H9V17H15ZM7 17V21H3.5C3.12712 21 2.76761 20.8611 2.49158 20.6104C2.21555 20.3597 2.0428 20.0152 2.007 19.644L2 19.5V17H7ZM22 11V15H13V11H22ZM11 11V15H2V11H11ZM5.5 3C5.87288 3.00002 6.23239 3.13892 6.50842 3.38962C6.78445 3.64032 6.9572 3.98484 6.993 4.356L7 4.5V6H9V4.5C9.00002 4.12712 9.13892 3.76761 9.38962 3.49158C9.64032 3.21555 9.98484 3.0428 10.356 3.007L10.5 3H13.5C13.8729 3.00002 14.2324 3.13892 14.5084 3.38962C14.7844 3.64032 14.9572 3.98484 14.993 4.356L15 4.5V6H17V4.5C17 4.12712 17.1389 3.76761 17.3896 3.49158C17.6403 3.21555 17.9848 3.0428 18.356 3.007L18.5 3H20.5C20.8729 3.00002 21.2324 3.13892 21.5084 3.38962C21.7844 3.64032 21.9572 3.98484 21.993 4.356L22 4.5V9H2V4.5C2.00002 4.12712 2.13892 3.76761 2.38962 3.49158C2.64032 3.21555 2.98484 3.0428 3.356 3.007L3.5 3H5.5Z" fill="currentColor"/>
</svg>
