<svg width="24" height="24" viewBox="0 0 24 24" fill="none" xmlns="http://www.w3.org/2000/svg">
<path fill-rule="evenodd" clip-rule="evenodd" d="M5 3C4.46957 3 3.96086 3.21071 3.58579 3.58579C3.21071 3.96086 3 4.46957 3 5V19C3 19.5304 3.21071 20.0391 3.58579 20.4142C3.96086 20.7893 4.46957 21 5 21H19C19.5304 21 20.0391 20.7893 20.4142 20.4142C20.7893 20.0391 21 19.5304 21 19V5C21 4.46957 20.7893 3.96086 20.4142 3.58579C20.0391 3.21071 19.5304 3 19 3H5ZM15.8 8.6C15.8788 8.49494 15.9361 8.37539 15.9687 8.24818C16.0013 8.12097 16.0085 7.98858 15.9899 7.85858C15.9714 7.72858 15.9274 7.60351 15.8605 7.49051C15.7936 7.37751 15.7051 7.27879 15.6 7.2C15.4949 7.12121 15.3754 7.06388 15.2482 7.03129C15.121 6.99869 14.9886 6.99148 14.8586 7.01005C14.7286 7.02862 14.6035 7.07262 14.4905 7.13953C14.3775 7.20643 14.2788 7.29494 14.2 7.4L8.2 15.4C8.04087 15.6122 7.97254 15.8789 8.01005 16.1414C8.04756 16.404 8.18783 16.6409 8.4 16.8C8.61217 16.9591 8.87887 17.0275 9.14142 16.99C9.40397 16.9524 9.64087 16.8122 9.8 16.6L15.8 8.6Z" fill="currentColor"/>
</svg>
