<svg width="24" height="24" viewBox="0 0 24 24" fill="none" xmlns="http://www.w3.org/2000/svg">
<path d="M9.5 12C10.6935 12 11.8381 11.5259 12.682 10.682C13.5259 9.83807 14 8.69347 14 7.5C14 6.30653 13.5259 5.16193 12.682 4.31802C11.8381 3.47411 10.6935 3 9.5 3C8.30653 3 7.16193 3.47411 6.31802 4.31802C5.47411 5.16193 5 6.30653 5 7.5C5 8.69347 5.47411 9.83807 6.31802 10.682C7.16193 11.5259 8.30653 12 9.5 12ZM21 9C21 9.79565 20.6839 10.5587 20.1213 11.1213C19.5587 11.6839 18.7956 12 18 12C17.2044 12 16.4413 11.6839 15.8787 11.1213C15.3161 10.5587 15 9.79565 15 9C15 8.20435 15.3161 7.44129 15.8787 6.87868C16.4413 6.31607 17.2044 6 18 6C18.7956 6 19.5587 6.31607 20.1213 6.87868C20.6839 7.44129 21 8.20435 21 9ZM9.5 13C11.493 13 13.305 13.608 14.637 14.466C15.304 14.896 15.875 15.403 16.29 15.956C16.697 16.501 17 17.156 17 17.857C17 18.612 16.65 19.217 16.136 19.654C15.651 20.064 15.019 20.33 14.366 20.513C13.053 20.88 11.316 21 9.5 21C7.684 21 5.947 20.88 4.635 20.513C3.981 20.33 3.349 20.064 2.865 19.654C2.349 19.218 2 18.612 2 17.857C2 17.155 2.303 16.501 2.71 15.957C3.125 15.403 3.696 14.895 4.363 14.467C5.695 13.607 7.507 13 9.5 13ZM18 13C19.32 13 20.518 13.436 21.4 14.051C22.222 14.624 23 15.528 23 16.571C23 17.158 22.747 17.644 22.362 17.997C22.005 18.325 21.553 18.525 21.118 18.657C20.248 18.92 19.128 19 18 19H17.797C17.927 18.652 18 18.27 18 17.857C18 16.867 17.577 16.007 17.09 15.357C16.604 14.708 15.96 14.137 15.241 13.666C16.095 13.2289 17.0406 13.0006 18 13Z" fill="currentColor"/>
</svg>
