<svg width="24" height="24" viewBox="0 0 24 24" fill="none" xmlns="http://www.w3.org/2000/svg">
<path d="M12 12C13.873 12 15.57 12.62 16.815 13.487C17.998 14.312 19 15.538 19 16.857C19 17.581 18.691 18.181 18.204 18.627C17.746 19.048 17.148 19.321 16.532 19.507C15.301 19.88 13.68 20 12 20C10.32 20 8.699 19.88 7.468 19.507C6.852 19.321 6.254 19.048 5.795 18.627C5.31 18.182 5 17.582 5 16.858C5 15.539 6.002 14.313 7.185 13.488C8.43 12.62 10.127 12 12 12ZM19 13C20.044 13 20.992 13.345 21.693 13.833C22.333 14.28 23 15.023 23 15.929C23 16.446 22.775 16.875 22.44 17.182C22.134 17.463 21.756 17.628 21.411 17.732C20.941 17.874 20.386 17.947 19.81 17.979C19.932 17.634 20 17.259 20 16.857C20 15.322 19.041 14.018 17.968 13.113C18.3069 13.038 18.6529 13.0001 19 13ZM5 13C5.357 13 5.703 13.04 6.032 13.113C4.96 14.018 4 15.322 4 16.857C4 17.259 4.068 17.634 4.19 17.979C3.614 17.947 3.06 17.874 2.589 17.732C2.244 17.628 1.866 17.463 1.559 17.182C1.38288 17.0245 1.24204 16.8315 1.1457 16.6157C1.04937 16.4 0.999714 16.1663 1 15.93C1 15.025 1.666 14.281 2.307 13.834C3.09975 13.2902 4.03868 12.9994 5 13ZM18.5 7C19.163 7 19.7989 7.26339 20.2678 7.73223C20.7366 8.20107 21 8.83696 21 9.5C21 10.163 20.7366 10.7989 20.2678 11.2678C19.7989 11.7366 19.163 12 18.5 12C17.837 12 17.2011 11.7366 16.7322 11.2678C16.2634 10.7989 16 10.163 16 9.5C16 8.83696 16.2634 8.20107 16.7322 7.73223C17.2011 7.26339 17.837 7 18.5 7ZM5.5 7C6.16304 7 6.79893 7.26339 7.26777 7.73223C7.73661 8.20107 8 8.83696 8 9.5C8 10.163 7.73661 10.7989 7.26777 11.2678C6.79893 11.7366 6.16304 12 5.5 12C4.83696 12 4.20108 11.7366 3.73223 11.2678C3.26339 10.7989 3 10.163 3 9.5C3 8.83696 3.26339 8.20107 3.73223 7.73223C4.20108 7.26339 4.83696 7 5.5 7ZM12 3C13.0609 3 14.0783 3.42143 14.8284 4.17157C15.5786 4.92172 16 5.93913 16 7C16 8.06087 15.5786 9.07828 14.8284 9.82843C14.0783 10.5786 13.0609 11 12 11C10.9391 11 9.92172 10.5786 9.17157 9.82843C8.42143 9.07828 8 8.06087 8 7C8 5.93913 8.42143 4.92172 9.17157 4.17157C9.92172 3.42143 10.9391 3 12 3Z" fill="currentColor"/>
</svg>
