<svg width="24" height="24" viewBox="0 0 24 24" fill="none" xmlns="http://www.w3.org/2000/svg">
<path fill-rule="evenodd" clip-rule="evenodd" d="M16.8479 2.39502C16.9881 2.24976 17.169 2.15034 17.3668 2.10983C17.5645 2.06931 17.7699 2.0896 17.9559 2.16802L18.0669 2.22402L18.9329 2.72402C19.1077 2.82494 19.2478 2.97637 19.3349 3.15842C19.422 3.34047 19.452 3.54461 19.4209 3.74402L19.3949 3.86402L18.8279 5.84702C18.7892 5.98251 18.7222 6.10828 18.6315 6.21609C18.5407 6.3239 18.4282 6.4113 18.3013 6.47258C18.1744 6.53386 18.036 6.56763 17.8951 6.57167C17.7543 6.5757 17.6141 6.54992 17.4839 6.49602L17.3659 6.43802L15.8319 9.09402C16.7519 9.81502 17.2009 10.587 17.5059 11.307C17.7289 11.83 17.9199 12.512 17.8119 13.246C17.7069 13.958 17.3349 14.608 16.6719 15.134L16.4829 15.274C16.0509 15.578 16.0229 15.834 16.1249 16.257L16.2989 16.907C16.4719 17.597 16.6379 18.607 16.3319 19.764C16.0559 20.807 15.3889 21.629 14.6319 22.175C13.8869 22.713 12.9659 23.046 12.0939 23.001C10.7339 22.931 9.34493 22.591 7.49993 21.526C5.65493 20.461 4.66593 19.428 3.92593 18.286C3.45093 17.553 3.27893 16.588 3.37193 15.674C3.46593 14.746 3.84493 13.757 4.60993 12.997C5.39393 12.218 6.26993 11.85 6.93793 11.645L7.25293 11.554L7.52493 11.484C8.04893 11.35 8.32393 11.251 8.40493 10.754L8.42193 10.62C8.50693 9.66902 8.89993 8.94302 9.51493 8.45502C10.0949 7.99502 10.7829 7.82002 11.3469 7.75102C12.0589 7.66402 12.8679 7.65902 13.8329 7.99402L14.0999 8.09402L15.6339 5.43802C15.5118 5.36752 15.406 5.272 15.3234 5.15772C15.2408 5.04344 15.1834 4.91299 15.1547 4.77493C15.1261 4.63687 15.127 4.49432 15.1574 4.35663C15.1878 4.21894 15.2469 4.08924 15.3309 3.97602L15.4149 3.87602L16.8479 2.39502ZM10.0679 16.08C9.8469 15.9497 9.58425 15.9094 9.33431 15.9673C9.08436 16.0253 8.86625 16.1771 8.72509 16.3913C8.58393 16.6056 8.53052 16.8659 8.5759 17.1184C8.62129 17.3709 8.762 17.5963 8.96893 17.748L9.06693 17.812L9.93293 18.312C10.1539 18.4406 10.4158 18.4797 10.6646 18.4212C10.9135 18.3627 11.1306 18.2111 11.2711 17.9975C11.4117 17.784 11.4651 17.5247 11.4205 17.273C11.3758 17.0212 11.2364 16.7962 11.0309 16.644L10.9329 16.58L10.0679 16.08ZM10.7009 12.982C10.5055 13.3152 10.4461 13.7109 10.5352 14.0867C10.6242 14.4626 10.8549 14.7896 11.179 14.9997C11.5031 15.2097 11.8958 15.2867 12.2752 15.2145C12.6547 15.1423 12.9916 14.9265 13.2159 14.612L13.2989 14.482C13.4947 14.1377 13.5463 13.7299 13.4426 13.3476C13.3388 12.9654 13.088 12.6397 12.745 12.4416C12.4019 12.2435 11.9945 12.1892 11.6116 12.2905C11.2286 12.3917 10.9013 12.6403 10.7009 12.982Z" fill="currentColor"/>
</svg>
