<svg width="24" height="24" viewBox="0 0 24 24" fill="none" xmlns="http://www.w3.org/2000/svg">
<path d="M12 3C9.61305 3 7.32387 3.94821 5.63604 5.63604C3.94821 7.32387 3 9.61305 3 12V18C3 18.7956 3.31607 19.5587 3.87868 20.1213C4.44129 20.6839 5.20435 21 6 21H7.382C7.75349 21 8.11764 20.8965 8.43363 20.7012C8.74961 20.5058 9.00494 20.2263 9.171 19.894L9.346 19.544C9.02256 19.3182 8.72002 19.0638 8.442 18.784C7.343 17.678 6.5 16.054 6.5 14C6.5 13.265 6.624 12.534 6.849 11.843C6.949 11.536 7.226 11.5 7.5 11.5C9.19 11.5 10.685 10.661 11.591 9.375C11.6371 9.30939 11.6984 9.25584 11.7696 9.21887C11.8408 9.18191 11.9198 9.16261 12 9.16261C12.0802 9.16261 12.1592 9.18191 12.2304 9.21887C12.3016 9.25584 12.3629 9.30939 12.409 9.375C12.8699 10.0319 13.4824 10.568 14.1946 10.9379C14.9067 11.3078 15.6975 11.5006 16.5 11.5C16.774 11.5 17.052 11.536 17.151 11.843C17.3795 12.5393 17.4973 13.2672 17.5 14C17.5 16.055 16.657 17.678 15.558 18.784C15.273 19.071 14.968 19.325 14.654 19.544L14.829 19.894C14.9951 20.2263 15.2504 20.5058 15.5664 20.7012C15.8824 20.8965 16.2465 21 16.618 21H18C18.7956 21 19.5587 20.6839 20.1213 20.1213C20.6839 19.5587 21 18.7956 21 18V12C21 9.61305 20.0518 7.32387 18.364 5.63604C16.6761 3.94821 14.3869 3 12 3Z" fill="currentColor"/>
</svg>
