<svg width="24" height="24" viewBox="0 0 24 24" fill="none" xmlns="http://www.w3.org/2000/svg">
<path d="M18.8 6.4C16.916 3.888 14.52 2.5 12 2.5C9.48001 2.5 7.08401 3.888 5.20001 6.4C3.78301 8.289 2.07401 10.84 1.83801 13.524C1.71701 14.908 1.98501 16.325 2.85701 17.674C3.71801 19.006 5.12501 20.205 7.17201 21.254C8.43101 21.899 9.80201 21.034 9.98101 19.771C9.55542 19.4845 9.16536 19.1485 8.81901 18.77C7.80601 17.665 6.99901 16.047 6.99901 14C6.99901 10.572 8.76901 8.265 10.899 7.656C11.181 7.576 11.499 7.788 11.533 8.08C11.6742 9.28899 12.2515 10.405 13.1567 11.2187C14.0619 12.0324 15.2329 12.488 16.45 12.5C17.124 12.506 17 13.56 17 14C17 16.047 16.194 17.665 15.18 18.77C14.818 19.166 14.42 19.504 14.016 19.773C14.176 21.041 15.534 21.913 16.794 21.304C18.959 20.26 20.437 19.061 21.332 17.719C22.239 16.357 22.495 14.922 22.339 13.525C22.039 10.835 20.202 8.268 18.8 6.4Z" fill="currentColor"/>
</svg>
