<svg width="24" height="24" viewBox="0 0 24 24" fill="none" xmlns="http://www.w3.org/2000/svg">
<path d="M5.844 4.566C7.446 3.643 9.619 3 12 3C14.381 3 16.554 3.643 18.156 4.566C18.956 5.028 19.644 5.576 20.143 6.181C20.633 6.776 21 7.499 21 8.286C21 9.078 20.62 9.698 20.01 10.107C19.466 10.472 18.76 10.66 18.029 10.774C17.449 10.864 16.77 10.919 16.01 10.951L15.224 10.977L14.387 10.992L13.502 10.998H10.498L9.613 10.992L8.776 10.977L7.99 10.951C7.31428 10.9288 6.64028 10.8697 5.971 10.774C5.241 10.66 4.534 10.472 3.99 10.107C3.38 9.697 3 9.077 3 8.286C3 7.499 3.366 6.776 3.857 6.181C4.356 5.577 5.043 5.028 5.844 4.566ZM4.336 11.908C4.82878 11.5795 5.40777 11.4042 6 11.4042C6.59223 11.4042 7.17122 11.5795 7.664 11.908L8.445 12.428C8.60933 12.5376 8.80245 12.5961 9 12.5961C9.19755 12.5961 9.39067 12.5376 9.555 12.428L10.335 11.908C10.828 11.5791 11.4074 11.4036 12 11.4036C12.5926 11.4036 13.172 11.5791 13.665 11.908L14.445 12.428C14.6093 12.5376 14.8025 12.5961 15 12.5961C15.1975 12.5961 15.3907 12.5376 15.555 12.428L16.335 11.908C16.828 11.5791 17.4074 11.4036 18 11.4036C18.5926 11.4036 19.172 11.5791 19.665 11.908L20.589 12.524C20.6983 12.5969 20.7921 12.6906 20.8651 12.7997C20.9382 12.9089 20.989 13.0313 21.0148 13.1601C21.0405 13.2889 21.0406 13.4215 21.0151 13.5504C20.9895 13.6792 20.9389 13.8017 20.866 13.911C20.7931 14.0203 20.6994 14.1141 20.5903 14.1871C20.4811 14.2602 20.3587 14.311 20.2299 14.3368C20.1011 14.3625 19.9685 14.3626 19.8396 14.3371C19.7108 14.3115 19.5883 14.2609 19.479 14.188L18.555 13.572C18.3907 13.4624 18.1975 13.4039 18 13.4039C17.8025 13.4039 17.6093 13.4624 17.445 13.572L16.665 14.092C16.172 14.4209 15.5926 14.5964 15 14.5964C14.4074 14.5964 13.828 14.4209 13.335 14.092L12.555 13.572C12.3907 13.4624 12.1975 13.4039 12 13.4039C11.8025 13.4039 11.6093 13.4624 11.445 13.572L10.665 14.092C10.172 14.4209 9.59264 14.5964 9 14.5964C8.40736 14.5964 7.82799 14.4209 7.335 14.092L6.555 13.572C6.39067 13.4624 6.19755 13.4039 6 13.4039C5.80245 13.4039 5.60933 13.4624 5.445 13.572L5.088 13.818C4.898 13.948 4.678 14.093 4.466 14.205C4.23212 14.3216 3.96189 14.342 3.71316 14.2618C3.46442 14.1817 3.25694 14.0074 3.13513 13.7762C3.01332 13.545 2.98686 13.2752 3.06141 13.0248C3.13595 12.7743 3.30559 12.563 3.534 12.436C3.606 12.398 3.672 12.359 3.738 12.316L4.336 11.908ZM4 15C3.73478 15 3.48043 15.1054 3.29289 15.2929C3.10536 15.4804 3 15.7348 3 16V17C3 18.0609 3.42143 19.0783 4.17157 19.8284C4.92172 20.5786 5.93913 21 7 21H17C18.0609 21 19.0783 20.5786 19.8284 19.8284C20.5786 19.0783 21 18.0609 21 17V16C21 15.7348 20.8946 15.4804 20.7071 15.2929C20.5196 15.1054 20.2652 15 20 15H4Z" fill="currentColor"/>
</svg>
