<svg width="24" height="24" viewBox="0 0 24 24" fill="none" xmlns="http://www.w3.org/2000/svg">
<path d="M15.5002 4.99999C16.0866 4.9999 16.6544 5.20598 17.1043 5.58219C17.5542 5.95839 17.8575 6.48078 17.9612 7.05799C18.3265 6.97733 18.7053 6.97969 19.0696 7.06492C19.4339 7.15014 19.7745 7.31605 20.0661 7.55041C20.3578 7.78477 20.5931 8.0816 20.7548 8.41902C20.9164 8.75644 21.0003 9.12584 21.0002 9.49999V12C21.0002 14.1217 20.1573 16.1566 18.657 17.6568C17.1567 19.1571 15.1219 20 13.0002 20H12.3262C10.8406 19.9999 9.38435 19.5862 8.12062 18.8052C6.8569 18.0242 5.83561 16.9067 5.17118 15.578L2.32918 9.89399C1.96918 9.17399 2.23618 8.21099 3.07618 7.86599C4.11918 7.43899 5.11018 7.35899 6.13118 7.87799C6.42718 8.02799 6.71518 8.22499 7.00018 8.46199V7.49999C7.00001 7.09503 7.09822 6.69609 7.28637 6.33749C7.47451 5.97888 7.74695 5.67135 8.08025 5.44135C8.41355 5.21134 8.79774 5.06574 9.19977 5.01708C9.60179 4.96842 10.0096 5.01815 10.3882 5.16199C10.6134 4.80548 10.9251 4.51177 11.2944 4.30823C11.6637 4.1047 12.0785 3.99796 12.5002 3.99796C12.9218 3.99796 13.3367 4.1047 13.7059 4.30823C14.0752 4.51177 14.387 4.80548 14.6122 5.16199C14.8958 5.05434 15.1968 4.99944 15.5002 4.99999Z" fill="currentColor"/>
</svg>
