<svg width="24" height="24" viewBox="0 0 24 24" fill="none" xmlns="http://www.w3.org/2000/svg">
<path fill-rule="evenodd" clip-rule="evenodd" d="M9.50015 2C8.83711 2 8.20123 2.26339 7.73239 2.73223C7.26355 3.20107 7.00015 3.83696 7.00015 4.5V10.462C6.73266 10.2357 6.44087 10.0399 6.13015 9.878C5.11015 9.36 4.12015 9.44 3.07715 9.866C2.23715 10.211 1.97015 11.174 2.33015 11.894L5.17215 17.578C5.83651 18.9066 6.85764 20.024 8.12117 20.805C9.38471 21.586 10.8407 21.9998 12.3262 22H13.0002C17.0942 22 21.0002 18.563 21.0002 14.333V12.5C21.0003 12.095 20.9021 11.6961 20.714 11.3375C20.5258 10.9789 20.2534 10.6714 19.9201 10.4414C19.5868 10.2113 19.2026 10.0658 18.8006 10.0171C18.3985 9.96843 17.9907 10.0182 17.6122 10.162C17.3042 9.67482 16.8373 9.30911 16.2905 9.12686C15.7438 8.9446 15.1508 8.95702 14.6122 9.162C14.3411 8.73344 13.946 8.39752 13.4795 8.19889C13.0129 8.00027 12.4969 7.94833 12.0002 8.05V4.5C12.0002 4.1717 11.9355 3.84661 11.8099 3.54329C11.6842 3.23998 11.5001 2.96438 11.2679 2.73223C11.0358 2.50009 10.7602 2.31594 10.4569 2.1903C10.1535 2.06466 9.82846 2 9.50015 2Z" fill="currentColor"/>
</svg>
