<svg width="24" height="24" viewBox="0 0 24 24" fill="none" xmlns="http://www.w3.org/2000/svg">
<path fill-rule="evenodd" clip-rule="evenodd" d="M20.999 6.854C21.032 5.374 20.278 4.08 19.166 3.432C18.212 2.876 17.031 2.825 16 3.469C14.97 2.825 13.788 2.876 12.834 3.432C11.722 4.08 10.968 5.374 11.001 6.854C11.044 8.763 12.522 10.318 14.685 11.603C15.087 11.841 15.516 12.111 16 12.111C16.484 12.111 16.913 11.841 17.315 11.603C19.478 10.318 20.956 8.763 20.999 6.854ZM8.389 12.328L6.399 13.571C6.02547 13.2049 5.52304 13.0002 5 13.001H4C3.46957 13.001 2.96086 13.2117 2.58579 13.5868C2.21071 13.9619 2 14.4706 2 15.001V19.001C2 19.5314 2.21071 20.0401 2.58579 20.4152C2.96086 20.7903 3.46957 21.001 4 21.001H5C5.35106 21.001 5.69594 20.9086 5.99997 20.733C6.304 20.5575 6.55647 20.305 6.732 20.001H7.528C7.68313 20.0009 7.83616 20.0368 7.975 20.106L10.325 21.281C11.3197 21.7781 12.4517 21.9294 13.542 21.711L16.752 21.07C17.1909 20.9823 17.6044 20.7971 17.962 20.528L21.033 18.225C21.3331 17.9999 21.5768 17.7081 21.7446 17.3726C21.9124 17.0371 21.9999 16.6671 22 16.292V16.236C22 14.466 20.137 13.314 18.553 14.106C17.863 14.451 17.226 14.981 16.585 15.409C16.955 14.296 16.366 13.061 15.195 12.769L11.479 11.839C10.9575 11.7087 10.4151 11.6849 9.88421 11.7689C9.3533 11.8529 8.84477 12.0431 8.389 12.328Z" fill="currentColor"/>
</svg>
