<svg width="24" height="24" viewBox="0 0 24 24" fill="none" xmlns="http://www.w3.org/2000/svg">
<path fill-rule="evenodd" clip-rule="evenodd" d="M9.40164 3.59601C9.66705 3.35327 9.9817 3.17066 10.3241 3.06063C10.6666 2.95061 11.0287 2.91577 11.3858 2.95848C11.7429 3.0012 12.0866 3.12047 12.3935 3.30816C12.7003 3.49584 12.963 3.74752 13.1636 4.04601L13.2546 4.19201L13.9446 5.38901C13.9916 5.32401 14.0426 5.26001 14.0946 5.19901C14.6686 4.52401 15.4986 4.09701 16.4316 3.94101C17.2646 3.80101 17.8946 4.38001 18.0826 4.99101C18.2876 5.65901 18.6606 6.47101 19.1326 7.33901C20.7106 10.252 20.4876 13.929 18.3726 16.376C17.9526 18.288 16.8276 20.019 14.9726 21.09C13.3944 22.0007 11.5245 22.2637 9.75629 21.8235C7.98813 21.3833 6.45968 20.2744 5.49264 18.73L5.19264 18.23L5.02064 17.944C4.83964 17.648 4.65764 17.351 4.49564 17.047L4.34164 16.74L3.16664 14.781C2.98228 14.4741 2.86635 14.1311 2.82677 13.7752C2.78719 13.4194 2.82489 13.0593 2.93731 12.7194C3.04972 12.3795 3.23419 12.0679 3.47811 11.8058C3.72204 11.5438 4.01966 11.3375 4.35064 11.201L4.50164 11.145L3.72764 9.80501C3.53861 9.47804 3.42613 9.11248 3.39863 8.7358C3.37113 8.35912 3.42933 7.9811 3.56887 7.63014C3.70841 7.27918 3.92565 6.96439 4.20429 6.70942C4.48292 6.45445 4.8157 6.26593 5.17764 6.15801C4.9507 5.60663 4.9283 4.9923 5.11449 4.42585C5.30067 3.85941 5.68318 3.37817 6.19299 3.06895C6.7028 2.75973 7.30634 2.64291 7.89471 2.73955C8.48308 2.8362 9.01754 3.13996 9.40164 3.59601ZM16.3216 6.02801C16.0511 6.12023 15.8089 6.28075 15.6186 6.49401C15.4559 6.6833 15.3572 6.91922 15.3366 7.16801C15.9156 7.27501 16.3366 7.73501 16.4846 8.21601C16.6896 8.88401 17.0626 9.69601 17.5336 10.564C17.7776 11.014 17.9786 11.484 18.1366 11.964C18.25 10.6919 17.9846 9.41461 17.3736 8.29301C16.9616 7.53301 16.5876 6.75601 16.3216 6.02801ZM10.8396 5.00801C10.7383 5.06631 10.6607 5.15825 10.6201 5.26786C10.5796 5.37747 10.5787 5.49782 10.6176 5.60801L10.6556 5.69001L11.5856 7.30201L11.6556 7.41601L12.3466 8.61301C12.5096 8.38901 12.6996 8.18901 12.9116 8.01301L13.0746 7.88601L11.5216 5.19101C11.4553 5.07618 11.3461 4.99238 11.218 4.95806C11.09 4.92374 10.9535 4.94171 10.8386 5.00801H10.8396ZM7.23964 4.77601C7.1248 4.84232 7.04101 4.95153 7.00669 5.07961C6.97237 5.2077 6.99034 5.34417 7.05664 5.45901L7.82964 6.79701C8.08141 6.57339 8.37557 6.40268 8.69464 6.29501L7.92364 4.96001C7.85733 4.84518 7.74813 4.76138 7.62004 4.72706C7.49195 4.69274 7.35548 4.71071 7.24064 4.77701L7.23964 4.77601ZM21.3636 3.99801C21.4867 4.21004 21.5277 4.45991 21.4786 4.70014C21.4296 4.94036 21.294 5.1542 21.0976 5.30101L20.9996 5.36501L20.1596 5.85201C19.9389 5.97938 19.6779 6.0177 19.43 5.95913C19.182 5.90057 18.9657 5.74954 18.8253 5.5369C18.6849 5.32425 18.6309 5.06603 18.6745 4.81497C18.7181 4.56391 18.8558 4.33894 19.0596 4.18601L19.1566 4.12201L19.9966 3.63501C20.1102 3.56907 20.2357 3.52616 20.3659 3.50871C20.4961 3.49127 20.6284 3.49964 20.7553 3.53335C20.8823 3.56706 21.0013 3.62545 21.1057 3.70517C21.2101 3.7849 21.2977 3.88441 21.3636 3.99801ZM18.6326 1.09001C18.8693 1.15336 19.0745 1.30139 19.2092 1.506C19.344 1.71061 19.3989 1.95757 19.3636 2.20001L19.3396 2.31501L19.2106 2.79801C19.1458 3.04588 18.9883 3.25941 18.7707 3.39456C18.553 3.52971 18.2918 3.57616 18.0409 3.52434C17.79 3.47252 17.5686 3.32637 17.4223 3.11605C17.276 2.90573 17.216 2.64728 17.2546 2.39401L17.2786 2.28001L17.4086 1.79701C17.4773 1.54102 17.6448 1.32276 17.8743 1.19019C18.1038 1.05762 18.3766 1.02159 18.6326 1.09001ZM14.9856 1.09001C15.2223 1.02657 15.474 1.05222 15.693 1.16208C15.912 1.27195 16.083 1.45839 16.1736 1.68601L16.2106 1.79701L16.3406 2.28001C16.4095 2.52737 16.3806 2.79173 16.2598 3.01834C16.1391 3.24495 15.9358 3.41644 15.6921 3.49729C15.4484 3.57813 15.183 3.56214 14.9507 3.45263C14.7185 3.34312 14.5373 3.14847 14.4446 2.90901L14.4086 2.79801L14.2786 2.31501C14.2446 2.18816 14.2359 2.05584 14.253 1.92562C14.2701 1.79539 14.3127 1.66982 14.3784 1.55606C14.444 1.44231 14.5315 1.3426 14.6357 1.26263C14.7399 1.18267 14.8588 1.12401 14.9856 1.09001Z" fill="currentColor"/>
</svg>
