<svg width="24" height="24" viewBox="0 0 24 24" fill="none" xmlns="http://www.w3.org/2000/svg">
<path fill-rule="evenodd" clip-rule="evenodd" d="M7.00018 4.5C7.00018 3.83696 7.26357 3.20107 7.73241 2.73223C8.20125 2.26339 8.83714 2 9.50018 2C10.1632 2 10.7991 2.26339 11.2679 2.73223C11.7368 3.20107 12.0002 3.83696 12.0002 4.5V9.105L17.4422 9.71C18.4204 9.81876 19.3242 10.2844 19.9806 11.0177C20.6371 11.7511 21.0001 12.7008 21.0002 13.685V14C21.0002 16.1217 20.1573 18.1566 18.657 19.6569C17.1567 21.1571 15.1219 22 13.0002 22H12.3262C10.8406 22 9.38435 21.5862 8.12062 20.8052C6.8569 20.0242 5.83561 18.9067 5.17118 17.578L2.32918 11.894C1.96918 11.174 2.23618 10.211 3.07618 9.866C4.11918 9.439 5.11018 9.359 6.13118 9.878C6.42718 10.028 6.71518 10.225 7.00018 10.462V4.5Z" fill="currentColor"/>
</svg>
