<svg width="24" height="24" viewBox="0 0 24 24" fill="none" xmlns="http://www.w3.org/2000/svg">
<path fill-rule="evenodd" clip-rule="evenodd" d="M8 6C8 5.46957 8.21071 4.96086 8.58579 4.58579C8.96086 4.21071 9.46957 4 10 4H20C20.5304 4 21.0391 4.21071 21.4142 4.58579C21.7893 4.96086 22 5.46957 22 6V13C22 13.5304 21.7893 14.0391 21.4142 14.4142C21.0391 14.7893 20.5304 15 20 15H15L9.133 19.4C8.61371 19.7895 7.98211 20 7.333 20H3C2.73478 20 2.48043 19.8946 2.29289 19.7071C2.10536 19.5196 2 19.2652 2 19C2 18.7348 2.10536 18.4804 2.29289 18.2929C2.48043 18.1054 2.73478 18 3 18H7.333C7.54937 18 7.7599 17.9298 7.933 17.8L14.478 12.892L14.192 12.606C13.844 12.2578 13.3798 12.0502 12.8883 12.0229C12.3968 11.9955 11.9124 12.1505 11.528 12.458L8.625 14.781C8.52244 14.8631 8.40471 14.9241 8.27855 14.9607C8.15238 14.9973 8.02025 15.0087 7.88969 14.9942C7.75913 14.9797 7.6327 14.9396 7.51763 14.8763C7.40255 14.813 7.30108 14.7276 7.219 14.625C7.13692 14.5224 7.07585 14.4047 7.03927 14.2785C7.00269 14.1524 6.99132 14.0203 7.00581 13.8897C7.02029 13.7591 7.06035 13.6327 7.1237 13.5176C7.18705 13.4025 7.27244 13.3011 7.375 13.219L8 12.719V9.073C7.44551 9.19757 6.93781 9.47709 6.536 9.879L3.707 12.707C3.5184 12.8892 3.2658 12.99 3.0036 12.9877C2.7414 12.9854 2.49059 12.8802 2.30518 12.6948C2.11977 12.5094 2.0146 12.2586 2.01233 11.9964C2.01005 11.7342 2.11084 11.4816 2.293 11.293L5.12 8.464C5.89777 7.6869 6.90999 7.18782 8 7.044V6ZM10 9V8C10 7.73478 9.89464 7.48043 9.70711 7.29289C9.51957 7.10536 9.26522 7 9 7H20C20.2652 7 20.5196 7.10536 20.7071 7.29289C20.8946 7.48043 21 7.73478 21 8C21 8.26522 20.8946 8.51957 20.7071 8.70711C20.5196 8.89464 20.2652 9 20 9H10Z" fill="currentColor"/>
</svg>
