<svg width="24" height="24" viewBox="0 0 24 24" fill="none" xmlns="http://www.w3.org/2000/svg">
<path fill-rule="evenodd" clip-rule="evenodd" d="M12 2C17.523 2 22 6.477 22 12C22 17.523 17.523 22 12 22C6.477 22 2 17.523 2 12C2 6.477 6.477 2 12 2ZM13.984 14.25C13.454 14.718 12.761 15 12 15C11.2692 15.0013 10.5632 14.7345 10.016 14.25C9.81709 14.0744 9.55658 13.9851 9.29177 14.0016C9.02697 14.0181 8.77957 14.1391 8.604 14.338C8.42843 14.5369 8.33906 14.7974 8.35557 15.0622C8.37207 15.327 8.49309 15.5744 8.692 15.75C9.60496 16.5568 10.7817 17.0014 12 17C13.2184 17.0017 14.3952 16.557 15.308 15.75C15.5069 15.5744 15.6279 15.327 15.6444 15.0622C15.6609 14.7974 15.5716 14.5369 15.396 14.338C15.2204 14.1391 14.973 14.0181 14.7082 14.0016C14.4434 13.9851 14.1829 14.0744 13.984 14.25ZM8.5 8C7.413 8 6.542 8.68 6.106 9.552C5.99138 9.78014 5.96836 10.0435 6.04167 10.288C6.11497 10.5326 6.27904 10.7399 6.50025 10.8674C6.72146 10.9948 6.98305 11.0329 7.2314 10.9737C7.47976 10.9145 7.69607 10.7626 7.836 10.549L7.894 10.448C8.056 10.124 8.304 10 8.5 10C8.67 10 8.882 10.095 9.041 10.336L9.106 10.448C9.22604 10.683 9.4341 10.861 9.68483 10.9433C9.93556 11.0255 10.2086 11.0053 10.4445 10.8871C10.6805 10.7689 10.8601 10.5622 10.9443 10.3121C11.0285 10.062 11.0104 9.78882 10.894 9.552C10.457 8.68 9.587 8 8.5 8ZM15.5 8C14.413 8 13.543 8.68 13.106 9.552C12.9914 9.78014 12.9684 10.0435 13.0417 10.288C13.115 10.5326 13.279 10.7399 13.5002 10.8674C13.7215 10.9948 13.983 11.0329 14.2314 10.9737C14.4798 10.9145 14.6961 10.7626 14.836 10.549L14.894 10.448C15.056 10.124 15.304 10 15.5 10C15.67 10 15.882 10.095 16.041 10.336L16.106 10.448C16.1642 10.5664 16.2453 10.6722 16.3446 10.7591C16.4438 10.8461 16.5593 10.9126 16.6844 10.9547C16.8095 10.9968 16.9417 11.0137 17.0733 11.0045C17.205 10.9953 17.3335 10.9601 17.4515 10.901C17.5695 10.8418 17.6746 10.7599 17.7608 10.66C17.847 10.56 17.9125 10.444 17.9536 10.3186C17.9948 10.1932 18.0107 10.0609 18.0005 9.92935C17.9902 9.79777 17.954 9.66953 17.894 9.552C17.458 8.68 16.587 8 15.5 8Z" fill="currentColor"/>
</svg>
