<svg width="24" height="24" viewBox="0 0 24 24" fill="none" xmlns="http://www.w3.org/2000/svg">
<path fill-rule="evenodd" clip-rule="evenodd" d="M14.0852 5.00001H14.0002C11.8956 4.99985 9.87582 5.82896 8.37837 7.30769C6.88092 8.78642 6.02647 10.7957 6.00016 12.9L2.38616 15.71C2.27551 15.798 2.18457 15.9083 2.11923 16.0337C2.05389 16.159 2.01559 16.2967 2.00683 16.4378C1.99806 16.5789 2.01902 16.7203 2.06834 16.8528C2.11766 16.9853 2.19426 17.106 2.29316 17.207C2.4363 17.3533 2.60751 17.4692 2.79653 17.5477C2.98555 17.6263 3.18848 17.6658 3.39316 17.664C3.61316 17.665 3.82916 17.622 4.04816 17.598C4.32016 17.568 4.76516 17.546 5.59416 17.914C6.65816 18.387 7.73716 18.922 8.72216 19.307C9.74016 19.704 10.7942 20 11.9372 20C14.1612 20 16.4142 18.888 19.2712 16.136C19.8815 16.1035 20.491 16.0565 21.0992 15.995C21.346 15.9705 21.5749 15.855 21.7414 15.6711C21.9079 15.4873 22.0001 15.2481 22.0002 15V13C22.0001 11.4062 21.5242 9.84876 20.6334 8.52716C19.7426 7.20557 18.4775 6.18005 17.0002 5.58201V5.50001C17.0007 5.14577 16.8758 4.80278 16.6477 4.53177C16.4196 4.26077 16.1029 4.07925 15.7537 4.01937C15.4046 3.95948 15.0455 4.02509 14.7401 4.20458C14.4347 4.38406 14.2027 4.66584 14.0852 5.00001ZM5.56316 15.774L7.50016 14.266C10.5872 15.421 13.3452 16.009 16.2302 16.148C14.4152 17.573 13.0802 18 11.9362 18C11.1432 18 10.3522 17.796 9.44816 17.443C8.51216 17.078 7.59116 16.613 6.40516 16.086C6.13149 15.9632 5.84986 15.8589 5.56216 15.774H5.56316Z" fill="currentColor"/>
</svg>
