<svg width="24" height="24" viewBox="0 0 24 24" fill="none" xmlns="http://www.w3.org/2000/svg">
<path d="M20 11.943C20 7.562 16.424 4 12 4C7.576 4 4 7.562 4 11.943C4 13.133 4.147 13.898 4.328 14.459C4.45 14.831 4.741 14.464 4.885 14.329C5.35747 13.8859 5.98345 13.6435 6.6311 13.6529C7.27874 13.6622 7.89749 13.9225 8.357 14.379C9.778 15.791 11.089 17.749 9.278 19.549C8.306 20.515 6.842 20.917 5.728 19.877C4.29 18.533 3.041 16.969 2.426 15.077C2.17 14.283 2 13.304 2 11.942C2 6.445 6.483 2 12 2C17.517 2 22 6.445 22 11.943C22 13.305 21.831 14.284 21.574 15.076C20.959 16.969 19.71 18.533 18.272 19.876C17.158 20.917 15.694 20.516 14.722 19.549C12.912 17.749 14.222 15.791 15.642 14.379C16.1016 13.9222 16.7205 13.6617 17.3684 13.6524C18.0163 13.6431 18.6425 13.8856 19.115 14.329C19.392 14.589 19.529 14.899 19.672 14.459C19.853 13.899 20 13.132 20 11.943Z" fill="currentColor"/>
</svg>
