<svg width="24" height="24" viewBox="0 0 24 24" fill="none" xmlns="http://www.w3.org/2000/svg">
<path d="M13 2.5C13.3729 2.50002 13.7324 2.63892 14.0084 2.88962C14.2844 3.14032 14.4572 3.48484 14.493 3.856L14.5 4V20C14.4998 20.3852 14.3514 20.7556 14.0856 21.0344C13.8198 21.3132 13.4569 21.479 13.0721 21.4975C12.6873 21.516 12.3102 21.3858 12.0188 21.1338C11.7274 20.8818 11.5442 20.5274 11.507 20.144L11.5 20V13.5H5.5V20C5.49981 20.3852 5.35142 20.7556 5.08559 21.0344C4.81976 21.3132 4.45686 21.479 4.07209 21.4975C3.68731 21.516 3.31017 21.3858 3.0188 21.1338C2.72743 20.8818 2.54417 20.5274 2.507 20.144L2.5 20V4C2.50019 3.61478 2.64858 3.24441 2.91441 2.96561C3.18024 2.68682 3.54314 2.52099 3.92791 2.50248C4.31269 2.48396 4.68983 2.61419 4.9812 2.86618C5.27257 3.11816 5.45583 3.47258 5.493 3.856L5.5 4V10.5H11.5V4C11.5 3.60218 11.658 3.22064 11.9393 2.93934C12.2206 2.65804 12.6022 2.5 13 2.5ZM19 13.519V20C19 20.2652 18.8946 20.5196 18.7071 20.7071C18.5196 20.8946 18.2652 21 18 21C17.7348 21 17.4804 20.8946 17.2929 20.7071C17.1054 20.5196 17 20.2652 17 20V15.366C16.7751 15.4963 16.5084 15.534 16.2562 15.471C16.0041 15.408 15.7863 15.2493 15.6492 15.0285C15.512 14.8078 15.4662 14.5423 15.5214 14.2883C15.5766 14.0344 15.7286 13.8119 15.945 13.668L17.43 12.678C17.5821 12.5767 17.7588 12.5185 17.9413 12.5097C18.1238 12.5009 18.3053 12.5418 18.4665 12.628C18.6276 12.7142 18.7623 12.8425 18.8563 12.9992C18.9502 13.156 18.9999 13.3353 19 13.518V13.519Z" fill="currentColor"/>
</svg>
