<svg width="24" height="24" viewBox="0 0 24 24" fill="none" xmlns="http://www.w3.org/2000/svg">
<path fill-rule="evenodd" clip-rule="evenodd" d="M4.99979 10C5.0001 8.59579 5.37002 7.21639 6.07237 6.00044C6.77472 4.78449 7.78475 3.77483 9.00095 3.07292C10.2172 2.37102 11.5967 2.0016 13.0009 2.0018C14.4051 2.002 15.7846 2.3718 17.0006 3.07405C18.2166 3.77629 19.2263 4.78624 19.9283 6.00238C20.6303 7.21853 20.9999 8.59803 20.9998 10.0022C20.9997 11.4065 20.63 12.7859 19.9279 14.002C19.2257 15.2181 18.2159 16.2279 16.9998 16.93V20.5C16.9998 20.8978 16.8418 21.2794 16.5604 21.5607C16.2791 21.842 15.8976 22 15.4998 22H11.4998C11.102 22 10.7204 21.842 10.4391 21.5607C10.1578 21.2794 9.99979 20.8978 9.99979 20.5V19H8.76579C8.03454 19 7.32845 18.733 6.78024 18.2491C6.23204 17.7651 5.87946 17.0976 5.78879 16.372L5.64879 15.249L4.90179 15.1C4.68418 15.0564 4.47896 14.9651 4.30091 14.8326C4.12286 14.7002 3.97642 14.5298 3.87215 14.3339C3.76789 14.138 3.70839 13.9214 3.69795 13.6998C3.68751 13.4781 3.72639 13.2568 3.81179 13.052L5.00179 10.194C5.00035 10.1293 4.99968 10.0647 4.99979 10Z" fill="currentColor"/>
</svg>
