<svg width="24" height="24" viewBox="0 0 24 24" fill="none" xmlns="http://www.w3.org/2000/svg">
<path d="M13 2.5C13.3729 2.50002 13.7324 2.63892 14.0084 2.88962C14.2844 3.14032 14.4572 3.48484 14.493 3.856L14.5 4V20C14.4998 20.3852 14.3514 20.7556 14.0856 21.0344C13.8198 21.3132 13.4569 21.479 13.0721 21.4975C12.6873 21.516 12.3102 21.3858 12.0188 21.1338C11.7274 20.8818 11.5442 20.5274 11.507 20.144L11.5 20V13.5H5.5V20C5.49981 20.3852 5.35142 20.7556 5.08559 21.0344C4.81976 21.3132 4.45686 21.479 4.07209 21.4975C3.68731 21.516 3.31017 21.3858 3.0188 21.1338C2.72743 20.8818 2.54417 20.5274 2.507 20.144L2.5 20V4C2.50019 3.61478 2.64858 3.24441 2.91441 2.96561C3.18024 2.68682 3.54314 2.52099 3.92791 2.50248C4.31269 2.48396 4.68983 2.61419 4.9812 2.86618C5.27257 3.11816 5.45583 3.47258 5.493 3.856L5.5 4V10.5H11.5V4C11.5 3.60218 11.658 3.22064 11.9393 2.93934C12.2206 2.65804 12.6022 2.5 13 2.5ZM17.657 12.68C18.2874 12.5264 18.952 12.6041 19.53 12.899C20.696 13.481 21.287 14.819 20.973 16.076C20.8745 16.4707 20.6912 16.8392 20.436 17.156L20.303 17.309L18.724 19H20.354C20.6089 19.0003 20.854 19.0979 21.0394 19.2728C21.2247 19.4478 21.3362 19.687 21.3512 19.9414C21.3661 20.1958 21.2833 20.4464 21.1197 20.6418C20.9561 20.8373 20.7241 20.9629 20.471 20.993L20.354 21H16.65C16.5174 21 16.386 20.9739 16.2635 20.9231C16.141 20.8724 16.0296 20.798 15.9358 20.7042C15.842 20.6104 15.7676 20.4991 15.7169 20.3765C15.6661 20.254 15.64 20.1226 15.64 19.99C15.64 19.698 15.663 19.421 15.831 19.183L15.912 19.083L18.842 15.945C19.314 15.438 18.892 14.432 18.143 14.62C17.83 14.698 17.677 14.955 17.647 15.246L17.641 15.357C17.641 15.6222 17.5356 15.8766 17.3481 16.0641C17.1606 16.2516 16.9062 16.357 16.641 16.357C16.3758 16.357 16.1214 16.2516 15.9339 16.0641C15.7464 15.8766 15.641 15.6222 15.641 15.357C15.641 14.111 16.423 12.988 17.658 12.679L17.657 12.68Z" fill="currentColor"/>
</svg>
