<svg width="24" height="24" viewBox="0 0 24 24" fill="none" xmlns="http://www.w3.org/2000/svg">
<path d="M13 2.5C13.3729 2.50002 13.7324 2.63892 14.0084 2.88962C14.2844 3.14032 14.4572 3.48484 14.493 3.856L14.5 4V20C14.4998 20.3852 14.3514 20.7556 14.0856 21.0344C13.8198 21.3132 13.4569 21.479 13.0721 21.4975C12.6873 21.516 12.3102 21.3858 12.0188 21.1338C11.7274 20.8818 11.5442 20.5274 11.507 20.144L11.5 20V13.5H5.5V20C5.49981 20.3852 5.35142 20.7556 5.08559 21.0344C4.81976 21.3132 4.45686 21.479 4.07209 21.4975C3.68731 21.516 3.31017 21.3858 3.0188 21.1338C2.72743 20.8818 2.54417 20.5274 2.507 20.144L2.5 20V4C2.50019 3.61478 2.64858 3.24441 2.91441 2.96561C3.18024 2.68682 3.54314 2.52099 3.92791 2.50248C4.31269 2.48396 4.68983 2.61419 4.9812 2.86618C5.27257 3.11816 5.45583 3.47258 5.493 3.856L5.5 4V10.5H11.5V4C11.5 3.60218 11.658 3.22064 11.9393 2.93934C12.2206 2.65804 12.6022 2.5 13 2.5ZM18.372 12.5C18.8643 12.5015 19.3463 12.641 19.7633 12.9026C20.1803 13.1642 20.5156 13.5375 20.7312 13.98C20.9467 14.4226 21.0339 14.9168 20.9828 15.4064C20.9317 15.896 20.7443 16.3615 20.442 16.75C20.7443 17.1385 20.9317 17.604 20.9828 18.0936C21.0339 18.5832 20.9467 19.0774 20.7312 19.52C20.5156 19.9625 20.1803 20.3358 19.7633 20.5974C19.3463 20.859 18.8643 20.9985 18.372 21C17.32 21 16.332 20.65 15.887 19.602C15.647 19.033 15.658 18.352 16.323 18.069C16.5487 17.9732 16.8018 17.9636 17.0341 18.0422C17.2664 18.1207 17.4617 18.2819 17.583 18.495L17.635 18.599C17.773 18.925 17.914 18.986 18.177 18.997L18.371 19C18.5382 18.9989 18.6982 18.9318 18.816 18.8132C18.9339 18.6946 19 18.5342 19 18.367C19 17.994 18.715 17.789 18.386 17.755L18.286 17.75C18.0311 17.7497 17.786 17.6521 17.6006 17.4772C17.4153 17.3022 17.3038 17.063 17.2888 16.8086C17.2739 16.5542 17.3567 16.3036 17.5203 16.1082C17.6839 15.9127 17.9159 15.7871 18.169 15.757L18.286 15.75C18.656 15.75 19 15.543 19 15.133C19 14.966 18.934 14.8057 18.8164 14.6872C18.6987 14.5686 18.539 14.5013 18.372 14.5L18.177 14.503C17.943 14.513 17.806 14.563 17.681 14.802L17.635 14.901C17.5314 15.1451 17.3351 15.3381 17.0893 15.4375C16.8434 15.5369 16.5681 15.5345 16.324 15.431C15.658 15.148 15.646 14.467 15.888 13.898C16.332 12.85 17.32 12.5 18.372 12.5Z" fill="currentColor"/>
</svg>
