<svg width="24" height="24" viewBox="0 0 24 24" fill="none" xmlns="http://www.w3.org/2000/svg">
<path fill-rule="evenodd" clip-rule="evenodd" d="M21.9981 10.393C22.0631 7.501 20.5891 5.023 18.4941 3.801C16.5341 2.659 14.0721 2.653 12.0001 4.338C9.92807 2.653 7.46607 2.659 5.50607 3.801C3.41107 5.022 1.93707 7.501 2.00207 10.393V10.419C2.09707 14.018 4.90407 17.194 9.68107 20.031C10.0121 20.229 10.3431 20.429 10.6871 20.604C11.0931 20.81 11.5371 21 12.0001 21C12.4631 21 12.9071 20.81 13.3131 20.604C13.6571 20.429 13.9881 20.229 14.3191 20.031C19.1071 17.187 21.9171 14.002 21.9981 10.393ZM12.0001 6.623C12.3061 6.623 12.6111 6.506 12.8431 6.272C14.3511 4.746 16.0931 4.717 17.4871 5.529C18.9311 6.371 20.0471 8.157 19.9981 10.349C19.9421 12.86 17.9581 15.543 13.2981 18.311C12.8921 18.553 12.4621 18.871 12.0001 19V6.623Z" fill="currentColor"/>
</svg>
