<svg width="24" height="24" viewBox="0 0 24 24" fill="none" xmlns="http://www.w3.org/2000/svg">
<path d="M9.93007 10.376L12.0801 15.394C12.1469 15.5503 12.2526 15.687 12.387 15.7911C12.5214 15.8952 12.6801 15.9634 12.8481 15.9891C13.0162 16.0148 13.188 15.9973 13.3474 15.9381C13.5068 15.879 13.6485 15.7801 13.7591 15.651L13.8321 15.555L15.5351 13H21.4421C19.5271 17.738 13.2771 21 12.0001 21C10.7501 21 4.73007 17.873 2.68407 13.294L2.55807 13H8.00007C8.16466 13 8.32671 12.9594 8.47185 12.8818C8.61699 12.8042 8.74072 12.6919 8.83207 12.555L8.89407 12.447L9.93007 10.376ZM12.0001 4.339C14.0721 2.653 16.5341 2.659 18.4941 3.801C20.5891 5.022 22.0631 7.501 21.9981 10.393L21.9841 10.698L21.9571 11H15.0001C14.8564 10.9999 14.7145 11.0308 14.5839 11.0905C14.4532 11.1502 14.337 11.2373 14.2431 11.346L14.1681 11.446L13.1921 12.909L10.9191 7.606C10.8482 7.44074 10.7341 7.29763 10.5888 7.19174C10.4435 7.08586 10.2723 7.02111 10.0933 7.00433C9.91428 6.98754 9.73404 7.01933 9.57157 7.09636C9.40909 7.17338 9.27039 7.29279 9.17007 7.442L9.10607 7.552L7.38207 11H2.04207C2.01975 10.7984 2.0064 10.5958 2.00207 10.393C1.93707 7.501 3.41107 5.023 5.50607 3.801C7.46607 2.66 9.92807 2.652 12.0001 4.339Z" fill="currentColor"/>
</svg>
