<svg width="24" height="24" viewBox="0 0 24 24" fill="none" xmlns="http://www.w3.org/2000/svg">
<path fill-rule="evenodd" clip-rule="evenodd" d="M21.9981 10.393C22.0631 7.501 20.5891 5.023 18.4941 3.801C16.5341 2.66 14.0721 2.653 12.0001 4.339C9.92807 2.653 7.46607 2.659 5.50607 3.801C3.41107 5.022 1.93707 7.501 2.00207 10.393C2.08307 14.003 4.89207 17.187 9.68107 20.031C10.0121 20.229 10.3431 20.429 10.6871 20.604C11.0931 20.81 11.5371 21 12.0001 21C12.4631 21 12.9071 20.81 13.3131 20.604C13.6571 20.429 13.9881 20.229 14.3191 20.031C19.1071 17.187 21.9171 14.002 21.9981 10.393ZM12.8431 6.272C14.3511 4.746 16.0931 4.718 17.4871 5.53C18.9311 6.371 20.0471 8.158 19.9981 10.348C19.9881 10.83 19.9061 11.318 19.7481 11.811C19.3104 12.1057 18.7839 12.2391 18.2587 12.1884C17.7335 12.1377 17.2423 11.906 16.8691 11.533L15.5761 10.239C15.4039 10.0668 15.1995 9.93026 14.9746 9.83709C14.7496 9.74391 14.5085 9.69595 14.2651 9.69595C14.0216 9.69595 13.7805 9.74391 13.5556 9.83709C13.3306 9.93026 13.1262 10.0668 12.9541 10.239L12.0891 11.105C11.7058 11.4881 11.186 11.7033 10.6441 11.7033C10.1021 11.7033 9.58237 11.4881 9.19907 11.105C9.12217 11.0283 9.06114 10.9373 9.01947 10.837C8.9778 10.7368 8.9563 10.6293 8.95621 10.5207C8.95611 10.4121 8.97743 10.3046 9.01893 10.2043C9.06043 10.1039 9.1213 10.0128 9.19807 9.936L12.7151 6.417C12.7541 6.379 12.7891 6.337 12.8191 6.295C12.8272 6.28746 12.8352 6.27979 12.8431 6.272Z" fill="currentColor"/>
</svg>
