<svg width="24" height="24" viewBox="0 0 24 24" fill="none" xmlns="http://www.w3.org/2000/svg">
<path d="M11.4996 2C12.822 1.99987 14.1131 2.40298 15.2004 3.15554C16.2878 3.9081 17.1199 4.97433 17.5856 6.212C18.6374 6.50067 19.5905 7.07045 20.3428 7.86012C21.095 8.64978 21.6179 9.62948 21.8552 10.694C22.0925 11.7584 22.0352 12.8675 21.6896 13.9019C21.3441 14.9363 20.7231 15.8569 19.8936 16.565C19.6289 16.3596 19.3314 16.2004 19.0136 16.094C19.1096 15.5592 19.0591 15.0085 18.8676 14.5C19.0722 13.9598 19.1165 13.372 18.9951 12.8072C18.8737 12.2424 18.5919 11.7247 18.1834 11.3163C17.7749 10.9078 17.2572 10.6259 16.6924 10.5046C16.1277 10.3832 15.5399 10.4274 14.9996 10.632C14.4988 10.443 13.9566 10.3914 13.4291 10.4825C12.9016 10.5736 12.4081 10.804 11.9996 11.15C11.5912 10.804 11.0977 10.5736 10.5702 10.4825C10.0427 10.3914 9.50046 10.443 8.99964 10.632C8.45941 10.4274 7.87161 10.3832 7.30685 10.5046C6.74208 10.6259 6.22437 10.9078 5.8159 11.3163C5.40743 11.7247 5.12557 12.2424 5.00419 12.8072C4.88281 13.372 4.92707 13.9598 5.13164 14.5C4.93615 15.0202 4.88839 15.5843 4.99364 16.13C4.37109 15.8971 3.68899 15.8767 3.05364 16.072C2.58522 15.4707 2.26047 14.7702 2.10422 14.0242C1.94798 13.2782 1.96437 12.5063 2.15214 11.7675C2.33991 11.0288 2.69409 10.3428 3.18762 9.76189C3.68114 9.18101 4.30094 8.72065 4.99964 8.416C5.02173 6.70669 5.71629 5.07489 6.93289 3.87401C8.14949 2.67313 9.79019 1.99986 11.4996 2ZM7.23164 12.732C7.40383 12.5598 7.63293 12.4564 7.87596 12.4411C8.11899 12.4258 8.35924 12.4997 8.55164 12.649L8.64564 12.732L8.99964 13.086L9.35364 12.732C9.5336 12.5527 9.77508 12.4485 10.029 12.4408C10.283 12.433 10.5304 12.5222 10.7209 12.6902C10.9115 12.8583 11.0309 13.0926 11.055 13.3455C11.0791 13.5984 11.0061 13.851 10.8506 14.052L10.7676 14.146L10.4136 14.5L10.7676 14.854C10.947 15.034 11.0511 15.2754 11.0589 15.5294C11.0666 15.7833 10.9774 16.0307 10.8094 16.2213C10.6414 16.4118 10.4071 16.5313 10.1542 16.5554C9.90124 16.5795 9.64863 16.5064 9.44764 16.351L9.35364 16.268L8.99964 15.914L8.64564 16.268C8.46568 16.4473 8.22421 16.5515 7.97026 16.5592C7.71631 16.567 7.46893 16.4778 7.27836 16.3098C7.0878 16.1417 6.96834 15.9074 6.94424 15.6545C6.92015 15.4016 6.99323 15.149 7.14864 14.948L7.23164 14.853L7.58564 14.5L7.23164 14.146C7.04417 13.9585 6.93885 13.7042 6.93885 13.439C6.93885 13.1738 7.04417 12.9195 7.23164 12.732ZM14.6456 12.732L14.9996 13.086L15.3536 12.732C15.5422 12.5498 15.7948 12.449 16.057 12.4513C16.3192 12.4536 16.5701 12.5588 16.7555 12.7442C16.9409 12.9296 17.046 13.1804 17.0483 13.4426C17.0506 13.7048 16.9498 13.9574 16.7676 14.146L16.4136 14.5L16.7676 14.854C16.9551 15.0416 17.0604 15.2961 17.0603 15.5614C17.0603 15.8266 16.9548 16.081 16.7671 16.2685C16.5795 16.456 16.3251 16.5613 16.0598 16.5612C15.7945 16.5611 15.5401 16.4556 15.3526 16.268L14.9996 15.914L14.6456 16.268C14.458 16.4555 14.2036 16.5608 13.9383 16.5607C13.673 16.5606 13.4186 16.4551 13.2311 16.2675C13.0436 16.0799 12.9383 15.8254 12.9384 15.5601C12.9385 15.2949 13.044 15.0405 13.2316 14.853L13.5856 14.5L13.2316 14.146C13.0495 13.9574 12.9487 13.7048 12.951 13.4426C12.9532 13.1804 13.0584 12.9296 13.2438 12.7442C13.4292 12.5588 13.68 12.4536 13.9422 12.4513C14.2044 12.449 14.457 12.5498 14.6456 12.732ZM6.76764 19.646C6.86315 19.5538 6.93933 19.4434 6.99174 19.3214C7.04415 19.1994 7.07174 19.0682 7.07289 18.9354C7.07405 18.8026 7.04874 18.6709 6.99846 18.548C6.94818 18.4251 6.87393 18.3135 6.78004 18.2196C6.68614 18.1257 6.57449 18.0515 6.45159 18.0012C6.3287 17.9509 6.19702 17.9256 6.06424 17.9268C5.93146 17.9279 5.80024 17.9555 5.67824 18.0079C5.55623 18.0603 5.44589 18.1365 5.35364 18.232L4.99964 18.586L4.64564 18.232C4.45704 18.0498 4.20444 17.949 3.94224 17.9513C3.68004 17.9536 3.42923 18.0588 3.24382 18.2442C3.05841 18.4296 2.95325 18.6804 2.95097 18.9426C2.94869 19.2048 3.04948 19.4574 3.23164 19.646L3.58564 20L3.23164 20.354C3.04948 20.5426 2.94869 20.7952 2.95097 21.0574C2.95325 21.3196 3.05841 21.5704 3.24382 21.7558C3.42923 21.9412 3.68004 22.0464 3.94224 22.0487C4.20444 22.051 4.45704 21.9502 4.64564 21.768L4.99964 21.414L5.35364 21.768C5.54128 21.9555 5.79572 22.0608 6.06099 22.0607C6.32626 22.0606 6.58063 21.9551 6.76814 21.7675C6.95565 21.5799 7.06094 21.3254 7.06084 21.0601C7.06075 20.7949 6.95528 20.5405 6.76764 20.353L6.41364 20L6.76764 19.646ZM18.7676 18.232C18.9551 18.4195 19.0604 18.6738 19.0604 18.939C19.0604 19.2042 18.9551 19.4585 18.7676 19.646L18.4136 20L18.7676 20.354C18.9551 20.5416 19.0604 20.7961 19.0603 21.0614C19.0603 21.3266 18.9548 21.581 18.7671 21.7685C18.5795 21.956 18.3251 22.0613 18.0598 22.0612C17.7945 22.0611 17.5401 21.9556 17.3526 21.768L16.9996 21.414L16.6456 21.768C16.458 21.9555 16.2036 22.0608 15.9383 22.0607C15.673 22.0606 15.4186 21.9551 15.2311 21.7675C15.0436 21.5799 14.9383 21.3254 14.9384 21.0601C14.9385 20.7949 15.044 20.5405 15.2316 20.353L15.5856 20L15.2316 19.646C15.0495 19.4574 14.9487 19.2048 14.951 18.9426C14.9532 18.6804 15.0584 18.4296 15.2438 18.2442C15.4292 18.0588 15.68 17.9536 15.9422 17.9513C16.2044 17.949 16.457 18.0498 16.6456 18.232L16.9996 18.586L17.3536 18.232C17.5412 18.0445 17.7955 17.9392 18.0606 17.9392C18.3258 17.9392 18.5801 18.0445 18.7676 18.232ZM12.7676 19.646C12.9551 19.4584 13.0604 19.2039 13.0603 18.9386C13.0603 18.6734 12.9548 18.419 12.7671 18.2315C12.5795 18.044 12.3251 17.9387 12.0598 17.9388C11.7945 17.9389 11.5401 18.0444 11.3526 18.232L10.9996 18.586L10.6456 18.232C10.457 18.0498 10.2044 17.949 9.94224 17.9513C9.68004 17.9536 9.42923 18.0588 9.24382 18.2442C9.05841 18.4296 8.95325 18.6804 8.95097 18.9426C8.94869 19.2048 9.04948 19.4574 9.23164 19.646L9.58564 20L9.23164 20.354C9.04948 20.5426 8.94869 20.7952 8.95097 21.0574C8.95325 21.3196 9.05841 21.5704 9.24382 21.7558C9.42923 21.9412 9.68004 22.0464 9.94224 22.0487C10.2044 22.051 10.457 21.9502 10.6456 21.768L10.9996 21.414L11.3536 21.768C11.5413 21.9555 11.7957 22.0608 12.061 22.0607C12.3263 22.0606 12.5806 21.9551 12.7681 21.7675C12.9556 21.5799 13.0609 21.3254 13.0608 21.0601C13.0608 20.7949 12.9553 20.5405 12.7676 20.353L12.4136 20L12.7676 19.646Z" fill="currentColor"/>
</svg>
