<svg width="24" height="24" viewBox="0 0 24 24" fill="none" xmlns="http://www.w3.org/2000/svg">
<path d="M7.03283 14.136C7.15969 14.17 7.27862 14.2287 7.38281 14.3086C7.487 14.3886 7.57442 14.4883 7.64008 14.6021C7.70573 14.7158 7.74833 14.8414 7.76544 14.9716C7.78256 15.1018 7.77386 15.2341 7.73983 15.361L6.18683 21.157C6.11814 21.4132 5.95048 21.6316 5.72075 21.7642C5.49102 21.8968 5.21803 21.9327 4.96183 21.864C4.70563 21.7953 4.48721 21.6277 4.35462 21.3979C4.22203 21.1682 4.18614 20.8952 4.25483 20.639L5.80783 14.844C5.84172 14.717 5.9003 14.598 5.98022 14.4937C6.06014 14.3894 6.15983 14.3019 6.2736 14.2361C6.38736 14.1704 6.51297 14.1277 6.64325 14.1105C6.77352 14.0933 6.9059 14.102 7.03283 14.136ZM17.5328 14.136C17.6597 14.17 17.7786 14.2287 17.8828 14.3086C17.987 14.3886 18.0744 14.4883 18.1401 14.6021C18.2057 14.7158 18.2483 14.8414 18.2654 14.9716C18.2826 15.1018 18.2739 15.2341 18.2398 15.361L16.6868 21.157C16.6181 21.4132 16.4505 21.6316 16.2208 21.7642C15.991 21.8968 15.718 21.9327 15.4618 21.864C15.2056 21.7953 14.9872 21.6277 14.8546 21.3979C14.722 21.1682 14.6861 20.8952 14.7548 20.639L16.3078 14.844C16.3417 14.717 16.4003 14.598 16.4802 14.4937C16.5601 14.3894 16.6598 14.3019 16.7736 14.2361C16.8874 14.1704 17.013 14.1277 17.1432 14.1105C17.2735 14.0933 17.4059 14.102 17.5328 14.136ZM10.5328 14.136C10.6597 14.17 10.7786 14.2287 10.8828 14.3086C10.987 14.3886 11.0744 14.4883 11.1401 14.6021C11.2057 14.7158 11.2483 14.8414 11.2654 14.9716C11.2826 15.1018 11.2739 15.2341 11.2398 15.361L9.68683 21.157C9.61814 21.4132 9.45048 21.6316 9.22075 21.7642C8.99102 21.8968 8.71803 21.9327 8.46183 21.864C8.20563 21.7953 7.98721 21.6277 7.85462 21.3979C7.72203 21.1682 7.68614 20.8952 7.75483 20.639L9.30783 14.844C9.34183 14.7171 9.40048 14.5982 9.48045 14.494C9.56041 14.3898 9.66012 14.3024 9.77388 14.2368C9.88763 14.1711 10.0132 14.1285 10.1434 14.1114C10.2737 14.0943 10.406 14.103 10.5328 14.137V14.136ZM12.8078 14.844C12.8729 14.5965 13.0304 14.3835 13.2478 14.2486C13.4653 14.1137 13.7261 14.0673 13.9767 14.1189C14.2273 14.1706 14.4486 14.3163 14.595 14.5261C14.7414 14.736 14.8019 14.994 14.7638 15.247L14.7398 15.361L13.1868 21.157C13.1202 21.4028 12.9623 21.614 12.7454 21.7474C12.5284 21.8808 12.2687 21.9264 12.0192 21.8748C11.7698 21.8233 11.5495 21.6785 11.4031 21.47C11.2568 21.2616 11.1955 21.0051 11.2318 20.753L11.2548 20.639L12.8078 14.844ZM11.5008 2C12.8232 1.99987 14.1142 2.40298 15.2016 3.15554C16.289 3.9081 17.1211 4.97433 17.5868 6.212C18.6253 6.49703 19.5679 7.05618 20.3159 7.83083C21.0639 8.60549 21.5897 9.56711 21.8382 10.6149C22.0867 11.6627 22.0487 12.758 21.7282 13.786C21.4078 14.8141 20.8167 15.737 20.0168 16.458L20.1718 15.878C20.3317 15.2805 20.303 14.6482 20.0897 14.0676C19.8763 13.487 19.4887 12.9866 18.98 12.6348C18.4712 12.283 17.8661 12.0971 17.2476 12.1025C16.6291 12.1079 16.0274 12.3044 15.5248 12.665C15.0152 12.2979 14.403 12.1003 13.7748 12.1003C13.1467 12.1003 12.5345 12.2979 12.0248 12.665C11.5152 12.2979 10.903 12.1003 10.2748 12.1003C9.6467 12.1003 9.03448 12.2979 8.52483 12.665C8.13065 12.3818 7.67366 12.1986 7.19307 12.1309C6.71248 12.0632 6.22264 12.1131 5.76558 12.2763C5.30852 12.4395 4.89788 12.7112 4.56891 13.0681C4.23994 13.4249 4.00245 13.8562 3.87683 14.325L3.32383 16.388C2.78347 15.8019 2.3911 15.095 2.17945 14.3264C1.96779 13.5578 1.94298 12.7498 2.10709 11.9697C2.2712 11.1895 2.61947 10.46 3.12285 9.84177C3.62622 9.2236 4.27012 8.73475 5.00083 8.416C5.02292 6.70669 5.71748 5.07489 6.93408 3.87401C8.15068 2.67313 9.79138 1.99986 11.5008 2Z" fill="currentColor"/>
</svg>
