<svg width="24" height="24" viewBox="0 0 24 24" fill="none" xmlns="http://www.w3.org/2000/svg">
<path d="M21.9506 12.997C21.4506 18.052 17.1866 22 12.0006 22C6.84062 22 2.59462 18.094 2.05762 13.078C2.55862 13.478 3.13362 13.844 3.76162 14.169C5.91162 15.283 8.82162 16 11.9996 16C15.1876 16 18.0996 15.236 20.2456 14.102C20.8756 13.77 21.4506 13.399 21.9506 12.997ZM12.0006 8C14.5746 8 16.9386 8.387 18.6906 8.992C19.5986 9.306 20.8216 9.82 21.4976 10.652C21.4603 10.6992 21.422 10.7455 21.3826 10.791C20.9276 11.311 20.2296 11.848 19.3106 12.334C17.4746 13.304 14.8866 14 12.0006 14C9.10262 14 6.51362 13.342 4.68162 12.393C3.76562 11.918 3.07262 11.389 2.62162 10.866C2.57111 10.8075 2.52242 10.7475 2.47562 10.686C3.14562 9.834 4.38862 9.31 5.30962 8.992C7.06162 8.387 9.42462 8 11.9996 8" fill="currentColor"/>
</svg>
