<svg width="24" height="24" viewBox="0 0 24 24" fill="none" xmlns="http://www.w3.org/2000/svg">
<path d="M10.9269 2.053C10.5083 2.58443 10.1425 3.15547 9.83491 3.758C8.72191 5.908 8.00491 8.818 8.00491 11.996C8.00491 15.184 8.76791 18.096 9.90191 20.241C10.2349 20.871 10.6059 21.446 11.0079 21.947C5.95291 21.447 2.00391 17.182 2.00391 11.996C2.00391 6.837 5.91091 2.591 10.9269 2.053ZM13.3179 2.471C14.1709 3.141 14.6939 4.384 15.0119 5.305C15.6169 7.057 16.0039 9.421 16.0039 11.995C16.0039 14.571 15.6169 16.935 15.0119 18.686C14.6979 19.595 14.1839 20.818 13.3519 21.494L13.2139 21.378C12.6939 20.923 12.1559 20.226 11.6699 19.307C10.6999 17.471 10.0039 14.883 10.0039 11.996C10.0039 9.098 10.6619 6.509 11.6109 4.678C12.0859 3.761 12.6159 3.068 13.1379 2.618C13.1989 2.565 13.2589 2.516 13.3179 2.471Z" fill="currentColor"/>
</svg>
