<svg width="24" height="24" viewBox="0 0 24 24" fill="none" xmlns="http://www.w3.org/2000/svg">
<path d="M10.7501 2.56701C11.1301 2.34759 11.5612 2.23207 12.0001 2.23207C12.4389 2.23207 12.87 2.34759 13.2501 2.56701L19.5441 6.20001C19.9241 6.41942 20.2397 6.73501 20.4591 7.11504C20.6785 7.49508 20.794 7.92618 20.7941 8.36501V15.633C20.794 16.0718 20.6785 16.5029 20.4591 16.883C20.2397 17.263 19.9241 17.5786 19.5441 17.798L13.2501 21.432C12.87 21.6514 12.4389 21.7669 12.0001 21.7669C11.5612 21.7669 11.1301 21.6514 10.7501 21.432L4.45605 17.798C4.07602 17.5786 3.76043 17.263 3.54101 16.883C3.32159 16.5029 3.20607 16.0718 3.20605 15.633V8.36601C3.20589 7.92701 3.32133 7.4957 3.54076 7.11548C3.76019 6.73525 4.07587 6.41951 4.45605 6.20001L10.7501 2.56701Z" fill="currentColor"/>
</svg>
