<svg width="24" height="24" viewBox="0 0 24 24" fill="none" xmlns="http://www.w3.org/2000/svg">
<path d="M10.9998 2.42298C11.3039 2.24744 11.6488 2.15503 11.9998 2.15503C12.3509 2.15503 12.6958 2.24744 12.9998 2.42298L16.3298 4.34498C16.6339 4.52051 16.8863 4.77298 17.0619 5.07701C17.2374 5.38104 17.3298 5.72591 17.3298 6.07698V9.92298L20.6598 11.845C20.9639 12.0205 21.2163 12.273 21.3919 12.577C21.5674 12.881 21.6598 13.2259 21.6598 13.577V17.423C21.6598 17.774 21.5674 18.1189 21.3919 18.423C21.2163 18.727 20.9639 18.9794 20.6598 19.155L17.3298 21.077C17.0258 21.2525 16.6809 21.3449 16.3298 21.3449C15.9788 21.3449 15.6339 21.2525 15.3298 21.077L11.9998 19.155L8.66984 21.077C8.36581 21.2525 8.02092 21.3449 7.66984 21.3449C7.31877 21.3449 6.97388 21.2525 6.66984 21.077L3.33984 19.155C3.03581 18.9794 2.78334 18.727 2.60781 18.423C2.43227 18.1189 2.33985 17.774 2.33984 17.423V13.577C2.33985 13.2259 2.43227 12.881 2.60781 12.577C2.78334 12.273 3.03581 12.0205 3.33984 11.845L6.66984 9.92298V6.07698C6.66985 5.72591 6.76227 5.38104 6.93781 5.07701C7.11334 4.77298 7.36581 4.52051 7.66984 4.34498L10.9998 2.42298Z" fill="currentColor"/>
</svg>
