<svg width="24" height="24" viewBox="0 0 24 24" fill="none" xmlns="http://www.w3.org/2000/svg">
<path fill-rule="evenodd" clip-rule="evenodd" d="M12 14.026L19.865 19.433L19.949 19.683C19.996 19.8238 20.0112 19.9734 19.9932 20.1208C19.9753 20.2682 19.9247 20.4098 19.8453 20.5352C19.7658 20.6607 19.6594 20.7668 19.5337 20.846C19.4081 20.9252 19.2664 20.9754 19.119 20.993L19 21H4.99996C4.85166 21 4.7052 20.9671 4.57121 20.9035C4.43721 20.84 4.31903 20.7474 4.22522 20.6325C4.13142 20.5177 4.06433 20.3834 4.02883 20.2394C3.99333 20.0954 3.9903 19.9453 4.01996 19.8L4.05096 19.684L4.13496 19.434L12 14.026ZM16.956 10.619L16.977 10.769L18.816 16.285L13.766 12.813L16.956 10.619ZM7.04396 10.619L10.234 12.813L5.18396 16.285L7.02296 10.769L7.04396 10.619ZM15 3C15.181 2.99994 15.3586 3.04902 15.514 3.142L15.624 3.219L20.624 7.219C20.7774 7.34167 20.8913 7.5068 20.9514 7.69379C21.0116 7.88078 21.0153 8.08134 20.9622 8.27045C20.9091 8.45956 20.8015 8.62883 20.6527 8.75715C20.504 8.88547 20.3208 8.96715 20.126 8.992L20 9H15.78L12 11.599L8.21996 9H3.99996C3.80351 8.99999 3.61141 8.94212 3.44765 8.83361C3.28389 8.7251 3.15571 8.57076 3.07912 8.38985C3.00254 8.20895 2.98093 8.00949 3.017 7.81638C3.05308 7.62327 3.14523 7.44506 3.28196 7.304L3.37496 7.219L8.37496 3.219C8.51628 3.10595 8.68563 3.03337 8.86496 3.009L8.99996 3H15ZM16.347 6.358L16.44 7H17.15L16.347 6.358ZM7.65296 6.358L6.85096 7H7.56096L7.65296 6.358ZM14.133 5H9.86696L9.58196 7H14.418L14.133 5Z" fill="currentColor"/>
</svg>
