<svg width="24" height="24" viewBox="0 0 24 24" fill="none" xmlns="http://www.w3.org/2000/svg">
<path d="M2.90681 6.74999C5.80681 1.72799 12.2278 0.0069927 17.2498 2.90699C19.2396 4.05567 20.7978 5.82516 21.6855 7.94424C22.5733 10.0633 22.7417 12.4151 22.1648 14.639C21.8468 15.864 20.3548 16.209 19.5068 15.385L19.4118 15.285L17.1608 12.698C16.1578 11.546 17.1848 9.80799 18.6388 10.07L18.7718 10.1L19.2898 10.234C18.8994 8.62479 17.9874 7.19004 16.6961 6.1535C15.4047 5.11696 13.8067 4.53692 12.1511 4.50383C10.4956 4.47074 8.8756 4.98648 7.54389 5.9706C6.21217 6.95471 5.24358 8.35188 4.78918 9.9442C4.33478 11.5365 4.42011 13.2344 5.03187 14.7732C5.64363 16.3119 6.74742 17.6049 8.17109 18.4506C9.59476 19.2962 11.2583 19.6469 12.9022 19.448C14.5461 19.2491 16.0779 18.5118 17.2588 17.351C17.3993 17.2128 17.5655 17.1037 17.7482 17.0298C17.9308 16.9559 18.1262 16.9187 18.3232 16.9204C18.5202 16.922 18.7149 16.9624 18.8963 17.0393C19.0777 17.1162 19.2422 17.228 19.3803 17.3685C19.5185 17.5089 19.6276 17.6752 19.7015 17.8579C19.7754 18.0405 19.8126 18.2359 19.8109 18.4329C19.8093 18.6299 19.7689 18.8246 19.692 19.006C19.6151 19.1874 19.5033 19.3518 19.3628 19.49C16.0818 22.718 10.9328 23.508 6.74981 21.093C1.72781 18.193 0.00680959 11.773 2.90681 6.74999ZM11.9998 5.49999C12.3725 5.49999 12.7319 5.63875 13.0079 5.88924C13.2839 6.13973 13.4568 6.48401 13.4928 6.85499L13.4998 6.99999V11.379L15.5598 13.439C15.8329 13.7106 15.9911 14.0769 16.0015 14.4619C16.012 14.847 15.8739 15.2213 15.6159 15.5073C15.3579 15.7933 14.9998 15.9691 14.6157 15.9983C14.2316 16.0275 13.851 15.9078 13.5528 15.664L13.4388 15.561L10.9388 13.061C10.6936 12.8158 10.5409 12.4931 10.5068 12.148L10.4998 12V6.99999C10.4998 6.60217 10.6578 6.22064 10.9391 5.93933C11.2205 5.65803 11.602 5.49999 11.9998 5.49999Z" fill="currentColor"/>
</svg>
