<svg width="24" height="24" viewBox="0 0 24 24" fill="none" xmlns="http://www.w3.org/2000/svg">
<path d="M6.5697 5.56302C6.42918 5.67544 6.31575 5.81803 6.2378 5.98022C6.15986 6.14242 6.11938 6.32007 6.11938 6.50002C6.11938 6.67997 6.15986 6.85762 6.2378 7.01981C6.31575 7.18201 6.42918 7.32459 6.5697 7.43702L11.0497 11.021C11.8357 11.649 12.9997 11.091 12.9997 10.084V7.08302C14.1422 7.27676 15.2043 7.79684 16.0579 8.58056C16.9116 9.36427 17.5203 10.3782 17.8107 11.5H16.9997C16.6019 11.5 16.2203 11.6581 15.939 11.9394C15.6577 12.2207 15.4997 12.6022 15.4997 13C15.4997 13.3978 15.6577 13.7794 15.939 14.0607C16.2203 14.342 16.6019 14.5 16.9997 14.5H17.8107C17.5419 15.5378 17.0004 16.4847 16.2424 17.2427C15.4844 18.0007 14.5374 18.5422 13.4997 18.811V18C13.4997 17.6022 13.3417 17.2207 13.0604 16.9394C12.7791 16.6581 12.3975 16.5 11.9997 16.5C11.6019 16.5 11.2203 16.6581 10.939 16.9394C10.6577 17.2207 10.4997 17.6022 10.4997 18V18.811C9.46195 18.5422 8.51499 18.0007 7.75698 17.2427C6.99897 16.4847 6.4575 15.5378 6.1887 14.5H6.9997C7.39752 14.5 7.77905 14.342 8.06036 14.0607C8.34166 13.7794 8.4997 13.3978 8.4997 13C8.4997 12.6022 8.34166 12.2207 8.06036 11.9394C7.77905 11.6581 7.39752 11.5 6.9997 11.5H6.1887C6.1967 11.466 6.2057 11.433 6.2157 11.4C6.32178 11.0165 6.27118 10.6066 6.07502 10.2604C5.87885 9.91419 5.5532 9.6601 5.1697 9.55402C4.78619 9.44793 4.37625 9.49854 4.03006 9.6947C3.68387 9.89086 3.42978 10.2165 3.3237 10.6C2.83302 12.3742 2.89814 14.2561 3.51028 15.9921C4.12243 17.7281 5.25216 19.2346 6.74714 20.3085C8.24212 21.3825 10.0305 21.9722 11.871 21.9982C13.7116 22.0242 15.5159 21.4852 17.0406 20.4538C18.5652 19.4225 19.7371 17.9485 20.398 16.2305C21.0589 14.5124 21.1771 12.6331 20.7367 10.8458C20.2963 9.05853 19.3184 7.44926 17.935 6.235C16.5515 5.02074 14.829 4.25988 12.9997 4.05502V2.91702C12.9997 1.91102 11.8357 1.35202 11.0497 1.98002L6.5697 5.56302Z" fill="currentColor"/>
</svg>
