<svg width="24" height="24" viewBox="0 0 24 24" fill="none" xmlns="http://www.w3.org/2000/svg">
<path d="M21.0932 6.74999C23.9932 11.772 22.2722 18.194 17.2502 21.094C13.0672 23.508 7.91816 22.718 4.63716 19.49C4.35351 19.211 4.19232 18.8307 4.18903 18.4329C4.18575 18.035 4.34065 17.6521 4.61966 17.3685C4.89867 17.0848 5.27893 16.9236 5.67679 16.9204C6.07465 16.9171 6.45751 17.072 6.74116 17.351C7.92206 18.5118 9.45392 19.2491 11.0978 19.448C12.7417 19.6469 14.4052 19.2962 15.8289 18.4506C17.2526 17.6049 18.3563 16.3119 18.9681 14.7732C19.5799 13.2344 19.6652 11.5365 19.2108 9.9442C18.7564 8.35188 17.7878 6.95471 16.4561 5.9706C15.1244 4.98648 13.5044 4.47074 11.8489 4.50383C10.1933 4.53692 8.59524 5.11696 7.30391 6.1535C6.01258 7.19004 5.10058 8.62479 4.71016 10.234L5.22816 10.1C6.75016 9.70199 7.87216 11.51 6.83816 12.698L4.58816 15.285C3.76216 16.234 2.16516 15.911 1.83416 14.639C1.25757 12.4149 1.42617 10.0632 2.3141 7.94414C3.20204 5.82508 4.76033 4.05564 6.75016 2.90699C11.7732 0.0069927 18.1942 1.72799 21.0932 6.74999ZM12.0002 5.49999C12.373 5.50001 12.7326 5.63891 13.0086 5.88961C13.2846 6.14031 13.4574 6.48483 13.4932 6.85599L13.5002 6.99999V11.379L15.5602 13.439C15.8333 13.7106 15.9914 14.0769 16.0019 14.4619C16.0123 14.847 15.8743 15.2213 15.6163 15.5073C15.3583 15.7933 15.0001 15.9691 14.6161 15.9983C14.232 16.0275 13.8514 15.9078 13.5532 15.664L13.4392 15.561L10.9392 13.061C10.6939 12.8158 10.5413 12.4931 10.5072 12.148L10.5002 12V6.99999C10.5002 6.60217 10.6582 6.22064 10.9395 5.93933C11.2208 5.65803 11.6023 5.49999 12.0002 5.49999Z" fill="currentColor"/>
</svg>
