<svg width="24" height="24" viewBox="0 0 24 24" fill="none" xmlns="http://www.w3.org/2000/svg">
<path d="M5.6362 5.63601C5.08731 6.18494 4.67378 6.85414 4.42835 7.5906C4.18292 8.32705 4.11234 9.11054 4.2222 9.87901L4.6462 12.849C4.67258 13.0328 4.74959 13.2056 4.86863 13.3481C4.98766 13.4906 5.14401 13.5971 5.32016 13.6557C5.49632 13.7144 5.68532 13.7228 5.86601 13.6801C6.04669 13.6374 6.21192 13.5453 6.3432 13.414L9.1712 10.586L16.9502 18.364C17.1388 18.5462 17.3914 18.647 17.6536 18.6447C17.9158 18.6424 18.1666 18.5372 18.352 18.3518C18.5374 18.1664 18.6426 17.9156 18.6449 17.6534C18.6472 17.3912 18.5464 17.1386 18.3642 16.95L10.5862 9.17001L13.4142 6.34201C13.5455 6.21067 13.6376 6.04535 13.6803 5.86459C13.7229 5.68384 13.7144 5.49477 13.6556 5.31859C13.5969 5.14241 13.4902 4.98608 13.3476 4.86711C13.205 4.74814 13.0321 4.67123 12.8482 4.64501L9.8782 4.22101C9.10989 4.11131 8.3266 4.18197 7.59033 4.42739C6.85406 4.67281 6.18503 5.08726 5.6362 5.63601Z" fill="currentColor"/>
</svg>
