<svg width="24" height="24" viewBox="0 0 24 24" fill="none" xmlns="http://www.w3.org/2000/svg">
<path d="M13.228 2.68799C12.8769 2.41488 12.4448 2.2666 12 2.2666C11.5552 2.2666 11.1231 2.41488 10.772 2.68799L2.38798 9.20799C1.63598 9.79499 2.04998 11 3.00298 11H3.99998V19C3.99998 19.5304 4.2107 20.0391 4.58577 20.4142C4.96084 20.7893 5.46955 21 5.99998 21H9.99998V15C9.99998 14.4696 10.2107 13.9608 10.5858 13.5858C10.9608 13.2107 11.4695 13 12 13C12.5304 13 13.0391 13.2107 13.4142 13.5858C13.7893 13.9608 14 14.4696 14 15V21H18C18.5304 21 19.0391 20.7893 19.4142 20.4142C19.7893 20.0391 20 19.5304 20 19V11H20.997C21.949 11 22.365 9.79499 21.612 9.20899L13.228 2.68799Z" fill="currentColor"/>
</svg>
