<svg width="24" height="24" viewBox="0 0 24 24" fill="none" xmlns="http://www.w3.org/2000/svg">
<path fill-rule="evenodd" clip-rule="evenodd" d="M10.671 2.84301C11.0371 2.51743 11.51 2.33759 12 2.33759C12.4899 2.33759 12.9629 2.51743 13.329 2.84301L17.263 6.34001L17.513 4.83601C17.5345 4.70646 17.5814 4.58242 17.6508 4.47098C17.7203 4.35953 17.8111 4.26286 17.9179 4.18648C18.0247 4.11011 18.1456 4.05552 18.2735 4.02584C18.4014 3.99616 18.5339 3.99197 18.6635 4.01351C18.793 4.03505 18.9171 4.08189 19.0285 4.15136C19.14 4.22084 19.2366 4.31158 19.313 4.41841C19.3894 4.52525 19.444 4.64608 19.4737 4.77401C19.5033 4.90194 19.5075 5.03446 19.486 5.16401L19.03 7.91001L21.665 10.253C21.8531 10.4317 21.9644 10.6766 21.9754 10.9358C21.9863 11.1951 21.8961 11.4484 21.7237 11.6424C21.5513 11.8363 21.3102 11.9557 21.0515 11.9752C20.7927 11.9947 20.5365 11.9129 20.337 11.747L19.873 11.335L19.086 19.199C19.0366 19.6927 18.8055 20.1504 18.4376 20.4832C18.0696 20.8161 17.5911 21.0002 17.095 21H6.90499C6.40902 21 5.93075 20.8157 5.56302 20.4829C5.19529 20.1501 4.96434 19.6925 4.91499 19.199L4.12899 11.335L3.66399 11.747C3.46445 11.9129 3.20824 11.9947 2.94949 11.9752C2.69074 11.9557 2.4497 11.8363 2.27731 11.6424C2.10492 11.4484 2.01466 11.1951 2.02561 10.9358C2.03656 10.6766 2.14786 10.4317 2.33599 10.253L10.671 2.84301Z" fill="currentColor"/>
</svg>
