<svg width="24" height="24" viewBox="0 0 24 24" fill="none" xmlns="http://www.w3.org/2000/svg">
<path fill-rule="evenodd" clip-rule="evenodd" d="M13.228 2.68799C12.8769 2.41488 12.4448 2.2666 12 2.2666C11.5552 2.2666 11.1231 2.41488 10.772 2.68799L2.38798 9.20799C1.63598 9.79499 2.04998 11 3.00298 11H4.09498L4.91498 19.199C4.96433 19.6925 5.19529 20.1501 5.56302 20.4829C5.93075 20.8157 6.40901 21 6.90498 21H17.095C17.5909 21 18.0692 20.8157 18.4369 20.4829C18.8047 20.1501 19.0356 19.6925 19.085 19.199L19.905 11H20.997C21.949 11 22.365 9.79499 21.612 9.20899L13.228 2.68799ZM12 16C12.7956 16 13.5587 15.6839 14.1213 15.1213C14.6839 14.5587 15 13.7956 15 13C15 12.2043 14.6839 11.4413 14.1213 10.8787C13.5587 10.3161 12.7956 9.99999 12 9.99999C11.2043 9.99999 10.4413 10.3161 9.87866 10.8787C9.31605 11.4413 8.99998 12.2043 8.99998 13C8.99998 13.7956 9.31605 14.5587 9.87866 15.1213C10.4413 15.6839 11.2043 16 12 16Z" fill="currentColor"/>
</svg>
