<svg width="24" height="24" viewBox="0 0 24 24" fill="none" xmlns="http://www.w3.org/2000/svg">
<path fill-rule="evenodd" clip-rule="evenodd" d="M20.255 5.51999C19.924 4.43299 18.791 4.01599 17.861 4.32599L7 7.94599L5.632 7.48999C5.33133 7.38985 5.01118 7.36259 4.69791 7.41045C4.38464 7.45832 4.08723 7.57994 3.83019 7.7653C3.57315 7.95066 3.36383 8.19445 3.21949 8.47657C3.07516 8.7587 2.99992 9.07108 3 9.38799V13.613C3.00008 13.9298 3.07543 14.2421 3.21984 14.5241C3.36424 14.8061 3.57358 15.0497 3.83059 15.235C4.08761 15.4202 4.38496 15.5417 4.69815 15.5896C5.01135 15.6374 5.33141 15.6101 5.632 15.51L7 15.054L7.778 15.314L7.509 15.941C7.40006 16.1953 7.34506 16.4694 7.34746 16.746C7.34987 17.0226 7.40963 17.2957 7.52297 17.5481C7.63632 17.8004 7.80077 18.0265 8.00595 18.212C8.21113 18.3976 8.45257 18.5385 8.715 18.626L13.811 20.324C14.2868 20.4825 14.8047 20.4564 15.2622 20.251C15.7197 20.0456 16.0833 19.6758 16.281 19.215L16.681 18.282L17.861 18.675C18.791 18.985 19.924 18.567 20.255 17.48C20.58 16.416 21 14.465 21 11.5C21 8.53499 20.58 6.58399 20.255 5.51999ZM14.778 17.647L9.682 15.948L9.347 16.728L14.443 18.428L14.778 17.647Z" fill="currentColor"/>
</svg>
