<svg width="24" height="24" viewBox="0 0 24 24" fill="none" xmlns="http://www.w3.org/2000/svg">
<path d="M19.149 2.32799C19.995 1.86299 21 2.48899 21 3.42599V20.574C21 21.511 19.995 22.137 19.149 21.672C18.012 21.048 14.646 19.23 12.631 18.429C11.3815 17.9253 10.0818 17.5566 8.754 17.329L7.981 21.196C7.95526 21.3248 7.9044 21.4473 7.83132 21.5565C7.75824 21.6657 7.66437 21.7594 7.55508 21.8323C7.44578 21.9051 7.3232 21.9558 7.19433 21.9813C7.06546 22.0068 6.93283 22.0067 6.804 21.981C6.67517 21.9553 6.55268 21.9044 6.44351 21.8313C6.33434 21.7582 6.24063 21.6644 6.16774 21.5551C6.09484 21.4458 6.04419 21.3232 6.01867 21.1943C5.99315 21.0655 5.99326 20.9328 6.019 20.804L6.762 17.089C6.49258 17.0688 6.22289 17.0525 5.953 17.04C4.35 16.966 3 15.671 3 14V9.99999C3 8.32899 4.35 7.03399 5.953 6.95999C6.308 6.94299 6.657 6.92099 7 6.89199V16H7.034C7.12177 15.848 7.24801 15.7218 7.40002 15.634C7.55204 15.5462 7.72447 15.5 7.9 15.5C8.07553 15.5 8.24796 15.5462 8.39998 15.634C8.55199 15.7218 8.67823 15.848 8.766 16H9V6.62799C10.2421 6.39727 11.4582 6.04318 12.63 5.57099C14.646 4.76999 18.012 2.95099 19.149 2.32799Z" fill="currentColor"/>
</svg>
