<svg width="24" height="24" viewBox="0 0 24 24" fill="none" xmlns="http://www.w3.org/2000/svg">
<path fill-rule="evenodd" clip-rule="evenodd" d="M5 2C4.46957 2 3.96086 2.21071 3.58579 2.58579C3.21071 2.96086 3 3.46957 3 4V20.9C3 21.0445 3.02845 21.1875 3.08373 21.321C3.13901 21.4544 3.22004 21.5757 3.32218 21.6778C3.42433 21.78 3.54559 21.861 3.67905 21.9163C3.81251 21.9715 3.95555 22 4.1 22H19.9C20.0445 22 20.1875 21.9715 20.321 21.9163C20.4544 21.861 20.5757 21.78 20.6778 21.6778C20.78 21.5757 20.861 21.4544 20.9163 21.321C20.9715 21.1875 21 21.0445 21 20.9V11C21 10.4696 20.7893 9.96086 20.4142 9.58579C20.0391 9.21071 19.5304 9 19 9H18.5C18.3674 9 18.2402 9.05268 18.1464 9.14645C18.0527 9.24021 18 9.36739 18 9.5V20H17V4C17 3.46957 16.7893 2.96086 16.4142 2.58579C16.0391 2.21071 15.5304 2 15 2H5ZM10 5C9.73478 5 9.48043 5.10536 9.29289 5.29289C9.10536 5.48043 9 5.73478 9 6V7H8C7.73478 7 7.48043 7.10536 7.29289 7.29289C7.10536 7.48043 7 7.73478 7 8C7 8.26522 7.10536 8.51957 7.29289 8.70711C7.48043 8.89464 7.73478 9 8 9H9V10C9 10.2652 9.10536 10.5196 9.29289 10.7071C9.48043 10.8946 9.73478 11 10 11C10.2652 11 10.5196 10.8946 10.7071 10.7071C10.8946 10.5196 11 10.2652 11 10V9H12C12.2652 9 12.5196 8.89464 12.7071 8.70711C12.8946 8.51957 13 8.26522 13 8C13 7.73478 12.8946 7.48043 12.7071 7.29289C12.5196 7.10536 12.2652 7 12 7H11V6C11 5.73478 10.8946 5.48043 10.7071 5.29289C10.5196 5.10536 10.2652 5 10 5ZM10 14C9.46957 14 8.96086 14.2107 8.58579 14.5858C8.21071 14.9609 8 15.4696 8 16V20H12V16C12 15.4696 11.7893 14.9609 11.4142 14.5858C11.0391 14.2107 10.5304 14 10 14Z" fill="currentColor"/>
</svg>
