<svg width="24" height="24" viewBox="0 0 24 24" fill="none" xmlns="http://www.w3.org/2000/svg">
<path fill-rule="evenodd" clip-rule="evenodd" d="M17 3C17.5304 3 18.0391 3.21071 18.4142 3.58579C18.7893 3.96086 19 4.46957 19 5V6H20C20.2652 6 20.5196 6.10536 20.7071 6.29289C20.8946 6.48043 21 6.73478 21 7C21 7.26522 20.8946 7.51957 20.7071 7.70711C20.5196 7.89464 20.2652 8 20 8V19C20.2652 19 20.5196 19.1054 20.7071 19.2929C20.8946 19.4804 21 19.7348 21 20C21 20.2652 20.8946 20.5196 20.7071 20.7071C20.5196 20.8946 20.2652 21 20 21H13.5V16.5C13.5 16.1022 13.342 15.7206 13.0607 15.4393C12.7794 15.158 12.3978 15 12 15C11.6022 15 11.2206 15.158 10.9393 15.4393C10.658 15.7206 10.5 16.1022 10.5 16.5V21H4C3.73478 21 3.48043 20.8946 3.29289 20.7071C3.10536 20.5196 3 20.2652 3 20C3 19.7348 3.10536 19.4804 3.29289 19.2929C3.48043 19.1054 3.73478 19 4 19V8C3.73478 8 3.48043 7.89464 3.29289 7.70711C3.10536 7.51957 3 7.26522 3 7C3 6.73478 3.10536 6.48043 3.29289 6.29289C3.48043 6.10536 3.73478 6 4 6H5V5C5 4.46957 5.21071 3.96086 5.58579 3.58579C5.96086 3.21071 6.46957 3 7 3H17ZM8 13C7.73478 13 7.48043 13.1054 7.29289 13.2929C7.10536 13.4804 7 13.7348 7 14V15C7 15.2652 7.10536 15.5196 7.29289 15.7071C7.48043 15.8946 7.73478 16 8 16C8.26522 16 8.51957 15.8946 8.70711 15.7071C8.89464 15.5196 9 15.2652 9 15V14C9 13.7348 8.89464 13.4804 8.70711 13.2929C8.51957 13.1054 8.26522 13 8 13ZM16 13C15.7551 13 15.5187 13.09 15.3356 13.2527C15.1526 13.4155 15.0357 13.6397 15.007 13.883L15 14V15C15.0003 15.2549 15.0979 15.5 15.2728 15.6854C15.4478 15.8707 15.687 15.9822 15.9414 15.9972C16.1958 16.0121 16.4464 15.9293 16.6418 15.7657C16.8373 15.6021 16.9629 15.3701 16.993 15.117L17 15V14C17 13.7348 16.8946 13.4804 16.7071 13.2929C16.5196 13.1054 16.2652 13 16 13ZM8 9C7.75507 9.00003 7.51866 9.08996 7.33563 9.25272C7.15259 9.41547 7.03566 9.63975 7.007 9.883L7 10V11C7.00028 11.2549 7.09788 11.5 7.27285 11.6854C7.44782 11.8707 7.68695 11.9822 7.94139 11.9972C8.19584 12.0121 8.44638 11.9293 8.64183 11.7657C8.83729 11.6021 8.9629 11.3701 8.993 11.117L9 11V10C9 9.73478 8.89464 9.48043 8.70711 9.29289C8.51957 9.10536 8.26522 9 8 9ZM12 9C11.7551 9.00003 11.5187 9.08996 11.3356 9.25272C11.1526 9.41547 11.0357 9.63975 11.007 9.883L11 10V11C11.0003 11.2549 11.0979 11.5 11.2728 11.6854C11.4478 11.8707 11.687 11.9822 11.9414 11.9972C12.1958 12.0121 12.4464 11.9293 12.6418 11.7657C12.8373 11.6021 12.9629 11.3701 12.993 11.117L13 11V10C13 9.73478 12.8946 9.48043 12.7071 9.29289C12.5196 9.10536 12.2652 9 12 9ZM16 9C15.7348 9 15.4804 9.10536 15.2929 9.29289C15.1054 9.48043 15 9.73478 15 10V11C15 11.2652 15.1054 11.5196 15.2929 11.7071C15.4804 11.8946 15.7348 12 16 12C16.2652 12 16.5196 11.8946 16.7071 11.7071C16.8946 11.5196 17 11.2652 17 11V10C17 9.73478 16.8946 9.48043 16.7071 9.29289C16.5196 9.10536 16.2652 9 16 9ZM17 5H7V6H17V5Z" fill="currentColor"/>
</svg>
