<svg width="24" height="24" viewBox="0 0 24 24" fill="none" xmlns="http://www.w3.org/2000/svg">
<path d="M18 3C18.7956 3 19.5587 3.31607 20.1213 3.87868C20.6839 4.44129 21 5.20435 21 6V18C21 18.7956 20.6839 19.5587 20.1213 20.1213C19.5587 20.6839 18.7956 21 18 21H6C5.20435 21 4.44129 20.6839 3.87868 20.1213C3.31607 19.5587 3 18.7956 3 18V6C3 5.20435 3.31607 4.44129 3.87868 3.87868C4.44129 3.31607 5.20435 3 6 3H18ZM15.293 16.708C14.8893 16.9008 14.4474 17.0006 14 17H5V18C5 18.2652 5.10536 18.5196 5.29289 18.7071C5.48043 18.8946 5.73478 19 6 19H17.586L15.293 16.708ZM18 5H17V14C17 14.463 16.895 14.902 16.708 15.293L19 17.586V6C19 5.73478 18.8946 5.48043 18.7071 5.29289C18.5196 5.10536 18.2652 5 18 5ZM9 7C8.73478 7 8.48043 7.10536 8.29289 7.29289C8.10536 7.48043 8 7.73478 8 8V12C8 12.2652 8.10536 12.5196 8.29289 12.7071C8.48043 12.8946 8.73478 13 9 13C9.26522 13 9.51957 12.8946 9.70711 12.7071C9.89464 12.5196 10 12.2652 10 12V11.868L11.445 12.832C11.6657 12.9792 11.9358 13.0327 12.1959 12.9808C12.456 12.9288 12.6848 12.7757 12.832 12.555C12.9792 12.3343 13.0327 12.0642 12.9808 11.8041C12.9288 11.544 12.7757 11.3152 12.555 11.168L11.178 10.25L12.555 9.332C12.7757 9.1848 12.9288 8.95598 12.9808 8.69587C13.0327 8.43576 12.9792 8.16566 12.832 7.945C12.6848 7.72434 12.456 7.57119 12.1959 7.51924C11.9358 7.4673 11.6657 7.5208 11.445 7.668L10 8.63V8C10 7.73478 9.89464 7.48043 9.70711 7.29289C9.51957 7.10536 9.26522 7 9 7Z" fill="currentColor"/>
</svg>
