<svg width="24" height="24" viewBox="0 0 24 24" fill="none" xmlns="http://www.w3.org/2000/svg">
<path fill-rule="evenodd" clip-rule="evenodd" d="M17.0298 14.758C17.0917 14.5105 17.2458 14.296 17.4606 14.1584C17.6754 14.0208 17.9346 13.9705 18.1853 14.0177C18.436 14.065 18.6591 14.2063 18.8091 14.4127C18.959 14.6191 19.0244 14.875 18.9918 15.128L18.9698 15.243L18.2798 18H18.9998V17C19.0004 16.7452 19.0981 16.5002 19.2732 16.3151C19.4482 16.1299 19.6874 16.0186 19.9417 16.0038C20.1961 15.989 20.4465 16.0718 20.6419 16.2354C20.8372 16.399 20.9627 16.631 20.9928 16.884L20.9998 17V18C21.2547 18.0003 21.4999 18.0979 21.6852 18.2729C21.8705 18.4478 21.9821 18.687 21.997 18.9414C22.0119 19.1958 21.9292 19.4464 21.7656 19.6418C21.602 19.8373 21.3699 19.9629 21.1168 19.993L20.9998 20V21C20.9996 21.2549 20.902 21.5 20.727 21.6854C20.552 21.8707 20.3129 21.9822 20.0584 21.9972C19.804 22.0121 19.5535 21.9293 19.358 21.7657C19.1625 21.6021 19.0369 21.3701 19.0068 21.117L18.9998 21V20H16.9998C16.859 19.9999 16.7198 19.9701 16.5913 19.9125C16.4629 19.8549 16.348 19.7708 16.2542 19.6657C16.1605 19.5607 16.09 19.437 16.0474 19.3028C16.0047 19.1686 15.9909 19.0269 16.0068 18.887L16.0298 18.757L17.0298 14.758ZM13.4998 14C14.1629 14 14.7988 14.2634 15.2676 14.7322C15.7364 15.2011 15.9998 15.837 15.9998 16.5V16.825C15.9998 17.5 15.7588 18.152 15.3198 18.664L14.1738 20H14.9998C15.2651 20 15.5194 20.1054 15.7069 20.2929C15.8945 20.4804 15.9998 20.7348 15.9998 21C15.9998 21.2652 15.8945 21.5196 15.7069 21.7071C15.5194 21.8946 15.2651 22 14.9998 22H11.9998C11.8087 22 11.6215 21.9452 11.4605 21.8421C11.2995 21.7391 11.1715 21.592 11.0915 21.4184C11.0115 21.2447 10.983 21.0518 11.0093 20.8625C11.0356 20.6731 11.1156 20.4953 11.2398 20.35L13.8008 17.362C13.9292 17.2125 13.9998 17.022 13.9998 16.825V16.5C13.9998 16.3674 13.9472 16.2402 13.8534 16.1465C13.7596 16.0527 13.6324 16 13.4998 16C13.3672 16 13.2401 16.0527 13.1463 16.1465C13.0525 16.2402 12.9998 16.3674 12.9998 16.5C12.9998 16.7652 12.8945 17.0196 12.7069 17.2071C12.5194 17.3946 12.2651 17.5 11.9998 17.5C11.7346 17.5 11.4803 17.3946 11.2927 17.2071C11.1052 17.0196 10.9998 16.7652 10.9998 16.5C10.9998 15.837 11.2632 15.2011 11.7321 14.7322C12.2009 14.2634 12.8368 14 13.4998 14ZM11.9998 3C13.3443 2.99976 14.6717 3.30073 15.8846 3.88081C17.0975 4.46088 18.165 5.30533 19.0087 6.3521C19.8524 7.39887 20.4509 8.62137 20.7602 9.92978C21.0694 11.2382 21.0816 12.5993 20.7958 13.913C20.6223 13.4658 20.3438 13.0668 19.984 12.7495C19.6241 12.4323 19.1933 12.2061 18.7278 12.09C18.2536 11.9713 17.7575 11.9702 17.2827 12.087C16.8079 12.2038 16.3689 12.4348 16.0038 12.76C15.3263 12.3063 14.5383 12.0452 13.7239 12.0046C12.9096 11.964 12.0995 12.1454 11.3802 12.5295C10.6609 12.9135 10.0595 13.4858 9.64027 14.1852C9.22102 14.8845 8.99965 15.6846 8.99984 16.5C8.99984 17.386 9.38384 18.182 9.99384 18.73L9.72184 19.048C9.36706 19.4621 9.13196 19.9652 9.04184 20.503C7.03096 19.8055 5.33236 18.4179 4.24766 16.5866C3.16297 14.7554 2.76239 12.5989 3.11706 10.5003C3.47174 8.40162 4.5587 6.49658 6.18494 5.12345C7.81117 3.75032 9.87143 2.99797 11.9998 3ZM10.9998 6C10.7346 6 10.4803 6.10536 10.2927 6.2929C10.1052 6.48043 9.99984 6.73479 9.99984 7V10H8.99984C8.73462 10 8.48027 10.1054 8.29273 10.2929C8.10519 10.4804 7.99984 10.7348 7.99984 11C7.99984 11.2652 8.10519 11.5196 8.29273 11.7071C8.48027 11.8946 8.73462 12 8.99984 12H10.9998C11.2651 12 11.5194 11.8946 11.7069 11.7071C11.8945 11.5196 11.9998 11.2652 11.9998 11V7C11.9998 6.73479 11.8945 6.48043 11.7069 6.2929C11.5194 6.10536 11.2651 6 10.9998 6Z" fill="currentColor"/>
</svg>
