<svg width="24" height="24" viewBox="0 0 24 24" fill="none" xmlns="http://www.w3.org/2000/svg">
<path fill-rule="evenodd" clip-rule="evenodd" d="M16.775 3.02599C17.0237 2.96826 17.285 3.00785 17.5055 3.13664C17.7259 3.26542 17.8888 3.47364 17.9606 3.71863C18.0325 3.96362 18.0079 4.22682 17.892 4.45427C17.776 4.68173 17.5775 4.85622 17.337 4.94199L17.225 4.97399L15 5.48799V9.99999H19C19.5046 9.99983 19.9906 10.1904 20.3605 10.5335C20.7305 10.8766 20.9571 11.3468 20.995 11.85L21 12V19C21.0001 19.5046 20.8096 19.9906 20.4665 20.3605C20.1234 20.7305 19.6531 20.9571 19.15 20.995L19 21H5.99999C5.49541 21.0001 5.00942 20.8096 4.63944 20.4665C4.26946 20.1234 4.04283 19.6531 4.00499 19.15L3.99999 19V7.99999C3.76418 8.00031 3.53584 7.9173 3.3553 7.76561C3.17477 7.61391 3.05364 7.4033 3.01332 7.17096C2.97301 6.93863 3.01609 6.69952 3.13496 6.49587C3.25384 6.29222 3.44086 6.13713 3.66299 6.05799L3.77499 6.02599L16.775 3.02599ZM15 14H14C13.7551 14 13.5187 14.0899 13.3356 14.2527C13.1526 14.4155 13.0356 14.6397 13.007 14.883L13 15V19H16V15C16 14.7551 15.91 14.5186 15.7473 14.3356C15.5845 14.1526 15.3602 14.0356 15.117 14.007L15 14ZM7.99999 7.10299L5.99999 7.56499V19H7.99999V7.10299ZM13 5.94899L9.99999 6.64199V9.99999H13V5.94899Z" fill="currentColor"/>
</svg>
