<svg width="24" height="24" viewBox="0 0 24 24" fill="none" xmlns="http://www.w3.org/2000/svg">
<path fill-rule="evenodd" clip-rule="evenodd" d="M11.5002 4.71901C12.5153 3.69878 13.8899 3.1171 15.329 3.09877C16.7681 3.08045 18.1571 3.62694 19.1979 4.621C20.2386 5.61505 20.8483 6.97745 20.896 8.41588C20.9438 9.8543 20.4258 11.2541 19.4532 12.315L19.2792 12.497L12.5622 19.215C12.2081 19.5691 11.7341 19.7775 11.2338 19.799C10.7335 19.8204 10.2434 19.6534 9.86022 19.331L9.73322 19.215L7.96522 17.447L5.84522 19.568C5.66568 19.7493 5.42365 19.855 5.16868 19.8637C4.9137 19.8723 4.66506 19.7832 4.47364 19.6145C4.28223 19.4459 4.16252 19.2104 4.13902 18.9564C4.11552 18.7024 4.19 18.4489 4.34722 18.248L4.43022 18.154L6.55122 16.032L4.78322 14.265C4.42942 13.911 4.22122 13.4371 4.19975 12.9371C4.17827 12.437 4.34507 11.9471 4.66722 11.564L4.78322 11.436L11.5012 4.71901H11.5002ZM15.3902 9.31501L11.1472 13.558C10.9597 13.7457 10.8544 14.0001 10.8545 14.2654C10.8546 14.5306 10.9601 14.785 11.1477 14.9725C11.3354 15.16 11.5898 15.2653 11.8551 15.2652C12.1203 15.2651 12.3747 15.1597 12.5622 14.972L16.8042 10.729C16.9864 10.5404 17.0872 10.2878 17.0849 10.0256C17.0826 9.76342 16.9775 9.5126 16.792 9.3272C16.6066 9.14179 16.3558 9.03662 16.0936 9.03434C15.8314 9.03206 15.5788 9.13286 15.3902 9.31501ZM14.6832 7.19401C14.5112 7.02169 14.2821 6.91807 14.0391 6.90261C13.7961 6.88714 13.5557 6.96089 13.3632 7.11001L13.2692 7.19401L9.02622 11.436C8.84497 11.6156 8.73919 11.8576 8.73054 12.1126C8.72189 12.3675 8.81102 12.6162 8.97969 12.8076C9.14836 12.999 9.38381 13.1187 9.63785 13.1422C9.89189 13.1657 10.1453 13.0912 10.3462 12.934L10.4402 12.851L14.6832 8.60801C14.8707 8.42049 14.976 8.16618 14.976 7.90101C14.976 7.63585 14.8707 7.38154 14.6832 7.19401Z" fill="currentColor"/>
</svg>
