<svg width="24" height="24" viewBox="0 0 24 24" fill="none" xmlns="http://www.w3.org/2000/svg">
<path fill-rule="evenodd" clip-rule="evenodd" d="M11.9999 2C10.9998 1.99979 10.0225 2.29956 9.19443 2.86057C8.36639 3.42157 7.72562 4.21803 7.35495 5.147C6.28639 5.42829 5.35859 6.09274 4.74822 7.01383C4.13786 7.93491 3.88754 9.0483 4.04495 10.142C4.07695 10.361 4.19395 10.602 4.30495 10.794L10.2719 21.024C11.0439 22.346 12.9559 22.346 13.7279 21.024L19.6949 10.794C19.8059 10.602 19.9229 10.36 19.9549 10.142C20.1124 9.0483 19.862 7.93491 19.2517 7.01383C18.6413 6.09274 17.7135 5.42829 16.6449 5.147C16.2743 4.21803 15.6335 3.42157 14.8055 2.86057C13.9774 2.29956 13.0001 1.99979 11.9999 2ZM11.9999 4C11.0439 4 10.1899 4.448 9.64095 5.146C10.5829 5.392 11.4049 5.936 11.9999 6.671C12.6035 5.92408 13.4301 5.38973 14.3589 5.146C14.0784 4.7886 13.7202 4.49971 13.3115 4.30116C12.9028 4.10262 12.4543 3.99963 11.9999 4ZM17.9949 9.347C17.9539 8.69937 17.6627 8.09305 17.1828 7.65622C16.703 7.21938 16.072 6.98626 15.4234 7.00613C14.7748 7.026 14.1593 7.2973 13.707 7.76268C13.2548 8.22807 13.0012 8.85107 12.9999 9.5V10.467C14.7125 10.3516 16.3971 9.97384 17.9949 9.347ZM10.9999 10.467V9.5C10.9987 8.85107 10.7451 8.22807 10.2929 7.76268C9.84061 7.2973 9.22512 7.026 8.57649 7.00613C7.92787 6.98626 7.29693 7.21938 6.81705 7.65622C6.33717 8.09305 6.04595 8.69937 6.00495 9.347C6.88895 9.7 8.72095 10.319 10.9999 10.467Z" fill="currentColor"/>
</svg>
