<svg width="24" height="24" viewBox="0 0 24 24" fill="none" xmlns="http://www.w3.org/2000/svg">
<path fill-rule="evenodd" clip-rule="evenodd" d="M20 4C20.5304 4 21.0391 4.21071 21.4142 4.58579C21.7893 4.96086 22 5.46957 22 6V18C22 18.5304 21.7893 19.0391 21.4142 19.4142C21.0391 19.7893 20.5304 20 20 20H4C3.46957 20 2.96086 19.7893 2.58579 19.4142C2.21071 19.0391 2 18.5304 2 18V6C2 5.46957 2.21071 4.96086 2.58579 4.58579C2.96086 4.21071 3.46957 4 4 4H20ZM9.5 12H7.5C6.86528 11.9999 6.25429 12.2412 5.79095 12.675C5.32762 13.1088 5.04664 13.7026 5.005 14.336L5 14.5V15C5.00028 15.2549 5.09788 15.5 5.27285 15.6854C5.44782 15.8707 5.68695 15.9822 5.94139 15.9972C6.19584 16.0121 6.44638 15.9293 6.64183 15.7657C6.83729 15.6021 6.9629 15.3701 6.993 15.117L7 15V14.5C6.99996 14.383 7.04097 14.2696 7.11589 14.1797C7.19081 14.0898 7.29489 14.0291 7.41 14.008L7.5 14H9.5C9.61703 14 9.73036 14.041 9.82026 14.1159C9.91016 14.1908 9.97093 14.2949 9.992 14.41L10 14.5V15C10.0003 15.2549 10.0979 15.5 10.2728 15.6854C10.4478 15.8707 10.687 15.9822 10.9414 15.9972C11.1958 16.0121 11.4464 15.9293 11.6418 15.7657C11.8373 15.6021 11.9629 15.3701 11.993 15.117L12 15V14.5C12.0001 13.8653 11.7588 13.2543 11.325 12.791C10.8912 12.3276 10.2974 12.0466 9.664 12.005L9.5 12ZM18 13H14L13.883 13.007C13.64 13.0359 13.4159 13.153 13.2534 13.336C13.0909 13.519 13.0011 13.7552 13.0011 14C13.0011 14.2448 13.0909 14.481 13.2534 14.664C13.4159 14.847 13.64 14.9641 13.883 14.993L14 15H18L18.117 14.993C18.3601 14.9641 18.5841 14.847 18.7466 14.664C18.9091 14.481 18.9989 14.2448 18.9989 14C18.9989 13.7552 18.9091 13.519 18.7466 13.336C18.5841 13.153 18.3601 13.0359 18.117 13.007L18 13ZM16 10H14C13.7451 10.0003 13.5 10.0979 13.3146 10.2728C13.1293 10.4478 13.0178 10.687 13.0028 10.9414C12.9879 11.1958 13.0707 11.4464 13.2343 11.6418C13.3979 11.8373 13.6299 11.9629 13.883 11.993L14 12H16C16.2549 11.9997 16.5 11.9021 16.6854 11.7272C16.8707 11.5522 16.9822 11.313 16.9972 11.0586C17.0121 10.8042 16.9293 10.5536 16.7657 10.3582C16.6021 10.1627 16.3701 10.0371 16.117 10.007L16 10ZM8.5 8C8.03587 8 7.59075 8.18437 7.26256 8.51256C6.93437 8.84075 6.75 9.28587 6.75 9.75C6.75 10.2141 6.93437 10.6592 7.26256 10.9874C7.59075 11.3156 8.03587 11.5 8.5 11.5C8.96413 11.5 9.40925 11.3156 9.73744 10.9874C10.0656 10.6592 10.25 10.2141 10.25 9.75C10.25 9.28587 10.0656 8.84075 9.73744 8.51256C9.40925 8.18437 8.96413 8 8.5 8Z" fill="currentColor"/>
</svg>
