<svg width="24" height="24" viewBox="0 0 24 24" fill="none" xmlns="http://www.w3.org/2000/svg">
<path fill-rule="evenodd" clip-rule="evenodd" d="M5 3C4.46957 3 3.96086 3.21071 3.58579 3.58579C3.21071 3.96086 3 4.46957 3 5V15C3 15.5304 3.21071 16.0391 3.58579 16.4142C3.96086 16.7893 4.46957 17 5 17H9.968C9.854 18.634 9.478 19.123 9.421 19.188C8.975 19.532 8.997 20.048 9.081 20.304C9.168 20.566 9.463 21 10.042 21H13.958C14.537 21 14.832 20.566 14.918 20.304C15.003 20.048 15.025 19.532 14.579 19.188C14.521 19.123 14.146 18.635 14.032 17H19C19.5304 17 20.0391 16.7893 20.4142 16.4142C20.7893 16.0391 21 15.5304 21 15V5C21 4.46957 20.7893 3.96086 20.4142 3.58579C20.0391 3.21071 19.5304 3 19 3H5ZM5 15V13H19V15H5Z" fill="currentColor"/>
</svg>
