<svg width="24" height="24" viewBox="0 0 24 24" fill="none" xmlns="http://www.w3.org/2000/svg">
<path d="M20 17.5C20.3852 17.5002 20.7556 17.6486 21.0344 17.9144C21.3132 18.1802 21.479 18.5431 21.4975 18.9279C21.516 19.3127 21.3858 19.6898 21.1338 19.9812C20.8818 20.2726 20.5274 20.4558 20.144 20.493L20 20.5H4C3.61478 20.4998 3.24441 20.3514 2.96561 20.0856C2.68682 19.8198 2.52099 19.4569 2.50248 19.0721C2.48396 18.6873 2.61419 18.3102 2.86618 18.0188C3.11816 17.7274 3.47258 17.5442 3.856 17.507L4 17.5H20ZM20 12.5C20.3978 12.5 20.7794 12.658 21.0607 12.9393C21.342 13.2206 21.5 13.6022 21.5 14C21.5 14.3978 21.342 14.7794 21.0607 15.0607C20.7794 15.342 20.3978 15.5 20 15.5H11C10.6022 15.5 10.2206 15.342 9.93934 15.0607C9.65804 14.7794 9.5 14.3978 9.5 14C9.5 13.6022 9.65804 13.2206 9.93934 12.9393C10.2206 12.658 10.6022 12.5 11 12.5H20ZM7.065 9.173C7.322 9.041 7.621 9.236 7.648 9.553L7.69 10.118L7.716 10.582L7.736 11.109L7.742 11.395L7.748 12.008L7.743 12.588L7.729 13.118L7.708 13.594L7.669 14.199L7.643 14.523C7.616 14.82 7.344 14.984 7.091 14.855L6.801 14.705L6.456 14.515L6.058 14.287C5.98509 14.245 5.91275 14.202 5.841 14.158L5.374 13.87L5.125 13.71C4.956 13.601 4.795 13.494 4.644 13.39L4.214 13.09L3.84 12.816L3.383 12.466C3.34219 12.4332 3.30152 12.4002 3.261 12.367C3.035 12.185 3.025 11.838 3.241 11.664L3.501 11.456L3.824 11.21L4.203 10.932L4.637 10.627C4.791 10.522 4.954 10.414 5.124 10.303L5.367 10.147L5.824 9.865L6.24 9.621L6.609 9.414L7.065 9.173ZM20 7.5C20.3978 7.5 20.7794 7.65804 21.0607 7.93934C21.342 8.22064 21.5 8.60218 21.5 9C21.5 9.39782 21.342 9.77936 21.0607 10.0607C20.7794 10.342 20.3978 10.5 20 10.5H11C10.6022 10.5 10.2206 10.342 9.93934 10.0607C9.65804 9.77936 9.5 9.39782 9.5 9C9.5 8.60218 9.65804 8.22064 9.93934 7.93934C10.2206 7.65804 10.6022 7.5 11 7.5H20ZM20 2.5C20.3978 2.5 20.7794 2.65804 21.0607 2.93934C21.342 3.22064 21.5 3.60218 21.5 4C21.5 4.39782 21.342 4.77936 21.0607 5.06066C20.7794 5.34196 20.3978 5.5 20 5.5H4C3.60218 5.5 3.22064 5.34196 2.93934 5.06066C2.65804 4.77936 2.5 4.39782 2.5 4C2.5 3.60218 2.65804 3.22064 2.93934 2.93934C3.22064 2.65804 3.60218 2.5 4 2.5H20Z" fill="currentColor"/>
</svg>
