<svg width="24" height="24" viewBox="0 0 24 24" fill="none" xmlns="http://www.w3.org/2000/svg">
<path fill-rule="evenodd" clip-rule="evenodd" d="M15.8904 3.161C16.0779 2.97383 16.332 2.86871 16.5969 2.86871C16.8618 2.86871 17.1159 2.97383 17.3034 3.161L20.1254 5.983L20.1324 5.989L20.1384 5.996L20.8384 6.696C21.0207 6.88447 21.1217 7.13701 21.1196 7.39921C21.1175 7.66141 21.0125 7.9123 20.8272 8.09784C20.6419 8.28338 20.3912 8.38872 20.129 8.39119C19.8668 8.39365 19.6141 8.29303 19.4254 8.111L18.0104 9.525L19.7784 11.293C19.9605 11.4816 20.0613 11.7342 20.0591 11.9964C20.0568 12.2586 19.9516 12.5094 19.7662 12.6948C19.5808 12.8802 19.33 12.9854 19.0678 12.9877C18.8056 12.99 18.553 12.8892 18.3644 12.707L17.6574 12L12.0004 17.657C11.7218 17.9356 11.3911 18.1567 11.0271 18.3074C10.663 18.4582 10.2729 18.5359 9.87889 18.5359C9.48488 18.5359 9.09473 18.4582 8.73072 18.3074C8.36671 18.1567 8.03597 17.9356 7.75739 17.657L4.63739 20.778C4.44988 20.9656 4.19551 21.0711 3.93024 21.0712C3.66497 21.0713 3.41053 20.966 3.22289 20.7785C3.03525 20.591 2.92978 20.3366 2.92969 20.0714C2.92959 19.8061 3.03488 19.5516 3.22239 19.364L6.34339 16.242C5.78098 15.6794 5.46503 14.9165 5.46503 14.121C5.46503 13.3255 5.78098 12.5626 6.34339 12L12.0004 6.343L11.2934 5.636C11.1112 5.4474 11.0104 5.1948 11.0127 4.9326C11.015 4.6704 11.1202 4.41959 11.3056 4.23418C11.491 4.04877 11.7418 3.9436 12.004 3.94133C12.2662 3.93905 12.5188 4.03984 12.7074 4.222L14.4754 5.989L15.8894 4.575C15.7019 4.38747 15.5966 4.13316 15.5966 3.868C15.5966 3.60284 15.7019 3.34853 15.8894 3.161M18.0094 6.697L16.5964 8.11L15.8894 7.403L17.3034 5.989L18.0094 6.697ZM9.17139 13.414L8.46439 12.707L9.87839 11.293L10.5854 12C10.7675 12.1886 10.8683 12.4412 10.8661 12.7034C10.8638 12.9656 10.7586 13.2164 10.5732 13.4018C10.3878 13.5872 10.137 13.6924 9.87479 13.6947C9.61259 13.697 9.35999 13.5962 9.17139 13.414ZM11.2914 11.293L10.5854 10.586L12.0004 9.172L12.7074 9.879C12.8029 9.97125 12.8791 10.0816 12.9315 10.2036C12.9839 10.3256 13.0115 10.4568 13.0126 10.5896C13.0138 10.7224 12.9885 10.8541 12.9382 10.977C12.8879 11.0999 12.8137 11.2115 12.7198 11.3054C12.6259 11.3993 12.5142 11.4735 12.3913 11.5238C12.2684 11.5741 12.1368 11.5994 12.004 11.5983C11.8712 11.5971 11.74 11.5695 11.618 11.5171C11.496 11.4647 11.3856 11.3885 11.2934 11.293" fill="currentColor"/>
</svg>
