<svg width="24" height="24" viewBox="0 0 24 24" fill="none" xmlns="http://www.w3.org/2000/svg">
<path d="M16 3C17.3261 3 18.5979 3.52678 19.5355 4.46447C20.4732 5.40215 21 6.67392 21 8V16C21 17.3261 20.4732 18.5979 19.5355 19.5355C18.5979 20.4732 17.3261 21 16 21H8C6.67392 21 5.40215 20.4732 4.46447 19.5355C3.52678 18.5979 3 17.3261 3 16V8C3 6.67392 3.52678 5.40215 4.46447 4.46447C5.40215 3.52678 6.67392 3 8 3H16ZM12 8C10.9391 8 9.92172 8.42143 9.17157 9.17157C8.42143 9.92172 8 10.9391 8 12C8 13.0609 8.42143 14.0783 9.17157 14.8284C9.92172 15.5786 10.9391 16 12 16C13.0609 16 14.0783 15.5786 14.8284 14.8284C15.5786 14.0783 16 13.0609 16 12C16 10.9391 15.5786 9.92172 14.8284 9.17157C14.0783 8.42143 13.0609 8 12 8ZM12 10C12.5304 10 13.0391 10.2107 13.4142 10.5858C13.7893 10.9609 14 11.4696 14 12C14 12.5304 13.7893 13.0391 13.4142 13.4142C13.0391 13.7893 12.5304 14 12 14C11.4696 14 10.9609 13.7893 10.5858 13.4142C10.2107 13.0391 10 12.5304 10 12C10 11.4696 10.2107 10.9609 10.5858 10.5858C10.9609 10.2107 11.4696 10 12 10ZM16.5 6.5C16.2348 6.5 15.9804 6.60536 15.7929 6.79289C15.6054 6.98043 15.5 7.23478 15.5 7.5C15.5 7.76522 15.6054 8.01957 15.7929 8.20711C15.9804 8.39464 16.2348 8.5 16.5 8.5C16.7652 8.5 17.0196 8.39464 17.2071 8.20711C17.3946 8.01957 17.5 7.76522 17.5 7.5C17.5 7.23478 17.3946 6.98043 17.2071 6.79289C17.0196 6.60536 16.7652 6.5 16.5 6.5Z" fill="currentColor"/>
</svg>
