<svg width="24" height="24" viewBox="0 0 24 24" fill="none" xmlns="http://www.w3.org/2000/svg">
<path d="M10.611 10.611C10.7535 10.4685 10.9358 10.3724 11.1338 10.3353C11.3319 10.2982 11.5366 10.3218 11.721 10.403L20.56 14.292C20.7492 14.3753 20.9079 14.5152 21.0143 14.6923C21.1207 14.8695 21.1696 15.0753 21.1542 15.2815C21.1389 15.4876 21.0601 15.6839 20.9286 15.8434C20.7971 16.0028 20.6194 16.1176 20.42 16.172L17.633 16.932C17.4652 16.9779 17.3122 17.0668 17.1893 17.1899C17.0664 17.3131 16.9777 17.4661 16.932 17.634L16.172 20.42C16.1176 20.6194 16.0028 20.7971 15.8434 20.9286C15.6839 21.0601 15.4876 21.1389 15.2815 21.1542C15.0753 21.1696 14.8695 21.1207 14.6923 21.0143C14.5152 20.9079 14.3753 20.7492 14.292 20.56L10.402 11.72C10.3211 11.5356 10.2978 11.3311 10.3351 11.1332C10.3724 10.9353 10.4686 10.7533 10.611 10.611ZM17 3C17.7956 3 18.5587 3.31607 19.1213 3.87868C19.6839 4.44129 20 5.20435 20 6V11.86L12.526 8.572C11.9727 8.32863 11.3588 8.25806 10.7648 8.36954C10.1707 8.48102 9.62415 8.76935 9.19675 9.19675C8.76935 9.62415 8.48102 10.1707 8.36954 10.7648C8.25806 11.3588 8.32863 11.9727 8.572 12.526L11.861 20H6C5.20435 20 4.44129 19.6839 3.87868 19.1213C3.31607 18.5587 3 17.7956 3 17V6C3 5.20435 3.31607 4.44129 3.87868 3.87868C4.44129 3.31607 5.20435 3 6 3H17ZM19.62 18.463C19.3484 18.948 18.948 19.3484 18.463 19.62L18.711 18.71L19.62 18.463Z" fill="currentColor"/>
</svg>
