<svg width="24" height="24" viewBox="0 0 24 24" fill="none" xmlns="http://www.w3.org/2000/svg">
<path d="M18 3C18.7956 3 19.5587 3.31607 20.1213 3.87868C20.6839 4.44129 21 5.20435 21 6V18C21 18.7956 20.6839 19.5587 20.1213 20.1213C19.5587 20.6839 18.7956 21 18 21H6C5.20435 21 4.44129 20.6839 3.87868 20.1213C3.31607 19.5587 3 18.7956 3 18V6C3 5.20435 3.31607 4.44129 3.87868 3.87868C4.44129 3.31607 5.20435 3 6 3H18ZM12 6C9.92 6 8.284 6.448 7.372 6.77C6.425 7.106 5.995 8.073 6.169 8.945L6.891 12.555C7.087 13.532 8.123 14.005 8.97 13.667C9.615 13.409 10.669 13.063 11.718 13.007L12.018 13C13.152 13.004 14.331 13.388 15.03 13.667C15.877 14.005 16.913 13.532 17.109 12.554L17.831 8.945C18.005 8.073 17.575 7.106 16.628 6.771C15.1396 6.25592 13.575 5.99527 12 6ZM12 8C13.604 8 14.897 8.309 15.693 8.566L15.856 8.62L15.256 11.617C14.7998 11.4559 14.3343 11.3223 13.862 11.217L13.542 11.152L13.894 10.447C14.0072 10.219 14.0292 9.95636 13.9555 9.71268C13.8818 9.469 13.7179 9.26261 13.4973 9.13558C13.2767 9.00856 13.0159 8.97047 12.7681 9.02908C12.5204 9.08769 12.3043 9.23858 12.164 9.451L12.106 9.553L11.368 11.027C10.478 11.102 9.637 11.32 8.98 11.536L8.743 11.616L8.143 8.62C9.3866 8.20579 10.6892 7.99639 12 8Z" fill="currentColor"/>
</svg>
