<svg width="24" height="24" viewBox="0 0 24 24" fill="none" xmlns="http://www.w3.org/2000/svg">
<path d="M9 15V14H10V15H9Z" fill="currentColor"/>
<path fill-rule="evenodd" clip-rule="evenodd" d="M18 2C18.5304 2 19.0391 2.21071 19.4142 2.58579C19.7893 2.96086 20 3.46957 20 4V20C20 20.5304 19.7893 21.0391 19.4142 21.4142C19.0391 21.7893 18.5304 22 18 22H6C5.46957 22 4.96086 21.7893 4.58579 21.4142C4.21071 21.0391 4 20.5304 4 20V4C4 3.46957 4.21071 2.96086 4.58579 2.58579C4.96086 2.21071 5.46957 2 6 2H18ZM10.5 12H8.5C8.10218 12 7.72064 12.158 7.43934 12.4393C7.15804 12.7206 7 13.1022 7 13.5V15.5C7 15.8978 7.15804 16.2794 7.43934 16.5607C7.72064 16.842 8.10218 17 8.5 17H10.5C10.8978 17 11.2794 16.842 11.5607 16.5607C11.842 16.2794 12 15.8978 12 15.5V13.5C12 13.1022 11.842 12.7206 11.5607 12.4393C11.2794 12.158 10.8978 12 10.5 12ZM16 13.5H14C13.7451 13.5003 13.5 13.5979 13.3146 13.7728C13.1293 13.9478 13.0178 14.187 13.0028 14.4414C12.9879 14.6958 13.0707 14.9464 13.2343 15.1418C13.3979 15.3373 13.6299 15.4629 13.883 15.493L14 15.5H16C16.2549 15.4997 16.5 15.4021 16.6854 15.2272C16.8707 15.0522 16.9822 14.813 16.9972 14.5586C17.0121 14.3042 16.9293 14.0536 16.7657 13.8582C16.6021 13.6627 16.3701 13.5371 16.117 13.507L16 13.5ZM10.134 6.763L8.72 8.177L8.366 7.823C8.27375 7.72749 8.16341 7.65131 8.0414 7.5989C7.9194 7.54649 7.78818 7.5189 7.6554 7.51775C7.52262 7.5166 7.39094 7.5419 7.26805 7.59218C7.14515 7.64246 7.0335 7.71671 6.93961 7.81061C6.84571 7.9045 6.77146 8.01615 6.72118 8.13905C6.6709 8.26194 6.6456 8.39362 6.64675 8.5264C6.6479 8.65918 6.67549 8.7904 6.7279 8.9124C6.78031 9.03441 6.85649 9.14475 6.952 9.237L7.836 10.121C7.95208 10.2371 8.08989 10.3292 8.24157 10.3921C8.39325 10.4549 8.55582 10.4872 8.72 10.4872C8.88418 10.4872 9.04675 10.4549 9.19843 10.3921C9.35011 10.3292 9.48792 10.2371 9.604 10.121L11.548 8.177C11.7302 7.9884 11.831 7.7358 11.8287 7.4736C11.8264 7.2114 11.7212 6.96059 11.5358 6.77518C11.3504 6.58977 11.0996 6.4846 10.8374 6.48233C10.5752 6.48005 10.3226 6.58084 10.134 6.763ZM16 8H14C13.7451 8.00028 13.5 8.09788 13.3146 8.27285C13.1293 8.44782 13.0178 8.68695 13.0028 8.94139C12.9879 9.19584 13.0707 9.44638 13.2343 9.64183C13.3979 9.83729 13.6299 9.9629 13.883 9.993L14 10H16C16.2549 9.99972 16.5 9.90212 16.6854 9.72715C16.8707 9.55218 16.9822 9.31305 16.9972 9.05861C17.0121 8.80416 16.9293 8.55362 16.7657 8.35817C16.6021 8.16271 16.3701 8.0371 16.117 8.007L16 8Z" fill="currentColor"/>
</svg>
