<svg width="24" height="24" viewBox="0 0 24 24" fill="none" xmlns="http://www.w3.org/2000/svg">
<path d="M16 2.5H10C9.60218 2.5 9.22064 2.65804 8.93934 2.93934C8.65804 3.22064 8.5 3.60218 8.5 4C8.5 4.39782 8.65804 4.77936 8.93934 5.06066C9.22064 5.34196 9.60218 5.5 10 5.5H11.3L9.676 18.5H8C7.60218 18.5 7.22064 18.658 6.93934 18.9393C6.65804 19.2206 6.5 19.6022 6.5 20C6.5 20.3978 6.65804 20.7794 6.93934 21.0607C7.22064 21.342 7.60218 21.5 8 21.5H14C14.3978 21.5 14.7794 21.342 15.0607 21.0607C15.342 20.7794 15.5 20.3978 15.5 20C15.5 19.6022 15.342 19.2206 15.0607 18.9393C14.7794 18.658 14.3978 18.5 14 18.5H12.7L14.324 5.5H16C16.3978 5.5 16.7794 5.34196 17.0607 5.06066C17.342 4.77936 17.5 4.39782 17.5 4C17.5 3.60218 17.342 3.22064 17.0607 2.93934C16.7794 2.65804 16.3978 2.5 16 2.5Z" fill="currentColor"/>
</svg>
