<svg width="24" height="24" viewBox="0 0 24 24" fill="none" xmlns="http://www.w3.org/2000/svg">
<path fill-rule="evenodd" clip-rule="evenodd" d="M2 11.5C2 6.643 6.656 3 12 3C17.344 3 22 6.643 22 11.5C22 16.357 17.344 20 12 20C11.475 20 10.958 19.966 10.454 19.9L7.554 21.832C7.38945 21.9416 7.1961 22 6.99839 21.9997C6.80068 21.9995 6.60749 21.9406 6.44321 21.8306C6.27894 21.7206 6.15097 21.5643 6.07546 21.3816C5.99995 21.1989 5.98031 20.9979 6.019 20.804L6.464 18.583C3.828 17.09 2 14.517 2 11.5ZM10 7C10.2652 7 10.5196 7.10536 10.7071 7.29289C10.8946 7.48043 11 7.73478 11 8V15C11 15.2652 10.8946 15.5196 10.7071 15.7071C10.5196 15.8946 10.2652 16 10 16C9.73478 16 9.48043 15.8946 9.29289 15.7071C9.10536 15.5196 9 15.2652 9 15V8C9 7.73478 9.10536 7.48043 9.29289 7.29289C9.48043 7.10536 9.73478 7 10 7ZM11 12.5C11 12.279 11.073 12.058 11.22 11.875L13.22 9.375C13.3887 9.17742 13.6277 9.05326 13.8864 9.02881C14.145 9.00435 14.403 9.08153 14.6058 9.24399C14.8085 9.40645 14.9401 9.64144 14.9726 9.89921C15.0051 10.157 14.936 10.4173 14.78 10.625L13.28 12.5L14.78 14.375C14.867 14.4769 14.9326 14.5952 14.973 14.7229C15.0134 14.8506 15.0277 14.9851 15.0151 15.1185C15.0025 15.2518 14.9632 15.3813 14.8996 15.4992C14.836 15.6171 14.7494 15.721 14.6448 15.8047C14.5403 15.8885 14.42 15.9504 14.2911 15.9868C14.1622 16.0232 14.0273 16.0333 13.8944 16.0165C13.7615 15.9997 13.6333 15.9564 13.5174 15.8892C13.4016 15.8219 13.3005 15.7321 13.22 15.625L11.22 13.125C11.0776 12.9478 11 12.7273 11 12.5Z" fill="currentColor"/>
</svg>
