<svg width="24" height="24" viewBox="0 0 24 24" fill="none" xmlns="http://www.w3.org/2000/svg">
<path fill-rule="evenodd" clip-rule="evenodd" d="M14.6119 20.926C13.6519 20.608 6.07986 17.9 2.11686 10.471C1.99431 10.2413 1.96607 9.97289 2.03814 9.72272C2.1102 9.47255 2.2769 9.26029 2.50286 9.13099C5.70386 7.30499 8.08286 2.59999 8.10486 2.55399C8.17857 2.40637 8.28766 2.27928 8.4224 2.18405C8.55715 2.08882 8.71337 2.02842 8.87713 2.00822C9.04089 1.98802 9.2071 2.00866 9.36095 2.06829C9.51479 2.12793 9.65149 2.2247 9.75886 2.34999C9.78386 2.37999 12.6039 5.54799 18.0839 6.00499C18.2631 6.02037 18.4349 6.08378 18.5812 6.18855C18.7274 6.29331 18.8427 6.43556 18.915 6.60032C18.9872 6.76509 19.0138 6.94628 18.9917 7.12484C18.9697 7.30339 18.9 7.47271 18.7899 7.61499C16.0259 11.168 15.9439 17.6 15.9819 19.439C16.0669 19.491 16.1559 19.536 16.2459 19.573C16.394 19.6398 16.5579 19.6634 16.7189 19.641C16.8459 19.619 17.0409 19.546 17.2929 19.294C18.1229 18.464 19.0729 18.238 19.9229 18.377C20.7119 18.505 21.3429 18.931 21.7069 19.294C21.889 19.4826 21.9898 19.7352 21.9875 19.9974C21.9853 20.2596 21.8801 20.5104 21.6947 20.6958C21.5093 20.8812 21.2585 20.9864 20.9963 20.9887C20.7341 20.9909 20.4815 20.8901 20.2929 20.708C20.1017 20.525 19.8618 20.401 19.6019 20.351C19.3769 20.314 19.0759 20.339 18.7069 20.708C18.2089 21.206 17.6539 21.508 17.0619 21.611C16.5355 21.6976 15.9954 21.6349 15.5029 21.43C15.1863 21.2996 14.887 21.1297 14.6119 20.926ZM5.10886 9.72199C5.69707 9.85211 6.29658 9.92445 6.89886 9.93799C7.55905 9.95178 8.21919 9.90828 8.87186 9.80799C8.57538 8.62951 8.35162 7.43392 8.20186 6.22799C8.62486 5.62399 8.97786 5.06399 9.25086 4.60699C9.49286 4.80699 9.77786 5.02799 10.1079 5.25899C10.2419 6.68299 10.4939 8.05899 10.8209 9.35799C12.0539 8.97999 13.4329 8.38699 14.9469 7.48599C15.3749 7.59999 15.8239 7.70099 16.2939 7.78499C15.9939 8.32499 15.7329 8.89199 15.5049 9.47499C14.0219 10.315 12.6419 10.895 11.3749 11.28C11.5976 11.9661 11.8444 12.6442 12.1149 13.313C12.6449 14.6419 13.281 15.926 14.0169 17.153C13.9909 17.662 13.9789 18.123 13.9749 18.522C13.4049 18.27 12.6849 17.922 11.8819 17.464C11.2704 16.3651 10.7286 15.2289 10.2599 14.062C9.95182 13.3001 9.67262 12.5269 9.42286 11.744C8.48286 11.904 7.62286 11.957 6.84986 11.937C6.34003 11.9248 5.83157 11.8787 5.32786 11.799C4.97274 11.3256 4.64166 10.8346 4.33586 10.328C4.59986 10.138 4.85786 9.93499 5.10886 9.72199Z" fill="currentColor"/>
</svg>
