<svg width="24" height="24" viewBox="0 0 24 24" fill="none" xmlns="http://www.w3.org/2000/svg">
<path fill-rule="evenodd" clip-rule="evenodd" d="M17 1.5C17.3729 1.50002 17.7324 1.63892 18.0084 1.88962C18.2844 2.14032 18.4572 2.48484 18.493 2.856L18.5 3V21C18.4998 21.3852 18.3514 21.7556 18.0856 22.0344C17.8198 22.3132 17.4569 22.479 17.0721 22.4975C16.6873 22.516 16.3102 22.3858 16.0188 22.1338C15.7274 21.8818 15.5442 21.5274 15.507 21.144L15.5 21V19.5H8.5V21C8.49981 21.3852 8.35142 21.7556 8.08559 22.0344C7.81976 22.3132 7.45686 22.479 7.07209 22.4975C6.68731 22.516 6.31017 22.3858 6.0188 22.1338C5.72743 21.8818 5.54417 21.5274 5.507 21.144L5.5 21V3C5.50019 2.61478 5.64858 2.24441 5.91441 1.96561C6.18024 1.68682 6.54314 1.52099 6.92791 1.50248C7.31269 1.48396 7.68983 1.61419 7.9812 1.86618C8.27257 2.11816 8.45583 2.47258 8.493 2.856L8.5 3V4.5H15.5V3C15.5 2.60218 15.658 2.22064 15.9393 1.93934C16.2206 1.65804 16.6022 1.5 17 1.5ZM15.5 15.5H8.5V16.5H15.5V15.5ZM15.5 11.5H8.5V12.5H15.5V11.5ZM15.5 7.5H8.5V8.5H15.5V7.5Z" fill="currentColor"/>
</svg>
