<svg width="24" height="24" viewBox="0 0 24 24" fill="none" xmlns="http://www.w3.org/2000/svg">
<path fill-rule="evenodd" clip-rule="evenodd" d="M12 2C12.2652 2 12.5196 2.10536 12.7071 2.29289C12.8946 2.48043 13 2.73478 13 3V4H14C14.2652 4 14.5196 4.10536 14.7071 4.29289C14.8946 4.48043 15 4.73478 15 5C15.7956 5 16.5587 5.31607 17.1213 5.87868C17.6839 6.44129 18 7.20435 18 8V16C18 16.7956 17.6839 17.5587 17.1213 18.1213C16.5587 18.6839 15.7956 19 15 19H14.46C14.4203 19.503 14.34 20.0019 14.22 20.492C14.1938 20.5977 14.1651 20.7027 14.134 20.807L14.052 21.06C14.0401 21.0948 14.0277 21.1295 14.015 21.164L13.958 21.306L13.894 21.447C13.772 21.6766 13.5654 21.8496 13.318 21.9294C13.0706 22.0092 12.8019 21.9896 12.5687 21.8747C12.3356 21.7597 12.1564 21.5585 12.069 21.3136C11.9817 21.0688 11.9932 20.7995 12.101 20.563C12.18 20.386 12.233 20.195 12.28 20.008C12.342 19.758 12.408 19.422 12.451 19H11.425C11.3378 19.5898 11.159 20.1624 10.895 20.697C10.7704 20.9483 10.6235 21.1879 10.456 21.413C10.3803 21.5163 10.2974 21.6142 10.208 21.706C10.0209 21.8902 9.76894 21.9934 9.50641 21.9934C9.24389 21.9934 8.99189 21.8902 8.80482 21.706C8.61775 21.5218 8.51061 21.2715 8.50652 21.009C8.50244 20.7465 8.60175 20.4929 8.783 20.303C8.915 20.155 9.018 19.979 9.106 19.803C9.207 19.599 9.314 19.333 9.39 19H9C8.20435 19 7.44129 18.6839 6.87868 18.1213C6.31607 17.5587 6 16.7956 6 16V8C6 7.20435 6.31607 6.44129 6.87868 5.87868C7.44129 5.31607 8.20435 5 9 5C9 4.73478 9.10536 4.48043 9.29289 4.29289C9.48043 4.10536 9.73478 4 10 4H11V3C11 2.73478 11.1054 2.48043 11.2929 2.29289C11.4804 2.10536 11.7348 2 12 2ZM11 7C10.4954 6.99984 10.0094 7.19041 9.63945 7.5335C9.26947 7.87659 9.04284 8.34685 9.005 8.85L9 9V15C8.99984 15.5046 9.19041 15.9906 9.5335 16.3605C9.87659 16.7305 10.3468 16.9572 10.85 16.995L11 17V7ZM13 7V17C13.5304 17 14.0391 16.7893 14.4142 16.4142C14.7893 16.0391 15 15.5304 15 15V9C15 8.46957 14.7893 7.96086 14.4142 7.58579C14.0391 7.21071 13.5304 7 13 7Z" fill="currentColor"/>
</svg>
