<svg width="24" height="24" viewBox="0 0 24 24" fill="none" xmlns="http://www.w3.org/2000/svg">
<path fill-rule="evenodd" clip-rule="evenodd" d="M12 2C12.2652 2 12.5196 2.10536 12.7071 2.29289C12.8946 2.48043 13 2.73478 13 3V4H14C14.2652 4 14.5196 4.10536 14.7071 4.29289C14.8946 4.48043 15 4.73478 15 5H16C16.252 5.00003 16.4948 5.09523 16.6796 5.26655C16.8645 5.43788 16.9778 5.67269 16.997 5.924C17.6705 6.19042 18.3146 6.52588 18.919 6.925C20.726 8.13 22 9.905 22 12C22 14.095 20.726 15.87 18.919 17.075C17.692 17.893 16.175 18.485 14.5 18.782V21C14.5 21.2652 14.3946 21.5196 14.2071 21.7071C14.0196 21.8946 13.7652 22 13.5 22C13.2348 22 12.9804 21.8946 12.7929 21.7071C12.6054 21.5196 12.5 21.2652 12.5 21V19H11.5V21C11.5 21.2652 11.3946 21.5196 11.2071 21.7071C11.0196 21.8946 10.7652 22 10.5 22C10.2348 22 9.98043 21.8946 9.79289 21.7071C9.60536 21.5196 9.5 21.2652 9.5 21V18.782C7.825 18.485 6.308 17.892 5.081 17.075C3.274 15.87 2 14.095 2 12C2 9.905 3.274 8.13 5.081 6.925C5.68539 6.52588 6.32949 6.19042 7.003 5.924C7.02215 5.67269 7.1355 5.43788 7.32036 5.26655C7.50522 5.09523 7.74796 5.00003 8 5H9C9 4.73478 9.10536 4.48043 9.29289 4.29289C9.48043 4.10536 9.73478 4 10 4H11V3C11 2.73478 11.1054 2.48043 11.2929 2.29289C11.4804 2.10536 11.7348 2 12 2ZM8.274 7L8.272 7.002C7.206 8.134 6 9.872 6 12C6 14.129 7.206 15.866 8.272 16.998L8.274 17H11.306C10.7369 16.5943 10.2085 16.1345 9.728 15.627C8.794 14.634 8 13.371 8 12C8 10.629 8.794 9.366 9.728 8.373C10.2085 7.86549 10.7369 7.40568 11.306 7H8.274ZM12.694 7C13.2631 7.40568 13.7915 7.86549 14.272 8.373C15.206 9.366 16 10.629 16 12C16 13.371 15.206 14.634 14.272 15.627C13.7915 16.1345 13.2631 16.5943 12.694 17H15.726L15.728 16.998C16.794 15.866 18 14.128 18 12C18 9.871 16.794 8.134 15.728 7.002L15.726 7H12.694Z" fill="currentColor"/>
</svg>
