<svg width="24" height="24" viewBox="0 0 24 24" fill="none" xmlns="http://www.w3.org/2000/svg">
<path fill-rule="evenodd" clip-rule="evenodd" d="M14.902 19.512C13.831 20.583 12 19.825 12 18.31V16H4C3.46957 16 2.96086 15.7893 2.58579 15.4142C2.21071 15.0391 2 14.5304 2 14V9.99998C2 9.46955 2.21071 8.96084 2.58579 8.58577C2.96086 8.2107 3.46957 7.99998 4 7.99998H12V5.68998C12 4.17498 13.831 3.41698 14.902 4.48798L21.355 10.939C21.6362 11.2203 21.7942 11.6017 21.7942 11.9995C21.7942 12.3972 21.6362 12.7787 21.355 13.06L14.902 19.512Z" fill="currentColor"/>
</svg>
