<svg width="24" height="24" viewBox="0 0 24 24" fill="none" xmlns="http://www.w3.org/2000/svg">
<path fill-rule="evenodd" clip-rule="evenodd" d="M19.512 9.09803C20.583 10.169 19.825 12 18.31 12H16V20C16 20.5305 15.7893 21.0392 15.4142 21.4142C15.0391 21.7893 14.5304 22 14 22H9.99998C9.46955 22 8.96084 21.7893 8.58577 21.4142C8.2107 21.0392 7.99998 20.5305 7.99998 20V12H5.68998C4.17498 12 3.41698 10.169 4.48798 9.09803L10.939 2.64603C11.2203 2.36482 11.6017 2.20685 11.9995 2.20685C12.3972 2.20685 12.7787 2.36482 13.06 2.64603L19.512 9.09803Z" fill="currentColor"/>
</svg>
