<svg width="24" height="24" viewBox="0 0 24 24" fill="none" xmlns="http://www.w3.org/2000/svg">
<path fill-rule="evenodd" clip-rule="evenodd" d="M9.098 4.48798C10.168 3.41698 12 4.17498 12 5.68998V7.99998H20C20.5304 7.99998 21.0391 8.2107 21.4142 8.58577C21.7893 8.96084 22 9.46955 22 9.99998V14C22 14.5304 21.7893 15.0391 21.4142 15.4142C21.0391 15.7893 20.5304 16 20 16H12V18.31C12 19.825 10.169 20.583 9.098 19.512L2.645 13.061C2.50561 12.9217 2.39504 12.7563 2.3196 12.5742C2.24415 12.3922 2.20532 12.197 2.20532 12C2.20532 11.8029 2.24415 11.6078 2.3196 11.4257C2.39504 11.2437 2.50561 11.0783 2.645 10.939L9.098 4.48798Z" fill="currentColor"/>
</svg>
