<svg width="24" height="24" viewBox="0 0 24 24" fill="none" xmlns="http://www.w3.org/2000/svg">
<path fill-rule="evenodd" clip-rule="evenodd" d="M12 2C17.523 2 22 6.477 22 12C22 17.523 17.523 22 12 22C6.477 22 2 17.523 2 12C2 6.477 6.477 2 12 2ZM14 12H10C9.73478 12 9.48043 12.1054 9.29289 12.2929C9.10536 12.4804 9 12.7348 9 13V16C9 16.7956 9.31607 17.5587 9.87868 18.1213C10.4413 18.6839 11.2044 19 12 19C12.7956 19 13.5587 18.6839 14.1213 18.1213C14.6839 17.5587 15 16.7956 15 16V13C15 12.7348 14.8946 12.4804 14.7071 12.2929C14.5196 12.1054 14.2652 12 14 12ZM10 7H8C7.73478 7 7.48043 7.10536 7.29289 7.29289C7.10536 7.48043 7 7.73478 7 8C7 8.26522 7.10536 8.51957 7.29289 8.70711C7.48043 8.89464 7.73478 9 8 9H10C10.2652 9 10.5196 8.89464 10.7071 8.70711C10.8946 8.51957 11 8.26522 11 8C11 7.73478 10.8946 7.48043 10.7071 7.29289C10.5196 7.10536 10.2652 7 10 7ZM16 7H14C13.7451 7.00028 13.5 7.09788 13.3146 7.27285C13.1293 7.44782 13.0178 7.68695 13.0028 7.94139C12.9879 8.19584 13.0707 8.44638 13.2343 8.64183C13.3979 8.83729 13.6299 8.9629 13.883 8.993L14 9H16C16.2549 8.99972 16.5 8.90212 16.6854 8.72715C16.8707 8.55218 16.9822 8.31305 16.9972 8.05861C17.0121 7.80416 16.9293 7.55362 16.7657 7.35817C16.6021 7.16271 16.3701 7.0371 16.117 7.007L16 7Z" fill="currentColor"/>
</svg>
