<svg width="24" height="24" viewBox="0 0 24 24" fill="none" xmlns="http://www.w3.org/2000/svg">
<path d="M5.555 5.16803L11.109 8.87103C11.383 9.05361 11.6077 9.30102 11.7631 9.5913C11.9186 9.88159 11.9999 10.2058 12 10.535V21C12 21.1811 11.9509 21.3587 11.8579 21.514C11.7648 21.6693 11.6314 21.7965 11.4718 21.8819C11.3121 21.9673 11.1323 22.0078 10.9515 21.999C10.7707 21.9902 10.5956 21.9325 10.445 21.832L4.891 18.13C4.61684 17.9474 4.39206 17.6998 4.23662 17.4093C4.08118 17.1188 3.9999 16.7945 4 16.465V6.00003C3.99997 5.81898 4.0491 5.64133 4.14213 5.48602C4.23516 5.33071 4.36861 5.20356 4.52824 5.11815C4.68787 5.03274 4.86769 4.99227 5.04852 5.00106C5.22935 5.00984 5.4044 5.06755 5.555 5.16803ZM8.528 3.11803C8.68767 3.03259 8.86754 2.99212 9.04842 3.00092C9.22929 3.00973 9.40439 3.06748 9.555 3.16803L15.109 6.87103C15.383 7.05361 15.6077 7.30102 15.7631 7.59131C15.9186 7.88159 15.9999 8.20575 16 8.53503V19C16 19.1811 15.9509 19.3587 15.8579 19.514C15.7648 19.6693 15.6314 19.7965 15.4718 19.8819C15.3121 19.9673 15.1323 20.0078 14.9515 19.999C14.7707 19.9902 14.5956 19.9325 14.445 19.832L13.5 19.202V10.535C13.4999 9.95882 13.3576 9.39154 13.0856 8.88355C12.8137 8.37556 12.4205 7.94258 11.941 7.62303L8 4.99503V4.00003C7.99993 3.81899 8.049 3.64132 8.14199 3.48599C8.23498 3.33066 8.36839 3.20348 8.528 3.11803ZM13.555 1.16803L19.109 4.87103C19.383 5.05361 19.6077 5.30102 19.7631 5.59131C19.9186 5.88159 19.9999 6.20575 20 6.53503V17C20 17.1811 19.9509 17.3587 19.8579 17.514C19.7648 17.6693 19.6314 17.7965 19.4718 17.8819C19.3121 17.9673 19.1323 18.0078 18.9515 17.999C18.7707 17.9902 18.5956 17.9325 18.445 17.832L17.5 17.202V8.53503C17.4999 7.95882 17.3576 7.39154 17.0856 6.88355C16.8137 6.37556 16.4205 5.94258 15.941 5.62303L12 2.99503V2.00003C12 1.81898 12.0491 1.64133 12.1421 1.48602C12.2352 1.33071 12.3686 1.20356 12.5282 1.11815C12.6879 1.03274 12.8677 0.992272 13.0485 1.00106C13.2293 1.00984 13.4044 1.06755 13.555 1.16803Z" fill="currentColor"/>
</svg>
