<svg width="24" height="24" viewBox="0 0 24 24" fill="none" xmlns="http://www.w3.org/2000/svg">
<path fill-rule="evenodd" clip-rule="evenodd" d="M19 3C19.5304 3 20.0391 3.21071 20.4142 3.58579C20.7893 3.96086 21 4.46957 21 5V19C21 19.5304 20.7893 20.0391 20.4142 20.4142C20.0391 20.7893 19.5304 21 19 21H5C4.46957 21 3.96086 20.7893 3.58579 20.4142C3.21071 20.0391 3 19.5304 3 19V5C3 4.46957 3.21071 3.96086 3.58579 3.58579C3.96086 3.21071 4.46957 3 5 3H19ZM19 19V16H5V19H19ZM13.414 7.793L12 9.207L10.586 7.793C10.3974 7.61084 10.1448 7.51005 9.8826 7.51233C9.6204 7.5146 9.36959 7.61977 9.18418 7.80518C8.99877 7.99059 8.8936 8.2414 8.89133 8.5036C8.88905 8.7658 8.98984 9.0184 9.172 9.207L11.292 11.328C11.3849 11.421 11.4952 11.4947 11.6166 11.5451C11.738 11.5954 11.8681 11.6213 11.9995 11.6213C12.1309 11.6213 12.261 11.5954 12.3824 11.5451C12.5038 11.4947 12.6141 11.421 12.707 11.328L14.828 9.208C15.0156 9.02049 15.1211 8.76612 15.1212 8.50085C15.1213 8.23558 15.016 7.98114 14.8285 7.7935C14.641 7.60586 14.3866 7.50039 14.1214 7.5003C13.8561 7.5002 13.6016 7.60549 13.414 7.793Z" fill="currentColor"/>
</svg>
