<svg width="24" height="24" viewBox="0 0 24 24" fill="none" xmlns="http://www.w3.org/2000/svg">
<path fill-rule="evenodd" clip-rule="evenodd" d="M19 3C19.5304 3 20.0391 3.21071 20.4142 3.58579C20.7893 3.96086 21 4.46957 21 5V19C21 19.5304 20.7893 20.0391 20.4142 20.4142C20.0391 20.7893 19.5304 21 19 21H5C4.46957 21 3.96086 20.7893 3.58579 20.4142C3.21071 20.0391 3 19.5304 3 19V5C3 4.46957 3.21071 3.96086 3.58579 3.58579C3.96086 3.21071 4.46957 3 5 3H19ZM19 5H16V19H19V5ZM7.793 9.172C7.60553 9.35953 7.50021 9.61384 7.50021 9.879C7.50021 10.1442 7.60553 10.3985 7.793 10.586L9.207 12L7.793 13.414C7.69749 13.5062 7.62131 13.6166 7.5689 13.7386C7.51649 13.8606 7.4889 13.9918 7.48775 14.1246C7.4866 14.2574 7.5119 14.3891 7.56218 14.512C7.61246 14.6349 7.68671 14.7465 7.7806 14.8404C7.8745 14.9343 7.98615 15.0085 8.10905 15.0588C8.23194 15.1091 8.36362 15.1344 8.4964 15.1333C8.62918 15.1321 8.7604 15.1045 8.8824 15.0521C9.00441 14.9997 9.11475 14.9235 9.207 14.828L11.328 12.708C11.421 12.6151 11.4947 12.5048 11.5451 12.3834C11.5954 12.262 11.6213 12.1319 11.6213 12.0005C11.6213 11.8691 11.5954 11.739 11.5451 11.6176C11.4947 11.4962 11.421 11.3859 11.328 11.293L9.208 9.172C9.11513 9.07902 9.00484 9.00526 8.88344 8.95494C8.76204 8.90462 8.63192 8.87871 8.5005 8.87871C8.36908 8.87871 8.23896 8.90462 8.11756 8.95494C7.99616 9.00526 7.88587 9.07902 7.793 9.172Z" fill="currentColor"/>
</svg>
