<svg width="24" height="24" viewBox="0 0 24 24" fill="none" xmlns="http://www.w3.org/2000/svg">
<path fill-rule="evenodd" clip-rule="evenodd" d="M19 3C19.5304 3 20.0391 3.21071 20.4142 3.58579C20.7893 3.96086 21 4.46957 21 5V19C21 19.5304 20.7893 20.0391 20.4142 20.4142C20.0391 20.7893 19.5304 21 19 21H5C4.46957 21 3.96086 20.7893 3.58579 20.4142C3.21071 20.0391 3 19.5304 3 19V5C3 4.46957 3.21071 3.96086 3.58579 3.58579C3.96086 3.21071 4.46957 3 5 3H19ZM19 5V8H5V5H19ZM13.414 16.207L12 14.793L10.586 16.207C10.3974 16.3892 10.1448 16.49 9.8826 16.4877C9.6204 16.4854 9.36959 16.3802 9.18418 16.1948C8.99877 16.0094 8.8936 15.7586 8.89133 15.4964C8.88905 15.2342 8.98984 14.9816 9.172 14.793L11.292 12.672C11.3849 12.579 11.4952 12.5053 11.6166 12.4549C11.738 12.4046 11.8681 12.3787 11.9995 12.3787C12.1309 12.3787 12.261 12.4046 12.3824 12.4549C12.5038 12.5053 12.6141 12.579 12.707 12.672L14.828 14.793C14.9235 14.8852 14.9997 14.9956 15.0521 15.1176C15.1045 15.2396 15.1321 15.3708 15.1333 15.5036C15.1344 15.6364 15.1091 15.7681 15.0588 15.891C15.0085 16.0139 14.9343 16.1255 14.8404 16.2194C14.7465 16.3133 14.6349 16.3875 14.512 16.4378C14.3891 16.4881 14.2574 16.5134 14.1246 16.5123C13.9918 16.5111 13.8606 16.4835 13.7386 16.4311C13.6166 16.3787 13.5062 16.3025 13.414 16.207Z" fill="currentColor"/>
</svg>
