<svg width="24" height="24" viewBox="0 0 24 24" fill="none" xmlns="http://www.w3.org/2000/svg">
<path fill-rule="evenodd" clip-rule="evenodd" d="M19 3C19.5304 3 20.0391 3.21071 20.4142 3.58579C20.7893 3.96086 21 4.46957 21 5V19C21 19.5304 20.7893 20.0391 20.4142 20.4142C20.0391 20.7893 19.5304 21 19 21H5C4.46957 21 3.96086 20.7893 3.58579 20.4142C3.21071 20.0391 3 19.5304 3 19V5C3 4.46957 3.21071 3.96086 3.58579 3.58579C3.96086 3.21071 4.46957 3 5 3H19ZM8 5H5V19H8V5ZM12.793 9.172C12.6055 9.35953 12.5002 9.61384 12.5002 9.879C12.5002 10.1442 12.6055 10.3985 12.793 10.586L14.207 12L12.793 13.414C12.6975 13.5062 12.6213 13.6166 12.5689 13.7386C12.5165 13.8606 12.4889 13.9918 12.4877 14.1246C12.4866 14.2574 12.5119 14.3891 12.5622 14.512C12.6125 14.6349 12.6867 14.7465 12.7806 14.8404C12.8745 14.9343 12.9861 15.0085 13.109 15.0588C13.2319 15.1091 13.3636 15.1344 13.4964 15.1333C13.6292 15.1321 13.7604 15.1045 13.8824 15.0521C14.0044 14.9997 14.1148 14.9235 14.207 14.828L16.328 12.708C16.421 12.6151 16.4947 12.5048 16.5451 12.3834C16.5954 12.262 16.6213 12.1319 16.6213 12.0005C16.6213 11.8691 16.5954 11.739 16.5451 11.6176C16.4947 11.4962 16.421 11.3859 16.328 11.293L14.208 9.172C14.1151 9.07902 14.0048 9.00526 13.8834 8.95494C13.762 8.90462 13.6319 8.87871 13.5005 8.87871C13.3691 8.87871 13.239 8.90462 13.1176 8.95494C12.9962 9.00526 12.8859 9.07902 12.793 9.172Z" fill="currentColor"/>
</svg>
