<svg width="24" height="24" viewBox="0 0 24 24" fill="none" xmlns="http://www.w3.org/2000/svg">
<path fill-rule="evenodd" clip-rule="evenodd" d="M3 5C3 4.46957 3.21071 3.96086 3.58579 3.58579C3.96086 3.21071 4.46957 3 5 3H19C19.5304 3 20.0391 3.21071 20.4142 3.58579C20.7893 3.96086 21 4.46957 21 5V19C21 19.5304 20.7893 20.0391 20.4142 20.4142C20.0391 20.7893 19.5304 21 19 21H5C4.46957 21 3.96086 20.7893 3.58579 20.4142C3.21071 20.0391 3 19.5304 3 19V5ZM5 5H8V19H5V5ZM16.207 10.586L14.793 12L16.207 13.414C16.3892 13.6026 16.49 13.8552 16.4877 14.1174C16.4854 14.3796 16.3802 14.6304 16.1948 14.8158C16.0094 15.0012 15.7586 15.1064 15.4964 15.1087C15.2342 15.111 14.9816 15.0102 14.793 14.828L12.672 12.708C12.579 12.6151 12.5053 12.5048 12.4549 12.3834C12.4046 12.262 12.3787 12.1319 12.3787 12.0005C12.3787 11.8691 12.4046 11.739 12.4549 11.6176C12.5053 11.4962 12.579 11.3859 12.672 11.293L14.793 9.172C14.8852 9.07649 14.9956 9.00031 15.1176 8.9479C15.2396 8.89549 15.3708 8.8679 15.5036 8.86675C15.6364 8.8656 15.7681 8.8909 15.891 8.94118C16.0139 8.99146 16.1255 9.06571 16.2194 9.15961C16.3133 9.2535 16.3875 9.36515 16.4378 9.48805C16.4881 9.61094 16.5134 9.74262 16.5123 9.8754C16.5111 10.0082 16.4835 10.1394 16.4311 10.2614C16.3787 10.3834 16.3025 10.4938 16.207 10.586Z" fill="currentColor"/>
</svg>
