<svg width="24" height="24" viewBox="0 0 24 24" fill="none" xmlns="http://www.w3.org/2000/svg">
<path d="M8 3V21H5C4.46957 21 3.96086 20.7893 3.58579 20.4142C3.21071 20.0391 3 19.5304 3 19V5C3 4.46957 3.21071 3.96086 3.58579 3.58579C3.96086 3.21071 4.46957 3 5 3H8ZM21 10V19C21.0002 19.5046 20.8096 19.9906 20.4665 20.3605C20.1234 20.7305 19.6532 20.9572 19.15 20.995L19 21H10V10H21ZM19 3C19.5046 2.99984 19.9906 3.19041 20.3605 3.5335C20.7305 3.87659 20.9572 4.34684 20.995 4.85L21 5V8H10V3H19Z" fill="currentColor"/>
</svg>
