<svg width="24" height="24" viewBox="0 0 24 24" fill="none" xmlns="http://www.w3.org/2000/svg">
<path fill-rule="evenodd" clip-rule="evenodd" d="M19 3C19.5304 3 20.0391 3.21071 20.4142 3.58579C20.7893 3.96086 21 4.46957 21 5V19C21 19.5304 20.7893 20.0391 20.4142 20.4142C20.0391 20.7893 19.5304 21 19 21H5C4.46957 21 3.96086 20.7893 3.58579 20.4142C3.21071 20.0391 3 19.5304 3 19V5C3 4.46957 3.21071 3.96086 3.58579 3.58579C3.96086 3.21071 4.46957 3 5 3H19ZM19 16H5V19H19V16ZM12.707 7.672C12.5349 7.49968 12.3059 7.39606 12.0629 7.3806C11.8198 7.36513 11.5795 7.43888 11.387 7.588L11.293 7.672L9.172 9.793C8.99265 9.97296 8.88853 10.2144 8.88077 10.4684C8.87302 10.7223 8.96222 10.9697 9.13025 11.1603C9.29828 11.3508 9.53255 11.4703 9.78547 11.4944C10.0384 11.5185 10.291 11.4454 10.492 11.29L10.586 11.207L12 9.793L13.414 11.207C13.5935 11.3883 13.8356 11.494 14.0905 11.5027C14.3455 11.5113 14.5942 11.4222 14.7856 11.2535C14.977 11.0849 15.0967 10.8494 15.1202 10.5954C15.1437 10.3413 15.0692 10.0879 14.912 9.887L14.828 9.793L12.707 7.672Z" fill="currentColor"/>
</svg>
