<svg width="24" height="24" viewBox="0 0 24 24" fill="none" xmlns="http://www.w3.org/2000/svg">
<path fill-rule="evenodd" clip-rule="evenodd" d="M19 3C19.5304 3 20.0391 3.21071 20.4142 3.58579C20.7893 3.96086 21 4.46957 21 5V19C21 19.5304 20.7893 20.0391 20.4142 20.4142C20.0391 20.7893 19.5304 21 19 21H5C4.46957 21 3.96086 20.7893 3.58579 20.4142C3.21071 20.0391 3 19.5304 3 19V5C3 4.46957 3.21071 3.96086 3.58579 3.58579C3.96086 3.21071 4.46957 3 5 3H19ZM9.172 12.793C8.98453 12.9805 8.87921 13.2348 8.87921 13.5C8.87921 13.7652 8.98453 14.0195 9.172 14.207L11.292 16.328C11.3849 16.421 11.4952 16.4947 11.6166 16.5451C11.738 16.5954 11.8681 16.6213 11.9995 16.6213C12.1309 16.6213 12.261 16.5954 12.3824 16.5451C12.5038 16.4947 12.6141 16.421 12.707 16.328L14.828 14.208C14.9209 14.1152 14.9946 14.0049 15.0449 13.8836C15.0952 13.7623 15.1212 13.6322 15.1212 13.5009C15.1212 13.3695 15.0954 13.2394 15.0452 13.1181C14.995 12.9967 14.9213 12.8864 14.8285 12.7935C14.7357 12.7006 14.6254 12.6269 14.5041 12.5766C14.3828 12.5263 14.2527 12.5003 14.1214 12.5003C13.99 12.5003 13.8599 12.5261 13.7386 12.5763C13.6172 12.6265 13.5069 12.7002 13.414 12.793L12 14.207L10.586 12.793C10.3985 12.6055 10.1442 12.5002 9.879 12.5002C9.61384 12.5002 9.35953 12.6055 9.172 12.793ZM19 5H5V8H19V5Z" fill="currentColor"/>
</svg>
