<svg width="24" height="24" viewBox="0 0 24 24" fill="none" xmlns="http://www.w3.org/2000/svg">
<path fill-rule="evenodd" clip-rule="evenodd" d="M12.707 13.293L16.086 16.672C16.5225 17.1085 16.8198 17.6646 16.9403 18.2701C17.0607 18.8755 16.9989 19.5031 16.7627 20.0734C16.5264 20.6437 16.1264 21.1312 15.6131 21.4741C15.0998 21.817 14.4963 22.0001 13.879 22H13.678C13.0882 22.0011 12.5088 21.8443 12 21.546C11.4912 21.8443 10.9118 22.0011 10.322 22H10.122C9.50461 22.0002 8.90101 21.8174 8.38756 21.4745C7.87412 21.1317 7.4739 20.6442 7.23754 20.0739C7.00117 19.5035 6.93928 18.8758 7.05969 18.2703C7.18011 17.6648 7.47741 17.1085 7.914 16.672L11.293 13.292C11.4805 13.1045 11.7348 12.9992 12 12.9992C12.2652 12.9992 12.5195 13.1045 12.707 13.292V13.293ZM18.88 7C19.6771 7 20.444 7.30498 21.0234 7.8524C21.6028 8.39982 21.9508 9.14818 21.996 9.944L22.001 10.121V10.322C22.0024 10.9119 21.8456 11.4913 21.547 12C21.799 12.429 21.957 12.921 21.993 13.45L22.001 13.678V13.878C22.0013 14.478 21.8288 15.0653 21.5039 15.5697C21.1791 16.0741 20.7157 16.4742 20.1694 16.722C19.623 16.9699 19.0168 17.055 18.4233 16.9672C17.8298 16.8794 17.2742 16.6224 16.823 16.227L16.673 16.086L13.293 12.707C13.121 12.5347 13.0177 12.3055 13.0026 12.0625C12.9875 11.8195 13.0616 11.5793 13.211 11.387L13.294 11.293L16.673 7.914C17.2581 7.32896 18.0526 7.00021 18.88 7ZM5.12 7C5.88 7 6.61 7.276 7.177 7.773L7.327 7.914L10.707 11.293C10.879 11.4653 10.9823 11.6945 10.9974 11.9375C11.0125 12.1805 10.9384 12.4207 10.789 12.613L10.706 12.707L7.327 16.086C6.90101 16.5114 6.36109 16.8046 5.77229 16.9302C5.18349 17.0559 4.57093 17.0086 4.0084 16.794C3.44587 16.5795 2.95736 16.2069 2.60173 15.7211C2.24611 15.2353 2.03853 14.6571 2.004 14.056L2 13.879V13.678C2 13.063 2.167 12.49 2.454 12C2.19475 11.5579 2.04205 11.0614 2.008 10.55L2 10.323V10.123C1.99974 9.71298 2.08027 9.30692 2.237 8.92803C2.39373 8.54915 2.62358 8.20485 2.91341 7.91483C3.20325 7.62481 3.5474 7.39474 3.92618 7.23777C4.30497 7.0808 4.70998 7 5.12 7ZM10.321 2C10.9108 1.99914 11.4901 2.15588 11.999 2.454C12.4411 2.19475 12.9376 2.04205 13.449 2.008L13.677 2H13.877C14.4769 1.99966 15.0643 2.17224 15.5687 2.49709C16.0731 2.82193 16.4731 3.28528 16.721 3.83163C16.9689 4.37799 17.054 4.98421 16.9662 5.5777C16.8784 6.17119 16.6214 6.7268 16.226 7.178L16.085 7.328L12.706 10.708C12.5337 10.88 12.3045 10.9833 12.0615 10.9984C11.8185 11.0135 11.5783 10.9394 11.386 10.79L11.292 10.707L7.913 7.328C7.48713 6.90218 7.19355 6.36224 7.06768 5.7733C6.94181 5.18437 6.98902 4.57159 7.20362 4.00889C7.41821 3.44618 7.79103 2.95758 8.2771 2.60201C8.76317 2.24645 9.34173 2.03911 9.943 2.005L10.121 2H10.321Z" fill="currentColor"/>
</svg>
