<svg width="24" height="24" viewBox="0 0 24 24" fill="none" xmlns="http://www.w3.org/2000/svg">
<path fill-rule="evenodd" clip-rule="evenodd" d="M16.5004 3.206C17.511 3.78967 18.2857 4.70835 18.6904 5.80298C19.0951 6.89762 19.1043 8.0993 18.7164 9.2C19.5362 9.90248 20.1067 10.8513 20.3427 11.9048C20.5787 12.9583 20.4675 14.0598 20.0258 15.0449C19.584 16.03 18.8355 16.8457 17.8918 17.3702C16.9482 17.8947 15.8602 18.0999 14.7904 17.955C14.8344 18.325 14.8404 18.709 14.8104 19.082C14.7354 19.967 14.4344 20.979 13.7074 21.706C13.5275 21.8853 13.286 21.9895 13.032 21.9972C12.7781 22.005 12.5307 21.9158 12.3401 21.7478C12.1496 21.5797 12.0301 21.3454 12.006 21.0925C11.9819 20.8396 12.055 20.587 12.2104 20.386L12.2934 20.292C12.5664 20.019 12.7654 19.532 12.8164 18.916C12.8264 18.804 12.8294 18.694 12.8284 18.588C11.9582 19.1856 10.9211 19.4925 9.86582 19.4646C8.8105 19.4367 7.79109 19.0755 6.95363 18.4328C6.11617 17.79 5.50364 16.8987 5.20379 15.8865C4.90395 14.8743 4.93217 13.7932 5.28442 12.798C4.39886 12.0384 3.8067 10.9931 3.61039 9.84303C3.41408 8.69295 3.62597 7.51043 4.2094 6.50007C4.79284 5.48971 5.7111 4.71508 6.80532 4.31022C7.89953 3.90535 9.10085 3.89573 10.2014 4.283C10.9607 3.39646 12.0062 2.80339 13.1568 2.60652C14.3073 2.40964 15.4905 2.62136 16.5014 3.205L16.5004 3.206ZM12.0004 9.5C11.8034 9.5 11.6084 9.5388 11.4264 9.61418C11.2444 9.68956 11.079 9.80005 10.9398 9.93934C10.8005 10.0786 10.69 10.244 10.6146 10.426C10.5392 10.608 10.5004 10.803 10.5004 11C10.5004 11.197 10.5392 11.392 10.6146 11.574C10.69 11.756 10.8005 11.9214 10.9398 12.0607C11.079 12.2 11.2444 12.3104 11.4264 12.3858C11.6084 12.4612 11.8034 12.5 12.0004 12.5C12.3982 12.5 12.7798 12.342 13.0611 12.0607C13.3424 11.7794 13.5004 11.3978 13.5004 11C13.5004 10.6022 13.3424 10.2206 13.0611 9.93934C12.7798 9.65804 12.3982 9.5 12.0004 9.5Z" fill="currentColor"/>
</svg>
