<svg width="24" height="24" viewBox="0 0 24 24" fill="none" xmlns="http://www.w3.org/2000/svg">
<path fill-rule="evenodd" clip-rule="evenodd" d="M17.1099 3.00601C17.2593 3.02246 17.403 3.07236 17.5304 3.152C17.6578 3.23163 17.7657 3.33896 17.8459 3.46601C21.0459 8.53301 20.5629 13.912 17.8899 17.3C16.5549 18.991 14.6799 20.171 12.4929 20.52C10.5849 20.823 8.49989 20.484 6.39889 19.384C6.20589 19.993 6.06889 20.584 5.98989 21.141C5.95146 21.4027 5.81095 21.6384 5.5991 21.7967C5.38726 21.955 5.12133 22.023 4.85951 21.9857C4.59769 21.9484 4.3613 21.8089 4.20207 21.5978C4.04285 21.3866 3.97375 21.121 4.00989 20.859C4.14845 19.931 4.38373 19.02 4.71189 18.141C3.17489 16.451 2.75489 14.313 2.94189 12.403C3.14789 10.296 4.10889 8.27501 5.35989 7.23201C7.03189 5.83901 8.78789 5.26701 10.3119 4.98701C10.9779 4.87155 11.6485 4.78447 12.3219 4.72601C12.8009 4.67801 13.2899 4.64601 13.7579 4.53001C14.4505 4.36205 15.1125 4.08671 15.7199 3.71401C16.1619 3.43801 16.5389 2.94201 17.1099 3.00601ZM7.14989 17.518C8.26189 15.251 10.0799 13.078 12.4469 11.894C12.5654 11.8359 12.6713 11.755 12.7583 11.6558C12.8454 11.5566 12.912 11.4412 12.9542 11.3162C12.9965 11.1911 13.0136 11.059 13.0045 10.9273C12.9954 10.7956 12.9604 10.6671 12.9014 10.549C12.8424 10.431 12.7606 10.3257 12.6608 10.2394C12.5609 10.1531 12.445 10.0875 12.3196 10.0462C12.1942 10.0049 12.062 9.98886 11.9304 9.99895C11.7988 10.009 11.6705 10.0451 11.5529 10.105C8.94489 11.409 6.94689 13.664 5.64789 16.069C5.90609 16.4897 6.22637 16.869 6.59789 17.194C6.78289 17.31 6.96689 17.417 7.14989 17.518Z" fill="currentColor"/>
</svg>
