<svg width="24" height="24" viewBox="0 0 24 24" fill="none" xmlns="http://www.w3.org/2000/svg">
<path fill-rule="evenodd" clip-rule="evenodd" d="M7.94 13.06C7.6591 12.7788 7.50132 12.3975 7.50132 12C7.50132 11.6025 7.6591 11.2213 7.94 10.94L13.596 5.28202C13.8774 5.00076 14.259 4.8428 14.6569 4.8429C14.8539 4.84294 15.0489 4.88179 15.2309 4.95722C15.4129 5.03265 15.5782 5.14319 15.7175 5.28252C15.8568 5.42185 15.9672 5.58725 16.0426 5.76928C16.1179 5.9513 16.1567 6.14638 16.1566 6.34338C16.1566 6.54038 16.1177 6.73544 16.0423 6.91742C15.9669 7.09941 15.8563 7.26476 15.717 7.40402L11.122 12L15.718 16.596C15.8613 16.7343 15.9757 16.8998 16.0544 17.0828C16.1331 17.2657 16.1745 17.4625 16.1764 17.6617C16.1782 17.8609 16.1403 18.0584 16.065 18.2428C15.9897 18.4272 15.8784 18.5947 15.7376 18.7356C15.5968 18.8765 15.4294 18.988 15.2451 19.0635C15.0608 19.139 14.8633 19.177 14.6641 19.1754C14.4649 19.1738 14.2681 19.1325 14.0851 19.0539C13.902 18.9754 13.7364 18.8612 13.598 18.718L7.938 13.06H7.94Z" fill="currentColor"/>
</svg>
