<svg width="24" height="24" viewBox="0 0 24 24" fill="none" xmlns="http://www.w3.org/2000/svg">
<path fill-rule="evenodd" clip-rule="evenodd" d="M9.46401 12.707C9.27653 12.5195 9.17122 12.2652 9.17122 12C9.17122 11.7348 9.27653 11.4805 9.46401 11.293L12.293 8.46399C12.4329 8.32412 12.6112 8.22889 12.8052 8.19036C12.9993 8.15182 13.2004 8.17171 13.3831 8.2475C13.5659 8.3233 13.722 8.45159 13.8318 8.61616C13.9416 8.78072 14.0002 8.97416 14 9.17199V14.828C14.0002 15.0258 13.9416 15.2193 13.8318 15.3838C13.722 15.5484 13.5659 15.6767 13.3831 15.7525C13.2004 15.8283 12.9993 15.8482 12.8052 15.8096C12.6112 15.7711 12.4329 15.6759 12.293 15.536L9.46401 12.707Z" fill="currentColor"/>
</svg>
