<svg width="24" height="24" viewBox="0 0 24 24" fill="none" xmlns="http://www.w3.org/2000/svg">
<path fill-rule="evenodd" clip-rule="evenodd" d="M12 2C17.523 2 22 6.477 22 12C22 17.523 17.523 22 12 22C6.477 22 2 17.523 2 12C2 6.477 6.477 2 12 2ZM15.354 14.646L14.646 15.354C14.4585 15.5415 14.3532 15.7958 14.3532 16.061C14.3532 16.3262 14.4585 16.5805 14.646 16.768L16.232 18.354C16.4195 18.5415 16.6738 18.6468 16.939 18.6468C17.2042 18.6468 17.4585 18.5415 17.646 18.354L18.354 17.646C18.5415 17.4585 18.6468 17.2042 18.6468 16.939C18.6468 16.6738 18.5415 16.4195 18.354 16.232L16.768 14.646C16.5805 14.4585 16.3262 14.3532 16.061 14.3532C15.7958 14.3532 15.5415 14.4585 15.354 14.646ZM8.646 14.646C8.47381 14.4738 8.24471 14.3704 8.00168 14.3551C7.75866 14.3398 7.5184 14.4137 7.326 14.563L7.232 14.646L5.646 16.232C5.47382 16.4042 5.37039 16.6333 5.35511 16.8763C5.33983 17.1193 5.41375 17.3596 5.563 17.552L5.646 17.646L6.354 18.354C6.52619 18.5262 6.75529 18.6296 6.99832 18.6449C7.24134 18.6602 7.4816 18.5863 7.674 18.437L7.768 18.354L9.354 16.768C9.52618 16.5958 9.62961 16.3667 9.64489 16.1237C9.66017 15.8807 9.58625 15.6404 9.437 15.448L9.354 15.354L8.646 14.646ZM12 9C11.2044 9 10.4413 9.31607 9.87868 9.87868C9.31607 10.4413 9 11.2044 9 12C9 12.7956 9.31607 13.5587 9.87868 14.1213C10.4413 14.6839 11.2044 15 12 15C12.7956 15 13.5587 14.6839 14.1213 14.1213C14.6839 13.5587 15 12.7956 15 12C15 11.2044 14.6839 10.4413 14.1213 9.87868C13.5587 9.31607 12.7956 9 12 9ZM17.647 5.646C17.4748 5.47382 17.2457 5.37039 17.0027 5.35511C16.7597 5.33983 16.5194 5.41375 16.327 5.563L16.232 5.646L14.647 7.232C14.4747 7.40407 14.3711 7.6331 14.3556 7.87613C14.3401 8.11916 14.4139 8.35948 14.563 8.552L14.646 8.646L15.354 9.354C15.5262 9.52618 15.7553 9.62961 15.9983 9.64489C16.2413 9.66017 16.4816 9.58625 16.674 9.437L16.768 9.354L18.354 7.768C18.5262 7.59581 18.6296 7.36671 18.6449 7.12368C18.6602 6.88065 18.5863 6.6404 18.437 6.448L18.354 6.354L17.647 5.646ZM7.767 5.646C7.59481 5.47382 7.36571 5.37039 7.12268 5.35511C6.87965 5.33983 6.6394 5.41375 6.447 5.563L6.354 5.646L5.646 6.354C5.47382 6.52619 5.37039 6.75529 5.35511 6.99832C5.33983 7.24134 5.41375 7.4816 5.563 7.674L5.646 7.768L7.232 9.354C7.40419 9.52618 7.63329 9.62961 7.87632 9.64489C8.11935 9.66017 8.3596 9.58625 8.552 9.437L8.646 9.354L9.354 8.646C9.52618 8.47381 9.62961 8.24471 9.64489 8.00168C9.66017 7.75866 9.58625 7.5184 9.437 7.326L9.354 7.232L7.767 5.646Z" fill="currentColor"/>
</svg>
