<svg width="24" height="24" viewBox="0 0 24 24" fill="none" xmlns="http://www.w3.org/2000/svg">
<path fill-rule="evenodd" clip-rule="evenodd" d="M11.1679 2.35299C11.3931 2.20291 11.6546 2.11651 11.9248 2.10296C12.1951 2.0894 12.4639 2.14919 12.7029 2.27599L12.8329 2.35299L15.3479 4.03099C15.5185 4.14457 15.6641 4.29189 15.7755 4.46388C15.887 4.63588 15.962 4.82888 15.9959 5.03099L16.0139 5.18499L16.2539 9.03299C16.4476 9.08386 16.6216 9.19171 16.7533 9.34257C16.885 9.49343 16.9683 9.68035 16.9926 9.87914C17.0168 10.0779 16.9808 10.2794 16.8892 10.4575C16.7977 10.6356 16.6547 10.7821 16.4789 10.878L16.3719 10.928L16.9399 20H18.9999C19.2548 20.0003 19.5 20.0979 19.6853 20.2728C19.8706 20.4478 19.9822 20.6869 19.9971 20.9414C20.0121 21.1958 19.9293 21.4464 19.7657 21.6418C19.6021 21.8373 19.37 21.9629 19.1169 21.993L18.9999 22H4.99995C4.74507 21.9997 4.49991 21.9021 4.31458 21.7271C4.12924 21.5522 4.01771 21.313 4.00277 21.0586C3.98784 20.8042 4.07062 20.5536 4.23421 20.3582C4.3978 20.1627 4.62985 20.0371 4.88295 20.007L4.99995 20H7.05995L7.62795 10.929C7.44097 10.8545 7.28083 10.7253 7.16847 10.5583C7.0561 10.3913 6.99674 10.1943 6.99815 9.99305C6.99955 9.79179 7.06166 9.59563 7.17634 9.43023C7.29103 9.26482 7.45295 9.13788 7.64095 9.06599L7.74595 9.03299L7.98595 5.18499C7.99877 4.9804 8.05339 4.78061 8.14644 4.59795C8.23949 4.4153 8.36899 4.25365 8.52695 4.12299L8.65195 4.03099L11.1679 2.35299ZM5.70795 8.29299C5.89542 8.48052 6.00073 8.73483 6.00073 8.99999C6.00073 9.26516 5.89542 9.51946 5.70795 9.70699L4.70795 10.707C4.52044 10.8946 4.26607 11.0001 4.0008 11.0002C3.73553 11.0003 3.48109 10.895 3.29345 10.7075C3.10581 10.52 3.00034 10.2656 3.00024 10.0003C3.00015 9.73507 3.10544 9.48063 3.29295 9.29299L4.29295 8.29299C4.48047 8.10552 4.73478 8.00021 4.99995 8.00021C5.26511 8.00021 5.51942 8.10552 5.70695 8.29299H5.70795ZM19.7079 8.29299L20.7079 9.29299C20.8955 9.48063 21.0007 9.73507 21.0006 10.0003C21.0006 10.2656 20.8951 10.52 20.7074 10.7075C20.5198 10.895 20.2654 11.0003 20.0001 11.0002C19.7348 11.0001 19.4805 10.8946 19.2929 10.707L18.2929 9.70699C18.1108 9.51839 18.01 9.26579 18.0123 9.00359C18.0146 8.74139 18.1197 8.49058 18.3051 8.30517C18.4905 8.11976 18.7413 8.0146 19.0035 8.01232C19.2657 8.01004 19.5193 8.11083 19.7079 8.29299ZM11.9999 5.49999C11.803 5.49999 11.6079 5.53879 11.4259 5.61417C11.2439 5.68955 11.0786 5.80004 10.9393 5.93933C10.8 6.07862 10.6895 6.24398 10.6141 6.42597C10.5387 6.60795 10.4999 6.80301 10.4999 6.99999C10.4999 7.19697 10.5387 7.39203 10.6141 7.57402C10.6895 7.756 10.8 7.92136 10.9393 8.06065C11.0786 8.19994 11.2439 8.31043 11.4259 8.38581C11.6079 8.46119 11.803 8.49999 11.9999 8.49999C12.3978 8.49999 12.7793 8.34196 13.0606 8.06065C13.3419 7.77935 13.4999 7.39782 13.4999 6.99999C13.4999 6.60217 13.3419 6.22064 13.0606 5.93933C12.7793 5.65803 12.3978 5.49999 11.9999 5.49999ZM4.70695 4.29299L5.70695 5.29299C5.8891 5.48159 5.9899 5.7342 5.98762 5.99639C5.98534 6.25859 5.88017 6.5094 5.69477 6.69481C5.50936 6.88022 5.25854 6.98539 4.99635 6.98767C4.73415 6.98994 4.48155 6.88915 4.29295 6.70699L3.29295 5.70699C3.11079 5.51839 3.00999 5.26579 3.01227 5.00359C3.01455 4.74139 3.11972 4.49058 3.30513 4.30517C3.49054 4.11976 3.74135 4.0146 4.00355 4.01232C4.26574 4.01004 4.51834 4.11083 4.70695 4.29299ZM19.2929 4.29299C19.4729 4.11364 19.7144 4.00952 19.9683 4.00176C20.2223 3.99401 20.4697 4.08321 20.6602 4.25124C20.8508 4.41927 20.9703 4.65354 20.9943 4.90647C21.0184 5.15939 20.9454 5.412 20.7899 5.61299L20.7069 5.70699L19.7069 6.70699C19.527 6.88634 19.2855 6.99046 19.0316 6.99822C18.7776 7.00597 18.5302 6.91678 18.3397 6.74874C18.1491 6.58071 18.0296 6.34644 18.0055 6.09352C17.9815 5.84059 18.0545 5.58798 18.2099 5.38699L18.2929 5.29299L19.2929 4.29299Z" fill="currentColor"/>
</svg>
