<svg width="24" height="24" viewBox="0 0 24 24" fill="none" xmlns="http://www.w3.org/2000/svg">
<path d="M7.0598 2.94001L9.1818 5.06001C9.43181 5.30821 9.58648 5.6365 9.6187 5.98731C9.65093 6.33813 9.55864 6.6891 9.35802 6.97869C9.15741 7.26829 8.86126 7.47803 8.5215 7.57115C8.18173 7.66428 7.82003 7.63484 7.4998 7.48801V16.514C7.8197 16.3684 8.18059 16.3397 8.51948 16.433C8.85836 16.5263 9.15371 16.7357 9.35399 17.0245C9.55426 17.3134 9.64673 17.6634 9.61526 18.0135C9.58379 18.3636 9.43038 18.6915 9.1818 18.94L7.0608 21.062C6.9215 21.2014 6.7561 21.312 6.57404 21.3874C6.39199 21.4629 6.19686 21.5017 5.9998 21.5017C5.80273 21.5017 5.6076 21.4629 5.42555 21.3874C5.2435 21.312 5.0781 21.2014 4.9388 21.062L2.8178 18.94C2.56851 18.6916 2.41447 18.3636 2.38262 18.0131C2.35078 17.6627 2.44316 17.3122 2.6436 17.0229C2.84404 16.7337 3.13979 16.5242 3.47911 16.4309C3.81843 16.3377 4.17973 16.3668 4.4998 16.513V7.48701C4.17989 7.63264 3.819 7.6613 3.48012 7.568C3.14124 7.47469 2.84588 7.26533 2.64561 6.97647C2.44534 6.68761 2.35287 6.3376 2.38434 5.98752C2.41581 5.63743 2.56922 5.30952 2.8178 5.06101L4.9388 2.93901C5.0781 2.79962 5.2435 2.68904 5.42555 2.6136C5.6076 2.53816 5.80273 2.49933 5.9998 2.49933C6.19686 2.49933 6.39199 2.53816 6.57404 2.6136C6.7561 2.68904 6.9215 2.79962 7.0608 2.93901L7.0598 2.94001ZM19.9998 17.5C20.385 17.5002 20.7554 17.6486 21.0342 17.9144C21.313 18.1803 21.4788 18.5432 21.4973 18.9279C21.5158 19.3127 21.3856 19.6898 21.1336 19.9812C20.8816 20.2726 20.5272 20.4558 20.1438 20.493L19.9998 20.5H11.9998C11.6146 20.4998 11.2442 20.3514 10.9654 20.0856C10.6866 19.8198 10.5208 19.4569 10.5023 19.0721C10.4838 18.6873 10.614 18.3102 10.866 18.0188C11.118 17.7274 11.4724 17.5442 11.8558 17.507L11.9998 17.5H19.9998ZM19.9998 10.5C20.385 10.5002 20.7554 10.6486 21.0342 10.9144C21.313 11.1803 21.4788 11.5432 21.4973 11.9279C21.5158 12.3127 21.3856 12.6898 21.1336 12.9812C20.8816 13.2726 20.5272 13.4558 20.1438 13.493L19.9998 13.5H11.9998C11.6146 13.4998 11.2442 13.3514 10.9654 13.0856C10.6866 12.8198 10.5208 12.4569 10.5023 12.0721C10.4838 11.6873 10.614 11.3102 10.866 11.0188C11.118 10.7274 11.4724 10.5442 11.8558 10.507L11.9998 10.5H19.9998ZM19.9998 3.50001C20.3976 3.50001 20.7792 3.65804 21.0605 3.93935C21.3418 4.22065 21.4998 4.60218 21.4998 5.00001C21.4998 5.39783 21.3418 5.77936 21.0605 6.06067C20.7792 6.34197 20.3976 6.50001 19.9998 6.50001H11.9998C11.602 6.50001 11.2204 6.34197 10.9391 6.06067C10.6578 5.77936 10.4998 5.39783 10.4998 5.00001C10.4998 4.60218 10.6578 4.22065 10.9391 3.93935C11.2204 3.65804 11.602 3.50001 11.9998 3.50001H19.9998Z" fill="currentColor"/>
</svg>
