<svg width="24" height="24" viewBox="0 0 24 24" fill="none" xmlns="http://www.w3.org/2000/svg">
<path fill-rule="evenodd" clip-rule="evenodd" d="M12 3C17.344 3 22 6.643 22 11.5C22 13.957 20.664 16.08 18.801 17.79C16.934 19.505 14.442 20.9 11.871 21.929C11.613 22.033 11.3251 22.0349 11.0656 21.9344C10.8062 21.834 10.5947 21.6386 10.474 21.388C10.37 21.169 10.344 20.935 10.337 20.698L10.333 20.163C10.3309 20.1042 10.3269 20.0455 10.321 19.987C10.287 19.638 10.195 19.417 9.828 19.352C5.548 18.606 2 15.74 2 11.5C2 6.643 6.656 3 12 3ZM14 9C13.7348 9 13.4804 9.10536 13.2929 9.29289C13.1054 9.48043 13 9.73478 13 10V10.238L12.268 9.36C12.1364 9.20222 11.9594 9.0888 11.7611 9.03515C11.5628 8.9815 11.3528 8.99023 11.1596 9.06016C10.9664 9.13009 10.7995 9.25781 10.6815 9.42597C10.5635 9.59413 10.5001 9.79456 10.5 10V13C10.5 13.2652 10.6054 13.5196 10.7929 13.7071C10.9804 13.8946 11.2348 14 11.5 14C11.7652 14 12.0196 13.8946 12.2071 13.7071C12.3946 13.5196 12.5 13.2652 12.5 13V12.762L13.232 13.64C13.3636 13.7978 13.5406 13.9112 13.7389 13.9649C13.9372 14.0185 14.1472 14.0098 14.3404 13.9398C14.5336 13.8699 14.7005 13.7422 14.8185 13.574C14.9365 13.4059 14.9999 13.2054 15 13V10C15 9.73478 14.8946 9.48043 14.7071 9.29289C14.5196 9.10536 14.2652 9 14 9ZM6 9C5.73478 9 5.48043 9.10536 5.29289 9.29289C5.10536 9.48043 5 9.73478 5 10V13C5 13.2652 5.10536 13.5196 5.29289 13.7071C5.48043 13.8946 5.73478 14 6 14H7C7.26522 14 7.51957 13.8946 7.70711 13.7071C7.89464 13.5196 8 13.2652 8 13C8 12.7348 7.89464 12.4804 7.70711 12.2929C7.51957 12.1054 7.26522 12 7 12V10C7 9.73478 6.89464 9.48043 6.70711 9.29289C6.51957 9.10536 6.26522 9 6 9ZM9 9C8.75507 9.00003 8.51866 9.08996 8.33563 9.25272C8.15259 9.41547 8.03566 9.63975 8.007 9.883L8 10V13C8.00028 13.2549 8.09788 13.5 8.27285 13.6854C8.44782 13.8707 8.68695 13.9822 8.94139 13.9972C9.19584 14.0121 9.44638 13.9293 9.64183 13.7657C9.83729 13.6021 9.9629 13.3701 9.993 13.117L10 13V10C10 9.73478 9.89464 9.48043 9.70711 9.29289C9.51957 9.10536 9.26522 9 9 9ZM18 9H16.5C16.2551 9.00003 16.0187 9.08996 15.8356 9.25272C15.6526 9.41547 15.5357 9.63975 15.507 9.883L15.5 10V13C15.5 13.2449 15.59 13.4813 15.7527 13.6644C15.9155 13.8474 16.1397 13.9643 16.383 13.993L16.5 14H18C18.2549 13.9997 18.5 13.9021 18.6854 13.7272C18.8707 13.5522 18.9822 13.313 18.9972 13.0586C19.0121 12.8042 18.9293 12.5536 18.7657 12.3582C18.6021 12.1627 18.3701 12.0371 18.117 12.007L18 12H17.866C17.9433 11.8669 17.9887 11.7178 17.9986 11.5642C18.0084 11.4106 17.9826 11.2569 17.923 11.115L17.866 11H18C18.2549 10.9997 18.5 10.9021 18.6854 10.7272C18.8707 10.5522 18.9822 10.313 18.9972 10.0586C19.0121 9.80416 18.9293 9.55362 18.7657 9.35817C18.6021 9.16271 18.3701 9.0371 18.117 9.007L18 9Z" fill="currentColor"/>
</svg>
