<svg width="24" height="24" viewBox="0 0 24 24" fill="none" xmlns="http://www.w3.org/2000/svg">
<path fill-rule="evenodd" clip-rule="evenodd" d="M4.92943 4.92899C8.83443 1.02399 15.1664 1.02399 19.0714 4.92899C22.9764 8.83399 22.9764 15.166 19.0714 19.071C18.8839 19.2585 18.6296 19.3638 18.3644 19.3638C18.0993 19.3638 17.845 19.2585 17.6574 19.071L4.92943 6.34299C4.74196 6.15547 4.63665 5.90116 4.63665 5.63599C4.63665 5.37083 4.74196 5.11652 4.92943 4.92899ZM3.16943 7.41199C3.26231 7.31902 3.3726 7.24526 3.49399 7.19493C3.61539 7.14461 3.74552 7.11871 3.87693 7.11871C4.00835 7.11871 4.13848 7.14461 4.25988 7.19493C4.38127 7.24526 4.49156 7.31902 4.58443 7.41199L16.5884 19.416C16.6813 19.5089 16.7549 19.6192 16.8051 19.7406C16.8554 19.8619 16.8812 19.992 16.8811 20.1233C16.8811 20.2547 16.8552 20.3848 16.8049 20.5061C16.7546 20.6274 16.6808 20.7376 16.5879 20.8305C16.495 20.9233 16.3847 20.997 16.2634 21.0472C16.142 21.0974 16.0119 21.1232 15.8806 21.1232C15.7492 21.1232 15.6192 21.0972 15.4978 21.0469C15.3765 20.9966 15.2663 20.9229 15.1734 20.83L3.17043 8.82699C3.07746 8.73412 3.0037 8.62383 2.95338 8.50243C2.90305 8.38104 2.87715 8.25091 2.87715 8.11949C2.87715 7.98808 2.90305 7.85795 2.95338 7.73655C3.0037 7.61516 3.07746 7.50487 3.17043 7.41199H3.16943ZM2.30743 10.792C2.49496 10.6045 2.74927 10.4992 3.01443 10.4992C3.2796 10.4992 3.53391 10.6045 3.72143 10.792L13.2084 20.279C13.3906 20.4676 13.4914 20.7202 13.4891 20.9824C13.4868 21.2446 13.3817 21.4954 13.1963 21.6808C13.0108 21.8662 12.76 21.9714 12.4978 21.9737C12.2356 21.9759 11.983 21.8752 11.7944 21.693L2.30743 12.206C2.11996 12.0185 2.01465 11.7642 2.01465 11.499C2.01465 11.2338 2.11996 10.9795 2.30743 10.792ZM2.80743 15.536C2.90031 15.443 3.0106 15.3693 3.13199 15.3189C3.25339 15.2686 3.38352 15.2427 3.51493 15.2427C3.64635 15.2427 3.77648 15.2686 3.89788 15.3189C4.01927 15.3693 4.12956 15.443 4.22243 15.536L8.46443 19.778C8.55994 19.8702 8.63613 19.9806 8.68854 20.1026C8.74095 20.2246 8.76853 20.3558 8.76969 20.4886C8.77084 20.6214 8.74554 20.7531 8.69526 20.8759C8.64498 20.9988 8.57072 21.1105 8.47683 21.2044C8.38294 21.2983 8.27129 21.3725 8.14839 21.4228C8.02549 21.4731 7.89381 21.4984 7.76103 21.4972C7.62825 21.4961 7.49703 21.4685 7.37503 21.4161C7.25303 21.3637 7.14268 21.2875 7.05044 21.192L2.80843 16.95C2.62096 16.7625 2.51565 16.5082 2.51565 16.243C2.51565 15.9778 2.62096 15.7235 2.80843 15.536H2.80743Z" fill="currentColor"/>
</svg>
