<svg width="24" height="24" viewBox="0 0 24 24" fill="none" xmlns="http://www.w3.org/2000/svg">
<path d="M17.303 9.52397L20.485 12.706C21.0013 13.2154 21.4118 13.822 21.6927 14.4908C21.9737 15.1595 22.1196 15.8772 22.122 16.6026C22.1244 17.328 21.9834 18.0467 21.7069 18.7173C21.4304 19.3879 21.024 19.9972 20.5111 20.5101C19.9982 21.023 19.3889 21.4294 18.7183 21.7059C18.0477 21.9824 17.329 22.1234 16.6036 22.121C15.8783 22.1186 15.1605 21.9727 14.4918 21.6917C13.823 21.4108 13.2165 21.0003 12.707 20.484L11.647 19.424C11.5037 19.2857 11.3893 19.1202 11.3106 18.9372C11.2319 18.7543 11.1904 18.5575 11.1886 18.3583C11.1868 18.1591 11.2247 17.9616 11.3 17.7772C11.3753 17.5928 11.4866 17.4253 11.6274 17.2844C11.7682 17.1435 11.9356 17.032 12.1199 16.9565C12.3042 16.881 12.5017 16.843 12.7009 16.8446C12.9 16.8462 13.0969 16.8875 13.2799 16.9661C13.463 17.0446 13.6285 17.1588 13.767 17.302L14.829 18.363C15.2986 18.8284 15.9334 19.0888 16.5946 19.0872C17.2557 19.0857 17.8893 18.8223 18.3568 18.3548C18.8242 17.8872 19.0874 17.2535 19.0887 16.5924C19.0901 15.9312 18.8295 15.2964 18.364 14.827L15.182 11.645C14.8381 11.3009 14.4012 11.0646 13.925 10.9652C13.4488 10.8657 12.9539 10.9073 12.501 11.085C12.339 11.149 12.189 11.215 12.047 11.281L11.583 11.498C10.963 11.778 10.486 11.898 9.87899 11.292C9.00699 10.42 9.23299 9.61497 10.296 8.88197C11.355 8.15371 12.6356 7.81919 13.9155 7.93646C15.1954 8.05373 16.3939 8.61539 17.303 9.52397ZM11.293 3.51397L12.353 4.57397C12.6264 4.85675 12.7777 5.23558 12.7745 5.62888C12.7713 6.02218 12.6137 6.39847 12.3357 6.67672C12.0577 6.95496 11.6816 7.11289 11.2883 7.11649C10.895 7.1201 10.516 6.96908 10.233 6.69597L9.17199 5.63597C8.94144 5.39713 8.66563 5.2066 8.36066 5.07549C8.05568 4.94438 7.72765 4.87533 7.39571 4.87235C7.06376 4.86937 6.73454 4.93253 6.42727 5.05815C6.11999 5.18376 5.84081 5.36932 5.60601 5.60398C5.37121 5.83865 5.1855 6.11772 5.05971 6.42493C4.93393 6.73213 4.87058 7.06131 4.87337 7.39326C4.87616 7.72521 4.94503 8.05328 5.07597 8.35833C5.2069 8.66337 5.39728 8.93929 5.63599 9.16997L8.81799 12.352C9.16191 12.6961 9.59876 12.9323 10.075 13.0318C10.5512 13.1312 11.0461 13.0896 11.499 12.912C11.661 12.848 11.811 12.782 11.953 12.716L12.417 12.499C13.037 12.219 13.515 12.099 14.121 12.705C14.993 13.577 14.767 14.382 13.704 15.115C12.6449 15.8432 11.3644 16.1778 10.0844 16.0605C8.80453 15.9432 7.60606 15.3816 6.69699 14.473L3.51499 11.291C2.99865 10.7815 2.58818 10.1749 2.30723 9.50618C2.02628 8.83743 1.88039 8.11971 1.87796 7.39434C1.87553 6.66897 2.01661 5.95029 2.29307 5.27967C2.56954 4.60905 2.97593 3.99974 3.48884 3.48683C4.00176 2.97391 4.61107 2.56752 5.28169 2.29106C5.95231 2.0146 6.67099 1.87352 7.39636 1.87595C8.12172 1.87838 8.83944 2.02427 9.5082 2.30522C10.1769 2.58617 10.7835 2.99763 11.293 3.51397Z" fill="currentColor"/>
</svg>
