<svg width="24" height="24" viewBox="0 0 24 24" fill="none" xmlns="http://www.w3.org/2000/svg">
<path fill-rule="evenodd" clip-rule="evenodd" d="M5.99978 4.5C4.789 4.49983 3.61201 4.8992 2.65134 5.63617C1.69068 6.37313 1.00005 7.4065 0.686568 8.57599C0.373085 9.74549 0.454271 10.9857 0.917535 12.1044C1.3808 13.223 2.20025 14.1576 3.24878 14.763C3.59317 14.9622 4.00257 15.0164 4.38692 14.9137C4.57724 14.8629 4.75567 14.775 4.91205 14.6552C5.06842 14.5354 5.19966 14.386 5.29828 14.2155C5.39691 14.045 5.46098 13.8567 5.48684 13.6614C5.5127 13.4661 5.49984 13.2677 5.449 13.0774C5.39816 12.887 5.31033 12.7086 5.19053 12.5522C5.07073 12.3959 4.9213 12.2646 4.75078 12.166C4.27379 11.8911 3.90088 11.4664 3.68994 10.9579C3.479 10.4493 3.44182 9.88538 3.58418 9.35356C3.72654 8.82173 4.04048 8.35177 4.47726 8.01662C4.91404 7.68146 5.44923 7.49986 5.99978 7.5H11.9998C12.6086 7.49939 13.1967 7.72098 13.6538 8.12318C14.1109 8.52538 14.4055 9.08055 14.4823 9.68452C14.5591 10.2885 14.4129 10.8997 14.0711 11.4036C13.7293 11.9074 13.2154 12.2692 12.6258 12.421C12.2404 12.5202 11.9103 12.7684 11.7079 13.111C11.5055 13.4537 11.4476 13.8626 11.5468 14.248C11.646 14.6334 11.8942 14.9635 12.2368 15.1659C12.5794 15.3682 12.9884 15.4262 13.3738 15.327C14.6682 14.9905 15.7958 14.194 16.5456 13.0864C17.2954 11.9789 17.6161 10.6362 17.4477 9.30931C17.2793 7.98247 16.6334 6.7624 15.6307 5.87725C14.628 4.99211 13.3373 4.5025 11.9998 4.5H5.99978ZM11.3738 11.579C11.7591 11.4798 12.0893 11.2316 12.2917 10.889C12.494 10.5463 12.552 10.1374 12.4528 9.752C12.3536 9.36664 12.1054 9.03647 11.7628 8.83412C11.4201 8.63176 11.0111 8.57381 10.6258 8.673C9.33133 9.00951 8.20377 9.80601 7.45397 10.9136C6.70417 12.0211 6.38347 13.3638 6.55186 14.6907C6.72024 16.0175 7.36617 17.2376 8.36885 18.1227C9.37153 19.0079 10.6623 19.4975 11.9998 19.5H17.9998C19.2106 19.5002 20.3876 19.1008 21.3482 18.3638C22.3089 17.6269 22.9995 16.5935 23.313 15.424C23.6265 14.2545 23.5453 13.0143 23.082 11.8956C22.6188 10.777 21.7993 9.84244 20.7508 9.237C20.4064 9.03782 19.997 8.98361 19.6126 9.08628C19.2283 9.18896 18.9005 9.44012 18.7013 9.7845C18.5021 10.1289 18.4479 10.5383 18.5506 10.9226C18.6532 11.307 18.9044 11.6348 19.2488 11.834C19.7258 12.1089 20.0987 12.5336 20.3096 13.0421C20.5206 13.5507 20.5577 14.1146 20.4154 14.6464C20.273 15.1783 19.9591 15.6482 19.5223 15.9834C19.0855 16.3185 18.5503 16.5001 17.9998 16.5H11.9998C11.391 16.5006 10.8028 16.279 10.3458 15.8768C9.88869 15.4746 9.5941 14.9194 9.51727 14.3155C9.44044 13.7115 9.58665 13.1003 9.92846 12.5964C10.2703 12.0926 10.7842 11.7308 11.3738 11.579Z" fill="currentColor"/>
</svg>
