<svg width="24" height="24" viewBox="0 0 24 24" fill="none" xmlns="http://www.w3.org/2000/svg">
<path d="M15.8891 9.52503C16.1516 9.26257 16.5021 9.10676 16.8728 9.08774C17.2435 9.06871 17.6081 9.18782 17.8961 9.42203L18.0101 9.52503L20.1321 11.646C21.2473 12.7546 21.8827 14.2567 21.9017 15.8291C21.9206 17.4014 21.3215 18.9184 20.2333 20.0535C19.1451 21.1886 17.6548 21.8512 16.083 21.8986C14.5113 21.946 12.9837 21.3745 11.8291 20.307L11.6461 20.132L9.52507 18.01C9.25422 17.7379 9.09801 17.3723 9.08861 16.9885C9.07922 16.6047 9.21735 16.2319 9.47457 15.9469C9.73179 15.6618 10.0885 15.4863 10.4713 15.4564C10.854 15.4264 11.2337 15.5444 11.5321 15.786L11.6461 15.889L13.7681 18.01C14.3193 18.5571 15.0612 18.8692 15.8377 18.8805C16.6143 18.8919 17.3649 18.6016 17.9319 18.0708C18.4988 17.54 18.8378 16.81 18.8776 16.0344C18.9173 15.2588 18.6548 14.498 18.1451 13.912L18.0101 13.768L15.8891 11.646C15.6079 11.3647 15.4499 10.9833 15.4499 10.5855C15.4499 10.1878 15.6079 9.80632 15.8891 9.52503ZM8.81807 8.81803C9.08057 8.55557 9.43106 8.39976 9.80177 8.38074C10.1725 8.36171 10.5371 8.48082 10.8251 8.71503L10.9391 8.81803L15.1821 13.061C15.4548 13.3328 15.6126 13.6991 15.6228 14.084C15.633 14.4689 15.4947 14.843 15.2367 15.1288C14.9786 15.4146 14.6206 15.5902 14.2366 15.6193C13.8526 15.6484 13.4722 15.5287 13.1741 15.285L13.0601 15.182L8.81807 10.939C8.53686 10.6577 8.37889 10.2763 8.37889 9.87853C8.37889 9.48078 8.53686 9.09932 8.81807 8.81803ZM3.86807 3.86803C4.9623 2.77398 6.4369 2.14497 7.98391 2.11236C9.53091 2.07975 11.0307 2.64606 12.1701 3.69303L12.3541 3.86803L14.4741 5.99003C14.7449 6.26213 14.9011 6.62773 14.9105 7.01154C14.9199 7.39535 14.7818 7.76816 14.5246 8.05319C14.2674 8.33821 13.9106 8.51376 13.5279 8.54368C13.1451 8.57361 12.7655 8.45562 12.4671 8.21403L12.3531 8.11103L10.2331 5.99003C9.68257 5.43965 8.93969 5.1248 8.16135 5.11199C7.38302 5.09918 6.63018 5.38942 6.06186 5.92138C5.49355 6.45335 5.15426 7.18539 5.11568 7.96288C5.07709 8.74036 5.34222 9.5024 5.85507 10.088L5.99007 10.232L8.11007 12.354C8.38092 12.6261 8.53713 12.9917 8.54653 13.3755C8.55592 13.7594 8.41779 14.1322 8.16057 14.4172C7.90336 14.7022 7.54664 14.8778 7.16388 14.9077C6.78112 14.9376 6.40145 14.8196 6.10307 14.578L5.99007 14.475L3.86807 12.354C3.31081 11.7969 2.86876 11.1354 2.56717 10.4074C2.26558 9.67934 2.11035 8.89904 2.11035 8.11103C2.11035 7.32301 2.26558 6.54271 2.56717 5.81469C2.86876 5.08667 3.31081 4.42519 3.86807 3.86803Z" fill="currentColor"/>
</svg>
