<svg width="24" height="24" viewBox="0 0 24 24" fill="none" xmlns="http://www.w3.org/2000/svg">
<path fill-rule="evenodd" clip-rule="evenodd" d="M9.556 2C10.306 2 10.923 2.573 10.993 3.305L11 3.445V10.268C11.2792 10.4292 11.5154 10.6555 11.6883 10.9277C11.8612 11.1998 11.9657 11.5097 11.993 11.831L12 12V21C12 21.2449 11.91 21.4813 11.7473 21.6644C11.5845 21.8474 11.3603 21.9643 11.117 21.993L11 22H5C4.75507 22 4.51866 21.91 4.33563 21.7473C4.15259 21.5845 4.03566 21.3603 4.007 21.117L4 21V12C4 11.317 4.343 10.713 4.866 10.353L5 10.268V6.556C5 5.34767 5.48001 4.18884 6.33442 3.33442C7.18884 2.48001 8.34767 2 9.556 2ZM10 13H6V15H10V13ZM9 4.06C8.46149 4.18023 7.97632 4.47143 7.61693 4.89011C7.25755 5.30879 7.04324 5.83249 7.006 6.383L7 6.556V10H9V4.06ZM17 10C15.9391 10 14.9217 10.4214 14.1716 11.1716C13.4214 11.9217 13 12.9391 13 14V21C13 21.2652 13.1054 21.5196 13.2929 21.7071C13.4804 21.8946 13.7348 22 14 22H20C20.2652 22 20.5196 21.8946 20.7071 21.7071C20.8946 21.5196 21 21.2652 21 21V14C21 12.9391 20.5786 11.9217 19.8284 11.1716C19.0783 10.4214 18.0609 10 17 10Z" fill="currentColor"/>
</svg>
