<svg width="24" height="24" viewBox="0 0 24 24" fill="none" xmlns="http://www.w3.org/2000/svg">
<path d="M4 3.5C3.60218 3.5 3.22064 3.65804 2.93934 3.93934C2.65804 4.22064 2.5 4.60218 2.5 5C2.5 5.39782 2.65804 5.77936 2.93934 6.06066C3.22064 6.34196 3.60218 6.5 4 6.5H20C20.3978 6.5 20.7794 6.34196 21.0607 6.06066C21.342 5.77936 21.5 5.39782 21.5 5C21.5 4.60218 21.342 4.22064 21.0607 3.93934C20.7794 3.65804 20.3978 3.5 20 3.5H4ZM8 17.5C8.39782 17.5 8.77936 17.658 9.06066 17.9393C9.34196 18.2206 9.5 18.6022 9.5 19C9.5 19.3978 9.34196 19.7794 9.06066 20.0607C8.77936 20.342 8.39782 20.5 8 20.5H4C3.60218 20.5 3.22064 20.342 2.93934 20.0607C2.65804 19.7794 2.5 19.3978 2.5 19C2.5 18.6022 2.65804 18.2206 2.93934 17.9393C3.22064 17.658 3.60218 17.5 4 17.5H8ZM15 8.5C15.9589 8.49978 16.9013 8.75028 17.7335 9.22665C18.5657 9.70302 19.2589 10.3887 19.7444 11.2157C20.2298 12.0426 20.4906 12.9822 20.5009 13.941C20.5112 14.8999 20.2706 15.8448 19.803 16.682L21.061 17.939C21.3424 18.2204 21.5005 18.602 21.5005 19C21.5005 19.398 21.3424 19.7796 21.061 20.061C20.7796 20.3424 20.398 20.5005 20 20.5005C19.602 20.5005 19.2204 20.3424 18.939 20.061L17.682 18.803C16.9483 19.2123 16.1307 19.4482 15.2917 19.4924C14.4527 19.5366 13.6148 19.388 12.8422 19.0581C12.0695 18.7281 11.3828 18.2256 10.8345 17.5889C10.2863 16.9523 9.89125 16.1986 9.67961 15.3855C9.46797 14.5725 9.44539 13.7218 9.61362 12.8987C9.78185 12.0756 10.1364 11.3019 10.6501 10.6371C11.1638 9.97235 11.8229 9.43407 12.5769 9.0636C13.331 8.69314 14.1599 8.50034 15 8.5ZM15 11.5C14.337 11.5 13.7011 11.7634 13.2322 12.2322C12.7634 12.7011 12.5 13.337 12.5 14C12.5 14.663 12.7634 15.2989 13.2322 15.7678C13.7011 16.2366 14.337 16.5 15 16.5C15.663 16.5 16.2989 16.2366 16.7678 15.7678C17.2366 15.2989 17.5 14.663 17.5 14C17.5 13.337 17.2366 12.7011 16.7678 12.2322C16.2989 11.7634 15.663 11.5 15 11.5ZM7 10.5C7.39782 10.5 7.77936 10.658 8.06066 10.9393C8.34196 11.2206 8.5 11.6022 8.5 12C8.5 12.3978 8.34196 12.7794 8.06066 13.0607C7.77936 13.342 7.39782 13.5 7 13.5H4C3.60218 13.5 3.22064 13.342 2.93934 13.0607C2.65804 12.7794 2.5 12.3978 2.5 12C2.5 11.6022 2.65804 11.2206 2.93934 10.9393C3.22064 10.658 3.60218 10.5 4 10.5H7Z" fill="currentColor"/>
</svg>
