<svg width="24" height="24" viewBox="0 0 24 24" fill="none" xmlns="http://www.w3.org/2000/svg">
<path d="M4 6.5C3.60218 6.5 3.22064 6.34196 2.93934 6.06066C2.65804 5.77936 2.5 5.39782 2.5 5C2.5 4.60218 2.65804 4.22064 2.93934 3.93934C3.22064 3.65804 3.60218 3.5 4 3.5H11.5C11.8978 3.5 12.2794 3.65804 12.5607 3.93934C12.842 4.22064 13 4.60218 13 5C13 5.39782 12.842 5.77936 12.5607 6.06066C12.2794 6.34196 11.8978 6.5 11.5 6.5H4ZM21.312 8.174C21.597 8.732 21.167 9.394 20.481 9.453L20.113 9.482L19.673 9.509L19.167 9.533C18.9781 9.54012 18.789 9.54545 18.6 9.549L17.976 9.555L17.386 9.55L16.846 9.535L16.139 9.502L15.569 9.462C15.5163 9.45752 15.4637 9.45285 15.411 9.448C14.771 9.391 14.403 8.79 14.684 8.238L14.931 7.77L15.144 7.388L15.398 6.957C15.6946 6.46368 16.0081 5.98072 16.338 5.509L16.631 5.099L16.768 4.914L17.128 4.446L17.228 4.319C17.626 3.827 18.394 3.809 18.77 4.273L18.983 4.541L19.235 4.869L19.373 5.056L19.671 5.471L19.829 5.699L20.159 6.195C20.322 6.445 20.471 6.684 20.605 6.907L20.854 7.33L21.064 7.708L21.239 8.033L21.312 8.174ZM21.312 18.174C21.597 18.732 21.167 19.394 20.481 19.453L20.113 19.481L19.673 19.509L19.167 19.533L18.6 19.549C18.392 19.553 18.184 19.555 17.976 19.555L17.386 19.55L16.846 19.535L16.139 19.501L15.569 19.461C15.5163 19.4569 15.4637 19.4525 15.411 19.448C14.771 19.391 14.403 18.79 14.684 18.238L14.839 17.94L14.931 17.77L15.144 17.388L15.398 16.957L15.692 16.48C15.851 16.2288 16.0144 15.9805 16.182 15.735L16.488 15.297L16.768 14.914L17.128 14.446L17.228 14.319C17.626 13.827 18.394 13.809 18.77 14.273L18.983 14.541L19.235 14.869L19.373 15.056L19.671 15.471L19.829 15.699L20.159 16.195C20.322 16.445 20.471 16.684 20.605 16.906L20.854 17.33L21.064 17.707L21.239 18.032L21.312 18.174ZM4 20.5C3.60218 20.5 3.22064 20.342 2.93934 20.0607C2.65804 19.7794 2.5 19.3978 2.5 19C2.5 18.6022 2.65804 18.2206 2.93934 17.9393C3.22064 17.658 3.60218 17.5 4 17.5H11.5C11.8978 17.5 12.2794 17.658 12.5607 17.9393C12.842 18.2206 13 18.6022 13 19C13 19.3978 12.842 19.7794 12.5607 20.0607C12.2794 20.342 11.8978 20.5 11.5 20.5H4ZM2.5 12C2.5 12.3978 2.65804 12.7794 2.93934 13.0607C3.22064 13.342 3.60218 13.5 4 13.5H11.5C11.8978 13.5 12.2794 13.342 12.5607 13.0607C12.842 12.7794 13 12.3978 13 12C13 11.6022 12.842 11.2206 12.5607 10.9393C12.2794 10.658 11.8978 10.5 11.5 10.5H4C3.60218 10.5 3.22064 10.658 2.93934 10.9393C2.65804 11.2206 2.5 11.6022 2.5 12Z" fill="currentColor"/>
</svg>
