<svg width="24" height="24" viewBox="0 0 24 24" fill="none" xmlns="http://www.w3.org/2000/svg">
<path d="M4 3.5C3.60218 3.5 3.22064 3.65804 2.93934 3.93934C2.65804 4.22064 2.5 4.60218 2.5 5C2.5 5.39782 2.65804 5.77936 2.93934 6.06066C3.22064 6.34196 3.60218 6.5 4 6.5H11.5C11.8978 6.5 12.2794 6.34196 12.5607 6.06066C12.842 5.77936 13 5.39782 13 5C13 4.60218 12.842 4.22064 12.5607 3.93934C12.2794 3.65804 11.8978 3.5 11.5 3.5H4ZM21.312 5.826C21.597 5.268 21.167 4.606 20.481 4.547L20.113 4.519L19.673 4.491L19.167 4.467L18.6 4.451C18.392 4.44696 18.184 4.44496 17.976 4.445L17.386 4.45L16.846 4.465L16.139 4.499L15.569 4.539L15.411 4.552C14.771 4.609 14.403 5.21 14.684 5.762L14.839 6.06L14.931 6.23L15.144 6.612L15.398 7.043C15.6475 7.45782 15.9089 7.86533 16.182 8.265L16.488 8.703L16.768 9.086L17.128 9.554L17.228 9.681C17.626 10.173 18.394 10.191 18.77 9.727L18.983 9.459L19.235 9.131L19.373 8.944L19.671 8.529L19.829 8.301L20.159 7.806C20.322 7.555 20.471 7.316 20.605 7.093L20.854 6.67L21.064 6.293L21.239 5.967L21.312 5.826ZM21.312 15.826C21.597 15.268 21.167 14.606 20.481 14.547L20.113 14.518L19.673 14.491L19.167 14.467C18.9781 14.4599 18.789 14.4546 18.6 14.451L17.976 14.445L17.386 14.45L16.846 14.465L16.139 14.498L15.569 14.538L15.411 14.552C14.771 14.609 14.403 15.21 14.684 15.762L14.931 16.23L15.144 16.612L15.398 17.043C15.6946 17.5363 16.0081 18.0193 16.338 18.491L16.631 18.901L16.768 19.086L17.128 19.554L17.228 19.681C17.626 20.173 18.394 20.191 18.77 19.727L18.983 19.459L19.235 19.131L19.373 18.944L19.671 18.529L19.829 18.301L20.159 17.805C20.322 17.555 20.471 17.316 20.605 17.093L20.854 16.67L21.064 16.292L21.239 15.967L21.312 15.826ZM2.5 12C2.5 11.6022 2.65804 11.2206 2.93934 10.9393C3.22064 10.658 3.60218 10.5 4 10.5H11.5C11.8978 10.5 12.2794 10.658 12.5607 10.9393C12.842 11.2206 13 11.6022 13 12C13 12.3978 12.842 12.7794 12.5607 13.0607C12.2794 13.342 11.8978 13.5 11.5 13.5H4C3.60218 13.5 3.22064 13.342 2.93934 13.0607C2.65804 12.7794 2.5 12.3978 2.5 12ZM4 17.5C3.60218 17.5 3.22064 17.658 2.93934 17.9393C2.65804 18.2206 2.5 18.6022 2.5 19C2.5 19.3978 2.65804 19.7794 2.93934 20.0607C3.22064 20.342 3.60218 20.5 4 20.5H11.5C11.8978 20.5 12.2794 20.342 12.5607 20.0607C12.842 19.7794 13 19.3978 13 19C13 18.6022 12.842 18.2206 12.5607 17.9393C12.2794 17.658 11.8978 17.5 11.5 17.5H4Z" fill="currentColor"/>
</svg>
