<svg width="24" height="24" viewBox="0 0 24 24" fill="none" xmlns="http://www.w3.org/2000/svg">
<path d="M5.43597 16.72C5.70067 16.7205 5.96031 16.7926 6.18732 16.9287C6.41434 17.0649 6.60026 17.2599 6.72536 17.4932C6.85045 17.7265 6.91006 17.9893 6.89784 18.2537C6.88562 18.5181 6.80204 18.7743 6.65597 18.995C6.80204 19.2158 6.88562 19.4719 6.89784 19.7364C6.91006 20.0008 6.85045 20.2636 6.72536 20.4968C6.60026 20.7301 6.41434 20.9252 6.18732 21.0613C5.96031 21.1974 5.70067 21.2696 5.43597 21.27C4.84897 21.27 4.30197 21.06 4.05597 20.48C3.90297 20.119 3.94397 19.69 4.35297 19.517C4.51158 19.4497 4.69041 19.4482 4.85017 19.5127C5.00993 19.5772 5.13754 19.7025 5.20497 19.861C5.21835 19.8937 5.24121 19.9217 5.27062 19.9413C5.30002 19.9609 5.33463 19.9713 5.36997 19.971C5.48397 19.968 5.59997 19.945 5.59997 19.803C5.59997 19.703 5.52697 19.66 5.44397 19.648L5.39297 19.645C5.23058 19.6446 5.07422 19.5835 4.95467 19.4736C4.83511 19.3637 4.76102 19.213 4.74697 19.0512C4.73293 18.8895 4.77994 18.7283 4.87877 18.5994C4.9776 18.4706 5.12108 18.3834 5.28097 18.355L5.39297 18.345C5.49497 18.345 5.59997 18.308 5.59997 18.187C5.59997 18.046 5.48397 18.022 5.36997 18.019C5.3348 18.019 5.30041 18.0294 5.2712 18.049C5.24199 18.0686 5.21928 18.0965 5.20597 18.129C5.17268 18.2077 5.12419 18.2791 5.06329 18.3391C5.00238 18.399 4.93025 18.4464 4.85102 18.4784C4.77179 18.5105 4.68702 18.5266 4.60156 18.5258C4.51609 18.5251 4.43162 18.5075 4.35297 18.474C3.94397 18.3 3.90297 17.871 4.05597 17.511C4.30197 16.931 4.84897 16.721 5.43597 16.721V16.72ZM20 17.5C20.3978 17.5 20.7793 17.6581 21.0606 17.9394C21.3419 18.2207 21.5 18.6022 21.5 19C21.5 19.3978 21.3419 19.7794 21.0606 20.0607C20.7793 20.342 20.3978 20.5 20 20.5H8.99997C8.60214 20.5 8.22061 20.342 7.93931 20.0607C7.658 19.7794 7.49997 19.3978 7.49997 19C7.49997 18.6022 7.658 18.2207 7.93931 17.9394C8.22061 17.6581 8.60214 17.5 8.99997 17.5H20ZM6.07997 9.94502C6.2942 10.0542 6.48015 10.2116 6.62315 10.4048C6.76615 10.5981 6.86229 10.822 6.90398 11.0588C6.94568 11.2956 6.93179 11.5388 6.86341 11.7693C6.79503 11.9998 6.67404 12.2113 6.50997 12.387L5.95597 12.98H6.42597C6.59836 12.98 6.76369 13.0485 6.88559 13.1704C7.00749 13.2923 7.07597 13.4576 7.07597 13.63C7.07597 13.8024 7.00749 13.9677 6.88559 14.0896C6.76369 14.2115 6.59836 14.28 6.42597 14.28H4.57297C4.39943 14.28 4.23297 14.2111 4.11017 14.0885C3.98736 13.9659 3.91823 13.7996 3.91797 13.626C3.91797 13.419 3.94697 13.227 4.09497 13.069L5.55897 11.5C5.70097 11.348 5.58897 11.027 5.35597 11.085C5.26897 11.107 5.23297 11.174 5.22197 11.25L5.21797 11.309C5.21797 11.4814 5.14949 11.6467 5.02759 11.7686C4.90569 11.8905 4.74036 11.959 4.56797 11.959C4.39558 11.959 4.23025 11.8905 4.10835 11.7686C3.98645 11.6467 3.91797 11.4814 3.91797 11.309C3.91797 10.617 4.35697 9.99502 5.04097 9.82402C5.39097 9.73602 5.75797 9.78402 6.07997 9.94502ZM20 10.5C20.3852 10.5002 20.7556 10.6486 21.0344 10.9144C21.3131 11.1803 21.479 11.5432 21.4975 11.9279C21.516 12.3127 21.3858 12.6898 21.1338 12.9812C20.8818 13.2726 20.5274 13.4558 20.144 13.493L20 13.5H8.99997C8.61475 13.4998 8.24437 13.3514 7.96558 13.0856C7.68679 12.8198 7.52096 12.4569 7.50244 12.0721C7.48393 11.6873 7.61416 11.3102 7.86614 11.0188C8.11813 10.7274 8.47255 10.5442 8.85597 10.507L8.99997 10.5H20ZM6.14997 3.39002V6.63002C6.14997 6.80241 6.08149 6.96774 5.95959 7.08964C5.83769 7.21154 5.67236 7.28002 5.49997 7.28002C5.32758 7.28002 5.16225 7.21154 5.04035 7.08964C4.91845 6.96774 4.84997 6.80241 4.84997 6.63002V4.52302C4.70341 4.54608 4.55337 4.51832 4.42478 4.44434C4.29618 4.37035 4.19676 4.25461 4.14303 4.11631C4.0893 3.97802 4.0845 3.82552 4.12942 3.68412C4.17434 3.54272 4.26628 3.42095 4.38997 3.33902L5.13197 2.84502C5.23054 2.77939 5.34506 2.74171 5.46334 2.73599C5.58162 2.73027 5.69923 2.75673 5.80368 2.81254C5.90812 2.86835 5.99548 2.95143 6.05645 3.05294C6.11743 3.15446 6.14975 3.2706 6.14997 3.38902V3.39002ZM20 3.50002C20.3852 3.50021 20.7556 3.64859 21.0344 3.91443C21.3131 4.18026 21.479 4.54316 21.4975 4.92793C21.516 5.3127 21.3858 5.68985 21.1338 5.98122C20.8818 6.27259 20.5274 6.45585 20.144 6.49302L20 6.50002H8.99997C8.61475 6.49983 8.24437 6.35144 7.96558 6.08561C7.68679 5.81978 7.52096 5.45688 7.50244 5.0721C7.48393 4.68733 7.61416 4.31019 7.86614 4.01882C8.11813 3.72745 8.47255 3.54419 8.85597 3.50702L8.99997 3.50002H20Z" fill="currentColor"/>
</svg>
