<svg width="24" height="24" viewBox="0 0 24 24" fill="none" xmlns="http://www.w3.org/2000/svg">
<path d="M20 17.5C20.3978 17.5 20.7794 17.658 21.0607 17.9393C21.342 18.2206 21.5 18.6022 21.5 19C21.5 19.3978 21.342 19.7794 21.0607 20.0607C20.7794 20.342 20.3978 20.5 20 20.5H9C8.60218 20.5 8.22064 20.342 7.93934 20.0607C7.65804 19.7794 7.5 19.3978 7.5 19C7.5 18.6022 7.65804 18.2206 7.93934 17.9393C8.22064 17.658 8.60218 17.5 9 17.5H20ZM4.5 17.5C4.89782 17.5 5.27936 17.658 5.56066 17.9393C5.84196 18.2206 6 18.6022 6 19C6 19.3978 5.84196 19.7794 5.56066 20.0607C5.27936 20.342 4.89782 20.5 4.5 20.5C4.10218 20.5 3.72064 20.342 3.43934 20.0607C3.15804 19.7794 3 19.3978 3 19C3 18.6022 3.15804 18.2206 3.43934 17.9393C3.72064 17.658 4.10218 17.5 4.5 17.5ZM20 10.5C20.3852 10.5002 20.7556 10.6486 21.0344 10.9144C21.3132 11.1802 21.479 11.5431 21.4975 11.9279C21.516 12.3127 21.3858 12.6898 21.1338 12.9812C20.8818 13.2726 20.5274 13.4558 20.144 13.493L20 13.5H9C8.61478 13.4998 8.24441 13.3514 7.96561 13.0856C7.68682 12.8198 7.52099 12.4569 7.50248 12.0721C7.48396 11.6873 7.61419 11.3102 7.86618 11.0188C8.11816 10.7274 8.47258 10.5442 8.856 10.507L9 10.5H20ZM4.5 10.5C4.89782 10.5 5.27936 10.658 5.56066 10.9393C5.84196 11.2206 6 11.6022 6 12C6 12.3978 5.84196 12.7794 5.56066 13.0607C5.27936 13.342 4.89782 13.5 4.5 13.5C4.10218 13.5 3.72064 13.342 3.43934 13.0607C3.15804 12.7794 3 12.3978 3 12C3 11.6022 3.15804 11.2206 3.43934 10.9393C3.72064 10.658 4.10218 10.5 4.5 10.5ZM4.5 3.5C4.89782 3.5 5.27936 3.65804 5.56066 3.93934C5.84196 4.22064 6 4.60218 6 5C6 5.39782 5.84196 5.77936 5.56066 6.06066C5.27936 6.34196 4.89782 6.5 4.5 6.5C4.10218 6.5 3.72064 6.34196 3.43934 6.06066C3.15804 5.77936 3 5.39782 3 5C3 4.60218 3.15804 4.22064 3.43934 3.93934C3.72064 3.65804 4.10218 3.5 4.5 3.5ZM20 3.5C20.3852 3.50019 20.7556 3.64858 21.0344 3.91441C21.3132 4.18024 21.479 4.54314 21.4975 4.92791C21.516 5.31269 21.3858 5.68983 21.1338 5.9812C20.8818 6.27257 20.5274 6.45583 20.144 6.493L20 6.5H9C8.61478 6.49981 8.24441 6.35142 7.96561 6.08559C7.68682 5.81976 7.52099 5.45686 7.50248 5.07209C7.48396 4.68731 7.61419 4.31017 7.86618 4.0188C8.11816 3.72743 8.47258 3.54417 8.856 3.507L9 3.5H20Z" fill="currentColor"/>
</svg>
