<svg width="24" height="24" viewBox="0 0 24 24" fill="none" xmlns="http://www.w3.org/2000/svg">
<path d="M4 16C4.24493 16 4.48134 16.09 4.66437 16.2527C4.84741 16.4155 4.96434 16.6397 4.993 16.883L5 17V19H7C7.25488 19.0003 7.50003 19.0979 7.68537 19.2728C7.8707 19.4478 7.98223 19.687 7.99717 19.9414C8.01211 20.1958 7.92933 20.4464 7.76574 20.6418C7.60214 20.8373 7.3701 20.9629 7.117 20.993L7 21H5C4.49542 21.0002 4.00943 20.8096 3.63945 20.4665C3.26947 20.1234 3.04284 19.6532 3.005 19.15L3 19V17C3 16.7348 3.10536 16.4804 3.29289 16.2929C3.48043 16.1054 3.73478 16 4 16ZM20 16C20.2652 16 20.5196 16.1054 20.7071 16.2929C20.8946 16.4804 21 16.7348 21 17V19C21 19.5304 20.7893 20.0391 20.4142 20.4142C20.0391 20.7893 19.5304 21 19 21H17C16.7348 21 16.4804 20.8946 16.2929 20.7071C16.1054 20.5196 16 20.2652 16 20C16 19.7348 16.1054 19.4804 16.2929 19.2929C16.4804 19.1054 16.7348 19 17 19H19V17C19 16.7348 19.1054 16.4804 19.2929 16.2929C19.4804 16.1054 19.7348 16 20 16ZM15.642 7.045C15.8151 6.97097 16.0056 6.94732 16.1916 6.97678C16.3776 7.00623 16.5515 7.0876 16.6932 7.21151C16.835 7.33542 16.9389 7.49684 16.993 7.6772C17.0471 7.85755 17.0492 8.04952 16.999 8.231L16.955 8.358L12.712 18.258C12.6327 18.4425 12.4998 18.5988 12.3305 18.7066C12.1611 18.8145 11.9633 18.8689 11.7626 18.8627C11.5619 18.8566 11.3678 18.7902 11.2053 18.6722C11.0429 18.5541 10.9198 18.39 10.852 18.201L10.818 18.089L9.898 14.101L5.911 13.181C5.71536 13.1357 5.53789 13.0325 5.40171 12.8849C5.26553 12.7373 5.17694 12.5521 5.14748 12.3535C5.11802 12.1548 5.14906 11.9519 5.23655 11.7711C5.32404 11.5904 5.46393 11.4401 5.638 11.34L5.742 11.288L15.642 7.045ZM7 3C7.26522 3 7.51957 3.10536 7.70711 3.29289C7.89464 3.48043 8 3.73478 8 4C8 4.26522 7.89464 4.51957 7.70711 4.70711C7.51957 4.89464 7.26522 5 7 5H5V7C5 7.26522 4.89464 7.51957 4.70711 7.70711C4.51957 7.89464 4.26522 8 4 8C3.73478 8 3.48043 7.89464 3.29289 7.70711C3.10536 7.51957 3 7.26522 3 7V5C3 4.46957 3.21071 3.96086 3.58579 3.58579C3.96086 3.21071 4.46957 3 5 3H7ZM19 3C19.5304 3 20.0391 3.21071 20.4142 3.58579C20.7893 3.96086 21 4.46957 21 5V7C21 7.26522 20.8946 7.51957 20.7071 7.70711C20.5196 7.89464 20.2652 8 20 8C19.7348 8 19.4804 7.89464 19.2929 7.70711C19.1054 7.51957 19 7.26522 19 7V5H17C16.7348 5 16.4804 4.89464 16.2929 4.70711C16.1054 4.51957 16 4.26522 16 4C16 3.73478 16.1054 3.48043 16.2929 3.29289C16.4804 3.10536 16.7348 3 17 3H19Z" fill="currentColor"/>
</svg>
