<svg width="24" height="24" viewBox="0 0 24 24" fill="none" xmlns="http://www.w3.org/2000/svg">
<path opacity="0.1" fill-rule="evenodd" clip-rule="evenodd" d="M12 4.5C10.0109 4.5 8.10322 5.29018 6.6967 6.6967C5.29018 8.10322 4.5 10.0109 4.5 12C4.5 13.9891 5.29018 15.8968 6.6967 17.3033C8.10322 18.7098 10.0109 19.5 12 19.5C13.9891 19.5 15.8968 18.7098 17.3033 17.3033C18.7098 15.8968 19.5 13.9891 19.5 12C19.5 10.0109 18.7098 8.10322 17.3033 6.6967C15.8968 5.29018 13.9891 4.5 12 4.5ZM1.5 12C1.5 6.201 6.201 1.5 12 1.5C17.799 1.5 22.5 6.201 22.5 12C22.5 17.799 17.799 22.5 12 22.5C6.201 22.5 1.5 17.799 1.5 12Z" fill="currentColor"/>
<path fill-rule="evenodd" clip-rule="evenodd" d="M12.0003 4.50001C10.0666 4.49567 8.20684 5.24251 6.81325 6.58301C6.52453 6.84997 6.14252 6.99287 5.74947 6.98096C5.35643 6.96904 4.98378 6.80326 4.71175 6.51931C4.43973 6.23536 4.29008 5.85594 4.29504 5.46274C4.3 5.06955 4.45916 4.69402 4.73825 4.41701C6.69017 2.54147 9.29329 1.49585 12.0003 1.50001C12.3981 1.50001 12.7796 1.65805 13.0609 1.93935C13.3422 2.22066 13.5003 2.60219 13.5003 3.00001C13.5003 3.39784 13.3422 3.77937 13.0609 4.06067C12.7796 4.34198 12.3981 4.50001 12.0003 4.50001Z" fill="currentColor"/>
</svg>
