<svg width="24" height="24" viewBox="0 0 24 24" fill="none" xmlns="http://www.w3.org/2000/svg">
<path d="M6.72 16.64C6.97461 16.5657 7.24829 16.5957 7.48083 16.7232C7.71338 16.8507 7.88574 17.0654 7.96 17.32C8.03426 17.5746 8.00434 17.8483 7.87681 18.0808C7.74929 18.3134 7.53461 18.4857 7.28 18.56C6.78 18.706 6.42 18.86 6.189 19C6.427 19.143 6.803 19.303 7.325 19.452C8.48 19.782 10.133 20 12 20C13.867 20 15.52 19.782 16.675 19.452C17.198 19.303 17.573 19.143 17.811 19C17.581 18.86 17.221 18.706 16.721 18.56C16.4704 18.4825 16.2603 18.3096 16.136 18.0786C16.0117 17.8476 15.9831 17.577 16.0564 17.3251C16.1298 17.0733 16.2991 16.8603 16.528 16.7321C16.7569 16.604 17.0269 16.5709 17.28 16.64C17.948 16.835 18.56 17.085 19.03 17.406C19.465 17.705 20 18.226 20 19C20 19.783 19.452 20.308 19.01 20.607C18.532 20.929 17.907 21.18 17.224 21.375C15.846 21.77 14 22 12 22C10 22 8.154 21.77 6.776 21.375C6.093 21.18 5.468 20.929 4.99 20.607C4.548 20.307 4 19.783 4 19C4 18.226 4.535 17.705 4.97 17.406C5.44 17.085 6.052 16.835 6.72 16.64ZM12 2C13.9891 2 15.8968 2.79018 17.3033 4.1967C18.7098 5.60322 19.5 7.51088 19.5 9.5C19.5 12.068 18.1 14.156 16.65 15.64C16.0736 16.2239 15.4542 16.7638 14.797 17.255C14.203 17.701 12.845 18.537 12.845 18.537C12.5874 18.6834 12.2963 18.7604 12 18.7604C11.7037 18.7604 11.4126 18.6834 11.155 18.537C10.4808 18.1467 9.82907 17.7187 9.203 17.255C8.54554 16.7641 7.92611 16.2242 7.35 15.64C5.9 14.156 4.5 12.068 4.5 9.5C4.5 7.51088 5.29018 5.60322 6.6967 4.1967C8.10322 2.79018 10.0109 2 12 2ZM12 7.5C11.4696 7.5 10.9609 7.71071 10.5858 8.08579C10.2107 8.46086 10 8.96957 10 9.5C10 10.0304 10.2107 10.5391 10.5858 10.9142C10.9609 11.2893 11.4696 11.5 12 11.5C12.5304 11.5 13.0391 11.2893 13.4142 10.9142C13.7893 10.5391 14 10.0304 14 9.5C14 8.96957 13.7893 8.46086 13.4142 8.08579C13.0391 7.71071 12.5304 7.5 12 7.5Z" fill="currentColor"/>
</svg>
