<svg width="24" height="24" viewBox="0 0 24 24" fill="none" xmlns="http://www.w3.org/2000/svg">
<path d="M2 11C1.99941 8.97615 2.68098 7.01115 3.93467 5.42234C5.18835 3.83353 6.94095 2.71365 8.90946 2.24355C10.878 1.77344 12.9475 1.98054 14.7838 2.83142C16.6201 3.6823 18.116 5.12727 19.03 6.93301C19.265 7.39501 19.327 7.92601 19.23 8.43501C18.69 11.266 17.4 13.431 15.892 14.633C14.542 15.711 12.726 16.306 11.199 16.133C10.5852 16.0637 9.991 15.874 9.45045 15.575C8.90991 15.276 8.43357 14.8734 8.04865 14.3902C7.66373 13.907 7.37777 13.3528 7.20711 12.759C7.03645 12.1653 6.98442 11.5438 7.054 10.93C7.15973 9.99077 7.63422 9.13198 8.3731 8.54256C9.11199 7.95314 10.0547 7.68137 10.994 7.78701C11.3399 7.82581 11.6748 7.93239 11.9796 8.10065C12.2843 8.26891 12.5529 8.49556 12.77 8.76765C12.9871 9.03974 13.1485 9.35194 13.2449 9.68642C13.3414 10.0209 13.3709 10.3711 13.332 10.717C13.3038 10.9677 13.2264 11.2104 13.1044 11.4312C12.9824 11.652 12.8181 11.8466 12.6209 12.0039C12.4236 12.1612 12.1973 12.2781 11.9549 12.348C11.7125 12.4178 11.4587 12.4393 11.208 12.411C11.0331 12.3921 10.8636 12.3389 10.7093 12.2543C10.555 12.1697 10.419 12.0554 10.309 11.918L10.222 11.795C10.1157 11.626 10.0487 11.4353 10.026 11.237L10.024 11.218L10.058 11.338C10.1277 11.532 10.2555 11.6997 10.4242 11.8182C10.5928 11.9367 10.7939 12.0002 11 12C12.249 12 13.08 11.158 12.994 10.054C12.921 9.11901 12.191 8.29401 11.211 8.18401C10.4551 8.09884 9.69624 8.31726 9.10127 8.79129C8.5063 9.26532 8.12387 9.95616 8.038 10.712C7.98895 11.1479 8.02639 11.5892 8.1482 12.0106C8.27 12.432 8.47376 12.8252 8.74781 13.1677C9.02186 13.5103 9.3608 13.7953 9.74521 14.0066C10.1296 14.2179 10.552 14.3512 10.988 14.399C12.021 14.5145 13.0575 14.2149 13.8697 13.5663C14.6819 12.9176 15.2032 11.973 15.319 10.94C15.3872 10.3332 15.3351 9.71885 15.1659 9.13212C14.9966 8.54539 14.7135 7.99774 14.3325 7.52045C13.9516 7.04315 13.4805 6.64556 12.9459 6.35037C12.4113 6.05517 11.8238 5.86816 11.217 5.80001C9.75089 5.63508 8.27931 6.0593 7.12596 6.97934C5.97262 7.89939 5.23199 9.23991 5.067 10.706C4.96778 11.5809 5.04192 12.4667 5.28516 13.3129C5.52841 14.159 5.93601 14.949 6.48466 15.6376C7.03332 16.3262 7.71228 16.9 8.48275 17.3261C9.25322 17.7522 10.1001 18.0223 10.975 18.121C13.057 18.356 15.392 17.591 17.139 16.197C18.156 15.385 19.077 14.253 19.808 12.86C19.5185 14.2345 18.9102 15.5218 18.032 16.618L21.707 20.293C21.8892 20.4816 21.99 20.7342 21.9877 20.9964C21.9854 21.2586 21.8802 21.5094 21.6948 21.6948C21.5094 21.8802 21.2586 21.9854 20.9964 21.9877C20.7342 21.99 20.4816 21.8892 20.293 21.707L16.618 18.032C15.2939 19.09 13.6979 19.7526 12.0138 19.9435C10.3297 20.1344 8.62586 19.8459 7.0985 19.1112C5.57113 18.3764 4.28228 17.2253 3.38029 15.7904C2.47831 14.3554 1.99985 12.6949 2 11Z" fill="currentColor"/>
</svg>
