<svg width="24" height="24" viewBox="0 0 24 24" fill="none" xmlns="http://www.w3.org/2000/svg">
<path fill-rule="evenodd" clip-rule="evenodd" d="M22.0001 12C22.0001 17.523 17.5231 22 12.0001 22C7.26106 22 3.29206 18.703 2.26006 14.278L2.31606 14.327C2.50206 14.49 2.69706 14.647 2.90006 14.8C3.28406 15.088 3.69606 15.324 4.13006 15.512C5.38406 16.056 6.68006 16.165 7.83706 16.034C7.99806 16.015 8.12006 15.996 8.19706 15.981C8.32588 15.9552 8.44837 15.9043 8.55751 15.8311C8.66666 15.758 8.76033 15.6641 8.83318 15.5547C8.90602 15.4454 8.95662 15.3228 8.98208 15.1939C9.00754 15.065 9.00736 14.9323 8.98156 14.8035C8.95575 14.6747 8.90483 14.5522 8.83169 14.443C8.75855 14.3339 8.66463 14.2402 8.55528 14.1674C8.44594 14.0945 8.32332 14.0439 8.19443 14.0185C8.06553 13.993 7.93289 13.9932 7.80406 14.019C7.74015 14.0308 7.67575 14.0398 7.61106 14.046C6.77106 14.142 5.81006 14.06 4.92606 13.677C4.63293 13.551 4.35568 13.3909 4.10006 13.2C3.93905 13.0792 3.78261 12.9525 3.63106 12.82C3.10865 12.3681 2.6528 11.8446 2.27706 11.265C2.20041 11.146 2.12803 11.0242 2.06006 10.9C2.60706 5.895 6.84906 2 12.0001 2C17.5231 2 22.0001 6.477 22.0001 12ZM9.00006 9.5C9.00006 9.89782 8.84202 10.2794 8.56072 10.5607C8.27941 10.842 7.89788 11 7.50006 11C7.10223 11 6.7207 10.842 6.4394 10.5607C6.15809 10.2794 6.00006 9.89782 6.00006 9.5C6.00006 9.10218 6.15809 8.72064 6.4394 8.43934C6.7207 8.15804 7.10223 8 7.50006 8C7.89788 8 8.27941 8.15804 8.56072 8.43934C8.84202 8.72064 9.00006 9.10218 9.00006 9.5Z" fill="currentColor"/>
</svg>
