<svg width="24" height="24" viewBox="0 0 24 24" fill="none" xmlns="http://www.w3.org/2000/svg">
<path fill-rule="evenodd" clip-rule="evenodd" d="M12 2C17.523 2 22 6.477 22 12C22 17.523 17.523 22 12 22C6.477 22 2 17.523 2 12C2 6.477 6.477 2 12 2ZM13 16H11C10.7348 16 10.4804 16.1054 10.2929 16.2929C10.1054 16.4804 10 16.7348 10 17C10 17.2652 10.1054 17.5196 10.2929 17.7071C10.4804 17.8946 10.7348 18 11 18H13C13.2652 18 13.5196 17.8946 13.7071 17.7071C13.8946 17.5196 14 17.2652 14 17C14 16.7348 13.8946 16.4804 13.7071 16.2929C13.5196 16.1054 13.2652 16 13 16ZM8.5 11C8.30302 11 8.10796 11.0388 7.92597 11.1142C7.74399 11.1896 7.57863 11.3001 7.43934 11.4393C7.30005 11.5786 7.18956 11.744 7.11418 11.926C7.0388 12.108 7 12.303 7 12.5C7 12.697 7.0388 12.892 7.11418 13.074C7.18956 13.256 7.30005 13.4214 7.43934 13.5607C7.57863 13.6999 7.74399 13.8104 7.92597 13.8858C8.10796 13.9612 8.30302 14 8.5 14C8.89782 14 9.27936 13.842 9.56066 13.5607C9.84196 13.2794 10 12.8978 10 12.5C10 12.1022 9.84196 11.7206 9.56066 11.4393C9.27936 11.158 8.89782 11 8.5 11ZM15.5 11C15.303 11 15.108 11.0388 14.926 11.1142C14.744 11.1896 14.5786 11.3001 14.4393 11.4393C14.3001 11.5786 14.1896 11.744 14.1142 11.926C14.0388 12.108 14 12.303 14 12.5C14 12.697 14.0388 12.892 14.1142 13.074C14.1896 13.256 14.3001 13.4214 14.4393 13.5607C14.5786 13.6999 14.744 13.8104 14.926 13.8858C15.108 13.9612 15.303 14 15.5 14C15.8978 14 16.2794 13.842 16.5607 13.5607C16.842 13.2794 17 12.8978 17 12.5C17 12.1022 16.842 11.7206 16.5607 11.4393C16.2794 11.158 15.8978 11 15.5 11Z" fill="currentColor"/>
</svg>
