<svg width="24" height="24" viewBox="0 0 24 24" fill="none" xmlns="http://www.w3.org/2000/svg">
<path fill-rule="evenodd" clip-rule="evenodd" d="M2.06006 12C2.06006 17.523 6.53706 22 12.0601 22C16.8001 22 20.7681 18.703 21.8001 14.278L21.7441 14.327C21.5555 14.492 21.3607 14.6498 21.1601 14.8C20.7794 15.0847 20.3666 15.3237 19.9301 15.512C18.6761 16.056 17.3801 16.165 16.2231 16.034C16.1024 16.0211 15.9823 16.0034 15.8631 15.981C15.7342 15.9552 15.6117 15.9043 15.5026 15.8311C15.3935 15.758 15.2998 15.6641 15.2269 15.5547C15.1541 15.4454 15.1035 15.3228 15.078 15.1939C15.0526 15.065 15.0528 14.9323 15.0786 14.8035C15.1044 14.6747 15.1553 14.5522 15.2284 14.443C15.3016 14.3339 15.3955 14.2402 15.5048 14.1674C15.6142 14.0945 15.7368 14.0439 15.8657 14.0185C15.9946 13.993 16.1272 13.9932 16.2561 14.019C16.2791 14.024 16.3461 14.035 16.4491 14.046C17.2891 14.142 18.2501 14.06 19.1341 13.677C19.4272 13.551 19.7044 13.3909 19.9601 13.2C20.1231 13.078 20.2801 12.95 20.4291 12.82C20.9518 12.3682 21.408 11.8447 21.7841 11.265C21.8741 11.125 21.9451 11.002 22.0001 10.9C21.4531 5.895 17.2111 2 12.0601 2C6.53706 2 2.06006 6.477 2.06006 12ZM15.0601 9.5C15.0601 9.69698 15.0989 9.89204 15.1742 10.074C15.2496 10.256 15.3601 10.4214 15.4994 10.5607C15.6387 10.6999 15.804 10.8104 15.986 10.8858C16.168 10.9612 16.3631 11 16.5601 11C16.757 11 16.9521 10.9612 17.1341 10.8858C17.3161 10.8104 17.4814 10.6999 17.6207 10.5607C17.76 10.4214 17.8705 10.256 17.9459 10.074C18.0213 9.89204 18.0601 9.69698 18.0601 9.5C18.0601 9.10218 17.902 8.72064 17.6207 8.43934C17.3394 8.15804 16.9579 8 16.5601 8C16.1622 8 15.7807 8.15804 15.4994 8.43934C15.2181 8.72064 15.0601 9.10218 15.0601 9.5Z" fill="currentColor"/>
</svg>
