<svg width="24" height="24" viewBox="0 0 24 24" fill="none" xmlns="http://www.w3.org/2000/svg">
<path d="M12 4C11.328 4 10.765 4.44 10.401 4.805C9.987 5.22 9.588 5.783 9.241 6.435C8.793 7.28 8.405 8.325 8.187 9.493C7.58294 9.17845 6.94656 8.93033 6.289 8.753C5.796 8.624 5.316 8.553 4.89 8.563C4.52 8.572 3.956 8.645 3.55 9.05C3.129 9.472 3.037 10.097 3.067 10.668C3.095 11.196 3.23 11.805 3.452 12.437C3.694 13.127 4.055 13.882 4.54 14.634C4.11214 14.7951 3.70034 14.996 3.31 15.234C2.69 15.62 2 16.204 2 17C2 18.087 3.193 18.766 4.046 19.158C5.074 19.631 6.466 20 8 20C9.55 20 10.96 19.624 12 19.137C13.04 19.624 14.45 20 16 20C17.534 20 18.926 19.631 19.954 19.158C20.807 18.766 22 18.087 22 17C22 16.203 21.31 15.62 20.69 15.235C20.2997 14.9966 19.8879 14.7954 19.46 14.634C19.945 13.882 20.306 13.126 20.548 12.437C20.77 11.806 20.905 11.196 20.933 10.667C20.963 10.097 20.871 9.472 20.45 9.05C20.044 8.645 19.48 8.572 19.11 8.563C18.684 8.553 18.204 8.624 17.711 8.753C17.0534 8.93035 16.4171 9.17846 15.813 9.493C15.6167 8.42651 15.2611 7.39564 14.758 6.435C14.412 5.783 14.013 5.22 13.598 4.805C13.235 4.44 12.673 4 12 4Z" fill="currentColor"/>
</svg>
