<svg width="24" height="24" viewBox="0 0 24 24" fill="none" xmlns="http://www.w3.org/2000/svg">
<path d="M9.49781 5.793C10.9178 3.889 13.0528 3.333 15.0168 3.868C17.1368 4.445 19.0008 6.266 19.6198 8.802C19.6518 8.932 19.6798 9.062 19.7028 9.192C18.8092 8.8738 17.8373 8.84928 16.9288 9.122C15.6418 8.17 14.0478 8.01 12.6308 8.532C10.8558 9.187 9.46981 10.848 9.14881 12.938C8.73881 15.614 10.3688 18.018 12.6738 20.062L13.0618 20.398C12.7488 20.42 12.4308 20.371 12.1268 20.306C11.9706 20.2726 11.8152 20.2353 11.6608 20.194L11.1238 20.044C6.34981 18.701 3.15381 16.6 2.23681 13.46C1.50481 10.954 2.20881 8.445 3.75681 6.885C5.19081 5.44 7.31681 4.854 9.49781 5.793ZM11.1258 13.241C11.5538 10.449 14.7828 9.073 16.4408 11.469C16.4567 11.4913 16.4807 11.5064 16.5077 11.5111C16.5346 11.5157 16.5623 11.5096 16.5848 11.494C18.9618 9.81 21.5248 12.207 20.9718 14.977C20.6518 16.583 19.1618 17.917 16.5018 18.977L16.0668 19.147L15.8038 19.255C15.5768 19.344 15.3368 19.415 15.1198 19.377C14.9038 19.339 14.7028 19.189 14.5198 19.029L14.2098 18.749C11.8968 16.758 10.8688 14.922 11.1258 13.241Z" fill="currentColor"/>
</svg>
