<svg width="24" height="24" viewBox="0 0 24 24" fill="none" xmlns="http://www.w3.org/2000/svg">
<path d="M16.6119 3.95599C13.8649 2.73499 10.5619 4.23399 10.2319 7.42899C10.0764 8.94768 9.99892 10.4734 9.99994 12C9.99994 13.73 10.0969 15.269 10.2309 16.57C10.5609 19.766 13.8649 21.265 16.6119 20.044L16.8369 19.944C18.3736 19.2609 19.6792 18.1469 20.5955 16.7368C21.5119 15.3267 21.9996 13.6811 21.9996 11.9995C21.9996 10.3178 21.5119 8.67227 20.5955 7.2622C19.6792 5.85212 18.3736 4.73805 16.8369 4.05499L16.6119 3.95499V3.95599ZM8.37194 6.92799C8.61076 6.82443 8.79979 6.63184 8.89886 6.39112C8.99793 6.1504 8.99924 5.88054 8.90249 5.63888C8.80575 5.39721 8.61859 5.2028 8.38077 5.09695C8.14296 4.99109 7.87325 4.98214 7.62894 5.07199L2.62894 7.07199C2.39162 7.17644 2.20416 7.36897 2.10608 7.60899C2.00799 7.849 2.00697 8.11773 2.10322 8.35848C2.19947 8.59924 2.38547 8.7932 2.62198 8.89945C2.85849 9.0057 3.12703 9.01593 3.37094 8.92799L8.37194 6.92799ZM8.92794 10.628C8.97673 10.7499 9.00103 10.8803 8.99945 11.0116C8.99786 11.1429 8.97042 11.2726 8.9187 11.3934C8.86698 11.5141 8.79198 11.6234 8.698 11.7152C8.60401 11.8069 8.49288 11.8792 8.37094 11.928L3.37094 13.928C3.24855 13.9791 3.11721 14.0054 2.98457 14.0053C2.85193 14.0052 2.72063 13.9787 2.59832 13.9274C2.47601 13.876 2.36514 13.8009 2.27216 13.7063C2.17918 13.6117 2.10595 13.4995 2.05674 13.3764C2.00752 13.2532 1.9833 13.1215 1.98549 12.9888C1.98767 12.8562 2.01623 12.7253 2.06948 12.6039C2.12273 12.4824 2.19962 12.3727 2.29567 12.2812C2.39172 12.1897 2.50501 12.1183 2.62894 12.071L7.62894 10.071C7.75093 10.0222 7.88134 9.99797 8.01271 9.99963C8.14408 10.0013 8.27383 10.0288 8.39456 10.0806C8.51529 10.1324 8.62462 10.2075 8.71631 10.3016C8.808 10.3957 8.88025 10.507 8.92894 10.629L8.92794 10.628ZM8.37094 16.928C8.61314 16.8268 8.80582 16.6344 8.90742 16.3923C9.00901 16.1503 9.01136 15.878 8.91397 15.6343C8.81657 15.3905 8.62723 15.1948 8.38682 15.0894C8.14641 14.9841 7.8742 14.9774 7.62894 15.071L2.62894 17.071C2.38674 17.1722 2.19405 17.3646 2.09246 17.6066C1.99086 17.8487 1.98851 18.121 2.08591 18.3647C2.18331 18.6085 2.37265 18.8042 2.61306 18.9095C2.85347 19.0149 3.12568 19.0215 3.37094 18.928L8.37094 16.928Z" fill="currentColor"/>
</svg>
