<svg width="24" height="24" viewBox="0 0 24 24" fill="none" xmlns="http://www.w3.org/2000/svg">
<path d="M10.137 6.74L10.305 8.928L10.555 8.762C10.6919 8.67065 10.8041 8.54692 10.8818 8.40178C10.9594 8.25665 11 8.09459 11 7.93V4C11 3.73478 11.1053 3.48043 11.2929 3.29289C11.4804 3.10536 11.7347 3 12 3C12.2652 3 12.5195 3.10536 12.7071 3.29289C12.8946 3.48043 13 3.73478 13 4V7.93C12.9999 8.09459 13.0405 8.25665 13.1182 8.40178C13.1958 8.54692 13.308 8.67065 13.445 8.762L13.695 8.928L13.863 6.74C13.984 5.166 15.795 4.346 17.057 5.293L17.642 5.731C19.1062 6.82947 20.0819 8.45779 20.36 10.267L21.44 17.286C21.798 19.613 19.458 21.427 17.293 20.5L16.238 20.047C15.2786 19.6357 14.472 18.9344 13.9313 18.0415C13.3906 17.1485 13.1429 16.1088 13.223 15.068L13.519 11.215L12.336 10.425C12.218 10.3463 12.1057 10.2595 12 10.165C11.895 10.26 11.783 10.347 11.664 10.425L10.481 11.215L10.777 15.068C10.8573 16.109 10.6097 17.1489 10.069 18.042C9.52826 18.9352 8.72154 19.6366 7.76196 20.048L6.70596 20.5C4.54196 21.427 2.20096 19.613 2.55896 17.286L3.63896 10.267C3.9173 8.45763 4.89336 6.82929 6.35796 5.731L6.94196 5.293C8.20496 4.346 10.016 5.166 10.137 6.74Z" fill="currentColor"/>
</svg>
