<svg width="24" height="24" viewBox="0 0 24 24" fill="none" xmlns="http://www.w3.org/2000/svg">
<path fill-rule="evenodd" clip-rule="evenodd" d="M6.7479 8.876C7.02916 9.15739 7.41068 9.31553 7.80854 9.31563C8.2064 9.31572 8.588 9.15776 8.8694 8.8765C9.15079 8.59524 9.30893 8.21371 9.30902 7.81585C9.30912 7.41799 9.15116 7.03639 8.8699 6.755L7.1049 4.99C6.96659 4.84667 6.80113 4.73232 6.61816 4.65362C6.43519 4.57492 6.23838 4.53345 6.03922 4.53163C5.84005 4.5298 5.64251 4.56766 5.45813 4.643C5.27375 4.71833 5.10622 4.82963 4.96532 4.97041C4.82441 5.11118 4.71296 5.2786 4.63745 5.46291C4.56194 5.64722 4.52389 5.84472 4.52553 6.04389C4.52717 6.24306 4.56845 6.43991 4.64698 6.62295C4.7255 6.80599 4.8397 6.97156 4.9829 7.11L6.7479 8.876ZM7.9899 11C7.9899 11.3978 7.83186 11.7794 7.55056 12.0607C7.26925 12.342 6.88772 12.5 6.4899 12.5H3.9939C3.59607 12.5 3.21454 12.342 2.93324 12.0607C2.65193 11.7794 2.4939 11.3978 2.4939 11C2.4939 10.6022 2.65193 10.2206 2.93324 9.93934C3.21454 9.65804 3.59607 9.5 3.9939 9.5H6.4899C6.88772 9.5 7.26925 9.65804 7.55056 9.93934C7.83186 10.2206 7.9899 10.6022 7.9899 11ZM12.7619 10.646C12.6226 10.5067 12.4572 10.3961 12.2751 10.3207C12.0931 10.2453 11.8979 10.2065 11.7009 10.2065C11.5039 10.2065 11.3087 10.2453 11.1267 10.3207C10.9446 10.3961 10.7792 10.5067 10.6399 10.646C10.5006 10.7853 10.39 10.9507 10.3146 11.1328C10.2392 11.3148 10.2004 11.51 10.2004 11.707C10.2004 11.904 10.2392 12.0992 10.3146 12.2812C10.39 12.4633 10.5006 12.6287 10.6399 12.768L19.1249 21.253C19.4062 21.5344 19.7877 21.6925 20.1855 21.6926C20.5834 21.6927 20.965 21.5348 21.2464 21.2535C21.5278 20.9722 21.6859 20.5907 21.686 20.1929C21.6861 19.795 21.5282 19.4134 21.2469 19.132L12.7619 10.646ZM17.9939 12.5C18.3917 12.5 18.7733 12.342 19.0546 12.0607C19.3359 11.7794 19.4939 11.3978 19.4939 11C19.4939 10.6022 19.3359 10.2206 19.0546 9.93934C18.7733 9.65804 18.3917 9.5 17.9939 9.5H15.4899C15.0921 9.5 14.7105 9.65804 14.4292 9.93934C14.1479 10.2206 13.9899 10.6022 13.9899 11C13.9899 11.3978 14.1479 11.7794 14.4292 12.0607C14.7105 12.342 15.0921 12.5 15.4899 12.5H17.9939ZM9.4939 18C9.4939 18.3978 9.65193 18.7794 9.93324 19.0607C10.2145 19.342 10.5961 19.5 10.9939 19.5C11.3917 19.5 11.7733 19.342 12.0546 19.0607C12.3359 18.7794 12.4939 18.3978 12.4939 18V15.5C12.4939 15.1022 12.3359 14.7206 12.0546 14.4393C11.7733 14.158 11.3917 14 10.9939 14C10.5961 14 10.2145 14.158 9.93324 14.4393C9.65193 14.7206 9.4939 15.1022 9.4939 15.5V18ZM10.9939 8C10.5961 8 10.2145 7.84196 9.93324 7.56066C9.65193 7.27936 9.4939 6.89782 9.4939 6.5V4C9.4939 3.60218 9.65193 3.22064 9.93324 2.93934C10.2145 2.65804 10.5961 2.5 10.9939 2.5C11.3917 2.5 11.7733 2.65804 12.0546 2.93934C12.3359 3.22064 12.4939 3.60218 12.4939 4V6.5C12.4939 6.89782 12.3359 7.27936 12.0546 7.56066C11.7733 7.84196 11.3917 8 10.9939 8ZM4.9839 17.01C4.70269 16.7287 4.54472 16.3472 4.54472 15.9495C4.54472 15.5518 4.70269 15.1703 4.9839 14.889L6.7499 13.12C6.88916 12.9807 7.05451 12.8701 7.2365 12.7947C7.41848 12.7193 7.61354 12.6804 7.81054 12.6804C8.00754 12.6803 8.20262 12.7191 8.38464 12.7944C8.56667 12.8698 8.73206 12.9802 8.8714 13.1195C9.01073 13.2588 9.12127 13.4241 9.1967 13.6061C9.27213 13.7881 9.31098 13.9831 9.31102 14.1801C9.31107 14.3771 9.27231 14.5722 9.19697 14.7542C9.12162 14.9363 9.01116 15.1017 8.8719 15.241L7.1049 17.01C6.82361 17.2912 6.44214 17.4492 6.0444 17.4492C5.64665 17.4492 5.26519 17.2912 4.9839 17.01ZM13.1149 6.757C12.8335 7.03826 12.6754 7.41979 12.6753 7.81765C12.6752 8.21551 12.8331 8.59711 13.1144 8.8785C13.3957 9.15989 13.7772 9.31803 14.175 9.31813C14.5729 9.31822 14.9545 9.16026 15.2359 8.879L17.0039 7.111C17.1472 6.97263 17.2614 6.80711 17.34 6.62411C17.4187 6.4411 17.46 6.24427 17.4618 6.0451C17.4635 5.84593 17.4256 5.64841 17.3501 5.46407C17.2747 5.27972 17.1633 5.11225 17.0225 4.97141C16.8817 4.83057 16.7142 4.71919 16.5298 4.64377C16.3455 4.56835 16.148 4.53039 15.9488 4.53212C15.7496 4.53386 15.5528 4.57523 15.3698 4.65385C15.1868 4.73246 15.0213 4.84673 14.8829 4.99L13.1149 6.757Z" fill="currentColor"/>
</svg>
