<svg width="24" height="24" viewBox="0 0 24 24" fill="none" xmlns="http://www.w3.org/2000/svg">
<path fill-rule="evenodd" clip-rule="evenodd" d="M12 6.99999C9.965 6.99999 8.075 7.35199 6.656 7.95999C5.949 8.26299 5.312 8.64999 4.838 9.12999C4.36 9.61399 4 10.248 4 11C4 11.752 4.36 12.386 4.838 12.87C5.312 13.35 5.948 13.737 6.656 14.04C8.075 14.648 9.965 15 12 15C14.035 15 15.925 14.648 17.344 14.04C18.051 13.737 18.688 13.35 19.162 12.87C19.64 12.386 20 11.752 20 11C20 10.248 19.64 9.61399 19.162 9.12999C18.688 8.64999 18.052 8.26299 17.344 7.95999C15.925 7.35199 14.035 6.99999 12 6.99999ZM12 9.99999C13.657 9.99999 15 10.448 15 11C15 11.552 13.657 12 12 12C10.343 12 9 11.552 9 11C9 10.448 10.343 9.99999 12 9.99999ZM6.946 15.223C6.878 16.017 6.756 16.782 6.621 17.449L6.504 17.996L6.388 18.486L6.278 18.909C6.036 19.809 6.428 20.906 7.48 21.267C7.59 21.304 7.708 21.343 7.835 21.383L8.242 21.501C9.18 21.758 10.47 22 12 22C13.53 22 14.82 21.758 15.758 21.501L16.165 21.383C16.292 21.343 16.411 21.304 16.52 21.267C17.571 20.906 17.964 19.808 17.722 18.909L17.612 18.486L17.496 17.996L17.379 17.449C17.229 16.7137 17.1205 15.9705 17.054 15.223C15.6 15.728 13.84 16 12 16C10.16 16 8.401 15.728 6.946 15.223ZM10.008 1.67299L9.802 1.26899C9.692 1.06899 9.637 1.06699 9.547 1.22299L9.48 1.35099L9.44 1.43099C9.01103 2.32521 8.35397 3.09058 7.535 3.64999L7.308 3.79599C7.051 3.95399 7.022 4.00799 7.178 4.11899L7.308 4.20399C8.15302 4.72261 8.84633 5.45489 9.318 6.32699L9.524 6.73099C9.634 6.93099 9.689 6.93299 9.78 6.77699L9.846 6.64899L9.886 6.56899C10.3147 5.67488 10.9714 4.90953 11.79 4.34999L12.017 4.20399C12.332 4.01099 12.305 3.97399 12.017 3.79599C11.172 3.27733 10.4787 2.54505 10.007 1.67299H10.008ZM14.161 4.90299L14.231 4.86399C14.8312 4.54265 15.3396 4.07353 15.708 3.50099L15.909 3.15699C15.986 3.04199 16.027 3.05099 16.097 3.16499L16.167 3.28799C16.481 3.86799 16.955 4.36399 17.543 4.73199L17.769 4.86399C17.961 4.96899 18 4.99999 17.839 5.09599L17.769 5.13599C17.094 5.4956 16.5376 6.04298 16.167 6.71199L16.097 6.83499C16.027 6.94899 15.987 6.95799 15.909 6.84299L15.834 6.71299C15.5074 6.12054 15.033 5.62273 14.457 5.26799L14.231 5.13599C14.039 5.03099 14.001 4.99899 14.161 4.90299Z" fill="currentColor"/>
</svg>
