<svg width="24" height="24" viewBox="0 0 24 24" fill="none" xmlns="http://www.w3.org/2000/svg">
<path d="M5.49693 3.998C5.28978 3.94334 5.07192 3.94396 4.86508 3.99981C4.65825 4.05565 4.46967 4.16476 4.31818 4.31625C4.16669 4.46774 4.05758 4.65632 4.00174 4.86315C3.94589 5.06998 3.94527 5.28785 3.99993 5.495L5.26393 10.285L2.58193 14.45C2.46573 14.63 2.39881 14.8373 2.38784 15.0512C2.37687 15.2652 2.42224 15.4782 2.51941 15.6691C2.61659 15.8601 2.76217 16.0221 2.9416 16.1391C3.12104 16.2562 3.32804 16.324 3.54193 16.336L8.48893 16.614L11.6209 20.452C11.7564 20.618 11.933 20.7455 12.1331 20.8219C12.3333 20.8984 12.55 20.9209 12.7616 20.8874C12.9732 20.8539 13.1723 20.7655 13.339 20.6311C13.5058 20.4966 13.6344 20.3207 13.7119 20.121L15.1099 16.521L19.7179 21.129C19.9065 21.3112 20.1591 21.412 20.4213 21.4097C20.6835 21.4074 20.9343 21.3022 21.1197 21.1168C21.3052 20.9314 21.4103 20.6806 21.4126 20.4184C21.4149 20.1562 21.3141 19.9036 21.1319 19.715L16.5239 15.107L20.1239 13.71C20.3236 13.6323 20.4993 13.5037 20.6337 13.3369C20.7681 13.17 20.8564 12.9709 20.8898 12.7593C20.9232 12.5477 20.9005 12.3311 20.824 12.131C20.7475 11.9309 20.6199 11.7544 20.4539 11.619L16.6159 8.487L16.3379 3.54C16.3257 3.32624 16.2576 3.11943 16.1405 2.94018C16.0235 2.76092 15.8614 2.61549 15.6706 2.51836C15.4798 2.42124 15.2669 2.37582 15.0531 2.38663C14.8392 2.39745 14.632 2.46412 14.4519 2.58L10.2869 5.262L5.49693 3.998Z" fill="currentColor"/>
</svg>
