<svg width="24" height="24" viewBox="0 0 24 24" fill="none" xmlns="http://www.w3.org/2000/svg">
<path d="M19 14C19.1871 14 19.3704 14.0525 19.5292 14.1515C19.6879 14.2505 19.8157 14.392 19.898 14.56L19.946 14.677L20.076 15.055C20.2132 15.4572 20.4343 15.8256 20.7246 16.1359C21.0149 16.4463 21.3678 16.6913 21.76 16.855L21.945 16.925L22.323 17.054C22.5102 17.1179 22.6742 17.2358 22.7944 17.3929C22.9146 17.55 22.9854 17.7392 22.9981 17.9366C23.0107 18.134 22.9645 18.3307 22.8654 18.5018C22.7662 18.6729 22.6185 18.8108 22.441 18.898L22.323 18.946L21.945 19.076C21.5428 19.2132 21.1744 19.4343 20.8641 19.7246C20.5537 20.0149 20.3086 20.3678 20.145 20.76L20.075 20.945L19.946 21.323C19.8821 21.5102 19.7642 21.6742 19.6071 21.7944C19.45 21.9146 19.2608 21.9854 19.0634 21.9981C18.866 22.0107 18.6693 21.9645 18.4982 21.8654C18.3271 21.7662 18.1892 21.6185 18.102 21.441L18.054 21.323L17.924 20.945C17.7868 20.5428 17.5657 20.1744 17.2754 19.8641C16.9851 19.5537 16.6322 19.3087 16.24 19.145L16.055 19.075L15.677 18.946C15.4898 18.8821 15.3258 18.7642 15.2056 18.6071C15.0854 18.45 15.0146 18.2608 15.0019 18.0634C14.9893 17.866 15.0355 17.6693 15.1346 17.4982C15.2338 17.3271 15.3815 17.1892 15.559 17.102L15.677 17.054L16.055 16.924C16.4572 16.7868 16.8256 16.5657 17.1359 16.2754C17.4463 15.9851 17.6913 15.6322 17.855 15.24L17.925 15.055L18.054 14.677C18.1214 14.4796 18.2488 14.3082 18.4184 14.1868C18.5881 14.0654 18.7914 14.0001 19 14ZM22 6.968V14.49L21.968 14.409L21.839 14.03C21.6419 13.4533 21.2739 12.9503 20.7838 12.5879C20.2938 12.2256 19.705 12.0211 19.0959 12.0017C18.4867 11.9822 17.8861 12.1488 17.374 12.4791C16.8618 12.8095 16.4624 13.288 16.229 13.851L16.161 14.031L16.031 14.409C15.988 14.5352 15.9202 14.6515 15.8316 14.7511C15.743 14.8507 15.6353 14.9316 15.515 14.989L15.409 15.032L15.03 15.161C14.5785 15.3153 14.1704 15.575 13.8394 15.9186C13.5084 16.2621 13.2642 16.6797 13.1269 17.1366C12.9896 17.5935 12.9633 18.0766 13.0501 18.5457C13.1369 19.0148 13.3343 19.4565 13.626 19.834L13.764 20H4C3.49542 20.0002 3.00943 19.8096 2.63945 19.4665C2.26947 19.1234 2.04284 18.6532 2.005 18.15L2 18V6.968L11.04 14.502C11.2893 14.7096 11.5992 14.8308 11.9232 14.8474C12.2472 14.864 12.5678 14.7751 12.837 14.594L12.96 14.502L22 6.968ZM20 4C20.564 4 21.073 4.233 21.436 4.608L21.552 4.738L12 12.698L2.448 4.738C2.778 4.333 3.264 4.059 3.814 4.008L4 4H20Z" fill="currentColor"/>
</svg>
