<svg width="24" height="24" viewBox="0 0 24 24" fill="none" xmlns="http://www.w3.org/2000/svg">
<path d="M20.0001 4C20.5305 4 21.0393 4.21071 21.4143 4.58579C21.7894 4.96086 22.0001 5.46957 22.0001 6V18C22.0001 18.5304 21.7894 19.0391 21.4143 19.4142C21.0393 19.7893 20.5305 20 20.0001 20H4.00011C3.46968 20 2.96097 19.7893 2.5859 19.4142C2.21083 19.0391 2.00011 18.5304 2.00011 18V17H4.00011V18H20.0001V7.423L13.0651 14.358C12.7838 14.6392 12.4024 14.7972 12.0046 14.7972C11.6069 14.7972 11.2254 14.6392 10.9441 14.358L4.00011 7.414V8H2.00011V6C2.00011 5.46957 2.21083 4.96086 2.5859 4.58579C2.96097 4.21071 3.46968 4 4.00011 4H20.0001ZM6.00011 13C6.25499 13.0003 6.50015 13.0979 6.68548 13.2728C6.87082 13.4478 6.98235 13.687 6.99728 13.9414C7.01222 14.1958 6.92944 14.4464 6.76585 14.6418C6.60226 14.8373 6.37021 14.9629 6.11711 14.993L6.00011 15H1.00011C0.745233 14.9997 0.500081 14.9021 0.314745 14.7272C0.129408 14.5522 0.0178779 14.313 0.00294074 14.0586C-0.0119964 13.8042 0.0707874 13.5536 0.234378 13.3582C0.397968 13.1627 0.630017 13.0371 0.883113 13.007L1.00011 13H6.00011ZM5.00011 10C5.26533 10 5.51968 10.1054 5.70722 10.2929C5.89476 10.4804 6.00011 10.7348 6.00011 11C6.00011 11.2652 5.89476 11.5196 5.70722 11.7071C5.51968 11.8946 5.26533 12 5.00011 12H2.00011C1.7349 12 1.48054 11.8946 1.29301 11.7071C1.10547 11.5196 1.00011 11.2652 1.00011 11C1.00011 10.7348 1.10547 10.4804 1.29301 10.2929C1.48054 10.1054 1.7349 10 2.00011 10H5.00011Z" fill="currentColor"/>
</svg>
