<svg width="24" height="24" viewBox="0 0 24 24" fill="none" xmlns="http://www.w3.org/2000/svg">
<path fill-rule="evenodd" clip-rule="evenodd" d="M21 19C21 19.18 20.976 19.353 20.932 19.518L4.482 3.068C4.65097 3.02289 4.82511 3.00003 5 3H19C19.5304 3 20.0391 3.21071 20.4142 3.58579C20.7893 3.96086 21 4.46957 21 5V19ZM3 5C3 4.82 3.024 4.647 3.068 4.482L9.086 10.5L3 16.586V5ZM10.5 11.914L19.518 20.932C19.349 20.9771 19.1749 21 19 21H5C4.53515 21 4.08481 20.8381 3.72639 20.5421C3.36797 20.2461 3.12386 19.8345 3.036 19.378L10.5 11.914Z" fill="currentColor"/>
</svg>
