<svg width="24" height="24" viewBox="0 0 24 24" fill="none" xmlns="http://www.w3.org/2000/svg">
<path fill-rule="evenodd" clip-rule="evenodd" d="M11.5525 3.10602C11.6913 3.03666 11.8444 3.00055 11.9995 3.00055C12.1547 3.00055 12.3077 3.03666 12.4465 3.10602C13.1565 3.46002 14.0265 4.28602 14.7135 5.34302C15.1335 5.99002 15.5115 6.76302 15.7465 7.63202C16.4695 7.18402 17.2535 6.86202 18.1835 6.55202C18.318 6.50714 18.4605 6.49138 18.6016 6.50577C18.7426 6.52016 18.879 6.56438 19.0016 6.6355C19.1243 6.70661 19.2304 6.80299 19.313 6.91825C19.3956 7.03351 19.4527 7.165 19.4805 7.30402C19.7375 8.58902 19.8925 9.86202 19.6715 11.111C19.5362 11.8856 19.2534 12.627 18.8385 13.295C19.4456 13.5113 20.0223 13.8047 20.5545 14.168C20.7454 14.2952 20.8867 14.4842 20.9548 14.7032C21.0229 14.9222 21.0136 15.158 20.9285 15.371C20.6385 16.095 19.9065 16.875 18.5585 17.526C17.3435 18.113 15.5685 18.625 12.9955 18.909C12.9984 18.9393 12.9997 18.9696 12.9995 19V21C12.9995 21.2652 12.8942 21.5196 12.7067 21.7071C12.5191 21.8947 12.2648 22 11.9995 22C11.7343 22 11.48 21.8947 11.2924 21.7071C11.1049 21.5196 10.9995 21.2652 10.9995 21V19C10.9995 18.97 11.0015 18.939 11.0035 18.909C8.42955 18.625 6.65555 18.113 5.43955 17.526C4.09255 16.875 3.36055 16.096 3.07155 15.371C2.98637 15.1581 2.97695 14.9224 3.04486 14.7034C3.11277 14.4844 3.25388 14.2954 3.44455 14.168C3.97676 13.8047 4.55349 13.5112 5.16055 13.295C4.74577 12.627 4.46299 11.8856 4.32755 11.111C4.10755 9.86102 4.26255 8.58902 4.51955 7.30402C4.54732 7.16503 4.60432 7.03354 4.68677 6.91826C4.76922 6.80297 4.87523 6.70653 4.99778 6.63533C5.12033 6.56413 5.25662 6.51979 5.3976 6.50525C5.53858 6.49072 5.68105 6.50631 5.81555 6.55102C6.74555 6.86102 7.53055 7.18402 8.25255 7.63102C8.47671 6.8196 8.82517 6.04779 9.28555 5.34302C9.97255 4.28602 10.8435 3.46002 11.5525 3.10602ZM12.9995 16.895V14C12.9995 13.7348 12.8942 13.4804 12.7067 13.2929C12.5191 13.1054 12.2648 13 11.9995 13C11.7343 13 11.48 13.1054 11.2924 13.2929C11.1049 13.4804 10.9995 13.7348 10.9995 14V16.895C11.3175 16.933 11.6495 16.966 11.9995 16.996C12.3495 16.966 12.6825 16.933 12.9995 16.895Z" fill="currentColor"/>
</svg>
