<svg width="24" height="24" viewBox="0 0 24 24" fill="none" xmlns="http://www.w3.org/2000/svg">
<path fill-rule="evenodd" clip-rule="evenodd" d="M7 4.5C6.82447 4.5 6.65203 4.54621 6.50001 4.63398C6.348 4.72175 6.22177 4.84798 6.134 5H2C1.73478 5 1.48043 5.10536 1.29289 5.29289C1.10536 5.48043 1 5.73478 1 6C1 7.07 1.461 7.892 2.112 8.478C2.735 9.038 3.516 9.374 4.212 9.583C4.865 9.779 5.506 9.881 6 9.936V14C5.95994 15.4557 5.44907 16.8592 4.544 18H4C3.73478 18 3.48043 18.1054 3.29289 18.2929C3.10536 18.4804 3 18.7348 3 19C3 19.2652 3.10536 19.5196 3.29289 19.7071C3.48043 19.8946 3.73478 20 4 20H21C21.2652 20 21.5196 19.8946 21.7071 19.7071C21.8946 19.5196 22 19.2652 22 19C22 18.7348 21.8946 18.4804 21.7071 18.2929C21.5196 18.1054 21.2652 18 21 18V10C21.5304 10 22.0391 9.78929 22.4142 9.41421C22.7893 9.03914 23 8.53043 23 8V7C23 6.46957 22.7893 5.96086 22.4142 5.58579C22.0391 5.21071 21.5304 5 21 5H19.866C19.7782 4.84798 19.652 4.72175 19.5 4.63398C19.348 4.54621 19.1755 4.5 19 4.5H16C15.8245 4.5 15.652 4.54621 15.5 4.63398C15.348 4.72175 15.2218 4.84798 15.134 5H10.866C10.7782 4.84798 10.652 4.72175 10.5 4.63398C10.348 4.54621 10.1755 4.5 10 4.5H7ZM19 10H17V13H19V10ZM15 10H12V18H13.544C14.4491 16.8592 14.96 15.4557 15 14V10ZM10 10H8V13H10V10Z" fill="currentColor"/>
</svg>
