<svg width="24" height="24" viewBox="0 0 24 24" fill="none" xmlns="http://www.w3.org/2000/svg">
<path fill-rule="evenodd" clip-rule="evenodd" d="M2 12C2 6.477 6.477 2 12 2C17.523 2 22 6.477 22 12C22 17.523 17.523 22 12 22C6.477 22 2 17.523 2 12ZM7.247 18.436L7.707 15.671C7.78488 15.204 8.0259 14.7798 8.38718 14.4738C8.74845 14.1678 9.20656 13.9999 9.68 14H14.32C14.7933 14.0002 15.2511 14.1682 15.6122 14.4741C15.9733 14.7801 16.2141 15.2042 16.292 15.671L16.753 18.436C15.3778 19.4544 13.7112 20.0028 12 20C10.2888 20.0028 8.62216 19.4544 7.247 18.436ZM9 12V9.71C9 9.61722 9.02582 9.52627 9.07456 9.44733C9.12331 9.36839 9.19305 9.30456 9.276 9.263L14.276 6.763C14.3522 6.7248 14.437 6.70673 14.5221 6.71051C14.6073 6.71428 14.6901 6.73978 14.7627 6.78457C14.8352 6.82936 14.8951 6.89197 14.9367 6.96643C14.9782 7.04089 15 7.12474 15 7.21V12H9Z" fill="currentColor"/>
</svg>
