<svg width="24" height="24" viewBox="0 0 24 24" fill="none" xmlns="http://www.w3.org/2000/svg">
<path d="M8.49974 6.00001C9.72331 5.99803 10.9223 6.34304 11.9577 6.99501L11.3627 7.48601C10.623 8.0954 10.0275 8.86107 9.61894 9.72801C9.21037 10.5949 8.9989 11.5416 8.99974 12.5C8.99897 13.4584 9.21047 14.405 9.61903 15.272C10.0276 16.1389 10.6231 16.9046 11.3627 17.514L11.9577 18.004C11.1048 18.5398 10.1391 18.8701 9.13666 18.9688C8.13426 19.0674 7.12264 18.9318 6.18163 18.5725C5.24063 18.2132 4.396 17.6402 3.71438 16.8986C3.03276 16.157 2.53282 15.2672 2.254 14.2993C1.97518 13.3314 1.92511 12.312 2.10775 11.3214C2.29038 10.3309 2.70073 9.3963 3.3064 8.59149C3.91207 7.78668 4.69649 7.13364 5.59776 6.68391C6.49903 6.23417 7.49249 6.00005 8.49974 6.00001ZM15.4997 6.00001C16.4943 6.00042 17.4755 6.22904 18.3678 6.66828C19.26 7.10751 20.0396 7.74564 20.6465 8.53354C21.2534 9.32145 21.6714 10.2381 21.8683 11.2129C22.0653 12.1878 22.0359 13.1948 21.7824 14.1565C21.529 15.1182 21.0582 16.0089 20.4064 16.7601C19.7546 17.5113 18.9391 18.1028 18.0227 18.4893C17.1063 18.8757 16.1134 19.0467 15.1206 18.9891C14.1277 18.9315 13.1613 18.6468 12.2957 18.157L12.0417 18.005L12.6367 17.514C13.3764 16.9046 13.9719 16.1389 14.3805 15.272C14.789 14.405 15.0005 13.4584 14.9997 12.5C14.9997 10.573 14.1597 8.84101 12.8297 7.65201L12.6367 7.48601L12.0417 6.99501C13.0771 6.34304 14.2762 5.99803 15.4997 6.00001ZM11.9997 9.67101C12.6483 10.471 13.0015 11.4701 12.9997 12.5C13.0016 13.5299 12.6484 14.529 11.9997 15.329C11.3511 14.529 10.9979 13.5299 10.9997 12.5C10.998 11.4701 11.3511 10.471 11.9997 9.67101Z" fill="currentColor"/>
</svg>
