<svg width="24" height="24" viewBox="0 0 24 24" fill="none" xmlns="http://www.w3.org/2000/svg">
<path fill-rule="evenodd" clip-rule="evenodd" d="M7.47621 2.43C10.4379 1.9038 13.4687 1.89839 16.4322 2.414C17.468 2.59248 18.4236 3.08608 19.1686 3.8275C19.9135 4.56892 20.4117 5.52208 20.5952 6.557C21.0262 8.917 21.1232 11.239 20.6352 13.664C20.3492 15.092 18.6142 16.436 16.6092 16.797C15.0592 17.075 10.1252 17.219 8.49921 17C8.93721 19 13.1332 18.653 13.9992 18.5L14.2342 18.457C14.8062 18.352 15.6842 18.19 16.1112 18.276C16.7212 18.399 17.2632 18.829 17.2612 19.503C17.2602 20.077 16.8472 20.504 16.3892 20.789C16.0392 21.007 15.5812 21.206 15.0652 21.374C14.0232 21.714 12.6052 21.974 11.0052 21.982C7.57721 21.997 4.36121 19.719 3.52721 16.232C2.77821 13.099 2.78421 9.584 3.38221 6.45C3.57346 5.44249 4.06809 4.51751 4.79981 3.79901C5.53153 3.08051 6.46538 2.60284 7.47621 2.43ZM14.0002 8C13.735 8 13.4806 8.10536 13.2931 8.29289C13.1056 8.48043 13.0002 8.73478 13.0002 9V12C13.0002 12.2652 12.8949 12.5196 12.7073 12.7071C12.5198 12.8946 12.2654 13 12.0002 13C11.735 13 11.4806 12.8946 11.2931 12.7071C11.1056 12.5196 11.0002 12.2652 11.0002 12V9C11.0002 8.73478 10.8949 8.48043 10.7073 8.29289C10.5198 8.10536 10.2654 8 10.0002 8C9.735 8 9.48064 8.10536 9.29311 8.29289C9.10557 8.48043 9.00021 8.73478 9.00021 9V13C9.00021 13.2652 8.89486 13.5196 8.70732 13.7071C8.51978 13.8946 8.26543 14 8.00021 14C7.735 14 7.48064 13.8946 7.29311 13.7071C7.10557 13.5196 7.00021 13.2652 7.00021 13V9C7.00023 8.42088 7.16786 7.85414 7.48288 7.36819C7.7979 6.88224 8.24683 6.49786 8.7755 6.26144C9.30417 6.02502 9.88996 5.94667 10.4622 6.03585C11.0344 6.12503 11.5686 6.37792 12.0002 6.764C12.4319 6.37792 12.966 6.12503 13.5383 6.03585C14.1105 5.94667 14.6963 6.02502 15.2249 6.26144C15.7536 6.49786 16.2025 6.88224 16.5176 7.36819C16.8326 7.85414 17.0002 8.42088 17.0002 9V13C17.0002 13.2652 16.8949 13.5196 16.7073 13.7071C16.5198 13.8946 16.2654 14 16.0002 14C15.735 14 15.4806 13.8946 15.2931 13.7071C15.1056 13.5196 15.0002 13.2652 15.0002 13V9C15.0002 8.73478 14.8949 8.48043 14.7073 8.29289C14.5198 8.10536 14.2654 8 14.0002 8Z" fill="currentColor"/>
</svg>
