<svg width="24" height="24" viewBox="0 0 24 24" fill="none" xmlns="http://www.w3.org/2000/svg">
<path fill-rule="evenodd" clip-rule="evenodd" d="M13.5 3C15.7543 3 17.9163 3.89553 19.5104 5.48959C21.1045 7.08365 22 9.24566 22 11.5C22 13.7543 21.1045 15.9163 19.5104 17.5104C17.9163 19.1045 15.7543 20 13.5 20H13V20.99C13 21.1227 12.9738 21.2541 12.923 21.3767C12.8722 21.4993 12.7977 21.6107 12.7038 21.7045C12.6099 21.7983 12.4985 21.8727 12.3758 21.9234C12.2532 21.9741 12.1217 22.0001 11.989 22C9.529 21.998 7.037 21.177 5.146 19.496C3.238 17.798 2.002 15.275 2 12.009V11.5C2 9.24566 2.89553 7.08365 4.48959 5.48959C6.08365 3.89553 8.24566 3 10.5 3H13.5ZM8.5 10C8.10218 10 7.72064 10.158 7.43934 10.4393C7.15804 10.7206 7 11.1022 7 11.5C7 11.8978 7.15804 12.2794 7.43934 12.5607C7.72064 12.842 8.10218 13 8.5 13C8.89782 13 9.27936 12.842 9.56066 12.5607C9.84196 12.2794 10 11.8978 10 11.5C10 11.1022 9.84196 10.7206 9.56066 10.4393C9.27936 10.158 8.89782 10 8.5 10ZM15.5 10C15.1022 10 14.7206 10.158 14.4393 10.4393C14.158 10.7206 14 11.1022 14 11.5C14 11.8978 14.158 12.2794 14.4393 12.5607C14.7206 12.842 15.1022 13 15.5 13C15.8978 13 16.2794 12.842 16.5607 12.5607C16.842 12.2794 17 11.8978 17 11.5C17 11.1022 16.842 10.7206 16.5607 10.4393C16.2794 10.158 15.8978 10 15.5 10Z" fill="currentColor"/>
</svg>
