<svg width="24" height="24" viewBox="0 0 24 24" fill="none" xmlns="http://www.w3.org/2000/svg">
<path fill-rule="evenodd" clip-rule="evenodd" d="M12 2C17.523 2 22 6.477 22 12C22 17.523 17.523 22 12 22C10.298 22.0025 8.62369 21.5687 7.13701 20.74L6.83201 20.562L3.80001 21.454C3.63501 21.5026 3.46033 21.5083 3.29252 21.4705C3.12472 21.4327 2.96935 21.3526 2.84115 21.238C2.71294 21.1233 2.61615 20.9778 2.55995 20.8152C2.50375 20.6526 2.49 20.4784 2.52001 20.309L2.54601 20.2L3.43801 17.168C2.49497 15.6093 1.99759 13.8218 2.00001 12C2.00001 6.477 6.47701 2 12 2ZM9.79301 9.793L6.79301 12.793C6.6975 12.8852 6.62132 12.9956 6.56891 13.1176C6.5165 13.2396 6.48891 13.3708 6.48776 13.5036C6.4866 13.6364 6.51191 13.7681 6.56219 13.891C6.61247 14.0139 6.68672 14.1255 6.78061 14.2194C6.87451 14.3133 6.98616 14.3875 7.10905 14.4378C7.23195 14.4881 7.36363 14.5134 7.49641 14.5123C7.62919 14.5111 7.76041 14.4835 7.88241 14.4311C8.00442 14.3787 8.11476 14.3025 8.20701 14.207L10.5 11.914L12.793 14.207C12.9805 14.3945 13.2348 14.4998 13.5 14.4998C13.7652 14.4998 14.0195 14.3945 14.207 14.207L17.207 11.207C17.3892 11.0184 17.49 10.7658 17.4877 10.5036C17.4854 10.2414 17.3802 9.99059 17.1948 9.80518C17.0094 9.61977 16.7586 9.5146 16.4964 9.51233C16.2342 9.51005 15.9816 9.61084 15.793 9.793L13.5 12.086L11.207 9.793C11.0195 9.60553 10.7652 9.50021 10.5 9.50021C10.2348 9.50021 9.98054 9.60553 9.79301 9.793Z" fill="currentColor"/>
</svg>
