<svg width="24" height="24" viewBox="0 0 24 24" fill="none" xmlns="http://www.w3.org/2000/svg">
<path fill-rule="evenodd" clip-rule="evenodd" d="M16.0234 4.50299C17.8534 4.37699 19.2674 5.44499 20.2084 6.67699C21.1564 7.91999 21.8094 9.54299 22.1684 11.139C22.5254 12.735 22.6214 14.45 22.3244 15.912C22.0394 17.316 21.2784 18.922 19.5574 19.437C17.9374 19.921 16.5174 19.217 15.5054 18.365C14.4894 17.51 13.6294 16.312 12.9534 15.189C12.6372 14.6613 12.3403 14.1223 12.0634 13.573C11.7867 14.1219 11.4902 14.6606 11.1744 15.188C10.4984 16.312 9.63838 17.51 8.62238 18.365C7.60938 19.217 6.19038 19.921 4.57038 19.437C2.84938 18.922 2.08838 17.317 1.80338 15.912C1.50738 14.45 1.60338 12.735 1.96038 11.139C2.31838 9.54299 2.97138 7.91899 3.92038 6.67699C4.86038 5.44499 6.27438 4.37699 8.10438 4.50299C9.82038 4.62299 11.0674 5.78599 11.8444 6.77199L12.0644 7.06099L12.2834 6.77099C13.0604 5.78599 14.3074 4.62199 16.0234 4.50299ZM7.89638 7.49599C7.47638 7.46699 6.92638 7.68199 6.30438 8.49799C5.69038 9.30299 5.18038 10.491 4.88738 11.796C4.59538 13.101 4.55238 14.375 4.74338 15.316C4.90838 16.126 5.17338 16.417 5.33538 16.519L5.40338 16.553L5.43038 16.563C5.66238 16.633 6.04438 16.613 6.69038 16.069C7.33538 15.527 7.99338 14.656 8.60438 13.642C8.87638 13.189 9.12938 12.725 9.35638 12.279L9.61638 11.754L9.84938 11.257L10.0554 10.799L10.2304 10.392L10.3734 10.046C10.1799 9.65736 9.95831 9.28336 9.71038 8.92699C9.06638 8.01099 8.42038 7.53299 7.89638 7.49699V7.49599ZM16.2314 7.49599C15.7074 7.53299 15.0614 8.01099 14.4174 8.92699C14.1694 9.28335 13.9478 9.65735 13.7544 10.046L13.9814 10.589L14.1714 11.023L14.2784 11.257L14.5124 11.754L14.7724 12.279C14.9994 12.725 15.2514 13.189 15.5234 13.642C16.1344 14.656 16.7934 15.527 17.4364 16.069C18.0374 16.575 18.4094 16.627 18.6464 16.576L18.6984 16.563C18.8284 16.523 19.1814 16.314 19.3844 15.315C19.5744 14.375 19.5334 13.101 19.2404 11.795C18.9484 10.491 18.4384 9.30299 17.8234 8.49799C17.2004 7.68199 16.6514 7.46799 16.2314 7.49599Z" fill="currentColor"/>
</svg>
