<svg width="24" height="24" viewBox="0 0 24 24" fill="none" xmlns="http://www.w3.org/2000/svg">
<path d="M19.0704 12.01C19.2006 12.0284 19.3259 12.0723 19.4391 12.1392C19.5523 12.206 19.6512 12.2946 19.7302 12.3997C19.8091 12.5049 19.8666 12.6245 19.8992 12.7519C19.9319 12.8793 19.9391 13.0118 19.9204 13.142C19.6698 14.876 18.8571 16.4799 17.607 17.7075C16.357 18.9352 14.7387 19.7187 13.0004 19.938V21C13.0004 21.2652 12.8951 21.5196 12.7075 21.7071C12.52 21.8946 12.2656 22 12.0004 22C11.7352 22 11.4809 21.8946 11.2933 21.7071C11.1058 21.5196 11.0004 21.2652 11.0004 21V19.938C9.2624 19.7184 7.6444 18.9347 6.39459 17.7071C5.14479 16.4795 4.33219 14.8758 4.08143 13.142C4.04376 12.8794 4.11195 12.6127 4.27098 12.4004C4.43001 12.1881 4.66686 12.0477 4.92943 12.01C5.19199 11.9723 5.45876 12.0405 5.67105 12.1996C5.88334 12.3586 6.02376 12.5954 6.06143 12.858C6.26824 14.2856 6.98237 15.5909 8.07304 16.535C9.16371 17.479 10.5579 17.9986 12.0004 17.9986C13.4429 17.9986 14.8371 17.479 15.9278 16.535C17.0185 15.5909 17.7326 14.2856 17.9394 12.858C17.9581 12.728 18.0021 12.6029 18.0691 12.4899C18.1361 12.3769 18.2246 12.2783 18.3298 12.1995C18.4349 12.1208 18.5545 12.0635 18.6817 12.031C18.809 11.9985 18.9404 11.9913 19.0704 12.01ZM12.0004 2C12.8194 2 13.5924 2.197 14.2744 2.546C13.8218 2.86439 13.466 3.30179 13.2465 3.80981C13.027 4.31784 12.9522 4.87668 13.0306 5.42452C13.109 5.97237 13.3373 6.48787 13.6904 6.91399C14.0436 7.34011 14.5077 7.66025 15.0314 7.839L15.4094 7.969C15.5538 8.01827 15.6851 8.09994 15.7931 8.20776C15.901 8.31557 15.9829 8.44666 16.0324 8.591L16.1614 8.969C16.3314 9.469 16.6254 9.901 17.0004 10.236V12C17.0004 13.3261 16.4736 14.5979 15.536 15.5355C14.5983 16.4732 13.3265 17 12.0004 17C10.6743 17 9.40257 16.4732 8.46489 15.5355C7.52721 14.5979 7.00043 13.3261 7.00043 12V7C7.00043 5.67392 7.52721 4.40215 8.46489 3.46447C9.40257 2.52678 10.6743 2 12.0004 2ZM19.0004 1C19.1875 1 19.3708 1.05248 19.5296 1.15147C19.6883 1.25046 19.8161 1.392 19.8984 1.56L19.9464 1.677L20.0764 2.055C20.2136 2.45718 20.4347 2.82563 20.725 3.13594C21.0153 3.44625 21.3683 3.69135 21.7604 3.855L21.9454 3.925L22.3234 4.054C22.5106 4.11786 22.6747 4.2358 22.7948 4.3929C22.915 4.54999 22.9859 4.7392 22.9985 4.93658C23.0111 5.13396 22.9649 5.33065 22.8658 5.50178C22.7666 5.67291 22.6189 5.8108 22.4414 5.898L22.3234 5.946L21.9454 6.076C21.5432 6.2132 21.1748 6.43428 20.8645 6.72459C20.5542 7.01491 20.3091 7.36783 20.1454 7.76L20.0754 7.945L19.9464 8.323C19.8825 8.51014 19.7644 8.6741 19.6073 8.79416C19.4501 8.91423 19.2609 8.98499 19.0635 8.99752C18.8661 9.01004 18.6695 8.96376 18.4984 8.86452C18.3273 8.76528 18.1895 8.61755 18.1024 8.44L18.0544 8.323L17.9244 7.945C17.7872 7.54282 17.5661 7.17437 17.2758 6.86406C16.9855 6.55375 16.6326 6.30865 16.2404 6.145L16.0554 6.075L15.6774 5.946C15.4902 5.88214 15.3262 5.7642 15.206 5.6071C15.0859 5.45001 15.015 5.2608 15.0024 5.06342C14.9897 4.86604 15.0359 4.66935 15.1351 4.49822C15.2342 4.32709 15.3819 4.1892 15.5594 4.102L15.6774 4.054L16.0554 3.924C16.4576 3.7868 16.8261 3.56572 17.1364 3.27541C17.4467 2.98509 17.6918 2.63217 17.8554 2.24L17.9254 2.055L18.0544 1.677C18.1218 1.47959 18.2492 1.30818 18.4189 1.18679C18.5885 1.06539 18.7918 1.00008 19.0004 1Z" fill="currentColor"/>
</svg>
