<svg width="24" height="24" viewBox="0 0 24 24" fill="none" xmlns="http://www.w3.org/2000/svg">
<path fill-rule="evenodd" clip-rule="evenodd" d="M10.9797 7.074C10.9017 6.2559 10.6012 5.47477 10.1108 4.81536C9.62029 4.15594 8.95862 3.64343 8.19753 3.33342C7.43643 3.02341 6.60497 2.92774 5.79336 3.05679C4.98174 3.18584 4.22097 3.53468 3.59356 4.06547C2.96616 4.59626 2.49608 5.28872 2.23434 6.06774C1.9726 6.84675 1.92918 7.68257 2.1088 8.48451C2.28842 9.28645 2.68422 10.0239 3.25325 10.6168C3.82228 11.2098 4.54282 11.6356 5.3367 11.848C4.99854 12.898 4.91334 14.0131 5.08803 15.1023C5.26272 16.1915 5.69237 17.224 6.34194 18.1157C6.9915 19.0073 7.8426 19.7327 8.82582 20.2329C9.80905 20.7331 10.8966 20.9938 11.9997 20.9938C13.1028 20.9938 14.1904 20.7331 15.1736 20.2329C16.1568 19.7327 17.0079 19.0073 17.6575 18.1157C18.307 17.224 18.7367 16.1915 18.9114 15.1023C19.0861 14.0131 19.0009 12.898 18.6627 11.848C19.7153 11.5635 20.6288 10.9066 21.2337 9.99942C21.8385 9.09222 22.0936 7.99633 21.9515 6.91528C21.8094 5.83423 21.2798 4.84148 20.4611 4.1214C19.6423 3.40133 18.59 3.00286 17.4997 3C16.3799 2.99995 15.3004 3.41738 14.4719 4.17074C13.6435 4.9241 13.1257 5.95927 13.0197 7.074C12.3433 6.97521 11.6561 6.97521 10.9797 7.074Z" fill="currentColor"/>
</svg>
