<svg width="24" height="24" viewBox="0 0 24 24" fill="none" xmlns="http://www.w3.org/2000/svg">
<path d="M14.0107 4.62399C14.7817 5.47635 15.3309 6.50549 15.6098 7.62049C15.8887 8.73549 15.8886 9.90201 15.6097 11.017L15.5387 11.279L18.9387 15.652C19.2249 16.02 19.411 16.4558 19.4788 16.917C19.5466 17.3783 19.4939 17.8492 19.3257 18.284C19.446 18.3167 19.5721 18.3219 19.6947 18.299L19.8147 18.269C20.0652 18.1891 20.337 18.211 20.5715 18.3301C20.8059 18.4492 20.984 18.6557 21.0672 18.9051C21.1504 19.1546 21.1321 19.4267 21.0161 19.6627C20.9002 19.8986 20.696 20.0795 20.4477 20.166C19.7976 20.3899 19.0874 20.3635 18.4557 20.092C18.259 20.0088 18.0725 19.9035 17.8997 19.778C17.4851 19.9611 17.0311 20.037 16.5795 19.9985C16.1279 19.9601 15.6933 19.8086 15.3157 19.558L15.1517 19.439L10.7797 16.039C9.63253 16.3737 8.41879 16.4092 7.25404 16.1421C6.08929 15.875 5.01231 15.3142 4.12567 14.513C6.26215 13.4696 8.21009 12.0779 9.88967 10.395C11.5742 8.71382 12.9669 6.7628 14.0107 4.62399ZM12.4187 3.31399C11.4533 5.42299 10.1179 7.34197 8.47567 8.97999C6.83862 10.6207 4.92103 11.9551 2.81367 12.92C2.01166 11.581 1.67992 10.0126 1.87111 8.46356C2.06231 6.91456 2.76548 5.47382 3.86899 4.37008C4.97249 3.26634 6.41309 2.56287 7.96206 2.37135C9.51102 2.17984 11.0796 2.51225 12.4187 3.31399Z" fill="currentColor"/>
</svg>
