<svg width="24" height="24" viewBox="0 0 24 24" fill="none" xmlns="http://www.w3.org/2000/svg">
<path fill-rule="evenodd" clip-rule="evenodd" d="M15.6819 3.28198C16.0359 2.92817 16.5097 2.71997 17.0098 2.6985C17.5099 2.67702 17.9998 2.84383 18.3829 3.16598L18.5099 3.28198L19.2169 3.98998C19.5705 4.34384 19.7787 4.8174 19.8004 5.31723C19.8221 5.81705 19.6556 6.30685 19.3339 6.68998L19.2179 6.81798L18.5099 7.52498C18.4489 7.58575 18.3841 7.64253 18.3159 7.69498C18.4034 8.00866 18.4129 8.33897 18.3437 8.65719C18.2746 8.97542 18.1287 9.27193 17.9189 9.52098L17.8029 9.64598L16.8129 10.636C17.5014 11.2454 18.0524 11.9942 18.4295 12.8328C18.8066 13.6713 19.001 14.5805 18.9999 15.5C18.9999 17.144 18.3899 18.645 17.3839 19.79L17.1899 20H19.9999C20.2547 20.0003 20.4999 20.0979 20.6852 20.2728C20.8706 20.4478 20.9821 20.6869 20.997 20.9414C21.012 21.1958 20.9292 21.4464 20.7656 21.6418C20.602 21.8373 20.37 21.9629 20.1169 21.993L19.9999 22H3.99987C3.74499 21.9997 3.49984 21.9021 3.3145 21.7271C3.12916 21.5522 3.01763 21.313 3.0027 21.0586C2.98776 20.8041 3.07054 20.5536 3.23413 20.3581C3.39772 20.1627 3.62977 20.0371 3.88287 20.007L3.99987 20H12.4999C13.4027 20.0001 14.2846 19.7286 15.0312 19.2209C15.7777 18.7132 16.3542 17.9927 16.6858 17.153C17.0175 16.3133 17.0889 15.3932 16.8907 14.5124C16.6926 13.6316 16.2341 12.8308 15.5749 12.214L15.3949 12.054L12.1459 15.304C11.7919 15.6575 11.3183 15.8655 10.8184 15.887C10.3186 15.9085 9.82887 15.7418 9.44587 15.42L9.31787 15.303L7.19687 13.182C6.84292 12.8281 6.63454 12.3543 6.61288 11.8542C6.59122 11.3542 6.75785 10.8642 7.07987 10.481L7.19687 10.354L12.8539 4.69698C13.1043 4.44642 13.4169 4.26689 13.7595 4.17676C14.1021 4.08662 14.4625 4.08911 14.8039 4.18398L14.8859 4.08398L14.9749 3.98998L15.6819 3.28198ZM6.48987 13.89L8.60987 16.011C8.70544 16.1032 8.7817 16.2134 8.83419 16.3354C8.88669 16.4574 8.91436 16.5886 8.91561 16.7214C8.91686 16.8541 8.89165 16.9858 8.84145 17.1088C8.79126 17.2317 8.71709 17.3434 8.62326 17.4374C8.52944 17.5313 8.41784 17.6056 8.29498 17.656C8.17212 17.7064 8.04046 17.7318 7.90768 17.7307C7.7749 17.7297 7.64366 17.7022 7.52162 17.6498C7.39958 17.5975 7.28918 17.5214 7.19687 17.426L5.07487 15.304C4.98202 15.2111 4.90839 15.1008 4.85817 14.9794C4.80794 14.858 4.78212 14.728 4.78217 14.5966C4.78221 14.4653 4.80813 14.3352 4.85844 14.2139C4.90875 14.0926 4.98246 13.9823 5.07537 13.8895C5.16828 13.7966 5.27857 13.723 5.39993 13.6728C5.5213 13.6226 5.65137 13.5967 5.78272 13.5968C5.91407 13.5968 6.04412 13.6227 6.16546 13.673C6.28679 13.7234 6.39702 13.7971 6.48987 13.89ZM17.0959 4.69798L16.3889 5.40498L17.0959 6.11198L17.8029 5.40498L17.0959 4.69798Z" fill="currentColor"/>
</svg>
