<svg width="24" height="24" viewBox="0 0 24 24" fill="none" xmlns="http://www.w3.org/2000/svg">
<path d="M14.1157 6.817C14.1781 6.78607 14.2467 6.76974 14.3164 6.76926C14.386 6.76878 14.4548 6.78415 14.5177 6.81421C14.5805 6.84428 14.6357 6.88824 14.679 6.94278C14.7223 6.99732 14.7526 7.061 14.7677 7.129L14.7777 7.209L15.1877 17.464C15.193 17.5965 15.1696 17.7286 15.119 17.8511C15.0684 17.9737 14.9919 18.0838 14.8947 18.174L14.8047 18.246L12.3197 20.022C12.2401 20.0788 12.1468 20.1134 12.0495 20.1222C11.9521 20.131 11.8541 20.1137 11.7657 20.072L11.6797 20.022L9.19468 18.246C9.08679 18.1688 8.99693 18.0691 8.93133 17.9537C8.86572 17.8384 8.82592 17.7102 8.81468 17.578L8.81168 17.464L9.22168 7.209C9.22452 7.13939 9.24316 7.07134 9.2762 7.01001C9.30924 6.94867 9.35581 6.89566 9.41237 6.855C9.46894 6.81433 9.53402 6.78707 9.60269 6.77529C9.67135 6.76351 9.7418 6.76752 9.80868 6.787L9.88468 6.817L11.5897 7.67C11.6986 7.72418 11.8171 7.75623 11.9385 7.7643C12.0598 7.77237 12.1816 7.75629 12.2967 7.717L12.4097 7.67L14.1157 6.817ZM20.4177 4.124C20.4925 4.0866 20.5748 4.06674 20.6584 4.06594C20.742 4.06514 20.8247 4.08342 20.9002 4.11938C20.9757 4.15534 21.042 4.20804 21.0941 4.27348C21.1461 4.33892 21.1826 4.41536 21.2007 4.497L21.2127 4.586L22.0327 19.336C22.0378 19.4236 22.0218 19.5111 21.9862 19.5912C21.9506 19.6714 21.8963 19.7419 21.8279 19.7968C21.7595 19.8517 21.6789 19.8894 21.5929 19.9069C21.507 19.9243 21.4181 19.9209 21.3337 19.897L21.2537 19.867L16.4297 17.641C16.3513 17.6047 16.2826 17.5505 16.2291 17.4828C16.1756 17.415 16.1388 17.3356 16.1217 17.251L16.1117 17.164L15.6817 6.856C15.6777 6.7655 15.6962 6.67542 15.7355 6.59378C15.7747 6.51213 15.8335 6.44145 15.9067 6.388L15.9847 6.341L20.4177 4.124ZM3.58168 4.124L8.01468 6.341C8.10963 6.38837 8.18886 6.4622 8.2428 6.55358C8.29674 6.64495 8.32309 6.74998 8.31868 6.856L7.88868 17.164C7.88457 17.2652 7.85261 17.3632 7.79632 17.4474C7.74004 17.5316 7.66161 17.5986 7.56968 17.641L2.74668 19.867C2.66051 19.9069 2.56549 19.9237 2.47087 19.916C2.37624 19.9082 2.28524 19.8761 2.20671 19.8227C2.12818 19.7694 2.0648 19.6966 2.02274 19.6115C1.98068 19.5264 1.96137 19.4318 1.96668 19.337L2.78668 4.586C2.79166 4.49494 2.8192 4.40655 2.86683 4.32878C2.91445 4.25101 2.98067 4.1863 3.05952 4.14048C3.13836 4.09466 3.22737 4.06916 3.31852 4.06629C3.40967 4.06341 3.5001 4.08324 3.58168 4.124Z" fill="currentColor"/>
</svg>
