<svg width="24" height="24" viewBox="0 0 24 24" fill="none" xmlns="http://www.w3.org/2000/svg">
<path fill-rule="evenodd" clip-rule="evenodd" d="M20 12C20.5046 11.9998 20.9906 12.1904 21.3605 12.5335C21.7305 12.8766 21.9572 13.3468 21.995 13.85L22 14V18C22.0002 18.5046 21.8096 18.9906 21.4665 19.3605C21.1234 19.7305 20.6532 19.9572 20.15 19.995L20 20H15C14.4954 20.0002 14.0094 19.8096 13.6395 19.4665C13.2695 19.1234 13.0428 18.6532 13.005 18.15L13 18V14C12.9998 13.4954 13.1904 13.0094 13.5335 12.6395C13.8766 12.2695 14.3468 12.0428 14.85 12.005L15 12H20ZM19 4C19.5304 4 20.0391 4.21071 20.4142 4.58579C20.7893 4.96086 21 5.46957 21 6V10H14C13.2044 10 12.4413 10.3161 11.8787 10.8787C11.3161 11.4413 11 12.2044 11 13V19H4C3.46957 19 2.96086 18.7893 2.58579 18.4142C2.21071 18.0391 2 17.5304 2 17V6C2 5.46957 2.21071 4.96086 2.58579 4.58579C2.96086 4.21071 3.46957 4 4 4H19ZM20 14H15V18H20V14ZM4.173 6.173C3.98553 6.36053 3.88021 6.61484 3.88021 6.88C3.88021 7.14516 3.98553 7.39947 4.173 7.587L6.088 9.502H5.502C5.23678 9.502 4.98243 9.60736 4.79489 9.79489C4.60736 9.98243 4.502 10.2368 4.502 10.502C4.502 10.7672 4.60736 11.0216 4.79489 11.2091C4.98243 11.3966 5.23678 11.502 5.502 11.502H8.502C8.76722 11.502 9.02157 11.3966 9.20911 11.2091C9.39664 11.0216 9.502 10.7672 9.502 10.502V7.502C9.502 7.23678 9.39664 6.98243 9.20911 6.79489C9.02157 6.60736 8.76722 6.502 8.502 6.502C8.23678 6.502 7.98243 6.60736 7.79489 6.79489C7.60736 6.98243 7.502 7.23678 7.502 7.502V8.088L5.587 6.173C5.39947 5.98553 5.14516 5.88021 4.88 5.88021C4.61484 5.88021 4.36053 5.98553 4.173 6.173Z" fill="currentColor"/>
</svg>
