<svg width="24" height="24" viewBox="0 0 24 24" fill="none" xmlns="http://www.w3.org/2000/svg">
<path d="M15 11.533V15C15 15.2449 15.09 15.4813 15.2527 15.6644C15.4155 15.8474 15.6397 15.9643 15.883 15.993L16 16H21.168C20.3893 17.7836 19.1071 19.3013 17.4787 20.3671C15.8502 21.4328 13.9462 22.0003 12 22C10.103 22.0003 8.24508 21.4611 6.643 20.4452C5.04092 19.4294 3.76079 17.9789 2.952 16.263L2.832 16H8C8.24493 16 8.48134 15.91 8.66437 15.7473C8.84741 15.5845 8.96434 15.3603 8.993 15.117L9 15V11.533L11.148 15.024C11.2318 15.1604 11.347 15.2746 11.4841 15.3572C11.6212 15.4398 11.7761 15.4883 11.9358 15.4985C12.0955 15.5088 12.2554 15.4806 12.4019 15.4163C12.5485 15.352 12.6774 15.2535 12.778 15.129L12.852 15.024L15 11.533ZM12 2C17.523 2 22 6.477 22 12C22 12.548 21.956 13.086 21.871 13.61L21.8 14H17V8C16.9999 7.79265 16.9354 7.59045 16.8154 7.42138C16.6954 7.25231 16.5258 7.12473 16.33 7.0563C16.1343 6.98788 15.9221 6.98198 15.7229 7.03944C15.5237 7.09689 15.3472 7.21485 15.218 7.377L15.148 7.476L12 12.592L8.852 7.476C8.74343 7.29913 8.58252 7.16042 8.39157 7.0791C8.20063 6.99779 7.98912 6.97789 7.78636 7.02218C7.5836 7.06647 7.39965 7.17274 7.26 7.32627C7.12035 7.47979 7.03193 7.67297 7.007 7.879L7 8V14H2.2C2.069 13.354 2 12.685 2 12C2 6.477 6.477 2 12 2Z" fill="currentColor"/>
</svg>
