<svg width="24" height="24" viewBox="0 0 24 24" fill="none" xmlns="http://www.w3.org/2000/svg">
<path fill-rule="evenodd" clip-rule="evenodd" d="M19.66 4.21602C20.867 4.02202 22 4.94402 22 6.20002V15.8C22 17.056 20.868 17.978 19.66 17.785C17.4567 17.4281 15.2314 17.2236 13 17.173V18.535C13.713 18.584 14.38 18.675 14.914 18.764C15.36 18.838 15.804 18.921 16.242 19.03C16.3695 19.0618 16.4894 19.1184 16.595 19.1966C16.7006 19.2748 16.7897 19.373 16.8573 19.4857C16.9249 19.5983 16.9697 19.7232 16.989 19.8531C17.0084 19.9831 17.0019 20.1156 16.97 20.243C16.902 20.5011 16.7348 20.7219 16.5048 20.8573C16.2748 20.9927 16.0007 21.0318 15.742 20.966C15.359 20.876 14.973 20.801 14.586 20.736C13.7317 20.5884 12.8669 20.5095 12 20.5C11.076 20.5 10.135 20.616 9.414 20.736C9.027 20.801 8.641 20.876 8.258 20.966C7.99934 21.0318 7.72516 20.9927 7.49517 20.8573C7.26518 20.7219 7.09799 20.5011 7.03 20.243C6.96995 19.9855 7.01259 19.7147 7.14888 19.488C7.28516 19.2614 7.50436 19.0967 7.76 19.029C8.19844 18.9237 8.64077 18.8353 9.086 18.764C9.62 18.674 10.286 18.584 11 18.535V17.173C8.76857 17.2236 6.54328 17.4281 4.34 17.785C3.133 17.978 2 17.055 2 15.8V6.20002C2 4.94402 3.132 4.02202 4.34 4.21602C9.514 5.04502 14.486 5.04502 19.66 4.21602Z" fill="currentColor"/>
</svg>
