<svg width="24" height="24" viewBox="0 0 24 24" fill="none" xmlns="http://www.w3.org/2000/svg">
<path d="M16 5.23603V17H17.75C18.44 17 19 17.56 19 18.25V20H20C20.2652 20 20.5196 20.1054 20.7071 20.2929C20.8946 20.4805 21 20.7348 21 21C21 21.2652 20.8946 21.5196 20.7071 21.7071C20.5196 21.8947 20.2652 22 20 22H4C3.73478 22 3.48043 21.8947 3.29289 21.7071C3.10536 21.5196 3 21.2652 3 21C3 20.7348 3.10536 20.4805 3.29289 20.2929C3.48043 20.1054 3.73478 20 4 20H5V18.25C5 17.56 5.56 17 6.25 17H8V5.23603L7.112 3.46003C7.03974 3.31555 7.00318 3.15585 7.00541 2.99432C7.00763 2.83279 7.04857 2.67416 7.12478 2.53172C7.20099 2.38929 7.31026 2.26721 7.44341 2.17574C7.57656 2.08427 7.72971 2.02607 7.89 2.00603L11.845 1.51203C11.9479 1.49916 12.0521 1.49916 12.155 1.51203L16.11 2.00603C16.802 2.09203 17.2 2.83603 16.888 3.46003L16 5.23603Z" fill="currentColor"/>
</svg>
