<svg width="24" height="24" viewBox="0 0 24 24" fill="none" xmlns="http://www.w3.org/2000/svg">
<path fill-rule="evenodd" clip-rule="evenodd" d="M13.5735 3.13801C13.3928 3.10613 13.2068 3.12409 13.0355 3.18996C12.8642 3.25584 12.7141 3.36714 12.6013 3.5119C12.4886 3.65667 12.4173 3.82943 12.3954 4.01163C12.3734 4.19382 12.4014 4.37856 12.4765 4.54601C12.9748 5.6559 13.1239 6.89104 12.904 8.08761C12.6841 9.28418 12.1057 10.3856 11.2454 11.2459C10.3852 12.1062 9.28371 12.6846 8.08714 12.9045C6.89057 13.1243 5.65543 12.9753 4.54554 12.477C4.37805 12.4016 4.19319 12.3734 4.01083 12.3952C3.82848 12.4171 3.65554 12.4883 3.51062 12.6011C3.36571 12.7139 3.2543 12.8642 3.18838 13.0356C3.12247 13.207 3.10454 13.3932 3.13654 13.574C3.52794 15.7916 4.73645 17.7819 6.52351 19.152C8.31058 20.5222 10.5463 21.1726 12.7895 20.9749C15.0327 20.7773 17.1203 19.7459 18.6402 18.0844C20.1601 16.4228 21.002 14.2519 20.9995 12C20.9995 9.88596 20.2554 7.83938 18.8976 6.21902C17.5398 4.59866 15.655 3.50792 13.5735 3.13801Z" fill="currentColor"/>
</svg>
