<svg width="24" height="24" viewBox="0 0 24 24" fill="none" xmlns="http://www.w3.org/2000/svg">
<path fill-rule="evenodd" clip-rule="evenodd" d="M12 2C17.523 2 22 6.477 22 12C22 17.523 17.523 22 12 22C6.477 22 2 17.523 2 12C2 6.477 6.477 2 12 2ZM12 15C11.6022 15 11.2206 15.158 10.9393 15.4393C10.658 15.7206 10.5 16.1022 10.5 16.5C10.5 16.8978 10.658 17.2794 10.9393 17.5607C11.2206 17.842 11.6022 18 12 18C12.3978 18 12.7794 17.842 13.0607 17.5607C13.342 17.2794 13.5 16.8978 13.5 16.5C13.5 16.1022 13.342 15.7206 13.0607 15.4393C12.7794 15.158 12.3978 15 12 15ZM12 10.5C11.6022 10.5 11.2206 10.658 10.9393 10.9393C10.658 11.2206 10.5 11.6022 10.5 12C10.5 12.3978 10.658 12.7794 10.9393 13.0607C11.2206 13.342 11.6022 13.5 12 13.5C12.3978 13.5 12.7794 13.342 13.0607 13.0607C13.342 12.7794 13.5 12.3978 13.5 12C13.5 11.6022 13.342 11.2206 13.0607 10.9393C12.7794 10.658 12.3978 10.5 12 10.5ZM12 6C11.6022 6 11.2206 6.15804 10.9393 6.43934C10.658 6.72064 10.5 7.10218 10.5 7.5C10.5 7.89782 10.658 8.27936 10.9393 8.56066C11.2206 8.84196 11.6022 9 12 9C12.3978 9 12.7794 8.84196 13.0607 8.56066C13.342 8.27936 13.5 7.89782 13.5 7.5C13.5 7.10218 13.342 6.72064 13.0607 6.43934C12.7794 6.15804 12.3978 6 12 6Z" fill="currentColor"/>
</svg>
