<svg width="24" height="24" viewBox="0 0 24 24" fill="none" xmlns="http://www.w3.org/2000/svg">
<path d="M18.9998 12.282V14C18.9998 15.8565 18.2623 17.637 16.9495 18.9498C15.6368 20.2625 13.8563 21 11.9998 21C10.1433 21 8.36278 20.2625 7.05002 18.9498C5.73727 17.637 4.99977 15.8565 4.99977 14V12.282L11.3588 15.289C11.5592 15.3837 11.7781 15.4329 11.9998 15.4329C12.2214 15.4329 12.4404 15.3837 12.6408 15.289L18.9998 12.282ZM12.6408 2.71201L21.7208 7.00601C22.4548 7.35201 22.5478 8.30801 21.9998 8.80901V13C21.9998 13.2652 21.8944 13.5196 21.7069 13.7071C21.5193 13.8947 21.265 14 20.9998 14C20.7346 14 20.4802 13.8947 20.2927 13.7071C20.1051 13.5196 19.9998 13.2652 19.9998 13V9.81001L12.6408 13.29C12.4404 13.3847 12.2214 13.4339 11.9998 13.4339C11.7781 13.4339 11.5592 13.3847 11.3588 13.29L2.27877 8.99501C2.09062 8.90583 1.93164 8.76508 1.82032 8.58913C1.709 8.41317 1.6499 8.20923 1.6499 8.00101C1.6499 7.7928 1.709 7.58886 1.82032 7.4129C1.93164 7.23694 2.09062 7.09619 2.27877 7.00701L11.3588 2.71301C11.5592 2.61828 11.7781 2.56915 11.9998 2.56915C12.2214 2.56915 12.4404 2.61828 12.6408 2.71301V2.71201Z" fill="currentColor"/>
</svg>
