<svg width="24" height="24" viewBox="0 0 24 24" fill="none" xmlns="http://www.w3.org/2000/svg">
<path fill-rule="evenodd" clip-rule="evenodd" d="M8.70125 5.75C9.27825 4.75 10.7213 4.75 11.2993 5.75L14.7993 11.812L15.7013 10.25C16.2783 9.25 17.7213 9.25 18.2993 10.25L22.6293 17.75C22.7609 17.978 22.8302 18.2367 22.8302 18.5C22.8302 18.7633 22.7609 19.022 22.6293 19.25C22.4976 19.478 22.3083 19.6674 22.0802 19.799C21.8522 19.9307 21.5936 20 21.3303 20H17.0003V19.998C16.9763 19.9992 16.9523 19.9999 16.9283 20H3.07225C2.80886 20.0002 2.55008 19.931 2.32191 19.7994C2.09375 19.6678 1.90426 19.4785 1.77249 19.2504C1.64073 19.0224 1.57133 18.7636 1.57129 18.5002C1.57125 18.2369 1.64056 17.9781 1.77225 17.75L8.70125 5.75ZM7.79125 11.326L8.50025 11.798L9.44525 11.168C9.60958 11.0584 9.8027 10.9999 10.0003 10.9999C10.1978 10.9999 10.3909 11.0584 10.5553 11.168L11.5003 11.798L12.2093 11.326L10.0003 7.5L7.79125 11.326Z" fill="currentColor"/>
</svg>
