<svg width="24" height="24" viewBox="0 0 24 24" fill="none" xmlns="http://www.w3.org/2000/svg">
<path fill-rule="evenodd" clip-rule="evenodd" d="M10.762 6.025C10.4473 7.12005 10.0856 8.20105 9.678 9.265C10.04 9.599 10.378 9.964 10.726 10.312L11.106 9.552C11.1769 9.41036 11.2804 9.28759 11.408 9.19378C11.5356 9.09997 11.6837 9.03782 11.84 9.01243C11.9963 8.98704 12.1564 8.99915 12.3072 9.04775C12.4579 9.09636 12.5949 9.18007 12.707 9.292L13.726 10.312L14.106 9.552C14.16 9.44405 14.2332 9.3468 14.322 9.265C13.9144 8.20102 13.5528 7.12003 13.238 6.025C13.226 5.98 13.157 6 13.123 6L12.243 6.22C12.0835 6.25996 11.9165 6.25996 11.757 6.22L10.877 6C10.841 6 10.775 5.977 10.762 6.025ZM3.788 17.29C3.64 17.571 3.512 17.81 3.408 17.999H3C2.73478 17.999 2.48043 18.1044 2.29289 18.2919C2.10536 18.4794 2 18.7338 2 18.999C2 19.2642 2.10536 19.5186 2.29289 19.7061C2.48043 19.8936 2.73478 19.999 3 19.999H21C21.2652 19.999 21.5196 19.8936 21.7071 19.7061C21.8946 19.5186 22 19.2642 22 18.999C22 18.7338 21.8946 18.4794 21.7071 18.2919C21.5196 18.1044 21.2652 17.999 21 17.999H20.591C20.488 17.809 20.361 17.571 20.211 17.29C19.663 16.2535 19.1343 15.207 18.625 14.151C17.39 11.592 15.971 8.343 15.163 5.481C15.0445 5.05626 14.7907 4.68179 14.44 4.41448C14.0893 4.14718 13.6609 4.00165 13.22 4C12.797 4 12.41 4.117 12.001 4.22C11.591 4.117 11.205 4 10.781 4C9.86 4 9.08 4.624 8.838 5.481C8.03 8.344 6.61 11.593 5.376 14.152C4.86649 15.2084 4.33739 16.2552 3.789 17.292" fill="currentColor"/>
</svg>
