<svg width="24" height="24" viewBox="0 0 24 24" fill="none" xmlns="http://www.w3.org/2000/svg">
<path fill-rule="evenodd" clip-rule="evenodd" d="M20.314 8.03799C18.907 7.07299 16.942 6.07799 14.927 6.00199C14.121 5.97199 13.445 6.30699 12.76 6.64699C12.568 6.74299 12.375 6.83799 12.179 6.92699C12.024 6.99599 11.976 6.99599 11.821 6.92699C11.6258 6.83749 11.4325 6.74413 11.241 6.64699C10.556 6.30699 9.879 5.97099 9.073 6.00199C7.058 6.07799 5.093 7.07299 3.686 8.03799C2.763 8.66999 1 9.68399 1 11C1 12.451 2.937 14.116 3.914 14.948C5.73 16.496 8.451 18 12 18C15.549 18 18.27 16.496 20.086 14.95C21.102 14.083 23 12.512 23 11C23 9.72299 21.206 8.64999 20.314 8.03799ZM12 13C15.153 13 18.182 12.51 21 11.609C19.4892 11.2031 17.9314 10.9983 16.367 11C14.855 11 13.39 11.188 12 11.54C10.5723 11.1801 9.10539 10.9988 7.633 11C6.024 11 4.469 11.213 3 11.609C5.90998 12.5354 8.94611 13.0047 12 13Z" fill="currentColor"/>
</svg>
