<svg width="24" height="24" viewBox="0 0 24 24" fill="none" xmlns="http://www.w3.org/2000/svg">
<path d="M8.11 7.06002C7.8291 6.77876 7.67132 6.39752 7.67132 6.00002C7.67132 5.60251 7.8291 5.22127 8.11 4.94002L10.868 2.18202C11.0166 2.0334 11.193 1.91551 11.3871 1.83508C11.5813 1.75465 11.7894 1.71326 11.9995 1.71326C12.2097 1.71326 12.4177 1.75465 12.6119 1.83508C12.806 1.91551 12.9824 2.0334 13.131 2.18202L15.889 4.93902C16.0283 5.07828 16.1389 5.24363 16.2143 5.42561C16.2897 5.6076 16.3286 5.80266 16.3286 5.99966C16.3287 6.19666 16.2899 6.39174 16.2146 6.57376C16.1392 6.75578 16.0288 6.92118 15.8895 7.06052C15.7502 7.19985 15.5849 7.31039 15.4029 7.38582C15.2209 7.46125 15.0259 7.5001 14.8289 7.50014C14.6319 7.50019 14.4368 7.46143 14.2548 7.38609C14.0727 7.31074 13.9073 7.20028 13.768 7.06102L13.5 6.79302V10.5H17.207L16.939 10.232C16.6577 9.95062 16.4998 9.56902 16.4999 9.17116C16.5 8.7733 16.6581 8.39178 16.9395 8.11052C17.2209 7.82925 17.6025 7.67129 18.0004 7.67139C18.3982 7.67148 18.7797 7.82962 19.061 8.11102L21.818 10.869C22.1178 11.169 22.2863 11.5759 22.2863 12C22.2863 12.4242 22.1178 12.831 21.818 13.131L19.061 15.889C18.7797 16.1704 18.3982 16.3285 18.0004 16.3286C17.6025 16.3287 17.2209 16.1708 16.9395 15.8895C16.6581 15.6083 16.5 15.2267 16.4999 14.8289C16.4998 14.431 16.6577 14.0494 16.939 13.768L17.207 13.5H13.5V17.207L13.768 16.939C14.0494 16.6578 14.431 16.4998 14.8289 16.4999C15.2267 16.5 15.6082 16.6581 15.8895 16.9395C16.1708 17.2209 16.3287 17.6025 16.3286 18.0004C16.3285 18.3982 16.1704 18.7798 15.889 19.061L13.131 21.818C12.9824 21.9666 12.806 22.0845 12.6119 22.1649C12.4177 22.2454 12.2097 22.2868 11.9995 22.2868C11.7894 22.2868 11.5813 22.2454 11.3871 22.1649C11.193 22.0845 11.0166 21.9666 10.868 21.818L8.111 19.061C7.82961 18.7798 7.67147 18.3982 7.67138 18.0004C7.67128 17.6025 7.82924 17.2209 8.1105 16.9395C8.39177 16.6581 8.77329 16.5 9.17115 16.4999C9.56901 16.4998 9.95061 16.6578 10.232 16.939L10.5 17.207V13.5H6.793L7.061 13.768C7.34227 14.0494 7.50022 14.431 7.50013 14.8289C7.50004 15.2267 7.3419 15.6083 7.0605 15.8895C6.77911 16.1708 6.39751 16.3287 5.99965 16.3286C5.60179 16.3285 5.22027 16.1704 4.939 15.889L2.182 13.131C1.88217 12.831 1.71375 12.4242 1.71375 12C1.71375 11.5759 1.88217 11.169 2.182 10.869L4.939 8.11001C5.22027 7.82862 5.60179 7.67048 5.99965 7.67039C6.19665 7.67034 6.39173 7.7091 6.57375 7.78444C6.75577 7.85979 6.92117 7.97025 7.0605 8.10952C7.19984 8.24878 7.31037 8.41413 7.38581 8.59612C7.46124 8.7781 7.50008 8.97316 7.50013 9.17016C7.50018 9.36716 7.46142 9.56224 7.38608 9.74426C7.31073 9.92628 7.20027 10.0917 7.061 10.231L6.793 10.499H10.5V6.79302L10.232 7.06102C9.95071 7.34222 9.56925 7.5002 9.1715 7.5002C8.77376 7.5002 8.3923 7.34222 8.111 7.06102L8.11 7.06002Z" fill="currentColor"/>
</svg>
