<svg width="24" height="24" viewBox="0 0 24 24" fill="none" xmlns="http://www.w3.org/2000/svg">
<path fill-rule="evenodd" clip-rule="evenodd" d="M20 2C20.5304 2 21.0391 2.21071 21.4142 2.58579C21.7893 2.96086 22 3.46957 22 4V16C22 16.5304 21.7893 17.0391 21.4142 17.4142C21.0391 17.7893 20.5304 18 20 18H17V20C17 20.5304 16.7893 21.0391 16.4142 21.4142C16.0391 21.7893 15.5304 22 15 22H4C3.46957 22 2.96086 21.7893 2.58579 21.4142C2.21071 21.0391 2 20.5304 2 20V9C2 8.46957 2.21071 7.96086 2.58579 7.58579C2.96086 7.21071 3.46957 7 4 7H6V4C6 3.46957 6.21071 2.96086 6.58579 2.58579C6.96086 2.21071 7.46957 2 8 2H20ZM6 9H4V20H15V18H8C7.46957 18 6.96086 17.7893 6.58579 17.4142C6.21071 17.0391 6 16.5304 6 16V9ZM17.89 7.232C17.7178 7.05982 17.4887 6.95639 17.2457 6.94111C17.0027 6.92583 16.7624 6.99975 16.57 7.149L16.475 7.232L12.939 10.768L11.525 9.354C11.345 9.17465 11.1036 9.07053 10.8496 9.06277C10.5957 9.05502 10.3483 9.14422 10.1577 9.31225C9.96716 9.48028 9.84769 9.71455 9.8236 9.96747C9.79951 10.2204 9.87259 10.473 10.028 10.674L10.111 10.768L12.161 12.818C12.3515 13.0088 12.6055 13.1229 12.8746 13.1388C13.1438 13.1546 13.4094 13.0711 13.621 12.904L13.717 12.819L17.889 8.647C17.982 8.55413 18.0557 8.44384 18.1061 8.32244C18.1564 8.20104 18.1823 8.07092 18.1823 7.9395C18.1823 7.80808 18.1564 7.67796 18.1061 7.55656C18.0557 7.43516 17.983 7.32487 17.89 7.232Z" fill="currentColor"/>
</svg>
