<svg width="24" height="24" viewBox="0 0 24 24" fill="none" xmlns="http://www.w3.org/2000/svg">
<path d="M12.0001 2.65701C12.7876 2.6581 13.5698 2.78504 14.3171 3.03301C13.8973 3.41282 13.5628 3.87743 13.3359 4.39612C13.109 4.91481 12.9948 5.47576 13.0008 6.04188C13.0068 6.60801 13.1329 7.16641 13.3708 7.68015C13.6087 8.1939 13.953 8.6513 14.3808 9.0221C14.8086 9.3929 15.3103 9.66865 15.8526 9.83112C16.395 9.9936 16.9656 10.0391 17.5269 9.9646C18.0881 9.8901 18.6271 9.69732 19.1083 9.39899C19.5895 9.10066 20.0018 8.70358 20.3181 8.23401C20.4911 8.48101 20.6591 8.72701 20.8231 8.97301C21.8231 10.473 21.6741 12.18 20.8271 13.44C19.9911 14.684 18.4781 15.496 16.7531 15.347C16.2235 15.3011 15.6935 15.2601 15.1631 15.224L14.3761 15.174L15.2331 18.176C15.3566 18.6079 15.3814 19.062 15.3059 19.5048C15.2304 19.9476 15.0564 20.3678 14.7967 20.7344C14.5371 21.101 14.1985 21.4045 13.8058 21.6227C13.4132 21.8409 12.9765 21.9681 12.5281 21.995L12.3481 22H11.6511C11.202 21.9999 10.7587 21.899 10.3538 21.7046C9.94889 21.5103 9.59279 21.2275 9.31177 20.8772C9.03074 20.5269 8.83196 20.118 8.73008 19.6806C8.6282 19.2432 8.62583 18.7885 8.72313 18.35L8.76713 18.176L9.62413 15.175C8.84413 15.218 8.03913 15.278 7.24713 15.347C5.52213 15.497 4.00913 14.684 3.17313 13.44C2.32613 12.18 2.17713 10.472 3.17713 8.97301C3.78899 8.04656 4.44924 7.15299 5.15513 6.29601C7.10813 3.95201 9.49513 2.65701 12.0001 2.65701ZM16.4331 4.08201C17.2881 4.65701 18.0981 5.40001 18.8451 6.29601L18.9551 6.42801C18.8796 6.77255 18.7142 7.09097 18.4759 7.35098C18.2375 7.611 17.9347 7.80335 17.598 7.90854C17.2613 8.01372 16.9028 8.02799 16.5588 7.94991C16.2148 7.87182 15.8976 7.70416 15.6394 7.46392C15.3811 7.22368 15.191 6.91941 15.0883 6.58197C14.9855 6.24453 14.9739 5.88593 15.0545 5.54254C15.1351 5.19914 15.3051 4.88317 15.5472 4.62667C15.7893 4.37017 16.095 4.18226 16.4331 4.08201Z" fill="currentColor"/>
</svg>
