<svg width="24" height="24" viewBox="0 0 24 24" fill="none" xmlns="http://www.w3.org/2000/svg">
<path fill-rule="evenodd" clip-rule="evenodd" d="M18.6708 3.20797C18.9573 3.1602 19.2507 3.17538 19.5307 3.25247C19.8107 3.32956 20.0706 3.46671 20.2922 3.65438C20.5139 3.84204 20.692 4.07573 20.8142 4.33918C20.9364 4.60264 20.9997 4.88955 20.9998 5.17997V17C20.9996 17.8805 20.7089 18.7363 20.1728 19.4347C19.6366 20.1332 18.885 20.6352 18.0345 20.863C17.1839 21.0907 16.282 21.0314 15.4686 20.6944C14.6552 20.3573 13.9757 19.7613 13.5355 18.9987C13.0954 18.2361 12.9191 17.3496 13.0341 16.4766C13.1491 15.6037 13.5489 14.7931 14.1716 14.1705C14.7942 13.5479 15.6049 13.1482 16.4779 13.0333C17.3508 12.9184 18.2373 13.0947 18.9998 13.535V9.17997L8.99985 10.847V18C8.99985 18.06 8.99485 18.117 8.98485 18.174C9.05664 18.9429 8.87207 19.7141 8.4599 20.3672C8.04772 21.0204 7.43109 21.5188 6.70607 21.785C5.98105 22.0511 5.18836 22.0699 4.45151 21.8386C3.71466 21.6072 3.07502 21.1386 2.63226 20.5058C2.1895 19.873 1.96848 19.1115 2.00363 18.34C2.03878 17.5685 2.32813 16.8303 2.8266 16.2404C3.32507 15.6504 4.00467 15.242 4.75951 15.0786C5.51435 14.9152 6.30203 15.006 6.99985 15.337V6.84697C6.99979 6.37353 7.16768 5.91542 7.47366 5.55415C7.77964 5.19287 8.20386 4.95185 8.67085 4.87397L18.6708 3.20797ZM8.99985 8.81997L18.9998 7.15297V5.17997L8.99985 6.84697V8.81997Z" fill="currentColor"/>
</svg>
