<svg width="24" height="24" viewBox="0 0 24 24" fill="none" xmlns="http://www.w3.org/2000/svg">
<path d="M20.9998 3.694V7.279C20.9998 7.69864 20.8677 8.10763 20.6224 8.44808C20.3771 8.78853 20.0309 9.04319 19.6328 9.176L14.9998 10.721V17.5C14.9997 18.5032 14.6644 19.4776 14.0472 20.2684C13.4299 21.0593 12.5661 21.6211 11.593 21.8649C10.6198 22.1086 9.59317 22.0201 8.67606 21.6135C7.75894 21.207 7.00398 20.5056 6.5311 19.6208C6.05822 18.7361 5.89455 17.7187 6.06607 16.7303C6.2376 15.7418 6.73449 14.8391 7.47781 14.1654C8.22114 13.4917 9.16827 13.0857 10.1687 13.0119C11.1692 12.938 12.1657 13.2007 12.9998 13.758V6.44C12.9998 5.8104 13.1979 5.19675 13.566 4.68597C13.9341 4.17519 14.4535 3.79316 15.0508 3.594L19.0258 2.27C19.2513 2.19488 19.4915 2.17444 19.7265 2.21037C19.9615 2.24629 20.1846 2.33756 20.3774 2.47663C20.5702 2.61571 20.7271 2.79861 20.8354 3.01027C20.9436 3.22193 20.9999 3.45628 20.9998 3.694ZM6.99981 1C7.2084 1.00008 7.41175 1.06539 7.58138 1.18679C7.75101 1.30818 7.87843 1.47959 7.94581 1.677L8.07581 2.055C8.22381 2.48875 8.46922 2.88283 8.7932 3.20699C9.11719 3.53115 9.51114 3.77677 9.94481 3.925L10.3228 4.054C10.52 4.12157 10.6912 4.24908 10.8123 4.41869C10.9335 4.58831 10.9986 4.79155 10.9986 5C10.9986 5.20845 10.9335 5.41169 10.8123 5.58131C10.6912 5.75092 10.52 5.87843 10.3228 5.946L9.94481 6.076C9.51106 6.224 9.11698 6.46941 8.79282 6.79339C8.46866 7.11738 8.22304 7.51133 8.07481 7.945L7.94581 8.323C7.87824 8.5202 7.75073 8.69134 7.58112 8.81252C7.4115 8.93369 7.20826 8.99883 6.99981 8.99883C6.79136 8.99883 6.58812 8.93369 6.4185 8.81252C6.24889 8.69134 6.12138 8.5202 6.05381 8.323L5.92381 7.945C5.77581 7.51125 5.5304 7.11717 5.20642 6.79301C4.88243 6.46885 4.48848 6.22323 4.05481 6.075L3.67681 5.946C3.47961 5.87843 3.30847 5.75092 3.18729 5.58131C3.06612 5.41169 3.00098 5.20845 3.00098 5C3.00098 4.79155 3.06612 4.58831 3.18729 4.41869C3.30847 4.24908 3.47961 4.12157 3.67681 4.054L4.05481 3.924C4.48856 3.776 4.88264 3.53059 5.2068 3.20661C5.53096 2.88262 5.77658 2.48867 5.92481 2.055L6.05381 1.677C6.12119 1.47959 6.24861 1.30818 6.41824 1.18679C6.58787 1.06539 6.79122 1.00008 6.99981 1Z" fill="currentColor"/>
</svg>
