<svg width="24" height="24" viewBox="0 0 24 24" fill="none" xmlns="http://www.w3.org/2000/svg">
<path fill-rule="evenodd" clip-rule="evenodd" d="M1.5 6C1.5 5.60218 1.65804 5.22064 1.93934 4.93934C2.22064 4.65804 2.60218 4.5 3 4.5H3.5C3.7644 4.50009 4.02407 4.57005 4.25272 4.70282C4.48137 4.83558 4.67086 5.02642 4.802 5.256L6.5 8.226V6C6.5 5.60218 6.65804 5.22064 6.93934 4.93934C7.22064 4.65804 7.60218 4.5 8 4.5C8.39782 4.5 8.77936 4.65804 9.06066 4.93934C9.34196 5.22064 9.5 5.60218 9.5 6V13C9.5 13.3978 9.34196 13.7794 9.06066 14.0607C8.77936 14.342 8.39782 14.5 8 14.5H7.5C7.2356 14.4999 6.97593 14.4299 6.74728 14.2972C6.51863 14.1644 6.32914 13.9736 6.198 13.744L4.5 10.774V13C4.5 13.3978 4.34196 13.7794 4.06066 14.0607C3.77936 14.342 3.39782 14.5 3 14.5C2.60218 14.5 2.22064 14.342 1.93934 14.0607C1.65804 13.7794 1.5 13.3978 1.5 13V6ZM15.17 6.658C15.3464 6.74599 15.5036 6.86787 15.6329 7.01667C15.7621 7.16548 15.8607 7.3383 15.9232 7.52524C15.9856 7.71219 16.0105 7.9096 15.9966 8.1062C15.9827 8.30279 15.9301 8.49472 15.842 8.671L11.842 16.671C11.664 17.0269 11.352 17.2976 10.9745 17.4234C10.597 17.5492 10.1849 17.52 9.829 17.342C9.47308 17.164 9.20243 16.852 9.07659 16.4745C8.95076 16.097 8.98004 15.6849 9.158 15.329L13.158 7.329C13.2462 7.15282 13.3682 6.99572 13.5171 6.8667C13.6659 6.73767 13.8388 6.63924 14.0257 6.57702C14.2126 6.51481 14.41 6.49002 14.6065 6.50409C14.803 6.51815 14.9948 6.57079 15.171 6.659L15.17 6.658ZM16.087 10.495C16.1912 10.2037 16.3829 9.95169 16.6358 9.77356C16.8888 9.59544 17.1906 9.49988 17.5 9.5H18.5C18.8094 9.49988 19.1112 9.59544 19.3642 9.77356C19.6171 9.95169 19.8088 10.2037 19.913 10.495L21.865 15.963C21.874 15.984 21.881 16.006 21.889 16.028L22.413 17.496C22.5468 17.8708 22.5263 18.2833 22.3559 18.6429C22.1855 19.0025 21.8792 19.2797 21.5045 19.4135C21.3189 19.4798 21.1222 19.5088 20.9254 19.499C20.7286 19.4892 20.5357 19.4407 20.3576 19.3564C19.998 19.186 19.7208 18.8798 19.587 18.505L19.407 18H16.593L16.413 18.505C16.3467 18.6906 16.2445 18.8612 16.1122 19.0073C15.9799 19.1533 15.8202 19.2719 15.6421 19.3562C15.464 19.4405 15.271 19.489 15.0742 19.4987C14.8774 19.5084 14.6806 19.4793 14.495 19.413C14.3094 19.3467 14.1388 19.2445 13.9927 19.1122C13.8467 18.9799 13.7281 18.8202 13.6438 18.6421C13.5595 18.464 13.511 18.271 13.5013 18.0742C13.4916 17.8774 13.5207 17.6806 13.587 17.495L14.111 16.028C14.119 16.006 14.126 15.984 14.135 15.963L16.087 10.495ZM17.664 15H18.336L18 14.06L17.664 15Z" fill="currentColor"/>
</svg>
