<svg width="24" height="24" viewBox="0 0 24 24" fill="none" xmlns="http://www.w3.org/2000/svg">
<path fill-rule="evenodd" clip-rule="evenodd" d="M8.1849 3.864C8.12959 3.64286 8.1254 3.41202 8.17266 3.18902C8.21992 2.96602 8.31738 2.75672 8.45765 2.57703C8.59791 2.39733 8.77728 2.25197 8.98214 2.15199C9.187 2.052 9.41195 2.00003 9.6399 2H14.3599C14.5879 2.00003 14.8128 2.052 15.0177 2.15199C15.2225 2.25197 15.4019 2.39733 15.5422 2.57703C15.6824 2.75672 15.7799 2.96602 15.8271 3.18902C15.8744 3.41202 15.8702 3.64286 15.8149 3.864L15.0369 6.976L16.2439 11H13.9999C13.7347 11 13.4803 11.1054 13.2928 11.2929C13.1053 11.4804 12.9999 11.7348 12.9999 12C12.9999 12.2652 13.1053 12.5196 13.2928 12.7071C13.4803 12.8946 13.7347 13 13.9999 13H16.8439L17.7639 16.066C17.8786 16.448 17.8765 16.8556 17.7579 17.2364C17.6392 17.6172 17.4094 17.9538 17.0979 18.203L12.6249 21.781C12.4475 21.923 12.2271 22.0004 11.9999 22.0004C11.7727 22.0004 11.5523 21.923 11.3749 21.781L6.9019 18.203C6.59045 17.9538 6.36062 17.6172 6.24195 17.2364C6.12327 16.8556 6.12116 16.448 6.2359 16.066L8.9629 6.976L8.1849 3.864ZM13.7199 4L13.2199 6H10.7819L10.2819 4H13.7199Z" fill="currentColor"/>
</svg>
