<svg width="24" height="24" viewBox="0 0 24 24" fill="none" xmlns="http://www.w3.org/2000/svg">
<path d="M14.671 3C14.1885 3.39073 13.792 3.87709 13.5066 4.42848C13.2212 4.97987 13.0529 5.58437 13.0125 6.20394C12.972 6.82351 13.0602 7.44475 13.2715 8.02858C13.4828 8.61241 13.8126 9.1462 14.2402 9.59637C14.6678 10.0465 15.184 10.4033 15.7562 10.6444C16.3284 10.8854 16.9443 11.0053 17.5651 10.9968C18.1859 10.9882 18.7983 10.8512 19.3636 10.5945C19.9289 10.3378 20.435 9.96682 20.85 9.505L21 9.329V19C21.0002 19.5046 20.8096 19.9906 20.4665 20.3605C20.1234 20.7305 19.6532 20.9572 19.15 20.995L19 21H5C4.49542 21.0002 4.00943 20.8096 3.63945 20.4665C3.26947 20.1234 3.04284 19.6532 3.005 19.15L3 19V5C2.99984 4.49542 3.19041 4.00943 3.5335 3.63945C3.87659 3.26947 4.34684 3.04284 4.85 3.005L5 3H14.671ZM17.5 4C18.163 4 18.7989 4.26339 19.2678 4.73223C19.7366 5.20107 20 5.83696 20 6.5C20 7.16304 19.7366 7.79893 19.2678 8.26777C18.7989 8.73661 18.163 9 17.5 9C16.837 9 16.2011 8.73661 15.7322 8.26777C15.2634 7.79893 15 7.16304 15 6.5C15 5.83696 15.2634 5.20107 15.7322 4.73223C16.2011 4.26339 16.837 4 17.5 4Z" fill="currentColor"/>
</svg>
