<svg width="24" height="24" viewBox="0 0 24 24" fill="none" xmlns="http://www.w3.org/2000/svg">
<path d="M20 3C20.2449 3.00003 20.4813 3.08996 20.6644 3.25272C20.8474 3.41547 20.9643 3.63975 20.993 3.883L21 4V18C21 18.7652 20.7077 19.5015 20.1827 20.0583C19.6578 20.615 18.9399 20.9501 18.176 20.995L18 21H5.5C4.86528 21.0001 4.25429 20.7588 3.79095 20.325C3.32762 19.8912 3.04664 19.2973 3.005 18.664L3 18.5V11C3.00003 10.7551 3.08996 10.5187 3.25272 10.3356C3.41547 10.1526 3.63975 10.0357 3.883 10.007L4 10H6V4C6.00003 3.75507 6.08996 3.51866 6.25272 3.33563C6.41547 3.15259 6.63975 3.03566 6.883 3.007L7 3H20ZM6 12H5V18.5C4.99977 18.6249 5.04633 18.7455 5.13051 18.8378C5.21469 18.9301 5.33039 18.9876 5.45482 18.9989C5.57926 19.0102 5.70341 18.9745 5.80283 18.8988C5.90225 18.8231 5.96974 18.7129 5.992 18.59L6 18.5V12ZM15 14H10C9.73478 14 9.48043 14.1054 9.29289 14.2929C9.10536 14.4804 9 14.7348 9 15C9 15.2652 9.10536 15.5196 9.29289 15.7071C9.48043 15.8946 9.73478 16 10 16H15C15.2652 16 15.5196 15.8946 15.7071 15.7071C15.8946 15.5196 16 15.2652 16 15C16 14.7348 15.8946 14.4804 15.7071 14.2929C15.5196 14.1054 15.2652 14 15 14ZM17 7H10C9.75507 7.00003 9.51866 7.08996 9.33563 7.25272C9.15259 7.41547 9.03566 7.63975 9.007 7.883L9 8V11C9.00003 11.2449 9.08996 11.4813 9.25272 11.6644C9.41547 11.8474 9.63975 11.9643 9.883 11.993L10 12H17C17.2449 12 17.4813 11.91 17.6644 11.7473C17.8474 11.5845 17.9643 11.3603 17.993 11.117L18 11V8C18 7.75507 17.91 7.51866 17.7473 7.33563C17.5845 7.15259 17.3603 7.03566 17.117 7.007L17 7ZM16 9V10H11V9H16Z" fill="currentColor"/>
</svg>
