<svg width="24" height="24" viewBox="0 0 24 24" fill="none" xmlns="http://www.w3.org/2000/svg">
<path d="M6 3H11C11.7956 3 12.5587 3.31607 13.1213 3.87868C13.6839 4.44129 14 5.20435 14 6V14.586L12.207 12.793C12.0184 12.6108 11.7658 12.51 11.5036 12.5123C11.2414 12.5146 10.9906 12.6198 10.8052 12.8052C10.6198 12.9906 10.5146 13.2414 10.5123 13.5036C10.51 13.7658 10.6108 14.0184 10.793 14.207L14.293 17.707C14.4329 17.8468 14.611 17.942 14.805 17.9806C14.9989 18.0192 15.2 17.9993 15.3827 17.9237C15.5654 17.848 15.7215 17.7199 15.8314 17.5555C15.9413 17.391 16 17.1978 16 17V6C16.0016 4.91789 15.6505 3.86473 15 3H18C18.7956 3 19.5587 3.31607 20.1213 3.87868C20.6839 4.44129 21 5.20435 21 6V18C21 18.7956 20.6839 19.5587 20.1213 20.1213C19.5587 20.6839 18.7956 21 18 21H13C12.2044 21 11.4413 20.6839 10.8787 20.1213C10.3161 19.5587 10 18.7956 10 18V9.414L11.793 11.207C11.9816 11.3892 12.2342 11.49 12.4964 11.4877C12.7586 11.4854 13.0094 11.3802 13.1948 11.1948C13.3802 11.0094 13.4854 10.7586 13.4877 10.4964C13.49 10.2342 13.3892 9.9816 13.207 9.793L9.707 6.293C9.56715 6.15319 9.38898 6.05798 9.19503 6.01942C9.00108 5.98085 8.80005 6.00065 8.61735 6.07632C8.43465 6.15199 8.27848 6.28013 8.1686 6.44454C8.05871 6.60895 8.00004 6.80225 8 7V18C8 19.126 8.372 20.164 9 21H6C5.20435 21 4.44129 20.6839 3.87868 20.1213C3.31607 19.5587 3 18.7956 3 18V6C3 5.20435 3.31607 4.44129 3.87868 3.87868C4.44129 3.31607 5.20435 3 6 3Z" fill="currentColor"/>
</svg>
