<svg width="24" height="24" viewBox="0 0 24 24" fill="none" xmlns="http://www.w3.org/2000/svg">
<path fill-rule="evenodd" clip-rule="evenodd" d="M10 3C10.2652 3 10.5196 3.10536 10.7071 3.29289C10.8946 3.48043 11 3.73478 11 4V20C11 20.2652 10.8946 20.5196 10.7071 20.7071C10.5196 20.8946 10.2652 21 10 21H6C4.93913 21 3.92172 20.5786 3.17157 19.8284C2.42143 19.0783 2 18.0609 2 17V7C2 5.93913 2.42143 4.92172 3.17157 4.17157C3.92172 3.42143 4.93913 3 6 3H10ZM18 3C19.0609 3 20.0783 3.42143 20.8284 4.17157C21.5786 4.92172 22 5.93913 22 7V17C22 18.0609 21.5786 19.0783 20.8284 19.8284C20.0783 20.5786 19.0609 21 18 21H14C13.7348 21 13.4804 20.8946 13.2929 20.7071C13.1054 20.5196 13 20.2652 13 20V4C13 3.73478 13.1054 3.48043 13.2929 3.29289C13.4804 3.10536 13.7348 3 14 3H18ZM17.5 14C17.1022 14 16.7206 14.158 16.4393 14.4393C16.158 14.7206 16 15.1022 16 15.5C16 15.8978 16.158 16.2794 16.4393 16.5607C16.7206 16.842 17.1022 17 17.5 17C17.8978 17 18.2794 16.842 18.5607 16.5607C18.842 16.2794 19 15.8978 19 15.5C19 15.1022 18.842 14.7206 18.5607 14.4393C18.2794 14.158 17.8978 14 17.5 14ZM6.5 7C6.10218 7 5.72064 7.15804 5.43934 7.43934C5.15804 7.72064 5 8.10218 5 8.5C5 8.89782 5.15804 9.27936 5.43934 9.56066C5.72064 9.84196 6.10218 10 6.5 10C6.89782 10 7.27936 9.84196 7.56066 9.56066C7.84196 9.27936 8 8.89782 8 8.5C8 8.10218 7.84196 7.72064 7.56066 7.43934C7.27936 7.15804 6.89782 7 6.5 7Z" fill="currentColor"/>
</svg>
