<svg width="24" height="24" viewBox="0 0 24 24" fill="none" xmlns="http://www.w3.org/2000/svg">
<path d="M6 2C5.46957 2 4.96086 2.21071 4.58579 2.58579C4.21071 2.96086 4 3.46957 4 4V20C4 20.5304 4.21071 21.0391 4.58579 21.4142C4.96086 21.7893 5.46957 22 6 22H17C17.7956 22 18.5587 21.6839 19.1213 21.1213C19.6839 20.5587 20 19.7956 20 19V5C20 4.20435 19.6839 3.44129 19.1213 2.87868C18.5587 2.31607 17.7956 2 17 2H16V11.793C16 11.8919 15.9706 11.9886 15.9156 12.0709C15.8606 12.1531 15.7824 12.2172 15.691 12.255C15.5996 12.2928 15.499 12.3026 15.402 12.2832C15.3049 12.2638 15.2159 12.216 15.146 12.146L13.354 10.354C13.3076 10.3074 13.2524 10.2705 13.1916 10.2453C13.1309 10.2201 13.0658 10.2071 13 10.2071C12.9342 10.2071 12.8691 10.2201 12.8084 10.2453C12.7476 10.2705 12.6924 10.3074 12.646 10.354L10.854 12.146C10.7841 12.216 10.6951 12.2638 10.598 12.2832C10.501 12.3026 10.4004 12.2928 10.309 12.255C10.2176 12.2172 10.1394 12.1531 10.0844 12.0709C10.0294 11.9886 10 11.8919 10 11.793V2H6Z" fill="currentColor"/>
</svg>
