<svg width="24" height="24" viewBox="0 0 24 24" fill="none" xmlns="http://www.w3.org/2000/svg">
<path fill-rule="evenodd" clip-rule="evenodd" d="M17.94 2.43398L18.13 2.55098L20.11 3.87098C20.3604 4.0381 20.5699 4.25962 20.7228 4.519C20.8757 4.77838 20.9681 5.06893 20.993 5.36898L21 5.53498V18.074C21 18.551 20.8294 19.0123 20.5192 19.3747C20.2089 19.737 19.7793 19.9765 19.308 20.05L19.153 20.068L7.624 20.955C7.31712 20.9786 7.00894 20.931 6.72344 20.816C6.43795 20.701 6.18285 20.5217 5.978 20.292L5.871 20.161L3.6 17.133C3.25486 16.6727 3.04936 16.1228 3.008 15.549L3 15.333V4.92598C3.00003 4.44895 3.17057 3.98764 3.48084 3.6253C3.7911 3.26296 4.22066 3.02344 4.692 2.94998L4.847 2.93198L16.235 2.05598C16.8279 2.01031 17.421 2.14188 17.939 2.43398H17.94ZM19 7.07998L8 7.92598V18.92L19 18.074V7.07998ZM16 8.49998C16.2652 8.49998 16.5196 8.60534 16.7071 8.79287C16.8946 8.98041 17 9.23477 17 9.49998V16.5C17 16.7652 16.8946 17.0196 16.7071 17.2071C16.5196 17.3946 16.2652 17.5 16 17.5H15.5C15.3292 17.5 15.1611 17.4563 15.012 17.373C14.8628 17.2896 14.7375 17.1695 14.648 17.024L12 12.72V17C12 17.2652 11.8946 17.5196 11.7071 17.7071C11.5196 17.8946 11.2652 18 11 18C10.7348 18 10.4804 17.8946 10.2929 17.7071C10.1054 17.5196 10 17.2652 10 17V9.99998C10 9.73477 10.1054 9.48041 10.2929 9.29287C10.4804 9.10534 10.7348 8.99998 11 8.99998H11.5C11.6708 8.99993 11.8389 9.04366 11.988 9.12699C12.1372 9.21032 12.2625 9.33047 12.352 9.47598L15 13.779V9.49998C15 9.23477 15.1054 8.98041 15.2929 8.79287C15.4804 8.60534 15.7348 8.49998 16 8.49998ZM16.388 4.04998L6.245 4.82998L7.382 5.96698L18.38 5.12198L17.02 4.21498C16.8337 4.09079 16.6112 4.03269 16.388 4.04998Z" fill="currentColor"/>
</svg>
