<svg width="24" height="24" viewBox="0 0 24 24" fill="none" xmlns="http://www.w3.org/2000/svg">
<path d="M11.9997 2C10.1432 2 8.36269 2.7375 7.04994 4.05025C5.73718 5.36301 4.99969 7.14348 4.99969 9V12.528C4.99983 12.6831 4.96388 12.8362 4.89469 12.975L3.17769 16.408C3.09381 16.5757 3.05421 16.7621 3.06263 16.9494C3.07106 17.1368 3.12724 17.3188 3.22583 17.4783C3.32442 17.6379 3.46216 17.7695 3.62595 17.8608C3.78975 17.9521 3.97416 18 4.16169 18H19.8377C20.0252 18 20.2096 17.9521 20.3734 17.8608C20.5372 17.7695 20.6749 17.6379 20.7735 17.4783C20.8721 17.3188 20.9283 17.1368 20.9367 16.9494C20.9452 16.7621 20.9056 16.5757 20.8217 16.408L19.1057 12.975C19.0361 12.8362 18.9999 12.6832 18.9997 12.528V9C18.9997 7.14348 18.2622 5.36301 16.9494 4.05025C15.6367 2.7375 13.8562 2 11.9997 2ZM11.9997 21C11.3791 21.0002 10.7737 20.8079 10.2668 20.4498C9.76001 20.0916 9.3767 19.5851 9.16969 19H14.8297C14.6227 19.5851 14.2394 20.0916 13.7325 20.4498C13.2257 20.8079 12.6203 21.0002 11.9997 21Z" fill="currentColor"/>
</svg>
