<svg width="24" height="24" viewBox="0 0 24 24" fill="none" xmlns="http://www.w3.org/2000/svg">
<path d="M11.9998 2C12.7696 1.99921 13.5343 2.12558 14.2628 2.374C13.5724 3.08786 13.1374 4.01009 13.0258 4.99697C12.9142 5.98384 13.1322 6.97991 13.6459 7.82994C14.1595 8.67996 14.9399 9.33618 15.8655 9.69633C16.7911 10.0565 17.8098 10.1003 18.7628 9.821L18.9998 9.743V12.527C19 12.643 19.0203 12.758 19.0598 12.867L19.1059 12.974L20.8218 16.407C20.9014 16.566 20.9412 16.7419 20.9378 16.9196C20.9345 17.0974 20.8881 17.2717 20.8027 17.4276C20.7173 17.5835 20.5953 17.7164 20.4473 17.8148C20.2993 17.9133 20.1297 17.9744 19.9528 17.993L19.8378 17.999H4.16185C3.98401 17.9991 3.80882 17.956 3.65127 17.8735C3.49372 17.791 3.35853 17.6715 3.25727 17.5254C3.156 17.3792 3.0917 17.2106 3.06985 17.0341C3.04801 16.8576 3.06928 16.6785 3.13185 16.512L3.17785 16.407L4.89485 12.974C4.94646 12.8702 4.97962 12.7582 4.99285 12.643L4.99985 12.528V9C4.99985 7.14349 5.73735 5.36301 7.0501 4.05026C8.36286 2.7375 10.1433 2 11.9998 2ZM17.4998 3C18.1629 3 18.7988 3.2634 19.2676 3.73224C19.7365 4.20108 19.9998 4.83696 19.9998 5.5C19.9998 6.16304 19.7365 6.79893 19.2676 7.26777C18.7988 7.73661 18.1629 8 17.4998 8C16.8368 8 16.2009 7.73661 15.7321 7.26777C15.2632 6.79893 14.9998 6.16304 14.9998 5.5C14.9998 4.83696 15.2632 4.20108 15.7321 3.73224C16.2009 3.2634 16.8368 3 17.4998 3ZM11.9998 21C11.3792 21.0002 10.7738 20.8079 10.267 20.4498C9.76017 20.0916 9.37686 19.5851 9.16985 19H14.8298C14.6228 19.5851 14.2395 20.0916 13.7327 20.4498C13.2259 20.8079 12.6205 21.0002 11.9998 21Z" fill="currentColor"/>
</svg>
