<svg width="24" height="24" viewBox="0 0 24 24" fill="none" xmlns="http://www.w3.org/2000/svg">
<path fill-rule="evenodd" clip-rule="evenodd" d="M4.5 5.49999C4.49869 4.58749 4.85379 3.71055 5.48964 3.05606C6.12549 2.40157 6.99181 2.02129 7.90397 1.99625C8.81613 1.97122 9.702 2.30341 10.3728 2.92203C11.0436 3.54065 11.4463 4.39679 11.495 5.30799L11.5 5.50999C11.5 7.43199 10.701 8.98199 9.97 10.004C9.73628 10.3298 9.48245 10.6408 9.21 10.935L8.95 11.205C8.78678 11.3707 8.61452 11.5273 8.434 11.674C8.13357 11.913 7.75292 12.0278 7.37043 11.9946C6.98794 11.9614 6.63273 11.7828 6.37795 11.4956C6.12316 11.2084 5.98821 10.8345 6.00087 10.4508C6.01353 10.067 6.17284 9.70277 6.446 9.43299L6.668 9.23599L6.792 9.11899L6.949 8.95999L7.037 8.86599C6.30602 8.65645 5.6631 8.21467 5.2054 7.60741C4.7477 7.00015 4.50009 6.26042 4.5 5.49999ZM8 4.99999C7.8674 4.99999 7.74022 5.05267 7.64645 5.14643C7.55268 5.2402 7.5 5.36738 7.5 5.49999C7.5 5.6326 7.55268 5.75977 7.64645 5.85354C7.74022 5.94731 7.8674 5.99999 8 5.99999C8.13261 5.99999 8.25979 5.94731 8.35356 5.85354C8.44733 5.75977 8.5 5.6326 8.5 5.49999C8.5 5.36738 8.44733 5.2402 8.35356 5.14643C8.25979 5.05267 8.13261 4.99999 8 4.99999ZM18.06 3.93999C17.7788 3.65909 17.3975 3.50131 17 3.50131C16.6025 3.50131 16.2213 3.65909 15.94 3.93999L13.11 6.76699C12.9667 6.90536 12.8525 7.07088 12.7739 7.25388C12.6952 7.43689 12.6539 7.63372 12.6521 7.83289C12.6504 8.03205 12.6883 8.22957 12.7638 8.41392C12.8392 8.59826 12.9506 8.76574 13.0914 8.90658C13.2323 9.04742 13.3997 9.1588 13.5841 9.23422C13.7684 9.30964 13.9659 9.34759 14.1651 9.34586C14.3643 9.34413 14.5611 9.30275 14.7441 9.22414C14.9271 9.14553 15.0926 9.03125 15.231 8.88799L15.499 8.61999V20C15.499 20.3978 15.657 20.7793 15.9383 21.0606C16.2196 21.342 16.6012 21.5 16.999 21.5C17.3968 21.5 17.7784 21.342 18.0597 21.0606C18.341 20.7793 18.499 20.3978 18.499 20V8.62099L18.767 8.88899C18.9054 9.03225 19.0709 9.14653 19.2539 9.22514C19.4369 9.30375 19.6337 9.34513 19.8329 9.34686C20.0321 9.34859 20.2296 9.31064 20.4139 9.23522C20.5983 9.1598 20.7658 9.04842 20.9066 8.90758C21.0474 8.76674 21.1588 8.59926 21.2342 8.41492C21.3097 8.23057 21.3476 8.03305 21.3459 7.83389C21.3441 7.63472 21.3028 7.43789 21.2242 7.25488C21.1455 7.07188 21.0313 6.90636 20.888 6.76799L18.06 3.93999ZM4.5 16.5C4.5 15.5717 4.86875 14.6815 5.52513 14.0251C6.18151 13.3687 7.07175 13 8 13C8.92826 13 9.8185 13.3687 10.4749 14.0251C11.1313 14.6815 11.5 15.5717 11.5 16.5V18.5C11.5 19.4282 11.1313 20.3185 10.4749 20.9749C9.8185 21.6312 8.92826 22 8 22C7.07175 22 6.18151 21.6312 5.52513 20.9749C4.86875 20.3185 4.5 19.4282 4.5 18.5V16.5ZM8 16C7.8674 16 7.74022 16.0527 7.64645 16.1464C7.55268 16.2402 7.5 16.3674 7.5 16.5V18.5C7.5 18.6326 7.55268 18.7598 7.64645 18.8535C7.74022 18.9473 7.8674 19 8 19C8.13261 19 8.25979 18.9473 8.35356 18.8535C8.44733 18.7598 8.5 18.6326 8.5 18.5V16.5C8.5 16.3674 8.44733 16.2402 8.35356 16.1464C8.25979 16.0527 8.13261 16 8 16Z" fill="currentColor"/>
</svg>
