<svg width="24" height="24" viewBox="0 0 24 24" fill="none" xmlns="http://www.w3.org/2000/svg">
<path fill-rule="evenodd" clip-rule="evenodd" d="M4.5 5.49999C4.49869 4.58749 4.85379 3.71055 5.48964 3.05606C6.12549 2.40157 6.99181 2.02129 7.90397 1.99625C8.81613 1.97122 9.702 2.30341 10.3728 2.92203C11.0436 3.54065 11.4463 4.39679 11.495 5.30799L11.5 5.50999C11.5 7.43199 10.701 8.98199 9.97 10.004C9.73628 10.3298 9.48245 10.6408 9.21 10.935L8.95 11.205C8.78678 11.3707 8.61452 11.5273 8.434 11.674C8.13357 11.913 7.75292 12.0278 7.37043 11.9946C6.98794 11.9614 6.63273 11.7828 6.37795 11.4956C6.12316 11.2084 5.98821 10.8345 6.00087 10.4508C6.01353 10.067 6.17284 9.70277 6.446 9.43299L6.668 9.23599L6.792 9.11899L6.949 8.95999L7.037 8.86599C6.30602 8.65645 5.6631 8.21467 5.2054 7.60741C4.7477 7.00015 4.50009 6.26042 4.5 5.49999ZM8 4.99999C7.8674 4.99999 7.74022 5.05267 7.64645 5.14643C7.55268 5.2402 7.5 5.36738 7.5 5.49999C7.5 5.6326 7.55268 5.75977 7.64645 5.85354C7.74022 5.94731 7.8674 5.99999 8 5.99999C8.13261 5.99999 8.25979 5.94731 8.35356 5.85354C8.44733 5.75977 8.5 5.6326 8.5 5.49999C8.5 5.36738 8.44733 5.2402 8.35356 5.14643C8.25979 5.05267 8.13261 4.99999 8 4.99999ZM18.5 4.99999C18.5 4.60216 18.342 4.22063 18.0607 3.93933C17.7794 3.65802 17.3978 3.49999 17 3.49999C16.6022 3.49999 16.2206 3.65802 15.9393 3.93933C15.658 4.22063 15.5 4.60216 15.5 4.99999V16.207L15.232 15.939C14.9491 15.6658 14.5702 15.5146 14.1769 15.518C13.7836 15.5214 13.4074 15.6791 13.1293 15.9573C12.8512 16.2354 12.6934 16.6116 12.69 17.0049C12.6866 17.3982 12.8378 17.7771 13.111 18.06L15.939 20.889C16.0783 21.0284 16.2437 21.139 16.4258 21.2144C16.6078 21.2898 16.8029 21.3287 17 21.3287C17.1971 21.3287 17.3922 21.2898 17.5743 21.2144C17.7563 21.139 17.9217 21.0284 18.061 20.889L20.889 18.06C21.1622 17.7771 21.3134 17.3982 21.31 17.0049C21.3066 16.6116 21.1488 16.2354 20.8707 15.9573C20.5926 15.6791 20.2164 15.5214 19.8231 15.518C19.4298 15.5146 19.0509 15.6658 18.768 15.939L18.5 16.207V4.99999ZM4.5 16.5C4.5 15.5717 4.86875 14.6815 5.52513 14.0251C6.18151 13.3687 7.07175 13 8 13C8.92826 13 9.8185 13.3687 10.4749 14.0251C11.1313 14.6815 11.5 15.5717 11.5 16.5V18.5C11.5 19.4282 11.1313 20.3185 10.4749 20.9749C9.8185 21.6312 8.92826 22 8 22C7.07175 22 6.18151 21.6312 5.52513 20.9749C4.86875 20.3185 4.5 19.4282 4.5 18.5V16.5ZM8 16C7.8674 16 7.74022 16.0527 7.64645 16.1464C7.55268 16.2402 7.5 16.3674 7.5 16.5V18.5C7.5 18.6326 7.55268 18.7598 7.64645 18.8535C7.74022 18.9473 7.8674 19 8 19C8.13261 19 8.25979 18.9473 8.35356 18.8535C8.44733 18.7598 8.5 18.6326 8.5 18.5V16.5C8.5 16.3674 8.44733 16.2402 8.35356 16.1464C8.25979 16.0527 8.13261 16 8 16Z" fill="currentColor"/>
</svg>
