<svg width="24" height="24" viewBox="0 0 24 24" fill="none" xmlns="http://www.w3.org/2000/svg">
<path fill-rule="evenodd" clip-rule="evenodd" d="M4.5 5.5C4.5 4.57174 4.86875 3.6815 5.52513 3.02513C6.18151 2.36875 7.07175 2 8 2C8.92826 2 9.8185 2.36875 10.4749 3.02513C11.1313 3.6815 11.5 4.57174 11.5 5.5V7.5C11.5 8.42826 11.1313 9.3185 10.4749 9.97487C9.8185 10.6313 8.92826 11 8 11C7.07175 11 6.18151 10.6313 5.52513 9.97487C4.86875 9.3185 4.5 8.42826 4.5 7.5V5.5ZM8 5C7.8674 5 7.74022 5.05268 7.64645 5.14645C7.55268 5.24021 7.5 5.36739 7.5 5.5V7.5C7.5 7.63261 7.55268 7.75979 7.64645 7.85355C7.74022 7.94732 7.8674 8 8 8C8.13261 8 8.25979 7.94732 8.35356 7.85355C8.44733 7.75979 8.5 7.63261 8.5 7.5V5.5C8.5 5.36739 8.44733 5.24021 8.35356 5.14645C8.25979 5.05268 8.13261 5 8 5ZM18.5 5C18.5 4.60218 18.342 4.22064 18.0607 3.93934C17.7794 3.65804 17.3978 3.5 17 3.5C16.6022 3.5 16.2206 3.65804 15.9393 3.93934C15.658 4.22064 15.5 4.60218 15.5 5V16.207L15.232 15.939C14.9491 15.6658 14.5702 15.5146 14.1769 15.518C13.7836 15.5214 13.4074 15.6792 13.1293 15.9573C12.8512 16.2354 12.6934 16.6116 12.69 17.0049C12.6866 17.3982 12.8378 17.7771 13.111 18.06L15.939 20.889C16.0783 21.0284 16.2437 21.139 16.4258 21.2144C16.6078 21.2898 16.8029 21.3287 17 21.3287C17.1971 21.3287 17.3922 21.2898 17.5743 21.2144C17.7563 21.139 17.9217 21.0284 18.061 20.889L20.889 18.06C21.1622 17.7771 21.3134 17.3982 21.31 17.0049C21.3066 16.6116 21.1488 16.2354 20.8707 15.9573C20.5926 15.6792 20.2164 15.5214 19.8231 15.518C19.4298 15.5146 19.0509 15.6658 18.768 15.939L18.5 16.207V5ZM4.5 15.5C4.49869 14.5875 4.85379 13.7106 5.48964 13.0561C6.12549 12.4016 6.99181 12.0213 7.90397 11.9963C8.81613 11.9712 9.702 12.3034 10.3728 12.922C11.0436 13.5407 11.4463 14.3968 11.495 15.308L11.5 15.51C11.5 17.432 10.701 18.982 9.97 20.003C9.73631 20.3292 9.48249 20.6405 9.21 20.935L8.95 21.205C8.78678 21.3707 8.61452 21.5273 8.434 21.674C8.13357 21.913 7.75292 22.0278 7.37043 21.9946C6.98794 21.9614 6.63273 21.7829 6.37795 21.4957C6.12316 21.2084 5.98821 20.8345 6.00087 20.4508C6.01353 20.067 6.17284 19.7028 6.446 19.433L6.668 19.236L6.792 19.119L6.949 18.96L7.037 18.866C6.30593 18.6566 5.66292 18.2149 5.2052 17.6076C4.74747 17.0003 4.49993 16.2605 4.5 15.5ZM8 15C7.8674 15 7.74022 15.0527 7.64645 15.1464C7.55268 15.2402 7.5 15.3674 7.5 15.5C7.5 15.6326 7.55268 15.7598 7.64645 15.8536C7.74022 15.9473 7.8674 16 8 16C8.13261 16 8.25979 15.9473 8.35356 15.8536C8.44733 15.7598 8.5 15.6326 8.5 15.5C8.5 15.3674 8.44733 15.2402 8.35356 15.1464C8.25979 15.0527 8.13261 15 8 15Z" fill="currentColor"/>
</svg>
