<svg width="24" height="24" viewBox="0 0 24 24" fill="none" xmlns="http://www.w3.org/2000/svg">
<path fill-rule="evenodd" clip-rule="evenodd" d="M3.13882 6.743C5.82676 5.16953 8.8852 4.34018 11.9998 4.34018C15.1144 4.34018 18.1729 5.16953 20.8608 6.743C21.2407 6.96696 21.5341 7.31231 21.6938 7.72339C21.8534 8.13448 21.87 8.58734 21.7408 9.009L19.1708 17.575C19.0473 17.9867 18.7944 18.3475 18.4496 18.6042C18.1049 18.8609 17.6866 18.9997 17.2568 19H6.74382C6.31368 19.0001 5.89497 18.8615 5.54982 18.6048C5.20468 18.3481 4.95148 17.987 4.82782 17.575L2.25782 9.009C2.12874 8.58723 2.14546 8.13429 2.30529 7.72319C2.46512 7.31209 2.75874 6.96681 3.13882 6.743ZM8.99982 12C8.99982 11.7348 9.10518 11.4804 9.29271 11.2929C9.48025 11.1054 9.7346 11 9.99982 11H10.9998V10C10.9998 9.73478 11.1052 9.48043 11.2927 9.29289C11.4802 9.10535 11.7346 9 11.9998 9C12.265 9 12.5194 9.10535 12.7069 9.29289C12.8945 9.48043 12.9998 9.73478 12.9998 10V11H13.9998C14.265 11 14.5194 11.1054 14.7069 11.2929C14.8945 11.4804 14.9998 11.7348 14.9998 12C14.9998 12.2652 14.8945 12.5196 14.7069 12.7071C14.5194 12.8946 14.265 13 13.9998 13H12.9998V14C12.9998 14.2652 12.8945 14.5196 12.7069 14.7071C12.5194 14.8946 12.265 15 11.9998 15C11.7346 15 11.4802 14.8946 11.2927 14.7071C11.1052 14.5196 10.9998 14.2652 10.9998 14V13H9.99982C9.7346 13 9.48025 12.8946 9.29271 12.7071C9.10518 12.5196 8.99982 12.2652 8.99982 12Z" fill="currentColor"/>
</svg>
