<svg width="24" height="24" viewBox="0 0 24 24" fill="none" xmlns="http://www.w3.org/2000/svg">
<path fill-rule="evenodd" clip-rule="evenodd" d="M9.99963 2C10.7001 1.9997 11.3884 2.18336 11.9956 2.53259C12.6028 2.88182 13.1076 3.38439 13.4596 3.99L13.5576 4.172L14.1956 3.804C14.9567 3.3644 15.8413 3.18767 16.7128 3.30114C17.5843 3.4146 18.3942 3.81193 19.0173 4.43173C19.6404 5.05154 20.042 5.8593 20.1601 6.7302C20.2782 7.6011 20.1062 8.48665 19.6706 9.25L19.5576 9.436L20.1956 9.804C20.9566 10.2434 21.5517 10.9211 21.8891 11.7325C22.2264 12.5439 22.2872 13.4438 22.062 14.2932C21.8368 15.1426 21.3381 15.8942 20.6431 16.4318C19.9481 16.9695 19.0953 17.2634 18.2166 17.268L17.9996 17.264V18C17.9999 18.8798 17.7101 19.7351 17.1751 20.4335C16.6402 21.1319 15.8899 21.6345 15.0404 21.8634C14.1909 22.0923 13.2897 22.0348 12.4762 21.6997C11.6628 21.3647 10.9825 20.7708 10.5406 20.01L10.4406 19.828L9.80363 20.196C9.04261 20.6356 8.15798 20.8123 7.28647 20.6989C6.41495 20.5854 5.60507 20.1881 4.98197 19.5683C4.35886 18.9485 3.95723 18.1407 3.83914 17.2698C3.72105 16.3989 3.89308 15.5134 4.32863 14.75L4.44163 14.564L3.80363 14.196C3.04264 13.7566 2.44752 13.0789 2.11019 12.2675C1.77286 11.4561 1.7121 10.5562 1.93731 9.70681C2.16251 8.85743 2.66114 8.10585 3.35616 7.56817C4.05118 7.03049 4.90392 6.73663 5.78263 6.732L5.99963 6.736V6C5.99963 4.93913 6.42106 3.92172 7.17121 3.17157C7.92135 2.42143 8.93877 2 9.99963 2ZM14.7016 12.788L14.6336 16.847C14.6312 16.9976 14.5947 17.1457 14.527 17.2802C14.4593 17.4148 14.3621 17.5323 14.2426 17.624L14.1336 17.696L12.1776 18.826C12.362 19.2296 12.6753 19.5605 13.0682 19.7668C13.4611 19.973 13.9113 20.0429 14.3483 19.9654C14.7852 19.8879 15.184 19.6674 15.482 19.3387C15.78 19.0099 15.9603 18.5914 15.9946 18.149L15.9996 18V13.566L14.7016 12.787V12.788ZM12.6686 14.734L9.11863 16.704C8.96772 16.7878 8.79769 16.8311 8.62508 16.8297C8.45247 16.8283 8.28316 16.7822 8.13363 16.696L6.17763 15.566C5.91189 15.9377 5.78136 16.3891 5.80774 16.8453C5.83411 17.3014 6.0158 17.7348 6.32261 18.0734C6.62941 18.412 7.04285 18.6354 7.4942 18.7064C7.94556 18.7775 8.40764 18.6919 8.80363 18.464L12.6436 16.247L12.6686 14.734ZM15.3556 9.319L14.0326 10.054L17.5146 12.143C17.6625 12.2319 17.7849 12.3575 17.8699 12.5077C17.9549 12.6578 17.9996 12.8274 17.9996 13V15.259C18.4538 15.3019 18.909 15.1884 19.2899 14.9373C19.6707 14.6862 19.9544 14.3125 20.0939 13.8782C20.2335 13.4439 20.2205 12.9749 20.0571 12.549C19.8938 12.123 19.5898 11.7656 19.1956 11.536L15.3556 9.319ZM5.99963 8.74C5.55818 8.69708 5.11498 8.80205 4.73967 9.03841C4.36437 9.27477 4.07822 9.62912 3.92621 10.0458C3.77419 10.4625 3.76492 10.9178 3.89985 11.3403C4.03478 11.7628 4.30626 12.1286 4.67163 12.38L4.80363 12.463L8.64363 14.68L9.96663 13.945L6.48463 11.857C6.3554 11.7794 6.24538 11.6737 6.16278 11.5476C6.08018 11.4216 6.02714 11.2784 6.00763 11.129L5.99963 11V8.74ZM9.99963 4C9.4692 4 8.96049 4.21071 8.58542 4.58579C8.21035 4.96086 7.99963 5.46957 7.99963 6V10.434L9.29763 11.213L9.36563 7.153C9.36842 6.98019 9.41594 6.81105 9.50357 6.66208C9.5912 6.51311 9.71594 6.38939 9.86563 6.303L11.8216 5.174C11.6627 4.82406 11.4063 4.52728 11.0833 4.3191C10.7602 4.11092 10.384 4.00014 9.99963 4ZM17.9276 6.268C17.676 5.83196 17.2691 5.50687 16.7882 5.35765C16.3074 5.20843 15.788 5.24605 15.3336 5.463L15.1956 5.536L11.3556 7.753L11.3306 9.266L14.8806 7.296C15.0122 7.22287 15.1586 7.18039 15.3089 7.17173C15.4592 7.16307 15.6095 7.18846 15.7486 7.246L15.8656 7.304L17.8226 8.434C18.2646 7.814 18.3326 6.969 17.9276 6.268Z" fill="currentColor"/>
</svg>
