<svg width="24" height="24" viewBox="0 0 24 24" fill="none" xmlns="http://www.w3.org/2000/svg">
<path fill-rule="evenodd" clip-rule="evenodd" d="M16 3.76998V20.23C15.9999 20.4478 15.9524 20.663 15.8607 20.8606C15.7691 21.0583 15.6355 21.2335 15.4692 21.3743C15.3029 21.515 15.108 21.6179 14.898 21.6757C14.688 21.7335 14.4679 21.7449 14.253 21.709L5.671 20.279C5.20401 20.2011 4.77979 19.9601 4.47381 19.5988C4.16784 19.2375 3.99994 18.7794 4 18.306V5.69398C3.99994 5.22055 4.16784 4.76244 4.47381 4.40116C4.77979 4.03988 5.20401 3.79886 5.671 3.72098L14.253 2.29098C14.4679 2.2551 14.6881 2.26648 14.8982 2.32434C15.1083 2.38219 15.3033 2.48514 15.4696 2.626C15.6359 2.76686 15.7695 2.94227 15.8611 3.14C15.9527 3.33774 16.0001 3.55206 16 3.76998ZM18 4.99998C18.5046 4.99982 18.9906 5.19039 19.3605 5.53348C19.7305 5.87657 19.9572 6.34683 19.995 6.84998L20 6.99998V17C20.0002 17.5046 19.8096 17.9906 19.4665 18.3605C19.1234 18.7305 18.6532 18.9571 18.15 18.995L18 19H17V4.99998H18ZM11.5 10.5C11.1022 10.5 10.7206 10.658 10.4393 10.9393C10.158 11.2206 10 11.6022 10 12C10 12.3978 10.158 12.7793 10.4393 13.0606C10.7206 13.3419 11.1022 13.5 11.5 13.5C11.8978 13.5 12.2794 13.3419 12.5607 13.0606C12.842 12.7793 13 12.3978 13 12C13 11.6022 12.842 11.2206 12.5607 10.9393C12.2794 10.658 11.8978 10.5 11.5 10.5Z" fill="currentColor"/>
</svg>
