<svg width="24" height="24" viewBox="0 0 24 24" fill="none" xmlns="http://www.w3.org/2000/svg">
<path fill-rule="evenodd" clip-rule="evenodd" d="M3.00034 4C2.83701 4.0001 2.67619 4.04021 2.53194 4.11682C2.38769 4.19343 2.2644 4.3042 2.17285 4.43946C2.0813 4.57472 2.02427 4.73034 2.00675 4.89273C1.98923 5.05512 2.01175 5.21933 2.07234 5.371L4.00034 10.193V18C4.00034 18.5304 4.21106 19.0391 4.58613 19.4142C4.9612 19.7893 5.46991 20 6.00034 20H19.0003C19.5308 20 20.0395 19.7893 20.4146 19.4142C20.7896 19.0391 21.0003 18.5304 21.0003 18V10.099L21.9803 5.196C22.0093 5.05098 22.0058 4.90133 21.97 4.75784C21.9342 4.61435 21.867 4.48059 21.7732 4.3662C21.6795 4.25181 21.5616 4.15963 21.4279 4.0963C21.2943 4.03298 21.1482 4.00009 21.0003 4H17.0003C16.7693 4.00014 16.5453 4.08031 16.3667 4.22689C16.188 4.37346 16.0656 4.57739 16.0203 4.804L15.6803 6.505L14.9293 4.629C14.8551 4.44328 14.727 4.28407 14.5614 4.17195C14.3958 4.05982 14.2003 3.99993 14.0003 4H3.00034ZM12.0003 15C11.7351 15 11.4808 15.1054 11.2932 15.2929C11.1057 15.4804 11.0003 15.7348 11.0003 16C11.0003 16.2652 11.1057 16.5196 11.2932 16.7071C11.4808 16.8946 11.7351 17 12.0003 17H13.0003C13.2656 17 13.5199 16.8946 13.7075 16.7071C13.895 16.5196 14.0003 16.2652 14.0003 16C14.0003 15.7348 13.895 15.4804 13.7075 15.2929C13.5199 15.1054 13.2656 15 13.0003 15H12.0003Z" fill="currentColor"/>
</svg>
