<svg width="24" height="24" viewBox="0 0 24 24" fill="none" xmlns="http://www.w3.org/2000/svg">
<path fill-rule="evenodd" clip-rule="evenodd" d="M10.7501 2.56699C11.1301 2.34757 11.5612 2.23206 12.0001 2.23206C12.4389 2.23206 12.87 2.34757 13.2501 2.56699L19.5441 6.20099C19.9241 6.42041 20.2397 6.73599 20.4591 7.11603C20.6785 7.49606 20.794 7.92716 20.7941 8.36599V15.634C20.794 16.0728 20.6785 16.5039 20.4591 16.884C20.2397 17.264 19.9241 17.5796 19.5441 17.799L13.2501 21.433C12.87 21.6524 12.4389 21.7679 12.0001 21.7679C11.5612 21.7679 11.1301 21.6524 10.7501 21.433L4.45605 17.799C4.07602 17.5796 3.76043 17.264 3.54101 16.884C3.32159 16.5039 3.20607 16.0728 3.20605 15.634V8.36599C3.20607 7.92716 3.32159 7.49606 3.54101 7.11603C3.76043 6.73599 4.07602 6.42041 4.45605 6.20099L10.7501 2.56699ZM8.01905 8.54699L13.8171 5.20399L15.8181 6.35899L10.0201 9.70199L8.01905 8.54699Z" fill="currentColor"/>
</svg>
