<svg width="24" height="24" viewBox="0 0 24 24" fill="none" xmlns="http://www.w3.org/2000/svg">
<path fill-rule="evenodd" clip-rule="evenodd" d="M22.017 3.87403L21.427 5.45503C21.1851 6.0216 20.9411 6.58727 20.695 7.15203C20.017 8.60703 19.083 10.308 17.968 11.482C16.902 12.602 15.294 13.635 14.006 14.368C14.1758 15.1808 14.1404 16.0231 13.903 16.8187C13.6655 17.6144 13.2335 18.3383 12.646 18.925C10.376 21.195 7.83999 21.195 5.95399 20.635C4.52399 20.209 3.34799 19.437 2.22399 18.487C2.17779 18.4482 2.14113 18.3993 2.11683 18.344C2.09253 18.2888 2.08126 18.2287 2.08386 18.1684C2.08647 18.1081 2.1029 18.0492 2.13188 17.9963C2.16085 17.9433 2.20161 17.8977 2.25099 17.863L2.75099 17.501C3.42299 16.994 4.07599 16.375 4.24099 15.546C4.35599 14.621 4.42099 14.116 4.43799 14.033C4.57599 13.344 4.86799 12.562 5.57599 11.853C6.16263 11.2657 6.88638 10.8338 7.68183 10.5963C8.47729 10.3589 9.31938 10.3234 10.132 10.493C10.865 9.20603 11.898 7.59803 13.018 6.53303C14.192 5.41703 15.893 4.48303 17.348 3.80503L19.045 3.07203L20.626 2.48303C20.8198 2.41625 21.0285 2.40525 21.2282 2.4513C21.4279 2.49735 21.6107 2.59859 21.7557 2.74349C21.9007 2.88838 22.0021 3.0711 22.0483 3.27081C22.0945 3.47052 22.0836 3.67919 22.017 3.87303V3.87403ZM11.98 11.293C12.4569 11.6283 12.8721 12.0438 13.207 12.521C13.599 12.294 14.002 12.048 14.397 11.789L14.367 11.722C14.2024 11.3762 13.9791 11.0615 13.707 10.792C13.4668 10.5507 13.1914 10.3474 12.89 10.189L12.711 10.103C12.452 10.498 12.207 10.901 11.98 11.293ZM19.422 5.07803C19.039 5.23703 18.622 5.41803 18.192 5.61803C16.784 6.27503 15.326 7.09803 14.396 7.98203C14.2321 8.13929 14.0752 8.30379 13.926 8.47504C14.288 8.67503 14.708 8.96503 15.121 9.37903C15.535 9.79203 15.825 10.212 16.025 10.574C16.203 10.418 16.369 10.261 16.518 10.104C17.402 9.17404 18.225 7.71603 18.882 6.30703C19.082 5.87703 19.263 5.46103 19.422 5.07803Z" fill="currentColor"/>
</svg>
