<svg width="24" height="24" viewBox="0 0 24 24" fill="none" xmlns="http://www.w3.org/2000/svg">
<path d="M3 5C3 4.20435 3.31607 3.44129 3.87868 2.87868C4.44129 2.31607 5.20435 2 6 2H16C16.7956 2 17.5587 2.31607 18.1213 2.87868C18.6839 3.44129 19 4.20435 19 5H20C20.5304 5 21.0391 5.21071 21.4142 5.58579C21.7893 5.96086 22 6.46957 22 7V8.38C21.9999 9.62 21.5391 10.8157 20.707 11.7351C19.8749 12.6544 18.7309 13.2317 17.497 13.355L12 13.905V14C12.5304 14 13.0391 14.2107 13.4142 14.5858C13.7893 14.9609 14 15.4696 14 16V20C14 20.5304 13.7893 21.0391 13.4142 21.4142C13.0391 21.7893 12.5304 22 12 22H10C9.46957 22 8.96086 21.7893 8.58579 21.4142C8.21071 21.0391 8 20.5304 8 20V16C8 15.4696 8.21071 14.9609 8.58579 14.5858C8.96086 14.2107 9.46957 14 10 14V13.905C10 13.409 10.1843 12.9308 10.5171 12.563C10.8499 12.1953 11.3075 11.9643 11.801 11.915L17.299 11.365C18.0392 11.2909 18.7254 10.9444 19.2245 10.3928C19.7236 9.84121 20 9.12387 20 8.38V7H19C19 7.79565 18.6839 8.55871 18.1213 9.12132C17.5587 9.68393 16.7956 10 16 10H6C5.20435 10 4.44129 9.68393 3.87868 9.12132C3.31607 8.55871 3 7.79565 3 7V5Z" fill="currentColor"/>
</svg>
