<svg width="24" height="24" viewBox="0 0 24 24" fill="none" xmlns="http://www.w3.org/2000/svg">
<path fill-rule="evenodd" clip-rule="evenodd" d="M18.305 8.62C18.2063 8.67644 18.1045 8.72719 18 8.772V11H18.559C18.9245 11.0001 19.2775 11.1337 19.5515 11.3756C19.8255 11.6176 20.0017 11.9513 20.047 12.314L20.883 19H21C21.2652 19 21.5196 19.1054 21.7071 19.2929C21.8946 19.4804 22 19.7348 22 20C22 20.2652 21.8946 20.5196 21.7071 20.7071C21.5196 20.8946 21.2652 21 21 21H15.078C14.7921 21 14.5179 20.8864 14.3157 20.6843C14.1136 20.4821 14 20.2079 14 19.922V19C14 18.4696 13.7893 17.9609 13.4142 17.5858C13.0391 17.2107 12.5304 17 12 17C11.4696 17 10.9609 17.2107 10.5858 17.5858C10.2107 17.9609 10 18.4696 10 19V19.922C10 20.517 9.517 21 8.922 21H3C2.73478 21 2.48043 20.8946 2.29289 20.7071C2.10536 20.5196 2 20.2652 2 20C2 19.7348 2.10536 19.4804 2.29289 19.2929C2.48043 19.1054 2.73478 19 3 19H3.117L3.953 12.314C3.99833 11.9513 4.17454 11.6176 4.44854 11.3756C4.72254 11.1337 5.07546 11.0001 5.441 11H6V8.772C5.89592 8.72739 5.79443 8.67698 5.696 8.621C5.017 8.234 4.351 7.509 4.034 6.258C3.888 5.684 4.289 5.003 5.008 5C5.785 4.997 6.742 4.605 7.05 3.688C7.184 3.288 7.562 3 8.007 3H15.993C16.438 3 16.816 3.288 16.95 3.688C17.258 4.605 18.215 4.997 18.992 5C19.711 5.003 20.112 5.684 19.966 6.258C19.649 7.509 18.983 8.234 18.304 8.621L18.305 8.62ZM8 11H16V9.005C13.975 9.015 11.95 9.01 9.926 9.005L8 9.001V11Z" fill="currentColor"/>
</svg>
