<svg width="24" height="24" viewBox="0 0 24 24" fill="none" xmlns="http://www.w3.org/2000/svg">
<path fill-rule="evenodd" clip-rule="evenodd" d="M12.267 3.45198C12.037 3.26498 11.767 3.12698 11.469 3.05498C11.1803 2.96966 10.876 2.95085 10.579 2.99998H4.99897C4.46854 2.99998 3.95983 3.21069 3.58476 3.58576C3.20969 3.96083 2.99897 4.46954 2.99897 4.99998V15.903C2.98265 16.8145 3.2146 17.7132 3.66997 18.503C4.10598 19.2597 4.73373 19.8881 5.48997 20.325C6.24892 20.7673 7.11154 21.0005 7.98997 21.001C8.9032 21.0042 9.79968 20.7558 10.581 20.283L20.026 14.83C20.4853 14.5648 20.8205 14.1279 20.9578 13.6156C21.095 13.1032 21.0232 12.5573 20.758 12.098L17.968 7.26698C17.8056 6.83477 17.498 6.47243 17.098 6.24198L12.267 3.45198ZM13 13.34V6.18498L16.098 7.97398L13 13.34ZM19.026 13.098L13.66 16.196L17.238 9.99998L19.026 13.098ZM9.49997 16C9.49997 16.3978 9.34194 16.7793 9.06063 17.0606C8.77933 17.3419 8.3978 17.5 7.99997 17.5C7.60215 17.5 7.22062 17.3419 6.93931 17.0606C6.65801 16.7793 6.49997 16.3978 6.49997 16C6.49997 15.6022 6.65801 15.2206 6.93931 14.9393C7.22062 14.658 7.60215 14.5 7.99997 14.5C8.3978 14.5 8.77933 14.658 9.06063 14.9393C9.34194 15.2206 9.49997 15.6022 9.49997 16Z" fill="currentColor"/>
</svg>
