<svg width="24" height="24" viewBox="0 0 24 24" fill="none" xmlns="http://www.w3.org/2000/svg">
<path fill-rule="evenodd" clip-rule="evenodd" d="M18.3503 2C19.1313 2 19.9073 2.47 20.1753 3.305L20.2513 3.551L20.3303 3.831L20.4103 4.147L20.4873 4.493L20.5603 4.869L20.5943 5.067L20.6553 5.484C20.8853 7.274 20.8123 9.714 19.5333 12.189L19.3743 12.486C18.0323 14.901 18.1293 17.332 18.4323 18.911L18.5063 19.26L18.5443 19.422L18.6213 19.722L18.6983 19.984C18.9723 20.874 18.3803 21.906 17.3713 21.994L17.2313 22H5.65026C4.87026 22 4.09326 21.53 3.82526 20.695L3.75026 20.449L3.67026 20.169L3.59026 19.853L3.51326 19.507L3.44026 19.131C3.41626 19.001 3.39426 18.867 3.37426 18.728L3.31926 18.298L3.27726 17.844C3.15026 16.14 3.34226 13.989 4.46726 11.811L4.62626 11.514C5.96826 9.1 5.87026 6.668 5.56826 5.09L5.49526 4.741L5.45626 4.579L5.37926 4.279L5.30226 4.017C5.02826 3.127 5.62026 2.095 6.62926 2.007L6.77026 2H18.3503ZM12.0003 12H9.00026C8.73504 12 8.48069 12.1054 8.29315 12.2929C8.10562 12.4804 8.00026 12.7348 8.00026 13C8.00026 13.2652 8.10562 13.5196 8.29315 13.7071C8.48069 13.8946 8.73504 14 9.00026 14H12.0003C12.2655 14 12.5198 13.8946 12.7074 13.7071C12.8949 13.5196 13.0003 13.2652 13.0003 13C13.0003 12.7348 12.8949 12.4804 12.7074 12.2929C12.5198 12.1054 12.2655 12 12.0003 12ZM16.0003 8H10.0003C9.74538 8.00028 9.50023 8.09788 9.31489 8.27285C9.12956 8.44782 9.01803 8.68695 9.00309 8.94139C8.98815 9.19584 9.07094 9.44638 9.23453 9.64183C9.39812 9.83729 9.63017 9.9629 9.88326 9.993L10.0003 10H16.0003C16.2551 9.99972 16.5003 9.90212 16.6856 9.72715C16.871 9.55218 16.9825 9.31305 16.9974 9.05861C17.0124 8.80416 16.9296 8.55362 16.766 8.35817C16.6024 8.16271 16.3704 8.0371 16.1173 8.007L16.0003 8Z" fill="currentColor"/>
</svg>
