<svg width="24" height="24" viewBox="0 0 24 24" fill="none" xmlns="http://www.w3.org/2000/svg">
<path fill-rule="evenodd" clip-rule="evenodd" d="M18.0002 2.5C18.3854 2.50019 18.7558 2.64858 19.0346 2.91441C19.3133 3.18024 19.4792 3.54314 19.4977 3.92791C19.5162 4.31269 19.386 4.68983 19.134 4.9812C18.882 5.27257 18.5276 5.45583 18.1442 5.493L18.0002 5.5H17.5002V18.5H18.0002C18.3854 18.5002 18.7558 18.6486 19.0346 18.9144C19.3133 19.1802 19.4792 19.5431 19.4977 19.9279C19.5162 20.3127 19.386 20.6898 19.134 20.9812C18.882 21.2726 18.5276 21.4558 18.1442 21.493L18.0002 21.5H10.0002C9.61496 21.4998 9.24458 21.3514 8.96579 21.0856C8.68699 20.8198 8.52116 20.4569 8.50265 20.0721C8.48414 19.6873 8.61436 19.3102 8.86635 19.0188C9.11833 18.7274 9.47275 18.5442 9.85617 18.507L10.0002 18.5H10.5002V14.5H9.50017C7.92732 14.5016 6.41673 13.8855 5.29362 12.7844C4.17051 11.6832 3.52469 10.1851 3.4952 8.61252C3.4657 7.03994 4.05489 5.51866 5.13592 4.37618C6.21695 3.23371 7.70336 2.5614 9.27517 2.504L9.50017 2.5H18.0002ZM14.5002 5.5H13.5002V18.5H14.5002V5.5ZM10.5002 5.5H9.50017C8.71927 5.49925 7.96884 5.80302 7.40835 6.34677C6.84787 6.89052 6.52149 7.63139 6.49857 8.41196C6.47566 9.19253 6.75801 9.95127 7.28563 10.527C7.81326 11.1027 8.54457 11.4499 9.32417 11.495L9.50017 11.5H10.5002V5.5Z" fill="currentColor"/>
</svg>
