<svg width="24" height="24" viewBox="0 0 24 24" fill="none" xmlns="http://www.w3.org/2000/svg">
<path fill-rule="evenodd" clip-rule="evenodd" d="M10.17 19.442C9.23074 19.0776 8.32695 18.6277 7.47 18.098C5.353 16.775 3 14.511 3 11C3 8.61305 3.94821 6.32387 5.63604 4.63604C7.32387 2.94821 9.61305 2 12 2C14.3869 2 16.6761 2.94821 18.364 4.63604C20.0518 6.32387 21 8.61305 21 11C21 14.51 18.647 16.775 16.53 18.098C15.6731 18.6277 14.7693 19.0776 13.83 19.442C13.937 19.602 14 19.794 14 20V21C14 21.2652 13.8946 21.5196 13.7071 21.7071C13.5196 21.8946 13.2652 22 13 22H11C10.7348 22 10.4804 21.8946 10.2929 21.7071C10.1054 21.5196 10 21.2652 10 21V20C10 19.794 10.063 19.602 10.17 19.442ZM18.45 13.357C18.594 13.065 18.56 12.707 18.315 12.493C18.0577 12.2684 17.7471 12.1134 17.4128 12.0429C17.0786 11.9723 16.7319 11.9886 16.4057 12.09C16.0796 12.1915 15.7848 12.3748 15.5496 12.6225C15.3144 12.8702 15.1465 13.174 15.062 13.505C14.994 13.773 14.776 14 14.5 14C14.224 14 14.006 13.773 13.938 13.505C13.8282 13.0743 13.5781 12.6925 13.2271 12.4198C12.8762 12.1472 12.4444 11.9991 12 11.9991C11.5556 11.9991 11.1238 12.1472 10.7729 12.4198C10.4219 12.6925 10.1718 13.0743 10.062 13.505C9.994 13.773 9.776 14 9.5 14C9.224 14 9.006 13.773 8.938 13.505C8.8535 13.174 8.68563 12.8702 8.45041 12.6225C8.21519 12.3748 7.92044 12.1915 7.59427 12.09C7.26811 11.9886 6.92138 11.9723 6.58716 12.0429C6.25293 12.1134 5.94235 12.2684 5.685 12.493C5.44 12.707 5.405 13.065 5.551 13.357C6.189 14.642 7.31 15.639 8.53 16.402C9.52898 17.0184 10.5987 17.512 11.716 17.872C11.9006 17.9319 12.0994 17.9319 12.284 17.872C13.4013 17.512 14.471 17.0184 15.47 16.402C16.69 15.639 17.812 14.642 18.45 13.357Z" fill="currentColor"/>
</svg>
