<svg width="24" height="24" viewBox="0 0 24 24" fill="none" xmlns="http://www.w3.org/2000/svg">
<path d="M4.70687 16.293C4.89434 16.4805 4.99966 16.7348 4.99966 17C4.99966 17.2652 4.89434 17.5195 4.70687 17.707L3.70687 18.707C3.51827 18.8892 3.26566 18.99 3.00347 18.9877C2.74127 18.9854 2.49046 18.8802 2.30505 18.6948C2.11964 18.5094 2.01447 18.2586 2.01219 17.9964C2.00992 17.7342 2.11071 17.4816 2.29287 17.293L3.29287 16.293C3.4804 16.1055 3.7347 16.0002 3.99987 16.0002C4.26503 16.0002 4.51934 16.1055 4.70687 16.293ZM8.77587 7.136C9.60059 7.58865 10.2885 8.25459 10.7677 9.06417C11.2469 9.87375 11.4998 10.7972 11.4999 11.738V12.262C11.5 13.2029 11.2472 14.1266 10.768 14.9364C10.2888 15.7462 9.60074 16.4123 8.77587 16.865C7.28887 17.68 5.33087 16.859 5.14587 15.019L5.08887 14.369C4.968 12.7923 4.968 11.2087 5.08887 9.632L5.14687 8.981C5.32987 7.14 7.28887 6.32 8.77587 7.136ZM2.99987 11C3.25475 11.0003 3.4999 11.0979 3.68524 11.2728C3.87057 11.4478 3.9821 11.687 3.99704 11.9414C4.01198 12.1958 3.92919 12.4464 3.7656 12.6418C3.60201 12.8373 3.36996 12.9629 3.11687 12.993L2.99987 13H1.99987C1.74499 12.9997 1.49984 12.9021 1.3145 12.7272C1.12916 12.5522 1.01763 12.313 1.0027 12.0586C0.987759 11.8042 1.07054 11.5536 1.23413 11.3582C1.39772 11.1627 1.62977 11.0371 1.88287 11.007L1.99987 11H2.99987ZM3.70687 5.293L4.70687 6.293C4.88903 6.4816 4.98982 6.7342 4.98754 6.9964C4.98526 7.2586 4.8801 7.50941 4.69469 7.69482C4.50928 7.88023 4.25847 7.9854 3.99627 7.98767C3.73407 7.98995 3.48147 7.88916 3.29287 7.707L2.29287 6.707C2.11071 6.5184 2.00992 6.2658 2.01219 6.0036C2.01447 5.7414 2.11964 5.49059 2.30505 5.30518C2.49046 5.11977 2.74127 5.0146 3.00347 5.01233C3.26566 5.01005 3.51827 5.11084 3.70687 5.293ZM21.7069 5.293C21.5193 5.10553 21.265 5.00021 20.9999 5.00021C20.7347 5.00021 20.4804 5.10553 20.2929 5.293L19.2929 6.293C19.1107 6.4816 19.0099 6.7342 19.0122 6.9964C19.0145 7.2586 19.1196 7.50941 19.305 7.69482C19.4905 7.88023 19.7413 7.9854 20.0035 7.98767C20.2657 7.98995 20.5183 7.88916 20.7069 7.707L21.7069 6.707C21.8943 6.51947 21.9997 6.26516 21.9997 6C21.9997 5.73484 21.8943 5.48053 21.7069 5.293ZM19.2929 16.293C19.1054 16.4805 19.0001 16.7348 19.0001 17C19.0001 17.2652 19.1054 17.5195 19.2929 17.707L20.2929 18.707C20.4815 18.8892 20.7341 18.99 20.9963 18.9877C21.2585 18.9854 21.5093 18.8802 21.6947 18.6948C21.8801 18.5094 21.9853 18.2586 21.9875 17.9964C21.9898 17.7342 21.889 17.4816 21.7069 17.293L20.7069 16.293C20.5193 16.1055 20.265 16.0002 19.9999 16.0002C19.7347 16.0002 19.4804 16.1055 19.2929 16.293ZM21.9999 11C22.2651 11 22.5194 11.1054 22.707 11.2929C22.8945 11.4804 22.9999 11.7348 22.9999 12C22.9999 12.2652 22.8945 12.5196 22.707 12.7071C22.5194 12.8946 22.2651 13 21.9999 13H20.9999C20.7347 13 20.4803 12.8946 20.2928 12.7071C20.1052 12.5196 19.9999 12.2652 19.9999 12C19.9999 11.7348 20.1052 11.4804 20.2928 11.2929C20.4803 11.1054 20.7347 11 20.9999 11H21.9999ZM18.8529 8.98C18.6689 7.141 16.7099 6.32 15.2239 7.136C14.3991 7.58865 13.7112 8.25459 13.232 9.06417C12.7528 9.87375 12.4999 10.7972 12.4999 11.738V12.262C12.4998 13.2029 12.7525 14.1266 13.2317 14.9364C13.711 15.7462 14.399 16.4123 15.2239 16.865C16.7099 17.68 18.6689 16.859 18.8539 15.019L18.9109 14.369C19.0317 12.7923 19.0317 11.2087 18.9109 9.632L18.8529 8.981V8.98Z" fill="currentColor"/>
</svg>
