<svg width="24" height="24" viewBox="0 0 24 24" fill="none" xmlns="http://www.w3.org/2000/svg">
<path fill-rule="evenodd" clip-rule="evenodd" d="M13.4068 4.01501C14.4461 4.19581 15.4399 4.5787 16.3318 5.14201C16.5842 4.80076 16.9186 4.52864 17.304 4.35076C17.6894 4.17289 18.1134 4.09501 18.5369 4.12431C18.9604 4.15361 19.3696 4.28915 19.7268 4.51841C20.0841 4.74766 20.3778 5.06325 20.5808 5.43601C21.0625 5.64826 21.4605 6.01369 21.713 6.47549C21.9655 6.9373 22.0584 7.46959 21.9772 7.98963C21.896 8.50967 21.6453 8.98832 21.264 9.35115C20.8827 9.71399 20.3922 9.94069 19.8688 9.99601C20.1498 11.0944 20.1974 12.2395 20.0087 13.3575C19.82 14.4754 19.399 15.5414 18.773 16.4867C18.147 17.432 17.3299 18.2357 16.3743 18.8458C15.4186 19.4559 14.3458 19.859 13.2248 20.029C13.5921 19.4887 13.8373 18.8748 13.9434 18.2301C14.0495 17.5854 14.0139 16.9254 13.8391 16.2959C13.6642 15.6663 13.3544 15.0824 12.9311 14.5847C12.5078 14.0871 11.9811 13.6876 11.3878 13.414C11.0916 12.8913 10.6994 12.4292 10.2318 12.052C11.0104 11.5895 11.6553 10.9323 12.1031 10.1451C12.5509 9.35785 12.7862 8.46767 12.7858 7.56201C12.7871 6.82067 12.63 6.08762 12.3248 5.41201C12.25 5.24645 12.2217 5.06366 12.243 4.88324C12.2643 4.70283 12.3343 4.53162 12.4455 4.388C12.5568 4.24438 12.705 4.13377 12.8744 4.06806C13.0437 4.00234 13.2278 3.984 13.4068 4.01501ZM7.2508 13C8.5208 13 9.5908 13.862 9.9068 15.033C10.5128 15.1321 11.0612 15.4508 11.4473 15.9283C11.8334 16.4058 12.0302 17.0087 12.0003 17.622C11.9704 18.2353 11.7158 18.8162 11.2851 19.2539C10.8543 19.6915 10.2776 19.9553 9.6648 19.995L9.5008 20H5.0008C4.51237 20.0002 4.04074 19.8217 3.6749 19.498C3.30905 19.1744 3.07428 18.7281 3.01486 18.2433C2.95544 17.7585 3.07549 17.2687 3.35236 16.8663C3.62923 16.4639 4.04378 16.1768 4.5178 16.059C4.47429 15.6742 4.51254 15.2846 4.63004 14.9156C4.74754 14.5466 4.94164 14.2066 5.19964 13.9178C5.45764 13.629 5.77373 13.398 6.1272 13.2398C6.48067 13.0817 6.86356 12.9999 7.2508 13ZM18.3618 6.12001C18.2627 6.11997 18.1657 6.1478 18.0817 6.20032C17.9977 6.25284 17.9301 6.32793 17.8868 6.41701C18.3438 6.89761 18.7404 7.43223 19.0678 8.00901H19.6118C19.7097 8.00948 19.8042 7.97299 19.8764 7.90683C19.9487 7.84067 19.9933 7.74971 20.0013 7.65211C20.0094 7.55451 19.9804 7.45745 19.92 7.38032C19.8597 7.30319 19.7725 7.25165 19.6758 7.23601C19.5079 7.20847 19.3498 7.13855 19.2164 7.03286C19.0831 6.92716 18.9789 6.7892 18.9138 6.63201L18.8718 6.51001C18.8415 6.39799 18.7751 6.29908 18.6829 6.22859C18.5907 6.15809 18.4779 6.11993 18.3618 6.12001Z" fill="currentColor"/>
</svg>
