<svg width="24" height="24" viewBox="0 0 24 24" fill="none" xmlns="http://www.w3.org/2000/svg">
<path fill-rule="evenodd" clip-rule="evenodd" d="M7.2508 13C8.5208 13 9.5908 13.862 9.9068 15.033C10.5128 15.1321 11.0612 15.4508 11.4473 15.9283C11.8334 16.4058 12.0302 17.0087 12.0003 17.622C11.9704 18.2353 11.7158 18.8162 11.2851 19.2539C10.8543 19.6915 10.2776 19.9553 9.6648 19.995L9.5008 20H5.0008C4.51237 20.0002 4.04074 19.8216 3.6749 19.498C3.30905 19.1744 3.07428 18.7281 3.01486 18.2433C2.95544 17.7585 3.07549 17.2687 3.35236 16.8663C3.62923 16.4639 4.04378 16.1768 4.5178 16.059C4.47429 15.6742 4.51254 15.2846 4.63004 14.9156C4.74754 14.5466 4.94164 14.2066 5.19964 13.9178C5.45764 13.629 5.77373 13.398 6.1272 13.2398C6.48067 13.0817 6.86356 12.9999 7.2508 13ZM12.0008 4C13.5698 4 15.0328 4.452 16.2678 5.232C16.5103 4.87224 16.8414 4.58101 17.2292 4.38637C17.6169 4.19174 18.0483 4.10026 18.4817 4.12076C18.9151 4.14126 19.3359 4.27304 19.7035 4.50341C20.0712 4.73377 20.3733 5.05495 20.5808 5.436C21.0715 5.6525 21.4749 6.02786 21.7263 6.50161C21.9776 6.97536 22.0622 7.51992 21.9663 8.04758C21.8705 8.57524 21.5998 9.05527 21.1979 9.41035C20.796 9.76544 20.2863 9.9749 19.7508 10.005C20.0273 11.0795 20.0774 12.1998 19.8978 13.2947C19.7182 14.3896 19.3128 15.4352 18.7075 16.365C18.1022 17.2949 17.3101 18.0887 16.3815 18.6961C15.453 19.3034 14.4083 19.711 13.3138 19.893C13.6543 19.3513 13.8753 18.7433 13.9621 18.1094C14.0489 17.4755 13.9995 16.8304 13.8172 16.2171C13.6349 15.6039 13.324 15.0365 12.905 14.553C12.4861 14.0694 11.9688 13.6808 11.3878 13.413C10.974 12.68 10.3727 12.0702 9.64557 11.6461C8.91841 11.2221 8.09156 10.9991 7.2498 11C6.0445 10.9983 4.88395 11.4565 4.0048 12.281L4.0008 12C4.0008 9.87827 4.84366 7.84344 6.34395 6.34315C7.84424 4.84285 9.87907 4 12.0008 4ZM18.3618 6.12C18.2409 6.12009 18.1238 6.16165 18.0299 6.23773C17.936 6.3138 17.871 6.41979 17.8458 6.538C18.1788 6.894 18.4798 7.281 18.7448 7.694L18.9348 8.009H19.6118C19.7097 8.00947 19.8042 7.97298 19.8764 7.90682C19.9487 7.84066 19.9933 7.7497 20.0013 7.6521C20.0094 7.5545 19.9804 7.45745 19.92 7.38031C19.8597 7.30318 19.7725 7.25164 19.6758 7.236C19.5079 7.20847 19.3498 7.13854 19.2164 7.03285C19.0831 6.92716 18.9789 6.78919 18.9138 6.632L18.8718 6.509C18.8413 6.39717 18.7748 6.29848 18.6826 6.22818C18.5905 6.15788 18.4777 6.11986 18.3618 6.12Z" fill="currentColor"/>
</svg>
