<svg width="24" height="24" viewBox="0 0 24 24" fill="none" xmlns="http://www.w3.org/2000/svg">
<path d="M12.117 2L12.234 2.003C11.495 3.237 11 4.536 11 6C11 7.85652 11.7375 9.63699 13.0503 10.9497C14.363 12.2625 16.1435 13 18 13C19.461 13 20.764 12.504 21.997 11.766L22 12C22 17.523 17.523 22 12 22C6.477 22 2 17.523 2 12C2 6.57 6.327 2.152 11.72 2.004L12.117 2ZM14.115 2.755L21.245 9.885C20.225 10.495 19.228 11 18 11C16.6739 11 15.4021 10.4732 14.4645 9.53553C13.5268 8.59785 13 7.32608 13 6C13 4.866 13.43 3.93 13.976 2.99L14.115 2.755Z" fill="currentColor"/>
</svg>
