<svg width="24" height="24" viewBox="0 0 24 24" fill="none" xmlns="http://www.w3.org/2000/svg">
<path d="M12 2C17.523 2 22 6.477 22 12C22 17.523 17.523 22 12 22C6.477 22 2 17.523 2 12C2 6.477 6.477 2 12 2ZM10 8C9.75507 8.00003 9.51866 8.08996 9.33563 8.25272C9.15259 8.41547 9.03566 8.63975 9.007 8.883L9 9V15C9.00028 15.2549 9.09788 15.5 9.27285 15.6854C9.44782 15.8707 9.68695 15.9822 9.94139 15.9972C10.1958 16.0121 10.4464 15.9293 10.6418 15.7657C10.8373 15.6021 10.9629 15.3701 10.993 15.117L11 15V9C11 8.73478 10.8946 8.48043 10.7071 8.29289C10.5196 8.10536 10.2652 8 10 8ZM14 8C13.7348 8 13.4804 8.10536 13.2929 8.29289C13.1054 8.48043 13 8.73478 13 9V15C13 15.2652 13.1054 15.5196 13.2929 15.7071C13.4804 15.8946 13.7348 16 14 16C14.2652 16 14.5196 15.8946 14.7071 15.7071C14.8946 15.5196 15 15.2652 15 15V9C15 8.73478 14.8946 8.48043 14.7071 8.29289C14.5196 8.10536 14.2652 8 14 8Z" fill="currentColor"/>
</svg>
