<svg width="24" height="24" viewBox="0 0 24 24" fill="none" xmlns="http://www.w3.org/2000/svg">
<path fill-rule="evenodd" clip-rule="evenodd" d="M12.903 2.57002C12.819 2.40245 12.6901 2.26155 12.5306 2.16308C12.3711 2.0646 12.1874 2.01245 12 2.01245C11.8126 2.01245 11.6288 2.0646 11.4693 2.16308C11.3099 2.26155 11.1809 2.40245 11.097 2.57002C10.152 4.45402 9.13298 5.66602 7.88798 6.47702C6.63498 7.29302 5.06098 7.76402 2.89998 8.00502C2.76331 8.02024 2.63117 8.0632 2.51169 8.13128C2.3922 8.19936 2.28788 8.29113 2.20511 8.40096C2.12235 8.51078 2.06288 8.63635 2.03036 8.76997C1.99784 8.90359 1.99294 9.04245 2.01598 9.17802C2.34598 11.128 3.67998 12.1 4.81998 12.555L4.99998 12.624V20H3.99998C3.73477 20 3.48041 20.1054 3.29288 20.2929C3.10534 20.4805 2.99998 20.7348 2.99998 21C2.99998 21.2652 3.10534 21.5196 3.29288 21.7071C3.48041 21.8947 3.73477 22 3.99998 22H20C20.2652 22 20.5196 21.8947 20.7071 21.7071C20.8946 21.5196 21 21.2652 21 21C21 20.7348 20.8946 20.4805 20.7071 20.2929C20.5196 20.1054 20.2652 20 20 20H19V12.624C19.06 12.602 19.12 12.579 19.18 12.554C20.32 12.1 21.654 11.127 21.984 9.17802C22.007 9.04245 22.0021 8.90359 21.9696 8.76997C21.9371 8.63635 21.8776 8.51078 21.7949 8.40096C21.7121 8.29113 21.6078 8.19936 21.4883 8.13128C21.3688 8.0632 21.2367 8.02024 21.1 8.00502C18.939 7.76402 17.365 7.29302 16.111 6.47702C14.867 5.66602 13.847 4.45402 12.903 2.57002ZM17 13H16V20H17V13ZM14 13H9.99998V20H14V13ZM7.99998 13H6.99998V20H7.99998V13Z" fill="currentColor"/>
</svg>
