<svg width="24" height="24" viewBox="0 0 24 24" fill="none" xmlns="http://www.w3.org/2000/svg">
<path fill-rule="evenodd" clip-rule="evenodd" d="M12.0002 3C12.2654 3 12.5198 3.10536 12.7073 3.29289C12.8949 3.48043 13.0002 3.73478 13.0002 4V4.19C14.2572 4.694 15.0002 6.12 15.0002 7.5C15.0002 9.213 13.8542 11 12.0002 11C10.1462 11 9.00021 9.213 9.00021 7.5C9.00021 6.12 9.74321 4.694 11.0002 4.19V4C11.0002 3.73478 11.1056 3.48043 11.2931 3.29289C11.4806 3.10536 11.735 3 12.0002 3ZM18.6002 6.543C18.2175 6.56224 17.844 6.66715 17.5072 6.85C16.8992 7.175 16.3922 7.728 16.0762 8.406C15.7602 9.083 15.6622 9.827 15.8042 10.501C15.9462 11.176 16.3492 11.843 17.0742 12.181C17.7982 12.519 18.5692 12.399 19.1772 12.074C19.7842 11.749 20.2912 11.196 20.6072 10.519C20.9232 9.841 21.0212 9.097 20.8792 8.423C20.8029 8.04741 20.6433 7.69373 20.4122 7.388C20.5163 7.14891 20.5229 6.87861 20.4306 6.63472C20.3383 6.39084 20.1544 6.19266 19.918 6.08245C19.6817 5.97223 19.4116 5.9587 19.1655 6.04473C18.9193 6.13077 18.7164 6.30956 18.6002 6.543ZM3.58821 7.392C3.35021 7.702 3.19821 8.062 3.12121 8.427C2.97921 9.101 3.07721 9.845 3.39321 10.522C3.70921 11.2 4.21621 11.752 4.82321 12.078C5.43121 12.403 6.20221 12.523 6.92621 12.185C7.65121 11.847 8.05421 11.179 8.19621 10.505C8.33821 9.831 8.24021 9.087 7.92421 8.409C7.60821 7.732 7.10121 7.179 6.49421 6.854C6.15713 6.67104 5.78327 6.56612 5.40021 6.547C5.28816 6.30658 5.08519 6.12052 4.83595 6.02976C4.58671 5.93899 4.31163 5.95095 4.07121 6.063C3.83079 6.17505 3.64473 6.37802 3.55397 6.62726C3.4632 6.8765 3.47516 7.15158 3.58721 7.392H3.58821ZM7.15121 13.619C8.54932 12.568 10.2511 11.9998 12.0002 12C13.8902 12 15.6002 12.666 16.8492 13.619C18.0622 14.544 19.0002 15.874 19.0002 17.278C19.0002 18.685 17.8162 19.613 16.6512 20.135C15.4062 20.692 13.7602 21 12.0002 21C10.2402 21 8.59421 20.692 7.34921 20.135C6.18421 19.613 5.00021 18.685 5.00021 17.278C5.00021 15.874 5.93821 14.544 7.15121 13.618V13.619Z" fill="currentColor"/>
</svg>
