<svg width="24" height="24" viewBox="0 0 24 24" fill="none" xmlns="http://www.w3.org/2000/svg">
<path fill-rule="evenodd" clip-rule="evenodd" d="M16.242 3.51498C16.7925 2.9646 17.5353 2.64975 18.3137 2.63694C19.092 2.62413 19.8448 2.91437 20.4132 3.44633C20.9815 3.9783 21.3208 4.71034 21.3593 5.48783C21.3979 6.26531 21.1328 7.02735 20.62 7.61298L20.485 7.75698L19.778 8.46398L20.485 9.17098C20.8392 9.52494 21.0477 9.9989 21.0694 10.4992C21.0911 10.9995 20.9243 11.4897 20.602 11.873L20.485 12L16.242 16.243C16.062 16.4223 15.8205 16.5264 15.5666 16.5342C15.3126 16.542 15.0652 16.4528 14.8747 16.2847C14.6841 16.1167 14.5647 15.8824 14.5406 15.6295C14.5165 15.3766 14.5895 15.124 14.745 14.923L14.828 14.828L19.071 10.586L18.364 9.87898L8.48596 19.757C8.36332 19.8791 8.2136 19.9706 8.04896 20.024L7.92296 20.057L4.43296 20.756C4.27958 20.7869 4.12112 20.7817 3.97009 20.7408C3.81905 20.7 3.67956 20.6247 3.56263 20.5207C3.44569 20.4168 3.3545 20.2871 3.29625 20.1419C3.238 19.9967 3.21427 19.8399 3.22696 19.684L3.24396 19.567L3.94196 16.076C3.97603 15.9062 4.04969 15.7469 4.15696 15.611L4.24296 15.514L16.242 3.51498ZM17.657 4.92898L16.949 5.63598L18.364 7.04998L19.071 6.34298C19.2585 6.15534 19.3638 5.90089 19.3637 5.63562C19.3636 5.37035 19.2581 5.11598 19.0705 4.92848C18.8828 4.74097 18.6284 4.63568 18.3631 4.63577C18.0978 4.63587 17.8445 4.74134 17.657 4.92898Z" fill="currentColor"/>
</svg>
