<svg width="24" height="24" viewBox="0 0 24 24" fill="none" xmlns="http://www.w3.org/2000/svg">
<path fill-rule="evenodd" clip-rule="evenodd" d="M20.131 3.15998C19.5684 2.59756 18.8055 2.28162 18.01 2.28162C17.2145 2.28162 16.4516 2.59756 15.889 3.15998L15.182 3.86798L20.132 8.81798L20.838 8.11098C21.1167 7.83239 21.3377 7.50165 21.4885 7.13764C21.6393 6.77363 21.7169 6.38348 21.7169 5.98948C21.7169 5.59547 21.6393 5.20532 21.4885 4.84131C21.3377 4.4773 21.1167 4.14656 20.838 3.86798L20.131 3.15998ZM18.717 10.232L13.767 5.28198L4.67703 14.373C4.47811 14.5719 4.33915 14.8228 4.27603 15.097L3.24703 19.552C3.20868 19.7174 3.21308 19.8898 3.2598 20.053C3.30653 20.2162 3.39404 20.3649 3.51408 20.4849C3.63413 20.605 3.78277 20.6925 3.94599 20.7392C4.10921 20.7859 4.28164 20.7903 4.44703 20.752L8.90303 19.724C9.17683 19.6607 9.42735 19.5217 9.62603 19.323L18.717 10.232Z" fill="currentColor"/>
</svg>
