<svg width="24" height="24" viewBox="0 0 24 24" fill="none" xmlns="http://www.w3.org/2000/svg">
<path d="M18.9998 19C19.2547 19.0003 19.4998 19.0979 19.6852 19.2728C19.8705 19.4478 19.982 19.687 19.997 19.9414C20.0119 20.1958 19.9291 20.4464 19.7655 20.6418C19.6019 20.8373 19.3699 20.9629 19.1168 20.993L18.9998 21H11.9998C11.7449 20.9997 11.4998 20.9021 11.3144 20.7271C11.1291 20.5522 11.0176 20.313 11.0026 20.0586C10.9877 19.8042 11.0705 19.5536 11.2341 19.3582C11.3976 19.1627 11.6297 19.0371 11.8828 19.007L11.9998 19H18.9998ZM16.0958 4.368C16.5538 3.9103 17.1714 3.64813 17.8188 3.63668C18.4662 3.62523 19.0928 3.86539 19.5666 4.30661C20.0405 4.74783 20.3247 5.35568 20.3594 6.00223C20.3942 6.64877 20.1767 7.28357 19.7528 7.773L19.6308 7.903L8.73479 18.8C8.63957 18.8953 8.53194 18.9774 8.41479 19.044L8.2948 19.104L4.4908 20.834C3.6828 21.201 2.85279 20.417 3.12579 19.609L3.16579 19.509L4.89579 15.704C4.95125 15.5816 5.02289 15.4673 5.1088 15.364L5.19879 15.264L16.0958 4.368Z" fill="currentColor"/>
</svg>
