<svg width="24" height="24" viewBox="0 0 24 24" fill="none" xmlns="http://www.w3.org/2000/svg">
<path d="M18.9998 19C19.2547 19.0003 19.4998 19.0979 19.6852 19.2728C19.8705 19.4478 19.982 19.687 19.997 19.9414C20.0119 20.1958 19.9291 20.4464 19.7655 20.6418C19.602 20.8373 19.3699 20.9629 19.1168 20.993L18.9998 21H11.9998C11.7449 20.9997 11.4998 20.9021 11.3144 20.7272C11.1291 20.5522 11.0176 20.313 11.0026 20.0586C10.9877 19.8042 11.0705 19.5536 11.2341 19.3582C11.3977 19.1627 11.6297 19.0371 11.8828 19.007L11.9998 19H18.9998ZM19.6308 4.368C19.863 4.60016 20.0472 4.87578 20.1729 5.17914C20.2986 5.4825 20.3633 5.80764 20.3633 6.136C20.3633 6.46436 20.2986 6.7895 20.1729 7.09286C20.0472 7.39622 19.863 7.67184 19.6308 7.904L8.73481 18.8C8.60781 18.927 8.45881 19.03 8.29481 19.105L4.49081 20.834C3.64881 21.217 2.78281 20.35 3.16581 19.508L4.89581 15.704C4.96997 15.5403 5.07294 15.3913 5.19981 15.264L16.0958 4.368C16.5646 3.89932 17.2004 3.63603 17.8633 3.63603C18.5262 3.63603 19.162 3.89932 19.6308 4.368ZM5.99981 1C6.2084 1.00008 6.41175 1.06539 6.58138 1.18679C6.75101 1.30818 6.87843 1.47959 6.94581 1.677L7.07581 2.055C7.22381 2.48875 7.46922 2.88283 7.7932 3.20699C8.11719 3.53115 8.51114 3.77677 8.94481 3.925L9.32281 4.054C9.52001 4.12157 9.69115 4.24908 9.81233 4.41869C9.9335 4.58831 9.99864 4.79155 9.99864 5C9.99864 5.20845 9.9335 5.41169 9.81233 5.58131C9.69115 5.75092 9.52001 5.87843 9.32281 5.946L8.94481 6.076C8.51106 6.224 8.11698 6.46941 7.79282 6.79339C7.46866 7.11738 7.22304 7.51133 7.07481 7.945L6.94581 8.323C6.87824 8.5202 6.75073 8.69134 6.58112 8.81252C6.4115 8.93369 6.20826 8.99883 5.99981 8.99883C5.79136 8.99883 5.58812 8.93369 5.4185 8.81252C5.24889 8.69134 5.12138 8.5202 5.05381 8.323L4.92381 7.945C4.77581 7.51125 4.5304 7.11717 4.20642 6.79301C3.88243 6.46885 3.48848 6.22323 3.05481 6.075L2.67681 5.946C2.47961 5.87843 2.30847 5.75092 2.18729 5.58131C2.06612 5.41169 2.00098 5.20845 2.00098 5C2.00098 4.79155 2.06612 4.58831 2.18729 4.41869C2.30847 4.24908 2.47961 4.12157 2.67681 4.054L3.05481 3.924C3.48856 3.776 3.88264 3.53059 4.2068 3.20661C4.53096 2.88262 4.77658 2.48867 4.92481 2.055L5.05381 1.677C5.12119 1.47959 5.24861 1.30818 5.41824 1.18679C5.58787 1.06539 5.79122 1.00008 5.99981 1Z" fill="currentColor"/>
</svg>
