<svg width="24" height="24" viewBox="0 0 24 24" fill="none" xmlns="http://www.w3.org/2000/svg">
<path fill-rule="evenodd" clip-rule="evenodd" d="M15.328 3.72202C15.8665 3.18342 16.5897 2.86978 17.3509 2.84471C18.1121 2.81964 18.8543 3.08501 19.427 3.58702L19.571 3.72202L20.278 4.42902C20.8163 4.96744 21.1298 5.6904 21.1549 6.45136C21.1799 7.21231 20.9147 7.95434 20.413 8.52702L20.278 8.67102L17.303 11.646L20.485 14.828C20.8393 15.182 21.0478 15.6559 21.0695 16.1562C21.0911 16.6565 20.9243 17.1468 20.602 17.53L20.485 17.657L17.657 20.485C17.3031 20.839 16.8294 21.0473 16.3293 21.069C15.8292 21.0907 15.3392 20.924 14.956 20.602L14.828 20.485L11.646 17.303L9.28303 19.667C9.08998 19.8599 8.84795 19.9965 8.58303 20.062L8.42303 20.092L4.50303 20.622C4.35994 20.6414 4.21436 20.6295 4.07628 20.5873C3.93819 20.5451 3.81087 20.4736 3.70305 20.3775C3.59523 20.2815 3.50946 20.1632 3.45163 20.0309C3.39381 19.8986 3.36529 19.7554 3.36803 19.611L3.37803 19.496L3.90803 15.577C3.94436 15.3069 4.0536 15.0517 4.22403 14.839L4.33303 14.717L6.69703 12.354L3.51503 9.17202C3.1608 8.81806 2.95225 8.34409 2.93058 7.84379C2.90892 7.3435 3.07573 6.85328 3.39803 6.47002L3.51503 6.34302L6.34303 3.51502C6.69694 3.16107 7.17071 2.95269 7.67077 2.93103C8.17083 2.90937 8.66084 3.076 9.04403 3.39802L9.17203 3.51502L12.354 6.69702L15.328 3.72202ZM15.889 13.061L13.061 15.889L13.414 16.243L14.121 15.536C14.3006 15.3548 14.5426 15.249 14.7976 15.2403C15.0526 15.2317 15.3012 15.3208 15.4926 15.4895C15.684 15.6582 15.8037 15.8936 15.8272 16.1476C15.8507 16.4017 15.7763 16.6551 15.619 16.856L15.536 16.95L14.829 17.657L16.243 19.071L19.071 16.243L15.889 13.061ZM7.75703 4.92902L4.93003 7.75702L6.34403 9.17202L7.05103 8.46502C7.23963 8.28286 7.49224 8.18207 7.75443 8.18435C8.01663 8.18662 8.26744 8.29179 8.45285 8.4772C8.63826 8.66261 8.74343 8.91342 8.74571 9.17562C8.74799 9.43782 8.64719 9.69042 8.46503 9.87902L7.75803 10.586L8.11203 10.939L10.94 8.11102L7.75703 4.92902Z" fill="currentColor"/>
</svg>
