<svg width="24" height="24" viewBox="0 0 24 24" fill="none" xmlns="http://www.w3.org/2000/svg">
<path fill-rule="evenodd" clip-rule="evenodd" d="M10.8244 2.618C11.1662 2.36954 11.5779 2.23572 12.0004 2.23572C12.4229 2.23572 12.8346 2.36954 13.1764 2.618L21.0354 8.328C21.3772 8.57619 21.6316 8.92621 21.7622 9.32788C21.8928 9.72956 21.8929 10.1623 21.7624 10.564L18.7594 19.804C18.6289 20.2057 18.3746 20.5557 18.0329 20.804C17.6912 21.0522 17.2798 21.186 16.8574 21.186H7.14341C6.72089 21.1862 6.30917 21.0526 5.9673 20.8043C5.62543 20.556 5.37096 20.2058 5.24041 19.804L2.23841 10.564C2.10795 10.1623 2.10803 9.72956 2.23863 9.32788C2.36923 8.92621 2.62364 8.57619 2.96541 8.328L10.8244 2.618Z" fill="currentColor"/>
</svg>
