<svg width="24" height="24" viewBox="0 0 24 24" fill="none" xmlns="http://www.w3.org/2000/svg">
<path fill-rule="evenodd" clip-rule="evenodd" d="M6.85705 2.445C8.00005 3.278 8.89005 4.415 9.65004 5.503L10.092 6.147L10.509 6.762C10.7176 7.06673 10.8068 7.43755 10.7596 7.8038C10.7124 8.17005 10.5321 8.50613 10.253 8.748L8.30205 10.197C8.20779 10.2651 8.14144 10.365 8.11532 10.4783C8.08921 10.5916 8.1051 10.7105 8.16005 10.813C8.60205 11.616 9.38805 12.812 10.288 13.712C11.189 14.612 12.441 15.45 13.3 15.942C13.4077 16.0025 13.5345 16.0194 13.6543 15.9892C13.7741 15.9591 13.8778 15.8842 13.944 15.78L15.214 13.847C15.4475 13.5368 15.792 13.3291 16.1752 13.2672C16.5585 13.2053 16.9508 13.2941 17.27 13.515L17.933 13.974C19.172 14.834 20.503 15.811 21.521 17.114C21.6825 17.3218 21.7852 17.5691 21.8184 17.8302C21.8517 18.0912 21.8143 18.3564 21.71 18.598C20.873 20.551 18.755 22.214 16.552 22.133L16.252 22.116L16.019 22.096L15.761 22.066L15.48 22.028L15.175 21.978C15.1216 21.9684 15.0683 21.9584 15.015 21.948L14.679 21.876C14.6203 21.8631 14.5616 21.8498 14.503 21.836L14.137 21.742L13.752 21.632L13.35 21.502C11.504 20.876 9.16105 19.646 6.75705 17.242C4.35405 14.839 3.12405 12.496 2.49805 10.65L2.36805 10.248L2.25805 9.863L2.16405 9.497L2.08605 9.151C2.06352 9.04264 2.04251 8.93396 2.02305 8.825L1.97305 8.52L1.93305 8.239L1.90405 7.981L1.88405 7.748L1.86805 7.448C1.78705 5.252 3.46805 3.119 5.41205 2.286C5.64602 2.18497 5.90225 2.1465 6.15558 2.17438C6.40891 2.20225 6.65063 2.29551 6.85705 2.445ZM13.818 3.818C13.9902 3.64583 14.2193 3.54239 14.4624 3.52711C14.7054 3.51183 14.9456 3.58575 15.138 3.735L15.232 3.818L17 5.586L18.768 3.818C18.948 3.63865 19.1895 3.53453 19.4434 3.52677C19.6974 3.51902 19.9448 3.60822 20.1353 3.77625C20.3259 3.94428 20.4454 4.17855 20.4694 4.43148C20.4935 4.6844 20.4205 4.93701 20.265 5.138L20.182 5.232L18.414 7L20.182 8.768C20.3614 8.94796 20.4655 9.18944 20.4733 9.44339C20.481 9.69734 20.3918 9.94472 20.2238 10.1353C20.0558 10.3258 19.8215 10.4453 19.5686 10.4694C19.3156 10.4935 19.063 10.4204 18.862 10.265L18.768 10.182L17 8.414L15.232 10.182C15.0521 10.3614 14.8106 10.4655 14.5567 10.4732C14.3027 10.481 14.0553 10.3918 13.8648 10.2238C13.6742 10.0557 13.5547 9.82145 13.5306 9.56853C13.5066 9.3156 13.5796 9.06299 13.735 8.862L13.818 8.768L15.586 7L13.818 5.232C13.6306 5.04447 13.5253 4.79017 13.5253 4.525C13.5253 4.25984 13.6306 4.00553 13.818 3.818Z" fill="currentColor"/>
</svg>
