<svg width="24" height="24" viewBox="0 0 24 24" fill="none" xmlns="http://www.w3.org/2000/svg">
<path fill-rule="evenodd" clip-rule="evenodd" d="M6.85705 2.445C8.00005 3.278 8.89005 4.415 9.65004 5.503L10.092 6.147L10.509 6.762C10.7176 7.06673 10.8068 7.43755 10.7596 7.8038C10.7124 8.17005 10.5321 8.50613 10.253 8.748L8.30205 10.197C8.20779 10.2651 8.14144 10.365 8.11532 10.4783C8.08921 10.5916 8.1051 10.7105 8.16005 10.813C8.60205 11.616 9.38805 12.812 10.288 13.712C11.189 14.612 12.441 15.45 13.3 15.942C13.4077 16.0025 13.5345 16.0194 13.6543 15.9892C13.7741 15.9591 13.8778 15.8842 13.944 15.78L15.214 13.847C15.4475 13.5368 15.792 13.3291 16.1752 13.2672C16.5585 13.2053 16.9508 13.2941 17.27 13.515L17.933 13.974C19.172 14.834 20.503 15.811 21.521 17.114C21.6825 17.3218 21.7852 17.5691 21.8184 17.8302C21.8517 18.0912 21.8143 18.3564 21.71 18.598C20.873 20.551 18.755 22.214 16.552 22.133L16.252 22.116L16.019 22.096L15.761 22.066L15.48 22.028L15.175 21.978C15.1216 21.9684 15.0683 21.9584 15.015 21.948L14.679 21.876C14.6203 21.8631 14.5616 21.8498 14.503 21.836L14.137 21.742L13.752 21.632L13.35 21.502C11.504 20.876 9.16105 19.646 6.75705 17.242C4.35405 14.839 3.12405 12.496 2.49805 10.65L2.36805 10.248L2.25805 9.863L2.16405 9.497L2.08605 9.151C2.06352 9.04264 2.04251 8.93396 2.02305 8.825L1.97305 8.52L1.93305 8.239L1.90405 7.981L1.88405 7.748L1.86805 7.448C1.78705 5.252 3.46805 3.119 5.41205 2.286C5.64602 2.18497 5.90225 2.1465 6.15558 2.17438C6.40891 2.20225 6.65063 2.29551 6.85705 2.445ZM20.889 3.735C21.0762 3.92249 21.1813 4.17658 21.1813 4.4415C21.1813 4.70642 21.0762 4.96051 20.889 5.148L16.823 9.214C16.707 9.33011 16.5692 9.42221 16.4175 9.48505C16.2658 9.54789 16.1032 9.58023 15.939 9.58023C15.7749 9.58023 15.6123 9.54789 15.4606 9.48505C15.3089 9.42221 15.1711 9.33011 15.055 9.214L13.11 7.27C12.9225 7.08236 12.8173 6.82792 12.8173 6.56265C12.8174 6.29738 12.9229 6.04301 13.1105 5.8555C13.2982 5.66799 13.5526 5.56271 13.8179 5.5628C14.0832 5.56289 14.3375 5.66836 14.525 5.856L15.939 7.27L19.474 3.734C19.5669 3.64103 19.6772 3.56727 19.7986 3.51694C19.92 3.46662 20.0501 3.44072 20.1815 3.44072C20.313 3.44072 20.4431 3.46662 20.5645 3.51694C20.6859 3.56727 20.7962 3.64203 20.889 3.735Z" fill="currentColor"/>
</svg>
