<svg width="24" height="24" viewBox="0 0 24 24" fill="none" xmlns="http://www.w3.org/2000/svg">
<path fill-rule="evenodd" clip-rule="evenodd" d="M6.85705 2.445C8.00005 3.278 8.89005 4.415 9.65004 5.503L10.092 6.147L10.509 6.762C10.7176 7.06673 10.8068 7.43755 10.7596 7.8038C10.7124 8.17005 10.5321 8.50613 10.253 8.748L8.30205 10.197C8.20779 10.2651 8.14144 10.365 8.11532 10.4783C8.08921 10.5916 8.1051 10.7105 8.16005 10.813C8.60205 11.616 9.38805 12.812 10.288 13.712C11.189 14.612 12.441 15.45 13.3 15.942C13.4077 16.0025 13.5345 16.0194 13.6543 15.9892C13.7741 15.9591 13.8778 15.8842 13.944 15.78L15.214 13.847C15.4475 13.5368 15.792 13.3291 16.1752 13.2672C16.5585 13.2053 16.9508 13.2941 17.27 13.515L17.933 13.974C19.172 14.834 20.503 15.811 21.521 17.114C21.6825 17.3218 21.7852 17.5691 21.8184 17.8302C21.8517 18.0912 21.8143 18.3564 21.71 18.598C20.873 20.551 18.755 22.214 16.552 22.133L16.252 22.116L16.019 22.096L15.761 22.066L15.48 22.028L15.175 21.978C15.1216 21.9684 15.0683 21.9584 15.015 21.948L14.679 21.876C14.6203 21.8631 14.5616 21.8498 14.503 21.836L14.137 21.742L13.752 21.632L13.35 21.502C11.504 20.876 9.16105 19.646 6.75705 17.242C4.35405 14.839 3.12405 12.496 2.49805 10.65L2.36805 10.248L2.25805 9.863L2.16405 9.497L2.08605 9.151C2.06352 9.04264 2.04251 8.93396 2.02305 8.825L1.97305 8.52L1.93305 8.239L1.90405 7.981L1.88405 7.748L1.86805 7.448C1.78705 5.252 3.46805 3.119 5.41205 2.286C5.64602 2.18497 5.90225 2.1465 6.15558 2.17438C6.40891 2.20225 6.65063 2.29551 6.85705 2.445ZM19.293 3.293C19.473 3.11365 19.7145 3.00953 19.9684 3.00177C20.2224 2.99402 20.4698 3.08322 20.6603 3.25125C20.8509 3.41928 20.9704 3.65355 20.9944 3.90648C21.0185 4.1594 20.9455 4.41201 20.79 4.613L20.707 4.707L17.414 8H19C19.2549 8.00028 19.5001 8.09788 19.6854 8.27285C19.8707 8.44782 19.9823 8.68695 19.9972 8.9414C20.0122 9.19584 19.9294 9.44638 19.7658 9.64183C19.6022 9.83729 19.3701 9.9629 19.117 9.993L19 10H15C14.7551 9.99997 14.5187 9.91005 14.3357 9.74729C14.1526 9.58453 14.0357 9.36025 14.007 9.117L14 9V5C14.0003 4.74512 14.0979 4.49997 14.2729 4.31463C14.4479 4.1293 14.687 4.01777 14.9414 4.00283C15.1959 3.98789 15.4464 4.07068 15.6419 4.23427C15.8373 4.39786 15.9629 4.62991 15.993 4.883L16 5V6.586L19.293 3.293Z" fill="currentColor"/>
</svg>
