<svg width="24" height="24" viewBox="0 0 24 24" fill="none" xmlns="http://www.w3.org/2000/svg">
<path fill-rule="evenodd" clip-rule="evenodd" d="M6.85705 2.445C8.00005 3.278 8.89005 4.415 9.65004 5.503L10.092 6.147L10.509 6.762C10.7176 7.06673 10.8068 7.43755 10.7596 7.8038C10.7124 8.17005 10.5321 8.50613 10.253 8.748L8.30205 10.197C8.20779 10.2651 8.14144 10.365 8.11532 10.4783C8.08921 10.5916 8.1051 10.7105 8.16005 10.813C8.60205 11.616 9.38805 12.812 10.288 13.712C11.189 14.612 12.441 15.45 13.3 15.942C13.4077 16.0025 13.5345 16.0194 13.6543 15.9892C13.7741 15.9591 13.8778 15.8842 13.944 15.78L15.214 13.847C15.4475 13.5368 15.792 13.3291 16.1752 13.2672C16.5585 13.2053 16.9508 13.2941 17.27 13.515L17.933 13.974C19.172 14.834 20.503 15.811 21.521 17.114C21.6825 17.3218 21.7852 17.5691 21.8184 17.8302C21.8517 18.0912 21.8143 18.3564 21.71 18.598C20.873 20.551 18.755 22.214 16.552 22.133L16.252 22.116L16.019 22.096L15.761 22.066L15.48 22.028L15.175 21.978C15.1216 21.9684 15.0683 21.9584 15.015 21.948L14.679 21.876C14.6203 21.8631 14.5616 21.8498 14.503 21.836L14.137 21.742L13.752 21.632L13.35 21.502C11.504 20.876 9.16105 19.646 6.75705 17.242C4.35405 14.839 3.12405 12.496 2.49805 10.65L2.36805 10.248L2.25805 9.863L2.16405 9.497L2.08605 9.151C2.06352 9.04264 2.04251 8.93396 2.02305 8.825L1.97305 8.52L1.93305 8.239L1.90405 7.981L1.88405 7.748L1.86805 7.448C1.78705 5.252 3.46805 3.119 5.41205 2.286C5.64602 2.18497 5.90225 2.1465 6.15558 2.17438C6.40891 2.20225 6.65063 2.29551 6.85705 2.445ZM17 3C17.245 3.00003 17.4814 3.08996 17.6644 3.25272C17.8475 3.41548 17.9644 3.63975 17.993 3.883L18 4V6H20C20.2549 6.00028 20.5001 6.09788 20.6854 6.27285C20.8707 6.44782 20.9823 6.68695 20.9972 6.9414C21.0122 7.19584 20.9294 7.44638 20.7658 7.64183C20.6022 7.83729 20.3701 7.9629 20.117 7.993L20 8H18V10C17.9998 10.2549 17.9022 10.5 17.7272 10.6854C17.5522 10.8707 17.3131 10.9822 17.0587 10.9972C16.8042 11.0121 16.5537 10.9293 16.3582 10.7657C16.1628 10.6021 16.0371 10.3701 16.007 10.117L16 10V8H14C13.7452 7.99972 13.5 7.90212 13.3147 7.72715C13.1293 7.55218 13.0178 7.31305 13.0029 7.05861C12.9879 6.80417 13.0707 6.55362 13.2343 6.35817C13.3979 6.16272 13.63 6.03711 13.883 6.007L14 6H16V4C16 3.73479 16.1054 3.48043 16.2929 3.2929C16.4805 3.10536 16.7348 3 17 3Z" fill="currentColor"/>
</svg>
