<svg width="24" height="24" viewBox="0 0 24 24" fill="none" xmlns="http://www.w3.org/2000/svg">
<path d="M7.07909 5.66201L7.02809 5.61401C6.83949 5.43185 6.58689 5.33105 6.32469 5.33333C6.0625 5.33561 5.81168 5.44078 5.62627 5.62619C5.44087 5.8116 5.3357 6.06241 5.33342 6.3246C5.33114 6.5868 5.43194 6.8394 5.61409 7.02801L5.66209 7.07801C3.94609 9.08501 2.85509 11.637 3.24209 14.318C3.27741 14.4949 3.35988 14.6589 3.48079 14.7927C3.60171 14.9265 3.75655 15.0251 3.92893 15.0781C4.10131 15.131 4.28481 15.1364 4.46 15.0936C4.63519 15.0509 4.79555 14.9615 4.92409 14.835C5.72109 13.886 6.52409 12.945 7.38909 12.057C7.88668 11.5409 8.41001 11.0503 8.95709 10.587L16.5751 18.695C16.6668 18.7926 16.7772 18.8707 16.8997 18.9248C17.0222 18.9789 17.1543 19.0079 17.2882 19.0101C17.4221 19.0122 17.5551 18.9875 17.6793 18.9373C17.8034 18.8871 17.9163 18.8126 18.0111 18.718L18.7181 18.011C18.8128 17.9162 18.8875 17.8034 18.9377 17.6793C18.988 17.5551 19.0128 17.4221 19.0106 17.2881C19.0085 17.1542 18.9794 17.0221 18.9252 16.8995C18.871 16.777 18.7928 16.6667 18.6951 16.575L10.5871 8.95701C11.0506 8.41016 11.5413 7.88684 12.0571 7.38901C12.9171 6.55101 13.8251 5.77201 14.7471 5.00301C14.8959 4.884 15.0077 4.72495 15.0692 4.54456C15.1307 4.36418 15.1393 4.16998 15.0942 3.98484C15.049 3.7997 14.9518 3.63132 14.8142 3.49954C14.6765 3.36776 14.504 3.27806 14.3171 3.24101C11.6371 2.85501 9.08509 3.94601 7.07909 5.66201Z" fill="currentColor"/>
</svg>
