<svg width="24" height="24" viewBox="0 0 24 24" fill="none" xmlns="http://www.w3.org/2000/svg">
<path d="M18.615 4.212C18.7348 4.30546 18.8318 4.42501 18.8985 4.56155C18.9652 4.69809 18.9999 4.84804 19 5V7.101C19.7974 7.91378 20.3844 8.90891 20.71 10H21C21.2652 10 21.5196 10.1054 21.7071 10.2929C21.8946 10.4804 22 10.7348 22 11V14C21.9999 14.1857 21.9481 14.3676 21.8504 14.5255C21.7528 14.6834 21.6131 14.811 21.447 14.894L19.991 15.623C19.4825 16.4614 18.8044 17.1842 18 17.745V19C18 19.2652 17.8946 19.5196 17.7071 19.7071C17.5196 19.8946 17.2652 20 17 20H14C13.7348 20 13.4804 19.8946 13.2929 19.7071C13.1054 19.5196 13 19.2652 13 19H12C12 19.2652 11.8946 19.5196 11.7071 19.7071C11.5196 19.8946 11.2652 20 11 20H8C7.73478 20 7.48043 19.8946 7.29289 19.7071C7.10536 19.5196 7 19.2652 7 19V17.745C5.6729 16.8201 4.70631 15.4649 4.264 13.909C3.61681 13.745 3.04278 13.37 2.63272 12.8431C2.22267 12.3162 2.00002 11.6676 2 11V10.5C2 10.2348 2.10536 9.98043 2.29289 9.7929C2.48043 9.60536 2.73478 9.5 3 9.5C3.26522 9.5 3.51957 9.60536 3.70711 9.7929C3.89464 9.98043 4 10.2348 4 10.5V11C3.99977 11.0919 4.01222 11.1835 4.037 11.272C4.21699 9.55075 5.02822 7.95719 6.3141 6.79891C7.59999 5.64064 9.26936 4.99977 11 5H13.877L17.757 4.03C17.9044 3.99315 18.0583 3.99038 18.207 4.02192C18.3557 4.05345 18.4952 4.11846 18.615 4.212ZM16.5 9C16.1022 9 15.7206 9.15804 15.4393 9.43934C15.158 9.72065 15 10.1022 15 10.5C15 10.8978 15.158 11.2794 15.4393 11.5607C15.7206 11.842 16.1022 12 16.5 12C16.8978 12 17.2794 11.842 17.5607 11.5607C17.842 11.2794 18 10.8978 18 10.5C18 10.1022 17.842 9.72065 17.5607 9.43934C17.2794 9.15804 16.8978 9 16.5 9Z" fill="currentColor"/>
</svg>
