<svg width="24" height="24" viewBox="0 0 24 24" fill="none" xmlns="http://www.w3.org/2000/svg">
<path fill-rule="evenodd" clip-rule="evenodd" d="M12 2C12.2449 2.00003 12.4813 2.08996 12.6644 2.25272C12.8474 2.41547 12.9643 2.63975 12.993 2.883L13 3V7.257C13.7901 6.60506 14.7466 6.18672 15.7617 6.04914C16.7768 5.91155 17.8101 6.06018 18.7453 6.47827C19.6804 6.89637 20.4802 7.56732 21.0546 8.41552C21.6289 9.26372 21.955 10.2555 21.996 11.279L22 11.5V12C22 12.2449 21.91 12.4813 21.7473 12.6644C21.5845 12.8474 21.3603 12.9643 21.117 12.993L21 13H16.743C17.3949 13.7901 17.8133 14.7466 17.9509 15.7617C18.0885 16.7768 17.9398 17.8101 17.5217 18.7453C17.1036 19.6804 16.4327 20.4802 15.5845 21.0546C14.7363 21.6289 13.7445 21.955 12.721 21.996L12.5 22H12C11.7551 22 11.5187 21.91 11.3356 21.7473C11.1526 21.5845 11.0357 21.3603 11.007 21.117L11 21V16.743C10.2099 17.3949 9.2534 17.8133 8.23832 17.9509C7.22324 18.0885 6.1899 17.9398 5.25475 17.5217C4.31959 17.1036 3.51978 16.4327 2.94544 15.5845C2.37109 14.7363 2.04503 13.7445 2.004 12.721L2 12.5V12C2.00003 11.7551 2.08996 11.5187 2.25272 11.3356C2.41547 11.1526 2.63975 11.0357 2.883 11.007L3 11H7.257C6.60506 10.2099 6.18672 9.2534 6.04914 8.23832C5.91155 7.22324 6.06018 6.1899 6.47827 5.25475C6.89637 4.31959 7.56732 3.51978 8.41552 2.94544C9.26372 2.37109 10.2555 2.04503 11.279 2.004L11.5 2H12ZM12 11C11.7348 11 11.4804 11.1054 11.2929 11.2929C11.1054 11.4804 11 11.7348 11 12C11 12.2652 11.1054 12.5196 11.2929 12.7071C11.4804 12.8946 11.7348 13 12 13C12.2652 13 12.5196 12.8946 12.7071 12.7071C12.8946 12.5196 13 12.2652 13 12C13 11.7348 12.8946 11.4804 12.7071 11.2929C12.5196 11.1054 12.2652 11 12 11Z" fill="currentColor"/>
</svg>
