<svg width="24" height="24" viewBox="0 0 24 24" fill="none" xmlns="http://www.w3.org/2000/svg">
<path fill-rule="evenodd" clip-rule="evenodd" d="M11.99 1.824L15.93 2.519C16.4522 2.61141 16.9162 2.9074 17.2202 3.34189C17.5242 3.77638 17.6432 4.3138 17.551 4.836L17.378 5.82C17.6391 5.86632 17.8711 6.01443 18.023 6.23178C18.1749 6.44912 18.2342 6.7179 18.188 6.979L17.494 10.919C17.626 10.9388 17.7527 10.9848 17.8667 11.0543C17.9806 11.1239 18.0795 11.2155 18.1574 11.3238C18.2354 11.4322 18.2909 11.555 18.3206 11.6852C18.3504 11.8153 18.3537 11.9501 18.3306 12.0815C18.3074 12.213 18.2582 12.3384 18.1857 12.4506C18.1133 12.5627 18.0192 12.6592 17.9089 12.7343C17.7986 12.8095 17.6743 12.8618 17.5435 12.8882C17.4126 12.9146 17.2778 12.9145 17.147 12.888L16.627 15.842C16.7564 15.865 16.8799 15.9132 16.9906 15.9839C17.1013 16.0547 17.197 16.1465 17.2723 16.2542C17.3475 16.362 17.4007 16.4834 17.429 16.6117C17.4573 16.74 17.46 16.8726 17.437 17.002C17.414 17.1313 17.3658 17.2549 17.2951 17.3656C17.2243 17.4763 17.1325 17.572 17.0248 17.6472C16.917 17.7225 16.7956 17.7757 16.6673 17.804C16.539 17.8323 16.4064 17.835 16.277 17.812L15.504 22.175C15.4629 22.4061 15.3418 22.6155 15.1619 22.7663C14.982 22.9171 14.7548 22.9999 14.52 23H6.39601C6.24993 23 6.10562 22.9681 5.97323 22.9063C5.84083 22.8446 5.72356 22.7546 5.62967 22.6427C5.53579 22.5308 5.46755 22.3997 5.42977 22.2586C5.392 22.1175 5.38559 21.9698 5.41101 21.826L6.43001 16.076C6.16877 16.0299 5.93656 15.8818 5.78447 15.6645C5.63238 15.4471 5.57286 15.1782 5.61901 14.917C5.66515 14.6558 5.81319 14.4236 6.03054 14.2715C6.2479 14.1194 6.51677 14.0598 6.77801 14.106L7.29801 11.151C7.03677 11.1048 6.80456 10.9568 6.65247 10.7395C6.50038 10.5221 6.44086 10.2532 6.48701 9.992C6.53315 9.73076 6.68119 9.49855 6.89854 9.34646C7.1159 9.19437 7.38477 9.13485 7.64601 9.181L8.34101 5.242C8.38733 4.98112 8.53531 4.74929 8.75242 4.59742C8.96954 4.44555 9.23806 4.38605 9.49901 4.432L9.67301 3.446C9.76519 2.92366 10.0611 2.45934 10.4956 2.15516C10.9301 1.85098 11.4677 1.73186 11.99 1.824ZM9.96201 18.724L9.56001 21H11.59L11.931 19.07C11.9538 18.9406 11.9509 18.8081 11.9224 18.6798C11.894 18.5516 11.8405 18.4303 11.7652 18.3227C11.6898 18.2151 11.594 18.1234 11.4832 18.0529C11.3725 17.9823 11.2489 17.9343 11.1195 17.9115C10.9902 17.8887 10.8576 17.8916 10.7294 17.9201C10.6011 17.9485 10.4798 18.002 10.3722 18.0773C10.2646 18.1527 10.1729 18.2485 10.1024 18.3593C10.0318 18.47 9.98379 18.5936 9.96101 18.723L9.96201 18.724ZM12.049 13.004C11.8077 12.9616 11.5593 13.0093 11.3508 13.1379C11.1423 13.2666 10.9883 13.4673 10.918 13.702L10.891 13.816L10.717 14.8L12.687 15.148L12.861 14.163C12.8839 14.0336 12.881 13.9009 12.8526 13.7726C12.8241 13.6443 12.7707 13.5228 12.6953 13.4152C12.6199 13.3075 12.524 13.2158 12.4131 13.1453C12.3022 13.0747 12.1785 13.0267 12.049 13.004ZM12.918 8.08C12.6766 8.03734 12.4279 8.08486 12.2192 8.21355C12.0105 8.34224 11.8563 8.54311 11.786 8.778L11.759 8.892L11.585 9.876L13.555 10.224L13.729 9.239C13.7519 9.10964 13.7491 8.97704 13.7207 8.84878C13.6923 8.72052 13.6389 8.5991 13.5636 8.49147C13.4883 8.38384 13.3925 8.29211 13.2818 8.2215C13.171 8.1509 13.0474 8.10282 12.918 8.08ZM11.643 3.794L11.469 4.779L15.409 5.473L15.582 4.488L11.643 3.794Z" fill="currentColor"/>
</svg>
