<svg width="24" height="24" viewBox="0 0 24 24" fill="none" xmlns="http://www.w3.org/2000/svg">
<path fill-rule="evenodd" clip-rule="evenodd" d="M11.5001 3.00001C11.745 3.00005 11.9814 3.08997 12.1645 3.25273C12.3475 3.41549 12.4644 3.63976 12.4931 3.88301L12.5001 4.00001V11.19L19.4401 9.29801C19.6959 9.22851 19.9688 9.26341 20.1989 9.39504C20.429 9.52668 20.5974 9.74427 20.6671 10C21.1899 11.9167 21.0987 13.9491 20.4062 15.8112C19.7138 17.6733 18.455 19.2715 16.8069 20.3809C15.1587 21.4903 13.2043 22.0551 11.2185 21.9958C9.23267 21.9365 7.3154 21.2561 5.73641 20.0504C4.15741 18.8447 2.99616 17.1743 2.41602 15.2741C1.83587 13.374 1.86603 11.3398 2.50225 9.45776C3.13846 7.57568 4.34872 5.94042 5.96276 4.78202C7.5768 3.62363 9.5134 3.0004 11.5001 3.00001ZM12.5001 14C11.8371 14 11.2012 14.2634 10.7323 14.7322C10.2635 15.2011 10.0001 15.837 10.0001 16.5C10.0001 17.1631 10.2635 17.7989 10.7323 18.2678C11.2012 18.7366 11.8371 19 12.5001 19C13.1631 19 13.799 18.7366 14.2679 18.2678C14.7367 17.7989 15.0001 17.1631 15.0001 16.5C15.0001 15.837 14.7367 15.2011 14.2679 14.7322C13.799 14.2634 13.1631 14 12.5001 14ZM12.5001 16C12.6327 16 12.7599 16.0527 12.8537 16.1465C12.9474 16.2402 13.0001 16.3674 13.0001 16.5C13.0001 16.6326 12.9474 16.7598 12.8537 16.8536C12.7599 16.9473 12.6327 17 12.5001 17C12.3675 17 12.2403 16.9473 12.1466 16.8536C12.0528 16.7598 12.0001 16.6326 12.0001 16.5C12.0001 16.3674 12.0528 16.2402 12.1466 16.1465C12.2403 16.0527 12.3675 16 12.5001 16ZM17.0001 13C16.7552 13 16.5188 13.09 16.3357 13.2527C16.1527 13.4155 16.0358 13.6398 16.0071 13.883L16.0001 14.01C16.0004 14.2649 16.098 14.51 16.273 14.6954C16.4479 14.8807 16.6871 14.9922 16.9415 15.0072C17.1959 15.0221 17.4465 14.9393 17.6419 14.7757C17.8374 14.6122 17.963 14.3801 17.9931 14.127L18.0001 14C18.0001 13.7348 17.8947 13.4804 17.7072 13.2929C17.5197 13.1054 17.2653 13 17.0001 13ZM7.5001 12C7.10228 12 6.72075 12.158 6.43944 12.4394C6.15814 12.7207 6.0001 13.1022 6.0001 13.5C6.0001 13.8978 6.15814 14.2794 6.43944 14.5607C6.72075 14.842 7.10228 15 7.5001 15C7.89793 15 8.27946 14.842 8.56077 14.5607C8.84207 14.2794 9.0001 13.8978 9.0001 13.5C9.0001 13.1022 8.84207 12.7207 8.56077 12.4394C8.27946 12.158 7.89793 12 7.5001 12ZM15.2941 2.04401C17.4079 2.69623 19.2285 4.06424 20.4431 5.91301C20.5853 6.12963 20.6379 6.393 20.5898 6.64762C20.5417 6.90225 20.3966 7.12826 20.1851 7.27801L20.0841 7.34101L14.4761 10.379C14.3218 10.4626 14.1482 10.5041 13.9727 10.4994C13.7973 10.4947 13.6262 10.4438 13.4766 10.352C13.327 10.2602 13.2043 10.1306 13.1206 9.97634C13.037 9.82205 12.9954 9.64846 13.0001 9.47301L13.0121 9.34801L14.0121 2.84801C14.0339 2.70611 14.086 2.57056 14.1649 2.45059C14.2438 2.33062 14.3476 2.22904 14.4692 2.15276C14.5908 2.07648 14.7275 2.02728 14.8698 2.00852C15.0121 1.98975 15.1569 2.00186 15.2941 2.04401ZM8.0001 8.00001C7.75517 8.00005 7.51877 8.08997 7.33573 8.25273C7.1527 8.41549 7.03576 8.63976 7.0071 8.88301L7.0001 9.01001C7.00039 9.26489 7.09798 9.51005 7.27295 9.69538C7.44792 9.88072 7.68706 9.99225 7.9415 10.0072C8.19594 10.0221 8.44648 9.93934 8.64194 9.77575C8.83739 9.61216 8.963 9.38011 8.9931 9.12701L9.0001 9.00001C9.0001 8.7348 8.89475 8.48044 8.70721 8.29291C8.51968 8.10537 8.26532 8.00001 8.0001 8.00001ZM15.7981 4.38801L15.2951 7.66101L18.1021 6.14001C17.4546 5.41251 16.6722 4.81752 15.7981 4.38801Z" fill="currentColor"/>
</svg>
