<svg width="24" height="24" viewBox="0 0 24 24" fill="none" xmlns="http://www.w3.org/2000/svg">
<path fill-rule="evenodd" clip-rule="evenodd" d="M20.989 12.446C20.9149 13.9489 20.4651 15.4092 19.6809 16.6934C18.8966 17.9776 17.8029 19.0447 16.4998 19.797C15.1966 20.5494 13.7256 20.963 12.2214 21C10.7171 21.037 9.22756 20.6963 7.88898 20.009C8.84644 19.684 9.78549 19.3071 10.702 18.88C12.083 18.2367 13.4338 17.5303 14.75 16.763C16.0728 16.0065 17.3601 15.1896 18.608 14.315C19.4349 13.7355 20.2297 13.1116 20.989 12.446ZM11.999 3C14.225 3 16.262 3.808 17.833 5.146L18.15 5.074L18.317 5.04L18.663 4.976L19.022 4.922C20.297 4.755 21.728 4.85 22.392 6C23.154 7.32 22.334 8.784 21.435 9.862L21.21 10.124L20.987 10.367C19.593 11.845 17.284 13.568 14 15.464C10.716 17.36 8.06998 18.498 6.09198 18.967L5.93298 19.003L5.60198 19.072L5.25598 19.132C3.90898 19.337 2.33798 19.265 1.60698 18C0.943978 16.85 1.57698 15.564 2.35798 14.543L2.58398 14.259L2.69898 14.123L2.92598 13.865L3.14598 13.625C2.9077 12.327 2.95779 10.9925 3.29271 9.71596C3.62763 8.43946 4.23917 7.25224 5.08402 6.2384C5.92886 5.22457 6.98633 4.40894 8.18149 3.84931C9.37666 3.28967 10.6803 2.99972 12 3H11.999ZM3.87198 15.869L3.71798 16.082C3.55298 16.317 3.37098 16.607 3.34398 16.87V16.998C3.48398 17.248 3.98098 17.25 4.34598 17.223L4.64998 17.193C4.35333 16.7743 4.09304 16.331 3.87198 15.868V15.869ZM20.657 7.002C20.455 6.852 20.124 6.838 19.823 6.857L19.538 6.882C19.494 6.887 19.453 6.892 19.414 6.895C19.704 7.315 19.959 7.761 20.175 8.229L20.336 8.004C20.525 7.731 20.756 7.342 20.693 7.082L20.66 7L20.657 7.002Z" fill="currentColor"/>
</svg>
