<svg width="24" height="24" viewBox="0 0 24 24" fill="none" xmlns="http://www.w3.org/2000/svg">
<path fill-rule="evenodd" clip-rule="evenodd" d="M5.66944 4.76003C5.69625 4.53287 5.77573 4.31512 5.90155 4.1241C6.02737 3.93309 6.19607 3.7741 6.39419 3.65979C6.59231 3.54548 6.81438 3.47902 7.04272 3.46569C7.27107 3.45236 7.49937 3.49254 7.70944 3.58303C8.77144 4.03703 11.1514 5.11603 14.1714 6.85903C17.1924 8.60303 19.3174 10.126 20.2404 10.817C21.0284 11.408 21.0304 12.58 20.2414 13.173C19.3274 13.86 17.2284 15.363 14.1714 17.129C11.1114 18.895 8.75944 19.961 7.70744 20.409C6.80144 20.796 5.78744 20.209 5.66944 19.232C5.53144 18.09 5.27344 15.497 5.27344 11.995C5.27344 8.49503 5.53044 5.90303 5.66944 4.76003Z" fill="currentColor"/>
</svg>
