<svg width="24" height="24" viewBox="0 0 24 24" fill="none" xmlns="http://www.w3.org/2000/svg">
<path d="M12 2C17.523 2 22 6.477 22 12C22 17.523 17.523 22 12 22C6.477 22 2 17.523 2 12C2 6.477 6.477 2 12 2ZM8.964 8.65L8.911 9.15L8.881 9.483L8.839 10.083L8.815 10.543L8.797 11.048L8.787 11.597V12.175L8.797 12.724L8.815 13.23L8.839 13.69L8.881 14.29L8.952 15.02L8.965 15.122C8.98711 15.3057 9.05167 15.4817 9.15357 15.6361C9.25547 15.7905 9.3919 15.9191 9.55208 16.0116C9.71226 16.1042 9.89178 16.1582 10.0764 16.1693C10.2611 16.1805 10.4458 16.1486 10.616 16.076L11.072 15.874L11.723 15.565L12.113 15.369L12.543 15.145L13.009 14.892L13.507 14.61L14 14.32L14.231 14.18L14.661 13.91L15.049 13.66L15.391 13.431L16.044 12.971L16.221 12.84C16.3691 12.7289 16.4894 12.5848 16.5721 12.4192C16.6549 12.2536 16.6979 12.0709 16.6978 11.8857C16.6977 11.7006 16.6545 11.518 16.5716 11.3524C16.4886 11.1869 16.3683 11.0429 16.22 10.932L15.814 10.635L15.539 10.442L15.219 10.224L14.654 9.856L14.226 9.588L13.756 9.306L13.257 9.018L12.779 8.753L12.332 8.515L11.922 8.305L11.382 8.042L10.943 7.84L10.713 7.738C10.6814 7.72457 10.6497 7.71124 10.618 7.698C10.4478 7.62487 10.263 7.5924 10.078 7.60318C9.89313 7.61395 9.71328 7.66767 9.55275 7.76006C9.39222 7.85246 9.25543 7.981 9.15323 8.13547C9.05104 8.28995 8.98625 8.46612 8.964 8.65Z" fill="currentColor"/>
</svg>
