<svg width="24" height="24" viewBox="0 0 24 24" fill="none" xmlns="http://www.w3.org/2000/svg">
<path d="M17.33 4.05503L20.316 5.05103C20.4406 5.09252 20.5559 5.15816 20.6551 5.24419C20.7544 5.33022 20.8357 5.43496 20.8945 5.55243C20.9533 5.66989 20.9883 5.79779 20.9977 5.92881C21.007 6.05982 20.9905 6.1914 20.949 6.31603C20.9075 6.44065 20.8419 6.55588 20.7558 6.65514C20.6698 6.7544 20.5651 6.83574 20.4476 6.89452C20.3301 6.9533 20.2022 6.98836 20.0712 6.99772C19.9402 7.00707 19.8086 6.99052 19.684 6.94903L18 6.38703V17.5C17.9998 18.2584 17.7534 18.9962 17.2977 19.6024C16.842 20.2085 16.2018 20.6503 15.4734 20.8612C14.7449 21.0721 13.9677 21.0407 13.2586 20.7718C12.5496 20.5028 11.9471 20.0108 11.5418 19.3698C11.1365 18.7289 10.9503 17.9736 11.0113 17.2177C11.0724 16.4618 11.3772 15.7462 11.8801 15.1785C12.383 14.6108 13.0566 14.2219 13.7996 14.0701C14.5426 13.9183 15.3148 14.012 16 14.337V5.01403C16 4.32403 16.675 3.83703 17.33 4.05503ZM8 17C8.26522 17 8.51957 17.1054 8.70711 17.2929C8.89464 17.4805 9 17.7348 9 18C9 18.2652 8.89464 18.5196 8.70711 18.7071C8.51957 18.8947 8.26522 19 8 19H4C3.73478 19 3.48043 18.8947 3.29289 18.7071C3.10536 18.5196 3 18.2652 3 18C3 17.7348 3.10536 17.4805 3.29289 17.2929C3.48043 17.1054 3.73478 17 4 17H8ZM10 11C10.2652 11 10.5196 11.1054 10.7071 11.2929C10.8946 11.4805 11 11.7348 11 12C11 12.2652 10.8946 12.5196 10.7071 12.7071C10.5196 12.8947 10.2652 13 10 13H4C3.73478 13 3.48043 12.8947 3.29289 12.7071C3.10536 12.5196 3 12.2652 3 12C3 11.7348 3.10536 11.4805 3.29289 11.2929C3.48043 11.1054 3.73478 11 4 11H10ZM13 5.00003C13.2549 5.00031 13.5 5.09791 13.6854 5.27288C13.8707 5.44784 13.9822 5.68698 13.9972 5.94142C14.0121 6.19586 13.9293 6.44641 13.7657 6.64186C13.6021 6.83731 13.3701 6.96292 13.117 6.99303L13 7.00003H4C3.74512 6.99974 3.49997 6.90215 3.31463 6.72718C3.1293 6.55221 3.01777 6.31307 3.00283 6.05863C2.98789 5.80419 3.07067 5.55365 3.23426 5.35819C3.39786 5.16274 3.6299 5.03713 3.883 5.00703L4 5.00003H13Z" fill="currentColor"/>
</svg>
