<svg width="24" height="24" viewBox="0 0 24 24" fill="none" xmlns="http://www.w3.org/2000/svg">
<path fill-rule="evenodd" clip-rule="evenodd" d="M17.758 5.59097L19 5.28097V8.21897L17 8.71897V6.56197C17.0001 6.33891 17.0747 6.12227 17.212 5.94651C17.3494 5.77075 17.5416 5.64495 17.758 5.59097ZM19.485 10.159L17 10.782V17.5C16.9998 18.2583 16.7534 18.9961 16.2977 19.6023C15.842 20.2085 15.2018 20.6503 14.4734 20.8612C13.7449 21.0721 12.9677 21.0407 12.2586 20.7717C11.5496 20.5027 10.9471 20.0107 10.5418 19.3698C10.1365 18.7288 9.95033 17.9735 10.0113 17.2176C10.0724 16.4617 10.3772 15.7461 10.8801 15.1784C11.383 14.6108 12.0566 14.2218 12.7996 14.07C13.5426 13.9183 14.3148 14.012 15 14.337V6.56197C15.0001 5.89305 15.2237 5.24335 15.6354 4.71609C16.047 4.18884 16.6231 3.8143 17.272 3.65197L19.136 3.18497C19.3571 3.12966 19.588 3.12547 19.811 3.17273C20.034 3.21999 20.2433 3.31745 20.423 3.45772C20.6027 3.59798 20.748 3.77735 20.848 3.98221C20.948 4.18707 21 4.41202 21 4.63997V8.21997C20.9999 8.66596 20.8508 9.09914 20.5763 9.45064C20.3018 9.80215 19.9177 10.0508 19.485 10.159ZM4 4.99997C3.73478 4.99997 3.48043 5.10533 3.29289 5.29287C3.10536 5.4804 3 5.73476 3 5.99997C3 6.26519 3.10536 6.51954 3.29289 6.70708C3.48043 6.89462 3.73478 6.99997 4 6.99997H12C12.2652 6.99997 12.5196 6.89462 12.7071 6.70708C12.8946 6.51954 13 6.26519 13 5.99997C13 5.73476 12.8946 5.4804 12.7071 5.29287C12.5196 5.10533 12.2652 4.99997 12 4.99997H4ZM3 12C3 11.7348 3.10536 11.4804 3.29289 11.2929C3.48043 11.1053 3.73478 11 4 11H9C9.26522 11 9.51957 11.1053 9.70711 11.2929C9.89464 11.4804 10 11.7348 10 12C10 12.2652 9.89464 12.5195 9.70711 12.7071C9.51957 12.8946 9.26522 13 9 13H4C3.73478 13 3.48043 12.8946 3.29289 12.7071C3.10536 12.5195 3 12.2652 3 12ZM3 18C3 17.7348 3.10536 17.4804 3.29289 17.2929C3.48043 17.1053 3.73478 17 4 17H7C7.26522 17 7.51957 17.1053 7.70711 17.2929C7.89464 17.4804 8 17.7348 8 18C8 18.2652 7.89464 18.5195 7.70711 18.7071C7.51957 18.8946 7.26522 19 7 19H4C3.73478 19 3.48043 18.8946 3.29289 18.7071C3.10536 18.5195 3 18.2652 3 18Z" fill="currentColor"/>
</svg>
