<svg width="24" height="24" viewBox="0 0 24 24" fill="none" xmlns="http://www.w3.org/2000/svg">
<path d="M11 5V9.17C10.4297 9.3716 9.93366 9.74083 9.57688 10.2293C9.22009 10.7177 9.01923 11.3026 9.00064 11.9071C8.98204 12.5117 9.14658 13.1078 9.47267 13.6173C9.79876 14.1267 10.2712 14.5257 10.828 14.762L11 14.829V19H4C3.49542 19.0002 3.00943 18.8096 2.63945 18.4665C2.26947 18.1234 2.04284 17.6532 2.005 17.15L2 17V16H5C5.50458 16.0002 5.99057 15.8096 6.36055 15.4665C6.73053 15.1234 6.95716 14.6532 6.995 14.15L7 14V10C7.00016 9.49542 6.80959 9.00943 6.4665 8.63945C6.12341 8.26947 5.65316 8.04284 5.15 8.005L5 8H2V7C1.99984 6.49542 2.19041 6.00943 2.5335 5.63945C2.87659 5.26947 3.34684 5.04284 3.85 5.005L4 5H11ZM20 5C20.5304 5 21.0391 5.21071 21.4142 5.58579C21.7893 5.96086 22 6.46957 22 7V8H19C18.4696 8 17.9609 8.21071 17.5858 8.58579C17.2107 8.96086 17 9.46957 17 10V14C17 14.5304 17.2107 15.0391 17.5858 15.4142C17.9609 15.7893 18.4696 16 19 16H22V17C22 17.5304 21.7893 18.0391 21.4142 18.4142C21.0391 18.7893 20.5304 19 20 19H13V14.83C13.5855 14.6234 14.0926 14.2403 14.4512 13.7334C14.8099 13.2265 15.0025 12.6209 15.0025 12C15.0025 11.3791 14.8099 10.7735 14.4512 10.2666C14.0926 9.75974 13.5855 9.3766 13 9.17V5H20ZM5 10V14H2V10H5ZM22 10V14H19V10H22ZM12 11C12.2652 11 12.5196 11.1054 12.7071 11.2929C12.8946 11.4804 13 11.7348 13 12C13 12.2652 12.8946 12.5196 12.7071 12.7071C12.5196 12.8946 12.2652 13 12 13C11.7348 13 11.4804 12.8946 11.2929 12.7071C11.1054 12.5196 11 12.2652 11 12C11 11.7348 11.1054 11.4804 11.2929 11.2929C11.4804 11.1054 11.7348 11 12 11Z" fill="currentColor"/>
</svg>
