<svg width="24" height="24" viewBox="0 0 24 24" fill="none" xmlns="http://www.w3.org/2000/svg">
<path d="M2 9C2 8.20435 2.31607 7.44129 2.87868 6.87868C3.44129 6.31607 4.20435 6 5 6H7.853C8.15 6 8.333 5.691 8.219 5.417C8.16141 5.2823 8.1159 5.14275 8.083 5C7.752 3.513 8.875 2 10.5 2C12.126 2 13.248 3.513 12.917 5C12.8841 5.14274 12.8386 5.28229 12.781 5.417C12.666 5.691 12.85 6 13.147 6H15C15.7956 6 16.5587 6.31607 17.1213 6.87868C17.6839 7.44129 18 8.20435 18 9V10.853C18 11.15 18.308 11.333 18.583 11.219C18.718 11.163 18.856 11.115 19 11.083C20.487 10.752 22 11.874 22 13.5C22 15.126 20.487 16.248 19 15.917C18.8572 15.8841 18.7177 15.8386 18.583 15.781C18.309 15.666 18 15.85 18 16.147V19C18 19.7956 17.6839 20.5587 17.1213 21.1213C16.5587 21.6839 15.7956 22 15 22H13.107C12.819 22 12.634 21.709 12.717 21.434C12.758 21.294 12.789 21.15 12.802 21C12.8286 20.6816 12.7888 20.3611 12.6852 20.0588C12.5815 19.7565 12.4163 19.479 12.2 19.2439C11.9836 19.0087 11.7208 18.821 11.4282 18.6926C11.1356 18.5642 10.8195 18.4979 10.5 18.4979C10.1805 18.4979 9.86439 18.5642 9.57178 18.6926C9.27917 18.821 9.01638 19.0087 8.80003 19.2439C8.58367 19.479 8.41846 19.7565 8.31484 20.0588C8.21121 20.3611 8.17143 20.6816 8.198 21C8.211 21.15 8.242 21.294 8.284 21.434C8.366 21.709 8.181 22 7.894 22H5C4.20435 22 3.44129 21.6839 2.87868 21.1213C2.31607 20.5587 2 19.7956 2 19V16.107C2 15.819 2.291 15.634 2.566 15.717C2.706 15.758 2.85 15.789 3 15.802C3.31844 15.8286 3.63892 15.7888 3.9412 15.6852C4.24347 15.5815 4.52096 15.4163 4.75611 15.2C4.99127 14.9836 5.17898 14.7208 5.30739 14.4282C5.43579 14.1356 5.50208 13.8195 5.50208 13.5C5.50208 13.1805 5.43579 12.8644 5.30739 12.5718C5.17898 12.2792 4.99127 12.0164 4.75611 11.8C4.52096 11.5837 4.24347 11.4185 3.9412 11.3148C3.63892 11.2112 3.31844 11.1714 3 11.198C2.85 11.211 2.706 11.242 2.566 11.284C2.291 11.366 2 11.181 2 10.894V9Z" fill="currentColor"/>
</svg>
