<svg width="24" height="24" viewBox="0 0 24 24" fill="none" xmlns="http://www.w3.org/2000/svg">
<path d="M15 20C15.2652 20 15.5196 20.1054 15.7071 20.2929C15.8946 20.4804 16 20.7348 16 21C16 21.2652 15.8946 21.5196 15.7071 21.7071C15.5196 21.8946 15.2652 22 15 22H9C8.73478 22 8.48043 21.8946 8.29289 21.7071C8.10536 21.5196 8 21.2652 8 21C8 20.7348 8.10536 20.4804 8.29289 20.2929C8.48043 20.1054 8.73478 20 9 20H15ZM15 2C15.2449 2.00003 15.4813 2.08996 15.6644 2.25272C15.8474 2.41547 15.9643 2.63975 15.993 2.883L16 3V6H18C18.5046 5.99984 18.9906 6.19041 19.3605 6.5335C19.7305 6.87659 19.9572 7.34684 19.995 7.85L20 8V13C20.0001 14.5524 19.3984 16.0444 18.3215 17.1625C17.2446 18.2806 15.7763 18.9378 14.225 18.996L14 19H10C8.44762 19.0001 6.95564 18.3984 5.83753 17.3215C4.71942 16.2446 4.06221 14.7763 4.004 13.225L4 13V8C3.99984 7.49542 4.19041 7.00943 4.5335 6.63945C4.87659 6.26947 5.34684 6.04284 5.85 6.005L6 6H8V3C8.00028 2.74512 8.09788 2.49997 8.27285 2.31463C8.44782 2.1293 8.68695 2.01777 8.94139 2.00283C9.19584 1.98789 9.44638 2.07067 9.64183 2.23426C9.83729 2.39786 9.9629 2.6299 9.993 2.883L10 3V6H14V3C14 2.73478 14.1054 2.48043 14.2929 2.29289C14.4804 2.10536 14.7348 2 15 2Z" fill="currentColor"/>
</svg>
