<svg width="24" height="24" viewBox="0 0 24 24" fill="none" xmlns="http://www.w3.org/2000/svg">
<path fill-rule="evenodd" clip-rule="evenodd" d="M12.0001 2C11.1601 2 10.3501 2.202 9.71811 2.582C9.10511 2.949 8.50011 3.597 8.50011 4.5C8.50011 5.403 9.10511 6.05 9.71811 6.418C10.3501 6.798 11.1591 7 12.0001 7C12.8401 7 13.6501 6.798 14.2821 6.418C14.8951 6.051 15.5001 5.403 15.5001 4.5C15.5001 3.597 14.8951 2.95 14.2821 2.582C13.6501 2.202 12.8401 2 12.0001 2ZM12.0001 17C11.1601 17 10.3501 17.202 9.71811 17.582C9.10511 17.949 8.50011 18.596 8.50011 19.5C8.50011 20.404 9.10511 21.05 9.71811 21.418C10.3501 21.798 11.1591 22 12.0001 22C12.8401 22 13.6501 21.798 14.2821 21.418C14.8951 21.051 15.5001 20.404 15.5001 19.5C15.5001 18.596 14.8951 17.95 14.2821 17.582C13.6501 17.202 12.8401 17 12.0001 17ZM3.34011 7C2.92011 7.728 2.69011 8.53 2.70211 9.267C2.71411 9.982 2.97211 10.829 3.75511 11.281C4.53711 11.733 5.40011 11.532 6.02511 11.186C6.67011 10.828 7.25011 10.228 7.67011 9.5C8.09011 8.772 8.32011 7.97 8.30711 7.233C8.29511 6.518 8.03711 5.671 7.25511 5.219C6.47211 4.767 5.60911 4.968 4.98511 5.314C4.34011 5.673 3.76011 6.272 3.34011 7ZM16.3301 14.5C15.9101 15.228 15.6801 16.03 15.6931 16.767C15.7051 17.482 15.9631 18.329 16.7451 18.781C17.5271 19.233 18.3901 19.032 19.0151 18.686C19.6601 18.328 20.2401 17.728 20.6601 17C21.0801 16.272 21.3101 15.47 21.2971 14.733C21.2851 14.018 21.0271 13.171 20.2451 12.719C19.4631 12.267 18.6001 12.468 17.9751 12.815C17.3301 13.172 16.7501 13.772 16.3301 14.5ZM4.98511 18.686C4.34011 18.328 3.76011 17.728 3.34011 17C2.92011 16.272 2.69011 15.47 2.70211 14.733C2.71411 14.018 2.97211 13.171 3.75511 12.719C4.53711 12.267 5.40011 12.468 6.02511 12.815C6.67011 13.172 7.25011 13.772 7.67011 14.5C8.09011 15.228 8.32011 16.03 8.30711 16.767C8.29511 17.482 8.03711 18.329 7.25511 18.781C6.47211 19.233 5.60911 19.032 4.98511 18.686ZM17.9751 11.186C17.3301 10.828 16.7501 10.228 16.3301 9.5C15.9101 8.772 15.6801 7.97 15.6931 7.233C15.7051 6.518 15.9631 5.671 16.7451 5.219C17.5271 4.767 18.3901 4.968 19.0151 5.314C19.6601 5.673 20.2401 6.272 20.6601 7C21.0801 7.728 21.3101 8.53 21.2971 9.267C21.2851 9.982 21.0271 10.829 20.2451 11.281C19.4631 11.733 18.6001 11.532 17.9751 11.186Z" fill="currentColor"/>
</svg>
