<svg width="24" height="24" viewBox="0 0 24 24" fill="none" xmlns="http://www.w3.org/2000/svg">
<path d="M6.90708 3.90802C7.01529 3.71301 7.17371 3.5505 7.3659 3.43735C7.55809 3.3242 7.77705 3.26453 8.00008 3.26453C8.2231 3.26453 8.44207 3.3242 8.63426 3.43735C8.82645 3.5505 8.98487 3.71301 9.09308 3.90802L11.0001 7.34002V6.00002C11.0001 5.46959 11.2108 4.96088 11.5859 4.58581C11.9609 4.21073 12.4696 4.00002 13.0001 4.00002H19.0001C19.5305 4.00002 20.0392 4.21073 20.4143 4.58581C20.7894 4.96088 21.0001 5.46959 21.0001 6.00002V12C21.0001 12.5305 20.7894 13.0392 20.4143 13.4142C20.0392 13.7893 19.5305 14 19.0001 14H16.7931C17.024 14.8179 17.0623 15.6782 16.9049 16.5133C16.7475 17.3485 16.3987 18.1358 15.8859 18.8135C15.3731 19.4912 14.7102 20.0409 13.9492 20.4193C13.1883 20.7978 12.3499 20.9947 11.5001 20.9947C10.6502 20.9947 9.8119 20.7978 9.05095 20.4193C8.28999 20.0409 7.62708 19.4912 7.11425 18.8135C6.60143 18.1358 6.25263 17.3485 6.09523 16.5133C5.93783 15.6782 5.97611 14.8179 6.20708 14H3.42508C3.20739 14.0001 2.99346 13.9433 2.80447 13.8352C2.61548 13.7272 2.45797 13.5717 2.34755 13.3841C2.23713 13.1965 2.17762 12.9833 2.1749 12.7656C2.17219 12.5479 2.22637 12.3333 2.33208 12.143L6.90708 3.90802Z" fill="currentColor"/>
</svg>
