<svg width="24" height="24" viewBox="0 0 24 24" fill="none" xmlns="http://www.w3.org/2000/svg">
<path fill-rule="evenodd" clip-rule="evenodd" d="M5.9019 7.43799C5.74109 7.53088 5.60933 7.66671 5.52137 7.83026C5.43342 7.99381 5.39274 8.17863 5.4039 8.36399L5.4699 9.47999C5.48443 9.7183 5.58375 9.94354 5.7499 10.115L6.6169 11.013L3.8289 10.613C3.58677 10.5782 3.3403 10.6334 3.13612 10.7681C2.93194 10.9028 2.78421 11.1077 2.7209 11.344L2.5379 12.027C2.48366 12.2297 2.49455 12.4443 2.56903 12.6405C2.64351 12.8366 2.7778 13.0044 2.9529 13.12L9.8649 17.684L10.6689 19.466C10.7838 19.7207 10.9508 19.9486 11.1591 20.1348C11.3674 20.3211 11.6125 20.4616 11.8785 20.5474C12.1445 20.6331 12.4255 20.6622 12.7033 20.6326C12.9812 20.6031 13.2499 20.5157 13.4919 20.376L19.3939 16.968C19.6325 16.8302 19.8401 16.6446 20.0036 16.4227C20.1671 16.2009 20.283 15.9477 20.3441 15.679C20.4051 15.4103 20.4099 15.1318 20.3583 14.8611C20.3066 14.5904 20.1996 14.3334 20.0439 14.106L18.3419 11.62C19.0766 10.8761 19.5294 9.89976 19.6228 8.85844C19.7161 7.81711 19.4441 6.77577 18.8535 5.91309C18.2628 5.05042 17.3904 4.42022 16.3858 4.13062C15.3812 3.84103 14.3071 3.9101 13.3479 4.32599L13.2879 4.23899C13.1456 4.03116 12.93 3.8847 12.6844 3.82889C12.4387 3.77309 12.1811 3.81205 11.9629 3.93799L5.9019 7.43799ZM14.5169 6.03099L17.1749 9.91399C17.4764 9.49668 17.6417 8.99645 17.6483 8.48166C17.6548 7.96686 17.5022 7.46259 17.2114 7.03776C16.9206 6.61292 16.5057 6.28822 16.0235 6.10803C15.5412 5.92783 15.015 5.90093 14.5169 6.03099ZM8.3249 14.27L7.8459 13.21L6.4059 13.003L8.3249 14.27Z" fill="currentColor"/>
</svg>
