<svg width="24" height="24" viewBox="0 0 24 24" fill="none" xmlns="http://www.w3.org/2000/svg">
<path d="M12 2V8.5C12 8.89782 12.158 9.27936 12.4393 9.56066C12.7206 9.84196 13.1022 10 13.5 10H20V20C20 20.5304 19.7893 21.0391 19.4142 21.4142C19.0391 21.7893 18.5304 22 18 22H6C5.46957 22 4.96086 21.7893 4.58579 21.4142C4.21071 21.0391 4 20.5304 4 20V4C4 3.46957 4.21071 2.96086 4.58579 2.58579C4.96086 2.21071 5.46957 2 6 2H12ZM12.5 11H10.1C9.82894 10.9999 9.56738 11.0998 9.36548 11.2807C9.16358 11.4615 9.03557 11.7106 9.006 11.98L9 12.1V17C9.00028 17.2549 9.09788 17.5 9.27285 17.6854C9.44782 17.8707 9.68695 17.9822 9.94139 17.9972C10.1958 18.0121 10.4464 17.9293 10.6418 17.7657C10.8373 17.6021 10.9629 17.3701 10.993 17.117L11 17V16H12.5C13.1499 16.0016 13.7748 15.75 14.2424 15.2987C14.71 14.8473 14.9834 14.2316 15.0047 13.582C15.0261 12.9325 14.7936 12.3002 14.3567 11.8191C13.9197 11.3381 13.3126 11.0461 12.664 11.005L12.5 11ZM12.5 13C12.6326 13 12.7598 13.0527 12.8536 13.1464C12.9473 13.2402 13 13.3674 13 13.5C13 13.6326 12.9473 13.7598 12.8536 13.8536C12.7598 13.9473 12.6326 14 12.5 14H11V13H12.5ZM14 2.043C14.3789 2.12336 14.7263 2.31199 15 2.586L19.414 7C19.688 7.27373 19.8766 7.62112 19.957 8H14V2.043Z" fill="currentColor"/>
</svg>
