<svg width="24" height="24" viewBox="0 0 24 24" fill="none" xmlns="http://www.w3.org/2000/svg">
<path fill-rule="evenodd" clip-rule="evenodd" d="M8.84305 4.68699C8.90935 4.35531 9.05483 4.04457 9.26709 3.78122C9.47936 3.51788 9.75212 3.30973 10.0621 3.1745C10.3722 3.03927 10.7103 2.98097 11.0477 3.00456C11.3851 3.02815 11.7118 3.13293 12 3.30999C12.2882 3.13293 12.615 3.02815 12.9524 3.00456C13.2898 2.98097 13.6279 3.03927 13.9379 3.1745C14.248 3.30973 14.5207 3.51788 14.733 3.78122C14.9453 4.04457 15.0907 4.35531 15.157 4.68699L16.608 11.942C16.6823 12.3133 16.8604 12.6558 17.1217 12.9299C17.383 13.2039 17.7167 13.3981 18.084 13.49L19.78 13.914C20.1541 14.0075 20.4778 14.2415 20.684 14.5673C20.8901 14.8932 20.9628 15.2859 20.887 15.664L20.193 19.133C20.1388 19.4037 20.029 19.6603 19.8707 19.8866C19.7123 20.1128 19.5088 20.3038 19.273 20.4476C19.0373 20.5913 18.7742 20.6846 18.5006 20.7217C18.2269 20.7588 17.9486 20.7388 17.683 20.663L14.626 19.79C13.5768 19.4908 12.6544 18.8561 12 17.983C11.3456 18.856 10.4233 19.4907 9.37405 19.79L6.31705 20.664C6.05144 20.7398 5.77301 20.7597 5.4993 20.7226C5.2256 20.6855 4.96255 20.592 4.72674 20.4482C4.49093 20.3044 4.28747 20.1133 4.12919 19.8869C3.9709 19.6605 3.86122 19.4038 3.80705 19.133L3.11305 15.663C3.03756 15.2851 3.11042 14.8926 3.31653 14.5669C3.52264 14.2413 3.84618 14.0075 4.22005 13.914L5.91605 13.49C6.28337 13.3981 6.61708 13.2039 6.87837 12.9299C7.13965 12.6558 7.31779 12.3133 7.39205 11.942L8.84305 4.68699ZM6.19305 15.482L5.16805 15.739L5.76805 18.741L6.84905 18.431L6.19305 15.482ZM17.806 15.482L17.151 18.432L18.232 18.741L18.832 15.739L17.806 15.482Z" fill="currentColor"/>
</svg>
