<svg width="24" height="24" viewBox="0 0 24 24" fill="none" xmlns="http://www.w3.org/2000/svg">
<path d="M7 2C6.20435 2 5.44129 2.31607 4.87868 2.87868C4.31607 3.44129 4 4.20435 4 5V12C4 12.7956 4.31607 13.5587 4.87868 14.1213C5.44129 14.6839 6.20435 15 7 15H17C17.7956 15 18.5587 14.6839 19.1213 14.1213C19.6839 13.5587 20 12.7956 20 12V5C20 4.20435 19.6839 3.44129 19.1213 2.87868C18.5587 2.31607 17.7956 2 17 2H7ZM9.5 18H14.5L17.2 21.6C17.2788 21.7051 17.3775 21.7936 17.4905 21.8605C17.6035 21.9274 17.7286 21.9714 17.8586 21.99C17.9886 22.0085 18.121 22.0013 18.2482 21.9687C18.3754 21.9361 18.4949 21.8788 18.6 21.8C18.7051 21.7212 18.7936 21.6225 18.8605 21.5095C18.9274 21.3965 18.9714 21.2714 18.99 21.1414C19.0085 21.0114 19.0013 20.879 18.9687 20.7518C18.9361 20.6246 18.8788 20.5051 18.8 20.4L17 18H20C20.2652 18 20.5196 17.8946 20.7071 17.7071C20.8946 17.5196 21 17.2652 21 17C21 16.7348 20.8946 16.4804 20.7071 16.2929C20.5196 16.1054 20.2652 16 20 16H4C3.73478 16 3.48043 16.1054 3.29289 16.2929C3.10536 16.4804 3 16.7348 3 17C3 17.2652 3.10536 17.5196 3.29289 17.7071C3.48043 17.8946 3.73478 18 4 18H7L5.2 20.4C5.12121 20.5051 5.06388 20.6246 5.03129 20.7518C4.99869 20.879 4.99148 21.0114 5.01005 21.1414C5.02862 21.2714 5.07262 21.3965 5.13953 21.5095C5.20643 21.6225 5.29494 21.7212 5.4 21.8C5.50506 21.8788 5.62461 21.9361 5.75182 21.9687C5.87903 22.0013 6.01142 22.0085 6.14142 21.99C6.27142 21.9714 6.39649 21.9274 6.50949 21.8605C6.62249 21.7936 6.72121 21.7051 6.8 21.6L9.5 18Z" fill="currentColor"/>
</svg>
