<svg width="24" height="24" viewBox="0 0 24 24" fill="none" xmlns="http://www.w3.org/2000/svg">
<path fill-rule="evenodd" clip-rule="evenodd" d="M2 4C2 3.73478 2.10536 3.48043 2.29289 3.29289C2.48043 3.10536 2.73478 3 3 3H21C21.2652 3 21.5196 3.10536 21.7071 3.29289C21.8946 3.48043 22 3.73478 22 4C22 4.26522 21.8946 4.51957 21.7071 4.70711C21.5196 4.89464 21.2652 5 21 5V16C21 16.5304 20.7893 17.0391 20.4142 17.4142C20.0391 17.7893 19.5304 18 19 18H13.945L16.238 20.293C16.4202 20.4816 16.521 20.7342 16.5187 20.9964C16.5164 21.2586 16.4112 21.5094 16.2258 21.6948C16.0404 21.8802 15.7896 21.9854 15.5274 21.9877C15.2652 21.99 15.0126 21.8892 14.824 21.707L11.996 18.879L9.167 21.707C8.9784 21.8892 8.7258 21.99 8.4636 21.9877C8.2014 21.9854 7.95059 21.8802 7.76518 21.6948C7.57977 21.5094 7.4746 21.2586 7.47233 20.9964C7.47005 20.7342 7.57084 20.4816 7.753 20.293L10.046 18H5C4.46957 18 3.96086 17.7893 3.58579 17.4142C3.21071 17.0391 3 16.5304 3 16V5C2.73478 5 2.48043 4.89464 2.29289 4.70711C2.10536 4.51957 2 4.26522 2 4ZM16.243 7.172C16.4316 6.98984 16.6842 6.88905 16.9464 6.89133C17.2086 6.8936 17.4594 6.99877 17.6448 7.18418C17.8302 7.36959 17.9354 7.6204 17.9377 7.8826C17.94 8.1448 17.8392 8.3974 17.657 8.586L13.421 12.822C13.2316 13.0113 12.9748 13.1176 12.707 13.1176C12.4392 13.1176 12.1824 13.0113 11.993 12.822L9.88 10.709L7.759 12.829C7.57053 13.0113 7.318 13.1123 7.05579 13.1102C6.79359 13.1081 6.5427 13.0031 6.35716 12.8178C6.17162 12.6325 6.06628 12.3818 6.06381 12.1196C6.06135 11.8574 6.16197 11.6047 6.344 11.416L9.166 8.594C9.3554 8.4047 9.61222 8.29836 9.88 8.29836C10.1478 8.29836 10.4046 8.4047 10.594 8.594L12.707 10.707L16.243 7.172Z" fill="currentColor"/>
</svg>
