<svg width="24" height="24" viewBox="0 0 24 24" fill="none" xmlns="http://www.w3.org/2000/svg">
<path d="M21 3C21.2652 3 21.5196 3.10536 21.7071 3.29289C21.8946 3.48043 22 3.73478 22 4C22 4.26522 21.8946 4.51957 21.7071 4.70711C21.5196 4.89464 21.2652 5 21 5V16C21 16.5304 20.7893 17.0391 20.4142 17.4142C20.0391 17.7893 19.5304 18 19 18H13.945L16.238 20.293C16.4202 20.4816 16.521 20.7342 16.5187 20.9964C16.5164 21.2586 16.4112 21.5094 16.2258 21.6948C16.0404 21.8802 15.7896 21.9854 15.5274 21.9877C15.2652 21.99 15.0126 21.8892 14.824 21.707L11.996 18.879L9.167 21.707C8.9784 21.8892 8.7258 21.99 8.4636 21.9877C8.2014 21.9854 7.95059 21.8802 7.76518 21.6948C7.57977 21.5094 7.4746 21.2586 7.47233 20.9964C7.47005 20.7342 7.57084 20.4816 7.753 20.293L10.046 18H5C4.46957 18 3.96086 17.7893 3.58579 17.4142C3.21071 17.0391 3 16.5304 3 16V5C2.73478 5 2.48043 4.89464 2.29289 4.70711C2.10536 4.51957 2 4.26522 2 4C2 3.73478 2.10536 3.48043 2.29289 3.29289C2.48043 3.10536 2.73478 3 3 3H21ZM16 7C15.7551 7.00003 15.5187 7.08996 15.3356 7.25272C15.1526 7.41547 15.0357 7.63975 15.007 7.883L15 8V13C15.0003 13.2549 15.0979 13.5 15.2728 13.6854C15.4478 13.8707 15.687 13.9822 15.9414 13.9972C16.1958 14.0121 16.4464 13.9293 16.6418 13.7657C16.8373 13.6021 16.9629 13.3701 16.993 13.117L17 13V8C17 7.73478 16.8946 7.48043 16.7071 7.29289C16.5196 7.10536 16.2652 7 16 7ZM12 9C11.7348 9 11.4804 9.10536 11.2929 9.29289C11.1054 9.48043 11 9.73478 11 10V13C11 13.2652 11.1054 13.5196 11.2929 13.7071C11.4804 13.8946 11.7348 14 12 14C12.2652 14 12.5196 13.8946 12.7071 13.7071C12.8946 13.5196 13 13.2652 13 13V10C13 9.73478 12.8946 9.48043 12.7071 9.29289C12.5196 9.10536 12.2652 9 12 9ZM8 11C7.73478 11 7.48043 11.1054 7.29289 11.2929C7.10536 11.4804 7 11.7348 7 12V13C7 13.2652 7.10536 13.5196 7.29289 13.7071C7.48043 13.8946 7.73478 14 8 14C8.26522 14 8.51957 13.8946 8.70711 13.7071C8.89464 13.5196 9 13.2652 9 13V12C9 11.7348 8.89464 11.4804 8.70711 11.2929C8.51957 11.1054 8.26522 11 8 11Z" fill="currentColor"/>
</svg>
