<svg width="24" height="24" viewBox="0 0 24 24" fill="none" xmlns="http://www.w3.org/2000/svg">
<path fill-rule="evenodd" clip-rule="evenodd" d="M8.379 12.5H7.5V17C7.5 17.3978 7.34196 17.7794 7.06066 18.0607C6.77936 18.342 6.39782 18.5 6 18.5C5.60218 18.5 5.22064 18.342 4.93934 18.0607C4.65804 17.7794 4.5 17.3978 4.5 17V5C4.5 4.33696 4.76339 3.70108 5.23223 3.23223C5.70107 2.76339 6.33696 2.5 7 2.5H11.5C12.7381 2.49913 13.9325 2.95765 14.852 3.7868C15.7714 4.61594 16.3506 5.75674 16.4773 6.98835C16.604 8.21996 16.2692 9.45477 15.5378 10.4537C14.8064 11.4527 13.7304 12.1448 12.518 12.396L15 14.88L16.94 12.94C17.223 12.6669 17.602 12.5159 17.9953 12.5195C18.3886 12.5231 18.7647 12.681 19.0427 12.9593C19.3207 13.2375 19.4783 13.6138 19.4815 14.0071C19.4847 14.4004 19.3334 14.7792 19.06 15.062L17.122 17L19.062 18.94C19.3351 19.223 19.4861 19.602 19.4825 19.9953C19.4789 20.3886 19.321 20.7647 19.0427 21.0427C18.7645 21.3207 18.3882 21.4783 17.9949 21.4815C17.6016 21.4847 17.2228 21.3334 16.94 21.06L15 19.122L13.06 21.062C12.777 21.3351 12.398 21.4861 12.0047 21.4825C11.6114 21.4789 11.2353 21.321 10.9573 21.0427C10.6793 20.7645 10.5217 20.3882 10.5185 19.9949C10.5153 19.6016 10.6666 19.2228 10.94 18.94L12.878 17L8.379 12.5ZM7.5 9.5V5.5H11.5C12.0304 5.5 12.5391 5.71071 12.9142 6.08579C13.2893 6.46086 13.5 6.96957 13.5 7.5C13.5 8.03043 13.2893 8.53914 12.9142 8.91421C12.5391 9.28929 12.0304 9.5 11.5 9.5H7.5Z" fill="currentColor"/>
</svg>
