<svg width="24" height="24" viewBox="0 0 24 24" fill="none" xmlns="http://www.w3.org/2000/svg">
<path d="M15 4C15.2652 4 15.5196 4.10536 15.7071 4.29289C15.8946 4.48043 16 4.73478 16 5C16 5.26522 15.8946 5.51957 15.7071 5.70711C15.5196 5.89464 15.2652 6 15 6H13V8H19C19.7956 8 20.5587 8.31607 21.1213 8.87868C21.6839 9.44129 22 10.2044 22 11V17C22 17.7956 21.6839 18.5587 21.1213 19.1213C20.5587 19.6839 19.7956 20 19 20H5C4.20435 20 3.44129 19.6839 2.87868 19.1213C2.31607 18.5587 2 17.7956 2 17V11C2 10.2044 2.31607 9.44129 2.87868 8.87868C3.44129 8.31607 4.20435 8 5 8H11V6H9C8.73478 6 8.48043 5.89464 8.29289 5.70711C8.10536 5.51957 8 5.26522 8 5C8 4.73478 8.10536 4.48043 8.29289 4.29289C8.48043 4.10536 8.73478 4 9 4H15ZM16 11C15.606 11 15.2159 11.0776 14.8519 11.2284C14.488 11.3791 14.1573 11.6001 13.8787 11.8787C13.6001 12.1573 13.3791 12.488 13.2284 12.8519C13.0776 13.2159 13 13.606 13 14C13 14.394 13.0776 14.7841 13.2284 15.1481C13.3791 15.512 13.6001 15.8427 13.8787 16.1213C14.1573 16.3999 14.488 16.6209 14.8519 16.7716C15.2159 16.9224 15.606 17 16 17C16.7956 17 17.5587 16.6839 18.1213 16.1213C18.6839 15.5587 19 14.7956 19 14C19 13.2044 18.6839 12.4413 18.1213 11.8787C17.5587 11.3161 16.7956 11 16 11ZM16 13C16.2652 13 16.5196 13.1054 16.7071 13.2929C16.8946 13.4804 17 13.7348 17 14C17 14.2652 16.8946 14.5196 16.7071 14.7071C16.5196 14.8946 16.2652 15 16 15C15.7348 15 15.4804 14.8946 15.2929 14.7071C15.1054 14.5196 15 14.2652 15 14C15 13.7348 15.1054 13.4804 15.2929 13.2929C15.4804 13.1054 15.7348 13 16 13ZM8 12H5C4.74512 12.0003 4.49997 12.0979 4.31463 12.2728C4.1293 12.4478 4.01777 12.687 4.00283 12.9414C3.98789 13.1958 4.07067 13.4464 4.23426 13.6418C4.39786 13.8373 4.6299 13.9629 4.883 13.993L5 14H8C8.25488 13.9997 8.50003 13.9021 8.68537 13.7272C8.8707 13.5522 8.98224 13.313 8.99717 13.0586C9.01211 12.8042 8.92933 12.5536 8.76574 12.3582C8.60215 12.1627 8.3701 12.0371 8.117 12.007L8 12Z" fill="currentColor"/>
</svg>
