<svg width="24" height="24" viewBox="0 0 24 24" fill="none" xmlns="http://www.w3.org/2000/svg">
<path d="M12.0003 2C10.3936 1.99984 8.8478 2.61505 7.68056 3.71923C6.51333 4.82342 5.81331 6.33271 5.72435 7.937L5.57835 10.567C5.36049 11.0313 5.15542 11.5015 4.96335 11.977C3.72335 15.05 3.23535 17.75 3.87535 18.009C4.21035 18.144 4.78835 17.583 5.44135 16.577C5.70433 17.9514 6.39279 19.2083 7.40935 20.17C6.38235 20.52 5.49935 20.998 5.49935 21.5C5.49935 22.009 7.97935 22.003 9.73835 22H9.73935C10.2883 21.998 10.7493 21.992 11.1193 21.943C11.7035 22.0199 12.2952 22.0199 12.8793 21.943C13.2493 21.993 13.7123 21.998 14.2613 21.999C16.0213 22.003 18.5003 22.009 18.5003 21.5C18.5003 20.998 17.6173 20.521 16.5913 20.17C17.6063 19.2101 18.2943 17.9558 18.5583 16.584C19.2083 17.586 19.7853 18.144 20.1183 18.009C20.7583 17.75 20.2723 15.049 19.0303 11.977C18.8407 11.5066 18.6382 11.0414 18.4233 10.582L18.2763 7.937C18.1874 6.33271 17.4874 4.82342 16.3201 3.71923C15.1529 2.61505 13.6071 1.99984 12.0003 2Z" fill="currentColor"/>
</svg>
