<svg width="24" height="24" viewBox="0 0 24 24" fill="none" xmlns="http://www.w3.org/2000/svg">
<path d="M11 3C11.5046 2.99984 11.9906 3.19041 12.3605 3.5335C12.7305 3.87659 12.9572 4.34684 12.995 4.85L13 5V11C13.0002 11.5046 12.8096 11.9906 12.4665 12.3605C12.1234 12.7305 11.6532 12.9572 11.15 12.995L11 13H5C4.49542 13.0002 4.00943 12.8096 3.63945 12.4665C3.26947 12.1234 3.04284 11.6532 3.005 11.15L3 11V5C2.99984 4.49542 3.19041 4.00943 3.5335 3.63945C3.87659 3.26947 4.34684 3.04284 4.85 3.005L5 3H11ZM11 5H5V11H11V5ZM9.5 6C9.61703 5.99996 9.73036 6.04097 9.82026 6.11589C9.91016 6.19081 9.97093 6.29489 9.992 6.41L10 6.5V9.5C10 9.61703 9.95903 9.73036 9.88411 9.82026C9.80919 9.91016 9.70511 9.97093 9.59 9.992L9.5 10H6.5C6.38297 10 6.26964 9.95903 6.17974 9.88411C6.08984 9.80919 6.02906 9.70511 6.008 9.59L6 9.5V6.5C5.99996 6.38297 6.04097 6.26964 6.11589 6.17974C6.19081 6.08984 6.29489 6.02906 6.41 6.008L6.5 6H9.5ZM21 5C21 4.46957 20.7893 3.96086 20.4142 3.58579C20.0391 3.21071 19.5304 3 19 3H17C16.4696 3 15.9609 3.21071 15.5858 3.58579C15.2107 3.96086 15 4.46957 15 5V7C15 7.53043 15.2107 8.03914 15.5858 8.41421C15.9609 8.78929 16.4696 9 17 9H19C19.5304 9 20.0391 8.78929 20.4142 8.41421C20.7893 8.03914 21 7.53043 21 7V5ZM3 17C3 16.4696 3.21071 15.9609 3.58579 15.5858C3.96086 15.2107 4.46957 15 5 15H7C7.53043 15 8.03914 15.2107 8.41421 15.5858C8.78929 15.9609 9 16.4696 9 17V19C9 19.5304 8.78929 20.0391 8.41421 20.4142C8.03914 20.7893 7.53043 21 7 21H5C4.46957 21 3.96086 20.7893 3.58579 20.4142C3.21071 20.0391 3 19.5304 3 19V17ZM19 15C19.5304 15 20.0391 15.2107 20.4142 15.5858C20.7893 15.9609 21 16.4696 21 17V19C21 19.5304 20.7893 20.0391 20.4142 20.4142C20.0391 20.7893 19.5304 21 19 21H17C16.4696 21 15.9609 20.7893 15.5858 20.4142C15.2107 20.0391 15 19.5304 15 19V17C15 16.4696 15.2107 15.9609 15.5858 15.5858C15.9609 15.2107 16.4696 15 17 15H19ZM15 12C15 11.7348 15.1054 11.4804 15.2929 11.2929C15.4804 11.1054 15.7348 11 16 11H20C20.2652 11 20.5196 11.1054 20.7071 11.2929C20.8946 11.4804 21 11.7348 21 12C21 12.2652 20.8946 12.5196 20.7071 12.7071C20.5196 12.8946 20.2652 13 20 13H16C15.7348 13 15.4804 12.8946 15.2929 12.7071C15.1054 12.5196 15 12.2652 15 12ZM13 16C13 15.7348 12.8946 15.4804 12.7071 15.2929C12.5196 15.1054 12.2652 15 12 15C11.7348 15 11.4804 15.1054 11.2929 15.2929C11.1054 15.4804 11 15.7348 11 16V20C11 20.2652 11.1054 20.5196 11.2929 20.7071C11.4804 20.8946 11.7348 21 12 21C12.2652 21 12.5196 20.8946 12.7071 20.7071C12.8946 20.5196 13 20.2652 13 20V16Z" fill="currentColor"/>
</svg>
