<svg width="24" height="24" viewBox="0 0 24 24" fill="none" xmlns="http://www.w3.org/2000/svg">
<path fill-rule="evenodd" clip-rule="evenodd" d="M6.81 17.844C6.778 18.091 6.537 20.573 6.5 21C6.453 21.54 6.052 22 5.5 22C5.23478 22 4.98043 21.8946 4.79289 21.7071C4.60536 21.5195 4.5 21.2652 4.5 21C4.5 20.429 4.616 19.33 4.721 18.44C4.926 16.708 5.167 15.013 5.708 13.35C6.333 11.43 7.458 8.97097 9.465 6.96397C13.399 3.02997 19.117 2.44897 19.262 2.43397C19.4459 2.41553 19.6313 2.44816 19.7978 2.52825C19.9644 2.60835 20.1056 2.73282 20.206 2.88797C21.197 4.37797 20.953 6.59797 19.739 7.89497C19.7522 8.01909 19.742 8.14459 19.709 8.26497C19.5106 8.99372 19.2599 9.70723 18.959 10.4C18.408 11.663 17.631 12.94 16.536 14.036C14.486 16.086 11.794 17.027 9.692 17.466C8.74184 17.6641 7.77912 17.7904 6.81 17.844Z" fill="currentColor"/>
</svg>
