<svg width="24" height="24" viewBox="0 0 24 24" fill="none" xmlns="http://www.w3.org/2000/svg">
<path d="M20.262 2.434C20.4459 2.41557 20.6313 2.44819 20.7978 2.52829C20.9644 2.60838 21.1056 2.73285 21.206 2.888C22.197 4.378 21.953 6.598 20.739 7.895C20.7522 8.01912 20.742 8.14462 20.709 8.265C20.5106 8.99375 20.2599 9.70726 19.959 10.4C19.408 11.663 18.631 12.94 17.536 14.036C15.486 16.086 12.794 17.027 10.692 17.466C10.1985 17.5688 9.70109 17.6522 9.20101 17.716L8.68101 17.776L8.21501 17.817C8.06901 17.828 7.93401 17.837 7.80901 17.844L7.70801 18.674L7.64401 19.267L7.61701 19.557L7.50001 21C7.45301 21.54 7.05201 22 6.50001 22C6.2348 22 5.98044 21.8946 5.79291 21.7071C5.60537 21.5196 5.50001 21.2652 5.50001 21C5.50001 20.844 5.50901 20.65 5.52301 20.43L5.56001 19.963L5.60801 19.458L5.69301 18.688L5.72101 18.44C5.92601 16.708 6.16701 15.013 6.70801 13.35C7.33301 11.43 8.45801 8.971 10.464 6.964C12.038 5.391 13.897 4.354 15.571 3.674L16.023 3.498L16.463 3.338C16.535 3.313 16.607 3.288 16.678 3.265L17.098 3.129L17.5 3.009L18.068 2.854L18.587 2.728L18.902 2.659L19.448 2.554L20.025 2.463L20.262 2.434ZM5.00001 1C5.18709 1 5.37042 1.05248 5.52916 1.15147C5.68791 1.25046 5.8157 1.392 5.89801 1.56L5.94601 1.677L6.07601 2.055C6.21321 2.45718 6.43429 2.82563 6.72461 3.13594C7.01492 3.44625 7.36785 3.69135 7.76001 3.855L7.94501 3.925L8.32301 4.054C8.51015 4.11797 8.67411 4.236 8.79418 4.39316C8.91424 4.55031 8.98501 4.73954 8.99753 4.93691C9.01005 5.13429 8.96377 5.33094 8.86453 5.50201C8.7653 5.67308 8.61756 5.81089 8.44001 5.898L8.32301 5.946L7.94501 6.076C7.54283 6.2132 7.17438 6.43428 6.86407 6.72459C6.55376 7.01491 6.30866 7.36783 6.14501 7.76L6.07501 7.945L5.94601 8.323C5.88204 8.51014 5.76401 8.6741 5.60685 8.79416C5.4497 8.91423 5.26047 8.98499 5.0631 8.99752C4.86572 9.01004 4.66907 8.96376 4.498 8.86452C4.32693 8.76528 4.18913 8.61755 4.10201 8.44L4.05401 8.323L3.92401 7.945C3.78681 7.54282 3.56573 7.17437 3.27542 6.86406C2.9851 6.55375 2.63218 6.30865 2.24001 6.145L2.05501 6.075L1.67701 5.946C1.48987 5.88203 1.32591 5.764 1.20585 5.60684C1.08579 5.44969 1.01502 5.26046 1.0025 5.06309C0.989972 4.86571 1.03626 4.66906 1.13549 4.49799C1.23473 4.32692 1.38246 4.18911 1.56001 4.102L1.67701 4.054L2.05501 3.924C2.4572 3.7868 2.82564 3.56572 3.13595 3.27541C3.44627 2.98509 3.69136 2.63217 3.85501 2.24L3.92501 2.055L4.05401 1.677C4.12139 1.47959 4.24881 1.30818 4.41844 1.18679C4.58807 1.06539 4.79142 1.00008 5.00001 1Z" fill="currentColor"/>
</svg>
