<svg width="24" height="24" viewBox="0 0 24 24" fill="none" xmlns="http://www.w3.org/2000/svg">
<path fill-rule="evenodd" clip-rule="evenodd" d="M12 11.054C12 7.49999 11 4.99999 10.074 3.73399C9.346 2.82699 8.309 2.13499 7.134 2.44999C5.96 2.76399 5.408 3.88199 5.231 5.03199C5.049 6.21999 5.193 7.76199 5.678 9.56899C5.97475 10.6704 6.35691 11.747 6.821 12.789C5.728 13.731 5 15.02 5 16.5C5 18.128 5.882 19.526 7.157 20.482C8.432 21.438 10.147 22 12 22C13.852 22 15.568 21.438 16.843 20.482C18.118 19.526 19 18.128 19 16.5C19 15.018 18.272 13.731 17.18 12.79C17.6438 11.748 18.0256 10.6714 18.322 9.56999C18.807 7.76299 18.951 6.21999 18.769 5.03199C18.592 3.88199 18.04 2.76399 16.866 2.44999C15.691 2.13499 14.654 2.82699 13.926 3.73399C13 4.99999 12 7.49999 12 11.054ZM10.583 16.994C10.5045 16.768 10.4812 16.5265 10.5151 16.2896C10.549 16.0528 10.639 15.8274 10.7777 15.6325C10.9164 15.4375 11.0997 15.2786 11.3123 15.1689C11.525 15.0592 11.7607 15.0019 12 15.0019C12.2393 15.0019 12.475 15.0592 12.6877 15.1689C12.9003 15.2786 13.0836 15.4375 13.2223 15.6325C13.361 15.8274 13.451 16.0528 13.4849 16.2896C13.5188 16.5265 13.4955 16.768 13.417 16.994C13.4445 16.9983 13.4722 17.0003 13.5 17C13.7652 17 14.0196 17.1053 14.2071 17.2929C14.3946 17.4804 14.5 17.7348 14.5 18C14.5 18.2652 14.3946 18.5196 14.2071 18.7071C14.0196 18.8946 13.7652 19 13.5 19C12.959 19.0007 12.4324 18.8252 12 18.5C11.5676 18.8252 11.041 19.0007 10.5 19C10.2348 19 9.98043 18.8946 9.79289 18.7071C9.60536 18.5196 9.5 18.2652 9.5 18C9.5 17.7348 9.60536 17.4804 9.79289 17.2929C9.98043 17.1053 10.2348 17 10.5 17C10.5278 17 10.5556 16.9986 10.583 16.994Z" fill="currentColor"/>
</svg>
