<svg width="24" height="24" viewBox="0 0 24 24" fill="none" xmlns="http://www.w3.org/2000/svg">
<path d="M4.57501 4.57506C4.71434 4.43572 4.87975 4.3252 5.0618 4.24979C5.24384 4.17439 5.43896 4.13558 5.63601 4.13558C5.83305 4.13558 6.02817 4.17439 6.21022 4.24979C6.39226 4.3252 6.55767 4.43572 6.69701 4.57506C6.83634 4.71439 6.94686 4.8798 7.02227 5.06185C7.09768 5.24389 7.13649 5.43901 7.13649 5.63606C7.13649 5.8331 7.09768 6.02822 7.02227 6.21026C6.94686 6.39231 6.83634 6.55772 6.69701 6.69706C5.99931 7.39251 5.44602 8.21907 5.06897 9.12917C4.69192 10.0393 4.49856 11.0149 4.50001 12.0001C4.49845 12.9852 4.69176 13.9609 5.06881 14.871C5.44587 15.7811 5.99922 16.6077 6.69701 17.3031C6.9784 17.5844 7.13649 17.9661 7.13649 18.3641C7.13649 18.762 6.9784 19.1437 6.69701 19.4251C6.55767 19.5644 6.39226 19.6749 6.21022 19.7503C6.02817 19.8257 5.83305 19.8645 5.63601 19.8645C5.23806 19.8645 4.8564 19.7064 4.57501 19.4251C3.59877 18.4509 2.82458 17.2935 2.29689 16.0193C1.76919 14.7451 1.49838 13.3792 1.50001 12.0001C1.50001 9.10006 2.67701 6.47406 4.57501 4.57506ZM17.303 4.57506C17.4423 4.43567 17.6077 4.32509 17.7898 4.24965C17.9718 4.17421 18.1669 4.13538 18.364 4.13538C18.5611 4.13538 18.7562 4.17421 18.9383 4.24965C19.1203 4.32509 19.2857 4.43567 19.425 4.57506C20.4012 5.54923 21.1754 6.70664 21.7031 7.98083C22.2308 9.25503 22.5016 10.6209 22.5 12.0001C22.5 14.9001 21.323 17.5261 19.425 19.4251C19.1436 19.7064 18.762 19.8645 18.364 19.8645C17.9661 19.8645 17.5844 19.7064 17.303 19.4251C17.0216 19.1437 16.8635 18.762 16.8635 18.3641C16.8635 17.9661 17.0216 17.5844 17.303 17.3031C18.0007 16.6076 18.554 15.781 18.931 14.8709C19.3081 13.9608 19.5015 12.9852 19.5 12.0001C19.5015 11.0149 19.3081 10.0393 18.931 9.12917C18.554 8.21907 18.0007 7.39251 17.303 6.69706C17.1636 6.55776 17.053 6.39235 16.9776 6.2103C16.9022 6.02825 16.8633 5.83312 16.8633 5.63606C16.8633 5.43899 16.9022 5.24386 16.9776 5.06181C17.053 4.87976 17.1636 4.71436 17.303 4.57506ZM9.52501 7.40406C9.80621 7.68535 9.96419 8.06681 9.96419 8.46456C9.96419 8.8623 9.80621 9.24376 9.52501 9.52506C9.1993 9.84956 8.94104 10.2353 8.76512 10.6601C8.5892 11.0849 8.4991 11.5403 8.50001 12.0001C8.50001 12.9121 8.84701 13.7411 9.42001 14.3651L9.56801 14.5171C9.71049 14.6538 9.82458 14.8172 9.90374 14.9981C9.98289 15.179 10.0256 15.3738 10.0293 15.5712C10.033 15.7686 9.9977 15.9648 9.92542 16.1486C9.85314 16.3323 9.74528 16.5 9.60805 16.642C9.47082 16.7839 9.30691 16.8974 9.12572 16.9759C8.94453 17.0544 8.74963 17.0963 8.55219 17.0993C8.35476 17.1023 8.15868 17.0662 7.9752 16.9933C7.79173 16.9203 7.62446 16.8118 7.48301 16.6741C6.85508 16.0684 6.3558 15.3423 6.01507 14.5392C5.67434 13.7361 5.49916 12.8725 5.50001 12.0001C5.50001 10.2061 6.23001 8.57806 7.40401 7.40406C7.6853 7.12285 8.06676 6.96488 8.46451 6.96488C8.86225 6.96488 9.24372 7.12285 9.52501 7.40406ZM16.639 7.44706C17.8332 8.6614 18.5017 10.2969 18.5 12.0001C18.5 13.7941 17.77 15.4221 16.596 16.5961C16.4576 16.7393 16.2921 16.8536 16.1091 16.9322C15.9261 17.0108 15.7293 17.0522 15.5301 17.0539C15.3309 17.0557 15.1334 17.0177 14.9491 16.9423C14.7647 16.8669 14.5973 16.7555 14.4564 16.6146C14.3156 16.4738 14.2042 16.3063 14.1288 16.122C14.0534 15.9376 14.0154 15.7401 14.0171 15.541C14.0189 15.3418 14.0602 15.145 14.1389 14.9619C14.2175 14.7789 14.3317 14.6134 14.475 14.4751C14.8007 14.1506 15.059 13.7648 15.2349 13.34C15.4108 12.9152 15.5009 12.4598 15.5 12.0001C15.5 11.0451 15.12 10.1811 14.498 9.54806C14.354 9.40886 14.2393 9.24223 14.1607 9.058C14.0821 8.87376 14.0412 8.67565 14.0404 8.47536C14.0397 8.27506 14.079 8.07664 14.1561 7.89179C14.2333 7.70694 14.3466 7.53942 14.4896 7.3991C14.6325 7.25877 14.8021 7.1485 14.9883 7.07477C15.1745 7.00105 15.3737 6.96537 15.5739 6.96984C15.7742 6.97431 15.9715 7.01884 16.1542 7.1008C16.337 7.18276 16.5025 7.3005 16.639 7.44706ZM12 10.0001C12.5304 10.0001 13.0391 10.2108 13.4142 10.5858C13.7893 10.9609 14 11.4696 14 12.0001C14 12.5305 13.7893 13.0392 13.4142 13.4143C13.0391 13.7893 12.5304 14.0001 12 14.0001C11.4696 14.0001 10.9609 13.7893 10.5858 13.4143C10.2107 13.0392 10 12.5305 10 12.0001C10 11.4696 10.2107 10.9609 10.5858 10.5858C10.9609 10.2108 11.4696 10.0001 12 10.0001Z" fill="currentColor"/>
</svg>
