<svg width="24" height="24" viewBox="0 0 24 24" fill="none" xmlns="http://www.w3.org/2000/svg">
<path d="M8.704 3.01198L19.66 6.99998H20C20.5304 6.99998 21.0391 7.21069 21.4142 7.58576C21.7893 7.96084 22 8.46955 22 8.99998V19C22 19.5304 21.7893 20.0391 21.4142 20.4142C21.0391 20.7893 20.5304 21 20 21H4C3.46957 21 2.96086 20.7893 2.58579 20.4142C2.21071 20.0391 2 19.5304 2 19V8.99998C2 8.46955 2.21071 7.96084 2.58579 7.58576C2.96086 7.21069 3.46957 6.99998 4 6.99998H13.813L8.02 4.88998C7.89421 4.84693 7.77826 4.77923 7.67895 4.69084C7.57964 4.60245 7.49894 4.49514 7.4416 4.37519C7.38425 4.25524 7.35139 4.12506 7.34496 3.99226C7.33852 3.85946 7.35863 3.72672 7.40411 3.60178C7.44959 3.47685 7.51952 3.36224 7.60982 3.26466C7.70012 3.16708 7.80898 3.08848 7.93001 3.03347C8.05105 2.97845 8.18185 2.94813 8.31474 2.94427C8.44764 2.94041 8.57997 2.96309 8.704 3.01098V3.01198ZM15 11C14.606 11 14.2159 11.0776 13.8519 11.2283C13.488 11.3791 13.1573 11.6001 12.8787 11.8787C12.6001 12.1572 12.3791 12.488 12.2284 12.8519C12.0776 13.2159 12 13.606 12 14C12 14.3939 12.0776 14.7841 12.2284 15.148C12.3791 15.512 12.6001 15.8427 12.8787 16.1213C13.1573 16.3999 13.488 16.6209 13.8519 16.7716C14.2159 16.9224 14.606 17 15 17C15.7956 17 16.5587 16.6839 17.1213 16.1213C17.6839 15.5587 18 14.7956 18 14C18 13.2043 17.6839 12.4413 17.1213 11.8787C16.5587 11.316 15.7956 11 15 11ZM10 15H7C6.73478 15 6.48043 15.1053 6.29289 15.2929C6.10536 15.4804 6 15.7348 6 16C6 16.2652 6.10536 16.5195 6.29289 16.7071C6.48043 16.8946 6.73478 17 7 17H10C10.2652 17 10.5196 16.8946 10.7071 16.7071C10.8946 16.5195 11 16.2652 11 16C11 15.7348 10.8946 15.4804 10.7071 15.2929C10.5196 15.1053 10.2652 15 10 15ZM15 13C15.2652 13 15.5196 13.1053 15.7071 13.2929C15.8946 13.4804 16 13.7348 16 14C16 14.2652 15.8946 14.5195 15.7071 14.7071C15.5196 14.8946 15.2652 15 15 15C14.7348 15 14.4804 14.8946 14.2929 14.7071C14.1054 14.5195 14 14.2652 14 14C14 13.7348 14.1054 13.4804 14.2929 13.2929C14.4804 13.1053 14.7348 13 15 13ZM8 12H7C6.73478 12 6.48043 12.1053 6.29289 12.2929C6.10536 12.4804 6 12.7348 6 13C6 13.2652 6.10536 13.5195 6.29289 13.7071C6.48043 13.8946 6.73478 14 7 14H8C8.26522 14 8.51957 13.8946 8.70711 13.7071C8.89464 13.5195 9 13.2652 9 13C9 12.7348 8.89464 12.4804 8.70711 12.2929C8.51957 12.1053 8.26522 12 8 12Z" fill="currentColor"/>
</svg>
