<svg width="24" height="24" viewBox="0 0 24 24" fill="none" xmlns="http://www.w3.org/2000/svg">
<path fill-rule="evenodd" clip-rule="evenodd" d="M12 7.5C9.74566 7.5 7.58365 8.39553 5.98959 9.98959C4.39553 11.5837 3.5 13.7457 3.5 16V17C3.5 17.3978 3.34196 17.7794 3.06066 18.0607C2.77936 18.342 2.39782 18.5 2 18.5C1.60218 18.5 1.22064 18.342 0.93934 18.0607C0.658035 17.7794 0.5 17.3978 0.5 17V16C0.5 9.649 5.649 4.5 12 4.5C18.351 4.5 23.5 9.649 23.5 16V17C23.5 17.3978 23.342 17.7794 23.0607 18.0607C22.7794 18.342 22.3978 18.5 22 18.5C21.6022 18.5 21.2206 18.342 20.9393 18.0607C20.658 17.7794 20.5 17.3978 20.5 17V16C20.5 13.7457 19.6045 11.5837 18.0104 9.98959C16.4163 8.39553 14.2543 7.5 12 7.5ZM12 11.5C10.8065 11.5 9.66193 11.9741 8.81802 12.818C7.97411 13.6619 7.5 14.8065 7.5 16V17C7.5 17.3978 7.34196 17.7794 7.06066 18.0607C6.77936 18.342 6.39782 18.5 6 18.5C5.60218 18.5 5.22064 18.342 4.93934 18.0607C4.65804 17.7794 4.5 17.3978 4.5 17V16C4.5 14.0109 5.29018 12.1032 6.6967 10.6967C8.10322 9.29018 10.0109 8.5 12 8.5C13.9891 8.5 15.8968 9.29018 17.3033 10.6967C18.7098 12.1032 19.5 14.0109 19.5 16V17C19.5 17.3978 19.342 17.7794 19.0607 18.0607C18.7794 18.342 18.3978 18.5 18 18.5C17.6022 18.5 17.2206 18.342 16.9393 18.0607C16.658 17.7794 16.5 17.3978 16.5 17V16C16.5 14.8065 16.0259 13.6619 15.182 12.818C14.3381 11.9741 13.1935 11.5 12 11.5ZM11.5 16C11.5 15.8674 11.5527 15.7402 11.6464 15.6464C11.7402 15.5527 11.8674 15.5 12 15.5C12.1326 15.5 12.2598 15.5527 12.3536 15.6464C12.4473 15.7402 12.5 15.8674 12.5 16V17C12.5 17.3978 12.658 17.7794 12.9393 18.0607C13.2206 18.342 13.6022 18.5 14 18.5C14.3978 18.5 14.7794 18.342 15.0607 18.0607C15.342 17.7794 15.5 17.3978 15.5 17V16C15.5 15.5404 15.4095 15.0852 15.2336 14.6606C15.0577 14.236 14.7999 13.8501 14.4749 13.5251C14.1499 13.2001 13.764 12.9423 13.3394 12.7664C12.9148 12.5905 12.4596 12.5 12 12.5C11.5404 12.5 11.0852 12.5905 10.6606 12.7664C10.236 12.9423 9.85013 13.2001 9.52513 13.5251C9.20012 13.8501 8.94231 14.236 8.76642 14.6606C8.59053 15.0852 8.5 15.5404 8.5 16V17C8.5 17.3978 8.65804 17.7794 8.93934 18.0607C9.22064 18.342 9.60218 18.5 10 18.5C10.3978 18.5 10.7794 18.342 11.0607 18.0607C11.342 17.7794 11.5 17.3978 11.5 17V16Z" fill="currentColor"/>
</svg>
