<svg width="24" height="24" viewBox="0 0 24 24" fill="none" xmlns="http://www.w3.org/2000/svg">
<path d="M16.8689 18.983C16.9958 19.017 17.1147 19.0757 17.2189 19.1556C17.3231 19.2356 17.4105 19.3353 17.4761 19.4491C17.5418 19.5628 17.5844 19.6884 17.6015 19.8186C17.6186 19.9488 17.6099 20.0811 17.5759 20.208L17.3169 21.174C17.2482 21.4302 17.0806 21.6486 16.8508 21.7812C16.6211 21.9138 16.3481 21.9497 16.0919 21.881C15.8357 21.8123 15.6173 21.6447 15.4847 21.4149C15.3521 21.1852 15.3162 20.9122 15.3849 20.656L15.6449 19.69C15.7136 19.434 15.8811 19.2157 16.1106 19.0832C16.3401 18.9506 16.6128 18.9146 16.8689 18.983ZM9.8689 18.983C9.99576 19.017 10.1147 19.0757 10.2189 19.1556C10.3231 19.2356 10.4105 19.3353 10.4761 19.4491C10.5418 19.5628 10.5844 19.6884 10.6015 19.8186C10.6186 19.9488 10.6099 20.0811 10.5759 20.208L10.3169 21.174C10.2482 21.4302 10.0806 21.6486 9.85082 21.7812C9.62109 21.9138 9.3481 21.9497 9.0919 21.881C8.8357 21.8123 8.61728 21.6447 8.48469 21.4149C8.3521 21.1852 8.31621 20.9122 8.3849 20.656L8.6449 19.69C8.71357 19.434 8.88107 19.2157 9.11058 19.0832C9.34009 18.9506 9.61284 18.9146 9.8689 18.983ZM14.0189 16.568C14.2554 16.6316 14.4603 16.7797 14.5949 16.9843C14.7294 17.1888 14.7842 17.4357 14.7489 17.678L14.7259 17.793L14.2079 19.725C14.1413 19.9708 13.9834 20.182 13.7664 20.3154C13.5494 20.4488 13.2897 20.4944 13.0403 20.4428C12.7909 20.3913 12.5705 20.2465 12.4242 20.038C12.2779 19.8296 12.2166 19.5731 12.2529 19.321L12.2759 19.207L12.7939 17.275C12.8279 17.1481 12.8866 17.0292 12.9665 16.925C13.0465 16.8208 13.1462 16.7334 13.2599 16.6678C13.3737 16.6021 13.4993 16.5595 13.6295 16.5424C13.7597 16.5253 13.892 16.534 14.0189 16.568ZM7.0189 16.568C7.14576 16.602 7.26469 16.6607 7.36888 16.7406C7.47307 16.8206 7.56049 16.9203 7.62615 17.0341C7.6918 17.1478 7.7344 17.2734 7.75152 17.4036C7.76863 17.5338 7.75993 17.6661 7.7259 17.793L7.2079 19.725C7.17389 19.8519 7.11522 19.9708 7.03525 20.075C6.95528 20.1791 6.85557 20.2666 6.74182 20.3322C6.62807 20.3979 6.5025 20.4405 6.37229 20.4576C6.24207 20.4747 6.10976 20.466 5.9829 20.432C5.85604 20.398 5.73713 20.3393 5.63294 20.2594C5.52876 20.1794 5.44134 20.0797 5.37569 19.9659C5.31004 19.8522 5.26744 19.7266 5.25032 19.5964C5.23319 19.4662 5.24189 19.3339 5.2759 19.207L5.7939 17.275C5.8279 17.1481 5.88655 17.0292 5.96652 16.925C6.04649 16.8208 6.14619 16.7334 6.25995 16.6678C6.3737 16.6021 6.49928 16.5595 6.6295 16.5424C6.75972 16.5253 6.89204 16.534 7.0189 16.568ZM10.9039 15.119C11.0308 15.153 11.1497 15.2117 11.2539 15.2916C11.3581 15.3716 11.4455 15.4713 11.5111 15.5851C11.5768 15.6988 11.6194 15.8244 11.6365 15.9546C11.6536 16.0848 11.6449 16.2171 11.6109 16.344L11.3519 17.31C11.3208 17.4399 11.2639 17.5623 11.1848 17.6699C11.1056 17.7775 11.0056 17.8681 10.8908 17.9364C10.776 18.0047 10.6487 18.0494 10.5163 18.0677C10.384 18.0859 10.2493 18.0775 10.1203 18.0429C9.99128 18.0083 9.87049 17.9482 9.76508 17.8661C9.65966 17.7841 9.57176 17.6817 9.50657 17.5651C9.44137 17.4485 9.4002 17.32 9.38549 17.1872C9.37077 17.0544 9.38281 16.9201 9.4209 16.792L9.6789 15.826C9.7129 15.6991 9.77155 15.5802 9.85152 15.476C9.93149 15.3718 10.0312 15.2844 10.1449 15.2188C10.2587 15.1531 10.3843 15.1105 10.5145 15.0934C10.6447 15.0763 10.777 15.085 10.9039 15.119ZM17.9039 15.119C18.0308 15.153 18.1497 15.2117 18.2539 15.2916C18.3581 15.3716 18.4455 15.4713 18.5111 15.5851C18.5768 15.6988 18.6194 15.8244 18.6365 15.9546C18.6536 16.0848 18.6449 16.2171 18.6109 16.344L18.3529 17.31C18.2842 17.5662 18.1166 17.7846 17.8868 17.9172C17.6571 18.0498 17.3841 18.0857 17.1279 18.017C16.8717 17.9483 16.6533 17.7807 16.5207 17.5509C16.3881 17.3212 16.3522 17.0482 16.4209 16.792L16.6789 15.826C16.7129 15.6991 16.7716 15.5802 16.8515 15.476C16.9315 15.3718 17.0312 15.2844 17.1449 15.2188C17.2587 15.1531 17.3843 15.1105 17.5145 15.0934C17.6447 15.0763 17.777 15.085 17.9039 15.119ZM11.5009 2C12.8233 1.99987 14.1143 2.40298 15.2017 3.15554C16.2891 3.9081 17.1211 4.97433 17.5869 6.212C18.5524 6.47693 19.4363 6.97918 20.1581 7.673C20.8799 8.36683 21.4166 9.23019 21.7195 10.1845C22.0223 11.1388 22.0817 12.1536 21.892 13.1367C21.7024 14.1198 21.2699 15.0398 20.6339 15.813C20.5744 15.1597 20.3025 14.5438 19.8597 14.0598C19.417 13.5757 18.8278 13.25 18.1823 13.1326C17.5369 13.0152 16.8708 13.1125 16.2859 13.4097C15.701 13.7068 15.2296 14.1875 14.9439 14.778C14.4072 14.5478 13.8153 14.4784 13.2399 14.578C12.9665 14.107 12.5701 13.7193 12.0932 13.4565C11.6163 13.1937 11.0768 13.0656 10.5326 13.086C9.9884 13.1065 9.46005 13.2747 9.00419 13.5726C8.54832 13.8705 8.18214 14.2868 7.9449 14.777C7.54944 14.607 7.12203 14.524 6.69167 14.5338C6.26132 14.5435 5.83811 14.6458 5.45078 14.8337C5.06346 15.0215 4.72109 15.2905 4.44693 15.6223C4.17277 15.9542 3.97325 16.3412 3.8619 16.757V16.892C3.19259 16.3524 2.67372 15.6494 2.35539 14.8508C2.03706 14.0522 1.93002 13.185 2.04462 12.3329C2.15922 11.4809 2.49158 10.6728 3.0096 9.98665C3.52763 9.30052 4.21381 8.75956 5.0019 8.416C5.02399 6.70686 5.71841 5.07521 6.93479 3.87436C8.15118 2.67351 9.79162 2.00012 11.5009 2Z" fill="currentColor"/>
</svg>
