<svg width="24" height="24" viewBox="0 0 24 24" fill="none" xmlns="http://www.w3.org/2000/svg">
<path d="M11.9992 19C12.2644 19 12.5188 19.1054 12.7063 19.2929C12.8939 19.4804 12.9992 19.7348 12.9992 20V21C12.9992 21.2652 12.8939 21.5196 12.7063 21.7071C12.5188 21.8946 12.2644 22 11.9992 22C11.734 22 11.4797 21.8946 11.2921 21.7071C11.1046 21.5196 10.9992 21.2652 10.9992 21V20C10.9992 19.7348 11.1046 19.4804 11.2921 19.2929C11.4797 19.1054 11.734 19 11.9992 19ZM14.9992 17C15.2442 17 15.4806 17.09 15.6636 17.2527C15.8466 17.4155 15.9636 17.6397 15.9922 17.883L15.9992 18V19C15.9989 19.2549 15.9014 19.5 15.7264 19.6854C15.5514 19.8707 15.3123 19.9822 15.0578 19.9972C14.8034 20.0121 14.5529 19.9293 14.3574 19.7657C14.1619 19.6021 14.0363 19.3701 14.0062 19.117L13.9992 19V18C13.9992 17.7348 14.1046 17.4804 14.2921 17.2929C14.4797 17.1054 14.734 17 14.9992 17ZM8.99923 17C9.26445 17 9.5188 17.1054 9.70634 17.2929C9.89387 17.4804 9.99923 17.7348 9.99923 18V19C9.99923 19.2652 9.89387 19.5196 9.70634 19.7071C9.5188 19.8946 9.26445 20 8.99923 20C8.73401 20 8.47966 19.8946 8.29212 19.7071C8.10459 19.5196 7.99923 19.2652 7.99923 19V18C7.99923 17.7348 8.10459 17.4804 8.29212 17.2929C8.47966 17.1054 8.73401 17 8.99923 17ZM11.9992 15C12.2644 15 12.5188 15.1054 12.7063 15.2929C12.8939 15.4804 12.9992 15.7348 12.9992 16V17C12.9992 17.2652 12.8939 17.5196 12.7063 17.7071C12.5188 17.8946 12.2644 18 11.9992 18C11.734 18 11.4797 17.8946 11.2921 17.7071C11.1046 17.5196 10.9992 17.2652 10.9992 17V16C10.9992 15.7348 11.1046 15.4804 11.2921 15.2929C11.4797 15.1054 11.734 15 11.9992 15ZM11.4992 2C12.8216 1.99987 14.1126 2.40298 15.2 3.15554C16.2874 3.9081 17.1195 4.97433 17.5852 6.212C18.7982 6.54462 19.8761 7.24991 20.6666 8.22826C21.4571 9.20661 21.9202 10.4086 21.9906 11.6644C22.061 12.9202 21.7351 14.1664 21.0589 15.227C20.3827 16.2875 19.3905 17.1089 18.2222 17.575L17.9992 17.659V14.5C17.9992 13.8915 17.8406 13.2934 17.5389 12.7649C17.2372 12.2364 16.803 11.7957 16.279 11.4862C15.755 11.1768 15.1594 11.0093 14.5509 11.0003C13.9424 10.9913 13.3421 11.1412 12.8092 11.435C12.5602 11.5687 12.2819 11.6386 11.9992 11.6386C11.7166 11.6386 11.4383 11.5687 11.1892 11.435C10.6705 11.1487 10.0877 10.9988 9.49522 10.9993C8.90278 10.9997 8.32015 11.1506 7.80191 11.4377C7.28368 11.7248 6.8468 12.1387 6.53221 12.6408C6.21762 13.1428 6.03561 13.7164 6.00323 14.308L5.99923 14.5V17.9C4.95827 17.687 4.01219 17.148 3.29809 16.3612C2.584 15.5745 2.139 14.5807 2.02758 13.5241C1.91617 12.4674 2.14412 11.4027 2.67842 10.4843C3.21272 9.56585 4.02559 8.84143 4.99923 8.416C5.02132 6.70669 5.71588 5.07489 6.93248 3.87401C8.14908 2.67313 9.78978 1.99986 11.4992 2ZM8.99923 13C9.26445 13 9.5188 13.1054 9.70634 13.2929C9.89387 13.4804 9.99923 13.7348 9.99923 14V15C9.99923 15.2652 9.89387 15.5196 9.70634 15.7071C9.5188 15.8946 9.26445 16 8.99923 16C8.73401 16 8.47966 15.8946 8.29212 15.7071C8.10459 15.5196 7.99923 15.2652 7.99923 15V14C7.99923 13.7348 8.10459 13.4804 8.29212 13.2929C8.47966 13.1054 8.73401 13 8.99923 13ZM14.9992 13C15.2442 13 15.4806 13.09 15.6636 13.2527C15.8466 13.4155 15.9636 13.6397 15.9922 13.883L15.9992 14V15C15.9989 15.2549 15.9014 15.5 15.7264 15.6854C15.5514 15.8707 15.3123 15.9822 15.0578 15.9972C14.8034 16.0121 14.5529 15.9293 14.3574 15.7657C14.1619 15.6021 14.0363 15.3701 14.0062 15.117L13.9992 15V14C13.9992 13.7348 14.1046 13.4804 14.2921 13.2929C14.4797 13.1054 14.734 13 14.9992 13Z" fill="currentColor"/>
</svg>
