<svg width="24" height="24" viewBox="0 0 24 24" fill="none" xmlns="http://www.w3.org/2000/svg">
<path d="M4.57534 10.94C4.4376 10.7943 4.27205 10.6777 4.08848 10.5971C3.90491 10.5165 3.70704 10.4735 3.50656 10.4707C3.30609 10.4678 3.10708 10.5052 2.9213 10.5806C2.73552 10.656 2.56675 10.7679 2.42494 10.9096C2.28314 11.0513 2.17119 11.2201 2.09571 11.4058C2.02023 11.5915 1.98275 11.7905 1.98549 11.991C1.98823 12.1915 2.03113 12.3894 2.11166 12.573C2.19219 12.7566 2.30871 12.9222 2.45434 13.06L3.86834 14.475C4.19335 14.8 4.5792 15.0579 5.00386 15.2338C5.42853 15.4097 5.88368 15.5003 6.34334 15.5003C6.80299 15.5003 7.25815 15.4097 7.68281 15.2338C8.10748 15.0579 8.49333 14.8 8.81834 14.475L10.2243 13.069L10.2323 13.061L10.2403 13.052L10.5863 12.707L18.0103 20.132C18.2917 20.4134 18.6734 20.5715 19.0713 20.5715C19.4693 20.5715 19.8509 20.4134 20.1323 20.132C20.4137 19.8506 20.5718 19.469 20.5718 19.071C20.5718 18.673 20.4137 18.2914 20.1323 18.01L12.7073 10.586L13.0613 10.232L14.4753 8.818C14.8004 8.49299 15.0582 8.10714 15.2341 7.68248C15.41 7.25781 15.5006 6.80266 15.5006 6.343C15.5006 5.88334 15.41 5.42819 15.2341 5.00353C15.0582 4.57886 14.8004 4.19301 14.4753 3.868L13.0603 2.454C12.9211 2.31467 12.7557 2.20413 12.5737 2.1287C12.3918 2.05327 12.1967 2.01442 11.9997 2.01437C11.6018 2.01428 11.2202 2.17224 10.9388 2.4535C10.7995 2.59277 10.689 2.75811 10.6135 2.9401C10.5381 3.12209 10.4993 3.31715 10.4992 3.51415C10.4991 3.91201 10.6571 4.29361 10.9383 4.575L12.3533 5.99C12.4471 6.08376 12.4997 6.21092 12.4997 6.3435C12.4997 6.47608 12.4471 6.60324 12.3533 6.697L12.0003 7.05L10.2323 5.282C10.093 5.14273 9.92761 5.03227 9.74558 4.95693C9.56356 4.88158 9.36848 4.84283 9.17148 4.84287C8.97448 4.84292 8.77942 4.88177 8.59744 4.9572C8.41545 5.03263 8.25011 5.14317 8.11084 5.2825C7.82958 5.5639 7.67162 5.9455 7.67171 6.34335C7.6718 6.74121 7.82994 7.12274 8.11134 7.404L9.87934 9.172L9.17134 9.879L7.40434 8.11C7.12308 7.82861 6.74155 7.67047 6.34369 7.67037C5.94583 7.67028 5.56423 7.82824 5.28284 8.1095C5.00144 8.39076 4.84331 8.77229 4.84321 9.17015C4.84312 9.56801 5.00108 9.94961 5.28234 10.231L7.05034 12L6.69734 12.354C6.60357 12.4477 6.47642 12.5004 6.34384 12.5004C6.21126 12.5004 6.0841 12.4477 5.99034 12.354L4.57534 10.94Z" fill="currentColor"/>
</svg>
