<svg width="24" height="24" viewBox="0 0 24 24" fill="none" xmlns="http://www.w3.org/2000/svg">
<path fill-rule="evenodd" clip-rule="evenodd" d="M18 3C18.7652 2.99996 19.5015 3.29233 20.0583 3.81728C20.615 4.34224 20.9501 5.06011 20.995 5.824L21 6V18C21 18.7652 20.7077 19.5015 20.1827 20.0583C19.6578 20.615 18.9399 20.9501 18.176 20.995L18 21H6C5.23479 21 4.49849 20.7077 3.94174 20.1827C3.38499 19.6578 3.04989 18.9399 3.005 18.176L3 18V6C2.99996 5.23479 3.29233 4.49849 3.81728 3.94174C4.34224 3.38499 5.06011 3.04989 5.824 3.005L6 3H18ZM8.5 14C8.12712 14 7.76761 14.1389 7.49158 14.3896C7.21555 14.6403 7.0428 14.9848 7.007 15.356L7 15.5L7.007 15.654C7.04297 16.025 7.2158 16.3694 7.49181 16.6199C7.76782 16.8705 8.12723 17.0093 8.5 17.0093C8.87277 17.0093 9.23218 16.8705 9.50819 16.6199C9.7842 16.3694 9.95703 16.025 9.993 15.654L10 15.51L9.993 15.356C9.9572 14.9848 9.78445 14.6403 9.50842 14.3896C9.23239 14.1389 8.87288 14 8.5 14ZM15.5 14C15.1271 14 14.7676 14.1389 14.4916 14.3896C14.2156 14.6403 14.0428 14.9848 14.007 15.356L14 15.51C14.0002 15.8952 14.1486 16.2656 14.4144 16.5444C14.6802 16.8232 15.0431 16.989 15.4279 17.0075C15.8127 17.026 16.1898 16.8958 16.4812 16.6438C16.7726 16.3918 16.9558 16.0374 16.993 15.654L17 15.5C17 15.1022 16.842 14.7206 16.5607 14.4393C16.2794 14.158 15.8978 14 15.5 14ZM12 10.5C11.6271 10.5 11.2676 10.6389 10.9916 10.8896C10.7156 11.1403 10.5428 11.4848 10.507 11.856L10.5 12.01C10.5002 12.3952 10.6486 12.7656 10.9144 13.0444C11.1802 13.3232 11.5431 13.489 11.9279 13.5075C12.3127 13.526 12.6898 13.3958 12.9812 13.1438C13.2726 12.8918 13.4558 12.5374 13.493 12.154L13.5 12C13.5 11.6022 13.342 11.2206 13.0607 10.9393C12.7794 10.658 12.3978 10.5 12 10.5ZM8.5 7C8.12712 7.00002 7.76761 7.13892 7.49158 7.38962C7.21555 7.64032 7.0428 7.98484 7.007 8.356L7 8.5L7.007 8.654C7.04297 9.02503 7.2158 9.36937 7.49181 9.61991C7.76782 9.87046 8.12723 10.0093 8.5 10.0093C8.87277 10.0093 9.23218 9.87046 9.50819 9.61991C9.7842 9.36937 9.95703 9.02503 9.993 8.654L10 8.51L9.993 8.356C9.9572 7.98484 9.78445 7.64032 9.50842 7.38962C9.23239 7.13892 8.87288 7.00002 8.5 7ZM15.5 7C15.1271 7.00002 14.7676 7.13892 14.4916 7.38962C14.2156 7.64032 14.0428 7.98484 14.007 8.356L14 8.51C14.0002 8.89522 14.1486 9.26559 14.4144 9.54439C14.6802 9.82318 15.0431 9.98901 15.4279 10.0075C15.8127 10.026 16.1898 9.89581 16.4812 9.64382C16.7726 9.39184 16.9558 9.03742 16.993 8.654L17 8.5C17 8.10218 16.842 7.72064 16.5607 7.43934C16.2794 7.15804 15.8978 7 15.5 7Z" fill="currentColor"/>
</svg>
