<svg width="24" height="24" viewBox="0 0 24 24" fill="none" xmlns="http://www.w3.org/2000/svg">
<path d="M2 7C2 6.20435 2.31607 5.44129 2.87868 4.87868C3.44129 4.31607 4.20435 4 5 4H19C19.7956 4 20.5587 4.31607 21.1213 4.87868C21.6839 5.44129 22 6.20435 22 7V14C22 14.7956 21.6839 15.5587 21.1213 16.1213C20.5587 16.6839 19.7956 17 19 17H15.86C15.965 17.5838 15.9439 18.1832 15.798 18.7581C15.6521 19.333 15.3847 19.87 15.014 20.333L14.781 20.625C14.6989 20.7276 14.5975 20.813 14.4824 20.8763C14.3673 20.9396 14.2409 20.9797 14.1103 20.9942C13.9797 21.0087 13.8476 20.9973 13.7215 20.9607C13.5953 20.9241 13.4776 20.8631 13.375 20.781C13.2724 20.6989 13.187 20.5975 13.1237 20.4824C13.0604 20.3673 13.0203 20.2409 13.0058 20.1103C12.9913 19.9798 13.0027 19.8476 13.0393 19.7215C13.0759 19.5953 13.1369 19.4776 13.219 19.375L13.452 19.084C13.6831 18.7952 13.8362 18.452 13.8966 18.087C13.957 17.7221 13.9227 17.3478 13.797 17H15.86C15.7108 16.1636 15.3083 15.3932 14.707 14.793C14.3309 14.4172 14.1067 13.9159 14.0772 13.3851C14.0477 12.8543 14.2149 12.3312 14.547 11.916L14.781 11.625C14.8631 11.5224 14.9241 11.4047 14.9607 11.2785C14.9973 11.1524 15.0087 11.0203 14.9942 10.8897C14.9797 10.7591 14.9396 10.6327 14.8763 10.5176C14.813 10.4025 14.7276 10.3011 14.625 10.219C14.5224 10.1369 14.4047 10.0759 14.2785 10.0393C14.1524 10.0027 14.0203 9.99132 13.8897 10.0058C13.7591 10.0203 13.6327 10.0604 13.5176 10.1237C13.4025 10.187 13.3011 10.2724 13.219 10.375L12.986 10.667C12.3466 11.4664 12.0243 12.4735 12.081 13.4957C12.1376 14.5178 12.5692 15.4831 13.293 16.207C13.523 16.438 13.693 16.71 13.797 17H11.86C11.965 17.5838 11.9439 18.1832 11.798 18.7581C11.6521 19.333 11.3847 19.87 11.014 20.333L10.781 20.625C10.6989 20.7276 10.5975 20.813 10.4824 20.8763C10.3673 20.9396 10.2409 20.9797 10.1103 20.9942C9.97975 21.0087 9.84762 20.9973 9.72145 20.9607C9.59529 20.9241 9.47756 20.8631 9.375 20.781C9.27244 20.6989 9.18705 20.5975 9.1237 20.4824C9.06035 20.3673 9.02029 20.2409 9.00581 20.1103C8.99132 19.9798 9.00269 19.8476 9.03927 19.7215C9.07585 19.5953 9.13692 19.4776 9.219 19.375L9.452 19.084C9.68312 18.7952 9.83622 18.452 9.89663 18.087C9.95704 17.7221 9.92273 17.3478 9.797 17H11.86C11.7108 16.1636 11.3083 15.3932 10.707 14.793C10.3309 14.4172 10.1067 13.9159 10.0772 13.3851C10.0477 12.8543 10.2149 12.3312 10.547 11.916L10.781 11.625C10.8631 11.5224 10.9241 11.4047 10.9607 11.2785C10.9973 11.1524 11.0087 11.0203 10.9942 10.8897C10.9797 10.7591 10.9396 10.6327 10.8763 10.5176C10.813 10.4025 10.7276 10.3011 10.625 10.219C10.5224 10.1369 10.4047 10.0759 10.2785 10.0393C10.1524 10.0027 10.0203 9.99132 9.88969 10.0058C9.75913 10.0203 9.6327 10.0604 9.51763 10.1237C9.40255 10.187 9.30108 10.2724 9.219 10.375L8.986 10.667C8.34657 11.4664 8.02434 12.4735 8.08099 13.4957C8.13763 14.5178 8.56915 15.4831 9.293 16.207C9.523 16.438 9.693 16.71 9.797 17H5C4.20435 17 3.44129 16.6839 2.87868 16.1213C2.31607 15.5587 2 14.7956 2 14V7Z" fill="currentColor"/>
</svg>
