<svg width="24" height="24" viewBox="0 0 24 24" fill="none" xmlns="http://www.w3.org/2000/svg">
<path fill-rule="evenodd" clip-rule="evenodd" d="M3.99998 17V5C3.99998 4.20435 4.31605 3.44129 4.87866 2.87868C5.44127 2.31607 6.20433 2 6.99998 2H17C17.7956 2 18.5587 2.31607 19.1213 2.87868C19.6839 3.44129 20 4.20435 20 5V17C20.2341 17.0002 20.4607 17.0826 20.6403 17.2327C20.8199 17.3829 20.9412 17.5913 20.9829 17.8216C21.0247 18.052 20.9843 18.2897 20.8688 18.4933C20.7534 18.6969 20.5701 18.8536 20.351 18.936L12.351 21.936C12.1247 22.0208 11.8753 22.0208 11.649 21.936L3.64898 18.936C3.42986 18.8536 3.24659 18.6969 3.13111 18.4933C3.01563 18.2897 2.97526 18.052 3.01702 17.8216C3.05878 17.5913 3.18004 17.3829 3.35966 17.2327C3.53928 17.0826 3.76588 17.0002 3.99998 17ZM13 6C13 5.73478 12.8946 5.48043 12.7071 5.29289C12.5196 5.10536 12.2652 5 12 5C11.7348 5 11.4804 5.10536 11.2929 5.29289C11.1053 5.48043 11 5.73478 11 6V7H9.99998C9.33694 7 8.70105 7.26339 8.23221 7.73223C7.76337 8.20107 7.49998 8.83696 7.49998 9.5C7.49998 10.163 7.76337 10.7989 8.23221 11.2678C8.70105 11.7366 9.33694 12 9.99998 12H14C14.1326 12 14.2598 12.0527 14.3535 12.1464C14.4473 12.2402 14.5 12.3674 14.5 12.5C14.5 12.6326 14.4473 12.7598 14.3535 12.8536C14.2598 12.9473 14.1326 13 14 13H8.99998C8.73476 13 8.48041 13.1054 8.29287 13.2929C8.10534 13.4804 7.99998 13.7348 7.99998 14C7.99998 14.2652 8.10534 14.5196 8.29287 14.7071C8.48041 14.8946 8.73476 15 8.99998 15H11V16C11 16.2652 11.1053 16.5196 11.2929 16.7071C11.4804 16.8946 11.7348 17 12 17C12.2652 17 12.5196 16.8946 12.7071 16.7071C12.8946 16.5196 13 16.2652 13 16V15H14C14.663 15 15.2989 14.7366 15.7677 14.2678C16.2366 13.7989 16.5 13.163 16.5 12.5C16.5 11.837 16.2366 11.2011 15.7677 10.7322C15.2989 10.2634 14.663 10 14 10H9.99998C9.86737 10 9.74019 9.94732 9.64643 9.85355C9.55266 9.75979 9.49998 9.63261 9.49998 9.5C9.49998 9.36739 9.55266 9.24021 9.64643 9.14645C9.74019 9.05268 9.86737 9 9.99998 9H15C15.2652 9 15.5196 8.89464 15.7071 8.70711C15.8946 8.51957 16 8.26522 16 8C16 7.73478 15.8946 7.48043 15.7071 7.29289C15.5196 7.10536 15.2652 7 15 7H13V6Z" fill="currentColor"/>
</svg>
