<svg width="24" height="24" viewBox="0 0 24 24" fill="none" xmlns="http://www.w3.org/2000/svg">
<path fill-rule="evenodd" clip-rule="evenodd" d="M11.0836 13.5C11.5142 12.5132 11.6149 11.4138 11.3705 10.3653C11.1262 9.31675 10.5499 8.37508 9.72745 7.68033C8.90497 6.98558 7.8802 6.57488 6.80556 6.50929C5.73093 6.4437 4.66382 6.72674 3.76296 7.31631C2.8621 7.90588 2.1756 8.77049 1.80557 9.78154C1.43553 10.7926 1.40173 11.8961 1.70919 12.9279C2.01666 13.9597 2.64895 14.8647 3.51204 15.5083C4.37513 16.1519 5.42292 16.4997 6.49955 16.5H17.4996C18.5762 16.4997 19.624 16.1519 20.4871 15.5083C21.3502 14.8647 21.9824 13.9597 22.2899 12.9279C22.5974 11.8961 22.5636 10.7926 22.1935 9.78154C21.8235 8.77049 21.137 7.90588 20.2361 7.31631C19.3353 6.72674 18.2682 6.4437 17.1935 6.50929C16.1189 6.57488 15.0941 6.98558 14.2717 7.68033C13.4492 8.37508 12.8729 9.31675 12.6286 10.3653C12.3843 11.4138 12.4849 12.5132 12.9156 13.5H11.0836ZM6.49955 9.5C5.96912 9.5 5.46041 9.71072 5.08534 10.0858C4.71027 10.4609 4.49955 10.9696 4.49955 11.5C4.49955 12.0304 4.71027 12.5391 5.08534 12.9142C5.46041 13.2893 5.96912 13.5 6.49955 13.5C7.02999 13.5 7.53869 13.2893 7.91377 12.9142C8.28884 12.5391 8.49955 12.0304 8.49955 11.5C8.49955 10.9696 8.28884 10.4609 7.91377 10.0858C7.53869 9.71072 7.02999 9.5 6.49955 9.5ZM17.4996 13.5C18.03 13.5 18.5387 13.2893 18.9138 12.9142C19.2888 12.5391 19.4996 12.0304 19.4996 11.5C19.4996 10.9696 19.2888 10.4609 18.9138 10.0858C18.5387 9.71072 18.03 9.5 17.4996 9.5C16.9691 9.5 16.4604 9.71072 16.0853 10.0858C15.7103 10.4609 15.4996 10.9696 15.4996 11.5C15.4996 12.0304 15.7103 12.5391 16.0853 12.9142C16.4604 13.2893 16.9691 13.5 17.4996 13.5Z" fill="currentColor"/>
</svg>
