<svg width="24" height="24" viewBox="0 0 24 24" fill="none" xmlns="http://www.w3.org/2000/svg">
<path fill-rule="evenodd" clip-rule="evenodd" d="M14.1648 3.25001C13.2028 1.58301 10.7968 1.58301 9.83479 3.25001L8.43779 5.67001C8.24201 6.01434 8.19038 6.42214 8.29416 6.8044C8.39795 7.18667 8.64871 7.51236 8.99174 7.71042C9.33478 7.90847 9.74222 7.96281 10.1252 7.86156C10.5081 7.76032 10.8355 7.51172 11.0358 7.17001L11.9998 5.50001L14.2198 9.34601C13.8694 9.37933 13.5419 9.53481 13.2946 9.78523C13.0473 10.0356 12.8959 10.3651 12.8669 10.7158C12.8379 11.0666 12.9333 11.4164 13.1362 11.704C13.3391 11.9916 13.6366 12.1987 13.9768 12.289L16.8748 13.065C17.0921 13.1248 17.3202 13.1342 17.5417 13.0924C17.7632 13.0506 17.9722 12.9588 18.1528 12.824C18.4268 12.622 18.6208 12.344 18.7128 12.004L19.4888 9.10701C19.58 8.7674 19.5491 8.40653 19.4013 8.08744C19.2535 7.76834 18.9984 7.51131 18.6803 7.36123C18.3623 7.21116 18.0017 7.17758 17.6614 7.26637C17.3212 7.35516 17.0229 7.56067 16.8188 7.84701L14.1648 3.25001ZM2.04079 16.75L4.69379 12.154C4.34341 12.1207 4.0159 11.9652 3.76858 11.7148C3.52126 11.4644 3.36987 11.1349 3.34091 10.7842C3.31195 10.4334 3.40725 10.0836 3.61015 9.79603C3.81305 9.50844 4.11062 9.30135 4.45079 9.21101L7.34879 8.43501C7.73292 8.33288 8.14187 8.38708 8.48614 8.58573C8.83041 8.78439 9.08198 9.11132 9.18579 9.49501L9.96279 12.394C10.054 12.7336 10.0231 13.0945 9.8753 13.4136C9.72753 13.7327 9.47235 13.9897 9.15433 14.1398C8.83631 14.2899 8.47568 14.3234 8.13542 14.2346C7.79517 14.1459 7.49692 13.9403 7.29279 13.654L5.07179 17.5H6.99979C7.39761 17.5 7.77914 17.658 8.06045 17.9393C8.34175 18.2207 8.49979 18.6022 8.49979 19C8.49979 19.3978 8.34175 19.7794 8.06045 20.0607C7.77914 20.342 7.39761 20.5 6.99979 20.5H4.20579C2.28079 20.5 1.07879 18.417 2.04079 16.75ZM20.5618 14.33C20.3615 13.9883 20.0341 13.7397 19.6512 13.6384C19.2682 13.5372 18.8608 13.5915 18.5177 13.7896C18.1747 13.9876 17.9239 14.3133 17.8202 14.6956C17.7164 15.0779 17.768 15.4857 17.9638 15.83L18.9278 17.5H14.4878C14.634 17.1799 14.6631 16.8186 14.5698 16.4793C14.4766 16.14 14.2671 15.8443 13.9779 15.6438C13.6886 15.4434 13.3381 15.351 12.9877 15.3828C12.6372 15.4147 12.3091 15.5687 12.0608 15.818L9.94679 17.932C9.67079 18.204 9.49979 18.582 9.49979 19C9.49979 19.412 9.65979 19.786 9.94679 20.069L12.0608 22.182C12.3093 22.4306 12.6372 22.584 12.9873 22.6155C13.3374 22.6469 13.6874 22.5545 13.9763 22.3542C14.2651 22.1539 14.4745 21.8586 14.5678 21.5197C14.6611 21.1808 14.6324 20.8199 14.4868 20.5H19.7938C21.7188 20.5 22.9218 18.417 21.9588 16.75L20.5618 14.33Z" fill="currentColor"/>
</svg>
