<svg width="24" height="24" viewBox="0 0 24 24" fill="none" xmlns="http://www.w3.org/2000/svg">
<path d="M12 2C17.523 2 22 6.477 22 12C22 17.523 17.523 22 12 22C6.477 22 2 17.523 2 12C2 6.477 6.477 2 12 2ZM15 6C14.7 6 14.432 6.131 14.249 6.34L12.599 6.01C12.5322 5.99652 12.4634 5.99683 12.3967 6.0109C12.3301 6.02498 12.267 6.05253 12.2114 6.09186C12.1558 6.13119 12.1088 6.18147 12.0733 6.23962C12.0378 6.29776 12.0146 6.36255 12.005 6.43L11.637 9.008C10.214 9.071 8.898 9.501 7.891 10.206C7.69915 10.3401 7.51641 10.4867 7.344 10.645C6.98851 10.471 6.57864 10.4445 6.20372 10.5713C5.82879 10.6982 5.51919 10.9681 5.34239 11.3222C5.1656 11.6763 5.13593 12.086 5.25986 12.4619C5.38378 12.8378 5.65126 13.1495 6.004 13.329L6 13.5C6 14.882 6.802 16.032 7.891 16.794C8.983 17.56 10.439 18 12 18C13.56 18 15.017 17.559 16.109 16.794C17.199 16.032 18 14.882 18 13.5L17.996 13.33C18.3521 13.1523 18.6229 12.8404 18.7491 12.463C18.8752 12.0856 18.8462 11.6736 18.6685 11.3175C18.4908 10.9614 18.1789 10.6906 17.8015 10.5644C17.4241 10.4383 17.0121 10.4673 16.656 10.645C16.4836 10.4864 16.3009 10.3394 16.109 10.205C15.169 9.548 13.959 9.129 12.644 9.025L12.92 7.094L14.052 7.32C14.1109 7.49424 14.2166 7.64887 14.3576 7.7669C14.4987 7.88492 14.6695 7.96177 14.8514 7.98899C15.0333 8.01621 15.2192 7.99274 15.3886 7.92117C15.558 7.84961 15.7044 7.73271 15.8117 7.58333C15.9189 7.43396 15.9829 7.25789 15.9966 7.0745C16.0103 6.8911 15.9732 6.70748 15.8893 6.54382C15.8054 6.38017 15.678 6.24281 15.5211 6.14687C15.3642 6.05093 15.1839 6.00011 15 6ZM9.5 12C9.89782 12 10.2794 12.158 10.5607 12.4393C10.842 12.7206 11 13.1022 11 13.5C11 13.8978 10.842 14.2794 10.5607 14.5607C10.2794 14.842 9.89782 15 9.5 15C9.10218 15 8.72064 14.842 8.43934 14.5607C8.15804 14.2794 8 13.8978 8 13.5C8 13.1022 8.15804 12.7206 8.43934 12.4393C8.72064 12.158 9.10218 12 9.5 12ZM14.5 12C14.8978 12 15.2794 12.158 15.5607 12.4393C15.842 12.7206 16 13.1022 16 13.5C16 13.8978 15.842 14.2794 15.5607 14.5607C15.2794 14.842 14.8978 15 14.5 15C14.1022 15 13.7206 14.842 13.4393 14.5607C13.158 14.2794 13 13.8978 13 13.5C13 13.1022 13.158 12.7206 13.4393 12.4393C13.7206 12.158 14.1022 12 14.5 12Z" fill="currentColor"/>
</svg>
