<svg width="24" height="24" viewBox="0 0 24 24" fill="none" xmlns="http://www.w3.org/2000/svg">
<path d="M1.4981 12.082C1.4881 10.815 2.8451 10.095 3.8771 10.676L3.9901 10.746L6.6681 12.55C8.0921 13.51 7.2061 15.696 5.5681 15.465L5.4311 15.44L5.3221 15.416C5.93702 16.6165 6.86412 17.629 8.00586 18.3471C9.1476 19.0651 10.4618 19.4622 11.8101 19.4965C13.1584 19.5308 14.4911 19.201 15.6679 18.5419C16.8446 17.8828 17.822 16.9187 18.4971 15.751C18.5955 15.5803 18.7265 15.4307 18.8827 15.3106C19.0389 15.1905 19.2172 15.1024 19.4075 15.0512C19.5978 15 19.7962 14.9868 19.9916 15.0124C20.187 15.0379 20.3754 15.1017 20.5461 15.2C20.7168 15.2984 20.8665 15.4294 20.9866 15.5856C21.1067 15.7418 21.1948 15.9202 21.246 16.1104C21.2971 16.3007 21.3103 16.4992 21.2848 16.6945C21.2592 16.8899 21.1955 17.0783 21.0971 17.2491C18.7801 21.2691 13.9781 23.4011 9.2821 22.142C7.06294 21.5474 5.09998 20.2414 3.69403 18.4244C2.28808 16.6074 1.5167 14.3794 1.4981 12.082ZM2.9041 6.75205C5.2201 2.73105 10.0221 0.60005 14.7181 1.85705C16.9373 2.45174 18.9002 3.75766 20.3062 5.5747C21.7121 7.39175 22.4835 9.61966 22.5021 11.917C22.5121 13.184 21.1551 13.904 20.1231 13.324L20.0101 13.254L17.3321 11.449C15.9081 10.4901 16.7941 8.30405 18.4311 8.53505L18.5691 8.56005L18.6771 8.58305C18.062 7.38272 17.1347 6.37036 15.9929 5.65248C14.8511 4.9346 13.5368 4.53774 12.1885 4.50367C10.8402 4.46959 9.50758 4.79954 8.33093 5.45882C7.15427 6.1181 6.17706 7.08232 5.5021 8.25005C5.40669 8.42622 5.27695 8.58149 5.12054 8.70669C4.96414 8.8319 4.78423 8.9245 4.59145 8.97904C4.39867 9.03357 4.19692 9.04894 3.9981 9.02422C3.79928 8.99951 3.60743 8.93522 3.43387 8.83514C3.26031 8.73507 3.10855 8.60124 2.98756 8.44155C2.86656 8.28186 2.77879 8.09955 2.72941 7.90539C2.68003 7.71122 2.67005 7.50913 2.70005 7.31104C2.73005 7.11295 2.79944 6.92288 2.9041 6.75205Z" fill="currentColor"/>
</svg>
