<svg width="24" height="24" viewBox="0 0 24 24" fill="none" xmlns="http://www.w3.org/2000/svg">
<path d="M3 9.49998C3.39782 9.49998 3.77936 9.65801 4.06066 9.93932C4.34196 10.2206 4.5 10.6022 4.5 11C4.49989 12.4205 5.04937 13.7859 6.03339 14.8104C7.01741 15.8349 8.35964 16.4389 9.779 16.496L10 16.5H12.382C12.1294 16.2189 11.9922 15.8528 11.9978 15.4749C12.0035 15.097 12.1516 14.7352 12.4125 14.4618C12.6734 14.1884 13.0279 14.0235 13.4051 14.0002C13.7823 13.9769 14.1544 14.0968 14.447 14.336L14.561 14.439L17.086 16.965C17.3401 17.2302 17.4876 17.5796 17.5005 17.9466C17.5134 18.3137 17.3908 18.6726 17.156 18.955L17.059 19.063L14.561 21.561C14.2942 21.8302 13.9353 21.9884 13.5566 22.0037C13.1779 22.0191 12.8074 21.8906 12.5196 21.644C12.2318 21.3973 12.0481 21.0509 12.0053 20.6743C11.9625 20.2977 12.0639 19.9189 12.289 19.614L12.382 19.5H10C7.74566 19.5 5.58365 18.6044 3.98959 17.0104C2.39553 15.4163 1.5 13.2543 1.5 11C1.5 10.6022 1.65804 10.2206 1.93934 9.93932C2.22064 9.65801 2.60218 9.49998 3 9.49998ZM19 6.99998C19.1871 6.99998 19.3704 7.05246 19.5292 7.15145C19.6879 7.25044 19.8157 7.39198 19.898 7.55998L19.946 7.67698L20.076 8.05498C20.2132 8.45716 20.4343 8.82561 20.7246 9.13592C21.0149 9.44623 21.3678 9.69133 21.76 9.85498L21.945 9.92498L22.323 10.054C22.5102 10.1178 22.6742 10.2358 22.7944 10.3929C22.9146 10.55 22.9854 10.7392 22.9981 10.9366C23.0107 11.1339 22.9645 11.3306 22.8654 11.5018C22.7662 11.6729 22.6185 11.8108 22.441 11.898L22.323 11.946L21.945 12.076C21.5428 12.2132 21.1744 12.4343 20.8641 12.7246C20.5537 13.0149 20.3086 13.3678 20.145 13.76L20.075 13.945L19.946 14.323C19.8821 14.5102 19.7642 14.6742 19.6071 14.7944C19.45 14.9145 19.2608 14.9854 19.0634 14.998C18.866 15.0107 18.6693 14.9645 18.4982 14.8653C18.3271 14.7662 18.1892 14.6185 18.102 14.441L18.054 14.323L17.924 13.945C17.7868 13.5428 17.5657 13.1743 17.2754 12.864C16.9851 12.5537 16.6322 12.3086 16.24 12.145L16.055 12.075L15.677 11.946C15.4898 11.8821 15.3258 11.7642 15.2056 11.6071C15.0854 11.45 15.0146 11.2608 15.0019 11.0634C14.9893 10.866 15.0355 10.6693 15.1346 10.4982C15.2338 10.3271 15.3815 10.1892 15.559 10.102L15.677 10.054L16.055 9.92398C16.4572 9.78678 16.8256 9.5657 17.1359 9.27538C17.4463 8.98507 17.6914 8.63214 17.855 8.23998L17.925 8.05498L18.054 7.67698C18.1214 7.47957 18.2488 7.30816 18.4184 7.18677C18.5881 7.06537 18.7914 7.00006 19 6.99998ZM7.44 2.43998C7.70766 2.17507 8.06518 2.02053 8.44153 2.00706C8.81788 1.9936 9.18552 2.12219 9.47144 2.36729C9.75735 2.61239 9.9406 2.95607 9.9848 3.33006C10.029 3.70405 9.9309 4.08098 9.71 4.38598L9.618 4.49998H12C13.708 4.49715 15.3768 5.01136 16.787 5.97498C16.5554 6.22796 16.369 6.51886 16.236 6.83498L16.161 7.03098L16.031 7.40898C15.988 7.53517 15.9202 7.65149 15.8316 7.75109C15.743 7.8507 15.6353 7.93158 15.515 7.98898L15.409 8.03198L15.03 8.16098C14.9473 8.18944 14.8659 8.22147 14.786 8.25698C14.0304 7.8118 13.1788 7.55491 12.303 7.50798L12 7.49998H9.618C9.87061 7.78107 10.0078 8.14716 10.0022 8.52504C9.9965 8.90292 9.84841 9.26474 9.58751 9.53815C9.32661 9.81156 8.97211 9.97641 8.59491 9.99974C8.21771 10.0231 7.84561 9.90316 7.553 9.66398L7.44 9.55998L4.94 7.05998C4.67727 6.79743 4.52129 6.44673 4.50226 6.07579C4.48323 5.70485 4.60251 5.34003 4.837 5.05198L4.94 4.93798L7.44 2.43998Z" fill="currentColor"/>
</svg>
