<svg width="24" height="24" viewBox="0 0 24 24" fill="none" xmlns="http://www.w3.org/2000/svg">
<path fill-rule="evenodd" clip-rule="evenodd" d="M10.7002 19.374C12.2439 19.6462 13.834 19.4283 15.2475 18.7507C16.661 18.0731 17.8268 16.9699 18.5812 15.596C18.7769 15.2557 19.0982 15.0057 19.4761 14.8996C19.854 14.7935 20.2585 14.8398 20.6027 15.0285C20.9469 15.2172 21.2034 15.5333 21.3172 15.909C21.4309 16.2847 21.3929 16.69 21.2112 17.038C19.1092 20.873 14.7312 23.1309 10.1792 22.3279C4.46923 21.3219 0.655233 15.8759 1.66223 10.165C2.67023 4.45495 8.11523 0.640951 13.8262 1.64795C16.0887 2.04698 18.1579 3.17682 19.7169 4.86435C21.2758 6.55188 22.2384 8.704 22.4572 10.991C22.5822 12.3 21.1922 13.149 20.0912 12.54L17.2712 10.979C15.7242 10.122 16.5042 7.75895 18.2572 7.99295L18.3592 8.00595C17.6958 6.94707 16.7783 6.07073 15.6901 5.45656C14.6019 4.84239 13.3774 4.50984 12.128 4.48912C10.8787 4.46841 9.64389 4.76019 8.53592 5.33795C7.42795 5.91571 6.4819 6.76115 5.7837 7.79746C5.08551 8.83377 4.6573 10.0281 4.53799 11.2719C4.41867 12.5158 4.61203 13.7698 5.10049 14.9199C5.58895 16.07 6.35704 17.0799 7.33497 17.8577C8.3129 18.6356 9.46969 19.1568 10.7002 19.374Z" fill="currentColor"/>
</svg>
