<svg width="24" height="24" viewBox="0 0 24 24" fill="none" xmlns="http://www.w3.org/2000/svg">
<path fill-rule="evenodd" clip-rule="evenodd" d="M13.2999 19.374C11.7562 19.6462 10.1659 19.4281 8.75246 18.7503C7.33899 18.0725 6.17326 16.9691 5.41893 15.595C5.22542 15.2503 4.90367 14.9959 4.52362 14.8872C4.14358 14.7784 3.73597 14.8241 3.38941 15.0142C3.04285 15.2044 2.78535 15.5236 2.67291 15.9026C2.56046 16.2816 2.60216 16.6896 2.78893 17.038C4.89092 20.873 9.26892 23.131 13.8209 22.328C19.5309 21.322 23.3449 15.876 22.3379 10.165C21.3299 4.454 15.8849 0.639995 10.1739 1.648C7.91127 2.04683 5.84181 3.17659 4.28269 4.86413C2.72356 6.55168 1.76079 8.70391 1.54193 10.991C1.41793 12.3 2.80793 13.15 3.90993 12.54L6.72993 10.978C8.27693 10.122 7.49693 7.759 5.74393 7.992L5.64193 8.006C6.30538 6.94704 7.22292 6.07065 8.31117 5.45644C9.39942 4.84222 10.6239 4.50966 11.8733 4.48897C13.1228 4.46827 14.3576 4.76009 15.4656 5.33793C16.5736 5.91576 17.5197 6.76128 18.2178 7.79768C18.916 8.83408 19.3441 10.0285 19.4634 11.2724C19.5826 12.5163 19.3891 13.7703 18.9005 14.9205C18.4119 16.0706 17.6436 17.0804 16.6656 17.8582C15.6875 18.636 14.5306 19.157 13.2999 19.374Z" fill="currentColor"/>
</svg>
