<svg width="24" height="24" viewBox="0 0 24 24" fill="none" xmlns="http://www.w3.org/2000/svg">
<path d="M4 9.49998C4.39782 9.49998 4.77936 9.65801 5.06066 9.93932C5.34196 10.2206 5.5 10.6022 5.5 11C5.49989 12.4205 6.04937 13.7859 7.03339 14.8104C8.01741 15.8349 9.35964 16.4389 10.779 16.496L11 16.5H13.382C13.1294 16.2189 12.9922 15.8528 12.9978 15.4749C13.0035 15.097 13.1516 14.7352 13.4125 14.4618C13.6734 14.1884 14.0279 14.0235 14.4051 14.0002C14.7823 13.9769 15.1544 14.0968 15.447 14.336L15.561 14.439L18.061 16.939C18.3012 17.1783 18.4528 17.4921 18.491 17.829L18.5 17.986V18.014C18.4977 18.3605 18.3746 18.6954 18.152 18.961L18.055 19.066L15.561 21.561C15.2942 21.8302 14.9353 21.9884 14.5566 22.0037C14.1779 22.0191 13.8074 21.8906 13.5196 21.644C13.2318 21.3973 13.0481 21.0509 13.0053 20.6743C12.9625 20.2977 13.0639 19.9189 13.289 19.614L13.382 19.5H11C8.74566 19.5 6.58365 18.6044 4.98959 17.0104C3.39553 15.4163 2.5 13.2543 2.5 11C2.5 10.6022 2.65804 10.2206 2.93934 9.93932C3.22064 9.65801 3.60218 9.49998 4 9.49998ZM8.44 2.43998C8.70766 2.17507 9.06518 2.02053 9.44153 2.00706C9.81788 1.9936 10.1855 2.12219 10.4714 2.36729C10.7573 2.61239 10.9406 2.95607 10.9848 3.33006C11.029 3.70405 10.9309 4.08098 10.71 4.38598L10.618 4.49998H13C15.2543 4.49998 17.4163 5.39551 19.0104 6.98957C20.6045 8.58363 21.5 10.7456 21.5 13C21.5 13.3978 21.342 13.7793 21.0607 14.0606C20.7794 14.3419 20.3978 14.5 20 14.5C19.6022 14.5 19.2206 14.3419 18.9393 14.0606C18.658 13.7793 18.5 13.3978 18.5 13C18.5001 11.5795 17.9506 10.214 16.9666 9.18954C15.9826 8.16508 14.6404 7.56106 13.221 7.50398L13 7.49998H10.618C10.8706 7.78107 11.0078 8.14716 11.0022 8.52504C10.9965 8.90292 10.8484 9.26474 10.5875 9.53815C10.3266 9.81156 9.97211 9.97641 9.59491 9.99974C9.21771 10.0231 8.84561 9.90316 8.553 9.66398L8.44 9.55998L5.94 7.05998C5.67727 6.79743 5.52129 6.44673 5.50226 6.07579C5.48323 5.70485 5.60251 5.34003 5.837 5.05198L5.94 4.93798L8.44 2.43798V2.43998Z" fill="currentColor"/>
</svg>
