<svg width="24" height="24" viewBox="0 0 24 24" fill="none" xmlns="http://www.w3.org/2000/svg">
<path fill-rule="evenodd" clip-rule="evenodd" d="M5.36698 15.504C6.15135 16.9891 7.41147 18.1679 8.94546 18.8516C10.4795 19.5353 12.1986 19.6844 13.8273 19.2749C15.4561 18.8654 16.9004 17.9211 17.9286 16.5933C18.9569 15.2654 19.5098 13.6308 19.4986 11.9514C19.4874 10.2719 18.9129 8.64485 17.867 7.33076C16.8212 6.01668 15.3645 5.09166 13.7304 4.70389C12.0963 4.31612 10.3794 4.48804 8.85462 5.19211C7.32986 5.89617 6.08553 7.09164 5.32098 8.587L5.42098 8.564C7.14698 8.179 8.12998 10.465 6.66298 11.453L3.98998 13.254C2.94698 13.957 1.48798 13.232 1.49798 11.918C1.51658 9.62061 2.28796 7.39269 3.69391 5.57565C5.09986 3.75861 7.06281 2.45269 9.28198 1.858C14.884 0.356999 20.642 3.681 22.142 9.282C23.642 14.884 20.319 20.642 14.717 22.142C9.88898 23.436 4.94698 21.145 2.71198 16.902C2.52659 16.5499 2.48866 16.1386 2.60652 15.7586C2.72439 15.3785 2.9884 15.0609 3.34048 14.8755C3.69255 14.6901 4.10385 14.6522 4.48389 14.77C4.86394 14.8879 5.18159 15.1519 5.36698 15.504ZM8.39998 7.2C8.50503 7.12121 8.62458 7.06388 8.75179 7.03129C8.87901 6.99869 9.01139 6.99148 9.1414 7.01005C9.2714 7.02862 9.39647 7.07262 9.50947 7.13952C9.62247 7.20643 9.72118 7.29494 9.79998 7.4L12 10.333L14.2 7.4C14.2788 7.29494 14.3775 7.20643 14.4905 7.13952C14.6035 7.07262 14.7286 7.02862 14.8586 7.01005C14.9886 6.99148 15.1209 6.99869 15.2482 7.03129C15.3754 7.06388 15.4949 7.12121 15.6 7.2C15.705 7.27879 15.7935 7.37751 15.8605 7.49051C15.9274 7.6035 15.9714 7.72858 15.9899 7.85858C16.0085 7.98858 16.0013 8.12097 15.9687 8.24818C15.9361 8.37539 15.8788 8.49494 15.8 8.6L14 11H15C15.2652 11 15.5195 11.1054 15.7071 11.2929C15.8946 11.4804 16 11.7348 16 12C16 12.2652 15.8946 12.5196 15.7071 12.7071C15.5195 12.8946 15.2652 13 15 13H13V14H15C15.2652 14 15.5195 14.1054 15.7071 14.2929C15.8946 14.4804 16 14.7348 16 15C16 15.2652 15.8946 15.5196 15.7071 15.7071C15.5195 15.8946 15.2652 16 15 16H13V17C13 17.2652 12.8946 17.5196 12.7071 17.7071C12.5195 17.8946 12.2652 18 12 18C11.7348 18 11.4804 17.8946 11.2929 17.7071C11.1053 17.5196 11 17.2652 11 17V16H8.99998C8.73476 16 8.48041 15.8946 8.29287 15.7071C8.10533 15.5196 7.99998 15.2652 7.99998 15C7.99998 14.7348 8.10533 14.4804 8.29287 14.2929C8.48041 14.1054 8.73476 14 8.99998 14H11V13H8.99998C8.73476 13 8.48041 12.8946 8.29287 12.7071C8.10533 12.5196 7.99998 12.2652 7.99998 12C7.99998 11.7348 8.10533 11.4804 8.29287 11.2929C8.48041 11.1054 8.73476 11 8.99998 11H9.99998L8.19998 8.6C8.12118 8.49494 8.06385 8.37539 8.03126 8.24818C7.99867 8.12097 7.99145 7.98858 8.01003 7.85858C8.0286 7.72858 8.07259 7.6035 8.1395 7.49051C8.20641 7.37751 8.29492 7.27879 8.39998 7.2Z" fill="currentColor"/>
</svg>
