<svg width="24" height="24" viewBox="0 0 24 24" fill="none" xmlns="http://www.w3.org/2000/svg">
<path d="M22.142 9.282C23.642 14.884 20.319 20.642 14.717 22.142C9.88898 23.436 4.94698 21.145 2.71198 16.902C2.52659 16.5499 2.48866 16.1386 2.60652 15.7586C2.72439 15.3785 2.9884 15.0609 3.34048 14.8755C3.69255 14.6901 4.10385 14.6522 4.48389 14.77C4.86394 14.8879 5.18159 15.1519 5.36698 15.504C6.15135 16.9891 7.41147 18.1679 8.94546 18.8516C10.4795 19.5353 12.1986 19.6844 13.8273 19.2749C15.4561 18.8654 16.9004 17.9211 17.9286 16.5933C18.9569 15.2654 19.5098 13.6308 19.4986 11.9514C19.4874 10.2719 18.9129 8.64485 17.867 7.33076C16.8212 6.01668 15.3645 5.09166 13.7304 4.70389C12.0963 4.31612 10.3794 4.48804 8.85462 5.19211C7.32986 5.89617 6.08553 7.09164 5.32098 8.587L5.42098 8.564C7.14698 8.179 8.12998 10.465 6.66298 11.453L3.98998 13.254C2.94698 13.957 1.48798 13.232 1.49798 11.918C1.51658 9.62061 2.28796 7.39269 3.69391 5.57565C5.09986 3.75861 7.06281 2.45269 9.28198 1.858C14.884 0.356999 20.642 3.681 22.142 9.282ZM12 6C12.2652 6 12.5195 6.10536 12.7071 6.29289C12.8946 6.48043 13 6.73478 13 7V8H15C15.2652 8 15.5195 8.10536 15.7071 8.29289C15.8946 8.48043 16 8.73478 16 9C16 9.26522 15.8946 9.51957 15.7071 9.70711C15.5195 9.89464 15.2652 10 15 10H9.99998C9.86737 10 9.74019 10.0527 9.64642 10.1464C9.55265 10.2402 9.49998 10.3674 9.49998 10.5C9.49998 10.6326 9.55265 10.7598 9.64642 10.8536C9.74019 10.9473 9.86737 11 9.99998 11H14C14.663 11 15.2989 11.2634 15.7677 11.7322C16.2366 12.2011 16.5 12.837 16.5 13.5C16.5 14.163 16.2366 14.7989 15.7677 15.2678C15.2989 15.7366 14.663 16 14 16H13V17C13 17.2652 12.8946 17.5196 12.7071 17.7071C12.5195 17.8946 12.2652 18 12 18C11.7348 18 11.4804 17.8946 11.2929 17.7071C11.1053 17.5196 11 17.2652 11 17V16H8.99998C8.73476 16 8.48041 15.8946 8.29287 15.7071C8.10533 15.5196 7.99998 15.2652 7.99998 15C7.99998 14.7348 8.10533 14.4804 8.29287 14.2929C8.48041 14.1054 8.73476 14 8.99998 14H14C14.1326 14 14.2598 13.9473 14.3535 13.8536C14.4473 13.7598 14.5 13.6326 14.5 13.5C14.5 13.3674 14.4473 13.2402 14.3535 13.1464C14.2598 13.0527 14.1326 13 14 13H9.99998C9.33694 13 8.70105 12.7366 8.23221 12.2678C7.76337 11.7989 7.49998 11.163 7.49998 10.5C7.49998 9.83696 7.76337 9.20107 8.23221 8.73223C8.70105 8.26339 9.33694 8 9.99998 8H11V7C11 6.73478 11.1053 6.48043 11.2929 6.29289C11.4804 6.10536 11.7348 6 12 6Z" fill="currentColor"/>
</svg>
