<svg width="24" height="24" viewBox="0 0 24 24" fill="none" xmlns="http://www.w3.org/2000/svg">
<path d="M11 12H12.5C12.8978 12 13.2794 11.842 13.5607 11.5607C13.842 11.2794 14 10.8978 14 10.5C14 10.1022 13.842 9.72064 13.5607 9.43934C13.2794 9.15804 12.8978 9 12.5 9H11V12Z" fill="currentColor"/>
<path fill-rule="evenodd" clip-rule="evenodd" d="M2 12C2 6.477 6.477 2 12 2C17.523 2 22 6.477 22 12C22 17.523 17.523 22 12 22C6.477 22 2 17.523 2 12ZM9 8C9 7.73478 9.10536 7.48043 9.29289 7.29289C9.48043 7.10536 9.73478 7 10 7H12.5C13.2488 6.99989 13.9778 7.23991 14.5801 7.68478C15.1823 8.12966 15.626 8.75595 15.846 9.47165C16.066 10.1874 16.0507 10.9547 15.8023 11.6611C15.5539 12.3674 15.0855 12.9755 14.466 13.396L15.832 15.446C15.9736 15.6667 16.0228 15.9341 15.9691 16.1908C15.9154 16.4474 15.7631 16.6727 15.5449 16.8181C15.3267 16.9635 15.0602 17.0174 14.8026 16.9682C14.5451 16.919 14.3172 16.7706 14.168 16.555L12.465 14H11V16C11 16.2652 10.8946 16.5196 10.7071 16.7071C10.5196 16.8946 10.2652 17 10 17C9.73478 17 9.48043 16.8946 9.29289 16.7071C9.10536 16.5196 9 16.2652 9 16V8Z" fill="currentColor"/>
</svg>
