<svg width="24" height="24" viewBox="0 0 24 24" fill="none" xmlns="http://www.w3.org/2000/svg">
<path d="M16 12C16.7957 12 17.5587 12.3161 18.1214 12.8787C18.684 13.4413 19 14.2044 19 15V21C19 21.552 18.55 22 17.997 22H6.00003C5.73481 22 5.48046 21.8947 5.29292 21.7071C5.10539 21.5196 5.00003 21.2652 5.00003 21V15C5.00003 14.2044 5.3161 13.4413 5.87871 12.8787C6.44132 12.3161 7.20438 12 8.00003 12H16ZM14 16H10C9.74515 16.0003 9.5 16.0979 9.31466 16.2729C9.12933 16.4478 9.01779 16.687 9.00286 16.9414C8.98792 17.1958 9.0707 17.4464 9.23429 17.6418C9.39788 17.8373 9.62993 17.9629 9.88303 17.993L10 18H14C14.2549 17.9997 14.5001 17.9021 14.6854 17.7272C14.8707 17.5522 14.9823 17.3131 14.9972 17.0586C15.0121 16.8042 14.9294 16.5536 14.7658 16.3582C14.6022 16.1627 14.3701 16.0371 14.117 16.007L14 16ZM12 8.00001C13.06 8.00001 14.047 8.33101 14.857 8.89601C15.0746 9.04771 15.2231 9.27965 15.2697 9.54079C15.3163 9.80194 15.2572 10.0709 15.1055 10.2885C14.9538 10.5061 14.7219 10.6546 14.4607 10.7012C14.1996 10.7478 13.9306 10.6887 13.713 10.537C13.2107 10.1863 12.6126 9.99881 12 10C11.361 10 10.772 10.198 10.287 10.537C10.1795 10.6153 10.0574 10.6714 9.92792 10.702C9.79844 10.7325 9.66416 10.7369 9.53295 10.7149C9.40175 10.6929 9.27625 10.645 9.16381 10.5739C9.05137 10.5027 8.95425 10.4099 8.87813 10.3008C8.80202 10.1917 8.74844 10.0685 8.72054 9.9384C8.69264 9.80832 8.69098 9.67398 8.71564 9.54325C8.74031 9.41252 8.79082 9.28802 8.86421 9.17706C8.93759 9.06609 9.03239 8.97088 9.14303 8.89701C9.98084 8.31211 10.9782 7.99896 12 8.00001ZM12 5.00001C13.918 5.00001 15.681 5.67601 17.06 6.80301C17.2607 6.97233 17.3867 7.21378 17.4109 7.47522C17.4351 7.73667 17.3555 7.99713 17.1893 8.20038C17.023 8.40363 16.7835 8.53335 16.5225 8.56153C16.2615 8.58971 15.9998 8.5141 15.794 8.35101C14.724 7.4749 13.383 6.99739 12 7.00001C10.56 7.00001 9.24203 7.50601 8.20803 8.35001C8.1065 8.43458 7.98922 8.49818 7.86296 8.53715C7.7367 8.57612 7.60397 8.58968 7.47244 8.57705C7.34091 8.56441 7.21319 8.52584 7.09665 8.46355C6.98012 8.40127 6.87708 8.3165 6.7935 8.21416C6.70992 8.11181 6.64746 7.99392 6.60971 7.86729C6.57196 7.74066 6.55969 7.60781 6.57359 7.4764C6.5875 7.345 6.6273 7.21766 6.69071 7.10173C6.75413 6.98581 6.83988 6.8836 6.94303 6.80101C8.36977 5.63405 10.1568 4.9976 12 5.00001ZM12 2.00001C14.6493 1.99625 17.2102 2.95221 19.209 4.69101C19.4041 4.86631 19.5224 5.11121 19.5387 5.37295C19.5549 5.6347 19.4676 5.89233 19.2957 6.09035C19.1238 6.28837 18.8809 6.41094 18.6195 6.43164C18.3581 6.45233 18.099 6.36951 17.898 6.20101C16.2629 4.77818 14.1675 3.99623 12 4.00001C9.83116 3.99585 7.73456 4.77941 6.10003 6.20501C5.89979 6.37899 5.63864 6.4663 5.37403 6.44774C5.10941 6.42917 4.86301 6.30625 4.68903 6.10601C4.51505 5.90577 4.42774 5.64462 4.4463 5.38001C4.46487 5.11539 4.58779 4.86899 4.78803 4.69501C6.78707 2.95416 9.34924 1.99672 12 2.00001Z" fill="currentColor"/>
</svg>
