<svg width="24" height="24" viewBox="0 0 24 24" fill="none" xmlns="http://www.w3.org/2000/svg">
<path d="M16 2C16.7652 1.99996 17.5015 2.29233 18.0583 2.81728C18.615 3.34224 18.9501 4.06011 18.995 4.824L19 5V19C19 19.7652 18.7077 20.5015 18.1827 21.0583C17.6578 21.615 16.9399 21.9501 16.176 21.995L16 22H8C7.23479 22 6.49849 21.7077 5.94174 21.1827C5.38499 20.6578 5.04989 19.9399 5.005 19.176L5 19V5C4.99996 4.23479 5.29233 3.49849 5.81728 2.94174C6.34224 2.38499 7.06011 2.04989 7.824 2.005L8 2H16ZM14 17H13.5C13.2348 17 12.9804 17.1054 12.7929 17.2929C12.6054 17.4804 12.5 17.7348 12.5 18C12.5 18.2652 12.6054 18.5196 12.7929 18.7071C12.9804 18.8946 13.2348 19 13.5 19H14C14.2652 19 14.5196 18.8946 14.7071 18.7071C14.8946 18.5196 15 18.2652 15 18C15 17.7348 14.8946 17.4804 14.7071 17.2929C14.5196 17.1054 14.2652 17 14 17ZM10.5 17H10C9.74512 17.0003 9.49997 17.0979 9.31463 17.2728C9.1293 17.4478 9.01776 17.687 9.00283 17.9414C8.98789 18.1958 9.07067 18.4464 9.23426 18.6418C9.39785 18.8373 9.6299 18.9629 9.883 18.993L10 19H10.5C10.7549 18.9997 11 18.9021 11.1854 18.7272C11.3707 18.5522 11.4822 18.313 11.4972 18.0586C11.5121 17.8042 11.4293 17.5536 11.2657 17.3582C11.1021 17.1627 10.8701 17.0371 10.617 17.007L10.5 17ZM14 14H13.5C13.2348 14 12.9804 14.1054 12.7929 14.2929C12.6054 14.4804 12.5 14.7348 12.5 15C12.5 15.2652 12.6054 15.5196 12.7929 15.7071C12.9804 15.8946 13.2348 16 13.5 16H14C14.2652 16 14.5196 15.8946 14.7071 15.7071C14.8946 15.5196 15 15.2652 15 15C15 14.7348 14.8946 14.4804 14.7071 14.2929C14.5196 14.1054 14.2652 14 14 14ZM10.5 14H10C9.74512 14.0003 9.49997 14.0979 9.31463 14.2728C9.1293 14.4478 9.01776 14.687 9.00283 14.9414C8.98789 15.1958 9.07067 15.4464 9.23426 15.6418C9.39785 15.8373 9.6299 15.9629 9.883 15.993L10 16H10.5C10.7549 15.9997 11 15.9021 11.1854 15.7272C11.3707 15.5522 11.4822 15.313 11.4972 15.0586C11.5121 14.8042 11.4293 14.5536 11.2657 14.3582C11.1021 14.1627 10.8701 14.0371 10.617 14.007L10.5 14ZM12 5C11.0717 5 10.1815 5.36875 9.52513 6.02513C8.86875 6.6815 8.5 7.57174 8.5 8.5C8.5 9.42826 8.86875 10.3185 9.52513 10.9749C10.1815 11.6313 11.0717 12 12 12C12.9283 12 13.8185 11.6313 14.4749 10.9749C15.1313 10.3185 15.5 9.42826 15.5 8.5C15.5 7.57174 15.1313 6.6815 14.4749 6.02513C13.8185 5.36875 12.9283 5 12 5ZM12 7C12.3978 7 12.7794 7.15804 13.0607 7.43934C13.342 7.72064 13.5 8.10218 13.5 8.5C13.5 8.89782 13.342 9.27936 13.0607 9.56066C12.7794 9.84196 12.3978 10 12 10C11.6022 10 11.2206 9.84196 10.9393 9.56066C10.658 9.27936 10.5 8.89782 10.5 8.5C10.5 8.10218 10.658 7.72064 10.9393 7.43934C11.2206 7.15804 11.6022 7 12 7Z" fill="currentColor"/>
</svg>
