<svg width="24" height="24" viewBox="0 0 24 24" fill="none" xmlns="http://www.w3.org/2000/svg">
<path fill-rule="evenodd" clip-rule="evenodd" d="M19 2.5C19.6347 2.4999 20.2457 2.74123 20.709 3.17504C21.1724 3.60885 21.4534 4.20265 21.495 4.836L21.5 5V15C21.5001 15.6347 21.2588 16.2457 20.825 16.709C20.3912 17.1724 19.7973 17.4534 19.164 17.495L19 17.5H17.5V19C17.5001 19.6347 17.2588 20.2457 16.825 20.709C16.3912 21.1724 15.7974 21.4534 15.164 21.495L15 21.5H5C4.36528 21.5001 3.75429 21.2588 3.29095 20.825C2.82762 20.3912 2.54664 19.7973 2.505 19.164L2.5 19V9C2.4999 8.36528 2.74123 7.75429 3.17504 7.29095C3.60885 6.82762 4.20265 6.54664 4.836 6.505L5 6.5H6.5V5C6.4999 4.36528 6.74123 3.75429 7.17504 3.29095C7.60885 2.82762 8.20265 2.54664 8.836 2.505L9 2.5H19ZM14.5 9.5H5.5V18.5H14.5V9.5ZM18.5 5.5H9.5V6.5H15L15.164 6.505C15.7688 6.5449 16.3386 6.8032 16.7672 7.23181C17.1958 7.66042 17.4541 8.23016 17.494 8.835L17.5 9V14.5H18.5V5.5Z" fill="currentColor"/>
</svg>
