<svg width="24" height="24" viewBox="0 0 24 24" fill="none" xmlns="http://www.w3.org/2000/svg">
<path d="M7.99993 2C7.20428 2 6.44122 2.31607 5.87861 2.87868C5.316 3.44129 4.99993 4.20435 4.99993 5C4.99993 5.79565 5.316 6.55871 5.87861 7.12132C6.44122 7.68393 7.20428 8 7.99993 8C8.79558 8 9.55865 7.68393 10.1213 7.12132C10.6839 6.55871 10.9999 5.79565 10.9999 5C10.9999 4.20435 10.6839 3.44129 10.1213 2.87868C9.55865 2.31607 8.79558 2 7.99993 2ZM15.9999 2C15.2043 2 14.4412 2.31607 13.8786 2.87868C13.316 3.44129 12.9999 4.20435 12.9999 5C12.9999 5.79565 13.316 6.55871 13.8786 7.12132C14.4412 7.68393 15.2043 8 15.9999 8C16.7956 8 17.5586 7.68393 18.1213 7.12132C18.6839 6.55871 18.9999 5.79565 18.9999 5C18.9999 4.20435 18.6839 3.44129 18.1213 2.87868C17.5586 2.31607 16.7956 2 15.9999 2ZM4.10293 11.181C4.07778 10.9042 4.11059 10.6252 4.19927 10.3618C4.28795 10.0984 4.43055 9.85643 4.61798 9.65122C4.8054 9.44601 5.03354 9.28212 5.28784 9.16999C5.54214 9.05787 5.81701 8.99997 6.09493 9H9.90493C10.1829 8.99997 10.4577 9.05787 10.712 9.16999C10.9663 9.28212 11.1945 9.44601 11.3819 9.65122C11.5693 9.85643 11.7119 10.0984 11.8006 10.3618C11.8893 10.6252 11.9221 10.9042 11.8969 11.181L10.9959 21.091C10.9732 21.3395 10.8585 21.5704 10.6742 21.7386C10.4899 21.9068 10.2494 22 9.99993 22H5.99993C5.75029 22 5.50966 21.9067 5.32536 21.7383C5.14106 21.5699 5.0264 21.3386 5.00393 21.09L4.10293 11.181ZM14.8199 9C14.3576 9.00005 13.9095 9.16029 13.552 9.45346C13.1945 9.74663 12.9496 10.1546 12.8589 10.608L12.0189 14.804C11.9899 14.9491 11.9935 15.0988 12.0294 15.2424C12.0652 15.386 12.1325 15.5198 12.2264 15.6342C12.3202 15.7486 12.4383 15.8408 12.572 15.904C12.7058 15.9673 12.852 16.0001 12.9999 16V21C12.9999 21.2652 13.1053 21.5196 13.2928 21.7071C13.4804 21.8946 13.7347 22 13.9999 22H17.9999C18.2652 22 18.5195 21.8946 18.707 21.7071C18.8946 21.5196 18.9999 21.2652 18.9999 21V16C19.1478 15.9999 19.2939 15.967 19.4275 15.9037C19.5612 15.8404 19.6791 15.7482 19.7728 15.6338C19.8666 15.5194 19.9338 15.3856 19.9696 15.2422C20.0054 15.0987 20.0089 14.949 19.9799 14.804L19.1419 10.608C19.0513 10.1544 18.8062 9.74633 18.4485 9.45314C18.0908 9.15995 17.6425 8.99982 17.1799 9H14.8199Z" fill="currentColor"/>
</svg>
