<svg width="24" height="24" viewBox="0 0 24 24" fill="none" xmlns="http://www.w3.org/2000/svg">
<path d="M6.44 1.43998C6.68312 1.19797 7.00184 1.0466 7.34303 1.01111C7.68423 0.97561 8.02728 1.05813 8.31501 1.24492C8.60273 1.43171 8.81774 1.71147 8.92419 2.03757C9.03064 2.36368 9.0221 2.71641 8.9 3.03698L8.842 3.16998L8.677 3.49898H18C19.1568 3.49898 20.2691 3.94445 21.1061 4.74291C21.9431 5.54137 22.4405 6.6315 22.495 7.78698L22.5 7.99998V16C22.5 17.1568 22.0545 18.2691 21.2561 19.1061C20.4576 19.9431 19.3675 20.4405 18.212 20.495L18 20.5H6C4.84323 20.5 3.73089 20.0545 2.89388 19.2561C2.05687 18.4576 1.5595 17.3675 1.505 16.212L1.5 16V11C1.50019 10.6148 1.64858 10.2444 1.91441 9.9656C2.18024 9.68681 2.54314 9.52097 2.92791 9.50246C3.31269 9.48395 3.68983 9.61418 3.9812 9.86616C4.27257 10.1181 4.45583 10.4726 4.493 10.856L4.5 11V16C4.50002 16.3729 4.63892 16.7324 4.88962 17.0084C5.14032 17.2844 5.48484 17.4572 5.856 17.493L6 17.5H18C18.3729 17.5 18.7324 17.3611 19.0084 17.1104C19.2844 16.8597 19.4572 16.5151 19.493 16.144L19.5 16V7.99998C19.5 7.6271 19.3611 7.26759 19.1104 6.99156C18.8597 6.71554 18.5152 6.54278 18.144 6.50698L18 6.49998H5.024C3.725 6.49998 3.052 4.98398 3.864 4.02298L3.956 3.92298L6.44 1.43998ZM15.45 6.99998C16.312 6.99998 17.1386 7.34239 17.7481 7.95189C18.3576 8.56138 18.7 9.38803 18.7 10.25V13.75C18.7 14.6119 18.3576 15.4386 17.7481 16.0481C17.1386 16.6576 16.312 17 15.45 17C14.588 17 13.7614 16.6576 13.1519 16.0481C12.5424 15.4386 12.2 14.6119 12.2 13.75V10.25C12.2 9.38803 12.5424 8.56138 13.1519 7.95189C13.7614 7.34239 14.588 6.99998 15.45 6.99998ZM8.48 6.99998C9.06051 6.99989 9.63025 7.15673 10.1289 7.45391C10.6276 7.75109 11.0367 8.17755 11.3128 8.68816C11.589 9.19878 11.722 9.77455 11.6977 10.3546C11.6734 10.9346 11.4928 11.4972 11.175 11.983C11.4831 12.4526 11.6621 12.9949 11.6942 13.5556C11.7262 14.1163 11.6101 14.6756 11.3576 15.1772C11.1051 15.6788 10.725 16.1051 10.2555 16.4133C9.786 16.7215 9.24368 16.9008 8.683 16.933L8.501 16.938H8.2C6.873 16.938 5.774 16.061 5.33 15.013C5.24485 14.8304 5.19733 14.6326 5.19029 14.4313C5.18324 14.23 5.21682 14.0293 5.28901 13.8413C5.36119 13.6532 5.47052 13.4817 5.61046 13.3368C5.75039 13.1919 5.91808 13.0767 6.10351 12.998C6.28894 12.9193 6.48831 12.8788 6.68974 12.8789C6.89117 12.8789 7.09053 12.9195 7.27592 12.9983C7.46131 13.0771 7.62893 13.1924 7.7688 13.3373C7.90867 13.4823 8.01791 13.6539 8.09 13.842C8.104 13.868 8.13 13.897 8.16 13.917L8.205 13.937H8.501C8.53613 13.9366 8.57055 13.927 8.60079 13.9091C8.63103 13.8913 8.65602 13.8657 8.67326 13.8351C8.69049 13.8045 8.69935 13.7699 8.69896 13.7347C8.69856 13.6996 8.68892 13.6652 8.671 13.635L8.637 13.593L8.527 13.49C8.17557 13.4496 7.84972 13.2863 7.60702 13.0289C7.36432 12.7716 7.22038 12.4367 7.20064 12.0835C7.1809 11.7303 7.28662 11.3815 7.49913 11.0987C7.71164 10.8159 8.01726 10.6173 8.362 10.538L8.497 10.514L8.635 10.377C8.66281 10.3498 8.68293 10.3158 8.69332 10.2783C8.70371 10.2409 8.70399 10.2014 8.69413 10.1638C8.68427 10.1262 8.66463 10.0919 8.63721 10.0643C8.60979 10.0368 8.57555 10.017 8.538 10.007L8.48 9.99998H8.205C8.15605 10.0161 8.11521 10.0505 8.091 10.096C7.93558 10.4622 7.64103 10.7518 7.27215 10.9009C6.90327 11.05 6.49026 11.0464 6.124 10.891C5.75774 10.7356 5.46821 10.441 5.31912 10.0721C5.17003 9.70325 5.17358 9.29025 5.329 8.92398C5.752 7.92898 6.765 7.08798 8.003 7.00698L8.2 6.99998H8.48ZM15.45 9.99998C15.3837 9.99998 15.3201 10.0263 15.2732 10.0732C15.2263 10.1201 15.2 10.1837 15.2 10.25V13.75C15.2 13.8163 15.2263 13.8799 15.2732 13.9268C15.3201 13.9736 15.3837 14 15.45 14C15.5163 14 15.5799 13.9736 15.6268 13.9268C15.6737 13.8799 15.7 13.8163 15.7 13.75V10.25C15.7 10.1837 15.6737 10.1201 15.6268 10.0732C15.5799 10.0263 15.5163 9.99998 15.45 9.99998Z" fill="currentColor"/>
</svg>
