<svg width="24" height="24" viewBox="0 0 24 24" fill="none" xmlns="http://www.w3.org/2000/svg">
<path fill-rule="evenodd" clip-rule="evenodd" d="M15.623 1.28297C15.9119 1.07461 16.2656 0.975889 16.6207 1.00447C16.9758 1.03305 17.3091 1.18708 17.561 1.43897L20.044 3.92197C20.994 4.87397 20.321 6.49997 18.976 6.49997H6C5.60218 6.49997 5.22064 6.65801 4.93934 6.93931C4.65804 7.22062 4.5 7.60215 4.5 7.99997V16C4.5 16.3978 4.65804 16.7793 4.93934 17.0606C5.22064 17.3419 5.60218 17.5 6 17.5H18C18.3978 17.5 18.7794 17.3419 19.0607 17.0606C19.342 16.7793 19.5 16.3978 19.5 16V11C19.5 10.6021 19.658 10.2206 19.9393 9.93931C20.2206 9.65801 20.6022 9.49997 21 9.49997C21.3978 9.49997 21.7794 9.65801 22.0607 9.93931C22.342 10.2206 22.5 10.6021 22.5 11V16C22.5 17.1934 22.0259 18.338 21.182 19.182C20.3381 20.0259 19.1935 20.5 18 20.5H6C4.80653 20.5 3.66193 20.0259 2.81802 19.182C1.97411 18.338 1.5 17.1934 1.5 16V7.99997C1.5 6.8065 1.97411 5.66191 2.81802 4.81799C3.66193 3.97408 4.80653 3.49997 6 3.49997H15.323L15.158 3.16997C14.9989 2.85143 14.9584 2.48669 15.0436 2.14098C15.1288 1.79528 15.3341 1.49114 15.623 1.28297ZM9.008 8.89797C9.008 7.84797 9.858 6.99797 10.908 6.99797H13.573C13.9708 6.99797 14.3524 7.15601 14.6337 7.43731C14.915 7.71862 15.073 8.10015 15.073 8.49797C15.073 8.8958 14.915 9.27733 14.6337 9.55863C14.3524 9.83994 13.9708 9.99797 13.573 9.99797H12.008V10.176H12.04C14.065 10.176 15.456 11.753 15.456 13.592C15.4557 14.4978 15.0957 15.3664 14.4551 16.0068C13.8145 16.6472 12.9458 17.007 12.04 17.007C11.6 17.007 11.135 16.905 10.758 16.783C10.397 16.666 9.922 16.468 9.545 16.157C9.24242 15.9045 9.05132 15.5432 9.01302 15.151C8.97471 14.7588 9.09227 14.3673 9.34029 14.0611C9.58831 13.7549 9.94686 13.5585 10.3385 13.5145C10.73 13.4706 11.1232 13.5824 11.433 13.826C11.458 13.84 11.563 13.891 11.683 13.93C11.853 13.985 12 14.008 12.04 14.008C12.27 14.008 12.456 13.821 12.456 13.592C12.456 13.428 12.399 13.33 12.351 13.28C12.309 13.237 12.225 13.176 12.041 13.176C11.529 13.176 11.018 13.18 10.508 13.18C10.1102 13.18 9.72864 13.0219 9.44734 12.7406C9.16604 12.4593 9.008 12.0778 9.008 11.68V8.89797Z" fill="currentColor"/>
</svg>
