<svg width="24" height="24" viewBox="0 0 24 24" fill="none" xmlns="http://www.w3.org/2000/svg">
<path d="M5.43898 0.501021C5.77224 0.487329 6.10055 0.585101 6.37203 0.778881C6.6435 0.972662 6.84264 1.2514 6.93798 1.57102L6.97098 1.70502L7.16198 2.65802C9.36021 1.51161 11.8942 1.18343 14.312 1.73202C19.968 3.00702 23.521 8.62702 22.246 14.284C20.971 19.941 15.351 23.494 9.69398 22.218C4.81798 21.12 1.50798 16.795 1.50098 12C1.50045 11.6022 1.65797 11.2205 1.9389 10.9388C2.21983 10.6571 2.60115 10.4986 2.99898 10.498C3.3968 10.4975 3.77854 10.655 4.06022 10.9359C4.3419 11.2169 4.50045 11.5982 4.50098 11.996C4.50597 13.7648 5.13593 15.4749 6.27957 16.8242C7.42321 18.1735 9.00692 19.0751 10.7509 19.3699C12.495 19.6647 14.2871 19.3337 15.8106 18.4352C17.3342 17.5367 18.4912 16.1287 19.0773 14.4599C19.6633 12.791 19.6407 10.9687 19.0134 9.31495C18.3861 7.66116 17.1945 6.28229 15.6491 5.42192C14.1037 4.56155 12.304 4.27506 10.5678 4.61304C8.83163 4.95103 7.27077 5.89175 6.16098 7.26902C5.96425 7.51229 5.69638 7.68795 5.39486 7.77143C5.09334 7.8549 4.77327 7.84201 4.47944 7.73455C4.18561 7.62709 3.93274 7.43045 3.75621 7.17215C3.57969 6.91385 3.48835 6.60681 3.49498 6.29402L3.50498 6.15202L4.00998 1.82702C4.05095 1.47165 4.21757 1.14262 4.47978 0.899296C4.742 0.655968 5.08254 0.514361 5.43998 0.500021M9.20898 7.17702C9.4482 7.30533 9.64812 7.49615 9.78742 7.72914C9.92672 7.96214 10.0002 8.22856 9.99998 8.50002V15.5C9.99998 15.8978 9.84194 16.2794 9.56064 16.5607C9.27933 16.842 8.8978 17 8.49998 17C8.10215 17 7.72062 16.842 7.43932 16.5607C7.15801 16.2794 6.99998 15.8978 6.99998 15.5V11C6.67807 11 6.36471 10.8964 6.10621 10.7045C5.84771 10.5127 5.65778 10.2428 5.5645 9.93468C5.47122 9.62658 5.47953 9.29665 5.5882 8.99364C5.69688 8.69062 5.90015 8.43061 6.16798 8.25202L7.66798 7.25202C7.89394 7.10146 8.15653 7.01505 8.42774 7.00202C8.69896 6.98899 8.96862 7.04982 9.20798 7.17802M14.5 7.00002C15.395 6.99995 16.2561 7.3428 16.9062 7.95808C17.5562 8.57336 17.9459 9.4143 17.995 10.308L18 10.5V13.5C18.0013 14.4125 17.6462 15.2895 17.0103 15.9439C16.3745 16.5984 15.5082 16.9787 14.596 17.0038C13.6839 17.0288 12.798 16.6966 12.1272 16.078C11.4564 15.4594 11.0537 14.6032 11.005 13.692L11 13.5V10.5C11 9.57176 11.3687 8.68152 12.0251 8.02515C12.6815 7.36877 13.5717 7.00002 14.5 7.00002ZM14.5 10C14.383 9.99998 14.2696 10.041 14.1797 10.1159C14.0898 10.1908 14.029 10.2949 14.008 10.41L14 10.5V13.5C13.9997 13.625 14.0463 13.7455 14.1305 13.8378C14.2147 13.9301 14.3304 13.9876 14.4548 13.9989C14.5792 14.0102 14.7034 13.9745 14.8028 13.8988C14.9022 13.8231 14.9697 13.713 14.992 13.59L15 13.5V10.5C15 10.3674 14.9473 10.2402 14.8535 10.1465C14.7598 10.0527 14.6326 10 14.5 10Z" fill="currentColor"/>
</svg>
