<svg width="24" height="24" viewBox="0 0 24 24" fill="none" xmlns="http://www.w3.org/2000/svg">
<path fill-rule="evenodd" clip-rule="evenodd" d="M8.377 1.28301C8.66609 1.49122 8.87164 1.79553 8.95684 2.14146C9.04204 2.48739 9.00133 2.85236 8.842 3.17101L8.677 3.50001H18C19.1935 3.50001 20.3381 3.97412 21.182 4.81803C22.0259 5.66194 22.5 6.80654 22.5 8.00001V16C22.5 17.1935 22.0259 18.3381 21.182 19.182C20.3381 20.0259 19.1935 20.5 18 20.5H6C4.80653 20.5 3.66193 20.0259 2.81802 19.182C1.97411 18.3381 1.5 17.1935 1.5 16V11C1.5 10.6022 1.65804 10.2207 1.93934 9.93935C2.22064 9.65805 2.60218 9.50001 3 9.50001C3.39782 9.50001 3.77936 9.65805 4.06066 9.93935C4.34196 10.2207 4.5 10.6022 4.5 11V16C4.5 16.3978 4.65804 16.7794 4.93934 17.0607C5.22064 17.342 5.60218 17.5 6 17.5H18C18.3978 17.5 18.7794 17.342 19.0607 17.0607C19.342 16.7794 19.5 16.3978 19.5 16V8.00001C19.5 7.60219 19.342 7.22065 19.0607 6.93935C18.7794 6.65805 18.3978 6.50001 18 6.50001H5.024C3.679 6.50001 3.005 4.87401 3.956 3.92201L6.44 1.44001C6.6919 1.18812 7.02522 1.03409 7.3803 1.00551C7.73539 0.976927 8.08906 1.07565 8.378 1.28401M9.208 7.17901C9.44711 7.30703 9.64703 7.49748 9.7865 7.73009C9.92596 7.96271 9.99975 8.22879 10 8.50001V15.5C10 15.8978 9.84196 16.2794 9.56066 16.5607C9.27936 16.842 8.89782 17 8.5 17C8.10218 17 7.72064 16.842 7.43934 16.5607C7.15804 16.2794 7 15.8978 7 15.5V11C6.67774 11.0007 6.36384 10.8975 6.10484 10.7057C5.84585 10.514 5.65555 10.2438 5.56216 9.93539C5.46878 9.62695 5.47728 9.29663 5.58641 8.99341C5.69554 8.69018 5.89948 8.4302 6.168 8.25201L7.668 7.25201C7.89396 7.10145 8.15655 7.01504 8.42776 7.00201C8.69898 6.98898 8.96865 7.05081 9.208 7.17901ZM11 10.5C11 9.57175 11.3687 8.68151 12.0251 8.02514C12.6815 7.36876 13.5717 7.00001 14.5 7.00001C15.4283 7.00001 16.3185 7.36876 16.9749 8.02514C17.6313 8.68151 18 9.57175 18 10.5V13.5C18 13.9596 17.9095 14.4148 17.7336 14.8394C17.5577 15.264 17.2999 15.6499 16.9749 15.9749C16.6499 16.2999 16.264 16.5577 15.8394 16.7336C15.4148 16.9095 14.9596 17 14.5 17C14.0404 17 13.5852 16.9095 13.1606 16.7336C12.736 16.5577 12.3501 16.2999 12.0251 15.9749C11.7001 15.6499 11.4423 15.264 11.2664 14.8394C11.0905 14.4148 11 13.9596 11 13.5V10.5ZM14.5 10C14.3674 10 14.2402 10.0527 14.1464 10.1465C14.0527 10.2402 14 10.3674 14 10.5V13.5C14 13.6326 14.0527 13.7598 14.1464 13.8536C14.2402 13.9473 14.3674 14 14.5 14C14.6326 14 14.7598 13.9473 14.8536 13.8536C14.9473 13.7598 15 13.6326 15 13.5V10.5C15 10.3674 14.9473 10.2402 14.8536 10.1465C14.7598 10.0527 14.6326 10 14.5 10Z" fill="currentColor"/>
</svg>
