<svg width="24" height="24" viewBox="0 0 24 24" fill="none" xmlns="http://www.w3.org/2000/svg">
<path fill-rule="evenodd" clip-rule="evenodd" d="M15.623 1.28297C15.9119 1.07461 16.2656 0.975889 16.6207 1.00447C16.9758 1.03305 17.3091 1.18708 17.561 1.43897L20.044 3.92197C20.994 4.87397 20.321 6.49997 18.976 6.49997H6C5.60218 6.49997 5.22064 6.65801 4.93934 6.93931C4.65804 7.22062 4.5 7.60215 4.5 7.99997V16C4.5 16.3978 4.65804 16.7793 4.93934 17.0606C5.22064 17.3419 5.60218 17.5 6 17.5H18C18.3978 17.5 18.7794 17.3419 19.0607 17.0606C19.342 16.7793 19.5 16.3978 19.5 16V11C19.5 10.6021 19.658 10.2206 19.9393 9.93931C20.2206 9.65801 20.6022 9.49997 21 9.49997C21.3978 9.49997 21.7794 9.65801 22.0607 9.93931C22.342 10.2206 22.5 10.6021 22.5 11V16C22.5 17.1934 22.0259 18.338 21.182 19.182C20.3381 20.0259 19.1935 20.5 18 20.5H6C4.80653 20.5 3.66193 20.0259 2.81802 19.182C1.97411 18.338 1.5 17.1934 1.5 16V7.99997C1.5 6.8065 1.97411 5.66191 2.81802 4.81799C3.66193 3.97408 4.80653 3.49997 6 3.49997H15.323L15.158 3.16997C14.9989 2.85143 14.9584 2.48669 15.0436 2.14098C15.1288 1.79528 15.3341 1.49114 15.623 1.28297ZM9.208 7.17797C9.44726 7.30607 9.64728 7.49668 9.78675 7.72949C9.92623 7.9623 9.99993 8.22858 10 8.49997V15.5C10 15.8978 9.84196 16.2793 9.56066 16.5606C9.27936 16.8419 8.89782 17 8.5 17C8.10218 17 7.72064 16.8419 7.43934 16.5606C7.15804 16.2793 7 15.8978 7 15.5V11C6.67774 11.0006 6.36384 10.8975 6.10484 10.7057C5.84585 10.5139 5.65555 10.2438 5.56216 9.93535C5.46878 9.62691 5.47728 9.29659 5.58641 8.99337C5.69554 8.69015 5.89948 8.43016 6.168 8.25197L7.668 7.25197C7.89396 7.10141 8.15655 7.015 8.42776 7.00197C8.69898 6.98894 8.96865 7.04977 9.208 7.17797ZM11 10.5C11 9.57171 11.3687 8.68148 12.0251 8.0251C12.6815 7.36872 13.5717 6.99997 14.5 6.99997C15.4283 6.99997 16.3185 7.36872 16.9749 8.0251C17.6313 8.68148 18 9.57171 18 10.5V13.5C18 13.9596 17.9095 14.4147 17.7336 14.8394C17.5577 15.264 17.2999 15.6498 16.9749 15.9748C16.6499 16.2999 16.264 16.5577 15.8394 16.7336C15.4148 16.9094 14.9596 17 14.5 17C14.0404 17 13.5852 16.9094 13.1606 16.7336C12.736 16.5577 12.3501 16.2999 12.0251 15.9748C11.7001 15.6498 11.4423 15.264 11.2664 14.8394C11.0905 14.4147 11 13.9596 11 13.5V10.5ZM14.5 9.99997C14.3674 9.99997 14.2402 10.0527 14.1464 10.1464C14.0527 10.2402 14 10.3674 14 10.5V13.5C14 13.6326 14.0527 13.7598 14.1464 13.8535C14.2402 13.9473 14.3674 14 14.5 14C14.6326 14 14.7598 13.9473 14.8536 13.8535C14.9473 13.7598 15 13.6326 15 13.5V10.5C15 10.3674 14.9473 10.2402 14.8536 10.1464C14.7598 10.0527 14.6326 9.99997 14.5 9.99997Z" fill="currentColor"/>
</svg>
