<svg width="24" height="24" viewBox="0 0 24 24" fill="none" xmlns="http://www.w3.org/2000/svg">
<path d="M18.561 0.500983C18.9179 0.515487 19.258 0.656915 19.52 0.899816C19.7819 1.14272 19.9486 1.47114 19.99 1.82598L20.495 6.15098C20.5329 6.47401 20.4648 6.80061 20.301 7.08156C20.1371 7.36252 19.8864 7.5826 19.5865 7.70865C19.2867 7.83469 18.954 7.85987 18.6387 7.78039C18.3233 7.70091 18.0423 7.52107 17.838 7.26798C16.7282 5.89071 15.1673 4.94999 13.4312 4.61201C11.695 4.27402 9.89524 4.56051 8.34984 5.42088C6.80443 6.28125 5.61283 7.66013 4.98553 9.31392C4.35824 10.9677 4.33562 12.79 4.92168 14.4588C5.50773 16.1277 6.66475 17.5357 8.18833 18.4342C9.7119 19.3326 11.504 19.6637 13.248 19.3689C14.992 19.0741 16.5758 18.1724 17.7194 16.8231C18.863 15.4738 19.493 13.7637 19.498 11.995C19.4985 11.597 19.6571 11.2156 19.9389 10.9346C20.2207 10.6535 20.6025 10.496 21.0005 10.4965C21.3984 10.497 21.7799 10.6556 22.0609 10.9374C22.3419 11.2192 22.4995 11.601 22.499 11.999C22.492 16.794 19.182 21.119 14.306 22.219C8.64899 23.493 3.02899 19.941 1.75399 14.284C0.479989 8.62698 4.03199 3.00698 9.68999 1.73198C12.1074 1.18364 14.641 1.51181 16.839 2.65798L17.03 1.70498C17.0999 1.35475 17.2926 1.04097 17.5732 0.820078C17.8539 0.599187 18.2041 0.486684 18.561 0.500983ZM15.573 6.99698C15.9582 6.99717 16.3286 7.14556 16.6074 7.41139C16.8862 7.67722 17.052 8.04013 17.0705 8.4249C17.089 8.80967 16.9588 9.18682 16.7068 9.47818C16.4548 9.76955 16.1004 9.95281 15.717 9.98998L15.573 9.99698H14.008V10.175H14.04C16.065 10.175 17.456 11.752 17.456 13.591C17.456 14.497 17.0961 15.3658 16.4555 16.0065C15.8148 16.6471 14.946 17.007 14.04 17.007C13.6 17.007 13.135 16.904 12.758 16.782C12.397 16.665 11.922 16.467 11.545 16.156C11.2359 15.9055 11.0389 15.5425 10.9975 15.1468C10.956 14.7511 11.0735 14.3551 11.324 14.046C11.5745 13.7369 11.9375 13.5399 12.3332 13.4985C12.7289 13.457 13.1249 13.5745 13.434 13.825L13.498 13.856L13.614 13.904L13.757 13.95L13.893 13.982L14.04 14.007L14.124 13.998C14.2177 13.9787 14.3019 13.9276 14.3623 13.8535C14.4228 13.7794 14.4559 13.6867 14.456 13.591C14.456 13.427 14.4 13.33 14.351 13.279C14.309 13.237 14.225 13.175 14.041 13.175L12.508 13.179C12.1353 13.179 11.7759 13.0402 11.4999 12.7897C11.2239 12.5392 11.051 12.195 11.015 11.824L11.008 11.679V8.89798C11.0078 8.41972 11.1879 7.95896 11.5125 7.6077C11.8371 7.25643 12.2822 7.04049 12.759 7.00298L12.908 6.99798L15.573 6.99698ZM9.20799 7.17698C9.4474 7.30516 9.64752 7.49592 9.787 7.72893C9.92648 7.96193 10.0001 8.22842 9.99999 8.49998V15.5C9.99999 15.8978 9.84195 16.2793 9.56065 16.5606C9.27934 16.8419 8.89781 17 8.49999 17C8.10216 17 7.72063 16.8419 7.43933 16.5606C7.15802 16.2793 6.99999 15.8978 6.99999 15.5V11C6.67808 10.9999 6.36472 10.8964 6.10622 10.7045C5.84772 10.5127 5.65779 10.2427 5.56451 9.93465C5.47123 9.62655 5.47954 9.29661 5.58821 8.9936C5.69689 8.69059 5.90016 8.43057 6.16799 8.25198L7.66799 7.25198C7.89395 7.10142 8.15654 7.01501 8.42775 7.00198C8.69897 6.98895 8.96863 7.04878 9.20799 7.17698Z" fill="currentColor"/>
</svg>
