<svg width="24" height="24" viewBox="0 0 24 24" fill="none" xmlns="http://www.w3.org/2000/svg">
<path d="M8.377 1.28301C8.66609 1.49122 8.87164 1.79553 8.95684 2.14146C9.04204 2.48739 9.00133 2.85236 8.842 3.17101L8.677 3.50001H18C19.1935 3.50001 20.3381 3.97412 21.182 4.81803C22.0259 5.66194 22.5 6.80654 22.5 8.00001V16C22.5 17.1935 22.0259 18.3381 21.182 19.182C20.3381 20.0259 19.1935 20.5 18 20.5H6C4.80653 20.5 3.66193 20.0259 2.81802 19.182C1.97411 18.3381 1.5 17.1935 1.5 16V11C1.5 10.6022 1.65804 10.2207 1.93934 9.93935C2.22064 9.65805 2.60218 9.50001 3 9.50001C3.39782 9.50001 3.77936 9.65805 4.06066 9.93935C4.34196 10.2207 4.5 10.6022 4.5 11V16C4.5 16.3978 4.65804 16.7794 4.93934 17.0607C5.22064 17.342 5.60218 17.5 6 17.5H18C18.3978 17.5 18.7794 17.342 19.0607 17.0607C19.342 16.7794 19.5 16.3978 19.5 16V8.00001C19.5 7.60219 19.342 7.22065 19.0607 6.93935C18.7794 6.65805 18.3978 6.50001 18 6.50001H5.024C3.679 6.50001 3.005 4.87401 3.956 3.92201L6.44 1.44001C6.6919 1.18812 7.02522 1.03409 7.3803 1.00551C7.73539 0.976927 8.08906 1.07565 8.378 1.28401M15.574 6.99901C15.9592 6.9992 16.3296 7.14759 16.6084 7.41342C16.8872 7.67925 17.053 8.04215 17.0715 8.42693C17.09 8.8117 16.9598 9.18884 16.7078 9.48021C16.4558 9.77158 16.1014 9.95484 15.718 9.99201L15.574 9.99901H14.009V10.177H14.041C16.066 10.177 17.457 11.754 17.457 13.593C17.457 14.0416 17.3686 14.4858 17.197 14.9003C17.0253 15.3147 16.7737 15.6913 16.4565 16.0085C16.1393 16.3257 15.7627 16.5773 15.3482 16.749C14.9338 16.9207 14.4896 17.009 14.041 17.009C13.601 17.009 13.136 16.906 12.759 16.784C12.398 16.667 11.923 16.469 11.546 16.158C11.2369 15.9075 11.04 15.5445 10.9985 15.1488C10.9571 14.7531 11.0745 14.3571 11.325 14.048C11.5755 13.7389 11.9385 13.542 12.3342 13.5005C12.7299 13.4591 13.1259 13.5765 13.435 13.827L13.498 13.858L13.615 13.906L13.757 13.952L13.894 13.984L14.041 14.009C14.271 14.009 14.457 13.823 14.457 13.593C14.457 13.429 14.4 13.331 14.352 13.281C14.31 13.238 14.226 13.177 14.042 13.177L12.509 13.181C12.1363 13.181 11.7769 13.0423 11.5009 12.7918C11.2249 12.5413 11.052 12.197 11.016 11.826L11.009 11.681V8.89801C11.0088 8.41974 11.1889 7.95899 11.5135 7.60772C11.8381 7.25646 12.2832 7.04052 12.76 7.00301L12.909 6.99801L15.574 6.99901ZM9.209 7.17901C9.44792 7.30716 9.64764 7.49767 9.78693 7.73028C9.92621 7.96288 9.99984 8.22889 10 8.50001V15.5C10 15.8978 9.84196 16.2794 9.56066 16.5607C9.27936 16.842 8.89782 17 8.5 17C8.10218 17 7.72064 16.842 7.43934 16.5607C7.15804 16.2794 7 15.8978 7 15.5V11C6.67774 11.0007 6.36384 10.8975 6.10484 10.7057C5.84585 10.514 5.65555 10.2438 5.56216 9.93539C5.46878 9.62695 5.47728 9.29663 5.58641 8.99341C5.69554 8.69018 5.89948 8.4302 6.168 8.25201L7.668 7.25201C7.89396 7.10145 8.15655 7.01504 8.42776 7.00201C8.69898 6.98898 8.96865 7.04981 9.208 7.17801" fill="currentColor"/>
</svg>
