<svg width="24" height="24" viewBox="0 0 24 24" fill="none" xmlns="http://www.w3.org/2000/svg">
<path d="M18.561 0.500983C18.8945 0.514529 19.2139 0.638914 19.4688 0.854451C19.7236 1.06999 19.8993 1.36436 19.968 1.69098L19.99 1.82598L20.495 6.15098C20.5329 6.47401 20.4648 6.80061 20.301 7.08156C20.1371 7.36252 19.8864 7.5826 19.5865 7.70865C19.2867 7.83469 18.954 7.85987 18.6387 7.78039C18.3233 7.70091 18.0423 7.52107 17.838 7.26798C16.7282 5.89071 15.1673 4.94999 13.4312 4.61201C11.695 4.27402 9.89524 4.56051 8.34984 5.42088C6.80443 6.28125 5.61283 7.66013 4.98553 9.31392C4.35824 10.9677 4.33562 12.79 4.92168 14.4588C5.50773 16.1277 6.66475 17.5357 8.18833 18.4342C9.7119 19.3326 11.504 19.6637 13.248 19.3689C14.992 19.0741 16.5758 18.1724 17.7194 16.8231C18.863 15.4738 19.493 13.7637 19.498 11.995C19.4985 11.597 19.6571 11.2156 19.9389 10.9346C20.2207 10.6535 20.6025 10.496 21.0005 10.4965C21.3984 10.497 21.7799 10.6556 22.0609 10.9374C22.3419 11.2192 22.4995 11.601 22.499 11.999C22.492 16.794 19.182 21.119 14.306 22.219C8.64899 23.493 3.02899 19.941 1.75399 14.284C0.479989 8.62698 4.03199 3.00698 9.68999 1.73198C11.9928 1.20947 14.4047 1.48193 16.533 2.50498L16.839 2.65798L17.03 1.70498C17.0999 1.35475 17.2926 1.04097 17.5732 0.820078C17.8539 0.599187 18.2041 0.486684 18.561 0.500983ZM15.451 6.99998C16.3129 6.99998 17.1396 7.34239 17.7491 7.95189C18.3586 8.56138 18.701 9.38803 18.701 10.25V13.75C18.701 14.6119 18.3586 15.4386 17.7491 16.0481C17.1396 16.6576 16.3129 17 15.451 17C14.589 17 13.7624 16.6576 13.1529 16.0481C12.5434 15.4386 12.201 14.6119 12.201 13.75V10.25C12.201 9.3882 12.5433 8.5617 13.1525 7.95224C13.7618 7.34277 14.5882 7.00025 15.45 6.99998M8.47999 6.99998C9.0605 6.99989 9.63024 7.15673 10.1289 7.45391C10.6276 7.75109 11.0366 8.17755 11.3128 8.68816C11.589 9.19878 11.722 9.77455 11.6977 10.3546C11.6734 10.9346 11.4928 11.4972 11.175 11.983C11.483 12.4526 11.6621 12.9949 11.6941 13.5556C11.7262 14.1163 11.6101 14.6756 11.3576 15.1772C11.1051 15.6788 10.7249 16.1051 10.2555 16.4133C9.78599 16.7215 9.24367 16.9008 8.68299 16.933L8.50099 16.938H8.20099C6.87299 16.938 5.77399 16.061 5.32899 15.014C5.17357 14.6477 5.17002 14.2347 5.31911 13.8658C5.4682 13.4969 5.75773 13.2024 6.12399 13.047C6.49025 12.8916 6.90325 12.888 7.27214 13.0371C7.64102 13.1862 7.93557 13.4757 8.09099 13.842C8.10399 13.868 8.13099 13.897 8.16099 13.917L8.20499 13.937H8.50099C8.53612 13.9366 8.57054 13.927 8.60078 13.9091C8.63102 13.8913 8.65601 13.8657 8.67324 13.8351C8.69048 13.8045 8.69934 13.7699 8.69895 13.7347C8.69855 13.6996 8.68891 13.6652 8.67099 13.635L8.63699 13.593L8.52699 13.49C8.17556 13.4496 7.84971 13.2863 7.60701 13.0289C7.36431 12.7716 7.22037 12.4367 7.20063 12.0835C7.18089 11.7303 7.28661 11.3815 7.49912 11.0987C7.71163 10.8159 8.01725 10.6173 8.36199 10.538L8.49799 10.514L8.63499 10.377C8.66254 10.3498 8.68244 10.3158 8.69268 10.2785C8.70291 10.2412 8.70312 10.2018 8.69328 10.1644C8.68344 10.127 8.6639 10.0928 8.63664 10.0653C8.60937 10.0379 8.57535 10.0181 8.53799 10.008L8.47999 9.99998H8.20499C8.15604 10.0161 8.1152 10.0505 8.09099 10.096C8.0166 10.281 7.90608 10.4493 7.76588 10.5911C7.62567 10.7329 7.45861 10.8453 7.27445 10.9217C7.0903 10.9982 6.89275 11.0372 6.69335 11.0364C6.49395 11.0356 6.29671 10.9951 6.11317 10.9172C5.92962 10.8392 5.76345 10.7255 5.62437 10.5826C5.4853 10.4397 5.3761 10.2706 5.30318 10.085C5.23026 9.89938 5.19507 9.70112 5.19967 9.50178C5.20428 9.30243 5.24858 9.106 5.32999 8.92398C5.75299 7.92898 6.76599 7.08798 8.00399 7.00698L8.19999 6.99998H8.47999ZM15.45 9.99998C15.3837 9.99998 15.3201 10.0263 15.2732 10.0732C15.2263 10.1201 15.2 10.1837 15.2 10.25V13.75C15.2 13.8163 15.2263 13.8799 15.2732 13.9268C15.3201 13.9736 15.3837 14 15.45 14C15.5163 14 15.5799 13.9736 15.6268 13.9268C15.6736 13.8799 15.7 13.8163 15.7 13.75V10.25C15.7 10.1837 15.6736 10.1201 15.6268 10.0732C15.5799 10.0263 15.5163 9.99998 15.45 9.99998Z" fill="currentColor"/>
</svg>
