<svg width="24" height="24" viewBox="0 0 24 24" fill="none" xmlns="http://www.w3.org/2000/svg">
<path d="M5.43898 0.501021C5.77224 0.487329 6.10055 0.585101 6.37203 0.778881C6.6435 0.972662 6.84264 1.2514 6.93798 1.57102L6.97098 1.70502L7.16198 2.65802C9.36021 1.51161 11.8942 1.18343 14.312 1.73202C19.968 3.00702 23.521 8.62702 22.246 14.284C20.971 19.941 15.351 23.494 9.69398 22.218C4.81798 21.12 1.50798 16.795 1.50098 12C1.50045 11.6022 1.65797 11.2205 1.9389 10.9388C2.21983 10.6571 2.60115 10.4986 2.99898 10.498C3.3968 10.4975 3.77854 10.655 4.06022 10.9359C4.3419 11.2169 4.50045 11.5982 4.50098 11.996C4.50597 13.7648 5.13593 15.4749 6.27957 16.8242C7.42321 18.1735 9.00692 19.0751 10.7509 19.3699C12.495 19.6647 14.2871 19.3337 15.8106 18.4352C17.3342 17.5367 18.4912 16.1287 19.0773 14.4599C19.6633 12.791 19.6407 10.9687 19.0134 9.31495C18.3861 7.66116 17.1945 6.28229 15.6491 5.42192C14.1037 4.56155 12.304 4.27506 10.5678 4.61304C8.83163 4.95103 7.27077 5.89175 6.16098 7.26902C5.96425 7.51229 5.69638 7.68795 5.39486 7.77143C5.09334 7.8549 4.77327 7.84201 4.47944 7.73455C4.18561 7.62709 3.93274 7.43045 3.75621 7.17215C3.57969 6.91385 3.48835 6.60681 3.49498 6.29402L3.50498 6.15202L4.00998 1.82702C4.05095 1.47165 4.21757 1.14262 4.47978 0.899296C4.742 0.655968 5.08254 0.514361 5.43998 0.500021M15.574 6.99702C15.9592 6.99721 16.3296 7.1456 16.6084 7.41143C16.8872 7.67726 17.053 8.04016 17.0715 8.42494C17.09 8.80971 16.9598 9.18685 16.7078 9.47822C16.4558 9.76959 16.1014 9.95285 15.718 9.99002L15.574 9.99702H14.009V10.175H14.041C16.066 10.175 17.457 11.752 17.457 13.591C17.457 14.497 17.0971 15.3659 16.4565 16.0065C15.8158 16.6471 14.947 17.007 14.041 17.007C13.601 17.007 13.136 16.904 12.759 16.782C12.398 16.665 11.923 16.467 11.546 16.156C11.2434 15.9036 11.0523 15.5422 11.014 15.15C10.9757 14.7578 11.0933 14.3663 11.3413 14.0601C11.5893 13.7539 11.9478 13.5576 12.3394 13.5136C12.731 13.4696 13.1242 13.5815 13.434 13.825L13.498 13.856L13.615 13.904L13.757 13.95L13.894 13.982L14.041 14.007L14.125 13.998C14.2187 13.9787 14.3029 13.9277 14.3633 13.8535C14.4238 13.7794 14.4569 13.6867 14.457 13.591C14.457 13.427 14.4 13.33 14.352 13.279C14.31 13.237 14.226 13.175 14.042 13.175L12.509 13.179C12.1363 13.179 11.7769 13.0403 11.5009 12.7898C11.2249 12.5393 11.052 12.195 11.016 11.824L11.009 11.679V8.89802C11.0088 8.41976 11.1889 7.959 11.5135 7.60773C11.8381 7.25647 12.2832 7.04053 12.76 7.00302L12.909 6.99802L15.574 6.99702ZM9.20898 7.17702C9.4482 7.30533 9.64812 7.49615 9.78742 7.72914C9.92672 7.96214 10.0002 8.22856 9.99998 8.50002V15.5C9.99998 15.8978 9.84194 16.2794 9.56064 16.5607C9.27933 16.842 8.8978 17 8.49998 17C8.10215 17 7.72062 16.842 7.43932 16.5607C7.15801 16.2794 6.99998 15.8978 6.99998 15.5V11C6.67807 11 6.36471 10.8964 6.10621 10.7045C5.84771 10.5127 5.65778 10.2428 5.5645 9.93468C5.47122 9.62658 5.47953 9.29665 5.5882 8.99364C5.69688 8.69062 5.90015 8.43061 6.16798 8.25202L7.66798 7.25202C7.89394 7.10146 8.15653 7.01505 8.42774 7.00202C8.69896 6.98899 8.96862 7.04982 9.20798 7.17802" fill="currentColor"/>
</svg>
