<svg width="24" height="24" viewBox="0 0 24 24" fill="none" xmlns="http://www.w3.org/2000/svg">
<path fill-rule="evenodd" clip-rule="evenodd" d="M8.377 1.28301C8.66609 1.49122 8.87164 1.79553 8.95684 2.14146C9.04204 2.48739 9.00133 2.85236 8.842 3.17101L8.677 3.50001H18C19.1935 3.50001 20.3381 3.97412 21.182 4.81803C22.0259 5.66194 22.5 6.80654 22.5 8.00001V16C22.5 17.1935 22.0259 18.3381 21.182 19.182C20.3381 20.0259 19.1935 20.5 18 20.5H6C4.80653 20.5 3.66193 20.0259 2.81802 19.182C1.97411 18.3381 1.5 17.1935 1.5 16V11C1.5 10.6022 1.65804 10.2207 1.93934 9.93935C2.22064 9.65805 2.60218 9.50001 3 9.50001C3.39782 9.50001 3.77936 9.65805 4.06066 9.93935C4.34196 10.2207 4.5 10.6022 4.5 11V16C4.5 16.3978 4.65804 16.7794 4.93934 17.0607C5.22064 17.342 5.60218 17.5 6 17.5H18C18.3978 17.5 18.7794 17.342 19.0607 17.0607C19.342 16.7794 19.5 16.3978 19.5 16V8.00001C19.5 7.60219 19.342 7.22065 19.0607 6.93935C18.7794 6.65805 18.3978 6.50001 18 6.50001H5.024C3.679 6.50001 3.005 4.87401 3.956 3.92201L6.44 1.44001C6.6919 1.18812 7.02522 1.03409 7.3803 1.00551C7.73539 0.976927 8.08906 1.07565 8.378 1.28401M9.008 8.89901C9.008 7.84901 9.859 6.99901 10.908 6.99901H13.574C13.9718 6.99901 14.3534 7.15705 14.6347 7.43835C14.916 7.71965 15.074 8.10119 15.074 8.49901C15.074 8.89683 14.916 9.27837 14.6347 9.55967C14.3534 9.84097 13.9718 9.99901 13.574 9.99901H12.009V10.177H12.041C14.066 10.177 15.457 11.754 15.457 13.593C15.4567 14.4988 15.0967 15.3674 14.4561 16.0078C13.8155 16.6482 12.9468 17.008 12.041 17.008C11.601 17.008 11.136 16.906 10.759 16.784C10.398 16.667 9.923 16.469 9.546 16.158C9.24342 15.9056 9.05232 15.5442 9.01402 15.152C8.97571 14.7598 9.09327 14.3683 9.34129 14.0621C9.58931 13.7559 9.94786 13.5596 10.3395 13.5156C10.731 13.4716 11.1242 13.5835 11.434 13.827C11.459 13.841 11.564 13.892 11.684 13.931C11.854 13.986 12.034 14.008 12.041 14.009C12.271 14.009 12.457 13.822 12.457 13.593C12.457 13.429 12.4 13.331 12.352 13.281C12.31 13.238 12.226 13.177 12.042 13.177C11.53 13.177 11.019 13.181 10.509 13.181C10.1112 13.181 9.72964 13.023 9.44834 12.7417C9.16704 12.4604 9.009 12.0788 9.009 11.681L9.008 8.89901Z" fill="currentColor"/>
</svg>
