<svg width="24" height="24" viewBox="0 0 24 24" fill="none" xmlns="http://www.w3.org/2000/svg">
<path d="M17.56 1.43999L20.044 3.92199C20.994 4.87399 20.321 6.49999 18.976 6.49999H6C5.60218 6.49999 5.22064 6.65803 4.93934 6.93933C4.65804 7.22064 4.5 7.60217 4.5 7.99999V16C4.5 16.3978 4.65804 16.7793 4.93934 17.0607C5.22064 17.342 5.60218 17.5 6 17.5H18C18.3978 17.5 18.7794 17.342 19.0607 17.0607C19.342 16.7793 19.5 16.3978 19.5 16V11C19.5 10.6022 19.658 10.2206 19.9393 9.93933C20.2206 9.65803 20.6022 9.49999 21 9.49999C21.3978 9.49999 21.7794 9.65803 22.0607 9.93933C22.342 10.2206 22.5 10.6022 22.5 11V16C22.5 17.1935 22.0259 18.3381 21.182 19.182C20.3381 20.0259 19.1935 20.5 18 20.5H6C4.80653 20.5 3.66193 20.0259 2.81802 19.182C1.97411 18.3381 1.5 17.1935 1.5 16V7.99999C1.5 6.80652 1.97411 5.66193 2.81802 4.81801C3.66193 3.9741 4.80653 3.49999 6 3.49999H15.323L15.158 3.16999C14.9992 2.85138 14.9588 2.48665 15.0442 2.14103C15.1296 1.7954 15.3351 1.4914 15.624 1.28339C15.9129 1.07539 16.2664 0.976924 16.6213 1.00561C16.9762 1.0343 17.3092 1.18827 17.561 1.43999M15.45 6.99999C16.312 6.99999 17.1386 7.3424 17.7481 7.9519C18.3576 8.56139 18.7 9.38804 18.7 10.25V13.75C18.7 14.6119 18.3576 15.4386 17.7481 16.0481C17.1386 16.6576 16.312 17 15.45 17C14.588 17 13.7614 16.6576 13.1519 16.0481C12.5424 15.4386 12.2 14.6119 12.2 13.75V10.25C12.2 9.38804 12.5424 8.56139 13.1519 7.9519C13.7614 7.3424 14.588 6.99999 15.45 6.99999ZM8.48 6.99999C9.06051 6.9999 9.63025 7.15674 10.1289 7.45392C10.6276 7.7511 11.0367 8.17756 11.3128 8.68818C11.589 9.19879 11.722 9.77456 11.6977 10.3546C11.6734 10.9346 11.4928 11.4972 11.175 11.983C11.4831 12.4526 11.6621 12.995 11.6942 13.5556C11.7262 14.1163 11.6101 14.6756 11.3576 15.1772C11.1051 15.6788 10.725 16.1051 10.2555 16.4133C9.786 16.7215 9.24368 16.9008 8.683 16.933L8.501 16.938H8.2C6.873 16.938 5.774 16.061 5.33 15.013C5.24485 14.8304 5.19733 14.6326 5.19029 14.4313C5.18324 14.23 5.21682 14.0294 5.28901 13.8413C5.36119 13.6533 5.47052 13.4817 5.61046 13.3368C5.75039 13.1919 5.91808 13.0767 6.10351 12.998C6.28894 12.9193 6.48831 12.8788 6.68974 12.8789C6.89117 12.8789 7.09053 12.9195 7.27592 12.9983C7.46131 13.0771 7.62893 13.1924 7.7688 13.3373C7.90867 13.4823 8.01791 13.6539 8.09 13.842C8.104 13.868 8.13 13.897 8.16 13.917L8.205 13.937H8.501C8.53613 13.9366 8.57055 13.927 8.60079 13.9091C8.63103 13.8913 8.65602 13.8657 8.67326 13.8351C8.69049 13.8045 8.69935 13.7699 8.69896 13.7348C8.69856 13.6996 8.68892 13.6652 8.671 13.635L8.637 13.593L8.527 13.49C8.17557 13.4496 7.84972 13.2863 7.60702 13.0289C7.36432 12.7716 7.22038 12.4367 7.20064 12.0835C7.1809 11.7303 7.28662 11.3815 7.49913 11.0987C7.71164 10.8159 8.01726 10.6173 8.362 10.538L8.497 10.514L8.635 10.377C8.66281 10.3498 8.68293 10.3158 8.69332 10.2784C8.70371 10.2409 8.70399 10.2014 8.69413 10.1638C8.68427 10.1262 8.66463 10.0919 8.63721 10.0643C8.60979 10.0368 8.57555 10.017 8.538 10.007L8.48 9.99999H8.205C8.15605 10.0161 8.11521 10.0505 8.091 10.096C7.93558 10.4623 7.64103 10.7518 7.27215 10.9009C6.90327 11.05 6.49026 11.0464 6.124 10.891C5.75774 10.7356 5.46821 10.441 5.31912 10.0721C5.17003 9.70326 5.17358 9.29026 5.329 8.92399C5.752 7.92899 6.765 7.08799 8.003 7.00699L8.2 6.99999H8.48ZM15.45 9.99999C15.3837 9.99999 15.3201 10.0263 15.2732 10.0732C15.2263 10.1201 15.2 10.1837 15.2 10.25V13.75C15.2 13.8163 15.2263 13.8799 15.2732 13.9268C15.3201 13.9737 15.3837 14 15.45 14C15.5163 14 15.5799 13.9737 15.6268 13.9268C15.6737 13.8799 15.7 13.8163 15.7 13.75V10.25C15.7 10.1837 15.6737 10.1201 15.6268 10.0732C15.5799 10.0263 15.5163 9.99999 15.45 9.99999Z" fill="currentColor"/>
</svg>
