<svg width="24" height="24" viewBox="0 0 24 24" fill="none" xmlns="http://www.w3.org/2000/svg">
<path fill-rule="evenodd" clip-rule="evenodd" d="M14.536 12.707C14.7235 12.5195 14.8288 12.2652 14.8288 12C14.8288 11.7348 14.7235 11.4805 14.536 11.293L11.707 8.46399C11.5671 8.32412 11.3888 8.22889 11.1948 8.19036C11.0007 8.15182 10.7996 8.17171 10.6169 8.2475C10.4341 8.3233 10.278 8.45159 10.1682 8.61616C10.0584 8.78072 9.99984 8.97416 10 9.17199V14.828C9.99984 15.0258 10.0584 15.2193 10.1682 15.3838C10.278 15.5484 10.4341 15.6767 10.6169 15.7525C10.7996 15.8283 11.0007 15.8482 11.1948 15.8096C11.3888 15.7711 11.5671 15.6759 11.707 15.536L14.536 12.707Z" fill="currentColor"/>
</svg>
