<svg width="24" height="24" viewBox="0 0 24 24" fill="none" xmlns="http://www.w3.org/2000/svg">
<path d="M11.9996 16.5C12.3725 16.5 12.732 16.6389 13.008 16.8896C13.284 17.1403 13.4568 17.4848 13.4926 17.856L13.4996 18V20C13.4996 20.3853 13.3514 20.7559 13.0857 21.0348C12.8199 21.3138 12.457 21.4799 12.0722 21.4985C11.6873 21.5171 11.31 21.387 11.0186 21.135C10.7271 20.883 10.5438 20.5285 10.5066 20.145L10.4996 20V18C10.4996 17.6022 10.6576 17.2206 10.9389 16.9393C11.2202 16.658 11.6018 16.5 11.9996 16.5ZM8.36358 2.545C8.74944 2.64158 9.08115 2.88746 9.28575 3.22858C9.49034 3.5697 9.55107 3.97811 9.45458 4.364L5.45458 20.364C5.35338 20.7448 5.1064 21.0705 4.76702 21.2707C4.42763 21.4709 4.0231 21.5296 3.64085 21.4339C3.25859 21.3383 2.92932 21.0961 2.72419 20.7597C2.51905 20.4232 2.45453 20.0196 2.54458 19.636L6.54458 3.636C6.64115 3.25013 6.88704 2.91843 7.22816 2.71383C7.56927 2.50923 7.97769 2.44851 8.36358 2.545ZM17.4546 3.636L21.4546 19.636C21.5056 19.8282 21.518 20.0285 21.4909 20.2255C21.4638 20.4225 21.3979 20.6121 21.2968 20.7834C21.1958 20.9546 21.0618 21.1041 20.9025 21.223C20.7432 21.342 20.5618 21.4281 20.3689 21.4764C20.176 21.5246 19.9755 21.5341 19.7789 21.5041C19.5824 21.4742 19.3937 21.4054 19.224 21.3019C19.0542 21.1984 18.9067 21.0622 18.7901 20.9012C18.6735 20.7402 18.59 20.5576 18.5446 20.364L14.5446 4.364C14.4545 3.98039 14.5191 3.57676 14.7242 3.24033C14.9293 2.90391 15.2586 2.66171 15.6408 2.56608C16.0231 2.47045 16.4276 2.52907 16.767 2.72927C17.1064 2.92948 17.3534 3.25518 17.4546 3.636ZM11.9996 9.5C12.3974 9.5 12.7789 9.65804 13.0602 9.93934C13.3415 10.2206 13.4996 10.6022 13.4996 11V13C13.4996 13.3978 13.3415 13.7794 13.0602 14.0607C12.7789 14.342 12.3974 14.5 11.9996 14.5C11.6018 14.5 11.2202 14.342 10.9389 14.0607C10.6576 13.7794 10.4996 13.3978 10.4996 13V11C10.4996 10.6022 10.6576 10.2206 10.9389 9.93934C11.2202 9.65804 11.6018 9.5 11.9996 9.5ZM11.9996 2.5C12.3725 2.50002 12.732 2.63892 13.008 2.88962C13.284 3.14032 13.4568 3.48484 13.4926 3.856L13.4996 4V6C13.4996 6.3853 13.3514 6.75586 13.0857 7.03484C12.8199 7.31383 12.457 7.47985 12.0722 7.4985C11.6873 7.51714 11.31 7.38698 11.0186 7.13499C10.7271 6.883 10.5438 6.5285 10.5066 6.145L10.4996 6V4C10.4996 3.60218 10.6576 3.22064 10.9389 2.93934C11.2202 2.65804 11.6018 2.5 11.9996 2.5Z" fill="currentColor"/>
</svg>
