<svg width="24" height="24" viewBox="0 0 24 24" fill="none" xmlns="http://www.w3.org/2000/svg">
<path fill-rule="evenodd" clip-rule="evenodd" d="M18.1643 2.76497L18.4193 2.79697C19.0933 2.88997 19.9853 3.01497 20.4903 3.52097C20.9043 3.93397 21.0633 4.60597 21.1583 5.20597L21.2143 5.59197C21.3403 6.50197 21.3733 7.69397 21.1583 9.01797C20.7343 11.631 19.3433 14.749 15.8503 17.163C15.8313 17.351 15.8303 17.541 15.8343 17.731L15.8443 18.015C15.8603 18.452 15.8763 18.889 15.7543 19.313C15.5643 19.973 14.8873 20.408 14.2543 20.72L13.9443 20.867L13.5443 21.043C12.7963 21.361 11.7863 21.687 11.1533 21.053C10.7733 20.674 10.6173 20.118 10.4903 19.565L10.4433 19.358C10.3904 19.0966 10.3236 18.8383 10.2433 18.584C10.1933 18.438 10.1393 18.289 10.0813 18.139C10.0175 18.2173 9.94972 18.2924 9.87832 18.364C9.53332 18.709 9.01832 18.95 8.59432 19.119C8.13132 19.302 7.60732 19.462 7.12232 19.594L6.87332 19.66L6.39632 19.779L5.96432 19.879L5.44732 19.989L5.12432 20.052C4.96323 20.0818 4.7973 20.072 4.64084 20.0234C4.48439 19.9748 4.3421 19.8889 4.22626 19.773C4.11041 19.6572 4.02449 19.5149 3.97589 19.3584C3.9273 19.202 3.91749 19.0361 3.94732 18.875L4.03332 18.444L4.18732 17.746L4.31132 17.236L4.40532 16.876C4.53732 16.392 4.69732 15.868 4.88132 15.406C5.04932 14.981 5.29032 14.466 5.63532 14.121L5.71532 14.044L5.65132 14.018C5.48041 13.953 5.30731 13.894 5.13232 13.841L4.85532 13.756C4.16132 13.546 3.41932 13.32 2.95832 12.858C2.39832 12.299 2.58732 11.448 2.85732 10.74L2.96732 10.466L3.14432 10.066L3.29132 9.75597C3.60332 9.12397 4.03832 8.44697 4.69832 8.25697C5.04832 8.15697 5.41232 8.15097 5.77832 8.16097L5.99832 8.16797C6.28432 8.17797 6.56932 8.18897 6.84832 8.16197C9.26232 4.66797 12.3803 3.27697 14.9933 2.85297C16.0415 2.68105 17.1082 2.65145 18.1643 2.76497ZM8.35232 15.44C8.19493 15.3235 8.00683 15.2557 7.81131 15.245C7.61579 15.2344 7.42144 15.2813 7.25232 15.38L7.14232 15.454L7.04932 15.537L6.92432 15.695C6.66432 16.071 6.51632 16.591 6.40132 17.077L6.29332 17.545L6.24232 17.758L6.43332 17.712L6.85132 17.616C7.42932 17.481 8.07032 17.306 8.46432 16.951C8.63563 16.7798 8.73897 16.5522 8.75516 16.3105C8.77134 16.0688 8.69927 15.8295 8.55232 15.637L8.47032 15.543L8.44632 15.52L8.35232 15.44ZM15.5353 8.46597C15.3496 8.28022 15.1292 8.13286 14.8865 8.0323C14.6439 7.93175 14.3838 7.87997 14.1212 7.87992C13.8585 7.87988 13.5984 7.93156 13.3558 8.03203C13.1131 8.1325 12.8926 8.27978 12.7068 8.46547C12.5211 8.65116 12.3737 8.87162 12.2731 9.11426C12.1726 9.3569 12.1208 9.61697 12.1208 9.87962C12.1207 10.1423 12.1724 10.4024 12.2729 10.645C12.3733 10.8877 12.5206 11.1082 12.7063 11.294C13.0813 11.6691 13.59 11.8799 14.1205 11.88C14.6509 11.8801 15.1597 11.6695 15.5348 11.2945C15.91 10.9195 16.1208 10.4108 16.1209 9.88033C16.121 9.34988 15.9103 8.84112 15.5353 8.46597Z" fill="currentColor"/>
</svg>
