<svg width="24" height="24" viewBox="0 0 24 24" fill="none" xmlns="http://www.w3.org/2000/svg">
<path fill-rule="evenodd" clip-rule="evenodd" d="M19.3738 3.29202C19.5581 3.24593 19.7512 3.24836 19.9343 3.29906C20.1174 3.34976 20.2842 3.44701 20.4185 3.58134C20.5528 3.71566 20.6501 3.88249 20.7008 4.06556C20.7515 4.24864 20.7539 4.44172 20.7078 4.62602L19.6028 9.04602C19.3831 9.92521 18.9286 10.7282 18.2878 11.369L13.7068 15.949V18.157C13.7065 18.5547 13.5482 18.936 13.2668 19.217L11.5378 20.947C11.3991 21.0858 11.2297 21.19 11.0433 21.2514C10.8569 21.3128 10.6587 21.3295 10.4646 21.3004C10.2706 21.2712 10.0861 21.1969 9.92599 21.0834C9.76589 20.9699 9.63465 20.8205 9.54284 20.647C9.13449 19.8744 8.68656 19.1234 8.20084 18.397C8.10036 18.6496 7.94926 18.879 7.75684 19.071C6.97684 19.852 3.69084 20.662 3.51484 20.485C3.33784 20.309 4.14784 17.024 4.92884 16.243C5.12684 16.044 5.35684 15.896 5.60184 15.799C4.87573 15.3133 4.12507 14.8654 3.35284 14.457C3.17941 14.3652 3.02994 14.234 2.91646 14.0739C2.80299 13.9138 2.72867 13.7293 2.69949 13.5352C2.67031 13.3412 2.68708 13.143 2.74845 12.9566C2.80982 12.7702 2.91408 12.6008 3.05284 12.462L4.78284 10.732C5.06387 10.4506 5.44515 10.2924 5.84284 10.292H8.04984L12.6298 5.71202C13.271 5.07111 14.0743 4.61656 14.9538 4.39702L19.3738 3.29202ZM17.3768 9.28602C17.0787 8.722 16.6963 8.20674 16.2428 7.75802C15.7939 7.30413 15.2783 6.92139 14.7138 6.62302C14.468 6.75883 14.2425 6.92848 14.0438 7.12702L13.0588 8.11302C13.4568 8.21302 14.1288 8.47302 14.8288 9.17202C15.5278 9.87102 15.7868 10.542 15.8868 10.941L16.8728 9.95502C17.0728 9.75502 17.2418 9.53002 17.3768 9.28502V9.28602Z" fill="currentColor"/>
</svg>
