<svg width="24" height="24" viewBox="0 0 24 24" fill="none" xmlns="http://www.w3.org/2000/svg">
<path fill-rule="evenodd" clip-rule="evenodd" d="M18 3C18.7652 2.99996 19.5015 3.29233 20.0583 3.81728C20.615 4.34224 20.9501 5.06011 20.995 5.824L21 6V18C21 18.7652 20.7077 19.5015 20.1827 20.0583C19.6578 20.615 18.9399 20.9501 18.176 20.995L18 21H6C5.23479 21 4.49849 20.7077 3.94174 20.1827C3.38499 19.6578 3.04989 18.9399 3.005 18.176L3 18V6C2.99996 5.23479 3.29233 4.49849 3.81728 3.94174C4.34224 3.38499 5.06011 3.04989 5.824 3.005L6 3H18ZM8.5 14C8.10218 14 7.72064 14.158 7.43934 14.4393C7.15804 14.7206 7 15.1022 7 15.5C7 15.8978 7.15804 16.2794 7.43934 16.5607C7.72064 16.842 8.10218 17 8.5 17C8.89782 17 9.27936 16.842 9.56066 16.5607C9.84196 16.2794 10 15.8978 10 15.5C10 15.1022 9.84196 14.7206 9.56066 14.4393C9.27936 14.158 8.89782 14 8.5 14ZM8 10.5C7.73478 10.5 7.48043 10.6054 7.29289 10.7929C7.10536 10.9804 7 11.2348 7 11.5C7 11.7652 7.10536 12.0196 7.29289 12.2071C7.48043 12.3946 7.73478 12.5 8 12.5C8.92826 12.5 9.8185 12.8687 10.4749 13.5251C11.1313 14.1815 11.5 15.0717 11.5 16C11.5 16.2652 11.6054 16.5196 11.7929 16.7071C11.9804 16.8946 12.2348 17 12.5 17C12.7652 17 13.0196 16.8946 13.2071 16.7071C13.3946 16.5196 13.5 16.2652 13.5 16C13.5 14.5413 12.9205 13.1424 11.8891 12.1109C10.8576 11.0795 9.45869 10.5 8 10.5ZM8.5 7C8.31 7 8.121 7.006 7.934 7.019C7.67424 7.04279 7.43406 7.16713 7.26469 7.3655C7.09532 7.56388 7.01016 7.82058 7.02738 8.08085C7.0446 8.34113 7.16284 8.58437 7.35687 8.7587C7.5509 8.93303 7.80537 9.02464 8.066 9.014C8.99076 8.95204 9.91808 9.08856 10.7857 9.41441C11.6534 9.74026 12.4414 10.2479 13.0967 10.9033C13.7521 11.5586 14.2597 12.3466 14.5856 13.2143C14.9114 14.0819 15.048 15.0092 14.986 15.934C14.9738 16.0669 14.9884 16.2009 15.0288 16.3281C15.0692 16.4552 15.1347 16.573 15.2213 16.6745C15.308 16.776 15.4141 16.8591 15.5333 16.919C15.6526 16.9788 15.7827 17.0142 15.9158 17.023C16.049 17.0318 16.1825 17.0139 16.3087 16.9703C16.4348 16.9267 16.5509 16.8583 16.6502 16.7691C16.7494 16.6799 16.8298 16.5717 16.8867 16.451C16.9435 16.3302 16.9756 16.1993 16.981 16.066C17.0585 14.9047 16.8967 13.7398 16.5055 12.6436C16.1144 11.5474 15.5023 10.5432 14.7072 9.6932C13.9121 8.84323 12.9509 8.16561 11.8831 7.70234C10.8154 7.23907 9.6639 7.00002 8.5 7Z" fill="currentColor"/>
</svg>
