<svg width="24" height="24" viewBox="0 0 24 24" fill="none" xmlns="http://www.w3.org/2000/svg">
<path fill-rule="evenodd" clip-rule="evenodd" d="M11.9999 2C12.2448 2.00003 12.4812 2.08996 12.6642 2.25272C12.8473 2.41547 12.9642 2.63975 12.9929 2.883L12.9999 3V4.062C14.3149 4.22597 15.5682 4.7158 16.6459 5.487L16.9059 5.68L17.6559 4.929C17.8354 4.74775 18.0774 4.64197 18.3324 4.63332C18.5874 4.62467 18.836 4.7138 19.0274 4.88247C19.2189 5.05113 19.3386 5.28658 19.3621 5.54062C19.3856 5.79466 19.3111 6.04808 19.1539 6.249L19.0709 6.343L18.3199 7.094C19.1312 8.13576 19.6707 9.36291 19.8899 10.665L19.9379 11H20.9999C21.2547 11.0003 21.4999 11.0979 21.6852 11.2728C21.8706 11.4478 21.9821 11.687 21.997 11.9414C22.012 12.1958 21.9292 12.4464 21.7656 12.6418C21.602 12.8373 21.37 12.9629 21.1169 12.993L20.9999 13H19.9379C19.7739 14.315 19.2841 15.5683 18.5129 16.646L18.3199 16.906L19.0709 17.656C19.2521 17.8355 19.3579 18.0776 19.3666 18.3325C19.3752 18.5875 19.2861 18.8362 19.1174 19.0276C18.9487 19.219 18.7133 19.3387 18.4592 19.3622C18.2052 19.3857 17.9518 19.3112 17.7509 19.154L17.6569 19.071L16.9059 18.32C15.8641 19.1313 14.637 19.6708 13.3349 19.89L12.9999 19.938V21C12.9996 21.2549 12.902 21.5 12.727 21.6854C12.5521 21.8707 12.3129 21.9822 12.0585 21.9972C11.804 22.0121 11.5535 21.9293 11.358 21.7657C11.1626 21.6021 11.037 21.3701 11.0069 21.117L10.9999 21V19.938C9.68482 19.7741 8.43155 19.2842 7.35387 18.513L7.09387 18.32L6.34387 19.071C6.16433 19.2523 5.9223 19.358 5.66732 19.3667C5.41234 19.3753 5.1637 19.2862 4.97229 19.1175C4.78087 18.9489 4.66117 18.7134 4.63766 18.4594C4.61416 18.2053 4.68865 17.9519 4.84587 17.751L4.92887 17.657L5.67987 16.906C4.86856 15.8642 4.32904 14.6371 4.10987 13.335L4.06287 13H2.99987C2.74499 12.9997 2.49984 12.9021 2.3145 12.7272C2.12916 12.5522 2.01763 12.313 2.0027 12.0586C1.98776 11.8042 2.07054 11.5536 2.23413 11.3582C2.39772 11.1627 2.62977 11.0371 2.88287 11.007L2.99987 11H4.06187C4.2258 9.68495 4.71563 8.43169 5.48687 7.354L5.67987 7.094L4.92887 6.344C4.74761 6.16446 4.64184 5.92243 4.63319 5.66745C4.62453 5.41248 4.71367 5.16383 4.88233 4.97242C5.051 4.78101 5.28645 4.6613 5.54049 4.6378C5.79453 4.61429 6.04795 4.68878 6.24887 4.846L6.34287 4.929L7.09387 5.68C8.13562 4.86869 9.36278 4.32917 10.6649 4.11L10.9999 4.063V3C10.9999 2.73478 11.1052 2.48043 11.2928 2.29289C11.4803 2.10536 11.7347 2 11.9999 2ZM10.7069 14.708L8.52287 16.89C9.25994 17.4158 10.107 17.767 10.9999 17.917V14.829C10.9001 14.7939 10.8023 14.7535 10.7069 14.708ZM13.2929 14.708L13.1489 14.772L12.9999 14.829V17.917C13.794 17.7839 14.5529 17.4914 15.2309 17.057L15.4769 16.891L13.2929 14.708ZM9.17087 13H6.08287C6.23258 13.8928 6.58343 14.7398 7.10887 15.477L9.29187 13.293C9.24635 13.1976 9.20596 13.0997 9.17087 13ZM17.9169 13H14.8289C14.7939 13.1 14.7529 13.198 14.7079 13.293L16.8909 15.477C17.4163 14.7399 17.7672 13.8928 17.9169 13ZM16.8909 8.523L14.7079 10.707L14.7719 10.851L14.8289 11H17.9169C17.7838 10.2059 17.4912 9.44698 17.0569 8.769L16.8909 8.523ZM7.10887 8.523C6.58343 9.26017 6.23258 10.1072 6.08287 11H9.17087C9.20587 10.9 9.24687 10.802 9.29187 10.707L7.10887 8.523ZM12.9999 6.083V9.171C13.0999 9.206 13.1979 9.247 13.2929 9.292L15.4769 7.109C14.7397 6.58356 13.8927 6.23271 12.9999 6.083ZM10.9999 6.083C10.1071 6.23271 9.26003 6.58356 8.52287 7.109L10.7069 9.292C10.8019 9.247 10.8999 9.206 10.9999 9.171V6.083Z" fill="currentColor"/>
</svg>
