<svg width="24" height="24" viewBox="0 0 24 24" fill="none" xmlns="http://www.w3.org/2000/svg">
<path d="M13 2C13.7407 1.99879 14.4558 2.2717 15.0074 2.76617C15.559 3.26064 15.9081 3.9417 15.9876 4.6782C16.067 5.4147 15.8712 6.15456 15.4378 6.7553C15.0043 7.35604 14.364 7.77518 13.64 7.932L13.469 7.964L14.905 10.261L16.629 9.571C16.8661 9.47528 17.1309 9.47403 17.3689 9.56752C17.6069 9.66101 17.8001 9.84213 17.9087 10.0737C18.0173 10.3052 18.033 10.5695 17.9527 10.8123C17.8724 11.0551 17.7022 11.2579 17.477 11.379L17.371 11.429L15.648 12.118C15.2395 12.2814 14.7886 12.3056 14.3651 12.1868C13.9415 12.0681 13.5689 11.8129 13.305 11.461L13.209 11.321L13.046 11.061L12.44 13.485C12.3875 13.6959 12.3011 13.8969 12.184 14.08L12.094 14.21L13.747 15.438C14.1413 15.731 14.4139 16.1589 14.513 16.64L14.542 16.822L14.895 20H15C15.2549 20.0003 15.5 20.0979 15.6853 20.2729C15.8707 20.4478 15.9822 20.687 15.9971 20.9414C16.0121 21.1958 15.9293 21.4464 15.7657 21.6418C15.6021 21.8373 15.3701 21.9629 15.117 21.993L15 22H14.09C13.8397 22.0001 13.5969 21.9148 13.4017 21.7583C13.2064 21.6017 13.0703 21.3833 13.016 21.139L12.996 21.022L12.554 17.043L9.40397 14.703C9.34793 14.6618 9.29632 14.6149 9.24997 14.563C8.9722 14.3406 8.75877 14.0481 8.63168 13.7157C8.50459 13.3833 8.46845 13.023 8.52697 12.672L8.55997 12.515L9.35397 9.338L7.78397 9.808L6.94897 12.316C6.86878 12.5587 6.69871 12.7614 6.47371 12.8826C6.2487 13.0038 5.98583 13.0343 5.73908 12.9677C5.49232 12.9012 5.28041 12.7427 5.14687 12.5248C5.01332 12.3068 4.96827 12.0461 5.02097 11.796L5.05097 11.684L5.88697 9.176C5.97984 8.89772 6.1328 8.64327 6.335 8.43071C6.53719 8.21814 6.78368 8.05267 7.05697 7.946L7.20997 7.893L10.647 6.862C10.297 6.4199 10.0787 5.88812 10.0171 5.32764C9.95556 4.76716 10.0532 4.20067 10.2988 3.69313C10.5444 3.18559 10.9281 2.75755 11.4059 2.45808C11.8836 2.15862 12.4361 1.99986 13 2ZM9.59997 15.2C9.81215 15.3591 9.95241 15.596 9.98992 15.8586C10.0274 16.1211 9.9591 16.3878 9.79997 16.6L8.58397 18.222C8.35391 18.5287 8.01513 18.7357 7.63723 18.8004C7.25933 18.8651 6.87098 18.7827 6.55197 18.57L4.62197 17.283C4.4222 17.4433 4.16854 17.5209 3.91328 17.4996C3.65802 17.4784 3.42063 17.3601 3.25007 17.169C3.0795 16.9779 2.98876 16.7287 2.99656 16.4726C3.00435 16.2166 3.11009 15.9734 3.29197 15.793L3.78697 15.299C3.95201 15.1336 4.16927 15.0306 4.40176 15.0074C4.63424 14.9843 4.86756 15.0424 5.06197 15.172L7.26797 16.643L8.19997 15.4C8.27877 15.2949 8.37748 15.2064 8.49048 15.1395C8.60348 15.0726 8.72855 15.0286 8.85855 15.0101C8.98855 14.9915 9.12094 14.9987 9.24815 15.0313C9.37537 15.0639 9.49492 15.1212 9.59997 15.2Z" fill="currentColor"/>
</svg>
