<svg width="24" height="24" viewBox="0 0 24 24" fill="none" xmlns="http://www.w3.org/2000/svg">
<path d="M20 3C20.5304 3 21.0391 3.21071 21.4142 3.58579C21.7893 3.96086 22 4.46957 22 5V18C22 18.5304 21.7893 19.0391 21.4142 19.4142C21.0391 19.7893 20.5304 20 20 20H19C19 20.2652 18.8946 20.5196 18.7071 20.7071C18.5196 20.8946 18.2652 21 18 21C17.7348 21 17.4804 20.8946 17.2929 20.7071C17.1054 20.5196 17 20.2652 17 20H7C7 20.2652 6.89464 20.5196 6.70711 20.7071C6.51957 20.8946 6.26522 21 6 21C5.73478 21 5.48043 20.8946 5.29289 20.7071C5.10536 20.5196 5 20.2652 5 20H4C3.46957 20 2.96086 19.7893 2.58579 19.4142C2.21071 19.0391 2 18.5304 2 18V5C2 4.46957 2.21071 3.96086 2.58579 3.58579C2.96086 3.21071 3.46957 3 4 3H20ZM12 7C11.7551 7.00003 11.5187 7.08996 11.3356 7.25272C11.1526 7.41547 11.0357 7.63975 11.007 7.883L11 8V8.126C10.005 8.38303 9.14697 9.01299 8.60374 9.88536C8.06051 10.7577 7.87369 11.8057 8.082 12.812L8.145 13.072L8.035 13.134C7.8124 13.2607 7.64692 13.4681 7.57269 13.7132C7.49846 13.9584 7.52114 14.2227 7.63605 14.4516C7.75097 14.6806 7.94936 14.8567 8.1903 14.9436C8.43124 15.0306 8.69637 15.0218 8.931 14.919L9.036 14.866L9.146 14.803C9.51795 15.1826 9.96204 15.4841 10.4522 15.6896C10.9423 15.8952 11.4685 16.0007 12 16C12.9968 16.0015 13.9581 15.6294 14.694 14.957L14.854 14.802L14.964 14.866C15.185 14.9946 15.4468 15.0336 15.6957 14.9751C15.9446 14.9167 16.1616 14.7651 16.3022 14.5515C16.4428 14.338 16.4962 14.0787 16.4515 13.8269C16.4069 13.5752 16.2675 13.3501 16.062 13.198L15.964 13.134L15.855 13.071C16.1328 12.0693 16.01 10.9988 15.5126 10.086C15.0153 9.17318 14.1823 8.48965 13.19 8.18L13 8.126V8C13 7.73478 12.8946 7.48043 12.7071 7.29289C12.5196 7.10536 12.2652 7 12 7ZM12 10C12.3349 9.99994 12.6644 10.084 12.9584 10.2444C13.2524 10.4048 13.5014 10.6365 13.6825 10.9182C13.8637 11.1999 13.9712 11.5225 13.9952 11.8566C14.0192 12.1906 13.959 12.5253 13.82 12.83L13.72 13.02C13.5495 13.3076 13.3096 13.5479 13.0222 13.7189C12.7349 13.8899 12.4092 13.9861 12.0751 13.9988C11.741 14.0114 11.409 13.94 11.1095 13.7912C10.8101 13.6424 10.5527 13.4209 10.361 13.147L10.259 12.985C10.0868 12.6807 9.99739 12.3366 9.99967 11.9869C10.0019 11.6373 10.0958 11.2944 10.272 10.9924C10.4482 10.6903 10.7004 10.4398 11.0036 10.2657C11.3068 10.0915 11.6504 9.99993 12 10Z" fill="currentColor"/>
</svg>
