<svg width="24" height="24" viewBox="0 0 24 24" fill="none" xmlns="http://www.w3.org/2000/svg">
<path d="M9 9.69299L12 8.56799L15 9.69299V12.028C15 12.585 14.8449 13.1311 14.552 13.605C14.2592 14.0788 13.8402 14.4618 13.342 14.711L12 15.382L10.658 14.712C10.1595 14.4627 9.7403 14.0794 9.44744 13.6051C9.15459 13.1308 8.99965 12.5844 9 12.027V9.69299Z" fill="currentColor"/>
<path fill-rule="evenodd" clip-rule="evenodd" d="M12.702 2.195C12.2494 2.02533 11.7506 2.02533 11.298 2.195L4.298 4.82C3.91669 4.96293 3.5881 5.21885 3.35615 5.55355C3.1242 5.88825 2.99995 6.28578 3 6.693V12.056C2.99996 13.7274 3.46537 15.3658 4.34407 16.7877C5.22277 18.2095 6.48004 19.3585 7.975 20.106L11.329 21.782C11.5373 21.8862 11.7671 21.9404 12 21.9404C12.2329 21.9404 12.4627 21.8862 12.671 21.782L16.025 20.105C17.52 19.3575 18.7772 18.2085 19.6559 16.7867C20.5346 15.3648 21 13.7264 21 12.055V6.694C21.0001 6.28678 20.8758 5.88925 20.6438 5.55455C20.4119 5.21985 20.0833 4.96393 19.702 4.821L12.702 2.195ZM12.527 6.63C12.1872 6.5025 11.8128 6.5025 11.473 6.63L7.973 7.942C7.68707 8.04929 7.44071 8.24131 7.26684 8.49238C7.09297 8.74344 6.99987 9.0416 7 9.347V12.027C6.99985 12.9557 7.25835 13.8661 7.74655 14.6562C8.23474 15.4462 8.93333 16.0847 9.764 16.5L11.441 17.338C11.6146 17.4248 11.806 17.47 12 17.47C12.194 17.47 12.3854 17.4248 12.559 17.338L14.236 16.5C15.0665 16.0848 15.765 15.4464 16.2532 14.6566C16.7414 13.8667 17 12.9565 17 12.028V9.347C17.0001 9.0416 16.907 8.74344 16.7332 8.49238C16.5593 8.24131 16.3129 8.04929 16.027 7.942L12.527 6.63Z" fill="currentColor"/>
</svg>
