<svg width="24" height="24" viewBox="0 0 24 24" fill="none" xmlns="http://www.w3.org/2000/svg">
<path fill-rule="evenodd" clip-rule="evenodd" d="M11.298 2.19506C11.6926 2.04741 12.1238 2.02816 12.53 2.14006L12.702 2.19506L19.702 4.82006C20.0569 4.95315 20.3667 5.18436 20.5953 5.48676C20.8239 5.78916 20.9618 6.15028 20.993 6.52806L21 6.69306V12.0561C21 13.6765 20.5624 15.2668 19.7336 16.6592C18.9048 18.0517 17.7154 19.1945 16.291 19.9671L16.025 20.1061L12.671 21.7831C12.4863 21.8753 12.2846 21.9284 12.0785 21.939C11.8723 21.9497 11.6662 21.9177 11.473 21.8451L11.329 21.7831L7.975 20.1061C6.52561 19.3813 5.29878 18.2787 4.424 16.9147C3.54923 15.5506 3.05898 13.9756 3.005 12.3561L3 12.0561V6.69306C3.00001 6.31419 3.10763 5.94311 3.31033 5.62303C3.51304 5.30295 3.8025 5.04702 4.145 4.88506L4.298 4.82006L11.298 2.19506ZM15.433 8.62906L10.835 13.2271L9.067 11.4591C8.87936 11.2715 8.62492 11.1663 8.35965 11.1664C8.09438 11.1664 7.84001 11.2719 7.6525 11.4596C7.46499 11.6472 7.3597 11.9016 7.3598 12.1669C7.35989 12.4322 7.46536 12.6865 7.653 12.8741L10.057 15.2781C10.1592 15.3803 10.2804 15.4613 10.4139 15.5166C10.5474 15.572 10.6905 15.6004 10.835 15.6004C10.9795 15.6004 11.1226 15.572 11.2561 15.5166C11.3896 15.4613 11.5108 15.3803 11.613 15.2781L16.847 10.0431C16.9425 9.95081 17.0187 9.84047 17.0711 9.71846C17.1235 9.59646 17.1511 9.46524 17.1523 9.33246C17.1534 9.19968 17.1281 9.068 17.0778 8.9451C17.0275 8.82221 16.9533 8.71055 16.8594 8.61666C16.7655 8.52277 16.6539 8.44852 16.531 8.39823C16.4081 8.34795 16.2764 8.32265 16.1436 8.32381C16.0108 8.32496 15.8796 8.35255 15.7576 8.40496C15.6356 8.45736 15.5252 8.53355 15.433 8.62906Z" fill="currentColor"/>
</svg>
