<svg width="24" height="24" viewBox="0 0 24 24" fill="none" xmlns="http://www.w3.org/2000/svg">
<path fill-rule="evenodd" clip-rule="evenodd" d="M9.40495 2.89695C10.1004 2.30439 10.9777 1.96774 11.8909 1.943C12.8042 1.91825 13.6985 2.20691 14.4249 2.76095L14.5949 2.89695L14.9709 3.21695C15.2446 3.45058 15.5763 3.60604 15.9309 3.66695L16.1089 3.68895L16.6019 3.72895C17.5152 3.80182 18.3758 4.18599 19.0398 4.81723C19.7038 5.44847 20.131 6.28853 20.2499 7.19695L20.2709 7.39695L20.3109 7.89095C20.3393 8.24926 20.4636 8.59333 20.6709 8.88695L20.7809 9.02895L21.1029 9.40495C21.6955 10.1004 22.0322 10.9777 22.0569 11.8909C22.0816 12.8042 21.793 13.6985 21.2389 14.4249L21.1029 14.5949L20.7819 14.9709C20.5483 15.2446 20.3929 15.5763 20.3319 15.9309L20.3099 16.1089L20.2709 16.6019C20.1981 17.5152 19.8139 18.3758 19.1827 19.0398C18.5514 19.7038 17.7114 20.131 16.8029 20.2499L16.6019 20.2709L16.1089 20.3109C15.7506 20.3393 15.4066 20.4636 15.1129 20.6709L14.9709 20.7819L14.5939 21.1019C13.8987 21.6947 13.0214 22.0315 12.1081 22.0564C11.1948 22.0813 10.3005 21.7929 9.57395 21.2389L9.40495 21.1029L9.02895 20.7819C8.75526 20.5483 8.4236 20.3929 8.06895 20.3319L7.89095 20.3109L7.39795 20.2709C6.48468 20.1981 5.6241 19.8139 4.96009 19.1827C4.29608 18.5514 3.8689 17.7114 3.74995 16.8029L3.72895 16.6029L3.68895 16.1089C3.66063 15.7506 3.53627 15.4066 3.32895 15.1129L3.21795 14.9709L2.89695 14.5939C2.30439 13.8985 1.96774 13.0212 1.943 12.1079C1.91825 11.1947 2.20691 10.3004 2.76095 9.57395L2.89695 9.40495L3.21695 9.02895C3.45058 8.75526 3.60604 8.4236 3.66695 8.06895L3.68895 7.89095L3.72895 7.39795C3.80182 6.48468 4.18599 5.6241 4.81723 4.96009C5.44847 4.29608 6.28853 3.8689 7.19695 3.74995L7.39695 3.72895L7.89095 3.68895C8.24926 3.66063 8.59333 3.53627 8.88695 3.32895L9.02895 3.21795L9.40495 2.89695ZM14.4999 12.9999C14.1021 12.9999 13.7206 13.158 13.4393 13.4393C13.158 13.7206 12.9999 14.1021 12.9999 14.4999C12.9999 14.8978 13.158 15.2793 13.4393 15.5606C13.7206 15.8419 14.1021 15.9999 14.4999 15.9999C14.8978 15.9999 15.2793 15.8419 15.5606 15.5606C15.8419 15.2793 15.9999 14.8978 15.9999 14.4999C15.9999 14.1021 15.8419 13.7206 15.5606 13.4393C15.2793 13.158 14.8978 12.9999 14.4999 12.9999ZM14.2929 8.29295L8.29295 14.2929C8.19744 14.3852 8.12125 14.4955 8.06885 14.6175C8.01644 14.7395 7.98885 14.8708 7.9877 15.0035C7.98654 15.1363 8.01185 15.268 8.06213 15.3909C8.11241 15.5138 8.18666 15.6254 8.28055 15.7193C8.37445 15.8132 8.4861 15.8875 8.60899 15.9378C8.73189 15.988 8.86357 16.0134 8.99635 16.0122C9.12913 16.011 9.26035 15.9835 9.38235 15.931C9.50436 15.8786 9.6147 15.8025 9.70695 15.7069L15.7069 9.70695C15.8891 9.51835 15.9899 9.26574 15.9876 9.00355C15.9853 8.74135 15.8802 8.49054 15.6948 8.30513C15.5094 8.11972 15.2585 8.01455 14.9963 8.01227C14.7342 8.01 14.4816 8.11079 14.2929 8.29295ZM9.49995 7.99995C9.10212 7.99995 8.72059 8.15798 8.43929 8.43929C8.15798 8.72059 7.99995 9.10212 7.99995 9.49995C7.99995 9.89777 8.15798 10.2793 8.43929 10.5606C8.72059 10.8419 9.10212 10.9999 9.49995 10.9999C9.89777 10.9999 10.2793 10.8419 10.5606 10.5606C10.8419 10.2793 10.9999 9.89777 10.9999 9.49995C10.9999 9.10212 10.8419 8.72059 10.5606 8.43929C10.2793 8.15798 9.89777 7.99995 9.49995 7.99995Z" fill="currentColor"/>
</svg>
