<svg width="24" height="24" viewBox="0 0 24 24" fill="none" xmlns="http://www.w3.org/2000/svg">
<path d="M18.5 5.5C19.5609 5.5 20.5783 5.92143 21.3284 6.67157C22.0786 7.42172 22.5 8.43914 22.5 9.5C22.5 10.5609 22.0786 11.5783 21.3284 12.3284C20.5783 13.0786 19.5609 13.5 18.5 13.5H3C2.60218 13.5 2.22064 13.342 1.93934 13.0607C1.65804 12.7794 1.5 12.3978 1.5 12C1.5 11.6022 1.65804 11.2206 1.93934 10.9393C2.22064 10.658 2.60218 10.5 3 10.5H18.5C18.6656 10.4999 18.8286 10.4588 18.9744 10.3801C19.1202 10.3015 19.2441 10.1879 19.3351 10.0495C19.4262 9.91114 19.4814 9.75232 19.4958 9.58733C19.5103 9.42234 19.4836 9.25634 19.418 9.10424C19.3525 8.95214 19.2502 8.8187 19.1203 8.71591C18.9904 8.61312 18.8371 8.54419 18.674 8.51531C18.5109 8.48644 18.3432 8.49853 18.1859 8.55048C18.0287 8.60244 17.8868 8.69265 17.773 8.813L17.7 8.9C17.583 9.06105 17.4352 9.19721 17.2651 9.30055C17.095 9.40389 16.906 9.47233 16.7092 9.5019C16.5123 9.53147 16.3116 9.52158 16.1186 9.47278C15.9256 9.42399 15.7443 9.33728 15.5852 9.21771C15.4261 9.09814 15.2923 8.94809 15.1918 8.77632C15.0912 8.60454 15.0259 8.41447 14.9995 8.21718C14.9732 8.0199 14.9863 7.81933 15.0383 7.62719C15.0902 7.43504 15.1798 7.25515 15.302 7.098C15.6744 6.60162 16.1572 6.19879 16.7123 5.92142C17.2674 5.64405 17.8795 5.49977 18.5 5.5ZM11 2.5C11.4596 2.5 11.9148 2.59053 12.3394 2.76642C12.764 2.94231 13.1499 3.20012 13.4749 3.52513C13.7999 3.85013 14.0577 4.23597 14.2336 4.66061C14.4095 5.08525 14.5 5.54037 14.5 6C14.5 6.45963 14.4095 6.91475 14.2336 7.33939C14.0577 7.76403 13.7999 8.14987 13.4749 8.47487C13.1499 8.79988 12.764 9.05769 12.3394 9.23358C11.9148 9.40947 11.4596 9.5 11 9.5H5C4.60218 9.5 4.22064 9.34197 3.93934 9.06066C3.65804 8.77936 3.5 8.39783 3.5 8C3.5 7.60218 3.65804 7.22064 3.93934 6.93934C4.22064 6.65804 4.60218 6.5 5 6.5H11C11.0766 6.49989 11.1521 6.48219 11.2208 6.44827C11.2894 6.41435 11.3494 6.36511 11.396 6.30435C11.4426 6.24359 11.4746 6.17293 11.4896 6.09784C11.5046 6.02274 11.5021 5.9452 11.4824 5.8712C11.4627 5.79721 11.4262 5.72873 11.3758 5.67106C11.3255 5.61338 11.2625 5.56805 11.1918 5.53856C11.1212 5.50907 11.0447 5.49621 10.9682 5.50097C10.8918 5.50572 10.8175 5.52797 10.751 5.566C10.5803 5.66855 10.3909 5.7361 10.1939 5.76469C9.9968 5.79328 9.79602 5.78235 9.60322 5.73254C9.41043 5.68273 9.22949 5.59503 9.07094 5.47455C8.9124 5.35408 8.77942 5.20324 8.67978 5.03084C8.58014 4.85844 8.51582 4.66793 8.49057 4.47041C8.46533 4.27289 8.47966 4.07233 8.53274 3.88041C8.58581 3.68849 8.67657 3.50906 8.79972 3.35258C8.92286 3.1961 9.07593 3.0657 9.25 2.969C9.78188 2.66134 10.3856 2.49956 11 2.5ZM5 3C5.26522 3 5.51957 3.10536 5.70711 3.29289C5.89464 3.48043 6 3.73478 6 4C6 4.26522 5.89464 4.51957 5.70711 4.70711C5.51957 4.89464 5.26522 5 5 5C4.73478 5 4.48043 4.89464 4.29289 4.70711C4.10536 4.51957 4 4.26522 4 4C4 3.73478 4.10536 3.48043 4.29289 3.29289C4.48043 3.10536 4.73478 3 5 3ZM17 3C17.2652 3 17.5196 3.10536 17.7071 3.29289C17.8946 3.48043 18 3.73478 18 4C18 4.26522 17.8946 4.51957 17.7071 4.70711C17.5196 4.89464 17.2652 5 17 5C16.7348 5 16.4804 4.89464 16.2929 4.70711C16.1054 4.51957 16 4.26522 16 4C16 3.73478 16.1054 3.48043 16.2929 3.29289C16.4804 3.10536 16.7348 3 17 3ZM9 19C9.26522 19 9.51957 19.1054 9.70711 19.2929C9.89464 19.4804 10 19.7348 10 20C10 20.2652 9.89464 20.5196 9.70711 20.7071C9.51957 20.8946 9.26522 21 9 21C8.73478 21 8.48043 20.8946 8.29289 20.7071C8.10536 20.5196 8 20.2652 8 20C8 19.7348 8.10536 19.4804 8.29289 19.2929C8.48043 19.1054 8.73478 19 9 19ZM14.5 14.5C14.9368 14.5002 15.3682 14.5958 15.7642 14.7801C16.1602 14.9644 16.5111 15.2329 16.7926 15.5669C17.074 15.9009 17.2791 16.2924 17.3935 16.7139C17.508 17.1354 17.529 17.5768 17.4552 18.0073C17.3813 18.4377 17.2144 18.8469 16.966 19.2061C16.7176 19.5654 16.3938 19.8661 16.0171 20.0872C15.6404 20.3083 15.22 20.4445 14.7853 20.4862C14.3505 20.528 13.9119 20.4744 13.5 20.329C13.2074 20.2256 12.954 20.034 12.7749 19.7806C12.5957 19.5272 12.4996 19.2245 12.4997 18.9141C12.4998 18.6038 12.5962 18.3011 12.7755 18.0479C12.9548 17.7946 13.2083 17.6032 13.501 17.5H7C6.60218 17.5 6.22064 17.342 5.93934 17.0607C5.65804 16.7794 5.5 16.3978 5.5 16C5.5 15.6022 5.65804 15.2206 5.93934 14.9393C6.22064 14.658 6.60218 14.5 7 14.5H14.5ZM21 17C21 17.2652 20.8946 17.5196 20.7071 17.7071C20.5196 17.8946 20.2652 18 20 18C19.7348 18 19.4804 17.8946 19.2929 17.7071C19.1054 17.5196 19 17.2652 19 17C19 16.7348 19.1054 16.4804 19.2929 16.2929C19.4804 16.1054 19.7348 16 20 16C20.2652 16 20.5196 16.1054 20.7071 16.2929C20.8946 16.4804 21 16.7348 21 17Z" fill="currentColor"/>
</svg>
