<svg width="24" height="24" viewBox="0 0 24 24" fill="none" xmlns="http://www.w3.org/2000/svg">
<path d="M5 4C5 3.46957 5.21071 2.96086 5.58579 2.58579C5.96086 2.21071 6.46957 2 7 2H17C17.5304 2 18.0391 2.21071 18.4142 2.58579C18.7893 2.96086 19 3.46957 19 4V5C19 6.441 18.391 7.984 17.6 9.316C17.0198 10.2894 16.3259 11.1904 15.533 12C16.3252 12.8097 17.0184 13.7107 17.598 14.684C18.391 16.016 19 17.56 19 19V20C19 20.5304 18.7893 21.0391 18.4142 21.4142C18.0391 21.7893 17.5304 22 17 22H7C6.46957 22 5.96086 21.7893 5.58579 21.4142C5.21071 21.0391 5 20.5304 5 20V19C5 17.559 5.609 16.016 6.4 14.684C6.9802 13.7106 7.67407 12.8096 8.467 12C7.711 11.233 6.987 10.3 6.402 9.316C5.609 7.984 5 6.44 5 5V4Z" fill="currentColor"/>
</svg>
