<svg width="24" height="24" viewBox="0 0 24 24" fill="none" xmlns="http://www.w3.org/2000/svg">
<path fill-rule="evenodd" clip-rule="evenodd" d="M5 4C5 3.46957 5.21071 2.96086 5.58579 2.58579C5.96086 2.21071 6.46957 2 7 2H17C17.5304 2 18.0391 2.21071 18.4142 2.58579C18.7893 2.96086 19 3.46957 19 4V5.86C18.9999 6.68314 18.7966 7.49353 18.4081 8.21923C18.0196 8.94493 17.458 9.56349 16.773 10.02L13.803 12L16.773 13.98C17.458 14.4365 18.0196 15.0551 18.4081 15.7808C18.7966 16.5065 18.9999 17.3169 19 18.14V20C19 20.5304 18.7893 21.0391 18.4142 21.4142C18.0391 21.7893 17.5304 22 17 22H7C6.46957 22 5.96086 21.7893 5.58579 21.4142C5.21071 21.0391 5 20.5304 5 20V18.14C4.99999 17.3169 5.20315 16.5066 5.59147 15.7809C5.97978 15.0552 6.54123 14.4366 7.226 13.98L10.198 12L7.228 10.02C6.54286 9.5636 5.98102 8.94509 5.59235 8.21939C5.20368 7.49368 5.00021 6.68323 5 5.86V4Z" fill="currentColor"/>
</svg>
