<svg width="24" height="24" viewBox="0 0 24 24" fill="none" xmlns="http://www.w3.org/2000/svg">
<path d="M8.82846 3C8.03322 3.00044 7.27069 3.3166 6.70846 3.879L3.70746 6.879C3.14505 7.44158 2.8291 8.20451 2.8291 9C2.8291 9.79549 3.14505 10.5584 3.70746 11.121L5.17246 12.586C5.35999 12.7735 5.6143 12.8788 5.87946 12.8788C6.14463 12.8788 6.39893 12.7735 6.58646 12.586L10.5865 8.586C10.7739 8.39847 10.8792 8.14416 10.8792 7.879C10.8792 7.61384 10.7739 7.35953 10.5865 7.172L8.47846 5.064C8.59036 5.02192 8.70891 5.00024 8.82846 5H15.1725C15.292 5.00024 15.4106 5.02192 15.5225 5.064L8.29246 12.293C7.93394 12.6509 7.65027 13.0767 7.45798 13.5454C7.26569 14.0141 7.16863 14.5164 7.17246 15.023C7.17643 16.031 7.57949 16.9964 8.29346 17.708C8.69576 18.1108 9.18298 18.4186 9.71949 18.6089C10.256 18.7992 10.8283 18.8672 11.3945 18.808L12.7935 20.208C12.9811 20.3955 13.2355 20.5008 13.5008 20.5007C13.7661 20.5006 14.0205 20.3951 14.208 20.2075C14.3955 20.0199 14.5008 19.7654 14.5007 19.5001C14.5006 19.2349 14.3951 18.9805 14.2075 18.793L13.3985 17.984C13.5055 17.898 13.6085 17.806 13.7085 17.707L14.0005 17.414L15.2935 18.707C15.4821 18.8892 15.7347 18.99 15.9969 18.9877C16.2591 18.9854 16.5099 18.8802 16.6953 18.6948C16.8807 18.5094 16.9859 18.2586 16.9881 17.9964C16.9904 17.7342 16.8896 17.4816 16.7075 17.293L15.4145 16L16.0005 15.414L17.7935 17.207C17.9821 17.3892 18.2347 17.49 18.4969 17.4877C18.7591 17.4854 19.0099 17.3802 19.1953 17.1948C19.3807 17.0094 19.4859 16.7586 19.4881 16.4964C19.4904 16.2342 19.3896 15.9816 19.2075 15.793L17.4145 14L20.2935 11.121C20.8559 10.5584 21.1718 9.79549 21.1718 9C21.1718 8.20451 20.8559 7.44158 20.2935 6.879L17.2935 3.879C16.731 3.31635 15.968 3.00017 15.1725 3H8.82846Z" fill="currentColor"/>
</svg>
