<svg width="24" height="24" viewBox="0 0 24 24" fill="none" xmlns="http://www.w3.org/2000/svg">
<path fill-rule="evenodd" clip-rule="evenodd" d="M11.063 2.46901C11.309 2.27225 11.6108 2.15796 11.9254 2.14235C12.2401 2.12673 12.5517 2.21058 12.816 2.38201L12.937 2.46901L17.249 5.91901C17.4594 6.08715 17.6336 6.29606 17.7613 6.53319C17.889 6.77033 17.9675 7.03081 17.992 7.29901L18 7.48001V19H19V10.5C19 10.383 19.041 10.2696 19.1159 10.1797C19.1908 10.0898 19.2949 10.0291 19.41 10.008L19.5 10H20C20.5046 9.99985 20.9906 10.1904 21.3605 10.5335C21.7305 10.8766 21.9572 11.3469 21.995 11.85L22 12V19.9C21.9999 20.1709 21.8998 20.4322 21.719 20.6339C21.5382 20.8356 21.2893 20.9635 21.02 20.993L20.9 21H3.1C2.82894 21.0001 2.56738 20.9002 2.36548 20.7193C2.16358 20.5385 2.03557 20.2894 2.006 20.02L2 19.9V12C1.99984 11.4954 2.19041 11.0094 2.5335 10.6395C2.87659 10.2695 3.34684 10.0428 3.85 10.005L4 10H4.5C4.61703 9.99997 4.73036 10.041 4.82026 10.1159C4.91016 10.1908 4.97094 10.2949 4.992 10.41L5 10.5V19H6V7.48001C5.99998 7.21069 6.05436 6.94415 6.15987 6.69636C6.26537 6.44857 6.41984 6.22464 6.614 6.03801L6.751 5.91801L11.063 2.46901ZM12 8.99901C11.4696 8.99901 10.9609 9.20972 10.5858 9.58479C10.2107 9.95987 10 10.4686 10 10.999C10 11.5294 10.2107 12.0381 10.5858 12.4132C10.9609 12.7883 11.4696 12.999 12 12.999C12.5304 12.999 13.0391 12.7883 13.4142 12.4132C13.7893 12.0381 14 11.5294 14 10.999C14 10.4686 13.7893 9.95987 13.4142 9.58479C13.0391 9.20972 12.5304 8.99901 12 8.99901Z" fill="currentColor"/>
</svg>
