<svg width="24" height="24" viewBox="0 0 24 24" fill="none" xmlns="http://www.w3.org/2000/svg">
<path fill-rule="evenodd" clip-rule="evenodd" d="M7.3831 1.33704L13.3831 11.731C14.7612 10.9354 16.3989 10.7198 17.9359 11.1316C19.4729 11.5435 20.7834 12.549 21.5791 13.927L21.6861 14.113C22.4531 15.4419 22.6608 17.0211 22.2637 18.5031C21.8665 19.9852 20.8969 21.2488 19.5681 22.016C18.83 22.4421 17.9528 22.5576 17.1296 22.3371C16.3063 22.1166 15.6044 21.5781 15.1781 20.84L12.0001 15.336L8.8221 20.84C8.39583 21.5781 7.69387 22.1166 6.87062 22.3371C6.04736 22.5576 5.17022 22.4421 4.4321 22.016C3.10334 21.2488 2.13374 19.9852 1.73654 18.5031C1.33935 17.0211 1.5471 15.4419 2.3141 14.113L2.4211 13.927C3.12603 12.7066 4.23798 11.7731 5.56208 11.2903C6.88619 10.8074 8.338 10.8059 9.6631 11.286L6.0351 5.00204C5.70359 4.42784 5.61376 3.74547 5.78535 3.10504C5.95694 2.46461 6.37592 1.91857 6.9501 1.58704L7.3831 1.33704ZM5.0191 15.427L4.9121 15.613C4.54291 16.2529 4.44296 17.0132 4.63424 17.7267C4.82552 18.4403 5.29236 19.0486 5.9321 19.418C6.0341 19.478 6.1651 19.442 6.2241 19.34L9.1171 14.33C8.42818 13.9321 7.60943 13.8242 6.84093 14.0299C6.07242 14.2356 5.4171 14.7382 5.0191 15.427ZM14.8831 14.329L17.7761 19.339C17.8351 19.442 17.9661 19.477 18.0681 19.419C18.385 19.2361 18.6628 18.9926 18.8855 18.7023C19.1083 18.412 19.2717 18.0807 19.3664 17.7273C19.4612 17.3739 19.4853 17.0053 19.4376 16.6425C19.3898 16.2797 19.2711 15.9299 19.0881 15.613L18.9811 15.427C18.5833 14.738 17.928 14.2353 17.1595 14.0293C16.391 13.8234 15.5721 13.9312 14.8831 14.329ZM16.6171 1.33704L17.0501 1.58704C17.5987 1.90367 18.0067 2.41678 18.1916 3.02266C18.3765 3.62855 18.3245 4.28203 18.0461 4.85104L17.9661 5.00204L14.8821 10.342L13.1501 7.34204L16.6171 1.33704Z" fill="currentColor"/>
</svg>
