<svg width="24" height="24" viewBox="0 0 24 24" fill="none" xmlns="http://www.w3.org/2000/svg">
<path fill-rule="evenodd" clip-rule="evenodd" d="M18.1719 4.945C18.5519 4.40192 18.7007 3.73015 18.5856 3.07738C18.4705 2.42461 18.1008 1.84429 17.5579 1.464L17.1479 1.177L12.0019 8.527L6.85489 1.177L6.44489 1.464C5.90214 1.84444 5.53268 2.42484 5.41773 3.07759C5.30278 3.73035 5.45175 4.40205 5.83189 4.945L10.1709 11.142L8.37089 13.712C7.35994 13.3885 6.26717 13.4327 5.28569 13.8369C4.3042 14.2411 3.49719 14.9792 3.00727 15.9209C2.51735 16.8625 2.37606 17.947 2.60837 18.9827C2.84067 20.0184 3.43162 20.9387 4.27678 21.5809C5.12194 22.2231 6.1669 22.5458 7.22699 22.4921C8.28709 22.4384 9.29407 22.0117 10.07 21.2874C10.8459 20.563 11.3408 19.5878 11.4672 18.5339C11.5937 17.48 11.3435 16.4153 10.7609 15.528L12.0009 13.758L13.2409 15.526C12.6578 16.4129 12.4071 17.4774 12.5329 18.5313C12.6587 19.5853 13.153 20.5608 13.9284 21.2856C14.7039 22.0103 15.7105 22.4376 16.7706 22.492C17.8306 22.5464 18.8757 22.2244 19.7212 21.5828C20.5668 20.9412 21.1583 20.0214 21.3914 18.9859C21.6244 17.9503 21.4839 16.8658 20.9946 15.9238C20.5054 14.9819 19.699 14.2432 18.7179 13.8383C17.7367 13.4334 16.644 13.3883 15.6329 13.711L13.8329 11.142L18.1719 4.945ZM5.49989 18C5.49989 17.803 5.53869 17.608 5.61407 17.426C5.68945 17.244 5.79994 17.0786 5.93923 16.9393C6.07852 16.8001 6.24388 16.6896 6.42586 16.6142C6.60785 16.5388 6.80291 16.5 6.99989 16.5C7.19687 16.5 7.39193 16.5388 7.57391 16.6142C7.7559 16.6896 7.92126 16.8001 8.06055 16.9393C8.19984 17.0786 8.31033 17.244 8.38571 17.426C8.46109 17.608 8.49989 17.803 8.49989 18C8.49989 18.3978 8.34185 18.7794 8.06055 19.0607C7.77925 19.342 7.39771 19.5 6.99989 19.5C6.60206 19.5 6.22053 19.342 5.93923 19.0607C5.65792 18.7794 5.49989 18.3978 5.49989 18ZM15.4999 18C15.4999 17.6022 15.6579 17.2206 15.9392 16.9393C16.2205 16.658 16.6021 16.5 16.9999 16.5C17.3977 16.5 17.7792 16.658 18.0605 16.9393C18.3419 17.2206 18.4999 17.6022 18.4999 18C18.4999 18.3978 18.3419 18.7794 18.0605 19.0607C17.7792 19.342 17.3977 19.5 16.9999 19.5C16.6021 19.5 16.2205 19.342 15.9392 19.0607C15.6579 18.7794 15.4999 18.3978 15.4999 18Z" fill="currentColor"/>
</svg>
