<svg width="24" height="24" viewBox="0 0 24 24" fill="none" xmlns="http://www.w3.org/2000/svg">
<path d="M17 4.5C17.6347 4.4999 18.2457 4.74123 18.709 5.17504C19.1724 5.60885 19.4534 6.20265 19.495 6.836L19.5 7V16.5H21C21.3852 16.5002 21.7556 16.6486 22.0344 16.9144C22.3132 17.1802 22.479 17.5431 22.4975 17.9279C22.516 18.3127 22.3858 18.6898 22.1338 18.9812C21.8818 19.2726 21.5274 19.4558 21.144 19.493L21 19.5H19.5V21C19.4998 21.3852 19.3514 21.7556 19.0856 22.0344C18.8198 22.3132 18.4569 22.479 18.0721 22.4975C17.6873 22.516 17.3102 22.3858 17.0188 22.1338C16.7274 21.8818 16.5442 21.5274 16.507 21.144L16.5 21V7.5H9.5V4.5H17ZM6 1.5C6.39782 1.5 6.77936 1.65804 7.06066 1.93934C7.34196 2.22064 7.5 2.60218 7.5 3V16.5H14.5V19.5H7C6.33696 19.5 5.70107 19.2366 5.23223 18.7678C4.76339 18.2989 4.5 17.663 4.5 17V7.5H3C2.60218 7.5 2.22064 7.34196 1.93934 7.06066C1.65804 6.77936 1.5 6.39782 1.5 6C1.5 5.60218 1.65804 5.22064 1.93934 4.93934C2.22064 4.65804 2.60218 4.5 3 4.5H4.5V3C4.5 2.60218 4.65804 2.22064 4.93934 1.93934C5.22064 1.65804 5.60218 1.5 6 1.5Z" fill="currentColor"/>
</svg>
