<svg width="24" height="24" viewBox="0 0 24 24" fill="none" xmlns="http://www.w3.org/2000/svg">
<path fill-rule="evenodd" clip-rule="evenodd" d="M19.2636 3.36399C19.4547 3.24935 19.6787 3.20184 19.8999 3.22902C20.1211 3.2562 20.3269 3.35649 20.4846 3.51399L20.4926 3.52199C20.6507 3.6802 20.7512 3.88687 20.778 4.10894C20.8049 4.33101 20.7565 4.55566 20.6406 4.74699L19.5726 6.50799C19.4603 6.69301 19.291 6.83661 19.0901 6.91722C18.8892 6.99782 18.6676 7.01107 18.4586 6.95499L14.8286 10.585L15.2426 11C16.1936 11.951 16.1676 13.489 15.2326 14.423C14.7872 14.8685 14.1835 15.1195 13.5536 15.121C13.485 15.1212 13.4178 15.1405 13.3595 15.1767C13.3012 15.2129 13.2542 15.2646 13.2236 15.326L12.3326 17.106C12.1884 17.3945 11.9986 17.6579 11.7706 17.886L8.46457 21.192C8.18599 21.4706 7.85525 21.6916 7.49124 21.8424C7.12723 21.9932 6.73708 22.0708 6.34307 22.0708C5.94906 22.0708 5.55891 21.9932 5.1949 21.8424C4.83089 21.6916 4.50015 21.4706 4.22157 21.192L2.80757 19.778C2.52894 19.4994 2.30792 19.1687 2.15712 18.8047C2.00633 18.4406 1.92871 18.0505 1.92871 17.6565C1.92871 17.2625 2.00633 16.8723 2.15712 16.5083C2.30792 16.1443 2.52894 15.8136 2.80757 15.535L6.11357 12.229C6.34167 12.0009 6.60505 11.8112 6.89357 11.667L8.67357 10.777C8.73513 10.7463 8.78692 10.6991 8.82313 10.6406C8.85934 10.5822 8.87854 10.5148 8.87857 10.446C8.87857 9.81299 9.13457 9.20798 9.57657 8.76599C10.5106 7.83198 12.0486 7.80599 12.9996 8.75699L13.4136 9.17098L17.0436 5.54099C16.9875 5.33112 17.0012 5.10868 17.0828 4.90733C17.1643 4.70598 17.3092 4.53666 17.4956 4.42499L19.2636 3.36399ZM9.17157 14.828C9.35904 15.0155 9.46436 15.2698 9.46436 15.535C9.46436 15.8001 9.35904 16.0545 9.17157 16.242L7.04957 18.364C6.86193 18.5516 6.60743 18.657 6.34207 18.657C6.07671 18.657 5.82221 18.5516 5.63457 18.364C5.44693 18.1763 5.34151 17.9218 5.34151 17.6565C5.34151 17.3911 5.44693 17.1366 5.63457 16.949L7.75657 14.829C7.9441 14.6415 8.19841 14.5362 8.46357 14.5362C8.72873 14.5362 8.98304 14.6415 9.17057 14.829" fill="currentColor"/>
</svg>
