<svg width="24" height="24" viewBox="0 0 24 24" fill="none" xmlns="http://www.w3.org/2000/svg">
<path fill-rule="evenodd" clip-rule="evenodd" d="M6 7.99995C6.00016 6.91825 6.29275 5.85671 6.84679 4.92767C7.40084 3.99863 8.19573 3.23665 9.14736 2.72237C10.099 2.20808 11.1719 1.96062 12.2527 2.00618C13.3334 2.05173 14.3817 2.3886 15.2867 2.98114C16.1917 3.57368 16.9196 4.39985 17.3935 5.37222C17.8674 6.34458 18.0697 7.42698 17.9788 8.50486C17.8879 9.58274 17.5074 10.616 16.8774 11.4953C16.2474 12.3746 15.3914 13.0673 14.4 13.4999C14.3419 13.5253 14.2932 13.5683 14.261 13.6229L14.36 14.9999H18C18.7956 14.9999 19.5587 15.316 20.1213 15.8786C20.6839 16.4412 21 17.2043 21 17.9999V19.9999C21 20.5304 20.7893 21.0391 20.4142 21.4142C20.0391 21.7892 19.5304 21.9999 19 21.9999H5C4.46957 21.9999 3.96086 21.7892 3.58579 21.4142C3.21071 21.0391 3 20.5304 3 19.9999V17.9999C3 17.2043 3.31607 16.4412 3.87868 15.8786C4.44129 15.316 5.20435 14.9999 6 14.9999H9.64L9.739 13.6239C9.70668 13.5688 9.65765 13.5254 9.599 13.4999C8.52912 13.0326 7.61879 12.2634 6.97954 11.2865C6.34028 10.3096 5.99987 9.16742 6 7.99995Z" fill="currentColor"/>
</svg>
