<svg width="24" height="24" viewBox="0 0 24 24" fill="none" xmlns="http://www.w3.org/2000/svg">
<path fill-rule="evenodd" clip-rule="evenodd" d="M7.293 13.707C7.10553 13.5194 7.00021 13.2651 7.00021 13C7.00021 12.7348 7.10553 12.4805 7.293 12.293L9.293 10.293C9.43285 10.1532 9.61102 10.058 9.80497 10.0194C9.99892 9.98082 10.2 10.0006 10.3827 10.0763C10.5654 10.152 10.7215 10.2801 10.8314 10.4445C10.9413 10.6089 11 10.8022 11 11V15C11 15.1977 10.9413 15.391 10.8314 15.5554C10.7215 15.7198 10.5654 15.848 10.3827 15.9236C10.2 15.9993 9.99892 16.0191 9.80497 15.9806C9.61102 15.942 9.43285 15.8468 9.293 15.707L7.293 13.707ZM13.617 15.924C13.4343 15.8482 13.2782 15.72 13.1684 15.5555C13.0585 15.3911 13 15.1977 13 15V11C13 10.8022 13.0587 10.6089 13.1686 10.4445C13.2785 10.2801 13.4346 10.152 13.6173 10.0763C13.8 10.0006 14.0011 9.98082 14.195 10.0194C14.389 10.058 14.5671 10.1532 14.707 10.293L16.707 12.293C16.8945 12.4805 16.9998 12.7348 16.9998 13C16.9998 13.2651 16.8945 13.5194 16.707 13.707L14.707 15.707C14.5672 15.8469 14.3889 15.9422 14.1949 15.9808C14.0009 16.0195 13.7998 15.9997 13.617 15.924Z" fill="currentColor"/>
</svg>
