<svg width="24" height="24" viewBox="0 0 24 24" fill="none" xmlns="http://www.w3.org/2000/svg">
<path d="M5 9C5 7.14348 5.7375 5.36301 7.05025 4.05025C8.36301 2.7375 10.1435 2 12 2C13.8565 2 15.637 2.7375 16.9497 4.05025C18.2625 5.36301 19 7.14348 19 9V10.035C20.696 10.278 22 11.737 22 13.5V13.75C22 15.525 20.469 17.081 18.668 16.998C17.928 19.118 16.046 20.547 14.015 20.909C13.545 21.081 12.989 21 12.5 21C12.1022 21 11.7206 20.842 11.4393 20.5607C11.158 20.2794 11 19.8978 11 19.5C11 19.1022 11.158 18.7206 11.4393 18.4393C11.7206 18.158 12.1022 18 12.5 18C13.293 18 14.171 17.885 14.707 18.609C16.003 17.992 17 16.689 17 15V9C17 7.67392 16.4732 6.40215 15.5355 5.46447C14.5979 4.52678 13.3261 4 12 4C10.6739 4 9.40215 4.52678 8.46447 5.46447C7.52678 6.40215 7 7.67392 7 9V15.25C7 15.7141 6.81563 16.1592 6.48744 16.4874C6.15925 16.8156 5.71413 17 5.25 17C4.38805 17 3.5614 16.6576 2.9519 16.0481C2.34241 15.4386 2 14.612 2 13.75V13.5C1.99978 12.6582 2.30296 11.8446 2.85395 11.2082C3.40495 10.5718 4.16685 10.1553 5 10.035V9Z" fill="currentColor"/>
</svg>
