<svg width="24" height="24" viewBox="0 0 24 24" fill="none" xmlns="http://www.w3.org/2000/svg">
<path d="M20 15V19C20.0002 19.5046 19.8096 19.9906 19.4665 20.3605C19.1234 20.7305 18.6532 20.9572 18.15 20.995L18 21H6C5.49542 21.0002 5.00943 20.8096 4.63945 20.4665C4.26947 20.1234 4.04284 19.6532 4.005 19.15L4 19V15H20ZM14 17C13.7348 17 13.4804 17.1054 13.2929 17.2929C13.1054 17.4804 13 17.7348 13 18C13 18.2652 13.1054 18.5196 13.2929 18.7071C13.4804 18.8946 13.7348 19 14 19C14.2652 19 14.5196 18.8946 14.7071 18.7071C14.8946 18.5196 15 18.2652 15 18C15 17.7348 14.8946 17.4804 14.7071 17.2929C14.5196 17.1054 14.2652 17 14 17ZM17 17C16.7348 17 16.4804 17.1054 16.2929 17.2929C16.1054 17.4804 16 17.7348 16 18C16 18.2652 16.1054 18.5196 16.2929 18.7071C16.4804 18.8946 16.7348 19 17 19C17.2652 19 17.5196 18.8946 17.7071 18.7071C17.8946 18.5196 18 18.2652 18 18C18 17.7348 17.8946 17.4804 17.7071 17.2929C17.5196 17.1054 17.2652 17 17 17ZM20 9V13H4V9H20ZM18 3C18.5304 3 19.0391 3.21071 19.4142 3.58579C19.7893 3.96086 20 4.46957 20 5V7H4V5C4 4.46957 4.21071 3.96086 4.58579 3.58579C4.96086 3.21071 5.46957 3 6 3H18Z" fill="currentColor"/>
</svg>
