<svg width="24" height="24" viewBox="0 0 24 24" fill="none" xmlns="http://www.w3.org/2000/svg">
<path fill-rule="evenodd" clip-rule="evenodd" d="M18.5 4C18.5 3.60218 18.342 3.22064 18.0607 2.93934C17.7794 2.65804 17.3978 2.5 17 2.5C16.6022 2.5 16.2206 2.65804 15.9393 2.93934C15.658 3.22064 15.5 3.60218 15.5 4V4.5H4C3.60218 4.5 3.22064 4.65804 2.93934 4.93934C2.65804 5.22064 2.5 5.60218 2.5 6C2.5 6.39782 2.65804 6.77936 2.93934 7.06066C3.22064 7.34196 3.60218 7.5 4 7.5H15.5V8C15.5 8.39782 15.658 8.77936 15.9393 9.06066C16.2206 9.34196 16.6022 9.5 17 9.5C17.3978 9.5 17.7794 9.34196 18.0607 9.06066C18.342 8.77936 18.5 8.39782 18.5 8V7.5H20C20.3978 7.5 20.7794 7.34196 21.0607 7.06066C21.342 6.77936 21.5 6.39782 21.5 6C21.5 5.60218 21.342 5.22064 21.0607 4.93934C20.7794 4.65804 20.3978 4.5 20 4.5H18.5V4ZM4 10.5C3.60218 10.5 3.22064 10.658 2.93934 10.9393C2.65804 11.2206 2.5 11.6022 2.5 12C2.5 12.3978 2.65804 12.7794 2.93934 13.0607C3.22064 13.342 3.60218 13.5 4 13.5H5.5V14C5.5 14.3978 5.65804 14.7794 5.93934 15.0607C6.22064 15.342 6.60218 15.5 7 15.5C7.39782 15.5 7.77936 15.342 8.06066 15.0607C8.34196 14.7794 8.5 14.3978 8.5 14V13.5H20C20.3978 13.5 20.7794 13.342 21.0607 13.0607C21.342 12.7794 21.5 12.3978 21.5 12C21.5 11.6022 21.342 11.2206 21.0607 10.9393C20.7794 10.658 20.3978 10.5 20 10.5H8.5V10C8.5 9.80302 8.4612 9.60796 8.38582 9.42597C8.31044 9.24399 8.19995 9.07863 8.06066 8.93934C7.92137 8.80005 7.75601 8.68956 7.57403 8.61418C7.39204 8.5388 7.19698 8.5 7 8.5C6.80302 8.5 6.60796 8.5388 6.42597 8.61418C6.24399 8.68956 6.07863 8.80005 5.93934 8.93934C5.80005 9.07863 5.68956 9.24399 5.61418 9.42597C5.5388 9.60796 5.5 9.80302 5.5 10V10.5H4ZM2.5 18C2.5 17.6022 2.65804 17.2206 2.93934 16.9393C3.22064 16.658 3.60218 16.5 4 16.5H15.5V16C15.5 15.6022 15.658 15.2206 15.9393 14.9393C16.2206 14.658 16.6022 14.5 17 14.5C17.3978 14.5 17.7794 14.658 18.0607 14.9393C18.342 15.2206 18.5 15.6022 18.5 16V16.5H20C20.3978 16.5 20.7794 16.658 21.0607 16.9393C21.342 17.2206 21.5 17.6022 21.5 18C21.5 18.3978 21.342 18.7794 21.0607 19.0607C20.7794 19.342 20.3978 19.5 20 19.5H18.5V20C18.5 20.3978 18.342 20.7794 18.0607 21.0607C17.7794 21.342 17.3978 21.5 17 21.5C16.6022 21.5 16.2206 21.342 15.9393 21.0607C15.658 20.7794 15.5 20.3978 15.5 20V19.5H4C3.60218 19.5 3.22064 19.342 2.93934 19.0607C2.65804 18.7794 2.5 18.3978 2.5 18Z" fill="currentColor"/>
</svg>
