<svg width="24" height="24" viewBox="0 0 24 24" fill="none" xmlns="http://www.w3.org/2000/svg">
<path d="M14.41 2.29298C15.3787 2.53288 16.3057 2.91718 17.16 3.43298C17.3313 3.53633 17.4676 3.68868 17.5514 3.87034C17.6352 4.05199 17.6626 4.2546 17.63 4.45198C17.517 5.14098 17.688 5.66798 18.01 5.98998C18.332 6.31198 18.86 6.48298 19.548 6.36998C19.7454 6.33741 19.948 6.36478 20.1296 6.44857C20.3113 6.53236 20.4636 6.6687 20.567 6.83998C21.0828 7.69425 21.4671 8.6213 21.707 9.58998C21.7553 9.78431 21.7441 9.98867 21.6749 10.1766C21.6058 10.3645 21.4818 10.5273 21.319 10.644C20.752 11.051 20.499 11.544 20.499 12C20.499 12.456 20.752 12.95 21.319 13.357C21.4816 13.4735 21.6055 13.6362 21.6746 13.8239C21.7438 14.0116 21.7551 14.2158 21.707 14.41C21.4671 15.3786 21.0828 16.3057 20.567 17.16C20.4636 17.3313 20.3113 17.4676 20.1296 17.5514C19.948 17.6352 19.7454 17.6625 19.548 17.63C18.859 17.517 18.332 17.689 18.01 18.01C17.688 18.332 17.517 18.86 17.63 19.548C17.6628 19.7455 17.6355 19.9483 17.5517 20.1302C17.4679 20.312 17.3315 20.4646 17.16 20.568C16.3057 21.0838 15.3787 21.4681 14.41 21.708C14.2157 21.7563 14.0113 21.7451 13.8234 21.6759C13.6355 21.6067 13.4726 21.4827 13.356 21.32C12.949 20.752 12.456 20.5 12 20.5C11.544 20.5 11.05 20.752 10.643 21.32C10.5264 21.4826 10.3638 21.6064 10.1761 21.6756C9.98834 21.7448 9.78419 21.7561 9.59 21.708C8.62134 21.4681 7.6943 21.0838 6.84 20.568C6.66854 20.4646 6.53208 20.312 6.44829 20.1302C6.36449 19.9483 6.33722 19.7455 6.37 19.548C6.483 18.86 6.311 18.333 5.99 18.011C5.667 17.689 5.14 17.517 4.452 17.631C4.25447 17.6638 4.05164 17.6365 3.86979 17.5527C3.68793 17.4689 3.53542 17.3324 3.432 17.161C2.91603 16.3061 2.53173 15.3783 2.292 14.409C2.24392 14.2148 2.2552 14.0106 2.32437 13.8229C2.39354 13.6352 2.51742 13.4725 2.68 13.356C3.248 12.95 3.5 12.456 3.5 12C3.5 11.545 3.248 11.05 2.68 10.644C2.51742 10.5274 2.39354 10.3647 2.32437 10.177C2.2552 9.98932 2.24392 9.78517 2.292 9.59098C2.53181 8.62197 2.91611 7.69458 3.432 6.83998C3.53542 6.66852 3.68793 6.53206 3.86979 6.44826C4.05164 6.36447 4.25447 6.33719 4.452 6.36998C5.14 6.48298 5.667 6.31198 5.989 5.98998C6.311 5.66798 6.483 5.13998 6.369 4.45198C6.33643 4.2546 6.36381 4.05199 6.44759 3.87034C6.53138 3.68868 6.66772 3.53633 6.839 3.43298C7.69359 2.91708 8.62099 2.53277 9.59 2.29298C9.78419 2.2449 9.98834 2.25618 10.1761 2.32534C10.3638 2.39451 10.5264 2.51839 10.643 2.68098C11.05 3.24798 11.544 3.50098 12 3.50098C12.455 3.50098 12.95 3.24798 13.356 2.68098C13.4726 2.51839 13.6352 2.39451 13.8229 2.32534C14.0107 2.25618 14.2158 2.2449 14.41 2.29298ZM12 6.99998C10.6739 6.99998 9.40215 7.52676 8.46447 8.46444C7.52678 9.40212 7 10.6739 7 12C7 13.3261 7.52678 14.5978 8.46447 15.5355C9.40215 16.4732 10.6739 17 12 17C13.3261 17 14.5979 16.4732 15.5355 15.5355C16.4732 14.5978 17 13.3261 17 12C17 10.6739 16.4732 9.40212 15.5355 8.46444C14.5979 7.52676 13.3261 6.99998 12 6.99998ZM12 8.99998C12.7956 8.99998 13.5587 9.31605 14.1213 9.87865C14.6839 10.4413 15 11.2043 15 12C15 12.7956 14.6839 13.5587 14.1213 14.1213C13.5587 14.6839 12.7956 15 12 15C11.2043 15 10.4413 14.6839 9.87868 14.1213C9.31607 13.5587 9 12.7956 9 12C9 11.2043 9.31607 10.4413 9.87868 9.87865C10.4413 9.31605 11.2043 8.99998 12 8.99998Z" fill="currentColor"/>
</svg>
