<svg width="24" height="24" viewBox="0 0 24 24" fill="none" xmlns="http://www.w3.org/2000/svg">
<path fill-rule="evenodd" clip-rule="evenodd" d="M12 2C17.523 2 22 6.477 22 12C22 17.523 17.523 22 12 22C6.477 22 2 17.523 2 12C2 6.477 6.477 2 12 2ZM17 17H12C11.7348 17 11.4804 17.1054 11.2929 17.2929C11.1054 17.4804 11 17.7348 11 18C11 18.2652 11.1054 18.5196 11.2929 18.7071C11.4804 18.8946 11.7348 19 12 19H17C17.2652 19 17.5196 18.8946 17.7071 18.7071C17.8946 18.5196 18 18.2652 18 18C18 17.7348 17.8946 17.4804 17.7071 17.2929C17.5196 17.1054 17.2652 17 17 17ZM19 14H12C11.7451 14.0003 11.5 14.0979 11.3146 14.2728C11.1293 14.4478 11.0178 14.687 11.0028 14.9414C10.9879 15.1958 11.0707 15.4464 11.2343 15.6418C11.3979 15.8373 11.6299 15.9629 11.883 15.993L12 16H19C19.2549 15.9997 19.5 15.9021 19.6854 15.7272C19.8707 15.5522 19.9822 15.313 19.9972 15.0586C20.0121 14.8042 19.9293 14.5536 19.7657 14.3582C19.6021 14.1627 19.3701 14.0371 19.117 14.007L19 14ZM20 11H12C11.7348 11 11.4804 11.1054 11.2929 11.2929C11.1054 11.4804 11 11.7348 11 12C11 12.2652 11.1054 12.5196 11.2929 12.7071C11.4804 12.8946 11.7348 13 12 13H20C20.2652 13 20.5196 12.8946 20.7071 12.7071C20.8946 12.5196 21 12.2652 21 12C21 11.7348 20.8946 11.4804 20.7071 11.2929C20.5196 11.1054 20.2652 11 20 11ZM19 8H12C11.7451 8.00028 11.5 8.09788 11.3146 8.27285C11.1293 8.44782 11.0178 8.68695 11.0028 8.94139C10.9879 9.19584 11.0707 9.44638 11.2343 9.64183C11.3979 9.83729 11.6299 9.9629 11.883 9.993L12 10H19C19.2549 9.99972 19.5 9.90212 19.6854 9.72715C19.8707 9.55218 19.9822 9.31305 19.9972 9.05861C20.0121 8.80416 19.9293 8.55362 19.7657 8.35817C19.6021 8.16271 19.3701 8.0371 19.117 8.007L19 8ZM17 5H12C11.7348 5 11.4804 5.10536 11.2929 5.29289C11.1054 5.48043 11 5.73478 11 6C11 6.26522 11.1054 6.51957 11.2929 6.70711C11.4804 6.89464 11.7348 7 12 7H17C17.2652 7 17.5196 6.89464 17.7071 6.70711C17.8946 6.51957 18 6.26522 18 6C18 5.73478 17.8946 5.48043 17.7071 5.29289C17.5196 5.10536 17.2652 5 17 5Z" fill="currentColor"/>
</svg>
