<svg width="24" height="24" viewBox="0 0 24 24" fill="none" xmlns="http://www.w3.org/2000/svg">
<path d="M10.114 4.49105L9.911 7.63505L9.891 8.05205L9.801 8.06205C5.363 8.58205 2 12.3661 2 17.0001C2 17.4571 2.034 17.9101 2.102 18.3571C2.381 20.2021 2.591 20.3811 3.874 18.8551C4.19197 18.4839 4.5398 18.1394 4.914 17.8251C6.25692 16.715 7.92704 16.0763 9.668 16.0071L9.894 16.0021L9.955 17.2311L10.121 19.5761C10.201 20.3801 11.047 20.9291 11.825 20.4901C12.177 20.2921 12.52 20.0801 12.865 19.8701C14.652 18.7521 16.325 17.4671 17.955 16.1321C18.915 15.3321 19.755 14.5741 20.471 13.8841C20.801 13.5611 21.131 13.2381 21.45 12.9041C21.912 12.4201 21.958 11.6191 21.474 11.1121C20.36 9.94705 18.786 8.48805 16.827 6.94005C15.239 5.69805 13.597 4.53805 11.857 3.51905C11.02 3.04205 10.19 3.69605 10.114 4.49105Z" fill="currentColor"/>
</svg>
