<svg width="24" height="24" viewBox="0 0 24 24" fill="none" xmlns="http://www.w3.org/2000/svg">
<path fill-rule="evenodd" clip-rule="evenodd" d="M14.9998 5.49999C14.9997 4.68833 15.2817 3.90187 15.7975 3.27522C16.3134 2.64857 17.031 2.22069 17.8275 2.0648C18.6241 1.90891 19.4501 2.03471 20.1641 2.42068C20.8781 2.80664 21.4358 3.42876 21.7417 4.18058C22.0476 4.93239 22.0827 5.76714 21.8409 6.54197C21.5992 7.3168 21.0957 7.98354 20.4166 8.42806C19.7375 8.87259 18.925 9.06727 18.1182 8.97878C17.3114 8.89029 16.5604 8.52414 15.9938 7.94299L11.6698 10.21C11.8828 10.765 11.9998 11.37 11.9998 12C12.0004 12.6118 11.8886 13.2186 11.6698 13.79L15.9938 16.057C16.581 15.4554 17.3652 15.0853 18.2029 15.0144C19.0406 14.9434 19.8758 15.1763 20.5559 15.6706C21.236 16.1648 21.7154 16.8873 21.9066 17.706C22.0977 18.5247 21.9879 19.3848 21.597 20.1291C21.2061 20.8734 20.5604 21.4522 19.778 21.7595C18.9955 22.0669 18.1285 22.0824 17.3355 21.8031C16.5426 21.5238 15.8767 20.9684 15.4595 20.2385C15.0424 19.5086 14.9019 18.653 15.0638 17.828L10.5888 15.482C9.89568 16.1964 9.00515 16.6877 8.03118 16.893C7.05721 17.0983 6.04413 17.0082 5.12167 16.6343C4.19921 16.2603 3.40935 15.6196 2.85322 14.7941C2.29709 13.9686 2 12.9959 2 12.0005C2 11.0051 2.29709 10.0324 2.85322 9.20689C3.40935 8.38138 4.19921 7.74064 5.12167 7.36671C6.04413 6.99279 7.05721 6.9027 8.03118 7.10798C9.00515 7.31326 9.89568 7.80456 10.5888 8.51899L15.0638 6.17199C15.021 5.95055 14.9995 5.72552 14.9998 5.49999Z" fill="currentColor"/>
</svg>
