<svg width="24" height="24" viewBox="0 0 24 24" fill="none" xmlns="http://www.w3.org/2000/svg">
<path d="M11.17 3C10.9836 3.53239 10.9504 4.10642 11.0741 4.65677C11.1979 5.20711 11.4736 5.71166 11.87 6.113C10.384 7.65 8.964 9.623 8.154 12.051C7.9043 12.7921 7.95388 13.6015 8.29219 14.3066C8.63049 15.0117 9.23077 15.5568 9.96512 15.8258C10.6995 16.0948 11.5098 16.0664 12.2236 15.7466C12.9373 15.4269 13.4979 14.8411 13.786 14.114L13.846 13.949C14.457 12.114 15.771 10.539 17.268 9.272C17.9993 8.65737 18.7777 8.101 19.596 7.608L19.987 7.378L20.337 7.182L20.639 7.022L21 6.84V19C21.0002 19.5046 20.8096 19.9906 20.4665 20.3605C20.1234 20.7305 19.6532 20.9572 19.15 20.995L19 21H5C4.49542 21.0002 4.00943 20.8096 3.63945 20.4665C3.26947 20.1234 3.04284 19.6532 3.005 19.15L3 19V5C2.99984 4.49542 3.19041 4.00943 3.5335 3.63945C3.87659 3.26947 4.34684 3.04284 4.85 3.005L5 3H11.17ZM19.513 3C20.135 3 20.497 3.468 20.588 3.856C20.679 4.245 20.563 4.827 20.003 5.103L19.589 5.314L19.425 5.402L19.062 5.603L18.657 5.839L18.218 6.109C17.536 6.539 16.758 7.085 15.976 7.746C14.322 9.145 12.718 11.007 11.949 13.316C11.8652 13.5677 11.6848 13.7758 11.4476 13.8945C11.2104 14.0132 10.9357 14.0328 10.684 13.949C10.4323 13.8652 10.2242 13.6848 10.1055 13.4476C9.9868 13.2104 9.96719 12.9357 10.051 12.684C10.979 9.9 12.874 7.751 14.685 6.219C15.116 5.854 15.547 5.521 15.963 5.219L16.273 5H14C13.7451 4.99972 13.5 4.90212 13.3146 4.72715C13.1293 4.55218 13.0178 4.31305 13.0028 4.05861C12.9879 3.80416 13.0707 3.55362 13.2343 3.35817C13.3979 3.16271 13.6299 3.0371 13.883 3.007L14 3H19.513Z" fill="currentColor"/>
</svg>
