<svg width="24" height="24" viewBox="0 0 24 24" fill="none" xmlns="http://www.w3.org/2000/svg">
<path d="M12.702 2.195L19.702 4.82C20.0833 4.96293 20.4119 5.21885 20.6438 5.55355C20.8758 5.88825 21.0001 6.28578 21 6.693V12.056C21 13.7274 20.5346 15.3658 19.6559 16.7877C18.7772 18.2095 17.52 19.3585 16.025 20.106L12.671 21.782C12.4627 21.8862 12.2329 21.9404 12 21.9404C11.7671 21.9404 11.5373 21.8862 11.329 21.782L7.975 20.105C6.48004 19.3575 5.22277 18.2085 4.34407 16.7867C3.46537 15.3648 2.99996 13.7264 3 12.055V6.694C2.99975 6.28661 3.12391 5.88886 3.35587 5.55396C3.58783 5.21907 3.91653 4.96299 4.298 4.82L11.298 2.195C11.7506 2.02533 12.2494 2.02533 12.702 2.195ZM12 8C11.7551 8.00003 11.5187 8.08995 11.3356 8.25271C11.1526 8.41547 11.0357 8.63975 11.007 8.883L11 9V11H9C8.74512 11.0003 8.49997 11.0979 8.31463 11.2728C8.1293 11.4478 8.01777 11.687 8.00283 11.9414C7.98789 12.1958 8.07067 12.4464 8.23426 12.6418C8.39786 12.8373 8.62991 12.9629 8.883 12.993L9 13H11V15C11.0003 15.2549 11.0979 15.5 11.2728 15.6854C11.4478 15.8707 11.687 15.9822 11.9414 15.9972C12.1958 16.0121 12.4464 15.9293 12.6418 15.7657C12.8373 15.6021 12.9629 15.3701 12.993 15.117L13 15V13H15C15.2549 12.9997 15.5 12.9021 15.6854 12.7271C15.8707 12.5522 15.9822 12.313 15.9972 12.0586C16.0121 11.8042 15.9293 11.5536 15.7657 11.3582C15.6021 11.1627 15.3701 11.0371 15.117 11.007L15 11H13V9C13 8.73478 12.8946 8.48043 12.7071 8.29289C12.5196 8.10536 12.2652 8 12 8Z" fill="currentColor"/>
</svg>
