<svg width="24" height="24" viewBox="0 0 24 24" fill="none" xmlns="http://www.w3.org/2000/svg">
<path fill-rule="evenodd" clip-rule="evenodd" d="M11.298 2.195C11.7506 2.02533 12.2494 2.02533 12.702 2.195L19.702 4.82C20.0833 4.96293 20.4119 5.21885 20.6438 5.55355C20.8758 5.88825 21.0001 6.28578 21 6.693V12.056C21 13.7274 20.5346 15.3658 19.6559 16.7877C18.7772 18.2095 17.52 19.3585 16.025 20.106L12.671 21.783C12.4627 21.8872 12.2329 21.9414 12 21.9414C11.7671 21.9414 11.5373 21.8872 11.329 21.783L7.975 20.106C6.48004 19.3585 5.22277 18.2095 4.34407 16.7877C3.46537 15.3658 2.99996 13.7274 3 12.056V6.693C2.99995 6.28578 3.1242 5.88825 3.35615 5.55355C3.5881 5.21885 3.91669 4.96293 4.298 4.82L11.298 2.195Z" fill="currentColor"/>
</svg>
