<svg width="24" height="24" viewBox="0 0 24 24" fill="none" xmlns="http://www.w3.org/2000/svg">
<path fill-rule="evenodd" clip-rule="evenodd" d="M14.2109 17.776C14.7307 17.5161 15.301 17.3726 15.8819 17.3555C16.4629 17.3384 17.0406 17.4481 17.5749 17.677L17.7888 17.777L20.4468 19.105C20.6752 19.219 20.8513 19.416 20.9391 19.6556C21.0269 19.8952 21.0198 20.1593 20.9192 20.3938C20.8186 20.6284 20.6322 20.8156 20.398 20.9171C20.1639 21.0187 19.8998 21.0268 19.6598 20.94L19.5528 20.894L16.8938 19.565C16.6445 19.4403 16.3718 19.3692 16.0934 19.3561C15.8149 19.343 15.5368 19.3883 15.2769 19.489L15.1048 19.565L13.7888 20.224C13.2688 20.4839 12.6983 20.6273 12.1172 20.6442C11.536 20.6612 10.9582 20.5512 10.4239 20.322L10.2109 20.224L8.89385 19.565C8.6445 19.4403 8.37185 19.3692 8.09338 19.3561C7.81492 19.343 7.53679 19.3883 7.27685 19.489L7.10485 19.565L4.44685 20.895C4.2185 21.0105 3.95458 21.034 3.70939 20.9608C3.46421 20.8876 3.25643 20.7231 3.12881 20.5013C3.0012 20.2796 2.96346 20.0173 3.02336 19.7685C3.08327 19.5197 3.23626 19.3034 3.45085 19.164L3.55285 19.105L6.21085 17.776C6.73071 17.5161 7.30097 17.3726 7.88193 17.3555C8.46289 17.3384 9.0406 17.4481 9.57485 17.677L9.78885 17.777L11.1048 18.435C11.3543 18.5598 11.6272 18.631 11.9058 18.6441C12.1845 18.6572 12.4628 18.6119 12.7228 18.511L12.8939 18.435L14.2109 17.776ZM12.9999 2C13.2651 2 13.5194 2.10536 13.707 2.29289C13.8945 2.48043 13.9999 2.73478 13.9999 3V4.32L17.3289 4.874C17.7957 4.95209 18.2196 5.1932 18.5254 5.55446C18.8312 5.91572 18.9989 6.37371 18.9988 6.847V10.279L21.0588 10.965C21.2229 11.0197 21.3738 11.1079 21.5021 11.224C21.6303 11.34 21.7331 11.4814 21.8038 11.6392C21.8746 11.7971 21.9119 11.9678 21.9132 12.1408C21.9146 12.3137 21.8801 12.4851 21.8118 12.644L19.6428 17.704L17.7888 16.776C17.2334 16.4982 16.6209 16.3536 15.9999 16.3536C15.3788 16.3536 14.7663 16.4982 14.2109 16.776L12.8939 17.435C12.6161 17.5739 12.3099 17.6462 11.9994 17.6462C11.6888 17.6462 11.3826 17.5739 11.1048 17.435L9.78885 16.776C9.23339 16.4982 8.62089 16.3536 7.99985 16.3536C7.37881 16.3536 6.76631 16.4982 6.21085 16.776L4.94085 17.412L2.28285 12.761C2.1911 12.6004 2.13612 12.4215 2.12188 12.2371C2.10763 12.0527 2.13448 11.8675 2.20049 11.6947C2.26649 11.522 2.37 11.366 2.50356 11.2381C2.63713 11.1102 2.79741 11.0135 2.97285 10.955L4.99985 10.279V6.847C4.99975 6.37371 5.16751 5.91572 5.47328 5.55446C5.77906 5.1932 6.20304 4.95209 6.66985 4.874L9.99985 4.32V3C9.99985 2.73478 10.1052 2.48043 10.2927 2.29289C10.4803 2.10536 10.7346 2 10.9999 2H12.9999ZM11.9999 6.014L6.99985 6.847V9.613L11.3668 8.157C11.7774 8.02014 12.2213 8.02014 12.6319 8.157L16.9999 9.613V6.847L11.9999 6.014Z" fill="currentColor"/>
</svg>
