<svg width="24" height="24" viewBox="0 0 24 24" fill="none" xmlns="http://www.w3.org/2000/svg">
<path fill-rule="evenodd" clip-rule="evenodd" d="M15.847 3C16.019 3 16.191 3.003 16.355 3.065C16.8297 3.18983 17.2419 3.48477 17.5133 3.89372C17.7847 4.30267 17.8964 4.79711 17.827 5.283L17.669 6.387L18.728 6.651C19.3769 6.81332 19.953 7.18787 20.3646 7.71512C20.7763 8.24237 20.9999 8.89208 21 9.561V18C21 18.7956 20.6839 19.5587 20.1213 20.1213C19.5587 20.6839 18.7956 21 18 21H6C5.20435 21 4.44129 20.6839 3.87868 20.1213C3.31607 19.5587 3 18.7956 3 18V9.562C3.00007 8.89308 3.22371 8.24337 3.63536 7.71612C4.04701 7.18887 4.62307 6.81432 5.272 6.652L6.331 6.387L6.173 5.283C6.10363 4.79711 6.21527 4.30267 6.48667 3.89372C6.75808 3.48477 7.17032 3.18983 7.645 3.065C7.81 3.003 7.981 3 8.153 3H15.847ZM12 7.4L13.92 5H10.08L12 7.4ZM15.71 5.964L13.553 8.66L15.205 10.486L15.708 5.966L15.71 5.964ZM8.29 5.964L8.794 10.485L10.446 8.659L8.291 5.964H8.29ZM16 14C15.7348 14 15.4804 14.1054 15.2929 14.2929C15.1054 14.4804 15 14.7348 15 15C15 15.2652 15.1054 15.5196 15.2929 15.7071C15.4804 15.8946 15.7348 16 16 16H17C17.2652 16 17.5196 15.8946 17.7071 15.7071C17.8946 15.5196 18 15.2652 18 15C18 14.7348 17.8946 14.4804 17.7071 14.2929C17.5196 14.1054 17.2652 14 17 14H16Z" fill="currentColor"/>
</svg>
