<svg width="24" height="24" viewBox="0 0 24 24" fill="none" xmlns="http://www.w3.org/2000/svg">
<path d="M7.93038 19.09C7.55839 19.0944 7.1868 19.0643 6.82038 19C4.75038 18.63 1.76038 16.68 1.94038 14.61C2.18038 12 6.56038 12 8.00038 12C9.92038 12 11.8904 9.93001 14.6204 7.06001C15.4304 6.20001 16.3204 5.27001 17.2904 4.29001C17.4401 4.14156 17.6329 4.04422 17.8412 4.01189C18.0495 3.97956 18.2627 4.0139 18.4504 4.11001C19.2791 4.48157 20.0145 5.03351 20.6027 5.72554C21.1909 6.41756 21.6172 7.23221 21.8504 8.11001C22.0184 8.88949 22.0113 9.69653 21.8298 10.473C21.6482 11.2494 21.2966 11.9759 20.8004 12.6C19.6971 14.1912 19.0725 16.0651 19.0004 18C19.0255 18.2645 18.9449 18.5282 18.7761 18.7334C18.6074 18.9386 18.3642 19.0686 18.0999 19.095C17.8355 19.1215 17.5715 19.0422 17.3654 18.8744C17.1594 18.7067 17.0281 18.4642 17.0004 18.2C16.7477 16.8245 16.3384 15.4824 15.7804 14.2C14.4757 15.086 13.2719 16.1121 12.1904 17.26C11.6372 17.8324 10.9757 18.2889 10.2443 18.6031C9.51292 18.9173 8.72634 19.0828 7.93038 19.09Z" fill="currentColor"/>
</svg>
