<svg width="24" height="24" viewBox="0 0 24 24" fill="none" xmlns="http://www.w3.org/2000/svg">
<path d="M18.0261 3.90202C17.951 3.77189 17.8475 3.66035 17.7234 3.57569C17.5993 3.49103 17.4577 3.43543 17.3091 3.41302C16.8991 3.41302 16.4561 3.73702 15.9821 4.08602C15.8651 4.17202 15.7461 4.25902 15.6251 4.34402C15.0831 4.72102 14.4611 5.06402 13.9291 5.17202C13.0991 5.34202 12.1461 5.10302 11.3821 4.76202C10.5121 4.36102 10.0091 5.28402 9.62008 5.99802C9.54708 6.13102 9.47808 6.25802 9.41208 6.36702C9.12208 6.84002 8.75708 7.40402 8.34208 7.97302C8.17648 7.95778 8.0097 7.98408 7.85682 8.04954C7.70394 8.115 7.56981 8.21755 7.46655 8.34791C7.36329 8.47828 7.29418 8.63233 7.26546 8.79613C7.23674 8.95993 7.24933 9.12831 7.30208 9.28603C6.99408 9.66402 6.70208 10.026 6.42508 10.373C6.23321 10.3189 6.02953 10.3233 5.8402 10.3857C5.65086 10.4482 5.48452 10.5658 5.36252 10.7235C5.24052 10.8812 5.16844 11.0717 5.15553 11.2707C5.14263 11.4696 5.18948 11.6679 5.29008 11.84C4.21808 13.273 3.48008 14.438 3.05408 15.475C2.69408 16.355 2.54008 17.178 2.60708 18.017C2.67408 18.844 2.94908 19.614 3.33408 20.393C3.85608 21.448 5.13608 21.737 6.07308 21.196L20.7951 12.696C21.2544 12.4308 21.5896 11.994 21.7269 11.4816C21.8642 10.9693 21.7923 10.4234 21.5271 9.96402L21.0271 9.09802L14.9651 12.598C14.7355 12.7285 14.4637 12.763 14.2088 12.6938C13.954 12.6246 13.7368 12.4574 13.6048 12.2287C13.4728 12 13.4366 11.7284 13.504 11.4731C13.5715 11.2178 13.7373 10.9996 13.9651 10.866L20.0271 7.36602L18.0261 3.90202Z" fill="currentColor"/>
</svg>
