<svg width="24" height="24" viewBox="0 0 24 24" fill="none" xmlns="http://www.w3.org/2000/svg">
<path d="M9 20C9.26522 20 9.51957 20.1053 9.70711 20.2928C9.89465 20.4804 10 20.7347 10 21C10 21.2652 9.89465 21.5195 9.70711 21.7071C9.51957 21.8946 9.26522 22 9 22C8.73479 22 8.48043 21.8946 8.2929 21.7071C8.10536 21.5195 8 21.2652 8 21C8 20.7347 8.10536 20.4804 8.2929 20.2928C8.48043 20.1053 8.73479 20 9 20ZM16 20C16.2652 20 16.5196 20.1053 16.7071 20.2928C16.8946 20.4804 17 20.7347 17 21C17 21.2652 16.8946 21.5195 16.7071 21.7071C16.5196 21.8946 16.2652 22 16 22C15.7348 22 15.4804 21.8946 15.2929 21.7071C15.1054 21.5195 15 21.2652 15 21C15 20.7347 15.1054 20.4804 15.2929 20.2928C15.4804 20.1053 15.7348 20 16 20ZM2.2 2.89996C2.34609 2.70513 2.55825 2.57031 2.79668 2.52078C3.0351 2.47125 3.28341 2.51043 3.495 2.63096L3.6 2.70096L5.308 3.98096C5.59867 4.19905 5.82442 4.49221 5.961 4.82896L6.021 4.99996H18.867C19.1381 4.99989 19.4064 5.05494 19.6556 5.16176C19.9047 5.26859 20.1296 5.42496 20.3165 5.62137C20.5033 5.81778 20.6483 6.05013 20.7426 6.30431C20.8369 6.55849 20.8786 6.82919 20.865 7.09996L20.852 7.24796L20.395 10.903C20.2579 12.0029 19.7591 13.0261 18.9771 13.8116C18.1951 14.5972 17.1743 15.1007 16.075 15.243L15.849 15.266L8.536 15.876L8.796 17H17.5C17.7549 17.0002 18 17.0978 18.1854 17.2728C18.3707 17.4478 18.4822 17.6869 18.4972 17.9413C18.5121 18.1958 18.4293 18.4463 18.2657 18.6418C18.1021 18.8372 17.8701 18.9629 17.617 18.993L17.5 19H8.796C8.37161 19 7.95819 18.8651 7.61555 18.6147C7.27291 18.3643 7.01881 18.0113 6.89 17.607L6.847 17.45L4.107 5.57996L2.4 4.29996C2.18783 4.14083 2.04756 3.90393 2.01005 3.64138C1.97255 3.37883 2.04087 3.11213 2.2 2.89996Z" fill="currentColor"/>
</svg>
