<svg width="24" height="24" viewBox="0 0 24 24" fill="none" xmlns="http://www.w3.org/2000/svg">
<path d="M16.2435 3.51499C16.431 3.32751 16.6853 3.2222 16.9505 3.2222C17.2156 3.2222 17.4699 3.32751 17.6575 3.51499L19.0675 4.92499L19.0715 4.92898L19.0765 4.93299L20.4865 6.34298C20.674 6.53063 20.7793 6.78507 20.7792 7.05034C20.7791 7.31561 20.6736 7.56998 20.486 7.75749C20.2983 7.94499 20.0439 8.05028 19.7786 8.05019C19.5133 8.05009 19.259 7.94463 19.0715 7.75698L18.3645 7.04999L13.4145 12L14.8285 13.414C15.0143 13.5997 15.1617 13.8202 15.2622 14.0629C15.3628 14.3056 15.4145 14.5658 15.4145 14.8285C15.4145 15.0912 15.3628 15.3513 15.2622 15.594C15.1617 15.8367 15.0143 16.0573 14.8285 16.243L12.3345 18.737C11.6779 19.3937 10.8513 19.8545 9.94756 20.0679C9.04378 20.2812 8.09843 20.2387 7.21746 19.945L6.26846 19.629C5.82663 19.4816 5.42518 19.2334 5.09592 18.9039C4.76666 18.5745 4.51862 18.1729 4.37146 17.731L4.05546 16.783C3.76178 15.902 3.71923 14.9567 3.93259 14.0529C4.14595 13.1491 4.60679 12.3226 5.26346 11.666L7.75746 9.17098C7.94319 8.98518 8.16371 8.83779 8.40641 8.73723C8.64911 8.63667 8.90925 8.58491 9.17196 8.58491C9.43468 8.58491 9.69481 8.63667 9.93752 8.73723C10.1802 8.83779 10.4007 8.98518 10.5865 9.17098L12.0005 10.586L16.9505 5.63599L16.2435 4.92898C16.056 4.74146 15.9507 4.48715 15.9507 4.22199C15.9507 3.95682 16.056 3.70251 16.2435 3.51499Z" fill="currentColor"/>
</svg>
