<svg width="24" height="24" viewBox="0 0 24 24" fill="none" xmlns="http://www.w3.org/2000/svg">
<path d="M12.4102 3.65398C13.1064 2.89589 14.0512 2.41237 15.0733 2.2911C16.0953 2.16983 17.127 2.41884 17.9812 2.99298L18.1612 3.12098L18.4842 3.36298C18.925 3.69346 19.2885 4.11607 19.5493 4.60137C19.8101 5.08667 19.9619 5.62299 19.9942 6.17298L20.0002 6.39498V21C20 21.2549 19.9024 21.5 19.7274 21.6853C19.5524 21.8707 19.3133 21.9822 19.0588 21.9971C18.8044 22.0121 18.5539 21.9293 18.3584 21.7657C18.163 21.6021 18.0373 21.3701 18.0072 21.117L18.0002 21V6.39498C18.0003 6.14548 17.9482 5.89872 17.8473 5.67054C17.7464 5.44236 17.5989 5.2378 17.4142 5.06998L17.2842 4.96298L16.9612 4.72098C16.5922 4.44435 16.1487 4.28485 15.688 4.2631C15.2273 4.24135 14.7707 4.35835 14.3772 4.59898L14.2242 4.70098L14.9822 5.13898C15.8692 5.65092 16.5259 6.48353 16.8173 7.46528C17.1086 8.44702 17.0123 9.50311 16.5482 10.416L16.4462 10.603L15.9462 11.469C15.8238 11.6811 15.6278 11.841 15.3954 11.9182C15.163 11.9954 14.9103 11.9847 14.6852 11.888L14.5802 11.835L5.92024 6.83498C5.70786 6.71255 5.54784 6.51637 5.47059 6.28371C5.39335 6.05105 5.40425 5.79812 5.50124 5.57298L5.55424 5.46898L6.05424 4.60298C6.56635 3.71624 7.39904 3.05967 8.38076 2.76852C9.36249 2.47737 10.4185 2.57381 11.3312 3.03798L11.5182 3.13798L12.4102 3.65398ZM6.75024 15.397C6.97992 15.5296 7.1475 15.748 7.21614 16.0042C7.28478 16.2604 7.24885 16.5333 7.11624 16.763L6.61624 17.629C6.48269 17.8568 6.26446 18.0225 6.00916 18.09C5.75387 18.1575 5.48224 18.1213 5.25355 17.9893C5.02486 17.8572 4.85768 17.6401 4.78849 17.3852C4.71931 17.1304 4.75373 16.8585 4.88424 16.629L5.38424 15.763C5.51685 15.5333 5.73527 15.3657 5.99144 15.2971C6.24762 15.2284 6.52056 15.2644 6.75024 15.397ZM8.98224 15.531C9.10898 15.3084 9.31631 15.1429 9.56148 15.0687C9.80664 14.9944 10.0709 15.0171 10.2999 15.132C10.5288 15.2469 10.7049 15.4453 10.7919 15.6863C10.8788 15.9272 10.87 16.1923 10.7672 16.427L10.7142 16.531L10.2142 17.397C10.086 17.6164 9.87901 17.7788 9.63535 17.8511C9.39169 17.9234 9.12964 17.9002 8.90247 17.7862C8.67529 17.6722 8.50004 17.476 8.41233 17.2375C8.32461 16.999 8.33102 16.736 8.43024 16.502L8.48224 16.397L8.98224 15.531ZM5.15224 12.165C5.38192 12.2976 5.5495 12.516 5.61814 12.7722C5.68678 13.0284 5.65084 13.3013 5.51824 13.531L5.01824 14.397C4.95306 14.5116 4.86584 14.6122 4.76162 14.693C4.65739 14.7738 4.53821 14.8332 4.41093 14.8678C4.28366 14.9023 4.15081 14.9114 4.02003 14.8944C3.88925 14.8774 3.76313 14.8347 3.64891 14.7687C3.5347 14.7028 3.43466 14.6149 3.35456 14.5102C3.27445 14.4054 3.21585 14.2858 3.18214 14.1583C3.14843 14.0308 3.14028 13.8979 3.15814 13.7673C3.17601 13.6366 3.21954 13.5107 3.28624 13.397L3.78624 12.531C3.91885 12.3013 4.13727 12.1337 4.39344 12.0651C4.64962 11.9964 4.92256 12.0324 5.15224 12.165ZM8.75024 11.933C8.97992 12.0656 9.1475 12.284 9.21614 12.5402C9.28478 12.7964 9.24885 13.0693 9.11624 13.299L8.61624 14.165C8.48269 14.3928 8.26446 14.5585 8.00916 14.626C7.75387 14.6935 7.48224 14.6573 7.25355 14.5253C7.02486 14.3932 6.85768 14.1761 6.78849 13.9212C6.71931 13.6664 6.75373 13.3945 6.88424 13.165L7.38424 12.299C7.51685 12.0693 7.73527 11.9017 7.99144 11.8331C8.24762 11.7644 8.52056 11.8004 8.75024 11.933ZM10.9822 12.067C11.109 11.8444 11.3163 11.6789 11.5615 11.6047C11.8066 11.5304 12.0709 11.5531 12.2999 11.668C12.5288 11.7829 12.7049 11.9813 12.7919 12.2223C12.8788 12.4632 12.87 12.7283 12.7672 12.963L12.7142 13.067L12.2142 13.933C12.0864 14.1534 11.8792 14.3166 11.6351 14.3894C11.3909 14.4622 11.1282 14.4391 10.9005 14.3247C10.6728 14.2104 10.4973 14.0134 10.41 13.7741C10.3226 13.5348 10.3298 13.2711 10.4302 13.037L10.4822 12.933L10.9822 12.067ZM7.15224 8.70098C7.38192 8.83359 7.5495 9.052 7.61814 9.30818C7.68678 9.56435 7.65085 9.8373 7.51824 10.067L7.01824 10.933C6.95306 11.0476 6.86584 11.1482 6.76162 11.229C6.65739 11.3098 6.53821 11.3692 6.41093 11.4038C6.28366 11.4383 6.15081 11.4474 6.02003 11.4304C5.88925 11.4134 5.76313 11.3707 5.64891 11.3047C5.5347 11.2388 5.43466 11.1509 5.35456 11.0462C5.27445 10.9414 5.21585 10.8218 5.18214 10.6943C5.14843 10.5668 5.14028 10.4339 5.15814 10.3033C5.17601 10.1726 5.21954 10.0467 5.28624 9.93298L5.78624 9.06698C5.91885 8.8373 6.13727 8.66971 6.39344 8.60108C6.64962 8.53244 6.92256 8.56837 7.15224 8.70098Z" fill="currentColor"/>
</svg>
