<svg width="24" height="24" viewBox="0 0 24 24" fill="none" xmlns="http://www.w3.org/2000/svg">
<path fill-rule="evenodd" clip-rule="evenodd" d="M9 2C8.73478 2 8.48043 2.10536 8.29289 2.29289C8.10536 2.48043 8 2.73478 8 3C8 3.26522 8.10536 3.51957 8.29289 3.70711C8.48043 3.89464 8.73478 4 9 4H11V6H9.442C8.81223 5.99978 8.19836 6.19775 7.68738 6.56587C7.1764 6.93398 6.79422 7.45357 6.595 8.051L5.359 11.761C5.12132 12.4743 5.0001 13.2212 5 13.973V19C5 19.7956 5.31607 20.5587 5.87868 21.1213C6.44129 21.6839 7.20435 22 8 22H16C16.7956 22 17.5587 21.6839 18.1213 21.1213C18.6839 20.5587 19 19.7956 19 19V13.974C18.9998 13.2214 18.8782 12.4739 18.64 11.76L17.404 8.051C17.2049 7.45405 16.8232 6.93481 16.3128 6.56674C15.8025 6.19867 15.1893 6.00041 14.56 6H13V4C13.2652 4 13.5196 3.89464 13.7071 3.70711C13.8946 3.51957 14 3.26522 14 3C14 2.73478 13.8946 2.48043 13.7071 2.29289C13.5196 2.10536 13.2652 2 13 2H9ZM10 13H7.096C7.231 12.317 7.501 11.658 7.721 11H10C10.2652 11 10.5196 11.1054 10.7071 11.2929C10.8946 11.4804 11 11.7348 11 12C11 12.2652 10.8946 12.5196 10.7071 12.7071C10.5196 12.8946 10.2652 13 10 13Z" fill="currentColor"/>
</svg>
