<svg width="24" height="24" viewBox="0 0 24 24" fill="none" xmlns="http://www.w3.org/2000/svg">
<path d="M17.802 3.18299C17.22 2.87799 16.528 3.32899 16.472 4.04799C16.461 4.18199 16.45 4.33299 16.44 4.49999C15.4241 4.50594 14.4297 4.79314 13.5671 5.32974C12.7045 5.86634 12.0074 6.63136 11.553 7.53999L11 8.64599L10.447 7.53999C9.99011 6.62637 9.28782 5.85803 8.41883 5.3211C7.54984 4.78416 6.54849 4.49984 5.527 4.49999H4C3.80302 4.49999 3.60796 4.53878 3.42597 4.61417C3.24399 4.68955 3.07863 4.80004 2.93934 4.93933C2.80005 5.07861 2.68956 5.24397 2.61418 5.42596C2.5388 5.60795 2.5 5.803 2.5 5.99999C2.5 6.19697 2.5388 6.39202 2.61418 6.57401C2.68956 6.756 2.80005 6.92136 2.93934 7.06065C3.07863 7.19993 3.24399 7.31042 3.42597 7.38581C3.60796 7.46119 3.80302 7.49999 4 7.49999H5.528C5.99227 7.5 6.44737 7.6293 6.8423 7.87339C7.23722 8.11748 7.55638 8.46673 7.764 8.88199L9.323 12L7.763 15.118C7.55553 15.5329 7.23669 15.882 6.84215 16.1261C6.44761 16.3701 5.99293 16.4996 5.529 16.5H4C3.60218 16.5 3.22064 16.658 2.93934 16.9393C2.65804 17.2206 2.5 17.6022 2.5 18C2.5 18.3978 2.65804 18.7793 2.93934 19.0606C3.22064 19.342 3.60218 19.5 4 19.5H5.528C6.54949 19.5001 7.55084 19.2158 8.41983 18.6789C9.28882 18.1419 9.99111 17.3736 10.448 16.46L11 15.354L11.553 16.46C12.0072 17.3683 12.704 18.1331 13.5663 18.6697C14.4285 19.2063 15.4225 19.4937 16.438 19.5C16.45 19.714 16.463 19.903 16.477 20.065C16.531 20.736 17.161 21.121 17.737 20.82C18.117 20.622 18.67 20.314 19.328 19.886C19.8499 19.5493 20.3555 19.1879 20.843 18.803C21.363 18.392 21.382 17.587 20.893 17.197C20.3998 16.8061 19.8882 16.439 19.36 16.097C18.8552 15.7682 18.3353 15.4632 17.802 15.183C17.22 14.878 16.528 15.329 16.472 16.048C16.461 16.182 16.45 16.333 16.44 16.5C15.9812 16.4941 15.5328 16.362 15.1441 16.1182C14.7553 15.8745 14.4412 15.5284 14.236 15.118L12.677 12L14.237 8.88199C14.4419 8.47215 14.7554 8.12649 15.1434 7.88276C15.5314 7.63904 15.9789 7.50662 16.437 7.49999C16.45 7.71399 16.463 7.90299 16.477 8.06499C16.531 8.73599 17.161 9.12099 17.737 8.81999C18.2818 8.53393 18.8127 8.22225 19.328 7.88599C19.988 7.45799 20.501 7.07399 20.843 6.80299C21.363 6.39199 21.382 5.58699 20.893 5.19699C20.3998 4.80615 19.8882 4.43906 19.36 4.09699C18.8552 3.76822 18.3353 3.46322 17.802 3.18299Z" fill="currentColor"/>
</svg>
