<svg width="24" height="24" viewBox="0 0 24 24" fill="none" xmlns="http://www.w3.org/2000/svg">
<path fill-rule="evenodd" clip-rule="evenodd" d="M12 2C17.523 2 22 6.477 22 12C22 17.523 17.523 22 12 22C6.477 22 2 17.523 2 12C2 6.477 6.477 2 12 2ZM14.918 14.571L14.9 14.555C14.7123 14.3616 14.4878 14.2078 14.2396 14.1027C13.9914 13.9977 13.7247 13.9435 13.4552 13.9434C13.1857 13.9433 12.919 13.9973 12.6707 14.1022C12.4225 14.2071 12.1978 14.3607 12.01 14.554C12.0088 14.5555 12.0073 14.5567 12.0055 14.5575C12.0038 14.5583 12.0019 14.5587 12 14.5587C11.9981 14.5587 11.9962 14.5583 11.9945 14.5575C11.9927 14.5567 11.9912 14.5555 11.99 14.554C11.6311 14.1842 11.144 13.966 10.6291 13.9445C10.1142 13.9229 9.61062 14.0995 9.222 14.438L9.1 14.555C9.084 14.571 9.064 14.592 9.042 14.589L9.019 14.578L8.676 14.263C8.48871 14.0899 8.24235 13.9949 7.98732 13.9974C7.73229 14 7.48787 14.0998 7.30405 14.2766C7.12023 14.4534 7.01091 14.6938 6.99845 14.9485C6.98598 15.2032 7.07132 15.4531 7.237 15.647L7.324 15.737L7.668 16.052C8.03806 16.391 8.51998 16.582 9.02182 16.5885C9.52367 16.5949 10.0103 16.4164 10.389 16.087L10.521 15.961C10.53 15.95 10.543 15.934 10.555 15.946C11.345 16.762 12.655 16.762 13.445 15.946L13.457 15.944L13.485 15.968C14.215 16.72 15.385 16.793 16.2 16.163L16.332 16.052L16.676 15.737C16.8635 15.5651 16.9785 15.3282 16.9975 15.0746C17.0165 14.8209 16.9381 14.5695 16.7783 14.3716C16.6185 14.1737 16.3893 14.0441 16.1373 14.0093C15.8853 13.9744 15.6295 14.0369 15.422 14.184L15.324 14.263L14.981 14.578C14.958 14.598 14.936 14.588 14.918 14.571ZM8.5 8C8.10218 8 7.72064 8.15804 7.43934 8.43934C7.15804 8.72064 7 9.10218 7 9.5C7 9.89782 7.15804 10.2794 7.43934 10.5607C7.72064 10.842 8.10218 11 8.5 11C8.89782 11 9.27936 10.842 9.56066 10.5607C9.84196 10.2794 10 9.89782 10 9.5C10 9.10218 9.84196 8.72064 9.56066 8.43934C9.27936 8.15804 8.89782 8 8.5 8ZM15.5 8C15.1022 8 14.7206 8.15804 14.4393 8.43934C14.158 8.72064 14 9.10218 14 9.5C14 9.89782 14.158 10.2794 14.4393 10.5607C14.7206 10.842 15.1022 11 15.5 11C15.8978 11 16.2794 10.842 16.5607 10.5607C16.842 10.2794 17 9.89782 17 9.5C17 9.10218 16.842 8.72064 16.5607 8.43934C16.2794 8.15804 15.8978 8 15.5 8Z" fill="currentColor"/>
</svg>
