<svg width="24" height="24" viewBox="0 0 24 24" fill="none" xmlns="http://www.w3.org/2000/svg">
<path fill-rule="evenodd" clip-rule="evenodd" d="M15.9701 5.37999C15.4631 5.53999 14.7801 5.83999 13.9301 6.31199C11.9601 7.40399 9.27306 9.52999 6.11006 13.009C5.84246 13.3034 5.46887 13.4794 5.07148 13.4984C4.67409 13.5173 4.28545 13.3776 3.99106 13.11C3.69667 12.8424 3.52064 12.4688 3.5017 12.0714C3.48276 11.674 3.62246 11.2854 3.89006 10.991C7.18806 7.36299 10.1261 4.99099 12.4761 3.68799C13.6521 3.03599 14.7671 2.54699 15.7211 2.34499C16.5201 2.17499 18.0091 2.06099 18.7931 3.34199C19.1421 3.91199 19.1831 4.54199 19.1281 5.05899C19.0731 5.58499 18.9061 6.13699 18.6761 6.69599C18.2161 7.81599 17.3991 9.20199 16.2261 10.865C15.1351 12.411 14.4601 13.536 14.0761 14.329C15.0861 13.864 16.0071 13.083 17.1301 12.909C17.4501 12.859 17.9131 12.849 18.3781 13.082C18.8881 13.338 19.1721 13.771 19.3011 14.167C19.6051 15.097 19.2191 16.113 18.9351 17.001C19.2781 16.9862 19.6159 17.0895 19.892 17.2938C20.168 17.4981 20.3656 17.7909 20.4518 18.1233C20.5379 18.4557 20.5074 18.8076 20.3653 19.1203C20.2232 19.4329 19.9782 19.6873 19.6711 19.841C18.6821 20.336 17.4011 20.787 16.4071 20.057C16.0521 19.7934 15.7964 19.4178 15.6811 18.991C15.4771 18.266 15.6531 17.502 15.8581 16.797C15.0061 17.237 14.0601 17.656 13.0881 17.696C12.6551 17.713 12.0131 17.652 11.4621 17.205C10.8581 16.715 10.6741 16.023 10.6751 15.439C10.6751 14.887 10.8331 14.312 11.0541 13.751C11.4991 12.618 12.3801 11.111 13.7741 9.13499C14.6011 7.96499 15.4621 6.72999 15.9701 5.37999Z" fill="currentColor"/>
</svg>
