<svg width="24" height="24" viewBox="0 0 24 24" fill="none" xmlns="http://www.w3.org/2000/svg">
<path fill-rule="evenodd" clip-rule="evenodd" d="M20 3.5C20.3978 3.5 20.7794 3.65804 21.0607 3.93934C21.342 4.22064 21.5 4.60218 21.5 5V19C21.5 19.3978 21.342 19.7794 21.0607 20.0607C20.7794 20.342 20.3978 20.5 20 20.5C19.6022 20.5 19.2206 20.342 18.9393 20.0607C18.658 19.7794 18.5 19.3978 18.5 19V5C18.5 4.60218 18.658 4.22064 18.9393 3.93934C19.2206 3.65804 19.6022 3.5 20 3.5ZM16 6.5C16.3978 6.5 16.7794 6.65804 17.0607 6.93934C17.342 7.22064 17.5 7.60218 17.5 8V19C17.5 19.3978 17.342 19.7794 17.0607 20.0607C16.7794 20.342 16.3978 20.5 16 20.5C15.6022 20.5 15.2206 20.342 14.9393 20.0607C14.658 19.7794 14.5 19.3978 14.5 19V8C14.5 7.60218 14.658 7.22064 14.9393 6.93934C15.2206 6.65804 15.6022 6.5 16 6.5ZM12 9.5C12.3978 9.5 12.7794 9.65804 13.0607 9.93934C13.342 10.2206 13.5 10.6022 13.5 11V19C13.5 19.3978 13.342 19.7794 13.0607 20.0607C12.7794 20.342 12.3978 20.5 12 20.5C11.6022 20.5 11.2206 20.342 10.9393 20.0607C10.658 19.7794 10.5 19.3978 10.5 19V11C10.5 10.6022 10.658 10.2206 10.9393 9.93934C11.2206 9.65804 11.6022 9.5 12 9.5ZM8 12.5C8.39782 12.5 8.77936 12.658 9.06066 12.9393C9.34196 13.2206 9.5 13.6022 9.5 14V19C9.5 19.3978 9.34196 19.7794 9.06066 20.0607C8.77936 20.342 8.39782 20.5 8 20.5C7.60218 20.5 7.22064 20.342 6.93934 20.0607C6.65804 19.7794 6.5 19.3978 6.5 19V14C6.5 13.6022 6.65804 13.2206 6.93934 12.9393C7.22064 12.658 7.60218 12.5 8 12.5ZM4 15.5C4.39782 15.5 4.77936 15.658 5.06066 15.9393C5.34196 16.2206 5.5 16.6022 5.5 17V19C5.5 19.3978 5.34196 19.7794 5.06066 20.0607C4.77936 20.342 4.39782 20.5 4 20.5C3.60218 20.5 3.22064 20.342 2.93934 20.0607C2.65804 19.7794 2.5 19.3978 2.5 19V17C2.5 16.6022 2.65804 16.2206 2.93934 15.9393C3.22064 15.658 3.60218 15.5 4 15.5Z" fill="currentColor"/>
</svg>
