<svg width="24" height="24" viewBox="0 0 24 24" fill="none" xmlns="http://www.w3.org/2000/svg">
<path fill-rule="evenodd" clip-rule="evenodd" d="M12 2C17.523 2 22 6.477 22 12C22 17.523 17.523 22 12 22C6.477 22 2 17.523 2 12C2 6.477 6.477 2 12 2ZM9.793 12.793C9.60553 12.9805 9.50021 13.2348 9.50021 13.5C9.50021 13.7652 9.60553 14.0195 9.793 14.207L10.586 15L9.793 15.793C9.69749 15.8852 9.62131 15.9956 9.5689 16.1176C9.51649 16.2396 9.4889 16.3708 9.48775 16.5036C9.4866 16.6364 9.5119 16.7681 9.56218 16.891C9.61246 17.0138 9.68671 17.1255 9.78061 17.2194C9.8745 17.3133 9.98615 17.3875 10.109 17.4378C10.2319 17.4881 10.3636 17.5134 10.4964 17.5123C10.6292 17.5111 10.7604 17.4835 10.8824 17.4311C11.0044 17.3787 11.1148 17.3025 11.207 17.207L12 16.414L12.793 17.207C12.9816 17.3892 13.2342 17.49 13.4964 17.4877C13.7586 17.4854 14.0094 17.3802 14.1948 17.1948C14.3802 17.0094 14.4854 16.7586 14.4877 16.4964C14.49 16.2342 14.3892 15.9816 14.207 15.793L13.414 15L14.207 14.207C14.3892 14.0184 14.49 13.7658 14.4877 13.5036C14.4854 13.2414 14.3802 12.9906 14.1948 12.8052C14.0094 12.6198 13.7586 12.5146 13.4964 12.5123C13.2342 12.51 12.9816 12.6108 12.793 12.793L12 13.586L11.207 12.793C11.0195 12.6055 10.7652 12.5002 10.5 12.5002C10.2348 12.5002 9.98053 12.6055 9.793 12.793ZM8.5 8C8.10218 8 7.72064 8.15804 7.43934 8.43934C7.15804 8.72064 7 9.10218 7 9.5C7 9.89782 7.15804 10.2794 7.43934 10.5607C7.72064 10.842 8.10218 11 8.5 11C8.89782 11 9.27936 10.842 9.56066 10.5607C9.84196 10.2794 10 9.89782 10 9.5C10 9.10218 9.84196 8.72064 9.56066 8.43934C9.27936 8.15804 8.89782 8 8.5 8ZM15.5 8C15.1022 8 14.7206 8.15804 14.4393 8.43934C14.158 8.72064 14 9.10218 14 9.5C14 9.89782 14.158 10.2794 14.4393 10.5607C14.7206 10.842 15.1022 11 15.5 11C15.8978 11 16.2794 10.842 16.5607 10.5607C16.842 10.2794 17 9.89782 17 9.5C17 9.10218 16.842 8.72064 16.5607 8.43934C16.2794 8.15804 15.8978 8 15.5 8Z" fill="currentColor"/>
</svg>
