<svg width="24" height="24" viewBox="0 0 24 24" fill="none" xmlns="http://www.w3.org/2000/svg">
<path d="M7 9C8.786 9 10.33 10.096 11.929 11.568L12.387 11.998L13.078 12.667C13.811 13.381 14.568 14.12 15.319 14.698C16.227 15.398 17.291 16 18.5 16C19.3042 16 20.0839 15.7231 20.708 15.216C21.3321 14.7088 21.7625 14.0022 21.927 13.215C21.327 18.165 17.112 22 12 22C6.477 22 2 17.523 2 12C2 13.3261 2.52678 14.5979 3.46447 15.5355C4.40215 16.4732 5.67392 17 7 17C9.57 17 11.633 15.63 13.318 14.286L12.993 13.978L11.865 12.883C10.32 14.089 8.788 15 7 15C6.20435 15 5.44129 14.6839 4.87868 14.1213C4.31607 13.5587 4 12.7956 4 12C4 11.2044 4.31607 10.4413 4.87868 9.87868C5.44129 9.31607 6.20435 9 7 9ZM12 2C17.523 2 22 6.477 22 12L21.995 12.314C21.9474 11.4192 21.5584 10.5768 20.9082 9.96024C20.258 9.34369 19.396 9.00001 18.5 9C17.338 9 16.296 9.497 15.379 10.103C15.2538 10.1858 15.1301 10.2708 15.008 10.358L15.753 11.081L16.25 11.551C16.33 11.625 16.41 11.697 16.488 11.767C17.271 11.251 17.914 11 18.5 11C18.8978 11 19.2794 11.158 19.5607 11.4393C19.842 11.7206 20 12.1022 20 12.5C20 12.8978 19.842 13.2794 19.5607 13.5607C19.2794 13.842 18.8978 14 18.5 14C17.96 14 17.335 13.727 16.54 13.114C16.076 12.757 15.61 12.329 15.115 11.855L13.815 10.595L13.42 10.221L13.008 9.843C11.4 8.396 9.43 7 7 7C5.71154 7.00007 4.47284 7.49754 3.54222 8.38866C2.61161 9.27978 2.06092 10.4958 2.005 11.783L2 11.937L2.003 11.72C2.152 6.327 6.57 2 12 2Z" fill="currentColor"/>
</svg>
