<svg width="24" height="24" viewBox="0 0 24 24" fill="none" xmlns="http://www.w3.org/2000/svg">
<path fill-rule="evenodd" clip-rule="evenodd" d="M13.4569 3.604C14.4191 2.96 15.575 2.66978 16.7273 2.78284C17.8797 2.8959 18.9571 3.40524 19.7759 4.22399C20.5946 5.04273 21.104 6.12016 21.217 7.27251C21.3301 8.42485 21.0399 9.58073 20.3959 10.543C20.7216 10.9975 20.8856 11.5481 20.8616 12.1068C20.8377 12.6654 20.6272 13.2 20.2639 13.625L20.1319 13.768L19.4249 14.475C18.6149 15.285 17.3859 15.423 16.4339 14.888L16.2779 14.793L14.7929 16.278C15.0927 16.7318 15.2364 17.271 15.2021 17.8138C15.1678 18.3567 14.9574 18.8735 14.6029 19.286L14.4749 19.425L13.7679 20.132C13.3488 20.5511 12.7945 20.8078 12.2038 20.8561C11.6131 20.9045 11.0245 20.7414 10.5429 20.396C9.5806 21.04 8.42472 21.3302 7.27237 21.2172C6.12002 21.1041 5.04259 20.5948 4.22385 19.776C3.4051 18.9573 2.89576 17.8798 2.7827 16.7275C2.66964 15.5751 2.95986 14.4193 3.60386 13.457C3.27815 13.0025 3.11417 12.4519 3.13809 11.8932C3.16202 11.3345 3.37248 10.8 3.73586 10.375L3.86786 10.232L4.57486 9.525C4.96024 9.13988 5.46083 8.89113 6.00053 8.81659C6.54023 8.74204 7.08951 8.84577 7.56486 9.112L7.72186 9.207L9.20686 7.722C8.90715 7.26814 8.76356 6.72896 8.79785 6.18616C8.83214 5.64336 9.04243 5.12653 9.39686 4.714L9.52486 4.575L10.2319 3.868C10.6509 3.44886 11.2052 3.19222 11.7959 3.14387C12.3866 3.09551 12.9752 3.25859 13.4569 3.604ZM13.0609 17.304C12.9783 17.221 12.8691 17.1697 12.7526 17.1589C12.636 17.1481 12.5193 17.1786 12.4229 17.245L12.3529 17.303L11.6459 18.01C11.5573 18.0982 11.5049 18.2164 11.4992 18.3412C11.4934 18.4661 11.5346 18.5886 11.6146 18.6846C11.6947 18.7806 11.8078 18.8431 11.9317 18.8598C12.0555 18.8766 12.1812 18.8463 12.2839 18.775L12.3539 18.718L13.0609 18.01C13.1546 17.9162 13.2073 17.7891 13.2073 17.6565C13.2073 17.5239 13.1546 17.3968 13.0609 17.303V17.304ZM18.0109 11.647L17.3029 12.354C17.2551 12.4001 17.217 12.4553 17.1908 12.5163C17.1646 12.5773 17.1508 12.6429 17.1502 12.7093C17.1497 12.7757 17.1623 12.8415 17.1874 12.903C17.2126 12.9644 17.2497 13.0202 17.2967 13.0672C17.3436 13.1141 17.3994 13.1513 17.4609 13.1764C17.5223 13.2015 17.5882 13.2142 17.6546 13.2136C17.7209 13.213 17.7866 13.1993 17.8476 13.173C17.9086 13.1468 17.9637 13.1088 18.0099 13.061L18.7169 12.354C18.7646 12.3079 18.8027 12.2527 18.8289 12.1917C18.8551 12.1307 18.8689 12.0651 18.8695 11.9987C18.8701 11.9323 18.8574 11.8665 18.8323 11.805C18.8071 11.7436 18.77 11.6877 18.7231 11.6408C18.6761 11.5939 18.6203 11.5567 18.5588 11.5316C18.4974 11.5064 18.4315 11.4938 18.3652 11.4944C18.2988 11.4949 18.2332 11.5087 18.1722 11.5349C18.1112 11.5611 18.057 11.5992 18.0109 11.647ZM6.69686 10.939C6.614 10.8563 6.50477 10.8053 6.38818 10.7949C6.2716 10.7845 6.15506 10.8153 6.05886 10.882L5.98886 10.939L5.28186 11.646C5.19327 11.7342 5.14094 11.8524 5.13516 11.9772C5.12938 12.1021 5.17058 12.2246 5.25063 12.3206C5.33069 12.4166 5.4438 12.4791 5.56768 12.4958C5.69155 12.5126 5.8172 12.4823 5.91986 12.411L5.98986 12.354L6.69686 11.647C6.74342 11.6005 6.78036 11.5454 6.80557 11.4846C6.83078 11.4239 6.84375 11.3588 6.84375 11.293C6.84375 11.2272 6.83078 11.1621 6.80557 11.1014C6.78036 11.0406 6.74342 10.9854 6.69686 10.939ZM11.6469 5.283L10.9389 5.99C10.8478 6.0843 10.7974 6.2106 10.7985 6.3417C10.7997 6.47279 10.8522 6.5982 10.9449 6.69091C11.0377 6.78361 11.1631 6.83619 11.2942 6.83733C11.4253 6.83847 11.5516 6.78807 11.6459 6.697L12.3539 5.99C12.4476 5.89611 12.5002 5.76882 12.5001 5.63614C12.5 5.50346 12.4472 5.37625 12.3534 5.2825C12.3069 5.23607 12.2517 5.19926 12.191 5.17416C12.1303 5.14907 12.0652 5.13617 11.9995 5.13622C11.8668 5.13631 11.7396 5.18911 11.6459 5.283H11.6469Z" fill="currentColor"/>
</svg>
