<svg width="24" height="24" viewBox="0 0 24 24" fill="none" xmlns="http://www.w3.org/2000/svg">
<path d="M3.56852 5.86498C3.59332 5.65969 3.66558 5.463 3.77957 5.29047C3.89356 5.11794 4.04616 4.97432 4.22527 4.87099C4.40438 4.76766 4.60509 4.70744 4.81151 4.69512C5.01793 4.68279 5.22438 4.7187 5.41452 4.79998L6.06052 5.08298L6.57152 5.31598L7.16852 5.59898L7.84452 5.92998L8.33452 6.17898L9.12752 6.59298L9.69152 6.89698L10.2795 7.22298L10.8925 7.57198L11.5255 7.94198L12.1245 8.30298L12.6885 8.65198L13.4665 9.14798L14.1605 9.60598L14.7675 10.02L15.2845 10.383L15.8255 10.777L16.0315 10.931C16.7415 11.466 16.7415 12.525 16.0325 13.061L15.6025 13.38L15.3295 13.578L14.6655 14.043L14.0705 14.447L13.6275 14.739L12.8975 15.209L12.0875 15.709L11.5065 16.059L10.8915 16.419L10.2715 16.771L9.67852 17.101L9.11252 17.406L8.57452 17.689L7.82652 18.07L7.15352 18.401L6.38052 18.765L5.63652 19.097L5.41252 19.193C5.22248 19.2739 5.01623 19.3095 4.81007 19.297C4.60391 19.2844 4.40348 19.2242 4.22463 19.1209C4.04578 19.0176 3.89339 18.8741 3.77952 18.7018C3.66565 18.5295 3.59341 18.333 3.56852 18.128L3.48852 17.43L3.41752 16.663L3.36452 15.974L3.31452 15.194L3.28652 14.624L3.26252 14.019L3.24352 13.379L3.22852 12.353V11.638L3.24352 10.614L3.27352 9.66598L3.29952 9.07898L3.32952 8.52898L3.38152 7.77898L3.43552 7.12198L3.50552 6.39998L3.56852 5.86498ZM18.9995 4.99998C19.2444 5.00002 19.4809 5.08994 19.6639 5.2527C19.8469 5.41546 19.9639 5.63973 19.9925 5.88298L19.9995 5.99998V18C19.9995 18.2449 19.9096 18.4813 19.7468 18.6644C19.584 18.8474 19.3598 18.9643 19.1165 18.993L18.9995 19H17.9995C17.7546 19 17.5182 18.91 17.3351 18.7473C17.1521 18.5845 17.0352 18.3602 17.0065 18.117L16.9995 18V5.99998C16.9995 5.75505 17.0895 5.51865 17.2522 5.33561C17.415 5.15258 17.6393 5.03564 17.8825 5.00698L17.9995 4.99998H18.9995Z" fill="currentColor"/>
</svg>
