<svg width="24" height="24" viewBox="0 0 24 24" fill="none" xmlns="http://www.w3.org/2000/svg">
<path d="M20.43 5.86498L20.508 6.56398L20.58 7.33098L20.616 7.77898L20.667 8.52898L20.697 9.07898L20.735 9.97298L20.754 10.614L20.766 11.289L20.77 11.996L20.766 12.703L20.754 13.378L20.735 14.019L20.711 14.625L20.683 15.194L20.633 15.974L20.598 16.444L20.508 17.43L20.429 18.128C20.4041 18.333 20.3319 18.5295 20.218 18.7018C20.1041 18.8741 19.9517 19.0176 19.7729 19.1209C19.594 19.2242 19.3936 19.2844 19.1874 19.297C18.9813 19.3095 18.775 19.2739 18.585 19.193L18.095 18.98L17.249 18.594L16.629 18.296L16.171 18.07L15.423 17.689L14.885 17.406L14.319 17.1L13.725 16.771L13.106 16.418L12.491 16.058L11.909 15.709L11.1 15.209L10.37 14.739L9.927 14.447L9.521 14.173L8.981 13.8L8.394 13.38L7.964 13.061C7.79892 12.9367 7.665 12.7758 7.57284 12.5909C7.48068 12.4059 7.43281 12.2021 7.433 11.9955C7.43319 11.7889 7.48145 11.5851 7.57396 11.4004C7.66646 11.2156 7.80068 11.0549 7.966 10.931L8.291 10.689L8.713 10.383L9.23 10.02L9.837 9.60598L10.531 9.14798L11.041 8.82098L11.587 8.47898L12.168 8.12398L12.785 7.75798L13.105 7.57198C13.313 7.45198 13.517 7.33498 13.718 7.22298L14.306 6.89698L14.869 6.59298L15.662 6.17898L16.387 5.81398L16.829 5.59898L17.426 5.31598L18.228 4.95398L18.583 4.79998C18.7731 4.7187 18.9796 4.68279 19.186 4.69512C19.3924 4.70744 19.5931 4.76766 19.7722 4.87099C19.9514 4.97432 20.104 5.11794 20.2179 5.29047C20.3319 5.463 20.4052 5.65969 20.43 5.86498ZM6 4.99998C6.24493 5.00002 6.48134 5.08994 6.66437 5.2527C6.84741 5.41546 6.96434 5.63973 6.993 5.88298L7 5.99998V18C6.99997 18.2449 6.91004 18.4813 6.74728 18.6644C6.58453 18.8474 6.36025 18.9643 6.117 18.993L6 19H5C4.75507 19 4.51866 18.91 4.33563 18.7473C4.15259 18.5845 4.03566 18.3602 4.007 18.117L4 18V5.99998C4.00003 5.75505 4.08996 5.51865 4.25272 5.33561C4.41547 5.15258 4.63975 5.03564 4.883 5.00698L5 4.99998H6Z" fill="currentColor"/>
</svg>
