<svg width="24" height="24" viewBox="0 0 24 24" fill="none" xmlns="http://www.w3.org/2000/svg">
<path fill-rule="evenodd" clip-rule="evenodd" d="M7.49268 2.13802C7.68341 2.02588 7.90596 1.98016 8.12546 2.00803C8.34496 2.03589 8.54901 2.13577 8.70568 2.29202C9.04339 2.61822 9.41138 2.91154 9.80468 3.16802C10.5047 3.63502 11.2997 4.00002 11.9997 4.00002C12.6997 4.00002 13.4947 3.63502 14.1947 3.16802C14.58 2.91065 14.9433 2.62165 15.2807 2.30402C15.6087 1.98402 16.1057 1.90202 16.5067 2.13802C16.6976 2.25045 16.8458 2.42312 16.928 2.62892C17.0102 2.83472 17.0217 3.06198 16.9607 3.27502L15.1467 9.62502C15.7967 10.197 16.3377 10.918 16.7847 11.668C17.8357 13.433 18.5197 15.468 18.8857 17.486C18.9947 18.084 19.1807 18.874 18.8937 19.447C18.4317 20.371 16.9907 20.456 16.0957 20.557C14.9377 20.687 13.4597 20.75 11.9997 20.75C10.5397 20.75 9.06168 20.687 7.90368 20.556C7.00368 20.455 5.57868 20.394 5.10568 19.447C4.81268 18.862 5.00368 18.089 5.11368 17.486C5.47868 15.469 6.16368 13.433 7.21468 11.668C7.66168 10.918 8.20268 10.198 8.85268 9.62502L7.03768 3.27502C6.97677 3.06187 6.98841 2.83453 7.07077 2.62872C7.15313 2.42291 7.30154 2.2503 7.49268 2.13802ZM10.6557 8.65702C11.0959 8.55151 11.547 8.4988 11.9997 8.50002C12.4523 8.4988 12.9035 8.55151 13.3437 8.65702L14.2657 5.42802C13.5997 5.74802 12.8187 6.00002 11.9997 6.00002C11.1797 6.00002 10.3997 5.74802 9.73368 5.42802L10.6557 8.65702Z" fill="currentColor"/>
</svg>
