<svg width="24" height="24" viewBox="0 0 24 24" fill="none" xmlns="http://www.w3.org/2000/svg">
<path fill-rule="evenodd" clip-rule="evenodd" d="M11.9996 2C10.4083 2 8.88215 2.63214 7.75694 3.75736C6.63172 4.88258 5.99958 6.4087 5.99958 8V9.875L5.09958 9.2C4.99452 9.12121 4.87497 9.06388 4.74776 9.03129C4.62054 8.99869 4.48816 8.99148 4.35816 9.01005C4.22815 9.02862 4.10308 9.07262 3.99008 9.13953C3.87708 9.20643 3.77837 9.29494 3.69958 9.4C3.62078 9.50506 3.56345 9.62461 3.53086 9.75182C3.49827 9.87903 3.49106 10.0114 3.50963 10.1414C3.5282 10.2714 3.57219 10.3965 3.6391 10.5095C3.70601 10.6225 3.79452 10.7212 3.89958 10.8L5.76558 12.2C5.32158 13.368 4.23858 14.59 2.48558 15.643C2.37059 15.7136 2.27092 15.8065 2.19243 15.9162C2.11394 16.0259 2.05823 16.1503 2.02859 16.2819C1.99894 16.4135 1.99597 16.5497 2.01984 16.6825C2.04372 16.8153 2.09395 16.9419 2.16758 17.055C3.28558 18.732 5.05958 20 6.99958 20C8.78358 20 10.0066 22 11.9996 22C14.0106 22 15.2086 20 16.9996 20C18.9396 20 20.7136 18.732 21.8316 17.055C21.9052 16.9419 21.9554 16.8153 21.9793 16.6825C22.0032 16.5497 22.0002 16.4135 21.9706 16.2819C21.9409 16.1503 21.8852 16.0259 21.8067 15.9162C21.7282 15.8065 21.6286 15.7136 21.5136 15.643C19.7606 14.59 18.6776 13.368 18.2336 12.2L20.0996 10.8C20.3118 10.6409 20.452 10.404 20.4895 10.1414C20.527 9.87887 20.4587 9.61217 20.2996 9.4C20.1404 9.18783 19.9035 9.04756 19.641 9.01005C19.3784 8.97254 19.1117 9.04087 18.8996 9.2L17.9996 9.875V8C17.9996 6.4087 17.3674 4.88258 16.2422 3.75736C15.117 2.63214 13.5909 2 11.9996 2Z" fill="currentColor"/>
</svg>
