<svg width="24" height="24" viewBox="0 0 24 24" fill="none" xmlns="http://www.w3.org/2000/svg">
<path fill-rule="evenodd" clip-rule="evenodd" d="M11.9997 2C12.8774 2.00002 13.7396 2.23107 14.4997 2.66992C15.2597 3.10877 15.8909 3.73996 16.3297 4.50005C16.7686 5.26015 16.9996 6.12236 16.9996 7.00003C16.9996 7.8777 16.7685 8.73991 16.3297 9.5C16.7567 9.837 17.1437 10.222 17.4817 10.647L17.6787 10.907L19.2927 9.293C19.4727 9.11365 19.7141 9.00953 19.9681 9.00177C20.222 8.99402 20.4694 9.08321 20.66 9.25125C20.8505 9.41928 20.97 9.65355 20.9941 9.90647C21.0182 10.1594 20.9451 10.412 20.7897 10.613L20.7067 10.707L18.7067 12.707L18.6367 12.771C18.9893 13.8236 19.0865 14.9449 18.9203 16.0424C18.7541 17.1399 18.3293 18.1822 17.6809 19.0832C17.0325 19.9842 16.1792 20.7181 15.1913 21.2242C14.2034 21.7304 13.1092 21.9944 11.9992 21.9944C10.8892 21.9944 9.79503 21.7304 8.80712 21.2242C7.81922 20.7181 6.96586 19.9842 6.31747 19.0832C5.66909 18.1822 5.24427 17.1399 5.07809 16.0424C4.9119 14.9449 5.00911 13.8236 5.36169 12.771L5.29169 12.707L3.29169 10.707C3.11235 10.527 3.00822 10.2856 3.00047 10.0316C2.99271 9.77767 3.08191 9.53029 3.24994 9.33972C3.41798 9.14916 3.65225 9.02969 3.90517 9.0056C4.15809 8.98151 4.4107 9.05459 4.61169 9.21L4.70669 9.293L6.32069 10.907C6.70266 10.3778 7.15633 9.90427 7.66869 9.5C7.22982 8.73984 6.99878 7.87754 6.99882 6.99978C6.99886 6.12202 7.22997 5.25974 7.66891 4.49962C8.10786 3.7395 8.73917 3.10832 9.49939 2.66955C10.2596 2.23077 11.1219 1.99985 11.9997 2ZM11.9997 16C11.7345 16 11.4801 16.1054 11.2926 16.2929C11.1051 16.4804 10.9997 16.7348 10.9997 17C10.9997 17.2652 11.1051 17.5196 11.2926 17.7071C11.4801 17.8946 11.7345 18 11.9997 18C12.2649 18 12.5193 17.8946 12.7068 17.7071C12.8943 17.5196 12.9997 17.2652 12.9997 17C12.9997 16.7348 12.8943 16.4804 12.7068 16.2929C12.5193 16.1054 12.2649 16 11.9997 16ZM11.9997 13C11.7345 13 11.4801 13.1054 11.2926 13.2929C11.1051 13.4804 10.9997 13.7348 10.9997 14C10.9997 14.2652 11.1051 14.5196 11.2926 14.7071C11.4801 14.8946 11.7345 15 11.9997 15C12.2649 15 12.5193 14.8946 12.7068 14.7071C12.8943 14.5196 12.9997 14.2652 12.9997 14C12.9997 13.7348 12.8943 13.4804 12.7068 13.2929C12.5193 13.1054 12.2649 13 11.9997 13ZM11.7927 6.793L11.2927 7.293C11.1105 7.4816 11.0097 7.7342 11.012 7.9964C11.0143 8.2586 11.1195 8.50941 11.3049 8.69482C11.4903 8.88023 11.7411 8.9854 12.0033 8.98767C12.2655 8.98995 12.5181 8.88916 12.7067 8.707L13.2067 8.207C13.3889 8.0184 13.4896 7.7658 13.4874 7.5036C13.4851 7.2414 13.3799 6.99059 13.1945 6.80518C13.0091 6.61977 12.7583 6.5146 12.4961 6.51233C12.2339 6.51005 11.9813 6.61084 11.7927 6.793Z" fill="currentColor"/>
</svg>
