<svg width="24" height="24" viewBox="0 0 24 24" fill="none" xmlns="http://www.w3.org/2000/svg">
<path d="M12.9998 3C12.9998 2.73478 12.8944 2.48043 12.7069 2.29289C12.5194 2.10536 12.265 2 11.9998 2C11.7346 2 11.4802 2.10536 11.2927 2.29289C11.1052 2.48043 10.9998 2.73478 10.9998 3V3.962L10.3458 3.616C10.2297 3.55461 10.1027 3.51668 9.97193 3.50439C9.84118 3.49209 9.70929 3.50567 9.5838 3.54435C9.4583 3.58302 9.34164 3.64604 9.2405 3.72979C9.13936 3.81355 9.0557 3.91641 8.99431 4.0325C8.93291 4.14859 8.89499 4.27563 8.88269 4.40638C8.8704 4.53712 8.88397 4.66901 8.92265 4.79451C8.96133 4.92001 9.02434 5.03666 9.1081 5.1378C9.19186 5.23895 9.29472 5.32261 9.41081 5.384L10.9998 6.224V8.126C10.2958 8.30799 9.65476 8.67863 9.1458 9.198L7.49781 8.246L7.56481 6.45C7.57462 6.18492 7.47872 5.92679 7.29822 5.73241C7.11772 5.53803 6.86739 5.42331 6.6023 5.4135C6.33722 5.40369 6.0791 5.49958 5.88471 5.68008C5.69033 5.86059 5.57562 6.11092 5.5658 6.376L5.5388 7.115L4.7058 6.635C4.59197 6.56457 4.46515 6.51772 4.33287 6.49721C4.20059 6.47671 4.06554 6.48297 3.93572 6.51563C3.80591 6.54829 3.68397 6.60667 3.57714 6.68733C3.4703 6.76799 3.38075 6.86928 3.31379 6.98518C3.24683 7.10109 3.20382 7.22927 3.18732 7.36211C3.17081 7.49495 3.18115 7.62975 3.2177 7.75852C3.25426 7.88729 3.3163 8.00741 3.40014 8.11176C3.48399 8.21611 3.58793 8.30257 3.7058 8.366L4.5388 8.847L3.9118 9.241C3.69311 9.38473 3.53948 9.60846 3.48387 9.86417C3.42826 10.1199 3.4751 10.3872 3.61435 10.6088C3.7536 10.8304 3.97416 10.9885 4.22869 11.0493C4.48322 11.1101 4.75145 11.0687 4.9758 10.934L6.4978 9.978L8.14481 10.929C7.95023 11.6297 7.95023 12.3703 8.14481 13.071L6.4978 14.021L4.9758 13.066C4.75145 12.9313 4.48322 12.8899 4.22869 12.9507C3.97416 13.0115 3.7536 13.1696 3.61435 13.3912C3.4751 13.6128 3.42826 13.8801 3.48387 14.1358C3.53948 14.3915 3.69311 14.6153 3.9118 14.759L4.5388 15.153L3.7058 15.633C3.59201 15.6987 3.49227 15.7861 3.41227 15.8903C3.33227 15.9945 3.27358 16.1135 3.23954 16.2403C3.20551 16.3672 3.1968 16.4996 3.21392 16.6298C3.23104 16.7601 3.27364 16.8857 3.3393 16.9995C3.40497 17.1133 3.4924 17.213 3.5966 17.293C3.70081 17.373 3.81976 17.4317 3.94665 17.4658C4.07354 17.4998 4.20589 17.5085 4.33615 17.4914C4.46641 17.4743 4.59201 17.4317 4.7058 17.366L5.5378 16.885L5.5658 17.625C5.57073 17.7563 5.60146 17.8853 5.65624 18.0046C5.71102 18.124 5.78877 18.2314 5.88507 18.3208C5.98136 18.4101 6.09431 18.4796 6.21746 18.5253C6.34061 18.5709 6.47155 18.5919 6.6028 18.587C6.73406 18.5821 6.86306 18.5513 6.98244 18.4966C7.10182 18.4418 7.20924 18.364 7.29857 18.2677C7.38791 18.1714 7.45739 18.0585 7.50307 17.9353C7.54875 17.8122 7.56973 17.6813 7.56481 17.55L7.49781 15.754L9.1458 14.802C9.6546 15.3216 10.2957 15.6922 10.9998 15.874V17.776L9.41081 18.616C9.17635 18.74 9.00076 18.952 8.92265 19.2055C8.84454 19.4589 8.87032 19.733 8.99431 19.9675C9.11829 20.202 9.33034 20.3775 9.5838 20.4557C9.83725 20.5338 10.1114 20.508 10.3458 20.384L10.9998 20.038V21C10.9998 21.2652 11.1052 21.5196 11.2927 21.7071C11.4802 21.8946 11.7346 22 11.9998 22C12.265 22 12.5194 21.8946 12.7069 21.7071C12.8944 21.5196 12.9998 21.2652 12.9998 21V20.038L13.6538 20.384C13.8883 20.508 14.1624 20.5338 14.4158 20.4557C14.6693 20.3775 14.8813 20.202 15.0053 19.9675C15.1293 19.733 15.1551 19.4589 15.077 19.2055C14.9989 18.952 14.8233 18.74 14.5888 18.616L12.9998 17.776V15.874C13.7037 15.6923 14.3447 15.322 14.8538 14.803L16.5018 15.754L16.4348 17.55C16.4299 17.6813 16.4509 17.8122 16.4965 17.9353C16.5422 18.0585 16.6117 18.1714 16.701 18.2677C16.7904 18.364 16.8978 18.4418 17.0172 18.4966C17.1365 18.5513 17.2655 18.5821 17.3968 18.587C17.5281 18.5919 17.659 18.5709 17.7822 18.5253C17.9053 18.4796 18.0182 18.4101 18.1145 18.3208C18.2108 18.2314 18.2886 18.124 18.3434 18.0046C18.3982 17.8853 18.4289 17.7563 18.4338 17.625L18.4608 16.885L19.2938 17.366C19.4076 17.4327 19.5334 17.4762 19.6641 17.4941C19.7947 17.512 19.9277 17.5038 20.0552 17.4701C20.1826 17.4364 20.3022 17.3778 20.407 17.2977C20.5117 17.2176 20.5996 17.1175 20.6656 17.0033C20.7315 16.8891 20.7742 16.763 20.7912 16.6322C20.8082 16.5014 20.7992 16.3686 20.7646 16.2413C20.7301 16.114 20.6707 15.9949 20.5899 15.8906C20.5091 15.7864 20.4085 15.6992 20.2938 15.634L19.4618 15.154L20.0878 14.76C20.3124 14.6189 20.4718 14.3944 20.5309 14.1357C20.59 13.8771 20.5439 13.6056 20.4028 13.381C20.2617 13.1564 20.0372 12.997 19.7785 12.9379C19.5199 12.8788 19.2484 12.9249 19.0238 13.066L17.5018 14.022L15.8548 13.072C16.0495 12.3709 16.0495 11.6301 15.8548 10.929L17.5018 9.978L19.0238 10.934C19.2484 11.0751 19.5199 11.1212 19.7785 11.0621C20.0372 11.003 20.2617 10.8436 20.4028 10.619C20.5439 10.3944 20.59 10.1229 20.5309 9.86426C20.4718 9.60565 20.3124 9.38109 20.0878 9.24L19.4608 8.847L20.2938 8.366C20.4085 8.30082 20.5091 8.2136 20.5899 8.10937C20.6707 8.00515 20.7301 7.88597 20.7646 7.75869C20.7992 7.63142 20.8082 7.49857 20.7912 7.36779C20.7742 7.23701 20.7315 7.11088 20.6656 6.99667C20.5996 6.88246 20.5117 6.78242 20.407 6.70231C20.3022 6.62221 20.1826 6.56361 20.0552 6.5299C19.9277 6.49619 19.7947 6.48804 19.6641 6.5059C19.5334 6.52377 19.4076 6.5673 19.2938 6.634L18.4608 7.114L18.4338 6.375C18.4289 6.24374 18.3982 6.11474 18.3434 5.99536C18.2886 5.87598 18.2108 5.76856 18.1145 5.67923C18.0182 5.5899 17.9053 5.52041 17.7822 5.47473C17.659 5.42905 17.5281 5.40808 17.3968 5.413C17.2655 5.41792 17.1365 5.44865 17.0172 5.50343C16.8978 5.55821 16.7904 5.63597 16.701 5.73226C16.6117 5.82856 16.5422 5.9415 16.4965 6.06465C16.4509 6.1878 16.4299 6.31874 16.4348 6.45L16.5018 8.246L14.8538 9.197C14.3447 8.678 13.7037 8.3077 12.9998 8.126V6.224L14.5888 5.384C14.8233 5.26001 14.9989 5.04797 15.077 4.79451C15.1551 4.54105 15.1293 4.26695 15.0053 4.0325C14.8813 3.79805 14.6693 3.62245 14.4158 3.54435C14.1624 3.46624 13.8883 3.49201 13.6538 3.616L12.9998 3.962V3Z" fill="currentColor"/>
</svg>
