<svg width="24" height="24" viewBox="0 0 24 24" fill="none" xmlns="http://www.w3.org/2000/svg">
<path d="M13.5 3C13.5 2.60218 13.342 2.22064 13.0607 1.93934C12.7794 1.65804 12.3978 1.5 12 1.5C11.6022 1.5 11.2206 1.65804 10.9393 1.93934C10.658 2.22064 10.5 2.60218 10.5 3V5.379L9.06 3.939C8.92156 3.7958 8.75599 3.68161 8.57295 3.60308C8.38991 3.52456 8.19306 3.48327 7.99389 3.48163C7.79472 3.48 7.59722 3.51804 7.41291 3.59355C7.2286 3.66906 7.06118 3.78052 6.92041 3.92142C6.77963 4.06233 6.66833 4.22986 6.593 4.41424C6.51766 4.59862 6.4798 4.79615 6.48163 4.99532C6.48345 5.19449 6.52492 5.3913 6.60362 5.57427C6.68232 5.75723 6.79667 5.9227 6.94 6.061L10.5 9.621V10.5H9.621L6.061 6.94C5.9227 6.79667 5.75723 6.68232 5.57427 6.60362C5.3913 6.52492 5.19449 6.48345 4.99532 6.48163C4.79615 6.4798 4.59862 6.51766 4.41424 6.593C4.22986 6.66833 4.06233 6.77963 3.92142 6.92041C3.78052 7.06118 3.66906 7.2286 3.59355 7.41291C3.51804 7.59722 3.48 7.79472 3.48163 7.99389C3.48327 8.19306 3.52456 8.38991 3.60308 8.57295C3.68161 8.75599 3.7958 8.92156 3.939 9.06L5.379 10.5H3C2.60218 10.5 2.22064 10.658 1.93934 10.9393C1.65804 11.2206 1.5 11.6022 1.5 12C1.5 12.3978 1.65804 12.7794 1.93934 13.0607C2.22064 13.342 2.60218 13.5 3 13.5H5.379L3.939 14.94C3.66589 15.223 3.51488 15.602 3.51848 15.9953C3.52208 16.3886 3.68001 16.7647 3.95826 17.0427C4.2365 17.3207 4.6128 17.4783 5.00609 17.4815C5.39939 17.4847 5.77823 17.3334 6.061 17.06L9.621 13.5H10.5V14.379L6.94 17.939C6.66663 18.2218 6.51525 18.6006 6.51848 18.9939C6.52172 19.3872 6.67929 19.7635 6.95727 20.0417C7.23526 20.32 7.6114 20.4779 8.0047 20.4815C8.39799 20.4851 8.77697 20.3341 9.06 20.061L10.5 18.621V21C10.5 21.3978 10.658 21.7794 10.9393 22.0607C11.2206 22.342 11.6022 22.5 12 22.5C12.3978 22.5 12.7794 22.342 13.0607 22.0607C13.342 21.7794 13.5 21.3978 13.5 21V18.621L14.94 20.061C15.223 20.3341 15.602 20.4851 15.9953 20.4815C16.3886 20.4779 16.7647 20.32 17.0427 20.0417C17.3207 19.7635 17.4783 19.3872 17.4815 18.9939C17.4847 18.6006 17.3334 18.2218 17.06 17.939L13.5 14.379V13.5H14.379L17.939 17.06C18.2218 17.3334 18.6006 17.4847 18.9939 17.4815C19.3872 17.4783 19.7635 17.3207 20.0417 17.0427C20.32 16.7647 20.4779 16.3886 20.4815 15.9953C20.4851 15.602 20.3341 15.223 20.061 14.94L18.621 13.5H21C21.3978 13.5 21.7794 13.342 22.0607 13.0607C22.342 12.7794 22.5 12.3978 22.5 12C22.5 11.6022 22.342 11.2206 22.0607 10.9393C21.7794 10.658 21.3978 10.5 21 10.5H18.621L20.061 9.06C20.3341 8.77697 20.4851 8.39799 20.4815 8.0047C20.4779 7.6114 20.32 7.23526 20.0417 6.95727C19.7635 6.67929 19.3872 6.52172 18.9939 6.51848C18.6006 6.51525 18.2218 6.66663 17.939 6.94L14.379 10.5H13.5V9.621L17.06 6.061C17.3334 5.77823 17.4847 5.39939 17.4815 5.00609C17.4783 4.6128 17.3207 4.2365 17.0427 3.95826C16.7647 3.68001 16.3886 3.52208 15.9953 3.51848C15.602 3.51488 15.223 3.66589 14.94 3.939L13.5 5.38V3Z" fill="currentColor"/>
</svg>
