<svg width="24" height="24" viewBox="0 0 24 24" fill="none" xmlns="http://www.w3.org/2000/svg">
<path fill-rule="evenodd" clip-rule="evenodd" d="M10 3C8.67392 3 7.40215 3.52678 6.46447 4.46447C5.52678 5.40215 5 6.67392 5 8V9.17C4.41493 9.37701 3.90842 9.76032 3.55024 10.2671C3.19206 10.774 2.99982 11.3794 3 12V17C3 17.5304 3.21071 18.0391 3.58579 18.4142C3.96086 18.7893 4.46957 19 5 19V20C5 20.2652 5.10536 20.5196 5.29289 20.7071C5.48043 20.8946 5.73478 21 6 21C6.26522 21 6.51957 20.8946 6.70711 20.7071C6.89464 20.5196 7 20.2652 7 20V19H17V20C17 20.2652 17.1054 20.5196 17.2929 20.7071C17.4804 20.8946 17.7348 21 18 21C18.2652 21 18.5196 20.8946 18.7071 20.7071C18.8946 20.5196 19 20.2652 19 20V19C19.5304 19 20.0391 18.7893 20.4142 18.4142C20.7893 18.0391 21 17.5304 21 17V12C21.0002 11.3794 20.8079 10.774 20.4498 10.2671C20.0916 9.76032 19.5851 9.37701 19 9.17V8C19 6.67392 18.4732 5.40215 17.5355 4.46447C16.5979 3.52678 15.3261 3 14 3H10ZM17 9.17V8C17 7.20435 16.6839 6.44129 16.1213 5.87868C15.5587 5.31607 14.7956 5 14 5H10C9.20435 5 8.44129 5.31607 7.87868 5.87868C7.31607 6.44129 7 7.20435 7 8V9.17C8.165 9.583 9 10.694 9 12V13H15V12C15 10.694 15.835 9.583 17 9.17Z" fill="currentColor"/>
</svg>
