<svg width="24" height="24" viewBox="0 0 24 24" fill="none" xmlns="http://www.w3.org/2000/svg">
<path d="M10.105 4H13.895L14.395 9H9.60496L10.105 4ZM9.40496 11H14.595L15.095 16H13V18H15C15.2652 18 15.5195 18.1054 15.7071 18.2929C15.8946 18.4804 16 18.7348 16 19C16 19.2652 15.8946 19.5196 15.7071 19.7071C15.5195 19.8946 15.2652 20 15 20H8.99996C8.73474 20 8.48039 19.8946 8.29285 19.7071C8.10531 19.5196 7.99996 19.2652 7.99996 19C7.99996 18.7348 8.10531 18.4804 8.29285 18.2929C8.48039 18.1054 8.73474 18 8.99996 18H11V16H8.90496L9.40496 11ZM16.605 11L17.105 16H20.39C20.6119 16 20.831 15.9508 21.0316 15.8559C21.2322 15.7609 21.4093 15.6227 21.55 15.4511C21.6907 15.2795 21.7916 15.0788 21.8453 14.8635C21.8991 14.6482 21.9045 14.4236 21.861 14.206L21.22 11H16.605ZM15.905 4L16.405 9H20.82L20.141 5.608C20.0504 5.15478 19.8056 4.74692 19.4483 4.45377C19.091 4.16062 18.6431 4.00028 18.181 4H15.905ZM8.09496 4H5.81996C5.3576 4.00005 4.90954 4.16029 4.55202 4.45346C4.19449 4.74663 3.94958 5.15461 3.85896 5.608L3.17996 9H7.59496L8.09496 4ZM7.39496 11H2.77996L2.13896 14.206C2.09548 14.4235 2.10079 14.648 2.15451 14.8632C2.20823 15.0785 2.30902 15.2791 2.44962 15.4507C2.59022 15.6223 2.76713 15.7606 2.9676 15.8555C3.16808 15.9505 3.38712 15.9999 3.60896 16H6.89496L7.39496 11Z" fill="currentColor"/>
</svg>
