<svg width="24" height="24" viewBox="0 0 24 24" fill="none" xmlns="http://www.w3.org/2000/svg">
<path d="M16.94 3.11101C17.2025 2.84856 17.553 2.69275 17.9237 2.67373C18.2944 2.6547 18.659 2.77381 18.947 3.00801L19.061 3.11101L21.889 5.94001C22.1599 6.21212 22.3161 6.57772 22.3255 6.96153C22.3349 7.34534 22.1967 7.71815 21.9395 8.00317C21.6823 8.2882 21.3256 8.46375 20.9428 8.49367C20.56 8.52359 20.1804 8.40561 19.882 8.16401L19.768 8.06101L19.5 7.79301V19C19.4998 19.3852 19.3514 19.7556 19.0856 20.0344C18.8198 20.3132 18.4569 20.479 18.0721 20.4975C17.6873 20.5161 17.3102 20.3858 17.0188 20.1338C16.7274 19.8819 16.5442 19.5274 16.507 19.144L16.5 19V7.79301L16.232 8.06101C15.9602 8.33378 15.5939 8.49158 15.209 8.50175C14.8241 8.51191 14.45 8.37366 14.1642 8.11562C13.8784 7.85757 13.7028 7.4995 13.6737 7.11555C13.6446 6.73159 13.7643 6.35116 14.008 6.05301L14.111 5.94001L16.939 3.11101H16.94ZM13 17.5C13.3852 17.5002 13.7556 17.6486 14.0344 17.9144C14.3132 18.1803 14.479 18.5432 14.4975 18.9279C14.516 19.3127 14.3858 19.6898 14.1338 19.9812C13.8818 20.2726 13.5274 20.4558 13.144 20.493L13 20.5H4C3.61478 20.4998 3.24441 20.3514 2.96561 20.0856C2.68682 19.8198 2.52099 19.4569 2.50248 19.0721C2.48396 18.6873 2.61419 18.3102 2.86618 18.0188C3.11816 17.7274 3.47258 17.5442 3.856 17.507L4 17.5H13ZM13 10.5C13.3978 10.5 13.7794 10.658 14.0607 10.9394C14.342 11.2207 14.5 11.6022 14.5 12C14.5 12.3978 14.342 12.7794 14.0607 13.0607C13.7794 13.342 13.3978 13.5 13 13.5H4C3.60218 13.5 3.22064 13.342 2.93934 13.0607C2.65804 12.7794 2.5 12.3978 2.5 12C2.5 11.6022 2.65804 11.2207 2.93934 10.9394C3.22064 10.658 3.60218 10.5 4 10.5H13ZM11 3.50001C11.3978 3.50001 11.7794 3.65805 12.0607 3.93935C12.342 4.22066 12.5 4.60219 12.5 5.00001C12.5 5.39784 12.342 5.77937 12.0607 6.06067C11.7794 6.34198 11.3978 6.50001 11 6.50001H4C3.60218 6.50001 3.22064 6.34198 2.93934 6.06067C2.65804 5.77937 2.5 5.39784 2.5 5.00001C2.5 4.60219 2.65804 4.22066 2.93934 3.93935C3.22064 3.65805 3.60218 3.50001 4 3.50001H11Z" fill="currentColor"/>
</svg>
