<svg width="24" height="24" viewBox="0 0 24 24" fill="none" xmlns="http://www.w3.org/2000/svg">
<path fill-rule="evenodd" clip-rule="evenodd" d="M9.5 4C9.5 3.60218 9.65804 3.22064 9.93934 2.93934C10.2206 2.65804 10.6022 2.5 11 2.5H14C14.3978 2.5 14.7794 2.65804 15.0607 2.93934C15.342 3.22064 15.5 3.60218 15.5 4C15.5 4.39782 15.342 4.77936 15.0607 5.06066C14.7794 5.34196 14.3978 5.5 14 5.5H11C10.6022 5.5 10.2206 5.34196 9.93934 5.06066C9.65804 4.77936 9.5 4.39782 9.5 4ZM9.5 8C9.5 7.60218 9.65804 7.22064 9.93934 6.93934C10.2206 6.65804 10.6022 6.5 11 6.5H14C14.3978 6.5 14.7794 6.65804 15.0607 6.93934C15.342 7.22064 15.5 7.60218 15.5 8C15.5 8.39782 15.342 8.77936 15.0607 9.06066C14.7794 9.34196 14.3978 9.5 14 9.5H11C10.6022 9.5 10.2206 9.34196 9.93934 9.06066C9.65804 8.77936 9.5 8.39782 9.5 8ZM16.5 8C16.5 7.60218 16.658 7.22064 16.9393 6.93934C17.2206 6.65804 17.6022 6.5 18 6.5H21C21.3978 6.5 21.7794 6.65804 22.0607 6.93934C22.342 7.22064 22.5 7.60218 22.5 8C22.5 8.39782 22.342 8.77936 22.0607 9.06066C21.7794 9.34196 21.3978 9.5 21 9.5H18C17.6022 9.5 17.2206 9.34196 16.9393 9.06066C16.658 8.77936 16.5 8.39782 16.5 8ZM2.5 12C2.5 11.6022 2.65804 11.2206 2.93934 10.9393C3.22064 10.658 3.60218 10.5 4 10.5H7C7.39782 10.5 7.77936 10.658 8.06066 10.9393C8.34196 11.2206 8.5 11.6022 8.5 12C8.5 12.3978 8.34196 12.7794 8.06066 13.0607C7.77936 13.342 7.39782 13.5 7 13.5H4C3.60218 13.5 3.22064 13.342 2.93934 13.0607C2.65804 12.7794 2.5 12.3978 2.5 12ZM9.5 12C9.5 11.6022 9.65804 11.2206 9.93934 10.9393C10.2206 10.658 10.6022 10.5 11 10.5H14C14.3978 10.5 14.7794 10.658 15.0607 10.9393C15.342 11.2206 15.5 11.6022 15.5 12C15.5 12.3978 15.342 12.7794 15.0607 13.0607C14.7794 13.342 14.3978 13.5 14 13.5H11C10.6022 13.5 10.2206 13.342 9.93934 13.0607C9.65804 12.7794 9.5 12.3978 9.5 12ZM16.5 12C16.5 11.6022 16.658 11.2206 16.9393 10.9393C17.2206 10.658 17.6022 10.5 18 10.5H21C21.3978 10.5 21.7794 10.658 22.0607 10.9393C22.342 11.2206 22.5 11.6022 22.5 12C22.5 12.3978 22.342 12.7794 22.0607 13.0607C21.7794 13.342 21.3978 13.5 21 13.5H18C17.6022 13.5 17.2206 13.342 16.9393 13.0607C16.658 12.7794 16.5 12.3978 16.5 12ZM2.5 16C2.5 15.6022 2.65804 15.2206 2.93934 14.9393C3.22064 14.658 3.60218 14.5 4 14.5H7C7.39782 14.5 7.77936 14.658 8.06066 14.9393C8.34196 15.2206 8.5 15.6022 8.5 16C8.5 16.3978 8.34196 16.7794 8.06066 17.0607C7.77936 17.342 7.39782 17.5 7 17.5H4C3.60218 17.5 3.22064 17.342 2.93934 17.0607C2.65804 16.7794 2.5 16.3978 2.5 16ZM9.5 16C9.5 15.6022 9.65804 15.2206 9.93934 14.9393C10.2206 14.658 10.6022 14.5 11 14.5H14C14.3978 14.5 14.7794 14.658 15.0607 14.9393C15.342 15.2206 15.5 15.6022 15.5 16C15.5 16.3978 15.342 16.7794 15.0607 17.0607C14.7794 17.342 14.3978 17.5 14 17.5H11C10.6022 17.5 10.2206 17.342 9.93934 17.0607C9.65804 16.7794 9.5 16.3978 9.5 16ZM16.5 16C16.5 15.6022 16.658 15.2206 16.9393 14.9393C17.2206 14.658 17.6022 14.5 18 14.5H21C21.3978 14.5 21.7794 14.658 22.0607 14.9393C22.342 15.2206 22.5 15.6022 22.5 16C22.5 16.3978 22.342 16.7794 22.0607 17.0607C21.7794 17.342 21.3978 17.5 21 17.5H18C17.6022 17.5 17.2206 17.342 16.9393 17.0607C16.658 16.7794 16.5 16.3978 16.5 16ZM2.5 20C2.5 19.6022 2.65804 19.2206 2.93934 18.9393C3.22064 18.658 3.60218 18.5 4 18.5H7C7.39782 18.5 7.77936 18.658 8.06066 18.9393C8.34196 19.2206 8.5 19.6022 8.5 20C8.5 20.3978 8.34196 20.7794 8.06066 21.0607C7.77936 21.342 7.39782 21.5 7 21.5H4C3.60218 21.5 3.22064 21.342 2.93934 21.0607C2.65804 20.7794 2.5 20.3978 2.5 20ZM9.5 20C9.5 19.6022 9.65804 19.2206 9.93934 18.9393C10.2206 18.658 10.6022 18.5 11 18.5H14C14.3978 18.5 14.7794 18.658 15.0607 18.9393C15.342 19.2206 15.5 19.6022 15.5 20C15.5 20.3978 15.342 20.7794 15.0607 21.0607C14.7794 21.342 14.3978 21.5 14 21.5H11C10.6022 21.5 10.2206 21.342 9.93934 21.0607C9.65804 20.7794 9.5 20.3978 9.5 20ZM16.5 20C16.5 19.6022 16.658 19.2206 16.9393 18.9393C17.2206 18.658 17.6022 18.5 18 18.5H21C21.3978 18.5 21.7794 18.658 22.0607 18.9393C22.342 19.2206 22.5 19.6022 22.5 20C22.5 20.3978 22.342 20.7794 22.0607 21.0607C21.7794 21.342 21.3978 21.5 21 21.5H18C17.6022 21.5 17.2206 21.342 16.9393 21.0607C16.658 20.7794 16.5 20.3978 16.5 20Z" fill="currentColor"/>
</svg>
