<svg width="24" height="24" viewBox="0 0 24 24" fill="none" xmlns="http://www.w3.org/2000/svg">
<path fill-rule="evenodd" clip-rule="evenodd" d="M10.0004 3C9.73521 3 9.48086 3.10536 9.29332 3.29289C9.10579 3.48043 9.00043 3.73478 9.00043 4C9.00043 4.26522 9.10579 4.51957 9.29332 4.70711C9.48086 4.89464 9.73521 5 10.0004 5H11.0004V6H10.0004C9.76243 6 9.52443 6.025 9.28743 6.055C8.87243 6.108 8.29743 6.213 7.63743 6.421C6.49729 6.77838 5.43498 7.34804 4.50643 8.1C4.47658 8.06562 4.44556 8.03226 4.41343 8L3.70643 7.293C3.51783 7.11084 3.26523 7.01005 3.00303 7.01233C2.74083 7.0146 2.49002 7.11977 2.30461 7.30518C2.1192 7.49059 2.01403 7.7414 2.01176 8.0036C2.00948 8.2658 2.11027 8.5184 2.29243 8.707L3.00043 9.414V16C3.00043 17.3261 3.52721 18.5979 4.4649 19.5355C5.40258 20.4732 6.67435 21 8.00043 21H16.0004C17.3265 21 18.5983 20.4732 19.536 19.5355C20.4736 18.5979 21.0004 17.3261 21.0004 16V9.414L21.7074 8.707C21.8896 8.5184 21.9904 8.2658 21.9881 8.0036C21.9858 7.7414 21.8807 7.49059 21.6952 7.30518C21.5098 7.11977 21.259 7.0146 20.9968 7.01233C20.7346 7.01005 20.482 7.11084 20.2934 7.293L19.5864 8C19.5547 8.03196 19.524 8.06498 19.4944 8.099C18.5661 7.34749 17.5042 6.77817 16.3644 6.421C15.826 6.25034 15.2735 6.12786 14.7134 6.055C14.4767 6.02569 14.2388 6.00733 14.0004 6H13.0004V5H14.0004C14.2656 5 14.52 4.89464 14.7075 4.70711C14.8951 4.51957 15.0004 4.26522 15.0004 4C15.0004 3.73478 14.8951 3.48043 14.7075 3.29289C14.52 3.10536 14.2656 3 14.0004 3H10.0004Z" fill="currentColor"/>
</svg>
