<svg width="24" height="24" viewBox="0 0 24 24" fill="none" xmlns="http://www.w3.org/2000/svg">
<path d="M6 2.5C6.66304 2.5 7.29893 2.76339 7.76777 3.23223C8.23661 3.70107 8.5 4.33696 8.5 5V19C8.5 19.663 8.23661 20.2989 7.76777 20.7678C7.29893 21.2366 6.66304 21.5 6 21.5H4C3.60218 21.5 3.22064 21.342 2.93934 21.0607C2.65804 20.7794 2.5 20.3978 2.5 20C2.5 19.6022 2.65804 19.2206 2.93934 18.9393C3.22064 18.658 3.60218 18.5 4 18.5H5.5V5.5H4C3.60218 5.5 3.22064 5.34196 2.93934 5.06066C2.65804 4.77936 2.5 4.39782 2.5 4C2.5 3.60218 2.65804 3.22064 2.93934 2.93934C3.22064 2.65804 3.60218 2.5 4 2.5H6ZM20 2.5C20.3852 2.50019 20.7556 2.64858 21.0344 2.91441C21.3132 3.18024 21.479 3.54314 21.4975 3.92791C21.516 4.31269 21.3858 4.68983 21.1338 4.9812C20.8818 5.27257 20.5274 5.45583 20.144 5.493L20 5.5H18.5V18.5H20C20.3852 18.5002 20.7556 18.6486 21.0344 18.9144C21.3132 19.1802 21.479 19.5431 21.4975 19.9279C21.516 20.3127 21.3858 20.6898 21.1338 20.9812C20.8818 21.2726 20.5274 21.4558 20.144 21.493L20 21.5H18C17.3653 21.5001 16.7543 21.2588 16.291 20.825C15.8276 20.3912 15.5466 19.7973 15.505 19.164L15.5 19V5C15.4999 4.36528 15.7412 3.75429 16.175 3.29095C16.6088 2.82762 17.2026 2.54664 17.836 2.505L18 2.5H20ZM12 6.5C12.3729 6.50002 12.7324 6.63892 13.0084 6.88962C13.2844 7.14032 13.4572 7.48484 13.493 7.856L13.5 8V16C13.4998 16.3852 13.3514 16.7556 13.0856 17.0344C12.8198 17.3132 12.4569 17.479 12.0721 17.4975C11.6873 17.516 11.3102 17.3858 11.0188 17.1338C10.7274 16.8818 10.5442 16.5274 10.507 16.144L10.5 16V8C10.5 7.60218 10.658 7.22064 10.9393 6.93934C11.2206 6.65804 11.6022 6.5 12 6.5Z" fill="currentColor"/>
</svg>
