<svg width="24" height="24" viewBox="0 0 24 24" fill="none" xmlns="http://www.w3.org/2000/svg">
<path fill-rule="evenodd" clip-rule="evenodd" d="M20 2.5C20.3978 2.5 20.7794 2.65804 21.0607 2.93934C21.342 3.22064 21.5 3.60218 21.5 4V6C21.5 6.66304 21.2366 7.29893 20.7678 7.76777C20.2989 8.23661 19.663 8.5 19 8.5H5C4.33696 8.5 3.70107 8.23661 3.23223 7.76777C2.76339 7.29893 2.5 6.66304 2.5 6V4C2.5 3.60218 2.65804 3.22064 2.93934 2.93934C3.22064 2.65804 3.60218 2.5 4 2.5C4.39782 2.5 4.77936 2.65804 5.06066 2.93934C5.34196 3.22064 5.5 3.60218 5.5 4V5.5H18.5V4C18.5 3.60218 18.658 3.22064 18.9393 2.93934C19.2206 2.65804 19.6022 2.5 20 2.5ZM20 21.5C20.3978 21.5 20.7794 21.342 21.0607 21.0607C21.342 20.7794 21.5 20.3978 21.5 20V18C21.5 17.337 21.2366 16.7011 20.7678 16.2322C20.2989 15.7634 19.663 15.5 19 15.5H5C4.33696 15.5 3.70107 15.7634 3.23223 16.2322C2.76339 16.7011 2.5 17.337 2.5 18V20C2.5 20.3978 2.65804 20.7794 2.93934 21.0607C3.22064 21.342 3.60218 21.5 4 21.5C4.39782 21.5 4.77936 21.342 5.06066 21.0607C5.34196 20.7794 5.5 20.3978 5.5 20V18.5H18.5V20C18.5 20.3978 18.658 20.7794 18.9393 21.0607C19.2206 21.342 19.6022 21.5 20 21.5ZM16 13.5C16.3978 13.5 16.7794 13.342 17.0607 13.0607C17.342 12.7794 17.5 12.3978 17.5 12C17.5 11.6022 17.342 11.2206 17.0607 10.9393C16.7794 10.658 16.3978 10.5 16 10.5H8C7.60218 10.5 7.22064 10.658 6.93934 10.9393C6.65804 11.2206 6.5 11.6022 6.5 12C6.5 12.3978 6.65804 12.7794 6.93934 13.0607C7.22064 13.342 7.60218 13.5 8 13.5H16Z" fill="currentColor"/>
</svg>
