<svg width="24" height="24" viewBox="0 0 24 24" fill="none" xmlns="http://www.w3.org/2000/svg">
<path fill-rule="evenodd" clip-rule="evenodd" d="M9.83588 18.89C8.44588 19.19 7.04088 18.865 5.88188 18.104C4.14388 16.963 2.94588 14.851 3.00188 12.403C3.07588 9.16999 5.61988 6.34299 9.88988 3.85999C10.2869 3.62899 10.5589 3.44999 10.7809 3.30299C11.1529 3.05699 11.5349 2.80499 11.9999 2.80499C12.4639 2.80499 12.8469 3.05699 13.2189 3.30299C13.4409 3.44899 13.7129 3.62899 14.1099 3.85999C18.3799 6.34099 20.9239 9.16999 20.9979 12.402C21.0539 14.85 19.8559 16.962 18.1179 18.102C16.9579 18.864 15.5549 19.188 14.1639 18.888C14.3699 19.507 14.6009 20.058 14.8579 20.484C14.9493 20.6358 14.9988 20.8092 15.0012 20.9864C15.0036 21.1636 14.9589 21.3383 14.8716 21.4925C14.7843 21.6468 14.6576 21.7751 14.5044 21.8642C14.3512 21.9534 14.1771 22.0002 13.9999 22H9.99988C9.82289 22 9.64907 21.9529 9.49619 21.8638C9.3433 21.7746 9.21683 21.6464 9.12968 21.4924C9.04254 21.3383 8.99784 21.1639 9.00016 20.9869C9.00248 20.8099 9.05173 20.6367 9.14288 20.485C9.39888 20.058 9.62988 19.509 9.83588 18.89Z" fill="currentColor"/>
</svg>
