<svg width="24" height="24" viewBox="0 0 24 24" fill="none" xmlns="http://www.w3.org/2000/svg">
<path d="M6.1737 13.004L6.3437 13.375C7.07116 14.8797 8.21689 16.1427 9.6437 17.013L9.9087 17.168C9.93681 17.1837 9.96022 17.2067 9.97651 17.2344C9.99281 17.2622 10.0014 17.2938 10.0014 17.326C10.0014 17.3582 9.99281 17.3898 9.97651 17.4176C9.96022 17.4454 9.93681 17.4683 9.9087 17.484C8.36083 18.3545 7.11671 19.6782 6.3437 21.277L6.1737 21.649C6.15861 21.6822 6.13427 21.7104 6.10359 21.7302C6.07291 21.75 6.03719 21.7605 6.0007 21.7605C5.96421 21.7605 5.92848 21.75 5.89781 21.7302C5.86713 21.7104 5.84279 21.6822 5.8277 21.649L5.6577 21.277C4.88469 19.6782 3.64057 18.3545 2.0927 17.484C2.06459 17.4683 2.04118 17.4454 2.02489 17.4176C2.00859 17.3898 2 17.3582 2 17.326C2 17.2938 2.00859 17.2622 2.02489 17.2344C2.04118 17.2067 2.06459 17.1837 2.0927 17.168L2.3577 17.013C3.78451 16.1427 4.93024 14.8797 5.6577 13.375L5.8277 13.004C5.84279 12.9708 5.86713 12.9426 5.89781 12.9228C5.92848 12.9031 5.96421 12.8926 6.0007 12.8926C6.03719 12.8926 6.07291 12.9031 6.10359 12.9228C6.13427 12.9426 6.15861 12.9708 6.1737 13.004ZM15.0787 2.73002C16.3949 5.81313 18.6926 8.37516 21.6147 10.018C21.6638 10.0456 21.7047 10.0857 21.7332 10.1343C21.7617 10.1829 21.7767 10.2382 21.7767 10.2945C21.7767 10.3508 21.7617 10.4061 21.7332 10.4547C21.7047 10.5033 21.6638 10.5435 21.6147 10.571C18.6923 12.2141 16.3946 14.7765 15.0787 17.86C15.0527 17.9185 15.0103 17.9683 14.9566 18.0032C14.9029 18.0381 14.8402 18.0566 14.7762 18.0566C14.7122 18.0566 14.6495 18.0381 14.5958 18.0032C14.5421 17.9683 14.4997 17.9185 14.4737 17.86C13.1578 14.7765 10.8601 12.2141 7.9377 10.571C7.88857 10.5435 7.84767 10.5033 7.81921 10.4547C7.79074 10.4061 7.77574 10.3508 7.77574 10.2945C7.77574 10.2382 7.79074 10.1829 7.81921 10.1343C7.84767 10.0857 7.88857 10.0456 7.9377 10.018C10.8598 8.37516 13.1575 5.81313 14.4737 2.73002C14.4997 2.67149 14.5421 2.62177 14.5958 2.58686C14.6495 2.55196 14.7122 2.53339 14.7762 2.53339C14.8402 2.53339 14.9029 2.55196 14.9566 2.58686C15.0103 2.62177 15.0527 2.67149 15.0787 2.73002Z" fill="currentColor"/>
</svg>
