<svg width="24" height="24" viewBox="0 0 24 24" fill="none" xmlns="http://www.w3.org/2000/svg">
<path d="M12 19.5C12.2652 19.5 12.5196 19.6054 12.7071 19.7929C12.8946 19.9804 13 20.2348 13 20.5V21C13 21.2652 12.8946 21.5196 12.7071 21.7071C12.5196 21.8946 12.2652 22 12 22C11.7348 22 11.4804 21.8946 11.2929 21.7071C11.1054 21.5196 11 21.2652 11 21V20.5C11 20.2348 11.1054 19.9804 11.2929 19.7929C11.4804 19.6054 11.7348 19.5 12 19.5ZM17.657 16.243L19.778 18.364C19.8709 18.4568 19.9446 18.5671 19.9949 18.6884C20.0452 18.8097 20.0712 18.9398 20.0712 19.0711C20.0712 19.2025 20.0454 19.3326 19.9952 19.4539C19.945 19.5753 19.8713 19.6856 19.7785 19.7785C19.6857 19.8714 19.5754 19.9451 19.4541 19.9954C19.3328 20.0457 19.2027 20.0717 19.0714 20.0717C18.94 20.0717 18.8099 20.0459 18.6886 19.9957C18.5672 19.9455 18.4569 19.8718 18.364 19.779L16.243 17.657C16.1475 17.5648 16.0713 17.4544 16.0189 17.3324C15.9665 17.2104 15.9389 17.0792 15.9377 16.9464C15.9366 16.8136 15.9619 16.6819 16.0122 16.559C16.0625 16.4361 16.1367 16.3245 16.2306 16.2306C16.3245 16.1367 16.4361 16.0625 16.559 16.0122C16.6819 15.9619 16.8136 15.9366 16.9464 15.9377C17.0792 15.9389 17.2104 15.9665 17.3324 16.0189C17.4544 16.0713 17.5648 16.1475 17.657 16.243ZM7.757 16.243C7.94447 16.4305 8.04979 16.6848 8.04979 16.95C8.04979 17.2152 7.94447 17.4695 7.757 17.657L5.637 19.777C5.44853 19.9593 5.196 20.0603 4.93379 20.0582C4.67159 20.0561 4.4207 19.9511 4.23516 19.7658C4.04962 19.5805 3.94428 19.3298 3.94181 19.0676C3.93935 18.8054 4.03997 18.5527 4.222 18.364L6.343 16.242C6.53053 16.0545 6.78484 15.9492 7.05 15.9492C7.31516 15.9492 7.56947 16.0555 7.757 16.243ZM12.004 5.47C12.2114 5.47 12.4137 5.53448 12.5828 5.65452C12.7519 5.77456 12.8796 5.94422 12.948 6.14C13.3463 7.27674 13.9953 8.30924 14.847 9.16095C15.6988 10.0127 16.7313 10.6617 17.868 11.06C18.0638 11.1284 18.2335 11.2561 18.3535 11.4252C18.4736 11.5943 18.5381 11.7966 18.5381 12.004C18.5381 12.2114 18.4736 12.4137 18.3535 12.5828C18.2335 12.7519 18.0638 12.8796 17.868 12.948C16.7313 13.3463 15.6988 13.9953 14.847 14.847C13.9953 15.6988 13.3463 16.7313 12.948 17.868C12.8796 18.0638 12.7519 18.2335 12.5828 18.3535C12.4137 18.4736 12.2114 18.5381 12.004 18.5381C11.7966 18.5381 11.5943 18.4736 11.4252 18.3535C11.2561 18.2335 11.1284 18.0638 11.06 17.868C10.6617 16.7313 10.0127 15.6988 9.16095 14.847C8.30924 13.9953 7.27674 13.3463 6.14 12.948C5.94421 12.8796 5.77454 12.7519 5.65449 12.5828C5.53444 12.4137 5.46995 12.2114 5.46995 12.004C5.46995 11.7966 5.53444 11.5943 5.65449 11.4252C5.77454 11.2561 5.94421 11.1284 6.14 11.06C7.27678 10.6618 8.30931 10.0127 9.16103 9.16103C10.0127 8.30931 10.6618 7.27678 11.06 6.14C11.1284 5.94422 11.2561 5.77456 11.4252 5.65452C11.5943 5.53448 11.7966 5.47 12.004 5.47ZM21 11C21.2652 11 21.5196 11.1054 21.7071 11.2929C21.8946 11.4804 22 11.7348 22 12C22 12.2652 21.8946 12.5196 21.7071 12.7071C21.5196 12.8946 21.2652 13 21 13H20.5C20.2348 13 19.9804 12.8946 19.7929 12.7071C19.6054 12.5196 19.5 12.2652 19.5 12C19.5 11.7348 19.6054 11.4804 19.7929 11.2929C19.9804 11.1054 20.2348 11 20.5 11H21ZM3.5 11C3.76522 11 4.01957 11.1054 4.20711 11.2929C4.39464 11.4804 4.5 11.7348 4.5 12C4.5 12.2652 4.39464 12.5196 4.20711 12.7071C4.01957 12.8946 3.76522 13 3.5 13H3C2.73478 13 2.48043 12.8946 2.29289 12.7071C2.10536 12.5196 2 12.2652 2 12C2 11.7348 2.10536 11.4804 2.29289 11.2929C2.48043 11.1054 2.73478 11 3 11H3.5ZM19.778 4.222C19.9503 4.39407 20.0539 4.6231 20.0694 4.86613C20.0849 5.10916 20.0111 5.34948 19.862 5.542L19.778 5.636L17.658 7.757C17.4785 7.93825 17.2364 8.04403 16.9815 8.05268C16.7265 8.06133 16.4778 7.9722 16.2864 7.80353C16.095 7.63487 15.9753 7.39942 15.9518 7.14538C15.9283 6.89134 16.0028 6.63792 16.16 6.437L16.243 6.343L18.364 4.222C18.5515 4.03453 18.8058 3.92921 19.071 3.92921C19.3362 3.92921 19.5905 4.03453 19.778 4.222ZM5.542 4.138L5.636 4.222L7.757 6.342C7.93825 6.52154 8.04403 6.76357 8.05268 7.01855C8.06133 7.27352 7.9722 7.52217 7.80353 7.71358C7.63487 7.90499 7.39942 8.0247 7.14538 8.0482C6.89134 8.0717 6.63792 7.99722 6.437 7.84L6.343 7.757L4.222 5.636C4.04943 5.46374 3.94575 5.23436 3.93046 4.991C3.91517 4.74765 3.98931 4.5071 4.13895 4.31458C4.28859 4.12207 4.50341 3.99086 4.74301 3.94563C4.98261 3.9004 5.23048 3.94428 5.44 4.069L5.542 4.138ZM12 2C12.2449 2.00003 12.4813 2.08996 12.6644 2.25272C12.8474 2.41547 12.9643 2.63975 12.993 2.883L13 3V3.5C12.9997 3.75488 12.9021 4.00003 12.7272 4.18537C12.5522 4.3707 12.313 4.48223 12.0586 4.49717C11.8042 4.51211 11.5536 4.42933 11.3582 4.26574C11.1627 4.10214 11.0371 3.8701 11.007 3.617L11 3.5V3C11 2.73478 11.1054 2.48043 11.2929 2.29289C11.4804 2.10536 11.7348 2 12 2Z" fill="currentColor"/>
</svg>
