<svg width="24" height="24" viewBox="0 0 24 24" fill="none" xmlns="http://www.w3.org/2000/svg">
<path d="M13.9992 6.24C14.3342 6.24 14.5872 6.381 14.7762 6.582C15.0812 6.906 15.2102 7.383 15.4002 7.778C16.3742 9.80617 17.9118 11.5108 19.8292 12.688L20.2632 12.945C20.6562 13.184 20.9982 13.463 20.9992 13.998C21.0002 14.73 20.3632 14.984 19.8292 15.311C17.9118 16.4882 16.3742 18.1929 15.4002 20.221C15.2102 20.617 15.0802 21.094 14.7762 21.418C14.5882 21.619 14.3342 21.76 13.9992 21.76C13.6642 21.76 13.4102 21.619 13.2222 21.418C13.0462 21.231 12.9302 20.996 12.8272 20.756L12.6772 20.396C12.6521 20.3374 12.6258 20.2794 12.5982 20.222C11.6242 18.1938 10.0865 16.4892 8.16918 15.312L7.84818 15.121C7.41517 14.861 6.99818 14.565 6.99918 13.998C7.00117 13.268 7.63618 13.016 8.16918 12.689C10.0865 11.5118 11.6242 9.80717 12.5982 7.779C12.7882 7.383 12.9182 6.906 13.2222 6.582C13.4102 6.382 13.6642 6.24 13.9992 6.24ZM6.74618 5.825C6.89518 6.008 6.98417 6.215 7.08617 6.426C7.36018 6.996 7.77418 7.486 8.28718 7.848L8.48518 7.978C9.34118 8.503 9.37318 9.388 8.60518 9.942L8.48518 10.022C7.87905 10.394 7.39298 10.9329 7.08518 11.574L6.97118 11.816C6.87418 12.016 6.76118 12.207 6.56518 12.334C6.25017 12.536 5.74818 12.536 5.43318 12.334C5.16818 12.164 5.04318 11.846 4.91318 11.574C4.60532 10.9329 4.11927 10.3941 3.51318 10.022C3.33518 9.912 3.16518 9.809 3.01818 9.655C2.87445 9.46646 2.79669 9.2359 2.79688 8.99883C2.79706 8.76176 2.87517 8.53132 3.01918 8.343C3.16918 8.187 3.32918 8.091 3.51418 7.978C4.11993 7.60582 4.60564 7.067 4.91318 6.426C5.01718 6.21 5.10018 6.012 5.25318 5.826C5.45308 5.63168 5.72089 5.52297 5.99968 5.52297C6.27846 5.52297 6.54627 5.63168 6.74618 5.826V5.825ZM9.99918 2C10.2644 2 10.5187 2.10536 10.7063 2.29289C10.8938 2.48043 10.9992 2.73478 10.9992 3C11.2644 3 11.5187 3.10536 11.7063 3.29289C11.8938 3.48043 11.9992 3.73478 11.9992 4C11.9992 4.26522 11.8938 4.51957 11.7063 4.70711C11.5187 4.89464 11.2644 5 10.9992 5C10.9992 5.26522 10.8938 5.51957 10.7063 5.70711C10.5187 5.89464 10.2644 6 9.99918 6C9.73396 6 9.4796 5.89464 9.29207 5.70711C9.10453 5.51957 8.99918 5.26522 8.99918 5C8.73396 5 8.4796 4.89464 8.29207 4.70711C8.10453 4.51957 7.99918 4.26522 7.99918 4C7.99918 3.73478 8.10453 3.48043 8.29207 3.29289C8.4796 3.10536 8.73396 3 8.99918 3C8.99918 2.73478 9.10453 2.48043 9.29207 2.29289C9.4796 2.10536 9.73396 2 9.99918 2Z" fill="currentColor"/>
</svg>
