<svg width="24" height="24" viewBox="0 0 24 24" fill="none" xmlns="http://www.w3.org/2000/svg">
<path d="M12 9C13.753 9 15.341 9.62 16.548 10.499C17.055 10.868 17.513 11.297 17.893 11.764L18.076 12H5.92395C6.35405 11.4249 6.86931 10.9188 7.45195 10.499C8.65895 9.62 10.247 9 12 9ZM12 3C12.7956 3 13.5587 3.31607 14.1213 3.87868C14.6839 4.44129 15 5.20435 15 6C15 6.79565 14.6839 7.55871 14.1213 8.12132C13.5587 8.68393 12.7956 9 12 9C11.2043 9 10.4412 8.68393 9.87863 8.12132C9.31602 7.55871 8.99995 6.79565 8.99995 6C8.99995 5.20435 9.31602 4.44129 9.87863 3.87868C10.4412 3.31607 11.2043 3 12 3ZM2.99995 13C2.82956 13.0001 2.66202 13.0437 2.51323 13.1267C2.36443 13.2098 2.23932 13.3294 2.14976 13.4744C2.0602 13.6194 2.00917 13.7848 2.0015 13.955C1.99383 14.1252 2.02979 14.2946 2.10595 14.447L5.10595 20.447C5.18895 20.6131 5.31653 20.7528 5.47443 20.8504C5.63232 20.9481 5.81429 20.9999 5.99995 21H18C18.1856 20.9999 18.3676 20.9481 18.5255 20.8504C18.6834 20.7528 18.811 20.6131 18.894 20.447L21.894 14.447C21.9701 14.2946 22.0061 14.1252 21.9984 13.955C21.9907 13.7848 21.9397 13.6194 21.8501 13.4744C21.7606 13.3294 21.6355 13.2098 21.4867 13.1267C21.3379 13.0437 21.1703 13.0001 21 13H2.99995Z" fill="currentColor"/>
</svg>
