<svg width="24" height="24" viewBox="0 0 24 24" fill="none" xmlns="http://www.w3.org/2000/svg">
<path fill-rule="evenodd" clip-rule="evenodd" d="M12.0301 13.739L4.42206 7.705C4.16367 7.50033 3.9515 7.24332 3.79949 6.95083C3.64747 6.65835 3.55905 6.33703 3.54003 6.00795C3.521 5.67887 3.57181 5.34949 3.68911 5.04144C3.80641 4.73339 3.98754 4.45364 4.22062 4.22056C4.4537 3.98748 4.73346 3.80635 5.04151 3.68905C5.34955 3.57175 5.67893 3.52094 6.00801 3.53997C6.33709 3.55899 6.65842 3.64741 6.9509 3.79943C7.24338 3.95144 7.50039 4.16361 7.70506 4.422L13.7391 12.03C15.0461 11.459 17.0391 11.382 18.7181 13.06C19.7331 14.076 20.3651 15.318 20.5811 16.5C20.7911 17.65 20.6301 18.926 19.7781 19.778C18.9271 20.63 17.6501 20.791 16.5011 20.581C15.3191 20.365 14.0761 19.733 13.0611 18.717C11.3811 17.038 11.4591 15.046 12.0301 13.739Z" fill="currentColor"/>
</svg>
