<svg width="24" height="24" viewBox="0 0 24 24" fill="none" xmlns="http://www.w3.org/2000/svg">
<path fill-rule="evenodd" clip-rule="evenodd" d="M12 2C6.477 2 2 6.477 2 12C2 17.523 6.477 22 12 22C17.523 22 22 17.523 22 12C22 6.477 17.523 2 12 2ZM7.269 10.44C10.509 9.536 13.774 9.991 16.603 11.214C16.846 11.3167 17.1198 11.3191 17.3646 11.2209C17.6095 11.1226 17.8056 10.9316 17.9102 10.6893C18.0148 10.4471 18.0195 10.1734 17.9232 9.92778C17.8268 9.68216 17.6374 9.48454 17.396 9.378C14.226 8.008 10.49 7.465 6.731 8.514C6.4795 8.58873 6.26744 8.75931 6.14055 8.98896C6.01366 9.2186 5.98211 9.48892 6.0527 9.74162C6.12328 9.99431 6.29035 10.2091 6.51789 10.3398C6.74542 10.4704 7.01518 10.5064 7.269 10.44ZM7.745 13.306C10.533 12.529 13.741 13.015 15.525 14.11C15.637 14.1787 15.7613 14.2246 15.891 14.2453C16.0208 14.2659 16.1533 14.2607 16.281 14.2301C16.4087 14.1995 16.5292 14.1441 16.6355 14.0669C16.7418 13.9898 16.8318 13.8925 16.9005 13.7805C16.9692 13.6685 17.0151 13.5442 17.0358 13.4145C17.0564 13.2847 17.0512 13.1522 17.0206 13.0245C16.99 12.8968 16.9346 12.7763 16.8574 12.67C16.7803 12.5637 16.683 12.4737 16.571 12.405C14.259 10.985 10.467 10.471 7.208 11.38C6.9581 11.456 6.74783 11.6267 6.62218 11.8557C6.49652 12.0847 6.46545 12.3537 6.5356 12.6053C6.60575 12.8569 6.77156 13.0711 6.99756 13.202C7.22357 13.333 7.49184 13.3703 7.745 13.306ZM8.176 16.06C9.306 15.8 10.563 15.797 11.668 15.969C12.808 16.145 13.63 16.483 13.986 16.775C14.1915 16.9429 14.4554 17.0222 14.7194 16.9956C14.9835 16.969 15.2261 16.8385 15.394 16.633C15.5619 16.4275 15.6412 16.1636 15.6146 15.8996C15.588 15.6355 15.4575 15.3929 15.252 15.225C14.489 14.602 13.252 14.19 11.975 13.992C10.663 13.789 9.146 13.785 7.728 14.112C7.5963 14.1376 7.4711 14.1895 7.35985 14.2645C7.24861 14.3395 7.15361 14.4362 7.08049 14.5487C7.00738 14.6612 6.95765 14.7872 6.93427 14.9194C6.9109 15.0515 6.91435 15.187 6.94442 15.3177C6.97449 15.4485 7.03057 15.5719 7.10932 15.6805C7.18806 15.7891 7.28787 15.8808 7.40278 15.9501C7.5177 16.0193 7.64538 16.0648 7.77822 16.0836C7.91105 16.1025 8.04633 16.0945 8.176 16.06Z" fill="currentColor"/>
</svg>
