<svg width="24" height="24" viewBox="0 0 24 24" fill="none" xmlns="http://www.w3.org/2000/svg">
<path fill-rule="evenodd" clip-rule="evenodd" d="M6 3C5.20435 3 4.44129 3.31607 3.87868 3.87868C3.31607 4.44129 3 5.20435 3 6V18C3 18.7956 3.31607 19.5587 3.87868 20.1213C4.44129 20.6839 5.20435 21 6 21H18C18.7956 21 19.5587 20.6839 20.1213 20.1213C20.6839 19.5587 21 18.7956 21 18V6C21 5.20435 20.6839 4.44129 20.1213 3.87868C19.5587 3.31607 18.7956 3 18 3H6ZM13.707 9.879L11.586 12L13.707 14.121C13.7999 14.2138 13.8736 14.3241 13.9239 14.4454C13.9742 14.5667 14.0002 14.6968 14.0002 14.8281C14.0002 14.9595 13.9744 15.0896 13.9242 15.2109C13.874 15.3323 13.8003 15.4426 13.7075 15.5355C13.6147 15.6284 13.5044 15.7021 13.3831 15.7524C13.2618 15.8027 13.1317 15.8287 13.0004 15.8287C12.869 15.8287 12.7389 15.8029 12.6176 15.7527C12.4962 15.7025 12.3859 15.6288 12.293 15.536L9.464 12.707C9.27653 12.5195 9.17121 12.2652 9.17121 12C9.17121 11.7348 9.27653 11.4805 9.464 11.293L12.293 8.464C12.3859 8.37116 12.4962 8.29752 12.6176 8.2473C12.7389 8.19708 12.869 8.17125 13.0004 8.1713C13.1317 8.17134 13.2618 8.19726 13.3831 8.24757C13.5044 8.29788 13.6147 8.37159 13.7075 8.4645C13.8003 8.55741 13.874 8.6677 13.9242 8.78907C13.9744 8.91043 14.0002 9.04051 14.0002 9.17185C14.0002 9.3032 13.9742 9.43326 13.9239 9.55459C13.8736 9.67592 13.7999 9.78616 13.707 9.879Z" fill="currentColor"/>
</svg>
