<svg width="24" height="24" viewBox="0 0 24 24" fill="none" xmlns="http://www.w3.org/2000/svg">
<path fill-rule="evenodd" clip-rule="evenodd" d="M6 3C5.20435 3 4.44129 3.31607 3.87868 3.87868C3.31607 4.44129 3 5.20435 3 6V18C3 18.7956 3.31607 19.5587 3.87868 20.1213C4.44129 20.6839 5.20435 21 6 21H18C18.7956 21 19.5587 20.6839 20.1213 20.1213C20.6839 19.5587 21 18.7956 21 18V6C21 5.20435 20.6839 4.44129 20.1213 3.87868C19.5587 3.31607 18.7956 3 18 3H6ZM9.879 10.293L12 12.414L14.121 10.293C14.3085 10.1054 14.5629 9.99989 14.8281 9.9998C15.0934 9.9997 15.3479 10.105 15.5355 10.2925C15.7231 10.48 15.8286 10.7344 15.8287 10.9996C15.8288 11.2649 15.7235 11.5194 15.536 11.707L12.707 14.536C12.5195 14.7235 12.2652 14.8288 12 14.8288C11.7348 14.8288 11.4805 14.7235 11.293 14.536L8.464 11.707C8.37116 11.6141 8.29752 11.5038 8.2473 11.3824C8.19708 11.2611 8.17125 11.131 8.1713 10.9996C8.17134 10.8683 8.19726 10.7382 8.24757 10.6169C8.29788 10.4956 8.37159 10.3853 8.4645 10.2925C8.55741 10.1997 8.6677 10.126 8.78907 10.0758C8.91043 10.0256 9.04051 9.99975 9.17185 9.9998C9.3032 9.99984 9.43326 10.0258 9.55459 10.0761C9.67592 10.1264 9.78616 10.2001 9.879 10.293Z" fill="currentColor"/>
</svg>
