<svg width="24" height="24" viewBox="0 0 24 24" fill="none" xmlns="http://www.w3.org/2000/svg">
<path fill-rule="evenodd" clip-rule="evenodd" d="M12.8636 1.497C12.7756 1.34592 12.6495 1.22058 12.4979 1.13346C12.3463 1.04634 12.1745 1.00049 11.9996 1.00049C11.8248 1.00049 11.653 1.04634 11.5014 1.13346C11.3498 1.22058 11.2237 1.34592 11.1356 1.497L9.09464 5L5.12964 5.86C4.95883 5.89708 4.80073 5.97828 4.67109 6.09551C4.54144 6.21274 4.44479 6.36191 4.39077 6.52813C4.33674 6.69436 4.32723 6.87184 4.36317 7.04289C4.39912 7.21394 4.47927 7.37258 4.59564 7.503L7.29764 10.527L6.88964 14.562C6.872 14.736 6.9003 14.9116 6.97172 15.0712C7.04314 15.2308 7.15517 15.369 7.29664 15.4718C7.43811 15.5746 7.60407 15.6385 7.77796 15.6571C7.95185 15.6758 8.12759 15.6485 8.28764 15.578L9.32964 15.119L8.02464 20.775C7.99077 20.9216 7.99045 21.074 8.02368 21.2208C8.05691 21.3676 8.12285 21.505 8.21657 21.6227C8.31029 21.7405 8.42939 21.8356 8.56497 21.9009C8.70056 21.9662 8.84914 22.0001 8.99964 22H14.9996C15.1501 21.9999 15.2985 21.966 15.434 21.9006C15.5694 21.8352 15.6884 21.7401 15.782 21.6224C15.8756 21.5046 15.9415 21.3673 15.9746 21.2206C16.0078 21.0739 16.0075 20.9216 15.9736 20.775L14.6696 15.12L15.7116 15.58C15.8718 15.6506 16.0476 15.6779 16.2216 15.6592C16.3956 15.6405 16.5616 15.5765 16.7031 15.4735C16.8446 15.3706 16.9566 15.2323 17.028 15.0726C17.0993 14.9128 17.1275 14.7371 17.1096 14.563L16.7016 10.528L19.4036 7.504C19.52 7.37358 19.6002 7.21494 19.6361 7.04389C19.672 6.87284 19.6625 6.69536 19.6085 6.52913C19.5545 6.36291 19.4578 6.21374 19.3282 6.09651C19.1985 5.97928 19.0404 5.89808 18.8696 5.861L14.9046 5L12.8636 1.497ZM11.6156 14.112L11.9996 13.942L12.3836 14.112L13.7426 20H10.2566L11.6156 14.112Z" fill="currentColor"/>
</svg>
