<svg width="24" height="24" viewBox="0 0 24 24" fill="none" xmlns="http://www.w3.org/2000/svg">
<path fill-rule="evenodd" clip-rule="evenodd" d="M13.0805 2.86801C12.9704 2.67917 12.8128 2.52248 12.6233 2.41358C12.4338 2.30468 12.219 2.24738 12.0005 2.24738C11.7819 2.24738 11.5671 2.30468 11.3776 2.41358C11.1881 2.52248 11.0305 2.67917 10.9205 2.86801L8.12646 7.66501L2.69746 8.84201C2.48394 8.88841 2.28632 8.98996 2.12429 9.13654C1.96226 9.28313 1.84149 9.46962 1.774 9.67743C1.70652 9.88525 1.69469 10.1071 1.73969 10.3209C1.78468 10.5347 1.88494 10.733 2.03046 10.896L5.73046 15.037L5.17046 20.562C5.14837 20.7796 5.18373 20.9991 5.27303 21.1987C5.36232 21.3983 5.50242 21.571 5.67933 21.6996C5.85624 21.8281 6.06378 21.908 6.28121 21.9312C6.49865 21.9545 6.71838 21.9203 6.91846 21.832L12.0005 19.592L17.0825 21.832C17.2825 21.9203 17.5023 21.9545 17.7197 21.9312C17.9371 21.908 18.1447 21.8281 18.3216 21.6996C18.4985 21.571 18.6386 21.3983 18.7279 21.1987C18.8172 20.9991 18.8526 20.7796 18.8305 20.562L18.2705 15.037L21.9705 10.897C22.1162 10.734 22.2167 10.5357 22.2618 10.3217C22.307 10.1078 22.2952 9.88574 22.2277 9.67777C22.1602 9.46979 22.0393 9.28316 21.8772 9.13651C21.715 8.98986 21.5172 8.88831 21.3035 8.84201L15.8755 7.66601L13.0805 2.86801ZM12.0005 17.523C12.1725 17.523 12.3445 17.558 12.5045 17.629L16.7105 19.483L16.2475 14.91C16.23 14.7373 16.2487 14.5628 16.3025 14.3976C16.3562 14.2325 16.4437 14.0804 16.5595 13.951L19.6215 10.524L15.1295 9.55101C14.9598 9.51439 14.7996 9.44285 14.6591 9.34092C14.5186 9.239 14.4009 9.10893 14.3135 8.95901L12.0005 4.98701V17.523Z" fill="currentColor"/>
</svg>
