<svg width="24" height="24" viewBox="0 0 24 24" fill="none" xmlns="http://www.w3.org/2000/svg">
<path d="M10.9202 2.86801C11.0303 2.67917 11.1879 2.52248 11.3774 2.41358C11.5669 2.30468 11.7817 2.24738 12.0002 2.24738C12.2188 2.24738 12.4335 2.30468 12.623 2.41358C12.8125 2.52248 12.9702 2.67917 13.0802 2.86801L15.8752 7.66601L21.3032 8.84201C21.5167 8.88841 21.7144 8.98996 21.8764 9.13654C22.0384 9.28313 22.1592 9.46962 22.2267 9.67743C22.2942 9.88525 22.306 10.1071 22.261 10.3209C22.216 10.5347 22.1157 10.733 21.9702 10.896L18.2702 15.037L18.8302 20.562C18.8523 20.7796 18.817 20.9991 18.7277 21.1987C18.6384 21.3983 18.4983 21.571 18.3214 21.6996C18.1444 21.8281 17.9369 21.908 17.7195 21.9312C17.502 21.9545 17.2823 21.9203 17.0822 21.832L12.0002 19.592L6.91823 21.832C6.71815 21.9203 6.49842 21.9545 6.28098 21.9312C6.06355 21.908 5.85601 21.8281 5.6791 21.6996C5.50219 21.571 5.36209 21.3983 5.2728 21.1987C5.1835 20.9991 5.14814 20.7796 5.17023 20.562L5.73023 15.037L2.03023 10.897C1.88446 10.734 1.78398 10.5357 1.73884 10.3217C1.6937 10.1078 1.70547 9.88574 1.77297 9.67777C1.84048 9.46979 1.96135 9.28316 2.12354 9.13651C2.28572 8.98986 2.48353 8.88831 2.69723 8.84201L8.12523 7.66601L10.9202 2.86801Z" fill="currentColor"/>
</svg>
