<svg width="24" height="24" viewBox="0 0 24 24" fill="none" xmlns="http://www.w3.org/2000/svg">
<path d="M12.6329 2.10801C13.4229 2.04801 14.0829 2.49701 14.4159 3.09801L15.6359 5.30801C17.3779 5.19601 18.7179 5.84001 19.6839 6.70601C20.7429 7.65601 21.3359 8.85001 21.6139 9.53001C21.9139 10.263 21.6919 11.03 21.2239 11.532L19.4979 13.376C20.1439 14.998 19.9449 16.471 19.4199 17.658C18.8439 18.958 17.8909 19.891 17.3299 20.366C16.7259 20.878 15.9279 20.904 15.3059 20.613L13.0189 19.542C11.6759 20.657 10.2129 20.923 8.92287 20.79C7.50787 20.645 6.32587 20.027 5.70087 19.64C5.02687 19.223 4.75587 18.472 4.84087 17.791L5.15287 15.285C3.67687 14.352 2.97187 13.043 2.69887 11.775C2.40087 10.385 2.62287 9.07001 2.79787 8.35501C2.98587 7.58601 3.61587 7.09501 4.28987 6.96601L6.76987 6.48801C7.20087 4.79701 8.22787 3.72101 9.34987 3.07101C10.5799 2.35701 11.8999 2.16201 12.6329 2.10801Z" fill="currentColor"/>
</svg>
