<svg width="24" height="24" viewBox="0 0 24 24" fill="none" xmlns="http://www.w3.org/2000/svg">
<path fill-rule="evenodd" clip-rule="evenodd" d="M8.99996 2.5C8.99996 2.76522 8.8946 3.01957 8.70706 3.20711C8.51953 3.39464 8.26517 3.5 7.99996 3.5C7.73474 3.5 7.48039 3.39464 7.29285 3.20711C7.10531 3.01957 6.99996 2.76522 6.99996 2.5C6.99996 1.948 7.84396 0.5 7.99996 0.5C8.15596 0.5 8.99996 1.948 8.99996 2.5ZM13 4.5C13 4.517 13 4.535 12.997 4.552C13.274 4.611 13.527 4.718 13.754 4.862C13.7628 4.79748 13.7842 4.73531 13.817 4.679C13.955 4.439 14.899 3.571 15 3.63C15.101 3.689 14.821 4.94 14.683 5.179C14.6489 5.23829 14.603 5.28992 14.5481 5.3307C14.4932 5.37147 14.4305 5.40051 14.364 5.416C14.6889 5.82867 14.8988 6.32005 14.9722 6.84014C15.0456 7.36024 14.98 7.8905 14.782 8.377C14.7011 8.57619 14.558 8.74387 14.374 8.855L14.392 8.859C14.8452 8.94959 15.253 9.19435 15.5462 9.55167C15.8393 9.90899 15.9997 10.3568 16 10.819V12.586L16.293 12.293C16.4816 12.1108 16.7342 12.01 16.9964 12.0123C17.2586 12.0146 17.5094 12.1198 17.6948 12.3052C17.8802 12.4906 17.9854 12.7414 17.9876 13.0036C17.9899 13.2658 17.8891 13.5184 17.707 13.707L16 15.414V18C16.2652 18 16.5195 18.1054 16.7071 18.2929C16.8946 18.4804 17 18.7348 17 19V21C17.2652 21 17.5195 21.1054 17.7071 21.2929C17.8946 21.4804 18 21.7348 18 22C18 22.2652 17.8946 22.5196 17.7071 22.7071C17.5195 22.8946 17.2652 23 17 23H7.99996C7.73474 23 7.48039 22.8946 7.29285 22.7071C7.10531 22.5196 6.99996 22.2652 6.99996 22C6.99996 21.7348 7.10531 21.4804 7.29285 21.2929C7.48039 21.1054 7.73474 21 7.99996 21V19C7.99996 18.7348 8.10531 18.4804 8.29285 18.2929C8.48039 18.1054 8.73474 18 8.99996 18V14.414L7.29296 12.707C7.10541 12.5195 7.00001 12.2652 6.99996 12V5.866C6.80933 5.75593 6.66034 5.58603 6.57611 5.38266C6.49188 5.17929 6.4771 4.9538 6.53408 4.74118C6.59105 4.52855 6.71659 4.34067 6.89122 4.20666C7.06586 4.07265 7.27983 4.00001 7.49996 4H8.49996C8.67528 4.00003 8.84752 4.04616 8.99939 4.13375C9.15127 4.22135 9.27745 4.34733 9.36527 4.49908C9.4531 4.65082 9.49948 4.82299 9.49978 4.99831C9.50007 5.17364 9.45427 5.34596 9.36696 5.498L10.031 6.826C10.1052 6.31099 10.3139 5.82466 10.636 5.416C10.5694 5.40051 10.5067 5.37147 10.4518 5.3307C10.3969 5.28992 10.351 5.23829 10.317 5.179C10.179 4.939 9.89796 3.689 9.99996 3.63C10.101 3.571 11.045 4.44 11.183 4.679C11.2158 4.73562 11.2372 4.79813 11.246 4.863C11.472 4.718 11.726 4.611 12.003 4.552C12.0011 4.53473 12.0001 4.51737 12 4.5C12 4.224 12.383 3 12.5 3C12.617 3 13 4.224 13 4.5Z" fill="currentColor"/>
</svg>
