<svg width="24" height="24" viewBox="0 0 24 24" fill="none" xmlns="http://www.w3.org/2000/svg">
<path fill-rule="evenodd" clip-rule="evenodd" d="M12 2C17.523 2 22 6.477 22 12C22 17.523 17.523 22 12 22C6.477 22 2 17.523 2 12C2 6.477 6.477 2 12 2ZM4.205 13.81C4.55496 15.3124 5.33129 16.6817 6.44071 17.7536C7.55013 18.8254 8.94545 19.554 10.459 19.852C10.266 17.227 9.403 15.652 8.313 14.781C7.269 13.946 5.853 13.623 4.205 13.809V13.81ZM15.687 14.78C14.597 15.653 13.734 17.227 13.541 19.852C15.0547 19.554 16.4501 18.8252 17.5595 17.7531C18.669 16.6811 19.4452 15.3116 19.795 13.809C18.147 13.623 16.731 13.946 15.687 14.781V14.78ZM12 4C10.1362 4.00025 8.33088 4.65102 6.89559 5.84004C5.46029 7.02907 4.48501 8.68176 4.138 10.513L4.095 10.761L6.305 10.319C6.887 10.203 7.44 9.896 8.058 9.479L8.535 9.147C9.332 8.581 10.513 8 12 8C13.388 8 14.509 8.506 15.3 9.034L15.942 9.479C16.482 9.844 16.974 10.124 17.478 10.267L17.695 10.319L19.905 10.761C19.6092 8.87693 18.6503 7.16044 17.2009 5.92084C15.7516 4.68124 13.9071 4.00004 12 4Z" fill="currentColor"/>
</svg>
