<svg width="24" height="24" viewBox="0 0 24 24" fill="none" xmlns="http://www.w3.org/2000/svg">
<path d="M18 3C18.7652 2.99996 19.5015 3.29233 20.0583 3.81728C20.615 4.34224 20.9501 5.06011 20.995 5.824L21 6V12H15C14.2348 12 13.4985 12.2923 12.9417 12.8173C12.385 13.3422 12.0499 14.0601 12.005 14.824L12 15V21H6C5.23479 21 4.49849 20.7077 3.94174 20.1827C3.38499 19.6578 3.04989 18.9399 3.005 18.176L3 18V6C2.99996 5.23479 3.29233 4.49849 3.81728 3.94174C4.34224 3.38499 5.06011 3.04989 5.824 3.005L6 3H18ZM20.883 14C20.763 14.4172 20.5538 14.8035 20.27 15.132L20.121 15.292L15.293 20.122C14.985 20.4295 14.6137 20.6663 14.205 20.816L14 20.883V15C14 14.7551 14.09 14.5187 14.2527 14.3356C14.4155 14.1526 14.6397 14.0357 14.883 14.007L15 14H20.883Z" fill="currentColor"/>
</svg>
