<svg width="24" height="24" viewBox="0 0 24 24" fill="none" xmlns="http://www.w3.org/2000/svg">
<path d="M8 2C8.26522 2 8.51957 2.10536 8.70711 2.29289C8.89464 2.48043 9 2.73478 9 3V5C9.79565 5 10.5587 5.31607 11.1213 5.87868C11.6839 6.44129 12 7.20435 12 8V14C12 14.7956 11.6839 15.5587 11.1213 16.1213C10.5587 16.6839 9.79565 17 9 17V21C9 21.2652 8.89464 21.5196 8.70711 21.7071C8.51957 21.8946 8.26522 22 8 22C7.73478 22 7.48043 21.8946 7.29289 21.7071C7.10536 21.5196 7 21.2652 7 21V17C6.20435 17 5.44129 16.6839 4.87868 16.1213C4.31607 15.5587 4 14.7956 4 14V8C4 7.20435 4.31607 6.44129 4.87868 5.87868C5.44129 5.31607 6.20435 5 7 5V3C7 2.73478 7.10536 2.48043 7.29289 2.29289C7.48043 2.10536 7.73478 2 8 2ZM17 2C17.2449 2.00003 17.4813 2.08996 17.6644 2.25272C17.8474 2.41547 17.9643 2.63975 17.993 2.883L18 3V7C18.7652 6.99996 19.5015 7.29233 20.0583 7.81728C20.615 8.34224 20.9501 9.06011 20.995 9.824L21 10V16C21 16.7652 20.7077 17.5015 20.1827 18.0583C19.6578 18.615 18.9399 18.9501 18.176 18.995L18 19V21C17.9997 21.2549 17.9021 21.5 17.7272 21.6854C17.5522 21.8707 17.313 21.9822 17.0586 21.9972C16.8042 22.0121 16.5536 21.9293 16.3582 21.7657C16.1627 21.6021 16.0371 21.3701 16.007 21.117L16 21V19C15.2348 19 14.4985 18.7077 13.9417 18.1827C13.385 17.6578 13.0499 16.9399 13.005 16.176L13 16V10C13 9.23479 13.2923 8.49849 13.8173 7.94174C14.3422 7.38499 15.0601 7.04989 15.824 7.005L16 7V3C16 2.73478 16.1054 2.48043 16.2929 2.29289C16.4804 2.10536 16.7348 2 17 2Z" fill="currentColor"/>
</svg>
