<svg width="24" height="24" viewBox="0 0 24 24" fill="none" xmlns="http://www.w3.org/2000/svg">
<path fill-rule="evenodd" clip-rule="evenodd" d="M18 2C18.7956 2 19.5587 2.31607 20.1213 2.87868C20.6839 3.44129 21 4.20435 21 5V18C21 18.7956 20.6839 19.5587 20.1213 20.1213C19.5587 20.6839 18.7956 21 18 21H15V15C15 14.2044 14.6839 13.4413 14.1213 12.8787C13.5587 12.3161 12.7956 12 12 12H11C10.2044 12 9.44129 12.3161 8.87868 12.8787C8.31607 13.4413 8 14.2044 8 15V21H5C4.20435 21 3.44129 20.6839 2.87868 20.1213C2.31607 19.5587 2 18.7956 2 18V5C2 4.20435 2.31607 3.44129 2.87868 2.87868C3.44129 2.31607 4.20435 2 5 2H18ZM12 14C12.2449 14 12.4813 14.09 12.6644 14.2527C12.8474 14.4155 12.9643 14.6397 12.993 14.883L13 15V21H10V15C10 14.7551 10.09 14.5187 10.2527 14.3356C10.4155 14.1526 10.6397 14.0357 10.883 14.007L11 14H12ZM18 4H5C4.75507 4.00003 4.51866 4.08996 4.33563 4.25272C4.15259 4.41547 4.03566 4.63975 4.007 4.883L4 5V6C3.99907 6.48834 4.17684 6.96015 4.49979 7.32645C4.82275 7.69276 5.26856 7.92825 5.75317 7.98851C6.23777 8.04878 6.72769 7.92967 7.13053 7.65362C7.53336 7.37758 7.82129 6.96369 7.94 6.49L7.972 6.335C8.00856 6.11661 8.11656 5.91653 8.27908 5.76614C8.4416 5.61575 8.64944 5.52355 8.87 5.504L9 5.5C9.24493 5.50003 9.48134 5.58996 9.66437 5.75272C9.84741 5.91547 9.96434 6.13975 9.993 6.383L10 6.5C10.0002 6.88522 10.1486 7.25559 10.4144 7.53439C10.6802 7.81318 11.0431 7.97901 11.4279 7.99752C11.8127 8.01604 12.1898 7.88581 12.4812 7.63382C12.7726 7.38184 12.9558 7.02742 12.993 6.644L13 6.5C13 6.25507 13.09 6.01866 13.2527 5.83563C13.4155 5.65259 13.6397 5.53566 13.883 5.507L14.018 5.5C14.2388 5.49491 14.4551 5.56308 14.6332 5.69388C14.8112 5.82467 14.9409 6.01073 15.002 6.223L15.028 6.335C15.1091 6.81729 15.3641 7.25315 15.7448 7.56016C16.1255 7.86717 16.6055 8.02406 17.094 8.00116C17.5825 7.97825 18.0457 7.77714 18.396 7.43585C18.7463 7.09457 18.9594 6.63676 18.995 6.149L19 6V5C19 4.75507 18.91 4.51866 18.7473 4.33563C18.5845 4.15259 18.3603 4.03566 18.117 4.007L18 4Z" fill="currentColor"/>
</svg>
