<svg width="24" height="24" viewBox="0 0 24 24" fill="none" xmlns="http://www.w3.org/2000/svg">
<path fill-rule="evenodd" clip-rule="evenodd" d="M10.7292 8.36C10.7292 7.589 11.3592 7.292 12.4042 7.292C13.5162 7.292 14.8462 7.543 16.0702 8.004C16.6372 8.218 17.2922 7.822 17.2922 7.215V4.588C17.2951 4.38851 17.2353 4.19315 17.1212 4.0295C17.007 3.86586 16.8444 3.7422 16.6562 3.676C15.2362 3.195 13.8282 3 12.4042 3C8.40319 3 5.74219 5.097 5.74219 8.598C5.74219 14.058 13.2322 13.187 13.2322 15.541C13.2322 16.451 12.4442 16.747 11.3402 16.747C10.0852 16.747 8.56319 16.351 7.17519 15.757C6.61519 15.517 5.95919 15.909 5.95919 16.517V19.215C5.95919 19.615 6.19519 19.978 6.56919 20.119C8.20119 20.734 9.83219 21 11.3392 21C15.4392 21 18.2582 18.963 18.2582 15.422C18.2382 9.527 10.7282 10.576 10.7282 8.36H10.7292Z" fill="currentColor"/>
</svg>
