<svg width="24" height="24" viewBox="0 0 24 24" fill="none" xmlns="http://www.w3.org/2000/svg">
<path fill-rule="evenodd" clip-rule="evenodd" d="M20 4C20.5304 4 21.0391 4.21071 21.4142 4.58579C21.7893 4.96086 22 5.46957 22 6V18C22 18.5304 21.7893 19.0391 21.4142 19.4142C21.0391 19.7893 20.5304 20 20 20H4C3.46957 20 2.96086 19.7893 2.58579 19.4142C2.21071 19.0391 2 18.5304 2 18V6C2 5.46957 2.21071 4.96086 2.58579 4.58579C2.96086 4.21071 3.46957 4 4 4H20ZM8.5 8C7.73479 7.99996 6.99849 8.29233 6.44174 8.81728C5.88499 9.34224 5.54989 10.0601 5.505 10.824L5.5 11V13C5.4988 13.731 5.76457 14.4374 6.24739 14.9863C6.73021 15.5352 7.39684 15.8889 8.12206 15.981C8.84728 16.0731 9.58117 15.8972 10.1859 15.4864C10.7906 15.0756 11.2244 14.4581 11.406 13.75C11.4718 13.5022 11.4399 13.2385 11.3169 13.0135C11.1938 12.7885 10.9891 12.6194 10.7449 12.5411C10.5007 12.4628 10.2358 12.4813 10.0048 12.5927C9.7739 12.7042 9.5946 12.9001 9.504 13.14L9.469 13.251C9.41091 13.4773 9.27542 13.6761 9.08604 13.8129C8.89666 13.9498 8.66536 14.0159 8.43227 14C8.19918 13.9841 7.97902 13.8871 7.81 13.7258C7.64099 13.5645 7.53379 13.3491 7.507 13.117L7.5 13V11C7.49968 10.7659 7.58148 10.5392 7.73114 10.3592C7.88081 10.1793 8.08886 10.0575 8.31906 10.0152C8.54925 9.9728 8.78702 10.0125 8.99093 10.1274C9.19484 10.2424 9.35199 10.4252 9.435 10.644L9.469 10.749C9.50142 10.8765 9.55868 10.9963 9.63749 11.1016C9.71629 11.207 9.81511 11.2957 9.92826 11.3628C10.0414 11.4298 10.1667 11.4739 10.2969 11.4925C10.4271 11.5111 10.5598 11.5038 10.6871 11.471C10.8145 11.4383 10.9342 11.3807 11.0393 11.3016C11.1445 11.2225 11.2329 11.1235 11.2997 11.0102C11.3665 10.8968 11.4102 10.7714 11.4285 10.6412C11.4467 10.5109 11.4391 10.3783 11.406 10.251C11.2397 9.60682 10.8639 9.03621 10.3379 8.62891C9.81183 8.2216 9.1653 8.00072 8.5 8.001M15.5 8.001C14.7044 8.001 13.9413 8.31707 13.3787 8.87968C12.8161 9.44229 12.5 10.2054 12.5 11.001V13.001C12.4988 13.732 12.7646 14.4384 13.2474 14.9873C13.7302 15.5362 14.3968 15.8899 15.1221 15.982C15.8473 16.0741 16.5812 15.8982 17.1859 15.4874C17.7906 15.0766 18.2244 14.4591 18.406 13.751C18.4718 13.5032 18.4399 13.2395 18.3169 13.0145C18.1938 12.7895 17.9891 12.6204 17.7449 12.5421C17.5007 12.4638 17.2358 12.4823 17.0048 12.5937C16.7739 12.7052 16.5946 12.9011 16.504 13.141L16.469 13.252C16.4087 13.4884 16.2642 13.6945 16.0625 13.8317C15.8609 13.9689 15.616 14.0277 15.374 13.997C15.1321 13.9663 14.9097 13.8482 14.7487 13.6649C14.5877 13.4817 14.4993 13.2459 14.5 13.002V11.002C14.4994 10.7679 14.5811 10.5409 14.7307 10.3608C14.8802 10.1807 15.0883 10.0587 15.3186 10.0162C15.5488 9.97375 15.7867 10.0134 15.9907 10.1283C16.1947 10.2432 16.352 10.4261 16.435 10.645L16.469 10.75C16.5356 11.0063 16.7011 11.2256 16.9292 11.36C17.1573 11.4945 17.4294 11.5329 17.6859 11.467C17.9423 11.4011 18.1621 11.2361 18.2971 11.0084C18.4321 10.7806 18.4713 10.5086 18.406 10.252C18.2397 9.60782 17.8639 9.03721 17.3379 8.6299C16.8118 8.2226 16.1653 8.00072 15.5 8.001Z" fill="currentColor"/>
</svg>
