<svg width="24" height="24" viewBox="0 0 24 24" fill="none" xmlns="http://www.w3.org/2000/svg">
<path fill-rule="evenodd" clip-rule="evenodd" d="M6.61047 11.026C5.86147 10.943 5.15113 10.6502 4.56128 10.1812C3.97143 9.71215 3.52607 9.08606 3.2765 8.37499C3.02694 7.66393 2.98331 6.89683 3.15065 6.16206C3.31799 5.42729 3.68949 4.75473 4.22235 4.22187C4.75522 3.689 5.42778 3.3175 6.16255 3.15016C6.89732 2.98282 7.66442 3.02645 8.37548 3.27602C9.08654 3.52559 9.71264 3.97094 10.1817 4.56079C10.6507 5.15064 10.9435 5.86098 11.0265 6.60999C11.8995 6.70599 12.7465 7.08899 13.4145 7.75799C14.0581 8.39949 14.4632 9.2417 14.5625 10.145C15.2262 10.2188 15.8609 10.4576 16.4087 10.8396C16.9565 11.2215 17.4001 11.7345 17.6989 12.3317C17.9977 12.929 18.1423 13.5915 18.1195 14.2589C18.0968 14.9264 17.9073 15.5775 17.5685 16.153L19.7785 18.364C19.874 18.4562 19.9502 18.5666 20.0026 18.6886C20.055 18.8106 20.0826 18.9418 20.0837 19.0746C20.0849 19.2074 20.0596 19.339 20.0093 19.4619C19.959 19.5848 19.8848 19.6965 19.7909 19.7904C19.697 19.8843 19.5853 19.9585 19.4624 20.0088C19.3395 20.0591 19.2079 20.0844 19.0751 20.0832C18.9423 20.0821 18.8111 20.0545 18.6891 20.0021C18.5671 19.9497 18.4567 19.8735 18.3645 19.778L16.1545 17.568C15.579 17.9068 14.9279 18.0963 14.2604 18.1191C13.593 18.1418 12.9305 17.9972 12.3332 17.6984C11.736 17.3996 11.223 16.9561 10.8411 16.4082C10.4591 15.8604 10.2203 15.2257 10.1465 14.562C9.24283 14.4629 8.40023 14.0578 7.75847 13.414C7.11457 12.7723 6.70949 11.9296 6.61047 11.026Z" fill="currentColor"/>
</svg>
