<svg width="24" height="24" viewBox="0 0 24 24" fill="none" xmlns="http://www.w3.org/2000/svg">
<path fill-rule="evenodd" clip-rule="evenodd" d="M10 4C9.20435 4 8.44129 4.31607 7.87868 4.87868C7.31607 5.44129 7 6.20435 7 7H4C3.46957 7 2.96086 7.21071 2.58579 7.58579C2.21071 7.96086 2 8.46957 2 9V19C2 19.5304 2.21071 20.0391 2.58579 20.4142C2.96086 20.7893 3.46957 21 4 21H20C20.5304 21 21.0391 20.7893 21.4142 20.4142C21.7893 20.0391 22 19.5304 22 19V9C22 8.46957 21.7893 7.96086 21.4142 7.58579C21.0391 7.21071 20.5304 7 20 7H17C17 6.20435 16.6839 5.44129 16.1213 4.87868C15.5587 4.31607 14.7956 4 14 4H10ZM10 6C9.73478 6 9.48043 6.10536 9.29289 6.29289C9.10536 6.48043 9 6.73478 9 7H15C15 6.73478 14.8946 6.48043 14.7071 6.29289C14.5196 6.10536 14.2652 6 14 6H10ZM4 13C3.73478 13 3.48043 13.1054 3.29289 13.2929C3.10536 13.4804 3 13.7348 3 14C3 14.2652 3.10536 14.5196 3.29289 14.7071C3.48043 14.8946 3.73478 15 4 15H20C20.2652 15 20.5196 14.8946 20.7071 14.7071C20.8946 14.5196 21 14.2652 21 14C21 13.7348 20.8946 13.4804 20.7071 13.2929C20.5196 13.1054 20.2652 13 20 13H4Z" fill="currentColor"/>
</svg>
