<svg width="24" height="24" viewBox="0 0 24 24" fill="none" xmlns="http://www.w3.org/2000/svg">
<path fill-rule="evenodd" clip-rule="evenodd" d="M14 4C14.7956 4 15.5587 4.31607 16.1213 4.87868C16.6839 5.44129 17 6.20435 17 7H20C20.5304 7 21.0391 7.21071 21.4142 7.58579C21.7893 7.96086 22 8.46957 22 9V19C22 19.5304 21.7893 20.0391 21.4142 20.4142C21.0391 20.7893 20.5304 21 20 21H4C3.46957 21 2.96086 20.7893 2.58579 20.4142C2.21071 20.0391 2 19.5304 2 19V9C2 8.46957 2.21071 7.96086 2.58579 7.58579C2.96086 7.21071 3.46957 7 4 7H7C7 6.20435 7.31607 5.44129 7.87868 4.87868C8.44129 4.31607 9.20435 4 10 4H14ZM8 8C7.75507 8.00003 7.51866 8.08996 7.33563 8.25272C7.15259 8.41547 7.03566 8.63975 7.007 8.883L7 9V19C7.00028 19.2549 7.09788 19.5 7.27285 19.6854C7.44782 19.8707 7.68695 19.9822 7.94139 19.9972C8.19584 20.0121 8.44638 19.9293 8.64183 19.7657C8.83729 19.6021 8.9629 19.3701 8.993 19.117L9 19V9C9 8.73478 8.89464 8.48043 8.70711 8.29289C8.51957 8.10536 8.26522 8 8 8ZM16 8C15.7348 8 15.4804 8.10536 15.2929 8.29289C15.1054 8.48043 15 8.73478 15 9V19C15 19.2652 15.1054 19.5196 15.2929 19.7071C15.4804 19.8946 15.7348 20 16 20C16.2652 20 16.5196 19.8946 16.7071 19.7071C16.8946 19.5196 17 19.2652 17 19V9C17 8.73478 16.8946 8.48043 16.7071 8.29289C16.5196 8.10536 16.2652 8 16 8ZM14 6H10C9.75507 6.00003 9.51866 6.08996 9.33563 6.25272C9.15259 6.41547 9.03566 6.63975 9.007 6.883L9 7H15C15 6.75507 14.91 6.51866 14.7473 6.33563C14.5845 6.15259 14.3603 6.03566 14.117 6.007L14 6Z" fill="currentColor"/>
</svg>
