<svg width="24" height="24" viewBox="0 0 24 24" fill="none" xmlns="http://www.w3.org/2000/svg">
<path d="M12 6C12.8898 5.99982 13.7685 6.19756 14.5725 6.57889C15.3765 6.96022 16.0856 7.5156 16.6484 8.20479C17.2113 8.89399 17.6138 9.69974 17.8268 10.5637C18.0398 11.4276 18.058 12.3282 17.88 13.2C17.8339 13.4259 17.7112 13.6289 17.5326 13.7747C17.354 13.9204 17.1305 14 16.9 14H7.1C6.86947 14 6.646 13.9204 6.46742 13.7747C6.28884 13.6289 6.16611 13.4259 6.12 13.2C5.94204 12.3282 5.96022 11.4276 6.17323 10.5637C6.38624 9.69974 6.78874 8.89399 7.35158 8.20479C7.91443 7.5156 8.62351 6.96022 9.42749 6.57889C10.2315 6.19756 11.1102 5.99982 12 6ZM21 11C21.2652 11 21.5196 11.1054 21.7071 11.2929C21.8946 11.4804 22 11.7348 22 12C22 12.2652 21.8946 12.5196 21.7071 12.7071C21.5196 12.8946 21.2652 13 21 13H20C19.7348 13 19.4804 12.8946 19.2929 12.7071C19.1054 12.5196 19 12.2652 19 12C19 11.7348 19.1054 11.4804 19.2929 11.2929C19.4804 11.1054 19.7348 11 20 11H21ZM4 11C4.26522 11 4.51957 11.1054 4.70711 11.2929C4.89464 11.4804 5 11.7348 5 12C5 12.2652 4.89464 12.5196 4.70711 12.7071C4.51957 12.8946 4.26522 13 4 13H3C2.73478 13 2.48043 12.8946 2.29289 12.7071C2.10536 12.5196 2 12.2652 2 12C2 11.7348 2.10536 11.4804 2.29289 11.2929C2.48043 11.1054 2.73478 11 3 11H4ZM19.071 4.93C19.2585 5.11753 19.3638 5.37184 19.3638 5.637C19.3638 5.90216 19.2585 6.15647 19.071 6.344L18.364 7.051C18.2718 7.14651 18.1614 7.22269 18.0394 7.2751C17.9174 7.32751 17.7862 7.3551 17.6534 7.35625C17.5206 7.3574 17.3889 7.3321 17.266 7.28182C17.1432 7.23154 17.0315 7.15729 16.9376 7.0634C16.8437 6.9695 16.7695 6.85785 16.7192 6.73495C16.6689 6.61206 16.6436 6.48038 16.6447 6.3476C16.6459 6.21482 16.6735 6.0836 16.7259 5.9616C16.7783 5.83959 16.8545 5.72925 16.95 5.637L17.657 4.93C17.8445 4.74253 18.0988 4.63721 18.364 4.63721C18.6292 4.63721 18.8835 4.74253 19.071 4.93ZM6.343 4.93L7.05 5.637C7.22766 5.82645 7.32463 6.07759 7.32042 6.33727C7.3162 6.59695 7.21112 6.84481 7.02741 7.02839C6.84369 7.21197 6.59576 7.31688 6.33608 7.32091C6.07639 7.32495 5.82533 7.22779 5.636 7.05L4.929 6.343C4.83132 6.25127 4.75307 6.14085 4.69891 6.01829C4.64474 5.89574 4.61575 5.76354 4.61367 5.62956C4.61159 5.49558 4.63646 5.36255 4.68679 5.23837C4.73713 5.11419 4.81191 5.00139 4.90669 4.90668C5.00148 4.81196 5.11433 4.73726 5.23854 4.68701C5.36276 4.63676 5.49581 4.61199 5.62979 4.61417C5.76376 4.61634 5.89594 4.64542 6.01846 4.69968C6.14098 4.75393 6.25134 4.83226 6.343 4.93ZM12 2C12.2652 2 12.5196 2.10536 12.7071 2.29289C12.8946 2.48043 13 2.73478 13 3V4C13 4.26522 12.8946 4.51957 12.7071 4.70711C12.5196 4.89464 12.2652 5 12 5C11.7348 5 11.4804 4.89464 11.2929 4.70711C11.1054 4.51957 11 4.26522 11 4V3C11 2.73478 11.1054 2.48043 11.2929 2.29289C11.4804 2.10536 11.7348 2 12 2ZM4 15C3.73478 15 3.48043 15.1054 3.29289 15.2929C3.10536 15.4804 3 15.7348 3 16C3 16.2652 3.10536 16.5196 3.29289 16.7071C3.48043 16.8946 3.73478 17 4 17H20C20.2652 17 20.5196 16.8946 20.7071 16.7071C20.8946 16.5196 21 16.2652 21 16C21 15.7348 20.8946 15.4804 20.7071 15.2929C20.5196 15.1054 20.2652 15 20 15H4ZM7 19C6.73478 19 6.48043 19.1054 6.29289 19.2929C6.10536 19.4804 6 19.7348 6 20C6 20.2652 6.10536 20.5196 6.29289 20.7071C6.48043 20.8946 6.73478 21 7 21H17C17.2652 21 17.5196 20.8946 17.7071 20.7071C17.8946 20.5196 18 20.2652 18 20C18 19.7348 17.8946 19.4804 17.7071 19.2929C17.5196 19.1054 17.2652 19 17 19H7Z" fill="currentColor"/>
</svg>
