<svg width="24" height="24" viewBox="0 0 24 24" fill="none" xmlns="http://www.w3.org/2000/svg">
<path d="M12.0008 19C12.2661 19 12.5204 19.1054 12.708 19.2929C12.8955 19.4804 13.0008 19.7348 13.0008 20V21C13.0008 21.2652 12.8955 21.5196 12.708 21.7071C12.5204 21.8946 12.2661 22 12.0008 22C11.7356 22 11.4813 21.8946 11.2937 21.7071C11.1062 21.5196 11.0008 21.2652 11.0008 21V20C11.0008 19.7348 11.1062 19.4804 11.2937 19.2929C11.4813 19.1054 11.7356 19 12.0008 19ZM18.3648 16.95L19.0718 17.657C19.254 17.8456 19.3548 18.0982 19.3525 18.3604C19.3502 18.6226 19.2451 18.8734 19.0597 19.0588C18.8743 19.2442 18.6234 19.3494 18.3612 19.3517C18.099 19.354 17.8464 19.2532 17.6578 19.071L16.9508 18.364C16.7687 18.1754 16.6679 17.9228 16.6702 17.6606C16.6725 17.3984 16.7776 17.1476 16.963 16.9622C17.1484 16.7768 17.3992 16.6716 17.6614 16.6693C17.9236 16.667 18.1762 16.7678 18.3648 16.95ZM5.63685 16.95C5.8168 16.7707 6.05828 16.6665 6.31223 16.6588C6.56618 16.651 6.81356 16.7402 7.00412 16.9082C7.19469 17.0763 7.31415 17.3106 7.33824 17.5635C7.36234 17.8164 7.28926 18.069 7.13385 18.27L7.05085 18.364L6.34385 19.071C6.16389 19.2503 5.92241 19.3545 5.66846 19.3622C5.41451 19.37 5.16713 19.2808 4.97657 19.1128C4.786 18.9447 4.66654 18.7104 4.64245 18.4575C4.61835 18.2046 4.69143 17.952 4.84685 17.751L4.92985 17.657L5.63685 16.95ZM12.0008 6C13.5921 6 15.1183 6.63214 16.2435 7.75736C17.3687 8.88258 18.0008 10.4087 18.0008 12C18.0008 13.5913 17.3687 15.1174 16.2435 16.2426C15.1183 17.3679 13.5921 18 12.0008 18C10.4095 18 8.88342 17.3679 7.7582 16.2426C6.63299 15.1174 6.00085 13.5913 6.00085 12C6.00085 10.4087 6.63299 8.88258 7.7582 7.75736C8.88342 6.63214 10.4095 6 12.0008 6ZM4.00085 11C4.25572 11.0003 4.50088 11.0979 4.68621 11.2728C4.87155 11.4478 4.98308 11.687 4.99802 11.9414C5.01295 12.1958 4.93017 12.4464 4.76658 12.6418C4.60299 12.8373 4.37094 12.9629 4.11785 12.993L4.00085 13H3.00085C2.74597 12.9997 2.50081 12.9021 2.31548 12.7272C2.13014 12.5522 2.01861 12.313 2.00367 12.0586C1.98874 11.8042 2.07152 11.5536 2.23511 11.3582C2.3987 11.1627 2.63075 11.0371 2.88385 11.007L3.00085 11H4.00085ZM21.0008 11C21.2661 11 21.5204 11.1054 21.708 11.2929C21.8955 11.4804 22.0008 11.7348 22.0008 12C22.0008 12.2652 21.8955 12.5196 21.708 12.7071C21.5204 12.8946 21.2661 13 21.0008 13H20.0008C19.7356 13 19.4813 12.8946 19.2937 12.7071C19.1062 12.5196 19.0008 12.2652 19.0008 12C19.0008 11.7348 19.1062 11.4804 19.2937 11.2929C19.4813 11.1054 19.7356 11 20.0008 11H21.0008ZM4.92985 4.929C5.10204 4.75682 5.33114 4.65339 5.57416 4.63811C5.81719 4.62283 6.05744 4.69675 6.24985 4.846L6.34385 4.929L7.05085 5.636C7.23019 5.81596 7.33432 6.05743 7.34207 6.31138C7.34983 6.56533 7.26063 6.81271 7.0926 7.00328C6.92456 7.19384 6.69029 7.31331 6.43737 7.3374C6.18445 7.36149 5.93184 7.28841 5.73085 7.133L5.63685 7.05L4.92985 6.343C4.74237 6.15547 4.63706 5.90116 4.63706 5.636C4.63706 5.37084 4.74237 5.11653 4.92985 4.929ZM19.0718 4.929C19.2593 5.11653 19.3646 5.37084 19.3646 5.636C19.3646 5.90116 19.2593 6.15547 19.0718 6.343L18.3648 7.05C18.2726 7.14551 18.1623 7.22169 18.0402 7.2741C17.9182 7.32651 17.787 7.3541 17.6542 7.35525C17.5215 7.3564 17.3898 7.3311 17.2669 7.28082C17.144 7.23054 17.0323 7.15629 16.9384 7.0624C16.8446 6.9685 16.7703 6.85685 16.72 6.73395C16.6697 6.61106 16.6444 6.47938 16.6456 6.3466C16.6467 6.21382 16.6743 6.0826 16.7267 5.9606C16.7792 5.83859 16.8553 5.72825 16.9508 5.636L17.6578 4.929C17.8454 4.74153 18.0997 4.63621 18.3648 4.63621C18.63 4.63621 18.8843 4.74153 19.0718 4.929ZM12.0008 2C12.2661 2 12.5204 2.10536 12.708 2.29289C12.8955 2.48043 13.0008 2.73478 13.0008 3V4C13.0008 4.26522 12.8955 4.51957 12.708 4.70711C12.5204 4.89464 12.2661 5 12.0008 5C11.7356 5 11.4813 4.89464 11.2937 4.70711C11.1062 4.51957 11.0008 4.26522 11.0008 4V3C11.0008 2.73478 11.1062 2.48043 11.2937 2.29289C11.4813 2.10536 11.7356 2 12.0008 2Z" fill="currentColor"/>
</svg>
