<svg width="24" height="24" viewBox="0 0 24 24" fill="none" xmlns="http://www.w3.org/2000/svg">
<path d="M11.0006 6.00001C12.2654 6.00006 13.4977 6.39961 14.5219 7.14164C15.546 7.88367 16.3096 8.93025 16.7036 10.132C18.0047 10.4259 19.1547 11.1823 19.9397 12.2606C20.7247 13.339 21.0912 14.6657 20.9712 15.9941C20.8511 17.3225 20.2526 18.5621 19.2869 19.4821C18.3213 20.4022 17.0543 20.9402 15.7216 20.996L15.5006 21H6.50065C5.43786 21.0011 4.40898 20.626 3.59628 19.9411C2.78358 19.2562 2.23951 18.3058 2.06044 17.2582C1.88137 16.2106 2.07886 15.1335 2.61792 14.2175C3.15699 13.3016 4.00284 12.606 5.00565 12.254C4.97138 11.4454 5.10107 10.6382 5.38691 9.881C5.67274 9.12381 6.10882 8.43227 6.66889 7.848C7.22895 7.26374 7.90144 6.79882 8.64587 6.48124C9.39031 6.16365 10.1913 5.99996 11.0006 6.00001ZM16.0006 3.00001C17.0718 2.99965 18.1236 3.28607 19.0467 3.82954C19.9698 4.373 20.7306 5.15369 21.25 6.09052C21.7695 7.02735 22.0286 8.08616 22.0006 9.15699C21.9726 10.2278 21.6584 11.2716 21.0906 12.18C20.2743 10.8077 18.9826 9.7829 17.4606 9.30001C16.9613 8.10644 16.1411 7.07451 15.091 6.31868C14.0409 5.56284 12.802 5.11264 11.5116 5.01801C12.0743 4.38239 12.7657 3.87373 13.54 3.52581C14.3143 3.17788 15.1538 2.99865 16.0026 3.00001H16.0006Z" fill="currentColor"/>
</svg>
