<svg width="24" height="24" viewBox="0 0 24 24" fill="none" xmlns="http://www.w3.org/2000/svg">
<path fill-rule="evenodd" clip-rule="evenodd" d="M9.109 5.02C8.41555 4.59018 7.61042 4.37515 6.795 4.402C6.209 4.416 5.379 4.503 4.929 4.929C4.503 5.379 4.416 6.209 4.401 6.795C4.37475 7.61062 4.59047 8.41577 5.021 9.109C4.093 9.323 3.411 9.819 2.947 10.307C2.543 10.732 2.017 11.38 2 12C2.017 12.62 2.543 13.268 2.947 13.693C3.50483 14.2877 4.22607 14.7042 5.02 14.89C4.59018 15.5835 4.37515 16.3886 4.402 17.204C4.417 17.791 4.502 18.62 4.929 19.07C5.379 19.496 6.209 19.582 6.795 19.597C7.61042 19.6239 8.41557 19.4089 9.109 18.979C9.323 19.906 9.819 20.589 10.307 21.052C10.732 21.456 11.381 21.982 12 21.999C12.62 21.982 13.268 21.456 13.693 21.052C14.2881 20.4943 14.7049 19.773 14.891 18.979C15.698 19.483 16.532 19.615 17.205 19.598C17.791 19.583 18.621 19.496 19.071 19.07C19.497 18.62 19.583 17.79 19.598 17.204C19.6249 16.3886 19.4099 15.5834 18.98 14.89C19.774 14.7039 20.4953 14.2871 21.053 13.692C21.457 13.267 21.983 12.619 22 11.999C21.983 11.379 21.457 10.731 21.053 10.306C20.495 9.71166 19.7738 9.29555 18.98 9.11C19.484 8.303 19.616 7.469 19.599 6.796C19.584 6.21 19.497 5.38 19.071 4.93C18.621 4.504 17.791 4.417 17.205 4.402C16.3894 4.37575 15.5842 4.59147 14.891 5.022C14.7051 4.2276 14.2882 3.50597 13.693 2.948C13.268 2.543 12.62 2.017 12 2C11.38 2.017 10.733 2.543 10.307 2.947C9.71229 3.50483 9.29483 4.22607 9.109 5.02ZM12 14C12.5304 14 13.0391 13.7893 13.4142 13.4142C13.7893 13.0391 14 12.5304 14 12C14 11.4696 13.7893 10.9609 13.4142 10.5858C13.0391 10.2107 12.5304 10 12 10C11.4696 10 10.9609 10.2107 10.5858 10.5858C10.2107 10.9609 10 11.4696 10 12C10 12.5304 10.2107 13.0391 10.5858 13.4142C10.9609 13.7893 11.4696 14 12 14Z" fill="currentColor"/>
</svg>
