<svg width="24" height="24" viewBox="0 0 24 24" fill="none" xmlns="http://www.w3.org/2000/svg">
<path d="M12.0008 9.99999C13.0541 9.99984 14.0889 10.277 15.0011 10.8035C15.9134 11.3301 16.6709 12.0875 17.1976 12.9996C17.7243 13.9118 18.0017 14.9465 18.0017 15.9998C18.0017 17.0531 17.7245 18.0878 17.1978 19H20.0008C20.2661 19 20.5204 19.1053 20.708 19.2929C20.8955 19.4804 21.0008 19.7348 21.0008 20C21.0008 20.2652 20.8955 20.5196 20.708 20.7071C20.5204 20.8946 20.2661 21 20.0008 21H4.00085C3.73563 21 3.48127 20.8946 3.29374 20.7071C3.1062 20.5196 3.00085 20.2652 3.00085 20C3.00085 19.7348 3.1062 19.4804 3.29374 19.2929C3.48127 19.1053 3.73563 19 4.00085 19H6.80385C6.2772 18.0878 5.99996 17.0531 6 15.9998C6.00003 14.9465 6.27735 13.9118 6.80406 12.9996C7.33077 12.0875 8.08831 11.3301 9.00055 10.8035C9.91278 10.277 10.9476 9.99984 12.0008 9.99999ZM21.0008 15C21.2557 15.0003 21.5009 15.0979 21.6862 15.2728C21.8715 15.4478 21.9831 15.6869 21.998 15.9414C22.013 16.1958 21.9302 16.4464 21.7666 16.6418C21.603 16.8373 21.3709 16.9629 21.1178 16.993L21.0008 17H20.0008C19.746 16.9997 19.5008 16.9021 19.3155 16.7271C19.1301 16.5522 19.0186 16.313 19.0037 16.0586C18.9887 15.8042 19.0715 15.5536 19.2351 15.3582C19.3987 15.1627 19.6307 15.0371 19.8838 15.007L20.0008 15H21.0008ZM4.00085 15C4.25572 15.0003 4.50088 15.0979 4.68621 15.2728C4.87155 15.4478 4.98308 15.6869 4.99802 15.9414C5.01295 16.1958 4.93017 16.4464 4.76658 16.6418C4.60299 16.8373 4.37094 16.9629 4.11785 16.993L4.00085 17H3.00085C2.74597 16.9997 2.50081 16.9021 2.31548 16.7271C2.13014 16.5522 2.01861 16.313 2.00367 16.0586C1.98874 15.8042 2.07152 15.5536 2.23511 15.3582C2.3987 15.1627 2.63075 15.0371 2.88385 15.007L3.00085 15H4.00085ZM6.34385 8.92899L7.05085 9.63599C7.233 9.82459 7.3338 10.0772 7.33152 10.3394C7.32924 10.6016 7.22407 10.8524 7.03866 11.0378C6.85326 11.2232 6.60244 11.3284 6.34025 11.3307C6.07805 11.3329 5.82545 11.2321 5.63685 11.05L4.92985 10.343C4.74769 10.1544 4.64689 9.90178 4.64917 9.63959C4.65145 9.37739 4.75662 9.12658 4.94203 8.94117C5.12743 8.75576 5.37825 8.65059 5.64044 8.64831C5.90264 8.64603 6.15524 8.74683 6.34385 8.92899ZM17.6578 8.92899C17.8378 8.74964 18.0793 8.64551 18.3332 8.63776C18.5872 8.63 18.8346 8.7192 19.0251 8.88724C19.2157 9.05527 19.3351 9.28954 19.3592 9.54246C19.3833 9.79538 19.3103 10.048 19.1548 10.249L19.0718 10.343L18.3648 11.05C18.1849 11.2293 17.9434 11.3335 17.6895 11.3412C17.4355 11.349 17.1881 11.2598 16.9976 11.0917C16.807 10.9237 16.6875 10.6894 16.6634 10.4365C16.6394 10.1836 16.7124 9.93098 16.8678 9.72999L16.9508 9.63599L17.6578 8.92899ZM12.7078 2.17299L14.8288 4.29399C14.9244 4.38623 15.0005 4.49658 15.0529 4.61858C15.1054 4.74059 15.1329 4.87181 15.1341 5.00459C15.1352 5.13736 15.1099 5.26904 15.0597 5.39194C15.0094 5.51484 14.9351 5.62649 14.8412 5.72038C14.7473 5.81427 14.6357 5.88853 14.5128 5.93881C14.3899 5.98909 14.2582 6.01439 14.1254 6.01324C13.9927 6.01208 13.8614 5.9845 13.7394 5.93209C13.6174 5.87968 13.5071 5.8035 13.4148 5.70799L13.0008 5.29399V7.99999C13.0008 8.2652 12.8955 8.51956 12.708 8.70709C12.5204 8.89463 12.2661 8.99999 12.0008 8.99999C11.7356 8.99999 11.4813 8.89463 11.2937 8.70709C11.1062 8.51956 11.0008 8.2652 11.0008 7.99999V5.29399L10.5868 5.70799C10.3982 5.89014 10.1456 5.99094 9.88344 5.98866C9.62125 5.98638 9.37043 5.88121 9.18503 5.6958C8.99962 5.5104 8.89445 5.25958 8.89217 4.99739C8.88989 4.73519 8.99069 4.48259 9.17285 4.29399L11.2928 2.17299C11.3857 2.08001 11.496 2.00625 11.6174 1.95593C11.7388 1.9056 11.8689 1.8797 12.0003 1.8797C12.1318 1.8797 12.2619 1.9056 12.3833 1.95593C12.5047 2.00625 12.615 2.08001 12.7078 2.17299Z" fill="currentColor"/>
</svg>
