<svg width="24" height="24" viewBox="0 0 24 24" fill="none" xmlns="http://www.w3.org/2000/svg">
<path fill-rule="evenodd" clip-rule="evenodd" d="M19.7776 4.222C20.3146 4.758 20.2916 5.685 20.2596 6.387C20.2216 7.221 20.0616 8.286 19.7466 9.456C19.1176 11.791 17.8396 14.645 15.5356 16.95C12.9536 19.532 9.84256 21.036 7.37556 21.627C7.05038 21.7033 6.71105 21.6949 6.39009 21.6024C6.06912 21.51 5.77729 21.3366 5.54256 21.099L2.90056 18.457C2.66292 18.2225 2.48948 17.9308 2.39685 17.6101C2.30423 17.2893 2.29552 16.9501 2.37156 16.625C2.96356 14.157 4.46756 11.047 7.04956 8.465C9.35456 6.159 12.2096 4.882 14.5436 4.253C15.7136 3.937 16.7786 3.778 17.6136 3.74C18.3146 3.708 19.2416 3.685 19.7776 4.222Z" fill="currentColor"/>
</svg>
