<svg width="24" height="24" viewBox="0 0 24 24" fill="none" xmlns="http://www.w3.org/2000/svg">
<path fill-rule="evenodd" clip-rule="evenodd" d="M12 2C17.523 2 22 6.477 22 12C22 17.523 17.523 22 12 22C6.477 22 2 17.523 2 12C2 6.477 6.477 2 12 2ZM12 12C11.2044 12 10.4413 12.3161 9.87868 12.8787C9.31607 13.4413 9 14.2044 9 15C9 15.7956 9.31607 16.5587 9.87868 17.1213C10.4413 17.6839 11.2044 18 12 18C12.7956 18 13.5587 17.6839 14.1213 17.1213C14.6839 16.5587 15 15.7956 15 15C15 14.2044 14.6839 13.4413 14.1213 12.8787C13.5587 12.3161 12.7956 12 12 12ZM12 14C12.2652 14 12.5196 14.1054 12.7071 14.2929C12.8946 14.4804 13 14.7348 13 15C13 15.2652 12.8946 15.5196 12.7071 15.7071C12.5196 15.8946 12.2652 16 12 16C11.7348 16 11.4804 15.8946 11.2929 15.7071C11.1054 15.5196 11 15.2652 11 15C11 14.7348 11.1054 14.4804 11.2929 14.2929C11.4804 14.1054 11.7348 14 12 14ZM8.5 8C8.10218 8 7.72064 8.15804 7.43934 8.43934C7.15804 8.72064 7 9.10218 7 9.5C7 9.89782 7.15804 10.2794 7.43934 10.5607C7.72064 10.842 8.10218 11 8.5 11C8.89782 11 9.27936 10.842 9.56066 10.5607C9.84196 10.2794 10 9.89782 10 9.5C10 9.10218 9.84196 8.72064 9.56066 8.43934C9.27936 8.15804 8.89782 8 8.5 8ZM15.5 8C15.1022 8 14.7206 8.15804 14.4393 8.43934C14.158 8.72064 14 9.10218 14 9.5C14 9.89782 14.158 10.2794 14.4393 10.5607C14.7206 10.842 15.1022 11 15.5 11C15.8978 11 16.2794 10.842 16.5607 10.5607C16.842 10.2794 17 9.89782 17 9.5C17 9.10218 16.842 8.72064 16.5607 8.43934C16.2794 8.15804 15.8978 8 15.5 8Z" fill="currentColor"/>
</svg>
