<svg width="24" height="24" viewBox="0 0 24 24" fill="none" xmlns="http://www.w3.org/2000/svg">
<path fill-rule="evenodd" clip-rule="evenodd" d="M12 2C14.106 2 16.06 2.65 17.67 3.762C17.501 4.006 17.32 4.281 17.143 4.576L17.047 4.74L16.844 5.105C16.431 5.882 16 6.927 16 8C16 9.97 17.563 12 20 12C20.752 12 21.421 11.807 21.987 11.481C21.996 11.653 22 11.826 22 12C22 17.523 17.523 22 12 22C6.477 22 2 17.523 2 12C2 6.477 6.477 2 12 2ZM12 14H9C8.73478 14 8.48043 14.1054 8.29289 14.2929C8.10536 14.4804 8 14.7348 8 15C8 15.2652 8.10536 15.5196 8.29289 15.7071C8.48043 15.8946 8.73478 16 9 16H12C12.2652 16 12.5196 15.8946 12.7071 15.7071C12.8946 15.5196 13 15.2652 13 15C13 14.7348 12.8946 14.4804 12.7071 14.2929C12.5196 14.1054 12.2652 14 12 14ZM9 10H6C5.73478 10 5.48043 10.1054 5.29289 10.2929C5.10536 10.4804 5 10.7348 5 11C5 11.2652 5.10536 11.5196 5.29289 11.7071C5.48043 11.8946 5.73478 12 6 12H9C9.26522 12 9.51957 11.8946 9.70711 11.7071C9.89464 11.5196 10 11.2652 10 11C10 10.7348 9.89464 10.4804 9.70711 10.2929C9.51957 10.1054 9.26522 10 9 10ZM15 10H12C11.7348 10 11.4804 10.1054 11.2929 10.2929C11.1054 10.4804 11 10.7348 11 11C11 11.2652 11.1054 11.5196 11.2929 11.7071C11.4804 11.8946 11.7348 12 12 12H15C15.2652 12 15.5196 11.8946 15.7071 11.7071C15.8946 11.5196 16 11.2652 16 11C16 10.7348 15.8946 10.4804 15.7071 10.2929C15.5196 10.1054 15.2652 10 15 10ZM20.05 4.06L20.288 4.36L20.493 4.632C21.085 5.44 22 6.872 22 8C22 9 21.203 10 20 10C18.797 10 18 9 18 8C18 7.155 18.515 6.138 19.022 5.34L19.237 5.014L19.442 4.721L19.629 4.468L19.852 4.18L19.95 4.06C19.956 4.0525 19.9636 4.04644 19.9723 4.04227C19.9809 4.03811 19.9904 4.03595 20 4.03595C20.0096 4.03595 20.0191 4.03811 20.0277 4.04227C20.0364 4.04644 20.044 4.0525 20.05 4.06Z" fill="currentColor"/>
</svg>
