<svg width="24" height="24" viewBox="0 0 24 24" fill="none" xmlns="http://www.w3.org/2000/svg">
<path fill-rule="evenodd" clip-rule="evenodd" d="M19.0635 17.829C19.3638 17.5901 19.7443 17.4753 20.1267 17.5084C20.509 17.5415 20.8642 17.7199 21.119 18.0069C21.3738 18.2938 21.5089 18.6676 21.4966 19.0512C21.4842 19.4348 21.3253 19.799 21.0525 20.069L20.9375 20.171L19.5795 21.258C18.0645 22.47 16.3445 22.032 14.8855 21.059C14.7971 21.0001 14.6923 20.9709 14.5862 20.9756C14.4801 20.9803 14.3783 21.0186 14.2955 21.085C13.6481 21.6152 12.8372 21.9049 12.0005 21.9049C11.1637 21.9049 10.3528 21.6152 9.70546 21.085C9.62262 21.0186 9.52079 20.9803 9.41471 20.9756C9.30863 20.9709 9.20382 21.0001 9.11546 21.059C7.71046 21.996 6.06346 22.437 4.59046 21.386L4.42146 21.258L3.06346 20.171C2.7629 19.9308 2.56611 19.5844 2.51379 19.2032C2.46146 18.822 2.55758 18.4353 2.7823 18.1231C3.00701 17.8108 3.34313 17.5968 3.72116 17.5253C4.0992 17.4538 4.49024 17.5303 4.81346 17.739L4.93746 17.829L6.29546 18.915C6.36603 18.9716 6.45064 19.0081 6.54028 19.0204C6.62992 19.0327 6.72123 19.0205 6.80446 18.985L6.88446 18.941L7.45146 18.563C8.78346 17.675 10.4665 17.852 11.6885 18.829C11.7771 18.8998 11.8871 18.9383 12.0005 18.9383C12.1138 18.9383 12.2239 18.8998 12.3125 18.829C13.4825 17.894 15.0725 17.692 16.3735 18.453L16.5495 18.563L17.1155 18.941C17.1907 18.9912 17.2782 19.02 17.3685 19.0244C17.4588 19.0288 17.5487 19.0086 17.6285 18.966L17.7055 18.916L19.0635 17.829ZM18.5005 2.5C19.5613 2.5 20.5787 2.92143 21.3289 3.67157C22.079 4.42172 22.5005 5.43913 22.5005 6.5C22.5003 6.88522 22.3519 7.25559 22.0861 7.53439C21.8202 7.81318 21.4573 7.97901 21.0725 7.99752C20.6878 8.01604 20.3106 7.88581 20.0193 7.63382C19.7279 7.38184 19.5446 7.02742 19.5075 6.644L19.5005 6.5C19.5005 6.23478 19.3951 5.98043 19.2076 5.79289C19.02 5.60536 18.7657 5.5 18.5005 5.5C18.2352 5.5 17.9809 5.60536 17.7934 5.79289C17.6058 5.98043 17.5005 6.23478 17.5005 6.5V15C17.5005 15.014 17.5205 15.01 17.5485 15L17.6425 14.954L17.7055 14.915L19.0635 13.829C19.3748 13.5893 19.7678 13.4813 20.158 13.5283C20.5481 13.5753 20.9042 13.7736 21.1497 14.0804C21.3952 14.3872 21.5105 14.7781 21.4708 15.1691C21.4312 15.56 21.2396 15.9198 20.9375 16.171L19.5795 17.258C18.9994 17.722 18.2868 17.9895 17.5447 18.0216C16.8026 18.0538 16.0695 17.8491 15.4515 17.437L14.8855 17.059C14.7971 17.0001 14.6923 16.9709 14.5862 16.9756C14.4801 16.9803 14.3783 17.0186 14.2955 17.085C12.9885 18.13 11.1535 18.244 9.81446 17.172C9.49446 16.916 9.22546 16.995 8.95746 17.159L8.79646 17.265L8.63246 17.38C8.60546 17.4 8.57746 17.418 8.54946 17.437C7.93133 17.8489 7.19817 18.0535 6.45607 18.0212C5.71396 17.9888 5.00139 17.7212 4.42146 17.257L3.06346 16.171C2.9055 16.0494 2.77337 15.8975 2.67478 15.7243C2.5762 15.551 2.51314 15.3598 2.48929 15.1619C2.46544 14.964 2.48128 14.7633 2.53588 14.5716C2.59049 14.3798 2.68276 14.2009 2.80731 14.0453C2.93186 13.8896 3.08618 13.7604 3.26126 13.665C3.43635 13.5697 3.62867 13.5102 3.827 13.4901C4.02533 13.47 4.22568 13.4896 4.41635 13.5478C4.60701 13.6059 4.78417 13.7016 4.93746 13.829L5.50046 14.279V6.5C5.50046 5.97471 5.60392 5.45457 5.80494 4.96927C6.00596 4.48396 6.3006 4.04301 6.67203 3.67157C7.04347 3.30014 7.48443 3.0055 7.96973 2.80448C8.45503 2.60346 8.97517 2.5 9.50046 2.5C10.0257 2.5 10.5459 2.60346 11.0312 2.80448C11.5165 3.0055 11.9575 3.30014 12.3289 3.67157C12.7003 4.04301 12.995 4.48396 13.196 4.96927C13.397 5.45457 13.5005 5.97471 13.5005 6.5C13.5003 6.88522 13.3519 7.25559 13.0861 7.53439C12.8202 7.81318 12.4573 7.97901 12.0725 7.99752C11.6878 8.01604 11.3106 7.88581 11.0193 7.63382C10.7279 7.38184 10.5446 7.02742 10.5075 6.644L10.5005 6.5C10.5005 6.23478 10.3951 5.98043 10.2076 5.79289C10.02 5.60536 9.76568 5.5 9.50046 5.5C9.23525 5.5 8.98089 5.60536 8.79335 5.79289C8.60582 5.98043 8.50046 6.23478 8.50046 6.5V9.5H14.5005V6.5C14.5005 5.43913 14.9219 4.42172 15.672 3.67157C16.4222 2.92143 17.4396 2.5 18.5005 2.5ZM14.5005 12.5H8.50046V14.09C9.63946 13.79 10.7835 14.105 11.6885 14.83C11.7771 14.9008 11.8871 14.9393 12.0005 14.9393C12.1138 14.9393 12.2239 14.9008 12.3125 14.83C12.9455 14.323 13.6815 14.002 14.5005 13.977V12.5Z" fill="currentColor"/>
</svg>
