<svg width="24" height="24" viewBox="0 0 24 24" fill="none" xmlns="http://www.w3.org/2000/svg">
<path fill-rule="evenodd" clip-rule="evenodd" d="M16.4999 12C17.675 12 18.8035 12.4597 19.6441 13.2808C20.4848 14.1019 20.9709 15.2192 20.9986 16.394C21.0263 17.5687 20.5934 18.7077 19.7923 19.5675C18.9913 20.4273 17.8857 20.9396 16.7119 20.995L16.4999 21H7.49993C6.32483 21 5.19635 20.5403 4.35571 19.7192C3.51506 18.8981 3.02894 17.7808 3.00125 16.606C2.97356 15.4313 3.4065 14.2923 4.20754 13.4325C5.00857 12.5727 6.11413 12.0604 7.28793 12.005L7.49993 12H16.4999ZM6.99993 14.5C6.4695 14.5 5.96079 14.7107 5.58571 15.0858C5.21064 15.4609 4.99993 15.9696 4.99993 16.5C4.99993 17.0304 5.21064 17.5391 5.58571 17.9142C5.96079 18.2893 6.4695 18.5 6.99993 18.5C7.53036 18.5 8.03907 18.2893 8.41414 17.9142C8.78921 17.5391 8.99993 17.0304 8.99993 16.5C8.99993 15.9696 8.78921 15.4609 8.41414 15.0858C8.03907 14.7107 7.53036 14.5 6.99993 14.5ZM16.4999 2C17.675 2.00002 18.8035 2.4597 19.6441 3.28078C20.4848 4.10186 20.9709 5.2192 20.9986 6.39397C21.0263 7.56874 20.5934 8.70775 19.7923 9.56752C18.9913 10.4273 17.8857 10.9396 16.7119 10.995L16.4999 11H7.49993C6.32483 11 5.19635 10.5403 4.35571 9.71922C3.51506 8.89814 3.02894 7.7808 3.00125 6.60603C2.97356 5.43126 3.4065 4.29225 4.20754 3.43248C5.00857 2.57271 6.11413 2.06038 7.28793 2.005L7.49993 2H16.4999ZM16.9999 4.5C16.4695 4.5 15.9608 4.71071 15.5857 5.08579C15.2106 5.46086 14.9999 5.96957 14.9999 6.5C14.9999 7.03043 15.2106 7.53914 15.5857 7.91421C15.9608 8.28929 16.4695 8.5 16.9999 8.5C17.5304 8.5 18.0391 8.28929 18.4141 7.91421C18.7892 7.53914 18.9999 7.03043 18.9999 6.5C18.9999 5.96957 18.7892 5.46086 18.4141 5.08579C18.0391 4.71071 17.5304 4.5 16.9999 4.5Z" fill="currentColor"/>
</svg>
