<svg width="24" height="24" viewBox="0 0 24 24" fill="none" xmlns="http://www.w3.org/2000/svg">
<path d="M1.99999 19C1.74511 18.9997 1.49996 18.9021 1.31462 18.7271C1.12929 18.5522 1.01776 18.313 1.00282 18.0586C0.987883 17.8041 1.07067 17.5536 1.23426 17.3581C1.39785 17.1627 1.6299 17.0371 1.88299 17.007L3.04399 17C3.03099 15.094 2.46599 13.12 1.23199 11.64C1.11038 11.494 1.03289 11.3163 1.00858 11.1279C0.984276 10.9394 1.01416 10.748 1.09475 10.5759C1.17533 10.4038 1.30328 10.2582 1.4636 10.1562C1.62392 10.0542 1.80998 10 1.99999 9.99997C3.47599 9.99997 4.83799 10.41 6.05699 11.094C5.76999 9.49397 5.21699 7.90697 4.21099 6.61297C4.09417 6.46267 4.02267 6.28215 4.0049 6.09262C3.98713 5.90309 4.02382 5.71242 4.11067 5.54303C4.19752 5.37363 4.33092 5.23255 4.49519 5.13635C4.65945 5.04015 4.84776 4.99284 5.03799 4.99997C10.489 5.20997 13.98 7.27597 15.764 10.63C17.65 9.54997 19.83 8.99997 22 8.99997C22.1857 8.99997 22.3677 9.05168 22.5257 9.14932C22.6837 9.24695 22.8114 9.38665 22.8944 9.55276C22.9775 9.71886 23.0126 9.90481 22.996 10.0898C22.9793 10.2747 22.9114 10.4514 22.8 10.6C21.172 12.77 20.687 15.03 20.863 17H22C22.2535 17.0022 22.4967 17.1007 22.6804 17.2755C22.864 17.4502 22.9745 17.6882 22.9893 17.9413C23.0042 18.1944 22.9224 18.4437 22.7604 18.6387C22.5985 18.8338 22.3685 18.96 22.117 18.992L1.99999 19Z" fill="currentColor"/>
</svg>
