<svg width="24" height="24" viewBox="0 0 24 24" fill="none" xmlns="http://www.w3.org/2000/svg">
<path fill-rule="evenodd" clip-rule="evenodd" d="M5.70664 3.87895C6.26911 3.31631 7.03205 3.00012 7.82764 2.99995C8.61764 2.99995 9.77564 2.77995 10.1296 3.71095C10.274 4.09 10.5301 4.41623 10.8641 4.64641C11.198 4.87659 11.594 4.99984 11.9996 4.99984C12.4052 4.99984 12.8013 4.87659 13.1352 4.64641C13.4692 4.41623 13.7253 4.09 13.8696 3.71095C14.2236 2.78095 15.3826 3.00095 16.1716 3.00095C16.9667 3.00112 17.7292 3.31692 18.2916 3.87895L21.9996 7.58595C22.3746 7.96101 22.5852 8.46963 22.5852 8.99995C22.5852 9.53028 22.3746 10.0389 21.9996 10.414L20.5216 11.892C20.0016 12.412 19.2756 12.581 18.6216 12.418L18.8936 17.85C18.914 18.256 18.8515 18.662 18.7102 19.0432C18.5688 19.4244 18.3514 19.7729 18.0712 20.0675C17.791 20.3621 17.4538 20.5966 17.0802 20.7569C16.7065 20.9172 16.3042 20.9999 15.8976 21H8.10164C7.69506 20.9999 7.29273 20.9172 6.91909 20.7569C6.54545 20.5966 6.20829 20.3621 5.92809 20.0675C5.64789 19.7729 5.4305 19.4244 5.28911 19.0432C5.14773 18.662 5.08531 18.256 5.10564 17.85L5.37764 12.418C5.0425 12.5023 4.69121 12.4981 4.35816 12.4059C4.02511 12.3137 3.7217 12.1366 3.47764 11.892L1.99964 10.414C1.62469 10.0389 1.41406 9.53028 1.41406 8.99995C1.41406 8.46963 1.62469 7.96101 1.99964 7.58595L5.70664 3.87895Z" fill="currentColor"/>
</svg>
