<svg width="24" height="24" viewBox="0 0 24 24" fill="none" xmlns="http://www.w3.org/2000/svg">
<path d="M11 16V21H5C4.49542 21.0002 4.00943 20.8096 3.63945 20.4665C3.26947 20.1234 3.04284 19.6532 3.005 19.15L3 19V16H11ZM21 16V19C21.0002 19.5046 20.8096 19.9906 20.4665 20.3605C20.1234 20.7305 19.6532 20.9572 19.15 20.995L19 21H13V16H21ZM11 10V14H3V10H11ZM21 10V14H13V10H21ZM11 3V8H3V5C2.99984 4.49542 3.19041 4.00943 3.5335 3.63945C3.87659 3.26947 4.34684 3.04284 4.85 3.005L5 3H11ZM19 3C19.5304 3 20.0391 3.21071 20.4142 3.58579C20.7893 3.96086 21 4.46957 21 5V8H13V3H19Z" fill="currentColor"/>
</svg>
