<svg width="24" height="24" viewBox="0 0 24 24" fill="none" xmlns="http://www.w3.org/2000/svg">
<path d="M10.238 4.82702C10.6321 4.82698 11.0223 4.90458 11.3864 5.0554C11.7505 5.20623 12.0813 5.42731 12.36 5.70602L18.845 12.191C19.1236 12.4696 19.3446 12.8003 19.4954 13.1644C19.6462 13.5284 19.7238 13.9185 19.7238 14.3125C19.7238 14.7065 19.6462 15.0967 19.4954 15.4607C19.3446 15.8247 19.1236 16.1554 18.845 16.434L14.602 20.676C14.0394 21.2384 13.2765 21.5544 12.481 21.5544C11.6855 21.5544 10.9226 21.2384 10.36 20.676L3.87397 14.191C3.31169 13.6284 2.99588 12.8655 2.99597 12.07V7.32702C2.99597 6.66398 3.25936 6.0281 3.7282 5.55926C4.19705 5.09042 4.83293 4.82702 5.49597 4.82702H10.238ZM9.65197 9.36302C9.51465 9.21565 9.34905 9.09745 9.16505 9.01546C8.98105 8.93348 8.78242 8.88939 8.58102 8.88584C8.37961 8.88229 8.17955 8.91934 7.99278 8.99478C7.806 9.07022 7.63633 9.18251 7.4939 9.32495C7.35146 9.46738 7.23917 9.63705 7.16373 9.82383C7.08828 10.0106 7.05124 10.2107 7.05479 10.4121C7.05834 10.6135 7.10243 10.8121 7.18441 10.9961C7.26639 11.1801 7.3846 11.3457 7.53197 11.483C7.81632 11.748 8.19241 11.8922 8.58102 11.8854C8.96962 11.8785 9.34039 11.7211 9.61522 11.4463C9.89004 11.1714 10.0475 10.8007 10.0543 10.4121C10.0612 10.0235 9.91693 9.64737 9.65197 9.36302ZM11.652 1.99902C12.3792 1.99887 13.0818 2.26291 13.629 2.74202L13.774 2.87702L20.966 10.07C21.1453 10.25 21.2494 10.4915 21.2572 10.7454C21.265 10.9994 21.1758 11.2467 21.0077 11.4373C20.8397 11.6279 20.6054 11.7473 20.3525 11.7714C20.0996 11.7955 19.847 11.7224 19.646 11.567L19.552 11.484L12.36 4.29002C12.2044 4.1346 12.002 4.03479 11.784 4.00602L11.652 4.00002H6.99997C6.74354 4.00205 6.49612 3.90548 6.30886 3.73028C6.1216 3.55508 6.00881 3.31463 5.99378 3.05863C5.97876 2.80263 6.06267 2.55064 6.22815 2.35474C6.39364 2.15884 6.62806 2.034 6.88297 2.00602L6.99997 2.00002L11.652 1.99902Z" fill="currentColor"/>
</svg>
