<svg width="24" height="24" viewBox="0 0 24 24" fill="none" xmlns="http://www.w3.org/2000/svg">
<path fill-rule="evenodd" clip-rule="evenodd" d="M10.537 2.16395C10.9407 2.12722 11.3477 2.1727 11.7334 2.29765C12.1191 2.4226 12.4755 2.62443 12.781 2.89095L12.931 3.03095L20.753 10.854C21.2913 11.3924 21.6048 12.1153 21.6298 12.8763C21.6549 13.6372 21.3897 14.3793 20.888 14.952L20.753 15.096L15.096 20.753C14.5576 21.2913 13.8346 21.6047 13.0736 21.6298C12.3127 21.6549 11.5707 21.3897 10.998 20.888L10.854 20.753L3.02998 12.93C2.74346 12.6434 2.51795 12.3019 2.36705 11.9258C2.21615 11.5498 2.14299 11.147 2.15198 10.742L2.16299 10.537L2.63498 5.35195C2.69558 4.68374 2.97844 4.05512 3.43834 3.56658C3.89824 3.07803 4.50864 2.75776 5.17198 2.65695L5.35098 2.63595L10.537 2.16395ZM8.02399 8.02495C7.83823 8.21071 7.69088 8.43123 7.59035 8.67393C7.48982 8.91663 7.43808 9.17676 7.43808 9.43945C7.43808 9.70215 7.48982 9.96228 7.59035 10.205C7.69088 10.4477 7.83823 10.6682 8.02399 10.854C8.20974 11.0397 8.43026 11.1871 8.67296 11.2876C8.91566 11.3881 9.17579 11.4399 9.43849 11.4399C9.70118 11.4399 9.96131 11.3881 10.204 11.2876C10.4467 11.1871 10.6672 11.0397 10.853 10.854C11.2281 10.4788 11.4389 9.96999 11.4389 9.43945C11.4389 8.90891 11.2281 8.4001 10.853 8.02495C10.4778 7.6498 9.96903 7.43905 9.43849 7.43905C8.90795 7.43905 8.39913 7.6498 8.02399 8.02495Z" fill="currentColor"/>
</svg>
