<svg width="24" height="24" viewBox="0 0 24 24" fill="none" xmlns="http://www.w3.org/2000/svg">
<path fill-rule="evenodd" clip-rule="evenodd" d="M12 2C12.2078 1.99993 12.4105 2.06461 12.5798 2.18504C12.7492 2.30548 12.8768 2.47568 12.945 2.672L12.976 2.783C13.126 3.461 13.564 3.799 14.12 4.096L14.563 4.321C15.207 4.642 16.051 5.099 16.768 5.959C17.5594 6.89275 17.9957 8.07597 18 9.3C18 10.097 17.815 10.855 17.484 11.537C17.4165 11.6709 17.3396 11.7999 17.254 11.923L17 12.296V19H19V14C19 13.883 19.02 13.77 19.057 13.666C18.883 13.5256 18.7426 13.348 18.6462 13.1462C18.5498 12.9444 18.4999 12.7236 18.5 12.5C18.5 12.19 18.64 11.69 18.843 11.187L18.986 10.853C19.312 10.137 19.729 9.5 20 9.5C20.27 9.5 20.688 10.137 21.014 10.853L21.157 11.187C21.359 11.69 21.5 12.189 21.5 12.5C21.5 12.971 21.283 13.392 20.943 13.666C20.968 13.736 20.985 13.809 20.993 13.885L21 14V19C21.2549 19.0003 21.5 19.0979 21.6854 19.2728C21.8707 19.4478 21.9822 19.687 21.9972 19.9414C22.0121 20.1958 21.9293 20.4464 21.7657 20.6418C21.6021 20.8373 21.3701 20.9629 21.117 20.993L21 21H2.99999C2.74511 20.9997 2.49996 20.9021 2.31462 20.7272C2.12929 20.5522 2.01776 20.313 2.00282 20.0586C1.98788 19.8042 2.07067 19.5536 2.23426 19.3582C2.39785 19.1627 2.62989 19.0371 2.88299 19.007L2.99999 19V14C2.99999 13.883 3.01999 13.77 3.05699 13.666C2.88296 13.5256 2.74259 13.348 2.6462 13.1462C2.54981 12.9444 2.49985 12.7236 2.49999 12.5C2.49999 12.19 2.63999 11.69 2.84299 11.187L2.98599 10.853C3.31199 10.137 3.72899 9.5 3.99999 9.5C4.26999 9.5 4.68799 10.137 5.01399 10.853L5.15699 11.187C5.35899 11.69 5.49999 12.189 5.49999 12.5C5.49999 12.971 5.28299 13.392 4.94299 13.666C4.96799 13.736 4.98499 13.809 4.99299 13.885L4.99999 14V19H6.99999V12.296L6.74599 11.923C6.66039 11.7999 6.58354 11.6709 6.51599 11.537C6.17638 10.8402 5.99992 10.0752 5.99999 9.3C5.99999 8.035 6.46599 6.877 7.23199 5.96C7.88899 5.172 8.65199 4.723 9.27099 4.406L9.59199 4.245C10.232 3.928 10.766 3.622 10.98 2.945L11.024 2.783C11.0734 2.56094 11.197 2.36234 11.3744 2.21999C11.5518 2.07764 11.7725 2.00004 12 2ZM12 14C11.75 14 11 15 11 15.5V19H13V15.5C13 15 12.25 14 12 14Z" fill="currentColor"/>
</svg>
