<svg width="24" height="24" viewBox="0 0 24 24" fill="none" xmlns="http://www.w3.org/2000/svg">
<path fill-rule="evenodd" clip-rule="evenodd" d="M7 7C7 6.20435 7.31607 5.44129 7.87868 4.87868C8.44129 4.31607 9.20435 4 10 4H11.53C12.5031 3.99998 13.455 4.28378 14.2692 4.81664C15.0834 5.34949 15.7245 6.10827 16.114 7H20C20.2652 7 20.5196 7.10536 20.7071 7.29289C20.8946 7.48043 21 7.73478 21 8C21 8.26522 20.8946 8.51957 20.7071 8.70711C20.5196 8.89464 20.2652 9 20 9H16.582L16.867 11H17.5C18.6935 11 19.8381 11.4741 20.682 12.318C21.5259 13.1619 22 14.3065 22 15.5C22 16.6935 21.5259 17.8381 20.682 18.682C19.8381 19.5259 18.6935 20 17.5 20H6.5C5.30653 20 4.16193 19.5259 3.31802 18.682C2.47411 17.8381 2 16.6935 2 15.5C2 14.3065 2.47411 13.1619 3.31802 12.318C4.16193 11.4741 5.30653 11 6.5 11H7V7Z" fill="currentColor"/>
</svg>
