<svg width="24" height="24" viewBox="0 0 24 24" fill="none" xmlns="http://www.w3.org/2000/svg">
<path fill-rule="evenodd" clip-rule="evenodd" d="M15 2C15.3511 2.00001 15.6959 2.09243 16 2.26796C16.304 2.4435 16.5565 2.69597 16.732 3H18C18.5304 3 19.0391 3.21071 19.4142 3.58579C19.7893 3.96086 20 4.46957 20 5V17C20 18.3261 19.4732 19.5979 18.5355 20.5355C17.5979 21.4732 16.3261 22 15 22H6C5.46957 22 4.96086 21.7893 4.58579 21.4142C4.21071 21.0391 4 20.5304 4 20V5C4 4.46957 4.21071 3.96086 4.58579 3.58579C4.96086 3.21071 5.46957 3 6 3H7.268C7.44353 2.69597 7.696 2.4435 8.00003 2.26796C8.30406 2.09243 8.64894 2.00001 9 2H15ZM14.824 9.379L10.582 13.622L9.167 12.207C8.9784 12.0248 8.7258 11.924 8.4636 11.9263C8.2014 11.9286 7.95059 12.0338 7.76518 12.2192C7.57977 12.4046 7.4746 12.6554 7.47233 12.9176C7.47005 13.1798 7.57084 13.4324 7.753 13.621L9.803 15.672C9.90515 15.7742 10.0264 15.8553 10.1599 15.9106C10.2934 15.9659 10.4365 15.9944 10.581 15.9944C10.7255 15.9944 10.8686 15.9659 11.0021 15.9106C11.1356 15.8553 11.2568 15.7742 11.359 15.672L16.239 10.793C16.3318 10.7001 16.4055 10.5898 16.4557 10.4684C16.5059 10.3471 16.5317 10.217 16.5317 10.0856C16.5317 9.9543 16.5057 9.82424 16.4554 9.70291C16.4051 9.58158 16.3314 9.47134 16.2385 9.3785C16.1456 9.28566 16.0353 9.21202 15.9139 9.1618C15.7926 9.11158 15.6625 9.08575 15.5311 9.0858C15.3998 9.08584 15.2697 9.11176 15.1484 9.16207C15.0271 9.21238 14.9168 9.28609 14.824 9.379ZM14.5 4H9.5C9.38297 3.99996 9.26964 4.04097 9.17974 4.11589C9.08984 4.19081 9.02907 4.29489 9.008 4.41L9 4.5V5.5C8.99996 5.61703 9.04097 5.73036 9.11589 5.82026C9.19081 5.91016 9.29489 5.97094 9.41 5.992L9.5 6H14.5C14.617 6.00004 14.7304 5.95903 14.8203 5.88411C14.9102 5.80919 14.9709 5.70511 14.992 5.59L15 5.5V4.5C15 4.38297 14.959 4.26964 14.8841 4.17974C14.8092 4.08984 14.7051 4.02906 14.59 4.008L14.5 4Z" fill="currentColor"/>
</svg>
