<svg width="24" height="24" viewBox="0 0 24 24" fill="none" xmlns="http://www.w3.org/2000/svg">
<path d="M17 4C17.5304 4 18.0391 4.21071 18.4142 4.58579C18.7893 4.96086 19 5.46957 19 6V8.035C19.8771 8.15997 20.6742 8.61292 21.2304 9.30249C21.7867 9.99206 22.0608 10.8669 21.9973 11.7506C21.9339 12.6343 21.5377 13.4611 20.8886 14.0641C20.2396 14.6671 19.386 15.0016 18.5 15H17.712C16.9224 16.2625 15.8165 17.2967 14.504 18H17C17.2652 18 17.5196 18.1054 17.7071 18.2929C17.8946 18.4804 18 18.7348 18 19C18 19.2652 17.8946 19.5196 17.7071 19.7071C17.5196 19.8946 17.2652 20 17 20H4C3.73478 20 3.48043 19.8946 3.29289 19.7071C3.10536 19.5196 3 19.2652 3 19C3 18.7348 3.10536 18.4804 3.29289 18.2929C3.48043 18.1054 3.73478 18 4 18H6.496C5.13735 17.2746 4.00136 16.1936 3.20945 14.8726C2.41755 13.5516 1.9995 12.0402 2 10.5V6C2 5.46957 2.21071 4.96086 2.58579 4.58579C2.96086 4.21071 3.46957 4 4 4H17ZM19 10.085V10.5C19 11.368 18.87 12.206 18.628 12.995C18.9577 12.967 19.269 12.8308 19.5132 12.6075C19.7575 12.3842 19.921 12.0865 19.9784 11.7605C20.0358 11.4346 19.9839 11.0989 19.8306 10.8056C19.6773 10.5123 19.4313 10.2779 19.131 10.139L19 10.085Z" fill="currentColor"/>
</svg>
