<svg width="24" height="24" viewBox="0 0 24 24" fill="none" xmlns="http://www.w3.org/2000/svg">
<path d="M14.2101 14.287C14.487 14.3913 14.7835 14.4328 15.0783 14.4086C15.3732 14.3844 15.659 14.2951 15.9151 14.147L21.1111 11.147C21.5705 10.8818 21.9056 10.445 22.0429 9.93263C22.1802 9.42028 22.1083 8.87439 21.8431 8.41503L19.3431 4.08503C19.0779 3.62568 18.641 3.29051 18.1287 3.15323C17.6164 3.01595 17.0705 3.08782 16.6111 3.35303L11.4151 6.35303C11.1083 6.53016 10.854 6.78562 10.6783 7.09328C10.5026 7.40094 10.4118 7.74975 10.4151 8.10403C10.3354 8.13736 10.2579 8.17577 10.1831 8.21903L5.85311 10.719C5.54627 10.8962 5.29199 11.1516 5.11629 11.4593C4.94058 11.7669 4.84976 12.1157 4.85311 12.47C4.77337 12.5033 4.69588 12.5417 4.6211 12.585L2.88911 13.585C2.42976 13.8503 2.09458 14.2871 1.95731 14.7994C1.82003 15.3118 1.8919 15.8577 2.15711 16.317L2.65711 17.183C2.92233 17.6424 3.35916 17.9775 3.87151 18.1148C4.38385 18.2521 4.92975 18.1802 5.38911 17.915L7.1211 16.915C7.1971 16.871 7.26811 16.823 7.3361 16.772C7.64127 16.9523 7.98884 17.0482 8.34325 17.0499C8.69766 17.0517 9.04617 16.9592 9.3531 16.782L11.1701 15.732L9.0801 20.606C9.02836 20.7268 9.00093 20.8567 8.99936 20.9881C8.99779 21.1195 9.02212 21.25 9.07097 21.372C9.16961 21.6184 9.36211 21.8155 9.6061 21.92C9.8501 22.0245 10.1256 22.0278 10.372 21.9292C10.6185 21.8305 10.8156 21.638 10.9201 21.394L13.0001 16.539L15.0801 21.394C15.1846 21.638 15.3817 21.8305 15.6282 21.9292C15.8746 22.0278 16.1501 22.0245 16.3941 21.92C16.6381 21.8155 16.8306 21.6184 16.9292 21.372C17.0279 21.1255 17.0246 20.85 16.9201 20.606L14.2101 14.287Z" fill="currentColor"/>
</svg>
