<svg width="24" height="24" viewBox="0 0 24 24" fill="none" xmlns="http://www.w3.org/2000/svg">
<path fill-rule="evenodd" clip-rule="evenodd" d="M8.5 3C9.16304 3 9.79892 3.26339 10.2678 3.73223C10.7366 4.20107 11 4.83696 11 5.5V7H13V5.5C12.9999 4.86528 13.2412 4.25429 13.675 3.79095C14.1088 3.32762 14.7026 3.04664 15.336 3.005L15.559 3C16.1884 3.0002 16.8019 3.19837 17.3124 3.56645C17.823 3.93454 18.2049 4.45389 18.404 5.051L21.606 14.656C21.8805 15.268 22.0147 15.9337 21.9987 16.6043C21.9828 17.2748 21.8172 17.9333 21.5139 18.5317C21.2107 19.13 20.7776 19.6529 20.2462 20.0623C19.7148 20.4716 19.0987 20.757 18.4428 20.8975C17.7869 21.0381 17.1079 21.0302 16.4555 20.8745C15.8031 20.7188 15.1937 20.4192 14.6719 19.9977C14.1502 19.5761 13.7293 19.0433 13.44 18.4381C13.1507 17.8329 13.0004 17.1708 13 16.5V9H11V16.5C10.9996 17.1708 10.8493 17.8329 10.56 18.4381C10.2707 19.0433 9.84981 19.5761 9.32807 19.9977C8.80632 20.4192 8.19694 20.7188 7.5445 20.8745C6.89206 21.0302 6.21306 21.0381 5.55719 20.8975C4.90132 20.757 4.28516 20.4716 3.75378 20.0623C3.22241 19.6529 2.78927 19.13 2.48605 18.5317C2.18283 17.9333 2.0172 17.2748 2.00127 16.6043C1.98534 15.9337 2.11952 15.268 2.394 14.656L5.595 5.051C5.78435 4.48344 6.13908 3.98547 6.61361 3.62106C7.08815 3.25665 7.6608 3.04246 8.258 3.006L8.5 3ZM6.5 14C5.145 14 4 15.149 4 16.5C4 16.9945 4.14662 17.4778 4.42133 17.8889C4.69603 18.3 5.08648 18.6205 5.54329 18.8097C6.00011 18.9989 6.50277 19.0484 6.98773 18.952C7.47268 18.8555 7.91814 18.6174 8.26777 18.2678C8.6174 17.9181 8.8555 17.4727 8.95196 16.9877C9.04843 16.5028 8.99892 16.0001 8.8097 15.5433C8.62048 15.0865 8.30005 14.696 7.88893 14.4213C7.4778 14.1466 6.99445 14 6.5 14ZM17.5 14C17.0055 14 16.5222 14.1466 16.1111 14.4213C15.7 14.696 15.3795 15.0865 15.1903 15.5433C15.0011 16.0001 14.9516 16.5028 15.048 16.9877C15.1445 17.4727 15.3826 17.9181 15.7322 18.2678C16.0819 18.6174 16.5273 18.8555 17.0123 18.952C17.4972 19.0484 17.9999 18.9989 18.4567 18.8097C18.9135 18.6205 19.304 18.3 19.5787 17.8889C19.8534 17.4778 20 16.9945 20 16.5C20 15.149 18.855 14 17.5 14Z" fill="currentColor"/>
</svg>
