<svg width="24" height="24" viewBox="0 0 24 24" fill="none" xmlns="http://www.w3.org/2000/svg">
<path d="M19.705 15.854L19.145 19.216C19.008 20.036 18.535 21.008 17.457 21.366L17.173 21.455L17.018 21.498L16.676 21.583C16.435 21.638 16.166 21.691 15.867 21.739L15.395 21.809C14.733 21.895 13.943 21.959 13 21.986V20C13 19.7348 12.8946 19.4804 12.7071 19.2929C12.5196 19.1054 12.2652 19 12 19C11.7348 19 11.4804 19.1054 11.2929 19.2929C11.1054 19.4804 11 19.7348 11 20V21.986C10.1992 21.9671 9.39982 21.9076 8.605 21.808L8.133 21.739C7.833 21.691 7.565 21.639 7.323 21.583L6.983 21.498L6.68 21.411C6.63419 21.3968 6.58852 21.3821 6.543 21.367C5.465 21.008 4.993 20.035 4.856 19.217L4.296 15.854C4.668 16 5.037 16.115 5.361 16.208C7.102 16.706 9.45 17 12 17C14.55 17 16.898 16.706 18.639 16.208C18.9996 16.1065 19.3553 15.9884 19.705 15.854ZM12 2C12.2652 2 12.5196 2.10536 12.7071 2.29289C12.8946 2.48043 13 2.73478 13 3C13 4.39 14.01 5.137 14.947 5.606C15.245 5.755 15.562 5.885 15.885 6.011L16.535 6.262C17.184 6.518 17.822 6.798 18.345 7.227C18.647 7.473 19 7.89 19 8.5C19 8.994 18.802 9.38 18.53 9.68L18.98 9.808L19.3 9.908L19.63 10.022C20.79 10.444 22 11.144 22 12.427C22 13.616 20.952 14.334 19.877 14.784L19.554 14.911C19.501 14.931 19.448 14.951 19.394 14.969L19.081 15.074L18.781 15.166L18.639 15.208C16.898 15.706 14.55 16 12 16C9.619 16 7.416 15.743 5.717 15.305L5.218 15.166L4.918 15.074L4.605 14.969C4.5515 14.9501 4.49817 14.9308 4.445 14.911L4.123 14.784C3.048 14.334 2 13.616 2 12.427C2 11.144 3.21 10.444 4.37 10.022L4.7 9.908L5.02 9.808L5.47 9.68C5.16765 9.3616 4.99936 8.93909 5 8.5C5 7.89 5.353 7.473 5.654 7.227C6.176 6.8 6.814 6.519 7.463 6.264L8.113 6.012C8.436 5.886 8.753 5.755 9.053 5.606C9.943 5.161 10.899 4.463 10.993 3.204L11 3C11 2.73478 11.1054 2.48043 11.2929 2.29289C11.4804 2.10536 11.7348 2 12 2Z" fill="currentColor"/>
</svg>
