<svg width="24" height="24" viewBox="0 0 24 24" fill="none" xmlns="http://www.w3.org/2000/svg">
<path d="M15 4H8.99997C8.80026 3.99943 8.60498 4.05891 8.4395 4.17071C8.27401 4.28252 8.14596 4.4415 8.07197 4.627L2.07997 18.607C2.01496 18.7591 1.9887 18.925 2.00355 19.0898C2.0184 19.2545 2.0739 19.4131 2.16507 19.5511C2.25625 19.6892 2.38024 19.8024 2.52595 19.8808C2.67167 19.9591 2.83454 20.0001 2.99997 20H7.99997V15C7.99997 14.7348 8.10533 14.4804 8.29287 14.2929C8.4804 14.1054 8.73476 14 8.99997 14C9.26519 14 9.51954 14.1054 9.70708 14.2929C9.89462 14.4804 9.99997 14.7348 9.99997 15V20H21C21.1655 20.0002 21.3285 19.9592 21.4744 19.8808C21.6202 19.8024 21.7443 19.689 21.8355 19.5508C21.9267 19.4126 21.9821 19.254 21.9969 19.0891C22.0116 18.9242 21.9852 18.7582 21.92 18.606L15.92 4.606C15.8428 4.426 15.7145 4.27262 15.5509 4.16489C15.3874 4.05716 15.1958 3.99983 15 4Z" fill="currentColor"/>
</svg>
