<svg width="24" height="24" viewBox="0 0 24 24" fill="none" xmlns="http://www.w3.org/2000/svg">
<path fill-rule="evenodd" clip-rule="evenodd" d="M19 3C19.5304 3 20.0391 3.21071 20.4142 3.58579C20.7893 3.96086 21 4.46957 21 5V19C21 19.5304 20.7893 20.0391 20.4142 20.4142C20.0391 20.7893 19.5304 21 19 21H5C4.46957 21 3.96086 20.7893 3.58579 20.4142C3.21071 20.0391 3 19.5304 3 19V5C3 4.46957 3.21071 3.96086 3.58579 3.58579C3.96086 3.21071 4.46957 3 5 3H19ZM16 14H14C13.7348 14 13.4804 14.1054 13.2929 14.2929C13.1054 14.4804 13 14.7348 13 15C13 15.2652 13.1054 15.5196 13.2929 15.7071C13.4804 15.8946 13.7348 16 14 16H16C16.2652 16 16.5196 15.8946 16.7071 15.7071C16.8946 15.5196 17 15.2652 17 15C17 14.7348 16.8946 14.4804 16.7071 14.2929C16.5196 14.1054 16.2652 14 16 14ZM9.05 8.465C8.87004 8.28565 8.62857 8.18153 8.37462 8.17377C8.12067 8.16602 7.87329 8.25522 7.68272 8.42325C7.49216 8.59128 7.37269 8.82555 7.3486 9.07847C7.32451 9.3314 7.39759 9.58401 7.553 9.785L7.636 9.879L9.757 12L7.637 14.121C7.45575 14.3005 7.34997 14.5426 7.34132 14.7975C7.33267 15.0525 7.4218 15.3012 7.59047 15.4926C7.75913 15.684 7.99458 15.8037 8.24862 15.8272C8.50266 15.8507 8.75608 15.7762 8.957 15.619L9.05 15.536L11.879 12.707C12.0512 12.5348 12.1546 12.3057 12.1699 12.0627C12.1852 11.8197 12.1113 11.5794 11.962 11.387L11.879 11.293L9.05 8.465Z" fill="currentColor"/>
</svg>
