<svg width="24" height="24" viewBox="0 0 24 24" fill="none" xmlns="http://www.w3.org/2000/svg">
<path d="M19.9999 16.5C20.3852 16.4999 20.7557 16.6482 21.0347 16.9139C21.3137 17.1797 21.4797 17.5426 21.4984 17.9274C21.517 18.3123 21.3869 18.6895 21.1349 18.981C20.8829 19.2725 20.5284 19.4558 20.1449 19.493L19.9999 19.5H11.9999C11.6147 19.4998 11.2443 19.3514 10.9655 19.0856C10.6867 18.8198 10.5209 18.4569 10.5024 18.0721C10.4838 17.6873 10.6141 17.3102 10.8661 17.0188C11.118 16.7274 11.4725 16.5442 11.8559 16.507L11.9999 16.5H19.9999ZM3.28288 5.28301C3.54538 5.02055 3.89587 4.86475 4.26659 4.84572C4.6373 4.8267 5.0019 4.9458 5.28988 5.18001L5.40388 5.28301L11.0609 10.94C11.3233 11.2025 11.4791 11.553 11.4982 11.9237C11.5172 12.2944 11.3981 12.659 11.1639 12.947L11.0609 13.061L5.40388 18.718C5.1321 18.9908 4.76583 19.1486 4.38091 19.1587C3.99599 19.1689 3.6219 19.0307 3.3361 18.7726C3.0503 18.5146 2.87467 18.1565 2.84559 17.7725C2.81652 17.3886 2.93621 17.0082 3.17988 16.71L3.28288 16.596L7.87888 12L3.28288 7.40401C3.00168 7.12272 2.8437 6.74126 2.8437 6.34351C2.8437 5.94577 3.00168 5.5643 3.28288 5.28301Z" fill="currentColor"/>
</svg>
