<svg width="24" height="24" viewBox="0 0 24 24" fill="none" xmlns="http://www.w3.org/2000/svg">
<path d="M12 2C17.523 2 22 6.477 22 12C22 17.523 17.523 22 12 22C6.477 22 2 17.523 2 12C2 6.477 6.477 2 12 2ZM12 11C11.2044 11 10.4413 11.3161 9.87868 11.8787C9.31607 12.4413 9 13.2044 9 14V15C9 15.7956 9.31607 16.5587 9.87868 17.1213C10.4413 17.6839 11.2044 18 12 18C12.7956 18 13.5587 17.6839 14.1213 17.1213C14.6839 16.5587 15 15.7956 15 15V14C15 13.2044 14.6839 12.4413 14.1213 11.8787C13.5587 11.3161 12.7956 11 12 11ZM12 13C12.2652 13 12.5196 13.1054 12.7071 13.2929C12.8946 13.4804 13 13.7348 13 14V15C13 15.2652 12.8946 15.5196 12.7071 15.7071C12.5196 15.8946 12.2652 16 12 16C11.7348 16 11.4804 15.8946 11.2929 15.7071C11.1054 15.5196 11 15.2652 11 15V14C11 13.7348 11.1054 13.4804 11.2929 13.2929C11.4804 13.1054 11.7348 13 12 13ZM8.422 7.276C7.962 7.391 7.527 7.659 7.177 8.009C6.827 8.359 6.559 8.794 6.444 9.254C6.334 9.691 6.331 10.345 6.824 10.837C7.316 11.33 7.97 11.326 8.407 11.217C8.867 11.102 9.301 10.834 9.652 10.484C10.002 10.134 10.27 9.699 10.384 9.239C10.494 8.802 10.498 8.148 10.005 7.655C9.513 7.163 8.859 7.167 8.422 7.276ZM13.995 7.656C13.502 8.148 13.506 8.802 13.615 9.239C13.73 9.699 13.998 10.134 14.348 10.484C14.698 10.834 15.133 11.102 15.593 11.217C16.03 11.326 16.684 11.33 17.177 10.837C17.669 10.345 17.665 9.691 17.556 9.254C17.441 8.794 17.173 8.359 16.823 8.009C16.473 7.659 16.038 7.391 15.578 7.276C15.141 7.167 14.488 7.163 13.995 7.656Z" fill="currentColor"/>
</svg>
