<svg width="24" height="24" viewBox="0 0 24 24" fill="none" xmlns="http://www.w3.org/2000/svg">
<path d="M12 3C12.768 3 13.47 3.289 14 3.764C14.5495 3.27112 15.2619 2.99898 16 3H17C17.2652 3 17.5196 3.10536 17.7071 3.2929C17.8947 3.48043 18 3.73479 18 4C18 4.26522 17.8947 4.51957 17.7071 4.70711C17.5196 4.89465 17.2652 5 17 5H16C15.7348 5 15.4804 5.10536 15.2929 5.2929C15.1054 5.48043 15 5.73479 15 6V18C15 18.2652 15.1054 18.5196 15.2929 18.7071C15.4804 18.8946 15.7348 19 16 19H17C17.2652 19 17.5196 19.1054 17.7071 19.2929C17.8947 19.4804 18 19.7348 18 20C18 20.2652 17.8947 20.5196 17.7071 20.7071C17.5196 20.8946 17.2652 21 17 21H16C15.232 21 14.53 20.711 14 20.236C13.4505 20.7289 12.7381 21.001 12 21H11C10.7348 21 10.4804 20.8946 10.2929 20.7071C10.1054 20.5196 10 20.2652 10 20C10 19.7348 10.1054 19.4804 10.2929 19.2929C10.4804 19.1054 10.7348 19 11 19H12C12.2652 19 12.5196 18.8946 12.7071 18.7071C12.8947 18.5196 13 18.2652 13 18V6C13 5.73479 12.8947 5.48043 12.7071 5.2929C12.5196 5.10536 12.2652 5 12 5H11C10.7348 5 10.4804 4.89465 10.2929 4.70711C10.1054 4.51957 10 4.26522 10 4C10 3.73479 10.1054 3.48043 10.2929 3.2929C10.4804 3.10536 10.7348 3 11 3H12ZM12 8V17H5.00001C4.46958 17 3.96087 16.7893 3.5858 16.4142C3.21073 16.0391 3.00001 15.5304 3.00001 15V11.51L3.03201 11.591L3.16101 11.97C3.36329 12.5623 3.74575 13.0765 4.25484 13.4406C4.76392 13.8047 5.37413 14.0004 6.00001 14.0004C6.62589 14.0004 7.2361 13.8047 7.74519 13.4406C8.25427 13.0765 8.63673 12.5623 8.83901 11.97L8.96901 11.591C9.01829 11.4466 9.09996 11.3154 9.20777 11.2074C9.31558 11.0994 9.44667 11.0175 9.59101 10.968L9.96901 10.839C10.5614 10.6368 11.0757 10.2544 11.4399 9.74531C11.8041 9.23622 12 8.62596 12 8ZM19 7C19.5046 6.99984 19.9906 7.19041 20.3606 7.5335C20.7305 7.87659 20.9572 8.34685 20.995 8.85L21 9V15C21.0002 15.5046 20.8096 15.9906 20.4665 16.3606C20.1234 16.7305 19.6532 16.9572 19.15 16.995L19 17H16V7H19ZM6.00001 4C6.18709 4 6.37042 4.05248 6.52916 4.15147C6.68791 4.25047 6.8157 4.39201 6.89801 4.56L6.94601 4.677L7.07601 5.055C7.21321 5.45719 7.43429 5.82563 7.72461 6.13595C8.01492 6.44626 8.36785 6.69135 8.76001 6.855L8.94501 6.925L9.32301 7.054C9.51015 7.11798 9.67411 7.236 9.79418 7.39316C9.91424 7.55032 9.98501 7.73954 9.99753 7.93692C10.0101 8.13429 9.96377 8.33094 9.86453 8.50202C9.7653 8.67309 9.61756 8.81089 9.44001 8.898L9.32301 8.946L8.94501 9.076C8.54283 9.2132 8.17438 9.43428 7.86407 9.7246C7.55376 10.0149 7.30866 10.3678 7.14501 10.76L7.07501 10.945L6.94601 11.323C6.88215 11.5102 6.76421 11.6742 6.60712 11.7944C6.45002 11.9146 6.26082 11.9854 6.06344 11.9981C5.86605 12.0107 5.66936 11.9645 5.49823 11.8654C5.3271 11.7662 5.18921 11.6185 5.10201 11.441L5.05401 11.323L4.92401 10.945C4.78681 10.5428 4.56573 10.1744 4.27542 9.86406C3.9851 9.55375 3.63218 9.30865 3.24001 9.145L3.05501 9.075L2.67701 8.946C2.48987 8.88203 2.32591 8.764 2.20585 8.60685C2.08579 8.44969 2.01502 8.26046 2.0025 8.06309C1.98997 7.86572 2.03625 7.66906 2.13549 7.49799C2.23473 7.32692 2.38246 7.18912 2.56001 7.102L2.67701 7.054L3.05501 6.924C3.4572 6.7868 3.82564 6.56572 4.13595 6.27541C4.44627 5.9851 4.69136 5.63217 4.85501 5.24L4.92501 5.055L5.05401 4.677C5.12139 4.47959 5.24881 4.30819 5.41844 4.18679C5.58807 4.0654 5.79142 4.00009 6.00001 4Z" fill="currentColor"/>
</svg>
