<svg width="24" height="24" viewBox="0 0 24 24" fill="none" xmlns="http://www.w3.org/2000/svg">
<path fill-rule="evenodd" clip-rule="evenodd" d="M8.18219 15.818C8.39825 16.034 8.54323 16.3107 8.59774 16.6113C8.65224 16.9119 8.61367 17.2219 8.48719 17.5H18.0002C18.398 17.5 18.7795 17.658 19.0609 17.9393C19.3422 18.2206 19.5002 18.6022 19.5002 19C19.5002 19.3978 19.3422 19.7794 19.0609 20.0607C18.7795 20.342 18.398 20.5 18.0002 20.5H8.48719C8.63282 20.8199 8.66149 21.1808 8.56818 21.5197C8.47487 21.8586 8.26552 22.1539 7.97666 22.3542C7.6878 22.5545 7.33778 22.6469 6.9877 22.6155C6.63762 22.584 6.3097 22.4306 6.06119 22.182L3.93919 20.061C3.7998 19.9217 3.68923 19.7563 3.61378 19.5742C3.53834 19.3922 3.49951 19.1971 3.49951 19C3.49951 18.8029 3.53834 18.6078 3.61378 18.4258C3.68923 18.2437 3.7998 18.0783 3.93919 17.939L6.06119 15.818C6.34248 15.5368 6.72395 15.3788 7.12169 15.3788C7.51944 15.3788 7.9009 15.5368 8.18219 15.818ZM17.0002 1.5C17.398 1.5 17.7795 1.65804 18.0609 1.93934C18.3422 2.22064 18.5002 2.60218 18.5002 3C18.5002 3.39782 18.3422 3.77936 18.0609 4.06066C17.7795 4.34196 17.398 4.5 17.0002 4.5V15C17.0002 15.3978 16.8422 15.7794 16.5609 16.0607C16.2795 16.342 15.898 16.5 15.5002 16.5C15.1024 16.5 14.7208 16.342 14.4395 16.0607C14.1582 15.7794 14.0002 15.3978 14.0002 15V4.5H13.0002V15C13.0002 15.3978 12.8422 15.7794 12.5609 16.0607C12.2795 16.342 11.898 16.5 11.5002 16.5C11.1024 16.5 10.7208 16.342 10.4395 16.0607C10.1582 15.7794 10.0002 15.3978 10.0002 15V12.5C8.5415 12.5 7.14255 11.9205 6.1111 10.8891C5.07965 9.85764 4.50019 8.45869 4.50019 7C4.50019 5.54131 5.07965 4.14236 6.1111 3.11091C7.14255 2.07946 8.5415 1.5 10.0002 1.5H17.0002ZM10.0002 4.5C9.35031 4.49842 8.72535 4.74997 8.25778 5.20134C7.79021 5.65271 7.51678 6.26842 7.49546 6.91795C7.47413 7.56749 7.70658 8.19981 8.14353 8.68087C8.58049 9.16194 9.1876 9.45395 9.83619 9.495L10.0002 9.5V4.5Z" fill="currentColor"/>
</svg>
