<svg width="24" height="24" viewBox="0 0 24 24" fill="none" xmlns="http://www.w3.org/2000/svg">
<path fill-rule="evenodd" clip-rule="evenodd" d="M18.94 15.818L21.06 17.939C21.1994 18.0783 21.31 18.2437 21.3854 18.4258C21.4608 18.6078 21.4997 18.8029 21.4997 19C21.4997 19.1971 21.4608 19.3922 21.3854 19.5742C21.31 19.7563 21.1994 19.9217 21.06 20.061L18.94 22.182C18.6916 22.4313 18.3635 22.5853 18.0131 22.6172C17.6626 22.649 17.3122 22.5566 17.0229 22.3562C16.7337 22.1558 16.5242 21.86 16.4309 21.5207C16.3377 21.1814 16.3668 20.8201 16.513 20.5H7C6.60218 20.5 6.22064 20.342 5.93934 20.0607C5.65804 19.7794 5.5 19.3978 5.5 19C5.5 18.6022 5.65804 18.2206 5.93934 17.9393C6.22064 17.658 6.60218 17.5 7 17.5H16.513C16.3674 17.1801 16.3387 16.8192 16.432 16.4803C16.5253 16.1414 16.7347 15.8461 17.0235 15.6458C17.3124 15.4455 17.6624 15.3531 18.0125 15.3845C18.3626 15.416 18.6905 15.5694 18.939 15.818M17 1.5C17.3978 1.5 17.7794 1.65804 18.0607 1.93934C18.342 2.22064 18.5 2.60218 18.5 3C18.5 3.39782 18.342 3.77936 18.0607 4.06066C17.7794 4.34196 17.3978 4.5 17 4.5V15C17 15.3978 16.842 15.7794 16.5607 16.0607C16.2794 16.342 15.8978 16.5 15.5 16.5C15.1022 16.5 14.7206 16.342 14.4393 16.0607C14.158 15.7794 14 15.3978 14 15V4.5H13V15C13 15.3978 12.842 15.7794 12.5607 16.0607C12.2794 16.342 11.8978 16.5 11.5 16.5C11.1022 16.5 10.7206 16.342 10.4393 16.0607C10.158 15.7794 10 15.3978 10 15V12.5C8.54131 12.5 7.14236 11.9205 6.11091 10.8891C5.07946 9.85764 4.5 8.45869 4.5 7C4.5 5.54131 5.07946 4.14236 6.11091 3.11091C7.14236 2.07946 8.54131 1.5 10 1.5H17ZM10 4.5C9.35011 4.49842 8.72515 4.74997 8.25758 5.20134C7.79002 5.65271 7.51659 6.26842 7.49526 6.91795C7.47394 7.56749 7.70639 8.19981 8.14334 8.68087C8.5803 9.16194 9.18741 9.45395 9.836 9.495L10 9.5V4.5Z" fill="currentColor"/>
</svg>
