<svg width="24" height="24" viewBox="0 0 24 24" fill="none" xmlns="http://www.w3.org/2000/svg">
<path d="M5 3.5C4.60218 3.5 4.22064 3.65804 3.93934 3.93934C3.65804 4.22064 3.5 4.60218 3.5 5C3.5 5.39782 3.65804 5.77936 3.93934 6.06066C4.22064 6.34196 4.60218 6.5 5 6.5H10.5V20C10.5 20.3978 10.658 20.7794 10.9393 21.0607C11.2206 21.342 11.6022 21.5 12 21.5C12.3978 21.5 12.7794 21.342 13.0607 21.0607C13.342 20.7794 13.5 20.3978 13.5 20V6.5H19C19.3978 6.5 19.7794 6.34196 20.0607 6.06066C20.342 5.77936 20.5 5.39782 20.5 5C20.5 4.60218 20.342 4.22064 20.0607 3.93934C19.7794 3.65804 19.3978 3.5 19 3.5H5Z" fill="currentColor"/>
</svg>
