<svg width="24" height="24" viewBox="0 0 24 24" fill="none" xmlns="http://www.w3.org/2000/svg">
<path fill-rule="evenodd" clip-rule="evenodd" d="M8.9995 5C8.9995 4.20435 9.31557 3.44129 9.87818 2.87868C10.4408 2.31607 11.2039 2 11.9995 2C12.7951 2 13.5582 2.31607 14.1208 2.87868C14.6834 3.44129 14.9995 4.20435 14.9995 5V12.956C15.0225 13.0022 15.0556 13.0425 15.0965 13.074C15.9123 13.7175 16.5074 14.5991 16.799 15.5963C17.0906 16.5936 17.0644 17.6569 16.7238 18.6385C16.3833 19.6202 15.7454 20.4713 14.8988 21.0737C14.0522 21.6761 13.039 21.9998 12 21.9998C10.961 21.9998 9.94777 21.6761 9.10119 21.0737C8.25462 20.4713 7.61673 19.6202 7.27618 18.6385C6.93564 17.6569 6.90936 16.5936 7.201 15.5963C7.49264 14.5991 8.08771 13.7175 8.9035 13.074C8.93848 13.0476 8.96802 13.0146 8.9905 12.977C8.99432 12.9704 8.99734 12.9633 8.9995 12.956V5Z" fill="currentColor"/>
</svg>
