<svg width="24" height="24" viewBox="0 0 24 24" fill="none" xmlns="http://www.w3.org/2000/svg">
<path d="M5 16C5.748 16 6.463 16.226 7.014 16.64C7.566 17.053 8 17.7 8 18.5C8 19.3 7.566 19.947 7.014 20.36C6.464 20.774 5.748 21 5 21C4.252 21 3.537 20.774 2.986 20.36C2.434 19.948 2 19.3 2 18.5C2 17.7 2.434 17.053 2.986 16.64C3.536 16.225 4.252 16 5 16ZM12.923 2.88501C14.41 2.88501 15.726 3.61201 16.536 4.72901C17.4617 4.51556 18.4314 4.60316 19.3039 4.97905C20.1764 5.35494 20.9062 5.9995 21.387 6.81889C21.8677 7.63829 22.0744 8.58975 21.9769 9.53476C21.8795 10.4798 21.4829 11.369 20.845 12.073C20.8267 12.809 20.6266 13.5289 20.2625 14.1688C19.8984 14.8086 19.3816 15.3484 18.7583 15.7401C18.135 16.1317 17.4244 16.3631 16.69 16.4135C15.9555 16.4639 15.22 16.3318 14.549 16.029C14.0137 16.4553 13.3876 16.7528 12.719 16.8985C12.0504 17.0441 11.3573 17.0341 10.6932 16.8691C10.0291 16.7041 9.41187 16.3885 8.88921 15.9469C8.36655 15.5052 7.95248 14.9493 7.679 14.322C6.79685 13.9379 6.06248 13.2789 5.58542 12.4434C5.10837 11.6078 4.91417 10.6405 5.03179 9.68552C5.14942 8.73059 5.57256 7.83925 6.23812 7.14444C6.90368 6.44963 7.776 5.98857 8.725 5.83001C9.03693 4.96719 9.60724 4.22149 10.3583 3.6945C11.1093 3.16751 12.0045 2.88485 12.922 2.88501H12.923Z" fill="currentColor"/>
</svg>
