<svg width="24" height="24" viewBox="0 0 24 24" fill="none" xmlns="http://www.w3.org/2000/svg">
<path fill-rule="evenodd" clip-rule="evenodd" d="M9.5 21.5C10.856 21.5 11.794 20.648 12.395 19.447C12.917 18.403 12.966 17.147 12.992 16H17.826C18.2411 16.0001 18.6516 15.914 19.0317 15.7472C19.4118 15.5805 19.7532 15.3367 20.0342 15.0312C20.3153 14.7257 20.5298 14.3653 20.6644 13.9726C20.799 13.58 20.8506 13.1637 20.816 12.75L20.455 8.41903C20.3093 6.66912 19.5112 5.0379 18.219 3.84891C16.9268 2.65991 15.235 1.99999 13.479 2.00003H11.967C11.0183 1.99745 10.0792 2.18949 9.20762 2.56428C8.33609 2.93907 7.5507 3.48864 6.9 4.17903C6.44292 4.05956 5.97243 3.99906 5.5 3.99903C4.392 3.99903 3.472 4.62103 2.876 5.60903C2.296 6.56903 2 7.89303 2 9.49903C2 11.106 2.297 12.431 2.876 13.391C3.472 14.38 4.392 15 5.5 15C5.781 15 6.079 14.95 6.377 14.866C6.835 16.066 7.161 17.303 7.007 18.601C6.835 20.046 8.016 21.5 9.5 21.5Z" fill="currentColor"/>
</svg>
