<svg width="24" height="24" viewBox="0 0 24 24" fill="none" xmlns="http://www.w3.org/2000/svg">
<path fill-rule="evenodd" clip-rule="evenodd" d="M9.5 2.5C10.856 2.5 11.794 3.352 12.395 4.553C12.917 5.598 12.966 6.853 12.992 8H17.826C18.2411 7.99994 18.6516 8.08601 19.0317 8.25278C19.4118 8.41954 19.7532 8.66336 20.0342 8.96883C20.3153 9.2743 20.5298 9.63475 20.6644 10.0274C20.799 10.4201 20.8506 10.8364 20.816 11.25L20.455 15.581C20.3093 17.3309 19.5112 18.9621 18.219 20.1511C16.9268 21.3401 15.235 22 13.479 22H11.967C10.2556 22.0037 8.60289 21.3764 7.325 20.238C7.18891 20.1175 7.028 20.0283 6.85364 19.9768C6.67929 19.9253 6.49574 19.9127 6.316 19.94C6.04587 19.9803 5.77311 20.0003 5.5 20C4.392 20 3.472 19.38 2.876 18.392C2.296 17.432 2 16.107 2 14.5C2 12.894 2.297 11.569 2.876 10.609C3.472 9.62 4.392 9 5.5 9C5.781 9 6.079 9.05 6.377 9.134C6.835 7.934 7.161 6.697 7.007 5.399C6.835 3.954 8.016 2.5 9.5 2.5Z" fill="currentColor"/>
</svg>
