<svg width="24" height="24" viewBox="0 0 24 24" fill="none" xmlns="http://www.w3.org/2000/svg">
<path d="M12.4966 12.632C12.7267 12.7636 12.8952 12.9812 12.9649 13.237C13.0347 13.4928 13 13.7658 12.8686 13.996L11.7236 16H12.8286C13.0213 16 13.2106 16.0506 13.3776 16.1468C13.5446 16.2429 13.6834 16.3813 13.7801 16.548C13.8768 16.7147 13.928 16.9038 13.9286 17.0965C13.9292 17.2892 13.8792 17.4787 13.7836 17.646L11.8686 20.996C11.7337 21.2196 11.5167 21.3815 11.264 21.4473C11.0113 21.513 10.7429 21.4772 10.5162 21.3477C10.2894 21.2181 10.1224 21.0051 10.0507 20.754C9.97904 20.5029 10.0084 20.2337 10.1326 20.004L11.2776 18H10.1726C9.97985 18 9.79053 17.9494 9.62353 17.8532C9.45654 17.7571 9.31774 17.6187 9.22103 17.452C9.12432 17.2853 9.0731 17.0962 9.07249 16.9035C9.07188 16.7108 9.12191 16.5213 9.21756 16.354L11.1326 13.004C11.2642 12.7738 11.4818 12.6054 11.7375 12.5356C11.9933 12.4659 12.2663 12.5005 12.4966 12.632ZM14.9996 18.501C15.0301 18.3706 15.0866 18.2476 15.1656 18.1394C15.2446 18.0312 15.3445 17.94 15.4595 17.8712C15.5744 17.8024 15.702 17.7573 15.8347 17.7388C15.9674 17.7202 16.1024 17.7285 16.2318 17.7632C16.3612 17.7978 16.4824 17.8581 16.588 17.9405C16.6937 18.0228 16.7817 18.1256 16.8469 18.2426C16.912 18.3597 16.953 18.4886 16.9674 18.6218C16.9818 18.755 16.9693 18.8897 16.9306 19.018L16.6726 19.984C16.6391 20.1114 16.5808 20.2309 16.501 20.3357C16.4212 20.4405 16.3215 20.5285 16.2077 20.5947C16.0938 20.6609 15.9679 20.7039 15.8374 20.7213C15.7068 20.7386 15.5741 20.7301 15.4469 20.696C15.3196 20.662 15.2004 20.6031 15.0959 20.5228C14.9915 20.4426 14.904 20.3425 14.8383 20.2283C14.7727 20.1141 14.7303 19.988 14.7135 19.8574C14.6967 19.7267 14.7059 19.5941 14.7406 19.467L14.9996 18.501ZM5.21956 18.501C5.25301 18.3736 5.31131 18.2541 5.39109 18.1493C5.47087 18.0445 5.57057 17.9565 5.68446 17.8903C5.79836 17.8241 5.9242 17.7811 6.05476 17.7637C6.18532 17.7464 6.31803 17.7549 6.44527 17.789C6.5725 17.823 6.69176 17.8819 6.79619 17.9622C6.90062 18.0424 6.98816 18.1425 7.05379 18.2567C7.11942 18.3709 7.16184 18.497 7.17862 18.6276C7.1954 18.7583 7.1862 18.8909 7.15156 19.018L6.89156 19.984C6.81652 20.2327 6.64765 20.4424 6.42069 20.5688C6.19373 20.6952 5.9265 20.7283 5.67556 20.6611C5.42462 20.5939 5.20968 20.4317 5.07623 20.2089C4.94278 19.986 4.90129 19.7199 4.96056 19.467L5.21956 18.501ZM11.5006 2C12.823 1.99987 14.114 2.40298 15.2014 3.15554C16.2887 3.9081 17.1208 4.97433 17.5866 6.212C18.6704 6.50953 19.649 7.10541 20.4108 7.9318C21.1726 8.7582 21.687 9.78189 21.8955 10.8863C22.1041 11.9908 21.9983 13.1316 21.5902 14.1788C21.1822 15.2261 20.4883 16.1378 19.5876 16.81L19.6146 16.725L19.8986 15.672C20.0692 15.0369 20.0264 14.3633 19.7768 13.7549C19.5272 13.1465 19.0846 12.637 18.5171 12.3047C17.9496 11.9725 17.2886 11.8359 16.6359 11.916C15.9832 11.996 15.3749 12.2884 14.9046 12.748C14.7553 12.1701 14.437 11.6498 13.9904 11.2538C13.5438 10.8578 12.9893 10.6039 12.3976 10.5248C11.806 10.4457 11.2042 10.5448 10.6693 10.8096C10.1343 11.0743 9.69048 11.4926 9.39456 12.011L9.08956 12.548C8.7 12.2377 8.23934 12.0293 7.74912 11.9416C7.2589 11.8538 6.75454 11.8895 6.28156 12.0454C5.80857 12.2013 5.38182 12.4724 5.03982 12.8345C4.69782 13.1965 4.45132 13.6379 4.32256 14.119L4.06356 15.085C3.92659 15.5936 3.92659 16.1294 4.06356 16.638C3.9869 16.7147 3.91446 16.7955 3.84656 16.88C3.18078 16.3389 2.66543 15.6356 2.35006 14.8378C2.0347 14.0399 1.92994 13.1743 2.04585 12.3243C2.16176 11.4742 2.49445 10.6683 3.01192 9.984C3.52938 9.29971 4.21422 8.76007 5.00056 8.417C5.02239 6.70752 5.71683 5.07546 6.93346 3.87437C8.15009 2.67327 9.79094 1.99986 11.5006 2ZM17.2596 13.93C17.3864 13.964 17.5053 14.0227 17.6095 14.1026C17.7137 14.1826 17.8012 14.2823 17.8668 14.3961C17.9325 14.5098 17.9751 14.6354 17.9922 14.7656C18.0093 14.8958 18.0006 15.0281 17.9666 15.155L17.7076 16.121C17.6389 16.3772 17.4712 16.5956 17.2415 16.7282C17.0118 16.8608 16.7388 16.8967 16.4826 16.828C16.2264 16.7593 16.0079 16.5917 15.8754 16.3619C15.7428 16.1322 15.7069 15.8592 15.7756 15.603L16.0346 14.637C16.0686 14.5101 16.1272 14.3912 16.2072 14.287C16.2871 14.1828 16.3869 14.0954 16.5006 14.0298C16.6144 13.9641 16.7399 13.9215 16.8702 13.9044C17.0004 13.8873 17.1327 13.896 17.2596 13.93ZM7.47956 13.93C7.60642 13.964 7.72535 14.0227 7.82954 14.1026C7.93373 14.1826 8.02115 14.2823 8.08681 14.3961C8.15246 14.5098 8.19506 14.6354 8.21218 14.7656C8.22929 14.8958 8.22059 15.0281 8.18656 15.155L7.92756 16.121C7.85887 16.3772 7.69122 16.5956 7.46148 16.7282C7.23175 16.8608 6.95876 16.8967 6.70256 16.828C6.44636 16.7593 6.22794 16.5917 6.09535 16.3619C5.96277 16.1322 5.92687 15.8592 5.99556 15.603L6.25456 14.637C6.28856 14.5101 6.34721 14.3912 6.42718 14.287C6.50715 14.1828 6.60685 14.0954 6.72061 14.0298C6.83437 13.9641 6.95994 13.9215 7.09016 13.9044C7.22038 13.8873 7.3527 13.896 7.47956 13.93Z" fill="currentColor"/>
</svg>
