<svg width="24" height="24" viewBox="0 0 24 24" fill="none" xmlns="http://www.w3.org/2000/svg">
<path fill-rule="evenodd" clip-rule="evenodd" d="M11.4629 2.89101C11.5065 3.08314 11.5118 3.28198 11.4786 3.47617C11.4454 3.67036 11.3742 3.85611 11.2692 4.0228C11.1642 4.18948 11.0273 4.33385 10.8665 4.44764C10.7057 4.56144 10.524 4.64244 10.3319 4.68601C10.1469 4.72801 9.96486 4.77601 9.78586 4.83201C9.59761 4.89019 9.39974 4.91072 9.20356 4.89243C9.00738 4.87413 8.81672 4.81738 8.64247 4.7254C8.46822 4.63342 8.31379 4.50803 8.18801 4.35637C8.06222 4.20471 7.96754 4.02976 7.90936 3.84151C7.85118 3.65326 7.83066 3.4554 7.84895 3.25922C7.86724 3.06303 7.924 2.87237 8.01597 2.69813C8.10795 2.52388 8.23335 2.36945 8.385 2.24366C8.53666 2.11787 8.71161 2.02319 8.89986 1.96501C9.15186 1.88701 9.40786 1.81901 9.66686 1.76001C9.85898 1.71639 10.0578 1.71104 10.252 1.74427C10.4462 1.7775 10.632 1.84866 10.7986 1.95369C10.9653 2.05872 11.1097 2.19555 11.2235 2.35638C11.3373 2.51721 11.4183 2.69888 11.4619 2.89101M12.5359 2.89101C12.6241 2.50316 12.8628 2.16623 13.1994 1.95432C13.536 1.74241 13.943 1.67288 14.3309 1.76101C19.0079 2.82001 22.4999 7.00002 22.4999 12C22.4999 17.799 17.7989 22.5 11.9999 22.5C7.00086 22.5 2.82086 19.008 1.75986 14.332C1.67181 13.944 1.7415 13.5369 1.9536 13.2003C2.16571 12.8636 2.50285 12.6251 2.89086 12.537C3.27887 12.449 3.68597 12.5187 4.0226 12.7308C4.35923 12.9429 4.59781 13.28 4.68586 13.668C4.98434 14.9745 5.62746 16.1772 6.54831 17.1509C7.46916 18.1247 8.6341 18.8338 9.92194 19.2047C11.2098 19.5756 12.5735 19.5946 13.8712 19.2598C15.1689 18.925 16.3531 18.2486 17.3008 17.3009C18.2484 16.3533 18.9249 15.169 19.2597 13.8713C19.5945 12.5736 19.5755 11.2099 19.2046 9.9221C18.8337 8.63425 18.1245 7.46931 17.1508 6.54846C16.1771 5.62761 14.9744 4.9845 13.6679 4.68601C13.28 4.59779 12.9431 4.35912 12.7312 4.02251C12.5193 3.68589 12.4497 3.27889 12.5379 2.89101M6.97986 4.38101C7.2501 4.67269 7.39348 5.05973 7.37848 5.45707C7.36348 5.85442 7.19133 6.22955 6.89986 6.50001C6.76158 6.62831 6.62815 6.76173 6.49986 6.90001C6.36591 7.04447 6.20482 7.16113 6.02579 7.24332C5.84676 7.32552 5.65329 7.37165 5.45643 7.37908C5.25957 7.38651 5.06317 7.35509 4.87845 7.28662C4.69374 7.21815 4.52431 7.11396 4.37986 6.98001C4.23541 6.84607 4.11875 6.68498 4.03655 6.50595C3.95435 6.32691 3.90822 6.13344 3.90079 5.93658C3.89336 5.73972 3.92478 5.54333 3.99325 5.35861C4.06173 5.17389 4.16591 5.00447 4.29986 4.86001C4.47986 4.66601 4.66686 4.48002 4.85986 4.30001C5.00431 4.16605 5.17373 4.06185 5.35844 3.99337C5.54316 3.92489 5.73956 3.89346 5.93643 3.90089C6.1333 3.90832 6.32677 3.95446 6.5058 4.03667C6.68483 4.11887 6.84592 4.23655 6.97986 4.38101ZM11.9999 5.50001C12.3977 5.50001 12.7792 5.65805 13.0605 5.93935C13.3418 6.22066 13.4999 6.60219 13.4999 7.00001V11.379L16.0599 13.939C16.2032 14.0773 16.3175 14.2428 16.3962 14.4257C16.4749 14.6087 16.5164 14.8055 16.5182 15.0047C16.5201 15.2039 16.4822 15.4014 16.4069 15.5858C16.3315 15.7702 16.2202 15.9377 16.0795 16.0786C15.9387 16.2195 15.7713 16.331 15.5869 16.4065C15.4026 16.482 15.2051 16.52 15.006 16.5184C14.8068 16.5167 14.61 16.4755 14.4269 16.3969C14.2439 16.3184 14.0783 16.2042 13.9399 16.061L10.9399 13.061C10.8004 12.9217 10.6898 12.7564 10.6143 12.5743C10.5388 12.3922 10.4999 12.1971 10.4999 12V7.00001C10.4999 6.60219 10.6579 6.22066 10.9392 5.93935C11.2205 5.65805 11.602 5.50001 11.9999 5.50001ZM3.83986 7.91001C4.02822 7.96799 4.2033 8.06252 4.35511 8.1882C4.50692 8.31387 4.63248 8.46823 4.7246 8.64245C4.81673 8.81668 4.87362 9.00734 4.89202 9.20356C4.91043 9.39978 4.88998 9.5977 4.83186 9.78602C4.77686 9.96502 4.72786 10.147 4.68586 10.332C4.59781 10.72 4.35923 11.0572 4.0226 11.2693C3.68597 11.4814 3.27887 11.5511 2.89086 11.463C2.50285 11.375 2.16571 11.1364 1.9536 10.7998C1.7415 10.4631 1.67181 10.056 1.75986 9.66802C1.81886 9.40802 1.88686 9.15301 1.96486 8.90101C2.02294 8.71275 2.11754 8.53777 2.24326 8.38607C2.36898 8.23437 2.52336 8.10892 2.69757 8.01689C2.87178 7.92487 3.06241 7.86806 3.25858 7.84972C3.45475 7.83138 3.65261 7.85187 3.84086 7.91001" fill="currentColor"/>
</svg>
