<svg width="24" height="24" viewBox="0 0 24 24" fill="none" xmlns="http://www.w3.org/2000/svg">
<path fill-rule="evenodd" clip-rule="evenodd" d="M18 2C18.5304 2 19.0391 2.21071 19.4142 2.58579C19.7893 2.96086 20 3.46957 20 4V12.803C18.7642 12.0891 17.3143 11.8391 15.9108 12.0979C14.5072 12.3567 13.2418 13.1073 12.3419 14.215C11.4419 15.3227 10.9663 16.715 11.0004 18.1418C11.0345 19.5686 11.5761 20.9366 12.528 22H6C5.46957 22 4.96086 21.7893 4.58579 21.4142C4.21071 21.0391 4 20.5304 4 20V4C4 3.46957 4.21071 2.96086 4.58579 2.58579C4.96086 2.21071 5.46957 2 6 2H18ZM17 14C18.0609 14 19.0783 14.4214 19.8284 15.1716C20.5786 15.9217 21 16.9391 21 18C21 19.0609 20.5786 20.0783 19.8284 20.8284C19.0783 21.5786 18.0609 22 17 22C15.9391 22 14.9217 21.5786 14.1716 20.8284C13.4214 20.0783 13 19.0609 13 18C13 16.9391 13.4214 15.9217 14.1716 15.1716C14.9217 14.4214 15.9391 14 17 14ZM17 15.5C16.7551 15.5 16.5187 15.59 16.3356 15.7527C16.1526 15.9155 16.0357 16.1397 16.007 16.383L16 16.5V18C16 18.2449 16.09 18.4813 16.2527 18.6644C16.4155 18.8474 16.6397 18.9643 16.883 18.993L17 19H18C18.2549 18.9997 18.5 18.9021 18.6854 18.7272C18.8707 18.5522 18.9822 18.313 18.9972 18.0586C19.0121 17.8042 18.9293 17.5536 18.7657 17.3582C18.6021 17.1627 18.3701 17.0371 18.117 17.007L18 17V16.5C18 16.2348 17.8946 15.9804 17.7071 15.7929C17.5196 15.6054 17.2652 15.5 17 15.5ZM9 11H8C7.73478 11 7.48043 11.1054 7.29289 11.2929C7.10536 11.4804 7 11.7348 7 12C7 12.2652 7.10536 12.5196 7.29289 12.7071C7.48043 12.8946 7.73478 13 8 13H9C9.26522 13 9.51957 12.8946 9.70711 12.7071C9.89464 12.5196 10 12.2652 10 12C10 11.7348 9.89464 11.4804 9.70711 11.2929C9.51957 11.1054 9.26522 11 9 11ZM14 7H8C7.74512 7.00028 7.49997 7.09788 7.31463 7.27285C7.1293 7.44782 7.01777 7.68695 7.00283 7.94139C6.98789 8.19584 7.07067 8.44638 7.23426 8.64183C7.39786 8.83729 7.6299 8.9629 7.883 8.993L8 9H14C14.2549 8.99972 14.5 8.90212 14.6854 8.72715C14.8707 8.55218 14.9822 8.31305 14.9972 8.05861C15.0121 7.80416 14.9293 7.55362 14.7657 7.35817C14.6021 7.16271 14.3701 7.0371 14.117 7.007L14 7Z" fill="currentColor"/>
</svg>
