<svg width="24" height="24" viewBox="0 0 24 24" fill="none" xmlns="http://www.w3.org/2000/svg">
<path d="M6 12C6 11.4696 6.21071 10.9609 6.58579 10.5858C6.96086 10.2107 7.46957 10 8 10C8.53043 10 9.03914 10.2107 9.41421 10.5858C9.78929 10.9609 10 11.4696 10 12C10 12.5304 9.78929 13.0391 9.41421 13.4142C9.03914 13.7893 8.53043 14 8 14C7.46957 14 6.96086 13.7893 6.58579 13.4142C6.21071 13.0391 6 12.5304 6 12Z" fill="currentColor"/>
<path fill-rule="evenodd" clip-rule="evenodd" d="M8 5C6.14348 5 4.36301 5.7375 3.05025 7.05025C1.7375 8.36301 1 10.1435 1 12C1 13.8565 1.7375 15.637 3.05025 16.9497C4.36301 18.2625 6.14348 19 8 19H16C16.9193 19 17.8295 18.8189 18.6788 18.4672C19.5281 18.1154 20.2997 17.5998 20.9497 16.9497C21.5998 16.2997 22.1154 15.5281 22.4672 14.6788C22.8189 13.8295 23 12.9193 23 12C23 11.0807 22.8189 10.1705 22.4672 9.32122C22.1154 8.47194 21.5998 7.70026 20.9497 7.05025C20.2997 6.40024 19.5281 5.88463 18.6788 5.53284C17.8295 5.18106 16.9193 5 16 5H8ZM8 8C6.93913 8 5.92172 8.42143 5.17157 9.17157C4.42143 9.92172 4 10.9391 4 12C4 13.0609 4.42143 14.0783 5.17157 14.8284C5.92172 15.5786 6.93913 16 8 16C9.06087 16 10.0783 15.5786 10.8284 14.8284C11.5786 14.0783 12 13.0609 12 12C12 10.9391 11.5786 9.92172 10.8284 9.17157C10.0783 8.42143 9.06087 8 8 8Z" fill="currentColor"/>
</svg>
