<svg width="24" height="24" viewBox="0 0 24 24" fill="none" xmlns="http://www.w3.org/2000/svg">
<path fill-rule="evenodd" clip-rule="evenodd" d="M7 6C5.4087 6 3.88258 6.63214 2.75736 7.75736C1.63214 8.88258 1 10.4087 1 12C1 13.5913 1.63214 15.1174 2.75736 16.2426C3.88258 17.3679 5.4087 18 7 18H17C18.5913 18 20.1174 17.3679 21.2426 16.2426C22.3679 15.1174 23 13.5913 23 12C23 10.4087 22.3679 8.88258 21.2426 7.75736C20.1174 6.63214 18.5913 6 17 6H7ZM7 16C8.06087 16 9.07828 15.5786 9.82843 14.8284C10.5786 14.0783 11 13.0609 11 12C11 10.9391 10.5786 9.92172 9.82843 9.17157C9.07828 8.42143 8.06087 8 7 8C5.93913 8 4.92172 8.42143 4.17157 9.17157C3.42143 9.92172 3 10.9391 3 12C3 13.0609 3.42143 14.0783 4.17157 14.8284C4.92172 15.5786 5.93913 16 7 16Z" fill="currentColor"/>
</svg>
