<svg width="24" height="24" viewBox="0 0 24 24" fill="none" xmlns="http://www.w3.org/2000/svg">
<path d="M18 3C19.454 3 20.452 4.235 21.03 5.485C21.601 6.725 21.948 8.343 21.995 10.094L22 10.5V20C22.0001 20.1348 21.973 20.2681 21.9202 20.3922C21.8675 20.5162 21.7902 20.6282 21.6931 20.7216C21.596 20.815 21.481 20.8878 21.355 20.9357C21.229 20.9835 21.0946 21.0054 20.96 21L20.836 20.986L18 20.514L15.164 20.986C15.044 21.006 14.9213 21.004 14.802 20.98L14.684 20.949L12 20.054L9.316 20.949C9.17522 20.9959 9.02576 21.0109 8.87847 20.9929C8.73118 20.9748 8.58975 20.9243 8.46443 20.8448C8.33911 20.7653 8.23304 20.659 8.15393 20.5334C8.07481 20.4079 8.02462 20.2663 8.007 20.119L8 20V17.073C7.469 17.623 6.804 18 6 18C4.546 18 3.548 16.765 2.97 15.515C2.356 14.18 2 12.406 2 10.5C2 8.594 2.355 6.82 2.97 5.485C3.521 4.291 4.456 3.112 5.805 3.008L6 3H18ZM6 5C5.797 5 5.295 5.22 4.787 6.323C4.317 7.34 4 8.816 4 10.5C4 12.184 4.317 13.66 4.787 14.677C5.295 15.78 5.797 16 6 16C6.203 16 6.705 15.78 7.213 14.677C7.683 13.66 8 12.184 8 10.5C8 8.816 7.683 7.34 7.213 6.323C6.705 5.22 6.203 5 6 5ZM6 8.5C6.552 8.5 7 9.395 7 10.5C7 11.605 6.552 12.5 6 12.5C5.448 12.5 5 11.605 5 10.5C5 9.395 5.448 8.5 6 8.5Z" fill="currentColor"/>
</svg>
