<svg width="24" height="24" viewBox="0 0 24 24" fill="none" xmlns="http://www.w3.org/2000/svg">
<path fill-rule="evenodd" clip-rule="evenodd" d="M7.52721 2.65696C8.77713 2.33492 10.0917 2.36468 11.3258 2.74297C12.5599 3.12126 13.6653 3.83335 14.5201 4.80054C15.3748 5.76774 15.9455 6.9524 16.1691 8.22362C16.3927 9.49484 16.2605 10.8031 15.7872 12.004L20.3862 15.897C20.735 16.1917 21.0188 16.5557 21.2197 16.9658C21.4206 17.3759 21.5342 17.8232 21.5533 18.2795C21.5724 18.7357 21.4966 19.191 21.3306 19.6164C21.1647 20.0419 20.9123 20.4283 20.5894 20.7512C20.2664 21.074 19.88 21.3264 19.4545 21.4922C19.029 21.658 18.5737 21.7337 18.1175 21.7145C17.6612 21.6953 17.2139 21.5817 16.8038 21.3807C16.3938 21.1797 16.0299 20.8958 15.7352 20.547L11.8442 15.95C10.6432 16.4241 9.33456 16.5568 8.06285 16.3336C6.79114 16.1103 5.60594 15.5397 4.63829 14.6849C3.67065 13.83 2.95824 12.7242 2.57985 11.4898C2.20146 10.2553 2.17182 8.94022 2.49421 7.68996C2.53967 7.51428 2.63161 7.3541 2.76038 7.22624C2.88915 7.09839 3.04998 7.00759 3.22597 6.96339C3.40197 6.91918 3.58662 6.92321 3.76052 6.97505C3.93442 7.02688 4.09114 7.12461 4.21421 7.25796L7.25921 10.565L9.55621 9.71996L10.4032 7.41996L7.09421 4.37996C6.96006 4.25692 6.86166 4.09993 6.8094 3.92557C6.75715 3.75121 6.75298 3.56597 6.79734 3.38944C6.84171 3.21291 6.93295 3.05165 7.06143 2.92271C7.1899 2.79377 7.35084 2.70195 7.52721 2.65696Z" fill="currentColor"/>
</svg>
