<svg width="24" height="24" viewBox="0 0 24 24" fill="none" xmlns="http://www.w3.org/2000/svg">
<path fill-rule="evenodd" clip-rule="evenodd" d="M2.5 4C2.5 3.60218 2.65804 3.22064 2.93934 2.93934C3.22064 2.65804 3.60218 2.5 4 2.5H20C20.3978 2.5 20.7794 2.65804 21.0607 2.93934C21.342 3.22064 21.5 3.60218 21.5 4C21.5 4.39782 21.342 4.77936 21.0607 5.06066C20.7794 5.34196 20.3978 5.5 20 5.5H4C3.60218 5.5 3.22064 5.34196 2.93934 5.06066C2.65804 4.77936 2.5 4.39782 2.5 4ZM3.5 8C3.5 7.60218 3.65804 7.22064 3.93934 6.93934C4.22064 6.65804 4.60218 6.5 5 6.5H17C17.3978 6.5 17.7794 6.65804 18.0607 6.93934C18.342 7.22064 18.5 7.60218 18.5 8C18.5 8.39782 18.342 8.77936 18.0607 9.06066C17.7794 9.34196 17.3978 9.5 17 9.5H5C4.60218 9.5 4.22064 9.34196 3.93934 9.06066C3.65804 8.77936 3.5 8.39782 3.5 8ZM7.5 12C7.5 11.6022 7.65804 11.2206 7.93934 10.9393C8.22064 10.658 8.60218 10.5 9 10.5H19C19.3978 10.5 19.7794 10.658 20.0607 10.9393C20.342 11.2206 20.5 11.6022 20.5 12C20.5 12.3978 20.342 12.7794 20.0607 13.0607C19.7794 13.342 19.3978 13.5 19 13.5H9C8.60218 13.5 8.22064 13.342 7.93934 13.0607C7.65804 12.7794 7.5 12.3978 7.5 12ZM10.5 16C10.5 15.6022 10.658 15.2206 10.9393 14.9393C11.2206 14.658 11.6022 14.5 12 14.5H17C17.3978 14.5 17.7794 14.658 18.0607 14.9393C18.342 15.2206 18.5 15.6022 18.5 16C18.5 16.3978 18.342 16.7794 18.0607 17.0607C17.7794 17.342 17.3978 17.5 17 17.5H12C11.6022 17.5 11.2206 17.342 10.9393 17.0607C10.658 16.7794 10.5 16.3978 10.5 16ZM9.5 20C9.5 19.6022 9.65804 19.2206 9.93934 18.9393C10.2206 18.658 10.6022 18.5 11 18.5H14C14.3978 18.5 14.7794 18.658 15.0607 18.9393C15.342 19.2206 15.5 19.6022 15.5 20C15.5 20.3978 15.342 20.7794 15.0607 21.0607C14.7794 21.342 14.3978 21.5 14 21.5H11C10.6022 21.5 10.2206 21.342 9.93934 21.0607C9.65804 20.7794 9.5 20.3978 9.5 20Z" fill="currentColor"/>
</svg>
