<svg width="24" height="24" viewBox="0 0 24 24" fill="none" xmlns="http://www.w3.org/2000/svg">
<path fill-rule="evenodd" clip-rule="evenodd" d="M12 2C12.2449 2.00003 12.4813 2.08996 12.6644 2.25272C12.8474 2.41547 12.9643 2.63975 12.993 2.883L13 3V3.723L13.166 4H14C14.2256 3.99979 14.4447 4.0759 14.6217 4.21597C14.7986 4.35603 14.9229 4.55182 14.9745 4.7715C15.026 4.99119 15.0018 5.22185 14.9057 5.42601C14.8095 5.63016 14.6472 5.7958 14.445 5.896L14.332 5.943L15.566 8H17C17.2549 8.00028 17.5 8.09788 17.6854 8.27285C17.8707 8.44782 17.9822 8.68695 17.9972 8.94139C18.0121 9.19584 17.9293 9.44638 17.7657 9.64183C17.6021 9.83729 17.3701 9.9629 17.117 9.993L17 10H16C16.628 10.836 17 11.874 17 13C17.0006 13.7763 16.8202 14.5421 16.473 15.2365C16.1258 15.9309 15.6214 16.5347 15 17C15.9107 17.6828 16.5615 18.6556 16.845 19.758L16.9 20H19C19.2549 20.0003 19.5 20.0979 19.6854 20.2728C19.8707 20.4478 19.9822 20.687 19.9972 20.9414C20.0121 21.1958 19.9293 21.4464 19.7657 21.6418C19.6021 21.8373 19.3701 21.9629 19.117 21.993L19 22H4.99999C4.74511 21.9997 4.49996 21.9021 4.31462 21.7272C4.12929 21.5522 4.01776 21.313 4.00282 21.0586C3.98788 20.8042 4.07067 20.5536 4.23426 20.3582C4.39785 20.1627 4.62989 20.0371 4.88299 20.007L4.99999 20H7.09999C7.34492 18.8012 8.02092 17.7338 8.99999 17C8.37855 16.5347 7.8742 15.9309 7.52701 15.2365C7.17982 14.5421 6.99937 13.7763 6.99999 13C6.99999 11.968 7.31299 11.01 7.84799 10.213L7.99999 10H6.99999C6.74511 9.99972 6.49996 9.90212 6.31462 9.72715C6.12929 9.55218 6.01776 9.31305 6.00282 9.05861C5.98788 8.80416 6.07067 8.55362 6.23426 8.35817C6.39785 8.16271 6.62989 8.0371 6.88299 8.007L6.99999 8H8.43399L9.66799 5.943C9.45507 5.86784 9.27386 5.72283 9.15383 5.53157C9.03381 5.34032 8.98205 5.11407 9.00697 4.88965C9.0319 4.66524 9.13204 4.45586 9.29109 4.2956C9.45015 4.13533 9.65877 4.03362 9.88299 4.007L9.99999 4H10.834L11 3.723V3C11 2.73478 11.1053 2.48043 11.2929 2.29289C11.4804 2.10536 11.7348 2 12 2ZM12.034 6H11.966L10.766 8H13.234L12.034 6Z" fill="currentColor"/>
</svg>
