<svg width="24" height="24" viewBox="0 0 24 24" fill="none" xmlns="http://www.w3.org/2000/svg">
<path fill-rule="evenodd" clip-rule="evenodd" d="M11.06 1.94C10.7757 1.67504 10.3996 1.53079 10.011 1.53765C9.62235 1.5445 9.25158 1.70193 8.97676 1.97675C8.70193 2.25158 8.54451 2.62235 8.53765 3.01095C8.53079 3.39956 8.67504 3.77565 8.94 4.06L9.096 4.217L5.169 10.5H5C4.60218 10.5 4.22064 10.658 3.93934 10.9393C3.65804 11.2206 3.5 11.6022 3.5 12C3.5 12.3978 3.65804 12.7794 3.93934 13.0607C4.22064 13.342 4.60218 13.5 5 13.5H5.169L9.096 19.783L8.939 19.939C8.79967 20.0783 8.68914 20.2437 8.61374 20.4258C8.53833 20.6078 8.49952 20.803 8.49952 21C8.49952 21.398 8.65761 21.7796 8.939 22.061C9.22039 22.3424 9.60205 22.5005 10 22.5005C10.398 22.5005 10.7796 22.3424 11.061 22.061L11.956 21.166L13.69 20.009C14.7077 19.3306 15.4702 18.3323 15.857 17.172L17.081 13.5H17.586C17.6705 13.7389 17.8142 13.9524 18.0036 14.1208C18.193 14.2891 18.4219 14.4067 18.669 14.4626C18.9162 14.5185 19.1735 14.5109 19.4169 14.4405C19.6603 14.3701 19.8819 14.2392 20.061 14.06L21.061 13.06C21.3419 12.7787 21.4997 12.3975 21.4997 12C21.4997 11.6025 21.3419 11.2212 21.061 10.94L20.061 9.94C19.8819 9.76078 19.6603 9.62987 19.4169 9.55946C19.1735 9.48906 18.9162 9.48146 18.669 9.53737C18.4219 9.59329 18.193 9.7109 18.0036 9.87923C17.8142 10.0476 17.6705 10.2611 17.586 10.5H17.081L15.857 6.828C15.4704 5.66732 14.7079 4.66867 13.69 3.99L11.956 2.833L11.061 1.938L11.06 1.94ZM8.707 10.5L11.454 6.105L12.027 6.487C12.4897 6.79548 12.8363 7.24942 13.012 7.777L13.92 10.5H8.707ZM11.454 17.895L8.706 13.5H13.919L13.011 16.224C12.8353 16.7516 12.4887 17.2055 12.026 17.514L11.454 17.895Z" fill="currentColor"/>
</svg>
