<svg width="24" height="24" viewBox="0 0 24 24" fill="none" xmlns="http://www.w3.org/2000/svg">
<path fill-rule="evenodd" clip-rule="evenodd" d="M3.60597 3.44701L3.83597 3.909L1.68597 6.91901C1.54852 7.11164 1.48384 7.34678 1.50343 7.58261C1.52303 7.81845 1.62562 8.03969 1.79297 8.20701L3.29297 9.70701C3.44139 9.85529 3.63269 9.95314 3.8398 9.9867C4.0469 10.0203 4.25931 9.98783 4.44697 9.89401L5.70097 9.268L6.39297 10.19L4.32297 16.816C4.26569 16.7735 4.20902 16.7301 4.15297 16.686C4.00237 16.5692 3.85878 16.4437 3.72297 16.31C3.53906 16.1234 3.28925 16.0164 3.02728 16.0121C2.7653 16.0077 2.51209 16.1064 2.3221 16.2868C2.13211 16.4672 2.02052 16.715 2.01133 16.9769C2.00214 17.2387 2.09609 17.4937 2.27297 17.687L2.90897 18.252C3.30597 18.567 3.88897 18.977 4.65697 19.384C6.19997 20.2 8.48297 21 11.5 21C14.517 21 16.801 20.2 18.343 19.384C18.959 19.0608 19.5441 18.6819 20.091 18.252C20.245 18.129 20.746 17.67 20.727 17.687C20.8961 17.5091 20.9939 17.2751 21.0017 17.0297C21.0095 16.7843 20.9267 16.5447 20.7692 16.3564C20.6116 16.1681 20.3903 16.0443 20.1474 16.0086C19.9045 15.973 19.657 16.0279 19.452 16.163L18.422 11.012C18.945 11.501 19.51 12.257 20.106 13.447C20.1621 13.5686 20.2421 13.6776 20.3413 13.7677C20.4404 13.8578 20.5566 13.927 20.6829 13.9713C20.8093 14.0156 20.9433 14.0341 21.077 14.0256C21.2106 14.0172 21.3412 13.982 21.461 13.9221C21.5808 13.8622 21.6873 13.7788 21.7743 13.677C21.8612 13.5751 21.9269 13.4569 21.9672 13.3292C22.0076 13.2015 22.0219 13.067 22.0094 12.9337C21.9968 12.8003 21.9575 12.6709 21.894 12.553C20.838 10.44 19.708 9.23601 18.447 8.60601C17.39 8.07701 16.34 8.01001 15.45 8.00001H11.758C11.658 7.69724 11.5448 7.39896 11.419 7.10601C11.01 6.15201 10.322 4.908 9.20697 3.793C8.04797 2.634 6.85397 2.17001 5.91397 2.01301C5.53719 1.94929 5.15422 1.93016 4.77297 1.956C4.65997 1.96401 4.32297 2.01301 4.25697 2.03001C4.11182 2.06644 3.9767 2.135 3.86157 2.23061C3.74644 2.32622 3.65424 2.44645 3.59176 2.58244C3.52929 2.71843 3.49813 2.8667 3.50059 3.01634C3.50305 3.16597 3.53906 3.31314 3.60597 3.44701ZM14.326 18.715L13.306 16H10.692L9.61297 18.876C10.198 18.955 10.826 19 11.499 19C12.548 19 13.489 18.89 14.324 18.715H14.326Z" fill="currentColor"/>
</svg>
