<svg width="24" height="24" viewBox="0 0 24 24" fill="none" xmlns="http://www.w3.org/2000/svg">
<path d="M14.7199 2C15.8377 1.99986 16.9233 2.37426 17.8034 3.06343C18.6834 3.7526 19.3071 4.71678 19.5749 5.802L19.6239 6.019L21.0239 13.019C21.5199 15.501 20.0949 17.849 17.8839 18.682L17.6739 18.755L19.5999 20.2C19.8036 20.3525 19.9415 20.577 19.9855 20.8276C20.0295 21.0783 19.9762 21.3362 19.8367 21.549C19.6971 21.7618 19.4816 21.9133 19.2342 21.9728C18.9868 22.0322 18.726 21.9951 18.5049 21.869L18.3999 21.8L14.6669 19H9.33295L5.59995 21.8C5.39651 21.9525 5.14263 22.0218 4.88993 21.9938C4.63723 21.9657 4.40469 21.8425 4.23961 21.6492C4.07452 21.4558 3.98929 21.2068 4.00124 20.9529C4.01319 20.6989 4.12143 20.459 4.30395 20.282L4.39995 20.2L6.32595 18.755C4.06595 18.02 2.55795 15.724 2.93595 13.252L2.97595 13.019L4.37595 6.019C4.59522 4.92315 5.17531 3.93236 6.0236 3.20478C6.87189 2.47721 7.93948 2.0548 9.05595 2.005L9.27995 2H14.7219H14.7199ZM8.24995 13.25C7.91843 13.25 7.60048 13.3817 7.36606 13.6161C7.13164 13.8505 6.99995 14.1685 6.99995 14.5C6.99995 14.8315 7.13164 15.1495 7.36606 15.3839C7.60048 15.6183 7.91843 15.75 8.24995 15.75C8.58147 15.75 8.89941 15.6183 9.13383 15.3839C9.36825 15.1495 9.49995 14.8315 9.49995 14.5C9.49995 14.1685 9.36825 13.8505 9.13383 13.6161C8.89941 13.3817 8.58147 13.25 8.24995 13.25ZM15.7499 13.25C15.4184 13.25 15.1005 13.3817 14.8661 13.6161C14.6316 13.8505 14.4999 14.1685 14.4999 14.5C14.4999 14.8315 14.6316 15.1495 14.8661 15.3839C15.1005 15.6183 15.4184 15.75 15.7499 15.75C16.0815 15.75 16.3994 15.6183 16.6338 15.3839C16.8683 15.1495 16.9999 14.8315 16.9999 14.5C16.9999 14.1685 16.8683 13.8505 16.6338 13.6161C16.3994 13.3817 16.0815 13.25 15.7499 13.25ZM14.6099 5H9.38995C9.05549 5.00004 8.73063 5.11185 8.46701 5.31768C8.20338 5.52351 8.01611 5.81154 7.93495 6.136L7.18495 9.136C7.12963 9.35714 7.12544 9.58798 7.1727 9.81098C7.21996 10.034 7.31743 10.2433 7.45769 10.423C7.59795 10.6027 7.77733 10.748 7.98218 10.848C8.18704 10.948 8.41199 11 8.63995 11H15.3599C15.5879 11 15.8128 10.948 16.0177 10.848C16.2226 10.748 16.4019 10.6027 16.5422 10.423C16.6825 10.2433 16.7799 10.034 16.8272 9.81098C16.8744 9.58798 16.8703 9.35714 16.8149 9.136L16.0649 6.136C15.9837 5.81137 15.7963 5.52322 15.5325 5.31737C15.2687 5.11153 14.9446 4.99981 14.6099 5ZM14.2199 7L14.7199 9H9.27995L9.77995 7H14.2199Z" fill="currentColor"/>
</svg>
