<svg width="24" height="24" viewBox="0 0 24 24" fill="none" xmlns="http://www.w3.org/2000/svg">
<path d="M7.269 3.11C8.243 2.136 9.886 2.77 9.994 4.101L10 4.241V20C9.99981 20.3852 9.85142 20.7556 9.58559 21.0344C9.31976 21.3132 8.95685 21.479 8.57208 21.4975C8.18731 21.516 7.81016 21.3858 7.5188 21.1338C7.22743 20.8818 7.04417 20.5274 7.007 20.144L7 20V7.621L5.56 9.061C5.28821 9.33377 4.92194 9.49157 4.53702 9.50173C4.1521 9.5119 3.77801 9.37365 3.49221 9.1156C3.20641 8.85756 3.03079 8.49949 3.00171 8.11553C2.97263 7.73158 3.09232 7.35114 3.336 7.053L3.439 6.939L7.269 3.11ZM15.5 2.5C15.8729 2.50002 16.2324 2.63892 16.5084 2.88962C16.7844 3.14032 16.9572 3.48484 16.993 3.856L17 4V16.379L18.44 14.939C18.7118 14.6662 19.0781 14.5084 19.463 14.4983C19.8479 14.4881 20.222 14.6264 20.5078 14.8844C20.7936 15.1424 20.9692 15.5005 20.9983 15.8845C21.0274 16.2684 20.9077 16.6489 20.664 16.947L20.561 17.061L16.731 20.89C15.757 21.864 14.114 21.23 14.006 19.899L14 19.759V4C14 3.60218 14.158 3.22064 14.4393 2.93934C14.7206 2.65804 15.1022 2.5 15.5 2.5Z" fill="currentColor"/>
</svg>
