<svg width="24" height="24" viewBox="0 0 24 24" fill="none" xmlns="http://www.w3.org/2000/svg">
<path d="M11 12H8C7.73479 12 7.48043 12.1054 7.2929 12.2929C7.10536 12.4804 7 12.7348 7 13V15H5.205C3.869 15 3.2 16.615 4.145 17.56L6.995 20.412V20.414L8.935 22.354C9.228 22.647 9.613 22.794 9.997 22.794C10.382 22.794 10.766 22.647 11.059 22.354L12.999 20.414V20.412L15.849 17.56C16.794 16.615 16.125 15 14.789 15H12.996V14.003H12.998V12.003H15.996C16.2612 12.003 16.5156 11.8977 16.7031 11.7101C16.8906 11.5226 16.996 11.2682 16.996 11.003V9.00301H18.789C20.125 9.00301 20.794 7.38801 19.849 6.44301L17 3.59001V3.58701L15.06 1.64701C14.9207 1.50745 14.7551 1.39681 14.5728 1.32147C14.3906 1.24613 14.1952 1.20757 13.998 1.20801C13.614 1.20801 13.229 1.35401 12.936 1.64801L10.996 3.58801V3.59001L8.146 6.44201C7.201 7.38701 7.87 9.00201 9.206 9.00201H11V12Z" fill="currentColor"/>
</svg>
