<svg width="24" height="24" viewBox="0 0 24 24" fill="none" xmlns="http://www.w3.org/2000/svg">
<path d="M8.55999 11.9C8.84089 12.1813 8.99867 12.5625 8.99867 12.96C8.99867 13.3575 8.84089 13.7388 8.55999 14.02L7.58599 14.996H16C16.3978 14.996 16.7793 15.1541 17.0607 15.4354C17.342 15.7167 17.5 16.0982 17.5 16.496C17.5 16.8938 17.342 17.2754 17.0607 17.5567C16.7793 17.838 16.3978 17.996 16 17.996H7.58599L8.56099 18.97C8.84239 19.2514 9.00047 19.6331 9.00047 20.031C9.00047 20.429 8.84239 20.8106 8.56099 21.092C8.2796 21.3734 7.89794 21.5315 7.49999 21.5315C7.10204 21.5315 6.72039 21.3734 6.43899 21.092L2.90399 17.556C2.62279 17.2747 2.46481 16.8933 2.46481 16.4955C2.46481 16.0978 2.62279 15.7163 2.90399 15.435L6.43899 11.899C6.57829 11.7596 6.74369 11.6491 6.92575 11.5736C7.1078 11.4982 7.30293 11.4593 7.49999 11.4593C7.69706 11.4593 7.89219 11.4982 8.07424 11.5736C8.25629 11.6491 8.42169 11.7596 8.56099 11.899L8.55999 11.9ZM15.44 2.90002C15.7024 2.63742 16.0528 2.48143 16.4235 2.46222C16.7942 2.44301 17.1589 2.56194 17.447 2.79602L17.561 2.89902L21.096 6.43502C21.3585 6.69752 21.5143 7.04801 21.5333 7.41872C21.5523 7.78943 21.4332 8.15403 21.199 8.44202L21.096 8.55602L17.561 12.092C17.2898 12.3673 16.9228 12.5272 16.5365 12.5385C16.1502 12.5499 15.7745 12.4117 15.4876 12.1528C15.2007 11.8938 15.0248 11.5342 14.9966 11.1488C14.9683 10.7634 15.0899 10.382 15.336 10.084L15.439 9.97002L16.414 8.99602H7.99999C7.61286 8.9987 7.23968 8.85159 6.95851 8.58546C6.67734 8.31934 6.50995 7.95481 6.49135 7.56812C6.47276 7.18142 6.60439 6.80251 6.85872 6.51063C7.11305 6.21875 7.47039 6.03651 7.85599 6.00202L7.99999 5.99602H16.414L15.439 5.02102C15.2996 4.88172 15.189 4.71632 15.1136 4.53427C15.0381 4.35221 14.9993 4.15708 14.9993 3.96002C14.9993 3.76295 15.0381 3.56782 15.1136 3.38577C15.189 3.20372 15.2996 3.03832 15.439 2.89902L15.44 2.90002Z" fill="currentColor"/>
</svg>
