<svg width="24" height="24" viewBox="0 0 24 24" fill="none" xmlns="http://www.w3.org/2000/svg">
<path d="M20 14C20.3852 14.0002 20.7556 14.1486 21.0344 14.4144C21.3132 14.6802 21.479 15.0431 21.4975 15.4279C21.516 15.8127 21.3858 16.1898 21.1338 16.4812C20.8818 16.7726 20.5274 16.9558 20.144 16.993L20 17H7.62099L9.06099 18.44C9.33376 18.7118 9.49156 19.0781 9.50172 19.463C9.51189 19.8479 9.37364 20.222 9.11559 20.5078C8.85755 20.7936 8.49948 20.9692 8.11553 20.9983C7.73157 21.0274 7.35113 20.9077 7.05299 20.664L6.93899 20.561L3.10999 16.731C2.13599 15.757 2.76999 14.114 4.10099 14.006L4.24099 14H20ZM14.94 3.44C15.2024 3.17739 15.5528 3.0214 15.9235 3.00219C16.2942 2.98298 16.6589 3.10192 16.947 3.336L17.061 3.439L20.89 7.269C21.864 8.243 21.23 9.886 19.899 9.994L19.759 10H3.99999C3.61477 9.99981 3.2444 9.85142 2.9656 9.58559C2.68681 9.31975 2.52098 8.95685 2.50247 8.57208C2.48395 8.18731 2.61418 7.81016 2.86617 7.51879C3.11815 7.22743 3.47257 7.04417 3.85599 7.007L3.99999 7H16.379L14.939 5.56C14.6581 5.27875 14.5003 4.8975 14.5003 4.5C14.5003 4.1025 14.6591 3.72125 14.94 3.44Z" fill="currentColor"/>
</svg>
