<svg width="24" height="24" viewBox="0 0 24 24" fill="none" xmlns="http://www.w3.org/2000/svg">
<path d="M16.496 6.50002C16.8938 6.50002 17.2754 6.65806 17.5567 6.93936C17.838 7.22067 17.996 7.6022 17.996 8.00002V16.414L18.97 15.439C19.1093 15.2997 19.2748 15.1892 19.4568 15.1138C19.6389 15.0384 19.834 14.9995 20.031 14.9995C20.2281 14.9995 20.4232 15.0384 20.6052 15.1138C20.7873 15.1892 20.9527 15.2997 21.092 15.439C21.2313 15.5784 21.3419 15.7438 21.4173 15.9258C21.4927 16.1079 21.5315 16.303 21.5315 16.5C21.5315 16.6971 21.4927 16.8922 21.4173 17.0742C21.3419 17.2563 21.2313 17.4217 21.092 17.561L17.556 21.096C17.2747 21.3772 16.8933 21.5352 16.4955 21.5352C16.0978 21.5352 15.7163 21.3772 15.435 21.096L11.899 17.561C11.7597 17.4217 11.6492 17.2563 11.5738 17.0742C11.4983 16.8922 11.4595 16.6971 11.4595 16.5C11.4595 16.303 11.4983 16.1079 11.5738 15.9258C11.6492 15.7438 11.7597 15.5784 11.899 15.439C12.0383 15.2997 12.2038 15.1892 12.3858 15.1138C12.5679 15.0384 12.763 14.9995 12.96 14.9995C13.1571 14.9995 13.3522 15.0384 13.5342 15.1138C13.7163 15.1892 13.8817 15.2997 14.021 15.439L14.996 16.414V8.00002C14.996 7.6022 15.154 7.22067 15.4354 6.93936C15.7167 6.65806 16.0982 6.50002 16.496 6.50002ZM8.55601 2.90402L12.092 6.43902C12.2313 6.57836 12.3419 6.74377 12.4173 6.92581C12.4927 7.10786 12.5315 7.30298 12.5315 7.50002C12.5315 7.69707 12.4927 7.89219 12.4173 8.07423C12.3419 8.25628 12.2313 8.42169 12.092 8.56102C11.9527 8.70036 11.7873 8.81088 11.6052 8.88629C11.4232 8.96169 11.2281 9.0005 11.031 9.0005C10.834 9.0005 10.6389 8.96169 10.4568 8.88629C10.2748 8.81088 10.1093 8.70036 9.97001 8.56102L8.99601 7.58602V16C8.99601 16.3978 8.83798 16.7794 8.55667 17.0607C8.27537 17.342 7.89384 17.5 7.49601 17.5C7.09819 17.5 6.71666 17.342 6.43535 17.0607C6.15405 16.7794 5.99601 16.3978 5.99601 16V7.58602L5.02101 8.56102C4.88168 8.70036 4.71627 8.81088 4.53422 8.88629C4.35218 8.96169 4.15706 9.0005 3.96001 9.0005C3.76297 9.0005 3.56785 8.96169 3.38581 8.88629C3.20376 8.81088 3.03835 8.70036 2.89901 8.56102C2.75968 8.42169 2.64916 8.25628 2.57375 8.07423C2.49834 7.89219 2.45953 7.69707 2.45953 7.50002C2.45953 7.30298 2.49834 7.10786 2.57375 6.92581C2.64916 6.74377 2.75968 6.57836 2.89901 6.43902L6.43501 2.90402C6.71631 2.62282 7.09777 2.46484 7.49551 2.46484C7.89326 2.46484 8.27472 2.62282 8.55601 2.90402Z" fill="currentColor"/>
</svg>
