<svg width="24" height="24" viewBox="0 0 24 24" fill="none" xmlns="http://www.w3.org/2000/svg">
<path d="M9.00023 2.5C9.39806 2.5 9.77959 2.65804 10.0609 2.93934C10.3422 3.22064 10.5002 3.60218 10.5002 4V4.5H12.5002C12.8119 4.50013 13.1158 4.59735 13.3697 4.77815C13.6236 4.95895 13.8149 5.21435 13.9169 5.50886C14.019 5.80337 14.0268 6.12236 13.9392 6.42149C13.8516 6.72062 13.673 6.98504 13.4282 7.178C13.1912 9.12 12.3752 10.98 11.0992 12.62C11.4712 12.917 11.8692 13.2 12.2962 13.466L14.1322 9.384C14.2508 9.12041 14.443 8.89669 14.6857 8.73974C14.9283 8.58278 15.2112 8.49929 15.5002 8.49929C15.7893 8.49929 16.0721 8.58278 16.3148 8.73974C16.5575 8.89669 16.7497 9.12041 16.8682 9.384L21.3682 19.384C21.5316 19.7468 21.5442 20.1597 21.4031 20.5317C21.2621 20.9038 20.979 21.2046 20.6162 21.368C20.2534 21.5314 19.8406 21.5439 19.4685 21.4029C19.0964 21.2619 18.7956 20.9788 18.6322 20.616L17.6802 18.5H13.3202L12.3682 20.616C12.2873 20.7956 12.1719 20.9576 12.0284 21.0926C11.8849 21.2276 11.7162 21.3331 11.532 21.4029C11.1599 21.5439 10.747 21.5314 10.3842 21.368C10.2046 21.2871 10.0426 21.1716 9.90761 21.0281C9.7726 20.8846 9.66716 20.716 9.59733 20.5317C9.45631 20.1597 9.46886 19.7468 9.63223 19.384L11.0552 16.222C10.3321 15.796 9.64427 15.3127 8.99823 14.777C7.66345 15.8754 6.16498 16.758 4.55723 17.393C4.3743 17.4661 4.17875 17.5025 3.98176 17.5001C3.78476 17.4977 3.59017 17.4565 3.40909 17.3789C3.22802 17.3012 3.06401 17.1887 2.92642 17.0477C2.78884 16.9067 2.68038 16.7399 2.60723 16.557C2.53409 16.3741 2.49769 16.1785 2.50011 15.9815C2.50254 15.7845 2.54374 15.5899 2.62137 15.4089C2.699 15.2278 2.81154 15.0638 2.95255 14.9262C3.09357 14.7886 3.2603 14.6801 3.44323 14.607C4.68734 14.1181 5.85281 13.449 6.90223 12.621C6.29904 11.8464 5.79138 11.002 5.39023 10.106C5.22951 9.74199 5.21998 9.32904 5.36372 8.958C5.50747 8.58696 5.79272 8.28822 6.15673 8.1275C6.52074 7.96678 6.93369 7.95724 7.30473 8.10099C7.67577 8.24474 7.97451 8.52999 8.13523 8.894C8.37369 9.42747 8.66338 9.93652 9.00023 10.414C9.65623 9.479 10.1012 8.489 10.3272 7.5H4.00023C3.60241 7.5 3.22088 7.34196 2.93957 7.06066C2.65827 6.77936 2.50023 6.39782 2.50023 6C2.50023 5.60218 2.65827 5.22064 2.93957 4.93934C3.22088 4.65804 3.60241 4.5 4.00023 4.5H7.50023V4C7.50023 3.60218 7.65827 3.22064 7.93957 2.93934C8.22088 2.65804 8.60241 2.5 9.00023 2.5ZM15.5002 13.655L14.6702 15.5H16.3302L15.5002 13.655ZM19.0002 1C19.2088 1.00008 19.4122 1.06539 19.5818 1.18679C19.7514 1.30818 19.8789 1.47959 19.9462 1.677L20.0762 2.055C20.2242 2.48875 20.4696 2.88283 20.7936 3.20699C21.1176 3.53115 21.5116 3.77677 21.9452 3.925L22.3232 4.054C22.5204 4.12157 22.6916 4.24908 22.8128 4.41869C22.9339 4.58831 22.9991 4.79155 22.9991 5C22.9991 5.20845 22.9339 5.41169 22.8128 5.58131C22.6916 5.75092 22.5204 5.87843 22.3232 5.946L21.9452 6.076C21.5115 6.224 21.1174 6.46941 20.7932 6.79339C20.4691 7.11738 20.2235 7.51133 20.0752 7.945L19.9462 8.323C19.8787 8.5202 19.7512 8.69134 19.5815 8.81252C19.4119 8.93369 19.2087 8.99883 19.0002 8.99883C18.7918 8.99883 18.5885 8.93369 18.4189 8.81252C18.2493 8.69134 18.1218 8.5202 18.0542 8.323L17.9242 7.945C17.7761 7.51114 17.5306 7.11699 17.2064 6.79283C16.8822 6.46866 16.4881 6.2231 16.0542 6.075L15.6772 5.946C15.48 5.87843 15.3089 5.75092 15.1877 5.58131C15.0665 5.41169 15.0014 5.20845 15.0014 5C15.0014 4.79155 15.0665 4.58831 15.1877 4.41869C15.3089 4.24908 15.48 4.12157 15.6772 4.054L16.0552 3.924C16.489 3.776 16.8831 3.53059 17.2072 3.20661C17.5314 2.88262 17.777 2.48867 17.9252 2.055L18.0542 1.677C18.1216 1.47959 18.249 1.30818 18.4187 1.18679C18.5883 1.06539 18.7916 1.00008 19.0002 1Z" fill="currentColor"/>
</svg>
