<svg width="24" height="24" viewBox="0 0 24 24" fill="none" xmlns="http://www.w3.org/2000/svg">
<path fill-rule="evenodd" clip-rule="evenodd" d="M9.479 3.04C10.259 2.479 11.167 2 12 2C12.833 2 13.74 2.479 14.521 3.04C15.351 3.636 16.224 4.463 17.021 5.425C18.587 7.319 20 9.916 20 12.5C20 14.96 18.783 16.637 17.154 17.652C15.888 18.442 14.384 18.832 13 18.955V21C13 21.2652 12.8946 21.5196 12.7071 21.7071C12.5196 21.8946 12.2652 22 12 22C11.7348 22 11.4804 21.8946 11.2929 21.7071C11.1054 21.5196 11 21.2652 11 21V18.955C9.616 18.831 8.112 18.441 6.846 17.652C5.217 16.637 4 14.96 4 12.5C4 9.916 5.412 7.32 6.98 5.425C7.775 4.463 8.65 3.635 9.479 3.04ZM12 17C12.3341 16.9998 12.6679 16.9814 13 16.945V14.32L15.314 11.081C15.3903 10.9741 15.4448 10.8532 15.4744 10.7253C15.504 10.5973 15.508 10.4648 15.4864 10.3352C15.4648 10.2057 15.4178 10.0817 15.3483 9.9703C15.2787 9.8589 15.1879 9.7623 15.081 9.686C14.9741 9.6097 14.8532 9.55521 14.7253 9.52562C14.5973 9.49604 14.4648 9.49195 14.3352 9.51359C14.2057 9.53522 14.0817 9.58216 13.9703 9.65172C13.8589 9.72128 13.7623 9.8121 13.686 9.919L11.872 12.459L10.707 11.293C10.5184 11.1108 10.2658 11.01 10.0036 11.0123C9.7414 11.0146 9.49059 11.1198 9.30518 11.3052C9.11977 11.4906 9.0146 11.7414 9.01233 12.0036C9.01005 12.2658 9.11084 12.5184 9.293 12.707L11 14.414V16.945C11.3321 16.9814 11.6659 16.9998 12 17Z" fill="currentColor"/>
</svg>
