<svg width="24" height="24" viewBox="0 0 24 24" fill="none" xmlns="http://www.w3.org/2000/svg">
<path d="M12.6176 5.004C12.7116 5.167 12.7926 5.337 12.8606 5.514C14.2456 4.777 15.7766 4.68 17.1086 5.192C19.2386 6.012 20.5646 8.274 19.9806 11.196C19.9519 11.34 19.8918 11.4758 19.8047 11.594C19.7176 11.7121 19.6055 11.8096 19.4765 11.8796C19.3474 11.9496 19.2046 11.9903 19.058 11.9988C18.9115 12.0073 18.7649 11.9835 18.6286 11.929L13.9046 10.039C14.5396 12.308 14.6046 14.617 14.4976 16.434C14.4198 17.7123 14.2439 18.9827 13.9716 20.234C13.9159 20.4506 13.7906 20.6429 13.615 20.7813C13.4394 20.9197 13.2231 20.9965 12.9996 21H10.4996C10.3292 21 10.1617 20.9565 10.0129 20.8736C9.86411 20.7907 9.73895 20.6711 9.6493 20.5263C9.55965 20.3815 9.50848 20.2161 9.50066 20.046C9.49283 19.8758 9.52859 19.7065 9.60457 19.554C10.0586 18.644 10.3586 17.634 10.5886 16.648C10.9686 15.019 11.1846 12.948 10.6966 10.868L5.27957 14.348C5.13841 14.4385 4.97677 14.492 4.8095 14.5037C4.64224 14.5154 4.47472 14.4848 4.32236 14.4148C4.17001 14.3448 4.0377 14.2376 3.9376 14.1031C3.83751 13.9686 3.77285 13.8111 3.74957 13.645C3.37357 10.952 4.46557 8.554 6.31957 7.293C6.40457 7.235 6.49157 7.179 6.57957 7.126L4.66357 6.442C4.50469 6.38531 4.36274 6.28936 4.25091 6.16306C4.13909 6.03676 4.06104 5.88423 4.02401 5.71966C3.98698 5.55509 3.99219 5.38382 4.03914 5.2218C4.0861 5.05978 4.17328 4.91227 4.29257 4.793C6.04557 3.04 8.43757 2.55 10.3156 3.176C11.2616 3.492 12.1026 4.102 12.6176 5.004Z" fill="currentColor"/>
</svg>
