<svg width="24" height="24" viewBox="0 0 24 24" fill="none" xmlns="http://www.w3.org/2000/svg">
<path d="M12.7065 2.293C12.519 2.10553 12.2647 2.00021 11.9995 2.00021C11.7344 2.00021 11.4801 2.10553 11.2925 2.293L7.29253 6.293C7.14091 6.44464 7.04206 6.641 7.01055 6.85311C6.97904 7.06522 7.01654 7.28183 7.11753 7.471C7.36453 7.934 7.75053 8.246 8.12753 8.458L5.29253 11.293C5.10506 11.4805 4.99974 11.7348 4.99974 12C4.99974 12.2652 5.10506 12.5195 5.29253 12.707C5.77053 13.185 6.37453 13.477 6.92653 13.659L4.29253 16.293C4.17179 16.4139 4.08403 16.5636 4.03762 16.7281C3.9912 16.8925 3.98768 17.066 4.02739 17.2322C4.0671 17.3983 4.14871 17.5516 4.26445 17.6772C4.38019 17.8029 4.52619 17.8968 4.68853 17.95C5.37853 18.177 6.09153 18.338 6.80353 18.48C7.58353 18.637 8.54953 18.792 9.64853 18.892L9.05053 20.684C9.00046 20.8343 8.98683 20.9944 9.01076 21.151C9.0347 21.3077 9.09551 21.4564 9.18819 21.5849C9.28087 21.7134 9.40276 21.8181 9.54382 21.8903C9.68489 21.9624 9.84108 22 9.99953 22H13.9995C14.158 22 14.3142 21.9624 14.4552 21.8903C14.5963 21.8181 14.7182 21.7134 14.8109 21.5849C14.9036 21.4564 14.9644 21.3077 14.9883 21.151C15.0122 20.9944 14.9986 20.8343 14.9485 20.684L14.3505 18.892C15.4505 18.792 16.4165 18.637 17.1955 18.481C17.9075 18.338 18.6255 18.177 19.3155 17.949C19.4773 17.8951 19.6226 17.8008 19.7376 17.675C19.8527 17.5491 19.9336 17.396 19.9728 17.23C20.012 17.0641 20.0081 16.8909 19.9615 16.7269C19.9149 16.5629 19.8271 16.4135 19.7065 16.293L17.0725 13.659C17.6245 13.478 18.2285 13.185 18.7065 12.707C18.894 12.5195 18.9993 12.2652 18.9993 12C18.9993 11.7348 18.894 11.4805 18.7065 11.293L15.8715 8.458C16.2485 8.246 16.6345 7.934 16.8815 7.471C16.9825 7.28183 17.02 7.06522 16.9885 6.85311C16.957 6.641 16.8581 6.44464 16.7065 6.293L12.7065 2.293Z" fill="currentColor"/>
</svg>
