<svg width="24" height="24" viewBox="0 0 24 24" fill="none" xmlns="http://www.w3.org/2000/svg">
<path d="M17 5.5C16.6022 5.5 16.2206 5.65804 15.9393 5.93934C15.658 6.22064 15.5 6.60218 15.5 7C15.5 7.39782 15.658 7.77936 15.9393 8.06066C16.2206 8.34196 16.6022 8.5 17 8.5H17.379L14 11.879L10.56 8.439C10.2787 8.1581 9.8975 8.00032 9.5 8.00032C9.1025 8.00032 8.72125 8.1581 8.44 8.439L1.94 14.939C1.66663 15.2218 1.51525 15.6006 1.51848 15.9939C1.52171 16.3872 1.67929 16.7635 1.95727 17.0417C2.23525 17.32 2.6114 17.4779 3.0047 17.4815C3.39799 17.4851 3.77697 17.3341 4.06 17.061L9.5 11.621L12.94 15.061C13.2212 15.3419 13.6025 15.4997 14 15.4997C14.3975 15.4997 14.7787 15.3419 15.06 15.061L19.5 10.621V11C19.5 11.3978 19.658 11.7794 19.9393 12.0607C20.2206 12.342 20.6022 12.5 21 12.5C21.3978 12.5 21.7794 12.342 22.0607 12.0607C22.342 11.7794 22.5 11.3978 22.5 11V7C22.5 6.60218 22.342 6.22064 22.0607 5.93934C21.7794 5.65804 21.3978 5.5 21 5.5H17Z" fill="currentColor"/>
</svg>
