<svg width="24" height="24" viewBox="0 0 24 24" fill="none" xmlns="http://www.w3.org/2000/svg">
<path d="M17.379 15.5H17C16.6022 15.5 16.2206 15.6581 15.9393 15.9394C15.658 16.2207 15.5 16.6022 15.5 17C15.5 17.3978 15.658 17.7794 15.9393 18.0607C16.2206 18.342 16.6022 18.5 17 18.5H21C21.3978 18.5 21.7794 18.342 22.0607 18.0607C22.342 17.7794 22.5 17.3978 22.5 17V13C22.5 12.6022 22.342 12.2207 22.0607 11.9394C21.7794 11.6581 21.3978 11.5 21 11.5C20.6022 11.5 20.2206 11.6581 19.9393 11.9394C19.658 12.2207 19.5 12.6022 19.5 13V13.379L15.06 8.93902C14.7788 8.65812 14.3975 8.50034 14 8.50034C13.6025 8.50034 13.2213 8.65812 12.94 8.93902L9.5 12.38L4.06 6.94002C3.92156 6.79682 3.75599 6.68263 3.57295 6.6041C3.38991 6.52558 3.19306 6.48429 2.99389 6.48266C2.79472 6.48102 2.59722 6.51907 2.41291 6.59457C2.2286 6.67008 2.06118 6.78154 1.92041 6.92245C1.77964 7.06335 1.66833 7.23088 1.593 7.41526C1.51767 7.59964 1.47981 7.79717 1.48163 7.99634C1.48345 8.19551 1.52493 8.39232 1.60362 8.57529C1.68232 8.75826 1.79667 8.92372 1.94 9.06202L8.44 15.562C8.72125 15.8429 9.1025 16.0007 9.5 16.0007C9.8975 16.0007 10.2788 15.8429 10.56 15.562L14 12.12L17.379 15.499V15.5Z" fill="currentColor"/>
</svg>
