<svg width="24" height="24" viewBox="0 0 24 24" fill="none" xmlns="http://www.w3.org/2000/svg">
<path fill-rule="evenodd" clip-rule="evenodd" d="M10.7002 3.14799C10.8318 2.91974 11.0211 2.73018 11.2493 2.59838C11.4774 2.46658 11.7362 2.39719 11.9997 2.39719C12.2631 2.39719 12.5219 2.46658 12.7501 2.59838C12.9782 2.73018 13.1676 2.91974 13.2992 3.14799L21.9332 18.102C22.0648 18.33 22.1341 18.5887 22.1341 18.852C22.1341 19.1153 22.0648 19.3739 21.9332 19.602C21.8015 19.83 21.6122 20.0194 21.3842 20.151C21.1561 20.2827 20.8975 20.352 20.6342 20.352H3.36617C3.10287 20.352 2.84421 20.2827 2.61619 20.151C2.38816 20.0194 2.19881 19.83 2.06716 19.602C1.93552 19.3739 1.86621 19.1153 1.86621 18.852C1.86621 18.5887 1.93552 18.33 2.06717 18.102L10.7012 3.14799H10.7002Z" fill="currentColor"/>
</svg>
