<svg width="24" height="24" viewBox="0 0 24 24" fill="none" xmlns="http://www.w3.org/2000/svg">
<path fill-rule="evenodd" clip-rule="evenodd" d="M4 5C4 4.73478 4.10536 4.48043 4.29289 4.29289C4.48043 4.10536 4.73478 4 5 4H19C19.2652 4 19.5196 4.10536 19.7071 4.29289C19.8946 4.48043 20 4.73478 20 5V7C20.2652 7 20.5196 7.10536 20.7071 7.29289C20.8946 7.48043 21 7.73478 21 8C21 8.26522 20.8946 8.51957 20.7071 8.70711C20.5196 8.89464 20.2652 9 20 9V12C20.2652 12 20.5196 12.1054 20.7071 12.2929C20.8946 12.4804 21 12.7348 21 13C21 13.2652 20.8946 13.5196 20.7071 13.7071C20.5196 13.8946 20.2652 14 20 14V18C20.2652 18 20.5196 18.1054 20.7071 18.2929C20.8946 18.4804 21 18.7348 21 19C21 19.2652 20.8946 19.5196 20.7071 19.7071C20.5196 19.8946 20.2652 20 20 20H14C13.7348 20 13.4804 19.8946 13.2929 19.7071C13.1054 19.5196 13 19.2652 13 19C13 18.7348 13.1054 18.4804 13.2929 18.2929C13.4804 18.1054 13.7348 18 14 18V14C14 13.4696 13.7893 12.9609 13.4142 12.5858C13.0391 12.2107 12.5304 12 12 12C11.4696 12 10.9609 12.2107 10.5858 12.5858C10.2107 12.9609 10 13.4696 10 14V18C10.2652 18 10.5196 18.1054 10.7071 18.2929C10.8946 18.4804 11 18.7348 11 19C11 19.2652 10.8946 19.5196 10.7071 19.7071C10.5196 19.8946 10.2652 20 10 20H4C3.73478 20 3.48043 19.8946 3.29289 19.7071C3.10536 19.5196 3 19.2652 3 19C3 18.7348 3.10536 18.4804 3.29289 18.2929C3.48043 18.1054 3.73478 18 4 18V14C3.73478 14 3.48043 13.8946 3.29289 13.7071C3.10536 13.5196 3 13.2652 3 13C3 12.7348 3.10536 12.4804 3.29289 12.2929C3.48043 12.1054 3.73478 12 4 12V9C3.73478 9 3.48043 8.89464 3.29289 8.70711C3.10536 8.51957 3 8.26522 3 8C3 7.73478 3.10536 7.48043 3.29289 7.29289C3.48043 7.10536 3.73478 7 4 7V5ZM18 7V8H6V7H18Z" fill="currentColor"/>
</svg>
