<svg width="24" height="24" viewBox="0 0 24 24" fill="none" xmlns="http://www.w3.org/2000/svg">
<path d="M7.8953 2C7.40294 1.99997 6.92786 2.18155 6.56105 2.50999C6.19423 2.83842 5.96146 3.29062 5.9073 3.78L5.8833 4H18.1173L18.0933 3.78C18.0391 3.29062 17.8064 2.83842 17.4396 2.50999C17.0727 2.18155 16.5977 1.99997 16.1053 2H7.8953ZM18.3393 6H5.6603L4.1303 19.78C4.09939 20.0593 4.12769 20.3421 4.21337 20.6097C4.29906 20.8774 4.44019 21.124 4.62758 21.3335C4.81496 21.5429 5.04439 21.7106 5.3009 21.8254C5.55741 21.9402 5.83525 21.9997 6.1163 22H9.1963C9.65144 22.0001 10.093 21.8451 10.4481 21.5603C10.8032 21.2756 11.0505 20.8783 11.1493 20.434L12.0003 13.61L12.8503 20.434C12.949 20.8781 13.1962 21.2753 13.5511 21.56C13.906 21.8447 14.3473 21.9999 14.8023 22H17.8823C18.1635 22 18.4416 21.9407 18.6983 21.826C18.9551 21.7113 19.1848 21.5437 19.3724 21.3342C19.56 21.1247 19.7013 20.878 19.7871 20.6102C19.8729 20.3424 19.9012 20.0595 19.8703 19.78L18.3393 6Z" fill="currentColor"/>
</svg>
