<svg width="24" height="24" viewBox="0 0 24 24" fill="none" xmlns="http://www.w3.org/2000/svg">
<path fill-rule="evenodd" clip-rule="evenodd" d="M19.6677 7.248L19.0507 6.837L17.2307 8.202C17.7338 8.63703 18.2273 9.08314 18.7107 9.54C18.9287 9.747 19.2707 9.847 19.5367 9.976C20.1256 10.2638 20.6218 10.7112 20.9688 11.2672C21.3159 11.8233 21.4998 12.4656 21.4997 13.121V15C21.4997 15.9283 21.131 16.8185 20.4746 17.4749C19.8182 18.1312 18.928 18.5 17.9997 18.5H16.1627C15.879 19.0988 15.4312 19.6048 14.8712 19.9591C14.3113 20.3134 13.6623 20.5015 12.9997 20.5015C12.3371 20.5015 11.6881 20.3134 11.1282 19.9591C10.5682 19.6048 10.1204 19.0988 9.8367 18.5H2.9997V15.5H9.8367C10.1204 14.9012 10.5682 14.3952 11.1282 14.0409C11.6881 13.6866 12.3371 13.4985 12.9997 13.4985C13.6623 13.4985 14.3113 13.6866 14.8712 14.0409C15.4312 14.3952 15.879 14.9012 16.1627 15.5H17.9997C18.1323 15.5 18.2595 15.4473 18.3533 15.3536C18.447 15.2598 18.4997 15.1326 18.4997 15V13.12C18.4999 13.0263 18.4737 12.9344 18.4242 12.8548C18.3747 12.7753 18.3039 12.7112 18.2197 12.67C17.6627 12.399 17.1027 12.15 16.6467 11.717C15.9848 11.0907 15.302 10.4867 14.5997 9.906C13.7297 9.191 12.8547 8.299 11.7257 8.023C10.7357 7.78 9.6937 7.713 8.6797 7.643C6.79869 7.52045 4.91337 7.47674 3.0287 7.512L2.9707 4.512C4.8527 4.476 7.0247 4.522 8.8877 4.651C10.3197 4.75 12.0267 4.775 13.3437 5.418C13.8107 5.646 14.3027 5.948 14.7887 6.283L17.5337 4.225C17.9475 3.91463 18.4474 3.74026 18.9645 3.72594C19.4816 3.71161 19.9903 3.85802 20.4207 4.145L21.3317 4.752C21.498 4.86021 21.6411 5.00033 21.7528 5.16424C21.8646 5.32814 21.9427 5.51259 21.9827 5.70689C22.0226 5.90119 22.0237 6.10149 21.9857 6.2962C21.9477 6.4909 21.8715 6.67614 21.7615 6.8412C21.6515 7.00625 21.5098 7.14784 21.3447 7.25777C21.1795 7.3677 20.9942 7.44378 20.7995 7.48161C20.6048 7.51945 20.4045 7.51828 20.2102 7.47818C20.0159 7.43808 19.8315 7.35984 19.6677 7.248ZM12.9997 16.5C12.8671 16.5 12.7399 16.5527 12.6461 16.6464C12.5524 16.7402 12.4997 16.8674 12.4997 17C12.4997 17.1326 12.5524 17.2598 12.6461 17.3536C12.7399 17.4473 12.8671 17.5 12.9997 17.5C13.1323 17.5 13.2595 17.4473 13.3533 17.3536C13.447 17.2598 13.4997 17.1326 13.4997 17C13.4997 16.8674 13.447 16.7402 13.3533 16.6464C13.2595 16.5527 13.1323 16.5 12.9997 16.5Z" fill="currentColor"/>
</svg>
