<svg width="24" height="24" viewBox="0 0 24 24" fill="none" xmlns="http://www.w3.org/2000/svg">
<path fill-rule="evenodd" clip-rule="evenodd" d="M12 19.5C12.2449 19.5 12.4813 19.59 12.6644 19.7527C12.8474 19.9155 12.9643 20.1397 12.993 20.383L13 20.5V21C12.9997 21.2549 12.9021 21.5 12.7272 21.6854C12.5522 21.8707 12.313 21.9822 12.0586 21.9972C11.8042 22.0121 11.5536 21.9293 11.3582 21.7657C11.1627 21.6021 11.0371 21.3701 11.007 21.117L11 21V20.5C11 20.2348 11.1054 19.9804 11.2929 19.7929C11.4804 19.6054 11.7348 19.5 12 19.5ZM12 2C14.0784 2.00002 16.0753 2.80894 17.5677 4.25547C19.0602 5.702 19.931 7.67259 19.996 9.75L20 10V21C20 21.1965 19.9421 21.3885 19.8336 21.5523C19.7251 21.7161 19.5708 21.8442 19.3899 21.9208C19.2089 21.9974 19.0095 22.019 18.8164 21.983C18.6233 21.9469 18.4451 21.8547 18.304 21.718L18.219 21.625L14.52 17H12.867C12.931 17.11 12.974 17.234 12.992 17.366L13 17.5V18C12.9997 18.2549 12.9021 18.5 12.7272 18.6854C12.5522 18.8707 12.313 18.9822 12.0586 18.9972C11.8042 19.0121 11.5536 18.9293 11.3582 18.7657C11.1627 18.6021 11.0371 18.3701 11.007 18.117L11 18V17.5C11 17.363 11.027 17.233 11.077 17.115L11.134 17H9.48L5.78 21.625C5.65721 21.7785 5.49191 21.8923 5.30477 21.9524C5.11762 22.0125 4.91693 22.016 4.72777 21.9627C4.5386 21.9093 4.36935 21.8014 4.24116 21.6525C4.11297 21.5035 4.03152 21.32 4.007 21.125L4 21V10C4 7.87827 4.84285 5.84344 6.34315 4.34315C7.84344 2.84285 9.87827 2 12 2ZM12 10C11.4696 10 10.9609 10.2107 10.5858 10.5858C10.2107 10.9609 10 11.4696 10 12V15H14V12C14 11.4696 13.7893 10.9609 13.4142 10.5858C13.0391 10.2107 12.5304 10 12 10Z" fill="currentColor"/>
</svg>
