<svg width="24" height="24" viewBox="0 0 24 24" fill="none" xmlns="http://www.w3.org/2000/svg">
<path fill-rule="evenodd" clip-rule="evenodd" d="M12 1C12.2652 1 12.5196 1.10536 12.7071 1.29289C12.8946 1.48043 13 1.73478 13 2V4.17C13.482 4.34047 13.9124 4.63124 14.2505 5.01473C14.5885 5.39822 14.823 5.86171 14.9317 6.36126C15.0404 6.8608 15.0197 7.37982 14.8715 7.8691C14.7233 8.35838 14.4526 8.8017 14.085 9.157L14.87 11.905C15.5283 12.3658 16.0657 12.9787 16.4365 13.6916C16.8073 14.4046 17.0006 15.1964 17 16C17.002 17.021 16.6895 18.0179 16.105 18.855L17.832 21.445C17.9792 21.6657 18.0327 21.9358 17.9808 22.1959C17.9288 22.456 17.7757 22.6848 17.555 22.832C17.3343 22.9792 17.0642 23.0327 16.8041 22.9808C16.544 22.9288 16.3152 22.7757 16.168 22.555L14.633 20.252C14.1315 20.5633 13.5785 20.7827 13 20.9V22C13 22.2652 12.8946 22.5196 12.7071 22.7071C12.5196 22.8946 12.2652 23 12 23C11.7348 23 11.4804 22.8946 11.2929 22.7071C11.1054 22.5196 11 22.2652 11 22V20.9C10.4218 20.7826 9.86921 20.5632 9.368 20.252L7.832 22.555C7.75912 22.6643 7.66543 22.7581 7.55628 22.8311C7.44713 22.9042 7.32467 22.955 7.19587 22.9808C7.06708 23.0065 6.93448 23.0066 6.80564 22.9811C6.67681 22.9555 6.55426 22.9049 6.445 22.832C6.33574 22.7591 6.24191 22.6654 6.16886 22.5563C6.09581 22.4471 6.04497 22.3247 6.01925 22.1959C5.99352 22.0671 5.99342 21.9345 6.01895 21.8056C6.04447 21.6768 6.09512 21.5543 6.168 21.445L7.895 18.855C7.31091 18.0177 6.99845 17.0209 7 16C7 14.307 7.842 12.81 9.13 11.905L9.915 9.157C9.54766 8.80168 9.27715 8.35843 9.12911 7.86927C8.98107 7.38011 8.9604 6.86125 9.06907 6.36187C9.17774 5.86248 9.41215 5.39912 9.75007 5.01571C10.088 4.6323 10.5182 4.34155 11 4.171V2C11 1.73478 11.1054 1.48043 11.2929 1.29289C11.4804 1.10536 11.7348 1 12 1ZM11.757 9.99L11.461 11.029C11.8197 10.9909 12.1813 10.9909 12.54 11.029L12.243 9.99C12.0813 10.0028 11.9187 10.0028 11.757 9.99ZM14.597 14.496C13.883 14.746 12.917 15 12 15C11.084 15 10.117 14.746 9.404 14.496C9.05784 15.0968 8.92896 15.7984 9.039 16.483C9.829 16.739 10.899 17 12 17C13.102 17 14.17 16.74 14.961 16.483C15.071 15.7984 14.9422 15.0968 14.596 14.496H14.597Z" fill="currentColor"/>
</svg>
