<svg width="24" height="24" viewBox="0 0 24 24" fill="none" xmlns="http://www.w3.org/2000/svg">
<path d="M7.587 2.27C7.695 2.22 7.805 2.172 7.917 2.126L8.262 1.991C9.905 1.384 12.074 1.113 15.742 2.03C17.381 2.44 18.612 3.714 19.41 5.15C20.412 6.954 21 9.378 21 12C21 14.623 20.412 17.046 19.41 18.85C18.611 20.286 17.38 21.56 15.742 21.97C12.074 22.887 9.905 22.616 8.262 22.01L7.918 21.874C7.80721 21.8282 7.6972 21.7805 7.588 21.731C6.191 21.098 5.05 19.757 4.266 18.093C3.473 16.41 3 14.309 3 12C3 9.691 3.473 7.59 4.266 5.907C5.05 4.243 6.19 2.902 7.587 2.27ZM15 4C14.147 4 13.165 4.634 12.339 6.122C11.53 7.576 11 9.65199 11 12C11 14.348 11.53 16.424 12.339 17.878C13.165 19.366 14.147 20 15 20C15.853 20 16.835 19.366 17.661 17.878C18.47 16.424 19 14.348 19 12C19 9.65199 18.47 7.576 17.661 6.122C16.835 4.634 15.853 4 15 4ZM15 8.5C15.706 8.5 16.21 9.05899 16.508 9.65499C16.821 10.281 17 11.111 17 12C17 12.89 16.82 13.719 16.508 14.345C16.21 14.941 15.706 15.5 15 15.5C14.294 15.5 13.79 14.941 13.492 14.345C13.18 13.719 13 12.889 13 12C13 11.11 13.18 10.281 13.492 9.65499C13.79 9.05999 14.294 8.5 15 8.5Z" fill="currentColor"/>
</svg>
