<svg width="24" height="24" viewBox="0 0 24 24" fill="none" xmlns="http://www.w3.org/2000/svg">
<path fill-rule="evenodd" clip-rule="evenodd" d="M19.5268 8.206C18.9285 7.72856 18.2894 7.3046 17.6168 6.939C17.3498 6.06617 16.8651 5.2756 16.2084 4.64164C15.5517 4.00768 14.7445 3.55116 13.8628 3.315L13.7978 3.298C12.9164 3.0618 11.9893 3.05361 11.1038 3.2742C10.2183 3.49478 9.40348 3.9369 8.73583 4.559C7.97048 4.53926 7.20487 4.58677 6.44783 4.701C5.48483 4.853 4.59983 5.131 3.88983 5.565C3.17383 6.002 2.58683 6.632 2.35983 7.48C2.13183 8.328 2.32583 9.167 2.72683 9.904C3.12483 10.634 3.75283 11.318 4.51083 11.931C6.02883 13.158 8.22083 14.227 10.7248 14.898C13.2278 15.568 15.6608 15.739 17.5898 15.435C18.5518 15.283 19.4368 15.005 20.1468 14.572C20.8628 14.134 21.4508 13.504 21.6768 12.656C21.9048 11.809 21.7108 10.969 21.3098 10.232C20.9118 9.502 20.2848 8.819 19.5268 8.206ZM13.2798 5.23C12.6272 5.05513 11.9372 5.07979 11.2987 5.30081C10.6603 5.52183 10.1027 5.92907 9.69783 6.47C9.15983 7.19 9.39483 7.943 9.93083 8.212C11.4348 8.96469 13.076 9.40423 14.7548 9.504C15.3528 9.54 15.9338 9.004 15.8278 8.113C15.7479 7.44181 15.4685 6.81001 15.0259 6.29913C14.5833 5.78826 13.9978 5.42178 13.3448 5.247L13.2798 5.23ZM15.9918 16.876C15.9533 16.6177 15.8153 16.3848 15.6073 16.2269C15.3993 16.0691 15.1378 15.9988 14.8787 16.0312C14.6196 16.0636 14.3835 16.196 14.2207 16.4002C14.058 16.6044 13.9816 16.8642 14.0078 17.124L14.1078 17.924C14.1463 18.1823 14.2843 18.4152 14.4923 18.5731C14.7003 18.7309 14.9618 18.8012 15.2209 18.7688C15.48 18.7364 15.7162 18.604 15.8789 18.3998C16.0417 18.1956 16.1181 17.9358 16.0918 17.676L15.9918 16.876ZM7.87383 15.986C8.00273 15.7542 8.03426 15.4807 7.9615 15.2256C7.88873 14.9706 7.71763 14.7549 7.48583 14.626C7.25403 14.4971 6.98052 14.4656 6.72547 14.5383C6.47043 14.6111 6.25473 14.7822 6.12583 15.014L5.62583 15.914C5.50343 16.1453 5.47658 16.4154 5.55104 16.6663C5.6255 16.9171 5.79534 17.1288 6.02411 17.2559C6.25288 17.383 6.52234 17.4153 6.77468 17.346C7.02702 17.2766 7.24213 17.1111 7.37383 16.885L7.87383 15.986ZM16.3928 20.076C16.3765 19.9457 16.3348 19.8198 16.2698 19.7056C16.2049 19.5914 16.1181 19.4912 16.0145 19.4105C15.9108 19.3299 15.7922 19.2704 15.6656 19.2356C15.5389 19.2008 15.4067 19.1912 15.2763 19.2075C15.146 19.2238 15.0201 19.2656 14.906 19.3305C14.7918 19.3954 14.6915 19.4822 14.6108 19.5859C14.5302 19.6896 14.4708 19.8081 14.4359 19.9347C14.4011 20.0614 14.3915 20.1937 14.4078 20.324L14.5078 21.124C14.5407 21.3872 14.6768 21.6266 14.8862 21.7895C15.0956 21.9524 15.3611 22.0254 15.6243 21.9925C15.8876 21.9596 16.1269 21.8235 16.2898 21.6141C16.4527 21.4047 16.5257 21.1392 16.4928 20.876L16.3928 20.076ZM5.87483 19.586C5.99723 19.3547 6.02408 19.0846 5.94962 18.8337C5.87516 18.5829 5.70532 18.3712 5.47655 18.2441C5.24779 18.117 4.97832 18.0847 4.72598 18.154C4.47364 18.2234 4.25854 18.3889 4.12683 18.615L3.62683 19.515C3.55841 19.63 3.51377 19.7576 3.49557 19.8902C3.47737 20.0228 3.48598 20.1577 3.52088 20.287C3.55577 20.4162 3.61626 20.5371 3.69874 20.6425C3.78123 20.7479 3.88403 20.8357 4.00107 20.9006C4.1181 20.9656 4.24698 21.0063 4.38007 21.0206C4.51316 21.0348 4.64774 21.0221 4.77586 20.9834C4.90397 20.9446 5.02299 20.8805 5.12588 20.7949C5.22877 20.7093 5.31343 20.6039 5.37483 20.485L5.87483 19.586Z" fill="currentColor"/>
</svg>
