<svg width="24" height="24" viewBox="0 0 24 24" fill="none" xmlns="http://www.w3.org/2000/svg">
<path fill-rule="evenodd" clip-rule="evenodd" d="M17 3.34001C17.2297 3.47263 17.3973 3.69104 17.4659 3.94722C17.5345 4.20339 17.4986 4.47633 17.366 4.70601L17.339 4.75301C18.9655 5.95201 20.1414 7.66325 20.6776 9.61147C21.2137 11.5597 21.079 13.6316 20.295 15.494C19.813 16.634 18.485 16.899 17.562 16.366L12.376 13.372L9.21 19H20C20.2652 19 20.5196 19.1054 20.7071 19.2929C20.8946 19.4804 21 19.7348 21 20C21 20.2652 20.8946 20.5196 20.7071 20.7071C20.5196 20.8947 20.2652 21 20 21H4C3.73478 21 3.48043 20.8947 3.29289 20.7071C3.10536 20.5196 3 20.2652 3 20C3 19.7348 3.10536 19.4804 3.29289 19.2929C3.48043 19.1054 3.73478 19 4 19H6.915L10.644 12.372L5.438 9.36601C4.514 8.83301 4.08 7.55001 4.827 6.56301C6.04794 4.95297 7.77496 3.8004 9.73026 3.29072C11.6856 2.78104 13.7555 2.94387 15.607 3.75301L15.634 3.70601C15.7666 3.47634 15.985 3.30875 16.2412 3.24011C16.4974 3.17148 16.7703 3.20741 17 3.34001Z" fill="currentColor"/>
</svg>
