<svg width="24" height="24" viewBox="0 0 24 24" fill="none" xmlns="http://www.w3.org/2000/svg">
<path d="M18.0002 18.5C18.3855 18.5002 18.7558 18.6486 19.0346 18.9144C19.3134 19.1802 19.4792 19.5431 19.4978 19.9279C19.5163 20.3127 19.386 20.6898 19.1341 20.9812C18.8821 21.2726 18.5277 21.4558 18.1442 21.493L18.0002 21.5H6.00024C5.61502 21.4998 5.24464 21.3514 4.96585 21.0856C4.68706 20.8198 4.52122 20.4569 4.50271 20.0721C4.4842 19.6873 4.61443 19.3102 4.86641 19.0188C5.11839 18.7274 5.47282 18.5442 5.85624 18.507L6.00024 18.5H18.0002ZM17.0002 2.5C17.3731 2.50002 17.7326 2.63892 18.0087 2.88962C18.2847 3.14032 18.4574 3.48484 18.4932 3.856L18.5002 4V11C18.5016 12.7046 17.8332 14.3415 16.6392 15.5581C15.4452 16.7746 13.8211 17.4735 12.1168 17.504C10.4124 17.5346 8.7643 16.8944 7.52745 15.7214C6.2906 14.5485 5.56401 12.9366 5.50424 11.233L5.50024 11V4C5.50043 3.61478 5.64881 3.24441 5.91464 2.96561C6.18048 2.68682 6.54338 2.52099 6.92815 2.50248C7.31292 2.48396 7.69007 2.61419 7.98144 2.86618C8.27281 3.11816 8.45606 3.47258 8.49324 3.856L8.50024 4V11C8.49892 11.9125 8.85402 12.7894 9.48987 13.4439C10.1257 14.0984 10.992 14.4787 11.9042 14.5037C12.8164 14.5288 13.7022 14.1966 14.373 13.578C15.0438 12.9593 15.4465 12.1032 15.4952 11.192L15.5002 11V4C15.5002 3.60218 15.6583 3.22064 15.9396 2.93934C16.2209 2.65804 16.6024 2.5 17.0002 2.5Z" fill="currentColor"/>
</svg>
