<svg width="24" height="24" viewBox="0 0 24 24" fill="none" xmlns="http://www.w3.org/2000/svg">
<path d="M4 10.9999C3.73478 10.9999 3.48043 11.1053 3.29289 11.2928C3.10536 11.4804 3 11.7347 3 11.9999C3 12.2652 3.10536 12.5195 3.29289 12.7071C3.48043 12.8946 3.73478 12.9999 4 12.9999H5C5.26522 12.9999 5.51957 12.8946 5.70711 12.7071C5.89464 12.5195 6 12.2652 6 11.9999C6 11.7347 5.89464 11.4804 5.70711 11.2928C5.51957 11.1053 5.26522 10.9999 5 10.9999H4ZM9 10.9999C8.73478 10.9999 8.48043 11.1053 8.29289 11.2928C8.10536 11.4804 8 11.7347 8 11.9999C8 12.2652 8.10536 12.5195 8.29289 12.7071C8.48043 12.8946 8.73478 12.9999 9 12.9999H10C10.2652 12.9999 10.5196 12.8946 10.7071 12.7071C10.8946 12.5195 11 12.2652 11 11.9999C11 11.7347 10.8946 11.4804 10.7071 11.2928C10.5196 11.1053 10.2652 10.9999 10 10.9999H9ZM13 11.9999C13 11.7347 13.1054 11.4804 13.2929 11.2928C13.4804 11.1053 13.7348 10.9999 14 10.9999H15C15.2652 10.9999 15.5196 11.1053 15.7071 11.2928C15.8946 11.4804 16 11.7347 16 11.9999C16 12.2652 15.8946 12.5195 15.7071 12.7071C15.5196 12.8946 15.2652 12.9999 15 12.9999H14C13.7348 12.9999 13.4804 12.8946 13.2929 12.7071C13.1054 12.5195 13 12.2652 13 11.9999ZM19 10.9999C18.7348 10.9999 18.4804 11.1053 18.2929 11.2928C18.1054 11.4804 18 11.7347 18 11.9999C18 12.2652 18.1054 12.5195 18.2929 12.7071C18.4804 12.8946 18.7348 12.9999 19 12.9999H20C20.2652 12.9999 20.5196 12.8946 20.7071 12.7071C20.8946 12.5195 21 12.2652 21 11.9999C21 11.7347 20.8946 11.4804 20.7071 11.2928C20.5196 11.1053 20.2652 10.9999 20 10.9999H19ZM10.5 17.2069L10.232 16.9389C10.0927 16.7997 9.92727 16.6892 9.74525 16.6139C9.56323 16.5385 9.36815 16.4998 9.17115 16.4998C8.97415 16.4999 8.77909 16.5387 8.5971 16.6141C8.41511 16.6896 8.24977 16.8001 8.1105 16.9394C7.97123 17.0788 7.86077 17.2442 7.78543 17.4262C7.71008 17.6082 7.67133 17.8033 7.67137 18.0003C7.67142 18.1973 7.71027 18.3924 7.7857 18.5743C7.86113 18.7563 7.97167 18.9217 8.111 19.0609L10.939 21.8889C11.0783 22.0283 11.2437 22.1389 11.4258 22.2144C11.6078 22.2898 11.8029 22.3286 12 22.3286C12.1971 22.3286 12.3922 22.2898 12.5742 22.2144C12.7563 22.1389 12.9217 22.0283 13.061 21.8889L15.889 19.0609C16.0283 18.9217 16.1389 18.7563 16.2143 18.5743C16.2897 18.3924 16.3286 18.1973 16.3286 18.0003C16.3287 17.8033 16.2899 17.6082 16.2146 17.4262C16.1392 17.2442 16.0288 17.0788 15.8895 16.9394C15.7502 16.8001 15.5849 16.6896 15.4029 16.6141C15.2209 16.5387 15.0259 16.4999 14.8289 16.4998C14.6319 16.4998 14.4368 16.5385 14.2548 16.6139C14.0727 16.6892 13.9073 16.7997 13.768 16.9389L13.5 17.2069V15.9999C13.5 15.803 13.4612 15.6079 13.3858 15.4259C13.3104 15.2439 13.1999 15.0786 13.0607 14.9393C12.9214 14.8 12.756 14.6895 12.574 14.6141C12.392 14.5387 12.197 14.4999 12 14.4999C11.803 14.4999 11.608 14.5387 11.426 14.6141C11.244 14.6895 11.0786 14.8 10.9393 14.9393C10.8001 15.0786 10.6896 15.2439 10.6142 15.4259C10.5388 15.6079 10.5 15.803 10.5 15.9999V17.2069ZM12 9.49994C11.6022 9.49994 11.2206 9.34191 10.9393 9.06061C10.658 8.7793 10.5 8.39777 10.5 7.99994V6.79294L10.232 7.06094C10.0927 7.20021 9.92727 7.31067 9.74525 7.38602C9.56323 7.46136 9.36815 7.50012 9.17115 7.50007C8.77329 7.49998 8.39176 7.34184 8.1105 7.06044C7.97123 6.92111 7.86077 6.75571 7.78543 6.57369C7.71008 6.39167 7.67133 6.19659 7.67137 5.99959C7.67147 5.60173 7.82961 5.22021 8.111 4.93894L10.939 2.11094C11.0783 1.97155 11.2437 1.86098 11.4258 1.78554C11.6078 1.7101 11.8029 1.67126 12 1.67126C12.1971 1.67126 12.3922 1.7101 12.5742 1.78554C12.7563 1.86098 12.9217 1.97155 13.061 2.11094L15.889 4.93894C16.1704 5.22021 16.3285 5.60173 16.3286 5.99959C16.3287 6.39745 16.1708 6.77905 15.8895 7.06044C15.6082 7.34184 15.2267 7.49998 14.8289 7.50007C14.431 7.50017 14.0494 7.34221 13.768 7.06094L13.5 6.79294V7.99994C13.5 8.39777 13.342 8.7793 13.0607 9.06061C12.7794 9.34191 12.3978 9.49994 12 9.49994Z" fill="currentColor"/>
</svg>
