<svg width="24" height="24" viewBox="0 0 24 24" fill="none" xmlns="http://www.w3.org/2000/svg">
<path d="M13.0001 4C13.0001 3.73478 12.8947 3.48043 12.7072 3.29289C12.5196 3.10536 12.2653 3 12.0001 3C11.7348 3 11.4805 3.10536 11.293 3.29289C11.1054 3.48043 11.0001 3.73478 11.0001 4V5C11.0001 5.26522 11.1054 5.51957 11.293 5.70711C11.4805 5.89464 11.7348 6 12.0001 6C12.2653 6 12.5196 5.89464 12.7072 5.70711C12.8947 5.51957 13.0001 5.26522 13.0001 5V4ZM13.0001 9C13.0001 8.73478 12.8947 8.48043 12.7072 8.29289C12.5196 8.10536 12.2653 8 12.0001 8C11.7348 8 11.4805 8.10536 11.293 8.29289C11.1054 8.48043 11.0001 8.73478 11.0001 9V10C11.0001 10.2652 11.1054 10.5196 11.293 10.7071C11.4805 10.8946 11.7348 11 12.0001 11C12.2653 11 12.5196 10.8946 12.7072 10.7071C12.8947 10.5196 13.0001 10.2652 13.0001 10V9ZM12.0001 13C12.2653 13 12.5196 13.1054 12.7072 13.2929C12.8947 13.4804 13.0001 13.7348 13.0001 14V15C13.0001 15.2652 12.8947 15.5196 12.7072 15.7071C12.5196 15.8946 12.2653 16 12.0001 16C11.7348 16 11.4805 15.8946 11.293 15.7071C11.1054 15.5196 11.0001 15.2652 11.0001 15V14C11.0001 13.7348 11.1054 13.4804 11.293 13.2929C11.4805 13.1054 11.7348 13 12.0001 13ZM13.0001 19C13.0001 18.7348 12.8947 18.4804 12.7072 18.2929C12.5196 18.1054 12.2653 18 12.0001 18C11.7348 18 11.4805 18.1054 11.293 18.2929C11.1054 18.4804 11.0001 18.7348 11.0001 19V20C11.0001 20.2652 11.1054 20.5196 11.293 20.7071C11.4805 20.8946 11.7348 21 12.0001 21C12.2653 21 12.5196 20.8946 12.7072 20.7071C12.8947 20.5196 13.0001 20.2652 13.0001 20V19ZM6.79307 10.5L7.06107 10.232C7.20033 10.0927 7.31079 9.92727 7.38614 9.74525C7.46148 9.56323 7.50024 9.36815 7.50019 9.17115C7.50015 8.97415 7.4613 8.77909 7.38587 8.5971C7.31044 8.41511 7.1999 8.24977 7.06057 8.1105C6.92123 7.97123 6.75584 7.86077 6.57381 7.78543C6.39179 7.71008 6.19671 7.67133 5.99971 7.67137C5.80271 7.67142 5.60765 7.71027 5.42567 7.7857C5.24368 7.86113 5.07833 7.97167 4.93907 8.111L2.11107 10.939C1.97168 11.0783 1.8611 11.2437 1.78566 11.4258C1.71022 11.6078 1.67139 11.8029 1.67139 12C1.67139 12.1971 1.71022 12.3922 1.78566 12.5742C1.8611 12.7563 1.97168 12.9217 2.11107 13.061L4.93907 15.889C5.22033 16.1704 5.60185 16.3285 5.99971 16.3286C6.39757 16.3287 6.77917 16.1708 7.06057 15.8895C7.34196 15.6082 7.5001 15.2267 7.50019 14.8289C7.50029 14.431 7.34233 14.0494 7.06107 13.768L6.79307 13.5H8.00007C8.39789 13.5 8.77942 13.342 9.06073 13.0607C9.34203 12.7794 9.50007 12.3978 9.50007 12C9.50007 11.6022 9.34203 11.2206 9.06073 10.9393C8.77942 10.658 8.39789 10.5 8.00007 10.5H6.79307ZM14.5001 12C14.5001 11.6022 14.6581 11.2206 14.9394 10.9393C15.2207 10.658 15.6022 10.5 16.0001 10.5H17.2071L16.9391 10.232C16.7998 10.0927 16.6893 9.92727 16.614 9.74525C16.5386 9.56323 16.4999 9.36815 16.4999 9.17115C16.5 8.77329 16.6582 8.39176 16.9396 8.1105C17.221 7.82924 17.6026 7.67128 18.0004 7.67137C18.1974 7.67142 18.3925 7.71027 18.5745 7.7857C18.7565 7.86113 18.9218 7.97167 19.0611 8.111L21.8891 10.939C22.0285 11.0783 22.139 11.2437 22.2145 11.4258C22.2899 11.6078 22.3287 11.8029 22.3287 12C22.3287 12.1971 22.2899 12.3922 22.2145 12.5742C22.139 12.7563 22.0285 12.9217 21.8891 13.061L19.0611 15.889C18.9218 16.0283 18.7565 16.1389 18.5745 16.2143C18.3925 16.2897 18.1974 16.3286 18.0004 16.3286C17.8034 16.3287 17.6083 16.2899 17.4263 16.2146C17.2443 16.1392 17.0789 16.0288 16.9396 15.8895C16.8002 15.7502 16.6897 15.5849 16.6143 15.4029C16.5388 15.2209 16.5 15.0259 16.4999 14.8289C16.4999 14.6319 16.5386 14.4368 16.614 14.2548C16.6893 14.0727 16.7998 13.9073 16.9391 13.768L17.2071 13.5H16.0001C15.6022 13.5 15.2207 13.342 14.9394 13.0607C14.6581 12.7794 14.5001 12.3978 14.5001 12Z" fill="currentColor"/>
</svg>
