<svg width="24" height="24" viewBox="0 0 24 24" fill="none" xmlns="http://www.w3.org/2000/svg">
<path fill-rule="evenodd" clip-rule="evenodd" d="M12 2C17.523 2 22 6.477 22 12C22 17.523 17.523 22 12 22C6.477 22 2 17.523 2 12C2 6.477 6.477 2 12 2ZM12 14C10.7816 13.9983 9.60481 14.443 8.692 15.25C8.49309 15.4256 8.37207 15.673 8.35557 15.9378C8.33906 16.2026 8.42843 16.4631 8.604 16.662C8.77957 16.8609 9.02697 16.9819 9.29177 16.9984C9.55658 17.0149 9.81709 16.9256 10.016 16.75C10.5632 16.2655 11.2692 15.9987 12 16C12.761 16 13.455 16.282 13.984 16.75C14.1829 16.9256 14.4434 17.0149 14.7082 16.9984C14.973 16.9819 15.2204 16.8609 15.396 16.662C15.5716 16.4631 15.6609 16.2026 15.6444 15.9378C15.6279 15.673 15.5069 15.4256 15.308 15.25C14.3952 14.443 13.2184 13.9983 12 14ZM9.164 9.45L9.106 9.552C8.944 9.876 8.696 10 8.5 10C8.33 10 8.118 9.905 7.959 9.664L7.894 9.552C7.83579 9.43356 7.75471 9.32781 7.65544 9.24085C7.55616 9.15389 7.44066 9.08744 7.31558 9.04534C7.19051 9.00323 7.05833 8.9863 6.92668 8.99552C6.79503 9.00474 6.6665 9.03992 6.54852 9.09905C6.43053 9.15817 6.32541 9.24007 6.23922 9.34001C6.15304 9.43996 6.08749 9.55597 6.04635 9.68137C6.00521 9.80677 5.98931 9.93907 5.99954 10.0706C6.00978 10.2022 6.04596 10.3305 6.106 10.448C6.542 11.32 7.413 12 8.5 12C9.587 12 10.457 11.32 10.894 10.448C11.0086 10.2199 11.0316 9.95652 10.9583 9.71196C10.885 9.46739 10.721 9.26013 10.4998 9.13265C10.2785 9.00517 10.017 8.96712 9.7686 9.02631C9.52024 9.0855 9.30393 9.23745 9.164 9.451V9.45ZM17.448 9.106C17.2289 8.99616 16.9771 8.97061 16.7404 9.03421C16.5037 9.09781 16.2986 9.24613 16.164 9.451L16.106 9.552C15.944 9.876 15.696 10 15.5 10C15.33 10 15.118 9.905 14.959 9.664L14.894 9.552C14.8358 9.43356 14.7547 9.32781 14.6554 9.24085C14.5562 9.15389 14.4407 9.08744 14.3156 9.04534C14.1905 9.00323 14.0583 8.9863 13.9267 8.99552C13.795 9.00474 13.6665 9.03992 13.5485 9.09905C13.4305 9.15817 13.3254 9.24007 13.2392 9.34001C13.153 9.43996 13.0875 9.55597 13.0463 9.68137C13.0052 9.80677 12.9893 9.93907 12.9995 10.0706C13.0098 10.2022 13.046 10.3305 13.106 10.448C13.543 11.32 14.413 12 15.5 12C16.587 12 17.457 11.32 17.894 10.448C18.0128 10.2109 18.0326 9.93631 17.9489 9.68463C17.8653 9.43296 17.6851 9.22482 17.448 9.106Z" fill="currentColor"/>
</svg>
