<svg width="24" height="24" viewBox="0 0 24 24" fill="none" xmlns="http://www.w3.org/2000/svg">
<path fill-rule="evenodd" clip-rule="evenodd" d="M12 2C17.523 2 22 6.477 22 12C22 17.523 17.523 22 12 22C6.477 22 2 17.523 2 12C2 6.477 6.477 2 12 2ZM12 14C10.7816 13.9983 9.60481 14.443 8.692 15.25C8.49309 15.4256 8.37207 15.673 8.35557 15.9378C8.33906 16.2026 8.42843 16.4631 8.604 16.662C8.77957 16.8609 9.02697 16.9819 9.29177 16.9984C9.55658 17.0149 9.81709 16.9256 10.016 16.75C10.5632 16.2655 11.2692 15.9987 12 16C12.761 16 13.455 16.282 13.984 16.75C14.1829 16.9256 14.4434 17.0149 14.7082 16.9984C14.973 16.9819 15.2204 16.8609 15.396 16.662C15.5716 16.4631 15.6609 16.2026 15.6444 15.9378C15.6279 15.673 15.5069 15.4256 15.308 15.25C14.3952 14.443 13.2184 13.9983 12 14ZM8.707 8.293C8.52704 8.11365 8.28557 8.00953 8.03162 8.00177C7.77767 7.99402 7.53029 8.08321 7.33972 8.25125C7.14916 8.41928 7.02969 8.65355 7.0056 8.90647C6.98151 9.1594 7.05459 9.41201 7.21 9.613L7.293 9.707L7.586 10L7.293 10.293C7.11365 10.473 7.00953 10.7144 7.00177 10.9684C6.99402 11.2223 7.08322 11.4697 7.25125 11.6603C7.41928 11.8508 7.65355 11.9703 7.90647 11.9944C8.1594 12.0185 8.41201 11.9454 8.613 11.79L8.707 11.707L9 11.414L9.293 11.707C9.47296 11.8863 9.71443 11.9905 9.96838 11.9982C10.2223 12.006 10.4697 11.9168 10.6603 11.7488C10.8508 11.5807 10.9703 11.3464 10.9944 11.0935C11.0185 10.8406 10.9454 10.588 10.79 10.387L10.707 10.293L10.414 10L10.707 9.707C10.8863 9.52704 10.9905 9.28557 10.9982 9.03162C11.006 8.77767 10.9168 8.53029 10.7488 8.33972C10.5807 8.14916 10.3464 8.02969 10.0935 8.0056C9.8406 7.98151 9.58799 8.05459 9.387 8.21L9.293 8.293L9 8.586L8.707 8.293ZM13.293 8.293C13.1055 8.48053 13.0002 8.73484 13.0002 9C13.0002 9.26516 13.1055 9.51947 13.293 9.707L13.586 10L13.293 10.293C13.1108 10.4816 13.01 10.7342 13.0123 10.9964C13.0146 11.2586 13.1198 11.5094 13.3052 11.6948C13.4906 11.8802 13.7414 11.9854 14.0036 11.9877C14.2658 11.99 14.5184 11.8892 14.707 11.707L15 11.414L15.293 11.707C15.4816 11.8892 15.7342 11.99 15.9964 11.9877C16.2586 11.9854 16.5094 11.8802 16.6948 11.6948C16.8802 11.5094 16.9854 11.2586 16.9877 10.9964C16.99 10.7342 16.8892 10.4816 16.707 10.293L16.414 10L16.707 9.707C16.8892 9.5184 16.99 9.2658 16.9877 9.0036C16.9854 8.7414 16.8802 8.49059 16.6948 8.30518C16.5094 8.11977 16.2586 8.0146 15.9964 8.01233C15.7342 8.01005 15.4816 8.11084 15.293 8.293L15 8.586L14.707 8.293C14.5195 8.10553 14.2652 8.00021 14 8.00021C13.7348 8.00021 13.4805 8.10553 13.293 8.293Z" fill="currentColor"/>
</svg>
