<svg width="24" height="24" viewBox="0 0 24 24" fill="none" xmlns="http://www.w3.org/2000/svg">
<path d="M11.1169 9.473C11.3347 9.25573 11.625 9.12642 11.9322 9.10982C12.2394 9.09321 12.5419 9.19048 12.7819 9.383L12.8829 9.473L15.7069 12.293C15.8881 12.4725 15.9939 12.7146 16.0025 12.9695C16.0112 13.2245 15.9221 13.4732 15.7534 13.6646C15.5847 13.856 15.3493 13.9757 15.0952 13.9992C14.8412 14.0227 14.5878 13.9482 14.3869 13.791L14.2929 13.708L12.9999 12.416V21C12.9996 21.2549 12.902 21.5 12.727 21.6854C12.552 21.8707 12.3129 21.9822 12.0585 21.9972C11.804 22.0121 11.5535 21.9293 11.358 21.7657C11.1626 21.6021 11.037 21.3701 11.0069 21.117L10.9999 21V12.416L9.70686 13.708C9.52714 13.8889 9.28511 13.9943 9.03026 14.0027C8.7754 14.0111 8.52697 13.9217 8.33578 13.753C8.14458 13.5843 8.02506 13.3489 8.00165 13.095C7.97825 12.8411 8.05273 12.5878 8.20986 12.387L8.29286 12.292L11.1169 9.473ZM11.4999 2C14.2839 2 16.6599 3.75 17.5859 6.212C18.9694 6.58982 20.1718 7.45072 20.9753 8.63872C21.7787 9.82672 22.1301 11.2632 21.9657 12.688C21.8012 14.1127 21.1319 15.4314 20.079 16.4051C19.026 17.3789 17.6591 17.9433 16.2259 17.996L15.9999 18H14.9999V16C15.5766 16.0001 16.1412 15.8339 16.6259 15.5213C17.1107 15.2087 17.495 14.7631 17.733 14.2377C17.9709 13.7123 18.0524 13.1294 17.9676 12.5589C17.8828 11.9884 17.6353 11.4545 17.2549 11.021L17.1199 10.877L14.2959 8.058C13.7107 7.47397 12.925 7.1349 12.0986 7.10982C11.2722 7.08474 10.4674 7.37553 9.84786 7.923L9.70386 8.058L6.87986 10.878C6.47267 11.2848 6.1911 11.8001 6.06872 12.3625C5.94634 12.9249 5.98833 13.5106 6.18967 14.0498C6.39101 14.589 6.74321 15.0589 7.20425 15.4035C7.66529 15.748 8.21571 15.9527 8.78986 15.993L8.99986 16V18H6.99986C5.85057 18.0008 4.73611 17.6056 3.84405 16.8809C2.95199 16.1563 2.3368 15.1465 2.10203 14.0214C1.86725 12.8964 2.02722 11.7248 2.55501 10.7038C3.0828 9.6829 3.94619 8.87496 4.99986 8.416C5.02195 6.70669 5.71651 5.07489 6.93311 3.87401C8.14971 2.67313 9.79041 1.99986 11.4999 2Z" fill="currentColor"/>
</svg>
