<svg width="24" height="24" viewBox="0 0 24 24" fill="none" xmlns="http://www.w3.org/2000/svg">
<path fill-rule="evenodd" clip-rule="evenodd" d="M11.9999 2C12.1497 2.00009 12.2976 2.03384 12.4326 2.09875C12.5676 2.16365 12.6863 2.25806 12.7799 2.375L14.7799 4.875C14.8976 5.02203 14.9714 5.19931 14.9928 5.38644C15.0142 5.57357 14.9823 5.76293 14.9008 5.93273C14.8193 6.10253 14.6915 6.24586 14.5321 6.34622C14.3727 6.44658 14.1883 6.49988 13.9999 6.5H12.9999V12.882L15.9999 11.382V11C15.7347 11 15.4803 10.8946 15.2928 10.7071C15.1053 10.5196 14.9999 10.2652 14.9999 10V8C14.9999 7.73478 15.1053 7.48043 15.2928 7.29289C15.4803 7.10536 15.7347 7 15.9999 7H17.9999C18.2651 7 18.5195 7.10536 18.707 7.29289C18.8946 7.48043 18.9999 7.73478 18.9999 8V10C18.9999 10.2652 18.8946 10.5196 18.707 10.7071C18.5195 10.8946 18.2651 11 17.9999 11V11.382C17.9999 11.7535 17.8964 12.1176 17.7011 12.4336C17.5057 12.7496 17.2262 13.0049 16.8939 13.171L13.5529 14.841C13.3867 14.9241 13.2469 15.0518 13.1492 15.2099C13.0515 15.368 12.9998 15.5502 12.9999 15.736V16.171C13.6466 16.3994 14.1955 16.8425 14.5553 17.4263C14.915 18.0102 15.064 18.6997 14.9773 19.38C14.8906 20.0603 14.5735 20.6904 14.0787 21.1654C13.584 21.6404 12.9416 21.9316 12.2583 21.9905C11.575 22.0495 10.8921 21.8726 10.3234 21.4894C9.75463 21.1061 9.3343 20.5397 9.13237 19.8843C8.93044 19.2288 8.95909 18.524 9.21355 17.8872C9.46801 17.2503 9.93293 16.7198 10.5309 16.384L7.10591 14.67C6.77375 14.504 6.49436 14.2488 6.29902 13.9331C6.10368 13.6173 6.00011 13.2533 5.99991 12.882V11.732C5.61865 11.5119 5.32069 11.1721 5.15222 10.7653C4.98375 10.3586 4.9542 9.90761 5.06815 9.48236C5.1821 9.0571 5.43318 8.68133 5.78245 8.41332C6.13172 8.1453 6.55966 8.00002 6.99991 8C7.44017 8.00002 7.86811 8.1453 8.21738 8.41332C8.56665 8.68133 8.81773 9.0571 8.93167 9.48236C9.04562 9.90761 9.01607 10.3586 8.8476 10.7653C8.67914 11.1721 8.38117 11.5119 7.99991 11.732V12.882L10.9999 14.382V6.5H9.99991C9.81157 6.49988 9.62708 6.44658 9.4677 6.34622C9.30832 6.24586 9.18052 6.10253 9.09901 5.93273C9.01751 5.76293 8.98562 5.57357 9.00701 5.38644C9.02839 5.19931 9.1022 5.02203 9.21991 4.875L11.2199 2.375C11.3135 2.25806 11.4322 2.16365 11.5672 2.09875C11.7022 2.03384 11.8501 2.00009 11.9999 2Z" fill="currentColor"/>
</svg>
