<svg width="24" height="24" viewBox="0 0 24 24" fill="none" xmlns="http://www.w3.org/2000/svg">
<path d="M9.882 3.122C10.0367 3.4884 10.0395 3.90123 9.88984 4.26972C9.7402 4.6382 9.45034 4.93217 9.084 5.087C7.72471 5.66072 6.56475 6.62246 5.74917 7.85195C4.93358 9.08144 4.49859 10.5241 4.49859 11.9995C4.49859 13.4749 4.93358 14.9176 5.74917 16.147C6.56475 17.3765 7.72471 18.3383 9.084 18.912C9.26549 18.9887 9.43009 19.1004 9.56841 19.2407C9.70674 19.381 9.81607 19.5472 9.89017 19.7297C9.96427 19.9123 10.0017 20.1077 10.0003 20.3047C9.99889 20.5017 9.95869 20.6965 9.882 20.878C9.80531 21.0595 9.69362 21.2241 9.55331 21.3624C9.41301 21.5007 9.24683 21.6101 9.06427 21.6842C8.88171 21.7583 8.68634 21.7957 8.48932 21.7943C8.2923 21.7929 8.09749 21.7527 7.916 21.676C6.01373 20.8726 4.39053 19.5262 3.24936 17.8052C2.10819 16.0842 1.49971 14.065 1.5 12C1.5 7.647 4.149 3.916 7.916 2.324C8.09748 2.24726 8.2923 2.20703 8.48934 2.20561C8.68637 2.20418 8.88175 2.24159 9.06432 2.3157C9.24689 2.38981 9.41308 2.49916 9.55338 2.6375C9.69368 2.77585 9.80534 2.94048 9.882 3.122ZM16.084 2.324C17.9862 3.12752 19.6093 4.47393 20.7505 6.19491C21.8916 7.91588 22.5002 9.93506 22.5 12C22.5 16.353 19.851 20.084 16.084 21.676C15.7175 21.8309 15.3044 21.8338 14.9357 21.6842C14.567 21.5345 14.2729 21.2445 14.118 20.878C13.9631 20.5115 13.9602 20.0984 14.1098 19.7297C14.2595 19.361 14.5495 19.0669 14.916 18.912C16.2753 18.3383 17.4353 17.3765 18.2508 16.147C19.0664 14.9176 19.5014 13.4749 19.5014 11.9995C19.5014 10.5241 19.0664 9.08144 18.2508 7.85195C17.4353 6.62246 16.2753 5.66072 14.916 5.087C14.732 5.01209 14.5647 4.90138 14.4238 4.76129C14.283 4.6212 14.1713 4.45452 14.0954 4.27094C14.0195 4.08735 13.9808 3.8905 13.9815 3.69183C13.9823 3.49317 14.0226 3.29663 14.0999 3.11364C14.1773 2.93065 14.2902 2.76485 14.4322 2.62586C14.5741 2.48688 14.7423 2.37748 14.9269 2.30401C15.1115 2.23055 15.3088 2.19449 15.5074 2.19792C15.7061 2.20135 15.9021 2.2442 16.084 2.324ZM12 5.5C12.3978 5.5 12.7794 5.65803 13.0607 5.93934C13.342 6.22064 13.5 6.60217 13.5 7H15C15.3978 7 15.7794 7.15803 16.0607 7.43934C16.342 7.72064 16.5 8.10217 16.5 8.5C16.5 8.89782 16.342 9.27935 16.0607 9.56066C15.7794 9.84196 15.3978 10 15 10H13.5V10.5H13.75C14.612 10.5 15.4386 10.8424 16.0481 11.4519C16.6576 12.0614 17 12.888 17 13.75C17 14.612 16.6576 15.4386 16.0481 16.0481C15.4386 16.6576 14.612 17 13.75 17H13.5C13.5 17.3978 13.342 17.7794 13.0607 18.0607C12.7794 18.342 12.3978 18.5 12 18.5C11.6022 18.5 11.2206 18.342 10.9393 18.0607C10.658 17.7794 10.5 17.3978 10.5 17H9C8.60218 17 8.22064 16.842 7.93934 16.5607C7.65804 16.2794 7.5 15.8978 7.5 15.5C7.5 15.1022 7.65804 14.7206 7.93934 14.4393C8.22064 14.158 8.60218 14 9 14H10.5V13.5H10.25C9.38805 13.5 8.5614 13.1576 7.9519 12.5481C7.34241 11.9386 7 11.112 7 10.25C7 9.38804 7.34241 8.56139 7.9519 7.9519C8.5614 7.34241 9.38805 7 10.25 7H10.5C10.5 6.60217 10.658 6.22064 10.9393 5.93934C11.2206 5.65803 11.6022 5.5 12 5.5ZM13.75 13.5H13.5V14H13.75C13.8163 14 13.8799 13.9737 13.9268 13.9268C13.9737 13.8799 14 13.8163 14 13.75C14 13.6837 13.9737 13.6201 13.9268 13.5732C13.8799 13.5263 13.8163 13.5 13.75 13.5ZM10.5 10H10.25C10.1837 10 10.1201 10.0263 10.0732 10.0732C10.0263 10.1201 10 10.1837 10 10.25C10 10.3163 10.0263 10.3799 10.0732 10.4268C10.1201 10.4737 10.1837 10.5 10.25 10.5H10.5V10Z" fill="currentColor"/>
</svg>
