<svg width="24" height="24" viewBox="0 0 24 24" fill="none" xmlns="http://www.w3.org/2000/svg">
<path fill-rule="evenodd" clip-rule="evenodd" d="M16 13.5C17.4587 13.5 18.8576 14.0795 19.8891 15.1109C20.9205 16.1424 21.5 17.5413 21.5 19V20.5C21.5 20.8978 21.342 21.2794 21.0607 21.5607C20.7794 21.842 20.3978 22 20 22C19.6022 22 19.2206 21.842 18.9393 21.5607C18.658 21.2794 18.5 20.8978 18.5 20.5V19C18.5 18.337 18.2366 17.7011 17.7678 17.2322C17.2989 16.7634 16.663 16.5 16 16.5H8C7.33696 16.5 6.70107 16.7634 6.23223 17.2322C5.76339 17.7011 5.5 18.337 5.5 19V20.5C5.5 20.8978 5.34196 21.2794 5.06066 21.5607C4.77936 21.842 4.39782 22 4 22C3.60218 22 3.22064 21.842 2.93934 21.5607C2.65804 21.2794 2.5 20.8978 2.5 20.5V19C2.5 17.5413 3.07946 16.1424 4.11091 15.1109C5.14236 14.0795 6.54131 13.5 8 13.5H16ZM12 1.5C13.4587 1.5 14.8576 2.07946 15.8891 3.11091C16.9205 4.14236 17.5 5.54131 17.5 7C17.5 8.45869 16.9205 9.85764 15.8891 10.8891C14.8576 11.9205 13.4587 12.5 12 12.5C10.5413 12.5 9.14236 11.9205 8.11091 10.8891C7.07946 9.85764 6.5 8.45869 6.5 7C6.5 5.54131 7.07946 4.14236 8.11091 3.11091C9.14236 2.07946 10.5413 1.5 12 1.5ZM12 4.5C11.337 4.5 10.7011 4.76339 10.2322 5.23223C9.76339 5.70107 9.5 6.33696 9.5 7C9.5 7.66304 9.76339 8.29893 10.2322 8.76777C10.7011 9.23661 11.337 9.5 12 9.5C12.663 9.5 13.2989 9.23661 13.7678 8.76777C14.2366 8.29893 14.5 7.66304 14.5 7C14.5 6.33696 14.2366 5.70107 13.7678 5.23223C13.2989 4.76339 12.663 4.5 12 4.5Z" fill="currentColor"/>
</svg>
