<svg width="24" height="24" viewBox="0 0 24 24" fill="none" xmlns="http://www.w3.org/2000/svg">
<path d="M11 2C9.67392 2 8.40215 2.52678 7.46447 3.46447C6.52678 4.40215 6 5.67392 6 7C6 8.32608 6.52678 9.59785 7.46447 10.5355C8.40215 11.4732 9.67392 12 11 12C12.3261 12 13.5979 11.4732 14.5355 10.5355C15.4732 9.59785 16 8.32608 16 7C16 5.67392 15.4732 4.40215 14.5355 3.46447C13.5979 2.52678 12.3261 2 11 2ZM11 13C11.59 13 12.167 13.042 12.724 13.12C12.9116 13.1462 13.088 13.2252 13.2325 13.3478C13.377 13.4703 13.4837 13.6314 13.5401 13.8123C13.5966 13.9931 13.6006 14.1863 13.5515 14.3693C13.5024 14.5524 13.4024 14.7177 13.263 14.846C12.4399 15.5999 11.8097 16.5402 11.4251 17.588C11.0406 18.6359 10.913 19.7607 11.053 20.868C11.0707 21.0103 11.0575 21.1547 11.0145 21.2915C10.9714 21.4282 10.8995 21.5541 10.8035 21.6606C10.7075 21.7671 10.5897 21.8518 10.4582 21.9088C10.3266 21.9658 10.1843 21.9938 10.041 21.991C8.031 21.951 6.151 21.775 4.747 21.345C4.045 21.13 3.383 20.828 2.881 20.383C2.35 19.913 2 19.28 2 18.5C2 17.713 2.358 16.977 2.844 16.361C3.338 15.736 4.021 15.161 4.822 14.671C6.425 13.695 8.605 13 11 13ZM21.212 14.034C21.6807 14.5028 21.944 15.1386 21.944 15.8015C21.944 16.4644 21.6807 17.1002 21.212 17.569L17.794 20.987C17.5646 21.2163 17.2671 21.3651 16.946 21.411L14.637 21.741C14.4832 21.7629 14.3263 21.7487 14.1789 21.6995C14.0315 21.6503 13.8976 21.5674 13.7878 21.4575C13.6779 21.3476 13.5952 21.2136 13.5461 21.0661C13.497 20.9187 13.483 20.7618 13.505 20.608L13.835 18.3C13.8807 17.9786 14.0295 17.6807 14.259 17.451L17.677 14.033C18.1458 13.5643 18.7816 13.301 19.4445 13.301C20.1074 13.301 20.7432 13.5643 21.212 14.033V14.034Z" fill="currentColor"/>
</svg>
