<svg width="24" height="24" viewBox="0 0 24 24" fill="none" xmlns="http://www.w3.org/2000/svg">
<path fill-rule="evenodd" clip-rule="evenodd" d="M11 2C9.67392 2 8.40215 2.52678 7.46447 3.46447C6.52678 4.40215 6 5.67392 6 7C6 8.32608 6.52678 9.59785 7.46447 10.5355C8.40215 11.4732 9.67392 12 11 12C12.3261 12 13.5979 11.4732 14.5355 10.5355C15.4732 9.59785 16 8.32608 16 7C16 5.67392 15.4732 4.40215 14.5355 3.46447C13.5979 2.52678 12.3261 2 11 2ZM11 13C8.605 13 6.425 13.694 4.822 14.672C4.022 15.16 3.338 15.736 2.844 16.362C2.358 16.976 2 17.713 2 18.5C2 19.345 2.411 20.011 3.003 20.486C3.563 20.936 4.302 21.234 5.087 21.442C6.665 21.859 8.771 22 11 22C11.23 22 11.46 21.998 11.685 21.995C11.8525 21.9927 12.0167 21.9484 12.1626 21.8661C12.3085 21.7838 12.4313 21.6662 12.5199 21.524C12.6085 21.3819 12.66 21.2198 12.6696 21.0525C12.6792 20.8853 12.6467 20.7184 12.575 20.567C12.1949 19.7647 11.9985 18.8878 12 18C12 16.748 12.383 15.588 13.037 14.627C13.1342 14.4842 13.1928 14.3186 13.207 14.1465C13.2212 13.9743 13.1905 13.8014 13.118 13.6446C13.0455 13.4878 12.9336 13.3524 12.7932 13.2517C12.6528 13.151 12.4888 13.0884 12.317 13.07C11.887 13.024 11.447 13 11 13ZM18.864 13.997C18.776 13.8459 18.6499 13.7206 18.4983 13.6335C18.3466 13.5463 18.1749 13.5005 18 13.5005C17.8251 13.5005 17.6534 13.5463 17.5017 13.6335C17.3501 13.7206 17.224 13.8459 17.136 13.997L16.226 15.559L14.46 15.941C14.289 15.978 14.1307 16.0592 14.0009 16.1765C13.8711 16.2938 13.7744 16.4431 13.7203 16.6095C13.6663 16.7759 13.6568 16.9535 13.6929 17.1247C13.729 17.2959 13.8094 17.4546 13.926 17.585L15.13 18.933L14.948 20.731C14.9304 20.905 14.9587 21.0806 15.0301 21.2402C15.1015 21.3998 15.2135 21.538 15.355 21.6408C15.4965 21.7436 15.6624 21.8075 15.8363 21.8261C16.0102 21.8448 16.186 21.8175 16.346 21.747L18 21.017L19.654 21.747C19.814 21.8175 19.9898 21.8448 20.1637 21.8261C20.3376 21.8075 20.5035 21.7436 20.645 21.6408C20.7865 21.538 20.8985 21.3998 20.9699 21.2402C21.0413 21.0806 21.0696 20.905 21.052 20.731L20.87 18.932L22.074 17.585C22.1906 17.4546 22.271 17.2959 22.3071 17.1247C22.3432 16.9535 22.3337 16.7759 22.2797 16.6095C22.2256 16.4431 22.1289 16.2938 21.9991 16.1765C21.8693 16.0592 21.711 15.978 21.54 15.941L19.774 15.559L18.864 13.997Z" fill="currentColor"/>
</svg>
