<svg width="24" height="24" viewBox="0 0 24 24" fill="none" xmlns="http://www.w3.org/2000/svg">
<path d="M6 7C6 5.67392 6.52678 4.40215 7.46447 3.46447C8.40215 2.52678 9.67392 2 11 2C12.3261 2 13.5979 2.52678 14.5355 3.46447C15.4732 4.40215 16 5.67392 16 7C16 8.32608 15.4732 9.59785 14.5355 10.5355C13.5979 11.4732 12.3261 12 11 12C9.67392 12 8.40215 11.4732 7.46447 10.5355C6.52678 9.59785 6 8.32608 6 7ZM4.822 14.672C6.425 13.694 8.605 13 11 13C11.447 13 11.887 13.024 12.316 13.07C12.4878 13.0884 12.6518 13.151 12.7922 13.2517C12.9326 13.3524 13.0445 13.4878 13.117 13.6446C13.1895 13.8014 13.2202 13.9743 13.206 14.1465C13.1918 14.3186 13.1332 14.4842 13.036 14.627C12.3586 15.6212 11.9975 16.7969 12 18C12 18.92 12.207 19.79 12.575 20.567C12.6467 20.7184 12.6792 20.8853 12.6696 21.0525C12.66 21.2198 12.6085 21.3819 12.5199 21.524C12.4313 21.6662 12.3085 21.7838 12.1626 21.8661C12.0167 21.9484 11.8525 21.9927 11.685 21.995L11 22C8.771 22 6.665 21.86 5.087 21.442C4.302 21.234 3.563 20.936 3.003 20.486C2.41 20.01 2 19.345 2 18.5C2 17.713 2.358 16.977 2.844 16.361C3.338 15.736 4.021 15.161 4.822 14.671V14.672ZM17 21C17 20.7551 17.09 20.5187 17.2527 20.3356C17.4155 20.1526 17.6397 20.0357 17.883 20.007L18.002 20C18.2569 20.0003 18.502 20.0979 18.6874 20.2728C18.8727 20.4478 18.9842 20.687 18.9992 20.9414C19.0141 21.1958 18.9313 21.4464 18.7677 21.6418C18.6041 21.8373 18.3721 21.9629 18.119 21.993L18 22C17.7348 22 17.4804 21.8946 17.2929 21.7071C17.1054 21.5196 17 21.2652 17 21ZM17.567 16.25C17.622 16.1547 17.707 16.0802 17.8087 16.0381C17.9104 15.996 18.0231 15.9886 18.1294 16.0171C18.2357 16.0455 18.3297 16.1083 18.3967 16.1956C18.4637 16.283 18.5 16.3899 18.5 16.5C18.5 16.635 18.452 16.755 18.179 16.98L18.034 17.094L17.924 17.176C17.85 17.231 17.762 17.296 17.681 17.362L17.542 17.478C17.3229 17.6652 17.155 17.9051 17.054 18.175C16.9722 18.414 16.9838 18.6751 17.0866 18.9058C17.1894 19.1366 17.3757 19.3199 17.608 19.4189C17.8404 19.5179 18.1017 19.5253 18.3393 19.4397C18.5769 19.354 18.7733 19.1815 18.889 18.957L18.986 18.88L19.343 18.61L19.45 18.524L19.631 18.366C20.037 17.992 20.5 17.398 20.5 16.5C20.5004 15.95 20.3194 15.4153 19.9851 14.9786C19.6508 14.5419 19.1818 14.2277 18.6508 14.0845C18.1198 13.9413 17.5564 13.9772 17.0479 14.1867C16.5394 14.3961 16.1141 14.7674 15.838 15.243C15.7045 15.4723 15.6675 15.7452 15.7352 16.0018C15.8029 16.2583 15.9697 16.4775 16.199 16.611C16.4283 16.7445 16.7012 16.7815 16.9578 16.7138C17.2143 16.6461 17.4335 16.4793 17.567 16.25Z" fill="currentColor"/>
</svg>
