<svg width="24" height="24" viewBox="0 0 24 24" fill="none" xmlns="http://www.w3.org/2000/svg">
<path d="M11 2C9.67392 2 8.40215 2.52678 7.46447 3.46447C6.52678 4.40215 6 5.67392 6 7C6 8.32608 6.52678 9.59785 7.46447 10.5355C8.40215 11.4732 9.67392 12 11 12C12.3261 12 13.5979 11.4732 14.5355 10.5355C15.4732 9.59785 16 8.32608 16 7C16 5.67392 15.4732 4.40215 14.5355 3.46447C13.5979 2.52678 12.3261 2 11 2ZM11 13C8.605 13 6.425 13.694 4.822 14.672C4.022 15.16 3.338 15.736 2.844 16.362C2.358 16.976 2 17.713 2 18.5C2 19.345 2.411 20.011 3.003 20.486C3.563 20.936 4.302 21.234 5.087 21.442C6.665 21.859 8.771 22 11 22L11.685 21.995C11.8525 21.9927 12.0167 21.9484 12.1626 21.8661C12.3085 21.7838 12.4313 21.6662 12.5199 21.524C12.6085 21.3819 12.66 21.2198 12.6696 21.0525C12.6792 20.8853 12.6467 20.7184 12.575 20.567C12.1949 19.7647 11.9985 18.8878 12 18C12 16.748 12.383 15.588 13.037 14.627C13.1342 14.4842 13.1928 14.3186 13.207 14.1465C13.2212 13.9743 13.1905 13.8014 13.118 13.6446C13.0455 13.4878 12.9336 13.3524 12.7932 13.2517C12.6528 13.151 12.4888 13.0884 12.317 13.07C11.887 13.024 11.447 13 11 13ZM20.616 15.469C20.6827 15.3552 20.7262 15.2294 20.7441 15.0987C20.762 14.9681 20.7538 14.8352 20.7201 14.7077C20.6864 14.5802 20.6278 14.4606 20.5477 14.3558C20.4676 14.2511 20.3675 14.1632 20.2533 14.0972C20.1391 14.0313 20.013 13.9886 19.8822 13.9716C19.7514 13.9546 19.6186 13.9636 19.4913 13.9982C19.364 14.0327 19.2449 14.0921 19.1406 14.1729C19.0364 14.2537 18.9492 14.3544 18.884 14.469L18.548 15.051C18.1855 14.9831 17.8136 14.9828 17.451 15.05L17.116 14.469C17.0508 14.3544 16.9636 14.2537 16.8594 14.1729C16.7551 14.0921 16.636 14.0327 16.5087 13.9982C16.3814 13.9636 16.2486 13.9546 16.1178 13.9716C15.987 13.9886 15.8609 14.0313 15.7467 14.0972C15.6325 14.1632 15.5324 14.2511 15.4523 14.3558C15.3722 14.4606 15.3136 14.5802 15.2799 14.7077C15.2462 14.8352 15.238 14.9681 15.2559 15.0987C15.2738 15.2294 15.3173 15.3552 15.384 15.469L15.719 16.049C15.4797 16.3296 15.2943 16.652 15.172 17H14.5C14.2348 17 13.9804 17.1054 13.7929 17.2929C13.6054 17.4804 13.5 17.7348 13.5 18C13.5 18.2652 13.6054 18.5196 13.7929 18.7071C13.9804 18.8946 14.2348 19 14.5 19H15.171C15.2945 19.3475 15.4805 19.6695 15.72 19.95L15.384 20.531C15.3173 20.6448 15.2738 20.7706 15.2559 20.9013C15.238 21.0319 15.2462 21.1648 15.2799 21.2923C15.3136 21.4198 15.3722 21.5394 15.4523 21.6442C15.5324 21.7489 15.6325 21.8368 15.7467 21.9028C15.8609 21.9687 15.987 22.0114 16.1178 22.0284C16.2486 22.0454 16.3814 22.0364 16.5087 22.0018C16.636 21.9673 16.7551 21.9079 16.8594 21.8271C16.9636 21.7463 17.0508 21.6456 17.116 21.531L17.452 20.95C17.811 21.016 18.182 21.018 18.549 20.95L18.884 21.531C18.9492 21.6456 19.0364 21.7463 19.1406 21.8271C19.2449 21.9079 19.364 21.9673 19.4913 22.0018C19.6186 22.0364 19.7514 22.0454 19.8822 22.0284C20.013 22.0114 20.1391 21.9687 20.2533 21.9028C20.3675 21.8368 20.4676 21.7489 20.5477 21.6442C20.6278 21.5394 20.6864 21.4198 20.7201 21.2923C20.7538 21.1648 20.762 21.0319 20.7441 20.9013C20.7262 20.7706 20.6827 20.6448 20.616 20.531L20.281 19.951C20.523 19.667 20.707 19.344 20.828 19H21.5C21.7652 19 22.0196 18.8946 22.2071 18.7071C22.3946 18.5196 22.5 18.2652 22.5 18C22.5 17.7348 22.3946 17.4804 22.2071 17.2929C22.0196 17.1054 21.7652 17 21.5 17H20.829C20.7054 16.6526 20.5193 16.3306 20.28 16.05L20.616 15.469Z" fill="currentColor"/>
</svg>
