<svg width="24" height="24" viewBox="0 0 24 24" fill="none" xmlns="http://www.w3.org/2000/svg">
<path fill-rule="evenodd" clip-rule="evenodd" d="M11 13C11.447 13 11.887 13.024 12.316 13.07C12.4878 13.0884 12.6518 13.151 12.7922 13.2517C12.9326 13.3524 13.0445 13.4878 13.117 13.6446C13.1895 13.8014 13.2202 13.9743 13.206 14.1465C13.1918 14.3186 13.1332 14.4842 13.036 14.627C12.3586 15.6212 11.9975 16.7969 12 18C12 18.92 12.207 19.79 12.575 20.567C12.6467 20.7184 12.6792 20.8853 12.6696 21.0525C12.66 21.2198 12.6085 21.3819 12.5199 21.524C12.4313 21.6662 12.3085 21.7838 12.1626 21.8661C12.0167 21.9484 11.8525 21.9927 11.685 21.995L11 22C8.771 22 6.665 21.86 5.087 21.442C4.302 21.234 3.563 20.936 3.003 20.486C2.41 20.01 2 19.345 2 18.5C2 17.713 2.358 16.977 2.844 16.361C3.338 15.736 4.021 15.161 4.822 14.671C6.425 13.695 8.605 13 11 13ZM18.5 13C19.163 13 19.7989 13.2634 20.2678 13.7322C20.7366 14.2011 21 14.837 21 15.5V16.085C21.2926 16.1884 21.5459 16.3801 21.725 16.6335C21.9041 16.8869 22.0002 17.1897 22 17.5V20.5C22 20.8978 21.842 21.2794 21.5607 21.5607C21.2794 21.842 20.8978 22 20.5 22H16.5C16.1022 22 15.7206 21.842 15.4393 21.5607C15.158 21.2794 15 20.8978 15 20.5V17.5C14.9998 17.1897 15.0959 16.8869 15.275 16.6335C15.4541 16.3801 15.7074 16.1884 16 16.085V15.5C16 14.837 16.2634 14.2011 16.7322 13.7322C17.2011 13.2634 17.837 13 18.5 13ZM18.5 15C18.383 15 18.2696 15.041 18.1797 15.1159C18.0898 15.1908 18.0291 15.2949 18.008 15.41L18 15.5V16H19V15.5C19 15.3674 18.9473 15.2402 18.8536 15.1464C18.7598 15.0527 18.6326 15 18.5 15ZM11 2C12.3261 2 13.5979 2.52678 14.5355 3.46447C15.4732 4.40215 16 5.67392 16 7C16 8.32608 15.4732 9.59785 14.5355 10.5355C13.5979 11.4732 12.3261 12 11 12C9.67392 12 8.40215 11.4732 7.46447 10.5355C6.52678 9.59785 6 8.32608 6 7C6 5.67392 6.52678 4.40215 7.46447 3.46447C8.40215 2.52678 9.67392 2 11 2Z" fill="currentColor"/>
</svg>
