<svg width="24" height="24" viewBox="0 0 24 24" fill="none" xmlns="http://www.w3.org/2000/svg">
<path fill-rule="evenodd" clip-rule="evenodd" d="M11 2C9.67392 2 8.40215 2.52678 7.46447 3.46447C6.52678 4.40215 6 5.67392 6 7C6 8.32608 6.52678 9.59785 7.46447 10.5355C8.40215 11.4732 9.67392 12 11 12C12.3261 12 13.5979 11.4732 14.5355 10.5355C15.4732 9.59785 16 8.32608 16 7C16 5.67392 15.4732 4.40215 14.5355 3.46447C13.5979 2.52678 12.3261 2 11 2ZM11 13C8.605 13 6.425 13.694 4.822 14.672C4.022 15.16 3.338 15.736 2.844 16.362C2.358 16.976 2 17.713 2 18.5C2 19.345 2.411 20.011 3.003 20.486C3.563 20.936 4.302 21.234 5.087 21.442C6.665 21.859 8.771 22 11 22C11.23 22 11.46 21.998 11.685 21.995C11.8525 21.9927 12.0167 21.9484 12.1626 21.8661C12.3085 21.7838 12.4313 21.6662 12.5199 21.524C12.6085 21.3819 12.66 21.2198 12.6696 21.0525C12.6792 20.8853 12.6467 20.7184 12.575 20.567C12.1949 19.7647 11.9985 18.8878 12 18C12 16.748 12.383 15.588 13.037 14.627C13.1342 14.4842 13.1928 14.3186 13.207 14.1465C13.2212 13.9743 13.1905 13.8014 13.118 13.6446C13.0455 13.4878 12.9336 13.3524 12.7932 13.2517C12.6528 13.151 12.4888 13.0884 12.317 13.07C11.887 13.024 11.447 13 11 13ZM21.708 16.068C21.8902 15.8794 21.991 15.6268 21.9887 15.3646C21.9864 15.1024 21.8812 14.8516 21.6958 14.6662C21.5104 14.4808 21.2596 14.3756 20.9974 14.3733C20.7352 14.371 20.4826 14.4718 20.294 14.654L17.112 17.836L15.698 16.422C15.5094 16.2398 15.2568 16.139 14.9946 16.1413C14.7324 16.1436 14.4816 16.2488 14.2962 16.4342C14.1108 16.6196 14.0056 16.8704 14.0033 17.1326C14.001 17.3948 14.1018 17.6474 14.284 17.836L16.334 19.886C16.4362 19.9882 16.5574 20.0693 16.6909 20.1246C16.8244 20.1799 16.9675 20.2084 17.112 20.2084C17.2565 20.2084 17.3996 20.1799 17.5331 20.1246C17.6666 20.0693 17.7878 19.9882 17.89 19.886L21.708 16.068Z" fill="currentColor"/>
</svg>
