<svg width="24" height="24" viewBox="0 0 24 24" fill="none" xmlns="http://www.w3.org/2000/svg">
<path d="M16 14C17.3261 14 18.5979 14.5268 19.5355 15.4645C20.4732 16.4021 21 17.6739 21 19V20C21 20.5304 20.7893 21.0391 20.4142 21.4142C20.0391 21.7893 19.5304 22 19 22H5C4.46957 22 3.96086 21.7893 3.58579 21.4142C3.21071 21.0391 3 20.5304 3 20V19C3 17.6739 3.52678 16.4021 4.46447 15.4645C5.40215 14.5268 6.67392 14 8 14H16ZM12 2C13.3261 2 14.5979 2.52678 15.5355 3.46447C16.4732 4.40215 17 5.67392 17 7C17 8.32608 16.4732 9.59785 15.5355 10.5355C14.5979 11.4732 13.3261 12 12 12C10.6739 12 9.40215 11.4732 8.46447 10.5355C7.52678 9.59785 7 8.32608 7 7C7 5.67392 7.52678 4.40215 8.46447 3.46447C9.40215 2.52678 10.6739 2 12 2ZM22 10C22.2549 10.0003 22.5 10.0979 22.6854 10.2728C22.8707 10.4478 22.9822 10.687 22.9972 10.9414C23.0121 11.1958 22.9293 11.4464 22.7657 11.6418C22.6021 11.8373 22.3701 11.9629 22.117 11.993L22 12H18C17.7451 11.9997 17.5 11.9021 17.3146 11.7272C17.1293 11.5522 17.0178 11.313 17.0028 11.0586C16.9879 10.8042 17.0707 10.5536 17.2343 10.3582C17.3979 10.1627 17.6299 10.0371 17.883 10.007L18 10H22Z" fill="currentColor"/>
</svg>
