<svg width="24" height="24" viewBox="0 0 24 24" fill="none" xmlns="http://www.w3.org/2000/svg">
<path fill-rule="evenodd" clip-rule="evenodd" d="M11 2C9.67392 2 8.40215 2.52678 7.46447 3.46447C6.52678 4.40215 6 5.67392 6 7C6 8.32608 6.52678 9.59785 7.46447 10.5355C8.40215 11.4732 9.67392 12 11 12C12.3261 12 13.5979 11.4732 14.5355 10.5355C15.4732 9.59785 16 8.32608 16 7C16 5.67392 15.4732 4.40215 14.5355 3.46447C13.5979 2.52678 12.3261 2 11 2ZM11 13C8.605 13 6.425 13.694 4.822 14.672C4.022 15.16 3.338 15.736 2.844 16.362C2.358 16.976 2 17.713 2 18.5C2 19.345 2.411 20.011 3.003 20.486C3.563 20.936 4.302 21.234 5.087 21.442C6.665 21.859 8.771 22 11 22C11.23 22 11.46 21.998 11.685 21.995C11.8525 21.9927 12.0167 21.9484 12.1626 21.8661C12.3085 21.7838 12.4313 21.6662 12.5199 21.524C12.6085 21.3819 12.66 21.2198 12.6696 21.0525C12.6792 20.8853 12.6467 20.7184 12.575 20.567C12.1949 19.7647 11.9985 18.8878 12 18C12 16.748 12.383 15.588 13.037 14.627C13.1342 14.4842 13.1928 14.3186 13.207 14.1465C13.2212 13.9743 13.1905 13.8014 13.118 13.6446C13.0455 13.4878 12.9336 13.3524 12.7932 13.2517C12.6528 13.151 12.4888 13.0884 12.317 13.07C11.887 13.024 11.447 13 11 13ZM16.586 15.172C16.3974 14.9898 16.1448 14.889 15.8826 14.8913C15.6204 14.8936 15.3696 14.9988 15.1842 15.1842C14.9988 15.3696 14.8936 15.6204 14.8913 15.8826C14.889 16.1448 14.9898 16.3974 15.172 16.586L16.586 18L15.172 19.414C15.0765 19.5062 15.0003 19.6166 14.9479 19.7386C14.8955 19.8606 14.8679 19.9918 14.8667 20.1246C14.8656 20.2574 14.8909 20.3891 14.9412 20.512C14.9915 20.6348 15.0657 20.7465 15.1596 20.8404C15.2535 20.9343 15.3651 21.0085 15.488 21.0588C15.6109 21.1091 15.7426 21.1344 15.8754 21.1333C16.0082 21.1321 16.1394 21.1045 16.2614 21.0521C16.3834 20.9997 16.4938 20.9235 16.586 20.828L18 19.414L19.414 20.828C19.5062 20.9235 19.6166 20.9997 19.7386 21.0521C19.8606 21.1045 19.9918 21.1321 20.1246 21.1333C20.2574 21.1344 20.3891 21.1091 20.512 21.0588C20.6348 21.0085 20.7465 20.9343 20.8404 20.8404C20.9343 20.7465 21.0085 20.6348 21.0588 20.512C21.1091 20.3891 21.1344 20.2574 21.1333 20.1246C21.1321 19.9918 21.1045 19.8606 21.0521 19.7386C20.9997 19.6166 20.9235 19.5062 20.828 19.414L19.414 18L20.828 16.586C21.0102 16.3974 21.111 16.1448 21.1087 15.8826C21.1064 15.6204 21.0012 15.3696 20.8158 15.1842C20.6304 14.9988 20.3796 14.8936 20.1174 14.8913C19.8552 14.889 19.6026 14.9898 19.414 15.172L18 16.586L16.586 15.172Z" fill="currentColor"/>
</svg>
