<svg width="24" height="24" viewBox="0 0 24 24" fill="none" xmlns="http://www.w3.org/2000/svg">
<path fill-rule="evenodd" clip-rule="evenodd" d="M6 7C6 5.67392 6.52678 4.40215 7.46447 3.46447C8.40215 2.52678 9.67392 2 11 2C12.3261 2 13.5979 2.52678 14.5355 3.46447C15.4732 4.40215 16 5.67392 16 7C16 8.32608 15.4732 9.59785 14.5355 10.5355C13.5979 11.4732 12.3261 12 11 12C9.67392 12 8.40215 11.4732 7.46447 10.5355C6.52678 9.59785 6 8.32608 6 7ZM4.822 14.672C6.425 13.694 8.605 13 11 13C11.447 13 11.887 13.024 12.316 13.07C12.4878 13.0884 12.6518 13.151 12.7922 13.2517C12.9326 13.3524 13.0445 13.4878 13.117 13.6446C13.1895 13.8014 13.2202 13.9743 13.206 14.1465C13.1918 14.3186 13.1332 14.4842 13.036 14.627C12.3586 15.6212 11.9975 16.7969 12 18C12 18.92 12.207 19.79 12.575 20.567C12.6467 20.7184 12.6792 20.8853 12.6696 21.0525C12.66 21.2198 12.6085 21.3819 12.5199 21.524C12.4313 21.6662 12.3085 21.7838 12.1626 21.8661C12.0167 21.9484 11.8525 21.9927 11.685 21.995C11.459 21.998 11.23 22 11 22C8.771 22 6.665 21.86 5.087 21.442C4.302 21.234 3.563 20.936 3.003 20.486C2.41 20.01 2 19.345 2 18.5C2 17.713 2.358 16.977 2.844 16.361C3.338 15.736 4.021 15.161 4.822 14.671V14.672ZM17.5 16C17.1022 16 16.7206 16.158 16.4393 16.4393C16.158 16.7206 16 17.1022 16 17.5C16 17.8978 16.158 18.2794 16.4393 18.5607C16.7206 18.842 17.1022 19 17.5 19C17.8978 19 18.2794 18.842 18.5607 18.5607C18.842 18.2794 19 17.8978 19 17.5C19 17.1022 18.842 16.7206 18.5607 16.4393C18.2794 16.158 17.8978 16 17.5 16ZM14 17.5C14.0004 16.9675 14.1223 16.4421 14.3564 15.9638C14.5905 15.4855 14.9307 15.067 15.351 14.74C15.7713 14.413 16.2607 14.1863 16.7819 14.0771C17.3031 13.9678 17.8423 13.9789 18.3586 14.1095C18.8748 14.2402 19.3544 14.4869 19.7609 14.8309C20.1674 15.1749 20.4901 15.6071 20.7043 16.0946C20.9185 16.5821 21.0187 17.1121 20.9971 17.6442C20.9756 18.1762 20.8329 18.6964 20.58 19.165L21.414 20C21.5095 20.0922 21.5857 20.2026 21.6381 20.3246C21.6905 20.4466 21.7181 20.5778 21.7192 20.7106C21.7204 20.8434 21.6951 20.9751 21.6448 21.098C21.5945 21.2208 21.5203 21.3325 21.4264 21.4264C21.3325 21.5203 21.2208 21.5945 21.098 21.6448C20.9751 21.6951 20.8434 21.7204 20.7106 21.7192C20.5778 21.7181 20.4466 21.6905 20.3246 21.6381C20.2026 21.5857 20.0922 21.5095 20 21.414L19.165 20.579C18.6318 20.8674 18.0329 21.0123 17.4269 20.9996C16.8208 20.987 16.2285 20.8171 15.7078 20.5068C15.1872 20.1964 14.756 19.7561 14.4567 19.229C14.1573 18.7019 13.9999 18.1062 14 17.5Z" fill="currentColor"/>
</svg>
