<svg width="24" height="24" viewBox="0 0 24 24" fill="none" xmlns="http://www.w3.org/2000/svg">
<path d="M11 2C9.67392 2 8.40215 2.52678 7.46447 3.46447C6.52678 4.40215 6 5.67392 6 7C6 8.32608 6.52678 9.59785 7.46447 10.5355C8.40215 11.4732 9.67392 12 11 12C12.3261 12 13.5979 11.4732 14.5355 10.5355C15.4732 9.59785 16 8.32608 16 7C16 5.67392 15.4732 4.40215 14.5355 3.46447C13.5979 2.52678 12.3261 2 11 2ZM11 13C8.605 13 6.425 13.694 4.822 14.672C4.022 15.16 3.338 15.736 2.844 16.362C2.358 16.976 2 17.713 2 18.5C2 19.345 2.411 20.011 3.003 20.486C3.563 20.936 4.302 21.234 5.087 21.442C6.665 21.859 8.771 22 11 22L11.685 21.995C11.8525 21.9927 12.0167 21.9484 12.1626 21.8661C12.3085 21.7838 12.4313 21.6662 12.5199 21.524C12.6085 21.3819 12.66 21.2198 12.6696 21.0525C12.6792 20.8853 12.6467 20.7184 12.575 20.567C12.1949 19.7647 11.9985 18.8878 12 18C12 16.748 12.383 15.588 13.037 14.627C13.1342 14.4842 13.1928 14.3186 13.207 14.1465C13.2212 13.9743 13.1905 13.8014 13.118 13.6446C13.0455 13.4878 12.9336 13.3524 12.7932 13.2517C12.6528 13.151 12.4888 13.0884 12.317 13.07C11.887 13.024 11.447 13 11 13ZM15.5 14.691C16.253 14.252 17.179 14.195 18 14.645C18.821 14.195 19.747 14.252 20.5 14.691C21.416 15.225 22.026 16.281 22 17.479C21.964 19.049 20.752 20.277 19.114 21.25C18.771 21.453 18.411 21.667 18 21.667C17.59 21.667 17.229 21.453 16.886 21.25C15.248 20.277 14.036 19.048 14.001 17.48C13.974 16.282 14.584 15.225 15.5 14.691Z" fill="currentColor"/>
</svg>
