<svg width="24" height="24" viewBox="0 0 24 24" fill="none" xmlns="http://www.w3.org/2000/svg">
<path d="M5 2C4.46957 2 3.96086 2.21071 3.58579 2.58579C3.21071 2.96086 3 3.46957 3 4V6C3 6.53043 3.21071 7.03914 3.58579 7.41421C3.96086 7.78929 4.46957 8 5 8H7C7.37799 8.00006 7.74827 7.89301 8.06791 7.69124C8.38754 7.48948 8.64346 7.20126 8.806 6.86C9.48235 7.31807 10.036 7.93502 10.4185 8.65679C10.801 9.37857 11.0007 10.1831 11 11V13C10.9989 13.9314 11.1842 14.8537 11.545 15.7124C11.9059 16.5711 12.4349 17.3489 13.101 18H9.732C9.51187 17.6187 9.17207 17.3207 8.76532 17.1522C8.35856 16.9838 7.90758 16.9542 7.48231 17.0681C7.05704 17.1821 6.68126 17.4332 6.41324 17.7825C6.14522 18.1318 5.99995 18.5597 5.99995 19C5.99995 19.4403 6.14522 19.8682 6.41324 20.2175C6.68126 20.5668 7.05704 20.8179 7.48231 20.9319C7.90758 21.0458 8.35856 21.0162 8.76532 20.8478C9.17207 20.6793 9.51187 20.3813 9.732 20H15C15 20.5304 15.2107 21.0391 15.5858 21.4142C15.9609 21.7893 16.4696 22 17 22H19C19.5304 22 20.0391 21.7893 20.4142 21.4142C20.7893 21.0391 21 20.5304 21 20V18C21 17.4696 20.7893 16.9609 20.4142 16.5858C20.0391 16.2107 19.5304 16 19 16H17C16.622 15.9999 16.2517 16.107 15.9321 16.3088C15.6125 16.5105 15.3565 16.7987 15.194 17.14C14.5177 16.6819 13.964 16.065 13.5815 15.3432C13.199 14.6214 12.9993 13.8169 13 13V11C13.0011 10.0686 12.8158 9.14631 12.455 8.2876C12.0941 7.42888 11.5651 6.65108 10.899 6H14.268C14.4881 6.38126 14.8279 6.67923 15.2347 6.84769C15.6414 7.01616 16.0924 7.04571 16.5176 6.93176C16.9429 6.81781 17.3187 6.56674 17.5867 6.21747C17.8547 5.8682 18 5.44025 18 5C18 4.55975 17.8547 4.1318 17.5867 3.78253C17.3187 3.43326 16.9429 3.18219 16.5176 3.06824C16.0924 2.95429 15.6414 2.98384 15.2347 3.15231C14.8279 3.32077 14.4881 3.61874 14.268 4H9C9 3.46957 8.78929 2.96086 8.41421 2.58579C8.03914 2.21071 7.53043 2 7 2H5Z" fill="currentColor"/>
</svg>
