<svg width="24" height="24" viewBox="0 0 24 24" fill="none" xmlns="http://www.w3.org/2000/svg">
<path fill-rule="evenodd" clip-rule="evenodd" d="M17 3C16.4696 3 15.9609 3.21071 15.5858 3.58579C15.2107 3.96086 15 4.46957 15 5H9C9 4.46957 8.78929 3.96086 8.41421 3.58579C8.03914 3.21071 7.53043 3 7 3H5C4.46957 3 3.96086 3.21071 3.58579 3.58579C3.21071 3.96086 3 4.46957 3 5V7C3 7.53043 3.21071 8.03914 3.58579 8.41421C3.96086 8.78929 4.46957 9 5 9V15C4.46957 15 3.96086 15.2107 3.58579 15.5858C3.21071 15.9609 3 16.4696 3 17V19C3 19.5304 3.21071 20.0391 3.58579 20.4142C3.96086 20.7893 4.46957 21 5 21H7C7.53043 21 8.03914 20.7893 8.41421 20.4142C8.78929 20.0391 9 19.5304 9 19H15C15 19.5304 15.2107 20.0391 15.5858 20.4142C15.9609 20.7893 16.4696 21 17 21H19C19.5304 21 20.0391 20.7893 20.4142 20.4142C20.7893 20.0391 21 19.5304 21 19V17C21 16.4696 20.7893 15.9609 20.4142 15.5858C20.0391 15.2107 19.5304 15 19 15V9C19.5304 9 20.0391 8.78929 20.4142 8.41421C20.7893 8.03914 21 7.53043 21 7V5C21 4.46957 20.7893 3.96086 20.4142 3.58579C20.0391 3.21071 19.5304 3 19 3H17ZM17 15C16.4696 15 15.9609 15.2107 15.5858 15.5858C15.2107 15.9609 15 16.4696 15 17H9C9 16.4696 8.78929 15.9609 8.41421 15.5858C8.03914 15.2107 7.53043 15 7 15V9C7.53043 9 8.03914 8.78929 8.41421 8.41421C8.78929 8.03914 9 7.53043 9 7H15C15 7.53043 15.2107 8.03914 15.5858 8.41421C15.9609 8.78929 16.4696 9 17 9V15Z" fill="currentColor"/>
</svg>
