<svg width="24" height="24" viewBox="0 0 24 24" fill="none" xmlns="http://www.w3.org/2000/svg">
<path d="M20.2455 14.75C21.1805 15.364 21.1375 16.787 20.1165 17.326L12.9355 21.122C12.6474 21.2744 12.3264 21.354 12.0005 21.354C11.6745 21.354 11.3536 21.2744 11.0655 21.122L3.88446 17.326C2.86446 16.786 2.82046 15.364 3.75546 14.75L3.81846 14.79L11.0655 18.622C11.3536 18.7744 11.6745 18.854 12.0005 18.854C12.3264 18.854 12.6474 18.7744 12.9355 18.622L20.1165 14.826C20.161 14.8027 20.2034 14.7774 20.2455 14.75ZM20.2455 10.75C20.4519 10.8868 20.6213 11.0726 20.7385 11.2908C20.8557 11.509 20.9171 11.7528 20.9171 12.0005C20.9171 12.2482 20.8557 12.492 20.7385 12.7102C20.6213 12.9284 20.4519 13.1142 20.2455 13.251L20.1165 13.326L12.9355 17.122C12.6743 17.2601 12.3857 17.3387 12.0906 17.352C11.7954 17.3653 11.501 17.3131 11.2285 17.199L11.0665 17.122L3.88446 13.326C2.86446 12.786 2.82046 11.364 3.75546 10.75L3.81846 10.79L11.0655 14.622C11.3268 14.7603 11.6155 14.8389 11.9108 14.8522C12.2062 14.8655 12.5008 14.8132 12.7735 14.699L12.9355 14.622L20.1165 10.826C20.161 10.8027 20.2034 10.7774 20.2455 10.75ZM12.9355 2.87801L20.1165 6.67401C21.1825 7.23701 21.1825 8.76401 20.1165 9.32601L12.9355 13.123C12.6474 13.2754 12.3264 13.355 12.0005 13.355C11.6745 13.355 11.3536 13.2754 11.0655 13.123L3.88446 9.32601C2.81846 8.76301 2.81846 7.23701 3.88446 6.67401L11.0655 2.87801C11.3536 2.72564 11.6745 2.646 12.0005 2.646C12.3264 2.646 12.6474 2.72564 12.9355 2.87801Z" fill="currentColor"/>
</svg>
