<svg width="24" height="24" viewBox="0 0 24 24" fill="none" xmlns="http://www.w3.org/2000/svg">
<path fill-rule="evenodd" clip-rule="evenodd" d="M9.36527 3.108C11.4536 2.9911 13.5469 2.9911 15.6353 3.108L16.2673 3.144L16.8493 3.186C17.7813 3.266 18.5313 3.40499 19.2333 3.78299C20.0866 4.26247 20.7909 4.96846 21.2683 5.82299C21.6833 6.59699 21.8063 7.416 21.8783 8.462L21.9313 9.37199C22.0065 10.7897 22.0065 12.2103 21.9313 13.628L21.8783 14.538C21.8063 15.585 21.6833 16.403 21.2683 17.177C20.7909 18.0316 20.0867 18.7376 19.2333 19.217C18.3903 19.671 17.4793 19.78 16.2673 19.856L15.6353 19.893C14.5915 19.9576 13.5461 19.9933 12.5003 20L10.8663 20.005C10.7013 20.005 10.5343 20.003 10.3673 20L9.86627 19.988L7.62527 21.781C7.48661 21.892 7.32089 21.9641 7.14513 21.9898C6.96938 22.0156 6.78994 21.9941 6.62528 21.9275C6.46061 21.8609 6.31665 21.7516 6.20821 21.6109C6.09976 21.4702 6.03075 21.3032 6.00827 21.127L6.00027 21V19.334C5.92142 19.2974 5.84372 19.2584 5.76727 19.217C4.91387 18.7376 4.20961 18.0316 3.73227 17.177C3.31827 16.403 3.19427 15.585 3.12227 14.539L3.08627 13.944L3.06927 13.628C2.99384 12.2103 2.99384 10.7897 3.06927 9.37199L3.12227 8.462C3.19427 7.416 3.31827 6.59699 3.73227 5.82399C4.20961 4.96943 4.91387 4.26343 5.76727 3.78399C6.53927 3.36699 7.37027 3.24 8.43727 3.164L9.04227 3.12599L9.36527 3.108ZM8.96527 6.885C7.98827 7.304 7.15227 8.363 7.19327 9.465L7.20227 9.627L7.22127 9.82199C7.22527 9.85699 7.22927 9.892 7.23527 9.93L7.27327 10.17C7.45227 11.144 7.99927 12.725 9.63827 14.363C11.2763 16.002 12.8583 16.549 13.8313 16.728L14.0713 16.766L14.2813 16.791L14.5353 16.808C15.6363 16.848 16.6953 16.018 17.1143 15.041C17.1663 14.9201 17.1849 14.7875 17.1682 14.657C17.1515 14.5265 17.1001 14.4028 17.0193 14.299C16.5863 13.743 16.0373 13.306 15.4673 12.899L14.8943 12.499C14.7347 12.3884 14.5385 12.3439 14.3468 12.3749C14.1552 12.4058 13.9829 12.5098 13.8663 12.665L13.2313 13.632C13.1979 13.6838 13.146 13.721 13.0861 13.7359C13.0263 13.7507 12.963 13.7422 12.9093 13.712C12.4793 13.467 11.8533 13.049 11.4033 12.598C10.9533 12.148 10.5603 11.55 10.3393 11.148C10.3117 11.0969 10.3036 11.0375 10.3165 10.9809C10.3293 10.9242 10.3623 10.8742 10.4093 10.84L11.3853 10.116C11.5248 9.99506 11.6149 9.82702 11.6385 9.64389C11.6622 9.46077 11.6176 9.27536 11.5133 9.123L11.1833 8.63799C10.7823 8.05199 10.3093 7.418 9.68827 6.964C9.58496 6.88924 9.46398 6.84265 9.33722 6.8288C9.21046 6.81495 9.08228 6.83432 8.96527 6.885ZM13.5933 8.887C13.3432 8.79868 13.0682 8.81333 12.8289 8.92773C12.5896 9.04212 12.4056 9.2469 12.3173 9.49699C12.229 9.74709 12.2436 10.022 12.358 10.2613C12.4724 10.5006 12.6772 10.6847 12.9273 10.773C13.0403 10.813 13.1353 10.893 13.1953 10.997L13.2323 11.078C13.3206 11.3281 13.5046 11.5329 13.7439 11.6473C13.9832 11.7617 14.2582 11.7763 14.5083 11.688C14.7584 11.5997 14.9631 11.4156 15.0775 11.1763C15.1919 10.937 15.2066 10.6621 15.1183 10.412C14.9938 10.0602 14.7922 9.74075 14.5284 9.4769C14.2645 9.21305 13.945 9.0115 13.5933 8.887ZM13.3173 6.66699C13.2735 6.79083 13.2546 6.92207 13.2616 7.05322C13.2686 7.18437 13.3013 7.31285 13.358 7.43134C13.4146 7.54983 13.494 7.656 13.5917 7.74379C13.6894 7.83158 13.8034 7.89927 13.9273 7.943C14.4192 8.11779 14.866 8.40002 15.2351 8.76916C15.6042 9.13831 15.8865 9.58508 16.0613 10.077C16.105 10.2008 16.1727 10.3148 16.2605 10.4125C16.3483 10.5102 16.4544 10.5896 16.5729 10.6463C16.6914 10.7029 16.8199 10.7357 16.951 10.7426C17.0822 10.7496 17.2134 10.7307 17.3373 10.687C17.4611 10.6433 17.5751 10.5756 17.6728 10.4878C17.7705 10.4 17.8499 10.2938 17.9065 10.1753C17.9632 10.0568 17.9959 9.92836 18.0029 9.79721C18.0099 9.66607 17.991 9.53483 17.9473 9.411C17.6731 8.63756 17.2297 7.93509 16.6494 7.35484C16.0692 6.77459 15.3667 6.33119 14.5933 6.057C14.4694 6.01326 14.3382 5.99434 14.207 6.00132C14.0759 6.00831 13.9474 6.04106 13.8289 6.0977C13.7104 6.15435 13.6043 6.23378 13.5165 6.33146C13.4287 6.42914 13.361 6.54315 13.3173 6.66699Z" fill="currentColor"/>
</svg>
