<svg width="24" height="24" viewBox="0 0 24 24" fill="none" xmlns="http://www.w3.org/2000/svg">
<path fill-rule="evenodd" clip-rule="evenodd" d="M16 7C16.0013 7.71513 15.81 8.41741 15.446 9.033C16.1564 9.13981 16.805 9.49801 17.2737 10.0425C17.7423 10.587 18.0001 11.2816 18 12V12.21L19.713 11.154C19.9402 11.014 20.2006 10.9371 20.4674 10.9313C20.7343 10.9255 20.9978 10.991 21.2308 11.1211C21.4639 11.2511 21.658 11.4409 21.7933 11.671C21.9285 11.9011 21.9998 12.1631 22 12.43V17.568C22 17.835 21.9288 18.0971 21.7936 18.3273C21.6585 18.5576 21.4644 18.7476 21.2313 18.8777C20.9982 19.0079 20.7346 19.0734 20.4677 19.0677C20.2008 19.0619 19.9403 18.9851 19.713 18.845L18 17.79V18C18 18.7957 17.6839 19.5587 17.1213 20.1213C16.5587 20.6839 15.7956 21 15 21H5C4.20435 21 3.44129 20.6839 2.87868 20.1213C2.31607 19.5587 2 18.7957 2 18V12C1.99992 11.4645 2.14315 10.9388 2.41483 10.4774C2.68651 10.016 3.07674 9.6357 3.545 9.376C3.10085 8.67688 2.91903 7.8429 3.03187 7.02235C3.14472 6.2018 3.5449 5.44785 4.16128 4.89458C4.77766 4.3413 5.57028 4.02454 6.39821 4.00064C7.22614 3.97673 8.03572 4.24721 8.683 4.764C9.16186 4.05348 9.85621 3.5155 10.6638 3.22929C11.4714 2.94307 12.3496 2.92374 13.169 3.17414C13.9884 3.42455 14.7058 3.93145 15.2154 4.62021C15.7251 5.30897 16.0001 6.14318 16 7ZM12 5C11.4696 5 10.9609 5.21071 10.5858 5.58579C10.2107 5.96086 10 6.46957 10 7C10 7.53043 10.2107 8.03914 10.5858 8.41421C10.9609 8.78929 11.4696 9 12 9C12.5304 9 13.0391 8.78929 13.4142 8.41421C13.7893 8.03914 14 7.53043 14 7C14 6.46957 13.7893 5.96086 13.4142 5.58579C13.0391 5.21071 12.5304 5 12 5ZM6.5 9C6.89782 9 7.27936 8.84197 7.56066 8.56066C7.84196 8.27936 8 7.89783 8 7.5C8 7.10218 7.84196 6.72064 7.56066 6.43934C7.27936 6.15804 6.89782 6 6.5 6C6.10218 6 5.72064 6.15804 5.43934 6.43934C5.15804 6.72064 5 7.10218 5 7.5C5 7.89783 5.15804 8.27936 5.43934 8.56066C5.72064 8.84197 6.10218 9 6.5 9Z" fill="currentColor"/>
</svg>
