<svg width="24" height="24" viewBox="0 0 24 24" fill="none" xmlns="http://www.w3.org/2000/svg">
<path fill-rule="evenodd" clip-rule="evenodd" d="M11.762 7.445C11.6707 7.30808 11.5469 7.19583 11.4018 7.11821C11.2566 7.04058 11.0946 6.99998 10.93 7H6C5.73478 7 5.48043 6.89464 5.29289 6.70711C5.10536 6.51957 5 6.26522 5 6C5 5.73478 5.10536 5.48043 5.29289 5.29289C5.48043 5.10536 5.73478 5 6 5H10.93C11.4239 5.00004 11.9101 5.122 12.3455 5.35506C12.7809 5.58812 13.1521 5.92507 13.426 6.336L14.536 8H15C15.7956 8 16.5587 8.31607 17.1213 8.87868C17.6839 9.44129 18 10.2044 18 11V11.21L19.713 10.154C19.9402 10.014 20.2006 9.93711 20.4674 9.93131C20.7343 9.92552 20.9978 9.99102 21.2308 10.1211C21.4639 10.2511 21.658 10.4409 21.7933 10.671C21.9285 10.9011 21.9998 11.1631 22 11.43V16.568C22 16.835 21.9288 17.0971 21.7936 17.3273C21.6585 17.5576 21.4644 17.7476 21.2313 17.8777C20.9982 18.0079 20.7346 18.0734 20.4677 18.0677C20.2008 18.0619 19.9403 17.9851 19.713 17.845L18 16.79V17C18 17.7956 17.6839 18.5587 17.1213 19.1213C16.5587 19.6839 15.7956 20 15 20H5C4.20435 20 3.44129 19.6839 2.87868 19.1213C2.31607 18.5587 2 17.7956 2 17V11C2 10.2044 2.31607 9.44129 2.87868 8.87868C3.44129 8.31607 4.20435 8 5 8H12.132L11.762 7.445Z" fill="currentColor"/>
</svg>
