<svg width="24" height="24" viewBox="0 0 24 24" fill="none" xmlns="http://www.w3.org/2000/svg">
<path d="M12.987 5.74C13.3713 5.52205 13.6725 5.18302 13.8438 4.77583C14.0151 4.36864 14.0467 3.9162 13.9338 3.48913C13.8209 3.06205 13.5697 2.68439 13.2196 2.41507C12.8694 2.14575 12.44 1.99993 11.9982 2.00038C11.5565 2.00083 11.1273 2.14751 10.7777 2.41754C10.4281 2.68757 10.1777 3.06575 10.0657 3.49305C9.95361 3.92035 9.98617 4.37273 10.1583 4.77957C10.3304 5.18641 10.6323 5.52483 11.017 5.742L11.007 5.76C10.352 7.127 9.44201 9.085 8.03701 9.82C6.88301 10.423 5.22701 10.12 3.99701 9.894C3.97728 9.61431 3.87956 9.34575 3.71492 9.11879C3.55028 8.89183 3.32533 8.71556 3.06559 8.60998C2.80585 8.50439 2.52171 8.47372 2.24541 8.52145C1.96912 8.56917 1.71174 8.69338 1.50246 8.87998C1.29319 9.06658 1.1404 9.3081 1.06144 9.57714C0.982481 9.84617 0.980506 10.132 1.05574 10.4021C1.13098 10.6722 1.28041 10.9158 1.48709 11.1052C1.69376 11.2947 1.94941 11.4225 2.22501 11.474L5.17301 19.084C5.39164 19.6482 5.77574 20.1331 6.27491 20.475C6.77407 20.8169 7.36496 20.9999 7.97001 21H16.03C16.6351 20.9999 17.226 20.8169 17.7251 20.475C18.2243 20.1331 18.6084 19.6482 18.827 19.084L21.774 11.474C22.0479 11.423 22.3022 11.2968 22.5083 11.1095C22.7145 10.9221 22.8644 10.6811 22.9413 10.4133C23.0182 10.1456 23.019 9.86169 22.9436 9.5935C22.8683 9.32532 22.7197 9.08342 22.5146 8.89492C22.3095 8.70641 22.0559 8.57874 21.7824 8.52622C21.5088 8.4737 21.226 8.4984 20.9657 8.59756C20.7053 8.69671 20.4778 8.8664 20.3084 9.08761C20.1391 9.30882 20.0347 9.57281 20.007 9.85C18.748 10.013 17.125 10.221 15.963 9.614C14.586 8.894 13.663 7.071 12.987 5.74Z" fill="currentColor"/>
</svg>
