<svg width="24" height="24" viewBox="0 0 24 24" fill="none" xmlns="http://www.w3.org/2000/svg">
<path fill-rule="evenodd" clip-rule="evenodd" d="M17.42 3C17.7447 2.99997 18.0645 3.07898 18.3518 3.23021C18.6391 3.38144 18.8853 3.60034 19.069 3.868L19.156 4.008L22.49 9.84C22.6936 10.196 22.7828 10.6059 22.7456 11.0143C22.7084 11.4226 22.5466 11.8097 22.282 12.123L22.168 12.246L12.885 21.529C12.6673 21.7467 12.3769 21.8764 12.0694 21.8931C11.762 21.9099 11.4592 21.8127 11.219 21.62L11.117 21.53L1.83403 12.246C1.54405 11.9562 1.35016 11.5842 1.27861 11.1805C1.20707 10.7768 1.26132 10.3608 1.43403 9.989L1.51203 9.839L4.84503 4.007C5.00611 3.72508 5.23342 3.48661 5.50731 3.31221C5.78119 3.13781 6.09342 3.03271 6.41703 3.006L6.58003 3H17.42ZM7.29303 9.293C7.10555 9.48053 7.00024 9.73484 7.00024 10C7.00024 10.2652 7.10555 10.5195 7.29303 10.707L11.116 14.53C11.2321 14.6461 11.3699 14.7382 11.5216 14.8011C11.6733 14.8639 11.8358 14.8962 12 14.8962C12.1642 14.8962 12.3268 14.8639 12.4785 14.8011C12.6301 14.7382 12.7679 14.6461 12.884 14.53L16.707 10.707C16.8025 10.6148 16.8787 10.5044 16.9311 10.3824C16.9835 10.2604 17.0111 10.1292 17.0123 9.9964C17.0134 9.86362 16.9881 9.73194 16.9378 9.60905C16.8876 9.48615 16.8133 9.3745 16.7194 9.28061C16.6255 9.18671 16.5139 9.11246 16.391 9.06218C16.2681 9.0119 16.1364 8.9866 16.0036 8.98775C15.8708 8.9889 15.7396 9.01649 15.6176 9.0689C15.4956 9.12131 15.3853 9.19749 15.293 9.293L12 12.586L8.70703 9.293C8.5195 9.10553 8.26519 9.00021 8.00003 9.00021C7.73486 9.00021 7.48055 9.10553 7.29303 9.293Z" fill="currentColor"/>
</svg>
