<svg width="24" height="24" viewBox="0 0 24 24" fill="none" xmlns="http://www.w3.org/2000/svg">
<path fill-rule="evenodd" clip-rule="evenodd" d="M11.2 1.401C11.2933 1.27699 11.4141 1.17635 11.5529 1.10705C11.6918 1.03774 11.8448 1.00167 12 1.00167C12.1552 1.00167 12.3082 1.03774 12.447 1.10705C12.5859 1.17635 12.7067 1.27699 12.8 1.401L15.5 5H20.145C20.4069 4.99993 20.6642 5.06842 20.8914 5.19866C21.1186 5.32889 21.3077 5.51634 21.44 5.74236C21.5723 5.96838 21.6431 6.22508 21.6453 6.48695C21.6476 6.74882 21.5813 7.00672 21.453 7.235L13.09 22.103C12.9813 22.2966 12.8231 22.4577 12.6315 22.5699C12.4399 22.682 12.222 22.7411 12 22.7411C11.778 22.7411 11.56 22.682 11.3685 22.5699C11.1769 22.4577 11.0186 22.2966 10.91 22.103L2.54898 7.235C2.42075 7.00687 2.35443 6.74915 2.35662 6.48745C2.35881 6.22575 2.42943 5.96918 2.56147 5.74322C2.6935 5.51726 2.88236 5.32978 3.10928 5.1994C3.3362 5.06902 3.59328 5.00028 3.85498 5H8.49998L11.2 1.401ZM11.997 3.667L9.32998 7.222L11.997 11.667L14.663 7.222L11.997 3.667Z" fill="currentColor"/>
</svg>
