<svg width="24" height="24" viewBox="0 0 24 24" fill="none" xmlns="http://www.w3.org/2000/svg">
<path fill-rule="evenodd" clip-rule="evenodd" d="M2.338 4.863C2.23094 4.67275 2.17558 4.45778 2.17741 4.23948C2.17925 4.02119 2.23822 3.80718 2.34846 3.61876C2.45871 3.43033 2.61637 3.27407 2.80577 3.16551C2.99517 3.05695 3.20969 2.99989 3.428 3H8.608C8.87413 3.0001 9.13544 3.07101 9.36513 3.20545C9.59481 3.33988 9.78459 3.53301 9.915 3.765L13 9.258L16.085 3.765C16.2154 3.53301 16.4052 3.33988 16.6349 3.20545C16.8645 3.07101 17.1259 3.0001 17.392 3H20.572C20.7903 2.99989 21.0048 3.05695 21.1942 3.16551C21.3836 3.27407 21.5413 3.43033 21.6515 3.61876C21.7618 3.80718 21.8207 4.02119 21.8226 4.23948C21.8244 4.45778 21.7691 4.67275 21.662 4.863L13.089 20.103C12.9803 20.2963 12.822 20.4572 12.6306 20.5692C12.4391 20.6812 12.2213 20.7402 11.9995 20.7402C11.7777 20.7402 11.5599 20.6812 11.3684 20.5692C11.1769 20.4572 11.0187 20.2963 10.91 20.103L2.338 4.863Z" fill="currentColor"/>
</svg>
