<svg width="24" height="24" viewBox="0 0 24 24" fill="none" xmlns="http://www.w3.org/2000/svg">
<path fill-rule="evenodd" clip-rule="evenodd" d="M7.52728 6.59498C7.80046 6.69747 8.03782 6.87741 8.21029 7.11275C8.38275 7.34809 8.48284 7.62862 8.49828 7.91998L8.51228 7.81398C8.57005 7.42659 8.77705 7.07715 9.08905 6.84036C9.40104 6.60357 9.79328 6.49821 10.1819 6.54679C10.5706 6.59537 10.9248 6.79404 11.1689 7.10035C11.413 7.40665 11.5277 7.79629 11.4883 8.18598L11.4173 8.75998C11.5818 8.11378 11.9568 7.5408 12.4833 7.13153C13.0097 6.72227 13.6575 6.50005 14.3243 6.49998H14.5003C15.2203 6.49998 15.9453 6.76998 16.4283 7.38798C16.8983 7.98998 16.9883 8.73198 16.8283 9.36798C16.7617 9.63121 16.6249 9.87142 16.4325 10.063C16.2402 10.2546 15.9994 10.3904 15.7359 10.4559C15.4724 10.5214 15.1961 10.5141 14.9364 10.4349C14.6767 10.3556 14.4433 10.2074 14.2613 10.006L14.2113 10.406C14.2056 10.4495 14.2144 10.4938 14.2362 10.5319C14.2581 10.57 14.2918 10.5999 14.3323 10.617C14.9208 10.8644 15.4219 11.2822 15.7711 11.8166C16.1204 12.351 16.3019 12.9776 16.2923 13.616L18.5953 7.47298C18.713 7.1589 18.9325 6.89333 19.2189 6.7187C19.5052 6.54406 19.8419 6.47043 20.175 6.50958C20.5081 6.54873 20.8185 6.6984 21.0565 6.93467C21.2946 7.17094 21.4466 7.48018 21.4883 7.81298L22.4883 15.813C22.5174 16.0106 22.5069 16.212 22.4571 16.4055C22.4074 16.5989 22.3195 16.7805 22.1987 16.9395C22.0778 17.0986 21.9264 17.2319 21.7534 17.3316C21.5803 17.4313 21.3891 17.4955 21.1909 17.5204C20.9927 17.5452 20.7916 17.5302 20.5992 17.4763C20.4069 17.4223 20.2273 17.3305 20.071 17.2062C19.9146 17.0819 19.7846 16.9276 19.6887 16.7525C19.5928 16.5773 19.5328 16.3847 19.5123 16.186L19.4263 15.5H18.7903L18.4043 16.527C18.2912 16.8276 18.0846 17.084 17.815 17.2584C17.5453 17.4328 17.2267 17.5161 16.9062 17.4959C16.5857 17.4758 16.2801 17.3533 16.0344 17.1464C15.7887 16.9396 15.6158 16.6594 15.5413 16.347C15.2608 16.7062 14.9021 16.9968 14.4925 17.1966C14.0828 17.3964 13.633 17.5001 13.1773 17.5H13.0003C12.4903 17.5 11.6303 17.413 11.0543 16.68C10.6773 16.198 10.6013 15.655 10.6063 15.244L10.4883 16.186C10.4682 16.3849 10.4085 16.5779 10.3128 16.7534C10.217 16.929 10.0871 17.0836 9.93074 17.2083C9.77436 17.3329 9.59463 17.425 9.40214 17.4791C9.20964 17.5333 9.00826 17.5484 8.80983 17.5236C8.6114 17.4988 8.41994 17.4346 8.2467 17.3347C8.07346 17.2348 7.92193 17.1013 7.80104 16.942C7.68015 16.7828 7.59232 16.6009 7.54273 16.4072C7.49315 16.2135 7.48279 16.0118 7.51228 15.814L8.43228 8.44398C8.42375 8.47191 8.41441 8.49959 8.40428 8.52698L5.40428 16.527C5.28066 16.8557 5.04562 17.1306 4.74011 17.3038C4.4346 17.4771 4.078 17.5376 3.73245 17.4749C3.3869 17.4122 3.0743 17.2302 2.84914 16.9607C2.62397 16.6912 2.50052 16.3512 2.50028 16V9.41498C2.16612 9.29743 1.88434 9.06541 1.70485 8.76C1.52536 8.4546 1.45975 8.09553 1.51964 7.74639C1.57953 7.39725 1.76105 7.08057 2.03205 6.85244C2.30305 6.62431 2.64605 6.49946 3.00028 6.49998H4.00028C4.35882 6.49992 4.70552 6.62828 4.97757 6.8618C5.24962 7.09533 5.42903 7.41858 5.48328 7.77298L5.59628 7.47298C5.73594 7.10074 6.01767 6.79916 6.37957 6.63453C6.74146 6.4699 7.15491 6.45567 7.52728 6.59498ZM10.6913 14.564C10.7682 14.3095 10.9115 14.0801 11.1062 13.8992C11.301 13.7182 11.5404 13.5923 11.7998 13.5343C12.0593 13.4764 12.3295 13.4884 12.5828 13.5691C12.836 13.6499 13.0633 13.7965 13.2413 13.994L13.2913 13.593C13.2966 13.5495 13.2876 13.5054 13.2656 13.4675C13.2436 13.4296 13.2097 13.3999 13.1693 13.383C12.5865 13.1379 12.0893 12.7257 11.7405 12.1983C11.3917 11.671 11.2068 11.0522 11.2093 10.42L10.6913 14.564Z" fill="currentColor"/>
</svg>
