<svg width="24" height="24" viewBox="0 0 24 24" fill="none" xmlns="http://www.w3.org/2000/svg">
<path fill-rule="evenodd" clip-rule="evenodd" d="M5.30314 6.641C7.08314 6.283 9.33314 6 12.0001 6C14.6671 6 16.9171 6.283 18.6971 6.641C22.0871 7.323 23.5991 10.727 22.8261 13.819L22.7061 14.299C22.4401 15.3639 21.8896 16.3365 21.1135 17.1127C20.3374 17.889 19.365 18.4397 18.3001 18.706C17.4089 18.9289 16.4701 18.8652 15.6171 18.524L12.7431 17.374C12.2662 17.1832 11.7341 17.1832 11.2571 17.374L8.38314 18.524C7.53017 18.8652 6.59137 18.9289 5.70014 18.706C4.63537 18.4399 3.66296 17.8893 2.88689 17.1133C2.11082 16.3372 1.56028 15.3648 1.29414 14.3L1.17414 13.82C0.401142 10.727 1.91414 7.323 5.30314 6.641Z" fill="currentColor"/>
</svg>
