<svg width="24" height="24" viewBox="0 0 24 24" fill="none" xmlns="http://www.w3.org/2000/svg">
<path d="M12 2.5C12.3729 2.50002 12.7324 2.63892 13.0084 2.88962C13.2844 3.14032 13.4572 3.48484 13.493 3.856L13.5 4V20C13.4998 20.3852 13.3514 20.7556 13.0856 21.0344C12.8198 21.3132 12.4569 21.479 12.0721 21.4975C11.6873 21.516 11.3102 21.3858 11.0188 21.1338C10.7274 20.8818 10.5442 20.5274 10.507 20.144L10.5 20V4C10.5 3.60218 10.658 3.22064 10.9393 2.93934C11.2206 2.65804 11.6022 2.5 12 2.5ZM8 5.5C8.39782 5.5 8.77936 5.65804 9.06066 5.93934C9.34196 6.22064 9.5 6.60218 9.5 7V17C9.5 17.3978 9.34196 17.7794 9.06066 18.0607C8.77936 18.342 8.39782 18.5 8 18.5C7.60218 18.5 7.22064 18.342 6.93934 18.0607C6.65804 17.7794 6.5 17.3978 6.5 17V7C6.5 6.60218 6.65804 6.22064 6.93934 5.93934C7.22064 5.65804 7.60218 5.5 8 5.5ZM16 5.5C16.3978 5.5 16.7794 5.65804 17.0607 5.93934C17.342 6.22064 17.5 6.60218 17.5 7V17C17.5 17.3978 17.342 17.7794 17.0607 18.0607C16.7794 18.342 16.3978 18.5 16 18.5C15.6022 18.5 15.2206 18.342 14.9393 18.0607C14.658 17.7794 14.5 17.3978 14.5 17V7C14.5 6.60218 14.658 6.22064 14.9393 5.93934C15.2206 5.65804 15.6022 5.5 16 5.5ZM4 8.5C4.39782 8.5 4.77936 8.65804 5.06066 8.93934C5.34196 9.22064 5.5 9.60218 5.5 10V14C5.5 14.3978 5.34196 14.7794 5.06066 15.0607C4.77936 15.342 4.39782 15.5 4 15.5C3.60218 15.5 3.22064 15.342 2.93934 15.0607C2.65804 14.7794 2.5 14.3978 2.5 14V10C2.5 9.60218 2.65804 9.22064 2.93934 8.93934C3.22064 8.65804 3.60218 8.5 4 8.5ZM20 8.5C20.3729 8.50002 20.7324 8.63892 21.0084 8.88962C21.2844 9.14032 21.4572 9.48484 21.493 9.856L21.5 10V14C21.4998 14.3852 21.3514 14.7556 21.0856 15.0344C20.8198 15.3132 20.4569 15.479 20.0721 15.4975C19.6873 15.516 19.3102 15.3858 19.0188 15.1338C18.7274 14.8818 18.5442 14.5274 18.507 14.144L18.5 14V10C18.5 9.60218 18.658 9.22064 18.9393 8.93934C19.2206 8.65804 19.6022 8.5 20 8.5Z" fill="currentColor"/>
</svg>
