<svg width="24" height="24" viewBox="0 0 24 24" fill="none" xmlns="http://www.w3.org/2000/svg">
<path fill-rule="evenodd" clip-rule="evenodd" d="M20 3.5C20.3978 3.5 20.7794 3.65804 21.0607 3.93934C21.342 4.22064 21.5 4.60218 21.5 5V19C21.5 19.3978 21.342 19.7794 21.0607 20.0607C20.7794 20.342 20.3978 20.5 20 20.5C19.6022 20.5 19.2206 20.342 18.9393 20.0607C18.658 19.7794 18.5 19.3978 18.5 19V5C18.5 4.60218 18.658 4.22064 18.9393 3.93934C19.2206 3.65804 19.6022 3.5 20 3.5ZM10 6.5C10.3978 6.5 10.7794 6.65804 11.0607 6.93934C11.342 7.22064 11.5 7.60218 11.5 8V19C11.5 19.3978 11.342 19.7794 11.0607 20.0607C10.7794 20.342 10.3978 20.5 10 20.5C9.60218 20.5 9.22064 20.342 8.93934 20.0607C8.65804 19.7794 8.5 19.3978 8.5 19V8C8.5 7.60218 8.65804 7.22064 8.93934 6.93934C9.22064 6.65804 9.60218 6.5 10 6.5ZM15 9.5C15.3978 9.5 15.7794 9.65804 16.0607 9.93934C16.342 10.2206 16.5 10.6022 16.5 11V19C16.5 19.3978 16.342 19.7794 16.0607 20.0607C15.7794 20.342 15.3978 20.5 15 20.5C14.6022 20.5 14.2206 20.342 13.9393 20.0607C13.658 19.7794 13.5 19.3978 13.5 19V11C13.5 10.6022 13.658 10.2206 13.9393 9.93934C14.2206 9.65804 14.6022 9.5 15 9.5ZM5 12.5C5.39782 12.5 5.77936 12.658 6.06066 12.9393C6.34196 13.2206 6.5 13.6022 6.5 14V19C6.5 19.3978 6.34196 19.7794 6.06066 20.0607C5.77936 20.342 5.39782 20.5 5 20.5C4.60218 20.5 4.22064 20.342 3.93934 20.0607C3.65804 19.7794 3.5 19.3978 3.5 19V14C3.5 13.6022 3.65804 13.2206 3.93934 12.9393C4.22064 12.658 4.60218 12.5 5 12.5Z" fill="currentColor"/>
</svg>
