<svg width="24" height="24" viewBox="0 0 24 24" fill="none" xmlns="http://www.w3.org/2000/svg">
<path d="M17.68 14.175C18.2843 14.6845 18.7819 15.3084 19.1444 16.0108C19.5068 16.7132 19.7269 17.4803 19.792 18.268C18.8557 19.4341 17.6694 20.3748 16.3207 21.0208C14.972 21.6667 13.4954 22.0014 12 22C11.459 22 10.927 21.957 10.41 21.874C11.15 21.6345 11.8627 21.3174 12.536 20.928C13.7993 20.2006 14.905 19.2286 15.7884 18.0689C16.6718 16.9093 17.3152 15.5852 17.681 14.174L17.68 14.175ZM15.87 13.125C15.625 14.3885 15.1112 15.5845 14.3634 16.632C13.6157 17.6794 12.6514 18.5539 11.536 19.196C10.0279 20.0701 8.29751 20.4851 6.55701 20.39C5.60787 19.773 4.76975 19.0001 4.07801 18.104C5.86025 18.3677 7.67922 18.0194 9.23801 17.116C10.8917 16.1642 12.1491 14.651 12.782 12.851C13.8175 12.6689 14.8828 12.7634 15.87 13.125ZM4.24401 5.68801C4.08401 6.43301 4.00001 7.20701 4.00001 8.00001C3.99847 9.45772 4.28747 10.9011 4.85013 12.2459C5.41279 13.5906 6.23782 14.8097 7.27701 15.832C6.53284 16.1008 5.74285 16.2197 4.95253 16.182C4.16222 16.1442 3.38717 15.9505 2.67201 15.612C2.2263 14.46 1.99844 13.2352 2.00001 12C2.00001 9.60601 2.84101 7.41001 4.24401 5.68801ZM18.464 8.80401C19.9746 9.67256 21.1989 10.9629 21.987 12.517C21.9301 13.6491 21.6802 14.7631 21.248 15.811C20.5856 14.1348 19.3743 12.7328 17.812 11.834C16.1606 10.8773 14.2208 10.5449 12.345 10.897C11.6699 10.0916 11.2194 9.12229 11.039 8.08701C12.2557 7.66726 13.5484 7.51405 14.8295 7.63776C16.1106 7.76147 17.3501 8.15921 18.464 8.80401ZM10.675 2.08701C9.55527 3.49864 8.94718 5.24819 8.95001 7.05001C8.95001 9.03601 9.67501 10.854 10.872 12.252C10.5123 13.2396 9.89829 14.1147 9.09201 14.789C8.11992 13.9451 7.34069 12.902 6.8072 11.7304C6.2737 10.5589 5.99842 9.28631 6.00001 7.99901C5.9973 6.25554 6.50331 4.54916 7.45601 3.08901C8.46437 2.57388 9.5524 2.23499 10.675 2.08701ZM13.534 2.11701C15.2786 2.38864 16.9204 3.11676 18.2929 4.22756C19.6654 5.33835 20.7197 6.79231 21.349 8.44201C20.7708 7.9201 20.1389 7.46088 19.464 7.07201C18.2025 6.34163 16.808 5.87003 15.3621 5.68476C13.9162 5.4995 12.4479 5.60429 11.043 5.99301C11.1822 5.21475 11.4739 4.47168 11.9012 3.8065C12.3285 3.14133 12.8831 2.56716 13.533 2.11701H13.534Z" fill="currentColor"/>
</svg>
