<svg width="24" height="24" viewBox="0 0 24 24" fill="none" xmlns="http://www.w3.org/2000/svg">
<path d="M13.26 3.29995C13.4165 3.18799 13.5997 3.11905 13.7911 3.1C13.9826 3.08096 14.1758 3.11248 14.3512 3.19143C14.5267 3.27037 14.6785 3.39397 14.7912 3.54988C14.904 3.70579 14.9739 3.88857 14.994 4.07995L15 4.19395V19.8059C15.0001 19.9984 14.9496 20.1875 14.8538 20.3543C14.7579 20.5212 14.6199 20.66 14.4536 20.7568C14.2874 20.8537 14.0986 20.9052 13.9061 20.9063C13.7137 20.9074 13.5244 20.8579 13.357 20.7629L13.261 20.7009L6.68 15.9999H4C3.49542 16.0001 3.00943 15.8095 2.63945 15.4665C2.26947 15.1234 2.04284 14.6531 2.005 14.1499L2 13.9999V9.99995C2.00009 9.49554 2.19077 9.0098 2.53384 8.64003C2.8769 8.27026 3.34702 8.04378 3.85 8.00595L4 7.99995H6.68L13.26 3.29995ZM17.586 9.17195L19 10.5859L20.414 9.17195C20.5062 9.07644 20.6166 9.00026 20.7386 8.94785C20.8606 8.89544 20.9918 8.86785 21.1246 8.8667C21.2574 8.86554 21.3891 8.89085 21.512 8.94113C21.6348 8.99141 21.7465 9.06566 21.8404 9.15955C21.9343 9.25345 22.0085 9.3651 22.0588 9.48799C22.1091 9.61089 22.1344 9.74257 22.1333 9.87535C22.1321 10.0081 22.1045 10.1393 22.0521 10.2614C21.9997 10.3834 21.9235 10.4937 21.828 10.5859L20.414 11.9999L21.828 13.4139C22.0156 13.6015 22.1211 13.8558 22.1212 14.1211C22.1213 14.3864 22.016 14.6408 21.8285 14.8284C21.641 15.0161 21.3866 15.1216 21.1214 15.1217C20.8561 15.1217 20.6016 15.0165 20.414 14.8289L19 13.4139L17.586 14.8289C17.3984 15.0165 17.1439 15.1217 16.8786 15.1217C16.6134 15.1216 16.359 15.0161 16.1715 14.8284C15.984 14.6408 15.8787 14.3864 15.8788 14.1211C15.8789 13.8558 15.9844 13.6015 16.172 13.4139L17.586 11.9999L16.172 10.5859C16.0765 10.4937 16.0003 10.3834 15.9479 10.2614C15.8955 10.1393 15.8679 10.0081 15.8667 9.87535C15.8656 9.74257 15.8909 9.61089 15.9412 9.48799C15.9915 9.3651 16.0657 9.25345 16.1596 9.15955C16.2535 9.06566 16.3652 8.99141 16.488 8.94113C16.6109 8.89085 16.7426 8.86554 16.8754 8.8667C17.0082 8.86785 17.1394 8.89544 17.2614 8.94785C17.3834 9.00026 17.4938 9.07644 17.586 9.17195Z" fill="currentColor"/>
</svg>
