<svg width="24" height="24" viewBox="0 0 24 24" fill="none" xmlns="http://www.w3.org/2000/svg">
<path fill-rule="evenodd" clip-rule="evenodd" d="M5.63313 17.774C5.46741 17.9096 5.26254 17.9884 5.04869 17.9988C4.83483 18.0093 4.62327 17.9508 4.44513 17.832L2.94513 16.832C2.82343 16.7508 2.72103 16.644 2.64513 16.5189C2.56924 16.3939 2.5217 16.2537 2.50587 16.1083C2.49004 15.9629 2.50631 15.8157 2.55352 15.6773C2.60074 15.5388 2.67775 15.4124 2.77913 15.307L5.96013 12L2.78013 8.693C2.67875 8.58755 2.60174 8.46115 2.55452 8.3227C2.50731 8.18426 2.49104 8.03714 2.50687 7.89172C2.5227 7.7463 2.57024 7.60613 2.64613 7.48108C2.72203 7.35604 2.82443 7.24917 2.94613 7.168L4.44613 6.168C4.62426 6.04921 4.83583 5.99073 5.04969 6.00118C5.26354 6.01162 5.46841 6.09042 5.63413 6.226L8.92413 8.918L15.2741 2.314C15.4601 2.116 15.7341 2.001 15.9991 2H16.0001C16.2165 2 16.427 2.07018 16.6001 2.2L20.6001 5.2C20.7243 5.29315 20.8251 5.41393 20.8946 5.55279C20.964 5.69164 21.0001 5.84475 21.0001 6V18C21.0001 18.1552 20.964 18.3084 20.8946 18.4472C20.8251 18.5861 20.7243 18.7069 20.6001 18.8L16.6001 21.8C16.4035 21.9476 16.1593 22.0175 15.9144 21.9965C15.6694 21.9755 15.4408 21.8649 15.2721 21.686L8.92213 15.083L5.63313 17.774ZM15.0001 13.89V10.11L12.6901 12L15.0001 13.89Z" fill="currentColor"/>
</svg>
