<svg width="24" height="24" viewBox="0 0 24 24" fill="none" xmlns="http://www.w3.org/2000/svg">
<path d="M19.707 3.94C19.9024 3.608 20.2181 3.36391 20.5886 3.25831C20.959 3.15272 21.3559 3.19371 21.697 3.3728C22.0381 3.55189 22.2972 3.85535 22.4206 4.22028C22.5441 4.58521 22.5224 4.98364 22.36 5.333L22.293 5.461L13.293 20.761C13.1667 20.9756 12.9889 21.1555 12.7758 21.2842C12.5626 21.413 12.3207 21.4866 12.0719 21.4986C11.8232 21.5105 11.5754 21.4602 11.3509 21.3524C11.1264 21.2446 10.9322 21.0826 10.786 20.881L10.707 20.761L1.707 5.461C1.5105 5.1288 1.44962 4.73365 1.537 4.35771C1.62439 3.98177 1.85332 3.65399 2.17619 3.44252C2.49906 3.23105 2.89102 3.15217 3.27056 3.22229C3.6501 3.29241 3.988 3.50612 4.214 3.819L4.293 3.939L12 17.043L19.707 3.94ZM14.827 3.935C15.0224 3.603 15.3381 3.35891 15.7086 3.25331C16.079 3.14772 16.4759 3.18871 16.817 3.3678C17.1581 3.54689 17.4172 3.85035 17.5406 4.21528C17.6641 4.58021 17.6423 4.97864 17.48 5.328L17.413 5.456L13.293 12.46C13.1668 12.6747 12.9891 12.8546 12.776 12.9835C12.5628 13.1123 12.321 13.1861 12.0722 13.1981C11.8234 13.2101 11.5756 13.16 11.351 13.0522C11.1265 12.9445 10.9323 12.7825 10.786 12.581L10.707 12.461L6.59 5.46C6.3935 5.1278 6.33262 4.73265 6.42 4.35671C6.50739 3.98077 6.73632 3.65299 7.05919 3.44152C7.38206 3.23005 7.77402 3.15117 8.15356 3.22129C8.5331 3.29141 8.871 3.50512 9.097 3.818L9.176 3.938L12 8.743L14.827 3.935Z" fill="currentColor"/>
</svg>
