<svg width="24" height="24" viewBox="0 0 24 24" fill="none" xmlns="http://www.w3.org/2000/svg">
<path d="M11.9999 2C12.7201 1.99943 13.4165 2.25799 13.9619 2.72845C14.5072 3.1989 14.8651 3.84985 14.9702 4.56237C15.0753 5.27489 14.9205 6.00143 14.5341 6.60927C14.1478 7.2171 13.5557 7.66566 12.8659 7.873L12.6959 7.919L15.1229 10.694L16.9469 11.605C17.1776 11.7176 17.3561 11.9147 17.4455 12.1553C17.5349 12.3959 17.5283 12.6616 17.4272 12.8975C17.3261 13.1335 17.1381 13.3215 16.9022 13.4226C16.6663 13.5238 16.4005 13.5304 16.1599 13.441L16.0529 13.394L14.2289 12.482C14.055 12.3951 13.8946 12.2832 13.7529 12.15L13.6179 12.01L12.5999 10.847L11.9399 13.485C11.8803 13.725 11.7765 13.9519 11.6339 14.154L11.5239 14.296L13.4519 16.059C13.7001 16.2856 13.8872 16.571 13.9959 16.889L14.0429 17.049L14.7809 20H14.9999C15.2548 20.0003 15.5 20.0979 15.6853 20.2728C15.8706 20.4478 15.9822 20.687 15.9971 20.9414C16.012 21.1958 15.9292 21.4464 15.7657 21.6418C15.6021 21.8373 15.37 21.9629 15.1169 21.993L14.9999 22H14.0779C13.854 22 13.6353 21.9316 13.4513 21.804C13.2672 21.6764 13.1265 21.4957 13.0479 21.286L13.0109 21.166L12.1029 17.535L9.09292 14.783C8.71491 14.5905 8.40785 14.2829 8.21606 13.9045C8.02428 13.5262 7.95769 13.0967 8.02592 12.678L8.05992 12.515L8.57292 10.463L8.24992 10.693L6.85692 13.015C6.72575 13.234 6.51578 13.3946 6.27005 13.4637C6.02432 13.5329 5.76143 13.5055 5.53526 13.3871C5.30909 13.2687 5.13676 13.0683 5.05359 12.827C4.97041 12.5856 4.9827 12.3216 5.08792 12.089L5.14192 11.985L6.53492 9.664C6.64767 9.47593 6.79057 9.30769 6.95792 9.166L7.08792 9.066L9.84992 7.091C9.43896 6.66821 9.16169 6.13368 9.05277 5.55422C8.94385 4.97475 9.00809 4.37603 9.23748 3.83287C9.46686 3.2897 9.85122 2.82618 10.3425 2.5002C10.8338 2.17422 11.4103 2.00024 11.9999 2ZM9.31592 15.551C9.44056 15.5925 9.55581 15.6581 9.65509 15.7441C9.75436 15.8301 9.83571 15.9349 9.8945 16.0524C9.95328 16.1698 9.98834 16.2977 9.99768 16.4288C10.007 16.5598 9.99045 16.6914 9.94892 16.816L9.52292 18.092C9.42481 18.3866 9.25945 18.6544 9.03992 18.874L7.38292 20.531C7.49498 20.7425 7.52744 20.9872 7.47441 21.2207C7.42137 21.4541 7.28636 21.6608 7.0939 21.8031C6.90145 21.9455 6.66431 22.014 6.42558 21.9964C6.18685 21.9788 5.96237 21.8761 5.79292 21.707L5.29992 21.214C5.11062 21.0246 5.00428 20.7678 5.00428 20.5C5.00428 20.2322 5.11062 19.9754 5.29992 19.786L7.62592 17.46L8.05092 16.184C8.09239 16.0594 8.15801 15.9441 8.24404 15.8448C8.33006 15.7456 8.4348 15.6642 8.55228 15.6054C8.66975 15.5466 8.79766 15.5116 8.92869 15.5022C9.05971 15.4929 9.1913 15.5095 9.31592 15.551Z" fill="currentColor"/>
</svg>
