<svg width="24" height="24" viewBox="0 0 24 24" fill="none" xmlns="http://www.w3.org/2000/svg">
<path fill-rule="evenodd" clip-rule="evenodd" d="M15.69 6.861C15.932 6.691 16.159 6.498 16.353 6.281C16.706 5.886 17 5.356 17 4.714C17 4.048 16.683 3.526 16.277 3.161C15.891 2.813 15.405 2.584 14.941 2.428C14.01 2.113 12.892 2 12 2C11.108 2 9.99 2.113 9.059 2.428C8.595 2.584 8.109 2.813 7.723 3.161C7.317 3.526 7 4.048 7 4.714C7 5.356 7.294 5.886 7.647 6.28C7.84471 6.49873 8.06721 6.69371 8.31 6.861C5.325 8.284 3 11.335 3 15C3 17.556 4.02 19.386 5.766 20.525C7.441 21.617 9.67 22 12 22C14.33 22 16.56 21.617 18.234 20.525C19.98 19.386 21 17.555 21 15C21 11.335 18.675 8.284 15.69 6.861ZM9.06 4.647C9.0367 4.66691 9.01648 4.69016 9 4.716C9 4.726 9.008 4.802 9.137 4.947C9.277 5.104 9.512 5.282 9.839 5.451C10.499 5.793 11.342 6 12 6C12.658 6 13.502 5.793 14.161 5.451C14.488 5.282 14.722 5.104 14.863 4.947C14.992 4.802 14.999 4.727 15 4.716C14.9835 4.69015 14.9633 4.6669 14.94 4.647C14.834 4.553 14.63 4.434 14.301 4.322C13.647 4.102 12.765 4 12 4C11.235 4 10.353 4.101 9.699 4.322C9.369 4.434 9.165 4.552 9.06 4.647ZM11.395 11.053C11.3388 10.9314 11.2588 10.8224 11.1597 10.7323C11.0606 10.6422 10.9444 10.573 10.818 10.5287C10.6916 10.4844 10.5577 10.4659 10.424 10.4744C10.2903 10.4828 10.1598 10.518 10.04 10.5779C9.92018 10.6378 9.81365 10.7212 9.72669 10.823C9.63972 10.9249 9.5741 11.0431 9.53372 11.1708C9.49334 11.2985 9.47902 11.433 9.49161 11.5663C9.50419 11.6997 9.54344 11.8291 9.607 11.947L10.132 13H10C9.73478 13 9.48043 13.1054 9.29289 13.2929C9.10536 13.4804 9 13.7348 9 14C9 14.2652 9.10536 14.5196 9.29289 14.7071C9.48043 14.8946 9.73478 15 10 15H11V15.5H10C9.73478 15.5 9.48043 15.6054 9.29289 15.7929C9.10536 15.9804 9 16.2348 9 16.5C9 16.7652 9.10536 17.0196 9.29289 17.2071C9.48043 17.3946 9.73478 17.5 10 17.5H11V18C11 18.2652 11.1054 18.5196 11.2929 18.7071C11.4804 18.8946 11.7348 19 12 19C12.2652 19 12.5196 18.8946 12.7071 18.7071C12.8946 18.5196 13 18.2652 13 18V17.5H14C14.2652 17.5 14.5196 17.3946 14.7071 17.2071C14.8946 17.0196 15 16.7652 15 16.5C15 16.2348 14.8946 15.9804 14.7071 15.7929C14.5196 15.6054 14.2652 15.5 14 15.5H13V15H14C14.2652 15 14.5196 14.8946 14.7071 14.7071C14.8946 14.5196 15 14.2652 15 14C15 13.7348 14.8946 13.4804 14.7071 13.2929C14.5196 13.1054 14.2652 13 14 13H13.868L14.394 11.947C14.4576 11.8291 14.4968 11.6997 14.5094 11.5663C14.522 11.433 14.5077 11.2985 14.4673 11.1708C14.4269 11.0431 14.3613 10.9249 14.2743 10.823C14.1874 10.7212 14.0808 10.6378 13.961 10.5779C13.8412 10.518 13.7107 10.4828 13.577 10.4744C13.4433 10.4659 13.3094 10.4844 13.183 10.5287C13.0566 10.573 12.9404 10.6422 12.8413 10.7323C12.7422 10.8224 12.6622 10.9314 12.606 11.053L12 12.263L11.395 11.053Z" fill="currentColor"/>
</svg>
