<svg width="24" height="24" viewBox="0 0 24 24" fill="none" xmlns="http://www.w3.org/2000/svg">
<path fill-rule="evenodd" clip-rule="evenodd" d="M19 4.98902V6.00002C19.5304 6.00002 20.0391 6.21073 20.4142 6.5858C20.7893 6.96088 21 7.46958 21 8.00002V18C21 18.5304 20.7893 19.0392 20.4142 19.4142C20.0391 19.7893 19.5304 20 19 20H5C4.46957 20 3.96086 19.7893 3.58579 19.4142C3.21071 19.0392 3 18.5304 3 18V8.00002C3 6.95502 3.835 6.00702 4.813 5.72802L15.813 2.58502C16.1851 2.47867 16.5768 2.46016 16.9573 2.53094C17.3377 2.60172 17.6966 2.75986 18.0055 2.99291C18.3145 3.22596 18.5651 3.52755 18.7377 3.87393C18.9102 4.22031 19 4.60203 19 4.98902ZM15.5 11.5C15.1022 11.5 14.7206 11.6581 14.4393 11.9394C14.158 12.2207 14 12.6022 14 13C14 13.3978 14.158 13.7794 14.4393 14.0607C14.7206 14.342 15.1022 14.5 15.5 14.5C15.8978 14.5 16.2794 14.342 16.5607 14.0607C16.842 13.7794 17 13.3978 17 13C17 12.6022 16.842 12.2207 16.5607 11.9394C16.2794 11.6581 15.8978 11.5 15.5 11.5ZM17 4.98902C17.0001 4.91843 16.9852 4.84863 16.9563 4.78421C16.9274 4.71979 16.8853 4.66222 16.8326 4.61527C16.7798 4.56832 16.7178 4.53306 16.6505 4.51182C16.5832 4.49058 16.5121 4.48383 16.442 4.49202L16.362 4.50802L11.14 6.00002H17V4.98902Z" fill="currentColor"/>
</svg>
