<svg width="24" height="24" viewBox="0 0 24 24" fill="none" xmlns="http://www.w3.org/2000/svg">
<path fill-rule="evenodd" clip-rule="evenodd" d="M6.64113 7.313C7.96813 7.728 9.86313 8 12.0001 8C14.1371 8 16.0311 7.728 17.3581 7.313C19.0011 6.8 19.1441 6.245 17.3581 5.687C16.0321 5.272 14.1381 5 12.0001 5C9.86313 5 7.96813 5.272 6.64113 5.687C4.86313 6.242 5.02313 6.807 6.64113 7.313ZM12.0001 3C9.71813 3 7.61313 3.288 6.04513 3.778C4.49013 4.264 2.71613 5.232 3.01213 7.152L4.54713 17.134C4.88513 19.333 6.45113 21.294 8.79413 21.701C9.75613 21.868 10.8711 22 12.0001 22C13.0753 21.991 14.1478 21.891 15.2061 21.701C17.5491 21.295 19.1141 19.333 19.4531 17.134L20.9881 7.152C21.2841 5.232 19.5101 4.264 17.9551 3.778C16.3871 3.288 14.2811 3 12.0001 3Z" fill="currentColor"/>
</svg>
