<svg width="24" height="24" viewBox="0 0 24 24" fill="none" xmlns="http://www.w3.org/2000/svg">
<path fill-rule="evenodd" clip-rule="evenodd" d="M10 2C9.46957 2 8.96086 2.21071 8.58579 2.58579C8.21071 2.96086 8 3.46957 8 4V5.416C7.10819 5.80536 6.34935 6.44644 5.81647 7.26067C5.2836 8.0749 4.99985 9.0269 5 10V14C4.99985 14.9731 5.2836 15.9251 5.81647 16.7393C6.34935 17.5536 7.10819 18.1946 8 18.584V20C8 20.5304 8.21071 21.0391 8.58579 21.4142C8.96086 21.7893 9.46957 22 10 22H14C14.5304 22 15.0391 21.7893 15.4142 21.4142C15.7893 21.0391 16 20.5304 16 20V18.584C16.8918 18.1946 17.6507 17.5536 18.1835 16.7393C18.7164 15.9251 19.0001 14.9731 19 14V10C19.0001 9.0269 18.7164 8.0749 18.1835 7.26067C17.6507 6.44644 16.8918 5.80536 16 5.416V4C16 3.46957 15.7893 2.96086 15.4142 2.58579C15.0391 2.21071 14.5304 2 14 2H10ZM11 9C11 8.73478 11.1054 8.48043 11.2929 8.29289C11.4804 8.10536 11.7348 8 12 8C12.2652 8 12.5196 8.10536 12.7071 8.29289C12.8946 8.48043 13 8.73478 13 9V11.586L14.156 12.742C14.3382 12.9306 14.439 13.1832 14.4367 13.4454C14.4344 13.7076 14.3292 13.9584 14.1438 14.1438C13.9584 14.3292 13.7076 14.4344 13.4454 14.4367C13.1832 14.439 12.9306 14.3382 12.742 14.156L11.292 12.707C11.1976 12.6126 11.1231 12.5003 11.073 12.3766C11.0228 12.2529 10.998 12.1204 11 11.987V9Z" fill="currentColor"/>
</svg>
