<svg width="24" height="24" viewBox="0 0 24 24" fill="none" xmlns="http://www.w3.org/2000/svg">
<path fill-rule="evenodd" clip-rule="evenodd" d="M10.754 2C10.3195 1.99998 9.89673 2.14148 9.54978 2.40309C9.20282 2.66471 8.9505 3.03221 8.831 3.45L8.038 6.225V6.229C7.10077 6.87163 6.33429 7.73303 5.80493 8.7386C5.27557 9.74416 4.99929 10.8636 5 12C4.99918 13.1363 5.27531 14.2557 5.80449 15.2613C6.33367 16.2668 7.09995 17.1283 8.037 17.771L8.038 17.775L8.831 20.549C8.95032 20.967 9.20256 21.3347 9.54953 21.5965C9.89651 21.8583 10.3193 22 10.754 22H13.246C13.6805 22 14.1033 21.8585 14.4502 21.5969C14.7972 21.3353 15.0495 20.9678 15.169 20.55L15.961 17.775L15.963 17.771C16.9001 17.1283 17.6663 16.2668 18.1955 15.2613C18.7247 14.2557 19.0008 13.1363 19 12C19.0008 10.8637 18.7247 9.74431 18.1955 8.73875C17.6663 7.73319 16.9001 6.87175 15.963 6.229L15.961 6.225L15.169 3.451C15.0497 3.03303 14.7974 2.6653 14.4505 2.40349C14.1035 2.14168 13.6807 2.00004 13.246 2H10.754ZM13 9C13 8.73478 12.8946 8.48043 12.7071 8.29289C12.5196 8.10536 12.2652 8 12 8C11.7348 8 11.4804 8.10536 11.2929 8.29289C11.1054 8.48043 11 8.73478 11 9V12C11.0001 12.2652 11.1055 12.5195 11.293 12.707L12.793 14.207C12.9816 14.3892 13.2342 14.49 13.4964 14.4877C13.7586 14.4854 14.0094 14.3802 14.1948 14.1948C14.3802 14.0094 14.4854 13.7586 14.4877 13.4964C14.49 13.2342 14.3892 12.9816 14.207 12.793L13 11.586V9Z" fill="currentColor"/>
</svg>
