<svg width="24" height="24" viewBox="0 0 24 24" fill="none" xmlns="http://www.w3.org/2000/svg">
<path d="M18.1461 6.73297C16.3815 6.46371 14.5775 6.64534 12.9021 7.26097L12.5561 7.39297C10.2884 8.31167 7.81487 8.60185 5.39609 8.23297C4.35809 8.07297 3.27609 7.81497 2.32809 7.34197C1.98265 7.17078 1.71639 6.87316 1.58456 6.51087C1.45273 6.14858 1.46546 5.74944 1.6201 5.39628C1.77474 5.04313 2.05943 4.76307 2.41507 4.61424C2.77071 4.46541 3.17001 4.45922 3.53009 4.59697L3.66209 4.65497C4.34409 4.97497 5.11209 5.15397 5.85209 5.26797C7.19609 5.47397 9.03509 5.48797 11.0961 4.73897L11.4421 4.60697C13.7098 3.68828 16.1833 3.39809 18.6021 3.76697C19.6401 3.92697 20.7211 4.18597 21.6681 4.65697C22.0219 4.83744 22.2906 5.1497 22.4163 5.52644C22.542 5.90318 22.5146 6.31422 22.3401 6.67097C21.9711 7.40897 21.2181 7.57797 20.3351 7.34497L18.1461 6.73297ZM18.1461 12.733C16.3815 12.4637 14.5775 12.6453 12.9021 13.261L12.5561 13.393C10.2884 14.3117 7.81487 14.6019 5.39609 14.233C4.35809 14.073 3.27609 13.815 2.32809 13.342C1.98265 13.1708 1.71639 12.8732 1.58456 12.5109C1.45273 12.1486 1.46546 11.7494 1.6201 11.3963C1.77474 11.0431 2.05943 10.7631 2.41507 10.6142C2.77071 10.4654 3.17001 10.4592 3.53009 10.597L3.66209 10.655C4.34409 10.975 5.11209 11.154 5.85209 11.268C7.19609 11.474 9.03509 11.488 11.0961 10.739L11.4421 10.607C13.7098 9.68828 16.1833 9.39809 18.6021 9.76697C19.6401 9.92697 20.7211 10.186 21.6681 10.657C22.0219 10.8374 22.2906 11.1497 22.4163 11.5264C22.542 11.9032 22.5146 12.3142 22.3401 12.671C21.9711 13.41 21.2181 13.578 20.3351 13.345L18.1461 12.733ZM12.1921 19.533L12.5561 19.393C14.326 18.6736 16.2573 18.4455 18.1461 18.733L20.3361 19.345C21.2181 19.578 21.9711 19.41 22.3411 18.671C22.5152 18.3142 22.5423 17.9033 22.4164 17.5268C22.2905 17.1503 22.0218 16.8383 21.6681 16.658C20.7211 16.186 19.6401 15.928 18.6021 15.768C16.3138 15.4183 13.9741 15.6593 11.8051 16.468L11.4421 16.608C9.24009 17.488 7.27009 17.486 5.85209 17.268C5.21809 17.17 4.56209 17.025 3.95909 16.784L3.66209 16.654C3.30564 16.4771 2.89352 16.449 2.51638 16.576C2.13924 16.7029 1.82799 16.9745 1.65109 17.331C1.47419 17.6874 1.44614 18.0995 1.5731 18.4767C1.70006 18.8538 1.97164 19.1651 2.32809 19.342C3.27509 19.815 4.35809 20.073 5.39609 20.232C7.14809 20.502 9.53909 20.512 12.1921 19.532V19.533Z" fill="currentColor"/>
</svg>
