<svg width="24" height="24" viewBox="0 0 24 24" fill="none" xmlns="http://www.w3.org/2000/svg">
<path d="M19 4C19.5304 4 20.0391 4.21071 20.4142 4.58579C20.7893 4.96086 21 5.46957 21 6V18C21 18.5304 20.7893 19.0391 20.4142 19.4142C20.0391 19.7893 19.5304 20 19 20H5C4.46957 20 3.96086 19.7893 3.58579 19.4142C3.21071 19.0391 3 18.5304 3 18V6C3 5.46957 3.21071 4.96086 3.58579 4.58579C3.96086 4.21071 4.46957 4 5 4H19ZM19 10H5V17C5.00003 17.2449 5.08996 17.4813 5.25272 17.6644C5.41547 17.8474 5.63975 17.9643 5.883 17.993L6 18H18C18.2449 18 18.4813 17.91 18.6644 17.7473C18.8474 17.5845 18.9643 17.3603 18.993 17.117L19 17V10ZM6 6C5.73478 6 5.48043 6.10536 5.29289 6.29289C5.10536 6.48043 5 6.73478 5 7C5 7.26522 5.10536 7.51957 5.29289 7.70711C5.48043 7.89464 5.73478 8 6 8C6.26522 8 6.51957 7.89464 6.70711 7.70711C6.89464 7.51957 7 7.26522 7 7C7 6.73478 6.89464 6.48043 6.70711 6.29289C6.51957 6.10536 6.26522 6 6 6ZM9 6C8.73478 6 8.48043 6.10536 8.29289 6.29289C8.10536 6.48043 8 6.73478 8 7C8 7.26522 8.10536 7.51957 8.29289 7.70711C8.48043 7.89464 8.73478 8 9 8C9.26522 8 9.51957 7.89464 9.70711 7.70711C9.89464 7.51957 10 7.26522 10 7C10 6.73478 9.89464 6.48043 9.70711 6.29289C9.51957 6.10536 9.26522 6 9 6ZM12 6C11.7348 6 11.4804 6.10536 11.2929 6.29289C11.1054 6.48043 11 6.73478 11 7C11 7.26522 11.1054 7.51957 11.2929 7.70711C11.4804 7.89464 11.7348 8 12 8C12.2652 8 12.5196 7.89464 12.7071 7.70711C12.8946 7.51957 13 7.26522 13 7C13 6.73478 12.8946 6.48043 12.7071 6.29289C12.5196 6.10536 12.2652 6 12 6Z" fill="currentColor"/>
</svg>
