<svg width="24" height="24" viewBox="0 0 24 24" fill="none" xmlns="http://www.w3.org/2000/svg">
<path fill-rule="evenodd" clip-rule="evenodd" d="M15.1532 9.46147C15.6838 8.78274 16 7.9283 16 7C16 4.79086 14.2091 3 12 3C9.79086 3 8 4.79086 8 7C8 7.9283 8.31622 8.78273 8.84682 9.46147L6.76199 13.0725C6.51532 13.0249 6.26057 13 6 13C3.79086 13 2 14.7909 2 17C2 19.2091 3.79086 21 6 21C7.48056 21 8.77325 20.1956 9.46487 19H14.5351C15.2267 20.1956 16.5194 21 18 21C20.2091 21 22 19.2091 22 17C22 14.7909 20.2091 13 18 13C17.7394 13 17.4847 13.0249 17.238 13.0725L15.1532 9.46147ZM15.4276 13.9368L13.5518 10.6878C13.0746 10.8889 12.5503 11 12 11C11.4497 11 10.9254 10.8889 10.4482 10.6878L8.57241 13.9368C9.44526 14.6705 10 15.7705 10 17H14C14 15.7705 14.5547 14.6705 15.4276 13.9368Z" fill="currentColor"/>
</svg>
