<svg width="24" height="24" viewBox="0 0 24 24" fill="none" xmlns="http://www.w3.org/2000/svg">
<path fill-rule="evenodd" clip-rule="evenodd" d="M12 22C17.523 22 22 17.523 22 12C22 6.477 17.523 2 12 2C6.477 2 2 6.477 2 12C2 17.523 6.477 22 12 22ZM17.165 7.265C16.7649 6.86495 16.2723 6.56984 15.7308 6.40586C15.1894 6.24188 14.6158 6.21411 14.061 6.325L13.943 6.349C13.1131 6.51499 12.3663 6.96339 11.8298 7.61791C11.2932 8.27244 11 9.09265 11 9.939V14.061C11.0003 14.445 10.8674 14.8173 10.6239 15.1143C10.3805 15.4114 10.0416 15.6148 9.665 15.69L9.547 15.713C9.19587 15.7826 8.83142 15.7186 8.52499 15.5335C8.21856 15.3485 7.99222 15.0558 7.89027 14.7127C7.78832 14.3695 7.8181 14.0007 7.97379 13.6784C8.12947 13.3561 8.39985 13.1035 8.732 12.97L8.836 12.928C9.08225 12.8295 9.27928 12.6372 9.38374 12.3934C9.4882 12.1496 9.49153 11.8743 9.393 11.628C9.29447 11.3817 9.10216 11.1847 8.85836 11.0803C8.61456 10.9758 8.33925 10.9725 8.093 11.071L7.989 11.113C5.698 12.03 5.09 14.99 6.835 16.735C7.23505 17.1351 7.72768 17.4302 8.26915 17.5941C8.81063 17.7581 9.38421 17.7859 9.939 17.675L10.057 17.651C10.8869 17.485 11.6337 17.0366 12.1702 16.3821C12.7068 15.7276 13 14.9073 13 14.061V9.94C12.9997 9.55596 13.1326 9.18371 13.3761 8.88667C13.6195 8.58963 13.9584 8.38619 14.335 8.311L14.453 8.288C14.8041 8.21844 15.1686 8.28243 15.475 8.46745C15.7814 8.65247 16.0078 8.9452 16.1097 9.28833C16.2117 9.63146 16.1819 10.0003 16.0262 10.3226C15.8705 10.6449 15.6001 10.8975 15.268 11.031L15.164 11.073C14.9177 11.1715 14.7207 11.3638 14.6163 11.6076C14.5118 11.8514 14.5085 12.1267 14.607 12.373C14.7055 12.6193 14.8978 12.8163 15.1416 12.9207C15.3854 13.0252 15.6607 13.0285 15.907 12.93L16.011 12.888C18.302 11.971 18.91 9.01 17.165 7.265Z" fill="currentColor"/>
</svg>
