<svg width="24" height="24" viewBox="0 0 24 24" fill="none" xmlns="http://www.w3.org/2000/svg">
<path fill-rule="evenodd" clip-rule="evenodd" d="M16 10C19.154 10 22 12.186 22 15.213C22 16.909 21.08 18.366 19.74 19.293C19.696 19.558 19.732 19.825 19.732 20.092C19.7333 20.3313 19.6396 20.5614 19.4714 20.7316C19.3032 20.9019 19.0743 20.9984 18.835 21C18.155 21 17.525 20.776 16.992 20.355C16.6635 20.4025 16.3319 20.4262 16 20.426C12.846 20.426 10 18.24 10 15.213C10 12.186 12.846 10 16 10ZM9.5 3C13.277 3 16.649 5.535 16.974 9.062C16.651 9.02072 16.3257 9.00001 16 9C12.467 9 9 11.473 9 15.209C9 15.563 9.031 15.906 9.09 16.236C8.77985 16.2216 8.47072 16.1902 8.164 16.142C7.494 16.691 6.721 17 5.854 17C5.336 17 4.917 16.566 4.917 16.03L4.921 15.833L4.938 15.436C4.9476 15.2377 4.92909 15.0391 4.883 14.846C3.17 13.667 2 11.794 2 9.624C2 5.807 5.525 3 9.5 3ZM14 13C13.7348 13 13.4804 13.1054 13.2929 13.2929C13.1054 13.4804 13 13.7348 13 14C13 14.2652 13.1054 14.5196 13.2929 14.7071C13.4804 14.8946 13.7348 15 14 15C14.2652 15 14.5196 14.8946 14.7071 14.7071C14.8946 14.5196 15 14.2652 15 14C15 13.7348 14.8946 13.4804 14.7071 13.2929C14.5196 13.1054 14.2652 13 14 13ZM18 13C17.7348 13 17.4804 13.1054 17.2929 13.2929C17.1054 13.4804 17 13.7348 17 14C17 14.2652 17.1054 14.5196 17.2929 14.7071C17.4804 14.8946 17.7348 15 18 15C18.2652 15 18.5196 14.8946 18.7071 14.7071C18.8946 14.5196 19 14.2652 19 14C19 13.7348 18.8946 13.4804 18.7071 13.2929C18.5196 13.1054 18.2652 13 18 13ZM7 6C6.73478 6 6.48043 6.10536 6.29289 6.29289C6.10536 6.48043 6 6.73478 6 7C6 7.26522 6.10536 7.51957 6.29289 7.70711C6.48043 7.89464 6.73478 8 7 8C7.26522 8 7.51957 7.89464 7.70711 7.70711C7.89464 7.51957 8 7.26522 8 7C8 6.73478 7.89464 6.48043 7.70711 6.29289C7.51957 6.10536 7.26522 6 7 6ZM12 6C11.7348 6 11.4804 6.10536 11.2929 6.29289C11.1054 6.48043 11 6.73478 11 7C11 7.26522 11.1054 7.51957 11.2929 7.70711C11.4804 7.89464 11.7348 8 12 8C12.2652 8 12.5196 7.89464 12.7071 7.70711C12.8946 7.51957 13 7.26522 13 7C13 6.73478 12.8946 6.48043 12.7071 6.29289C12.5196 6.10536 12.2652 6 12 6Z" fill="currentColor"/>
</svg>
