<svg width="24" height="24" viewBox="0 0 24 24" fill="none" xmlns="http://www.w3.org/2000/svg">
<path d="M12 3C6.656 3 2 6.643 2 11.5C2 14.298 3.577 16.723 5.906 18.244C6.08 18.627 6.049 19.096 6.021 19.537C6.011 19.697 6 19.853 6 20C6 20.2652 6.10536 20.5196 6.29289 20.7071C6.48043 20.8946 6.73478 21 7 21C8.25 21 9.071 20.589 9.639 20.19C9.836 20.05 9.996 19.918 10.089 19.845C10.708 19.947 11.347 20 12 20C17.344 20 22 16.357 22 11.5C22.0007 10.2183 21.67 8.95819 21.04 7.842L21.037 7.844L10.037 14.844C9.9228 14.9166 9.79506 14.9653 9.6615 14.9871C9.52794 15.0089 9.39135 15.0034 9.25999 14.9708C9.12863 14.9383 9.00525 14.8794 8.8973 14.7978C8.78936 14.7162 8.6991 14.6135 8.632 14.496L6.632 10.996C6.52246 10.8039 6.47966 10.581 6.5103 10.362C6.54094 10.143 6.64329 9.94039 6.80134 9.78577C6.9594 9.63114 7.16424 9.53326 7.38383 9.50743C7.60342 9.4816 7.82538 9.52927 8.015 9.643L9.595 10.59C9.73636 10.6749 9.89652 10.7235 10.0612 10.7316C10.2259 10.7396 10.3901 10.7068 10.539 10.636L19.836 6.209C17.974 4.228 15.103 3 12 3Z" fill="currentColor"/>
</svg>
