<svg width="24" height="24" viewBox="0 0 24 24" fill="none" xmlns="http://www.w3.org/2000/svg">
<path d="M8.773 5.605C10.408 4.758 12.059 4.777 13.12 5.815C13.67 6.352 13.946 7.055 13.983 7.807C15.658 7.305 17.028 7.445 17.92 8.307C18.768 9.127 18.857 10.274 18.537 11.271C19.9 11.961 21 13.058 21 14.715C21 16.645 19.744 18.241 18.038 19.301C16.318 20.371 14.004 21 11.5 21C8.996 21 6.682 20.37 4.962 19.301C3.256 18.241 2 16.646 2 14.715C2 12.953 2.842 11.126 4.05 9.559C5.32427 7.9192 6.93465 6.57102 8.773 5.605ZM17 3C18.5913 3 20.1174 3.63214 21.2426 4.75736C22.3679 5.88258 23 7.4087 23 9C22.9997 9.25488 22.9021 9.50003 22.7272 9.68537C22.5522 9.8707 22.313 9.98224 22.0586 9.99717C21.8042 10.0121 21.5536 9.92933 21.3582 9.76574C21.1627 9.60215 21.0371 9.3701 21.007 9.117L21 9C21 7.93913 20.5786 6.92172 19.8284 6.17157C19.0783 5.42143 18.0609 5 17 5C16.7348 5 16.4804 4.89464 16.2929 4.70711C16.1054 4.51957 16 4.26522 16 4C16 3.73478 16.1054 3.48043 16.2929 3.29289C16.4804 3.10536 16.7348 3 17 3Z" fill="currentColor"/>
</svg>
