<svg width="24" height="24" viewBox="0 0 24 24" fill="none" xmlns="http://www.w3.org/2000/svg">
<path fill-rule="evenodd" clip-rule="evenodd" d="M16.696 2.37801C16.9147 2.17538 17.2019 2.06281 17.5 2.06281C17.7981 2.06281 18.0853 2.17538 18.304 2.37801C18.584 2.63601 19.234 3.27001 19.821 4.10201C20.39 4.91001 21 6.04201 21 7.27801C21 9.25201 19.512 11 17.5 11C15.489 11 14 9.25201 14 7.27801C14 6.04301 14.61 4.91001 15.18 4.10201C15.6257 3.47755 16.1337 2.89992 16.696 2.37801ZM4.708 5.36301C4.925 5.16653 5.20727 5.05773 5.5 5.05773C5.79273 5.05773 6.075 5.16653 6.292 5.36301C6.498 5.54901 6.9 5.93601 7.258 6.43601C7.6 6.91301 8 7.62701 8 8.44401C8 9.82101 6.915 11 5.5 11C4.085 11 3 9.82001 3 8.44401C3 7.62701 3.4 6.91301 3.742 6.43601C4.1 5.93601 4.502 5.54901 4.708 5.36301ZM10.211 9.36101C10.428 9.16703 10.7089 9.05981 11 9.05981C11.2911 9.05981 11.572 9.16703 11.789 9.36101C12.153 9.68501 13.179 10.639 14.121 11.921C15.044 13.175 16 14.894 16 16.722C16 19.572 13.824 22 11 22C8.176 22 6 19.573 6 16.722C6 14.894 6.956 13.175 7.879 11.921C8.56931 10.9923 9.35051 10.1347 10.211 9.36101Z" fill="currentColor"/>
</svg>
