<svg width="24" height="24" viewBox="0 0 24 24" fill="none" xmlns="http://www.w3.org/2000/svg">
<path fill-rule="evenodd" clip-rule="evenodd" d="M12 2C17.523 2 22 6.477 22 12C22 17.523 17.523 22 12 22C6.477 22 2 17.523 2 12C2 6.477 6.477 2 12 2ZM10.53 15.197L9.783 16.317C9.466 16.793 9.281 17.681 9.979 18.291C10.394 18.654 11.054 19.001 12 19.001C12.946 19.001 13.606 18.654 14.021 18.291C14.719 17.681 14.534 16.793 14.217 16.318L13.47 15.197C13.3086 14.9551 13.09 14.7567 12.8336 14.6195C12.5772 14.4823 12.2908 14.4105 12 14.4105C11.7092 14.4105 11.4228 14.4823 11.1664 14.6195C10.91 14.7567 10.6914 14.9551 10.53 15.197ZM16.792 11.226L15.495 11.59C15.215 11.6687 14.9588 11.8152 14.749 12.0167C14.5392 12.2181 14.3824 12.4682 14.2925 12.7448C14.2026 13.0214 14.1823 13.3159 14.2335 13.6022C14.2847 13.8885 14.4058 14.1577 14.586 14.386L15.421 15.443C15.775 15.891 16.563 16.343 17.359 15.867C17.832 15.584 18.366 15.064 18.659 14.164C18.951 13.264 18.825 12.529 18.608 12.022C18.244 11.169 17.341 11.071 16.792 11.226ZM7.208 11.226C6.658 11.071 5.756 11.169 5.392 12.022C5.175 12.529 5.049 13.263 5.342 14.164C5.634 15.064 6.167 15.584 6.642 15.867C7.39 16.314 8.132 15.941 8.512 15.522L8.579 15.443L9.414 14.386C9.58678 14.1673 9.70536 13.9108 9.76007 13.6375C9.81477 13.3642 9.80404 13.0818 9.72876 12.8134C9.65347 12.545 9.51577 12.2983 9.32689 12.0933C9.13802 11.8883 8.90333 11.7309 8.642 11.634L8.505 11.59L7.208 11.226ZM7.885 6.336C7.119 6.892 6.79 7.56 6.667 8.099C6.461 9.002 7.133 9.612 7.668 9.81L8.932 10.278C9.20473 10.3788 9.49812 10.4107 9.78614 10.3709C10.0742 10.3311 10.3479 10.2209 10.5831 10.05C10.8183 9.87905 11.0077 9.65273 11.1345 9.39108C11.2613 9.12942 11.3216 8.84052 11.31 8.55L11.256 7.203C11.233 6.633 10.861 5.805 9.938 5.723C9.388 5.673 8.65 5.78 7.885 6.336ZM16.115 6.336C15.35 5.78 14.612 5.673 14.063 5.722C13.193 5.8 12.813 6.538 12.752 7.1L12.744 7.203L12.69 8.55C12.679 8.82883 12.7341 9.1063 12.851 9.3597C12.9678 9.61311 13.143 9.83524 13.3622 10.0079C13.5814 10.1806 13.8384 10.2989 14.1121 10.3531C14.3858 10.4074 14.6685 10.396 14.937 10.32L15.068 10.278L16.332 9.81C16.867 9.612 17.539 9.002 17.333 8.098C17.211 7.56 16.881 6.892 16.115 6.336Z" fill="currentColor"/>
</svg>
