<svg width="24" height="24" viewBox="0 0 24 24" fill="none" xmlns="http://www.w3.org/2000/svg">
<path d="M2.63806 4.92899C2.93589 4.63125 3.30412 4.41356 3.70856 4.29615C4.113 4.17874 4.54055 4.16539 4.95152 4.25736C5.3625 4.34934 5.74358 4.54364 6.0594 4.82224C6.37522 5.10083 6.61554 5.4547 6.75806 5.85099C7.9847 5.36161 9.32472 5.22906 10.6235 5.46864C11.9222 5.70822 13.1268 6.31016 14.0981 7.20499L14.3051 7.40399L22.0831 15.182C22.4391 15.537 22.4661 16.113 22.1651 16.503L22.0831 16.596L19.9621 18.718C19.8122 18.8679 19.6186 18.9663 19.4092 18.999C19.1998 19.0317 18.9855 18.997 18.7971 18.9L18.6861 18.833L15.1021 16.352C14.0777 17.8369 12.5197 18.869 10.7529 19.233C8.98614 19.5971 7.14701 19.2651 5.61908 18.3062C4.09115 17.3473 2.99239 15.8355 2.55195 14.0862C2.1115 12.3369 2.36338 10.4851 3.25506 8.91699C2.90599 8.73611 2.60451 8.47546 2.37509 8.1562C2.14567 7.83694 1.99478 7.46807 1.93467 7.07955C1.87456 6.69102 1.90692 6.2938 2.02914 5.92014C2.15136 5.54647 2.35997 5.2069 2.63806 4.92899ZM11.8301 9.88599C11.505 9.56097 11.1192 9.30315 10.6945 9.12725C10.2699 8.95135 9.81471 8.86081 9.35506 8.86081C8.89541 8.86081 8.44026 8.95135 8.0156 9.12725C7.59093 9.30315 7.20508 9.56097 6.88006 9.88599C6.22365 10.5424 5.85488 11.4327 5.85488 12.361C5.85488 13.2893 6.22365 14.1796 6.88006 14.836C7.53647 15.4924 8.42675 15.8612 9.35506 15.8612C10.2834 15.8612 11.1736 15.4924 11.8301 14.836C12.4865 14.1796 12.8552 13.2893 12.8552 12.361C12.8552 11.4327 12.4865 10.5424 11.8301 9.88599ZM8.29506 11.3C8.43286 11.1544 8.59847 11.0378 8.78208 10.9573C8.96569 10.8768 9.16358 10.8339 9.36405 10.8311C9.56453 10.8284 9.76352 10.8659 9.94926 10.9414C10.135 11.0168 10.3037 11.1288 10.4455 11.2706C10.5872 11.4124 10.6991 11.5812 10.7745 11.767C10.8499 11.9527 10.8872 12.1517 10.8844 12.3522C10.8816 12.5527 10.8386 12.7506 10.758 12.9341C10.6773 13.1177 10.5607 13.2833 10.4151 13.421C10.1312 13.6893 9.75391 13.8364 9.36335 13.8309C8.97278 13.8253 8.59978 13.6677 8.32365 13.3914C8.04751 13.1152 7.89004 12.7421 7.8847 12.3515C7.87936 11.9609 8.02658 11.5837 8.29506 11.3ZM4.75906 6.34299C4.71293 6.29524 4.65776 6.25715 4.59676 6.23094C4.53576 6.20474 4.47015 6.19094 4.40376 6.19037C4.33737 6.18979 4.27153 6.20244 4.21008 6.22758C4.14863 6.25272 4.0928 6.28985 4.04586 6.33679C3.99891 6.38374 3.96179 6.43957 3.93665 6.50102C3.9115 6.56246 3.89885 6.6283 3.89943 6.69469C3.90001 6.76108 3.9138 6.82669 3.94001 6.88769C3.96621 6.9487 4.0043 7.00387 4.05206 7.04999C4.14636 7.14107 4.27266 7.19147 4.40376 7.19033C4.53485 7.18919 4.66026 7.13661 4.75296 7.0439C4.84567 6.9512 4.89825 6.82579 4.89939 6.69469C4.90053 6.56359 4.85013 6.43729 4.75906 6.34299Z" fill="currentColor"/>
</svg>
