<svg width="24" height="24" viewBox="0 0 24 24" fill="none" xmlns="http://www.w3.org/2000/svg">
<path d="M11.9999 16.5C12.3977 16.5 12.7792 16.658 13.0605 16.9393C13.3418 17.2207 13.4999 17.6022 13.4999 18C13.4999 18.3978 13.3418 18.7794 13.0605 19.0607C12.7792 19.342 12.3977 19.5 11.9999 19.5C11.602 19.5 11.2205 19.342 10.9392 19.0607C10.6579 18.7794 10.4999 18.3978 10.4999 18C10.4999 17.6022 10.6579 17.2207 10.9392 16.9393C11.2205 16.658 11.602 16.5 11.9999 16.5ZM11.9999 12.5C12.7221 12.4994 13.4374 12.6412 14.1048 12.9175C14.7721 13.1938 15.3784 13.599 15.8889 14.11C16.162 14.3816 16.3201 14.7479 16.3306 15.1329C16.341 15.518 16.2029 15.8923 15.945 16.1783C15.687 16.4643 15.3288 16.6401 14.9447 16.6693C14.5607 16.6985 14.1801 16.5788 13.8819 16.335L13.7678 16.232C13.5361 15.9993 13.2605 15.8149 12.957 15.6892C12.6536 15.5636 12.3283 15.4993 11.9999 15.5C11.3779 15.5 10.8109 15.725 10.3729 16.101L10.2329 16.232C9.95159 16.5134 9.57006 16.6715 9.1722 16.6716C8.77434 16.6717 8.39274 16.5138 8.11135 16.2325C7.82996 15.9512 7.67182 15.5697 7.67172 15.1719C7.67163 14.774 7.82959 14.3924 8.11085 14.111C8.62116 13.5997 9.22738 13.1943 9.89475 12.9178C10.5621 12.6414 11.2775 12.4994 11.9999 12.5ZM11.9999 8.50001C14.6229 8.50001 16.9998 9.56501 18.7168 11.283C18.8642 11.4203 18.9824 11.5859 19.0644 11.7699C19.1464 11.9539 19.1905 12.1526 19.194 12.354C19.1976 12.5554 19.1605 12.7554 19.0851 12.9422C19.0097 13.129 18.8974 13.2986 18.7549 13.4411C18.6125 13.5835 18.4428 13.6958 18.256 13.7713C18.0693 13.8467 17.8692 13.8837 17.6678 13.8802C17.4664 13.8766 17.2678 13.8326 17.0838 13.7506C16.8998 13.6686 16.7342 13.5504 16.5969 13.403C15.9939 12.7984 15.2774 12.3189 14.4884 11.9924C13.6995 11.6658 12.8537 11.4984 11.9999 11.5C11.1461 11.4987 10.3005 11.6662 9.5117 11.993C8.72293 12.3198 8.00657 12.7993 7.40385 13.404C7.12259 13.6854 6.74106 13.8435 6.3432 13.8436C5.94535 13.8437 5.56374 13.6858 5.28235 13.4045C5.00096 13.1232 4.84282 12.7417 4.84272 12.3439C4.84263 11.946 5.00059 11.5644 5.28185 11.283C6.1632 10.3996 7.21037 9.69898 8.36325 9.22139C9.51612 8.7438 10.752 8.49865 11.9999 8.50001ZM11.9999 4.50001C15.7269 4.50001 19.1048 6.01301 21.5458 8.45401C21.6851 8.59334 21.7956 8.75874 21.8709 8.94076C21.9463 9.12278 21.985 9.31786 21.985 9.51486C21.9849 9.71186 21.9461 9.90692 21.8707 10.0889C21.7952 10.2709 21.6847 10.4362 21.5453 10.5755C21.406 10.7148 21.2406 10.8252 21.0586 10.9006C20.8766 10.9759 20.6815 11.0147 20.4845 11.0146C20.2875 11.0146 20.0924 10.9757 19.9104 10.9003C19.7285 10.8249 19.5631 10.7143 19.4238 10.575C18.4501 9.59845 17.2929 8.82404 16.0189 8.29631C14.7448 7.76859 13.3789 7.49796 11.9999 7.50001C9.09985 7.50001 6.47685 8.67401 4.57485 10.575C4.43711 10.7207 4.27156 10.8373 4.08799 10.9179C3.90442 10.9985 3.70655 11.0415 3.50607 11.0444C3.3056 11.0472 3.10659 11.0098 2.92081 10.9344C2.73504 10.859 2.56626 10.7472 2.42445 10.6054C2.28265 10.4637 2.1707 10.295 2.09522 10.1092C2.01974 9.92347 1.98226 9.72448 1.985 9.52401C1.98774 9.32353 2.03065 9.12564 2.11118 8.94203C2.1917 8.75842 2.30822 8.59282 2.45385 8.45501C3.70612 7.19956 5.19409 6.20388 6.83228 5.52516C8.47048 4.84644 10.2266 4.49805 11.9999 4.50001Z" fill="currentColor"/>
</svg>
