<svg width="24" height="24" viewBox="0 0 24 24" fill="none" xmlns="http://www.w3.org/2000/svg">
<path d="M3.86785 2.86805C4.1304 2.60532 4.48109 2.44934 4.85204 2.43032C5.22298 2.41129 5.58779 2.53056 5.87585 2.76506L5.98985 2.86805L8.17185 5.05106C9.41479 4.68462 10.704 4.49905 11.9999 4.50006C15.7269 4.50006 19.1048 6.01306 21.5458 8.45406C21.6851 8.59339 21.7956 8.75879 21.8709 8.94081C21.9463 9.12283 21.985 9.31791 21.985 9.51491C21.9849 9.71191 21.9461 9.90697 21.8707 10.089C21.7952 10.2709 21.6847 10.4363 21.5453 10.5756C21.406 10.7148 21.2406 10.8253 21.0586 10.9006C20.8766 10.976 20.6815 11.0147 20.4845 11.0147C20.2875 11.0146 20.0924 10.9758 19.9104 10.9004C19.7285 10.8249 19.5631 10.7144 19.4238 10.5751C18.3466 9.49399 17.0459 8.66169 15.613 8.13653C14.18 7.61138 12.6495 7.40609 11.1288 7.53505L10.7009 7.57905L11.6288 8.50705C12.9381 8.45428 14.2441 8.67364 15.4643 9.15128C16.6845 9.62892 17.7923 10.3545 18.7178 11.2821C18.8572 11.4214 18.9677 11.5868 19.0431 11.7688C19.1185 11.9509 19.1573 12.146 19.1573 12.3431C19.1573 12.5401 19.1185 12.7352 19.0431 12.9173C18.9677 13.0993 18.8572 13.2647 18.7178 13.4041C18.5785 13.5434 18.4131 13.6539 18.2311 13.7293C18.049 13.8047 17.8539 13.8435 17.6568 13.8435C17.4598 13.8435 17.2647 13.8047 17.0826 13.7293C16.9006 13.6539 16.7352 13.5434 16.5959 13.4041C16.4683 13.2763 16.3355 13.1539 16.1979 13.0371L15.9879 12.8671L20.1318 17.0101C20.4071 17.2813 20.5671 17.6483 20.5784 18.0346C20.5897 18.4208 20.4515 18.7966 20.1926 19.0834C19.9337 19.3703 19.574 19.5462 19.1886 19.5745C18.8032 19.6027 18.4218 19.4811 18.1238 19.2351L18.0098 19.1321L3.86785 4.99005C3.72846 4.85075 3.61789 4.68535 3.54244 4.5033C3.467 4.32125 3.42817 4.12612 3.42817 3.92905C3.42817 3.73199 3.467 3.53686 3.54244 3.35481C3.61789 3.17276 3.72846 3.00736 3.86785 2.86805ZM11.9999 16.5001L12.1439 16.5071C12.5274 16.544 12.882 16.7272 13.1342 17.0186C13.3863 17.31 13.5166 17.6873 13.4981 18.0722C13.4796 18.4571 13.3137 18.8201 13.0347 19.086C12.7558 19.3518 12.3852 19.5001 11.9999 19.5001C11.6145 19.5001 11.2439 19.3518 10.965 19.086C10.686 18.8201 10.5201 18.4571 10.5016 18.0722C10.4831 17.6873 10.6134 17.31 10.8655 17.0186C11.1177 16.7272 11.4723 16.544 11.8559 16.5071L11.9999 16.5001ZM10.0339 12.8621L12.8029 15.6321C12.5442 15.5445 12.2729 15.4999 11.9999 15.5001C11.3779 15.5001 10.8109 15.7251 10.3729 16.1011L10.2329 16.2321C9.95159 16.5135 9.57006 16.6716 9.1722 16.6717C8.77434 16.6718 8.39274 16.5138 8.11135 16.2326C7.82996 15.9513 7.67182 15.5698 7.67172 15.1719C7.67163 14.7741 7.82959 14.3925 8.11085 14.1111C8.58765 13.6341 9.14793 13.2487 9.76385 12.9741L10.0339 12.8621ZM7.05685 9.88605L9.26985 12.0991C8.57605 12.4211 7.94441 12.8629 7.40385 13.4041C7.12259 13.6855 6.74106 13.8436 6.3432 13.8437C5.94535 13.8438 5.56374 13.6858 5.28235 13.4046C5.00096 13.1233 4.84282 12.7418 4.84272 12.3439C4.84263 11.9461 5.00059 11.5645 5.28185 11.2831C5.81606 10.7487 6.41191 10.2797 7.05685 9.88605ZM4.17185 7.00005L6.33185 9.16005C5.69585 9.56805 5.10685 10.0431 4.57485 10.5751C4.43711 10.7207 4.27156 10.8373 4.08799 10.918C3.90442 10.9986 3.70655 11.0416 3.50607 11.0444C3.3056 11.0472 3.10659 11.0099 2.92081 10.9345C2.73504 10.8591 2.56626 10.7472 2.42445 10.6055C2.28265 10.4637 2.1707 10.295 2.09522 10.1093C2.01974 9.92352 1.98226 9.72453 1.985 9.52405C1.98774 9.32358 2.03065 9.12569 2.11118 8.94208C2.1917 8.75847 2.30822 8.59286 2.45385 8.45505C2.98449 7.9225 3.5592 7.43577 4.17185 7.00005Z" fill="currentColor"/>
</svg>
