<svg width="24" height="24" viewBox="0 0 24 24" fill="none" xmlns="http://www.w3.org/2000/svg">
<path d="M21 13V20.434C21 20.6354 20.9594 20.8348 20.8807 21.0202C20.8019 21.2056 20.6867 21.3733 20.5417 21.5132C20.3968 21.6531 20.2252 21.7623 20.0371 21.8345C19.849 21.9066 19.6483 21.9401 19.447 21.933L19.314 21.922L12 21.008V13H21ZM10 13V20.758L4.752 20.102C4.26821 20.0415 3.82316 19.8064 3.50052 19.4409C3.17789 19.0753 2.99989 18.6045 3 18.117V13H10ZM19.314 2.07798C19.5139 2.05301 19.7167 2.06855 19.9105 2.12368C20.1042 2.1788 20.2849 2.27239 20.4416 2.39884C20.5984 2.5253 20.7281 2.68204 20.823 2.85971C20.9179 3.03738 20.9761 3.23235 20.994 3.43298L21 3.56598V11H12V2.99198L19.314 2.07798ZM10 3.24198V11H3V5.88298C2.99989 5.39542 3.17789 4.92461 3.50052 4.55907C3.82316 4.19353 4.26821 3.95843 4.752 3.89798L10 3.24198Z" fill="currentColor"/>
</svg>
