<svg width="24" height="24" viewBox="0 0 24 24" fill="none" xmlns="http://www.w3.org/2000/svg">
<path fill-rule="evenodd" clip-rule="evenodd" d="M12.58 2C13.0549 2.00006 13.5143 2.16911 13.876 2.47692C14.2377 2.78473 14.478 3.21119 14.554 3.68L14.573 3.834L14.956 8.436L16.664 9.574C17.047 9.82919 17.3662 10.1691 17.5969 10.5674C17.8275 10.9657 17.9634 11.4118 17.994 11.871L18 12.071V19C18 19.7652 17.7077 20.5015 17.1827 21.0583C16.6578 21.615 15.9399 21.9501 15.176 21.995L15 22H9C8.23479 22 7.49849 21.7077 6.94174 21.1827C6.38499 20.6578 6.04989 19.9399 6.005 19.176L6 19V12.07C5.99992 11.6099 6.10568 11.156 6.30907 10.7433C6.51247 10.3306 6.80807 9.9702 7.173 9.69L7.336 9.574L9.044 8.436L9.427 3.834C9.46642 3.36068 9.67299 2.91684 10.0098 2.58191C10.3465 2.24698 10.7915 2.04283 11.265 2.006L11.42 2H12.58ZM16 14H12C11.7348 14 11.4804 14.1054 11.2929 14.2929C11.1054 14.4804 11 14.7348 11 15C11 15.2652 11.1054 15.5196 11.2929 15.7071C11.4804 15.8946 11.7348 16 12 16H16C16.2652 16 16.5196 15.8946 16.7071 15.7071C16.8946 15.5196 17 15.2652 17 15C17 14.7348 16.8946 14.4804 16.7071 14.2929C16.5196 14.1054 16.2652 14 16 14Z" fill="currentColor"/>
</svg>
