<svg width="24" height="24" viewBox="0 0 24 24" fill="none" xmlns="http://www.w3.org/2000/svg">
<path d="M12.2318 15.002L12.6768 16.661C12.9479 16.798 13.1711 17.0141 13.3167 17.2807C13.4623 17.5473 13.5236 17.8518 13.4924 18.154C13.4612 18.4561 13.3389 18.7417 13.1419 18.9729C12.9448 19.2041 12.6822 19.3699 12.3888 19.4486C12.0954 19.5273 11.785 19.515 11.4987 19.4134C11.2124 19.3118 10.9637 19.1257 10.7855 18.8797C10.6073 18.6337 10.508 18.3394 10.5008 18.0357C10.4935 17.732 10.5786 17.4333 10.7448 17.179L10.1888 15.103C10.6418 15.053 11.0958 15.02 11.5488 15.007L11.9998 15C12.0768 15 12.1548 15 12.2318 15.002ZM11.9998 4C14.4798 4 16.4158 4.282 17.8838 4.647L18.3828 4.779C18.5428 4.824 18.6958 4.869 18.8428 4.916L19.2658 5.056L19.6978 5.21L19.8908 5.283L20.2328 5.419L20.5228 5.543L20.6498 5.601L20.8708 5.709L21.0528 5.806L21.1298 5.851L21.2618 5.934L21.4518 6.073L21.6248 6.219C21.7894 6.35081 21.9081 6.53126 21.9639 6.73456C22.0198 6.93786 22.0099 7.15362 21.9358 7.351L18.9358 15.351C18.8426 15.5923 18.6604 15.7886 18.4267 15.8995C18.193 16.0104 17.9257 16.0274 17.6798 15.947C15.9388 15.382 14.0648 15.029 12.2318 15.002L10.6368 9.048C10.5673 8.7929 10.3995 8.57572 10.1703 8.44398C9.94104 8.31223 9.66894 8.27664 9.41352 8.34499C9.1581 8.41334 8.94015 8.58007 8.80733 8.8087C8.67452 9.03734 8.63766 9.30926 8.70482 9.565L10.1878 15.103C9.06782 15.228 7.94982 15.461 6.87482 15.776L6.31582 15.949C6.07031 16.0307 5.80271 16.014 5.56924 15.9025C5.33577 15.7909 5.15461 15.5933 5.06382 15.351L2.06382 7.351C1.98971 7.15362 1.97988 6.93786 2.03573 6.73456C2.09158 6.53126 2.21027 6.35081 2.37482 6.219C3.05182 5.678 3.92782 5.336 4.73382 5.056C5.00382 4.962 5.29782 4.869 5.61682 4.779L6.11682 4.647C7.58282 4.282 9.51982 4 11.9998 4Z" fill="currentColor"/>
</svg>
