<svg width="24" height="24" viewBox="0 0 24 24" fill="none" xmlns="http://www.w3.org/2000/svg">
<path fill-rule="evenodd" clip-rule="evenodd" d="M14.426 2.76001L14.594 2.89701C14.924 3.17701 15.297 3.35001 15.714 3.41401L15.895 3.43601C16.8082 3.50888 17.6688 3.89305 18.3328 4.52429C18.9968 5.15553 19.424 5.99559 19.543 6.90401L19.564 7.10401C19.599 7.53601 19.741 7.92201 19.99 8.26201L20.103 8.40501C20.72 9.12884 21.059 10.0489 21.059 11C21.059 11.9512 20.72 12.8712 20.103 13.595C19.823 13.923 19.65 14.297 19.585 14.714L19.565 14.894C19.4923 15.8076 19.1081 16.6685 18.4766 17.3328C17.8451 17.997 17.0047 18.4242 16.096 18.543L15.896 18.564C15.4358 18.5911 14.9966 18.7653 14.643 19.061L14.513 19.171C14.557 19.446 14.705 19.641 14.89 19.794C15 19.886 15.12 19.955 15.207 20L15.327 20.055C15.5757 20.141 15.7806 20.3217 15.897 20.5577C16.0135 20.7938 16.0321 21.0663 15.949 21.316C15.8628 21.5664 15.6817 21.773 15.4448 21.8912C15.2078 22.0094 14.9339 22.0298 14.682 21.948C14.29 21.8095 13.9267 21.6003 13.61 21.331C13.1823 20.9807 12.8569 20.5216 12.668 20.002C12.2258 20.0766 11.7742 20.0766 11.332 20.002C11.1431 20.5216 10.8177 20.9807 10.39 21.331C10.063 21.603 9.70397 21.784 9.31597 21.949C9.0746 22.03 8.8114 22.0159 8.58006 21.9096C8.34871 21.8033 8.16665 21.6127 8.07099 21.3767C7.97533 21.1407 7.97328 20.8772 8.06525 20.6398C8.15723 20.4023 8.33631 20.2089 8.56597 20.099L8.73597 20.028C8.81897 19.988 8.97197 19.908 9.10997 19.794C9.29497 19.64 9.44397 19.446 9.48697 19.17L9.35697 19.061C9.04999 18.8018 8.67523 18.636 8.27697 18.583L8.10497 18.564C7.1917 18.4911 6.33112 18.107 5.66712 17.4757C5.00311 16.8445 4.57592 16.0044 4.45697 15.096L4.43597 14.895C4.40585 14.4769 4.25817 14.0758 4.00997 13.738L3.89697 13.594C3.28018 12.8703 2.94141 11.9504 2.94141 10.9995C2.94141 10.0486 3.28018 9.12876 3.89697 8.40501C4.17697 8.07601 4.34997 7.70301 4.41497 7.28601L4.43497 7.10501C4.50788 6.19159 4.8922 5.33089 5.52364 4.66687C6.15509 4.00284 6.99537 3.57575 7.90397 3.45701L8.10497 3.43601C8.52307 3.40583 8.92414 3.25816 9.26197 3.01001L9.40597 2.89701C10.1014 2.30445 10.9787 1.9678 11.892 1.94306C12.8053 1.91831 13.6995 2.20597 14.426 2.76001ZM16.243 13.828C16.0634 13.6468 15.8214 13.541 15.5664 13.5323C15.3114 13.5237 15.0628 13.6128 14.8714 13.7815C14.68 13.9501 14.5603 14.1856 14.5368 14.4396C14.5133 14.6937 14.5878 14.9471 14.745 15.148L14.829 15.243L15.793 16.207C15.9729 16.3864 16.2144 16.4905 16.4684 16.4982C16.7223 16.506 16.9697 16.4168 17.1603 16.2488C17.3508 16.0807 17.4703 15.8465 17.4944 15.5935C17.5185 15.3406 17.4454 15.088 17.29 14.887L17.207 14.793L16.243 13.828ZM9.17197 13.828C8.99978 13.6558 8.77068 13.5524 8.52766 13.5371C8.28463 13.5218 8.04438 13.5958 7.85197 13.745L7.75697 13.828L6.79297 14.793C6.61363 14.973 6.5095 15.2144 6.50175 15.4684C6.49399 15.7223 6.58319 15.9697 6.75122 16.1603C6.91926 16.3509 7.15353 16.4703 7.40645 16.4944C7.65937 16.5185 7.91198 16.4454 8.11297 16.29L8.20697 16.207L9.17197 15.242C9.35944 15.0545 9.46476 14.8002 9.46476 14.535C9.46476 14.2698 9.35944 14.0155 9.17197 13.828ZM13.002 7.84301L12.887 7.75601C12.6581 7.561 12.3715 7.44681 12.0712 7.43108C11.771 7.41536 11.4739 7.49897 11.226 7.66901L11.113 7.75601C10.93 7.91201 10.71 8.01601 10.476 8.06001L10.334 8.07901C9.70897 8.12901 9.20397 8.59501 9.09597 9.20201L9.07897 9.33401C9.05897 9.57301 8.97897 9.80201 8.84397 9.99901L8.75597 10.112C8.56088 10.341 8.44672 10.628 8.43117 10.9284C8.41563 11.2289 8.49956 11.5261 8.66997 11.774L8.75597 11.887C8.91197 12.07 9.01597 12.29 9.05997 12.524L9.07897 12.666C9.12897 13.291 9.59497 13.796 10.202 13.904L10.334 13.921C10.574 13.941 10.802 14.021 10.999 14.156L11.113 14.244C11.3419 14.4389 11.6287 14.5529 11.9289 14.5684C12.2291 14.584 12.5261 14.5002 12.774 14.33L12.888 14.244C13.07 14.088 13.29 13.984 13.524 13.94L13.666 13.921C13.9674 13.897 14.2524 13.7738 14.4764 13.5706C14.7004 13.3674 14.8508 13.0957 14.904 12.798L14.921 12.666C14.941 12.426 15.021 12.198 15.157 12.001L15.244 11.887C15.4392 11.6581 15.5536 11.3712 15.5693 11.0708C15.585 10.7703 15.5013 10.4731 15.331 10.225L15.244 10.112C15.0888 9.93021 14.984 9.71092 14.94 9.47601L14.921 9.33401C14.897 9.03255 14.7737 8.74755 14.5705 8.52355C14.3674 8.29956 14.0957 8.14921 13.798 8.09601L13.666 8.07901C13.427 8.05901 13.199 7.97901 13.002 7.84301ZM15.793 5.79301L14.829 6.75701C14.7335 6.84926 14.6573 6.9596 14.6049 7.0816C14.5525 7.20361 14.5249 7.33483 14.5237 7.46761C14.5226 7.60039 14.5479 7.73207 14.5982 7.85496C14.6484 7.97786 14.7227 8.08951 14.8166 8.1834C14.9105 8.2773 15.0221 8.35155 15.145 8.40183C15.2679 8.45211 15.3996 8.47741 15.5324 8.47626C15.6652 8.47511 15.7964 8.44752 15.9184 8.39511C16.0404 8.3427 16.1507 8.26652 16.243 8.17101L17.207 7.20701C17.3891 7.01841 17.4899 6.7658 17.4876 6.50361C17.4854 6.24141 17.3802 5.9906 17.1948 5.80519C17.0094 5.61978 16.7586 5.51461 16.4964 5.51233C16.2342 5.51006 15.9816 5.61085 15.793 5.79301ZM8.20697 5.79301C8.02702 5.61366 7.78554 5.50954 7.53159 5.50178C7.27764 5.49403 7.03026 5.58322 6.83969 5.75126C6.64913 5.91929 6.52967 6.15356 6.50557 6.40648C6.48148 6.65941 6.55456 6.91202 6.70997 7.11301L6.79297 7.20701L7.75697 8.17101C7.93652 8.35226 8.17854 8.45804 8.43352 8.46669C8.6885 8.47534 8.93714 8.38621 9.12855 8.21754C9.31997 8.04887 9.43968 7.81342 9.46318 7.55938C9.48668 7.30535 9.4122 7.05193 9.25497 6.85101L9.17197 6.75701L8.20697 5.79301Z" fill="currentColor"/>
</svg>
