<svg width="24" height="24" viewBox="0 0 24 24" fill="none" xmlns="http://www.w3.org/2000/svg">
<path fill-rule="evenodd" clip-rule="evenodd" d="M12 2V8.5C12 8.87288 12.1389 9.23239 12.3896 9.50842C12.6403 9.78445 12.9848 9.9572 13.356 9.993L13.5 10H20V20C20.0002 20.5046 19.8096 20.9906 19.4665 21.3605C19.1234 21.7305 18.6532 21.9572 18.15 21.995L18 22H6C5.49542 22.0002 5.00943 21.8096 4.63945 21.4665C4.26947 21.1234 4.04284 20.6532 4.005 20.15L4 20V4C3.99984 3.49542 4.19041 3.00943 4.5335 2.63945C4.87659 2.26947 5.34684 2.04284 5.85 2.005L6 2H12ZM10.94 12.525C10.7605 12.3437 10.5184 12.238 10.2635 12.2293C10.0085 12.2207 9.75983 12.3098 9.56842 12.4785C9.37701 12.6471 9.2573 12.8826 9.2338 13.1366C9.21029 13.3907 9.28478 13.6441 9.442 13.845L9.525 13.939L10.585 15L9.525 16.06C9.34375 16.2395 9.23797 16.4816 9.22932 16.7365C9.22067 16.9915 9.3098 17.2402 9.47847 17.4316C9.64713 17.623 9.88259 17.7427 10.1366 17.7662C10.3907 17.7897 10.6441 17.7152 10.845 17.558L10.939 17.475L12 16.415L13.06 17.475C13.2395 17.6563 13.4816 17.762 13.7365 17.7707C13.9915 17.7793 14.2402 17.6902 14.4316 17.5215C14.623 17.3529 14.7427 17.1174 14.7662 16.8634C14.7897 16.6093 14.7152 16.3559 14.558 16.155L14.475 16.061L13.415 15.001L14.475 13.939C14.6543 13.759 14.7585 13.5176 14.7662 13.2636C14.774 13.0097 14.6848 12.7623 14.5168 12.5717C14.3487 12.3812 14.1144 12.2617 13.8615 12.2376C13.6086 12.2135 13.356 12.2866 13.155 12.442L13.061 12.525L12 13.585L10.94 12.525ZM14 2.043C14.3234 2.11165 14.6247 2.25939 14.877 2.473L15 2.586L19.414 7C19.6483 7.23411 19.8208 7.52275 19.916 7.84L19.956 8H14V2.043Z" fill="currentColor"/>
</svg>
