<svg width="24" height="24" viewBox="0 0 24 24" fill="none" xmlns="http://www.w3.org/2000/svg">
<path d="M6.06006 3.94C5.92274 3.79263 5.75714 3.67442 5.57314 3.59244C5.38914 3.51046 5.19051 3.46637 4.98911 3.46282C4.7877 3.45927 4.58764 3.49631 4.40087 3.57176C4.21409 3.6472 4.04442 3.75949 3.90199 3.90193C3.75955 4.04436 3.64726 4.21403 3.57182 4.40081C3.49638 4.58758 3.45933 4.78764 3.46288 4.98905C3.46643 5.19045 3.51052 5.38908 3.5925 5.57308C3.67448 5.75708 3.79269 5.92268 3.94006 6.06L8.11006 10.232C8.62082 10.743 9.22725 11.1484 9.89471 11.4249C10.5622 11.7015 11.2776 11.8438 12.0001 11.8438C12.7226 11.8438 13.438 11.7015 14.1054 11.4249C14.7729 11.1484 15.3793 10.743 15.8901 10.232L20.0601 6.061C20.3334 5.77823 20.4848 5.3994 20.4816 5.0061C20.4783 4.6128 20.3208 4.2365 20.0428 3.95826C19.7648 3.68001 19.3887 3.52208 18.9954 3.51848C18.6021 3.51488 18.2231 3.6659 17.9401 3.939L13.7681 8.111C13.5359 8.34322 13.2603 8.52743 12.9569 8.6531C12.6536 8.77878 12.3284 8.84347 12.0001 8.84347C11.6717 8.84347 11.3466 8.77878 11.0432 8.6531C10.7398 8.52743 10.4642 8.34322 10.2321 8.111L6.06106 3.939L6.06006 3.94ZM6.06006 20.06C5.77571 20.325 5.39962 20.4692 5.01102 20.4624C4.62242 20.4555 4.25165 20.2981 3.97682 20.0232C3.70199 19.7484 3.54457 19.3776 3.53771 18.989C3.53086 18.6004 3.6751 18.2244 3.94006 17.94L8.11006 13.768C8.62082 13.257 9.22725 12.8516 9.89471 12.5751C10.5622 12.2985 11.2776 12.1562 12.0001 12.1562C12.7226 12.1562 13.438 12.2985 14.1054 12.5751C14.7729 12.8516 15.3793 13.257 15.8901 13.768L20.0601 17.939C20.3334 18.2218 20.4848 18.6006 20.4816 18.9939C20.4783 19.3872 20.3208 19.7635 20.0428 20.0417C19.7648 20.32 19.3887 20.4779 18.9954 20.4815C18.6021 20.4851 18.2231 20.3341 17.9401 20.061L13.7681 15.889C13.5359 15.6568 13.2603 15.4726 12.9569 15.3469C12.6536 15.2212 12.3284 15.1565 12.0001 15.1565C11.6717 15.1565 11.3466 15.2212 11.0432 15.3469C10.7398 15.4726 10.4642 15.6568 10.2321 15.889L6.06106 20.061L6.06006 20.06Z" fill="currentColor"/>
</svg>
