<svg width="24" height="24" viewBox="0 0 24 24" fill="none" xmlns="http://www.w3.org/2000/svg">
<path fill-rule="evenodd" clip-rule="evenodd" d="M5.83104 5.45C5.95054 5.03221 6.20286 4.66471 6.54982 4.40309C6.89678 4.14148 7.3195 3.99998 7.75404 4H16.246C16.6806 3.99998 17.1033 4.14148 17.4503 4.40309C17.7972 4.66471 18.0495 5.03221 18.169 5.45L21.779 18.088C21.8428 18.3112 21.8539 18.5462 21.8114 18.7744C21.769 19.0026 21.6741 19.2179 21.5343 19.4032C21.3945 19.5885 21.2137 19.7389 21.0059 19.8425C20.7981 19.946 20.5692 20 20.337 20H3.66304C3.43082 20.0001 3.20175 19.9463 2.99386 19.8428C2.78597 19.7393 2.60496 19.589 2.46506 19.4036C2.32517 19.2182 2.23023 19.0029 2.18771 18.7746C2.14519 18.5463 2.15626 18.3113 2.22004 18.088L5.83104 5.45Z" fill="currentColor"/>
</svg>
