<svg width="24" height="24" viewBox="0 0 24 24" fill="none" xmlns="http://www.w3.org/2000/svg">
<path d="M12 2C17.523 2 22 6.477 22 12C22 17.523 17.523 22 12 22C6.477 22 2 17.523 2 12C2 6.477 6.477 2 12 2ZM8.441 4.833C6.98546 5.55627 5.78464 6.70557 4.99828 8.12802C4.21193 9.55047 3.87732 11.1786 4.03897 12.7959C4.20062 14.4132 4.85087 15.9429 5.90321 17.1816C6.95555 18.4202 8.3601 19.3091 9.93 19.73V19.728C10.8095 19.9608 11.7451 19.8421 12.5385 19.3969C13.3319 18.9516 13.9207 18.215 14.1803 17.343C14.4398 16.471 14.3496 15.5323 13.9288 14.7257C13.508 13.9191 12.7897 13.308 11.926 13.022L11.742 12.967C10.9203 12.7471 10.1608 12.3396 9.52325 11.7765C8.88568 11.2134 8.3874 10.5101 8.06758 9.72192C7.74776 8.93371 7.61512 8.08207 7.68009 7.23394C7.74506 6.3858 8.00586 5.5643 8.442 4.834L8.441 4.833ZM10.741 14.768C10.9313 14.819 11.1097 14.907 11.2659 15.027C11.4222 15.1469 11.5533 15.2965 11.6518 15.4671C11.7503 15.6377 11.8142 15.8261 11.8399 16.0214C11.8656 16.2167 11.8525 16.4152 11.8015 16.6055C11.7505 16.7958 11.6625 16.9742 11.5425 17.1304C11.4226 17.2867 11.273 17.4178 11.1024 17.5163C10.9318 17.6148 10.7434 17.6787 10.5481 17.7044C10.3528 17.7301 10.1543 17.717 9.964 17.666C9.5797 17.563 9.25207 17.3115 9.05319 16.9669C8.85431 16.6223 8.80046 16.2128 8.9035 15.8285C9.00654 15.4442 9.25802 15.1166 9.60261 14.9177C9.94721 14.7188 10.3567 14.665 10.741 14.768ZM12.199 7.395C12.0961 7.7793 12.1501 8.18874 12.349 8.53324C12.548 8.87774 12.8757 9.1291 13.26 9.232C13.4503 9.28295 13.6487 9.29593 13.844 9.27018C14.0393 9.24444 14.2277 9.18048 14.3982 9.08195C14.7427 8.88298 14.9941 8.5553 15.097 8.171C15.148 7.98071 15.1609 7.78226 15.1352 7.58696C15.1094 7.39166 15.0455 7.20334 14.947 7.03276C14.8484 6.86218 14.7173 6.71267 14.561 6.59278C14.4047 6.47289 14.2263 6.38495 14.036 6.334C13.8457 6.28305 13.6473 6.27007 13.452 6.29582C13.2567 6.32156 13.0683 6.38552 12.8978 6.48405C12.5533 6.68302 12.3019 7.0107 12.199 7.395Z" fill="currentColor"/>
</svg>
