<svg width="24" height="24" viewBox="0 0 24 24" fill="none" xmlns="http://www.w3.org/2000/svg">
<path fill-rule="evenodd" clip-rule="evenodd" d="M12 5C12.9413 4.99973 13.8636 5.26518 14.6607 5.76583C15.4579 6.26647 16.0975 6.98196 16.506 7.83C17.004 7.458 17.553 7.077 18.106 6.862C18.5006 6.70024 18.9284 6.63609 19.353 6.675C19.819 6.725 20.244 6.915 20.624 7.219C21.498 7.919 21.753 9.153 21.718 10.269C21.682 11.449 21.322 12.802 20.628 14.078C19.226 16.66 16.41 19 12 19C7.59002 19 4.77502 16.66 3.37102 14.078C2.67802 12.802 2.31802 11.45 2.28102 10.268C2.24702 9.153 2.50102 7.918 3.37502 7.219C3.75502 6.915 4.18102 6.726 4.64702 6.675C5.10302 6.626 5.52402 6.719 5.89302 6.862C6.44602 7.076 6.99502 7.458 7.49302 7.831C7.90148 6.98262 8.5412 6.26682 9.33854 5.76598C10.1359 5.26515 11.0584 4.99963 12 5ZM12 7C11.3723 6.99999 10.7604 7.19681 10.2504 7.56276C9.74043 7.9287 9.35803 8.44535 9.15702 9.04C10.022 9.597 10.929 10 12 10C13.07 10 13.978 9.597 14.843 9.04C14.642 8.44535 14.2596 7.9287 13.7496 7.56276C13.2396 7.19681 12.6277 6.99999 12 7Z" fill="currentColor"/>
</svg>
