<svg width="24" height="24" viewBox="0 0 24 24" fill="none" xmlns="http://www.w3.org/2000/svg">
<path d="M8.00022 12C8.42629 12 8.84327 12.1232 9.20095 12.3548C9.55862 12.5863 9.84174 12.9163 10.0162 13.305L10.0812 13.466L12.4132 19.996C12.5417 20.3586 12.526 20.7568 12.3692 21.1081C12.2125 21.4594 11.9268 21.7371 11.5711 21.8838C11.2154 22.0304 10.817 22.0348 10.4582 21.896C10.0994 21.7572 9.80762 21.4858 9.64322 21.138L9.58722 21.004L9.40722 20.5H6.59322L6.41322 21.005C6.28531 21.3701 6.02127 21.6717 5.67623 21.8468C5.3312 22.0218 4.93188 22.0568 4.56168 21.9444C4.19147 21.8319 3.87903 21.5808 3.68962 21.2435C3.5002 20.9061 3.44847 20.5086 3.54522 20.134L3.58722 19.995L5.91922 13.466C6.07263 13.0369 6.35493 12.6657 6.72746 12.4033C7.09999 12.1409 7.54453 12 8.00022 12ZM17.0002 3C17.398 3 17.7796 3.15804 18.0609 3.43934C18.3422 3.72064 18.5002 4.10218 18.5002 4.5V16.207L18.7682 15.939C18.9076 15.7997 19.073 15.6893 19.255 15.6139C19.437 15.5386 19.6321 15.4998 19.8291 15.4999C20.0261 15.4999 20.2211 15.5388 20.4031 15.6142C20.5851 15.6896 20.7505 15.8002 20.8897 15.9395C21.029 16.0788 21.1394 16.2442 21.2148 16.4263C21.2901 16.6083 21.3289 16.8034 21.3288 17.0004C21.3288 17.1974 21.29 17.3924 21.2145 17.5744C21.1391 17.7564 21.0286 17.9217 20.8892 18.061L18.0612 20.889C17.9219 21.0284 17.7565 21.139 17.5745 21.2144C17.3924 21.2898 17.1973 21.3287 17.0002 21.3287C16.8032 21.3287 16.608 21.2898 16.426 21.2144C16.2439 21.139 16.0785 21.0284 15.9392 20.889L13.1112 18.061C12.8298 17.7797 12.6717 17.3982 12.6716 17.0004C12.6715 16.6025 12.8295 16.2209 13.1107 15.9395C13.392 15.6581 13.7735 15.5 14.1714 15.4999C14.5692 15.4998 14.9508 15.6577 15.2322 15.939L15.5002 16.207V4.5C15.5002 4.10218 15.6583 3.72064 15.9396 3.43934C16.2209 3.15804 16.6024 3 17.0002 3ZM8.00022 16.56L7.66422 17.5H8.33622L8.00022 16.56ZM10.7582 2C12.1362 2 12.8492 3.61 11.9852 4.628L11.8902 4.731L8.62022 8H11.0002C11.3854 8.00019 11.7558 8.14858 12.0346 8.41441C12.3134 8.68024 12.4792 9.04314 12.4977 9.42791C12.5163 9.81269 12.386 10.1898 12.134 10.4812C11.8821 10.7726 11.5276 10.9558 11.1442 10.993L11.0002 11H5.24022C3.86222 11 3.15022 9.39 4.01422 8.372L4.10922 8.269L7.37922 5H4.99922C4.614 4.99981 4.24363 4.85142 3.96483 4.58559C3.68604 4.31976 3.52021 3.95686 3.5017 3.57209C3.48318 3.18731 3.61341 2.81017 3.8654 2.5188C4.11738 2.22743 4.4718 2.04417 4.85522 2.007L5.00022 2H10.7582Z" fill="currentColor"/>
</svg>
