<svg width="24" height="24" viewBox="0 0 24 24" fill="none" xmlns="http://www.w3.org/2000/svg">
<path fill-rule="evenodd" clip-rule="evenodd" d="M2 10.5C2.00012 9.1446 2.32436 7.80887 2.94569 6.60427C3.56702 5.39966 4.46742 4.3611 5.57175 3.57525C6.67609 2.78939 7.95235 2.27902 9.29404 2.08672C10.6357 1.89442 12.004 2.02576 13.2846 2.46979C14.5652 2.91382 15.7211 3.65766 16.6557 4.63925C17.5904 5.62084 18.2768 6.81171 18.6576 8.11252C19.0384 9.41333 19.1026 10.7864 18.8449 12.117C18.5872 13.4477 18.015 14.6975 17.176 15.762L20.828 19.414C21.0102 19.6026 21.111 19.8552 21.1087 20.1174C21.1064 20.3796 21.0012 20.6304 20.8158 20.8158C20.6304 21.0012 20.3796 21.1064 20.1174 21.1087C19.8552 21.111 19.6026 21.0102 19.414 20.828L15.762 17.176C14.5086 18.164 13.0024 18.7792 11.4157 18.9511C9.82905 19.123 8.22602 18.8448 6.79009 18.1482C5.35417 17.4517 4.14336 16.3649 3.29623 15.0123C2.44911 13.6597 1.99989 12.096 2 10.5ZM7 9.50001C6.73478 9.50001 6.48043 9.60537 6.29289 9.7929C6.10536 9.98044 6 10.2348 6 10.5C6 10.7652 6.10536 11.0196 6.29289 11.2071C6.48043 11.3947 6.73478 11.5 7 11.5H14C14.2652 11.5 14.5196 11.3947 14.7071 11.2071C14.8946 11.0196 15 10.7652 15 10.5C15 10.2348 14.8946 9.98044 14.7071 9.7929C14.5196 9.60537 14.2652 9.50001 14 9.50001H7Z" fill="currentColor"/>
</svg>
