<svg width="16" height="16" viewBox="0 0 16 16" fill="none" xmlns="http://www.w3.org/2000/svg">
<path fill-rule="evenodd" clip-rule="evenodd" d="M2.5 11.25L2.50004 6.67228L3.93627 10.0614C4.11316 10.4789 4.52255 10.75 4.9759 10.75C5.42593 10.75 5.83298 10.4828 6.01193 10.0699L7.5252 6.57799V11.25C7.5252 11.6642 7.86099 12 8.2752 12C8.68941 12 9.0252 11.6642 9.0252 11.25V5.21798C9.0252 4.54531 8.4799 4 7.80722 4C7.32179 4 6.88271 4.28826 6.68968 4.73366L4.97972 8.67937L3.30714 4.73248C3.11897 4.28844 2.68347 4 2.2012 4C1.53783 4 1.00006 4.53776 1.00006 5.20113L1 11.25C0.999996 11.6642 1.33578 12 1.74999 12C2.16421 12 2.5 11.6642 2.5 11.25ZM12 4.75C12 4.33579 11.6642 4 11.25 4C10.8358 4 10.5 4.33579 10.5 4.75V11.25C10.5 11.6642 10.8358 12 11.25 12H14.75C15.1642 12 15.5 11.6642 15.5 11.25C15.5 10.8358 15.1642 10.5 14.75 10.5H12V4.75Z" fill="#18181B"/>
</svg>
