<svg width="16" height="16" viewBox="0 0 16 16" fill="none" xmlns="http://www.w3.org/2000/svg">
<path fill-rule="evenodd" clip-rule="evenodd" d="M10.75 4C11.1642 4 11.5 4.33579 11.5 4.75V10.5H14.25C14.6642 10.5 15 10.8358 15 11.25C15 11.6642 14.6642 12 14.25 12H10.75C10.3358 12 10 11.6642 10 11.25V4.75C10 4.33579 10.3358 4 10.75 4ZM7.5401 10.9973C8.15099 10.3306 8.5 9.33157 8.5 8.00012C8.5 5.33346 7.1 4.00012 5 4.00012C2.9 4.00012 1.5 5.33346 1.5 8.00012C1.5 10.6668 2.9 12.0001 5 12.0001C5.44766 12.0001 5.86351 11.9395 6.24077 11.8184L7.69608 13.2793C7.98841 13.5728 8.46328 13.5737 8.75674 13.2814C9.0502 12.989 9.05112 12.5142 8.7588 12.2207L7.5401 10.9973ZM7 8.00012C7 9.08264 6.71756 9.67546 6.43292 9.98529C6.16274 10.2794 5.72475 10.5001 5 10.5001C4.27525 10.5001 3.83726 10.2794 3.56708 9.98529C3.28244 9.67546 3 9.08264 3 8.00012C3 6.9176 3.28244 6.32478 3.56708 6.01496C3.83726 5.72089 4.27525 5.50012 5 5.50012C5.72475 5.50012 6.16274 5.72089 6.43292 6.01496C6.71756 6.32478 7 6.9176 7 8.00012Z" fill="#18181B"/>
</svg>
