<svg width="16" height="16" viewBox="0 0 16 16" fill="none" xmlns="http://www.w3.org/2000/svg">
<path fill-rule="evenodd" clip-rule="evenodd" d="M5.55971 4.40298C5.8292 4.71738 5.78306 5.18697 5.54478 5.52563C5.20154 6.01345 5 6.60818 5 7.24998C5 7.89178 5.20154 8.48651 5.54478 8.97433C5.78306 9.31299 5.8292 9.78258 5.55971 10.097C5.29005 10.4116 4.81054 10.4512 4.54489 10.1332C3.89257 9.35239 3.5 8.34703 3.5 7.24998C3.5 6.15293 3.89257 5.14757 4.54489 4.36672C4.81054 4.04872 5.29005 4.08838 5.55971 4.40298ZM10.4403 4.40298C10.1708 4.71738 10.2169 5.18697 10.4552 5.52563C10.7985 6.01345 11 6.60818 11 7.24998C11 7.89178 10.7985 8.48651 10.4552 8.97433C10.2169 9.31299 10.1708 9.78258 10.4403 10.097C10.7099 10.4116 11.1895 10.4512 11.4551 10.1332C12.1074 9.35239 12.5 8.34703 12.5 7.24998C12.5 6.15293 12.1074 5.14758 11.4551 4.36672C11.1895 4.04872 10.7099 4.08838 10.4403 4.40298ZM12.3927 2.12517C12.1232 2.43957 12.1636 2.91006 12.4421 3.21654C13.4101 4.28197 14 5.69708 14 7.24998C14 8.80288 13.4101 10.218 12.4421 11.2834C12.1636 11.5899 12.1232 12.0604 12.3927 12.3748C12.6624 12.6894 13.1392 12.7281 13.4253 12.4284C14.7107 11.0822 15.5 9.25826 15.5 7.24998C15.5 5.2417 14.7107 3.41779 13.4253 2.07155C13.1392 1.77185 12.6624 1.81057 12.3927 2.12517ZM3.6073 2.12517C3.33764 1.81057 2.86083 1.77185 2.57469 2.07155C1.28934 3.41779 0.5 5.2417 0.5 7.24998C0.5 9.25826 1.28933 11.0822 2.57469 12.4284C2.86082 12.7281 3.33764 12.6894 3.6073 12.3748C3.87679 12.0604 3.83639 11.5899 3.55794 11.2834C2.58994 10.218 2 8.80288 2 7.24998C2 5.69708 2.58994 4.28197 3.55794 3.21654C3.83639 2.91006 3.87679 2.43957 3.6073 2.12517ZM8.75 8.5493C9.19835 8.28994 9.5 7.80518 9.5 7.24997C9.5 6.42154 8.82843 5.74997 8 5.74997C7.17157 5.74997 6.5 6.42154 6.5 7.24997C6.5 7.80518 6.80165 8.28994 7.25 8.5493V14.25C7.25 14.6642 7.58579 15 8 15C8.41421 15 8.75 14.6642 8.75 14.25V8.5493Z" fill="black"/>
</svg>
