<svg width="16" height="16" viewBox="0 0 16 16" fill="none" xmlns="http://www.w3.org/2000/svg">
<path fill-rule="evenodd" clip-rule="evenodd" d="M9.5 7L11.971 7L8.4723 2.72381C8.3564 2.58216 8.18304 2.5 8 2.5C7.81697 2.5 7.6436 2.58216 7.5277 2.72381L4.029 7L6.5 7L6.5 10.25C6.5 10.3881 6.61193 10.5 6.75 10.5L9.25 10.5C9.38807 10.5 9.5 10.3881 9.5 10.25L9.5 7ZM6.75 12L9.25 12C9.25046 12 9.25091 12 9.25137 12C10.2172 11.9993 11 11.216 11 10.25L11 8.5L12.0261 8.5C12.8401 8.5 13.5 7.84012 13.5 7.02612C13.5 6.68589 13.3823 6.35613 13.1668 6.09281L9.63324 1.77396C9.23244 1.28409 8.63293 1 8 1C7.36707 1 6.76756 1.2841 6.36676 1.77396L2.83316 6.09281C2.61771 6.35613 2.5 6.68589 2.5 7.02612C2.5 7.84012 3.15988 8.5 3.97388 8.5L5 8.5L5 10.25C5 11.2165 5.7835 12 6.75 12ZM14.25 13.5C14.6642 13.5 15 13.8358 15 14.25C15 14.6642 14.6642 15 14.25 15L1.75 15C1.33579 15 1 14.6642 1 14.25C1 13.8358 1.33579 13.5 1.75 13.5L14.25 13.5Z" fill="#18181B"/>
</svg>
