<svg width="16" height="16" viewBox="0 0 16 16" fill="none" xmlns="http://www.w3.org/2000/svg">
<path fill-rule="evenodd" clip-rule="evenodd" d="M2.904 3.96466C2.19149 4.86337 1.71161 5.95498 1.55527 7.14851C1.50147 7.55921 1.7908 7.93577 2.2015 7.98957C2.61221 8.04337 2.98876 7.75404 3.04256 7.34333C3.1548 6.48644 3.48424 5.6978 3.97378 5.03444L10.9654 12.026C10.1356 12.6382 9.1099 13 7.99989 13C6.60152 13 5.33732 12.4266 4.42913 11.5H5.7499C6.16411 11.5 6.4999 11.1642 6.4999 10.75C6.4999 10.3358 6.16412 10 5.7499 10H2.7499C2.33569 10 1.9999 10.3358 1.9999 10.75L1.9999 13.75C1.9999 14.1642 2.33569 14.5 2.7499 14.5C3.16411 14.5 3.4999 14.1642 3.4999 13.75L3.4999 12.6904C4.66718 13.8104 6.25311 14.5 7.99989 14.5C9.52479 14.5 10.9268 13.975 12.0353 13.096L12.9697 14.0303C13.2626 14.3232 13.7374 14.3232 14.0303 14.0303C14.3232 13.7374 14.3232 13.2626 14.0303 12.9697L3.03033 1.96967C2.73744 1.67678 2.26256 1.67678 1.96967 1.96967C1.67678 2.26256 1.67678 2.73744 1.96967 3.03033L2.904 3.96466ZM12.7544 9.55234L13.9103 10.7083C14.1757 10.13 14.3588 9.50607 14.4445 8.85149C14.4983 8.44079 14.209 8.06423 13.7983 8.01043C13.3876 7.95663 13.011 8.24596 12.9572 8.65667C12.9169 8.96495 12.8484 9.26439 12.7544 9.55234ZM5.29146 2.08938L6.44773 3.24565C6.93639 3.08621 7.45811 3 7.99991 3C9.39829 3 10.6625 3.57344 11.5707 4.5H10.2499C9.83569 4.5 9.4999 4.83579 9.4999 5.25C9.4999 5.66421 9.83569 6 10.2499 6H13.2499C13.6641 6 13.9999 5.66421 13.9999 5.25V2.25C13.9999 1.83579 13.6641 1.5 13.2499 1.5C12.8357 1.5 12.4999 1.83579 12.4999 2.25V3.30963C11.3326 2.1896 9.74669 1.5 7.99991 1.5C7.03322 1.5 6.11591 1.71097 5.29146 2.08938Z" fill="black"/>
</svg>
