<svg width="16" height="16" viewBox="0 0 16 16" fill="none" xmlns="http://www.w3.org/2000/svg">
<path fill-rule="evenodd" clip-rule="evenodd" d="M7.46967 4.21967C7.76256 3.92678 8.23744 3.92678 8.53033 4.21967L11.0303 6.71967C11.3232 7.01256 11.3232 7.48744 11.0303 7.78033C10.7374 8.07322 10.2626 8.07322 9.96967 7.78033L8.75 6.56066L8.75 14.25C8.75 14.6642 8.41421 15 8 15C7.58579 15 7.25 14.6642 7.25 14.25L7.25 6.56066L6.03033 7.78033C5.73744 8.07322 5.26256 8.07322 4.96967 7.78033C4.67678 7.48744 4.67678 7.01256 4.96967 6.71967L7.46967 4.21967ZM14.25 2.5C14.6642 2.5 15 2.16422 15 1.75C15 1.33579 14.6642 1 14.25 1L1.75 1C1.33579 1 1 1.33579 1 1.75C1 2.16421 1.33579 2.5 1.75 2.5L14.25 2.5Z" fill="#18181B"/>
</svg>
