<svg width="16" height="16" viewBox="0 0 16 16" fill="none" xmlns="http://www.w3.org/2000/svg">
<path fill-rule="evenodd" clip-rule="evenodd" d="M7.25 14C7.25 14.4142 7.58579 14.75 8 14.75C8.41421 14.75 8.75 14.4142 8.75 14L8.75 8.31066L11.4697 11.0303C11.7626 11.3232 12.2374 11.3232 12.5303 11.0303C12.8232 10.7374 12.8232 10.2626 12.5303 9.96967L8.53033 5.96967C8.23744 5.67678 7.76256 5.67678 7.46967 5.96967L3.46967 9.96967C3.17678 10.2626 3.17678 10.7374 3.46967 11.0303C3.76256 11.3232 4.23744 11.3232 4.53033 11.0303L7.25 8.31066L7.25 14ZM11.4697 6.53033C11.7626 6.82322 12.2374 6.82322 12.5303 6.53033C12.8232 6.23744 12.8232 5.76256 12.5303 5.46967L8.53033 1.46967C8.23744 1.17678 7.76256 1.17678 7.46967 1.46967L3.46967 5.46967C3.17678 5.76256 3.17678 6.23744 3.46967 6.53033C3.76256 6.82322 4.23744 6.82322 4.53033 6.53033L8 3.06066L11.4697 6.53033Z" fill="#18181B"/>
</svg>
