<svg width="16" height="16" viewBox="0 0 16 16" fill="none" xmlns="http://www.w3.org/2000/svg">
<path fill-rule="evenodd" clip-rule="evenodd" d="M6.5 9L4.029 9L7.52769 13.2762C7.6436 13.4178 7.81696 13.5 8 13.5C8.18303 13.5 8.3564 13.4178 8.4723 13.2762L11.971 9L9.5 9L9.5 5.75C9.5 5.61193 9.38807 5.5 9.25 5.5L6.75 5.5C6.61193 5.5 6.5 5.61193 6.5 5.75L6.5 9ZM9.25 4L6.75 4C6.74954 4 6.74909 4 6.74863 4C5.78276 4.00074 5 4.78396 5 5.75L5 7.5L3.97388 7.5C3.15988 7.5 2.5 8.15988 2.5 8.97388C2.5 9.31411 2.61771 9.64387 2.83316 9.90719L6.36676 14.226C6.76756 14.7159 7.36707 15 8 15C8.63293 15 9.23244 14.7159 9.63323 14.226L13.1668 9.90719C13.3823 9.64387 13.5 9.31411 13.5 8.97388C13.5 8.15988 12.8401 7.5 12.0261 7.5L11 7.5L11 5.75C11 4.7835 10.2165 4 9.25 4ZM1.75 2.5C1.33579 2.5 1 2.16421 1 1.75C1 1.33579 1.33579 0.999997 1.75 0.999997L14.25 1C14.6642 1 15 1.33579 15 1.75C15 2.16421 14.6642 2.5 14.25 2.5L1.75 2.5Z" fill="#18181B"/>
</svg>
