<svg width="16" height="16" viewBox="0 0 16 16" fill="none" xmlns="http://www.w3.org/2000/svg">
<path fill-rule="evenodd" clip-rule="evenodd" d="M13.5303 11.2803C13.671 11.1397 13.75 10.9489 13.75 10.75C13.75 10.5511 13.671 10.3603 13.5303 10.2197L10.5303 7.21967C10.2374 6.92678 9.76256 6.92678 9.46967 7.21967C9.17678 7.51256 9.17678 7.98744 9.46967 8.28033L11.1893 10H7C5.20508 10 3.75 8.54493 3.75 6.75C3.75 4.95508 5.20507 3.5 7 3.5H8C8.41421 3.5 8.75 3.16421 8.75 2.75C8.75 2.33579 8.41421 2 8 2H7C4.37665 2 2.25 4.12665 2.25 6.75C2.25 9.37335 4.37665 11.5 7 11.5L11.1893 11.5L9.46967 13.2197C9.17678 13.5126 9.17678 13.9874 9.46967 14.2803C9.76256 14.5732 10.2374 14.5732 10.5303 14.2803L13.5303 11.2803Z" fill="#18181B"/>
</svg>
