<svg width="16" height="16" viewBox="0 0 16 16" fill="none" xmlns="http://www.w3.org/2000/svg">
<path fill-rule="evenodd" clip-rule="evenodd" d="M8.53033 14.7803C8.23744 15.0732 7.76256 15.0732 7.46967 14.7803L4.96967 12.2803C4.67678 11.9874 4.67678 11.5126 4.96967 11.2197C5.26256 10.9268 5.73744 10.9268 6.03033 11.2197L7.25 12.4393L7.25 4.75C7.25 4.33579 7.58579 4 8 4C8.41421 4 8.75 4.33579 8.75 4.75L8.75 12.4393L9.96967 11.2197C10.2626 10.9268 10.7374 10.9268 11.0303 11.2197C11.3232 11.5126 11.3232 11.9874 11.0303 12.2803L8.53033 14.7803ZM14.25 2.5C14.6642 2.5 15 2.16421 15 1.75C15 1.33579 14.6642 1 14.25 1L1.75 0.999999C1.33579 0.999999 1 1.33579 1 1.75C1 2.16421 1.33579 2.5 1.75 2.5L14.25 2.5Z" fill="#18181B"/>
</svg>
