<svg width="16" height="16" viewBox="0 0 16 16" fill="none" xmlns="http://www.w3.org/2000/svg">
<path fill-rule="evenodd" clip-rule="evenodd" d="M11.2803 13.5303C11.1397 13.671 10.9489 13.75 10.75 13.75C10.5511 13.75 10.3603 13.671 10.2197 13.5303L7.21967 10.5303C6.92678 10.2374 6.92678 9.76256 7.21967 9.46967C7.51256 9.17678 7.98744 9.17678 8.28033 9.46967L10 11.1893L10 7C10 5.20508 8.54493 3.75 6.75 3.75C4.95508 3.75 3.5 5.20507 3.5 7L3.5 8C3.5 8.41421 3.16421 8.75 2.75 8.75C2.33579 8.75 2 8.41421 2 8L2 7C2 4.37665 4.12665 2.25 6.75 2.25C9.37335 2.25 11.5 4.37665 11.5 7L11.5 11.1893L13.2197 9.46967C13.5126 9.17678 13.9874 9.17678 14.2803 9.46967C14.5732 9.76256 14.5732 10.2374 14.2803 10.5303L11.2803 13.5303Z" fill="#18181B"/>
</svg>
