<svg width="16" height="16" viewBox="0 0 16 16" fill="none" xmlns="http://www.w3.org/2000/svg">
<path fill-rule="evenodd" clip-rule="evenodd" d="M8.75 2C8.75 1.58579 8.41421 1.25 8 1.25C7.58579 1.25 7.25 1.58579 7.25 2L7.25 7.68934L4.53033 4.96967C4.23744 4.67678 3.76256 4.67678 3.46967 4.96967C3.17678 5.26256 3.17678 5.73744 3.46967 6.03033L7.46967 10.0303C7.76256 10.3232 8.23744 10.3232 8.53033 10.0303L12.5303 6.03033C12.8232 5.73744 12.8232 5.26256 12.5303 4.96967C12.2374 4.67678 11.7626 4.67678 11.4697 4.96967L8.75 7.68934L8.75 2ZM4.53033 9.46967C4.23744 9.17678 3.76256 9.17678 3.46967 9.46967C3.17678 9.76256 3.17678 10.2374 3.46967 10.5303L7.46967 14.5303C7.76256 14.8232 8.23744 14.8232 8.53033 14.5303L12.5303 10.5303C12.8232 10.2374 12.8232 9.76256 12.5303 9.46967C12.2374 9.17678 11.7626 9.17678 11.4697 9.46967L8 12.9393L4.53033 9.46967Z" fill="#18181B"/>
</svg>
