<svg width="16" height="16" viewBox="0 0 16 16" fill="none" xmlns="http://www.w3.org/2000/svg">
<path fill-rule="evenodd" clip-rule="evenodd" d="M14 8.75C14.4142 8.75 14.75 8.41421 14.75 8C14.75 7.58579 14.4142 7.25 14 7.25L8.31066 7.25L11.0303 4.53033C11.3232 4.23744 11.3232 3.76256 11.0303 3.46967C10.7374 3.17678 10.2626 3.17678 9.96967 3.46967L5.96967 7.46967C5.67678 7.76256 5.67678 8.23744 5.96967 8.53033L9.96967 12.5303C10.2626 12.8232 10.7374 12.8232 11.0303 12.5303C11.3232 12.2374 11.3232 11.7626 11.0303 11.4697L8.31066 8.75L14 8.75ZM6.53033 4.53033C6.82322 4.23744 6.82322 3.76256 6.53033 3.46967C6.23744 3.17678 5.76256 3.17678 5.46967 3.46967L1.46967 7.46967C1.17678 7.76256 1.17678 8.23744 1.46967 8.53033L5.46967 12.5303C5.76256 12.8232 6.23744 12.8232 6.53033 12.5303C6.82322 12.2374 6.82322 11.7626 6.53033 11.4697L3.06066 8L6.53033 4.53033Z" fill="#18181B"/>
</svg>
