<svg width="16" height="16" viewBox="0 0 16 16" fill="none" xmlns="http://www.w3.org/2000/svg">
<path fill-rule="evenodd" clip-rule="evenodd" d="M7.49927 10V12.6703C7.49927 12.8524 7.6469 13 7.82902 13C7.90701 13 7.98248 12.9724 8.04201 12.922L13.267 8.50086C13.4143 8.3762 13.4993 8.19299 13.4993 8C13.4993 7.80701 13.4143 7.6238 13.267 7.49914L8.04201 3.07802C7.98248 3.02764 7.90701 3 7.82902 3C7.6469 3 7.49927 3.14763 7.49927 3.32975V6H3C2.72386 6 2.5 6.22386 2.5 6.5V9.5C2.5 9.77614 2.72386 10 3 10H7.49927ZM3 11.5C1.89543 11.5 1 10.6046 1 9.5V6.5C1 5.39543 1.89543 4.5 3 4.5H5.99927V3.32975C5.99927 2.31921 6.81847 1.5 7.82902 1.5C8.26179 1.5 8.68056 1.6534 9.01093 1.93294L14.2359 6.35406C14.72 6.76373 14.9993 7.36578 14.9993 8C14.9993 8.63422 14.72 9.23627 14.2359 9.64594L9.01093 14.0671C8.68055 14.3466 8.26179 14.5 7.82902 14.5C6.81847 14.5 5.99927 13.6808 5.99927 12.6703V11.5H3Z" fill="#18181B"/>
</svg>
