<svg width="16" height="16" viewBox="0 0 16 16" fill="none" xmlns="http://www.w3.org/2000/svg">
<path fill-rule="evenodd" clip-rule="evenodd" d="M9.5 10L11.971 10L8.4723 5.72381C8.3564 5.58215 8.18303 5.5 8 5.5C7.81697 5.5 7.6436 5.58215 7.5277 5.72381L4.029 10L6.5 10L6.5 13.25C6.5 13.3881 6.61193 13.5 6.75 13.5L9.25 13.5C9.38807 13.5 9.5 13.3881 9.5 13.25L9.5 10ZM8.00161 2.5L14.25 2.5C14.6642 2.5 15 2.16421 15 1.75C15 1.33579 14.6642 1 14.25 1L1.75 0.999997C1.33579 0.999997 1 1.33579 1 1.75C1 2.16421 1.33579 2.5 1.75 2.5L8 2.5C8.00054 2.5 8.00107 2.5 8.00161 2.5ZM8.00123 4C8.63371 4.00037 9.2327 4.28441 9.63324 4.77396L13.1668 9.09281C13.3823 9.35613 13.5 9.68589 13.5 10.0261C13.5 10.8401 12.8401 11.5 12.0261 11.5L11 11.5L11 13.25C11 14.2165 10.2165 15 9.25 15L6.75 15C5.7835 15 5 14.2165 5 13.25L5 11.5L3.97388 11.5C3.15988 11.5 2.5 10.8401 2.5 10.0261C2.5 9.68589 2.61771 9.35613 2.83316 9.0928L6.36676 4.77396C6.7673 4.28441 7.36629 4.00037 7.99877 4C7.99918 4 7.99959 4 8 4C8.00041 4 8.00082 4 8.00123 4Z" fill="#18181B"/>
</svg>
