<svg width="16" height="16" viewBox="0 0 16 16" fill="none" xmlns="http://www.w3.org/2000/svg">
<g clip-path="url(#clip0_2217_2223)">
<path fill-rule="evenodd" clip-rule="evenodd" d="M8.00757 1.5193C9.24899 1.53014 10.4082 1.88904 11.3908 2.50294C11.7421 2.72241 11.8489 3.18511 11.6294 3.5364C11.41 3.88768 10.9473 3.99453 10.596 3.77506C9.84128 3.30354 8.95151 3.0276 7.99447 3.01925C6.59615 3.00704 5.32699 3.56943 4.41076 4.48803L5.22792 4.49516C5.64212 4.49877 5.97497 4.83748 5.97135 5.25168C5.96774 5.66587 5.62903 5.99872 5.21483 5.9951L2.71832 5.97332C2.30412 5.9697 1.97128 5.631 1.97489 5.2168L1.99671 2.71692C2.00033 2.30272 2.33903 1.96988 2.75323 1.97349C3.16743 1.97711 3.50027 2.31581 3.49665 2.73001L3.49177 3.28977C4.66879 2.17986 6.26076 1.50406 8.00757 1.5193ZM1.45351 7.79735C1.41315 8.95522 1.68194 10.1386 2.29326 11.2191C3.15347 12.7395 4.53471 13.7803 6.08443 14.2447L5.59722 14.5203C5.23671 14.7243 5.10981 15.1819 5.31377 15.5424C5.51774 15.9029 5.97535 16.0298 6.33586 15.8258L8.51172 14.5948C8.87224 14.3908 8.99914 13.9332 8.79517 13.5727L7.56579 11.3998C7.36182 11.0393 6.90421 10.9124 6.5437 11.1163C6.18319 11.3203 6.05628 11.7779 6.26025 12.1384L6.66266 12.8497C5.40901 12.5155 4.28739 11.6976 3.5988 10.4805C3.12751 9.64748 2.9216 8.73894 2.9526 7.8496C2.96703 7.43564 2.64315 7.08836 2.22919 7.07393C1.81522 7.0595 1.46794 7.38338 1.45351 7.79735ZM11.0074 13.7559C12.0303 13.2119 12.9207 12.3874 13.5508 11.3177C14.4374 9.81258 14.6481 8.09599 14.2755 6.52171L14.7578 6.80582C15.1147 7.01605 15.5744 6.89715 15.7846 6.54025C15.9949 6.18335 15.876 5.7236 15.5191 5.51337L13.365 4.24454C13.0081 4.03431 12.5484 4.15321 12.3382 4.51011L11.071 6.66126C10.8608 7.01816 10.9797 7.47791 11.3366 7.68814C11.6935 7.89837 12.1532 7.77947 12.3635 7.42257L12.7782 6.71845C13.1156 7.97123 12.9681 9.35155 12.2584 10.5564C11.7726 11.3811 11.0888 12.0137 10.3031 12.4315C9.93736 12.626 9.79855 13.0801 9.99303 13.4458C10.1875 13.8115 10.6416 13.9503 11.0074 13.7559ZM7.00309 5.28356C7.15139 4.85985 7.55128 4.57614 8.00019 4.57614C8.4491 4.57614 8.84899 4.85985 8.99729 5.28356L10.4472 9.42613C10.584 9.81709 10.378 10.2449 9.98707 10.3818C9.59611 10.5186 9.16825 10.3126 9.03141 9.92166L8.89905 9.54349L7.10132 9.54349L6.96896 9.92166C6.83212 10.3126 6.40426 10.5186 6.0133 10.3818C5.62234 10.2449 5.41634 9.81709 5.55318 9.42613L7.00309 5.28356ZM8.00019 6.97533L8.37405 8.04349L7.62633 8.04349L8.00019 6.97533Z" fill="#18181B"/>
</g>
<defs>
<clipPath id="clip0_2217_2223">
<rect width="16" height="16" fill="white"/>
</clipPath>
</defs>
</svg>
