<svg width="16" height="16" viewBox="0 0 16 16" fill="none" xmlns="http://www.w3.org/2000/svg">
<path fill-rule="evenodd" clip-rule="evenodd" d="M6 9.5L6 11.971L10.2762 8.4723C10.4178 8.3564 10.5 8.18303 10.5 8C10.5 7.81697 10.4178 7.6436 10.2762 7.5277L6 4.029L6 6.5L2.75 6.5C2.61193 6.5 2.5 6.61193 2.5 6.75L2.5 9.25C2.5 9.38807 2.61193 9.5 2.75 9.5L6 9.5ZM13.5 8.00161L13.5 14.25C13.5 14.6642 13.8358 15 14.25 15C14.6642 15 15 14.6642 15 14.25L15 1.75C15 1.33579 14.6642 1 14.25 1C13.8358 1 13.5 1.33579 13.5 1.75L13.5 8C13.5 8.00054 13.5 8.00107 13.5 8.00161ZM12 8.00123C11.9996 8.63371 11.7156 9.2327 11.226 9.63324L6.90719 13.1668C6.64387 13.3823 6.31411 13.5 5.97388 13.5C5.15988 13.5 4.5 12.8401 4.5 12.0261L4.5 11L2.75 11C1.7835 11 0.999999 10.2165 0.999999 9.25L1 6.75C1 5.7835 1.7835 5 2.75 5L4.5 5L4.5 3.97388C4.5 3.15988 5.15988 2.5 5.97388 2.5C6.31411 2.5 6.64387 2.61771 6.9072 2.83316L11.226 6.36676C11.7156 6.7673 11.9996 7.36629 12 7.99877C12 7.99918 12 7.99959 12 8C12 8.00041 12 8.00082 12 8.00123Z" fill="#18181B"/>
</svg>
