<svg width="16" height="16" viewBox="0 0 16 16" fill="none" xmlns="http://www.w3.org/2000/svg">
<path fill-rule="evenodd" clip-rule="evenodd" d="M8 1.5C4.41015 1.5 1.5 4.41015 1.5 8C1.5 11.5899 4.41015 14.5 8 14.5C11.3026 14.5 14.0288 12.0377 14.445 8.8484C14.4986 8.43767 14.2091 8.06126 13.7984 8.00766C13.3877 7.95405 13.0113 8.24357 12.9577 8.6543C12.6377 11.1063 10.5394 13 8 13C5.23858 13 3 10.7614 3 8C3 5.23858 5.23858 3 8 3C9.39838 3 10.6626 3.57344 11.5708 4.5H10.25C9.83579 4.5 9.5 4.83579 9.5 5.25C9.5 5.66421 9.83579 6 10.25 6H13.25C13.6642 6 14 5.66421 14 5.25V2.25C14 1.83579 13.6642 1.5 13.25 1.5C12.8358 1.5 12.5 1.83579 12.5 2.25V3.30964C11.3327 2.1896 9.74678 1.5 8 1.5Z" fill="#18181B"/>
</svg>
