<svg width="16" height="16" viewBox="0 0 16 16" fill="none" xmlns="http://www.w3.org/2000/svg">
<path fill-rule="evenodd" clip-rule="evenodd" d="M7.46967 1.21967C7.76256 0.926777 8.23744 0.926777 8.53033 1.21967L11.0303 3.71967C11.3232 4.01256 11.3232 4.48744 11.0303 4.78033C10.7374 5.07322 10.2626 5.07322 9.96967 4.78033L8.75 3.56066V7.29792L7.25 5.79792V3.56066L6.13137 4.67929L5.07071 3.61863L7.46967 1.21967ZM7.25 10.0607V11.25C7.25 11.6642 7.58579 12 8 12C8.32161 12 8.59594 11.7976 8.70252 11.5132L10.6893 13.5H4C3.17157 13.5 2.5 12.8284 2.5 12V9.5C2.5 8.67157 3.17157 8 4 8H5.18934L7.25 10.0607ZM3.70378 6.51444L1.96967 4.78033C1.67678 4.48744 1.67678 4.01256 1.96967 3.71967C2.26256 3.42678 2.73744 3.42678 3.03033 3.71967L14.0303 14.7197C14.3232 15.0126 14.3232 15.4874 14.0303 15.7803C13.7374 16.0732 13.2626 16.0732 12.9697 15.7803L12.1838 14.9945C12.123 14.9981 12.0617 15 12 15H4C2.34315 15 1 13.6569 1 12V9.5C1 7.9431 2.18597 6.6632 3.70378 6.51444ZM13.4993 12.0472L14.7198 13.2677C14.8996 12.8826 15 12.453 15 12V9.5C15 7.84315 13.6569 6.5 12 6.5H11.75C11.3358 6.5 11 6.83579 11 7.25C11 7.66421 11.3358 8 11.75 8H12C12.8284 8 13.5 8.67157 13.5 9.5V12C13.5 12.0158 13.4998 12.0315 13.4993 12.0472Z" fill="black"/>
</svg>
