<svg width="16" height="16" viewBox="0 0 16 16" fill="none" xmlns="http://www.w3.org/2000/svg">
<path fill-rule="evenodd" clip-rule="evenodd" d="M8.53033 11.7803C8.23744 12.0732 7.76256 12.0732 7.46967 11.7803L4.96967 9.28033C4.67678 8.98744 4.67678 8.51256 4.96967 8.21967C5.26256 7.92678 5.73744 7.92678 6.03033 8.21967L7.25 9.43934L7.25 1.75C7.25 1.33579 7.58579 1 8 1C8.41421 1 8.75 1.33579 8.75 1.75L8.75 9.43934L9.96967 8.21967C10.2626 7.92678 10.7374 7.92678 11.0303 8.21967C11.3232 8.51256 11.3232 8.98744 11.0303 9.28033L8.53033 11.7803ZM1.75 13.5C1.33579 13.5 1 13.8358 1 14.25C1 14.6642 1.33579 15 1.75 15H14.25C14.6642 15 15 14.6642 15 14.25C15 13.8358 14.6642 13.5 14.25 13.5H1.75Z" fill="#18181B"/>
</svg>
