<svg width="16" height="16" viewBox="0 0 16 16" fill="none" xmlns="http://www.w3.org/2000/svg">
<path fill-rule="evenodd" clip-rule="evenodd" d="M8 1.5C11.5899 1.5 14.5 4.41015 14.5 8C14.5 11.5899 11.5899 14.5 8 14.5C4.69743 14.5 1.97116 12.0377 1.55495 8.8484C1.50135 8.43767 1.79086 8.06126 2.20159 8.00766C2.61232 7.95405 2.98874 8.24357 3.04234 8.6543C3.36233 11.1063 5.46061 13 8 13C10.7614 13 13 10.7614 13 8C13 5.23858 10.7614 3 8 3C6.60162 3 5.33742 3.57344 4.42924 4.5H5.75C6.16421 4.5 6.5 4.83579 6.5 5.25C6.5 5.66421 6.16421 6 5.75 6H2.75C2.33579 6 2 5.66421 2 5.25V2.25C2 1.83579 2.33579 1.5 2.75 1.5C3.16421 1.5 3.5 1.83579 3.5 2.25V3.30964C4.66728 2.1896 6.25322 1.5 8 1.5Z" fill="#18181B"/>
</svg>
