<svg width="16" height="16" viewBox="0 0 16 16" fill="none" xmlns="http://www.w3.org/2000/svg">
<path fill-rule="evenodd" clip-rule="evenodd" d="M11.7803 7.46967C12.0732 7.76256 12.0732 8.23744 11.7803 8.53033L9.28033 11.0303C8.98744 11.3232 8.51256 11.3232 8.21967 11.0303C7.92678 10.7374 7.92678 10.2626 8.21967 9.96967L9.43934 8.75L1.75 8.75C1.33579 8.75 1 8.41421 1 8C1 7.58579 1.33579 7.25 1.75 7.25L9.43934 7.25L8.21967 6.03033C7.92678 5.73744 7.92678 5.26256 8.21967 4.96967C8.51256 4.67678 8.98744 4.67678 9.28033 4.96967L11.7803 7.46967ZM13.5 14.25C13.5 14.6642 13.8358 15 14.25 15C14.6642 15 15 14.6642 15 14.25L15 1.75C15 1.33579 14.6642 1 14.25 1C13.8358 1 13.5 1.33579 13.5 1.75L13.5 14.25Z" fill="#18181B"/>
</svg>
