<svg width="16" height="16" viewBox="0 0 16 16" fill="none" xmlns="http://www.w3.org/2000/svg">
<g clip-path="url(#clip0_2217_2059)">
<path fill-rule="evenodd" clip-rule="evenodd" d="M4.60923 2.50294C5.5918 1.88904 6.75101 1.53014 7.99244 1.5193C9.73924 1.50406 11.3312 2.17986 12.5082 3.28977L12.5033 2.73001C12.4997 2.31581 12.8326 1.97711 13.2468 1.97349C13.661 1.96988 13.9997 2.30272 14.0033 2.71692L14.0251 5.2168C14.0287 5.631 13.6959 5.9697 13.2817 5.97332L10.7852 5.9951C10.371 5.99872 10.0323 5.66587 10.0286 5.25168C10.025 4.83748 10.3579 4.49877 10.7721 4.49516L11.5892 4.48803C10.673 3.56943 9.40385 3.00704 8.00553 3.01925C7.04849 3.0276 6.15872 3.30354 5.40403 3.77506C5.05274 3.99454 4.59005 3.88768 4.37057 3.5364C4.15109 3.18511 4.25794 2.72241 4.60923 2.50294ZM13.7067 11.2191C14.3181 10.1386 14.5868 8.95522 14.5465 7.79735C14.5321 7.38338 14.1848 7.0595 13.7708 7.07393C13.3569 7.08836 13.033 7.43564 13.0474 7.8496C13.0784 8.73894 12.8725 9.64748 12.4012 10.4805C11.7126 11.6976 10.591 12.5155 9.33734 12.8497L9.73975 12.1384C9.94372 11.7779 9.81681 11.3203 9.4563 11.1163C9.09579 10.9124 8.63818 11.0393 8.43421 11.3998L7.20483 13.5727C7.00086 13.9332 7.12776 14.3908 7.48827 14.5948L9.66414 15.8258C10.0247 16.0298 10.4823 15.9029 10.6862 15.5424C10.8902 15.1819 10.7633 14.7243 10.4028 14.5203L9.91557 14.2447C11.4653 13.7803 12.8465 12.7395 13.7067 11.2191ZM2.44918 11.3177C3.07927 12.3874 3.9697 13.2119 4.99263 13.7559C5.35835 13.9503 5.81248 13.8115 6.00697 13.4458C6.20145 13.0801 6.06264 12.626 5.69692 12.4315C4.91123 12.0137 4.22737 11.3811 3.74162 10.5564C3.0319 9.35155 2.88436 7.97123 3.22177 6.71845L3.63653 7.42257C3.84676 7.77947 4.3065 7.89837 4.6634 7.68814C5.0203 7.47791 5.1392 7.01816 4.92897 6.66126L3.66185 4.51011C3.45162 4.15321 2.99187 4.03431 2.63497 4.24454L0.480921 5.51338C0.124023 5.72361 0.00512386 6.18335 0.215353 6.54025C0.425583 6.89715 0.88533 7.01605 1.24223 6.80582L1.72455 6.52171C1.35186 8.096 1.56258 9.81258 2.44918 11.3177Z" fill="#18181B"/>
</g>
<defs>
<clipPath id="clip0_2217_2059">
<rect width="16" height="16" fill="white"/>
</clipPath>
</defs>
</svg>
