<svg width="16" height="16" viewBox="0 0 16 16" fill="none" xmlns="http://www.w3.org/2000/svg">
<path fill-rule="evenodd" clip-rule="evenodd" d="M8.9992 9L8.9992 11.6645C8.9992 11.8498 9.14939 12 9.33467 12C9.41315 12 9.48914 11.9725 9.54943 11.9222L14.2707 7.98785C14.4155 7.8672 14.4992 7.68847 14.4992 7.5C14.4992 7.31153 14.4155 7.1328 14.2707 7.01215L9.54943 3.07775C9.48914 3.02751 9.41315 3 9.33467 3C9.1494 3 8.9992 3.15019 8.9992 3.33547L8.9992 6H7.4992C5.91583 6 4.31751 6.57134 3.25865 7.69194C2.35959 8.64341 1.71022 10.1383 1.94917 12.4146C2.59819 11.3893 3.3143 10.5783 4.15023 10.0015C5.19768 9.27884 6.32259 9 7.4992 9H8.9992ZM5.9992 10.7313C4.83813 11.1271 3.83509 12.0681 2.84875 13.8371C2.62541 14.2376 2.2095 14.5 1.7509 14.5C1.19931 14.4999 0.710511 14.1245 0.60753 13.5826C-0.59838 7.23708 3.6785 4.5 7.4992 4.5L7.4992 3.33547C7.4992 2.32177 8.32097 1.5 9.33467 1.5C9.76405 1.5 10.1798 1.65054 10.5097 1.92542L15.231 5.85982C15.7178 6.26546 15.9992 6.86636 15.9992 7.5C15.9992 8.13364 15.7178 8.73454 15.231 9.14018L10.5097 13.0746C10.1798 13.3495 9.76405 13.5 9.33467 13.5C8.32097 13.5 7.4992 12.6782 7.4992 11.6645L7.4992 10.5C6.96693 10.5 6.47007 10.5708 5.9992 10.7313Z" fill="#18181B"/>
</svg>
