<svg width="16" height="16" viewBox="0 0 16 16" fill="none" xmlns="http://www.w3.org/2000/svg">
<path fill-rule="evenodd" clip-rule="evenodd" d="M7.46967 1.21967C7.76256 0.926777 8.23744 0.926777 8.53033 1.21967L11.0303 3.71967C11.3232 4.01256 11.3232 4.48744 11.0303 4.78033C10.7374 5.07322 10.2626 5.07322 9.96967 4.78033L8.75 3.56066V11.25C8.75 11.6642 8.41421 12 8 12C7.58579 12 7.25 11.6642 7.25 11.25V3.56066L6.03033 4.78033C5.73744 5.07322 5.26256 5.07322 4.96967 4.78033C4.67678 4.48744 4.67678 4.01256 4.96967 3.71967L7.46967 1.21967ZM4.25 6.5C4.66421 6.5 5 6.83579 5 7.25C5 7.66421 4.66421 8 4.25 8H4C3.17157 8 2.5 8.67157 2.5 9.5V12C2.5 12.8284 3.17157 13.5 4 13.5H12C12.8284 13.5 13.5 12.8284 13.5 12V9.5C13.5 8.67157 12.8284 8 12 8H11.75C11.3358 8 11 7.66421 11 7.25C11 6.83579 11.3358 6.5 11.75 6.5H12C13.6569 6.5 15 7.84315 15 9.5V12C15 13.6569 13.6569 15 12 15H4C2.34315 15 1 13.6569 1 12V9.5C1 7.84315 2.34315 6.5 4 6.5H4.25Z" fill="#18181B"/>
</svg>
