<svg width="16" height="16" viewBox="0 0 16 16" fill="none" xmlns="http://www.w3.org/2000/svg">
<path fill-rule="evenodd" clip-rule="evenodd" d="M1 3.25C1 2.83579 1.33579 2.5 1.75 2.5H14.25C14.6642 2.5 15 2.83579 15 3.25C15 3.66421 14.6642 4 14.25 4H1.75C1.33579 4 1 3.66421 1 3.25ZM1 8C1 7.58579 1.33579 7.25 1.75 7.25H10.25C10.6642 7.25 11 7.58579 11 8C11 8.41421 10.6642 8.75 10.25 8.75H1.75C1.33579 8.75 1 8.41421 1 8ZM1.75 12C1.33579 12 1 12.3358 1 12.75C1 13.1642 1.33579 13.5 1.75 13.5H4.25C4.66421 13.5 5 13.1642 5 12.75C5 12.3358 4.66421 12 4.25 12H1.75Z" fill="#18181B"/>
</svg>
