<svg width="16" height="16" viewBox="0 0 16 16" fill="none" xmlns="http://www.w3.org/2000/svg">
<path fill-rule="evenodd" clip-rule="evenodd" d="M15 3.25C15 2.83579 14.6642 2.5 14.25 2.5H1.75C1.33579 2.5 1 2.83579 1 3.25C1 3.66421 1.33579 4 1.75 4H14.25C14.6642 4 15 3.66421 15 3.25ZM15 8C15 7.58579 14.6642 7.25 14.25 7.25H5.75C5.33579 7.25 5 7.58579 5 8C5 8.41421 5.33579 8.75 5.75 8.75H14.25C14.6642 8.75 15 8.41421 15 8ZM14.25 12C14.6642 12 15 12.3358 15 12.75C15 13.1642 14.6642 13.5 14.25 13.5H11.75C11.3358 13.5 11 13.1642 11 12.75C11 12.3358 11.3358 12 11.75 12H14.25Z" fill="#18181B"/>
</svg>
