<svg width="16" height="16" viewBox="0 0 16 16" fill="none" xmlns="http://www.w3.org/2000/svg">
<path fill-rule="evenodd" clip-rule="evenodd" d="M3.73989 4.80055L1.96967 3.03033C1.67678 2.73744 1.67678 2.26256 1.96967 1.96967C2.26256 1.67678 2.73744 1.67678 3.03033 1.96967L14.0303 12.9697C14.3232 13.2626 14.3232 13.7374 14.0303 14.0303C13.7374 14.3232 13.2626 14.3232 12.9697 14.0303L12.0131 13.0738C11.3331 13.2281 10.6463 13.3427 9.95635 13.4176C9.76432 14.3218 8.96137 15.0001 8 15.0001C7.03863 15.0001 6.23568 14.3218 6.04365 13.4176C5.3321 13.3404 4.62399 13.2209 3.9231 13.0592L3.10189 12.8697C2.16422 12.6533 1.5 11.8183 1.5 10.856C1.5 10.3079 1.71773 9.78227 2.10529 9.39471L2.29908 9.20092C2.75612 8.74388 3.06764 8.16179 3.1944 7.528L3.73989 4.80055ZM10.7362 11.7969C8.58869 12.1551 6.38827 12.0886 4.26039 11.5976L3.43918 11.4081C3.18211 11.3488 3 11.1198 3 10.856C3 10.7057 3.05969 10.5616 3.16595 10.4554L3.35974 10.2616C4.02618 9.59514 4.48044 8.74635 4.66527 7.82217L5.01465 6.0753L10.7362 11.7969ZM11.3347 7.82217C11.3626 7.96139 11.3965 8.09889 11.4364 8.23432L14.4606 11.2585C14.4865 11.1279 14.5 10.9932 14.5 10.856C14.5 10.3079 14.2823 9.78227 13.8947 9.39471L13.7009 9.20092C13.2439 8.74389 12.9324 8.16179 12.8056 7.528L12.1864 4.43203C11.7873 2.43645 10.0351 1 8 1C6.95146 1 5.97802 1.38132 5.22605 2.02397L6.29173 3.08965C6.76584 2.71802 7.36145 2.5 8 2.5C9.32008 2.5 10.4566 3.43176 10.7155 4.72621L11.3347 7.82217Z" fill="#18181B"/>
</svg>
