<svg width="16" height="16" viewBox="0 0 16 16" fill="none" xmlns="http://www.w3.org/2000/svg">
<path fill-rule="evenodd" clip-rule="evenodd" d="M4.66527 7.82217L5.28446 4.72621C5.54335 3.43176 6.67992 2.5 8 2.5C9.32008 2.5 10.4566 3.43176 10.7155 4.72621L11.3347 7.82217C11.5196 8.74635 11.9738 9.59514 12.6403 10.2616L12.8341 10.4554C12.9403 10.5616 13 10.7057 13 10.856C13 11.1198 12.8179 11.3488 12.5608 11.4081L11.7396 11.5976C9.27887 12.1655 6.72113 12.1655 4.26039 11.5976L3.43918 11.4081C3.18211 11.3488 3 11.1198 3 10.856C3 10.7057 3.05969 10.5616 3.16595 10.4554L3.35974 10.2616C4.02618 9.59514 4.48044 8.74635 4.66527 7.82217ZM3.1944 7.528L3.81359 4.43203C4.21271 2.43645 5.9649 1 8 1C10.0351 1 11.7873 2.43645 12.1864 4.43203L12.8056 7.528C12.9324 8.16179 13.2439 8.74389 13.7009 9.20092L13.8947 9.39471C14.2823 9.78227 14.5 10.3079 14.5 10.856C14.5 11.8183 13.8358 12.6533 12.8981 12.8697L12.0769 13.0592C11.376 13.2209 10.6679 13.3404 9.95635 13.4176C9.76432 14.3218 8.96137 15.0001 8 15.0001C7.03863 15.0001 6.23568 14.3218 6.04365 13.4176C5.3321 13.3404 4.62399 13.2209 3.9231 13.0592L3.10189 12.8697C2.16422 12.6533 1.5 11.8183 1.5 10.856C1.5 10.3079 1.71773 9.78227 2.10529 9.39471L2.29908 9.20092C2.75612 8.74388 3.06764 8.16179 3.1944 7.528Z" fill="#18181B"/>
</svg>
