<svg width="16" height="16" viewBox="0 0 16 16" fill="none" xmlns="http://www.w3.org/2000/svg">
<path fill-rule="evenodd" clip-rule="evenodd" d="M3.5 11.937V13C3.5 13.2761 3.72386 13.5 4 13.5H11C11.8284 13.5 12.5 12.8284 12.5 12V11.5987C12.0587 11.8539 11.5464 12 11 12H4C3.82735 12 3.65981 11.9781 3.5 11.937ZM2 10V3C2 2.93097 2.0035 2.86275 2.01033 2.79551C2.04105 2.49296 2.13921 2.21034 2.28955 1.96293C2.39688 1.78628 2.53082 1.62757 2.68578 1.49237C2.94079 1.26989 3.25276 1.11106 3.59693 1.04063C3.72713 1.01399 3.86193 1 4 1H11C12.5533 1 13.8309 2.1805 13.9845 3.69327C13.9948 3.79412 14 3.89645 14 4V9V12C14 13.6569 12.6569 15 11 15H4C2.89543 15 2 14.1046 2 13V10ZM3.5 10.0005C3.50027 10.2764 3.72403 10.5 4 10.5H11C11.8284 10.5 12.5 9.82843 12.5 9V4C12.5 3.89645 12.4895 3.79534 12.4695 3.6977C12.3297 3.01417 11.7249 2.5 11 2.5L4 2.5C3.86193 2.5 3.73693 2.55597 3.64645 2.64645C3.56727 2.72562 3.51453 2.83122 3.50258 2.94888C3.50087 2.96569 3.5 2.98274 3.5 3V10C3.5 10.0002 3.5 10.0003 3.5 10.0005ZM5.5 5.25C5.5 4.83579 5.83579 4.5 6.25 4.5H9.75C10.1642 4.5 10.5 4.83579 10.5 5.25C10.5 5.66421 10.1642 6 9.75 6H6.25C5.83579 6 5.5 5.66421 5.5 5.25Z" fill="#18181B"/>
</svg>
