<svg width="16" height="16" viewBox="0 0 16 16" fill="none" xmlns="http://www.w3.org/2000/svg">
<g clip-path="url(#clip0_15110_2633)">
<path d="M2.58333 11.6666V10.4664C2.58344 10.0523 2.91918 9.71643 3.33333 9.71643C3.74748 9.71643 4.08323 10.0523 4.08333 10.4664V11.6666C4.08333 12.0865 4.25037 12.4888 4.5472 12.7858C4.84405 13.0826 5.24653 13.2495 5.66634 13.2496C6.08627 13.2496 6.48952 13.0827 6.78646 12.7858C7.08319 12.4889 7.25032 12.0864 7.25032 11.6666V10.9996C7.25024 10.5799 7.08321 10.1773 6.78646 9.88049C6.48952 9.58356 6.08627 9.41663 5.66634 9.41663C5.25228 9.41645 4.91634 9.08073 4.91634 8.66663C4.91634 8.25252 5.25228 7.9168 5.66634 7.91663C6.48409 7.91663 7.26877 8.24171 7.847 8.81995C7.90014 8.87309 7.95054 8.92849 7.99935 8.98499C8.04827 8.92832 8.09938 8.87325 8.15267 8.81995C8.73091 8.24171 9.51558 7.91663 10.3333 7.91663C10.7475 7.91663 11.0833 8.25241 11.0833 8.66663C11.0833 9.08084 10.7475 9.41663 10.3333 9.41663C9.91348 9.41663 9.51111 9.58366 9.21419 9.88049C8.9544 10.1403 8.79415 10.481 8.75814 10.8434L8.75032 10.9996V11.6666C8.75032 12.0866 8.91726 12.4888 9.21419 12.7858C9.51112 13.0827 9.91341 13.2496 10.3333 13.2496C10.7533 13.2496 11.1555 13.0827 11.4525 12.7858C11.7494 12.4888 11.9163 12.0866 11.9163 11.6666V10.4664C11.9164 10.0524 12.2523 9.71661 12.6663 9.71643C13.0805 9.71643 13.4162 10.0523 13.4163 10.4664V11.6666C13.4163 12.4844 13.0922 13.2691 12.514 13.8473C11.9358 14.4255 11.1511 14.7496 10.3333 14.7496C9.51558 14.7496 8.73091 14.4255 8.15267 13.8473C8.09903 13.7937 8.04857 13.7373 7.99935 13.6803C7.9503 13.7371 7.90044 13.7939 7.847 13.8473C7.26878 14.4254 6.48401 14.7496 5.66634 14.7496C4.84886 14.7495 4.06478 14.4252 3.48665 13.8473C2.90842 13.2691 2.58333 12.4844 2.58333 11.6666Z" fill="#18181B"/>
<path d="M13.2503 8.33301C13.2502 7.91328 13.0832 7.51071 12.7865 7.21387C12.4895 6.91693 12.0863 6.75 11.6663 6.75H11.3333C10.9191 6.75 10.5833 6.41421 10.5833 6C10.5833 5.58579 10.9191 5.25 11.3333 5.25H11.6663C12.4841 5.25 13.2688 5.57508 13.847 6.15332C14.4251 6.73147 14.7502 7.51545 14.7503 8.33301C14.7503 9.15076 14.4252 9.93543 13.847 10.5137C13.2688 11.0919 12.4841 11.417 11.6663 11.417C11.2524 11.4168 10.9165 11.0809 10.9163 10.667C10.9163 10.2529 11.2523 9.91717 11.6663 9.91699C12.0863 9.91699 12.4895 9.75006 12.7865 9.45312C13.0834 9.15619 13.2503 8.75293 13.2503 8.33301Z" fill="#18181B"/>
<path d="M1.25 8.33301C1.25009 7.51537 1.57516 6.73148 2.15332 6.15332C2.73148 5.57516 3.51537 5.25009 4.33301 5.25H4.66699C5.08106 5.25018 5.41699 5.5859 5.41699 6C5.41699 6.4141 5.08106 6.74982 4.66699 6.75H4.33301C3.9132 6.75009 3.51072 6.91701 3.21387 7.21387C2.91701 7.51072 2.75009 7.9132 2.75 8.33301C2.75 8.75293 2.91693 9.15619 3.21387 9.45312C3.51071 9.74988 3.91328 9.91691 4.33301 9.91699C4.74722 9.91699 5.08301 10.2528 5.08301 10.667C5.08283 11.0811 4.74711 11.417 4.33301 11.417C3.51545 11.4169 2.73147 11.0917 2.15332 10.5137C1.57508 9.93543 1.25 9.15076 1.25 8.33301ZM11.917 6.2002V4.33301C11.9169 3.91328 11.7499 3.51071 11.4531 3.21387C11.1562 2.91693 10.7529 2.75 10.333 2.75C9.9132 2.75009 9.51072 2.91701 9.21387 3.21387C8.91701 3.51072 8.75009 3.9132 8.75 4.33301C8.75 4.74722 8.41421 5.08301 8 5.08301C7.58579 5.08301 7.25 4.74722 7.25 4.33301C7.25009 3.51537 7.57516 2.73148 8.15332 2.15332C8.73148 1.57516 9.51537 1.25009 10.333 1.25C11.1508 1.25 11.9354 1.57508 12.5137 2.15332C13.0917 2.73147 13.4169 3.51545 13.417 4.33301V6.2002C13.4169 6.61421 13.081 6.95002 12.667 6.9502C12.2528 6.9502 11.9171 6.61432 11.917 6.2002Z" fill="#18181B"/>
<path d="M7.25032 11V4.33301C7.25024 3.91328 7.08321 3.51071 6.78646 3.21387C6.48952 2.91693 6.08627 2.75 5.66634 2.75C5.24653 2.75009 4.84406 2.91701 4.5472 3.21387C4.25034 3.51072 4.08342 3.9132 4.08333 4.33301V6.2002C4.08323 6.61432 3.74748 6.9502 3.33333 6.9502C2.91918 6.9502 2.58344 6.61432 2.58333 6.2002V4.33301C2.58342 3.51537 2.90849 2.73148 3.48665 2.15332C4.06481 1.57516 4.84871 1.25009 5.66634 1.25C6.48409 1.25 7.26877 1.57508 7.847 2.15332C8.42506 2.73147 8.75024 3.51545 8.75032 4.33301V11C8.75032 11.4141 8.41439 11.7498 8.00032 11.75C7.58611 11.75 7.25032 11.4142 7.25032 11Z" fill="#18181B"/>
</g>
<defs>
<clipPath id="clip0_15110_2633">
<rect width="14" height="14" fill="white" transform="translate(1 1)"/>
</clipPath>
</defs>
</svg>
