<svg width="16" height="16" viewBox="0 0 16 16" fill="none" xmlns="http://www.w3.org/2000/svg">
<path fill-rule="evenodd" clip-rule="evenodd" d="M12 2.75C12 3.16421 12.3358 3.5 12.75 3.5C13.1642 3.5 13.5 3.16421 13.5 2.75C13.5 2.33579 13.1642 2 12.75 2C12.3358 2 12 2.33579 12 2.75ZM12.75 0.5C11.7703 0.5 10.9369 1.12611 10.628 2H10.25C8.59315 2 7.25 3.34315 7.25 5V7.18934L5.03033 4.96967C4.73744 4.67678 4.26256 4.67678 3.96967 4.96967C3.67678 5.26256 3.67678 5.73744 3.96967 6.03033L5.18934 7.25H1.75C1.33579 7.25 1 7.58579 1 8C1 8.41421 1.33579 8.75 1.75 8.75H5.18934L3.96967 9.96967C3.67678 10.2626 3.67678 10.7374 3.96967 11.0303C4.26256 11.3232 4.73744 11.3232 5.03033 11.0303L7.25 8.81066V11C7.25 12.6569 8.59315 14 10.25 14H10.628C10.9369 14.8739 11.7703 15.5 12.75 15.5C13.9926 15.5 15 14.4926 15 13.25C15 12.0074 13.9926 11 12.75 11C11.7703 11 10.9369 11.6261 10.628 12.5H10.25C9.42157 12.5 8.75 11.8284 8.75 11V8.75H10.628C10.9369 9.62389 11.7703 10.25 12.75 10.25C13.9926 10.25 15 9.24264 15 8C15 6.75736 13.9926 5.75 12.75 5.75C11.7703 5.75 10.9369 6.37611 10.628 7.25H8.75V5C8.75 4.17157 9.42157 3.5 10.25 3.5H10.628C10.9369 4.37389 11.7703 5 12.75 5C13.9926 5 15 3.99264 15 2.75C15 1.50736 13.9926 0.5 12.75 0.5ZM12 13.25C12 13.6642 12.3358 14 12.75 14C13.1642 14 13.5 13.6642 13.5 13.25C13.5 12.8358 13.1642 12.5 12.75 12.5C12.3358 12.5 12 12.8358 12 13.25ZM12.75 8.75C12.3358 8.75 12 8.41421 12 8C12 7.58579 12.3358 7.25 12.75 7.25C13.1642 7.25 13.5 7.58579 13.5 8C13.5 8.41421 13.1642 8.75 12.75 8.75Z" fill="#18181B"/>
</svg>
