<svg width="16" height="16" viewBox="0 0 16 16" fill="none" xmlns="http://www.w3.org/2000/svg">
<path fill-rule="evenodd" clip-rule="evenodd" d="M12.5 4L12.5 12C12.5 12.8284 11.8284 13.5 11 13.5L5 13.5C4.17157 13.5 3.5 12.8284 3.5 12L3.5 4C3.5 3.17157 4.17157 2.5 5 2.5L11 2.5C11.8284 2.5 12.5 3.17157 12.5 4ZM11 1C12.6569 1 14 2.34315 14 4L14 12C14 13.6569 12.6569 15 11 15L5 15C3.34315 15 2 13.6569 2 12L2 4C2 2.34315 3.34315 1 5 1L11 1ZM9.5 6C9.5 6.17623 9.46961 6.34536 9.41378 6.50244C9.44232 6.50082 9.47106 6.5 9.5 6.5C10.3284 6.5 11 7.17157 11 8C11 8.82843 10.3284 9.5 9.5 9.5C8.99203 9.5 8.54304 9.2475 8.27168 8.86117C8.3521 9.52846 8.65374 10.1537 9.13388 10.6339L9.5 11L9.5 11.5L6.5 11.5L6.5 11L6.86612 10.6339C7.34626 10.1537 7.6479 9.52846 7.72832 8.86117C7.45696 9.2475 7.00797 9.5 6.5 9.5C5.67157 9.5 5 8.82843 5 8C5 7.17157 5.67157 6.5 6.5 6.5C6.52894 6.5 6.55768 6.50082 6.58622 6.50244C6.53039 6.34536 6.5 6.17623 6.5 6C6.5 5.17157 7.17157 4.5 8 4.5C8.82843 4.5 9.5 5.17157 9.5 6Z" fill="#18181B"/>
</svg>
