<svg width="16" height="16" viewBox="0 0 16 16" fill="none" xmlns="http://www.w3.org/2000/svg">
<path fill-rule="evenodd" clip-rule="evenodd" d="M12 6.27312C12 6.09705 11.9361 5.92696 11.8202 5.79446L8.79881 2.3415C8.60892 2.12448 8.33459 2 8.04623 2H7.95377C7.66541 2 7.39108 2.12448 7.20119 2.3415L4.17985 5.79446C4.06391 5.92696 4 6.09705 4 6.27312C4 6.67456 4.32544 7 4.72688 7L11.2731 7C11.6746 7 12 6.67456 12 6.27312ZM4 9.72688C4 9.90295 4.06391 10.073 4.17985 10.2055L7.20119 13.6585C7.39108 13.8755 7.66541 14 7.95377 14H8.04623C8.33459 14 8.60892 13.8755 8.79881 13.6585L11.8202 10.2055C11.9361 10.073 12 9.90295 12 9.72688C12 9.32544 11.6746 9 11.2731 9H4.72688C4.32544 9 4 9.32544 4 9.72688Z" fill="#18181B"/>
</svg>
