<svg width="16" height="16" viewBox="0 0 16 16" fill="none" xmlns="http://www.w3.org/2000/svg">
<path fill-rule="evenodd" clip-rule="evenodd" d="M4.11101 2.17971C5.26216 1.41054 6.61553 1 8 1C8.91925 1 9.82951 1.18106 10.6788 1.53284C11.5281 1.88463 12.2997 2.40024 12.9497 3.05025C13.5998 3.70026 14.1154 4.47194 14.4672 5.32122C14.8189 6.1705 15 7.08075 15 8C15 9.38447 14.5895 10.7378 13.8203 11.889C13.0511 13.0401 11.9579 13.9373 10.6788 14.4672C9.3997 14.997 7.99224 15.1356 6.63437 14.8655C5.2765 14.5954 4.02922 13.9287 3.05026 12.9497C2.07129 11.9708 1.4046 10.7235 1.13451 9.36563C0.86441 8.00777 1.00303 6.6003 1.53285 5.32122C2.06266 4.04213 2.95987 2.94888 4.11101 2.17971ZM8 6.02012C7.60842 6.02012 7.22563 6.13624 6.90004 6.35379C6.57445 6.57134 6.32068 6.88056 6.17083 7.24233C6.02098 7.60411 5.98177 8.0022 6.05817 8.38626C6.13456 8.77031 6.32313 9.1231 6.60002 9.39999C6.87691 9.67688 7.22969 9.86544 7.61375 9.94184C7.99781 10.0182 8.3959 9.97902 8.75767 9.82917C9.11945 9.67932 9.42866 9.42555 9.64621 9.09996C9.86376 8.77437 9.97988 8.39158 9.97988 8C9.97988 7.74 9.92867 7.48254 9.82917 7.24233C9.72967 7.00212 9.58384 6.78386 9.39999 6.60001C9.21614 6.41616 8.99788 6.27033 8.75767 6.17083C8.51746 6.07133 8.26 6.02012 8 6.02012ZM7.25 2.55137C6.4283 2.66448 5.63942 2.9625 4.94437 3.42692C4.0399 4.03126 3.33495 4.89025 2.91867 5.89524C2.50238 6.90023 2.39347 8.0061 2.60568 9.073C2.8179 10.1399 3.34173 11.1199 4.11092 11.8891C4.8801 12.6583 5.86011 13.1821 6.92701 13.3943C7.9939 13.6065 9.09977 13.4976 10.1048 13.0813C11.1098 12.6651 11.9687 11.9601 12.5731 11.0556C13.0375 10.3606 13.3355 9.5717 13.4486 8.75H11.3981C11.3053 9.17026 11.1349 9.57184 10.8934 9.93332C10.511 10.5056 9.96756 10.9516 9.3317 11.215C8.69583 11.4784 7.99614 11.5473 7.32111 11.413C6.64608 11.2787 6.02603 10.9473 5.53936 10.4606C5.05269 9.97398 4.72126 9.35392 4.58699 8.67889C4.45272 8.00386 4.52163 7.30417 4.78501 6.66831C5.0484 6.03244 5.49442 5.48896 6.06669 5.10659C6.42816 4.86506 6.82975 4.69466 7.25 4.6019V2.55137ZM8.75 2.55138L8.75 4.6019C8.94841 4.64569 9.14308 4.70688 9.33169 4.78501C9.75389 4.95989 10.1375 5.21622 10.4606 5.53935C10.7838 5.86249 11.0401 6.24611 11.215 6.66831C11.2931 6.85692 11.3543 7.05159 11.3981 7.25H13.4486C13.3847 6.7856 13.2615 6.33024 13.0813 5.89524C12.8049 5.22795 12.3998 4.62163 11.8891 4.11091C11.3784 3.60019 10.7721 3.19506 10.1048 2.91866C9.66976 2.73848 9.2144 2.6153 8.75 2.55138Z" fill="#18181B"/>
</svg>
