<svg width="16" height="16" viewBox="0 0 16 16" fill="none" xmlns="http://www.w3.org/2000/svg">
<g clip-path="url(#clip0_2217_2349)">
<path fill-rule="evenodd" clip-rule="evenodd" d="M10.2567 4.20053C10.0938 4.3906 9.85592 4.5 9.60557 4.5C9.53546 4.5 9.4656 4.4914 9.39758 4.47439L6.29382 3.69845C5.77537 3.56884 5.23072 3.58976 4.72374 3.75875C4.24982 3.91672 3.82659 4.19818 3.49763 4.57413L1.24227 7.15169C0.763755 7.69856 0.5 8.40053 0.5 9.1272V11.9982V12C0.5 13.07 1.34034 13.9438 2.39708 13.9974C2.43117 13.9991 2.46548 14 2.5 14H13.5C14.6046 14 15.5 13.1046 15.5 12V8.337V3.30869C15.5 2.51829 15.0188 1.80751 14.2849 1.51396C13.7906 1.31622 13.2505 1.33506 12.7848 1.541C12.5267 1.65512 12.2914 1.8267 12.0994 2.05072L10.7895 3.57888L10.2567 4.20053ZM14 6.47859V3.30869C14 3.13164 13.8922 2.97243 13.7278 2.90667C13.5557 2.83784 13.3589 2.88618 13.2383 3.02691L11.3956 5.17671C10.9477 5.69926 10.2938 6 9.60557 6C9.41281 6 9.22078 5.97636 9.03378 5.92961L5.93002 5.15367C5.68833 5.09324 5.43442 5.103 5.19808 5.18178C4.97715 5.25542 4.77985 5.38663 4.6265 5.56189L2.37113 8.13945C2.13188 8.41288 2 8.76387 2 9.1272V9.8125L4.30387 8.37258C4.43436 8.29102 4.57187 8.22125 4.71474 8.1641C5.3756 7.89976 6.11612 7.91898 6.76238 8.21725L8.68538 9.10479C8.89266 9.20045 9.11823 9.25 9.34651 9.25C9.76493 9.25 10.1662 9.08378 10.4621 8.78791L10.6826 8.56743L12.2565 6.9935C12.7593 6.4907 13.412 6.3487 14 6.47859ZM2 11.9982C2 12.2761 2.22563 12.5 2.5 12.5H13.5C13.7761 12.5 14 12.2761 14 12V8.337C14 7.98065 13.5691 7.80217 13.3172 8.05416L11.5227 9.84857C10.9456 10.4257 10.1628 10.75 9.34651 10.75C8.90117 10.75 8.46114 10.6533 8.05679 10.4667L6.13379 9.57919C5.86175 9.45363 5.55002 9.44554 5.27183 9.55682C5.21168 9.58087 5.1538 9.61024 5.09887 9.64458L2.3525 11.3611C2.13392 11.4977 2 11.7388 2 11.9982Z" fill="#18181B"/>
</g>
<defs>
<clipPath id="clip0_2217_2349">
<rect width="16" height="16" fill="white"/>
</clipPath>
</defs>
</svg>
