<svg width="16" height="16" viewBox="0 0 16 16" fill="none" xmlns="http://www.w3.org/2000/svg">
<g clip-path="url(#clip0_2217_2355)">
<path fill-rule="evenodd" clip-rule="evenodd" d="M15.3262 1.26988C15.5914 1.58809 15.5484 2.06101 15.2302 2.32619L11.5559 5.38815C10.8469 5.97891 9.88901 6.17473 9.00514 5.90957L6.13727 5.0492C5.71063 4.92121 5.24811 5.02992 4.92316 5.33456L1.76304 8.29718C1.46086 8.58048 0.986233 8.56517 0.702936 8.26298C0.419639 7.9608 0.434949 7.48617 0.737133 7.20287L3.89725 4.24026C4.61215 3.57004 5.62968 3.33088 6.56829 3.61246L9.43616 4.47283C9.83792 4.59335 10.2733 4.50434 10.5956 4.23582L14.2699 1.17385C14.5881 0.90868 15.0611 0.951673 15.3262 1.26988ZM15.4394 7.45459C15.6026 7.83531 15.4262 8.27622 15.0455 8.43938L10.6481 10.324C9.9046 10.6426 9.05851 10.6178 8.335 10.256L6.18647 9.18175C5.79072 8.98387 5.31986 9.00995 4.94839 9.25032L1.65753 11.3797C1.30976 11.6047 0.845433 11.5052 0.620411 11.1575C0.39539 10.8097 0.494889 10.3454 0.84265 10.1203L4.13351 7.99096C4.95075 7.46216 5.98665 7.40479 6.85729 7.84011L9.00582 8.91437C9.33469 9.07881 9.71927 9.09011 10.0572 8.94527L14.4546 7.06067C14.8353 6.8975 15.2763 7.07386 15.4394 7.45459ZM1.25009 12.5C0.835875 12.5 0.500089 12.8358 0.500089 13.25C0.500089 13.6642 0.835875 14 1.25009 14H14.7501C15.1643 14 15.5001 13.6642 15.5001 13.25C15.5001 12.8358 15.1643 12.5 14.7501 12.5H1.25009Z" fill="#18181B"/>
</g>
<defs>
<clipPath id="clip0_2217_2355">
<rect width="16" height="16" fill="white"/>
</clipPath>
</defs>
</svg>
