<svg width="16" height="16" viewBox="0 0 16 16" fill="none" xmlns="http://www.w3.org/2000/svg">
<g clip-path="url(#clip0_2217_3639)">
<path fill-rule="evenodd" clip-rule="evenodd" d="M11 4C11 3.72386 11.2239 3.5 11.5 3.5H13.5C13.7761 3.5 14 3.72386 14 4V12C14 12.2761 13.7761 12.5 13.5 12.5H11.5C11.2239 12.5 11 12.2761 11 12V7V4.5V4ZM9 12.5C9.27614 12.5 9.5 12.2761 9.5 12V7C9.5 6.72386 9.27614 6.5 9 6.5H7C6.72386 6.5 6.5 6.72386 6.5 7V7.5V10V12C6.5 12.2761 6.72386 12.5 7 12.5H9ZM4.5 12.5C4.77614 12.5 5 12.2761 5 12V10C5 9.72386 4.77614 9.5 4.5 9.5H2.5C2.22386 9.5 2 9.72386 2 10V12C2 12.2761 2.22386 12.5 2.5 12.5H4.5ZM2 7.5V4C2 3.72386 2.22386 3.5 2.5 3.5H4.5C4.77614 3.5 5 3.72386 5 4V4.5V7V7.5C5 7.77614 4.77614 8 4.5 8H2.5C2.22386 8 2 7.77614 2 7.5ZM7 3.5H9C9.27614 3.5 9.5 3.72386 9.5 4V4.5C9.5 4.77614 9.27614 5 9 5H7C6.72386 5 6.5 4.77614 6.5 4.5V4C6.5 3.72386 6.72386 3.5 7 3.5ZM7 2H4.5H2.5C1.39543 2 0.5 2.89543 0.5 4V7.5V10V12C0.5 13.1046 1.39543 14 2.5 14H4.5H7H9H11.5H13.5C14.6046 14 15.5 13.1046 15.5 12V4C15.5 2.89543 14.6046 2 13.5 2H11.5H9H7Z" fill="black"/>
</g>
<defs>
<clipPath id="clip0_2217_3639">
<rect width="16" height="16" fill="white"/>
</clipPath>
</defs>
</svg>
