<svg width="16" height="16" viewBox="0 0 16 16" fill="none" xmlns="http://www.w3.org/2000/svg">
<g clip-path="url(#clip0_2217_2738)">
<path fill-rule="evenodd" clip-rule="evenodd" d="M7.71062 0.0580883C6.08888 0.73403 4.95112 1.78196 4.29453 3.09815C4.28363 3.11999 4.27288 3.14187 4.26228 3.1638C3.88517 3.94378 3.68567 4.79318 3.63839 5.68024C3.61211 6.17343 3.63288 6.67827 3.69636 7.18929C3.69682 7.19303 3.69729 7.19675 3.69775 7.20049C3.69841 7.20569 3.69906 7.21089 3.69972 7.2161C2.12889 7.75577 1 9.24606 1 11C1 13.2091 2.79086 15 5 15C6.00387 15 6.92137 14.6302 7.6237 14.0194C7.88735 13.7901 8.12067 13.5268 8.31686 13.2364C8.35522 13.1797 8.39215 13.1219 8.42761 13.0631C8.74528 13.3301 9.10507 13.5486 9.4956 13.7073C9.91296 13.8768 10.3654 13.9779 10.839 13.9966C10.8924 13.9987 10.9461 13.9998 11 13.9998C13.2091 13.9998 15 12.209 15 9.99981C15 8.71243 14.3918 7.5671 13.4471 6.83545C12.7707 6.31159 11.9218 5.99981 11 5.99981C10.9436 5.99981 10.8874 6.00098 10.8316 6.00329C10.4032 6.02104 9.99227 6.10615 9.60902 6.2483C9.60899 6.24829 9.60905 6.24831 9.60902 6.2483C9.3783 6.173 9.16619 6.08353 8.9725 5.98178C8.94322 5.9664 8.91436 5.95074 8.88592 5.9348C8.87805 5.9304 8.87021 5.92597 8.86241 5.92152C8.70908 5.83408 8.56807 5.73857 8.43916 5.63601C8.06743 5.34028 7.79638 4.98595 7.62091 4.59747C7.31807 3.92698 7.26585 3.07827 7.573 2.12052C7.57292 2.12078 7.57309 2.12025 7.573 2.12052C7.7038 2.48199 7.86459 2.81322 8.05291 3.11552C8.27318 3.46911 8.53147 3.78202 8.82465 4.05378C9.07752 4.28817 9.35635 4.49194 9.65914 4.66479C9.6716 4.6719 9.68409 4.67896 9.69663 4.68597C9.8149 4.75206 9.93582 4.81296 10.0592 4.86886C10.3594 5.00491 10.6741 5.11126 11 5.19041C11.3429 5.27369 11.6982 5.32685 12.0622 5.35278C12.4218 5.3784 12.7898 5.37746 13.1628 5.35276C13.1707 5.35224 13.1786 5.3517 13.1865 5.35116C13.4004 5.33642 13.6158 5.3139 13.8322 5.28412C13.9291 5.27079 14.0261 5.256 14.1233 5.23981C14.5319 5.17171 14.8079 4.78529 14.7398 4.37671C14.68 4.01771 14.594 3.68408 14.484 3.37473C14.4805 3.36491 14.477 3.35511 14.4735 3.34533C14.2567 2.74712 13.9491 2.2405 13.5653 1.81747C13.5463 1.79657 13.5272 1.7759 13.5079 1.75544C13.1517 1.37796 12.7389 1.07566 12.2884 0.837172C11.0684 0.19129 9.55297 0.00141601 8.01711 2.02795e-05C7.91538 -0.00235618 7.8106 0.0164295 7.71062 0.0580883ZM9.31513 2.30486C9.5553 2.69479 9.8513 2.9966 10.1862 3.22638C10.2649 3.28034 10.3456 3.33033 10.4284 3.37655C10.4351 3.38032 10.4419 3.38406 10.4486 3.38778C10.6753 3.5123 10.924 3.61315 11.1927 3.68992C11.7386 3.84586 12.3674 3.90243 13.0634 3.85622C13.0522 3.82529 13.0407 3.79479 13.0289 3.7647C12.7664 3.09716 12.3506 2.63289 11.825 2.30079C11.7479 2.25204 11.6683 2.20613 11.5866 2.16285C11.3695 2.04794 11.1334 1.9499 10.8796 1.86729C10.3311 1.68872 9.7 1.58221 9 1.53299C8.98515 1.53195 8.97028 1.53093 8.95537 1.52994C8.96083 1.54601 8.96636 1.56197 8.97196 1.57783C8.9757 1.58843 8.97947 1.59899 8.98327 1.6095C9.07659 1.86755 9.18804 2.09854 9.31513 2.30486ZM5.86664 3.36291C5.86645 3.56363 5.87848 3.7619 5.90282 3.95699C5.95363 4.36422 6.05807 4.75764 6.21695 5.13072C6.22895 5.15891 6.24127 5.18698 6.25389 5.21493C6.25865 5.22547 6.26346 5.236 6.26831 5.2465C6.34285 5.408 6.42706 5.5637 6.52054 5.71327C6.55631 5.77051 6.59344 5.82684 6.63191 5.88226C6.72853 6.02148 6.83358 6.15488 6.94668 6.28217C7.16212 6.52463 7.40681 6.74488 7.67826 6.94077C7.81836 7.04187 7.9656 7.13648 8.11963 7.2243C8.11961 7.22432 8.11964 7.22429 8.11963 7.2243C7.91181 7.43993 7.72794 7.67887 7.57239 7.93675C7.25472 7.66971 6.89493 7.45118 6.50441 7.29255C6.2278 7.1802 5.93577 7.09791 5.63238 7.04972C5.49248 7.0275 5.35017 7.01253 5.20584 7.00521C5.19886 7.00486 5.19184 7.00452 5.18486 7.00421C5.15548 6.76794 5.13733 6.53657 5.13038 6.31049C5.1242 6.10893 5.12691 5.91157 5.13854 5.7187C5.18009 5.02798 5.33579 4.39532 5.60509 3.83259C5.60763 3.82729 5.61017 3.82201 5.61272 3.81673C5.68669 3.66373 5.76988 3.51433 5.86275 3.36898C5.86404 3.36696 5.86534 3.36494 5.86664 3.36291ZM8.60795 9.27083C8.63516 9.32751 8.66108 9.38491 8.68566 9.44303C8.88807 9.92158 9 10.4477 9 11C9 11.1569 8.99096 11.3117 8.97338 11.464C9.42757 12.0915 10.1661 12.4998 11 12.4998C12.3807 12.4998 13.5 11.3805 13.5 9.99981C13.5 8.6191 12.3807 7.49981 11 7.49981C10.2941 7.49981 9.65654 7.79237 9.20194 8.26286C9.20117 8.26365 9.20041 8.26445 9.19965 8.26524C9.18417 8.2813 9.16891 8.29756 9.15387 8.31401C8.90628 8.585 8.71757 8.91069 8.60795 9.27083ZM7.49973 11.0372C7.49991 11.0248 7.5 11.0124 7.5 11C7.5 9.6193 6.38071 8.50001 5 8.50001C4.0164 8.50001 3.16547 9.06804 2.75736 9.89396C2.59259 10.2274 2.5 10.6029 2.5 11C2.5 12.3807 3.61929 13.5 5 13.5C5.04754 13.5 5.09478 13.4987 5.14168 13.4961C6.44424 13.4233 7.48056 12.3534 7.49973 11.0372Z" fill="#18181B"/>
</g>
<defs>
<clipPath id="clip0_2217_2738">
<rect width="16" height="16" fill="white"/>
</clipPath>
</defs>
</svg>
