<svg width="16" height="16" viewBox="0 0 16 16" fill="none" xmlns="http://www.w3.org/2000/svg">
<path fill-rule="evenodd" clip-rule="evenodd" d="M2.14106 3.58057C1.84816 3.28768 1.37329 3.28768 1.08039 3.58057C0.787498 3.87346 0.7875 4.34834 1.08039 4.64123L4.43918 8L1.08561 11.3536C0.792717 11.6464 0.792717 12.1213 1.08561 12.4142C1.37851 12.7071 1.85338 12.7071 2.14627 12.4142L6.03018 8.53033C6.17083 8.38968 6.24985 8.19891 6.24985 8C6.24985 7.80109 6.17083 7.61032 6.03017 7.46967L2.14106 3.58057ZM13.8586 12.4194C14.1515 12.7123 14.6263 12.7123 14.9192 12.4194C15.2121 12.1265 15.2121 11.6517 14.9192 11.3588L11.5605 8L14.914 4.64645C15.2069 4.35356 15.2069 3.87869 14.914 3.58579C14.6211 3.2929 14.1463 3.2929 13.8534 3.58579L9.96946 7.46967C9.82881 7.61032 9.74979 7.80109 9.74979 8C9.74979 8.19891 9.82881 8.38968 9.96946 8.53033L13.8586 12.4194Z" fill="#18181B"/>
</svg>
