<svg width="16" height="16" viewBox="0 0 16 16" fill="none" xmlns="http://www.w3.org/2000/svg">
<path fill-rule="evenodd" clip-rule="evenodd" d="M5.14206 5.56798C4.95265 5.75104 4.95265 6.04783 5.14206 6.23089C5.33146 6.41395 5.63855 6.41395 5.82796 6.23089L8 4.13166L10.1687 6.22764C10.3581 6.4107 10.6652 6.41069 10.8546 6.22764C11.044 6.04458 11.044 5.74778 10.8546 5.56472L8.34295 3.13729C8.15354 2.95424 7.84645 2.95424 7.65705 3.13729L5.14206 5.56798ZM10.8579 10.432C11.0474 10.249 11.0474 9.95216 10.8579 9.7691C10.6685 9.58604 10.3614 9.58604 10.172 9.7691L8 11.8683L5.83135 9.77239C5.64194 9.58933 5.33485 9.58933 5.14544 9.77239C4.95604 9.95545 4.95604 10.2522 5.14544 10.4353L7.65704 12.8627C7.748 12.9506 7.87136 13 8 13C8.12863 13 8.25199 12.9506 8.34295 12.8627L10.8579 10.432Z" fill="#18181B"/>
</svg>
