<svg width="16" height="16" viewBox="0 0 16 16" fill="none" xmlns="http://www.w3.org/2000/svg">
<path fill-rule="evenodd" clip-rule="evenodd" d="M12.4194 2.14129C12.7123 1.8484 12.7123 1.37353 12.4194 1.08063C12.1265 0.787739 11.6516 0.787739 11.3587 1.08063L7.99995 4.4394L4.6464 1.08585C4.3535 0.792955 3.87863 0.792955 3.58574 1.08585C3.29284 1.37874 3.29284 1.85362 3.58574 2.14651L7.46962 6.03039C7.61027 6.17104 7.80104 6.25006 7.99995 6.25006C8.19886 6.25006 8.38963 6.17105 8.53028 6.03039L12.4194 2.14129ZM3.58051 13.8587C3.28762 14.1516 3.28762 14.6265 3.58051 14.9194C3.8734 15.2123 4.34828 15.2123 4.64117 14.9194L7.99995 11.5606L11.3535 14.9142C11.6464 15.207 12.1213 15.2071 12.4142 14.9142C12.7071 14.6213 12.7071 14.1464 12.4142 13.8535L8.53028 9.96961C8.38963 9.82896 8.19886 9.74994 7.99995 9.74994C7.80104 9.74994 7.61027 9.82896 7.46962 9.96961L3.58051 13.8587Z" fill="#18181B"/>
</svg>
