<svg width="16" height="16" viewBox="0 0 16 16" fill="none" xmlns="http://www.w3.org/2000/svg">
<path fill-rule="evenodd" clip-rule="evenodd" d="M13.5 8C13.5 11.0376 11.0376 13.5 8 13.5C4.96243 13.5 2.5 11.0376 2.5 8C2.5 4.96243 4.96243 2.5 8 2.5C11.0376 2.5 13.5 4.96243 13.5 8ZM15 8C15 11.866 11.866 15 8 15C4.13401 15 1 11.866 1 8C1 4.13401 4.13401 1 8 1C11.866 1 15 4.13401 15 8ZM8.05387 4.50241C7.34581 4.50241 6.71407 4.68144 6.24298 5.05978C5.75876 5.44867 5.50354 6.00371 5.50354 6.60457C5.50354 7.36888 5.97711 7.86997 6.44351 8.1637C6.89955 8.45092 7.44963 8.61245 7.89126 8.71053C8.35308 8.81309 8.73454 8.90215 9.00955 9.05241C9.23716 9.17678 9.2841 9.27588 9.28407 9.42775C9.28406 9.53014 9.24327 9.64469 9.03569 9.76943C8.81184 9.90394 8.45948 9.99759 8.05387 9.99759C7.70992 9.99759 7.37157 9.88376 7.10155 9.70762C6.82 9.52396 6.68177 9.32014 6.64454 9.20217C6.51989 8.80716 6.09861 8.58799 5.7036 8.71265C5.30859 8.83731 5.08943 9.25858 5.21408 9.65359C5.38559 10.1971 5.80552 10.6531 6.28201 10.9639C6.77002 11.2823 7.38958 11.4976 8.05387 11.4976C8.65649 11.4976 9.29416 11.3641 9.80831 11.0551C10.3387 10.7364 10.7839 10.1911 10.7841 9.42802C10.7842 8.56367 10.2746 8.03429 9.72876 7.73608C9.25138 7.47525 8.67277 7.3472 8.26878 7.25779L8.21647 7.2462C7.83007 7.16039 7.47999 7.04378 7.24288 6.89445C7.01612 6.75164 7.00354 6.65777 7.00354 6.60457C7.00354 6.44822 7.06038 6.32718 7.18225 6.2293C7.31727 6.12086 7.5857 6.00241 8.05387 6.00241C8.52222 6.00241 8.7949 6.11138 8.95363 6.21958C9.11212 6.32763 9.2102 6.47109 9.26928 6.63082C9.41297 7.01931 9.84439 7.21776 10.2329 7.07408C10.6214 6.93039 10.8198 6.49897 10.6761 6.11048C10.5265 5.70583 10.2533 5.29017 9.79856 4.98019C9.34411 4.67038 8.76174 4.50241 8.05387 4.50241Z" fill="#18181B"/>
</svg>
