<svg width="16" height="16" viewBox="0 0 16 16" fill="none" xmlns="http://www.w3.org/2000/svg">
<path fill-rule="evenodd" clip-rule="evenodd" d="M13.5 8C13.5 11.0376 11.0376 13.5 8 13.5C4.96243 13.5 2.5 11.0376 2.5 8C2.5 4.96243 4.96243 2.5 8 2.5C11.0376 2.5 13.5 4.96243 13.5 8ZM15 8C15 11.866 11.866 15 8 15C4.13401 15 1 11.866 1 8C1 4.13401 4.13401 1 8 1C11.866 1 15 4.13401 15 8ZM6.75 4C6.33579 4 6 4.33579 6 4.75V7.25H5.875C5.46079 7.25 5.125 7.58579 5.125 8C5.125 8.41421 5.46079 8.75 5.875 8.75H6V9.25H5.875C5.46079 9.25 5.125 9.58579 5.125 10C5.125 10.4142 5.46079 10.75 5.875 10.75H6V11.25C6 11.6642 6.33579 12 6.75 12C7.16421 12 7.5 11.6642 7.5 11.25V10.75H9C9.41421 10.75 9.75 10.4142 9.75 10C9.75 9.58579 9.41421 9.25 9 9.25H7.5V8.75H8.625C9.93668 8.75 11 7.68668 11 6.375C11 5.06332 9.93668 4 8.625 4H6.75ZM8.625 7.25H7.5V5.5H8.625C9.10825 5.5 9.5 5.89175 9.5 6.375C9.5 6.85825 9.10825 7.25 8.625 7.25Z" fill="#18181B"/>
</svg>
