<svg width="16" height="16" viewBox="0 0 16 16" fill="none" xmlns="http://www.w3.org/2000/svg">
<path fill-rule="evenodd" clip-rule="evenodd" d="M13.5 8C13.5 11.0376 11.0376 13.5 8 13.5C4.96243 13.5 2.5 11.0376 2.5 8C2.5 4.96243 4.96243 2.5 8 2.5C11.0376 2.5 13.5 4.96243 13.5 8ZM15 8C15 11.866 11.866 15 8 15C4.13401 15 1 11.866 1 8C1 4.13401 4.13401 1 8 1C11.866 1 15 4.13401 15 8ZM5.75 5.5C5.75 5.08579 6.08579 4.75 6.5 4.75H8.25C9.49264 4.75 10.5 5.75736 10.5 7C10.5 7.72276 10.1592 8.36592 9.62957 8.77757L10.4012 10.1279C10.6067 10.4875 10.4817 10.9457 10.1221 11.1512C9.76247 11.3567 9.30433 11.2317 9.09882 10.8721L8.1719 9.25H7.25V10.5C7.25 10.9142 6.91421 11.25 6.5 11.25C6.08579 11.25 5.75 10.9142 5.75 10.5V8.5V5.5ZM7.25 7.75H8.25C8.66421 7.75 9 7.41421 9 7C9 6.58579 8.66421 6.25 8.25 6.25H7.25V7.75Z" fill="#18181B"/>
</svg>
