<svg width="16" height="16" viewBox="0 0 16 16" fill="none" xmlns="http://www.w3.org/2000/svg">
<path fill-rule="evenodd" clip-rule="evenodd" d="M2.5 8C2.5 11.0376 4.96244 13.5 8 13.5C11.0376 13.5 13.5 11.0376 13.5 8C13.5 4.96243 11.0376 2.5 8 2.5C4.96244 2.5 2.5 4.96243 2.5 8ZM1 8C1 11.866 4.13401 15 8 15C11.866 15 15 11.866 15 8C15 4.13401 11.866 1 8 1C4.13401 1 1 4.13401 1 8ZM4.96961 10.2803C4.67672 9.98744 4.67672 9.51256 4.96961 9.21967L6.18928 8L4.96961 6.78033C4.67672 6.48744 4.67672 6.01256 4.96961 5.71967C5.2625 5.42678 5.73738 5.42678 6.03027 5.71967L7.78027 7.46967C7.92092 7.61032 7.99994 7.80109 7.99994 8C7.99994 8.19891 7.92092 8.38968 7.78027 8.53033L6.03027 10.2803C5.73738 10.5732 5.2625 10.5732 4.96961 10.2803ZM8.71961 9.21967C8.42672 9.51256 8.42672 9.98744 8.71961 10.2803C9.0125 10.5732 9.48738 10.5732 9.78027 10.2803L11.5303 8.53033C11.6709 8.38968 11.7499 8.19891 11.7499 8C11.7499 7.80109 11.6709 7.61032 11.5303 7.46967L9.78027 5.71967C9.48738 5.42678 9.0125 5.42678 8.71961 5.71967C8.42672 6.01256 8.42672 6.48744 8.71961 6.78033L9.93928 8L8.71961 9.21967Z" fill="#18181B"/>
</svg>
