<svg width="16" height="16" viewBox="0 0 16 16" fill="none" xmlns="http://www.w3.org/2000/svg">
<path fill-rule="evenodd" clip-rule="evenodd" d="M8 13.5C11.0376 13.5 13.5 11.0376 13.5 8C13.5 4.96243 11.0376 2.5 8 2.5C4.96243 2.5 2.5 4.96243 2.5 8C2.5 11.0376 4.96243 13.5 8 13.5ZM8 15C11.866 15 15 11.866 15 8C15 4.13401 11.866 1 8 1C4.13401 1 1 4.13401 1 8C1 11.866 4.13401 15 8 15ZM6.22143 7.29834C5.94514 7.02205 5.49718 7.02205 5.22089 7.29834C4.75931 7.75992 4.5 8.38595 4.5 9.03872C4.5 10.398 5.60195 11.5 6.96128 11.5C7.61405 11.5 8.24008 11.2407 8.70166 10.7791C8.97795 10.5028 8.97795 10.0549 8.70166 9.77858L8.64153 9.71845C8.36524 9.44216 7.91729 9.44216 7.641 9.71845C7.46073 9.89872 7.21622 10 6.96128 10C6.43038 10 6 9.56962 6 9.03872C6 8.78378 6.10128 8.53927 6.28155 8.359C6.55784 8.08271 6.55784 7.63476 6.28155 7.35847L6.22143 7.29834ZM9.71845 8.64151C9.44217 8.36523 9.44217 7.91728 9.71845 7.641C9.89872 7.46073 10 7.21622 10 6.96128C10 6.43038 9.56962 6 9.03872 6C8.78378 6 8.53927 6.10128 8.359 6.28155C8.08272 6.55783 7.63477 6.55784 7.35849 6.28155L7.29834 6.2214C7.02206 5.94512 7.02206 5.49717 7.29834 5.22089C7.75992 4.75931 8.38595 4.5 9.03872 4.5C10.398 4.5 11.5 5.60195 11.5 6.96128C11.5 7.61405 11.2407 8.24008 10.7791 8.70166C10.5028 8.97794 10.0549 8.97794 9.7786 8.70166L9.71845 8.64151ZM8.93658 8.12408C9.22947 7.83119 9.22947 7.35631 8.93658 7.06342C8.64369 6.77053 8.16881 6.77053 7.87592 7.06342L7.06342 7.87592C6.77053 8.16881 6.77053 8.64369 7.06342 8.93658C7.35631 9.22947 7.83119 9.22947 8.12408 8.93658L8.93658 8.12408Z" fill="#18181B"/>
</svg>
