<svg width="16" height="16" viewBox="0 0 16 16" fill="none" xmlns="http://www.w3.org/2000/svg">
<path fill-rule="evenodd" clip-rule="evenodd" d="M8 1C4.13401 1 0.999999 4.13401 0.999999 8C0.999998 11.866 4.13401 15 8 15C11.866 15 15 11.866 15 8C15 4.13401 11.866 1 8 1ZM6.03033 6.7197C5.73744 6.42681 5.26256 6.42681 4.96967 6.7197C4.67678 7.01259 4.67678 7.48747 4.96967 7.78036L7.46967 10.2804C7.61032 10.421 7.80109 10.5 8 10.5C8.19891 10.5 8.38968 10.421 8.53033 10.2804L11.0303 7.78036C11.3232 7.48747 11.3232 7.0126 11.0303 6.7197C10.7374 6.42681 10.2626 6.42681 9.96967 6.7197L8 8.68937L6.03033 6.7197Z" fill="black"/>
</svg>
