<svg width="16" height="16" viewBox="0 0 16 16" fill="none" xmlns="http://www.w3.org/2000/svg">
<path fill-rule="evenodd" clip-rule="evenodd" d="M13.5 8C13.5 11.0376 11.0376 13.5 8 13.5C4.96243 13.5 2.5 11.0376 2.5 8C2.5 4.96243 4.96243 2.5 8 2.5C11.0376 2.5 13.5 4.96243 13.5 8ZM15 8C15 11.866 11.866 15 8 15C4.13401 15 1 11.866 1 8C1 4.13401 4.13401 1 8 1C11.866 1 15 4.13401 15 8ZM6.75 5C6.33579 5 6 5.33579 6 5.75V8.75V10.75C6 11.1642 6.33579 11.5 6.75 11.5C7.16421 11.5 7.5 11.1642 7.5 10.75V9.5H8.5C9.74264 9.5 10.75 8.49264 10.75 7.25C10.75 6.00736 9.74264 5 8.5 5H6.75ZM9.25 7.25C9.25 7.66421 8.91421 8 8.5 8H7.5V6.5H8.5C8.91421 6.5 9.25 6.83579 9.25 7.25Z" fill="#18181B"/>
</svg>
