<svg width="16" height="16" viewBox="0 0 16 16" fill="none" xmlns="http://www.w3.org/2000/svg">
<path fill-rule="evenodd" clip-rule="evenodd" d="M8 13.5C11.0376 13.5 13.5 11.0376 13.5 8C13.5 4.96243 11.0376 2.5 8 2.5C4.96243 2.5 2.5 4.96243 2.5 8C2.5 11.0376 4.96243 13.5 8 13.5ZM8 15C11.866 15 15 11.866 15 8C15 4.13401 11.866 0.999999 8 0.999998C4.13401 0.999999 1 4.13401 1 8C1 11.866 4.13401 15 8 15ZM10.2803 11.0303C9.98744 11.3232 9.51256 11.3232 9.21967 11.0303L8 9.81066L6.78033 11.0303C6.48744 11.3232 6.01256 11.3232 5.71967 11.0303C5.42678 10.7374 5.42678 10.2626 5.71967 9.96967L7.46967 8.21967C7.61032 8.07902 7.80109 8 8 8C8.19891 8 8.38968 8.07902 8.53033 8.21967L10.2803 9.96967C10.5732 10.2626 10.5732 10.7374 10.2803 11.0303ZM9.21967 7.28033C9.51256 7.57322 9.98744 7.57322 10.2803 7.28033C10.5732 6.98744 10.5732 6.51256 10.2803 6.21967L8.53033 4.46967C8.38968 4.32902 8.19891 4.25 8 4.25C7.80109 4.25 7.61032 4.32902 7.46967 4.46967L5.71967 6.21967C5.42678 6.51256 5.42678 6.98744 5.71967 7.28033C6.01256 7.57322 6.48744 7.57322 6.78033 7.28033L8 6.06066L9.21967 7.28033Z" fill="#18181B"/>
</svg>
