<svg width="16" height="16" viewBox="0 0 16 16" fill="none" xmlns="http://www.w3.org/2000/svg">
<path fill-rule="evenodd" clip-rule="evenodd" d="M8 15C11.866 15 15 11.866 15 8C15 4.13401 11.866 1 8 1C4.13401 1 1 4.13401 1 8C1 11.866 4.13401 15 8 15ZM6.4402 4.53943C6.87014 4.18627 7.43433 3.97488 8 3.97488C9.21719 3.97488 10.3394 4.79517 10.3394 6.11564C10.3394 6.49181 10.2615 6.86012 10.0421 7.2159C9.83364 7.55385 9.52893 7.82883 9.1671 8.08232C8.94958 8.23471 8.84141 8.33911 8.78829 8.41033C8.74998 8.46169 8.74999 8.48075 8.75 8.49893L8.75 8.49979C8.75 8.914 8.41421 9.24979 8 9.24979C7.58579 9.24979 7.25 8.914 7.25 8.49979C7.25 7.70507 7.79367 7.21302 8.30644 6.8538C8.58617 6.65783 8.70779 6.52182 8.76532 6.42854C8.81185 6.35308 8.83943 6.2699 8.83943 6.11564C8.83943 5.81644 8.59575 5.47488 8 5.47488C7.79492 5.47488 7.56439 5.55717 7.3923 5.69852C7.22487 5.83606 7.16057 5.9853 7.16057 6.11564C7.16057 6.52985 6.82478 6.86564 6.41057 6.86564C5.99635 6.86564 5.66057 6.52985 5.66057 6.11564C5.66057 5.44255 6.0056 4.89641 6.4402 4.53943ZM9 11C9 11.5523 8.55228 12 8 12C7.44772 12 7 11.5523 7 11C7 10.4477 7.44772 10 8 10C8.55228 10 9 10.4477 9 11Z" fill="#18181B"/>
</svg>
