<svg width="16" height="16" viewBox="0 0 16 16" fill="none" xmlns="http://www.w3.org/2000/svg">
<path fill-rule="evenodd" clip-rule="evenodd" d="M13.5 8C13.5 11.0376 11.0376 13.5 8 13.5C4.96243 13.5 2.5 11.0376 2.5 8C2.5 4.96243 4.96243 2.5 8 2.5C11.0376 2.5 13.5 4.96243 13.5 8ZM15 8C15 11.866 11.866 15 8 15C4.13401 15 1 11.866 1 8C1 4.13401 4.13401 1 8 1C11.866 1 15 4.13401 15 8ZM9.5 8.00009C9.5 8.9234 9.26353 9.39556 9.06006 9.62164C8.87475 9.82754 8.56498 10.0001 8 10.0001C7.43502 10.0001 7.12525 9.82754 6.93994 9.62164C6.73647 9.39556 6.5 8.9234 6.5 8.00009C6.5 7.07678 6.73647 6.60462 6.93994 6.37854C7.12525 6.17264 7.43502 6.00009 8 6.00009C8.56498 6.00009 8.87475 6.17264 9.06006 6.37854C9.26353 6.60462 9.5 7.07678 9.5 8.00009ZM11 8.00009C11 10.3334 9.8 11.5001 8 11.5001C6.2 11.5001 5 10.3334 5 8.00009C5 5.66676 6.2 4.50009 8 4.50009C9.8 4.50009 11 5.66676 11 8.00009Z" fill="#18181B"/>
</svg>
