<svg width="16" height="16" viewBox="0 0 16 16" fill="none" xmlns="http://www.w3.org/2000/svg">
<path fill-rule="evenodd" clip-rule="evenodd" d="M6.57581 11.8537C6.23351 11.949 5.87271 12 5.5 12C3.29086 12 1.5 10.2091 1.5 8C1.5 5.79086 3.29086 4 5.5 4C5.87271 4 6.23351 4.05097 6.57581 4.14633C5.60116 5.13871 5 6.49915 5 8C5 9.50085 5.60116 10.8613 6.57581 11.8537ZM8 12.9003C7.24993 13.2837 6.40022 13.5 5.5 13.5C2.46243 13.5 0 11.0376 0 8C0 4.96243 2.46243 2.5 5.5 2.5C6.40022 2.5 7.24993 2.71628 8 3.09971C8.75007 2.71628 9.59978 2.5 10.5 2.5C13.5376 2.5 16 4.96243 16 8C16 11.0376 13.5376 13.5 10.5 13.5C9.59978 13.5 8.75007 13.2837 8 12.9003ZM9.42419 4.14633C9.76649 4.05097 10.1273 4 10.5 4C12.7091 4 14.5 5.79086 14.5 8C14.5 10.2091 12.7091 12 10.5 12C10.1273 12 9.76649 11.949 9.42419 11.8537C10.3988 10.8613 11 9.50085 11 8C11 6.49915 10.3988 5.13871 9.42419 4.14633ZM8 4.87732C8.91446 5.61038 9.5 6.73681 9.5 8C9.5 9.26319 8.91446 10.3896 8 11.1227C7.08554 10.3896 6.5 9.26319 6.5 8C6.5 6.73681 7.08554 5.61038 8 4.87732Z" fill="#18181B"/>
</svg>
