<svg width="16" height="16" viewBox="0 0 16 16" fill="none" xmlns="http://www.w3.org/2000/svg">
<path fill-rule="evenodd" clip-rule="evenodd" d="M3.04716 7.12537C3.4776 7.36407 3.97293 7.5 4.5 7.5C5.62978 7.5 6.6137 6.87548 7.12537 5.95284C7.36407 5.5224 7.5 5.02707 7.5 4.5C7.5 2.84315 6.15685 1.5 4.5 1.5C2.84315 1.5 1.5 2.84315 1.5 4.5C1.5 5.62978 2.12452 6.6137 3.04716 7.12537ZM4.5 6C5.32843 6 6 5.32843 6 4.5C6 3.67157 5.32843 3 4.5 3C3.67157 3 3 3.67157 3 4.5C3 5.32843 3.67157 6 4.5 6ZM3.04716 14.1254C3.4776 14.3641 3.97293 14.5 4.5 14.5C5.62978 14.5 6.6137 13.8755 7.12537 12.9528C7.36407 12.5224 7.5 12.0271 7.5 11.5C7.5 9.84315 6.15685 8.5 4.5 8.5C2.84315 8.5 1.5 9.84315 1.5 11.5C1.5 12.6298 2.12452 13.6137 3.04716 14.1254ZM4.5 13C5.32843 13 6 12.3284 6 11.5C6 10.6716 5.32843 10 4.5 10C3.67157 10 3 10.6716 3 11.5C3 12.3284 3.67157 13 4.5 13ZM11.5 14.5C10.9729 14.5 10.4776 14.3641 10.0472 14.1254C9.12452 13.6137 8.5 12.6298 8.5 11.5C8.5 9.84315 9.84315 8.5 11.5 8.5C13.1569 8.5 14.5 9.84315 14.5 11.5C14.5 12.0271 14.3641 12.5224 14.1254 12.9528C13.6137 13.8755 12.6298 14.5 11.5 14.5ZM13 11.5C13 12.3284 12.3284 13 11.5 13C10.6716 13 10 12.3284 10 11.5C10 10.6716 10.6716 10 11.5 10C12.3284 10 13 10.6716 13 11.5ZM12.2501 2.25C12.2501 1.83579 11.9143 1.5 11.5001 1.5C11.0859 1.5 10.7501 1.83579 10.7501 2.25V3.7513H9.24878C8.83457 3.7513 8.49878 4.08708 8.49878 4.5013C8.49878 4.91551 8.83457 5.2513 9.24878 5.2513H10.7501V6.7526C10.7501 7.16681 11.0859 7.5026 11.5001 7.5026C11.9143 7.5026 12.2501 7.16681 12.2501 6.7526V5.2513H13.7514C14.1656 5.2513 14.5014 4.91551 14.5014 4.5013C14.5014 4.08708 14.1656 3.7513 13.7514 3.7513H12.2501V2.25Z" fill="#18181B"/>
</svg>
