<svg width="16" height="16" viewBox="0 0 16 16" fill="none" xmlns="http://www.w3.org/2000/svg">
<path fill-rule="evenodd" clip-rule="evenodd" d="M13.5 8C13.5 11.0376 11.0376 13.5 8 13.5C4.96243 13.5 2.5 11.0376 2.5 8C2.5 4.96243 4.96243 2.5 8 2.5C11.0376 2.5 13.5 4.96243 13.5 8ZM15 8C15 11.866 11.866 15 8 15C4.13401 15 1 11.866 1 8C1 4.13401 4.13401 1 8 1C11.866 1 15 4.13401 15 8ZM6 5C5.58579 5 5.25 5.33579 5.25 5.75C5.25 6.16421 5.58579 6.5 6 6.5H7.25V10.75C7.25 11.1642 7.58579 11.5 8 11.5C8.41421 11.5 8.75 11.1642 8.75 10.75V6.5H10C10.4142 6.5 10.75 6.16421 10.75 5.75C10.75 5.33579 10.4142 5 10 5H8H6Z" fill="#18181B"/>
</svg>
