<svg width="16" height="16" viewBox="0 0 16 16" fill="none" xmlns="http://www.w3.org/2000/svg">
<path fill-rule="evenodd" clip-rule="evenodd" d="M6.56874 7.08836C7.04202 6.95749 7.58341 6.89145 8.11299 6.90655C8.73594 6.92432 9.42418 7.0569 9.98184 7.40859C10.5777 7.78436 11 8.40221 11 9.25C11 10.6553 9.60917 11.5 7.99992 11.5C7.11462 11.5 6.31246 11.2111 5.74595 10.5509C5.19509 9.90889 4.95825 9.02097 4.95825 8C4.95825 6.96656 5.2166 6.08068 5.77403 5.44362C6.34292 4.79346 7.13812 4.5 8.00001 4.5C9.1699 4.50014 9.79286 4.8079 10.3354 5.07918C10.7059 5.26442 10.8561 5.71493 10.6708 6.08541C10.4856 6.45589 10.0351 6.60606 9.66459 6.42082L9.65328 6.41517C9.2009 6.18895 8.82327 6.00011 7.99992 6C7.48686 6.00002 7.13607 6.16489 6.90289 6.43138C6.77005 6.5832 6.65037 6.79679 6.56874 7.08836ZM8.07024 8.40594C7.60571 8.3927 7.14126 8.46726 6.79878 8.58693C6.67629 8.62973 6.58321 8.67351 6.51706 8.71201C6.5911 9.11526 6.72772 9.39159 6.88433 9.57411C7.10436 9.83055 7.44803 10 7.99992 10C9.26503 10 9.5 9.41413 9.5 9.25C9.5 8.97279 9.39107 8.80939 9.18169 8.67735C8.93412 8.52122 8.54318 8.41943 8.07024 8.40594Z" fill="#18181B"/>
<path fill-rule="evenodd" clip-rule="evenodd" d="M8 13.5C11.0376 13.5 13.5 11.0376 13.5 8C13.5 4.96243 11.0376 2.5 8 2.5C4.96243 2.5 2.5 4.96243 2.5 8C2.5 11.0376 4.96243 13.5 8 13.5ZM8 15C11.866 15 15 11.866 15 8C15 4.13401 11.866 1 8 1C4.13401 1 1 4.13401 1 8C1 11.866 4.13401 15 8 15Z" fill="#18181B"/>
</svg>
