<svg width="16" height="16" viewBox="0 0 16 16" fill="none" xmlns="http://www.w3.org/2000/svg">
<path fill-rule="evenodd" clip-rule="evenodd" d="M4.5 5.25C4.5 3.45507 5.95507 2 7.75 2C9.26394 2 10.5378 3.03585 10.8981 4.43859C10.981 4.76139 11.267 4.99077 11.6001 5.00163C12.3481 5.02603 13.0262 5.32378 13.5395 5.79988C14.1313 6.34878 14.5 7.13076 14.5 8C14.5 8.41421 14.8358 8.75 15.25 8.75C15.6642 8.75 16 8.41421 16 8C16 6.69618 15.4445 5.52097 14.5596 4.70012C13.9161 4.10333 13.0964 3.69175 12.1874 3.55226C11.5041 1.7677 9.77589 0.5 7.75 0.5C5.18545 0.5 3.09558 2.53238 3.00319 5.07437C1.28992 5.42059 0 6.93466 0 8.75C0 10.8211 1.67893 12.5 3.75 12.5H3.7503L3.75242 12.5H3.75271H4.25C4.66421 12.5 5 12.1642 5 11.75C5 11.3358 4.66421 11 4.25 11H3.75242H3.75212L3.75 11H3.74974H3.7497C2.5072 10.9998 1.5 9.99254 1.5 8.75C1.5 7.50795 2.50641 6.50095 3.74823 6.5L3.77718 6.50015C3.99293 6.50124 4.19869 6.40936 4.34191 6.248C4.48512 6.08664 4.5519 5.87141 4.5252 5.65732C4.50859 5.5242 4.5 5.38827 4.5 5.25ZM13.0086 11.189C12.0307 10.9381 11.3506 10.0425 11.3486 9.05058L10.6681 8.79538C10.0428 9.65567 8.9041 9.97929 7.92144 9.61138L7.51527 10.18C8.08443 10.9676 8.08443 12.0495 7.51527 12.8371L7.92144 13.4058C8.9041 13.0379 10.0428 13.3615 10.6681 14.2218L11.3486 13.9666C11.3506 12.9747 12.0307 12.0791 13.0086 11.8282V11.189ZM12.8961 8.79253C13.0348 8.42278 12.8474 8.01065 12.4777 7.87199L10.68 7.19786C10.2327 7.03011 9.73402 7.25676 9.56627 7.7041C9.36659 8.23658 8.70869 8.42945 8.24593 8.09891C7.85147 7.81715 7.29742 7.90432 7.01566 8.29878L5.93981 9.80497C5.69221 10.1516 5.7725 10.6333 6.11914 10.8809C6.5498 11.1885 6.5498 11.8286 6.11914 12.1362C5.7725 12.3838 5.69221 12.8656 5.93981 13.2122L7.01566 14.7184C7.29742 15.1128 7.85147 15.2 8.24593 14.9183C8.70869 14.5877 9.36659 14.7806 9.56627 15.3131C9.73402 15.7604 10.2327 15.9871 10.68 15.8193L12.4777 15.1452C12.8474 15.0065 13.0348 14.5944 12.8961 14.2246C12.7208 13.7572 13.0664 13.2586 13.5656 13.2586H13.7003C14.1467 13.2586 14.5086 12.8967 14.5086 12.4502V10.5669C14.5086 10.1205 14.1467 9.75859 13.7003 9.75859H13.5656C13.0664 9.75859 12.7208 9.25996 12.8961 8.79253ZM11.063 11.5016C11.063 12.0824 10.5922 12.5533 10.0114 12.5533C9.43056 12.5533 8.95972 12.0824 8.95972 11.5016C8.95972 10.9208 9.43056 10.45 10.0114 10.45C10.5922 10.45 11.063 10.9208 11.063 11.5016Z" fill="#18181B"/>
</svg>
