<svg width="16" height="16" viewBox="0 0 16 16" fill="none" xmlns="http://www.w3.org/2000/svg">
<g clip-path="url(#clip0_2217_4593)">
<path fill-rule="evenodd" clip-rule="evenodd" d="M4.97731 4.56291C4.91114 4.57875 4.84577 4.59663 4.78125 4.61647L4.84282 4.62207C3.52126 5.23232 2.58338 6.53196 2.49037 8.05979C1.06279 8.39526 0 9.67696 0 11.2069C0 12.9923 1.44735 14.4397 3.23276 14.4397H3.23435L3.23496 14.4397L9.64538 14.4397L9.64658 14.4397C11.7381 14.4396 13.4404 12.7734 13.4985 10.6959C14.9599 10.1483 16.0001 8.73875 16.0001 7.08621C16.0001 5.1838 14.6217 3.60358 12.8089 3.2895C12.207 1.80083 10.7486 0.75 9.04321 0.75C6.88571 0.75 5.12122 2.43274 4.99062 4.55737C4.98618 4.55921 4.98174 4.56106 4.97731 4.56291ZM13.2332 9.17438C13.9861 8.78183 14.5001 7.99405 14.5001 7.08621C14.5001 5.81272 13.4884 4.77524 12.2252 4.73404C11.8921 4.72318 11.6062 4.4938 11.5233 4.171C11.2395 3.06589 10.2357 2.25 9.04321 2.25C7.82165 2.25 6.7999 3.10547 6.54437 4.25C8.24922 4.25052 9.70709 5.3012 10.3088 6.7895C11.6467 7.0213 12.748 7.94275 13.2332 9.17438ZM3.98276 8.31034C3.98276 6.89631 5.12907 5.75 6.54311 5.75C7.73557 5.75 8.73936 6.56589 9.02317 7.671C9.10607 7.9938 9.39204 8.22318 9.72514 8.23404C10.9883 8.27524 12 9.31272 12 10.5862C12 11.886 10.9463 12.9396 9.64657 12.9397C9.64657 12.9397 9.64656 12.9397 9.64656 12.9397H3.23496L3.23337 12.9397L3.23276 12.9397C2.27578 12.9397 1.5 12.1639 1.5 11.2069C1.5 10.2505 2.27485 9.47507 3.23103 9.47414L3.2546 9.47426C3.47035 9.47535 3.67611 9.38347 3.81933 9.22211C3.96254 9.06075 4.02933 8.84552 4.00262 8.63143C3.98954 8.52656 3.98276 8.41942 3.98276 8.31034ZM9.70313 12.9418L9.70026 12.9416C9.70209 12.9417 9.7037 12.9418 9.70405 12.9419L9.70403 12.9419L9.70385 12.9418L9.70313 12.9418ZM9.59287 14.4377C9.59167 14.4376 9.59057 14.4376 9.58985 14.4375L9.59001 14.4375L9.59287 14.4377Z" fill="black"/>
</g>
<defs>
<clipPath id="clip0_2217_4593">
<rect width="16" height="16" fill="white"/>
</clipPath>
</defs>
</svg>
