<svg width="16" height="16" viewBox="0 0 16 16" fill="none" xmlns="http://www.w3.org/2000/svg">
<path fill-rule="evenodd" clip-rule="evenodd" d="M10.2184 3.21559C10.3374 2.81884 10.1123 2.40073 9.71551 2.28171C9.31877 2.16268 8.90065 2.38782 8.78163 2.78456L5.78163 12.7846C5.66261 13.1813 5.88774 13.5994 6.28449 13.7184C6.68123 13.8375 7.09935 13.6123 7.21837 13.2156L10.2184 3.21559ZM4.53033 4.9695C4.82322 5.26239 4.82322 5.73727 4.53033 6.03016L2.56066 7.99983L4.53033 9.9695C4.82322 10.2624 4.82322 10.7373 4.53033 11.0302C4.23744 11.3231 3.76256 11.3231 3.46967 11.0302L0.96967 8.53016C0.829018 8.38951 0.75 8.19874 0.75 7.99983C0.75 7.80092 0.829018 7.61015 0.96967 7.4695L3.46967 4.9695C3.76256 4.67661 4.23744 4.67661 4.53033 4.9695ZM11.4697 11.0302C11.1768 10.7373 11.1768 10.2624 11.4697 9.9695L13.4393 7.99983L11.4697 6.03016C11.1768 5.73727 11.1768 5.26239 11.4697 4.9695C11.7626 4.67661 12.2374 4.67661 12.5303 4.9695L15.0303 7.4695C15.171 7.61015 15.25 7.80092 15.25 7.99983C15.25 8.19874 15.171 8.38951 15.0303 8.53016L12.5303 11.0302C12.2374 11.3231 11.7626 11.3231 11.4697 11.0302Z" fill="#18181B"/>
</svg>
