<svg width="16" height="16" viewBox="0 0 16 16" fill="none" xmlns="http://www.w3.org/2000/svg">
<path fill-rule="evenodd" clip-rule="evenodd" d="M5.96659 6.39857C6.18387 6.22475 6.37421 6.01866 6.53034 5.78755C6.55121 5.75667 6.57146 5.72534 6.59108 5.69359C6.69448 5.52625 6.78044 5.34701 6.84643 5.15838C6.84654 5.15806 6.84666 5.15774 6.84677 5.15743L8.21967 6.53033C8.51256 6.82322 8.98744 6.82322 9.28033 6.53033C9.29024 6.52042 9.29981 6.51031 9.30904 6.5C9.57289 6.20552 9.56332 5.75266 9.28033 5.46967L8.81066 5L9.50001 5C9.57896 5 9.65649 5.0061 9.73215 5.01785C10.377 5.11804 10.8861 5.62905 10.9832 6.27493C10.9943 6.34835 11 6.4235 11 6.5V8.25C11 8.64378 11.3035 8.96668 11.6893 8.99758C11.7093 8.99918 11.7296 9 11.75 9C12.1642 9 12.5 8.66421 12.5 8.25V6.5C12.5 5.24622 11.7309 4.17208 10.6387 3.72366C10.3643 3.61097 10.0694 3.53779 9.76121 3.51121C9.67513 3.50379 9.58802 3.5 9.50001 3.5H8.81066L9.28033 3.03033C9.56332 2.74734 9.57289 2.29448 9.30904 2C9.29981 1.98969 9.29024 1.97958 9.28033 1.96967C8.98744 1.67678 8.51256 1.67678 8.21967 1.96967L6.84677 3.34257C6.6746 2.84984 6.36615 2.42107 5.96659 2.10143C5.49613 1.72506 4.89934 1.5 4.25 1.5C2.73122 1.5 1.5 2.73122 1.5 4.25C1.5 5.19924 1.98094 6.03615 2.71245 6.53034C2.74333 6.55121 2.77466 6.57146 2.80641 6.59108C3.01914 6.72253 3.25112 6.8258 3.49715 6.89568C3.4981 6.89595 3.49905 6.89622 3.5 6.89648V9.10352C2.34575 9.42998 1.5 10.4912 1.5 11.75C1.5 12.6992 1.98094 13.5361 2.71245 14.0303C2.74333 14.0512 2.77466 14.0715 2.80641 14.0911C3.22601 14.3504 3.72053 14.5 4.25 14.5C5.19924 14.5 6.03615 14.0191 6.53034 13.2876C6.55121 13.2567 6.57146 13.2253 6.59108 13.1936C6.85037 12.774 7 12.2795 7 11.75C7 10.516 6.18721 9.47182 5.06777 9.12363C5.0453 9.11665 5.02271 9.10994 5 9.10352V6.89648C5.35701 6.79551 5.68451 6.62424 5.96659 6.39857ZM10.0303 10.4697C9.73744 10.1768 9.26256 10.1768 8.96967 10.4697C8.67678 10.7626 8.67678 11.2374 8.96967 11.5303L10.9697 13.5303C11.1234 13.6841 11.3363 13.7635 11.5532 13.7481C11.77 13.7327 11.9695 13.6239 12.1 13.45L15.0996 9.45053C15.0995 9.45071 15.0997 9.45035 15.0996 9.45053C15.3481 9.11916 15.2814 8.64853 14.95 8.4C14.6558 8.17931 14.2521 8.20755 13.9914 8.44865C13.9585 8.47907 13.9278 8.51288 13.9 8.55L11.4189 11.8582L10.0303 10.4697ZM3.18761 11.091C3.07347 11.2749 3.00568 11.4903 3.00034 11.7205C3.00011 11.7303 3 11.7402 3 11.75C3 12.4404 3.55965 13 4.25 13C4.94036 13 5.5 12.4404 5.5 11.75C5.5 11.5082 5.43132 11.2823 5.31239 11.091C5.09184 10.7362 4.69851 10.5 4.25 10.5C3.80149 10.5 3.40816 10.7362 3.18761 11.091ZM4.78778 3.12128C5.20898 3.32232 5.5 3.75217 5.5 4.25C5.5 4.94036 4.94035 5.5 4.25 5.5C3.55964 5.5 3 4.94036 3 4.25C3 3.55964 3.55964 3 4.25 3C4.44253 3 4.62489 3.04353 4.78778 3.12128Z" fill="#18181B"/>
</svg>
