<svg width="16" height="16" viewBox="0 0 16 16" fill="none" xmlns="http://www.w3.org/2000/svg">
<path fill-rule="evenodd" clip-rule="evenodd" d="M7.25 1.75006V4.07026C5.39935 4.42131 4 6.04727 4 8.00006C4 9.95285 5.39935 11.5788 7.25 11.9299V14.25C7.25 14.6642 7.58579 15 8 15C8.41421 15 8.75 14.6642 8.75 14.25V11.9299C10.6006 11.5788 12 9.95285 12 8.00006C12 6.04727 10.6006 4.42131 8.75 4.07026V1.75006C8.75 1.33585 8.41421 1.00006 8 1.00006C7.58579 1.00006 7.25 1.33585 7.25 1.75006ZM8 10.5001C9.38071 10.5001 10.5 9.38077 10.5 8.00006C10.5 6.61935 9.38071 5.50006 8 5.50006C6.61929 5.50006 5.5 6.61935 5.5 8.00006C5.5 9.38077 6.61929 10.5001 8 10.5001Z" fill="#18181B"/>
</svg>
