<svg width="16" height="16" viewBox="0 0 16 16" fill="none" xmlns="http://www.w3.org/2000/svg">
<path fill-rule="evenodd" clip-rule="evenodd" d="M4.77229 11.7949L4.84321 10.9438L4.14751 10.4485C3.15593 9.74243 2.5 8.6477 2.5 7C2.5 5.43656 3.09059 4.37922 3.97968 3.67735C4.9132 2.94041 6.30518 2.5 8 2.5C9.69482 2.5 11.0868 2.94041 12.0203 3.67735C12.9094 4.37922 13.5 5.43656 13.5 7C13.5 8.56344 12.9094 9.62078 12.0203 10.3226C11.0868 11.0596 9.69482 11.5 8 11.5C7.92841 11.5 7.85725 11.4992 7.78654 11.4976L7.19716 11.4845L6.75654 11.8761L4.98772 13.4484C4.95034 13.4817 4.90208 13.5 4.85208 13.5C4.73264 13.5 4.63871 13.3979 4.64863 13.2789L4.77229 11.7949ZM7.75309 12.9973L5.98426 14.5695C5.67231 14.8468 5.26945 15 4.85208 15C3.85508 15 3.07101 14.1479 3.15381 13.1543L3.27747 11.6704C1.87785 10.6738 1 9.117 1 7C1 3 4.13401 1 8 1C11.866 1 15 3 15 7C15 11 11.866 13 8 13C7.91735 13 7.83504 12.9991 7.75309 12.9973ZM8.75 5C8.75 4.58579 8.41421 4.25 8 4.25C7.58579 4.25 7.25 4.58579 7.25 5V6.25H6C5.58579 6.25 5.25 6.58579 5.25 7C5.25 7.41421 5.58579 7.75 6 7.75H7.25V9C7.25 9.41421 7.58579 9.75 8 9.75C8.41421 9.75 8.75 9.41421 8.75 9V7.75H10C10.4142 7.75 10.75 7.41421 10.75 7C10.75 6.58579 10.4142 6.25 10 6.25H8.75V5Z" fill="#18181B"/>
</svg>
