<svg width="16" height="16" viewBox="0 0 16 16" fill="none" xmlns="http://www.w3.org/2000/svg">
<path fill-rule="evenodd" clip-rule="evenodd" d="M4.84321 10.9438L4.64863 13.2789C4.63871 13.3979 4.73264 13.5 4.85208 13.5C4.90208 13.5 4.95034 13.4817 4.98772 13.4484L7.19716 11.4845L7.78654 11.4976C7.85725 11.4992 7.92841 11.5 8 11.5C9.69482 11.5 11.0868 11.0596 12.0203 10.3226C12.9094 9.62078 13.5 8.56344 13.5 7C13.5 5.43656 12.9094 4.37922 12.0203 3.67735C11.0868 2.94041 9.69482 2.5 8 2.5C6.30518 2.5 4.9132 2.94041 3.97968 3.67735C3.09059 4.37922 2.5 5.43656 2.5 7C2.5 8.6477 3.15593 9.74243 4.14751 10.4485L4.84321 10.9438ZM5.98426 14.5695L7.75309 12.9973C7.83504 12.9991 7.91735 13 8 13C11.866 13 15 11 15 7C15 3 11.866 1 8 1C4.13401 1 1 3 1 7C1 9.117 1.87785 10.6738 3.27747 11.6704L3.15381 13.1543C3.07101 14.1479 3.85508 15 4.85208 15C5.26945 15 5.67231 14.8468 5.98426 14.5695Z" fill="#18181B"/>
</svg>
