<svg width="16" height="16" viewBox="0 0 16 16" fill="none" xmlns="http://www.w3.org/2000/svg">
<path fill-rule="evenodd" clip-rule="evenodd" d="M2.23483 3.2955L1.96967 3.03034C1.67678 2.73745 1.67678 2.26257 1.96967 1.96968C2.26256 1.67678 2.73744 1.67678 3.03033 1.96968L14.0303 12.9697C14.3232 13.2626 14.3232 13.7375 14.0303 14.0304C13.7374 14.3233 13.2626 14.3233 12.9697 14.0304L11.3487 12.4094C10.354 12.8032 9.21301 13.0001 8 13.0001C7.91735 13.0001 7.83504 12.9992 7.75309 12.9973L5.98426 14.5696C5.67231 14.8469 5.26945 15.0001 4.85208 15.0001C3.85508 15.0001 3.07101 14.148 3.15381 13.1544L3.27747 11.6704C1.87785 10.6738 1 9.11705 1 7.00004C1 5.47415 1.45606 4.23931 2.23483 3.2955ZM10.1647 11.2254C9.52009 11.4036 8.79322 11.5001 8 11.5001C7.92841 11.5001 7.85725 11.4993 7.78654 11.4977L7.19716 11.4845L6.75654 11.8762L4.98772 13.4485C4.95034 13.4817 4.90208 13.5001 4.85208 13.5001C4.73264 13.5001 4.63871 13.398 4.64863 13.279L4.77229 11.795L4.84321 10.9439L4.14751 10.4485C3.15593 9.74248 2.5 8.64774 2.5 7.00004C2.5 5.87962 2.8033 5.01912 3.30241 4.36309L10.1647 11.2254ZM13.5 7.00004C13.5 8.07474 13.2209 8.91031 12.7577 9.55566L13.8284 10.6264C14.5686 9.69292 15 8.48414 15 7.00004C15 3.00001 11.866 1 8 1C6.82822 1 5.72369 1.18374 4.75329 1.55122L5.94692 2.74485C6.56342 2.58574 7.25223 2.50001 8 2.50001C9.69482 2.50001 11.0868 2.94042 12.0203 3.67737C12.9094 4.37924 13.5 5.43659 13.5 7.00004Z" fill="#18181B"/>
</svg>
