<svg width="16" height="16" viewBox="0 0 16 16" fill="none" xmlns="http://www.w3.org/2000/svg">
<path fill-rule="evenodd" clip-rule="evenodd" d="M13.5 8C13.5 11.0376 11.0376 13.5 8 13.5C4.96243 13.5 2.5 11.0376 2.5 8C2.5 4.96243 4.96243 2.5 8 2.5C11.0376 2.5 13.5 4.96243 13.5 8ZM15 8C15 11.866 11.866 15 8 15C4.13401 15 1 11.866 1 8C1 4.13401 4.13401 1 8 1C11.866 1 15 4.13401 15 8ZM8.9108 10.3026L6.01098 11.1081C5.69524 11.1958 5.35672 11.1067 5.125 10.875C4.89328 10.6433 4.80423 10.3048 4.89194 9.98902L5.69745 7.08919C5.88519 6.41331 6.41331 5.88519 7.0892 5.69745L9.98902 4.89194C10.3048 4.80423 10.6433 4.89328 10.875 5.125C11.1067 5.35672 11.1958 5.69524 11.1081 6.01098L10.3026 8.91081C10.1148 9.58669 9.58669 10.1148 8.9108 10.3026ZM9.00002 7.99978C9.00002 8.55206 8.55231 8.99978 8.00002 8.99978C7.44774 8.99978 7.00002 8.55206 7.00002 7.99978C7.00002 7.44749 7.44774 6.99978 8.00002 6.99978C8.55231 6.99978 9.00002 7.44749 9.00002 7.99978Z" fill="#18181B"/>
</svg>
