<svg width="16" height="16" viewBox="0 0 16 16" fill="none" xmlns="http://www.w3.org/2000/svg">
<path fill-rule="evenodd" clip-rule="evenodd" d="M12 2.5H8C7.17157 2.5 6.5 3.17157 6.5 4V5H8C9.65685 5 11 6.34315 11 8V9.5H12C12.8284 9.5 13.5 8.82843 13.5 8V4C13.5 3.17157 12.8284 2.5 12 2.5ZM11 11H12C13.6569 11 15 9.65685 15 8V4C15 2.34315 13.6569 1 12 1H8C6.34315 1 5 2.34315 5 4V5H4C2.34315 5 1 6.34315 1 8V12C1 13.6569 2.34315 15 4 15H8C9.65685 15 11 13.6569 11 12V11ZM8 6.5H4C3.17157 6.5 2.5 7.17157 2.5 8V12C2.5 12.8284 3.17157 13.5 4 13.5H8C8.82843 13.5 9.5 12.8284 9.5 12V8C9.5 7.17157 8.82843 6.5 8 6.5ZM3.75 10C3.75 9.58579 4.08579 9.25 4.5 9.25H7.5C7.91421 9.25 8.25 9.58579 8.25 10C8.25 10.4142 7.91421 10.75 7.5 10.75H4.5C4.08579 10.75 3.75 10.4142 3.75 10Z" fill="#18181B"/>
</svg>
