<svg width="16" height="16" viewBox="0 0 16 16" fill="none" xmlns="http://www.w3.org/2000/svg">
<path fill-rule="evenodd" clip-rule="evenodd" d="M4 6.5C3.17157 6.5 2.5 7.17157 2.5 8V12C2.5 12.8284 3.17157 13.5 4 13.5H8C8.82843 13.5 9.5 12.8284 9.5 12V8C9.5 7.49806 9.25346 7.0537 8.87487 6.78142C8.62861 6.60431 8.32649 6.5 8 6.5H4ZM10 4.93934L10.9697 3.96967C10.9695 3.96988 10.9699 3.96946 10.9697 3.96967C11.2527 3.68729 11.7057 3.67731 12 3.94095C12.0103 3.95019 12.0204 3.95976 12.0303 3.96967C12.0402 3.97958 12.0498 3.98969 12.059 4C12.3227 4.2943 12.3133 4.7468 12.0308 5.02982C12.0307 5.02999 12.031 5.02965 12.0308 5.02982C12.0307 5.02999 12.03 5.03067 12.0298 5.03084L11.0607 6L12.0303 6.96967C12.0302 6.9695 12.0305 6.96984 12.0303 6.96967C12.3128 7.25269 12.3227 7.7057 12.059 8C12.0498 8.01031 12.0402 8.02042 12.0303 8.03033C12.0204 8.04024 12.0103 8.04981 12 8.05904C11.8579 8.18635 11.679 8.25 11.5 8.25C11.321 8.25 11.1421 8.18635 11 8.05904V9.5H12C12.1753 9.5 12.3436 9.46992 12.5 9.41465C12.7131 9.33933 12.9041 9.21722 13.0607 9.06066C13.3321 8.78922 13.5 8.41421 13.5 8V4C13.5 3.58579 13.3321 3.21079 13.0607 2.93934C12.7892 2.66789 12.4142 2.5 12 2.5H8C7.58579 2.5 7.21079 2.66789 6.93934 2.93934C6.78278 3.0959 6.66067 3.2869 6.58535 3.5C6.53008 3.65639 6.5 3.82468 6.5 4V5H7.94096C7.81365 4.85792 7.75 4.67896 7.75 4.5C7.75 4.32104 7.81365 4.14208 7.94096 4C7.95019 3.98969 7.95976 3.97958 7.96967 3.96967C7.97958 3.95976 7.98969 3.95019 8 3.94096C8.29437 3.67721 8.747 3.68668 9.03001 3.96935C9.0299 3.96924 9.03012 3.96946 9.03001 3.96935L10 4.93934ZM8 9.07559L8.08506 8.96927L8 9.07559ZM8 9.07559L6.60911 10.8142C6.60882 10.8146 6.60852 10.8149 6.60823 10.8153L6.08565 11.4685C5.95238 11.6351 5.75448 11.7371 5.54148 11.7489C5.32847 11.7606 5.12052 11.6812 4.96967 11.5303L3.97018 10.5308C3.97001 10.5307 3.97035 10.531 3.97018 10.5308C3.67729 10.2379 3.67678 9.76256 3.96967 9.46967C3.97958 9.45976 3.98969 9.45019 4 9.44096C4.19054 9.27024 4.4474 9.21399 4.68164 9.27221C4.80941 9.30397 4.93045 9.36979 5.03033 9.46967L5.43781 9.87715L6.91379 8.03218C6.9136 8.03241 6.91398 8.03194 6.91379 8.03218C6.92243 8.02138 6.93186 8.01019 6.94096 8C7.20444 7.70488 7.65587 7.66423 7.96852 7.91435C7.97932 7.92299 7.98981 7.93186 8 7.94096C8.02102 7.95972 8.04075 7.97944 8.05917 8C8.29944 8.26805 8.31736 8.67888 8.08506 8.96927M4.91435 10.5315C4.91421 10.5317 4.91449 10.5313 4.91435 10.5315V10.5315ZM15 8C15 9.65685 13.6569 11 12 11H11V12C11 13.6569 9.65685 15 8 15H4C2.34315 15 1 13.6569 1 12V8C1 6.34315 2.34315 5 4 5H5V4C5 2.34315 6.34315 1 8 1H12C13.6569 1 15 2.34315 15 4V8Z" fill="#18181B"/>
</svg>
