<svg width="16" height="16" viewBox="0 0 16 16" fill="none" xmlns="http://www.w3.org/2000/svg">
<path fill-rule="evenodd" clip-rule="evenodd" d="M7.75 0C8.16421 0 8.5 0.335786 8.5 0.75V2H10.5V0.75C10.5 0.335786 10.8358 0 11.25 0C11.6642 0 12 0.335786 12 0.75V2C13.1046 2 14 2.89543 14 4H15.25C15.6642 4 16 4.33579 16 4.75C16 5.16421 15.6642 5.5 15.25 5.5H14V7.5H15.25C15.6642 7.5 16 7.83579 16 8.25C16 8.66421 15.6642 9 15.25 9H14C14 10.1046 13.1046 11 12 11H11V12C11 13.1046 10.1046 14 9 14V15.25C9 15.6642 8.66421 16 8.25 16C7.83579 16 7.5 15.6642 7.5 15.25V14H5.5V15.25C5.5 15.6642 5.16421 16 4.75 16C4.33579 16 4 15.6642 4 15.25V14C2.89543 14 2 13.1046 2 12H0.75C0.335787 12 0 11.6642 0 11.25C0 10.8358 0.335787 10.5 0.75 10.5H2V8.5H0.75C0.335786 8.5 0 8.16421 0 7.75C0 7.33579 0.335786 7 0.75 7H2C2 5.89543 2.89543 5 4 5H5V4C5 2.89543 5.89543 2 7 2V0.75C7 0.335786 7.33579 0 7.75 0ZM6.5 5H9C10.1046 5 11 5.89543 11 7V9.5H12C12.2761 9.5 12.5 9.27614 12.5 9V4C12.5 3.72386 12.2761 3.5 12 3.5H7C6.72386 3.5 6.5 3.72386 6.5 4V5ZM9.5 7C9.5 6.72386 9.27614 6.5 9 6.5H4C3.72386 6.5 3.5 6.72386 3.5 7V12C3.5 12.2761 3.72386 12.5 4 12.5H9C9.27614 12.5 9.5 12.2761 9.5 12V7Z" fill="#18181B"/>
</svg>
