<svg width="16" height="16" viewBox="0 0 16 16" fill="none" xmlns="http://www.w3.org/2000/svg">
<path fill-rule="evenodd" clip-rule="evenodd" d="M12.5 4H3.5C2.67157 4 2 4.67157 2 5.5L14 5.5C14 4.67157 13.3284 4 12.5 4ZM2 10.5V7H14V10.5C14 11.3284 13.3284 12 12.5 12H3.5C2.67157 12 2 11.3284 2 10.5ZM3.5 2.5C1.84315 2.5 0.5 3.84315 0.5 5.5V10.5C0.5 12.1569 1.84315 13.5 3.5 13.5H12.5C14.1569 13.5 15.5 12.1569 15.5 10.5V5.5C15.5 3.84315 14.1569 2.5 12.5 2.5H3.5ZM4.25 9C3.83579 9 3.5 9.33579 3.5 9.75C3.5 10.1642 3.83579 10.5 4.25 10.5H6.75C7.16421 10.5 7.5 10.1642 7.5 9.75C7.5 9.33579 7.16421 9 6.75 9H4.25Z" fill="#18181B"/>
</svg>
