<svg width="16" height="16" viewBox="0 0 16 16" fill="none" xmlns="http://www.w3.org/2000/svg">
<path fill-rule="evenodd" clip-rule="evenodd" d="M3.5 0C3.91421 0 4.25 0.335786 4.25 0.75V2.5H12.5C12.9142 2.5 13.25 2.83579 13.25 3.25V11.75H15.25C15.6642 11.75 16 12.0858 16 12.5C16 12.9142 15.6642 13.25 15.25 13.25H13.25V15.25C13.25 15.6642 12.9142 16 12.5 16C12.0858 16 11.75 15.6642 11.75 15.25V13.25H3.5C3.08579 13.25 2.75 12.9142 2.75 12.5V4H0.75C0.335786 4 0 3.66421 0 3.25C0 2.83579 0.335786 2.5 0.75 2.5H2.75V0.75C2.75 0.335786 3.08579 0 3.5 0ZM4.25 4V11.75H11.75V4H4.25Z" fill="#18181B"/>
</svg>
