<svg width="16" height="16" viewBox="0 0 16 16" fill="none" xmlns="http://www.w3.org/2000/svg">
<g clip-path="url(#clip0_2217_5850)">
<path fill-rule="evenodd" clip-rule="evenodd" d="M10.5215 5.83464C11.3601 5.43302 11.5 5.0399 11.5 4.75C11.5 4.47821 11.3771 4.11571 10.6707 3.74054C10.6236 3.71553 10.5739 3.69046 10.5215 3.66536C9.66646 3.25586 8.35098 3 6.75 3C5.14902 3 3.83354 3.25586 2.97849 3.66536C2.13988 4.06698 2 4.4601 2 4.75C2 5.0399 2.13988 5.43302 2.97849 5.83464C3.83354 6.24414 5.14902 6.5 6.75 6.5C8.35098 6.5 9.66646 6.24414 10.5215 5.83464ZM6.75 8C8.6318 8 10.3194 7.67802 11.4652 7.03407C11.4064 8.38338 11.2494 9.62857 10.8308 10.6499C10.5275 11.39 10.1103 11.9426 9.53509 12.3236C8.95629 12.7069 8.09094 13 6.75002 13C5.4091 13 4.54375 12.7069 3.96494 12.3236C3.38968 11.9426 2.97254 11.39 2.66922 10.6499C2.25063 9.62856 2.09356 8.38338 2.03482 7.03407C3.18064 7.67802 4.8682 8 6.75 8ZM12.9961 4.6119C12.8795 2.5373 10.1276 1.5 6.75 1.5C3.29822 1.5 0.5 2.58333 0.5 4.75C0.5 9 0.500031 14.5 6.75002 14.5C10.1094 14.5 11.6631 12.911 12.3817 10.7813C12.6602 10.6953 12.935 10.5974 13.1996 10.4877C13.8154 10.2323 14.4684 9.87517 14.9903 9.37576C15.5244 8.86455 16 8.11975 16 7.15808C16 6.72087 15.9032 6.26793 15.6553 5.85367C15.4063 5.43758 15.0588 5.15069 14.6994 4.96397C14.1361 4.67125 13.5119 4.60627 12.9961 4.6119ZM12.9929 6.11216C12.9781 7.08259 12.9321 8.07916 12.7895 9.03125C13.753 8.60047 14.5 7.97609 14.5 7.15808C14.5 6.35029 13.8444 6.09931 12.9929 6.11216Z" fill="#18181B"/>
</g>
<defs>
<clipPath id="clip0_2217_5850">
<rect width="16" height="16" fill="white"/>
</clipPath>
</defs>
</svg>
