<svg width="16" height="16" viewBox="0 0 16 16" fill="none" xmlns="http://www.w3.org/2000/svg">
<path fill-rule="evenodd" clip-rule="evenodd" d="M4.25 2.5C3.75388 2.5 3.3655 2.92712 3.41254 3.42101L3.61218 5.51727C3.71681 6.61585 3.05971 7.63207 2.04103 8C3.05971 8.36793 3.71681 9.38415 3.61218 10.4827L3.41254 12.579C3.3655 13.0729 3.75388 13.5 4.25 13.5C4.66421 13.5 5 13.8358 5 14.25C5 14.6642 4.66421 15 4.25 15C2.86927 15 1.78839 13.8113 1.91929 12.4368L2.11894 10.3405C2.16107 9.89817 1.87351 9.49146 1.44243 9.38369L1.30317 9.34888C0.684214 9.19414 0.25 8.638 0.25 8C0.25 7.362 0.684215 6.80586 1.30317 6.65113L1.44243 6.61631C1.87351 6.50854 2.16107 6.10183 2.11894 5.65948L1.91929 3.56322C1.78839 2.18871 2.86927 1 4.25 1C4.66421 1 5 1.33579 5 1.75C5 2.16421 4.66421 2.5 4.25 2.5ZM9.05535 5.13854C9.10601 4.65727 9.57865 4.3382 10.044 4.47114C10.4422 4.58494 10.8573 4.35432 10.9711 3.95604C11.0849 3.55776 10.8543 3.14265 10.456 3.02886C9.09465 2.63989 7.71181 3.57342 7.56359 4.98151L7.45638 6H6.5C6.08579 6 5.75 6.33579 5.75 6.75C5.75 7.16421 6.08579 7.5 6.5 7.5H7.29849L6.94465 10.8615C6.89399 11.3427 6.42135 11.6618 5.95604 11.5289C5.55776 11.4151 5.14265 11.6457 5.02886 12.044C4.91506 12.4422 5.14568 12.8573 5.54396 12.9711C6.90535 13.3601 8.28819 12.4266 8.43641 11.0185L8.80678 7.5H9.75C10.1642 7.5 10.5 7.16421 10.5 6.75C10.5 6.33579 10.1642 6 9.75 6H8.96467L9.05535 5.13854ZM12.5875 12.579C12.6345 13.0729 12.2461 13.5 11.75 13.5C11.3358 13.5 11 13.8358 11 14.25C11 14.6642 11.3358 15 11.75 15C13.1307 15 14.2116 13.8113 14.0807 12.4368L13.8811 10.3405C13.8389 9.89816 14.1265 9.49146 14.5576 9.38369L14.6968 9.34888C15.3158 9.19414 15.75 8.638 15.75 8C15.75 7.362 15.3158 6.80586 14.6968 6.65113L14.5576 6.61631C14.1265 6.50854 13.8389 6.10183 13.8811 5.65948L14.0807 3.56322C14.2116 2.18871 13.1307 1 11.75 1C11.3358 1 11 1.33579 11 1.75C11 2.16421 11.3358 2.5 11.75 2.5C12.2461 2.5 12.6345 2.92712 12.5875 3.42101L12.3878 5.51727C12.2832 6.61585 12.9403 7.63207 13.959 8C12.9403 8.36793 12.2832 9.38415 12.3878 10.4827L12.5875 12.579Z" fill="#18181B"/>
</svg>
