<svg width="16" height="16" viewBox="0 0 16 16" fill="none" xmlns="http://www.w3.org/2000/svg">
<path fill-rule="evenodd" clip-rule="evenodd" d="M8 8.5C9.77592 8.5 11.5149 8.23654 12.8701 7.61248C13.2635 7.43127 13.6498 7.20507 14 6.93074V8C14 10 11.3137 11 8 11C4.68629 11 2 10 2 8V6.93074C2.35019 7.20507 2.73645 7.43127 3.12994 7.61248C4.48513 8.23654 6.22408 8.5 8 8.5ZM14 4C14 6 11.3137 7 8 7C4.68629 7 2 6 2 4C2 3.66432 2.07567 3.35681 2.21729 3.07747C2.91941 1.69249 5.24247 1 8 1C8.82843 1 9.61764 1.0625 10.3355 1.1875C12.489 1.5625 14 2.5 14 4ZM8 15C11.3137 15 14 14 14 12V10.9307C13.6498 11.2051 13.2635 11.4313 12.8701 11.6125C11.5149 12.2365 9.77592 12.5 8 12.5C6.22408 12.5 4.48513 12.2365 3.12994 11.6125C2.73645 11.4313 2.35019 11.2051 2 10.9307V12C2 14 4.68629 15 8 15Z" fill="#18181B"/>
</svg>
