<svg width="16" height="16" viewBox="0 0 16 16" fill="none" xmlns="http://www.w3.org/2000/svg">
<path fill-rule="evenodd" clip-rule="evenodd" d="M4.5 3H11.5C12.3284 3 13 3.67157 13 4.5V11.5C13 12.3284 12.3284 13 11.5 13H4.5C3.67157 13 3 12.3284 3 11.5V4.5C3 3.67157 3.67157 3 4.5 3ZM1.5 4.5C1.5 2.84315 2.84315 1.5 4.5 1.5H11.5C13.1569 1.5 14.5 2.84315 14.5 4.5V11.5C14.5 13.1569 13.1569 14.5 11.5 14.5H4.5C2.84315 14.5 1.5 13.1569 1.5 11.5V4.5ZM10.5 6.65C11.1351 6.65 11.65 6.13513 11.65 5.5C11.65 4.86487 11.1351 4.35 10.5 4.35C9.86485 4.35 9.34998 4.86487 9.34998 5.5C9.34998 6.13513 9.86485 6.65 10.5 6.65ZM9.14998 8C9.14998 8.63513 8.6351 9.15 7.99998 9.15C7.36485 9.15 6.84998 8.63513 6.84998 8C6.84998 7.36487 7.36485 6.85 7.99998 6.85C8.6351 6.85 9.14998 7.36487 9.14998 8ZM5.49998 11.65C6.1351 11.65 6.64998 11.1351 6.64998 10.5C6.64998 9.86487 6.1351 9.35 5.49998 9.35C4.86485 9.35 4.34998 9.86487 4.34998 10.5C4.34998 11.1351 4.86485 11.65 5.49998 11.65ZM11.65 10.5C11.65 11.1351 11.1351 11.65 10.5 11.65C9.86485 11.65 9.34998 11.1351 9.34998 10.5C9.34998 9.86487 9.86485 9.35 10.5 9.35C11.1351 9.35 11.65 9.86487 11.65 10.5ZM5.49998 6.65C6.1351 6.65 6.64998 6.13513 6.64998 5.5C6.64998 4.86487 6.1351 4.35 5.49998 4.35C4.86485 4.35 4.34998 4.86487 4.34998 5.5C4.34998 6.13513 4.86485 6.65 5.49998 6.65Z" fill="#18181B"/>
</svg>
