<svg width="16" height="16" viewBox="0 0 16 16" fill="none" xmlns="http://www.w3.org/2000/svg">
<path fill-rule="evenodd" clip-rule="evenodd" d="M11.5 3H4.5C3.67157 3 3 3.67157 3 4.5V11.5C3 12.3284 3.67157 13 4.5 13H11.5C12.3284 13 13 12.3284 13 11.5V4.5C13 3.67157 12.3284 3 11.5 3ZM4.5 1.5C2.84315 1.5 1.5 2.84315 1.5 4.5V11.5C1.5 13.1569 2.84315 14.5 4.5 14.5H11.5C13.1569 14.5 14.5 13.1569 14.5 11.5V4.5C14.5 2.84315 13.1569 1.5 11.5 1.5H4.5ZM11.65 5.00001C11.65 5.63513 11.1351 6.15001 10.5 6.15001C9.86487 6.15001 9.35 5.63513 9.35 5.00001C9.35 4.36488 9.86487 3.85001 10.5 3.85001C11.1351 3.85001 11.65 4.36488 11.65 5.00001ZM5.5 12.15C6.13513 12.15 6.65 11.6351 6.65 11C6.65 10.3649 6.13513 9.85001 5.5 9.85001C4.86487 9.85001 4.35 10.3649 4.35 11C4.35 11.6351 4.86487 12.15 5.5 12.15ZM11.65 11C11.65 11.6351 11.1351 12.15 10.5 12.15C9.86487 12.15 9.35 11.6351 9.35 11C9.35 10.3649 9.86487 9.85001 10.5 9.85001C11.1351 9.85001 11.65 10.3649 11.65 11ZM5.5 6.15001C6.13513 6.15001 6.65 5.63513 6.65 5.00001C6.65 4.36488 6.13513 3.85001 5.5 3.85001C4.86487 3.85001 4.35 4.36488 4.35 5.00001C4.35 5.63513 4.86487 6.15001 5.5 6.15001ZM11.65 8.00001C11.65 8.63513 11.1351 9.15001 10.5 9.15001C9.86487 9.15001 9.35 8.63513 9.35 8.00001C9.35 7.36488 9.86487 6.85001 10.5 6.85001C11.1351 6.85001 11.65 7.36488 11.65 8.00001ZM5.5 9.15001C6.13513 9.15001 6.65 8.63513 6.65 8.00001C6.65 7.36488 6.13513 6.85001 5.5 6.85001C4.86487 6.85001 4.35 7.36488 4.35 8.00001C4.35 8.63513 4.86487 9.15001 5.5 9.15001Z" fill="#18181B"/>
</svg>
