<svg width="16" height="16" viewBox="0 0 16 16" fill="none" xmlns="http://www.w3.org/2000/svg">
<path fill-rule="evenodd" clip-rule="evenodd" d="M4 12.3719V5.75C4 3.41882 5.93426 1.5 8.29759 1.5C10.6088 1.5 12.5 3.37656 12.5 5.65559V6.11457C12.5 7.50809 11.8911 8.83204 10.833 9.73892C9.8338 10.5954 8.99247 11.6205 8.34726 12.7675L7.98292 13.4152C7.60599 14.0853 6.89694 14.5 6.12811 14.5C4.95279 14.5 4 13.5472 4 12.3719ZM2.5 5.75V12.3719C2.5 14.3756 4.12436 16 6.12811 16C7.43885 16 8.64768 15.293 9.29028 14.1506L9.65462 13.5029C10.2139 12.5087 10.9431 11.6202 11.8092 10.8778C13.1997 9.68595 14 7.94598 14 6.11457V5.65559C14 2.5321 11.4211 0 8.29759 0C5.12196 0 2.5 2.57436 2.5 5.75ZM7.02612 5.58772C7.1038 4.96632 7.63203 4.5 8.25827 4.5C8.94406 4.5 9.5 5.05594 9.5 5.74173V6.25C9.5 6.66421 9.83579 7 10.25 7C10.6642 7 11 6.66421 11 6.25V5.74173C11 4.22752 9.77248 3 8.25827 3C6.87555 3 5.70921 4.02962 5.53771 5.40166L5.25579 7.65697C5.22731 7.88484 5.30479 8.1132 5.46605 8.27669C5.62731 8.44017 5.85459 8.52077 6.08282 8.49541L6.93221 8.40104C7.2351 8.36738 7.5 8.60448 7.5 8.90923C7.5 9.06098 7.4326 9.20489 7.31602 9.30204L6.26986 10.1738C5.95165 10.439 5.90866 10.9119 6.17383 11.2301C6.43901 11.5483 6.91193 11.5913 7.23014 11.3262L8.2763 10.4544C8.73486 10.0722 9 9.50615 9 8.90923C9 7.74253 8.01301 6.82792 6.86185 6.90186L7.02612 5.58772Z" fill="#18181B"/>
</svg>
