<svg width="16" height="16" viewBox="0 0 16 16" fill="none" xmlns="http://www.w3.org/2000/svg">
<path fill-rule="evenodd" clip-rule="evenodd" d="M14 6.49824V11.5001C14 12.3285 13.3284 13.0001 12.5 13.0001H3.5C2.67157 13.0001 2 12.3285 2 11.5001V6.49824C2 5.95803 2.29048 5.45954 2.76048 5.19321L7.26048 2.64321C7.71923 2.38325 8.28077 2.38325 8.73952 2.64321L13.2395 5.19321C13.7095 5.45954 14 5.95803 14 6.49824ZM0.5 6.49824C0.5 5.41781 1.08097 4.42084 2.02096 3.88818L6.52096 1.33818C7.43845 0.818264 8.56155 0.818265 9.47904 1.33818L13.979 3.88818C14.919 4.42084 15.5 5.41781 15.5 6.49824V11.5001C15.5 13.1569 14.1569 14.5001 12.5 14.5001H3.5C1.84315 14.5001 0.5 13.1569 0.5 11.5001V6.49824ZM6.53033 5.96973C6.23744 5.67684 5.76256 5.67684 5.46967 5.96973C5.17678 6.26262 5.17678 6.7375 5.46967 7.03039L6.93934 8.50006L5.46967 9.96973C5.17678 10.2626 5.17678 10.7375 5.46967 11.0304C5.76256 11.3233 6.23744 11.3233 6.53033 11.0304L8 9.56072L9.46967 11.0304C9.76256 11.3233 10.2374 11.3233 10.5303 11.0304C10.8232 10.7375 10.8232 10.2626 10.5303 9.96973L9.06066 8.50006L10.5303 7.03039C10.8232 6.7375 10.8232 6.26262 10.5303 5.96973C10.2374 5.67684 9.76256 5.67684 9.46967 5.96973L8 7.4394L6.53033 5.96973Z" fill="#18181B"/>
</svg>
