<svg width="16" height="16" viewBox="0 0 16 16" fill="none" xmlns="http://www.w3.org/2000/svg">
<path fill-rule="evenodd" clip-rule="evenodd" d="M9.64645 3.26777L12.2322 5.85355C12.4037 6.025 12.5 6.25753 12.5 6.5C12.5 6.74247 12.4037 6.975 12.2322 7.14645L8.71967 10.659L4.84099 6.78033L8.35355 3.26777C8.525 3.09632 8.75753 3 9 3C9.24246 3 9.475 3.09632 9.64645 3.26777ZM3.78033 7.84099L1.76777 9.85355C1.59632 10.025 1.5 10.2575 1.5 10.5C1.5 10.7425 1.59632 10.975 1.76777 11.1464L3.12132 12.5H6.87868L7.65901 11.7197L3.78033 7.84099ZM13.2929 8.20711L9 12.5H15.25C15.6642 12.5 16 12.8358 16 13.25C16 13.6642 15.6642 14 15.25 14H7.5H5H3H2.5L0.707106 12.2071C0.254353 11.7544 0 11.1403 0 10.5C0 9.85971 0.254354 9.24565 0.707107 8.79289L7.29289 2.20711C7.74565 1.75435 8.35971 1.5 9 1.5C9.64029 1.5 10.2544 1.75435 10.7071 2.20711L13.2929 4.79289C13.7456 5.24565 14 5.85971 14 6.5C14 7.14029 13.7456 7.75435 13.2929 8.20711Z" fill="#18181B"/>
</svg>
