<svg width="16" height="16" viewBox="0 0 16 16" fill="none" xmlns="http://www.w3.org/2000/svg">
<g clip-path="url(#clip0_2217_4382)">
<path fill-rule="evenodd" clip-rule="evenodd" d="M8.90996 1.76248L8.58496 8.26248C8.57831 8.39554 8.46849 8.5 8.33527 8.5H7.66465C7.53143 8.5 7.42161 8.39554 7.41496 8.26249L7.08996 1.76249C7.08282 1.61969 7.19667 1.5 7.33965 1.5L8.66027 1.5C8.80325 1.5 8.9171 1.61969 8.90996 1.76248ZM10.0831 8.33739L10.4081 1.83739C10.4581 0.837819 9.66109 0 8.66027 0H7.33965C6.33883 0 5.54185 0.837822 5.59183 1.83739L5.91683 8.33739C5.9634 9.26876 6.73212 10 7.66465 10H8.33527C9.2678 10 10.0365 9.26876 10.0831 8.33739ZM8 12.5C8.55229 12.5 9 12.9477 9 13.5C9 14.0523 8.55229 14.5 8 14.5C7.44772 14.5 7 14.0523 7 13.5C7 12.9477 7.44772 12.5 8 12.5ZM10.5 13.5C10.5 12.1193 9.38071 11 8 11C6.61929 11 5.5 12.1193 5.5 13.5C5.5 14.8807 6.61929 16 8 16C9.38071 16 10.5 14.8807 10.5 13.5Z" fill="#18181B"/>
</g>
<defs>
<clipPath id="clip0_2217_4382">
<rect width="16" height="16" fill="white"/>
</clipPath>
</defs>
</svg>
