<svg width="16" height="16" viewBox="0 0 16 16" fill="none" xmlns="http://www.w3.org/2000/svg">
<path fill-rule="evenodd" clip-rule="evenodd" d="M8 1C7.62814 1 7.26256 1.02906 6.90552 1.08517C6.49633 1.14948 6.21675 1.53332 6.28105 1.94251C6.34536 2.35171 6.72921 2.63129 7.1384 2.56699C7.41868 2.52294 7.7064 2.5 8 2.5C8.2936 2.5 8.58132 2.52294 8.8616 2.56699C9.2708 2.63129 9.65464 2.35171 9.71895 1.94252C9.78325 1.53332 9.50367 1.14948 9.09448 1.08517C8.73744 1.02906 8.37186 1 8 1ZM4.76746 3.54965C5.10237 3.30592 5.17628 2.83683 4.93254 2.50192C4.6888 2.16701 4.21971 2.0931 3.88481 2.33684C3.29145 2.76868 2.76868 3.29145 2.33684 3.8848C2.0931 4.21971 2.16701 4.6888 2.50192 4.93254C2.83683 5.17628 3.30592 5.10237 3.54966 4.76746C3.88934 4.30072 4.30072 3.88934 4.76746 3.54965ZM12.1152 2.33684C11.7803 2.0931 11.3112 2.16701 11.0675 2.50192C10.8237 2.83683 10.8976 3.30592 11.2325 3.54966C11.6993 3.88934 12.1107 4.30072 12.4503 4.76746C12.6941 5.10237 13.1632 5.17628 13.4981 4.93254C13.833 4.6888 13.9069 4.21971 13.6632 3.88481C13.2313 3.29145 12.7086 2.76868 12.1152 2.33684ZM2.56699 7.1384C2.63129 6.7292 2.35171 6.34536 1.94252 6.28105C1.53332 6.21675 1.14948 6.49633 1.08517 6.90552C1.02906 7.26256 1 7.62814 1 8C1 8.37186 1.02906 8.73744 1.08517 9.09448C1.14948 9.50367 1.53332 9.78325 1.94251 9.71895C2.35171 9.65464 2.63129 9.27079 2.56699 8.8616C2.52294 8.58132 2.5 8.2936 2.5 8C2.5 7.7064 2.52294 7.41868 2.56699 7.1384ZM14.9148 6.90552C14.8505 6.49633 14.4667 6.21675 14.0575 6.28105C13.6483 6.34536 13.3687 6.72921 13.433 7.1384C13.4771 7.41868 13.5 7.7064 13.5 8C13.5 8.2936 13.4771 8.58132 13.433 8.8616C13.3687 9.2708 13.6483 9.65464 14.0575 9.71895C14.4667 9.78325 14.8505 9.50367 14.9148 9.09448C14.9709 8.73744 15 8.37186 15 8C15 7.62814 14.9709 7.26256 14.9148 6.90552ZM3.54965 11.2325C3.30592 10.8976 2.83683 10.8237 2.50192 11.0675C2.16701 11.3112 2.0931 11.7803 2.33684 12.1152C2.76868 12.7086 3.29145 13.2313 3.8848 13.6632C4.21971 13.9069 4.6888 13.833 4.93254 13.4981C5.17628 13.1632 5.10237 12.6941 4.76746 12.4503C4.30072 12.1107 3.88934 11.6993 3.54965 11.2325ZM13.6632 12.1152C13.9069 11.7803 13.833 11.3112 13.4981 11.0675C13.1632 10.8237 12.6941 10.8976 12.4503 11.2325C12.1107 11.6993 11.6993 12.1107 11.2325 12.4503C10.8976 12.6941 10.8237 13.1632 11.0675 13.4981C11.3112 13.833 11.7803 13.9069 12.1152 13.6632C12.7086 13.2313 13.2313 12.7086 13.6632 12.1152ZM7.1384 13.433C6.7292 13.3687 6.34536 13.6483 6.28105 14.0575C6.21675 14.4667 6.49633 14.8505 6.90552 14.9148C7.26256 14.9709 7.62814 15 8 15C8.37186 15 8.73744 14.9709 9.09448 14.9148C9.50367 14.8505 9.78325 14.4667 9.71895 14.0575C9.65464 13.6483 9.27079 13.3687 8.8616 13.433C8.58132 13.4771 8.2936 13.5 8 13.5C7.7064 13.5 7.41868 13.4771 7.1384 13.433ZM10 11C10.4142 11 10.75 10.6642 10.75 10.25C10.75 9.83579 10.4142 9.5 10 9.5H6C5.58579 9.5 5.25 9.83579 5.25 10.25C5.25 10.6642 5.58579 11 6 11H10ZM10 8C9.58579 8 9.25 7.66421 9.25 7.25V6.25C9.25 5.83579 9.58579 5.5 10 5.5C10.4142 5.5 10.75 5.83579 10.75 6.25V7.25C10.75 7.66421 10.4142 8 10 8ZM5.25 7.25C5.25 7.66421 5.58579 8 6 8C6.41421 8 6.75 7.66421 6.75 7.25V6.25C6.75 5.83579 6.41421 5.5 6 5.5C5.58579 5.5 5.25 5.83579 5.25 6.25V7.25Z" fill="#18181B"/>
</svg>
