<svg width="16" height="16" viewBox="0 0 16 16" fill="none" xmlns="http://www.w3.org/2000/svg">
<path fill-rule="evenodd" clip-rule="evenodd" d="M13.5 8C13.5 11.0376 11.0376 13.5 8 13.5C4.96243 13.5 2.5 11.0376 2.5 8C2.5 4.96243 4.96243 2.5 8 2.5C11.0376 2.5 13.5 4.96243 13.5 8ZM15 8C15 11.866 11.866 15 8 15C4.13401 15 1 11.866 1 8C1 4.13401 4.13401 1 8 1C11.866 1 15 4.13401 15 8ZM6.67082 9.66459C6.48558 9.29411 6.03507 9.14394 5.66459 9.32918C5.29411 9.51442 5.14394 9.96493 5.32918 10.3354C5.73347 11.144 6.78243 11.75 8 11.75C9.21757 11.75 10.2665 11.144 10.6708 10.3354C10.8561 9.96493 10.7059 9.51442 10.3354 9.32918C9.96493 9.14394 9.51442 9.29411 9.32918 9.66459C9.23347 9.85601 8.78243 10.25 8 10.25C7.21757 10.25 6.76653 9.85601 6.67082 9.66459ZM10 8C9.58579 8 9.25 7.66421 9.25 7.25V6.25C9.25 5.83579 9.58579 5.5 10 5.5C10.4142 5.5 10.75 5.83579 10.75 6.25V7.25C10.75 7.66421 10.4142 8 10 8ZM5.25 7.25C5.25 7.66421 5.58579 8 6 8C6.41421 8 6.75 7.66421 6.75 7.25V6.25C6.75 5.83579 6.41421 5.5 6 5.5C5.58579 5.5 5.25 5.83579 5.25 6.25V7.25Z" fill="#18181B"/>
</svg>
