<svg width="16" height="16" viewBox="0 0 16 16" fill="none" xmlns="http://www.w3.org/2000/svg">
<path fill-rule="evenodd" clip-rule="evenodd" d="M13.5 8C13.5 11.0376 11.0376 13.5 8 13.5C4.96243 13.5 2.5 11.0376 2.5 8C2.5 4.96243 4.96243 2.5 8 2.5C11.0376 2.5 13.5 4.96243 13.5 8ZM15 8C15 11.866 11.866 15 8 15C4.13401 15 1 11.866 1 8C1 4.13401 4.13401 1 8 1C11.866 1 15 4.13401 15 8ZM9.32918 10.8354C9.51442 11.2059 9.96493 11.3561 10.3354 11.1708C10.7059 10.9856 10.8561 10.5351 10.6708 10.1646C10.2665 9.35601 9.21757 8.75 8 8.75C6.78243 8.75 5.73347 9.35601 5.32918 10.1646C5.14394 10.5351 5.29411 10.9856 5.66459 11.1708C6.03507 11.3561 6.48558 11.2059 6.67082 10.8354C6.76653 10.644 7.21757 10.25 8 10.25C8.78243 10.25 9.23347 10.644 9.32918 10.8354ZM10 8C9.58579 8 9.25 7.66421 9.25 7.25V6.25C9.25 5.83579 9.58579 5.5 10 5.5C10.4142 5.5 10.75 5.83579 10.75 6.25V7.25C10.75 7.66421 10.4142 8 10 8ZM5.25 7.25C5.25 7.66421 5.58579 8 6 8C6.41421 8 6.75 7.66421 6.75 7.25V6.25C6.75 5.83579 6.41421 5.5 6 5.5C5.58579 5.5 5.25 5.83579 5.25 6.25V7.25Z" fill="#18181B"/>
</svg>
