<svg width="16" height="16" viewBox="0 0 16 16" fill="none" xmlns="http://www.w3.org/2000/svg">
<path fill-rule="evenodd" clip-rule="evenodd" d="M9.5 5.5V8.30278L11.8321 6.74808L13.5 5.63611V12.5C13.5 12.7761 13.2761 13 13 13H3C2.72386 13 2.5 12.7761 2.5 12.5V3C2.5 2.72386 2.72386 2.5 3 2.5H4.5C4.77614 2.5 5 2.72386 5 3V5.5V8.44565L7.38226 6.7131L9.5 5.17293V5.5ZM6.5 3V3.64525V5.5L8 4.40909L8.90271 3.75258C9.12842 3.58842 9.40034 3.5 9.67943 3.5C10.0649 3.5 10.4117 3.66512 10.6531 3.92847C10.8685 4.16346 11 4.47666 11 4.82057V5.5L12.0191 4.82057L12.4832 4.51118L12.9116 4.2256C13.1323 4.0785 13.3915 4 13.6567 4C14.3986 4 15 4.60141 15 5.34329V12.5C15 13.6046 14.1046 14.5 13 14.5H3C1.89543 14.5 1 13.6046 1 12.5V3C1 1.89543 1.89543 1 3 1H4.5C5.60457 1 6.5 1.89543 6.5 3ZM4.75 10C4.33579 10 4 10.3358 4 10.75C4 11.1642 4.33579 11.5 4.75 11.5H11.25C11.6642 11.5 12 11.1642 12 10.75C12 10.3358 11.6642 10 11.25 10H4.75Z" fill="#18181B"/>
</svg>
