<svg width="16" height="16" viewBox="0 0 16 16" fill="none" xmlns="http://www.w3.org/2000/svg">
<path fill-rule="evenodd" clip-rule="evenodd" d="M11.5 7.1406C11.5 6.40586 11.2304 5.69666 10.7422 5.14751L8.39503 2.50691C7.82573 1.86644 7.00971 1.5 6.1528 1.5H4C2.34315 1.5 1 2.84315 1 4.5V11.5C1 13.1569 2.34314 14.5 4 14.5H10.25C10.6642 14.5 11 14.1642 11 13.75C11 13.3358 10.6642 13 10.25 13H4C3.17157 13 2.5 12.3284 2.5 11.5L2.5 4.5C2.5 3.67157 3.17157 3 4 3L5.5 3V5C5.5 6.65685 6.84314 8 8.5 8H10.75C11.1642 8 11.5 7.66421 11.5 7.25V7.1406ZM9.85633 6.5H8.5C7.67157 6.5 7 5.82843 7 5V3.26215C7.09988 3.3305 7.19201 3.41131 7.27391 3.50345L9.62111 6.14405C9.71684 6.25174 9.79576 6.37175 9.85633 6.5ZM13.4393 11L12.7197 11.7197C12.4268 12.0126 12.4268 12.4874 12.7197 12.7803C13.0126 13.0732 13.4874 13.0732 13.7803 12.7803L15.7803 10.7803C15.921 10.6397 16 10.4489 16 10.25C16 10.0511 15.921 9.86032 15.7803 9.71967L13.7803 7.71967C13.4874 7.42678 13.0126 7.42678 12.7197 7.71967C12.4268 8.01256 12.4268 8.48744 12.7197 8.78033L13.4393 9.5L6.75 9.5C6.33579 9.5 6 9.83579 6 10.25C6 10.6642 6.33579 11 6.75 11H13.4393Z" fill="#18181B"/>
</svg>
