<svg width="16" height="16" viewBox="0 0 16 16" fill="none" xmlns="http://www.w3.org/2000/svg">
<path fill-rule="evenodd" clip-rule="evenodd" d="M12.5 12C12.5 12.8284 11.8284 13.5 11 13.5H5C4.17157 13.5 3.5 12.8284 3.5 12L3.5 4C3.5 3.17157 4.17157 2.5 5 2.5L7.75736 2.5C8.15518 2.5 8.53672 2.65804 8.81802 2.93934L12.0607 6.18198C12.342 6.46328 12.5 6.84482 12.5 7.24264V12ZM13.1213 5.12132C13.6839 5.68393 14 6.44699 14 7.24264L14 12C14 13.6569 12.6569 15 11 15H5C3.34315 15 2 13.6569 2 12V4C2 2.34315 3.34315 1 5 1H7.75736C8.55301 1 9.31607 1.31607 9.87868 1.87868L13.1213 5.12132ZM6.78033 6.71967C6.48744 6.42678 6.01256 6.42678 5.71967 6.71967C5.42678 7.01256 5.42678 7.48744 5.71967 7.78033L6.93934 9L5.71967 10.2197C5.42678 10.5126 5.42678 10.9874 5.71967 11.2803C6.01256 11.5732 6.48744 11.5732 6.78033 11.2803L8 10.0607L9.21967 11.2803C9.51256 11.5732 9.98744 11.5732 10.2803 11.2803C10.5732 10.9874 10.5732 10.5126 10.2803 10.2197L9.06066 9L10.2803 7.78033C10.5732 7.48744 10.5732 7.01256 10.2803 6.71967C9.98744 6.42678 9.51256 6.42678 9.21967 6.71967L8 7.93934L6.78033 6.71967Z" fill="#18181B"/>
</svg>
