<svg width="16" height="16" viewBox="0 0 16 16" fill="none" xmlns="http://www.w3.org/2000/svg">
<path fill-rule="evenodd" clip-rule="evenodd" d="M11 13.5H5C4.17157 13.5 3.5 12.8284 3.5 12L3.5 4C3.5 3.17157 4.17157 2.5 5 2.5L7.75736 2.5C8.15518 2.5 8.53672 2.65804 8.81802 2.93934L12.0607 6.18198C12.342 6.46328 12.5 6.84482 12.5 7.24264V12C12.5 12.8284 11.8284 13.5 11 13.5ZM13.1213 5.12132C13.6839 5.68393 14 6.44699 14 7.24264L14 12C14 13.6569 12.6569 15 11 15H5C3.34315 15 2 13.6569 2 12V4C2 2.34315 3.34315 1 5 1H7.75736C8.55301 1 9.31607 1.31607 9.87868 1.87868L13.1213 5.12132ZM7.5 11.25C6.96764 11.25 6.47414 11.0836 6.06868 10.8C5.42256 10.348 5 9.59835 5 8.75C5 7.36929 6.11929 6.25 7.5 6.25C8.88071 6.25 10 7.36929 10 8.75C10 9.16723 9.89779 9.56058 9.71705 9.90639L10.5303 10.7197C10.8232 11.0126 10.8232 11.4874 10.5303 11.7803C10.2374 12.0732 9.76256 12.0732 9.46967 11.7803L8.65639 10.9671C8.31058 11.1478 7.91723 11.25 7.5 11.25ZM8.5 8.75C8.5 9.30228 8.05228 9.75 7.5 9.75C6.94771 9.75 6.5 9.30228 6.5 8.75C6.5 8.19772 6.94771 7.75 7.5 7.75C8.05228 7.75 8.5 8.19772 8.5 8.75Z" fill="#18181B"/>
</svg>
