<svg width="16" height="16" viewBox="0 0 16 16" fill="none" xmlns="http://www.w3.org/2000/svg">
<path fill-rule="evenodd" clip-rule="evenodd" d="M11 13.5H5C4.17157 13.5 3.5 12.8284 3.5 12L3.5 4C3.5 3.17157 4.17157 2.5 5 2.5L7.75736 2.5C8.15518 2.5 8.53672 2.65804 8.81802 2.93934L12.0607 6.18198C12.342 6.46328 12.5 6.84482 12.5 7.24264V12C12.5 12.8284 11.8284 13.5 11 13.5ZM13.1213 5.12132C13.6839 5.68393 14 6.44699 14 7.24264L14 12C14 13.6569 12.6569 15 11 15H5C3.34315 15 2 13.6569 2 12V4C2 2.34315 3.34315 1 5 1H7.75736C8.55301 1 9.31607 1.31607 9.87868 1.87868L13.1213 5.12132ZM6.58802 5.50863C6.97744 5.19028 7.48755 5 8.00024 5C9.09156 5 10.1252 5.7364 10.1252 6.94737C10.1252 7.2873 10.0541 7.62472 9.85208 7.95074C9.66125 8.25871 9.385 8.50494 9.06656 8.72696C8.88156 8.85594 8.79843 8.93846 8.76226 8.98671C8.75623 8.99477 8.75246 9.00063 8.75023 9.00442C8.74785 9.4166 8.41298 9.75 8.00024 9.75C7.58603 9.75 7.25024 9.41421 7.25024 9C7.25024 8.25888 7.76202 7.80791 8.20867 7.49651C8.44524 7.33157 8.53781 7.22395 8.57703 7.16065C8.60507 7.1154 8.62524 7.06412 8.62524 6.94737C8.62524 6.82482 8.57859 6.72996 8.49164 6.65488C8.39826 6.57425 8.23488 6.5 8.00024 6.5C7.84616 6.5 7.66878 6.56255 7.53739 6.66996C7.41053 6.77367 7.37524 6.87434 7.37524 6.94737C7.37524 7.36158 7.03946 7.69737 6.62524 7.69737C6.21103 7.69737 5.87524 7.36158 5.87524 6.94737C5.87524 6.32868 6.19407 5.83068 6.58802 5.50863ZM9.00007 11.25C9.00007 11.8023 8.55235 12.25 8.00007 12.25C7.44778 12.25 7.00007 11.8023 7.00007 11.25C7.00007 10.6977 7.44778 10.25 8.00007 10.25C8.55235 10.25 9.00007 10.6977 9.00007 11.25Z" fill="#18181B"/>
</svg>
