<svg width="16" height="16" viewBox="0 0 16 16" fill="none" xmlns="http://www.w3.org/2000/svg">
<path fill-rule="evenodd" clip-rule="evenodd" d="M11 13.5H5C4.17157 13.5 3.5 12.8284 3.5 12L3.5 4C3.5 3.17157 4.17157 2.5 5 2.5L7.75736 2.5C8.15518 2.5 8.53672 2.65804 8.81802 2.93934L12.0607 6.18198C12.342 6.46328 12.5 6.84482 12.5 7.24264V12C12.5 12.8284 11.8284 13.5 11 13.5ZM13.1213 5.12132C13.6839 5.68393 14 6.44699 14 7.24264L14 12C14 13.6569 12.6569 15 11 15H5C3.34315 15 2 13.6569 2 12V4C2 2.34315 3.34315 1 5 1H7.75736C8.55301 1 9.31607 1.31607 9.87868 1.87868L13.1213 5.12132ZM10.85 7.64995C11.0985 7.31858 11.0314 6.84848 10.7 6.59995C10.3686 6.35142 9.89853 6.41858 9.65 6.74995L7.46885 9.65814L6.28033 8.46962C5.98744 8.17673 5.51256 8.17673 5.21967 8.46962C4.92678 8.76251 4.92678 9.23739 5.21967 9.53028L7.01967 11.3303C7.17341 11.484 7.38629 11.5635 7.60317 11.5481C7.82004 11.5327 8.01955 11.4239 8.15 11.25L10.85 7.64995Z" fill="#18181B"/>
</svg>
