<svg width="16" height="16" viewBox="0 0 16 16" fill="none" xmlns="http://www.w3.org/2000/svg">
<path fill-rule="evenodd" clip-rule="evenodd" d="M6.96406 1.78963C7.08021 2.18723 6.85206 2.6037 6.45447 2.71986C4.66012 3.24407 3.24407 4.66012 2.71986 6.45447C2.6037 6.85206 2.18723 7.08021 1.78963 6.96406C1.39204 6.8479 1.16389 6.43142 1.28004 6.03383C1.94781 3.7481 3.74811 1.94781 6.03383 1.28004C6.43142 1.16389 6.8479 1.39204 6.96406 1.78963ZM9.03585 1.78963C9.152 1.39204 9.56848 1.16389 9.96607 1.28004C12.8743 2.12967 15 4.8156 15 7.99995C15 9.21629 14.6891 10.3623 14.1419 11.3605C13.9428 11.7237 13.4869 11.8567 13.1237 11.6576C12.7605 11.4585 12.6274 11.0026 12.8265 10.6394C13.2557 9.85665 13.5 8.95795 13.5 7.99995C13.5 5.49992 11.8313 3.38767 9.54543 2.71986C9.14784 2.6037 8.91969 2.18723 9.03585 1.78963ZM1.78963 9.03585C2.18723 8.91969 2.6037 9.14784 2.71986 9.54543C3.38767 11.8313 5.49992 13.5 7.99995 13.5C8.95795 13.5 9.85665 13.2557 10.6394 12.8265C11.0026 12.6274 11.4585 12.7605 11.6576 13.1237C11.8567 13.4869 11.7237 13.9428 11.3605 14.1419C10.3623 14.6891 9.21629 15 7.99995 15C4.8156 15 2.12967 12.8743 1.28004 9.96607C1.16389 9.56848 1.39204 9.152 1.78963 9.03585ZM7.99995 5.49995C6.61924 5.49995 5.49995 6.61924 5.49995 7.99995C5.49995 8.9634 6.04475 9.80084 6.84659 10.2188C7.21391 10.4102 7.35648 10.8632 7.16504 11.2305C6.9736 11.5978 6.52063 11.7404 6.15331 11.5489C4.87526 10.8828 3.99995 9.54422 3.99995 7.99995C3.99995 5.79081 5.79081 3.99995 7.99995 3.99995C10.2091 3.99995 12 5.79081 12 7.99995C12 8.41416 11.6642 8.74995 11.25 8.74995C10.8357 8.74995 10.5 8.41416 10.5 7.99995C10.5 6.61924 9.38066 5.49995 7.99995 5.49995ZM8.7421 7.89171C8.68232 7.48183 8.30158 7.19802 7.89171 7.2578C7.48183 7.31758 7.19802 7.69832 7.2578 8.10819C7.50949 9.83379 8.75044 11.1093 10.4388 11.2475C10.8516 11.2812 11.2137 10.974 11.2475 10.5611C11.2812 10.1483 10.974 9.78624 10.5611 9.75245C9.64288 9.67729 8.90403 9.00195 8.7421 7.89171Z" fill="#18181B"/>
</svg>
