<svg width="16" height="16" viewBox="0 0 16 16" fill="none" xmlns="http://www.w3.org/2000/svg">
<path fill-rule="evenodd" clip-rule="evenodd" d="M3 11.5C3 12.3284 3.67157 13 4.5 13L4.5 10.5C4.5 9.39543 5.39543 8.5 6.5 8.5H9.5C10.6046 8.5 11.5 9.39543 11.5 10.5V13C12.3284 13 13 12.3284 13 11.5V6.03553C13 5.77032 12.8946 5.51596 12.7071 5.32843L10.6716 3.29289C10.484 3.10536 10.2297 3 9.96446 3H6V4C6 4.27614 6.22386 4.5 6.5 4.5H9.5C9.91421 4.5 10.25 4.83579 10.25 5.25C10.25 5.66421 9.91421 6 9.5 6H6.5C5.39543 6 4.5 5.10457 4.5 4V3C3.67157 3 3 3.67157 3 4.5V11.5ZM1.5 11.5C1.5 13.1569 2.84314 14.5 4.5 14.5H6H10H11.5C13.1569 14.5 14.5 13.1569 14.5 11.5V6.03553C14.5 5.37249 14.2366 4.73661 13.7678 4.26777L11.7322 2.23223C11.2634 1.76339 10.6275 1.5 9.96446 1.5H4.5C2.84315 1.5 1.5 2.84314 1.5 4.5V11.5ZM10 10.5V13H6V10.5C6 10.2239 6.22386 10 6.5 10H9.5C9.77614 10 10 10.2239 10 10.5Z" fill="#18181B"/>
</svg>
