<svg width="16" height="16" viewBox="0 0 16 16" fill="none" xmlns="http://www.w3.org/2000/svg">
<path fill-rule="evenodd" clip-rule="evenodd" d="M6.43934 4.06066L6.87868 4.5H7.5H12.5C13.3284 4.5 14 5.17157 14 6V11C14 11.8284 13.3284 12.5 12.5 12.5H3.5C2.67157 12.5 2 11.8284 2 11V4.5C2 3.67157 2.67157 3 3.5 3H4.75736C5.15518 3 5.53672 3.15804 5.81802 3.43934L6.43934 4.06066ZM0.5 4.5C0.5 2.84315 1.84315 1.5 3.5 1.5H4.75736C5.55301 1.5 6.31607 1.81607 6.87868 2.37868L7.5 3H12.5C14.1569 3 15.5 4.34315 15.5 6V11C15.5 12.6569 14.1569 14 12.5 14H3.5C1.84315 14 0.5 12.6569 0.5 11V4.5ZM8.5 7.25V7.5H7.5V7.25C7.5 6.97386 7.72386 6.75 8 6.75C8.27614 6.75 8.5 6.97386 8.5 7.25ZM10.1 7.5H10V7.25C10 6.14543 9.10457 5.25 8 5.25C6.89543 5.25 6 6.14543 6 7.25V7.5H5.9C5.1268 7.5 4.5 8.1268 4.5 8.9V10.1C4.5 10.8732 5.1268 11.5 5.9 11.5H10.1C10.8732 11.5 11.5 10.8732 11.5 10.1V8.9C11.5 8.1268 10.8732 7.5 10.1 7.5ZM6 9V10H10V9H6Z" fill="#18181B"/>
</svg>
