<svg width="16" height="16" viewBox="0 0 16 16" fill="none" xmlns="http://www.w3.org/2000/svg">
<path fill-rule="evenodd" clip-rule="evenodd" d="M6.87868 4.5L6.43934 4.06066L5.81802 3.43934C5.53672 3.15804 5.15518 3 4.75736 3H3.5C2.67157 3 2 3.67157 2 4.5V11C2 11.8284 2.67157 12.5 3.5 12.5H12.5C13.3284 12.5 14 11.8284 14 11V6C14 5.17157 13.3284 4.5 12.5 4.5H7.5H6.87868ZM3.5 1.5C1.84315 1.5 0.5 2.84315 0.5 4.5V11C0.5 12.6569 1.84315 14 3.5 14H12.5C14.1569 14 15.5 12.6569 15.5 11V6C15.5 4.34315 14.1569 3 12.5 3H7.5L6.87868 2.37868C6.31607 1.81607 5.55301 1.5 4.75736 1.5H3.5ZM8.75 8.79933C9.19835 8.53997 9.5 8.05521 9.5 7.5C9.5 6.67157 8.82843 6 8 6C7.17157 6 6.5 6.67157 6.5 7.5C6.5 8.05521 6.80165 8.53997 7.25 8.79933V10.25C7.25 10.6642 7.58579 11 8 11C8.41421 11 8.75 10.6642 8.75 10.25V8.79933Z" fill="#18181B"/>
</svg>
