<svg width="16" height="16" viewBox="0 0 16 16" fill="none" xmlns="http://www.w3.org/2000/svg">
<path fill-rule="evenodd" clip-rule="evenodd" d="M6.43934 4.06066L6.87868 4.5H7.5H12.5C13.3284 4.5 14 5.17157 14 6V11C14 11.8284 13.3284 12.5 12.5 12.5H3.5C2.67157 12.5 2 11.8284 2 11V4.5C2 3.67157 2.67157 3 3.5 3H4.75736C5.15518 3 5.53672 3.15804 5.81802 3.43934L6.43934 4.06066ZM0.5 4.5C0.5 2.84315 1.84315 1.5 3.5 1.5H4.75736C5.55301 1.5 6.31607 1.81607 6.87868 2.37868L7.5 3H12.5C14.1569 3 15.5 4.34315 15.5 6V11C15.5 12.6569 14.1569 14 12.5 14H3.5C1.84315 14 0.5 12.6569 0.5 11V4.5ZM8.75 7.25C8.75 7.11193 8.86193 7 9 7H10C10.4142 7 10.75 6.66421 10.75 6.25C10.75 5.83579 10.4142 5.5 10 5.5H9C8.0335 5.5 7.25 6.2835 7.25 7.25V7.75H6C5.58579 7.75 5.25 8.08579 5.25 8.5C5.25 8.91421 5.58579 9.25 6 9.25H7.25V9.75C7.25 10.7165 8.0335 11.5 9 11.5H10C10.4142 11.5 10.75 11.1642 10.75 10.75C10.75 10.3358 10.4142 10 10 10H9C8.86193 10 8.75 9.88807 8.75 9.75V9.25H10C10.4142 9.25 10.75 8.91421 10.75 8.5C10.75 8.08579 10.4142 7.75 10 7.75H8.75V7.25Z" fill="#18181B"/>
</svg>
