<svg width="16" height="16" viewBox="0 0 16 16" fill="none" xmlns="http://www.w3.org/2000/svg">
<path fill-rule="evenodd" clip-rule="evenodd" d="M6.43934 4.06066L6.87868 4.5H7.5H12.5C13.3284 4.5 14 5.17157 14 6V11C14 11.8284 13.3284 12.5 12.5 12.5H3.5C2.67157 12.5 2 11.8284 2 11V4.5C2 3.67157 2.67157 3 3.5 3H4.75736C5.15518 3 5.53672 3.15804 5.81802 3.43934L6.43934 4.06066ZM0.5 4.5C0.5 2.84315 1.84315 1.5 3.5 1.5H4.75736C5.55301 1.5 6.31607 1.81607 6.87868 2.37868L7.5 3H12.5C14.1569 3 15.5 4.34315 15.5 6V11C15.5 12.6569 14.1569 14 12.5 14H3.5C1.84315 14 0.5 12.6569 0.5 11V4.5ZM10.85 6.95C11.0985 6.61863 11.0314 6.14853 10.7 5.9C10.3686 5.65147 9.89853 5.71863 9.65 6.05L7.46885 8.95819L6.28033 7.76967C5.98744 7.47678 5.51256 7.47678 5.21967 7.76967C4.92678 8.06256 4.92678 8.53744 5.21967 8.83033L7.01967 10.6303C7.17341 10.7841 7.3863 10.8635 7.60317 10.8481C7.82004 10.8327 8.01955 10.7239 8.15 10.55L10.85 6.95Z" fill="#18181B"/>
</svg>
