<svg width="16" height="16" viewBox="0 0 16 16" fill="none" xmlns="http://www.w3.org/2000/svg">
<path fill-rule="evenodd" clip-rule="evenodd" d="M6.43934 4.06066L6.87868 4.5H7.5H12.5C13.3284 4.5 14 5.17157 14 6V11C14 11.8284 13.3284 12.5 12.5 12.5H3.5C2.67157 12.5 2 11.8284 2 11V4.5C2 3.67157 2.67157 3 3.5 3H4.75736C5.15518 3 5.53672 3.15804 5.81802 3.43934L6.43934 4.06066ZM0.5 4.5C0.5 2.84315 1.84315 1.5 3.5 1.5H4.75736C5.55301 1.5 6.31607 1.81607 6.87868 2.37868L7.5 3H12.5C14.1569 3 15.5 4.34315 15.5 6V11C15.5 12.6569 14.1569 14 12.5 14H3.5C1.84315 14 0.5 12.6569 0.5 11V4.5ZM8.68201 5.77259C9.08386 5.87305 9.32818 6.28025 9.22772 6.6821L8.22772 10.6821C8.12725 11.0839 7.72005 11.3283 7.31821 11.2278C6.91636 11.1273 6.67204 10.7201 6.7725 10.3183L7.7725 6.3183C7.87296 5.91645 8.28017 5.67213 8.68201 5.77259ZM4.96969 10.0303C5.2626 10.3232 5.73747 10.3231 6.03035 10.0302C6.32323 9.73733 6.32322 9.26246 6.03031 8.96957L5.56066 8.49996L6.03035 8.03023C6.32323 7.73733 6.32322 7.26246 6.03031 6.96957C5.73741 6.67669 5.26253 6.67671 4.96965 6.96961L3.96965 7.96969C3.829 8.11035 3.74999 8.30112 3.75 8.50003C3.75001 8.69894 3.82903 8.8897 3.96969 9.03035L4.96969 10.0303ZM9.96967 8.96967C9.67678 9.26256 9.67678 9.73744 9.96967 10.0303C10.2626 10.3232 10.7374 10.3232 11.0303 10.0303L12.0303 9.03033C12.3232 8.73744 12.3232 8.26256 12.0303 7.96967L11.0303 6.96967C10.7374 6.67678 10.2626 6.67678 9.96967 6.96967C9.67678 7.26256 9.67678 7.73744 9.96967 8.03033L10.4393 8.5L9.96967 8.96967Z" fill="#18181B"/>
</svg>
