<svg width="16" height="16" viewBox="0 0 16 16" fill="none" xmlns="http://www.w3.org/2000/svg">
<g clip-path="url(#clip0_2217_3908)">
<path fill-rule="evenodd" clip-rule="evenodd" d="M4.74996 2.25C4.13178 2.25 3.58111 2.64069 3.37689 3.22417L0.0420665 12.7522C-0.0947692 13.1432 0.111239 13.5711 0.502197 13.7079C0.893156 13.8447 1.32102 13.6387 1.45785 13.2478L2.59457 10L6.90535 10L8.04207 13.2478C8.1789 13.6387 8.60676 13.8447 8.99772 13.7079C9.38868 13.5711 9.59469 13.1432 9.45785 12.7522L6.12303 3.22417C5.91881 2.64069 5.36814 2.25 4.74996 2.25ZM6.38035 8.5L4.74996 3.84174L3.11957 8.5L6.38035 8.5ZM11.5155 11.4961C11.5143 11.2734 11.7946 10.75 12.6666 10.75H14.3998C14.106 11.7741 13.2217 12.25 12.5 12.25C12.0506 12.25 11.8227 12.1159 11.7082 12.0012C11.5872 11.88 11.5166 11.7045 11.5155 11.4961ZM14.5 12.25V13C14.5 13.4142 14.8357 13.75 15.25 13.75C15.6642 13.75 16 13.4142 16 13L16 10C16 8.88323 15.7208 7.93485 15.1269 7.25612C14.5215 6.56429 13.6743 6.25 12.75 6.25C12.2193 6.25 11.8041 6.32079 11.4444 6.44532C11.1063 6.56234 10.8444 6.71906 10.6403 6.84119L10.6152 6.85622C10.2596 7.06872 10.1437 7.52922 10.3562 7.88477C10.5687 8.24032 11.0292 8.35628 11.3847 8.14378C11.6052 8.01201 11.7496 7.92697 11.935 7.8628C12.1127 7.80129 12.3585 7.75 12.75 7.75C13.3256 7.75 13.7284 7.93571 13.998 8.24388C14.1891 8.46224 14.3523 8.78702 14.4373 9.25H12.6666C11.2053 9.25 10.0088 10.2266 10.0155 11.5039C10.0183 12.0455 10.2062 12.62 10.647 13.0613C11.0943 13.5091 11.7318 13.75 12.5 13.75C13.5 13.75 14.25 13 14.25 12.25H14.5Z" fill="#18181B"/>
</g>
<defs>
<clipPath id="clip0_2217_3908">
<rect width="16" height="16" fill="white"/>
</clipPath>
</defs>
</svg>
