<svg width="16" height="16" viewBox="0 0 16 16" fill="none" xmlns="http://www.w3.org/2000/svg">
<path fill-rule="evenodd" clip-rule="evenodd" d="M7.19876 2C7.08898 2 6.99999 2.08899 6.99999 2.19877C6.99999 4.00733 5.04216 5.13766 3.47591 4.23339C3.38084 4.1785 3.25926 4.21107 3.20438 4.30614L2.40313 5.69394C2.34825 5.78899 2.38082 5.91054 2.47587 5.96541C4.04211 6.86969 4.04211 9.13036 2.47587 10.0346C2.38082 10.0895 2.34825 10.2111 2.40313 10.3061L3.20438 11.6939C3.25926 11.789 3.38084 11.8216 3.47592 11.7667C5.04213 10.8624 6.99999 11.9927 6.99999 13.8013C6.99999 13.911 7.08897 14 7.19873 14H8.8013C8.91103 14 8.99999 13.911 8.99999 13.8013C8.99999 11.9928 10.9578 10.8624 12.524 11.7667C12.619 11.8216 12.7405 11.789 12.7954 11.694L13.5967 10.3061C13.6516 10.2111 13.619 10.0895 13.524 10.0346C12.221 9.28234 12.0076 7.60116 12.8589 6.5352C13.1174 6.21154 13.5893 6.15871 13.913 6.41719C14.2366 6.67568 14.2895 7.14761 14.031 7.47127C13.7204 7.8601 13.8097 8.46757 14.274 8.7356C15.0865 9.20469 15.3648 10.2436 14.8957 11.0561L14.0944 12.444C13.6254 13.2565 12.5865 13.5348 11.774 13.0657C11.2078 12.7388 10.5 13.1475 10.5 13.8013C10.5 14.7395 9.73946 15.5 8.8013 15.5H7.19873C6.26054 15.5 5.49999 14.7394 5.49999 13.8013C5.49999 13.1474 4.79218 12.7388 4.22592 13.0657C3.41341 13.5348 2.37444 13.2564 1.90534 12.4439L1.10409 11.0561C0.635 10.2436 0.913379 9.20469 1.72587 8.7356C2.29211 8.40867 2.29211 7.59137 1.72587 7.26445C0.91338 6.79536 0.635 5.75643 1.10409 4.94394L1.90534 3.55614C2.37444 2.74363 3.4134 2.46525 4.22591 2.93435C4.79217 3.26128 5.49999 2.85262 5.49999 2.19877C5.49999 1.26056 6.26055 0.5 7.19876 0.5H9.30127C9.71548 0.5 10.0513 0.835786 10.0513 1.25C10.0513 1.66421 9.71548 2 9.30127 2H7.19876ZM7.99988 9.5C8.82831 9.5 9.49988 8.82843 9.49988 8C9.49988 7.17157 8.82831 6.5 7.99988 6.5C7.17145 6.5 6.49988 7.17157 6.49988 8C6.49988 8.82843 7.17145 9.5 7.99988 9.5ZM7.99988 11C9.65674 11 10.9999 9.65685 10.9999 8C10.9999 6.34315 9.65674 5 7.99988 5C6.34303 5 4.99988 6.34315 4.99988 8C4.99988 9.65685 6.34303 11 7.99988 11Z" fill="#18181B"/>
<path fill-rule="evenodd" clip-rule="evenodd" d="M12.5 5.5C13.6046 5.5 14.5 4.60457 14.5 3.5C14.5 2.39543 13.6046 1.5 12.5 1.5C11.3954 1.5 10.5 2.39543 10.5 3.5C10.5 4.60457 11.3954 5.5 12.5 5.5Z" fill="#FF3333"/>
</svg>
