<svg width="16" height="16" viewBox="0 0 16 16" fill="none" xmlns="http://www.w3.org/2000/svg">
<g clip-path="url(#clip0_2217_5331)">
<path fill-rule="evenodd" clip-rule="evenodd" d="M7.29546 2C7.17904 2 7.07803 2.08035 7.05186 2.19378L6.92068 2.76222C6.5867 4.20947 5.01059 4.98778 3.65843 4.37317L3.53603 4.31753C3.41675 4.26331 3.27584 4.31038 3.2131 4.42541L2.51665 5.70226C2.46355 5.79962 2.48093 5.92033 2.55935 5.99875L3.53027 6.96967C3.82317 7.26256 3.82317 7.73744 3.53027 8.03033C3.23738 8.32322 2.76251 8.32322 2.46961 8.03033L1.49869 7.05941C0.949759 6.51048 0.828072 5.66552 1.1998 4.98399L1.89625 3.70714C2.33544 2.90196 3.32176 2.57245 4.15673 2.95198L4.27913 3.00761C4.76821 3.22992 5.33829 2.94841 5.45909 2.42493L5.59027 1.8565C5.77351 1.06247 6.48056 0.5 7.29546 0.5H8.70443C9.51933 0.5 10.2264 1.06247 10.4096 1.8565L10.5408 2.42492C10.6616 2.9484 11.2317 3.22991 11.7208 3.00761L11.8431 2.95198C12.6781 2.57245 13.6644 2.90195 14.1036 3.70713L14.8001 4.98399C15.1718 5.66551 15.0501 6.51048 14.5012 7.05941L13.5303 8.03033C13.2374 8.32322 12.7625 8.32322 12.4696 8.03033C12.1767 7.73744 12.1767 7.26256 12.4696 6.96967L13.4405 5.99875C13.5189 5.92033 13.5363 5.79962 13.4832 5.70226L12.7868 4.42541C12.724 4.31038 12.5831 4.26331 12.4638 4.31753L12.3415 4.37315C10.9893 4.98777 9.41319 4.20947 9.0792 2.76221L8.94803 2.19379C8.92185 2.08035 8.82084 2 8.70443 2H7.29546ZM3.24994 12C3.66416 12 3.99994 11.6642 3.99994 11.25C3.99994 10.8358 3.66416 10.5 3.24994 10.5C2.83573 10.5 2.49994 10.8358 2.49994 11.25C2.49994 11.6642 2.83573 12 3.24994 12ZM3.24994 13.5C4.49258 13.5 5.49994 12.4926 5.49994 11.25C5.49994 10.8617 5.4016 10.4964 5.22846 10.1777L5.78081 9.73577C6.07733 9.49856 6.24994 9.13942 6.24994 8.75969V7.75C6.24994 7.33579 5.91416 7 5.49994 7C5.08573 7 4.74994 7.33579 4.74994 7.75V8.63953L4.09451 9.16388C3.83373 9.0582 3.54863 9 3.24994 9C2.0073 9 0.999942 10.0074 0.999942 11.25C0.999942 12.4926 2.0073 13.5 3.24994 13.5ZM8.74994 13.25C8.74994 13.6642 8.41416 14 7.99994 14C7.58573 14 7.24994 13.6642 7.24994 13.25C7.24994 12.8358 7.58573 12.5 7.99994 12.5C8.41416 12.5 8.74994 12.8358 8.74994 13.25ZM10.2499 13.25C10.2499 14.4926 9.24258 15.5 7.99994 15.5C6.7573 15.5 5.74994 14.4926 5.74994 13.25C5.74994 12.2703 6.37605 11.4369 7.24994 11.128V7.7543C7.24994 7.34009 7.58573 7.0043 7.99994 7.0043C8.41416 7.0043 8.74994 7.34009 8.74994 7.7543V11.128C9.62384 11.4369 10.2499 12.2703 10.2499 13.25ZM12.7499 12C13.1642 12 13.4999 11.6642 13.4999 11.25C13.4999 10.8358 13.1642 10.5 12.7499 10.5C12.3357 10.5 11.9999 10.8358 11.9999 11.25C11.9999 11.6642 12.3357 12 12.7499 12ZM12.7499 13.5C13.9926 13.5 14.9999 12.4926 14.9999 11.25C14.9999 10.0074 13.9926 9 12.7499 9C12.4701 9 12.2022 9.05109 11.955 9.14444L11.4999 8.68934V7.75C11.4999 7.33579 11.1642 7 10.7499 7C10.3357 7 9.99994 7.33579 9.99994 7.75V8.79289C9.99994 9.12441 10.1316 9.44236 10.3661 9.67678L10.8059 10.1166C10.6114 10.4494 10.4999 10.8367 10.4999 11.25C10.4999 12.4926 11.5073 13.5 12.7499 13.5Z" fill="#18181B"/>
</g>
<defs>
<clipPath id="clip0_2217_5331">
<rect width="16" height="16" fill="white"/>
</clipPath>
</defs>
</svg>
