<svg width="16" height="16" viewBox="0 0 16 16" fill="none" xmlns="http://www.w3.org/2000/svg">
<path fill-rule="evenodd" clip-rule="evenodd" d="M7.19876 2H8.80127C8.911 2 8.99999 2.08897 8.99999 2.19874C8.99999 4.00722 10.9577 5.13763 12.524 4.23334C12.619 4.17848 12.7405 4.21104 12.7954 4.30606L13.5967 5.69395C13.6516 5.789 13.619 5.91054 13.524 5.96542C11.9577 6.86968 11.9577 9.13036 13.524 10.0346C13.619 10.0895 13.6516 10.2111 13.5967 10.3061L12.7954 11.694C12.7405 11.789 12.619 11.8216 12.524 11.7667C10.9578 10.8624 8.99999 11.9928 8.99999 13.8013C8.99999 13.911 8.91103 14 8.8013 14H7.19873C7.08897 14 6.99999 13.911 6.99999 13.8013C6.99999 11.9927 5.04213 10.8624 3.47592 11.7667C3.38083 11.8216 3.25926 11.789 3.20438 11.6939L2.40313 10.3061C2.34825 10.2111 2.38082 10.0895 2.47587 10.0346C4.04211 9.13036 4.04211 6.86969 2.47587 5.96541C2.38082 5.91054 2.34825 5.78899 2.40313 5.69394L3.20438 4.30614C3.25926 4.21107 3.38084 4.1785 3.47591 4.23339C5.04216 5.13766 6.99999 4.00733 6.99999 2.19877C6.99999 2.08899 7.08898 2 7.19876 2ZM5.49999 2.19877C5.49999 1.26056 6.26055 0.5 7.19876 0.5H8.80127C9.73945 0.5 10.5 1.26056 10.5 2.19874C10.5 2.85256 11.2078 3.26121 11.774 2.9343C12.5865 2.46522 13.6254 2.7436 14.0944 3.55606L14.8957 4.94395C15.3648 5.75644 15.0865 6.79536 14.274 7.26445C13.7077 7.59137 13.7077 8.40867 14.274 8.7356C15.0865 9.20469 15.3648 10.2436 14.8957 11.0561L14.0944 12.444C13.6254 13.2565 12.5865 13.5348 11.774 13.0657C11.2078 12.7388 10.5 13.1475 10.5 13.8013C10.5 14.7395 9.73946 15.5 8.8013 15.5H7.19873C6.26054 15.5 5.49999 14.7394 5.49999 13.8013C5.49999 13.1474 4.79217 12.7388 4.22592 13.0657C3.41341 13.5348 2.37444 13.2564 1.90534 12.4439L1.10409 11.0561C0.635 10.2436 0.913379 9.20469 1.72587 8.7356C2.29211 8.40867 2.29211 7.59137 1.72587 7.26445C0.91338 6.79536 0.635 5.75643 1.10409 4.94394L1.90534 3.55614C2.37444 2.74363 3.4134 2.46525 4.22591 2.93435C4.79217 3.26128 5.49999 2.85262 5.49999 2.19877ZM10.5 8.86602C11.1667 8.48113 11.1667 7.51888 10.5 7.13398L7.5 5.40192C6.83333 5.01702 6 5.49815 6 6.26795L6 9.73205C6 10.5019 6.83333 10.983 7.5 10.5981L10.5 8.86602Z" fill="#18181B"/>
</svg>
