<svg width="16" height="16" viewBox="0 0 16 16" fill="none" xmlns="http://www.w3.org/2000/svg">
<path fill-rule="evenodd" clip-rule="evenodd" d="M10.2928 3H4.5C3.85192 3 3.29983 3.411 3.09017 3.98658L7.00012 6.47473C7.01368 5.10566 8.12772 4 9.5 4C9.55155 4 9.60274 4.00156 9.65352 4.00464L10.2928 3ZM8.41106 8.75102C8.74023 8.91054 9.10967 9 9.5 9C10.8807 9 12 7.88071 12 6.5C12 5.71752 11.6405 5.01901 11.0777 4.5606L12.0134 3.09017C12.589 3.29983 13 3.85192 13 4.5V11.5C13 12.3284 12.3284 13 11.5 13H5.70716L8.41106 8.75102ZM3 5.70716V11.5C3 12.1481 3.411 12.7002 3.98658 12.9098L4.94996 11.3959C4.39365 11.1766 4 10.6343 4 10C4 9.17157 4.67157 8.5 5.5 8.5C5.89952 8.5 6.26256 8.65619 6.53139 8.91085L6.9646 8.23009L3 5.70716ZM1.5 4.5C1.5 2.84315 2.84315 1.5 4.5 1.5H11.5C13.1569 1.5 14.5 2.84315 14.5 4.5V11.5C14.5 13.1569 13.1569 14.5 11.5 14.5H4.5C2.84315 14.5 1.5 13.1569 1.5 11.5V4.5Z" fill="#18181B"/>
</svg>
