<svg width="16" height="16" viewBox="0 0 16 16" fill="none" xmlns="http://www.w3.org/2000/svg">
<path fill-rule="evenodd" clip-rule="evenodd" d="M10.2928 3H4.5C3.85192 3 3.29983 3.411 3.09017 3.98658L7.76991 6.9646L10.2928 3ZM3 5.70716V11.5C3 12.1481 3.411 12.7002 3.98658 12.9098L6.9646 8.23009L3 5.70716ZM5.70716 13H11.5C12.3284 13 13 12.3284 13 11.5V4.5C13 3.85192 12.589 3.29983 12.0134 3.09017L8.63275 8.40266L5.70716 13ZM1.5 4.5C1.5 2.84315 2.84315 1.5 4.5 1.5H11.5C13.1569 1.5 14.5 2.84315 14.5 4.5V11.5C14.5 13.1569 13.1569 14.5 11.5 14.5H4.5C2.84315 14.5 1.5 13.1569 1.5 11.5V4.5Z" fill="#18181B"/>
</svg>
