<svg width="16" height="16" viewBox="0 0 16 16" fill="none" xmlns="http://www.w3.org/2000/svg">
<path fill-rule="evenodd" clip-rule="evenodd" d="M3 9C3.82843 9 4.5 9.67157 4.5 10.5C4.5 11.3284 3.82843 12 3 12C2.17157 12 1.5 11.3284 1.5 10.5C1.5 9.67157 2.17157 9 3 9ZM9.5 10.5C9.5 9.67157 8.82843 9 8 9C7.17157 9 6.5 9.67157 6.5 10.5C6.5 11.3284 7.17157 12 8 12C8.82843 12 9.5 11.3284 9.5 10.5ZM9.5 5.5C9.5 4.67157 8.82843 4 8 4C7.17157 4 6.5 4.67157 6.5 5.5C6.5 6.32843 7.17157 7 8 7C8.82843 7 9.5 6.32843 9.5 5.5ZM4.5 5.5C4.5 4.67157 3.82843 4 3 4C2.17157 4 1.5 4.67157 1.5 5.5C1.5 6.32843 2.17157 7 3 7C3.82843 7 4.5 6.32843 4.5 5.5ZM13 9C13.8284 9 14.5 9.67157 14.5 10.5C14.5 11.3284 13.8284 12 13 12C12.1716 12 11.5 11.3284 11.5 10.5C11.5 9.67157 12.1716 9 13 9ZM14.5 5.5C14.5 4.67157 13.8284 4 13 4C12.1716 4 11.5 4.67157 11.5 5.5C11.5 6.32843 12.1716 7 13 7C13.8284 7 14.5 6.32843 14.5 5.5Z" fill="#18181B"/>
</svg>
