<svg width="16" height="16" viewBox="0 0 16 16" fill="none" xmlns="http://www.w3.org/2000/svg">
<g clip-path="url(#clip0_2217_3283)">
<path fill-rule="evenodd" clip-rule="evenodd" d="M2.5 6L5.4062 2.26345C5.78086 1.78175 6.35694 1.5 6.96719 1.5C8.09529 1.5 8.96002 2.42959 8.94554 3.5C8.94351 3.65035 8.92413 3.80347 8.8857 3.95719L8.625 5L10.1712 5L10.5 5L14.0579 5C15.1305 5 16 5.86951 16 6.9421C16 7.85236 15.3678 8.64049 14.4792 8.83796L11.5 9.5L11.0427 12.244C10.7517 13.9897 9.02057 15.1055 7.3105 14.6495L3 13.5L2.5 6ZM7.697 13.2001L4.42517 12.3276L4.03467 6.47009L6.59023 3.18437C6.68071 3.06804 6.81982 3 6.96719 3C7.27788 3 7.50584 3.29197 7.43049 3.59338L7.16979 4.6362L6.70384 6.5L8.625 6.5L10.5 6.5L14.0579 6.5C14.3021 6.5 14.5 6.69794 14.5 6.9421C14.5 7.14931 14.3561 7.32872 14.1538 7.37367L11.1746 8.03572L10.1868 8.25524L10.0204 9.2534L9.56308 11.9974C9.4176 12.8702 8.55203 13.4281 7.697 13.2001ZM0.501907 13.3034C0.531418 13.7166 0.890275 14.0276 1.30344 13.9981C1.7166 13.9686 2.02761 13.6097 1.99809 13.1966L1.49809 6.19657C1.46858 5.7834 1.10973 5.4724 0.696565 5.50191C0.283404 5.53142 -0.0276049 5.89028 0.00190565 6.30344L0.501907 13.3034Z" fill="#18181B"/>
</g>
<defs>
<clipPath id="clip0_2217_3283">
<rect width="16" height="16" fill="white"/>
</clipPath>
</defs>
</svg>
