<svg width="16" height="16" viewBox="0 0 16 16" fill="none" xmlns="http://www.w3.org/2000/svg">
<path fill-rule="evenodd" clip-rule="evenodd" d="M11.0001 3.93934V2.75C11.0001 2.33579 10.6643 2 10.2501 2C9.8359 2 9.50011 2.33579 9.50011 2.75V5.75C9.50011 6.16421 9.8359 6.5 10.2501 6.5L13.2501 6.5C13.6643 6.5 14.0001 6.16421 14.0001 5.75C14.0001 5.33579 13.6643 5 13.2501 5H12.0608L14.7804 2.28033C15.0733 1.98744 15.0733 1.51256 14.7804 1.21967C14.4875 0.926777 14.0127 0.926777 13.7198 1.21967L11.0001 3.93934Z" fill="#18181B"/>
<path fill-rule="evenodd" clip-rule="evenodd" d="M14.1248 9.83297C13.7162 9.28823 13.1657 8.86635 12.5335 8.61346L12.5014 8.60061C11.5691 8.2277 10.5099 8.3678 9.7066 8.97024L9.34703 9.23992C9.14797 9.38922 8.86942 9.36942 8.69348 9.19347L6.80675 7.30674C6.6308 7.1308 6.611 6.85225 6.7603 6.65319L7.02998 6.29362C7.63243 5.49036 7.77252 4.43113 7.39961 3.49887L7.38676 3.46672C7.13387 2.83451 6.71199 2.28401 6.16725 1.87546L5.9767 1.73255C5.36507 1.27383 4.56732 1.14437 3.84202 1.38614L3.65267 1.44925C2.61236 1.79603 1.79603 2.61236 1.44926 3.65267C1.15592 4.53269 1.11963 5.4782 1.34461 6.37812C1.77351 8.0937 2.66063 9.66063 3.91106 10.9111L5.08915 12.0892C6.33958 13.3396 7.90652 14.2267 9.6221 14.6556C10.522 14.8806 11.4675 14.8443 12.3475 14.551C13.3879 14.2042 14.2042 13.3879 14.551 12.3475L14.6141 12.1582C14.8558 11.4329 14.7264 10.6351 14.2677 10.0235L14.1248 9.83297ZM5.15925 3.21946L4.9687 3.07655C4.7981 2.9486 4.57559 2.91249 4.37328 2.97993L4.18394 3.04304C3.64528 3.22259 3.2226 3.64528 3.04305 4.18393C2.85075 4.7608 2.82696 5.38067 2.97445 5.97066C3.32951 7.39087 4.0639 8.68802 5.099 9.72312L6.27709 10.9012C7.31219 11.9363 8.60935 12.6707 10.0296 13.0258C10.6195 13.1733 11.2394 13.1495 11.8163 12.9572C12.3549 12.7776 12.7776 12.3549 12.9572 11.8163L13.0203 11.6269C13.0877 11.4246 13.0516 11.2021 12.9237 11.0315L12.7808 10.841C12.5571 10.5427 12.2557 10.3118 11.9096 10.1733L11.8774 10.1604C11.4895 10.0053 11.0488 10.0636 10.7146 10.3142L10.355 10.5839C9.48713 11.2348 8.27266 11.1485 7.50554 10.3814L5.61881 8.49468C4.85168 7.72756 4.76537 6.51309 5.4163 5.64519L5.68598 5.28562C5.93664 4.9514 5.99493 4.51069 5.83977 4.12281L5.82692 4.09066C5.68846 3.74453 5.45749 3.44314 5.15925 3.21946Z" fill="#18181B"/>
</svg>
