<svg width="16" height="16" viewBox="0 0 16 16" fill="none" xmlns="http://www.w3.org/2000/svg">
<path fill-rule="evenodd" clip-rule="evenodd" d="M14.1246 9.83289C13.7161 9.28816 13.1656 8.86627 12.5334 8.61338L12.5012 8.60053C11.569 8.22762 10.5097 8.36772 9.70648 8.97016L9.34691 9.23984C9.14785 9.38914 8.8693 9.36934 8.69335 9.1934L6.80662 7.30667C6.63068 7.13072 6.61088 6.85217 6.76018 6.65311L7.02986 6.29354C7.6323 5.49028 7.7724 4.43105 7.39949 3.49879L7.38663 3.46664C7.13375 2.83443 6.71186 2.28394 6.16713 1.87539L5.97658 1.73247C5.36495 1.27375 4.5672 1.14429 3.8419 1.38606L3.65255 1.44918C2.61224 1.79595 1.79591 2.61228 1.44914 3.65259C1.1558 4.53261 1.11951 5.47812 1.34449 6.37804C1.77339 8.09362 2.66051 9.66055 3.91094 10.911L5.08903 12.0891C6.33946 13.3395 7.9064 14.2266 9.62198 14.6555C10.5219 14.8805 11.4674 14.8442 12.3474 14.5509C13.3877 14.2041 14.2041 13.3878 14.5508 12.3475L14.614 12.1581C14.8557 11.4328 14.7263 10.6351 14.2675 10.0234L14.1246 9.83289ZM5.15913 3.21939L4.96857 3.07647C4.79798 2.94852 4.57546 2.91241 4.37316 2.97985L4.18381 3.04296C3.64516 3.22252 3.22248 3.6452 3.04292 4.18386C2.85063 4.76073 2.82683 5.3806 2.97433 5.97058C3.32938 7.39079 4.06378 8.68794 5.09888 9.72304L6.27697 10.9011C7.31207 11.9362 8.60923 12.6706 10.0294 13.0257C10.6194 13.1732 11.2393 13.1494 11.8162 12.9571C12.3548 12.7775 12.7775 12.3549 12.9571 11.8162L13.0202 11.6269C13.0876 11.4246 13.0515 11.202 12.9235 11.0314L12.7806 10.8409C12.557 10.5427 12.2556 10.3117 11.9094 10.1732L11.8773 10.1604C11.4894 10.0052 11.0487 10.0635 10.7145 10.3142L10.3549 10.5838C9.48701 11.2348 8.27254 11.1485 7.50541 10.3813L5.61868 8.49461C4.85156 7.72748 4.76525 6.51301 5.41618 5.64511L5.68586 5.28554C5.93652 4.95133 5.99481 4.51061 5.83965 4.12273L5.82679 4.09058C5.68834 3.74445 5.45736 3.44306 5.15913 3.21939Z" fill="#18181B"/>
</svg>
