<svg width="16" height="16" viewBox="0 0 16 16" fill="none" xmlns="http://www.w3.org/2000/svg">
<path fill-rule="evenodd" clip-rule="evenodd" d="M4.61823 8.40456L3.47048 8.11762C2.2156 7.8039 1 8.75302 1 10.0465C1 10.6159 1.24407 11.1579 1.67036 11.5352L3.86797 13.4807C5.54747 14.9675 7.77994 15.67 10.0082 15.4129C12.8547 15.0844 14.9343 12.5674 14.72 9.7101L14.2828 3.88085C14.2032 2.82008 13.3193 2 12.2556 2C12.089 2 11.9269 2.02009 11.7717 2.05802L11.7675 1.9445C11.7273 0.859133 10.8358 0 9.74964 0C8.92614 0 8.21436 0.493944 7.90088 1.20608C7.63013 1.07387 7.3264 1 7.00667 1C5.93059 1 5.03952 1.83576 4.97065 2.90963L4.61823 8.40456ZM6.29062 5.7648L6.4168 3.79735L6.46218 3.08971L6.46757 3.00563C6.48581 2.72129 6.72175 2.5 7.00667 2.5C7.28607 2.5 7.51937 2.71305 7.54466 2.9913L7.55229 3.0752L7.61649 3.78139L7.64787 4.12656L7.79498 5.74478L7.99649 7.9614L8 8H8.98971H9L9.00351 7.90877L9.15049 4.08732L9.19882 2.8308L9.22929 2.0385L9.2308 1.99928C9.24152 1.72048 9.47065 1.5 9.74964 1.5C10.0289 1.5 10.2582 1.72092 10.2685 2.00001L10.27 2.03924L10.2993 2.83158L10.3207 3.40803L10.3401 3.93207L10.4929 8.05742L10.4952 8.12025L10.498 8.19727L10.5 8.25H11.5L11.502 8.21289L11.5421 7.45053L11.681 4.81085L11.7198 4.07307L11.7234 4.00488C11.7293 3.89326 11.7692 3.79115 11.8328 3.70842C11.9305 3.58137 12.0839 3.5 12.2556 3.5C12.5344 3.5 12.7661 3.71497 12.787 3.99303L12.7921 4.06113L12.8473 4.79786L13.045 7.43379L13.2242 9.82229C13.3783 11.8768 11.883 13.6866 9.83626 13.9227C8.03121 14.131 6.22275 13.5619 4.86223 12.3575L3.60343 11.2432L3.3285 10.9998L2.85478 10.5804L2.66462 10.4121C2.55994 10.3194 2.5 10.1863 2.5 10.0465C2.5 9.72887 2.79852 9.49579 3.10668 9.57284L3.35306 9.63443L3.96636 9.78776L4.32306 9.87693L4.52064 9.92632L6 10.2962L6.0976 8.7744L6.29062 5.7648Z" fill="#18181B"/>
</svg>
