<svg width="16" height="16" viewBox="0 0 16 16" fill="none" xmlns="http://www.w3.org/2000/svg">
<path fill-rule="evenodd" clip-rule="evenodd" d="M12 8.5C12.8284 8.5 13.5 9.17157 13.5 10V11C13.5 11.8284 12.8284 12.5 12 12.5H4C3.17157 12.5 2.5 11.8284 2.5 11V10C2.5 9.17157 3.17157 8.5 4 8.5H12ZM12.8901 7.13424L11.4875 4.32918C11.2335 3.821 10.7141 3.5 10.1459 3.5H5.8541C5.28594 3.5 4.76655 3.821 4.51246 4.32918L3.10993 7.13424C3.39115 7.04699 3.69009 7 4 7H12C12.3099 7 12.6088 7.04699 12.8901 7.13424ZM15 9.18034V10V11C15 12.6569 13.6569 14 12 14H4C2.34315 14 1 12.6569 1 11V10V9.18034C1 8.40411 1.18073 7.63855 1.52786 6.94427L3.17082 3.65836C3.679 2.64201 4.71779 2 5.8541 2H10.1459C11.2822 2 12.321 2.64201 12.8292 3.65836L14.4721 6.94427C14.8193 7.63855 15 8.40411 15 9.18034ZM9 9.75C8.58579 9.75 8.25 10.0858 8.25 10.5C8.25 10.9142 8.58579 11.25 9 11.25H11.5C11.9142 11.25 12.25 10.9142 12.25 10.5C12.25 10.0858 11.9142 9.75 11.5 9.75H9Z" fill="#18181B"/>
</svg>
