<svg width="16" height="16" viewBox="0 0 16 16" fill="none" xmlns="http://www.w3.org/2000/svg">
<path fill-rule="evenodd" clip-rule="evenodd" d="M14 4.25001C14 3.95467 13.8267 3.68682 13.5572 3.56583C13.2878 3.44484 12.9725 3.49324 12.7517 3.68946L10.5017 5.68946C10.1921 5.96464 10.1643 6.4387 10.4394 6.74829C10.7146 7.05787 11.1887 7.08576 11.4983 6.81057L12.5 5.92015V11.75C12.5 12.1642 12.8358 12.5 13.25 12.5C13.6642 12.5 14 12.1642 14 11.75V4.25001ZM2.5 4.25001C2.5 3.8358 2.16421 3.50001 1.75 3.50001C1.33579 3.50001 1 3.8358 1 4.25001V11.7458C1 12.16 1.33579 12.4958 1.75 12.4958C2.16421 12.4958 2.5 12.16 2.5 11.7458V8.75001H6.5V11.7458C6.5 12.16 6.83579 12.4958 7.25 12.4958C7.66421 12.4958 8 12.16 8 11.7458V4.25001C8 3.8358 7.66421 3.50001 7.25 3.50001C6.83579 3.50001 6.5 3.8358 6.5 4.25001V7.25001H2.5V4.25001Z" fill="#18181B"/>
</svg>
