<svg width="16" height="16" viewBox="0 0 16 16" fill="none" xmlns="http://www.w3.org/2000/svg">
<path fill-rule="evenodd" clip-rule="evenodd" d="M2.5 4.25C2.5 3.83579 2.16421 3.5 1.75 3.5C1.33579 3.5 1 3.83579 1 4.25V11.7458C1 12.16 1.33579 12.4958 1.75 12.4958C2.16421 12.4958 2.5 12.16 2.5 11.7458V8.75H6.5V11.7458C6.5 12.16 6.83579 12.4958 7.25 12.4958C7.66421 12.4958 8 12.16 8 11.7458V4.25C8 3.83579 7.66421 3.5 7.25 3.5C6.83579 3.5 6.5 3.83579 6.5 4.25V7.25H2.5V4.25ZM10.9028 6.03318C11.0547 5.42597 11.6002 5 12.2261 5H12.4519C12.9388 5 13.3645 5.32835 13.4881 5.7993C13.5953 6.20769 13.4526 6.64094 13.1238 6.90574L9.51385 9.81243C9.15768 10.0992 8.95056 10.5319 8.95056 10.9892C8.95056 11.8236 9.62698 12.5 10.4614 12.5H14.25C14.6642 12.5 15 12.1642 15 11.75C15 11.3358 14.6642 11 14.25 11H10.4614C10.4586 11 10.4577 10.9996 10.4574 10.9995L10.4574 10.9995C10.4566 10.9991 10.4553 10.9984 10.4537 10.9968C10.4522 10.9953 10.4514 10.9939 10.4511 10.9932L10.4511 10.9931C10.451 10.9928 10.4506 10.9919 10.4506 10.9892C10.4506 10.9859 10.452 10.9828 10.4546 10.9808L14.0645 8.07408C14.8538 7.43852 15.1962 6.39864 14.9389 5.41846C14.6422 4.2881 13.6205 3.5 12.4519 3.5H12.2261C10.9119 3.5 9.76637 4.39442 9.44764 5.66937L9.41045 5.8181C9.30999 6.21994 9.55431 6.62715 9.95616 6.72761C10.358 6.82807 10.7652 6.58375 10.8657 6.1819L10.9028 6.03318Z" fill="#18181B"/>
</svg>
