<svg width="16" height="16" viewBox="0 0 16 16" fill="none" xmlns="http://www.w3.org/2000/svg">
<path fill-rule="evenodd" clip-rule="evenodd" d="M4.76 1.49951C3.4822 1.49951 2.39504 1.95906 1.6329 2.79563C0.878044 3.62421 0.5 4.75791 0.5 6.01299C0.5 8.19261 1.60945 9.93043 3.01909 11.2806C4.42375 12.6261 6.18921 13.649 7.65248 14.4141C7.86916 14.5274 8.12746 14.528 8.34464 14.4156C9.80786 13.6586 11.5728 12.628 12.9784 11.276C14.3872 9.92107 15.5 8.17832 15.5 6.01299C15.5 4.75357 15.1199 3.61956 14.3637 2.79195C13.6006 1.95671 12.5137 1.49951 11.24 1.49951C10.1638 1.49951 9.27388 1.89767 8.59732 2.65005C8.37072 2.90204 8.17283 3.18829 8 3.50366C7.82717 3.18829 7.62928 2.90204 7.40268 2.65005C6.72612 1.89767 5.83617 1.49951 4.76 1.49951Z" fill="#18181B"/>
</svg>
