<svg width="16" height="16" viewBox="0 0 16 16" fill="none" xmlns="http://www.w3.org/2000/svg">
<path fill-rule="evenodd" clip-rule="evenodd" d="M13.2929 0C13.6834 0 14 0.316583 14 0.707107V2H15.2929C15.6834 2 16 2.31658 16 2.70711C16 2.89464 15.9255 3.0745 15.7929 3.20711L14.3333 4.66667C14.1199 4.8801 13.8304 5 13.5286 5H12.5H12.0607L8.53033 8.53033C8.23744 8.82322 7.76256 8.82322 7.46967 8.53033C7.17678 8.23744 7.17678 7.76256 7.46967 7.46967L11 3.93934V3.5V2.4714C11 2.16957 11.1199 1.8801 11.3333 1.66667L12.7929 0.207106C12.9255 0.0744982 13.1054 0 13.2929 0ZM2.5 8C2.5 4.96243 4.96243 2.5 8 2.5C8.37679 2.5 8.74399 2.53778 9.09827 2.60952C9.50424 2.69173 9.89999 2.42926 9.9822 2.02329C10.0644 1.61732 9.80194 1.22157 9.39597 1.13936C8.94425 1.04789 8.47733 1 8 1C4.13401 1 1 4.13401 1 8C1 11.866 4.13401 15 8 15C11.866 15 15 11.866 15 8C15 7.52121 14.9518 7.05291 14.8598 6.59992C14.7774 6.19399 14.3814 5.93177 13.9755 6.01422C13.5696 6.09667 13.3074 6.49258 13.3898 6.8985C13.462 7.25378 13.5 7.62206 13.5 8C13.5 11.0376 11.0376 13.5 8 13.5C4.96243 13.5 2.5 11.0376 2.5 8ZM7.86354 5.50363C8.27716 5.48149 8.59452 5.12823 8.57238 4.71461C8.55024 4.30099 8.19698 3.98363 7.78336 4.00577C5.67462 4.11866 4 5.86351 4 7.99999C4 10.2091 5.79086 12 8 12C10.1079 12 11.8343 10.37 11.9888 8.30124C12.0196 7.88817 11.7098 7.52832 11.2967 7.49748C10.8836 7.46664 10.5238 7.7765 10.493 8.18956C10.3965 9.48133 9.31687 10.5 8 10.5C6.61929 10.5 5.5 9.3807 5.5 7.99999C5.5 6.66508 6.54663 5.57413 7.86354 5.50363Z" fill="#18181B"/>
</svg>
