<svg width="16" height="16" viewBox="0 0 16 16" fill="none" xmlns="http://www.w3.org/2000/svg">
<path fill-rule="evenodd" clip-rule="evenodd" d="M10.9697 12.5303C11.2626 12.8232 11.7374 12.8232 12.0303 12.5303C12.3232 12.2374 12.3232 11.7626 12.0303 11.4697L8.53033 7.96967C8.23744 7.67678 7.76256 7.67678 7.46967 7.96967L3.96967 11.4697C3.67678 11.7626 3.67678 12.2374 3.96967 12.5303C4.26256 12.8232 4.73744 12.8232 5.03033 12.5303L8 9.56066L10.9697 12.5303ZM10.9697 7.53033C11.2626 7.82322 11.7374 7.82322 12.0303 7.53033C12.3232 7.23744 12.3232 6.76256 12.0303 6.46967L8.53033 2.96967C8.23744 2.67678 7.76256 2.67678 7.46967 2.96967L3.96967 6.46967C3.67678 6.76256 3.67678 7.23744 3.96967 7.53033C4.26256 7.82322 4.73744 7.82322 5.03033 7.53033L8 4.56066L10.9697 7.53033Z" fill="#18181B"/>
</svg>
