<svg width="16" height="16" viewBox="0 0 16 16" fill="none" xmlns="http://www.w3.org/2000/svg">
<g clip-path="url(#clip0_2217_6008)">
<path fill-rule="evenodd" clip-rule="evenodd" d="M-6.55671e-08 1.25C-2.93554e-08 0.835785 0.335787 0.499999 0.75 0.499999L1.25 0.499999C2.49264 0.499999 3.5 1.50736 3.5 2.75L3.5 2.99999L13 2.99999C14.6569 2.99999 16 4.34314 16 5.99999L16 9.99999C16 11.6568 14.6569 13 13 13L3.5 13L3.5 14.25C3.5 14.6642 3.16421 15 2.75 15C2.33579 15 2 14.6642 2 14.25L2 13L2 11.5L2 4.49999L2 2.99999L2 2.75C2 2.33579 1.66421 2 1.25 2L0.75 2C0.335787 2 -1.01779e-07 1.66421 -6.55671e-08 1.25ZM13 4.49999L3.5 4.49999L3.5 11.5L13 11.5C13.8284 11.5 14.5 10.8284 14.5 9.99999L14.5 5.99999C14.5 5.17156 13.8284 4.49999 13 4.49999ZM8.5 7.99998C8.5 8.55227 8.05228 8.99999 7.5 8.99998C6.94772 8.99998 6.5 8.55227 6.5 7.99998C6.5 7.4477 6.94772 6.99998 7.5 6.99998C8.05228 6.99998 8.5 7.4477 8.5 7.99998ZM10 7.99998C10 9.3807 8.88071 10.5 7.5 10.5C6.11929 10.5 5 9.3807 5 7.99998C5 6.61927 6.11929 5.49998 7.5 5.49998C8.88071 5.49998 10 6.61927 10 7.99998Z" fill="#18181B"/>
</g>
<defs>
<clipPath id="clip0_2217_6008">
<rect width="16" height="16" fill="white"/>
</clipPath>
</defs>
</svg>
