<svg width="16" height="16" viewBox="0 0 16 16" fill="none" xmlns="http://www.w3.org/2000/svg">
<path fill-rule="evenodd" clip-rule="evenodd" d="M8 13.5C11.0376 13.5 13.5 11.0376 13.5 8C13.5 4.96243 11.0376 2.5 8 2.5C4.96243 2.5 2.5 4.96243 2.5 8C2.5 11.0376 4.96243 13.5 8 13.5ZM8 15C11.866 15 15 11.866 15 8C15 4.13401 11.866 1 8 1C4.13401 1 1 4.13401 1 8C1 11.866 4.13401 15 8 15Z" fill="#18181B"/>
<path fill-rule="evenodd" clip-rule="evenodd" d="M9.49134 8.80978C9.02832 8.9733 8.49285 9.07689 7.9635 9.09871C7.34083 9.12438 6.64502 9.04006 6.06422 8.72807C5.44365 8.39472 4.97932 7.80778 4.92027 6.96205C4.82239 5.56019 6.151 4.62064 7.75634 4.50855C8.63949 4.44688 9.45982 4.67919 10.0709 5.29835C10.6652 5.90042 10.9633 6.76969 11.0344 7.78818C11.1064 8.8191 10.9104 9.72083 10.3987 10.3952C9.87645 11.0834 9.10363 11.4315 8.24384 11.4915C7.07677 11.5729 6.43389 11.3093 5.87376 11.0764C5.49127 10.9175 5.31009 10.4785 5.46908 10.096C5.62806 9.71354 6.06701 9.53235 6.4495 9.69134L6.46118 9.69619C6.92822 9.89035 7.31808 10.0524 8.13944 9.99519C8.65126 9.95943 8.98971 9.77052 9.20376 9.48844C9.3257 9.32774 9.43021 9.10633 9.49134 8.80978ZM9.15747 7.33088C9.27668 7.27965 9.36648 7.22949 9.4298 7.18648C9.32785 6.78936 9.17231 6.52322 9.00337 6.35205C8.76601 6.11156 8.41137 5.96646 7.86082 6.0049C6.59879 6.09302 6.40519 6.69383 6.41663 6.85757C6.43594 7.13411 6.55599 7.28952 6.77405 7.40665C7.03189 7.54516 7.42898 7.61947 7.90171 7.59998C8.36603 7.58084 8.82416 7.47411 9.15747 7.33088Z" fill="#18181B"/>
</svg>
