<svg width="16" height="16" viewBox="0 0 16 16" fill="none" xmlns="http://www.w3.org/2000/svg">
<path fill-rule="evenodd" clip-rule="evenodd" d="M8 13.4999C11.0376 13.4999 13.5 11.0375 13.5 7.99994C13.5 4.96237 11.0376 2.49994 8 2.49994C4.96243 2.49994 2.5 4.96237 2.5 7.99994C2.5 11.0375 4.96243 13.4999 8 13.4999ZM8 14.9999C11.866 14.9999 15 11.8659 15 7.99994C15 4.13395 11.866 0.999939 8 0.999939C4.13401 0.999939 1 4.13395 1 7.99994C1 11.8659 4.13401 14.9999 8 14.9999ZM6.4402 4.53937C6.87015 4.1862 7.43433 3.97482 8.00001 3.97482C9.2172 3.97482 10.3394 4.79511 10.3394 6.11558C10.3394 6.49175 10.2615 6.86006 10.0421 7.21583C9.83365 7.55379 9.52894 7.82877 9.1671 8.08226C8.94958 8.23464 8.84142 8.33905 8.7883 8.41026C8.74999 8.46163 8.75 8.48069 8.75001 8.49887L8.75001 8.49973C8.75001 8.91394 8.41422 9.24973 8.00001 9.24973C7.58579 9.24973 7.25001 8.91394 7.25001 8.49973C7.25001 7.70501 7.79368 7.21296 8.30645 6.85374C8.58618 6.65777 8.7078 6.52176 8.76532 6.42848C8.81186 6.35302 8.83944 6.26984 8.83944 6.11558C8.83944 5.81638 8.59576 5.47482 8.00001 5.47482C7.79492 5.47482 7.5644 5.55711 7.39231 5.69846C7.22488 5.836 7.16057 5.98524 7.16057 6.11558C7.16057 6.52979 6.82479 6.86558 6.41057 6.86558C5.99636 6.86558 5.66057 6.52979 5.66057 6.11558C5.66057 5.44249 6.00561 4.89635 6.4402 4.53937ZM8 11.9999C8.55228 11.9999 9 11.5522 9 10.9999C9 10.4477 8.55228 9.99994 8 9.99994C7.44772 9.99994 7 10.4477 7 10.9999C7 11.5522 7.44772 11.9999 8 11.9999Z" fill="#18181B"/>
</svg>
