<svg width="16" height="16" viewBox="0 0 16 16" fill="none" xmlns="http://www.w3.org/2000/svg">
<g clip-path="url(#clip0_2217_4448)">
<path fill-rule="evenodd" clip-rule="evenodd" d="M12.5 12.5H3.5C2.67157 12.5 2 11.8284 2 11V9H5C5.26675 9 5.51343 8.85832 5.64783 8.6279L6.66723 6.88037L8.56722 11.0604C8.68325 11.3156 8.93195 11.4848 9.21197 11.499C9.49199 11.5133 9.75656 11.3701 9.89783 11.1279L11.4308 8.5H14V11C14 11.8284 13.3284 12.5 12.5 12.5ZM14 7H11C10.7332 7 10.4866 7.14168 10.3522 7.3721L9.33277 9.11963L7.43278 4.93965C7.31675 4.6844 7.06805 4.51518 6.78803 4.50096C6.50801 4.48675 6.24344 4.62991 6.10217 4.8721L4.56922 7.5H2V5C2 4.17157 2.67157 3.5 3.5 3.5H12.5C13.3284 3.5 14 4.17157 14 5V7ZM3.5 14H12.5C14.1569 14 15.5 12.6569 15.5 11V5C15.5 3.34315 14.1569 2 12.5 2H3.5C1.84315 2 0.5 3.34315 0.5 5V11C0.5 12.6569 1.84315 14 3.5 14Z" fill="#18181B"/>
</g>
<defs>
<clipPath id="clip0_2217_4448">
<rect width="16" height="16" fill="white"/>
</clipPath>
</defs>
</svg>
