<svg width="16" height="16" viewBox="0 0 16 16" fill="none" xmlns="http://www.w3.org/2000/svg">
<path fill-rule="evenodd" clip-rule="evenodd" d="M11 12C13.4853 12 15.5 11.1667 15.5 9.5V6.32152C15.2976 6.46893 15.084 6.59844 14.8652 6.71035C13.7642 7.27372 12.3782 7.5 11 7.5V12ZM11 6L10.9649 5.99994C10.7788 4.70045 9.87647 3.80706 8.86523 3.28965C8.2254 2.96227 7.48934 2.74872 6.7145 2.62726C7.29611 1.54242 8.99491 1 11 1C13.4853 1 15.5 1.83333 15.5 3.5C15.5 5.16667 13.4853 6 11 6ZM9.5 12.5C9.5 14.1667 7.48528 15 5 15C2.51472 15 0.5 14.1667 0.5 12.5V9.32152C0.702397 9.46893 0.916036 9.59844 1.13477 9.71035C2.23581 10.2737 3.62181 10.5 5 10.5C6.37819 10.5 7.76419 10.2737 8.86523 9.71035C9.08397 9.59844 9.2976 9.46893 9.5 9.32152V12.5ZM5 9C7.48528 9 9.5 8.16667 9.5 6.5C9.5 4.83333 7.48528 4 5 4C2.51472 4 0.5 4.83333 0.5 6.5C0.5 8.16667 2.51472 9 5 9Z" fill="#18181B"/>
</svg>
