<svg width="16" height="16" viewBox="0 0 16 16" fill="none" xmlns="http://www.w3.org/2000/svg">
<g clip-path="url(#clip0_2217_3041)">
<path fill-rule="evenodd" clip-rule="evenodd" d="M6.70225 3.01331L8 3.49996V2.38597C8 0.989553 9.39474 0.0229933 10.7022 0.513306L14.0534 1.76998C15.2243 2.20907 16 3.32843 16 4.57897V8.61396C16 10.0104 14.6053 10.9769 13.2978 10.4866L12 9.99996V11.114C12 12.5104 10.6053 13.4769 9.29775 12.9866L8 12.5V13.614C8 15.0104 6.60526 15.977 5.29775 15.4867L1.94663 14.23C0.775719 13.7909 0 12.6715 0 11.421V7.386C0 5.98959 1.39474 5.02303 2.70225 5.51334L4 6V4.88597C4 3.48955 5.39474 2.52299 6.70225 3.01331ZM5.5 6.5625L6.05337 6.77001C7.22428 7.20911 8 8.32847 8 9.579V10.898L9.82444 11.5821C10.1513 11.7047 10.5 11.4631 10.5 11.114V7.07897C10.5 6.4537 10.1121 5.89402 9.52669 5.67447L6.17556 4.4178C5.84869 4.29522 5.5 4.53686 5.5 4.88597V6.5625ZM10.0534 4.26998L9.5 4.06246V2.38597C9.5 2.03686 9.84869 1.79522 10.1756 1.9178L13.5267 3.17447C14.1121 3.39402 14.5 3.9537 14.5 4.57897V8.61396C14.5 8.96307 14.1513 9.20471 13.8244 9.08213L12 8.39796V7.07897C12 5.82843 11.2243 4.70907 10.0534 4.26998ZM1.5 11.421V7.386C1.5 7.0369 1.84869 6.79526 2.17556 6.91784L5.52669 8.17451C6.11214 8.39405 6.5 8.95374 6.5 9.579V13.614C6.5 13.9631 6.15131 14.2047 5.82444 14.0822L2.47332 12.8255C1.88786 12.6059 1.5 12.0463 1.5 11.421Z" fill="#18181B"/>
</g>
<defs>
<clipPath id="clip0_2217_3041">
<rect width="16" height="16" fill="white"/>
</clipPath>
</defs>
</svg>
