<svg width="16" height="16" viewBox="0 0 16 16" fill="none" xmlns="http://www.w3.org/2000/svg">
<path fill-rule="evenodd" clip-rule="evenodd" d="M9.5 12C9.5 12.4142 9.33211 12.7892 9.06066 13.0607C8.78921 13.3321 8.41421 13.5 8 13.5H4C3.58579 13.5 3.21078 13.3321 2.93934 13.0607C2.66789 12.7892 2.5 12.4142 2.5 12V8C2.5 7.58579 2.66789 7.21079 2.93934 6.93934C3.21079 6.66789 3.58579 6.5 4 6.5H8C8.41421 6.5 8.78921 6.66789 9.06066 6.93934C9.33211 7.21079 9.5 7.58579 9.5 8V12ZM8.03085 10.9702C8.03067 10.97 8.03102 10.9704 8.03085 10.9702L7.06066 10L8.03033 9.03033C8.31332 8.74734 8.32289 8.29448 8.05904 8C8.04981 7.98969 8.04024 7.97958 8.03033 7.96967C8.02042 7.95976 8.01031 7.95019 8 7.94096C7.70552 7.67711 7.25266 7.68668 6.96967 7.96967L6 8.93934L5.03084 7.97018C4.74785 7.68719 4.29448 7.67711 4 7.94096C3.98969 7.95019 3.97958 7.95976 3.96967 7.96967C3.95976 7.97958 3.95019 7.98969 3.94096 8C3.67721 8.29437 3.68668 8.747 3.96935 9.03001C3.96924 9.0299 3.96946 9.03012 3.96935 9.03001L4.93934 10L3.96967 10.9697C3.96946 10.9699 3.96988 10.9695 3.96967 10.9697C3.68729 11.2527 3.67731 11.7057 3.94095 12C3.95019 12.0103 3.95976 12.0204 3.96967 12.0303C3.97958 12.0402 3.98969 12.0498 4 12.059C4.2943 12.3227 4.7468 12.3133 5.02982 12.0308C5.02965 12.031 5.02999 12.0307 5.02982 12.0308C5.02999 12.0307 5.03067 12.03 5.03084 12.0298L6 11.0607L6.96967 12.0303C6.9695 12.0302 6.96984 12.0305 6.96967 12.0303C7.25269 12.3128 7.7057 12.3227 8 12.059C8.01031 12.0498 8.02042 12.0402 8.03033 12.0303C8.04024 12.0204 8.04981 12.0103 8.05904 12C8.32273 11.7057 8.31333 11.2532 8.03085 10.9702ZM6.5 5H8C9.65685 5 11 6.34315 11 8V9.5H12C12.1753 9.5 12.3436 9.46992 12.5 9.41465C13.0826 9.20873 13.5 8.65311 13.5 8V4C13.5 3.17157 12.8284 2.5 12 2.5H8C7.34689 2.5 6.79127 2.9174 6.58535 3.5C6.53008 3.65639 6.5 3.82468 6.5 4V5ZM5 4C5 2.34315 6.34315 1 8 1H12C13.6569 1 15 2.34315 15 4V8C15 9.65685 13.6569 11 12 11H11V12C11 13.6569 9.65685 15 8 15H4C2.34315 15 1 13.6569 1 12V8C1 6.34315 2.34315 5 4 5H5V4Z" fill="#18181B"/>
</svg>
