<svg width="16" height="16" viewBox="0 0 16 16" fill="none" xmlns="http://www.w3.org/2000/svg">
<path fill-rule="evenodd" clip-rule="evenodd" d="M6.25933 15.1087C7.35892 15.6401 8.64108 15.6401 9.74067 15.1087L9.87034 15.046C10.5611 14.7121 11 14.0125 11 13.2453V12.7776C11 11.4257 11.7758 10.2206 12.54 9.1055C13.1457 8.22177 13.5 7.15227 13.5 6C13.5 2.96243 11.0376 0.5 8 0.5C4.96243 0.5 2.5 2.96243 2.5 6C2.5 7.15227 2.85434 8.22177 3.46 9.1055C4.22425 10.2206 5 11.4257 5 12.7776V13.2453C5 14.0125 5.43889 14.7121 6.12966 15.046L6.25933 15.1087ZM9.08793 13.7581L9.21758 13.6955C9.39028 13.612 9.5 13.4371 9.5 13.2453V12.7776C9.5 12.6082 9.50869 12.4414 9.52503 12.2771C8.533 12.5743 7.467 12.5743 6.47497 12.2771C6.49131 12.4414 6.5 12.6082 6.5 12.7776V13.2453C6.5 13.4371 6.60972 13.612 6.78242 13.6955L6.91208 13.7582C7.59933 14.0903 8.40068 14.0903 9.08793 13.7581ZM4.6973 8.25751C5.09213 8.83362 5.58903 9.56039 5.9611 10.4055C7.18905 11.1982 8.81095 11.1982 10.0389 10.4055C10.411 9.56039 10.9079 8.83361 11.3027 8.25751C11.7427 7.61551 12 6.84006 12 6C12 3.79086 10.2091 2 8 2C5.79086 2 4 3.79086 4 6C4 6.84006 4.25731 7.61551 4.6973 8.25751Z" fill="#18181B"/>
<path d="M8.00001 3.5C7.5858 3.49999 7.25001 3.83578 7.25 4.24999C7.24999 4.6642 7.58578 4.99999 7.99999 5C8.55227 5.00001 8.99997 5.44772 8.99997 6C8.99997 6.41421 9.33576 6.75 9.74997 6.75C10.1642 6.75 10.5 6.41421 10.5 6C10.5 4.6193 9.38071 3.50002 8.00001 3.5Z" fill="#18181B"/>
</svg>
