<svg width="16" height="16" viewBox="0 0 16 16" fill="none" xmlns="http://www.w3.org/2000/svg">
<path fill-rule="evenodd" clip-rule="evenodd" d="M12.5 14.25C12.5 14.6642 12.8358 15 13.25 15C13.6642 15 14 14.6642 14 14.25L14 1.75C14 1.33579 13.6642 1 13.25 1C12.8358 1 12.5 1.33579 12.5 1.75L12.5 14.25ZM9.5 7L9.5 9C9.5 9.55228 9.05229 10 8.5 10L4 10C3.44772 10 3 9.55228 3 9L3 7C3 6.44772 3.44772 6 4 6L8.5 6C9.05229 6 9.5 6.44772 9.5 7ZM8.5 4.5C9.88071 4.5 11 5.61929 11 7L11 9C11 10.3807 9.88071 11.5 8.5 11.5L4 11.5C2.61929 11.5 1.5 10.3807 1.5 9L1.5 7C1.5 5.61929 2.61929 4.5 4 4.5L8.5 4.5Z" fill="#18181B"/>
</svg>
