<svg width="16" height="16" viewBox="0 0 16 16" fill="none" xmlns="http://www.w3.org/2000/svg">
<path fill-rule="evenodd" clip-rule="evenodd" d="M1.21967 8.53033C0.926776 8.23744 0.926776 7.76256 1.21967 7.46967L3.71967 4.96967C4.01256 4.67678 4.48744 4.67678 4.78033 4.96967C5.07322 5.26256 5.07322 5.73744 4.78033 6.03033L3.56066 7.25L11.25 7.25C11.6642 7.25 12 7.58579 12 8C12 8.41421 11.6642 8.75 11.25 8.75L3.56066 8.75L4.78033 9.96967C5.07322 10.2626 5.07322 10.7374 4.78033 11.0303C4.48744 11.3232 4.01256 11.3232 3.71967 11.0303L1.21967 8.53033ZM13.5 14.25C13.5 14.6642 13.8358 15 14.25 15C14.6642 15 15 14.6642 15 14.25L15 1.75C15 1.33579 14.6642 0.999999 14.25 0.999999C13.8358 0.999999 13.5 1.33579 13.5 1.75L13.5 14.25Z" fill="#18181B"/>
</svg>
