<svg width="16" height="16" viewBox="0 0 16 16" fill="none" xmlns="http://www.w3.org/2000/svg">
<path fill-rule="evenodd" clip-rule="evenodd" d="M8 13.5C11.0376 13.5 13.5 11.0376 13.5 8C13.5 4.96243 11.0376 2.5 8 2.5C4.96243 2.5 2.5 4.96243 2.5 8C2.5 11.0376 4.96243 13.5 8 13.5ZM8 15C11.866 15 15 11.866 15 8C15 4.13401 11.866 1 8 1C4.13401 1 1 4.13401 1 8C1 11.866 4.13401 15 8 15ZM4.75 9.25C4.75 8.83579 5.08579 8.5 5.5 8.5H10.5C10.9142 8.5 11.25 8.83579 11.25 9.25C11.25 9.93604 10.8194 10.5689 10.2759 10.996C9.70644 11.4434 8.91832 11.75 8 11.75C7.08168 11.75 6.29356 11.4434 5.72413 10.996C5.18059 10.5689 4.75 9.93604 4.75 9.25ZM10 7.5C9.58579 7.5 9.25 7.16421 9.25 6.75V5.75C9.25 5.33579 9.58579 5 10 5C10.4142 5 10.75 5.33579 10.75 5.75V6.75C10.75 7.16421 10.4142 7.5 10 7.5ZM5.25 6.75C5.25 7.16421 5.58579 7.5 6 7.5C6.41421 7.5 6.75 7.16421 6.75 6.75V5.75C6.75 5.33579 6.41421 5 6 5C5.58579 5 5.25 5.33579 5.25 5.75V6.75Z" fill="#18181B"/>
</svg>
