<svg width="16" height="16" viewBox="0 0 16 16" fill="none" xmlns="http://www.w3.org/2000/svg">
<path fill-rule="evenodd" clip-rule="evenodd" d="M10 4.5C10 5.60457 9.10457 6.5 8 6.5C6.89543 6.5 6 5.60457 6 4.5C6 3.39543 6.89543 2.5 8 2.5C9.10457 2.5 10 3.39543 10 4.5ZM11.5 4.5C11.5 6.433 9.933 8 8 8C6.067 8 4.5 6.433 4.5 4.5C4.5 2.567 6.067 1 8 1C9.933 1 11.5 2.567 11.5 4.5ZM2.5 12.5C2.5 12.2955 2.72027 11.6911 3.81956 11.0413C4.83752 10.4395 6.31979 10 8 10C9.68021 10 11.1625 10.4395 12.1804 11.0413C13.2797 11.6911 13.5 12.2955 13.5 12.5C13.5 13.0523 13.0523 13.5 12.5 13.5H12.25C11.8358 13.5 11.5 13.8358 11.5 14.25C11.5 14.6642 11.8358 15 12.25 15H12.5C13.8807 15 15 13.8807 15 12.5C15 10.5 11.85 8.5 8 8.5C4.15 8.5 1 10.5 1 12.5C1 13.8807 2.11929 15 3.5 15H3.75C4.16421 15 4.5 14.6642 4.5 14.25C4.5 13.8358 4.16421 13.5 3.75 13.5H3.5C2.94772 13.5 2.5 13.0523 2.5 12.5ZM5.83541 11.5792C5.46493 11.3939 5.01442 11.5441 4.82918 11.9146C4.64539 12.2822 4.79177 12.7285 5.15589 12.9164C5.15839 12.9178 5.16502 12.9215 5.17522 12.9277C5.1972 12.9411 5.23532 12.9656 5.28438 13.0023C5.38282 13.0762 5.5224 13.1973 5.66435 13.3748C5.85844 13.6174 6.06885 13.9793 6.17687 14.5H5.75C5.33579 14.5 5 14.8358 5 15.25C5 15.6642 5.33579 16 5.75 16H7H9H10.25C10.6642 16 11 15.6642 11 15.25C11 14.8358 10.6642 14.5 10.25 14.5H9.82313C9.93114 13.9793 10.1416 13.6174 10.3357 13.3748C10.4776 13.1973 10.6172 13.0762 10.7156 13.0023C10.7647 12.9656 10.8028 12.9411 10.8248 12.9277C10.835 12.9215 10.8416 12.9178 10.8441 12.9164C11.2082 12.7285 11.3546 12.2822 11.1708 11.9146C10.9856 11.5441 10.5351 11.3939 10.1646 11.5792L10.5 12.25C10.1646 11.5792 10.1642 11.5794 10.1638 11.5796L10.1629 11.58L10.1612 11.5809L10.1572 11.5829L10.1475 11.588C10.1403 11.5917 10.1317 11.5963 10.1217 11.6018C10.1018 11.6128 10.0764 11.6273 10.0463 11.6455C9.98627 11.682 9.9072 11.7337 9.81563 11.8023C9.63282 11.9394 9.3974 12.1464 9.16435 12.4377C8.78708 12.9093 8.43079 13.5844 8.30135 14.5H7.69865C7.56921 13.5844 7.21292 12.9093 6.83565 12.4377C6.6026 12.1464 6.36718 11.9394 6.18437 11.8023C6.0928 11.7337 6.01373 11.682 5.95369 11.6455C5.92363 11.6273 5.89823 11.6128 5.87828 11.6018C5.86831 11.5963 5.85968 11.5917 5.85251 11.588L5.84284 11.5829L5.83884 11.5809L5.83705 11.58L5.83621 11.5796C5.83581 11.5794 5.83541 11.5792 5.5 12.25L5.83541 11.5792Z" fill="#18181B"/>
</svg>
