<svg width="16" height="16" viewBox="0 0 16 16" fill="none" xmlns="http://www.w3.org/2000/svg">
<path fill-rule="evenodd" clip-rule="evenodd" d="M12.5 12C12.5 12.8284 11.8284 13.5 11 13.5H5C4.17157 13.5 3.5 12.8284 3.5 12L3.5 4C3.5 3.17157 4.17157 2.5 5 2.5L7.75736 2.5C8.15518 2.5 8.53672 2.65804 8.81802 2.93934L12.0607 6.18198C12.342 6.46328 12.5 6.84482 12.5 7.24264V12ZM13.1213 5.12132C13.6839 5.68393 14 6.44699 14 7.24264L14 12C14 13.6569 12.6569 15 11 15H5C3.34315 15 2 13.6569 2 12V4C2 2.34315 3.34315 1 5 1H7.75736C8.55301 1 9.31607 1.31607 9.87868 1.87868L13.1213 5.12132ZM5.70225 6.98666C5.55681 6.59882 5.1245 6.40231 4.73666 6.54775C4.34882 6.69319 4.15231 7.1255 4.29775 7.51334L5.79775 11.5133C5.90753 11.8061 6.18737 12 6.5 12C6.81263 12 7.09247 11.8061 7.20225 11.5133L8 9.386L8.79775 11.5133C8.91019 11.8132 9.20057 12.0085 9.52067 11.9997C9.84076 11.9909 10.1199 11.7798 10.2157 11.4742L11.4691 7.47426C11.5929 7.07899 11.3729 6.65817 10.9776 6.53431C10.5824 6.41046 10.1615 6.63048 10.0377 7.02574L9.43645 8.94453L8.70225 6.98666C8.59247 6.69393 8.31263 6.5 8 6.5C7.68737 6.5 7.40753 6.69393 7.29775 6.98666L6.5 9.11399L5.70225 6.98666Z" fill="#18181B"/>
</svg>
