<svg width="16" height="16" viewBox="0 0 16 16" fill="none" xmlns="http://www.w3.org/2000/svg">
<path fill-rule="evenodd" clip-rule="evenodd" d="M3.71967 2.21967C4.01256 1.92678 4.48744 1.92678 4.78033 2.21967L7.78033 5.21967C8.07322 5.51256 8.07322 5.98744 7.78033 6.28033C7.48744 6.57322 7.01256 6.57322 6.71967 6.28033L5 4.56066L5 13.25C5 13.6642 4.66421 14 4.25 14C3.83578 14 3.5 13.6642 3.5 13.25L3.5 4.56066L1.78033 6.28033C1.48744 6.57322 1.01256 6.57322 0.71967 6.28033C0.426777 5.98744 0.426777 5.51256 0.71967 5.21967L3.71967 2.21967ZM11.75 14C11.5511 14 11.3603 13.921 11.2197 13.7803L8.21967 10.7803C7.92678 10.4874 7.92678 10.0126 8.21967 9.71967C8.51256 9.42678 8.98744 9.42678 9.28033 9.71967L11 11.4393L11 2.75C11 2.33579 11.3358 2 11.75 2C12.1642 2 12.5 2.33579 12.5 2.75L12.5 11.4393L14.2197 9.71967C14.5126 9.42678 14.9874 9.42678 15.2803 9.71967C15.5732 10.0126 15.5732 10.4874 15.2803 10.7803L12.2803 13.7803C12.1397 13.921 11.9489 14 11.75 14Z" fill="#18181B"/>
</svg>
