<svg width="16" height="16" viewBox="0 0 16 16" fill="none" xmlns="http://www.w3.org/2000/svg">
<path fill-rule="evenodd" clip-rule="evenodd" d="M3.50356 5.89749C2.34749 5.5722 1.5 4.51007 1.5 3.25C1.5 3.15508 1.50481 3.06128 1.5142 2.96883C1.65503 1.58212 2.82614 0.5 4.25 0.5C5.76878 0.5 7 1.73122 7 3.25C7 4.50628 6.15761 5.5658 5.00687 5.89453C5.07959 6.65515 5.72033 7.25 6.5 7.25H8H9.5C10.2797 7.25 10.9204 6.65515 10.9931 5.89453C9.84239 5.5658 9 4.50628 9 3.25C9 1.73122 10.2312 0.5 11.75 0.5C13.2688 0.5 14.5 1.73122 14.5 3.25C14.5 3.34492 14.4952 3.43872 14.4858 3.53117C14.3706 4.66592 13.5654 5.59671 12.4964 5.89749C12.4195 7.48584 11.1074 8.75 9.5 8.75H8.75V10.1035C9.90425 10.43 10.75 11.4912 10.75 12.75C10.75 14.2688 9.51878 15.5 8 15.5C6.48122 15.5 5.25 14.2688 5.25 12.75C5.25 12.6551 5.25481 12.5613 5.2642 12.4688C5.37931 11.3353 6.18279 10.4054 7.25 10.1035V8.75H6.5C4.8926 8.75 3.58046 7.48583 3.50356 5.89749ZM3 3.25C3 2.55964 3.55964 2 4.25 2C4.94036 2 5.5 2.55964 5.5 3.25C5.5 3.94036 4.94036 4.5 4.25 4.5C3.60279 4.5 3.07047 4.00812 3.00645 3.3778C3.00219 3.33578 3 3.29315 3 3.25ZM6.75 12.75C6.75 12.0596 7.30964 11.5 8 11.5C8.69036 11.5 9.25 12.0596 9.25 12.75C9.25 13.4404 8.69035 14 8 14C7.35279 14 6.82047 13.5081 6.75645 12.8778C6.75219 12.8358 6.75 12.7931 6.75 12.75ZM10.5 3.25C10.5 2.55964 11.0596 2 11.75 2C12.4404 2 13 2.55964 13 3.25C13 3.94036 12.4404 4.5 11.75 4.5C11.0596 4.5 10.5 3.94036 10.5 3.25Z" fill="#18181B"/>
</svg>
