<svg width="16" height="16" viewBox="0 0 16 16" fill="none" xmlns="http://www.w3.org/2000/svg">
<path fill-rule="evenodd" clip-rule="evenodd" d="M12 2.5H8C7.17157 2.5 6.5 3.17157 6.5 4V5H8C9.65685 5 11 6.34315 11 8V9.5H12C12.8284 9.5 13.5 8.82843 13.5 8V4C13.5 3.17157 12.8284 2.5 12 2.5ZM11 11H12C13.6569 11 15 9.65685 15 8V4C15 2.34315 13.6569 1 12 1H8C6.34315 1 5 2.34315 5 4V5H4C2.34315 5 1 6.34315 1 8V12C1 13.6569 2.34315 15 4 15H8C9.65685 15 11 13.6569 11 12V11ZM4 6.5H8C8.82843 6.5 9.5 7.17157 9.5 8V10.0412L8.93182 9.52159C8.36515 9.00335 7.50087 8.98945 6.91784 9.4892L5.19945 10.9621L4.59682 10.5101C4.06325 10.1099 3.33107 10.1046 2.79169 10.4969L2.5 10.709V8C2.5 7.17157 3.17157 6.5 4 6.5ZM2.58583 12.5014C2.79213 13.0832 3.3474 13.5 4 13.5H8C8.80418 13.5 9.46055 12.8672 9.49829 12.0723L7.91952 10.6285C7.91234 10.6219 7.9014 10.6218 7.89402 10.6281L5.71885 12.4925L5.26206 12.8841L4.78076 12.5231L3.69681 11.7101C3.69006 11.7051 3.68079 11.705 3.67397 11.71L2.58583 12.5014ZM5.61538 8.46152C5.61538 9.09878 5.09879 9.61537 4.46154 9.61537C3.82429 9.61537 3.30769 9.09878 3.30769 8.46152C3.30769 7.82427 3.82429 7.30768 4.46154 7.30768C5.09879 7.30768 5.61538 7.82427 5.61538 8.46152Z" fill="#18181B"/>
</svg>
