<svg width="16" height="16" viewBox="0 0 16 16" fill="none" xmlns="http://www.w3.org/2000/svg">
<path fill-rule="evenodd" clip-rule="evenodd" d="M14 6.49824V11.5001C14 12.3285 13.3284 13.0001 12.5 13.0001H3.5C2.67157 13.0001 2 12.3285 2 11.5001V6.49824C2 6.47825 2.0004 6.45831 2.00119 6.43845L6.35 9.70005C7.32778 10.4334 8.67222 10.4334 9.65 9.70005L13.9988 6.43845C13.9996 6.45831 14 6.47825 14 6.49824ZM13.1937 5.16726L8.73952 2.64321C8.28077 2.38325 7.71923 2.38325 7.26048 2.64321L2.80627 5.16726L7.25 8.50005C7.69444 8.83339 8.30556 8.83339 8.75 8.50005L13.1937 5.16726ZM0.5 6.49824C0.5 5.41781 1.08097 4.42084 2.02096 3.88818L6.52096 1.33818C7.43845 0.818264 8.56155 0.818265 9.47904 1.33818L13.979 3.88818C14.919 4.42084 15.5 5.41781 15.5 6.49824V11.5001C15.5 13.1569 14.1569 14.5001 12.5 14.5001H3.5C1.84315 14.5001 0.5 13.1569 0.5 11.5001V6.49824Z" fill="#18181B"/>
</svg>
