<svg width="16" height="16" viewBox="0 0 16 16" fill="none" xmlns="http://www.w3.org/2000/svg">
<path fill-rule="evenodd" clip-rule="evenodd" d="M8.92163 9.8423C8.97312 10.1253 9 10.4245 9 10.7377C9 12.6454 7.61342 14.3973 5.21027 14.6318C3.36009 14.8124 1.82803 13.9163 1.00178 12.8579C0.919828 12.7529 0.850525 12.6415 0.792103 12.5251C0.56068 12.064 0.500008 11.5248 0.5 10.9972C0.811961 11.0445 1.09888 11.0418 1.35246 10.9971C1.98741 10.8853 2.41333 10.5102 2.5 9.99719C2.72976 8.63714 3.57178 7.00002 5.76074 7.00002C5.90908 7.00002 6.05409 7.00937 6.19536 7.02769L9.61217 2.24416C10.1699 1.46338 11.0703 1 12.0298 1C13.6707 1 15.0009 2.33018 15.0009 3.97105C15.0009 4.93055 14.5375 5.83099 13.7567 6.38869L8.92163 9.8423ZM8.36253 8.39831L11.1806 6.38537C10.9084 5.66332 10.3375 5.09242 9.61549 4.82021L7.62627 7.60512C7.9108 7.81955 8.15864 8.08642 8.36253 8.39831ZM12.428 5.49439L12.8848 5.16809C13.2714 4.89195 13.5009 4.44612 13.5009 3.97105C13.5009 3.15861 12.8422 2.5 12.0298 2.5C11.5547 2.5 11.1089 2.72943 10.8328 3.11602L10.5065 3.57285C11.3423 3.98156 12.0193 4.65853 12.428 5.49439ZM3.97904 10.2471C4.06472 9.73991 4.251 9.28535 4.51878 8.98288C4.74373 8.72879 5.09092 8.50002 5.76074 8.50002C6.2784 8.50002 6.6742 8.6968 6.95917 9.02331C7.25623 9.36369 7.5 9.92898 7.5 10.7377C7.5 11.8593 6.71355 12.978 5.0646 13.1389C3.96392 13.2463 3.02691 12.7979 2.43563 12.2161C3.19431 11.8793 3.80947 11.2508 3.97904 10.2471Z" fill="#18181B"/>
</svg>
