<svg width="16" height="16" viewBox="0 0 16 16" fill="none" xmlns="http://www.w3.org/2000/svg">
<path fill-rule="evenodd" clip-rule="evenodd" d="M15.25 6.99264C15.6642 6.99264 16 6.65685 16 6.24264C16 5.82843 15.6642 5.49264 15.25 5.49264L10.4999 5.49264L10.4999 0.749999C10.4999 0.335785 10.1642 0 9.74995 0C9.33573 0 8.99995 0.335784 8.99995 0.749998L8.99994 6.24264C8.99994 6.65685 9.33573 6.99264 9.74994 6.99264L15.25 6.99264ZM0.75 9.00737C0.335786 9.00737 -1.82429e-07 9.34315 0 9.75737C2.03503e-07 10.1716 0.335786 10.5074 0.75 10.5074L5.50002 10.5074L5.50002 15.25C5.50002 15.6642 5.8358 16 6.25002 16C6.66423 16 7.00002 15.6642 7.00002 15.25V9.75737C7.00002 9.55845 6.921 9.36769 6.78035 9.22704C6.6397 9.08638 6.44893 9.00737 6.25002 9.00737L0.75 9.00737Z" fill="#18181B"/>
</svg>
