<svg width="16" height="16" viewBox="0 0 16 16" fill="none" xmlns="http://www.w3.org/2000/svg">
<path fill-rule="evenodd" clip-rule="evenodd" d="M4.5 6.25C4.5 4.45507 5.95507 3 7.75 3C9.26394 3 10.5378 4.03585 10.8981 5.43859C10.981 5.76139 11.267 5.99077 11.6001 6.00163C13.2103 6.05416 14.5 7.37662 14.5 9C14.5 10.6568 13.1569 12 11.5 12H11.5H11.5H3.75242L3.75077 12H3.75C2.50736 12 1.5 10.9926 1.5 9.75C1.5 8.50795 2.50641 7.50095 3.74823 7.5L3.77718 7.50015C3.99293 7.50124 4.19869 7.40936 4.34191 7.248C4.48512 7.08664 4.5519 6.87141 4.5252 6.65732C4.50859 6.5242 4.5 6.38827 4.5 6.25ZM7.75 1.5C5.18545 1.5 3.09558 3.53238 3.00319 6.07437C1.28992 6.42059 0 7.93466 0 9.75C0 11.8211 1.67893 13.5 3.75 13.5L3.75165 13.5H3.75242H11.5H11.5H11.5H11.5C13.9853 13.5 16 11.4853 16 9C16 6.74841 14.3466 4.88327 12.1874 4.55221C11.5041 2.76768 9.77587 1.5 7.75 1.5ZM10.6 7.24996C10.8485 6.91859 10.7814 6.44849 10.45 6.19996C10.1186 5.95143 9.64853 6.01859 9.4 6.34996L7.36885 9.05815L6.28033 7.96963C5.98744 7.67673 5.51256 7.67673 5.21967 7.96963C4.92678 8.26252 4.92678 8.73739 5.21967 9.03029L6.91967 10.7303C7.07341 10.884 7.28629 10.9635 7.50317 10.9481C7.72004 10.9327 7.91955 10.8239 8.05 10.65L10.6 7.24996Z" fill="#18181B"/>
</svg>
