<svg width="16" height="16" viewBox="0 0 16 16" fill="none" xmlns="http://www.w3.org/2000/svg">
<path fill-rule="evenodd" clip-rule="evenodd" d="M13.5 10.421V5.47495L11.5 6.18924V8.24998C11.5 8.6642 11.1642 8.99998 10.75 8.99998C10.3358 8.99998 10 8.6642 10 8.24998V6.72495L7.75 7.52852V13.6167L12.5267 11.8255C13.1121 11.6059 13.5 11.0462 13.5 10.421ZM11.2458 4.68722L12.8463 4.11561C12.7907 4.07761 12.7321 4.0431 12.6708 4.01244L9.49928 2.42667C9.12621 2.24014 8.69232 2.21736 8.30177 2.36382L7.3606 2.71676L11.0854 4.57916C11.1442 4.60854 11.1979 4.645 11.2458 4.68722ZM5.44397 3.43549L9.32176 5.37439L7.04915 6.18603L3.2439 4.28341C3.31632 4.24117 3.39296 4.20462 3.47332 4.17449L5.44397 3.43549ZM6.25 7.46351L2.5 5.58851V10.6459C2.5 11.214 2.821 11.7334 3.32918 11.9875L6.25 13.4479V7.46351ZM1 5.57898C1 5.1432 1.0942 4.72334 1.2665 4.34265C1.27951 4.28222 1.30026 4.22242 1.32918 4.16457C1.36549 4.09196 1.41198 4.02781 1.46606 3.97299C1.808 3.43358 2.32088 3.00465 2.94663 2.77L7.77509 0.959325C8.55618 0.666415 9.42396 0.711962 10.1701 1.08503L13.3416 2.6708C14.358 3.17898 15 4.21777 15 5.35408V10.421C15 11.6715 14.2243 12.7909 13.0534 13.23L8.22491 15.0406C7.44382 15.3336 6.57604 15.288 5.8299 14.9149L2.65836 13.3292C1.64201 12.821 1 11.7822 1 10.6459V5.57898Z" fill="#18181B"/>
</svg>
