<svg width="16" height="16" viewBox="0 0 16 16" fill="none" xmlns="http://www.w3.org/2000/svg">
<path fill-rule="evenodd" clip-rule="evenodd" d="M8 15C11.866 15 15 11.866 15 8C15 4.13401 11.866 1 8 1C4.13401 1 1 4.13401 1 8C1 11.866 4.13401 15 8 15ZM8.75 4.5C8.75 4.08579 8.41421 3.75 8 3.75C7.58579 3.75 7.25 4.08579 7.25 4.5V8C7.25 8.23607 7.36115 8.45836 7.55 8.6L9.55 10.1C9.88137 10.3485 10.3515 10.2814 10.6 9.95C10.8485 9.61863 10.7814 9.14853 10.45 8.9L8.75 7.625V4.5Z" fill="black"/>
</svg>
