<svg width="16" height="16" viewBox="0 0 16 16" fill="none" xmlns="http://www.w3.org/2000/svg">
<g clip-path="url(#clip0_2217_3095)">
<path fill-rule="evenodd" clip-rule="evenodd" d="M6.50006 6.96271C6.50007 6.21286 5.84475 5.71458 5.19009 5.78314C5.14883 5.78746 5.10757 5.79403 5.06647 5.80294C4.99291 5.81888 4.91987 5.84229 4.84832 5.87363C4.75465 5.91465 4.66351 5.96925 4.57702 6.03844L4.36972 6.20428L4.28888 6.26896C4.28219 6.27431 4.27539 6.2795 4.26852 6.28452C4.09448 6.41157 3.86327 6.4316 3.66927 6.3346C3.52529 6.26261 3.42678 6.14101 3.38026 6.00311C3.3174 5.81676 3.34951 5.60064 3.49276 5.43693L3.56093 5.35902L3.80779 5.0769L3.96573 4.89639L3.99378 4.86433C4.17194 4.66073 4.37374 4.49752 4.58997 4.37314C5.76549 3.69694 7.36735 4.16821 7.91359 5.53382L8.0876 5.96887L8.46232 6.90566L8.50005 7H9.50005L9.53779 6.58491L9.61404 5.7461L9.88207 2.79783L9.95253 2.02268L9.95684 1.97536C9.98131 1.70614 10.207 1.5 10.4774 1.5C10.766 1.5 11.0001 1.73401 11.0001 2.02268V2.0702V2.84857V5.03992V5.5V6.71429V7H11.0062H11.8177H12.0001L12.5001 5.25L12.6614 4.6854L12.8812 3.91593L12.8943 3.87019C12.9569 3.65107 13.1572 3.5 13.385 3.5C13.7046 3.5 13.9456 3.79036 13.8867 4.10447L13.8779 4.15123L13.7305 4.93784L13.2755 7.36441L13.1671 7.94251L12.5001 11.5L9.19811 11.7835L6.47014 11.9653L5.79073 11.7763C4.77583 11.494 3.91843 10.8683 3.34024 10.0378C3.18361 9.81281 3.04747 9.57281 2.93425 9.32053C2.86959 9.17646 2.8124 9.0284 2.76313 8.87684C2.69782 8.67595 2.64643 8.46893 2.61001 8.25697C2.60291 8.21566 2.59638 8.17416 2.59043 8.13248C2.55846 7.90871 2.66432 7.70073 2.83916 7.58793C2.91112 7.54151 2.99476 7.5112 3.08529 7.50255C3.10294 7.50086 3.12084 7.5 3.13898 7.5H3.27165C3.41266 7.5 3.5426 7.57638 3.61118 7.69957L3.71424 7.88468L3.75924 7.96551L4.01187 8.41927L4.13993 8.64928C4.22626 8.80435 4.34258 8.93653 4.47934 9.04022C4.69476 9.20354 4.9609 9.29617 5.24046 9.29617C5.93611 9.29617 6.50005 8.73223 6.50006 8.03657L6.50006 6.96271ZM1.1055 8.34461C0.993024 7.55725 1.34084 6.82266 1.93074 6.39243C1.74484 5.74429 1.87239 5.0109 2.36389 4.44918L2.86492 3.87658C4.33906 2.19184 6.79851 2.19035 8.30826 3.5416L8.463 1.83956C8.55771 0.797718 9.43123 0 10.4774 0C11.5945 0 12.5001 0.905586 12.5001 2.02268V2.20518C12.7693 2.07308 13.0705 2 13.385 2C14.6438 2 15.593 3.14367 15.361 4.3809L13.9744 11.7764C13.8502 12.4387 13.2997 12.9369 12.6284 12.9945L9.32642 13.278L9.29789 13.2801L6.56992 13.462C6.40094 13.4733 6.23128 13.4558 6.06812 13.4105L5.38872 13.2215C3.1195 12.5902 1.43861 10.6763 1.1055 8.34461ZM13.3035 15.4981C13.7167 15.4686 14.0277 15.1097 13.9982 14.6966C13.9687 14.2834 13.6098 13.9724 13.1966 14.0019L6.19664 14.5019C5.78348 14.5314 5.47247 14.8903 5.50198 15.3034C5.53149 15.7166 5.89035 16.0276 6.30351 15.9981L13.3035 15.4981Z" fill="#18181B"/>
</g>
<defs>
<clipPath id="clip0_2217_3095">
<rect width="16" height="16" fill="white"/>
</clipPath>
</defs>
</svg>
