<svg width="16" height="16" viewBox="0 0 16 16" fill="none" xmlns="http://www.w3.org/2000/svg">
<path fill-rule="evenodd" clip-rule="evenodd" d="M13.5 8C13.5 11.0376 11.0376 13.5 8 13.5C4.96243 13.5 2.5 11.0376 2.5 8C2.5 4.96243 4.96243 2.5 8 2.5C11.0376 2.5 13.5 4.96243 13.5 8ZM15 8C15 11.866 11.866 15 8 15C4.13401 15 1 11.866 1 8C1 4.13401 4.13401 1 8 1C11.866 1 15 4.13401 15 8ZM8.00001 4C7.5858 3.99999 7.25001 4.33578 7.25 4.74999C7.24999 5.1642 7.58578 5.49999 7.99999 5.5C9.38068 5.50002 10.5 6.6193 10.5 8C10.5 8.41421 10.8357 8.75 11.25 8.75C11.6642 8.75 12 8.41421 12 8C12 5.79088 10.2091 4.00003 8.00001 4Z" fill="#18181B"/>
</svg>
