<svg width="16" height="16" viewBox="0 0 16 16" fill="none" xmlns="http://www.w3.org/2000/svg">
<g clip-path="url(#clip0_2217_5580)">
<path fill-rule="evenodd" clip-rule="evenodd" d="M2.5 12.5H3C3.27614 12.5 3.5 12.2761 3.5 12V4C3.5 3.72386 3.27614 3.5 3 3.5H2.5C2.22386 3.5 2 3.72386 2 4V12C2 12.2761 2.22386 12.5 2.5 12.5ZM3 14H2.5C1.39543 14 0.5 13.1046 0.5 12V4C0.5 2.89543 1.39543 2 2.5 2H3C4.10457 2 5 2.89543 5 4V12C5 13.1046 4.10457 14 3 14ZM7.75 12.5H8.25C8.52614 12.5 8.75 12.2761 8.75 12V4C8.75 3.72386 8.52614 3.5 8.25 3.5H7.75C7.47386 3.5 7.25 3.72386 7.25 4V12C7.25 12.2761 7.47386 12.5 7.75 12.5ZM8.25 14H7.75C6.64543 14 5.75 13.1046 5.75 12V4C5.75 2.89543 6.64543 2 7.75 2H8.25C9.35457 2 10.25 2.89543 10.25 4V12C10.25 13.1046 9.35457 14 8.25 14ZM13.5 12.5H13C12.7239 12.5 12.5 12.2761 12.5 12V4C12.5 3.72386 12.7239 3.5 13 3.5H13.5C13.7761 3.5 14 3.72386 14 4V12C14 12.2761 13.7761 12.5 13.5 12.5ZM13 14H13.5C14.6046 14 15.5 13.1046 15.5 12V4C15.5 2.89543 14.6046 2 13.5 2H13C11.8954 2 11 2.89543 11 4V12C11 13.1046 11.8954 14 13 14Z" fill="#18181B"/>
</g>
<defs>
<clipPath id="clip0_2217_5580">
<rect width="16" height="16" fill="white"/>
</clipPath>
</defs>
</svg>
