<svg width="16" height="16" viewBox="0 0 16 16" fill="none" xmlns="http://www.w3.org/2000/svg">
<g clip-path="url(#clip0_2217_2323)">
<path fill-rule="evenodd" clip-rule="evenodd" d="M11.5 3.5H13.5C13.7761 3.5 14 3.72386 14 4V12C14 12.2761 13.7761 12.5 13.5 12.5H13H11.5C11.2239 12.5 11 12.2761 11 12V7V4C11 3.72386 11.2239 3.5 11.5 3.5ZM9 12.5C9.27614 12.5 9.5 12.2761 9.5 12V7C9.5 6.72386 9.27614 6.5 9 6.5H7C6.72386 6.5 6.5 6.72386 6.5 7V10V12C6.5 12.2761 6.72386 12.5 7 12.5H9ZM4.5 12.5C4.77614 12.5 5 12.2761 5 12V10C5 9.72386 4.77614 9.5 4.5 9.5H2.5C2.22386 9.5 2 9.72386 2 10V12C2 12.2761 2.22386 12.5 2.5 12.5H3.5H4.5ZM3.5 14H2.5C1.39543 14 0.5 13.1046 0.5 12V10C0.5 8.89543 1.39543 8 2.5 8H4.5C4.67265 8 4.84019 8.02188 5 8.06301V7C5 5.89543 5.89543 5 7 5H9C9.17265 5 9.34019 5.02188 9.5 5.06301V4C9.5 2.89543 10.3954 2 11.5 2H13.5C14.6046 2 15.5 2.89543 15.5 4V12C15.5 13.1046 14.6046 14 13.5 14H13H11.5H9H7H4.5H3.5Z" fill="#18181B"/>
</g>
<defs>
<clipPath id="clip0_2217_2323">
<rect width="16" height="16" fill="white"/>
</clipPath>
</defs>
</svg>
