<svg width="16" height="16" viewBox="0 0 16 16" fill="none" xmlns="http://www.w3.org/2000/svg">
<path fill-rule="evenodd" clip-rule="evenodd" d="M9.35713 7H6.64278L7.72329 13.2669C7.74651 13.4016 7.86331 13.5 7.99996 13.5C8.13661 13.5 8.25341 13.4016 8.27663 13.2669L9.35713 7ZM4.51109 3.46458L4.35758 2.77376C4.32203 2.6138 4.18016 2.5 4.01631 2.5C3.84966 2.5 3.70618 2.61763 3.6735 2.78103L2.52221 8.53748C2.50744 8.61133 2.5 8.68646 2.5 8.76177C2.5 9.10119 2.65076 9.42307 2.91151 9.64036L6.02293 12.2332L4.51109 3.46458ZM9.97697 12.2333L13.0885 9.64036C13.3492 9.42307 13.5 9.10119 13.5 8.76177C13.5 8.68646 13.4926 8.61133 13.4778 8.53748L12.3265 2.78103C12.2938 2.61762 12.1503 2.5 11.9837 2.5C11.8198 2.5 11.678 2.6138 11.6424 2.77376L11.4885 3.46628L9.97697 12.2333ZM1.95123 10.7927L6.44373 14.5364C6.80316 14.836 7.25623 15 7.7241 15H8.2759C8.74377 15 9.19684 14.836 9.55627 14.5364L14.0488 10.7927C14.6515 10.2904 15 9.54636 15 8.76177C15 8.58768 14.9828 8.41402 14.9487 8.24331L13.7974 2.48686C13.6245 1.62231 12.8654 1 11.9837 1C11.1168 1 10.3662 1.6021 10.1781 2.44836L9.5 5.5H6.5L5.82186 2.44836C5.6338 1.6021 4.88321 1 4.01631 1C3.13464 1 2.37554 1.62231 2.20263 2.48686L1.05134 8.24331C1.0172 8.41402 1 8.58768 1 8.76177C1 9.54636 1.3485 10.2904 1.95123 10.7927Z" fill="#18181B"/>
</svg>
