<svg width="16" height="16" viewBox="0 0 16 16" fill="none" xmlns="http://www.w3.org/2000/svg">
<path fill-rule="evenodd" clip-rule="evenodd" d="M8 13.5C9.62975 13.5 11.0939 12.7912 12.1011 11.6649C11.035 11.3792 10.25 10.4063 10.25 9.25V9C10.25 8.58579 9.91421 8.25 9.5 8.25C8.25736 8.25 7.25 7.24264 7.25 6C7.25 4.75736 8.25736 3.75 9.5 3.75C9.91421 3.75 10.25 3.41421 10.25 3V2.97979C9.56318 2.67149 8.80162 2.5 8 2.5C5.56791 2.5 3.50452 4.0786 2.77857 6.26708C3.88976 6.40429 4.75 7.35168 4.75 8.5C4.75 8.91421 5.08579 9.25 5.5 9.25C6.74264 9.25 7.75 10.2574 7.75 11.5C7.75 12.2735 7.35965 12.9559 6.7652 13.3608C7.16213 13.4519 7.57545 13.5 8 13.5ZM4.50869 12.25H5.5C5.91421 12.25 6.25 11.9142 6.25 11.5C6.25 11.0858 5.91421 10.75 5.5 10.75C4.25736 10.75 3.25 9.74264 3.25 8.5C3.25 8.08765 2.91722 7.75302 2.50558 7.75002C2.50187 7.83288 2.5 7.91622 2.5 8C2.5 9.71198 3.28219 11.2413 4.50869 12.25ZM12.75 10.25H13.0202C13.3285 9.56318 13.5 8.80162 13.5 8C13.5 6.33465 12.7598 4.84217 11.5905 3.83358C11.2593 4.66354 10.4481 5.25 9.5 5.25C9.08579 5.25 8.75 5.58579 8.75 6C8.75 6.41421 9.08579 6.75 9.5 6.75C10.7426 6.75 11.75 7.75736 11.75 9V9.25C11.75 9.80228 12.1977 10.25 12.75 10.25ZM8 15C11.866 15 15 11.866 15 8C15 4.13401 11.866 1 8 1C4.13401 1 1 4.13401 1 8C1 11.866 4.13401 15 8 15Z" fill="black"/>
</svg>
