<svg width="16" height="16" viewBox="0 0 16 16" fill="none" xmlns="http://www.w3.org/2000/svg">
<path fill-rule="evenodd" clip-rule="evenodd" d="M13.0972 12.3828C13.4467 12.6052 13.9103 12.5021 14.1327 12.1527C14.355 11.8032 14.252 11.3397 13.9026 11.1173L8.40256 7.61728C8.15689 7.46094 7.84292 7.46094 7.59725 7.61728L2.09725 11.1173C1.74779 11.3397 1.64478 11.8032 1.86716 12.1527C2.08954 12.5021 2.55311 12.6052 2.90256 12.3828L7.99991 9.13901L13.0972 12.3828ZM13.0972 7.88278C13.4467 8.10516 13.9103 8.00214 14.1327 7.65269C14.355 7.30323 14.252 6.83966 13.9026 6.61728L8.40256 3.11728C8.15689 2.96094 7.84292 2.96094 7.59725 3.11728L2.09725 6.61728C1.74779 6.83966 1.64478 7.30323 1.86716 7.65269C2.08954 8.00214 2.55311 8.10516 2.90256 7.88278L7.99991 4.63901L13.0972 7.88278Z" fill="#18181B"/>
</svg>
