<svg width="16" height="16" viewBox="0 0 16 16" fill="none" xmlns="http://www.w3.org/2000/svg">
<path fill-rule="evenodd" clip-rule="evenodd" d="M12.5 4L12.5 12C12.5 12.8284 11.8284 13.5 11 13.5L5 13.5C4.17157 13.5 3.5 12.8284 3.5 12L3.5 4C3.5 3.17157 4.17157 2.5 5 2.5L11 2.5C11.8284 2.5 12.5 3.17157 12.5 4ZM11 1C12.6569 1 14 2.34315 14 4L14 12C14 13.6569 12.6569 15 11 15L5 15C3.34315 15 2 13.6569 2 12L2 4C2 2.34315 3.34315 1 5 1L11 1ZM5 8.25L5 7.75C6.41385 6.96453 7.4328 5.58598 7.75 4L8.25 4C8.5672 5.58598 9.58615 6.96453 11 7.75L11 8.25C9.58615 9.03547 8.5672 10.414 8.25 12L7.75 12C7.4328 10.414 6.41385 9.03547 5 8.25Z" fill="#18181B"/>
</svg>
