<svg width="16" height="16" viewBox="0 0 16 16" fill="none" xmlns="http://www.w3.org/2000/svg">
<path fill-rule="evenodd" clip-rule="evenodd" d="M12.5 4L12.5 12C12.5 12.8284 11.8284 13.5 11 13.5L5 13.5C4.17157 13.5 3.5 12.8284 3.5 12L3.5 4C3.5 3.17157 4.17157 2.5 5 2.5L11 2.5C11.8284 2.5 12.5 3.17157 12.5 4ZM11 1C12.6569 1 14 2.34315 14 4L14 12C14 13.6569 12.6569 15 11 15L5 15C3.34315 15 2 13.6569 2 12L2 4C2 2.34315 3.34315 1 5 1L11 1ZM4.75 7.3326C4.75 6.18533 5.48412 5.24945 6.596 5.24945C7.20898 5.24945 7.84941 5.84443 8 6.75C8.14934 5.8348 8.79102 5.24945 9.404 5.24945C10.5158 5.24945 11.25 6.18534 11.25 7.3326C11.25 9.22808 9.55909 10.4339 8.14934 11.2107C8.05523 11.2626 7.9433 11.2623 7.84941 11.21C6.43835 10.4242 4.75 9.23682 4.75 7.3326Z" fill="#18181B"/>
</svg>
