<svg width="16" height="16" viewBox="0 0 16 16" fill="none" xmlns="http://www.w3.org/2000/svg">
<path fill-rule="evenodd" clip-rule="evenodd" d="M8 2.5H12C12.8284 2.5 13.5 3.17157 13.5 4V8C13.5 8.82843 12.8284 9.5 12 9.5H11V8C11 6.34315 9.65685 5 8 5H6.5V4C6.5 3.17157 7.17157 2.5 8 2.5ZM12 11H11V12C11 13.6569 9.65685 15 8 15H4C2.34315 15 1 13.6569 1 12V8C1 6.34315 2.34315 5 4 5H5V4C5 2.34315 6.34315 1 8 1H12C13.6569 1 15 2.34315 15 4V8C15 9.65685 13.6569 11 12 11ZM8 6.5H4C3.17157 6.5 2.5 7.17157 2.5 8V12C2.5 12.8284 3.17157 13.5 4 13.5H8C8.82843 13.5 9.5 12.8284 9.5 12V8C9.5 7.17157 8.82843 6.5 8 6.5ZM6.03033 12.2803C5.73744 12.5732 5.26256 12.5732 4.96967 12.2803C4.67678 11.9874 4.67678 11.5126 4.96967 11.2197L6.18934 10L4.96967 8.78033C4.67678 8.48744 4.67678 8.01256 4.96967 7.71967C5.26256 7.42678 5.73744 7.42678 6.03033 7.71967L7.78033 9.46967C8.07322 9.76256 8.07322 10.2374 7.78033 10.5303L6.03033 12.2803Z" fill="#18181B"/>
</svg>
