<svg width="16" height="16" viewBox="0 0 16 16" fill="none" xmlns="http://www.w3.org/2000/svg">
<path fill-rule="evenodd" clip-rule="evenodd" d="M12 3.5L12 12.5C12 13.3284 11.3284 14 10.5 14L5.5 14C4.67157 14 4 13.3284 4 12.5L4 3.5C4 2.67157 4.67157 2 5.5 2L10.5 2C11.3284 2 12 2.67157 12 3.5ZM10.5 0.5C12.1569 0.5 13.5 1.84315 13.5 3.5L13.5 12.5C13.5 14.1569 12.1569 15.5 10.5 15.5L5.5 15.5C3.84314 15.5 2.5 14.1569 2.5 12.5L2.5 3.5C2.5 1.84315 3.84315 0.5 5.5 0.5L10.5 0.5ZM6.25 11C5.83579 11 5.5 11.3358 5.5 11.75C5.5 12.1642 5.83579 12.5 6.25 12.5L9.75 12.5C10.1642 12.5 10.5 12.1642 10.5 11.75C10.5 11.3358 10.1642 11 9.75 11L6.25 11Z" fill="#18181B"/>
</svg>
