<svg width="16" height="16" viewBox="0 0 16 16" fill="none" xmlns="http://www.w3.org/2000/svg">
<path fill-rule="evenodd" clip-rule="evenodd" d="M14.25 4.25005C14.25 3.92827 14.0447 3.64235 13.7399 3.53944C13.435 3.43653 13.0984 3.53956 12.9034 3.79552L8.90345 9.04551C8.73067 9.27229 8.70141 9.57743 8.82794 9.83291C8.95448 10.0884 9.21493 10.25 9.50003 10.25H12.75V11.7458C12.75 12.16 13.0858 12.4958 13.5 12.4958C13.9142 12.4958 14.25 12.16 14.25 11.7458V10.25H14.5C14.9142 10.25 15.25 9.91426 15.25 9.50004C15.25 9.08583 14.9142 8.75004 14.5 8.75004H14.25V4.25005ZM12.75 6.47197V8.75004H11.0143L12.75 6.47197ZM2.5 4.25005C2.5 3.83583 2.16421 3.50005 1.75 3.50005C1.33579 3.50005 1 3.83583 1 4.25005V11.7458C1 12.16 1.33579 12.4958 1.75 12.4958C2.16421 12.4958 2.5 12.16 2.5 11.7458V8.75004H6.5V11.7458C6.5 12.16 6.83579 12.4958 7.25 12.4958C7.66421 12.4958 8 12.16 8 11.7458V4.25005C8 3.83583 7.66421 3.50005 7.25 3.50005C6.83579 3.50005 6.5 3.83583 6.5 4.25005V7.25004H2.5V4.25005Z" fill="#18181B"/>
</svg>
