<svg width="16" height="16" viewBox="0 0 16 16" fill="none" xmlns="http://www.w3.org/2000/svg">
<path fill-rule="evenodd" clip-rule="evenodd" d="M4.5 5.25C4.5 3.45507 5.95507 2 7.75 2C9.26394 2 10.5378 3.03585 10.8981 4.43859C10.981 4.76139 11.267 4.99077 11.6001 5.00163C12.3481 5.02603 13.0262 5.32378 13.5395 5.79988C14.1313 6.34878 14.5 7.13076 14.5 8C14.5 8.41421 14.8358 8.75 15.25 8.75C15.6642 8.75 16 8.41421 16 8C16 6.69618 15.4445 5.52097 14.5596 4.70012C13.9161 4.10333 13.0964 3.69175 12.1874 3.55226C11.5041 1.7677 9.77589 0.5 7.75 0.5C5.18545 0.5 3.09558 2.53238 3.00319 5.07437C1.28992 5.42059 0 6.93466 0 8.75C0 10.8211 1.67893 12.5 3.75 12.5H3.7503L3.75242 12.5H3.75271H4.25C4.66421 12.5 5 12.1642 5 11.75C5 11.3358 4.66421 11 4.25 11H3.75242H3.75212L3.75 11H3.74974H3.7497C2.5072 10.9998 1.5 9.99254 1.5 8.75C1.5 7.50795 2.50641 6.50095 3.74823 6.5L3.77718 6.50015C3.99293 6.50124 4.19869 6.40936 4.34191 6.248C4.48512 6.08664 4.5519 5.87141 4.5252 5.65732C4.50859 5.5242 4.5 5.38827 4.5 5.25ZM11.6227 13.5L13.029 11L11.6227 8.5L8.87727 8.5L7.47102 11L8.87727 13.5L11.6227 13.5ZM14.3363 11.7354C14.5932 11.2788 14.5932 10.7212 14.3363 10.2646L12.9301 7.76461C12.6644 7.29229 12.1646 7 11.6227 7L8.87727 7C8.33536 7 7.83558 7.29229 7.56991 7.76461L6.16366 10.2646C5.90681 10.7212 5.90681 11.2788 6.16366 11.7354L7.56991 14.2354C7.83559 14.7077 8.33536 15 8.87727 15H11.6227C12.1646 15 12.6644 14.7077 12.9301 14.2354L14.3363 11.7354ZM11.25 11C11.25 11.5523 10.8023 12 10.25 12C9.69771 12 9.25 11.5523 9.25 11C9.25 10.4477 9.69771 10 10.25 10C10.8023 10 11.25 10.4477 11.25 11Z" fill="#18181B"/>
</svg>
