<svg width="16" height="16" viewBox="0 0 16 16" fill="none" xmlns="http://www.w3.org/2000/svg">
<path fill-rule="evenodd" clip-rule="evenodd" d="M8 13.5C4.96244 13.5 2.5 11.0376 2.5 8C2.5 4.96243 4.96244 2.5 8 2.5C11.0376 2.5 13.5 4.96243 13.5 8C13.5 11.0376 11.0376 13.5 8 13.5ZM8 15C4.13401 15 1 11.866 1 8C1 4.13401 4.13401 1 8 1C11.866 1 15 4.13401 15 8C15 11.866 11.866 15 8 15ZM6.7197 9.96967C6.42681 10.2626 6.42681 10.7374 6.7197 11.0303C7.01259 11.3232 7.48747 11.3232 7.78036 11.0303L10.2804 8.53033C10.421 8.38968 10.5 8.19891 10.5 8C10.5 7.80109 10.421 7.61032 10.2804 7.46967L7.78036 4.96967C7.48747 4.67678 7.01259 4.67678 6.7197 4.96967C6.42681 5.26256 6.42681 5.73744 6.7197 6.03033L8.68937 8L6.7197 9.96967Z" fill="#18181B"/>
</svg>
