<svg width="16" height="16" viewBox="0 0 16 16" fill="none" xmlns="http://www.w3.org/2000/svg">
<path fill-rule="evenodd" clip-rule="evenodd" d="M15.5 10.0713C15.5 7.48916 14.0744 5.21812 11.867 3.98365L12.9056 2.11412C13.1068 1.75204 12.9763 1.29543 12.6142 1.09427C12.2521 0.893115 11.7955 1.02357 11.5944 1.38566L10.4847 3.38302C9.71312 3.13483 8.87847 2.99992 8 2.99992C7.12152 2.99992 6.28688 3.13483 5.51525 3.38302L4.40562 1.38567C4.20446 1.02358 3.74786 0.893127 3.38577 1.09429C3.02368 1.29545 2.89322 1.75205 3.09438 2.11414L4.133 3.98366C1.92562 5.21812 0.5 7.48916 0.5 10.0713C0.5 10.8838 0.66851 11.6737 1.1137 12.3653C1.56207 13.0619 2.20327 13.5225 2.90912 13.825C4.22732 14.39 6.02012 14.4999 8 14.4999C9.97988 14.4999 11.7727 14.39 13.0909 13.825C13.7967 13.5225 14.4379 13.0619 14.8863 12.3653C15.3315 11.6737 15.5 10.8838 15.5 10.0713ZM2 10.0713C2 12.4999 4 12.9999 8 12.9999C12 12.9999 14 12.4999 14 10.0713C14 7.07132 11.5 4.49992 8 4.49992C4.5 4.49992 2 7.07132 2 10.0713ZM10.5 11.2499C10.0858 11.2499 9.75 10.9141 9.75 10.4999V8.99992C9.75 8.58571 10.0858 8.24992 10.5 8.24992C10.9142 8.24992 11.25 8.58571 11.25 8.99992V10.4999C11.25 10.9141 10.9142 11.2499 10.5 11.2499ZM4.75 10.4999C4.75 10.9141 5.08579 11.2499 5.5 11.2499C5.91421 11.2499 6.25 10.9141 6.25 10.4999V8.99992C6.25 8.58571 5.91421 8.24992 5.5 8.24992C5.08579 8.24992 4.75 8.58571 4.75 8.99992V10.4999Z" fill="#18181B"/>
</svg>
