<svg width="16" height="16" viewBox="0 0 16 16" fill="none" xmlns="http://www.w3.org/2000/svg">
<path fill-rule="evenodd" clip-rule="evenodd" d="M4.5 3H11.5C12.3284 3 13 3.67157 13 4.5V11.5C13 12.3284 12.3284 13 11.5 13H4.5C3.67157 13 3 12.3284 3 11.5V4.5C3 3.67157 3.67157 3 4.5 3ZM1.5 4.5C1.5 2.84315 2.84315 1.5 4.5 1.5H11.5C13.1569 1.5 14.5 2.84315 14.5 4.5V11.5C14.5 13.1569 13.1569 14.5 11.5 14.5H4.5C2.84315 14.5 1.5 13.1569 1.5 11.5V4.5ZM9.99916 10.751C9.99916 11.1652 10.3349 11.501 10.7492 11.501C11.1634 11.501 11.4992 11.1652 11.4992 10.751V5.24912C11.4992 4.83491 11.1634 4.49912 10.7492 4.49912C10.3349 4.49912 9.99916 4.83491 9.99916 5.24912V10.751ZM8.00093 11.501C7.58672 11.501 7.25093 11.1652 7.25093 10.751L7.25093 5.24912C7.25093 4.83491 7.58672 4.49912 8.00093 4.49912C8.41514 4.49912 8.75093 4.83491 8.75093 5.24912L8.75093 10.751C8.75093 11.1652 8.41514 11.501 8.00093 11.501ZM4.50279 10.751C4.50279 11.1652 4.83858 11.501 5.25279 11.501C5.66701 11.501 6.00279 11.1652 6.00279 10.751V5.24912C6.00279 4.83491 5.66701 4.49912 5.25279 4.49912C4.83858 4.49912 4.50279 4.83491 4.50279 5.24912L4.50279 10.751Z" fill="#18181B"/>
</svg>
