<svg width="16" height="16" viewBox="0 0 16 16" fill="none" xmlns="http://www.w3.org/2000/svg">
<path fill-rule="evenodd" clip-rule="evenodd" d="M13.5 8C13.5 11.0376 11.0376 13.5 8 13.5C4.96243 13.5 2.5 11.0376 2.5 8C2.5 4.96243 4.96243 2.5 8 2.5C11.0376 2.5 13.5 4.96243 13.5 8ZM15 8C15 11.866 11.866 15 8 15C4.13401 15 1 11.866 1 8C1 4.13401 4.13401 1 8 1C11.866 1 15 4.13401 15 8ZM6.50012 5.00001C6.0859 5.00001 5.75012 5.33579 5.75012 5.75001C5.75012 6.16422 6.0859 6.50001 6.50012 6.50001H8.6744L7.29624 10.2407C7.15305 10.6294 7.35205 11.0606 7.74072 11.2038C8.1294 11.347 8.56056 11.148 8.70376 10.7593L10.4538 6.00929C10.5385 5.77919 10.5055 5.52218 10.3652 5.32103C10.2249 5.11988 9.99522 5.00001 9.75 5.00001H6.50012Z" fill="#18181B"/>
</svg>
