<svg width="16" height="16" viewBox="0 0 16 16" fill="none" xmlns="http://www.w3.org/2000/svg">
<path fill-rule="evenodd" clip-rule="evenodd" d="M12.5 4L12.5 12C12.5 12.8284 11.8284 13.5 11 13.5L5 13.5C4.17157 13.5 3.5 12.8284 3.5 12L3.5 4C3.5 3.17157 4.17157 2.5 5 2.5L11 2.5C11.8284 2.5 12.5 3.17157 12.5 4ZM11 1C12.6569 1 14 2.34315 14 4L14 12C14 13.6569 12.6569 15 11 15L5 15C3.34315 15 2 13.6569 2 12L2 4C2 2.34315 3.34315 1 5 1L11 1ZM9.296 9.5C10.2788 9.5 11 8.80264 11 7.85522C11 6.54692 9.62029 5.60884 8.53648 4.87193C8.34539 4.74201 8.16351 4.61834 8 4.5C7.83818 4.61712 7.65837 4.7396 7.46945 4.86829L7.46942 4.8683C6.38472 5.60716 5 6.55038 5 7.85522C5 8.80263 5.72121 9.5 6.704 9.5C7.0915 9.5 7.42042 9.37619 7.67805 9.15508C7.55446 9.71082 7.27502 10.225 6.86612 10.6339L6.5 11L6.5 11.5L9.5 11.5L9.5 11L9.13388 10.6339C8.72498 10.225 8.44554 9.71082 8.32195 9.15508C8.57958 9.37619 8.9085 9.5 9.296 9.5Z" fill="#18181B"/>
</svg>
