<svg width="16" height="16" viewBox="0 0 16 16" fill="none" xmlns="http://www.w3.org/2000/svg">
<g clip-path="url(#clip0_2217_3650)">
<path fill-rule="evenodd" clip-rule="evenodd" d="M6 4V5C6 5.27597 5.77643 5.49972 5.50053 5.5L5.5 5.5L2.5 5.5C2.22386 5.5 2 5.27614 2 5V4C2 3.72386 2.22386 3.5 2.5 3.5L5.5 3.5C5.77614 3.5 6 3.72386 6 4ZM2 7.49952C2 7.49968 2 7.49984 2 7.5V8.5C2 8.50017 2 8.50034 2 8.50051C2.00028 8.77642 2.22403 9 2.5 9L9.5 9H9.50042C9.77637 8.99977 10 8.776 10 8.5V7.5C10 7.22386 9.77614 7 9.5 7H5.5H2.5C2.22402 7 2.00026 7.2236 2 7.49952ZM2 10.9994C2 10.9996 2 10.9998 2 11L2 11.5034C2 11.5037 2 11.5039 2 11.5042V12C2 12.2761 2.22386 12.5 2.5 12.5L13.5 12.5C13.7761 12.5 14 12.2761 14 12V11C14 10.7239 13.7761 10.5 13.5 10.5H9.5H2.5C2.22405 10.5 2.00032 10.7235 2 10.9994ZM0.5 11.5034V11V8.5V7.5V5V4.50342V4C0.5 2.89543 1.39543 2 2.5 2H5.5C6.60457 2 7.5 2.89543 7.5 4V5C7.5 5.17265 7.47812 5.34019 7.43699 5.5L9.5 5.5C10.6046 5.5 11.5 6.39543 11.5 7.5V8.5C11.5 8.67265 11.4781 8.84019 11.437 9H13.5C14.6046 9 15.5 9.89543 15.5 11V12C15.5 13.1046 14.6046 14 13.5 14L2.5 14C1.39543 14 0.5 13.1046 0.5 12V11.5034Z" fill="#18181B"/>
</g>
<defs>
<clipPath id="clip0_2217_3650">
<rect width="16" height="16" fill="white"/>
</clipPath>
</defs>
</svg>
