<svg width="16" height="16" viewBox="0 0 16 16" fill="none" xmlns="http://www.w3.org/2000/svg">
<path fill-rule="evenodd" clip-rule="evenodd" d="M13.25 12C12.8358 12 12.5 12.3358 12.5 12.75C12.5 13.1642 12.8358 13.5 13.25 13.5C13.6642 13.5 14 13.1642 14 12.75C14 12.3358 13.6642 12 13.25 12ZM12.5 10.628C11.6261 10.9369 11 11.7703 11 12.75C11 13.9926 12.0074 15 13.25 15C14.4926 15 15.5 13.9926 15.5 12.75C15.5 11.7703 14.8739 10.9369 14 10.628L14 10.25C14 8.59315 12.6569 7.25 11 7.25L8.75 7.25L8.75 5.37197C9.62389 5.06309 10.25 4.22966 10.25 3.25C10.25 2.00736 9.24264 1 8 1C6.75736 1 5.75 2.00736 5.75 3.25C5.75 4.22966 6.37611 5.06309 7.25 5.37197L7.25 7.25L5 7.25C3.34315 7.25 2 8.59315 2 10.25L2 10.628C1.12611 10.9369 0.5 11.7703 0.499999 12.75C0.499999 13.9926 1.50736 15 2.75 15C3.99264 15 5 13.9926 5 12.75C5 11.7703 4.37389 10.9369 3.5 10.628L3.5 10.25C3.5 9.42157 4.17157 8.75 5 8.75L7.25 8.75L7.25 10.628C6.3761 10.9369 5.75 11.7703 5.75 12.75C5.75 13.9926 6.75736 15 8 15C9.24264 15 10.25 13.9926 10.25 12.75C10.25 11.7703 9.62389 10.9369 8.75 10.628L8.75 8.75L11 8.75C11.8284 8.75 12.5 9.42157 12.5 10.25L12.5 10.628ZM2.75 12C2.33579 12 2 12.3358 2 12.75C2 13.1642 2.33579 13.5 2.75 13.5C3.16421 13.5 3.5 13.1642 3.5 12.75C3.5 12.3358 3.16421 12 2.75 12ZM7.25 12.75C7.25 12.3358 7.58579 12 8 12C8.41421 12 8.75 12.3358 8.75 12.75C8.75 13.1642 8.41421 13.5 8 13.5C7.58579 13.5 7.25 13.1642 7.25 12.75ZM8 2.5C7.58579 2.5 7.25 2.83579 7.25 3.25C7.25 3.66421 7.58579 4 8 4C8.41421 4 8.75 3.66421 8.75 3.25C8.75 2.83579 8.41421 2.5 8 2.5Z" fill="#18181B"/>
</svg>
