<svg width="16" height="16" viewBox="0 0 16 16" fill="none" xmlns="http://www.w3.org/2000/svg">
<path fill-rule="evenodd" clip-rule="evenodd" d="M2.21967 13.2803C2.36032 13.421 2.55109 13.5 2.75 13.5C2.94891 13.5 3.13968 13.421 3.28033 13.2803L5.28033 11.2803C5.57322 10.9874 5.57322 10.5126 5.28033 10.2197C4.98744 9.92678 4.51256 9.92678 4.21967 10.2197L3.5 10.9393L3.5 3.25C3.5 2.83579 3.16421 2.5 2.75 2.5C2.33579 2.5 2 2.83579 2 3.25L2 10.9393L1.28033 10.2197C0.987437 9.92678 0.512563 9.92678 0.21967 10.2197C-0.0732232 10.5126 -0.0732232 10.9874 0.21967 11.2803L2.21967 13.2803ZM7 3.25C7 2.83579 7.33579 2.5 7.75 2.5H15.25C15.6642 2.5 16 2.83579 16 3.25C16 3.66421 15.6642 4 15.25 4H7.75C7.33579 4 7 3.66421 7 3.25ZM7.75 7.25C7.33579 7.25 7 7.58579 7 8C7 8.41421 7.33579 8.75 7.75 8.75H13.25C13.6642 8.75 14 8.41421 14 8C14 7.58579 13.6642 7.25 13.25 7.25H7.75ZM7.75 12C7.33579 12 7 12.3358 7 12.75C7 13.1642 7.33579 13.5 7.75 13.5H10.25C10.6642 13.5 11 13.1642 11 12.75C11 12.3358 10.6642 12 10.25 12H7.75Z" fill="#18181B"/>
</svg>
