<svg width="16" height="16" viewBox="0 0 16 16" fill="none" xmlns="http://www.w3.org/2000/svg">
<path fill-rule="evenodd" clip-rule="evenodd" d="M8 2.5C4.96243 2.5 2.5 4.96243 2.5 8C2.5 11.0376 4.96243 13.5 8 13.5C9.33961 13.5 10.5656 13.022 11.5197 12.2265C11.8378 11.9613 12.3108 12.0041 12.576 12.3223C12.8413 12.6404 12.7984 13.1133 12.4803 13.3786C11.2666 14.3905 9.7035 15 8 15C4.13401 15 1 11.866 1 8C1 4.13401 4.13401 1 8 1C11.866 1 15 4.13401 15 8C15 9.38071 13.8807 10.5 12.5 10.5C11.8993 10.5 11.348 10.2881 10.9169 9.935C10.2899 10.8783 9.21756 11.5 8 11.5C6.067 11.5 4.5 9.933 4.5 8C4.5 6.067 6.067 4.5 8 4.5C9.933 4.5 11.5 6.067 11.5 8C11.5 8.55228 11.9477 9 12.5 9C13.0523 9 13.5 8.55228 13.5 8C13.5 4.96243 11.0376 2.5 8 2.5ZM10 8C10 6.89543 9.10457 6 8 6C6.89543 6 6 6.89543 6 8C6 9.10457 6.89543 10 8 10C9.10457 10 10 9.10457 10 8Z" fill="#18181B"/>
</svg>
