<svg width="16" height="16" viewBox="0 0 16 16" fill="none" xmlns="http://www.w3.org/2000/svg">
<g clip-path="url(#clip0_2217_844)">
<path fill-rule="evenodd" clip-rule="evenodd" d="M5.86482 0.0311129C6.26492 -0.0760935 6.67617 0.161343 6.78338 0.561443L7.31417 2.54238C7.53886 2.51443 7.76776 2.50003 8.00002 2.50003C8.59257 2.50003 9.16323 2.59374 9.69799 2.76714C10.1528 2.29428 10.792 2.00003 11.5 2.00003C12.8807 2.00003 14 3.11932 14 4.50003C14 5.20794 13.7057 5.84713 13.2329 6.30197C13.4063 6.83676 13.5 7.40745 13.5 8.00003C13.5 8.23233 13.4856 8.46127 13.4577 8.68599L15.4385 9.21676C15.8386 9.32396 16.076 9.73522 15.9688 10.1353C15.8616 10.5354 15.4504 10.7729 15.0503 10.6656L13.0702 10.1351C12.8907 10.5609 12.6591 10.9594 12.3834 11.3226L13.8337 12.773C14.1266 13.0659 14.1266 13.5407 13.8337 13.8336C13.5408 14.1265 13.0659 14.1265 12.773 13.8336L11.3227 12.3833C10.9595 12.6591 10.561 12.8907 10.1351 13.0703L10.6657 15.0503C10.7729 15.4504 10.5354 15.8617 10.1353 15.9689C9.73523 16.0761 9.32398 15.8387 9.21677 15.4386L8.686 13.4577C8.46126 13.4856 8.23232 13.5 8.00002 13.5C4.96245 13.5 2.50002 11.0376 2.50002 8.00003C2.50002 7.76777 2.51442 7.53886 2.54237 7.31416L0.561382 6.78336C0.161282 6.67615 -0.0761545 6.2649 0.0310518 5.8648C0.138258 5.4647 0.549511 5.22727 0.949611 5.33447L2.92976 5.86505C3.10932 5.43914 3.34098 5.04058 3.61675 4.67734L2.16645 3.22703C1.87355 2.93414 1.87355 2.45926 2.16645 2.16637C2.45934 1.87348 2.93421 1.87348 3.22711 2.16637L4.67743 3.61669C5.04064 3.34095 5.43918 3.10931 5.86505 2.92977L5.33449 0.949672C5.22728 0.549572 5.46472 0.138319 5.86482 0.0311129ZM8.00002 12C10.2092 12 12 10.2092 12 8.00003C12 5.79089 10.2092 4.00003 8.00002 4.00003C5.79088 4.00003 4.00002 5.79089 4.00002 8.00003C4.00002 8.83356 4.25497 9.60754 4.69114 10.2482L8.41944 6.51996C8.71233 6.22706 9.1872 6.22706 9.4801 6.51996C9.77299 6.81285 9.77299 7.28772 9.4801 7.58062L5.7518 11.3089C6.39251 11.7451 7.16649 12 8.00002 12Z" fill="#18181B"/>
</g>
<defs>
<clipPath id="clip0_2217_844">
<rect width="16" height="16" fill="white"/>
</clipPath>
</defs>
</svg>
