<svg width="16" height="16" viewBox="0 0 16 16" fill="none" xmlns="http://www.w3.org/2000/svg">
<path fill-rule="evenodd" clip-rule="evenodd" d="M2 7.25C1.58579 7.25 1.25 7.58579 1.25 8C1.25 8.41421 1.58579 8.75 2 8.75L7.68934 8.75L4.96967 11.4697C4.67678 11.7626 4.67678 12.2374 4.96967 12.5303C5.26256 12.8232 5.73744 12.8232 6.03033 12.5303L10.0303 8.53033C10.3232 8.23744 10.3232 7.76256 10.0303 7.46967L6.03033 3.46967C5.73744 3.17678 5.26256 3.17678 4.96967 3.46967C4.67678 3.76256 4.67678 4.23744 4.96967 4.53033L7.68934 7.25L2 7.25ZM9.46967 11.4697C9.17678 11.7626 9.17678 12.2374 9.46967 12.5303C9.76256 12.8232 10.2374 12.8232 10.5303 12.5303L14.5303 8.53033C14.8232 8.23744 14.8232 7.76256 14.5303 7.46967L10.5303 3.46967C10.2374 3.17678 9.76256 3.17678 9.46967 3.46967C9.17678 3.76256 9.17678 4.23744 9.46967 4.53033L12.9393 8L9.46967 11.4697Z" fill="#18181B"/>
</svg>
