<svg width="16" height="16" viewBox="0 0 16 16" fill="none" xmlns="http://www.w3.org/2000/svg">
<path fill-rule="evenodd" clip-rule="evenodd" d="M8 2.5C4.96243 2.5 2.5 4.96243 2.5 8C2.5 9.93961 3.50408 11.6459 5.02283 12.6255L5.81393 10.0545C5.30993 9.51821 5 8.79527 5 8C5 6.34315 6.34315 5 8 5C9.65685 5 11 6.34315 11 8C11 8.79527 10.6901 9.51821 10.1861 10.0545L10.9772 12.6255C12.4959 11.6459 13.5 9.93961 13.5 8C13.5 4.96243 11.0376 2.5 8 2.5ZM1 8C1 4.13401 4.13401 1 8 1C11.866 1 15 4.13401 15 8C15 10.8593 13.2858 13.3165 10.8322 14.4032C10.6362 14.49 10.4124 14.4888 10.2174 14.3999C10.0223 14.311 9.87464 14.1429 9.81161 13.938L8.61129 10.037C8.51732 9.73155 8.62717 9.40014 8.88495 9.21133C9.25932 8.93713 9.5 8.49673 9.5 8C9.5 7.17157 8.82843 6.5 8 6.5C7.17157 6.5 6.5 7.17157 6.5 8C6.5 8.49673 6.74068 8.93713 7.11505 9.21133C7.37283 9.40014 7.48268 9.73155 7.38871 10.037L6.18839 13.938C6.12536 14.1429 5.97768 14.311 5.78263 14.3999C5.58759 14.4888 5.36383 14.49 5.16785 14.4032C2.71421 13.3165 1 10.8593 1 8Z" fill="#18181B"/>
</svg>
