<svg width="16" height="16" viewBox="0 0 16 16" fill="none" xmlns="http://www.w3.org/2000/svg">
<path fill-rule="evenodd" clip-rule="evenodd" d="M3.0029 4.70246L7.22295 2.67683C7.46546 2.56043 7.73101 2.5 8 2.5C8.26899 2.5 8.53454 2.56043 8.77705 2.67683L12.9971 4.70246C13.3045 4.85 13.5 5.16074 13.5 5.50168V6C13.5 8.91539 12.0145 11.6298 9.55893 13.2014L8.57312 13.8323C8.40203 13.9418 8.20314 14 8 14C7.79686 14 7.59797 13.9418 7.42688 13.8323L6.44107 13.2014C3.98553 11.6298 2.5 8.91539 2.5 6V5.50168C2.5 5.16073 2.69553 4.85 3.0029 4.70246ZM6.57386 1.32455L2.3538 3.35018C1.52636 3.74735 1 4.58385 1 5.50168V6C1 9.42686 2.74615 12.6175 5.63249 14.4648L6.6183 15.0957C7.03078 15.3597 7.51027 15.5 8 15.5C8.48973 15.5 8.96922 15.3597 9.3817 15.0957L10.3675 14.4648C13.2539 12.6175 15 9.42686 15 6V5.50168C15 4.58385 14.4736 3.74735 13.6462 3.35018L9.42614 1.32455C8.98107 1.11091 8.49369 1 8 1C7.50631 1 7.01893 1.11091 6.57386 1.32455ZM8 4.75C8.41421 4.75 8.75 5.08579 8.75 5.5V7.5C8.75 7.91421 8.41421 8.25 8 8.25C7.58579 8.25 7.25 7.91421 7.25 7.5V5.5C7.25 5.08579 7.58579 4.75 8 4.75ZM9 10.5C9 11.0523 8.55228 11.5 8 11.5C7.44772 11.5 7 11.0523 7 10.5C7 9.94772 7.44772 9.5 8 9.5C8.55228 9.5 9 9.94772 9 10.5Z" fill="#18181B"/>
</svg>
