<svg width="16" height="16" viewBox="0 0 16 16" fill="none" xmlns="http://www.w3.org/2000/svg">
<path fill-rule="evenodd" clip-rule="evenodd" d="M3.5 12L3.5 4C3.5 3.17157 4.17157 2.5 5 2.5L11 2.5C11.8284 2.5 12.5 3.17157 12.5 4L12.5 12C12.5 12.8284 11.8284 13.5 11 13.5L5 13.5C4.17157 13.5 3.5 12.8284 3.5 12ZM5 15C3.34315 15 2 13.6569 2 12L2 4C2 2.34315 3.34315 0.999999 5 0.999999L11 0.999999C12.6569 0.999999 14 2.34314 14 4L14 12C14 13.6569 12.6569 15 11 15L5 15ZM5.5 4C4.94772 4 4.5 4.44771 4.5 5C4.5 5.55228 4.94772 6 5.5 6L10.5 6C11.0523 6 11.5 5.55228 11.5 5C11.5 4.44772 11.0523 4 10.5 4L5.5 4ZM6.5 11C6.5 11.5523 6.05228 12 5.5 12C4.94772 12 4.5 11.5523 4.5 11C4.5 10.4477 4.94772 10 5.5 10C6.05228 10 6.5 10.4477 6.5 11ZM8 12C8.55228 12 9 11.5523 9 11C9 10.4477 8.55228 10 8 10C7.44772 10 7 10.4477 7 11C7 11.5523 7.44772 12 8 12ZM11.5 11C11.5 11.5523 11.0523 12 10.5 12C9.94772 12 9.5 11.5523 9.5 11C9.5 10.4477 9.94772 10 10.5 10C11.0523 10 11.5 10.4477 11.5 11ZM5.5 9C6.05228 9 6.5 8.55228 6.5 8C6.5 7.44772 6.05228 7 5.5 7C4.94772 7 4.5 7.44772 4.5 8C4.5 8.55228 4.94772 9 5.5 9ZM9 8C9 8.55228 8.55228 9 8 9C7.44772 9 7 8.55228 7 8C7 7.44772 7.44772 7 8 7C8.55228 7 9 7.44771 9 8ZM10.5 9C11.0523 9 11.5 8.55228 11.5 8C11.5 7.44772 11.0523 7 10.5 7C9.94772 7 9.5 7.44772 9.5 8C9.5 8.55228 9.94772 9 10.5 9Z" fill="#18181B"/>
</svg>
