<svg width="16" height="16" viewBox="0 0 16 16" fill="none" xmlns="http://www.w3.org/2000/svg">
<path fill-rule="evenodd" clip-rule="evenodd" d="M3.75 1C2.50736 1 1.5 2.00736 1.5 3.25V12.75C1.5 13.9926 2.50736 15 3.75 15H4.25C4.66421 15 5 14.6642 5 14.25C5 13.8358 4.66421 13.5 4.25 13.5H3.75C3.33579 13.5 3 13.1642 3 12.75V3.25C3 2.83579 3.33579 2.5 3.75 2.5H4.25C4.66421 2.5 5 2.16421 5 1.75C5 1.33579 4.66421 1 4.25 1H3.75ZM12.25 15C13.4926 15 14.5 13.9926 14.5 12.75V3.25C14.5 2.00736 13.4926 1 12.25 1H11.75C11.3358 1 11 1.33579 11 1.75C11 2.16421 11.3358 2.5 11.75 2.5H12.25C12.6642 2.5 13 2.83579 13 3.25V12.75C13 13.1642 12.6642 13.5 12.25 13.5H11.75C11.3358 13.5 11 13.8358 11 14.25C11 14.6642 11.3358 15 11.75 15H12.25Z" fill="#18181B"/>
</svg>
