<svg width="16" height="16" viewBox="0 0 16 16" fill="none" xmlns="http://www.w3.org/2000/svg">
<path fill-rule="evenodd" clip-rule="evenodd" d="M13.5 8C13.5 11.0376 11.0376 13.5 8 13.5C4.96243 13.5 2.5 11.0376 2.5 8C2.5 4.96243 4.96243 2.5 8 2.5C11.0376 2.5 13.5 4.96243 13.5 8ZM15 8C15 11.866 11.866 15 8 15C4.13401 15 1 11.866 1 8C1 4.13401 4.13401 1 8 1C11.866 1 15 4.13401 15 8ZM5.71151 5.76283C5.58053 5.36987 5.15579 5.1575 4.76283 5.28849C4.36987 5.41947 4.1575 5.84421 4.28849 6.23717L5.78849 10.7372C5.89057 11.0434 6.17718 11.25 6.5 11.25C6.82282 11.25 7.10943 11.0434 7.21151 10.7372L8 8.37171L8.78849 10.7372C8.89057 11.0434 9.17718 11.25 9.5 11.25C9.82282 11.25 10.1094 11.0434 10.2115 10.7372L11.7115 6.23717C11.8425 5.84421 11.6301 5.41947 11.2372 5.28849C10.8442 5.1575 10.4195 5.36987 10.2885 5.76283L9.5 8.12829L8.71151 5.76283C8.60943 5.45657 8.32282 5.25 8 5.25C7.67718 5.25 7.39057 5.45657 7.28849 5.76283L6.5 8.12829L5.71151 5.76283Z" fill="#18181B"/>
</svg>
