<svg width="16" height="16" viewBox="0 0 16 16" fill="none" xmlns="http://www.w3.org/2000/svg">
<path fill-rule="evenodd" clip-rule="evenodd" d="M4.25 2.25C4.05109 2.25 3.86032 2.32902 3.71967 2.46967C3.57902 2.61032 3.5 2.80109 3.5 3V8V13C3.5 13.4142 3.83579 13.75 4.25 13.75H5H8.75H9.5C11.2949 13.75 12.75 12.2949 12.75 10.5C12.75 9.23689 12.0294 8.14208 10.9769 7.60421C11.4591 7.03722 11.75 6.30258 11.75 5.5C11.75 3.70507 10.2949 2.25 8.5 2.25H7.75H5H4.25ZM7.75 7.25C8.7165 7.25 9.5 6.4665 9.5 5.5C9.5 4.5335 8.7165 3.75 7.75 3.75H5.75L5.75 7.25H7.75ZM5.75 8.75L5.75 12.25H8.75C9.7165 12.25 10.5 11.4665 10.5 10.5C10.5 9.5335 9.7165 8.75 8.75 8.75H8.5H7.75H5.75Z" fill="#18181B"/>
</svg>
