<svg width="16" height="16" viewBox="0 0 16 16" fill="none" xmlns="http://www.w3.org/2000/svg">
<path fill-rule="evenodd" clip-rule="evenodd" d="M5 13.5H11C11.8284 13.5 12.5 12.8284 12.5 12V7.24264C12.5 6.84482 12.342 6.46328 12.0607 6.18198L8.81802 2.93934C8.53672 2.65804 8.15518 2.5 7.75736 2.5L5 2.5C4.17157 2.5 3.5 3.17157 3.5 4L3.5 12C3.5 12.8284 4.17157 13.5 5 13.5ZM14 7.24264C14 6.44699 13.6839 5.68393 13.1213 5.12132L9.87868 1.87868C9.31607 1.31607 8.55301 1 7.75736 1H5C3.34315 1 2 2.34315 2 4V12C2 13.6569 3.34315 15 5 15H11C12.6569 15 14 13.6569 14 12L14 7.24264ZM8.71967 10.5303C8.42678 10.2374 8.42678 9.76256 8.71967 9.46967L9.68934 8.5L8.71967 7.53033C8.42678 7.23744 8.42678 6.76256 8.71967 6.46967C9.01256 6.17678 9.48744 6.17678 9.78033 6.46967L11.2803 7.96967C11.5732 8.26256 11.5732 8.73744 11.2803 9.03033L9.78033 10.5303C9.48744 10.8232 9.01256 10.8232 8.71967 10.5303ZM7.28033 7.53033C7.57322 7.23744 7.57322 6.76256 7.28033 6.46967C6.98744 6.17678 6.51256 6.17678 6.21967 6.46967L4.71967 7.96967C4.42678 8.26256 4.42678 8.73744 4.71967 9.03033L6.21967 10.5303C6.51256 10.8232 6.98744 10.8232 7.28033 10.5303C7.57322 10.2374 7.57322 9.76256 7.28033 9.46967L6.31066 8.5L7.28033 7.53033Z" fill="#18181B"/>
</svg>
