<svg width="16" height="16" viewBox="0 0 16 16" fill="none" xmlns="http://www.w3.org/2000/svg">
<g clip-path="url(#clip0_2217_4866)">
<path fill-rule="evenodd" clip-rule="evenodd" d="M4.31163 4.29059C4.35651 3.75203 4.93114 3.4291 5.41451 3.67078C5.78499 3.85603 6.2355 3.70586 6.42074 3.33537C6.60598 2.96489 6.45581 2.51439 6.08533 2.32914C4.65279 1.61288 2.94982 2.56993 2.81682 4.16603L2.70565 5.49996H1.74992C1.33571 5.49996 0.99992 5.83575 0.99992 6.24996C0.99992 6.66418 1.33571 6.99996 1.74992 6.99996H2.58065L2.18821 11.7093C2.14333 12.2479 1.5687 12.5708 1.08533 12.3291C0.714846 12.1439 0.264342 12.2941 0.0790997 12.6646C-0.106142 13.035 0.0440261 13.4855 0.41451 13.6708C1.84705 14.3871 3.55002 13.43 3.68302 11.8339L4.08585 6.99996H5.24992C5.66413 6.99996 5.99992 6.66418 5.99992 6.24996C5.99992 5.83575 5.66413 5.49996 5.24992 5.49996H4.21085L4.31163 4.29059ZM10.3261 6.51983C10.0609 6.20162 9.58797 6.15862 9.26977 6.4238C8.95156 6.68897 8.90857 7.16189 9.17374 7.4801L10.0236 8.49999L9.17374 9.51989C8.90857 9.83809 8.95156 10.311 9.26977 10.5762C9.58797 10.8414 10.0609 10.7984 10.3261 10.4802L10.9999 9.67153L11.6737 10.4801C11.9389 10.7983 12.4118 10.8413 12.73 10.5761C13.0483 10.311 13.0912 9.83803 12.8261 9.51983L11.9762 8.49999L12.8261 7.48016C13.0912 7.16196 13.0483 6.68903 12.73 6.42386C12.4118 6.15869 11.9389 6.20168 11.6737 6.51989L10.9999 7.32846L10.3261 6.51983ZM8.01958 4.54977C8.40619 4.69846 8.59905 5.13241 8.45036 5.51901L8.30491 5.89718C7.66058 7.57243 7.66058 9.42713 8.30491 11.1024L8.45036 11.4805C8.59905 11.8671 8.40619 12.3011 8.01958 12.4498C7.63298 12.5985 7.19903 12.4056 7.05034 12.019L6.90489 11.6408C6.12726 9.619 6.12726 7.38056 6.90489 5.35871L7.05034 4.98054C7.19903 4.59394 7.63298 4.40107 8.01958 4.54977ZM13.9811 4.54981C14.3677 4.40111 14.8016 4.59398 14.9503 4.98058L15.0958 5.35875C15.8734 7.3806 15.8734 9.61903 15.0958 11.6409L14.9503 12.0191C14.8016 12.4057 14.3677 12.5985 13.9811 12.4498C13.5945 12.3011 13.4016 11.8672 13.5503 11.4806L13.6957 11.1024C14.3401 9.42717 14.3401 7.57246 13.6957 5.89722L13.5503 5.51905C13.4016 5.13245 13.5945 4.6985 13.9811 4.54981Z" fill="#18181B"/>
</g>
<defs>
<clipPath id="clip0_2217_4866">
<rect width="16" height="16" fill="white"/>
</clipPath>
</defs>
</svg>
