<svg width="16" height="16" viewBox="0 0 16 16" fill="none" xmlns="http://www.w3.org/2000/svg">
<path fill-rule="evenodd" clip-rule="evenodd" d="M2 14.25C2 14.6642 2.33579 15 2.75 15C3.16421 15 3.5 14.6642 3.5 14.25L3.5 1.75C3.5 1.33579 3.16421 1 2.75 1C2.33579 1 2 1.33579 2 1.75L2 14.25ZM6.5 7L6.5 9C6.5 9.55228 6.94772 10 7.5 10L12 10C12.5523 10 13 9.55228 13 9L13 7C13 6.44771 12.5523 6 12 6L7.5 6C6.94772 6 6.5 6.44771 6.5 7ZM7.5 4.5C6.11929 4.5 5 5.61929 5 7L5 9C5 10.3807 6.11929 11.5 7.5 11.5L12 11.5C13.3807 11.5 14.5 10.3807 14.5 9L14.5 7C14.5 5.61929 13.3807 4.5 12 4.5L7.5 4.5Z" fill="#18181B"/>
</svg>
