<svg width="16" height="16" viewBox="0 0 16 16" fill="none" xmlns="http://www.w3.org/2000/svg">
<path fill-rule="evenodd" clip-rule="evenodd" d="M6.43934 3.56066L6.87868 4H7.5H12.5C13.3284 4 14 4.67157 14 5.5V10.5C14 11.3284 13.3284 12 12.5 12H12H11H10.75C10.3358 12 10 12.3358 10 12.75C10 13.1642 10.3358 13.5 10.75 13.5H11H12H12.5C14.1569 13.5 15.5 12.1569 15.5 10.5V5.5C15.5 3.84315 14.1569 2.5 12.5 2.5H7.5L6.87868 1.87868C6.31607 1.31607 5.55301 1 4.75736 1H3.5C1.84315 1 0.5 2.34315 0.5 4V10.5C0.5 12.1569 1.84315 13.5 3.5 13.5H4H5H5.25C5.66421 13.5 6 13.1642 6 12.75C6 12.3358 5.66421 12 5.25 12H5H4H3.5C2.67157 12 2 11.3284 2 10.5V4C2 3.17157 2.67157 2.5 3.5 2.5H4.75736C5.15518 2.5 5.53672 2.65804 5.81802 2.93934L6.43934 3.56066ZM8.75 8.56066L9.46967 9.28033C9.76256 9.57322 10.2374 9.57322 10.5303 9.28033C10.8232 8.98744 10.8232 8.51256 10.5303 8.21967L8.53033 6.21967C8.38968 6.07902 8.19891 6 8 6C7.80109 6 7.61032 6.07902 7.46967 6.21967L5.46967 8.21967C5.17678 8.51256 5.17678 8.98744 5.46967 9.28033C5.76256 9.57322 6.23744 9.57322 6.53033 9.28033L7.25 8.56066V15.25C7.25 15.6642 7.58579 16 8 16C8.41421 16 8.75 15.6642 8.75 15.25V8.56066Z" fill="#18181B"/>
</svg>
