<svg width="16" height="16" viewBox="0 0 16 16" fill="none" xmlns="http://www.w3.org/2000/svg">
<path fill-rule="evenodd" clip-rule="evenodd" d="M13.5 8C13.5 11.0376 11.0376 13.5 8 13.5C4.96243 13.5 2.5 11.0376 2.5 8C2.5 4.96243 4.96243 2.5 8 2.5C11.0376 2.5 13.5 4.96243 13.5 8ZM15 8C15 11.866 11.866 15 8 15C4.13401 15 1 11.866 1 8C1 4.13401 4.13401 1 8 0.999999C11.866 1 15 4.13401 15 8ZM7.25 11C7.25 11.4142 7.58579 11.75 8 11.75C8.41421 11.75 8.75 11.4142 8.75 11L8.75 6.81066L9.46967 7.53033C9.76256 7.82322 10.2374 7.82322 10.5303 7.53033C10.8232 7.23743 10.8232 6.76256 10.5303 6.46967L8.53033 4.46967C8.23744 4.17678 7.76256 4.17678 7.46967 4.46967L5.46967 6.46967C5.17678 6.76256 5.17678 7.23744 5.46967 7.53033C5.76256 7.82323 6.23744 7.82323 6.53033 7.53033L7.25 6.81066L7.25 11Z" fill="#18181B"/>
</svg>
