<svg width="16" height="16" viewBox="0 0 16 16" fill="none" xmlns="http://www.w3.org/2000/svg">
<path fill-rule="evenodd" clip-rule="evenodd" d="M13.5 8C13.5 11.0376 11.0376 13.5 8 13.5C4.96243 13.5 2.5 11.0376 2.5 8C2.5 4.96243 4.96243 2.5 8 2.5C11.0376 2.5 13.5 4.96243 13.5 8ZM15 8C15 11.866 11.866 15 8 15C4.13401 15 1 11.866 1 8C1 4.13401 4.13401 1 8 1C11.866 1 15 4.13401 15 8ZM9.25 7.25C9.25 7.66421 9.58579 8 10 8C10.4142 8 10.75 7.66421 10.75 7.25V6.25C10.75 5.83579 10.4142 5.5 10 5.5C9.58579 5.5 9.25 5.83579 9.25 6.25V7.25ZM6 8C5.58579 8 5.25 7.66421 5.25 7.25V6.25C5.25 5.83579 5.58579 5.5 6 5.5C6.41421 5.5 6.75 5.83579 6.75 6.25V7.25C6.75 7.66421 6.41421 8 6 8ZM8 12C9.36932 12 10.5 11.5 10.5 10.5C10.5 9.5 9.5 9 8 9C6.5 9 5.5 9.5 5.5 10.5C5.5 11.5 6.5 12 8 12Z" fill="#18181B"/>
</svg>
