<svg width="16" height="16" viewBox="0 0 16 16" fill="none" xmlns="http://www.w3.org/2000/svg">
<path fill-rule="evenodd" clip-rule="evenodd" d="M3.97968 3.67735C4.91332 2.94032 6.30537 2.5 8 2.5C8.31808 2.5 8.62647 2.51557 8.92382 2.54593C9.33589 2.588 9.70405 2.28806 9.74612 1.87599C9.78819 1.46392 9.48825 1.09576 9.07618 1.05369C8.72623 1.01796 8.36693 1 8 1C6.06681 1 4.31689 1.50009 3.05025 2.5C1.78361 3.49991 1 4.99985 1 7C1 9.11712 1.87794 10.6739 3.27747 11.6704L3.15381 13.1543C3.07101 14.1479 3.85508 15 4.85208 15C5.26945 15 5.67231 14.8468 5.98426 14.5695L7.75309 12.9973C7.83504 12.9991 7.91735 13 8 13C9.93319 13 11.6831 12.4999 12.9497 11.5C14.2164 10.5001 15 9.00015 15 7C15 6.58579 14.6642 6.25 14.25 6.25C13.8358 6.25 13.5 6.58579 13.5 7C13.5 8.56329 12.9095 9.62069 12.0203 10.3226C11.0867 11.0597 9.69463 11.5 8 11.5C7.92841 11.5 7.85724 11.4992 7.78654 11.4976L7.49185 11.4911L7.19716 11.4845L6.97685 11.6803L4.98772 13.4484C4.95035 13.4817 4.90208 13.5 4.85208 13.5C4.73264 13.5 4.63871 13.3979 4.64863 13.2789L4.80775 11.3694L4.84321 10.9438L4.49536 10.6962L4.14751 10.4485C3.15584 9.74237 2.5 8.64758 2.5 7C2.5 5.43671 3.09048 4.37931 3.97968 3.67735ZM12.5 5.5C13.6046 5.5 14.5 4.60457 14.5 3.5C14.5 2.39543 13.6046 1.5 12.5 1.5C11.3954 1.5 10.5 2.39543 10.5 3.5C10.5 4.60457 11.3954 5.5 12.5 5.5Z" fill="#18181B"/>
</svg>
