<svg width="16" height="16" viewBox="0 0 16 16" fill="none" xmlns="http://www.w3.org/2000/svg">
<path fill-rule="evenodd" clip-rule="evenodd" d="M1 4.75C1 4.33579 1.33579 4 1.75 4H4.86276C5.49084 4 6.00001 4.50916 6.00001 5.13725C6.00001 5.35353 5.93833 5.56534 5.82221 5.74781L2.79808 10.5H5.25001C5.66422 10.5 6.00001 10.8358 6.00001 11.25C6.00001 11.6642 5.66422 12 5.25001 12H2.13722C1.50915 12 1 11.4908 1 10.8628C1 10.6465 1.06168 10.4347 1.17779 10.2522L4.20194 5.5H1.75C1.33579 5.5 1 5.16421 1 4.75ZM7.75 4C8.16421 4 8.5 4.33579 8.5 4.75V11.25C8.5 11.6642 8.16421 12 7.75 12C7.33579 12 7 11.6642 7 11.25V4.75C7 4.33579 7.33579 4 7.75 4ZM10.75 4C10.3358 4 10 4.33579 10 4.75V8.75V11.25C10 11.6642 10.3358 12 10.75 12C11.1642 12 11.5 11.6642 11.5 11.25V9.5H12C13.5188 9.5 14.75 8.26878 14.75 6.75C14.75 5.23122 13.5188 4 12 4H10.75ZM12 8H11.5V5.5H12C12.6904 5.5 13.25 6.05964 13.25 6.75C13.25 7.44036 12.6904 8 12 8Z" fill="#18181B"/>
</svg>
