<svg width="16" height="16" viewBox="0 0 16 16" fill="none" xmlns="http://www.w3.org/2000/svg">
<path fill-rule="evenodd" clip-rule="evenodd" d="M8 6.5C9.10457 6.5 10 5.60457 10 4.5C10 3.39543 9.10457 2.5 8 2.5C6.89543 2.5 6 3.39543 6 4.5C6 5.60457 6.89543 6.5 8 6.5ZM8 8C9.933 8 11.5 6.433 11.5 4.5C11.5 2.567 9.933 1 8 1C6.067 1 4.5 2.567 4.5 4.5C4.5 6.433 6.067 8 8 8ZM9 9.22517C9 8.84009 8.70631 8.5158 8.32139 8.50465C8.21485 8.50156 8.1077 8.5 8 8.5C4.15 8.5 1 10.5 1 12.5C1 13.8807 2.11929 15 3.5 15H12.25C12.6642 15 13 14.6642 13 14.25C13 13.8358 12.6642 13.5 12.25 13.5H3.5C2.94772 13.5 2.5 13.0523 2.5 12.5C2.5 12.2955 2.72027 11.6911 3.81956 11.0413C4.83752 10.4395 6.31979 10 8 10C8.05845 10 8.11666 10.0005 8.17462 10.0016C8.61664 10.0096 9 9.66727 9 9.22517ZM13 8.93934L12.0303 7.96967C11.7374 7.67678 11.2626 7.67678 10.9697 7.96967C10.6768 8.26256 10.6768 8.73744 10.9697 9.03033L11.9393 10L10.9697 10.9697C10.6768 11.2626 10.6768 11.7374 10.9697 12.0303C11.2626 12.3232 11.7374 12.3232 12.0303 12.0303L13 11.0607L13.9697 12.0303C14.2626 12.3232 14.7374 12.3232 15.0303 12.0303C15.3232 11.7374 15.3232 11.2626 15.0303 10.9697L14.0607 10L15.0303 9.03033C15.3232 8.73744 15.3232 8.26256 15.0303 7.96967C14.7374 7.67678 14.2626 7.67678 13.9697 7.96967L13 8.93934Z" fill="#18181B"/>
</svg>
