<svg width="16" height="16" viewBox="0 0 16 16" fill="none" xmlns="http://www.w3.org/2000/svg">
<path fill-rule="evenodd" clip-rule="evenodd" d="M8.25 1.5C8.66421 1.5 9 1.83579 9 2.25C9 2.66421 8.66421 3 8.25 3H4.5C3.67157 3 3 3.67157 3 4.5V11.5C3 12.3284 3.67157 13 4.5 13H11.5C12.3284 13 13 12.3284 13 11.5V7.75C13 7.33579 13.3358 7 13.75 7C14.1642 7 14.5 7.33579 14.5 7.75V11.5C14.5 13.1569 13.1569 14.5 11.5 14.5H4.5C2.84315 14.5 1.5 13.1569 1.5 11.5V4.5C1.5 2.84315 2.84315 1.5 4.5 1.5H8.25ZM12.5 5.5C13.6046 5.5 14.5 4.60457 14.5 3.5C14.5 2.39543 13.6046 1.5 12.5 1.5C11.3954 1.5 10.5 2.39543 10.5 3.5C10.5 4.60457 11.3954 5.5 12.5 5.5Z" fill="#18181B"/>
</svg>
