<svg width="16" height="16" viewBox="0 0 16 16" fill="none" xmlns="http://www.w3.org/2000/svg">
<path fill-rule="evenodd" clip-rule="evenodd" d="M1.5 2.75C1.5 2.33579 1.16421 2 0.75 2C0.335786 2 0 2.33579 0 2.75V13.25C0 13.6642 0.335786 14 0.75 14C1.16421 14 1.5 13.6642 1.5 13.25V2.75ZM16 2.75C16 2.33579 15.6642 2 15.25 2C14.8358 2 14.5 2.33579 14.5 2.75V13.25C14.5 13.6642 14.8358 14 15.25 14C15.6642 14 16 13.6642 16 13.25V2.75ZM6.53033 4.96967C6.82322 5.26256 6.82322 5.73744 6.53033 6.03033L4.56066 8L6.53033 9.96967C6.82322 10.2626 6.82322 10.7374 6.53033 11.0303C6.23744 11.3232 5.76256 11.3232 5.46967 11.0303L2.96967 8.53033C2.67678 8.23744 2.67678 7.76256 2.96967 7.46967L5.46967 4.96967C5.76256 4.67678 6.23744 4.67678 6.53033 4.96967ZM9.46967 6.03033C9.17678 5.73744 9.17678 5.26256 9.46967 4.96967C9.76256 4.67678 10.2374 4.67678 10.5303 4.96967L13.0303 7.46967C13.3232 7.76256 13.3232 8.23744 13.0303 8.53033L10.5303 11.0303C10.2374 11.3232 9.76256 11.3232 9.46967 11.0303C9.17678 10.7374 9.17678 10.2626 9.46967 9.96967L11.4393 8L9.46967 6.03033Z" fill="#18181B"/>
</svg>
