<svg width="16" height="16" viewBox="0 0 16 16" fill="none" xmlns="http://www.w3.org/2000/svg">
<path fill-rule="evenodd" clip-rule="evenodd" d="M5.75 2.5H10.25C10.7842 2.5 11.2532 2.77929 11.519 3.19983C10.6259 3.58121 10 4.46751 10 5.5C10 6.61941 10.7357 7.56698 11.75 7.88555V12C11.75 12.8284 11.0784 13.5 10.25 13.5H5.75C5.21576 13.5 4.74676 13.2207 4.48102 12.8002C5.3741 12.4188 6 11.5325 6 10.5C6 9.38059 5.26428 8.43302 4.25 8.11445V7.88555C5.26428 7.56698 6 6.61941 6 5.5C6 4.46751 5.3741 3.58121 4.48102 3.19982C4.74676 2.77929 5.21576 2.5 5.75 2.5ZM2.75 8.11445V7.88555C1.73572 7.56698 1 6.61941 1 5.5C1 4.32762 1.80699 3.34373 2.8958 3.0735C3.28617 1.87008 4.41648 1 5.75 1H10.25C11.5835 1 12.7138 1.87008 13.1042 3.07351C14.193 3.34373 15 4.32762 15 5.5C15 6.61941 14.2643 7.56698 13.25 7.88555V12C13.25 13.6569 11.9069 15 10.25 15H5.75C4.41647 15 3.28616 14.1299 2.8958 12.9265C1.80699 12.6563 1 11.6724 1 10.5C1 9.38059 1.73572 8.43302 2.75 8.11445ZM3.5 11.5C4.05228 11.5 4.5 11.0523 4.5 10.5C4.5 9.94771 4.05228 9.5 3.5 9.5C2.94772 9.5 2.5 9.94772 2.5 10.5C2.5 11.0523 2.94772 11.5 3.5 11.5ZM2.5 5.5C2.5 4.94772 2.94772 4.5 3.5 4.5C4.05228 4.5 4.5 4.94772 4.5 5.5C4.5 6.05228 4.05228 6.5 3.5 6.5C2.94772 6.5 2.5 6.05229 2.5 5.5ZM12.5 4.5C11.9477 4.5 11.5 4.94772 11.5 5.5C11.5 6.05229 11.9477 6.5 12.5 6.5C13.0523 6.5 13.5 6.05229 13.5 5.5C13.5 4.94772 13.0523 4.5 12.5 4.5Z" fill="#18181B"/>
</svg>
