<svg width="16" height="16" viewBox="0 0 16 16" fill="none" xmlns="http://www.w3.org/2000/svg">
<path fill-rule="evenodd" clip-rule="evenodd" d="M2.21967 2.71967C2.36032 2.57902 2.55109 2.5 2.75 2.5C2.94891 2.5 3.13968 2.57902 3.28033 2.71967L5.28033 4.71967C5.57322 5.01256 5.57322 5.48744 5.28033 5.78033C4.98744 6.07322 4.51256 6.07322 4.21967 5.78033L3.5 5.06066L3.5 12.75C3.5 13.1642 3.16421 13.5 2.75 13.5C2.33579 13.5 2 13.1642 2 12.75L2 5.06066L1.28033 5.78033C0.987437 6.07322 0.512563 6.07322 0.21967 5.78033C-0.0732232 5.48744 -0.0732232 5.01256 0.21967 4.71967L2.21967 2.71967ZM7.75 4C7.33579 4 7 3.66421 7 3.25C7 2.83579 7.33579 2.5 7.75 2.5H15.25C15.6642 2.5 16 2.83579 16 3.25C16 3.66421 15.6642 4 15.25 4H7.75ZM7.75 7.25C7.33579 7.25 7 7.58579 7 8C7 8.41421 7.33579 8.75 7.75 8.75H13.25C13.6642 8.75 14 8.41421 14 8C14 7.58579 13.6642 7.25 13.25 7.25H7.75ZM7.75 12C7.33579 12 7 12.3358 7 12.75C7 13.1642 7.33579 13.5 7.75 13.5H10.25C10.6642 13.5 11 13.1642 11 12.75C11 12.3358 10.6642 12 10.25 12H7.75Z" fill="#18181B"/>
</svg>
