<svg width="16" height="16" viewBox="0 0 16 16" fill="none" xmlns="http://www.w3.org/2000/svg">
<path fill-rule="evenodd" clip-rule="evenodd" d="M11.5 3H4.5C3.67157 3 3 3.67157 3 4.5V11.5C3 12.3284 3.67157 13 4.5 13H11.5C12.3284 13 13 12.3284 13 11.5V4.5C13 3.67157 12.3284 3 11.5 3ZM4.5 1.5C2.84315 1.5 1.5 2.84315 1.5 4.5V11.5C1.5 13.1569 2.84315 14.5 4.5 14.5H11.5C13.1569 14.5 14.5 13.1569 14.5 11.5V4.5C14.5 2.84315 13.1569 1.5 11.5 1.5H4.5ZM10.5 7.5H5.43005C4.87777 7.5 4.43005 7.94771 4.43005 8.5V10.5C4.43005 11.0523 4.87777 11.5 5.43005 11.5H10.5C11.0523 11.5 11.5 11.0523 11.5 10.5V8.5C11.5 7.94772 11.0523 7.5 10.5 7.5ZM5.18005 4.5H8.75C9.16421 4.5 9.5 4.83579 9.5 5.25C9.5 5.66421 9.16421 6 8.75 6H5.18005C4.76584 6 4.43005 5.66421 4.43005 5.25C4.43005 4.83579 4.76584 4.5 5.18005 4.5Z" fill="#18181B"/>
</svg>
