<svg width="16" height="16" viewBox="0 0 16 16" fill="none" xmlns="http://www.w3.org/2000/svg">
<path fill-rule="evenodd" clip-rule="evenodd" d="M12.25 1C12.6642 1 13 1.33579 13 1.75V3H14.25C14.6642 3 15 3.33579 15 3.75C15 4.16421 14.6642 4.5 14.25 4.5H13L13 11.5H14.25C14.6642 11.5 15 11.8358 15 12.25C15 12.6642 14.6642 13 14.25 13H13V14.25C13 14.6642 12.6642 15 12.25 15C11.8358 15 11.5 14.6642 11.5 14.25V13H4.5V14.25C4.5 14.6642 4.16421 15 3.75 15C3.33579 15 3 14.6642 3 14.25V13H1.75C1.33579 13 1 12.6642 1 12.25C1 11.8358 1.33579 11.5 1.75 11.5H3L3 4.5H1.75C1.33579 4.5 1 4.16421 1 3.75C1 3.33579 1.33579 3 1.75 3H3L3 1.75C3 1.33579 3.33579 1 3.75 1C4.16421 1 4.5 1.33579 4.5 1.75V3H11.5V1.75C11.5 1.33579 11.8358 1 12.25 1ZM4.5 4.5L4.5 11.5H11.5L11.5 4.5H4.5Z" fill="#18181B"/>
</svg>
