<svg width="16" height="16" viewBox="0 0 16 16" fill="none" xmlns="http://www.w3.org/2000/svg">
<path fill-rule="evenodd" clip-rule="evenodd" d="M7.8355 6L8.59551 3.97331L9.3355 2H5.5C5.20741 2 4.94429 2.17814 4.83563 2.4498L2.51266 8.25722C2.5043 8.27813 2.5 8.30045 2.5 8.32297C2.5 8.42074 2.57926 8.5 2.67703 8.5H5.5H7.64155L6.90969 10.5126L5.82791 13.4875C5.73732 13.7366 5.9218 14 6.18686 14C6.29218 14 6.39282 13.9565 6.465 13.8798L13.4212 6.48891C13.4718 6.4351 13.5 6.36399 13.5 6.29009C13.5 6.12988 13.3701 6 13.2099 6H10H7.8355ZM9.39326 1.84597L9.39321 1.8461L9.39326 1.84597ZM10.5625 3L10.7978 2.37266C11.1375 1.46656 10.4677 0.5 9.5 0.5H5.5C4.59405 0.5 3.77937 1.05156 3.44291 1.89271L1.11995 7.70013C1.04071 7.89822 1 8.10962 1 8.32297C1 9.24917 1.75083 10 2.67703 10H3.9039H5.5L4.95455 11.5L4.41822 12.9749C3.9719 14.2023 4.88085 15.5 6.18686 15.5C6.70577 15.5 7.20165 15.2857 7.5573 14.9079L14.5135 7.51696C14.826 7.1849 15 6.74609 15 6.29009C15 5.30145 14.1985 4.5 13.2099 4.5H11.602H10L10.5625 3Z" fill="#18181B"/>
</svg>
