<svg width="16" height="16" viewBox="0 0 16 16" fill="none" xmlns="http://www.w3.org/2000/svg">
<path fill-rule="evenodd" clip-rule="evenodd" d="M6 8C6 9.74922 5.66533 11.0942 5.18412 11.9444C4.72073 12.7632 4.21683 13 3.75 13C3.28317 13 2.77927 12.7632 2.31588 11.9444C2.04442 11.4648 1.81959 10.8277 1.67517 10.0494C1.95868 10.3375 2.32265 10.5 2.75 10.5C3.82587 10.5 4.5 9.47 4.5 8C4.5 6.53 3.82587 5.5 2.75 5.5C2.32265 5.5 1.95868 5.66251 1.67517 5.95056C1.81959 5.17229 2.04442 4.53522 2.31588 4.05559C2.77927 3.23684 3.28317 3 3.75 3C4.21683 3 4.72073 3.23684 5.18412 4.05559C5.66533 4.9058 6 6.25078 6 8ZM7.5 8C7.5 11.822 6.05544 14.5 3.75 14.5C1.44456 14.5 0 11.822 0 8C0 4.17801 1.44456 1.5 3.75 1.5C6.05544 1.5 7.5 4.17801 7.5 8ZM14.5 8C14.5 9.74922 14.1653 11.0942 13.6841 11.9444C13.2207 12.7632 12.7168 13 12.25 13C11.7832 13 11.2793 12.7632 10.8159 11.9444C10.5444 11.4648 10.3196 10.8277 10.1752 10.0494C10.4587 10.3375 10.8226 10.5 11.25 10.5C12.3259 10.5 13 9.47 13 8C13 6.53 12.3259 5.5 11.25 5.5C10.8226 5.5 10.4587 5.66252 10.1752 5.95057C10.3196 5.17229 10.5444 4.53522 10.8159 4.05559C11.2793 3.23684 11.7832 3 12.25 3C12.7168 3 13.2207 3.23684 13.6841 4.05559C14.1653 4.9058 14.5 6.25078 14.5 8ZM16 8C16 11.822 14.5554 14.5 12.25 14.5C9.94456 14.5 8.5 11.822 8.5 8C8.5 4.17801 9.94456 1.5 12.25 1.5C14.5554 1.5 16 4.17801 16 8Z" fill="#18181B"/>
</svg>
