<svg width="16" height="16" viewBox="0 0 16 16" fill="none" xmlns="http://www.w3.org/2000/svg">
<path fill-rule="evenodd" clip-rule="evenodd" d="M10.8839 6.9948L6.76401 11.1147C6.47325 11.4054 6.00259 11.4079 5.70885 11.1201L1.90608 7.39494C1.6103 7.1052 1.60527 6.63058 1.89485 6.33464L6.0132 2.12578C6.24835 1.88545 6.57041 1.75 6.90664 1.75H10.5C10.9142 1.75 11.25 2.08579 11.25 2.5V6.11091C11.25 6.44243 11.1183 6.76038 10.8839 6.9948ZM4.94107 1.07671C5.45841 0.548 6.16693 0.25 6.90664 0.25H10.5C11.7426 0.25 12.75 1.25736 12.75 2.5V3.25H13.5C14.7426 3.25 15.75 4.25736 15.75 5.5V9.11091C15.75 9.84026 15.4603 10.5397 14.9445 11.0555L10.8247 15.1753C9.95239 16.0476 8.54041 16.0549 7.65918 15.1916L3.85641 11.4665C3.74791 11.3602 3.65245 11.2456 3.57006 11.1248L0.856405 8.46648C-0.0309334 7.59725 -0.046011 6.1734 0.822722 5.28557L4.94107 1.07671ZM7.18266 12.6251C7.41516 12.517 7.63295 12.367 7.82467 12.1753L11.5209 8.47906C11.5952 8.49281 11.6718 8.5 11.75 8.5C12.4404 8.5 13 7.94036 13 7.25C13 6.95478 12.8977 6.68347 12.7265 6.4696C12.7421 6.35132 12.75 6.23152 12.75 6.11091V4.75H13.5C13.9142 4.75 14.25 5.08579 14.25 5.5V9.11091C14.25 9.44243 14.1183 9.76038 13.8839 9.9948L9.76401 14.1147C9.47325 14.4054 9.00259 14.4079 8.70885 14.1201L7.18266 12.6251ZM8.75 5.5C8.05964 5.5 7.5 4.94036 7.5 4.25C7.5 3.55964 8.05964 3 8.75 3C9.44036 3 10 3.55964 10 4.25C10 4.94036 9.44036 5.5 8.75 5.5Z" fill="#18181B"/>
</svg>
