<svg width="16" height="16" viewBox="0 0 16 16" fill="none" xmlns="http://www.w3.org/2000/svg">
<path fill-rule="evenodd" clip-rule="evenodd" d="M15 8C15 4.13401 11.866 1 8 1C4.13401 1 0.999999 4.13401 0.999999 8C1 11.866 4.13401 15 8 15C11.866 15 15 11.866 15 8ZM9.2803 6.03033C9.57319 5.73744 9.57319 5.26256 9.2803 4.96967C8.98741 4.67678 8.51253 4.67678 8.21964 4.96967L5.71964 7.46967C5.57899 7.61032 5.49997 7.80109 5.49997 8C5.49997 8.19891 5.57899 8.38968 5.71964 8.53033L8.21964 11.0303C8.51253 11.3232 8.98741 11.3232 9.2803 11.0303C9.57319 10.7374 9.57319 10.2626 9.2803 9.96967L7.31063 8L9.2803 6.03033Z" fill="black"/>
</svg>
