<svg width="16" height="16" viewBox="0 0 16 16" fill="none" xmlns="http://www.w3.org/2000/svg">
<path fill-rule="evenodd" clip-rule="evenodd" d="M5.25434 8.52116L9.60891 5.86004C9.96235 5.64405 10.424 5.75547 10.64 6.10891C10.856 6.46235 10.7445 6.92397 10.3911 7.13996L6.58638 9.46506L9.77013 12.6488C9.99499 12.8737 10.3 13 10.618 13C11.1203 13 11.5694 12.6868 11.7431 12.2155L14.4355 4.90751C14.4782 4.79174 14.5 4.66932 14.5 4.54593C14.5 3.96828 14.0317 3.5 13.4541 3.5H13.3504C13.2495 3.5 13.149 3.51329 13.0516 3.53953L2.02287 6.50879C1.71438 6.59185 1.5 6.87158 1.5 7.19106C1.5 7.52786 1.73773 7.81784 2.06799 7.88389L5.25434 8.52116ZM1.77382 9.35476L5 10L8.70947 13.7095C9.21564 14.2156 9.90215 14.5 10.618 14.5C11.7488 14.5 12.7597 13.7951 13.1506 12.734L15.843 5.42607C15.9469 5.14425 16 4.84627 16 4.54593C16 3.13985 14.8601 2 13.4541 2H13.3504C13.1178 2 12.8862 2.03063 12.6616 2.0911L1.63291 5.06037C0.669497 5.31975 0 6.19334 0 7.19106C0 8.24288 0.742418 9.14848 1.77382 9.35476Z" fill="#18181B"/>
</svg>
