<svg width="16" height="16" viewBox="0 0 16 16" fill="none" xmlns="http://www.w3.org/2000/svg">
<path fill-rule="evenodd" clip-rule="evenodd" d="M6.37868 4.5L5.93934 4.06066L5.31802 3.43934C5.03672 3.15804 4.65518 3 4.25736 3H3C2.17157 3 1.5 3.67157 1.5 4.5V9.75L2.87609 7.45651C3.41826 6.5529 4.39478 6 5.44857 6H12.5C12.5 5.17157 11.8284 4.5 11 4.5H7H6.37868ZM14 6.02579V6C14 4.34315 12.6569 3 11 3H7L6.37868 2.37868C5.81607 1.81607 5.05301 1.5 4.25736 1.5H3C1.34315 1.5 0 2.84315 0 4.5V11C0 12.6569 1.34315 14 3 14H3.09928H10H11.3014C12.3552 14 13.3317 13.4471 13.8739 12.5435L15.6652 9.55798C15.8843 9.19287 16 8.77508 16 8.34929C16 7.1705 15.1318 6.19449 14 6.02579ZM10 12.5H11.3014C11.8283 12.5 12.3166 12.2236 12.5877 11.7717L14.379 8.78624L15.6652 9.55798L14.379 8.78624C14.4582 8.65425 14.5 8.50321 14.5 8.34929C14.5 7.88024 14.1198 7.5 13.6507 7.5H5.44857C4.92168 7.5 4.43342 7.77645 4.16233 8.22826L2.37103 11.2138C2.29183 11.3458 2.25 11.4968 2.25 11.6507C2.25 12.1198 2.63024 12.5 3.09928 12.5H10Z" fill="black"/>
</svg>
