<svg width="16" height="16" viewBox="0 0 16 16" fill="none" xmlns="http://www.w3.org/2000/svg">
<path fill-rule="evenodd" clip-rule="evenodd" d="M6.98824 11C6.16522 11.0064 5.5 11.6755 5.5 12.5C5.5 13.3284 6.17157 14 7 14C7.82843 14 8.5 13.3284 8.5 12.5C8.5 12.4961 8.49998 12.4921 8.49995 12.4882C8.49359 11.6652 7.82448 11 7 11C6.99608 11 6.99215 11 6.98824 11ZM9.99991 12.4762L10 12.5C10 14.1569 8.65685 15.5 7 15.5C5.34315 15.5 4 14.1569 4 12.5C4 11.3786 4.61531 10.4009 5.52674 9.88606L3.57226 2.55675C3.48471 2.22844 3.18737 2 2.84758 2H1.25C0.835786 2 0.5 1.66421 0.5 1.25C0.5 0.835786 0.835786 0.5 1.25 0.5H2.84758C3.86695 0.5 4.75896 1.18531 5.02161 2.17026L5.56408 4.20453C5.58708 4.18878 5.61042 4.17344 5.63408 4.1585C5.82119 4.04046 6.02902 3.94824 6.25396 3.88805L10.8556 2.65682C11.9067 2.37557 12.9831 2.88712 13.4502 3.82442C13.517 3.95832 13.5713 4.10091 13.6113 4.25111L14.8386 8.85779C15.1585 10.0584 14.4447 11.291 13.2442 11.6111L9.99991 12.4762ZM11.2433 4.10585C11.6437 3.99871 12.0551 4.23673 12.1619 4.63728L13.3892 9.24396C13.4958 9.64415 13.2579 10.055 12.8577 10.1617L9.61391 11.0267C9.09911 10.1153 8.12141 9.5 7 9.5L6.97638 9.50009L6.11085 6.25484C6.00418 5.85485 6.24177 5.44408 6.64167 5.33708L8.23609 4.91047L8.87753 7.20135C8.98922 7.60022 9.40335 7.83391 9.80222 7.72222C10.2011 7.61054 10.4339 7.19665 10.3222 6.79778L9.68521 4.52274L11.2433 4.10585Z" fill="#18181B"/>
</svg>
