<svg width="16" height="16" viewBox="0 0 16 16" fill="none" xmlns="http://www.w3.org/2000/svg">
<path fill-rule="evenodd" clip-rule="evenodd" d="M12.238 3.64072C12.1405 2.78701 11.463 2.10948 10.6093 2.01204L9.80992 2.8114C10.5263 3.14476 11.1052 3.72373 11.4386 4.44008L12.238 3.64072ZM4.74047 7.88085L8.60928 4.01204C9.46299 4.10948 10.1405 4.78701 10.238 5.64072L6.36915 9.50953C6.34152 9.53716 6.31289 9.56363 6.28335 9.58889C6.07656 9.76573 5.82492 9.88349 5.55509 9.92846L4.07483 10.1752L4.32154 8.69491C4.37294 8.38653 4.5194 8.10192 4.74047 7.88085ZM9.71939 0.780605L7.71939 2.7806L3.67981 6.82019C3.23768 7.26232 2.94474 7.83155 2.84195 8.44831L2.48016 10.619C2.36736 11.2959 2.95413 11.8826 3.63095 11.7698L5.80169 11.4081C6.41845 11.3053 6.98768 11.0123 7.42981 10.5702L11.4694 6.53061L13.4694 4.53061C13.6491 4.35094 13.75 4.10725 13.75 3.85316C13.75 2.00126 12.2487 0.5 10.3968 0.5C10.1427 0.5 9.89906 0.600937 9.71939 0.780605ZM2.75 13C2.33579 13 2 13.3358 2 13.75C2 14.1642 2.33579 14.5 2.75 14.5H13.25C13.6642 14.5 14 14.1642 14 13.75C14 13.3358 13.6642 13 13.25 13H2.75Z" fill="#18181B"/>
</svg>
