<svg width="16" height="16" viewBox="0 0 16 16" fill="none" xmlns="http://www.w3.org/2000/svg">
<path fill-rule="evenodd" clip-rule="evenodd" d="M2.75 2.5C2.33579 2.5 2 2.83579 2 3.25C2 3.66421 2.33579 4 2.75 4H13.25C13.6642 4 14 3.66421 14 3.25C14 2.83579 13.6642 2.5 13.25 2.5H2.75ZM4 8C4 7.58579 4.33579 7.25 4.75 7.25H15.25C15.6642 7.25 16 7.58579 16 8C16 8.41421 15.6642 8.75 15.25 8.75H4.75C4.33579 8.75 4 8.41421 4 8ZM0 12.75C0 12.3358 0.335786 12 0.75 12H11.25C11.6642 12 12 12.3358 12 12.75C12 13.1642 11.6642 13.5 11.25 13.5H0.75C0.335786 13.5 0 13.1642 0 12.75Z" fill="#18181B"/>
</svg>
