<svg width="16" height="16" viewBox="0 0 16 16" fill="none" xmlns="http://www.w3.org/2000/svg">
<path fill-rule="evenodd" clip-rule="evenodd" d="M7.29058 13.9036L5.25 10.75L2.09637 8.70942C1.41276 8.26708 1 7.50836 1 6.69413C1 5.67845 1.63925 4.77271 2.59623 4.43245L11.8688 1.13553C12.1211 1.04584 12.3868 1 12.6546 1C13.9499 1 15 2.05009 15 3.34544C15 3.61317 14.9542 3.87892 14.8645 4.13118L13.4511 3.62867C13.4835 3.53774 13.5 3.44195 13.5 3.34544C13.5 2.87852 13.1215 2.5 12.6546 2.5C12.5581 2.5 12.4623 2.51652 12.3713 2.54885L3.09875 5.84577C2.73978 5.9734 2.5 6.31315 2.5 6.69413C2.5 6.99955 2.65483 7.28414 2.91125 7.45006L5.69077 9.24857L8.96967 5.96967C9.26256 5.67678 9.73744 5.67678 10.0303 5.96967C10.3232 6.26256 10.3232 6.73744 10.0303 7.03033L6.75143 10.3092L8.54994 13.0888C8.71586 13.3452 9.00045 13.5 9.30587 13.5C9.68685 13.5 10.0266 13.2602 10.1542 12.9013L13.4511 3.62867L14.8645 4.13118L11.5675 13.4038C11.2273 14.3608 10.3215 15 9.30587 15C8.49164 15 7.73292 14.5872 7.29058 13.9036Z" fill="#18181B"/>
</svg>
