<svg width="16" height="16" viewBox="0 0 16 16" fill="none" xmlns="http://www.w3.org/2000/svg">
<path fill-rule="evenodd" clip-rule="evenodd" d="M11.0716 11.7489C12.4469 10.5386 13.5 8.91549 13.5 7C13.5 5.62422 13.0196 4.55006 12.1873 3.80536C11.3399 3.04711 9.97863 2.5 8 2.5C6.02137 2.5 4.66015 3.04711 3.81269 3.80536C2.98038 4.55006 2.5 5.62422 2.5 7C2.5 8.91549 3.55307 10.5386 4.92844 11.7489C5.60735 12.3464 6.32509 12.8052 6.93847 13.1086C7.24475 13.2601 7.50944 13.3651 7.7157 13.4295C7.88672 13.4829 7.97763 13.4959 7.99965 13.499L8 13.499L8.00035 13.499C8.02237 13.4959 8.11328 13.4829 8.2843 13.4295C8.49056 13.3651 8.75525 13.2601 9.06153 13.1086C9.67491 12.8052 10.3927 12.3464 11.0716 11.7489ZM8 15C9.5 15 15 12 15 7C15 3.5 12.5 1 8 1C3.5 1 1 3.5 1 7C1 12 6.5 15 8 15ZM9.25 10C8.83579 10 8.5 9.66421 8.5 9.25C8.5 8.40756 8.84472 7.697 9.42179 7.20871C9.98638 6.73098 10.7301 6.5 11.5 6.5C11.9142 6.5 12.25 6.83579 12.25 7.25C12.25 8.09244 11.9053 8.803 11.3282 9.29129C10.7636 9.76902 10.0199 10 9.25 10ZM7.5 9.25C7.5 9.66421 7.16421 10 6.75 10C5.98015 10 5.23638 9.76902 4.67179 9.29129C4.09472 8.803 3.75 8.09244 3.75 7.25C3.75 6.83579 4.08579 6.5 4.5 6.5C5.26985 6.5 6.01362 6.73098 6.57821 7.20871C7.15528 7.697 7.5 8.40756 7.5 9.25Z" fill="#18181B"/>
</svg>
