<svg width="16" height="16" viewBox="0 0 16 16" fill="none" xmlns="http://www.w3.org/2000/svg">
<path fill-rule="evenodd" clip-rule="evenodd" d="M10.6152 4.88752C11.4288 4.51289 11.5 4.17425 11.5 4C11.5 3.82575 11.4288 3.48711 10.6152 3.11248C9.79884 2.73654 8.53779 2.5 7 2.5C5.46221 2.5 4.20116 2.73654 3.38478 3.11248C2.57123 3.48711 2.5 3.82575 2.5 4C2.5 4.17425 2.57123 4.51289 3.38478 4.88752C4.20116 5.26346 5.46221 5.5 7 5.5C8.53779 5.5 9.79884 5.26346 10.6152 4.88752ZM7 7C8.1145 7 9.15803 6.88688 10.0523 6.66064L8.07213 9.56483C7.86226 9.87265 7.75 10.2366 7.75 10.6091V13C7.75 13.3034 7.63491 13.5216 7.44974 13.6836C7.24896 13.8593 6.92245 14 6.5 14C6.3912 14 6.30971 13.9909 6.25 13.9791V10.6091C6.25 10.2366 6.13774 9.87265 5.92787 9.56483L3.94774 6.66064C4.84197 6.88688 5.8855 7 7 7ZM13 4C13 2 10.3137 1 7 1C3.68629 1 1 2 1 4C1 4.65152 1.19631 5.28792 1.56334 5.82623L4.68852 10.4098C4.72858 10.4686 4.75 10.538 4.75 10.6091V14.5C4.75 14.5 5 15.5 6.5 15.5C8 15.5 9.25 14.5 9.25 13V10.6091C9.25 10.538 9.27142 10.4686 9.31148 10.4098L12.4367 5.82623C12.8037 5.28792 13 4.65152 13 4ZM6.12017 13.9364C6.11048 13.9308 6.10649 13.927 6.10691 13.9265C6.10733 13.926 6.11217 13.9289 6.12017 13.9364ZM13.25 11.6893L12.0303 10.4697C11.7374 10.1768 11.2626 10.1768 10.9697 10.4697C10.6768 10.7626 10.6768 11.2374 10.9697 11.5303L12.1893 12.75L10.9697 13.9697C10.6768 14.2626 10.6768 14.7374 10.9697 15.0303C11.2626 15.3232 11.7374 15.3232 12.0303 15.0303L13.25 13.8107L14.4697 15.0303C14.7626 15.3232 15.2374 15.3232 15.5303 15.0303C15.8232 14.7374 15.8232 14.2626 15.5303 13.9697L14.3107 12.75L15.5303 11.5303C15.8232 11.2374 15.8232 10.7626 15.5303 10.4697C15.2374 10.1768 14.7626 10.1768 14.4697 10.4697L13.25 11.6893Z" fill="#18181B"/>
</svg>
