<svg width="16" height="16" viewBox="0 0 16 16" fill="none" xmlns="http://www.w3.org/2000/svg">
<g clip-path="url(#clip0_2217_5157)">
<path fill-rule="evenodd" clip-rule="evenodd" d="M11.0912 2.31841C11.4732 2.60492 11.5826 3.10796 11.3972 3.51509C11.3596 3.59755 11.3099 3.67608 11.248 3.74808C11.2318 3.76696 11.2147 3.7854 11.1967 3.80334L11 4.00004C10.7239 4.27618 10.7239 4.72389 11 5.00004C11.2762 5.27618 11.7239 5.27618 12 5.00004L12.1967 4.80334C12.2147 4.7854 12.2331 4.76831 12.252 4.75207C12.324 4.69013 12.4025 4.64047 12.485 4.60291C12.8921 4.41748 13.3952 4.52687 13.6817 4.90887L14.9251 6.56681C15.5 7.33331 15.2854 8.42882 14.4638 8.92177C12.1896 10.2863 10.2863 12.1896 8.92177 14.4638C8.42882 15.2854 7.33331 15.5 6.56681 14.9251L4.90887 13.6817C4.52687 13.3952 4.41748 12.8921 4.60291 12.485C4.64047 12.4025 4.69013 12.324 4.75207 12.252C4.76831 12.2331 4.7854 12.2147 4.80334 12.1967L5.00004 12C5.27618 11.7239 5.27618 11.2762 5.00004 11C4.72389 10.7239 4.27618 10.7239 4.00004 11L3.80334 11.1967C3.7854 11.2147 3.76697 11.2318 3.74808 11.248C3.67608 11.3099 3.59755 11.3596 3.51509 11.3972C3.10796 11.5826 2.60492 11.4732 2.31841 11.0912L1.07496 9.43327C0.500085 8.66677 0.714683 7.57125 1.53627 7.0783C3.81045 5.71379 5.71379 3.81045 7.0783 1.53627C7.57125 0.714683 8.66677 0.500085 9.43327 1.07496L11.0912 2.31841ZM8.53327 2.27496L9.73413 3.1756C9.08396 4.04023 9.15238 5.2737 9.93938 6.0607C10.7264 6.84769 11.9598 6.91611 12.8245 6.26594L13.7251 7.46681C13.7663 7.52173 13.7509 7.60022 13.6921 7.63553C11.2068 9.12672 9.12672 11.2068 7.63554 13.6921C7.60022 13.7509 7.52173 13.7663 7.46681 13.7251L6.26595 12.8245C6.91611 11.9598 6.8477 10.7264 6.0607 9.93937C5.2737 9.15238 4.04023 9.08396 3.17561 9.73413L2.27496 8.53327C2.23377 8.47835 2.24915 8.39986 2.30801 8.36454C4.79332 6.87335 6.87335 4.79332 8.36454 2.30801C8.39986 2.24915 8.47835 2.23377 8.53327 2.27496ZM7.53037 6.46971C7.23747 6.17681 6.7626 6.17681 6.46971 6.46971C6.17681 6.7626 6.17681 7.23747 6.46971 7.53037L8.46971 9.53037C8.7626 9.82326 9.23747 9.82326 9.53037 9.53037C9.82326 9.23747 9.82326 8.7626 9.53037 8.46971L7.53037 6.46971Z" fill="#18181B"/>
</g>
<defs>
<clipPath id="clip0_2217_5157">
<rect width="16" height="16" fill="white"/>
</clipPath>
</defs>
</svg>
