<svg width="16" height="16" viewBox="0 0 16 16" fill="none" xmlns="http://www.w3.org/2000/svg">
<path fill-rule="evenodd" clip-rule="evenodd" d="M5.01938 11.4186L4.692 10H2.80834L2.48096 11.4186C2.38782 11.8223 1.98513 12.0739 1.58152 11.9808C1.17791 11.8877 0.926233 11.485 1.01937 11.0814L2.40695 5.06856C2.55129 4.44307 3.10826 4 3.75018 4C4.39211 4 4.94908 4.44308 5.09342 5.06857L6.48097 11.0814C6.5741 11.485 6.32242 11.8877 5.91881 11.9808C5.51521 12.0739 5.11252 11.8222 5.01938 11.4186ZM3.75018 5.91871L4.34586 8.5H3.1545L3.75018 5.91871ZM14.5002 4.75C14.5002 4.33579 14.1644 4 13.7502 4C13.336 4 13.0002 4.33579 13.0002 4.75V11.25C13.0002 11.6642 13.336 12 13.7502 12C14.1644 12 14.5002 11.6642 14.5002 11.25V4.75ZM8.25017 4C7.83595 4 7.50017 4.33579 7.50017 4.75V8.75V11.25C7.50017 11.6642 7.83595 12 8.25017 12C8.66438 12 9.00017 11.6642 9.00017 11.25V9.5H9.50017C11.0189 9.5 12.2502 8.26878 12.2502 6.75C12.2502 5.23122 11.0189 4 9.50017 4H8.25017ZM9.50017 8H9.00017V5.5H9.50017C10.1905 5.5 10.7502 6.05964 10.7502 6.75C10.7502 7.44036 10.1905 8 9.50017 8Z" fill="#18181B"/>
</svg>
