<svg width="16" height="16" viewBox="0 0 16 16" fill="none" xmlns="http://www.w3.org/2000/svg">
<path fill-rule="evenodd" clip-rule="evenodd" d="M12 3H4C3.17157 3 2.5 3.67157 2.5 4.5V8.5C2.5 9.32843 3.17157 10 4 10H12C12.8284 10 13.5 9.32843 13.5 8.5V4.5C13.5 3.67157 12.8284 3 12 3ZM4 1.5C2.34315 1.5 1 2.84315 1 4.5V8.5C1 10.1569 2.34315 11.5 4 11.5H7.25V13H4.75C4.33579 13 4 13.3358 4 13.75C4 14.1642 4.33579 14.5 4.75 14.5H11.25C11.6642 14.5 12 14.1642 12 13.75C12 13.3358 11.6642 13 11.25 13H8.75V11.5H12C13.6569 11.5 15 10.1569 15 8.5V4.5C15 2.84315 13.6569 1.5 12 1.5H4Z" fill="#18181B"/>
</svg>
