<svg width="16" height="16" viewBox="0 0 16 16" fill="none" xmlns="http://www.w3.org/2000/svg">
<path fill-rule="evenodd" clip-rule="evenodd" d="M8.75 1.75C8.75 1.33579 8.41421 1 8 1C7.58579 1 7.25 1.33579 7.25 1.75V7.25C7.25 7.66421 7.58579 8 8 8C8.41421 8 8.75 7.66421 8.75 7.25V1.75ZM4.92052 3.44218C5.2635 3.20994 5.35326 2.74362 5.12102 2.40065C4.88877 2.05767 4.42246 1.9679 4.07948 2.20015C2.22284 3.45737 1 5.58576 1 8C1 11.866 4.13401 15 8 15C11.866 15 15 11.866 15 8C15 5.58576 13.7772 3.45737 11.9205 2.20015C11.5775 1.9679 11.1112 2.05767 10.879 2.40065C10.6467 2.74362 10.7365 3.20994 11.0795 3.44218C12.5416 4.43227 13.5 6.10434 13.5 8C13.5 11.0376 11.0376 13.5 8 13.5C4.96243 13.5 2.5 11.0376 2.5 8C2.5 6.10434 3.45839 4.43227 4.92052 3.44218Z" fill="#18181B"/>
</svg>
