<svg width="16" height="16" viewBox="0 0 16 16" fill="none" xmlns="http://www.w3.org/2000/svg">
<path fill-rule="evenodd" clip-rule="evenodd" d="M13 7L13 9C13 9.55228 12.5523 10 12 10L4 10C3.44772 10 3 9.55228 3 9L3 7C3 6.44772 3.44772 6 4 6L12 6C12.5523 6 13 6.44772 13 7ZM12 4.5C13.3807 4.5 14.5 5.61929 14.5 7L14.5 9C14.5 10.3807 13.3807 11.5 12 11.5L8.74996 11.5L8.74996 14.25C8.74995 14.6642 8.41417 15 7.99995 15C7.58574 15 7.24995 14.6642 7.24996 14.25L7.24996 11.5L4 11.5C2.61929 11.5 1.5 10.3807 1.5 9L1.5 7C1.5 5.61929 2.61929 4.5 4 4.5L7.24996 4.5L7.24996 1.75C7.24996 1.33579 7.58574 1 7.99996 1C8.41417 1 8.74996 1.33579 8.74996 1.75L8.74996 4.5L12 4.5Z" fill="#18181B"/>
</svg>
