<svg width="16" height="16" viewBox="0 0 16 16" fill="none" xmlns="http://www.w3.org/2000/svg">
<path fill-rule="evenodd" clip-rule="evenodd" d="M3 2.75L3 8.5C3 11.2614 5.23858 13.5 8 13.5C10.7614 13.5 13 11.2614 13 8.5V2.75C13 2.61193 12.8881 2.5 12.75 2.5H11.25C11.1119 2.5 11 2.61193 11 2.75L11 8.5C11 10.1569 9.65686 11.5 8 11.5C6.34315 11.5 5 10.1569 5 8.5L5 2.75C5 2.61193 4.88807 2.5 4.75 2.5H3.25C3.11193 2.5 3 2.61193 3 2.75ZM1.5 8.5L1.5 2.75C1.5 1.7835 2.2835 1 3.25 1H4.75C5.7165 1 6.5 1.7835 6.5 2.75L6.5 8.5C6.5 9.32843 7.17157 10 8 10C8.82843 10 9.5 9.32843 9.5 8.5L9.5 2.75C9.5 1.7835 10.2835 1 11.25 1H12.75C13.7165 1 14.5 1.7835 14.5 2.75V8.5C14.5 12.0899 11.5898 15 8 15C4.41015 15 1.5 12.0899 1.5 8.5Z" fill="#18181B"/>
</svg>
