<svg width="16" height="16" viewBox="0 0 16 16" fill="none" xmlns="http://www.w3.org/2000/svg">
<path fill-rule="evenodd" clip-rule="evenodd" d="M11 13.5H5C4.17157 13.5 3.5 12.8284 3.5 12L3.5 4C3.5 3.17157 4.17157 2.5 5 2.5L7.75736 2.5C8.15518 2.5 8.53672 2.65804 8.81802 2.93934L12.0607 6.18198C12.342 6.46328 12.5 6.84482 12.5 7.24264V12C12.5 12.8284 11.8284 13.5 11 13.5ZM13.1213 5.12132C13.6839 5.68393 14 6.44699 14 7.24264L14 12C14 13.6569 12.6569 15 11 15H5C3.34315 15 2 13.6569 2 12V4C2 2.34315 3.34315 1 5 1H7.75736C8.55301 1 9.31607 1.31607 9.87868 1.87868L13.1213 5.12132ZM7.46967 11.7803C7.76256 12.0732 8.23744 12.0732 8.53033 11.7803C8.82322 11.4874 8.82322 11.0126 8.53033 10.7197L7.81066 10H10C10.4142 10 10.75 9.66421 10.75 9.25C10.75 8.83579 10.4142 8.5 10 8.5H7.81066L8.53033 7.78033C8.82322 7.48744 8.82322 7.01256 8.53033 6.71967C8.23744 6.42678 7.76256 6.42678 7.46967 6.71967L5.46967 8.71967C5.17678 9.01256 5.17678 9.48744 5.46967 9.78033L7.46967 11.7803Z" fill="#18181B"/>
</svg>
