<svg width="16" height="16" viewBox="0 0 16 16" fill="none" xmlns="http://www.w3.org/2000/svg">
<path d="M3 3.84838C3 3.37983 3.3731 3 3.83333 3C4.29357 3 4.66667 3.37983 4.66667 3.84838C4.66667 5.94514 4.6676 7.44431 4.79118 8.55261C4.91527 9.66533 5.14743 10.1978 5.45768 10.507C5.77163 10.8198 6.31547 11.0537 7.43929 11.1781C8.27633 11.2708 9.33398 11.2946 10.6978 11.3007L12.1667 11.3032L12.2521 11.3074C12.6722 11.3509 13 11.7124 13 12.1516C12.9998 12.5906 12.6721 12.9515 12.2521 12.995L12.1667 13L10.7018 12.9975C9.31914 12.9915 8.17935 12.9669 7.25863 12.865C6.03892 12.7299 5.01997 12.4448 4.29232 11.72C3.56096 10.9913 3.27222 9.96633 3.13591 8.74399C2.9991 7.51715 3 5.90285 3 3.84838Z" fill="#18181B"/>
</svg>
