<svg width="16" height="16" viewBox="0 0 16 16" fill="none" xmlns="http://www.w3.org/2000/svg">
<path fill-rule="evenodd" clip-rule="evenodd" d="M9 2.5H7C6.72386 2.5 6.5 2.72386 6.5 3V4H9.5V3C9.5 2.72386 9.27614 2.5 9 2.5ZM5 3V4H4C2.34315 4 1 5.34315 1 7V11C1 12.6569 2.34315 14 4 14H12C13.6569 14 15 12.6569 15 11V7C15 5.34315 13.6569 4 12 4H11V3C11 1.89543 10.1046 1 9 1H7C5.89543 1 5 1.89543 5 3ZM9.5 5.5H11H12C12.8284 5.5 13.5 6.17157 13.5 7V11C13.5 11.8284 12.8284 12.5 12 12.5H4C3.17157 12.5 2.5 11.8284 2.5 11V7C2.5 6.17157 3.17157 5.5 4 5.5H5H6.5H9.5ZM4.75 7C4.33579 7 4 7.33579 4 7.75C4 8.16421 4.33579 8.5 4.75 8.5H11.25C11.6642 8.5 12 8.16421 12 7.75C12 7.33579 11.6642 7 11.25 7H4.75Z" fill="#18181B"/>
</svg>
