<svg width="16" height="16" viewBox="0 0 16 16" fill="none" xmlns="http://www.w3.org/2000/svg">
<path fill-rule="evenodd" clip-rule="evenodd" d="M4.5 3H11.5C12.3284 3 13 3.67157 13 4.5V11.5C13 12.3284 12.3284 13 11.5 13H4.5C3.67157 13 3 12.3284 3 11.5V4.5C3 3.67157 3.67157 3 4.5 3ZM1.5 4.5C1.5 2.84315 2.84315 1.5 4.5 1.5H11.5C13.1569 1.5 14.5 2.84315 14.5 4.5V11.5C14.5 13.1569 13.1569 14.5 11.5 14.5H4.5C2.84315 14.5 1.5 13.1569 1.5 11.5V4.5ZM10.5001 6.65C11.1352 6.65 11.6501 6.13513 11.6501 5.5C11.6501 4.86487 11.1352 4.35 10.5001 4.35C9.86497 4.35 9.3501 4.86487 9.3501 5.5C9.3501 6.13513 9.86497 6.65 10.5001 6.65ZM9.1501 8C9.1501 8.63513 8.63523 9.15 8.0001 9.15C7.36497 9.15 6.8501 8.63513 6.8501 8C6.8501 7.36487 7.36497 6.85 8.0001 6.85C8.63523 6.85 9.1501 7.36487 9.1501 8ZM5.5001 11.65C6.13523 11.65 6.6501 11.1351 6.6501 10.5C6.6501 9.86487 6.13523 9.35 5.5001 9.35C4.86497 9.35 4.3501 9.86487 4.3501 10.5C4.3501 11.1351 4.86497 11.65 5.5001 11.65Z" fill="#18181B"/>
</svg>
