<svg width="16" height="16" viewBox="0 0 16 16" fill="none" xmlns="http://www.w3.org/2000/svg">
<path fill-rule="evenodd" clip-rule="evenodd" d="M11.5 3H4.5C3.67157 3 3 3.67157 3 4.5V11.5C3 12.3284 3.67157 13 4.5 13H11.5C12.3284 13 13 12.3284 13 11.5V4.5C13 3.67157 12.3284 3 11.5 3ZM4.5 1.5C2.84315 1.5 1.5 2.84315 1.5 4.5V11.5C1.5 13.1569 2.84315 14.5 4.5 14.5H11.5C13.1569 14.5 14.5 13.1569 14.5 11.5V4.5C14.5 2.84315 13.1569 1.5 11.5 1.5H4.5ZM11.1501 6C11.1501 6.63513 10.6352 7.15 10.0001 7.15C9.36497 7.15 8.8501 6.63513 8.8501 6C8.8501 5.36487 9.36497 4.85 10.0001 4.85C10.6352 4.85 11.1501 5.36487 11.1501 6ZM6.0001 11.15C6.63523 11.15 7.1501 10.6351 7.1501 10C7.1501 9.36487 6.63523 8.85 6.0001 8.85C5.36497 8.85 4.8501 9.36487 4.8501 10C4.8501 10.6351 5.36497 11.15 6.0001 11.15ZM11.1501 10C11.1501 10.6351 10.6352 11.15 10.0001 11.15C9.36497 11.15 8.8501 10.6351 8.8501 10C8.8501 9.36487 9.36497 8.85 10.0001 8.85C10.6352 8.85 11.1501 9.36487 11.1501 10ZM6.0001 7.15C6.63523 7.15 7.1501 6.63513 7.1501 6C7.1501 5.36487 6.63523 4.85 6.0001 4.85C5.36497 4.85 4.8501 5.36487 4.8501 6C4.8501 6.63513 5.36497 7.15 6.0001 7.15Z" fill="#18181B"/>
</svg>
