<svg width="16" height="16" viewBox="0 0 16 16" fill="none" xmlns="http://www.w3.org/2000/svg">
<path fill-rule="evenodd" clip-rule="evenodd" d="M1 12.75C1 13.1642 1.33579 13.5 1.75 13.5H14.25C14.6642 13.5 15 13.1642 15 12.75C15 12.3358 14.6642 12 14.25 12H1.75C1.33579 12 1 12.3358 1 12.75ZM3 8C3 8.41421 3.33579 8.75 3.75 8.75H12.25C12.6642 8.75 13 8.41421 13 8C13 7.58579 12.6642 7.25 12.25 7.25H3.75C3.33579 7.25 3 7.58579 3 8ZM6.75 4C6.33579 4 6 3.66421 6 3.25C6 2.83579 6.33579 2.5 6.75 2.5H9.25C9.66421 2.5 10 2.83579 10 3.25C10 3.66421 9.66421 4 9.25 4H6.75Z" fill="#18181B"/>
</svg>
