<svg width="16" height="16" viewBox="0 0 16 16" fill="none" xmlns="http://www.w3.org/2000/svg">
<path fill-rule="evenodd" clip-rule="evenodd" d="M13.7803 3.71967C14.0732 4.01256 14.0732 4.48744 13.7803 4.78033L10.7803 7.78033C10.4874 8.07322 10.0126 8.07322 9.71967 7.78033C9.42678 7.48744 9.42678 7.01256 9.71967 6.71967L11.4393 5L2.75 5C2.33578 5 2 4.66421 2 4.25C2 3.83579 2.33578 3.5 2.75 3.5L11.4393 3.5L9.71967 1.78033C9.42678 1.48744 9.42678 1.01256 9.71967 0.71967C10.0126 0.426777 10.4874 0.426777 10.7803 0.71967L13.7803 3.71967ZM2 11.75C2 11.5511 2.07901 11.3603 2.21967 11.2197L5.21967 8.21967C5.51256 7.92678 5.98744 7.92678 6.28033 8.21967C6.57322 8.51256 6.57322 8.98744 6.28033 9.28033L4.56066 11H13.25C13.6642 11 14 11.3358 14 11.75C14 12.1642 13.6642 12.5 13.25 12.5H4.56066L6.28033 14.2197C6.57322 14.5126 6.57322 14.9874 6.28033 15.2803C5.98744 15.5732 5.51256 15.5732 5.21967 15.2803L2.21967 12.2803C2.07901 12.1397 2 11.9489 2 11.75Z" fill="#18181B"/>
</svg>
