<svg width="16" height="16" viewBox="0 0 16 16" fill="none" xmlns="http://www.w3.org/2000/svg">
<path fill-rule="evenodd" clip-rule="evenodd" d="M0 1.75C0 1.33579 0.335786 1 0.75 1H1H2.5H5H6.5H6.75C7.16421 1 7.5 1.33579 7.5 1.75C7.5 2.16421 7.16421 2.5 6.75 2.5H6.5V4.75C6.5 5.02614 6.72386 5.25 7 5.25H9.25C12.4256 5.25 15 7.82436 15 11V13.5H15.25C15.6642 13.5 16 13.8358 16 14.25C16 14.6642 15.6642 15 15.25 15H15H13.5H11H9.5H9.25C8.83579 15 8.5 14.6642 8.5 14.25C8.5 13.8358 8.83579 13.5 9.25 13.5H9.5V11.25C9.5 10.9739 9.27614 10.75 9 10.75H6.75C3.57436 10.75 1 8.17564 1 5V2.5H0.75C0.335786 2.5 0 2.16421 0 1.75ZM11 13.5H13.5V11C13.5 8.65279 11.5972 6.75 9.25 6.75H8.75V9.25H9C10.1046 9.25 11 10.1454 11 11.25V13.5ZM2.5 2.5H5V4.75C5 5.85457 5.89543 6.75 7 6.75H7.25V9.25H6.75C4.40279 9.25 2.5 7.34721 2.5 5V2.5Z" fill="#18181B"/>
</svg>
