<svg width="16" height="16" viewBox="0 0 16 16" fill="none" xmlns="http://www.w3.org/2000/svg">
<path fill-rule="evenodd" clip-rule="evenodd" d="M3 4H13C13.8284 4 14.5 4.67157 14.5 5.5V10.5C14.5 11.3284 13.8284 12 13 12H3C2.17157 12 1.5 11.3284 1.5 10.5V5.5C1.5 4.67157 2.17157 4 3 4ZM0 5.5C0 3.84315 1.34315 2.5 3 2.5H13C14.6569 2.5 16 3.84315 16 5.5V10.5C16 12.1569 14.6569 13.5 13 13.5H3C1.34315 13.5 0 12.1569 0 10.5V5.5ZM6.25 8.75C5.83579 8.75 5.5 9.08579 5.5 9.5C5.5 9.91421 5.83579 10.25 6.25 10.25H9.75C10.1642 10.25 10.5 9.91421 10.5 9.5C10.5 9.08579 10.1642 8.75 9.75 8.75H6.25ZM4.5 6.5C4.5 7.05228 4.05228 7.5 3.5 7.5C2.94772 7.5 2.5 7.05228 2.5 6.5C2.5 5.94772 2.94772 5.5 3.5 5.5C4.05228 5.5 4.5 5.94772 4.5 6.5ZM6.5 7.5C7.05228 7.5 7.5 7.05228 7.5 6.5C7.5 5.94772 7.05228 5.5 6.5 5.5C5.94772 5.5 5.5 5.94772 5.5 6.5C5.5 7.05228 5.94772 7.5 6.5 7.5ZM10.5 6.5C10.5 7.05228 10.0523 7.5 9.5 7.5C8.94771 7.5 8.5 7.05228 8.5 6.5C8.5 5.94772 8.94771 5.5 9.5 5.5C10.0523 5.5 10.5 5.94772 10.5 6.5ZM12.5 7.5C13.0523 7.5 13.5 7.05228 13.5 6.5C13.5 5.94772 13.0523 5.5 12.5 5.5C11.9477 5.5 11.5 5.94772 11.5 6.5C11.5 7.05228 11.9477 7.5 12.5 7.5ZM4.5 9.5C4.5 10.0523 4.05228 10.5 3.5 10.5C2.94772 10.5 2.5 10.0523 2.5 9.5C2.5 8.94772 2.94772 8.5 3.5 8.5C4.05228 8.5 4.5 8.94772 4.5 9.5ZM12.5 10.5C13.0523 10.5 13.5 10.0523 13.5 9.5C13.5 8.94772 13.0523 8.5 12.5 8.5C11.9477 8.5 11.5 8.94772 11.5 9.5C11.5 10.0523 11.9477 10.5 12.5 10.5Z" fill="#18181B"/>
</svg>
