<svg width="16" height="16" viewBox="0 0 16 16" fill="none" xmlns="http://www.w3.org/2000/svg">
<path fill-rule="evenodd" clip-rule="evenodd" d="M13.5 4V5C13.5 5.55228 13.0523 6 12.5 6L3.5 6C2.94772 6 2.5 5.55229 2.5 5L2.5 4C2.5 3.44772 2.94772 3 3.5 3L12.5 3C13.0523 3 13.5 3.44771 13.5 4ZM15 5V4C15 2.61929 13.8807 1.5 12.5 1.5H3.5C2.11929 1.5 1 2.61929 1 4V5C1 6.38071 2.11929 7.5 3.5 7.5L12.5 7.5C13.8807 7.5 15 6.38071 15 5ZM13.5 11V12C13.5 12.5523 13.0523 13 12.5 13L3.5 13C2.94772 13 2.5 12.5523 2.5 12L2.5 11C2.5 10.4477 2.94772 10 3.5 10L12.5 10C13.0523 10 13.5 10.4477 13.5 11ZM15 12V11C15 9.61929 13.8807 8.5 12.5 8.5L3.5 8.5C2.11929 8.5 1 9.61929 1 11V12C1 13.3807 2.11929 14.5 3.5 14.5L12.5 14.5C13.8807 14.5 15 13.3807 15 12Z" fill="#18181B"/>
</svg>
