<svg width="16" height="16" viewBox="0 0 16 16" fill="none" xmlns="http://www.w3.org/2000/svg">
<path fill-rule="evenodd" clip-rule="evenodd" d="M12 3.5H8.75V7.25H13.5V5C13.5 4.17157 12.8284 3.5 12 3.5ZM13.5 8.75H8.75V12.5H12C12.8284 12.5 13.5 11.8284 13.5 11V8.75ZM7.25 7.25V3.5H4C3.17157 3.5 2.5 4.17157 2.5 5V7.25H7.25ZM2.5 8.75H7.25V12.5H4C3.17157 12.5 2.5 11.8284 2.5 11V8.75ZM4 2C2.34315 2 1 3.34315 1 5V11C1 12.6569 2.34315 14 4 14H12C13.6569 14 15 12.6569 15 11V5C15 3.34315 13.6569 2 12 2H4Z" fill="#18181B"/>
</svg>
