<svg width="16" height="16" viewBox="0 0 16 16" fill="none" xmlns="http://www.w3.org/2000/svg">
<g clip-path="url(#clip0_2217_5574)">
<path fill-rule="evenodd" clip-rule="evenodd" d="M3 12.5H7.5C8.05228 12.5 8.5 12.0523 8.5 11.5V4.5C8.5 3.94772 8.05228 3.5 7.5 3.5H3C2.44772 3.5 2 3.94772 2 4.5V11.5C2 12.0523 2.44772 12.5 3 12.5ZM7.5 14H3C1.61929 14 0.5 12.8807 0.5 11.5V4.5C0.5 3.11929 1.61929 2 3 2H7.5C8.88071 2 10 3.11929 10 4.5V11.5C10 12.8807 8.88071 14 7.5 14ZM13 12.5H13.5C13.7761 12.5 14 12.2761 14 12V4C14 3.72386 13.7761 3.5 13.5 3.5H13C12.7239 3.5 12.5 3.72386 12.5 4V12C12.5 12.2761 12.7239 12.5 13 12.5ZM13.5 14H13C11.8954 14 11 13.1046 11 12V4C11 2.89543 11.8954 2 13 2H13.5C14.6046 2 15.5 2.89543 15.5 4V12C15.5 13.1046 14.6046 14 13.5 14Z" fill="#18181B"/>
</g>
<defs>
<clipPath id="clip0_2217_5574">
<rect width="16" height="16" fill="white"/>
</clipPath>
</defs>
</svg>
