<svg width="16" height="16" viewBox="0 0 16 16" fill="none" xmlns="http://www.w3.org/2000/svg">
<path fill-rule="evenodd" clip-rule="evenodd" d="M10 2.75C10 2.33579 9.66421 2 9.25 2C8.83579 2 8.5 2.33579 8.5 2.75V7.75001V10.2561C8.5 10.6703 8.83579 11.0061 9.25 11.0061C9.51926 11.0061 9.75538 10.8642 9.88767 10.6511C10.2672 10.8743 10.7223 11 11.25 11C13.0449 11 14 9.54494 14 7.75001C14 5.95508 13.0449 4.50001 11.25 4.50001C10.7734 4.50001 10.356 4.6026 10 4.7869V2.75ZM10 7.75001C10 8.40002 10.1747 8.85891 10.3804 9.1201C10.5542 9.34081 10.8043 9.50001 11.25 9.50001C11.6957 9.50001 11.9458 9.34081 12.1196 9.1201C12.3253 8.85891 12.5 8.40002 12.5 7.75001C12.5 7.1 12.3253 6.64111 12.1196 6.37992C11.9458 6.15921 11.6957 6.00001 11.25 6.00001C10.8043 6.00001 10.5542 6.15921 10.3804 6.37992C10.1747 6.64111 10 7.1 10 7.75001ZM3.57924 6.33893C3.76316 6.229 3.87227 6.1653 4.01176 6.11702C4.14357 6.07139 4.33297 6.03052 4.64569 6.03052C5.09325 6.03052 5.38935 6.17355 5.5843 6.39635C5.70436 6.53355 5.81484 6.73423 5.88628 7.0183H4.57657C3.31442 7.0183 2.24398 7.86688 2.25003 9.01615C2.25254 9.49372 2.41832 10.0041 2.81114 10.3974C3.21053 10.7973 3.7741 11.0061 4.43837 11.0061C4.96853 11.0061 5.52932 10.8468 6.02243 10.535C6.13311 10.8111 6.40321 11.0061 6.71886 11.0061C7.13307 11.0061 7.46886 10.6703 7.46886 10.2561V7.76832C7.46886 6.82229 7.23236 6.00195 6.71317 5.40859C6.18251 4.80212 5.44203 4.53052 4.64569 4.53052C4.19372 4.53052 3.83498 4.59088 3.5211 4.69954C3.22799 4.801 3.00091 4.93692 2.832 5.03803L2.8097 5.05137C2.45415 5.26387 2.33818 5.72437 2.55069 6.07992C2.76319 6.43547 3.22369 6.55143 3.57924 6.33893ZM3.75 9.00826C3.74951 8.91364 3.90376 8.5183 4.57657 8.5183H5.83501C5.56661 9.19604 4.94496 9.50611 4.43837 9.50611C4.09291 9.50611 3.93895 9.40398 3.87241 9.33736C3.7993 9.26417 3.75076 9.15265 3.75 9.00826ZM0 11.75C0 12.9926 1.00736 14 2.25 14H13.75C14.9926 14 16 12.9926 16 11.75V10.75C16 10.3358 15.6642 10 15.25 10C14.8358 10 14.5 10.3358 14.5 10.75V11.75C14.5 12.1642 14.1642 12.5 13.75 12.5H2.25C1.83579 12.5 1.5 12.1642 1.5 11.75V10.75C1.5 10.3358 1.16421 10 0.75 10C0.335786 10 0 10.3358 0 10.75V11.75Z" fill="black"/>
</svg>
