<svg width="16" height="16" viewBox="0 0 16 16" fill="none" xmlns="http://www.w3.org/2000/svg">
<path fill-rule="evenodd" clip-rule="evenodd" d="M4.06236 2C4.51606 2 4.93757 2.23433 5.17703 2.61968L8 7.16238L10.823 2.61968C11.0624 2.23433 11.4839 2 11.9376 2C12.6624 2 13.25 2.58757 13.25 3.31236V13.25C13.25 13.6642 12.9142 14 12.5 14C12.0858 14 11.75 13.6642 11.75 13.25V3.9698L8.63702 8.9792C8.50017 9.19942 8.25928 9.33333 8 9.33333C7.74072 9.33333 7.49983 9.19942 7.36298 8.9792L4.25 3.9698V13.25C4.25 13.6642 3.91421 14 3.5 14C3.08579 14 2.75 13.6642 2.75 13.25V3.31236C2.75 2.58757 3.33757 2 4.06236 2Z" fill="#18181B"/>
</svg>
