<svg width="16" height="16" viewBox="0 0 16 16" fill="none" xmlns="http://www.w3.org/2000/svg">
<path fill-rule="evenodd" clip-rule="evenodd" d="M2.5 5C3.19036 5 3.75 4.44036 3.75 3.75C3.75 3.05964 3.19036 2.5 2.5 2.5C1.80964 2.5 1.25 3.05964 1.25 3.75C1.25 4.44036 1.80964 5 2.5 5ZM5.75 3C5.33579 3 5 3.33579 5 3.75C5 4.16421 5.33579 4.5 5.75 4.5H14.25C14.6642 4.5 15 4.16421 15 3.75C15 3.33579 14.6642 3 14.25 3H5.75ZM5.75 11.5C5.33579 11.5 5 11.8358 5 12.25C5 12.6642 5.33579 13 5.75 13H14.25C14.6642 13 15 12.6642 15 12.25C15 11.8358 14.6642 11.5 14.25 11.5H5.75ZM5 8C5 7.58579 5.33579 7.25 5.75 7.25H14.25C14.6642 7.25 15 7.58579 15 8C15 8.41421 14.6642 8.75 14.25 8.75H5.75C5.33579 8.75 5 8.41421 5 8ZM3.75 8C3.75 8.69036 3.19036 9.25 2.5 9.25C1.80964 9.25 1.25 8.69036 1.25 8C1.25 7.30964 1.80964 6.75 2.5 6.75C3.19036 6.75 3.75 7.30964 3.75 8ZM2.5 13.5C3.19036 13.5 3.75 12.9404 3.75 12.25C3.75 11.5596 3.19036 11 2.5 11C1.80964 11 1.25 11.5596 1.25 12.25C1.25 12.9404 1.80964 13.5 2.5 13.5Z" fill="#18181B"/>
</svg>
