<svg width="16" height="16" viewBox="0 0 16 16" fill="none" xmlns="http://www.w3.org/2000/svg">
<path fill-rule="evenodd" clip-rule="evenodd" d="M3.21075 2.5C3.21075 2.31138 3.10461 2.13882 2.93626 2.05375C2.76792 1.96867 2.56602 1.98558 2.41417 2.09746L1.70323 2.62125C1.48091 2.78505 1.43347 3.09806 1.59727 3.32037C1.74093 3.51537 1.99938 3.57583 2.21075 3.47723V5C2.21075 5.27614 2.43461 5.5 2.71075 5.5C2.98689 5.5 3.21075 5.27614 3.21075 5V2.5ZM5.75 3.00001C5.33578 3.00001 5 3.3358 5 3.75001C5 4.16422 5.33578 4.50001 5.75 4.50001L14.25 4.50001C14.6642 4.50001 15 4.16422 15 3.75001C15 3.3358 14.6642 3.00001 14.25 3.00001H5.75ZM5.75 11.5C5.33578 11.5 5 11.8358 5 12.25C5 12.6642 5.33578 13 5.75 13H14.25C14.6642 13 15 12.6642 15 12.25C15 11.8358 14.6642 11.5 14.25 11.5H5.75ZM5 8.00001C5 7.5858 5.33578 7.25001 5.75 7.25001H14.25C14.6642 7.25001 15 7.5858 15 8.00001C15 8.41422 14.6642 8.75001 14.25 8.75001H5.75C5.33578 8.75001 5 8.41422 5 8.00001ZM2.40444 7.33055C2.33416 7.381 2.31731 7.42688 2.31447 7.44582C2.2734 7.71889 2.01875 7.90697 1.74568 7.86591C1.4726 7.82485 1.28452 7.5702 1.32558 7.29712C1.37742 6.95236 1.58538 6.68751 1.82134 6.51815C2.0569 6.34908 2.35217 6.25 2.65009 6.25C2.99562 6.25 3.31697 6.3585 3.55333 6.59304C3.78864 6.82653 3.89039 7.1362 3.89039 7.44386C3.89039 7.9522 3.56871 8.29835 3.1295 8.72061C3.12294 8.72692 3.11621 8.73305 3.10931 8.73899L3.09653 8.75H3.59008C3.86622 8.75 4.09008 8.97386 4.09008 9.25C4.09008 9.52614 3.86622 9.75 3.59008 9.75H1.75002C1.54101 9.75 1.35405 9.61999 1.2813 9.42405C1.20854 9.22811 1.26533 9.00759 1.42369 8.87118L2.44618 7.99036C2.66937 7.77528 2.78376 7.64745 2.84442 7.5571C2.8905 7.48846 2.89045 7.46488 2.8904 7.44568L2.89039 7.44386C2.89039 7.35426 2.86321 7.31701 2.84897 7.30288C2.83579 7.2898 2.78699 7.25 2.65009 7.25C2.56756 7.25 2.47513 7.27981 2.40444 7.33055ZM1.90002 10.5C1.62388 10.5 1.40002 10.7239 1.40002 11C1.40002 11.2761 1.62388 11.5 1.90002 11.5H2.27977L2.12987 11.6792C2.00527 11.8281 1.97816 12.0357 2.06035 12.2116C2.14254 12.3876 2.31917 12.5 2.51335 12.5C2.77204 12.5 2.87761 12.5773 2.92046 12.6224C2.97127 12.6759 3.00002 12.7546 3.00002 12.8404C3.00002 12.8463 2.9995 12.8483 2.99615 12.8538C2.99105 12.862 2.97576 12.8817 2.93906 12.9058C2.86141 12.9568 2.72802 13 2.56804 13C2.453 13 2.36603 12.9733 2.30951 12.9426C2.25138 12.9111 2.23543 12.8817 2.23398 12.8786C2.11907 12.6275 1.82236 12.5171 1.57126 12.632C1.32016 12.7469 1.20976 13.0436 1.32466 13.2947C1.53711 13.7589 2.05153 14 2.56804 14C2.88658 14 3.21918 13.9182 3.48789 13.7418C3.76331 13.5609 4.00002 13.2551 4.00002 12.8404C4.00002 12.547 3.90378 12.2055 3.64542 11.9336C3.57059 11.8548 3.48617 11.7861 3.39286 11.728L3.7335 11.3208C3.85811 11.1719 3.88522 10.9643 3.80303 10.7884C3.72083 10.6124 3.54421 10.5 3.35002 10.5H1.90002Z" fill="#18181B"/>
</svg>
