<svg width="16" height="16" viewBox="0 0 16 16" fill="none" xmlns="http://www.w3.org/2000/svg">
<path fill-rule="evenodd" clip-rule="evenodd" d="M5.28033 2.21967C5.57322 2.51256 5.57322 2.98744 5.28033 3.28033L3.28033 5.28033C2.98744 5.57322 2.51256 5.57322 2.21967 5.28033L1.21967 4.28033C0.926777 3.98744 0.926777 3.51256 1.21967 3.21967C1.51256 2.92678 1.98744 2.92678 2.28033 3.21967L2.75 3.68934L4.21967 2.21967C4.51256 1.92678 4.98744 1.92678 5.28033 2.21967ZM7.25 3H14.25C14.6642 3 15 3.33579 15 3.75C15 4.16421 14.6642 4.5 14.25 4.5H7.25C6.83579 4.5 6.5 4.16421 6.5 3.75C6.5 3.33579 6.83579 3 7.25 3ZM5.28033 7.28033C5.57322 6.98744 5.57322 6.51256 5.28033 6.21967C4.98744 5.92678 4.51256 5.92678 4.21967 6.21967L2.75 7.68934L2.28033 7.21967C1.98744 6.92678 1.51256 6.92678 1.21967 7.21967C0.926777 7.51256 0.926777 7.98744 1.21967 8.28033L2.21967 9.28033C2.51256 9.57322 2.98744 9.57322 3.28033 9.28033L5.28033 7.28033ZM5.28033 10.4697C5.57322 10.7626 5.57322 11.2374 5.28033 11.5303L3.28033 13.5303C2.98744 13.8232 2.51256 13.8232 2.21967 13.5303L1.21967 12.5303C0.926777 12.2374 0.926777 11.7626 1.21967 11.4697C1.51256 11.1768 1.98744 11.1768 2.28033 11.4697L2.75 11.9393L4.21967 10.4697C4.51256 10.1768 4.98744 10.1768 5.28033 10.4697ZM8.4 9H8.5C8.5 7.61929 9.61929 6.5 11 6.5C12.3807 6.5 13.5 7.61929 13.5 9H13.6C14.3732 9 15 9.6268 15 10.4V12.6C15 13.3732 14.3732 14 13.6 14H8.4C7.6268 14 7 13.3732 7 12.6V10.4C7 9.6268 7.6268 9 8.4 9ZM11 8C11.5523 8 12 8.44772 12 9H10C10 8.44772 10.4477 8 11 8ZM8.5 10.5V12.5H13.5V10.5H8.5Z" fill="#18181B"/>
</svg>
