<svg width="16" height="16" viewBox="0 0 16 16" fill="none" xmlns="http://www.w3.org/2000/svg">
<g clip-path="url(#clip0_7896_5008)">
<path d="M12.8469 3.55335C11.9602 3.14002 11.0002 2.84002 10.0002 2.66669C9.98266 2.66694 9.96588 2.67413 9.95357 2.68669C9.83357 2.90669 9.69357 3.19335 9.60024 3.41335C8.53957 3.25345 7.46092 3.25345 6.40024 3.41335C6.30691 3.18669 6.16691 2.90669 6.04024 2.68669C6.03357 2.67335 6.01357 2.66669 5.99357 2.66669C4.99357 2.84002 4.04024 3.14002 3.14691 3.55335C3.14024 3.55335 3.13357 3.56002 3.12691 3.56669C1.31357 6.28002 0.813574 8.92002 1.06024 11.5334C1.06024 11.5467 1.06691 11.56 1.08024 11.5667C2.28024 12.4467 3.43357 12.98 4.57357 13.3334C4.59357 13.34 4.61357 13.3334 4.62024 13.32C4.88691 12.9534 5.12691 12.5667 5.33357 12.16C5.34691 12.1334 5.33357 12.1067 5.30691 12.1C4.92691 11.9534 4.56691 11.78 4.21357 11.58C4.18691 11.5667 4.18691 11.5267 4.20691 11.5067C4.28024 11.4534 4.35357 11.3934 4.42691 11.34C4.44024 11.3267 4.46024 11.3267 4.47357 11.3334C6.76691 12.38 9.24024 12.38 11.5069 11.3334C11.5202 11.3267 11.5402 11.3267 11.5536 11.34C11.6269 11.4 11.7002 11.4534 11.7736 11.5134C11.8002 11.5334 11.8002 11.5734 11.7669 11.5867C11.4202 11.7934 11.0536 11.96 10.6736 12.1067C10.6469 12.1134 10.6402 12.1467 10.6469 12.1667C10.8602 12.5734 11.1002 12.96 11.3602 13.3267C11.3802 13.3334 11.4002 13.34 11.4202 13.3334C12.5669 12.98 13.7202 12.4467 14.9202 11.5667C14.9336 11.56 14.9402 11.5467 14.9402 11.5334C15.2336 8.51335 14.4536 5.89335 12.8736 3.56669C12.8669 3.56002 12.8602 3.55335 12.8469 3.55335ZM5.68024 9.94002C4.99357 9.94002 4.42024 9.30669 4.42024 8.52669C4.42024 7.74669 4.98024 7.11335 5.68024 7.11335C6.38691 7.11335 6.94691 7.75335 6.94024 8.52669C6.94024 9.30669 6.38024 9.94002 5.68024 9.94002ZM10.3269 9.94002C9.64024 9.94002 9.06691 9.30669 9.06691 8.52669C9.06691 7.74669 9.62691 7.11335 10.3269 7.11335C11.0336 7.11335 11.5936 7.75335 11.5869 8.52669C11.5869 9.30669 11.0336 9.94002 10.3269 9.94002Z" fill="#18181B"/>
</g>
<defs>
<clipPath id="clip0_7896_5008">
<rect width="16" height="16" fill="white"/>
</clipPath>
</defs>
</svg>
