<svg width="16" height="16" viewBox="0 0 16 16" fill="none" xmlns="http://www.w3.org/2000/svg">
<g clip-path="url(#clip0_7483_818)">
<path d="M2.42456 2.2893L8.25122 8.0033L2.46789 13.77C2.37327 13.6468 2.29982 13.5086 2.25056 13.3613C2.22508 13.1945 2.22508 13.0248 2.25056 12.858V3.04464C2.23322 2.7813 2.29389 2.51797 2.42389 2.2893M10.7612 5.5113L8.85922 7.3953L3.10189 1.7333C3.28856 1.66864 3.48856 1.65064 3.68389 1.6813C3.99056 1.7653 4.28322 1.89464 4.55189 2.0633L9.76256 4.94664C10.1012 5.12864 10.4312 5.31997 10.7612 5.5113ZM8.85989 8.61997L10.7526 10.4786L9.38056 11.2426L5.19456 13.5693C4.84789 13.7606 4.49989 13.9433 4.16122 14.152C4.01631 14.2422 3.85381 14.3005 3.68459 14.3229C3.51536 14.3453 3.3433 14.3313 3.17989 14.282L8.85989 8.61997ZM13.7666 8.0033C13.7714 8.23642 13.7125 8.46644 13.5962 8.66852C13.4799 8.87061 13.3106 9.03708 13.1066 9.14997L11.5426 10.018L9.48456 8.0033L11.5512 5.95397C12.0812 6.2493 12.6026 6.54464 13.1232 6.82264C13.3309 6.9387 13.5014 7.11117 13.6152 7.32011C13.7289 7.52905 13.7818 7.76591 13.7666 8.0033Z" fill="#18181B"/>
</g>
<defs>
<clipPath id="clip0_7483_818">
<rect width="16" height="16" fill="white"/>
</clipPath>
</defs>
</svg>
