<svg width="16" height="16" viewBox="0 0 16 16" fill="none" xmlns="http://www.w3.org/2000/svg">
<path fill-rule="evenodd" clip-rule="evenodd" d="M4 5.5L4.5 5.5L5.5 5.5L7.75232 5.5C8.16653 5.5 8.50232 5.16421 8.50232 4.75C8.50232 4.33579 8.16653 4 7.75232 4L5.5 4C5.5 3.17157 6.17157 2.5 7 2.5H9C9.82843 2.5 10.5 3.17157 10.5 4V4.49879L10.5 4.5L10.5 5.5L10.5 6C10.5 6.69036 9.94036 7.25 9.25 7.25H6.75C5.23122 7.25 4 8.48122 4 10L4 10.5C3.17157 10.5 2.5 9.82843 2.5 9V7C2.5 6.17157 3.17157 5.5 4 5.5ZM5.5 10.5V12C5.5 12.8284 6.17157 13.5 7 13.5H9C9.82843 13.5 10.5 12.8284 10.5 12H8.25C7.83579 12 7.5 11.6642 7.5 11.25C7.5 10.8358 7.83579 10.5 8.25 10.5H10.5H11.5023H12C12.8284 10.5 13.5 9.82843 13.5 9V7C13.5 6.17157 12.8284 5.5 12 5.5L12 6C12 7.51878 10.7688 8.75 9.25 8.75H6.75C6.05964 8.75 5.5 9.30964 5.5 10L5.5 10.5ZM7 1C5.34315 1 4 2.34315 4 4C2.34315 4 1 5.34315 1 7V9C1 10.6569 2.34315 12 4 12C4 13.6569 5.34315 15 7 15H9C10.6569 15 12 13.6569 12 12C13.6569 12 15 10.6569 15 9V7C15 5.34315 13.6569 4 12 4C12 2.34315 10.6569 1 9 1H7Z" fill="#18181B"/>
</svg>
