<svg width="16" height="16" viewBox="0 0 16 16" fill="none" xmlns="http://www.w3.org/2000/svg">
<g clip-path="url(#clip0_6249_782)">
<path fill-rule="evenodd" clip-rule="evenodd" d="M7.99893 0.382812C3.78941 0.382812 0.379885 3.79234 0.379885 8.00186C0.378559 9.60142 0.881197 11.1607 1.81643 12.4584C2.75165 13.7561 4.07194 14.7261 5.58979 15.2308C5.97074 15.2971 6.11322 15.0685 6.11322 14.8681C6.11322 14.6876 6.10331 14.088 6.10331 13.4495C4.18941 13.8022 3.69417 12.9832 3.54179 12.5542C3.45569 12.3348 3.08465 11.659 2.76084 11.4777C2.49417 11.3352 2.11322 10.9824 2.75093 10.9733C3.35131 10.9634 3.7795 11.5257 3.92274 11.7542C4.60846 12.9062 5.70408 12.5824 6.14141 12.3828C6.20846 11.8876 6.40808 11.5546 6.6275 11.3641C4.93227 11.1737 3.16084 10.5161 3.16084 7.60186C3.16084 6.77291 3.4557 6.08796 3.94179 5.55462C3.8656 5.36415 3.59893 4.58319 4.01798 3.53557C4.01798 3.53557 4.65569 3.33519 6.11322 4.31577C6.73353 4.14406 7.37435 4.05768 8.01798 4.059C8.6656 4.059 9.31322 4.14434 9.92274 4.31577C11.3795 3.32529 12.018 3.53557 12.018 3.53557C12.437 4.58319 12.1704 5.36415 12.0942 5.55462C12.5795 6.08796 12.8751 6.76377 12.8751 7.60186C12.8751 10.5261 11.0946 11.1737 9.39931 11.3641C9.67512 11.6019 9.9136 12.059 9.9136 12.7737C9.9136 13.7923 9.9037 14.6114 9.9037 14.8689C9.9037 15.0685 10.0469 15.3062 10.4279 15.2301C11.94 14.719 13.254 13.7469 14.185 12.4503C15.1159 11.1538 15.6171 9.59803 15.618 8.00186C15.618 3.79234 12.2085 0.382812 7.99893 0.382812Z" fill="#18181B"/>
</g>
<defs>
<clipPath id="clip0_6249_782">
<rect width="16" height="16" fill="white"/>
</clipPath>
</defs>
</svg>
