<svg width="16" height="16" viewBox="0 0 16 16" fill="none" xmlns="http://www.w3.org/2000/svg">
<path fill-rule="evenodd" clip-rule="evenodd" d="M2.5 8C2.5 4.96525 4.95787 2.50457 7.99155 2.50001C9.30981 2.53219 9.8714 3.29649 10.0116 3.98087C10.0394 4.11733 10.0318 4.36892 9.98516 4.69309C9.97207 4.78404 9.95758 4.8709 9.94268 4.95312L8.1843 5.26086L8.18285 5.26111C7.34518 5.40493 6.6464 5.69302 6.11489 6.19352C5.57961 6.69757 5.28648 7.34863 5.13533 8.08068L4.69101 10.2275C4.68775 10.2415 4.6849 10.2557 4.68245 10.27C4.67725 10.2961 4.67045 10.329 4.66251 10.3675C4.6276 10.5364 4.57054 10.8125 4.53014 11.0932C4.4834 11.418 4.4406 11.8562 4.50546 12.2473C3.28082 11.2386 2.5 9.71048 2.5 8ZM8.00141 15C11.8668 14.9992 15 11.8655 15 8C15 4.13498 11.8676 1.00158 8.00292 1L8 1H7.99709C4.13244 1.00157 1 4.13498 1 8C1 11.8653 4.13292 14.9989 7.99798 15C7.99912 15 8.00027 15 8.00141 15ZM8.00847 13.5C6.6902 13.4678 6.1286 12.7035 5.9884 12.0191C5.96055 11.8827 5.96818 11.6311 6.01484 11.3069C6.02793 11.216 6.04242 11.1291 6.05732 11.0469L7.8157 10.7391L7.81715 10.7389C8.65482 10.5951 9.3536 10.307 9.88511 9.80648C10.4204 9.30243 10.7135 8.65137 10.8647 7.91932L11.309 5.77254C11.3122 5.75847 11.3151 5.74427 11.3176 5.72996C11.3227 5.70389 11.3295 5.6711 11.3374 5.63279C11.3723 5.46385 11.4295 5.1875 11.4699 4.90678C11.5166 4.58205 11.5594 4.14385 11.4945 3.75266C12.7192 4.76141 13.5 6.28952 13.5 8C13.5 11.0347 11.0421 13.4954 8.00847 13.5ZM9.61993 6.5324L8.44034 6.73884L8.43779 6.73929C7.78556 6.85112 7.39431 7.04911 7.1432 7.28557C6.89556 7.51876 6.71335 7.85605 6.60434 8.384L6.38007 9.4676L7.55966 9.26116L7.56221 9.26071C8.21444 9.14888 8.60569 8.95089 8.8568 8.71443C9.10444 8.48124 9.28665 8.14395 9.39566 7.616L9.61993 6.5324Z" fill="#18181B"/>
</svg>
