<svg width="16" height="16" viewBox="0 0 16 16" fill="none" xmlns="http://www.w3.org/2000/svg">
<path fill-rule="evenodd" clip-rule="evenodd" d="M11.7879 2.9741L8.75 3.40809V7.25H13.5V4.45903C13.5 3.5462 12.6915 2.84501 11.7879 2.9741ZM13.5 8.75H8.75V12.5919L11.7879 13.0259C12.6915 13.155 13.5 12.4538 13.5 11.541V8.75ZM7.25 7.25V3.62237L3.78787 4.11696C3.04889 4.22253 2.5 4.85541 2.5 5.60189V7.25H7.25ZM2.5 8.75H7.25V12.3776L3.78786 11.883C3.04889 11.7775 2.5 11.1446 2.5 10.3981V8.75ZM3.57574 2.63204C2.09779 2.84317 1 4.10894 1 5.60189V10.3981C1 11.8911 2.09779 13.1568 3.57573 13.368L11.5757 14.5108C13.383 14.769 15 13.3666 15 11.541V4.45903C15 2.63338 13.383 1.231 11.5757 1.48918L3.57574 2.63204Z" fill="#18181B"/>
</svg>
