<svg width="16" height="16" viewBox="0 0 16 16" fill="none" xmlns="http://www.w3.org/2000/svg">
<g clip-path="url(#clip0_3045_13483)">
<path d="M11.3666 13.52C10.7133 14.1533 9.99995 14.0533 9.31328 13.7533C8.58661 13.4467 7.91995 13.4333 7.15328 13.7533C6.19328 14.1667 5.68661 14.0467 5.11328 13.52C1.85995 10.1667 2.33995 5.06 6.03328 4.87333C6.93328 4.92 7.55995 5.36667 8.08661 5.40667C8.87328 5.24667 9.62661 4.78667 10.4666 4.84667C11.4733 4.92667 12.2333 5.32667 12.7333 6.04667C10.6533 7.29333 11.1466 10.0333 13.0533 10.8C12.6733 11.8 12.1799 12.7933 11.3599 13.5267L11.3666 13.52ZM8.01995 4.83333C7.91995 3.34667 9.12661 2.12 10.5133 2C10.7066 3.72 8.95328 5 8.01995 4.83333Z" fill="#18181B"/>
</g>
<defs>
<clipPath id="clip0_3045_13483">
<rect width="16" height="16" fill="white"/>
</clipPath>
</defs>
</svg>
