<svg width="16" height="16" viewBox="0 0 16 16" fill="none" xmlns="http://www.w3.org/2000/svg">
<path fill-rule="evenodd" clip-rule="evenodd" d="M13.0337 3.90226C13.5986 3.68712 14 3.14043 14 2.5C14 1.67157 13.3284 1 12.5 1C11.6716 1 11 1.67157 11 2.5C11 2.53659 11.0013 2.57288 11.0039 2.60882C10.3799 2.3768 9.70477 2.25 9 2.25C8.41517 2.25 7.85073 2.33731 7.319 2.49961C6.89176 2.63002 6.7384 3.13066 6.96348 3.51651C7.15811 3.85015 7.5705 3.97765 7.94474 3.88204C8.28215 3.79583 8.63573 3.75 9 3.75C10.9436 3.75 12.5825 5.05466 13.0886 6.83598C13.1942 7.20762 13.5121 7.5 13.8985 7.5C14.3449 7.5 14.7 7.11551 14.598 6.68089C14.346 5.60756 13.7934 4.6501 13.0337 3.90226ZM7.94474 12.118C7.5705 12.0223 7.15811 12.1498 6.96348 12.4835C6.7384 12.8693 6.89176 13.37 7.319 13.5004C7.85073 13.6627 8.41517 13.75 9 13.75C9.70477 13.75 10.3799 13.6232 11.0039 13.3912C11.0013 13.4271 11 13.4634 11 13.5C11 14.3284 11.6716 15 12.5 15C13.3284 15 14 14.3284 14 13.5C14 12.8596 13.5986 12.3129 13.0337 12.0977C13.7934 11.3499 14.346 10.3924 14.598 9.31911C14.7 8.88449 14.3449 8.5 13.8985 8.5C13.5121 8.5 13.1942 8.79238 13.0886 9.16402C12.5825 10.9453 10.9436 12.25 9 12.25C8.63573 12.25 8.28215 12.2042 7.94474 12.118ZM5.93616 5.05459C6.20355 4.77652 6.29505 4.35526 6.10068 4.02205C5.87543 3.6359 5.36364 3.52337 5.0396 3.83133C4.21749 4.61261 3.62625 5.63454 3.37877 6.78424C3.13181 6.60541 2.82822 6.5 2.5 6.5C1.67157 6.5 1 7.17157 1 8C1 8.82843 1.67157 9.5 2.5 9.5C2.82822 9.5 3.13181 9.39458 3.37877 9.21576C3.62625 10.3655 4.21749 11.3874 5.0396 12.1687C5.36364 12.4766 5.87543 12.3641 6.10068 11.978C6.29505 11.6447 6.20355 11.2235 5.93616 10.9454C5.20159 10.1815 4.75 9.14349 4.75 8C4.75 6.85651 5.20159 5.81851 5.93616 5.05459Z" fill="#18181B"/>
</svg>
