<svg width="16" height="16" viewBox="0 0 16 16" fill="none" xmlns="http://www.w3.org/2000/svg">
<path fill-rule="evenodd" clip-rule="evenodd" d="M11 12.5L13 12.5C13.2761 12.5 13.5 12.2761 13.5 12L13.5 10C13.5 9.72386 13.2761 9.5 13 9.5L11 9.5C10.7239 9.5 10.5 9.72386 10.5 10L10.5 12C10.5 12.2761 10.7239 12.5 11 12.5ZM13 14C14.1046 14 15 13.1046 15 12L15 10C15 8.89543 14.1046 8 13 8L11.1496 8L10.3026 6.51773C10.7295 6.15094 11 5.60705 11 5L11 3C11 1.89543 10.1046 1 9 0.999999L7 0.999999C5.89543 0.999999 5 1.89543 5 3L5 5C5 5.60706 5.27046 6.15095 5.69746 6.51774L4.85046 8L3 8C1.89543 8 1 8.89543 1 10L1 12C1 13.1046 1.89543 14 3 14L5 14C6.10457 14 7 13.1046 7 12L7 10C7 9.39293 6.72953 8.84903 6.30252 8.48224L7.14951 7L8.85051 7L9.6975 8.48223C9.27048 8.84902 9 9.39292 9 10L9 12C9 13.1046 9.89543 14 11 14L13 14ZM3 12.5L5 12.5C5.27614 12.5 5.5 12.2761 5.5 12L5.5 10C5.5 9.72386 5.27614 9.5 5 9.5L3 9.5C2.72386 9.5 2.5 9.72386 2.5 10L2.5 12C2.5 12.2761 2.72386 12.5 3 12.5ZM9 5.5L7 5.5C6.72386 5.5 6.5 5.27614 6.5 5L6.5 3C6.5 2.72386 6.72386 2.5 7 2.5L9 2.5C9.27614 2.5 9.5 2.72386 9.5 3L9.5 5C9.5 5.27614 9.27614 5.5 9 5.5Z" fill="#18181B"/>
</svg>
