<svg width="16" height="16" viewBox="0 0 16 16" fill="none" xmlns="http://www.w3.org/2000/svg">
<g clip-path="url(#clip0_15214_16392)">
<path d="M10.8631 13.919C10.7633 13.9676 10.6546 13.9949 10.5437 13.9992C10.4328 14.0035 10.3223 13.9847 10.2191 13.944C10.1142 13.9033 10.0192 13.8409 9.94007 13.761L4.81607 9.06299L2.58407 10.766C2.48347 10.8425 2.35922 10.8813 2.23295 10.8756C2.10669 10.87 1.98641 10.8202 1.89307 10.735L1.17707 10.08C1.12127 10.0288 1.07671 9.96665 1.04622 9.89736C1.01574 9.82806 1 9.75319 1 9.67749C1 9.60179 1.01574 9.52692 1.04622 9.45763C1.07671 9.38834 1.12127 9.32614 1.17707 9.27499L3.11207 7.49999L1.17707 5.72499C1.12127 5.67384 1.07671 5.61165 1.04622 5.54236C1.01574 5.47306 1 5.39819 1 5.32249C1 5.24679 1.01574 5.17192 1.04622 5.10263C1.07671 5.03334 1.12127 4.97114 1.17707 4.91999L1.89307 4.26499C1.98641 4.17977 2.10669 4.13 2.23295 4.12433C2.35922 4.11867 2.48347 4.15747 2.58407 4.23399L4.81607 5.93699L9.94007 1.23899C10.0581 1.11952 10.2106 1.03995 10.3761 1.01144C10.5416 0.98293 10.7119 1.0069 10.8631 1.07999L13.5401 2.37499C13.8211 2.51099 14.0001 2.79699 14.0001 3.11099V7.99999H10.7521V4.53399L6.86407 7.49999L10.7521 10.466V7.99999H14.0001V11.889C14.0001 12.203 13.8211 12.489 13.5401 12.625L10.8631 13.919Z" fill="#18181B"/>
</g>
<defs>
<clipPath id="clip0_15214_16392">
<rect width="16" height="16" fill="white"/>
</clipPath>
</defs>
</svg>
