<svg width="16" height="16" viewBox="0 0 16 16" fill="none" xmlns="http://www.w3.org/2000/svg">
<g clip-path="url(#clip0_17287_9165)">
<path d="M5.97656 15.1094C7.27813 15.1094 8.32812 14.0594 8.32812 12.7578V10.4062H5.97656C4.675 10.4062 3.625 11.4563 3.625 12.7578C3.625 14.0594 4.675 15.1094 5.97656 15.1094Z" fill="#0ACF83"/>
<path d="M3.625 8.05469C3.625 6.75313 4.675 5.70312 5.97656 5.70312H8.32812V10.4062H5.97656C4.675 10.4062 3.625 9.35625 3.625 8.05469Z" fill="#A259FF"/>
<path d="M3.625 3.35156C3.625 2.05 4.675 1 5.97656 1H8.32812V5.70312H5.97656C4.675 5.70312 3.625 4.65313 3.625 3.35156Z" fill="#F24E1E"/>
<path d="M8.32812 1H10.6797C11.9813 1 13.0312 2.05 13.0312 3.35156C13.0312 4.65313 11.9813 5.70312 10.6797 5.70312H8.32812V1Z" fill="#FF7262"/>
<path d="M13.0312 8.05469C13.0312 9.35625 11.9813 10.4062 10.6797 10.4062C9.37813 10.4062 8.32812 9.35625 8.32812 8.05469C8.32812 6.75313 9.37813 5.70312 10.6797 5.70312C11.9813 5.70312 13.0312 6.75313 13.0312 8.05469Z" fill="#1ABCFE"/>
</g>
<defs>
<clipPath id="clip0_17287_9165">
<rect width="14" height="14" fill="white" transform="translate(1 1)"/>
</clipPath>
</defs>
</svg>
