<svg width="16" height="16" viewBox="0 0 16 16" fill="none" xmlns="http://www.w3.org/2000/svg">
<g clip-path="url(#clip0_2217_4567)">
<path fill-rule="evenodd" clip-rule="evenodd" d="M7.36318 1.50042C7.26929 1.50657 6.98649 1.62166 6.98649 2.12215C6.98649 2.71546 7.10611 3.36997 7.32256 4.04873C7.53185 3.25019 7.64189 2.58597 7.64189 2.12215C7.64189 1.76336 7.54487 1.60894 7.49828 1.55731C7.4567 1.51123 7.41399 1.49709 7.36318 1.50042ZM8.24841 6.13658C8.30903 5.96229 8.3671 5.78973 8.42244 5.61939C8.85347 4.2927 9.14189 3.03187 9.14189 2.12215C9.14189 1.49697 8.96949 0.948697 8.61194 0.552439C8.24938 0.150631 7.75324 -0.0283205 7.2652 0.00362374C6.28139 0.0680192 5.48649 0.936885 5.48649 2.12215C5.48649 3.43635 5.92536 4.8803 6.6119 6.25225C6.25199 7.21387 5.81863 8.21552 5.34465 9.16756C5.27933 9.29876 5.21338 9.42874 5.14688 9.55729C4.24748 9.85937 3.40189 10.2053 2.67185 10.5818C1.95776 10.95 1.31997 11.365 0.849943 11.8224C0.391261 12.2689 0 12.848 0 13.536C0 14.0007 0.157407 14.4466 0.487956 14.7786C0.81879 15.1108 1.2644 15.27 1.72973 15.27C2.27111 15.27 2.76841 15.0284 3.1884 14.723C3.61617 14.412 4.03235 13.9851 4.42758 13.4984C5.03208 12.7538 5.63057 11.8154 6.18555 10.7991C6.82445 10.6031 7.49024 10.4292 8.15915 10.2839C8.55297 10.1984 8.94445 10.1236 9.32891 10.0602C9.8431 10.583 10.3845 11.0482 10.9354 11.4288C11.8604 12.0678 12.8798 12.5149 13.8784 12.5149C14.3853 12.5149 14.9119 12.3886 15.3279 12.0544C15.7659 11.7024 16 11.1837 16 10.5842C16 9.8267 15.5877 9.2717 15.017 8.92423C14.4815 8.59822 13.786 8.43431 13.0587 8.36192C12.1339 8.26988 11.0386 8.31527 9.89209 8.46188C9.74884 8.29792 9.60787 8.1284 9.46985 7.95401C9.01334 7.37721 8.60053 6.76223 8.24841 6.13658ZM7.57322 7.89722C7.42029 8.26304 7.25934 8.62941 7.09189 8.9923C7.34118 8.93045 7.59121 8.8723 7.84085 8.81809C7.95538 8.79322 8.0701 8.76912 8.18488 8.74583C7.97371 8.47264 7.76906 8.18897 7.57322 7.89722ZM11.3072 9.83514C11.4676 9.96406 11.6281 10.0842 11.788 10.1947C12.5898 10.7486 13.3093 11.0149 13.8784 11.0149C14.1552 11.0149 14.3144 10.9445 14.3884 10.8851C14.4401 10.8435 14.5 10.7718 14.5 10.5842C14.5 10.4561 14.4592 10.3408 14.2369 10.2055C13.9795 10.0487 13.5421 9.91745 12.9101 9.85454C12.4364 9.8074 11.8944 9.80232 11.3072 9.83514ZM3.93265 11.6381C3.73314 11.7285 3.54164 11.8209 3.3594 11.9149C2.71411 12.2477 2.21909 12.583 1.89615 12.8974C1.56186 13.2227 1.5 13.4369 1.5 13.536C1.5 13.6617 1.53854 13.7078 1.5509 13.7202C1.56297 13.7323 1.60722 13.77 1.72973 13.77C1.82517 13.77 2.01369 13.7226 2.3063 13.5098C2.59112 13.3027 2.91433 12.9824 3.26309 12.5529C3.48438 12.2803 3.70857 11.973 3.93265 11.6381Z" fill="#18181B"/>
</g>
<defs>
<clipPath id="clip0_2217_4567">
<rect width="16" height="16" fill="white"/>
</clipPath>
</defs>
</svg>
