<svg width="16" height="16" viewBox="0 0 16 16" fill="none" xmlns="http://www.w3.org/2000/svg">
<path fill-rule="evenodd" clip-rule="evenodd" d="M3.125 7C3.125 4.30761 5.30761 2.125 8 2.125C10.6924 2.125 12.875 4.30761 12.875 7C12.875 8.86435 12.1014 9.9618 11.1878 10.8149C10.8026 11.1746 10.4227 11.4647 10.0187 11.7731L10.0186 11.7732C9.89918 11.8644 9.77766 11.9571 9.65327 12.0538C9.4013 12.2496 9.12023 12.4759 8.87197 12.7211C8.62931 12.9608 8.33707 13.2958 8.14189 13.7318C8.10812 13.8072 8.06729 13.8483 8.04675 13.8633C8.03823 13.8695 8.03384 13.8711 8.03241 13.8715L8.03235 13.8716C8.03134 13.8719 8.02236 13.875 8 13.875C7.97764 13.875 7.96866 13.8719 7.96765 13.8716L7.96759 13.8715C7.96616 13.8711 7.96177 13.8695 7.95325 13.8633C7.93271 13.8483 7.89188 13.8072 7.85811 13.7318C7.66293 13.2958 7.37069 12.9608 7.12803 12.7211C6.87977 12.4759 6.5987 12.2496 6.34673 12.0538C6.22234 11.9571 6.10082 11.8644 5.9814 11.7732L5.9813 11.7731C5.57733 11.4647 5.1974 11.1746 4.81218 10.8149C3.89858 9.9618 3.125 8.86435 3.125 7ZM14.5 7C14.5 10.3991 12.4338 11.9751 10.9709 13.091C10.3357 13.5755 9.81422 13.9732 9.625 14.3958C9.35448 15 8.78832 15.5 8 15.5C7.21168 15.5 6.64552 15 6.375 14.3958C6.18578 13.9732 5.6643 13.5755 5.02909 13.091C3.56617 11.9751 1.5 10.3991 1.5 7C1.5 3.41015 4.41015 0.5 8 0.5C11.5899 0.5 14.5 3.41015 14.5 7ZM9.5 7C9.5 7.82843 8.82843 8.5 8 8.5C7.17157 8.5 6.5 7.82843 6.5 7C6.5 6.17157 7.17157 5.5 8 5.5C8.82843 5.5 9.5 6.17157 9.5 7ZM11 7C11 8.65685 9.65685 10 8 10C6.34315 10 5 8.65685 5 7C5 5.34315 6.34315 4 8 4C9.65685 4 11 5.34315 11 7Z" fill="#18181B"/>
</svg>
