<svg width="16" height="16" viewBox="0 0 16 16" fill="none" xmlns="http://www.w3.org/2000/svg">
<path fill-rule="evenodd" clip-rule="evenodd" d="M13 13.25L13 7.5C13 4.73858 10.7614 2.5 8 2.5C5.23858 2.5 3 4.73858 3 7.5L3 13.25C3 13.3881 3.11193 13.5 3.25 13.5H4.75C4.88807 13.5 5 13.3881 5 13.25L5 7.5C5 5.84315 6.34315 4.5 8 4.5C9.65685 4.5 11 5.84315 11 7.5V13.25C11 13.3881 11.1119 13.5 11.25 13.5H12.75C12.8881 13.5 13 13.3881 13 13.25ZM14.5 7.5L14.5 13.25C14.5 14.2165 13.7165 15 12.75 15H11.25C10.2835 15 9.5 14.2165 9.5 13.25V7.5C9.5 6.67157 8.82843 6 8 6C7.17157 6 6.5 6.67157 6.5 7.5V13.25C6.5 14.2165 5.7165 15 4.75 15H3.25C2.2835 15 1.5 14.2165 1.5 13.25L1.5 7.5C1.5 3.91015 4.41015 0.999999 8 1C11.5899 1 14.5 3.91015 14.5 7.5Z" fill="#18181B"/>
</svg>
