<svg width="16" height="16" viewBox="0 0 16 16" fill="none" xmlns="http://www.w3.org/2000/svg">
<path fill-rule="evenodd" clip-rule="evenodd" d="M11.8364 1.5C12.2029 1.5 12.5 1.79708 12.5 2.16355C12.5 2.32863 12.4385 2.48777 12.3274 2.60991L11.9728 3H4.02719L3.67256 2.60991C3.56153 2.48777 3.5 2.32862 3.5 2.16355C3.5 1.79708 3.79708 1.5 4.16355 1.5H11.8364ZM5.39083 4.5L7.51477 6.83634C7.60953 6.94057 7.74387 7 7.88474 7H8H8.11526C8.25613 7 8.39047 6.94057 8.48523 6.83634L10.6092 4.5H5.39083ZM6.04261 7.44687L3.5 4.65V6.50205C3.5 6.62263 3.54357 6.73915 3.6227 6.83014L4.8711 8.2658C5.21366 7.93433 5.60872 7.65679 6.04261 7.44687ZM3.96368 9.50823L2.49079 7.81441C2.1743 7.45045 2 6.98437 2 6.50205V2.16355V2C2 0.895431 2.89543 0 4 0H4.16355H11.8364H12C13.1046 0 14 0.895431 14 2V2.16355V6.50205C14 6.98437 13.8257 7.45045 13.5092 7.81441L12.0363 9.50823C12.3332 10.1087 12.5 10.7848 12.5 11.5C12.5 13.9853 10.4853 16 8 16C5.51472 16 3.5 13.9853 3.5 11.5C3.5 10.7848 3.66682 10.1087 3.96368 9.50823ZM11.1289 8.2658C10.7863 7.93433 10.3913 7.65679 9.95739 7.44687L12.5 4.65V6.50205C12.5 6.62263 12.4564 6.73915 12.3773 6.83014L11.1289 8.2658ZM11 11.5C11 13.1569 9.65685 14.5 8 14.5C6.34315 14.5 5 13.1569 5 11.5C5 9.84315 6.34315 8.5 8 8.5C9.65685 8.5 11 9.84315 11 11.5Z" fill="#18181B"/>
</svg>
