<svg width="16" height="16" viewBox="0 0 16 16" fill="none" xmlns="http://www.w3.org/2000/svg">
<path fill-rule="evenodd" clip-rule="evenodd" d="M11.1125 11.6152C11.4871 12.4288 11.8257 12.5 12 12.5C12.1743 12.5 12.5129 12.4288 12.8875 11.6152C13.2635 10.7988 13.5 9.53779 13.5 8C13.5 6.46221 13.2635 5.20116 12.8875 4.38478C12.5129 3.57123 12.1743 3.5 12 3.5C11.8257 3.5 11.4871 3.57123 11.1125 4.38477C10.7365 5.20116 10.5 6.46221 10.5 8C10.5 9.53779 10.7365 10.7988 11.1125 11.6152ZM9 8C9 9.4689 9.1965 10.8145 9.58949 11.8575L2.90297 9.31026C2.35929 9.10314 2 8.58179 2 8C2 7.41821 2.35929 6.89686 2.90297 6.68974L9.58949 4.14249C9.1965 5.18549 9 6.5311 9 8ZM12 14C14 14 15 11.3137 15 8C15 4.68629 14 2 12 2C11.3389 2 10.6833 2.12064 10.0655 2.356L2.36897 5.28801C1.24366 5.7167 0.5 6.7958 0.5 8C0.5 9.2042 1.24366 10.2833 2.36897 10.712L3.19631 11.0272C3.0699 11.3262 3 11.6549 3 11.9999C3 13.3806 4.11929 14.4999 5.5 14.4999C6.59849 14.4999 7.53151 13.7914 7.86703 12.8065L10.0655 13.644C10.6833 13.8794 11.3389 14 12 14ZM6.46268 12.2715L4.60066 11.5622C4.53618 11.6944 4.5 11.8429 4.5 11.9999C4.5 12.5522 4.94772 12.9999 5.5 12.9999C5.95816 12.9999 6.34435 12.6918 6.46268 12.2715Z" fill="#18181B"/>
</svg>
