<svg width="16" height="16" viewBox="0 0 16 16" fill="none" xmlns="http://www.w3.org/2000/svg">
<path fill-rule="evenodd" clip-rule="evenodd" d="M10.1232 5.35698C10.8353 4.9863 11 4.60725 11 4.25C11 3.89275 10.8353 3.5137 10.1232 3.14302C9.37211 2.75201 8.19932 2.5 6.75 2.5C5.30068 2.5 4.12789 2.75201 3.37675 3.14302C2.66467 3.5137 2.5 3.89275 2.5 4.25C2.5 4.60725 2.66467 4.9863 3.37675 5.35698C4.12789 5.74799 5.30068 6 6.75 6C8.19932 6 9.37211 5.74799 10.1232 5.35698ZM6.75 7.5C8.43372 7.5 9.94841 7.19546 11 6.58639V11.75C11 12.1073 10.8353 12.4863 10.1232 12.857C9.37211 13.248 8.19932 13.5 6.75 13.5C5.30068 13.5 4.12789 13.248 3.37675 12.857C2.66467 12.4863 2.5 12.1073 2.5 11.75V6.58639C3.55159 7.19546 5.06628 7.5 6.75 7.5ZM12.5 4.25C12.5 2.08333 9.92564 1 6.75 1C3.57436 1 1 2.08333 1 4.25V11.75C1 13.9167 3.57436 15 6.75 15C9.92564 15 12.5 13.9167 12.5 11.75V10.5678C12.5675 10.5418 12.6344 10.5151 12.7007 10.4876C13.3164 10.2322 13.9695 9.87511 14.4913 9.3757C15.0255 8.86448 15.5011 8.11969 15.5011 7.15802C15.5011 6.72081 15.4043 6.26787 15.1564 5.85361C14.9074 5.43752 14.5598 5.15063 14.2005 4.96391C13.6381 4.67172 13.0152 4.60644 12.5 4.61181V4.25ZM12.5 6.11201V8.93272C13.3602 8.50726 14.0011 7.91569 14.0011 7.15802C14.0011 6.35213 13.3485 6.10043 12.5 6.11201Z" fill="#18181B"/>
</svg>
