<svg width="16" height="16" viewBox="0 0 16 16" fill="none" xmlns="http://www.w3.org/2000/svg">
<path fill-rule="evenodd" clip-rule="evenodd" d="M11 2.5C10.1716 2.5 9.5 3.17157 9.5 4C9.5 4.82843 10.1716 5.5 11 5.5C11.8284 5.5 12.5 4.82843 12.5 4C12.5 3.17157 11.8284 2.5 11 2.5ZM14 4C14 2.34315 12.6569 1 11 1C9.34315 1 8 2.34315 8 4C8 4.27354 8.03661 4.53852 8.10519 4.79033L6.14989 5.90764C5.6049 5.34775 4.84306 5 4 5C2.34315 5 1 6.34315 1 8C1 9.65685 2.34314 11 4 11C4.84307 11 5.60491 10.6522 6.1499 10.0923L8.1052 11.2097C8.03661 11.4615 8 11.7265 8 12C8 13.6569 9.34315 15 11 15C12.6569 15 14 13.6569 14 12C14 10.3431 12.6569 9 11 9C10.1569 9 9.39507 9.34777 8.85007 9.90767L6.89479 8.79037C6.96339 8.53855 7 8.27355 7 8C7 7.72644 6.96338 7.46143 6.89479 7.20961L8.85006 6.09231C9.39506 6.65223 10.1569 7 11 7C12.6569 7 14 5.65685 14 4ZM11 10.5C10.1716 10.5 9.5 11.1716 9.5 12C9.5 12.8284 10.1716 13.5 11 13.5C11.8284 13.5 12.5 12.8284 12.5 12C12.5 11.1716 11.8284 10.5 11 10.5ZM2.5 8C2.5 7.17157 3.17157 6.5 4 6.5C4.82843 6.5 5.5 7.17157 5.5 8C5.5 8.82843 4.82843 9.5 4 9.5C3.17157 9.5 2.5 8.82843 2.5 8Z" fill="#18181B"/>
</svg>
