<svg width="16" height="16" viewBox="0 0 16 16" fill="none" xmlns="http://www.w3.org/2000/svg">
<path fill-rule="evenodd" clip-rule="evenodd" d="M13.5 11C13.5 10.1716 12.8284 9.5 12 9.5C11.1716 9.5 10.5 10.1716 10.5 11C10.5 11.8284 11.1716 12.5 12 12.5C12.8284 12.5 13.5 11.8284 13.5 11ZM12 14C13.6569 14 15 12.6569 15 11C15 9.34315 13.6569 8 12 8C11.7265 8 11.4615 8.03661 11.2097 8.10519L10.0924 6.14989C10.6522 5.6049 11 4.84306 11 4C11 2.34315 9.65686 1 8 0.999999C6.34315 0.999999 5 2.34314 5 4C5 4.84307 5.34776 5.60491 5.90765 6.1499L4.79034 8.1052C4.53853 8.03661 4.27354 8 4 8C2.34315 8 1 9.34314 1 11C1 12.6569 2.34315 14 4 14C5.65685 14 7 12.6569 7 11C7 10.1569 6.65223 9.39507 6.09233 8.85007L7.20963 6.89479C7.46145 6.96339 7.72645 7 8 7C8.27356 7 8.53857 6.96338 8.79039 6.89479L9.90769 8.85006C9.34777 9.39506 9 10.1569 9 11C9 12.6569 10.3431 14 12 14ZM5.5 11C5.5 10.1716 4.82843 9.5 4 9.5C3.17157 9.5 2.5 10.1716 2.5 11C2.5 11.8284 3.17157 12.5 4 12.5C4.82843 12.5 5.5 11.8284 5.5 11ZM8 2.5C8.82843 2.5 9.5 3.17157 9.5 4C9.5 4.82843 8.82843 5.5 8 5.5C7.17157 5.5 6.5 4.82843 6.5 4C6.5 3.17157 7.17157 2.5 8 2.5Z" fill="#18181B"/>
</svg>
