<svg width="16" height="16" viewBox="0 0 16 16" fill="none" xmlns="http://www.w3.org/2000/svg">
<path fill-rule="evenodd" clip-rule="evenodd" d="M5 2.5C5.82843 2.5 6.5 3.17157 6.5 4C6.5 4.82843 5.82843 5.5 5 5.5C4.17157 5.5 3.5 4.82843 3.5 4C3.5 3.17157 4.17157 2.5 5 2.5ZM2 4C2 2.34315 3.34315 1 5 1C6.65685 1 8 2.34315 8 4C8 4.27354 7.96339 4.53852 7.89481 4.79033L9.85011 5.90764C10.3951 5.34775 11.1569 5 12 5C13.6569 5 15 6.34315 15 8C15 9.65685 13.6569 11 12 11C11.1569 11 10.3951 10.6522 9.8501 10.0923L7.8948 11.2097C7.96339 11.4615 8 11.7265 8 12C8 13.6569 6.65685 15 5 15C3.34315 15 2 13.6569 2 12C2 10.3431 3.34315 9 5 9C5.84308 9 6.60493 9.34777 7.14993 9.90767L9.10521 8.79037C9.03661 8.53855 9 8.27355 9 8C9 7.72644 9.03662 7.46143 9.10521 7.20961L7.14994 6.09231C6.60494 6.65223 5.84308 7 5 7C3.34315 7 2 5.65685 2 4ZM5 10.5C5.82843 10.5 6.5 11.1716 6.5 12C6.5 12.8284 5.82843 13.5 5 13.5C4.17157 13.5 3.5 12.8284 3.5 12C3.5 11.1716 4.17157 10.5 5 10.5ZM13.5 8C13.5 7.17157 12.8284 6.5 12 6.5C11.1716 6.5 10.5 7.17157 10.5 8C10.5 8.82843 11.1716 9.5 12 9.5C12.8284 9.5 13.5 8.82843 13.5 8Z" fill="#18181B"/>
</svg>
