<svg width="16" height="16" viewBox="0 0 16 16" fill="none" xmlns="http://www.w3.org/2000/svg">
<path fill-rule="evenodd" clip-rule="evenodd" d="M1.75 2C1.33579 2 1 2.33579 1 2.75C1 3.16421 1.33579 3.5 1.75 3.5H14.25C14.6642 3.5 15 3.16421 15 2.75C15 2.33579 14.6642 2 14.25 2H1.75ZM7 6.5H9C9.55228 6.5 10 6.94772 10 7.5V12C10 12.5523 9.55228 13 9 13H7C6.44772 13 6 12.5523 6 12V7.5C6 6.94772 6.44772 6.5 7 6.5ZM4.5 7.5C4.5 6.11929 5.61929 5 7 5H9C10.3807 5 11.5 6.11929 11.5 7.5V12C11.5 13.3807 10.3807 14.5 9 14.5H7C5.61929 14.5 4.5 13.3807 4.5 12V7.5Z" fill="#18181B"/>
</svg>
