<svg width="16" height="16" viewBox="0 0 16 16" fill="none" xmlns="http://www.w3.org/2000/svg">
<path fill-rule="evenodd" clip-rule="evenodd" d="M7 3H9C9.55228 3 10 3.44772 10 4V12C10 12.5523 9.55228 13 9 13H7C6.44772 13 6 12.5523 6 12V4C6 3.44772 6.44772 3 7 3ZM4.5 4C4.5 2.61929 5.61929 1.5 7 1.5H9C10.3807 1.5 11.5 2.61929 11.5 4V7.25H14.25C14.6642 7.25 15 7.58579 15 8C15 8.41421 14.6642 8.75 14.25 8.75H11.5V12C11.5 13.3807 10.3807 14.5 9 14.5H7C5.61929 14.5 4.5 13.3807 4.5 12V8.75H1.75C1.33579 8.75 1 8.41421 1 8C1 7.58579 1.33579 7.25 1.75 7.25H4.5V4Z" fill="#18181B"/>
</svg>
