<svg width="16" height="16" viewBox="0 0 16 16" fill="none" xmlns="http://www.w3.org/2000/svg">
<path fill-rule="evenodd" clip-rule="evenodd" d="M14.25 1C14.6642 1 15 1.33579 15 1.75L15 14.25C15 14.6642 14.6642 15 14.25 15C13.8358 15 13.5 14.6642 13.5 14.25L13.5 1.75C13.5 1.33579 13.8358 1 14.25 1ZM11 4L11 5.5C11 5.77614 10.7761 6 10.5 6L5.5 6C5.22386 6 5 5.77614 5 5.5L5 4C5 3.72386 5.22386 3.5 5.5 3.5L10.5 3.5C10.7761 3.5 11 3.72386 11 4ZM10.5 2C11.6046 2 12.5 2.89543 12.5 4L12.5 5.5C12.5 6.60457 11.6046 7.5 10.5 7.5L5.5 7.5C4.39543 7.5 3.5 6.60457 3.5 5.5L3.5 4C3.5 2.89543 4.39543 2 5.5 2L10.5 2ZM11 10.5L11 12C11 12.2761 10.7761 12.5 10.5 12.5L5.5 12.5C5.22386 12.5 5 12.2761 5 12L5 10.5C5 10.2239 5.22386 10 5.5 10L10.5 10C10.7761 10 11 10.2239 11 10.5ZM10.5 8.5C11.6046 8.5 12.5 9.39543 12.5 10.5L12.5 12C12.5 13.1046 11.6046 14 10.5 14L5.5 14C4.39543 14 3.5 13.1046 3.5 12L3.5 10.5C3.5 9.39543 4.39543 8.5 5.5 8.5L10.5 8.5ZM1 1.75C1 1.33579 1.33579 1 1.75 1C2.16421 1 2.5 1.33579 2.5 1.75L2.5 14.25C2.5 14.6642 2.16421 15 1.75 15C1.33579 15 1 14.6642 1 14.25L1 1.75Z" fill="#18181B"/>
</svg>
