<svg width="16" height="16" viewBox="0 0 16 16" fill="none" xmlns="http://www.w3.org/2000/svg">
<path fill-rule="evenodd" clip-rule="evenodd" d="M1.75 2C1.33579 2 1 2.33579 1 2.75C1 3.16421 1.33579 3.5 1.75 3.5H14.25C14.6642 3.5 15 3.16421 15 2.75C15 2.33579 14.6642 2 14.25 2H1.75ZM5.5 6.5H4C3.72386 6.5 3.5 6.72386 3.5 7V12.5C3.5 12.7761 3.72386 13 4 13H5.5C5.77614 13 6 12.7761 6 12.5V7C6 6.72386 5.77614 6.5 5.5 6.5ZM4 5C2.89543 5 2 5.89543 2 7V12.5C2 13.6046 2.89543 14.5 4 14.5H5.5C6.60457 14.5 7.5 13.6046 7.5 12.5V7C7.5 5.89543 6.60457 5 5.5 5H4ZM12 6.5H10.5C10.2239 6.5 10 6.72386 10 7V9C10 9.27614 10.2239 9.5 10.5 9.5H12C12.2761 9.5 12.5 9.27614 12.5 9V7C12.5 6.72386 12.2761 6.5 12 6.5ZM10.5 5C9.39543 5 8.5 5.89543 8.5 7V9C8.5 10.1046 9.39543 11 10.5 11H12C13.1046 11 14 10.1046 14 9V7C14 5.89543 13.1046 5 12 5H10.5Z" fill="#18181B"/>
</svg>
