<svg width="16" height="16" viewBox="0 0 16 16" fill="none" xmlns="http://www.w3.org/2000/svg">
<path fill-rule="evenodd" clip-rule="evenodd" d="M14 1.75C14 1.33579 13.6642 1 13.25 1C12.8358 1 12.5 1.33579 12.5 1.75L12.5 14.25C12.5 14.6642 12.8358 15 13.25 15C13.6642 15 14 14.6642 14 14.25L14 1.75ZM9.5 5.5L9.5 4C9.5 3.72386 9.27614 3.5 9 3.5L3.5 3.5C3.22386 3.5 3 3.72386 3 4L3 5.5C3 5.77614 3.22386 6 3.5 6L9 6C9.27614 6 9.5 5.77614 9.5 5.5ZM11 4C11 2.89543 10.1046 2 9 2L3.5 2C2.39543 2 1.5 2.89543 1.5 4L1.5 5.5C1.5 6.60457 2.39543 7.5 3.5 7.5L9 7.5C10.1046 7.5 11 6.60457 11 5.5L11 4ZM9.5 12L9.5 10.5C9.5 10.2239 9.27614 10 9 10L7 10C6.72386 10 6.5 10.2239 6.5 10.5L6.5 12C6.5 12.2761 6.72386 12.5 7 12.5L9 12.5C9.27614 12.5 9.5 12.2761 9.5 12ZM11 10.5C11 9.39543 10.1046 8.5 9 8.5L7 8.5C5.89543 8.5 5 9.39543 5 10.5L5 12C5 13.1046 5.89543 14 7 14L9 14C10.1046 14 11 13.1046 11 12L11 10.5Z" fill="#18181B"/>
</svg>
