<svg width="16" height="16" viewBox="0 0 16 16" fill="none" xmlns="http://www.w3.org/2000/svg">
<path fill-rule="evenodd" clip-rule="evenodd" d="M1 14.25C1 13.8358 1.33579 13.5 1.75 13.5L14.25 13.5C14.6642 13.5 15 13.8358 15 14.25C15 14.6642 14.6642 15 14.25 15L1.75 15C1.33579 15 1 14.6642 1 14.25ZM7 11L9 11C9.55228 11 10 10.5523 10 10L10 6C10 5.44771 9.55228 5 9 5L7 5C6.44772 5 6 5.44772 6 6L6 10C6 10.5523 6.44772 11 7 11ZM9 12.5C10.3807 12.5 11.5 11.3807 11.5 10L11.5 6C11.5 4.61929 10.3807 3.5 9 3.5L7 3.5C5.61929 3.5 4.5 4.61929 4.5 6L4.5 10C4.5 11.3807 5.61929 12.5 7 12.5L9 12.5ZM1.75 1C1.33579 1 1 1.33579 1 1.75C1 2.16421 1.33579 2.5 1.75 2.5L14.25 2.5C14.6642 2.5 15 2.16421 15 1.75C15 1.33579 14.6642 1 14.25 1L1.75 1Z" fill="#18181B"/>
</svg>
