<svg width="16" height="16" viewBox="0 0 16 16" fill="none" xmlns="http://www.w3.org/2000/svg">
<path fill-rule="evenodd" clip-rule="evenodd" d="M5.5 3H4C3.72386 3 3.5 3.22386 3.5 3.5V12.5C3.5 12.7761 3.72386 13 4 13H5.5C5.77614 13 6 12.7761 6 12.5V8.00085C6 8.00057 6 8.00029 6 8C6 7.99971 6 7.99943 6 7.99915V3.5C6 3.22386 5.77614 3 5.5 3ZM7.5 7.25V3.5C7.5 2.39543 6.60457 1.5 5.5 1.5L4 1.5C2.89543 1.5 2 2.39543 2 3.5V7.25L1.75 7.25C1.33579 7.25 1 7.58579 1 8C1 8.41421 1.33579 8.75 1.75 8.75H2V12.5C2 13.6046 2.89543 14.5 4 14.5H5.5C6.60457 14.5 7.5 13.6046 7.5 12.5V8.75H8.5V10C8.5 11.1046 9.39543 12 10.5 12H12C13.1046 12 14 11.1046 14 10V8.75L14.25 8.75C14.6642 8.75 15 8.41421 15 8C15 7.58579 14.6642 7.25 14.25 7.25L14 7.25V6C14 4.89543 13.1046 4 12 4H10.5C9.39543 4 8.5 4.89543 8.5 6V7.25L7.5 7.25ZM10 8V10C10 10.2761 10.2239 10.5 10.5 10.5H12C12.2761 10.5 12.5 10.2761 12.5 10V6C12.5 5.72386 12.2761 5.5 12 5.5H10.5C10.2239 5.5 10 5.72386 10 6V8Z" fill="#18181B"/>
</svg>
