<svg width="16" height="16" viewBox="0 0 16 16" fill="none" xmlns="http://www.w3.org/2000/svg">
<path fill-rule="evenodd" clip-rule="evenodd" d="M1.75 14C1.33579 14 1 13.6642 1 13.25C1 12.8358 1.33579 12.5 1.75 12.5L14.25 12.5C14.6642 12.5 15 12.8358 15 13.25C15 13.6642 14.6642 14 14.25 14L1.75 14ZM5.5 9.5L4 9.5C3.72386 9.5 3.5 9.27614 3.5 9L3.5 3.5C3.5 3.22386 3.72386 3 4 3L5.5 3C5.77614 3 6 3.22386 6 3.5L6 9C6 9.27614 5.77614 9.5 5.5 9.5ZM4 11C2.89543 11 2 10.1046 2 9L2 3.5C2 2.39543 2.89543 1.5 4 1.5L5.5 1.5C6.60457 1.5 7.5 2.39543 7.5 3.5L7.5 9C7.5 10.1046 6.60457 11 5.5 11L4 11ZM12 9.5L10.5 9.5C10.2239 9.5 10 9.27614 10 9L10 7C10 6.72386 10.2239 6.5 10.5 6.5L12 6.5C12.2761 6.5 12.5 6.72386 12.5 7L12.5 9C12.5 9.27614 12.2761 9.5 12 9.5ZM10.5 11C9.39543 11 8.5 10.1046 8.5 9L8.5 7C8.5 5.89543 9.39543 5 10.5 5L12 5C13.1046 5 14 5.89543 14 7L14 9C14 10.1046 13.1046 11 12 11L10.5 11Z" fill="#18181B"/>
</svg>
