<svg width="16" height="16" viewBox="0 0 16 16" fill="none" xmlns="http://www.w3.org/2000/svg">
<path fill-rule="evenodd" clip-rule="evenodd" d="M12.0121 10V10C12.4432 10.0035 12.7763 9.84944 13.0139 9.58863C13.2577 9.32099 13.5 8.82745 13.5 8C13.5 4.96243 11.0376 2.5 8 2.5C4.96243 2.5 2.5 4.96243 2.5 8C2.5 11.0376 4.96243 13.5 8 13.5C8.12714 13.5 8.23656 13.4966 8.33019 13.4911C8.28505 13.2768 8.222 12.947 8.22365 12.6003C8.22566 12.1775 8.32219 11.6251 8.71896 11.1201C9.10542 10.6283 9.63893 10.3576 10.1673 10.2075C10.6894 10.0592 11.3034 10 12 10H12.0121ZM8.42908 14.0099L8.42896 14.0049C8.42913 14.0084 8.42912 14.01 8.42908 14.0099ZM12 11.5C13.6607 11.5134 15 10.25 15 8C15 4.13401 11.866 1 8 1C4.13401 1 1 4.13401 1 8C1 11.866 4.13401 15 8 15C10.1907 15 10.0114 14.1705 9.8274 13.3191C9.6334 12.4217 9.43417 11.5 12 11.5ZM9 5C9 5.55228 8.55228 6 8 6C7.44772 6 7 5.55228 7 5C7 4.44772 7.44772 4 8 4C8.55228 4 9 4.44772 9 5ZM11 7.75C11.5523 7.75 12 7.30228 12 6.75C12 6.19772 11.5523 5.75 11 5.75C10.4477 5.75 10 6.19772 10 6.75C10 7.30228 10.4477 7.75 11 7.75ZM6.25 6.75C6.25 7.30228 5.80228 7.75 5.25 7.75C4.69772 7.75 4.25 7.30228 4.25 6.75C4.25 6.19772 4.69772 5.75 5.25 5.75C5.80228 5.75 6.25 6.19772 6.25 6.75ZM5.75 11C6.30228 11 6.75 10.5523 6.75 10C6.75 9.44771 6.30228 9 5.75 9C5.19772 9 4.75 9.44771 4.75 10C4.75 10.5523 5.19772 11 5.75 11Z" fill="#18181B"/>
</svg>
