<svg width="16" height="16" viewBox="0 0 16 16" fill="none" xmlns="http://www.w3.org/2000/svg">
<path fill-rule="evenodd" clip-rule="evenodd" d="M9.76914 10.7306C9.7729 10.727 9.77663 10.7234 9.78033 10.7197L12.8609 7.63909C13.5903 6.90974 14 5.92054 14 4.88909C14 2.7412 12.2588 1 10.1109 1C9.07946 1 8.09026 1.40974 7.36091 2.13909L4.73085 4.76915L4.71967 4.7801L3.0533 6.44647C2.05874 7.44103 1.5 8.78995 1.5 10.1965C1.5 13.1254 3.87437 15.4998 6.8033 15.4998C8.20982 15.4998 9.55874 14.941 10.5533 13.9465L13.7197 10.7801C14.0126 10.4872 14.0126 10.0123 13.7197 9.71944C13.4268 9.42655 12.9519 9.42655 12.659 9.71944L9.49264 12.8858C8.77938 13.5991 7.812 13.9998 6.8033 13.9998C4.7028 13.9998 3 12.297 3 10.1965C3 9.18777 3.4007 8.22039 4.11396 7.50713L5.32982 6.29128L5.34099 6.28033L8.42157 3.19975C8.86961 2.75171 9.47729 2.5 10.1109 2.5C11.4304 2.5 12.5 3.56963 12.5 4.88909C12.5 5.52271 12.2483 6.13039 11.8003 6.57843L10.6701 7.70853C10.6664 7.71214 10.6626 7.7158 10.6589 7.71951L7.66421 10.7142C7.48139 10.8971 7.23343 10.9998 6.97487 10.9998C6.43647 10.9998 6 10.5633 6 10.0249C6 9.76635 6.10271 9.51838 6.28553 9.33556L9.28027 6.34083C9.57316 6.04793 9.57316 5.57306 9.28027 5.28017C8.98737 4.98727 8.5125 4.98727 8.2196 5.28017L5.22487 8.2749C4.76075 8.73903 4.5 9.36852 4.5 10.0249C4.5 11.3917 5.60804 12.4998 6.97487 12.4998C7.63125 12.4998 8.26075 12.239 8.72487 11.7749L9.76914 10.7306Z" fill="#18181B"/>
</svg>
