<svg width="16" height="16" viewBox="0 0 16 16" fill="none" xmlns="http://www.w3.org/2000/svg">
<path fill-rule="evenodd" clip-rule="evenodd" d="M3.5 3H5.25C5.52614 3 5.75 3.22386 5.75 3.5V12.5C5.75 12.7761 5.52614 13 5.25 13H3.5C3.22386 13 3 12.7761 3 12.5V3.5C3 3.22386 3.22386 3 3.5 3ZM1.5 3.5C1.5 2.39543 2.39543 1.5 3.5 1.5H5.25C6.35457 1.5 7.25 2.39543 7.25 3.5V12.5C7.25 13.6046 6.35457 14.5 5.25 14.5H3.5C2.39543 14.5 1.5 13.6046 1.5 12.5V3.5ZM10.75 3H12.5C12.7761 3 13 3.22386 13 3.5V12.5C13 12.7761 12.7761 13 12.5 13H10.75C10.4739 13 10.25 12.7761 10.25 12.5V3.5C10.25 3.22386 10.4739 3 10.75 3ZM8.75 3.5C8.75 2.39543 9.64543 1.5 10.75 1.5H12.5C13.6046 1.5 14.5 2.39543 14.5 3.5V12.5C14.5 13.6046 13.6046 14.5 12.5 14.5H10.75C9.64543 14.5 8.75 13.6046 8.75 12.5V3.5Z" fill="#18181B"/>
</svg>
