<svg width="16" height="16" viewBox="0 0 16 16" fill="none" xmlns="http://www.w3.org/2000/svg">
<path fill-rule="evenodd" clip-rule="evenodd" d="M11.4233 1C13.3986 1 15 2.60135 15 4.57671C15 4.84774 14.8923 5.10767 14.7007 5.29931L14.1722 5.8278L12.201 7.799C12.2009 7.79911 12.2008 7.79921 12.2007 7.79931L7.14226 12.8577C6.72345 13.2765 6.19006 13.562 5.60928 13.6781L2.97084 14.2058C2.27112 14.3458 1.6542 13.7289 1.79415 13.0291L2.32183 10.3907C2.43799 9.80992 2.72345 9.27652 3.14226 8.85772L8.20066 3.79931C8.20086 3.79911 8.20106 3.79891 8.20126 3.79871L10.7007 1.29931C10.8923 1.10767 11.1522 1 11.4233 1ZM9.11276 5.00853L4.20292 9.91838C3.99351 10.1278 3.85078 10.3945 3.7927 10.6849L3.4121 12.5879L5.31511 12.2073C5.5692 12.1564 5.80515 12.0408 6.00045 11.8724C6.02835 11.8484 6.05542 11.8232 6.0816 11.7971L10.9914 6.88721C10.9014 5.8915 10.1085 5.0986 9.11276 5.00853ZM12.2115 5.66715C11.8501 4.82518 11.1748 4.14986 10.3328 3.78847L11.6128 2.50853C12.6085 2.5986 13.4014 3.3915 13.4914 4.38721L12.2115 5.66715Z" fill="#18181B"/>
</svg>
