<svg width="16" height="16" viewBox="0 0 16 16" fill="none" xmlns="http://www.w3.org/2000/svg">
<path fill-rule="evenodd" clip-rule="evenodd" d="M4.5 7.5C3.97293 7.5 3.4776 7.36407 3.04716 7.12537C2.12452 6.6137 1.5 5.62978 1.5 4.5C1.5 2.84315 2.84315 1.5 4.5 1.5C6.15685 1.5 7.5 2.84315 7.5 4.5C7.5 5.02707 7.36407 5.5224 7.12537 5.95284C6.6137 6.87548 5.62978 7.5 4.5 7.5ZM6 4.5C6 5.32843 5.32843 6 4.5 6C3.67157 6 3 5.32843 3 4.5C3 3.67157 3.67157 3 4.5 3C5.32843 3 6 3.67157 6 4.5ZM11.5 14.5C10.9729 14.5 10.4776 14.3641 10.0472 14.1254C9.12452 13.6137 8.5 12.6298 8.5 11.5C8.5 9.84315 9.84315 8.5 11.5 8.5C13.1569 8.5 14.5 9.84315 14.5 11.5C14.5 12.0271 14.3641 12.5224 14.1254 12.9528C13.6137 13.8755 12.6298 14.5 11.5 14.5ZM13 11.5C13 12.3284 12.3284 13 11.5 13C10.6716 13 10 12.3284 10 11.5C10 10.6716 10.6716 10 11.5 10C12.3284 10 13 10.6716 13 11.5ZM13.7803 3.28033C14.0732 2.98744 14.0732 2.51256 13.7803 2.21967C13.4874 1.92678 13.0126 1.92678 12.7197 2.21967L2.21967 12.7197C1.92678 13.0126 1.92678 13.4874 2.21967 13.7803C2.51256 14.0732 2.98744 14.0732 3.28033 13.7803L13.7803 3.28033Z" fill="#18181B"/>
</svg>
