<svg width="16" height="16" viewBox="0 0 16 16" fill="none" xmlns="http://www.w3.org/2000/svg">
<path fill-rule="evenodd" clip-rule="evenodd" d="M8 6.5C9.10457 6.5 10 5.60457 10 4.5C10 3.39543 9.10457 2.5 8 2.5C6.89543 2.5 6 3.39543 6 4.5C6 5.60457 6.89543 6.5 8 6.5ZM8 8C9.933 8 11.5 6.433 11.5 4.5C11.5 2.567 9.933 1 8 1C6.067 1 4.5 2.567 4.5 4.5C4.5 6.433 6.067 8 8 8ZM9 9.22517C9 8.84009 8.70631 8.5158 8.32139 8.50465C8.21485 8.50156 8.1077 8.5 8 8.5C4.15 8.5 1 10.5 1 12.5C1 13.8807 2.11929 15 3.5 15H5.75C6.16421 15 6.5 14.6642 6.5 14.25C6.5 13.8358 6.16421 13.5 5.75 13.5H3.5C2.94772 13.5 2.5 13.0523 2.5 12.5C2.5 12.2955 2.72027 11.6911 3.81956 11.0413C4.83752 10.4395 6.31979 10 8 10C8.05845 10 8.11666 10.0005 8.17462 10.0016C8.61664 10.0096 9 9.66727 9 9.22517ZM12.5898 9.53151C13.0242 9.6339 13.3661 9.97581 13.4685 10.4102L10.6464 13.2322C10.417 13.4617 10.1192 13.6106 9.79792 13.6565L9.26777 13.7322L9.3435 13.2021C9.3894 12.8808 9.53827 12.583 9.76777 12.3536L12.5898 9.53151ZM11.7071 14.2929L14.7755 11.2245C14.9193 11.0807 15 10.8858 15 10.6825C15 9.20101 13.799 8 12.3175 8C12.1142 8 11.9193 8.08075 11.7755 8.22448L8.70711 11.2929C8.24812 11.7519 7.95038 12.3474 7.85858 12.9899L7.68856 14.1801C7.59428 14.84 8.15996 15.4057 8.81993 15.3114L10.0101 15.1414C10.6526 15.0496 11.2481 14.7519 11.7071 14.2929Z" fill="#18181B"/>
</svg>
