<svg width="16" height="16" viewBox="0 0 16 16" fill="none" xmlns="http://www.w3.org/2000/svg">
<g clip-path="url(#clip0_2217_5625)">
<path fill-rule="evenodd" clip-rule="evenodd" d="M7 6.5C8.10457 6.5 9 5.60457 9 4.5C9 3.39543 8.10457 2.5 7 2.5C5.89543 2.5 5 3.39543 5 4.5C5 5.60457 5.89543 6.5 7 6.5ZM7 8C8.933 8 10.5 6.433 10.5 4.5C10.5 2.567 8.933 1 7 1C5.067 1 3.5 2.567 3.5 4.5C3.5 6.433 5.067 8 7 8ZM6.5 9.29862C6.5 8.86963 6.14093 8.52486 5.71487 8.57491C2.47307 8.95574 0 10.7279 0 12.5C0 13.8807 1.11929 15 2.5 15H5.75C6.16421 15 6.5 14.6642 6.5 14.25C6.5 13.8358 6.16421 13.5 5.75 13.5H2.5C1.94772 13.5 1.5 13.0523 1.5 12.5C1.5 12.2954 1.72027 11.6911 2.81956 11.0412C3.58465 10.589 4.61201 10.2283 5.78857 10.0771C6.18573 10.026 6.5 9.69904 6.5 9.29862ZM14.5025 11.189C13.5246 10.9381 12.8445 10.0425 12.8425 9.0506L12.162 8.7954C11.5367 9.65568 10.398 9.9793 9.41534 9.6114L9.00917 10.18C9.57832 10.9676 9.57832 12.0496 9.00917 12.8372L9.41534 13.4058C10.398 13.0379 11.5367 13.3615 12.162 14.2218L12.8425 13.9666C12.8445 12.9747 13.5246 12.0791 14.5025 11.8282V11.189ZM14.39 8.79254C14.5287 8.4228 14.3413 8.01066 13.9716 7.87201L12.1739 7.19788C11.7266 7.03012 11.2279 7.25677 11.0602 7.70412C10.8605 8.2366 10.2026 8.42946 9.73983 8.09892C9.34537 7.81716 8.79131 7.90433 8.50956 8.29879L7.43371 9.80498C7.18611 10.1516 7.2664 10.6333 7.61304 10.8809C8.0437 11.1886 8.0437 11.8286 7.61304 12.1362C7.2664 12.3838 7.18611 12.8656 7.43371 13.2122L8.50956 14.7184C8.79131 15.1129 9.34537 15.2 9.73982 14.9183C10.2026 14.5877 10.8605 14.7806 11.0602 15.3131C11.2279 15.7604 11.7266 15.9871 12.1739 15.8193L13.9716 15.1452C14.3413 15.0065 14.5287 14.5944 14.39 14.2247C14.2147 13.7572 14.5603 13.2586 15.0595 13.2586H15.1942C15.6406 13.2586 16.0025 12.8967 16.0025 12.4503V10.5669C16.0025 10.1205 15.6406 9.7586 15.1942 9.7586H15.0595C14.5603 9.7586 14.2147 9.25998 14.39 8.79254ZM12.557 11.4516C12.557 12.0325 12.0862 12.5033 11.5054 12.5033C10.9246 12.5033 10.4537 12.0325 10.4537 11.4516C10.4537 10.8708 10.9246 10.4 11.5054 10.4C12.0862 10.4 12.557 10.8708 12.557 11.4516Z" fill="#18181B"/>
</g>
<defs>
<clipPath id="clip0_2217_5625">
<rect width="16" height="16" fill="white"/>
</clipPath>
</defs>
</svg>
