<svg width="16" height="16" viewBox="0 0 16 16" fill="none" xmlns="http://www.w3.org/2000/svg">
<path fill-rule="evenodd" clip-rule="evenodd" d="M8 6.5C9.10457 6.5 10 5.60457 10 4.5C10 3.39543 9.10457 2.5 8 2.5C6.89543 2.5 6 3.39543 6 4.5C6 5.60457 6.89543 6.5 8 6.5ZM8 8C9.933 8 11.5 6.433 11.5 4.5C11.5 2.567 9.933 1 8 1C6.067 1 4.5 2.567 4.5 4.5C4.5 6.433 6.067 8 8 8ZM9 9.22517C9 8.84009 8.70631 8.5158 8.32139 8.50465C8.21485 8.50156 8.1077 8.5 8 8.5C4.15 8.5 1 10.5 1 12.5C1 13.8807 2.11929 15 3.5 15H6.75C7.16421 15 7.5 14.6642 7.5 14.25C7.5 13.8358 7.16421 13.5 6.75 13.5H3.5C2.94772 13.5 2.5 13.0523 2.5 12.5C2.5 12.2955 2.72027 11.6911 3.81956 11.0413C4.83752 10.4395 6.31979 10 8 10C8.05845 10 8.11666 10.0005 8.17462 10.0016C8.61664 10.0096 9 9.66727 9 9.22517ZM13 12.5C12.1716 12.5 11.5 11.8284 11.5 11C11.5 10.1716 12.1716 9.5 13 9.5C13.8284 9.5 14.5 10.1716 14.5 11C14.5 11.8284 13.8284 12.5 13 12.5ZM13 14C12.4436 14 11.9227 13.8486 11.476 13.5846L10.0303 15.0303C9.73744 15.3232 9.26256 15.3232 8.96967 15.0303C8.67678 14.7374 8.67678 14.2626 8.96967 13.9697L10.4154 12.524C10.1514 12.0773 10 11.5564 10 11C10 9.34315 11.3431 8 13 8C14.6569 8 16 9.34315 16 11C16 12.6569 14.6569 14 13 14Z" fill="#18181B"/>
</svg>
