<svg width="16" height="16" viewBox="0 0 16 16" fill="none" xmlns="http://www.w3.org/2000/svg">
<path fill-rule="evenodd" clip-rule="evenodd" d="M11.5 3H4.50005C3.67162 3 3.00005 3.67157 3.00005 4.5V9.52717L3.96161 8.82786C4.58293 8.37599 5.4263 8.38219 6.04091 8.84314L6.96874 9.53902L9.33653 7.50948C10.0105 6.93181 11.0102 6.95021 11.6624 7.55228L13 8.78701V4.5C13 3.67157 12.3285 3 11.5 3ZM14.5 10.4978V4.5C14.5 2.84315 13.1569 1.5 11.5 1.5H4.50005C2.8432 1.5 1.50005 2.84315 1.50005 4.5V10.9917C1.49998 10.9976 1.49998 11.0036 1.50005 11.0095V11.5C1.50005 13.1569 2.8432 14.5 4.50005 14.5H11.5C13.1569 14.5 14.5 13.1569 14.5 11.5V10.5026V10.4978ZM13 10.8284L10.645 8.65448C10.5518 8.56847 10.409 8.56584 10.3127 8.64837L7.48814 11.0694L7.03135 11.461L6.55005 11.1L5.14091 10.0431C5.05311 9.97729 4.93262 9.97641 4.84386 10.041L3.00005 11.3819V11.5C3.00005 12.3284 3.67162 13 4.50005 13H11.5C12.3285 13 13 12.3284 13 11.5V10.8284ZM7.50004 6C7.50004 6.82843 6.82847 7.5 6.00005 7.5C5.17162 7.5 4.50005 6.82843 4.50005 6C4.50005 5.17157 5.17162 4.5 6.00005 4.5C6.82847 4.5 7.50004 5.17157 7.50004 6Z" fill="#18181B"/>
</svg>
