<svg width="16" height="16" viewBox="0 0 16 16" fill="none" xmlns="http://www.w3.org/2000/svg">
<path fill-rule="evenodd" clip-rule="evenodd" d="M8.92157 3.69975L7.81066 4.81066L6.44352 6.1778C6.40667 8.04957 7.95043 9.59333 9.8222 9.55648L11.1893 8.18934L12.3003 7.07843C12.7483 6.63039 13 6.02271 13 5.38909C13 4.06963 11.9304 3 10.6109 3C9.97729 3 9.36961 3.25171 8.92157 3.69975ZM7 3.5L5 5.5L2.63909 7.86091C1.90974 8.59026 1.5 9.57946 1.5 10.6109C1.5 12.7588 3.2412 14.5 5.38909 14.5C6.42054 14.5 7.40974 14.0903 8.13909 13.3609L10.5 11L12.5 9L13.3609 8.13909C14.0903 7.40974 14.5 6.42054 14.5 5.38909C14.5 3.2412 12.7588 1.5 10.6109 1.5C9.57946 1.5 8.59026 1.90974 7.86091 2.63909L7 3.5ZM7.07843 12.3003L8.49053 10.8881C6.85621 10.4398 5.56024 9.14379 5.11185 7.50947L3.69975 8.92157C3.25171 9.36961 3 9.97729 3 10.6109C3 11.9304 4.06963 13 5.38909 13C6.02271 13 6.63039 12.7483 7.07843 12.3003ZM7.96955 5.96967C7.67665 6.26256 7.67665 6.73744 7.96955 7.03033C8.26244 7.32322 8.73731 7.32322 9.03021 7.03033L10.5302 5.53033C10.8231 5.23744 10.8231 4.76256 10.5302 4.46967C10.2373 4.17678 9.76244 4.17678 9.46955 4.46967L7.96955 5.96967Z" fill="#18181B"/>
</svg>
