<svg width="16" height="16" viewBox="0 0 16 16" fill="none" xmlns="http://www.w3.org/2000/svg">
<g clip-path="url(#clip0_2217_3844)">
<path fill-rule="evenodd" clip-rule="evenodd" d="M11.8891 4.11099C9.7412 1.96311 6.2588 1.96311 4.11091 4.11099C1.51105 6.71085 1.98936 9.76762 3.05025 10.8285C3.34315 11.1214 3.81802 11.1214 4.11091 10.8285L5.03508 9.90434C4.52561 9.05483 4.44688 7.99451 4.86164 7.06129L5.40874 5.83032C5.69376 5.18902 6.53343 5.03311 7.02966 5.52935L7.21977 5.71946L7.96975 4.96949C8.26264 4.67659 8.73751 4.67659 9.03041 4.96949C9.3233 5.26238 9.3233 5.73725 9.03041 6.03015L8.28043 6.78012L9.21977 7.71946L9.96975 6.96949C10.2626 6.67659 10.7375 6.67659 11.0304 6.96949C11.3233 7.26238 11.3233 7.73725 11.0304 8.03015L10.2804 8.78012L10.4705 8.97021C10.9668 9.46644 10.8109 10.3061 10.1696 10.5911L8.93858 11.1382C8.00546 11.553 6.94526 11.4743 6.0958 10.9649L5.17157 11.8892C4.29289 12.7678 2.86827 12.7678 1.98959 11.8892C0.222055 10.1216 -0.00674187 6.10733 3.05025 3.05033C5.78392 0.316663 10.2161 0.316663 12.9497 3.05033C15.6834 5.784 15.6834 10.2162 12.9497 12.9498C11.0764 14.8232 8.4059 15.4118 6.03325 14.7193C5.63562 14.6033 5.40735 14.1869 5.52339 13.7892C5.63943 13.3916 6.05585 13.1634 6.45347 13.2794C8.32147 13.8245 10.4184 13.3598 11.8891 11.8892C14.037 9.74128 14.037 6.25888 11.8891 4.11099ZM6.23236 7.6705L6.48379 7.10479L8.89508 9.51609L8.32937 9.76751C7.72867 10.0345 7.02558 9.90394 6.56075 9.43912C6.09593 8.97429 5.96538 8.2712 6.23236 7.6705Z" fill="#18181B"/>
</g>
<defs>
<clipPath id="clip0_2217_3844">
<rect width="16" height="16" fill="white"/>
</clipPath>
</defs>
</svg>
