<svg width="16" height="16" viewBox="0 0 16 16" fill="none" xmlns="http://www.w3.org/2000/svg">
<g clip-path="url(#clip0_2217_4808)">
<path fill-rule="evenodd" clip-rule="evenodd" d="M12.4114 6.33005C13.6107 6.62614 14.5 7.70922 14.5 9V9.25C14.5 10.7688 13.2688 12 11.75 12H11.5C10.5426 12 9.6995 11.5108 9.20702 10.7687C8.93427 10.3577 8.76906 9.86914 8.75155 9.34319C8.75151 9.34212 8.75148 9.34104 8.75144 9.33997C8.75145 9.34019 8.75144 9.33974 8.75144 9.33997H8.75L8.75017 9.28112L8.75 9.25V9C8.75 8.86899 8.75916 8.74011 8.77688 8.61399C8.79647 8.35305 8.82676 8.09617 8.86776 7.8438C8.96891 7.22111 9.13524 6.62586 9.36675 6.06489C9.38601 6.01822 9.40572 5.97179 9.42588 5.9256C9.75147 5.17966 10.1947 4.49662 10.7556 3.893C11.009 3.6202 11.2865 3.36363 11.5881 3.12481C11.6204 3.09922 11.6529 3.07384 11.6858 3.04866C11.7272 3.01694 11.7782 2.99998 11.8303 2.99998C12.0164 2.99998 12.136 3.20233 12.0495 3.36705C12.0341 3.3965 12.0179 3.42754 12.0011 3.46011C11.9496 3.55978 11.8921 3.67378 11.8303 3.80022C11.7356 3.99437 11.6309 4.21786 11.5231 4.46389C11.4825 4.55657 11.4415 4.65244 11.4004 4.75115C11.203 5.2251 11.004 5.76442 10.8434 6.32889C10.8611 6.32454 10.8789 6.32036 10.8968 6.31636C11.0909 6.27292 11.2928 6.25 11.5 6.25H11.75C11.978 6.25 12.1995 6.27775 12.4114 6.33005ZM12.9597 4.92464C14.7176 5.44565 16 7.07307 16 9V9.25C16 11.5972 14.0972 13.5 11.75 13.5H11.5C10.0482 13.5 8.76669 12.7723 8.00004 11.6615C7.23335 12.7722 5.95167 13.5 4.5 13.5H4.25C1.97658 13.5 0.120533 11.7154 0.00562572 9.46997C0.00176811 9.42554 -0.000125885 9.38072 6.67572e-06 9.33563L0.000160217 9.28314L-2.28882e-05 9.25L0 9C0 8.8166 0.0117044 8.63523 0.0345612 8.45673C0.242275 5.83651 1.39304 3.49054 3.52344 1.85807C3.8319 1.6217 4.20499 1.50003 4.58035 1.50003C5.92128 1.50003 6.72589 2.92463 6.12767 4.06426C6.01688 4.27532 5.8684 4.57172 5.70973 4.92465C6.49827 5.15837 7.19114 5.6147 7.71549 6.22084C8.25642 4.51456 9.27146 3.00899 10.7734 1.85804C11.0819 1.62167 11.455 1.49998 11.8303 1.49998C13.1713 1.49998 13.9759 2.92458 13.3777 4.06422C13.2669 4.27528 13.1184 4.5717 12.9597 4.92464ZM5.16137 6.33005C4.94952 6.27775 4.728 6.25 4.5 6.25H4.25C4.04278 6.25 3.84092 6.27292 3.64681 6.31636C3.62893 6.32036 3.61111 6.32454 3.59337 6.32888C3.75397 5.76441 3.95306 5.2251 4.15042 4.75115C4.19151 4.65246 4.23254 4.5566 4.27312 4.46394C4.38088 4.21791 4.48556 3.99441 4.58035 3.80026C4.64208 3.67383 4.69961 3.55983 4.75108 3.46016C4.7679 3.42759 4.78408 3.39654 4.79953 3.36709C4.886 3.20238 4.76638 3.00003 4.58035 3.00003C4.52819 3.00003 4.47719 3.01698 4.43579 3.0487C4.40294 3.07388 4.37035 3.09926 4.33805 3.12485C4.03652 3.36367 3.75902 3.62024 3.50555 3.89303C2.9447 4.49663 2.50148 5.17966 2.17589 5.92559C2.15573 5.97177 2.13603 6.01819 2.11677 6.06485C1.88525 6.62585 1.71891 7.22112 1.61775 7.84386C1.57676 8.09619 1.54647 8.35304 1.52689 8.61393C1.50916 8.74008 1.5 8.86897 1.5 9V9.25L1.50017 9.28114L1.5 9.33939L1.50142 9.33934C1.50143 9.33957 1.50142 9.33911 1.50142 9.33934C1.50146 9.34042 1.50152 9.34218 1.50155 9.34326C1.51908 9.86921 1.6843 10.3577 1.95705 10.7687C2.44954 11.5108 3.29264 12 4.25 12H4.5C6.01878 12 7.25 10.7688 7.25 9.25V9C7.25 7.70922 6.3607 6.62615 5.16137 6.33005Z" fill="#18181B"/>
</g>
<defs>
<clipPath id="clip0_2217_4808">
<rect width="16" height="16" fill="white"/>
</clipPath>
</defs>
</svg>
