<svg width="16" height="16" viewBox="0 0 16 16" fill="none" xmlns="http://www.w3.org/2000/svg">
<path fill-rule="evenodd" clip-rule="evenodd" d="M6.3 2L3.9 0.5L2 2L2 13.8112L2 15.5L3.5 14.7241L4.9 14L7.3 15.5L9.7 14L12.1 15.5L14 14L14 2.18877L14 0.499999L12.5 1.27586L11.1 2L8.7 0.5L6.3 2ZM8.7 2.26887L7.095 3.272L6.3 3.76887L5.505 3.272L4.00056 2.33172L3.5 2.7269L3.5 13.0354L4.21087 12.6677L4.97012 12.275L5.695 12.728L7.3 13.7311L8.905 12.728L9.7 12.2311L10.495 12.728L11.9994 13.6683L12.5 13.2731L12.5 2.96464L11.7891 3.33233L11.0299 3.72504L10.305 3.272L8.7 2.26887ZM5 6.5C5 6.08579 5.33579 5.75 5.75 5.75L10.25 5.75C10.6642 5.75 11 6.08579 11 6.5C11 6.91421 10.6642 7.25 10.25 7.25L5.75 7.25C5.33579 7.25 5 6.91421 5 6.5ZM5.75 8.75C5.33579 8.75 5 9.08579 5 9.5C5 9.91421 5.33579 10.25 5.75 10.25L8.25 10.25C8.66421 10.25 9 9.91421 9 9.5C9 9.08579 8.66421 8.75 8.25 8.75L5.75 8.75Z" fill="#18181B"/>
</svg>
