<svg width="16" height="16" viewBox="0 0 16 16" fill="none" xmlns="http://www.w3.org/2000/svg">
<path fill-rule="evenodd" clip-rule="evenodd" d="M11.2197 2.28033C10.9268 1.98744 10.9268 1.51256 11.2197 1.21967C11.5126 0.926777 11.9874 0.926777 12.2803 1.21967C16.025 4.96434 16.025 11.0357 12.2803 14.7803C11.9874 15.0732 11.5126 15.0732 11.2197 14.7803C10.9268 14.4874 10.9268 14.0126 11.2197 13.7197C14.3786 10.5608 14.3786 5.43922 11.2197 2.28033ZM4.7803 2.28033C5.07319 1.98744 5.07319 1.51256 4.7803 1.21967C4.4874 0.926777 4.01253 0.926777 3.71964 1.21967C-0.0250354 4.96434 -0.0250354 11.0357 3.71964 14.7803C4.01253 15.0732 4.4874 15.0732 4.7803 14.7803C5.07319 14.4874 5.07319 14.0126 4.7803 13.7197C1.62141 10.5608 1.62141 5.43922 4.7803 2.28033Z" fill="#18181B"/>
</svg>
