<svg width="16" height="16" viewBox="0 0 16 16" fill="none" xmlns="http://www.w3.org/2000/svg">
<g clip-path="url(#clip0_2217_4416)">
<path fill-rule="evenodd" clip-rule="evenodd" d="M5.04246 0.155732C5.28221 -0.0288546 5.6094 -0.0512986 5.8721 0.0988209C6.70444 0.574441 7.37924 0.849368 8.02797 0.984518C8.67248 1.11879 9.33189 1.12355 10.1439 1.00754C10.3939 0.971827 10.6451 1.06433 10.8123 1.25365C10.9794 1.44298 11.04 1.7037 10.9736 1.94734L10.4118 4.00713C12.9566 5.75949 14 10.1434 14 12.75C14 14.75 11 16 8 16C5 16 2 14.75 2 12.75C2 10.1422 3.04434 5.75544 5.59171 4.0047L4.77532 0.94325C4.69736 0.650891 4.80271 0.340319 5.04246 0.155732ZM7.99264 5.60088C8.52799 5.6058 9.03619 5.48474 9.59654 5.26898C10.1464 5.65429 10.6435 6.25193 11.0827 7.05437C10.277 7.6567 9.20287 7.94014 8.1233 7.76021C7.71472 7.69211 7.3283 7.96813 7.2602 8.3767C7.19211 8.78528 7.46812 9.1717 7.8767 9.2398C9.24245 9.46742 10.6128 9.15979 11.7064 8.4475C12.2497 9.94083 12.5 11.5687 12.5 12.75C12.5 12.8994 12.3859 13.3175 11.4542 13.7834C10.5789 14.221 9.31843 14.5 8 14.5C6.68157 14.5 5.42105 14.221 4.54582 13.7834C3.61411 13.3175 3.5 12.8994 3.5 12.75C3.5 12.3397 3.53019 11.8756 3.59235 11.3819C5.16427 12.32 6.96313 12.7292 8.84303 12.4942C9.25404 12.4428 9.54559 12.068 9.49421 11.657C9.44283 11.246 9.06799 10.9544 8.65697 11.0058C6.93823 11.2206 5.30065 10.7811 3.8887 9.78716C4.08761 8.97852 4.36568 8.15956 4.72934 7.41739C5.21405 6.4282 5.77589 5.70737 6.40732 5.26627C6.95569 5.46656 7.46018 5.59598 7.99264 5.60088ZM6.64543 2.13458L7.12357 3.92759C7.48754 4.04807 7.75704 4.09865 8.00644 4.10094C8.25274 4.10321 8.51935 4.05855 8.87662 3.93531L9.24396 2.58839C8.72646 2.59961 8.22684 2.55816 7.72203 2.45299C7.36149 2.37788 7.00562 2.27178 6.64543 2.13458Z" fill="black"/>
</g>
<defs>
<clipPath id="clip0_2217_4416">
<rect width="16" height="16" fill="white"/>
</clipPath>
</defs>
</svg>
