<svg width="16" height="16" viewBox="0 0 16 16" fill="none" xmlns="http://www.w3.org/2000/svg">
<path fill-rule="evenodd" clip-rule="evenodd" d="M13.25 3H8.75V13H11.25C11.6642 13 12 13.3358 12 13.75C12 14.1642 11.6642 14.5 11.25 14.5H8H4.75C4.33579 14.5 4 14.1642 4 13.75C4 13.3358 4.33579 13 4.75 13H7.25V3H2.75C2.33579 3 2 2.66421 2 2.25C2 1.83579 2.33579 1.5 2.75 1.5H8H13.25C13.6642 1.5 14 1.83579 14 2.25C14 2.66421 13.6642 3 13.25 3ZM1.64284 8.56834L1.64989 8.58596C1.87071 9.13801 2.40539 9.5 2.99996 9.5C3.59453 9.5 4.12921 9.13801 4.35003 8.58596L4.35708 8.56834L2.99996 5.8541L1.64284 8.56834ZM2.99996 4C2.54031 4 2.12011 4.2597 1.91455 4.67082L0.200788 8.09834C0.0730469 8.35383 0.0606554 8.65174 0.166739 8.91695L0.257178 9.14305C0.705793 10.2646 1.79203 11 2.99996 11C4.20789 11 5.29413 10.2646 5.74274 9.14305L5.83318 8.91695C5.93926 8.65174 5.92687 8.35383 5.79913 8.09834L4.08537 4.67082C3.87981 4.2597 3.45961 4 2.99996 4ZM11.6428 8.56834L11.6499 8.58596C11.8707 9.13801 12.4054 9.5 13 9.5C13.5945 9.5 14.1292 9.13801 14.35 8.58596L14.3571 8.56834L13 5.8541L11.6428 8.56834ZM13 4C12.5403 4 12.1201 4.2597 11.9145 4.67082L10.2008 8.09834C10.073 8.35383 10.0607 8.65174 10.1667 8.91695L10.2572 9.14305C10.7058 10.2646 11.792 11 13 11C14.2079 11 15.2941 10.2646 15.7427 9.14305L15.8332 8.91695C15.9393 8.65174 15.9269 8.35383 15.7991 8.09834L14.0854 4.67082C13.8798 4.2597 13.4596 4 13 4Z" fill="#18181B"/>
</svg>
