<svg width="16" height="16" viewBox="0 0 16 16" fill="none" xmlns="http://www.w3.org/2000/svg">
<path fill-rule="evenodd" clip-rule="evenodd" d="M4.5 6C5.32843 6 6 5.32843 6 4.5C6 3.67157 5.32843 3 4.5 3C3.67157 3 3 3.67157 3 4.5C3 5.32843 3.67157 6 4.5 6ZM1.5 4.5C1.5 6.15685 2.84315 7.5 4.5 7.5C5.05636 7.5 5.57734 7.34855 6.02398 7.08464L6.93934 8L6.02398 8.91536C5.57734 8.65145 5.05636 8.5 4.5 8.5C2.84315 8.5 1.5 9.84314 1.5 11.5C1.5 13.1569 2.84315 14.5 4.5 14.5C6.15685 14.5 7.5 13.1569 7.5 11.5C7.5 10.9436 7.34855 10.4227 7.08464 9.97602L8.1215 8.93915L13.6221 12.1478C13.9799 12.3565 14.4391 12.2357 14.6478 11.8779C14.8565 11.5201 14.7357 11.0609 14.3779 10.8522L9.48848 8L14.3779 5.14783C14.7357 4.93912 14.8565 4.47988 14.6478 4.1221C14.4391 3.76431 13.9799 3.64346 13.6221 3.85217L8.1215 7.06084L7.08464 6.02397C7.34855 5.57734 7.5 5.05636 7.5 4.5C7.5 2.84315 6.15685 1.5 4.5 1.5C2.84315 1.5 1.5 2.84315 1.5 4.5ZM4.5 10C5.32843 10 6 10.6716 6 11.5C6 12.3284 5.32843 13 4.5 13C3.67157 13 3 12.3284 3 11.5C3 10.6716 3.67157 10 4.5 10Z" fill="#18181B"/>
</svg>
