<svg width="16" height="16" viewBox="0 0 16 16" fill="none" xmlns="http://www.w3.org/2000/svg">
<g clip-path="url(#clip0_2217_2648)">
<path fill-rule="evenodd" clip-rule="evenodd" d="M5.51483 3.5H6.13615L6.57549 3.06066L7.64656 1.98959C7.84182 1.79432 8.15841 1.79432 8.35367 1.98959L9.42475 3.06066L9.86409 3.5H10.4854H12.0001C12.2763 3.5 12.5001 3.72386 12.5001 4V5.51471V6.13603L12.9395 6.57537L14.0105 7.64644C14.2058 7.8417 14.2058 8.15828 14.0105 8.35355L12.9395 9.42461L12.5001 9.86395V10.4853V12C12.5001 12.2761 12.2763 12.5 12.0001 12.5H10.4854H9.86407L9.42473 12.9393L8.35367 14.0104C8.15841 14.2057 7.84182 14.2057 7.64656 14.0104L6.5755 12.9393L6.13616 12.5H5.51484H4.00012C3.72397 12.5 3.50012 12.2761 3.50012 12V10.4853V9.86396L3.06078 9.42461L1.98971 8.35355C1.79445 8.15828 1.79445 7.8417 1.98971 7.64644L3.06078 6.57537L3.50012 6.13603V5.51471V4C3.50012 3.72386 3.72397 3.5 4.00012 3.5H5.51483ZM9.41433 0.928926C8.63328 0.147877 7.36695 0.147878 6.5859 0.928926L5.51483 2H4.00012C2.89555 2 2.00012 2.89543 2.00012 4V5.51471L0.929048 6.58578C0.148 7.36683 0.148 8.63316 0.929048 9.41421L2.00012 10.4853V12C2.00012 13.1046 2.89555 14 4.00012 14H5.51484L6.5859 15.0711C7.36695 15.8521 8.63328 15.8521 9.41433 15.0711L10.4854 14H12.0001C13.1047 14 14.0001 13.1046 14.0001 12V10.4853L15.0712 9.41421C15.8522 8.63316 15.8522 7.36683 15.0712 6.58578L14.0001 5.51471V4C14.0001 2.89543 13.1047 2 12.0001 2H10.4854L9.41433 0.928926ZM11.1002 6.45C11.3487 6.11863 11.2815 5.64853 10.9502 5.4C10.6188 5.15147 10.1487 5.21863 9.90015 5.55L7.41901 8.85819L6.03048 7.46967C5.73759 7.17678 5.26272 7.17678 4.96982 7.46967C4.67693 7.76256 4.67693 8.23744 4.96982 8.53033L6.96982 10.5303C7.12356 10.6841 7.33645 10.7635 7.55332 10.7481C7.77019 10.7327 7.9697 10.6239 8.10015 10.45L11.1002 6.45Z" fill="#18181B"/>
</g>
<defs>
<clipPath id="clip0_2217_2648">
<rect width="16" height="16" fill="white"/>
</clipPath>
</defs>
</svg>
