<svg width="16" height="16" viewBox="0 0 16 16" fill="none" xmlns="http://www.w3.org/2000/svg">
<path fill-rule="evenodd" clip-rule="evenodd" d="M3.01776 3.06819L3.39458 4.5L4.58029 9.00535C5.05827 10.8215 7.06853 11.757 8.76578 10.953L13.2841 8.81273C14.3318 8.31642 14.9998 7.26085 14.9998 6.10152V5C14.9998 3.89543 14.1044 3 12.9998 3H4.55562L4.40693 2.46471C4.16647 1.59907 3.37831 1 2.47989 1H0.750061C0.335848 1 6.10352e-05 1.33579 6.10352e-05 1.75C6.10352e-05 2.16421 0.335848 2.5 0.750061 2.5H2.47989C2.70449 2.5 2.90154 2.64977 2.96165 2.86618L3.01776 3.06819ZM8.12364 9.59742L12.642 7.45712C13.1658 7.20897 13.4998 6.68119 13.4998 6.10152V5C13.4998 4.72386 13.276 4.5 12.9998 4.5H4.94566L6.03089 8.62359C6.26988 9.53168 7.27501 9.99941 8.12364 9.59742ZM12.0001 14.75C12.9666 14.75 13.7501 13.9665 13.7501 13C13.7501 12.0335 12.9666 11.25 12.0001 11.25C11.0336 11.25 10.2501 12.0335 10.2501 13C10.2501 13.9665 11.0336 14.75 12.0001 14.75ZM4.75006 13C4.75006 13.9665 3.96656 14.75 3.00006 14.75C2.03356 14.75 1.25006 13.9665 1.25006 13C1.25006 12.0335 2.03356 11.25 3.00006 11.25C3.96656 11.25 4.75006 12.0335 4.75006 13Z" fill="#18181B"/>
</svg>
