<svg width="16" height="16" viewBox="0 0 16 16" fill="none" xmlns="http://www.w3.org/2000/svg">
<path fill-rule="evenodd" clip-rule="evenodd" d="M3.2612 2.18638C3.59801 1.91151 4.08973 2.03195 4.30542 2.40941C4.50179 2.75305 4.39587 3.18637 4.09546 3.44406C2.81269 4.54447 2 6.17729 2 7.99993C2 9.82256 2.81269 11.4554 4.09546 12.5558C4.39587 12.8135 4.50179 13.2468 4.30542 13.5904C4.08973 13.9679 3.59801 14.0883 3.2612 13.8135C1.57601 12.4382 0.5 10.3447 0.5 7.99993C0.5 5.65515 1.57602 3.56168 3.2612 2.18638ZM11.6946 2.40941C11.4982 2.75305 11.6041 3.18637 11.9045 3.44406C13.1873 4.54447 14 6.17729 14 7.99993C14 9.82256 13.1873 11.4554 11.9045 12.5558C11.6041 12.8135 11.4982 13.2468 11.6946 13.5904C11.9103 13.9679 12.402 14.0883 12.7388 13.8135C14.424 12.4382 15.5 10.3447 15.5 7.99993C15.5 5.65515 14.424 3.56168 12.7388 2.18638C12.402 1.91151 11.9103 2.03195 11.6946 2.40941ZM4.75934 4.87772C5.0743 4.55089 5.59578 4.66755 5.82098 5.06164C6.0101 5.39261 5.91847 5.80636 5.67706 6.10137C5.25389 6.61852 5 7.27958 5 7.99993C5 8.72028 5.25389 9.38133 5.67706 9.89848C5.91847 10.1935 6.0101 10.6072 5.82098 10.9382C5.59578 11.3323 5.0743 11.449 4.75934 11.1221C3.97955 10.3129 3.5 9.21244 3.5 7.99993C3.5 6.78741 3.97955 5.6869 4.75934 4.87772ZM10.179 5.06164C9.9899 5.39261 10.0815 5.80636 10.3229 6.10137C10.7461 6.61852 11 7.27958 11 7.99993C11 8.72028 10.7461 9.38133 10.3229 9.89848C10.0815 10.1935 9.9899 10.6072 10.179 10.9382C10.4042 11.3323 10.9257 11.449 11.2407 11.1221C12.0204 10.3129 12.5 9.21244 12.5 7.99993C12.5 6.78741 12.0204 5.68691 11.2407 4.87772C10.9257 4.55089 10.4042 4.66755 10.179 5.06164ZM8 9.49994C8.82843 9.49994 9.5 8.82837 9.5 7.99994C9.5 7.17151 8.82843 6.49994 8 6.49994C7.17157 6.49994 6.5 7.17151 6.5 7.99994C6.5 8.82837 7.17157 9.49994 8 9.49994Z" fill="#18181B"/>
</svg>
