<svg width="16" height="16" viewBox="0 0 16 16" fill="none" xmlns="http://www.w3.org/2000/svg">
<path fill-rule="evenodd" clip-rule="evenodd" d="M7.5 5C7.5 5.82843 6.82843 6.5 6 6.5C5.17157 6.5 4.5 5.82843 4.5 5C4.5 4.17157 5.17157 3.5 6 3.5C6.82843 3.5 7.5 4.17157 7.5 5ZM8.90549 5.75C8.57245 7.04392 7.39788 8 6 8C4.60212 8 3.42755 7.04392 3.09451 5.75H1.74731C1.3331 5.75 0.997314 5.41421 0.997314 5C0.997314 4.58579 1.3331 4.25 1.74731 4.25H3.09451C3.42755 2.95608 4.60212 2 6 2C7.39788 2 8.57245 2.95608 8.90549 4.25H14.2501C14.6643 4.25 15.0001 4.58579 15.0001 5C15.0001 5.41421 14.6643 5.75 14.2501 5.75H8.90549ZM1.74731 10.25L7.09207 10.25C7.4251 8.95608 8.59968 8 9.99756 8C11.3954 8 12.57 8.95608 12.903 10.25H14.2502C14.6645 10.25 15.0002 10.5858 15.0002 11C15.0002 11.4142 14.6645 11.75 14.2502 11.75H12.903C12.57 13.0439 11.3954 14 9.99756 14C8.59968 14 7.4251 13.0439 7.09207 11.75L1.74731 11.75C1.3331 11.75 0.997314 11.4142 0.997314 11C0.997314 10.5858 1.3331 10.25 1.74731 10.25ZM9.99756 9.5C9.16913 9.5 8.49756 10.1716 8.49756 11C8.49756 11.8284 9.16913 12.5 9.99756 12.5C10.826 12.5 11.4976 11.8284 11.4976 11C11.4976 10.1716 10.826 9.5 9.99756 9.5Z" fill="#18181B"/>
</svg>
