<svg width="16" height="16" viewBox="0 0 16 16" fill="none" xmlns="http://www.w3.org/2000/svg">
<path fill-rule="evenodd" clip-rule="evenodd" d="M3 4.5C3 3.67157 3.67157 3 4.5 3H6.25C6.66421 3 7 2.66421 7 2.25C7 1.83579 6.66421 1.5 6.25 1.5H4.5C2.84315 1.5 1.5 2.84315 1.5 4.5V6.25C1.5 6.66421 1.83579 7 2.25 7C2.66421 7 3 6.66421 3 6.25V4.5ZM9.75 1.5C9.33579 1.5 9 1.83579 9 2.25C9 2.66421 9.33579 3 9.75 3H11.5C12.3284 3 13 3.67157 13 4.5V6.25C13 6.66421 13.3358 7 13.75 7C14.1642 7 14.5 6.66421 14.5 6.25V4.5C14.5 2.84315 13.1569 1.5 11.5 1.5H9.75ZM3 9.75C3 9.33579 2.66421 9 2.25 9C1.83579 9 1.5 9.33579 1.5 9.75V11.5C1.5 13.1569 2.84315 14.5 4.5 14.5H6.25C6.66421 14.5 7 14.1642 7 13.75C7 13.3358 6.66421 13 6.25 13H4.5C3.67157 13 3 12.3284 3 11.5V9.75ZM14.5 9.75C14.5 9.33579 14.1642 9 13.75 9C13.3358 9 13 9.33579 13 9.75V11.5C13 12.3284 12.3284 13 11.5 13H9.75C9.33579 13 9 13.3358 9 13.75C9 14.1642 9.33579 14.5 9.75 14.5H11.5C13.1569 14.5 14.5 13.1569 14.5 11.5V9.75ZM5.7522 5.00226C5.33798 5.00226 5.0022 5.33804 5.0022 5.75226C5.0022 6.16647 5.33798 6.50226 5.7522 6.50226H7.25183L7.25 10.2519C7.2498 10.6661 7.58542 11.0021 7.99963 11.0023C8.41385 11.0025 8.7498 10.6668 8.75 10.2526L8.75183 6.50226H10.2522C10.6664 6.50226 11.0022 6.16647 11.0022 5.75226C11.0022 5.33804 10.6664 5.00226 10.2522 5.00226H8.0022H5.7522Z" fill="#18181B"/>
</svg>
