<svg width="16" height="16" viewBox="0 0 16 16" fill="none" xmlns="http://www.w3.org/2000/svg">
<path fill-rule="evenodd" clip-rule="evenodd" d="M3 4.5C3 3.67157 3.67157 3 4.5 3H6.25C6.66421 3 7 2.66421 7 2.25C7 1.83579 6.66421 1.5 6.25 1.5H4.5C2.84315 1.5 1.5 2.84315 1.5 4.5V6.25C1.5 6.66421 1.83579 7 2.25 7C2.66421 7 3 6.66421 3 6.25V4.5ZM9.75 1.5C9.33579 1.5 9 1.83579 9 2.25C9 2.66421 9.33579 3 9.75 3H11.5C12.3284 3 13 3.67157 13 4.5V6.25C13 6.66421 13.3358 7 13.75 7C14.1642 7 14.5 6.66421 14.5 6.25V4.5C14.5 2.84315 13.1569 1.5 11.5 1.5H9.75ZM3 9.75C3 9.33579 2.66421 9 2.25 9C1.83579 9 1.5 9.33579 1.5 9.75V11.5C1.5 13.1569 2.84315 14.5 4.5 14.5H6.25C6.66421 14.5 7 14.1642 7 13.75C7 13.3358 6.66421 13 6.25 13H4.5C3.67157 13 3 12.3284 3 11.5V9.75ZM14.5 9.75C14.5 9.33579 14.1642 9 13.75 9C13.3358 9 13 9.33579 13 9.75V11.5C13 12.3284 12.3284 13 11.5 13H9.75C9.33579 13 9 13.3358 9 13.75C9 14.1642 9.33579 14.5 9.75 14.5H11.5C13.1569 14.5 14.5 13.1569 14.5 11.5V9.75ZM10 8C10 9.10457 9.10457 10 8 10C6.89543 10 6 9.10457 6 8C6 6.89543 6.89543 6 8 6C9.10457 6 10 6.89543 10 8ZM11.5 8C11.5 9.933 9.933 11.5 8 11.5C6.067 11.5 4.5 9.933 4.5 8C4.5 6.067 6.067 4.5 8 4.5C9.933 4.5 11.5 6.067 11.5 8Z" fill="#18181B"/>
</svg>
