<svg width="16" height="16" viewBox="0 0 16 16" fill="none" xmlns="http://www.w3.org/2000/svg">
<path fill-rule="evenodd" clip-rule="evenodd" d="M3.25 3.5C2.83579 3.5 2.5 3.83579 2.5 4.25V11.75C2.5 12.1642 2.83579 12.5 3.25 12.5H4.26087C4.67508 12.5 5.01087 12.8358 5.01087 13.25C5.01087 13.6642 4.67508 14 4.26087 14H3.25C2.00736 14 1 12.9926 1 11.75V4.25C1 3.00736 2.00736 2 3.25 2H4.26087C4.67508 2 5.01087 2.33579 5.01087 2.75C5.01087 3.16421 4.67508 3.5 4.26087 3.5H3.25ZM10.9891 2.75C10.9891 2.33579 11.3249 2 11.7391 2H12.75C13.9926 2 15 3.00736 15 4.25V11.75C15 12.9926 13.9926 14 12.75 14H11.7391C11.3249 14 10.9891 13.6642 10.9891 13.25C10.9891 12.8358 11.3249 12.5 11.7391 12.5H12.75C13.1642 12.5 13.5 12.1642 13.5 11.75V4.25C13.5 3.83579 13.1642 3.5 12.75 3.5H11.7391C11.3249 3.5 10.9891 3.16421 10.9891 2.75ZM6.79108 5.33778C6.98006 4.83385 7.4618 4.5 8 4.5C8.5382 4.5 9.01995 4.83385 9.20892 5.33778L10.9522 9.98666C11.0977 10.3745 10.9012 10.8068 10.5133 10.9522C10.1255 11.0977 9.69319 10.9012 9.54775 10.5133L9.16775 9.5L6.83225 9.5L6.45225 10.5133C6.30681 10.9012 5.8745 11.0977 5.48666 10.9522C5.09882 10.8068 4.90231 10.3745 5.04775 9.98666L6.79108 5.33778ZM7.39475 8L8.60525 8L8 6.386L7.39475 8Z" fill="#18181B"/>
</svg>
