<svg width="16" height="16" viewBox="0 0 16 16" fill="none" xmlns="http://www.w3.org/2000/svg">
<path fill-rule="evenodd" clip-rule="evenodd" d="M4.5 3C3.67157 3 3 3.67157 3 4.5V6.25C3 6.66421 2.66421 7 2.25 7C1.83579 7 1.5 6.66421 1.5 6.25V4.5C1.5 2.84315 2.84315 1.5 4.5 1.5H6.25C6.66421 1.5 7 1.83579 7 2.25C7 2.66421 6.66421 3 6.25 3H4.5ZM9 2.25C9 1.83579 9.33579 1.5 9.75 1.5H11.5C13.1569 1.5 14.5 2.84315 14.5 4.5V6.25C14.5 6.66421 14.1642 7 13.75 7C13.3358 7 13 6.66421 13 6.25V4.5C13 3.67157 12.3284 3 11.5 3H9.75C9.33579 3 9 2.66421 9 2.25ZM2.25 9C2.66421 9 3 9.33579 3 9.75V11.5C3 12.3284 3.67157 13 4.5 13H6.25C6.66421 13 7 13.3358 7 13.75C7 14.1642 6.66421 14.5 6.25 14.5H4.5C2.84315 14.5 1.5 13.1569 1.5 11.5V9.75C1.5 9.33579 1.83579 9 2.25 9ZM13.75 9C14.1642 9 14.5 9.33579 14.5 9.75V11.5C14.5 13.1569 13.1569 14.5 11.5 14.5H9.75C9.33579 14.5 9 14.1642 9 13.75C9 13.3358 9.33579 13 9.75 13H11.5C12.3284 13 13 12.3284 13 11.5V9.75C13 9.33579 13.3358 9 13.75 9Z" fill="#18181B"/>
</svg>
