<svg width="16" height="16" viewBox="0 0 16 16" fill="none" xmlns="http://www.w3.org/2000/svg">
<path fill-rule="evenodd" clip-rule="evenodd" d="M11.5 3H4.5C3.67157 3 3 3.67157 3 4.5V11.5C3 12.3284 3.67157 13 4.5 13H11.5C12.3284 13 13 12.3284 13 11.5V4.5C13 3.67157 12.3284 3 11.5 3ZM4.5 1.5C2.84315 1.5 1.5 2.84315 1.5 4.5V11.5C1.5 13.1569 2.84315 14.5 4.5 14.5H11.5C13.1569 14.5 14.5 13.1569 14.5 11.5V4.5C14.5 2.84315 13.1569 1.5 11.5 1.5H4.5ZM10.1233 4.2602C10.5319 4.3283 10.8079 4.71472 10.7398 5.1233L10.6353 5.75H11.5C11.9142 5.75 12.25 6.08579 12.25 6.5C12.25 6.91421 11.9142 7.25 11.5 7.25H10.3853L10.1353 8.75H11C11.4142 8.75 11.75 9.08579 11.75 9.5C11.75 9.91421 11.4142 10.25 11 10.25H9.88535L9.7398 11.1233C9.6717 11.5319 9.28528 11.8079 8.8767 11.7398C8.46812 11.6717 8.19211 11.2853 8.2602 10.8767L8.36466 10.25H6.88535L6.7398 11.1233C6.6717 11.5319 6.28528 11.8079 5.8767 11.7398C5.46812 11.6717 5.19211 11.2853 5.2602 10.8767L5.36465 10.25H4.5C4.08579 10.25 3.75 9.91421 3.75 9.5C3.75 9.08579 4.08579 8.75 4.5 8.75H5.61466L5.86466 7.25H5C4.58579 7.25 4.25 6.91421 4.25 6.5C4.25 6.08579 4.58579 5.75 5 5.75H6.11466L6.26021 4.8767C6.3283 4.46812 6.71472 4.19211 7.1233 4.2602C7.53188 4.3283 7.80789 4.71472 7.7398 5.1233L7.63535 5.75H9.11466L9.26021 4.8767C9.3283 4.46812 9.71472 4.19211 10.1233 4.2602ZM7.13535 8.75H8.61466L8.86466 7.25H7.38535L7.13535 8.75Z" fill="#18181B"/>
</svg>
