<svg width="16" height="16" viewBox="0 0 16 16" fill="none" xmlns="http://www.w3.org/2000/svg">
<path fill-rule="evenodd" clip-rule="evenodd" d="M4.5 3H11.5C12.3284 3 13 3.67157 13 4.5V11.5C13 12.3284 12.3284 13 11.5 13H4.5C3.67157 13 3 12.3284 3 11.5V4.5C3 3.67157 3.67157 3 4.5 3ZM1.5 4.5C1.5 2.84315 2.84315 1.5 4.5 1.5H11.5C13.1569 1.5 14.5 2.84315 14.5 4.5V11.5C14.5 13.1569 13.1569 14.5 11.5 14.5H4.5C2.84315 14.5 1.5 13.1569 1.5 11.5V4.5ZM5.25 9.9982C4.83579 9.9982 4.5 10.334 4.5 10.7482C4.5 11.1624 4.83579 11.4982 5.25 11.4982H7.25187C7.66608 11.4982 8.00187 11.1624 8.00187 10.7482C8.00187 10.334 7.66608 9.9982 7.25187 9.9982H5.25ZM4.5 7.99997C4.5 7.58576 4.83579 7.24997 5.25 7.24997H10.7519C11.1661 7.24997 11.5019 7.58576 11.5019 7.99997C11.5019 8.41418 11.1661 8.74997 10.7519 8.74997H5.25C4.83579 8.74997 4.5 8.41418 4.5 7.99997ZM5.25 4.50183C4.83579 4.50183 4.5 4.83762 4.5 5.25183C4.5 5.66604 4.83579 6.00183 5.25 6.00183H8.75187C9.16608 6.00183 9.50187 5.66604 9.50187 5.25183C9.50187 4.83762 9.16608 4.50183 8.75187 4.50183H5.25Z" fill="#18181B"/>
</svg>
