<svg width="16" height="16" viewBox="0 0 16 16" fill="none" xmlns="http://www.w3.org/2000/svg">
<path fill-rule="evenodd" clip-rule="evenodd" d="M6.25 0C5.83579 0 5.5 0.335786 5.5 0.75C5.5 1.16421 5.83579 1.5 6.25 1.5H9.75C10.1642 1.5 10.5 1.16421 10.5 0.75C10.5 0.335786 10.1642 0 9.75 0H6.25ZM13 9C13 11.7614 10.7614 14 8 14C5.23858 14 3 11.7614 3 9C3 6.23858 5.23858 4 8 4C10.7614 4 13 6.23858 13 9ZM14.5 9C14.5 12.5899 11.5899 15.5 8 15.5C4.41015 15.5 1.5 12.5899 1.5 9C1.5 5.41015 4.41015 2.5 8 2.5C11.5899 2.5 14.5 5.41015 14.5 9ZM12.2197 1.71967C12.5126 1.42678 12.9874 1.42678 13.2803 1.71967L14.7803 3.21967C15.0732 3.51256 15.0732 3.98744 14.7803 4.28033C14.4874 4.57322 14.0126 4.57322 13.7197 4.28033L12.2197 2.78033C11.9268 2.48744 11.9268 2.01256 12.2197 1.71967ZM8.75 6C8.75 5.58579 8.41421 5.25 8 5.25C7.58579 5.25 7.25 5.58579 7.25 6V9C7.25 9.23607 7.36115 9.45836 7.55 9.6L8.88333 10.6C9.2147 10.8485 9.6848 10.7814 9.93333 10.45C10.1819 10.1186 10.1147 9.64853 9.78333 9.4L8.75 8.625V6Z" fill="#18181B"/>
</svg>
