<svg width="16" height="16" viewBox="0 0 16 16" fill="none" xmlns="http://www.w3.org/2000/svg">
<path fill-rule="evenodd" clip-rule="evenodd" d="M5.50174 2.75664C6.21442 2.23554 7.12196 2 7.98401 2C9.66868 2 10.9993 2.57153 11.6708 3.91459C11.8561 4.28507 11.7059 4.73558 11.3354 4.92082C10.9649 5.10606 10.5144 4.95589 10.3292 4.58541C10.0007 3.92847 9.33132 3.5 7.98401 3.5C7.37255 3.5 6.79306 3.67065 6.3871 3.96749C6.0033 4.24811 5.75996 4.64618 5.75996 5.20938C5.75996 5.61263 5.9251 5.96828 6.22265 6.25H4.44652C4.3274 5.93865 4.25996 5.59204 4.25996 5.20938C4.25996 4.12557 4.76689 3.29395 5.50174 2.75664ZM11.5494 8.75H12.75C13.1642 8.75 13.5 8.41421 13.5 8C13.5 7.58579 13.1642 7.25 12.75 7.25H3.25C2.83579 7.25 2.5 7.58579 2.5 8C2.5 8.41421 2.83579 8.75 3.25 8.75H8.72456L8.76752 8.76173L8.76751 8.76174L8.77004 8.76242C9.96568 9.08451 10.75 9.76665 10.75 10.75C10.75 11.4188 10.4614 11.8134 10.008 12.0807C9.50773 12.3756 8.78619 12.5171 8.00889 12.5171C6.61033 12.5171 5.55539 12.0445 5.21151 11.0128C5.08053 10.6199 4.65579 10.4075 4.26283 10.5385C3.86987 10.6695 3.6575 11.0942 3.78849 11.4872C4.44461 13.4555 6.38967 14.0171 8.00889 14.0171C8.92347 14.0171 9.94749 13.8576 10.7698 13.3728C11.639 12.8604 12.25 11.9964 12.25 10.75C12.25 9.92767 11.9737 9.26846 11.5494 8.75Z" fill="#18181B"/>
<path fill-rule="evenodd" clip-rule="evenodd" d="M5.50174 2.75676C6.21443 2.23566 7.12196 2.00012 7.98401 2.00012C9.66868 2.00012 10.9993 2.57165 11.6708 3.91471C11.8561 4.2852 11.7059 4.7357 11.3354 4.92094C10.9649 5.10618 10.5144 4.95602 10.3292 4.58553C10.0007 3.9286 9.33132 3.50012 7.98401 3.50012C7.37255 3.50012 6.79306 3.67077 6.3871 3.96761C6.0033 4.24824 5.75996 4.6463 5.75996 5.2095C5.75996 5.61275 5.9251 5.96841 6.22265 6.25012H4.44652C4.3274 5.93877 4.25996 5.59216 4.25996 5.2095C4.25996 4.1257 4.76689 3.29408 5.50174 2.75676ZM11.5494 8.75012H12.75C13.1642 8.75012 13.5 8.41434 13.5 8.00012C13.5 7.58591 13.1642 7.25012 12.75 7.25012H3.25C2.83579 7.25012 2.5 7.58591 2.5 8.00012C2.5 8.41434 2.83579 8.75012 3.25 8.75012H8.72456L8.76752 8.76186L8.77004 8.76254C9.96568 9.08463 10.75 9.76677 10.75 10.7501C10.75 11.4189 10.4614 11.8135 10.008 12.0808C9.50773 12.3757 8.78619 12.5172 8.00889 12.5172C6.61033 12.5172 5.55539 12.0446 5.21151 11.013C5.08053 10.62 4.65579 10.4076 4.26283 10.5386C3.86987 10.6696 3.6575 11.0943 3.78849 11.4873C4.44461 13.4557 6.38967 14.0172 8.00889 14.0172C8.92347 14.0172 9.94749 13.8577 10.7698 13.3729C11.639 12.8605 12.25 11.9965 12.25 10.7501C12.25 9.92779 11.9737 9.26859 11.5494 8.75012Z" fill="#18181B"/>
</svg>
