<svg width="16" height="16" viewBox="0 0 16 16" fill="none" xmlns="http://www.w3.org/2000/svg">
<path fill-rule="evenodd" clip-rule="evenodd" d="M15.177 3.0885L11.6334 1.31672C11.2169 1.10844 10.7575 1 10.2918 1H9.41466C9.20874 1.5826 8.65312 2 8.00001 2C7.3469 2 6.79128 1.5826 6.58536 1H5.7082C5.24247 1 4.78313 1.10844 4.36656 1.31672L0.822991 3.0885C0.35781 3.32109 0.148573 3.87143 0.341729 4.35432L1.63659 7.59149C1.69713 7.74282 1.79058 7.87135 1.9055 7.97199C2.17399 8.20715 2.55962 8.29014 2.91619 8.15643L3.26825 8.02441L3.07984 12.9231C3.03623 14.057 3.94364 15 5.07836 15H10.9216C12.0563 15 12.9637 14.057 12.9201 12.9231L12.7317 8.02437L13.0838 8.15643C13.4404 8.29015 13.826 8.20714 14.0945 7.97196C14.2094 7.87131 14.3029 7.74281 14.3634 7.59149L15.6583 4.35432C15.8514 3.87143 15.6422 3.32109 15.177 3.0885ZM5.76428 2.5H5.7082C5.47534 2.5 5.24567 2.55422 5.03738 2.65836L1.90531 4.2244L2.84761 6.58015L4.85384 5.82781L4.57873 12.9808C4.56783 13.2643 4.79468 13.5 5.07836 13.5H10.9216C11.2052 13.5 11.4321 13.2643 11.4212 12.9808L11.1461 5.82778L13.1524 6.58015L14.0947 4.2244L10.9626 2.65836C10.7543 2.55422 10.5247 2.5 10.2918 2.5H10.2357C9.6871 3.11317 8.88962 3.5 8.00001 3.5C7.1104 3.5 6.31292 3.11317 5.76428 2.5Z" fill="#18181B"/>
</svg>
