<svg width="16" height="16" viewBox="0 0 16 16" fill="none" xmlns="http://www.w3.org/2000/svg">
<path fill-rule="evenodd" clip-rule="evenodd" d="M7.18198 2.93934L2.31257 7.80875C1.92453 8.19679 1.9217 8.82504 2.30623 9.21656L6.67629 13.6661C7.06316 14.06 7.69607 14.0658 8.09014 13.6791L13.0506 8.81137C13.3381 8.52929 13.5 8.14348 13.5 7.74075L13.5 3.5C13.5 2.94772 13.0523 2.5 12.5 2.5L8.24264 2.5C7.84482 2.5 7.46328 2.65803 7.18198 2.93934ZM14.1012 9.88199C14.6761 9.31784 15 8.54621 15 7.74075L15 3.5C15 2.11929 13.8807 1 12.5 1L8.24264 1C7.44699 1 6.68393 1.31607 6.12132 1.87868L1.25191 6.74809C0.281816 7.71818 0.274741 9.28883 1.23606 10.2676L5.60611 14.7171C6.5733 15.7019 8.15557 15.7165 9.14075 14.7497L14.1012 9.88199ZM10.1945 4.03771C9.90165 3.74482 9.42678 3.74482 9.13388 4.03771L7.36612 5.80548L7.27773 5.71709C6.98483 5.4242 6.50996 5.4242 6.21707 5.71709C5.92417 6.00998 5.92417 6.48486 6.21707 6.77775L6.30546 6.86614L5.9519 7.21969L5.86351 7.1313C5.57062 6.83841 5.09575 6.83841 4.80285 7.1313C4.50996 7.4242 4.50996 7.89907 4.80285 8.19196L4.89124 8.28035L4.53769 8.63391C4.2448 8.9268 4.2448 9.40167 4.53769 9.69457C4.83058 9.98746 5.30546 9.98746 5.59835 9.69457L5.9519 9.34101L7.01256 10.4017C7.30546 10.6946 7.78033 10.6946 8.07322 10.4017C8.36612 10.1088 8.36612 9.63391 8.07322 9.34101L7.01256 8.28035L7.36612 7.9268L8.16161 8.72229C9.08911 9.64979 10.5929 9.64979 11.5204 8.72229C12.4479 7.7948 12.4479 6.29103 11.5204 5.36354L10.1945 4.03771ZM9.22227 7.66163L8.42678 6.86614L9.66421 5.6287L10.4597 6.4242C10.8014 6.76591 10.8014 7.31993 10.4597 7.66163C10.118 8.00334 9.56398 8.00334 9.22227 7.66163Z" fill="#18181B"/>
</svg>
