<svg width="16" height="16" viewBox="0 0 16 16" fill="none" xmlns="http://www.w3.org/2000/svg">
<path fill-rule="evenodd" clip-rule="evenodd" d="M12 3.5H4C3.17157 3.5 2.5 4.17157 2.5 5V11C2.5 11.8284 3.17157 12.5 4 12.5H12C12.8284 12.5 13.5 11.8284 13.5 11V5C13.5 4.17157 12.8284 3.5 12 3.5ZM4 2C2.34315 2 1 3.34315 1 5V11C1 12.6569 2.34315 14 4 14H12C13.6569 14 15 12.6569 15 11V5C15 3.34315 13.6569 2 12 2H4ZM4.46967 10.5303C4.17678 10.2374 4.17678 9.76256 4.46967 9.46967L5.93934 8L4.46967 6.53033C4.17678 6.23744 4.17678 5.76256 4.46967 5.46967C4.76256 5.17678 5.23744 5.17678 5.53033 5.46967L7.53033 7.46967C7.82322 7.76256 7.82322 8.23744 7.53033 8.53033L5.53033 10.5303C5.23744 10.8232 4.76256 10.8232 4.46967 10.5303ZM8.75 9.5C8.33579 9.5 8 9.83579 8 10.25C8 10.6642 8.33579 11 8.75 11H11.25C11.6642 11 12 10.6642 12 10.25C12 9.83579 11.6642 9.5 11.25 9.5H8.75Z" fill="#18181B"/>
</svg>
