<svg width="16" height="16" viewBox="0 0 16 16" fill="none" xmlns="http://www.w3.org/2000/svg">
<path fill-rule="evenodd" clip-rule="evenodd" d="M1.21967 11.2197C0.926777 11.5126 0.926777 11.9874 1.21967 12.2803C1.51256 12.5732 1.98744 12.5732 2.28033 12.2803L6.03033 8.53033C6.32322 8.23744 6.32322 7.76256 6.03033 7.46967L2.28033 3.71967C1.98744 3.42678 1.51256 3.42678 1.21967 3.71967C0.926777 4.01256 0.926777 4.48744 1.21967 4.78033L4.43934 8L1.21967 11.2197ZM14.25 12.5C14.6642 12.5 15 12.1642 15 11.75C15 11.3358 14.6642 11 14.25 11H7.75C7.33579 11 7 11.3358 7 11.75C7 12.1642 7.33579 12.5 7.75 12.5H14.25Z" fill="#18181B"/>
</svg>
