<svg width="16" height="16" viewBox="0 0 16 16" fill="none" xmlns="http://www.w3.org/2000/svg">
<path fill-rule="evenodd" clip-rule="evenodd" d="M13.25 2L2.75 2C2.33579 2 2 2.33579 2 2.75C2 3.16421 2.33579 3.5 2.75 3.5L13.25 3.5C13.6642 3.5 14 3.16421 14 2.75C14 2.33579 13.6642 2 13.25 2ZM13.25 5.5L7.75 5.5C7.33579 5.5 7 5.83579 7 6.25C7 6.66421 7.33579 7 7.75 7L13.25 7C13.6642 7 14 6.66421 14 6.25C14 5.83579 13.6642 5.5 13.25 5.5ZM13.25 9L7.75 9C7.33579 9 7 9.33579 7 9.75C7 10.1642 7.33579 10.5 7.75 10.5L13.25 10.5C13.6642 10.5 14 10.1642 14 9.75C14 9.33579 13.6642 9 13.25 9ZM2.75 12.5L13.25 12.5C13.6642 12.5 14 12.8358 14 13.25C14 13.6642 13.6642 14 13.25 14L2.75 14C2.33579 14 2 13.6642 2 13.25C2 12.8358 2.33579 12.5 2.75 12.5ZM4.7596 5.5C4.59149 5.5 4.4284 5.55721 4.29713 5.66223L2.39034 7.18765C2.14356 7.38508 1.99991 7.68397 1.99991 8C1.99991 8.31603 2.14356 8.61493 2.39034 8.81235L4.29713 10.3378C4.4284 10.4428 4.59149 10.5 4.7596 10.5C5.16846 10.5 5.49991 10.1686 5.49991 9.75969L5.49991 6.24031C5.49991 5.83145 5.16846 5.5 4.7596 5.5Z" fill="#18181B"/>
</svg>
