<svg width="16" height="16" viewBox="0 0 16 16" fill="none" xmlns="http://www.w3.org/2000/svg">
<path fill-rule="evenodd" clip-rule="evenodd" d="M2.75 2C2.33579 2 2 2.33579 2 2.75C2 3.16421 2.33579 3.5 2.75 3.5L13.25 3.5C13.6642 3.5 14 3.16421 14 2.75C14 2.33579 13.6642 2 13.25 2L2.75 2ZM2.75 9C2.33579 9 2 9.33579 2 9.75C2 10.1642 2.33579 10.5 2.75 10.5L13.25 10.5C13.6642 10.5 14 10.1642 14 9.75C14 9.33579 13.6642 9 13.25 9L2.75 9ZM4.75 12.5C4.33579 12.5 4 12.8358 4 13.25C4 13.6642 4.33579 14 4.75 14L11.25 14C11.6642 14 12 13.6642 12 13.25C12 12.8358 11.6642 12.5 11.25 12.5L4.75 12.5ZM4 6.25C4 5.83579 4.33579 5.5 4.75 5.5L11.25 5.5C11.6642 5.5 12 5.83579 12 6.25C12 6.66421 11.6642 7 11.25 7L4.75 7C4.33579 7 4 6.66421 4 6.25Z" fill="#18181B"/>
</svg>
