<svg width="16" height="16" viewBox="0 0 16 16" fill="none" xmlns="http://www.w3.org/2000/svg">
<g clip-path="url(#clip0_2217_5395)">
<path fill-rule="evenodd" clip-rule="evenodd" d="M13.3447 2.97765L13.2103 3.58665L12.8793 5.08665H14.0382C14.1649 5.08665 14.2885 5.09829 14.408 5.12049C15.4758 5.31893 16.2189 6.36072 16.0007 7.47201L15.7413 8.79326C15.3429 10.8219 13.4666 12.2079 11.4189 12.0028C10.8485 13.8151 9.05932 14.9988 7.13307 14.7702L3.14848 14.2975L2.66904 7.94499L5.48166 3.38123C5.8192 2.83354 6.41656 2.5 7.05991 2.5C8.05566 2.5 8.83582 3.27391 8.90897 4.20661L10.3612 1.7892C10.6553 1.29954 11.1847 1 11.7559 1C12.7958 1 13.5688 1.96217 13.3447 2.97765ZM8.96467 7.03749L9.18013 6.66813L11.647 2.56162C11.67 2.52339 11.7113 2.5 11.7559 2.5C11.8371 2.5 11.8975 2.57513 11.88 2.65442L11.4146 4.76342L11.0122 6.58665H12.8793H14.0382C14.353 6.58665 14.5895 6.87408 14.5288 7.18299L14.2694 8.50424C14.0316 9.71493 12.9517 10.5594 11.7404 10.5215L11.9598 9.43246C12.2093 8.1941 11.2625 7.03749 9.99922 7.03749H9.89114H8.96467ZM4.5513 12.9534L7.3098 13.2807C8.6033 13.4342 9.79789 12.5687 10.0551 11.2918L10.4894 9.13623C10.5517 8.82664 10.315 8.53749 9.99922 8.53749H8.35318H6.47564L6.89021 6.70628L7.40507 4.43204C7.45519 4.21066 7.28689 4 7.05991 4C6.9371 4 6.82307 4.06367 6.75863 4.16822L4.20142 8.31754L4.5513 12.9534ZM0.695237 7.65085C1.10828 7.61978 1.46831 7.92943 1.49939 8.34247L1.97728 14.695C2.00835 15.108 1.6987 15.468 1.28565 15.4991C0.872607 15.5302 0.512577 15.2205 0.481504 14.8075L0.00361322 8.455C-0.0274598 8.04195 0.282191 7.68192 0.695237 7.65085Z" fill="#18181B"/>
</g>
<defs>
<clipPath id="clip0_2217_5395">
<rect width="16" height="16" fill="white"/>
</clipPath>
</defs>
</svg>
