<svg width="16" height="16" viewBox="0 0 16 16" fill="none" xmlns="http://www.w3.org/2000/svg">
<path d="M14.6093 6.91364L6.97769 14.9942C6.67279 15.317 6.24835 15.5 5.8043 15.5C4.68424 15.5 3.90471 14.3871 4.28748 13.3344L5.5 10H2.67703C1.75083 10 1 9.24917 1 8.32297C1 8.10962 1.04071 7.89822 1.11995 7.70013L3.44291 1.89271C3.77937 1.05156 4.59405 0.5 5.5 0.5H9.5C10.4677 0.5 11.1375 1.46656 10.7978 2.37266L10 4.5H13.569C14.3593 4.5 15 5.1407 15 5.93105C15 6.29644 14.8602 6.64799 14.6093 6.91364Z" fill="#18181B"/>
</svg>
