<svg width="16" height="16" viewBox="0 0 16 16" fill="none" xmlns="http://www.w3.org/2000/svg">
<path fill-rule="evenodd" clip-rule="evenodd" d="M13.5 8.5H11.1123C10.5645 9.70101 9.35757 10.5 8 10.5C6.64243 10.5 5.43552 9.70101 4.88769 8.5H2.5V11C2.5 11.8284 3.17157 12.5 4 12.5H12C12.8284 12.5 13.5 11.8284 13.5 11V8.5ZM11.2964 3.74275L13.2507 7H10L9.8638 7.54479C9.64999 8.40003 8.88156 9 8 9C7.11844 9 6.35001 8.40003 6.1362 7.54479L6 7H2.74929L4.70363 3.74275C4.794 3.59215 4.95675 3.5 5.13238 3.5H10.8676C11.0433 3.5 11.206 3.59215 11.2964 3.74275ZM15 8.5V7.83095C15 7.28722 14.8522 6.75371 14.5725 6.28746L12.5826 2.97101C12.2212 2.3686 11.5701 2 10.8676 2H5.13238C4.42986 2 3.77884 2.3686 3.41739 2.97101L1.42752 6.28746C1.14777 6.75371 1 7.28722 1 7.83095V8.5V11C1 12.6569 2.34315 14 4 14H12C13.6569 14 15 12.6569 15 11V8.5Z" fill="#18181B"/>
</svg>
