<svg width="16" height="16" viewBox="0 0 16 16" fill="none" xmlns="http://www.w3.org/2000/svg">
<path fill-rule="evenodd" clip-rule="evenodd" d="M6.08565 0.781503C5.82689 0.45806 5.35493 0.40562 5.03148 0.664374C4.70803 0.923129 4.65559 1.39509 4.91435 1.71854L5.93951 2.99997H4C2.34315 2.99997 1 4.3431 1 5.99994V10.9999C1 12.5862 2.23117 13.8849 3.79009 13.9926L3.57918 14.4144C3.39394 14.7849 3.54411 15.2354 3.91459 15.4207C4.28507 15.6059 4.73558 15.4557 4.92082 15.0853L5.42082 14.0853C5.43485 14.0572 5.44696 14.0287 5.45719 13.9999H10.5428C10.553 14.0287 10.5651 14.0572 10.5792 14.0853L11.0792 15.0853C11.2644 15.4557 11.7149 15.6059 12.0854 15.4207C12.4559 15.2354 12.6061 14.7849 12.4208 14.4144L12.2099 13.9926C13.7688 13.8849 15 12.5862 15 10.9999V5.99994C15 4.3431 13.6569 2.99997 12 2.99997H10.0605L11.0857 1.71854C11.3444 1.39509 11.292 0.923129 10.9685 0.664374C10.6451 0.40562 10.1731 0.45806 9.91435 0.781503L8.13955 2.99997H7.86045L6.08565 0.781503ZM7.49355 4.49996L7.5 4.49998H8.5L8.50645 4.49996H12C12.8284 4.49996 13.5 5.17152 13.5 5.99994V10.9999C13.5 11.8283 12.8284 12.4999 12 12.4999H4C3.17157 12.4999 2.5 11.8283 2.5 10.9999V5.99994C2.5 5.17152 3.17157 4.49996 4 4.49996H7.49355ZM5.5 7.49992V9.4999H8V7.49992H5.5ZM5 5.99994C4.44772 5.99994 4 6.44765 4 6.99993V9.9999C4 10.5522 4.44772 10.9999 5 10.9999H8.5C9.05228 10.9999 9.5 10.5522 9.5 9.9999V6.99993C9.5 6.44765 9.05228 5.99994 8.5 5.99994H5ZM12 6.74993C12 6.33572 11.6642 5.99994 11.25 5.99994C10.8358 5.99994 10.5 6.33572 10.5 6.74993V10.2499C10.5 10.6641 10.8358 10.9999 11.25 10.9999C11.6642 10.9999 12 10.6641 12 10.2499V6.74993Z" fill="black"/>
</svg>
