<svg width="16" height="16" viewBox="0 0 16 16" fill="none" xmlns="http://www.w3.org/2000/svg">
<path fill-rule="evenodd" clip-rule="evenodd" d="M3 3.5H13C13.8284 3.5 14.5 4.17157 14.5 5V10C14.5 10.8284 13.8284 11.5 13 11.5H12H4H3C2.17157 11.5 1.5 10.8284 1.5 10V5C1.5 4.17157 2.17157 3.5 3 3.5ZM2.79009 12.9928C1.23117 12.885 0 11.5863 0 10V5C0 3.34315 1.34315 2 3 2H13C14.6569 2 16 3.34315 16 5V10C16 11.5863 14.7688 12.885 13.2099 12.9928L13.6708 13.9146C13.8561 14.2851 13.7059 14.7356 13.3354 14.9208C12.9649 15.1061 12.5144 14.9559 12.3292 14.5854L11.5365 13H4.46353L3.67082 14.5854C3.48558 14.9559 3.03507 15.1061 2.66459 14.9208C2.29411 14.7356 2.14394 14.2851 2.32918 13.9146L2.79009 12.9928Z" fill="#18181B"/>
</svg>
