<svg width="16" height="16" viewBox="0 0 16 16" fill="none" xmlns="http://www.w3.org/2000/svg">
<path fill-rule="evenodd" clip-rule="evenodd" d="M5 2.75C5 2.33579 4.66421 2 4.25 2C3.83579 2 3.5 2.33579 3.5 2.75V7C3.5 9.48528 5.51472 11.5 8 11.5C10.4853 11.5 12.5 9.48528 12.5 7V2.75C12.5 2.33579 12.1642 2 11.75 2C11.3358 2 11 2.33579 11 2.75V7C11 8.65685 9.65685 10 8 10C6.34315 10 5 8.65685 5 7L5 2.75ZM4.25 12.5C3.83579 12.5 3.5 12.8358 3.5 13.25C3.5 13.6642 3.83579 14 4.25 14H11.75C12.1642 14 12.5 13.6642 12.5 13.25C12.5 12.8358 12.1642 12.5 11.75 12.5H4.25Z" fill="#18181B"/>
</svg>
