<svg width="16" height="16" viewBox="0 0 16 16" fill="none" xmlns="http://www.w3.org/2000/svg">
<path fill-rule="evenodd" clip-rule="evenodd" d="M3 4.5H8.5C9.32843 4.5 10 5.17157 10 6V6.5V9.5V10C10 10.8284 9.32843 11.5 8.5 11.5H3C2.17157 11.5 1.5 10.8284 1.5 10V6C1.5 5.17157 2.17157 4.5 3 4.5ZM11.452 10.5372C11.1989 11.9377 9.97349 13 8.5 13H3C1.34315 13 0 11.6569 0 10V6C0 4.34315 1.34315 3 3 3H8.5C9.97349 3 11.1989 4.0623 11.452 5.46283L13.0063 4.35265C13.3274 4.1233 13.7121 4 14.1067 4C15.1524 4 16 4.84765 16 5.89327V10.1067C16 11.1524 15.1524 12 14.1067 12C13.7121 12 13.3274 11.8767 13.0063 11.6473L11.452 10.5372ZM11.5 8.72807L13.8781 10.4267C13.9448 10.4744 14.0248 10.5 14.1067 10.5C14.3239 10.5 14.5 10.3239 14.5 10.1067V5.89327C14.5 5.67607 14.3239 5.5 14.1067 5.5C14.0248 5.5 13.9448 5.52561 13.8781 5.57325L11.5 7.27193V8.72807Z" fill="#18181B"/>
</svg>
