<svg width="16" height="16" viewBox="0 0 16 16" fill="none" xmlns="http://www.w3.org/2000/svg">
<path fill-rule="evenodd" clip-rule="evenodd" d="M5.06066 9.93934C4.77936 9.65804 4.39782 9.5 4 9.5H2C1.72386 9.5 1.5 9.27614 1.5 9V7C1.5 6.72386 1.72386 6.5 2 6.5H4C4.39782 6.5 4.77936 6.34196 5.06066 6.06066L7.54289 3.57843C7.59311 3.52821 7.66122 3.5 7.73223 3.5C7.88012 3.5 8 3.61988 8 3.76777V12.2322C8 12.3801 7.88012 12.5 7.73223 12.5C7.66122 12.5 7.59311 12.4718 7.54289 12.4216L5.06066 9.93934ZM2 5H4L6.48223 2.51777C6.81375 2.18625 7.26339 2 7.73223 2C8.70854 2 9.5 2.79146 9.5 3.76777V12.2322C9.5 13.2085 8.70854 14 7.73223 14C7.26339 14 6.81375 13.8138 6.48223 13.4822L4 11H2C0.89543 11 0 10.1046 0 9V7C0 5.89543 0.895431 5 2 5Z" fill="#18181B"/>
</svg>
