<svg width="16" height="16" viewBox="0 0 16 16" fill="none" xmlns="http://www.w3.org/2000/svg">
<path fill-rule="evenodd" clip-rule="evenodd" d="M7.25 4.88555C7.0044 4.80841 6.77513 4.69439 6.56868 4.54998C5.92256 4.098 5.5 3.34835 5.5 2.5C5.5 1.11929 6.61929 0 8 0C9.38071 0 10.5 1.11929 10.5 2.5C10.5 3.03236 10.3336 3.52586 10.05 3.93132C9.73722 4.37843 9.28191 4.71849 8.75 4.88555V6H11.6536C12.7511 6 13.7202 6.71581 14.043 7.76479L15.4039 12.1877C15.4676 12.3947 15.5 12.6101 15.5 12.8268C15.5 14.027 14.527 15 13.3268 15H2.67322C1.47298 15 0.5 14.027 0.5 12.8268C0.5 12.6101 0.532392 12.3947 0.596102 12.1877L0.848471 11.3675L1.95699 7.76479C2.27975 6.71581 3.24892 6 4.34644 6H7.25V4.88555ZM9 2.5C9 3.05228 8.55228 3.5 8 3.5C7.44772 3.5 7 3.05228 7 2.5C7 1.94772 7.44772 1.5 8 1.5C8.55228 1.5 9 1.94772 9 2.5ZM4.34644 7.5C3.90743 7.5 3.51976 7.78632 3.39066 8.20591L2.02977 12.6288C2.01003 12.6929 2 12.7597 2 12.8268C2 13.1986 2.30141 13.5 2.67322 13.5H13.3268C13.6986 13.5 14 13.1986 14 12.8268C14 12.7597 13.99 12.6929 13.9702 12.6288L12.6093 8.20591C12.4802 7.78632 12.0926 7.5 11.6536 7.5H4.34644Z" fill="#18181B"/>
</svg>
