<svg width="16" height="16" viewBox="0 0 16 16" fill="none" xmlns="http://www.w3.org/2000/svg">
<path fill-rule="evenodd" clip-rule="evenodd" d="M8.58105 9.29763L9.35691 9.44132C9.56428 9.47972 9.7791 9.5 10 9.5C11.933 9.5 13.5 7.933 13.5 6C13.5 5.8823 13.49 5.76413 13.4728 5.64849L12.0825 7.03883C11.7872 7.33411 11.3867 7.5 10.9691 7.5C9.60546 7.5 8.5 6.39454 8.5 5.03088C8.5 4.61328 8.66589 4.21279 8.96117 3.91751L10.3515 2.52717C10.2359 2.51001 10.1177 2.5 10 2.5C8.067 2.5 6.5 4.067 6.5 6C6.5 6.2209 6.52028 6.43572 6.55868 6.64309L6.70237 7.41895L2.88909 11.2322C2.63996 11.4814 2.5 11.8193 2.5 12.1716C2.5 12.9052 3.09476 13.5 3.82843 13.5C4.18075 13.5 4.51864 13.36 4.76776 13.1109L8.58105 9.29763ZM12.3979 2.51069C12.5435 2.14345 12.3977 1.69887 12.014 1.50704C12.0047 1.50238 11.9959 1.49778 11.9867 1.49293C11.8708 1.43195 11.0141 1 10 1C7.23858 1 5 3.23858 5 6C5 6.31296 5.02875 6.61921 5.08376 6.91624L1.82843 10.1716C1.29799 10.702 1 11.4214 1 12.1716C1 13.7337 2.26633 15 3.82843 15C4.57857 15 5.29799 14.702 5.82843 14.1716L9.08376 10.9162C9.38079 10.9712 9.68704 11 10 11C12.7614 11 15 8.76142 15 6C15 4.98581 14.568 4.12908 14.5071 4.0133C14.5023 4.00409 14.4977 3.99534 14.493 3.98603C14.3012 3.60233 13.8566 3.45649 13.4893 3.60209C13.3923 3.64055 13.3007 3.69936 13.2205 3.77949L11.0218 5.97817C11.0079 5.99215 10.9889 6 10.9691 6C10.4339 6 10 5.56611 10 5.03088C10 5.01111 10.0079 4.99215 10.0218 4.97817L12.2205 2.77953C12.3006 2.69938 12.3595 2.60772 12.3979 2.51069Z" fill="#18181B"/>
</svg>
