<svg width="16" height="16" viewBox="0 0 16 16" fill="none" xmlns="http://www.w3.org/2000/svg">
<path fill-rule="evenodd" clip-rule="evenodd" d="M15 14.25C15 14.6642 14.6642 15 14.25 15L1.75 15C1.33579 15 1 14.6642 1 14.25C1 13.8358 1.33579 13.5 1.75 13.5L14.25 13.5C14.6642 13.5 15 13.8358 15 14.25ZM12 11L10.5 11C10.2239 11 10 10.7761 10 10.5L10 5.5C10 5.22386 10.2239 5 10.5 5L12 5C12.2761 5 12.5 5.22386 12.5 5.5L12.5 10.5C12.5 10.7761 12.2761 11 12 11ZM14 10.5C14 11.6046 13.1046 12.5 12 12.5L10.5 12.5C9.39543 12.5 8.5 11.6046 8.5 10.5L8.5 5.5C8.5 4.39543 9.39543 3.5 10.5 3.5L12 3.5C13.1046 3.5 14 4.39543 14 5.5L14 10.5ZM5.5 11L4 11C3.72386 11 3.5 10.7761 3.5 10.5L3.5 5.5C3.5 5.22386 3.72386 5 4 5L5.5 5C5.77614 5 6 5.22386 6 5.5L6 10.5C6 10.7761 5.77614 11 5.5 11ZM7.5 10.5C7.5 11.6046 6.60457 12.5 5.5 12.5L4 12.5C2.89543 12.5 2 11.6046 2 10.5L2 5.5C2 4.39543 2.89543 3.5 4 3.5L5.5 3.5C6.60457 3.5 7.5 4.39543 7.5 5.5L7.5 10.5ZM14.25 1C14.6642 1 15 1.33579 15 1.75C15 2.16421 14.6642 2.5 14.25 2.5L1.75 2.5C1.33579 2.5 1 2.16421 1 1.75C1 1.33578 1.33579 0.999999 1.75 0.999999L14.25 1Z" fill="#18181B"/>
</svg>
