<svg width="16" height="16" viewBox="0 0 16 16" fill="none" xmlns="http://www.w3.org/2000/svg">
<path fill-rule="evenodd" clip-rule="evenodd" d="M8 2.5H12C12.8284 2.5 13.5 3.17157 13.5 4V8C13.5 8.82843 12.8284 9.5 12 9.5H11V8C11 6.34315 9.65685 5 8 5H6.5V4C6.5 3.17157 7.17157 2.5 8 2.5ZM12 11H11V12C11 13.6569 9.65685 15 8 15H4C2.34315 15 1 13.6569 1 12V8C1 6.34315 2.34315 5 4 5H5V4C5 2.34315 6.34315 1 8 1H12C13.6569 1 15 2.34315 15 4V8C15 9.65685 13.6569 11 12 11ZM8 6.5H4C3.17157 6.5 2.5 7.17157 2.5 8V12C2.5 12.8284 3.17157 13.5 4 13.5H8C8.82843 13.5 9.5 12.8284 9.5 12V8C9.5 7.17157 8.82843 6.5 8 6.5ZM6.53033 12.5303C6.23744 12.8232 5.76256 12.8232 5.46967 12.5303C5.17678 12.2374 5.17678 11.7626 5.46967 11.4697L6.18934 10.75H4C3.58579 10.75 3.25 10.4142 3.25 10C3.25 9.58579 3.58579 9.25 4 9.25H6.18934L5.46967 8.53033C5.17678 8.23744 5.17678 7.76256 5.46967 7.46967C5.76256 7.17678 6.23744 7.17678 6.53033 7.46967L8.53033 9.46967C8.82322 9.76256 8.82322 10.2374 8.53033 10.5303L6.53033 12.5303Z" fill="#18181B"/>
</svg>
