<svg width="16" height="16" viewBox="0 0 16 16" fill="none" xmlns="http://www.w3.org/2000/svg">
<path fill-rule="evenodd" clip-rule="evenodd" d="M1.5 2.75C1.5 2.33579 1.16421 2 0.75 2C0.335786 2 0 2.33579 0 2.75V13.25C0 13.6642 0.335786 14 0.75 14C1.16421 14 1.5 13.6642 1.5 13.25V2.75ZM16 2.75C16 2.33579 15.6642 2 15.25 2C14.8358 2 14.5 2.33579 14.5 2.75V13.25C14.5 13.6642 14.8358 14 15.25 14C15.6642 14 16 13.6642 16 13.25V2.75ZM3.46967 4.96967C3.17678 5.26256 3.17678 5.73744 3.46967 6.03033L5.43934 8L3.46967 9.96967C3.17678 10.2626 3.17678 10.7374 3.46967 11.0303C3.76256 11.3232 4.23744 11.3232 4.53033 11.0303L7.03033 8.53033C7.32322 8.23744 7.32322 7.76256 7.03033 7.46967L4.53033 4.96967C4.23744 4.67678 3.76256 4.67678 3.46967 4.96967ZM12.5303 6.03033C12.8232 5.73744 12.8232 5.26256 12.5303 4.96967C12.2374 4.67678 11.7626 4.67678 11.4697 4.96967L8.96967 7.46967C8.67678 7.76256 8.67678 8.23744 8.96967 8.53033L11.4697 11.0303C11.7626 11.3232 12.2374 11.3232 12.5303 11.0303C12.8232 10.7374 12.8232 10.2626 12.5303 9.96967L10.5607 8L12.5303 6.03033Z" fill="#18181B"/>
</svg>
