<svg width="16" height="16" viewBox="0 0 16 16" fill="none" xmlns="http://www.w3.org/2000/svg">
<g clip-path="url(#clip0_2217_5556)">
<path fill-rule="evenodd" clip-rule="evenodd" d="M5 12.5H3C2.44772 12.5 2 12.0523 2 11.5V4.5C2 3.94772 2.44772 3.5 3 3.5H5C5.55228 3.5 6 3.94772 6 4.5V11.5C6 12.0523 5.55228 12.5 5 12.5ZM3 14H5C6.38071 14 7.5 12.8807 7.5 11.5V4.5C7.5 3.11929 6.38071 2 5 2H3C1.61929 2 0.5 3.11929 0.5 4.5V11.5C0.5 12.8807 1.61929 14 3 14ZM13 12.5H11C10.4477 12.5 10 12.0523 10 11.5V4.5C10 3.94772 10.4477 3.5 11 3.5H13C13.5523 3.5 14 3.94772 14 4.5V11.5C14 12.0523 13.5523 12.5 13 12.5ZM11 14H13C14.3807 14 15.5 12.8807 15.5 11.5V4.5C15.5 3.11929 14.3807 2 13 2H11C9.61929 2 8.5 3.11929 8.5 4.5V11.5C8.5 12.8807 9.61929 14 11 14Z" fill="#18181B"/>
</g>
<defs>
<clipPath id="clip0_2217_5556">
<rect width="16" height="16" fill="white"/>
</clipPath>
</defs>
</svg>
