<svg width="16" height="16" viewBox="0 0 16 16" fill="none" xmlns="http://www.w3.org/2000/svg">
<g clip-path="url(#clip0_2217_5188)">
<path fill-rule="evenodd" clip-rule="evenodd" d="M6.19369 6.00003L4.00025 2.07492L1.80681 6.00003L6.19369 6.00003ZM5.09143 0.952661C4.6144 0.0990303 3.3861 0.0990322 2.90907 0.952663L0.289535 5.64025C-0.176083 6.47346 0.42623 7.50003 1.38072 7.50003L6.61978 7.50003C7.57427 7.50003 8.17658 6.47346 7.71096 5.64025L5.09143 0.952661ZM2.53461 14.9293C2.98045 15.1352 3.47693 15.25 4.00025 15.25C5.40993 15.25 6.62496 14.4166 7.17953 13.2157C7.3854 12.7698 7.50025 12.2733 7.50025 11.75C7.50025 9.81703 5.93324 8.25003 4.00025 8.25003C2.06725 8.25003 0.500248 9.81703 0.500248 11.75C0.500248 13.1597 1.33364 14.3747 2.53461 14.9293ZM4.00025 13.75C5.10482 13.75 6.00025 12.8546 6.00025 11.75C6.00025 10.6455 5.10482 9.75003 4.00025 9.75003C2.89568 9.75003 2.00025 10.6455 2.00025 11.75C2.00025 12.8546 2.89568 13.75 4.00025 13.75ZM15.2806 1.2197C15.5735 1.51259 15.5735 1.98746 15.2806 2.28036L10.2806 7.28036C9.98769 7.57325 9.51281 7.57325 9.21992 7.28036C8.92702 6.98746 8.92702 6.51259 9.21992 6.2197L14.2199 1.2197C14.5128 0.926803 14.9877 0.926803 15.2806 1.2197ZM10.2502 13.25V9.75003H13.7502V13.25H10.2502ZM8.75025 9.50003C8.75025 8.80967 9.30989 8.25003 10.0002 8.25003H14.0002C14.6906 8.25003 15.2502 8.80967 15.2502 9.50003V13.5C15.2502 14.1904 14.6906 14.75 14.0002 14.75H10.0002C9.30989 14.75 8.75025 14.1904 8.75025 13.5V9.50003Z" fill="black"/>
</g>
<defs>
<clipPath id="clip0_2217_5188">
<rect width="16" height="16" fill="white"/>
</clipPath>
</defs>
</svg>
