<svg width="16" height="16" viewBox="0 0 16 16" fill="none" xmlns="http://www.w3.org/2000/svg">
<path fill-rule="evenodd" clip-rule="evenodd" d="M9 1.5H7C6.72386 1.5 6.5 1.72386 6.5 2V3H9.5V2C9.5 1.72386 9.27614 1.5 9 1.5ZM5 2V3C3.34315 3 2 4.34315 2 6V12C2 13.6569 3.34315 15 5 15H11C12.6569 15 14 13.6569 14 12V6C14 4.34315 12.6569 3 11 3V2C11 0.895431 10.1046 0 9 0H7C5.89543 0 5 0.89543 5 2ZM9.5 4.5H11C11.8284 4.5 12.5 5.17157 12.5 6V12C12.5 12.8284 11.8284 13.5 11 13.5H5C4.17157 13.5 3.5 12.8284 3.5 12V6C3.5 5.17157 4.17157 4.5 5 4.5H6.5H9.5ZM5.75 6C5.33579 6 5 6.33579 5 6.75C5 7.16421 5.33579 7.5 5.75 7.5H10.25C10.6642 7.5 11 7.16421 11 6.75C11 6.33579 10.6642 6 10.25 6H5.75Z" fill="#18181B"/>
</svg>
