<svg width="16" height="16" viewBox="0 0 16 16" fill="none" xmlns="http://www.w3.org/2000/svg">
<path fill-rule="evenodd" clip-rule="evenodd" d="M9.03475 3.86329L9.21714 2.58654C9.27664 2.17007 9.61403 1.84603 10.0348 1.80395C10.6326 1.74417 11.1236 2.26614 11.0306 2.85536C10.9709 3.23314 10.6823 3.53379 10.3073 3.60879L9.03475 3.86329ZM7.25 5.49995V5.74995V7.49995H3.5L3 7.49995C2.72386 7.49995 2.5 7.27609 2.5 6.99995V5.99995C2.5 5.72381 2.72386 5.49995 3 5.49995L7.25 5.49995ZM8 1.56448C7.62621 0.875965 6.92913 0.392862 6.11447 0.311397C4.54079 0.154029 3.24113 1.52712 3.48779 3.0893C3.54 3.41998 3.65863 3.72828 3.82996 3.99995H3C1.89543 3.99995 1 4.89538 1 5.99995V6.99995C1 7.74023 1.4022 8.38658 2 8.73238V8.99995V12C2 13.6568 3.34315 15 5 15H11C12.6569 15 14 13.6568 14 12V8.99995V8.73238C14.5978 8.38658 15 7.74023 15 6.99995V5.99995C15 4.89538 14.1046 3.99995 13 3.99995H12.17C12.3414 3.72828 12.46 3.41998 12.5122 3.0893C12.7589 1.52712 11.4592 0.154029 9.88553 0.311397C9.07087 0.392862 8.37379 0.875965 8 1.56448ZM8.75 5.74995V7.49995H12.5L13 7.49995C13.2761 7.49995 13.5 7.27609 13.5 6.99995V5.99995C13.5 5.72381 13.2761 5.49995 13 5.49995L8.75 5.49995V5.74995ZM7.25 8.99995H3.5V12C3.5 12.8284 4.17157 13.5 5 13.5H7.25V8.99995ZM8.75 13.5V8.99995H12.5V12C12.5 12.8284 11.8284 13.5 11 13.5H8.75ZM6.78286 2.58654L6.96525 3.86329L5.69275 3.60879C5.31772 3.53379 5.02909 3.23314 4.96944 2.85536C4.8764 2.26614 5.36736 1.74417 5.96522 1.80395C6.38597 1.84603 6.72336 2.17007 6.78286 2.58654Z" fill="#18181B"/>
</svg>
