<svg width="16" height="16" viewBox="0 0 16 16" fill="none" xmlns="http://www.w3.org/2000/svg">
<path fill-rule="evenodd" clip-rule="evenodd" d="M8 13.5C11.0376 13.5 13.5 11.0376 13.5 8C13.5 5.76929 12.172 3.84875 10.2634 2.98585C10.5758 3.67628 10.75 4.44295 10.75 5.25C10.75 8.28757 8.28757 10.75 5.25 10.75C4.44295 10.75 3.67628 10.5758 2.98585 10.2635C3.84875 12.172 5.76929 13.5 8 13.5ZM1.04463 8.79483C1.43927 12.2866 4.40276 15 8 15C11.866 15 15 11.866 15 8C15 4.40276 12.2866 1.43927 8.79483 1.04463C8.7947 1.04461 8.79457 1.0446 8.79444 1.04458C8.78525 1.04355 8.77605 1.04253 8.76685 1.04152C8.51501 1.01408 8.25915 1 8 1C7.47268 1 7.41006 1.84189 7.81457 2.18019C7.87808 2.2333 7.93992 2.28836 8 2.34525C8.04957 2.39219 8.09794 2.4404 8.14505 2.4898C8.14899 2.49393 8.15291 2.49805 8.15683 2.50219C8.83447 3.21881 9.25 4.18588 9.25 5.25C9.25 7.45914 7.45914 9.25 5.25 9.25C4.18588 9.25 3.21881 8.83447 2.50219 8.15683C2.49805 8.15291 2.49393 8.14899 2.4898 8.14505C2.4404 8.09794 2.39219 8.04957 2.34525 8C2.28836 7.93992 2.2333 7.87809 2.18019 7.81457C1.84189 7.41007 1 7.47268 1 8C1 8.25915 1.01408 8.51501 1.04152 8.76685C1.04253 8.77605 1.04355 8.78525 1.04458 8.79444C1.0446 8.79457 1.04461 8.7947 1.04463 8.79483Z" fill="#18181B"/>
</svg>
