<svg width="16" height="16" viewBox="0 0 16 16" fill="none" xmlns="http://www.w3.org/2000/svg">
<path fill-rule="evenodd" clip-rule="evenodd" d="M4.71967 13.5303C4.86032 13.671 5.05109 13.75 5.25 13.75C5.44891 13.75 5.63968 13.671 5.78033 13.5303L8.78033 10.5303C9.07322 10.2374 9.07322 9.76256 8.78033 9.46967C8.48744 9.17678 8.01256 9.17678 7.71967 9.46967L6 11.1893L6 7C6 5.20508 7.45507 3.75 9.25 3.75C11.0449 3.75 12.5 5.20507 12.5 7L12.5 8C12.5 8.41421 12.8358 8.75 13.25 8.75C13.6642 8.75 14 8.41421 14 8L14 7C14 4.37665 11.8734 2.25 9.25 2.25C6.62665 2.25 4.5 4.37665 4.5 7L4.5 11.1893L2.78033 9.46967C2.48744 9.17678 2.01256 9.17678 1.71967 9.46967C1.42678 9.76256 1.42678 10.2374 1.71967 10.5303L4.71967 13.5303Z" fill="#18181B"/>
</svg>
