<svg width="16" height="16" viewBox="0 0 16 16" fill="none" xmlns="http://www.w3.org/2000/svg">
<path fill-rule="evenodd" clip-rule="evenodd" d="M4 3.5H12C12.8284 3.5 13.5 4.17157 13.5 5V5.5L2.5 5.5V5C2.5 4.17157 3.17157 3.5 4 3.5ZM2.5 10.5V11C2.5 11.8284 3.17157 12.5 4 12.5H7.25V10.5H2.5ZM2.5 9H7.25V7H2.5V9ZM8.75 10.5V12.5L8.75 14H4C2.34315 14 1 12.6569 1 11V5C1 3.34315 2.34315 2 4 2H12C13.6569 2 15 3.34315 15 5V7L13.5 7H8.75V9L8.75 10.5ZM12.4207 8.505C14.2156 8.505 15.6707 9.96008 15.6707 11.755C15.6707 13.5499 14.2156 15.005 12.4207 15.005H11.25C10.8358 15.005 10.5 14.6692 10.5 14.255V9.255C10.5 8.84079 10.8358 8.505 11.25 8.505H12.4207ZM12.4207 13.505C13.3872 13.505 14.1707 12.7215 14.1707 11.755C14.1707 10.7885 13.3872 10.005 12.4207 10.005H12V13.505H12.4207Z" fill="black"/>
</svg>
