<svg width="16" height="16" viewBox="0 0 16 16" fill="none" xmlns="http://www.w3.org/2000/svg">
<path fill-rule="evenodd" clip-rule="evenodd" d="M11.1002 5.89389L10.6885 6.79727L11.3592 7.52923L12.7147 9.00866L10.7211 8.78158L9.73471 8.66923L9.24583 9.53326L8.2577 11.2796L7.85759 9.31338L7.65963 8.34057L6.68681 8.14261L4.72056 7.7425L6.46694 6.75437L7.33097 6.26548L7.21862 5.27911L6.99154 3.28545L8.47097 4.641L9.20293 5.31167L10.1063 4.90002L11.9322 4.06798L11.1002 5.89389ZM7.01899 1.27616L9.48432 3.53505L12.527 2.14854C13.3687 1.76501 14.2352 2.63152 13.8517 3.47318L12.4651 6.51588L14.724 8.9812C15.3489 9.66316 14.7926 10.755 13.8736 10.6503L10.5513 10.2719L8.90471 13.1821C8.44922 13.9871 7.23889 13.7954 7.05445 12.8891L6.38771 9.61249L3.11114 8.94574C2.20479 8.76131 2.01309 7.55097 2.81809 7.09549L5.72826 5.44886L5.34985 2.12663C5.24518 1.20764 6.33704 0.651308 7.01899 1.27616ZM5.53033 11.5303C5.82322 11.2374 5.82322 10.7626 5.53033 10.4697C5.23744 10.1768 4.76256 10.1768 4.46967 10.4697L0.96967 13.9697C0.676777 14.2626 0.676777 14.7374 0.96967 15.0303C1.26256 15.3232 1.73744 15.3232 2.03033 15.0303L5.53033 11.5303Z" fill="#18181B"/>
</svg>
