<svg width="16" height="16" viewBox="0 0 16 16" fill="none" xmlns="http://www.w3.org/2000/svg">
<g clip-path="url(#clip0_2217_4245)">
<path fill-rule="evenodd" clip-rule="evenodd" d="M13.5 12.5H2.50005C2.22391 12.5 2.00006 12.2761 2.00006 12V10.3886L4.81152 8.40405C5.23371 8.10603 5.79576 8.09854 6.22574 8.38519L7.97879 9.5539C9.21042 10.375 10.871 10.0739 11.7359 8.8726L14 5.72802V12C14 12.2761 13.7761 12.5 13.5 12.5ZM13.7194 3.55058L10.5186 7.99614C10.1255 8.54217 9.37067 8.67904 8.81084 8.30582L7.05779 7.13712C6.11183 6.50647 4.87532 6.52296 3.9465 7.17859L2.00006 8.55256V4C2.00006 3.72386 2.22391 3.5 2.50005 3.5H13.5C13.5787 3.5 13.6532 3.51819 13.7194 3.55058ZM0.500062 9.991V4C0.500062 2.89543 1.39549 2 2.50005 2H13.5C14.6046 2 15.5 2.89543 15.5 4V12C15.5 13.1046 14.6046 14 13.5 14H2.50005C1.39549 14 0.500062 13.1046 0.500062 12V10.0103C0.499979 10.0039 0.499979 9.99743 0.500062 9.991Z" fill="#18181B"/>
</g>
<defs>
<clipPath id="clip0_2217_4245">
<rect width="16" height="16" fill="white"/>
</clipPath>
</defs>
</svg>
