<svg width="16" height="16" viewBox="0 0 16 16" fill="none" xmlns="http://www.w3.org/2000/svg">
<path fill-rule="evenodd" clip-rule="evenodd" d="M8 2.5H12C12.8284 2.5 13.5 3.17157 13.5 4V8C13.5 8.82843 12.8284 9.5 12 9.5H11V8C11 6.34315 9.65685 5 8 5H6.5V4C6.5 3.17157 7.17157 2.5 8 2.5ZM5 5V4C5 2.34315 6.34315 1 8 1H12C13.6569 1 15 2.34315 15 4V8C15 9.65685 13.6569 11 12 11H11V12C11 13.6569 9.65685 15 8 15H4C2.34315 15 1 13.6569 1 12V8C1 6.34315 2.34315 5 4 5H5ZM9.5 11V12C9.5 12.8284 8.82843 13.5 8 13.5H4C3.17157 13.5 2.5 12.8284 2.5 12V8C2.5 7.17157 3.17157 6.5 4 6.5H5V8C5 9.65685 6.34315 11 8 11H9.5ZM9.5 9.5H8C7.17157 9.5 6.5 8.82843 6.5 8V6.5H8C8.82843 6.5 9.5 7.17157 9.5 8V9.5Z" fill="#18181B"/>
</svg>
