<svg width="16" height="16" viewBox="0 0 16 16" fill="none" xmlns="http://www.w3.org/2000/svg">
<g clip-path="url(#clip0_3045_13467)">
<path d="M5.87695 1.46048C4.47813 1.94574 3.27179 2.86679 2.43513 4.08833C1.59846 5.30987 1.17556 6.76751 1.22856 8.24716C1.28155 9.72681 1.80764 11.1505 2.72955 12.309C3.65146 13.4676 4.92059 14.3 6.35054 14.6839C7.50983 14.9831 8.72443 14.9962 9.88992 14.7222C10.9457 14.485 11.9219 13.9778 12.7227 13.25C13.5563 12.4695 14.1613 11.4765 14.4727 10.3778C14.8113 9.18309 14.8715 7.92666 14.6488 6.70501H8.13882V9.40548H11.909C11.8336 9.83619 11.6722 10.2473 11.4342 10.6141C11.1963 10.981 10.8868 11.296 10.5243 11.5405C10.0639 11.845 9.54494 12.0499 9.0007 12.142C8.45486 12.2435 7.89498 12.2435 7.34914 12.142C6.79591 12.0277 6.27256 11.7993 5.81242 11.4716C5.0732 10.9483 4.51816 10.2049 4.22648 9.34751C3.92987 8.47404 3.92987 7.52708 4.22648 6.65361C4.4341 6.04134 4.77733 5.48388 5.23054 5.02283C5.74919 4.48552 6.40581 4.10145 7.12837 3.91275C7.85093 3.72406 8.6115 3.73803 9.32664 3.95314C9.88529 4.12463 10.3962 4.42426 10.8185 4.82814C11.2436 4.40522 11.668 3.98121 12.0916 3.55611C12.3104 3.32751 12.5488 3.10986 12.7643 2.87579C12.1196 2.27585 11.3629 1.80901 10.5374 1.50204C9.03428 0.956252 7.38958 0.941584 5.87695 1.46048Z" fill="white"/>
<path d="M5.87691 1.46046C7.38942 0.941214 9.03412 0.955496 10.5374 1.50093C11.363 1.80999 12.1194 2.27907 12.7632 2.88125C12.5444 3.11531 12.3136 3.33406 12.0905 3.56156C11.6661 3.9852 11.2421 4.40739 10.8185 4.82812C10.3961 4.42424 9.88525 4.12461 9.3266 3.95312C8.6117 3.73726 7.85115 3.72248 7.1284 3.9104C6.40565 4.09832 5.74863 4.48169 5.22941 5.01843C4.7762 5.47949 4.43297 6.03695 4.22535 6.64921L1.95801 4.89375C2.76958 3.28436 4.17476 2.0533 5.87691 1.46046Z" fill="#E33629"/>
<path d="M1.35633 6.6328C1.47819 6.02882 1.68052 5.44392 1.95789 4.89374L4.22523 6.65358C3.92862 7.52706 3.92862 8.47401 4.22523 9.34749C3.46981 9.93082 2.71403 10.5171 1.95789 11.1062C1.26352 9.72408 1.05175 8.14929 1.35633 6.6328Z" fill="#F8BD00"/>
<path d="M8.13867 6.70392H14.6487C14.8714 7.92556 14.8111 9.18199 14.4726 10.3767C14.1611 11.4754 13.5561 12.4684 12.7226 13.2489C11.9909 12.678 11.2559 12.1114 10.5241 11.5405C10.8869 11.2958 11.1965 10.9804 11.4345 10.6131C11.6724 10.2459 11.8338 9.83439 11.9088 9.40329H8.13867C8.13758 8.50423 8.13867 7.60407 8.13867 6.70392Z" fill="#587DBD"/>
<path d="M1.95703 11.1062C2.71318 10.5229 3.46896 9.93664 4.22438 9.34747C4.51663 10.2052 5.07247 10.9486 5.8125 11.4715C6.27407 11.7978 6.79855 12.0242 7.3525 12.1365C7.89834 12.238 8.45822 12.238 9.00406 12.1365C9.54831 12.0444 10.0673 11.8395 10.5277 11.535C11.2594 12.1059 11.9944 12.6725 12.7261 13.2434C11.9253 13.9715 10.9492 14.4792 9.89328 14.7167C8.72779 14.9907 7.5132 14.9775 6.35391 14.6784C5.43702 14.4336 4.58058 14.002 3.83828 13.4108C3.0526 12.787 2.41089 12.0009 1.95703 11.1062Z" fill="#319F43"/>
</g>
<defs>
<clipPath id="clip0_3045_13467">
<rect width="14" height="14" fill="white" transform="translate(1 1)"/>
</clipPath>
</defs>
</svg>
