<svg width="16" height="16" viewBox="0 0 16 16" fill="none" xmlns="http://www.w3.org/2000/svg">
<path fill-rule="evenodd" clip-rule="evenodd" d="M6.43934 4.06066L6.87868 4.5H7.5H12.5C13.3284 4.5 14 5.17157 14 6V11C14 11.8284 13.3284 12.5 12.5 12.5H3.5C2.67157 12.5 2 11.8284 2 11V4.5C2 3.67157 2.67157 3 3.5 3H4.75736C5.15518 3 5.53672 3.15804 5.81802 3.43934L6.43934 4.06066ZM0.5 4.5C0.5 2.84315 1.84315 1.5 3.5 1.5H4.75736C5.55301 1.5 6.31607 1.81607 6.87868 2.37868L7.5 3H12.5C14.1569 3 15.5 4.34315 15.5 6V11C15.5 12.6569 14.1569 14 12.5 14H3.5C1.84315 14 0.5 12.6569 0.5 11V4.5ZM8.53033 5.96967C8.23744 5.67678 7.76256 5.67678 7.46967 5.96967C7.17678 6.26256 7.17678 6.73744 7.46967 7.03033L8.18934 7.75H6C5.58579 7.75 5.25 8.08579 5.25 8.5C5.25 8.91421 5.58579 9.25 6 9.25H8.18934L7.46967 9.96967C7.17678 10.2626 7.17678 10.7374 7.46967 11.0303C7.76256 11.3232 8.23744 11.3232 8.53033 11.0303L10.5303 9.03033C10.8232 8.73744 10.8232 8.26256 10.5303 7.96967L8.53033 5.96967Z" fill="#18181B"/>
</svg>
