<svg width="16" height="16" viewBox="0 0 16 16" fill="none" xmlns="http://www.w3.org/2000/svg">
<path fill-rule="evenodd" clip-rule="evenodd" d="M3.27881 2.54396C3.3708 2.22198 3.66509 2 3.99995 2H7.99995H11.9999C12.3348 2 12.6291 2.22198 12.7211 2.54396L13.2211 4.29396C13.3349 4.69224 13.1043 5.10735 12.706 5.22114C12.3077 5.33494 11.8926 5.10432 11.7788 4.70604L11.4342 3.5H8.74967L8.74632 12.5H9.49995C9.91416 12.5 10.2499 12.8358 10.2499 13.25C10.2499 13.6642 9.91416 14 9.49995 14H7.99995H7.99634C7.99615 14 7.99595 14 7.99576 14H6.49995C6.08574 14 5.74995 13.6642 5.74995 13.25C5.74995 12.8358 6.08574 12.5 6.49995 12.5H7.24632L7.24967 3.5H4.56568L4.22109 4.70604C4.1073 5.10432 3.69218 5.33494 3.29391 5.22114C2.89563 5.10735 2.66501 4.69224 2.77881 4.29396L3.27881 2.54396Z" fill="#18181B"/>
</svg>
