<svg width="16" height="16" viewBox="0 0 16 16" fill="none" xmlns="http://www.w3.org/2000/svg">
<path fill-rule="evenodd" clip-rule="evenodd" d="M4.27273 5H5.32337L5.68242 4.01261L5.93096 3.32913C6.00281 3.13153 6.1906 3 6.40085 3H9.59915C9.8094 3 9.99719 3.13153 10.069 3.32913L10.3176 4.01261L10.6766 5H11.7273H12C12.8284 5 13.5 5.67157 13.5 6.5V11C13.5 11.8284 12.8284 12.5 12 12.5H4C3.17157 12.5 2.5 11.8284 2.5 11V6.5C2.5 5.67157 3.17157 5 4 5H4.27273ZM6.40085 1.5C5.55984 1.5 4.80868 2.02613 4.52127 2.81651L4.27273 3.5H4C2.34315 3.5 1 4.84315 1 6.5V11C1 12.6569 2.34315 14 4 14H12C13.6569 14 15 12.6569 15 11V6.5C15 4.84315 13.6569 3.5 12 3.5H11.7273L11.4787 2.81651C11.1913 2.02614 10.4402 1.5 9.59915 1.5H6.40085ZM9.5 8.5C9.5 9.32843 8.82843 10 8 10C7.17157 10 6.5 9.32843 6.5 8.5C6.5 7.67157 7.17157 7 8 7C8.82843 7 9.5 7.67157 9.5 8.5ZM11 8.5C11 10.1569 9.65685 11.5 8 11.5C6.34315 11.5 5 10.1569 5 8.5C5 6.84315 6.34315 5.5 8 5.5C9.65685 5.5 11 6.84315 11 8.5Z" fill="#18181B"/>
</svg>
