<svg width="16" height="16" viewBox="0 0 16 16" fill="none" xmlns="http://www.w3.org/2000/svg">
<path fill-rule="evenodd" clip-rule="evenodd" d="M10.5003 2.25461L10.5 2.25L10.5003 2.24539C10.5027 2.21458 10.5126 2.08821 10.1385 1.89438C9.70325 1.66892 8.96692 1.5 8.00002 1.5C7.03311 1.5 6.29678 1.66892 5.86158 1.89438C5.48744 2.08821 5.49733 2.21458 5.49975 2.24539L5.50002 2.25L5.49975 2.25461C5.49907 2.26325 5.4978 2.27943 5.5046 2.3025L4.3809 1.1788C5.02113 0.392935 6.401 0 8.00002 0C10.2092 0 12 0.75 12 2.25C12 2.98768 11.5669 3.54397 10.8639 3.91887L11.689 6.22925C13.2417 6.70914 14.25 7.54936 14.25 8.74991C14.25 9.36612 13.9844 9.88739 13.5158 10.3137L5.73781 2.53571C5.7735 2.55791 5.8145 2.58123 5.86158 2.60562C6.29678 2.83108 7.03311 3 8.00002 3C8.96692 3 9.70325 2.83108 10.1385 2.60562C10.5126 2.41179 10.5027 2.28542 10.5003 2.25461ZM4.53669 5.59734L4.31101 6.22924C2.7583 6.70912 1.75 7.54935 1.75 8.74991C1.75 10.6028 4.15184 11.5974 7.25002 11.7337V15C7.25002 15.4142 7.5858 15.75 8.00002 15.75C8.41423 15.75 8.75002 15.4142 8.75002 15V11.7337C9.36216 11.7068 9.94713 11.6463 10.4918 11.5524L12.9697 14.0303C13.2626 14.3232 13.7375 14.3232 14.0303 14.0303C14.3232 13.7374 14.3232 13.2626 14.0303 12.9697L3.03035 1.96967C2.73745 1.67678 2.26258 1.67678 1.96969 1.96967C1.67679 2.26256 1.67679 2.73744 1.96969 3.03033L4.53669 5.59734Z" fill="#18181B"/>
</svg>
