<svg width="16" height="16" viewBox="0 0 16 16" fill="none" xmlns="http://www.w3.org/2000/svg">
<path fill-rule="evenodd" clip-rule="evenodd" d="M8.42664 11.0731L9.63213 9.86784C9.7076 9.79239 9.75 9.69004 9.75 9.58333C9.75 9.3699 9.66521 9.16522 9.51429 9.01432L8.42663 7.92678C8.31347 7.81363 8.16 7.75007 7.99998 7.75007C7.83995 7.75007 7.68648 7.81364 7.57332 7.92679L6.48572 9.0143C6.33479 9.16522 6.25 9.36991 6.25 9.58334C6.25 9.69005 6.29239 9.79239 6.36785 9.86785L7.57307 11.0731C7.68626 11.1863 7.83979 11.2499 7.99987 11.2499C8.15993 11.2499 8.31344 11.1863 8.42664 11.0731Z" fill="#18181B"/>
<path fill-rule="evenodd" clip-rule="evenodd" d="M16 5.79551V5.76777C16 4.79146 15.2085 4 14.2322 4C13.7634 4 13.3138 4.18625 12.9822 4.51777L12.2216 5.27838L12.198 5.30198L11.8236 5.67638L11.4086 6.09137C11.2266 6.27345 10.9157 6.1909 10.8479 5.94247L10.6935 5.37626L10.5542 4.86544L10.5454 4.83325L9.89468 2.44715C9.66166 1.59274 8.88561 1 8 1C7.11439 1 6.33834 1.59274 6.10532 2.44714L5.45457 4.83325L5.44579 4.86544L5.30647 5.37627L5.15205 5.94247C5.0843 6.1909 4.77345 6.27345 4.59137 6.09137L4.17638 5.67638L3.80198 5.30198L3.77838 5.27838L3.01777 4.51777C2.68625 4.18625 2.23661 4 1.76777 4C0.791456 4 0 4.79146 0 5.76777V5.79551C0 5.9314 0.0154252 6.06684 0.0459805 6.19925L1.34544 11.8302C1.44294 12.2527 1.73042 12.6063 2.12411 12.788C5.8524 14.5088 10.1476 14.5088 13.8759 12.788C14.2696 12.6063 14.5571 12.2527 14.6546 11.8302L15.954 6.19925C15.9846 6.06684 16 5.9314 16 5.79551ZM3.53071 7.15203C4.52719 8.14851 6.22841 7.69672 6.5992 6.33715L7.55247 2.84182C7.60751 2.64001 7.79081 2.5 8 2.5C8.20919 2.5 8.39249 2.64001 8.44753 2.84182L9.4008 6.33715C9.7716 7.69674 11.4728 8.1485 12.4693 7.15203L14.0429 5.57843C14.0931 5.52821 14.1612 5.5 14.2322 5.5C14.3801 5.5 14.5 5.61988 14.5 5.76777V5.79551C14.5 5.81788 14.4975 5.84017 14.4924 5.86196L13.2038 11.4461C9.89898 12.9561 6.10102 12.9561 2.79622 11.4461L1.50757 5.86196C1.50254 5.84017 1.5 5.81788 1.5 5.79551V5.76777C1.5 5.61988 1.61988 5.5 1.76777 5.5C1.83878 5.5 1.90689 5.52821 1.95711 5.57843L3.53071 7.15203Z" fill="#18181B"/>
</svg>
