<svg width="16" height="16" viewBox="0 0 16 16" fill="none" xmlns="http://www.w3.org/2000/svg">
<path fill-rule="evenodd" clip-rule="evenodd" d="M7.18198 2.93934L2.31257 7.80875C1.92453 8.19679 1.9217 8.82504 2.30623 9.21656L6.67629 13.6661C7.06316 14.06 7.69607 14.0658 8.09014 13.6791L13.0506 8.81137C13.3381 8.52929 13.5 8.14348 13.5 7.74075L13.5 3.5C13.5 2.94772 13.0523 2.5 12.5 2.5L8.24264 2.5C7.84482 2.5 7.46328 2.65803 7.18198 2.93934ZM14.1012 9.88199C14.6761 9.31784 15 8.54621 15 7.74075L15 3.5C15 2.11929 13.8807 1 12.5 1L8.24264 1C7.44699 1 6.68393 1.31607 6.12132 1.87868L1.25191 6.74809C0.281816 7.71818 0.274741 9.28883 1.23606 10.2676L5.60611 14.7171C6.5733 15.7019 8.15557 15.7165 9.14075 14.7497L14.1012 9.88199ZM10.3817 4.55764C10.0498 4.34981 9.69817 4.21808 9.33659 4.1786C8.7192 4.11119 8.14626 4.3232 7.72139 4.74807C7.18094 5.28852 7.16148 5.9777 7.28357 6.5152C7.40295 7.04076 7.6777 7.54394 7.92063 7.92558C8.17466 8.32466 8.38141 8.65737 8.46962 8.95808C8.54263 9.20697 8.50575 9.31023 8.39834 9.4176C8.32592 9.48999 8.21608 9.54215 7.9811 9.48357C7.7277 9.4204 7.41233 9.23746 7.12552 8.95065C6.88231 8.70744 6.72355 8.38771 6.65717 8.07222C6.58795 7.74327 6.63432 7.50141 6.69142 7.39166C6.88259 7.0242 6.73968 6.57134 6.37221 6.38017C6.00475 6.18901 5.55189 6.33192 5.36073 6.69938C5.09771 7.20495 5.07217 7.82436 5.18931 8.38107C5.25909 8.71273 5.385 9.05121 5.57057 9.3688L5.31803 9.62134C5.02514 9.91423 5.02514 10.3891 5.31803 10.682C5.61093 10.9749 6.0858 10.9749 6.37869 10.682L6.59997 10.4607C6.91235 10.6787 7.25829 10.8493 7.61829 10.939C8.21875 11.0887 8.91914 11.0179 9.45881 10.4785C10.0701 9.86738 10.084 9.13265 9.90897 8.53585C9.75585 8.01387 9.43726 7.51419 9.21482 7.1653L9.21481 7.16529L9.21481 7.16529L9.18602 7.1201C8.97347 6.7862 8.80838 6.4562 8.74631 6.18294C8.68695 5.92162 8.74443 5.84636 8.78205 5.80874C8.89261 5.69818 9.01839 5.65278 9.17378 5.66974C9.34593 5.68854 9.61949 5.79459 9.95053 6.12563C10.2817 6.45681 10.3975 6.72668 10.4332 6.91543C10.4689 7.10389 10.4368 7.27469 10.3656 7.42941C10.1925 7.80572 10.3572 8.25111 10.7335 8.42421C11.1099 8.59731 11.5552 8.43258 11.7283 8.05627C11.9086 7.66432 12.0094 7.17721 11.907 6.6365C11.8405 6.28497 11.6933 5.93762 11.4607 5.59998L11.682 5.37872C11.9749 5.08583 11.9749 4.61095 11.682 4.31806C11.3891 4.02517 10.9142 4.02517 10.6213 4.31806L10.3817 4.55764Z" fill="#18181B"/>
</svg>
