<svg width="16" height="16" viewBox="0 0 16 16" fill="none" xmlns="http://www.w3.org/2000/svg">
<path fill-rule="evenodd" clip-rule="evenodd" d="M8 13.5C9.24835 13.5 10.3996 13.0841 11.3226 12.3833L9.88737 10.948C9.34279 11.2974 8.69505 11.5 8 11.5C7.30495 11.5 6.65721 11.2974 6.11263 10.948L4.67736 12.3833C5.60043 13.0841 6.75165 13.5 8 13.5ZM5.05197 9.88737C4.7026 9.34279 4.5 8.69505 4.5 8C4.5 7.30495 4.7026 6.65721 5.05197 6.11263L3.6167 4.67736C2.9159 5.60043 2.5 6.75165 2.5 8C2.5 9.24835 2.9159 10.3996 3.6167 11.3226L5.05197 9.88737ZM6.11263 5.05197L4.67736 3.6167C5.60043 2.9159 6.75165 2.5 8 2.5C9.24835 2.5 10.3996 2.9159 11.3226 3.6167L9.88737 5.05197C9.34279 4.7026 8.69505 4.5 8 4.5C7.30495 4.5 6.65721 4.7026 6.11263 5.05197ZM10.948 6.11263C11.2974 6.65721 11.5 7.30495 11.5 8C11.5 8.69505 11.2974 9.34279 10.948 9.88737L12.3833 11.3226C13.0841 10.3996 13.5 9.24835 13.5 8C13.5 6.75165 13.0841 5.60043 12.3833 4.67736L10.948 6.11263ZM8 15C11.866 15 15 11.866 15 8C15 4.13401 11.866 1 8 1C4.13401 1 1 4.13401 1 8C1 11.866 4.13401 15 8 15ZM10 8C10 9.10457 9.10457 10 8 10C6.89543 10 6 9.10457 6 8C6 6.89543 6.89543 6 8 6C9.10457 6 10 6.89543 10 8Z" fill="#18181B"/>
</svg>
