<svg width="16" height="16" viewBox="0 0 16 16" fill="none" xmlns="http://www.w3.org/2000/svg">
<path fill-rule="evenodd" clip-rule="evenodd" d="M2.5 4.25C2.5 3.83579 2.16421 3.5 1.75 3.5C1.33579 3.5 1 3.83579 1 4.25V11.7458C1 12.16 1.33579 12.4958 1.75 12.4958C2.16421 12.4958 2.5 12.16 2.5 11.7458V8.75H6.5V11.7458C6.5 12.16 6.83579 12.4958 7.25 12.4958C7.66421 12.4958 8 12.16 8 11.7458V4.25C8 3.83579 7.66421 3.5 7.25 3.5C6.83579 3.5 6.5 3.83579 6.5 4.25V7.25H2.5V4.25ZM10.6144 5.74577C10.8159 5.24206 11.3038 4.91176 11.8463 4.91176H12.1262C12.5899 4.91176 12.9843 5.2501 13.0548 5.70844L13.0824 5.88757C13.176 6.49596 12.7743 7.07028 12.1707 7.191L11.3702 7.35109C11.0366 7.41781 10.8079 7.72664 10.8415 8.06521C10.875 8.40378 11.1598 8.66176 11.5 8.66176H12.7105C13.2523 8.66176 13.6684 9.14161 13.5918 9.67793C13.4871 10.4111 12.9111 10.9871 12.1779 11.0918L12.0746 11.1066C11.3385 11.2117 10.6131 10.8547 10.2474 10.2073L10.2289 10.1745C10.0492 9.85631 9.64546 9.74405 9.32724 9.9238C9.00902 10.1036 8.89676 10.5072 9.07651 10.8255L9.095 10.8582C9.72887 11.9804 10.986 12.5991 12.2618 12.4168L12.3651 12.402C13.6806 12.2141 14.7141 11.1806 14.902 9.86511C15.0337 8.9438 14.5805 8.08953 13.8436 7.64933C14.284 7.12192 14.5027 6.4155 14.3905 5.68632L14.363 5.50719C14.1931 4.40319 13.2432 3.58824 12.1262 3.58824H11.8463C10.7626 3.58824 9.78805 4.24803 9.38557 5.25423C9.24983 5.59357 9.41488 5.9787 9.75423 6.11443C10.0936 6.25017 10.4787 6.08512 10.6144 5.74577Z" fill="#18181B"/>
</svg>
