<svg width="16" height="16" viewBox="0 0 16 16" fill="none" xmlns="http://www.w3.org/2000/svg">
<path fill-rule="evenodd" clip-rule="evenodd" d="M9.21916 14.0298C9.21933 14.03 9.21899 14.0297 9.21916 14.0298C9.51205 14.3227 9.98744 14.3232 10.2803 14.0303C10.2938 14.0169 10.3066 14.0031 10.3188 13.9889C10.5726 13.6942 10.5598 13.2491 10.2803 12.9697L9.81066 12.5H10C10.1036 12.5 10.2059 12.4948 10.3067 12.4845C10.5047 12.4644 10.697 12.4251 10.8816 12.3684C11.1021 12.3007 11.3117 12.2083 11.5072 12.0945C12.3999 11.5747 13 10.6074 13 9.5L13 6.89648C13.0009 6.89622 13.0019 6.89595 13.0028 6.89568C13.2489 6.8258 13.4809 6.72253 13.6936 6.59108C13.7253 6.57146 13.7567 6.55121 13.7876 6.53034C14.5191 6.03615 15 5.19924 15 4.25C15 2.73122 13.7688 1.5 12.25 1.5C11.205 1.5 10.2961 2.08293 9.83072 2.94137C9.61979 3.33051 9.5 3.77627 9.5 4.25C9.5 4.72373 9.61979 5.16949 9.83073 5.55863C9.85554 5.60441 9.88162 5.64941 9.90892 5.69359C9.92854 5.72534 9.94879 5.75667 9.96966 5.78755C10.3285 6.31869 10.868 6.71773 11.5 6.89648L11.5 9.5C11.5 10.1083 11.1379 10.6321 10.6174 10.8674C10.4291 10.9526 10.2201 11 10 11H9.81066L10.2798 10.5308C10.28 10.5307 10.2797 10.531 10.2798 10.5308C10.5628 10.2479 10.5729 9.79448 10.309 9.5C10.2998 9.48969 10.2902 9.47958 10.2803 9.46967C10.1985 9.3878 10.1024 9.32881 10 9.29271C9.73617 9.19966 9.43069 9.25865 9.21967 9.46967L8.75 9.93934C8.75012 9.93922 8.74988 9.93946 8.75 9.93934L7.46967 11.2197C7.32902 11.3603 7.25 11.5511 7.25 11.75C7.25 11.9489 7.32902 12.1397 7.46967 12.2803L9.21916 14.0298ZM5.71967 1.96967C6.01256 1.67678 6.48744 1.67678 6.78033 1.96967L7.25 2.43934C7.25015 2.43949 7.24985 2.43919 7.25 2.43934L8.53033 3.71967C8.67678 3.86612 8.75 4.05806 8.75 4.25C8.75 4.44194 8.67678 4.63388 8.53033 4.78033L6.78084 6.52982C6.78101 6.52965 6.78067 6.52999 6.78084 6.52982C6.56982 6.74084 6.26382 6.80034 5.99999 6.70729C5.89763 6.67119 5.80154 6.6122 5.71967 6.53033C5.70976 6.52042 5.70019 6.51031 5.69096 6.5C5.42711 6.20552 5.43668 5.75266 5.71967 5.46967L6.18934 5H5.99999C5.77989 5 5.57086 5.0474 5.38256 5.13256C4.86211 5.36792 4.49999 5.89167 4.49999 6.5V9.10351C5.21997 9.30715 5.81992 9.79667 6.16945 10.4417C6.38028 10.8308 6.5 11.2764 6.5 11.75C6.5 12.2236 6.38028 12.6692 6.16945 13.0583C5.95772 13.449 5.65409 13.7827 5.28755 14.0303C5.25667 14.0512 5.22534 14.0715 5.19359 14.0911C4.77399 14.3504 4.27947 14.5 3.75 14.5C2.80076 14.5 1.96385 14.0191 1.46966 13.2876C1.44879 13.2567 1.42854 13.2253 1.40892 13.1936C1.14963 12.774 1 12.2795 1 11.75C1 10.516 1.8128 9.47182 2.93223 9.12363C2.9547 9.11665 2.97728 9.10993 2.99999 9.10351V6.5C2.99999 5.39256 3.60005 4.42527 4.49277 3.90554C4.68834 3.79168 4.89795 3.6993 5.11837 3.63163C5.39713 3.54606 5.69318 3.5 5.99999 3.5H6.18934L5.71967 3.03033C5.44022 2.75088 5.4274 2.30577 5.68119 2.01112C5.6934 1.99694 5.70622 1.98311 5.71967 1.96967ZM4.81239 11.091C4.92653 11.2749 4.99432 11.4903 4.99966 11.7205C4.99989 11.7303 5 11.7402 5 11.75C5 12.4404 4.44036 13 3.75 13C3.05964 13 2.5 12.4404 2.5 11.75C2.5 11.5082 2.56868 11.2823 2.68761 11.091C2.90816 10.7362 3.30149 10.5 3.75 10.5C4.19851 10.5 4.59184 10.7362 4.81239 11.091ZM11 4.25C11 3.55964 11.5596 3 12.25 3C12.9404 3 13.5 3.55964 13.5 4.25C13.5 4.94036 12.9404 5.5 12.25 5.5C11.5596 5.5 11 4.94036 11 4.25Z" fill="#18181B"/>
</svg>
