<svg width="16" height="16" viewBox="0 0 16 16" fill="none" xmlns="http://www.w3.org/2000/svg">
<path fill-rule="evenodd" clip-rule="evenodd" d="M11.5 3H4.5C3.67157 3 3 3.67157 3 4.5V11.5C3 12.3284 3.67157 13 4.5 13H11.5C12.3284 13 13 12.3284 13 11.5V4.5C13 3.67157 12.3284 3 11.5 3ZM4.5 1.5C2.84315 1.5 1.5 2.84315 1.5 4.5V11.5C1.5 13.1569 2.84315 14.5 4.5 14.5H11.5C13.1569 14.5 14.5 13.1569 14.5 11.5V4.5C14.5 2.84315 13.1569 1.5 11.5 1.5H4.5ZM9 10.5C9 11.0523 8.55228 11.5 8 11.5C7.44772 11.5 7 11.0523 7 10.5C7 9.94771 7.44772 9.5 8 9.5C8.55228 9.5 9 9.94771 9 10.5ZM8.75 5C8.75 4.58579 8.41421 4.25 8 4.25C7.58579 4.25 7.25 4.58579 7.25 5V7.5C7.25 7.91421 7.58579 8.25 8 8.25C8.41421 8.25 8.75 7.91421 8.75 7.5V5Z" fill="#18181B"/>
</svg>
