<svg width="16" height="16" viewBox="0 0 16 16" fill="none" xmlns="http://www.w3.org/2000/svg">
<path fill-rule="evenodd" clip-rule="evenodd" d="M8 15.0001C11.866 15.0001 15 11.8661 15 8.00006C15 4.13407 11.866 1.00006 8 1.00006C4.13401 1.00006 1 4.13407 1 8.00006C1 11.8661 4.13401 15.0001 8 15.0001ZM9.96967 9.28036C10.2626 9.57325 10.7374 9.57325 11.0303 9.28036C11.3232 8.98747 11.3232 8.51259 11.0303 8.2197L8.53033 5.7197C8.38968 5.57905 8.19891 5.50003 8 5.50003C7.80109 5.50003 7.61032 5.57905 7.46967 5.7197L4.96967 8.2197C4.67678 8.51259 4.67678 8.98747 4.96967 9.28036C5.26256 9.57325 5.73744 9.57325 6.03033 9.28036L8 7.31069L9.96967 9.28036Z" fill="black"/>
</svg>
