<svg width="16" height="16" viewBox="0 0 16 16" fill="none" xmlns="http://www.w3.org/2000/svg">
<path fill-rule="evenodd" clip-rule="evenodd" d="M8 5.5C7.47053 5.5 6.97601 5.35037 6.55641 5.09108C6.18296 4.86031 5.86886 4.54267 5.64231 4.16636C5.04251 4.53602 4.53602 5.04251 4.16636 5.64231C4.96547 6.1234 5.5 6.99928 5.5 8C5.5 8.52947 5.35037 9.02399 5.09108 9.44359C4.86031 9.81704 4.54267 10.1311 4.16636 10.3577C4.53602 10.9575 5.0425 11.464 5.64231 11.8336C6.1234 11.0345 6.99928 10.5 8 10.5C9.00073 10.5 9.87661 11.0345 10.3577 11.8337C10.9575 11.464 11.464 10.9575 11.8337 10.3577C11.8246 10.3522 11.8155 10.3467 11.8064 10.3411C11.0224 9.85661 10.5 8.98931 10.5 8C10.5 6.99927 11.0345 6.12338 11.8337 5.6423C11.464 5.04249 10.9575 4.536 10.3577 4.16634C10.3522 4.17546 10.3467 4.18454 10.3411 4.19359C9.85661 4.97759 8.98931 5.5 8 5.5ZM10.7487 2.66524C10.7039 1.18567 9.49043 0 8 0C6.50957 0 5.29606 1.18568 5.25128 2.66526C4.14371 3.23709 3.2371 4.14371 2.66527 5.25128C1.18569 5.29606 0 6.50956 0 8C0 8.98931 0.522408 9.85661 1.30641 10.3411C1.70354 10.5865 2.16779 10.7337 2.66527 10.7487C3.2371 11.8563 4.14371 12.7629 5.25128 13.3347C5.28016 14.2887 5.79488 15.1205 6.55641 15.5911C6.97601 15.8504 7.47053 16 8 16C8.98931 16 9.85661 15.4776 10.3411 14.6936C10.5865 14.2965 10.7337 13.8322 10.7487 13.3348C11.8563 12.7629 12.7629 11.8563 13.3348 10.7487C14.2887 10.7198 15.1205 10.2051 15.5911 9.44359C15.8504 9.02399 16 8.52947 16 8C16 6.50958 14.8143 5.29608 13.3348 5.25128C12.7629 4.1437 11.8563 3.23707 10.7487 2.66524ZM9.25 2.75C9.25 3.44036 8.69035 4 8 4C7.30964 4 6.75 3.44036 6.75 2.75C6.75 2.05964 7.30964 1.5 8 1.5C8.69036 1.5 9.25 2.05964 9.25 2.75ZM4 8C4 8.69036 3.44035 9.25 2.75 9.25C2.05964 9.25 1.5 8.69036 1.5 8C1.5 7.30964 2.05964 6.75 2.75 6.75C3.44036 6.75 4 7.30964 4 8ZM9.25 13.25C9.25 13.9404 8.69035 14.5 8 14.5C7.30964 14.5 6.75 13.9404 6.75 13.25C6.75 12.5596 7.30964 12 8 12C8.69036 12 9.25 12.5596 9.25 13.25ZM13.25 9.25C13.9404 9.25 14.5 8.69036 14.5 8C14.5 7.30964 13.9404 6.75 13.25 6.75C12.5596 6.75 12 7.30964 12 8C12 8.69036 12.5596 9.25 13.25 9.25Z" fill="#18181B"/>
</svg>
