<svg width="16" height="16" viewBox="0 0 16 16" fill="none" xmlns="http://www.w3.org/2000/svg">
<path fill-rule="evenodd" clip-rule="evenodd" d="M8 2.5C11.0376 2.5 13.5 4.96243 13.5 8C13.5 11.0376 11.0376 13.5 8 13.5C4.96243 13.5 2.5 11.0376 2.5 8C2.5 4.96243 4.96243 2.5 8 2.5ZM8 1C11.866 1 15 4.13401 15 8C15 11.866 11.866 15 8 15C4.13401 15 1 11.866 0.999999 8C0.999999 4.13401 4.13401 1 8 1ZM9.2803 6.03033C9.57319 5.73744 9.57319 5.26256 9.2803 4.96967C8.98741 4.67678 8.51253 4.67678 8.21964 4.96967L5.71964 7.46967C5.57899 7.61032 5.49997 7.80109 5.49997 8C5.49997 8.19891 5.57899 8.38968 5.71964 8.53033L8.21964 11.0303C8.51253 11.3232 8.98741 11.3232 9.2803 11.0303C9.57319 10.7374 9.57319 10.2626 9.2803 9.96967L7.31063 8L9.2803 6.03033Z" fill="#18181B"/>
</svg>
