<svg width="16" height="16" viewBox="0 0 16 16" fill="none" xmlns="http://www.w3.org/2000/svg">
<path fill-rule="evenodd" clip-rule="evenodd" d="M7.0008 9L7.0008 11.6645C7.0008 11.8498 6.85061 12 6.66533 12C6.58685 12 6.51086 11.9725 6.45057 11.9222L1.7293 7.98785C1.58451 7.8672 1.5008 7.68847 1.5008 7.5C1.5008 7.31153 1.58451 7.1328 1.7293 7.01215L6.45057 3.07775C6.51086 3.02751 6.58685 3 6.66533 3C6.8506 3 7.0008 3.15019 7.0008 3.33547L7.0008 6H8.5008C10.0842 6 11.6825 6.57134 12.7413 7.69194C13.6404 8.64341 14.2898 10.1383 14.0508 12.4146C13.4018 11.3893 12.6857 10.5783 11.8498 10.0015C10.8023 9.27884 9.67741 9 8.5008 9H7.0008ZM10.0008 10.7313C11.1619 11.1271 12.1649 12.0681 13.1512 13.8371C13.3746 14.2376 13.7905 14.5 14.2491 14.5C14.8007 14.4999 15.2895 14.1245 15.3925 13.5826C16.5984 7.23708 12.3215 4.5 8.5008 4.5L8.5008 3.33547C8.5008 2.32177 7.67903 1.5 6.66533 1.5C6.23595 1.5 5.82015 1.65054 5.49029 1.92542L0.76902 5.85982C0.282247 6.26546 0.000799179 6.86636 0.000799179 7.5C0.000799179 8.13364 0.282246 8.73454 0.76902 9.14018L5.49029 13.0746C5.82015 13.3495 6.23595 13.5 6.66533 13.5C7.67903 13.5 8.5008 12.6782 8.5008 11.6645L8.5008 10.5C9.03307 10.5 9.52993 10.5708 10.0008 10.7313Z" fill="#18181B"/>
</svg>
