<svg width="16" height="16" viewBox="0 0 16 16" fill="none" xmlns="http://www.w3.org/2000/svg">
<path fill-rule="evenodd" clip-rule="evenodd" d="M13.5 8C13.5 11.0376 11.0376 13.5 8 13.5C4.96243 13.5 2.5 11.0376 2.5 8C2.5 4.96243 4.96243 2.5 8 2.5C11.0376 2.5 13.5 4.96243 13.5 8ZM15 8C15 11.866 11.866 15 8 15C4.13401 15 1 11.866 1 8C1 4.13401 4.13401 1 8 1C11.866 1 15 4.13401 15 8ZM8.75 4.25C8.75 3.83579 8.41421 3.5 8 3.5C7.58579 3.5 7.25 3.83579 7.25 4.25V4.58875C6.86833 4.67647 6.52648 4.832 6.24287 5.05978C5.75864 5.44867 5.50343 6.00371 5.50343 6.60457C5.50343 7.36888 5.97699 7.86997 6.44339 8.1637C6.89943 8.45092 7.44951 8.61245 7.89115 8.71053C8.35296 8.81309 8.73442 8.90215 9.00943 9.05241C9.23705 9.17678 9.28399 9.27588 9.28396 9.42775C9.28394 9.53014 9.24315 9.64469 9.03558 9.76943C8.81173 9.90394 8.45936 9.99759 8.05375 9.99759C7.70981 9.99759 7.37146 9.88376 7.10144 9.70762C6.81989 9.52396 6.68166 9.32014 6.64443 9.20217C6.51977 8.80716 6.0985 8.58799 5.70349 8.71265C5.30848 8.83731 5.08931 9.25858 5.21397 9.65359C5.38548 10.1971 5.80541 10.6531 6.28189 10.9639C6.56578 11.1491 6.89418 11.2994 7.25 11.3928V11.75C7.25 12.1642 7.58579 12.5 8 12.5C8.41421 12.5 8.75 12.1642 8.75 11.75V11.437C9.12497 11.3702 9.4902 11.2462 9.8082 11.0551C10.3386 10.7364 10.7838 10.1911 10.784 9.42802C10.7841 8.56367 10.2744 8.03429 9.72865 7.73608C9.25127 7.47526 8.67266 7.3472 8.26867 7.2578L8.26866 7.25779L8.21635 7.2462C7.82996 7.16039 7.47987 7.04378 7.24276 6.89445C7.01601 6.75164 7.00343 6.65777 7.00343 6.60457C7.00343 6.44822 7.06027 6.32718 7.18214 6.2293C7.31716 6.12086 7.58558 6.00241 8.05375 6.00241C8.52211 6.00241 8.79479 6.11138 8.95351 6.21958C9.112 6.32763 9.21009 6.47109 9.26917 6.63082C9.41286 7.01931 9.84427 7.21776 10.2328 7.07408C10.6213 6.93039 10.8197 6.49897 10.676 6.11048C10.5264 5.70583 10.2531 5.29017 9.79845 4.98019C9.50286 4.77868 9.15316 4.63718 8.75 4.56287V4.25Z" fill="#18181B"/>
</svg>
