<svg width="16" height="16" viewBox="0 0 16 16" fill="none" xmlns="http://www.w3.org/2000/svg">
<g clip-path="url(#clip0_2217_3299)">
<path fill-rule="evenodd" clip-rule="evenodd" d="M6 2.5L2.26345 5.4062C1.78175 5.78086 1.5 6.35694 1.5 6.96719C1.5 8.09529 2.42959 8.96002 3.5 8.94554C3.65035 8.94351 3.80347 8.92413 3.95719 8.8857L5 8.625V10.1712V10.5L5 14.0579C5 15.1305 5.86951 16 6.9421 16C7.85236 16 8.64049 15.3678 8.83796 14.4792L9.5 11.5L12.244 11.0427C13.9897 10.7517 15.1055 9.02057 14.6495 7.3105L13.5 3L6 2.5ZM13.2001 7.697L12.3276 4.42517L6.47009 4.03467L3.18436 6.59023C3.06804 6.68071 3 6.81982 3 6.96719C3 7.27788 3.29197 7.50584 3.59338 7.43049L4.6362 7.16979L6.5 6.70384V8.625L6.5 10.5V14.0579C6.5 14.3021 6.69794 14.5 6.9421 14.5C7.14931 14.5 7.32872 14.3561 7.37367 14.1538L8.03572 11.1746L8.25524 10.1868L9.2534 10.0204L11.9974 9.56308C12.8702 9.4176 13.4281 8.55203 13.2001 7.697ZM13.3034 0.501906C13.7166 0.531418 14.0276 0.890274 13.9981 1.30344C13.9686 1.7166 13.6097 2.02761 13.1966 1.99809L6.19656 1.49809C5.7834 1.46858 5.47239 1.10973 5.50191 0.696565C5.53142 0.283403 5.89027 -0.0276051 6.30344 0.00190544L13.3034 0.501906Z" fill="#18181B"/>
</g>
<defs>
<clipPath id="clip0_2217_3299">
<rect width="16" height="16" fill="white"/>
</clipPath>
</defs>
</svg>
