<svg width="16" height="16" viewBox="0 0 16 16" fill="none" xmlns="http://www.w3.org/2000/svg">
<path fill-rule="evenodd" clip-rule="evenodd" d="M2.75 2C2.33579 2 2 2.33579 2 2.75C2 3.16421 2.33579 3.5 2.75 3.5L13.25 3.5C13.6642 3.5 14 3.16421 14 2.75C14 2.33579 13.6642 2 13.25 2L2.75 2ZM6 6.25C6 5.83579 6.33579 5.5 6.75 5.5L13.25 5.5C13.6642 5.5 14 5.83579 14 6.25C14 6.66421 13.6642 7 13.25 7L6.75 7C6.33579 7 6 6.66421 6 6.25ZM2.75 9C2.33579 9 2 9.33579 2 9.75C2 10.1642 2.33579 10.5 2.75 10.5L13.25 10.5C13.6642 10.5 14 10.1642 14 9.75C14 9.33579 13.6642 9 13.25 9L2.75 9ZM6.75 12.5C6.33579 12.5 6 12.8358 6 13.25C6 13.6642 6.33579 14 6.75 14L13.25 14C13.6642 14 14 13.6642 14 13.25C14 12.8358 13.6642 12.5 13.25 12.5L6.75 12.5Z" fill="#18181B"/>
</svg>
