<svg width="16" height="16" viewBox="0 0 16 16" fill="none" xmlns="http://www.w3.org/2000/svg">
<path fill-rule="evenodd" clip-rule="evenodd" d="M4.5 3H11.5C12.3284 3 13 3.67157 13 4.5V11.5C13 12.3284 12.3284 13 11.5 13H4.5C3.67157 13 3 12.3284 3 11.5V4.5C3 3.67157 3.67157 3 4.5 3ZM1.5 4.5C1.5 2.84315 2.84315 1.5 4.5 1.5H11.5C13.1569 1.5 14.5 2.84315 14.5 4.5V11.5C14.5 13.1569 13.1569 14.5 11.5 14.5H4.5C2.84315 14.5 1.5 13.1569 1.5 11.5V4.5ZM6.25 5.25C6.25 5.80228 5.80228 6.25 5.25 6.25C4.69772 6.25 4.25 5.80228 4.25 5.25C4.25 4.69772 4.69772 4.25 5.25 4.25C5.80228 4.25 6.25 4.69772 6.25 5.25ZM7.25 5.25C7.25 4.83579 7.58579 4.5 8 4.5H10.75C11.1642 4.5 11.5 4.83579 11.5 5.25C11.5 5.66421 11.1642 6 10.75 6H8C7.58579 6 7.25 5.66421 7.25 5.25ZM5.25 9C5.80228 9 6.25 8.55228 6.25 8C6.25 7.44772 5.80228 7 5.25 7C4.69772 7 4.25 7.44772 4.25 8C4.25 8.55228 4.69772 9 5.25 9ZM6.25 10.75C6.25 11.3023 5.80228 11.75 5.25 11.75C4.69772 11.75 4.25 11.3023 4.25 10.75C4.25 10.1977 4.69772 9.75 5.25 9.75C5.80228 9.75 6.25 10.1977 6.25 10.75ZM8 7.25C7.58579 7.25 7.25 7.58579 7.25 8C7.25 8.41421 7.58579 8.75 8 8.75H10.75C11.1642 8.75 11.5 8.41421 11.5 8C11.5 7.58579 11.1642 7.25 10.75 7.25H8ZM7.25 10.75C7.25 10.3358 7.58579 10 8 10H10.75C11.1642 10 11.5 10.3358 11.5 10.75C11.5 11.1642 11.1642 11.5 10.75 11.5H8C7.58579 11.5 7.25 11.1642 7.25 10.75Z" fill="#18181B"/>
</svg>
