<svg width="16" height="16" viewBox="0 0 16 16" fill="none" xmlns="http://www.w3.org/2000/svg">
<path fill-rule="evenodd" clip-rule="evenodd" d="M13.5 8C13.5 8.80202 13.3283 9.56395 13.0197 10.2511C12.9143 9.38886 12.6123 8.48876 12.1226 7.64054C11.4827 6.53222 10.6059 5.6572 9.65566 5.13263L9.64288 5.12495L9.6426 5.12545C9.57988 5.09106 9.51684 5.0582 9.45353 5.0269C8.81885 4.71308 8.12329 4.5435 7.44718 4.59872C7.91127 4.02405 8.44203 3.59711 8.96118 3.34042C9.69404 2.97806 10.3172 2.98703 10.7499 3.23685L10.7504 3.23601C12.3941 4.18704 13.5 5.96437 13.5 8ZM7.43799 2.52836C4.66442 2.80986 2.5 5.15217 2.5 8V8C2.5 8.49964 2.8038 9.04378 3.48404 9.49727C3.96589 9.8185 4.60096 10.0647 5.33062 10.1793C4.9448 9.62136 4.7439 8.93424 4.69833 8.22773C4.69379 8.15726 4.69073 8.08624 4.68915 8.01473L4.68869 8.01473C4.68875 8.01071 4.68882 8.00668 4.6889 8.00266C4.66747 6.91673 4.98684 5.71874 5.62729 4.60945C6.11666 3.76183 6.74462 3.05067 7.43799 2.52836ZM6.1893 8.00189C6.1905 8.04549 6.19248 8.0886 6.19522 8.13119C6.24784 8.94706 6.56718 9.48222 6.99989 9.73204C7.43259 9.98186 8.05572 9.99084 8.78859 9.62847C8.82774 9.60912 8.86695 9.5888 8.90619 9.56752C8.9436 9.54453 8.9802 9.52111 9.01595 9.49727C9.6962 9.04377 10 8.49963 10 7.99999C10 7.50035 9.6962 6.95621 9.01595 6.50271C8.97995 6.47871 8.9431 6.45513 8.90542 6.43199C8.86647 6.41089 8.82755 6.39072 8.78869 6.37151C8.05583 6.00915 7.43269 6.01812 6.99999 6.26794C6.56729 6.51776 6.24794 7.05293 6.19533 7.86879C6.1925 7.91262 6.19049 7.957 6.1893 8.00189ZM9.65677 10.8667C9.66061 10.8646 9.66446 10.8624 9.6683 10.8603L9.66805 10.8599C9.72921 10.8227 9.78922 10.7845 9.848 10.7454C10.4371 10.3526 10.9317 9.83509 11.2219 9.222C11.4876 9.91124 11.5919 10.5844 11.5546 11.1623C11.502 11.9781 11.1827 12.5133 10.75 12.7631L10.7505 12.7639C9.94138 13.2321 9.00198 13.5 8 13.5C6.166 13.5 4.54167 12.6023 3.54238 11.2224C4.34139 11.5617 5.27126 11.75 6.25 11.75C7.53042 11.75 8.72718 11.4278 9.65677 10.8667ZM1 8C1 4.13401 4.13401 1 8 1C11.866 1 15 4.13401 15 8C15 11.866 11.866 15 8 15C4.13401 15 1 11.866 1 8Z" fill="#18181B"/>
</svg>
