<svg width="16" height="16" viewBox="0 0 16 16" fill="none" xmlns="http://www.w3.org/2000/svg">
<path fill-rule="evenodd" clip-rule="evenodd" d="M13.5 8C13.5 11.0376 11.0376 13.5 8 13.5C4.96243 13.5 2.5 11.0376 2.5 8C2.5 4.96243 4.96243 2.5 8 2.5C11.0376 2.5 13.5 4.96243 13.5 8ZM15 8C15 11.866 11.866 15 8 15C4.13401 15 1 11.866 1 8C1 4.13401 4.13401 1 8 1C11.866 1 15 4.13401 15 8ZM7 5.5C7 5.08579 6.66421 4.75 6.25 4.75C5.83579 4.75 5.5 5.08579 5.5 5.5V10.5C5.5 10.9142 5.83579 11.25 6.25 11.25C6.66421 11.25 7 10.9142 7 10.5V8.75H9V10.5C9 10.9142 9.33579 11.25 9.75 11.25C10.1642 11.25 10.5 10.9142 10.5 10.5V5.5C10.5 5.08579 10.1642 4.75 9.75 4.75C9.33579 4.75 9 5.08579 9 5.5V7.25H7V5.5Z" fill="#18181B"/>
</svg>
