<svg width="16" height="16" viewBox="0 0 16 16" fill="none" xmlns="http://www.w3.org/2000/svg">
<path fill-rule="evenodd" clip-rule="evenodd" d="M8 15C11.866 15 15 11.866 15 8C15 4.13401 11.866 1 8 1C4.13401 1 1 4.13401 1 8C1 11.866 4.13401 15 8 15ZM8.75 5.00003C8.75 4.58582 8.41421 4.25003 8 4.25003C7.58578 4.25003 7.25 4.58582 7.25 5.00003V9.18937L6.53033 8.4697C6.23744 8.17681 5.76256 8.17681 5.46967 8.4697C5.17678 8.7626 5.17678 9.23747 5.46967 9.53036L7.46967 11.5304C7.76256 11.8233 8.23744 11.8233 8.53033 11.5304L10.5303 9.53036C10.8232 9.23746 10.8232 8.76259 10.5303 8.4697C10.2374 8.17681 9.76256 8.17681 9.46967 8.4697L8.75 9.18937V5.00003Z" fill="black"/>
</svg>
