<svg width="16" height="16" viewBox="0 0 16 16" fill="none" xmlns="http://www.w3.org/2000/svg">
<path fill-rule="evenodd" clip-rule="evenodd" d="M9.99976 8.50037L12.67 8.50037C12.8521 8.50037 12.9998 8.35273 12.9998 8.17062C12.9998 8.09262 12.9721 8.01716 12.9217 7.95762L8.50062 2.73267C8.37596 2.58534 8.19275 2.50037 7.99976 2.50037C7.80676 2.50037 7.62356 2.58534 7.49889 2.73267L3.07778 7.95762C3.0274 8.01716 2.99976 8.09263 2.99976 8.17062C2.99976 8.35273 3.14739 8.50037 3.3295 8.50037L5.99976 8.50037L5.99976 12.9996C5.99976 13.2758 6.22361 13.4996 6.49976 13.4996L9.49976 13.4996C9.7759 13.4996 9.99976 13.2758 9.99976 12.9996L9.99976 8.50037ZM11.4998 12.9996C11.4998 14.1042 10.6043 14.9996 9.49976 14.9996L6.49976 14.9996C5.39519 14.9996 4.49976 14.1042 4.49976 12.9996L4.49976 10.0004L3.3295 10.0004C2.31896 10.0004 1.49976 9.18116 1.49976 8.17062C1.49976 7.73784 1.65315 7.31908 1.9327 6.98871L6.35381 1.76375C6.76348 1.2796 7.36554 1.00037 7.99976 1.00037C8.63398 1.00037 9.23603 1.2796 9.6457 1.76375L14.0668 6.98871C14.3464 7.31908 14.4998 7.73784 14.4998 8.17062C14.4998 9.18116 13.6805 10.0004 12.67 10.0004L11.4998 10.0004L11.4998 12.9996Z" fill="#18181B"/>
</svg>
