<svg width="16" height="16" viewBox="0 0 16 16" fill="none" xmlns="http://www.w3.org/2000/svg">
<path fill-rule="evenodd" clip-rule="evenodd" d="M6.90552 1.08517C7.26256 1.02906 7.62814 1 8 1C8.37186 1 8.73744 1.02906 9.09448 1.08517C9.50367 1.14948 9.78325 1.53332 9.71895 1.94252C9.65464 2.35171 9.2708 2.63129 8.8616 2.56699C8.58132 2.52294 8.2936 2.5 8 2.5C7.7064 2.5 7.41868 2.52294 7.1384 2.56699C6.72921 2.63129 6.34536 2.35171 6.28105 1.94251C6.21675 1.53332 6.49633 1.14948 6.90552 1.08517ZM4.93254 2.50192C5.17628 2.83683 5.10237 3.30592 4.76746 3.54965C4.30072 3.88934 3.88935 4.30072 3.54966 4.76746C3.30592 5.10237 2.83683 5.17628 2.50192 4.93254C2.16701 4.6888 2.0931 4.21971 2.33684 3.8848C2.76868 3.29145 3.29145 2.76868 3.88481 2.33684C4.21971 2.0931 4.6888 2.16701 4.93254 2.50192ZM11.0675 2.50192C11.3112 2.16701 11.7803 2.0931 12.1152 2.33684C12.7086 2.76868 13.2313 3.29145 13.6632 3.88481C13.9069 4.21971 13.833 4.6888 13.4981 4.93254C13.1632 5.17628 12.6941 5.10237 12.4503 4.76746C12.1107 4.30072 11.6993 3.88935 11.2325 3.54966C10.8976 3.30592 10.8237 2.83683 11.0675 2.50192ZM1.94252 6.28105C2.35171 6.34536 2.63129 6.7292 2.56699 7.1384C2.52294 7.41868 2.5 7.7064 2.5 8C2.5 8.2936 2.52294 8.58132 2.56699 8.8616C2.63129 9.27079 2.35171 9.65464 1.94251 9.71895C1.53332 9.78325 1.14948 9.50367 1.08517 9.09448C1.02906 8.73744 1 8.37186 1 8C1 7.62814 1.02906 7.26256 1.08517 6.90552C1.14948 6.49633 1.53332 6.21675 1.94252 6.28105ZM14.0575 6.28105C14.4667 6.21675 14.8505 6.49633 14.9148 6.90552C14.9709 7.26256 15 7.62814 15 8C15 8.37186 14.9709 8.73744 14.9148 9.09448C14.8505 9.50367 14.4667 9.78325 14.0575 9.71895C13.6483 9.65464 13.3687 9.2708 13.433 8.8616C13.4771 8.58132 13.5 8.2936 13.5 8C13.5 7.7064 13.4771 7.41868 13.433 7.1384C13.3687 6.72921 13.6483 6.34536 14.0575 6.28105ZM2.50192 11.0675C2.83683 10.8237 3.30592 10.8976 3.54965 11.2325C3.88934 11.6993 4.30072 12.1107 4.76746 12.4503C5.10237 12.6941 5.17628 13.1632 4.93254 13.4981C4.6888 13.833 4.21971 13.9069 3.8848 13.6632C3.29145 13.2313 2.76868 12.7086 2.33684 12.1152C2.0931 11.7803 2.16701 11.3112 2.50192 11.0675ZM13.4981 11.0675C13.833 11.3112 13.9069 11.7803 13.6632 12.1152C13.2313 12.7086 12.7086 13.2313 12.1152 13.6632C11.7803 13.9069 11.3112 13.833 11.0675 13.4981C10.8237 13.1632 10.8976 12.6941 11.2325 12.4503C11.6993 12.1107 12.1107 11.6993 12.4503 11.2325C12.6941 10.8976 13.1632 10.8237 13.4981 11.0675ZM6.28105 14.0575C6.34536 13.6483 6.7292 13.3687 7.1384 13.433C7.41868 13.4771 7.7064 13.5 8 13.5C8.2936 13.5 8.58132 13.4771 8.8616 13.433C9.27079 13.3687 9.65464 13.6483 9.71895 14.0575C9.78325 14.4667 9.50367 14.8505 9.09448 14.9148C8.73744 14.9709 8.37186 15 8 15C7.62814 15 7.26256 14.9709 6.90552 14.9148C6.49633 14.8505 6.21675 14.4667 6.28105 14.0575Z" fill="#18181B"/>
</svg>
