<svg width="16" height="16" viewBox="0 0 16 16" fill="none" xmlns="http://www.w3.org/2000/svg">
<path fill-rule="evenodd" clip-rule="evenodd" d="M7 6.5C8.10457 6.5 9 5.60457 9 4.5C9 3.39543 8.10457 2.5 7 2.5C5.89543 2.5 5 3.39543 5 4.5C5 5.60457 5.89543 6.5 7 6.5ZM7 8C8.933 8 10.5 6.433 10.5 4.5C10.5 2.567 8.933 1 7 1C5.067 1 3.5 2.567 3.5 4.5C3.5 6.433 5.067 8 7 8ZM10.2288 11.9086L9.52748 11.6281C9.7071 10.4238 10.7457 9.5 12 9.5C12.3043 9.5 12.5958 9.55435 12.8655 9.65388C12.7446 9.83908 12.563 9.98378 12.3428 10.0572L12.3076 10.0689C11.9191 10.1984 11.6571 10.5619 11.6571 10.9714C11.6571 11.381 11.9191 11.7445 12.3076 11.874L12.7689 12.0278C12.9351 12.0832 13.0726 12.2024 13.1509 12.3591C13.3287 12.7146 13.7778 12.8339 14.1085 12.6134L14.4727 12.3706C14.2972 13.5518 13.2954 14.4635 12.0739 14.4989C12.1 14.422 12.1143 14.3389 12.1143 14.2516V14.1714C12.1143 13.7927 11.8073 13.4857 11.4286 13.4857C11.0499 13.4857 10.7429 13.1787 10.7429 12.8V12.6679C10.7429 12.3335 10.5393 12.0328 10.2288 11.9086ZM12 16C14.2091 16 16 14.2091 16 12C16 9.79086 14.2091 8 12 8C9.79086 8 8 9.79086 8 12C8 14.2091 9.79086 16 12 16ZM6.25034 8.52537C6.6636 8.49732 7 8.83578 7 9.25C7 9.66421 6.66362 9.99686 6.25068 10.0293C4.88119 10.1369 3.68326 10.5307 2.81956 11.0413C1.72027 11.6911 1.5 12.2955 1.5 12.5C1.5 13.0523 1.94772 13.5 2.5 13.5H6.25C6.66421 13.5 7 13.8358 7 14.25C7 14.6642 6.66421 15 6.25 15H2.5C1.11929 15 0 13.8807 0 12.5C0 10.6315 2.74938 8.76301 6.25034 8.52537Z" fill="#18181B"/>
</svg>
