<svg width="16" height="16" viewBox="0 0 16 16" fill="none" xmlns="http://www.w3.org/2000/svg">
<path fill-rule="evenodd" clip-rule="evenodd" d="M8 3.25008L7.99222 3.25004C7.30545 3.25422 6.75 3.81225 6.75 4.50002C6.75 5.19037 7.30964 5.75002 8 5.75002C8.69036 5.75002 9.25 5.19037 9.25 4.50002C9.25 3.81225 8.69455 3.25422 8.00778 3.25004L8 3.25008ZM8.75 0.75V1.85353C9.90425 2.18 10.75 3.24124 10.75 4.50002C10.75 5.75879 9.90425 6.82003 8.75 7.1465V8.85352C9.90425 9.17999 10.75 10.2412 10.75 11.5C10.75 12.7588 9.90425 13.82 8.75 14.1465V15.25C8.75 15.6642 8.41421 16 8 16C7.58579 16 7.25 15.6642 7.25 15.25V14.1465C6.09575 13.82 5.25 12.7588 5.25 11.5C5.25 10.2412 6.09575 9.17999 7.25 8.85352V7.1465C6.09575 6.82003 5.25 5.75879 5.25 4.50002C5.25 3.24124 6.09575 2.18 7.25 1.85353V0.75C7.25 0.335786 7.58579 0 8 0C8.41421 0 8.75 0.335786 8.75 0.75ZM8.00468 12.75C8.00312 12.75 8.00156 12.75 8 12.75C7.99844 12.75 7.99688 12.75 7.99532 12.75C7.30712 12.7475 6.75 12.1888 6.75 11.5C6.75 10.8097 7.30964 10.25 8 10.25C8.69036 10.25 9.25 10.8097 9.25 11.5C9.25 12.1888 8.69288 12.7475 8.00468 12.75Z" fill="#18181B"/>
</svg>
