<svg width="16" height="16" viewBox="0 0 16 16" fill="none" xmlns="http://www.w3.org/2000/svg">
<path fill-rule="evenodd" clip-rule="evenodd" d="M1.25 3.25C1.25 2.83579 1.58579 2.5 2 2.5H14C14.4142 2.5 14.75 2.83579 14.75 3.25C14.75 3.66421 14.4142 4 14 4H2C1.58579 4 1.25 3.66421 1.25 3.25ZM1.25 8C1.25 7.58579 1.58579 7.25 2 7.25H14C14.4142 7.25 14.75 7.58579 14.75 8C14.75 8.41421 14.4142 8.75 14 8.75H2C1.58579 8.75 1.25 8.41421 1.25 8ZM2 12C1.58579 12 1.25 12.3358 1.25 12.75C1.25 13.1642 1.58579 13.5 2 13.5H14C14.4142 13.5 14.75 13.1642 14.75 12.75C14.75 12.3358 14.4142 12 14 12H2Z" fill="#18181B"/>
</svg>
