<svg width="16" height="16" viewBox="0 0 16 16" fill="none" xmlns="http://www.w3.org/2000/svg">
<path fill-rule="evenodd" clip-rule="evenodd" d="M10 9.5H10.6213L11.0607 9.93934L12.5706 11.4493C12.6031 11.4817 12.6471 11.5 12.6931 11.5C12.794 11.5 12.8736 11.4141 12.8658 11.3135L12.754 9.8597L12.6918 9.05124L13.3342 8.55639C14.0367 8.01515 14.5 7.21125 14.5 6C14.5 4.78641 14.0349 3.98143 13.3294 3.43993C12.5757 2.86151 11.4275 2.5 10 2.5C8.57248 2.5 7.42429 2.86151 6.67063 3.43993C5.96508 3.98143 5.5 4.78641 5.5 6C5.5 7.21359 5.96508 8.01856 6.67063 8.56007C7.42429 9.13849 8.57248 9.5 10 9.5ZM10.5199 11.5199L11.5099 12.5099C11.8237 12.8237 12.2493 13 12.6931 13C13.6678 13 14.4362 12.1702 14.3614 11.1984L14.2496 9.74466C15.3313 8.91133 16 7.66311 16 6C16 2.66667 13.3137 1 10 1C7.8732 1 6.00485 1.68655 4.93929 3.05966C2.13151 3.38398 1.52588e-05 5.03076 1.52588e-05 8C1.52588e-05 9.66311 0.668724 10.9113 1.75043 11.7447L1.6386 13.1984C1.56384 14.1702 2.33224 15 3.30693 15C3.7507 15 4.1763 14.8237 4.4901 14.5099L6.00002 13C7.80291 13 9.42008 12.5066 10.5199 11.5199ZM4.14306 4.73587C4.0494 5.1266 4 5.54797 4 6C4 8.9053 6.04069 10.5445 8.75885 10.9176C8.0421 11.2835 7.10469 11.5 6.00002 11.5H5.37869L4.93935 11.9393L3.42944 13.4493C3.39695 13.4817 3.35288 13.5 3.30693 13.5C3.206 13.5 3.12644 13.4141 3.13418 13.3135L3.24601 11.8597L3.3082 11.0512L2.66586 10.5564C1.96331 10.0152 1.50002 9.21125 1.50002 8C1.50002 6.78641 1.9651 5.98143 2.67064 5.43993C3.06096 5.14037 3.5571 4.89898 4.14306 4.73587Z" fill="#18181B"/>
</svg>
