<svg width="16" height="16" viewBox="0 0 16 16" fill="none" xmlns="http://www.w3.org/2000/svg">
<path fill-rule="evenodd" clip-rule="evenodd" d="M5.82855 2.49994L10.1714 2.49995C10.304 2.49995 10.4312 2.55262 10.525 2.64639L13.3535 5.47479C13.4473 5.56856 13.5 5.69574 13.5 5.82834L13.5001 10.1715C13.5001 10.3041 13.4474 10.4313 13.3536 10.525L10.5251 13.3536C10.4313 13.4473 10.3041 13.5 10.1715 13.5L5.82854 13.5C5.69594 13.4999 5.56877 13.4473 5.475 13.3535L2.64645 10.525C2.55268 10.4313 2.5 10.3041 2.5 10.1715L2.50011 5.82837C2.50011 5.69577 2.55279 5.5686 2.64655 5.47483L5.475 2.64638C5.56877 2.55262 5.69595 2.49994 5.82855 2.49994ZM4.41434 1.58572C4.78941 1.21065 5.29812 0.999939 5.82856 0.999939L10.1714 0.999948C10.7019 0.999949 11.2106 1.21065 11.5856 1.5857L14.4142 4.41411C14.7892 4.78917 15 5.29788 15 5.82831L15.0001 10.1714C15.0001 10.7019 14.7894 11.2106 14.4143 11.5857L11.5857 14.4142C11.2106 14.7893 10.7019 15 10.1715 15L5.82852 14.9999C5.29811 14.9999 4.78942 14.7892 4.41436 14.4142L1.58581 11.5857C1.21071 11.2106 0.999987 10.7019 1 10.1714L1.00011 5.82834C1.00012 5.29792 1.21083 4.78923 1.58589 4.41417L4.41434 1.58572ZM6.53033 5.46969C6.23744 5.17679 5.76257 5.17679 5.46967 5.46969C5.17678 5.76258 5.17678 6.23745 5.46967 6.53035L6.93934 8.00002L5.46967 9.46969C5.17678 9.76258 5.17678 10.2375 5.46967 10.5303C5.76257 10.8232 6.23744 10.8232 6.53033 10.5303L8 9.06068L9.46967 10.5303C9.76257 10.8232 10.2374 10.8232 10.5303 10.5303C10.8232 10.2375 10.8232 9.76258 10.5303 9.46969L9.06066 8.00002L10.5303 6.53035C10.8232 6.23745 10.8232 5.76258 10.5303 5.46969C10.2374 5.17679 9.76257 5.17679 9.46967 5.46969L8 6.93936L6.53033 5.46969Z" fill="#18181B"/>
</svg>
