<svg width="16" height="16" viewBox="0 0 16 16" fill="none" xmlns="http://www.w3.org/2000/svg">
<path fill-rule="evenodd" clip-rule="evenodd" d="M1.06868 5.54998C1.47414 5.8336 1.96764 6 2.5 6C3.34835 6 4.098 5.57744 4.54998 4.93132C4.8336 4.52586 5 4.03236 5 3.5C5 2.11929 3.88071 1 2.5 1C1.11929 1 0 2.11929 0 3.5C0 4.34835 0.422556 5.098 1.06868 5.54998ZM2.5 4.5C3.05228 4.5 3.5 4.05228 3.5 3.5C3.5 2.94772 3.05228 2.5 2.5 2.5C1.94772 2.5 1.5 2.94772 1.5 3.5C1.5 4.05228 1.94772 4.5 2.5 4.5ZM13.5 6C12.9676 6 12.4741 5.8336 12.0687 5.54998C11.4226 5.098 11 4.34835 11 3.5C11 2.11929 12.1193 1 13.5 1C14.8807 1 16 2.11929 16 3.5C16 4.03236 15.8336 4.52586 15.55 4.93132C15.098 5.57744 14.3483 6 13.5 6ZM14.5 3.5C14.5 4.05228 14.0523 4.5 13.5 4.5C12.9477 4.5 12.5 4.05228 12.5 3.5C12.5 2.94772 12.9477 2.5 13.5 2.5C14.0523 2.5 14.5 2.94772 14.5 3.5ZM6.06868 8.54998C6.47414 8.8336 6.96764 9 7.5 9C8.34835 9 9.098 8.57744 9.54998 7.93132C9.8336 7.52586 10 7.03236 10 6.5C10 5.11929 8.88071 4 7.5 4C6.11929 4 5 5.11929 5 6.5C5 7.34835 5.42256 8.098 6.06868 8.54998ZM7.5 7.5C8.05228 7.5 8.5 7.05228 8.5 6.5C8.5 5.94772 8.05228 5.5 7.5 5.5C6.94772 5.5 6.5 5.94772 6.5 6.5C6.5 7.05228 6.94772 7.5 7.5 7.5ZM12 14C11.4676 14 10.9741 13.8336 10.5687 13.55C9.92256 13.098 9.5 12.3483 9.5 11.5C9.5 10.1193 10.6193 9 12 9C13.3807 9 14.5 10.1193 14.5 11.5C14.5 12.0324 14.3336 12.5259 14.05 12.9313C13.598 13.5774 12.8483 14 12 14ZM13 11.5C13 12.0523 12.5523 12.5 12 12.5C11.4477 12.5 11 12.0523 11 11.5C11 10.9477 11.4477 10.5 12 10.5C12.5523 10.5 13 10.9477 13 11.5ZM4.5 16C3.96764 16 3.47414 15.8336 3.06868 15.55C2.42256 15.098 2 14.3483 2 13.5C2 12.1193 3.11929 11 4.5 11C5.88071 11 7 12.1193 7 13.5C7 14.0324 6.8336 14.5259 6.54998 14.9313C6.098 15.5774 5.34835 16 4.5 16ZM5.5 13.5C5.5 14.0523 5.05228 14.5 4.5 14.5C3.94772 14.5 3.5 14.0523 3.5 13.5C3.5 12.9477 3.94772 12.5 4.5 12.5C5.05228 12.5 5.5 12.9477 5.5 13.5Z" fill="#18181B"/>
</svg>
