<svg width="16" height="16" viewBox="0 0 16 16" fill="none" xmlns="http://www.w3.org/2000/svg">
<g clip-path="url(#clip0_2217_1055)">
<path fill-rule="evenodd" clip-rule="evenodd" d="M6 13.5L2.26345 10.5938C1.78175 10.2191 1.5 9.64306 1.5 9.03281C1.5 7.90471 2.42959 7.03998 3.5 7.05446C3.65035 7.05649 3.80347 7.07587 3.95719 7.1143L5 7.375V5.82884V5.5L5 1.9421C5 0.869508 5.86951 0 6.9421 0C7.85236 0 8.64049 0.632215 8.83796 1.5208L9.5 4.5L12.244 4.95733C13.9897 5.24828 15.1055 6.97943 14.6495 8.6895L13.5 13L6 13.5ZM13.2001 8.303L12.3276 11.5748L6.47009 11.9653L3.18436 9.40977C3.06804 9.31929 3 9.18018 3 9.03281C3 8.72212 3.29197 8.49416 3.59338 8.56951L4.6362 8.83021L6.5 9.29616V7.375L6.5 5.5V1.9421C6.5 1.69793 6.69794 1.5 6.9421 1.5C7.14931 1.5 7.32872 1.64392 7.37367 1.8462L8.03572 4.8254L8.25524 5.81323L9.2534 5.97959L11.9974 6.43692C12.8702 6.5824 13.4281 7.44797 13.2001 8.303ZM13.3034 15.4981C13.7166 15.4686 14.0276 15.1097 13.9981 14.6966C13.9686 14.2834 13.6097 13.9724 13.1966 14.0019L6.19656 14.5019C5.7834 14.5314 5.47239 14.8903 5.50191 15.3034C5.53142 15.7166 5.89027 16.0276 6.30344 15.9981L13.3034 15.4981Z" fill="#18181B"/>
</g>
<defs>
<clipPath id="clip0_2217_1055">
<rect width="16" height="16" fill="white"/>
</clipPath>
</defs>
</svg>
