<svg width="16" height="16" viewBox="0 0 16 16" fill="none" xmlns="http://www.w3.org/2000/svg">
<path fill-rule="evenodd" clip-rule="evenodd" d="M7.46967 1.21967C7.76256 0.926777 8.23744 0.926777 8.53033 1.21967L11.0303 3.71967C11.3232 4.01256 11.3232 4.48744 11.0303 4.78033C10.7374 5.07322 10.2626 5.07322 9.96967 4.78033L8.75 3.56066V11.25C8.75 11.6642 8.41421 12 8 12C7.58579 12 7.25 11.6642 7.25 11.25V3.56066L6.03033 4.78033C5.73744 5.07322 5.26256 5.07322 4.96967 4.78033C4.67678 4.48744 4.67678 4.01256 4.96967 3.71967L7.46967 1.21967ZM1.75 13.5C1.33579 13.5 1 13.8358 1 14.25C1 14.6642 1.33579 15 1.75 15H14.25C14.6642 15 15 14.6642 15 14.25C15 13.8358 14.6642 13.5 14.25 13.5H1.75Z" fill="#18181B"/>
</svg>
