<svg width="16" height="16" viewBox="0 0 16 16" fill="none" xmlns="http://www.w3.org/2000/svg">
<path fill-rule="evenodd" clip-rule="evenodd" d="M10.3127 7.48822L8.99991 7.65332V8.9765V13.0229C8.99991 13.2424 8.85675 13.4362 8.64697 13.5008L7.02737 13.9992C7.02535 13.9998 7.02325 14.0001 7.02113 14.0001C7.0177 14.0001 7.0159 13.9998 7.01527 13.9997L7.01333 13.9991C7.01188 13.9985 7.00913 13.9969 7.00612 13.9939C7.00311 13.9909 7.00157 13.9882 7.00096 13.9867L7.00036 13.9848L7.00017 13.9836C7.00004 13.9826 6.99991 13.9811 6.99991 13.9789V8.9765V7.65333L5.68708 7.48822C5.07305 7.411 4.56058 6.95876 4.41583 6.34356L3.82759 3.84356C3.60605 2.902 4.32044 2 5.28772 2H10.7121C11.6794 2 12.3938 2.902 12.1722 3.84356L11.584 6.34356C11.4392 6.95876 10.9268 7.411 10.3127 7.48822ZM13.0441 6.68712C12.7544 7.91859 11.7293 8.82188 10.4999 8.9765V13.0229C10.4999 13.9009 9.9273 14.6762 9.08816 14.9344L7.46856 15.4329C7.32361 15.4775 7.1728 15.5001 7.02113 15.5001C6.18098 15.5001 5.49991 14.8191 5.49991 13.9789V8.9765C4.2705 8.82188 3.24546 7.91859 2.9557 6.68712L2.36746 4.18712C1.92438 2.30399 3.35317 0.5 5.28772 0.5H10.7121C12.6466 0.5 14.0754 2.304 13.6323 4.18712L13.0441 6.68712ZM6.7499 3.5C6.33569 3.5 5.9999 3.83579 5.9999 4.25C5.9999 4.66421 6.33569 5 6.7499 5H9.2499C9.66411 5 9.9999 4.66421 9.9999 4.25C9.9999 3.83579 9.66411 3.5 9.2499 3.5H6.7499Z" fill="#18181B"/>
</svg>
