<svg width="16" height="16" viewBox="0 0 16 16" fill="none" xmlns="http://www.w3.org/2000/svg">
<path fill-rule="evenodd" clip-rule="evenodd" d="M7.25 2C6.83579 2 6.5 2.33579 6.5 2.75C6.5 3.16421 6.83579 3.5 7.25 3.5H8.56692L5.86692 12.5H4.25C3.83579 12.5 3.5 12.8358 3.5 13.25C3.5 13.6642 3.83579 14 4.25 14H8.75C9.16421 14 9.5 13.6642 9.5 13.25C9.5 12.8358 9.16421 12.5 8.75 12.5H7.43296L10.133 3.5H11.75C12.1642 3.5 12.5 3.16421 12.5 2.75C12.5 2.33579 12.1642 2 11.75 2H7.25Z" fill="#18181B"/>
</svg>
