<svg width="16" height="16" viewBox="0 0 16 16" fill="none" xmlns="http://www.w3.org/2000/svg">
<path fill-rule="evenodd" clip-rule="evenodd" d="M4.5 3H11.5C12.3284 3 13 3.67157 13 4.5V11.5C13 12.3284 12.3284 13 11.5 13H4.5C3.67157 13 3 12.3284 3 11.5V4.5C3 3.67157 3.67157 3 4.5 3ZM1.5 4.5C1.5 2.84315 2.84315 1.5 4.5 1.5H11.5C13.1569 1.5 14.5 2.84315 14.5 4.5V11.5C14.5 13.1569 13.1569 14.5 11.5 14.5H4.5C2.84315 14.5 1.5 13.1569 1.5 11.5V4.5ZM11.592 5.96046C11.8463 5.63349 11.7874 5.16229 11.4605 4.90799C11.1335 4.65368 10.6623 4.71258 10.408 5.03954L7.42958 8.86892L6.03033 7.46967C5.73744 7.17678 5.26256 7.17678 4.96967 7.46967C4.67678 7.76256 4.67678 8.23744 4.96967 8.53033L6.96967 10.5303C7.12179 10.6824 7.3319 10.7619 7.5466 10.7486C7.76131 10.7352 7.95994 10.6303 8.09201 10.4605L11.592 5.96046Z" fill="#18181B"/>
</svg>
