<svg width="16" height="16" viewBox="0 0 16 16" fill="none" xmlns="http://www.w3.org/2000/svg">
<path fill-rule="evenodd" clip-rule="evenodd" d="M10.8489 0.329579C10.5717 0.0217587 10.0975 -0.0030943 9.78966 0.274069C9.48184 0.551232 9.45698 1.02545 9.73415 1.33328L13.4144 5.42057C13.6915 5.72839 14.1657 5.75325 14.4736 5.47608C14.7814 5.19892 14.8062 4.7247 14.5291 4.41688L10.8489 0.329579ZM7.60149 2.44283C7.84496 2.10773 8.31398 2.03344 8.64909 2.27691L13.0987 5.50973C13.4338 5.7532 13.5081 6.22223 13.2646 6.55733C13.0211 6.89244 12.5521 6.96672 12.217 6.72326L7.76741 3.49044C7.43231 3.24697 7.35802 2.77794 7.60149 2.44283ZM7.01233 4.86734C6.63392 4.69886 6.19059 4.86904 6.02212 5.24744C5.85364 5.62585 6.02382 6.06918 6.40222 6.23766L11.4267 8.47471C11.8051 8.64318 12.2485 8.473 12.4169 8.0946C12.5854 7.7162 12.4152 7.27286 12.0368 7.10439L7.01233 4.86734ZM4.81888 8.10921C4.905 7.70405 5.30326 7.44541 5.70842 7.53153L11.0882 8.67505C11.4934 8.76117 11.752 9.15943 11.6659 9.56459C11.5798 9.96975 11.1815 10.2284 10.7764 10.1423L5.39656 8.99875C4.99139 8.91263 4.73276 8.51437 4.81888 8.10921ZM2 10.25C2 9.83579 2.33579 9.50001 2.75 9.50001C3.16421 9.50001 3.5 9.83579 3.5 10.25V12C3.5 12.8284 4.17157 13.5 5 13.5H11C11.8284 13.5 12.5 12.8284 12.5 12V10.25C12.5 9.83579 12.8358 9.50001 13.25 9.50001C13.6642 9.50001 14 9.83579 14 10.25V12C14 13.6569 12.6569 15 11 15H5C3.34315 15 2 13.6569 2 12V10.25ZM5.25 10.5C4.83579 10.5 4.5 10.8358 4.5 11.25C4.5 11.6642 4.83579 12 5.25 12H10.75C11.1642 12 11.5 11.6642 11.5 11.25C11.5 10.8358 11.1642 10.5 10.75 10.5H5.25Z" fill="black"/>
</svg>
