<svg width="16" height="16" viewBox="0 0 16 16" fill="none" xmlns="http://www.w3.org/2000/svg">
<path fill-rule="evenodd" clip-rule="evenodd" d="M6.5 6L4.029 6L7.5277 10.2762C7.6436 10.4178 7.81697 10.5 8 10.5C8.18303 10.5 8.3564 10.4178 8.4723 10.2762L11.971 6L9.5 6L9.5 2.75C9.5 2.61193 9.38807 2.5 9.25 2.5L6.75 2.5C6.61193 2.5 6.5 2.61193 6.5 2.75L6.5 6ZM7.99839 13.5L1.75 13.5C1.33579 13.5 1 13.8358 1 14.25C1 14.6642 1.33579 15 1.75 15L14.25 15C14.6642 15 15 14.6642 15 14.25C15 13.8358 14.6642 13.5 14.25 13.5L8 13.5C7.99946 13.5 7.99893 13.5 7.99839 13.5ZM7.99877 12C7.36629 11.9996 6.7673 11.7156 6.36676 11.226L2.83316 6.90719C2.61771 6.64387 2.5 6.31411 2.5 5.97388C2.5 5.15988 3.15988 4.5 3.97388 4.5L5 4.5L5 2.75C5 1.7835 5.7835 0.999999 6.75 0.999999L9.25 1C10.2165 1 11 1.7835 11 2.75L11 4.5L12.0261 4.5C12.8401 4.5 13.5 5.15988 13.5 5.97388C13.5 6.31411 13.3823 6.64387 13.1668 6.9072L9.63324 11.226C9.2327 11.7156 8.63371 11.9996 8.00123 12C8.00082 12 8.00041 12 8 12C7.99959 12 7.99918 12 7.99877 12Z" fill="#18181B"/>
</svg>
