<svg width="16" height="16" viewBox="0 0 16 16" fill="none" xmlns="http://www.w3.org/2000/svg">
<path fill-rule="evenodd" clip-rule="evenodd" d="M14.25 7.25L11.9298 7.25C11.5787 5.39935 9.95279 4 8 4C6.04721 4 4.42125 5.39935 4.0702 7.25L1.75003 7.25C1.33582 7.25 1.00003 7.58579 1.00003 8C1.00003 8.41421 1.33582 8.75 1.75003 8.75L4.0702 8.75C4.42125 10.6006 6.04721 12 8 12C9.95279 12 11.5787 10.6006 11.9298 8.75L14.25 8.75C14.6642 8.75 15 8.41421 15 8C15 7.58579 14.6642 7.25 14.25 7.25ZM5.5 8C5.5 9.38071 6.61929 10.5 8 10.5C9.38071 10.5 10.5 9.38071 10.5 8C10.5 6.61929 9.38071 5.5 8 5.5C6.61929 5.5 5.5 6.61929 5.5 8Z" fill="#18181B"/>
</svg>
