<svg width="16" height="16" viewBox="0 0 16 16" fill="none" xmlns="http://www.w3.org/2000/svg">
<path fill-rule="evenodd" clip-rule="evenodd" d="M13.5 8C13.5 11.0376 11.0376 13.5 8 13.5C4.96243 13.5 2.5 11.0376 2.5 8C2.5 4.96243 4.96243 2.5 8 2.5C11.0376 2.5 13.5 4.96243 13.5 8ZM15 8C15 11.866 11.866 15 8 15C4.13401 15 1 11.866 1 8C1 4.13401 4.13401 0.999999 8 0.999998C11.866 0.999999 15 4.13401 15 8ZM9.96967 9.2803C10.2626 9.57319 10.7374 9.57319 11.0303 9.2803C11.3232 8.98741 11.3232 8.51253 11.0303 8.21964L8.53033 5.71964C8.38968 5.57899 8.19891 5.49997 8 5.49997C7.80109 5.49997 7.61032 5.57899 7.46967 5.71964L4.96967 8.21964C4.67678 8.51253 4.67678 8.98741 4.96967 9.2803C5.26256 9.57319 5.73744 9.57319 6.03033 9.2803L8 7.31063L9.96967 9.2803Z" fill="#18181B"/>
</svg>
