<svg width="16" height="16" viewBox="0 0 16 16" fill="none" xmlns="http://www.w3.org/2000/svg">
<path fill-rule="evenodd" clip-rule="evenodd" d="M9.20785 12.3458C8.72302 13.3463 8.25486 13.5 8 13.5C7.74514 13.5 7.27698 13.3463 6.79215 12.3458C6.41987 11.5776 6.14494 10.4877 6.04314 9.15864C6.67634 9.21865 7.33101 9.24997 8 9.24997C8.66899 9.24997 9.32366 9.21865 9.95686 9.15864C9.85506 10.4877 9.58013 11.5776 9.20785 12.3458ZM9.99615 7.6473C9.35796 7.71422 8.68967 7.74997 8 7.74997C7.31033 7.74997 6.64204 7.71422 6.00385 7.6473C6.04121 5.95052 6.34713 4.57247 6.79215 3.65416C7.27698 2.65372 7.74514 2.5 8 2.5C8.25486 2.5 8.72302 2.65372 9.20785 3.65416C9.65287 4.57247 9.95879 5.95052 9.99615 7.6473ZM11.4737 8.95347C11.3885 10.4685 11.0989 11.8012 10.6384 12.8271C12.216 11.9629 13.3237 10.3479 13.4808 8.46288C12.8595 8.66166 12.1863 8.82671 11.4737 8.95347ZM13.3919 6.9095C12.8199 7.11447 12.1813 7.28863 11.4905 7.42434C11.435 5.75296 11.1368 4.28328 10.6384 3.17295C12.0378 3.93948 13.0675 5.29687 13.3919 6.9095ZM4.50947 7.42434C4.56501 5.75296 4.86321 4.28328 5.36164 3.17295C3.96219 3.93948 2.93247 5.29687 2.6081 6.90951C3.18009 7.11448 3.81871 7.28863 4.50947 7.42434ZM2.5192 8.46288C2.67628 10.3479 3.78403 11.9629 5.36164 12.8271C4.90112 11.8012 4.61153 10.4685 4.52633 8.95347C3.81369 8.82671 3.14052 8.66166 2.5192 8.46288ZM15 8C15 4.13401 11.866 1 8 1C4.13401 1 1 4.13401 1 8C1 11.866 4.13401 15 8 15C11.866 15 15 11.866 15 8Z" fill="#18181B"/>
</svg>
