<svg width="16" height="16" viewBox="0 0 16 16" fill="none" xmlns="http://www.w3.org/2000/svg">
<path fill-rule="evenodd" clip-rule="evenodd" d="M5 13.5H11C11.8284 13.5 12.5 12.8284 12.5 12V7.24264C12.5 6.84482 12.342 6.46328 12.0607 6.18198L8.81802 2.93934C8.53672 2.65804 8.15518 2.5 7.75736 2.5L5 2.5C4.17157 2.5 3.5 3.17157 3.5 4L3.5 12C3.5 12.8284 4.17157 13.5 5 13.5ZM14 7.24264C14 6.44699 13.6839 5.68393 13.1213 5.12132L9.87868 1.87868C9.31607 1.31607 8.55301 1 7.75736 1H5C3.34315 1 2 2.34315 2 4V12C2 13.6569 3.34315 15 5 15H11C12.6569 15 14 13.6569 14 12L14 7.24264ZM5 8.25C5 7.83579 5.33579 7.5 5.75 7.5H10.25C10.6642 7.5 11 7.83579 11 8.25C11 8.66421 10.6642 9 10.25 9H5.75C5.33579 9 5 8.66421 5 8.25ZM5.75 10.5C5.33579 10.5 5 10.8358 5 11.25C5 11.6642 5.33579 12 5.75 12H8.25C8.66421 12 9 11.6642 9 11.25C9 10.8358 8.66421 10.5 8.25 10.5H5.75Z" fill="#18181B"/>
</svg>
