<svg width="16" height="16" viewBox="0 0 16 16" fill="none" xmlns="http://www.w3.org/2000/svg">
<path fill-rule="evenodd" clip-rule="evenodd" d="M8.00014 1.5C8.96682 1.5 9.88413 1.71097 10.7086 2.08938L9.55232 3.24565C9.06366 3.08621 8.54194 3 8.00014 3C6.60176 3 5.33756 3.57344 4.42937 4.5H5.75015C6.16436 4.5 6.50015 4.83579 6.50015 5.25C6.50015 5.66421 6.16436 6 5.75015 6H2.75015C2.33593 6 2.00015 5.66421 2.00015 5.25V2.25C2.00015 1.83579 2.33593 1.5 2.75015 1.5C3.16436 1.5 3.50015 1.83579 3.50015 2.25V3.30963C4.66742 2.1896 6.25336 1.5 8.00014 1.5ZM12.0263 5.03444L5.03468 12.026C5.86444 12.6382 6.89015 13 8.00015 13C9.39853 13 10.6627 12.4266 11.5709 11.5H10.2501C9.83593 11.5 9.50015 11.1642 9.50015 10.75C9.50015 10.3358 9.83593 10 10.2501 10H13.2501C13.6644 10 14.0001 10.3358 14.0001 10.75V13.75C14.0001 14.1642 13.6644 14.5 13.2501 14.5C12.8359 14.5 12.5001 14.1642 12.5001 13.75V12.6904C11.3329 13.8104 9.74693 14.5 8.00015 14.5C6.47526 14.5 5.07324 13.975 3.96474 13.096L3.03039 14.0303C2.7375 14.3232 2.26262 14.3232 1.96973 14.0303C1.67684 13.7374 1.67684 13.2626 1.96973 12.9697L12.9697 1.96967C13.2626 1.67678 13.7375 1.67678 14.0304 1.96967C14.3233 2.26256 14.3233 2.73744 14.0304 3.03033L13.0961 3.96467C13.8086 4.86337 14.2884 5.95498 14.4448 7.14851C14.4986 7.55921 14.2093 7.93577 13.7985 7.98957C13.3878 8.04337 13.0113 7.75404 12.9575 7.34333C12.8452 6.48645 12.5158 5.69781 12.0263 5.03444ZM3.0428 8.65667C3.08318 8.96495 3.15168 9.26439 3.24562 9.55234L2.0897 10.7083C1.82432 10.13 1.64125 9.50607 1.55551 8.85149C1.50171 8.44079 1.79104 8.06423 2.20175 8.01043C2.61245 7.95663 2.98901 8.24596 3.0428 8.65667Z" fill="#18181B"/>
</svg>
