<svg width="16" height="16" viewBox="0 0 16 16" fill="none" xmlns="http://www.w3.org/2000/svg">
<path fill-rule="evenodd" clip-rule="evenodd" d="M14.5 12.75C14.5 11.4912 13.6543 10.43 12.5 10.1035L12.5 8.75L14.75 8.75C15.1642 8.75 15.5 8.41421 15.5 8C15.5 7.58579 15.1642 7.25 14.75 7.25L11.7508 7.25C11.7505 7.25 11.7503 7.25 11.75 7.25L8.75 7.25L8.75 5.89648C9.81721 5.59464 10.6207 4.66466 10.7358 3.53117C10.7452 3.43872 10.75 3.34492 10.75 3.25C10.75 1.73122 9.51879 0.499999 8 0.499999C6.48122 0.499999 5.25 1.73121 5.25 3.25C5.25 4.50877 6.09575 5.57002 7.25 5.89648L7.25 7.25L4.25 7.25C4.2495 7.25 4.249 7.25 4.24849 7.25L1.25 7.25C0.835788 7.25 0.500001 7.58579 0.500001 8C0.500001 8.41421 0.835787 8.75 1.25 8.75L3.5 8.75L3.5 10.1035C2.43279 10.4054 1.62931 11.3353 1.5142 12.4688C1.50481 12.5613 1.5 12.6551 1.5 12.75C1.5 14.2688 2.73122 15.5 4.25 15.5C5.76878 15.5 7 14.2688 7 12.75C7 11.4912 6.15425 10.43 5 10.1035L5 8.75L8 8.75L11 8.75L11 10.1035C9.84575 10.43 9 11.4912 9 12.75C9 14.2688 10.2312 15.5 11.75 15.5C13.1739 15.5 14.345 14.4179 14.4858 13.0312C14.4952 12.9387 14.5 12.8449 14.5 12.75ZM11.75 14C12.4404 14 13 13.4404 13 12.75C13 12.7069 12.9978 12.6642 12.9935 12.6222C12.9295 11.9919 12.3972 11.5 11.75 11.5C11.0596 11.5 10.5 12.0596 10.5 12.75C10.5 13.4404 11.0596 14 11.75 14ZM8 4.5C8.69036 4.5 9.25 3.94036 9.25 3.25C9.25 3.20685 9.24782 3.16422 9.24355 3.12219C9.17954 2.49187 8.64721 2 8 2C7.30965 2 6.75 2.55964 6.75 3.25C6.75 3.94035 7.30965 4.5 8 4.5ZM4.25 14C4.94036 14 5.5 13.4404 5.5 12.75C5.5 12.0596 4.94036 11.5 4.25 11.5C3.55965 11.5 3 12.0596 3 12.75C3 13.4404 3.55965 14 4.25 14Z" fill="#18181B"/>
</svg>
