<svg width="16" height="16" viewBox="0 0 16 16" fill="none" xmlns="http://www.w3.org/2000/svg">
<path fill-rule="evenodd" clip-rule="evenodd" d="M13.8735 8.25003L11.1532 12.9617C11.0639 13.1164 10.8989 13.2117 10.7202 13.2117H5.27962C5.10099 13.2117 4.93593 13.1164 4.84661 12.9617L2.12631 8.25003C2.037 8.09533 2.037 7.90473 2.12631 7.75003L4.84661 3.03833C4.93593 2.88363 5.10099 2.78833 5.27963 2.78833L10.7202 2.78833C10.8989 2.78833 11.0639 2.88363 11.1532 3.03833L13.8735 7.75003C13.9629 7.90473 13.9629 8.09533 13.8735 8.25003ZM15.1726 7.00003C15.5298 7.61883 15.5298 8.38123 15.1726 9.00003L12.4523 13.7117C12.095 14.3305 11.4348 14.7117 10.7202 14.7117H5.27962C4.56509 14.7117 3.90484 14.3305 3.54757 13.7117L0.827276 9.00003C0.470009 8.38123 0.47001 7.61883 0.827276 7.00003L3.54757 2.28833C3.90484 1.66953 4.56509 1.28833 5.27963 1.28833H10.7202C11.4348 1.28833 12.095 1.66953 12.4523 2.28833L15.1726 7.00003ZM9.49995 8.00002C9.49995 8.82845 8.82837 9.50002 7.99995 9.50002C7.17152 9.50002 6.49995 8.82845 6.49995 8.00002C6.49995 7.17159 7.17152 6.50002 7.99995 6.50002C8.82837 6.50002 9.49995 7.17159 9.49995 8.00002ZM10.9999 8.00002C10.9999 9.65688 9.6568 11 7.99995 11C6.34309 11 4.99995 9.65688 4.99995 8.00002C4.99995 6.34317 6.34309 5.00002 7.99995 5.00002C9.6568 5.00002 10.9999 6.34317 10.9999 8.00002Z" fill="#18181B"/>
</svg>
