<svg width="16" height="16" viewBox="0 0 16 16" fill="none" xmlns="http://www.w3.org/2000/svg">
<path fill-rule="evenodd" clip-rule="evenodd" d="M8 2.5C4.96243 2.5 2.5 4.96244 2.5 8C2.5 11.0376 4.96243 13.5 8 13.5C11.0376 13.5 13.5 11.0376 13.5 8C13.5 4.96244 11.0376 2.5 8 2.5ZM8 1C4.13401 1 0.999999 4.13401 0.999999 8C0.999998 11.866 4.13401 15 8 15C11.866 15 15 11.866 15 8C15 4.13401 11.866 1 8 1ZM5.71967 4.96961C6.01256 4.67672 6.48744 4.67672 6.78033 4.96961L8 6.18928L9.21967 4.96961C9.51256 4.67672 9.98744 4.67672 10.2803 4.96961C10.5732 5.2625 10.5732 5.73738 10.2803 6.03027L8.53033 7.78027C8.38968 7.92092 8.19891 7.99994 8 7.99994C7.80109 7.99994 7.61032 7.92092 7.46967 7.78027L5.71967 6.03027C5.42678 5.73738 5.42678 5.2625 5.71967 4.96961ZM6.78033 8.71961C6.48744 8.42672 6.01256 8.42672 5.71967 8.71961C5.42678 9.0125 5.42678 9.48738 5.71967 9.78027L7.46967 11.5303C7.61032 11.6709 7.80109 11.7499 8 11.7499C8.19891 11.7499 8.38968 11.6709 8.53033 11.5303L10.2803 9.78027C10.5732 9.48738 10.5732 9.0125 10.2803 8.71961C9.98744 8.42672 9.51256 8.42672 9.21967 8.71961L8 9.93928L6.78033 8.71961Z" fill="#18181B"/>
</svg>
