<svg width="16" height="16" viewBox="0 0 16 16" fill="none" xmlns="http://www.w3.org/2000/svg">
<path fill-rule="evenodd" clip-rule="evenodd" d="M4.5 3H11.5C12.3284 3 13 3.67157 13 4.5V11.5C13 12.3284 12.3284 13 11.5 13H4.5C3.67157 13 3 12.3284 3 11.5V4.5C3 3.67157 3.67157 3 4.5 3ZM1.5 4.5C1.5 2.84315 2.84315 1.5 4.5 1.5H11.5C13.1569 1.5 14.5 2.84315 14.5 4.5V11.5C14.5 13.1569 13.1569 14.5 11.5 14.5H4.5C2.84315 14.5 1.5 13.1569 1.5 11.5V4.5ZM6.75 4.5C6.33579 4.5 6 4.83579 6 5.25V8.75V10.75C6 11.1642 6.33579 11.5 6.75 11.5C7.16421 11.5 7.5 11.1642 7.5 10.75V9.5H8.25C9.63071 9.5 10.75 8.38071 10.75 7C10.75 5.61929 9.63071 4.5 8.25 4.5H6.75ZM8.25 8H7.5V6H8.25C8.80228 6 9.25 6.44772 9.25 7C9.25 7.55228 8.80228 8 8.25 8Z" fill="#18181B"/>
</svg>
