<svg width="16" height="16" viewBox="0 0 16 16" fill="none" xmlns="http://www.w3.org/2000/svg">
<path fill-rule="evenodd" clip-rule="evenodd" d="M5.71904 1.21906C6.01193 0.926166 6.48681 0.926166 6.7797 1.21906L7.99997 2.43933L9.22025 1.21906C9.51314 0.926166 9.98801 0.926166 10.2809 1.21906C10.5738 1.51195 10.5738 1.98683 10.2809 2.27972L8.74997 3.81065L8.74997 6.70001L11.2522 5.25533L11.8126 3.16404C11.9198 2.76394 12.331 2.5265 12.7311 2.63371C13.1312 2.74092 13.3687 3.15217 13.2615 3.55227L12.8148 5.21919L14.4817 5.66584C14.8818 5.77305 15.1193 6.1843 15.0121 6.5844C14.9049 6.9845 14.4936 7.22194 14.0935 7.11473L12.0022 6.55437L9.49999 7.99904L12.0022 9.4437L14.0935 8.88334C14.4936 8.77614 14.9049 9.01357 15.0121 9.41367C15.1193 9.81377 14.8819 10.225 14.4818 10.3322L12.8148 10.7789L13.2615 12.4458C13.3687 12.8459 13.1313 13.2572 12.7312 13.3644C12.3311 13.4716 11.9198 13.2341 11.8126 12.834L11.2522 10.7427L8.74997 9.29806L8.74997 12.1893L10.2791 13.7184C10.5719 14.0113 10.5719 14.4862 10.2791 14.7791C9.98616 15.072 9.51129 15.072 9.21839 14.7791L7.99997 13.5607L6.78155 14.7791C6.48866 15.072 6.01379 15.072 5.72089 14.7791C5.428 14.4862 5.428 14.0113 5.72089 13.7184L7.24997 12.1893L7.24997 9.29808L4.74607 10.7437L4.18639 12.8325C4.07919 13.2326 3.66793 13.47 3.26783 13.3628C2.86773 13.2556 2.6303 12.8443 2.7375 12.4442L3.18348 10.7799L1.51908 10.3339C1.11898 10.2267 0.881548 9.81542 0.988755 9.41532C1.09596 9.01522 1.50721 8.77778 1.90731 8.88499L3.99607 9.44467L6.49999 7.99904L3.99608 6.5534L1.90732 7.11308C1.50722 7.22029 1.09597 6.98285 0.988762 6.58275C0.881556 6.18265 1.11899 5.7714 1.51909 5.6642L3.18349 5.21822L2.73751 3.55383C2.63031 3.15373 2.86774 2.74248 3.26784 2.63527C3.66794 2.52807 4.07919 2.7655 4.1864 3.1656L4.74608 5.25436L7.24997 6.69999L7.24997 3.81065L5.71904 2.27972C5.42615 1.98683 5.42615 1.51195 5.71904 1.21906Z" fill="#18181B"/>
</svg>
