<svg width="16" height="16" viewBox="0 0 16 16" fill="none" xmlns="http://www.w3.org/2000/svg">
<path d="M8 9.07559L8.08506 8.96927C8.31736 8.67888 8.29944 8.26805 8.05917 8C8.04075 7.97944 8.02102 7.95972 8 7.94096C7.98981 7.93186 7.97932 7.92299 7.96852 7.91435C7.65587 7.66423 7.20444 7.70488 6.94096 8C6.93186 8.01019 6.92243 8.02138 6.91379 8.03218L5.43781 9.87715L5.03033 9.46967C4.93045 9.36979 4.80941 9.30397 4.68164 9.27221C4.4474 9.21399 4.19054 9.27024 4 9.44096C3.98969 9.45019 3.97958 9.45976 3.96967 9.46967C3.67678 9.76256 3.67729 10.2379 3.97018 10.5308L4.37715 10.9378L4.96967 11.5303C5.12052 11.6812 5.32847 11.7606 5.54148 11.7489C5.75448 11.7371 5.95238 11.6351 6.08565 11.4685L6.60823 10.8153L6.60911 10.8142L8 9.07559Z" fill="#18181B"/>
<path fill-rule="evenodd" clip-rule="evenodd" d="M12 11C13.6569 11 15 9.65685 15 8V4C15 2.34315 13.6569 1 12 1H8C6.34315 1 5 2.34315 5 4V5H4C2.34315 5 1 6.34315 1 8V12C1 13.6569 2.34315 15 4 15H8C9.65685 15 11 13.6569 11 12V11H12ZM4 6.5C3.17157 6.5 2.5 7.17157 2.5 8V12C2.5 12.8284 3.17157 13.5 4 13.5H8C8.82843 13.5 9.5 12.8284 9.5 12V8C9.5 7.49806 9.25346 7.0537 8.87487 6.78142C8.62861 6.60431 8.32649 6.5 8 6.5H4ZM13.5 4C13.5 3.17157 12.8284 2.5 12 2.5H8C7.34689 2.5 6.79127 2.9174 6.58535 3.5C6.53008 3.65639 6.5 3.82468 6.5 4V5H8C9.65685 5 11 6.34315 11 8V9.5H12C12.1753 9.5 12.3436 9.46992 12.5 9.41465C13.0826 9.20873 13.5 8.65311 13.5 8V4Z" fill="#18181B"/>
</svg>
