<svg width="16" height="16" viewBox="0 0 16 16" fill="none" xmlns="http://www.w3.org/2000/svg">
<path fill-rule="evenodd" clip-rule="evenodd" d="M13.0607 8.81802L8.19125 13.6874C7.80321 14.0755 7.17496 14.0783 6.78344 13.6938L2.33393 9.32371C1.94002 8.93684 1.93418 8.30393 2.32089 7.90986L7.18863 2.94939C7.47071 2.66195 7.85652 2.5 8.25925 2.5H12.5C13.0523 2.5 13.5 2.94772 13.5 3.5V7.75736C13.5 8.15518 13.342 8.53672 13.0607 8.81802ZM6.11801 1.89879C6.68216 1.32389 7.45379 1 8.25925 1H12.5C13.8807 1 15 2.11929 15 3.5V7.75736C15 8.55301 14.6839 9.31607 14.1213 9.87868L9.25191 14.7481C8.28182 15.7182 6.71117 15.7253 5.73238 14.7639L1.28287 10.3939C0.298095 9.4267 0.283502 7.84443 1.25027 6.85925L6.11801 1.89879ZM10.5 6.5C9.80964 6.5 9.25 5.94036 9.25 5.25C9.25 4.55964 9.80964 4 10.5 4C11.1904 4 11.75 4.55964 11.75 5.25C11.75 5.94036 11.1904 6.5 10.5 6.5Z" fill="#18181B"/>
</svg>
