<svg width="16" height="16" viewBox="0 0 16 16" fill="none" xmlns="http://www.w3.org/2000/svg">
<path fill-rule="evenodd" clip-rule="evenodd" d="M10.5003 2.25461L10.5 2.25L10.5003 2.24539C10.5027 2.21458 10.5126 2.08821 10.1385 1.89438C9.70325 1.66892 8.96692 1.5 8.00002 1.5C7.03311 1.5 6.29678 1.66892 5.86158 1.89438C5.48744 2.08821 5.49733 2.21458 5.49975 2.24539L5.50002 2.25L5.49975 2.25461C5.49733 2.28542 5.48744 2.41179 5.86158 2.60562C6.29678 2.83108 7.03311 3 8.00002 3C8.96692 3 9.70325 2.83108 10.1385 2.60562C10.5126 2.41179 10.5027 2.28542 10.5003 2.25461ZM12 2.25C12 2.98768 11.5669 3.54398 10.8639 3.91888L11.689 6.22928C13.2417 6.70917 14.25 7.54939 14.25 8.74994C14.25 10.6029 11.8482 11.5975 8.75002 11.7337V15C8.75002 15.4142 8.41423 15.75 8.00002 15.75C7.5858 15.75 7.25002 15.4142 7.25002 15V11.7337C4.15184 11.5975 1.75 10.6029 1.75 8.74994C1.75 7.54938 2.7583 6.70915 4.31101 6.22927L5.13615 3.91887C4.43315 3.54398 4.00002 2.98768 4.00002 2.25C4.00002 0.75 5.79088 0 8.00002 0C10.2092 0 12 0.75 12 2.25Z" fill="#18181B"/>
</svg>
