<svg width="16" height="16" viewBox="0 0 16 16" fill="none" xmlns="http://www.w3.org/2000/svg">
<path fill-rule="evenodd" clip-rule="evenodd" d="M14.7803 7.46967C15.0732 7.76256 15.0732 8.23744 14.7803 8.53033L12.2803 11.0303C11.9874 11.3232 11.5126 11.3232 11.2197 11.0303C10.9268 10.7374 10.9268 10.2626 11.2197 9.96967L12.4393 8.75L4.75 8.75C4.33579 8.75 4 8.41421 4 8C4 7.58579 4.33579 7.25 4.75 7.25L12.4393 7.25L11.2197 6.03033C10.9268 5.73744 10.9268 5.26256 11.2197 4.96967C11.5126 4.67678 11.9874 4.67678 12.2803 4.96967L14.7803 7.46967ZM2.5 1.75C2.5 1.33579 2.16421 0.999999 1.75 0.999999C1.33579 0.999999 1 1.33579 1 1.75L0.999999 14.25C0.999999 14.6642 1.33579 15 1.75 15C2.16421 15 2.5 14.6642 2.5 14.25L2.5 1.75Z" fill="#18181B"/>
</svg>
