<svg width="16" height="16" viewBox="0 0 16 16" fill="none" xmlns="http://www.w3.org/2000/svg">
<path fill-rule="evenodd" clip-rule="evenodd" d="M8 2.5C6.67992 2.5 5.54335 3.43176 5.28446 4.72621L4.66527 7.82217C4.48044 8.74635 4.02618 9.59514 3.35974 10.2616L3.16595 10.4554C3.05969 10.5616 3 10.7057 3 10.856C3 11.1198 3.18211 11.3488 3.43918 11.4081L4.26039 11.5976C6.72113 12.1655 9.27887 12.1655 11.7396 11.5976L12.5608 11.4081C12.8179 11.3488 13 11.1198 13 10.856C13 10.7057 12.9403 10.5616 12.8341 10.4554L12.6403 10.2616C11.9738 9.59514 11.5196 8.74635 11.3347 7.82217L11.2672 7.48463C11.186 7.07846 11.4494 6.68334 11.8556 6.60211C12.2617 6.52087 12.6569 6.78429 12.7381 7.19046L12.8056 7.528C12.9324 8.16179 13.2439 8.74389 13.7009 9.20092L13.8947 9.39471C14.2823 9.78227 14.5 10.3079 14.5 10.856C14.5 11.8183 13.8358 12.6533 12.8981 12.8697L12.0769 13.0592C11.376 13.2209 10.6679 13.3404 9.95635 13.4176C9.76432 14.3218 8.96137 15.0001 8 15.0001C7.03863 15.0001 6.23568 14.3218 6.04365 13.4176C5.3321 13.3404 4.62399 13.2209 3.9231 13.0592L3.10189 12.8697C2.16422 12.6533 1.5 11.8183 1.5 10.856C1.5 10.3079 1.71773 9.78227 2.10529 9.39471L2.29908 9.20092C2.75611 8.74389 3.06764 8.16179 3.1944 7.528L3.81359 4.43203C4.21271 2.43645 5.9649 1 8 1C8.41884 1 8.82647 1.06098 9.21306 1.17552C9.61021 1.29319 9.83677 1.71053 9.7191 2.10768C9.60143 2.50483 9.18409 2.73139 8.78694 2.61372C8.53698 2.53966 8.2728 2.5 8 2.5Z" fill="#18181B"/>
<path fill-rule="evenodd" clip-rule="evenodd" d="M12.5 5.5C13.6046 5.5 14.5 4.60457 14.5 3.5C14.5 2.39543 13.6046 1.5 12.5 1.5C11.3954 1.5 10.5 2.39543 10.5 3.5C10.5 4.60457 11.3954 5.5 12.5 5.5Z" fill="#FF3333"/>
</svg>
