<svg width="16" height="16" viewBox="0 0 16 16" fill="none" xmlns="http://www.w3.org/2000/svg">
<path fill-rule="evenodd" clip-rule="evenodd" d="M13 5.5L13 4C13 3.72386 12.7761 3.5 12.5 3.5L3.5 3.5C3.22386 3.5 3 3.72386 3 4L3 5.5C3 5.77614 3.22386 6 3.5 6L7.99915 6C7.99943 6 7.99972 6 8 6C8.00029 6 8.00057 6 8.00086 6L12.5 6C12.7761 6 13 5.77614 13 5.5ZM8.75 7.5L12.5 7.5C13.6046 7.5 14.5 6.60457 14.5 5.5L14.5 4C14.5 2.89543 13.6046 2 12.5 2L8.75 2L8.75 1.75C8.75 1.33579 8.41421 1 8 1C7.58579 1 7.25 1.33579 7.25 1.75L7.25 2L3.5 2C2.39543 2 1.5 2.89543 1.5 4L1.5 5.5C1.5 6.60457 2.39543 7.5 3.5 7.5L7.25 7.5L7.25 8.5L6 8.5C4.89543 8.5 4 9.39543 4 10.5L4 12C4 13.1046 4.89543 14 6 14L7.25 14L7.25 14.25C7.25 14.6642 7.58579 15 8 15C8.41421 15 8.75 14.6642 8.75 14.25L8.75 14L10 14C11.1046 14 12 13.1046 12 12L12 10.5C12 9.39543 11.1046 8.5 10 8.5L8.75 8.5L8.75 7.5ZM8 10L6 10C5.72386 10 5.5 10.2239 5.5 10.5L5.5 12C5.5 12.2761 5.72386 12.5 6 12.5L10 12.5C10.2761 12.5 10.5 12.2761 10.5 12L10.5 10.5C10.5 10.2239 10.2761 10 10 10L8 10Z" fill="#18181B"/>
</svg>
