<svg width="16" height="16" viewBox="0 0 16 16" fill="none" xmlns="http://www.w3.org/2000/svg">
<g clip-path="url(#clip0_2217_4800)">
<path fill-rule="evenodd" clip-rule="evenodd" d="M3.58864 9.66995C2.38931 9.37386 1.5 8.29078 1.5 7V6.75C1.5 5.23122 2.73122 4 4.25 4H4.5C5.45738 4 6.3005 4.48923 6.79298 5.23133C7.06573 5.64231 7.23094 6.13086 7.24845 6.65681C7.24849 6.65788 7.24852 6.65896 7.24856 6.66003C7.24855 6.65981 7.24856 6.66026 7.24856 6.66003H7.25L7.24983 6.71888L7.25 6.75V7C7.25 7.13101 7.24084 7.25989 7.22312 7.38601C7.20353 7.64695 7.17324 7.90383 7.13224 8.1562C7.03109 8.77889 6.86476 9.37414 6.63325 9.93511C6.61399 9.98178 6.59428 10.0282 6.57412 10.0744C6.24853 10.8203 5.8053 11.5034 5.24444 12.107C4.99097 12.3798 4.71347 12.6364 4.41195 12.8752C4.37964 12.9008 4.34706 12.9262 4.31421 12.9513C4.27281 12.9831 4.22181 13 4.16965 13C3.98362 13 3.864 12.7977 3.95047 12.633C3.96592 12.6035 3.98209 12.5725 3.99891 12.5399C4.05038 12.4402 4.10792 12.3262 4.16965 12.1998C4.26444 12.0056 4.36912 11.7821 4.47688 11.5361C4.51747 11.4434 4.5585 11.3476 4.5996 11.2488C4.79696 10.7749 4.99605 10.2356 5.15665 9.67111C5.1389 9.67546 5.12108 9.67964 5.1032 9.68364C4.90908 9.72708 4.70722 9.75 4.5 9.75H4.25C4.022 9.75 3.80049 9.72225 3.58864 9.66995ZM3.04028 11.0754C1.28239 10.5543 0 8.92693 0 7V6.75C0 4.40279 1.90279 2.5 4.25 2.5H4.5C5.95175 2.5 7.23331 3.22771 7.99996 4.33845C8.76665 3.22782 10.0483 2.5 11.5 2.5H11.75C14.0234 2.5 15.8795 4.28457 15.9944 6.53003C15.9982 6.57446 16.0001 6.61928 16 6.66437L15.9998 6.71686L16 6.75L16 7C16 7.1834 15.9883 7.36477 15.9654 7.54327C15.7577 10.1635 14.607 12.5095 12.4766 14.1419C12.1681 14.3783 11.795 14.5 11.4197 14.5C10.0787 14.5 9.27411 13.0754 9.87233 11.9357C9.98312 11.7247 10.1316 11.4283 10.2903 11.0753C9.50173 10.8416 8.80886 10.3853 8.28451 9.77916C7.74358 11.4854 6.72854 12.991 5.22658 14.142C4.91812 14.3783 4.54503 14.5 4.16965 14.5C2.82872 14.5 2.02411 13.0754 2.62233 11.9358C2.73312 11.7247 2.88161 11.4283 3.04028 11.0754ZM10.8386 9.66995C11.0505 9.72225 11.272 9.75 11.5 9.75H11.75C11.9572 9.75 12.1591 9.72708 12.3532 9.68364C12.3711 9.67964 12.3889 9.67546 12.4066 9.67112C12.246 10.2356 12.0469 10.7749 11.8496 11.2488C11.8085 11.3475 11.7675 11.4434 11.7269 11.5361C11.6191 11.7821 11.5144 12.0056 11.4197 12.1997C11.3579 12.3262 11.3004 12.4402 11.2489 12.5398C11.2321 12.5724 11.2159 12.6035 11.2005 12.6329C11.114 12.7976 11.2336 13 11.4197 13C11.4718 13 11.5228 12.983 11.5642 12.9513C11.5971 12.9261 11.6296 12.9007 11.662 12.8751C11.9635 12.6363 12.241 12.3798 12.4944 12.107C13.0553 11.5034 13.4985 10.8203 13.8241 10.0744C13.8443 10.0282 13.864 9.98181 13.8832 9.93515C14.1147 9.37415 14.2811 8.77888 14.3822 8.15614C14.4232 7.90381 14.4535 7.64696 14.4731 7.38607C14.4908 7.25992 14.5 7.13103 14.5 7V6.75L14.4998 6.71886L14.5 6.66061L14.4986 6.66066C14.4986 6.66043 14.4986 6.66089 14.4986 6.66066C14.4985 6.65958 14.4985 6.65782 14.4984 6.65674C14.4809 6.13079 14.3157 5.64226 14.0429 5.23128C13.5505 4.48921 12.7074 4 11.75 4H11.5C9.98122 4 8.75 5.23122 8.75 6.75V7C8.75 8.29078 9.6393 9.37385 10.8386 9.66995Z" fill="#18181B"/>
</g>
<defs>
<clipPath id="clip0_2217_4800">
<rect width="16" height="16" fill="white"/>
</clipPath>
</defs>
</svg>
