<svg width="16" height="16" viewBox="0 0 16 16" fill="none" xmlns="http://www.w3.org/2000/svg">
<path fill-rule="evenodd" clip-rule="evenodd" d="M8 9.06066L12.9697 14.0303C13.2626 14.3232 13.7374 14.3232 14.0303 14.0303C14.3232 13.7374 14.3232 13.2626 14.0303 12.9697L3.03033 1.96967C2.73744 1.67678 2.26256 1.67678 1.96967 1.96967C1.67678 2.26256 1.67678 2.73744 1.96967 3.03033L6.93934 8L5.46967 9.46967C5.17678 9.76256 5.17678 10.2374 5.46967 10.5303C5.76256 10.8232 6.23744 10.8232 6.53033 10.5303L8 9.06066ZM11.5404 8.3383L12.601 9.39896L13.2574 8.74264C14.053 7.94699 14.5 6.86786 14.5 5.74264C14.5 3.3995 12.6005 1.5 10.2574 1.5C9.13214 1.5 8.05301 1.94699 7.25736 2.74264L6.60104 3.39896L7.6617 4.45962L8.31802 3.8033C8.83237 3.28896 9.52997 3 10.2574 3C11.7721 3 13 4.22792 13 5.74264C13 6.47003 12.711 7.16764 12.1967 7.68198L11.5404 8.3383ZM9.46967 5.46967L9.07071 5.86863L10.1314 6.92929L10.5303 6.53033C10.8232 6.23744 10.8232 5.76256 10.5303 5.46967C10.2374 5.17678 9.76256 5.17678 9.46967 5.46967ZM3.21967 6.78033C3.51256 6.48744 3.98743 6.48744 4.28033 6.78033C4.57322 7.07323 4.57322 7.5481 4.28033 7.84099L3.8033 8.31802C3.28896 8.83236 3 9.52997 3 10.2574C3 11.7721 4.22792 13 5.74264 13C6.47004 13 7.16763 12.711 7.68198 12.1967L8.159 11.7197C8.45189 11.4268 8.92677 11.4268 9.21966 11.7197C9.51255 12.0126 9.51255 12.4874 9.21966 12.7803L8.74264 13.2574C7.94699 14.053 6.86786 14.5 5.74264 14.5C3.3995 14.5 1.5 12.6005 1.5 10.2574C1.5 9.13214 1.94699 8.05301 2.74264 7.25736L3.21967 6.78033Z" fill="#18181B"/>
</svg>
