<svg width="16" height="16" viewBox="0 0 16 16" fill="none" xmlns="http://www.w3.org/2000/svg">
<path fill-rule="evenodd" clip-rule="evenodd" d="M11.5 12.5C11.5 13.3284 10.8284 14 10 14H6C5.17157 14 4.5 13.3284 4.5 12.5V11.6771C4.5 10.6517 3.99518 9.69198 3.15021 9.11106C1.49117 7.97047 0.5 6.08623 0.5 4.07294V3C0.5 2.17157 1.17157 1.5 2 1.5H2.66642C4.83516 1.5 6.82351 2.59017 8 4.34299C9.17649 2.59017 11.1648 1.5 13.3336 1.5H14C14.8284 1.5 15.5 2.17157 15.5 3V4.07294C15.5 6.08623 14.5088 7.97047 12.8498 9.11106C12.0048 9.69198 11.5 10.6517 11.5 11.6771V12.5ZM3.5 3.07086C5.16719 3.35685 6.59529 4.48822 7.23806 6.09515C7.51318 6.78296 8.48682 6.78296 8.76194 6.09515C9.40471 4.48822 10.8328 3.35685 12.5 3.07086C12.7723 3.02416 13.0509 3 13.3336 3H14V4.07294C14 4.21629 13.9933 4.35877 13.9802 4.5C13.8544 5.85561 13.1339 7.09546 12 7.875C10.748 8.73575 10 10.1577 10 11.6771V12.5H8.5H7.5H6V11.6771C6 10.1577 5.25201 8.73575 4 7.875C2.86612 7.09546 2.14563 5.85561 2.01977 4.5C2.00666 4.35877 2 4.21629 2 4.07294V3H2.66642C2.94907 3 3.22772 3.02416 3.5 3.07086Z" fill="#18181B"/>
</svg>
