<svg width="16" height="16" viewBox="0 0 16 16" fill="none" xmlns="http://www.w3.org/2000/svg">
<path fill-rule="evenodd" clip-rule="evenodd" d="M9.06284 3.5H12C12.8284 3.5 13.5 4.17157 13.5 5V11C13.5 11.8284 12.8284 12.5 12 12.5H10.559C10.5498 12.4897 10.5402 12.4796 10.5303 12.4697C9.78032 11.7197 9.75 11.0451 9.75 9.25C9.75 8.83579 9.41421 8.5 9 8.5H7.75255C7.77059 6.60485 7.91515 5.05868 9.06284 3.5ZM7.28578 3.5H4C3.17157 3.5 2.5 4.17157 2.5 5V11C2.5 11.8284 3.17157 12.5 4 12.5H8.7137C8.33325 11.7392 8.26459 10.9256 8.25247 10H7C6.58579 10 6.25 9.66421 6.25 9.25L6.25 9.18028C6.24984 7.28923 6.24968 5.38876 7.28578 3.5ZM1 5C1 3.34315 2.34315 2 4 2H12C13.6569 2 15 3.34315 15 5V11C15 12.6569 13.6569 14 12 14H4C2.34315 14 1 12.6569 1 11V5ZM10.25 7.25C10.25 7.66421 10.5858 8 11 8C11.4142 8 11.75 7.66421 11.75 7.25V6.25C11.75 5.83579 11.4142 5.5 11 5.5C10.5858 5.5 10.25 5.83579 10.25 6.25V7.25ZM4.75 8C4.33579 8 4 7.66421 4 7.25L4 6.25C4 5.83579 4.33579 5.5 4.75 5.5C5.16421 5.5 5.5 5.83579 5.5 6.25V7.25C5.5 7.66421 5.16421 8 4.75 8Z" fill="#18181B"/>
</svg>
