<svg width="16" height="16" viewBox="0 0 16 16" fill="none" xmlns="http://www.w3.org/2000/svg">
<path fill-rule="evenodd" clip-rule="evenodd" d="M13.5 8C13.5 11.0376 11.0376 13.5 8 13.5C4.96243 13.5 2.5 11.0376 2.5 8C2.5 4.96243 4.96243 2.5 8 2.5C11.0376 2.5 13.5 4.96243 13.5 8ZM15 8C15 11.866 11.866 15 8 15C4.13401 15 1 11.866 1 8C1 4.13401 4.13401 1 8 1C11.866 1 15 4.13401 15 8ZM6.75 5C6.33579 5 6 5.33579 6 5.75V8.5V10.75C6 11.1642 6.33579 11.5 6.75 11.5C7.16421 11.5 7.5 11.1642 7.5 10.75V9.25H9.25C9.66421 9.25 10 8.91421 10 8.5C10 8.08579 9.66421 7.75 9.25 7.75H7.5V6.5H9.75C10.1642 6.5 10.5 6.16421 10.5 5.75C10.5 5.33579 10.1642 5 9.75 5H6.75Z" fill="#18181B"/>
</svg>
