<svg width="16" height="16" viewBox="0 0 16 16" fill="none" xmlns="http://www.w3.org/2000/svg">
<path fill-rule="evenodd" clip-rule="evenodd" d="M13.5 5.47495V10.421C13.5 11.0462 13.1121 11.6059 12.5267 11.8255L7.75 13.6167V7.52852L13.5 5.47495ZM12.8463 4.11561C12.7907 4.07761 12.7321 4.0431 12.6708 4.01244L9.49928 2.42667C9.12621 2.24014 8.69232 2.21736 8.30177 2.36382L3.47332 4.17449C3.39296 4.20462 3.31632 4.24117 3.2439 4.28341L7.04915 6.18603L12.8463 4.11561ZM2.5 5.58851L6.25 7.46351V13.4479L3.32918 11.9875C2.821 11.7334 2.5 11.214 2.5 10.6459V5.58851ZM1.2665 4.34265C1.0942 4.72334 1 5.1432 1 5.57898V10.6459C1 11.7822 1.64201 12.821 2.65836 13.3292L5.8299 14.9149C6.57604 15.288 7.44382 15.3336 8.22491 15.0406L13.0534 13.23C14.2243 12.7909 15 11.6715 15 10.421V5.35408C15 4.21777 14.358 3.17898 13.3416 2.6708L10.1701 1.08503C9.42396 0.711962 8.55618 0.666415 7.77509 0.959325L2.94663 2.77C2.32088 3.00465 1.808 3.43358 1.46606 3.97299C1.41198 4.02781 1.36549 4.09196 1.32918 4.16457C1.30026 4.22242 1.27951 4.28222 1.2665 4.34265Z" fill="#18181B"/>
</svg>
