<svg width="16" height="16" viewBox="0 0 16 16" fill="none" xmlns="http://www.w3.org/2000/svg">
<path fill-rule="evenodd" clip-rule="evenodd" d="M5.96659 6.39864C6.18387 6.22482 6.37421 6.01872 6.53034 5.78761C6.55121 5.75673 6.57146 5.7254 6.59108 5.69364C6.68767 5.53734 6.76904 5.37063 6.83313 5.19559C6.83777 5.18293 6.84231 5.17023 6.84677 5.15748L8.21967 6.5304C8.51256 6.8233 8.98744 6.8233 9.28033 6.5304C9.29024 6.52049 9.29981 6.51038 9.30904 6.50007C9.57289 6.20559 9.56332 5.75272 9.28033 5.46973L8.81066 5.00005H9.50001C9.57896 5.00005 9.65649 5.00615 9.73215 5.0179C10.377 5.11809 10.8861 5.62911 10.9832 6.275C10.9943 6.34841 11 6.42357 11 6.50007V9.25011C11 9.4422 11.0722 9.61742 11.191 9.75011C11.3283 9.90355 11.5279 10.0001 11.75 10.0001C11.9721 10.0001 12.1717 9.90355 12.309 9.75011C12.4278 9.61742 12.5 9.4422 12.5 9.25011V6.50007C12.5 5.24627 11.7309 4.17212 10.6387 3.72369C10.3643 3.611 10.0694 3.53782 9.76121 3.51124C9.67514 3.50382 9.58802 3.50003 9.50001 3.50003H8.81066L9.28033 3.03035C9.56332 2.74736 9.57289 2.29449 9.30904 2.00001C9.29981 1.9897 9.29024 1.97958 9.28033 1.96968C8.98744 1.67678 8.51256 1.67678 8.21967 1.96968L6.84677 3.3426C6.6746 2.84986 6.36615 2.42108 5.96659 2.10144C5.49613 1.72506 4.89935 1.5 4.25 1.5C2.73122 1.5 1.5 2.73123 1.5 4.25004C1.5 5.19929 1.98094 6.03621 2.71245 6.53041C2.74333 6.55128 2.77466 6.57153 2.80641 6.59115C3.01914 6.72261 3.25112 6.82588 3.49715 6.89575L3.5 6.89656V7.50008C3.5 7.83865 3.72434 8.12483 4.03248 8.21806C4.10132 8.23889 4.17435 8.25009 4.25 8.25009C4.46787 8.25009 4.66404 8.15719 4.80106 8.00885C4.92455 7.87516 5 7.69643 5 7.50008V6.89656C5.35701 6.79558 5.68451 6.62431 5.96659 6.39864ZM5.21733 9.53214C4.96127 9.45487 4.67203 9.51742 4.46967 9.71978L4.46895 9.7205L2.71967 11.4698C2.42678 11.7627 2.42678 12.2376 2.71967 12.5305L4.46931 14.2801C4.7622 14.573 5.23744 14.5734 5.53033 14.2805C5.54024 14.2706 5.54981 14.2605 5.55904 14.2502C5.82289 13.9557 5.81332 13.5028 5.53033 13.2198L5.06066 12.7502H12.75C13.1642 12.7502 13.5 12.4144 13.5 12.0001C13.5 11.5962 13.1806 11.2668 12.7806 11.2508C12.7705 11.2503 12.7603 11.2501 12.75 11.2501H5.06066L5.52961 10.7812L5.53033 10.7805C5.81332 10.4975 5.82289 10.0446 5.55904 9.75011C5.54981 9.73981 5.54024 9.72969 5.53033 9.71978C5.4398 9.62925 5.33188 9.5667 5.21733 9.53214ZM4.78778 3.1213C5.20898 3.32234 5.5 3.7522 5.5 4.25004C5.5 4.9404 4.94035 5.50006 4.25 5.50006C3.55964 5.50006 3 4.9404 3 4.25004C3 3.55967 3.55964 3.00002 4.25 3.00002C4.44253 3.00002 4.62489 3.04355 4.78778 3.1213Z" fill="#18181B"/>
</svg>
