<svg width="16" height="16" viewBox="0 0 16 16" fill="none" xmlns="http://www.w3.org/2000/svg">
<path fill-rule="evenodd" clip-rule="evenodd" d="M11.5 4.5C12.0523 4.5 12.5 4.05228 12.5 3.5C12.5 2.94772 12.0523 2.5 11.5 2.5C10.9477 2.5 10.5 2.94772 10.5 3.5C10.5 4.05228 10.9477 4.5 11.5 4.5ZM11.5 6C12.8807 6 14 4.88071 14 3.5C14 2.11929 12.8807 1 11.5 1C10.1193 1 9 2.11929 9 3.5C9 4.88071 10.1193 6 11.5 6ZM10.75 7.25C10.75 6.83579 11.0858 6.5 11.5 6.5C12.7375 6.5 13.8625 6.88463 14.6781 7.46154C15.4964 8.04034 16 8.81002 16 9.57692C16 10.639 15.139 11.5 14.0769 11.5H13.75C13.3358 11.5 13 11.1642 13 10.75C13 10.3358 13.3358 10 13.75 10H14.0769C14.3106 10 14.5 9.81058 14.5 9.57692C14.5 9.47199 14.4012 9.10297 13.8119 8.68615C13.2574 8.29395 12.437 8 11.5 8C11.0858 8 10.75 7.66421 10.75 7.25ZM2.18809 8.68615C2.74255 8.29395 3.56301 8 4.5 8C4.91421 8 5.25 7.66421 5.25 7.25C5.25 6.83579 4.91421 6.5 4.5 6.5C3.26247 6.5 2.13748 6.88463 1.32188 7.46154C0.503591 8.04034 0 8.81002 0 9.57692C0 10.639 0.860991 11.5 1.92308 11.5H2.25C2.66421 11.5 3 11.1642 3 10.75C3 10.3358 2.66421 10 2.25 10H1.92308C1.68942 10 1.5 9.81058 1.5 9.57692C1.5 9.47199 1.59881 9.10297 2.18809 8.68615ZM4.5 4.5C5.05228 4.5 5.5 4.05228 5.5 3.5C5.5 2.94772 5.05228 2.5 4.5 2.5C3.94772 2.5 3.5 2.94772 3.5 3.5C3.5 4.05228 3.94772 4.5 4.5 4.5ZM4.5 6C5.88071 6 7 4.88071 7 3.5C7 2.11929 5.88071 1 4.5 1C3.11929 1 2 2.11929 2 3.5C2 4.88071 3.11929 6 4.5 6ZM10.75 9.5H10.4999V9C10.4999 7.61929 9.38065 6.5 7.99994 6.5C6.61923 6.5 5.49994 7.61929 5.49994 9V9.5H5.25C4.55964 9.5 4 10.0596 4 10.75V13.75C4 14.4404 4.55964 15 5.25 15H10.75C11.4404 15 12 14.4404 12 13.75V10.75C12 10.0596 11.4404 9.5 10.75 9.5ZM8.99994 9V9.5H6.99994V9C6.99994 8.44772 7.44766 8 7.99994 8C8.55223 8 8.99994 8.44772 8.99994 9ZM5.5 11V13.5H10.5V11H5.5Z" fill="#18181B"/>
</svg>
