<svg width="16" height="16" viewBox="0 0 16 16" fill="none" xmlns="http://www.w3.org/2000/svg">
<g clip-path="url(#clip0_2217_3124)">
<path fill-rule="evenodd" clip-rule="evenodd" d="M11.9954 0.667242C11.9497 0.255562 11.5789 -0.0410889 11.1672 0.00465334C10.7555 0.0503956 10.4588 0.42121 10.5046 0.83289L11.1898 7.00006H10.3225C8.68345 7.00006 7.42735 8.44854 7.12633 10.0597C6.8658 11.4542 6.3719 12.64 5.92564 13.5001C5.43389 14.4478 5 15.0001 5 15.0001H6.80342H13.5C13.5 15.0001 15.5808 13.266 15.9877 9.50914C16.1408 8.0951 14.911 7.00006 13.4887 7.00006H12.6991L11.9954 0.667242ZM3.75 2.50007C3.33579 2.50007 3 2.83585 3 3.25007C3 3.66428 3.33579 4.00007 3.75 4.00007H8.25C8.66421 4.00007 9 3.66428 9 3.25007C9 2.83585 8.66421 2.50007 8.25 2.50007H3.75ZM0.75 6.00006C0.335786 6.00006 0 6.33585 0 6.75006C0 7.16428 0.335786 7.50006 0.75 7.50006H6.25C6.66421 7.50006 7 7.16428 7 6.75006C7 6.33585 6.66421 6.00006 6.25 6.00006H0.75ZM1 10.2501C1 9.83585 1.33579 9.50006 1.75 9.50006H4.25C4.66421 9.50006 5 9.83585 5 10.2501C5 10.6643 4.66421 11.0001 4.25 11.0001H1.75C1.33579 11.0001 1 10.6643 1 10.2501ZM7.59283 13.5001C7.98608 12.6339 8.37209 11.5594 8.60082 10.3352C8.81899 9.16745 9.64632 8.50006 10.3225 8.50006H13.4887C13.8213 8.50006 14.1075 8.6299 14.2865 8.80289C14.4522 8.96305 14.5184 9.14441 14.4964 9.34764C14.3207 10.9702 13.7883 12.1267 13.3235 12.8618C13.1548 13.1285 12.9943 13.3408 12.8618 13.5001H11.8634C12.4017 12.7943 12.75 11.7722 12.75 10.7501H12C11.6489 11.9788 10.9282 12.8377 9.83764 13.5001H7.59283Z" fill="#18181B"/>
</g>
<defs>
<clipPath id="clip0_2217_3124">
<rect width="16" height="16" fill="white"/>
</clipPath>
</defs>
</svg>
