<svg width="16" height="16" viewBox="0 0 16 16" fill="none" xmlns="http://www.w3.org/2000/svg">
<g clip-path="url(#clip0_2217_4701)">
<path fill-rule="evenodd" clip-rule="evenodd" d="M13.5002 4.75C13.5002 4.33579 13.1644 4 12.7502 4C12.336 4 12.0002 4.33579 12.0002 4.75V11.25C12.0002 11.6642 12.336 12 12.7502 12H15.2502C15.6644 12 16.0002 11.6642 16.0002 11.25C16.0002 10.8358 15.6644 10.5 15.2502 10.5H13.5002V4.75ZM11.0002 8.00011C11.0002 9.32058 10.7427 10.3141 10.2915 10.9807L11.2805 11.9697C11.5734 12.2626 11.5734 12.7375 11.2805 13.0303C10.9876 13.3232 10.5127 13.3232 10.2198 13.0303L9.08755 11.8981C8.86491 11.9661 8.62673 12.0001 8.37516 12.0001C6.80016 12.0001 5.75016 10.6668 5.75016 8.00011C5.75016 5.33344 6.80016 4.00011 8.37516 4.00011C9.95016 4.00011 11.0002 5.33344 11.0002 8.00011ZM9.04313 10.149C9.26527 9.82662 9.50016 9.16811 9.50016 8.00011C9.50016 6.83211 9.26527 6.17359 9.04313 5.85121C8.86811 5.59721 8.6771 5.50011 8.37516 5.50011C8.07323 5.50011 7.88222 5.59721 7.7072 5.85121C7.48506 6.17359 7.25016 6.83211 7.25016 8.00011C7.25016 9.16811 7.48506 9.82662 7.7072 10.149C7.88222 10.403 8.07323 10.5001 8.37516 10.5001C8.6771 10.5001 8.86811 10.403 9.04313 10.149ZM2.5617 4.00243C1.87311 4.00243 1.27697 4.25063 0.859919 4.71528C0.453079 5.16855 0.276626 5.7601 0.276626 6.35184C0.276626 7.08391 0.603262 7.63217 1.03594 8.01019C1.44561 8.36811 1.94393 8.5713 2.34088 8.69359C2.73877 8.81617 3.02518 8.9111 3.23017 9.06647C3.37831 9.17876 3.50021 9.33188 3.50016 9.69131C3.50013 9.9801 3.39219 10.1596 3.24803 10.2797C3.08785 10.4133 2.84346 10.5024 2.5617 10.5024C2.36034 10.5024 2.12395 10.4087 1.90354 10.2092C1.68206 10.0088 1.53272 9.75028 1.48148 9.52504C1.3896 9.12114 0.987693 8.86821 0.583799 8.96009C0.179904 9.05197 -0.0730325 9.45387 0.0188485 9.85777C0.145597 10.4149 0.472175 10.9369 0.897054 11.3214C1.32299 11.7069 1.90337 12.0024 2.5617 12.0024C3.13964 12.0024 3.73942 11.8229 4.20851 11.4319C4.69362 11.0275 5.00007 10.4264 5.00016 9.6915C5.00027 8.8489 4.64756 8.25861 4.13625 7.87106C3.70246 7.54226 3.17443 7.38031 2.83043 7.2748L2.78253 7.26008C2.47343 7.16485 2.20422 7.03904 2.02286 6.88059C1.86451 6.74224 1.77663 6.58676 1.77663 6.35184C1.77663 6.0479 1.86624 5.83974 1.97621 5.71723C2.07597 5.60609 2.24736 5.50243 2.5617 5.50243C2.88352 5.50243 3.06013 5.60086 3.17379 5.70835C3.3034 5.83093 3.40723 6.0211 3.47315 6.26835C3.57986 6.66859 3.99082 6.90653 4.39105 6.79982C4.79129 6.69311 5.02923 6.28216 4.92252 5.88192C4.81046 5.4616 4.59769 4.99042 4.20446 4.61853C3.79529 4.23156 3.24283 4.00243 2.5617 4.00243Z" fill="#18181B"/>
</g>
<defs>
<clipPath id="clip0_2217_4701">
<rect width="16" height="16" fill="white"/>
</clipPath>
</defs>
</svg>
