<svg width="16" height="16" viewBox="0 0 16 16" fill="none" xmlns="http://www.w3.org/2000/svg">
<g clip-path="url(#clip0_2217_3509)">
<path fill-rule="evenodd" clip-rule="evenodd" d="M14.0104 6.93935L9.06066 1.9896C8.47487 1.40381 7.52513 1.40381 6.93934 1.9896L1.98959 6.93935C1.40381 7.52513 1.40381 8.47488 1.98959 9.06067L6.93934 14.0104C7.52513 14.5962 8.47487 14.5962 9.06066 14.0104L14.0104 9.06067C14.5962 8.47488 14.5962 7.52513 14.0104 6.93935ZM10.1213 0.928937C8.94975 -0.242635 7.05025 -0.242635 5.87868 0.928937L0.928932 5.87868C-0.242641 7.05026 -0.242641 8.94975 0.928932 10.1213L5.87868 15.0711C7.05025 16.2426 8.94975 16.2426 10.1213 15.0711L15.0711 10.1213C16.2426 8.94975 16.2426 7.05026 15.0711 5.87868L10.1213 0.928937Z" fill="#18181B"/>
</g>
<defs>
<clipPath id="clip0_2217_3509">
<rect width="16" height="16" fill="white"/>
</clipPath>
</defs>
</svg>
