<svg width="16" height="16" viewBox="0 0 16 16" fill="none" xmlns="http://www.w3.org/2000/svg">
<path fill-rule="evenodd" clip-rule="evenodd" d="M2.5 8C2.5 4.96243 4.96243 2.5 8 2.5C8.958 2.5 9.8567 2.7443 10.6395 3.1734C11.0027 3.37251 11.4586 3.23947 11.6577 2.87626C11.8568 2.51304 11.7237 2.05718 11.3605 1.85807C10.3623 1.31087 9.21634 1 8 1C4.13401 1 1 4.13401 1 8C1 9.21634 1.31087 10.3623 1.85807 11.3605C2.05718 11.7237 2.51304 11.8568 2.87626 11.6577C3.23947 11.4586 3.37251 11.0027 3.1734 10.6395C2.7443 9.8567 2.5 8.958 2.5 8ZM14.1419 4.63948C13.9428 4.27626 13.487 4.14322 13.1237 4.34233C12.7605 4.54144 12.6275 4.9973 12.8266 5.36052C13.2557 6.1433 13.5 7.042 13.5 8C13.5 11.0376 11.0376 13.5 8 13.5C7.042 13.5 6.1433 13.2557 5.36052 12.8266C4.9973 12.6275 4.54144 12.7605 4.34233 13.1237C4.14322 13.487 4.27626 13.9428 4.63948 14.1419C5.63769 14.6891 6.78367 15 8 15C11.866 15 15 11.866 15 8C15 6.78367 14.6891 5.63769 14.1419 4.63948ZM9.5 8C9.5 8.82843 8.82843 9.5 8 9.5C7.17157 9.5 6.5 8.82843 6.5 8C6.5 7.17157 7.17157 6.5 8 6.5C8.82843 6.5 9.5 7.17157 9.5 8ZM11 8C11 9.65685 9.65685 11 8 11C6.34315 11 5 9.65685 5 8C5 6.34315 6.34315 5 8 5C9.65685 5 11 6.34315 11 8Z" fill="#18181B"/>
</svg>
