<svg width="16" height="16" viewBox="0 0 16 16" fill="none" xmlns="http://www.w3.org/2000/svg">
<g clip-path="url(#clip0_2217_4560)">
<path fill-rule="evenodd" clip-rule="evenodd" d="M5.50003 0C4.80967 0 4.25003 0.559644 4.25003 1.25V3.25H2.25003C1.55967 3.25 1.00003 3.80964 1.00003 4.5V6.88207C0.979416 6.90051 0.959267 6.91956 0.939608 6.93922L1.00003 6.99965V7.00105C0.938651 6.94017 0.93835 6.94047 0.938049 6.94078L0.936479 6.94235L0.933308 6.94555L0.92684 6.95213L0.913418 6.96604C0.904258 6.97564 0.894685 6.9859 0.884735 6.99684C0.864831 7.01873 0.843443 7.04331 0.820869 7.07072C0.775679 7.12558 0.72596 7.19148 0.674015 7.26938C0.569763 7.42572 0.458676 7.62721 0.357415 7.8803C0.153829 8.38915 2.58684e-05 9.08088 2.58684e-05 10H0L5.17368e-05 10.0088C0.00737429 11.2547 0.489321 12.5174 1.45457 13.4696C2.43379 14.4356 3.82489 15 5.50007 15C7.57098 15 9.28532 14.4105 10.6068 13.363C11.6042 12.5724 12.3203 11.5669 12.8018 10.4769C13.13 10.4544 13.4702 10.4104 13.7928 10.3244C14.6105 10.1063 15.3708 9.61257 15.8418 8.67103C16.0198 8.31505 16.0491 7.9029 15.9231 7.52532C15.602 6.56281 14.8029 5.88853 13.8517 5.64833C13.6115 4.6971 12.9373 3.89798 11.9747 3.57701C11.5973 3.45118 11.1853 3.48042 10.8295 3.65831C9.73714 4.20438 9.32666 5.24124 9.16096 5.9867C9.12309 6.15707 9.09413 6.32959 9.07199 6.5H9.00003V4V1.25C9.00003 0.559644 8.44038 0 7.75003 0H5.50003ZM7.50003 6.5V4.75H5.75003V6.5H7.50003ZM4.25003 6.5V4.75H2.50003V6.5H4.25003ZM2.00014 8C2.00014 8 1.50003 8.5 1.50003 10C1.51024 11.738 2.84435 13.5 5.50007 13.5C9.05007 13.5 11 11.5 11.7501 9C13 9 14 9 14.5002 8C14.3953 7.68551 14.1586 7.41499 13.8453 7.24371C13.4114 7.00651 12.8307 6.95966 12.25 7.25C12.5404 6.66929 12.4935 6.08858 12.2563 5.65475C12.0851 5.3415 11.8146 5.10482 11.5002 5C10.5002 5.4999 10.5002 6.99941 10.5002 7.99941V8H9.00022H8.25003H5.00003H2.00014ZM5.75003 3.25H7.50003V1.5H5.75003V3.25ZM4.25003 9C4.66424 9 5.00003 9.33579 5.00003 9.75V10.75C5.00003 11.1642 4.66424 11.5 4.25003 11.5C3.83581 11.5 3.50003 11.1642 3.50003 10.75V9.75C3.50003 9.33579 3.83581 9 4.25003 9Z" fill="#18181B"/>
</g>
<defs>
<clipPath id="clip0_2217_4560">
<rect width="16" height="16" fill="white"/>
</clipPath>
</defs>
</svg>
