<svg width="16" height="16" viewBox="0 0 16 16" fill="none" xmlns="http://www.w3.org/2000/svg">
<path fill-rule="evenodd" clip-rule="evenodd" d="M0 4.5C0 2.84315 1.34315 1.5 3 1.5H4.25736C5.05301 1.5 5.81607 1.81607 6.37868 2.37868L7 3H11C12.6569 3 14 4.34315 14 6H5.4486C4.39481 6 3.41829 6.5529 2.87612 7.45651L1.42949 9.86756C1.26884 10.1353 1.29089 10.4746 1.48485 10.7193C1.8104 11.13 2.44609 11.0887 2.71573 10.6393L4.16236 8.22826C4.43344 7.77645 4.9217 7.5 5.4486 7.5H14H14.75H14.8254C15.4741 7.5 16 8.02591 16 8.67464C16 8.88754 15.9421 9.09643 15.8326 9.27899L13.8739 12.5435C13.3317 13.4471 12.3552 14 11.3014 14H11H3H2.9399C2.82108 14 2.70447 13.9905 2.59079 13.9723C1.12752 13.7727 0 12.518 0 11V4.5Z" fill="#18181B"/>
</svg>
