<svg width="16" height="16" viewBox="0 0 16 16" fill="none" xmlns="http://www.w3.org/2000/svg">
<path fill-rule="evenodd" clip-rule="evenodd" d="M10 6.5L10 4.029L5.72381 7.5277C5.58215 7.6436 5.5 7.81697 5.5 8C5.5 8.18303 5.58215 8.3564 5.72381 8.4723L10 11.971L10 9.5L13.25 9.5C13.3881 9.5 13.5 9.38807 13.5 9.25L13.5 6.75C13.5 6.61193 13.3881 6.5 13.25 6.5L10 6.5ZM2.5 7.99839L2.5 1.75C2.5 1.33579 2.16421 1 1.75 1C1.33579 1 1 1.33579 1 1.75L0.999998 14.25C0.999998 14.6642 1.33579 15 1.75 15C2.16421 15 2.5 14.6642 2.5 14.25L2.5 8C2.5 7.99946 2.5 7.99893 2.5 7.99839ZM4 7.99877C4.00037 7.36629 4.28441 6.7673 4.77396 6.36676L9.09281 2.83316C9.35613 2.61771 9.68589 2.5 10.0261 2.5C10.8401 2.5 11.5 3.15988 11.5 3.97388L11.5 5L13.25 5C14.2165 5 15 5.7835 15 6.75L15 9.25C15 10.2165 14.2165 11 13.25 11L11.5 11L11.5 12.0261C11.5 12.8401 10.8401 13.5 10.0261 13.5C9.68589 13.5 9.35613 13.3823 9.0928 13.1668L4.77396 9.63324C4.28441 9.2327 4.00037 8.63371 4 8.00123C4 8.00082 4 8.00041 4 8C4 7.99959 4 7.99918 4 7.99877Z" fill="#18181B"/>
</svg>
